{
    "header": {
      "keySignatures": [
        {
          "key": "C",
          "scale": "major",
          "ticks": 0
        }
      ],
      "meta": [],
      "name": "",
      "ppq": 480,
      "tempos": [
        {
          "bpm": 132.000132000132,
          "ticks": 0
        },
        {
          "bpm": 132.000132000132,
          "ticks": 960
        }
      ],
      "timeSignatures": [
        {
          "ticks": 0,
          "timeSignature": [
            4,
            4
          ],
          "measures": 0
        }
      ]
    },
    "tracks": [
      {
        "channel": 0,
        "controlChanges": {},
        "pitchBends": [],
        "instrument": {
          "family": "piano",
          "number": 0,
          "name": "acoustic grand piano"
        },
        "name": "serenade_525_1_(c)ishii",
        "notes": [],
        "endOfTrackTicks": 370560
      },
      {
        "channel": 0,
        "controlChanges": {
          "7": [
            {
              "number": 7,
              "ticks": 0,
              "time": 0,
              "value": 0.9921259842519685
            }
          ],
          "10": [
            {
              "number": 10,
              "ticks": 0,
              "time": 0,
              "value": 0.2204724409448819
            }
          ],
          "91": [
            {
              "number": 91,
              "ticks": 0,
              "time": 0,
              "value": 0.6299212598425197
            }
          ]
        },
        "pitchBends": [],
        "instrument": {
          "family": "ensemble",
          "number": 48,
          "name": "string ensemble 1"
        },
        "name": "",
        "notes": [
          {
            "duration": 0.36363600000000007,
            "durationTicks": 384,
            "midi": 62,
            "name": "D4",
            "ticks": 0,
            "time": 0,
            "velocity": 0.8267716535433071
          },
          {
            "duration": 0.36363600000000007,
            "durationTicks": 384,
            "midi": 71,
            "name": "B4",
            "ticks": 0,
            "time": 0,
            "velocity": 0.8267716535433071
          },
          {
            "duration": 0.36363600000000007,
            "durationTicks": 384,
            "midi": 79,
            "name": "G5",
            "ticks": 0,
            "time": 0,
            "velocity": 0.8267716535433071
          },
          {
            "duration": 0.13636349999999997,
            "durationTicks": 144,
            "midi": 74,
            "name": "D5",
            "ticks": 720,
            "time": 0.6818175000000001,
            "velocity": 0.8267716535433071
          },
          {
            "duration": 0.36363599999999996,
            "durationTicks": 384,
            "midi": 79,
            "name": "G5",
            "ticks": 960,
            "time": 0.9090900000000001,
            "velocity": 0.8267716535433071
          },
          {
            "duration": 0.13636349999999986,
            "durationTicks": 144,
            "midi": 74,
            "name": "D5",
            "ticks": 1680,
            "time": 1.5909075000000001,
            "velocity": 0.8267716535433071
          },
          {
            "duration": 0.13636350000000008,
            "durationTicks": 144,
            "midi": 79,
            "name": "G5",
            "ticks": 1920,
            "time": 1.8181800000000001,
            "velocity": 0.8267716535433071
          },
          {
            "duration": 0.13636349999999986,
            "durationTicks": 144,
            "midi": 74,
            "name": "D5",
            "ticks": 2160,
            "time": 2.0454525,
            "velocity": 0.8267716535433071
          },
          {
            "duration": 0.13636349999999986,
            "durationTicks": 144,
            "midi": 79,
            "name": "G5",
            "ticks": 2400,
            "time": 2.2727250000000003,
            "velocity": 0.8267716535433071
          },
          {
            "duration": 0.13636349999999986,
            "durationTicks": 144,
            "midi": 83,
            "name": "B5",
            "ticks": 2640,
            "time": 2.4999975,
            "velocity": 0.8267716535433071
          },
          {
            "duration": 0.3636359999999996,
            "durationTicks": 384,
            "midi": 86,
            "name": "D6",
            "ticks": 2880,
            "time": 2.7272700000000003,
            "velocity": 0.8267716535433071
          },
          {
            "duration": 0.3636359999999996,
            "durationTicks": 384,
            "midi": 84,
            "name": "C6",
            "ticks": 3840,
            "time": 3.6363600000000003,
            "velocity": 0.8267716535433071
          },
          {
            "duration": 0.13636350000000075,
            "durationTicks": 144,
            "midi": 81,
            "name": "A5",
            "ticks": 4560,
            "time": 4.3181775,
            "velocity": 0.8267716535433071
          },
          {
            "duration": 0.3636360000000005,
            "durationTicks": 384,
            "midi": 84,
            "name": "C6",
            "ticks": 4800,
            "time": 4.545450000000001,
            "velocity": 0.8267716535433071
          },
          {
            "duration": 0.13636350000000075,
            "durationTicks": 144,
            "midi": 81,
            "name": "A5",
            "ticks": 5520,
            "time": 5.2272675,
            "velocity": 0.8267716535433071
          },
          {
            "duration": 0.13636349999999986,
            "durationTicks": 144,
            "midi": 84,
            "name": "C6",
            "ticks": 5760,
            "time": 5.454540000000001,
            "velocity": 0.8267716535433071
          },
          {
            "duration": 0.13636349999999986,
            "durationTicks": 144,
            "midi": 81,
            "name": "A5",
            "ticks": 6000,
            "time": 5.6818125,
            "velocity": 0.8267716535433071
          },
          {
            "duration": 0.13636350000000075,
            "durationTicks": 144,
            "midi": 78,
            "name": "F#5",
            "ticks": 6240,
            "time": 5.909085,
            "velocity": 0.8267716535433071
          },
          {
            "duration": 0.13636350000000075,
            "durationTicks": 144,
            "midi": 81,
            "name": "A5",
            "ticks": 6480,
            "time": 6.1363575,
            "velocity": 0.8267716535433071
          },
          {
            "duration": 0.3636360000000005,
            "durationTicks": 384,
            "midi": 74,
            "name": "D5",
            "ticks": 6720,
            "time": 6.363630000000001,
            "velocity": 0.8267716535433071
          },
          {
            "duration": 0.1818179999999998,
            "durationTicks": 192,
            "midi": 62,
            "name": "D4",
            "ticks": 7680,
            "time": 7.2727200000000005,
            "velocity": 0.9133858267716536
          },
          {
            "duration": 0.1818179999999998,
            "durationTicks": 192,
            "midi": 71,
            "name": "B4",
            "ticks": 7680,
            "time": 7.2727200000000005,
            "velocity": 0.9133858267716536
          },
          {
            "duration": 0.13636349999999986,
            "durationTicks": 144,
            "midi": 79,
            "name": "G5",
            "ticks": 7680,
            "time": 7.2727200000000005,
            "velocity": 0.9133858267716536
          },
          {
            "duration": 0.5454540000000003,
            "durationTicks": 576,
            "midi": 79,
            "name": "G5",
            "ticks": 8160,
            "time": 7.727265,
            "velocity": 0.9133858267716536
          },
          {
            "duration": 0.22727250000000154,
            "durationTicks": 240,
            "midi": 83,
            "name": "B5",
            "ticks": 8880,
            "time": 8.4090825,
            "velocity": 0.9133858267716536
          },
          {
            "duration": 0.13636349999999986,
            "durationTicks": 144,
            "midi": 81,
            "name": "A5",
            "ticks": 9120,
            "time": 8.636355000000002,
            "velocity": 0.9133858267716536
          },
          {
            "duration": 0.13636349999999986,
            "durationTicks": 144,
            "midi": 79,
            "name": "G5",
            "ticks": 9360,
            "time": 8.863627500000002,
            "velocity": 0.9133858267716536
          },
          {
            "duration": 0.0568181249999995,
            "durationTicks": 60,
            "midi": 81,
            "name": "A5",
            "ticks": 9600,
            "time": 9.090900000000001,
            "velocity": 0.9133858267716536
          },
          {
            "duration": 0.056818125000001274,
            "durationTicks": 60,
            "midi": 79,
            "name": "G5",
            "ticks": 9660,
            "time": 9.147718125,
            "velocity": 0.9133858267716536
          },
          {
            "duration": 0.0568181249999995,
            "durationTicks": 60,
            "midi": 81,
            "name": "A5",
            "ticks": 9720,
            "time": 9.204536250000002,
            "velocity": 0.9133858267716536
          },
          {
            "duration": 0.0568181249999995,
            "durationTicks": 60,
            "midi": 79,
            "name": "G5",
            "ticks": 9780,
            "time": 9.261354375000002,
            "velocity": 0.9133858267716536
          },
          {
            "duration": 0.13636349999999986,
            "durationTicks": 144,
            "midi": 78,
            "name": "F#5",
            "ticks": 9840,
            "time": 9.318172500000001,
            "velocity": 0.9133858267716536
          },
          {
            "duration": 0.5454539999999994,
            "durationTicks": 576,
            "midi": 78,
            "name": "F#5",
            "ticks": 10080,
            "time": 9.545445,
            "velocity": 0.9133858267716536
          },
          {
            "duration": 0.22727249999999977,
            "durationTicks": 240,
            "midi": 81,
            "name": "A5",
            "ticks": 10800,
            "time": 10.227262500000002,
            "velocity": 0.9133858267716536
          },
          {
            "duration": 0.13636349999999986,
            "durationTicks": 144,
            "midi": 84,
            "name": "C6",
            "ticks": 11040,
            "time": 10.454535000000002,
            "velocity": 0.9133858267716536
          },
          {
            "duration": 0.13636349999999986,
            "durationTicks": 144,
            "midi": 78,
            "name": "F#5",
            "ticks": 11280,
            "time": 10.681807500000001,
            "velocity": 0.9133858267716536
          },
          {
            "duration": 0.22727249999999977,
            "durationTicks": 240,
            "midi": 81,
            "name": "A5",
            "ticks": 11520,
            "time": 10.909080000000001,
            "velocity": 0.9133858267716536
          },
          {
            "duration": 0.13636350000000164,
            "durationTicks": 144,
            "midi": 79,
            "name": "G5",
            "ticks": 11760,
            "time": 11.136352500000001,
            "velocity": 0.9133858267716536
          },
          {
            "duration": 0.5454540000000012,
            "durationTicks": 576,
            "midi": 79,
            "name": "G5",
            "ticks": 12000,
            "time": 11.363625,
            "velocity": 0.9133858267716536
          },
          {
            "duration": 0.22727249999999977,
            "durationTicks": 240,
            "midi": 83,
            "name": "B5",
            "ticks": 12720,
            "time": 12.045442500000002,
            "velocity": 0.9133858267716536
          },
          {
            "duration": 0.13636349999999986,
            "durationTicks": 144,
            "midi": 81,
            "name": "A5",
            "ticks": 12960,
            "time": 12.272715000000002,
            "velocity": 0.9133858267716536
          },
          {
            "duration": 0.13636349999999986,
            "durationTicks": 144,
            "midi": 79,
            "name": "G5",
            "ticks": 13200,
            "time": 12.499987500000001,
            "velocity": 0.9133858267716536
          },
          {
            "duration": 0.056818125000001274,
            "durationTicks": 60,
            "midi": 81,
            "name": "A5",
            "ticks": 13440,
            "time": 12.727260000000001,
            "velocity": 0.9133858267716536
          },
          {
            "duration": 0.0568181249999995,
            "durationTicks": 60,
            "midi": 79,
            "name": "G5",
            "ticks": 13500,
            "time": 12.784078125000002,
            "velocity": 0.9133858267716536
          },
          {
            "duration": 0.0568181249999995,
            "durationTicks": 60,
            "midi": 81,
            "name": "A5",
            "ticks": 13560,
            "time": 12.840896250000002,
            "velocity": 0.9133858267716536
          },
          {
            "duration": 0.0568181249999995,
            "durationTicks": 60,
            "midi": 79,
            "name": "G5",
            "ticks": 13620,
            "time": 12.897714375000001,
            "velocity": 0.9133858267716536
          },
          {
            "duration": 0.13636350000000164,
            "durationTicks": 144,
            "midi": 78,
            "name": "F#5",
            "ticks": 13680,
            "time": 12.954532500000001,
            "velocity": 0.9133858267716536
          },
          {
            "duration": 0.5454539999999994,
            "durationTicks": 576,
            "midi": 78,
            "name": "F#5",
            "ticks": 13920,
            "time": 13.181805000000002,
            "velocity": 0.9133858267716536
          },
          {
            "duration": 0.22727249999999977,
            "durationTicks": 240,
            "midi": 81,
            "name": "A5",
            "ticks": 14640,
            "time": 13.863622500000002,
            "velocity": 0.9133858267716536
          },
          {
            "duration": 0.13636349999999986,
            "durationTicks": 144,
            "midi": 84,
            "name": "C6",
            "ticks": 14880,
            "time": 14.090895000000002,
            "velocity": 0.9133858267716536
          },
          {
            "duration": 0.13636350000000164,
            "durationTicks": 144,
            "midi": 78,
            "name": "F#5",
            "ticks": 15120,
            "time": 14.318167500000001,
            "velocity": 0.9133858267716536
          },
          {
            "duration": 0.13636350000000164,
            "durationTicks": 144,
            "midi": 79,
            "name": "G5",
            "ticks": 15360,
            "time": 14.545440000000001,
            "velocity": 0.9133858267716536
          },
          {
            "duration": 0.13636349999999986,
            "durationTicks": 144,
            "midi": 79,
            "name": "G5",
            "ticks": 15600,
            "time": 14.772712500000003,
            "velocity": 0.9133858267716536
          },
          {
            "duration": 0.113636249999999,
            "durationTicks": 120,
            "midi": 79,
            "name": "G5",
            "ticks": 15840,
            "time": 14.999985000000002,
            "velocity": 0.9133858267716536
          },
          {
            "duration": 0.11363625000000077,
            "durationTicks": 120,
            "midi": 78,
            "name": "F#5",
            "ticks": 15960,
            "time": 15.113621250000001,
            "velocity": 0.9133858267716536
          },
          {
            "duration": 0.113636249999999,
            "durationTicks": 120,
            "midi": 76,
            "name": "E5",
            "ticks": 16080,
            "time": 15.227257500000002,
            "velocity": 0.9133858267716536
          },
          {
            "duration": 0.11363625000000077,
            "durationTicks": 120,
            "midi": 78,
            "name": "F#5",
            "ticks": 16200,
            "time": 15.340893750000001,
            "velocity": 0.9133858267716536
          },
          {
            "duration": 0.13636349999999808,
            "durationTicks": 144,
            "midi": 79,
            "name": "G5",
            "ticks": 16320,
            "time": 15.454530000000002,
            "velocity": 0.9133858267716536
          },
          {
            "duration": 0.13636349999999808,
            "durationTicks": 144,
            "midi": 79,
            "name": "G5",
            "ticks": 16560,
            "time": 15.681802500000002,
            "velocity": 0.9133858267716536
          },
          {
            "duration": 0.113636249999999,
            "durationTicks": 120,
            "midi": 83,
            "name": "B5",
            "ticks": 16800,
            "time": 15.909075000000001,
            "velocity": 0.9133858267716536
          },
          {
            "duration": 0.113636249999999,
            "durationTicks": 120,
            "midi": 81,
            "name": "A5",
            "ticks": 16920,
            "time": 16.02271125,
            "velocity": 0.9133858267716536
          },
          {
            "duration": 0.11363625000000255,
            "durationTicks": 120,
            "midi": 79,
            "name": "G5",
            "ticks": 17040,
            "time": 16.1363475,
            "velocity": 0.9133858267716536
          },
          {
            "duration": 0.0909089999999999,
            "durationTicks": 96,
            "midi": 81,
            "name": "A5",
            "ticks": 17160,
            "time": 16.249983750000002,
            "velocity": 0.9133858267716536
          },
          {
            "duration": 0.13636349999999808,
            "durationTicks": 144,
            "midi": 83,
            "name": "B5",
            "ticks": 17280,
            "time": 16.36362,
            "velocity": 0.9133858267716536
          },
          {
            "duration": 0.13636349999999808,
            "durationTicks": 144,
            "midi": 83,
            "name": "B5",
            "ticks": 17520,
            "time": 16.590892500000002,
            "velocity": 0.9133858267716536
          },
          {
            "duration": 0.113636249999999,
            "durationTicks": 120,
            "midi": 86,
            "name": "D6",
            "ticks": 17760,
            "time": 16.818165,
            "velocity": 0.9133858267716536
          },
          {
            "duration": 0.113636249999999,
            "durationTicks": 120,
            "midi": 84,
            "name": "C6",
            "ticks": 17880,
            "time": 16.93180125,
            "velocity": 0.9133858267716536
          },
          {
            "duration": 0.11363625000000255,
            "durationTicks": 120,
            "midi": 83,
            "name": "B5",
            "ticks": 18000,
            "time": 17.0454375,
            "velocity": 0.9133858267716536
          },
          {
            "duration": 0.0909089999999999,
            "durationTicks": 96,
            "midi": 84,
            "name": "C6",
            "ticks": 18120,
            "time": 17.15907375,
            "velocity": 0.9133858267716536
          },
          {
            "duration": 0.3636359999999996,
            "durationTicks": 384,
            "midi": 86,
            "name": "D6",
            "ticks": 18240,
            "time": 17.27271,
            "velocity": 0.7244094488188977
          },
          {
            "duration": 0.9090900000000026,
            "durationTicks": 960,
            "midi": 74,
            "name": "D5",
            "ticks": 19200,
            "time": 18.1818,
            "velocity": 0.5669291338582677
          },
          {
            "duration": 0.7272719999999993,
            "durationTicks": 768,
            "midi": 76,
            "name": "E5",
            "ticks": 20160,
            "time": 19.09089,
            "velocity": 0.5669291338582677
          },
          {
            "duration": 0.113636249999999,
            "durationTicks": 120,
            "midi": 74,
            "name": "D5",
            "ticks": 21120,
            "time": 19.99998,
            "velocity": 0.5669291338582677
          },
          {
            "duration": 0.22159068750000088,
            "durationTicks": 234,
            "midi": 72,
            "name": "C5",
            "ticks": 21240,
            "time": 20.11361625,
            "velocity": 0.5669291338582677
          },
          {
            "duration": 0.2954542499999988,
            "durationTicks": 312,
            "midi": 72,
            "name": "C5",
            "ticks": 21600,
            "time": 20.454525,
            "velocity": 0.5669291338582677
          },
          {
            "duration": 0.113636249999999,
            "durationTicks": 120,
            "midi": 72,
            "name": "C5",
            "ticks": 22080,
            "time": 20.90907,
            "velocity": 0.5669291338582677
          },
          {
            "duration": 0.22159068750000088,
            "durationTicks": 234,
            "midi": 71,
            "name": "B4",
            "ticks": 22200,
            "time": 21.02270625,
            "velocity": 0.5669291338582677
          },
          {
            "duration": 0.2954542499999988,
            "durationTicks": 312,
            "midi": 71,
            "name": "B4",
            "ticks": 22560,
            "time": 21.363615,
            "velocity": 0.5669291338582677
          },
          {
            "duration": 0.11363625000000255,
            "durationTicks": 120,
            "midi": 71,
            "name": "B4",
            "ticks": 23040,
            "time": 21.81816,
            "velocity": 0.5669291338582677
          },
          {
            "duration": 0.22159068749999733,
            "durationTicks": 234,
            "midi": 69,
            "name": "A4",
            "ticks": 23160,
            "time": 21.93179625,
            "velocity": 0.5669291338582677
          },
          {
            "duration": 0.2954542499999988,
            "durationTicks": 312,
            "midi": 69,
            "name": "A4",
            "ticks": 23520,
            "time": 22.272705000000002,
            "velocity": 0.5669291338582677
          },
          {
            "duration": 0.227272499999998,
            "durationTicks": 240,
            "midi": 67,
            "name": "G4",
            "ticks": 24000,
            "time": 22.72725,
            "velocity": 0.5669291338582677
          },
          {
            "duration": 0.14772712500000296,
            "durationTicks": 156,
            "midi": 66,
            "name": "F#4",
            "ticks": 24240,
            "time": 22.9545225,
            "velocity": 0.5669291338582677
          },
          {
            "duration": 0.1477271249999994,
            "durationTicks": 156,
            "midi": 64,
            "name": "E4",
            "ticks": 24480,
            "time": 23.181795,
            "velocity": 0.5669291338582677
          },
          {
            "duration": 0.14772712500000296,
            "durationTicks": 156,
            "midi": 66,
            "name": "F#4",
            "ticks": 24720,
            "time": 23.4090675,
            "velocity": 0.5669291338582677
          },
          {
            "duration": 0.1818179999999998,
            "durationTicks": 192,
            "midi": 67,
            "name": "G4",
            "ticks": 24960,
            "time": 23.63634,
            "velocity": 0.5669291338582677
          },
          {
            "duration": 0.1818179999999998,
            "durationTicks": 192,
            "midi": 69,
            "name": "A4",
            "ticks": 25440,
            "time": 24.090885,
            "velocity": 0.5669291338582677
          },
          {
            "duration": 0.1818179999999998,
            "durationTicks": 192,
            "midi": 71,
            "name": "B4",
            "ticks": 25920,
            "time": 24.54543,
            "velocity": 0.4566929133858268
          },
          {
            "duration": 0.9090899999999991,
            "durationTicks": 960,
            "midi": 74,
            "name": "D5",
            "ticks": 26880,
            "time": 25.454520000000002,
            "velocity": 0.5669291338582677
          },
          {
            "duration": 0.7272719999999993,
            "durationTicks": 768,
            "midi": 76,
            "name": "E5",
            "ticks": 27840,
            "time": 26.36361,
            "velocity": 0.5669291338582677
          },
          {
            "duration": 0.22727250000000154,
            "durationTicks": 240,
            "midi": 74,
            "name": "D5",
            "ticks": 28800,
            "time": 27.2727,
            "velocity": 0.5669291338582677
          },
          {
            "duration": 0.1477271249999994,
            "durationTicks": 156,
            "midi": 72,
            "name": "C5",
            "ticks": 29040,
            "time": 27.499972500000002,
            "velocity": 0.5669291338582677
          },
          {
            "duration": 0.14772712500000296,
            "durationTicks": 156,
            "midi": 72,
            "name": "C5",
            "ticks": 29280,
            "time": 27.727245,
            "velocity": 0.5669291338582677
          },
          {
            "duration": 0.1477271249999994,
            "durationTicks": 156,
            "midi": 72,
            "name": "C5",
            "ticks": 29520,
            "time": 27.9545175,
            "velocity": 0.5669291338582677
          },
          {
            "duration": 0.22727250000000154,
            "durationTicks": 240,
            "midi": 72,
            "name": "C5",
            "ticks": 29760,
            "time": 28.18179,
            "velocity": 0.5669291338582677
          },
          {
            "duration": 0.14772712500000296,
            "durationTicks": 156,
            "midi": 71,
            "name": "B4",
            "ticks": 30000,
            "time": 28.4090625,
            "velocity": 0.5669291338582677
          },
          {
            "duration": 0.1477271249999994,
            "durationTicks": 156,
            "midi": 71,
            "name": "B4",
            "ticks": 30240,
            "time": 28.636335000000003,
            "velocity": 0.5669291338582677
          },
          {
            "duration": 0.14772712500000296,
            "durationTicks": 156,
            "midi": 71,
            "name": "B4",
            "ticks": 30480,
            "time": 28.8636075,
            "velocity": 0.5669291338582677
          },
          {
            "duration": 0.227272499999998,
            "durationTicks": 240,
            "midi": 71,
            "name": "B4",
            "ticks": 30720,
            "time": 29.090880000000002,
            "velocity": 0.5669291338582677
          },
          {
            "duration": 0.14772712500000296,
            "durationTicks": 156,
            "midi": 69,
            "name": "A4",
            "ticks": 30960,
            "time": 29.3181525,
            "velocity": 0.5669291338582677
          },
          {
            "duration": 0.1477271249999994,
            "durationTicks": 156,
            "midi": 69,
            "name": "A4",
            "ticks": 31200,
            "time": 29.545425,
            "velocity": 0.5669291338582677
          },
          {
            "duration": 0.14772712500000296,
            "durationTicks": 156,
            "midi": 69,
            "name": "A4",
            "ticks": 31440,
            "time": 29.7726975,
            "velocity": 0.5669291338582677
          },
          {
            "duration": 0.22727250000000154,
            "durationTicks": 240,
            "midi": 67,
            "name": "G4",
            "ticks": 31680,
            "time": 29.99997,
            "velocity": 0.5669291338582677
          },
          {
            "duration": 0.227272499999998,
            "durationTicks": 240,
            "midi": 66,
            "name": "F#4",
            "ticks": 31920,
            "time": 30.227242500000003,
            "velocity": 0.5669291338582677
          },
          {
            "duration": 0.22727250000000154,
            "durationTicks": 240,
            "midi": 64,
            "name": "E4",
            "ticks": 32160,
            "time": 30.454515,
            "velocity": 0.5669291338582677
          },
          {
            "duration": 0.1477271249999994,
            "durationTicks": 156,
            "midi": 66,
            "name": "F#4",
            "ticks": 32400,
            "time": 30.681787500000002,
            "velocity": 0.5669291338582677
          },
          {
            "duration": 1.0909080000000024,
            "durationTicks": 1152,
            "midi": 55,
            "name": "G3",
            "ticks": 32640,
            "time": 30.90906,
            "velocity": 0.6377952755905512
          },
          {
            "duration": 1.0909080000000024,
            "durationTicks": 1152,
            "midi": 67,
            "name": "G4",
            "ticks": 32640,
            "time": 30.90906,
            "velocity": 0.952755905511811
          },
          {
            "duration": 0.0568181249999995,
            "durationTicks": 60,
            "midi": 69,
            "name": "A4",
            "ticks": 33840,
            "time": 32.0454225,
            "velocity": 0.5669291338582677
          },
          {
            "duration": 0.0568181249999995,
            "durationTicks": 60,
            "midi": 67,
            "name": "G4",
            "ticks": 33900,
            "time": 32.102240625,
            "velocity": 0.5669291338582677
          },
          {
            "duration": 0.0568181250000066,
            "durationTicks": 60,
            "midi": 66,
            "name": "F#4",
            "ticks": 33960,
            "time": 32.15905875,
            "velocity": 0.5669291338582677
          },
          {
            "duration": 0.0568181249999995,
            "durationTicks": 60,
            "midi": 67,
            "name": "G4",
            "ticks": 34020,
            "time": 32.215876875000006,
            "velocity": 0.5669291338582677
          },
          {
            "duration": 0.227272499999998,
            "durationTicks": 240,
            "midi": 69,
            "name": "A4",
            "ticks": 34080,
            "time": 32.272695000000006,
            "velocity": 0.5669291338582677
          },
          {
            "duration": 0.1818179999999998,
            "durationTicks": 192,
            "midi": 66,
            "name": "F#4",
            "ticks": 34320,
            "time": 32.499967500000004,
            "velocity": 0.5669291338582677
          },
          {
            "duration": 1.0909079999999989,
            "durationTicks": 1152,
            "midi": 71,
            "name": "B4",
            "ticks": 34560,
            "time": 32.72724,
            "velocity": 0.952755905511811
          },
          {
            "duration": 0.0568181249999995,
            "durationTicks": 60,
            "midi": 72,
            "name": "C5",
            "ticks": 35760,
            "time": 33.8636025,
            "velocity": 0.5669291338582677
          },
          {
            "duration": 0.0568181249999995,
            "durationTicks": 60,
            "midi": 71,
            "name": "B4",
            "ticks": 35820,
            "time": 33.920420625,
            "velocity": 0.5669291338582677
          },
          {
            "duration": 0.0568181250000066,
            "durationTicks": 60,
            "midi": 69,
            "name": "A4",
            "ticks": 35880,
            "time": 33.97723875,
            "velocity": 0.5669291338582677
          },
          {
            "duration": 0.0568181249999995,
            "durationTicks": 60,
            "midi": 71,
            "name": "B4",
            "ticks": 35940,
            "time": 34.034056875000005,
            "velocity": 0.5669291338582677
          },
          {
            "duration": 0.227272499999998,
            "durationTicks": 240,
            "midi": 72,
            "name": "C5",
            "ticks": 36000,
            "time": 34.090875000000004,
            "velocity": 0.5669291338582677
          },
          {
            "duration": 0.1818179999999998,
            "durationTicks": 192,
            "midi": 69,
            "name": "A4",
            "ticks": 36240,
            "time": 34.3181475,
            "velocity": 0.5669291338582677
          },
          {
            "duration": 0.09090900000000346,
            "durationTicks": 96,
            "midi": 74,
            "name": "D5",
            "ticks": 36480,
            "time": 34.54542,
            "velocity": 0.5669291338582677
          },
          {
            "duration": 0.09090900000000346,
            "durationTicks": 96,
            "midi": 74,
            "name": "D5",
            "ticks": 36600,
            "time": 34.65905625,
            "velocity": 0.5669291338582677
          },
          {
            "duration": 0.09090900000000346,
            "durationTicks": 96,
            "midi": 74,
            "name": "D5",
            "ticks": 36720,
            "time": 34.7726925,
            "velocity": 0.5669291338582677
          },
          {
            "duration": 0.09090899999999635,
            "durationTicks": 96,
            "midi": 74,
            "name": "D5",
            "ticks": 36840,
            "time": 34.886328750000004,
            "velocity": 0.5669291338582677
          },
          {
            "duration": 0.09090899999999635,
            "durationTicks": 96,
            "midi": 74,
            "name": "D5",
            "ticks": 36960,
            "time": 34.999965,
            "velocity": 0.5669291338582677
          },
          {
            "duration": 0.09090900000000346,
            "durationTicks": 96,
            "midi": 74,
            "name": "D5",
            "ticks": 37080,
            "time": 35.11360125,
            "velocity": 0.5669291338582677
          },
          {
            "duration": 0.09090900000000346,
            "durationTicks": 96,
            "midi": 74,
            "name": "D5",
            "ticks": 37200,
            "time": 35.2272375,
            "velocity": 0.5669291338582677
          },
          {
            "duration": 0.09090900000000346,
            "durationTicks": 96,
            "midi": 74,
            "name": "D5",
            "ticks": 37320,
            "time": 35.34087375,
            "velocity": 0.5669291338582677
          },
          {
            "duration": 0.09090900000000346,
            "durationTicks": 96,
            "midi": 76,
            "name": "E5",
            "ticks": 37440,
            "time": 35.45451,
            "velocity": 0.6377952755905512
          },
          {
            "duration": 0.09090900000000346,
            "durationTicks": 96,
            "midi": 76,
            "name": "E5",
            "ticks": 37560,
            "time": 35.56814625,
            "velocity": 0.6377952755905512
          },
          {
            "duration": 0.09090899999999635,
            "durationTicks": 96,
            "midi": 76,
            "name": "E5",
            "ticks": 37680,
            "time": 35.681782500000004,
            "velocity": 0.6377952755905512
          },
          {
            "duration": 0.09090899999999635,
            "durationTicks": 96,
            "midi": 76,
            "name": "E5",
            "ticks": 37800,
            "time": 35.79541875,
            "velocity": 0.6377952755905512
          },
          {
            "duration": 0.09090900000000346,
            "durationTicks": 96,
            "midi": 78,
            "name": "F#5",
            "ticks": 37920,
            "time": 35.909055,
            "velocity": 0.6377952755905512
          },
          {
            "duration": 0.09090900000000346,
            "durationTicks": 96,
            "midi": 78,
            "name": "F#5",
            "ticks": 38040,
            "time": 36.02269125,
            "velocity": 0.6377952755905512
          },
          {
            "duration": 0.09090900000000346,
            "durationTicks": 96,
            "midi": 78,
            "name": "F#5",
            "ticks": 38160,
            "time": 36.1363275,
            "velocity": 0.6377952755905512
          },
          {
            "duration": 0.09090900000000346,
            "durationTicks": 96,
            "midi": 78,
            "name": "F#5",
            "ticks": 38280,
            "time": 36.24996375,
            "velocity": 0.6377952755905512
          },
          {
            "duration": 0.09090900000000346,
            "durationTicks": 96,
            "midi": 79,
            "name": "G5",
            "ticks": 38400,
            "time": 36.3636,
            "velocity": 0.7244094488188977
          },
          {
            "duration": 0.09090899999999635,
            "durationTicks": 96,
            "midi": 79,
            "name": "G5",
            "ticks": 38520,
            "time": 36.477236250000004,
            "velocity": 0.7244094488188977
          },
          {
            "duration": 0.09090899999999635,
            "durationTicks": 96,
            "midi": 79,
            "name": "G5",
            "ticks": 38640,
            "time": 36.5908725,
            "velocity": 0.7244094488188977
          },
          {
            "duration": 0.09090900000000346,
            "durationTicks": 96,
            "midi": 79,
            "name": "G5",
            "ticks": 38760,
            "time": 36.70450875,
            "velocity": 0.7244094488188977
          },
          {
            "duration": 0.09090900000000346,
            "durationTicks": 96,
            "midi": 81,
            "name": "A5",
            "ticks": 38880,
            "time": 36.818145,
            "velocity": 0.7244094488188977
          },
          {
            "duration": 0.09090900000000346,
            "durationTicks": 96,
            "midi": 81,
            "name": "A5",
            "ticks": 39000,
            "time": 36.93178125,
            "velocity": 0.7244094488188977
          },
          {
            "duration": 0.09090900000000346,
            "durationTicks": 96,
            "midi": 81,
            "name": "A5",
            "ticks": 39120,
            "time": 37.0454175,
            "velocity": 0.7244094488188977
          },
          {
            "duration": 0.09090900000000346,
            "durationTicks": 96,
            "midi": 81,
            "name": "A5",
            "ticks": 39240,
            "time": 37.15905375,
            "velocity": 0.8267716535433071
          },
          {
            "duration": 0.09090899999999635,
            "durationTicks": 96,
            "midi": 83,
            "name": "B5",
            "ticks": 39360,
            "time": 37.272690000000004,
            "velocity": 0.8267716535433071
          },
          {
            "duration": 0.09090899999999635,
            "durationTicks": 96,
            "midi": 83,
            "name": "B5",
            "ticks": 39480,
            "time": 37.38632625,
            "velocity": 0.8267716535433071
          },
          {
            "duration": 0.09090900000000346,
            "durationTicks": 96,
            "midi": 83,
            "name": "B5",
            "ticks": 39600,
            "time": 37.4999625,
            "velocity": 0.8267716535433071
          },
          {
            "duration": 0.09090900000000346,
            "durationTicks": 96,
            "midi": 83,
            "name": "B5",
            "ticks": 39720,
            "time": 37.61359875,
            "velocity": 0.8267716535433071
          },
          {
            "duration": 0.09090900000000346,
            "durationTicks": 96,
            "midi": 85,
            "name": "C#6",
            "ticks": 39840,
            "time": 37.727235,
            "velocity": 0.8267716535433071
          },
          {
            "duration": 0.09090900000000346,
            "durationTicks": 96,
            "midi": 85,
            "name": "C#6",
            "ticks": 39960,
            "time": 37.84087125,
            "velocity": 0.9133858267716536
          },
          {
            "duration": 0.09090900000000346,
            "durationTicks": 96,
            "midi": 85,
            "name": "C#6",
            "ticks": 40080,
            "time": 37.9545075,
            "velocity": 0.9133858267716536
          },
          {
            "duration": 0.09090899999999635,
            "durationTicks": 96,
            "midi": 85,
            "name": "C#6",
            "ticks": 40200,
            "time": 38.068143750000004,
            "velocity": 0.9133858267716536
          },
          {
            "duration": 0.6818175000000011,
            "durationTicks": 720,
            "midi": 86,
            "name": "D6",
            "ticks": 40320,
            "time": 38.18178,
            "velocity": 1
          },
          {
            "duration": 0.1818179999999998,
            "durationTicks": 192,
            "midi": 81,
            "name": "A5",
            "ticks": 41040,
            "time": 38.863597500000004,
            "velocity": 0.9133858267716536
          },
          {
            "duration": 0.340908749999997,
            "durationTicks": 360,
            "midi": 85,
            "name": "C#6",
            "ticks": 41280,
            "time": 39.09087,
            "velocity": 0.9133858267716536
          },
          {
            "duration": 0.09090900000000346,
            "durationTicks": 96,
            "midi": 81,
            "name": "A5",
            "ticks": 41640,
            "time": 39.43177875,
            "velocity": 0.9133858267716536
          },
          {
            "duration": 0.3409087500000041,
            "durationTicks": 360,
            "midi": 85,
            "name": "C#6",
            "ticks": 41760,
            "time": 39.545415,
            "velocity": 0.9133858267716536
          },
          {
            "duration": 0.09090900000000346,
            "durationTicks": 96,
            "midi": 81,
            "name": "A5",
            "ticks": 42120,
            "time": 39.88632375,
            "velocity": 0.9133858267716536
          },
          {
            "duration": 0.6818175000000011,
            "durationTicks": 720,
            "midi": 86,
            "name": "D6",
            "ticks": 42240,
            "time": 39.99996,
            "velocity": 1
          },
          {
            "duration": 0.1818179999999998,
            "durationTicks": 192,
            "midi": 81,
            "name": "A5",
            "ticks": 42960,
            "time": 40.6817775,
            "velocity": 0.9133858267716536
          },
          {
            "duration": 0.3409087500000041,
            "durationTicks": 360,
            "midi": 85,
            "name": "C#6",
            "ticks": 43200,
            "time": 40.90905,
            "velocity": 0.9133858267716536
          },
          {
            "duration": 0.09090899999999635,
            "durationTicks": 96,
            "midi": 81,
            "name": "A5",
            "ticks": 43560,
            "time": 41.249958750000005,
            "velocity": 0.9133858267716536
          },
          {
            "duration": 0.340908749999997,
            "durationTicks": 360,
            "midi": 85,
            "name": "C#6",
            "ticks": 43680,
            "time": 41.363595000000004,
            "velocity": 0.9133858267716536
          },
          {
            "duration": 0.09090900000000346,
            "durationTicks": 96,
            "midi": 81,
            "name": "A5",
            "ticks": 44040,
            "time": 41.70450375,
            "velocity": 0.9133858267716536
          },
          {
            "duration": 0.13636350000000164,
            "durationTicks": 144,
            "midi": 86,
            "name": "D6",
            "ticks": 44160,
            "time": 41.81814,
            "velocity": 0.9133858267716536
          },
          {
            "duration": 0.3636359999999925,
            "durationTicks": 384,
            "midi": 78,
            "name": "F#5",
            "ticks": 44400,
            "time": 42.045412500000005,
            "velocity": 0.9133858267716536
          },
          {
            "duration": 0.3636359999999925,
            "durationTicks": 384,
            "midi": 86,
            "name": "D6",
            "ticks": 44400,
            "time": 42.045412500000005,
            "velocity": 0.9133858267716536
          },
          {
            "duration": 0.3636359999999996,
            "durationTicks": 384,
            "midi": 78,
            "name": "F#5",
            "ticks": 44880,
            "time": 42.4999575,
            "velocity": 0.9133858267716536
          },
          {
            "duration": 0.3636359999999996,
            "durationTicks": 384,
            "midi": 86,
            "name": "D6",
            "ticks": 44880,
            "time": 42.4999575,
            "velocity": 0.9133858267716536
          },
          {
            "duration": 0.3636359999999996,
            "durationTicks": 384,
            "midi": 78,
            "name": "F#5",
            "ticks": 45360,
            "time": 42.954502500000004,
            "velocity": 0.9133858267716536
          },
          {
            "duration": 0.3636359999999996,
            "durationTicks": 384,
            "midi": 86,
            "name": "D6",
            "ticks": 45360,
            "time": 42.954502500000004,
            "velocity": 0.9133858267716536
          },
          {
            "duration": 0.2272725000000051,
            "durationTicks": 240,
            "midi": 78,
            "name": "F#5",
            "ticks": 45840,
            "time": 43.4090475,
            "velocity": 0.9133858267716536
          },
          {
            "duration": 0.4090905000000049,
            "durationTicks": 432,
            "midi": 86,
            "name": "D6",
            "ticks": 45840,
            "time": 43.4090475,
            "velocity": 0.9133858267716536
          },
          {
            "duration": 0.1818179999999998,
            "durationTicks": 192,
            "midi": 76,
            "name": "E5",
            "ticks": 46080,
            "time": 43.636320000000005,
            "velocity": 0.9133858267716536
          },
          {
            "duration": 0.3636359999999996,
            "durationTicks": 384,
            "midi": 76,
            "name": "E5",
            "ticks": 46320,
            "time": 43.8635925,
            "velocity": 0.9133858267716536
          },
          {
            "duration": 0.3636359999999996,
            "durationTicks": 384,
            "midi": 86,
            "name": "D6",
            "ticks": 46320,
            "time": 43.8635925,
            "velocity": 0.9133858267716536
          },
          {
            "duration": 0.3636359999999996,
            "durationTicks": 384,
            "midi": 76,
            "name": "E5",
            "ticks": 46800,
            "time": 44.3181375,
            "velocity": 0.9133858267716536
          },
          {
            "duration": 0.3636359999999996,
            "durationTicks": 384,
            "midi": 86,
            "name": "D6",
            "ticks": 46800,
            "time": 44.3181375,
            "velocity": 0.9133858267716536
          },
          {
            "duration": 0.3636359999999996,
            "durationTicks": 384,
            "midi": 76,
            "name": "E5",
            "ticks": 47280,
            "time": 44.7726825,
            "velocity": 0.9133858267716536
          },
          {
            "duration": 0.3636359999999996,
            "durationTicks": 384,
            "midi": 86,
            "name": "D6",
            "ticks": 47280,
            "time": 44.7726825,
            "velocity": 0.9133858267716536
          },
          {
            "duration": 0.13636349999999453,
            "durationTicks": 144,
            "midi": 76,
            "name": "E5",
            "ticks": 47760,
            "time": 45.227227500000005,
            "velocity": 0.9133858267716536
          },
          {
            "duration": 0.13636349999999453,
            "durationTicks": 144,
            "midi": 86,
            "name": "D6",
            "ticks": 47760,
            "time": 45.227227500000005,
            "velocity": 0.9133858267716536
          },
          {
            "duration": 0.13636349999999453,
            "durationTicks": 144,
            "midi": 76,
            "name": "E5",
            "ticks": 48000,
            "time": 45.4545,
            "velocity": 0.9133858267716536
          },
          {
            "duration": 0.13636349999999453,
            "durationTicks": 144,
            "midi": 85,
            "name": "C#6",
            "ticks": 48000,
            "time": 45.4545,
            "velocity": 0.9133858267716536
          },
          {
            "duration": 0.13636350000000164,
            "durationTicks": 144,
            "midi": 81,
            "name": "A5",
            "ticks": 48240,
            "time": 45.6817725,
            "velocity": 0.9133858267716536
          },
          {
            "duration": 0.13636350000000164,
            "durationTicks": 144,
            "midi": 86,
            "name": "D6",
            "ticks": 48480,
            "time": 45.909045,
            "velocity": 0.9133858267716536
          },
          {
            "duration": 0.13636349999999453,
            "durationTicks": 144,
            "midi": 81,
            "name": "A5",
            "ticks": 48720,
            "time": 46.136317500000004,
            "velocity": 0.9133858267716536
          },
          {
            "duration": 0.13636350000000164,
            "durationTicks": 144,
            "midi": 85,
            "name": "C#6",
            "ticks": 48960,
            "time": 46.36359,
            "velocity": 0.9133858267716536
          },
          {
            "duration": 0.13636350000000164,
            "durationTicks": 144,
            "midi": 81,
            "name": "A5",
            "ticks": 49200,
            "time": 46.5908625,
            "velocity": 0.9133858267716536
          },
          {
            "duration": 0.13636349999999453,
            "durationTicks": 144,
            "midi": 86,
            "name": "D6",
            "ticks": 49440,
            "time": 46.818135000000005,
            "velocity": 0.9133858267716536
          },
          {
            "duration": 0.13636349999999453,
            "durationTicks": 144,
            "midi": 81,
            "name": "A5",
            "ticks": 49680,
            "time": 47.0454075,
            "velocity": 0.9133858267716536
          },
          {
            "duration": 0.13636350000000164,
            "durationTicks": 144,
            "midi": 85,
            "name": "C#6",
            "ticks": 49920,
            "time": 47.27268,
            "velocity": 0.9133858267716536
          },
          {
            "duration": 0.13636350000000164,
            "durationTicks": 144,
            "midi": 69,
            "name": "A4",
            "ticks": 50160,
            "time": 47.4999525,
            "velocity": 0.9133858267716536
          },
          {
            "duration": 0.13636349999999453,
            "durationTicks": 144,
            "midi": 69,
            "name": "A4",
            "ticks": 50400,
            "time": 47.727225000000004,
            "velocity": 0.9133858267716536
          },
          {
            "duration": 0.13636350000000164,
            "durationTicks": 144,
            "midi": 69,
            "name": "A4",
            "ticks": 50640,
            "time": 47.9544975,
            "velocity": 0.9133858267716536
          },
          {
            "duration": 0.3636359999999996,
            "durationTicks": 384,
            "midi": 69,
            "name": "A4",
            "ticks": 50880,
            "time": 48.18177,
            "velocity": 0.9133858267716536
          },
          {
            "duration": 0.6818175000000011,
            "durationTicks": 720,
            "midi": 81,
            "name": "A5",
            "ticks": 51840,
            "time": 49.09086,
            "velocity": 0.5669291338582677
          },
          {
            "duration": 0.0757575000000017,
            "durationTicks": 80,
            "midi": 79,
            "name": "G5",
            "ticks": 52560,
            "time": 49.7726775,
            "velocity": 0.5669291338582677
          },
          {
            "duration": 0.0757575000000017,
            "durationTicks": 80,
            "midi": 78,
            "name": "F#5",
            "ticks": 52620,
            "time": 49.829495625,
            "velocity": 0.5669291338582677
          },
          {
            "duration": 0.0757575000000017,
            "durationTicks": 80,
            "midi": 76,
            "name": "E5",
            "ticks": 52740,
            "time": 49.943131875000006,
            "velocity": 0.5669291338582677
          },
          {
            "duration": 0.14772712499999585,
            "durationTicks": 156,
            "midi": 74,
            "name": "D5",
            "ticks": 52800,
            "time": 49.999950000000005,
            "velocity": 0.5669291338582677
          },
          {
            "duration": 0.14772712500000296,
            "durationTicks": 156,
            "midi": 83,
            "name": "B5",
            "ticks": 53280,
            "time": 50.454495,
            "velocity": 0.5669291338582677
          },
          {
            "duration": 0.14772712500000296,
            "durationTicks": 156,
            "midi": 79,
            "name": "G5",
            "ticks": 53760,
            "time": 50.909040000000005,
            "velocity": 0.5669291338582677
          },
          {
            "duration": 0.14772712500000296,
            "durationTicks": 156,
            "midi": 76,
            "name": "E5",
            "ticks": 54240,
            "time": 51.363585,
            "velocity": 0.5669291338582677
          },
          {
            "duration": 0.14772712500000296,
            "durationTicks": 156,
            "midi": 81,
            "name": "A5",
            "ticks": 54720,
            "time": 51.818130000000004,
            "velocity": 0.5669291338582677
          },
          {
            "duration": 0.6818175000000011,
            "durationTicks": 720,
            "midi": 78,
            "name": "F#5",
            "ticks": 55680,
            "time": 52.72722,
            "velocity": 0.5669291338582677
          },
          {
            "duration": 0.0757575000000017,
            "durationTicks": 80,
            "midi": 76,
            "name": "E5",
            "ticks": 56400,
            "time": 53.409037500000004,
            "velocity": 0.5669291338582677
          },
          {
            "duration": 0.0757575000000017,
            "durationTicks": 80,
            "midi": 74,
            "name": "D5",
            "ticks": 56460,
            "time": 53.465855625,
            "velocity": 0.5669291338582677
          },
          {
            "duration": 0.0757575000000017,
            "durationTicks": 80,
            "midi": 73,
            "name": "C#5",
            "ticks": 56580,
            "time": 53.579491875,
            "velocity": 0.5669291338582677
          },
          {
            "duration": 0.14772712500000296,
            "durationTicks": 156,
            "midi": 71,
            "name": "B4",
            "ticks": 56640,
            "time": 53.63631,
            "velocity": 0.5669291338582677
          },
          {
            "duration": 0.14772712499999585,
            "durationTicks": 156,
            "midi": 79,
            "name": "G5",
            "ticks": 57120,
            "time": 54.090855000000005,
            "velocity": 0.5669291338582677
          },
          {
            "duration": 0.9090899999999991,
            "durationTicks": 960,
            "midi": 78,
            "name": "F#5",
            "ticks": 57600,
            "time": 54.5454,
            "velocity": 0.5669291338582677
          },
          {
            "duration": 0.3636359999999996,
            "durationTicks": 384,
            "midi": 76,
            "name": "E5",
            "ticks": 58560,
            "time": 55.45449,
            "velocity": 0.5669291338582677
          },
          {
            "duration": 0.13636349999999453,
            "durationTicks": 144,
            "midi": 81,
            "name": "A5",
            "ticks": 59760,
            "time": 56.590852500000004,
            "velocity": 0.5669291338582677
          },
          {
            "duration": 0.13636350000000164,
            "durationTicks": 144,
            "midi": 81,
            "name": "A5",
            "ticks": 60000,
            "time": 56.818125,
            "velocity": 0.4566929133858268
          },
          {
            "duration": 0.13636350000000164,
            "durationTicks": 144,
            "midi": 81,
            "name": "A5",
            "ticks": 60240,
            "time": 57.0453975,
            "velocity": 0.4566929133858268
          },
          {
            "duration": 0.13636349999999453,
            "durationTicks": 144,
            "midi": 81,
            "name": "A5",
            "ticks": 60480,
            "time": 57.272670000000005,
            "velocity": 0.4566929133858268
          },
          {
            "duration": 0.13636350000000164,
            "durationTicks": 144,
            "midi": 81,
            "name": "A5",
            "ticks": 60720,
            "time": 57.4999425,
            "velocity": 0.4566929133858268
          },
          {
            "duration": 0.13636350000000164,
            "durationTicks": 144,
            "midi": 81,
            "name": "A5",
            "ticks": 60960,
            "time": 57.727215,
            "velocity": 0.4566929133858268
          },
          {
            "duration": 0.13636349999999453,
            "durationTicks": 144,
            "midi": 81,
            "name": "A5",
            "ticks": 61200,
            "time": 57.954487500000006,
            "velocity": 0.4566929133858268
          },
          {
            "duration": 0.13636349999999453,
            "durationTicks": 144,
            "midi": 81,
            "name": "A5",
            "ticks": 61440,
            "time": 58.181760000000004,
            "velocity": 0.4566929133858268
          },
          {
            "duration": 0.13636350000000164,
            "durationTicks": 144,
            "midi": 81,
            "name": "A5",
            "ticks": 61680,
            "time": 58.4090325,
            "velocity": 0.4566929133858268
          },
          {
            "duration": 0.13636350000000164,
            "durationTicks": 144,
            "midi": 81,
            "name": "A5",
            "ticks": 61920,
            "time": 58.636305,
            "velocity": 0.4566929133858268
          },
          {
            "duration": 0.13636349999999453,
            "durationTicks": 144,
            "midi": 81,
            "name": "A5",
            "ticks": 62160,
            "time": 58.863577500000005,
            "velocity": 0.4566929133858268
          },
          {
            "duration": 0.13636350000000164,
            "durationTicks": 144,
            "midi": 81,
            "name": "A5",
            "ticks": 62400,
            "time": 59.09085,
            "velocity": 0.4566929133858268
          },
          {
            "duration": 0.13636350000000874,
            "durationTicks": 144,
            "midi": 81,
            "name": "A5",
            "ticks": 62640,
            "time": 59.3181225,
            "velocity": 0.4566929133858268
          },
          {
            "duration": 0.13636350000000164,
            "durationTicks": 144,
            "midi": 83,
            "name": "B5",
            "ticks": 62880,
            "time": 59.545395000000006,
            "velocity": 0.4566929133858268
          },
          {
            "duration": 0.13636350000000164,
            "durationTicks": 144,
            "midi": 85,
            "name": "C#6",
            "ticks": 63120,
            "time": 59.772667500000004,
            "velocity": 0.4566929133858268
          },
          {
            "duration": 0.227272499999998,
            "durationTicks": 240,
            "midi": 85,
            "name": "C#6",
            "ticks": 63360,
            "time": 59.99994,
            "velocity": 0.5669291338582677
          },
          {
            "duration": 0.13636350000000874,
            "durationTicks": 144,
            "midi": 86,
            "name": "D6",
            "ticks": 63600,
            "time": 60.2272125,
            "velocity": 0.5669291338582677
          },
          {
            "duration": 0.13636350000000164,
            "durationTicks": 144,
            "midi": 83,
            "name": "B5",
            "ticks": 64080,
            "time": 60.6817575,
            "velocity": 0.5669291338582677
          },
          {
            "duration": 0.2272725000000051,
            "durationTicks": 240,
            "midi": 83,
            "name": "B5",
            "ticks": 64320,
            "time": 60.90903,
            "velocity": 0.5669291338582677
          },
          {
            "duration": 0.1818179999999998,
            "durationTicks": 192,
            "midi": 81,
            "name": "A5",
            "ticks": 64560,
            "time": 61.136302500000006,
            "velocity": 0.5669291338582677
          },
          {
            "duration": 0.13636350000000874,
            "durationTicks": 144,
            "midi": 73,
            "name": "C#5",
            "ticks": 65040,
            "time": 61.5908475,
            "velocity": 0.5669291338582677
          },
          {
            "duration": 0.36363600000000673,
            "durationTicks": 384,
            "midi": 74,
            "name": "D5",
            "ticks": 65280,
            "time": 61.81812,
            "velocity": 0.5669291338582677
          },
          {
            "duration": 0.18181800000000692,
            "durationTicks": 192,
            "midi": 81,
            "name": "A5",
            "ticks": 66000,
            "time": 62.4999375,
            "velocity": 0.5669291338582677
          },
          {
            "duration": 0.227272499999998,
            "durationTicks": 240,
            "midi": 86,
            "name": "D6",
            "ticks": 66240,
            "time": 62.72721000000001,
            "velocity": 0.5669291338582677
          },
          {
            "duration": 0.227272499999998,
            "durationTicks": 240,
            "midi": 85,
            "name": "C#6",
            "ticks": 66480,
            "time": 62.954482500000005,
            "velocity": 0.5669291338582677
          },
          {
            "duration": 0.227272499999998,
            "durationTicks": 240,
            "midi": 83,
            "name": "B5",
            "ticks": 66720,
            "time": 63.181755,
            "velocity": 0.5669291338582677
          },
          {
            "duration": 0.18181800000000692,
            "durationTicks": 192,
            "midi": 81,
            "name": "A5",
            "ticks": 66960,
            "time": 63.4090275,
            "velocity": 0.5669291338582677
          },
          {
            "duration": 0.0568181249999995,
            "durationTicks": 60,
            "midi": 85,
            "name": "C#6",
            "ticks": 67200,
            "time": 63.636300000000006,
            "velocity": 0.5669291338582677
          },
          {
            "duration": 0.0568181249999995,
            "durationTicks": 60,
            "midi": 83,
            "name": "B5",
            "ticks": 67260,
            "time": 63.693118125000005,
            "velocity": 0.5669291338582677
          },
          {
            "duration": 0.0568181249999995,
            "durationTicks": 60,
            "midi": 85,
            "name": "C#6",
            "ticks": 67320,
            "time": 63.749936250000005,
            "velocity": 0.5669291338582677
          },
          {
            "duration": 0.0568181249999995,
            "durationTicks": 60,
            "midi": 83,
            "name": "B5",
            "ticks": 67380,
            "time": 63.806754375000004,
            "velocity": 0.5669291338582677
          },
          {
            "duration": 0.18181800000000692,
            "durationTicks": 192,
            "midi": 81,
            "name": "A5",
            "ticks": 67440,
            "time": 63.863572500000004,
            "velocity": 0.5669291338582677
          },
          {
            "duration": 0.14772712499998875,
            "durationTicks": 156,
            "midi": 81,
            "name": "A5",
            "ticks": 67920,
            "time": 64.31811750000001,
            "velocity": 0.5669291338582677
          },
          {
            "duration": 0.14772712499998875,
            "durationTicks": 156,
            "midi": 81,
            "name": "A5",
            "ticks": 68160,
            "time": 64.54539000000001,
            "velocity": 0.5669291338582677
          },
          {
            "duration": 0.14772712499998875,
            "durationTicks": 156,
            "midi": 81,
            "name": "A5",
            "ticks": 68400,
            "time": 64.77266250000001,
            "velocity": 0.5669291338582677
          },
          {
            "duration": 0.14772712500000296,
            "durationTicks": 156,
            "midi": 81,
            "name": "A5",
            "ticks": 68640,
            "time": 64.99993500000001,
            "velocity": 0.5669291338582677
          },
          {
            "duration": 0.14772712500000296,
            "durationTicks": 156,
            "midi": 81,
            "name": "A5",
            "ticks": 68880,
            "time": 65.2272075,
            "velocity": 0.5669291338582677
          },
          {
            "duration": 0.0568181250000066,
            "durationTicks": 60,
            "midi": 85,
            "name": "C#6",
            "ticks": 69120,
            "time": 65.45448,
            "velocity": 0.5669291338582677
          },
          {
            "duration": 0.0568181250000066,
            "durationTicks": 60,
            "midi": 83,
            "name": "B5",
            "ticks": 69180,
            "time": 65.51129812500001,
            "velocity": 0.5669291338582677
          },
          {
            "duration": 0.05681812499999239,
            "durationTicks": 60,
            "midi": 85,
            "name": "C#6",
            "ticks": 69240,
            "time": 65.56811625000002,
            "velocity": 0.5669291338582677
          },
          {
            "duration": 0.0568181250000066,
            "durationTicks": 60,
            "midi": 83,
            "name": "B5",
            "ticks": 69300,
            "time": 65.62493437500001,
            "velocity": 0.5669291338582677
          },
          {
            "duration": 0.1818179999999927,
            "durationTicks": 192,
            "midi": 81,
            "name": "A5",
            "ticks": 69360,
            "time": 65.68175250000002,
            "velocity": 0.5669291338582677
          },
          {
            "duration": 0.18181800000000692,
            "durationTicks": 192,
            "midi": 81,
            "name": "A5",
            "ticks": 69840,
            "time": 66.13629750000001,
            "velocity": 0.5669291338582677
          },
          {
            "duration": 0.227272499999998,
            "durationTicks": 240,
            "midi": 86,
            "name": "D6",
            "ticks": 70080,
            "time": 66.36357000000001,
            "velocity": 0.5669291338582677
          },
          {
            "duration": 0.227272499999998,
            "durationTicks": 240,
            "midi": 85,
            "name": "C#6",
            "ticks": 70320,
            "time": 66.59084250000001,
            "velocity": 0.5669291338582677
          },
          {
            "duration": 0.227272499999998,
            "durationTicks": 240,
            "midi": 83,
            "name": "B5",
            "ticks": 70560,
            "time": 66.818115,
            "velocity": 0.5669291338582677
          },
          {
            "duration": 0.18181800000000692,
            "durationTicks": 192,
            "midi": 81,
            "name": "A5",
            "ticks": 70800,
            "time": 67.0453875,
            "velocity": 0.5669291338582677
          },
          {
            "duration": 0.05681812499999239,
            "durationTicks": 60,
            "midi": 85,
            "name": "C#6",
            "ticks": 71040,
            "time": 67.27266000000002,
            "velocity": 0.5669291338582677
          },
          {
            "duration": 0.0568181250000066,
            "durationTicks": 60,
            "midi": 83,
            "name": "B5",
            "ticks": 71100,
            "time": 67.32947812500001,
            "velocity": 0.5669291338582677
          },
          {
            "duration": 0.05681812499999239,
            "durationTicks": 60,
            "midi": 85,
            "name": "C#6",
            "ticks": 71160,
            "time": 67.38629625000002,
            "velocity": 0.5669291338582677
          },
          {
            "duration": 0.0568181250000066,
            "durationTicks": 60,
            "midi": 83,
            "name": "B5",
            "ticks": 71220,
            "time": 67.44311437500001,
            "velocity": 0.5669291338582677
          },
          {
            "duration": 0.1818179999999927,
            "durationTicks": 192,
            "midi": 81,
            "name": "A5",
            "ticks": 71280,
            "time": 67.49993250000001,
            "velocity": 0.5669291338582677
          },
          {
            "duration": 0.14772712499998875,
            "durationTicks": 156,
            "midi": 81,
            "name": "A5",
            "ticks": 71760,
            "time": 67.95447750000001,
            "velocity": 0.5669291338582677
          },
          {
            "duration": 0.14772712500000296,
            "durationTicks": 156,
            "midi": 81,
            "name": "A5",
            "ticks": 72000,
            "time": 68.18175000000001,
            "velocity": 0.5669291338582677
          },
          {
            "duration": 0.14772712500000296,
            "durationTicks": 156,
            "midi": 81,
            "name": "A5",
            "ticks": 72240,
            "time": 68.4090225,
            "velocity": 0.5669291338582677
          },
          {
            "duration": 0.14772712500000296,
            "durationTicks": 156,
            "midi": 81,
            "name": "A5",
            "ticks": 72480,
            "time": 68.636295,
            "velocity": 0.5669291338582677
          },
          {
            "duration": 0.14772712499998875,
            "durationTicks": 156,
            "midi": 81,
            "name": "A5",
            "ticks": 72720,
            "time": 68.86356750000002,
            "velocity": 0.5669291338582677
          },
          {
            "duration": 0.05681812499999239,
            "durationTicks": 60,
            "midi": 85,
            "name": "C#6",
            "ticks": 72960,
            "time": 69.09084000000001,
            "velocity": 0.5669291338582677
          },
          {
            "duration": 0.0568181250000066,
            "durationTicks": 60,
            "midi": 83,
            "name": "B5",
            "ticks": 73020,
            "time": 69.147658125,
            "velocity": 0.5669291338582677
          },
          {
            "duration": 0.05681812499999239,
            "durationTicks": 60,
            "midi": 85,
            "name": "C#6",
            "ticks": 73080,
            "time": 69.20447625000001,
            "velocity": 0.5669291338582677
          },
          {
            "duration": 0.0568181250000066,
            "durationTicks": 60,
            "midi": 83,
            "name": "B5",
            "ticks": 73140,
            "time": 69.261294375,
            "velocity": 0.5669291338582677
          },
          {
            "duration": 0.18181800000000692,
            "durationTicks": 192,
            "midi": 81,
            "name": "A5",
            "ticks": 73200,
            "time": 69.31811250000001,
            "velocity": 0.5669291338582677
          },
          {
            "duration": 0.6818175000000082,
            "durationTicks": 720,
            "midi": 71,
            "name": "B4",
            "ticks": 73920,
            "time": 69.99993,
            "velocity": 0.8267716535433071
          },
          {
            "duration": 0.6818175000000082,
            "durationTicks": 720,
            "midi": 83,
            "name": "B5",
            "ticks": 73920,
            "time": 69.99993,
            "velocity": 0.8267716535433071
          },
          {
            "duration": 0.07575749999999459,
            "durationTicks": 80,
            "midi": 81,
            "name": "A5",
            "ticks": 74640,
            "time": 70.68174750000001,
            "velocity": 0.8267716535433071
          },
          {
            "duration": 0.07575749999999459,
            "durationTicks": 80,
            "midi": 79,
            "name": "G5",
            "ticks": 74700,
            "time": 70.738565625,
            "velocity": 0.8267716535433071
          },
          {
            "duration": 0.07575749999999459,
            "durationTicks": 80,
            "midi": 78,
            "name": "F#5",
            "ticks": 74820,
            "time": 70.852201875,
            "velocity": 0.8267716535433071
          },
          {
            "duration": 0.3636359999999996,
            "durationTicks": 384,
            "midi": 79,
            "name": "G5",
            "ticks": 74880,
            "time": 70.90902000000001,
            "velocity": 0.8267716535433071
          },
          {
            "duration": 0.6818175000000082,
            "durationTicks": 720,
            "midi": 69,
            "name": "A4",
            "ticks": 75840,
            "time": 71.81811,
            "velocity": 0.8267716535433071
          },
          {
            "duration": 0.6818175000000082,
            "durationTicks": 720,
            "midi": 81,
            "name": "A5",
            "ticks": 75840,
            "time": 71.81811,
            "velocity": 0.8267716535433071
          },
          {
            "duration": 0.07575749999999459,
            "durationTicks": 80,
            "midi": 79,
            "name": "G5",
            "ticks": 76560,
            "time": 72.49992750000001,
            "velocity": 0.8267716535433071
          },
          {
            "duration": 0.0757575000000088,
            "durationTicks": 80,
            "midi": 78,
            "name": "F#5",
            "ticks": 76620,
            "time": 72.556745625,
            "velocity": 0.8267716535433071
          },
          {
            "duration": 0.07575749999999459,
            "durationTicks": 80,
            "midi": 76,
            "name": "E5",
            "ticks": 76740,
            "time": 72.67038187500002,
            "velocity": 0.8267716535433071
          },
          {
            "duration": 0.3636359999999996,
            "durationTicks": 384,
            "midi": 78,
            "name": "F#5",
            "ticks": 76800,
            "time": 72.72720000000001,
            "velocity": 0.8267716535433071
          },
          {
            "duration": 0.227272499999998,
            "durationTicks": 240,
            "midi": 83,
            "name": "B5",
            "ticks": 77760,
            "time": 73.63629000000002,
            "velocity": 0.8267716535433071
          },
          {
            "duration": 0.113636249999999,
            "durationTicks": 120,
            "midi": 85,
            "name": "C#6",
            "ticks": 78000,
            "time": 73.86356250000001,
            "velocity": 0.8267716535433071
          },
          {
            "duration": 0.113636249999999,
            "durationTicks": 120,
            "midi": 86,
            "name": "D6",
            "ticks": 78120,
            "time": 73.97719875000001,
            "velocity": 0.8267716535433071
          },
          {
            "duration": 0.13636350000000164,
            "durationTicks": 144,
            "midi": 85,
            "name": "C#6",
            "ticks": 78240,
            "time": 74.09083500000001,
            "velocity": 0.8267716535433071
          },
          {
            "duration": 0.13636350000000164,
            "durationTicks": 144,
            "midi": 83,
            "name": "B5",
            "ticks": 78480,
            "time": 74.31810750000001,
            "velocity": 0.8267716535433071
          },
          {
            "duration": 0.227272499999998,
            "durationTicks": 240,
            "midi": 83,
            "name": "B5",
            "ticks": 78720,
            "time": 74.54538000000001,
            "velocity": 0.8267716535433071
          },
          {
            "duration": 0.14772712500000296,
            "durationTicks": 156,
            "midi": 81,
            "name": "A5",
            "ticks": 78960,
            "time": 74.7726525,
            "velocity": 0.8267716535433071
          },
          {
            "duration": 0.14772712500000296,
            "durationTicks": 156,
            "midi": 78,
            "name": "F#5",
            "ticks": 79200,
            "time": 74.999925,
            "velocity": 0.8267716535433071
          },
          {
            "duration": 0.14772712499998875,
            "durationTicks": 156,
            "midi": 81,
            "name": "A5",
            "ticks": 79440,
            "time": 75.22719750000002,
            "velocity": 0.8267716535433071
          },
          {
            "duration": 0.227272499999998,
            "durationTicks": 240,
            "midi": 81,
            "name": "A5",
            "ticks": 79680,
            "time": 75.45447000000001,
            "velocity": 0.8267716535433071
          },
          {
            "duration": 0.14772712499998875,
            "durationTicks": 156,
            "midi": 79,
            "name": "G5",
            "ticks": 79920,
            "time": 75.68174250000001,
            "velocity": 0.8267716535433071
          },
          {
            "duration": 0.14772712499998875,
            "durationTicks": 156,
            "midi": 78,
            "name": "F#5",
            "ticks": 80160,
            "time": 75.90901500000001,
            "velocity": 0.8267716535433071
          },
          {
            "duration": 0.14772712500000296,
            "durationTicks": 156,
            "midi": 76,
            "name": "E5",
            "ticks": 80400,
            "time": 76.13628750000001,
            "velocity": 0.8267716535433071
          },
          {
            "duration": 0.36363600000001384,
            "durationTicks": 384,
            "midi": 74,
            "name": "D5",
            "ticks": 80640,
            "time": 76.36356,
            "velocity": 0.7244094488188977
          },
          {
            "duration": 0.1818179999999927,
            "durationTicks": 192,
            "midi": 81,
            "name": "A5",
            "ticks": 81360,
            "time": 77.04537750000001,
            "velocity": 0.5669291338582677
          },
          {
            "duration": 0.227272499999998,
            "durationTicks": 240,
            "midi": 86,
            "name": "D6",
            "ticks": 81600,
            "time": 77.27265000000001,
            "velocity": 0.5669291338582677
          },
          {
            "duration": 0.227272499999998,
            "durationTicks": 240,
            "midi": 85,
            "name": "C#6",
            "ticks": 81840,
            "time": 77.49992250000001,
            "velocity": 0.5669291338582677
          },
          {
            "duration": 0.227272499999998,
            "durationTicks": 240,
            "midi": 83,
            "name": "B5",
            "ticks": 82080,
            "time": 77.72719500000001,
            "velocity": 0.5669291338582677
          },
          {
            "duration": 0.18181800000000692,
            "durationTicks": 192,
            "midi": 81,
            "name": "A5",
            "ticks": 82320,
            "time": 77.9544675,
            "velocity": 0.5669291338582677
          },
          {
            "duration": 0.0568181250000066,
            "durationTicks": 60,
            "midi": 85,
            "name": "C#6",
            "ticks": 82560,
            "time": 78.18174,
            "velocity": 0.5669291338582677
          },
          {
            "duration": 0.0568181250000066,
            "durationTicks": 60,
            "midi": 83,
            "name": "B5",
            "ticks": 82620,
            "time": 78.23855812500001,
            "velocity": 0.5669291338582677
          },
          {
            "duration": 0.05681812499999239,
            "durationTicks": 60,
            "midi": 85,
            "name": "C#6",
            "ticks": 82680,
            "time": 78.29537625000002,
            "velocity": 0.5669291338582677
          },
          {
            "duration": 0.0568181250000066,
            "durationTicks": 60,
            "midi": 83,
            "name": "B5",
            "ticks": 82740,
            "time": 78.35219437500001,
            "velocity": 0.5669291338582677
          },
          {
            "duration": 0.1818179999999927,
            "durationTicks": 192,
            "midi": 81,
            "name": "A5",
            "ticks": 82800,
            "time": 78.40901250000002,
            "velocity": 0.5669291338582677
          },
          {
            "duration": 0.14772712499998875,
            "durationTicks": 156,
            "midi": 81,
            "name": "A5",
            "ticks": 83280,
            "time": 78.86355750000001,
            "velocity": 0.5669291338582677
          },
          {
            "duration": 0.14772712499998875,
            "durationTicks": 156,
            "midi": 81,
            "name": "A5",
            "ticks": 83520,
            "time": 79.09083000000001,
            "velocity": 0.5669291338582677
          },
          {
            "duration": 0.14772712500000296,
            "durationTicks": 156,
            "midi": 81,
            "name": "A5",
            "ticks": 83760,
            "time": 79.31810250000001,
            "velocity": 0.5669291338582677
          },
          {
            "duration": 0.14772712500000296,
            "durationTicks": 156,
            "midi": 81,
            "name": "A5",
            "ticks": 84000,
            "time": 79.545375,
            "velocity": 0.5669291338582677
          },
          {
            "duration": 0.14772712500000296,
            "durationTicks": 156,
            "midi": 81,
            "name": "A5",
            "ticks": 84240,
            "time": 79.7726475,
            "velocity": 0.5669291338582677
          },
          {
            "duration": 0.05681812499999239,
            "durationTicks": 60,
            "midi": 85,
            "name": "C#6",
            "ticks": 84480,
            "time": 79.99992000000002,
            "velocity": 0.5669291338582677
          },
          {
            "duration": 0.0568181250000066,
            "durationTicks": 60,
            "midi": 83,
            "name": "B5",
            "ticks": 84540,
            "time": 80.05673812500001,
            "velocity": 0.5669291338582677
          },
          {
            "duration": 0.05681812499999239,
            "durationTicks": 60,
            "midi": 85,
            "name": "C#6",
            "ticks": 84600,
            "time": 80.11355625000002,
            "velocity": 0.5669291338582677
          },
          {
            "duration": 0.0568181250000066,
            "durationTicks": 60,
            "midi": 83,
            "name": "B5",
            "ticks": 84660,
            "time": 80.17037437500001,
            "velocity": 0.5669291338582677
          },
          {
            "duration": 0.1818179999999927,
            "durationTicks": 192,
            "midi": 81,
            "name": "A5",
            "ticks": 84720,
            "time": 80.22719250000002,
            "velocity": 0.5669291338582677
          },
          {
            "duration": 0.18181800000000692,
            "durationTicks": 192,
            "midi": 81,
            "name": "A5",
            "ticks": 85200,
            "time": 80.68173750000001,
            "velocity": 0.5669291338582677
          },
          {
            "duration": 0.227272499999998,
            "durationTicks": 240,
            "midi": 86,
            "name": "D6",
            "ticks": 85440,
            "time": 80.90901000000001,
            "velocity": 0.5669291338582677
          },
          {
            "duration": 0.227272499999998,
            "durationTicks": 240,
            "midi": 85,
            "name": "C#6",
            "ticks": 85680,
            "time": 81.13628250000001,
            "velocity": 0.5669291338582677
          },
          {
            "duration": 0.2272725000000122,
            "durationTicks": 240,
            "midi": 83,
            "name": "B5",
            "ticks": 85920,
            "time": 81.363555,
            "velocity": 0.5669291338582677
          },
          {
            "duration": 0.1818179999999927,
            "durationTicks": 192,
            "midi": 81,
            "name": "A5",
            "ticks": 86160,
            "time": 81.59082750000002,
            "velocity": 0.5669291338582677
          },
          {
            "duration": 0.05681812499999239,
            "durationTicks": 60,
            "midi": 85,
            "name": "C#6",
            "ticks": 86400,
            "time": 81.81810000000002,
            "velocity": 0.5669291338582677
          },
          {
            "duration": 0.0568181250000066,
            "durationTicks": 60,
            "midi": 83,
            "name": "B5",
            "ticks": 86460,
            "time": 81.87491812500001,
            "velocity": 0.5669291338582677
          },
          {
            "duration": 0.05681812499999239,
            "durationTicks": 60,
            "midi": 85,
            "name": "C#6",
            "ticks": 86520,
            "time": 81.93173625000001,
            "velocity": 0.5669291338582677
          },
          {
            "duration": 0.0568181250000066,
            "durationTicks": 60,
            "midi": 83,
            "name": "B5",
            "ticks": 86580,
            "time": 81.988554375,
            "velocity": 0.5669291338582677
          },
          {
            "duration": 0.18181800000000692,
            "durationTicks": 192,
            "midi": 81,
            "name": "A5",
            "ticks": 86640,
            "time": 82.04537250000001,
            "velocity": 0.5669291338582677
          },
          {
            "duration": 0.14772712500000296,
            "durationTicks": 156,
            "midi": 81,
            "name": "A5",
            "ticks": 87120,
            "time": 82.49991750000001,
            "velocity": 0.5669291338582677
          },
          {
            "duration": 0.14772712500000296,
            "durationTicks": 156,
            "midi": 81,
            "name": "A5",
            "ticks": 87360,
            "time": 82.72719000000001,
            "velocity": 0.5669291338582677
          },
          {
            "duration": 0.14772712500000296,
            "durationTicks": 156,
            "midi": 81,
            "name": "A5",
            "ticks": 87600,
            "time": 82.9544625,
            "velocity": 0.5669291338582677
          },
          {
            "duration": 0.14772712499998875,
            "durationTicks": 156,
            "midi": 81,
            "name": "A5",
            "ticks": 87840,
            "time": 83.18173500000002,
            "velocity": 0.5669291338582677
          },
          {
            "duration": 0.14772712499998875,
            "durationTicks": 156,
            "midi": 81,
            "name": "A5",
            "ticks": 88080,
            "time": 83.40900750000002,
            "velocity": 0.5669291338582677
          },
          {
            "duration": 0.05681812499999239,
            "durationTicks": 60,
            "midi": 85,
            "name": "C#6",
            "ticks": 88320,
            "time": 83.63628000000001,
            "velocity": 0.5669291338582677
          },
          {
            "duration": 0.0568181250000066,
            "durationTicks": 60,
            "midi": 83,
            "name": "B5",
            "ticks": 88380,
            "time": 83.693098125,
            "velocity": 0.5669291338582677
          },
          {
            "duration": 0.0568181250000066,
            "durationTicks": 60,
            "midi": 85,
            "name": "C#6",
            "ticks": 88440,
            "time": 83.74991625000001,
            "velocity": 0.5669291338582677
          },
          {
            "duration": 0.05681812499999239,
            "durationTicks": 60,
            "midi": 83,
            "name": "B5",
            "ticks": 88500,
            "time": 83.80673437500002,
            "velocity": 0.5669291338582677
          },
          {
            "duration": 0.18181800000000692,
            "durationTicks": 192,
            "midi": 81,
            "name": "A5",
            "ticks": 88560,
            "time": 83.86355250000001,
            "velocity": 0.5669291338582677
          },
          {
            "duration": 0.6818175000000082,
            "durationTicks": 720,
            "midi": 71,
            "name": "B4",
            "ticks": 89280,
            "time": 84.54537,
            "velocity": 0.8267716535433071
          },
          {
            "duration": 0.6818175000000082,
            "durationTicks": 720,
            "midi": 83,
            "name": "B5",
            "ticks": 89280,
            "time": 84.54537,
            "velocity": 0.8267716535433071
          },
          {
            "duration": 0.07575749999999459,
            "durationTicks": 80,
            "midi": 81,
            "name": "A5",
            "ticks": 90000,
            "time": 85.22718750000001,
            "velocity": 0.8267716535433071
          },
          {
            "duration": 0.0757575000000088,
            "durationTicks": 80,
            "midi": 79,
            "name": "G5",
            "ticks": 90060,
            "time": 85.284005625,
            "velocity": 0.8267716535433071
          },
          {
            "duration": 0.07575749999999459,
            "durationTicks": 80,
            "midi": 78,
            "name": "F#5",
            "ticks": 90180,
            "time": 85.39764187500002,
            "velocity": 0.8267716535433071
          },
          {
            "duration": 0.3636359999999996,
            "durationTicks": 384,
            "midi": 79,
            "name": "G5",
            "ticks": 90240,
            "time": 85.45446000000001,
            "velocity": 0.8267716535433071
          },
          {
            "duration": 0.681817499999994,
            "durationTicks": 720,
            "midi": 69,
            "name": "A4",
            "ticks": 91200,
            "time": 86.36355000000002,
            "velocity": 0.8267716535433071
          },
          {
            "duration": 0.681817499999994,
            "durationTicks": 720,
            "midi": 81,
            "name": "A5",
            "ticks": 91200,
            "time": 86.36355000000002,
            "velocity": 0.8267716535433071
          },
          {
            "duration": 0.07575749999999459,
            "durationTicks": 80,
            "midi": 79,
            "name": "G5",
            "ticks": 91920,
            "time": 87.04536750000001,
            "velocity": 0.8267716535433071
          },
          {
            "duration": 0.07575749999999459,
            "durationTicks": 80,
            "midi": 78,
            "name": "F#5",
            "ticks": 91980,
            "time": 87.10218562500002,
            "velocity": 0.8267716535433071
          },
          {
            "duration": 0.07575749999999459,
            "durationTicks": 80,
            "midi": 76,
            "name": "E5",
            "ticks": 92100,
            "time": 87.21582187500002,
            "velocity": 0.8267716535433071
          },
          {
            "duration": 0.36363600000001384,
            "durationTicks": 384,
            "midi": 78,
            "name": "F#5",
            "ticks": 92160,
            "time": 87.27264000000001,
            "velocity": 0.8267716535433071
          },
          {
            "duration": 0.227272499999998,
            "durationTicks": 240,
            "midi": 83,
            "name": "B5",
            "ticks": 93120,
            "time": 88.18173000000002,
            "velocity": 0.8267716535433071
          },
          {
            "duration": 0.113636249999999,
            "durationTicks": 120,
            "midi": 85,
            "name": "C#6",
            "ticks": 93360,
            "time": 88.40900250000001,
            "velocity": 0.8267716535433071
          },
          {
            "duration": 0.113636249999999,
            "durationTicks": 120,
            "midi": 86,
            "name": "D6",
            "ticks": 93480,
            "time": 88.52263875000001,
            "velocity": 0.8267716535433071
          },
          {
            "duration": 0.13636350000000164,
            "durationTicks": 144,
            "midi": 85,
            "name": "C#6",
            "ticks": 93600,
            "time": 88.63627500000001,
            "velocity": 0.8267716535433071
          },
          {
            "duration": 0.13636350000000164,
            "durationTicks": 144,
            "midi": 83,
            "name": "B5",
            "ticks": 93840,
            "time": 88.86354750000001,
            "velocity": 0.8267716535433071
          },
          {
            "duration": 0.227272499999998,
            "durationTicks": 240,
            "midi": 83,
            "name": "B5",
            "ticks": 94080,
            "time": 89.09082000000001,
            "velocity": 0.8267716535433071
          },
          {
            "duration": 0.14772712500000296,
            "durationTicks": 156,
            "midi": 81,
            "name": "A5",
            "ticks": 94320,
            "time": 89.3180925,
            "velocity": 0.8267716535433071
          },
          {
            "duration": 0.14772712499998875,
            "durationTicks": 156,
            "midi": 78,
            "name": "F#5",
            "ticks": 94560,
            "time": 89.54536500000002,
            "velocity": 0.8267716535433071
          },
          {
            "duration": 0.14772712499998875,
            "durationTicks": 156,
            "midi": 81,
            "name": "A5",
            "ticks": 94800,
            "time": 89.77263750000002,
            "velocity": 0.8267716535433071
          },
          {
            "duration": 0.227272499999998,
            "durationTicks": 240,
            "midi": 81,
            "name": "A5",
            "ticks": 95040,
            "time": 89.99991000000001,
            "velocity": 0.8267716535433071
          },
          {
            "duration": 0.14772712499998875,
            "durationTicks": 156,
            "midi": 79,
            "name": "G5",
            "ticks": 95280,
            "time": 90.22718250000001,
            "velocity": 0.8267716535433071
          },
          {
            "duration": 0.14772712500000296,
            "durationTicks": 156,
            "midi": 78,
            "name": "F#5",
            "ticks": 95520,
            "time": 90.45445500000001,
            "velocity": 0.8267716535433071
          },
          {
            "duration": 0.14772712500000296,
            "durationTicks": 156,
            "midi": 76,
            "name": "E5",
            "ticks": 95760,
            "time": 90.68172750000001,
            "velocity": 0.8267716535433071
          },
          {
            "duration": 0.13636350000001585,
            "durationTicks": 144,
            "midi": 74,
            "name": "D5",
            "ticks": 96000,
            "time": 90.909,
            "velocity": 0.8267716535433071
          },
          {
            "duration": 0.13636350000000164,
            "durationTicks": 144,
            "midi": 69,
            "name": "A4",
            "ticks": 96240,
            "time": 91.13627250000002,
            "velocity": 0.8267716535433071
          },
          {
            "duration": 0.13636350000000164,
            "durationTicks": 144,
            "midi": 71,
            "name": "B4",
            "ticks": 96480,
            "time": 91.36354500000002,
            "velocity": 0.8267716535433071
          },
          {
            "duration": 0.13636350000000164,
            "durationTicks": 144,
            "midi": 73,
            "name": "C#5",
            "ticks": 96720,
            "time": 91.59081750000001,
            "velocity": 0.8267716535433071
          },
          {
            "duration": 0.13636350000000164,
            "durationTicks": 144,
            "midi": 74,
            "name": "D5",
            "ticks": 96960,
            "time": 91.81809000000001,
            "velocity": 0.8267716535433071
          },
          {
            "duration": 0.13636350000000164,
            "durationTicks": 144,
            "midi": 74,
            "name": "D5",
            "ticks": 97200,
            "time": 92.04536250000001,
            "velocity": 0.8267716535433071
          },
          {
            "duration": 0.0568181250000066,
            "durationTicks": 60,
            "midi": 78,
            "name": "F#5",
            "ticks": 97440,
            "time": 92.27263500000001,
            "velocity": 0.8267716535433071
          },
          {
            "duration": 0.05681812499999239,
            "durationTicks": 60,
            "midi": 76,
            "name": "E5",
            "ticks": 97500,
            "time": 92.32945312500001,
            "velocity": 0.8267716535433071
          },
          {
            "duration": 0.0568181250000066,
            "durationTicks": 60,
            "midi": 78,
            "name": "F#5",
            "ticks": 97560,
            "time": 92.38627125000001,
            "velocity": 0.8267716535433071
          },
          {
            "duration": 0.05681812499999239,
            "durationTicks": 60,
            "midi": 76,
            "name": "E5",
            "ticks": 97620,
            "time": 92.44308937500001,
            "velocity": 0.8267716535433071
          },
          {
            "duration": 0.1136362500000132,
            "durationTicks": 120,
            "midi": 74,
            "name": "D5",
            "ticks": 97680,
            "time": 92.4999075,
            "velocity": 0.8267716535433071
          },
          {
            "duration": 0.113636249999999,
            "durationTicks": 120,
            "midi": 76,
            "name": "E5",
            "ticks": 97800,
            "time": 92.61354375000002,
            "velocity": 0.8267716535433071
          },
          {
            "duration": 0.13636350000000164,
            "durationTicks": 144,
            "midi": 78,
            "name": "F#5",
            "ticks": 97920,
            "time": 92.72718000000002,
            "velocity": 0.8267716535433071
          },
          {
            "duration": 0.13636350000000164,
            "durationTicks": 144,
            "midi": 73,
            "name": "C#5",
            "ticks": 98160,
            "time": 92.95445250000002,
            "velocity": 0.8267716535433071
          },
          {
            "duration": 0.13636350000000164,
            "durationTicks": 144,
            "midi": 74,
            "name": "D5",
            "ticks": 98400,
            "time": 93.18172500000001,
            "velocity": 0.8267716535433071
          },
          {
            "duration": 0.13636350000000164,
            "durationTicks": 144,
            "midi": 76,
            "name": "E5",
            "ticks": 98640,
            "time": 93.40899750000001,
            "velocity": 0.8267716535433071
          },
          {
            "duration": 0.13636350000000164,
            "durationTicks": 144,
            "midi": 78,
            "name": "F#5",
            "ticks": 98880,
            "time": 93.63627000000001,
            "velocity": 0.8267716535433071
          },
          {
            "duration": 0.13636350000001585,
            "durationTicks": 144,
            "midi": 78,
            "name": "F#5",
            "ticks": 99120,
            "time": 93.86354250000001,
            "velocity": 0.8267716535433071
          },
          {
            "duration": 0.0568181250000066,
            "durationTicks": 60,
            "midi": 81,
            "name": "A5",
            "ticks": 99360,
            "time": 94.090815,
            "velocity": 0.8267716535433071
          },
          {
            "duration": 0.0568181250000066,
            "durationTicks": 60,
            "midi": 79,
            "name": "G5",
            "ticks": 99420,
            "time": 94.14763312500001,
            "velocity": 0.8267716535433071
          },
          {
            "duration": 0.05681812499999239,
            "durationTicks": 60,
            "midi": 81,
            "name": "A5",
            "ticks": 99480,
            "time": 94.20445125000002,
            "velocity": 0.8267716535433071
          },
          {
            "duration": 0.0568181250000066,
            "durationTicks": 60,
            "midi": 79,
            "name": "G5",
            "ticks": 99540,
            "time": 94.26126937500001,
            "velocity": 0.8267716535433071
          },
          {
            "duration": 0.113636249999999,
            "durationTicks": 120,
            "midi": 78,
            "name": "F#5",
            "ticks": 99600,
            "time": 94.31808750000002,
            "velocity": 0.8267716535433071
          },
          {
            "duration": 0.113636249999999,
            "durationTicks": 120,
            "midi": 79,
            "name": "G5",
            "ticks": 99720,
            "time": 94.43172375000002,
            "velocity": 0.8267716535433071
          },
          {
            "duration": 0.13636350000000164,
            "durationTicks": 144,
            "midi": 81,
            "name": "A5",
            "ticks": 99840,
            "time": 94.54536000000002,
            "velocity": 0.8267716535433071
          },
          {
            "duration": 0.13636350000000164,
            "durationTicks": 144,
            "midi": 81,
            "name": "A5",
            "ticks": 100080,
            "time": 94.77263250000001,
            "velocity": 0.8267716535433071
          },
          {
            "duration": 0.0568181250000066,
            "durationTicks": 60,
            "midi": 83,
            "name": "B5",
            "ticks": 100320,
            "time": 94.99990500000001,
            "velocity": 0.8267716535433071
          },
          {
            "duration": 0.05681812499999239,
            "durationTicks": 60,
            "midi": 82,
            "name": "A#5",
            "ticks": 100380,
            "time": 95.05672312500002,
            "velocity": 0.8267716535433071
          },
          {
            "duration": 0.0568181250000066,
            "durationTicks": 60,
            "midi": 83,
            "name": "B5",
            "ticks": 100440,
            "time": 95.11354125000001,
            "velocity": 0.8267716535433071
          },
          {
            "duration": 0.05681812499999239,
            "durationTicks": 60,
            "midi": 82,
            "name": "A#5",
            "ticks": 100500,
            "time": 95.17035937500002,
            "velocity": 0.8267716535433071
          },
          {
            "duration": 0.113636249999999,
            "durationTicks": 120,
            "midi": 80,
            "name": "G#5",
            "ticks": 100560,
            "time": 95.22717750000001,
            "velocity": 0.8267716535433071
          },
          {
            "duration": 0.113636249999999,
            "durationTicks": 120,
            "midi": 82,
            "name": "A#5",
            "ticks": 100680,
            "time": 95.34081375000001,
            "velocity": 0.8267716535433071
          },
          {
            "duration": 0.36363600000001384,
            "durationTicks": 384,
            "midi": 83,
            "name": "B5",
            "ticks": 100800,
            "time": 95.45445000000001,
            "velocity": 0.7244094488188977
          },
          {
            "duration": 0.681817499999994,
            "durationTicks": 720,
            "midi": 71,
            "name": "B4",
            "ticks": 101760,
            "time": 96.36354000000001,
            "velocity": 0.5669291338582677
          },
          {
            "duration": 0.18181800000000692,
            "durationTicks": 192,
            "midi": 76,
            "name": "E5",
            "ticks": 102480,
            "time": 97.04535750000001,
            "velocity": 0.5669291338582677
          },
          {
            "duration": 0.2272725000000122,
            "durationTicks": 240,
            "midi": 74,
            "name": "D5",
            "ticks": 102720,
            "time": 97.27263,
            "velocity": 0.5669291338582677
          },
          {
            "duration": 0.227272499999998,
            "durationTicks": 240,
            "midi": 73,
            "name": "C#5",
            "ticks": 102960,
            "time": 97.49990250000002,
            "velocity": 0.5669291338582677
          },
          {
            "duration": 0.227272499999998,
            "durationTicks": 240,
            "midi": 71,
            "name": "B4",
            "ticks": 103200,
            "time": 97.72717500000002,
            "velocity": 0.5669291338582677
          },
          {
            "duration": 0.18181800000000692,
            "durationTicks": 192,
            "midi": 69,
            "name": "A4",
            "ticks": 103440,
            "time": 97.95444750000001,
            "velocity": 0.5669291338582677
          },
          {
            "duration": 0.18181800000000692,
            "durationTicks": 192,
            "midi": 74,
            "name": "D5",
            "ticks": 103680,
            "time": 98.18172000000001,
            "velocity": 0.5669291338582677
          },
          {
            "duration": 0.18181800000000692,
            "durationTicks": 192,
            "midi": 78,
            "name": "F#5",
            "ticks": 104160,
            "time": 98.63626500000001,
            "velocity": 0.5669291338582677
          },
          {
            "duration": 0.1818179999999927,
            "durationTicks": 192,
            "midi": 74,
            "name": "D5",
            "ticks": 104640,
            "time": 99.09081000000002,
            "velocity": 0.4566929133858268
          },
          {
            "duration": 0.36363600000001384,
            "durationTicks": 384,
            "midi": 62,
            "name": "D4",
            "ticks": 105600,
            "time": 99.99990000000001,
            "velocity": 0.8267716535433071
          },
          {
            "duration": 0.36363600000001384,
            "durationTicks": 384,
            "midi": 71,
            "name": "B4",
            "ticks": 105600,
            "time": 99.99990000000001,
            "velocity": 0.8267716535433071
          },
          {
            "duration": 0.36363600000001384,
            "durationTicks": 384,
            "midi": 79,
            "name": "G5",
            "ticks": 105600,
            "time": 99.99990000000001,
            "velocity": 0.8267716535433071
          },
          {
            "duration": 0.13636350000000164,
            "durationTicks": 144,
            "midi": 74,
            "name": "D5",
            "ticks": 106320,
            "time": 100.68171750000002,
            "velocity": 0.8267716535433071
          },
          {
            "duration": 0.3636359999999996,
            "durationTicks": 384,
            "midi": 79,
            "name": "G5",
            "ticks": 106560,
            "time": 100.90899000000002,
            "velocity": 0.8267716535433071
          },
          {
            "duration": 0.13636350000000164,
            "durationTicks": 144,
            "midi": 74,
            "name": "D5",
            "ticks": 107280,
            "time": 101.59080750000001,
            "velocity": 0.8267716535433071
          },
          {
            "duration": 0.13636350000001585,
            "durationTicks": 144,
            "midi": 79,
            "name": "G5",
            "ticks": 107520,
            "time": 101.81808000000001,
            "velocity": 0.8267716535433071
          },
          {
            "duration": 0.13636350000001585,
            "durationTicks": 144,
            "midi": 74,
            "name": "D5",
            "ticks": 107760,
            "time": 102.0453525,
            "velocity": 0.8267716535433071
          },
          {
            "duration": 0.13636350000000164,
            "durationTicks": 144,
            "midi": 79,
            "name": "G5",
            "ticks": 108000,
            "time": 102.27262500000002,
            "velocity": 0.8267716535433071
          },
          {
            "duration": 0.13636350000000164,
            "durationTicks": 144,
            "midi": 83,
            "name": "B5",
            "ticks": 108240,
            "time": 102.49989750000002,
            "velocity": 0.8267716535433071
          },
          {
            "duration": 0.3636359999999996,
            "durationTicks": 384,
            "midi": 86,
            "name": "D6",
            "ticks": 108480,
            "time": 102.72717000000002,
            "velocity": 0.8267716535433071
          },
          {
            "duration": 0.36363600000001384,
            "durationTicks": 384,
            "midi": 84,
            "name": "C6",
            "ticks": 109440,
            "time": 103.63626000000001,
            "velocity": 0.8267716535433071
          },
          {
            "duration": 0.13636350000000164,
            "durationTicks": 144,
            "midi": 81,
            "name": "A5",
            "ticks": 110160,
            "time": 104.31807750000002,
            "velocity": 0.8267716535433071
          },
          {
            "duration": 0.3636359999999996,
            "durationTicks": 384,
            "midi": 84,
            "name": "C6",
            "ticks": 110400,
            "time": 104.54535000000001,
            "velocity": 0.8267716535433071
          },
          {
            "duration": 0.13636350000001585,
            "durationTicks": 144,
            "midi": 81,
            "name": "A5",
            "ticks": 111120,
            "time": 105.22716750000001,
            "velocity": 0.8267716535433071
          },
          {
            "duration": 0.13636350000000164,
            "durationTicks": 144,
            "midi": 84,
            "name": "C6",
            "ticks": 111360,
            "time": 105.45444000000002,
            "velocity": 0.8267716535433071
          },
          {
            "duration": 0.13636350000000164,
            "durationTicks": 144,
            "midi": 81,
            "name": "A5",
            "ticks": 111600,
            "time": 105.68171250000002,
            "velocity": 0.8267716535433071
          },
          {
            "duration": 0.13636350000000164,
            "durationTicks": 144,
            "midi": 78,
            "name": "F#5",
            "ticks": 111840,
            "time": 105.90898500000002,
            "velocity": 0.8267716535433071
          },
          {
            "duration": 0.13636350000000164,
            "durationTicks": 144,
            "midi": 81,
            "name": "A5",
            "ticks": 112080,
            "time": 106.13625750000001,
            "velocity": 0.8267716535433071
          },
          {
            "duration": 0.36363600000001384,
            "durationTicks": 384,
            "midi": 74,
            "name": "D5",
            "ticks": 112320,
            "time": 106.36353000000001,
            "velocity": 0.8267716535433071
          },
          {
            "duration": 0.1818179999999927,
            "durationTicks": 192,
            "midi": 62,
            "name": "D4",
            "ticks": 113280,
            "time": 107.27262000000002,
            "velocity": 0.9133858267716536
          },
          {
            "duration": 0.1818179999999927,
            "durationTicks": 192,
            "midi": 71,
            "name": "B4",
            "ticks": 113280,
            "time": 107.27262000000002,
            "velocity": 0.9133858267716536
          },
          {
            "duration": 0.13636350000000164,
            "durationTicks": 144,
            "midi": 79,
            "name": "G5",
            "ticks": 113280,
            "time": 107.27262000000002,
            "velocity": 0.9133858267716536
          },
          {
            "duration": 0.5454539999999923,
            "durationTicks": 576,
            "midi": 79,
            "name": "G5",
            "ticks": 113760,
            "time": 107.72716500000001,
            "velocity": 0.9133858267716536
          },
          {
            "duration": 0.2272725000000122,
            "durationTicks": 240,
            "midi": 83,
            "name": "B5",
            "ticks": 114480,
            "time": 108.40898250000001,
            "velocity": 0.9133858267716536
          },
          {
            "duration": 0.13636350000000164,
            "durationTicks": 144,
            "midi": 81,
            "name": "A5",
            "ticks": 114720,
            "time": 108.63625500000002,
            "velocity": 0.9133858267716536
          },
          {
            "duration": 0.13636350000000164,
            "durationTicks": 144,
            "midi": 79,
            "name": "G5",
            "ticks": 114960,
            "time": 108.86352750000002,
            "velocity": 0.9133858267716536
          },
          {
            "duration": 0.05681812499999239,
            "durationTicks": 60,
            "midi": 81,
            "name": "A5",
            "ticks": 115200,
            "time": 109.09080000000002,
            "velocity": 0.9133858267716536
          },
          {
            "duration": 0.0568181250000066,
            "durationTicks": 60,
            "midi": 79,
            "name": "G5",
            "ticks": 115260,
            "time": 109.14761812500001,
            "velocity": 0.9133858267716536
          },
          {
            "duration": 0.05681812499999239,
            "durationTicks": 60,
            "midi": 81,
            "name": "A5",
            "ticks": 115320,
            "time": 109.20443625000001,
            "velocity": 0.9133858267716536
          },
          {
            "duration": 0.0568181250000066,
            "durationTicks": 60,
            "midi": 79,
            "name": "G5",
            "ticks": 115380,
            "time": 109.26125437500001,
            "velocity": 0.9133858267716536
          },
          {
            "duration": 0.13636350000000164,
            "durationTicks": 144,
            "midi": 78,
            "name": "F#5",
            "ticks": 115440,
            "time": 109.31807250000001,
            "velocity": 0.9133858267716536
          },
          {
            "duration": 0.5454539999999923,
            "durationTicks": 576,
            "midi": 78,
            "name": "F#5",
            "ticks": 115680,
            "time": 109.54534500000001,
            "velocity": 0.9133858267716536
          },
          {
            "duration": 0.227272499999998,
            "durationTicks": 240,
            "midi": 81,
            "name": "A5",
            "ticks": 116400,
            "time": 110.22716250000002,
            "velocity": 0.9133858267716536
          },
          {
            "duration": 0.13636350000000164,
            "durationTicks": 144,
            "midi": 84,
            "name": "C6",
            "ticks": 116640,
            "time": 110.45443500000002,
            "velocity": 0.9133858267716536
          },
          {
            "duration": 0.13636350000000164,
            "durationTicks": 144,
            "midi": 78,
            "name": "F#5",
            "ticks": 116880,
            "time": 110.68170750000002,
            "velocity": 0.9133858267716536
          },
          {
            "duration": 0.227272499999998,
            "durationTicks": 240,
            "midi": 81,
            "name": "A5",
            "ticks": 117120,
            "time": 110.90898000000001,
            "velocity": 0.9133858267716536
          },
          {
            "duration": 0.13636350000000164,
            "durationTicks": 144,
            "midi": 79,
            "name": "G5",
            "ticks": 117360,
            "time": 111.13625250000001,
            "velocity": 0.9133858267716536
          },
          {
            "duration": 0.5454539999999923,
            "durationTicks": 576,
            "midi": 79,
            "name": "G5",
            "ticks": 117600,
            "time": 111.36352500000001,
            "velocity": 0.9133858267716536
          },
          {
            "duration": 0.227272499999998,
            "durationTicks": 240,
            "midi": 83,
            "name": "B5",
            "ticks": 118320,
            "time": 112.04534250000002,
            "velocity": 0.9133858267716536
          },
          {
            "duration": 0.13636350000000164,
            "durationTicks": 144,
            "midi": 81,
            "name": "A5",
            "ticks": 118560,
            "time": 112.27261500000002,
            "velocity": 0.9133858267716536
          },
          {
            "duration": 0.13636350000000164,
            "durationTicks": 144,
            "midi": 79,
            "name": "G5",
            "ticks": 118800,
            "time": 112.49988750000001,
            "velocity": 0.9133858267716536
          },
          {
            "duration": 0.0568181250000066,
            "durationTicks": 60,
            "midi": 81,
            "name": "A5",
            "ticks": 119040,
            "time": 112.72716000000001,
            "velocity": 0.9133858267716536
          },
          {
            "duration": 0.05681812499999239,
            "durationTicks": 60,
            "midi": 79,
            "name": "G5",
            "ticks": 119100,
            "time": 112.78397812500002,
            "velocity": 0.9133858267716536
          },
          {
            "duration": 0.0568181250000066,
            "durationTicks": 60,
            "midi": 81,
            "name": "A5",
            "ticks": 119160,
            "time": 112.84079625000001,
            "velocity": 0.9133858267716536
          },
          {
            "duration": 0.05681812499999239,
            "durationTicks": 60,
            "midi": 79,
            "name": "G5",
            "ticks": 119220,
            "time": 112.89761437500002,
            "velocity": 0.9133858267716536
          },
          {
            "duration": 0.13636350000001585,
            "durationTicks": 144,
            "midi": 78,
            "name": "F#5",
            "ticks": 119280,
            "time": 112.95443250000001,
            "velocity": 0.9133858267716536
          },
          {
            "duration": 0.5454540000000065,
            "durationTicks": 576,
            "midi": 78,
            "name": "F#5",
            "ticks": 119520,
            "time": 113.18170500000001,
            "velocity": 0.9133858267716536
          },
          {
            "duration": 0.227272499999998,
            "durationTicks": 240,
            "midi": 81,
            "name": "A5",
            "ticks": 120240,
            "time": 113.86352250000002,
            "velocity": 0.9133858267716536
          },
          {
            "duration": 0.13636350000000164,
            "durationTicks": 144,
            "midi": 84,
            "name": "C6",
            "ticks": 120480,
            "time": 114.09079500000001,
            "velocity": 0.9133858267716536
          },
          {
            "duration": 0.13636350000000164,
            "durationTicks": 144,
            "midi": 78,
            "name": "F#5",
            "ticks": 120720,
            "time": 114.31806750000001,
            "velocity": 0.9133858267716536
          },
          {
            "duration": 0.13636350000001585,
            "durationTicks": 144,
            "midi": 79,
            "name": "G5",
            "ticks": 120960,
            "time": 114.54534000000001,
            "velocity": 0.9133858267716536
          },
          {
            "duration": 0.13636350000001585,
            "durationTicks": 144,
            "midi": 79,
            "name": "G5",
            "ticks": 121200,
            "time": 114.77261250000001,
            "velocity": 0.9133858267716536
          },
          {
            "duration": 0.113636249999999,
            "durationTicks": 120,
            "midi": 79,
            "name": "G5",
            "ticks": 121440,
            "time": 114.99988500000002,
            "velocity": 0.9133858267716536
          },
          {
            "duration": 0.113636249999999,
            "durationTicks": 120,
            "midi": 78,
            "name": "F#5",
            "ticks": 121560,
            "time": 115.11352125000002,
            "velocity": 0.9133858267716536
          },
          {
            "duration": 0.113636249999999,
            "durationTicks": 120,
            "midi": 76,
            "name": "E5",
            "ticks": 121680,
            "time": 115.22715750000002,
            "velocity": 0.9133858267716536
          },
          {
            "duration": 0.113636249999999,
            "durationTicks": 120,
            "midi": 78,
            "name": "F#5",
            "ticks": 121800,
            "time": 115.34079375000002,
            "velocity": 0.9133858267716536
          },
          {
            "duration": 0.13636350000000164,
            "durationTicks": 144,
            "midi": 79,
            "name": "G5",
            "ticks": 121920,
            "time": 115.45443000000002,
            "velocity": 0.9133858267716536
          },
          {
            "duration": 0.13636350000000164,
            "durationTicks": 144,
            "midi": 79,
            "name": "G5",
            "ticks": 122160,
            "time": 115.68170250000001,
            "velocity": 0.9133858267716536
          },
          {
            "duration": 0.113636249999999,
            "durationTicks": 120,
            "midi": 83,
            "name": "B5",
            "ticks": 122400,
            "time": 115.90897500000001,
            "velocity": 0.9133858267716536
          },
          {
            "duration": 0.113636249999999,
            "durationTicks": 120,
            "midi": 81,
            "name": "A5",
            "ticks": 122520,
            "time": 116.02261125000001,
            "velocity": 0.9133858267716536
          },
          {
            "duration": 0.113636249999999,
            "durationTicks": 120,
            "midi": 79,
            "name": "G5",
            "ticks": 122640,
            "time": 116.13624750000001,
            "velocity": 0.9133858267716536
          },
          {
            "duration": 0.09090899999999635,
            "durationTicks": 96,
            "midi": 81,
            "name": "A5",
            "ticks": 122760,
            "time": 116.24988375000001,
            "velocity": 0.9133858267716536
          },
          {
            "duration": 0.13636350000001585,
            "durationTicks": 144,
            "midi": 83,
            "name": "B5",
            "ticks": 122880,
            "time": 116.36352000000001,
            "velocity": 0.9133858267716536
          },
          {
            "duration": 0.13636350000000164,
            "durationTicks": 144,
            "midi": 83,
            "name": "B5",
            "ticks": 123120,
            "time": 116.59079250000002,
            "velocity": 0.9133858267716536
          },
          {
            "duration": 0.113636249999999,
            "durationTicks": 120,
            "midi": 86,
            "name": "D6",
            "ticks": 123360,
            "time": 116.81806500000002,
            "velocity": 0.9133858267716536
          },
          {
            "duration": 0.113636249999999,
            "durationTicks": 120,
            "midi": 84,
            "name": "C6",
            "ticks": 123480,
            "time": 116.93170125000002,
            "velocity": 0.9133858267716536
          },
          {
            "duration": 0.113636249999999,
            "durationTicks": 120,
            "midi": 83,
            "name": "B5",
            "ticks": 123600,
            "time": 117.04533750000002,
            "velocity": 0.9133858267716536
          },
          {
            "duration": 0.09090899999999635,
            "durationTicks": 96,
            "midi": 84,
            "name": "C6",
            "ticks": 123720,
            "time": 117.15897375000002,
            "velocity": 0.9133858267716536
          },
          {
            "duration": 0.3636359999999996,
            "durationTicks": 384,
            "midi": 86,
            "name": "D6",
            "ticks": 123840,
            "time": 117.27261000000001,
            "velocity": 0.7244094488188977
          },
          {
            "duration": 0.909089999999992,
            "durationTicks": 960,
            "midi": 74,
            "name": "D5",
            "ticks": 124800,
            "time": 118.18170000000002,
            "velocity": 0.5669291338582677
          },
          {
            "duration": 0.7272720000000135,
            "durationTicks": 768,
            "midi": 76,
            "name": "E5",
            "ticks": 125760,
            "time": 119.09079000000001,
            "velocity": 0.5669291338582677
          },
          {
            "duration": 0.113636249999999,
            "durationTicks": 120,
            "midi": 74,
            "name": "D5",
            "ticks": 126720,
            "time": 119.99988000000002,
            "velocity": 0.5669291338582677
          },
          {
            "duration": 0.22159068749999733,
            "durationTicks": 234,
            "midi": 72,
            "name": "C5",
            "ticks": 126840,
            "time": 120.11351625000002,
            "velocity": 0.5669291338582677
          },
          {
            "duration": 0.2954542499999917,
            "durationTicks": 312,
            "midi": 72,
            "name": "C5",
            "ticks": 127200,
            "time": 120.45442500000001,
            "velocity": 0.5669291338582677
          },
          {
            "duration": 0.113636249999999,
            "durationTicks": 120,
            "midi": 72,
            "name": "C5",
            "ticks": 127680,
            "time": 120.90897000000001,
            "velocity": 0.5669291338582677
          },
          {
            "duration": 0.22159068750001154,
            "durationTicks": 234,
            "midi": 71,
            "name": "B4",
            "ticks": 127800,
            "time": 121.02260625000001,
            "velocity": 0.5669291338582677
          },
          {
            "duration": 0.2954542499999775,
            "durationTicks": 312,
            "midi": 71,
            "name": "B4",
            "ticks": 128160,
            "time": 121.36351500000002,
            "velocity": 0.5669291338582677
          },
          {
            "duration": 0.113636249999999,
            "durationTicks": 120,
            "midi": 71,
            "name": "B4",
            "ticks": 128640,
            "time": 121.81806000000002,
            "velocity": 0.5669291338582677
          },
          {
            "duration": 0.22159068749999733,
            "durationTicks": 234,
            "midi": 69,
            "name": "A4",
            "ticks": 128760,
            "time": 121.93169625000002,
            "velocity": 0.5669291338582677
          },
          {
            "duration": 0.2954542499999917,
            "durationTicks": 312,
            "midi": 69,
            "name": "A4",
            "ticks": 129120,
            "time": 122.27260500000001,
            "velocity": 0.5669291338582677
          },
          {
            "duration": 0.2272725000000122,
            "durationTicks": 240,
            "midi": 67,
            "name": "G4",
            "ticks": 129600,
            "time": 122.72715000000001,
            "velocity": 0.5669291338582677
          },
          {
            "duration": 0.14772712499998875,
            "durationTicks": 156,
            "midi": 66,
            "name": "F#4",
            "ticks": 129840,
            "time": 122.95442250000002,
            "velocity": 0.5669291338582677
          },
          {
            "duration": 0.14772712499998875,
            "durationTicks": 156,
            "midi": 64,
            "name": "E4",
            "ticks": 130080,
            "time": 123.18169500000002,
            "velocity": 0.5669291338582677
          },
          {
            "duration": 0.14772712499998875,
            "durationTicks": 156,
            "midi": 66,
            "name": "F#4",
            "ticks": 130320,
            "time": 123.40896750000002,
            "velocity": 0.5669291338582677
          },
          {
            "duration": 0.1818179999999927,
            "durationTicks": 192,
            "midi": 67,
            "name": "G4",
            "ticks": 130560,
            "time": 123.63624000000002,
            "velocity": 0.5669291338582677
          },
          {
            "duration": 0.1818179999999927,
            "durationTicks": 192,
            "midi": 69,
            "name": "A4",
            "ticks": 131040,
            "time": 124.09078500000001,
            "velocity": 0.5669291338582677
          },
          {
            "duration": 0.1818179999999785,
            "durationTicks": 192,
            "midi": 71,
            "name": "B4",
            "ticks": 131520,
            "time": 124.54533000000002,
            "velocity": 0.4566929133858268
          },
          {
            "duration": 0.9090900000000062,
            "durationTicks": 960,
            "midi": 74,
            "name": "D5",
            "ticks": 132480,
            "time": 125.45442000000001,
            "velocity": 0.5669291338582677
          },
          {
            "duration": 0.7272719999999993,
            "durationTicks": 768,
            "midi": 76,
            "name": "E5",
            "ticks": 133440,
            "time": 126.36351000000002,
            "velocity": 0.5669291338582677
          },
          {
            "duration": 0.227272499999998,
            "durationTicks": 240,
            "midi": 74,
            "name": "D5",
            "ticks": 134400,
            "time": 127.27260000000001,
            "velocity": 0.5669291338582677
          },
          {
            "duration": 0.14772712500000296,
            "durationTicks": 156,
            "midi": 72,
            "name": "C5",
            "ticks": 134640,
            "time": 127.49987250000001,
            "velocity": 0.5669291338582677
          },
          {
            "duration": 0.14772712499998875,
            "durationTicks": 156,
            "midi": 72,
            "name": "C5",
            "ticks": 134880,
            "time": 127.72714500000002,
            "velocity": 0.5669291338582677
          },
          {
            "duration": 0.14772712499997454,
            "durationTicks": 156,
            "midi": 72,
            "name": "C5",
            "ticks": 135120,
            "time": 127.95441750000002,
            "velocity": 0.5669291338582677
          },
          {
            "duration": 0.227272499999998,
            "durationTicks": 240,
            "midi": 72,
            "name": "C5",
            "ticks": 135360,
            "time": 128.18169,
            "velocity": 0.5669291338582677
          },
          {
            "duration": 0.14772712499998875,
            "durationTicks": 156,
            "midi": 71,
            "name": "B4",
            "ticks": 135600,
            "time": 128.4089625,
            "velocity": 0.5669291338582677
          },
          {
            "duration": 0.14772712500001717,
            "durationTicks": 156,
            "midi": 71,
            "name": "B4",
            "ticks": 135840,
            "time": 128.636235,
            "velocity": 0.5669291338582677
          },
          {
            "duration": 0.14772712499998875,
            "durationTicks": 156,
            "midi": 71,
            "name": "B4",
            "ticks": 136080,
            "time": 128.8635075,
            "velocity": 0.5669291338582677
          },
          {
            "duration": 0.227272499999998,
            "durationTicks": 240,
            "midi": 71,
            "name": "B4",
            "ticks": 136320,
            "time": 129.09078,
            "velocity": 0.5669291338582677
          },
          {
            "duration": 0.14772712499998875,
            "durationTicks": 156,
            "midi": 69,
            "name": "A4",
            "ticks": 136560,
            "time": 129.3180525,
            "velocity": 0.5669291338582677
          },
          {
            "duration": 0.14772712500001717,
            "durationTicks": 156,
            "midi": 69,
            "name": "A4",
            "ticks": 136800,
            "time": 129.545325,
            "velocity": 0.5669291338582677
          },
          {
            "duration": 0.14772712500001717,
            "durationTicks": 156,
            "midi": 69,
            "name": "A4",
            "ticks": 137040,
            "time": 129.7725975,
            "velocity": 0.5669291338582677
          },
          {
            "duration": 0.2272725000000264,
            "durationTicks": 240,
            "midi": 67,
            "name": "G4",
            "ticks": 137280,
            "time": 129.99987,
            "velocity": 0.5669291338582677
          },
          {
            "duration": 0.227272499999998,
            "durationTicks": 240,
            "midi": 66,
            "name": "F#4",
            "ticks": 137520,
            "time": 130.2271425,
            "velocity": 0.5669291338582677
          },
          {
            "duration": 0.227272499999998,
            "durationTicks": 240,
            "midi": 64,
            "name": "E4",
            "ticks": 137760,
            "time": 130.454415,
            "velocity": 0.5669291338582677
          },
          {
            "duration": 0.14772712499998875,
            "durationTicks": 156,
            "midi": 66,
            "name": "F#4",
            "ticks": 138000,
            "time": 130.6816875,
            "velocity": 0.5669291338582677
          },
          {
            "duration": 1.0909079999999847,
            "durationTicks": 1152,
            "midi": 55,
            "name": "G3",
            "ticks": 138240,
            "time": 130.90896,
            "velocity": 0.6377952755905512
          },
          {
            "duration": 1.0909079999999847,
            "durationTicks": 1152,
            "midi": 67,
            "name": "G4",
            "ticks": 138240,
            "time": 130.90896,
            "velocity": 0.952755905511811
          },
          {
            "duration": 0.0568181250000066,
            "durationTicks": 60,
            "midi": 69,
            "name": "A4",
            "ticks": 139440,
            "time": 132.0453225,
            "velocity": 0.5669291338582677
          },
          {
            "duration": 0.0568181250000066,
            "durationTicks": 60,
            "midi": 67,
            "name": "G4",
            "ticks": 139500,
            "time": 132.102140625,
            "velocity": 0.5669291338582677
          },
          {
            "duration": 0.05681812499997818,
            "durationTicks": 60,
            "midi": 66,
            "name": "F#4",
            "ticks": 139560,
            "time": 132.15895875,
            "velocity": 0.5669291338582677
          },
          {
            "duration": 0.0568181250000066,
            "durationTicks": 60,
            "midi": 67,
            "name": "G4",
            "ticks": 139620,
            "time": 132.215776875,
            "velocity": 0.5669291338582677
          },
          {
            "duration": 0.227272499999998,
            "durationTicks": 240,
            "midi": 69,
            "name": "A4",
            "ticks": 139680,
            "time": 132.272595,
            "velocity": 0.5669291338582677
          },
          {
            "duration": 0.1818179999999927,
            "durationTicks": 192,
            "midi": 66,
            "name": "F#4",
            "ticks": 139920,
            "time": 132.4998675,
            "velocity": 0.5669291338582677
          },
          {
            "duration": 1.090908000000013,
            "durationTicks": 1152,
            "midi": 71,
            "name": "B4",
            "ticks": 140160,
            "time": 132.72714,
            "velocity": 0.952755905511811
          },
          {
            "duration": 0.05681812499997818,
            "durationTicks": 60,
            "midi": 72,
            "name": "C5",
            "ticks": 141360,
            "time": 133.8635025,
            "velocity": 0.5669291338582677
          },
          {
            "duration": 0.0568181250000066,
            "durationTicks": 60,
            "midi": 71,
            "name": "B4",
            "ticks": 141420,
            "time": 133.920320625,
            "velocity": 0.5669291338582677
          },
          {
            "duration": 0.0568181250000066,
            "durationTicks": 60,
            "midi": 69,
            "name": "A4",
            "ticks": 141480,
            "time": 133.97713875,
            "velocity": 0.5669291338582677
          },
          {
            "duration": 0.0568181250000066,
            "durationTicks": 60,
            "midi": 71,
            "name": "B4",
            "ticks": 141540,
            "time": 134.033956875,
            "velocity": 0.5669291338582677
          },
          {
            "duration": 0.227272499999998,
            "durationTicks": 240,
            "midi": 72,
            "name": "C5",
            "ticks": 141600,
            "time": 134.090775,
            "velocity": 0.5669291338582677
          },
          {
            "duration": 0.1818179999999927,
            "durationTicks": 192,
            "midi": 69,
            "name": "A4",
            "ticks": 141840,
            "time": 134.3180475,
            "velocity": 0.5669291338582677
          },
          {
            "duration": 0.09090899999998214,
            "durationTicks": 96,
            "midi": 74,
            "name": "D5",
            "ticks": 142080,
            "time": 134.54532,
            "velocity": 0.5669291338582677
          },
          {
            "duration": 0.09090900000001056,
            "durationTicks": 96,
            "midi": 74,
            "name": "D5",
            "ticks": 142200,
            "time": 134.65895625,
            "velocity": 0.5669291338582677
          },
          {
            "duration": 0.09090899999998214,
            "durationTicks": 96,
            "midi": 74,
            "name": "D5",
            "ticks": 142320,
            "time": 134.7725925,
            "velocity": 0.5669291338582677
          },
          {
            "duration": 0.09090899999998214,
            "durationTicks": 96,
            "midi": 74,
            "name": "D5",
            "ticks": 142440,
            "time": 134.88622875000001,
            "velocity": 0.5669291338582677
          },
          {
            "duration": 0.09090900000001056,
            "durationTicks": 96,
            "midi": 74,
            "name": "D5",
            "ticks": 142560,
            "time": 134.999865,
            "velocity": 0.5669291338582677
          },
          {
            "duration": 0.09090899999998214,
            "durationTicks": 96,
            "midi": 74,
            "name": "D5",
            "ticks": 142680,
            "time": 135.11350125,
            "velocity": 0.5669291338582677
          },
          {
            "duration": 0.09090900000001056,
            "durationTicks": 96,
            "midi": 74,
            "name": "D5",
            "ticks": 142800,
            "time": 135.2271375,
            "velocity": 0.5669291338582677
          },
          {
            "duration": 0.09090899999998214,
            "durationTicks": 96,
            "midi": 74,
            "name": "D5",
            "ticks": 142920,
            "time": 135.34077375,
            "velocity": 0.5669291338582677
          },
          {
            "duration": 0.09090900000001056,
            "durationTicks": 96,
            "midi": 76,
            "name": "E5",
            "ticks": 143040,
            "time": 135.45441,
            "velocity": 0.6377952755905512
          },
          {
            "duration": 0.09090899999998214,
            "durationTicks": 96,
            "midi": 76,
            "name": "E5",
            "ticks": 143160,
            "time": 135.56804625,
            "velocity": 0.6377952755905512
          },
          {
            "duration": 0.09090900000001056,
            "durationTicks": 96,
            "midi": 76,
            "name": "E5",
            "ticks": 143280,
            "time": 135.6816825,
            "velocity": 0.6377952755905512
          },
          {
            "duration": 0.09090899999998214,
            "durationTicks": 96,
            "midi": 76,
            "name": "E5",
            "ticks": 143400,
            "time": 135.79531875,
            "velocity": 0.6377952755905512
          },
          {
            "duration": 0.09090900000001056,
            "durationTicks": 96,
            "midi": 78,
            "name": "F#5",
            "ticks": 143520,
            "time": 135.908955,
            "velocity": 0.6377952755905512
          },
          {
            "duration": 0.09090899999998214,
            "durationTicks": 96,
            "midi": 78,
            "name": "F#5",
            "ticks": 143640,
            "time": 136.02259125,
            "velocity": 0.6377952755905512
          },
          {
            "duration": 0.09090900000001056,
            "durationTicks": 96,
            "midi": 78,
            "name": "F#5",
            "ticks": 143760,
            "time": 136.1362275,
            "velocity": 0.6377952755905512
          },
          {
            "duration": 0.09090899999998214,
            "durationTicks": 96,
            "midi": 78,
            "name": "F#5",
            "ticks": 143880,
            "time": 136.24986375,
            "velocity": 0.6377952755905512
          },
          {
            "duration": 0.09090900000001056,
            "durationTicks": 96,
            "midi": 79,
            "name": "G5",
            "ticks": 144000,
            "time": 136.3635,
            "velocity": 0.7244094488188977
          },
          {
            "duration": 0.09090899999998214,
            "durationTicks": 96,
            "midi": 79,
            "name": "G5",
            "ticks": 144120,
            "time": 136.47713625,
            "velocity": 0.7244094488188977
          },
          {
            "duration": 0.09090899999998214,
            "durationTicks": 96,
            "midi": 79,
            "name": "G5",
            "ticks": 144240,
            "time": 136.5907725,
            "velocity": 0.7244094488188977
          },
          {
            "duration": 0.09090900000001056,
            "durationTicks": 96,
            "midi": 79,
            "name": "G5",
            "ticks": 144360,
            "time": 136.70440875,
            "velocity": 0.7244094488188977
          },
          {
            "duration": 0.09090899999998214,
            "durationTicks": 96,
            "midi": 81,
            "name": "A5",
            "ticks": 144480,
            "time": 136.818045,
            "velocity": 0.7244094488188977
          },
          {
            "duration": 0.09090900000001056,
            "durationTicks": 96,
            "midi": 81,
            "name": "A5",
            "ticks": 144600,
            "time": 136.93168125,
            "velocity": 0.7244094488188977
          },
          {
            "duration": 0.09090899999998214,
            "durationTicks": 96,
            "midi": 81,
            "name": "A5",
            "ticks": 144720,
            "time": 137.0453175,
            "velocity": 0.7244094488188977
          },
          {
            "duration": 0.09090900000001056,
            "durationTicks": 96,
            "midi": 81,
            "name": "A5",
            "ticks": 144840,
            "time": 137.15895375,
            "velocity": 0.8267716535433071
          },
          {
            "duration": 0.09090899999998214,
            "durationTicks": 96,
            "midi": 83,
            "name": "B5",
            "ticks": 144960,
            "time": 137.27259,
            "velocity": 0.8267716535433071
          },
          {
            "duration": 0.09090900000001056,
            "durationTicks": 96,
            "midi": 83,
            "name": "B5",
            "ticks": 145080,
            "time": 137.38622625,
            "velocity": 0.8267716535433071
          },
          {
            "duration": 0.09090899999998214,
            "durationTicks": 96,
            "midi": 83,
            "name": "B5",
            "ticks": 145200,
            "time": 137.4998625,
            "velocity": 0.8267716535433071
          },
          {
            "duration": 0.09090900000001056,
            "durationTicks": 96,
            "midi": 83,
            "name": "B5",
            "ticks": 145320,
            "time": 137.61349875,
            "velocity": 0.8267716535433071
          },
          {
            "duration": 0.09090899999998214,
            "durationTicks": 96,
            "midi": 85,
            "name": "C#6",
            "ticks": 145440,
            "time": 137.727135,
            "velocity": 0.8267716535433071
          },
          {
            "duration": 0.09090900000001056,
            "durationTicks": 96,
            "midi": 85,
            "name": "C#6",
            "ticks": 145560,
            "time": 137.84077125,
            "velocity": 0.9133858267716536
          },
          {
            "duration": 0.09090899999998214,
            "durationTicks": 96,
            "midi": 85,
            "name": "C#6",
            "ticks": 145680,
            "time": 137.9544075,
            "velocity": 0.9133858267716536
          },
          {
            "duration": 0.09090899999998214,
            "durationTicks": 96,
            "midi": 85,
            "name": "C#6",
            "ticks": 145800,
            "time": 138.06804375000002,
            "velocity": 0.9133858267716536
          },
          {
            "duration": 0.681817499999994,
            "durationTicks": 720,
            "midi": 86,
            "name": "D6",
            "ticks": 145920,
            "time": 138.18168,
            "velocity": 1
          },
          {
            "duration": 0.1818179999999927,
            "durationTicks": 192,
            "midi": 81,
            "name": "A5",
            "ticks": 146640,
            "time": 138.8634975,
            "velocity": 0.9133858267716536
          },
          {
            "duration": 0.3409087500000112,
            "durationTicks": 360,
            "midi": 85,
            "name": "C#6",
            "ticks": 146880,
            "time": 139.09077,
            "velocity": 0.9133858267716536
          },
          {
            "duration": 0.09090899999998214,
            "durationTicks": 96,
            "midi": 81,
            "name": "A5",
            "ticks": 147240,
            "time": 139.43167875,
            "velocity": 0.9133858267716536
          },
          {
            "duration": 0.3409087500000112,
            "durationTicks": 360,
            "midi": 85,
            "name": "C#6",
            "ticks": 147360,
            "time": 139.545315,
            "velocity": 0.9133858267716536
          },
          {
            "duration": 0.09090900000001056,
            "durationTicks": 96,
            "midi": 81,
            "name": "A5",
            "ticks": 147720,
            "time": 139.88622375,
            "velocity": 0.9133858267716536
          },
          {
            "duration": 0.681817499999994,
            "durationTicks": 720,
            "midi": 86,
            "name": "D6",
            "ticks": 147840,
            "time": 139.99986,
            "velocity": 1
          },
          {
            "duration": 0.1818179999999927,
            "durationTicks": 192,
            "midi": 81,
            "name": "A5",
            "ticks": 148560,
            "time": 140.6816775,
            "velocity": 0.9133858267716536
          },
          {
            "duration": 0.3409087500000112,
            "durationTicks": 360,
            "midi": 85,
            "name": "C#6",
            "ticks": 148800,
            "time": 140.90895,
            "velocity": 0.9133858267716536
          },
          {
            "duration": 0.09090899999998214,
            "durationTicks": 96,
            "midi": 81,
            "name": "A5",
            "ticks": 149160,
            "time": 141.24985875000002,
            "velocity": 0.9133858267716536
          },
          {
            "duration": 0.3409087500000112,
            "durationTicks": 360,
            "midi": 85,
            "name": "C#6",
            "ticks": 149280,
            "time": 141.363495,
            "velocity": 0.9133858267716536
          },
          {
            "duration": 0.09090899999998214,
            "durationTicks": 96,
            "midi": 81,
            "name": "A5",
            "ticks": 149640,
            "time": 141.70440375,
            "velocity": 0.9133858267716536
          },
          {
            "duration": 0.13636350000001585,
            "durationTicks": 144,
            "midi": 86,
            "name": "D6",
            "ticks": 149760,
            "time": 141.81804,
            "velocity": 0.9133858267716536
          },
          {
            "duration": 0.36363600000001384,
            "durationTicks": 384,
            "midi": 78,
            "name": "F#5",
            "ticks": 150000,
            "time": 142.0453125,
            "velocity": 0.9133858267716536
          },
          {
            "duration": 0.36363600000001384,
            "durationTicks": 384,
            "midi": 86,
            "name": "D6",
            "ticks": 150000,
            "time": 142.0453125,
            "velocity": 0.9133858267716536
          },
          {
            "duration": 0.36363600000001384,
            "durationTicks": 384,
            "midi": 78,
            "name": "F#5",
            "ticks": 150480,
            "time": 142.4998575,
            "velocity": 0.9133858267716536
          },
          {
            "duration": 0.36363600000001384,
            "durationTicks": 384,
            "midi": 86,
            "name": "D6",
            "ticks": 150480,
            "time": 142.4998575,
            "velocity": 0.9133858267716536
          },
          {
            "duration": 0.3636359999999854,
            "durationTicks": 384,
            "midi": 78,
            "name": "F#5",
            "ticks": 150960,
            "time": 142.95440250000001,
            "velocity": 0.9133858267716536
          },
          {
            "duration": 0.3636359999999854,
            "durationTicks": 384,
            "midi": 86,
            "name": "D6",
            "ticks": 150960,
            "time": 142.95440250000001,
            "velocity": 0.9133858267716536
          },
          {
            "duration": 0.227272499999998,
            "durationTicks": 240,
            "midi": 78,
            "name": "F#5",
            "ticks": 151440,
            "time": 143.4089475,
            "velocity": 0.9133858267716536
          },
          {
            "duration": 0.4090904999999907,
            "durationTicks": 432,
            "midi": 86,
            "name": "D6",
            "ticks": 151440,
            "time": 143.4089475,
            "velocity": 0.9133858267716536
          },
          {
            "duration": 0.1818179999999927,
            "durationTicks": 192,
            "midi": 76,
            "name": "E5",
            "ticks": 151680,
            "time": 143.63622,
            "velocity": 0.9133858267716536
          },
          {
            "duration": 0.36363600000001384,
            "durationTicks": 384,
            "midi": 76,
            "name": "E5",
            "ticks": 151920,
            "time": 143.8634925,
            "velocity": 0.9133858267716536
          },
          {
            "duration": 0.36363600000001384,
            "durationTicks": 384,
            "midi": 86,
            "name": "D6",
            "ticks": 151920,
            "time": 143.8634925,
            "velocity": 0.9133858267716536
          },
          {
            "duration": 0.36363600000001384,
            "durationTicks": 384,
            "midi": 76,
            "name": "E5",
            "ticks": 152400,
            "time": 144.3180375,
            "velocity": 0.9133858267716536
          },
          {
            "duration": 0.36363600000001384,
            "durationTicks": 384,
            "midi": 86,
            "name": "D6",
            "ticks": 152400,
            "time": 144.3180375,
            "velocity": 0.9133858267716536
          },
          {
            "duration": 0.36363600000001384,
            "durationTicks": 384,
            "midi": 76,
            "name": "E5",
            "ticks": 152880,
            "time": 144.7725825,
            "velocity": 0.9133858267716536
          },
          {
            "duration": 0.36363600000001384,
            "durationTicks": 384,
            "midi": 86,
            "name": "D6",
            "ticks": 152880,
            "time": 144.7725825,
            "velocity": 0.9133858267716536
          },
          {
            "duration": 0.13636350000001585,
            "durationTicks": 144,
            "midi": 76,
            "name": "E5",
            "ticks": 153360,
            "time": 145.2271275,
            "velocity": 0.9133858267716536
          },
          {
            "duration": 0.13636350000001585,
            "durationTicks": 144,
            "midi": 86,
            "name": "D6",
            "ticks": 153360,
            "time": 145.2271275,
            "velocity": 0.9133858267716536
          },
          {
            "duration": 0.13636350000001585,
            "durationTicks": 144,
            "midi": 76,
            "name": "E5",
            "ticks": 153600,
            "time": 145.4544,
            "velocity": 0.9133858267716536
          },
          {
            "duration": 0.13636350000001585,
            "durationTicks": 144,
            "midi": 85,
            "name": "C#6",
            "ticks": 153600,
            "time": 145.4544,
            "velocity": 0.9133858267716536
          },
          {
            "duration": 0.13636350000001585,
            "durationTicks": 144,
            "midi": 81,
            "name": "A5",
            "ticks": 153840,
            "time": 145.6816725,
            "velocity": 0.9133858267716536
          },
          {
            "duration": 0.13636350000001585,
            "durationTicks": 144,
            "midi": 86,
            "name": "D6",
            "ticks": 154080,
            "time": 145.908945,
            "velocity": 0.9133858267716536
          },
          {
            "duration": 0.13636349999998743,
            "durationTicks": 144,
            "midi": 81,
            "name": "A5",
            "ticks": 154320,
            "time": 146.13621750000001,
            "velocity": 0.9133858267716536
          },
          {
            "duration": 0.13636349999998743,
            "durationTicks": 144,
            "midi": 85,
            "name": "C#6",
            "ticks": 154560,
            "time": 146.36349,
            "velocity": 0.9133858267716536
          },
          {
            "duration": 0.13636349999998743,
            "durationTicks": 144,
            "midi": 81,
            "name": "A5",
            "ticks": 154800,
            "time": 146.5907625,
            "velocity": 0.9133858267716536
          },
          {
            "duration": 0.13636349999998743,
            "durationTicks": 144,
            "midi": 86,
            "name": "D6",
            "ticks": 155040,
            "time": 146.818035,
            "velocity": 0.9133858267716536
          },
          {
            "duration": 0.13636349999998743,
            "durationTicks": 144,
            "midi": 81,
            "name": "A5",
            "ticks": 155280,
            "time": 147.0453075,
            "velocity": 0.9133858267716536
          },
          {
            "duration": 0.13636350000001585,
            "durationTicks": 144,
            "midi": 85,
            "name": "C#6",
            "ticks": 155520,
            "time": 147.27258,
            "velocity": 0.9133858267716536
          },
          {
            "duration": 0.13636350000001585,
            "durationTicks": 144,
            "midi": 69,
            "name": "A4",
            "ticks": 155760,
            "time": 147.4998525,
            "velocity": 0.9133858267716536
          },
          {
            "duration": 0.13636350000001585,
            "durationTicks": 144,
            "midi": 69,
            "name": "A4",
            "ticks": 156000,
            "time": 147.727125,
            "velocity": 0.9133858267716536
          },
          {
            "duration": 0.13636350000001585,
            "durationTicks": 144,
            "midi": 69,
            "name": "A4",
            "ticks": 156240,
            "time": 147.9543975,
            "velocity": 0.9133858267716536
          },
          {
            "duration": 0.36363600000001384,
            "durationTicks": 384,
            "midi": 69,
            "name": "A4",
            "ticks": 156480,
            "time": 148.18167,
            "velocity": 0.9133858267716536
          },
          {
            "duration": 0.6818175000000224,
            "durationTicks": 720,
            "midi": 81,
            "name": "A5",
            "ticks": 157440,
            "time": 149.09076,
            "velocity": 0.5669291338582677
          },
          {
            "duration": 0.0757575000000088,
            "durationTicks": 80,
            "midi": 79,
            "name": "G5",
            "ticks": 158160,
            "time": 149.7725775,
            "velocity": 0.5669291338582677
          },
          {
            "duration": 0.0757575000000088,
            "durationTicks": 80,
            "midi": 78,
            "name": "F#5",
            "ticks": 158220,
            "time": 149.829395625,
            "velocity": 0.5669291338582677
          },
          {
            "duration": 0.0757575000000088,
            "durationTicks": 80,
            "midi": 76,
            "name": "E5",
            "ticks": 158340,
            "time": 149.943031875,
            "velocity": 0.5669291338582677
          },
          {
            "duration": 0.14772712499998875,
            "durationTicks": 156,
            "midi": 74,
            "name": "D5",
            "ticks": 158400,
            "time": 149.99985,
            "velocity": 0.5669291338582677
          },
          {
            "duration": 0.14772712499998875,
            "durationTicks": 156,
            "midi": 83,
            "name": "B5",
            "ticks": 158880,
            "time": 150.454395,
            "velocity": 0.5669291338582677
          },
          {
            "duration": 0.14772712499998875,
            "durationTicks": 156,
            "midi": 79,
            "name": "G5",
            "ticks": 159360,
            "time": 150.90894,
            "velocity": 0.5669291338582677
          },
          {
            "duration": 0.14772712499998875,
            "durationTicks": 156,
            "midi": 76,
            "name": "E5",
            "ticks": 159840,
            "time": 151.363485,
            "velocity": 0.5669291338582677
          },
          {
            "duration": 0.14772712500001717,
            "durationTicks": 156,
            "midi": 81,
            "name": "A5",
            "ticks": 160320,
            "time": 151.81803,
            "velocity": 0.5669291338582677
          },
          {
            "duration": 0.681817499999994,
            "durationTicks": 720,
            "midi": 78,
            "name": "F#5",
            "ticks": 161280,
            "time": 152.72712,
            "velocity": 0.5669291338582677
          },
          {
            "duration": 0.0757575000000088,
            "durationTicks": 80,
            "midi": 76,
            "name": "E5",
            "ticks": 162000,
            "time": 153.4089375,
            "velocity": 0.5669291338582677
          },
          {
            "duration": 0.0757575000000088,
            "durationTicks": 80,
            "midi": 74,
            "name": "D5",
            "ticks": 162060,
            "time": 153.465755625,
            "velocity": 0.5669291338582677
          },
          {
            "duration": 0.0757575000000088,
            "durationTicks": 80,
            "midi": 73,
            "name": "C#5",
            "ticks": 162180,
            "time": 153.579391875,
            "velocity": 0.5669291338582677
          },
          {
            "duration": 0.14772712499998875,
            "durationTicks": 156,
            "midi": 71,
            "name": "B4",
            "ticks": 162240,
            "time": 153.63621,
            "velocity": 0.5669291338582677
          },
          {
            "duration": 0.14772712499998875,
            "durationTicks": 156,
            "midi": 79,
            "name": "G5",
            "ticks": 162720,
            "time": 154.090755,
            "velocity": 0.5669291338582677
          },
          {
            "duration": 0.909089999999992,
            "durationTicks": 960,
            "midi": 78,
            "name": "F#5",
            "ticks": 163200,
            "time": 154.5453,
            "velocity": 0.5669291338582677
          },
          {
            "duration": 0.36363600000001384,
            "durationTicks": 384,
            "midi": 76,
            "name": "E5",
            "ticks": 164160,
            "time": 155.45439,
            "velocity": 0.5669291338582677
          },
          {
            "duration": 0.13636349999998743,
            "durationTicks": 144,
            "midi": 81,
            "name": "A5",
            "ticks": 165360,
            "time": 156.5907525,
            "velocity": 0.5669291338582677
          },
          {
            "duration": 0.13636350000001585,
            "durationTicks": 144,
            "midi": 81,
            "name": "A5",
            "ticks": 165600,
            "time": 156.818025,
            "velocity": 0.4566929133858268
          },
          {
            "duration": 0.13636350000001585,
            "durationTicks": 144,
            "midi": 81,
            "name": "A5",
            "ticks": 165840,
            "time": 157.0452975,
            "velocity": 0.4566929133858268
          },
          {
            "duration": 0.13636350000001585,
            "durationTicks": 144,
            "midi": 81,
            "name": "A5",
            "ticks": 166080,
            "time": 157.27257,
            "velocity": 0.4566929133858268
          },
          {
            "duration": 0.13636350000001585,
            "durationTicks": 144,
            "midi": 81,
            "name": "A5",
            "ticks": 166320,
            "time": 157.4998425,
            "velocity": 0.4566929133858268
          },
          {
            "duration": 0.13636350000001585,
            "durationTicks": 144,
            "midi": 81,
            "name": "A5",
            "ticks": 166560,
            "time": 157.727115,
            "velocity": 0.4566929133858268
          },
          {
            "duration": 0.13636350000001585,
            "durationTicks": 144,
            "midi": 81,
            "name": "A5",
            "ticks": 166800,
            "time": 157.9543875,
            "velocity": 0.4566929133858268
          },
          {
            "duration": 0.13636350000001585,
            "durationTicks": 144,
            "midi": 81,
            "name": "A5",
            "ticks": 167040,
            "time": 158.18166,
            "velocity": 0.4566929133858268
          },
          {
            "duration": 0.13636350000001585,
            "durationTicks": 144,
            "midi": 81,
            "name": "A5",
            "ticks": 167280,
            "time": 158.4089325,
            "velocity": 0.4566929133858268
          },
          {
            "duration": 0.13636350000001585,
            "durationTicks": 144,
            "midi": 81,
            "name": "A5",
            "ticks": 167520,
            "time": 158.636205,
            "velocity": 0.4566929133858268
          },
          {
            "duration": 0.13636349999998743,
            "durationTicks": 144,
            "midi": 81,
            "name": "A5",
            "ticks": 167760,
            "time": 158.86347750000002,
            "velocity": 0.4566929133858268
          },
          {
            "duration": 0.13636349999998743,
            "durationTicks": 144,
            "midi": 81,
            "name": "A5",
            "ticks": 168000,
            "time": 159.09075,
            "velocity": 0.4566929133858268
          },
          {
            "duration": 0.13636349999998743,
            "durationTicks": 144,
            "midi": 81,
            "name": "A5",
            "ticks": 168240,
            "time": 159.3180225,
            "velocity": 0.4566929133858268
          },
          {
            "duration": 0.13636349999998743,
            "durationTicks": 144,
            "midi": 83,
            "name": "B5",
            "ticks": 168480,
            "time": 159.545295,
            "velocity": 0.4566929133858268
          },
          {
            "duration": 0.13636349999998743,
            "durationTicks": 144,
            "midi": 85,
            "name": "C#6",
            "ticks": 168720,
            "time": 159.7725675,
            "velocity": 0.4566929133858268
          },
          {
            "duration": 0.227272499999998,
            "durationTicks": 240,
            "midi": 85,
            "name": "C#6",
            "ticks": 168960,
            "time": 159.99984,
            "velocity": 0.5669291338582677
          },
          {
            "duration": 0.13636350000001585,
            "durationTicks": 144,
            "midi": 86,
            "name": "D6",
            "ticks": 169200,
            "time": 160.2271125,
            "velocity": 0.5669291338582677
          },
          {
            "duration": 0.13636350000001585,
            "durationTicks": 144,
            "midi": 83,
            "name": "B5",
            "ticks": 169680,
            "time": 160.6816575,
            "velocity": 0.5669291338582677
          },
          {
            "duration": 0.227272499999998,
            "durationTicks": 240,
            "midi": 83,
            "name": "B5",
            "ticks": 169920,
            "time": 160.90893,
            "velocity": 0.5669291338582677
          },
          {
            "duration": 0.1818179999999927,
            "durationTicks": 192,
            "midi": 81,
            "name": "A5",
            "ticks": 170160,
            "time": 161.1362025,
            "velocity": 0.5669291338582677
          },
          {
            "duration": 0.13636350000001585,
            "durationTicks": 144,
            "midi": 73,
            "name": "C#5",
            "ticks": 170640,
            "time": 161.5907475,
            "velocity": 0.5669291338582677
          },
          {
            "duration": 0.36363600000001384,
            "durationTicks": 384,
            "midi": 74,
            "name": "D5",
            "ticks": 170880,
            "time": 161.81802,
            "velocity": 0.5669291338582677
          },
          {
            "duration": 0.1818179999999927,
            "durationTicks": 192,
            "midi": 81,
            "name": "A5",
            "ticks": 171600,
            "time": 162.4998375,
            "velocity": 0.5669291338582677
          },
          {
            "duration": 0.227272499999998,
            "durationTicks": 240,
            "midi": 86,
            "name": "D6",
            "ticks": 171840,
            "time": 162.72711,
            "velocity": 0.5669291338582677
          },
          {
            "duration": 0.227272499999998,
            "durationTicks": 240,
            "midi": 85,
            "name": "C#6",
            "ticks": 172080,
            "time": 162.9543825,
            "velocity": 0.5669291338582677
          },
          {
            "duration": 0.227272499999998,
            "durationTicks": 240,
            "midi": 83,
            "name": "B5",
            "ticks": 172320,
            "time": 163.181655,
            "velocity": 0.5669291338582677
          },
          {
            "duration": 0.1818179999999927,
            "durationTicks": 192,
            "midi": 81,
            "name": "A5",
            "ticks": 172560,
            "time": 163.4089275,
            "velocity": 0.5669291338582677
          },
          {
            "duration": 0.0568181250000066,
            "durationTicks": 60,
            "midi": 85,
            "name": "C#6",
            "ticks": 172800,
            "time": 163.6362,
            "velocity": 0.5669291338582677
          },
          {
            "duration": 0.0568181250000066,
            "durationTicks": 60,
            "midi": 83,
            "name": "B5",
            "ticks": 172860,
            "time": 163.693018125,
            "velocity": 0.5669291338582677
          },
          {
            "duration": 0.05681812499997818,
            "durationTicks": 60,
            "midi": 85,
            "name": "C#6",
            "ticks": 172920,
            "time": 163.74983625000002,
            "velocity": 0.5669291338582677
          },
          {
            "duration": 0.0568181250000066,
            "durationTicks": 60,
            "midi": 83,
            "name": "B5",
            "ticks": 172980,
            "time": 163.806654375,
            "velocity": 0.5669291338582677
          },
          {
            "duration": 0.1818179999999927,
            "durationTicks": 192,
            "midi": 81,
            "name": "A5",
            "ticks": 173040,
            "time": 163.8634725,
            "velocity": 0.5669291338582677
          },
          {
            "duration": 0.14772712499998875,
            "durationTicks": 156,
            "midi": 81,
            "name": "A5",
            "ticks": 173520,
            "time": 164.3180175,
            "velocity": 0.5669291338582677
          },
          {
            "duration": 0.14772712500001717,
            "durationTicks": 156,
            "midi": 81,
            "name": "A5",
            "ticks": 173760,
            "time": 164.54529,
            "velocity": 0.5669291338582677
          },
          {
            "duration": 0.14772712500001717,
            "durationTicks": 156,
            "midi": 81,
            "name": "A5",
            "ticks": 174000,
            "time": 164.7725625,
            "velocity": 0.5669291338582677
          },
          {
            "duration": 0.14772712500001717,
            "durationTicks": 156,
            "midi": 81,
            "name": "A5",
            "ticks": 174240,
            "time": 164.999835,
            "velocity": 0.5669291338582677
          },
          {
            "duration": 0.14772712499998875,
            "durationTicks": 156,
            "midi": 81,
            "name": "A5",
            "ticks": 174480,
            "time": 165.22710750000002,
            "velocity": 0.5669291338582677
          },
          {
            "duration": 0.05681812499997818,
            "durationTicks": 60,
            "midi": 85,
            "name": "C#6",
            "ticks": 174720,
            "time": 165.45438000000001,
            "velocity": 0.5669291338582677
          },
          {
            "duration": 0.0568181250000066,
            "durationTicks": 60,
            "midi": 83,
            "name": "B5",
            "ticks": 174780,
            "time": 165.511198125,
            "velocity": 0.5669291338582677
          },
          {
            "duration": 0.0568181250000066,
            "durationTicks": 60,
            "midi": 85,
            "name": "C#6",
            "ticks": 174840,
            "time": 165.56801625,
            "velocity": 0.5669291338582677
          },
          {
            "duration": 0.0568181250000066,
            "durationTicks": 60,
            "midi": 83,
            "name": "B5",
            "ticks": 174900,
            "time": 165.624834375,
            "velocity": 0.5669291338582677
          },
          {
            "duration": 0.1818179999999927,
            "durationTicks": 192,
            "midi": 81,
            "name": "A5",
            "ticks": 174960,
            "time": 165.6816525,
            "velocity": 0.5669291338582677
          },
          {
            "duration": 0.1818179999999927,
            "durationTicks": 192,
            "midi": 81,
            "name": "A5",
            "ticks": 175440,
            "time": 166.1361975,
            "velocity": 0.5669291338582677
          },
          {
            "duration": 0.227272499999998,
            "durationTicks": 240,
            "midi": 86,
            "name": "D6",
            "ticks": 175680,
            "time": 166.36347,
            "velocity": 0.5669291338582677
          },
          {
            "duration": 0.227272499999998,
            "durationTicks": 240,
            "midi": 85,
            "name": "C#6",
            "ticks": 175920,
            "time": 166.5907425,
            "velocity": 0.5669291338582677
          },
          {
            "duration": 0.227272499999998,
            "durationTicks": 240,
            "midi": 83,
            "name": "B5",
            "ticks": 176160,
            "time": 166.818015,
            "velocity": 0.5669291338582677
          },
          {
            "duration": 0.1818179999999927,
            "durationTicks": 192,
            "midi": 81,
            "name": "A5",
            "ticks": 176400,
            "time": 167.0452875,
            "velocity": 0.5669291338582677
          },
          {
            "duration": 0.0568181250000066,
            "durationTicks": 60,
            "midi": 85,
            "name": "C#6",
            "ticks": 176640,
            "time": 167.27256,
            "velocity": 0.5669291338582677
          },
          {
            "duration": 0.0568181250000066,
            "durationTicks": 60,
            "midi": 83,
            "name": "B5",
            "ticks": 176700,
            "time": 167.329378125,
            "velocity": 0.5669291338582677
          },
          {
            "duration": 0.05681812499997818,
            "durationTicks": 60,
            "midi": 85,
            "name": "C#6",
            "ticks": 176760,
            "time": 167.38619625,
            "velocity": 0.5669291338582677
          },
          {
            "duration": 0.0568181250000066,
            "durationTicks": 60,
            "midi": 83,
            "name": "B5",
            "ticks": 176820,
            "time": 167.443014375,
            "velocity": 0.5669291338582677
          },
          {
            "duration": 0.1818179999999927,
            "durationTicks": 192,
            "midi": 81,
            "name": "A5",
            "ticks": 176880,
            "time": 167.4998325,
            "velocity": 0.5669291338582677
          },
          {
            "duration": 0.14772712500001717,
            "durationTicks": 156,
            "midi": 81,
            "name": "A5",
            "ticks": 177360,
            "time": 167.9543775,
            "velocity": 0.5669291338582677
          },
          {
            "duration": 0.14772712500001717,
            "durationTicks": 156,
            "midi": 81,
            "name": "A5",
            "ticks": 177600,
            "time": 168.18165,
            "velocity": 0.5669291338582677
          },
          {
            "duration": 0.14772712499998875,
            "durationTicks": 156,
            "midi": 81,
            "name": "A5",
            "ticks": 177840,
            "time": 168.40892250000002,
            "velocity": 0.5669291338582677
          },
          {
            "duration": 0.14772712499998875,
            "durationTicks": 156,
            "midi": 81,
            "name": "A5",
            "ticks": 178080,
            "time": 168.63619500000001,
            "velocity": 0.5669291338582677
          },
          {
            "duration": 0.14772712499998875,
            "durationTicks": 156,
            "midi": 81,
            "name": "A5",
            "ticks": 178320,
            "time": 168.8634675,
            "velocity": 0.5669291338582677
          },
          {
            "duration": 0.0568181250000066,
            "durationTicks": 60,
            "midi": 85,
            "name": "C#6",
            "ticks": 178560,
            "time": 169.09074,
            "velocity": 0.5669291338582677
          },
          {
            "duration": 0.05681812499997818,
            "durationTicks": 60,
            "midi": 83,
            "name": "B5",
            "ticks": 178620,
            "time": 169.14755812500002,
            "velocity": 0.5669291338582677
          },
          {
            "duration": 0.0568181250000066,
            "durationTicks": 60,
            "midi": 85,
            "name": "C#6",
            "ticks": 178680,
            "time": 169.20437625,
            "velocity": 0.5669291338582677
          },
          {
            "duration": 0.0568181250000066,
            "durationTicks": 60,
            "midi": 83,
            "name": "B5",
            "ticks": 178740,
            "time": 169.261194375,
            "velocity": 0.5669291338582677
          },
          {
            "duration": 0.1818179999999927,
            "durationTicks": 192,
            "midi": 81,
            "name": "A5",
            "ticks": 178800,
            "time": 169.3180125,
            "velocity": 0.5669291338582677
          },
          {
            "duration": 0.681817499999994,
            "durationTicks": 720,
            "midi": 71,
            "name": "B4",
            "ticks": 179520,
            "time": 169.99983,
            "velocity": 0.8267716535433071
          },
          {
            "duration": 0.681817499999994,
            "durationTicks": 720,
            "midi": 83,
            "name": "B5",
            "ticks": 179520,
            "time": 169.99983,
            "velocity": 0.8267716535433071
          },
          {
            "duration": 0.0757575000000088,
            "durationTicks": 80,
            "midi": 81,
            "name": "A5",
            "ticks": 180240,
            "time": 170.6816475,
            "velocity": 0.8267716535433071
          },
          {
            "duration": 0.0757575000000088,
            "durationTicks": 80,
            "midi": 79,
            "name": "G5",
            "ticks": 180300,
            "time": 170.738465625,
            "velocity": 0.8267716535433071
          },
          {
            "duration": 0.0757575000000088,
            "durationTicks": 80,
            "midi": 78,
            "name": "F#5",
            "ticks": 180420,
            "time": 170.85210187500002,
            "velocity": 0.8267716535433071
          },
          {
            "duration": 0.36363600000001384,
            "durationTicks": 384,
            "midi": 79,
            "name": "G5",
            "ticks": 180480,
            "time": 170.90892,
            "velocity": 0.8267716535433071
          },
          {
            "duration": 0.681817499999994,
            "durationTicks": 720,
            "midi": 69,
            "name": "A4",
            "ticks": 181440,
            "time": 171.81801000000002,
            "velocity": 0.8267716535433071
          },
          {
            "duration": 0.681817499999994,
            "durationTicks": 720,
            "midi": 81,
            "name": "A5",
            "ticks": 181440,
            "time": 171.81801000000002,
            "velocity": 0.8267716535433071
          },
          {
            "duration": 0.0757575000000088,
            "durationTicks": 80,
            "midi": 79,
            "name": "G5",
            "ticks": 182160,
            "time": 172.4998275,
            "velocity": 0.8267716535433071
          },
          {
            "duration": 0.0757575000000088,
            "durationTicks": 80,
            "midi": 78,
            "name": "F#5",
            "ticks": 182220,
            "time": 172.55664562500002,
            "velocity": 0.8267716535433071
          },
          {
            "duration": 0.0757575000000088,
            "durationTicks": 80,
            "midi": 76,
            "name": "E5",
            "ticks": 182340,
            "time": 172.670281875,
            "velocity": 0.8267716535433071
          },
          {
            "duration": 0.36363600000001384,
            "durationTicks": 384,
            "midi": 78,
            "name": "F#5",
            "ticks": 182400,
            "time": 172.7271,
            "velocity": 0.8267716535433071
          },
          {
            "duration": 0.227272499999998,
            "durationTicks": 240,
            "midi": 83,
            "name": "B5",
            "ticks": 183360,
            "time": 173.63619,
            "velocity": 0.8267716535433071
          },
          {
            "duration": 0.1136362500000132,
            "durationTicks": 120,
            "midi": 85,
            "name": "C#6",
            "ticks": 183600,
            "time": 173.8634625,
            "velocity": 0.8267716535433071
          },
          {
            "duration": 0.11363624999998478,
            "durationTicks": 120,
            "midi": 86,
            "name": "D6",
            "ticks": 183720,
            "time": 173.97709875,
            "velocity": 0.8267716535433071
          },
          {
            "duration": 0.13636350000001585,
            "durationTicks": 144,
            "midi": 85,
            "name": "C#6",
            "ticks": 183840,
            "time": 174.090735,
            "velocity": 0.8267716535433071
          },
          {
            "duration": 0.13636350000001585,
            "durationTicks": 144,
            "midi": 83,
            "name": "B5",
            "ticks": 184080,
            "time": 174.3180075,
            "velocity": 0.8267716535433071
          },
          {
            "duration": 0.2272725000000264,
            "durationTicks": 240,
            "midi": 83,
            "name": "B5",
            "ticks": 184320,
            "time": 174.54528,
            "velocity": 0.8267716535433071
          },
          {
            "duration": 0.14772712499998875,
            "durationTicks": 156,
            "midi": 81,
            "name": "A5",
            "ticks": 184560,
            "time": 174.77255250000002,
            "velocity": 0.8267716535433071
          },
          {
            "duration": 0.14772712499998875,
            "durationTicks": 156,
            "midi": 78,
            "name": "F#5",
            "ticks": 184800,
            "time": 174.99982500000002,
            "velocity": 0.8267716535433071
          },
          {
            "duration": 0.14772712499998875,
            "durationTicks": 156,
            "midi": 81,
            "name": "A5",
            "ticks": 185040,
            "time": 175.2270975,
            "velocity": 0.8267716535433071
          },
          {
            "duration": 0.227272499999998,
            "durationTicks": 240,
            "midi": 81,
            "name": "A5",
            "ticks": 185280,
            "time": 175.45437,
            "velocity": 0.8267716535433071
          },
          {
            "duration": 0.14772712499998875,
            "durationTicks": 156,
            "midi": 79,
            "name": "G5",
            "ticks": 185520,
            "time": 175.6816425,
            "velocity": 0.8267716535433071
          },
          {
            "duration": 0.14772712499998875,
            "durationTicks": 156,
            "midi": 78,
            "name": "F#5",
            "ticks": 185760,
            "time": 175.908915,
            "velocity": 0.8267716535433071
          },
          {
            "duration": 0.14772712499998875,
            "durationTicks": 156,
            "midi": 76,
            "name": "E5",
            "ticks": 186000,
            "time": 176.1361875,
            "velocity": 0.8267716535433071
          },
          {
            "duration": 0.36363600000001384,
            "durationTicks": 384,
            "midi": 74,
            "name": "D5",
            "ticks": 186240,
            "time": 176.36346,
            "velocity": 0.7244094488188977
          },
          {
            "duration": 0.1818179999999927,
            "durationTicks": 192,
            "midi": 81,
            "name": "A5",
            "ticks": 186960,
            "time": 177.0452775,
            "velocity": 0.5669291338582677
          },
          {
            "duration": 0.227272499999998,
            "durationTicks": 240,
            "midi": 86,
            "name": "D6",
            "ticks": 187200,
            "time": 177.27255,
            "velocity": 0.5669291338582677
          },
          {
            "duration": 0.227272499999998,
            "durationTicks": 240,
            "midi": 85,
            "name": "C#6",
            "ticks": 187440,
            "time": 177.4998225,
            "velocity": 0.5669291338582677
          },
          {
            "duration": 0.2272725000000264,
            "durationTicks": 240,
            "midi": 83,
            "name": "B5",
            "ticks": 187680,
            "time": 177.727095,
            "velocity": 0.5669291338582677
          },
          {
            "duration": 0.18181799999996429,
            "durationTicks": 192,
            "midi": 81,
            "name": "A5",
            "ticks": 187920,
            "time": 177.95436750000002,
            "velocity": 0.5669291338582677
          },
          {
            "duration": 0.05681812499997818,
            "durationTicks": 60,
            "midi": 85,
            "name": "C#6",
            "ticks": 188160,
            "time": 178.18164000000002,
            "velocity": 0.5669291338582677
          },
          {
            "duration": 0.0568181250000066,
            "durationTicks": 60,
            "midi": 83,
            "name": "B5",
            "ticks": 188220,
            "time": 178.238458125,
            "velocity": 0.5669291338582677
          },
          {
            "duration": 0.0568181250000066,
            "durationTicks": 60,
            "midi": 85,
            "name": "C#6",
            "ticks": 188280,
            "time": 178.29527625,
            "velocity": 0.5669291338582677
          },
          {
            "duration": 0.0568181250000066,
            "durationTicks": 60,
            "midi": 83,
            "name": "B5",
            "ticks": 188340,
            "time": 178.352094375,
            "velocity": 0.5669291338582677
          },
          {
            "duration": 0.1818179999999927,
            "durationTicks": 192,
            "midi": 81,
            "name": "A5",
            "ticks": 188400,
            "time": 178.4089125,
            "velocity": 0.5669291338582677
          },
          {
            "duration": 0.14772712499998875,
            "durationTicks": 156,
            "midi": 81,
            "name": "A5",
            "ticks": 188880,
            "time": 178.8634575,
            "velocity": 0.5669291338582677
          },
          {
            "duration": 0.14772712499998875,
            "durationTicks": 156,
            "midi": 81,
            "name": "A5",
            "ticks": 189120,
            "time": 179.09073,
            "velocity": 0.5669291338582677
          },
          {
            "duration": 0.14772712499998875,
            "durationTicks": 156,
            "midi": 81,
            "name": "A5",
            "ticks": 189360,
            "time": 179.3180025,
            "velocity": 0.5669291338582677
          },
          {
            "duration": 0.14772712499998875,
            "durationTicks": 156,
            "midi": 81,
            "name": "A5",
            "ticks": 189600,
            "time": 179.545275,
            "velocity": 0.5669291338582677
          },
          {
            "duration": 0.14772712499998875,
            "durationTicks": 156,
            "midi": 81,
            "name": "A5",
            "ticks": 189840,
            "time": 179.7725475,
            "velocity": 0.5669291338582677
          },
          {
            "duration": 0.0568181250000066,
            "durationTicks": 60,
            "midi": 85,
            "name": "C#6",
            "ticks": 190080,
            "time": 179.99982,
            "velocity": 0.5669291338582677
          },
          {
            "duration": 0.0568181250000066,
            "durationTicks": 60,
            "midi": 83,
            "name": "B5",
            "ticks": 190140,
            "time": 180.056638125,
            "velocity": 0.5669291338582677
          },
          {
            "duration": 0.05681812499997818,
            "durationTicks": 60,
            "midi": 85,
            "name": "C#6",
            "ticks": 190200,
            "time": 180.11345625,
            "velocity": 0.5669291338582677
          },
          {
            "duration": 0.0568181250000066,
            "durationTicks": 60,
            "midi": 83,
            "name": "B5",
            "ticks": 190260,
            "time": 180.170274375,
            "velocity": 0.5669291338582677
          },
          {
            "duration": 0.1818179999999927,
            "durationTicks": 192,
            "midi": 81,
            "name": "A5",
            "ticks": 190320,
            "time": 180.2270925,
            "velocity": 0.5669291338582677
          },
          {
            "duration": 0.1818179999999927,
            "durationTicks": 192,
            "midi": 81,
            "name": "A5",
            "ticks": 190800,
            "time": 180.6816375,
            "velocity": 0.5669291338582677
          },
          {
            "duration": 0.2272725000000264,
            "durationTicks": 240,
            "midi": 86,
            "name": "D6",
            "ticks": 191040,
            "time": 180.90891,
            "velocity": 0.5669291338582677
          },
          {
            "duration": 0.227272499999998,
            "durationTicks": 240,
            "midi": 85,
            "name": "C#6",
            "ticks": 191280,
            "time": 181.13618250000002,
            "velocity": 0.5669291338582677
          },
          {
            "duration": 0.227272499999998,
            "durationTicks": 240,
            "midi": 83,
            "name": "B5",
            "ticks": 191520,
            "time": 181.36345500000002,
            "velocity": 0.5669291338582677
          },
          {
            "duration": 0.1818179999999927,
            "durationTicks": 192,
            "midi": 81,
            "name": "A5",
            "ticks": 191760,
            "time": 181.5907275,
            "velocity": 0.5669291338582677
          },
          {
            "duration": 0.0568181250000066,
            "durationTicks": 60,
            "midi": 85,
            "name": "C#6",
            "ticks": 192000,
            "time": 181.818,
            "velocity": 0.5669291338582677
          },
          {
            "duration": 0.05681812499997818,
            "durationTicks": 60,
            "midi": 83,
            "name": "B5",
            "ticks": 192060,
            "time": 181.87481812500002,
            "velocity": 0.5669291338582677
          },
          {
            "duration": 0.0568181250000066,
            "durationTicks": 60,
            "midi": 85,
            "name": "C#6",
            "ticks": 192120,
            "time": 181.93163625,
            "velocity": 0.5669291338582677
          },
          {
            "duration": 0.0568181250000066,
            "durationTicks": 60,
            "midi": 83,
            "name": "B5",
            "ticks": 192180,
            "time": 181.988454375,
            "velocity": 0.5669291338582677
          },
          {
            "duration": 0.1818179999999927,
            "durationTicks": 192,
            "midi": 81,
            "name": "A5",
            "ticks": 192240,
            "time": 182.0452725,
            "velocity": 0.5669291338582677
          },
          {
            "duration": 0.14772712499998875,
            "durationTicks": 156,
            "midi": 81,
            "name": "A5",
            "ticks": 192720,
            "time": 182.4998175,
            "velocity": 0.5669291338582677
          },
          {
            "duration": 0.14772712499998875,
            "durationTicks": 156,
            "midi": 81,
            "name": "A5",
            "ticks": 192960,
            "time": 182.72709,
            "velocity": 0.5669291338582677
          },
          {
            "duration": 0.14772712499998875,
            "durationTicks": 156,
            "midi": 81,
            "name": "A5",
            "ticks": 193200,
            "time": 182.9543625,
            "velocity": 0.5669291338582677
          },
          {
            "duration": 0.14772712499998875,
            "durationTicks": 156,
            "midi": 81,
            "name": "A5",
            "ticks": 193440,
            "time": 183.181635,
            "velocity": 0.5669291338582677
          },
          {
            "duration": 0.14772712499998875,
            "durationTicks": 156,
            "midi": 81,
            "name": "A5",
            "ticks": 193680,
            "time": 183.4089075,
            "velocity": 0.5669291338582677
          },
          {
            "duration": 0.0568181250000066,
            "durationTicks": 60,
            "midi": 85,
            "name": "C#6",
            "ticks": 193920,
            "time": 183.63618,
            "velocity": 0.5669291338582677
          },
          {
            "duration": 0.0568181250000066,
            "durationTicks": 60,
            "midi": 83,
            "name": "B5",
            "ticks": 193980,
            "time": 183.692998125,
            "velocity": 0.5669291338582677
          },
          {
            "duration": 0.0568181250000066,
            "durationTicks": 60,
            "midi": 85,
            "name": "C#6",
            "ticks": 194040,
            "time": 183.74981625,
            "velocity": 0.5669291338582677
          },
          {
            "duration": 0.05681812499997818,
            "durationTicks": 60,
            "midi": 83,
            "name": "B5",
            "ticks": 194100,
            "time": 183.80663437500002,
            "velocity": 0.5669291338582677
          },
          {
            "duration": 0.1818179999999927,
            "durationTicks": 192,
            "midi": 81,
            "name": "A5",
            "ticks": 194160,
            "time": 183.8634525,
            "velocity": 0.5669291338582677
          },
          {
            "duration": 0.681817499999994,
            "durationTicks": 720,
            "midi": 71,
            "name": "B4",
            "ticks": 194880,
            "time": 184.54527000000002,
            "velocity": 0.8267716535433071
          },
          {
            "duration": 0.681817499999994,
            "durationTicks": 720,
            "midi": 83,
            "name": "B5",
            "ticks": 194880,
            "time": 184.54527000000002,
            "velocity": 0.8267716535433071
          },
          {
            "duration": 0.0757575000000088,
            "durationTicks": 80,
            "midi": 81,
            "name": "A5",
            "ticks": 195600,
            "time": 185.2270875,
            "velocity": 0.8267716535433071
          },
          {
            "duration": 0.0757575000000088,
            "durationTicks": 80,
            "midi": 79,
            "name": "G5",
            "ticks": 195660,
            "time": 185.28390562500002,
            "velocity": 0.8267716535433071
          },
          {
            "duration": 0.0757575000000088,
            "durationTicks": 80,
            "midi": 78,
            "name": "F#5",
            "ticks": 195780,
            "time": 185.397541875,
            "velocity": 0.8267716535433071
          },
          {
            "duration": 0.36363600000001384,
            "durationTicks": 384,
            "midi": 79,
            "name": "G5",
            "ticks": 195840,
            "time": 185.45436,
            "velocity": 0.8267716535433071
          },
          {
            "duration": 0.681817499999994,
            "durationTicks": 720,
            "midi": 69,
            "name": "A4",
            "ticks": 196800,
            "time": 186.36345,
            "velocity": 0.8267716535433071
          },
          {
            "duration": 0.681817499999994,
            "durationTicks": 720,
            "midi": 81,
            "name": "A5",
            "ticks": 196800,
            "time": 186.36345,
            "velocity": 0.8267716535433071
          },
          {
            "duration": 0.0757575000000088,
            "durationTicks": 80,
            "midi": 79,
            "name": "G5",
            "ticks": 197520,
            "time": 187.0452675,
            "velocity": 0.8267716535433071
          },
          {
            "duration": 0.0757575000000088,
            "durationTicks": 80,
            "midi": 78,
            "name": "F#5",
            "ticks": 197580,
            "time": 187.102085625,
            "velocity": 0.8267716535433071
          },
          {
            "duration": 0.0757575000000088,
            "durationTicks": 80,
            "midi": 76,
            "name": "E5",
            "ticks": 197700,
            "time": 187.215721875,
            "velocity": 0.8267716535433071
          },
          {
            "duration": 0.36363600000001384,
            "durationTicks": 384,
            "midi": 78,
            "name": "F#5",
            "ticks": 197760,
            "time": 187.27254,
            "velocity": 0.8267716535433071
          },
          {
            "duration": 0.227272499999998,
            "durationTicks": 240,
            "midi": 83,
            "name": "B5",
            "ticks": 198720,
            "time": 188.18163,
            "velocity": 0.8267716535433071
          },
          {
            "duration": 0.11363624999998478,
            "durationTicks": 120,
            "midi": 85,
            "name": "C#6",
            "ticks": 198960,
            "time": 188.4089025,
            "velocity": 0.8267716535433071
          },
          {
            "duration": 0.1136362500000132,
            "durationTicks": 120,
            "midi": 86,
            "name": "D6",
            "ticks": 199080,
            "time": 188.52253875,
            "velocity": 0.8267716535433071
          },
          {
            "duration": 0.13636350000001585,
            "durationTicks": 144,
            "midi": 85,
            "name": "C#6",
            "ticks": 199200,
            "time": 188.636175,
            "velocity": 0.8267716535433071
          },
          {
            "duration": 0.13636350000001585,
            "durationTicks": 144,
            "midi": 83,
            "name": "B5",
            "ticks": 199440,
            "time": 188.8634475,
            "velocity": 0.8267716535433071
          },
          {
            "duration": 0.227272499999998,
            "durationTicks": 240,
            "midi": 83,
            "name": "B5",
            "ticks": 199680,
            "time": 189.09072,
            "velocity": 0.8267716535433071
          },
          {
            "duration": 0.14772712499998875,
            "durationTicks": 156,
            "midi": 81,
            "name": "A5",
            "ticks": 199920,
            "time": 189.3179925,
            "velocity": 0.8267716535433071
          },
          {
            "duration": 0.14772712499998875,
            "durationTicks": 156,
            "midi": 78,
            "name": "F#5",
            "ticks": 200160,
            "time": 189.545265,
            "velocity": 0.8267716535433071
          },
          {
            "duration": 0.14772712499998875,
            "durationTicks": 156,
            "midi": 81,
            "name": "A5",
            "ticks": 200400,
            "time": 189.7725375,
            "velocity": 0.8267716535433071
          },
          {
            "duration": 0.227272499999998,
            "durationTicks": 240,
            "midi": 81,
            "name": "A5",
            "ticks": 200640,
            "time": 189.99981,
            "velocity": 0.8267716535433071
          },
          {
            "duration": 0.14772712500001717,
            "durationTicks": 156,
            "midi": 79,
            "name": "G5",
            "ticks": 200880,
            "time": 190.2270825,
            "velocity": 0.8267716535433071
          },
          {
            "duration": 0.14772712500001717,
            "durationTicks": 156,
            "midi": 78,
            "name": "F#5",
            "ticks": 201120,
            "time": 190.454355,
            "velocity": 0.8267716535433071
          },
          {
            "duration": 0.14772712499998875,
            "durationTicks": 156,
            "midi": 76,
            "name": "E5",
            "ticks": 201360,
            "time": 190.68162750000002,
            "velocity": 0.8267716535433071
          },
          {
            "duration": 0.13636349999998743,
            "durationTicks": 144,
            "midi": 74,
            "name": "D5",
            "ticks": 201600,
            "time": 190.90890000000002,
            "velocity": 0.8267716535433071
          },
          {
            "duration": 0.13636349999998743,
            "durationTicks": 144,
            "midi": 69,
            "name": "A4",
            "ticks": 201840,
            "time": 191.13617250000001,
            "velocity": 0.8267716535433071
          },
          {
            "duration": 0.13636349999998743,
            "durationTicks": 144,
            "midi": 71,
            "name": "B4",
            "ticks": 202080,
            "time": 191.363445,
            "velocity": 0.8267716535433071
          },
          {
            "duration": 0.13636349999998743,
            "durationTicks": 144,
            "midi": 73,
            "name": "C#5",
            "ticks": 202320,
            "time": 191.5907175,
            "velocity": 0.8267716535433071
          },
          {
            "duration": 0.13636350000001585,
            "durationTicks": 144,
            "midi": 74,
            "name": "D5",
            "ticks": 202560,
            "time": 191.81799,
            "velocity": 0.8267716535433071
          },
          {
            "duration": 0.13636350000001585,
            "durationTicks": 144,
            "midi": 74,
            "name": "D5",
            "ticks": 202800,
            "time": 192.0452625,
            "velocity": 0.8267716535433071
          },
          {
            "duration": 0.0568181250000066,
            "durationTicks": 60,
            "midi": 78,
            "name": "F#5",
            "ticks": 203040,
            "time": 192.272535,
            "velocity": 0.8267716535433071
          },
          {
            "duration": 0.0568181250000066,
            "durationTicks": 60,
            "midi": 76,
            "name": "E5",
            "ticks": 203100,
            "time": 192.329353125,
            "velocity": 0.8267716535433071
          },
          {
            "duration": 0.05681812499997818,
            "durationTicks": 60,
            "midi": 78,
            "name": "F#5",
            "ticks": 203160,
            "time": 192.38617125000002,
            "velocity": 0.8267716535433071
          },
          {
            "duration": 0.0568181250000066,
            "durationTicks": 60,
            "midi": 76,
            "name": "E5",
            "ticks": 203220,
            "time": 192.442989375,
            "velocity": 0.8267716535433071
          },
          {
            "duration": 0.1136362500000132,
            "durationTicks": 120,
            "midi": 74,
            "name": "D5",
            "ticks": 203280,
            "time": 192.4998075,
            "velocity": 0.8267716535433071
          },
          {
            "duration": 0.11363624999998478,
            "durationTicks": 120,
            "midi": 76,
            "name": "E5",
            "ticks": 203400,
            "time": 192.61344375000002,
            "velocity": 0.8267716535433071
          },
          {
            "duration": 0.13636350000001585,
            "durationTicks": 144,
            "midi": 78,
            "name": "F#5",
            "ticks": 203520,
            "time": 192.72708,
            "velocity": 0.8267716535433071
          },
          {
            "duration": 0.13636350000001585,
            "durationTicks": 144,
            "midi": 73,
            "name": "C#5",
            "ticks": 203760,
            "time": 192.9543525,
            "velocity": 0.8267716535433071
          },
          {
            "duration": 0.13636350000001585,
            "durationTicks": 144,
            "midi": 74,
            "name": "D5",
            "ticks": 204000,
            "time": 193.181625,
            "velocity": 0.8267716535433071
          },
          {
            "duration": 0.13636350000001585,
            "durationTicks": 144,
            "midi": 76,
            "name": "E5",
            "ticks": 204240,
            "time": 193.4088975,
            "velocity": 0.8267716535433071
          },
          {
            "duration": 0.13636350000001585,
            "durationTicks": 144,
            "midi": 78,
            "name": "F#5",
            "ticks": 204480,
            "time": 193.63617,
            "velocity": 0.8267716535433071
          },
          {
            "duration": 0.13636349999998743,
            "durationTicks": 144,
            "midi": 78,
            "name": "F#5",
            "ticks": 204720,
            "time": 193.86344250000002,
            "velocity": 0.8267716535433071
          },
          {
            "duration": 0.05681812499997818,
            "durationTicks": 60,
            "midi": 81,
            "name": "A5",
            "ticks": 204960,
            "time": 194.09071500000002,
            "velocity": 0.8267716535433071
          },
          {
            "duration": 0.0568181250000066,
            "durationTicks": 60,
            "midi": 79,
            "name": "G5",
            "ticks": 205020,
            "time": 194.147533125,
            "velocity": 0.8267716535433071
          },
          {
            "duration": 0.0568181250000066,
            "durationTicks": 60,
            "midi": 81,
            "name": "A5",
            "ticks": 205080,
            "time": 194.20435125,
            "velocity": 0.8267716535433071
          },
          {
            "duration": 0.0568181250000066,
            "durationTicks": 60,
            "midi": 79,
            "name": "G5",
            "ticks": 205140,
            "time": 194.261169375,
            "velocity": 0.8267716535433071
          },
          {
            "duration": 0.11363624999998478,
            "durationTicks": 120,
            "midi": 78,
            "name": "F#5",
            "ticks": 205200,
            "time": 194.31798750000002,
            "velocity": 0.8267716535433071
          },
          {
            "duration": 0.1136362500000132,
            "durationTicks": 120,
            "midi": 79,
            "name": "G5",
            "ticks": 205320,
            "time": 194.43162375,
            "velocity": 0.8267716535433071
          },
          {
            "duration": 0.13636349999998743,
            "durationTicks": 144,
            "midi": 81,
            "name": "A5",
            "ticks": 205440,
            "time": 194.54526,
            "velocity": 0.8267716535433071
          },
          {
            "duration": 0.13636349999998743,
            "durationTicks": 144,
            "midi": 81,
            "name": "A5",
            "ticks": 205680,
            "time": 194.7725325,
            "velocity": 0.8267716535433071
          },
          {
            "duration": 0.0568181250000066,
            "durationTicks": 60,
            "midi": 83,
            "name": "B5",
            "ticks": 205920,
            "time": 194.999805,
            "velocity": 0.8267716535433071
          },
          {
            "duration": 0.05681812499997818,
            "durationTicks": 60,
            "midi": 82,
            "name": "A#5",
            "ticks": 205980,
            "time": 195.05662312500002,
            "velocity": 0.8267716535433071
          },
          {
            "duration": 0.0568181250000066,
            "durationTicks": 60,
            "midi": 83,
            "name": "B5",
            "ticks": 206040,
            "time": 195.11344125,
            "velocity": 0.8267716535433071
          },
          {
            "duration": 0.0568181250000066,
            "durationTicks": 60,
            "midi": 82,
            "name": "A#5",
            "ticks": 206100,
            "time": 195.170259375,
            "velocity": 0.8267716535433071
          },
          {
            "duration": 0.11363624999998478,
            "durationTicks": 120,
            "midi": 80,
            "name": "G#5",
            "ticks": 206160,
            "time": 195.2270775,
            "velocity": 0.8267716535433071
          },
          {
            "duration": 0.1136362500000132,
            "durationTicks": 120,
            "midi": 82,
            "name": "A#5",
            "ticks": 206280,
            "time": 195.34071375,
            "velocity": 0.8267716535433071
          },
          {
            "duration": 0.36363600000001384,
            "durationTicks": 384,
            "midi": 83,
            "name": "B5",
            "ticks": 206400,
            "time": 195.45435,
            "velocity": 0.7244094488188977
          },
          {
            "duration": 0.6818175000000224,
            "durationTicks": 720,
            "midi": 71,
            "name": "B4",
            "ticks": 207360,
            "time": 196.36344,
            "velocity": 0.5669291338582677
          },
          {
            "duration": 0.18181799999996429,
            "durationTicks": 192,
            "midi": 76,
            "name": "E5",
            "ticks": 208080,
            "time": 197.04525750000002,
            "velocity": 0.5669291338582677
          },
          {
            "duration": 0.227272499999998,
            "durationTicks": 240,
            "midi": 74,
            "name": "D5",
            "ticks": 208320,
            "time": 197.27253000000002,
            "velocity": 0.5669291338582677
          },
          {
            "duration": 0.227272499999998,
            "durationTicks": 240,
            "midi": 73,
            "name": "C#5",
            "ticks": 208560,
            "time": 197.49980250000002,
            "velocity": 0.5669291338582677
          },
          {
            "duration": 0.227272499999998,
            "durationTicks": 240,
            "midi": 71,
            "name": "B4",
            "ticks": 208800,
            "time": 197.727075,
            "velocity": 0.5669291338582677
          },
          {
            "duration": 0.1818179999999927,
            "durationTicks": 192,
            "midi": 69,
            "name": "A4",
            "ticks": 209040,
            "time": 197.9543475,
            "velocity": 0.5669291338582677
          },
          {
            "duration": 0.1818179999999927,
            "durationTicks": 192,
            "midi": 74,
            "name": "D5",
            "ticks": 209280,
            "time": 198.18162,
            "velocity": 0.5669291338582677
          },
          {
            "duration": 0.1818179999999927,
            "durationTicks": 192,
            "midi": 78,
            "name": "F#5",
            "ticks": 209760,
            "time": 198.636165,
            "velocity": 0.5669291338582677
          },
          {
            "duration": 0.1818179999999927,
            "durationTicks": 192,
            "midi": 74,
            "name": "D5",
            "ticks": 210240,
            "time": 199.09071,
            "velocity": 0.4566929133858268
          },
          {
            "duration": 0.36363600000001384,
            "durationTicks": 384,
            "midi": 62,
            "name": "D4",
            "ticks": 211200,
            "time": 199.9998,
            "velocity": 0.8267716535433071
          },
          {
            "duration": 0.36363600000001384,
            "durationTicks": 384,
            "midi": 74,
            "name": "D5",
            "ticks": 211200,
            "time": 199.9998,
            "velocity": 0.8267716535433071
          },
          {
            "duration": 0.14772712499998875,
            "durationTicks": 156,
            "midi": 69,
            "name": "A4",
            "ticks": 211920,
            "time": 200.68161750000002,
            "velocity": 0.8267716535433071
          },
          {
            "duration": 0.3636359999999854,
            "durationTicks": 384,
            "midi": 74,
            "name": "D5",
            "ticks": 212160,
            "time": 200.90889,
            "velocity": 0.8267716535433071
          },
          {
            "duration": 0.14772712499998875,
            "durationTicks": 156,
            "midi": 69,
            "name": "A4",
            "ticks": 212880,
            "time": 201.5907075,
            "velocity": 0.8267716535433071
          },
          {
            "duration": 0.14772712499998875,
            "durationTicks": 156,
            "midi": 74,
            "name": "D5",
            "ticks": 213120,
            "time": 201.81798,
            "velocity": 0.8267716535433071
          },
          {
            "duration": 0.14772712499998875,
            "durationTicks": 156,
            "midi": 69,
            "name": "A4",
            "ticks": 213360,
            "time": 202.0452525,
            "velocity": 0.8267716535433071
          },
          {
            "duration": 0.14772712499998875,
            "durationTicks": 156,
            "midi": 74,
            "name": "D5",
            "ticks": 213600,
            "time": 202.272525,
            "velocity": 0.8267716535433071
          },
          {
            "duration": 0.14772712499998875,
            "durationTicks": 156,
            "midi": 78,
            "name": "F#5",
            "ticks": 213840,
            "time": 202.4997975,
            "velocity": 0.8267716535433071
          },
          {
            "duration": 0.36363600000001384,
            "durationTicks": 384,
            "midi": 81,
            "name": "A5",
            "ticks": 214080,
            "time": 202.72707,
            "velocity": 0.8267716535433071
          },
          {
            "duration": 0.3636359999999854,
            "durationTicks": 384,
            "midi": 81,
            "name": "A5",
            "ticks": 215040,
            "time": 203.63616000000002,
            "velocity": 0.8267716535433071
          },
          {
            "duration": 0.14772712499998875,
            "durationTicks": 156,
            "midi": 78,
            "name": "F#5",
            "ticks": 215760,
            "time": 204.3179775,
            "velocity": 0.8267716535433071
          },
          {
            "duration": 0.36363600000001384,
            "durationTicks": 384,
            "midi": 81,
            "name": "A5",
            "ticks": 216000,
            "time": 204.54525,
            "velocity": 0.8267716535433071
          },
          {
            "duration": 0.14772712499998875,
            "durationTicks": 156,
            "midi": 78,
            "name": "F#5",
            "ticks": 216720,
            "time": 205.2270675,
            "velocity": 0.8267716535433071
          },
          {
            "duration": 0.14772712499998875,
            "durationTicks": 156,
            "midi": 81,
            "name": "A5",
            "ticks": 216960,
            "time": 205.45434,
            "velocity": 0.8267716535433071
          },
          {
            "duration": 0.14772712499998875,
            "durationTicks": 156,
            "midi": 78,
            "name": "F#5",
            "ticks": 217200,
            "time": 205.6816125,
            "velocity": 0.8267716535433071
          },
          {
            "duration": 0.14772712500001717,
            "durationTicks": 156,
            "midi": 75,
            "name": "D#5",
            "ticks": 217440,
            "time": 205.908885,
            "velocity": 0.8267716535433071
          },
          {
            "duration": 0.14772712500001717,
            "durationTicks": 156,
            "midi": 78,
            "name": "F#5",
            "ticks": 217680,
            "time": 206.1361575,
            "velocity": 0.8267716535433071
          },
          {
            "duration": 0.36363600000001384,
            "durationTicks": 384,
            "midi": 71,
            "name": "B4",
            "ticks": 217920,
            "time": 206.36343,
            "velocity": 0.8267716535433071
          },
          {
            "duration": 0.1818179999999927,
            "durationTicks": 192,
            "midi": 79,
            "name": "G5",
            "ticks": 219600,
            "time": 207.9543375,
            "velocity": 0.5669291338582677
          },
          {
            "duration": 0.227272499999998,
            "durationTicks": 240,
            "midi": 84,
            "name": "C6",
            "ticks": 219840,
            "time": 208.18161,
            "velocity": 0.5669291338582677
          },
          {
            "duration": 0.227272499999998,
            "durationTicks": 240,
            "midi": 83,
            "name": "B5",
            "ticks": 220080,
            "time": 208.4088825,
            "velocity": 0.5669291338582677
          },
          {
            "duration": 0.227272499999998,
            "durationTicks": 240,
            "midi": 81,
            "name": "A5",
            "ticks": 220320,
            "time": 208.636155,
            "velocity": 0.5669291338582677
          },
          {
            "duration": 0.1818179999999927,
            "durationTicks": 192,
            "midi": 79,
            "name": "G5",
            "ticks": 220560,
            "time": 208.8634275,
            "velocity": 0.5669291338582677
          },
          {
            "duration": 0.0568181250000066,
            "durationTicks": 60,
            "midi": 83,
            "name": "B5",
            "ticks": 220800,
            "time": 209.0907,
            "velocity": 0.5669291338582677
          },
          {
            "duration": 0.0568181250000066,
            "durationTicks": 60,
            "midi": 81,
            "name": "A5",
            "ticks": 220860,
            "time": 209.147518125,
            "velocity": 0.5669291338582677
          },
          {
            "duration": 0.0568181250000066,
            "durationTicks": 60,
            "midi": 83,
            "name": "B5",
            "ticks": 220920,
            "time": 209.20433625,
            "velocity": 0.5669291338582677
          },
          {
            "duration": 0.05681812499997818,
            "durationTicks": 60,
            "midi": 81,
            "name": "A5",
            "ticks": 220980,
            "time": 209.26115437500002,
            "velocity": 0.5669291338582677
          },
          {
            "duration": 0.1818179999999927,
            "durationTicks": 192,
            "midi": 79,
            "name": "G5",
            "ticks": 221040,
            "time": 209.3179725,
            "velocity": 0.5669291338582677
          },
          {
            "duration": 0.13636349999998743,
            "durationTicks": 144,
            "midi": 79,
            "name": "G5",
            "ticks": 221520,
            "time": 209.77251750000002,
            "velocity": 0.5669291338582677
          },
          {
            "duration": 0.13636349999998743,
            "durationTicks": 144,
            "midi": 79,
            "name": "G5",
            "ticks": 221760,
            "time": 209.99979000000002,
            "velocity": 0.5669291338582677
          },
          {
            "duration": 0.13636349999998743,
            "durationTicks": 144,
            "midi": 79,
            "name": "G5",
            "ticks": 222000,
            "time": 210.22706250000002,
            "velocity": 0.5669291338582677
          },
          {
            "duration": 0.13636349999998743,
            "durationTicks": 144,
            "midi": 79,
            "name": "G5",
            "ticks": 222240,
            "time": 210.45433500000001,
            "velocity": 0.5669291338582677
          },
          {
            "duration": 0.13636349999998743,
            "durationTicks": 144,
            "midi": 79,
            "name": "G5",
            "ticks": 222480,
            "time": 210.6816075,
            "velocity": 0.5669291338582677
          },
          {
            "duration": 0.0568181250000066,
            "durationTicks": 60,
            "midi": 83,
            "name": "B5",
            "ticks": 222720,
            "time": 210.90888,
            "velocity": 0.5669291338582677
          },
          {
            "duration": 0.05681812499997818,
            "durationTicks": 60,
            "midi": 81,
            "name": "A5",
            "ticks": 222780,
            "time": 210.96569812500002,
            "velocity": 0.5669291338582677
          },
          {
            "duration": 0.0568181250000066,
            "durationTicks": 60,
            "midi": 83,
            "name": "B5",
            "ticks": 222840,
            "time": 211.02251625,
            "velocity": 0.5669291338582677
          },
          {
            "duration": 0.0568181250000066,
            "durationTicks": 60,
            "midi": 81,
            "name": "A5",
            "ticks": 222900,
            "time": 211.079334375,
            "velocity": 0.5669291338582677
          },
          {
            "duration": 0.1818179999999927,
            "durationTicks": 192,
            "midi": 79,
            "name": "G5",
            "ticks": 222960,
            "time": 211.1361525,
            "velocity": 0.5669291338582677
          },
          {
            "duration": 0.1818179999999927,
            "durationTicks": 192,
            "midi": 79,
            "name": "G5",
            "ticks": 223440,
            "time": 211.5906975,
            "velocity": 0.5669291338582677
          },
          {
            "duration": 0.227272499999998,
            "durationTicks": 240,
            "midi": 84,
            "name": "C6",
            "ticks": 223680,
            "time": 211.81797,
            "velocity": 0.5669291338582677
          },
          {
            "duration": 0.227272499999998,
            "durationTicks": 240,
            "midi": 83,
            "name": "B5",
            "ticks": 223920,
            "time": 212.0452425,
            "velocity": 0.5669291338582677
          },
          {
            "duration": 0.227272499999998,
            "durationTicks": 240,
            "midi": 81,
            "name": "A5",
            "ticks": 224160,
            "time": 212.272515,
            "velocity": 0.5669291338582677
          },
          {
            "duration": 0.1818179999999927,
            "durationTicks": 192,
            "midi": 79,
            "name": "G5",
            "ticks": 224400,
            "time": 212.4997875,
            "velocity": 0.5669291338582677
          },
          {
            "duration": 0.0568181250000066,
            "durationTicks": 60,
            "midi": 83,
            "name": "B5",
            "ticks": 224640,
            "time": 212.72706,
            "velocity": 0.5669291338582677
          },
          {
            "duration": 0.0568181250000066,
            "durationTicks": 60,
            "midi": 81,
            "name": "A5",
            "ticks": 224700,
            "time": 212.783878125,
            "velocity": 0.5669291338582677
          },
          {
            "duration": 0.0568181250000066,
            "durationTicks": 60,
            "midi": 83,
            "name": "B5",
            "ticks": 224760,
            "time": 212.84069625,
            "velocity": 0.5669291338582677
          },
          {
            "duration": 0.0568181250000066,
            "durationTicks": 60,
            "midi": 81,
            "name": "A5",
            "ticks": 224820,
            "time": 212.89751437500001,
            "velocity": 0.5669291338582677
          },
          {
            "duration": 0.18181799999996429,
            "durationTicks": 192,
            "midi": 79,
            "name": "G5",
            "ticks": 224880,
            "time": 212.95433250000002,
            "velocity": 0.5669291338582677
          },
          {
            "duration": 0.13636349999998743,
            "durationTicks": 144,
            "midi": 79,
            "name": "G5",
            "ticks": 225360,
            "time": 213.40887750000002,
            "velocity": 0.5669291338582677
          },
          {
            "duration": 0.13636349999998743,
            "durationTicks": 144,
            "midi": 79,
            "name": "G5",
            "ticks": 225600,
            "time": 213.63615000000001,
            "velocity": 0.5669291338582677
          },
          {
            "duration": 0.13636349999998743,
            "durationTicks": 144,
            "midi": 79,
            "name": "G5",
            "ticks": 225840,
            "time": 213.8634225,
            "velocity": 0.5669291338582677
          },
          {
            "duration": 0.13636349999998743,
            "durationTicks": 144,
            "midi": 79,
            "name": "G5",
            "ticks": 226080,
            "time": 214.090695,
            "velocity": 0.5669291338582677
          },
          {
            "duration": 0.13636350000001585,
            "durationTicks": 144,
            "midi": 79,
            "name": "G5",
            "ticks": 226320,
            "time": 214.3179675,
            "velocity": 0.5669291338582677
          },
          {
            "duration": 0.0568181250000066,
            "durationTicks": 60,
            "midi": 83,
            "name": "B5",
            "ticks": 226560,
            "time": 214.54524,
            "velocity": 0.5669291338582677
          },
          {
            "duration": 0.0568181250000066,
            "durationTicks": 60,
            "midi": 81,
            "name": "A5",
            "ticks": 226620,
            "time": 214.602058125,
            "velocity": 0.5669291338582677
          },
          {
            "duration": 0.05681812499997818,
            "durationTicks": 60,
            "midi": 83,
            "name": "B5",
            "ticks": 226680,
            "time": 214.65887625000002,
            "velocity": 0.5669291338582677
          },
          {
            "duration": 0.0568181250000066,
            "durationTicks": 60,
            "midi": 81,
            "name": "A5",
            "ticks": 226740,
            "time": 214.715694375,
            "velocity": 0.5669291338582677
          },
          {
            "duration": 0.1818179999999927,
            "durationTicks": 192,
            "midi": 79,
            "name": "G5",
            "ticks": 226800,
            "time": 214.7725125,
            "velocity": 0.5669291338582677
          },
          {
            "duration": 0.1818179999999927,
            "durationTicks": 192,
            "midi": 79,
            "name": "G5",
            "ticks": 227280,
            "time": 215.2270575,
            "velocity": 0.5669291338582677
          },
          {
            "duration": 0.227272499999998,
            "durationTicks": 240,
            "midi": 84,
            "name": "C6",
            "ticks": 227520,
            "time": 215.45433,
            "velocity": 0.5669291338582677
          },
          {
            "duration": 0.227272499999998,
            "durationTicks": 240,
            "midi": 83,
            "name": "B5",
            "ticks": 227760,
            "time": 215.6816025,
            "velocity": 0.5669291338582677
          },
          {
            "duration": 0.2272725000000264,
            "durationTicks": 240,
            "midi": 81,
            "name": "A5",
            "ticks": 228000,
            "time": 215.908875,
            "velocity": 0.5669291338582677
          },
          {
            "duration": 0.18181799999996429,
            "durationTicks": 192,
            "midi": 79,
            "name": "G5",
            "ticks": 228240,
            "time": 216.13614750000002,
            "velocity": 0.5669291338582677
          },
          {
            "duration": 0.05681812499997818,
            "durationTicks": 60,
            "midi": 83,
            "name": "B5",
            "ticks": 228480,
            "time": 216.36342000000002,
            "velocity": 0.5669291338582677
          },
          {
            "duration": 0.0568181250000066,
            "durationTicks": 60,
            "midi": 81,
            "name": "A5",
            "ticks": 228540,
            "time": 216.420238125,
            "velocity": 0.5669291338582677
          },
          {
            "duration": 0.0568181250000066,
            "durationTicks": 60,
            "midi": 83,
            "name": "B5",
            "ticks": 228600,
            "time": 216.47705625,
            "velocity": 0.5669291338582677
          },
          {
            "duration": 0.0568181250000066,
            "durationTicks": 60,
            "midi": 81,
            "name": "A5",
            "ticks": 228660,
            "time": 216.533874375,
            "velocity": 0.5669291338582677
          },
          {
            "duration": 0.1818179999999927,
            "durationTicks": 192,
            "midi": 80,
            "name": "G#5",
            "ticks": 228720,
            "time": 216.59069250000002,
            "velocity": 0.5669291338582677
          },
          {
            "duration": 0.13636349999998743,
            "durationTicks": 144,
            "midi": 80,
            "name": "G#5",
            "ticks": 229200,
            "time": 217.0452375,
            "velocity": 0.5669291338582677
          },
          {
            "duration": 0.13636349999998743,
            "durationTicks": 144,
            "midi": 80,
            "name": "G#5",
            "ticks": 229440,
            "time": 217.27251,
            "velocity": 0.5669291338582677
          },
          {
            "duration": 0.13636350000001585,
            "durationTicks": 144,
            "midi": 80,
            "name": "G#5",
            "ticks": 229680,
            "time": 217.4997825,
            "velocity": 0.5669291338582677
          },
          {
            "duration": 0.13636350000001585,
            "durationTicks": 144,
            "midi": 80,
            "name": "G#5",
            "ticks": 229920,
            "time": 217.727055,
            "velocity": 0.5669291338582677
          },
          {
            "duration": 0.13636350000001585,
            "durationTicks": 144,
            "midi": 80,
            "name": "G#5",
            "ticks": 230160,
            "time": 217.9543275,
            "velocity": 0.5669291338582677
          },
          {
            "duration": 0.0568181250000066,
            "durationTicks": 60,
            "midi": 84,
            "name": "C6",
            "ticks": 230400,
            "time": 218.1816,
            "velocity": 0.5669291338582677
          },
          {
            "duration": 0.0568181250000066,
            "durationTicks": 60,
            "midi": 83,
            "name": "B5",
            "ticks": 230460,
            "time": 218.238418125,
            "velocity": 0.5669291338582677
          },
          {
            "duration": 0.05681812499997818,
            "durationTicks": 60,
            "midi": 84,
            "name": "C6",
            "ticks": 230520,
            "time": 218.29523625000002,
            "velocity": 0.5669291338582677
          },
          {
            "duration": 0.0568181250000066,
            "durationTicks": 60,
            "midi": 83,
            "name": "B5",
            "ticks": 230580,
            "time": 218.352054375,
            "velocity": 0.5669291338582677
          },
          {
            "duration": 0.1818179999999927,
            "durationTicks": 192,
            "midi": 81,
            "name": "A5",
            "ticks": 230640,
            "time": 218.4088725,
            "velocity": 0.5669291338582677
          },
          {
            "duration": 0.1818179999999927,
            "durationTicks": 192,
            "midi": 81,
            "name": "A5",
            "ticks": 231120,
            "time": 218.8634175,
            "velocity": 0.5669291338582677
          },
          {
            "duration": 0.2272725000000264,
            "durationTicks": 240,
            "midi": 84,
            "name": "C6",
            "ticks": 231360,
            "time": 219.09069,
            "velocity": 0.5669291338582677
          },
          {
            "duration": 0.227272499999998,
            "durationTicks": 240,
            "midi": 82,
            "name": "A#5",
            "ticks": 231600,
            "time": 219.31796250000002,
            "velocity": 0.5669291338582677
          },
          {
            "duration": 0.227272499999998,
            "durationTicks": 240,
            "midi": 81,
            "name": "A5",
            "ticks": 231840,
            "time": 219.54523500000002,
            "velocity": 0.5669291338582677
          },
          {
            "duration": 0.1818179999999927,
            "durationTicks": 192,
            "midi": 79,
            "name": "G5",
            "ticks": 232080,
            "time": 219.77250750000002,
            "velocity": 0.5669291338582677
          },
          {
            "duration": 0.05681812499997818,
            "durationTicks": 60,
            "midi": 81,
            "name": "A5",
            "ticks": 232320,
            "time": 219.99978000000002,
            "velocity": 0.5669291338582677
          },
          {
            "duration": 0.0568181250000066,
            "durationTicks": 60,
            "midi": 79,
            "name": "G5",
            "ticks": 232380,
            "time": 220.056598125,
            "velocity": 0.5669291338582677
          },
          {
            "duration": 0.0568181250000066,
            "durationTicks": 60,
            "midi": 81,
            "name": "A5",
            "ticks": 232440,
            "time": 220.11341625,
            "velocity": 0.5669291338582677
          },
          {
            "duration": 0.0568181250000066,
            "durationTicks": 60,
            "midi": 79,
            "name": "G5",
            "ticks": 232500,
            "time": 220.170234375,
            "velocity": 0.5669291338582677
          },
          {
            "duration": 0.1818179999999927,
            "durationTicks": 192,
            "midi": 78,
            "name": "F#5",
            "ticks": 232560,
            "time": 220.2270525,
            "velocity": 0.5669291338582677
          },
          {
            "duration": 0.13636350000001585,
            "durationTicks": 144,
            "midi": 78,
            "name": "F#5",
            "ticks": 233040,
            "time": 220.6815975,
            "velocity": 0.5669291338582677
          },
          {
            "duration": 0.13636350000001585,
            "durationTicks": 144,
            "midi": 78,
            "name": "F#5",
            "ticks": 233280,
            "time": 220.90887,
            "velocity": 0.5669291338582677
          },
          {
            "duration": 0.13636350000001585,
            "durationTicks": 144,
            "midi": 78,
            "name": "F#5",
            "ticks": 233520,
            "time": 221.1361425,
            "velocity": 0.5669291338582677
          },
          {
            "duration": 0.13636350000001585,
            "durationTicks": 144,
            "midi": 78,
            "name": "F#5",
            "ticks": 233760,
            "time": 221.363415,
            "velocity": 0.5669291338582677
          },
          {
            "duration": 0.13636350000001585,
            "durationTicks": 144,
            "midi": 78,
            "name": "F#5",
            "ticks": 234000,
            "time": 221.5906875,
            "velocity": 0.5669291338582677
          },
          {
            "duration": 0.0568181250000066,
            "durationTicks": 60,
            "midi": 82,
            "name": "A#5",
            "ticks": 234240,
            "time": 221.81796,
            "velocity": 0.5669291338582677
          },
          {
            "duration": 0.0568181250000066,
            "durationTicks": 60,
            "midi": 81,
            "name": "A5",
            "ticks": 234300,
            "time": 221.874778125,
            "velocity": 0.5669291338582677
          },
          {
            "duration": 0.0568181250000066,
            "durationTicks": 60,
            "midi": 82,
            "name": "A#5",
            "ticks": 234360,
            "time": 221.93159625,
            "velocity": 0.5669291338582677
          },
          {
            "duration": 0.05681812499997818,
            "durationTicks": 60,
            "midi": 81,
            "name": "A5",
            "ticks": 234420,
            "time": 221.98841437500002,
            "velocity": 0.5669291338582677
          },
          {
            "duration": 0.1818179999999927,
            "durationTicks": 192,
            "midi": 79,
            "name": "G5",
            "ticks": 234480,
            "time": 222.0452325,
            "velocity": 0.5669291338582677
          },
          {
            "duration": 0.18181799999996429,
            "durationTicks": 192,
            "midi": 75,
            "name": "D#5",
            "ticks": 234960,
            "time": 222.49977750000002,
            "velocity": 0.5669291338582677
          },
          {
            "duration": 0.227272499999998,
            "durationTicks": 240,
            "midi": 79,
            "name": "G5",
            "ticks": 235200,
            "time": 222.72705000000002,
            "velocity": 0.5669291338582677
          },
          {
            "duration": 0.227272499999998,
            "durationTicks": 240,
            "midi": 77,
            "name": "F5",
            "ticks": 235440,
            "time": 222.95432250000002,
            "velocity": 0.5669291338582677
          },
          {
            "duration": 0.227272499999998,
            "durationTicks": 240,
            "midi": 75,
            "name": "D#5",
            "ticks": 235680,
            "time": 223.18159500000002,
            "velocity": 0.5669291338582677
          },
          {
            "duration": 0.1818179999999927,
            "durationTicks": 192,
            "midi": 74,
            "name": "D5",
            "ticks": 235920,
            "time": 223.4088675,
            "velocity": 0.5669291338582677
          },
          {
            "duration": 0.0568181250000066,
            "durationTicks": 60,
            "midi": 75,
            "name": "D#5",
            "ticks": 236160,
            "time": 223.63614,
            "velocity": 0.5669291338582677
          },
          {
            "duration": 0.05681812499997818,
            "durationTicks": 60,
            "midi": 74,
            "name": "D5",
            "ticks": 236220,
            "time": 223.69295812500002,
            "velocity": 0.5669291338582677
          },
          {
            "duration": 0.0568181250000066,
            "durationTicks": 60,
            "midi": 75,
            "name": "D#5",
            "ticks": 236280,
            "time": 223.74977625,
            "velocity": 0.5669291338582677
          },
          {
            "duration": 0.0568181250000066,
            "durationTicks": 60,
            "midi": 74,
            "name": "D5",
            "ticks": 236340,
            "time": 223.806594375,
            "velocity": 0.5669291338582677
          },
          {
            "duration": 0.1818179999999927,
            "durationTicks": 192,
            "midi": 73,
            "name": "C#5",
            "ticks": 236400,
            "time": 223.8634125,
            "velocity": 0.5669291338582677
          },
          {
            "duration": 0.14772712499998875,
            "durationTicks": 156,
            "midi": 73,
            "name": "C#5",
            "ticks": 236880,
            "time": 224.3179575,
            "velocity": 0.5669291338582677
          },
          {
            "duration": 0.14772712499998875,
            "durationTicks": 156,
            "midi": 73,
            "name": "C#5",
            "ticks": 237120,
            "time": 224.54523,
            "velocity": 0.5669291338582677
          },
          {
            "duration": 0.14772712499998875,
            "durationTicks": 156,
            "midi": 73,
            "name": "C#5",
            "ticks": 237360,
            "time": 224.7725025,
            "velocity": 0.5669291338582677
          },
          {
            "duration": 0.14772712500001717,
            "durationTicks": 156,
            "midi": 73,
            "name": "C#5",
            "ticks": 237600,
            "time": 224.999775,
            "velocity": 0.5669291338582677
          },
          {
            "duration": 0.14772712500001717,
            "durationTicks": 156,
            "midi": 73,
            "name": "C#5",
            "ticks": 237840,
            "time": 225.2270475,
            "velocity": 0.5669291338582677
          },
          {
            "duration": 0.0568181250000066,
            "durationTicks": 60,
            "midi": 78,
            "name": "F#5",
            "ticks": 238080,
            "time": 225.45432,
            "velocity": 0.5669291338582677
          },
          {
            "duration": 0.0568181250000066,
            "durationTicks": 60,
            "midi": 76,
            "name": "E5",
            "ticks": 238140,
            "time": 225.511138125,
            "velocity": 0.5669291338582677
          },
          {
            "duration": 0.0568181250000066,
            "durationTicks": 60,
            "midi": 78,
            "name": "F#5",
            "ticks": 238200,
            "time": 225.56795625,
            "velocity": 0.5669291338582677
          },
          {
            "duration": 0.0568181250000066,
            "durationTicks": 60,
            "midi": 76,
            "name": "E5",
            "ticks": 238260,
            "time": 225.62477437500002,
            "velocity": 0.4566929133858268
          },
          {
            "duration": 0.18181799999996429,
            "durationTicks": 192,
            "midi": 74,
            "name": "D5",
            "ticks": 238320,
            "time": 225.68159250000002,
            "velocity": 0.4566929133858268
          },
          {
            "duration": 0.227272499999998,
            "durationTicks": 240,
            "midi": 62,
            "name": "D4",
            "ticks": 238800,
            "time": 226.13613750000002,
            "velocity": 0.8267716535433071
          },
          {
            "duration": 0.227272499999998,
            "durationTicks": 240,
            "midi": 64,
            "name": "E4",
            "ticks": 239040,
            "time": 226.36341000000002,
            "velocity": 0.8267716535433071
          },
          {
            "duration": 0.227272499999998,
            "durationTicks": 240,
            "midi": 66,
            "name": "F#4",
            "ticks": 239280,
            "time": 226.5906825,
            "velocity": 0.8267716535433071
          },
          {
            "duration": 0.227272499999998,
            "durationTicks": 240,
            "midi": 67,
            "name": "G4",
            "ticks": 239520,
            "time": 226.817955,
            "velocity": 0.8267716535433071
          },
          {
            "duration": 0.227272499999998,
            "durationTicks": 240,
            "midi": 69,
            "name": "A4",
            "ticks": 239760,
            "time": 227.0452275,
            "velocity": 0.8267716535433071
          },
          {
            "duration": 0.227272499999998,
            "durationTicks": 240,
            "midi": 72,
            "name": "C5",
            "ticks": 240000,
            "time": 227.2725,
            "velocity": 0.8267716535433071
          },
          {
            "duration": 0.227272499999998,
            "durationTicks": 240,
            "midi": 70,
            "name": "A#4",
            "ticks": 240240,
            "time": 227.4997725,
            "velocity": 0.8267716535433071
          },
          {
            "duration": 0.227272499999998,
            "durationTicks": 240,
            "midi": 66,
            "name": "F#4",
            "ticks": 240720,
            "time": 227.9543175,
            "velocity": 0.8267716535433071
          },
          {
            "duration": 0.227272499999998,
            "durationTicks": 240,
            "midi": 67,
            "name": "G4",
            "ticks": 240960,
            "time": 228.18159,
            "velocity": 0.8267716535433071
          },
          {
            "duration": 0.227272499999998,
            "durationTicks": 240,
            "midi": 69,
            "name": "A4",
            "ticks": 241200,
            "time": 228.4088625,
            "velocity": 0.8267716535433071
          },
          {
            "duration": 0.2272725000000264,
            "durationTicks": 240,
            "midi": 70,
            "name": "A#4",
            "ticks": 241440,
            "time": 228.636135,
            "velocity": 0.8267716535433071
          },
          {
            "duration": 0.227272499999998,
            "durationTicks": 240,
            "midi": 73,
            "name": "C#5",
            "ticks": 241680,
            "time": 228.86340750000002,
            "velocity": 0.8267716535433071
          },
          {
            "duration": 0.227272499999998,
            "durationTicks": 240,
            "midi": 76,
            "name": "E5",
            "ticks": 241920,
            "time": 229.09068000000002,
            "velocity": 0.8267716535433071
          },
          {
            "duration": 0.1818179999999927,
            "durationTicks": 192,
            "midi": 74,
            "name": "D5",
            "ticks": 242160,
            "time": 229.31795250000002,
            "velocity": 0.8267716535433071
          },
          {
            "duration": 0.227272499999998,
            "durationTicks": 240,
            "midi": 74,
            "name": "D5",
            "ticks": 242640,
            "time": 229.77249750000001,
            "velocity": 0.5669291338582677
          },
          {
            "duration": 0.227272499999998,
            "durationTicks": 240,
            "midi": 76,
            "name": "E5",
            "ticks": 242880,
            "time": 229.99977,
            "velocity": 0.5669291338582677
          },
          {
            "duration": 0.227272499999998,
            "durationTicks": 240,
            "midi": 78,
            "name": "F#5",
            "ticks": 243120,
            "time": 230.2270425,
            "velocity": 0.5669291338582677
          },
          {
            "duration": 0.227272499999998,
            "durationTicks": 240,
            "midi": 79,
            "name": "G5",
            "ticks": 243360,
            "time": 230.454315,
            "velocity": 0.5669291338582677
          },
          {
            "duration": 0.227272499999998,
            "durationTicks": 240,
            "midi": 81,
            "name": "A5",
            "ticks": 243600,
            "time": 230.6815875,
            "velocity": 0.5669291338582677
          },
          {
            "duration": 0.454544999999996,
            "durationTicks": 480,
            "midi": 82,
            "name": "A#5",
            "ticks": 243840,
            "time": 230.90886,
            "velocity": 0.5669291338582677
          },
          {
            "duration": 0.454544999999996,
            "durationTicks": 480,
            "midi": 83,
            "name": "B5",
            "ticks": 244320,
            "time": 231.363405,
            "velocity": 0.5669291338582677
          },
          {
            "duration": 0.4545450000000244,
            "durationTicks": 480,
            "midi": 84,
            "name": "C6",
            "ticks": 244800,
            "time": 231.81795,
            "velocity": 0.5669291338582677
          },
          {
            "duration": 0.43181774999999334,
            "durationTicks": 456,
            "midi": 85,
            "name": "C#6",
            "ticks": 245280,
            "time": 232.27249500000002,
            "velocity": 0.5669291338582677
          },
          {
            "duration": 2.5454520000000116,
            "durationTicks": 2688,
            "midi": 86,
            "name": "D6",
            "ticks": 245760,
            "time": 232.72704000000002,
            "velocity": 0.5669291338582677
          },
          {
            "duration": 0.05681812499997818,
            "durationTicks": 60,
            "midi": 79,
            "name": "G5",
            "ticks": 248640,
            "time": 235.45431000000002,
            "velocity": 0.5669291338582677
          },
          {
            "duration": 0.0568181250000066,
            "durationTicks": 60,
            "midi": 78,
            "name": "F#5",
            "ticks": 248700,
            "time": 235.511128125,
            "velocity": 0.5669291338582677
          },
          {
            "duration": 0.0568181250000066,
            "durationTicks": 60,
            "midi": 79,
            "name": "G5",
            "ticks": 248760,
            "time": 235.56794625,
            "velocity": 0.5669291338582677
          },
          {
            "duration": 0.0568181250000066,
            "durationTicks": 60,
            "midi": 78,
            "name": "F#5",
            "ticks": 248820,
            "time": 235.624764375,
            "velocity": 0.5669291338582677
          },
          {
            "duration": 0.05681812499997818,
            "durationTicks": 60,
            "midi": 79,
            "name": "G5",
            "ticks": 248880,
            "time": 235.68158250000002,
            "velocity": 0.5669291338582677
          },
          {
            "duration": 0.0568181250000066,
            "durationTicks": 60,
            "midi": 78,
            "name": "F#5",
            "ticks": 248940,
            "time": 235.738400625,
            "velocity": 0.5669291338582677
          },
          {
            "duration": 0.0568181250000066,
            "durationTicks": 60,
            "midi": 79,
            "name": "G5",
            "ticks": 249000,
            "time": 235.79521875,
            "velocity": 0.5669291338582677
          },
          {
            "duration": 0.0568181250000066,
            "durationTicks": 60,
            "midi": 78,
            "name": "F#5",
            "ticks": 249060,
            "time": 235.852036875,
            "velocity": 0.5669291338582677
          },
          {
            "duration": 0.05681812499997818,
            "durationTicks": 60,
            "midi": 79,
            "name": "G5",
            "ticks": 249120,
            "time": 235.90885500000002,
            "velocity": 0.5669291338582677
          },
          {
            "duration": 0.0568181250000066,
            "durationTicks": 60,
            "midi": 78,
            "name": "F#5",
            "ticks": 249180,
            "time": 235.965673125,
            "velocity": 0.5669291338582677
          },
          {
            "duration": 0.0568181250000066,
            "durationTicks": 60,
            "midi": 79,
            "name": "G5",
            "ticks": 249240,
            "time": 236.02249125,
            "velocity": 0.5669291338582677
          },
          {
            "duration": 0.0568181250000066,
            "durationTicks": 60,
            "midi": 78,
            "name": "F#5",
            "ticks": 249300,
            "time": 236.079309375,
            "velocity": 0.5669291338582677
          },
          {
            "duration": 0.11363624999998478,
            "durationTicks": 120,
            "midi": 76,
            "name": "E5",
            "ticks": 249360,
            "time": 236.13612750000001,
            "velocity": 0.5669291338582677
          },
          {
            "duration": 0.09090900000003899,
            "durationTicks": 96,
            "midi": 78,
            "name": "F#5",
            "ticks": 249480,
            "time": 236.24976375,
            "velocity": 0.5669291338582677
          },
          {
            "duration": 0.3636359999999854,
            "durationTicks": 384,
            "midi": 79,
            "name": "G5",
            "ticks": 249600,
            "time": 236.3634,
            "velocity": 0.984251968503937
          },
          {
            "duration": 0.13636349999998743,
            "durationTicks": 144,
            "midi": 74,
            "name": "D5",
            "ticks": 250320,
            "time": 237.0452175,
            "velocity": 0.8267716535433071
          },
          {
            "duration": 0.3636359999999854,
            "durationTicks": 384,
            "midi": 79,
            "name": "G5",
            "ticks": 250560,
            "time": 237.27249,
            "velocity": 0.8267716535433071
          },
          {
            "duration": 0.13636349999998743,
            "durationTicks": 144,
            "midi": 74,
            "name": "D5",
            "ticks": 251280,
            "time": 237.9543075,
            "velocity": 0.8267716535433071
          },
          {
            "duration": 0.13636349999998743,
            "durationTicks": 144,
            "midi": 79,
            "name": "G5",
            "ticks": 251520,
            "time": 238.18158,
            "velocity": 0.8267716535433071
          },
          {
            "duration": 0.13636349999998743,
            "durationTicks": 144,
            "midi": 74,
            "name": "D5",
            "ticks": 251760,
            "time": 238.4088525,
            "velocity": 0.8267716535433071
          },
          {
            "duration": 0.136363499999959,
            "durationTicks": 144,
            "midi": 79,
            "name": "G5",
            "ticks": 252000,
            "time": 238.63612500000002,
            "velocity": 0.8267716535433071
          },
          {
            "duration": 0.136363499999959,
            "durationTicks": 144,
            "midi": 83,
            "name": "B5",
            "ticks": 252240,
            "time": 238.86339750000002,
            "velocity": 0.8267716535433071
          },
          {
            "duration": 0.363635999999957,
            "durationTicks": 384,
            "midi": 86,
            "name": "D6",
            "ticks": 252480,
            "time": 239.09067000000002,
            "velocity": 0.8267716535433071
          },
          {
            "duration": 0.3636359999999854,
            "durationTicks": 384,
            "midi": 84,
            "name": "C6",
            "ticks": 253440,
            "time": 239.99976,
            "velocity": 0.8267716535433071
          },
          {
            "duration": 0.13636349999998743,
            "durationTicks": 144,
            "midi": 81,
            "name": "A5",
            "ticks": 254160,
            "time": 240.6815775,
            "velocity": 0.8267716535433071
          },
          {
            "duration": 0.3636359999999854,
            "durationTicks": 384,
            "midi": 84,
            "name": "C6",
            "ticks": 254400,
            "time": 240.90885,
            "velocity": 0.8267716535433071
          },
          {
            "duration": 0.13636349999998743,
            "durationTicks": 144,
            "midi": 81,
            "name": "A5",
            "ticks": 255120,
            "time": 241.5906675,
            "velocity": 0.8267716535433071
          },
          {
            "duration": 0.136363499999959,
            "durationTicks": 144,
            "midi": 84,
            "name": "C6",
            "ticks": 255360,
            "time": 241.81794000000002,
            "velocity": 0.8267716535433071
          },
          {
            "duration": 0.136363499999959,
            "durationTicks": 144,
            "midi": 81,
            "name": "A5",
            "ticks": 255600,
            "time": 242.04521250000002,
            "velocity": 0.8267716535433071
          },
          {
            "duration": 0.136363499999959,
            "durationTicks": 144,
            "midi": 78,
            "name": "F#5",
            "ticks": 255840,
            "time": 242.27248500000002,
            "velocity": 0.8267716535433071
          },
          {
            "duration": 0.136363499999959,
            "durationTicks": 144,
            "midi": 81,
            "name": "A5",
            "ticks": 256080,
            "time": 242.49975750000002,
            "velocity": 0.8267716535433071
          },
          {
            "duration": 0.3636359999999854,
            "durationTicks": 384,
            "midi": 74,
            "name": "D5",
            "ticks": 256320,
            "time": 242.72703,
            "velocity": 0.8267716535433071
          },
          {
            "duration": 0.1818179999999927,
            "durationTicks": 192,
            "midi": 62,
            "name": "D4",
            "ticks": 257280,
            "time": 243.63612,
            "velocity": 0.9133858267716536
          },
          {
            "duration": 0.1818179999999927,
            "durationTicks": 192,
            "midi": 71,
            "name": "B4",
            "ticks": 257280,
            "time": 243.63612,
            "velocity": 0.9133858267716536
          },
          {
            "duration": 0.13636349999998743,
            "durationTicks": 144,
            "midi": 79,
            "name": "G5",
            "ticks": 257280,
            "time": 243.63612,
            "velocity": 0.9133858267716536
          },
          {
            "duration": 0.545454000000035,
            "durationTicks": 576,
            "midi": 79,
            "name": "G5",
            "ticks": 257760,
            "time": 244.090665,
            "velocity": 0.9133858267716536
          },
          {
            "duration": 0.2272725000000264,
            "durationTicks": 240,
            "midi": 83,
            "name": "B5",
            "ticks": 258480,
            "time": 244.7724825,
            "velocity": 0.9133858267716536
          },
          {
            "duration": 0.18181799999996429,
            "durationTicks": 192,
            "midi": 81,
            "name": "A5",
            "ticks": 258720,
            "time": 244.99975500000002,
            "velocity": 0.9133858267716536
          },
          {
            "duration": 0.136363499999959,
            "durationTicks": 144,
            "midi": 79,
            "name": "G5",
            "ticks": 258960,
            "time": 245.22702750000002,
            "velocity": 0.9133858267716536
          },
          {
            "duration": 0.05681812499997818,
            "durationTicks": 60,
            "midi": 81,
            "name": "A5",
            "ticks": 259200,
            "time": 245.45430000000002,
            "velocity": 0.9133858267716536
          },
          {
            "duration": 0.0568181250000066,
            "durationTicks": 60,
            "midi": 79,
            "name": "G5",
            "ticks": 259260,
            "time": 245.511118125,
            "velocity": 0.9133858267716536
          },
          {
            "duration": 0.0568181250000066,
            "durationTicks": 60,
            "midi": 81,
            "name": "A5",
            "ticks": 259320,
            "time": 245.56793625,
            "velocity": 0.9133858267716536
          },
          {
            "duration": 0.0568181250000066,
            "durationTicks": 60,
            "midi": 79,
            "name": "G5",
            "ticks": 259380,
            "time": 245.624754375,
            "velocity": 0.9133858267716536
          },
          {
            "duration": 0.1818179999999927,
            "durationTicks": 192,
            "midi": 78,
            "name": "F#5",
            "ticks": 259440,
            "time": 245.68157250000002,
            "velocity": 0.9133858267716536
          },
          {
            "duration": 0.5454540000000065,
            "durationTicks": 576,
            "midi": 78,
            "name": "F#5",
            "ticks": 259680,
            "time": 245.908845,
            "velocity": 0.9133858267716536
          },
          {
            "duration": 0.227272499999998,
            "durationTicks": 240,
            "midi": 81,
            "name": "A5",
            "ticks": 260400,
            "time": 246.5906625,
            "velocity": 0.9133858267716536
          },
          {
            "duration": 0.13636349999998743,
            "durationTicks": 144,
            "midi": 84,
            "name": "C6",
            "ticks": 260640,
            "time": 246.817935,
            "velocity": 0.9133858267716536
          },
          {
            "duration": 0.13636349999998743,
            "durationTicks": 144,
            "midi": 78,
            "name": "F#5",
            "ticks": 260880,
            "time": 247.0452075,
            "velocity": 0.9133858267716536
          },
          {
            "duration": 0.227272499999998,
            "durationTicks": 240,
            "midi": 81,
            "name": "A5",
            "ticks": 261120,
            "time": 247.27248,
            "velocity": 0.9133858267716536
          },
          {
            "duration": 0.1818179999999927,
            "durationTicks": 192,
            "midi": 79,
            "name": "G5",
            "ticks": 261360,
            "time": 247.4997525,
            "velocity": 0.9133858267716536
          },
          {
            "duration": 0.545454000000035,
            "durationTicks": 576,
            "midi": 79,
            "name": "G5",
            "ticks": 261600,
            "time": 247.727025,
            "velocity": 0.9133858267716536
          },
          {
            "duration": 0.227272499999998,
            "durationTicks": 240,
            "midi": 83,
            "name": "B5",
            "ticks": 262320,
            "time": 248.40884250000002,
            "velocity": 0.9133858267716536
          },
          {
            "duration": 0.1818179999999927,
            "durationTicks": 192,
            "midi": 81,
            "name": "A5",
            "ticks": 262560,
            "time": 248.63611500000002,
            "velocity": 0.9133858267716536
          },
          {
            "duration": 0.136363499999959,
            "durationTicks": 144,
            "midi": 79,
            "name": "G5",
            "ticks": 262800,
            "time": 248.86338750000002,
            "velocity": 0.9133858267716536
          },
          {
            "duration": 0.0568181250000066,
            "durationTicks": 60,
            "midi": 81,
            "name": "A5",
            "ticks": 263040,
            "time": 249.09066,
            "velocity": 0.9133858267716536
          },
          {
            "duration": 0.05681812499997818,
            "durationTicks": 60,
            "midi": 79,
            "name": "G5",
            "ticks": 263100,
            "time": 249.14747812500002,
            "velocity": 0.9133858267716536
          },
          {
            "duration": 0.0568181250000066,
            "durationTicks": 60,
            "midi": 81,
            "name": "A5",
            "ticks": 263160,
            "time": 249.20429625,
            "velocity": 0.9133858267716536
          },
          {
            "duration": 0.0568181250000066,
            "durationTicks": 60,
            "midi": 79,
            "name": "G5",
            "ticks": 263220,
            "time": 249.261114375,
            "velocity": 0.9133858267716536
          },
          {
            "duration": 0.1818179999999927,
            "durationTicks": 192,
            "midi": 78,
            "name": "F#5",
            "ticks": 263280,
            "time": 249.3179325,
            "velocity": 0.9133858267716536
          },
          {
            "duration": 0.5454540000000065,
            "durationTicks": 576,
            "midi": 78,
            "name": "F#5",
            "ticks": 263520,
            "time": 249.545205,
            "velocity": 0.9133858267716536
          },
          {
            "duration": 0.227272499999998,
            "durationTicks": 240,
            "midi": 81,
            "name": "A5",
            "ticks": 264240,
            "time": 250.2270225,
            "velocity": 0.9133858267716536
          },
          {
            "duration": 0.13636349999998743,
            "durationTicks": 144,
            "midi": 84,
            "name": "C6",
            "ticks": 264480,
            "time": 250.454295,
            "velocity": 0.9133858267716536
          },
          {
            "duration": 0.13636349999998743,
            "durationTicks": 144,
            "midi": 78,
            "name": "F#5",
            "ticks": 264720,
            "time": 250.6815675,
            "velocity": 0.9133858267716536
          },
          {
            "duration": 0.13636349999998743,
            "durationTicks": 144,
            "midi": 79,
            "name": "G5",
            "ticks": 264960,
            "time": 250.90884,
            "velocity": 0.9133858267716536
          },
          {
            "duration": 0.13636349999998743,
            "durationTicks": 144,
            "midi": 79,
            "name": "G5",
            "ticks": 265200,
            "time": 251.1361125,
            "velocity": 0.9133858267716536
          },
          {
            "duration": 0.11363624999998478,
            "durationTicks": 120,
            "midi": 79,
            "name": "G5",
            "ticks": 265440,
            "time": 251.36338500000002,
            "velocity": 0.9133858267716536
          },
          {
            "duration": 0.1136362500000132,
            "durationTicks": 120,
            "midi": 78,
            "name": "F#5",
            "ticks": 265560,
            "time": 251.47702125,
            "velocity": 0.9133858267716536
          },
          {
            "duration": 0.11363624999998478,
            "durationTicks": 120,
            "midi": 76,
            "name": "E5",
            "ticks": 265680,
            "time": 251.59065750000002,
            "velocity": 0.9133858267716536
          },
          {
            "duration": 0.09090900000003899,
            "durationTicks": 96,
            "midi": 78,
            "name": "F#5",
            "ticks": 265800,
            "time": 251.70429375,
            "velocity": 0.9133858267716536
          },
          {
            "duration": 0.136363499999959,
            "durationTicks": 144,
            "midi": 79,
            "name": "G5",
            "ticks": 265920,
            "time": 251.81793000000002,
            "velocity": 0.9133858267716536
          },
          {
            "duration": 0.136363499999959,
            "durationTicks": 144,
            "midi": 79,
            "name": "G5",
            "ticks": 266160,
            "time": 252.04520250000002,
            "velocity": 0.9133858267716536
          },
          {
            "duration": 0.11363624999998478,
            "durationTicks": 120,
            "midi": 83,
            "name": "B5",
            "ticks": 266400,
            "time": 252.27247500000001,
            "velocity": 0.9133858267716536
          },
          {
            "duration": 0.1136362500000132,
            "durationTicks": 120,
            "midi": 81,
            "name": "A5",
            "ticks": 266520,
            "time": 252.38611125,
            "velocity": 0.9133858267716536
          },
          {
            "duration": 0.11363624999998478,
            "durationTicks": 120,
            "midi": 79,
            "name": "G5",
            "ticks": 266640,
            "time": 252.4997475,
            "velocity": 0.9133858267716536
          },
          {
            "duration": 0.09090900000003899,
            "durationTicks": 96,
            "midi": 81,
            "name": "A5",
            "ticks": 266760,
            "time": 252.61338375,
            "velocity": 0.9133858267716536
          },
          {
            "duration": 0.13636349999998743,
            "durationTicks": 144,
            "midi": 83,
            "name": "B5",
            "ticks": 266880,
            "time": 252.72702,
            "velocity": 0.9133858267716536
          },
          {
            "duration": 0.13636349999998743,
            "durationTicks": 144,
            "midi": 83,
            "name": "B5",
            "ticks": 267120,
            "time": 252.9542925,
            "velocity": 0.9133858267716536
          },
          {
            "duration": 0.1136362500000132,
            "durationTicks": 120,
            "midi": 86,
            "name": "D6",
            "ticks": 267360,
            "time": 253.181565,
            "velocity": 0.9133858267716536
          },
          {
            "duration": 0.11363624999998478,
            "durationTicks": 120,
            "midi": 84,
            "name": "C6",
            "ticks": 267480,
            "time": 253.29520125000002,
            "velocity": 0.9133858267716536
          },
          {
            "duration": 0.1136362500000132,
            "durationTicks": 120,
            "midi": 83,
            "name": "B5",
            "ticks": 267600,
            "time": 253.4088375,
            "velocity": 0.9133858267716536
          },
          {
            "duration": 0.09090900000001056,
            "durationTicks": 96,
            "midi": 84,
            "name": "C6",
            "ticks": 267720,
            "time": 253.52247375000002,
            "velocity": 0.9133858267716536
          },
          {
            "duration": 0.3636359999999854,
            "durationTicks": 384,
            "midi": 86,
            "name": "D6",
            "ticks": 267840,
            "time": 253.63611,
            "velocity": 0.8267716535433071
          },
          {
            "duration": 0.909089999999992,
            "durationTicks": 960,
            "midi": 74,
            "name": "D5",
            "ticks": 268800,
            "time": 254.54520000000002,
            "velocity": 0.5669291338582677
          },
          {
            "duration": 0.7272720000000277,
            "durationTicks": 768,
            "midi": 76,
            "name": "E5",
            "ticks": 269760,
            "time": 255.45429000000001,
            "velocity": 0.5669291338582677
          },
          {
            "duration": 0.1136362500000132,
            "durationTicks": 120,
            "midi": 74,
            "name": "D5",
            "ticks": 270720,
            "time": 256.36338,
            "velocity": 0.5669291338582677
          },
          {
            "duration": 0.20454525000002377,
            "durationTicks": 216,
            "midi": 72,
            "name": "C5",
            "ticks": 270840,
            "time": 256.47701625,
            "velocity": 0.5669291338582677
          },
          {
            "duration": 0.2727270000000317,
            "durationTicks": 288,
            "midi": 72,
            "name": "C5",
            "ticks": 271200,
            "time": 256.817925,
            "velocity": 0.5669291338582677
          },
          {
            "duration": 0.1136362500000132,
            "durationTicks": 120,
            "midi": 72,
            "name": "C5",
            "ticks": 271680,
            "time": 257.27247,
            "velocity": 0.5669291338582677
          },
          {
            "duration": 0.20454525000002377,
            "durationTicks": 216,
            "midi": 71,
            "name": "B4",
            "ticks": 271800,
            "time": 257.38610625,
            "velocity": 0.5669291338582677
          },
          {
            "duration": 0.2727270000000317,
            "durationTicks": 288,
            "midi": 71,
            "name": "B4",
            "ticks": 272160,
            "time": 257.727015,
            "velocity": 0.5669291338582677
          },
          {
            "duration": 0.1136362500000132,
            "durationTicks": 120,
            "midi": 71,
            "name": "B4",
            "ticks": 272640,
            "time": 258.18156,
            "velocity": 0.5669291338582677
          },
          {
            "duration": 0.20454525000002377,
            "durationTicks": 216,
            "midi": 69,
            "name": "A4",
            "ticks": 272760,
            "time": 258.29519625,
            "velocity": 0.5669291338582677
          },
          {
            "duration": 0.2727270000000317,
            "durationTicks": 288,
            "midi": 69,
            "name": "A4",
            "ticks": 273120,
            "time": 258.636105,
            "velocity": 0.5669291338582677
          },
          {
            "duration": 0.2272725000000264,
            "durationTicks": 240,
            "midi": 67,
            "name": "G4",
            "ticks": 273600,
            "time": 259.09065,
            "velocity": 0.5669291338582677
          },
          {
            "duration": 0.136363499999959,
            "durationTicks": 144,
            "midi": 66,
            "name": "F#4",
            "ticks": 273840,
            "time": 259.3179225,
            "velocity": 0.5669291338582677
          },
          {
            "duration": 0.136363499999959,
            "durationTicks": 144,
            "midi": 64,
            "name": "E4",
            "ticks": 274080,
            "time": 259.54519500000004,
            "velocity": 0.5669291338582677
          },
          {
            "duration": 0.136363499999959,
            "durationTicks": 144,
            "midi": 66,
            "name": "F#4",
            "ticks": 274320,
            "time": 259.7724675,
            "velocity": 0.5669291338582677
          },
          {
            "duration": 0.14772712500001717,
            "durationTicks": 156,
            "midi": 67,
            "name": "G4",
            "ticks": 274560,
            "time": 259.99974000000003,
            "velocity": 0.5669291338582677
          },
          {
            "duration": 0.14772712500001717,
            "durationTicks": 156,
            "midi": 69,
            "name": "A4",
            "ticks": 275040,
            "time": 260.454285,
            "velocity": 0.5669291338582677
          },
          {
            "duration": 0.14772712500001717,
            "durationTicks": 156,
            "midi": 71,
            "name": "B4",
            "ticks": 275520,
            "time": 260.90883,
            "velocity": 0.5669291338582677
          },
          {
            "duration": 0.909089999999992,
            "durationTicks": 960,
            "midi": 74,
            "name": "D5",
            "ticks": 276480,
            "time": 261.81792,
            "velocity": 0.4566929133858268
          },
          {
            "duration": 0.7272720000000277,
            "durationTicks": 768,
            "midi": 76,
            "name": "E5",
            "ticks": 277440,
            "time": 262.72701,
            "velocity": 0.5669291338582677
          },
          {
            "duration": 0.2272725000000264,
            "durationTicks": 240,
            "midi": 74,
            "name": "D5",
            "ticks": 278400,
            "time": 263.6361,
            "velocity": 0.5669291338582677
          },
          {
            "duration": 0.14772712500001717,
            "durationTicks": 156,
            "midi": 72,
            "name": "C5",
            "ticks": 278640,
            "time": 263.8633725,
            "velocity": 0.5669291338582677
          },
          {
            "duration": 0.14772712500001717,
            "durationTicks": 156,
            "midi": 72,
            "name": "C5",
            "ticks": 278880,
            "time": 264.090645,
            "velocity": 0.5669291338582677
          },
          {
            "duration": 0.14772712500001717,
            "durationTicks": 156,
            "midi": 72,
            "name": "C5",
            "ticks": 279120,
            "time": 264.3179175,
            "velocity": 0.5669291338582677
          },
          {
            "duration": 0.2272725000000264,
            "durationTicks": 240,
            "midi": 72,
            "name": "C5",
            "ticks": 279360,
            "time": 264.54519,
            "velocity": 0.5669291338582677
          },
          {
            "duration": 0.14772712500001717,
            "durationTicks": 156,
            "midi": 71,
            "name": "B4",
            "ticks": 279600,
            "time": 264.7724625,
            "velocity": 0.5669291338582677
          },
          {
            "duration": 0.14772712500001717,
            "durationTicks": 156,
            "midi": 71,
            "name": "B4",
            "ticks": 279840,
            "time": 264.999735,
            "velocity": 0.5669291338582677
          },
          {
            "duration": 0.14772712500001717,
            "durationTicks": 156,
            "midi": 71,
            "name": "B4",
            "ticks": 280080,
            "time": 265.2270075,
            "velocity": 0.5669291338582677
          },
          {
            "duration": 0.2272725000000264,
            "durationTicks": 240,
            "midi": 71,
            "name": "B4",
            "ticks": 280320,
            "time": 265.45428,
            "velocity": 0.5669291338582677
          },
          {
            "duration": 0.14772712500001717,
            "durationTicks": 156,
            "midi": 69,
            "name": "A4",
            "ticks": 280560,
            "time": 265.6815525,
            "velocity": 0.5669291338582677
          },
          {
            "duration": 0.14772712500001717,
            "durationTicks": 156,
            "midi": 69,
            "name": "A4",
            "ticks": 280800,
            "time": 265.90882500000004,
            "velocity": 0.5669291338582677
          },
          {
            "duration": 0.14772712500001717,
            "durationTicks": 156,
            "midi": 69,
            "name": "A4",
            "ticks": 281040,
            "time": 266.1360975,
            "velocity": 0.5669291338582677
          },
          {
            "duration": 0.22727249999996957,
            "durationTicks": 240,
            "midi": 67,
            "name": "G4",
            "ticks": 281280,
            "time": 266.36337000000003,
            "velocity": 0.5669291338582677
          },
          {
            "duration": 0.2272725000000264,
            "durationTicks": 240,
            "midi": 66,
            "name": "F#4",
            "ticks": 281520,
            "time": 266.5906425,
            "velocity": 0.5669291338582677
          },
          {
            "duration": 0.22727249999996957,
            "durationTicks": 240,
            "midi": 64,
            "name": "E4",
            "ticks": 281760,
            "time": 266.817915,
            "velocity": 0.5669291338582677
          },
          {
            "duration": 0.14772712500001717,
            "durationTicks": 156,
            "midi": 66,
            "name": "F#4",
            "ticks": 282000,
            "time": 267.0451875,
            "velocity": 0.5669291338582677
          },
          {
            "duration": 1.0909079999999562,
            "durationTicks": 1152,
            "midi": 55,
            "name": "G3",
            "ticks": 282240,
            "time": 267.27246,
            "velocity": 0.5669291338582677
          },
          {
            "duration": 1.0909079999999562,
            "durationTicks": 1152,
            "midi": 67,
            "name": "G4",
            "ticks": 282240,
            "time": 267.27246,
            "velocity": 0.8818897637795275
          },
          {
            "duration": 0.0568181250000066,
            "durationTicks": 60,
            "midi": 69,
            "name": "A4",
            "ticks": 283440,
            "time": 268.4088225,
            "velocity": 0.5669291338582677
          },
          {
            "duration": 0.0568181250000066,
            "durationTicks": 60,
            "midi": 67,
            "name": "G4",
            "ticks": 283500,
            "time": 268.465640625,
            "velocity": 0.5669291338582677
          },
          {
            "duration": 0.0568181250000066,
            "durationTicks": 60,
            "midi": 66,
            "name": "F#4",
            "ticks": 283560,
            "time": 268.52245875,
            "velocity": 0.5669291338582677
          },
          {
            "duration": 0.0568181250000066,
            "durationTicks": 60,
            "midi": 67,
            "name": "G4",
            "ticks": 283620,
            "time": 268.579276875,
            "velocity": 0.5669291338582677
          },
          {
            "duration": 0.2272725000000264,
            "durationTicks": 240,
            "midi": 69,
            "name": "A4",
            "ticks": 283680,
            "time": 268.636095,
            "velocity": 0.5669291338582677
          },
          {
            "duration": 0.18181799999996429,
            "durationTicks": 192,
            "midi": 66,
            "name": "F#4",
            "ticks": 283920,
            "time": 268.86336750000004,
            "velocity": 0.5669291338582677
          },
          {
            "duration": 1.090908000000013,
            "durationTicks": 1152,
            "midi": 71,
            "name": "B4",
            "ticks": 284160,
            "time": 269.09064,
            "velocity": 0.8818897637795275
          },
          {
            "duration": 0.0568181250000066,
            "durationTicks": 60,
            "midi": 72,
            "name": "C5",
            "ticks": 285360,
            "time": 270.2270025,
            "velocity": 0.5669291338582677
          },
          {
            "duration": 0.0568181250000066,
            "durationTicks": 60,
            "midi": 71,
            "name": "B4",
            "ticks": 285420,
            "time": 270.28382062500003,
            "velocity": 0.5669291338582677
          },
          {
            "duration": 0.05681812499994976,
            "durationTicks": 60,
            "midi": 69,
            "name": "A4",
            "ticks": 285480,
            "time": 270.34063875000004,
            "velocity": 0.5669291338582677
          },
          {
            "duration": 0.0568181250000066,
            "durationTicks": 60,
            "midi": 71,
            "name": "B4",
            "ticks": 285540,
            "time": 270.397456875,
            "velocity": 0.5669291338582677
          },
          {
            "duration": 0.2272725000000264,
            "durationTicks": 240,
            "midi": 72,
            "name": "C5",
            "ticks": 285600,
            "time": 270.454275,
            "velocity": 0.5669291338582677
          },
          {
            "duration": 0.18181799999996429,
            "durationTicks": 192,
            "midi": 69,
            "name": "A4",
            "ticks": 285840,
            "time": 270.6815475,
            "velocity": 0.5669291338582677
          },
          {
            "duration": 0.09090900000006741,
            "durationTicks": 96,
            "midi": 74,
            "name": "D5",
            "ticks": 286080,
            "time": 270.90882,
            "velocity": 0.5669291338582677
          },
          {
            "duration": 0.09090900000001056,
            "durationTicks": 96,
            "midi": 74,
            "name": "D5",
            "ticks": 286200,
            "time": 271.02245625,
            "velocity": 0.5669291338582677
          },
          {
            "duration": 0.09090900000001056,
            "durationTicks": 96,
            "midi": 74,
            "name": "D5",
            "ticks": 286320,
            "time": 271.1360925,
            "velocity": 0.5669291338582677
          },
          {
            "duration": 0.09090900000001056,
            "durationTicks": 96,
            "midi": 74,
            "name": "D5",
            "ticks": 286440,
            "time": 271.24972875000003,
            "velocity": 0.5669291338582677
          },
          {
            "duration": 0.09090900000006741,
            "durationTicks": 96,
            "midi": 74,
            "name": "D5",
            "ticks": 286560,
            "time": 271.363365,
            "velocity": 0.5669291338582677
          },
          {
            "duration": 0.09090900000001056,
            "durationTicks": 96,
            "midi": 74,
            "name": "D5",
            "ticks": 286680,
            "time": 271.47700125,
            "velocity": 0.5669291338582677
          },
          {
            "duration": 0.09090900000001056,
            "durationTicks": 96,
            "midi": 74,
            "name": "D5",
            "ticks": 286800,
            "time": 271.5906375,
            "velocity": 0.5669291338582677
          },
          {
            "duration": 0.09090900000001056,
            "durationTicks": 96,
            "midi": 74,
            "name": "D5",
            "ticks": 286920,
            "time": 271.70427375,
            "velocity": 0.5669291338582677
          },
          {
            "duration": 0.09090900000006741,
            "durationTicks": 96,
            "midi": 76,
            "name": "E5",
            "ticks": 287040,
            "time": 271.81791,
            "velocity": 0.6377952755905512
          },
          {
            "duration": 0.09090900000001056,
            "durationTicks": 96,
            "midi": 76,
            "name": "E5",
            "ticks": 287160,
            "time": 271.93154625,
            "velocity": 0.6377952755905512
          },
          {
            "duration": 0.09090900000001056,
            "durationTicks": 96,
            "midi": 76,
            "name": "E5",
            "ticks": 287280,
            "time": 272.0451825,
            "velocity": 0.6377952755905512
          },
          {
            "duration": 0.09090900000001056,
            "durationTicks": 96,
            "midi": 76,
            "name": "E5",
            "ticks": 287400,
            "time": 272.15881875,
            "velocity": 0.6377952755905512
          },
          {
            "duration": 0.09090900000001056,
            "durationTicks": 96,
            "midi": 78,
            "name": "F#5",
            "ticks": 287520,
            "time": 272.27245500000004,
            "velocity": 0.6377952755905512
          },
          {
            "duration": 0.09090900000006741,
            "durationTicks": 96,
            "midi": 78,
            "name": "F#5",
            "ticks": 287640,
            "time": 272.38609125,
            "velocity": 0.6377952755905512
          },
          {
            "duration": 0.09090900000001056,
            "durationTicks": 96,
            "midi": 78,
            "name": "F#5",
            "ticks": 287760,
            "time": 272.4997275,
            "velocity": 0.6377952755905512
          },
          {
            "duration": 0.09090900000001056,
            "durationTicks": 96,
            "midi": 78,
            "name": "F#5",
            "ticks": 287880,
            "time": 272.61336375,
            "velocity": 0.6377952755905512
          },
          {
            "duration": 0.09090900000001056,
            "durationTicks": 96,
            "midi": 79,
            "name": "G5",
            "ticks": 288000,
            "time": 272.72700000000003,
            "velocity": 0.7244094488188977
          },
          {
            "duration": 0.09090900000006741,
            "durationTicks": 96,
            "midi": 79,
            "name": "G5",
            "ticks": 288120,
            "time": 272.84063625,
            "velocity": 0.7244094488188977
          },
          {
            "duration": 0.09090900000001056,
            "durationTicks": 96,
            "midi": 79,
            "name": "G5",
            "ticks": 288240,
            "time": 272.9542725,
            "velocity": 0.7244094488188977
          },
          {
            "duration": 0.09090900000001056,
            "durationTicks": 96,
            "midi": 79,
            "name": "G5",
            "ticks": 288360,
            "time": 273.06790875,
            "velocity": 0.7244094488188977
          },
          {
            "duration": 0.09090900000001056,
            "durationTicks": 96,
            "midi": 81,
            "name": "A5",
            "ticks": 288480,
            "time": 273.181545,
            "velocity": 0.7244094488188977
          },
          {
            "duration": 0.09090900000006741,
            "durationTicks": 96,
            "midi": 81,
            "name": "A5",
            "ticks": 288600,
            "time": 273.29518125,
            "velocity": 0.7244094488188977
          },
          {
            "duration": 0.09090900000001056,
            "durationTicks": 96,
            "midi": 81,
            "name": "A5",
            "ticks": 288720,
            "time": 273.4088175,
            "velocity": 0.7244094488188977
          },
          {
            "duration": 0.09090900000001056,
            "durationTicks": 96,
            "midi": 81,
            "name": "A5",
            "ticks": 288840,
            "time": 273.52245375,
            "velocity": 0.7244094488188977
          },
          {
            "duration": 0.09090900000001056,
            "durationTicks": 96,
            "midi": 83,
            "name": "B5",
            "ticks": 288960,
            "time": 273.63609,
            "velocity": 0.8267716535433071
          },
          {
            "duration": 0.09090900000001056,
            "durationTicks": 96,
            "midi": 83,
            "name": "B5",
            "ticks": 289080,
            "time": 273.74972625000004,
            "velocity": 0.8267716535433071
          },
          {
            "duration": 0.09090900000001056,
            "durationTicks": 96,
            "midi": 83,
            "name": "B5",
            "ticks": 289200,
            "time": 273.8633625,
            "velocity": 0.8267716535433071
          },
          {
            "duration": 0.09090900000001056,
            "durationTicks": 96,
            "midi": 83,
            "name": "B5",
            "ticks": 289320,
            "time": 273.97699875,
            "velocity": 0.8267716535433071
          },
          {
            "duration": 0.09090900000001056,
            "durationTicks": 96,
            "midi": 85,
            "name": "C#6",
            "ticks": 289440,
            "time": 274.090635,
            "velocity": 0.8267716535433071
          },
          {
            "duration": 0.09090900000001056,
            "durationTicks": 96,
            "midi": 85,
            "name": "C#6",
            "ticks": 289560,
            "time": 274.20427125000003,
            "velocity": 0.9133858267716536
          },
          {
            "duration": 0.09090900000006741,
            "durationTicks": 96,
            "midi": 85,
            "name": "C#6",
            "ticks": 289680,
            "time": 274.3179075,
            "velocity": 0.9133858267716536
          },
          {
            "duration": 0.09090900000001056,
            "durationTicks": 96,
            "midi": 85,
            "name": "C#6",
            "ticks": 289800,
            "time": 274.43154375,
            "velocity": 0.9133858267716536
          },
          {
            "duration": 0.6818175000000224,
            "durationTicks": 720,
            "midi": 86,
            "name": "D6",
            "ticks": 289920,
            "time": 274.54518,
            "velocity": 1
          },
          {
            "duration": 0.18181799999996429,
            "durationTicks": 192,
            "midi": 81,
            "name": "A5",
            "ticks": 290640,
            "time": 275.22699750000004,
            "velocity": 0.9133858267716536
          },
          {
            "duration": 0.3409087499999828,
            "durationTicks": 360,
            "midi": 85,
            "name": "C#6",
            "ticks": 290880,
            "time": 275.45427,
            "velocity": 0.9133858267716536
          },
          {
            "duration": 0.09090900000006741,
            "durationTicks": 96,
            "midi": 81,
            "name": "A5",
            "ticks": 291240,
            "time": 275.79517875,
            "velocity": 0.9133858267716536
          },
          {
            "duration": 0.3409087499999828,
            "durationTicks": 360,
            "midi": 85,
            "name": "C#6",
            "ticks": 291360,
            "time": 275.908815,
            "velocity": 0.9133858267716536
          },
          {
            "duration": 0.09090900000006741,
            "durationTicks": 96,
            "midi": 81,
            "name": "A5",
            "ticks": 291720,
            "time": 276.24972375,
            "velocity": 0.9133858267716536
          },
          {
            "duration": 0.6818175000000224,
            "durationTicks": 720,
            "midi": 86,
            "name": "D6",
            "ticks": 291840,
            "time": 276.36336,
            "velocity": 1
          },
          {
            "duration": 0.18181799999996429,
            "durationTicks": 192,
            "midi": 81,
            "name": "A5",
            "ticks": 292560,
            "time": 277.0451775,
            "velocity": 0.9133858267716536
          },
          {
            "duration": 0.3409087500000396,
            "durationTicks": 360,
            "midi": 85,
            "name": "C#6",
            "ticks": 292800,
            "time": 277.27245,
            "velocity": 0.9133858267716536
          },
          {
            "duration": 0.09090900000001056,
            "durationTicks": 96,
            "midi": 81,
            "name": "A5",
            "ticks": 293160,
            "time": 277.61335875000003,
            "velocity": 0.9133858267716536
          },
          {
            "duration": 0.3409087500000396,
            "durationTicks": 360,
            "midi": 85,
            "name": "C#6",
            "ticks": 293280,
            "time": 277.726995,
            "velocity": 0.9133858267716536
          },
          {
            "duration": 0.09090900000001056,
            "durationTicks": 96,
            "midi": 81,
            "name": "A5",
            "ticks": 293640,
            "time": 278.06790375,
            "velocity": 0.9133858267716536
          },
          {
            "duration": 0.147727125000074,
            "durationTicks": 156,
            "midi": 86,
            "name": "D6",
            "ticks": 293760,
            "time": 278.18154,
            "velocity": 0.9133858267716536
          },
          {
            "duration": 0.14772712500001717,
            "durationTicks": 156,
            "midi": 81,
            "name": "A5",
            "ticks": 294000,
            "time": 278.4088125,
            "velocity": 0.9133858267716536
          },
          {
            "duration": 0.14772712500001717,
            "durationTicks": 156,
            "midi": 85,
            "name": "C#6",
            "ticks": 294240,
            "time": 278.63608500000004,
            "velocity": 0.9133858267716536
          },
          {
            "duration": 0.14772712500001717,
            "durationTicks": 156,
            "midi": 81,
            "name": "A5",
            "ticks": 294480,
            "time": 278.8633575,
            "velocity": 0.9133858267716536
          },
          {
            "duration": 0.14772712500001717,
            "durationTicks": 156,
            "midi": 86,
            "name": "D6",
            "ticks": 294720,
            "time": 279.09063000000003,
            "velocity": 0.9133858267716536
          },
          {
            "duration": 0.14772712500001717,
            "durationTicks": 156,
            "midi": 81,
            "name": "A5",
            "ticks": 294960,
            "time": 279.3179025,
            "velocity": 0.9133858267716536
          },
          {
            "duration": 0.14772712500001717,
            "durationTicks": 156,
            "midi": 85,
            "name": "C#6",
            "ticks": 295200,
            "time": 279.54517500000003,
            "velocity": 0.9133858267716536
          },
          {
            "duration": 0.14772712500001717,
            "durationTicks": 156,
            "midi": 81,
            "name": "A5",
            "ticks": 295440,
            "time": 279.7724475,
            "velocity": 0.9133858267716536
          },
          {
            "duration": 0.14772712500001717,
            "durationTicks": 156,
            "midi": 86,
            "name": "D6",
            "ticks": 295680,
            "time": 279.99972,
            "velocity": 0.9133858267716536
          },
          {
            "duration": 0.14772712500001717,
            "durationTicks": 156,
            "midi": 62,
            "name": "D4",
            "ticks": 295920,
            "time": 280.2269925,
            "velocity": 0.9133858267716536
          },
          {
            "duration": 0.14772712500001717,
            "durationTicks": 156,
            "midi": 62,
            "name": "D4",
            "ticks": 296160,
            "time": 280.454265,
            "velocity": 0.8267716535433071
          },
          {
            "duration": 0.14772712500001717,
            "durationTicks": 156,
            "midi": 62,
            "name": "D4",
            "ticks": 296400,
            "time": 280.6815375,
            "velocity": 0.8267716535433071
          },
          {
            "duration": 0.3636359999999854,
            "durationTicks": 384,
            "midi": 62,
            "name": "D4",
            "ticks": 296640,
            "time": 280.90881,
            "velocity": 0.7244094488188977
          },
          {
            "duration": 0.6818175000000224,
            "durationTicks": 720,
            "midi": 74,
            "name": "D5",
            "ticks": 297600,
            "time": 281.8179,
            "velocity": 0.5669291338582677
          },
          {
            "duration": 0.07575749999995196,
            "durationTicks": 80,
            "midi": 72,
            "name": "C5",
            "ticks": 298320,
            "time": 282.49971750000003,
            "velocity": 0.5669291338582677
          },
          {
            "duration": 0.07575749999995196,
            "durationTicks": 80,
            "midi": 71,
            "name": "B4",
            "ticks": 298380,
            "time": 282.55653562500004,
            "velocity": 0.5669291338582677
          },
          {
            "duration": 0.0757575000000088,
            "durationTicks": 80,
            "midi": 69,
            "name": "A4",
            "ticks": 298500,
            "time": 282.670171875,
            "velocity": 0.5669291338582677
          },
          {
            "duration": 0.18181800000002113,
            "durationTicks": 192,
            "midi": 67,
            "name": "G4",
            "ticks": 298560,
            "time": 282.72699,
            "velocity": 0.5669291338582677
          },
          {
            "duration": 0.18181800000002113,
            "durationTicks": 192,
            "midi": 76,
            "name": "E5",
            "ticks": 299040,
            "time": 283.181535,
            "velocity": 0.5669291338582677
          },
          {
            "duration": 0.18181800000002113,
            "durationTicks": 192,
            "midi": 72,
            "name": "C5",
            "ticks": 299520,
            "time": 283.63608,
            "velocity": 0.5669291338582677
          },
          {
            "duration": 0.18181800000002113,
            "durationTicks": 192,
            "midi": 69,
            "name": "A4",
            "ticks": 300000,
            "time": 284.090625,
            "velocity": 0.5669291338582677
          },
          {
            "duration": 0.18181800000002113,
            "durationTicks": 192,
            "midi": 74,
            "name": "D5",
            "ticks": 300480,
            "time": 284.54517,
            "velocity": 0.5669291338582677
          },
          {
            "duration": 0.6818174999999655,
            "durationTicks": 720,
            "midi": 83,
            "name": "B5",
            "ticks": 301440,
            "time": 285.45426000000003,
            "velocity": 0.5669291338582677
          },
          {
            "duration": 0.0757575000000088,
            "durationTicks": 80,
            "midi": 81,
            "name": "A5",
            "ticks": 302160,
            "time": 286.1360775,
            "velocity": 0.5669291338582677
          },
          {
            "duration": 0.0757575000000088,
            "durationTicks": 80,
            "midi": 79,
            "name": "G5",
            "ticks": 302220,
            "time": 286.192895625,
            "velocity": 0.5669291338582677
          },
          {
            "duration": 0.07575749999995196,
            "durationTicks": 80,
            "midi": 78,
            "name": "F#5",
            "ticks": 302340,
            "time": 286.306531875,
            "velocity": 0.5669291338582677
          },
          {
            "duration": 0.18181799999996429,
            "durationTicks": 192,
            "midi": 76,
            "name": "E5",
            "ticks": 302400,
            "time": 286.36335,
            "velocity": 0.5669291338582677
          },
          {
            "duration": 0.18181799999996429,
            "durationTicks": 192,
            "midi": 84,
            "name": "C6",
            "ticks": 302880,
            "time": 286.817895,
            "velocity": 0.5669291338582677
          },
          {
            "duration": 0.909089999999992,
            "durationTicks": 960,
            "midi": 83,
            "name": "B5",
            "ticks": 303360,
            "time": 287.27244,
            "velocity": 0.5669291338582677
          },
          {
            "duration": 0.3636359999999854,
            "durationTicks": 384,
            "midi": 81,
            "name": "A5",
            "ticks": 304320,
            "time": 288.18153,
            "velocity": 0.5669291338582677
          },
          {
            "duration": 0.136363499999959,
            "durationTicks": 144,
            "midi": 86,
            "name": "D6",
            "ticks": 305520,
            "time": 289.3178925,
            "velocity": 0.5669291338582677
          },
          {
            "duration": 0.13636350000001585,
            "durationTicks": 144,
            "midi": 86,
            "name": "D6",
            "ticks": 305760,
            "time": 289.545165,
            "velocity": 0.5669291338582677
          },
          {
            "duration": 0.136363499999959,
            "durationTicks": 144,
            "midi": 86,
            "name": "D6",
            "ticks": 306000,
            "time": 289.7724375,
            "velocity": 0.5669291338582677
          },
          {
            "duration": 0.13636350000001585,
            "durationTicks": 144,
            "midi": 86,
            "name": "D6",
            "ticks": 306240,
            "time": 289.99971,
            "velocity": 0.5669291338582677
          },
          {
            "duration": 0.136363499999959,
            "durationTicks": 144,
            "midi": 86,
            "name": "D6",
            "ticks": 306480,
            "time": 290.2269825,
            "velocity": 0.5669291338582677
          },
          {
            "duration": 0.13636350000001585,
            "durationTicks": 144,
            "midi": 86,
            "name": "D6",
            "ticks": 306720,
            "time": 290.454255,
            "velocity": 0.5669291338582677
          },
          {
            "duration": 0.136363499999959,
            "durationTicks": 144,
            "midi": 86,
            "name": "D6",
            "ticks": 306960,
            "time": 290.6815275,
            "velocity": 0.5669291338582677
          },
          {
            "duration": 0.13636350000001585,
            "durationTicks": 144,
            "midi": 86,
            "name": "D6",
            "ticks": 307200,
            "time": 290.9088,
            "velocity": 0.5669291338582677
          },
          {
            "duration": 0.136363499999959,
            "durationTicks": 144,
            "midi": 86,
            "name": "D6",
            "ticks": 307440,
            "time": 291.1360725,
            "velocity": 0.5669291338582677
          },
          {
            "duration": 0.136363499999959,
            "durationTicks": 144,
            "midi": 86,
            "name": "D6",
            "ticks": 307680,
            "time": 291.36334500000004,
            "velocity": 0.5669291338582677
          },
          {
            "duration": 0.136363499999959,
            "durationTicks": 144,
            "midi": 86,
            "name": "D6",
            "ticks": 307920,
            "time": 291.5906175,
            "velocity": 0.5669291338582677
          },
          {
            "duration": 0.22727249999996957,
            "durationTicks": 240,
            "midi": 86,
            "name": "D6",
            "ticks": 308160,
            "time": 291.81789000000003,
            "velocity": 0.5669291338582677
          },
          {
            "duration": 0.2272725000000264,
            "durationTicks": 240,
            "midi": 84,
            "name": "C6",
            "ticks": 308400,
            "time": 292.0451625,
            "velocity": 0.5669291338582677
          },
          {
            "duration": 0.22727249999996957,
            "durationTicks": 240,
            "midi": 81,
            "name": "A5",
            "ticks": 308640,
            "time": 292.27243500000003,
            "velocity": 0.5669291338582677
          },
          {
            "duration": 0.18181800000002113,
            "durationTicks": 192,
            "midi": 78,
            "name": "F#5",
            "ticks": 308880,
            "time": 292.4997075,
            "velocity": 0.5669291338582677
          },
          {
            "duration": 0.22727249999996957,
            "durationTicks": 240,
            "midi": 78,
            "name": "F#5",
            "ticks": 309120,
            "time": 292.72698,
            "velocity": 0.5669291338582677
          },
          {
            "duration": 0.18181800000002113,
            "durationTicks": 192,
            "midi": 79,
            "name": "G5",
            "ticks": 309360,
            "time": 292.9542525,
            "velocity": 0.5669291338582677
          },
          {
            "duration": 0.13636350000001585,
            "durationTicks": 144,
            "midi": 76,
            "name": "E5",
            "ticks": 309840,
            "time": 293.4087975,
            "velocity": 0.5669291338582677
          },
          {
            "duration": 0.22727249999996957,
            "durationTicks": 240,
            "midi": 76,
            "name": "E5",
            "ticks": 310080,
            "time": 293.63607,
            "velocity": 0.5669291338582677
          },
          {
            "duration": 0.18181800000002113,
            "durationTicks": 192,
            "midi": 74,
            "name": "D5",
            "ticks": 310320,
            "time": 293.8633425,
            "velocity": 0.5669291338582677
          },
          {
            "duration": 0.136363499999959,
            "durationTicks": 144,
            "midi": 66,
            "name": "F#4",
            "ticks": 310800,
            "time": 294.31788750000004,
            "velocity": 0.5669291338582677
          },
          {
            "duration": 0.3636359999999854,
            "durationTicks": 384,
            "midi": 67,
            "name": "G4",
            "ticks": 311040,
            "time": 294.54516,
            "velocity": 0.4566929133858268
          },
          {
            "duration": 0.136363499999959,
            "durationTicks": 144,
            "midi": 74,
            "name": "D5",
            "ticks": 311760,
            "time": 295.22697750000003,
            "velocity": 0.5669291338582677
          },
          {
            "duration": 0.2272725000000264,
            "durationTicks": 240,
            "midi": 79,
            "name": "G5",
            "ticks": 312000,
            "time": 295.45425,
            "velocity": 0.5669291338582677
          },
          {
            "duration": 0.22727249999996957,
            "durationTicks": 240,
            "midi": 78,
            "name": "F#5",
            "ticks": 312240,
            "time": 295.6815225,
            "velocity": 0.5669291338582677
          },
          {
            "duration": 0.2272725000000264,
            "durationTicks": 240,
            "midi": 76,
            "name": "E5",
            "ticks": 312480,
            "time": 295.908795,
            "velocity": 0.5669291338582677
          },
          {
            "duration": 0.18181799999996429,
            "durationTicks": 192,
            "midi": 74,
            "name": "D5",
            "ticks": 312720,
            "time": 296.1360675,
            "velocity": 0.5669291338582677
          },
          {
            "duration": 0.0568181250000066,
            "durationTicks": 60,
            "midi": 78,
            "name": "F#5",
            "ticks": 312960,
            "time": 296.36334,
            "velocity": 0.5669291338582677
          },
          {
            "duration": 0.0568181250000066,
            "durationTicks": 60,
            "midi": 76,
            "name": "E5",
            "ticks": 313020,
            "time": 296.420158125,
            "velocity": 0.5669291338582677
          },
          {
            "duration": 0.0568181250000066,
            "durationTicks": 60,
            "midi": 78,
            "name": "F#5",
            "ticks": 313080,
            "time": 296.47697625,
            "velocity": 0.5669291338582677
          },
          {
            "duration": 0.0568181250000066,
            "durationTicks": 60,
            "midi": 76,
            "name": "E5",
            "ticks": 313140,
            "time": 296.533794375,
            "velocity": 0.5669291338582677
          },
          {
            "duration": 0.18181799999996429,
            "durationTicks": 192,
            "midi": 74,
            "name": "D5",
            "ticks": 313200,
            "time": 296.5906125,
            "velocity": 0.5669291338582677
          },
          {
            "duration": 0.136363499999959,
            "durationTicks": 144,
            "midi": 74,
            "name": "D5",
            "ticks": 313680,
            "time": 297.0451575,
            "velocity": 0.5669291338582677
          },
          {
            "duration": 0.13636350000001585,
            "durationTicks": 144,
            "midi": 74,
            "name": "D5",
            "ticks": 313920,
            "time": 297.27243,
            "velocity": 0.5669291338582677
          },
          {
            "duration": 0.136363499999959,
            "durationTicks": 144,
            "midi": 74,
            "name": "D5",
            "ticks": 314160,
            "time": 297.4997025,
            "velocity": 0.5669291338582677
          },
          {
            "duration": 0.136363499999959,
            "durationTicks": 144,
            "midi": 74,
            "name": "D5",
            "ticks": 314400,
            "time": 297.72697500000004,
            "velocity": 0.5669291338582677
          },
          {
            "duration": 0.136363499999959,
            "durationTicks": 144,
            "midi": 74,
            "name": "D5",
            "ticks": 314640,
            "time": 297.9542475,
            "velocity": 0.5669291338582677
          },
          {
            "duration": 0.0568181250000066,
            "durationTicks": 60,
            "midi": 78,
            "name": "F#5",
            "ticks": 314880,
            "time": 298.18152000000003,
            "velocity": 0.5669291338582677
          },
          {
            "duration": 0.05681812499994976,
            "durationTicks": 60,
            "midi": 76,
            "name": "E5",
            "ticks": 314940,
            "time": 298.23833812500004,
            "velocity": 0.5669291338582677
          },
          {
            "duration": 0.0568181250000066,
            "durationTicks": 60,
            "midi": 78,
            "name": "F#5",
            "ticks": 315000,
            "time": 298.29515625,
            "velocity": 0.5669291338582677
          },
          {
            "duration": 0.0568181250000066,
            "durationTicks": 60,
            "midi": 76,
            "name": "E5",
            "ticks": 315060,
            "time": 298.351974375,
            "velocity": 0.5669291338582677
          },
          {
            "duration": 0.18181800000002113,
            "durationTicks": 192,
            "midi": 74,
            "name": "D5",
            "ticks": 315120,
            "time": 298.4087925,
            "velocity": 0.5669291338582677
          },
          {
            "duration": 0.13636350000001585,
            "durationTicks": 144,
            "midi": 74,
            "name": "D5",
            "ticks": 315600,
            "time": 298.8633375,
            "velocity": 0.5669291338582677
          },
          {
            "duration": 0.22727249999996957,
            "durationTicks": 240,
            "midi": 79,
            "name": "G5",
            "ticks": 315840,
            "time": 299.09061,
            "velocity": 0.5669291338582677
          },
          {
            "duration": 0.2272725000000264,
            "durationTicks": 240,
            "midi": 78,
            "name": "F#5",
            "ticks": 316080,
            "time": 299.3178825,
            "velocity": 0.5669291338582677
          },
          {
            "duration": 0.22727249999996957,
            "durationTicks": 240,
            "midi": 76,
            "name": "E5",
            "ticks": 316320,
            "time": 299.545155,
            "velocity": 0.5669291338582677
          },
          {
            "duration": 0.18181800000002113,
            "durationTicks": 192,
            "midi": 74,
            "name": "D5",
            "ticks": 316560,
            "time": 299.7724275,
            "velocity": 0.5669291338582677
          },
          {
            "duration": 0.0568181250000066,
            "durationTicks": 60,
            "midi": 78,
            "name": "F#5",
            "ticks": 316800,
            "time": 299.9997,
            "velocity": 0.5669291338582677
          },
          {
            "duration": 0.0568181250000066,
            "durationTicks": 60,
            "midi": 76,
            "name": "E5",
            "ticks": 316860,
            "time": 300.056518125,
            "velocity": 0.5669291338582677
          },
          {
            "duration": 0.0568181250000066,
            "durationTicks": 60,
            "midi": 78,
            "name": "F#5",
            "ticks": 316920,
            "time": 300.11333625000003,
            "velocity": 0.5669291338582677
          },
          {
            "duration": 0.05681812499994976,
            "durationTicks": 60,
            "midi": 76,
            "name": "E5",
            "ticks": 316980,
            "time": 300.17015437500004,
            "velocity": 0.5669291338582677
          },
          {
            "duration": 0.18181800000002113,
            "durationTicks": 192,
            "midi": 74,
            "name": "D5",
            "ticks": 317040,
            "time": 300.2269725,
            "velocity": 0.5669291338582677
          },
          {
            "duration": 0.136363499999959,
            "durationTicks": 144,
            "midi": 74,
            "name": "D5",
            "ticks": 317520,
            "time": 300.68151750000004,
            "velocity": 0.5669291338582677
          },
          {
            "duration": 0.136363499999959,
            "durationTicks": 144,
            "midi": 74,
            "name": "D5",
            "ticks": 317760,
            "time": 300.90879,
            "velocity": 0.5669291338582677
          },
          {
            "duration": 0.136363499999959,
            "durationTicks": 144,
            "midi": 74,
            "name": "D5",
            "ticks": 318000,
            "time": 301.13606250000004,
            "velocity": 0.5669291338582677
          },
          {
            "duration": 0.136363499999959,
            "durationTicks": 144,
            "midi": 74,
            "name": "D5",
            "ticks": 318240,
            "time": 301.363335,
            "velocity": 0.5669291338582677
          },
          {
            "duration": 0.136363499999959,
            "durationTicks": 144,
            "midi": 74,
            "name": "D5",
            "ticks": 318480,
            "time": 301.59060750000003,
            "velocity": 0.5669291338582677
          },
          {
            "duration": 0.0568181250000066,
            "durationTicks": 60,
            "midi": 78,
            "name": "F#5",
            "ticks": 318720,
            "time": 301.81788,
            "velocity": 0.5669291338582677
          },
          {
            "duration": 0.0568181250000066,
            "durationTicks": 60,
            "midi": 76,
            "name": "E5",
            "ticks": 318780,
            "time": 301.874698125,
            "velocity": 0.5669291338582677
          },
          {
            "duration": 0.0568181250000066,
            "durationTicks": 60,
            "midi": 78,
            "name": "F#5",
            "ticks": 318840,
            "time": 301.93151625,
            "velocity": 0.5669291338582677
          },
          {
            "duration": 0.0568181250000066,
            "durationTicks": 60,
            "midi": 76,
            "name": "E5",
            "ticks": 318900,
            "time": 301.988334375,
            "velocity": 0.4566929133858268
          },
          {
            "duration": 0.18181799999996429,
            "durationTicks": 192,
            "midi": 74,
            "name": "D5",
            "ticks": 318960,
            "time": 302.04515250000003,
            "velocity": 0.4566929133858268
          },
          {
            "duration": 0.6818175000000224,
            "durationTicks": 720,
            "midi": 64,
            "name": "E4",
            "ticks": 319680,
            "time": 302.72697,
            "velocity": 0.9133858267716536
          },
          {
            "duration": 0.6818175000000224,
            "durationTicks": 720,
            "midi": 76,
            "name": "E5",
            "ticks": 319680,
            "time": 302.72697,
            "velocity": 0.9133858267716536
          },
          {
            "duration": 0.07575749999995196,
            "durationTicks": 80,
            "midi": 74,
            "name": "D5",
            "ticks": 320400,
            "time": 303.4087875,
            "velocity": 0.9133858267716536
          },
          {
            "duration": 0.07575749999995196,
            "durationTicks": 80,
            "midi": 72,
            "name": "C5",
            "ticks": 320460,
            "time": 303.465605625,
            "velocity": 0.9133858267716536
          },
          {
            "duration": 0.07575749999995196,
            "durationTicks": 80,
            "midi": 71,
            "name": "B4",
            "ticks": 320580,
            "time": 303.57924187500004,
            "velocity": 0.9133858267716536
          },
          {
            "duration": 0.3636359999999854,
            "durationTicks": 384,
            "midi": 72,
            "name": "C5",
            "ticks": 320640,
            "time": 303.63606,
            "velocity": 0.9133858267716536
          },
          {
            "duration": 0.6818174999999655,
            "durationTicks": 720,
            "midi": 62,
            "name": "D4",
            "ticks": 321600,
            "time": 304.54515000000004,
            "velocity": 0.9133858267716536
          },
          {
            "duration": 0.6818174999999655,
            "durationTicks": 720,
            "midi": 74,
            "name": "D5",
            "ticks": 321600,
            "time": 304.54515000000004,
            "velocity": 0.9133858267716536
          },
          {
            "duration": 0.0757575000000088,
            "durationTicks": 80,
            "midi": 72,
            "name": "C5",
            "ticks": 322320,
            "time": 305.2269675,
            "velocity": 0.9133858267716536
          },
          {
            "duration": 0.0757575000000088,
            "durationTicks": 80,
            "midi": 71,
            "name": "B4",
            "ticks": 322380,
            "time": 305.283785625,
            "velocity": 0.9133858267716536
          },
          {
            "duration": 0.07575749999995196,
            "durationTicks": 80,
            "midi": 69,
            "name": "A4",
            "ticks": 322500,
            "time": 305.397421875,
            "velocity": 0.9133858267716536
          },
          {
            "duration": 0.3636359999999854,
            "durationTicks": 384,
            "midi": 71,
            "name": "B4",
            "ticks": 322560,
            "time": 305.45424,
            "velocity": 0.9133858267716536
          },
          {
            "duration": 0.22727249999996957,
            "durationTicks": 240,
            "midi": 76,
            "name": "E5",
            "ticks": 323520,
            "time": 306.36333,
            "velocity": 0.9133858267716536
          },
          {
            "duration": 0.1136362500000132,
            "durationTicks": 120,
            "midi": 78,
            "name": "F#5",
            "ticks": 323760,
            "time": 306.5906025,
            "velocity": 0.9133858267716536
          },
          {
            "duration": 0.1136362500000132,
            "durationTicks": 120,
            "midi": 79,
            "name": "G5",
            "ticks": 323880,
            "time": 306.70423875,
            "velocity": 0.9133858267716536
          },
          {
            "duration": 0.136363499999959,
            "durationTicks": 144,
            "midi": 78,
            "name": "F#5",
            "ticks": 324000,
            "time": 306.817875,
            "velocity": 0.9133858267716536
          },
          {
            "duration": 0.136363499999959,
            "durationTicks": 144,
            "midi": 76,
            "name": "E5",
            "ticks": 324240,
            "time": 307.04514750000004,
            "velocity": 0.9133858267716536
          },
          {
            "duration": 0.2272725000000264,
            "durationTicks": 240,
            "midi": 76,
            "name": "E5",
            "ticks": 324480,
            "time": 307.27242,
            "velocity": 0.9133858267716536
          },
          {
            "duration": 0.14772712500001717,
            "durationTicks": 156,
            "midi": 74,
            "name": "D5",
            "ticks": 324720,
            "time": 307.49969250000004,
            "velocity": 0.9133858267716536
          },
          {
            "duration": 0.14772712500001717,
            "durationTicks": 156,
            "midi": 71,
            "name": "B4",
            "ticks": 324960,
            "time": 307.726965,
            "velocity": 0.9133858267716536
          },
          {
            "duration": 0.14772712500001717,
            "durationTicks": 156,
            "midi": 74,
            "name": "D5",
            "ticks": 325200,
            "time": 307.95423750000003,
            "velocity": 0.9133858267716536
          },
          {
            "duration": 0.2272725000000264,
            "durationTicks": 240,
            "midi": 74,
            "name": "D5",
            "ticks": 325440,
            "time": 308.18151,
            "velocity": 0.9133858267716536
          },
          {
            "duration": 0.14772712500001717,
            "durationTicks": 156,
            "midi": 72,
            "name": "C5",
            "ticks": 325680,
            "time": 308.40878250000003,
            "velocity": 0.9133858267716536
          },
          {
            "duration": 0.14772712500001717,
            "durationTicks": 156,
            "midi": 71,
            "name": "B4",
            "ticks": 325920,
            "time": 308.636055,
            "velocity": 0.9133858267716536
          },
          {
            "duration": 0.14772712500001717,
            "durationTicks": 156,
            "midi": 69,
            "name": "A4",
            "ticks": 326160,
            "time": 308.8633275,
            "velocity": 0.9133858267716536
          },
          {
            "duration": 0.3636359999999854,
            "durationTicks": 384,
            "midi": 67,
            "name": "G4",
            "ticks": 326400,
            "time": 309.0906,
            "velocity": 0.7244094488188977
          },
          {
            "duration": 0.136363499999959,
            "durationTicks": 144,
            "midi": 74,
            "name": "D5",
            "ticks": 327120,
            "time": 309.7724175,
            "velocity": 0.5669291338582677
          },
          {
            "duration": 0.2272725000000264,
            "durationTicks": 240,
            "midi": 79,
            "name": "G5",
            "ticks": 327360,
            "time": 309.99969,
            "velocity": 0.5669291338582677
          },
          {
            "duration": 0.2272725000000264,
            "durationTicks": 240,
            "midi": 78,
            "name": "F#5",
            "ticks": 327600,
            "time": 310.2269625,
            "velocity": 0.5669291338582677
          },
          {
            "duration": 0.22727249999996957,
            "durationTicks": 240,
            "midi": 76,
            "name": "E5",
            "ticks": 327840,
            "time": 310.45423500000004,
            "velocity": 0.5669291338582677
          },
          {
            "duration": 0.18181800000002113,
            "durationTicks": 192,
            "midi": 74,
            "name": "D5",
            "ticks": 328080,
            "time": 310.6815075,
            "velocity": 0.5669291338582677
          },
          {
            "duration": 0.0568181250000066,
            "durationTicks": 60,
            "midi": 78,
            "name": "F#5",
            "ticks": 328320,
            "time": 310.90878000000004,
            "velocity": 0.5669291338582677
          },
          {
            "duration": 0.05681812499994976,
            "durationTicks": 60,
            "midi": 76,
            "name": "E5",
            "ticks": 328380,
            "time": 310.96559812500004,
            "velocity": 0.5669291338582677
          },
          {
            "duration": 0.0568181250000066,
            "durationTicks": 60,
            "midi": 78,
            "name": "F#5",
            "ticks": 328440,
            "time": 311.02241625,
            "velocity": 0.5669291338582677
          },
          {
            "duration": 0.0568181250000066,
            "durationTicks": 60,
            "midi": 76,
            "name": "E5",
            "ticks": 328500,
            "time": 311.079234375,
            "velocity": 0.5669291338582677
          },
          {
            "duration": 0.18181800000002113,
            "durationTicks": 192,
            "midi": 74,
            "name": "D5",
            "ticks": 328560,
            "time": 311.1360525,
            "velocity": 0.5669291338582677
          },
          {
            "duration": 0.13636350000001585,
            "durationTicks": 144,
            "midi": 74,
            "name": "D5",
            "ticks": 329040,
            "time": 311.5905975,
            "velocity": 0.5669291338582677
          },
          {
            "duration": 0.136363499999959,
            "durationTicks": 144,
            "midi": 74,
            "name": "D5",
            "ticks": 329280,
            "time": 311.81787,
            "velocity": 0.5669291338582677
          },
          {
            "duration": 0.13636350000001585,
            "durationTicks": 144,
            "midi": 74,
            "name": "D5",
            "ticks": 329520,
            "time": 312.0451425,
            "velocity": 0.5669291338582677
          },
          {
            "duration": 0.136363499999959,
            "durationTicks": 144,
            "midi": 74,
            "name": "D5",
            "ticks": 329760,
            "time": 312.272415,
            "velocity": 0.5669291338582677
          },
          {
            "duration": 0.13636350000001585,
            "durationTicks": 144,
            "midi": 74,
            "name": "D5",
            "ticks": 330000,
            "time": 312.4996875,
            "velocity": 0.5669291338582677
          },
          {
            "duration": 0.0568181250000066,
            "durationTicks": 60,
            "midi": 78,
            "name": "F#5",
            "ticks": 330240,
            "time": 312.72696,
            "velocity": 0.5669291338582677
          },
          {
            "duration": 0.0568181250000066,
            "durationTicks": 60,
            "midi": 76,
            "name": "E5",
            "ticks": 330300,
            "time": 312.783778125,
            "velocity": 0.5669291338582677
          },
          {
            "duration": 0.0568181250000066,
            "durationTicks": 60,
            "midi": 78,
            "name": "F#5",
            "ticks": 330360,
            "time": 312.84059625000003,
            "velocity": 0.5669291338582677
          },
          {
            "duration": 0.05681812499994976,
            "durationTicks": 60,
            "midi": 76,
            "name": "E5",
            "ticks": 330420,
            "time": 312.89741437500004,
            "velocity": 0.5669291338582677
          },
          {
            "duration": 0.18181800000002113,
            "durationTicks": 192,
            "midi": 74,
            "name": "D5",
            "ticks": 330480,
            "time": 312.9542325,
            "velocity": 0.5669291338582677
          },
          {
            "duration": 0.136363499999959,
            "durationTicks": 144,
            "midi": 74,
            "name": "D5",
            "ticks": 330960,
            "time": 313.40877750000004,
            "velocity": 0.5669291338582677
          },
          {
            "duration": 0.2272725000000264,
            "durationTicks": 240,
            "midi": 79,
            "name": "G5",
            "ticks": 331200,
            "time": 313.63605,
            "velocity": 0.5669291338582677
          },
          {
            "duration": 0.22727249999996957,
            "durationTicks": 240,
            "midi": 78,
            "name": "F#5",
            "ticks": 331440,
            "time": 313.86332250000004,
            "velocity": 0.5669291338582677
          },
          {
            "duration": 0.2272725000000264,
            "durationTicks": 240,
            "midi": 76,
            "name": "E5",
            "ticks": 331680,
            "time": 314.090595,
            "velocity": 0.5669291338582677
          },
          {
            "duration": 0.18181799999996429,
            "durationTicks": 192,
            "midi": 74,
            "name": "D5",
            "ticks": 331920,
            "time": 314.31786750000003,
            "velocity": 0.5669291338582677
          },
          {
            "duration": 0.0568181250000066,
            "durationTicks": 60,
            "midi": 78,
            "name": "F#5",
            "ticks": 332160,
            "time": 314.54514,
            "velocity": 0.5669291338582677
          },
          {
            "duration": 0.0568181250000066,
            "durationTicks": 60,
            "midi": 76,
            "name": "E5",
            "ticks": 332220,
            "time": 314.601958125,
            "velocity": 0.5669291338582677
          },
          {
            "duration": 0.0568181250000066,
            "durationTicks": 60,
            "midi": 78,
            "name": "F#5",
            "ticks": 332280,
            "time": 314.65877625,
            "velocity": 0.5669291338582677
          },
          {
            "duration": 0.0568181250000066,
            "durationTicks": 60,
            "midi": 76,
            "name": "E5",
            "ticks": 332340,
            "time": 314.715594375,
            "velocity": 0.5669291338582677
          },
          {
            "duration": 0.18181799999996429,
            "durationTicks": 192,
            "midi": 74,
            "name": "D5",
            "ticks": 332400,
            "time": 314.77241250000003,
            "velocity": 0.5669291338582677
          },
          {
            "duration": 0.136363499999959,
            "durationTicks": 144,
            "midi": 74,
            "name": "D5",
            "ticks": 332880,
            "time": 315.2269575,
            "velocity": 0.5669291338582677
          },
          {
            "duration": 0.13636350000001585,
            "durationTicks": 144,
            "midi": 74,
            "name": "D5",
            "ticks": 333120,
            "time": 315.45423,
            "velocity": 0.5669291338582677
          },
          {
            "duration": 0.136363499999959,
            "durationTicks": 144,
            "midi": 74,
            "name": "D5",
            "ticks": 333360,
            "time": 315.6815025,
            "velocity": 0.5669291338582677
          },
          {
            "duration": 0.13636350000001585,
            "durationTicks": 144,
            "midi": 74,
            "name": "D5",
            "ticks": 333600,
            "time": 315.908775,
            "velocity": 0.5669291338582677
          },
          {
            "duration": 0.136363499999959,
            "durationTicks": 144,
            "midi": 74,
            "name": "D5",
            "ticks": 333840,
            "time": 316.1360475,
            "velocity": 0.5669291338582677
          },
          {
            "duration": 0.0568181250000066,
            "durationTicks": 60,
            "midi": 78,
            "name": "F#5",
            "ticks": 334080,
            "time": 316.36332,
            "velocity": 0.5669291338582677
          },
          {
            "duration": 0.0568181250000066,
            "durationTicks": 60,
            "midi": 76,
            "name": "E5",
            "ticks": 334140,
            "time": 316.420138125,
            "velocity": 0.5669291338582677
          },
          {
            "duration": 0.0568181250000066,
            "durationTicks": 60,
            "midi": 78,
            "name": "F#5",
            "ticks": 334200,
            "time": 316.47695625,
            "velocity": 0.5669291338582677
          },
          {
            "duration": 0.0568181250000066,
            "durationTicks": 60,
            "midi": 76,
            "name": "E5",
            "ticks": 334260,
            "time": 316.533774375,
            "velocity": 0.4566929133858268
          },
          {
            "duration": 0.18181799999996429,
            "durationTicks": 192,
            "midi": 74,
            "name": "D5",
            "ticks": 334320,
            "time": 316.5905925,
            "velocity": 0.4566929133858268
          },
          {
            "duration": 0.6818174999999655,
            "durationTicks": 720,
            "midi": 88,
            "name": "E6",
            "ticks": 335040,
            "time": 317.27241000000004,
            "velocity": 0.8267716535433071
          },
          {
            "duration": 0.0757575000000088,
            "durationTicks": 80,
            "midi": 86,
            "name": "D6",
            "ticks": 335760,
            "time": 317.9542275,
            "velocity": 0.8267716535433071
          },
          {
            "duration": 0.0757575000000088,
            "durationTicks": 80,
            "midi": 84,
            "name": "C6",
            "ticks": 335820,
            "time": 318.011045625,
            "velocity": 0.8267716535433071
          },
          {
            "duration": 0.07575749999995196,
            "durationTicks": 80,
            "midi": 83,
            "name": "B5",
            "ticks": 335940,
            "time": 318.124681875,
            "velocity": 0.8267716535433071
          },
          {
            "duration": 0.3636359999999854,
            "durationTicks": 384,
            "midi": 84,
            "name": "C6",
            "ticks": 336000,
            "time": 318.1815,
            "velocity": 0.8267716535433071
          },
          {
            "duration": 0.6818175000000224,
            "durationTicks": 720,
            "midi": 74,
            "name": "D5",
            "ticks": 336960,
            "time": 319.09059,
            "velocity": 0.8267716535433071
          },
          {
            "duration": 0.6818175000000224,
            "durationTicks": 720,
            "midi": 86,
            "name": "D6",
            "ticks": 336960,
            "time": 319.09059,
            "velocity": 0.8267716535433071
          },
          {
            "duration": 0.07575749999995196,
            "durationTicks": 80,
            "midi": 84,
            "name": "C6",
            "ticks": 337680,
            "time": 319.77240750000004,
            "velocity": 0.8267716535433071
          },
          {
            "duration": 0.0757575000000088,
            "durationTicks": 80,
            "midi": 83,
            "name": "B5",
            "ticks": 337740,
            "time": 319.829225625,
            "velocity": 0.8267716535433071
          },
          {
            "duration": 0.0757575000000088,
            "durationTicks": 80,
            "midi": 81,
            "name": "A5",
            "ticks": 337860,
            "time": 319.942861875,
            "velocity": 0.8267716535433071
          },
          {
            "duration": 0.3636359999999854,
            "durationTicks": 384,
            "midi": 83,
            "name": "B5",
            "ticks": 337920,
            "time": 319.99968,
            "velocity": 0.8267716535433071
          },
          {
            "duration": 0.2272725000000264,
            "durationTicks": 240,
            "midi": 76,
            "name": "E5",
            "ticks": 338880,
            "time": 320.90877,
            "velocity": 0.8267716535433071
          },
          {
            "duration": 0.11363624999995636,
            "durationTicks": 120,
            "midi": 78,
            "name": "F#5",
            "ticks": 339120,
            "time": 321.13604250000003,
            "velocity": 0.8267716535433071
          },
          {
            "duration": 0.1136362500000132,
            "durationTicks": 120,
            "midi": 79,
            "name": "G5",
            "ticks": 339240,
            "time": 321.24967875,
            "velocity": 0.8267716535433071
          },
          {
            "duration": 0.13636350000001585,
            "durationTicks": 144,
            "midi": 78,
            "name": "F#5",
            "ticks": 339360,
            "time": 321.363315,
            "velocity": 0.8267716535433071
          },
          {
            "duration": 0.136363499999959,
            "durationTicks": 144,
            "midi": 76,
            "name": "E5",
            "ticks": 339600,
            "time": 321.5905875,
            "velocity": 0.8267716535433071
          },
          {
            "duration": 0.2272725000000264,
            "durationTicks": 240,
            "midi": 74,
            "name": "D5",
            "ticks": 339840,
            "time": 321.81786,
            "velocity": 0.8267716535433071
          },
          {
            "duration": 0.14772712500001717,
            "durationTicks": 156,
            "midi": 79,
            "name": "G5",
            "ticks": 340080,
            "time": 322.0451325,
            "velocity": 0.8267716535433071
          },
          {
            "duration": 0.14772712500001717,
            "durationTicks": 156,
            "midi": 83,
            "name": "B5",
            "ticks": 340320,
            "time": 322.272405,
            "velocity": 0.8267716535433071
          },
          {
            "duration": 0.14772712500001717,
            "durationTicks": 156,
            "midi": 86,
            "name": "D6",
            "ticks": 340560,
            "time": 322.4996775,
            "velocity": 0.8267716535433071
          },
          {
            "duration": 0.2272725000000264,
            "durationTicks": 240,
            "midi": 86,
            "name": "D6",
            "ticks": 340800,
            "time": 322.72695,
            "velocity": 0.8267716535433071
          },
          {
            "duration": 0.14772712500001717,
            "durationTicks": 156,
            "midi": 84,
            "name": "C6",
            "ticks": 341040,
            "time": 322.9542225,
            "velocity": 0.8267716535433071
          },
          {
            "duration": 0.14772712500001717,
            "durationTicks": 156,
            "midi": 83,
            "name": "B5",
            "ticks": 341280,
            "time": 323.18149500000004,
            "velocity": 0.8267716535433071
          },
          {
            "duration": 0.14772712500001717,
            "durationTicks": 156,
            "midi": 81,
            "name": "A5",
            "ticks": 341520,
            "time": 323.4087675,
            "velocity": 0.8267716535433071
          },
          {
            "duration": 0.14772712500001717,
            "durationTicks": 156,
            "midi": 79,
            "name": "G5",
            "ticks": 341760,
            "time": 323.63604000000004,
            "velocity": 0.8267716535433071
          },
          {
            "duration": 0.14772712500001717,
            "durationTicks": 156,
            "midi": 62,
            "name": "D4",
            "ticks": 342000,
            "time": 323.8633125,
            "velocity": 0.8267716535433071
          },
          {
            "duration": 0.14772712500001717,
            "durationTicks": 156,
            "midi": 64,
            "name": "E4",
            "ticks": 342240,
            "time": 324.09058500000003,
            "velocity": 0.8267716535433071
          },
          {
            "duration": 0.14772712500001717,
            "durationTicks": 156,
            "midi": 66,
            "name": "F#4",
            "ticks": 342480,
            "time": 324.3178575,
            "velocity": 0.8267716535433071
          },
          {
            "duration": 0.14772712500001717,
            "durationTicks": 156,
            "midi": 67,
            "name": "G4",
            "ticks": 342720,
            "time": 324.54513000000003,
            "velocity": 0.8267716535433071
          },
          {
            "duration": 0.14772712500001717,
            "durationTicks": 156,
            "midi": 67,
            "name": "G4",
            "ticks": 342960,
            "time": 324.7724025,
            "velocity": 0.8267716535433071
          },
          {
            "duration": 0.04545450000000528,
            "durationTicks": 48,
            "midi": 71,
            "name": "B4",
            "ticks": 343200,
            "time": 324.999675,
            "velocity": 0.8267716535433071
          },
          {
            "duration": 0.0568181250000066,
            "durationTicks": 60,
            "midi": 69,
            "name": "A4",
            "ticks": 343260,
            "time": 325.05649312500003,
            "velocity": 0.8267716535433071
          },
          {
            "duration": 0.05681812499994976,
            "durationTicks": 60,
            "midi": 71,
            "name": "B4",
            "ticks": 343320,
            "time": 325.11331125000004,
            "velocity": 0.8267716535433071
          },
          {
            "duration": 0.0568181250000066,
            "durationTicks": 60,
            "midi": 69,
            "name": "A4",
            "ticks": 343380,
            "time": 325.170129375,
            "velocity": 0.8267716535433071
          },
          {
            "duration": 0.1136362500000132,
            "durationTicks": 120,
            "midi": 67,
            "name": "G4",
            "ticks": 343440,
            "time": 325.2269475,
            "velocity": 0.8267716535433071
          },
          {
            "duration": 0.1136362500000132,
            "durationTicks": 120,
            "midi": 69,
            "name": "A4",
            "ticks": 343560,
            "time": 325.34058375,
            "velocity": 0.8267716535433071
          },
          {
            "duration": 0.14772712500001717,
            "durationTicks": 156,
            "midi": 71,
            "name": "B4",
            "ticks": 343680,
            "time": 325.45422,
            "velocity": 0.8267716535433071
          },
          {
            "duration": 0.14772712500001717,
            "durationTicks": 156,
            "midi": 66,
            "name": "F#4",
            "ticks": 343920,
            "time": 325.6814925,
            "velocity": 0.8267716535433071
          },
          {
            "duration": 0.14772712500001717,
            "durationTicks": 156,
            "midi": 67,
            "name": "G4",
            "ticks": 344160,
            "time": 325.908765,
            "velocity": 0.8267716535433071
          },
          {
            "duration": 0.14772712500001717,
            "durationTicks": 156,
            "midi": 69,
            "name": "A4",
            "ticks": 344400,
            "time": 326.13603750000004,
            "velocity": 0.8267716535433071
          },
          {
            "duration": 0.14772712500001717,
            "durationTicks": 156,
            "midi": 71,
            "name": "B4",
            "ticks": 344640,
            "time": 326.36331,
            "velocity": 0.8267716535433071
          },
          {
            "duration": 0.14772712500001717,
            "durationTicks": 156,
            "midi": 71,
            "name": "B4",
            "ticks": 344880,
            "time": 326.59058250000004,
            "velocity": 0.8267716535433071
          },
          {
            "duration": 0.0568181250000066,
            "durationTicks": 60,
            "midi": 74,
            "name": "D5",
            "ticks": 345120,
            "time": 326.817855,
            "velocity": 0.8267716535433071
          },
          {
            "duration": 0.0568181250000066,
            "durationTicks": 60,
            "midi": 72,
            "name": "C5",
            "ticks": 345180,
            "time": 326.874673125,
            "velocity": 0.8267716535433071
          },
          {
            "duration": 0.0568181250000066,
            "durationTicks": 60,
            "midi": 74,
            "name": "D5",
            "ticks": 345240,
            "time": 326.93149125,
            "velocity": 0.8267716535433071
          },
          {
            "duration": 0.0568181250000066,
            "durationTicks": 60,
            "midi": 72,
            "name": "C5",
            "ticks": 345300,
            "time": 326.98830937500003,
            "velocity": 0.8267716535433071
          },
          {
            "duration": 0.11363624999995636,
            "durationTicks": 120,
            "midi": 71,
            "name": "B4",
            "ticks": 345360,
            "time": 327.04512750000004,
            "velocity": 0.8267716535433071
          },
          {
            "duration": 0.1136362500000132,
            "durationTicks": 120,
            "midi": 72,
            "name": "C5",
            "ticks": 345480,
            "time": 327.15876375,
            "velocity": 0.8267716535433071
          },
          {
            "duration": 0.14772712500001717,
            "durationTicks": 156,
            "midi": 74,
            "name": "D5",
            "ticks": 345600,
            "time": 327.2724,
            "velocity": 0.8267716535433071
          },
          {
            "duration": 0.14772712500001717,
            "durationTicks": 156,
            "midi": 74,
            "name": "D5",
            "ticks": 345840,
            "time": 327.49967250000003,
            "velocity": 0.8267716535433071
          },
          {
            "duration": 0.0568181250000066,
            "durationTicks": 60,
            "midi": 76,
            "name": "E5",
            "ticks": 346080,
            "time": 327.726945,
            "velocity": 0.8267716535433071
          },
          {
            "duration": 0.0568181250000066,
            "durationTicks": 60,
            "midi": 75,
            "name": "D#5",
            "ticks": 346140,
            "time": 327.783763125,
            "velocity": 0.8267716535433071
          },
          {
            "duration": 0.0568181250000066,
            "durationTicks": 60,
            "midi": 76,
            "name": "E5",
            "ticks": 346200,
            "time": 327.84058125,
            "velocity": 0.8267716535433071
          },
          {
            "duration": 0.0568181250000066,
            "durationTicks": 60,
            "midi": 75,
            "name": "D#5",
            "ticks": 346260,
            "time": 327.897399375,
            "velocity": 0.8267716535433071
          },
          {
            "duration": 0.1136362500000132,
            "durationTicks": 120,
            "midi": 73,
            "name": "C#5",
            "ticks": 346320,
            "time": 327.9542175,
            "velocity": 0.8267716535433071
          },
          {
            "duration": 0.11363624999995636,
            "durationTicks": 120,
            "midi": 75,
            "name": "D#5",
            "ticks": 346440,
            "time": 328.06785375000004,
            "velocity": 0.8267716535433071
          },
          {
            "duration": 0.3636359999999854,
            "durationTicks": 384,
            "midi": 76,
            "name": "E5",
            "ticks": 346560,
            "time": 328.18149,
            "velocity": 0.8267716535433071
          },
          {
            "duration": 0.6818175000000224,
            "durationTicks": 720,
            "midi": 64,
            "name": "E4",
            "ticks": 347520,
            "time": 329.09058,
            "velocity": 0.5669291338582677
          },
          {
            "duration": 0.18181800000002113,
            "durationTicks": 192,
            "midi": 69,
            "name": "A4",
            "ticks": 348240,
            "time": 329.7723975,
            "velocity": 0.5669291338582677
          },
          {
            "duration": 0.22727249999996957,
            "durationTicks": 240,
            "midi": 67,
            "name": "G4",
            "ticks": 348480,
            "time": 329.99967000000004,
            "velocity": 0.5669291338582677
          },
          {
            "duration": 0.2272725000000264,
            "durationTicks": 240,
            "midi": 66,
            "name": "F#4",
            "ticks": 348720,
            "time": 330.2269425,
            "velocity": 0.5669291338582677
          },
          {
            "duration": 0.22727249999996957,
            "durationTicks": 240,
            "midi": 64,
            "name": "E4",
            "ticks": 348960,
            "time": 330.45421500000003,
            "velocity": 0.5669291338582677
          },
          {
            "duration": 0.18181800000002113,
            "durationTicks": 192,
            "midi": 62,
            "name": "D4",
            "ticks": 349200,
            "time": 330.6814875,
            "velocity": 0.5669291338582677
          },
          {
            "duration": 0.22727249999996957,
            "durationTicks": 240,
            "midi": 74,
            "name": "D5",
            "ticks": 349440,
            "time": 330.90876000000003,
            "velocity": 0.5669291338582677
          },
          {
            "duration": 0.2272725000000264,
            "durationTicks": 240,
            "midi": 73,
            "name": "C#5",
            "ticks": 349680,
            "time": 331.1360325,
            "velocity": 0.5669291338582677
          },
          {
            "duration": 0.22727249999996957,
            "durationTicks": 240,
            "midi": 72,
            "name": "C5",
            "ticks": 349920,
            "time": 331.363305,
            "velocity": 0.5669291338582677
          },
          {
            "duration": 0.18181800000002113,
            "durationTicks": 192,
            "midi": 71,
            "name": "B4",
            "ticks": 350160,
            "time": 331.5905775,
            "velocity": 0.5669291338582677
          },
          {
            "duration": 0.22727249999996957,
            "durationTicks": 240,
            "midi": 74,
            "name": "D5",
            "ticks": 350400,
            "time": 331.81785,
            "velocity": 0.5669291338582677
          },
          {
            "duration": 0.2272725000000264,
            "durationTicks": 240,
            "midi": 73,
            "name": "C#5",
            "ticks": 350640,
            "time": 332.0451225,
            "velocity": 0.5669291338582677
          },
          {
            "duration": 0.2272725000000264,
            "durationTicks": 240,
            "midi": 72,
            "name": "C5",
            "ticks": 350880,
            "time": 332.272395,
            "velocity": 0.5669291338582677
          },
          {
            "duration": 0.18181799999996429,
            "durationTicks": 192,
            "midi": 71,
            "name": "B4",
            "ticks": 351120,
            "time": 332.49966750000004,
            "velocity": 0.5669291338582677
          },
          {
            "duration": 0.6818175000000224,
            "durationTicks": 720,
            "midi": 64,
            "name": "E4",
            "ticks": 351360,
            "time": 332.72694,
            "velocity": 0.5669291338582677
          },
          {
            "duration": 0.18181799999996429,
            "durationTicks": 192,
            "midi": 69,
            "name": "A4",
            "ticks": 352080,
            "time": 333.40875750000004,
            "velocity": 0.5669291338582677
          },
          {
            "duration": 0.2272725000000264,
            "durationTicks": 240,
            "midi": 67,
            "name": "G4",
            "ticks": 352320,
            "time": 333.63603,
            "velocity": 0.5669291338582677
          },
          {
            "duration": 0.22727249999996957,
            "durationTicks": 240,
            "midi": 66,
            "name": "F#4",
            "ticks": 352560,
            "time": 333.86330250000003,
            "velocity": 0.5669291338582677
          },
          {
            "duration": 0.2272725000000264,
            "durationTicks": 240,
            "midi": 64,
            "name": "E4",
            "ticks": 352800,
            "time": 334.090575,
            "velocity": 0.5669291338582677
          },
          {
            "duration": 0.18181799999996429,
            "durationTicks": 192,
            "midi": 62,
            "name": "D4",
            "ticks": 353040,
            "time": 334.3178475,
            "velocity": 0.5669291338582677
          },
          {
            "duration": 0.2272725000000264,
            "durationTicks": 240,
            "midi": 74,
            "name": "D5",
            "ticks": 353280,
            "time": 334.54512,
            "velocity": 0.5669291338582677
          },
          {
            "duration": 0.22727249999996957,
            "durationTicks": 240,
            "midi": 76,
            "name": "E5",
            "ticks": 353520,
            "time": 334.7723925,
            "velocity": 0.5669291338582677
          },
          {
            "duration": 0.2272725000000264,
            "durationTicks": 240,
            "midi": 78,
            "name": "F#5",
            "ticks": 353760,
            "time": 334.999665,
            "velocity": 0.5669291338582677
          },
          {
            "duration": 0.18181799999996429,
            "durationTicks": 192,
            "midi": 79,
            "name": "G5",
            "ticks": 354000,
            "time": 335.2269375,
            "velocity": 0.5669291338582677
          },
          {
            "duration": 0.2272725000000264,
            "durationTicks": 240,
            "midi": 74,
            "name": "D5",
            "ticks": 354240,
            "time": 335.45421,
            "velocity": 0.5669291338582677
          },
          {
            "duration": 0.2272725000000264,
            "durationTicks": 240,
            "midi": 76,
            "name": "E5",
            "ticks": 354480,
            "time": 335.6814825,
            "velocity": 0.5669291338582677
          },
          {
            "duration": 0.22727249999996957,
            "durationTicks": 240,
            "midi": 78,
            "name": "F#5",
            "ticks": 354720,
            "time": 335.90875500000004,
            "velocity": 0.5669291338582677
          },
          {
            "duration": 0.18181800000002113,
            "durationTicks": 192,
            "midi": 79,
            "name": "G5",
            "ticks": 354960,
            "time": 336.1360275,
            "velocity": 0.5669291338582677
          },
          {
            "duration": 0.3636359999999854,
            "durationTicks": 384,
            "midi": 81,
            "name": "A5",
            "ticks": 355200,
            "time": 336.36330000000004,
            "velocity": 0.4566929133858268
          },
          {
            "duration": 0.3636359999999854,
            "durationTicks": 384,
            "midi": 62,
            "name": "D4",
            "ticks": 356160,
            "time": 337.27239000000003,
            "velocity": 0.8267716535433071
          },
          {
            "duration": 0.3636359999999854,
            "durationTicks": 384,
            "midi": 74,
            "name": "D5",
            "ticks": 356160,
            "time": 337.27239000000003,
            "velocity": 0.8267716535433071
          },
          {
            "duration": 0.3636359999999854,
            "durationTicks": 384,
            "midi": 86,
            "name": "D6",
            "ticks": 356160,
            "time": 337.27239000000003,
            "velocity": 0.8267716535433071
          },
          {
            "duration": 0.3636359999999854,
            "durationTicks": 384,
            "midi": 62,
            "name": "D4",
            "ticks": 357120,
            "time": 338.18148,
            "velocity": 0.9133858267716536
          },
          {
            "duration": 0.3636359999999854,
            "durationTicks": 384,
            "midi": 71,
            "name": "B4",
            "ticks": 357120,
            "time": 338.18148,
            "velocity": 0.9133858267716536
          },
          {
            "duration": 0.3636359999999854,
            "durationTicks": 384,
            "midi": 79,
            "name": "G5",
            "ticks": 357120,
            "time": 338.18148,
            "velocity": 0.9133858267716536
          },
          {
            "duration": 0.14772712500001717,
            "durationTicks": 156,
            "midi": 74,
            "name": "D5",
            "ticks": 357840,
            "time": 338.86329750000004,
            "velocity": 0.9133858267716536
          },
          {
            "duration": 0.14772712500001717,
            "durationTicks": 156,
            "midi": 71,
            "name": "B4",
            "ticks": 358080,
            "time": 339.09057,
            "velocity": 0.9133858267716536
          },
          {
            "duration": 0.14772712500001717,
            "durationTicks": 156,
            "midi": 67,
            "name": "G4",
            "ticks": 358320,
            "time": 339.31784250000004,
            "velocity": 0.9133858267716536
          },
          {
            "duration": 0.14772712500001717,
            "durationTicks": 156,
            "midi": 71,
            "name": "B4",
            "ticks": 358560,
            "time": 339.545115,
            "velocity": 0.9133858267716536
          },
          {
            "duration": 0.14772712500001717,
            "durationTicks": 156,
            "midi": 74,
            "name": "D5",
            "ticks": 358800,
            "time": 339.77238750000004,
            "velocity": 0.9133858267716536
          },
          {
            "duration": 0.14772712500001717,
            "durationTicks": 156,
            "midi": 79,
            "name": "G5",
            "ticks": 359040,
            "time": 339.99966,
            "velocity": 0.9133858267716536
          },
          {
            "duration": 0.14772712500001717,
            "durationTicks": 156,
            "midi": 74,
            "name": "D5",
            "ticks": 359280,
            "time": 340.22693250000003,
            "velocity": 0.9133858267716536
          },
          {
            "duration": 0.14772712500001717,
            "durationTicks": 156,
            "midi": 79,
            "name": "G5",
            "ticks": 359520,
            "time": 340.454205,
            "velocity": 0.9133858267716536
          },
          {
            "duration": 0.14772712500001717,
            "durationTicks": 156,
            "midi": 83,
            "name": "B5",
            "ticks": 359760,
            "time": 340.6814775,
            "velocity": 0.9133858267716536
          },
          {
            "duration": 0.29545425000003434,
            "durationTicks": 312,
            "midi": 86,
            "name": "D6",
            "ticks": 360000,
            "time": 340.90875,
            "velocity": 0.9133858267716536
          },
          {
            "duration": 0.29545425000003434,
            "durationTicks": 312,
            "midi": 62,
            "name": "D4",
            "ticks": 360480,
            "time": 341.363295,
            "velocity": 0.9133858267716536
          },
          {
            "duration": 0.29545425000003434,
            "durationTicks": 312,
            "midi": 69,
            "name": "A4",
            "ticks": 360480,
            "time": 341.363295,
            "velocity": 0.9133858267716536
          },
          {
            "duration": 0.29545425000003434,
            "durationTicks": 312,
            "midi": 78,
            "name": "F#5",
            "ticks": 360480,
            "time": 341.363295,
            "velocity": 0.9133858267716536
          },
          {
            "duration": 0.3636359999999854,
            "durationTicks": 384,
            "midi": 62,
            "name": "D4",
            "ticks": 360960,
            "time": 341.81784,
            "velocity": 0.9133858267716536
          },
          {
            "duration": 0.3636359999999854,
            "durationTicks": 384,
            "midi": 71,
            "name": "B4",
            "ticks": 360960,
            "time": 341.81784,
            "velocity": 0.9133858267716536
          },
          {
            "duration": 0.3636359999999854,
            "durationTicks": 384,
            "midi": 79,
            "name": "G5",
            "ticks": 360960,
            "time": 341.81784,
            "velocity": 0.9133858267716536
          },
          {
            "duration": 0.14772712500001717,
            "durationTicks": 156,
            "midi": 74,
            "name": "D5",
            "ticks": 361680,
            "time": 342.4996575,
            "velocity": 0.9133858267716536
          },
          {
            "duration": 0.14772712500001717,
            "durationTicks": 156,
            "midi": 71,
            "name": "B4",
            "ticks": 361920,
            "time": 342.72693000000004,
            "velocity": 0.9133858267716536
          },
          {
            "duration": 0.14772712500001717,
            "durationTicks": 156,
            "midi": 67,
            "name": "G4",
            "ticks": 362160,
            "time": 342.9542025,
            "velocity": 0.9133858267716536
          },
          {
            "duration": 0.14772712500001717,
            "durationTicks": 156,
            "midi": 71,
            "name": "B4",
            "ticks": 362400,
            "time": 343.18147500000003,
            "velocity": 0.9133858267716536
          },
          {
            "duration": 0.14772712500001717,
            "durationTicks": 156,
            "midi": 74,
            "name": "D5",
            "ticks": 362640,
            "time": 343.4087475,
            "velocity": 0.9133858267716536
          },
          {
            "duration": 0.14772712500001717,
            "durationTicks": 156,
            "midi": 79,
            "name": "G5",
            "ticks": 362880,
            "time": 343.63602000000003,
            "velocity": 0.9133858267716536
          },
          {
            "duration": 0.14772712500001717,
            "durationTicks": 156,
            "midi": 74,
            "name": "D5",
            "ticks": 363120,
            "time": 343.8632925,
            "velocity": 0.9133858267716536
          },
          {
            "duration": 0.14772712500001717,
            "durationTicks": 156,
            "midi": 79,
            "name": "G5",
            "ticks": 363360,
            "time": 344.090565,
            "velocity": 0.9133858267716536
          },
          {
            "duration": 0.14772712500001717,
            "durationTicks": 156,
            "midi": 83,
            "name": "B5",
            "ticks": 363600,
            "time": 344.3178375,
            "velocity": 0.9133858267716536
          },
          {
            "duration": 0.2954542499999775,
            "durationTicks": 312,
            "midi": 86,
            "name": "D6",
            "ticks": 363840,
            "time": 344.54511,
            "velocity": 0.9133858267716536
          },
          {
            "duration": 0.2954542499999775,
            "durationTicks": 312,
            "midi": 62,
            "name": "D4",
            "ticks": 364320,
            "time": 344.999655,
            "velocity": 0.9133858267716536
          },
          {
            "duration": 0.2954542499999775,
            "durationTicks": 312,
            "midi": 69,
            "name": "A4",
            "ticks": 364320,
            "time": 344.999655,
            "velocity": 0.9133858267716536
          },
          {
            "duration": 0.2954542499999775,
            "durationTicks": 312,
            "midi": 78,
            "name": "F#5",
            "ticks": 364320,
            "time": 344.999655,
            "velocity": 0.9133858267716536
          },
          {
            "duration": 0.3636359999999854,
            "durationTicks": 384,
            "midi": 62,
            "name": "D4",
            "ticks": 364800,
            "time": 345.4542,
            "velocity": 0.9133858267716536
          },
          {
            "duration": 0.3636359999999854,
            "durationTicks": 384,
            "midi": 71,
            "name": "B4",
            "ticks": 364800,
            "time": 345.4542,
            "velocity": 0.9133858267716536
          },
          {
            "duration": 0.3636359999999854,
            "durationTicks": 384,
            "midi": 79,
            "name": "G5",
            "ticks": 364800,
            "time": 345.4542,
            "velocity": 0.9133858267716536
          },
          {
            "duration": 0.3636359999999854,
            "durationTicks": 384,
            "midi": 62,
            "name": "D4",
            "ticks": 365760,
            "time": 346.36329,
            "velocity": 0.8267716535433071
          },
          {
            "duration": 0.3636359999999854,
            "durationTicks": 384,
            "midi": 71,
            "name": "B4",
            "ticks": 365760,
            "time": 346.36329,
            "velocity": 0.8267716535433071
          },
          {
            "duration": 0.3636359999999854,
            "durationTicks": 384,
            "midi": 79,
            "name": "G5",
            "ticks": 365760,
            "time": 346.36329,
            "velocity": 0.8267716535433071
          },
          {
            "duration": 0.29545425000003434,
            "durationTicks": 312,
            "midi": 62,
            "name": "D4",
            "ticks": 366720,
            "time": 347.27238,
            "velocity": 0.8267716535433071
          },
          {
            "duration": 0.29545425000003434,
            "durationTicks": 312,
            "midi": 71,
            "name": "B4",
            "ticks": 366720,
            "time": 347.27238,
            "velocity": 0.8267716535433071
          },
          {
            "duration": 0.29545425000003434,
            "durationTicks": 312,
            "midi": 79,
            "name": "G5",
            "ticks": 366720,
            "time": 347.27238,
            "velocity": 0.8267716535433071
          },
          {
            "duration": 0.22159068749999733,
            "durationTicks": 234,
            "midi": 55,
            "name": "G3",
            "ticks": 367200,
            "time": 347.726925,
            "velocity": 0.8267716535433071
          },
          {
            "duration": 0.22159068749999733,
            "durationTicks": 234,
            "midi": 67,
            "name": "G4",
            "ticks": 367200,
            "time": 347.726925,
            "velocity": 0.8267716535433071
          },
          {
            "duration": 0.07386356249998016,
            "durationTicks": 78,
            "midi": 55,
            "name": "G3",
            "ticks": 367560,
            "time": 348.06783375000003,
            "velocity": 0.8267716535433071
          },
          {
            "duration": 0.07386356249998016,
            "durationTicks": 78,
            "midi": 67,
            "name": "G4",
            "ticks": 367560,
            "time": 348.06783375000003,
            "velocity": 0.8267716535433071
          },
          {
            "duration": 0.3636359999999854,
            "durationTicks": 384,
            "midi": 55,
            "name": "G3",
            "ticks": 367680,
            "time": 348.18147,
            "velocity": 0.8267716535433071
          },
          {
            "duration": 0.3636359999999854,
            "durationTicks": 384,
            "midi": 67,
            "name": "G4",
            "ticks": 367680,
            "time": 348.18147,
            "velocity": 0.8267716535433071
          }
        ]
      },
      {
        "channel": 0,
        "controlChanges": {},
        "pitchBends": [],
        "instrument": {
          "family": "piano",
          "number": 0,
          "name": "acoustic grand piano"
        },
        "name": "serenade_525_1_(c)ishii",
        "notes": [],
        "endOfTrackTicks": 370560
      },
      {
        "channel": 1,
        "controlChanges": {
          "7": [
            {
              "number": 7,
              "ticks": 0,
              "time": 0,
              "value": 0.968503937007874
            }
          ],
          "10": [
            {
              "number": 10,
              "ticks": 0,
              "time": 0,
              "value": 0.31496062992125984
            }
          ],
          "91": [
            {
              "number": 91,
              "ticks": 0,
              "time": 0,
              "value": 0.6692913385826772
            }
          ]
        },
        "pitchBends": [],
        "instrument": {
          "family": "ensemble",
          "number": 48,
          "name": "string ensemble 1"
        },
        "name": "",
        "notes": [
          {
            "duration": 0.36363600000000007,
            "durationTicks": 384,
            "midi": 62,
            "name": "D4",
            "ticks": 0,
            "time": 0,
            "velocity": 0.8267716535433071
          },
          {
            "duration": 0.36363600000000007,
            "durationTicks": 384,
            "midi": 71,
            "name": "B4",
            "ticks": 0,
            "time": 0,
            "velocity": 0.8267716535433071
          },
          {
            "duration": 0.36363600000000007,
            "durationTicks": 384,
            "midi": 79,
            "name": "G5",
            "ticks": 0,
            "time": 0,
            "velocity": 0.8267716535433071
          },
          {
            "duration": 0.13636349999999997,
            "durationTicks": 144,
            "midi": 74,
            "name": "D5",
            "ticks": 720,
            "time": 0.6818175000000001,
            "velocity": 0.7244094488188977
          },
          {
            "duration": 0.36363599999999996,
            "durationTicks": 384,
            "midi": 79,
            "name": "G5",
            "ticks": 960,
            "time": 0.9090900000000001,
            "velocity": 0.7244094488188977
          },
          {
            "duration": 0.13636349999999986,
            "durationTicks": 144,
            "midi": 74,
            "name": "D5",
            "ticks": 1680,
            "time": 1.5909075000000001,
            "velocity": 0.7244094488188977
          },
          {
            "duration": 0.13636350000000008,
            "durationTicks": 144,
            "midi": 79,
            "name": "G5",
            "ticks": 1920,
            "time": 1.8181800000000001,
            "velocity": 0.7244094488188977
          },
          {
            "duration": 0.13636349999999986,
            "durationTicks": 144,
            "midi": 74,
            "name": "D5",
            "ticks": 2160,
            "time": 2.0454525,
            "velocity": 0.7244094488188977
          },
          {
            "duration": 0.13636349999999986,
            "durationTicks": 144,
            "midi": 79,
            "name": "G5",
            "ticks": 2400,
            "time": 2.2727250000000003,
            "velocity": 0.7244094488188977
          },
          {
            "duration": 0.13636349999999986,
            "durationTicks": 144,
            "midi": 83,
            "name": "B5",
            "ticks": 2640,
            "time": 2.4999975,
            "velocity": 0.7244094488188977
          },
          {
            "duration": 0.3636359999999996,
            "durationTicks": 384,
            "midi": 86,
            "name": "D6",
            "ticks": 2880,
            "time": 2.7272700000000003,
            "velocity": 0.7244094488188977
          },
          {
            "duration": 0.3636359999999996,
            "durationTicks": 384,
            "midi": 84,
            "name": "C6",
            "ticks": 3840,
            "time": 3.6363600000000003,
            "velocity": 0.7244094488188977
          },
          {
            "duration": 0.13636350000000075,
            "durationTicks": 144,
            "midi": 81,
            "name": "A5",
            "ticks": 4560,
            "time": 4.3181775,
            "velocity": 0.7244094488188977
          },
          {
            "duration": 0.3636360000000005,
            "durationTicks": 384,
            "midi": 84,
            "name": "C6",
            "ticks": 4800,
            "time": 4.545450000000001,
            "velocity": 0.7244094488188977
          },
          {
            "duration": 0.13636350000000075,
            "durationTicks": 144,
            "midi": 81,
            "name": "A5",
            "ticks": 5520,
            "time": 5.2272675,
            "velocity": 0.7244094488188977
          },
          {
            "duration": 0.13636349999999986,
            "durationTicks": 144,
            "midi": 84,
            "name": "C6",
            "ticks": 5760,
            "time": 5.454540000000001,
            "velocity": 0.7244094488188977
          },
          {
            "duration": 0.13636349999999986,
            "durationTicks": 144,
            "midi": 81,
            "name": "A5",
            "ticks": 6000,
            "time": 5.6818125,
            "velocity": 0.7244094488188977
          },
          {
            "duration": 0.13636350000000075,
            "durationTicks": 144,
            "midi": 78,
            "name": "F#5",
            "ticks": 6240,
            "time": 5.909085,
            "velocity": 0.7244094488188977
          },
          {
            "duration": 0.13636350000000075,
            "durationTicks": 144,
            "midi": 81,
            "name": "A5",
            "ticks": 6480,
            "time": 6.1363575,
            "velocity": 0.7244094488188977
          },
          {
            "duration": 0.3636360000000005,
            "durationTicks": 384,
            "midi": 74,
            "name": "D5",
            "ticks": 6720,
            "time": 6.363630000000001,
            "velocity": 0.7244094488188977
          },
          {
            "duration": 0.0909089999999999,
            "durationTicks": 96,
            "midi": 59,
            "name": "B3",
            "ticks": 7680,
            "time": 7.2727200000000005,
            "velocity": 0.8267716535433071
          },
          {
            "duration": 0.0909089999999999,
            "durationTicks": 96,
            "midi": 62,
            "name": "D4",
            "ticks": 7680,
            "time": 7.2727200000000005,
            "velocity": 0.8267716535433071
          },
          {
            "duration": 0.0909089999999999,
            "durationTicks": 96,
            "midi": 59,
            "name": "B3",
            "ticks": 7800,
            "time": 7.38635625,
            "velocity": 0.8267716535433071
          },
          {
            "duration": 0.0909089999999999,
            "durationTicks": 96,
            "midi": 62,
            "name": "D4",
            "ticks": 7800,
            "time": 7.38635625,
            "velocity": 0.8267716535433071
          },
          {
            "duration": 0.0909089999999999,
            "durationTicks": 96,
            "midi": 59,
            "name": "B3",
            "ticks": 7920,
            "time": 7.4999925,
            "velocity": 0.8267716535433071
          },
          {
            "duration": 0.0909089999999999,
            "durationTicks": 96,
            "midi": 62,
            "name": "D4",
            "ticks": 7920,
            "time": 7.4999925,
            "velocity": 0.8267716535433071
          },
          {
            "duration": 0.0909089999999999,
            "durationTicks": 96,
            "midi": 59,
            "name": "B3",
            "ticks": 8040,
            "time": 7.61362875,
            "velocity": 0.8267716535433071
          },
          {
            "duration": 0.0909089999999999,
            "durationTicks": 96,
            "midi": 62,
            "name": "D4",
            "ticks": 8040,
            "time": 7.61362875,
            "velocity": 0.8267716535433071
          },
          {
            "duration": 0.0909089999999999,
            "durationTicks": 96,
            "midi": 59,
            "name": "B3",
            "ticks": 8160,
            "time": 7.727265,
            "velocity": 0.8267716535433071
          },
          {
            "duration": 0.0909089999999999,
            "durationTicks": 96,
            "midi": 62,
            "name": "D4",
            "ticks": 8160,
            "time": 7.727265,
            "velocity": 0.8267716535433071
          },
          {
            "duration": 0.09090899999999902,
            "durationTicks": 96,
            "midi": 59,
            "name": "B3",
            "ticks": 8280,
            "time": 7.840901250000001,
            "velocity": 0.8267716535433071
          },
          {
            "duration": 0.09090899999999902,
            "durationTicks": 96,
            "midi": 62,
            "name": "D4",
            "ticks": 8280,
            "time": 7.840901250000001,
            "velocity": 0.8267716535433071
          },
          {
            "duration": 0.0909089999999999,
            "durationTicks": 96,
            "midi": 59,
            "name": "B3",
            "ticks": 8400,
            "time": 7.954537500000001,
            "velocity": 0.8267716535433071
          },
          {
            "duration": 0.0909089999999999,
            "durationTicks": 96,
            "midi": 62,
            "name": "D4",
            "ticks": 8400,
            "time": 7.954537500000001,
            "velocity": 0.8267716535433071
          },
          {
            "duration": 0.0909089999999999,
            "durationTicks": 96,
            "midi": 59,
            "name": "B3",
            "ticks": 8520,
            "time": 8.068173750000001,
            "velocity": 0.8267716535433071
          },
          {
            "duration": 0.0909089999999999,
            "durationTicks": 96,
            "midi": 62,
            "name": "D4",
            "ticks": 8520,
            "time": 8.068173750000001,
            "velocity": 0.8267716535433071
          },
          {
            "duration": 0.0909089999999999,
            "durationTicks": 96,
            "midi": 59,
            "name": "B3",
            "ticks": 8640,
            "time": 8.18181,
            "velocity": 0.8267716535433071
          },
          {
            "duration": 0.0909089999999999,
            "durationTicks": 96,
            "midi": 62,
            "name": "D4",
            "ticks": 8640,
            "time": 8.18181,
            "velocity": 0.8267716535433071
          },
          {
            "duration": 0.0909089999999999,
            "durationTicks": 96,
            "midi": 59,
            "name": "B3",
            "ticks": 8760,
            "time": 8.295446250000001,
            "velocity": 0.8267716535433071
          },
          {
            "duration": 0.0909089999999999,
            "durationTicks": 96,
            "midi": 62,
            "name": "D4",
            "ticks": 8760,
            "time": 8.295446250000001,
            "velocity": 0.8267716535433071
          },
          {
            "duration": 0.0909089999999999,
            "durationTicks": 96,
            "midi": 59,
            "name": "B3",
            "ticks": 8880,
            "time": 8.4090825,
            "velocity": 0.8267716535433071
          },
          {
            "duration": 0.0909089999999999,
            "durationTicks": 96,
            "midi": 62,
            "name": "D4",
            "ticks": 8880,
            "time": 8.4090825,
            "velocity": 0.8267716535433071
          },
          {
            "duration": 0.0909089999999999,
            "durationTicks": 96,
            "midi": 59,
            "name": "B3",
            "ticks": 9000,
            "time": 8.522718750000001,
            "velocity": 0.8267716535433071
          },
          {
            "duration": 0.0909089999999999,
            "durationTicks": 96,
            "midi": 62,
            "name": "D4",
            "ticks": 9000,
            "time": 8.522718750000001,
            "velocity": 0.8267716535433071
          },
          {
            "duration": 0.09090899999999813,
            "durationTicks": 96,
            "midi": 59,
            "name": "B3",
            "ticks": 9120,
            "time": 8.636355000000002,
            "velocity": 0.8267716535433071
          },
          {
            "duration": 0.09090899999999813,
            "durationTicks": 96,
            "midi": 62,
            "name": "D4",
            "ticks": 9120,
            "time": 8.636355000000002,
            "velocity": 0.8267716535433071
          },
          {
            "duration": 0.0909089999999999,
            "durationTicks": 96,
            "midi": 59,
            "name": "B3",
            "ticks": 9240,
            "time": 8.74999125,
            "velocity": 0.8267716535433071
          },
          {
            "duration": 0.0909089999999999,
            "durationTicks": 96,
            "midi": 62,
            "name": "D4",
            "ticks": 9240,
            "time": 8.74999125,
            "velocity": 0.8267716535433071
          },
          {
            "duration": 0.0909089999999999,
            "durationTicks": 96,
            "midi": 59,
            "name": "B3",
            "ticks": 9360,
            "time": 8.863627500000002,
            "velocity": 0.8267716535433071
          },
          {
            "duration": 0.0909089999999999,
            "durationTicks": 96,
            "midi": 62,
            "name": "D4",
            "ticks": 9360,
            "time": 8.863627500000002,
            "velocity": 0.8267716535433071
          },
          {
            "duration": 0.0909089999999999,
            "durationTicks": 96,
            "midi": 59,
            "name": "B3",
            "ticks": 9480,
            "time": 8.97726375,
            "velocity": 0.8267716535433071
          },
          {
            "duration": 0.0909089999999999,
            "durationTicks": 96,
            "midi": 62,
            "name": "D4",
            "ticks": 9480,
            "time": 8.97726375,
            "velocity": 0.8267716535433071
          },
          {
            "duration": 0.0909089999999999,
            "durationTicks": 96,
            "midi": 60,
            "name": "C4",
            "ticks": 9600,
            "time": 9.090900000000001,
            "velocity": 0.8267716535433071
          },
          {
            "duration": 0.0909089999999999,
            "durationTicks": 96,
            "midi": 62,
            "name": "D4",
            "ticks": 9600,
            "time": 9.090900000000001,
            "velocity": 0.8267716535433071
          },
          {
            "duration": 0.0909089999999999,
            "durationTicks": 96,
            "midi": 60,
            "name": "C4",
            "ticks": 9720,
            "time": 9.204536250000002,
            "velocity": 0.8267716535433071
          },
          {
            "duration": 0.0909089999999999,
            "durationTicks": 96,
            "midi": 62,
            "name": "D4",
            "ticks": 9720,
            "time": 9.204536250000002,
            "velocity": 0.8267716535433071
          },
          {
            "duration": 0.0909089999999999,
            "durationTicks": 96,
            "midi": 60,
            "name": "C4",
            "ticks": 9840,
            "time": 9.318172500000001,
            "velocity": 0.8267716535433071
          },
          {
            "duration": 0.0909089999999999,
            "durationTicks": 96,
            "midi": 62,
            "name": "D4",
            "ticks": 9840,
            "time": 9.318172500000001,
            "velocity": 0.8267716535433071
          },
          {
            "duration": 0.0909089999999999,
            "durationTicks": 96,
            "midi": 60,
            "name": "C4",
            "ticks": 9960,
            "time": 9.431808750000002,
            "velocity": 0.8267716535433071
          },
          {
            "duration": 0.0909089999999999,
            "durationTicks": 96,
            "midi": 62,
            "name": "D4",
            "ticks": 9960,
            "time": 9.431808750000002,
            "velocity": 0.8267716535433071
          },
          {
            "duration": 0.0909089999999999,
            "durationTicks": 96,
            "midi": 60,
            "name": "C4",
            "ticks": 10080,
            "time": 9.545445,
            "velocity": 0.8267716535433071
          },
          {
            "duration": 0.0909089999999999,
            "durationTicks": 96,
            "midi": 62,
            "name": "D4",
            "ticks": 10080,
            "time": 9.545445,
            "velocity": 0.8267716535433071
          },
          {
            "duration": 0.0909089999999999,
            "durationTicks": 96,
            "midi": 60,
            "name": "C4",
            "ticks": 10200,
            "time": 9.659081250000002,
            "velocity": 0.8267716535433071
          },
          {
            "duration": 0.0909089999999999,
            "durationTicks": 96,
            "midi": 62,
            "name": "D4",
            "ticks": 10200,
            "time": 9.659081250000002,
            "velocity": 0.8267716535433071
          },
          {
            "duration": 0.0909089999999999,
            "durationTicks": 96,
            "midi": 60,
            "name": "C4",
            "ticks": 10320,
            "time": 9.7727175,
            "velocity": 0.8267716535433071
          },
          {
            "duration": 0.0909089999999999,
            "durationTicks": 96,
            "midi": 62,
            "name": "D4",
            "ticks": 10320,
            "time": 9.7727175,
            "velocity": 0.8267716535433071
          },
          {
            "duration": 0.0909089999999999,
            "durationTicks": 96,
            "midi": 60,
            "name": "C4",
            "ticks": 10440,
            "time": 9.886353750000001,
            "velocity": 0.8267716535433071
          },
          {
            "duration": 0.0909089999999999,
            "durationTicks": 96,
            "midi": 62,
            "name": "D4",
            "ticks": 10440,
            "time": 9.886353750000001,
            "velocity": 0.8267716535433071
          },
          {
            "duration": 0.09090899999999813,
            "durationTicks": 96,
            "midi": 60,
            "name": "C4",
            "ticks": 10560,
            "time": 9.999990000000002,
            "velocity": 0.8267716535433071
          },
          {
            "duration": 0.09090899999999813,
            "durationTicks": 96,
            "midi": 62,
            "name": "D4",
            "ticks": 10560,
            "time": 9.999990000000002,
            "velocity": 0.8267716535433071
          },
          {
            "duration": 0.0909089999999999,
            "durationTicks": 96,
            "midi": 60,
            "name": "C4",
            "ticks": 10680,
            "time": 10.113626250000001,
            "velocity": 0.8267716535433071
          },
          {
            "duration": 0.0909089999999999,
            "durationTicks": 96,
            "midi": 62,
            "name": "D4",
            "ticks": 10680,
            "time": 10.113626250000001,
            "velocity": 0.8267716535433071
          },
          {
            "duration": 0.0909089999999999,
            "durationTicks": 96,
            "midi": 60,
            "name": "C4",
            "ticks": 10800,
            "time": 10.227262500000002,
            "velocity": 0.8267716535433071
          },
          {
            "duration": 0.0909089999999999,
            "durationTicks": 96,
            "midi": 62,
            "name": "D4",
            "ticks": 10800,
            "time": 10.227262500000002,
            "velocity": 0.8267716535433071
          },
          {
            "duration": 0.0909089999999999,
            "durationTicks": 96,
            "midi": 60,
            "name": "C4",
            "ticks": 10920,
            "time": 10.340898750000001,
            "velocity": 0.8267716535433071
          },
          {
            "duration": 0.0909089999999999,
            "durationTicks": 96,
            "midi": 62,
            "name": "D4",
            "ticks": 10920,
            "time": 10.340898750000001,
            "velocity": 0.8267716535433071
          },
          {
            "duration": 0.0909089999999999,
            "durationTicks": 96,
            "midi": 60,
            "name": "C4",
            "ticks": 11040,
            "time": 10.454535000000002,
            "velocity": 0.8267716535433071
          },
          {
            "duration": 0.0909089999999999,
            "durationTicks": 96,
            "midi": 62,
            "name": "D4",
            "ticks": 11040,
            "time": 10.454535000000002,
            "velocity": 0.8267716535433071
          },
          {
            "duration": 0.0909089999999999,
            "durationTicks": 96,
            "midi": 60,
            "name": "C4",
            "ticks": 11160,
            "time": 10.56817125,
            "velocity": 0.8267716535433071
          },
          {
            "duration": 0.0909089999999999,
            "durationTicks": 96,
            "midi": 62,
            "name": "D4",
            "ticks": 11160,
            "time": 10.56817125,
            "velocity": 0.8267716535433071
          },
          {
            "duration": 0.0909089999999999,
            "durationTicks": 96,
            "midi": 60,
            "name": "C4",
            "ticks": 11280,
            "time": 10.681807500000001,
            "velocity": 0.8267716535433071
          },
          {
            "duration": 0.0909089999999999,
            "durationTicks": 96,
            "midi": 62,
            "name": "D4",
            "ticks": 11280,
            "time": 10.681807500000001,
            "velocity": 0.8267716535433071
          },
          {
            "duration": 0.09090899999999813,
            "durationTicks": 96,
            "midi": 60,
            "name": "C4",
            "ticks": 11400,
            "time": 10.795443750000002,
            "velocity": 0.8267716535433071
          },
          {
            "duration": 0.09090899999999813,
            "durationTicks": 96,
            "midi": 62,
            "name": "D4",
            "ticks": 11400,
            "time": 10.795443750000002,
            "velocity": 0.8267716535433071
          },
          {
            "duration": 0.0909089999999999,
            "durationTicks": 96,
            "midi": 59,
            "name": "B3",
            "ticks": 11520,
            "time": 10.909080000000001,
            "velocity": 0.8267716535433071
          },
          {
            "duration": 0.0909089999999999,
            "durationTicks": 96,
            "midi": 62,
            "name": "D4",
            "ticks": 11520,
            "time": 10.909080000000001,
            "velocity": 0.8267716535433071
          },
          {
            "duration": 0.0909089999999999,
            "durationTicks": 96,
            "midi": 59,
            "name": "B3",
            "ticks": 11640,
            "time": 11.022716250000002,
            "velocity": 0.8267716535433071
          },
          {
            "duration": 0.0909089999999999,
            "durationTicks": 96,
            "midi": 62,
            "name": "D4",
            "ticks": 11640,
            "time": 11.022716250000002,
            "velocity": 0.8267716535433071
          },
          {
            "duration": 0.0909089999999999,
            "durationTicks": 96,
            "midi": 59,
            "name": "B3",
            "ticks": 11760,
            "time": 11.136352500000001,
            "velocity": 0.8267716535433071
          },
          {
            "duration": 0.0909089999999999,
            "durationTicks": 96,
            "midi": 62,
            "name": "D4",
            "ticks": 11760,
            "time": 11.136352500000001,
            "velocity": 0.8267716535433071
          },
          {
            "duration": 0.0909089999999999,
            "durationTicks": 96,
            "midi": 59,
            "name": "B3",
            "ticks": 11880,
            "time": 11.249988750000002,
            "velocity": 0.8267716535433071
          },
          {
            "duration": 0.0909089999999999,
            "durationTicks": 96,
            "midi": 62,
            "name": "D4",
            "ticks": 11880,
            "time": 11.249988750000002,
            "velocity": 0.8267716535433071
          },
          {
            "duration": 0.0909089999999999,
            "durationTicks": 96,
            "midi": 59,
            "name": "B3",
            "ticks": 12000,
            "time": 11.363625,
            "velocity": 0.8267716535433071
          },
          {
            "duration": 0.0909089999999999,
            "durationTicks": 96,
            "midi": 62,
            "name": "D4",
            "ticks": 12000,
            "time": 11.363625,
            "velocity": 0.8267716535433071
          },
          {
            "duration": 0.0909089999999999,
            "durationTicks": 96,
            "midi": 59,
            "name": "B3",
            "ticks": 12120,
            "time": 11.477261250000002,
            "velocity": 0.8267716535433071
          },
          {
            "duration": 0.0909089999999999,
            "durationTicks": 96,
            "midi": 62,
            "name": "D4",
            "ticks": 12120,
            "time": 11.477261250000002,
            "velocity": 0.8267716535433071
          },
          {
            "duration": 0.09090899999999813,
            "durationTicks": 96,
            "midi": 59,
            "name": "B3",
            "ticks": 12240,
            "time": 11.590897500000002,
            "velocity": 0.8267716535433071
          },
          {
            "duration": 0.09090899999999813,
            "durationTicks": 96,
            "midi": 62,
            "name": "D4",
            "ticks": 12240,
            "time": 11.590897500000002,
            "velocity": 0.8267716535433071
          },
          {
            "duration": 0.0909089999999999,
            "durationTicks": 96,
            "midi": 59,
            "name": "B3",
            "ticks": 12360,
            "time": 11.704533750000001,
            "velocity": 0.8267716535433071
          },
          {
            "duration": 0.0909089999999999,
            "durationTicks": 96,
            "midi": 62,
            "name": "D4",
            "ticks": 12360,
            "time": 11.704533750000001,
            "velocity": 0.8267716535433071
          },
          {
            "duration": 0.0909089999999999,
            "durationTicks": 96,
            "midi": 59,
            "name": "B3",
            "ticks": 12480,
            "time": 11.818170000000002,
            "velocity": 0.8267716535433071
          },
          {
            "duration": 0.0909089999999999,
            "durationTicks": 96,
            "midi": 62,
            "name": "D4",
            "ticks": 12480,
            "time": 11.818170000000002,
            "velocity": 0.8267716535433071
          },
          {
            "duration": 0.0909089999999999,
            "durationTicks": 96,
            "midi": 59,
            "name": "B3",
            "ticks": 12600,
            "time": 11.931806250000001,
            "velocity": 0.8267716535433071
          },
          {
            "duration": 0.0909089999999999,
            "durationTicks": 96,
            "midi": 62,
            "name": "D4",
            "ticks": 12600,
            "time": 11.931806250000001,
            "velocity": 0.8267716535433071
          },
          {
            "duration": 0.0909089999999999,
            "durationTicks": 96,
            "midi": 59,
            "name": "B3",
            "ticks": 12720,
            "time": 12.045442500000002,
            "velocity": 0.8267716535433071
          },
          {
            "duration": 0.0909089999999999,
            "durationTicks": 96,
            "midi": 62,
            "name": "D4",
            "ticks": 12720,
            "time": 12.045442500000002,
            "velocity": 0.8267716535433071
          },
          {
            "duration": 0.0909089999999999,
            "durationTicks": 96,
            "midi": 59,
            "name": "B3",
            "ticks": 12840,
            "time": 12.15907875,
            "velocity": 0.8267716535433071
          },
          {
            "duration": 0.0909089999999999,
            "durationTicks": 96,
            "midi": 62,
            "name": "D4",
            "ticks": 12840,
            "time": 12.15907875,
            "velocity": 0.8267716535433071
          },
          {
            "duration": 0.0909089999999999,
            "durationTicks": 96,
            "midi": 59,
            "name": "B3",
            "ticks": 12960,
            "time": 12.272715000000002,
            "velocity": 0.8267716535433071
          },
          {
            "duration": 0.0909089999999999,
            "durationTicks": 96,
            "midi": 62,
            "name": "D4",
            "ticks": 12960,
            "time": 12.272715000000002,
            "velocity": 0.8267716535433071
          },
          {
            "duration": 0.09090899999999813,
            "durationTicks": 96,
            "midi": 59,
            "name": "B3",
            "ticks": 13080,
            "time": 12.386351250000002,
            "velocity": 0.8267716535433071
          },
          {
            "duration": 0.09090899999999813,
            "durationTicks": 96,
            "midi": 62,
            "name": "D4",
            "ticks": 13080,
            "time": 12.386351250000002,
            "velocity": 0.8267716535433071
          },
          {
            "duration": 0.0909089999999999,
            "durationTicks": 96,
            "midi": 59,
            "name": "B3",
            "ticks": 13200,
            "time": 12.499987500000001,
            "velocity": 0.8267716535433071
          },
          {
            "duration": 0.0909089999999999,
            "durationTicks": 96,
            "midi": 62,
            "name": "D4",
            "ticks": 13200,
            "time": 12.499987500000001,
            "velocity": 0.8267716535433071
          },
          {
            "duration": 0.0909089999999999,
            "durationTicks": 96,
            "midi": 59,
            "name": "B3",
            "ticks": 13320,
            "time": 12.613623750000002,
            "velocity": 0.8267716535433071
          },
          {
            "duration": 0.0909089999999999,
            "durationTicks": 96,
            "midi": 62,
            "name": "D4",
            "ticks": 13320,
            "time": 12.613623750000002,
            "velocity": 0.8267716535433071
          },
          {
            "duration": 0.0909089999999999,
            "durationTicks": 96,
            "midi": 60,
            "name": "C4",
            "ticks": 13440,
            "time": 12.727260000000001,
            "velocity": 0.8267716535433071
          },
          {
            "duration": 0.0909089999999999,
            "durationTicks": 96,
            "midi": 62,
            "name": "D4",
            "ticks": 13440,
            "time": 12.727260000000001,
            "velocity": 0.8267716535433071
          },
          {
            "duration": 0.0909089999999999,
            "durationTicks": 96,
            "midi": 60,
            "name": "C4",
            "ticks": 13560,
            "time": 12.840896250000002,
            "velocity": 0.8267716535433071
          },
          {
            "duration": 0.0909089999999999,
            "durationTicks": 96,
            "midi": 62,
            "name": "D4",
            "ticks": 13560,
            "time": 12.840896250000002,
            "velocity": 0.8267716535433071
          },
          {
            "duration": 0.0909089999999999,
            "durationTicks": 96,
            "midi": 60,
            "name": "C4",
            "ticks": 13680,
            "time": 12.954532500000001,
            "velocity": 0.8267716535433071
          },
          {
            "duration": 0.0909089999999999,
            "durationTicks": 96,
            "midi": 62,
            "name": "D4",
            "ticks": 13680,
            "time": 12.954532500000001,
            "velocity": 0.8267716535433071
          },
          {
            "duration": 0.0909089999999999,
            "durationTicks": 96,
            "midi": 60,
            "name": "C4",
            "ticks": 13800,
            "time": 13.068168750000002,
            "velocity": 0.8267716535433071
          },
          {
            "duration": 0.0909089999999999,
            "durationTicks": 96,
            "midi": 62,
            "name": "D4",
            "ticks": 13800,
            "time": 13.068168750000002,
            "velocity": 0.8267716535433071
          },
          {
            "duration": 0.09090899999999813,
            "durationTicks": 96,
            "midi": 60,
            "name": "C4",
            "ticks": 13920,
            "time": 13.181805000000002,
            "velocity": 0.8267716535433071
          },
          {
            "duration": 0.09090899999999813,
            "durationTicks": 96,
            "midi": 62,
            "name": "D4",
            "ticks": 13920,
            "time": 13.181805000000002,
            "velocity": 0.8267716535433071
          },
          {
            "duration": 0.0909089999999999,
            "durationTicks": 96,
            "midi": 60,
            "name": "C4",
            "ticks": 14040,
            "time": 13.295441250000001,
            "velocity": 0.8267716535433071
          },
          {
            "duration": 0.0909089999999999,
            "durationTicks": 96,
            "midi": 62,
            "name": "D4",
            "ticks": 14040,
            "time": 13.295441250000001,
            "velocity": 0.8267716535433071
          },
          {
            "duration": 0.0909089999999999,
            "durationTicks": 96,
            "midi": 60,
            "name": "C4",
            "ticks": 14160,
            "time": 13.409077500000002,
            "velocity": 0.8267716535433071
          },
          {
            "duration": 0.0909089999999999,
            "durationTicks": 96,
            "midi": 62,
            "name": "D4",
            "ticks": 14160,
            "time": 13.409077500000002,
            "velocity": 0.8267716535433071
          },
          {
            "duration": 0.0909089999999999,
            "durationTicks": 96,
            "midi": 60,
            "name": "C4",
            "ticks": 14280,
            "time": 13.522713750000001,
            "velocity": 0.8267716535433071
          },
          {
            "duration": 0.0909089999999999,
            "durationTicks": 96,
            "midi": 62,
            "name": "D4",
            "ticks": 14280,
            "time": 13.522713750000001,
            "velocity": 0.8267716535433071
          },
          {
            "duration": 0.0909089999999999,
            "durationTicks": 96,
            "midi": 60,
            "name": "C4",
            "ticks": 14400,
            "time": 13.636350000000002,
            "velocity": 0.8267716535433071
          },
          {
            "duration": 0.0909089999999999,
            "durationTicks": 96,
            "midi": 62,
            "name": "D4",
            "ticks": 14400,
            "time": 13.636350000000002,
            "velocity": 0.8267716535433071
          },
          {
            "duration": 0.0909089999999999,
            "durationTicks": 96,
            "midi": 60,
            "name": "C4",
            "ticks": 14520,
            "time": 13.749986250000001,
            "velocity": 0.8267716535433071
          },
          {
            "duration": 0.0909089999999999,
            "durationTicks": 96,
            "midi": 62,
            "name": "D4",
            "ticks": 14520,
            "time": 13.749986250000001,
            "velocity": 0.8267716535433071
          },
          {
            "duration": 0.0909089999999999,
            "durationTicks": 96,
            "midi": 60,
            "name": "C4",
            "ticks": 14640,
            "time": 13.863622500000002,
            "velocity": 0.8267716535433071
          },
          {
            "duration": 0.0909089999999999,
            "durationTicks": 96,
            "midi": 62,
            "name": "D4",
            "ticks": 14640,
            "time": 13.863622500000002,
            "velocity": 0.8267716535433071
          },
          {
            "duration": 0.09090899999999813,
            "durationTicks": 96,
            "midi": 60,
            "name": "C4",
            "ticks": 14760,
            "time": 13.977258750000003,
            "velocity": 0.8267716535433071
          },
          {
            "duration": 0.09090899999999813,
            "durationTicks": 96,
            "midi": 62,
            "name": "D4",
            "ticks": 14760,
            "time": 13.977258750000003,
            "velocity": 0.8267716535433071
          },
          {
            "duration": 0.0909089999999999,
            "durationTicks": 96,
            "midi": 60,
            "name": "C4",
            "ticks": 14880,
            "time": 14.090895000000002,
            "velocity": 0.8267716535433071
          },
          {
            "duration": 0.0909089999999999,
            "durationTicks": 96,
            "midi": 62,
            "name": "D4",
            "ticks": 14880,
            "time": 14.090895000000002,
            "velocity": 0.8267716535433071
          },
          {
            "duration": 0.0909089999999999,
            "durationTicks": 96,
            "midi": 60,
            "name": "C4",
            "ticks": 15000,
            "time": 14.204531250000002,
            "velocity": 0.8267716535433071
          },
          {
            "duration": 0.0909089999999999,
            "durationTicks": 96,
            "midi": 62,
            "name": "D4",
            "ticks": 15000,
            "time": 14.204531250000002,
            "velocity": 0.8267716535433071
          },
          {
            "duration": 0.0909089999999999,
            "durationTicks": 96,
            "midi": 60,
            "name": "C4",
            "ticks": 15120,
            "time": 14.318167500000001,
            "velocity": 0.8267716535433071
          },
          {
            "duration": 0.0909089999999999,
            "durationTicks": 96,
            "midi": 62,
            "name": "D4",
            "ticks": 15120,
            "time": 14.318167500000001,
            "velocity": 0.8267716535433071
          },
          {
            "duration": 0.0909089999999999,
            "durationTicks": 96,
            "midi": 60,
            "name": "C4",
            "ticks": 15240,
            "time": 14.431803750000002,
            "velocity": 0.8267716535433071
          },
          {
            "duration": 0.0909089999999999,
            "durationTicks": 96,
            "midi": 62,
            "name": "D4",
            "ticks": 15240,
            "time": 14.431803750000002,
            "velocity": 0.8267716535433071
          },
          {
            "duration": 0.3636360000000014,
            "durationTicks": 384,
            "midi": 59,
            "name": "B3",
            "ticks": 15360,
            "time": 14.545440000000001,
            "velocity": 0.8267716535433071
          },
          {
            "duration": 0.3636360000000014,
            "durationTicks": 384,
            "midi": 62,
            "name": "D4",
            "ticks": 15360,
            "time": 14.545440000000001,
            "velocity": 0.8267716535433071
          },
          {
            "duration": 0.13636349999999986,
            "durationTicks": 144,
            "midi": 72,
            "name": "C5",
            "ticks": 15840,
            "time": 14.999985000000002,
            "velocity": 0.8267716535433071
          },
          {
            "duration": 0.13636349999999986,
            "durationTicks": 144,
            "midi": 72,
            "name": "C5",
            "ticks": 16080,
            "time": 15.227257500000002,
            "velocity": 0.8267716535433071
          },
          {
            "duration": 0.13636349999999808,
            "durationTicks": 144,
            "midi": 74,
            "name": "D5",
            "ticks": 16320,
            "time": 15.454530000000002,
            "velocity": 0.8267716535433071
          },
          {
            "duration": 0.13636349999999808,
            "durationTicks": 144,
            "midi": 74,
            "name": "D5",
            "ticks": 16560,
            "time": 15.681802500000002,
            "velocity": 0.8267716535433071
          },
          {
            "duration": 0.227272499999998,
            "durationTicks": 240,
            "midi": 72,
            "name": "C5",
            "ticks": 16800,
            "time": 15.909075000000001,
            "velocity": 0.8267716535433071
          },
          {
            "duration": 0.11363625000000255,
            "durationTicks": 120,
            "midi": 71,
            "name": "B4",
            "ticks": 17040,
            "time": 16.1363475,
            "velocity": 0.8267716535433071
          },
          {
            "duration": 0.0909089999999999,
            "durationTicks": 96,
            "midi": 69,
            "name": "A4",
            "ticks": 17160,
            "time": 16.249983750000002,
            "velocity": 0.8267716535433071
          },
          {
            "duration": 0.13636349999999808,
            "durationTicks": 144,
            "midi": 67,
            "name": "G4",
            "ticks": 17280,
            "time": 16.36362,
            "velocity": 0.8267716535433071
          },
          {
            "duration": 0.13636349999999808,
            "durationTicks": 144,
            "midi": 67,
            "name": "G4",
            "ticks": 17520,
            "time": 16.590892500000002,
            "velocity": 0.8267716535433071
          },
          {
            "duration": 0.13636349999999808,
            "durationTicks": 144,
            "midi": 66,
            "name": "F#4",
            "ticks": 17760,
            "time": 16.818165,
            "velocity": 0.8267716535433071
          },
          {
            "duration": 0.13636350000000164,
            "durationTicks": 144,
            "midi": 66,
            "name": "F#4",
            "ticks": 18000,
            "time": 17.0454375,
            "velocity": 0.8267716535433071
          },
          {
            "duration": 0.3636359999999996,
            "durationTicks": 384,
            "midi": 67,
            "name": "G4",
            "ticks": 18240,
            "time": 17.27271,
            "velocity": 0.7244094488188977
          },
          {
            "duration": 0.9090900000000026,
            "durationTicks": 960,
            "midi": 71,
            "name": "B4",
            "ticks": 19200,
            "time": 18.1818,
            "velocity": 0.4566929133858268
          },
          {
            "duration": 0.7272719999999993,
            "durationTicks": 768,
            "midi": 72,
            "name": "C5",
            "ticks": 20160,
            "time": 19.09089,
            "velocity": 0.4566929133858268
          },
          {
            "duration": 0.113636249999999,
            "durationTicks": 120,
            "midi": 71,
            "name": "B4",
            "ticks": 21120,
            "time": 19.99998,
            "velocity": 0.4566929133858268
          },
          {
            "duration": 0.22159068750000088,
            "durationTicks": 234,
            "midi": 69,
            "name": "A4",
            "ticks": 21240,
            "time": 20.11361625,
            "velocity": 0.4566929133858268
          },
          {
            "duration": 0.2954542499999988,
            "durationTicks": 312,
            "midi": 69,
            "name": "A4",
            "ticks": 21600,
            "time": 20.454525,
            "velocity": 0.4566929133858268
          },
          {
            "duration": 0.113636249999999,
            "durationTicks": 120,
            "midi": 69,
            "name": "A4",
            "ticks": 22080,
            "time": 20.90907,
            "velocity": 0.4566929133858268
          },
          {
            "duration": 0.22159068750000088,
            "durationTicks": 234,
            "midi": 67,
            "name": "G4",
            "ticks": 22200,
            "time": 21.02270625,
            "velocity": 0.4566929133858268
          },
          {
            "duration": 0.2954542499999988,
            "durationTicks": 312,
            "midi": 67,
            "name": "G4",
            "ticks": 22560,
            "time": 21.363615,
            "velocity": 0.4566929133858268
          },
          {
            "duration": 0.29545425000000236,
            "durationTicks": 312,
            "midi": 64,
            "name": "E4",
            "ticks": 23040,
            "time": 21.81816,
            "velocity": 0.4566929133858268
          },
          {
            "duration": 0.2954542499999988,
            "durationTicks": 312,
            "midi": 64,
            "name": "E4",
            "ticks": 23520,
            "time": 22.272705000000002,
            "velocity": 0.4566929133858268
          },
          {
            "duration": 0.2954542499999988,
            "durationTicks": 312,
            "midi": 60,
            "name": "C4",
            "ticks": 24000,
            "time": 22.72725,
            "velocity": 0.4566929133858268
          },
          {
            "duration": 0.2954542499999988,
            "durationTicks": 312,
            "midi": 57,
            "name": "A3",
            "ticks": 24480,
            "time": 23.181795,
            "velocity": 0.4566929133858268
          },
          {
            "duration": 0.1818179999999998,
            "durationTicks": 192,
            "midi": 62,
            "name": "D4",
            "ticks": 24960,
            "time": 23.63634,
            "velocity": 0.4566929133858268
          },
          {
            "duration": 0.1818179999999998,
            "durationTicks": 192,
            "midi": 66,
            "name": "F#4",
            "ticks": 25440,
            "time": 24.090885,
            "velocity": 0.4566929133858268
          },
          {
            "duration": 0.1818179999999998,
            "durationTicks": 192,
            "midi": 67,
            "name": "G4",
            "ticks": 25920,
            "time": 24.54543,
            "velocity": 0.4566929133858268
          },
          {
            "duration": 0.9090899999999991,
            "durationTicks": 960,
            "midi": 71,
            "name": "B4",
            "ticks": 26880,
            "time": 25.454520000000002,
            "velocity": 0.4566929133858268
          },
          {
            "duration": 0.7272719999999993,
            "durationTicks": 768,
            "midi": 72,
            "name": "C5",
            "ticks": 27840,
            "time": 26.36361,
            "velocity": 0.4566929133858268
          },
          {
            "duration": 0.22727250000000154,
            "durationTicks": 240,
            "midi": 71,
            "name": "B4",
            "ticks": 28800,
            "time": 27.2727,
            "velocity": 0.4566929133858268
          },
          {
            "duration": 0.1477271249999994,
            "durationTicks": 156,
            "midi": 69,
            "name": "A4",
            "ticks": 29040,
            "time": 27.499972500000002,
            "velocity": 0.4566929133858268
          },
          {
            "duration": 0.14772712500000296,
            "durationTicks": 156,
            "midi": 69,
            "name": "A4",
            "ticks": 29280,
            "time": 27.727245,
            "velocity": 0.4566929133858268
          },
          {
            "duration": 0.1477271249999994,
            "durationTicks": 156,
            "midi": 69,
            "name": "A4",
            "ticks": 29520,
            "time": 27.9545175,
            "velocity": 0.4566929133858268
          },
          {
            "duration": 0.22727250000000154,
            "durationTicks": 240,
            "midi": 69,
            "name": "A4",
            "ticks": 29760,
            "time": 28.18179,
            "velocity": 0.4566929133858268
          },
          {
            "duration": 0.14772712500000296,
            "durationTicks": 156,
            "midi": 67,
            "name": "G4",
            "ticks": 30000,
            "time": 28.4090625,
            "velocity": 0.4566929133858268
          },
          {
            "duration": 0.1477271249999994,
            "durationTicks": 156,
            "midi": 67,
            "name": "G4",
            "ticks": 30240,
            "time": 28.636335000000003,
            "velocity": 0.4566929133858268
          },
          {
            "duration": 0.14772712500000296,
            "durationTicks": 156,
            "midi": 67,
            "name": "G4",
            "ticks": 30480,
            "time": 28.8636075,
            "velocity": 0.4566929133858268
          },
          {
            "duration": 0.2954542499999988,
            "durationTicks": 312,
            "midi": 64,
            "name": "E4",
            "ticks": 30720,
            "time": 29.090880000000002,
            "velocity": 0.4566929133858268
          },
          {
            "duration": 0.1477271249999994,
            "durationTicks": 156,
            "midi": 64,
            "name": "E4",
            "ticks": 31200,
            "time": 29.545425,
            "velocity": 0.4566929133858268
          },
          {
            "duration": 0.14772712500000296,
            "durationTicks": 156,
            "midi": 64,
            "name": "E4",
            "ticks": 31440,
            "time": 29.7726975,
            "velocity": 0.4566929133858268
          },
          {
            "duration": 0.29545425000000236,
            "durationTicks": 312,
            "midi": 60,
            "name": "C4",
            "ticks": 31680,
            "time": 29.99997,
            "velocity": 0.4566929133858268
          },
          {
            "duration": 0.14772712500000296,
            "durationTicks": 156,
            "midi": 60,
            "name": "C4",
            "ticks": 32160,
            "time": 30.454515,
            "velocity": 0.4566929133858268
          },
          {
            "duration": 0.1477271249999994,
            "durationTicks": 156,
            "midi": 60,
            "name": "C4",
            "ticks": 32400,
            "time": 30.681787500000002,
            "velocity": 0.4566929133858268
          },
          {
            "duration": 1.0909080000000024,
            "durationTicks": 1152,
            "midi": 59,
            "name": "B3",
            "ticks": 32640,
            "time": 30.90906,
            "velocity": 0.952755905511811
          },
          {
            "duration": 0.0568181249999995,
            "durationTicks": 60,
            "midi": 60,
            "name": "C4",
            "ticks": 33840,
            "time": 32.0454225,
            "velocity": 0.5669291338582677
          },
          {
            "duration": 0.0568181249999995,
            "durationTicks": 60,
            "midi": 59,
            "name": "B3",
            "ticks": 33900,
            "time": 32.102240625,
            "velocity": 0.5669291338582677
          },
          {
            "duration": 0.0568181250000066,
            "durationTicks": 60,
            "midi": 57,
            "name": "A3",
            "ticks": 33960,
            "time": 32.15905875,
            "velocity": 0.5669291338582677
          },
          {
            "duration": 0.0568181249999995,
            "durationTicks": 60,
            "midi": 59,
            "name": "B3",
            "ticks": 34020,
            "time": 32.215876875000006,
            "velocity": 0.5669291338582677
          },
          {
            "duration": 0.227272499999998,
            "durationTicks": 240,
            "midi": 60,
            "name": "C4",
            "ticks": 34080,
            "time": 32.272695000000006,
            "velocity": 0.5669291338582677
          },
          {
            "duration": 0.1818179999999998,
            "durationTicks": 192,
            "midi": 57,
            "name": "A3",
            "ticks": 34320,
            "time": 32.499967500000004,
            "velocity": 0.5669291338582677
          },
          {
            "duration": 1.0909079999999989,
            "durationTicks": 1152,
            "midi": 67,
            "name": "G4",
            "ticks": 34560,
            "time": 32.72724,
            "velocity": 0.952755905511811
          },
          {
            "duration": 0.0568181249999995,
            "durationTicks": 60,
            "midi": 69,
            "name": "A4",
            "ticks": 35760,
            "time": 33.8636025,
            "velocity": 0.5669291338582677
          },
          {
            "duration": 0.0568181249999995,
            "durationTicks": 60,
            "midi": 67,
            "name": "G4",
            "ticks": 35820,
            "time": 33.920420625,
            "velocity": 0.5669291338582677
          },
          {
            "duration": 0.0568181250000066,
            "durationTicks": 60,
            "midi": 66,
            "name": "F#4",
            "ticks": 35880,
            "time": 33.97723875,
            "velocity": 0.5669291338582677
          },
          {
            "duration": 0.0568181249999995,
            "durationTicks": 60,
            "midi": 67,
            "name": "G4",
            "ticks": 35940,
            "time": 34.034056875000005,
            "velocity": 0.5669291338582677
          },
          {
            "duration": 0.227272499999998,
            "durationTicks": 240,
            "midi": 69,
            "name": "A4",
            "ticks": 36000,
            "time": 34.090875000000004,
            "velocity": 0.5669291338582677
          },
          {
            "duration": 0.1818179999999998,
            "durationTicks": 192,
            "midi": 66,
            "name": "F#4",
            "ticks": 36240,
            "time": 34.3181475,
            "velocity": 0.5669291338582677
          },
          {
            "duration": 0.09090900000000346,
            "durationTicks": 96,
            "midi": 71,
            "name": "B4",
            "ticks": 36480,
            "time": 34.54542,
            "velocity": 0.5669291338582677
          },
          {
            "duration": 0.09090900000000346,
            "durationTicks": 96,
            "midi": 71,
            "name": "B4",
            "ticks": 36600,
            "time": 34.65905625,
            "velocity": 0.5669291338582677
          },
          {
            "duration": 0.09090900000000346,
            "durationTicks": 96,
            "midi": 71,
            "name": "B4",
            "ticks": 36720,
            "time": 34.7726925,
            "velocity": 0.5669291338582677
          },
          {
            "duration": 0.09090899999999635,
            "durationTicks": 96,
            "midi": 71,
            "name": "B4",
            "ticks": 36840,
            "time": 34.886328750000004,
            "velocity": 0.5669291338582677
          },
          {
            "duration": 0.09090899999999635,
            "durationTicks": 96,
            "midi": 71,
            "name": "B4",
            "ticks": 36960,
            "time": 34.999965,
            "velocity": 0.5669291338582677
          },
          {
            "duration": 0.09090900000000346,
            "durationTicks": 96,
            "midi": 71,
            "name": "B4",
            "ticks": 37080,
            "time": 35.11360125,
            "velocity": 0.5669291338582677
          },
          {
            "duration": 0.09090900000000346,
            "durationTicks": 96,
            "midi": 71,
            "name": "B4",
            "ticks": 37200,
            "time": 35.2272375,
            "velocity": 0.5669291338582677
          },
          {
            "duration": 0.09090900000000346,
            "durationTicks": 96,
            "midi": 71,
            "name": "B4",
            "ticks": 37320,
            "time": 35.34087375,
            "velocity": 0.5669291338582677
          },
          {
            "duration": 0.09090900000000346,
            "durationTicks": 96,
            "midi": 72,
            "name": "C5",
            "ticks": 37440,
            "time": 35.45451,
            "velocity": 0.6377952755905512
          },
          {
            "duration": 0.09090900000000346,
            "durationTicks": 96,
            "midi": 72,
            "name": "C5",
            "ticks": 37560,
            "time": 35.56814625,
            "velocity": 0.6377952755905512
          },
          {
            "duration": 0.09090899999999635,
            "durationTicks": 96,
            "midi": 72,
            "name": "C5",
            "ticks": 37680,
            "time": 35.681782500000004,
            "velocity": 0.6377952755905512
          },
          {
            "duration": 0.09090899999999635,
            "durationTicks": 96,
            "midi": 72,
            "name": "C5",
            "ticks": 37800,
            "time": 35.79541875,
            "velocity": 0.6377952755905512
          },
          {
            "duration": 0.09090900000000346,
            "durationTicks": 96,
            "midi": 72,
            "name": "C5",
            "ticks": 37920,
            "time": 35.909055,
            "velocity": 0.6377952755905512
          },
          {
            "duration": 0.09090900000000346,
            "durationTicks": 96,
            "midi": 72,
            "name": "C5",
            "ticks": 38040,
            "time": 36.02269125,
            "velocity": 0.6377952755905512
          },
          {
            "duration": 0.09090900000000346,
            "durationTicks": 96,
            "midi": 72,
            "name": "C5",
            "ticks": 38160,
            "time": 36.1363275,
            "velocity": 0.6377952755905512
          },
          {
            "duration": 0.09090900000000346,
            "durationTicks": 96,
            "midi": 72,
            "name": "C5",
            "ticks": 38280,
            "time": 36.24996375,
            "velocity": 0.6377952755905512
          },
          {
            "duration": 0.09090900000000346,
            "durationTicks": 96,
            "midi": 71,
            "name": "B4",
            "ticks": 38400,
            "time": 36.3636,
            "velocity": 0.7244094488188977
          },
          {
            "duration": 0.09090899999999635,
            "durationTicks": 96,
            "midi": 71,
            "name": "B4",
            "ticks": 38520,
            "time": 36.477236250000004,
            "velocity": 0.7244094488188977
          },
          {
            "duration": 0.09090899999999635,
            "durationTicks": 96,
            "midi": 71,
            "name": "B4",
            "ticks": 38640,
            "time": 36.5908725,
            "velocity": 0.7244094488188977
          },
          {
            "duration": 0.09090900000000346,
            "durationTicks": 96,
            "midi": 71,
            "name": "B4",
            "ticks": 38760,
            "time": 36.70450875,
            "velocity": 0.7244094488188977
          },
          {
            "duration": 0.09090900000000346,
            "durationTicks": 96,
            "midi": 74,
            "name": "D5",
            "ticks": 38880,
            "time": 36.818145,
            "velocity": 0.7244094488188977
          },
          {
            "duration": 0.09090900000000346,
            "durationTicks": 96,
            "midi": 74,
            "name": "D5",
            "ticks": 39000,
            "time": 36.93178125,
            "velocity": 0.7244094488188977
          },
          {
            "duration": 0.09090900000000346,
            "durationTicks": 96,
            "midi": 74,
            "name": "D5",
            "ticks": 39120,
            "time": 37.0454175,
            "velocity": 0.7244094488188977
          },
          {
            "duration": 0.09090900000000346,
            "durationTicks": 96,
            "midi": 74,
            "name": "D5",
            "ticks": 39240,
            "time": 37.15905375,
            "velocity": 0.8267716535433071
          },
          {
            "duration": 0.09090899999999635,
            "durationTicks": 96,
            "midi": 74,
            "name": "D5",
            "ticks": 39360,
            "time": 37.272690000000004,
            "velocity": 0.8267716535433071
          },
          {
            "duration": 0.09090899999999635,
            "durationTicks": 96,
            "midi": 74,
            "name": "D5",
            "ticks": 39480,
            "time": 37.38632625,
            "velocity": 0.8267716535433071
          },
          {
            "duration": 0.09090900000000346,
            "durationTicks": 96,
            "midi": 74,
            "name": "D5",
            "ticks": 39600,
            "time": 37.4999625,
            "velocity": 0.8267716535433071
          },
          {
            "duration": 0.09090900000000346,
            "durationTicks": 96,
            "midi": 74,
            "name": "D5",
            "ticks": 39720,
            "time": 37.61359875,
            "velocity": 0.8267716535433071
          },
          {
            "duration": 0.09090900000000346,
            "durationTicks": 96,
            "midi": 79,
            "name": "G5",
            "ticks": 39840,
            "time": 37.727235,
            "velocity": 0.8267716535433071
          },
          {
            "duration": 0.09090900000000346,
            "durationTicks": 96,
            "midi": 79,
            "name": "G5",
            "ticks": 39960,
            "time": 37.84087125,
            "velocity": 0.8267716535433071
          },
          {
            "duration": 0.09090900000000346,
            "durationTicks": 96,
            "midi": 79,
            "name": "G5",
            "ticks": 40080,
            "time": 37.9545075,
            "velocity": 0.8267716535433071
          },
          {
            "duration": 0.09090899999999635,
            "durationTicks": 96,
            "midi": 79,
            "name": "G5",
            "ticks": 40200,
            "time": 38.068143750000004,
            "velocity": 0.8267716535433071
          },
          {
            "duration": 0.09090899999999635,
            "durationTicks": 96,
            "midi": 78,
            "name": "F#5",
            "ticks": 40320,
            "time": 38.18178,
            "velocity": 0.8267716535433071
          },
          {
            "duration": 0.09090900000000346,
            "durationTicks": 96,
            "midi": 78,
            "name": "F#5",
            "ticks": 40440,
            "time": 38.29541625,
            "velocity": 0.8267716535433071
          },
          {
            "duration": 0.09090900000000346,
            "durationTicks": 96,
            "midi": 78,
            "name": "F#5",
            "ticks": 40560,
            "time": 38.4090525,
            "velocity": 0.8267716535433071
          },
          {
            "duration": 0.09090900000000346,
            "durationTicks": 96,
            "midi": 78,
            "name": "F#5",
            "ticks": 40680,
            "time": 38.52268875,
            "velocity": 0.8267716535433071
          },
          {
            "duration": 0.09090900000000346,
            "durationTicks": 96,
            "midi": 78,
            "name": "F#5",
            "ticks": 40800,
            "time": 38.636325,
            "velocity": 0.8267716535433071
          },
          {
            "duration": 0.09090900000000346,
            "durationTicks": 96,
            "midi": 78,
            "name": "F#5",
            "ticks": 40920,
            "time": 38.74996125,
            "velocity": 0.8267716535433071
          },
          {
            "duration": 0.09090899999999635,
            "durationTicks": 96,
            "midi": 78,
            "name": "F#5",
            "ticks": 41040,
            "time": 38.863597500000004,
            "velocity": 0.8267716535433071
          },
          {
            "duration": 0.09090899999999635,
            "durationTicks": 96,
            "midi": 78,
            "name": "F#5",
            "ticks": 41160,
            "time": 38.97723375,
            "velocity": 0.8267716535433071
          },
          {
            "duration": 0.09090900000000346,
            "durationTicks": 96,
            "midi": 79,
            "name": "G5",
            "ticks": 41280,
            "time": 39.09087,
            "velocity": 0.8267716535433071
          },
          {
            "duration": 0.09090900000000346,
            "durationTicks": 96,
            "midi": 79,
            "name": "G5",
            "ticks": 41400,
            "time": 39.20450625,
            "velocity": 0.8267716535433071
          },
          {
            "duration": 0.09090900000000346,
            "durationTicks": 96,
            "midi": 79,
            "name": "G5",
            "ticks": 41520,
            "time": 39.3181425,
            "velocity": 0.8267716535433071
          },
          {
            "duration": 0.09090900000000346,
            "durationTicks": 96,
            "midi": 79,
            "name": "G5",
            "ticks": 41640,
            "time": 39.43177875,
            "velocity": 0.8267716535433071
          },
          {
            "duration": 0.09090900000000346,
            "durationTicks": 96,
            "midi": 79,
            "name": "G5",
            "ticks": 41760,
            "time": 39.545415,
            "velocity": 0.8267716535433071
          },
          {
            "duration": 0.09090899999999635,
            "durationTicks": 96,
            "midi": 79,
            "name": "G5",
            "ticks": 41880,
            "time": 39.659051250000005,
            "velocity": 0.8267716535433071
          },
          {
            "duration": 0.09090899999999635,
            "durationTicks": 96,
            "midi": 79,
            "name": "G5",
            "ticks": 42000,
            "time": 39.7726875,
            "velocity": 0.8267716535433071
          },
          {
            "duration": 0.09090900000000346,
            "durationTicks": 96,
            "midi": 79,
            "name": "G5",
            "ticks": 42120,
            "time": 39.88632375,
            "velocity": 0.8267716535433071
          },
          {
            "duration": 0.09090900000000346,
            "durationTicks": 96,
            "midi": 78,
            "name": "F#5",
            "ticks": 42240,
            "time": 39.99996,
            "velocity": 0.8267716535433071
          },
          {
            "duration": 0.09090900000000346,
            "durationTicks": 96,
            "midi": 78,
            "name": "F#5",
            "ticks": 42360,
            "time": 40.11359625,
            "velocity": 0.8267716535433071
          },
          {
            "duration": 0.09090900000000346,
            "durationTicks": 96,
            "midi": 78,
            "name": "F#5",
            "ticks": 42480,
            "time": 40.2272325,
            "velocity": 0.8267716535433071
          },
          {
            "duration": 0.09090900000000346,
            "durationTicks": 96,
            "midi": 78,
            "name": "F#5",
            "ticks": 42600,
            "time": 40.34086875,
            "velocity": 0.8267716535433071
          },
          {
            "duration": 0.09090899999999635,
            "durationTicks": 96,
            "midi": 78,
            "name": "F#5",
            "ticks": 42720,
            "time": 40.454505000000005,
            "velocity": 0.8267716535433071
          },
          {
            "duration": 0.09090899999999635,
            "durationTicks": 96,
            "midi": 78,
            "name": "F#5",
            "ticks": 42840,
            "time": 40.568141250000004,
            "velocity": 0.8267716535433071
          },
          {
            "duration": 0.09090900000000346,
            "durationTicks": 96,
            "midi": 78,
            "name": "F#5",
            "ticks": 42960,
            "time": 40.6817775,
            "velocity": 0.8267716535433071
          },
          {
            "duration": 0.09090900000000346,
            "durationTicks": 96,
            "midi": 78,
            "name": "F#5",
            "ticks": 43080,
            "time": 40.79541375,
            "velocity": 0.8267716535433071
          },
          {
            "duration": 0.09090900000000346,
            "durationTicks": 96,
            "midi": 79,
            "name": "G5",
            "ticks": 43200,
            "time": 40.90905,
            "velocity": 0.8267716535433071
          },
          {
            "duration": 0.09090900000000346,
            "durationTicks": 96,
            "midi": 79,
            "name": "G5",
            "ticks": 43320,
            "time": 41.02268625,
            "velocity": 0.8267716535433071
          },
          {
            "duration": 0.09090900000000346,
            "durationTicks": 96,
            "midi": 79,
            "name": "G5",
            "ticks": 43440,
            "time": 41.1363225,
            "velocity": 0.8267716535433071
          },
          {
            "duration": 0.09090899999999635,
            "durationTicks": 96,
            "midi": 79,
            "name": "G5",
            "ticks": 43560,
            "time": 41.249958750000005,
            "velocity": 0.8267716535433071
          },
          {
            "duration": 0.09090899999999635,
            "durationTicks": 96,
            "midi": 79,
            "name": "G5",
            "ticks": 43680,
            "time": 41.363595000000004,
            "velocity": 0.8267716535433071
          },
          {
            "duration": 0.09090900000000346,
            "durationTicks": 96,
            "midi": 79,
            "name": "G5",
            "ticks": 43800,
            "time": 41.47723125,
            "velocity": 0.8267716535433071
          },
          {
            "duration": 0.09090900000000346,
            "durationTicks": 96,
            "midi": 79,
            "name": "G5",
            "ticks": 43920,
            "time": 41.5908675,
            "velocity": 0.8267716535433071
          },
          {
            "duration": 0.09090900000000346,
            "durationTicks": 96,
            "midi": 79,
            "name": "G5",
            "ticks": 44040,
            "time": 41.70450375,
            "velocity": 0.8267716535433071
          },
          {
            "duration": 0.13636350000000164,
            "durationTicks": 144,
            "midi": 74,
            "name": "D5",
            "ticks": 44160,
            "time": 41.81814,
            "velocity": 0.8267716535433071
          },
          {
            "duration": 0.13636350000000164,
            "durationTicks": 144,
            "midi": 78,
            "name": "F#5",
            "ticks": 44160,
            "time": 41.81814,
            "velocity": 0.8267716535433071
          },
          {
            "duration": 0.3636359999999925,
            "durationTicks": 384,
            "midi": 74,
            "name": "D5",
            "ticks": 44400,
            "time": 42.045412500000005,
            "velocity": 0.7244094488188977
          },
          {
            "duration": 0.3636359999999925,
            "durationTicks": 384,
            "midi": 78,
            "name": "F#5",
            "ticks": 44400,
            "time": 42.045412500000005,
            "velocity": 0.7244094488188977
          },
          {
            "duration": 0.3636359999999996,
            "durationTicks": 384,
            "midi": 74,
            "name": "D5",
            "ticks": 44880,
            "time": 42.4999575,
            "velocity": 0.7244094488188977
          },
          {
            "duration": 0.3636359999999996,
            "durationTicks": 384,
            "midi": 78,
            "name": "F#5",
            "ticks": 44880,
            "time": 42.4999575,
            "velocity": 0.7244094488188977
          },
          {
            "duration": 0.3636359999999996,
            "durationTicks": 384,
            "midi": 74,
            "name": "D5",
            "ticks": 45360,
            "time": 42.954502500000004,
            "velocity": 0.7244094488188977
          },
          {
            "duration": 0.3636359999999996,
            "durationTicks": 384,
            "midi": 78,
            "name": "F#5",
            "ticks": 45360,
            "time": 42.954502500000004,
            "velocity": 0.7244094488188977
          },
          {
            "duration": 0.4090905000000049,
            "durationTicks": 432,
            "midi": 74,
            "name": "D5",
            "ticks": 45840,
            "time": 43.4090475,
            "velocity": 0.7244094488188977
          },
          {
            "duration": 0.2272725000000051,
            "durationTicks": 240,
            "midi": 78,
            "name": "F#5",
            "ticks": 45840,
            "time": 43.4090475,
            "velocity": 0.7244094488188977
          },
          {
            "duration": 0.1818179999999998,
            "durationTicks": 192,
            "midi": 76,
            "name": "E5",
            "ticks": 46080,
            "time": 43.636320000000005,
            "velocity": 0.7244094488188977
          },
          {
            "duration": 0.3636359999999996,
            "durationTicks": 384,
            "midi": 74,
            "name": "D5",
            "ticks": 46320,
            "time": 43.8635925,
            "velocity": 0.7244094488188977
          },
          {
            "duration": 0.3636359999999996,
            "durationTicks": 384,
            "midi": 76,
            "name": "E5",
            "ticks": 46320,
            "time": 43.8635925,
            "velocity": 0.7244094488188977
          },
          {
            "duration": 0.3636359999999996,
            "durationTicks": 384,
            "midi": 74,
            "name": "D5",
            "ticks": 46800,
            "time": 44.3181375,
            "velocity": 0.7244094488188977
          },
          {
            "duration": 0.3636359999999996,
            "durationTicks": 384,
            "midi": 76,
            "name": "E5",
            "ticks": 46800,
            "time": 44.3181375,
            "velocity": 0.7244094488188977
          },
          {
            "duration": 0.3636359999999996,
            "durationTicks": 384,
            "midi": 74,
            "name": "D5",
            "ticks": 47280,
            "time": 44.7726825,
            "velocity": 0.7244094488188977
          },
          {
            "duration": 0.3636359999999996,
            "durationTicks": 384,
            "midi": 76,
            "name": "E5",
            "ticks": 47280,
            "time": 44.7726825,
            "velocity": 0.7244094488188977
          },
          {
            "duration": 0.1818179999999998,
            "durationTicks": 192,
            "midi": 74,
            "name": "D5",
            "ticks": 47760,
            "time": 45.227227500000005,
            "velocity": 0.7244094488188977
          },
          {
            "duration": 0.13636349999999453,
            "durationTicks": 144,
            "midi": 76,
            "name": "E5",
            "ticks": 47760,
            "time": 45.227227500000005,
            "velocity": 0.7244094488188977
          },
          {
            "duration": 0.09090900000000346,
            "durationTicks": 96,
            "midi": 73,
            "name": "C#5",
            "ticks": 48000,
            "time": 45.4545,
            "velocity": 0.8267716535433071
          },
          {
            "duration": 0.09090900000000346,
            "durationTicks": 96,
            "midi": 76,
            "name": "E5",
            "ticks": 48000,
            "time": 45.4545,
            "velocity": 0.8267716535433071
          },
          {
            "duration": 0.09090900000000346,
            "durationTicks": 96,
            "midi": 73,
            "name": "C#5",
            "ticks": 48120,
            "time": 45.56813625,
            "velocity": 0.8267716535433071
          },
          {
            "duration": 0.09090900000000346,
            "durationTicks": 96,
            "midi": 76,
            "name": "E5",
            "ticks": 48120,
            "time": 45.56813625,
            "velocity": 0.8267716535433071
          },
          {
            "duration": 0.09090900000000346,
            "durationTicks": 96,
            "midi": 73,
            "name": "C#5",
            "ticks": 48240,
            "time": 45.6817725,
            "velocity": 0.8267716535433071
          },
          {
            "duration": 0.09090900000000346,
            "durationTicks": 96,
            "midi": 76,
            "name": "E5",
            "ticks": 48240,
            "time": 45.6817725,
            "velocity": 0.8267716535433071
          },
          {
            "duration": 0.09090900000000346,
            "durationTicks": 96,
            "midi": 73,
            "name": "C#5",
            "ticks": 48360,
            "time": 45.79540875,
            "velocity": 0.8267716535433071
          },
          {
            "duration": 0.09090900000000346,
            "durationTicks": 96,
            "midi": 76,
            "name": "E5",
            "ticks": 48360,
            "time": 45.79540875,
            "velocity": 0.8267716535433071
          },
          {
            "duration": 0.09090900000000346,
            "durationTicks": 96,
            "midi": 74,
            "name": "D5",
            "ticks": 48480,
            "time": 45.909045,
            "velocity": 0.8267716535433071
          },
          {
            "duration": 0.09090900000000346,
            "durationTicks": 96,
            "midi": 78,
            "name": "F#5",
            "ticks": 48480,
            "time": 45.909045,
            "velocity": 0.8267716535433071
          },
          {
            "duration": 0.09090899999999635,
            "durationTicks": 96,
            "midi": 74,
            "name": "D5",
            "ticks": 48600,
            "time": 46.022681250000005,
            "velocity": 0.8267716535433071
          },
          {
            "duration": 0.09090899999999635,
            "durationTicks": 96,
            "midi": 78,
            "name": "F#5",
            "ticks": 48600,
            "time": 46.022681250000005,
            "velocity": 0.8267716535433071
          },
          {
            "duration": 0.09090899999999635,
            "durationTicks": 96,
            "midi": 74,
            "name": "D5",
            "ticks": 48720,
            "time": 46.136317500000004,
            "velocity": 0.8267716535433071
          },
          {
            "duration": 0.09090899999999635,
            "durationTicks": 96,
            "midi": 78,
            "name": "F#5",
            "ticks": 48720,
            "time": 46.136317500000004,
            "velocity": 0.8267716535433071
          },
          {
            "duration": 0.09090900000000346,
            "durationTicks": 96,
            "midi": 74,
            "name": "D5",
            "ticks": 48840,
            "time": 46.24995375,
            "velocity": 0.8267716535433071
          },
          {
            "duration": 0.09090900000000346,
            "durationTicks": 96,
            "midi": 78,
            "name": "F#5",
            "ticks": 48840,
            "time": 46.24995375,
            "velocity": 0.8267716535433071
          },
          {
            "duration": 0.09090900000000346,
            "durationTicks": 96,
            "midi": 73,
            "name": "C#5",
            "ticks": 48960,
            "time": 46.36359,
            "velocity": 0.8267716535433071
          },
          {
            "duration": 0.09090900000000346,
            "durationTicks": 96,
            "midi": 76,
            "name": "E5",
            "ticks": 48960,
            "time": 46.36359,
            "velocity": 0.8267716535433071
          },
          {
            "duration": 0.09090900000000346,
            "durationTicks": 96,
            "midi": 73,
            "name": "C#5",
            "ticks": 49080,
            "time": 46.47722625,
            "velocity": 0.8267716535433071
          },
          {
            "duration": 0.09090900000000346,
            "durationTicks": 96,
            "midi": 76,
            "name": "E5",
            "ticks": 49080,
            "time": 46.47722625,
            "velocity": 0.8267716535433071
          },
          {
            "duration": 0.09090900000000346,
            "durationTicks": 96,
            "midi": 73,
            "name": "C#5",
            "ticks": 49200,
            "time": 46.5908625,
            "velocity": 0.8267716535433071
          },
          {
            "duration": 0.09090900000000346,
            "durationTicks": 96,
            "midi": 76,
            "name": "E5",
            "ticks": 49200,
            "time": 46.5908625,
            "velocity": 0.8267716535433071
          },
          {
            "duration": 0.09090900000000346,
            "durationTicks": 96,
            "midi": 73,
            "name": "C#5",
            "ticks": 49320,
            "time": 46.70449875,
            "velocity": 0.8267716535433071
          },
          {
            "duration": 0.09090900000000346,
            "durationTicks": 96,
            "midi": 76,
            "name": "E5",
            "ticks": 49320,
            "time": 46.70449875,
            "velocity": 0.8267716535433071
          },
          {
            "duration": 0.09090899999999635,
            "durationTicks": 96,
            "midi": 74,
            "name": "D5",
            "ticks": 49440,
            "time": 46.818135000000005,
            "velocity": 0.8267716535433071
          },
          {
            "duration": 0.09090899999999635,
            "durationTicks": 96,
            "midi": 78,
            "name": "F#5",
            "ticks": 49440,
            "time": 46.818135000000005,
            "velocity": 0.8267716535433071
          },
          {
            "duration": 0.09090899999999635,
            "durationTicks": 96,
            "midi": 74,
            "name": "D5",
            "ticks": 49560,
            "time": 46.931771250000004,
            "velocity": 0.8267716535433071
          },
          {
            "duration": 0.09090899999999635,
            "durationTicks": 96,
            "midi": 78,
            "name": "F#5",
            "ticks": 49560,
            "time": 46.931771250000004,
            "velocity": 0.8267716535433071
          },
          {
            "duration": 0.09090900000000346,
            "durationTicks": 96,
            "midi": 74,
            "name": "D5",
            "ticks": 49680,
            "time": 47.0454075,
            "velocity": 0.8267716535433071
          },
          {
            "duration": 0.09090900000000346,
            "durationTicks": 96,
            "midi": 78,
            "name": "F#5",
            "ticks": 49680,
            "time": 47.0454075,
            "velocity": 0.8267716535433071
          },
          {
            "duration": 0.09090900000000346,
            "durationTicks": 96,
            "midi": 74,
            "name": "D5",
            "ticks": 49800,
            "time": 47.15904375,
            "velocity": 0.8267716535433071
          },
          {
            "duration": 0.09090900000000346,
            "durationTicks": 96,
            "midi": 78,
            "name": "F#5",
            "ticks": 49800,
            "time": 47.15904375,
            "velocity": 0.8267716535433071
          },
          {
            "duration": 0.13636350000000164,
            "durationTicks": 144,
            "midi": 73,
            "name": "C#5",
            "ticks": 49920,
            "time": 47.27268,
            "velocity": 0.8267716535433071
          },
          {
            "duration": 0.13636350000000164,
            "durationTicks": 144,
            "midi": 76,
            "name": "E5",
            "ticks": 49920,
            "time": 47.27268,
            "velocity": 0.8267716535433071
          },
          {
            "duration": 0.13636350000000164,
            "durationTicks": 144,
            "midi": 69,
            "name": "A4",
            "ticks": 50160,
            "time": 47.4999525,
            "velocity": 0.7244094488188977
          },
          {
            "duration": 0.13636349999999453,
            "durationTicks": 144,
            "midi": 69,
            "name": "A4",
            "ticks": 50400,
            "time": 47.727225000000004,
            "velocity": 0.7244094488188977
          },
          {
            "duration": 0.13636350000000164,
            "durationTicks": 144,
            "midi": 69,
            "name": "A4",
            "ticks": 50640,
            "time": 47.9544975,
            "velocity": 0.7244094488188977
          },
          {
            "duration": 0.3636359999999996,
            "durationTicks": 384,
            "midi": 69,
            "name": "A4",
            "ticks": 50880,
            "time": 48.18177,
            "velocity": 0.7244094488188977
          },
          {
            "duration": 0.6818175000000011,
            "durationTicks": 720,
            "midi": 69,
            "name": "A4",
            "ticks": 51840,
            "time": 49.09086,
            "velocity": 0.7244094488188977
          },
          {
            "duration": 0.0757575000000017,
            "durationTicks": 80,
            "midi": 67,
            "name": "G4",
            "ticks": 52560,
            "time": 49.7726775,
            "velocity": 0.5669291338582677
          },
          {
            "duration": 0.0757575000000017,
            "durationTicks": 80,
            "midi": 66,
            "name": "F#4",
            "ticks": 52620,
            "time": 49.829495625,
            "velocity": 0.5669291338582677
          },
          {
            "duration": 0.0757575000000017,
            "durationTicks": 80,
            "midi": 64,
            "name": "E4",
            "ticks": 52740,
            "time": 49.943131875000006,
            "velocity": 0.5669291338582677
          },
          {
            "duration": 0.14772712499999585,
            "durationTicks": 156,
            "midi": 62,
            "name": "D4",
            "ticks": 52800,
            "time": 49.999950000000005,
            "velocity": 0.5669291338582677
          },
          {
            "duration": 0.14772712500000296,
            "durationTicks": 156,
            "midi": 71,
            "name": "B4",
            "ticks": 53280,
            "time": 50.454495,
            "velocity": 0.5669291338582677
          },
          {
            "duration": 0.14772712500000296,
            "durationTicks": 156,
            "midi": 67,
            "name": "G4",
            "ticks": 53760,
            "time": 50.909040000000005,
            "velocity": 0.5669291338582677
          },
          {
            "duration": 0.14772712500000296,
            "durationTicks": 156,
            "midi": 64,
            "name": "E4",
            "ticks": 54240,
            "time": 51.363585,
            "velocity": 0.5669291338582677
          },
          {
            "duration": 0.14772712500000296,
            "durationTicks": 156,
            "midi": 69,
            "name": "A4",
            "ticks": 54720,
            "time": 51.818130000000004,
            "velocity": 0.5669291338582677
          },
          {
            "duration": 0.6818175000000011,
            "durationTicks": 720,
            "midi": 66,
            "name": "F#4",
            "ticks": 55680,
            "time": 52.72722,
            "velocity": 0.5669291338582677
          },
          {
            "duration": 0.0757575000000017,
            "durationTicks": 80,
            "midi": 64,
            "name": "E4",
            "ticks": 56400,
            "time": 53.409037500000004,
            "velocity": 0.5669291338582677
          },
          {
            "duration": 0.0757575000000017,
            "durationTicks": 80,
            "midi": 62,
            "name": "D4",
            "ticks": 56460,
            "time": 53.465855625,
            "velocity": 0.5669291338582677
          },
          {
            "duration": 0.0757575000000017,
            "durationTicks": 80,
            "midi": 61,
            "name": "C#4",
            "ticks": 56580,
            "time": 53.579491875,
            "velocity": 0.5669291338582677
          },
          {
            "duration": 0.14772712500000296,
            "durationTicks": 156,
            "midi": 59,
            "name": "B3",
            "ticks": 56640,
            "time": 53.63631,
            "velocity": 0.5669291338582677
          },
          {
            "duration": 0.14772712499999585,
            "durationTicks": 156,
            "midi": 67,
            "name": "G4",
            "ticks": 57120,
            "time": 54.090855000000005,
            "velocity": 0.5669291338582677
          },
          {
            "duration": 0.9090899999999991,
            "durationTicks": 960,
            "midi": 66,
            "name": "F#4",
            "ticks": 57600,
            "time": 54.5454,
            "velocity": 0.5669291338582677
          },
          {
            "duration": 0.3636359999999996,
            "durationTicks": 384,
            "midi": 64,
            "name": "E4",
            "ticks": 58560,
            "time": 55.45449,
            "velocity": 0.5669291338582677
          },
          {
            "duration": 0.681817499999994,
            "durationTicks": 720,
            "midi": 69,
            "name": "A4",
            "ticks": 59520,
            "time": 56.363580000000006,
            "velocity": 0.5669291338582677
          },
          {
            "duration": 0.0757575000000017,
            "durationTicks": 80,
            "midi": 67,
            "name": "G4",
            "ticks": 60240,
            "time": 57.0453975,
            "velocity": 0.5669291338582677
          },
          {
            "duration": 0.0757575000000017,
            "durationTicks": 80,
            "midi": 66,
            "name": "F#4",
            "ticks": 60300,
            "time": 57.10221562500001,
            "velocity": 0.5669291338582677
          },
          {
            "duration": 0.0757575000000017,
            "durationTicks": 80,
            "midi": 64,
            "name": "E4",
            "ticks": 60420,
            "time": 57.215851875000006,
            "velocity": 0.5669291338582677
          },
          {
            "duration": 0.14772712499999585,
            "durationTicks": 156,
            "midi": 62,
            "name": "D4",
            "ticks": 60480,
            "time": 57.272670000000005,
            "velocity": 0.5669291338582677
          },
          {
            "duration": 0.14772712500000296,
            "durationTicks": 156,
            "midi": 71,
            "name": "B4",
            "ticks": 60960,
            "time": 57.727215,
            "velocity": 0.5669291338582677
          },
          {
            "duration": 0.14772712500000296,
            "durationTicks": 156,
            "midi": 67,
            "name": "G4",
            "ticks": 61440,
            "time": 58.181760000000004,
            "velocity": 0.5669291338582677
          },
          {
            "duration": 0.14772712500000296,
            "durationTicks": 156,
            "midi": 64,
            "name": "E4",
            "ticks": 61920,
            "time": 58.636305,
            "velocity": 0.5669291338582677
          },
          {
            "duration": 0.14772712499999585,
            "durationTicks": 156,
            "midi": 69,
            "name": "A4",
            "ticks": 62400,
            "time": 59.09085,
            "velocity": 0.5669291338582677
          },
          {
            "duration": 0.1818179999999998,
            "durationTicks": 192,
            "midi": 67,
            "name": "G4",
            "ticks": 63120,
            "time": 59.772667500000004,
            "velocity": 0.5669291338582677
          },
          {
            "duration": 0.227272499999998,
            "durationTicks": 240,
            "midi": 67,
            "name": "G4",
            "ticks": 63360,
            "time": 59.99994,
            "velocity": 0.5669291338582677
          },
          {
            "duration": 0.13636350000000874,
            "durationTicks": 144,
            "midi": 66,
            "name": "F#4",
            "ticks": 63600,
            "time": 60.2272125,
            "velocity": 0.5669291338582677
          },
          {
            "duration": 0.13636350000000164,
            "durationTicks": 144,
            "midi": 79,
            "name": "G5",
            "ticks": 64080,
            "time": 60.6817575,
            "velocity": 0.5669291338582677
          },
          {
            "duration": 0.2272725000000051,
            "durationTicks": 240,
            "midi": 79,
            "name": "G5",
            "ticks": 64320,
            "time": 60.90903,
            "velocity": 0.5669291338582677
          },
          {
            "duration": 0.1818179999999998,
            "durationTicks": 192,
            "midi": 78,
            "name": "F#5",
            "ticks": 64560,
            "time": 61.136302500000006,
            "velocity": 0.5669291338582677
          },
          {
            "duration": 0.13636350000000874,
            "durationTicks": 144,
            "midi": 67,
            "name": "G4",
            "ticks": 65040,
            "time": 61.5908475,
            "velocity": 0.5669291338582677
          },
          {
            "duration": 0.14772712499999585,
            "durationTicks": 156,
            "midi": 66,
            "name": "F#4",
            "ticks": 65280,
            "time": 61.81812,
            "velocity": 0.4566929133858268
          },
          {
            "duration": 0.14772712499999585,
            "durationTicks": 156,
            "midi": 66,
            "name": "F#4",
            "ticks": 65520,
            "time": 62.045392500000005,
            "velocity": 0.4566929133858268
          },
          {
            "duration": 0.14772712499999585,
            "durationTicks": 156,
            "midi": 67,
            "name": "G4",
            "ticks": 65760,
            "time": 62.272665,
            "velocity": 0.4566929133858268
          },
          {
            "duration": 0.14772712499999585,
            "durationTicks": 156,
            "midi": 67,
            "name": "G4",
            "ticks": 66000,
            "time": 62.4999375,
            "velocity": 0.4566929133858268
          },
          {
            "duration": 0.14772712499998875,
            "durationTicks": 156,
            "midi": 69,
            "name": "A4",
            "ticks": 66240,
            "time": 62.72721000000001,
            "velocity": 0.4566929133858268
          },
          {
            "duration": 0.14772712499999585,
            "durationTicks": 156,
            "midi": 69,
            "name": "A4",
            "ticks": 66480,
            "time": 62.954482500000005,
            "velocity": 0.4566929133858268
          },
          {
            "duration": 0.14772712499999585,
            "durationTicks": 156,
            "midi": 66,
            "name": "F#4",
            "ticks": 66720,
            "time": 63.181755,
            "velocity": 0.4566929133858268
          },
          {
            "duration": 0.14772712499999585,
            "durationTicks": 156,
            "midi": 66,
            "name": "F#4",
            "ticks": 66960,
            "time": 63.4090275,
            "velocity": 0.4566929133858268
          },
          {
            "duration": 0.14772712499999585,
            "durationTicks": 156,
            "midi": 64,
            "name": "E4",
            "ticks": 67200,
            "time": 63.636300000000006,
            "velocity": 0.4566929133858268
          },
          {
            "duration": 0.14772712500000296,
            "durationTicks": 156,
            "midi": 64,
            "name": "E4",
            "ticks": 67440,
            "time": 63.863572500000004,
            "velocity": 0.4566929133858268
          },
          {
            "duration": 0.14772712500000296,
            "durationTicks": 156,
            "midi": 66,
            "name": "F#4",
            "ticks": 67680,
            "time": 64.090845,
            "velocity": 0.4566929133858268
          },
          {
            "duration": 0.14772712499998875,
            "durationTicks": 156,
            "midi": 66,
            "name": "F#4",
            "ticks": 67920,
            "time": 64.31811750000001,
            "velocity": 0.4566929133858268
          },
          {
            "duration": 0.14772712499998875,
            "durationTicks": 156,
            "midi": 67,
            "name": "G4",
            "ticks": 68160,
            "time": 64.54539000000001,
            "velocity": 0.4566929133858268
          },
          {
            "duration": 0.14772712499998875,
            "durationTicks": 156,
            "midi": 67,
            "name": "G4",
            "ticks": 68400,
            "time": 64.77266250000001,
            "velocity": 0.4566929133858268
          },
          {
            "duration": 0.14772712500000296,
            "durationTicks": 156,
            "midi": 64,
            "name": "E4",
            "ticks": 68640,
            "time": 64.99993500000001,
            "velocity": 0.4566929133858268
          },
          {
            "duration": 0.14772712500000296,
            "durationTicks": 156,
            "midi": 64,
            "name": "E4",
            "ticks": 68880,
            "time": 65.2272075,
            "velocity": 0.4566929133858268
          },
          {
            "duration": 0.14772712500000296,
            "durationTicks": 156,
            "midi": 66,
            "name": "F#4",
            "ticks": 69120,
            "time": 65.45448,
            "velocity": 0.4566929133858268
          },
          {
            "duration": 0.14772712499998875,
            "durationTicks": 156,
            "midi": 66,
            "name": "F#4",
            "ticks": 69360,
            "time": 65.68175250000002,
            "velocity": 0.4566929133858268
          },
          {
            "duration": 0.14772712499998875,
            "durationTicks": 156,
            "midi": 67,
            "name": "G4",
            "ticks": 69600,
            "time": 65.90902500000001,
            "velocity": 0.4566929133858268
          },
          {
            "duration": 0.14772712499998875,
            "durationTicks": 156,
            "midi": 67,
            "name": "G4",
            "ticks": 69840,
            "time": 66.13629750000001,
            "velocity": 0.4566929133858268
          },
          {
            "duration": 0.14772712499998875,
            "durationTicks": 156,
            "midi": 69,
            "name": "A4",
            "ticks": 70080,
            "time": 66.36357000000001,
            "velocity": 0.4566929133858268
          },
          {
            "duration": 0.14772712500000296,
            "durationTicks": 156,
            "midi": 69,
            "name": "A4",
            "ticks": 70320,
            "time": 66.59084250000001,
            "velocity": 0.4566929133858268
          },
          {
            "duration": 0.14772712500000296,
            "durationTicks": 156,
            "midi": 66,
            "name": "F#4",
            "ticks": 70560,
            "time": 66.818115,
            "velocity": 0.4566929133858268
          },
          {
            "duration": 0.14772712500000296,
            "durationTicks": 156,
            "midi": 66,
            "name": "F#4",
            "ticks": 70800,
            "time": 67.0453875,
            "velocity": 0.4566929133858268
          },
          {
            "duration": 0.14772712499998875,
            "durationTicks": 156,
            "midi": 64,
            "name": "E4",
            "ticks": 71040,
            "time": 67.27266000000002,
            "velocity": 0.4566929133858268
          },
          {
            "duration": 0.14772712499998875,
            "durationTicks": 156,
            "midi": 64,
            "name": "E4",
            "ticks": 71280,
            "time": 67.49993250000001,
            "velocity": 0.4566929133858268
          },
          {
            "duration": 0.14772712499998875,
            "durationTicks": 156,
            "midi": 66,
            "name": "F#4",
            "ticks": 71520,
            "time": 67.72720500000001,
            "velocity": 0.4566929133858268
          },
          {
            "duration": 0.14772712499998875,
            "durationTicks": 156,
            "midi": 66,
            "name": "F#4",
            "ticks": 71760,
            "time": 67.95447750000001,
            "velocity": 0.4566929133858268
          },
          {
            "duration": 0.14772712500000296,
            "durationTicks": 156,
            "midi": 67,
            "name": "G4",
            "ticks": 72000,
            "time": 68.18175000000001,
            "velocity": 0.4566929133858268
          },
          {
            "duration": 0.14772712500000296,
            "durationTicks": 156,
            "midi": 67,
            "name": "G4",
            "ticks": 72240,
            "time": 68.4090225,
            "velocity": 0.4566929133858268
          },
          {
            "duration": 0.14772712500000296,
            "durationTicks": 156,
            "midi": 64,
            "name": "E4",
            "ticks": 72480,
            "time": 68.636295,
            "velocity": 0.4566929133858268
          },
          {
            "duration": 0.14772712499998875,
            "durationTicks": 156,
            "midi": 64,
            "name": "E4",
            "ticks": 72720,
            "time": 68.86356750000002,
            "velocity": 0.4566929133858268
          },
          {
            "duration": 0.3636359999999996,
            "durationTicks": 384,
            "midi": 66,
            "name": "F#4",
            "ticks": 72960,
            "time": 69.09084000000001,
            "velocity": 0.4566929133858268
          },
          {
            "duration": 0.7272719999999993,
            "durationTicks": 768,
            "midi": 71,
            "name": "B4",
            "ticks": 73920,
            "time": 69.99993,
            "velocity": 0.8267716535433071
          },
          {
            "duration": 0.9090900000000062,
            "durationTicks": 960,
            "midi": 78,
            "name": "F#5",
            "ticks": 73920,
            "time": 69.99993,
            "velocity": 0.8267716535433071
          },
          {
            "duration": 0.3636359999999996,
            "durationTicks": 384,
            "midi": 76,
            "name": "E5",
            "ticks": 74880,
            "time": 70.90902000000001,
            "velocity": 0.8267716535433071
          },
          {
            "duration": 0.7272719999999993,
            "durationTicks": 768,
            "midi": 69,
            "name": "A4",
            "ticks": 75840,
            "time": 71.81811,
            "velocity": 0.8267716535433071
          },
          {
            "duration": 0.9090900000000062,
            "durationTicks": 960,
            "midi": 76,
            "name": "E5",
            "ticks": 75840,
            "time": 71.81811,
            "velocity": 0.8267716535433071
          },
          {
            "duration": 0.14772712499998875,
            "durationTicks": 156,
            "midi": 74,
            "name": "D5",
            "ticks": 76800,
            "time": 72.72720000000001,
            "velocity": 0.8267716535433071
          },
          {
            "duration": 0.14772712500000296,
            "durationTicks": 156,
            "midi": 78,
            "name": "F#5",
            "ticks": 77040,
            "time": 72.95447250000001,
            "velocity": 0.8267716535433071
          },
          {
            "duration": 0.14772712500000296,
            "durationTicks": 156,
            "midi": 79,
            "name": "G5",
            "ticks": 77280,
            "time": 73.181745,
            "velocity": 0.8267716535433071
          },
          {
            "duration": 0.14772712500000296,
            "durationTicks": 156,
            "midi": 81,
            "name": "A5",
            "ticks": 77520,
            "time": 73.4090175,
            "velocity": 0.8267716535433071
          },
          {
            "duration": 0.227272499999998,
            "durationTicks": 240,
            "midi": 79,
            "name": "G5",
            "ticks": 77760,
            "time": 73.63629000000002,
            "velocity": 0.8267716535433071
          },
          {
            "duration": 0.113636249999999,
            "durationTicks": 120,
            "midi": 81,
            "name": "A5",
            "ticks": 78000,
            "time": 73.86356250000001,
            "velocity": 0.8267716535433071
          },
          {
            "duration": 0.113636249999999,
            "durationTicks": 120,
            "midi": 83,
            "name": "B5",
            "ticks": 78120,
            "time": 73.97719875000001,
            "velocity": 0.8267716535433071
          },
          {
            "duration": 0.13636350000000164,
            "durationTicks": 144,
            "midi": 81,
            "name": "A5",
            "ticks": 78240,
            "time": 74.09083500000001,
            "velocity": 0.8267716535433071
          },
          {
            "duration": 0.13636350000000164,
            "durationTicks": 144,
            "midi": 79,
            "name": "G5",
            "ticks": 78480,
            "time": 74.31810750000001,
            "velocity": 0.8267716535433071
          },
          {
            "duration": 0.227272499999998,
            "durationTicks": 240,
            "midi": 79,
            "name": "G5",
            "ticks": 78720,
            "time": 74.54538000000001,
            "velocity": 0.8267716535433071
          },
          {
            "duration": 0.13636350000001585,
            "durationTicks": 144,
            "midi": 78,
            "name": "F#5",
            "ticks": 78960,
            "time": 74.7726525,
            "velocity": 0.8267716535433071
          },
          {
            "duration": 0.13636350000001585,
            "durationTicks": 144,
            "midi": 74,
            "name": "D5",
            "ticks": 79200,
            "time": 74.999925,
            "velocity": 0.8267716535433071
          },
          {
            "duration": 0.13636350000000164,
            "durationTicks": 144,
            "midi": 78,
            "name": "F#5",
            "ticks": 79440,
            "time": 75.22719750000002,
            "velocity": 0.8267716535433071
          },
          {
            "duration": 0.227272499999998,
            "durationTicks": 240,
            "midi": 78,
            "name": "F#5",
            "ticks": 79680,
            "time": 75.45447000000001,
            "velocity": 0.8267716535433071
          },
          {
            "duration": 0.13636350000000164,
            "durationTicks": 144,
            "midi": 76,
            "name": "E5",
            "ticks": 79920,
            "time": 75.68174250000001,
            "velocity": 0.8267716535433071
          },
          {
            "duration": 0.13636350000000164,
            "durationTicks": 144,
            "midi": 74,
            "name": "D5",
            "ticks": 80160,
            "time": 75.90901500000001,
            "velocity": 0.8267716535433071
          },
          {
            "duration": 0.13636350000000164,
            "durationTicks": 144,
            "midi": 73,
            "name": "C#5",
            "ticks": 80400,
            "time": 76.13628750000001,
            "velocity": 0.8267716535433071
          },
          {
            "duration": 0.14772712500000296,
            "durationTicks": 156,
            "midi": 74,
            "name": "D5",
            "ticks": 80640,
            "time": 76.36356,
            "velocity": 0.7244094488188977
          },
          {
            "duration": 0.14772712500000296,
            "durationTicks": 156,
            "midi": 66,
            "name": "F#4",
            "ticks": 80880,
            "time": 76.5908325,
            "velocity": 0.4566929133858268
          },
          {
            "duration": 0.14772712499998875,
            "durationTicks": 156,
            "midi": 67,
            "name": "G4",
            "ticks": 81120,
            "time": 76.81810500000002,
            "velocity": 0.4566929133858268
          },
          {
            "duration": 0.14772712499998875,
            "durationTicks": 156,
            "midi": 67,
            "name": "G4",
            "ticks": 81360,
            "time": 77.04537750000001,
            "velocity": 0.4566929133858268
          },
          {
            "duration": 0.14772712499998875,
            "durationTicks": 156,
            "midi": 69,
            "name": "A4",
            "ticks": 81600,
            "time": 77.27265000000001,
            "velocity": 0.4566929133858268
          },
          {
            "duration": 0.14772712499998875,
            "durationTicks": 156,
            "midi": 69,
            "name": "A4",
            "ticks": 81840,
            "time": 77.49992250000001,
            "velocity": 0.4566929133858268
          },
          {
            "duration": 0.14772712500000296,
            "durationTicks": 156,
            "midi": 66,
            "name": "F#4",
            "ticks": 82080,
            "time": 77.72719500000001,
            "velocity": 0.4566929133858268
          },
          {
            "duration": 0.14772712500000296,
            "durationTicks": 156,
            "midi": 66,
            "name": "F#4",
            "ticks": 82320,
            "time": 77.9544675,
            "velocity": 0.4566929133858268
          },
          {
            "duration": 0.14772712500000296,
            "durationTicks": 156,
            "midi": 64,
            "name": "E4",
            "ticks": 82560,
            "time": 78.18174,
            "velocity": 0.4566929133858268
          },
          {
            "duration": 0.14772712499998875,
            "durationTicks": 156,
            "midi": 64,
            "name": "E4",
            "ticks": 82800,
            "time": 78.40901250000002,
            "velocity": 0.4566929133858268
          },
          {
            "duration": 0.14772712499998875,
            "durationTicks": 156,
            "midi": 66,
            "name": "F#4",
            "ticks": 83040,
            "time": 78.63628500000002,
            "velocity": 0.4566929133858268
          },
          {
            "duration": 0.14772712499998875,
            "durationTicks": 156,
            "midi": 66,
            "name": "F#4",
            "ticks": 83280,
            "time": 78.86355750000001,
            "velocity": 0.4566929133858268
          },
          {
            "duration": 0.14772712499998875,
            "durationTicks": 156,
            "midi": 67,
            "name": "G4",
            "ticks": 83520,
            "time": 79.09083000000001,
            "velocity": 0.4566929133858268
          },
          {
            "duration": 0.14772712500000296,
            "durationTicks": 156,
            "midi": 67,
            "name": "G4",
            "ticks": 83760,
            "time": 79.31810250000001,
            "velocity": 0.4566929133858268
          },
          {
            "duration": 0.14772712500000296,
            "durationTicks": 156,
            "midi": 64,
            "name": "E4",
            "ticks": 84000,
            "time": 79.545375,
            "velocity": 0.4566929133858268
          },
          {
            "duration": 0.14772712500000296,
            "durationTicks": 156,
            "midi": 64,
            "name": "E4",
            "ticks": 84240,
            "time": 79.7726475,
            "velocity": 0.4566929133858268
          },
          {
            "duration": 0.14772712499998875,
            "durationTicks": 156,
            "midi": 66,
            "name": "F#4",
            "ticks": 84480,
            "time": 79.99992000000002,
            "velocity": 0.4566929133858268
          },
          {
            "duration": 0.14772712499998875,
            "durationTicks": 156,
            "midi": 66,
            "name": "F#4",
            "ticks": 84720,
            "time": 80.22719250000002,
            "velocity": 0.4566929133858268
          },
          {
            "duration": 0.14772712499998875,
            "durationTicks": 156,
            "midi": 67,
            "name": "G4",
            "ticks": 84960,
            "time": 80.45446500000001,
            "velocity": 0.4566929133858268
          },
          {
            "duration": 0.14772712499998875,
            "durationTicks": 156,
            "midi": 67,
            "name": "G4",
            "ticks": 85200,
            "time": 80.68173750000001,
            "velocity": 0.4566929133858268
          },
          {
            "duration": 0.14772712500000296,
            "durationTicks": 156,
            "midi": 69,
            "name": "A4",
            "ticks": 85440,
            "time": 80.90901000000001,
            "velocity": 0.4566929133858268
          },
          {
            "duration": 0.14772712500000296,
            "durationTicks": 156,
            "midi": 69,
            "name": "A4",
            "ticks": 85680,
            "time": 81.13628250000001,
            "velocity": 0.4566929133858268
          },
          {
            "duration": 0.14772712500000296,
            "durationTicks": 156,
            "midi": 66,
            "name": "F#4",
            "ticks": 85920,
            "time": 81.363555,
            "velocity": 0.4566929133858268
          },
          {
            "duration": 0.14772712499998875,
            "durationTicks": 156,
            "midi": 66,
            "name": "F#4",
            "ticks": 86160,
            "time": 81.59082750000002,
            "velocity": 0.4566929133858268
          },
          {
            "duration": 0.14772712499998875,
            "durationTicks": 156,
            "midi": 64,
            "name": "E4",
            "ticks": 86400,
            "time": 81.81810000000002,
            "velocity": 0.4566929133858268
          },
          {
            "duration": 0.14772712499998875,
            "durationTicks": 156,
            "midi": 64,
            "name": "E4",
            "ticks": 86640,
            "time": 82.04537250000001,
            "velocity": 0.4566929133858268
          },
          {
            "duration": 0.14772712499998875,
            "durationTicks": 156,
            "midi": 66,
            "name": "F#4",
            "ticks": 86880,
            "time": 82.27264500000001,
            "velocity": 0.4566929133858268
          },
          {
            "duration": 0.14772712500000296,
            "durationTicks": 156,
            "midi": 66,
            "name": "F#4",
            "ticks": 87120,
            "time": 82.49991750000001,
            "velocity": 0.4566929133858268
          },
          {
            "duration": 0.14772712500000296,
            "durationTicks": 156,
            "midi": 67,
            "name": "G4",
            "ticks": 87360,
            "time": 82.72719000000001,
            "velocity": 0.4566929133858268
          },
          {
            "duration": 0.14772712500000296,
            "durationTicks": 156,
            "midi": 67,
            "name": "G4",
            "ticks": 87600,
            "time": 82.9544625,
            "velocity": 0.4566929133858268
          },
          {
            "duration": 0.14772712499998875,
            "durationTicks": 156,
            "midi": 64,
            "name": "E4",
            "ticks": 87840,
            "time": 83.18173500000002,
            "velocity": 0.4566929133858268
          },
          {
            "duration": 0.14772712499998875,
            "durationTicks": 156,
            "midi": 64,
            "name": "E4",
            "ticks": 88080,
            "time": 83.40900750000002,
            "velocity": 0.4566929133858268
          },
          {
            "duration": 0.3636359999999996,
            "durationTicks": 384,
            "midi": 66,
            "name": "F#4",
            "ticks": 88320,
            "time": 83.63628000000001,
            "velocity": 0.4566929133858268
          },
          {
            "duration": 0.7272719999999993,
            "durationTicks": 768,
            "midi": 71,
            "name": "B4",
            "ticks": 89280,
            "time": 84.54537,
            "velocity": 0.8267716535433071
          },
          {
            "duration": 0.9090900000000062,
            "durationTicks": 960,
            "midi": 78,
            "name": "F#5",
            "ticks": 89280,
            "time": 84.54537,
            "velocity": 0.8267716535433071
          },
          {
            "duration": 0.3636359999999996,
            "durationTicks": 384,
            "midi": 76,
            "name": "E5",
            "ticks": 90240,
            "time": 85.45446000000001,
            "velocity": 0.8267716535433071
          },
          {
            "duration": 0.727271999999985,
            "durationTicks": 768,
            "midi": 69,
            "name": "A4",
            "ticks": 91200,
            "time": 86.36355000000002,
            "velocity": 0.8267716535433071
          },
          {
            "duration": 0.909089999999992,
            "durationTicks": 960,
            "midi": 76,
            "name": "E5",
            "ticks": 91200,
            "time": 86.36355000000002,
            "velocity": 0.8267716535433071
          },
          {
            "duration": 0.14772712500000296,
            "durationTicks": 156,
            "midi": 74,
            "name": "D5",
            "ticks": 92160,
            "time": 87.27264000000001,
            "velocity": 0.8267716535433071
          },
          {
            "duration": 0.14772712500000296,
            "durationTicks": 156,
            "midi": 78,
            "name": "F#5",
            "ticks": 92400,
            "time": 87.49991250000001,
            "velocity": 0.8267716535433071
          },
          {
            "duration": 0.14772712500000296,
            "durationTicks": 156,
            "midi": 79,
            "name": "G5",
            "ticks": 92640,
            "time": 87.727185,
            "velocity": 0.8267716535433071
          },
          {
            "duration": 0.14772712499998875,
            "durationTicks": 156,
            "midi": 81,
            "name": "A5",
            "ticks": 92880,
            "time": 87.95445750000002,
            "velocity": 0.8267716535433071
          },
          {
            "duration": 0.227272499999998,
            "durationTicks": 240,
            "midi": 79,
            "name": "G5",
            "ticks": 93120,
            "time": 88.18173000000002,
            "velocity": 0.8267716535433071
          },
          {
            "duration": 0.113636249999999,
            "durationTicks": 120,
            "midi": 81,
            "name": "A5",
            "ticks": 93360,
            "time": 88.40900250000001,
            "velocity": 0.8267716535433071
          },
          {
            "duration": 0.113636249999999,
            "durationTicks": 120,
            "midi": 83,
            "name": "B5",
            "ticks": 93480,
            "time": 88.52263875000001,
            "velocity": 0.8267716535433071
          },
          {
            "duration": 0.13636350000000164,
            "durationTicks": 144,
            "midi": 81,
            "name": "A5",
            "ticks": 93600,
            "time": 88.63627500000001,
            "velocity": 0.8267716535433071
          },
          {
            "duration": 0.13636350000000164,
            "durationTicks": 144,
            "midi": 79,
            "name": "G5",
            "ticks": 93840,
            "time": 88.86354750000001,
            "velocity": 0.8267716535433071
          },
          {
            "duration": 0.227272499999998,
            "durationTicks": 240,
            "midi": 79,
            "name": "G5",
            "ticks": 94080,
            "time": 89.09082000000001,
            "velocity": 0.8267716535433071
          },
          {
            "duration": 0.13636350000001585,
            "durationTicks": 144,
            "midi": 78,
            "name": "F#5",
            "ticks": 94320,
            "time": 89.3180925,
            "velocity": 0.8267716535433071
          },
          {
            "duration": 0.13636350000000164,
            "durationTicks": 144,
            "midi": 74,
            "name": "D5",
            "ticks": 94560,
            "time": 89.54536500000002,
            "velocity": 0.8267716535433071
          },
          {
            "duration": 0.13636350000000164,
            "durationTicks": 144,
            "midi": 78,
            "name": "F#5",
            "ticks": 94800,
            "time": 89.77263750000002,
            "velocity": 0.8267716535433071
          },
          {
            "duration": 0.227272499999998,
            "durationTicks": 240,
            "midi": 78,
            "name": "F#5",
            "ticks": 95040,
            "time": 89.99991000000001,
            "velocity": 0.8267716535433071
          },
          {
            "duration": 0.13636350000000164,
            "durationTicks": 144,
            "midi": 76,
            "name": "E5",
            "ticks": 95280,
            "time": 90.22718250000001,
            "velocity": 0.8267716535433071
          },
          {
            "duration": 0.13636350000000164,
            "durationTicks": 144,
            "midi": 74,
            "name": "D5",
            "ticks": 95520,
            "time": 90.45445500000001,
            "velocity": 0.8267716535433071
          },
          {
            "duration": 0.13636350000001585,
            "durationTicks": 144,
            "midi": 73,
            "name": "C#5",
            "ticks": 95760,
            "time": 90.68172750000001,
            "velocity": 0.8267716535433071
          },
          {
            "duration": 0.13636350000001585,
            "durationTicks": 144,
            "midi": 74,
            "name": "D5",
            "ticks": 96000,
            "time": 90.909,
            "velocity": 0.8267716535433071
          },
          {
            "duration": 0.13636350000000164,
            "durationTicks": 144,
            "midi": 69,
            "name": "A4",
            "ticks": 96240,
            "time": 91.13627250000002,
            "velocity": 0.8267716535433071
          },
          {
            "duration": 0.13636350000000164,
            "durationTicks": 144,
            "midi": 71,
            "name": "B4",
            "ticks": 96480,
            "time": 91.36354500000002,
            "velocity": 0.8267716535433071
          },
          {
            "duration": 0.13636350000000164,
            "durationTicks": 144,
            "midi": 73,
            "name": "C#5",
            "ticks": 96720,
            "time": 91.59081750000001,
            "velocity": 0.8267716535433071
          },
          {
            "duration": 0.13636350000000164,
            "durationTicks": 144,
            "midi": 74,
            "name": "D5",
            "ticks": 96960,
            "time": 91.81809000000001,
            "velocity": 0.8267716535433071
          },
          {
            "duration": 0.13636350000000164,
            "durationTicks": 144,
            "midi": 74,
            "name": "D5",
            "ticks": 97200,
            "time": 92.04536250000001,
            "velocity": 0.8267716535433071
          },
          {
            "duration": 0.0568181250000066,
            "durationTicks": 60,
            "midi": 78,
            "name": "F#5",
            "ticks": 97440,
            "time": 92.27263500000001,
            "velocity": 0.8267716535433071
          },
          {
            "duration": 0.05681812499999239,
            "durationTicks": 60,
            "midi": 76,
            "name": "E5",
            "ticks": 97500,
            "time": 92.32945312500001,
            "velocity": 0.8267716535433071
          },
          {
            "duration": 0.0568181250000066,
            "durationTicks": 60,
            "midi": 78,
            "name": "F#5",
            "ticks": 97560,
            "time": 92.38627125000001,
            "velocity": 0.8267716535433071
          },
          {
            "duration": 0.05681812499999239,
            "durationTicks": 60,
            "midi": 76,
            "name": "E5",
            "ticks": 97620,
            "time": 92.44308937500001,
            "velocity": 0.8267716535433071
          },
          {
            "duration": 0.1136362500000132,
            "durationTicks": 120,
            "midi": 74,
            "name": "D5",
            "ticks": 97680,
            "time": 92.4999075,
            "velocity": 0.8267716535433071
          },
          {
            "duration": 0.113636249999999,
            "durationTicks": 120,
            "midi": 76,
            "name": "E5",
            "ticks": 97800,
            "time": 92.61354375000002,
            "velocity": 0.8267716535433071
          },
          {
            "duration": 0.13636350000000164,
            "durationTicks": 144,
            "midi": 78,
            "name": "F#5",
            "ticks": 97920,
            "time": 92.72718000000002,
            "velocity": 0.8267716535433071
          },
          {
            "duration": 0.13636350000000164,
            "durationTicks": 144,
            "midi": 73,
            "name": "C#5",
            "ticks": 98160,
            "time": 92.95445250000002,
            "velocity": 0.8267716535433071
          },
          {
            "duration": 0.13636350000000164,
            "durationTicks": 144,
            "midi": 74,
            "name": "D5",
            "ticks": 98400,
            "time": 93.18172500000001,
            "velocity": 0.8267716535433071
          },
          {
            "duration": 0.13636350000000164,
            "durationTicks": 144,
            "midi": 76,
            "name": "E5",
            "ticks": 98640,
            "time": 93.40899750000001,
            "velocity": 0.8267716535433071
          },
          {
            "duration": 0.13636350000000164,
            "durationTicks": 144,
            "midi": 78,
            "name": "F#5",
            "ticks": 98880,
            "time": 93.63627000000001,
            "velocity": 0.8267716535433071
          },
          {
            "duration": 0.13636350000001585,
            "durationTicks": 144,
            "midi": 78,
            "name": "F#5",
            "ticks": 99120,
            "time": 93.86354250000001,
            "velocity": 0.8267716535433071
          },
          {
            "duration": 0.0568181250000066,
            "durationTicks": 60,
            "midi": 81,
            "name": "A5",
            "ticks": 99360,
            "time": 94.090815,
            "velocity": 0.8267716535433071
          },
          {
            "duration": 0.0568181250000066,
            "durationTicks": 60,
            "midi": 79,
            "name": "G5",
            "ticks": 99420,
            "time": 94.14763312500001,
            "velocity": 0.8267716535433071
          },
          {
            "duration": 0.05681812499999239,
            "durationTicks": 60,
            "midi": 81,
            "name": "A5",
            "ticks": 99480,
            "time": 94.20445125000002,
            "velocity": 0.8267716535433071
          },
          {
            "duration": 0.0568181250000066,
            "durationTicks": 60,
            "midi": 79,
            "name": "G5",
            "ticks": 99540,
            "time": 94.26126937500001,
            "velocity": 0.8267716535433071
          },
          {
            "duration": 0.113636249999999,
            "durationTicks": 120,
            "midi": 78,
            "name": "F#5",
            "ticks": 99600,
            "time": 94.31808750000002,
            "velocity": 0.8267716535433071
          },
          {
            "duration": 0.113636249999999,
            "durationTicks": 120,
            "midi": 79,
            "name": "G5",
            "ticks": 99720,
            "time": 94.43172375000002,
            "velocity": 0.8267716535433071
          },
          {
            "duration": 0.13636350000000164,
            "durationTicks": 144,
            "midi": 81,
            "name": "A5",
            "ticks": 99840,
            "time": 94.54536000000002,
            "velocity": 0.8267716535433071
          },
          {
            "duration": 0.13636350000000164,
            "durationTicks": 144,
            "midi": 81,
            "name": "A5",
            "ticks": 100080,
            "time": 94.77263250000001,
            "velocity": 0.8267716535433071
          },
          {
            "duration": 0.0568181250000066,
            "durationTicks": 60,
            "midi": 83,
            "name": "B5",
            "ticks": 100320,
            "time": 94.99990500000001,
            "velocity": 0.8267716535433071
          },
          {
            "duration": 0.05681812499999239,
            "durationTicks": 60,
            "midi": 82,
            "name": "A#5",
            "ticks": 100380,
            "time": 95.05672312500002,
            "velocity": 0.8267716535433071
          },
          {
            "duration": 0.0568181250000066,
            "durationTicks": 60,
            "midi": 83,
            "name": "B5",
            "ticks": 100440,
            "time": 95.11354125000001,
            "velocity": 0.8267716535433071
          },
          {
            "duration": 0.05681812499999239,
            "durationTicks": 60,
            "midi": 82,
            "name": "A#5",
            "ticks": 100500,
            "time": 95.17035937500002,
            "velocity": 0.8267716535433071
          },
          {
            "duration": 0.113636249999999,
            "durationTicks": 120,
            "midi": 80,
            "name": "G#5",
            "ticks": 100560,
            "time": 95.22717750000001,
            "velocity": 0.8267716535433071
          },
          {
            "duration": 0.113636249999999,
            "durationTicks": 120,
            "midi": 82,
            "name": "A#5",
            "ticks": 100680,
            "time": 95.34081375000001,
            "velocity": 0.8267716535433071
          },
          {
            "duration": 0.36363600000001384,
            "durationTicks": 384,
            "midi": 83,
            "name": "B5",
            "ticks": 100800,
            "time": 95.45445000000001,
            "velocity": 0.7244094488188977
          },
          {
            "duration": 1.7272710000000018,
            "durationTicks": 1824,
            "midi": 67,
            "name": "G4",
            "ticks": 101760,
            "time": 96.36354000000001,
            "velocity": 0.4566929133858268
          },
          {
            "duration": 0.18181800000000692,
            "durationTicks": 192,
            "midi": 66,
            "name": "F#4",
            "ticks": 103680,
            "time": 98.18172000000001,
            "velocity": 0.4566929133858268
          },
          {
            "duration": 0.18181800000000692,
            "durationTicks": 192,
            "midi": 69,
            "name": "A4",
            "ticks": 104160,
            "time": 98.63626500000001,
            "velocity": 0.4566929133858268
          },
          {
            "duration": 0.1818179999999927,
            "durationTicks": 192,
            "midi": 66,
            "name": "F#4",
            "ticks": 104640,
            "time": 99.09081000000002,
            "velocity": 0.4566929133858268
          },
          {
            "duration": 0.36363600000001384,
            "durationTicks": 384,
            "midi": 62,
            "name": "D4",
            "ticks": 105600,
            "time": 99.99990000000001,
            "velocity": 0.8267716535433071
          },
          {
            "duration": 0.36363600000001384,
            "durationTicks": 384,
            "midi": 71,
            "name": "B4",
            "ticks": 105600,
            "time": 99.99990000000001,
            "velocity": 0.8267716535433071
          },
          {
            "duration": 0.36363600000001384,
            "durationTicks": 384,
            "midi": 79,
            "name": "G5",
            "ticks": 105600,
            "time": 99.99990000000001,
            "velocity": 0.8267716535433071
          },
          {
            "duration": 0.13636350000000164,
            "durationTicks": 144,
            "midi": 74,
            "name": "D5",
            "ticks": 106320,
            "time": 100.68171750000002,
            "velocity": 0.7244094488188977
          },
          {
            "duration": 0.3636359999999996,
            "durationTicks": 384,
            "midi": 79,
            "name": "G5",
            "ticks": 106560,
            "time": 100.90899000000002,
            "velocity": 0.7244094488188977
          },
          {
            "duration": 0.13636350000000164,
            "durationTicks": 144,
            "midi": 74,
            "name": "D5",
            "ticks": 107280,
            "time": 101.59080750000001,
            "velocity": 0.7244094488188977
          },
          {
            "duration": 0.13636350000001585,
            "durationTicks": 144,
            "midi": 79,
            "name": "G5",
            "ticks": 107520,
            "time": 101.81808000000001,
            "velocity": 0.7244094488188977
          },
          {
            "duration": 0.13636350000001585,
            "durationTicks": 144,
            "midi": 74,
            "name": "D5",
            "ticks": 107760,
            "time": 102.0453525,
            "velocity": 0.7244094488188977
          },
          {
            "duration": 0.13636350000000164,
            "durationTicks": 144,
            "midi": 79,
            "name": "G5",
            "ticks": 108000,
            "time": 102.27262500000002,
            "velocity": 0.7244094488188977
          },
          {
            "duration": 0.13636350000000164,
            "durationTicks": 144,
            "midi": 83,
            "name": "B5",
            "ticks": 108240,
            "time": 102.49989750000002,
            "velocity": 0.7244094488188977
          },
          {
            "duration": 0.3636359999999996,
            "durationTicks": 384,
            "midi": 86,
            "name": "D6",
            "ticks": 108480,
            "time": 102.72717000000002,
            "velocity": 0.7244094488188977
          },
          {
            "duration": 0.36363600000001384,
            "durationTicks": 384,
            "midi": 84,
            "name": "C6",
            "ticks": 109440,
            "time": 103.63626000000001,
            "velocity": 0.7244094488188977
          },
          {
            "duration": 0.13636350000000164,
            "durationTicks": 144,
            "midi": 81,
            "name": "A5",
            "ticks": 110160,
            "time": 104.31807750000002,
            "velocity": 0.7244094488188977
          },
          {
            "duration": 0.3636359999999996,
            "durationTicks": 384,
            "midi": 84,
            "name": "C6",
            "ticks": 110400,
            "time": 104.54535000000001,
            "velocity": 0.7244094488188977
          },
          {
            "duration": 0.13636350000001585,
            "durationTicks": 144,
            "midi": 81,
            "name": "A5",
            "ticks": 111120,
            "time": 105.22716750000001,
            "velocity": 0.7244094488188977
          },
          {
            "duration": 0.13636350000000164,
            "durationTicks": 144,
            "midi": 84,
            "name": "C6",
            "ticks": 111360,
            "time": 105.45444000000002,
            "velocity": 0.7244094488188977
          },
          {
            "duration": 0.13636350000000164,
            "durationTicks": 144,
            "midi": 81,
            "name": "A5",
            "ticks": 111600,
            "time": 105.68171250000002,
            "velocity": 0.7244094488188977
          },
          {
            "duration": 0.13636350000000164,
            "durationTicks": 144,
            "midi": 78,
            "name": "F#5",
            "ticks": 111840,
            "time": 105.90898500000002,
            "velocity": 0.7244094488188977
          },
          {
            "duration": 0.13636350000000164,
            "durationTicks": 144,
            "midi": 81,
            "name": "A5",
            "ticks": 112080,
            "time": 106.13625750000001,
            "velocity": 0.7244094488188977
          },
          {
            "duration": 0.36363600000001384,
            "durationTicks": 384,
            "midi": 74,
            "name": "D5",
            "ticks": 112320,
            "time": 106.36353000000001,
            "velocity": 0.7244094488188977
          },
          {
            "duration": 0.09090899999999635,
            "durationTicks": 96,
            "midi": 59,
            "name": "B3",
            "ticks": 113280,
            "time": 107.27262000000002,
            "velocity": 0.8267716535433071
          },
          {
            "duration": 0.09090899999999635,
            "durationTicks": 96,
            "midi": 62,
            "name": "D4",
            "ticks": 113280,
            "time": 107.27262000000002,
            "velocity": 0.8267716535433071
          },
          {
            "duration": 0.09090899999999635,
            "durationTicks": 96,
            "midi": 59,
            "name": "B3",
            "ticks": 113400,
            "time": 107.38625625000002,
            "velocity": 0.8267716535433071
          },
          {
            "duration": 0.09090899999999635,
            "durationTicks": 96,
            "midi": 62,
            "name": "D4",
            "ticks": 113400,
            "time": 107.38625625000002,
            "velocity": 0.8267716535433071
          },
          {
            "duration": 0.09090899999999635,
            "durationTicks": 96,
            "midi": 59,
            "name": "B3",
            "ticks": 113520,
            "time": 107.49989250000002,
            "velocity": 0.8267716535433071
          },
          {
            "duration": 0.09090899999999635,
            "durationTicks": 96,
            "midi": 62,
            "name": "D4",
            "ticks": 113520,
            "time": 107.49989250000002,
            "velocity": 0.8267716535433071
          },
          {
            "duration": 0.09090899999999635,
            "durationTicks": 96,
            "midi": 59,
            "name": "B3",
            "ticks": 113640,
            "time": 107.61352875000001,
            "velocity": 0.8267716535433071
          },
          {
            "duration": 0.09090899999999635,
            "durationTicks": 96,
            "midi": 62,
            "name": "D4",
            "ticks": 113640,
            "time": 107.61352875000001,
            "velocity": 0.8267716535433071
          },
          {
            "duration": 0.09090899999999635,
            "durationTicks": 96,
            "midi": 59,
            "name": "B3",
            "ticks": 113760,
            "time": 107.72716500000001,
            "velocity": 0.8267716535433071
          },
          {
            "duration": 0.09090899999999635,
            "durationTicks": 96,
            "midi": 62,
            "name": "D4",
            "ticks": 113760,
            "time": 107.72716500000001,
            "velocity": 0.8267716535433071
          },
          {
            "duration": 0.09090899999999635,
            "durationTicks": 96,
            "midi": 59,
            "name": "B3",
            "ticks": 113880,
            "time": 107.84080125000001,
            "velocity": 0.8267716535433071
          },
          {
            "duration": 0.09090899999999635,
            "durationTicks": 96,
            "midi": 62,
            "name": "D4",
            "ticks": 113880,
            "time": 107.84080125000001,
            "velocity": 0.8267716535433071
          },
          {
            "duration": 0.09090899999999635,
            "durationTicks": 96,
            "midi": 59,
            "name": "B3",
            "ticks": 114000,
            "time": 107.95443750000001,
            "velocity": 0.8267716535433071
          },
          {
            "duration": 0.09090899999999635,
            "durationTicks": 96,
            "midi": 62,
            "name": "D4",
            "ticks": 114000,
            "time": 107.95443750000001,
            "velocity": 0.8267716535433071
          },
          {
            "duration": 0.09090899999999635,
            "durationTicks": 96,
            "midi": 59,
            "name": "B3",
            "ticks": 114120,
            "time": 108.06807375000001,
            "velocity": 0.8267716535433071
          },
          {
            "duration": 0.09090899999999635,
            "durationTicks": 96,
            "midi": 62,
            "name": "D4",
            "ticks": 114120,
            "time": 108.06807375000001,
            "velocity": 0.8267716535433071
          },
          {
            "duration": 0.09090899999999635,
            "durationTicks": 96,
            "midi": 59,
            "name": "B3",
            "ticks": 114240,
            "time": 108.18171000000001,
            "velocity": 0.8267716535433071
          },
          {
            "duration": 0.09090899999999635,
            "durationTicks": 96,
            "midi": 62,
            "name": "D4",
            "ticks": 114240,
            "time": 108.18171000000001,
            "velocity": 0.8267716535433071
          },
          {
            "duration": 0.09090899999999635,
            "durationTicks": 96,
            "midi": 59,
            "name": "B3",
            "ticks": 114360,
            "time": 108.29534625000001,
            "velocity": 0.8267716535433071
          },
          {
            "duration": 0.09090899999999635,
            "durationTicks": 96,
            "midi": 62,
            "name": "D4",
            "ticks": 114360,
            "time": 108.29534625000001,
            "velocity": 0.8267716535433071
          },
          {
            "duration": 0.09090899999999635,
            "durationTicks": 96,
            "midi": 59,
            "name": "B3",
            "ticks": 114480,
            "time": 108.40898250000001,
            "velocity": 0.8267716535433071
          },
          {
            "duration": 0.09090899999999635,
            "durationTicks": 96,
            "midi": 62,
            "name": "D4",
            "ticks": 114480,
            "time": 108.40898250000001,
            "velocity": 0.8267716535433071
          },
          {
            "duration": 0.09090899999998214,
            "durationTicks": 96,
            "midi": 59,
            "name": "B3",
            "ticks": 114600,
            "time": 108.52261875000002,
            "velocity": 0.8267716535433071
          },
          {
            "duration": 0.09090899999998214,
            "durationTicks": 96,
            "midi": 62,
            "name": "D4",
            "ticks": 114600,
            "time": 108.52261875000002,
            "velocity": 0.8267716535433071
          },
          {
            "duration": 0.09090899999998214,
            "durationTicks": 96,
            "midi": 59,
            "name": "B3",
            "ticks": 114720,
            "time": 108.63625500000002,
            "velocity": 0.8267716535433071
          },
          {
            "duration": 0.09090899999998214,
            "durationTicks": 96,
            "midi": 62,
            "name": "D4",
            "ticks": 114720,
            "time": 108.63625500000002,
            "velocity": 0.8267716535433071
          },
          {
            "duration": 0.09090899999999635,
            "durationTicks": 96,
            "midi": 59,
            "name": "B3",
            "ticks": 114840,
            "time": 108.74989125000002,
            "velocity": 0.8267716535433071
          },
          {
            "duration": 0.09090899999999635,
            "durationTicks": 96,
            "midi": 62,
            "name": "D4",
            "ticks": 114840,
            "time": 108.74989125000002,
            "velocity": 0.8267716535433071
          },
          {
            "duration": 0.09090899999999635,
            "durationTicks": 96,
            "midi": 59,
            "name": "B3",
            "ticks": 114960,
            "time": 108.86352750000002,
            "velocity": 0.8267716535433071
          },
          {
            "duration": 0.09090899999999635,
            "durationTicks": 96,
            "midi": 62,
            "name": "D4",
            "ticks": 114960,
            "time": 108.86352750000002,
            "velocity": 0.8267716535433071
          },
          {
            "duration": 0.09090899999999635,
            "durationTicks": 96,
            "midi": 59,
            "name": "B3",
            "ticks": 115080,
            "time": 108.97716375000002,
            "velocity": 0.8267716535433071
          },
          {
            "duration": 0.09090899999999635,
            "durationTicks": 96,
            "midi": 62,
            "name": "D4",
            "ticks": 115080,
            "time": 108.97716375000002,
            "velocity": 0.8267716535433071
          },
          {
            "duration": 0.09090899999999635,
            "durationTicks": 96,
            "midi": 60,
            "name": "C4",
            "ticks": 115200,
            "time": 109.09080000000002,
            "velocity": 0.8267716535433071
          },
          {
            "duration": 0.09090899999999635,
            "durationTicks": 96,
            "midi": 62,
            "name": "D4",
            "ticks": 115200,
            "time": 109.09080000000002,
            "velocity": 0.8267716535433071
          },
          {
            "duration": 0.09090899999999635,
            "durationTicks": 96,
            "midi": 60,
            "name": "C4",
            "ticks": 115320,
            "time": 109.20443625000001,
            "velocity": 0.8267716535433071
          },
          {
            "duration": 0.09090899999999635,
            "durationTicks": 96,
            "midi": 62,
            "name": "D4",
            "ticks": 115320,
            "time": 109.20443625000001,
            "velocity": 0.8267716535433071
          },
          {
            "duration": 0.09090899999999635,
            "durationTicks": 96,
            "midi": 60,
            "name": "C4",
            "ticks": 115440,
            "time": 109.31807250000001,
            "velocity": 0.8267716535433071
          },
          {
            "duration": 0.09090899999999635,
            "durationTicks": 96,
            "midi": 62,
            "name": "D4",
            "ticks": 115440,
            "time": 109.31807250000001,
            "velocity": 0.8267716535433071
          },
          {
            "duration": 0.09090899999999635,
            "durationTicks": 96,
            "midi": 60,
            "name": "C4",
            "ticks": 115560,
            "time": 109.43170875000001,
            "velocity": 0.8267716535433071
          },
          {
            "duration": 0.09090899999999635,
            "durationTicks": 96,
            "midi": 62,
            "name": "D4",
            "ticks": 115560,
            "time": 109.43170875000001,
            "velocity": 0.8267716535433071
          },
          {
            "duration": 0.09090899999999635,
            "durationTicks": 96,
            "midi": 60,
            "name": "C4",
            "ticks": 115680,
            "time": 109.54534500000001,
            "velocity": 0.8267716535433071
          },
          {
            "duration": 0.09090899999999635,
            "durationTicks": 96,
            "midi": 62,
            "name": "D4",
            "ticks": 115680,
            "time": 109.54534500000001,
            "velocity": 0.8267716535433071
          },
          {
            "duration": 0.09090899999999635,
            "durationTicks": 96,
            "midi": 60,
            "name": "C4",
            "ticks": 115800,
            "time": 109.65898125000001,
            "velocity": 0.8267716535433071
          },
          {
            "duration": 0.09090899999999635,
            "durationTicks": 96,
            "midi": 62,
            "name": "D4",
            "ticks": 115800,
            "time": 109.65898125000001,
            "velocity": 0.8267716535433071
          },
          {
            "duration": 0.09090899999999635,
            "durationTicks": 96,
            "midi": 60,
            "name": "C4",
            "ticks": 115920,
            "time": 109.77261750000001,
            "velocity": 0.8267716535433071
          },
          {
            "duration": 0.09090899999999635,
            "durationTicks": 96,
            "midi": 62,
            "name": "D4",
            "ticks": 115920,
            "time": 109.77261750000001,
            "velocity": 0.8267716535433071
          },
          {
            "duration": 0.09090899999999635,
            "durationTicks": 96,
            "midi": 60,
            "name": "C4",
            "ticks": 116040,
            "time": 109.88625375000001,
            "velocity": 0.8267716535433071
          },
          {
            "duration": 0.09090899999999635,
            "durationTicks": 96,
            "midi": 62,
            "name": "D4",
            "ticks": 116040,
            "time": 109.88625375000001,
            "velocity": 0.8267716535433071
          },
          {
            "duration": 0.09090899999999635,
            "durationTicks": 96,
            "midi": 60,
            "name": "C4",
            "ticks": 116160,
            "time": 109.99989000000001,
            "velocity": 0.8267716535433071
          },
          {
            "duration": 0.09090899999999635,
            "durationTicks": 96,
            "midi": 62,
            "name": "D4",
            "ticks": 116160,
            "time": 109.99989000000001,
            "velocity": 0.8267716535433071
          },
          {
            "duration": 0.09090899999998214,
            "durationTicks": 96,
            "midi": 60,
            "name": "C4",
            "ticks": 116280,
            "time": 110.11352625000002,
            "velocity": 0.8267716535433071
          },
          {
            "duration": 0.09090899999998214,
            "durationTicks": 96,
            "midi": 62,
            "name": "D4",
            "ticks": 116280,
            "time": 110.11352625000002,
            "velocity": 0.8267716535433071
          },
          {
            "duration": 0.09090899999998214,
            "durationTicks": 96,
            "midi": 60,
            "name": "C4",
            "ticks": 116400,
            "time": 110.22716250000002,
            "velocity": 0.8267716535433071
          },
          {
            "duration": 0.09090899999998214,
            "durationTicks": 96,
            "midi": 62,
            "name": "D4",
            "ticks": 116400,
            "time": 110.22716250000002,
            "velocity": 0.8267716535433071
          },
          {
            "duration": 0.09090899999999635,
            "durationTicks": 96,
            "midi": 60,
            "name": "C4",
            "ticks": 116520,
            "time": 110.34079875000002,
            "velocity": 0.8267716535433071
          },
          {
            "duration": 0.09090899999999635,
            "durationTicks": 96,
            "midi": 62,
            "name": "D4",
            "ticks": 116520,
            "time": 110.34079875000002,
            "velocity": 0.8267716535433071
          },
          {
            "duration": 0.09090899999999635,
            "durationTicks": 96,
            "midi": 60,
            "name": "C4",
            "ticks": 116640,
            "time": 110.45443500000002,
            "velocity": 0.8267716535433071
          },
          {
            "duration": 0.09090899999999635,
            "durationTicks": 96,
            "midi": 62,
            "name": "D4",
            "ticks": 116640,
            "time": 110.45443500000002,
            "velocity": 0.8267716535433071
          },
          {
            "duration": 0.09090899999999635,
            "durationTicks": 96,
            "midi": 60,
            "name": "C4",
            "ticks": 116760,
            "time": 110.56807125000002,
            "velocity": 0.8267716535433071
          },
          {
            "duration": 0.09090899999999635,
            "durationTicks": 96,
            "midi": 62,
            "name": "D4",
            "ticks": 116760,
            "time": 110.56807125000002,
            "velocity": 0.8267716535433071
          },
          {
            "duration": 0.09090899999999635,
            "durationTicks": 96,
            "midi": 60,
            "name": "C4",
            "ticks": 116880,
            "time": 110.68170750000002,
            "velocity": 0.8267716535433071
          },
          {
            "duration": 0.09090899999999635,
            "durationTicks": 96,
            "midi": 62,
            "name": "D4",
            "ticks": 116880,
            "time": 110.68170750000002,
            "velocity": 0.8267716535433071
          },
          {
            "duration": 0.09090899999999635,
            "durationTicks": 96,
            "midi": 60,
            "name": "C4",
            "ticks": 117000,
            "time": 110.79534375000001,
            "velocity": 0.8267716535433071
          },
          {
            "duration": 0.09090899999999635,
            "durationTicks": 96,
            "midi": 62,
            "name": "D4",
            "ticks": 117000,
            "time": 110.79534375000001,
            "velocity": 0.8267716535433071
          },
          {
            "duration": 0.09090899999999635,
            "durationTicks": 96,
            "midi": 59,
            "name": "B3",
            "ticks": 117120,
            "time": 110.90898000000001,
            "velocity": 0.8267716535433071
          },
          {
            "duration": 0.09090899999999635,
            "durationTicks": 96,
            "midi": 62,
            "name": "D4",
            "ticks": 117120,
            "time": 110.90898000000001,
            "velocity": 0.8267716535433071
          },
          {
            "duration": 0.09090899999999635,
            "durationTicks": 96,
            "midi": 59,
            "name": "B3",
            "ticks": 117240,
            "time": 111.02261625000001,
            "velocity": 0.8267716535433071
          },
          {
            "duration": 0.09090899999999635,
            "durationTicks": 96,
            "midi": 62,
            "name": "D4",
            "ticks": 117240,
            "time": 111.02261625000001,
            "velocity": 0.8267716535433071
          },
          {
            "duration": 0.09090899999999635,
            "durationTicks": 96,
            "midi": 59,
            "name": "B3",
            "ticks": 117360,
            "time": 111.13625250000001,
            "velocity": 0.8267716535433071
          },
          {
            "duration": 0.09090899999999635,
            "durationTicks": 96,
            "midi": 62,
            "name": "D4",
            "ticks": 117360,
            "time": 111.13625250000001,
            "velocity": 0.8267716535433071
          },
          {
            "duration": 0.09090899999999635,
            "durationTicks": 96,
            "midi": 59,
            "name": "B3",
            "ticks": 117480,
            "time": 111.24988875000001,
            "velocity": 0.8267716535433071
          },
          {
            "duration": 0.09090899999999635,
            "durationTicks": 96,
            "midi": 62,
            "name": "D4",
            "ticks": 117480,
            "time": 111.24988875000001,
            "velocity": 0.8267716535433071
          },
          {
            "duration": 0.09090899999999635,
            "durationTicks": 96,
            "midi": 59,
            "name": "B3",
            "ticks": 117600,
            "time": 111.36352500000001,
            "velocity": 0.8267716535433071
          },
          {
            "duration": 0.09090899999999635,
            "durationTicks": 96,
            "midi": 62,
            "name": "D4",
            "ticks": 117600,
            "time": 111.36352500000001,
            "velocity": 0.8267716535433071
          },
          {
            "duration": 0.09090899999999635,
            "durationTicks": 96,
            "midi": 59,
            "name": "B3",
            "ticks": 117720,
            "time": 111.47716125000001,
            "velocity": 0.8267716535433071
          },
          {
            "duration": 0.09090899999999635,
            "durationTicks": 96,
            "midi": 62,
            "name": "D4",
            "ticks": 117720,
            "time": 111.47716125000001,
            "velocity": 0.8267716535433071
          },
          {
            "duration": 0.09090899999999635,
            "durationTicks": 96,
            "midi": 59,
            "name": "B3",
            "ticks": 117840,
            "time": 111.59079750000001,
            "velocity": 0.8267716535433071
          },
          {
            "duration": 0.09090899999999635,
            "durationTicks": 96,
            "midi": 62,
            "name": "D4",
            "ticks": 117840,
            "time": 111.59079750000001,
            "velocity": 0.8267716535433071
          },
          {
            "duration": 0.09090899999998214,
            "durationTicks": 96,
            "midi": 59,
            "name": "B3",
            "ticks": 117960,
            "time": 111.70443375000002,
            "velocity": 0.8267716535433071
          },
          {
            "duration": 0.09090899999998214,
            "durationTicks": 96,
            "midi": 62,
            "name": "D4",
            "ticks": 117960,
            "time": 111.70443375000002,
            "velocity": 0.8267716535433071
          },
          {
            "duration": 0.09090899999998214,
            "durationTicks": 96,
            "midi": 59,
            "name": "B3",
            "ticks": 118080,
            "time": 111.81807000000002,
            "velocity": 0.8267716535433071
          },
          {
            "duration": 0.09090899999998214,
            "durationTicks": 96,
            "midi": 62,
            "name": "D4",
            "ticks": 118080,
            "time": 111.81807000000002,
            "velocity": 0.8267716535433071
          },
          {
            "duration": 0.09090899999999635,
            "durationTicks": 96,
            "midi": 59,
            "name": "B3",
            "ticks": 118200,
            "time": 111.93170625000002,
            "velocity": 0.8267716535433071
          },
          {
            "duration": 0.09090899999999635,
            "durationTicks": 96,
            "midi": 62,
            "name": "D4",
            "ticks": 118200,
            "time": 111.93170625000002,
            "velocity": 0.8267716535433071
          },
          {
            "duration": 0.09090899999999635,
            "durationTicks": 96,
            "midi": 59,
            "name": "B3",
            "ticks": 118320,
            "time": 112.04534250000002,
            "velocity": 0.8267716535433071
          },
          {
            "duration": 0.09090899999999635,
            "durationTicks": 96,
            "midi": 62,
            "name": "D4",
            "ticks": 118320,
            "time": 112.04534250000002,
            "velocity": 0.8267716535433071
          },
          {
            "duration": 0.09090899999999635,
            "durationTicks": 96,
            "midi": 59,
            "name": "B3",
            "ticks": 118440,
            "time": 112.15897875000002,
            "velocity": 0.8267716535433071
          },
          {
            "duration": 0.09090899999999635,
            "durationTicks": 96,
            "midi": 62,
            "name": "D4",
            "ticks": 118440,
            "time": 112.15897875000002,
            "velocity": 0.8267716535433071
          },
          {
            "duration": 0.09090899999999635,
            "durationTicks": 96,
            "midi": 59,
            "name": "B3",
            "ticks": 118560,
            "time": 112.27261500000002,
            "velocity": 0.8267716535433071
          },
          {
            "duration": 0.09090899999999635,
            "durationTicks": 96,
            "midi": 62,
            "name": "D4",
            "ticks": 118560,
            "time": 112.27261500000002,
            "velocity": 0.8267716535433071
          },
          {
            "duration": 0.09090899999999635,
            "durationTicks": 96,
            "midi": 59,
            "name": "B3",
            "ticks": 118680,
            "time": 112.38625125000002,
            "velocity": 0.8267716535433071
          },
          {
            "duration": 0.09090899999999635,
            "durationTicks": 96,
            "midi": 62,
            "name": "D4",
            "ticks": 118680,
            "time": 112.38625125000002,
            "velocity": 0.8267716535433071
          },
          {
            "duration": 0.09090899999999635,
            "durationTicks": 96,
            "midi": 59,
            "name": "B3",
            "ticks": 118800,
            "time": 112.49988750000001,
            "velocity": 0.8267716535433071
          },
          {
            "duration": 0.09090899999999635,
            "durationTicks": 96,
            "midi": 62,
            "name": "D4",
            "ticks": 118800,
            "time": 112.49988750000001,
            "velocity": 0.8267716535433071
          },
          {
            "duration": 0.09090899999999635,
            "durationTicks": 96,
            "midi": 59,
            "name": "B3",
            "ticks": 118920,
            "time": 112.61352375000001,
            "velocity": 0.8267716535433071
          },
          {
            "duration": 0.09090899999999635,
            "durationTicks": 96,
            "midi": 62,
            "name": "D4",
            "ticks": 118920,
            "time": 112.61352375000001,
            "velocity": 0.8267716535433071
          },
          {
            "duration": 0.09090899999999635,
            "durationTicks": 96,
            "midi": 60,
            "name": "C4",
            "ticks": 119040,
            "time": 112.72716000000001,
            "velocity": 0.8267716535433071
          },
          {
            "duration": 0.09090899999999635,
            "durationTicks": 96,
            "midi": 62,
            "name": "D4",
            "ticks": 119040,
            "time": 112.72716000000001,
            "velocity": 0.8267716535433071
          },
          {
            "duration": 0.09090899999999635,
            "durationTicks": 96,
            "midi": 60,
            "name": "C4",
            "ticks": 119160,
            "time": 112.84079625000001,
            "velocity": 0.8267716535433071
          },
          {
            "duration": 0.09090899999999635,
            "durationTicks": 96,
            "midi": 62,
            "name": "D4",
            "ticks": 119160,
            "time": 112.84079625000001,
            "velocity": 0.8267716535433071
          },
          {
            "duration": 0.09090899999999635,
            "durationTicks": 96,
            "midi": 60,
            "name": "C4",
            "ticks": 119280,
            "time": 112.95443250000001,
            "velocity": 0.8267716535433071
          },
          {
            "duration": 0.09090899999999635,
            "durationTicks": 96,
            "midi": 62,
            "name": "D4",
            "ticks": 119280,
            "time": 112.95443250000001,
            "velocity": 0.8267716535433071
          },
          {
            "duration": 0.09090899999999635,
            "durationTicks": 96,
            "midi": 60,
            "name": "C4",
            "ticks": 119400,
            "time": 113.06806875000001,
            "velocity": 0.8267716535433071
          },
          {
            "duration": 0.09090899999999635,
            "durationTicks": 96,
            "midi": 62,
            "name": "D4",
            "ticks": 119400,
            "time": 113.06806875000001,
            "velocity": 0.8267716535433071
          },
          {
            "duration": 0.09090899999999635,
            "durationTicks": 96,
            "midi": 60,
            "name": "C4",
            "ticks": 119520,
            "time": 113.18170500000001,
            "velocity": 0.8267716535433071
          },
          {
            "duration": 0.09090899999999635,
            "durationTicks": 96,
            "midi": 62,
            "name": "D4",
            "ticks": 119520,
            "time": 113.18170500000001,
            "velocity": 0.8267716535433071
          },
          {
            "duration": 0.09090899999998214,
            "durationTicks": 96,
            "midi": 60,
            "name": "C4",
            "ticks": 119640,
            "time": 113.29534125000002,
            "velocity": 0.8267716535433071
          },
          {
            "duration": 0.09090899999998214,
            "durationTicks": 96,
            "midi": 62,
            "name": "D4",
            "ticks": 119640,
            "time": 113.29534125000002,
            "velocity": 0.8267716535433071
          },
          {
            "duration": 0.09090899999998214,
            "durationTicks": 96,
            "midi": 60,
            "name": "C4",
            "ticks": 119760,
            "time": 113.40897750000002,
            "velocity": 0.8267716535433071
          },
          {
            "duration": 0.09090899999998214,
            "durationTicks": 96,
            "midi": 62,
            "name": "D4",
            "ticks": 119760,
            "time": 113.40897750000002,
            "velocity": 0.8267716535433071
          },
          {
            "duration": 0.09090899999999635,
            "durationTicks": 96,
            "midi": 60,
            "name": "C4",
            "ticks": 119880,
            "time": 113.52261375000002,
            "velocity": 0.8267716535433071
          },
          {
            "duration": 0.09090899999999635,
            "durationTicks": 96,
            "midi": 62,
            "name": "D4",
            "ticks": 119880,
            "time": 113.52261375000002,
            "velocity": 0.8267716535433071
          },
          {
            "duration": 0.09090899999999635,
            "durationTicks": 96,
            "midi": 60,
            "name": "C4",
            "ticks": 120000,
            "time": 113.63625000000002,
            "velocity": 0.8267716535433071
          },
          {
            "duration": 0.09090899999999635,
            "durationTicks": 96,
            "midi": 62,
            "name": "D4",
            "ticks": 120000,
            "time": 113.63625000000002,
            "velocity": 0.8267716535433071
          },
          {
            "duration": 0.09090899999999635,
            "durationTicks": 96,
            "midi": 60,
            "name": "C4",
            "ticks": 120120,
            "time": 113.74988625000002,
            "velocity": 0.8267716535433071
          },
          {
            "duration": 0.09090899999999635,
            "durationTicks": 96,
            "midi": 62,
            "name": "D4",
            "ticks": 120120,
            "time": 113.74988625000002,
            "velocity": 0.8267716535433071
          },
          {
            "duration": 0.09090899999999635,
            "durationTicks": 96,
            "midi": 60,
            "name": "C4",
            "ticks": 120240,
            "time": 113.86352250000002,
            "velocity": 0.8267716535433071
          },
          {
            "duration": 0.09090899999999635,
            "durationTicks": 96,
            "midi": 62,
            "name": "D4",
            "ticks": 120240,
            "time": 113.86352250000002,
            "velocity": 0.8267716535433071
          },
          {
            "duration": 0.09090899999999635,
            "durationTicks": 96,
            "midi": 60,
            "name": "C4",
            "ticks": 120360,
            "time": 113.97715875000002,
            "velocity": 0.8267716535433071
          },
          {
            "duration": 0.09090899999999635,
            "durationTicks": 96,
            "midi": 62,
            "name": "D4",
            "ticks": 120360,
            "time": 113.97715875000002,
            "velocity": 0.8267716535433071
          },
          {
            "duration": 0.09090899999999635,
            "durationTicks": 96,
            "midi": 60,
            "name": "C4",
            "ticks": 120480,
            "time": 114.09079500000001,
            "velocity": 0.8267716535433071
          },
          {
            "duration": 0.09090899999999635,
            "durationTicks": 96,
            "midi": 62,
            "name": "D4",
            "ticks": 120480,
            "time": 114.09079500000001,
            "velocity": 0.8267716535433071
          },
          {
            "duration": 0.09090899999999635,
            "durationTicks": 96,
            "midi": 60,
            "name": "C4",
            "ticks": 120600,
            "time": 114.20443125000001,
            "velocity": 0.8267716535433071
          },
          {
            "duration": 0.09090899999999635,
            "durationTicks": 96,
            "midi": 62,
            "name": "D4",
            "ticks": 120600,
            "time": 114.20443125000001,
            "velocity": 0.8267716535433071
          },
          {
            "duration": 0.09090899999999635,
            "durationTicks": 96,
            "midi": 60,
            "name": "C4",
            "ticks": 120720,
            "time": 114.31806750000001,
            "velocity": 0.8267716535433071
          },
          {
            "duration": 0.09090899999999635,
            "durationTicks": 96,
            "midi": 62,
            "name": "D4",
            "ticks": 120720,
            "time": 114.31806750000001,
            "velocity": 0.8267716535433071
          },
          {
            "duration": 0.09090899999999635,
            "durationTicks": 96,
            "midi": 60,
            "name": "C4",
            "ticks": 120840,
            "time": 114.43170375000001,
            "velocity": 0.8267716535433071
          },
          {
            "duration": 0.09090899999999635,
            "durationTicks": 96,
            "midi": 62,
            "name": "D4",
            "ticks": 120840,
            "time": 114.43170375000001,
            "velocity": 0.8267716535433071
          },
          {
            "duration": 0.36363600000001384,
            "durationTicks": 384,
            "midi": 59,
            "name": "B3",
            "ticks": 120960,
            "time": 114.54534000000001,
            "velocity": 0.8267716535433071
          },
          {
            "duration": 0.36363600000001384,
            "durationTicks": 384,
            "midi": 62,
            "name": "D4",
            "ticks": 120960,
            "time": 114.54534000000001,
            "velocity": 0.8267716535433071
          },
          {
            "duration": 0.13636350000000164,
            "durationTicks": 144,
            "midi": 72,
            "name": "C5",
            "ticks": 121440,
            "time": 114.99988500000002,
            "velocity": 0.8267716535433071
          },
          {
            "duration": 0.13636350000000164,
            "durationTicks": 144,
            "midi": 72,
            "name": "C5",
            "ticks": 121680,
            "time": 115.22715750000002,
            "velocity": 0.8267716535433071
          },
          {
            "duration": 0.13636350000000164,
            "durationTicks": 144,
            "midi": 74,
            "name": "D5",
            "ticks": 121920,
            "time": 115.45443000000002,
            "velocity": 0.8267716535433071
          },
          {
            "duration": 0.13636350000000164,
            "durationTicks": 144,
            "midi": 74,
            "name": "D5",
            "ticks": 122160,
            "time": 115.68170250000001,
            "velocity": 0.8267716535433071
          },
          {
            "duration": 0.227272499999998,
            "durationTicks": 240,
            "midi": 72,
            "name": "C5",
            "ticks": 122400,
            "time": 115.90897500000001,
            "velocity": 0.8267716535433071
          },
          {
            "duration": 0.113636249999999,
            "durationTicks": 120,
            "midi": 71,
            "name": "B4",
            "ticks": 122640,
            "time": 116.13624750000001,
            "velocity": 0.8267716535433071
          },
          {
            "duration": 0.09090899999999635,
            "durationTicks": 96,
            "midi": 69,
            "name": "A4",
            "ticks": 122760,
            "time": 116.24988375000001,
            "velocity": 0.8267716535433071
          },
          {
            "duration": 0.13636350000001585,
            "durationTicks": 144,
            "midi": 67,
            "name": "G4",
            "ticks": 122880,
            "time": 116.36352000000001,
            "velocity": 0.8267716535433071
          },
          {
            "duration": 0.13636350000000164,
            "durationTicks": 144,
            "midi": 67,
            "name": "G4",
            "ticks": 123120,
            "time": 116.59079250000002,
            "velocity": 0.8267716535433071
          },
          {
            "duration": 0.13636350000000164,
            "durationTicks": 144,
            "midi": 66,
            "name": "F#4",
            "ticks": 123360,
            "time": 116.81806500000002,
            "velocity": 0.8267716535433071
          },
          {
            "duration": 0.13636350000000164,
            "durationTicks": 144,
            "midi": 66,
            "name": "F#4",
            "ticks": 123600,
            "time": 117.04533750000002,
            "velocity": 0.8267716535433071
          },
          {
            "duration": 0.3636359999999996,
            "durationTicks": 384,
            "midi": 67,
            "name": "G4",
            "ticks": 123840,
            "time": 117.27261000000001,
            "velocity": 0.7244094488188977
          },
          {
            "duration": 0.909089999999992,
            "durationTicks": 960,
            "midi": 71,
            "name": "B4",
            "ticks": 124800,
            "time": 118.18170000000002,
            "velocity": 0.4566929133858268
          },
          {
            "duration": 0.7272720000000135,
            "durationTicks": 768,
            "midi": 72,
            "name": "C5",
            "ticks": 125760,
            "time": 119.09079000000001,
            "velocity": 0.4566929133858268
          },
          {
            "duration": 0.113636249999999,
            "durationTicks": 120,
            "midi": 71,
            "name": "B4",
            "ticks": 126720,
            "time": 119.99988000000002,
            "velocity": 0.4566929133858268
          },
          {
            "duration": 0.22159068749999733,
            "durationTicks": 234,
            "midi": 69,
            "name": "A4",
            "ticks": 126840,
            "time": 120.11351625000002,
            "velocity": 0.4566929133858268
          },
          {
            "duration": 0.2954542499999917,
            "durationTicks": 312,
            "midi": 69,
            "name": "A4",
            "ticks": 127200,
            "time": 120.45442500000001,
            "velocity": 0.4566929133858268
          },
          {
            "duration": 0.113636249999999,
            "durationTicks": 120,
            "midi": 69,
            "name": "A4",
            "ticks": 127680,
            "time": 120.90897000000001,
            "velocity": 0.4566929133858268
          },
          {
            "duration": 0.22159068750001154,
            "durationTicks": 234,
            "midi": 67,
            "name": "G4",
            "ticks": 127800,
            "time": 121.02260625000001,
            "velocity": 0.4566929133858268
          },
          {
            "duration": 0.2954542499999775,
            "durationTicks": 312,
            "midi": 67,
            "name": "G4",
            "ticks": 128160,
            "time": 121.36351500000002,
            "velocity": 0.4566929133858268
          },
          {
            "duration": 0.2954542499999917,
            "durationTicks": 312,
            "midi": 64,
            "name": "E4",
            "ticks": 128640,
            "time": 121.81806000000002,
            "velocity": 0.4566929133858268
          },
          {
            "duration": 0.2954542499999917,
            "durationTicks": 312,
            "midi": 64,
            "name": "E4",
            "ticks": 129120,
            "time": 122.27260500000001,
            "velocity": 0.4566929133858268
          },
          {
            "duration": 0.2954542499999917,
            "durationTicks": 312,
            "midi": 60,
            "name": "C4",
            "ticks": 129600,
            "time": 122.72715000000001,
            "velocity": 0.4566929133858268
          },
          {
            "duration": 0.2954542499999917,
            "durationTicks": 312,
            "midi": 57,
            "name": "A3",
            "ticks": 130080,
            "time": 123.18169500000002,
            "velocity": 0.4566929133858268
          },
          {
            "duration": 0.1818179999999927,
            "durationTicks": 192,
            "midi": 62,
            "name": "D4",
            "ticks": 130560,
            "time": 123.63624000000002,
            "velocity": 0.4566929133858268
          },
          {
            "duration": 0.1818179999999927,
            "durationTicks": 192,
            "midi": 66,
            "name": "F#4",
            "ticks": 131040,
            "time": 124.09078500000001,
            "velocity": 0.4566929133858268
          },
          {
            "duration": 0.1818179999999785,
            "durationTicks": 192,
            "midi": 67,
            "name": "G4",
            "ticks": 131520,
            "time": 124.54533000000002,
            "velocity": 0.4566929133858268
          },
          {
            "duration": 0.9090900000000062,
            "durationTicks": 960,
            "midi": 71,
            "name": "B4",
            "ticks": 132480,
            "time": 125.45442000000001,
            "velocity": 0.4566929133858268
          },
          {
            "duration": 0.7272719999999993,
            "durationTicks": 768,
            "midi": 72,
            "name": "C5",
            "ticks": 133440,
            "time": 126.36351000000002,
            "velocity": 0.4566929133858268
          },
          {
            "duration": 0.227272499999998,
            "durationTicks": 240,
            "midi": 71,
            "name": "B4",
            "ticks": 134400,
            "time": 127.27260000000001,
            "velocity": 0.4566929133858268
          },
          {
            "duration": 0.14772712500000296,
            "durationTicks": 156,
            "midi": 69,
            "name": "A4",
            "ticks": 134640,
            "time": 127.49987250000001,
            "velocity": 0.4566929133858268
          },
          {
            "duration": 0.14772712499998875,
            "durationTicks": 156,
            "midi": 69,
            "name": "A4",
            "ticks": 134880,
            "time": 127.72714500000002,
            "velocity": 0.4566929133858268
          },
          {
            "duration": 0.14772712499997454,
            "durationTicks": 156,
            "midi": 69,
            "name": "A4",
            "ticks": 135120,
            "time": 127.95441750000002,
            "velocity": 0.4566929133858268
          },
          {
            "duration": 0.227272499999998,
            "durationTicks": 240,
            "midi": 69,
            "name": "A4",
            "ticks": 135360,
            "time": 128.18169,
            "velocity": 0.4566929133858268
          },
          {
            "duration": 0.14772712499998875,
            "durationTicks": 156,
            "midi": 67,
            "name": "G4",
            "ticks": 135600,
            "time": 128.4089625,
            "velocity": 0.4566929133858268
          },
          {
            "duration": 0.14772712500001717,
            "durationTicks": 156,
            "midi": 67,
            "name": "G4",
            "ticks": 135840,
            "time": 128.636235,
            "velocity": 0.4566929133858268
          },
          {
            "duration": 0.14772712499998875,
            "durationTicks": 156,
            "midi": 67,
            "name": "G4",
            "ticks": 136080,
            "time": 128.8635075,
            "velocity": 0.4566929133858268
          },
          {
            "duration": 0.2954542500000059,
            "durationTicks": 312,
            "midi": 64,
            "name": "E4",
            "ticks": 136320,
            "time": 129.09078,
            "velocity": 0.4566929133858268
          },
          {
            "duration": 0.14772712500001717,
            "durationTicks": 156,
            "midi": 64,
            "name": "E4",
            "ticks": 136800,
            "time": 129.545325,
            "velocity": 0.4566929133858268
          },
          {
            "duration": 0.14772712500001717,
            "durationTicks": 156,
            "midi": 64,
            "name": "E4",
            "ticks": 137040,
            "time": 129.7725975,
            "velocity": 0.4566929133858268
          },
          {
            "duration": 0.2954542500000059,
            "durationTicks": 312,
            "midi": 60,
            "name": "C4",
            "ticks": 137280,
            "time": 129.99987,
            "velocity": 0.4566929133858268
          },
          {
            "duration": 0.14772712499998875,
            "durationTicks": 156,
            "midi": 60,
            "name": "C4",
            "ticks": 137760,
            "time": 130.454415,
            "velocity": 0.4566929133858268
          },
          {
            "duration": 0.14772712499998875,
            "durationTicks": 156,
            "midi": 60,
            "name": "C4",
            "ticks": 138000,
            "time": 130.6816875,
            "velocity": 0.4566929133858268
          },
          {
            "duration": 1.0909079999999847,
            "durationTicks": 1152,
            "midi": 59,
            "name": "B3",
            "ticks": 138240,
            "time": 130.90896,
            "velocity": 0.952755905511811
          },
          {
            "duration": 0.0568181250000066,
            "durationTicks": 60,
            "midi": 60,
            "name": "C4",
            "ticks": 139440,
            "time": 132.0453225,
            "velocity": 0.5669291338582677
          },
          {
            "duration": 0.0568181250000066,
            "durationTicks": 60,
            "midi": 59,
            "name": "B3",
            "ticks": 139500,
            "time": 132.102140625,
            "velocity": 0.5669291338582677
          },
          {
            "duration": 0.05681812499997818,
            "durationTicks": 60,
            "midi": 57,
            "name": "A3",
            "ticks": 139560,
            "time": 132.15895875,
            "velocity": 0.5669291338582677
          },
          {
            "duration": 0.0568181250000066,
            "durationTicks": 60,
            "midi": 59,
            "name": "B3",
            "ticks": 139620,
            "time": 132.215776875,
            "velocity": 0.5669291338582677
          },
          {
            "duration": 0.227272499999998,
            "durationTicks": 240,
            "midi": 60,
            "name": "C4",
            "ticks": 139680,
            "time": 132.272595,
            "velocity": 0.5669291338582677
          },
          {
            "duration": 0.1818179999999927,
            "durationTicks": 192,
            "midi": 57,
            "name": "A3",
            "ticks": 139920,
            "time": 132.4998675,
            "velocity": 0.5669291338582677
          },
          {
            "duration": 1.090908000000013,
            "durationTicks": 1152,
            "midi": 67,
            "name": "G4",
            "ticks": 140160,
            "time": 132.72714,
            "velocity": 0.952755905511811
          },
          {
            "duration": 0.05681812499997818,
            "durationTicks": 60,
            "midi": 69,
            "name": "A4",
            "ticks": 141360,
            "time": 133.8635025,
            "velocity": 0.5669291338582677
          },
          {
            "duration": 0.0568181250000066,
            "durationTicks": 60,
            "midi": 67,
            "name": "G4",
            "ticks": 141420,
            "time": 133.920320625,
            "velocity": 0.5669291338582677
          },
          {
            "duration": 0.0568181250000066,
            "durationTicks": 60,
            "midi": 66,
            "name": "F#4",
            "ticks": 141480,
            "time": 133.97713875,
            "velocity": 0.5669291338582677
          },
          {
            "duration": 0.0568181250000066,
            "durationTicks": 60,
            "midi": 67,
            "name": "G4",
            "ticks": 141540,
            "time": 134.033956875,
            "velocity": 0.5669291338582677
          },
          {
            "duration": 0.227272499999998,
            "durationTicks": 240,
            "midi": 69,
            "name": "A4",
            "ticks": 141600,
            "time": 134.090775,
            "velocity": 0.5669291338582677
          },
          {
            "duration": 0.1818179999999927,
            "durationTicks": 192,
            "midi": 66,
            "name": "F#4",
            "ticks": 141840,
            "time": 134.3180475,
            "velocity": 0.5669291338582677
          },
          {
            "duration": 0.09090899999998214,
            "durationTicks": 96,
            "midi": 71,
            "name": "B4",
            "ticks": 142080,
            "time": 134.54532,
            "velocity": 0.5669291338582677
          },
          {
            "duration": 0.09090900000001056,
            "durationTicks": 96,
            "midi": 71,
            "name": "B4",
            "ticks": 142200,
            "time": 134.65895625,
            "velocity": 0.5669291338582677
          },
          {
            "duration": 0.09090899999998214,
            "durationTicks": 96,
            "midi": 71,
            "name": "B4",
            "ticks": 142320,
            "time": 134.7725925,
            "velocity": 0.5669291338582677
          },
          {
            "duration": 0.09090899999998214,
            "durationTicks": 96,
            "midi": 71,
            "name": "B4",
            "ticks": 142440,
            "time": 134.88622875000001,
            "velocity": 0.5669291338582677
          },
          {
            "duration": 0.09090900000001056,
            "durationTicks": 96,
            "midi": 71,
            "name": "B4",
            "ticks": 142560,
            "time": 134.999865,
            "velocity": 0.5669291338582677
          },
          {
            "duration": 0.09090899999998214,
            "durationTicks": 96,
            "midi": 71,
            "name": "B4",
            "ticks": 142680,
            "time": 135.11350125,
            "velocity": 0.5669291338582677
          },
          {
            "duration": 0.09090900000001056,
            "durationTicks": 96,
            "midi": 71,
            "name": "B4",
            "ticks": 142800,
            "time": 135.2271375,
            "velocity": 0.5669291338582677
          },
          {
            "duration": 0.09090899999998214,
            "durationTicks": 96,
            "midi": 71,
            "name": "B4",
            "ticks": 142920,
            "time": 135.34077375,
            "velocity": 0.5669291338582677
          },
          {
            "duration": 0.09090900000001056,
            "durationTicks": 96,
            "midi": 72,
            "name": "C5",
            "ticks": 143040,
            "time": 135.45441,
            "velocity": 0.6377952755905512
          },
          {
            "duration": 0.09090899999998214,
            "durationTicks": 96,
            "midi": 72,
            "name": "C5",
            "ticks": 143160,
            "time": 135.56804625,
            "velocity": 0.6377952755905512
          },
          {
            "duration": 0.09090900000001056,
            "durationTicks": 96,
            "midi": 72,
            "name": "C5",
            "ticks": 143280,
            "time": 135.6816825,
            "velocity": 0.6377952755905512
          },
          {
            "duration": 0.09090899999998214,
            "durationTicks": 96,
            "midi": 72,
            "name": "C5",
            "ticks": 143400,
            "time": 135.79531875,
            "velocity": 0.6377952755905512
          },
          {
            "duration": 0.09090900000001056,
            "durationTicks": 96,
            "midi": 72,
            "name": "C5",
            "ticks": 143520,
            "time": 135.908955,
            "velocity": 0.6377952755905512
          },
          {
            "duration": 0.09090899999998214,
            "durationTicks": 96,
            "midi": 72,
            "name": "C5",
            "ticks": 143640,
            "time": 136.02259125,
            "velocity": 0.6377952755905512
          },
          {
            "duration": 0.09090900000001056,
            "durationTicks": 96,
            "midi": 72,
            "name": "C5",
            "ticks": 143760,
            "time": 136.1362275,
            "velocity": 0.6377952755905512
          },
          {
            "duration": 0.09090899999998214,
            "durationTicks": 96,
            "midi": 72,
            "name": "C5",
            "ticks": 143880,
            "time": 136.24986375,
            "velocity": 0.6377952755905512
          },
          {
            "duration": 0.09090900000001056,
            "durationTicks": 96,
            "midi": 71,
            "name": "B4",
            "ticks": 144000,
            "time": 136.3635,
            "velocity": 0.7244094488188977
          },
          {
            "duration": 0.09090899999998214,
            "durationTicks": 96,
            "midi": 71,
            "name": "B4",
            "ticks": 144120,
            "time": 136.47713625,
            "velocity": 0.7244094488188977
          },
          {
            "duration": 0.09090899999998214,
            "durationTicks": 96,
            "midi": 71,
            "name": "B4",
            "ticks": 144240,
            "time": 136.5907725,
            "velocity": 0.7244094488188977
          },
          {
            "duration": 0.09090900000001056,
            "durationTicks": 96,
            "midi": 71,
            "name": "B4",
            "ticks": 144360,
            "time": 136.70440875,
            "velocity": 0.7244094488188977
          },
          {
            "duration": 0.09090899999998214,
            "durationTicks": 96,
            "midi": 74,
            "name": "D5",
            "ticks": 144480,
            "time": 136.818045,
            "velocity": 0.7244094488188977
          },
          {
            "duration": 0.09090900000001056,
            "durationTicks": 96,
            "midi": 74,
            "name": "D5",
            "ticks": 144600,
            "time": 136.93168125,
            "velocity": 0.7244094488188977
          },
          {
            "duration": 0.09090899999998214,
            "durationTicks": 96,
            "midi": 74,
            "name": "D5",
            "ticks": 144720,
            "time": 137.0453175,
            "velocity": 0.7244094488188977
          },
          {
            "duration": 0.09090900000001056,
            "durationTicks": 96,
            "midi": 74,
            "name": "D5",
            "ticks": 144840,
            "time": 137.15895375,
            "velocity": 0.8267716535433071
          },
          {
            "duration": 0.09090899999998214,
            "durationTicks": 96,
            "midi": 74,
            "name": "D5",
            "ticks": 144960,
            "time": 137.27259,
            "velocity": 0.8267716535433071
          },
          {
            "duration": 0.09090900000001056,
            "durationTicks": 96,
            "midi": 74,
            "name": "D5",
            "ticks": 145080,
            "time": 137.38622625,
            "velocity": 0.8267716535433071
          },
          {
            "duration": 0.09090899999998214,
            "durationTicks": 96,
            "midi": 74,
            "name": "D5",
            "ticks": 145200,
            "time": 137.4998625,
            "velocity": 0.8267716535433071
          },
          {
            "duration": 0.09090900000001056,
            "durationTicks": 96,
            "midi": 74,
            "name": "D5",
            "ticks": 145320,
            "time": 137.61349875,
            "velocity": 0.8267716535433071
          },
          {
            "duration": 0.09090899999998214,
            "durationTicks": 96,
            "midi": 79,
            "name": "G5",
            "ticks": 145440,
            "time": 137.727135,
            "velocity": 0.8267716535433071
          },
          {
            "duration": 0.09090900000001056,
            "durationTicks": 96,
            "midi": 79,
            "name": "G5",
            "ticks": 145560,
            "time": 137.84077125,
            "velocity": 0.8267716535433071
          },
          {
            "duration": 0.09090899999998214,
            "durationTicks": 96,
            "midi": 79,
            "name": "G5",
            "ticks": 145680,
            "time": 137.9544075,
            "velocity": 0.8267716535433071
          },
          {
            "duration": 0.09090899999998214,
            "durationTicks": 96,
            "midi": 79,
            "name": "G5",
            "ticks": 145800,
            "time": 138.06804375000002,
            "velocity": 0.8267716535433071
          },
          {
            "duration": 0.09090900000001056,
            "durationTicks": 96,
            "midi": 78,
            "name": "F#5",
            "ticks": 145920,
            "time": 138.18168,
            "velocity": 0.8267716535433071
          },
          {
            "duration": 0.09090899999998214,
            "durationTicks": 96,
            "midi": 78,
            "name": "F#5",
            "ticks": 146040,
            "time": 138.29531625,
            "velocity": 0.8267716535433071
          },
          {
            "duration": 0.09090900000001056,
            "durationTicks": 96,
            "midi": 78,
            "name": "F#5",
            "ticks": 146160,
            "time": 138.4089525,
            "velocity": 0.8267716535433071
          },
          {
            "duration": 0.09090899999998214,
            "durationTicks": 96,
            "midi": 78,
            "name": "F#5",
            "ticks": 146280,
            "time": 138.52258875,
            "velocity": 0.8267716535433071
          },
          {
            "duration": 0.09090900000001056,
            "durationTicks": 96,
            "midi": 78,
            "name": "F#5",
            "ticks": 146400,
            "time": 138.636225,
            "velocity": 0.8267716535433071
          },
          {
            "duration": 0.09090899999998214,
            "durationTicks": 96,
            "midi": 78,
            "name": "F#5",
            "ticks": 146520,
            "time": 138.74986125,
            "velocity": 0.8267716535433071
          },
          {
            "duration": 0.09090900000001056,
            "durationTicks": 96,
            "midi": 78,
            "name": "F#5",
            "ticks": 146640,
            "time": 138.8634975,
            "velocity": 0.8267716535433071
          },
          {
            "duration": 0.09090899999998214,
            "durationTicks": 96,
            "midi": 78,
            "name": "F#5",
            "ticks": 146760,
            "time": 138.97713375,
            "velocity": 0.8267716535433071
          },
          {
            "duration": 0.09090900000001056,
            "durationTicks": 96,
            "midi": 79,
            "name": "G5",
            "ticks": 146880,
            "time": 139.09077,
            "velocity": 0.8267716535433071
          },
          {
            "duration": 0.09090899999998214,
            "durationTicks": 96,
            "midi": 79,
            "name": "G5",
            "ticks": 147000,
            "time": 139.20440625,
            "velocity": 0.8267716535433071
          },
          {
            "duration": 0.09090900000001056,
            "durationTicks": 96,
            "midi": 79,
            "name": "G5",
            "ticks": 147120,
            "time": 139.3180425,
            "velocity": 0.8267716535433071
          },
          {
            "duration": 0.09090899999998214,
            "durationTicks": 96,
            "midi": 79,
            "name": "G5",
            "ticks": 147240,
            "time": 139.43167875,
            "velocity": 0.8267716535433071
          },
          {
            "duration": 0.09090900000001056,
            "durationTicks": 96,
            "midi": 79,
            "name": "G5",
            "ticks": 147360,
            "time": 139.545315,
            "velocity": 0.8267716535433071
          },
          {
            "duration": 0.09090899999998214,
            "durationTicks": 96,
            "midi": 79,
            "name": "G5",
            "ticks": 147480,
            "time": 139.65895125,
            "velocity": 0.8267716535433071
          },
          {
            "duration": 0.09090899999998214,
            "durationTicks": 96,
            "midi": 79,
            "name": "G5",
            "ticks": 147600,
            "time": 139.77258750000001,
            "velocity": 0.8267716535433071
          },
          {
            "duration": 0.09090900000001056,
            "durationTicks": 96,
            "midi": 79,
            "name": "G5",
            "ticks": 147720,
            "time": 139.88622375,
            "velocity": 0.8267716535433071
          },
          {
            "duration": 0.09090899999998214,
            "durationTicks": 96,
            "midi": 78,
            "name": "F#5",
            "ticks": 147840,
            "time": 139.99986,
            "velocity": 0.8267716535433071
          },
          {
            "duration": 0.09090900000001056,
            "durationTicks": 96,
            "midi": 78,
            "name": "F#5",
            "ticks": 147960,
            "time": 140.11349625,
            "velocity": 0.8267716535433071
          },
          {
            "duration": 0.09090899999998214,
            "durationTicks": 96,
            "midi": 78,
            "name": "F#5",
            "ticks": 148080,
            "time": 140.2271325,
            "velocity": 0.8267716535433071
          },
          {
            "duration": 0.09090900000001056,
            "durationTicks": 96,
            "midi": 78,
            "name": "F#5",
            "ticks": 148200,
            "time": 140.34076875,
            "velocity": 0.8267716535433071
          },
          {
            "duration": 0.09090899999998214,
            "durationTicks": 96,
            "midi": 78,
            "name": "F#5",
            "ticks": 148320,
            "time": 140.454405,
            "velocity": 0.8267716535433071
          },
          {
            "duration": 0.09090900000001056,
            "durationTicks": 96,
            "midi": 78,
            "name": "F#5",
            "ticks": 148440,
            "time": 140.56804125,
            "velocity": 0.8267716535433071
          },
          {
            "duration": 0.09090899999998214,
            "durationTicks": 96,
            "midi": 78,
            "name": "F#5",
            "ticks": 148560,
            "time": 140.6816775,
            "velocity": 0.8267716535433071
          },
          {
            "duration": 0.09090900000001056,
            "durationTicks": 96,
            "midi": 78,
            "name": "F#5",
            "ticks": 148680,
            "time": 140.79531375,
            "velocity": 0.8267716535433071
          },
          {
            "duration": 0.09090899999998214,
            "durationTicks": 96,
            "midi": 79,
            "name": "G5",
            "ticks": 148800,
            "time": 140.90895,
            "velocity": 0.8267716535433071
          },
          {
            "duration": 0.09090900000001056,
            "durationTicks": 96,
            "midi": 79,
            "name": "G5",
            "ticks": 148920,
            "time": 141.02258625,
            "velocity": 0.8267716535433071
          },
          {
            "duration": 0.09090899999998214,
            "durationTicks": 96,
            "midi": 79,
            "name": "G5",
            "ticks": 149040,
            "time": 141.1362225,
            "velocity": 0.8267716535433071
          },
          {
            "duration": 0.09090899999998214,
            "durationTicks": 96,
            "midi": 79,
            "name": "G5",
            "ticks": 149160,
            "time": 141.24985875000002,
            "velocity": 0.8267716535433071
          },
          {
            "duration": 0.09090900000001056,
            "durationTicks": 96,
            "midi": 79,
            "name": "G5",
            "ticks": 149280,
            "time": 141.363495,
            "velocity": 0.8267716535433071
          },
          {
            "duration": 0.09090899999998214,
            "durationTicks": 96,
            "midi": 79,
            "name": "G5",
            "ticks": 149400,
            "time": 141.47713125,
            "velocity": 0.8267716535433071
          },
          {
            "duration": 0.09090900000001056,
            "durationTicks": 96,
            "midi": 79,
            "name": "G5",
            "ticks": 149520,
            "time": 141.5907675,
            "velocity": 0.8267716535433071
          },
          {
            "duration": 0.09090899999998214,
            "durationTicks": 96,
            "midi": 79,
            "name": "G5",
            "ticks": 149640,
            "time": 141.70440375,
            "velocity": 0.8267716535433071
          },
          {
            "duration": 0.13636350000001585,
            "durationTicks": 144,
            "midi": 74,
            "name": "D5",
            "ticks": 149760,
            "time": 141.81804,
            "velocity": 0.8267716535433071
          },
          {
            "duration": 0.13636350000001585,
            "durationTicks": 144,
            "midi": 78,
            "name": "F#5",
            "ticks": 149760,
            "time": 141.81804,
            "velocity": 0.8267716535433071
          },
          {
            "duration": 0.36363600000001384,
            "durationTicks": 384,
            "midi": 74,
            "name": "D5",
            "ticks": 150000,
            "time": 142.0453125,
            "velocity": 0.7244094488188977
          },
          {
            "duration": 0.36363600000001384,
            "durationTicks": 384,
            "midi": 78,
            "name": "F#5",
            "ticks": 150000,
            "time": 142.0453125,
            "velocity": 0.7244094488188977
          },
          {
            "duration": 0.36363600000001384,
            "durationTicks": 384,
            "midi": 74,
            "name": "D5",
            "ticks": 150480,
            "time": 142.4998575,
            "velocity": 0.7244094488188977
          },
          {
            "duration": 0.36363600000001384,
            "durationTicks": 384,
            "midi": 78,
            "name": "F#5",
            "ticks": 150480,
            "time": 142.4998575,
            "velocity": 0.7244094488188977
          },
          {
            "duration": 0.3636359999999854,
            "durationTicks": 384,
            "midi": 74,
            "name": "D5",
            "ticks": 150960,
            "time": 142.95440250000001,
            "velocity": 0.7244094488188977
          },
          {
            "duration": 0.3636359999999854,
            "durationTicks": 384,
            "midi": 78,
            "name": "F#5",
            "ticks": 150960,
            "time": 142.95440250000001,
            "velocity": 0.7244094488188977
          },
          {
            "duration": 0.4090904999999907,
            "durationTicks": 432,
            "midi": 74,
            "name": "D5",
            "ticks": 151440,
            "time": 143.4089475,
            "velocity": 0.7244094488188977
          },
          {
            "duration": 0.227272499999998,
            "durationTicks": 240,
            "midi": 78,
            "name": "F#5",
            "ticks": 151440,
            "time": 143.4089475,
            "velocity": 0.7244094488188977
          },
          {
            "duration": 0.1818179999999927,
            "durationTicks": 192,
            "midi": 76,
            "name": "E5",
            "ticks": 151680,
            "time": 143.63622,
            "velocity": 0.7244094488188977
          },
          {
            "duration": 0.36363600000001384,
            "durationTicks": 384,
            "midi": 74,
            "name": "D5",
            "ticks": 151920,
            "time": 143.8634925,
            "velocity": 0.7244094488188977
          },
          {
            "duration": 0.36363600000001384,
            "durationTicks": 384,
            "midi": 76,
            "name": "E5",
            "ticks": 151920,
            "time": 143.8634925,
            "velocity": 0.7244094488188977
          },
          {
            "duration": 0.36363600000001384,
            "durationTicks": 384,
            "midi": 74,
            "name": "D5",
            "ticks": 152400,
            "time": 144.3180375,
            "velocity": 0.7244094488188977
          },
          {
            "duration": 0.36363600000001384,
            "durationTicks": 384,
            "midi": 76,
            "name": "E5",
            "ticks": 152400,
            "time": 144.3180375,
            "velocity": 0.7244094488188977
          },
          {
            "duration": 0.36363600000001384,
            "durationTicks": 384,
            "midi": 74,
            "name": "D5",
            "ticks": 152880,
            "time": 144.7725825,
            "velocity": 0.7244094488188977
          },
          {
            "duration": 0.36363600000001384,
            "durationTicks": 384,
            "midi": 76,
            "name": "E5",
            "ticks": 152880,
            "time": 144.7725825,
            "velocity": 0.7244094488188977
          },
          {
            "duration": 0.1818179999999927,
            "durationTicks": 192,
            "midi": 74,
            "name": "D5",
            "ticks": 153360,
            "time": 145.2271275,
            "velocity": 0.7244094488188977
          },
          {
            "duration": 0.13636350000001585,
            "durationTicks": 144,
            "midi": 76,
            "name": "E5",
            "ticks": 153360,
            "time": 145.2271275,
            "velocity": 0.7244094488188977
          },
          {
            "duration": 0.09090900000001056,
            "durationTicks": 96,
            "midi": 73,
            "name": "C#5",
            "ticks": 153600,
            "time": 145.4544,
            "velocity": 0.8267716535433071
          },
          {
            "duration": 0.09090900000001056,
            "durationTicks": 96,
            "midi": 76,
            "name": "E5",
            "ticks": 153600,
            "time": 145.4544,
            "velocity": 0.8267716535433071
          },
          {
            "duration": 0.09090899999998214,
            "durationTicks": 96,
            "midi": 73,
            "name": "C#5",
            "ticks": 153720,
            "time": 145.56803625,
            "velocity": 0.8267716535433071
          },
          {
            "duration": 0.09090899999998214,
            "durationTicks": 96,
            "midi": 76,
            "name": "E5",
            "ticks": 153720,
            "time": 145.56803625,
            "velocity": 0.8267716535433071
          },
          {
            "duration": 0.09090900000001056,
            "durationTicks": 96,
            "midi": 73,
            "name": "C#5",
            "ticks": 153840,
            "time": 145.6816725,
            "velocity": 0.8267716535433071
          },
          {
            "duration": 0.09090900000001056,
            "durationTicks": 96,
            "midi": 76,
            "name": "E5",
            "ticks": 153840,
            "time": 145.6816725,
            "velocity": 0.8267716535433071
          },
          {
            "duration": 0.09090899999998214,
            "durationTicks": 96,
            "midi": 73,
            "name": "C#5",
            "ticks": 153960,
            "time": 145.79530875,
            "velocity": 0.8267716535433071
          },
          {
            "duration": 0.09090899999998214,
            "durationTicks": 96,
            "midi": 76,
            "name": "E5",
            "ticks": 153960,
            "time": 145.79530875,
            "velocity": 0.8267716535433071
          },
          {
            "duration": 0.09090900000001056,
            "durationTicks": 96,
            "midi": 74,
            "name": "D5",
            "ticks": 154080,
            "time": 145.908945,
            "velocity": 0.8267716535433071
          },
          {
            "duration": 0.09090900000001056,
            "durationTicks": 96,
            "midi": 78,
            "name": "F#5",
            "ticks": 154080,
            "time": 145.908945,
            "velocity": 0.8267716535433071
          },
          {
            "duration": 0.09090899999998214,
            "durationTicks": 96,
            "midi": 74,
            "name": "D5",
            "ticks": 154200,
            "time": 146.02258125,
            "velocity": 0.8267716535433071
          },
          {
            "duration": 0.09090899999998214,
            "durationTicks": 96,
            "midi": 78,
            "name": "F#5",
            "ticks": 154200,
            "time": 146.02258125,
            "velocity": 0.8267716535433071
          },
          {
            "duration": 0.09090899999998214,
            "durationTicks": 96,
            "midi": 74,
            "name": "D5",
            "ticks": 154320,
            "time": 146.13621750000001,
            "velocity": 0.8267716535433071
          },
          {
            "duration": 0.09090899999998214,
            "durationTicks": 96,
            "midi": 78,
            "name": "F#5",
            "ticks": 154320,
            "time": 146.13621750000001,
            "velocity": 0.8267716535433071
          },
          {
            "duration": 0.09090900000001056,
            "durationTicks": 96,
            "midi": 74,
            "name": "D5",
            "ticks": 154440,
            "time": 146.24985375,
            "velocity": 0.8267716535433071
          },
          {
            "duration": 0.09090900000001056,
            "durationTicks": 96,
            "midi": 78,
            "name": "F#5",
            "ticks": 154440,
            "time": 146.24985375,
            "velocity": 0.8267716535433071
          },
          {
            "duration": 0.09090899999998214,
            "durationTicks": 96,
            "midi": 73,
            "name": "C#5",
            "ticks": 154560,
            "time": 146.36349,
            "velocity": 0.8267716535433071
          },
          {
            "duration": 0.09090899999998214,
            "durationTicks": 96,
            "midi": 76,
            "name": "E5",
            "ticks": 154560,
            "time": 146.36349,
            "velocity": 0.8267716535433071
          },
          {
            "duration": 0.09090900000001056,
            "durationTicks": 96,
            "midi": 73,
            "name": "C#5",
            "ticks": 154680,
            "time": 146.47712625,
            "velocity": 0.8267716535433071
          },
          {
            "duration": 0.09090900000001056,
            "durationTicks": 96,
            "midi": 76,
            "name": "E5",
            "ticks": 154680,
            "time": 146.47712625,
            "velocity": 0.8267716535433071
          },
          {
            "duration": 0.09090899999998214,
            "durationTicks": 96,
            "midi": 73,
            "name": "C#5",
            "ticks": 154800,
            "time": 146.5907625,
            "velocity": 0.8267716535433071
          },
          {
            "duration": 0.09090899999998214,
            "durationTicks": 96,
            "midi": 76,
            "name": "E5",
            "ticks": 154800,
            "time": 146.5907625,
            "velocity": 0.8267716535433071
          },
          {
            "duration": 0.09090900000001056,
            "durationTicks": 96,
            "midi": 73,
            "name": "C#5",
            "ticks": 154920,
            "time": 146.70439875,
            "velocity": 0.8267716535433071
          },
          {
            "duration": 0.09090900000001056,
            "durationTicks": 96,
            "midi": 76,
            "name": "E5",
            "ticks": 154920,
            "time": 146.70439875,
            "velocity": 0.8267716535433071
          },
          {
            "duration": 0.09090899999998214,
            "durationTicks": 96,
            "midi": 74,
            "name": "D5",
            "ticks": 155040,
            "time": 146.818035,
            "velocity": 0.8267716535433071
          },
          {
            "duration": 0.09090899999998214,
            "durationTicks": 96,
            "midi": 78,
            "name": "F#5",
            "ticks": 155040,
            "time": 146.818035,
            "velocity": 0.8267716535433071
          },
          {
            "duration": 0.09090900000001056,
            "durationTicks": 96,
            "midi": 74,
            "name": "D5",
            "ticks": 155160,
            "time": 146.93167125,
            "velocity": 0.8267716535433071
          },
          {
            "duration": 0.09090900000001056,
            "durationTicks": 96,
            "midi": 78,
            "name": "F#5",
            "ticks": 155160,
            "time": 146.93167125,
            "velocity": 0.8267716535433071
          },
          {
            "duration": 0.09090899999998214,
            "durationTicks": 96,
            "midi": 74,
            "name": "D5",
            "ticks": 155280,
            "time": 147.0453075,
            "velocity": 0.8267716535433071
          },
          {
            "duration": 0.09090899999998214,
            "durationTicks": 96,
            "midi": 78,
            "name": "F#5",
            "ticks": 155280,
            "time": 147.0453075,
            "velocity": 0.8267716535433071
          },
          {
            "duration": 0.09090900000001056,
            "durationTicks": 96,
            "midi": 74,
            "name": "D5",
            "ticks": 155400,
            "time": 147.15894375,
            "velocity": 0.8267716535433071
          },
          {
            "duration": 0.09090900000001056,
            "durationTicks": 96,
            "midi": 78,
            "name": "F#5",
            "ticks": 155400,
            "time": 147.15894375,
            "velocity": 0.8267716535433071
          },
          {
            "duration": 0.13636350000001585,
            "durationTicks": 144,
            "midi": 73,
            "name": "C#5",
            "ticks": 155520,
            "time": 147.27258,
            "velocity": 0.8267716535433071
          },
          {
            "duration": 0.13636350000001585,
            "durationTicks": 144,
            "midi": 76,
            "name": "E5",
            "ticks": 155520,
            "time": 147.27258,
            "velocity": 0.8267716535433071
          },
          {
            "duration": 0.13636350000001585,
            "durationTicks": 144,
            "midi": 69,
            "name": "A4",
            "ticks": 155760,
            "time": 147.4998525,
            "velocity": 0.7244094488188977
          },
          {
            "duration": 0.13636350000001585,
            "durationTicks": 144,
            "midi": 69,
            "name": "A4",
            "ticks": 156000,
            "time": 147.727125,
            "velocity": 0.7244094488188977
          },
          {
            "duration": 0.13636350000001585,
            "durationTicks": 144,
            "midi": 69,
            "name": "A4",
            "ticks": 156240,
            "time": 147.9543975,
            "velocity": 0.7244094488188977
          },
          {
            "duration": 0.36363600000001384,
            "durationTicks": 384,
            "midi": 69,
            "name": "A4",
            "ticks": 156480,
            "time": 148.18167,
            "velocity": 0.7244094488188977
          },
          {
            "duration": 0.6818175000000224,
            "durationTicks": 720,
            "midi": 69,
            "name": "A4",
            "ticks": 157440,
            "time": 149.09076,
            "velocity": 0.7244094488188977
          },
          {
            "duration": 0.0757575000000088,
            "durationTicks": 80,
            "midi": 67,
            "name": "G4",
            "ticks": 158160,
            "time": 149.7725775,
            "velocity": 0.5669291338582677
          },
          {
            "duration": 0.0757575000000088,
            "durationTicks": 80,
            "midi": 66,
            "name": "F#4",
            "ticks": 158220,
            "time": 149.829395625,
            "velocity": 0.5669291338582677
          },
          {
            "duration": 0.0757575000000088,
            "durationTicks": 80,
            "midi": 64,
            "name": "E4",
            "ticks": 158340,
            "time": 149.943031875,
            "velocity": 0.5669291338582677
          },
          {
            "duration": 0.14772712499998875,
            "durationTicks": 156,
            "midi": 62,
            "name": "D4",
            "ticks": 158400,
            "time": 149.99985,
            "velocity": 0.5669291338582677
          },
          {
            "duration": 0.14772712499998875,
            "durationTicks": 156,
            "midi": 71,
            "name": "B4",
            "ticks": 158880,
            "time": 150.454395,
            "velocity": 0.5669291338582677
          },
          {
            "duration": 0.14772712499998875,
            "durationTicks": 156,
            "midi": 67,
            "name": "G4",
            "ticks": 159360,
            "time": 150.90894,
            "velocity": 0.5669291338582677
          },
          {
            "duration": 0.14772712499998875,
            "durationTicks": 156,
            "midi": 64,
            "name": "E4",
            "ticks": 159840,
            "time": 151.363485,
            "velocity": 0.5669291338582677
          },
          {
            "duration": 0.14772712500001717,
            "durationTicks": 156,
            "midi": 69,
            "name": "A4",
            "ticks": 160320,
            "time": 151.81803,
            "velocity": 0.5669291338582677
          },
          {
            "duration": 0.681817499999994,
            "durationTicks": 720,
            "midi": 66,
            "name": "F#4",
            "ticks": 161280,
            "time": 152.72712,
            "velocity": 0.5669291338582677
          },
          {
            "duration": 0.0757575000000088,
            "durationTicks": 80,
            "midi": 64,
            "name": "E4",
            "ticks": 162000,
            "time": 153.4089375,
            "velocity": 0.5669291338582677
          },
          {
            "duration": 0.0757575000000088,
            "durationTicks": 80,
            "midi": 62,
            "name": "D4",
            "ticks": 162060,
            "time": 153.465755625,
            "velocity": 0.5669291338582677
          },
          {
            "duration": 0.0757575000000088,
            "durationTicks": 80,
            "midi": 61,
            "name": "C#4",
            "ticks": 162180,
            "time": 153.579391875,
            "velocity": 0.5669291338582677
          },
          {
            "duration": 0.14772712499998875,
            "durationTicks": 156,
            "midi": 59,
            "name": "B3",
            "ticks": 162240,
            "time": 153.63621,
            "velocity": 0.5669291338582677
          },
          {
            "duration": 0.14772712499998875,
            "durationTicks": 156,
            "midi": 67,
            "name": "G4",
            "ticks": 162720,
            "time": 154.090755,
            "velocity": 0.5669291338582677
          },
          {
            "duration": 0.909089999999992,
            "durationTicks": 960,
            "midi": 66,
            "name": "F#4",
            "ticks": 163200,
            "time": 154.5453,
            "velocity": 0.5669291338582677
          },
          {
            "duration": 0.36363600000001384,
            "durationTicks": 384,
            "midi": 64,
            "name": "E4",
            "ticks": 164160,
            "time": 155.45439,
            "velocity": 0.5669291338582677
          },
          {
            "duration": 0.681817499999994,
            "durationTicks": 720,
            "midi": 69,
            "name": "A4",
            "ticks": 165120,
            "time": 156.36348,
            "velocity": 0.5669291338582677
          },
          {
            "duration": 0.0757575000000088,
            "durationTicks": 80,
            "midi": 67,
            "name": "G4",
            "ticks": 165840,
            "time": 157.0452975,
            "velocity": 0.5669291338582677
          },
          {
            "duration": 0.0757575000000088,
            "durationTicks": 80,
            "midi": 66,
            "name": "F#4",
            "ticks": 165900,
            "time": 157.102115625,
            "velocity": 0.5669291338582677
          },
          {
            "duration": 0.0757575000000088,
            "durationTicks": 80,
            "midi": 64,
            "name": "E4",
            "ticks": 166020,
            "time": 157.215751875,
            "velocity": 0.5669291338582677
          },
          {
            "duration": 0.14772712499998875,
            "durationTicks": 156,
            "midi": 62,
            "name": "D4",
            "ticks": 166080,
            "time": 157.27257,
            "velocity": 0.5669291338582677
          },
          {
            "duration": 0.14772712499998875,
            "durationTicks": 156,
            "midi": 71,
            "name": "B4",
            "ticks": 166560,
            "time": 157.727115,
            "velocity": 0.5669291338582677
          },
          {
            "duration": 0.14772712500001717,
            "durationTicks": 156,
            "midi": 67,
            "name": "G4",
            "ticks": 167040,
            "time": 158.18166,
            "velocity": 0.5669291338582677
          },
          {
            "duration": 0.14772712500001717,
            "durationTicks": 156,
            "midi": 64,
            "name": "E4",
            "ticks": 167520,
            "time": 158.636205,
            "velocity": 0.5669291338582677
          },
          {
            "duration": 0.14772712499998875,
            "durationTicks": 156,
            "midi": 69,
            "name": "A4",
            "ticks": 168000,
            "time": 159.09075,
            "velocity": 0.5669291338582677
          },
          {
            "duration": 0.1818179999999927,
            "durationTicks": 192,
            "midi": 67,
            "name": "G4",
            "ticks": 168720,
            "time": 159.7725675,
            "velocity": 0.5669291338582677
          },
          {
            "duration": 0.227272499999998,
            "durationTicks": 240,
            "midi": 67,
            "name": "G4",
            "ticks": 168960,
            "time": 159.99984,
            "velocity": 0.5669291338582677
          },
          {
            "duration": 0.13636350000001585,
            "durationTicks": 144,
            "midi": 66,
            "name": "F#4",
            "ticks": 169200,
            "time": 160.2271125,
            "velocity": 0.5669291338582677
          },
          {
            "duration": 0.13636350000001585,
            "durationTicks": 144,
            "midi": 79,
            "name": "G5",
            "ticks": 169680,
            "time": 160.6816575,
            "velocity": 0.5669291338582677
          },
          {
            "duration": 0.227272499999998,
            "durationTicks": 240,
            "midi": 79,
            "name": "G5",
            "ticks": 169920,
            "time": 160.90893,
            "velocity": 0.5669291338582677
          },
          {
            "duration": 0.1818179999999927,
            "durationTicks": 192,
            "midi": 78,
            "name": "F#5",
            "ticks": 170160,
            "time": 161.1362025,
            "velocity": 0.5669291338582677
          },
          {
            "duration": 0.13636350000001585,
            "durationTicks": 144,
            "midi": 67,
            "name": "G4",
            "ticks": 170640,
            "time": 161.5907475,
            "velocity": 0.5669291338582677
          },
          {
            "duration": 0.14772712500001717,
            "durationTicks": 156,
            "midi": 66,
            "name": "F#4",
            "ticks": 170880,
            "time": 161.81802,
            "velocity": 0.4566929133858268
          },
          {
            "duration": 0.14772712499998875,
            "durationTicks": 156,
            "midi": 66,
            "name": "F#4",
            "ticks": 171120,
            "time": 162.04529250000002,
            "velocity": 0.4566929133858268
          },
          {
            "duration": 0.14772712499998875,
            "durationTicks": 156,
            "midi": 67,
            "name": "G4",
            "ticks": 171360,
            "time": 162.27256500000001,
            "velocity": 0.4566929133858268
          },
          {
            "duration": 0.14772712499998875,
            "durationTicks": 156,
            "midi": 67,
            "name": "G4",
            "ticks": 171600,
            "time": 162.4998375,
            "velocity": 0.4566929133858268
          },
          {
            "duration": 0.14772712499998875,
            "durationTicks": 156,
            "midi": 69,
            "name": "A4",
            "ticks": 171840,
            "time": 162.72711,
            "velocity": 0.4566929133858268
          },
          {
            "duration": 0.14772712499998875,
            "durationTicks": 156,
            "midi": 69,
            "name": "A4",
            "ticks": 172080,
            "time": 162.9543825,
            "velocity": 0.4566929133858268
          },
          {
            "duration": 0.14772712499998875,
            "durationTicks": 156,
            "midi": 66,
            "name": "F#4",
            "ticks": 172320,
            "time": 163.181655,
            "velocity": 0.4566929133858268
          },
          {
            "duration": 0.14772712499998875,
            "durationTicks": 156,
            "midi": 66,
            "name": "F#4",
            "ticks": 172560,
            "time": 163.4089275,
            "velocity": 0.4566929133858268
          },
          {
            "duration": 0.14772712499998875,
            "durationTicks": 156,
            "midi": 64,
            "name": "E4",
            "ticks": 172800,
            "time": 163.6362,
            "velocity": 0.4566929133858268
          },
          {
            "duration": 0.14772712499998875,
            "durationTicks": 156,
            "midi": 64,
            "name": "E4",
            "ticks": 173040,
            "time": 163.8634725,
            "velocity": 0.4566929133858268
          },
          {
            "duration": 0.14772712499998875,
            "durationTicks": 156,
            "midi": 66,
            "name": "F#4",
            "ticks": 173280,
            "time": 164.090745,
            "velocity": 0.4566929133858268
          },
          {
            "duration": 0.14772712499998875,
            "durationTicks": 156,
            "midi": 66,
            "name": "F#4",
            "ticks": 173520,
            "time": 164.3180175,
            "velocity": 0.4566929133858268
          },
          {
            "duration": 0.14772712500001717,
            "durationTicks": 156,
            "midi": 67,
            "name": "G4",
            "ticks": 173760,
            "time": 164.54529,
            "velocity": 0.4566929133858268
          },
          {
            "duration": 0.14772712500001717,
            "durationTicks": 156,
            "midi": 67,
            "name": "G4",
            "ticks": 174000,
            "time": 164.7725625,
            "velocity": 0.4566929133858268
          },
          {
            "duration": 0.14772712500001717,
            "durationTicks": 156,
            "midi": 64,
            "name": "E4",
            "ticks": 174240,
            "time": 164.999835,
            "velocity": 0.4566929133858268
          },
          {
            "duration": 0.14772712499998875,
            "durationTicks": 156,
            "midi": 64,
            "name": "E4",
            "ticks": 174480,
            "time": 165.22710750000002,
            "velocity": 0.4566929133858268
          },
          {
            "duration": 0.14772712499998875,
            "durationTicks": 156,
            "midi": 66,
            "name": "F#4",
            "ticks": 174720,
            "time": 165.45438000000001,
            "velocity": 0.4566929133858268
          },
          {
            "duration": 0.14772712499998875,
            "durationTicks": 156,
            "midi": 66,
            "name": "F#4",
            "ticks": 174960,
            "time": 165.6816525,
            "velocity": 0.4566929133858268
          },
          {
            "duration": 0.14772712499998875,
            "durationTicks": 156,
            "midi": 67,
            "name": "G4",
            "ticks": 175200,
            "time": 165.908925,
            "velocity": 0.4566929133858268
          },
          {
            "duration": 0.14772712499998875,
            "durationTicks": 156,
            "midi": 67,
            "name": "G4",
            "ticks": 175440,
            "time": 166.1361975,
            "velocity": 0.4566929133858268
          },
          {
            "duration": 0.14772712499998875,
            "durationTicks": 156,
            "midi": 69,
            "name": "A4",
            "ticks": 175680,
            "time": 166.36347,
            "velocity": 0.4566929133858268
          },
          {
            "duration": 0.14772712499998875,
            "durationTicks": 156,
            "midi": 69,
            "name": "A4",
            "ticks": 175920,
            "time": 166.5907425,
            "velocity": 0.4566929133858268
          },
          {
            "duration": 0.14772712499998875,
            "durationTicks": 156,
            "midi": 66,
            "name": "F#4",
            "ticks": 176160,
            "time": 166.818015,
            "velocity": 0.4566929133858268
          },
          {
            "duration": 0.14772712499998875,
            "durationTicks": 156,
            "midi": 66,
            "name": "F#4",
            "ticks": 176400,
            "time": 167.0452875,
            "velocity": 0.4566929133858268
          },
          {
            "duration": 0.14772712499998875,
            "durationTicks": 156,
            "midi": 64,
            "name": "E4",
            "ticks": 176640,
            "time": 167.27256,
            "velocity": 0.4566929133858268
          },
          {
            "duration": 0.14772712499998875,
            "durationTicks": 156,
            "midi": 64,
            "name": "E4",
            "ticks": 176880,
            "time": 167.4998325,
            "velocity": 0.4566929133858268
          },
          {
            "duration": 0.14772712500001717,
            "durationTicks": 156,
            "midi": 66,
            "name": "F#4",
            "ticks": 177120,
            "time": 167.727105,
            "velocity": 0.4566929133858268
          },
          {
            "duration": 0.14772712500001717,
            "durationTicks": 156,
            "midi": 66,
            "name": "F#4",
            "ticks": 177360,
            "time": 167.9543775,
            "velocity": 0.4566929133858268
          },
          {
            "duration": 0.14772712500001717,
            "durationTicks": 156,
            "midi": 67,
            "name": "G4",
            "ticks": 177600,
            "time": 168.18165,
            "velocity": 0.4566929133858268
          },
          {
            "duration": 0.14772712499998875,
            "durationTicks": 156,
            "midi": 67,
            "name": "G4",
            "ticks": 177840,
            "time": 168.40892250000002,
            "velocity": 0.4566929133858268
          },
          {
            "duration": 0.14772712499998875,
            "durationTicks": 156,
            "midi": 64,
            "name": "E4",
            "ticks": 178080,
            "time": 168.63619500000001,
            "velocity": 0.4566929133858268
          },
          {
            "duration": 0.14772712499998875,
            "durationTicks": 156,
            "midi": 64,
            "name": "E4",
            "ticks": 178320,
            "time": 168.8634675,
            "velocity": 0.4566929133858268
          },
          {
            "duration": 0.3636359999999854,
            "durationTicks": 384,
            "midi": 66,
            "name": "F#4",
            "ticks": 178560,
            "time": 169.09074,
            "velocity": 0.4566929133858268
          },
          {
            "duration": 0.7272719999999993,
            "durationTicks": 768,
            "midi": 71,
            "name": "B4",
            "ticks": 179520,
            "time": 169.99983,
            "velocity": 0.8267716535433071
          },
          {
            "duration": 0.909089999999992,
            "durationTicks": 960,
            "midi": 78,
            "name": "F#5",
            "ticks": 179520,
            "time": 169.99983,
            "velocity": 0.8267716535433071
          },
          {
            "duration": 0.36363600000001384,
            "durationTicks": 384,
            "midi": 76,
            "name": "E5",
            "ticks": 180480,
            "time": 170.90892,
            "velocity": 0.8267716535433071
          },
          {
            "duration": 0.7272719999999993,
            "durationTicks": 768,
            "midi": 69,
            "name": "A4",
            "ticks": 181440,
            "time": 171.81801000000002,
            "velocity": 0.8267716535433071
          },
          {
            "duration": 0.909089999999992,
            "durationTicks": 960,
            "midi": 76,
            "name": "E5",
            "ticks": 181440,
            "time": 171.81801000000002,
            "velocity": 0.8267716535433071
          },
          {
            "duration": 0.14772712499998875,
            "durationTicks": 156,
            "midi": 74,
            "name": "D5",
            "ticks": 182400,
            "time": 172.7271,
            "velocity": 0.8267716535433071
          },
          {
            "duration": 0.14772712499998875,
            "durationTicks": 156,
            "midi": 78,
            "name": "F#5",
            "ticks": 182640,
            "time": 172.9543725,
            "velocity": 0.8267716535433071
          },
          {
            "duration": 0.14772712499998875,
            "durationTicks": 156,
            "midi": 79,
            "name": "G5",
            "ticks": 182880,
            "time": 173.181645,
            "velocity": 0.8267716535433071
          },
          {
            "duration": 0.14772712499998875,
            "durationTicks": 156,
            "midi": 81,
            "name": "A5",
            "ticks": 183120,
            "time": 173.4089175,
            "velocity": 0.8267716535433071
          },
          {
            "duration": 0.227272499999998,
            "durationTicks": 240,
            "midi": 79,
            "name": "G5",
            "ticks": 183360,
            "time": 173.63619,
            "velocity": 0.8267716535433071
          },
          {
            "duration": 0.1136362500000132,
            "durationTicks": 120,
            "midi": 81,
            "name": "A5",
            "ticks": 183600,
            "time": 173.8634625,
            "velocity": 0.8267716535433071
          },
          {
            "duration": 0.11363624999998478,
            "durationTicks": 120,
            "midi": 83,
            "name": "B5",
            "ticks": 183720,
            "time": 173.97709875,
            "velocity": 0.8267716535433071
          },
          {
            "duration": 0.13636350000001585,
            "durationTicks": 144,
            "midi": 81,
            "name": "A5",
            "ticks": 183840,
            "time": 174.090735,
            "velocity": 0.8267716535433071
          },
          {
            "duration": 0.13636350000001585,
            "durationTicks": 144,
            "midi": 79,
            "name": "G5",
            "ticks": 184080,
            "time": 174.3180075,
            "velocity": 0.8267716535433071
          },
          {
            "duration": 0.2272725000000264,
            "durationTicks": 240,
            "midi": 79,
            "name": "G5",
            "ticks": 184320,
            "time": 174.54528,
            "velocity": 0.8267716535433071
          },
          {
            "duration": 0.13636349999998743,
            "durationTicks": 144,
            "midi": 78,
            "name": "F#5",
            "ticks": 184560,
            "time": 174.77255250000002,
            "velocity": 0.8267716535433071
          },
          {
            "duration": 0.13636349999998743,
            "durationTicks": 144,
            "midi": 74,
            "name": "D5",
            "ticks": 184800,
            "time": 174.99982500000002,
            "velocity": 0.8267716535433071
          },
          {
            "duration": 0.13636349999998743,
            "durationTicks": 144,
            "midi": 78,
            "name": "F#5",
            "ticks": 185040,
            "time": 175.2270975,
            "velocity": 0.8267716535433071
          },
          {
            "duration": 0.227272499999998,
            "durationTicks": 240,
            "midi": 78,
            "name": "F#5",
            "ticks": 185280,
            "time": 175.45437,
            "velocity": 0.8267716535433071
          },
          {
            "duration": 0.13636349999998743,
            "durationTicks": 144,
            "midi": 76,
            "name": "E5",
            "ticks": 185520,
            "time": 175.6816425,
            "velocity": 0.8267716535433071
          },
          {
            "duration": 0.13636350000001585,
            "durationTicks": 144,
            "midi": 74,
            "name": "D5",
            "ticks": 185760,
            "time": 175.908915,
            "velocity": 0.8267716535433071
          },
          {
            "duration": 0.13636350000001585,
            "durationTicks": 144,
            "midi": 73,
            "name": "C#5",
            "ticks": 186000,
            "time": 176.1361875,
            "velocity": 0.8267716535433071
          },
          {
            "duration": 0.14772712499998875,
            "durationTicks": 156,
            "midi": 74,
            "name": "D5",
            "ticks": 186240,
            "time": 176.36346,
            "velocity": 0.7244094488188977
          },
          {
            "duration": 0.14772712499998875,
            "durationTicks": 156,
            "midi": 66,
            "name": "F#4",
            "ticks": 186480,
            "time": 176.5907325,
            "velocity": 0.4566929133858268
          },
          {
            "duration": 0.14772712499998875,
            "durationTicks": 156,
            "midi": 67,
            "name": "G4",
            "ticks": 186720,
            "time": 176.818005,
            "velocity": 0.4566929133858268
          },
          {
            "duration": 0.14772712499998875,
            "durationTicks": 156,
            "midi": 67,
            "name": "G4",
            "ticks": 186960,
            "time": 177.0452775,
            "velocity": 0.4566929133858268
          },
          {
            "duration": 0.14772712500001717,
            "durationTicks": 156,
            "midi": 69,
            "name": "A4",
            "ticks": 187200,
            "time": 177.27255,
            "velocity": 0.4566929133858268
          },
          {
            "duration": 0.14772712500001717,
            "durationTicks": 156,
            "midi": 69,
            "name": "A4",
            "ticks": 187440,
            "time": 177.4998225,
            "velocity": 0.4566929133858268
          },
          {
            "duration": 0.14772712500001717,
            "durationTicks": 156,
            "midi": 66,
            "name": "F#4",
            "ticks": 187680,
            "time": 177.727095,
            "velocity": 0.4566929133858268
          },
          {
            "duration": 0.14772712499998875,
            "durationTicks": 156,
            "midi": 66,
            "name": "F#4",
            "ticks": 187920,
            "time": 177.95436750000002,
            "velocity": 0.4566929133858268
          },
          {
            "duration": 0.14772712499998875,
            "durationTicks": 156,
            "midi": 64,
            "name": "E4",
            "ticks": 188160,
            "time": 178.18164000000002,
            "velocity": 0.4566929133858268
          },
          {
            "duration": 0.14772712499998875,
            "durationTicks": 156,
            "midi": 64,
            "name": "E4",
            "ticks": 188400,
            "time": 178.4089125,
            "velocity": 0.4566929133858268
          },
          {
            "duration": 0.14772712499998875,
            "durationTicks": 156,
            "midi": 66,
            "name": "F#4",
            "ticks": 188640,
            "time": 178.636185,
            "velocity": 0.4566929133858268
          },
          {
            "duration": 0.14772712499998875,
            "durationTicks": 156,
            "midi": 66,
            "name": "F#4",
            "ticks": 188880,
            "time": 178.8634575,
            "velocity": 0.4566929133858268
          },
          {
            "duration": 0.14772712499998875,
            "durationTicks": 156,
            "midi": 67,
            "name": "G4",
            "ticks": 189120,
            "time": 179.09073,
            "velocity": 0.4566929133858268
          },
          {
            "duration": 0.14772712499998875,
            "durationTicks": 156,
            "midi": 67,
            "name": "G4",
            "ticks": 189360,
            "time": 179.3180025,
            "velocity": 0.4566929133858268
          },
          {
            "duration": 0.14772712499998875,
            "durationTicks": 156,
            "midi": 64,
            "name": "E4",
            "ticks": 189600,
            "time": 179.545275,
            "velocity": 0.4566929133858268
          },
          {
            "duration": 0.14772712499998875,
            "durationTicks": 156,
            "midi": 64,
            "name": "E4",
            "ticks": 189840,
            "time": 179.7725475,
            "velocity": 0.4566929133858268
          },
          {
            "duration": 0.14772712499998875,
            "durationTicks": 156,
            "midi": 66,
            "name": "F#4",
            "ticks": 190080,
            "time": 179.99982,
            "velocity": 0.4566929133858268
          },
          {
            "duration": 0.14772712499998875,
            "durationTicks": 156,
            "midi": 66,
            "name": "F#4",
            "ticks": 190320,
            "time": 180.2270925,
            "velocity": 0.4566929133858268
          },
          {
            "duration": 0.14772712500001717,
            "durationTicks": 156,
            "midi": 67,
            "name": "G4",
            "ticks": 190560,
            "time": 180.454365,
            "velocity": 0.4566929133858268
          },
          {
            "duration": 0.14772712500001717,
            "durationTicks": 156,
            "midi": 67,
            "name": "G4",
            "ticks": 190800,
            "time": 180.6816375,
            "velocity": 0.4566929133858268
          },
          {
            "duration": 0.14772712500001717,
            "durationTicks": 156,
            "midi": 69,
            "name": "A4",
            "ticks": 191040,
            "time": 180.90891,
            "velocity": 0.4566929133858268
          },
          {
            "duration": 0.14772712499998875,
            "durationTicks": 156,
            "midi": 69,
            "name": "A4",
            "ticks": 191280,
            "time": 181.13618250000002,
            "velocity": 0.4566929133858268
          },
          {
            "duration": 0.14772712499998875,
            "durationTicks": 156,
            "midi": 66,
            "name": "F#4",
            "ticks": 191520,
            "time": 181.36345500000002,
            "velocity": 0.4566929133858268
          },
          {
            "duration": 0.14772712499998875,
            "durationTicks": 156,
            "midi": 66,
            "name": "F#4",
            "ticks": 191760,
            "time": 181.5907275,
            "velocity": 0.4566929133858268
          },
          {
            "duration": 0.14772712499998875,
            "durationTicks": 156,
            "midi": 64,
            "name": "E4",
            "ticks": 192000,
            "time": 181.818,
            "velocity": 0.4566929133858268
          },
          {
            "duration": 0.14772712499998875,
            "durationTicks": 156,
            "midi": 64,
            "name": "E4",
            "ticks": 192240,
            "time": 182.0452725,
            "velocity": 0.4566929133858268
          },
          {
            "duration": 0.14772712499998875,
            "durationTicks": 156,
            "midi": 66,
            "name": "F#4",
            "ticks": 192480,
            "time": 182.272545,
            "velocity": 0.4566929133858268
          },
          {
            "duration": 0.14772712499998875,
            "durationTicks": 156,
            "midi": 66,
            "name": "F#4",
            "ticks": 192720,
            "time": 182.4998175,
            "velocity": 0.4566929133858268
          },
          {
            "duration": 0.14772712499998875,
            "durationTicks": 156,
            "midi": 67,
            "name": "G4",
            "ticks": 192960,
            "time": 182.72709,
            "velocity": 0.4566929133858268
          },
          {
            "duration": 0.14772712499998875,
            "durationTicks": 156,
            "midi": 67,
            "name": "G4",
            "ticks": 193200,
            "time": 182.9543625,
            "velocity": 0.4566929133858268
          },
          {
            "duration": 0.14772712499998875,
            "durationTicks": 156,
            "midi": 64,
            "name": "E4",
            "ticks": 193440,
            "time": 183.181635,
            "velocity": 0.4566929133858268
          },
          {
            "duration": 0.14772712499998875,
            "durationTicks": 156,
            "midi": 64,
            "name": "E4",
            "ticks": 193680,
            "time": 183.4089075,
            "velocity": 0.4566929133858268
          },
          {
            "duration": 0.36363600000001384,
            "durationTicks": 384,
            "midi": 66,
            "name": "F#4",
            "ticks": 193920,
            "time": 183.63618,
            "velocity": 0.4566929133858268
          },
          {
            "duration": 0.7272719999999993,
            "durationTicks": 768,
            "midi": 71,
            "name": "B4",
            "ticks": 194880,
            "time": 184.54527000000002,
            "velocity": 0.8267716535433071
          },
          {
            "duration": 0.909089999999992,
            "durationTicks": 960,
            "midi": 78,
            "name": "F#5",
            "ticks": 194880,
            "time": 184.54527000000002,
            "velocity": 0.8267716535433071
          },
          {
            "duration": 0.36363600000001384,
            "durationTicks": 384,
            "midi": 76,
            "name": "E5",
            "ticks": 195840,
            "time": 185.45436,
            "velocity": 0.8267716535433071
          },
          {
            "duration": 0.7272720000000277,
            "durationTicks": 768,
            "midi": 69,
            "name": "A4",
            "ticks": 196800,
            "time": 186.36345,
            "velocity": 0.8267716535433071
          },
          {
            "duration": 0.909089999999992,
            "durationTicks": 960,
            "midi": 76,
            "name": "E5",
            "ticks": 196800,
            "time": 186.36345,
            "velocity": 0.8267716535433071
          },
          {
            "duration": 0.14772712500001717,
            "durationTicks": 156,
            "midi": 74,
            "name": "D5",
            "ticks": 197760,
            "time": 187.27254,
            "velocity": 0.8267716535433071
          },
          {
            "duration": 0.14772712499998875,
            "durationTicks": 156,
            "midi": 78,
            "name": "F#5",
            "ticks": 198000,
            "time": 187.49981250000002,
            "velocity": 0.8267716535433071
          },
          {
            "duration": 0.14772712499998875,
            "durationTicks": 156,
            "midi": 79,
            "name": "G5",
            "ticks": 198240,
            "time": 187.72708500000002,
            "velocity": 0.8267716535433071
          },
          {
            "duration": 0.14772712499998875,
            "durationTicks": 156,
            "midi": 81,
            "name": "A5",
            "ticks": 198480,
            "time": 187.95435750000001,
            "velocity": 0.8267716535433071
          },
          {
            "duration": 0.227272499999998,
            "durationTicks": 240,
            "midi": 79,
            "name": "G5",
            "ticks": 198720,
            "time": 188.18163,
            "velocity": 0.8267716535433071
          },
          {
            "duration": 0.11363624999998478,
            "durationTicks": 120,
            "midi": 81,
            "name": "A5",
            "ticks": 198960,
            "time": 188.4089025,
            "velocity": 0.8267716535433071
          },
          {
            "duration": 0.1136362500000132,
            "durationTicks": 120,
            "midi": 83,
            "name": "B5",
            "ticks": 199080,
            "time": 188.52253875,
            "velocity": 0.8267716535433071
          },
          {
            "duration": 0.13636350000001585,
            "durationTicks": 144,
            "midi": 81,
            "name": "A5",
            "ticks": 199200,
            "time": 188.636175,
            "velocity": 0.8267716535433071
          },
          {
            "duration": 0.13636350000001585,
            "durationTicks": 144,
            "midi": 79,
            "name": "G5",
            "ticks": 199440,
            "time": 188.8634475,
            "velocity": 0.8267716535433071
          },
          {
            "duration": 0.227272499999998,
            "durationTicks": 240,
            "midi": 79,
            "name": "G5",
            "ticks": 199680,
            "time": 189.09072,
            "velocity": 0.8267716535433071
          },
          {
            "duration": 0.13636350000001585,
            "durationTicks": 144,
            "midi": 78,
            "name": "F#5",
            "ticks": 199920,
            "time": 189.3179925,
            "velocity": 0.8267716535433071
          },
          {
            "duration": 0.13636350000001585,
            "durationTicks": 144,
            "midi": 74,
            "name": "D5",
            "ticks": 200160,
            "time": 189.545265,
            "velocity": 0.8267716535433071
          },
          {
            "duration": 0.13636350000001585,
            "durationTicks": 144,
            "midi": 78,
            "name": "F#5",
            "ticks": 200400,
            "time": 189.7725375,
            "velocity": 0.8267716535433071
          },
          {
            "duration": 0.227272499999998,
            "durationTicks": 240,
            "midi": 78,
            "name": "F#5",
            "ticks": 200640,
            "time": 189.99981,
            "velocity": 0.8267716535433071
          },
          {
            "duration": 0.13636350000001585,
            "durationTicks": 144,
            "midi": 76,
            "name": "E5",
            "ticks": 200880,
            "time": 190.2270825,
            "velocity": 0.8267716535433071
          },
          {
            "duration": 0.13636350000001585,
            "durationTicks": 144,
            "midi": 74,
            "name": "D5",
            "ticks": 201120,
            "time": 190.454355,
            "velocity": 0.8267716535433071
          },
          {
            "duration": 0.13636349999998743,
            "durationTicks": 144,
            "midi": 73,
            "name": "C#5",
            "ticks": 201360,
            "time": 190.68162750000002,
            "velocity": 0.8267716535433071
          },
          {
            "duration": 0.13636349999998743,
            "durationTicks": 144,
            "midi": 74,
            "name": "D5",
            "ticks": 201600,
            "time": 190.90890000000002,
            "velocity": 0.8267716535433071
          },
          {
            "duration": 0.13636349999998743,
            "durationTicks": 144,
            "midi": 69,
            "name": "A4",
            "ticks": 201840,
            "time": 191.13617250000001,
            "velocity": 0.8267716535433071
          },
          {
            "duration": 0.13636349999998743,
            "durationTicks": 144,
            "midi": 71,
            "name": "B4",
            "ticks": 202080,
            "time": 191.363445,
            "velocity": 0.8267716535433071
          },
          {
            "duration": 0.13636349999998743,
            "durationTicks": 144,
            "midi": 73,
            "name": "C#5",
            "ticks": 202320,
            "time": 191.5907175,
            "velocity": 0.8267716535433071
          },
          {
            "duration": 0.13636350000001585,
            "durationTicks": 144,
            "midi": 74,
            "name": "D5",
            "ticks": 202560,
            "time": 191.81799,
            "velocity": 0.8267716535433071
          },
          {
            "duration": 0.13636350000001585,
            "durationTicks": 144,
            "midi": 74,
            "name": "D5",
            "ticks": 202800,
            "time": 192.0452625,
            "velocity": 0.8267716535433071
          },
          {
            "duration": 0.0568181250000066,
            "durationTicks": 60,
            "midi": 78,
            "name": "F#5",
            "ticks": 203040,
            "time": 192.272535,
            "velocity": 0.8267716535433071
          },
          {
            "duration": 0.0568181250000066,
            "durationTicks": 60,
            "midi": 76,
            "name": "E5",
            "ticks": 203100,
            "time": 192.329353125,
            "velocity": 0.8267716535433071
          },
          {
            "duration": 0.05681812499997818,
            "durationTicks": 60,
            "midi": 78,
            "name": "F#5",
            "ticks": 203160,
            "time": 192.38617125000002,
            "velocity": 0.8267716535433071
          },
          {
            "duration": 0.0568181250000066,
            "durationTicks": 60,
            "midi": 76,
            "name": "E5",
            "ticks": 203220,
            "time": 192.442989375,
            "velocity": 0.8267716535433071
          },
          {
            "duration": 0.1136362500000132,
            "durationTicks": 120,
            "midi": 74,
            "name": "D5",
            "ticks": 203280,
            "time": 192.4998075,
            "velocity": 0.8267716535433071
          },
          {
            "duration": 0.11363624999998478,
            "durationTicks": 120,
            "midi": 76,
            "name": "E5",
            "ticks": 203400,
            "time": 192.61344375000002,
            "velocity": 0.8267716535433071
          },
          {
            "duration": 0.13636350000001585,
            "durationTicks": 144,
            "midi": 78,
            "name": "F#5",
            "ticks": 203520,
            "time": 192.72708,
            "velocity": 0.8267716535433071
          },
          {
            "duration": 0.13636350000001585,
            "durationTicks": 144,
            "midi": 73,
            "name": "C#5",
            "ticks": 203760,
            "time": 192.9543525,
            "velocity": 0.8267716535433071
          },
          {
            "duration": 0.13636350000001585,
            "durationTicks": 144,
            "midi": 74,
            "name": "D5",
            "ticks": 204000,
            "time": 193.181625,
            "velocity": 0.8267716535433071
          },
          {
            "duration": 0.13636350000001585,
            "durationTicks": 144,
            "midi": 76,
            "name": "E5",
            "ticks": 204240,
            "time": 193.4088975,
            "velocity": 0.8267716535433071
          },
          {
            "duration": 0.13636350000001585,
            "durationTicks": 144,
            "midi": 78,
            "name": "F#5",
            "ticks": 204480,
            "time": 193.63617,
            "velocity": 0.8267716535433071
          },
          {
            "duration": 0.13636349999998743,
            "durationTicks": 144,
            "midi": 78,
            "name": "F#5",
            "ticks": 204720,
            "time": 193.86344250000002,
            "velocity": 0.8267716535433071
          },
          {
            "duration": 0.05681812499997818,
            "durationTicks": 60,
            "midi": 81,
            "name": "A5",
            "ticks": 204960,
            "time": 194.09071500000002,
            "velocity": 0.8267716535433071
          },
          {
            "duration": 0.0568181250000066,
            "durationTicks": 60,
            "midi": 79,
            "name": "G5",
            "ticks": 205020,
            "time": 194.147533125,
            "velocity": 0.8267716535433071
          },
          {
            "duration": 0.0568181250000066,
            "durationTicks": 60,
            "midi": 81,
            "name": "A5",
            "ticks": 205080,
            "time": 194.20435125,
            "velocity": 0.8267716535433071
          },
          {
            "duration": 0.0568181250000066,
            "durationTicks": 60,
            "midi": 79,
            "name": "G5",
            "ticks": 205140,
            "time": 194.261169375,
            "velocity": 0.8267716535433071
          },
          {
            "duration": 0.11363624999998478,
            "durationTicks": 120,
            "midi": 78,
            "name": "F#5",
            "ticks": 205200,
            "time": 194.31798750000002,
            "velocity": 0.8267716535433071
          },
          {
            "duration": 0.1136362500000132,
            "durationTicks": 120,
            "midi": 79,
            "name": "G5",
            "ticks": 205320,
            "time": 194.43162375,
            "velocity": 0.8267716535433071
          },
          {
            "duration": 0.13636349999998743,
            "durationTicks": 144,
            "midi": 81,
            "name": "A5",
            "ticks": 205440,
            "time": 194.54526,
            "velocity": 0.8267716535433071
          },
          {
            "duration": 0.13636349999998743,
            "durationTicks": 144,
            "midi": 81,
            "name": "A5",
            "ticks": 205680,
            "time": 194.7725325,
            "velocity": 0.8267716535433071
          },
          {
            "duration": 0.0568181250000066,
            "durationTicks": 60,
            "midi": 83,
            "name": "B5",
            "ticks": 205920,
            "time": 194.999805,
            "velocity": 0.8267716535433071
          },
          {
            "duration": 0.05681812499997818,
            "durationTicks": 60,
            "midi": 82,
            "name": "A#5",
            "ticks": 205980,
            "time": 195.05662312500002,
            "velocity": 0.8267716535433071
          },
          {
            "duration": 0.0568181250000066,
            "durationTicks": 60,
            "midi": 83,
            "name": "B5",
            "ticks": 206040,
            "time": 195.11344125,
            "velocity": 0.8267716535433071
          },
          {
            "duration": 0.0568181250000066,
            "durationTicks": 60,
            "midi": 82,
            "name": "A#5",
            "ticks": 206100,
            "time": 195.170259375,
            "velocity": 0.8267716535433071
          },
          {
            "duration": 0.11363624999998478,
            "durationTicks": 120,
            "midi": 80,
            "name": "G#5",
            "ticks": 206160,
            "time": 195.2270775,
            "velocity": 0.8267716535433071
          },
          {
            "duration": 0.1136362500000132,
            "durationTicks": 120,
            "midi": 82,
            "name": "A#5",
            "ticks": 206280,
            "time": 195.34071375,
            "velocity": 0.8267716535433071
          },
          {
            "duration": 0.36363600000001384,
            "durationTicks": 384,
            "midi": 83,
            "name": "B5",
            "ticks": 206400,
            "time": 195.45435,
            "velocity": 0.7244094488188977
          },
          {
            "duration": 1.7272710000000018,
            "durationTicks": 1824,
            "midi": 67,
            "name": "G4",
            "ticks": 207360,
            "time": 196.36344,
            "velocity": 0.4566929133858268
          },
          {
            "duration": 0.1818179999999927,
            "durationTicks": 192,
            "midi": 66,
            "name": "F#4",
            "ticks": 209280,
            "time": 198.18162,
            "velocity": 0.4566929133858268
          },
          {
            "duration": 0.1818179999999927,
            "durationTicks": 192,
            "midi": 69,
            "name": "A4",
            "ticks": 209760,
            "time": 198.636165,
            "velocity": 0.4566929133858268
          },
          {
            "duration": 0.1818179999999927,
            "durationTicks": 192,
            "midi": 66,
            "name": "F#4",
            "ticks": 210240,
            "time": 199.09071,
            "velocity": 0.4566929133858268
          },
          {
            "duration": 0.36363600000001384,
            "durationTicks": 384,
            "midi": 62,
            "name": "D4",
            "ticks": 211200,
            "time": 199.9998,
            "velocity": 0.7244094488188977
          },
          {
            "duration": 0.36363600000001384,
            "durationTicks": 384,
            "midi": 74,
            "name": "D5",
            "ticks": 211200,
            "time": 199.9998,
            "velocity": 0.7244094488188977
          },
          {
            "duration": 0.14772712499998875,
            "durationTicks": 156,
            "midi": 69,
            "name": "A4",
            "ticks": 211920,
            "time": 200.68161750000002,
            "velocity": 0.7244094488188977
          },
          {
            "duration": 0.3636359999999854,
            "durationTicks": 384,
            "midi": 74,
            "name": "D5",
            "ticks": 212160,
            "time": 200.90889,
            "velocity": 0.7244094488188977
          },
          {
            "duration": 0.14772712499998875,
            "durationTicks": 156,
            "midi": 69,
            "name": "A4",
            "ticks": 212880,
            "time": 201.5907075,
            "velocity": 0.7244094488188977
          },
          {
            "duration": 0.14772712499998875,
            "durationTicks": 156,
            "midi": 74,
            "name": "D5",
            "ticks": 213120,
            "time": 201.81798,
            "velocity": 0.7244094488188977
          },
          {
            "duration": 0.14772712499998875,
            "durationTicks": 156,
            "midi": 69,
            "name": "A4",
            "ticks": 213360,
            "time": 202.0452525,
            "velocity": 0.7244094488188977
          },
          {
            "duration": 0.14772712499998875,
            "durationTicks": 156,
            "midi": 74,
            "name": "D5",
            "ticks": 213600,
            "time": 202.272525,
            "velocity": 0.7244094488188977
          },
          {
            "duration": 0.14772712499998875,
            "durationTicks": 156,
            "midi": 78,
            "name": "F#5",
            "ticks": 213840,
            "time": 202.4997975,
            "velocity": 0.7244094488188977
          },
          {
            "duration": 0.36363600000001384,
            "durationTicks": 384,
            "midi": 81,
            "name": "A5",
            "ticks": 214080,
            "time": 202.72707,
            "velocity": 0.7244094488188977
          },
          {
            "duration": 0.3636359999999854,
            "durationTicks": 384,
            "midi": 81,
            "name": "A5",
            "ticks": 215040,
            "time": 203.63616000000002,
            "velocity": 0.7244094488188977
          },
          {
            "duration": 0.14772712499998875,
            "durationTicks": 156,
            "midi": 78,
            "name": "F#5",
            "ticks": 215760,
            "time": 204.3179775,
            "velocity": 0.7244094488188977
          },
          {
            "duration": 0.36363600000001384,
            "durationTicks": 384,
            "midi": 81,
            "name": "A5",
            "ticks": 216000,
            "time": 204.54525,
            "velocity": 0.7244094488188977
          },
          {
            "duration": 0.14772712499998875,
            "durationTicks": 156,
            "midi": 78,
            "name": "F#5",
            "ticks": 216720,
            "time": 205.2270675,
            "velocity": 0.7244094488188977
          },
          {
            "duration": 0.14772712499998875,
            "durationTicks": 156,
            "midi": 81,
            "name": "A5",
            "ticks": 216960,
            "time": 205.45434,
            "velocity": 0.7244094488188977
          },
          {
            "duration": 0.14772712499998875,
            "durationTicks": 156,
            "midi": 78,
            "name": "F#5",
            "ticks": 217200,
            "time": 205.6816125,
            "velocity": 0.7244094488188977
          },
          {
            "duration": 0.14772712500001717,
            "durationTicks": 156,
            "midi": 75,
            "name": "D#5",
            "ticks": 217440,
            "time": 205.908885,
            "velocity": 0.7244094488188977
          },
          {
            "duration": 0.14772712500001717,
            "durationTicks": 156,
            "midi": 78,
            "name": "F#5",
            "ticks": 217680,
            "time": 206.1361575,
            "velocity": 0.7244094488188977
          },
          {
            "duration": 0.36363600000001384,
            "durationTicks": 384,
            "midi": 71,
            "name": "B4",
            "ticks": 217920,
            "time": 206.36343,
            "velocity": 0.7244094488188977
          },
          {
            "duration": 0.14772712499998875,
            "durationTicks": 156,
            "midi": 64,
            "name": "E4",
            "ticks": 218880,
            "time": 207.27252000000001,
            "velocity": 0.4566929133858268
          },
          {
            "duration": 0.14772712499998875,
            "durationTicks": 156,
            "midi": 64,
            "name": "E4",
            "ticks": 219120,
            "time": 207.4997925,
            "velocity": 0.4566929133858268
          },
          {
            "duration": 0.14772712499998875,
            "durationTicks": 156,
            "midi": 65,
            "name": "F4",
            "ticks": 219360,
            "time": 207.727065,
            "velocity": 0.4566929133858268
          },
          {
            "duration": 0.14772712499998875,
            "durationTicks": 156,
            "midi": 65,
            "name": "F4",
            "ticks": 219600,
            "time": 207.9543375,
            "velocity": 0.4566929133858268
          },
          {
            "duration": 0.14772712499998875,
            "durationTicks": 156,
            "midi": 67,
            "name": "G4",
            "ticks": 219840,
            "time": 208.18161,
            "velocity": 0.4566929133858268
          },
          {
            "duration": 0.14772712499998875,
            "durationTicks": 156,
            "midi": 67,
            "name": "G4",
            "ticks": 220080,
            "time": 208.4088825,
            "velocity": 0.4566929133858268
          },
          {
            "duration": 0.14772712499998875,
            "durationTicks": 156,
            "midi": 64,
            "name": "E4",
            "ticks": 220320,
            "time": 208.636155,
            "velocity": 0.4566929133858268
          },
          {
            "duration": 0.14772712499998875,
            "durationTicks": 156,
            "midi": 64,
            "name": "E4",
            "ticks": 220560,
            "time": 208.8634275,
            "velocity": 0.4566929133858268
          },
          {
            "duration": 0.14772712500001717,
            "durationTicks": 156,
            "midi": 62,
            "name": "D4",
            "ticks": 220800,
            "time": 209.0907,
            "velocity": 0.4566929133858268
          },
          {
            "duration": 0.14772712500001717,
            "durationTicks": 156,
            "midi": 62,
            "name": "D4",
            "ticks": 221040,
            "time": 209.3179725,
            "velocity": 0.4566929133858268
          },
          {
            "duration": 0.14772712500001717,
            "durationTicks": 156,
            "midi": 64,
            "name": "E4",
            "ticks": 221280,
            "time": 209.545245,
            "velocity": 0.4566929133858268
          },
          {
            "duration": 0.14772712499998875,
            "durationTicks": 156,
            "midi": 64,
            "name": "E4",
            "ticks": 221520,
            "time": 209.77251750000002,
            "velocity": 0.4566929133858268
          },
          {
            "duration": 0.14772712499998875,
            "durationTicks": 156,
            "midi": 65,
            "name": "F4",
            "ticks": 221760,
            "time": 209.99979000000002,
            "velocity": 0.4566929133858268
          },
          {
            "duration": 0.14772712499998875,
            "durationTicks": 156,
            "midi": 65,
            "name": "F4",
            "ticks": 222000,
            "time": 210.22706250000002,
            "velocity": 0.4566929133858268
          },
          {
            "duration": 0.14772712499998875,
            "durationTicks": 156,
            "midi": 62,
            "name": "D4",
            "ticks": 222240,
            "time": 210.45433500000001,
            "velocity": 0.4566929133858268
          },
          {
            "duration": 0.14772712499998875,
            "durationTicks": 156,
            "midi": 62,
            "name": "D4",
            "ticks": 222480,
            "time": 210.6816075,
            "velocity": 0.4566929133858268
          },
          {
            "duration": 0.14772712499998875,
            "durationTicks": 156,
            "midi": 64,
            "name": "E4",
            "ticks": 222720,
            "time": 210.90888,
            "velocity": 0.4566929133858268
          },
          {
            "duration": 0.14772712499998875,
            "durationTicks": 156,
            "midi": 64,
            "name": "E4",
            "ticks": 222960,
            "time": 211.1361525,
            "velocity": 0.4566929133858268
          },
          {
            "duration": 0.14772712499998875,
            "durationTicks": 156,
            "midi": 65,
            "name": "F4",
            "ticks": 223200,
            "time": 211.363425,
            "velocity": 0.4566929133858268
          },
          {
            "duration": 0.14772712499998875,
            "durationTicks": 156,
            "midi": 65,
            "name": "F4",
            "ticks": 223440,
            "time": 211.5906975,
            "velocity": 0.4566929133858268
          },
          {
            "duration": 0.14772712499998875,
            "durationTicks": 156,
            "midi": 67,
            "name": "G4",
            "ticks": 223680,
            "time": 211.81797,
            "velocity": 0.4566929133858268
          },
          {
            "duration": 0.14772712499998875,
            "durationTicks": 156,
            "midi": 67,
            "name": "G4",
            "ticks": 223920,
            "time": 212.0452425,
            "velocity": 0.4566929133858268
          },
          {
            "duration": 0.14772712500001717,
            "durationTicks": 156,
            "midi": 64,
            "name": "E4",
            "ticks": 224160,
            "time": 212.272515,
            "velocity": 0.4566929133858268
          },
          {
            "duration": 0.14772712500001717,
            "durationTicks": 156,
            "midi": 64,
            "name": "E4",
            "ticks": 224400,
            "time": 212.4997875,
            "velocity": 0.4566929133858268
          },
          {
            "duration": 0.14772712500001717,
            "durationTicks": 156,
            "midi": 62,
            "name": "D4",
            "ticks": 224640,
            "time": 212.72706,
            "velocity": 0.4566929133858268
          },
          {
            "duration": 0.14772712499998875,
            "durationTicks": 156,
            "midi": 62,
            "name": "D4",
            "ticks": 224880,
            "time": 212.95433250000002,
            "velocity": 0.4566929133858268
          },
          {
            "duration": 0.14772712499998875,
            "durationTicks": 156,
            "midi": 64,
            "name": "E4",
            "ticks": 225120,
            "time": 213.18160500000002,
            "velocity": 0.4566929133858268
          },
          {
            "duration": 0.14772712499998875,
            "durationTicks": 156,
            "midi": 64,
            "name": "E4",
            "ticks": 225360,
            "time": 213.40887750000002,
            "velocity": 0.4566929133858268
          },
          {
            "duration": 0.14772712499998875,
            "durationTicks": 156,
            "midi": 65,
            "name": "F4",
            "ticks": 225600,
            "time": 213.63615000000001,
            "velocity": 0.4566929133858268
          },
          {
            "duration": 0.14772712499998875,
            "durationTicks": 156,
            "midi": 65,
            "name": "F4",
            "ticks": 225840,
            "time": 213.8634225,
            "velocity": 0.4566929133858268
          },
          {
            "duration": 0.14772712499998875,
            "durationTicks": 156,
            "midi": 62,
            "name": "D4",
            "ticks": 226080,
            "time": 214.090695,
            "velocity": 0.4566929133858268
          },
          {
            "duration": 0.14772712499998875,
            "durationTicks": 156,
            "midi": 62,
            "name": "D4",
            "ticks": 226320,
            "time": 214.3179675,
            "velocity": 0.4566929133858268
          },
          {
            "duration": 0.14772712499998875,
            "durationTicks": 156,
            "midi": 64,
            "name": "E4",
            "ticks": 226560,
            "time": 214.54524,
            "velocity": 0.4566929133858268
          },
          {
            "duration": 0.14772712499998875,
            "durationTicks": 156,
            "midi": 64,
            "name": "E4",
            "ticks": 226800,
            "time": 214.7725125,
            "velocity": 0.4566929133858268
          },
          {
            "duration": 0.14772712499998875,
            "durationTicks": 156,
            "midi": 65,
            "name": "F4",
            "ticks": 227040,
            "time": 214.999785,
            "velocity": 0.4566929133858268
          },
          {
            "duration": 0.14772712499998875,
            "durationTicks": 156,
            "midi": 65,
            "name": "F4",
            "ticks": 227280,
            "time": 215.2270575,
            "velocity": 0.4566929133858268
          },
          {
            "duration": 0.14772712500001717,
            "durationTicks": 156,
            "midi": 67,
            "name": "G4",
            "ticks": 227520,
            "time": 215.45433,
            "velocity": 0.4566929133858268
          },
          {
            "duration": 0.14772712500001717,
            "durationTicks": 156,
            "midi": 67,
            "name": "G4",
            "ticks": 227760,
            "time": 215.6816025,
            "velocity": 0.4566929133858268
          },
          {
            "duration": 0.14772712500001717,
            "durationTicks": 156,
            "midi": 64,
            "name": "E4",
            "ticks": 228000,
            "time": 215.908875,
            "velocity": 0.4566929133858268
          },
          {
            "duration": 0.14772712499998875,
            "durationTicks": 156,
            "midi": 64,
            "name": "E4",
            "ticks": 228240,
            "time": 216.13614750000002,
            "velocity": 0.4566929133858268
          },
          {
            "duration": 0.14772712499998875,
            "durationTicks": 156,
            "midi": 62,
            "name": "D4",
            "ticks": 228480,
            "time": 216.36342000000002,
            "velocity": 0.4566929133858268
          },
          {
            "duration": 0.14772712499998875,
            "durationTicks": 156,
            "midi": 62,
            "name": "D4",
            "ticks": 228720,
            "time": 216.59069250000002,
            "velocity": 0.4566929133858268
          },
          {
            "duration": 0.14772712499998875,
            "durationTicks": 156,
            "midi": 64,
            "name": "E4",
            "ticks": 228960,
            "time": 216.81796500000002,
            "velocity": 0.4566929133858268
          },
          {
            "duration": 0.14772712499998875,
            "durationTicks": 156,
            "midi": 64,
            "name": "E4",
            "ticks": 229200,
            "time": 217.0452375,
            "velocity": 0.4566929133858268
          },
          {
            "duration": 0.14772712499998875,
            "durationTicks": 156,
            "midi": 65,
            "name": "F4",
            "ticks": 229440,
            "time": 217.27251,
            "velocity": 0.4566929133858268
          },
          {
            "duration": 0.14772712499998875,
            "durationTicks": 156,
            "midi": 65,
            "name": "F4",
            "ticks": 229680,
            "time": 217.4997825,
            "velocity": 0.4566929133858268
          },
          {
            "duration": 0.14772712499998875,
            "durationTicks": 156,
            "midi": 62,
            "name": "D4",
            "ticks": 229920,
            "time": 217.727055,
            "velocity": 0.4566929133858268
          },
          {
            "duration": 0.14772712499998875,
            "durationTicks": 156,
            "midi": 62,
            "name": "D4",
            "ticks": 230160,
            "time": 217.9543275,
            "velocity": 0.4566929133858268
          },
          {
            "duration": 0.14772712499998875,
            "durationTicks": 156,
            "midi": 60,
            "name": "C4",
            "ticks": 230400,
            "time": 218.1816,
            "velocity": 0.4566929133858268
          },
          {
            "duration": 0.14772712499998875,
            "durationTicks": 156,
            "midi": 60,
            "name": "C4",
            "ticks": 230640,
            "time": 218.4088725,
            "velocity": 0.4566929133858268
          },
          {
            "duration": 0.14772712500001717,
            "durationTicks": 156,
            "midi": 62,
            "name": "D4",
            "ticks": 230880,
            "time": 218.636145,
            "velocity": 0.4566929133858268
          },
          {
            "duration": 0.14772712500001717,
            "durationTicks": 156,
            "midi": 62,
            "name": "D4",
            "ticks": 231120,
            "time": 218.8634175,
            "velocity": 0.4566929133858268
          },
          {
            "duration": 0.14772712500001717,
            "durationTicks": 156,
            "midi": 64,
            "name": "E4",
            "ticks": 231360,
            "time": 219.09069,
            "velocity": 0.4566929133858268
          },
          {
            "duration": 0.14772712499998875,
            "durationTicks": 156,
            "midi": 64,
            "name": "E4",
            "ticks": 231600,
            "time": 219.31796250000002,
            "velocity": 0.4566929133858268
          },
          {
            "duration": 0.14772712499998875,
            "durationTicks": 156,
            "midi": 60,
            "name": "C4",
            "ticks": 231840,
            "time": 219.54523500000002,
            "velocity": 0.4566929133858268
          },
          {
            "duration": 0.14772712499998875,
            "durationTicks": 156,
            "midi": 60,
            "name": "C4",
            "ticks": 232080,
            "time": 219.77250750000002,
            "velocity": 0.4566929133858268
          },
          {
            "duration": 0.14772712499998875,
            "durationTicks": 156,
            "midi": 60,
            "name": "C4",
            "ticks": 232320,
            "time": 219.99978000000002,
            "velocity": 0.4566929133858268
          },
          {
            "duration": 0.14772712499998875,
            "durationTicks": 156,
            "midi": 60,
            "name": "C4",
            "ticks": 232560,
            "time": 220.2270525,
            "velocity": 0.4566929133858268
          },
          {
            "duration": 0.14772712499998875,
            "durationTicks": 156,
            "midi": 62,
            "name": "D4",
            "ticks": 232800,
            "time": 220.454325,
            "velocity": 0.4566929133858268
          },
          {
            "duration": 0.14772712499998875,
            "durationTicks": 156,
            "midi": 62,
            "name": "D4",
            "ticks": 233040,
            "time": 220.6815975,
            "velocity": 0.4566929133858268
          },
          {
            "duration": 0.14772712499998875,
            "durationTicks": 156,
            "midi": 63,
            "name": "D#4",
            "ticks": 233280,
            "time": 220.90887,
            "velocity": 0.4566929133858268
          },
          {
            "duration": 0.14772712499998875,
            "durationTicks": 156,
            "midi": 63,
            "name": "D#4",
            "ticks": 233520,
            "time": 221.1361425,
            "velocity": 0.4566929133858268
          },
          {
            "duration": 0.14772712499998875,
            "durationTicks": 156,
            "midi": 60,
            "name": "C4",
            "ticks": 233760,
            "time": 221.363415,
            "velocity": 0.4566929133858268
          },
          {
            "duration": 0.14772712499998875,
            "durationTicks": 156,
            "midi": 60,
            "name": "C4",
            "ticks": 234000,
            "time": 221.5906875,
            "velocity": 0.4566929133858268
          },
          {
            "duration": 0.14772712500001717,
            "durationTicks": 156,
            "midi": 58,
            "name": "A#3",
            "ticks": 234240,
            "time": 221.81796,
            "velocity": 0.4566929133858268
          },
          {
            "duration": 0.14772712500001717,
            "durationTicks": 156,
            "midi": 58,
            "name": "A#3",
            "ticks": 234480,
            "time": 222.0452325,
            "velocity": 0.4566929133858268
          },
          {
            "duration": 0.14772712500001717,
            "durationTicks": 156,
            "midi": 57,
            "name": "A3",
            "ticks": 234720,
            "time": 222.272505,
            "velocity": 0.4566929133858268
          },
          {
            "duration": 0.14772712499998875,
            "durationTicks": 156,
            "midi": 57,
            "name": "A3",
            "ticks": 234960,
            "time": 222.49977750000002,
            "velocity": 0.4566929133858268
          },
          {
            "duration": 0.14772712499998875,
            "durationTicks": 156,
            "midi": 58,
            "name": "A#3",
            "ticks": 235200,
            "time": 222.72705000000002,
            "velocity": 0.4566929133858268
          },
          {
            "duration": 0.14772712499998875,
            "durationTicks": 156,
            "midi": 58,
            "name": "A#3",
            "ticks": 235440,
            "time": 222.95432250000002,
            "velocity": 0.4566929133858268
          },
          {
            "duration": 0.14772712499998875,
            "durationTicks": 156,
            "midi": 69,
            "name": "A4",
            "ticks": 235680,
            "time": 223.18159500000002,
            "velocity": 0.4566929133858268
          },
          {
            "duration": 0.14772712499998875,
            "durationTicks": 156,
            "midi": 69,
            "name": "A4",
            "ticks": 235920,
            "time": 223.4088675,
            "velocity": 0.4566929133858268
          },
          {
            "duration": 0.14772712499998875,
            "durationTicks": 156,
            "midi": 70,
            "name": "A#4",
            "ticks": 236160,
            "time": 223.63614,
            "velocity": 0.4566929133858268
          },
          {
            "duration": 0.14772712499998875,
            "durationTicks": 156,
            "midi": 70,
            "name": "A#4",
            "ticks": 236400,
            "time": 223.8634125,
            "velocity": 0.4566929133858268
          },
          {
            "duration": 0.14772712499998875,
            "durationTicks": 156,
            "midi": 69,
            "name": "A4",
            "ticks": 236640,
            "time": 224.090685,
            "velocity": 0.4566929133858268
          },
          {
            "duration": 0.14772712499998875,
            "durationTicks": 156,
            "midi": 69,
            "name": "A4",
            "ticks": 236880,
            "time": 224.3179575,
            "velocity": 0.4566929133858268
          },
          {
            "duration": 0.14772712499998875,
            "durationTicks": 156,
            "midi": 70,
            "name": "A#4",
            "ticks": 237120,
            "time": 224.54523,
            "velocity": 0.4566929133858268
          },
          {
            "duration": 0.14772712499998875,
            "durationTicks": 156,
            "midi": 70,
            "name": "A#4",
            "ticks": 237360,
            "time": 224.7725025,
            "velocity": 0.4566929133858268
          },
          {
            "duration": 0.14772712500001717,
            "durationTicks": 156,
            "midi": 69,
            "name": "A4",
            "ticks": 237600,
            "time": 224.999775,
            "velocity": 0.4566929133858268
          },
          {
            "duration": 0.14772712500001717,
            "durationTicks": 156,
            "midi": 67,
            "name": "G4",
            "ticks": 237840,
            "time": 225.2270475,
            "velocity": 0.4566929133858268
          },
          {
            "duration": 0.36363600000001384,
            "durationTicks": 384,
            "midi": 66,
            "name": "F#4",
            "ticks": 238080,
            "time": 225.45432,
            "velocity": 0.4566929133858268
          },
          {
            "duration": 0.227272499999998,
            "durationTicks": 240,
            "midi": 62,
            "name": "D4",
            "ticks": 238800,
            "time": 226.13613750000002,
            "velocity": 0.7244094488188977
          },
          {
            "duration": 0.227272499999998,
            "durationTicks": 240,
            "midi": 64,
            "name": "E4",
            "ticks": 239040,
            "time": 226.36341000000002,
            "velocity": 0.7244094488188977
          },
          {
            "duration": 0.227272499999998,
            "durationTicks": 240,
            "midi": 66,
            "name": "F#4",
            "ticks": 239280,
            "time": 226.5906825,
            "velocity": 0.7244094488188977
          },
          {
            "duration": 0.227272499999998,
            "durationTicks": 240,
            "midi": 67,
            "name": "G4",
            "ticks": 239520,
            "time": 226.817955,
            "velocity": 0.7244094488188977
          },
          {
            "duration": 0.227272499999998,
            "durationTicks": 240,
            "midi": 69,
            "name": "A4",
            "ticks": 239760,
            "time": 227.0452275,
            "velocity": 0.7244094488188977
          },
          {
            "duration": 0.227272499999998,
            "durationTicks": 240,
            "midi": 72,
            "name": "C5",
            "ticks": 240000,
            "time": 227.2725,
            "velocity": 0.7244094488188977
          },
          {
            "duration": 0.227272499999998,
            "durationTicks": 240,
            "midi": 70,
            "name": "A#4",
            "ticks": 240240,
            "time": 227.4997725,
            "velocity": 0.7244094488188977
          },
          {
            "duration": 0.227272499999998,
            "durationTicks": 240,
            "midi": 66,
            "name": "F#4",
            "ticks": 240720,
            "time": 227.9543175,
            "velocity": 0.7244094488188977
          },
          {
            "duration": 0.227272499999998,
            "durationTicks": 240,
            "midi": 67,
            "name": "G4",
            "ticks": 240960,
            "time": 228.18159,
            "velocity": 0.7244094488188977
          },
          {
            "duration": 0.227272499999998,
            "durationTicks": 240,
            "midi": 69,
            "name": "A4",
            "ticks": 241200,
            "time": 228.4088625,
            "velocity": 0.7244094488188977
          },
          {
            "duration": 0.2272725000000264,
            "durationTicks": 240,
            "midi": 70,
            "name": "A#4",
            "ticks": 241440,
            "time": 228.636135,
            "velocity": 0.7244094488188977
          },
          {
            "duration": 0.227272499999998,
            "durationTicks": 240,
            "midi": 73,
            "name": "C#5",
            "ticks": 241680,
            "time": 228.86340750000002,
            "velocity": 0.7244094488188977
          },
          {
            "duration": 0.227272499999998,
            "durationTicks": 240,
            "midi": 76,
            "name": "E5",
            "ticks": 241920,
            "time": 229.09068000000002,
            "velocity": 0.7244094488188977
          },
          {
            "duration": 0.1818179999999927,
            "durationTicks": 192,
            "midi": 74,
            "name": "D5",
            "ticks": 242160,
            "time": 229.31795250000002,
            "velocity": 0.7244094488188977
          },
          {
            "duration": 0.227272499999998,
            "durationTicks": 240,
            "midi": 62,
            "name": "D4",
            "ticks": 242640,
            "time": 229.77249750000001,
            "velocity": 0.4566929133858268
          },
          {
            "duration": 0.227272499999998,
            "durationTicks": 240,
            "midi": 64,
            "name": "E4",
            "ticks": 242880,
            "time": 229.99977,
            "velocity": 0.4566929133858268
          },
          {
            "duration": 0.227272499999998,
            "durationTicks": 240,
            "midi": 66,
            "name": "F#4",
            "ticks": 243120,
            "time": 230.2270425,
            "velocity": 0.4566929133858268
          },
          {
            "duration": 0.227272499999998,
            "durationTicks": 240,
            "midi": 67,
            "name": "G4",
            "ticks": 243360,
            "time": 230.454315,
            "velocity": 0.4566929133858268
          },
          {
            "duration": 0.227272499999998,
            "durationTicks": 240,
            "midi": 69,
            "name": "A4",
            "ticks": 243600,
            "time": 230.6815875,
            "velocity": 0.4566929133858268
          },
          {
            "duration": 0.454544999999996,
            "durationTicks": 480,
            "midi": 70,
            "name": "A#4",
            "ticks": 243840,
            "time": 230.90886,
            "velocity": 0.4566929133858268
          },
          {
            "duration": 0.454544999999996,
            "durationTicks": 480,
            "midi": 71,
            "name": "B4",
            "ticks": 244320,
            "time": 231.363405,
            "velocity": 0.4566929133858268
          },
          {
            "duration": 0.4545450000000244,
            "durationTicks": 480,
            "midi": 72,
            "name": "C5",
            "ticks": 244800,
            "time": 231.81795,
            "velocity": 0.4566929133858268
          },
          {
            "duration": 0.3636359999999854,
            "durationTicks": 384,
            "midi": 73,
            "name": "C#5",
            "ticks": 245280,
            "time": 232.27249500000002,
            "velocity": 0.4566929133858268
          },
          {
            "duration": 0.13636349999998743,
            "durationTicks": 144,
            "midi": 74,
            "name": "D5",
            "ticks": 245760,
            "time": 232.72704000000002,
            "velocity": 0.5669291338582677
          },
          {
            "duration": 0.13636349999998743,
            "durationTicks": 144,
            "midi": 74,
            "name": "D5",
            "ticks": 246000,
            "time": 232.95431250000001,
            "velocity": 0.5669291338582677
          },
          {
            "duration": 0.227272499999998,
            "durationTicks": 240,
            "midi": 74,
            "name": "D5",
            "ticks": 246240,
            "time": 233.181585,
            "velocity": 0.5669291338582677
          },
          {
            "duration": 0.13636350000001585,
            "durationTicks": 144,
            "midi": 76,
            "name": "E5",
            "ticks": 246480,
            "time": 233.4088575,
            "velocity": 0.5669291338582677
          },
          {
            "duration": 0.13636349999998743,
            "durationTicks": 144,
            "midi": 72,
            "name": "C5",
            "ticks": 246720,
            "time": 233.63613,
            "velocity": 0.5669291338582677
          },
          {
            "duration": 0.13636349999998743,
            "durationTicks": 144,
            "midi": 72,
            "name": "C5",
            "ticks": 246960,
            "time": 233.8634025,
            "velocity": 0.5669291338582677
          },
          {
            "duration": 0.227272499999998,
            "durationTicks": 240,
            "midi": 72,
            "name": "C5",
            "ticks": 247200,
            "time": 234.090675,
            "velocity": 0.5669291338582677
          },
          {
            "duration": 0.13636349999998743,
            "durationTicks": 144,
            "midi": 74,
            "name": "D5",
            "ticks": 247440,
            "time": 234.3179475,
            "velocity": 0.5669291338582677
          },
          {
            "duration": 0.13636349999998743,
            "durationTicks": 144,
            "midi": 71,
            "name": "B4",
            "ticks": 247680,
            "time": 234.54522,
            "velocity": 0.5669291338582677
          },
          {
            "duration": 0.13636349999998743,
            "durationTicks": 144,
            "midi": 71,
            "name": "B4",
            "ticks": 247920,
            "time": 234.7724925,
            "velocity": 0.5669291338582677
          },
          {
            "duration": 0.227272499999998,
            "durationTicks": 240,
            "midi": 71,
            "name": "B4",
            "ticks": 248160,
            "time": 234.999765,
            "velocity": 0.5669291338582677
          },
          {
            "duration": 0.13636349999998743,
            "durationTicks": 144,
            "midi": 74,
            "name": "D5",
            "ticks": 248400,
            "time": 235.2270375,
            "velocity": 0.5669291338582677
          },
          {
            "duration": 0.227272499999998,
            "durationTicks": 240,
            "midi": 74,
            "name": "D5",
            "ticks": 248640,
            "time": 235.45431000000002,
            "velocity": 0.5669291338582677
          },
          {
            "duration": 0.14772712500001717,
            "durationTicks": 156,
            "midi": 72,
            "name": "C5",
            "ticks": 248880,
            "time": 235.68158250000002,
            "velocity": 0.5669291338582677
          },
          {
            "duration": 0.14772712500001717,
            "durationTicks": 156,
            "midi": 71,
            "name": "B4",
            "ticks": 249120,
            "time": 235.90885500000002,
            "velocity": 0.5669291338582677
          },
          {
            "duration": 0.14772712500001717,
            "durationTicks": 156,
            "midi": 69,
            "name": "A4",
            "ticks": 249360,
            "time": 236.13612750000001,
            "velocity": 0.5669291338582677
          },
          {
            "duration": 0.3636359999999854,
            "durationTicks": 384,
            "midi": 67,
            "name": "G4",
            "ticks": 249600,
            "time": 236.3634,
            "velocity": 0.984251968503937
          },
          {
            "duration": 0.13636349999998743,
            "durationTicks": 144,
            "midi": 74,
            "name": "D5",
            "ticks": 250320,
            "time": 237.0452175,
            "velocity": 0.7244094488188977
          },
          {
            "duration": 0.3636359999999854,
            "durationTicks": 384,
            "midi": 79,
            "name": "G5",
            "ticks": 250560,
            "time": 237.27249,
            "velocity": 0.7244094488188977
          },
          {
            "duration": 0.13636349999998743,
            "durationTicks": 144,
            "midi": 74,
            "name": "D5",
            "ticks": 251280,
            "time": 237.9543075,
            "velocity": 0.7244094488188977
          },
          {
            "duration": 0.13636349999998743,
            "durationTicks": 144,
            "midi": 79,
            "name": "G5",
            "ticks": 251520,
            "time": 238.18158,
            "velocity": 0.7244094488188977
          },
          {
            "duration": 0.13636349999998743,
            "durationTicks": 144,
            "midi": 74,
            "name": "D5",
            "ticks": 251760,
            "time": 238.4088525,
            "velocity": 0.7244094488188977
          },
          {
            "duration": 0.136363499999959,
            "durationTicks": 144,
            "midi": 79,
            "name": "G5",
            "ticks": 252000,
            "time": 238.63612500000002,
            "velocity": 0.7244094488188977
          },
          {
            "duration": 0.136363499999959,
            "durationTicks": 144,
            "midi": 83,
            "name": "B5",
            "ticks": 252240,
            "time": 238.86339750000002,
            "velocity": 0.7244094488188977
          },
          {
            "duration": 0.363635999999957,
            "durationTicks": 384,
            "midi": 86,
            "name": "D6",
            "ticks": 252480,
            "time": 239.09067000000002,
            "velocity": 0.7244094488188977
          },
          {
            "duration": 0.3636359999999854,
            "durationTicks": 384,
            "midi": 84,
            "name": "C6",
            "ticks": 253440,
            "time": 239.99976,
            "velocity": 0.7244094488188977
          },
          {
            "duration": 0.13636349999998743,
            "durationTicks": 144,
            "midi": 81,
            "name": "A5",
            "ticks": 254160,
            "time": 240.6815775,
            "velocity": 0.7244094488188977
          },
          {
            "duration": 0.3636359999999854,
            "durationTicks": 384,
            "midi": 84,
            "name": "C6",
            "ticks": 254400,
            "time": 240.90885,
            "velocity": 0.7244094488188977
          },
          {
            "duration": 0.13636349999998743,
            "durationTicks": 144,
            "midi": 81,
            "name": "A5",
            "ticks": 255120,
            "time": 241.5906675,
            "velocity": 0.7244094488188977
          },
          {
            "duration": 0.136363499999959,
            "durationTicks": 144,
            "midi": 84,
            "name": "C6",
            "ticks": 255360,
            "time": 241.81794000000002,
            "velocity": 0.7244094488188977
          },
          {
            "duration": 0.136363499999959,
            "durationTicks": 144,
            "midi": 81,
            "name": "A5",
            "ticks": 255600,
            "time": 242.04521250000002,
            "velocity": 0.7244094488188977
          },
          {
            "duration": 0.136363499999959,
            "durationTicks": 144,
            "midi": 78,
            "name": "F#5",
            "ticks": 255840,
            "time": 242.27248500000002,
            "velocity": 0.7244094488188977
          },
          {
            "duration": 0.136363499999959,
            "durationTicks": 144,
            "midi": 81,
            "name": "A5",
            "ticks": 256080,
            "time": 242.49975750000002,
            "velocity": 0.7244094488188977
          },
          {
            "duration": 0.3636359999999854,
            "durationTicks": 384,
            "midi": 74,
            "name": "D5",
            "ticks": 256320,
            "time": 242.72703,
            "velocity": 0.7244094488188977
          },
          {
            "duration": 0.09090900000001056,
            "durationTicks": 96,
            "midi": 59,
            "name": "B3",
            "ticks": 257280,
            "time": 243.63612,
            "velocity": 0.8267716535433071
          },
          {
            "duration": 0.09090900000001056,
            "durationTicks": 96,
            "midi": 62,
            "name": "D4",
            "ticks": 257280,
            "time": 243.63612,
            "velocity": 0.8267716535433071
          },
          {
            "duration": 0.09090900000001056,
            "durationTicks": 96,
            "midi": 59,
            "name": "B3",
            "ticks": 257400,
            "time": 243.74975625000002,
            "velocity": 0.8267716535433071
          },
          {
            "duration": 0.09090900000001056,
            "durationTicks": 96,
            "midi": 62,
            "name": "D4",
            "ticks": 257400,
            "time": 243.74975625000002,
            "velocity": 0.8267716535433071
          },
          {
            "duration": 0.09090900000003899,
            "durationTicks": 96,
            "midi": 59,
            "name": "B3",
            "ticks": 257520,
            "time": 243.8633925,
            "velocity": 0.8267716535433071
          },
          {
            "duration": 0.09090900000003899,
            "durationTicks": 96,
            "midi": 62,
            "name": "D4",
            "ticks": 257520,
            "time": 243.8633925,
            "velocity": 0.8267716535433071
          },
          {
            "duration": 0.09090900000001056,
            "durationTicks": 96,
            "midi": 59,
            "name": "B3",
            "ticks": 257640,
            "time": 243.97702875000002,
            "velocity": 0.8267716535433071
          },
          {
            "duration": 0.09090900000001056,
            "durationTicks": 96,
            "midi": 62,
            "name": "D4",
            "ticks": 257640,
            "time": 243.97702875000002,
            "velocity": 0.8267716535433071
          },
          {
            "duration": 0.09090900000003899,
            "durationTicks": 96,
            "midi": 59,
            "name": "B3",
            "ticks": 257760,
            "time": 244.090665,
            "velocity": 0.8267716535433071
          },
          {
            "duration": 0.09090900000003899,
            "durationTicks": 96,
            "midi": 62,
            "name": "D4",
            "ticks": 257760,
            "time": 244.090665,
            "velocity": 0.8267716535433071
          },
          {
            "duration": 0.09090900000001056,
            "durationTicks": 96,
            "midi": 59,
            "name": "B3",
            "ticks": 257880,
            "time": 244.20430125000001,
            "velocity": 0.8267716535433071
          },
          {
            "duration": 0.09090900000001056,
            "durationTicks": 96,
            "midi": 62,
            "name": "D4",
            "ticks": 257880,
            "time": 244.20430125000001,
            "velocity": 0.8267716535433071
          },
          {
            "duration": 0.09090900000003899,
            "durationTicks": 96,
            "midi": 59,
            "name": "B3",
            "ticks": 258000,
            "time": 244.3179375,
            "velocity": 0.8267716535433071
          },
          {
            "duration": 0.09090900000003899,
            "durationTicks": 96,
            "midi": 62,
            "name": "D4",
            "ticks": 258000,
            "time": 244.3179375,
            "velocity": 0.8267716535433071
          },
          {
            "duration": 0.09090900000001056,
            "durationTicks": 96,
            "midi": 59,
            "name": "B3",
            "ticks": 258120,
            "time": 244.43157375,
            "velocity": 0.8267716535433071
          },
          {
            "duration": 0.09090900000001056,
            "durationTicks": 96,
            "midi": 62,
            "name": "D4",
            "ticks": 258120,
            "time": 244.43157375,
            "velocity": 0.8267716535433071
          },
          {
            "duration": 0.09090900000003899,
            "durationTicks": 96,
            "midi": 59,
            "name": "B3",
            "ticks": 258240,
            "time": 244.54521,
            "velocity": 0.8267716535433071
          },
          {
            "duration": 0.09090900000003899,
            "durationTicks": 96,
            "midi": 62,
            "name": "D4",
            "ticks": 258240,
            "time": 244.54521,
            "velocity": 0.8267716535433071
          },
          {
            "duration": 0.09090900000001056,
            "durationTicks": 96,
            "midi": 59,
            "name": "B3",
            "ticks": 258360,
            "time": 244.65884625,
            "velocity": 0.8267716535433071
          },
          {
            "duration": 0.09090900000001056,
            "durationTicks": 96,
            "midi": 62,
            "name": "D4",
            "ticks": 258360,
            "time": 244.65884625,
            "velocity": 0.8267716535433071
          },
          {
            "duration": 0.09090900000003899,
            "durationTicks": 96,
            "midi": 59,
            "name": "B3",
            "ticks": 258480,
            "time": 244.7724825,
            "velocity": 0.8267716535433071
          },
          {
            "duration": 0.09090900000003899,
            "durationTicks": 96,
            "midi": 62,
            "name": "D4",
            "ticks": 258480,
            "time": 244.7724825,
            "velocity": 0.8267716535433071
          },
          {
            "duration": 0.09090900000001056,
            "durationTicks": 96,
            "midi": 59,
            "name": "B3",
            "ticks": 258600,
            "time": 244.88611875,
            "velocity": 0.8267716535433071
          },
          {
            "duration": 0.09090900000001056,
            "durationTicks": 96,
            "midi": 62,
            "name": "D4",
            "ticks": 258600,
            "time": 244.88611875,
            "velocity": 0.8267716535433071
          },
          {
            "duration": 0.09090900000001056,
            "durationTicks": 96,
            "midi": 59,
            "name": "B3",
            "ticks": 258720,
            "time": 244.99975500000002,
            "velocity": 0.8267716535433071
          },
          {
            "duration": 0.09090900000001056,
            "durationTicks": 96,
            "midi": 62,
            "name": "D4",
            "ticks": 258720,
            "time": 244.99975500000002,
            "velocity": 0.8267716535433071
          },
          {
            "duration": 0.09090900000001056,
            "durationTicks": 96,
            "midi": 59,
            "name": "B3",
            "ticks": 258840,
            "time": 245.11339125,
            "velocity": 0.8267716535433071
          },
          {
            "duration": 0.09090900000001056,
            "durationTicks": 96,
            "midi": 62,
            "name": "D4",
            "ticks": 258840,
            "time": 245.11339125,
            "velocity": 0.8267716535433071
          },
          {
            "duration": 0.09090900000001056,
            "durationTicks": 96,
            "midi": 59,
            "name": "B3",
            "ticks": 258960,
            "time": 245.22702750000002,
            "velocity": 0.8267716535433071
          },
          {
            "duration": 0.09090900000001056,
            "durationTicks": 96,
            "midi": 62,
            "name": "D4",
            "ticks": 258960,
            "time": 245.22702750000002,
            "velocity": 0.8267716535433071
          },
          {
            "duration": 0.09090900000003899,
            "durationTicks": 96,
            "midi": 59,
            "name": "B3",
            "ticks": 259080,
            "time": 245.34066375,
            "velocity": 0.8267716535433071
          },
          {
            "duration": 0.09090900000003899,
            "durationTicks": 96,
            "midi": 62,
            "name": "D4",
            "ticks": 259080,
            "time": 245.34066375,
            "velocity": 0.8267716535433071
          },
          {
            "duration": 0.09090900000001056,
            "durationTicks": 96,
            "midi": 60,
            "name": "C4",
            "ticks": 259200,
            "time": 245.45430000000002,
            "velocity": 0.8267716535433071
          },
          {
            "duration": 0.09090900000001056,
            "durationTicks": 96,
            "midi": 62,
            "name": "D4",
            "ticks": 259200,
            "time": 245.45430000000002,
            "velocity": 0.8267716535433071
          },
          {
            "duration": 0.09090900000003899,
            "durationTicks": 96,
            "midi": 60,
            "name": "C4",
            "ticks": 259320,
            "time": 245.56793625,
            "velocity": 0.8267716535433071
          },
          {
            "duration": 0.09090900000003899,
            "durationTicks": 96,
            "midi": 62,
            "name": "D4",
            "ticks": 259320,
            "time": 245.56793625,
            "velocity": 0.8267716535433071
          },
          {
            "duration": 0.09090900000001056,
            "durationTicks": 96,
            "midi": 60,
            "name": "C4",
            "ticks": 259440,
            "time": 245.68157250000002,
            "velocity": 0.8267716535433071
          },
          {
            "duration": 0.09090900000001056,
            "durationTicks": 96,
            "midi": 62,
            "name": "D4",
            "ticks": 259440,
            "time": 245.68157250000002,
            "velocity": 0.8267716535433071
          },
          {
            "duration": 0.09090900000003899,
            "durationTicks": 96,
            "midi": 60,
            "name": "C4",
            "ticks": 259560,
            "time": 245.79520875,
            "velocity": 0.8267716535433071
          },
          {
            "duration": 0.09090900000003899,
            "durationTicks": 96,
            "midi": 62,
            "name": "D4",
            "ticks": 259560,
            "time": 245.79520875,
            "velocity": 0.8267716535433071
          },
          {
            "duration": 0.09090900000001056,
            "durationTicks": 96,
            "midi": 60,
            "name": "C4",
            "ticks": 259680,
            "time": 245.908845,
            "velocity": 0.8267716535433071
          },
          {
            "duration": 0.09090900000001056,
            "durationTicks": 96,
            "midi": 62,
            "name": "D4",
            "ticks": 259680,
            "time": 245.908845,
            "velocity": 0.8267716535433071
          },
          {
            "duration": 0.09090900000003899,
            "durationTicks": 96,
            "midi": 60,
            "name": "C4",
            "ticks": 259800,
            "time": 246.02248125,
            "velocity": 0.8267716535433071
          },
          {
            "duration": 0.09090900000003899,
            "durationTicks": 96,
            "midi": 62,
            "name": "D4",
            "ticks": 259800,
            "time": 246.02248125,
            "velocity": 0.8267716535433071
          },
          {
            "duration": 0.09090900000001056,
            "durationTicks": 96,
            "midi": 60,
            "name": "C4",
            "ticks": 259920,
            "time": 246.1361175,
            "velocity": 0.8267716535433071
          },
          {
            "duration": 0.09090900000001056,
            "durationTicks": 96,
            "midi": 62,
            "name": "D4",
            "ticks": 259920,
            "time": 246.1361175,
            "velocity": 0.8267716535433071
          },
          {
            "duration": 0.09090900000003899,
            "durationTicks": 96,
            "midi": 60,
            "name": "C4",
            "ticks": 260040,
            "time": 246.24975375,
            "velocity": 0.8267716535433071
          },
          {
            "duration": 0.09090900000003899,
            "durationTicks": 96,
            "midi": 62,
            "name": "D4",
            "ticks": 260040,
            "time": 246.24975375,
            "velocity": 0.8267716535433071
          },
          {
            "duration": 0.09090900000001056,
            "durationTicks": 96,
            "midi": 60,
            "name": "C4",
            "ticks": 260160,
            "time": 246.36339,
            "velocity": 0.8267716535433071
          },
          {
            "duration": 0.09090900000001056,
            "durationTicks": 96,
            "midi": 62,
            "name": "D4",
            "ticks": 260160,
            "time": 246.36339,
            "velocity": 0.8267716535433071
          },
          {
            "duration": 0.09090900000001056,
            "durationTicks": 96,
            "midi": 60,
            "name": "C4",
            "ticks": 260280,
            "time": 246.47702625000002,
            "velocity": 0.8267716535433071
          },
          {
            "duration": 0.09090900000001056,
            "durationTicks": 96,
            "midi": 62,
            "name": "D4",
            "ticks": 260280,
            "time": 246.47702625000002,
            "velocity": 0.8267716535433071
          },
          {
            "duration": 0.09090900000001056,
            "durationTicks": 96,
            "midi": 60,
            "name": "C4",
            "ticks": 260400,
            "time": 246.5906625,
            "velocity": 0.8267716535433071
          },
          {
            "duration": 0.09090900000001056,
            "durationTicks": 96,
            "midi": 62,
            "name": "D4",
            "ticks": 260400,
            "time": 246.5906625,
            "velocity": 0.8267716535433071
          },
          {
            "duration": 0.09090900000001056,
            "durationTicks": 96,
            "midi": 60,
            "name": "C4",
            "ticks": 260520,
            "time": 246.70429875000002,
            "velocity": 0.8267716535433071
          },
          {
            "duration": 0.09090900000001056,
            "durationTicks": 96,
            "midi": 62,
            "name": "D4",
            "ticks": 260520,
            "time": 246.70429875000002,
            "velocity": 0.8267716535433071
          },
          {
            "duration": 0.09090900000001056,
            "durationTicks": 96,
            "midi": 60,
            "name": "C4",
            "ticks": 260640,
            "time": 246.817935,
            "velocity": 0.8267716535433071
          },
          {
            "duration": 0.09090900000001056,
            "durationTicks": 96,
            "midi": 62,
            "name": "D4",
            "ticks": 260640,
            "time": 246.817935,
            "velocity": 0.8267716535433071
          },
          {
            "duration": 0.09090900000001056,
            "durationTicks": 96,
            "midi": 60,
            "name": "C4",
            "ticks": 260760,
            "time": 246.93157125000002,
            "velocity": 0.8267716535433071
          },
          {
            "duration": 0.09090900000001056,
            "durationTicks": 96,
            "midi": 62,
            "name": "D4",
            "ticks": 260760,
            "time": 246.93157125000002,
            "velocity": 0.8267716535433071
          },
          {
            "duration": 0.09090900000003899,
            "durationTicks": 96,
            "midi": 60,
            "name": "C4",
            "ticks": 260880,
            "time": 247.0452075,
            "velocity": 0.8267716535433071
          },
          {
            "duration": 0.09090900000003899,
            "durationTicks": 96,
            "midi": 62,
            "name": "D4",
            "ticks": 260880,
            "time": 247.0452075,
            "velocity": 0.8267716535433071
          },
          {
            "duration": 0.09090900000001056,
            "durationTicks": 96,
            "midi": 60,
            "name": "C4",
            "ticks": 261000,
            "time": 247.15884375000002,
            "velocity": 0.8267716535433071
          },
          {
            "duration": 0.09090900000001056,
            "durationTicks": 96,
            "midi": 62,
            "name": "D4",
            "ticks": 261000,
            "time": 247.15884375000002,
            "velocity": 0.8267716535433071
          },
          {
            "duration": 0.09090900000003899,
            "durationTicks": 96,
            "midi": 59,
            "name": "B3",
            "ticks": 261120,
            "time": 247.27248,
            "velocity": 0.8267716535433071
          },
          {
            "duration": 0.09090900000003899,
            "durationTicks": 96,
            "midi": 62,
            "name": "D4",
            "ticks": 261120,
            "time": 247.27248,
            "velocity": 0.8267716535433071
          },
          {
            "duration": 0.09090900000001056,
            "durationTicks": 96,
            "midi": 59,
            "name": "B3",
            "ticks": 261240,
            "time": 247.38611625000001,
            "velocity": 0.8267716535433071
          },
          {
            "duration": 0.09090900000001056,
            "durationTicks": 96,
            "midi": 62,
            "name": "D4",
            "ticks": 261240,
            "time": 247.38611625000001,
            "velocity": 0.8267716535433071
          },
          {
            "duration": 0.09090900000003899,
            "durationTicks": 96,
            "midi": 59,
            "name": "B3",
            "ticks": 261360,
            "time": 247.4997525,
            "velocity": 0.8267716535433071
          },
          {
            "duration": 0.09090900000003899,
            "durationTicks": 96,
            "midi": 62,
            "name": "D4",
            "ticks": 261360,
            "time": 247.4997525,
            "velocity": 0.8267716535433071
          },
          {
            "duration": 0.09090900000001056,
            "durationTicks": 96,
            "midi": 59,
            "name": "B3",
            "ticks": 261480,
            "time": 247.61338875,
            "velocity": 0.8267716535433071
          },
          {
            "duration": 0.09090900000001056,
            "durationTicks": 96,
            "midi": 62,
            "name": "D4",
            "ticks": 261480,
            "time": 247.61338875,
            "velocity": 0.8267716535433071
          },
          {
            "duration": 0.09090900000003899,
            "durationTicks": 96,
            "midi": 59,
            "name": "B3",
            "ticks": 261600,
            "time": 247.727025,
            "velocity": 0.8267716535433071
          },
          {
            "duration": 0.09090900000003899,
            "durationTicks": 96,
            "midi": 62,
            "name": "D4",
            "ticks": 261600,
            "time": 247.727025,
            "velocity": 0.8267716535433071
          },
          {
            "duration": 0.09090900000001056,
            "durationTicks": 96,
            "midi": 59,
            "name": "B3",
            "ticks": 261720,
            "time": 247.84066125,
            "velocity": 0.8267716535433071
          },
          {
            "duration": 0.09090900000001056,
            "durationTicks": 96,
            "midi": 62,
            "name": "D4",
            "ticks": 261720,
            "time": 247.84066125,
            "velocity": 0.8267716535433071
          },
          {
            "duration": 0.09090900000003899,
            "durationTicks": 96,
            "midi": 59,
            "name": "B3",
            "ticks": 261840,
            "time": 247.9542975,
            "velocity": 0.8267716535433071
          },
          {
            "duration": 0.09090900000003899,
            "durationTicks": 96,
            "midi": 62,
            "name": "D4",
            "ticks": 261840,
            "time": 247.9542975,
            "velocity": 0.8267716535433071
          },
          {
            "duration": 0.09090900000001056,
            "durationTicks": 96,
            "midi": 59,
            "name": "B3",
            "ticks": 261960,
            "time": 248.06793375,
            "velocity": 0.8267716535433071
          },
          {
            "duration": 0.09090900000001056,
            "durationTicks": 96,
            "midi": 62,
            "name": "D4",
            "ticks": 261960,
            "time": 248.06793375,
            "velocity": 0.8267716535433071
          },
          {
            "duration": 0.09090900000001056,
            "durationTicks": 96,
            "midi": 59,
            "name": "B3",
            "ticks": 262080,
            "time": 248.18157000000002,
            "velocity": 0.8267716535433071
          },
          {
            "duration": 0.09090900000001056,
            "durationTicks": 96,
            "midi": 62,
            "name": "D4",
            "ticks": 262080,
            "time": 248.18157000000002,
            "velocity": 0.8267716535433071
          },
          {
            "duration": 0.09090900000001056,
            "durationTicks": 96,
            "midi": 59,
            "name": "B3",
            "ticks": 262200,
            "time": 248.29520625,
            "velocity": 0.8267716535433071
          },
          {
            "duration": 0.09090900000001056,
            "durationTicks": 96,
            "midi": 62,
            "name": "D4",
            "ticks": 262200,
            "time": 248.29520625,
            "velocity": 0.8267716535433071
          },
          {
            "duration": 0.09090900000001056,
            "durationTicks": 96,
            "midi": 59,
            "name": "B3",
            "ticks": 262320,
            "time": 248.40884250000002,
            "velocity": 0.8267716535433071
          },
          {
            "duration": 0.09090900000001056,
            "durationTicks": 96,
            "midi": 62,
            "name": "D4",
            "ticks": 262320,
            "time": 248.40884250000002,
            "velocity": 0.8267716535433071
          },
          {
            "duration": 0.09090900000003899,
            "durationTicks": 96,
            "midi": 59,
            "name": "B3",
            "ticks": 262440,
            "time": 248.52247875,
            "velocity": 0.8267716535433071
          },
          {
            "duration": 0.09090900000003899,
            "durationTicks": 96,
            "midi": 62,
            "name": "D4",
            "ticks": 262440,
            "time": 248.52247875,
            "velocity": 0.8267716535433071
          },
          {
            "duration": 0.09090900000001056,
            "durationTicks": 96,
            "midi": 59,
            "name": "B3",
            "ticks": 262560,
            "time": 248.63611500000002,
            "velocity": 0.8267716535433071
          },
          {
            "duration": 0.09090900000001056,
            "durationTicks": 96,
            "midi": 62,
            "name": "D4",
            "ticks": 262560,
            "time": 248.63611500000002,
            "velocity": 0.8267716535433071
          },
          {
            "duration": 0.09090900000003899,
            "durationTicks": 96,
            "midi": 59,
            "name": "B3",
            "ticks": 262680,
            "time": 248.74975125,
            "velocity": 0.8267716535433071
          },
          {
            "duration": 0.09090900000003899,
            "durationTicks": 96,
            "midi": 62,
            "name": "D4",
            "ticks": 262680,
            "time": 248.74975125,
            "velocity": 0.8267716535433071
          },
          {
            "duration": 0.09090900000001056,
            "durationTicks": 96,
            "midi": 59,
            "name": "B3",
            "ticks": 262800,
            "time": 248.86338750000002,
            "velocity": 0.8267716535433071
          },
          {
            "duration": 0.09090900000001056,
            "durationTicks": 96,
            "midi": 62,
            "name": "D4",
            "ticks": 262800,
            "time": 248.86338750000002,
            "velocity": 0.8267716535433071
          },
          {
            "duration": 0.09090900000003899,
            "durationTicks": 96,
            "midi": 59,
            "name": "B3",
            "ticks": 262920,
            "time": 248.97702375,
            "velocity": 0.8267716535433071
          },
          {
            "duration": 0.09090900000003899,
            "durationTicks": 96,
            "midi": 62,
            "name": "D4",
            "ticks": 262920,
            "time": 248.97702375,
            "velocity": 0.8267716535433071
          },
          {
            "duration": 0.09090900000001056,
            "durationTicks": 96,
            "midi": 60,
            "name": "C4",
            "ticks": 263040,
            "time": 249.09066,
            "velocity": 0.8267716535433071
          },
          {
            "duration": 0.09090900000001056,
            "durationTicks": 96,
            "midi": 62,
            "name": "D4",
            "ticks": 263040,
            "time": 249.09066,
            "velocity": 0.8267716535433071
          },
          {
            "duration": 0.09090900000003899,
            "durationTicks": 96,
            "midi": 60,
            "name": "C4",
            "ticks": 263160,
            "time": 249.20429625,
            "velocity": 0.8267716535433071
          },
          {
            "duration": 0.09090900000003899,
            "durationTicks": 96,
            "midi": 62,
            "name": "D4",
            "ticks": 263160,
            "time": 249.20429625,
            "velocity": 0.8267716535433071
          },
          {
            "duration": 0.09090900000001056,
            "durationTicks": 96,
            "midi": 60,
            "name": "C4",
            "ticks": 263280,
            "time": 249.3179325,
            "velocity": 0.8267716535433071
          },
          {
            "duration": 0.09090900000001056,
            "durationTicks": 96,
            "midi": 62,
            "name": "D4",
            "ticks": 263280,
            "time": 249.3179325,
            "velocity": 0.8267716535433071
          },
          {
            "duration": 0.09090900000003899,
            "durationTicks": 96,
            "midi": 60,
            "name": "C4",
            "ticks": 263400,
            "time": 249.43156875,
            "velocity": 0.8267716535433071
          },
          {
            "duration": 0.09090900000003899,
            "durationTicks": 96,
            "midi": 62,
            "name": "D4",
            "ticks": 263400,
            "time": 249.43156875,
            "velocity": 0.8267716535433071
          },
          {
            "duration": 0.09090900000001056,
            "durationTicks": 96,
            "midi": 60,
            "name": "C4",
            "ticks": 263520,
            "time": 249.545205,
            "velocity": 0.8267716535433071
          },
          {
            "duration": 0.09090900000001056,
            "durationTicks": 96,
            "midi": 62,
            "name": "D4",
            "ticks": 263520,
            "time": 249.545205,
            "velocity": 0.8267716535433071
          },
          {
            "duration": 0.09090900000001056,
            "durationTicks": 96,
            "midi": 60,
            "name": "C4",
            "ticks": 263640,
            "time": 249.65884125000002,
            "velocity": 0.8267716535433071
          },
          {
            "duration": 0.09090900000001056,
            "durationTicks": 96,
            "midi": 62,
            "name": "D4",
            "ticks": 263640,
            "time": 249.65884125000002,
            "velocity": 0.8267716535433071
          },
          {
            "duration": 0.09090900000001056,
            "durationTicks": 96,
            "midi": 60,
            "name": "C4",
            "ticks": 263760,
            "time": 249.7724775,
            "velocity": 0.8267716535433071
          },
          {
            "duration": 0.09090900000001056,
            "durationTicks": 96,
            "midi": 62,
            "name": "D4",
            "ticks": 263760,
            "time": 249.7724775,
            "velocity": 0.8267716535433071
          },
          {
            "duration": 0.09090900000001056,
            "durationTicks": 96,
            "midi": 60,
            "name": "C4",
            "ticks": 263880,
            "time": 249.88611375000002,
            "velocity": 0.8267716535433071
          },
          {
            "duration": 0.09090900000001056,
            "durationTicks": 96,
            "midi": 62,
            "name": "D4",
            "ticks": 263880,
            "time": 249.88611375000002,
            "velocity": 0.8267716535433071
          },
          {
            "duration": 0.09090900000001056,
            "durationTicks": 96,
            "midi": 60,
            "name": "C4",
            "ticks": 264000,
            "time": 249.99975,
            "velocity": 0.8267716535433071
          },
          {
            "duration": 0.09090900000001056,
            "durationTicks": 96,
            "midi": 62,
            "name": "D4",
            "ticks": 264000,
            "time": 249.99975,
            "velocity": 0.8267716535433071
          },
          {
            "duration": 0.09090900000001056,
            "durationTicks": 96,
            "midi": 60,
            "name": "C4",
            "ticks": 264120,
            "time": 250.11338625000002,
            "velocity": 0.8267716535433071
          },
          {
            "duration": 0.09090900000001056,
            "durationTicks": 96,
            "midi": 62,
            "name": "D4",
            "ticks": 264120,
            "time": 250.11338625000002,
            "velocity": 0.8267716535433071
          },
          {
            "duration": 0.09090900000003899,
            "durationTicks": 96,
            "midi": 60,
            "name": "C4",
            "ticks": 264240,
            "time": 250.2270225,
            "velocity": 0.8267716535433071
          },
          {
            "duration": 0.09090900000003899,
            "durationTicks": 96,
            "midi": 62,
            "name": "D4",
            "ticks": 264240,
            "time": 250.2270225,
            "velocity": 0.8267716535433071
          },
          {
            "duration": 0.09090900000001056,
            "durationTicks": 96,
            "midi": 60,
            "name": "C4",
            "ticks": 264360,
            "time": 250.34065875000002,
            "velocity": 0.8267716535433071
          },
          {
            "duration": 0.09090900000001056,
            "durationTicks": 96,
            "midi": 62,
            "name": "D4",
            "ticks": 264360,
            "time": 250.34065875000002,
            "velocity": 0.8267716535433071
          },
          {
            "duration": 0.09090900000003899,
            "durationTicks": 96,
            "midi": 60,
            "name": "C4",
            "ticks": 264480,
            "time": 250.454295,
            "velocity": 0.8267716535433071
          },
          {
            "duration": 0.09090900000003899,
            "durationTicks": 96,
            "midi": 62,
            "name": "D4",
            "ticks": 264480,
            "time": 250.454295,
            "velocity": 0.8267716535433071
          },
          {
            "duration": 0.09090900000001056,
            "durationTicks": 96,
            "midi": 60,
            "name": "C4",
            "ticks": 264600,
            "time": 250.56793125000002,
            "velocity": 0.8267716535433071
          },
          {
            "duration": 0.09090900000001056,
            "durationTicks": 96,
            "midi": 62,
            "name": "D4",
            "ticks": 264600,
            "time": 250.56793125000002,
            "velocity": 0.8267716535433071
          },
          {
            "duration": 0.09090900000003899,
            "durationTicks": 96,
            "midi": 60,
            "name": "C4",
            "ticks": 264720,
            "time": 250.6815675,
            "velocity": 0.8267716535433071
          },
          {
            "duration": 0.09090900000003899,
            "durationTicks": 96,
            "midi": 62,
            "name": "D4",
            "ticks": 264720,
            "time": 250.6815675,
            "velocity": 0.8267716535433071
          },
          {
            "duration": 0.09090900000001056,
            "durationTicks": 96,
            "midi": 60,
            "name": "C4",
            "ticks": 264840,
            "time": 250.79520375,
            "velocity": 0.8267716535433071
          },
          {
            "duration": 0.09090900000001056,
            "durationTicks": 96,
            "midi": 62,
            "name": "D4",
            "ticks": 264840,
            "time": 250.79520375,
            "velocity": 0.8267716535433071
          },
          {
            "duration": 0.3636359999999854,
            "durationTicks": 384,
            "midi": 59,
            "name": "B3",
            "ticks": 264960,
            "time": 250.90884,
            "velocity": 0.8267716535433071
          },
          {
            "duration": 0.3636359999999854,
            "durationTicks": 384,
            "midi": 62,
            "name": "D4",
            "ticks": 264960,
            "time": 250.90884,
            "velocity": 0.8267716535433071
          },
          {
            "duration": 0.136363499999959,
            "durationTicks": 144,
            "midi": 72,
            "name": "C5",
            "ticks": 265440,
            "time": 251.36338500000002,
            "velocity": 0.8267716535433071
          },
          {
            "duration": 0.136363499999959,
            "durationTicks": 144,
            "midi": 72,
            "name": "C5",
            "ticks": 265680,
            "time": 251.59065750000002,
            "velocity": 0.8267716535433071
          },
          {
            "duration": 0.136363499999959,
            "durationTicks": 144,
            "midi": 74,
            "name": "D5",
            "ticks": 265920,
            "time": 251.81793000000002,
            "velocity": 0.8267716535433071
          },
          {
            "duration": 0.136363499999959,
            "durationTicks": 144,
            "midi": 74,
            "name": "D5",
            "ticks": 266160,
            "time": 252.04520250000002,
            "velocity": 0.8267716535433071
          },
          {
            "duration": 0.227272499999998,
            "durationTicks": 240,
            "midi": 72,
            "name": "C5",
            "ticks": 266400,
            "time": 252.27247500000001,
            "velocity": 0.8267716535433071
          },
          {
            "duration": 0.11363624999998478,
            "durationTicks": 120,
            "midi": 71,
            "name": "B4",
            "ticks": 266640,
            "time": 252.4997475,
            "velocity": 0.8267716535433071
          },
          {
            "duration": 0.09090900000003899,
            "durationTicks": 96,
            "midi": 69,
            "name": "A4",
            "ticks": 266760,
            "time": 252.61338375,
            "velocity": 0.8267716535433071
          },
          {
            "duration": 0.13636349999998743,
            "durationTicks": 144,
            "midi": 67,
            "name": "G4",
            "ticks": 266880,
            "time": 252.72702,
            "velocity": 0.8267716535433071
          },
          {
            "duration": 0.13636349999998743,
            "durationTicks": 144,
            "midi": 67,
            "name": "G4",
            "ticks": 267120,
            "time": 252.9542925,
            "velocity": 0.8267716535433071
          },
          {
            "duration": 0.13636349999998743,
            "durationTicks": 144,
            "midi": 66,
            "name": "F#4",
            "ticks": 267360,
            "time": 253.181565,
            "velocity": 0.8267716535433071
          },
          {
            "duration": 0.13636349999998743,
            "durationTicks": 144,
            "midi": 66,
            "name": "F#4",
            "ticks": 267600,
            "time": 253.4088375,
            "velocity": 0.8267716535433071
          },
          {
            "duration": 0.3636359999999854,
            "durationTicks": 384,
            "midi": 67,
            "name": "G4",
            "ticks": 267840,
            "time": 253.63611,
            "velocity": 0.7244094488188977
          },
          {
            "duration": 0.909089999999992,
            "durationTicks": 960,
            "midi": 71,
            "name": "B4",
            "ticks": 268800,
            "time": 254.54520000000002,
            "velocity": 0.4566929133858268
          },
          {
            "duration": 0.7272720000000277,
            "durationTicks": 768,
            "midi": 72,
            "name": "C5",
            "ticks": 269760,
            "time": 255.45429000000001,
            "velocity": 0.4566929133858268
          },
          {
            "duration": 0.1136362500000132,
            "durationTicks": 120,
            "midi": 71,
            "name": "B4",
            "ticks": 270720,
            "time": 256.36338,
            "velocity": 0.4566929133858268
          },
          {
            "duration": 0.20454525000002377,
            "durationTicks": 216,
            "midi": 69,
            "name": "A4",
            "ticks": 270840,
            "time": 256.47701625,
            "velocity": 0.4566929133858268
          },
          {
            "duration": 0.2727270000000317,
            "durationTicks": 288,
            "midi": 69,
            "name": "A4",
            "ticks": 271200,
            "time": 256.817925,
            "velocity": 0.4566929133858268
          },
          {
            "duration": 0.1136362500000132,
            "durationTicks": 120,
            "midi": 69,
            "name": "A4",
            "ticks": 271680,
            "time": 257.27247,
            "velocity": 0.4566929133858268
          },
          {
            "duration": 0.20454525000002377,
            "durationTicks": 216,
            "midi": 67,
            "name": "G4",
            "ticks": 271800,
            "time": 257.38610625,
            "velocity": 0.4566929133858268
          },
          {
            "duration": 0.2727270000000317,
            "durationTicks": 288,
            "midi": 67,
            "name": "G4",
            "ticks": 272160,
            "time": 257.727015,
            "velocity": 0.4566929133858268
          },
          {
            "duration": 0.29545425000003434,
            "durationTicks": 312,
            "midi": 64,
            "name": "E4",
            "ticks": 272640,
            "time": 258.18156,
            "velocity": 0.4566929133858268
          },
          {
            "duration": 0.29545425000003434,
            "durationTicks": 312,
            "midi": 64,
            "name": "E4",
            "ticks": 273120,
            "time": 258.636105,
            "velocity": 0.4566929133858268
          },
          {
            "duration": 0.2727270000000317,
            "durationTicks": 288,
            "midi": 60,
            "name": "C4",
            "ticks": 273600,
            "time": 259.09065,
            "velocity": 0.4566929133858268
          },
          {
            "duration": 0.27272699999997485,
            "durationTicks": 288,
            "midi": 57,
            "name": "A3",
            "ticks": 274080,
            "time": 259.54519500000004,
            "velocity": 0.4566929133858268
          },
          {
            "duration": 0.14772712500001717,
            "durationTicks": 156,
            "midi": 62,
            "name": "D4",
            "ticks": 274560,
            "time": 259.99974000000003,
            "velocity": 0.4566929133858268
          },
          {
            "duration": 0.14772712500001717,
            "durationTicks": 156,
            "midi": 66,
            "name": "F#4",
            "ticks": 275040,
            "time": 260.454285,
            "velocity": 0.4566929133858268
          },
          {
            "duration": 0.14772712500001717,
            "durationTicks": 156,
            "midi": 67,
            "name": "G4",
            "ticks": 275520,
            "time": 260.90883,
            "velocity": 0.4566929133858268
          },
          {
            "duration": 0.909089999999992,
            "durationTicks": 960,
            "midi": 71,
            "name": "B4",
            "ticks": 276480,
            "time": 261.81792,
            "velocity": 0.4566929133858268
          },
          {
            "duration": 0.7272720000000277,
            "durationTicks": 768,
            "midi": 72,
            "name": "C5",
            "ticks": 277440,
            "time": 262.72701,
            "velocity": 0.4566929133858268
          },
          {
            "duration": 0.2272725000000264,
            "durationTicks": 240,
            "midi": 71,
            "name": "B4",
            "ticks": 278400,
            "time": 263.6361,
            "velocity": 0.4566929133858268
          },
          {
            "duration": 0.14772712500001717,
            "durationTicks": 156,
            "midi": 69,
            "name": "A4",
            "ticks": 278640,
            "time": 263.8633725,
            "velocity": 0.4566929133858268
          },
          {
            "duration": 0.14772712500001717,
            "durationTicks": 156,
            "midi": 69,
            "name": "A4",
            "ticks": 278880,
            "time": 264.090645,
            "velocity": 0.4566929133858268
          },
          {
            "duration": 0.14772712500001717,
            "durationTicks": 156,
            "midi": 69,
            "name": "A4",
            "ticks": 279120,
            "time": 264.3179175,
            "velocity": 0.4566929133858268
          },
          {
            "duration": 0.2272725000000264,
            "durationTicks": 240,
            "midi": 69,
            "name": "A4",
            "ticks": 279360,
            "time": 264.54519,
            "velocity": 0.4566929133858268
          },
          {
            "duration": 0.14772712500001717,
            "durationTicks": 156,
            "midi": 67,
            "name": "G4",
            "ticks": 279600,
            "time": 264.7724625,
            "velocity": 0.4566929133858268
          },
          {
            "duration": 0.14772712500001717,
            "durationTicks": 156,
            "midi": 67,
            "name": "G4",
            "ticks": 279840,
            "time": 264.999735,
            "velocity": 0.4566929133858268
          },
          {
            "duration": 0.14772712500001717,
            "durationTicks": 156,
            "midi": 67,
            "name": "G4",
            "ticks": 280080,
            "time": 265.2270075,
            "velocity": 0.4566929133858268
          },
          {
            "duration": 0.29545425000003434,
            "durationTicks": 312,
            "midi": 64,
            "name": "E4",
            "ticks": 280320,
            "time": 265.45428,
            "velocity": 0.4566929133858268
          },
          {
            "duration": 0.14772712500001717,
            "durationTicks": 156,
            "midi": 64,
            "name": "E4",
            "ticks": 280800,
            "time": 265.90882500000004,
            "velocity": 0.4566929133858268
          },
          {
            "duration": 0.14772712500001717,
            "durationTicks": 156,
            "midi": 64,
            "name": "E4",
            "ticks": 281040,
            "time": 266.1360975,
            "velocity": 0.4566929133858268
          },
          {
            "duration": 0.2954542499999775,
            "durationTicks": 312,
            "midi": 60,
            "name": "C4",
            "ticks": 281280,
            "time": 266.36337000000003,
            "velocity": 0.4566929133858268
          },
          {
            "duration": 0.14772712500001717,
            "durationTicks": 156,
            "midi": 60,
            "name": "C4",
            "ticks": 281760,
            "time": 266.817915,
            "velocity": 0.4566929133858268
          },
          {
            "duration": 0.14772712500001717,
            "durationTicks": 156,
            "midi": 60,
            "name": "C4",
            "ticks": 282000,
            "time": 267.0451875,
            "velocity": 0.4566929133858268
          },
          {
            "duration": 1.0909079999999562,
            "durationTicks": 1152,
            "midi": 59,
            "name": "B3",
            "ticks": 282240,
            "time": 267.27246,
            "velocity": 0.8818897637795275
          },
          {
            "duration": 0.0568181250000066,
            "durationTicks": 60,
            "midi": 60,
            "name": "C4",
            "ticks": 283440,
            "time": 268.4088225,
            "velocity": 0.5669291338582677
          },
          {
            "duration": 0.0568181250000066,
            "durationTicks": 60,
            "midi": 59,
            "name": "B3",
            "ticks": 283500,
            "time": 268.465640625,
            "velocity": 0.5669291338582677
          },
          {
            "duration": 0.0568181250000066,
            "durationTicks": 60,
            "midi": 57,
            "name": "A3",
            "ticks": 283560,
            "time": 268.52245875,
            "velocity": 0.5669291338582677
          },
          {
            "duration": 0.0568181250000066,
            "durationTicks": 60,
            "midi": 59,
            "name": "B3",
            "ticks": 283620,
            "time": 268.579276875,
            "velocity": 0.5669291338582677
          },
          {
            "duration": 0.2272725000000264,
            "durationTicks": 240,
            "midi": 60,
            "name": "C4",
            "ticks": 283680,
            "time": 268.636095,
            "velocity": 0.5669291338582677
          },
          {
            "duration": 0.18181799999996429,
            "durationTicks": 192,
            "midi": 57,
            "name": "A3",
            "ticks": 283920,
            "time": 268.86336750000004,
            "velocity": 0.5669291338582677
          },
          {
            "duration": 1.090908000000013,
            "durationTicks": 1152,
            "midi": 67,
            "name": "G4",
            "ticks": 284160,
            "time": 269.09064,
            "velocity": 0.8818897637795275
          },
          {
            "duration": 0.0568181250000066,
            "durationTicks": 60,
            "midi": 69,
            "name": "A4",
            "ticks": 285360,
            "time": 270.2270025,
            "velocity": 0.5669291338582677
          },
          {
            "duration": 0.0568181250000066,
            "durationTicks": 60,
            "midi": 67,
            "name": "G4",
            "ticks": 285420,
            "time": 270.28382062500003,
            "velocity": 0.5669291338582677
          },
          {
            "duration": 0.05681812499994976,
            "durationTicks": 60,
            "midi": 66,
            "name": "F#4",
            "ticks": 285480,
            "time": 270.34063875000004,
            "velocity": 0.5669291338582677
          },
          {
            "duration": 0.0568181250000066,
            "durationTicks": 60,
            "midi": 67,
            "name": "G4",
            "ticks": 285540,
            "time": 270.397456875,
            "velocity": 0.5669291338582677
          },
          {
            "duration": 0.2272725000000264,
            "durationTicks": 240,
            "midi": 69,
            "name": "A4",
            "ticks": 285600,
            "time": 270.454275,
            "velocity": 0.5669291338582677
          },
          {
            "duration": 0.18181799999996429,
            "durationTicks": 192,
            "midi": 66,
            "name": "F#4",
            "ticks": 285840,
            "time": 270.6815475,
            "velocity": 0.5669291338582677
          },
          {
            "duration": 0.09090900000006741,
            "durationTicks": 96,
            "midi": 71,
            "name": "B4",
            "ticks": 286080,
            "time": 270.90882,
            "velocity": 0.5669291338582677
          },
          {
            "duration": 0.09090900000001056,
            "durationTicks": 96,
            "midi": 71,
            "name": "B4",
            "ticks": 286200,
            "time": 271.02245625,
            "velocity": 0.5669291338582677
          },
          {
            "duration": 0.09090900000001056,
            "durationTicks": 96,
            "midi": 71,
            "name": "B4",
            "ticks": 286320,
            "time": 271.1360925,
            "velocity": 0.5669291338582677
          },
          {
            "duration": 0.09090900000001056,
            "durationTicks": 96,
            "midi": 71,
            "name": "B4",
            "ticks": 286440,
            "time": 271.24972875000003,
            "velocity": 0.5669291338582677
          },
          {
            "duration": 0.09090900000006741,
            "durationTicks": 96,
            "midi": 71,
            "name": "B4",
            "ticks": 286560,
            "time": 271.363365,
            "velocity": 0.5669291338582677
          },
          {
            "duration": 0.09090900000001056,
            "durationTicks": 96,
            "midi": 71,
            "name": "B4",
            "ticks": 286680,
            "time": 271.47700125,
            "velocity": 0.5669291338582677
          },
          {
            "duration": 0.09090900000001056,
            "durationTicks": 96,
            "midi": 71,
            "name": "B4",
            "ticks": 286800,
            "time": 271.5906375,
            "velocity": 0.5669291338582677
          },
          {
            "duration": 0.09090900000001056,
            "durationTicks": 96,
            "midi": 71,
            "name": "B4",
            "ticks": 286920,
            "time": 271.70427375,
            "velocity": 0.5669291338582677
          },
          {
            "duration": 0.09090900000006741,
            "durationTicks": 96,
            "midi": 72,
            "name": "C5",
            "ticks": 287040,
            "time": 271.81791,
            "velocity": 0.5669291338582677
          },
          {
            "duration": 0.09090900000001056,
            "durationTicks": 96,
            "midi": 72,
            "name": "C5",
            "ticks": 287160,
            "time": 271.93154625,
            "velocity": 0.6377952755905512
          },
          {
            "duration": 0.09090900000001056,
            "durationTicks": 96,
            "midi": 72,
            "name": "C5",
            "ticks": 287280,
            "time": 272.0451825,
            "velocity": 0.6377952755905512
          },
          {
            "duration": 0.09090900000001056,
            "durationTicks": 96,
            "midi": 72,
            "name": "C5",
            "ticks": 287400,
            "time": 272.15881875,
            "velocity": 0.6377952755905512
          },
          {
            "duration": 0.09090900000001056,
            "durationTicks": 96,
            "midi": 72,
            "name": "C5",
            "ticks": 287520,
            "time": 272.27245500000004,
            "velocity": 0.6377952755905512
          },
          {
            "duration": 0.09090900000006741,
            "durationTicks": 96,
            "midi": 72,
            "name": "C5",
            "ticks": 287640,
            "time": 272.38609125,
            "velocity": 0.6377952755905512
          },
          {
            "duration": 0.09090900000001056,
            "durationTicks": 96,
            "midi": 72,
            "name": "C5",
            "ticks": 287760,
            "time": 272.4997275,
            "velocity": 0.6377952755905512
          },
          {
            "duration": 0.09090900000001056,
            "durationTicks": 96,
            "midi": 72,
            "name": "C5",
            "ticks": 287880,
            "time": 272.61336375,
            "velocity": 0.6377952755905512
          },
          {
            "duration": 0.09090900000001056,
            "durationTicks": 96,
            "midi": 71,
            "name": "B4",
            "ticks": 288000,
            "time": 272.72700000000003,
            "velocity": 0.7244094488188977
          },
          {
            "duration": 0.09090900000006741,
            "durationTicks": 96,
            "midi": 71,
            "name": "B4",
            "ticks": 288120,
            "time": 272.84063625,
            "velocity": 0.7244094488188977
          },
          {
            "duration": 0.09090900000001056,
            "durationTicks": 96,
            "midi": 71,
            "name": "B4",
            "ticks": 288240,
            "time": 272.9542725,
            "velocity": 0.7244094488188977
          },
          {
            "duration": 0.09090900000001056,
            "durationTicks": 96,
            "midi": 71,
            "name": "B4",
            "ticks": 288360,
            "time": 273.06790875,
            "velocity": 0.7244094488188977
          },
          {
            "duration": 0.09090900000001056,
            "durationTicks": 96,
            "midi": 74,
            "name": "D5",
            "ticks": 288480,
            "time": 273.181545,
            "velocity": 0.7244094488188977
          },
          {
            "duration": 0.09090900000006741,
            "durationTicks": 96,
            "midi": 74,
            "name": "D5",
            "ticks": 288600,
            "time": 273.29518125,
            "velocity": 0.7244094488188977
          },
          {
            "duration": 0.09090900000001056,
            "durationTicks": 96,
            "midi": 74,
            "name": "D5",
            "ticks": 288720,
            "time": 273.4088175,
            "velocity": 0.7244094488188977
          },
          {
            "duration": 0.09090900000001056,
            "durationTicks": 96,
            "midi": 74,
            "name": "D5",
            "ticks": 288840,
            "time": 273.52245375,
            "velocity": 0.7244094488188977
          },
          {
            "duration": 0.09090900000001056,
            "durationTicks": 96,
            "midi": 74,
            "name": "D5",
            "ticks": 288960,
            "time": 273.63609,
            "velocity": 0.8267716535433071
          },
          {
            "duration": 0.09090900000001056,
            "durationTicks": 96,
            "midi": 74,
            "name": "D5",
            "ticks": 289080,
            "time": 273.74972625000004,
            "velocity": 0.8267716535433071
          },
          {
            "duration": 0.09090900000001056,
            "durationTicks": 96,
            "midi": 74,
            "name": "D5",
            "ticks": 289200,
            "time": 273.8633625,
            "velocity": 0.8267716535433071
          },
          {
            "duration": 0.09090900000001056,
            "durationTicks": 96,
            "midi": 74,
            "name": "D5",
            "ticks": 289320,
            "time": 273.97699875,
            "velocity": 0.8267716535433071
          },
          {
            "duration": 0.09090900000001056,
            "durationTicks": 96,
            "midi": 79,
            "name": "G5",
            "ticks": 289440,
            "time": 274.090635,
            "velocity": 0.8267716535433071
          },
          {
            "duration": 0.09090900000001056,
            "durationTicks": 96,
            "midi": 79,
            "name": "G5",
            "ticks": 289560,
            "time": 274.20427125000003,
            "velocity": 0.8267716535433071
          },
          {
            "duration": 0.09090900000006741,
            "durationTicks": 96,
            "midi": 79,
            "name": "G5",
            "ticks": 289680,
            "time": 274.3179075,
            "velocity": 0.8267716535433071
          },
          {
            "duration": 0.09090900000001056,
            "durationTicks": 96,
            "midi": 79,
            "name": "G5",
            "ticks": 289800,
            "time": 274.43154375,
            "velocity": 0.8267716535433071
          },
          {
            "duration": 0.09090900000001056,
            "durationTicks": 96,
            "midi": 78,
            "name": "F#5",
            "ticks": 289920,
            "time": 274.54518,
            "velocity": 0.8267716535433071
          },
          {
            "duration": 0.09090900000001056,
            "durationTicks": 96,
            "midi": 78,
            "name": "F#5",
            "ticks": 290040,
            "time": 274.65881625000003,
            "velocity": 0.8267716535433071
          },
          {
            "duration": 0.09090900000006741,
            "durationTicks": 96,
            "midi": 78,
            "name": "F#5",
            "ticks": 290160,
            "time": 274.7724525,
            "velocity": 0.8267716535433071
          },
          {
            "duration": 0.09090900000001056,
            "durationTicks": 96,
            "midi": 78,
            "name": "F#5",
            "ticks": 290280,
            "time": 274.88608875,
            "velocity": 0.8267716535433071
          },
          {
            "duration": 0.09090900000001056,
            "durationTicks": 96,
            "midi": 78,
            "name": "F#5",
            "ticks": 290400,
            "time": 274.999725,
            "velocity": 0.8267716535433071
          },
          {
            "duration": 0.09090900000001056,
            "durationTicks": 96,
            "midi": 78,
            "name": "F#5",
            "ticks": 290520,
            "time": 275.11336125,
            "velocity": 0.8267716535433071
          },
          {
            "duration": 0.09090900000001056,
            "durationTicks": 96,
            "midi": 78,
            "name": "F#5",
            "ticks": 290640,
            "time": 275.22699750000004,
            "velocity": 0.8267716535433071
          },
          {
            "duration": 0.09090900000001056,
            "durationTicks": 96,
            "midi": 78,
            "name": "F#5",
            "ticks": 290760,
            "time": 275.34063375,
            "velocity": 0.8267716535433071
          },
          {
            "duration": 0.09090900000001056,
            "durationTicks": 96,
            "midi": 79,
            "name": "G5",
            "ticks": 290880,
            "time": 275.45427,
            "velocity": 0.8267716535433071
          },
          {
            "duration": 0.09090900000001056,
            "durationTicks": 96,
            "midi": 79,
            "name": "G5",
            "ticks": 291000,
            "time": 275.56790625,
            "velocity": 0.8267716535433071
          },
          {
            "duration": 0.09090900000001056,
            "durationTicks": 96,
            "midi": 79,
            "name": "G5",
            "ticks": 291120,
            "time": 275.68154250000003,
            "velocity": 0.8267716535433071
          },
          {
            "duration": 0.09090900000006741,
            "durationTicks": 96,
            "midi": 79,
            "name": "G5",
            "ticks": 291240,
            "time": 275.79517875,
            "velocity": 0.8267716535433071
          },
          {
            "duration": 0.09090900000001056,
            "durationTicks": 96,
            "midi": 79,
            "name": "G5",
            "ticks": 291360,
            "time": 275.908815,
            "velocity": 0.8267716535433071
          },
          {
            "duration": 0.09090900000001056,
            "durationTicks": 96,
            "midi": 79,
            "name": "G5",
            "ticks": 291480,
            "time": 276.02245125,
            "velocity": 0.8267716535433071
          },
          {
            "duration": 0.09090900000001056,
            "durationTicks": 96,
            "midi": 79,
            "name": "G5",
            "ticks": 291600,
            "time": 276.13608750000003,
            "velocity": 0.8267716535433071
          },
          {
            "duration": 0.09090900000006741,
            "durationTicks": 96,
            "midi": 79,
            "name": "G5",
            "ticks": 291720,
            "time": 276.24972375,
            "velocity": 0.8267716535433071
          },
          {
            "duration": 0.09090900000001056,
            "durationTicks": 96,
            "midi": 78,
            "name": "F#5",
            "ticks": 291840,
            "time": 276.36336,
            "velocity": 0.8267716535433071
          },
          {
            "duration": 0.09090900000001056,
            "durationTicks": 96,
            "midi": 78,
            "name": "F#5",
            "ticks": 291960,
            "time": 276.47699625,
            "velocity": 0.8267716535433071
          },
          {
            "duration": 0.09090900000001056,
            "durationTicks": 96,
            "midi": 78,
            "name": "F#5",
            "ticks": 292080,
            "time": 276.5906325,
            "velocity": 0.8267716535433071
          },
          {
            "duration": 0.09090900000001056,
            "durationTicks": 96,
            "midi": 78,
            "name": "F#5",
            "ticks": 292200,
            "time": 276.70426875000004,
            "velocity": 0.8267716535433071
          },
          {
            "duration": 0.09090900000001056,
            "durationTicks": 96,
            "midi": 78,
            "name": "F#5",
            "ticks": 292320,
            "time": 276.817905,
            "velocity": 0.8267716535433071
          },
          {
            "duration": 0.09090900000001056,
            "durationTicks": 96,
            "midi": 78,
            "name": "F#5",
            "ticks": 292440,
            "time": 276.93154125,
            "velocity": 0.8267716535433071
          },
          {
            "duration": 0.09090900000001056,
            "durationTicks": 96,
            "midi": 78,
            "name": "F#5",
            "ticks": 292560,
            "time": 277.0451775,
            "velocity": 0.8267716535433071
          },
          {
            "duration": 0.09090900000001056,
            "durationTicks": 96,
            "midi": 78,
            "name": "F#5",
            "ticks": 292680,
            "time": 277.15881375000004,
            "velocity": 0.8267716535433071
          },
          {
            "duration": 0.09090900000006741,
            "durationTicks": 96,
            "midi": 79,
            "name": "G5",
            "ticks": 292800,
            "time": 277.27245,
            "velocity": 0.8267716535433071
          },
          {
            "duration": 0.09090900000001056,
            "durationTicks": 96,
            "midi": 79,
            "name": "G5",
            "ticks": 292920,
            "time": 277.38608625,
            "velocity": 0.8267716535433071
          },
          {
            "duration": 0.09090900000001056,
            "durationTicks": 96,
            "midi": 79,
            "name": "G5",
            "ticks": 293040,
            "time": 277.4997225,
            "velocity": 0.8267716535433071
          },
          {
            "duration": 0.09090900000001056,
            "durationTicks": 96,
            "midi": 79,
            "name": "G5",
            "ticks": 293160,
            "time": 277.61335875000003,
            "velocity": 0.8267716535433071
          },
          {
            "duration": 0.09090900000006741,
            "durationTicks": 96,
            "midi": 79,
            "name": "G5",
            "ticks": 293280,
            "time": 277.726995,
            "velocity": 0.8267716535433071
          },
          {
            "duration": 0.09090900000001056,
            "durationTicks": 96,
            "midi": 79,
            "name": "G5",
            "ticks": 293400,
            "time": 277.84063125,
            "velocity": 0.8267716535433071
          },
          {
            "duration": 0.09090900000001056,
            "durationTicks": 96,
            "midi": 79,
            "name": "G5",
            "ticks": 293520,
            "time": 277.9542675,
            "velocity": 0.8267716535433071
          },
          {
            "duration": 0.09090900000001056,
            "durationTicks": 96,
            "midi": 79,
            "name": "G5",
            "ticks": 293640,
            "time": 278.06790375,
            "velocity": 0.8267716535433071
          },
          {
            "duration": 0.09090900000006741,
            "durationTicks": 96,
            "midi": 78,
            "name": "F#5",
            "ticks": 293760,
            "time": 278.18154,
            "velocity": 0.8267716535433071
          },
          {
            "duration": 0.09090900000001056,
            "durationTicks": 96,
            "midi": 78,
            "name": "F#5",
            "ticks": 293880,
            "time": 278.29517625,
            "velocity": 0.8267716535433071
          },
          {
            "duration": 0.09090900000001056,
            "durationTicks": 96,
            "midi": 78,
            "name": "F#5",
            "ticks": 294000,
            "time": 278.4088125,
            "velocity": 0.8267716535433071
          },
          {
            "duration": 0.09090900000001056,
            "durationTicks": 96,
            "midi": 78,
            "name": "F#5",
            "ticks": 294120,
            "time": 278.52244875,
            "velocity": 0.8267716535433071
          },
          {
            "duration": 0.09090900000001056,
            "durationTicks": 96,
            "midi": 79,
            "name": "G5",
            "ticks": 294240,
            "time": 278.63608500000004,
            "velocity": 0.8267716535433071
          },
          {
            "duration": 0.09090900000006741,
            "durationTicks": 96,
            "midi": 79,
            "name": "G5",
            "ticks": 294360,
            "time": 278.74972125,
            "velocity": 0.8267716535433071
          },
          {
            "duration": 0.09090900000001056,
            "durationTicks": 96,
            "midi": 79,
            "name": "G5",
            "ticks": 294480,
            "time": 278.8633575,
            "velocity": 0.8267716535433071
          },
          {
            "duration": 0.09090900000001056,
            "durationTicks": 96,
            "midi": 79,
            "name": "G5",
            "ticks": 294600,
            "time": 278.97699375,
            "velocity": 0.8267716535433071
          },
          {
            "duration": 0.09090900000001056,
            "durationTicks": 96,
            "midi": 78,
            "name": "F#5",
            "ticks": 294720,
            "time": 279.09063000000003,
            "velocity": 0.8267716535433071
          },
          {
            "duration": 0.09090900000006741,
            "durationTicks": 96,
            "midi": 78,
            "name": "F#5",
            "ticks": 294840,
            "time": 279.20426625,
            "velocity": 0.8267716535433071
          },
          {
            "duration": 0.09090900000001056,
            "durationTicks": 96,
            "midi": 78,
            "name": "F#5",
            "ticks": 294960,
            "time": 279.3179025,
            "velocity": 0.8267716535433071
          },
          {
            "duration": 0.09090900000001056,
            "durationTicks": 96,
            "midi": 78,
            "name": "F#5",
            "ticks": 295080,
            "time": 279.43153875,
            "velocity": 0.8267716535433071
          },
          {
            "duration": 0.09090900000001056,
            "durationTicks": 96,
            "midi": 79,
            "name": "G5",
            "ticks": 295200,
            "time": 279.54517500000003,
            "velocity": 0.8267716535433071
          },
          {
            "duration": 0.09090900000006741,
            "durationTicks": 96,
            "midi": 79,
            "name": "G5",
            "ticks": 295320,
            "time": 279.65881125,
            "velocity": 0.8267716535433071
          },
          {
            "duration": 0.09090900000001056,
            "durationTicks": 96,
            "midi": 79,
            "name": "G5",
            "ticks": 295440,
            "time": 279.7724475,
            "velocity": 0.8267716535433071
          },
          {
            "duration": 0.09090900000001056,
            "durationTicks": 96,
            "midi": 79,
            "name": "G5",
            "ticks": 295560,
            "time": 279.88608375,
            "velocity": 0.8267716535433071
          },
          {
            "duration": 0.14772712500001717,
            "durationTicks": 156,
            "midi": 78,
            "name": "F#5",
            "ticks": 295680,
            "time": 279.99972,
            "velocity": 0.8267716535433071
          },
          {
            "duration": 0.14772712500001717,
            "durationTicks": 156,
            "midi": 62,
            "name": "D4",
            "ticks": 295920,
            "time": 280.2269925,
            "velocity": 0.6377952755905512
          },
          {
            "duration": 0.14772712500001717,
            "durationTicks": 156,
            "midi": 62,
            "name": "D4",
            "ticks": 296160,
            "time": 280.454265,
            "velocity": 0.6377952755905512
          },
          {
            "duration": 0.14772712500001717,
            "durationTicks": 156,
            "midi": 62,
            "name": "D4",
            "ticks": 296400,
            "time": 280.6815375,
            "velocity": 0.6377952755905512
          },
          {
            "duration": 0.3636359999999854,
            "durationTicks": 384,
            "midi": 62,
            "name": "D4",
            "ticks": 296640,
            "time": 280.90881,
            "velocity": 0.6377952755905512
          },
          {
            "duration": 0.6818175000000224,
            "durationTicks": 720,
            "midi": 62,
            "name": "D4",
            "ticks": 297600,
            "time": 281.8179,
            "velocity": 0.4566929133858268
          },
          {
            "duration": 0.07575749999995196,
            "durationTicks": 80,
            "midi": 60,
            "name": "C4",
            "ticks": 298320,
            "time": 282.49971750000003,
            "velocity": 0.4566929133858268
          },
          {
            "duration": 0.07575749999995196,
            "durationTicks": 80,
            "midi": 59,
            "name": "B3",
            "ticks": 298380,
            "time": 282.55653562500004,
            "velocity": 0.4566929133858268
          },
          {
            "duration": 0.0757575000000088,
            "durationTicks": 80,
            "midi": 57,
            "name": "A3",
            "ticks": 298500,
            "time": 282.670171875,
            "velocity": 0.4566929133858268
          },
          {
            "duration": 0.18181800000002113,
            "durationTicks": 192,
            "midi": 55,
            "name": "G3",
            "ticks": 298560,
            "time": 282.72699,
            "velocity": 0.4566929133858268
          },
          {
            "duration": 0.18181800000002113,
            "durationTicks": 192,
            "midi": 64,
            "name": "E4",
            "ticks": 299040,
            "time": 283.181535,
            "velocity": 0.4566929133858268
          },
          {
            "duration": 0.18181800000002113,
            "durationTicks": 192,
            "midi": 60,
            "name": "C4",
            "ticks": 299520,
            "time": 283.63608,
            "velocity": 0.4566929133858268
          },
          {
            "duration": 0.18181800000002113,
            "durationTicks": 192,
            "midi": 57,
            "name": "A3",
            "ticks": 300000,
            "time": 284.090625,
            "velocity": 0.4566929133858268
          },
          {
            "duration": 0.18181800000002113,
            "durationTicks": 192,
            "midi": 62,
            "name": "D4",
            "ticks": 300480,
            "time": 284.54517,
            "velocity": 0.4566929133858268
          },
          {
            "duration": 0.6818174999999655,
            "durationTicks": 720,
            "midi": 71,
            "name": "B4",
            "ticks": 301440,
            "time": 285.45426000000003,
            "velocity": 0.4566929133858268
          },
          {
            "duration": 0.0757575000000088,
            "durationTicks": 80,
            "midi": 69,
            "name": "A4",
            "ticks": 302160,
            "time": 286.1360775,
            "velocity": 0.4566929133858268
          },
          {
            "duration": 0.0757575000000088,
            "durationTicks": 80,
            "midi": 67,
            "name": "G4",
            "ticks": 302220,
            "time": 286.192895625,
            "velocity": 0.4566929133858268
          },
          {
            "duration": 0.07575749999995196,
            "durationTicks": 80,
            "midi": 66,
            "name": "F#4",
            "ticks": 302340,
            "time": 286.306531875,
            "velocity": 0.4566929133858268
          },
          {
            "duration": 0.18181799999996429,
            "durationTicks": 192,
            "midi": 64,
            "name": "E4",
            "ticks": 302400,
            "time": 286.36335,
            "velocity": 0.4566929133858268
          },
          {
            "duration": 0.18181799999996429,
            "durationTicks": 192,
            "midi": 72,
            "name": "C5",
            "ticks": 302880,
            "time": 286.817895,
            "velocity": 0.4566929133858268
          },
          {
            "duration": 0.909089999999992,
            "durationTicks": 960,
            "midi": 71,
            "name": "B4",
            "ticks": 303360,
            "time": 287.27244,
            "velocity": 0.4566929133858268
          },
          {
            "duration": 0.3636359999999854,
            "durationTicks": 384,
            "midi": 69,
            "name": "A4",
            "ticks": 304320,
            "time": 288.18153,
            "velocity": 0.4566929133858268
          },
          {
            "duration": 0.6818175000000224,
            "durationTicks": 720,
            "midi": 74,
            "name": "D5",
            "ticks": 305280,
            "time": 289.09062,
            "velocity": 0.5669291338582677
          },
          {
            "duration": 0.07575749999995196,
            "durationTicks": 80,
            "midi": 72,
            "name": "C5",
            "ticks": 306000,
            "time": 289.7724375,
            "velocity": 0.5669291338582677
          },
          {
            "duration": 0.07575749999995196,
            "durationTicks": 80,
            "midi": 71,
            "name": "B4",
            "ticks": 306060,
            "time": 289.82925562500003,
            "velocity": 0.5669291338582677
          },
          {
            "duration": 0.0757575000000088,
            "durationTicks": 80,
            "midi": 69,
            "name": "A4",
            "ticks": 306180,
            "time": 289.942891875,
            "velocity": 0.5669291338582677
          },
          {
            "duration": 0.18181800000002113,
            "durationTicks": 192,
            "midi": 67,
            "name": "G4",
            "ticks": 306240,
            "time": 289.99971,
            "velocity": 0.5669291338582677
          },
          {
            "duration": 0.18181800000002113,
            "durationTicks": 192,
            "midi": 76,
            "name": "E5",
            "ticks": 306720,
            "time": 290.454255,
            "velocity": 0.5669291338582677
          },
          {
            "duration": 0.18181800000002113,
            "durationTicks": 192,
            "midi": 72,
            "name": "C5",
            "ticks": 307200,
            "time": 290.9088,
            "velocity": 0.5669291338582677
          },
          {
            "duration": 0.18181799999996429,
            "durationTicks": 192,
            "midi": 69,
            "name": "A4",
            "ticks": 307680,
            "time": 291.36334500000004,
            "velocity": 0.5669291338582677
          },
          {
            "duration": 0.18181799999996429,
            "durationTicks": 192,
            "midi": 74,
            "name": "D5",
            "ticks": 308160,
            "time": 291.81789000000003,
            "velocity": 0.5669291338582677
          },
          {
            "duration": 0.18181800000002113,
            "durationTicks": 192,
            "midi": 72,
            "name": "C5",
            "ticks": 308880,
            "time": 292.4997075,
            "velocity": 0.5669291338582677
          },
          {
            "duration": 0.22727249999996957,
            "durationTicks": 240,
            "midi": 72,
            "name": "C5",
            "ticks": 309120,
            "time": 292.72698,
            "velocity": 0.5669291338582677
          },
          {
            "duration": 0.18181800000002113,
            "durationTicks": 192,
            "midi": 71,
            "name": "B4",
            "ticks": 309360,
            "time": 292.9542525,
            "velocity": 0.5669291338582677
          },
          {
            "duration": 0.13636350000001585,
            "durationTicks": 144,
            "midi": 72,
            "name": "C5",
            "ticks": 309840,
            "time": 293.4087975,
            "velocity": 0.5669291338582677
          },
          {
            "duration": 0.22727249999996957,
            "durationTicks": 240,
            "midi": 72,
            "name": "C5",
            "ticks": 310080,
            "time": 293.63607,
            "velocity": 0.5669291338582677
          },
          {
            "duration": 0.18181800000002113,
            "durationTicks": 192,
            "midi": 71,
            "name": "B4",
            "ticks": 310320,
            "time": 293.8633425,
            "velocity": 0.5669291338582677
          },
          {
            "duration": 0.136363499999959,
            "durationTicks": 144,
            "midi": 60,
            "name": "C4",
            "ticks": 310800,
            "time": 294.31788750000004,
            "velocity": 0.5669291338582677
          },
          {
            "duration": 0.14772712500001717,
            "durationTicks": 156,
            "midi": 59,
            "name": "B3",
            "ticks": 311040,
            "time": 294.54516,
            "velocity": 0.4566929133858268
          },
          {
            "duration": 0.14772712500001717,
            "durationTicks": 156,
            "midi": 59,
            "name": "B3",
            "ticks": 311280,
            "time": 294.77243250000004,
            "velocity": 0.4566929133858268
          },
          {
            "duration": 0.14772712500001717,
            "durationTicks": 156,
            "midi": 60,
            "name": "C4",
            "ticks": 311520,
            "time": 294.999705,
            "velocity": 0.4566929133858268
          },
          {
            "duration": 0.14772712500001717,
            "durationTicks": 156,
            "midi": 60,
            "name": "C4",
            "ticks": 311760,
            "time": 295.22697750000003,
            "velocity": 0.4566929133858268
          },
          {
            "duration": 0.14772712500001717,
            "durationTicks": 156,
            "midi": 62,
            "name": "D4",
            "ticks": 312000,
            "time": 295.45425,
            "velocity": 0.4566929133858268
          },
          {
            "duration": 0.14772712500001717,
            "durationTicks": 156,
            "midi": 62,
            "name": "D4",
            "ticks": 312240,
            "time": 295.6815225,
            "velocity": 0.4566929133858268
          },
          {
            "duration": 0.14772712500001717,
            "durationTicks": 156,
            "midi": 59,
            "name": "B3",
            "ticks": 312480,
            "time": 295.908795,
            "velocity": 0.4566929133858268
          },
          {
            "duration": 0.14772712500001717,
            "durationTicks": 156,
            "midi": 59,
            "name": "B3",
            "ticks": 312720,
            "time": 296.1360675,
            "velocity": 0.4566929133858268
          },
          {
            "duration": 0.14772712500001717,
            "durationTicks": 156,
            "midi": 57,
            "name": "A3",
            "ticks": 312960,
            "time": 296.36334,
            "velocity": 0.4566929133858268
          },
          {
            "duration": 0.14772712500001717,
            "durationTicks": 156,
            "midi": 57,
            "name": "A3",
            "ticks": 313200,
            "time": 296.5906125,
            "velocity": 0.4566929133858268
          },
          {
            "duration": 0.14772712500001717,
            "durationTicks": 156,
            "midi": 59,
            "name": "B3",
            "ticks": 313440,
            "time": 296.817885,
            "velocity": 0.4566929133858268
          },
          {
            "duration": 0.14772712500001717,
            "durationTicks": 156,
            "midi": 59,
            "name": "B3",
            "ticks": 313680,
            "time": 297.0451575,
            "velocity": 0.4566929133858268
          },
          {
            "duration": 0.147727125000074,
            "durationTicks": 156,
            "midi": 60,
            "name": "C4",
            "ticks": 313920,
            "time": 297.27243,
            "velocity": 0.4566929133858268
          },
          {
            "duration": 0.14772712500001717,
            "durationTicks": 156,
            "midi": 60,
            "name": "C4",
            "ticks": 314160,
            "time": 297.4997025,
            "velocity": 0.4566929133858268
          },
          {
            "duration": 0.14772712500001717,
            "durationTicks": 156,
            "midi": 57,
            "name": "A3",
            "ticks": 314400,
            "time": 297.72697500000004,
            "velocity": 0.4566929133858268
          },
          {
            "duration": 0.14772712500001717,
            "durationTicks": 156,
            "midi": 57,
            "name": "A3",
            "ticks": 314640,
            "time": 297.9542475,
            "velocity": 0.4566929133858268
          },
          {
            "duration": 0.14772712500001717,
            "durationTicks": 156,
            "midi": 59,
            "name": "B3",
            "ticks": 314880,
            "time": 298.18152000000003,
            "velocity": 0.4566929133858268
          },
          {
            "duration": 0.14772712500001717,
            "durationTicks": 156,
            "midi": 59,
            "name": "B3",
            "ticks": 315120,
            "time": 298.4087925,
            "velocity": 0.4566929133858268
          },
          {
            "duration": 0.14772712500001717,
            "durationTicks": 156,
            "midi": 60,
            "name": "C4",
            "ticks": 315360,
            "time": 298.63606500000003,
            "velocity": 0.4566929133858268
          },
          {
            "duration": 0.14772712500001717,
            "durationTicks": 156,
            "midi": 60,
            "name": "C4",
            "ticks": 315600,
            "time": 298.8633375,
            "velocity": 0.4566929133858268
          },
          {
            "duration": 0.14772712500001717,
            "durationTicks": 156,
            "midi": 62,
            "name": "D4",
            "ticks": 315840,
            "time": 299.09061,
            "velocity": 0.4566929133858268
          },
          {
            "duration": 0.14772712500001717,
            "durationTicks": 156,
            "midi": 62,
            "name": "D4",
            "ticks": 316080,
            "time": 299.3178825,
            "velocity": 0.4566929133858268
          },
          {
            "duration": 0.14772712500001717,
            "durationTicks": 156,
            "midi": 59,
            "name": "B3",
            "ticks": 316320,
            "time": 299.545155,
            "velocity": 0.4566929133858268
          },
          {
            "duration": 0.14772712500001717,
            "durationTicks": 156,
            "midi": 59,
            "name": "B3",
            "ticks": 316560,
            "time": 299.7724275,
            "velocity": 0.4566929133858268
          },
          {
            "duration": 0.14772712500001717,
            "durationTicks": 156,
            "midi": 57,
            "name": "A3",
            "ticks": 316800,
            "time": 299.9997,
            "velocity": 0.4566929133858268
          },
          {
            "duration": 0.147727125000074,
            "durationTicks": 156,
            "midi": 57,
            "name": "A3",
            "ticks": 317040,
            "time": 300.2269725,
            "velocity": 0.4566929133858268
          },
          {
            "duration": 0.14772712500001717,
            "durationTicks": 156,
            "midi": 59,
            "name": "B3",
            "ticks": 317280,
            "time": 300.454245,
            "velocity": 0.4566929133858268
          },
          {
            "duration": 0.14772712500001717,
            "durationTicks": 156,
            "midi": 59,
            "name": "B3",
            "ticks": 317520,
            "time": 300.68151750000004,
            "velocity": 0.4566929133858268
          },
          {
            "duration": 0.14772712500001717,
            "durationTicks": 156,
            "midi": 60,
            "name": "C4",
            "ticks": 317760,
            "time": 300.90879,
            "velocity": 0.4566929133858268
          },
          {
            "duration": 0.14772712500001717,
            "durationTicks": 156,
            "midi": 60,
            "name": "C4",
            "ticks": 318000,
            "time": 301.13606250000004,
            "velocity": 0.4566929133858268
          },
          {
            "duration": 0.14772712500001717,
            "durationTicks": 156,
            "midi": 57,
            "name": "A3",
            "ticks": 318240,
            "time": 301.363335,
            "velocity": 0.4566929133858268
          },
          {
            "duration": 0.14772712500001717,
            "durationTicks": 156,
            "midi": 57,
            "name": "A3",
            "ticks": 318480,
            "time": 301.59060750000003,
            "velocity": 0.4566929133858268
          },
          {
            "duration": 0.3636359999999854,
            "durationTicks": 384,
            "midi": 59,
            "name": "B3",
            "ticks": 318720,
            "time": 301.81788,
            "velocity": 0.4566929133858268
          },
          {
            "duration": 0.7272720000000277,
            "durationTicks": 768,
            "midi": 64,
            "name": "E4",
            "ticks": 319680,
            "time": 302.72697,
            "velocity": 0.4566929133858268
          },
          {
            "duration": 0.909089999999992,
            "durationTicks": 960,
            "midi": 71,
            "name": "B4",
            "ticks": 319680,
            "time": 302.72697,
            "velocity": 0.7244094488188977
          },
          {
            "duration": 0.3636359999999854,
            "durationTicks": 384,
            "midi": 69,
            "name": "A4",
            "ticks": 320640,
            "time": 303.63606,
            "velocity": 0.7244094488188977
          },
          {
            "duration": 0.7272719999999708,
            "durationTicks": 768,
            "midi": 62,
            "name": "D4",
            "ticks": 321600,
            "time": 304.54515000000004,
            "velocity": 0.7244094488188977
          },
          {
            "duration": 0.909089999999992,
            "durationTicks": 960,
            "midi": 69,
            "name": "A4",
            "ticks": 321600,
            "time": 304.54515000000004,
            "velocity": 0.7244094488188977
          },
          {
            "duration": 0.14772712500001717,
            "durationTicks": 156,
            "midi": 67,
            "name": "G4",
            "ticks": 322560,
            "time": 305.45424,
            "velocity": 0.7244094488188977
          },
          {
            "duration": 0.14772712500001717,
            "durationTicks": 156,
            "midi": 71,
            "name": "B4",
            "ticks": 322800,
            "time": 305.6815125,
            "velocity": 0.7244094488188977
          },
          {
            "duration": 0.14772712500001717,
            "durationTicks": 156,
            "midi": 72,
            "name": "C5",
            "ticks": 323040,
            "time": 305.908785,
            "velocity": 0.7244094488188977
          },
          {
            "duration": 0.14772712500001717,
            "durationTicks": 156,
            "midi": 74,
            "name": "D5",
            "ticks": 323280,
            "time": 306.1360575,
            "velocity": 0.7244094488188977
          },
          {
            "duration": 0.22727249999996957,
            "durationTicks": 240,
            "midi": 72,
            "name": "C5",
            "ticks": 323520,
            "time": 306.36333,
            "velocity": 0.7244094488188977
          },
          {
            "duration": 0.1136362500000132,
            "durationTicks": 120,
            "midi": 74,
            "name": "D5",
            "ticks": 323760,
            "time": 306.5906025,
            "velocity": 0.8267716535433071
          },
          {
            "duration": 0.073863562500037,
            "durationTicks": 78,
            "midi": 76,
            "name": "E5",
            "ticks": 323880,
            "time": 306.70423875,
            "velocity": 0.8267716535433071
          },
          {
            "duration": 0.14772712500001717,
            "durationTicks": 156,
            "midi": 74,
            "name": "D5",
            "ticks": 324000,
            "time": 306.817875,
            "velocity": 0.8267716535433071
          },
          {
            "duration": 0.14772712500001717,
            "durationTicks": 156,
            "midi": 72,
            "name": "C5",
            "ticks": 324240,
            "time": 307.04514750000004,
            "velocity": 0.8267716535433071
          },
          {
            "duration": 0.2272725000000264,
            "durationTicks": 240,
            "midi": 72,
            "name": "C5",
            "ticks": 324480,
            "time": 307.27242,
            "velocity": 0.8267716535433071
          },
          {
            "duration": 0.14772712500001717,
            "durationTicks": 156,
            "midi": 71,
            "name": "B4",
            "ticks": 324720,
            "time": 307.49969250000004,
            "velocity": 0.8267716535433071
          },
          {
            "duration": 0.14772712500001717,
            "durationTicks": 156,
            "midi": 67,
            "name": "G4",
            "ticks": 324960,
            "time": 307.726965,
            "velocity": 0.8267716535433071
          },
          {
            "duration": 0.14772712500001717,
            "durationTicks": 156,
            "midi": 71,
            "name": "B4",
            "ticks": 325200,
            "time": 307.95423750000003,
            "velocity": 0.8267716535433071
          },
          {
            "duration": 0.2272725000000264,
            "durationTicks": 240,
            "midi": 71,
            "name": "B4",
            "ticks": 325440,
            "time": 308.18151,
            "velocity": 0.8267716535433071
          },
          {
            "duration": 0.14772712500001717,
            "durationTicks": 156,
            "midi": 69,
            "name": "A4",
            "ticks": 325680,
            "time": 308.40878250000003,
            "velocity": 0.8267716535433071
          },
          {
            "duration": 0.14772712500001717,
            "durationTicks": 156,
            "midi": 67,
            "name": "G4",
            "ticks": 325920,
            "time": 308.636055,
            "velocity": 0.8267716535433071
          },
          {
            "duration": 0.14772712500001717,
            "durationTicks": 156,
            "midi": 66,
            "name": "F#4",
            "ticks": 326160,
            "time": 308.8633275,
            "velocity": 0.8267716535433071
          },
          {
            "duration": 0.14772712500001717,
            "durationTicks": 156,
            "midi": 67,
            "name": "G4",
            "ticks": 326400,
            "time": 309.0906,
            "velocity": 0.4566929133858268
          },
          {
            "duration": 0.14772712500001717,
            "durationTicks": 156,
            "midi": 59,
            "name": "B3",
            "ticks": 326640,
            "time": 309.3178725,
            "velocity": 0.4566929133858268
          },
          {
            "duration": 0.14772712500001717,
            "durationTicks": 156,
            "midi": 60,
            "name": "C4",
            "ticks": 326880,
            "time": 309.545145,
            "velocity": 0.4566929133858268
          },
          {
            "duration": 0.14772712500001717,
            "durationTicks": 156,
            "midi": 60,
            "name": "C4",
            "ticks": 327120,
            "time": 309.7724175,
            "velocity": 0.4566929133858268
          },
          {
            "duration": 0.147727125000074,
            "durationTicks": 156,
            "midi": 62,
            "name": "D4",
            "ticks": 327360,
            "time": 309.99969,
            "velocity": 0.4566929133858268
          },
          {
            "duration": 0.14772712500001717,
            "durationTicks": 156,
            "midi": 62,
            "name": "D4",
            "ticks": 327600,
            "time": 310.2269625,
            "velocity": 0.4566929133858268
          },
          {
            "duration": 0.14772712500001717,
            "durationTicks": 156,
            "midi": 59,
            "name": "B3",
            "ticks": 327840,
            "time": 310.45423500000004,
            "velocity": 0.4566929133858268
          },
          {
            "duration": 0.14772712500001717,
            "durationTicks": 156,
            "midi": 59,
            "name": "B3",
            "ticks": 328080,
            "time": 310.6815075,
            "velocity": 0.4566929133858268
          },
          {
            "duration": 0.14772712500001717,
            "durationTicks": 156,
            "midi": 57,
            "name": "A3",
            "ticks": 328320,
            "time": 310.90878000000004,
            "velocity": 0.4566929133858268
          },
          {
            "duration": 0.14772712500001717,
            "durationTicks": 156,
            "midi": 57,
            "name": "A3",
            "ticks": 328560,
            "time": 311.1360525,
            "velocity": 0.4566929133858268
          },
          {
            "duration": 0.14772712500001717,
            "durationTicks": 156,
            "midi": 59,
            "name": "B3",
            "ticks": 328800,
            "time": 311.36332500000003,
            "velocity": 0.4566929133858268
          },
          {
            "duration": 0.14772712500001717,
            "durationTicks": 156,
            "midi": 59,
            "name": "B3",
            "ticks": 329040,
            "time": 311.5905975,
            "velocity": 0.4566929133858268
          },
          {
            "duration": 0.14772712500001717,
            "durationTicks": 156,
            "midi": 60,
            "name": "C4",
            "ticks": 329280,
            "time": 311.81787,
            "velocity": 0.4566929133858268
          },
          {
            "duration": 0.14772712500001717,
            "durationTicks": 156,
            "midi": 60,
            "name": "C4",
            "ticks": 329520,
            "time": 312.0451425,
            "velocity": 0.4566929133858268
          },
          {
            "duration": 0.14772712500001717,
            "durationTicks": 156,
            "midi": 57,
            "name": "A3",
            "ticks": 329760,
            "time": 312.272415,
            "velocity": 0.4566929133858268
          },
          {
            "duration": 0.14772712500001717,
            "durationTicks": 156,
            "midi": 57,
            "name": "A3",
            "ticks": 330000,
            "time": 312.4996875,
            "velocity": 0.4566929133858268
          },
          {
            "duration": 0.14772712500001717,
            "durationTicks": 156,
            "midi": 59,
            "name": "B3",
            "ticks": 330240,
            "time": 312.72696,
            "velocity": 0.4566929133858268
          },
          {
            "duration": 0.147727125000074,
            "durationTicks": 156,
            "midi": 71,
            "name": "B4",
            "ticks": 330480,
            "time": 312.9542325,
            "velocity": 0.4566929133858268
          },
          {
            "duration": 0.14772712500001717,
            "durationTicks": 156,
            "midi": 72,
            "name": "C5",
            "ticks": 330720,
            "time": 313.181505,
            "velocity": 0.4566929133858268
          },
          {
            "duration": 0.14772712500001717,
            "durationTicks": 156,
            "midi": 72,
            "name": "C5",
            "ticks": 330960,
            "time": 313.40877750000004,
            "velocity": 0.4566929133858268
          },
          {
            "duration": 0.14772712500001717,
            "durationTicks": 156,
            "midi": 74,
            "name": "D5",
            "ticks": 331200,
            "time": 313.63605,
            "velocity": 0.4566929133858268
          },
          {
            "duration": 0.14772712500001717,
            "durationTicks": 156,
            "midi": 74,
            "name": "D5",
            "ticks": 331440,
            "time": 313.86332250000004,
            "velocity": 0.4566929133858268
          },
          {
            "duration": 0.14772712500001717,
            "durationTicks": 156,
            "midi": 71,
            "name": "B4",
            "ticks": 331680,
            "time": 314.090595,
            "velocity": 0.4566929133858268
          },
          {
            "duration": 0.14772712500001717,
            "durationTicks": 156,
            "midi": 71,
            "name": "B4",
            "ticks": 331920,
            "time": 314.31786750000003,
            "velocity": 0.4566929133858268
          },
          {
            "duration": 0.14772712500001717,
            "durationTicks": 156,
            "midi": 69,
            "name": "A4",
            "ticks": 332160,
            "time": 314.54514,
            "velocity": 0.4566929133858268
          },
          {
            "duration": 0.14772712500001717,
            "durationTicks": 156,
            "midi": 69,
            "name": "A4",
            "ticks": 332400,
            "time": 314.77241250000003,
            "velocity": 0.4566929133858268
          },
          {
            "duration": 0.14772712500001717,
            "durationTicks": 156,
            "midi": 71,
            "name": "B4",
            "ticks": 332640,
            "time": 314.999685,
            "velocity": 0.4566929133858268
          },
          {
            "duration": 0.14772712500001717,
            "durationTicks": 156,
            "midi": 71,
            "name": "B4",
            "ticks": 332880,
            "time": 315.2269575,
            "velocity": 0.4566929133858268
          },
          {
            "duration": 0.14772712500001717,
            "durationTicks": 156,
            "midi": 72,
            "name": "C5",
            "ticks": 333120,
            "time": 315.45423,
            "velocity": 0.4566929133858268
          },
          {
            "duration": 0.14772712500001717,
            "durationTicks": 156,
            "midi": 72,
            "name": "C5",
            "ticks": 333360,
            "time": 315.6815025,
            "velocity": 0.4566929133858268
          },
          {
            "duration": 0.14772712500001717,
            "durationTicks": 156,
            "midi": 69,
            "name": "A4",
            "ticks": 333600,
            "time": 315.908775,
            "velocity": 0.4566929133858268
          },
          {
            "duration": 0.14772712500001717,
            "durationTicks": 156,
            "midi": 69,
            "name": "A4",
            "ticks": 333840,
            "time": 316.1360475,
            "velocity": 0.4566929133858268
          },
          {
            "duration": 0.3636359999999854,
            "durationTicks": 384,
            "midi": 71,
            "name": "B4",
            "ticks": 334080,
            "time": 316.36332,
            "velocity": 0.4566929133858268
          },
          {
            "duration": 0.909089999999992,
            "durationTicks": 960,
            "midi": 83,
            "name": "B5",
            "ticks": 335040,
            "time": 317.27241000000004,
            "velocity": 0.8267716535433071
          },
          {
            "duration": 0.3636359999999854,
            "durationTicks": 384,
            "midi": 81,
            "name": "A5",
            "ticks": 336000,
            "time": 318.1815,
            "velocity": 0.8267716535433071
          },
          {
            "duration": 0.909089999999992,
            "durationTicks": 960,
            "midi": 81,
            "name": "A5",
            "ticks": 336960,
            "time": 319.09059,
            "velocity": 0.8267716535433071
          },
          {
            "duration": 0.14772712500001717,
            "durationTicks": 156,
            "midi": 79,
            "name": "G5",
            "ticks": 337920,
            "time": 319.99968,
            "velocity": 0.8267716535433071
          },
          {
            "duration": 0.14772712500001717,
            "durationTicks": 156,
            "midi": 71,
            "name": "B4",
            "ticks": 338160,
            "time": 320.22695250000004,
            "velocity": 0.8267716535433071
          },
          {
            "duration": 0.14772712500001717,
            "durationTicks": 156,
            "midi": 72,
            "name": "C5",
            "ticks": 338400,
            "time": 320.454225,
            "velocity": 0.8267716535433071
          },
          {
            "duration": 0.14772712500001717,
            "durationTicks": 156,
            "midi": 74,
            "name": "D5",
            "ticks": 338640,
            "time": 320.68149750000003,
            "velocity": 0.8267716535433071
          },
          {
            "duration": 0.2272725000000264,
            "durationTicks": 240,
            "midi": 72,
            "name": "C5",
            "ticks": 338880,
            "time": 320.90877,
            "velocity": 0.8267716535433071
          },
          {
            "duration": 0.11363624999995636,
            "durationTicks": 120,
            "midi": 74,
            "name": "D5",
            "ticks": 339120,
            "time": 321.13604250000003,
            "velocity": 0.8267716535433071
          },
          {
            "duration": 0.073863562500037,
            "durationTicks": 78,
            "midi": 76,
            "name": "E5",
            "ticks": 339240,
            "time": 321.24967875,
            "velocity": 0.8267716535433071
          },
          {
            "duration": 0.14772712500001717,
            "durationTicks": 156,
            "midi": 74,
            "name": "D5",
            "ticks": 339360,
            "time": 321.363315,
            "velocity": 0.8267716535433071
          },
          {
            "duration": 0.14772712500001717,
            "durationTicks": 156,
            "midi": 72,
            "name": "C5",
            "ticks": 339600,
            "time": 321.5905875,
            "velocity": 0.8267716535433071
          },
          {
            "duration": 0.2272725000000264,
            "durationTicks": 240,
            "midi": 71,
            "name": "B4",
            "ticks": 339840,
            "time": 321.81786,
            "velocity": 0.8267716535433071
          },
          {
            "duration": 0.14772712500001717,
            "durationTicks": 156,
            "midi": 74,
            "name": "D5",
            "ticks": 340080,
            "time": 322.0451325,
            "velocity": 0.8267716535433071
          },
          {
            "duration": 0.14772712500001717,
            "durationTicks": 156,
            "midi": 79,
            "name": "G5",
            "ticks": 340320,
            "time": 322.272405,
            "velocity": 0.8267716535433071
          },
          {
            "duration": 0.14772712500001717,
            "durationTicks": 156,
            "midi": 83,
            "name": "B5",
            "ticks": 340560,
            "time": 322.4996775,
            "velocity": 0.8267716535433071
          },
          {
            "duration": 0.2272725000000264,
            "durationTicks": 240,
            "midi": 83,
            "name": "B5",
            "ticks": 340800,
            "time": 322.72695,
            "velocity": 0.8267716535433071
          },
          {
            "duration": 0.14772712500001717,
            "durationTicks": 156,
            "midi": 81,
            "name": "A5",
            "ticks": 341040,
            "time": 322.9542225,
            "velocity": 0.8267716535433071
          },
          {
            "duration": 0.14772712500001717,
            "durationTicks": 156,
            "midi": 79,
            "name": "G5",
            "ticks": 341280,
            "time": 323.18149500000004,
            "velocity": 0.8267716535433071
          },
          {
            "duration": 0.14772712500001717,
            "durationTicks": 156,
            "midi": 78,
            "name": "F#5",
            "ticks": 341520,
            "time": 323.4087675,
            "velocity": 0.8267716535433071
          },
          {
            "duration": 0.14772712500001717,
            "durationTicks": 156,
            "midi": 79,
            "name": "G5",
            "ticks": 341760,
            "time": 323.63604000000004,
            "velocity": 0.7244094488188977
          },
          {
            "duration": 0.14772712500001717,
            "durationTicks": 156,
            "midi": 62,
            "name": "D4",
            "ticks": 342000,
            "time": 323.8633125,
            "velocity": 0.7244094488188977
          },
          {
            "duration": 0.14772712500001717,
            "durationTicks": 156,
            "midi": 64,
            "name": "E4",
            "ticks": 342240,
            "time": 324.09058500000003,
            "velocity": 0.7244094488188977
          },
          {
            "duration": 0.14772712500001717,
            "durationTicks": 156,
            "midi": 66,
            "name": "F#4",
            "ticks": 342480,
            "time": 324.3178575,
            "velocity": 0.7244094488188977
          },
          {
            "duration": 0.14772712500001717,
            "durationTicks": 156,
            "midi": 67,
            "name": "G4",
            "ticks": 342720,
            "time": 324.54513000000003,
            "velocity": 0.7244094488188977
          },
          {
            "duration": 0.14772712500001717,
            "durationTicks": 156,
            "midi": 67,
            "name": "G4",
            "ticks": 342960,
            "time": 324.7724025,
            "velocity": 0.7244094488188977
          },
          {
            "duration": 0.04545450000000528,
            "durationTicks": 48,
            "midi": 71,
            "name": "B4",
            "ticks": 343200,
            "time": 324.999675,
            "velocity": 0.7244094488188977
          },
          {
            "duration": 0.0568181250000066,
            "durationTicks": 60,
            "midi": 69,
            "name": "A4",
            "ticks": 343260,
            "time": 325.05649312500003,
            "velocity": 0.7244094488188977
          },
          {
            "duration": 0.05681812499994976,
            "durationTicks": 60,
            "midi": 71,
            "name": "B4",
            "ticks": 343320,
            "time": 325.11331125000004,
            "velocity": 0.7244094488188977
          },
          {
            "duration": 0.0568181250000066,
            "durationTicks": 60,
            "midi": 69,
            "name": "A4",
            "ticks": 343380,
            "time": 325.170129375,
            "velocity": 0.7244094488188977
          },
          {
            "duration": 0.1136362500000132,
            "durationTicks": 120,
            "midi": 67,
            "name": "G4",
            "ticks": 343440,
            "time": 325.2269475,
            "velocity": 0.7244094488188977
          },
          {
            "duration": 0.1136362500000132,
            "durationTicks": 120,
            "midi": 69,
            "name": "A4",
            "ticks": 343560,
            "time": 325.34058375,
            "velocity": 0.7244094488188977
          },
          {
            "duration": 0.14772712500001717,
            "durationTicks": 156,
            "midi": 71,
            "name": "B4",
            "ticks": 343680,
            "time": 325.45422,
            "velocity": 0.7244094488188977
          },
          {
            "duration": 0.14772712500001717,
            "durationTicks": 156,
            "midi": 66,
            "name": "F#4",
            "ticks": 343920,
            "time": 325.6814925,
            "velocity": 0.7244094488188977
          },
          {
            "duration": 0.14772712500001717,
            "durationTicks": 156,
            "midi": 67,
            "name": "G4",
            "ticks": 344160,
            "time": 325.908765,
            "velocity": 0.7244094488188977
          },
          {
            "duration": 0.14772712500001717,
            "durationTicks": 156,
            "midi": 69,
            "name": "A4",
            "ticks": 344400,
            "time": 326.13603750000004,
            "velocity": 0.7244094488188977
          },
          {
            "duration": 0.14772712500001717,
            "durationTicks": 156,
            "midi": 71,
            "name": "B4",
            "ticks": 344640,
            "time": 326.36331,
            "velocity": 0.7244094488188977
          },
          {
            "duration": 0.14772712500001717,
            "durationTicks": 156,
            "midi": 71,
            "name": "B4",
            "ticks": 344880,
            "time": 326.59058250000004,
            "velocity": 0.7244094488188977
          },
          {
            "duration": 0.0568181250000066,
            "durationTicks": 60,
            "midi": 74,
            "name": "D5",
            "ticks": 345120,
            "time": 326.817855,
            "velocity": 0.7244094488188977
          },
          {
            "duration": 0.0568181250000066,
            "durationTicks": 60,
            "midi": 72,
            "name": "C5",
            "ticks": 345180,
            "time": 326.874673125,
            "velocity": 0.7244094488188977
          },
          {
            "duration": 0.0568181250000066,
            "durationTicks": 60,
            "midi": 74,
            "name": "D5",
            "ticks": 345240,
            "time": 326.93149125,
            "velocity": 0.7244094488188977
          },
          {
            "duration": 0.0568181250000066,
            "durationTicks": 60,
            "midi": 72,
            "name": "C5",
            "ticks": 345300,
            "time": 326.98830937500003,
            "velocity": 0.7244094488188977
          },
          {
            "duration": 0.11363624999995636,
            "durationTicks": 120,
            "midi": 71,
            "name": "B4",
            "ticks": 345360,
            "time": 327.04512750000004,
            "velocity": 0.7244094488188977
          },
          {
            "duration": 0.1136362500000132,
            "durationTicks": 120,
            "midi": 72,
            "name": "C5",
            "ticks": 345480,
            "time": 327.15876375,
            "velocity": 0.7244094488188977
          },
          {
            "duration": 0.14772712500001717,
            "durationTicks": 156,
            "midi": 74,
            "name": "D5",
            "ticks": 345600,
            "time": 327.2724,
            "velocity": 0.7244094488188977
          },
          {
            "duration": 0.14772712500001717,
            "durationTicks": 156,
            "midi": 74,
            "name": "D5",
            "ticks": 345840,
            "time": 327.49967250000003,
            "velocity": 0.7244094488188977
          },
          {
            "duration": 0.0568181250000066,
            "durationTicks": 60,
            "midi": 76,
            "name": "E5",
            "ticks": 346080,
            "time": 327.726945,
            "velocity": 0.7244094488188977
          },
          {
            "duration": 0.0568181250000066,
            "durationTicks": 60,
            "midi": 75,
            "name": "D#5",
            "ticks": 346140,
            "time": 327.783763125,
            "velocity": 0.7244094488188977
          },
          {
            "duration": 0.0568181250000066,
            "durationTicks": 60,
            "midi": 76,
            "name": "E5",
            "ticks": 346200,
            "time": 327.84058125,
            "velocity": 0.7244094488188977
          },
          {
            "duration": 0.0568181250000066,
            "durationTicks": 60,
            "midi": 75,
            "name": "D#5",
            "ticks": 346260,
            "time": 327.897399375,
            "velocity": 0.7244094488188977
          },
          {
            "duration": 0.1136362500000132,
            "durationTicks": 120,
            "midi": 73,
            "name": "C#5",
            "ticks": 346320,
            "time": 327.9542175,
            "velocity": 0.7244094488188977
          },
          {
            "duration": 0.11363624999995636,
            "durationTicks": 120,
            "midi": 75,
            "name": "D#5",
            "ticks": 346440,
            "time": 328.06785375000004,
            "velocity": 0.7244094488188977
          },
          {
            "duration": 0.3636359999999854,
            "durationTicks": 384,
            "midi": 76,
            "name": "E5",
            "ticks": 346560,
            "time": 328.18149,
            "velocity": 0.7244094488188977
          },
          {
            "duration": 1.8181800000000408,
            "durationTicks": 1920,
            "midi": 60,
            "name": "C4",
            "ticks": 347520,
            "time": 329.09058,
            "velocity": 0.4566929133858268
          },
          {
            "duration": 0.3636359999999854,
            "durationTicks": 384,
            "midi": 59,
            "name": "B3",
            "ticks": 349440,
            "time": 330.90876000000003,
            "velocity": 0.4566929133858268
          },
          {
            "duration": 1.818179999999984,
            "durationTicks": 1920,
            "midi": 60,
            "name": "C4",
            "ticks": 351360,
            "time": 332.72694,
            "velocity": 0.4566929133858268
          },
          {
            "duration": 0.3636359999999854,
            "durationTicks": 384,
            "midi": 59,
            "name": "B3",
            "ticks": 353280,
            "time": 334.54512,
            "velocity": 0.4566929133858268
          },
          {
            "duration": 0.3636359999999854,
            "durationTicks": 384,
            "midi": 71,
            "name": "B4",
            "ticks": 354240,
            "time": 335.45421,
            "velocity": 0.4566929133858268
          },
          {
            "duration": 0.3636359999999854,
            "durationTicks": 384,
            "midi": 76,
            "name": "E5",
            "ticks": 355200,
            "time": 336.36330000000004,
            "velocity": 0.4566929133858268
          },
          {
            "duration": 0.3636359999999854,
            "durationTicks": 384,
            "midi": 69,
            "name": "A4",
            "ticks": 356160,
            "time": 337.27239000000003,
            "velocity": 0.8267716535433071
          },
          {
            "duration": 0.3636359999999854,
            "durationTicks": 384,
            "midi": 78,
            "name": "F#5",
            "ticks": 356160,
            "time": 337.27239000000003,
            "velocity": 0.8267716535433071
          },
          {
            "duration": 0.09090900000001056,
            "durationTicks": 96,
            "midi": 59,
            "name": "B3",
            "ticks": 357120,
            "time": 338.18148,
            "velocity": 0.8267716535433071
          },
          {
            "duration": 0.09090900000001056,
            "durationTicks": 96,
            "midi": 62,
            "name": "D4",
            "ticks": 357120,
            "time": 338.18148,
            "velocity": 0.8267716535433071
          },
          {
            "duration": 0.09090900000001056,
            "durationTicks": 96,
            "midi": 59,
            "name": "B3",
            "ticks": 357240,
            "time": 338.29511625000004,
            "velocity": 0.8267716535433071
          },
          {
            "duration": 0.09090900000001056,
            "durationTicks": 96,
            "midi": 62,
            "name": "D4",
            "ticks": 357240,
            "time": 338.29511625000004,
            "velocity": 0.8267716535433071
          },
          {
            "duration": 0.09090900000006741,
            "durationTicks": 96,
            "midi": 59,
            "name": "B3",
            "ticks": 357360,
            "time": 338.4087525,
            "velocity": 0.8267716535433071
          },
          {
            "duration": 0.09090900000006741,
            "durationTicks": 96,
            "midi": 62,
            "name": "D4",
            "ticks": 357360,
            "time": 338.4087525,
            "velocity": 0.8267716535433071
          },
          {
            "duration": 0.09090900000001056,
            "durationTicks": 96,
            "midi": 59,
            "name": "B3",
            "ticks": 357480,
            "time": 338.52238875,
            "velocity": 0.8267716535433071
          },
          {
            "duration": 0.09090900000001056,
            "durationTicks": 96,
            "midi": 62,
            "name": "D4",
            "ticks": 357480,
            "time": 338.52238875,
            "velocity": 0.8267716535433071
          },
          {
            "duration": 0.09090900000001056,
            "durationTicks": 96,
            "midi": 59,
            "name": "B3",
            "ticks": 357600,
            "time": 338.636025,
            "velocity": 0.8267716535433071
          },
          {
            "duration": 0.09090900000001056,
            "durationTicks": 96,
            "midi": 62,
            "name": "D4",
            "ticks": 357600,
            "time": 338.636025,
            "velocity": 0.8267716535433071
          },
          {
            "duration": 0.09090900000001056,
            "durationTicks": 96,
            "midi": 59,
            "name": "B3",
            "ticks": 357720,
            "time": 338.74966125000003,
            "velocity": 0.8267716535433071
          },
          {
            "duration": 0.09090900000001056,
            "durationTicks": 96,
            "midi": 62,
            "name": "D4",
            "ticks": 357720,
            "time": 338.74966125000003,
            "velocity": 0.8267716535433071
          },
          {
            "duration": 0.09090900000001056,
            "durationTicks": 96,
            "midi": 59,
            "name": "B3",
            "ticks": 357840,
            "time": 338.86329750000004,
            "velocity": 0.8267716535433071
          },
          {
            "duration": 0.09090900000001056,
            "durationTicks": 96,
            "midi": 62,
            "name": "D4",
            "ticks": 357840,
            "time": 338.86329750000004,
            "velocity": 0.8267716535433071
          },
          {
            "duration": 0.09090900000001056,
            "durationTicks": 96,
            "midi": 59,
            "name": "B3",
            "ticks": 357960,
            "time": 338.97693375,
            "velocity": 0.8267716535433071
          },
          {
            "duration": 0.09090900000001056,
            "durationTicks": 96,
            "midi": 62,
            "name": "D4",
            "ticks": 357960,
            "time": 338.97693375,
            "velocity": 0.8267716535433071
          },
          {
            "duration": 0.09090900000001056,
            "durationTicks": 96,
            "midi": 59,
            "name": "B3",
            "ticks": 358080,
            "time": 339.09057,
            "velocity": 0.8267716535433071
          },
          {
            "duration": 0.09090900000001056,
            "durationTicks": 96,
            "midi": 62,
            "name": "D4",
            "ticks": 358080,
            "time": 339.09057,
            "velocity": 0.8267716535433071
          },
          {
            "duration": 0.09090900000001056,
            "durationTicks": 96,
            "midi": 59,
            "name": "B3",
            "ticks": 358200,
            "time": 339.20420625,
            "velocity": 0.8267716535433071
          },
          {
            "duration": 0.09090900000001056,
            "durationTicks": 96,
            "midi": 62,
            "name": "D4",
            "ticks": 358200,
            "time": 339.20420625,
            "velocity": 0.8267716535433071
          },
          {
            "duration": 0.09090900000001056,
            "durationTicks": 96,
            "midi": 59,
            "name": "B3",
            "ticks": 358320,
            "time": 339.31784250000004,
            "velocity": 0.8267716535433071
          },
          {
            "duration": 0.09090900000001056,
            "durationTicks": 96,
            "midi": 62,
            "name": "D4",
            "ticks": 358320,
            "time": 339.31784250000004,
            "velocity": 0.8267716535433071
          },
          {
            "duration": 0.09090900000006741,
            "durationTicks": 96,
            "midi": 59,
            "name": "B3",
            "ticks": 358440,
            "time": 339.43147875,
            "velocity": 0.8267716535433071
          },
          {
            "duration": 0.09090900000006741,
            "durationTicks": 96,
            "midi": 62,
            "name": "D4",
            "ticks": 358440,
            "time": 339.43147875,
            "velocity": 0.8267716535433071
          },
          {
            "duration": 0.09090900000001056,
            "durationTicks": 96,
            "midi": 59,
            "name": "B3",
            "ticks": 358560,
            "time": 339.545115,
            "velocity": 0.8267716535433071
          },
          {
            "duration": 0.09090900000001056,
            "durationTicks": 96,
            "midi": 62,
            "name": "D4",
            "ticks": 358560,
            "time": 339.545115,
            "velocity": 0.8267716535433071
          },
          {
            "duration": 0.09090900000001056,
            "durationTicks": 96,
            "midi": 59,
            "name": "B3",
            "ticks": 358680,
            "time": 339.65875125,
            "velocity": 0.8267716535433071
          },
          {
            "duration": 0.09090900000001056,
            "durationTicks": 96,
            "midi": 62,
            "name": "D4",
            "ticks": 358680,
            "time": 339.65875125,
            "velocity": 0.8267716535433071
          },
          {
            "duration": 0.09090900000001056,
            "durationTicks": 96,
            "midi": 59,
            "name": "B3",
            "ticks": 358800,
            "time": 339.77238750000004,
            "velocity": 0.8267716535433071
          },
          {
            "duration": 0.09090900000001056,
            "durationTicks": 96,
            "midi": 62,
            "name": "D4",
            "ticks": 358800,
            "time": 339.77238750000004,
            "velocity": 0.8267716535433071
          },
          {
            "duration": 0.09090900000006741,
            "durationTicks": 96,
            "midi": 59,
            "name": "B3",
            "ticks": 358920,
            "time": 339.88602375,
            "velocity": 0.8267716535433071
          },
          {
            "duration": 0.09090900000006741,
            "durationTicks": 96,
            "midi": 62,
            "name": "D4",
            "ticks": 358920,
            "time": 339.88602375,
            "velocity": 0.8267716535433071
          },
          {
            "duration": 0.09090900000001056,
            "durationTicks": 96,
            "midi": 59,
            "name": "B3",
            "ticks": 359040,
            "time": 339.99966,
            "velocity": 0.8267716535433071
          },
          {
            "duration": 0.09090900000001056,
            "durationTicks": 96,
            "midi": 62,
            "name": "D4",
            "ticks": 359040,
            "time": 339.99966,
            "velocity": 0.8267716535433071
          },
          {
            "duration": 0.09090900000001056,
            "durationTicks": 96,
            "midi": 59,
            "name": "B3",
            "ticks": 359160,
            "time": 340.11329625,
            "velocity": 0.8267716535433071
          },
          {
            "duration": 0.09090900000001056,
            "durationTicks": 96,
            "midi": 62,
            "name": "D4",
            "ticks": 359160,
            "time": 340.11329625,
            "velocity": 0.8267716535433071
          },
          {
            "duration": 0.09090900000001056,
            "durationTicks": 96,
            "midi": 59,
            "name": "B3",
            "ticks": 359280,
            "time": 340.22693250000003,
            "velocity": 0.8267716535433071
          },
          {
            "duration": 0.09090900000001056,
            "durationTicks": 96,
            "midi": 62,
            "name": "D4",
            "ticks": 359280,
            "time": 340.22693250000003,
            "velocity": 0.8267716535433071
          },
          {
            "duration": 0.09090900000006741,
            "durationTicks": 96,
            "midi": 59,
            "name": "B3",
            "ticks": 359400,
            "time": 340.34056875,
            "velocity": 0.8267716535433071
          },
          {
            "duration": 0.09090900000006741,
            "durationTicks": 96,
            "midi": 62,
            "name": "D4",
            "ticks": 359400,
            "time": 340.34056875,
            "velocity": 0.8267716535433071
          },
          {
            "duration": 0.09090900000001056,
            "durationTicks": 96,
            "midi": 59,
            "name": "B3",
            "ticks": 359520,
            "time": 340.454205,
            "velocity": 0.8267716535433071
          },
          {
            "duration": 0.09090900000001056,
            "durationTicks": 96,
            "midi": 62,
            "name": "D4",
            "ticks": 359520,
            "time": 340.454205,
            "velocity": 0.8267716535433071
          },
          {
            "duration": 0.09090900000001056,
            "durationTicks": 96,
            "midi": 59,
            "name": "B3",
            "ticks": 359640,
            "time": 340.56784125,
            "velocity": 0.8267716535433071
          },
          {
            "duration": 0.09090900000001056,
            "durationTicks": 96,
            "midi": 62,
            "name": "D4",
            "ticks": 359640,
            "time": 340.56784125,
            "velocity": 0.8267716535433071
          },
          {
            "duration": 0.09090900000001056,
            "durationTicks": 96,
            "midi": 59,
            "name": "B3",
            "ticks": 359760,
            "time": 340.6814775,
            "velocity": 0.8267716535433071
          },
          {
            "duration": 0.09090900000001056,
            "durationTicks": 96,
            "midi": 62,
            "name": "D4",
            "ticks": 359760,
            "time": 340.6814775,
            "velocity": 0.8267716535433071
          },
          {
            "duration": 0.09090900000001056,
            "durationTicks": 96,
            "midi": 59,
            "name": "B3",
            "ticks": 359880,
            "time": 340.79511375000004,
            "velocity": 0.8267716535433071
          },
          {
            "duration": 0.09090900000001056,
            "durationTicks": 96,
            "midi": 62,
            "name": "D4",
            "ticks": 359880,
            "time": 340.79511375000004,
            "velocity": 0.8267716535433071
          },
          {
            "duration": 0.09090900000006741,
            "durationTicks": 96,
            "midi": 59,
            "name": "B3",
            "ticks": 360000,
            "time": 340.90875,
            "velocity": 0.8267716535433071
          },
          {
            "duration": 0.09090900000006741,
            "durationTicks": 96,
            "midi": 62,
            "name": "D4",
            "ticks": 360000,
            "time": 340.90875,
            "velocity": 0.8267716535433071
          },
          {
            "duration": 0.09090900000001056,
            "durationTicks": 96,
            "midi": 59,
            "name": "B3",
            "ticks": 360120,
            "time": 341.02238625,
            "velocity": 0.8267716535433071
          },
          {
            "duration": 0.09090900000001056,
            "durationTicks": 96,
            "midi": 62,
            "name": "D4",
            "ticks": 360120,
            "time": 341.02238625,
            "velocity": 0.8267716535433071
          },
          {
            "duration": 0.09090900000001056,
            "durationTicks": 96,
            "midi": 59,
            "name": "B3",
            "ticks": 360240,
            "time": 341.1360225,
            "velocity": 0.8267716535433071
          },
          {
            "duration": 0.09090900000001056,
            "durationTicks": 96,
            "midi": 62,
            "name": "D4",
            "ticks": 360240,
            "time": 341.1360225,
            "velocity": 0.8267716535433071
          },
          {
            "duration": 0.09090900000001056,
            "durationTicks": 96,
            "midi": 59,
            "name": "B3",
            "ticks": 360360,
            "time": 341.24965875000004,
            "velocity": 0.8267716535433071
          },
          {
            "duration": 0.09090900000001056,
            "durationTicks": 96,
            "midi": 62,
            "name": "D4",
            "ticks": 360360,
            "time": 341.24965875000004,
            "velocity": 0.8267716535433071
          },
          {
            "duration": 0.09090900000006741,
            "durationTicks": 96,
            "midi": 60,
            "name": "C4",
            "ticks": 360480,
            "time": 341.363295,
            "velocity": 0.8267716535433071
          },
          {
            "duration": 0.09090900000006741,
            "durationTicks": 96,
            "midi": 62,
            "name": "D4",
            "ticks": 360480,
            "time": 341.363295,
            "velocity": 0.8267716535433071
          },
          {
            "duration": 0.09090900000001056,
            "durationTicks": 96,
            "midi": 60,
            "name": "C4",
            "ticks": 360600,
            "time": 341.47693125,
            "velocity": 0.8267716535433071
          },
          {
            "duration": 0.09090900000001056,
            "durationTicks": 96,
            "midi": 62,
            "name": "D4",
            "ticks": 360600,
            "time": 341.47693125,
            "velocity": 0.8267716535433071
          },
          {
            "duration": 0.09090900000001056,
            "durationTicks": 96,
            "midi": 60,
            "name": "C4",
            "ticks": 360720,
            "time": 341.5905675,
            "velocity": 0.8267716535433071
          },
          {
            "duration": 0.09090900000001056,
            "durationTicks": 96,
            "midi": 62,
            "name": "D4",
            "ticks": 360720,
            "time": 341.5905675,
            "velocity": 0.8267716535433071
          },
          {
            "duration": 0.09090900000001056,
            "durationTicks": 96,
            "midi": 60,
            "name": "C4",
            "ticks": 360840,
            "time": 341.70420375000003,
            "velocity": 0.8267716535433071
          },
          {
            "duration": 0.09090900000001056,
            "durationTicks": 96,
            "midi": 62,
            "name": "D4",
            "ticks": 360840,
            "time": 341.70420375000003,
            "velocity": 0.8267716535433071
          },
          {
            "duration": 0.09090900000006741,
            "durationTicks": 96,
            "midi": 59,
            "name": "B3",
            "ticks": 360960,
            "time": 341.81784,
            "velocity": 0.8267716535433071
          },
          {
            "duration": 0.09090900000006741,
            "durationTicks": 96,
            "midi": 62,
            "name": "D4",
            "ticks": 360960,
            "time": 341.81784,
            "velocity": 0.8267716535433071
          },
          {
            "duration": 0.09090900000001056,
            "durationTicks": 96,
            "midi": 59,
            "name": "B3",
            "ticks": 361080,
            "time": 341.93147625,
            "velocity": 0.8267716535433071
          },
          {
            "duration": 0.09090900000001056,
            "durationTicks": 96,
            "midi": 62,
            "name": "D4",
            "ticks": 361080,
            "time": 341.93147625,
            "velocity": 0.8267716535433071
          },
          {
            "duration": 0.09090900000001056,
            "durationTicks": 96,
            "midi": 59,
            "name": "B3",
            "ticks": 361200,
            "time": 342.0451125,
            "velocity": 0.8267716535433071
          },
          {
            "duration": 0.09090900000001056,
            "durationTicks": 96,
            "midi": 62,
            "name": "D4",
            "ticks": 361200,
            "time": 342.0451125,
            "velocity": 0.8267716535433071
          },
          {
            "duration": 0.09090900000001056,
            "durationTicks": 96,
            "midi": 59,
            "name": "B3",
            "ticks": 361320,
            "time": 342.15874875000003,
            "velocity": 0.8267716535433071
          },
          {
            "duration": 0.09090900000001056,
            "durationTicks": 96,
            "midi": 62,
            "name": "D4",
            "ticks": 361320,
            "time": 342.15874875000003,
            "velocity": 0.8267716535433071
          },
          {
            "duration": 0.09090900000001056,
            "durationTicks": 96,
            "midi": 59,
            "name": "B3",
            "ticks": 361440,
            "time": 342.27238500000004,
            "velocity": 0.8267716535433071
          },
          {
            "duration": 0.09090900000001056,
            "durationTicks": 96,
            "midi": 62,
            "name": "D4",
            "ticks": 361440,
            "time": 342.27238500000004,
            "velocity": 0.8267716535433071
          },
          {
            "duration": 0.09090900000001056,
            "durationTicks": 96,
            "midi": 59,
            "name": "B3",
            "ticks": 361560,
            "time": 342.38602125,
            "velocity": 0.8267716535433071
          },
          {
            "duration": 0.09090900000001056,
            "durationTicks": 96,
            "midi": 62,
            "name": "D4",
            "ticks": 361560,
            "time": 342.38602125,
            "velocity": 0.8267716535433071
          },
          {
            "duration": 0.09090900000001056,
            "durationTicks": 96,
            "midi": 59,
            "name": "B3",
            "ticks": 361680,
            "time": 342.4996575,
            "velocity": 0.8267716535433071
          },
          {
            "duration": 0.09090900000001056,
            "durationTicks": 96,
            "midi": 62,
            "name": "D4",
            "ticks": 361680,
            "time": 342.4996575,
            "velocity": 0.8267716535433071
          },
          {
            "duration": 0.09090900000001056,
            "durationTicks": 96,
            "midi": 59,
            "name": "B3",
            "ticks": 361800,
            "time": 342.61329375,
            "velocity": 0.8267716535433071
          },
          {
            "duration": 0.09090900000001056,
            "durationTicks": 96,
            "midi": 62,
            "name": "D4",
            "ticks": 361800,
            "time": 342.61329375,
            "velocity": 0.8267716535433071
          },
          {
            "duration": 0.09090900000001056,
            "durationTicks": 96,
            "midi": 59,
            "name": "B3",
            "ticks": 361920,
            "time": 342.72693000000004,
            "velocity": 0.8267716535433071
          },
          {
            "duration": 0.09090900000001056,
            "durationTicks": 96,
            "midi": 62,
            "name": "D4",
            "ticks": 361920,
            "time": 342.72693000000004,
            "velocity": 0.8267716535433071
          },
          {
            "duration": 0.09090900000006741,
            "durationTicks": 96,
            "midi": 59,
            "name": "B3",
            "ticks": 362040,
            "time": 342.84056625,
            "velocity": 0.8267716535433071
          },
          {
            "duration": 0.09090900000006741,
            "durationTicks": 96,
            "midi": 62,
            "name": "D4",
            "ticks": 362040,
            "time": 342.84056625,
            "velocity": 0.8267716535433071
          },
          {
            "duration": 0.09090900000001056,
            "durationTicks": 96,
            "midi": 59,
            "name": "B3",
            "ticks": 362160,
            "time": 342.9542025,
            "velocity": 0.8267716535433071
          },
          {
            "duration": 0.09090900000001056,
            "durationTicks": 96,
            "midi": 62,
            "name": "D4",
            "ticks": 362160,
            "time": 342.9542025,
            "velocity": 0.8267716535433071
          },
          {
            "duration": 0.09090900000001056,
            "durationTicks": 96,
            "midi": 59,
            "name": "B3",
            "ticks": 362280,
            "time": 343.06783875,
            "velocity": 0.8267716535433071
          },
          {
            "duration": 0.09090900000001056,
            "durationTicks": 96,
            "midi": 62,
            "name": "D4",
            "ticks": 362280,
            "time": 343.06783875,
            "velocity": 0.8267716535433071
          },
          {
            "duration": 0.09090900000001056,
            "durationTicks": 96,
            "midi": 59,
            "name": "B3",
            "ticks": 362400,
            "time": 343.18147500000003,
            "velocity": 0.8267716535433071
          },
          {
            "duration": 0.09090900000001056,
            "durationTicks": 96,
            "midi": 62,
            "name": "D4",
            "ticks": 362400,
            "time": 343.18147500000003,
            "velocity": 0.8267716535433071
          },
          {
            "duration": 0.09090900000006741,
            "durationTicks": 96,
            "midi": 59,
            "name": "B3",
            "ticks": 362520,
            "time": 343.29511125,
            "velocity": 0.8267716535433071
          },
          {
            "duration": 0.09090900000006741,
            "durationTicks": 96,
            "midi": 62,
            "name": "D4",
            "ticks": 362520,
            "time": 343.29511125,
            "velocity": 0.8267716535433071
          },
          {
            "duration": 0.09090900000001056,
            "durationTicks": 96,
            "midi": 59,
            "name": "B3",
            "ticks": 362640,
            "time": 343.4087475,
            "velocity": 0.8267716535433071
          },
          {
            "duration": 0.09090900000001056,
            "durationTicks": 96,
            "midi": 62,
            "name": "D4",
            "ticks": 362640,
            "time": 343.4087475,
            "velocity": 0.8267716535433071
          },
          {
            "duration": 0.09090900000001056,
            "durationTicks": 96,
            "midi": 59,
            "name": "B3",
            "ticks": 362760,
            "time": 343.52238375,
            "velocity": 0.8267716535433071
          },
          {
            "duration": 0.09090900000001056,
            "durationTicks": 96,
            "midi": 62,
            "name": "D4",
            "ticks": 362760,
            "time": 343.52238375,
            "velocity": 0.8267716535433071
          },
          {
            "duration": 0.09090900000001056,
            "durationTicks": 96,
            "midi": 59,
            "name": "B3",
            "ticks": 362880,
            "time": 343.63602000000003,
            "velocity": 0.8267716535433071
          },
          {
            "duration": 0.09090900000001056,
            "durationTicks": 96,
            "midi": 62,
            "name": "D4",
            "ticks": 362880,
            "time": 343.63602000000003,
            "velocity": 0.8267716535433071
          },
          {
            "duration": 0.09090900000001056,
            "durationTicks": 96,
            "midi": 59,
            "name": "B3",
            "ticks": 363000,
            "time": 343.74965625000004,
            "velocity": 0.8267716535433071
          },
          {
            "duration": 0.09090900000001056,
            "durationTicks": 96,
            "midi": 62,
            "name": "D4",
            "ticks": 363000,
            "time": 343.74965625000004,
            "velocity": 0.8267716535433071
          },
          {
            "duration": 0.09090900000001056,
            "durationTicks": 96,
            "midi": 59,
            "name": "B3",
            "ticks": 363120,
            "time": 343.8632925,
            "velocity": 0.8267716535433071
          },
          {
            "duration": 0.09090900000001056,
            "durationTicks": 96,
            "midi": 62,
            "name": "D4",
            "ticks": 363120,
            "time": 343.8632925,
            "velocity": 0.8267716535433071
          },
          {
            "duration": 0.09090900000001056,
            "durationTicks": 96,
            "midi": 59,
            "name": "B3",
            "ticks": 363240,
            "time": 343.97692875,
            "velocity": 0.8267716535433071
          },
          {
            "duration": 0.09090900000001056,
            "durationTicks": 96,
            "midi": 62,
            "name": "D4",
            "ticks": 363240,
            "time": 343.97692875,
            "velocity": 0.8267716535433071
          },
          {
            "duration": 0.09090900000001056,
            "durationTicks": 96,
            "midi": 59,
            "name": "B3",
            "ticks": 363360,
            "time": 344.090565,
            "velocity": 0.8267716535433071
          },
          {
            "duration": 0.09090900000001056,
            "durationTicks": 96,
            "midi": 62,
            "name": "D4",
            "ticks": 363360,
            "time": 344.090565,
            "velocity": 0.8267716535433071
          },
          {
            "duration": 0.09090900000001056,
            "durationTicks": 96,
            "midi": 59,
            "name": "B3",
            "ticks": 363480,
            "time": 344.20420125000004,
            "velocity": 0.8267716535433071
          },
          {
            "duration": 0.09090900000001056,
            "durationTicks": 96,
            "midi": 62,
            "name": "D4",
            "ticks": 363480,
            "time": 344.20420125000004,
            "velocity": 0.8267716535433071
          },
          {
            "duration": 0.09090900000006741,
            "durationTicks": 96,
            "midi": 59,
            "name": "B3",
            "ticks": 363600,
            "time": 344.3178375,
            "velocity": 0.8267716535433071
          },
          {
            "duration": 0.09090900000006741,
            "durationTicks": 96,
            "midi": 62,
            "name": "D4",
            "ticks": 363600,
            "time": 344.3178375,
            "velocity": 0.8267716535433071
          },
          {
            "duration": 0.09090900000001056,
            "durationTicks": 96,
            "midi": 59,
            "name": "B3",
            "ticks": 363720,
            "time": 344.43147375,
            "velocity": 0.8267716535433071
          },
          {
            "duration": 0.09090900000001056,
            "durationTicks": 96,
            "midi": 62,
            "name": "D4",
            "ticks": 363720,
            "time": 344.43147375,
            "velocity": 0.8267716535433071
          },
          {
            "duration": 0.09090900000001056,
            "durationTicks": 96,
            "midi": 59,
            "name": "B3",
            "ticks": 363840,
            "time": 344.54511,
            "velocity": 0.8267716535433071
          },
          {
            "duration": 0.09090900000001056,
            "durationTicks": 96,
            "midi": 62,
            "name": "D4",
            "ticks": 363840,
            "time": 344.54511,
            "velocity": 0.8267716535433071
          },
          {
            "duration": 0.09090900000001056,
            "durationTicks": 96,
            "midi": 59,
            "name": "B3",
            "ticks": 363960,
            "time": 344.65874625000004,
            "velocity": 0.8267716535433071
          },
          {
            "duration": 0.09090900000001056,
            "durationTicks": 96,
            "midi": 62,
            "name": "D4",
            "ticks": 363960,
            "time": 344.65874625000004,
            "velocity": 0.8267716535433071
          },
          {
            "duration": 0.09090900000006741,
            "durationTicks": 96,
            "midi": 59,
            "name": "B3",
            "ticks": 364080,
            "time": 344.7723825,
            "velocity": 0.8267716535433071
          },
          {
            "duration": 0.09090900000006741,
            "durationTicks": 96,
            "midi": 62,
            "name": "D4",
            "ticks": 364080,
            "time": 344.7723825,
            "velocity": 0.8267716535433071
          },
          {
            "duration": 0.09090900000001056,
            "durationTicks": 96,
            "midi": 59,
            "name": "B3",
            "ticks": 364200,
            "time": 344.88601875,
            "velocity": 0.8267716535433071
          },
          {
            "duration": 0.09090900000001056,
            "durationTicks": 96,
            "midi": 62,
            "name": "D4",
            "ticks": 364200,
            "time": 344.88601875,
            "velocity": 0.8267716535433071
          },
          {
            "duration": 0.09090900000001056,
            "durationTicks": 96,
            "midi": 60,
            "name": "C4",
            "ticks": 364320,
            "time": 344.999655,
            "velocity": 0.8267716535433071
          },
          {
            "duration": 0.09090900000001056,
            "durationTicks": 96,
            "midi": 62,
            "name": "D4",
            "ticks": 364320,
            "time": 344.999655,
            "velocity": 0.8267716535433071
          },
          {
            "duration": 0.09090900000001056,
            "durationTicks": 96,
            "midi": 60,
            "name": "C4",
            "ticks": 364440,
            "time": 345.11329125000003,
            "velocity": 0.8267716535433071
          },
          {
            "duration": 0.09090900000001056,
            "durationTicks": 96,
            "midi": 62,
            "name": "D4",
            "ticks": 364440,
            "time": 345.11329125000003,
            "velocity": 0.8267716535433071
          },
          {
            "duration": 0.09090900000001056,
            "durationTicks": 96,
            "midi": 60,
            "name": "C4",
            "ticks": 364560,
            "time": 345.22692750000004,
            "velocity": 0.8267716535433071
          },
          {
            "duration": 0.09090900000001056,
            "durationTicks": 96,
            "midi": 62,
            "name": "D4",
            "ticks": 364560,
            "time": 345.22692750000004,
            "velocity": 0.8267716535433071
          },
          {
            "duration": 0.09090900000001056,
            "durationTicks": 96,
            "midi": 60,
            "name": "C4",
            "ticks": 364680,
            "time": 345.34056375,
            "velocity": 0.8267716535433071
          },
          {
            "duration": 0.09090900000001056,
            "durationTicks": 96,
            "midi": 62,
            "name": "D4",
            "ticks": 364680,
            "time": 345.34056375,
            "velocity": 0.8267716535433071
          },
          {
            "duration": 0.3636359999999854,
            "durationTicks": 384,
            "midi": 59,
            "name": "B3",
            "ticks": 364800,
            "time": 345.4542,
            "velocity": 0.8267716535433071
          },
          {
            "duration": 0.3636359999999854,
            "durationTicks": 384,
            "midi": 62,
            "name": "D4",
            "ticks": 364800,
            "time": 345.4542,
            "velocity": 0.8267716535433071
          },
          {
            "duration": 0.3636359999999854,
            "durationTicks": 384,
            "midi": 62,
            "name": "D4",
            "ticks": 365760,
            "time": 346.36329,
            "velocity": 0.8267716535433071
          },
          {
            "duration": 0.3636359999999854,
            "durationTicks": 384,
            "midi": 71,
            "name": "B4",
            "ticks": 365760,
            "time": 346.36329,
            "velocity": 0.8267716535433071
          },
          {
            "duration": 0.3636359999999854,
            "durationTicks": 384,
            "midi": 79,
            "name": "G5",
            "ticks": 365760,
            "time": 346.36329,
            "velocity": 0.8267716535433071
          },
          {
            "duration": 0.29545425000003434,
            "durationTicks": 312,
            "midi": 62,
            "name": "D4",
            "ticks": 366720,
            "time": 347.27238,
            "velocity": 0.8267716535433071
          },
          {
            "duration": 0.29545425000003434,
            "durationTicks": 312,
            "midi": 71,
            "name": "B4",
            "ticks": 366720,
            "time": 347.27238,
            "velocity": 0.8267716535433071
          },
          {
            "duration": 0.29545425000003434,
            "durationTicks": 312,
            "midi": 79,
            "name": "G5",
            "ticks": 366720,
            "time": 347.27238,
            "velocity": 0.8267716535433071
          },
          {
            "duration": 0.22159068749999733,
            "durationTicks": 234,
            "midi": 55,
            "name": "G3",
            "ticks": 367200,
            "time": 347.726925,
            "velocity": 0.8267716535433071
          },
          {
            "duration": 0.22159068749999733,
            "durationTicks": 234,
            "midi": 67,
            "name": "G4",
            "ticks": 367200,
            "time": 347.726925,
            "velocity": 0.8267716535433071
          },
          {
            "duration": 0.07386356249998016,
            "durationTicks": 78,
            "midi": 55,
            "name": "G3",
            "ticks": 367560,
            "time": 348.06783375000003,
            "velocity": 0.8267716535433071
          },
          {
            "duration": 0.07386356249998016,
            "durationTicks": 78,
            "midi": 67,
            "name": "G4",
            "ticks": 367560,
            "time": 348.06783375000003,
            "velocity": 0.8267716535433071
          },
          {
            "duration": 0.3636359999999854,
            "durationTicks": 384,
            "midi": 55,
            "name": "G3",
            "ticks": 367680,
            "time": 348.18147,
            "velocity": 0.8267716535433071
          },
          {
            "duration": 0.3636359999999854,
            "durationTicks": 384,
            "midi": 67,
            "name": "G4",
            "ticks": 367680,
            "time": 348.18147,
            "velocity": 0.8267716535433071
          }
        ]
      },
      {
        "channel": 0,
        "controlChanges": {},
        "pitchBends": [],
        "instrument": {
          "family": "piano",
          "number": 0,
          "name": "acoustic grand piano"
        },
        "name": "serenade_525_1_(c)ishii",
        "notes": [],
        "endOfTrackTicks": 370560
      },
      {
        "channel": 2,
        "controlChanges": {
          "7": [
            {
              "number": 7,
              "ticks": 0,
              "time": 0,
              "value": 0.968503937007874
            }
          ],
          "10": [
            {
              "number": 10,
              "ticks": 0,
              "time": 0,
              "value": 0.7716535433070866
            }
          ],
          "91": [
            {
              "number": 91,
              "ticks": 0,
              "time": 0,
              "value": 0.6692913385826772
            }
          ]
        },
        "pitchBends": [],
        "instrument": {
          "family": "ensemble",
          "number": 48,
          "name": "string ensemble 1"
        },
        "name": "",
        "notes": [
          {
            "duration": 0.36363600000000007,
            "durationTicks": 384,
            "midi": 67,
            "name": "G4",
            "ticks": 0,
            "time": 0,
            "velocity": 0.6299212598425197
          },
          {
            "duration": 0.13636349999999997,
            "durationTicks": 144,
            "midi": 62,
            "name": "D4",
            "ticks": 720,
            "time": 0.6818175000000001,
            "velocity": 0.8267716535433071
          },
          {
            "duration": 0.36363599999999996,
            "durationTicks": 384,
            "midi": 67,
            "name": "G4",
            "ticks": 960,
            "time": 0.9090900000000001,
            "velocity": 0.8267716535433071
          },
          {
            "duration": 0.13636349999999986,
            "durationTicks": 144,
            "midi": 62,
            "name": "D4",
            "ticks": 1680,
            "time": 1.5909075000000001,
            "velocity": 0.8267716535433071
          },
          {
            "duration": 0.13636350000000008,
            "durationTicks": 144,
            "midi": 67,
            "name": "G4",
            "ticks": 1920,
            "time": 1.8181800000000001,
            "velocity": 0.8267716535433071
          },
          {
            "duration": 0.13636349999999986,
            "durationTicks": 144,
            "midi": 62,
            "name": "D4",
            "ticks": 2160,
            "time": 2.0454525,
            "velocity": 0.8267716535433071
          },
          {
            "duration": 0.13636349999999986,
            "durationTicks": 144,
            "midi": 67,
            "name": "G4",
            "ticks": 2400,
            "time": 2.2727250000000003,
            "velocity": 0.8267716535433071
          },
          {
            "duration": 0.13636349999999986,
            "durationTicks": 144,
            "midi": 71,
            "name": "B4",
            "ticks": 2640,
            "time": 2.4999975,
            "velocity": 0.8267716535433071
          },
          {
            "duration": 0.3636359999999996,
            "durationTicks": 384,
            "midi": 74,
            "name": "D5",
            "ticks": 2880,
            "time": 2.7272700000000003,
            "velocity": 0.8267716535433071
          },
          {
            "duration": 0.3636359999999996,
            "durationTicks": 384,
            "midi": 72,
            "name": "C5",
            "ticks": 3840,
            "time": 3.6363600000000003,
            "velocity": 0.8267716535433071
          },
          {
            "duration": 0.13636350000000075,
            "durationTicks": 144,
            "midi": 69,
            "name": "A4",
            "ticks": 4560,
            "time": 4.3181775,
            "velocity": 0.8267716535433071
          },
          {
            "duration": 0.3636360000000005,
            "durationTicks": 384,
            "midi": 72,
            "name": "C5",
            "ticks": 4800,
            "time": 4.545450000000001,
            "velocity": 0.8267716535433071
          },
          {
            "duration": 0.13636350000000075,
            "durationTicks": 144,
            "midi": 69,
            "name": "A4",
            "ticks": 5520,
            "time": 5.2272675,
            "velocity": 0.8267716535433071
          },
          {
            "duration": 0.13636349999999986,
            "durationTicks": 144,
            "midi": 72,
            "name": "C5",
            "ticks": 5760,
            "time": 5.454540000000001,
            "velocity": 0.8267716535433071
          },
          {
            "duration": 0.13636349999999986,
            "durationTicks": 144,
            "midi": 69,
            "name": "A4",
            "ticks": 6000,
            "time": 5.6818125,
            "velocity": 0.8267716535433071
          },
          {
            "duration": 0.13636350000000075,
            "durationTicks": 144,
            "midi": 66,
            "name": "F#4",
            "ticks": 6240,
            "time": 5.909085,
            "velocity": 0.8267716535433071
          },
          {
            "duration": 0.13636350000000075,
            "durationTicks": 144,
            "midi": 69,
            "name": "A4",
            "ticks": 6480,
            "time": 6.1363575,
            "velocity": 0.8267716535433071
          },
          {
            "duration": 0.3636360000000005,
            "durationTicks": 384,
            "midi": 62,
            "name": "D4",
            "ticks": 6720,
            "time": 6.363630000000001,
            "velocity": 0.8267716535433071
          },
          {
            "duration": 0.1477271249999994,
            "durationTicks": 156,
            "midi": 67,
            "name": "G4",
            "ticks": 7680,
            "time": 7.2727200000000005,
            "velocity": 0.8267716535433071
          },
          {
            "duration": 0.1477271249999994,
            "durationTicks": 156,
            "midi": 67,
            "name": "G4",
            "ticks": 7920,
            "time": 7.4999925,
            "velocity": 0.8267716535433071
          },
          {
            "duration": 0.1477271250000003,
            "durationTicks": 156,
            "midi": 67,
            "name": "G4",
            "ticks": 8160,
            "time": 7.727265,
            "velocity": 0.8267716535433071
          },
          {
            "duration": 0.1477271249999994,
            "durationTicks": 156,
            "midi": 67,
            "name": "G4",
            "ticks": 8400,
            "time": 7.954537500000001,
            "velocity": 0.8267716535433071
          },
          {
            "duration": 0.1477271249999994,
            "durationTicks": 156,
            "midi": 67,
            "name": "G4",
            "ticks": 8640,
            "time": 8.18181,
            "velocity": 0.8267716535433071
          },
          {
            "duration": 0.14772712500000118,
            "durationTicks": 156,
            "midi": 67,
            "name": "G4",
            "ticks": 8880,
            "time": 8.4090825,
            "velocity": 0.8267716535433071
          },
          {
            "duration": 0.1477271249999994,
            "durationTicks": 156,
            "midi": 67,
            "name": "G4",
            "ticks": 9120,
            "time": 8.636355000000002,
            "velocity": 0.8267716535433071
          },
          {
            "duration": 0.1477271249999994,
            "durationTicks": 156,
            "midi": 67,
            "name": "G4",
            "ticks": 9360,
            "time": 8.863627500000002,
            "velocity": 0.8267716535433071
          },
          {
            "duration": 0.1477271249999994,
            "durationTicks": 156,
            "midi": 69,
            "name": "A4",
            "ticks": 9600,
            "time": 9.090900000000001,
            "velocity": 0.8267716535433071
          },
          {
            "duration": 0.1477271249999994,
            "durationTicks": 156,
            "midi": 69,
            "name": "A4",
            "ticks": 9840,
            "time": 9.318172500000001,
            "velocity": 0.8267716535433071
          },
          {
            "duration": 0.14772712500000118,
            "durationTicks": 156,
            "midi": 69,
            "name": "A4",
            "ticks": 10080,
            "time": 9.545445,
            "velocity": 0.8267716535433071
          },
          {
            "duration": 0.14772712500000118,
            "durationTicks": 156,
            "midi": 69,
            "name": "A4",
            "ticks": 10320,
            "time": 9.7727175,
            "velocity": 0.8267716535433071
          },
          {
            "duration": 0.22727249999999977,
            "durationTicks": 240,
            "midi": 69,
            "name": "A4",
            "ticks": 10560,
            "time": 9.999990000000002,
            "velocity": 0.8267716535433071
          },
          {
            "duration": 0.1477271249999994,
            "durationTicks": 156,
            "midi": 72,
            "name": "C5",
            "ticks": 10800,
            "time": 10.227262500000002,
            "velocity": 0.8267716535433071
          },
          {
            "duration": 0.22727249999999977,
            "durationTicks": 240,
            "midi": 66,
            "name": "F#4",
            "ticks": 11040,
            "time": 10.454535000000002,
            "velocity": 0.8267716535433071
          },
          {
            "duration": 0.1477271249999994,
            "durationTicks": 156,
            "midi": 69,
            "name": "A4",
            "ticks": 11280,
            "time": 10.681807500000001,
            "velocity": 0.8267716535433071
          },
          {
            "duration": 0.1477271249999994,
            "durationTicks": 156,
            "midi": 67,
            "name": "G4",
            "ticks": 11520,
            "time": 10.909080000000001,
            "velocity": 0.8267716535433071
          },
          {
            "duration": 0.1477271249999994,
            "durationTicks": 156,
            "midi": 67,
            "name": "G4",
            "ticks": 11760,
            "time": 11.136352500000001,
            "velocity": 0.8267716535433071
          },
          {
            "duration": 0.14772712500000118,
            "durationTicks": 156,
            "midi": 67,
            "name": "G4",
            "ticks": 12000,
            "time": 11.363625,
            "velocity": 0.8267716535433071
          },
          {
            "duration": 0.1477271249999994,
            "durationTicks": 156,
            "midi": 67,
            "name": "G4",
            "ticks": 12240,
            "time": 11.590897500000002,
            "velocity": 0.8267716535433071
          },
          {
            "duration": 0.1477271249999994,
            "durationTicks": 156,
            "midi": 67,
            "name": "G4",
            "ticks": 12480,
            "time": 11.818170000000002,
            "velocity": 0.8267716535433071
          },
          {
            "duration": 0.1477271249999994,
            "durationTicks": 156,
            "midi": 67,
            "name": "G4",
            "ticks": 12720,
            "time": 12.045442500000002,
            "velocity": 0.8267716535433071
          },
          {
            "duration": 0.1477271249999994,
            "durationTicks": 156,
            "midi": 67,
            "name": "G4",
            "ticks": 12960,
            "time": 12.272715000000002,
            "velocity": 0.8267716535433071
          },
          {
            "duration": 0.1477271249999994,
            "durationTicks": 156,
            "midi": 67,
            "name": "G4",
            "ticks": 13200,
            "time": 12.499987500000001,
            "velocity": 0.8267716535433071
          },
          {
            "duration": 0.1477271249999994,
            "durationTicks": 156,
            "midi": 69,
            "name": "A4",
            "ticks": 13440,
            "time": 12.727260000000001,
            "velocity": 0.8267716535433071
          },
          {
            "duration": 0.14772712500000118,
            "durationTicks": 156,
            "midi": 69,
            "name": "A4",
            "ticks": 13680,
            "time": 12.954532500000001,
            "velocity": 0.8267716535433071
          },
          {
            "duration": 0.1477271249999994,
            "durationTicks": 156,
            "midi": 69,
            "name": "A4",
            "ticks": 13920,
            "time": 13.181805000000002,
            "velocity": 0.8267716535433071
          },
          {
            "duration": 0.1477271249999994,
            "durationTicks": 156,
            "midi": 69,
            "name": "A4",
            "ticks": 14160,
            "time": 13.409077500000002,
            "velocity": 0.8267716535433071
          },
          {
            "duration": 0.22727249999999977,
            "durationTicks": 240,
            "midi": 69,
            "name": "A4",
            "ticks": 14400,
            "time": 13.636350000000002,
            "velocity": 0.8267716535433071
          },
          {
            "duration": 0.1477271249999994,
            "durationTicks": 156,
            "midi": 72,
            "name": "C5",
            "ticks": 14640,
            "time": 13.863622500000002,
            "velocity": 0.8267716535433071
          },
          {
            "duration": 0.22727249999999977,
            "durationTicks": 240,
            "midi": 66,
            "name": "F#4",
            "ticks": 14880,
            "time": 14.090895000000002,
            "velocity": 0.8267716535433071
          },
          {
            "duration": 0.1477271249999994,
            "durationTicks": 156,
            "midi": 69,
            "name": "A4",
            "ticks": 15120,
            "time": 14.318167500000001,
            "velocity": 0.8267716535433071
          },
          {
            "duration": 0.0909089999999999,
            "durationTicks": 96,
            "midi": 62,
            "name": "D4",
            "ticks": 15360,
            "time": 14.545440000000001,
            "velocity": 0.8267716535433071
          },
          {
            "duration": 0.0909089999999999,
            "durationTicks": 96,
            "midi": 62,
            "name": "D4",
            "ticks": 15480,
            "time": 14.659076250000002,
            "velocity": 0.8267716535433071
          },
          {
            "duration": 0.09090899999999813,
            "durationTicks": 96,
            "midi": 62,
            "name": "D4",
            "ticks": 15600,
            "time": 14.772712500000003,
            "velocity": 0.8267716535433071
          },
          {
            "duration": 0.0909089999999999,
            "durationTicks": 96,
            "midi": 62,
            "name": "D4",
            "ticks": 15720,
            "time": 14.886348750000002,
            "velocity": 0.8267716535433071
          },
          {
            "duration": 0.0909089999999999,
            "durationTicks": 96,
            "midi": 62,
            "name": "D4",
            "ticks": 15840,
            "time": 14.999985000000002,
            "velocity": 0.8267716535433071
          },
          {
            "duration": 0.0909089999999999,
            "durationTicks": 96,
            "midi": 62,
            "name": "D4",
            "ticks": 15960,
            "time": 15.113621250000001,
            "velocity": 0.8267716535433071
          },
          {
            "duration": 0.0909089999999999,
            "durationTicks": 96,
            "midi": 62,
            "name": "D4",
            "ticks": 16080,
            "time": 15.227257500000002,
            "velocity": 0.8267716535433071
          },
          {
            "duration": 0.0909089999999999,
            "durationTicks": 96,
            "midi": 62,
            "name": "D4",
            "ticks": 16200,
            "time": 15.340893750000001,
            "velocity": 0.8267716535433071
          },
          {
            "duration": 0.09090900000000168,
            "durationTicks": 96,
            "midi": 62,
            "name": "D4",
            "ticks": 16320,
            "time": 15.454530000000002,
            "velocity": 0.8267716535433071
          },
          {
            "duration": 0.0909089999999999,
            "durationTicks": 96,
            "midi": 62,
            "name": "D4",
            "ticks": 16440,
            "time": 15.568166250000003,
            "velocity": 0.8267716535433071
          },
          {
            "duration": 0.09090900000000168,
            "durationTicks": 96,
            "midi": 62,
            "name": "D4",
            "ticks": 16560,
            "time": 15.681802500000002,
            "velocity": 0.8267716535433071
          },
          {
            "duration": 0.0909089999999999,
            "durationTicks": 96,
            "midi": 62,
            "name": "D4",
            "ticks": 16680,
            "time": 15.795438750000002,
            "velocity": 0.8267716535433071
          },
          {
            "duration": 0.09090900000000168,
            "durationTicks": 96,
            "midi": 62,
            "name": "D4",
            "ticks": 16800,
            "time": 15.909075000000001,
            "velocity": 0.8267716535433071
          },
          {
            "duration": 0.09090900000000346,
            "durationTicks": 96,
            "midi": 62,
            "name": "D4",
            "ticks": 16920,
            "time": 16.02271125,
            "velocity": 0.8267716535433071
          },
          {
            "duration": 0.09090900000000346,
            "durationTicks": 96,
            "midi": 62,
            "name": "D4",
            "ticks": 17040,
            "time": 16.1363475,
            "velocity": 0.8267716535433071
          },
          {
            "duration": 0.0909089999999999,
            "durationTicks": 96,
            "midi": 62,
            "name": "D4",
            "ticks": 17160,
            "time": 16.249983750000002,
            "velocity": 0.8267716535433071
          },
          {
            "duration": 0.0909089999999999,
            "durationTicks": 96,
            "midi": 62,
            "name": "D4",
            "ticks": 17280,
            "time": 16.36362,
            "velocity": 0.8267716535433071
          },
          {
            "duration": 0.09090900000000346,
            "durationTicks": 96,
            "midi": 62,
            "name": "D4",
            "ticks": 17400,
            "time": 16.47725625,
            "velocity": 0.8267716535433071
          },
          {
            "duration": 0.0909089999999999,
            "durationTicks": 96,
            "midi": 62,
            "name": "D4",
            "ticks": 17520,
            "time": 16.590892500000002,
            "velocity": 0.8267716535433071
          },
          {
            "duration": 0.0909089999999999,
            "durationTicks": 96,
            "midi": 62,
            "name": "D4",
            "ticks": 17640,
            "time": 16.70452875,
            "velocity": 0.8267716535433071
          },
          {
            "duration": 0.09090900000000346,
            "durationTicks": 96,
            "midi": 62,
            "name": "D4",
            "ticks": 17760,
            "time": 16.818165,
            "velocity": 0.8267716535433071
          },
          {
            "duration": 0.09090900000000346,
            "durationTicks": 96,
            "midi": 62,
            "name": "D4",
            "ticks": 17880,
            "time": 16.93180125,
            "velocity": 0.8267716535433071
          },
          {
            "duration": 0.09090900000000346,
            "durationTicks": 96,
            "midi": 62,
            "name": "D4",
            "ticks": 18000,
            "time": 17.0454375,
            "velocity": 0.8267716535433071
          },
          {
            "duration": 0.0909089999999999,
            "durationTicks": 96,
            "midi": 62,
            "name": "D4",
            "ticks": 18120,
            "time": 17.15907375,
            "velocity": 0.8267716535433071
          },
          {
            "duration": 0.3636359999999996,
            "durationTicks": 384,
            "midi": 62,
            "name": "D4",
            "ticks": 18240,
            "time": 17.27271,
            "velocity": 0.7244094488188977
          },
          {
            "duration": 0.9090899999999991,
            "durationTicks": 960,
            "midi": 54,
            "name": "F#3",
            "ticks": 21120,
            "time": 19.99998,
            "velocity": 0.4566929133858268
          },
          {
            "duration": 0.7272720000000028,
            "durationTicks": 768,
            "midi": 55,
            "name": "G3",
            "ticks": 22080,
            "time": 20.90907,
            "velocity": 0.4566929133858268
          },
          {
            "duration": 0.29545425000000236,
            "durationTicks": 312,
            "midi": 60,
            "name": "C4",
            "ticks": 23040,
            "time": 21.81816,
            "velocity": 0.4566929133858268
          },
          {
            "duration": 0.2954542499999988,
            "durationTicks": 312,
            "midi": 60,
            "name": "C4",
            "ticks": 23520,
            "time": 22.272705000000002,
            "velocity": 0.4566929133858268
          },
          {
            "duration": 0.2954542499999988,
            "durationTicks": 312,
            "midi": 57,
            "name": "A3",
            "ticks": 24000,
            "time": 22.72725,
            "velocity": 0.4566929133858268
          },
          {
            "duration": 0.2954542499999988,
            "durationTicks": 312,
            "midi": 50,
            "name": "D3",
            "ticks": 24480,
            "time": 23.181795,
            "velocity": 0.4566929133858268
          },
          {
            "duration": 0.1818179999999998,
            "durationTicks": 192,
            "midi": 50,
            "name": "D3",
            "ticks": 24960,
            "time": 23.63634,
            "velocity": 0.4566929133858268
          },
          {
            "duration": 0.1818179999999998,
            "durationTicks": 192,
            "midi": 62,
            "name": "D4",
            "ticks": 25440,
            "time": 24.090885,
            "velocity": 0.4566929133858268
          },
          {
            "duration": 0.3636359999999996,
            "durationTicks": 384,
            "midi": 62,
            "name": "D4",
            "ticks": 25920,
            "time": 24.54543,
            "velocity": 0.4566929133858268
          },
          {
            "duration": 0.9090899999999991,
            "durationTicks": 960,
            "midi": 66,
            "name": "F#4",
            "ticks": 28800,
            "time": 27.2727,
            "velocity": 0.4566929133858268
          },
          {
            "duration": 0.7272720000000028,
            "durationTicks": 768,
            "midi": 67,
            "name": "G4",
            "ticks": 29760,
            "time": 28.18179,
            "velocity": 0.4566929133858268
          },
          {
            "duration": 0.2954542499999988,
            "durationTicks": 312,
            "midi": 60,
            "name": "C4",
            "ticks": 30720,
            "time": 29.090880000000002,
            "velocity": 0.4566929133858268
          },
          {
            "duration": 0.1477271249999994,
            "durationTicks": 156,
            "midi": 60,
            "name": "C4",
            "ticks": 31200,
            "time": 29.545425,
            "velocity": 0.4566929133858268
          },
          {
            "duration": 0.14772712500000296,
            "durationTicks": 156,
            "midi": 60,
            "name": "C4",
            "ticks": 31440,
            "time": 29.7726975,
            "velocity": 0.4566929133858268
          },
          {
            "duration": 0.29545425000000236,
            "durationTicks": 312,
            "midi": 57,
            "name": "A3",
            "ticks": 31680,
            "time": 29.99997,
            "velocity": 0.4566929133858268
          },
          {
            "duration": 0.14772712500000296,
            "durationTicks": 156,
            "midi": 57,
            "name": "A3",
            "ticks": 32160,
            "time": 30.454515,
            "velocity": 0.4566929133858268
          },
          {
            "duration": 0.1477271249999994,
            "durationTicks": 156,
            "midi": 57,
            "name": "A3",
            "ticks": 32400,
            "time": 30.681787500000002,
            "velocity": 0.4566929133858268
          },
          {
            "duration": 0.18181800000000337,
            "durationTicks": 192,
            "midi": 55,
            "name": "G3",
            "ticks": 32640,
            "time": 30.90906,
            "velocity": 0.8818897637795275
          },
          {
            "duration": 0.18181800000000337,
            "durationTicks": 192,
            "midi": 55,
            "name": "G3",
            "ticks": 32880,
            "time": 31.1363325,
            "velocity": 0.7244094488188977
          },
          {
            "duration": 0.18181800000000337,
            "durationTicks": 192,
            "midi": 55,
            "name": "G3",
            "ticks": 33120,
            "time": 31.363605,
            "velocity": 0.7244094488188977
          },
          {
            "duration": 0.18181800000000337,
            "durationTicks": 192,
            "midi": 55,
            "name": "G3",
            "ticks": 33360,
            "time": 31.5908775,
            "velocity": 0.7244094488188977
          },
          {
            "duration": 0.1818179999999998,
            "durationTicks": 192,
            "midi": 55,
            "name": "G3",
            "ticks": 33600,
            "time": 31.818150000000003,
            "velocity": 0.5669291338582677
          },
          {
            "duration": 0.18181800000000692,
            "durationTicks": 192,
            "midi": 55,
            "name": "G3",
            "ticks": 33840,
            "time": 32.0454225,
            "velocity": 0.5669291338582677
          },
          {
            "duration": 0.1818179999999998,
            "durationTicks": 192,
            "midi": 55,
            "name": "G3",
            "ticks": 34080,
            "time": 32.272695000000006,
            "velocity": 0.5669291338582677
          },
          {
            "duration": 0.1818179999999998,
            "durationTicks": 192,
            "midi": 55,
            "name": "G3",
            "ticks": 34320,
            "time": 32.499967500000004,
            "velocity": 0.5669291338582677
          },
          {
            "duration": 0.18181800000000692,
            "durationTicks": 192,
            "midi": 55,
            "name": "G3",
            "ticks": 34560,
            "time": 32.72724,
            "velocity": 0.8818897637795275
          },
          {
            "duration": 0.18181800000000692,
            "durationTicks": 192,
            "midi": 55,
            "name": "G3",
            "ticks": 34800,
            "time": 32.9545125,
            "velocity": 0.7244094488188977
          },
          {
            "duration": 0.18181800000000692,
            "durationTicks": 192,
            "midi": 55,
            "name": "G3",
            "ticks": 35040,
            "time": 33.181785,
            "velocity": 0.7244094488188977
          },
          {
            "duration": 0.1818179999999998,
            "durationTicks": 192,
            "midi": 55,
            "name": "G3",
            "ticks": 35280,
            "time": 33.4090575,
            "velocity": 0.7244094488188977
          },
          {
            "duration": 0.1818179999999998,
            "durationTicks": 192,
            "midi": 55,
            "name": "G3",
            "ticks": 35520,
            "time": 33.63633,
            "velocity": 0.5669291338582677
          },
          {
            "duration": 0.18181800000000692,
            "durationTicks": 192,
            "midi": 55,
            "name": "G3",
            "ticks": 35760,
            "time": 33.8636025,
            "velocity": 0.5669291338582677
          },
          {
            "duration": 0.1818179999999998,
            "durationTicks": 192,
            "midi": 55,
            "name": "G3",
            "ticks": 36000,
            "time": 34.090875000000004,
            "velocity": 0.5669291338582677
          },
          {
            "duration": 0.1818179999999998,
            "durationTicks": 192,
            "midi": 55,
            "name": "G3",
            "ticks": 36240,
            "time": 34.3181475,
            "velocity": 0.5669291338582677
          },
          {
            "duration": 0.13636350000000164,
            "durationTicks": 144,
            "midi": 55,
            "name": "G3",
            "ticks": 36480,
            "time": 34.54542,
            "velocity": 0.5669291338582677
          },
          {
            "duration": 0.13636350000000164,
            "durationTicks": 144,
            "midi": 67,
            "name": "G4",
            "ticks": 36720,
            "time": 34.7726925,
            "velocity": 0.5669291338582677
          },
          {
            "duration": 0.13636349999999453,
            "durationTicks": 144,
            "midi": 67,
            "name": "G4",
            "ticks": 36960,
            "time": 34.999965,
            "velocity": 0.5669291338582677
          },
          {
            "duration": 0.13636350000000164,
            "durationTicks": 144,
            "midi": 67,
            "name": "G4",
            "ticks": 37200,
            "time": 35.2272375,
            "velocity": 0.5669291338582677
          },
          {
            "duration": 0.13636350000000164,
            "durationTicks": 144,
            "midi": 67,
            "name": "G4",
            "ticks": 37440,
            "time": 35.45451,
            "velocity": 0.6377952755905512
          },
          {
            "duration": 0.13636349999999453,
            "durationTicks": 144,
            "midi": 67,
            "name": "G4",
            "ticks": 37680,
            "time": 35.681782500000004,
            "velocity": 0.6377952755905512
          },
          {
            "duration": 0.13636350000000164,
            "durationTicks": 144,
            "midi": 69,
            "name": "A4",
            "ticks": 37920,
            "time": 35.909055,
            "velocity": 0.6377952755905512
          },
          {
            "duration": 0.13636350000000164,
            "durationTicks": 144,
            "midi": 69,
            "name": "A4",
            "ticks": 38160,
            "time": 36.1363275,
            "velocity": 0.6377952755905512
          },
          {
            "duration": 0.13636350000000164,
            "durationTicks": 144,
            "midi": 67,
            "name": "G4",
            "ticks": 38400,
            "time": 36.3636,
            "velocity": 0.7244094488188977
          },
          {
            "duration": 0.13636349999999453,
            "durationTicks": 144,
            "midi": 67,
            "name": "G4",
            "ticks": 38640,
            "time": 36.5908725,
            "velocity": 0.7244094488188977
          },
          {
            "duration": 0.13636350000000164,
            "durationTicks": 144,
            "midi": 66,
            "name": "F#4",
            "ticks": 38880,
            "time": 36.818145,
            "velocity": 0.7244094488188977
          },
          {
            "duration": 0.13636350000000164,
            "durationTicks": 144,
            "midi": 66,
            "name": "F#4",
            "ticks": 39120,
            "time": 37.0454175,
            "velocity": 0.7244094488188977
          },
          {
            "duration": 0.13636349999999453,
            "durationTicks": 144,
            "midi": 67,
            "name": "G4",
            "ticks": 39360,
            "time": 37.272690000000004,
            "velocity": 0.8267716535433071
          },
          {
            "duration": 0.13636349999999453,
            "durationTicks": 144,
            "midi": 67,
            "name": "G4",
            "ticks": 39600,
            "time": 37.4999625,
            "velocity": 0.8267716535433071
          },
          {
            "duration": 0.13636350000000164,
            "durationTicks": 144,
            "midi": 64,
            "name": "E4",
            "ticks": 39840,
            "time": 37.727235,
            "velocity": 0.8267716535433071
          },
          {
            "duration": 0.13636350000000164,
            "durationTicks": 144,
            "midi": 64,
            "name": "E4",
            "ticks": 40080,
            "time": 37.9545075,
            "velocity": 0.8267716535433071
          },
          {
            "duration": 0.09090899999999635,
            "durationTicks": 96,
            "midi": 62,
            "name": "D4",
            "ticks": 40320,
            "time": 38.18178,
            "velocity": 0.8267716535433071
          },
          {
            "duration": 0.09090899999999635,
            "durationTicks": 96,
            "midi": 69,
            "name": "A4",
            "ticks": 40320,
            "time": 38.18178,
            "velocity": 0.8267716535433071
          },
          {
            "duration": 0.09090900000000346,
            "durationTicks": 96,
            "midi": 62,
            "name": "D4",
            "ticks": 40440,
            "time": 38.29541625,
            "velocity": 0.8267716535433071
          },
          {
            "duration": 0.09090900000000346,
            "durationTicks": 96,
            "midi": 69,
            "name": "A4",
            "ticks": 40440,
            "time": 38.29541625,
            "velocity": 0.8267716535433071
          },
          {
            "duration": 0.09090900000000346,
            "durationTicks": 96,
            "midi": 62,
            "name": "D4",
            "ticks": 40560,
            "time": 38.4090525,
            "velocity": 0.8267716535433071
          },
          {
            "duration": 0.09090900000000346,
            "durationTicks": 96,
            "midi": 69,
            "name": "A4",
            "ticks": 40560,
            "time": 38.4090525,
            "velocity": 0.8267716535433071
          },
          {
            "duration": 0.09090900000000346,
            "durationTicks": 96,
            "midi": 62,
            "name": "D4",
            "ticks": 40680,
            "time": 38.52268875,
            "velocity": 0.8267716535433071
          },
          {
            "duration": 0.09090900000000346,
            "durationTicks": 96,
            "midi": 69,
            "name": "A4",
            "ticks": 40680,
            "time": 38.52268875,
            "velocity": 0.8267716535433071
          },
          {
            "duration": 0.09090900000000346,
            "durationTicks": 96,
            "midi": 62,
            "name": "D4",
            "ticks": 40800,
            "time": 38.636325,
            "velocity": 0.8267716535433071
          },
          {
            "duration": 0.09090900000000346,
            "durationTicks": 96,
            "midi": 69,
            "name": "A4",
            "ticks": 40800,
            "time": 38.636325,
            "velocity": 0.8267716535433071
          },
          {
            "duration": 0.09090900000000346,
            "durationTicks": 96,
            "midi": 62,
            "name": "D4",
            "ticks": 40920,
            "time": 38.74996125,
            "velocity": 0.8267716535433071
          },
          {
            "duration": 0.09090900000000346,
            "durationTicks": 96,
            "midi": 69,
            "name": "A4",
            "ticks": 40920,
            "time": 38.74996125,
            "velocity": 0.8267716535433071
          },
          {
            "duration": 0.09090899999999635,
            "durationTicks": 96,
            "midi": 62,
            "name": "D4",
            "ticks": 41040,
            "time": 38.863597500000004,
            "velocity": 0.8267716535433071
          },
          {
            "duration": 0.09090899999999635,
            "durationTicks": 96,
            "midi": 69,
            "name": "A4",
            "ticks": 41040,
            "time": 38.863597500000004,
            "velocity": 0.8267716535433071
          },
          {
            "duration": 0.09090899999999635,
            "durationTicks": 96,
            "midi": 62,
            "name": "D4",
            "ticks": 41160,
            "time": 38.97723375,
            "velocity": 0.8267716535433071
          },
          {
            "duration": 0.09090899999999635,
            "durationTicks": 96,
            "midi": 69,
            "name": "A4",
            "ticks": 41160,
            "time": 38.97723375,
            "velocity": 0.8267716535433071
          },
          {
            "duration": 0.09090900000000346,
            "durationTicks": 96,
            "midi": 64,
            "name": "E4",
            "ticks": 41280,
            "time": 39.09087,
            "velocity": 0.8267716535433071
          },
          {
            "duration": 0.09090900000000346,
            "durationTicks": 96,
            "midi": 69,
            "name": "A4",
            "ticks": 41280,
            "time": 39.09087,
            "velocity": 0.8267716535433071
          },
          {
            "duration": 0.09090900000000346,
            "durationTicks": 96,
            "midi": 64,
            "name": "E4",
            "ticks": 41400,
            "time": 39.20450625,
            "velocity": 0.8267716535433071
          },
          {
            "duration": 0.09090900000000346,
            "durationTicks": 96,
            "midi": 69,
            "name": "A4",
            "ticks": 41400,
            "time": 39.20450625,
            "velocity": 0.8267716535433071
          },
          {
            "duration": 0.09090900000000346,
            "durationTicks": 96,
            "midi": 64,
            "name": "E4",
            "ticks": 41520,
            "time": 39.3181425,
            "velocity": 0.8267716535433071
          },
          {
            "duration": 0.09090900000000346,
            "durationTicks": 96,
            "midi": 69,
            "name": "A4",
            "ticks": 41520,
            "time": 39.3181425,
            "velocity": 0.8267716535433071
          },
          {
            "duration": 0.09090900000000346,
            "durationTicks": 96,
            "midi": 64,
            "name": "E4",
            "ticks": 41640,
            "time": 39.43177875,
            "velocity": 0.8267716535433071
          },
          {
            "duration": 0.09090900000000346,
            "durationTicks": 96,
            "midi": 69,
            "name": "A4",
            "ticks": 41640,
            "time": 39.43177875,
            "velocity": 0.8267716535433071
          },
          {
            "duration": 0.09090900000000346,
            "durationTicks": 96,
            "midi": 64,
            "name": "E4",
            "ticks": 41760,
            "time": 39.545415,
            "velocity": 0.8267716535433071
          },
          {
            "duration": 0.09090900000000346,
            "durationTicks": 96,
            "midi": 69,
            "name": "A4",
            "ticks": 41760,
            "time": 39.545415,
            "velocity": 0.8267716535433071
          },
          {
            "duration": 0.09090899999999635,
            "durationTicks": 96,
            "midi": 64,
            "name": "E4",
            "ticks": 41880,
            "time": 39.659051250000005,
            "velocity": 0.8267716535433071
          },
          {
            "duration": 0.09090899999999635,
            "durationTicks": 96,
            "midi": 69,
            "name": "A4",
            "ticks": 41880,
            "time": 39.659051250000005,
            "velocity": 0.8267716535433071
          },
          {
            "duration": 0.09090899999999635,
            "durationTicks": 96,
            "midi": 64,
            "name": "E4",
            "ticks": 42000,
            "time": 39.7726875,
            "velocity": 0.8267716535433071
          },
          {
            "duration": 0.09090899999999635,
            "durationTicks": 96,
            "midi": 69,
            "name": "A4",
            "ticks": 42000,
            "time": 39.7726875,
            "velocity": 0.8267716535433071
          },
          {
            "duration": 0.09090900000000346,
            "durationTicks": 96,
            "midi": 64,
            "name": "E4",
            "ticks": 42120,
            "time": 39.88632375,
            "velocity": 0.8267716535433071
          },
          {
            "duration": 0.09090900000000346,
            "durationTicks": 96,
            "midi": 69,
            "name": "A4",
            "ticks": 42120,
            "time": 39.88632375,
            "velocity": 0.8267716535433071
          },
          {
            "duration": 0.09090900000000346,
            "durationTicks": 96,
            "midi": 62,
            "name": "D4",
            "ticks": 42240,
            "time": 39.99996,
            "velocity": 0.8267716535433071
          },
          {
            "duration": 0.09090900000000346,
            "durationTicks": 96,
            "midi": 69,
            "name": "A4",
            "ticks": 42240,
            "time": 39.99996,
            "velocity": 0.8267716535433071
          },
          {
            "duration": 0.09090900000000346,
            "durationTicks": 96,
            "midi": 62,
            "name": "D4",
            "ticks": 42360,
            "time": 40.11359625,
            "velocity": 0.8267716535433071
          },
          {
            "duration": 0.09090900000000346,
            "durationTicks": 96,
            "midi": 69,
            "name": "A4",
            "ticks": 42360,
            "time": 40.11359625,
            "velocity": 0.8267716535433071
          },
          {
            "duration": 0.09090900000000346,
            "durationTicks": 96,
            "midi": 62,
            "name": "D4",
            "ticks": 42480,
            "time": 40.2272325,
            "velocity": 0.8267716535433071
          },
          {
            "duration": 0.09090900000000346,
            "durationTicks": 96,
            "midi": 69,
            "name": "A4",
            "ticks": 42480,
            "time": 40.2272325,
            "velocity": 0.8267716535433071
          },
          {
            "duration": 0.09090900000000346,
            "durationTicks": 96,
            "midi": 62,
            "name": "D4",
            "ticks": 42600,
            "time": 40.34086875,
            "velocity": 0.8267716535433071
          },
          {
            "duration": 0.09090900000000346,
            "durationTicks": 96,
            "midi": 69,
            "name": "A4",
            "ticks": 42600,
            "time": 40.34086875,
            "velocity": 0.8267716535433071
          },
          {
            "duration": 0.09090899999999635,
            "durationTicks": 96,
            "midi": 62,
            "name": "D4",
            "ticks": 42720,
            "time": 40.454505000000005,
            "velocity": 0.8267716535433071
          },
          {
            "duration": 0.09090899999999635,
            "durationTicks": 96,
            "midi": 69,
            "name": "A4",
            "ticks": 42720,
            "time": 40.454505000000005,
            "velocity": 0.8267716535433071
          },
          {
            "duration": 0.09090899999999635,
            "durationTicks": 96,
            "midi": 62,
            "name": "D4",
            "ticks": 42840,
            "time": 40.568141250000004,
            "velocity": 0.8267716535433071
          },
          {
            "duration": 0.09090899999999635,
            "durationTicks": 96,
            "midi": 69,
            "name": "A4",
            "ticks": 42840,
            "time": 40.568141250000004,
            "velocity": 0.8267716535433071
          },
          {
            "duration": 0.09090900000000346,
            "durationTicks": 96,
            "midi": 62,
            "name": "D4",
            "ticks": 42960,
            "time": 40.6817775,
            "velocity": 0.8267716535433071
          },
          {
            "duration": 0.09090900000000346,
            "durationTicks": 96,
            "midi": 69,
            "name": "A4",
            "ticks": 42960,
            "time": 40.6817775,
            "velocity": 0.8267716535433071
          },
          {
            "duration": 0.09090900000000346,
            "durationTicks": 96,
            "midi": 62,
            "name": "D4",
            "ticks": 43080,
            "time": 40.79541375,
            "velocity": 0.8267716535433071
          },
          {
            "duration": 0.09090900000000346,
            "durationTicks": 96,
            "midi": 69,
            "name": "A4",
            "ticks": 43080,
            "time": 40.79541375,
            "velocity": 0.8267716535433071
          },
          {
            "duration": 0.09090900000000346,
            "durationTicks": 96,
            "midi": 64,
            "name": "E4",
            "ticks": 43200,
            "time": 40.90905,
            "velocity": 0.8267716535433071
          },
          {
            "duration": 0.09090900000000346,
            "durationTicks": 96,
            "midi": 69,
            "name": "A4",
            "ticks": 43200,
            "time": 40.90905,
            "velocity": 0.8267716535433071
          },
          {
            "duration": 0.09090900000000346,
            "durationTicks": 96,
            "midi": 64,
            "name": "E4",
            "ticks": 43320,
            "time": 41.02268625,
            "velocity": 0.8267716535433071
          },
          {
            "duration": 0.09090900000000346,
            "durationTicks": 96,
            "midi": 69,
            "name": "A4",
            "ticks": 43320,
            "time": 41.02268625,
            "velocity": 0.8267716535433071
          },
          {
            "duration": 0.09090900000000346,
            "durationTicks": 96,
            "midi": 64,
            "name": "E4",
            "ticks": 43440,
            "time": 41.1363225,
            "velocity": 0.8267716535433071
          },
          {
            "duration": 0.09090900000000346,
            "durationTicks": 96,
            "midi": 69,
            "name": "A4",
            "ticks": 43440,
            "time": 41.1363225,
            "velocity": 0.8267716535433071
          },
          {
            "duration": 0.09090899999999635,
            "durationTicks": 96,
            "midi": 64,
            "name": "E4",
            "ticks": 43560,
            "time": 41.249958750000005,
            "velocity": 0.8267716535433071
          },
          {
            "duration": 0.09090899999999635,
            "durationTicks": 96,
            "midi": 69,
            "name": "A4",
            "ticks": 43560,
            "time": 41.249958750000005,
            "velocity": 0.8267716535433071
          },
          {
            "duration": 0.09090899999999635,
            "durationTicks": 96,
            "midi": 64,
            "name": "E4",
            "ticks": 43680,
            "time": 41.363595000000004,
            "velocity": 0.8267716535433071
          },
          {
            "duration": 0.09090899999999635,
            "durationTicks": 96,
            "midi": 69,
            "name": "A4",
            "ticks": 43680,
            "time": 41.363595000000004,
            "velocity": 0.8267716535433071
          },
          {
            "duration": 0.09090900000000346,
            "durationTicks": 96,
            "midi": 64,
            "name": "E4",
            "ticks": 43800,
            "time": 41.47723125,
            "velocity": 0.8267716535433071
          },
          {
            "duration": 0.09090900000000346,
            "durationTicks": 96,
            "midi": 69,
            "name": "A4",
            "ticks": 43800,
            "time": 41.47723125,
            "velocity": 0.8267716535433071
          },
          {
            "duration": 0.09090900000000346,
            "durationTicks": 96,
            "midi": 64,
            "name": "E4",
            "ticks": 43920,
            "time": 41.5908675,
            "velocity": 0.8267716535433071
          },
          {
            "duration": 0.09090900000000346,
            "durationTicks": 96,
            "midi": 69,
            "name": "A4",
            "ticks": 43920,
            "time": 41.5908675,
            "velocity": 0.8267716535433071
          },
          {
            "duration": 0.09090900000000346,
            "durationTicks": 96,
            "midi": 64,
            "name": "E4",
            "ticks": 44040,
            "time": 41.70450375,
            "velocity": 0.8267716535433071
          },
          {
            "duration": 0.09090900000000346,
            "durationTicks": 96,
            "midi": 69,
            "name": "A4",
            "ticks": 44040,
            "time": 41.70450375,
            "velocity": 0.8267716535433071
          },
          {
            "duration": 0.14772712500000296,
            "durationTicks": 156,
            "midi": 66,
            "name": "F#4",
            "ticks": 44160,
            "time": 41.81814,
            "velocity": 0.8267716535433071
          },
          {
            "duration": 0.14772712499999585,
            "durationTicks": 156,
            "midi": 67,
            "name": "G4",
            "ticks": 44400,
            "time": 42.045412500000005,
            "velocity": 0.8267716535433071
          },
          {
            "duration": 0.14772712500000296,
            "durationTicks": 156,
            "midi": 69,
            "name": "A4",
            "ticks": 44640,
            "time": 42.272685,
            "velocity": 0.8267716535433071
          },
          {
            "duration": 0.14772712500000296,
            "durationTicks": 156,
            "midi": 67,
            "name": "G4",
            "ticks": 44880,
            "time": 42.4999575,
            "velocity": 0.8267716535433071
          },
          {
            "duration": 0.14772712500000296,
            "durationTicks": 156,
            "midi": 66,
            "name": "F#4",
            "ticks": 45120,
            "time": 42.72723,
            "velocity": 0.8267716535433071
          },
          {
            "duration": 0.14772712500000296,
            "durationTicks": 156,
            "midi": 67,
            "name": "G4",
            "ticks": 45360,
            "time": 42.954502500000004,
            "velocity": 0.8267716535433071
          },
          {
            "duration": 0.14772712500000296,
            "durationTicks": 156,
            "midi": 69,
            "name": "A4",
            "ticks": 45600,
            "time": 43.181775,
            "velocity": 0.8267716535433071
          },
          {
            "duration": 0.14772712500000296,
            "durationTicks": 156,
            "midi": 66,
            "name": "F#4",
            "ticks": 45840,
            "time": 43.4090475,
            "velocity": 0.8267716535433071
          },
          {
            "duration": 0.14772712499999585,
            "durationTicks": 156,
            "midi": 71,
            "name": "B4",
            "ticks": 46080,
            "time": 43.636320000000005,
            "velocity": 0.8267716535433071
          },
          {
            "duration": 0.14772712500000296,
            "durationTicks": 156,
            "midi": 69,
            "name": "A4",
            "ticks": 46320,
            "time": 43.8635925,
            "velocity": 0.8267716535433071
          },
          {
            "duration": 0.14772712500000296,
            "durationTicks": 156,
            "midi": 67,
            "name": "G4",
            "ticks": 46560,
            "time": 44.090865,
            "velocity": 0.8267716535433071
          },
          {
            "duration": 0.14772712500000296,
            "durationTicks": 156,
            "midi": 69,
            "name": "A4",
            "ticks": 46800,
            "time": 44.3181375,
            "velocity": 0.8267716535433071
          },
          {
            "duration": 0.14772712500000296,
            "durationTicks": 156,
            "midi": 71,
            "name": "B4",
            "ticks": 47040,
            "time": 44.545410000000004,
            "velocity": 0.8267716535433071
          },
          {
            "duration": 0.14772712500000296,
            "durationTicks": 156,
            "midi": 69,
            "name": "A4",
            "ticks": 47280,
            "time": 44.7726825,
            "velocity": 0.8267716535433071
          },
          {
            "duration": 0.14772712500000296,
            "durationTicks": 156,
            "midi": 68,
            "name": "G#4",
            "ticks": 47520,
            "time": 44.999955,
            "velocity": 0.8267716535433071
          },
          {
            "duration": 0.14772712499999585,
            "durationTicks": 156,
            "midi": 71,
            "name": "B4",
            "ticks": 47760,
            "time": 45.227227500000005,
            "velocity": 0.8267716535433071
          },
          {
            "duration": 0.14772712500000296,
            "durationTicks": 156,
            "midi": 69,
            "name": "A4",
            "ticks": 48000,
            "time": 45.4545,
            "velocity": 0.8267716535433071
          },
          {
            "duration": 0.14772712500000296,
            "durationTicks": 156,
            "midi": 69,
            "name": "A4",
            "ticks": 48240,
            "time": 45.6817725,
            "velocity": 0.8267716535433071
          },
          {
            "duration": 0.14772712500000296,
            "durationTicks": 156,
            "midi": 69,
            "name": "A4",
            "ticks": 48480,
            "time": 45.909045,
            "velocity": 0.8267716535433071
          },
          {
            "duration": 0.14772712500000296,
            "durationTicks": 156,
            "midi": 69,
            "name": "A4",
            "ticks": 48720,
            "time": 46.136317500000004,
            "velocity": 0.8267716535433071
          },
          {
            "duration": 0.14772712500000296,
            "durationTicks": 156,
            "midi": 69,
            "name": "A4",
            "ticks": 48960,
            "time": 46.36359,
            "velocity": 0.8267716535433071
          },
          {
            "duration": 0.14772712500000296,
            "durationTicks": 156,
            "midi": 69,
            "name": "A4",
            "ticks": 49200,
            "time": 46.5908625,
            "velocity": 0.8267716535433071
          },
          {
            "duration": 0.14772712499999585,
            "durationTicks": 156,
            "midi": 69,
            "name": "A4",
            "ticks": 49440,
            "time": 46.818135000000005,
            "velocity": 0.8267716535433071
          },
          {
            "duration": 0.14772712500000296,
            "durationTicks": 156,
            "midi": 69,
            "name": "A4",
            "ticks": 49680,
            "time": 47.0454075,
            "velocity": 0.8267716535433071
          },
          {
            "duration": 0.14772712500000296,
            "durationTicks": 156,
            "midi": 69,
            "name": "A4",
            "ticks": 49920,
            "time": 47.27268,
            "velocity": 0.8267716535433071
          },
          {
            "duration": 0.14772712500000296,
            "durationTicks": 156,
            "midi": 57,
            "name": "A3",
            "ticks": 50160,
            "time": 47.4999525,
            "velocity": 0.8267716535433071
          },
          {
            "duration": 0.14772712500000296,
            "durationTicks": 156,
            "midi": 57,
            "name": "A3",
            "ticks": 50400,
            "time": 47.727225000000004,
            "velocity": 0.8267716535433071
          },
          {
            "duration": 0.14772712500000296,
            "durationTicks": 156,
            "midi": 57,
            "name": "A3",
            "ticks": 50640,
            "time": 47.9544975,
            "velocity": 0.8267716535433071
          },
          {
            "duration": 0.3636359999999996,
            "durationTicks": 384,
            "midi": 57,
            "name": "A3",
            "ticks": 50880,
            "time": 48.18177,
            "velocity": 0.7244094488188977
          },
          {
            "duration": 0.18181800000000692,
            "durationTicks": 192,
            "midi": 66,
            "name": "F#4",
            "ticks": 53280,
            "time": 50.454495,
            "velocity": 0.4566929133858268
          },
          {
            "duration": 0.1818179999999998,
            "durationTicks": 192,
            "midi": 59,
            "name": "B3",
            "ticks": 53760,
            "time": 50.909040000000005,
            "velocity": 0.4566929133858268
          },
          {
            "duration": 0.18181800000000692,
            "durationTicks": 192,
            "midi": 67,
            "name": "G4",
            "ticks": 54240,
            "time": 51.363585,
            "velocity": 0.4566929133858268
          },
          {
            "duration": 0.1818179999999998,
            "durationTicks": 192,
            "midi": 64,
            "name": "E4",
            "ticks": 54720,
            "time": 51.818130000000004,
            "velocity": 0.4566929133858268
          },
          {
            "duration": 0.18181800000000692,
            "durationTicks": 192,
            "midi": 61,
            "name": "C#4",
            "ticks": 55200,
            "time": 52.272675,
            "velocity": 0.4566929133858268
          },
          {
            "duration": 0.454544999999996,
            "durationTicks": 480,
            "midi": 64,
            "name": "E4",
            "ticks": 56160,
            "time": 53.181765000000006,
            "velocity": 0.4566929133858268
          },
          {
            "duration": 0.18181800000000692,
            "durationTicks": 192,
            "midi": 62,
            "name": "D4",
            "ticks": 56640,
            "time": 53.63631,
            "velocity": 0.4566929133858268
          },
          {
            "duration": 0.1818179999999998,
            "durationTicks": 192,
            "midi": 64,
            "name": "E4",
            "ticks": 57120,
            "time": 54.090855000000005,
            "velocity": 0.4566929133858268
          },
          {
            "duration": 0.9090899999999991,
            "durationTicks": 960,
            "midi": 62,
            "name": "D4",
            "ticks": 57600,
            "time": 54.5454,
            "velocity": 0.4566929133858268
          },
          {
            "duration": 0.3636359999999996,
            "durationTicks": 384,
            "midi": 61,
            "name": "C#4",
            "ticks": 58560,
            "time": 55.45449,
            "velocity": 0.4566929133858268
          },
          {
            "duration": 0.4545450000000031,
            "durationTicks": 480,
            "midi": 61,
            "name": "C#4",
            "ticks": 60000,
            "time": 56.818125,
            "velocity": 0.4566929133858268
          },
          {
            "duration": 0.1818179999999998,
            "durationTicks": 192,
            "midi": 62,
            "name": "D4",
            "ticks": 60480,
            "time": 57.272670000000005,
            "velocity": 0.4566929133858268
          },
          {
            "duration": 0.18181800000000692,
            "durationTicks": 192,
            "midi": 66,
            "name": "F#4",
            "ticks": 60960,
            "time": 57.727215,
            "velocity": 0.4566929133858268
          },
          {
            "duration": 0.1818179999999998,
            "durationTicks": 192,
            "midi": 59,
            "name": "B3",
            "ticks": 61440,
            "time": 58.181760000000004,
            "velocity": 0.4566929133858268
          },
          {
            "duration": 0.18181800000000692,
            "durationTicks": 192,
            "midi": 55,
            "name": "G3",
            "ticks": 61920,
            "time": 58.636305,
            "velocity": 0.4566929133858268
          },
          {
            "duration": 0.36363600000000673,
            "durationTicks": 384,
            "midi": 52,
            "name": "E3",
            "ticks": 62400,
            "time": 59.09085,
            "velocity": 0.4566929133858268
          },
          {
            "duration": 0.1818179999999998,
            "durationTicks": 192,
            "midi": 64,
            "name": "E4",
            "ticks": 63120,
            "time": 59.772667500000004,
            "velocity": 0.4566929133858268
          },
          {
            "duration": 0.227272499999998,
            "durationTicks": 240,
            "midi": 64,
            "name": "E4",
            "ticks": 63360,
            "time": 59.99994,
            "velocity": 0.5669291338582677
          },
          {
            "duration": 0.18181800000000692,
            "durationTicks": 192,
            "midi": 62,
            "name": "D4",
            "ticks": 63600,
            "time": 60.2272125,
            "velocity": 0.5669291338582677
          },
          {
            "duration": 0.14772712499999585,
            "durationTicks": 156,
            "midi": 62,
            "name": "D4",
            "ticks": 65280,
            "time": 61.81812,
            "velocity": 0.4566929133858268
          },
          {
            "duration": 0.14772712499999585,
            "durationTicks": 156,
            "midi": 62,
            "name": "D4",
            "ticks": 65520,
            "time": 62.045392500000005,
            "velocity": 0.4566929133858268
          },
          {
            "duration": 0.14772712499999585,
            "durationTicks": 156,
            "midi": 64,
            "name": "E4",
            "ticks": 65760,
            "time": 62.272665,
            "velocity": 0.4566929133858268
          },
          {
            "duration": 0.14772712499999585,
            "durationTicks": 156,
            "midi": 64,
            "name": "E4",
            "ticks": 66000,
            "time": 62.4999375,
            "velocity": 0.4566929133858268
          },
          {
            "duration": 0.14772712499998875,
            "durationTicks": 156,
            "midi": 66,
            "name": "F#4",
            "ticks": 66240,
            "time": 62.72721000000001,
            "velocity": 0.4566929133858268
          },
          {
            "duration": 0.14772712499999585,
            "durationTicks": 156,
            "midi": 66,
            "name": "F#4",
            "ticks": 66480,
            "time": 62.954482500000005,
            "velocity": 0.4566929133858268
          },
          {
            "duration": 0.14772712499999585,
            "durationTicks": 156,
            "midi": 62,
            "name": "D4",
            "ticks": 66720,
            "time": 63.181755,
            "velocity": 0.4566929133858268
          },
          {
            "duration": 0.14772712499999585,
            "durationTicks": 156,
            "midi": 62,
            "name": "D4",
            "ticks": 66960,
            "time": 63.4090275,
            "velocity": 0.4566929133858268
          },
          {
            "duration": 0.14772712499999585,
            "durationTicks": 156,
            "midi": 61,
            "name": "C#4",
            "ticks": 67200,
            "time": 63.636300000000006,
            "velocity": 0.4566929133858268
          },
          {
            "duration": 0.14772712500000296,
            "durationTicks": 156,
            "midi": 61,
            "name": "C#4",
            "ticks": 67440,
            "time": 63.863572500000004,
            "velocity": 0.4566929133858268
          },
          {
            "duration": 0.14772712500000296,
            "durationTicks": 156,
            "midi": 62,
            "name": "D4",
            "ticks": 67680,
            "time": 64.090845,
            "velocity": 0.4566929133858268
          },
          {
            "duration": 0.14772712499998875,
            "durationTicks": 156,
            "midi": 62,
            "name": "D4",
            "ticks": 67920,
            "time": 64.31811750000001,
            "velocity": 0.4566929133858268
          },
          {
            "duration": 0.14772712499998875,
            "durationTicks": 156,
            "midi": 64,
            "name": "E4",
            "ticks": 68160,
            "time": 64.54539000000001,
            "velocity": 0.4566929133858268
          },
          {
            "duration": 0.14772712499998875,
            "durationTicks": 156,
            "midi": 64,
            "name": "E4",
            "ticks": 68400,
            "time": 64.77266250000001,
            "velocity": 0.4566929133858268
          },
          {
            "duration": 0.14772712500000296,
            "durationTicks": 156,
            "midi": 61,
            "name": "C#4",
            "ticks": 68640,
            "time": 64.99993500000001,
            "velocity": 0.4566929133858268
          },
          {
            "duration": 0.14772712500000296,
            "durationTicks": 156,
            "midi": 61,
            "name": "C#4",
            "ticks": 68880,
            "time": 65.2272075,
            "velocity": 0.4566929133858268
          },
          {
            "duration": 0.14772712500000296,
            "durationTicks": 156,
            "midi": 62,
            "name": "D4",
            "ticks": 69120,
            "time": 65.45448,
            "velocity": 0.4566929133858268
          },
          {
            "duration": 0.14772712499998875,
            "durationTicks": 156,
            "midi": 62,
            "name": "D4",
            "ticks": 69360,
            "time": 65.68175250000002,
            "velocity": 0.4566929133858268
          },
          {
            "duration": 0.14772712499998875,
            "durationTicks": 156,
            "midi": 64,
            "name": "E4",
            "ticks": 69600,
            "time": 65.90902500000001,
            "velocity": 0.4566929133858268
          },
          {
            "duration": 0.14772712499998875,
            "durationTicks": 156,
            "midi": 64,
            "name": "E4",
            "ticks": 69840,
            "time": 66.13629750000001,
            "velocity": 0.4566929133858268
          },
          {
            "duration": 0.14772712499998875,
            "durationTicks": 156,
            "midi": 66,
            "name": "F#4",
            "ticks": 70080,
            "time": 66.36357000000001,
            "velocity": 0.4566929133858268
          },
          {
            "duration": 0.14772712500000296,
            "durationTicks": 156,
            "midi": 66,
            "name": "F#4",
            "ticks": 70320,
            "time": 66.59084250000001,
            "velocity": 0.4566929133858268
          },
          {
            "duration": 0.14772712500000296,
            "durationTicks": 156,
            "midi": 62,
            "name": "D4",
            "ticks": 70560,
            "time": 66.818115,
            "velocity": 0.4566929133858268
          },
          {
            "duration": 0.14772712500000296,
            "durationTicks": 156,
            "midi": 62,
            "name": "D4",
            "ticks": 70800,
            "time": 67.0453875,
            "velocity": 0.4566929133858268
          },
          {
            "duration": 0.14772712499998875,
            "durationTicks": 156,
            "midi": 61,
            "name": "C#4",
            "ticks": 71040,
            "time": 67.27266000000002,
            "velocity": 0.4566929133858268
          },
          {
            "duration": 0.14772712499998875,
            "durationTicks": 156,
            "midi": 61,
            "name": "C#4",
            "ticks": 71280,
            "time": 67.49993250000001,
            "velocity": 0.4566929133858268
          },
          {
            "duration": 0.14772712499998875,
            "durationTicks": 156,
            "midi": 62,
            "name": "D4",
            "ticks": 71520,
            "time": 67.72720500000001,
            "velocity": 0.4566929133858268
          },
          {
            "duration": 0.14772712499998875,
            "durationTicks": 156,
            "midi": 62,
            "name": "D4",
            "ticks": 71760,
            "time": 67.95447750000001,
            "velocity": 0.4566929133858268
          },
          {
            "duration": 0.14772712500000296,
            "durationTicks": 156,
            "midi": 64,
            "name": "E4",
            "ticks": 72000,
            "time": 68.18175000000001,
            "velocity": 0.4566929133858268
          },
          {
            "duration": 0.14772712500000296,
            "durationTicks": 156,
            "midi": 64,
            "name": "E4",
            "ticks": 72240,
            "time": 68.4090225,
            "velocity": 0.4566929133858268
          },
          {
            "duration": 0.14772712500000296,
            "durationTicks": 156,
            "midi": 61,
            "name": "C#4",
            "ticks": 72480,
            "time": 68.636295,
            "velocity": 0.4566929133858268
          },
          {
            "duration": 0.14772712499998875,
            "durationTicks": 156,
            "midi": 61,
            "name": "C#4",
            "ticks": 72720,
            "time": 68.86356750000002,
            "velocity": 0.4566929133858268
          },
          {
            "duration": 0.14772712499998875,
            "durationTicks": 156,
            "midi": 62,
            "name": "D4",
            "ticks": 72960,
            "time": 69.09084000000001,
            "velocity": 0.4566929133858268
          },
          {
            "duration": 0.14772712499998875,
            "durationTicks": 156,
            "midi": 62,
            "name": "D4",
            "ticks": 73200,
            "time": 69.31811250000001,
            "velocity": 0.8267716535433071
          },
          {
            "duration": 0.14772712499998875,
            "durationTicks": 156,
            "midi": 66,
            "name": "F#4",
            "ticks": 73440,
            "time": 69.54538500000001,
            "velocity": 0.8267716535433071
          },
          {
            "duration": 0.14772712500000296,
            "durationTicks": 156,
            "midi": 64,
            "name": "E4",
            "ticks": 73680,
            "time": 69.77265750000001,
            "velocity": 0.8267716535433071
          },
          {
            "duration": 0.14772712500000296,
            "durationTicks": 156,
            "midi": 63,
            "name": "D#4",
            "ticks": 73920,
            "time": 69.99993,
            "velocity": 0.8267716535433071
          },
          {
            "duration": 0.14772712500000296,
            "durationTicks": 156,
            "midi": 59,
            "name": "B3",
            "ticks": 74160,
            "time": 70.2272025,
            "velocity": 0.8267716535433071
          },
          {
            "duration": 0.14772712499998875,
            "durationTicks": 156,
            "midi": 61,
            "name": "C#4",
            "ticks": 74400,
            "time": 70.45447500000002,
            "velocity": 0.8267716535433071
          },
          {
            "duration": 0.14772712499998875,
            "durationTicks": 156,
            "midi": 63,
            "name": "D#4",
            "ticks": 74640,
            "time": 70.68174750000001,
            "velocity": 0.8267716535433071
          },
          {
            "duration": 0.14772712499998875,
            "durationTicks": 156,
            "midi": 64,
            "name": "E4",
            "ticks": 74880,
            "time": 70.90902000000001,
            "velocity": 0.8267716535433071
          },
          {
            "duration": 0.14772712499998875,
            "durationTicks": 156,
            "midi": 67,
            "name": "G4",
            "ticks": 75120,
            "time": 71.13629250000001,
            "velocity": 0.8267716535433071
          },
          {
            "duration": 0.14772712500000296,
            "durationTicks": 156,
            "midi": 64,
            "name": "E4",
            "ticks": 75360,
            "time": 71.36356500000001,
            "velocity": 0.8267716535433071
          },
          {
            "duration": 0.14772712500000296,
            "durationTicks": 156,
            "midi": 62,
            "name": "D4",
            "ticks": 75600,
            "time": 71.5908375,
            "velocity": 0.8267716535433071
          },
          {
            "duration": 0.14772712500000296,
            "durationTicks": 156,
            "midi": 61,
            "name": "C#4",
            "ticks": 75840,
            "time": 71.81811,
            "velocity": 0.8267716535433071
          },
          {
            "duration": 0.14772712499998875,
            "durationTicks": 156,
            "midi": 57,
            "name": "A3",
            "ticks": 76080,
            "time": 72.04538250000002,
            "velocity": 0.8267716535433071
          },
          {
            "duration": 0.14772712499998875,
            "durationTicks": 156,
            "midi": 59,
            "name": "B3",
            "ticks": 76320,
            "time": 72.27265500000001,
            "velocity": 0.8267716535433071
          },
          {
            "duration": 0.14772712499998875,
            "durationTicks": 156,
            "midi": 61,
            "name": "C#4",
            "ticks": 76560,
            "time": 72.49992750000001,
            "velocity": 0.8267716535433071
          },
          {
            "duration": 0.14772712499998875,
            "durationTicks": 156,
            "midi": 62,
            "name": "D4",
            "ticks": 76800,
            "time": 72.72720000000001,
            "velocity": 0.8267716535433071
          },
          {
            "duration": 0.14772712500000296,
            "durationTicks": 156,
            "midi": 74,
            "name": "D5",
            "ticks": 77040,
            "time": 72.95447250000001,
            "velocity": 0.8267716535433071
          },
          {
            "duration": 0.14772712500000296,
            "durationTicks": 156,
            "midi": 74,
            "name": "D5",
            "ticks": 77280,
            "time": 73.181745,
            "velocity": 0.8267716535433071
          },
          {
            "duration": 0.14772712500000296,
            "durationTicks": 156,
            "midi": 74,
            "name": "D5",
            "ticks": 77520,
            "time": 73.4090175,
            "velocity": 0.8267716535433071
          },
          {
            "duration": 0.14772712499998875,
            "durationTicks": 156,
            "midi": 74,
            "name": "D5",
            "ticks": 77760,
            "time": 73.63629000000002,
            "velocity": 0.8267716535433071
          },
          {
            "duration": 0.14772712499998875,
            "durationTicks": 156,
            "midi": 74,
            "name": "D5",
            "ticks": 78000,
            "time": 73.86356250000001,
            "velocity": 0.8267716535433071
          },
          {
            "duration": 0.14772712499998875,
            "durationTicks": 156,
            "midi": 74,
            "name": "D5",
            "ticks": 78240,
            "time": 74.09083500000001,
            "velocity": 0.8267716535433071
          },
          {
            "duration": 0.14772712499998875,
            "durationTicks": 156,
            "midi": 74,
            "name": "D5",
            "ticks": 78480,
            "time": 74.31810750000001,
            "velocity": 0.8267716535433071
          },
          {
            "duration": 0.227272499999998,
            "durationTicks": 240,
            "midi": 74,
            "name": "D5",
            "ticks": 78720,
            "time": 74.54538000000001,
            "velocity": 0.8267716535433071
          },
          {
            "duration": 0.14772712500000296,
            "durationTicks": 156,
            "midi": 69,
            "name": "A4",
            "ticks": 78960,
            "time": 74.7726525,
            "velocity": 0.8267716535433071
          },
          {
            "duration": 0.14772712500000296,
            "durationTicks": 156,
            "midi": 69,
            "name": "A4",
            "ticks": 79200,
            "time": 74.999925,
            "velocity": 0.8267716535433071
          },
          {
            "duration": 0.14772712499998875,
            "durationTicks": 156,
            "midi": 69,
            "name": "A4",
            "ticks": 79440,
            "time": 75.22719750000002,
            "velocity": 0.8267716535433071
          },
          {
            "duration": 0.14772712499998875,
            "durationTicks": 156,
            "midi": 69,
            "name": "A4",
            "ticks": 79680,
            "time": 75.45447000000001,
            "velocity": 0.8267716535433071
          },
          {
            "duration": 0.14772712499998875,
            "durationTicks": 156,
            "midi": 69,
            "name": "A4",
            "ticks": 79920,
            "time": 75.68174250000001,
            "velocity": 0.8267716535433071
          },
          {
            "duration": 0.14772712499998875,
            "durationTicks": 156,
            "midi": 69,
            "name": "A4",
            "ticks": 80160,
            "time": 75.90901500000001,
            "velocity": 0.8267716535433071
          },
          {
            "duration": 0.14772712500000296,
            "durationTicks": 156,
            "midi": 67,
            "name": "G4",
            "ticks": 80400,
            "time": 76.13628750000001,
            "velocity": 0.8267716535433071
          },
          {
            "duration": 0.14772712500000296,
            "durationTicks": 156,
            "midi": 66,
            "name": "F#4",
            "ticks": 80640,
            "time": 76.36356,
            "velocity": 0.7244094488188977
          },
          {
            "duration": 0.14772712500000296,
            "durationTicks": 156,
            "midi": 62,
            "name": "D4",
            "ticks": 80880,
            "time": 76.5908325,
            "velocity": 0.4566929133858268
          },
          {
            "duration": 0.14772712499998875,
            "durationTicks": 156,
            "midi": 64,
            "name": "E4",
            "ticks": 81120,
            "time": 76.81810500000002,
            "velocity": 0.4566929133858268
          },
          {
            "duration": 0.14772712499998875,
            "durationTicks": 156,
            "midi": 64,
            "name": "E4",
            "ticks": 81360,
            "time": 77.04537750000001,
            "velocity": 0.4566929133858268
          },
          {
            "duration": 0.14772712499998875,
            "durationTicks": 156,
            "midi": 66,
            "name": "F#4",
            "ticks": 81600,
            "time": 77.27265000000001,
            "velocity": 0.4566929133858268
          },
          {
            "duration": 0.14772712499998875,
            "durationTicks": 156,
            "midi": 66,
            "name": "F#4",
            "ticks": 81840,
            "time": 77.49992250000001,
            "velocity": 0.4566929133858268
          },
          {
            "duration": 0.14772712500000296,
            "durationTicks": 156,
            "midi": 62,
            "name": "D4",
            "ticks": 82080,
            "time": 77.72719500000001,
            "velocity": 0.4566929133858268
          },
          {
            "duration": 0.14772712500000296,
            "durationTicks": 156,
            "midi": 62,
            "name": "D4",
            "ticks": 82320,
            "time": 77.9544675,
            "velocity": 0.4566929133858268
          },
          {
            "duration": 0.14772712500000296,
            "durationTicks": 156,
            "midi": 61,
            "name": "C#4",
            "ticks": 82560,
            "time": 78.18174,
            "velocity": 0.4566929133858268
          },
          {
            "duration": 0.14772712499998875,
            "durationTicks": 156,
            "midi": 61,
            "name": "C#4",
            "ticks": 82800,
            "time": 78.40901250000002,
            "velocity": 0.4566929133858268
          },
          {
            "duration": 0.14772712499998875,
            "durationTicks": 156,
            "midi": 62,
            "name": "D4",
            "ticks": 83040,
            "time": 78.63628500000002,
            "velocity": 0.4566929133858268
          },
          {
            "duration": 0.14772712499998875,
            "durationTicks": 156,
            "midi": 62,
            "name": "D4",
            "ticks": 83280,
            "time": 78.86355750000001,
            "velocity": 0.4566929133858268
          },
          {
            "duration": 0.14772712499998875,
            "durationTicks": 156,
            "midi": 64,
            "name": "E4",
            "ticks": 83520,
            "time": 79.09083000000001,
            "velocity": 0.4566929133858268
          },
          {
            "duration": 0.14772712500000296,
            "durationTicks": 156,
            "midi": 64,
            "name": "E4",
            "ticks": 83760,
            "time": 79.31810250000001,
            "velocity": 0.4566929133858268
          },
          {
            "duration": 0.14772712500000296,
            "durationTicks": 156,
            "midi": 61,
            "name": "C#4",
            "ticks": 84000,
            "time": 79.545375,
            "velocity": 0.4566929133858268
          },
          {
            "duration": 0.14772712500000296,
            "durationTicks": 156,
            "midi": 61,
            "name": "C#4",
            "ticks": 84240,
            "time": 79.7726475,
            "velocity": 0.4566929133858268
          },
          {
            "duration": 0.14772712499998875,
            "durationTicks": 156,
            "midi": 62,
            "name": "D4",
            "ticks": 84480,
            "time": 79.99992000000002,
            "velocity": 0.4566929133858268
          },
          {
            "duration": 0.14772712499998875,
            "durationTicks": 156,
            "midi": 62,
            "name": "D4",
            "ticks": 84720,
            "time": 80.22719250000002,
            "velocity": 0.4566929133858268
          },
          {
            "duration": 0.14772712499998875,
            "durationTicks": 156,
            "midi": 64,
            "name": "E4",
            "ticks": 84960,
            "time": 80.45446500000001,
            "velocity": 0.4566929133858268
          },
          {
            "duration": 0.14772712499998875,
            "durationTicks": 156,
            "midi": 64,
            "name": "E4",
            "ticks": 85200,
            "time": 80.68173750000001,
            "velocity": 0.4566929133858268
          },
          {
            "duration": 0.14772712500000296,
            "durationTicks": 156,
            "midi": 66,
            "name": "F#4",
            "ticks": 85440,
            "time": 80.90901000000001,
            "velocity": 0.4566929133858268
          },
          {
            "duration": 0.14772712500000296,
            "durationTicks": 156,
            "midi": 66,
            "name": "F#4",
            "ticks": 85680,
            "time": 81.13628250000001,
            "velocity": 0.4566929133858268
          },
          {
            "duration": 0.14772712500000296,
            "durationTicks": 156,
            "midi": 62,
            "name": "D4",
            "ticks": 85920,
            "time": 81.363555,
            "velocity": 0.4566929133858268
          },
          {
            "duration": 0.14772712499998875,
            "durationTicks": 156,
            "midi": 62,
            "name": "D4",
            "ticks": 86160,
            "time": 81.59082750000002,
            "velocity": 0.4566929133858268
          },
          {
            "duration": 0.14772712499998875,
            "durationTicks": 156,
            "midi": 61,
            "name": "C#4",
            "ticks": 86400,
            "time": 81.81810000000002,
            "velocity": 0.4566929133858268
          },
          {
            "duration": 0.14772712499998875,
            "durationTicks": 156,
            "midi": 61,
            "name": "C#4",
            "ticks": 86640,
            "time": 82.04537250000001,
            "velocity": 0.4566929133858268
          },
          {
            "duration": 0.14772712499998875,
            "durationTicks": 156,
            "midi": 62,
            "name": "D4",
            "ticks": 86880,
            "time": 82.27264500000001,
            "velocity": 0.4566929133858268
          },
          {
            "duration": 0.14772712500000296,
            "durationTicks": 156,
            "midi": 62,
            "name": "D4",
            "ticks": 87120,
            "time": 82.49991750000001,
            "velocity": 0.4566929133858268
          },
          {
            "duration": 0.14772712500000296,
            "durationTicks": 156,
            "midi": 64,
            "name": "E4",
            "ticks": 87360,
            "time": 82.72719000000001,
            "velocity": 0.4566929133858268
          },
          {
            "duration": 0.14772712500000296,
            "durationTicks": 156,
            "midi": 64,
            "name": "E4",
            "ticks": 87600,
            "time": 82.9544625,
            "velocity": 0.4566929133858268
          },
          {
            "duration": 0.14772712499998875,
            "durationTicks": 156,
            "midi": 61,
            "name": "C#4",
            "ticks": 87840,
            "time": 83.18173500000002,
            "velocity": 0.4566929133858268
          },
          {
            "duration": 0.14772712499998875,
            "durationTicks": 156,
            "midi": 61,
            "name": "C#4",
            "ticks": 88080,
            "time": 83.40900750000002,
            "velocity": 0.4566929133858268
          },
          {
            "duration": 0.14772712499998875,
            "durationTicks": 156,
            "midi": 62,
            "name": "D4",
            "ticks": 88320,
            "time": 83.63628000000001,
            "velocity": 0.4566929133858268
          },
          {
            "duration": 0.14772712499998875,
            "durationTicks": 156,
            "midi": 62,
            "name": "D4",
            "ticks": 88560,
            "time": 83.86355250000001,
            "velocity": 0.8267716535433071
          },
          {
            "duration": 0.14772712500000296,
            "durationTicks": 156,
            "midi": 66,
            "name": "F#4",
            "ticks": 88800,
            "time": 84.09082500000001,
            "velocity": 0.8267716535433071
          },
          {
            "duration": 0.14772712500000296,
            "durationTicks": 156,
            "midi": 64,
            "name": "E4",
            "ticks": 89040,
            "time": 84.31809750000001,
            "velocity": 0.8267716535433071
          },
          {
            "duration": 0.14772712500000296,
            "durationTicks": 156,
            "midi": 63,
            "name": "D#4",
            "ticks": 89280,
            "time": 84.54537,
            "velocity": 0.8267716535433071
          },
          {
            "duration": 0.14772712499998875,
            "durationTicks": 156,
            "midi": 59,
            "name": "B3",
            "ticks": 89520,
            "time": 84.77264250000002,
            "velocity": 0.8267716535433071
          },
          {
            "duration": 0.14772712499998875,
            "durationTicks": 156,
            "midi": 61,
            "name": "C#4",
            "ticks": 89760,
            "time": 84.99991500000002,
            "velocity": 0.8267716535433071
          },
          {
            "duration": 0.14772712499998875,
            "durationTicks": 156,
            "midi": 63,
            "name": "D#4",
            "ticks": 90000,
            "time": 85.22718750000001,
            "velocity": 0.8267716535433071
          },
          {
            "duration": 0.14772712499998875,
            "durationTicks": 156,
            "midi": 64,
            "name": "E4",
            "ticks": 90240,
            "time": 85.45446000000001,
            "velocity": 0.8267716535433071
          },
          {
            "duration": 0.14772712500000296,
            "durationTicks": 156,
            "midi": 67,
            "name": "G4",
            "ticks": 90480,
            "time": 85.68173250000001,
            "velocity": 0.8267716535433071
          },
          {
            "duration": 0.14772712500000296,
            "durationTicks": 156,
            "midi": 64,
            "name": "E4",
            "ticks": 90720,
            "time": 85.90900500000001,
            "velocity": 0.8267716535433071
          },
          {
            "duration": 0.14772712500000296,
            "durationTicks": 156,
            "midi": 62,
            "name": "D4",
            "ticks": 90960,
            "time": 86.1362775,
            "velocity": 0.8267716535433071
          },
          {
            "duration": 0.14772712499998875,
            "durationTicks": 156,
            "midi": 61,
            "name": "C#4",
            "ticks": 91200,
            "time": 86.36355000000002,
            "velocity": 0.8267716535433071
          },
          {
            "duration": 0.14772712499998875,
            "durationTicks": 156,
            "midi": 57,
            "name": "A3",
            "ticks": 91440,
            "time": 86.59082250000002,
            "velocity": 0.8267716535433071
          },
          {
            "duration": 0.14772712499998875,
            "durationTicks": 156,
            "midi": 59,
            "name": "B3",
            "ticks": 91680,
            "time": 86.81809500000001,
            "velocity": 0.8267716535433071
          },
          {
            "duration": 0.14772712499998875,
            "durationTicks": 156,
            "midi": 61,
            "name": "C#4",
            "ticks": 91920,
            "time": 87.04536750000001,
            "velocity": 0.8267716535433071
          },
          {
            "duration": 0.14772712500000296,
            "durationTicks": 156,
            "midi": 62,
            "name": "D4",
            "ticks": 92160,
            "time": 87.27264000000001,
            "velocity": 0.8267716535433071
          },
          {
            "duration": 0.14772712500000296,
            "durationTicks": 156,
            "midi": 74,
            "name": "D5",
            "ticks": 92400,
            "time": 87.49991250000001,
            "velocity": 0.8267716535433071
          },
          {
            "duration": 0.14772712500000296,
            "durationTicks": 156,
            "midi": 74,
            "name": "D5",
            "ticks": 92640,
            "time": 87.727185,
            "velocity": 0.8267716535433071
          },
          {
            "duration": 0.14772712499998875,
            "durationTicks": 156,
            "midi": 74,
            "name": "D5",
            "ticks": 92880,
            "time": 87.95445750000002,
            "velocity": 0.8267716535433071
          },
          {
            "duration": 0.14772712499998875,
            "durationTicks": 156,
            "midi": 74,
            "name": "D5",
            "ticks": 93120,
            "time": 88.18173000000002,
            "velocity": 0.8267716535433071
          },
          {
            "duration": 0.14772712499998875,
            "durationTicks": 156,
            "midi": 74,
            "name": "D5",
            "ticks": 93360,
            "time": 88.40900250000001,
            "velocity": 0.8267716535433071
          },
          {
            "duration": 0.14772712499998875,
            "durationTicks": 156,
            "midi": 74,
            "name": "D5",
            "ticks": 93600,
            "time": 88.63627500000001,
            "velocity": 0.8267716535433071
          },
          {
            "duration": 0.14772712500000296,
            "durationTicks": 156,
            "midi": 74,
            "name": "D5",
            "ticks": 93840,
            "time": 88.86354750000001,
            "velocity": 0.8267716535433071
          },
          {
            "duration": 0.227272499999998,
            "durationTicks": 240,
            "midi": 74,
            "name": "D5",
            "ticks": 94080,
            "time": 89.09082000000001,
            "velocity": 0.8267716535433071
          },
          {
            "duration": 0.14772712500000296,
            "durationTicks": 156,
            "midi": 69,
            "name": "A4",
            "ticks": 94320,
            "time": 89.3180925,
            "velocity": 0.8267716535433071
          },
          {
            "duration": 0.14772712499998875,
            "durationTicks": 156,
            "midi": 69,
            "name": "A4",
            "ticks": 94560,
            "time": 89.54536500000002,
            "velocity": 0.8267716535433071
          },
          {
            "duration": 0.14772712499998875,
            "durationTicks": 156,
            "midi": 69,
            "name": "A4",
            "ticks": 94800,
            "time": 89.77263750000002,
            "velocity": 0.8267716535433071
          },
          {
            "duration": 0.14772712499998875,
            "durationTicks": 156,
            "midi": 69,
            "name": "A4",
            "ticks": 95040,
            "time": 89.99991000000001,
            "velocity": 0.8267716535433071
          },
          {
            "duration": 0.14772712499998875,
            "durationTicks": 156,
            "midi": 69,
            "name": "A4",
            "ticks": 95280,
            "time": 90.22718250000001,
            "velocity": 0.8267716535433071
          },
          {
            "duration": 0.14772712500000296,
            "durationTicks": 156,
            "midi": 69,
            "name": "A4",
            "ticks": 95520,
            "time": 90.45445500000001,
            "velocity": 0.8267716535433071
          },
          {
            "duration": 0.14772712500000296,
            "durationTicks": 156,
            "midi": 67,
            "name": "G4",
            "ticks": 95760,
            "time": 90.68172750000001,
            "velocity": 0.8267716535433071
          },
          {
            "duration": 0.14772712500000296,
            "durationTicks": 156,
            "midi": 66,
            "name": "F#4",
            "ticks": 96000,
            "time": 90.909,
            "velocity": 0.8267716535433071
          },
          {
            "duration": 0.14772712499998875,
            "durationTicks": 156,
            "midi": 57,
            "name": "A3",
            "ticks": 96240,
            "time": 91.13627250000002,
            "velocity": 0.8267716535433071
          },
          {
            "duration": 0.14772712499998875,
            "durationTicks": 156,
            "midi": 59,
            "name": "B3",
            "ticks": 96480,
            "time": 91.36354500000002,
            "velocity": 0.8267716535433071
          },
          {
            "duration": 0.14772712499998875,
            "durationTicks": 156,
            "midi": 61,
            "name": "C#4",
            "ticks": 96720,
            "time": 91.59081750000001,
            "velocity": 0.8267716535433071
          },
          {
            "duration": 0.14772712499998875,
            "durationTicks": 156,
            "midi": 62,
            "name": "D4",
            "ticks": 96960,
            "time": 91.81809000000001,
            "velocity": 0.8267716535433071
          },
          {
            "duration": 0.14772712500000296,
            "durationTicks": 156,
            "midi": 62,
            "name": "D4",
            "ticks": 97200,
            "time": 92.04536250000001,
            "velocity": 0.8267716535433071
          },
          {
            "duration": 0.14772712500000296,
            "durationTicks": 156,
            "midi": 64,
            "name": "E4",
            "ticks": 97440,
            "time": 92.27263500000001,
            "velocity": 0.8267716535433071
          },
          {
            "duration": 0.14772712500000296,
            "durationTicks": 156,
            "midi": 64,
            "name": "E4",
            "ticks": 97680,
            "time": 92.4999075,
            "velocity": 0.8267716535433071
          },
          {
            "duration": 0.14772712499998875,
            "durationTicks": 156,
            "midi": 66,
            "name": "F#4",
            "ticks": 97920,
            "time": 92.72718000000002,
            "velocity": 0.8267716535433071
          },
          {
            "duration": 0.14772712499998875,
            "durationTicks": 156,
            "midi": 61,
            "name": "C#4",
            "ticks": 98160,
            "time": 92.95445250000002,
            "velocity": 0.8267716535433071
          },
          {
            "duration": 0.14772712499998875,
            "durationTicks": 156,
            "midi": 62,
            "name": "D4",
            "ticks": 98400,
            "time": 93.18172500000001,
            "velocity": 0.8267716535433071
          },
          {
            "duration": 0.14772712499998875,
            "durationTicks": 156,
            "midi": 64,
            "name": "E4",
            "ticks": 98640,
            "time": 93.40899750000001,
            "velocity": 0.8267716535433071
          },
          {
            "duration": 0.14772712500000296,
            "durationTicks": 156,
            "midi": 66,
            "name": "F#4",
            "ticks": 98880,
            "time": 93.63627000000001,
            "velocity": 0.8267716535433071
          },
          {
            "duration": 0.14772712500000296,
            "durationTicks": 156,
            "midi": 66,
            "name": "F#4",
            "ticks": 99120,
            "time": 93.86354250000001,
            "velocity": 0.8267716535433071
          },
          {
            "duration": 0.14772712500000296,
            "durationTicks": 156,
            "midi": 67,
            "name": "G4",
            "ticks": 99360,
            "time": 94.090815,
            "velocity": 0.8267716535433071
          },
          {
            "duration": 0.14772712499998875,
            "durationTicks": 156,
            "midi": 67,
            "name": "G4",
            "ticks": 99600,
            "time": 94.31808750000002,
            "velocity": 0.8267716535433071
          },
          {
            "duration": 0.14772712499998875,
            "durationTicks": 156,
            "midi": 69,
            "name": "A4",
            "ticks": 99840,
            "time": 94.54536000000002,
            "velocity": 0.8267716535433071
          },
          {
            "duration": 0.14772712499998875,
            "durationTicks": 156,
            "midi": 69,
            "name": "A4",
            "ticks": 100080,
            "time": 94.77263250000001,
            "velocity": 0.8267716535433071
          },
          {
            "duration": 0.14772712499998875,
            "durationTicks": 156,
            "midi": 70,
            "name": "A#4",
            "ticks": 100320,
            "time": 94.99990500000001,
            "velocity": 0.8267716535433071
          },
          {
            "duration": 0.14772712500000296,
            "durationTicks": 156,
            "midi": 70,
            "name": "A#4",
            "ticks": 100560,
            "time": 95.22717750000001,
            "velocity": 0.8267716535433071
          },
          {
            "duration": 0.36363600000001384,
            "durationTicks": 384,
            "midi": 71,
            "name": "B4",
            "ticks": 100800,
            "time": 95.45445000000001,
            "velocity": 0.7244094488188977
          },
          {
            "duration": 1.3636350000000022,
            "durationTicks": 1440,
            "midi": 64,
            "name": "E4",
            "ticks": 101760,
            "time": 96.36354000000001,
            "velocity": 0.4566929133858268
          },
          {
            "duration": 0.227272499999998,
            "durationTicks": 240,
            "midi": 62,
            "name": "D4",
            "ticks": 103200,
            "time": 97.72717500000002,
            "velocity": 0.4566929133858268
          },
          {
            "duration": 0.18181800000000692,
            "durationTicks": 192,
            "midi": 61,
            "name": "C#4",
            "ticks": 103440,
            "time": 97.95444750000001,
            "velocity": 0.4566929133858268
          },
          {
            "duration": 0.18181800000000692,
            "durationTicks": 192,
            "midi": 62,
            "name": "D4",
            "ticks": 103680,
            "time": 98.18172000000001,
            "velocity": 0.4566929133858268
          },
          {
            "duration": 0.18181800000000692,
            "durationTicks": 192,
            "midi": 62,
            "name": "D4",
            "ticks": 104160,
            "time": 98.63626500000001,
            "velocity": 0.4566929133858268
          },
          {
            "duration": 0.1818179999999927,
            "durationTicks": 192,
            "midi": 62,
            "name": "D4",
            "ticks": 104640,
            "time": 99.09081000000002,
            "velocity": 0.4566929133858268
          },
          {
            "duration": 0.36363600000001384,
            "durationTicks": 384,
            "midi": 67,
            "name": "G4",
            "ticks": 105600,
            "time": 99.99990000000001,
            "velocity": 0.4566929133858268
          },
          {
            "duration": 0.13636350000000164,
            "durationTicks": 144,
            "midi": 62,
            "name": "D4",
            "ticks": 106320,
            "time": 100.68171750000002,
            "velocity": 0.8267716535433071
          },
          {
            "duration": 0.3636359999999996,
            "durationTicks": 384,
            "midi": 67,
            "name": "G4",
            "ticks": 106560,
            "time": 100.90899000000002,
            "velocity": 0.8267716535433071
          },
          {
            "duration": 0.13636350000000164,
            "durationTicks": 144,
            "midi": 62,
            "name": "D4",
            "ticks": 107280,
            "time": 101.59080750000001,
            "velocity": 0.8267716535433071
          },
          {
            "duration": 0.13636350000001585,
            "durationTicks": 144,
            "midi": 67,
            "name": "G4",
            "ticks": 107520,
            "time": 101.81808000000001,
            "velocity": 0.8267716535433071
          },
          {
            "duration": 0.13636350000001585,
            "durationTicks": 144,
            "midi": 62,
            "name": "D4",
            "ticks": 107760,
            "time": 102.0453525,
            "velocity": 0.8267716535433071
          },
          {
            "duration": 0.13636350000000164,
            "durationTicks": 144,
            "midi": 67,
            "name": "G4",
            "ticks": 108000,
            "time": 102.27262500000002,
            "velocity": 0.8267716535433071
          },
          {
            "duration": 0.13636350000000164,
            "durationTicks": 144,
            "midi": 71,
            "name": "B4",
            "ticks": 108240,
            "time": 102.49989750000002,
            "velocity": 0.8267716535433071
          },
          {
            "duration": 0.3636359999999996,
            "durationTicks": 384,
            "midi": 74,
            "name": "D5",
            "ticks": 108480,
            "time": 102.72717000000002,
            "velocity": 0.8267716535433071
          },
          {
            "duration": 0.36363600000001384,
            "durationTicks": 384,
            "midi": 72,
            "name": "C5",
            "ticks": 109440,
            "time": 103.63626000000001,
            "velocity": 0.8267716535433071
          },
          {
            "duration": 0.13636350000000164,
            "durationTicks": 144,
            "midi": 69,
            "name": "A4",
            "ticks": 110160,
            "time": 104.31807750000002,
            "velocity": 0.8267716535433071
          },
          {
            "duration": 0.3636359999999996,
            "durationTicks": 384,
            "midi": 72,
            "name": "C5",
            "ticks": 110400,
            "time": 104.54535000000001,
            "velocity": 0.8267716535433071
          },
          {
            "duration": 0.13636350000001585,
            "durationTicks": 144,
            "midi": 69,
            "name": "A4",
            "ticks": 111120,
            "time": 105.22716750000001,
            "velocity": 0.8267716535433071
          },
          {
            "duration": 0.13636350000000164,
            "durationTicks": 144,
            "midi": 72,
            "name": "C5",
            "ticks": 111360,
            "time": 105.45444000000002,
            "velocity": 0.8267716535433071
          },
          {
            "duration": 0.13636350000000164,
            "durationTicks": 144,
            "midi": 69,
            "name": "A4",
            "ticks": 111600,
            "time": 105.68171250000002,
            "velocity": 0.8267716535433071
          },
          {
            "duration": 0.13636350000000164,
            "durationTicks": 144,
            "midi": 66,
            "name": "F#4",
            "ticks": 111840,
            "time": 105.90898500000002,
            "velocity": 0.8267716535433071
          },
          {
            "duration": 0.13636350000000164,
            "durationTicks": 144,
            "midi": 69,
            "name": "A4",
            "ticks": 112080,
            "time": 106.13625750000001,
            "velocity": 0.8267716535433071
          },
          {
            "duration": 0.36363600000001384,
            "durationTicks": 384,
            "midi": 62,
            "name": "D4",
            "ticks": 112320,
            "time": 106.36353000000001,
            "velocity": 0.8267716535433071
          },
          {
            "duration": 0.14772712499998875,
            "durationTicks": 156,
            "midi": 67,
            "name": "G4",
            "ticks": 113280,
            "time": 107.27262000000002,
            "velocity": 0.8267716535433071
          },
          {
            "duration": 0.14772712499998875,
            "durationTicks": 156,
            "midi": 67,
            "name": "G4",
            "ticks": 113520,
            "time": 107.49989250000002,
            "velocity": 0.8267716535433071
          },
          {
            "duration": 0.14772712499998875,
            "durationTicks": 156,
            "midi": 67,
            "name": "G4",
            "ticks": 113760,
            "time": 107.72716500000001,
            "velocity": 0.8267716535433071
          },
          {
            "duration": 0.14772712500000296,
            "durationTicks": 156,
            "midi": 67,
            "name": "G4",
            "ticks": 114000,
            "time": 107.95443750000001,
            "velocity": 0.8267716535433071
          },
          {
            "duration": 0.14772712500000296,
            "durationTicks": 156,
            "midi": 67,
            "name": "G4",
            "ticks": 114240,
            "time": 108.18171000000001,
            "velocity": 0.8267716535433071
          },
          {
            "duration": 0.14772712500000296,
            "durationTicks": 156,
            "midi": 67,
            "name": "G4",
            "ticks": 114480,
            "time": 108.40898250000001,
            "velocity": 0.8267716535433071
          },
          {
            "duration": 0.14772712499998875,
            "durationTicks": 156,
            "midi": 67,
            "name": "G4",
            "ticks": 114720,
            "time": 108.63625500000002,
            "velocity": 0.8267716535433071
          },
          {
            "duration": 0.14772712499998875,
            "durationTicks": 156,
            "midi": 67,
            "name": "G4",
            "ticks": 114960,
            "time": 108.86352750000002,
            "velocity": 0.8267716535433071
          },
          {
            "duration": 0.14772712499998875,
            "durationTicks": 156,
            "midi": 69,
            "name": "A4",
            "ticks": 115200,
            "time": 109.09080000000002,
            "velocity": 0.8267716535433071
          },
          {
            "duration": 0.14772712499998875,
            "durationTicks": 156,
            "midi": 69,
            "name": "A4",
            "ticks": 115440,
            "time": 109.31807250000001,
            "velocity": 0.8267716535433071
          },
          {
            "duration": 0.14772712500000296,
            "durationTicks": 156,
            "midi": 69,
            "name": "A4",
            "ticks": 115680,
            "time": 109.54534500000001,
            "velocity": 0.8267716535433071
          },
          {
            "duration": 0.14772712500000296,
            "durationTicks": 156,
            "midi": 69,
            "name": "A4",
            "ticks": 115920,
            "time": 109.77261750000001,
            "velocity": 0.8267716535433071
          },
          {
            "duration": 0.2272725000000122,
            "durationTicks": 240,
            "midi": 69,
            "name": "A4",
            "ticks": 116160,
            "time": 109.99989000000001,
            "velocity": 0.8267716535433071
          },
          {
            "duration": 0.14772712499998875,
            "durationTicks": 156,
            "midi": 72,
            "name": "C5",
            "ticks": 116400,
            "time": 110.22716250000002,
            "velocity": 0.8267716535433071
          },
          {
            "duration": 0.227272499999998,
            "durationTicks": 240,
            "midi": 66,
            "name": "F#4",
            "ticks": 116640,
            "time": 110.45443500000002,
            "velocity": 0.8267716535433071
          },
          {
            "duration": 0.14772712499998875,
            "durationTicks": 156,
            "midi": 69,
            "name": "A4",
            "ticks": 116880,
            "time": 110.68170750000002,
            "velocity": 0.8267716535433071
          },
          {
            "duration": 0.14772712499998875,
            "durationTicks": 156,
            "midi": 67,
            "name": "G4",
            "ticks": 117120,
            "time": 110.90898000000001,
            "velocity": 0.8267716535433071
          },
          {
            "duration": 0.14772712500000296,
            "durationTicks": 156,
            "midi": 67,
            "name": "G4",
            "ticks": 117360,
            "time": 111.13625250000001,
            "velocity": 0.8267716535433071
          },
          {
            "duration": 0.14772712500000296,
            "durationTicks": 156,
            "midi": 67,
            "name": "G4",
            "ticks": 117600,
            "time": 111.36352500000001,
            "velocity": 0.8267716535433071
          },
          {
            "duration": 0.14772712500000296,
            "durationTicks": 156,
            "midi": 67,
            "name": "G4",
            "ticks": 117840,
            "time": 111.59079750000001,
            "velocity": 0.8267716535433071
          },
          {
            "duration": 0.14772712499998875,
            "durationTicks": 156,
            "midi": 67,
            "name": "G4",
            "ticks": 118080,
            "time": 111.81807000000002,
            "velocity": 0.8267716535433071
          },
          {
            "duration": 0.14772712499998875,
            "durationTicks": 156,
            "midi": 67,
            "name": "G4",
            "ticks": 118320,
            "time": 112.04534250000002,
            "velocity": 0.8267716535433071
          },
          {
            "duration": 0.14772712499998875,
            "durationTicks": 156,
            "midi": 67,
            "name": "G4",
            "ticks": 118560,
            "time": 112.27261500000002,
            "velocity": 0.8267716535433071
          },
          {
            "duration": 0.14772712499998875,
            "durationTicks": 156,
            "midi": 67,
            "name": "G4",
            "ticks": 118800,
            "time": 112.49988750000001,
            "velocity": 0.8267716535433071
          },
          {
            "duration": 0.14772712500000296,
            "durationTicks": 156,
            "midi": 69,
            "name": "A4",
            "ticks": 119040,
            "time": 112.72716000000001,
            "velocity": 0.8267716535433071
          },
          {
            "duration": 0.14772712500000296,
            "durationTicks": 156,
            "midi": 69,
            "name": "A4",
            "ticks": 119280,
            "time": 112.95443250000001,
            "velocity": 0.8267716535433071
          },
          {
            "duration": 0.14772712500000296,
            "durationTicks": 156,
            "midi": 69,
            "name": "A4",
            "ticks": 119520,
            "time": 113.18170500000001,
            "velocity": 0.8267716535433071
          },
          {
            "duration": 0.14772712499998875,
            "durationTicks": 156,
            "midi": 69,
            "name": "A4",
            "ticks": 119760,
            "time": 113.40897750000002,
            "velocity": 0.8267716535433071
          },
          {
            "duration": 0.227272499999998,
            "durationTicks": 240,
            "midi": 69,
            "name": "A4",
            "ticks": 120000,
            "time": 113.63625000000002,
            "velocity": 0.8267716535433071
          },
          {
            "duration": 0.14772712499998875,
            "durationTicks": 156,
            "midi": 72,
            "name": "C5",
            "ticks": 120240,
            "time": 113.86352250000002,
            "velocity": 0.8267716535433071
          },
          {
            "duration": 0.227272499999998,
            "durationTicks": 240,
            "midi": 66,
            "name": "F#4",
            "ticks": 120480,
            "time": 114.09079500000001,
            "velocity": 0.8267716535433071
          },
          {
            "duration": 0.14772712500000296,
            "durationTicks": 156,
            "midi": 69,
            "name": "A4",
            "ticks": 120720,
            "time": 114.31806750000001,
            "velocity": 0.8267716535433071
          },
          {
            "duration": 0.09090899999999635,
            "durationTicks": 96,
            "midi": 62,
            "name": "D4",
            "ticks": 120960,
            "time": 114.54534000000001,
            "velocity": 0.8267716535433071
          },
          {
            "duration": 0.09090899999999635,
            "durationTicks": 96,
            "midi": 62,
            "name": "D4",
            "ticks": 121080,
            "time": 114.65897625000001,
            "velocity": 0.8267716535433071
          },
          {
            "duration": 0.09090899999999635,
            "durationTicks": 96,
            "midi": 62,
            "name": "D4",
            "ticks": 121200,
            "time": 114.77261250000001,
            "velocity": 0.8267716535433071
          },
          {
            "duration": 0.09090899999998214,
            "durationTicks": 96,
            "midi": 62,
            "name": "D4",
            "ticks": 121320,
            "time": 114.88624875000002,
            "velocity": 0.8267716535433071
          },
          {
            "duration": 0.09090899999998214,
            "durationTicks": 96,
            "midi": 62,
            "name": "D4",
            "ticks": 121440,
            "time": 114.99988500000002,
            "velocity": 0.8267716535433071
          },
          {
            "duration": 0.09090899999999635,
            "durationTicks": 96,
            "midi": 62,
            "name": "D4",
            "ticks": 121560,
            "time": 115.11352125000002,
            "velocity": 0.8267716535433071
          },
          {
            "duration": 0.09090899999999635,
            "durationTicks": 96,
            "midi": 62,
            "name": "D4",
            "ticks": 121680,
            "time": 115.22715750000002,
            "velocity": 0.8267716535433071
          },
          {
            "duration": 0.09090899999999635,
            "durationTicks": 96,
            "midi": 62,
            "name": "D4",
            "ticks": 121800,
            "time": 115.34079375000002,
            "velocity": 0.8267716535433071
          },
          {
            "duration": 0.09090899999999635,
            "durationTicks": 96,
            "midi": 62,
            "name": "D4",
            "ticks": 121920,
            "time": 115.45443000000002,
            "velocity": 0.8267716535433071
          },
          {
            "duration": 0.09090899999999635,
            "durationTicks": 96,
            "midi": 62,
            "name": "D4",
            "ticks": 122040,
            "time": 115.56806625000002,
            "velocity": 0.8267716535433071
          },
          {
            "duration": 0.09090899999999635,
            "durationTicks": 96,
            "midi": 62,
            "name": "D4",
            "ticks": 122160,
            "time": 115.68170250000001,
            "velocity": 0.8267716535433071
          },
          {
            "duration": 0.09090899999999635,
            "durationTicks": 96,
            "midi": 62,
            "name": "D4",
            "ticks": 122280,
            "time": 115.79533875000001,
            "velocity": 0.8267716535433071
          },
          {
            "duration": 0.09090899999999635,
            "durationTicks": 96,
            "midi": 62,
            "name": "D4",
            "ticks": 122400,
            "time": 115.90897500000001,
            "velocity": 0.8267716535433071
          },
          {
            "duration": 0.09090899999999635,
            "durationTicks": 96,
            "midi": 62,
            "name": "D4",
            "ticks": 122520,
            "time": 116.02261125000001,
            "velocity": 0.8267716535433071
          },
          {
            "duration": 0.09090899999999635,
            "durationTicks": 96,
            "midi": 62,
            "name": "D4",
            "ticks": 122640,
            "time": 116.13624750000001,
            "velocity": 0.8267716535433071
          },
          {
            "duration": 0.09090899999999635,
            "durationTicks": 96,
            "midi": 62,
            "name": "D4",
            "ticks": 122760,
            "time": 116.24988375000001,
            "velocity": 0.8267716535433071
          },
          {
            "duration": 0.09090899999999635,
            "durationTicks": 96,
            "midi": 62,
            "name": "D4",
            "ticks": 122880,
            "time": 116.36352000000001,
            "velocity": 0.8267716535433071
          },
          {
            "duration": 0.09090899999998214,
            "durationTicks": 96,
            "midi": 62,
            "name": "D4",
            "ticks": 123000,
            "time": 116.47715625000002,
            "velocity": 0.8267716535433071
          },
          {
            "duration": 0.09090899999998214,
            "durationTicks": 96,
            "midi": 62,
            "name": "D4",
            "ticks": 123120,
            "time": 116.59079250000002,
            "velocity": 0.8267716535433071
          },
          {
            "duration": 0.09090899999999635,
            "durationTicks": 96,
            "midi": 62,
            "name": "D4",
            "ticks": 123240,
            "time": 116.70442875000002,
            "velocity": 0.8267716535433071
          },
          {
            "duration": 0.09090899999999635,
            "durationTicks": 96,
            "midi": 62,
            "name": "D4",
            "ticks": 123360,
            "time": 116.81806500000002,
            "velocity": 0.8267716535433071
          },
          {
            "duration": 0.09090899999999635,
            "durationTicks": 96,
            "midi": 62,
            "name": "D4",
            "ticks": 123480,
            "time": 116.93170125000002,
            "velocity": 0.8267716535433071
          },
          {
            "duration": 0.09090899999999635,
            "durationTicks": 96,
            "midi": 62,
            "name": "D4",
            "ticks": 123600,
            "time": 117.04533750000002,
            "velocity": 0.8267716535433071
          },
          {
            "duration": 0.09090899999999635,
            "durationTicks": 96,
            "midi": 62,
            "name": "D4",
            "ticks": 123720,
            "time": 117.15897375000002,
            "velocity": 0.8267716535433071
          },
          {
            "duration": 0.3636359999999996,
            "durationTicks": 384,
            "midi": 62,
            "name": "D4",
            "ticks": 123840,
            "time": 117.27261000000001,
            "velocity": 0.7244094488188977
          },
          {
            "duration": 0.909089999999992,
            "durationTicks": 960,
            "midi": 54,
            "name": "F#3",
            "ticks": 126720,
            "time": 119.99988000000002,
            "velocity": 0.4566929133858268
          },
          {
            "duration": 0.7272720000000135,
            "durationTicks": 768,
            "midi": 55,
            "name": "G3",
            "ticks": 127680,
            "time": 120.90897000000001,
            "velocity": 0.4566929133858268
          },
          {
            "duration": 0.2954542499999917,
            "durationTicks": 312,
            "midi": 60,
            "name": "C4",
            "ticks": 128640,
            "time": 121.81806000000002,
            "velocity": 0.4566929133858268
          },
          {
            "duration": 0.2954542499999917,
            "durationTicks": 312,
            "midi": 60,
            "name": "C4",
            "ticks": 129120,
            "time": 122.27260500000001,
            "velocity": 0.4566929133858268
          },
          {
            "duration": 0.2954542499999917,
            "durationTicks": 312,
            "midi": 57,
            "name": "A3",
            "ticks": 129600,
            "time": 122.72715000000001,
            "velocity": 0.4566929133858268
          },
          {
            "duration": 0.2954542499999917,
            "durationTicks": 312,
            "midi": 50,
            "name": "D3",
            "ticks": 130080,
            "time": 123.18169500000002,
            "velocity": 0.4566929133858268
          },
          {
            "duration": 0.1818179999999927,
            "durationTicks": 192,
            "midi": 50,
            "name": "D3",
            "ticks": 130560,
            "time": 123.63624000000002,
            "velocity": 0.4566929133858268
          },
          {
            "duration": 0.1818179999999927,
            "durationTicks": 192,
            "midi": 62,
            "name": "D4",
            "ticks": 131040,
            "time": 124.09078500000001,
            "velocity": 0.4566929133858268
          },
          {
            "duration": 0.3636359999999996,
            "durationTicks": 384,
            "midi": 62,
            "name": "D4",
            "ticks": 131520,
            "time": 124.54533000000002,
            "velocity": 0.4566929133858268
          },
          {
            "duration": 0.909089999999992,
            "durationTicks": 960,
            "midi": 66,
            "name": "F#4",
            "ticks": 134400,
            "time": 127.27260000000001,
            "velocity": 0.4566929133858268
          },
          {
            "duration": 0.7272720000000277,
            "durationTicks": 768,
            "midi": 67,
            "name": "G4",
            "ticks": 135360,
            "time": 128.18169,
            "velocity": 0.4566929133858268
          },
          {
            "duration": 0.2954542500000059,
            "durationTicks": 312,
            "midi": 60,
            "name": "C4",
            "ticks": 136320,
            "time": 129.09078,
            "velocity": 0.4566929133858268
          },
          {
            "duration": 0.14772712500001717,
            "durationTicks": 156,
            "midi": 60,
            "name": "C4",
            "ticks": 136800,
            "time": 129.545325,
            "velocity": 0.4566929133858268
          },
          {
            "duration": 0.14772712500001717,
            "durationTicks": 156,
            "midi": 60,
            "name": "C4",
            "ticks": 137040,
            "time": 129.7725975,
            "velocity": 0.4566929133858268
          },
          {
            "duration": 0.2954542500000059,
            "durationTicks": 312,
            "midi": 57,
            "name": "A3",
            "ticks": 137280,
            "time": 129.99987,
            "velocity": 0.4566929133858268
          },
          {
            "duration": 0.14772712499998875,
            "durationTicks": 156,
            "midi": 57,
            "name": "A3",
            "ticks": 137760,
            "time": 130.454415,
            "velocity": 0.4566929133858268
          },
          {
            "duration": 0.14772712499998875,
            "durationTicks": 156,
            "midi": 57,
            "name": "A3",
            "ticks": 138000,
            "time": 130.6816875,
            "velocity": 0.4566929133858268
          },
          {
            "duration": 0.1818179999999927,
            "durationTicks": 192,
            "midi": 55,
            "name": "G3",
            "ticks": 138240,
            "time": 130.90896,
            "velocity": 0.8818897637795275
          },
          {
            "duration": 0.1818179999999927,
            "durationTicks": 192,
            "midi": 55,
            "name": "G3",
            "ticks": 138480,
            "time": 131.1362325,
            "velocity": 0.7244094488188977
          },
          {
            "duration": 0.1818179999999927,
            "durationTicks": 192,
            "midi": 55,
            "name": "G3",
            "ticks": 138720,
            "time": 131.363505,
            "velocity": 0.7244094488188977
          },
          {
            "duration": 0.1818179999999927,
            "durationTicks": 192,
            "midi": 55,
            "name": "G3",
            "ticks": 138960,
            "time": 131.5907775,
            "velocity": 0.7244094488188977
          },
          {
            "duration": 0.1818179999999927,
            "durationTicks": 192,
            "midi": 55,
            "name": "G3",
            "ticks": 139200,
            "time": 131.81805,
            "velocity": 0.5669291338582677
          },
          {
            "duration": 0.1818179999999927,
            "durationTicks": 192,
            "midi": 55,
            "name": "G3",
            "ticks": 139440,
            "time": 132.0453225,
            "velocity": 0.5669291338582677
          },
          {
            "duration": 0.1818179999999927,
            "durationTicks": 192,
            "midi": 55,
            "name": "G3",
            "ticks": 139680,
            "time": 132.272595,
            "velocity": 0.5669291338582677
          },
          {
            "duration": 0.1818179999999927,
            "durationTicks": 192,
            "midi": 55,
            "name": "G3",
            "ticks": 139920,
            "time": 132.4998675,
            "velocity": 0.5669291338582677
          },
          {
            "duration": 0.1818179999999927,
            "durationTicks": 192,
            "midi": 55,
            "name": "G3",
            "ticks": 140160,
            "time": 132.72714,
            "velocity": 0.8818897637795275
          },
          {
            "duration": 0.1818179999999927,
            "durationTicks": 192,
            "midi": 55,
            "name": "G3",
            "ticks": 140400,
            "time": 132.9544125,
            "velocity": 0.7244094488188977
          },
          {
            "duration": 0.1818179999999927,
            "durationTicks": 192,
            "midi": 55,
            "name": "G3",
            "ticks": 140640,
            "time": 133.181685,
            "velocity": 0.7244094488188977
          },
          {
            "duration": 0.18181799999996429,
            "durationTicks": 192,
            "midi": 55,
            "name": "G3",
            "ticks": 140880,
            "time": 133.4089575,
            "velocity": 0.7244094488188977
          },
          {
            "duration": 0.1818179999999927,
            "durationTicks": 192,
            "midi": 55,
            "name": "G3",
            "ticks": 141120,
            "time": 133.63623,
            "velocity": 0.5669291338582677
          },
          {
            "duration": 0.1818179999999927,
            "durationTicks": 192,
            "midi": 55,
            "name": "G3",
            "ticks": 141360,
            "time": 133.8635025,
            "velocity": 0.5669291338582677
          },
          {
            "duration": 0.1818179999999927,
            "durationTicks": 192,
            "midi": 55,
            "name": "G3",
            "ticks": 141600,
            "time": 134.090775,
            "velocity": 0.5669291338582677
          },
          {
            "duration": 0.1818179999999927,
            "durationTicks": 192,
            "midi": 55,
            "name": "G3",
            "ticks": 141840,
            "time": 134.3180475,
            "velocity": 0.5669291338582677
          },
          {
            "duration": 0.13636350000001585,
            "durationTicks": 144,
            "midi": 55,
            "name": "G3",
            "ticks": 142080,
            "time": 134.54532,
            "velocity": 0.5669291338582677
          },
          {
            "duration": 0.13636350000001585,
            "durationTicks": 144,
            "midi": 67,
            "name": "G4",
            "ticks": 142320,
            "time": 134.7725925,
            "velocity": 0.5669291338582677
          },
          {
            "duration": 0.13636350000001585,
            "durationTicks": 144,
            "midi": 67,
            "name": "G4",
            "ticks": 142560,
            "time": 134.999865,
            "velocity": 0.5669291338582677
          },
          {
            "duration": 0.13636350000001585,
            "durationTicks": 144,
            "midi": 67,
            "name": "G4",
            "ticks": 142800,
            "time": 135.2271375,
            "velocity": 0.5669291338582677
          },
          {
            "duration": 0.13636350000001585,
            "durationTicks": 144,
            "midi": 67,
            "name": "G4",
            "ticks": 143040,
            "time": 135.45441,
            "velocity": 0.6377952755905512
          },
          {
            "duration": 0.13636350000001585,
            "durationTicks": 144,
            "midi": 67,
            "name": "G4",
            "ticks": 143280,
            "time": 135.6816825,
            "velocity": 0.6377952755905512
          },
          {
            "duration": 0.13636350000001585,
            "durationTicks": 144,
            "midi": 69,
            "name": "A4",
            "ticks": 143520,
            "time": 135.908955,
            "velocity": 0.6377952755905512
          },
          {
            "duration": 0.13636350000001585,
            "durationTicks": 144,
            "midi": 69,
            "name": "A4",
            "ticks": 143760,
            "time": 136.1362275,
            "velocity": 0.6377952755905512
          },
          {
            "duration": 0.13636350000001585,
            "durationTicks": 144,
            "midi": 67,
            "name": "G4",
            "ticks": 144000,
            "time": 136.3635,
            "velocity": 0.7244094488188977
          },
          {
            "duration": 0.13636349999998743,
            "durationTicks": 144,
            "midi": 67,
            "name": "G4",
            "ticks": 144240,
            "time": 136.5907725,
            "velocity": 0.7244094488188977
          },
          {
            "duration": 0.13636349999998743,
            "durationTicks": 144,
            "midi": 66,
            "name": "F#4",
            "ticks": 144480,
            "time": 136.818045,
            "velocity": 0.7244094488188977
          },
          {
            "duration": 0.13636349999998743,
            "durationTicks": 144,
            "midi": 66,
            "name": "F#4",
            "ticks": 144720,
            "time": 137.0453175,
            "velocity": 0.7244094488188977
          },
          {
            "duration": 0.13636349999998743,
            "durationTicks": 144,
            "midi": 67,
            "name": "G4",
            "ticks": 144960,
            "time": 137.27259,
            "velocity": 0.8267716535433071
          },
          {
            "duration": 0.13636349999998743,
            "durationTicks": 144,
            "midi": 67,
            "name": "G4",
            "ticks": 145200,
            "time": 137.4998625,
            "velocity": 0.8267716535433071
          },
          {
            "duration": 0.13636350000001585,
            "durationTicks": 144,
            "midi": 64,
            "name": "E4",
            "ticks": 145440,
            "time": 137.727135,
            "velocity": 0.8267716535433071
          },
          {
            "duration": 0.13636350000001585,
            "durationTicks": 144,
            "midi": 64,
            "name": "E4",
            "ticks": 145680,
            "time": 137.9544075,
            "velocity": 0.8267716535433071
          },
          {
            "duration": 0.09090900000001056,
            "durationTicks": 96,
            "midi": 62,
            "name": "D4",
            "ticks": 145920,
            "time": 138.18168,
            "velocity": 0.8267716535433071
          },
          {
            "duration": 0.09090900000001056,
            "durationTicks": 96,
            "midi": 69,
            "name": "A4",
            "ticks": 145920,
            "time": 138.18168,
            "velocity": 0.8267716535433071
          },
          {
            "duration": 0.09090899999998214,
            "durationTicks": 96,
            "midi": 62,
            "name": "D4",
            "ticks": 146040,
            "time": 138.29531625,
            "velocity": 0.8267716535433071
          },
          {
            "duration": 0.09090899999998214,
            "durationTicks": 96,
            "midi": 69,
            "name": "A4",
            "ticks": 146040,
            "time": 138.29531625,
            "velocity": 0.8267716535433071
          },
          {
            "duration": 0.09090900000001056,
            "durationTicks": 96,
            "midi": 62,
            "name": "D4",
            "ticks": 146160,
            "time": 138.4089525,
            "velocity": 0.8267716535433071
          },
          {
            "duration": 0.09090900000001056,
            "durationTicks": 96,
            "midi": 69,
            "name": "A4",
            "ticks": 146160,
            "time": 138.4089525,
            "velocity": 0.8267716535433071
          },
          {
            "duration": 0.09090899999998214,
            "durationTicks": 96,
            "midi": 62,
            "name": "D4",
            "ticks": 146280,
            "time": 138.52258875,
            "velocity": 0.8267716535433071
          },
          {
            "duration": 0.09090899999998214,
            "durationTicks": 96,
            "midi": 69,
            "name": "A4",
            "ticks": 146280,
            "time": 138.52258875,
            "velocity": 0.8267716535433071
          },
          {
            "duration": 0.09090900000001056,
            "durationTicks": 96,
            "midi": 62,
            "name": "D4",
            "ticks": 146400,
            "time": 138.636225,
            "velocity": 0.8267716535433071
          },
          {
            "duration": 0.09090900000001056,
            "durationTicks": 96,
            "midi": 69,
            "name": "A4",
            "ticks": 146400,
            "time": 138.636225,
            "velocity": 0.8267716535433071
          },
          {
            "duration": 0.09090899999998214,
            "durationTicks": 96,
            "midi": 62,
            "name": "D4",
            "ticks": 146520,
            "time": 138.74986125,
            "velocity": 0.8267716535433071
          },
          {
            "duration": 0.09090899999998214,
            "durationTicks": 96,
            "midi": 69,
            "name": "A4",
            "ticks": 146520,
            "time": 138.74986125,
            "velocity": 0.8267716535433071
          },
          {
            "duration": 0.09090900000001056,
            "durationTicks": 96,
            "midi": 62,
            "name": "D4",
            "ticks": 146640,
            "time": 138.8634975,
            "velocity": 0.8267716535433071
          },
          {
            "duration": 0.09090900000001056,
            "durationTicks": 96,
            "midi": 69,
            "name": "A4",
            "ticks": 146640,
            "time": 138.8634975,
            "velocity": 0.8267716535433071
          },
          {
            "duration": 0.09090899999998214,
            "durationTicks": 96,
            "midi": 62,
            "name": "D4",
            "ticks": 146760,
            "time": 138.97713375,
            "velocity": 0.8267716535433071
          },
          {
            "duration": 0.09090899999998214,
            "durationTicks": 96,
            "midi": 69,
            "name": "A4",
            "ticks": 146760,
            "time": 138.97713375,
            "velocity": 0.8267716535433071
          },
          {
            "duration": 0.09090900000001056,
            "durationTicks": 96,
            "midi": 64,
            "name": "E4",
            "ticks": 146880,
            "time": 139.09077,
            "velocity": 0.8267716535433071
          },
          {
            "duration": 0.09090900000001056,
            "durationTicks": 96,
            "midi": 69,
            "name": "A4",
            "ticks": 146880,
            "time": 139.09077,
            "velocity": 0.8267716535433071
          },
          {
            "duration": 0.09090899999998214,
            "durationTicks": 96,
            "midi": 64,
            "name": "E4",
            "ticks": 147000,
            "time": 139.20440625,
            "velocity": 0.8267716535433071
          },
          {
            "duration": 0.09090899999998214,
            "durationTicks": 96,
            "midi": 69,
            "name": "A4",
            "ticks": 147000,
            "time": 139.20440625,
            "velocity": 0.8267716535433071
          },
          {
            "duration": 0.09090900000001056,
            "durationTicks": 96,
            "midi": 64,
            "name": "E4",
            "ticks": 147120,
            "time": 139.3180425,
            "velocity": 0.8267716535433071
          },
          {
            "duration": 0.09090900000001056,
            "durationTicks": 96,
            "midi": 69,
            "name": "A4",
            "ticks": 147120,
            "time": 139.3180425,
            "velocity": 0.8267716535433071
          },
          {
            "duration": 0.09090899999998214,
            "durationTicks": 96,
            "midi": 64,
            "name": "E4",
            "ticks": 147240,
            "time": 139.43167875,
            "velocity": 0.8267716535433071
          },
          {
            "duration": 0.09090899999998214,
            "durationTicks": 96,
            "midi": 69,
            "name": "A4",
            "ticks": 147240,
            "time": 139.43167875,
            "velocity": 0.8267716535433071
          },
          {
            "duration": 0.09090900000001056,
            "durationTicks": 96,
            "midi": 64,
            "name": "E4",
            "ticks": 147360,
            "time": 139.545315,
            "velocity": 0.8267716535433071
          },
          {
            "duration": 0.09090900000001056,
            "durationTicks": 96,
            "midi": 69,
            "name": "A4",
            "ticks": 147360,
            "time": 139.545315,
            "velocity": 0.8267716535433071
          },
          {
            "duration": 0.09090899999998214,
            "durationTicks": 96,
            "midi": 64,
            "name": "E4",
            "ticks": 147480,
            "time": 139.65895125,
            "velocity": 0.8267716535433071
          },
          {
            "duration": 0.09090899999998214,
            "durationTicks": 96,
            "midi": 69,
            "name": "A4",
            "ticks": 147480,
            "time": 139.65895125,
            "velocity": 0.8267716535433071
          },
          {
            "duration": 0.09090899999998214,
            "durationTicks": 96,
            "midi": 64,
            "name": "E4",
            "ticks": 147600,
            "time": 139.77258750000001,
            "velocity": 0.8267716535433071
          },
          {
            "duration": 0.09090899999998214,
            "durationTicks": 96,
            "midi": 69,
            "name": "A4",
            "ticks": 147600,
            "time": 139.77258750000001,
            "velocity": 0.8267716535433071
          },
          {
            "duration": 0.09090900000001056,
            "durationTicks": 96,
            "midi": 64,
            "name": "E4",
            "ticks": 147720,
            "time": 139.88622375,
            "velocity": 0.8267716535433071
          },
          {
            "duration": 0.09090900000001056,
            "durationTicks": 96,
            "midi": 69,
            "name": "A4",
            "ticks": 147720,
            "time": 139.88622375,
            "velocity": 0.8267716535433071
          },
          {
            "duration": 0.09090899999998214,
            "durationTicks": 96,
            "midi": 62,
            "name": "D4",
            "ticks": 147840,
            "time": 139.99986,
            "velocity": 0.8267716535433071
          },
          {
            "duration": 0.09090899999998214,
            "durationTicks": 96,
            "midi": 69,
            "name": "A4",
            "ticks": 147840,
            "time": 139.99986,
            "velocity": 0.8267716535433071
          },
          {
            "duration": 0.09090900000001056,
            "durationTicks": 96,
            "midi": 62,
            "name": "D4",
            "ticks": 147960,
            "time": 140.11349625,
            "velocity": 0.8267716535433071
          },
          {
            "duration": 0.09090900000001056,
            "durationTicks": 96,
            "midi": 69,
            "name": "A4",
            "ticks": 147960,
            "time": 140.11349625,
            "velocity": 0.8267716535433071
          },
          {
            "duration": 0.09090899999998214,
            "durationTicks": 96,
            "midi": 62,
            "name": "D4",
            "ticks": 148080,
            "time": 140.2271325,
            "velocity": 0.8267716535433071
          },
          {
            "duration": 0.09090899999998214,
            "durationTicks": 96,
            "midi": 69,
            "name": "A4",
            "ticks": 148080,
            "time": 140.2271325,
            "velocity": 0.8267716535433071
          },
          {
            "duration": 0.09090900000001056,
            "durationTicks": 96,
            "midi": 62,
            "name": "D4",
            "ticks": 148200,
            "time": 140.34076875,
            "velocity": 0.8267716535433071
          },
          {
            "duration": 0.09090900000001056,
            "durationTicks": 96,
            "midi": 69,
            "name": "A4",
            "ticks": 148200,
            "time": 140.34076875,
            "velocity": 0.8267716535433071
          },
          {
            "duration": 0.09090899999998214,
            "durationTicks": 96,
            "midi": 62,
            "name": "D4",
            "ticks": 148320,
            "time": 140.454405,
            "velocity": 0.8267716535433071
          },
          {
            "duration": 0.09090899999998214,
            "durationTicks": 96,
            "midi": 69,
            "name": "A4",
            "ticks": 148320,
            "time": 140.454405,
            "velocity": 0.8267716535433071
          },
          {
            "duration": 0.09090900000001056,
            "durationTicks": 96,
            "midi": 62,
            "name": "D4",
            "ticks": 148440,
            "time": 140.56804125,
            "velocity": 0.8267716535433071
          },
          {
            "duration": 0.09090900000001056,
            "durationTicks": 96,
            "midi": 69,
            "name": "A4",
            "ticks": 148440,
            "time": 140.56804125,
            "velocity": 0.8267716535433071
          },
          {
            "duration": 0.09090899999998214,
            "durationTicks": 96,
            "midi": 62,
            "name": "D4",
            "ticks": 148560,
            "time": 140.6816775,
            "velocity": 0.8267716535433071
          },
          {
            "duration": 0.09090899999998214,
            "durationTicks": 96,
            "midi": 69,
            "name": "A4",
            "ticks": 148560,
            "time": 140.6816775,
            "velocity": 0.8267716535433071
          },
          {
            "duration": 0.09090900000001056,
            "durationTicks": 96,
            "midi": 62,
            "name": "D4",
            "ticks": 148680,
            "time": 140.79531375,
            "velocity": 0.8267716535433071
          },
          {
            "duration": 0.09090900000001056,
            "durationTicks": 96,
            "midi": 69,
            "name": "A4",
            "ticks": 148680,
            "time": 140.79531375,
            "velocity": 0.8267716535433071
          },
          {
            "duration": 0.09090899999998214,
            "durationTicks": 96,
            "midi": 64,
            "name": "E4",
            "ticks": 148800,
            "time": 140.90895,
            "velocity": 0.8267716535433071
          },
          {
            "duration": 0.09090899999998214,
            "durationTicks": 96,
            "midi": 69,
            "name": "A4",
            "ticks": 148800,
            "time": 140.90895,
            "velocity": 0.8267716535433071
          },
          {
            "duration": 0.09090900000001056,
            "durationTicks": 96,
            "midi": 64,
            "name": "E4",
            "ticks": 148920,
            "time": 141.02258625,
            "velocity": 0.8267716535433071
          },
          {
            "duration": 0.09090900000001056,
            "durationTicks": 96,
            "midi": 69,
            "name": "A4",
            "ticks": 148920,
            "time": 141.02258625,
            "velocity": 0.8267716535433071
          },
          {
            "duration": 0.09090899999998214,
            "durationTicks": 96,
            "midi": 64,
            "name": "E4",
            "ticks": 149040,
            "time": 141.1362225,
            "velocity": 0.8267716535433071
          },
          {
            "duration": 0.09090899999998214,
            "durationTicks": 96,
            "midi": 69,
            "name": "A4",
            "ticks": 149040,
            "time": 141.1362225,
            "velocity": 0.8267716535433071
          },
          {
            "duration": 0.09090899999998214,
            "durationTicks": 96,
            "midi": 64,
            "name": "E4",
            "ticks": 149160,
            "time": 141.24985875000002,
            "velocity": 0.8267716535433071
          },
          {
            "duration": 0.09090899999998214,
            "durationTicks": 96,
            "midi": 69,
            "name": "A4",
            "ticks": 149160,
            "time": 141.24985875000002,
            "velocity": 0.8267716535433071
          },
          {
            "duration": 0.09090900000001056,
            "durationTicks": 96,
            "midi": 64,
            "name": "E4",
            "ticks": 149280,
            "time": 141.363495,
            "velocity": 0.8267716535433071
          },
          {
            "duration": 0.09090900000001056,
            "durationTicks": 96,
            "midi": 69,
            "name": "A4",
            "ticks": 149280,
            "time": 141.363495,
            "velocity": 0.8267716535433071
          },
          {
            "duration": 0.09090899999998214,
            "durationTicks": 96,
            "midi": 64,
            "name": "E4",
            "ticks": 149400,
            "time": 141.47713125,
            "velocity": 0.8267716535433071
          },
          {
            "duration": 0.09090899999998214,
            "durationTicks": 96,
            "midi": 69,
            "name": "A4",
            "ticks": 149400,
            "time": 141.47713125,
            "velocity": 0.8267716535433071
          },
          {
            "duration": 0.09090900000001056,
            "durationTicks": 96,
            "midi": 64,
            "name": "E4",
            "ticks": 149520,
            "time": 141.5907675,
            "velocity": 0.8267716535433071
          },
          {
            "duration": 0.09090900000001056,
            "durationTicks": 96,
            "midi": 69,
            "name": "A4",
            "ticks": 149520,
            "time": 141.5907675,
            "velocity": 0.8267716535433071
          },
          {
            "duration": 0.09090899999998214,
            "durationTicks": 96,
            "midi": 64,
            "name": "E4",
            "ticks": 149640,
            "time": 141.70440375,
            "velocity": 0.8267716535433071
          },
          {
            "duration": 0.09090899999998214,
            "durationTicks": 96,
            "midi": 69,
            "name": "A4",
            "ticks": 149640,
            "time": 141.70440375,
            "velocity": 0.8267716535433071
          },
          {
            "duration": 0.14772712499998875,
            "durationTicks": 156,
            "midi": 66,
            "name": "F#4",
            "ticks": 149760,
            "time": 141.81804,
            "velocity": 0.8267716535433071
          },
          {
            "duration": 0.14772712499998875,
            "durationTicks": 156,
            "midi": 67,
            "name": "G4",
            "ticks": 150000,
            "time": 142.0453125,
            "velocity": 0.8267716535433071
          },
          {
            "duration": 0.14772712500001717,
            "durationTicks": 156,
            "midi": 69,
            "name": "A4",
            "ticks": 150240,
            "time": 142.272585,
            "velocity": 0.8267716535433071
          },
          {
            "duration": 0.14772712500001717,
            "durationTicks": 156,
            "midi": 67,
            "name": "G4",
            "ticks": 150480,
            "time": 142.4998575,
            "velocity": 0.8267716535433071
          },
          {
            "duration": 0.14772712500001717,
            "durationTicks": 156,
            "midi": 66,
            "name": "F#4",
            "ticks": 150720,
            "time": 142.72713,
            "velocity": 0.8267716535433071
          },
          {
            "duration": 0.14772712499998875,
            "durationTicks": 156,
            "midi": 67,
            "name": "G4",
            "ticks": 150960,
            "time": 142.95440250000001,
            "velocity": 0.8267716535433071
          },
          {
            "duration": 0.14772712499998875,
            "durationTicks": 156,
            "midi": 69,
            "name": "A4",
            "ticks": 151200,
            "time": 143.181675,
            "velocity": 0.8267716535433071
          },
          {
            "duration": 0.14772712499998875,
            "durationTicks": 156,
            "midi": 66,
            "name": "F#4",
            "ticks": 151440,
            "time": 143.4089475,
            "velocity": 0.8267716535433071
          },
          {
            "duration": 0.14772712499998875,
            "durationTicks": 156,
            "midi": 71,
            "name": "B4",
            "ticks": 151680,
            "time": 143.63622,
            "velocity": 0.8267716535433071
          },
          {
            "duration": 0.14772712499998875,
            "durationTicks": 156,
            "midi": 69,
            "name": "A4",
            "ticks": 151920,
            "time": 143.8634925,
            "velocity": 0.8267716535433071
          },
          {
            "duration": 0.14772712499998875,
            "durationTicks": 156,
            "midi": 67,
            "name": "G4",
            "ticks": 152160,
            "time": 144.090765,
            "velocity": 0.8267716535433071
          },
          {
            "duration": 0.14772712499998875,
            "durationTicks": 156,
            "midi": 69,
            "name": "A4",
            "ticks": 152400,
            "time": 144.3180375,
            "velocity": 0.8267716535433071
          },
          {
            "duration": 0.14772712499998875,
            "durationTicks": 156,
            "midi": 71,
            "name": "B4",
            "ticks": 152640,
            "time": 144.54531,
            "velocity": 0.8267716535433071
          },
          {
            "duration": 0.14772712499998875,
            "durationTicks": 156,
            "midi": 69,
            "name": "A4",
            "ticks": 152880,
            "time": 144.7725825,
            "velocity": 0.8267716535433071
          },
          {
            "duration": 0.14772712499998875,
            "durationTicks": 156,
            "midi": 68,
            "name": "G#4",
            "ticks": 153120,
            "time": 144.999855,
            "velocity": 0.8267716535433071
          },
          {
            "duration": 0.14772712499998875,
            "durationTicks": 156,
            "midi": 71,
            "name": "B4",
            "ticks": 153360,
            "time": 145.2271275,
            "velocity": 0.8267716535433071
          },
          {
            "duration": 0.14772712500001717,
            "durationTicks": 156,
            "midi": 69,
            "name": "A4",
            "ticks": 153600,
            "time": 145.4544,
            "velocity": 0.8267716535433071
          },
          {
            "duration": 0.14772712500001717,
            "durationTicks": 156,
            "midi": 69,
            "name": "A4",
            "ticks": 153840,
            "time": 145.6816725,
            "velocity": 0.8267716535433071
          },
          {
            "duration": 0.14772712500001717,
            "durationTicks": 156,
            "midi": 69,
            "name": "A4",
            "ticks": 154080,
            "time": 145.908945,
            "velocity": 0.8267716535433071
          },
          {
            "duration": 0.14772712499998875,
            "durationTicks": 156,
            "midi": 69,
            "name": "A4",
            "ticks": 154320,
            "time": 146.13621750000001,
            "velocity": 0.8267716535433071
          },
          {
            "duration": 0.14772712499998875,
            "durationTicks": 156,
            "midi": 69,
            "name": "A4",
            "ticks": 154560,
            "time": 146.36349,
            "velocity": 0.8267716535433071
          },
          {
            "duration": 0.14772712499998875,
            "durationTicks": 156,
            "midi": 69,
            "name": "A4",
            "ticks": 154800,
            "time": 146.5907625,
            "velocity": 0.8267716535433071
          },
          {
            "duration": 0.14772712499998875,
            "durationTicks": 156,
            "midi": 69,
            "name": "A4",
            "ticks": 155040,
            "time": 146.818035,
            "velocity": 0.8267716535433071
          },
          {
            "duration": 0.14772712499998875,
            "durationTicks": 156,
            "midi": 69,
            "name": "A4",
            "ticks": 155280,
            "time": 147.0453075,
            "velocity": 0.8267716535433071
          },
          {
            "duration": 0.14772712499998875,
            "durationTicks": 156,
            "midi": 69,
            "name": "A4",
            "ticks": 155520,
            "time": 147.27258,
            "velocity": 0.8267716535433071
          },
          {
            "duration": 0.14772712499998875,
            "durationTicks": 156,
            "midi": 57,
            "name": "A3",
            "ticks": 155760,
            "time": 147.4998525,
            "velocity": 0.8267716535433071
          },
          {
            "duration": 0.14772712499998875,
            "durationTicks": 156,
            "midi": 57,
            "name": "A3",
            "ticks": 156000,
            "time": 147.727125,
            "velocity": 0.8267716535433071
          },
          {
            "duration": 0.14772712499998875,
            "durationTicks": 156,
            "midi": 57,
            "name": "A3",
            "ticks": 156240,
            "time": 147.9543975,
            "velocity": 0.8267716535433071
          },
          {
            "duration": 0.36363600000001384,
            "durationTicks": 384,
            "midi": 57,
            "name": "A3",
            "ticks": 156480,
            "time": 148.18167,
            "velocity": 0.7244094488188977
          },
          {
            "duration": 0.1818179999999927,
            "durationTicks": 192,
            "midi": 66,
            "name": "F#4",
            "ticks": 158880,
            "time": 150.454395,
            "velocity": 0.4566929133858268
          },
          {
            "duration": 0.1818179999999927,
            "durationTicks": 192,
            "midi": 59,
            "name": "B3",
            "ticks": 159360,
            "time": 150.90894,
            "velocity": 0.4566929133858268
          },
          {
            "duration": 0.1818179999999927,
            "durationTicks": 192,
            "midi": 67,
            "name": "G4",
            "ticks": 159840,
            "time": 151.363485,
            "velocity": 0.4566929133858268
          },
          {
            "duration": 0.1818179999999927,
            "durationTicks": 192,
            "midi": 64,
            "name": "E4",
            "ticks": 160320,
            "time": 151.81803,
            "velocity": 0.4566929133858268
          },
          {
            "duration": 0.1818179999999927,
            "durationTicks": 192,
            "midi": 61,
            "name": "C#4",
            "ticks": 160800,
            "time": 152.272575,
            "velocity": 0.4566929133858268
          },
          {
            "duration": 0.454544999999996,
            "durationTicks": 480,
            "midi": 64,
            "name": "E4",
            "ticks": 161760,
            "time": 153.181665,
            "velocity": 0.4566929133858268
          },
          {
            "duration": 0.1818179999999927,
            "durationTicks": 192,
            "midi": 62,
            "name": "D4",
            "ticks": 162240,
            "time": 153.63621,
            "velocity": 0.4566929133858268
          },
          {
            "duration": 0.1818179999999927,
            "durationTicks": 192,
            "midi": 64,
            "name": "E4",
            "ticks": 162720,
            "time": 154.090755,
            "velocity": 0.4566929133858268
          },
          {
            "duration": 0.909089999999992,
            "durationTicks": 960,
            "midi": 62,
            "name": "D4",
            "ticks": 163200,
            "time": 154.5453,
            "velocity": 0.4566929133858268
          },
          {
            "duration": 0.36363600000001384,
            "durationTicks": 384,
            "midi": 61,
            "name": "C#4",
            "ticks": 164160,
            "time": 155.45439,
            "velocity": 0.4566929133858268
          },
          {
            "duration": 0.454544999999996,
            "durationTicks": 480,
            "midi": 61,
            "name": "C#4",
            "ticks": 165600,
            "time": 156.818025,
            "velocity": 0.4566929133858268
          },
          {
            "duration": 0.1818179999999927,
            "durationTicks": 192,
            "midi": 62,
            "name": "D4",
            "ticks": 166080,
            "time": 157.27257,
            "velocity": 0.4566929133858268
          },
          {
            "duration": 0.1818179999999927,
            "durationTicks": 192,
            "midi": 66,
            "name": "F#4",
            "ticks": 166560,
            "time": 157.727115,
            "velocity": 0.4566929133858268
          },
          {
            "duration": 0.1818179999999927,
            "durationTicks": 192,
            "midi": 59,
            "name": "B3",
            "ticks": 167040,
            "time": 158.18166,
            "velocity": 0.4566929133858268
          },
          {
            "duration": 0.1818179999999927,
            "durationTicks": 192,
            "midi": 55,
            "name": "G3",
            "ticks": 167520,
            "time": 158.636205,
            "velocity": 0.4566929133858268
          },
          {
            "duration": 0.3636359999999854,
            "durationTicks": 384,
            "midi": 52,
            "name": "E3",
            "ticks": 168000,
            "time": 159.09075,
            "velocity": 0.4566929133858268
          },
          {
            "duration": 0.1818179999999927,
            "durationTicks": 192,
            "midi": 64,
            "name": "E4",
            "ticks": 168720,
            "time": 159.7725675,
            "velocity": 0.4566929133858268
          },
          {
            "duration": 0.227272499999998,
            "durationTicks": 240,
            "midi": 64,
            "name": "E4",
            "ticks": 168960,
            "time": 159.99984,
            "velocity": 0.5669291338582677
          },
          {
            "duration": 0.1818179999999927,
            "durationTicks": 192,
            "midi": 62,
            "name": "D4",
            "ticks": 169200,
            "time": 160.2271125,
            "velocity": 0.5669291338582677
          },
          {
            "duration": 0.14772712500001717,
            "durationTicks": 156,
            "midi": 62,
            "name": "D4",
            "ticks": 170880,
            "time": 161.81802,
            "velocity": 0.4566929133858268
          },
          {
            "duration": 0.14772712499998875,
            "durationTicks": 156,
            "midi": 62,
            "name": "D4",
            "ticks": 171120,
            "time": 162.04529250000002,
            "velocity": 0.4566929133858268
          },
          {
            "duration": 0.14772712499998875,
            "durationTicks": 156,
            "midi": 64,
            "name": "E4",
            "ticks": 171360,
            "time": 162.27256500000001,
            "velocity": 0.4566929133858268
          },
          {
            "duration": 0.14772712499998875,
            "durationTicks": 156,
            "midi": 64,
            "name": "E4",
            "ticks": 171600,
            "time": 162.4998375,
            "velocity": 0.4566929133858268
          },
          {
            "duration": 0.14772712499998875,
            "durationTicks": 156,
            "midi": 66,
            "name": "F#4",
            "ticks": 171840,
            "time": 162.72711,
            "velocity": 0.4566929133858268
          },
          {
            "duration": 0.14772712499998875,
            "durationTicks": 156,
            "midi": 66,
            "name": "F#4",
            "ticks": 172080,
            "time": 162.9543825,
            "velocity": 0.4566929133858268
          },
          {
            "duration": 0.14772712499998875,
            "durationTicks": 156,
            "midi": 62,
            "name": "D4",
            "ticks": 172320,
            "time": 163.181655,
            "velocity": 0.4566929133858268
          },
          {
            "duration": 0.14772712499998875,
            "durationTicks": 156,
            "midi": 62,
            "name": "D4",
            "ticks": 172560,
            "time": 163.4089275,
            "velocity": 0.4566929133858268
          },
          {
            "duration": 0.14772712499998875,
            "durationTicks": 156,
            "midi": 61,
            "name": "C#4",
            "ticks": 172800,
            "time": 163.6362,
            "velocity": 0.4566929133858268
          },
          {
            "duration": 0.14772712499998875,
            "durationTicks": 156,
            "midi": 61,
            "name": "C#4",
            "ticks": 173040,
            "time": 163.8634725,
            "velocity": 0.4566929133858268
          },
          {
            "duration": 0.14772712499998875,
            "durationTicks": 156,
            "midi": 62,
            "name": "D4",
            "ticks": 173280,
            "time": 164.090745,
            "velocity": 0.4566929133858268
          },
          {
            "duration": 0.14772712499998875,
            "durationTicks": 156,
            "midi": 62,
            "name": "D4",
            "ticks": 173520,
            "time": 164.3180175,
            "velocity": 0.4566929133858268
          },
          {
            "duration": 0.14772712500001717,
            "durationTicks": 156,
            "midi": 64,
            "name": "E4",
            "ticks": 173760,
            "time": 164.54529,
            "velocity": 0.4566929133858268
          },
          {
            "duration": 0.14772712500001717,
            "durationTicks": 156,
            "midi": 64,
            "name": "E4",
            "ticks": 174000,
            "time": 164.7725625,
            "velocity": 0.4566929133858268
          },
          {
            "duration": 0.14772712500001717,
            "durationTicks": 156,
            "midi": 61,
            "name": "C#4",
            "ticks": 174240,
            "time": 164.999835,
            "velocity": 0.4566929133858268
          },
          {
            "duration": 0.14772712499998875,
            "durationTicks": 156,
            "midi": 61,
            "name": "C#4",
            "ticks": 174480,
            "time": 165.22710750000002,
            "velocity": 0.4566929133858268
          },
          {
            "duration": 0.14772712499998875,
            "durationTicks": 156,
            "midi": 62,
            "name": "D4",
            "ticks": 174720,
            "time": 165.45438000000001,
            "velocity": 0.4566929133858268
          },
          {
            "duration": 0.14772712499998875,
            "durationTicks": 156,
            "midi": 62,
            "name": "D4",
            "ticks": 174960,
            "time": 165.6816525,
            "velocity": 0.4566929133858268
          },
          {
            "duration": 0.14772712499998875,
            "durationTicks": 156,
            "midi": 64,
            "name": "E4",
            "ticks": 175200,
            "time": 165.908925,
            "velocity": 0.4566929133858268
          },
          {
            "duration": 0.14772712499998875,
            "durationTicks": 156,
            "midi": 64,
            "name": "E4",
            "ticks": 175440,
            "time": 166.1361975,
            "velocity": 0.4566929133858268
          },
          {
            "duration": 0.14772712499998875,
            "durationTicks": 156,
            "midi": 66,
            "name": "F#4",
            "ticks": 175680,
            "time": 166.36347,
            "velocity": 0.4566929133858268
          },
          {
            "duration": 0.14772712499998875,
            "durationTicks": 156,
            "midi": 66,
            "name": "F#4",
            "ticks": 175920,
            "time": 166.5907425,
            "velocity": 0.4566929133858268
          },
          {
            "duration": 0.14772712499998875,
            "durationTicks": 156,
            "midi": 62,
            "name": "D4",
            "ticks": 176160,
            "time": 166.818015,
            "velocity": 0.4566929133858268
          },
          {
            "duration": 0.14772712499998875,
            "durationTicks": 156,
            "midi": 62,
            "name": "D4",
            "ticks": 176400,
            "time": 167.0452875,
            "velocity": 0.4566929133858268
          },
          {
            "duration": 0.14772712499998875,
            "durationTicks": 156,
            "midi": 61,
            "name": "C#4",
            "ticks": 176640,
            "time": 167.27256,
            "velocity": 0.4566929133858268
          },
          {
            "duration": 0.14772712499998875,
            "durationTicks": 156,
            "midi": 61,
            "name": "C#4",
            "ticks": 176880,
            "time": 167.4998325,
            "velocity": 0.4566929133858268
          },
          {
            "duration": 0.14772712500001717,
            "durationTicks": 156,
            "midi": 62,
            "name": "D4",
            "ticks": 177120,
            "time": 167.727105,
            "velocity": 0.4566929133858268
          },
          {
            "duration": 0.14772712500001717,
            "durationTicks": 156,
            "midi": 62,
            "name": "D4",
            "ticks": 177360,
            "time": 167.9543775,
            "velocity": 0.4566929133858268
          },
          {
            "duration": 0.14772712500001717,
            "durationTicks": 156,
            "midi": 64,
            "name": "E4",
            "ticks": 177600,
            "time": 168.18165,
            "velocity": 0.4566929133858268
          },
          {
            "duration": 0.14772712499998875,
            "durationTicks": 156,
            "midi": 64,
            "name": "E4",
            "ticks": 177840,
            "time": 168.40892250000002,
            "velocity": 0.4566929133858268
          },
          {
            "duration": 0.14772712499998875,
            "durationTicks": 156,
            "midi": 61,
            "name": "C#4",
            "ticks": 178080,
            "time": 168.63619500000001,
            "velocity": 0.4566929133858268
          },
          {
            "duration": 0.14772712499998875,
            "durationTicks": 156,
            "midi": 61,
            "name": "C#4",
            "ticks": 178320,
            "time": 168.8634675,
            "velocity": 0.4566929133858268
          },
          {
            "duration": 0.14772712499998875,
            "durationTicks": 156,
            "midi": 62,
            "name": "D4",
            "ticks": 178560,
            "time": 169.09074,
            "velocity": 0.4566929133858268
          },
          {
            "duration": 0.14772712499998875,
            "durationTicks": 156,
            "midi": 62,
            "name": "D4",
            "ticks": 178800,
            "time": 169.3180125,
            "velocity": 0.8267716535433071
          },
          {
            "duration": 0.14772712499998875,
            "durationTicks": 156,
            "midi": 66,
            "name": "F#4",
            "ticks": 179040,
            "time": 169.545285,
            "velocity": 0.8267716535433071
          },
          {
            "duration": 0.14772712499998875,
            "durationTicks": 156,
            "midi": 64,
            "name": "E4",
            "ticks": 179280,
            "time": 169.7725575,
            "velocity": 0.8267716535433071
          },
          {
            "duration": 0.14772712499998875,
            "durationTicks": 156,
            "midi": 63,
            "name": "D#4",
            "ticks": 179520,
            "time": 169.99983,
            "velocity": 0.8267716535433071
          },
          {
            "duration": 0.14772712499998875,
            "durationTicks": 156,
            "midi": 59,
            "name": "B3",
            "ticks": 179760,
            "time": 170.2271025,
            "velocity": 0.8267716535433071
          },
          {
            "duration": 0.14772712499998875,
            "durationTicks": 156,
            "midi": 61,
            "name": "C#4",
            "ticks": 180000,
            "time": 170.454375,
            "velocity": 0.8267716535433071
          },
          {
            "duration": 0.14772712499998875,
            "durationTicks": 156,
            "midi": 63,
            "name": "D#4",
            "ticks": 180240,
            "time": 170.6816475,
            "velocity": 0.8267716535433071
          },
          {
            "duration": 0.14772712500001717,
            "durationTicks": 156,
            "midi": 64,
            "name": "E4",
            "ticks": 180480,
            "time": 170.90892,
            "velocity": 0.8267716535433071
          },
          {
            "duration": 0.14772712500001717,
            "durationTicks": 156,
            "midi": 67,
            "name": "G4",
            "ticks": 180720,
            "time": 171.1361925,
            "velocity": 0.8267716535433071
          },
          {
            "duration": 0.14772712500001717,
            "durationTicks": 156,
            "midi": 64,
            "name": "E4",
            "ticks": 180960,
            "time": 171.363465,
            "velocity": 0.8267716535433071
          },
          {
            "duration": 0.14772712499998875,
            "durationTicks": 156,
            "midi": 62,
            "name": "D4",
            "ticks": 181200,
            "time": 171.59073750000002,
            "velocity": 0.8267716535433071
          },
          {
            "duration": 0.14772712499998875,
            "durationTicks": 156,
            "midi": 61,
            "name": "C#4",
            "ticks": 181440,
            "time": 171.81801000000002,
            "velocity": 0.8267716535433071
          },
          {
            "duration": 0.14772712499998875,
            "durationTicks": 156,
            "midi": 57,
            "name": "A3",
            "ticks": 181680,
            "time": 172.0452825,
            "velocity": 0.8267716535433071
          },
          {
            "duration": 0.14772712499998875,
            "durationTicks": 156,
            "midi": 59,
            "name": "B3",
            "ticks": 181920,
            "time": 172.272555,
            "velocity": 0.8267716535433071
          },
          {
            "duration": 0.14772712499998875,
            "durationTicks": 156,
            "midi": 61,
            "name": "C#4",
            "ticks": 182160,
            "time": 172.4998275,
            "velocity": 0.8267716535433071
          },
          {
            "duration": 0.14772712499998875,
            "durationTicks": 156,
            "midi": 62,
            "name": "D4",
            "ticks": 182400,
            "time": 172.7271,
            "velocity": 0.8267716535433071
          },
          {
            "duration": 0.14772712499998875,
            "durationTicks": 156,
            "midi": 74,
            "name": "D5",
            "ticks": 182640,
            "time": 172.9543725,
            "velocity": 0.8267716535433071
          },
          {
            "duration": 0.14772712499998875,
            "durationTicks": 156,
            "midi": 74,
            "name": "D5",
            "ticks": 182880,
            "time": 173.181645,
            "velocity": 0.8267716535433071
          },
          {
            "duration": 0.14772712499998875,
            "durationTicks": 156,
            "midi": 74,
            "name": "D5",
            "ticks": 183120,
            "time": 173.4089175,
            "velocity": 0.8267716535433071
          },
          {
            "duration": 0.14772712499998875,
            "durationTicks": 156,
            "midi": 74,
            "name": "D5",
            "ticks": 183360,
            "time": 173.63619,
            "velocity": 0.8267716535433071
          },
          {
            "duration": 0.14772712499998875,
            "durationTicks": 156,
            "midi": 74,
            "name": "D5",
            "ticks": 183600,
            "time": 173.8634625,
            "velocity": 0.8267716535433071
          },
          {
            "duration": 0.14772712500001717,
            "durationTicks": 156,
            "midi": 74,
            "name": "D5",
            "ticks": 183840,
            "time": 174.090735,
            "velocity": 0.8267716535433071
          },
          {
            "duration": 0.14772712500001717,
            "durationTicks": 156,
            "midi": 74,
            "name": "D5",
            "ticks": 184080,
            "time": 174.3180075,
            "velocity": 0.8267716535433071
          },
          {
            "duration": 0.2272725000000264,
            "durationTicks": 240,
            "midi": 74,
            "name": "D5",
            "ticks": 184320,
            "time": 174.54528,
            "velocity": 0.8267716535433071
          },
          {
            "duration": 0.14772712499998875,
            "durationTicks": 156,
            "midi": 69,
            "name": "A4",
            "ticks": 184560,
            "time": 174.77255250000002,
            "velocity": 0.8267716535433071
          },
          {
            "duration": 0.14772712499998875,
            "durationTicks": 156,
            "midi": 69,
            "name": "A4",
            "ticks": 184800,
            "time": 174.99982500000002,
            "velocity": 0.8267716535433071
          },
          {
            "duration": 0.14772712499998875,
            "durationTicks": 156,
            "midi": 69,
            "name": "A4",
            "ticks": 185040,
            "time": 175.2270975,
            "velocity": 0.8267716535433071
          },
          {
            "duration": 0.14772712499998875,
            "durationTicks": 156,
            "midi": 69,
            "name": "A4",
            "ticks": 185280,
            "time": 175.45437,
            "velocity": 0.8267716535433071
          },
          {
            "duration": 0.14772712499998875,
            "durationTicks": 156,
            "midi": 69,
            "name": "A4",
            "ticks": 185520,
            "time": 175.6816425,
            "velocity": 0.8267716535433071
          },
          {
            "duration": 0.14772712499998875,
            "durationTicks": 156,
            "midi": 69,
            "name": "A4",
            "ticks": 185760,
            "time": 175.908915,
            "velocity": 0.8267716535433071
          },
          {
            "duration": 0.14772712499998875,
            "durationTicks": 156,
            "midi": 67,
            "name": "G4",
            "ticks": 186000,
            "time": 176.1361875,
            "velocity": 0.8267716535433071
          },
          {
            "duration": 0.14772712499998875,
            "durationTicks": 156,
            "midi": 66,
            "name": "F#4",
            "ticks": 186240,
            "time": 176.36346,
            "velocity": 0.7244094488188977
          },
          {
            "duration": 0.14772712499998875,
            "durationTicks": 156,
            "midi": 62,
            "name": "D4",
            "ticks": 186480,
            "time": 176.5907325,
            "velocity": 0.4566929133858268
          },
          {
            "duration": 0.14772712499998875,
            "durationTicks": 156,
            "midi": 64,
            "name": "E4",
            "ticks": 186720,
            "time": 176.818005,
            "velocity": 0.4566929133858268
          },
          {
            "duration": 0.14772712499998875,
            "durationTicks": 156,
            "midi": 64,
            "name": "E4",
            "ticks": 186960,
            "time": 177.0452775,
            "velocity": 0.4566929133858268
          },
          {
            "duration": 0.14772712500001717,
            "durationTicks": 156,
            "midi": 66,
            "name": "F#4",
            "ticks": 187200,
            "time": 177.27255,
            "velocity": 0.4566929133858268
          },
          {
            "duration": 0.14772712500001717,
            "durationTicks": 156,
            "midi": 66,
            "name": "F#4",
            "ticks": 187440,
            "time": 177.4998225,
            "velocity": 0.4566929133858268
          },
          {
            "duration": 0.14772712500001717,
            "durationTicks": 156,
            "midi": 62,
            "name": "D4",
            "ticks": 187680,
            "time": 177.727095,
            "velocity": 0.4566929133858268
          },
          {
            "duration": 0.14772712499998875,
            "durationTicks": 156,
            "midi": 62,
            "name": "D4",
            "ticks": 187920,
            "time": 177.95436750000002,
            "velocity": 0.4566929133858268
          },
          {
            "duration": 0.14772712499998875,
            "durationTicks": 156,
            "midi": 61,
            "name": "C#4",
            "ticks": 188160,
            "time": 178.18164000000002,
            "velocity": 0.4566929133858268
          },
          {
            "duration": 0.14772712499998875,
            "durationTicks": 156,
            "midi": 61,
            "name": "C#4",
            "ticks": 188400,
            "time": 178.4089125,
            "velocity": 0.4566929133858268
          },
          {
            "duration": 0.14772712499998875,
            "durationTicks": 156,
            "midi": 62,
            "name": "D4",
            "ticks": 188640,
            "time": 178.636185,
            "velocity": 0.4566929133858268
          },
          {
            "duration": 0.14772712499998875,
            "durationTicks": 156,
            "midi": 62,
            "name": "D4",
            "ticks": 188880,
            "time": 178.8634575,
            "velocity": 0.4566929133858268
          },
          {
            "duration": 0.14772712499998875,
            "durationTicks": 156,
            "midi": 64,
            "name": "E4",
            "ticks": 189120,
            "time": 179.09073,
            "velocity": 0.4566929133858268
          },
          {
            "duration": 0.14772712499998875,
            "durationTicks": 156,
            "midi": 64,
            "name": "E4",
            "ticks": 189360,
            "time": 179.3180025,
            "velocity": 0.4566929133858268
          },
          {
            "duration": 0.14772712499998875,
            "durationTicks": 156,
            "midi": 61,
            "name": "C#4",
            "ticks": 189600,
            "time": 179.545275,
            "velocity": 0.4566929133858268
          },
          {
            "duration": 0.14772712499998875,
            "durationTicks": 156,
            "midi": 61,
            "name": "C#4",
            "ticks": 189840,
            "time": 179.7725475,
            "velocity": 0.4566929133858268
          },
          {
            "duration": 0.14772712499998875,
            "durationTicks": 156,
            "midi": 62,
            "name": "D4",
            "ticks": 190080,
            "time": 179.99982,
            "velocity": 0.4566929133858268
          },
          {
            "duration": 0.14772712499998875,
            "durationTicks": 156,
            "midi": 62,
            "name": "D4",
            "ticks": 190320,
            "time": 180.2270925,
            "velocity": 0.4566929133858268
          },
          {
            "duration": 0.14772712500001717,
            "durationTicks": 156,
            "midi": 64,
            "name": "E4",
            "ticks": 190560,
            "time": 180.454365,
            "velocity": 0.4566929133858268
          },
          {
            "duration": 0.14772712500001717,
            "durationTicks": 156,
            "midi": 64,
            "name": "E4",
            "ticks": 190800,
            "time": 180.6816375,
            "velocity": 0.4566929133858268
          },
          {
            "duration": 0.14772712500001717,
            "durationTicks": 156,
            "midi": 66,
            "name": "F#4",
            "ticks": 191040,
            "time": 180.90891,
            "velocity": 0.4566929133858268
          },
          {
            "duration": 0.14772712499998875,
            "durationTicks": 156,
            "midi": 66,
            "name": "F#4",
            "ticks": 191280,
            "time": 181.13618250000002,
            "velocity": 0.4566929133858268
          },
          {
            "duration": 0.14772712499998875,
            "durationTicks": 156,
            "midi": 62,
            "name": "D4",
            "ticks": 191520,
            "time": 181.36345500000002,
            "velocity": 0.4566929133858268
          },
          {
            "duration": 0.14772712499998875,
            "durationTicks": 156,
            "midi": 62,
            "name": "D4",
            "ticks": 191760,
            "time": 181.5907275,
            "velocity": 0.4566929133858268
          },
          {
            "duration": 0.14772712499998875,
            "durationTicks": 156,
            "midi": 61,
            "name": "C#4",
            "ticks": 192000,
            "time": 181.818,
            "velocity": 0.4566929133858268
          },
          {
            "duration": 0.14772712499998875,
            "durationTicks": 156,
            "midi": 61,
            "name": "C#4",
            "ticks": 192240,
            "time": 182.0452725,
            "velocity": 0.4566929133858268
          },
          {
            "duration": 0.14772712499998875,
            "durationTicks": 156,
            "midi": 62,
            "name": "D4",
            "ticks": 192480,
            "time": 182.272545,
            "velocity": 0.4566929133858268
          },
          {
            "duration": 0.14772712499998875,
            "durationTicks": 156,
            "midi": 62,
            "name": "D4",
            "ticks": 192720,
            "time": 182.4998175,
            "velocity": 0.4566929133858268
          },
          {
            "duration": 0.14772712499998875,
            "durationTicks": 156,
            "midi": 64,
            "name": "E4",
            "ticks": 192960,
            "time": 182.72709,
            "velocity": 0.4566929133858268
          },
          {
            "duration": 0.14772712499998875,
            "durationTicks": 156,
            "midi": 64,
            "name": "E4",
            "ticks": 193200,
            "time": 182.9543625,
            "velocity": 0.4566929133858268
          },
          {
            "duration": 0.14772712499998875,
            "durationTicks": 156,
            "midi": 61,
            "name": "C#4",
            "ticks": 193440,
            "time": 183.181635,
            "velocity": 0.4566929133858268
          },
          {
            "duration": 0.14772712499998875,
            "durationTicks": 156,
            "midi": 61,
            "name": "C#4",
            "ticks": 193680,
            "time": 183.4089075,
            "velocity": 0.4566929133858268
          },
          {
            "duration": 0.14772712500001717,
            "durationTicks": 156,
            "midi": 62,
            "name": "D4",
            "ticks": 193920,
            "time": 183.63618,
            "velocity": 0.4566929133858268
          },
          {
            "duration": 0.14772712500001717,
            "durationTicks": 156,
            "midi": 62,
            "name": "D4",
            "ticks": 194160,
            "time": 183.8634525,
            "velocity": 0.8267716535433071
          },
          {
            "duration": 0.14772712500001717,
            "durationTicks": 156,
            "midi": 66,
            "name": "F#4",
            "ticks": 194400,
            "time": 184.090725,
            "velocity": 0.8267716535433071
          },
          {
            "duration": 0.14772712499998875,
            "durationTicks": 156,
            "midi": 64,
            "name": "E4",
            "ticks": 194640,
            "time": 184.31799750000002,
            "velocity": 0.8267716535433071
          },
          {
            "duration": 0.14772712499998875,
            "durationTicks": 156,
            "midi": 63,
            "name": "D#4",
            "ticks": 194880,
            "time": 184.54527000000002,
            "velocity": 0.8267716535433071
          },
          {
            "duration": 0.14772712499998875,
            "durationTicks": 156,
            "midi": 59,
            "name": "B3",
            "ticks": 195120,
            "time": 184.77254250000001,
            "velocity": 0.8267716535433071
          },
          {
            "duration": 0.14772712499998875,
            "durationTicks": 156,
            "midi": 61,
            "name": "C#4",
            "ticks": 195360,
            "time": 184.999815,
            "velocity": 0.8267716535433071
          },
          {
            "duration": 0.14772712499998875,
            "durationTicks": 156,
            "midi": 63,
            "name": "D#4",
            "ticks": 195600,
            "time": 185.2270875,
            "velocity": 0.8267716535433071
          },
          {
            "duration": 0.14772712499998875,
            "durationTicks": 156,
            "midi": 64,
            "name": "E4",
            "ticks": 195840,
            "time": 185.45436,
            "velocity": 0.8267716535433071
          },
          {
            "duration": 0.14772712499998875,
            "durationTicks": 156,
            "midi": 67,
            "name": "G4",
            "ticks": 196080,
            "time": 185.6816325,
            "velocity": 0.8267716535433071
          },
          {
            "duration": 0.14772712499998875,
            "durationTicks": 156,
            "midi": 64,
            "name": "E4",
            "ticks": 196320,
            "time": 185.908905,
            "velocity": 0.8267716535433071
          },
          {
            "duration": 0.14772712499998875,
            "durationTicks": 156,
            "midi": 62,
            "name": "D4",
            "ticks": 196560,
            "time": 186.1361775,
            "velocity": 0.8267716535433071
          },
          {
            "duration": 0.14772712499998875,
            "durationTicks": 156,
            "midi": 61,
            "name": "C#4",
            "ticks": 196800,
            "time": 186.36345,
            "velocity": 0.8267716535433071
          },
          {
            "duration": 0.14772712499998875,
            "durationTicks": 156,
            "midi": 57,
            "name": "A3",
            "ticks": 197040,
            "time": 186.5907225,
            "velocity": 0.8267716535433071
          },
          {
            "duration": 0.14772712500001717,
            "durationTicks": 156,
            "midi": 59,
            "name": "B3",
            "ticks": 197280,
            "time": 186.817995,
            "velocity": 0.8267716535433071
          },
          {
            "duration": 0.14772712500001717,
            "durationTicks": 156,
            "midi": 61,
            "name": "C#4",
            "ticks": 197520,
            "time": 187.0452675,
            "velocity": 0.8267716535433071
          },
          {
            "duration": 0.14772712500001717,
            "durationTicks": 156,
            "midi": 62,
            "name": "D4",
            "ticks": 197760,
            "time": 187.27254,
            "velocity": 0.8267716535433071
          },
          {
            "duration": 0.14772712499998875,
            "durationTicks": 156,
            "midi": 74,
            "name": "D5",
            "ticks": 198000,
            "time": 187.49981250000002,
            "velocity": 0.8267716535433071
          },
          {
            "duration": 0.14772712499998875,
            "durationTicks": 156,
            "midi": 74,
            "name": "D5",
            "ticks": 198240,
            "time": 187.72708500000002,
            "velocity": 0.8267716535433071
          },
          {
            "duration": 0.14772712499998875,
            "durationTicks": 156,
            "midi": 74,
            "name": "D5",
            "ticks": 198480,
            "time": 187.95435750000001,
            "velocity": 0.8267716535433071
          },
          {
            "duration": 0.14772712499998875,
            "durationTicks": 156,
            "midi": 74,
            "name": "D5",
            "ticks": 198720,
            "time": 188.18163,
            "velocity": 0.8267716535433071
          },
          {
            "duration": 0.14772712499998875,
            "durationTicks": 156,
            "midi": 74,
            "name": "D5",
            "ticks": 198960,
            "time": 188.4089025,
            "velocity": 0.8267716535433071
          },
          {
            "duration": 0.14772712499998875,
            "durationTicks": 156,
            "midi": 74,
            "name": "D5",
            "ticks": 199200,
            "time": 188.636175,
            "velocity": 0.8267716535433071
          },
          {
            "duration": 0.14772712499998875,
            "durationTicks": 156,
            "midi": 74,
            "name": "D5",
            "ticks": 199440,
            "time": 188.8634475,
            "velocity": 0.8267716535433071
          },
          {
            "duration": 0.227272499999998,
            "durationTicks": 240,
            "midi": 74,
            "name": "D5",
            "ticks": 199680,
            "time": 189.09072,
            "velocity": 0.8267716535433071
          },
          {
            "duration": 0.14772712499998875,
            "durationTicks": 156,
            "midi": 69,
            "name": "A4",
            "ticks": 199920,
            "time": 189.3179925,
            "velocity": 0.8267716535433071
          },
          {
            "duration": 0.14772712499998875,
            "durationTicks": 156,
            "midi": 69,
            "name": "A4",
            "ticks": 200160,
            "time": 189.545265,
            "velocity": 0.8267716535433071
          },
          {
            "duration": 0.14772712499998875,
            "durationTicks": 156,
            "midi": 69,
            "name": "A4",
            "ticks": 200400,
            "time": 189.7725375,
            "velocity": 0.8267716535433071
          },
          {
            "duration": 0.14772712500001717,
            "durationTicks": 156,
            "midi": 69,
            "name": "A4",
            "ticks": 200640,
            "time": 189.99981,
            "velocity": 0.8267716535433071
          },
          {
            "duration": 0.14772712500001717,
            "durationTicks": 156,
            "midi": 69,
            "name": "A4",
            "ticks": 200880,
            "time": 190.2270825,
            "velocity": 0.8267716535433071
          },
          {
            "duration": 0.14772712500001717,
            "durationTicks": 156,
            "midi": 69,
            "name": "A4",
            "ticks": 201120,
            "time": 190.454355,
            "velocity": 0.8267716535433071
          },
          {
            "duration": 0.14772712499998875,
            "durationTicks": 156,
            "midi": 67,
            "name": "G4",
            "ticks": 201360,
            "time": 190.68162750000002,
            "velocity": 0.8267716535433071
          },
          {
            "duration": 0.14772712499998875,
            "durationTicks": 156,
            "midi": 66,
            "name": "F#4",
            "ticks": 201600,
            "time": 190.90890000000002,
            "velocity": 0.8267716535433071
          },
          {
            "duration": 0.14772712499998875,
            "durationTicks": 156,
            "midi": 57,
            "name": "A3",
            "ticks": 201840,
            "time": 191.13617250000001,
            "velocity": 0.8267716535433071
          },
          {
            "duration": 0.14772712499998875,
            "durationTicks": 156,
            "midi": 59,
            "name": "B3",
            "ticks": 202080,
            "time": 191.363445,
            "velocity": 0.8267716535433071
          },
          {
            "duration": 0.14772712499998875,
            "durationTicks": 156,
            "midi": 61,
            "name": "C#4",
            "ticks": 202320,
            "time": 191.5907175,
            "velocity": 0.8267716535433071
          },
          {
            "duration": 0.14772712499998875,
            "durationTicks": 156,
            "midi": 62,
            "name": "D4",
            "ticks": 202560,
            "time": 191.81799,
            "velocity": 0.8267716535433071
          },
          {
            "duration": 0.14772712499998875,
            "durationTicks": 156,
            "midi": 62,
            "name": "D4",
            "ticks": 202800,
            "time": 192.0452625,
            "velocity": 0.8267716535433071
          },
          {
            "duration": 0.14772712499998875,
            "durationTicks": 156,
            "midi": 64,
            "name": "E4",
            "ticks": 203040,
            "time": 192.272535,
            "velocity": 0.8267716535433071
          },
          {
            "duration": 0.14772712499998875,
            "durationTicks": 156,
            "midi": 64,
            "name": "E4",
            "ticks": 203280,
            "time": 192.4998075,
            "velocity": 0.8267716535433071
          },
          {
            "duration": 0.14772712499998875,
            "durationTicks": 156,
            "midi": 66,
            "name": "F#4",
            "ticks": 203520,
            "time": 192.72708,
            "velocity": 0.8267716535433071
          },
          {
            "duration": 0.14772712499998875,
            "durationTicks": 156,
            "midi": 61,
            "name": "C#4",
            "ticks": 203760,
            "time": 192.9543525,
            "velocity": 0.8267716535433071
          },
          {
            "duration": 0.14772712500001717,
            "durationTicks": 156,
            "midi": 62,
            "name": "D4",
            "ticks": 204000,
            "time": 193.181625,
            "velocity": 0.8267716535433071
          },
          {
            "duration": 0.14772712500001717,
            "durationTicks": 156,
            "midi": 64,
            "name": "E4",
            "ticks": 204240,
            "time": 193.4088975,
            "velocity": 0.8267716535433071
          },
          {
            "duration": 0.14772712500001717,
            "durationTicks": 156,
            "midi": 66,
            "name": "F#4",
            "ticks": 204480,
            "time": 193.63617,
            "velocity": 0.8267716535433071
          },
          {
            "duration": 0.14772712499998875,
            "durationTicks": 156,
            "midi": 66,
            "name": "F#4",
            "ticks": 204720,
            "time": 193.86344250000002,
            "velocity": 0.8267716535433071
          },
          {
            "duration": 0.14772712499998875,
            "durationTicks": 156,
            "midi": 67,
            "name": "G4",
            "ticks": 204960,
            "time": 194.09071500000002,
            "velocity": 0.8267716535433071
          },
          {
            "duration": 0.14772712499998875,
            "durationTicks": 156,
            "midi": 67,
            "name": "G4",
            "ticks": 205200,
            "time": 194.31798750000002,
            "velocity": 0.8267716535433071
          },
          {
            "duration": 0.14772712499998875,
            "durationTicks": 156,
            "midi": 69,
            "name": "A4",
            "ticks": 205440,
            "time": 194.54526,
            "velocity": 0.8267716535433071
          },
          {
            "duration": 0.14772712499998875,
            "durationTicks": 156,
            "midi": 69,
            "name": "A4",
            "ticks": 205680,
            "time": 194.7725325,
            "velocity": 0.8267716535433071
          },
          {
            "duration": 0.14772712499998875,
            "durationTicks": 156,
            "midi": 70,
            "name": "A#4",
            "ticks": 205920,
            "time": 194.999805,
            "velocity": 0.8267716535433071
          },
          {
            "duration": 0.14772712499998875,
            "durationTicks": 156,
            "midi": 70,
            "name": "A#4",
            "ticks": 206160,
            "time": 195.2270775,
            "velocity": 0.8267716535433071
          },
          {
            "duration": 0.36363600000001384,
            "durationTicks": 384,
            "midi": 71,
            "name": "B4",
            "ticks": 206400,
            "time": 195.45435,
            "velocity": 0.7244094488188977
          },
          {
            "duration": 1.3636350000000164,
            "durationTicks": 1440,
            "midi": 64,
            "name": "E4",
            "ticks": 207360,
            "time": 196.36344,
            "velocity": 0.4566929133858268
          },
          {
            "duration": 0.227272499999998,
            "durationTicks": 240,
            "midi": 62,
            "name": "D4",
            "ticks": 208800,
            "time": 197.727075,
            "velocity": 0.4566929133858268
          },
          {
            "duration": 0.1818179999999927,
            "durationTicks": 192,
            "midi": 61,
            "name": "C#4",
            "ticks": 209040,
            "time": 197.9543475,
            "velocity": 0.4566929133858268
          },
          {
            "duration": 0.1818179999999927,
            "durationTicks": 192,
            "midi": 62,
            "name": "D4",
            "ticks": 209280,
            "time": 198.18162,
            "velocity": 0.4566929133858268
          },
          {
            "duration": 0.1818179999999927,
            "durationTicks": 192,
            "midi": 62,
            "name": "D4",
            "ticks": 209760,
            "time": 198.636165,
            "velocity": 0.4566929133858268
          },
          {
            "duration": 0.1818179999999927,
            "durationTicks": 192,
            "midi": 62,
            "name": "D4",
            "ticks": 210240,
            "time": 199.09071,
            "velocity": 0.4566929133858268
          },
          {
            "duration": 0.36363600000001384,
            "durationTicks": 384,
            "midi": 62,
            "name": "D4",
            "ticks": 211200,
            "time": 199.9998,
            "velocity": 0.8267716535433071
          },
          {
            "duration": 0.13636349999998743,
            "durationTicks": 144,
            "midi": 57,
            "name": "A3",
            "ticks": 211920,
            "time": 200.68161750000002,
            "velocity": 0.8267716535433071
          },
          {
            "duration": 0.3636359999999854,
            "durationTicks": 384,
            "midi": 62,
            "name": "D4",
            "ticks": 212160,
            "time": 200.90889,
            "velocity": 0.8267716535433071
          },
          {
            "duration": 0.13636350000001585,
            "durationTicks": 144,
            "midi": 57,
            "name": "A3",
            "ticks": 212880,
            "time": 201.5907075,
            "velocity": 0.8267716535433071
          },
          {
            "duration": 0.14772712499998875,
            "durationTicks": 156,
            "midi": 62,
            "name": "D4",
            "ticks": 213120,
            "time": 201.81798,
            "velocity": 0.8267716535433071
          },
          {
            "duration": 0.14772712499998875,
            "durationTicks": 156,
            "midi": 57,
            "name": "A3",
            "ticks": 213360,
            "time": 202.0452525,
            "velocity": 0.8267716535433071
          },
          {
            "duration": 0.14772712499998875,
            "durationTicks": 156,
            "midi": 62,
            "name": "D4",
            "ticks": 213600,
            "time": 202.272525,
            "velocity": 0.8267716535433071
          },
          {
            "duration": 0.14772712499998875,
            "durationTicks": 156,
            "midi": 66,
            "name": "F#4",
            "ticks": 213840,
            "time": 202.4997975,
            "velocity": 0.8267716535433071
          },
          {
            "duration": 0.36363600000001384,
            "durationTicks": 384,
            "midi": 69,
            "name": "A4",
            "ticks": 214080,
            "time": 202.72707,
            "velocity": 0.8267716535433071
          },
          {
            "duration": 0.3636359999999854,
            "durationTicks": 384,
            "midi": 69,
            "name": "A4",
            "ticks": 215040,
            "time": 203.63616000000002,
            "velocity": 0.8267716535433071
          },
          {
            "duration": 0.13636349999998743,
            "durationTicks": 144,
            "midi": 66,
            "name": "F#4",
            "ticks": 215760,
            "time": 204.3179775,
            "velocity": 0.8267716535433071
          },
          {
            "duration": 0.36363600000001384,
            "durationTicks": 384,
            "midi": 69,
            "name": "A4",
            "ticks": 216000,
            "time": 204.54525,
            "velocity": 0.8267716535433071
          },
          {
            "duration": 0.13636350000001585,
            "durationTicks": 144,
            "midi": 66,
            "name": "F#4",
            "ticks": 216720,
            "time": 205.2270675,
            "velocity": 0.8267716535433071
          },
          {
            "duration": 0.14772712499998875,
            "durationTicks": 156,
            "midi": 69,
            "name": "A4",
            "ticks": 216960,
            "time": 205.45434,
            "velocity": 0.8267716535433071
          },
          {
            "duration": 0.14772712499998875,
            "durationTicks": 156,
            "midi": 66,
            "name": "F#4",
            "ticks": 217200,
            "time": 205.6816125,
            "velocity": 0.8267716535433071
          },
          {
            "duration": 0.14772712500001717,
            "durationTicks": 156,
            "midi": 63,
            "name": "D#4",
            "ticks": 217440,
            "time": 205.908885,
            "velocity": 0.8267716535433071
          },
          {
            "duration": 0.14772712500001717,
            "durationTicks": 156,
            "midi": 66,
            "name": "F#4",
            "ticks": 217680,
            "time": 206.1361575,
            "velocity": 0.8267716535433071
          },
          {
            "duration": 0.36363600000001384,
            "durationTicks": 384,
            "midi": 59,
            "name": "B3",
            "ticks": 217920,
            "time": 206.36343,
            "velocity": 0.8267716535433071
          },
          {
            "duration": 0.13636349999998743,
            "durationTicks": 144,
            "midi": 60,
            "name": "C4",
            "ticks": 218880,
            "time": 207.27252000000001,
            "velocity": 0.4566929133858268
          },
          {
            "duration": 0.13636349999998743,
            "durationTicks": 144,
            "midi": 60,
            "name": "C4",
            "ticks": 219120,
            "time": 207.4997925,
            "velocity": 0.4566929133858268
          },
          {
            "duration": 0.13636349999998743,
            "durationTicks": 144,
            "midi": 62,
            "name": "D4",
            "ticks": 219360,
            "time": 207.727065,
            "velocity": 0.4566929133858268
          },
          {
            "duration": 0.13636350000001585,
            "durationTicks": 144,
            "midi": 62,
            "name": "D4",
            "ticks": 219600,
            "time": 207.9543375,
            "velocity": 0.4566929133858268
          },
          {
            "duration": 0.13636350000001585,
            "durationTicks": 144,
            "midi": 64,
            "name": "E4",
            "ticks": 219840,
            "time": 208.18161,
            "velocity": 0.4566929133858268
          },
          {
            "duration": 0.13636350000001585,
            "durationTicks": 144,
            "midi": 64,
            "name": "E4",
            "ticks": 220080,
            "time": 208.4088825,
            "velocity": 0.4566929133858268
          },
          {
            "duration": 0.13636350000001585,
            "durationTicks": 144,
            "midi": 60,
            "name": "C4",
            "ticks": 220320,
            "time": 208.636155,
            "velocity": 0.4566929133858268
          },
          {
            "duration": 0.13636350000001585,
            "durationTicks": 144,
            "midi": 60,
            "name": "C4",
            "ticks": 220560,
            "time": 208.8634275,
            "velocity": 0.4566929133858268
          },
          {
            "duration": 0.13636350000001585,
            "durationTicks": 144,
            "midi": 59,
            "name": "B3",
            "ticks": 220800,
            "time": 209.0907,
            "velocity": 0.4566929133858268
          },
          {
            "duration": 0.13636350000001585,
            "durationTicks": 144,
            "midi": 59,
            "name": "B3",
            "ticks": 221040,
            "time": 209.3179725,
            "velocity": 0.4566929133858268
          },
          {
            "duration": 0.13636350000001585,
            "durationTicks": 144,
            "midi": 60,
            "name": "C4",
            "ticks": 221280,
            "time": 209.545245,
            "velocity": 0.4566929133858268
          },
          {
            "duration": 0.13636349999998743,
            "durationTicks": 144,
            "midi": 60,
            "name": "C4",
            "ticks": 221520,
            "time": 209.77251750000002,
            "velocity": 0.4566929133858268
          },
          {
            "duration": 0.13636349999998743,
            "durationTicks": 144,
            "midi": 62,
            "name": "D4",
            "ticks": 221760,
            "time": 209.99979000000002,
            "velocity": 0.4566929133858268
          },
          {
            "duration": 0.13636349999998743,
            "durationTicks": 144,
            "midi": 62,
            "name": "D4",
            "ticks": 222000,
            "time": 210.22706250000002,
            "velocity": 0.4566929133858268
          },
          {
            "duration": 0.13636349999998743,
            "durationTicks": 144,
            "midi": 59,
            "name": "B3",
            "ticks": 222240,
            "time": 210.45433500000001,
            "velocity": 0.4566929133858268
          },
          {
            "duration": 0.13636349999998743,
            "durationTicks": 144,
            "midi": 59,
            "name": "B3",
            "ticks": 222480,
            "time": 210.6816075,
            "velocity": 0.4566929133858268
          },
          {
            "duration": 0.13636349999998743,
            "durationTicks": 144,
            "midi": 60,
            "name": "C4",
            "ticks": 222720,
            "time": 210.90888,
            "velocity": 0.4566929133858268
          },
          {
            "duration": 0.13636350000001585,
            "durationTicks": 144,
            "midi": 60,
            "name": "C4",
            "ticks": 222960,
            "time": 211.1361525,
            "velocity": 0.4566929133858268
          },
          {
            "duration": 0.13636350000001585,
            "durationTicks": 144,
            "midi": 62,
            "name": "D4",
            "ticks": 223200,
            "time": 211.363425,
            "velocity": 0.4566929133858268
          },
          {
            "duration": 0.13636350000001585,
            "durationTicks": 144,
            "midi": 62,
            "name": "D4",
            "ticks": 223440,
            "time": 211.5906975,
            "velocity": 0.4566929133858268
          },
          {
            "duration": 0.13636350000001585,
            "durationTicks": 144,
            "midi": 64,
            "name": "E4",
            "ticks": 223680,
            "time": 211.81797,
            "velocity": 0.4566929133858268
          },
          {
            "duration": 0.13636350000001585,
            "durationTicks": 144,
            "midi": 64,
            "name": "E4",
            "ticks": 223920,
            "time": 212.0452425,
            "velocity": 0.4566929133858268
          },
          {
            "duration": 0.13636350000001585,
            "durationTicks": 144,
            "midi": 60,
            "name": "C4",
            "ticks": 224160,
            "time": 212.272515,
            "velocity": 0.4566929133858268
          },
          {
            "duration": 0.13636350000001585,
            "durationTicks": 144,
            "midi": 60,
            "name": "C4",
            "ticks": 224400,
            "time": 212.4997875,
            "velocity": 0.4566929133858268
          },
          {
            "duration": 0.13636350000001585,
            "durationTicks": 144,
            "midi": 59,
            "name": "B3",
            "ticks": 224640,
            "time": 212.72706,
            "velocity": 0.4566929133858268
          },
          {
            "duration": 0.13636349999998743,
            "durationTicks": 144,
            "midi": 59,
            "name": "B3",
            "ticks": 224880,
            "time": 212.95433250000002,
            "velocity": 0.4566929133858268
          },
          {
            "duration": 0.13636349999998743,
            "durationTicks": 144,
            "midi": 60,
            "name": "C4",
            "ticks": 225120,
            "time": 213.18160500000002,
            "velocity": 0.4566929133858268
          },
          {
            "duration": 0.13636349999998743,
            "durationTicks": 144,
            "midi": 60,
            "name": "C4",
            "ticks": 225360,
            "time": 213.40887750000002,
            "velocity": 0.4566929133858268
          },
          {
            "duration": 0.13636349999998743,
            "durationTicks": 144,
            "midi": 62,
            "name": "D4",
            "ticks": 225600,
            "time": 213.63615000000001,
            "velocity": 0.4566929133858268
          },
          {
            "duration": 0.13636349999998743,
            "durationTicks": 144,
            "midi": 62,
            "name": "D4",
            "ticks": 225840,
            "time": 213.8634225,
            "velocity": 0.4566929133858268
          },
          {
            "duration": 0.13636349999998743,
            "durationTicks": 144,
            "midi": 59,
            "name": "B3",
            "ticks": 226080,
            "time": 214.090695,
            "velocity": 0.4566929133858268
          },
          {
            "duration": 0.13636350000001585,
            "durationTicks": 144,
            "midi": 59,
            "name": "B3",
            "ticks": 226320,
            "time": 214.3179675,
            "velocity": 0.4566929133858268
          },
          {
            "duration": 0.13636350000001585,
            "durationTicks": 144,
            "midi": 60,
            "name": "C4",
            "ticks": 226560,
            "time": 214.54524,
            "velocity": 0.4566929133858268
          },
          {
            "duration": 0.13636350000001585,
            "durationTicks": 144,
            "midi": 60,
            "name": "C4",
            "ticks": 226800,
            "time": 214.7725125,
            "velocity": 0.4566929133858268
          },
          {
            "duration": 0.13636350000001585,
            "durationTicks": 144,
            "midi": 62,
            "name": "D4",
            "ticks": 227040,
            "time": 214.999785,
            "velocity": 0.4566929133858268
          },
          {
            "duration": 0.13636350000001585,
            "durationTicks": 144,
            "midi": 62,
            "name": "D4",
            "ticks": 227280,
            "time": 215.2270575,
            "velocity": 0.4566929133858268
          },
          {
            "duration": 0.13636350000001585,
            "durationTicks": 144,
            "midi": 64,
            "name": "E4",
            "ticks": 227520,
            "time": 215.45433,
            "velocity": 0.4566929133858268
          },
          {
            "duration": 0.13636350000001585,
            "durationTicks": 144,
            "midi": 64,
            "name": "E4",
            "ticks": 227760,
            "time": 215.6816025,
            "velocity": 0.4566929133858268
          },
          {
            "duration": 0.13636350000001585,
            "durationTicks": 144,
            "midi": 60,
            "name": "C4",
            "ticks": 228000,
            "time": 215.908875,
            "velocity": 0.4566929133858268
          },
          {
            "duration": 0.13636349999998743,
            "durationTicks": 144,
            "midi": 60,
            "name": "C4",
            "ticks": 228240,
            "time": 216.13614750000002,
            "velocity": 0.4566929133858268
          },
          {
            "duration": 0.13636349999998743,
            "durationTicks": 144,
            "midi": 59,
            "name": "B3",
            "ticks": 228480,
            "time": 216.36342000000002,
            "velocity": 0.4566929133858268
          },
          {
            "duration": 0.13636349999998743,
            "durationTicks": 144,
            "midi": 59,
            "name": "B3",
            "ticks": 228720,
            "time": 216.59069250000002,
            "velocity": 0.4566929133858268
          },
          {
            "duration": 0.13636349999998743,
            "durationTicks": 144,
            "midi": 60,
            "name": "C4",
            "ticks": 228960,
            "time": 216.81796500000002,
            "velocity": 0.4566929133858268
          },
          {
            "duration": 0.13636349999998743,
            "durationTicks": 144,
            "midi": 60,
            "name": "C4",
            "ticks": 229200,
            "time": 217.0452375,
            "velocity": 0.4566929133858268
          },
          {
            "duration": 0.13636349999998743,
            "durationTicks": 144,
            "midi": 62,
            "name": "D4",
            "ticks": 229440,
            "time": 217.27251,
            "velocity": 0.4566929133858268
          },
          {
            "duration": 0.13636350000001585,
            "durationTicks": 144,
            "midi": 62,
            "name": "D4",
            "ticks": 229680,
            "time": 217.4997825,
            "velocity": 0.4566929133858268
          },
          {
            "duration": 0.13636350000001585,
            "durationTicks": 144,
            "midi": 59,
            "name": "B3",
            "ticks": 229920,
            "time": 217.727055,
            "velocity": 0.4566929133858268
          },
          {
            "duration": 0.13636350000001585,
            "durationTicks": 144,
            "midi": 59,
            "name": "B3",
            "ticks": 230160,
            "time": 217.9543275,
            "velocity": 0.4566929133858268
          },
          {
            "duration": 0.13636350000001585,
            "durationTicks": 144,
            "midi": 57,
            "name": "A3",
            "ticks": 230400,
            "time": 218.1816,
            "velocity": 0.4566929133858268
          },
          {
            "duration": 0.13636350000001585,
            "durationTicks": 144,
            "midi": 57,
            "name": "A3",
            "ticks": 230640,
            "time": 218.4088725,
            "velocity": 0.4566929133858268
          },
          {
            "duration": 0.13636350000001585,
            "durationTicks": 144,
            "midi": 59,
            "name": "B3",
            "ticks": 230880,
            "time": 218.636145,
            "velocity": 0.4566929133858268
          },
          {
            "duration": 0.13636350000001585,
            "durationTicks": 144,
            "midi": 59,
            "name": "B3",
            "ticks": 231120,
            "time": 218.8634175,
            "velocity": 0.4566929133858268
          },
          {
            "duration": 0.13636350000001585,
            "durationTicks": 144,
            "midi": 60,
            "name": "C4",
            "ticks": 231360,
            "time": 219.09069,
            "velocity": 0.4566929133858268
          },
          {
            "duration": 0.13636349999998743,
            "durationTicks": 144,
            "midi": 60,
            "name": "C4",
            "ticks": 231600,
            "time": 219.31796250000002,
            "velocity": 0.4566929133858268
          },
          {
            "duration": 0.13636349999998743,
            "durationTicks": 144,
            "midi": 57,
            "name": "A3",
            "ticks": 231840,
            "time": 219.54523500000002,
            "velocity": 0.4566929133858268
          },
          {
            "duration": 0.13636349999998743,
            "durationTicks": 144,
            "midi": 57,
            "name": "A3",
            "ticks": 232080,
            "time": 219.77250750000002,
            "velocity": 0.4566929133858268
          },
          {
            "duration": 0.13636349999998743,
            "durationTicks": 144,
            "midi": 57,
            "name": "A3",
            "ticks": 232320,
            "time": 219.99978000000002,
            "velocity": 0.4566929133858268
          },
          {
            "duration": 0.13636349999998743,
            "durationTicks": 144,
            "midi": 57,
            "name": "A3",
            "ticks": 232560,
            "time": 220.2270525,
            "velocity": 0.4566929133858268
          },
          {
            "duration": 0.13636349999998743,
            "durationTicks": 144,
            "midi": 58,
            "name": "A#3",
            "ticks": 232800,
            "time": 220.454325,
            "velocity": 0.4566929133858268
          },
          {
            "duration": 0.13636350000001585,
            "durationTicks": 144,
            "midi": 58,
            "name": "A#3",
            "ticks": 233040,
            "time": 220.6815975,
            "velocity": 0.4566929133858268
          },
          {
            "duration": 0.13636350000001585,
            "durationTicks": 144,
            "midi": 60,
            "name": "C4",
            "ticks": 233280,
            "time": 220.90887,
            "velocity": 0.4566929133858268
          },
          {
            "duration": 0.13636350000001585,
            "durationTicks": 144,
            "midi": 60,
            "name": "C4",
            "ticks": 233520,
            "time": 221.1361425,
            "velocity": 0.4566929133858268
          },
          {
            "duration": 0.13636350000001585,
            "durationTicks": 144,
            "midi": 57,
            "name": "A3",
            "ticks": 233760,
            "time": 221.363415,
            "velocity": 0.4566929133858268
          },
          {
            "duration": 0.13636350000001585,
            "durationTicks": 144,
            "midi": 57,
            "name": "A3",
            "ticks": 234000,
            "time": 221.5906875,
            "velocity": 0.4566929133858268
          },
          {
            "duration": 0.13636350000001585,
            "durationTicks": 144,
            "midi": 55,
            "name": "G3",
            "ticks": 234240,
            "time": 221.81796,
            "velocity": 0.4566929133858268
          },
          {
            "duration": 0.13636350000001585,
            "durationTicks": 144,
            "midi": 55,
            "name": "G3",
            "ticks": 234480,
            "time": 222.0452325,
            "velocity": 0.4566929133858268
          },
          {
            "duration": 0.13636350000001585,
            "durationTicks": 144,
            "midi": 54,
            "name": "F#3",
            "ticks": 234720,
            "time": 222.272505,
            "velocity": 0.4566929133858268
          },
          {
            "duration": 0.13636349999998743,
            "durationTicks": 144,
            "midi": 54,
            "name": "F#3",
            "ticks": 234960,
            "time": 222.49977750000002,
            "velocity": 0.4566929133858268
          },
          {
            "duration": 0.13636349999998743,
            "durationTicks": 144,
            "midi": 55,
            "name": "G3",
            "ticks": 235200,
            "time": 222.72705000000002,
            "velocity": 0.4566929133858268
          },
          {
            "duration": 0.13636349999998743,
            "durationTicks": 144,
            "midi": 55,
            "name": "G3",
            "ticks": 235440,
            "time": 222.95432250000002,
            "velocity": 0.4566929133858268
          },
          {
            "duration": 0.13636349999998743,
            "durationTicks": 144,
            "midi": 66,
            "name": "F#4",
            "ticks": 235680,
            "time": 223.18159500000002,
            "velocity": 0.4566929133858268
          },
          {
            "duration": 0.13636349999998743,
            "durationTicks": 144,
            "midi": 66,
            "name": "F#4",
            "ticks": 235920,
            "time": 223.4088675,
            "velocity": 0.4566929133858268
          },
          {
            "duration": 0.13636349999998743,
            "durationTicks": 144,
            "midi": 67,
            "name": "G4",
            "ticks": 236160,
            "time": 223.63614,
            "velocity": 0.4566929133858268
          },
          {
            "duration": 0.13636350000001585,
            "durationTicks": 144,
            "midi": 67,
            "name": "G4",
            "ticks": 236400,
            "time": 223.8634125,
            "velocity": 0.4566929133858268
          },
          {
            "duration": 0.13636350000001585,
            "durationTicks": 144,
            "midi": 66,
            "name": "F#4",
            "ticks": 236640,
            "time": 224.090685,
            "velocity": 0.4566929133858268
          },
          {
            "duration": 0.13636350000001585,
            "durationTicks": 144,
            "midi": 66,
            "name": "F#4",
            "ticks": 236880,
            "time": 224.3179575,
            "velocity": 0.4566929133858268
          },
          {
            "duration": 0.13636350000001585,
            "durationTicks": 144,
            "midi": 67,
            "name": "G4",
            "ticks": 237120,
            "time": 224.54523,
            "velocity": 0.4566929133858268
          },
          {
            "duration": 0.13636350000001585,
            "durationTicks": 144,
            "midi": 55,
            "name": "G3",
            "ticks": 237360,
            "time": 224.7725025,
            "velocity": 0.4566929133858268
          },
          {
            "duration": 0.13636350000001585,
            "durationTicks": 144,
            "midi": 54,
            "name": "F#3",
            "ticks": 237600,
            "time": 224.999775,
            "velocity": 0.4566929133858268
          },
          {
            "duration": 0.13636350000001585,
            "durationTicks": 144,
            "midi": 55,
            "name": "G3",
            "ticks": 237840,
            "time": 225.2270475,
            "velocity": 0.4566929133858268
          },
          {
            "duration": 0.36363600000001384,
            "durationTicks": 384,
            "midi": 57,
            "name": "A3",
            "ticks": 238080,
            "time": 225.45432,
            "velocity": 0.4566929133858268
          },
          {
            "duration": 0.227272499999998,
            "durationTicks": 240,
            "midi": 50,
            "name": "D3",
            "ticks": 238800,
            "time": 226.13613750000002,
            "velocity": 0.7244094488188977
          },
          {
            "duration": 0.227272499999998,
            "durationTicks": 240,
            "midi": 52,
            "name": "E3",
            "ticks": 239040,
            "time": 226.36341000000002,
            "velocity": 0.7244094488188977
          },
          {
            "duration": 0.227272499999998,
            "durationTicks": 240,
            "midi": 54,
            "name": "F#3",
            "ticks": 239280,
            "time": 226.5906825,
            "velocity": 0.7244094488188977
          },
          {
            "duration": 0.227272499999998,
            "durationTicks": 240,
            "midi": 55,
            "name": "G3",
            "ticks": 239520,
            "time": 226.817955,
            "velocity": 0.7244094488188977
          },
          {
            "duration": 0.227272499999998,
            "durationTicks": 240,
            "midi": 57,
            "name": "A3",
            "ticks": 239760,
            "time": 227.0452275,
            "velocity": 0.7244094488188977
          },
          {
            "duration": 0.227272499999998,
            "durationTicks": 240,
            "midi": 60,
            "name": "C4",
            "ticks": 240000,
            "time": 227.2725,
            "velocity": 0.7244094488188977
          },
          {
            "duration": 0.227272499999998,
            "durationTicks": 240,
            "midi": 58,
            "name": "A#3",
            "ticks": 240240,
            "time": 227.4997725,
            "velocity": 0.7244094488188977
          },
          {
            "duration": 0.227272499999998,
            "durationTicks": 240,
            "midi": 54,
            "name": "F#3",
            "ticks": 240720,
            "time": 227.9543175,
            "velocity": 0.7244094488188977
          },
          {
            "duration": 0.227272499999998,
            "durationTicks": 240,
            "midi": 55,
            "name": "G3",
            "ticks": 240960,
            "time": 228.18159,
            "velocity": 0.7244094488188977
          },
          {
            "duration": 0.227272499999998,
            "durationTicks": 240,
            "midi": 57,
            "name": "A3",
            "ticks": 241200,
            "time": 228.4088625,
            "velocity": 0.7244094488188977
          },
          {
            "duration": 0.2272725000000264,
            "durationTicks": 240,
            "midi": 58,
            "name": "A#3",
            "ticks": 241440,
            "time": 228.636135,
            "velocity": 0.7244094488188977
          },
          {
            "duration": 0.227272499999998,
            "durationTicks": 240,
            "midi": 61,
            "name": "C#4",
            "ticks": 241680,
            "time": 228.86340750000002,
            "velocity": 0.7244094488188977
          },
          {
            "duration": 0.227272499999998,
            "durationTicks": 240,
            "midi": 64,
            "name": "E4",
            "ticks": 241920,
            "time": 229.09068000000002,
            "velocity": 0.7244094488188977
          },
          {
            "duration": 0.1818179999999927,
            "durationTicks": 192,
            "midi": 62,
            "name": "D4",
            "ticks": 242160,
            "time": 229.31795250000002,
            "velocity": 0.7244094488188977
          },
          {
            "duration": 0.13636349999998743,
            "durationTicks": 144,
            "midi": 71,
            "name": "B4",
            "ticks": 245760,
            "time": 232.72704000000002,
            "velocity": 0.4566929133858268
          },
          {
            "duration": 0.13636349999998743,
            "durationTicks": 144,
            "midi": 71,
            "name": "B4",
            "ticks": 246000,
            "time": 232.95431250000001,
            "velocity": 0.4566929133858268
          },
          {
            "duration": 0.227272499999998,
            "durationTicks": 240,
            "midi": 71,
            "name": "B4",
            "ticks": 246240,
            "time": 233.181585,
            "velocity": 0.4566929133858268
          },
          {
            "duration": 0.13636350000001585,
            "durationTicks": 144,
            "midi": 72,
            "name": "C5",
            "ticks": 246480,
            "time": 233.4088575,
            "velocity": 0.4566929133858268
          },
          {
            "duration": 0.13636349999998743,
            "durationTicks": 144,
            "midi": 69,
            "name": "A4",
            "ticks": 246720,
            "time": 233.63613,
            "velocity": 0.4566929133858268
          },
          {
            "duration": 0.13636349999998743,
            "durationTicks": 144,
            "midi": 69,
            "name": "A4",
            "ticks": 246960,
            "time": 233.8634025,
            "velocity": 0.4566929133858268
          },
          {
            "duration": 0.227272499999998,
            "durationTicks": 240,
            "midi": 69,
            "name": "A4",
            "ticks": 247200,
            "time": 234.090675,
            "velocity": 0.4566929133858268
          },
          {
            "duration": 0.13636349999998743,
            "durationTicks": 144,
            "midi": 71,
            "name": "B4",
            "ticks": 247440,
            "time": 234.3179475,
            "velocity": 0.4566929133858268
          },
          {
            "duration": 0.13636349999998743,
            "durationTicks": 144,
            "midi": 67,
            "name": "G4",
            "ticks": 247680,
            "time": 234.54522,
            "velocity": 0.4566929133858268
          },
          {
            "duration": 0.13636349999998743,
            "durationTicks": 144,
            "midi": 67,
            "name": "G4",
            "ticks": 247920,
            "time": 234.7724925,
            "velocity": 0.4566929133858268
          },
          {
            "duration": 0.227272499999998,
            "durationTicks": 240,
            "midi": 67,
            "name": "G4",
            "ticks": 248160,
            "time": 234.999765,
            "velocity": 0.4566929133858268
          },
          {
            "duration": 0.13636349999998743,
            "durationTicks": 144,
            "midi": 71,
            "name": "B4",
            "ticks": 248400,
            "time": 235.2270375,
            "velocity": 0.4566929133858268
          },
          {
            "duration": 0.227272499999998,
            "durationTicks": 240,
            "midi": 71,
            "name": "B4",
            "ticks": 248640,
            "time": 235.45431000000002,
            "velocity": 0.4566929133858268
          },
          {
            "duration": 0.1818179999999927,
            "durationTicks": 192,
            "midi": 69,
            "name": "A4",
            "ticks": 248880,
            "time": 235.68158250000002,
            "velocity": 0.4566929133858268
          },
          {
            "duration": 0.1818179999999927,
            "durationTicks": 192,
            "midi": 67,
            "name": "G4",
            "ticks": 249120,
            "time": 235.90885500000002,
            "velocity": 0.4566929133858268
          },
          {
            "duration": 0.1818179999999927,
            "durationTicks": 192,
            "midi": 62,
            "name": "D4",
            "ticks": 249360,
            "time": 236.13612750000001,
            "velocity": 0.4566929133858268
          },
          {
            "duration": 0.3636359999999854,
            "durationTicks": 384,
            "midi": 59,
            "name": "B3",
            "ticks": 249600,
            "time": 236.3634,
            "velocity": 0.984251968503937
          },
          {
            "duration": 0.13636349999998743,
            "durationTicks": 144,
            "midi": 62,
            "name": "D4",
            "ticks": 250320,
            "time": 237.0452175,
            "velocity": 0.8267716535433071
          },
          {
            "duration": 0.3636359999999854,
            "durationTicks": 384,
            "midi": 67,
            "name": "G4",
            "ticks": 250560,
            "time": 237.27249,
            "velocity": 0.8267716535433071
          },
          {
            "duration": 0.13636349999998743,
            "durationTicks": 144,
            "midi": 62,
            "name": "D4",
            "ticks": 251280,
            "time": 237.9543075,
            "velocity": 0.8267716535433071
          },
          {
            "duration": 0.13636349999998743,
            "durationTicks": 144,
            "midi": 67,
            "name": "G4",
            "ticks": 251520,
            "time": 238.18158,
            "velocity": 0.8267716535433071
          },
          {
            "duration": 0.13636349999998743,
            "durationTicks": 144,
            "midi": 62,
            "name": "D4",
            "ticks": 251760,
            "time": 238.4088525,
            "velocity": 0.8267716535433071
          },
          {
            "duration": 0.136363499999959,
            "durationTicks": 144,
            "midi": 67,
            "name": "G4",
            "ticks": 252000,
            "time": 238.63612500000002,
            "velocity": 0.8267716535433071
          },
          {
            "duration": 0.136363499999959,
            "durationTicks": 144,
            "midi": 71,
            "name": "B4",
            "ticks": 252240,
            "time": 238.86339750000002,
            "velocity": 0.8267716535433071
          },
          {
            "duration": 0.363635999999957,
            "durationTicks": 384,
            "midi": 74,
            "name": "D5",
            "ticks": 252480,
            "time": 239.09067000000002,
            "velocity": 0.8267716535433071
          },
          {
            "duration": 0.3636359999999854,
            "durationTicks": 384,
            "midi": 72,
            "name": "C5",
            "ticks": 253440,
            "time": 239.99976,
            "velocity": 0.8267716535433071
          },
          {
            "duration": 0.13636349999998743,
            "durationTicks": 144,
            "midi": 69,
            "name": "A4",
            "ticks": 254160,
            "time": 240.6815775,
            "velocity": 0.8267716535433071
          },
          {
            "duration": 0.3636359999999854,
            "durationTicks": 384,
            "midi": 72,
            "name": "C5",
            "ticks": 254400,
            "time": 240.90885,
            "velocity": 0.8267716535433071
          },
          {
            "duration": 0.13636349999998743,
            "durationTicks": 144,
            "midi": 69,
            "name": "A4",
            "ticks": 255120,
            "time": 241.5906675,
            "velocity": 0.8267716535433071
          },
          {
            "duration": 0.136363499999959,
            "durationTicks": 144,
            "midi": 72,
            "name": "C5",
            "ticks": 255360,
            "time": 241.81794000000002,
            "velocity": 0.8267716535433071
          },
          {
            "duration": 0.136363499999959,
            "durationTicks": 144,
            "midi": 69,
            "name": "A4",
            "ticks": 255600,
            "time": 242.04521250000002,
            "velocity": 0.8267716535433071
          },
          {
            "duration": 0.136363499999959,
            "durationTicks": 144,
            "midi": 66,
            "name": "F#4",
            "ticks": 255840,
            "time": 242.27248500000002,
            "velocity": 0.8267716535433071
          },
          {
            "duration": 0.136363499999959,
            "durationTicks": 144,
            "midi": 69,
            "name": "A4",
            "ticks": 256080,
            "time": 242.49975750000002,
            "velocity": 0.8267716535433071
          },
          {
            "duration": 0.3636359999999854,
            "durationTicks": 384,
            "midi": 62,
            "name": "D4",
            "ticks": 256320,
            "time": 242.72703,
            "velocity": 0.8267716535433071
          },
          {
            "duration": 0.13636349999998743,
            "durationTicks": 144,
            "midi": 67,
            "name": "G4",
            "ticks": 257280,
            "time": 243.63612,
            "velocity": 0.8267716535433071
          },
          {
            "duration": 0.13636349999998743,
            "durationTicks": 144,
            "midi": 67,
            "name": "G4",
            "ticks": 257520,
            "time": 243.8633925,
            "velocity": 0.8267716535433071
          },
          {
            "duration": 0.13636349999998743,
            "durationTicks": 144,
            "midi": 67,
            "name": "G4",
            "ticks": 257760,
            "time": 244.090665,
            "velocity": 0.8267716535433071
          },
          {
            "duration": 0.13636349999998743,
            "durationTicks": 144,
            "midi": 67,
            "name": "G4",
            "ticks": 258000,
            "time": 244.3179375,
            "velocity": 0.8267716535433071
          },
          {
            "duration": 0.13636349999998743,
            "durationTicks": 144,
            "midi": 67,
            "name": "G4",
            "ticks": 258240,
            "time": 244.54521,
            "velocity": 0.8267716535433071
          },
          {
            "duration": 0.13636349999998743,
            "durationTicks": 144,
            "midi": 67,
            "name": "G4",
            "ticks": 258480,
            "time": 244.7724825,
            "velocity": 0.8267716535433071
          },
          {
            "duration": 0.136363499999959,
            "durationTicks": 144,
            "midi": 67,
            "name": "G4",
            "ticks": 258720,
            "time": 244.99975500000002,
            "velocity": 0.8267716535433071
          },
          {
            "duration": 0.136363499999959,
            "durationTicks": 144,
            "midi": 67,
            "name": "G4",
            "ticks": 258960,
            "time": 245.22702750000002,
            "velocity": 0.8267716535433071
          },
          {
            "duration": 0.136363499999959,
            "durationTicks": 144,
            "midi": 69,
            "name": "A4",
            "ticks": 259200,
            "time": 245.45430000000002,
            "velocity": 0.8267716535433071
          },
          {
            "duration": 0.136363499999959,
            "durationTicks": 144,
            "midi": 69,
            "name": "A4",
            "ticks": 259440,
            "time": 245.68157250000002,
            "velocity": 0.8267716535433071
          },
          {
            "duration": 0.13636349999998743,
            "durationTicks": 144,
            "midi": 69,
            "name": "A4",
            "ticks": 259680,
            "time": 245.908845,
            "velocity": 0.8267716535433071
          },
          {
            "duration": 0.13636349999998743,
            "durationTicks": 144,
            "midi": 69,
            "name": "A4",
            "ticks": 259920,
            "time": 246.1361175,
            "velocity": 0.8267716535433071
          },
          {
            "duration": 0.227272499999998,
            "durationTicks": 240,
            "midi": 69,
            "name": "A4",
            "ticks": 260160,
            "time": 246.36339,
            "velocity": 0.8267716535433071
          },
          {
            "duration": 0.13636349999998743,
            "durationTicks": 144,
            "midi": 72,
            "name": "C5",
            "ticks": 260400,
            "time": 246.5906625,
            "velocity": 0.8267716535433071
          },
          {
            "duration": 0.227272499999998,
            "durationTicks": 240,
            "midi": 66,
            "name": "F#4",
            "ticks": 260640,
            "time": 246.817935,
            "velocity": 0.8267716535433071
          },
          {
            "duration": 0.13636349999998743,
            "durationTicks": 144,
            "midi": 69,
            "name": "A4",
            "ticks": 260880,
            "time": 247.0452075,
            "velocity": 0.8267716535433071
          },
          {
            "duration": 0.13636349999998743,
            "durationTicks": 144,
            "midi": 67,
            "name": "G4",
            "ticks": 261120,
            "time": 247.27248,
            "velocity": 0.8267716535433071
          },
          {
            "duration": 0.13636349999998743,
            "durationTicks": 144,
            "midi": 67,
            "name": "G4",
            "ticks": 261360,
            "time": 247.4997525,
            "velocity": 0.8267716535433071
          },
          {
            "duration": 0.13636349999998743,
            "durationTicks": 144,
            "midi": 67,
            "name": "G4",
            "ticks": 261600,
            "time": 247.727025,
            "velocity": 0.8267716535433071
          },
          {
            "duration": 0.13636349999998743,
            "durationTicks": 144,
            "midi": 67,
            "name": "G4",
            "ticks": 261840,
            "time": 247.9542975,
            "velocity": 0.8267716535433071
          },
          {
            "duration": 0.136363499999959,
            "durationTicks": 144,
            "midi": 67,
            "name": "G4",
            "ticks": 262080,
            "time": 248.18157000000002,
            "velocity": 0.8267716535433071
          },
          {
            "duration": 0.136363499999959,
            "durationTicks": 144,
            "midi": 67,
            "name": "G4",
            "ticks": 262320,
            "time": 248.40884250000002,
            "velocity": 0.8267716535433071
          },
          {
            "duration": 0.136363499999959,
            "durationTicks": 144,
            "midi": 67,
            "name": "G4",
            "ticks": 262560,
            "time": 248.63611500000002,
            "velocity": 0.8267716535433071
          },
          {
            "duration": 0.136363499999959,
            "durationTicks": 144,
            "midi": 67,
            "name": "G4",
            "ticks": 262800,
            "time": 248.86338750000002,
            "velocity": 0.8267716535433071
          },
          {
            "duration": 0.13636349999998743,
            "durationTicks": 144,
            "midi": 69,
            "name": "A4",
            "ticks": 263040,
            "time": 249.09066,
            "velocity": 0.8267716535433071
          },
          {
            "duration": 0.13636349999998743,
            "durationTicks": 144,
            "midi": 69,
            "name": "A4",
            "ticks": 263280,
            "time": 249.3179325,
            "velocity": 0.8267716535433071
          },
          {
            "duration": 0.13636349999998743,
            "durationTicks": 144,
            "midi": 69,
            "name": "A4",
            "ticks": 263520,
            "time": 249.545205,
            "velocity": 0.8267716535433071
          },
          {
            "duration": 0.13636349999998743,
            "durationTicks": 144,
            "midi": 69,
            "name": "A4",
            "ticks": 263760,
            "time": 249.7724775,
            "velocity": 0.8267716535433071
          },
          {
            "duration": 0.227272499999998,
            "durationTicks": 240,
            "midi": 69,
            "name": "A4",
            "ticks": 264000,
            "time": 249.99975,
            "velocity": 0.8267716535433071
          },
          {
            "duration": 0.13636349999998743,
            "durationTicks": 144,
            "midi": 72,
            "name": "C5",
            "ticks": 264240,
            "time": 250.2270225,
            "velocity": 0.8267716535433071
          },
          {
            "duration": 0.227272499999998,
            "durationTicks": 240,
            "midi": 66,
            "name": "F#4",
            "ticks": 264480,
            "time": 250.454295,
            "velocity": 0.8267716535433071
          },
          {
            "duration": 0.13636349999998743,
            "durationTicks": 144,
            "midi": 69,
            "name": "A4",
            "ticks": 264720,
            "time": 250.6815675,
            "velocity": 0.8267716535433071
          },
          {
            "duration": 0.09090900000003899,
            "durationTicks": 96,
            "midi": 62,
            "name": "D4",
            "ticks": 264960,
            "time": 250.90884,
            "velocity": 0.8267716535433071
          },
          {
            "duration": 0.09090900000001056,
            "durationTicks": 96,
            "midi": 62,
            "name": "D4",
            "ticks": 265080,
            "time": 251.02247625,
            "velocity": 0.8267716535433071
          },
          {
            "duration": 0.09090900000003899,
            "durationTicks": 96,
            "midi": 62,
            "name": "D4",
            "ticks": 265200,
            "time": 251.1361125,
            "velocity": 0.8267716535433071
          },
          {
            "duration": 0.09090900000001056,
            "durationTicks": 96,
            "midi": 62,
            "name": "D4",
            "ticks": 265320,
            "time": 251.24974875,
            "velocity": 0.8267716535433071
          },
          {
            "duration": 0.09090900000001056,
            "durationTicks": 96,
            "midi": 62,
            "name": "D4",
            "ticks": 265440,
            "time": 251.36338500000002,
            "velocity": 0.8267716535433071
          },
          {
            "duration": 0.09090900000001056,
            "durationTicks": 96,
            "midi": 62,
            "name": "D4",
            "ticks": 265560,
            "time": 251.47702125,
            "velocity": 0.8267716535433071
          },
          {
            "duration": 0.09090900000001056,
            "durationTicks": 96,
            "midi": 62,
            "name": "D4",
            "ticks": 265680,
            "time": 251.59065750000002,
            "velocity": 0.8267716535433071
          },
          {
            "duration": 0.09090900000003899,
            "durationTicks": 96,
            "midi": 62,
            "name": "D4",
            "ticks": 265800,
            "time": 251.70429375,
            "velocity": 0.8267716535433071
          },
          {
            "duration": 0.09090900000001056,
            "durationTicks": 96,
            "midi": 62,
            "name": "D4",
            "ticks": 265920,
            "time": 251.81793000000002,
            "velocity": 0.8267716535433071
          },
          {
            "duration": 0.09090900000003899,
            "durationTicks": 96,
            "midi": 62,
            "name": "D4",
            "ticks": 266040,
            "time": 251.93156625,
            "velocity": 0.8267716535433071
          },
          {
            "duration": 0.09090900000001056,
            "durationTicks": 96,
            "midi": 62,
            "name": "D4",
            "ticks": 266160,
            "time": 252.04520250000002,
            "velocity": 0.8267716535433071
          },
          {
            "duration": 0.09090900000003899,
            "durationTicks": 96,
            "midi": 62,
            "name": "D4",
            "ticks": 266280,
            "time": 252.15883875,
            "velocity": 0.8267716535433071
          },
          {
            "duration": 0.09090900000001056,
            "durationTicks": 96,
            "midi": 62,
            "name": "D4",
            "ticks": 266400,
            "time": 252.27247500000001,
            "velocity": 0.8267716535433071
          },
          {
            "duration": 0.09090900000003899,
            "durationTicks": 96,
            "midi": 62,
            "name": "D4",
            "ticks": 266520,
            "time": 252.38611125,
            "velocity": 0.8267716535433071
          },
          {
            "duration": 0.09090900000001056,
            "durationTicks": 96,
            "midi": 62,
            "name": "D4",
            "ticks": 266640,
            "time": 252.4997475,
            "velocity": 0.8267716535433071
          },
          {
            "duration": 0.09090900000003899,
            "durationTicks": 96,
            "midi": 62,
            "name": "D4",
            "ticks": 266760,
            "time": 252.61338375,
            "velocity": 0.8267716535433071
          },
          {
            "duration": 0.09090900000001056,
            "durationTicks": 96,
            "midi": 62,
            "name": "D4",
            "ticks": 266880,
            "time": 252.72702,
            "velocity": 0.8267716535433071
          },
          {
            "duration": 0.09090900000001056,
            "durationTicks": 96,
            "midi": 62,
            "name": "D4",
            "ticks": 267000,
            "time": 252.84065625000002,
            "velocity": 0.8267716535433071
          },
          {
            "duration": 0.09090900000001056,
            "durationTicks": 96,
            "midi": 62,
            "name": "D4",
            "ticks": 267120,
            "time": 252.9542925,
            "velocity": 0.8267716535433071
          },
          {
            "duration": 0.09090900000001056,
            "durationTicks": 96,
            "midi": 62,
            "name": "D4",
            "ticks": 267240,
            "time": 253.06792875000002,
            "velocity": 0.8267716535433071
          },
          {
            "duration": 0.09090900000001056,
            "durationTicks": 96,
            "midi": 62,
            "name": "D4",
            "ticks": 267360,
            "time": 253.181565,
            "velocity": 0.8267716535433071
          },
          {
            "duration": 0.09090900000001056,
            "durationTicks": 96,
            "midi": 62,
            "name": "D4",
            "ticks": 267480,
            "time": 253.29520125000002,
            "velocity": 0.8267716535433071
          },
          {
            "duration": 0.09090900000003899,
            "durationTicks": 96,
            "midi": 62,
            "name": "D4",
            "ticks": 267600,
            "time": 253.4088375,
            "velocity": 0.8267716535433071
          },
          {
            "duration": 0.09090900000001056,
            "durationTicks": 96,
            "midi": 62,
            "name": "D4",
            "ticks": 267720,
            "time": 253.52247375000002,
            "velocity": 0.8267716535433071
          },
          {
            "duration": 0.3636359999999854,
            "durationTicks": 384,
            "midi": 62,
            "name": "D4",
            "ticks": 267840,
            "time": 253.63611,
            "velocity": 0.7244094488188977
          },
          {
            "duration": 0.909089999999992,
            "durationTicks": 960,
            "midi": 54,
            "name": "F#3",
            "ticks": 270720,
            "time": 256.36338,
            "velocity": 0.4566929133858268
          },
          {
            "duration": 0.7272720000000277,
            "durationTicks": 768,
            "midi": 55,
            "name": "G3",
            "ticks": 271680,
            "time": 257.27247,
            "velocity": 0.4566929133858268
          },
          {
            "duration": 0.29545425000003434,
            "durationTicks": 312,
            "midi": 60,
            "name": "C4",
            "ticks": 272640,
            "time": 258.18156,
            "velocity": 0.4566929133858268
          },
          {
            "duration": 0.29545425000003434,
            "durationTicks": 312,
            "midi": 60,
            "name": "C4",
            "ticks": 273120,
            "time": 258.636105,
            "velocity": 0.4566929133858268
          },
          {
            "duration": 0.29545425000003434,
            "durationTicks": 312,
            "midi": 57,
            "name": "A3",
            "ticks": 273600,
            "time": 259.09065,
            "velocity": 0.4566929133858268
          },
          {
            "duration": 0.2954542499999775,
            "durationTicks": 312,
            "midi": 50,
            "name": "D3",
            "ticks": 274080,
            "time": 259.54519500000004,
            "velocity": 0.4566929133858268
          },
          {
            "duration": 0.14772712500001717,
            "durationTicks": 156,
            "midi": 50,
            "name": "D3",
            "ticks": 274560,
            "time": 259.99974000000003,
            "velocity": 0.4566929133858268
          },
          {
            "duration": 0.14772712500001717,
            "durationTicks": 156,
            "midi": 62,
            "name": "D4",
            "ticks": 275040,
            "time": 260.454285,
            "velocity": 0.4566929133858268
          },
          {
            "duration": 0.14772712500001717,
            "durationTicks": 156,
            "midi": 62,
            "name": "D4",
            "ticks": 275520,
            "time": 260.90883,
            "velocity": 0.4566929133858268
          },
          {
            "duration": 0.909089999999992,
            "durationTicks": 960,
            "midi": 66,
            "name": "F#4",
            "ticks": 278400,
            "time": 263.6361,
            "velocity": 0.4566929133858268
          },
          {
            "duration": 0.7272720000000277,
            "durationTicks": 768,
            "midi": 67,
            "name": "G4",
            "ticks": 279360,
            "time": 264.54519,
            "velocity": 0.4566929133858268
          },
          {
            "duration": 0.29545425000003434,
            "durationTicks": 312,
            "midi": 60,
            "name": "C4",
            "ticks": 280320,
            "time": 265.45428,
            "velocity": 0.4566929133858268
          },
          {
            "duration": 0.14772712500001717,
            "durationTicks": 156,
            "midi": 60,
            "name": "C4",
            "ticks": 280800,
            "time": 265.90882500000004,
            "velocity": 0.4566929133858268
          },
          {
            "duration": 0.14772712500001717,
            "durationTicks": 156,
            "midi": 60,
            "name": "C4",
            "ticks": 281040,
            "time": 266.1360975,
            "velocity": 0.4566929133858268
          },
          {
            "duration": 0.2954542499999775,
            "durationTicks": 312,
            "midi": 57,
            "name": "A3",
            "ticks": 281280,
            "time": 266.36337000000003,
            "velocity": 0.4566929133858268
          },
          {
            "duration": 0.14772712500001717,
            "durationTicks": 156,
            "midi": 57,
            "name": "A3",
            "ticks": 281760,
            "time": 266.817915,
            "velocity": 0.4566929133858268
          },
          {
            "duration": 0.14772712500001717,
            "durationTicks": 156,
            "midi": 57,
            "name": "A3",
            "ticks": 282000,
            "time": 267.0451875,
            "velocity": 0.4566929133858268
          },
          {
            "duration": 0.14772712500001717,
            "durationTicks": 156,
            "midi": 55,
            "name": "G3",
            "ticks": 282240,
            "time": 267.27246,
            "velocity": 0.8818897637795275
          },
          {
            "duration": 0.14772712500001717,
            "durationTicks": 156,
            "midi": 55,
            "name": "G3",
            "ticks": 282480,
            "time": 267.4997325,
            "velocity": 0.7244094488188977
          },
          {
            "duration": 0.14772712500001717,
            "durationTicks": 156,
            "midi": 55,
            "name": "G3",
            "ticks": 282720,
            "time": 267.727005,
            "velocity": 0.7244094488188977
          },
          {
            "duration": 0.14772712500001717,
            "durationTicks": 156,
            "midi": 55,
            "name": "G3",
            "ticks": 282960,
            "time": 267.9542775,
            "velocity": 0.7244094488188977
          },
          {
            "duration": 0.14772712500001717,
            "durationTicks": 156,
            "midi": 55,
            "name": "G3",
            "ticks": 283200,
            "time": 268.18155,
            "velocity": 0.4566929133858268
          },
          {
            "duration": 0.147727125000074,
            "durationTicks": 156,
            "midi": 55,
            "name": "G3",
            "ticks": 283440,
            "time": 268.4088225,
            "velocity": 0.4566929133858268
          },
          {
            "duration": 0.14772712500001717,
            "durationTicks": 156,
            "midi": 55,
            "name": "G3",
            "ticks": 283680,
            "time": 268.636095,
            "velocity": 0.4566929133858268
          },
          {
            "duration": 0.14772712500001717,
            "durationTicks": 156,
            "midi": 55,
            "name": "G3",
            "ticks": 283920,
            "time": 268.86336750000004,
            "velocity": 0.4566929133858268
          },
          {
            "duration": 0.14772712500001717,
            "durationTicks": 156,
            "midi": 55,
            "name": "G3",
            "ticks": 284160,
            "time": 269.09064,
            "velocity": 0.8818897637795275
          },
          {
            "duration": 0.14772712500001717,
            "durationTicks": 156,
            "midi": 55,
            "name": "G3",
            "ticks": 284400,
            "time": 269.31791250000003,
            "velocity": 0.7244094488188977
          },
          {
            "duration": 0.14772712500001717,
            "durationTicks": 156,
            "midi": 55,
            "name": "G3",
            "ticks": 284640,
            "time": 269.545185,
            "velocity": 0.7244094488188977
          },
          {
            "duration": 0.14772712500001717,
            "durationTicks": 156,
            "midi": 55,
            "name": "G3",
            "ticks": 284880,
            "time": 269.77245750000003,
            "velocity": 0.7244094488188977
          },
          {
            "duration": 0.14772712500001717,
            "durationTicks": 156,
            "midi": 55,
            "name": "G3",
            "ticks": 285120,
            "time": 269.99973,
            "velocity": 0.4566929133858268
          },
          {
            "duration": 0.14772712500001717,
            "durationTicks": 156,
            "midi": 55,
            "name": "G3",
            "ticks": 285360,
            "time": 270.2270025,
            "velocity": 0.4566929133858268
          },
          {
            "duration": 0.14772712500001717,
            "durationTicks": 156,
            "midi": 55,
            "name": "G3",
            "ticks": 285600,
            "time": 270.454275,
            "velocity": 0.4566929133858268
          },
          {
            "duration": 0.14772712500001717,
            "durationTicks": 156,
            "midi": 55,
            "name": "G3",
            "ticks": 285840,
            "time": 270.6815475,
            "velocity": 0.4566929133858268
          },
          {
            "duration": 0.14772712500001717,
            "durationTicks": 156,
            "midi": 55,
            "name": "G3",
            "ticks": 286080,
            "time": 270.90882,
            "velocity": 0.5669291338582677
          },
          {
            "duration": 0.14772712500001717,
            "durationTicks": 156,
            "midi": 67,
            "name": "G4",
            "ticks": 286320,
            "time": 271.1360925,
            "velocity": 0.5669291338582677
          },
          {
            "duration": 0.14772712500001717,
            "durationTicks": 156,
            "midi": 67,
            "name": "G4",
            "ticks": 286560,
            "time": 271.363365,
            "velocity": 0.5669291338582677
          },
          {
            "duration": 0.14772712500001717,
            "durationTicks": 156,
            "midi": 67,
            "name": "G4",
            "ticks": 286800,
            "time": 271.5906375,
            "velocity": 0.6377952755905512
          },
          {
            "duration": 0.147727125000074,
            "durationTicks": 156,
            "midi": 67,
            "name": "G4",
            "ticks": 287040,
            "time": 271.81791,
            "velocity": 0.6377952755905512
          },
          {
            "duration": 0.14772712500001717,
            "durationTicks": 156,
            "midi": 67,
            "name": "G4",
            "ticks": 287280,
            "time": 272.0451825,
            "velocity": 0.6377952755905512
          },
          {
            "duration": 0.14772712500001717,
            "durationTicks": 156,
            "midi": 69,
            "name": "A4",
            "ticks": 287520,
            "time": 272.27245500000004,
            "velocity": 0.6377952755905512
          },
          {
            "duration": 0.14772712500001717,
            "durationTicks": 156,
            "midi": 69,
            "name": "A4",
            "ticks": 287760,
            "time": 272.4997275,
            "velocity": 0.6377952755905512
          },
          {
            "duration": 0.14772712500001717,
            "durationTicks": 156,
            "midi": 67,
            "name": "G4",
            "ticks": 288000,
            "time": 272.72700000000003,
            "velocity": 0.6377952755905512
          },
          {
            "duration": 0.14772712500001717,
            "durationTicks": 156,
            "midi": 67,
            "name": "G4",
            "ticks": 288240,
            "time": 272.9542725,
            "velocity": 0.7244094488188977
          },
          {
            "duration": 0.14772712500001717,
            "durationTicks": 156,
            "midi": 66,
            "name": "F#4",
            "ticks": 288480,
            "time": 273.181545,
            "velocity": 0.7244094488188977
          },
          {
            "duration": 0.14772712500001717,
            "durationTicks": 156,
            "midi": 66,
            "name": "F#4",
            "ticks": 288720,
            "time": 273.4088175,
            "velocity": 0.7244094488188977
          },
          {
            "duration": 0.14772712500001717,
            "durationTicks": 156,
            "midi": 67,
            "name": "G4",
            "ticks": 288960,
            "time": 273.63609,
            "velocity": 0.8267716535433071
          },
          {
            "duration": 0.14772712500001717,
            "durationTicks": 156,
            "midi": 67,
            "name": "G4",
            "ticks": 289200,
            "time": 273.8633625,
            "velocity": 0.8267716535433071
          },
          {
            "duration": 0.14772712500001717,
            "durationTicks": 156,
            "midi": 64,
            "name": "E4",
            "ticks": 289440,
            "time": 274.090635,
            "velocity": 0.8267716535433071
          },
          {
            "duration": 0.14772712500001717,
            "durationTicks": 156,
            "midi": 64,
            "name": "E4",
            "ticks": 289680,
            "time": 274.3179075,
            "velocity": 0.8267716535433071
          },
          {
            "duration": 0.09090900000001056,
            "durationTicks": 96,
            "midi": 62,
            "name": "D4",
            "ticks": 289920,
            "time": 274.54518,
            "velocity": 0.8267716535433071
          },
          {
            "duration": 0.09090900000001056,
            "durationTicks": 96,
            "midi": 69,
            "name": "A4",
            "ticks": 289920,
            "time": 274.54518,
            "velocity": 0.8267716535433071
          },
          {
            "duration": 0.09090900000001056,
            "durationTicks": 96,
            "midi": 62,
            "name": "D4",
            "ticks": 290040,
            "time": 274.65881625000003,
            "velocity": 0.8267716535433071
          },
          {
            "duration": 0.09090900000001056,
            "durationTicks": 96,
            "midi": 69,
            "name": "A4",
            "ticks": 290040,
            "time": 274.65881625000003,
            "velocity": 0.8267716535433071
          },
          {
            "duration": 0.09090900000006741,
            "durationTicks": 96,
            "midi": 62,
            "name": "D4",
            "ticks": 290160,
            "time": 274.7724525,
            "velocity": 0.8267716535433071
          },
          {
            "duration": 0.09090900000006741,
            "durationTicks": 96,
            "midi": 69,
            "name": "A4",
            "ticks": 290160,
            "time": 274.7724525,
            "velocity": 0.8267716535433071
          },
          {
            "duration": 0.09090900000001056,
            "durationTicks": 96,
            "midi": 62,
            "name": "D4",
            "ticks": 290280,
            "time": 274.88608875,
            "velocity": 0.8267716535433071
          },
          {
            "duration": 0.09090900000001056,
            "durationTicks": 96,
            "midi": 69,
            "name": "A4",
            "ticks": 290280,
            "time": 274.88608875,
            "velocity": 0.8267716535433071
          },
          {
            "duration": 0.09090900000001056,
            "durationTicks": 96,
            "midi": 62,
            "name": "D4",
            "ticks": 290400,
            "time": 274.999725,
            "velocity": 0.8267716535433071
          },
          {
            "duration": 0.09090900000001056,
            "durationTicks": 96,
            "midi": 69,
            "name": "A4",
            "ticks": 290400,
            "time": 274.999725,
            "velocity": 0.8267716535433071
          },
          {
            "duration": 0.09090900000001056,
            "durationTicks": 96,
            "midi": 62,
            "name": "D4",
            "ticks": 290520,
            "time": 275.11336125,
            "velocity": 0.8267716535433071
          },
          {
            "duration": 0.09090900000001056,
            "durationTicks": 96,
            "midi": 69,
            "name": "A4",
            "ticks": 290520,
            "time": 275.11336125,
            "velocity": 0.8267716535433071
          },
          {
            "duration": 0.09090900000001056,
            "durationTicks": 96,
            "midi": 62,
            "name": "D4",
            "ticks": 290640,
            "time": 275.22699750000004,
            "velocity": 0.8267716535433071
          },
          {
            "duration": 0.09090900000001056,
            "durationTicks": 96,
            "midi": 69,
            "name": "A4",
            "ticks": 290640,
            "time": 275.22699750000004,
            "velocity": 0.8267716535433071
          },
          {
            "duration": 0.09090900000001056,
            "durationTicks": 96,
            "midi": 62,
            "name": "D4",
            "ticks": 290760,
            "time": 275.34063375,
            "velocity": 0.8267716535433071
          },
          {
            "duration": 0.09090900000001056,
            "durationTicks": 96,
            "midi": 69,
            "name": "A4",
            "ticks": 290760,
            "time": 275.34063375,
            "velocity": 0.8267716535433071
          },
          {
            "duration": 0.09090900000001056,
            "durationTicks": 96,
            "midi": 64,
            "name": "E4",
            "ticks": 290880,
            "time": 275.45427,
            "velocity": 0.8267716535433071
          },
          {
            "duration": 0.09090900000001056,
            "durationTicks": 96,
            "midi": 69,
            "name": "A4",
            "ticks": 290880,
            "time": 275.45427,
            "velocity": 0.8267716535433071
          },
          {
            "duration": 0.09090900000001056,
            "durationTicks": 96,
            "midi": 64,
            "name": "E4",
            "ticks": 291000,
            "time": 275.56790625,
            "velocity": 0.8267716535433071
          },
          {
            "duration": 0.09090900000001056,
            "durationTicks": 96,
            "midi": 69,
            "name": "A4",
            "ticks": 291000,
            "time": 275.56790625,
            "velocity": 0.8267716535433071
          },
          {
            "duration": 0.09090900000001056,
            "durationTicks": 96,
            "midi": 64,
            "name": "E4",
            "ticks": 291120,
            "time": 275.68154250000003,
            "velocity": 0.8267716535433071
          },
          {
            "duration": 0.09090900000001056,
            "durationTicks": 96,
            "midi": 69,
            "name": "A4",
            "ticks": 291120,
            "time": 275.68154250000003,
            "velocity": 0.8267716535433071
          },
          {
            "duration": 0.09090900000006741,
            "durationTicks": 96,
            "midi": 64,
            "name": "E4",
            "ticks": 291240,
            "time": 275.79517875,
            "velocity": 0.8267716535433071
          },
          {
            "duration": 0.09090900000006741,
            "durationTicks": 96,
            "midi": 69,
            "name": "A4",
            "ticks": 291240,
            "time": 275.79517875,
            "velocity": 0.8267716535433071
          },
          {
            "duration": 0.09090900000001056,
            "durationTicks": 96,
            "midi": 64,
            "name": "E4",
            "ticks": 291360,
            "time": 275.908815,
            "velocity": 0.8267716535433071
          },
          {
            "duration": 0.09090900000001056,
            "durationTicks": 96,
            "midi": 69,
            "name": "A4",
            "ticks": 291360,
            "time": 275.908815,
            "velocity": 0.8267716535433071
          },
          {
            "duration": 0.09090900000001056,
            "durationTicks": 96,
            "midi": 64,
            "name": "E4",
            "ticks": 291480,
            "time": 276.02245125,
            "velocity": 0.8267716535433071
          },
          {
            "duration": 0.09090900000001056,
            "durationTicks": 96,
            "midi": 69,
            "name": "A4",
            "ticks": 291480,
            "time": 276.02245125,
            "velocity": 0.8267716535433071
          },
          {
            "duration": 0.09090900000001056,
            "durationTicks": 96,
            "midi": 64,
            "name": "E4",
            "ticks": 291600,
            "time": 276.13608750000003,
            "velocity": 0.8267716535433071
          },
          {
            "duration": 0.09090900000001056,
            "durationTicks": 96,
            "midi": 69,
            "name": "A4",
            "ticks": 291600,
            "time": 276.13608750000003,
            "velocity": 0.8267716535433071
          },
          {
            "duration": 0.09090900000006741,
            "durationTicks": 96,
            "midi": 64,
            "name": "E4",
            "ticks": 291720,
            "time": 276.24972375,
            "velocity": 0.8267716535433071
          },
          {
            "duration": 0.09090900000006741,
            "durationTicks": 96,
            "midi": 69,
            "name": "A4",
            "ticks": 291720,
            "time": 276.24972375,
            "velocity": 0.8267716535433071
          },
          {
            "duration": 0.09090900000001056,
            "durationTicks": 96,
            "midi": 62,
            "name": "D4",
            "ticks": 291840,
            "time": 276.36336,
            "velocity": 0.8267716535433071
          },
          {
            "duration": 0.09090900000001056,
            "durationTicks": 96,
            "midi": 69,
            "name": "A4",
            "ticks": 291840,
            "time": 276.36336,
            "velocity": 0.8267716535433071
          },
          {
            "duration": 0.09090900000001056,
            "durationTicks": 96,
            "midi": 62,
            "name": "D4",
            "ticks": 291960,
            "time": 276.47699625,
            "velocity": 0.8267716535433071
          },
          {
            "duration": 0.09090900000001056,
            "durationTicks": 96,
            "midi": 69,
            "name": "A4",
            "ticks": 291960,
            "time": 276.47699625,
            "velocity": 0.8267716535433071
          },
          {
            "duration": 0.09090900000001056,
            "durationTicks": 96,
            "midi": 62,
            "name": "D4",
            "ticks": 292080,
            "time": 276.5906325,
            "velocity": 0.8267716535433071
          },
          {
            "duration": 0.09090900000001056,
            "durationTicks": 96,
            "midi": 69,
            "name": "A4",
            "ticks": 292080,
            "time": 276.5906325,
            "velocity": 0.8267716535433071
          },
          {
            "duration": 0.09090900000001056,
            "durationTicks": 96,
            "midi": 62,
            "name": "D4",
            "ticks": 292200,
            "time": 276.70426875000004,
            "velocity": 0.8267716535433071
          },
          {
            "duration": 0.09090900000001056,
            "durationTicks": 96,
            "midi": 69,
            "name": "A4",
            "ticks": 292200,
            "time": 276.70426875000004,
            "velocity": 0.8267716535433071
          },
          {
            "duration": 0.09090900000001056,
            "durationTicks": 96,
            "midi": 62,
            "name": "D4",
            "ticks": 292320,
            "time": 276.817905,
            "velocity": 0.8267716535433071
          },
          {
            "duration": 0.09090900000001056,
            "durationTicks": 96,
            "midi": 69,
            "name": "A4",
            "ticks": 292320,
            "time": 276.817905,
            "velocity": 0.8267716535433071
          },
          {
            "duration": 0.09090900000001056,
            "durationTicks": 96,
            "midi": 62,
            "name": "D4",
            "ticks": 292440,
            "time": 276.93154125,
            "velocity": 0.8267716535433071
          },
          {
            "duration": 0.09090900000001056,
            "durationTicks": 96,
            "midi": 69,
            "name": "A4",
            "ticks": 292440,
            "time": 276.93154125,
            "velocity": 0.8267716535433071
          },
          {
            "duration": 0.09090900000001056,
            "durationTicks": 96,
            "midi": 62,
            "name": "D4",
            "ticks": 292560,
            "time": 277.0451775,
            "velocity": 0.8267716535433071
          },
          {
            "duration": 0.09090900000001056,
            "durationTicks": 96,
            "midi": 69,
            "name": "A4",
            "ticks": 292560,
            "time": 277.0451775,
            "velocity": 0.8267716535433071
          },
          {
            "duration": 0.09090900000001056,
            "durationTicks": 96,
            "midi": 62,
            "name": "D4",
            "ticks": 292680,
            "time": 277.15881375000004,
            "velocity": 0.8267716535433071
          },
          {
            "duration": 0.09090900000001056,
            "durationTicks": 96,
            "midi": 69,
            "name": "A4",
            "ticks": 292680,
            "time": 277.15881375000004,
            "velocity": 0.8267716535433071
          },
          {
            "duration": 0.09090900000006741,
            "durationTicks": 96,
            "midi": 64,
            "name": "E4",
            "ticks": 292800,
            "time": 277.27245,
            "velocity": 0.8267716535433071
          },
          {
            "duration": 0.09090900000006741,
            "durationTicks": 96,
            "midi": 69,
            "name": "A4",
            "ticks": 292800,
            "time": 277.27245,
            "velocity": 0.8267716535433071
          },
          {
            "duration": 0.09090900000001056,
            "durationTicks": 96,
            "midi": 64,
            "name": "E4",
            "ticks": 292920,
            "time": 277.38608625,
            "velocity": 0.8267716535433071
          },
          {
            "duration": 0.09090900000001056,
            "durationTicks": 96,
            "midi": 69,
            "name": "A4",
            "ticks": 292920,
            "time": 277.38608625,
            "velocity": 0.8267716535433071
          },
          {
            "duration": 0.09090900000001056,
            "durationTicks": 96,
            "midi": 64,
            "name": "E4",
            "ticks": 293040,
            "time": 277.4997225,
            "velocity": 0.8267716535433071
          },
          {
            "duration": 0.09090900000001056,
            "durationTicks": 96,
            "midi": 69,
            "name": "A4",
            "ticks": 293040,
            "time": 277.4997225,
            "velocity": 0.8267716535433071
          },
          {
            "duration": 0.09090900000001056,
            "durationTicks": 96,
            "midi": 64,
            "name": "E4",
            "ticks": 293160,
            "time": 277.61335875000003,
            "velocity": 0.8267716535433071
          },
          {
            "duration": 0.09090900000001056,
            "durationTicks": 96,
            "midi": 69,
            "name": "A4",
            "ticks": 293160,
            "time": 277.61335875000003,
            "velocity": 0.8267716535433071
          },
          {
            "duration": 0.09090900000006741,
            "durationTicks": 96,
            "midi": 64,
            "name": "E4",
            "ticks": 293280,
            "time": 277.726995,
            "velocity": 0.8267716535433071
          },
          {
            "duration": 0.09090900000006741,
            "durationTicks": 96,
            "midi": 69,
            "name": "A4",
            "ticks": 293280,
            "time": 277.726995,
            "velocity": 0.8267716535433071
          },
          {
            "duration": 0.09090900000001056,
            "durationTicks": 96,
            "midi": 64,
            "name": "E4",
            "ticks": 293400,
            "time": 277.84063125,
            "velocity": 0.8267716535433071
          },
          {
            "duration": 0.09090900000001056,
            "durationTicks": 96,
            "midi": 69,
            "name": "A4",
            "ticks": 293400,
            "time": 277.84063125,
            "velocity": 0.8267716535433071
          },
          {
            "duration": 0.09090900000001056,
            "durationTicks": 96,
            "midi": 64,
            "name": "E4",
            "ticks": 293520,
            "time": 277.9542675,
            "velocity": 0.8267716535433071
          },
          {
            "duration": 0.09090900000001056,
            "durationTicks": 96,
            "midi": 69,
            "name": "A4",
            "ticks": 293520,
            "time": 277.9542675,
            "velocity": 0.8267716535433071
          },
          {
            "duration": 0.09090900000001056,
            "durationTicks": 96,
            "midi": 64,
            "name": "E4",
            "ticks": 293640,
            "time": 278.06790375,
            "velocity": 0.8267716535433071
          },
          {
            "duration": 0.09090900000001056,
            "durationTicks": 96,
            "midi": 69,
            "name": "A4",
            "ticks": 293640,
            "time": 278.06790375,
            "velocity": 0.8267716535433071
          },
          {
            "duration": 0.09090900000006741,
            "durationTicks": 96,
            "midi": 62,
            "name": "D4",
            "ticks": 293760,
            "time": 278.18154,
            "velocity": 0.8267716535433071
          },
          {
            "duration": 0.09090900000006741,
            "durationTicks": 96,
            "midi": 69,
            "name": "A4",
            "ticks": 293760,
            "time": 278.18154,
            "velocity": 0.8267716535433071
          },
          {
            "duration": 0.09090900000001056,
            "durationTicks": 96,
            "midi": 62,
            "name": "D4",
            "ticks": 293880,
            "time": 278.29517625,
            "velocity": 0.8267716535433071
          },
          {
            "duration": 0.09090900000001056,
            "durationTicks": 96,
            "midi": 69,
            "name": "A4",
            "ticks": 293880,
            "time": 278.29517625,
            "velocity": 0.8267716535433071
          },
          {
            "duration": 0.09090900000001056,
            "durationTicks": 96,
            "midi": 62,
            "name": "D4",
            "ticks": 294000,
            "time": 278.4088125,
            "velocity": 0.8267716535433071
          },
          {
            "duration": 0.09090900000001056,
            "durationTicks": 96,
            "midi": 69,
            "name": "A4",
            "ticks": 294000,
            "time": 278.4088125,
            "velocity": 0.8267716535433071
          },
          {
            "duration": 0.09090900000001056,
            "durationTicks": 96,
            "midi": 62,
            "name": "D4",
            "ticks": 294120,
            "time": 278.52244875,
            "velocity": 0.8267716535433071
          },
          {
            "duration": 0.09090900000001056,
            "durationTicks": 96,
            "midi": 69,
            "name": "A4",
            "ticks": 294120,
            "time": 278.52244875,
            "velocity": 0.8267716535433071
          },
          {
            "duration": 0.09090900000001056,
            "durationTicks": 96,
            "midi": 64,
            "name": "E4",
            "ticks": 294240,
            "time": 278.63608500000004,
            "velocity": 0.8267716535433071
          },
          {
            "duration": 0.09090900000001056,
            "durationTicks": 96,
            "midi": 69,
            "name": "A4",
            "ticks": 294240,
            "time": 278.63608500000004,
            "velocity": 0.8267716535433071
          },
          {
            "duration": 0.09090900000006741,
            "durationTicks": 96,
            "midi": 64,
            "name": "E4",
            "ticks": 294360,
            "time": 278.74972125,
            "velocity": 0.8267716535433071
          },
          {
            "duration": 0.09090900000006741,
            "durationTicks": 96,
            "midi": 69,
            "name": "A4",
            "ticks": 294360,
            "time": 278.74972125,
            "velocity": 0.8267716535433071
          },
          {
            "duration": 0.09090900000001056,
            "durationTicks": 96,
            "midi": 64,
            "name": "E4",
            "ticks": 294480,
            "time": 278.8633575,
            "velocity": 0.8267716535433071
          },
          {
            "duration": 0.09090900000001056,
            "durationTicks": 96,
            "midi": 69,
            "name": "A4",
            "ticks": 294480,
            "time": 278.8633575,
            "velocity": 0.8267716535433071
          },
          {
            "duration": 0.09090900000001056,
            "durationTicks": 96,
            "midi": 64,
            "name": "E4",
            "ticks": 294600,
            "time": 278.97699375,
            "velocity": 0.8267716535433071
          },
          {
            "duration": 0.09090900000001056,
            "durationTicks": 96,
            "midi": 69,
            "name": "A4",
            "ticks": 294600,
            "time": 278.97699375,
            "velocity": 0.8267716535433071
          },
          {
            "duration": 0.09090900000001056,
            "durationTicks": 96,
            "midi": 62,
            "name": "D4",
            "ticks": 294720,
            "time": 279.09063000000003,
            "velocity": 0.8267716535433071
          },
          {
            "duration": 0.09090900000001056,
            "durationTicks": 96,
            "midi": 69,
            "name": "A4",
            "ticks": 294720,
            "time": 279.09063000000003,
            "velocity": 0.8267716535433071
          },
          {
            "duration": 0.09090900000006741,
            "durationTicks": 96,
            "midi": 62,
            "name": "D4",
            "ticks": 294840,
            "time": 279.20426625,
            "velocity": 0.8267716535433071
          },
          {
            "duration": 0.09090900000006741,
            "durationTicks": 96,
            "midi": 69,
            "name": "A4",
            "ticks": 294840,
            "time": 279.20426625,
            "velocity": 0.8267716535433071
          },
          {
            "duration": 0.09090900000001056,
            "durationTicks": 96,
            "midi": 62,
            "name": "D4",
            "ticks": 294960,
            "time": 279.3179025,
            "velocity": 0.8267716535433071
          },
          {
            "duration": 0.09090900000001056,
            "durationTicks": 96,
            "midi": 69,
            "name": "A4",
            "ticks": 294960,
            "time": 279.3179025,
            "velocity": 0.8267716535433071
          },
          {
            "duration": 0.09090900000001056,
            "durationTicks": 96,
            "midi": 62,
            "name": "D4",
            "ticks": 295080,
            "time": 279.43153875,
            "velocity": 0.8267716535433071
          },
          {
            "duration": 0.09090900000001056,
            "durationTicks": 96,
            "midi": 69,
            "name": "A4",
            "ticks": 295080,
            "time": 279.43153875,
            "velocity": 0.8267716535433071
          },
          {
            "duration": 0.09090900000001056,
            "durationTicks": 96,
            "midi": 64,
            "name": "E4",
            "ticks": 295200,
            "time": 279.54517500000003,
            "velocity": 0.8267716535433071
          },
          {
            "duration": 0.09090900000001056,
            "durationTicks": 96,
            "midi": 69,
            "name": "A4",
            "ticks": 295200,
            "time": 279.54517500000003,
            "velocity": 0.8267716535433071
          },
          {
            "duration": 0.09090900000006741,
            "durationTicks": 96,
            "midi": 64,
            "name": "E4",
            "ticks": 295320,
            "time": 279.65881125,
            "velocity": 0.8267716535433071
          },
          {
            "duration": 0.09090900000006741,
            "durationTicks": 96,
            "midi": 69,
            "name": "A4",
            "ticks": 295320,
            "time": 279.65881125,
            "velocity": 0.8267716535433071
          },
          {
            "duration": 0.09090900000001056,
            "durationTicks": 96,
            "midi": 64,
            "name": "E4",
            "ticks": 295440,
            "time": 279.7724475,
            "velocity": 0.8267716535433071
          },
          {
            "duration": 0.09090900000001056,
            "durationTicks": 96,
            "midi": 69,
            "name": "A4",
            "ticks": 295440,
            "time": 279.7724475,
            "velocity": 0.8267716535433071
          },
          {
            "duration": 0.09090900000001056,
            "durationTicks": 96,
            "midi": 64,
            "name": "E4",
            "ticks": 295560,
            "time": 279.88608375,
            "velocity": 0.8267716535433071
          },
          {
            "duration": 0.09090900000001056,
            "durationTicks": 96,
            "midi": 69,
            "name": "A4",
            "ticks": 295560,
            "time": 279.88608375,
            "velocity": 0.8267716535433071
          },
          {
            "duration": 0.14772712500001717,
            "durationTicks": 156,
            "midi": 62,
            "name": "D4",
            "ticks": 295680,
            "time": 279.99972,
            "velocity": 0.8267716535433071
          },
          {
            "duration": 0.14772712500001717,
            "durationTicks": 156,
            "midi": 69,
            "name": "A4",
            "ticks": 295680,
            "time": 279.99972,
            "velocity": 0.8267716535433071
          },
          {
            "duration": 0.14772712500001717,
            "durationTicks": 156,
            "midi": 50,
            "name": "D3",
            "ticks": 295920,
            "time": 280.2269925,
            "velocity": 0.6377952755905512
          },
          {
            "duration": 0.14772712500001717,
            "durationTicks": 156,
            "midi": 50,
            "name": "D3",
            "ticks": 296160,
            "time": 280.454265,
            "velocity": 0.6377952755905512
          },
          {
            "duration": 0.14772712500001717,
            "durationTicks": 156,
            "midi": 50,
            "name": "D3",
            "ticks": 296400,
            "time": 280.6815375,
            "velocity": 0.6377952755905512
          },
          {
            "duration": 0.3636359999999854,
            "durationTicks": 384,
            "midi": 50,
            "name": "D3",
            "ticks": 296640,
            "time": 280.90881,
            "velocity": 0.6377952755905512
          },
          {
            "duration": 0.18181800000002113,
            "durationTicks": 192,
            "midi": 59,
            "name": "B3",
            "ticks": 299040,
            "time": 283.181535,
            "velocity": 0.4566929133858268
          },
          {
            "duration": 0.18181800000002113,
            "durationTicks": 192,
            "midi": 52,
            "name": "E3",
            "ticks": 299520,
            "time": 283.63608,
            "velocity": 0.4566929133858268
          },
          {
            "duration": 0.18181800000002113,
            "durationTicks": 192,
            "midi": 60,
            "name": "C4",
            "ticks": 300000,
            "time": 284.090625,
            "velocity": 0.4566929133858268
          },
          {
            "duration": 0.18181800000002113,
            "durationTicks": 192,
            "midi": 57,
            "name": "A3",
            "ticks": 300480,
            "time": 284.54517,
            "velocity": 0.4566929133858268
          },
          {
            "duration": 0.18181799999996429,
            "durationTicks": 192,
            "midi": 54,
            "name": "F#3",
            "ticks": 300960,
            "time": 284.99971500000004,
            "velocity": 0.4566929133858268
          },
          {
            "duration": 0.454544999999996,
            "durationTicks": 480,
            "midi": 69,
            "name": "A4",
            "ticks": 301920,
            "time": 285.90880500000003,
            "velocity": 0.4566929133858268
          },
          {
            "duration": 0.18181799999996429,
            "durationTicks": 192,
            "midi": 67,
            "name": "G4",
            "ticks": 302400,
            "time": 286.36335,
            "velocity": 0.4566929133858268
          },
          {
            "duration": 0.18181799999996429,
            "durationTicks": 192,
            "midi": 69,
            "name": "A4",
            "ticks": 302880,
            "time": 286.817895,
            "velocity": 0.4566929133858268
          },
          {
            "duration": 0.909089999999992,
            "durationTicks": 960,
            "midi": 67,
            "name": "G4",
            "ticks": 303360,
            "time": 287.27244,
            "velocity": 0.4566929133858268
          },
          {
            "duration": 0.3636359999999854,
            "durationTicks": 384,
            "midi": 66,
            "name": "F#4",
            "ticks": 304320,
            "time": 288.18153,
            "velocity": 0.4566929133858268
          },
          {
            "duration": 0.454544999999996,
            "durationTicks": 480,
            "midi": 66,
            "name": "F#4",
            "ticks": 305760,
            "time": 289.545165,
            "velocity": 0.4566929133858268
          },
          {
            "duration": 0.18181800000002113,
            "durationTicks": 192,
            "midi": 67,
            "name": "G4",
            "ticks": 306240,
            "time": 289.99971,
            "velocity": 0.4566929133858268
          },
          {
            "duration": 0.18181800000002113,
            "durationTicks": 192,
            "midi": 71,
            "name": "B4",
            "ticks": 306720,
            "time": 290.454255,
            "velocity": 0.4566929133858268
          },
          {
            "duration": 0.18181800000002113,
            "durationTicks": 192,
            "midi": 64,
            "name": "E4",
            "ticks": 307200,
            "time": 290.9088,
            "velocity": 0.4566929133858268
          },
          {
            "duration": 0.18181799999996429,
            "durationTicks": 192,
            "midi": 60,
            "name": "C4",
            "ticks": 307680,
            "time": 291.36334500000004,
            "velocity": 0.4566929133858268
          },
          {
            "duration": 0.3636359999999854,
            "durationTicks": 384,
            "midi": 57,
            "name": "A3",
            "ticks": 308160,
            "time": 291.81789000000003,
            "velocity": 0.4566929133858268
          },
          {
            "duration": 0.18181800000002113,
            "durationTicks": 192,
            "midi": 69,
            "name": "A4",
            "ticks": 308880,
            "time": 292.4997075,
            "velocity": 0.4566929133858268
          },
          {
            "duration": 0.22727249999996957,
            "durationTicks": 240,
            "midi": 69,
            "name": "A4",
            "ticks": 309120,
            "time": 292.72698,
            "velocity": 0.6141732283464567
          },
          {
            "duration": 0.18181800000002113,
            "durationTicks": 192,
            "midi": 67,
            "name": "G4",
            "ticks": 309360,
            "time": 292.9542525,
            "velocity": 0.4566929133858268
          },
          {
            "duration": 0.14772712500001717,
            "durationTicks": 156,
            "midi": 55,
            "name": "G3",
            "ticks": 311040,
            "time": 294.54516,
            "velocity": 0.4566929133858268
          },
          {
            "duration": 0.14772712500001717,
            "durationTicks": 156,
            "midi": 55,
            "name": "G3",
            "ticks": 311280,
            "time": 294.77243250000004,
            "velocity": 0.4566929133858268
          },
          {
            "duration": 0.14772712500001717,
            "durationTicks": 156,
            "midi": 57,
            "name": "A3",
            "ticks": 311520,
            "time": 294.999705,
            "velocity": 0.4566929133858268
          },
          {
            "duration": 0.14772712500001717,
            "durationTicks": 156,
            "midi": 57,
            "name": "A3",
            "ticks": 311760,
            "time": 295.22697750000003,
            "velocity": 0.4566929133858268
          },
          {
            "duration": 0.14772712500001717,
            "durationTicks": 156,
            "midi": 59,
            "name": "B3",
            "ticks": 312000,
            "time": 295.45425,
            "velocity": 0.4566929133858268
          },
          {
            "duration": 0.14772712500001717,
            "durationTicks": 156,
            "midi": 59,
            "name": "B3",
            "ticks": 312240,
            "time": 295.6815225,
            "velocity": 0.4566929133858268
          },
          {
            "duration": 0.14772712500001717,
            "durationTicks": 156,
            "midi": 55,
            "name": "G3",
            "ticks": 312480,
            "time": 295.908795,
            "velocity": 0.4566929133858268
          },
          {
            "duration": 0.14772712500001717,
            "durationTicks": 156,
            "midi": 55,
            "name": "G3",
            "ticks": 312720,
            "time": 296.1360675,
            "velocity": 0.4566929133858268
          },
          {
            "duration": 0.14772712500001717,
            "durationTicks": 156,
            "midi": 54,
            "name": "F#3",
            "ticks": 312960,
            "time": 296.36334,
            "velocity": 0.4566929133858268
          },
          {
            "duration": 0.14772712500001717,
            "durationTicks": 156,
            "midi": 54,
            "name": "F#3",
            "ticks": 313200,
            "time": 296.5906125,
            "velocity": 0.4566929133858268
          },
          {
            "duration": 0.14772712500001717,
            "durationTicks": 156,
            "midi": 55,
            "name": "G3",
            "ticks": 313440,
            "time": 296.817885,
            "velocity": 0.4566929133858268
          },
          {
            "duration": 0.14772712500001717,
            "durationTicks": 156,
            "midi": 55,
            "name": "G3",
            "ticks": 313680,
            "time": 297.0451575,
            "velocity": 0.4566929133858268
          },
          {
            "duration": 0.147727125000074,
            "durationTicks": 156,
            "midi": 57,
            "name": "A3",
            "ticks": 313920,
            "time": 297.27243,
            "velocity": 0.4566929133858268
          },
          {
            "duration": 0.14772712500001717,
            "durationTicks": 156,
            "midi": 57,
            "name": "A3",
            "ticks": 314160,
            "time": 297.4997025,
            "velocity": 0.4566929133858268
          },
          {
            "duration": 0.14772712500001717,
            "durationTicks": 156,
            "midi": 54,
            "name": "F#3",
            "ticks": 314400,
            "time": 297.72697500000004,
            "velocity": 0.4566929133858268
          },
          {
            "duration": 0.14772712500001717,
            "durationTicks": 156,
            "midi": 54,
            "name": "F#3",
            "ticks": 314640,
            "time": 297.9542475,
            "velocity": 0.4566929133858268
          },
          {
            "duration": 0.14772712500001717,
            "durationTicks": 156,
            "midi": 55,
            "name": "G3",
            "ticks": 314880,
            "time": 298.18152000000003,
            "velocity": 0.4566929133858268
          },
          {
            "duration": 0.14772712500001717,
            "durationTicks": 156,
            "midi": 55,
            "name": "G3",
            "ticks": 315120,
            "time": 298.4087925,
            "velocity": 0.4566929133858268
          },
          {
            "duration": 0.14772712500001717,
            "durationTicks": 156,
            "midi": 57,
            "name": "A3",
            "ticks": 315360,
            "time": 298.63606500000003,
            "velocity": 0.4566929133858268
          },
          {
            "duration": 0.14772712500001717,
            "durationTicks": 156,
            "midi": 57,
            "name": "A3",
            "ticks": 315600,
            "time": 298.8633375,
            "velocity": 0.4566929133858268
          },
          {
            "duration": 0.14772712500001717,
            "durationTicks": 156,
            "midi": 59,
            "name": "B3",
            "ticks": 315840,
            "time": 299.09061,
            "velocity": 0.4566929133858268
          },
          {
            "duration": 0.14772712500001717,
            "durationTicks": 156,
            "midi": 59,
            "name": "B3",
            "ticks": 316080,
            "time": 299.3178825,
            "velocity": 0.4566929133858268
          },
          {
            "duration": 0.14772712500001717,
            "durationTicks": 156,
            "midi": 55,
            "name": "G3",
            "ticks": 316320,
            "time": 299.545155,
            "velocity": 0.4566929133858268
          },
          {
            "duration": 0.14772712500001717,
            "durationTicks": 156,
            "midi": 55,
            "name": "G3",
            "ticks": 316560,
            "time": 299.7724275,
            "velocity": 0.4566929133858268
          },
          {
            "duration": 0.14772712500001717,
            "durationTicks": 156,
            "midi": 54,
            "name": "F#3",
            "ticks": 316800,
            "time": 299.9997,
            "velocity": 0.4566929133858268
          },
          {
            "duration": 0.147727125000074,
            "durationTicks": 156,
            "midi": 54,
            "name": "F#3",
            "ticks": 317040,
            "time": 300.2269725,
            "velocity": 0.4566929133858268
          },
          {
            "duration": 0.14772712500001717,
            "durationTicks": 156,
            "midi": 55,
            "name": "G3",
            "ticks": 317280,
            "time": 300.454245,
            "velocity": 0.4566929133858268
          },
          {
            "duration": 0.14772712500001717,
            "durationTicks": 156,
            "midi": 55,
            "name": "G3",
            "ticks": 317520,
            "time": 300.68151750000004,
            "velocity": 0.4566929133858268
          },
          {
            "duration": 0.14772712500001717,
            "durationTicks": 156,
            "midi": 57,
            "name": "A3",
            "ticks": 317760,
            "time": 300.90879,
            "velocity": 0.4566929133858268
          },
          {
            "duration": 0.14772712500001717,
            "durationTicks": 156,
            "midi": 57,
            "name": "A3",
            "ticks": 318000,
            "time": 301.13606250000004,
            "velocity": 0.4566929133858268
          },
          {
            "duration": 0.14772712500001717,
            "durationTicks": 156,
            "midi": 54,
            "name": "F#3",
            "ticks": 318240,
            "time": 301.363335,
            "velocity": 0.4566929133858268
          },
          {
            "duration": 0.14772712500001717,
            "durationTicks": 156,
            "midi": 54,
            "name": "F#3",
            "ticks": 318480,
            "time": 301.59060750000003,
            "velocity": 0.4566929133858268
          },
          {
            "duration": 0.14772712500001717,
            "durationTicks": 156,
            "midi": 55,
            "name": "G3",
            "ticks": 318720,
            "time": 301.81788,
            "velocity": 0.4566929133858268
          },
          {
            "duration": 0.14772712500001717,
            "durationTicks": 156,
            "midi": 67,
            "name": "G4",
            "ticks": 318960,
            "time": 302.04515250000003,
            "velocity": 0.8267716535433071
          },
          {
            "duration": 0.14772712500001717,
            "durationTicks": 156,
            "midi": 71,
            "name": "B4",
            "ticks": 319200,
            "time": 302.272425,
            "velocity": 0.8267716535433071
          },
          {
            "duration": 0.14772712500001717,
            "durationTicks": 156,
            "midi": 69,
            "name": "A4",
            "ticks": 319440,
            "time": 302.4996975,
            "velocity": 0.8267716535433071
          },
          {
            "duration": 0.14772712500001717,
            "durationTicks": 156,
            "midi": 68,
            "name": "G#4",
            "ticks": 319680,
            "time": 302.72697,
            "velocity": 0.8267716535433071
          },
          {
            "duration": 0.14772712500001717,
            "durationTicks": 156,
            "midi": 64,
            "name": "E4",
            "ticks": 319920,
            "time": 302.9542425,
            "velocity": 0.8267716535433071
          },
          {
            "duration": 0.14772712500001717,
            "durationTicks": 156,
            "midi": 66,
            "name": "F#4",
            "ticks": 320160,
            "time": 303.181515,
            "velocity": 0.8267716535433071
          },
          {
            "duration": 0.14772712500001717,
            "durationTicks": 156,
            "midi": 68,
            "name": "G#4",
            "ticks": 320400,
            "time": 303.4087875,
            "velocity": 0.8267716535433071
          },
          {
            "duration": 0.147727125000074,
            "durationTicks": 156,
            "midi": 69,
            "name": "A4",
            "ticks": 320640,
            "time": 303.63606,
            "velocity": 0.8267716535433071
          },
          {
            "duration": 0.14772712500001717,
            "durationTicks": 156,
            "midi": 72,
            "name": "C5",
            "ticks": 320880,
            "time": 303.8633325,
            "velocity": 0.8267716535433071
          },
          {
            "duration": 0.14772712500001717,
            "durationTicks": 156,
            "midi": 69,
            "name": "A4",
            "ticks": 321120,
            "time": 304.09060500000004,
            "velocity": 0.8267716535433071
          },
          {
            "duration": 0.14772712500001717,
            "durationTicks": 156,
            "midi": 67,
            "name": "G4",
            "ticks": 321360,
            "time": 304.3178775,
            "velocity": 0.8267716535433071
          },
          {
            "duration": 0.14772712500001717,
            "durationTicks": 156,
            "midi": 66,
            "name": "F#4",
            "ticks": 321600,
            "time": 304.54515000000004,
            "velocity": 0.8267716535433071
          },
          {
            "duration": 0.14772712500001717,
            "durationTicks": 156,
            "midi": 62,
            "name": "D4",
            "ticks": 321840,
            "time": 304.7724225,
            "velocity": 0.8267716535433071
          },
          {
            "duration": 0.14772712500001717,
            "durationTicks": 156,
            "midi": 64,
            "name": "E4",
            "ticks": 322080,
            "time": 304.99969500000003,
            "velocity": 0.8267716535433071
          },
          {
            "duration": 0.14772712500001717,
            "durationTicks": 156,
            "midi": 66,
            "name": "F#4",
            "ticks": 322320,
            "time": 305.2269675,
            "velocity": 0.8267716535433071
          },
          {
            "duration": 0.14772712500001717,
            "durationTicks": 156,
            "midi": 67,
            "name": "G4",
            "ticks": 322560,
            "time": 305.45424,
            "velocity": 0.8267716535433071
          },
          {
            "duration": 0.14772712500001717,
            "durationTicks": 156,
            "midi": 67,
            "name": "G4",
            "ticks": 322800,
            "time": 305.6815125,
            "velocity": 0.8267716535433071
          },
          {
            "duration": 0.14772712500001717,
            "durationTicks": 156,
            "midi": 67,
            "name": "G4",
            "ticks": 323040,
            "time": 305.908785,
            "velocity": 0.8267716535433071
          },
          {
            "duration": 0.14772712500001717,
            "durationTicks": 156,
            "midi": 67,
            "name": "G4",
            "ticks": 323280,
            "time": 306.1360575,
            "velocity": 0.8267716535433071
          },
          {
            "duration": 0.14772712500001717,
            "durationTicks": 156,
            "midi": 67,
            "name": "G4",
            "ticks": 323520,
            "time": 306.36333,
            "velocity": 0.8267716535433071
          },
          {
            "duration": 0.147727125000074,
            "durationTicks": 156,
            "midi": 67,
            "name": "G4",
            "ticks": 323760,
            "time": 306.5906025,
            "velocity": 0.8267716535433071
          },
          {
            "duration": 0.14772712500001717,
            "durationTicks": 156,
            "midi": 67,
            "name": "G4",
            "ticks": 324000,
            "time": 306.817875,
            "velocity": 0.8267716535433071
          },
          {
            "duration": 0.14772712500001717,
            "durationTicks": 156,
            "midi": 67,
            "name": "G4",
            "ticks": 324240,
            "time": 307.04514750000004,
            "velocity": 0.8267716535433071
          },
          {
            "duration": 0.2272725000000264,
            "durationTicks": 240,
            "midi": 67,
            "name": "G4",
            "ticks": 324480,
            "time": 307.27242,
            "velocity": 0.8267716535433071
          },
          {
            "duration": 0.14772712500001717,
            "durationTicks": 156,
            "midi": 62,
            "name": "D4",
            "ticks": 324720,
            "time": 307.49969250000004,
            "velocity": 0.8267716535433071
          },
          {
            "duration": 0.14772712500001717,
            "durationTicks": 156,
            "midi": 62,
            "name": "D4",
            "ticks": 324960,
            "time": 307.726965,
            "velocity": 0.8267716535433071
          },
          {
            "duration": 0.14772712500001717,
            "durationTicks": 156,
            "midi": 62,
            "name": "D4",
            "ticks": 325200,
            "time": 307.95423750000003,
            "velocity": 0.8267716535433071
          },
          {
            "duration": 0.14772712500001717,
            "durationTicks": 156,
            "midi": 62,
            "name": "D4",
            "ticks": 325440,
            "time": 308.18151,
            "velocity": 0.8267716535433071
          },
          {
            "duration": 0.14772712500001717,
            "durationTicks": 156,
            "midi": 62,
            "name": "D4",
            "ticks": 325680,
            "time": 308.40878250000003,
            "velocity": 0.8267716535433071
          },
          {
            "duration": 0.14772712500001717,
            "durationTicks": 156,
            "midi": 62,
            "name": "D4",
            "ticks": 325920,
            "time": 308.636055,
            "velocity": 0.8267716535433071
          },
          {
            "duration": 0.14772712500001717,
            "durationTicks": 156,
            "midi": 60,
            "name": "C4",
            "ticks": 326160,
            "time": 308.8633275,
            "velocity": 0.8267716535433071
          },
          {
            "duration": 0.14772712500001717,
            "durationTicks": 156,
            "midi": 59,
            "name": "B3",
            "ticks": 326400,
            "time": 309.0906,
            "velocity": 0.7244094488188977
          },
          {
            "duration": 0.14772712500001717,
            "durationTicks": 156,
            "midi": 55,
            "name": "G3",
            "ticks": 326640,
            "time": 309.3178725,
            "velocity": 0.4566929133858268
          },
          {
            "duration": 0.14772712500001717,
            "durationTicks": 156,
            "midi": 57,
            "name": "A3",
            "ticks": 326880,
            "time": 309.545145,
            "velocity": 0.4566929133858268
          },
          {
            "duration": 0.14772712500001717,
            "durationTicks": 156,
            "midi": 57,
            "name": "A3",
            "ticks": 327120,
            "time": 309.7724175,
            "velocity": 0.4566929133858268
          },
          {
            "duration": 0.147727125000074,
            "durationTicks": 156,
            "midi": 59,
            "name": "B3",
            "ticks": 327360,
            "time": 309.99969,
            "velocity": 0.4566929133858268
          },
          {
            "duration": 0.14772712500001717,
            "durationTicks": 156,
            "midi": 59,
            "name": "B3",
            "ticks": 327600,
            "time": 310.2269625,
            "velocity": 0.4566929133858268
          },
          {
            "duration": 0.14772712500001717,
            "durationTicks": 156,
            "midi": 55,
            "name": "G3",
            "ticks": 327840,
            "time": 310.45423500000004,
            "velocity": 0.4566929133858268
          },
          {
            "duration": 0.14772712500001717,
            "durationTicks": 156,
            "midi": 55,
            "name": "G3",
            "ticks": 328080,
            "time": 310.6815075,
            "velocity": 0.4566929133858268
          },
          {
            "duration": 0.14772712500001717,
            "durationTicks": 156,
            "midi": 54,
            "name": "F#3",
            "ticks": 328320,
            "time": 310.90878000000004,
            "velocity": 0.4566929133858268
          },
          {
            "duration": 0.14772712500001717,
            "durationTicks": 156,
            "midi": 54,
            "name": "F#3",
            "ticks": 328560,
            "time": 311.1360525,
            "velocity": 0.4566929133858268
          },
          {
            "duration": 0.14772712500001717,
            "durationTicks": 156,
            "midi": 55,
            "name": "G3",
            "ticks": 328800,
            "time": 311.36332500000003,
            "velocity": 0.4566929133858268
          },
          {
            "duration": 0.14772712500001717,
            "durationTicks": 156,
            "midi": 55,
            "name": "G3",
            "ticks": 329040,
            "time": 311.5905975,
            "velocity": 0.4566929133858268
          },
          {
            "duration": 0.14772712500001717,
            "durationTicks": 156,
            "midi": 57,
            "name": "A3",
            "ticks": 329280,
            "time": 311.81787,
            "velocity": 0.4566929133858268
          },
          {
            "duration": 0.14772712500001717,
            "durationTicks": 156,
            "midi": 57,
            "name": "A3",
            "ticks": 329520,
            "time": 312.0451425,
            "velocity": 0.4566929133858268
          },
          {
            "duration": 0.14772712500001717,
            "durationTicks": 156,
            "midi": 54,
            "name": "F#3",
            "ticks": 329760,
            "time": 312.272415,
            "velocity": 0.4566929133858268
          },
          {
            "duration": 0.14772712500001717,
            "durationTicks": 156,
            "midi": 54,
            "name": "F#3",
            "ticks": 330000,
            "time": 312.4996875,
            "velocity": 0.4566929133858268
          },
          {
            "duration": 0.14772712500001717,
            "durationTicks": 156,
            "midi": 55,
            "name": "G3",
            "ticks": 330240,
            "time": 312.72696,
            "velocity": 0.4566929133858268
          },
          {
            "duration": 0.147727125000074,
            "durationTicks": 156,
            "midi": 67,
            "name": "G4",
            "ticks": 330480,
            "time": 312.9542325,
            "velocity": 0.4566929133858268
          },
          {
            "duration": 0.14772712500001717,
            "durationTicks": 156,
            "midi": 69,
            "name": "A4",
            "ticks": 330720,
            "time": 313.181505,
            "velocity": 0.4566929133858268
          },
          {
            "duration": 0.14772712500001717,
            "durationTicks": 156,
            "midi": 69,
            "name": "A4",
            "ticks": 330960,
            "time": 313.40877750000004,
            "velocity": 0.4566929133858268
          },
          {
            "duration": 0.14772712500001717,
            "durationTicks": 156,
            "midi": 71,
            "name": "B4",
            "ticks": 331200,
            "time": 313.63605,
            "velocity": 0.4566929133858268
          },
          {
            "duration": 0.14772712500001717,
            "durationTicks": 156,
            "midi": 71,
            "name": "B4",
            "ticks": 331440,
            "time": 313.86332250000004,
            "velocity": 0.4566929133858268
          },
          {
            "duration": 0.14772712500001717,
            "durationTicks": 156,
            "midi": 67,
            "name": "G4",
            "ticks": 331680,
            "time": 314.090595,
            "velocity": 0.4566929133858268
          },
          {
            "duration": 0.14772712500001717,
            "durationTicks": 156,
            "midi": 67,
            "name": "G4",
            "ticks": 331920,
            "time": 314.31786750000003,
            "velocity": 0.4566929133858268
          },
          {
            "duration": 0.14772712500001717,
            "durationTicks": 156,
            "midi": 66,
            "name": "F#4",
            "ticks": 332160,
            "time": 314.54514,
            "velocity": 0.4566929133858268
          },
          {
            "duration": 0.14772712500001717,
            "durationTicks": 156,
            "midi": 66,
            "name": "F#4",
            "ticks": 332400,
            "time": 314.77241250000003,
            "velocity": 0.4566929133858268
          },
          {
            "duration": 0.14772712500001717,
            "durationTicks": 156,
            "midi": 67,
            "name": "G4",
            "ticks": 332640,
            "time": 314.999685,
            "velocity": 0.4566929133858268
          },
          {
            "duration": 0.14772712500001717,
            "durationTicks": 156,
            "midi": 67,
            "name": "G4",
            "ticks": 332880,
            "time": 315.2269575,
            "velocity": 0.4566929133858268
          },
          {
            "duration": 0.14772712500001717,
            "durationTicks": 156,
            "midi": 69,
            "name": "A4",
            "ticks": 333120,
            "time": 315.45423,
            "velocity": 0.4566929133858268
          },
          {
            "duration": 0.14772712500001717,
            "durationTicks": 156,
            "midi": 69,
            "name": "A4",
            "ticks": 333360,
            "time": 315.6815025,
            "velocity": 0.4566929133858268
          },
          {
            "duration": 0.14772712500001717,
            "durationTicks": 156,
            "midi": 66,
            "name": "F#4",
            "ticks": 333600,
            "time": 315.908775,
            "velocity": 0.4566929133858268
          },
          {
            "duration": 0.14772712500001717,
            "durationTicks": 156,
            "midi": 66,
            "name": "F#4",
            "ticks": 333840,
            "time": 316.1360475,
            "velocity": 0.4566929133858268
          },
          {
            "duration": 0.147727125000074,
            "durationTicks": 156,
            "midi": 67,
            "name": "G4",
            "ticks": 334080,
            "time": 316.36332,
            "velocity": 0.4566929133858268
          },
          {
            "duration": 0.14772712500001717,
            "durationTicks": 156,
            "midi": 67,
            "name": "G4",
            "ticks": 334320,
            "time": 316.5905925,
            "velocity": 0.8267716535433071
          },
          {
            "duration": 0.14772712500001717,
            "durationTicks": 156,
            "midi": 71,
            "name": "B4",
            "ticks": 334560,
            "time": 316.81786500000004,
            "velocity": 0.8267716535433071
          },
          {
            "duration": 0.14772712500001717,
            "durationTicks": 156,
            "midi": 69,
            "name": "A4",
            "ticks": 334800,
            "time": 317.0451375,
            "velocity": 0.8267716535433071
          },
          {
            "duration": 0.14772712500001717,
            "durationTicks": 156,
            "midi": 68,
            "name": "G#4",
            "ticks": 335040,
            "time": 317.27241000000004,
            "velocity": 0.8267716535433071
          },
          {
            "duration": 0.14772712500001717,
            "durationTicks": 156,
            "midi": 64,
            "name": "E4",
            "ticks": 335280,
            "time": 317.4996825,
            "velocity": 0.8267716535433071
          },
          {
            "duration": 0.14772712500001717,
            "durationTicks": 156,
            "midi": 66,
            "name": "F#4",
            "ticks": 335520,
            "time": 317.72695500000003,
            "velocity": 0.8267716535433071
          },
          {
            "duration": 0.14772712500001717,
            "durationTicks": 156,
            "midi": 68,
            "name": "G#4",
            "ticks": 335760,
            "time": 317.9542275,
            "velocity": 0.8267716535433071
          },
          {
            "duration": 0.14772712500001717,
            "durationTicks": 156,
            "midi": 69,
            "name": "A4",
            "ticks": 336000,
            "time": 318.1815,
            "velocity": 0.8267716535433071
          },
          {
            "duration": 0.14772712500001717,
            "durationTicks": 156,
            "midi": 72,
            "name": "C5",
            "ticks": 336240,
            "time": 318.4087725,
            "velocity": 0.8267716535433071
          },
          {
            "duration": 0.14772712500001717,
            "durationTicks": 156,
            "midi": 69,
            "name": "A4",
            "ticks": 336480,
            "time": 318.636045,
            "velocity": 0.8267716535433071
          },
          {
            "duration": 0.14772712500001717,
            "durationTicks": 156,
            "midi": 67,
            "name": "G4",
            "ticks": 336720,
            "time": 318.8633175,
            "velocity": 0.8267716535433071
          },
          {
            "duration": 0.14772712500001717,
            "durationTicks": 156,
            "midi": 66,
            "name": "F#4",
            "ticks": 336960,
            "time": 319.09059,
            "velocity": 0.8267716535433071
          },
          {
            "duration": 0.14772712500001717,
            "durationTicks": 156,
            "midi": 62,
            "name": "D4",
            "ticks": 337200,
            "time": 319.3178625,
            "velocity": 0.8267716535433071
          },
          {
            "duration": 0.14772712500001717,
            "durationTicks": 156,
            "midi": 64,
            "name": "E4",
            "ticks": 337440,
            "time": 319.545135,
            "velocity": 0.8267716535433071
          },
          {
            "duration": 0.14772712500001717,
            "durationTicks": 156,
            "midi": 66,
            "name": "F#4",
            "ticks": 337680,
            "time": 319.77240750000004,
            "velocity": 0.8267716535433071
          },
          {
            "duration": 0.14772712500001717,
            "durationTicks": 156,
            "midi": 67,
            "name": "G4",
            "ticks": 337920,
            "time": 319.99968,
            "velocity": 0.8267716535433071
          },
          {
            "duration": 0.14772712500001717,
            "durationTicks": 156,
            "midi": 67,
            "name": "G4",
            "ticks": 338160,
            "time": 320.22695250000004,
            "velocity": 0.8267716535433071
          },
          {
            "duration": 0.14772712500001717,
            "durationTicks": 156,
            "midi": 67,
            "name": "G4",
            "ticks": 338400,
            "time": 320.454225,
            "velocity": 0.8267716535433071
          },
          {
            "duration": 0.14772712500001717,
            "durationTicks": 156,
            "midi": 67,
            "name": "G4",
            "ticks": 338640,
            "time": 320.68149750000003,
            "velocity": 0.8267716535433071
          },
          {
            "duration": 0.14772712500001717,
            "durationTicks": 156,
            "midi": 67,
            "name": "G4",
            "ticks": 338880,
            "time": 320.90877,
            "velocity": 0.8267716535433071
          },
          {
            "duration": 0.14772712500001717,
            "durationTicks": 156,
            "midi": 67,
            "name": "G4",
            "ticks": 339120,
            "time": 321.13604250000003,
            "velocity": 0.8267716535433071
          },
          {
            "duration": 0.14772712500001717,
            "durationTicks": 156,
            "midi": 67,
            "name": "G4",
            "ticks": 339360,
            "time": 321.363315,
            "velocity": 0.8267716535433071
          },
          {
            "duration": 0.14772712500001717,
            "durationTicks": 156,
            "midi": 67,
            "name": "G4",
            "ticks": 339600,
            "time": 321.5905875,
            "velocity": 0.8267716535433071
          },
          {
            "duration": 0.2272725000000264,
            "durationTicks": 240,
            "midi": 67,
            "name": "G4",
            "ticks": 339840,
            "time": 321.81786,
            "velocity": 0.8267716535433071
          },
          {
            "duration": 0.14772712500001717,
            "durationTicks": 156,
            "midi": 71,
            "name": "B4",
            "ticks": 340080,
            "time": 322.0451325,
            "velocity": 0.8267716535433071
          },
          {
            "duration": 0.14772712500001717,
            "durationTicks": 156,
            "midi": 74,
            "name": "D5",
            "ticks": 340320,
            "time": 322.272405,
            "velocity": 0.8267716535433071
          },
          {
            "duration": 0.14772712500001717,
            "durationTicks": 156,
            "midi": 74,
            "name": "D5",
            "ticks": 340560,
            "time": 322.4996775,
            "velocity": 0.8267716535433071
          },
          {
            "duration": 0.147727125000074,
            "durationTicks": 156,
            "midi": 74,
            "name": "D5",
            "ticks": 340800,
            "time": 322.72695,
            "velocity": 0.8267716535433071
          },
          {
            "duration": 0.14772712500001717,
            "durationTicks": 156,
            "midi": 74,
            "name": "D5",
            "ticks": 341040,
            "time": 322.9542225,
            "velocity": 0.8267716535433071
          },
          {
            "duration": 0.14772712500001717,
            "durationTicks": 156,
            "midi": 74,
            "name": "D5",
            "ticks": 341280,
            "time": 323.18149500000004,
            "velocity": 0.8267716535433071
          },
          {
            "duration": 0.14772712500001717,
            "durationTicks": 156,
            "midi": 72,
            "name": "C5",
            "ticks": 341520,
            "time": 323.4087675,
            "velocity": 0.8267716535433071
          },
          {
            "duration": 0.14772712500001717,
            "durationTicks": 156,
            "midi": 67,
            "name": "G4",
            "ticks": 341760,
            "time": 323.63604000000004,
            "velocity": 0.8267716535433071
          },
          {
            "duration": 0.14772712500001717,
            "durationTicks": 156,
            "midi": 62,
            "name": "D4",
            "ticks": 342000,
            "time": 323.8633125,
            "velocity": 0.8267716535433071
          },
          {
            "duration": 0.14772712500001717,
            "durationTicks": 156,
            "midi": 64,
            "name": "E4",
            "ticks": 342240,
            "time": 324.09058500000003,
            "velocity": 0.8267716535433071
          },
          {
            "duration": 0.14772712500001717,
            "durationTicks": 156,
            "midi": 66,
            "name": "F#4",
            "ticks": 342480,
            "time": 324.3178575,
            "velocity": 0.8267716535433071
          },
          {
            "duration": 0.14772712500001717,
            "durationTicks": 156,
            "midi": 67,
            "name": "G4",
            "ticks": 342720,
            "time": 324.54513000000003,
            "velocity": 0.8267716535433071
          },
          {
            "duration": 0.14772712500001717,
            "durationTicks": 156,
            "midi": 67,
            "name": "G4",
            "ticks": 342960,
            "time": 324.7724025,
            "velocity": 0.8267716535433071
          },
          {
            "duration": 0.14772712500001717,
            "durationTicks": 156,
            "midi": 69,
            "name": "A4",
            "ticks": 343200,
            "time": 324.999675,
            "velocity": 0.8267716535433071
          },
          {
            "duration": 0.14772712500001717,
            "durationTicks": 156,
            "midi": 69,
            "name": "A4",
            "ticks": 343440,
            "time": 325.2269475,
            "velocity": 0.8267716535433071
          },
          {
            "duration": 0.14772712500001717,
            "durationTicks": 156,
            "midi": 71,
            "name": "B4",
            "ticks": 343680,
            "time": 325.45422,
            "velocity": 0.7244094488188977
          },
          {
            "duration": 0.14772712500001717,
            "durationTicks": 156,
            "midi": 54,
            "name": "F#3",
            "ticks": 343920,
            "time": 325.6814925,
            "velocity": 0.7244094488188977
          },
          {
            "duration": 0.14772712500001717,
            "durationTicks": 156,
            "midi": 55,
            "name": "G3",
            "ticks": 344160,
            "time": 325.908765,
            "velocity": 0.7244094488188977
          },
          {
            "duration": 0.14772712500001717,
            "durationTicks": 156,
            "midi": 57,
            "name": "A3",
            "ticks": 344400,
            "time": 326.13603750000004,
            "velocity": 0.7244094488188977
          },
          {
            "duration": 0.14772712500001717,
            "durationTicks": 156,
            "midi": 59,
            "name": "B3",
            "ticks": 344640,
            "time": 326.36331,
            "velocity": 0.7244094488188977
          },
          {
            "duration": 0.14772712500001717,
            "durationTicks": 156,
            "midi": 59,
            "name": "B3",
            "ticks": 344880,
            "time": 326.59058250000004,
            "velocity": 0.7244094488188977
          },
          {
            "duration": 0.14772712500001717,
            "durationTicks": 156,
            "midi": 60,
            "name": "C4",
            "ticks": 345120,
            "time": 326.817855,
            "velocity": 0.7244094488188977
          },
          {
            "duration": 0.14772712500001717,
            "durationTicks": 156,
            "midi": 60,
            "name": "C4",
            "ticks": 345360,
            "time": 327.04512750000004,
            "velocity": 0.7244094488188977
          },
          {
            "duration": 0.14772712500001717,
            "durationTicks": 156,
            "midi": 62,
            "name": "D4",
            "ticks": 345600,
            "time": 327.2724,
            "velocity": 0.7244094488188977
          },
          {
            "duration": 0.14772712500001717,
            "durationTicks": 156,
            "midi": 62,
            "name": "D4",
            "ticks": 345840,
            "time": 327.49967250000003,
            "velocity": 0.7244094488188977
          },
          {
            "duration": 0.14772712500001717,
            "durationTicks": 156,
            "midi": 63,
            "name": "D#4",
            "ticks": 346080,
            "time": 327.726945,
            "velocity": 0.7244094488188977
          },
          {
            "duration": 0.14772712500001717,
            "durationTicks": 156,
            "midi": 63,
            "name": "D#4",
            "ticks": 346320,
            "time": 327.9542175,
            "velocity": 0.7244094488188977
          },
          {
            "duration": 0.3636359999999854,
            "durationTicks": 384,
            "midi": 64,
            "name": "E4",
            "ticks": 346560,
            "time": 328.18149,
            "velocity": 0.7244094488188977
          },
          {
            "duration": 1.3636350000000448,
            "durationTicks": 1440,
            "midi": 57,
            "name": "A3",
            "ticks": 347520,
            "time": 329.09058,
            "velocity": 0.4566929133858268
          },
          {
            "duration": 0.22727249999996957,
            "durationTicks": 240,
            "midi": 55,
            "name": "G3",
            "ticks": 348960,
            "time": 330.45421500000003,
            "velocity": 0.4566929133858268
          },
          {
            "duration": 0.2272725000000264,
            "durationTicks": 240,
            "midi": 54,
            "name": "F#3",
            "ticks": 349200,
            "time": 330.6814875,
            "velocity": 0.4566929133858268
          },
          {
            "duration": 0.3636359999999854,
            "durationTicks": 384,
            "midi": 55,
            "name": "G3",
            "ticks": 349440,
            "time": 330.90876000000003,
            "velocity": 0.4566929133858268
          },
          {
            "duration": 1.363634999999988,
            "durationTicks": 1440,
            "midi": 57,
            "name": "A3",
            "ticks": 351360,
            "time": 332.72694,
            "velocity": 0.4566929133858268
          },
          {
            "duration": 0.2272725000000264,
            "durationTicks": 240,
            "midi": 55,
            "name": "G3",
            "ticks": 352800,
            "time": 334.090575,
            "velocity": 0.4566929133858268
          },
          {
            "duration": 0.22727249999996957,
            "durationTicks": 240,
            "midi": 54,
            "name": "F#3",
            "ticks": 353040,
            "time": 334.3178475,
            "velocity": 0.4566929133858268
          },
          {
            "duration": 0.3636359999999854,
            "durationTicks": 384,
            "midi": 55,
            "name": "G3",
            "ticks": 353280,
            "time": 334.54512,
            "velocity": 0.4566929133858268
          },
          {
            "duration": 0.3636359999999854,
            "durationTicks": 384,
            "midi": 67,
            "name": "G4",
            "ticks": 354240,
            "time": 335.45421,
            "velocity": 0.4566929133858268
          },
          {
            "duration": 0.3636359999999854,
            "durationTicks": 384,
            "midi": 64,
            "name": "E4",
            "ticks": 355200,
            "time": 336.36330000000004,
            "velocity": 0.4566929133858268
          },
          {
            "duration": 0.3636359999999854,
            "durationTicks": 384,
            "midi": 62,
            "name": "D4",
            "ticks": 356160,
            "time": 337.27239000000003,
            "velocity": 0.8267716535433071
          },
          {
            "duration": 0.3636359999999854,
            "durationTicks": 384,
            "midi": 69,
            "name": "A4",
            "ticks": 356160,
            "time": 337.27239000000003,
            "velocity": 0.8267716535433071
          },
          {
            "duration": 0.09090900000001056,
            "durationTicks": 96,
            "midi": 55,
            "name": "G3",
            "ticks": 357120,
            "time": 338.18148,
            "velocity": 0.8267716535433071
          },
          {
            "duration": 0.09090900000001056,
            "durationTicks": 96,
            "midi": 55,
            "name": "G3",
            "ticks": 357240,
            "time": 338.29511625000004,
            "velocity": 0.8267716535433071
          },
          {
            "duration": 0.09090900000006741,
            "durationTicks": 96,
            "midi": 55,
            "name": "G3",
            "ticks": 357360,
            "time": 338.4087525,
            "velocity": 0.8267716535433071
          },
          {
            "duration": 0.09090900000001056,
            "durationTicks": 96,
            "midi": 55,
            "name": "G3",
            "ticks": 357480,
            "time": 338.52238875,
            "velocity": 0.8267716535433071
          },
          {
            "duration": 0.09090900000001056,
            "durationTicks": 96,
            "midi": 55,
            "name": "G3",
            "ticks": 357600,
            "time": 338.636025,
            "velocity": 0.8267716535433071
          },
          {
            "duration": 0.09090900000001056,
            "durationTicks": 96,
            "midi": 55,
            "name": "G3",
            "ticks": 357720,
            "time": 338.74966125000003,
            "velocity": 0.8267716535433071
          },
          {
            "duration": 0.09090900000001056,
            "durationTicks": 96,
            "midi": 55,
            "name": "G3",
            "ticks": 357840,
            "time": 338.86329750000004,
            "velocity": 0.8267716535433071
          },
          {
            "duration": 0.09090900000001056,
            "durationTicks": 96,
            "midi": 55,
            "name": "G3",
            "ticks": 357960,
            "time": 338.97693375,
            "velocity": 0.8267716535433071
          },
          {
            "duration": 0.09090900000001056,
            "durationTicks": 96,
            "midi": 55,
            "name": "G3",
            "ticks": 358080,
            "time": 339.09057,
            "velocity": 0.8267716535433071
          },
          {
            "duration": 0.09090900000001056,
            "durationTicks": 96,
            "midi": 55,
            "name": "G3",
            "ticks": 358200,
            "time": 339.20420625,
            "velocity": 0.8267716535433071
          },
          {
            "duration": 0.09090900000001056,
            "durationTicks": 96,
            "midi": 55,
            "name": "G3",
            "ticks": 358320,
            "time": 339.31784250000004,
            "velocity": 0.8267716535433071
          },
          {
            "duration": 0.09090900000006741,
            "durationTicks": 96,
            "midi": 55,
            "name": "G3",
            "ticks": 358440,
            "time": 339.43147875,
            "velocity": 0.8267716535433071
          },
          {
            "duration": 0.09090900000001056,
            "durationTicks": 96,
            "midi": 55,
            "name": "G3",
            "ticks": 358560,
            "time": 339.545115,
            "velocity": 0.8267716535433071
          },
          {
            "duration": 0.09090900000001056,
            "durationTicks": 96,
            "midi": 55,
            "name": "G3",
            "ticks": 358680,
            "time": 339.65875125,
            "velocity": 0.8267716535433071
          },
          {
            "duration": 0.09090900000001056,
            "durationTicks": 96,
            "midi": 55,
            "name": "G3",
            "ticks": 358800,
            "time": 339.77238750000004,
            "velocity": 0.8267716535433071
          },
          {
            "duration": 0.09090900000006741,
            "durationTicks": 96,
            "midi": 55,
            "name": "G3",
            "ticks": 358920,
            "time": 339.88602375,
            "velocity": 0.8267716535433071
          },
          {
            "duration": 0.09090900000001056,
            "durationTicks": 96,
            "midi": 55,
            "name": "G3",
            "ticks": 359040,
            "time": 339.99966,
            "velocity": 0.8267716535433071
          },
          {
            "duration": 0.09090900000001056,
            "durationTicks": 96,
            "midi": 55,
            "name": "G3",
            "ticks": 359160,
            "time": 340.11329625,
            "velocity": 0.8267716535433071
          },
          {
            "duration": 0.09090900000001056,
            "durationTicks": 96,
            "midi": 55,
            "name": "G3",
            "ticks": 359280,
            "time": 340.22693250000003,
            "velocity": 0.8267716535433071
          },
          {
            "duration": 0.09090900000006741,
            "durationTicks": 96,
            "midi": 55,
            "name": "G3",
            "ticks": 359400,
            "time": 340.34056875,
            "velocity": 0.8267716535433071
          },
          {
            "duration": 0.09090900000001056,
            "durationTicks": 96,
            "midi": 55,
            "name": "G3",
            "ticks": 359520,
            "time": 340.454205,
            "velocity": 0.8267716535433071
          },
          {
            "duration": 0.09090900000001056,
            "durationTicks": 96,
            "midi": 55,
            "name": "G3",
            "ticks": 359640,
            "time": 340.56784125,
            "velocity": 0.8267716535433071
          },
          {
            "duration": 0.09090900000001056,
            "durationTicks": 96,
            "midi": 55,
            "name": "G3",
            "ticks": 359760,
            "time": 340.6814775,
            "velocity": 0.8267716535433071
          },
          {
            "duration": 0.09090900000001056,
            "durationTicks": 96,
            "midi": 55,
            "name": "G3",
            "ticks": 359880,
            "time": 340.79511375000004,
            "velocity": 0.8267716535433071
          },
          {
            "duration": 0.09090900000006741,
            "durationTicks": 96,
            "midi": 55,
            "name": "G3",
            "ticks": 360000,
            "time": 340.90875,
            "velocity": 0.8267716535433071
          },
          {
            "duration": 0.09090900000001056,
            "durationTicks": 96,
            "midi": 55,
            "name": "G3",
            "ticks": 360120,
            "time": 341.02238625,
            "velocity": 0.8267716535433071
          },
          {
            "duration": 0.09090900000001056,
            "durationTicks": 96,
            "midi": 55,
            "name": "G3",
            "ticks": 360240,
            "time": 341.1360225,
            "velocity": 0.8267716535433071
          },
          {
            "duration": 0.09090900000001056,
            "durationTicks": 96,
            "midi": 55,
            "name": "G3",
            "ticks": 360360,
            "time": 341.24965875000004,
            "velocity": 0.8267716535433071
          },
          {
            "duration": 0.09090900000006741,
            "durationTicks": 96,
            "midi": 57,
            "name": "A3",
            "ticks": 360480,
            "time": 341.363295,
            "velocity": 0.8267716535433071
          },
          {
            "duration": 0.09090900000001056,
            "durationTicks": 96,
            "midi": 57,
            "name": "A3",
            "ticks": 360600,
            "time": 341.47693125,
            "velocity": 0.8267716535433071
          },
          {
            "duration": 0.09090900000001056,
            "durationTicks": 96,
            "midi": 57,
            "name": "A3",
            "ticks": 360720,
            "time": 341.5905675,
            "velocity": 0.8267716535433071
          },
          {
            "duration": 0.09090900000001056,
            "durationTicks": 96,
            "midi": 57,
            "name": "A3",
            "ticks": 360840,
            "time": 341.70420375000003,
            "velocity": 0.8267716535433071
          },
          {
            "duration": 0.09090900000006741,
            "durationTicks": 96,
            "midi": 55,
            "name": "G3",
            "ticks": 360960,
            "time": 341.81784,
            "velocity": 0.8267716535433071
          },
          {
            "duration": 0.09090900000001056,
            "durationTicks": 96,
            "midi": 55,
            "name": "G3",
            "ticks": 361080,
            "time": 341.93147625,
            "velocity": 0.8267716535433071
          },
          {
            "duration": 0.09090900000001056,
            "durationTicks": 96,
            "midi": 55,
            "name": "G3",
            "ticks": 361200,
            "time": 342.0451125,
            "velocity": 0.8267716535433071
          },
          {
            "duration": 0.09090900000001056,
            "durationTicks": 96,
            "midi": 55,
            "name": "G3",
            "ticks": 361320,
            "time": 342.15874875000003,
            "velocity": 0.8267716535433071
          },
          {
            "duration": 0.09090900000001056,
            "durationTicks": 96,
            "midi": 55,
            "name": "G3",
            "ticks": 361440,
            "time": 342.27238500000004,
            "velocity": 0.8267716535433071
          },
          {
            "duration": 0.09090900000001056,
            "durationTicks": 96,
            "midi": 55,
            "name": "G3",
            "ticks": 361560,
            "time": 342.38602125,
            "velocity": 0.8267716535433071
          },
          {
            "duration": 0.09090900000001056,
            "durationTicks": 96,
            "midi": 55,
            "name": "G3",
            "ticks": 361680,
            "time": 342.4996575,
            "velocity": 0.8267716535433071
          },
          {
            "duration": 0.09090900000001056,
            "durationTicks": 96,
            "midi": 55,
            "name": "G3",
            "ticks": 361800,
            "time": 342.61329375,
            "velocity": 0.8267716535433071
          },
          {
            "duration": 0.09090900000001056,
            "durationTicks": 96,
            "midi": 55,
            "name": "G3",
            "ticks": 361920,
            "time": 342.72693000000004,
            "velocity": 0.8267716535433071
          },
          {
            "duration": 0.09090900000006741,
            "durationTicks": 96,
            "midi": 55,
            "name": "G3",
            "ticks": 362040,
            "time": 342.84056625,
            "velocity": 0.8267716535433071
          },
          {
            "duration": 0.09090900000001056,
            "durationTicks": 96,
            "midi": 55,
            "name": "G3",
            "ticks": 362160,
            "time": 342.9542025,
            "velocity": 0.8267716535433071
          },
          {
            "duration": 0.09090900000001056,
            "durationTicks": 96,
            "midi": 55,
            "name": "G3",
            "ticks": 362280,
            "time": 343.06783875,
            "velocity": 0.8267716535433071
          },
          {
            "duration": 0.09090900000001056,
            "durationTicks": 96,
            "midi": 55,
            "name": "G3",
            "ticks": 362400,
            "time": 343.18147500000003,
            "velocity": 0.8267716535433071
          },
          {
            "duration": 0.09090900000006741,
            "durationTicks": 96,
            "midi": 55,
            "name": "G3",
            "ticks": 362520,
            "time": 343.29511125,
            "velocity": 0.8267716535433071
          },
          {
            "duration": 0.09090900000001056,
            "durationTicks": 96,
            "midi": 55,
            "name": "G3",
            "ticks": 362640,
            "time": 343.4087475,
            "velocity": 0.8267716535433071
          },
          {
            "duration": 0.09090900000001056,
            "durationTicks": 96,
            "midi": 55,
            "name": "G3",
            "ticks": 362760,
            "time": 343.52238375,
            "velocity": 0.8267716535433071
          },
          {
            "duration": 0.09090900000001056,
            "durationTicks": 96,
            "midi": 55,
            "name": "G3",
            "ticks": 362880,
            "time": 343.63602000000003,
            "velocity": 0.8267716535433071
          },
          {
            "duration": 0.09090900000001056,
            "durationTicks": 96,
            "midi": 55,
            "name": "G3",
            "ticks": 363000,
            "time": 343.74965625000004,
            "velocity": 0.8267716535433071
          },
          {
            "duration": 0.09090900000001056,
            "durationTicks": 96,
            "midi": 55,
            "name": "G3",
            "ticks": 363120,
            "time": 343.8632925,
            "velocity": 0.8267716535433071
          },
          {
            "duration": 0.09090900000001056,
            "durationTicks": 96,
            "midi": 55,
            "name": "G3",
            "ticks": 363240,
            "time": 343.97692875,
            "velocity": 0.8267716535433071
          },
          {
            "duration": 0.09090900000001056,
            "durationTicks": 96,
            "midi": 55,
            "name": "G3",
            "ticks": 363360,
            "time": 344.090565,
            "velocity": 0.8267716535433071
          },
          {
            "duration": 0.09090900000001056,
            "durationTicks": 96,
            "midi": 55,
            "name": "G3",
            "ticks": 363480,
            "time": 344.20420125000004,
            "velocity": 0.8267716535433071
          },
          {
            "duration": 0.09090900000006741,
            "durationTicks": 96,
            "midi": 55,
            "name": "G3",
            "ticks": 363600,
            "time": 344.3178375,
            "velocity": 0.8267716535433071
          },
          {
            "duration": 0.09090900000001056,
            "durationTicks": 96,
            "midi": 55,
            "name": "G3",
            "ticks": 363720,
            "time": 344.43147375,
            "velocity": 0.8267716535433071
          },
          {
            "duration": 0.09090900000001056,
            "durationTicks": 96,
            "midi": 55,
            "name": "G3",
            "ticks": 363840,
            "time": 344.54511,
            "velocity": 0.8267716535433071
          },
          {
            "duration": 0.09090900000001056,
            "durationTicks": 96,
            "midi": 55,
            "name": "G3",
            "ticks": 363960,
            "time": 344.65874625000004,
            "velocity": 0.8267716535433071
          },
          {
            "duration": 0.09090900000006741,
            "durationTicks": 96,
            "midi": 55,
            "name": "G3",
            "ticks": 364080,
            "time": 344.7723825,
            "velocity": 0.8267716535433071
          },
          {
            "duration": 0.09090900000001056,
            "durationTicks": 96,
            "midi": 55,
            "name": "G3",
            "ticks": 364200,
            "time": 344.88601875,
            "velocity": 0.8267716535433071
          },
          {
            "duration": 0.09090900000001056,
            "durationTicks": 96,
            "midi": 57,
            "name": "A3",
            "ticks": 364320,
            "time": 344.999655,
            "velocity": 0.8267716535433071
          },
          {
            "duration": 0.09090900000001056,
            "durationTicks": 96,
            "midi": 57,
            "name": "A3",
            "ticks": 364440,
            "time": 345.11329125000003,
            "velocity": 0.8267716535433071
          },
          {
            "duration": 0.09090900000001056,
            "durationTicks": 96,
            "midi": 57,
            "name": "A3",
            "ticks": 364560,
            "time": 345.22692750000004,
            "velocity": 0.8267716535433071
          },
          {
            "duration": 0.09090900000001056,
            "durationTicks": 96,
            "midi": 57,
            "name": "A3",
            "ticks": 364680,
            "time": 345.34056375,
            "velocity": 0.8267716535433071
          },
          {
            "duration": 0.1590907500000185,
            "durationTicks": 168,
            "midi": 55,
            "name": "G3",
            "ticks": 364800,
            "time": 345.4542,
            "velocity": 0.8267716535433071
          },
          {
            "duration": 0.15909074999996164,
            "durationTicks": 168,
            "midi": 59,
            "name": "B3",
            "ticks": 365040,
            "time": 345.68147250000004,
            "velocity": 0.8267716535433071
          },
          {
            "duration": 0.1590907500000185,
            "durationTicks": 168,
            "midi": 62,
            "name": "D4",
            "ticks": 365280,
            "time": 345.908745,
            "velocity": 0.8267716535433071
          },
          {
            "duration": 0.1590907500000185,
            "durationTicks": 168,
            "midi": 67,
            "name": "G4",
            "ticks": 365520,
            "time": 346.13601750000004,
            "velocity": 0.8267716535433071
          },
          {
            "duration": 0.1590907500000185,
            "durationTicks": 168,
            "midi": 71,
            "name": "B4",
            "ticks": 365760,
            "time": 346.36329,
            "velocity": 0.8267716535433071
          },
          {
            "duration": 0.1590907500000185,
            "durationTicks": 168,
            "midi": 67,
            "name": "G4",
            "ticks": 366000,
            "time": 346.59056250000003,
            "velocity": 0.8267716535433071
          },
          {
            "duration": 0.1590907500000185,
            "durationTicks": 168,
            "midi": 74,
            "name": "D5",
            "ticks": 366240,
            "time": 346.817835,
            "velocity": 0.8267716535433071
          },
          {
            "duration": 0.1590907500000185,
            "durationTicks": 168,
            "midi": 71,
            "name": "B4",
            "ticks": 366480,
            "time": 347.04510750000003,
            "velocity": 0.8267716535433071
          },
          {
            "duration": 0.318181500000037,
            "durationTicks": 336,
            "midi": 67,
            "name": "G4",
            "ticks": 366720,
            "time": 347.27238,
            "velocity": 0.8267716535433071
          },
          {
            "duration": 0.23863612500002773,
            "durationTicks": 252,
            "midi": 55,
            "name": "G3",
            "ticks": 367200,
            "time": 347.726925,
            "velocity": 0.8267716535433071
          },
          {
            "duration": 0.0795453749999524,
            "durationTicks": 84,
            "midi": 55,
            "name": "G3",
            "ticks": 367560,
            "time": 348.06783375000003,
            "velocity": 0.8267716535433071
          },
          {
            "duration": 0.3636359999999854,
            "durationTicks": 384,
            "midi": 55,
            "name": "G3",
            "ticks": 367680,
            "time": 348.18147,
            "velocity": 0.8267716535433071
          }
        ]
      },
      {
        "channel": 0,
        "controlChanges": {},
        "pitchBends": [],
        "instrument": {
          "family": "piano",
          "number": 0,
          "name": "acoustic grand piano"
        },
        "name": "serenade_525_1_(c)ishii",
        "notes": [],
        "endOfTrackTicks": 370560
      },
      {
        "channel": 3,
        "controlChanges": {
          "7": [
            {
              "number": 7,
              "ticks": 0,
              "time": 0,
              "value": 0.9763779527559056
            }
          ],
          "10": [
            {
              "number": 10,
              "ticks": 0,
              "time": 0,
              "value": 0.6614173228346457
            }
          ],
          "91": [
            {
              "number": 91,
              "ticks": 0,
              "time": 0,
              "value": 0.6692913385826772
            }
          ]
        },
        "pitchBends": [],
        "instrument": {
          "family": "ensemble",
          "number": 48,
          "name": "string ensemble 1"
        },
        "name": "",
        "notes": [
          {
            "duration": 0.36363600000000007,
            "durationTicks": 384,
            "midi": 55,
            "name": "G3",
            "ticks": 0,
            "time": 0,
            "velocity": 0.8267716535433071
          },
          {
            "duration": 0.13636349999999997,
            "durationTicks": 144,
            "midi": 50,
            "name": "D3",
            "ticks": 720,
            "time": 0.6818175000000001,
            "velocity": 0.8267716535433071
          },
          {
            "duration": 0.36363599999999996,
            "durationTicks": 384,
            "midi": 55,
            "name": "G3",
            "ticks": 960,
            "time": 0.9090900000000001,
            "velocity": 0.8267716535433071
          },
          {
            "duration": 0.13636349999999986,
            "durationTicks": 144,
            "midi": 50,
            "name": "D3",
            "ticks": 1680,
            "time": 1.5909075000000001,
            "velocity": 0.8267716535433071
          },
          {
            "duration": 0.13636350000000008,
            "durationTicks": 144,
            "midi": 55,
            "name": "G3",
            "ticks": 1920,
            "time": 1.8181800000000001,
            "velocity": 0.8267716535433071
          },
          {
            "duration": 0.13636349999999986,
            "durationTicks": 144,
            "midi": 50,
            "name": "D3",
            "ticks": 2160,
            "time": 2.0454525,
            "velocity": 0.8267716535433071
          },
          {
            "duration": 0.13636349999999986,
            "durationTicks": 144,
            "midi": 55,
            "name": "G3",
            "ticks": 2400,
            "time": 2.2727250000000003,
            "velocity": 0.8267716535433071
          },
          {
            "duration": 0.13636349999999986,
            "durationTicks": 144,
            "midi": 59,
            "name": "B3",
            "ticks": 2640,
            "time": 2.4999975,
            "velocity": 0.8267716535433071
          },
          {
            "duration": 0.3636359999999996,
            "durationTicks": 384,
            "midi": 62,
            "name": "D4",
            "ticks": 2880,
            "time": 2.7272700000000003,
            "velocity": 0.8267716535433071
          },
          {
            "duration": 0.3636359999999996,
            "durationTicks": 384,
            "midi": 60,
            "name": "C4",
            "ticks": 3840,
            "time": 3.6363600000000003,
            "velocity": 0.8267716535433071
          },
          {
            "duration": 0.13636350000000075,
            "durationTicks": 144,
            "midi": 57,
            "name": "A3",
            "ticks": 4560,
            "time": 4.3181775,
            "velocity": 0.8267716535433071
          },
          {
            "duration": 0.3636360000000005,
            "durationTicks": 384,
            "midi": 60,
            "name": "C4",
            "ticks": 4800,
            "time": 4.545450000000001,
            "velocity": 0.8267716535433071
          },
          {
            "duration": 0.13636350000000075,
            "durationTicks": 144,
            "midi": 57,
            "name": "A3",
            "ticks": 5520,
            "time": 5.2272675,
            "velocity": 0.8267716535433071
          },
          {
            "duration": 0.13636349999999986,
            "durationTicks": 144,
            "midi": 60,
            "name": "C4",
            "ticks": 5760,
            "time": 5.454540000000001,
            "velocity": 0.8267716535433071
          },
          {
            "duration": 0.13636349999999986,
            "durationTicks": 144,
            "midi": 57,
            "name": "A3",
            "ticks": 6000,
            "time": 5.6818125,
            "velocity": 0.8267716535433071
          },
          {
            "duration": 0.13636350000000075,
            "durationTicks": 144,
            "midi": 54,
            "name": "F#3",
            "ticks": 6240,
            "time": 5.909085,
            "velocity": 0.8267716535433071
          },
          {
            "duration": 0.13636350000000075,
            "durationTicks": 144,
            "midi": 57,
            "name": "A3",
            "ticks": 6480,
            "time": 6.1363575,
            "velocity": 0.8267716535433071
          },
          {
            "duration": 0.3636360000000005,
            "durationTicks": 384,
            "midi": 50,
            "name": "D3",
            "ticks": 6720,
            "time": 6.363630000000001,
            "velocity": 0.8267716535433071
          },
          {
            "duration": 0.1477271249999994,
            "durationTicks": 156,
            "midi": 55,
            "name": "G3",
            "ticks": 7680,
            "time": 7.2727200000000005,
            "velocity": 0.8267716535433071
          },
          {
            "duration": 0.1477271249999994,
            "durationTicks": 156,
            "midi": 55,
            "name": "G3",
            "ticks": 7920,
            "time": 7.4999925,
            "velocity": 0.8267716535433071
          },
          {
            "duration": 0.1477271250000003,
            "durationTicks": 156,
            "midi": 55,
            "name": "G3",
            "ticks": 8160,
            "time": 7.727265,
            "velocity": 0.8267716535433071
          },
          {
            "duration": 0.1477271249999994,
            "durationTicks": 156,
            "midi": 55,
            "name": "G3",
            "ticks": 8400,
            "time": 7.954537500000001,
            "velocity": 0.8267716535433071
          },
          {
            "duration": 0.1477271249999994,
            "durationTicks": 156,
            "midi": 55,
            "name": "G3",
            "ticks": 8640,
            "time": 8.18181,
            "velocity": 0.8267716535433071
          },
          {
            "duration": 0.14772712500000118,
            "durationTicks": 156,
            "midi": 55,
            "name": "G3",
            "ticks": 8880,
            "time": 8.4090825,
            "velocity": 0.8267716535433071
          },
          {
            "duration": 0.1477271249999994,
            "durationTicks": 156,
            "midi": 55,
            "name": "G3",
            "ticks": 9120,
            "time": 8.636355000000002,
            "velocity": 0.8267716535433071
          },
          {
            "duration": 0.1477271249999994,
            "durationTicks": 156,
            "midi": 55,
            "name": "G3",
            "ticks": 9360,
            "time": 8.863627500000002,
            "velocity": 0.8267716535433071
          },
          {
            "duration": 0.1477271249999994,
            "durationTicks": 156,
            "midi": 55,
            "name": "G3",
            "ticks": 9600,
            "time": 9.090900000000001,
            "velocity": 0.8267716535433071
          },
          {
            "duration": 0.1477271249999994,
            "durationTicks": 156,
            "midi": 55,
            "name": "G3",
            "ticks": 9840,
            "time": 9.318172500000001,
            "velocity": 0.8267716535433071
          },
          {
            "duration": 0.14772712500000118,
            "durationTicks": 156,
            "midi": 55,
            "name": "G3",
            "ticks": 10080,
            "time": 9.545445,
            "velocity": 0.8267716535433071
          },
          {
            "duration": 0.14772712500000118,
            "durationTicks": 156,
            "midi": 55,
            "name": "G3",
            "ticks": 10320,
            "time": 9.7727175,
            "velocity": 0.8267716535433071
          },
          {
            "duration": 0.1477271249999994,
            "durationTicks": 156,
            "midi": 55,
            "name": "G3",
            "ticks": 10560,
            "time": 9.999990000000002,
            "velocity": 0.8267716535433071
          },
          {
            "duration": 0.1477271249999994,
            "durationTicks": 156,
            "midi": 55,
            "name": "G3",
            "ticks": 10800,
            "time": 10.227262500000002,
            "velocity": 0.8267716535433071
          },
          {
            "duration": 0.1477271249999994,
            "durationTicks": 156,
            "midi": 55,
            "name": "G3",
            "ticks": 11040,
            "time": 10.454535000000002,
            "velocity": 0.8267716535433071
          },
          {
            "duration": 0.1477271249999994,
            "durationTicks": 156,
            "midi": 55,
            "name": "G3",
            "ticks": 11280,
            "time": 10.681807500000001,
            "velocity": 0.8267716535433071
          },
          {
            "duration": 0.1477271249999994,
            "durationTicks": 156,
            "midi": 55,
            "name": "G3",
            "ticks": 11520,
            "time": 10.909080000000001,
            "velocity": 0.8267716535433071
          },
          {
            "duration": 0.1477271249999994,
            "durationTicks": 156,
            "midi": 55,
            "name": "G3",
            "ticks": 11760,
            "time": 11.136352500000001,
            "velocity": 0.8267716535433071
          },
          {
            "duration": 0.14772712500000118,
            "durationTicks": 156,
            "midi": 55,
            "name": "G3",
            "ticks": 12000,
            "time": 11.363625,
            "velocity": 0.8267716535433071
          },
          {
            "duration": 0.1477271249999994,
            "durationTicks": 156,
            "midi": 55,
            "name": "G3",
            "ticks": 12240,
            "time": 11.590897500000002,
            "velocity": 0.8267716535433071
          },
          {
            "duration": 0.1477271249999994,
            "durationTicks": 156,
            "midi": 55,
            "name": "G3",
            "ticks": 12480,
            "time": 11.818170000000002,
            "velocity": 0.8267716535433071
          },
          {
            "duration": 0.1477271249999994,
            "durationTicks": 156,
            "midi": 55,
            "name": "G3",
            "ticks": 12720,
            "time": 12.045442500000002,
            "velocity": 0.8267716535433071
          },
          {
            "duration": 0.1477271249999994,
            "durationTicks": 156,
            "midi": 55,
            "name": "G3",
            "ticks": 12960,
            "time": 12.272715000000002,
            "velocity": 0.8267716535433071
          },
          {
            "duration": 0.1477271249999994,
            "durationTicks": 156,
            "midi": 55,
            "name": "G3",
            "ticks": 13200,
            "time": 12.499987500000001,
            "velocity": 0.8267716535433071
          },
          {
            "duration": 0.1477271249999994,
            "durationTicks": 156,
            "midi": 55,
            "name": "G3",
            "ticks": 13440,
            "time": 12.727260000000001,
            "velocity": 0.8267716535433071
          },
          {
            "duration": 0.14772712500000118,
            "durationTicks": 156,
            "midi": 55,
            "name": "G3",
            "ticks": 13680,
            "time": 12.954532500000001,
            "velocity": 0.8267716535433071
          },
          {
            "duration": 0.1477271249999994,
            "durationTicks": 156,
            "midi": 55,
            "name": "G3",
            "ticks": 13920,
            "time": 13.181805000000002,
            "velocity": 0.8267716535433071
          },
          {
            "duration": 0.1477271249999994,
            "durationTicks": 156,
            "midi": 55,
            "name": "G3",
            "ticks": 14160,
            "time": 13.409077500000002,
            "velocity": 0.8267716535433071
          },
          {
            "duration": 0.1477271249999994,
            "durationTicks": 156,
            "midi": 55,
            "name": "G3",
            "ticks": 14400,
            "time": 13.636350000000002,
            "velocity": 0.8267716535433071
          },
          {
            "duration": 0.1477271249999994,
            "durationTicks": 156,
            "midi": 55,
            "name": "G3",
            "ticks": 14640,
            "time": 13.863622500000002,
            "velocity": 0.8267716535433071
          },
          {
            "duration": 0.1477271249999994,
            "durationTicks": 156,
            "midi": 55,
            "name": "G3",
            "ticks": 14880,
            "time": 14.090895000000002,
            "velocity": 0.8267716535433071
          },
          {
            "duration": 0.1477271249999994,
            "durationTicks": 156,
            "midi": 55,
            "name": "G3",
            "ticks": 15120,
            "time": 14.318167500000001,
            "velocity": 0.8267716535433071
          },
          {
            "duration": 0.14772712500000118,
            "durationTicks": 156,
            "midi": 55,
            "name": "G3",
            "ticks": 15360,
            "time": 14.545440000000001,
            "velocity": 0.8267716535433071
          },
          {
            "duration": 0.1477271249999994,
            "durationTicks": 156,
            "midi": 55,
            "name": "G3",
            "ticks": 15600,
            "time": 14.772712500000003,
            "velocity": 0.8267716535433071
          },
          {
            "duration": 0.1477271249999994,
            "durationTicks": 156,
            "midi": 57,
            "name": "A3",
            "ticks": 15840,
            "time": 14.999985000000002,
            "velocity": 0.8267716535433071
          },
          {
            "duration": 0.1477271249999994,
            "durationTicks": 156,
            "midi": 57,
            "name": "A3",
            "ticks": 16080,
            "time": 15.227257500000002,
            "velocity": 0.8267716535433071
          },
          {
            "duration": 0.14772712500000118,
            "durationTicks": 156,
            "midi": 59,
            "name": "B3",
            "ticks": 16320,
            "time": 15.454530000000002,
            "velocity": 0.8267716535433071
          },
          {
            "duration": 0.14772712500000118,
            "durationTicks": 156,
            "midi": 59,
            "name": "B3",
            "ticks": 16560,
            "time": 15.681802500000002,
            "velocity": 0.8267716535433071
          },
          {
            "duration": 0.1477271249999994,
            "durationTicks": 156,
            "midi": 54,
            "name": "F#3",
            "ticks": 16800,
            "time": 15.909075000000001,
            "velocity": 0.8267716535433071
          },
          {
            "duration": 0.14772712500000296,
            "durationTicks": 156,
            "midi": 54,
            "name": "F#3",
            "ticks": 17040,
            "time": 16.1363475,
            "velocity": 0.8267716535433071
          },
          {
            "duration": 0.14772712500000296,
            "durationTicks": 156,
            "midi": 55,
            "name": "G3",
            "ticks": 17280,
            "time": 16.36362,
            "velocity": 0.8267716535433071
          },
          {
            "duration": 0.1477271249999994,
            "durationTicks": 156,
            "midi": 55,
            "name": "G3",
            "ticks": 17520,
            "time": 16.590892500000002,
            "velocity": 0.8267716535433071
          },
          {
            "duration": 0.1477271249999994,
            "durationTicks": 156,
            "midi": 57,
            "name": "A3",
            "ticks": 17760,
            "time": 16.818165,
            "velocity": 0.8267716535433071
          },
          {
            "duration": 0.14772712500000296,
            "durationTicks": 156,
            "midi": 57,
            "name": "A3",
            "ticks": 18000,
            "time": 17.0454375,
            "velocity": 0.8267716535433071
          },
          {
            "duration": 0.3636359999999996,
            "durationTicks": 384,
            "midi": 59,
            "name": "B3",
            "ticks": 18240,
            "time": 17.27271,
            "velocity": 0.7244094488188977
          },
          {
            "duration": 0.9090899999999991,
            "durationTicks": 960,
            "midi": 50,
            "name": "D3",
            "ticks": 21120,
            "time": 19.99998,
            "velocity": 0.4566929133858268
          },
          {
            "duration": 0.7272720000000028,
            "durationTicks": 768,
            "midi": 52,
            "name": "E3",
            "ticks": 22080,
            "time": 20.90907,
            "velocity": 0.4566929133858268
          },
          {
            "duration": 0.29545425000000236,
            "durationTicks": 312,
            "midi": 48,
            "name": "C3",
            "ticks": 23040,
            "time": 21.81816,
            "velocity": 0.4566929133858268
          },
          {
            "duration": 0.2954542499999988,
            "durationTicks": 312,
            "midi": 48,
            "name": "C3",
            "ticks": 23520,
            "time": 22.272705000000002,
            "velocity": 0.4566929133858268
          },
          {
            "duration": 0.2954542499999988,
            "durationTicks": 312,
            "midi": 50,
            "name": "D3",
            "ticks": 24000,
            "time": 22.72725,
            "velocity": 0.4566929133858268
          },
          {
            "duration": 0.2954542499999988,
            "durationTicks": 312,
            "midi": 50,
            "name": "D3",
            "ticks": 24480,
            "time": 23.181795,
            "velocity": 0.4566929133858268
          },
          {
            "duration": 0.1818179999999998,
            "durationTicks": 192,
            "midi": 47,
            "name": "B2",
            "ticks": 24960,
            "time": 23.63634,
            "velocity": 0.4566929133858268
          },
          {
            "duration": 0.1818179999999998,
            "durationTicks": 192,
            "midi": 50,
            "name": "D3",
            "ticks": 25440,
            "time": 24.090885,
            "velocity": 0.4566929133858268
          },
          {
            "duration": 0.3636359999999996,
            "durationTicks": 384,
            "midi": 55,
            "name": "G3",
            "ticks": 25920,
            "time": 24.54543,
            "velocity": 0.4566929133858268
          },
          {
            "duration": 0.9090899999999991,
            "durationTicks": 960,
            "midi": 50,
            "name": "D3",
            "ticks": 28800,
            "time": 27.2727,
            "velocity": 0.4566929133858268
          },
          {
            "duration": 0.7272720000000028,
            "durationTicks": 768,
            "midi": 52,
            "name": "E3",
            "ticks": 29760,
            "time": 28.18179,
            "velocity": 0.4566929133858268
          },
          {
            "duration": 0.2954542499999988,
            "durationTicks": 312,
            "midi": 48,
            "name": "C3",
            "ticks": 30720,
            "time": 29.090880000000002,
            "velocity": 0.4566929133858268
          },
          {
            "duration": 0.2954542499999988,
            "durationTicks": 312,
            "midi": 48,
            "name": "C3",
            "ticks": 31200,
            "time": 29.545425,
            "velocity": 0.4566929133858268
          },
          {
            "duration": 0.29545425000000236,
            "durationTicks": 312,
            "midi": 50,
            "name": "D3",
            "ticks": 31680,
            "time": 29.99997,
            "velocity": 0.4566929133858268
          },
          {
            "duration": 0.29545425000000236,
            "durationTicks": 312,
            "midi": 50,
            "name": "D3",
            "ticks": 32160,
            "time": 30.454515,
            "velocity": 0.4566929133858268
          },
          {
            "duration": 0.18181800000000337,
            "durationTicks": 192,
            "midi": 55,
            "name": "G3",
            "ticks": 32640,
            "time": 30.90906,
            "velocity": 0.8818897637795275
          },
          {
            "duration": 0.18181800000000337,
            "durationTicks": 192,
            "midi": 55,
            "name": "G3",
            "ticks": 32880,
            "time": 31.1363325,
            "velocity": 0.7244094488188977
          },
          {
            "duration": 0.18181800000000337,
            "durationTicks": 192,
            "midi": 55,
            "name": "G3",
            "ticks": 33120,
            "time": 31.363605,
            "velocity": 0.7244094488188977
          },
          {
            "duration": 0.18181800000000337,
            "durationTicks": 192,
            "midi": 55,
            "name": "G3",
            "ticks": 33360,
            "time": 31.5908775,
            "velocity": 0.7244094488188977
          },
          {
            "duration": 0.1818179999999998,
            "durationTicks": 192,
            "midi": 55,
            "name": "G3",
            "ticks": 33600,
            "time": 31.818150000000003,
            "velocity": 0.4566929133858268
          },
          {
            "duration": 0.18181800000000692,
            "durationTicks": 192,
            "midi": 55,
            "name": "G3",
            "ticks": 33840,
            "time": 32.0454225,
            "velocity": 0.4566929133858268
          },
          {
            "duration": 0.1818179999999998,
            "durationTicks": 192,
            "midi": 55,
            "name": "G3",
            "ticks": 34080,
            "time": 32.272695000000006,
            "velocity": 0.4566929133858268
          },
          {
            "duration": 0.1818179999999998,
            "durationTicks": 192,
            "midi": 55,
            "name": "G3",
            "ticks": 34320,
            "time": 32.499967500000004,
            "velocity": 0.4566929133858268
          },
          {
            "duration": 0.18181800000000692,
            "durationTicks": 192,
            "midi": 55,
            "name": "G3",
            "ticks": 34560,
            "time": 32.72724,
            "velocity": 0.8818897637795275
          },
          {
            "duration": 0.18181800000000692,
            "durationTicks": 192,
            "midi": 55,
            "name": "G3",
            "ticks": 34800,
            "time": 32.9545125,
            "velocity": 0.7244094488188977
          },
          {
            "duration": 0.18181800000000692,
            "durationTicks": 192,
            "midi": 55,
            "name": "G3",
            "ticks": 35040,
            "time": 33.181785,
            "velocity": 0.7244094488188977
          },
          {
            "duration": 0.1818179999999998,
            "durationTicks": 192,
            "midi": 55,
            "name": "G3",
            "ticks": 35280,
            "time": 33.4090575,
            "velocity": 0.7244094488188977
          },
          {
            "duration": 0.1818179999999998,
            "durationTicks": 192,
            "midi": 55,
            "name": "G3",
            "ticks": 35520,
            "time": 33.63633,
            "velocity": 0.4566929133858268
          },
          {
            "duration": 0.18181800000000692,
            "durationTicks": 192,
            "midi": 55,
            "name": "G3",
            "ticks": 35760,
            "time": 33.8636025,
            "velocity": 0.4566929133858268
          },
          {
            "duration": 0.1818179999999998,
            "durationTicks": 192,
            "midi": 55,
            "name": "G3",
            "ticks": 36000,
            "time": 34.090875000000004,
            "velocity": 0.4566929133858268
          },
          {
            "duration": 0.1818179999999998,
            "durationTicks": 192,
            "midi": 55,
            "name": "G3",
            "ticks": 36240,
            "time": 34.3181475,
            "velocity": 0.4566929133858268
          },
          {
            "duration": 0.18181800000000692,
            "durationTicks": 192,
            "midi": 55,
            "name": "G3",
            "ticks": 36480,
            "time": 34.54542,
            "velocity": 0.4566929133858268
          },
          {
            "duration": 0.18181800000000692,
            "durationTicks": 192,
            "midi": 55,
            "name": "G3",
            "ticks": 36720,
            "time": 34.7726925,
            "velocity": 0.4566929133858268
          },
          {
            "duration": 0.1818179999999998,
            "durationTicks": 192,
            "midi": 55,
            "name": "G3",
            "ticks": 36960,
            "time": 34.999965,
            "velocity": 0.4566929133858268
          },
          {
            "duration": 0.1818179999999998,
            "durationTicks": 192,
            "midi": 55,
            "name": "G3",
            "ticks": 37200,
            "time": 35.2272375,
            "velocity": 0.4566929133858268
          },
          {
            "duration": 0.18181800000000692,
            "durationTicks": 192,
            "midi": 55,
            "name": "G3",
            "ticks": 37440,
            "time": 35.45451,
            "velocity": 0.4566929133858268
          },
          {
            "duration": 0.1818179999999998,
            "durationTicks": 192,
            "midi": 55,
            "name": "G3",
            "ticks": 37680,
            "time": 35.681782500000004,
            "velocity": 0.5669291338582677
          },
          {
            "duration": 0.1818179999999998,
            "durationTicks": 192,
            "midi": 55,
            "name": "G3",
            "ticks": 37920,
            "time": 35.909055,
            "velocity": 0.5669291338582677
          },
          {
            "duration": 0.18181800000000692,
            "durationTicks": 192,
            "midi": 55,
            "name": "G3",
            "ticks": 38160,
            "time": 36.1363275,
            "velocity": 0.5669291338582677
          },
          {
            "duration": 0.18181800000000692,
            "durationTicks": 192,
            "midi": 55,
            "name": "G3",
            "ticks": 38400,
            "time": 36.3636,
            "velocity": 0.5669291338582677
          },
          {
            "duration": 0.1818179999999998,
            "durationTicks": 192,
            "midi": 55,
            "name": "G3",
            "ticks": 38640,
            "time": 36.5908725,
            "velocity": 0.6377952755905512
          },
          {
            "duration": 0.1818179999999998,
            "durationTicks": 192,
            "midi": 54,
            "name": "F#3",
            "ticks": 38880,
            "time": 36.818145,
            "velocity": 0.6377952755905512
          },
          {
            "duration": 0.18181800000000692,
            "durationTicks": 192,
            "midi": 54,
            "name": "F#3",
            "ticks": 39120,
            "time": 37.0454175,
            "velocity": 0.6377952755905512
          },
          {
            "duration": 0.1818179999999998,
            "durationTicks": 192,
            "midi": 55,
            "name": "G3",
            "ticks": 39360,
            "time": 37.272690000000004,
            "velocity": 0.7244094488188977
          },
          {
            "duration": 0.1818179999999998,
            "durationTicks": 192,
            "midi": 55,
            "name": "G3",
            "ticks": 39600,
            "time": 37.4999625,
            "velocity": 0.7244094488188977
          },
          {
            "duration": 0.18181800000000692,
            "durationTicks": 192,
            "midi": 52,
            "name": "E3",
            "ticks": 39840,
            "time": 37.727235,
            "velocity": 0.8267716535433071
          },
          {
            "duration": 0.18181800000000692,
            "durationTicks": 192,
            "midi": 52,
            "name": "E3",
            "ticks": 40080,
            "time": 37.9545075,
            "velocity": 0.8267716535433071
          },
          {
            "duration": 0.1818179999999998,
            "durationTicks": 192,
            "midi": 50,
            "name": "D3",
            "ticks": 40320,
            "time": 38.18178,
            "velocity": 0.8267716535433071
          },
          {
            "duration": 0.1818179999999998,
            "durationTicks": 192,
            "midi": 50,
            "name": "D3",
            "ticks": 40560,
            "time": 38.4090525,
            "velocity": 0.8267716535433071
          },
          {
            "duration": 0.18181800000000692,
            "durationTicks": 192,
            "midi": 50,
            "name": "D3",
            "ticks": 40800,
            "time": 38.636325,
            "velocity": 0.8267716535433071
          },
          {
            "duration": 0.1818179999999998,
            "durationTicks": 192,
            "midi": 50,
            "name": "D3",
            "ticks": 41040,
            "time": 38.863597500000004,
            "velocity": 0.8267716535433071
          },
          {
            "duration": 0.1818179999999998,
            "durationTicks": 192,
            "midi": 50,
            "name": "D3",
            "ticks": 41280,
            "time": 39.09087,
            "velocity": 0.8267716535433071
          },
          {
            "duration": 0.18181800000000692,
            "durationTicks": 192,
            "midi": 50,
            "name": "D3",
            "ticks": 41520,
            "time": 39.3181425,
            "velocity": 0.8267716535433071
          },
          {
            "duration": 0.18181800000000692,
            "durationTicks": 192,
            "midi": 50,
            "name": "D3",
            "ticks": 41760,
            "time": 39.545415,
            "velocity": 0.8267716535433071
          },
          {
            "duration": 0.1818179999999998,
            "durationTicks": 192,
            "midi": 50,
            "name": "D3",
            "ticks": 42000,
            "time": 39.7726875,
            "velocity": 0.8267716535433071
          },
          {
            "duration": 0.1818179999999998,
            "durationTicks": 192,
            "midi": 50,
            "name": "D3",
            "ticks": 42240,
            "time": 39.99996,
            "velocity": 0.8267716535433071
          },
          {
            "duration": 0.18181800000000692,
            "durationTicks": 192,
            "midi": 50,
            "name": "D3",
            "ticks": 42480,
            "time": 40.2272325,
            "velocity": 0.8267716535433071
          },
          {
            "duration": 0.1818179999999998,
            "durationTicks": 192,
            "midi": 50,
            "name": "D3",
            "ticks": 42720,
            "time": 40.454505000000005,
            "velocity": 0.8267716535433071
          },
          {
            "duration": 0.1818179999999998,
            "durationTicks": 192,
            "midi": 50,
            "name": "D3",
            "ticks": 42960,
            "time": 40.6817775,
            "velocity": 0.8267716535433071
          },
          {
            "duration": 0.18181800000000692,
            "durationTicks": 192,
            "midi": 50,
            "name": "D3",
            "ticks": 43200,
            "time": 40.90905,
            "velocity": 0.8267716535433071
          },
          {
            "duration": 0.18181800000000692,
            "durationTicks": 192,
            "midi": 50,
            "name": "D3",
            "ticks": 43440,
            "time": 41.1363225,
            "velocity": 0.8267716535433071
          },
          {
            "duration": 0.1818179999999998,
            "durationTicks": 192,
            "midi": 50,
            "name": "D3",
            "ticks": 43680,
            "time": 41.363595000000004,
            "velocity": 0.8267716535433071
          },
          {
            "duration": 0.1818179999999998,
            "durationTicks": 192,
            "midi": 50,
            "name": "D3",
            "ticks": 43920,
            "time": 41.5908675,
            "velocity": 0.8267716535433071
          },
          {
            "duration": 0.14772712500000296,
            "durationTicks": 156,
            "midi": 50,
            "name": "D3",
            "ticks": 44160,
            "time": 41.81814,
            "velocity": 0.8267716535433071
          },
          {
            "duration": 0.14772712499999585,
            "durationTicks": 156,
            "midi": 52,
            "name": "E3",
            "ticks": 44400,
            "time": 42.045412500000005,
            "velocity": 0.8267716535433071
          },
          {
            "duration": 0.14772712500000296,
            "durationTicks": 156,
            "midi": 54,
            "name": "F#3",
            "ticks": 44640,
            "time": 42.272685,
            "velocity": 0.8267716535433071
          },
          {
            "duration": 0.14772712500000296,
            "durationTicks": 156,
            "midi": 52,
            "name": "E3",
            "ticks": 44880,
            "time": 42.4999575,
            "velocity": 0.8267716535433071
          },
          {
            "duration": 0.14772712500000296,
            "durationTicks": 156,
            "midi": 50,
            "name": "D3",
            "ticks": 45120,
            "time": 42.72723,
            "velocity": 0.8267716535433071
          },
          {
            "duration": 0.14772712500000296,
            "durationTicks": 156,
            "midi": 52,
            "name": "E3",
            "ticks": 45360,
            "time": 42.954502500000004,
            "velocity": 0.8267716535433071
          },
          {
            "duration": 0.14772712500000296,
            "durationTicks": 156,
            "midi": 54,
            "name": "F#3",
            "ticks": 45600,
            "time": 43.181775,
            "velocity": 0.8267716535433071
          },
          {
            "duration": 0.14772712500000296,
            "durationTicks": 156,
            "midi": 50,
            "name": "D3",
            "ticks": 45840,
            "time": 43.4090475,
            "velocity": 0.8267716535433071
          },
          {
            "duration": 0.14772712499999585,
            "durationTicks": 156,
            "midi": 55,
            "name": "G3",
            "ticks": 46080,
            "time": 43.636320000000005,
            "velocity": 0.8267716535433071
          },
          {
            "duration": 0.14772712500000296,
            "durationTicks": 156,
            "midi": 57,
            "name": "A3",
            "ticks": 46320,
            "time": 43.8635925,
            "velocity": 0.8267716535433071
          },
          {
            "duration": 0.14772712500000296,
            "durationTicks": 156,
            "midi": 59,
            "name": "B3",
            "ticks": 46560,
            "time": 44.090865,
            "velocity": 0.8267716535433071
          },
          {
            "duration": 0.14772712500000296,
            "durationTicks": 156,
            "midi": 57,
            "name": "A3",
            "ticks": 46800,
            "time": 44.3181375,
            "velocity": 0.8267716535433071
          },
          {
            "duration": 0.14772712500000296,
            "durationTicks": 156,
            "midi": 55,
            "name": "G3",
            "ticks": 47040,
            "time": 44.545410000000004,
            "velocity": 0.8267716535433071
          },
          {
            "duration": 0.14772712500000296,
            "durationTicks": 156,
            "midi": 57,
            "name": "A3",
            "ticks": 47280,
            "time": 44.7726825,
            "velocity": 0.8267716535433071
          },
          {
            "duration": 0.14772712500000296,
            "durationTicks": 156,
            "midi": 59,
            "name": "B3",
            "ticks": 47520,
            "time": 44.999955,
            "velocity": 0.8267716535433071
          },
          {
            "duration": 0.14772712499999585,
            "durationTicks": 156,
            "midi": 56,
            "name": "G#3",
            "ticks": 47760,
            "time": 45.227227500000005,
            "velocity": 0.8267716535433071
          },
          {
            "duration": 0.14772712500000296,
            "durationTicks": 156,
            "midi": 57,
            "name": "A3",
            "ticks": 48000,
            "time": 45.4545,
            "velocity": 0.8267716535433071
          },
          {
            "duration": 0.14772712500000296,
            "durationTicks": 156,
            "midi": 57,
            "name": "A3",
            "ticks": 48240,
            "time": 45.6817725,
            "velocity": 0.8267716535433071
          },
          {
            "duration": 0.14772712500000296,
            "durationTicks": 156,
            "midi": 57,
            "name": "A3",
            "ticks": 48480,
            "time": 45.909045,
            "velocity": 0.8267716535433071
          },
          {
            "duration": 0.14772712500000296,
            "durationTicks": 156,
            "midi": 57,
            "name": "A3",
            "ticks": 48720,
            "time": 46.136317500000004,
            "velocity": 0.8267716535433071
          },
          {
            "duration": 0.14772712500000296,
            "durationTicks": 156,
            "midi": 57,
            "name": "A3",
            "ticks": 48960,
            "time": 46.36359,
            "velocity": 0.8267716535433071
          },
          {
            "duration": 0.14772712500000296,
            "durationTicks": 156,
            "midi": 57,
            "name": "A3",
            "ticks": 49200,
            "time": 46.5908625,
            "velocity": 0.8267716535433071
          },
          {
            "duration": 0.14772712499999585,
            "durationTicks": 156,
            "midi": 57,
            "name": "A3",
            "ticks": 49440,
            "time": 46.818135000000005,
            "velocity": 0.8267716535433071
          },
          {
            "duration": 0.14772712500000296,
            "durationTicks": 156,
            "midi": 57,
            "name": "A3",
            "ticks": 49680,
            "time": 47.0454075,
            "velocity": 0.8267716535433071
          },
          {
            "duration": 0.14772712500000296,
            "durationTicks": 156,
            "midi": 57,
            "name": "A3",
            "ticks": 49920,
            "time": 47.27268,
            "velocity": 0.8267716535433071
          },
          {
            "duration": 0.14772712500000296,
            "durationTicks": 156,
            "midi": 45,
            "name": "A2",
            "ticks": 50160,
            "time": 47.4999525,
            "velocity": 0.8267716535433071
          },
          {
            "duration": 0.14772712500000296,
            "durationTicks": 156,
            "midi": 45,
            "name": "A2",
            "ticks": 50400,
            "time": 47.727225000000004,
            "velocity": 0.8267716535433071
          },
          {
            "duration": 0.14772712500000296,
            "durationTicks": 156,
            "midi": 45,
            "name": "A2",
            "ticks": 50640,
            "time": 47.9544975,
            "velocity": 0.8267716535433071
          },
          {
            "duration": 0.3636359999999996,
            "durationTicks": 384,
            "midi": 45,
            "name": "A2",
            "ticks": 50880,
            "time": 48.18177,
            "velocity": 0.7244094488188977
          },
          {
            "duration": 0.18181800000000692,
            "durationTicks": 192,
            "midi": 51,
            "name": "D#3",
            "ticks": 53280,
            "time": 50.454495,
            "velocity": 0.4566929133858268
          },
          {
            "duration": 0.1818179999999998,
            "durationTicks": 192,
            "midi": 52,
            "name": "E3",
            "ticks": 53760,
            "time": 50.909040000000005,
            "velocity": 0.4566929133858268
          },
          {
            "duration": 0.18181800000000692,
            "durationTicks": 192,
            "midi": 50,
            "name": "D3",
            "ticks": 54240,
            "time": 51.363585,
            "velocity": 0.4566929133858268
          },
          {
            "duration": 0.1818179999999998,
            "durationTicks": 192,
            "midi": 49,
            "name": "C#3",
            "ticks": 54720,
            "time": 51.818130000000004,
            "velocity": 0.4566929133858268
          },
          {
            "duration": 0.18181800000000692,
            "durationTicks": 192,
            "midi": 45,
            "name": "A2",
            "ticks": 55200,
            "time": 52.272675,
            "velocity": 0.4566929133858268
          },
          {
            "duration": 0.3636359999999925,
            "durationTicks": 384,
            "midi": 46,
            "name": "A#2",
            "ticks": 56160,
            "time": 53.181765000000006,
            "velocity": 0.4566929133858268
          },
          {
            "duration": 0.18181800000000692,
            "durationTicks": 192,
            "midi": 47,
            "name": "B2",
            "ticks": 56640,
            "time": 53.63631,
            "velocity": 0.4566929133858268
          },
          {
            "duration": 0.1818179999999998,
            "durationTicks": 192,
            "midi": 43,
            "name": "G2",
            "ticks": 57120,
            "time": 54.090855000000005,
            "velocity": 0.4566929133858268
          },
          {
            "duration": 0.3636359999999996,
            "durationTicks": 384,
            "midi": 45,
            "name": "A2",
            "ticks": 57600,
            "time": 54.5454,
            "velocity": 0.4566929133858268
          },
          {
            "duration": 0.6818175000000011,
            "durationTicks": 720,
            "midi": 57,
            "name": "A3",
            "ticks": 58080,
            "time": 54.999945000000004,
            "velocity": 0.6141732283464567
          },
          {
            "duration": 0.227272499999998,
            "durationTicks": 240,
            "midi": 56,
            "name": "G#3",
            "ticks": 58800,
            "time": 55.681762500000005,
            "velocity": 0.4566929133858268
          },
          {
            "duration": 0.227272499999998,
            "durationTicks": 240,
            "midi": 55,
            "name": "G3",
            "ticks": 59040,
            "time": 55.909035,
            "velocity": 0.4566929133858268
          },
          {
            "duration": 0.2272725000000051,
            "durationTicks": 240,
            "midi": 52,
            "name": "E3",
            "ticks": 59280,
            "time": 56.1363075,
            "velocity": 0.4566929133858268
          },
          {
            "duration": 0.1818179999999998,
            "durationTicks": 192,
            "midi": 50,
            "name": "D3",
            "ticks": 59520,
            "time": 56.363580000000006,
            "velocity": 0.4566929133858268
          },
          {
            "duration": 0.18181800000000692,
            "durationTicks": 192,
            "midi": 52,
            "name": "E3",
            "ticks": 60000,
            "time": 56.818125,
            "velocity": 0.4566929133858268
          },
          {
            "duration": 0.1818179999999998,
            "durationTicks": 192,
            "midi": 54,
            "name": "F#3",
            "ticks": 60480,
            "time": 57.272670000000005,
            "velocity": 0.4566929133858268
          },
          {
            "duration": 0.18181800000000692,
            "durationTicks": 192,
            "midi": 51,
            "name": "D#3",
            "ticks": 60960,
            "time": 57.727215,
            "velocity": 0.4566929133858268
          },
          {
            "duration": 0.1818179999999998,
            "durationTicks": 192,
            "midi": 52,
            "name": "E3",
            "ticks": 61440,
            "time": 58.181760000000004,
            "velocity": 0.4566929133858268
          },
          {
            "duration": 0.18181800000000692,
            "durationTicks": 192,
            "midi": 50,
            "name": "D3",
            "ticks": 61920,
            "time": 58.636305,
            "velocity": 0.4566929133858268
          },
          {
            "duration": 0.1818179999999998,
            "durationTicks": 192,
            "midi": 49,
            "name": "C#3",
            "ticks": 62400,
            "time": 59.09085,
            "velocity": 0.4566929133858268
          },
          {
            "duration": 0.1818179999999998,
            "durationTicks": 192,
            "midi": 45,
            "name": "A2",
            "ticks": 62880,
            "time": 59.545395000000006,
            "velocity": 0.4566929133858268
          },
          {
            "duration": 0.18181800000000692,
            "durationTicks": 192,
            "midi": 47,
            "name": "B2",
            "ticks": 63360,
            "time": 59.99994,
            "velocity": 0.4566929133858268
          },
          {
            "duration": 0.1818179999999998,
            "durationTicks": 192,
            "midi": 55,
            "name": "G3",
            "ticks": 63840,
            "time": 60.454485000000005,
            "velocity": 0.4566929133858268
          },
          {
            "duration": 0.18181800000000692,
            "durationTicks": 192,
            "midi": 57,
            "name": "A3",
            "ticks": 64320,
            "time": 60.90903,
            "velocity": 0.4566929133858268
          },
          {
            "duration": 0.1818179999999998,
            "durationTicks": 192,
            "midi": 45,
            "name": "A2",
            "ticks": 64800,
            "time": 61.363575000000004,
            "velocity": 0.4566929133858268
          },
          {
            "duration": 0.36363600000000673,
            "durationTicks": 384,
            "midi": 50,
            "name": "D3",
            "ticks": 65280,
            "time": 61.81812,
            "velocity": 0.4566929133858268
          },
          {
            "duration": 0.3636359999999996,
            "durationTicks": 384,
            "midi": 45,
            "name": "A2",
            "ticks": 67200,
            "time": 63.636300000000006,
            "velocity": 0.4566929133858268
          },
          {
            "duration": 0.36363600000001384,
            "durationTicks": 384,
            "midi": 50,
            "name": "D3",
            "ticks": 69120,
            "time": 65.45448,
            "velocity": 0.4566929133858268
          },
          {
            "duration": 0.3636359999999996,
            "durationTicks": 384,
            "midi": 45,
            "name": "A2",
            "ticks": 71040,
            "time": 67.27266000000002,
            "velocity": 0.4566929133858268
          },
          {
            "duration": 0.14772712499998875,
            "durationTicks": 156,
            "midi": 50,
            "name": "D3",
            "ticks": 73200,
            "time": 69.31811250000001,
            "velocity": 0.8267716535433071
          },
          {
            "duration": 0.14772712499998875,
            "durationTicks": 156,
            "midi": 54,
            "name": "F#3",
            "ticks": 73440,
            "time": 69.54538500000001,
            "velocity": 0.8267716535433071
          },
          {
            "duration": 0.14772712500000296,
            "durationTicks": 156,
            "midi": 52,
            "name": "E3",
            "ticks": 73680,
            "time": 69.77265750000001,
            "velocity": 0.8267716535433071
          },
          {
            "duration": 0.14772712500000296,
            "durationTicks": 156,
            "midi": 51,
            "name": "D#3",
            "ticks": 73920,
            "time": 69.99993,
            "velocity": 0.8267716535433071
          },
          {
            "duration": 0.14772712500000296,
            "durationTicks": 156,
            "midi": 47,
            "name": "B2",
            "ticks": 74160,
            "time": 70.2272025,
            "velocity": 0.8267716535433071
          },
          {
            "duration": 0.14772712499998875,
            "durationTicks": 156,
            "midi": 49,
            "name": "C#3",
            "ticks": 74400,
            "time": 70.45447500000002,
            "velocity": 0.8267716535433071
          },
          {
            "duration": 0.14772712499998875,
            "durationTicks": 156,
            "midi": 51,
            "name": "D#3",
            "ticks": 74640,
            "time": 70.68174750000001,
            "velocity": 0.8267716535433071
          },
          {
            "duration": 0.14772712499998875,
            "durationTicks": 156,
            "midi": 52,
            "name": "E3",
            "ticks": 74880,
            "time": 70.90902000000001,
            "velocity": 0.8267716535433071
          },
          {
            "duration": 0.14772712499998875,
            "durationTicks": 156,
            "midi": 55,
            "name": "G3",
            "ticks": 75120,
            "time": 71.13629250000001,
            "velocity": 0.8267716535433071
          },
          {
            "duration": 0.14772712500000296,
            "durationTicks": 156,
            "midi": 52,
            "name": "E3",
            "ticks": 75360,
            "time": 71.36356500000001,
            "velocity": 0.8267716535433071
          },
          {
            "duration": 0.14772712500000296,
            "durationTicks": 156,
            "midi": 50,
            "name": "D3",
            "ticks": 75600,
            "time": 71.5908375,
            "velocity": 0.8267716535433071
          },
          {
            "duration": 0.14772712500000296,
            "durationTicks": 156,
            "midi": 49,
            "name": "C#3",
            "ticks": 75840,
            "time": 71.81811,
            "velocity": 0.8267716535433071
          },
          {
            "duration": 0.14772712499998875,
            "durationTicks": 156,
            "midi": 45,
            "name": "A2",
            "ticks": 76080,
            "time": 72.04538250000002,
            "velocity": 0.8267716535433071
          },
          {
            "duration": 0.14772712499998875,
            "durationTicks": 156,
            "midi": 47,
            "name": "B2",
            "ticks": 76320,
            "time": 72.27265500000001,
            "velocity": 0.8267716535433071
          },
          {
            "duration": 0.14772712499998875,
            "durationTicks": 156,
            "midi": 49,
            "name": "C#3",
            "ticks": 76560,
            "time": 72.49992750000001,
            "velocity": 0.8267716535433071
          },
          {
            "duration": 0.14772712499998875,
            "durationTicks": 156,
            "midi": 50,
            "name": "D3",
            "ticks": 76800,
            "time": 72.72720000000001,
            "velocity": 0.8267716535433071
          },
          {
            "duration": 0.14772712500000296,
            "durationTicks": 156,
            "midi": 50,
            "name": "D3",
            "ticks": 77040,
            "time": 72.95447250000001,
            "velocity": 0.8267716535433071
          },
          {
            "duration": 0.14772712500000296,
            "durationTicks": 156,
            "midi": 52,
            "name": "E3",
            "ticks": 77280,
            "time": 73.181745,
            "velocity": 0.8267716535433071
          },
          {
            "duration": 0.14772712500000296,
            "durationTicks": 156,
            "midi": 54,
            "name": "F#3",
            "ticks": 77520,
            "time": 73.4090175,
            "velocity": 0.8267716535433071
          },
          {
            "duration": 0.14772712499998875,
            "durationTicks": 156,
            "midi": 55,
            "name": "G3",
            "ticks": 77760,
            "time": 73.63629000000002,
            "velocity": 0.8267716535433071
          },
          {
            "duration": 0.14772712499998875,
            "durationTicks": 156,
            "midi": 55,
            "name": "G3",
            "ticks": 78000,
            "time": 73.86356250000001,
            "velocity": 0.8267716535433071
          },
          {
            "duration": 0.14772712499998875,
            "durationTicks": 156,
            "midi": 55,
            "name": "G3",
            "ticks": 78240,
            "time": 74.09083500000001,
            "velocity": 0.8267716535433071
          },
          {
            "duration": 0.14772712499998875,
            "durationTicks": 156,
            "midi": 55,
            "name": "G3",
            "ticks": 78480,
            "time": 74.31810750000001,
            "velocity": 0.8267716535433071
          },
          {
            "duration": 0.14772712500000296,
            "durationTicks": 156,
            "midi": 57,
            "name": "A3",
            "ticks": 78720,
            "time": 74.54538000000001,
            "velocity": 0.8267716535433071
          },
          {
            "duration": 0.14772712500000296,
            "durationTicks": 156,
            "midi": 57,
            "name": "A3",
            "ticks": 78960,
            "time": 74.7726525,
            "velocity": 0.8267716535433071
          },
          {
            "duration": 0.14772712500000296,
            "durationTicks": 156,
            "midi": 57,
            "name": "A3",
            "ticks": 79200,
            "time": 74.999925,
            "velocity": 0.8267716535433071
          },
          {
            "duration": 0.14772712499998875,
            "durationTicks": 156,
            "midi": 57,
            "name": "A3",
            "ticks": 79440,
            "time": 75.22719750000002,
            "velocity": 0.8267716535433071
          },
          {
            "duration": 0.14772712499998875,
            "durationTicks": 156,
            "midi": 45,
            "name": "A2",
            "ticks": 79680,
            "time": 75.45447000000001,
            "velocity": 0.8267716535433071
          },
          {
            "duration": 0.14772712499998875,
            "durationTicks": 156,
            "midi": 45,
            "name": "A2",
            "ticks": 79920,
            "time": 75.68174250000001,
            "velocity": 0.8267716535433071
          },
          {
            "duration": 0.14772712499998875,
            "durationTicks": 156,
            "midi": 45,
            "name": "A2",
            "ticks": 80160,
            "time": 75.90901500000001,
            "velocity": 0.8267716535433071
          },
          {
            "duration": 0.14772712500000296,
            "durationTicks": 156,
            "midi": 45,
            "name": "A2",
            "ticks": 80400,
            "time": 76.13628750000001,
            "velocity": 0.8267716535433071
          },
          {
            "duration": 0.36363600000001384,
            "durationTicks": 384,
            "midi": 50,
            "name": "D3",
            "ticks": 80640,
            "time": 76.36356,
            "velocity": 0.7244094488188977
          },
          {
            "duration": 0.36363600000001384,
            "durationTicks": 384,
            "midi": 45,
            "name": "A2",
            "ticks": 82560,
            "time": 78.18174,
            "velocity": 0.4566929133858268
          },
          {
            "duration": 0.3636359999999996,
            "durationTicks": 384,
            "midi": 50,
            "name": "D3",
            "ticks": 84480,
            "time": 79.99992000000002,
            "velocity": 0.4566929133858268
          },
          {
            "duration": 0.3636359999999996,
            "durationTicks": 384,
            "midi": 45,
            "name": "A2",
            "ticks": 86400,
            "time": 81.81810000000002,
            "velocity": 0.4566929133858268
          },
          {
            "duration": 0.14772712499998875,
            "durationTicks": 156,
            "midi": 50,
            "name": "D3",
            "ticks": 88560,
            "time": 83.86355250000001,
            "velocity": 0.8267716535433071
          },
          {
            "duration": 0.14772712500000296,
            "durationTicks": 156,
            "midi": 54,
            "name": "F#3",
            "ticks": 88800,
            "time": 84.09082500000001,
            "velocity": 0.8267716535433071
          },
          {
            "duration": 0.14772712500000296,
            "durationTicks": 156,
            "midi": 52,
            "name": "E3",
            "ticks": 89040,
            "time": 84.31809750000001,
            "velocity": 0.8267716535433071
          },
          {
            "duration": 0.14772712500000296,
            "durationTicks": 156,
            "midi": 51,
            "name": "D#3",
            "ticks": 89280,
            "time": 84.54537,
            "velocity": 0.8267716535433071
          },
          {
            "duration": 0.14772712499998875,
            "durationTicks": 156,
            "midi": 47,
            "name": "B2",
            "ticks": 89520,
            "time": 84.77264250000002,
            "velocity": 0.8267716535433071
          },
          {
            "duration": 0.14772712499998875,
            "durationTicks": 156,
            "midi": 49,
            "name": "C#3",
            "ticks": 89760,
            "time": 84.99991500000002,
            "velocity": 0.8267716535433071
          },
          {
            "duration": 0.14772712499998875,
            "durationTicks": 156,
            "midi": 51,
            "name": "D#3",
            "ticks": 90000,
            "time": 85.22718750000001,
            "velocity": 0.8267716535433071
          },
          {
            "duration": 0.14772712499998875,
            "durationTicks": 156,
            "midi": 52,
            "name": "E3",
            "ticks": 90240,
            "time": 85.45446000000001,
            "velocity": 0.8267716535433071
          },
          {
            "duration": 0.14772712500000296,
            "durationTicks": 156,
            "midi": 55,
            "name": "G3",
            "ticks": 90480,
            "time": 85.68173250000001,
            "velocity": 0.8267716535433071
          },
          {
            "duration": 0.14772712500000296,
            "durationTicks": 156,
            "midi": 52,
            "name": "E3",
            "ticks": 90720,
            "time": 85.90900500000001,
            "velocity": 0.8267716535433071
          },
          {
            "duration": 0.14772712500000296,
            "durationTicks": 156,
            "midi": 50,
            "name": "D3",
            "ticks": 90960,
            "time": 86.1362775,
            "velocity": 0.8267716535433071
          },
          {
            "duration": 0.14772712499998875,
            "durationTicks": 156,
            "midi": 49,
            "name": "C#3",
            "ticks": 91200,
            "time": 86.36355000000002,
            "velocity": 0.8267716535433071
          },
          {
            "duration": 0.14772712499998875,
            "durationTicks": 156,
            "midi": 45,
            "name": "A2",
            "ticks": 91440,
            "time": 86.59082250000002,
            "velocity": 0.8267716535433071
          },
          {
            "duration": 0.14772712499998875,
            "durationTicks": 156,
            "midi": 47,
            "name": "B2",
            "ticks": 91680,
            "time": 86.81809500000001,
            "velocity": 0.8267716535433071
          },
          {
            "duration": 0.14772712499998875,
            "durationTicks": 156,
            "midi": 49,
            "name": "C#3",
            "ticks": 91920,
            "time": 87.04536750000001,
            "velocity": 0.8267716535433071
          },
          {
            "duration": 0.14772712500000296,
            "durationTicks": 156,
            "midi": 50,
            "name": "D3",
            "ticks": 92160,
            "time": 87.27264000000001,
            "velocity": 0.8267716535433071
          },
          {
            "duration": 0.14772712500000296,
            "durationTicks": 156,
            "midi": 50,
            "name": "D3",
            "ticks": 92400,
            "time": 87.49991250000001,
            "velocity": 0.8267716535433071
          },
          {
            "duration": 0.14772712500000296,
            "durationTicks": 156,
            "midi": 52,
            "name": "E3",
            "ticks": 92640,
            "time": 87.727185,
            "velocity": 0.8267716535433071
          },
          {
            "duration": 0.14772712499998875,
            "durationTicks": 156,
            "midi": 54,
            "name": "F#3",
            "ticks": 92880,
            "time": 87.95445750000002,
            "velocity": 0.8267716535433071
          },
          {
            "duration": 0.14772712499998875,
            "durationTicks": 156,
            "midi": 55,
            "name": "G3",
            "ticks": 93120,
            "time": 88.18173000000002,
            "velocity": 0.8267716535433071
          },
          {
            "duration": 0.14772712499998875,
            "durationTicks": 156,
            "midi": 55,
            "name": "G3",
            "ticks": 93360,
            "time": 88.40900250000001,
            "velocity": 0.8267716535433071
          },
          {
            "duration": 0.14772712499998875,
            "durationTicks": 156,
            "midi": 55,
            "name": "G3",
            "ticks": 93600,
            "time": 88.63627500000001,
            "velocity": 0.8267716535433071
          },
          {
            "duration": 0.14772712500000296,
            "durationTicks": 156,
            "midi": 55,
            "name": "G3",
            "ticks": 93840,
            "time": 88.86354750000001,
            "velocity": 0.8267716535433071
          },
          {
            "duration": 0.14772712500000296,
            "durationTicks": 156,
            "midi": 57,
            "name": "A3",
            "ticks": 94080,
            "time": 89.09082000000001,
            "velocity": 0.8267716535433071
          },
          {
            "duration": 0.14772712500000296,
            "durationTicks": 156,
            "midi": 57,
            "name": "A3",
            "ticks": 94320,
            "time": 89.3180925,
            "velocity": 0.8267716535433071
          },
          {
            "duration": 0.14772712499998875,
            "durationTicks": 156,
            "midi": 57,
            "name": "A3",
            "ticks": 94560,
            "time": 89.54536500000002,
            "velocity": 0.8267716535433071
          },
          {
            "duration": 0.14772712499998875,
            "durationTicks": 156,
            "midi": 57,
            "name": "A3",
            "ticks": 94800,
            "time": 89.77263750000002,
            "velocity": 0.8267716535433071
          },
          {
            "duration": 0.14772712499998875,
            "durationTicks": 156,
            "midi": 45,
            "name": "A2",
            "ticks": 95040,
            "time": 89.99991000000001,
            "velocity": 0.8267716535433071
          },
          {
            "duration": 0.14772712499998875,
            "durationTicks": 156,
            "midi": 45,
            "name": "A2",
            "ticks": 95280,
            "time": 90.22718250000001,
            "velocity": 0.8267716535433071
          },
          {
            "duration": 0.14772712500000296,
            "durationTicks": 156,
            "midi": 45,
            "name": "A2",
            "ticks": 95520,
            "time": 90.45445500000001,
            "velocity": 0.8267716535433071
          },
          {
            "duration": 0.14772712500000296,
            "durationTicks": 156,
            "midi": 45,
            "name": "A2",
            "ticks": 95760,
            "time": 90.68172750000001,
            "velocity": 0.8267716535433071
          },
          {
            "duration": 0.14772712500000296,
            "durationTicks": 156,
            "midi": 50,
            "name": "D3",
            "ticks": 96000,
            "time": 90.909,
            "velocity": 0.8267716535433071
          },
          {
            "duration": 0.14772712499998875,
            "durationTicks": 156,
            "midi": 45,
            "name": "A2",
            "ticks": 96240,
            "time": 91.13627250000002,
            "velocity": 0.8267716535433071
          },
          {
            "duration": 0.14772712499998875,
            "durationTicks": 156,
            "midi": 47,
            "name": "B2",
            "ticks": 96480,
            "time": 91.36354500000002,
            "velocity": 0.8267716535433071
          },
          {
            "duration": 0.14772712499998875,
            "durationTicks": 156,
            "midi": 49,
            "name": "C#3",
            "ticks": 96720,
            "time": 91.59081750000001,
            "velocity": 0.8267716535433071
          },
          {
            "duration": 0.14772712499998875,
            "durationTicks": 156,
            "midi": 50,
            "name": "D3",
            "ticks": 96960,
            "time": 91.81809000000001,
            "velocity": 0.8267716535433071
          },
          {
            "duration": 0.14772712500000296,
            "durationTicks": 156,
            "midi": 50,
            "name": "D3",
            "ticks": 97200,
            "time": 92.04536250000001,
            "velocity": 0.8267716535433071
          },
          {
            "duration": 0.14772712500000296,
            "durationTicks": 156,
            "midi": 52,
            "name": "E3",
            "ticks": 97440,
            "time": 92.27263500000001,
            "velocity": 0.8267716535433071
          },
          {
            "duration": 0.14772712500000296,
            "durationTicks": 156,
            "midi": 52,
            "name": "E3",
            "ticks": 97680,
            "time": 92.4999075,
            "velocity": 0.8267716535433071
          },
          {
            "duration": 0.14772712499998875,
            "durationTicks": 156,
            "midi": 54,
            "name": "F#3",
            "ticks": 97920,
            "time": 92.72718000000002,
            "velocity": 0.8267716535433071
          },
          {
            "duration": 0.14772712499998875,
            "durationTicks": 156,
            "midi": 49,
            "name": "C#3",
            "ticks": 98160,
            "time": 92.95445250000002,
            "velocity": 0.8267716535433071
          },
          {
            "duration": 0.14772712499998875,
            "durationTicks": 156,
            "midi": 50,
            "name": "D3",
            "ticks": 98400,
            "time": 93.18172500000001,
            "velocity": 0.8267716535433071
          },
          {
            "duration": 0.14772712499998875,
            "durationTicks": 156,
            "midi": 52,
            "name": "E3",
            "ticks": 98640,
            "time": 93.40899750000001,
            "velocity": 0.8267716535433071
          },
          {
            "duration": 0.14772712500000296,
            "durationTicks": 156,
            "midi": 54,
            "name": "F#3",
            "ticks": 98880,
            "time": 93.63627000000001,
            "velocity": 0.8267716535433071
          },
          {
            "duration": 0.14772712500000296,
            "durationTicks": 156,
            "midi": 54,
            "name": "F#3",
            "ticks": 99120,
            "time": 93.86354250000001,
            "velocity": 0.8267716535433071
          },
          {
            "duration": 0.14772712500000296,
            "durationTicks": 156,
            "midi": 55,
            "name": "G3",
            "ticks": 99360,
            "time": 94.090815,
            "velocity": 0.8267716535433071
          },
          {
            "duration": 0.14772712499998875,
            "durationTicks": 156,
            "midi": 55,
            "name": "G3",
            "ticks": 99600,
            "time": 94.31808750000002,
            "velocity": 0.8267716535433071
          },
          {
            "duration": 0.14772712499998875,
            "durationTicks": 156,
            "midi": 57,
            "name": "A3",
            "ticks": 99840,
            "time": 94.54536000000002,
            "velocity": 0.8267716535433071
          },
          {
            "duration": 0.14772712499998875,
            "durationTicks": 156,
            "midi": 57,
            "name": "A3",
            "ticks": 100080,
            "time": 94.77263250000001,
            "velocity": 0.8267716535433071
          },
          {
            "duration": 0.14772712499998875,
            "durationTicks": 156,
            "midi": 58,
            "name": "A#3",
            "ticks": 100320,
            "time": 94.99990500000001,
            "velocity": 0.8267716535433071
          },
          {
            "duration": 0.14772712500000296,
            "durationTicks": 156,
            "midi": 58,
            "name": "A#3",
            "ticks": 100560,
            "time": 95.22717750000001,
            "velocity": 0.8267716535433071
          },
          {
            "duration": 0.36363600000001384,
            "durationTicks": 384,
            "midi": 59,
            "name": "B3",
            "ticks": 100800,
            "time": 95.45445000000001,
            "velocity": 0.7244094488188977
          },
          {
            "duration": 0.909089999999992,
            "durationTicks": 960,
            "midi": 55,
            "name": "G3",
            "ticks": 101760,
            "time": 96.36354000000001,
            "velocity": 0.4566929133858268
          },
          {
            "duration": 0.8636355000000151,
            "durationTicks": 912,
            "midi": 57,
            "name": "A3",
            "ticks": 102720,
            "time": 97.27263,
            "velocity": 0.4566929133858268
          },
          {
            "duration": 0.18181800000000692,
            "durationTicks": 192,
            "midi": 50,
            "name": "D3",
            "ticks": 103680,
            "time": 98.18172000000001,
            "velocity": 0.4566929133858268
          },
          {
            "duration": 0.18181800000000692,
            "durationTicks": 192,
            "midi": 50,
            "name": "D3",
            "ticks": 104160,
            "time": 98.63626500000001,
            "velocity": 0.4566929133858268
          },
          {
            "duration": 0.1818179999999927,
            "durationTicks": 192,
            "midi": 50,
            "name": "D3",
            "ticks": 104640,
            "time": 99.09081000000002,
            "velocity": 0.4566929133858268
          },
          {
            "duration": 0.36363600000001384,
            "durationTicks": 384,
            "midi": 55,
            "name": "G3",
            "ticks": 105600,
            "time": 99.99990000000001,
            "velocity": 0.8267716535433071
          },
          {
            "duration": 0.13636350000000164,
            "durationTicks": 144,
            "midi": 50,
            "name": "D3",
            "ticks": 106320,
            "time": 100.68171750000002,
            "velocity": 0.8267716535433071
          },
          {
            "duration": 0.3636359999999996,
            "durationTicks": 384,
            "midi": 55,
            "name": "G3",
            "ticks": 106560,
            "time": 100.90899000000002,
            "velocity": 0.8267716535433071
          },
          {
            "duration": 0.13636350000000164,
            "durationTicks": 144,
            "midi": 50,
            "name": "D3",
            "ticks": 107280,
            "time": 101.59080750000001,
            "velocity": 0.8267716535433071
          },
          {
            "duration": 0.13636350000001585,
            "durationTicks": 144,
            "midi": 55,
            "name": "G3",
            "ticks": 107520,
            "time": 101.81808000000001,
            "velocity": 0.8267716535433071
          },
          {
            "duration": 0.13636350000001585,
            "durationTicks": 144,
            "midi": 50,
            "name": "D3",
            "ticks": 107760,
            "time": 102.0453525,
            "velocity": 0.8267716535433071
          },
          {
            "duration": 0.13636350000000164,
            "durationTicks": 144,
            "midi": 55,
            "name": "G3",
            "ticks": 108000,
            "time": 102.27262500000002,
            "velocity": 0.8267716535433071
          },
          {
            "duration": 0.13636350000000164,
            "durationTicks": 144,
            "midi": 59,
            "name": "B3",
            "ticks": 108240,
            "time": 102.49989750000002,
            "velocity": 0.8267716535433071
          },
          {
            "duration": 0.3636359999999996,
            "durationTicks": 384,
            "midi": 62,
            "name": "D4",
            "ticks": 108480,
            "time": 102.72717000000002,
            "velocity": 0.8267716535433071
          },
          {
            "duration": 0.36363600000001384,
            "durationTicks": 384,
            "midi": 60,
            "name": "C4",
            "ticks": 109440,
            "time": 103.63626000000001,
            "velocity": 0.8267716535433071
          },
          {
            "duration": 0.13636350000000164,
            "durationTicks": 144,
            "midi": 57,
            "name": "A3",
            "ticks": 110160,
            "time": 104.31807750000002,
            "velocity": 0.8267716535433071
          },
          {
            "duration": 0.3636359999999996,
            "durationTicks": 384,
            "midi": 60,
            "name": "C4",
            "ticks": 110400,
            "time": 104.54535000000001,
            "velocity": 0.8267716535433071
          },
          {
            "duration": 0.13636350000001585,
            "durationTicks": 144,
            "midi": 57,
            "name": "A3",
            "ticks": 111120,
            "time": 105.22716750000001,
            "velocity": 0.8267716535433071
          },
          {
            "duration": 0.13636350000000164,
            "durationTicks": 144,
            "midi": 60,
            "name": "C4",
            "ticks": 111360,
            "time": 105.45444000000002,
            "velocity": 0.8267716535433071
          },
          {
            "duration": 0.13636350000000164,
            "durationTicks": 144,
            "midi": 57,
            "name": "A3",
            "ticks": 111600,
            "time": 105.68171250000002,
            "velocity": 0.8267716535433071
          },
          {
            "duration": 0.13636350000000164,
            "durationTicks": 144,
            "midi": 54,
            "name": "F#3",
            "ticks": 111840,
            "time": 105.90898500000002,
            "velocity": 0.8267716535433071
          },
          {
            "duration": 0.13636350000000164,
            "durationTicks": 144,
            "midi": 57,
            "name": "A3",
            "ticks": 112080,
            "time": 106.13625750000001,
            "velocity": 0.8267716535433071
          },
          {
            "duration": 0.36363600000001384,
            "durationTicks": 384,
            "midi": 50,
            "name": "D3",
            "ticks": 112320,
            "time": 106.36353000000001,
            "velocity": 0.8267716535433071
          },
          {
            "duration": 0.14772712499998875,
            "durationTicks": 156,
            "midi": 55,
            "name": "G3",
            "ticks": 113280,
            "time": 107.27262000000002,
            "velocity": 0.8267716535433071
          },
          {
            "duration": 0.14772712499998875,
            "durationTicks": 156,
            "midi": 55,
            "name": "G3",
            "ticks": 113520,
            "time": 107.49989250000002,
            "velocity": 0.8267716535433071
          },
          {
            "duration": 0.14772712499998875,
            "durationTicks": 156,
            "midi": 55,
            "name": "G3",
            "ticks": 113760,
            "time": 107.72716500000001,
            "velocity": 0.8267716535433071
          },
          {
            "duration": 0.14772712500000296,
            "durationTicks": 156,
            "midi": 55,
            "name": "G3",
            "ticks": 114000,
            "time": 107.95443750000001,
            "velocity": 0.8267716535433071
          },
          {
            "duration": 0.14772712500000296,
            "durationTicks": 156,
            "midi": 55,
            "name": "G3",
            "ticks": 114240,
            "time": 108.18171000000001,
            "velocity": 0.8267716535433071
          },
          {
            "duration": 0.14772712500000296,
            "durationTicks": 156,
            "midi": 55,
            "name": "G3",
            "ticks": 114480,
            "time": 108.40898250000001,
            "velocity": 0.8267716535433071
          },
          {
            "duration": 0.14772712499998875,
            "durationTicks": 156,
            "midi": 55,
            "name": "G3",
            "ticks": 114720,
            "time": 108.63625500000002,
            "velocity": 0.8267716535433071
          },
          {
            "duration": 0.14772712499998875,
            "durationTicks": 156,
            "midi": 55,
            "name": "G3",
            "ticks": 114960,
            "time": 108.86352750000002,
            "velocity": 0.8267716535433071
          },
          {
            "duration": 0.14772712499998875,
            "durationTicks": 156,
            "midi": 55,
            "name": "G3",
            "ticks": 115200,
            "time": 109.09080000000002,
            "velocity": 0.8267716535433071
          },
          {
            "duration": 0.14772712499998875,
            "durationTicks": 156,
            "midi": 55,
            "name": "G3",
            "ticks": 115440,
            "time": 109.31807250000001,
            "velocity": 0.8267716535433071
          },
          {
            "duration": 0.14772712500000296,
            "durationTicks": 156,
            "midi": 55,
            "name": "G3",
            "ticks": 115680,
            "time": 109.54534500000001,
            "velocity": 0.8267716535433071
          },
          {
            "duration": 0.14772712500000296,
            "durationTicks": 156,
            "midi": 55,
            "name": "G3",
            "ticks": 115920,
            "time": 109.77261750000001,
            "velocity": 0.8267716535433071
          },
          {
            "duration": 0.14772712500000296,
            "durationTicks": 156,
            "midi": 55,
            "name": "G3",
            "ticks": 116160,
            "time": 109.99989000000001,
            "velocity": 0.8267716535433071
          },
          {
            "duration": 0.14772712499998875,
            "durationTicks": 156,
            "midi": 55,
            "name": "G3",
            "ticks": 116400,
            "time": 110.22716250000002,
            "velocity": 0.8267716535433071
          },
          {
            "duration": 0.14772712499998875,
            "durationTicks": 156,
            "midi": 55,
            "name": "G3",
            "ticks": 116640,
            "time": 110.45443500000002,
            "velocity": 0.8267716535433071
          },
          {
            "duration": 0.14772712499998875,
            "durationTicks": 156,
            "midi": 55,
            "name": "G3",
            "ticks": 116880,
            "time": 110.68170750000002,
            "velocity": 0.8267716535433071
          },
          {
            "duration": 0.14772712499998875,
            "durationTicks": 156,
            "midi": 55,
            "name": "G3",
            "ticks": 117120,
            "time": 110.90898000000001,
            "velocity": 0.8267716535433071
          },
          {
            "duration": 0.14772712500000296,
            "durationTicks": 156,
            "midi": 55,
            "name": "G3",
            "ticks": 117360,
            "time": 111.13625250000001,
            "velocity": 0.8267716535433071
          },
          {
            "duration": 0.14772712500000296,
            "durationTicks": 156,
            "midi": 55,
            "name": "G3",
            "ticks": 117600,
            "time": 111.36352500000001,
            "velocity": 0.8267716535433071
          },
          {
            "duration": 0.14772712500000296,
            "durationTicks": 156,
            "midi": 55,
            "name": "G3",
            "ticks": 117840,
            "time": 111.59079750000001,
            "velocity": 0.8267716535433071
          },
          {
            "duration": 0.14772712499998875,
            "durationTicks": 156,
            "midi": 55,
            "name": "G3",
            "ticks": 118080,
            "time": 111.81807000000002,
            "velocity": 0.8267716535433071
          },
          {
            "duration": 0.14772712499998875,
            "durationTicks": 156,
            "midi": 55,
            "name": "G3",
            "ticks": 118320,
            "time": 112.04534250000002,
            "velocity": 0.8267716535433071
          },
          {
            "duration": 0.14772712499998875,
            "durationTicks": 156,
            "midi": 55,
            "name": "G3",
            "ticks": 118560,
            "time": 112.27261500000002,
            "velocity": 0.8267716535433071
          },
          {
            "duration": 0.14772712499998875,
            "durationTicks": 156,
            "midi": 55,
            "name": "G3",
            "ticks": 118800,
            "time": 112.49988750000001,
            "velocity": 0.8267716535433071
          },
          {
            "duration": 0.14772712500000296,
            "durationTicks": 156,
            "midi": 55,
            "name": "G3",
            "ticks": 119040,
            "time": 112.72716000000001,
            "velocity": 0.8267716535433071
          },
          {
            "duration": 0.14772712500000296,
            "durationTicks": 156,
            "midi": 55,
            "name": "G3",
            "ticks": 119280,
            "time": 112.95443250000001,
            "velocity": 0.8267716535433071
          },
          {
            "duration": 0.14772712500000296,
            "durationTicks": 156,
            "midi": 55,
            "name": "G3",
            "ticks": 119520,
            "time": 113.18170500000001,
            "velocity": 0.8267716535433071
          },
          {
            "duration": 0.14772712499998875,
            "durationTicks": 156,
            "midi": 55,
            "name": "G3",
            "ticks": 119760,
            "time": 113.40897750000002,
            "velocity": 0.8267716535433071
          },
          {
            "duration": 0.14772712499998875,
            "durationTicks": 156,
            "midi": 55,
            "name": "G3",
            "ticks": 120000,
            "time": 113.63625000000002,
            "velocity": 0.8267716535433071
          },
          {
            "duration": 0.14772712499998875,
            "durationTicks": 156,
            "midi": 55,
            "name": "G3",
            "ticks": 120240,
            "time": 113.86352250000002,
            "velocity": 0.8267716535433071
          },
          {
            "duration": 0.14772712499998875,
            "durationTicks": 156,
            "midi": 55,
            "name": "G3",
            "ticks": 120480,
            "time": 114.09079500000001,
            "velocity": 0.8267716535433071
          },
          {
            "duration": 0.14772712500000296,
            "durationTicks": 156,
            "midi": 55,
            "name": "G3",
            "ticks": 120720,
            "time": 114.31806750000001,
            "velocity": 0.8267716535433071
          },
          {
            "duration": 0.14772712500000296,
            "durationTicks": 156,
            "midi": 55,
            "name": "G3",
            "ticks": 120960,
            "time": 114.54534000000001,
            "velocity": 0.8267716535433071
          },
          {
            "duration": 0.14772712500000296,
            "durationTicks": 156,
            "midi": 55,
            "name": "G3",
            "ticks": 121200,
            "time": 114.77261250000001,
            "velocity": 0.8267716535433071
          },
          {
            "duration": 0.14772712499998875,
            "durationTicks": 156,
            "midi": 57,
            "name": "A3",
            "ticks": 121440,
            "time": 114.99988500000002,
            "velocity": 0.8267716535433071
          },
          {
            "duration": 0.14772712499998875,
            "durationTicks": 156,
            "midi": 57,
            "name": "A3",
            "ticks": 121680,
            "time": 115.22715750000002,
            "velocity": 0.8267716535433071
          },
          {
            "duration": 0.14772712499998875,
            "durationTicks": 156,
            "midi": 59,
            "name": "B3",
            "ticks": 121920,
            "time": 115.45443000000002,
            "velocity": 0.8267716535433071
          },
          {
            "duration": 0.14772712499998875,
            "durationTicks": 156,
            "midi": 59,
            "name": "B3",
            "ticks": 122160,
            "time": 115.68170250000001,
            "velocity": 0.8267716535433071
          },
          {
            "duration": 0.14772712500000296,
            "durationTicks": 156,
            "midi": 54,
            "name": "F#3",
            "ticks": 122400,
            "time": 115.90897500000001,
            "velocity": 0.8267716535433071
          },
          {
            "duration": 0.14772712500000296,
            "durationTicks": 156,
            "midi": 54,
            "name": "F#3",
            "ticks": 122640,
            "time": 116.13624750000001,
            "velocity": 0.8267716535433071
          },
          {
            "duration": 0.14772712500000296,
            "durationTicks": 156,
            "midi": 55,
            "name": "G3",
            "ticks": 122880,
            "time": 116.36352000000001,
            "velocity": 0.8267716535433071
          },
          {
            "duration": 0.14772712499998875,
            "durationTicks": 156,
            "midi": 55,
            "name": "G3",
            "ticks": 123120,
            "time": 116.59079250000002,
            "velocity": 0.8267716535433071
          },
          {
            "duration": 0.14772712499998875,
            "durationTicks": 156,
            "midi": 57,
            "name": "A3",
            "ticks": 123360,
            "time": 116.81806500000002,
            "velocity": 0.8267716535433071
          },
          {
            "duration": 0.14772712499998875,
            "durationTicks": 156,
            "midi": 57,
            "name": "A3",
            "ticks": 123600,
            "time": 117.04533750000002,
            "velocity": 0.8267716535433071
          },
          {
            "duration": 0.3636359999999996,
            "durationTicks": 384,
            "midi": 59,
            "name": "B3",
            "ticks": 123840,
            "time": 117.27261000000001,
            "velocity": 0.7244094488188977
          },
          {
            "duration": 0.909089999999992,
            "durationTicks": 960,
            "midi": 50,
            "name": "D3",
            "ticks": 126720,
            "time": 119.99988000000002,
            "velocity": 0.4566929133858268
          },
          {
            "duration": 0.7272720000000135,
            "durationTicks": 768,
            "midi": 52,
            "name": "E3",
            "ticks": 127680,
            "time": 120.90897000000001,
            "velocity": 0.4566929133858268
          },
          {
            "duration": 0.2954542499999917,
            "durationTicks": 312,
            "midi": 48,
            "name": "C3",
            "ticks": 128640,
            "time": 121.81806000000002,
            "velocity": 0.4566929133858268
          },
          {
            "duration": 0.2954542499999917,
            "durationTicks": 312,
            "midi": 48,
            "name": "C3",
            "ticks": 129120,
            "time": 122.27260500000001,
            "velocity": 0.4566929133858268
          },
          {
            "duration": 0.2954542499999917,
            "durationTicks": 312,
            "midi": 50,
            "name": "D3",
            "ticks": 129600,
            "time": 122.72715000000001,
            "velocity": 0.4566929133858268
          },
          {
            "duration": 0.2954542499999917,
            "durationTicks": 312,
            "midi": 50,
            "name": "D3",
            "ticks": 130080,
            "time": 123.18169500000002,
            "velocity": 0.4566929133858268
          },
          {
            "duration": 0.1818179999999927,
            "durationTicks": 192,
            "midi": 47,
            "name": "B2",
            "ticks": 130560,
            "time": 123.63624000000002,
            "velocity": 0.4566929133858268
          },
          {
            "duration": 0.1818179999999927,
            "durationTicks": 192,
            "midi": 50,
            "name": "D3",
            "ticks": 131040,
            "time": 124.09078500000001,
            "velocity": 0.4566929133858268
          },
          {
            "duration": 0.3636359999999996,
            "durationTicks": 384,
            "midi": 55,
            "name": "G3",
            "ticks": 131520,
            "time": 124.54533000000002,
            "velocity": 0.4566929133858268
          },
          {
            "duration": 0.909089999999992,
            "durationTicks": 960,
            "midi": 50,
            "name": "D3",
            "ticks": 134400,
            "time": 127.27260000000001,
            "velocity": 0.4566929133858268
          },
          {
            "duration": 0.7272720000000277,
            "durationTicks": 768,
            "midi": 52,
            "name": "E3",
            "ticks": 135360,
            "time": 128.18169,
            "velocity": 0.4566929133858268
          },
          {
            "duration": 0.2954542500000059,
            "durationTicks": 312,
            "midi": 48,
            "name": "C3",
            "ticks": 136320,
            "time": 129.09078,
            "velocity": 0.4566929133858268
          },
          {
            "duration": 0.2954542500000059,
            "durationTicks": 312,
            "midi": 48,
            "name": "C3",
            "ticks": 136800,
            "time": 129.545325,
            "velocity": 0.4566929133858268
          },
          {
            "duration": 0.2954542500000059,
            "durationTicks": 312,
            "midi": 50,
            "name": "D3",
            "ticks": 137280,
            "time": 129.99987,
            "velocity": 0.4566929133858268
          },
          {
            "duration": 0.2954542499999775,
            "durationTicks": 312,
            "midi": 50,
            "name": "D3",
            "ticks": 137760,
            "time": 130.454415,
            "velocity": 0.4566929133858268
          },
          {
            "duration": 0.1818179999999927,
            "durationTicks": 192,
            "midi": 55,
            "name": "G3",
            "ticks": 138240,
            "time": 130.90896,
            "velocity": 0.8818897637795275
          },
          {
            "duration": 0.1818179999999927,
            "durationTicks": 192,
            "midi": 55,
            "name": "G3",
            "ticks": 138480,
            "time": 131.1362325,
            "velocity": 0.7244094488188977
          },
          {
            "duration": 0.1818179999999927,
            "durationTicks": 192,
            "midi": 55,
            "name": "G3",
            "ticks": 138720,
            "time": 131.363505,
            "velocity": 0.7244094488188977
          },
          {
            "duration": 0.1818179999999927,
            "durationTicks": 192,
            "midi": 55,
            "name": "G3",
            "ticks": 138960,
            "time": 131.5907775,
            "velocity": 0.7244094488188977
          },
          {
            "duration": 0.1818179999999927,
            "durationTicks": 192,
            "midi": 55,
            "name": "G3",
            "ticks": 139200,
            "time": 131.81805,
            "velocity": 0.4566929133858268
          },
          {
            "duration": 0.1818179999999927,
            "durationTicks": 192,
            "midi": 55,
            "name": "G3",
            "ticks": 139440,
            "time": 132.0453225,
            "velocity": 0.4566929133858268
          },
          {
            "duration": 0.1818179999999927,
            "durationTicks": 192,
            "midi": 55,
            "name": "G3",
            "ticks": 139680,
            "time": 132.272595,
            "velocity": 0.4566929133858268
          },
          {
            "duration": 0.1818179999999927,
            "durationTicks": 192,
            "midi": 55,
            "name": "G3",
            "ticks": 139920,
            "time": 132.4998675,
            "velocity": 0.4566929133858268
          },
          {
            "duration": 0.1818179999999927,
            "durationTicks": 192,
            "midi": 55,
            "name": "G3",
            "ticks": 140160,
            "time": 132.72714,
            "velocity": 0.8818897637795275
          },
          {
            "duration": 0.1818179999999927,
            "durationTicks": 192,
            "midi": 55,
            "name": "G3",
            "ticks": 140400,
            "time": 132.9544125,
            "velocity": 0.7244094488188977
          },
          {
            "duration": 0.1818179999999927,
            "durationTicks": 192,
            "midi": 55,
            "name": "G3",
            "ticks": 140640,
            "time": 133.181685,
            "velocity": 0.7244094488188977
          },
          {
            "duration": 0.18181799999996429,
            "durationTicks": 192,
            "midi": 55,
            "name": "G3",
            "ticks": 140880,
            "time": 133.4089575,
            "velocity": 0.7244094488188977
          },
          {
            "duration": 0.1818179999999927,
            "durationTicks": 192,
            "midi": 55,
            "name": "G3",
            "ticks": 141120,
            "time": 133.63623,
            "velocity": 0.4566929133858268
          },
          {
            "duration": 0.1818179999999927,
            "durationTicks": 192,
            "midi": 55,
            "name": "G3",
            "ticks": 141360,
            "time": 133.8635025,
            "velocity": 0.4566929133858268
          },
          {
            "duration": 0.1818179999999927,
            "durationTicks": 192,
            "midi": 55,
            "name": "G3",
            "ticks": 141600,
            "time": 134.090775,
            "velocity": 0.4566929133858268
          },
          {
            "duration": 0.1818179999999927,
            "durationTicks": 192,
            "midi": 55,
            "name": "G3",
            "ticks": 141840,
            "time": 134.3180475,
            "velocity": 0.4566929133858268
          },
          {
            "duration": 0.1818179999999927,
            "durationTicks": 192,
            "midi": 55,
            "name": "G3",
            "ticks": 142080,
            "time": 134.54532,
            "velocity": 0.4566929133858268
          },
          {
            "duration": 0.1818179999999927,
            "durationTicks": 192,
            "midi": 55,
            "name": "G3",
            "ticks": 142320,
            "time": 134.7725925,
            "velocity": 0.4566929133858268
          },
          {
            "duration": 0.1818179999999927,
            "durationTicks": 192,
            "midi": 55,
            "name": "G3",
            "ticks": 142560,
            "time": 134.999865,
            "velocity": 0.4566929133858268
          },
          {
            "duration": 0.1818179999999927,
            "durationTicks": 192,
            "midi": 55,
            "name": "G3",
            "ticks": 142800,
            "time": 135.2271375,
            "velocity": 0.4566929133858268
          },
          {
            "duration": 0.1818179999999927,
            "durationTicks": 192,
            "midi": 55,
            "name": "G3",
            "ticks": 143040,
            "time": 135.45441,
            "velocity": 0.4566929133858268
          },
          {
            "duration": 0.1818179999999927,
            "durationTicks": 192,
            "midi": 55,
            "name": "G3",
            "ticks": 143280,
            "time": 135.6816825,
            "velocity": 0.5669291338582677
          },
          {
            "duration": 0.1818179999999927,
            "durationTicks": 192,
            "midi": 55,
            "name": "G3",
            "ticks": 143520,
            "time": 135.908955,
            "velocity": 0.5669291338582677
          },
          {
            "duration": 0.1818179999999927,
            "durationTicks": 192,
            "midi": 55,
            "name": "G3",
            "ticks": 143760,
            "time": 136.1362275,
            "velocity": 0.5669291338582677
          },
          {
            "duration": 0.1818179999999927,
            "durationTicks": 192,
            "midi": 55,
            "name": "G3",
            "ticks": 144000,
            "time": 136.3635,
            "velocity": 0.5669291338582677
          },
          {
            "duration": 0.18181799999996429,
            "durationTicks": 192,
            "midi": 55,
            "name": "G3",
            "ticks": 144240,
            "time": 136.5907725,
            "velocity": 0.6377952755905512
          },
          {
            "duration": 0.1818179999999927,
            "durationTicks": 192,
            "midi": 54,
            "name": "F#3",
            "ticks": 144480,
            "time": 136.818045,
            "velocity": 0.6377952755905512
          },
          {
            "duration": 0.1818179999999927,
            "durationTicks": 192,
            "midi": 54,
            "name": "F#3",
            "ticks": 144720,
            "time": 137.0453175,
            "velocity": 0.6377952755905512
          },
          {
            "duration": 0.1818179999999927,
            "durationTicks": 192,
            "midi": 55,
            "name": "G3",
            "ticks": 144960,
            "time": 137.27259,
            "velocity": 0.7244094488188977
          },
          {
            "duration": 0.1818179999999927,
            "durationTicks": 192,
            "midi": 55,
            "name": "G3",
            "ticks": 145200,
            "time": 137.4998625,
            "velocity": 0.7244094488188977
          },
          {
            "duration": 0.1818179999999927,
            "durationTicks": 192,
            "midi": 52,
            "name": "E3",
            "ticks": 145440,
            "time": 137.727135,
            "velocity": 0.8267716535433071
          },
          {
            "duration": 0.1818179999999927,
            "durationTicks": 192,
            "midi": 52,
            "name": "E3",
            "ticks": 145680,
            "time": 137.9544075,
            "velocity": 0.8267716535433071
          },
          {
            "duration": 0.1818179999999927,
            "durationTicks": 192,
            "midi": 50,
            "name": "D3",
            "ticks": 145920,
            "time": 138.18168,
            "velocity": 0.8267716535433071
          },
          {
            "duration": 0.1818179999999927,
            "durationTicks": 192,
            "midi": 50,
            "name": "D3",
            "ticks": 146160,
            "time": 138.4089525,
            "velocity": 0.8267716535433071
          },
          {
            "duration": 0.1818179999999927,
            "durationTicks": 192,
            "midi": 50,
            "name": "D3",
            "ticks": 146400,
            "time": 138.636225,
            "velocity": 0.8267716535433071
          },
          {
            "duration": 0.1818179999999927,
            "durationTicks": 192,
            "midi": 50,
            "name": "D3",
            "ticks": 146640,
            "time": 138.8634975,
            "velocity": 0.8267716535433071
          },
          {
            "duration": 0.1818179999999927,
            "durationTicks": 192,
            "midi": 50,
            "name": "D3",
            "ticks": 146880,
            "time": 139.09077,
            "velocity": 0.8267716535433071
          },
          {
            "duration": 0.1818179999999927,
            "durationTicks": 192,
            "midi": 50,
            "name": "D3",
            "ticks": 147120,
            "time": 139.3180425,
            "velocity": 0.8267716535433071
          },
          {
            "duration": 0.1818179999999927,
            "durationTicks": 192,
            "midi": 50,
            "name": "D3",
            "ticks": 147360,
            "time": 139.545315,
            "velocity": 0.8267716535433071
          },
          {
            "duration": 0.18181799999996429,
            "durationTicks": 192,
            "midi": 50,
            "name": "D3",
            "ticks": 147600,
            "time": 139.77258750000001,
            "velocity": 0.8267716535433071
          },
          {
            "duration": 0.1818179999999927,
            "durationTicks": 192,
            "midi": 50,
            "name": "D3",
            "ticks": 147840,
            "time": 139.99986,
            "velocity": 0.8267716535433071
          },
          {
            "duration": 0.1818179999999927,
            "durationTicks": 192,
            "midi": 50,
            "name": "D3",
            "ticks": 148080,
            "time": 140.2271325,
            "velocity": 0.8267716535433071
          },
          {
            "duration": 0.1818179999999927,
            "durationTicks": 192,
            "midi": 50,
            "name": "D3",
            "ticks": 148320,
            "time": 140.454405,
            "velocity": 0.8267716535433071
          },
          {
            "duration": 0.1818179999999927,
            "durationTicks": 192,
            "midi": 50,
            "name": "D3",
            "ticks": 148560,
            "time": 140.6816775,
            "velocity": 0.8267716535433071
          },
          {
            "duration": 0.1818179999999927,
            "durationTicks": 192,
            "midi": 50,
            "name": "D3",
            "ticks": 148800,
            "time": 140.90895,
            "velocity": 0.8267716535433071
          },
          {
            "duration": 0.1818179999999927,
            "durationTicks": 192,
            "midi": 50,
            "name": "D3",
            "ticks": 149040,
            "time": 141.1362225,
            "velocity": 0.8267716535433071
          },
          {
            "duration": 0.1818179999999927,
            "durationTicks": 192,
            "midi": 50,
            "name": "D3",
            "ticks": 149280,
            "time": 141.363495,
            "velocity": 0.8267716535433071
          },
          {
            "duration": 0.1818179999999927,
            "durationTicks": 192,
            "midi": 50,
            "name": "D3",
            "ticks": 149520,
            "time": 141.5907675,
            "velocity": 0.8267716535433071
          },
          {
            "duration": 0.14772712499998875,
            "durationTicks": 156,
            "midi": 50,
            "name": "D3",
            "ticks": 149760,
            "time": 141.81804,
            "velocity": 0.8267716535433071
          },
          {
            "duration": 0.14772712499998875,
            "durationTicks": 156,
            "midi": 52,
            "name": "E3",
            "ticks": 150000,
            "time": 142.0453125,
            "velocity": 0.8267716535433071
          },
          {
            "duration": 0.14772712500001717,
            "durationTicks": 156,
            "midi": 54,
            "name": "F#3",
            "ticks": 150240,
            "time": 142.272585,
            "velocity": 0.8267716535433071
          },
          {
            "duration": 0.14772712500001717,
            "durationTicks": 156,
            "midi": 52,
            "name": "E3",
            "ticks": 150480,
            "time": 142.4998575,
            "velocity": 0.8267716535433071
          },
          {
            "duration": 0.14772712500001717,
            "durationTicks": 156,
            "midi": 50,
            "name": "D3",
            "ticks": 150720,
            "time": 142.72713,
            "velocity": 0.8267716535433071
          },
          {
            "duration": 0.14772712499998875,
            "durationTicks": 156,
            "midi": 52,
            "name": "E3",
            "ticks": 150960,
            "time": 142.95440250000001,
            "velocity": 0.8267716535433071
          },
          {
            "duration": 0.14772712499998875,
            "durationTicks": 156,
            "midi": 54,
            "name": "F#3",
            "ticks": 151200,
            "time": 143.181675,
            "velocity": 0.8267716535433071
          },
          {
            "duration": 0.14772712499998875,
            "durationTicks": 156,
            "midi": 50,
            "name": "D3",
            "ticks": 151440,
            "time": 143.4089475,
            "velocity": 0.8267716535433071
          },
          {
            "duration": 0.14772712499998875,
            "durationTicks": 156,
            "midi": 55,
            "name": "G3",
            "ticks": 151680,
            "time": 143.63622,
            "velocity": 0.8267716535433071
          },
          {
            "duration": 0.14772712499998875,
            "durationTicks": 156,
            "midi": 57,
            "name": "A3",
            "ticks": 151920,
            "time": 143.8634925,
            "velocity": 0.8267716535433071
          },
          {
            "duration": 0.14772712499998875,
            "durationTicks": 156,
            "midi": 59,
            "name": "B3",
            "ticks": 152160,
            "time": 144.090765,
            "velocity": 0.8267716535433071
          },
          {
            "duration": 0.14772712499998875,
            "durationTicks": 156,
            "midi": 57,
            "name": "A3",
            "ticks": 152400,
            "time": 144.3180375,
            "velocity": 0.8267716535433071
          },
          {
            "duration": 0.14772712499998875,
            "durationTicks": 156,
            "midi": 55,
            "name": "G3",
            "ticks": 152640,
            "time": 144.54531,
            "velocity": 0.8267716535433071
          },
          {
            "duration": 0.14772712499998875,
            "durationTicks": 156,
            "midi": 57,
            "name": "A3",
            "ticks": 152880,
            "time": 144.7725825,
            "velocity": 0.8267716535433071
          },
          {
            "duration": 0.14772712499998875,
            "durationTicks": 156,
            "midi": 59,
            "name": "B3",
            "ticks": 153120,
            "time": 144.999855,
            "velocity": 0.8267716535433071
          },
          {
            "duration": 0.14772712499998875,
            "durationTicks": 156,
            "midi": 56,
            "name": "G#3",
            "ticks": 153360,
            "time": 145.2271275,
            "velocity": 0.8267716535433071
          },
          {
            "duration": 0.14772712500001717,
            "durationTicks": 156,
            "midi": 57,
            "name": "A3",
            "ticks": 153600,
            "time": 145.4544,
            "velocity": 0.8267716535433071
          },
          {
            "duration": 0.14772712500001717,
            "durationTicks": 156,
            "midi": 57,
            "name": "A3",
            "ticks": 153840,
            "time": 145.6816725,
            "velocity": 0.8267716535433071
          },
          {
            "duration": 0.14772712500001717,
            "durationTicks": 156,
            "midi": 57,
            "name": "A3",
            "ticks": 154080,
            "time": 145.908945,
            "velocity": 0.8267716535433071
          },
          {
            "duration": 0.14772712499998875,
            "durationTicks": 156,
            "midi": 57,
            "name": "A3",
            "ticks": 154320,
            "time": 146.13621750000001,
            "velocity": 0.8267716535433071
          },
          {
            "duration": 0.14772712499998875,
            "durationTicks": 156,
            "midi": 57,
            "name": "A3",
            "ticks": 154560,
            "time": 146.36349,
            "velocity": 0.8267716535433071
          },
          {
            "duration": 0.14772712499998875,
            "durationTicks": 156,
            "midi": 57,
            "name": "A3",
            "ticks": 154800,
            "time": 146.5907625,
            "velocity": 0.8267716535433071
          },
          {
            "duration": 0.14772712499998875,
            "durationTicks": 156,
            "midi": 57,
            "name": "A3",
            "ticks": 155040,
            "time": 146.818035,
            "velocity": 0.8267716535433071
          },
          {
            "duration": 0.14772712499998875,
            "durationTicks": 156,
            "midi": 57,
            "name": "A3",
            "ticks": 155280,
            "time": 147.0453075,
            "velocity": 0.8267716535433071
          },
          {
            "duration": 0.14772712499998875,
            "durationTicks": 156,
            "midi": 57,
            "name": "A3",
            "ticks": 155520,
            "time": 147.27258,
            "velocity": 0.8267716535433071
          },
          {
            "duration": 0.14772712499998875,
            "durationTicks": 156,
            "midi": 45,
            "name": "A2",
            "ticks": 155760,
            "time": 147.4998525,
            "velocity": 0.8267716535433071
          },
          {
            "duration": 0.14772712499998875,
            "durationTicks": 156,
            "midi": 45,
            "name": "A2",
            "ticks": 156000,
            "time": 147.727125,
            "velocity": 0.8267716535433071
          },
          {
            "duration": 0.14772712499998875,
            "durationTicks": 156,
            "midi": 45,
            "name": "A2",
            "ticks": 156240,
            "time": 147.9543975,
            "velocity": 0.8267716535433071
          },
          {
            "duration": 0.36363600000001384,
            "durationTicks": 384,
            "midi": 45,
            "name": "A2",
            "ticks": 156480,
            "time": 148.18167,
            "velocity": 0.7244094488188977
          },
          {
            "duration": 0.1818179999999927,
            "durationTicks": 192,
            "midi": 51,
            "name": "D#3",
            "ticks": 158880,
            "time": 150.454395,
            "velocity": 0.4566929133858268
          },
          {
            "duration": 0.1818179999999927,
            "durationTicks": 192,
            "midi": 52,
            "name": "E3",
            "ticks": 159360,
            "time": 150.90894,
            "velocity": 0.4566929133858268
          },
          {
            "duration": 0.1818179999999927,
            "durationTicks": 192,
            "midi": 50,
            "name": "D3",
            "ticks": 159840,
            "time": 151.363485,
            "velocity": 0.4566929133858268
          },
          {
            "duration": 0.1818179999999927,
            "durationTicks": 192,
            "midi": 49,
            "name": "C#3",
            "ticks": 160320,
            "time": 151.81803,
            "velocity": 0.4566929133858268
          },
          {
            "duration": 0.1818179999999927,
            "durationTicks": 192,
            "midi": 45,
            "name": "A2",
            "ticks": 160800,
            "time": 152.272575,
            "velocity": 0.4566929133858268
          },
          {
            "duration": 0.3636359999999854,
            "durationTicks": 384,
            "midi": 46,
            "name": "A#2",
            "ticks": 161760,
            "time": 153.181665,
            "velocity": 0.4566929133858268
          },
          {
            "duration": 0.1818179999999927,
            "durationTicks": 192,
            "midi": 47,
            "name": "B2",
            "ticks": 162240,
            "time": 153.63621,
            "velocity": 0.4566929133858268
          },
          {
            "duration": 0.1818179999999927,
            "durationTicks": 192,
            "midi": 43,
            "name": "G2",
            "ticks": 162720,
            "time": 154.090755,
            "velocity": 0.4566929133858268
          },
          {
            "duration": 0.36363600000001384,
            "durationTicks": 384,
            "midi": 45,
            "name": "A2",
            "ticks": 163200,
            "time": 154.5453,
            "velocity": 0.4566929133858268
          },
          {
            "duration": 0.6818175000000224,
            "durationTicks": 720,
            "midi": 57,
            "name": "A3",
            "ticks": 163680,
            "time": 154.999845,
            "velocity": 0.6141732283464567
          },
          {
            "duration": 0.227272499999998,
            "durationTicks": 240,
            "midi": 56,
            "name": "G#3",
            "ticks": 164400,
            "time": 155.68166250000002,
            "velocity": 0.4566929133858268
          },
          {
            "duration": 0.227272499999998,
            "durationTicks": 240,
            "midi": 55,
            "name": "G3",
            "ticks": 164640,
            "time": 155.908935,
            "velocity": 0.4566929133858268
          },
          {
            "duration": 0.227272499999998,
            "durationTicks": 240,
            "midi": 52,
            "name": "E3",
            "ticks": 164880,
            "time": 156.1362075,
            "velocity": 0.4566929133858268
          },
          {
            "duration": 0.1818179999999927,
            "durationTicks": 192,
            "midi": 50,
            "name": "D3",
            "ticks": 165120,
            "time": 156.36348,
            "velocity": 0.4566929133858268
          },
          {
            "duration": 0.1818179999999927,
            "durationTicks": 192,
            "midi": 52,
            "name": "E3",
            "ticks": 165600,
            "time": 156.818025,
            "velocity": 0.4566929133858268
          },
          {
            "duration": 0.1818179999999927,
            "durationTicks": 192,
            "midi": 54,
            "name": "F#3",
            "ticks": 166080,
            "time": 157.27257,
            "velocity": 0.4566929133858268
          },
          {
            "duration": 0.1818179999999927,
            "durationTicks": 192,
            "midi": 51,
            "name": "D#3",
            "ticks": 166560,
            "time": 157.727115,
            "velocity": 0.4566929133858268
          },
          {
            "duration": 0.1818179999999927,
            "durationTicks": 192,
            "midi": 52,
            "name": "E3",
            "ticks": 167040,
            "time": 158.18166,
            "velocity": 0.4566929133858268
          },
          {
            "duration": 0.1818179999999927,
            "durationTicks": 192,
            "midi": 50,
            "name": "D3",
            "ticks": 167520,
            "time": 158.636205,
            "velocity": 0.4566929133858268
          },
          {
            "duration": 0.1818179999999927,
            "durationTicks": 192,
            "midi": 49,
            "name": "C#3",
            "ticks": 168000,
            "time": 159.09075,
            "velocity": 0.4566929133858268
          },
          {
            "duration": 0.1818179999999927,
            "durationTicks": 192,
            "midi": 45,
            "name": "A2",
            "ticks": 168480,
            "time": 159.545295,
            "velocity": 0.4566929133858268
          },
          {
            "duration": 0.1818179999999927,
            "durationTicks": 192,
            "midi": 47,
            "name": "B2",
            "ticks": 168960,
            "time": 159.99984,
            "velocity": 0.4566929133858268
          },
          {
            "duration": 0.1818179999999927,
            "durationTicks": 192,
            "midi": 55,
            "name": "G3",
            "ticks": 169440,
            "time": 160.454385,
            "velocity": 0.4566929133858268
          },
          {
            "duration": 0.1818179999999927,
            "durationTicks": 192,
            "midi": 57,
            "name": "A3",
            "ticks": 169920,
            "time": 160.90893,
            "velocity": 0.4566929133858268
          },
          {
            "duration": 0.1818179999999927,
            "durationTicks": 192,
            "midi": 45,
            "name": "A2",
            "ticks": 170400,
            "time": 161.363475,
            "velocity": 0.4566929133858268
          },
          {
            "duration": 0.36363600000001384,
            "durationTicks": 384,
            "midi": 50,
            "name": "D3",
            "ticks": 170880,
            "time": 161.81802,
            "velocity": 0.4566929133858268
          },
          {
            "duration": 0.36363600000001384,
            "durationTicks": 384,
            "midi": 45,
            "name": "A2",
            "ticks": 172800,
            "time": 163.6362,
            "velocity": 0.4566929133858268
          },
          {
            "duration": 0.3636359999999854,
            "durationTicks": 384,
            "midi": 50,
            "name": "D3",
            "ticks": 174720,
            "time": 165.45438000000001,
            "velocity": 0.4566929133858268
          },
          {
            "duration": 0.36363600000001384,
            "durationTicks": 384,
            "midi": 45,
            "name": "A2",
            "ticks": 176640,
            "time": 167.27256,
            "velocity": 0.4566929133858268
          },
          {
            "duration": 0.14772712499998875,
            "durationTicks": 156,
            "midi": 50,
            "name": "D3",
            "ticks": 178800,
            "time": 169.3180125,
            "velocity": 0.8267716535433071
          },
          {
            "duration": 0.14772712499998875,
            "durationTicks": 156,
            "midi": 54,
            "name": "F#3",
            "ticks": 179040,
            "time": 169.545285,
            "velocity": 0.8267716535433071
          },
          {
            "duration": 0.14772712499998875,
            "durationTicks": 156,
            "midi": 52,
            "name": "E3",
            "ticks": 179280,
            "time": 169.7725575,
            "velocity": 0.8267716535433071
          },
          {
            "duration": 0.14772712499998875,
            "durationTicks": 156,
            "midi": 51,
            "name": "D#3",
            "ticks": 179520,
            "time": 169.99983,
            "velocity": 0.8267716535433071
          },
          {
            "duration": 0.14772712499998875,
            "durationTicks": 156,
            "midi": 47,
            "name": "B2",
            "ticks": 179760,
            "time": 170.2271025,
            "velocity": 0.8267716535433071
          },
          {
            "duration": 0.14772712499998875,
            "durationTicks": 156,
            "midi": 49,
            "name": "C#3",
            "ticks": 180000,
            "time": 170.454375,
            "velocity": 0.8267716535433071
          },
          {
            "duration": 0.14772712499998875,
            "durationTicks": 156,
            "midi": 51,
            "name": "D#3",
            "ticks": 180240,
            "time": 170.6816475,
            "velocity": 0.8267716535433071
          },
          {
            "duration": 0.14772712500001717,
            "durationTicks": 156,
            "midi": 52,
            "name": "E3",
            "ticks": 180480,
            "time": 170.90892,
            "velocity": 0.8267716535433071
          },
          {
            "duration": 0.14772712500001717,
            "durationTicks": 156,
            "midi": 55,
            "name": "G3",
            "ticks": 180720,
            "time": 171.1361925,
            "velocity": 0.8267716535433071
          },
          {
            "duration": 0.14772712500001717,
            "durationTicks": 156,
            "midi": 52,
            "name": "E3",
            "ticks": 180960,
            "time": 171.363465,
            "velocity": 0.8267716535433071
          },
          {
            "duration": 0.14772712499998875,
            "durationTicks": 156,
            "midi": 50,
            "name": "D3",
            "ticks": 181200,
            "time": 171.59073750000002,
            "velocity": 0.8267716535433071
          },
          {
            "duration": 0.14772712499998875,
            "durationTicks": 156,
            "midi": 49,
            "name": "C#3",
            "ticks": 181440,
            "time": 171.81801000000002,
            "velocity": 0.8267716535433071
          },
          {
            "duration": 0.14772712499998875,
            "durationTicks": 156,
            "midi": 45,
            "name": "A2",
            "ticks": 181680,
            "time": 172.0452825,
            "velocity": 0.8267716535433071
          },
          {
            "duration": 0.14772712499998875,
            "durationTicks": 156,
            "midi": 47,
            "name": "B2",
            "ticks": 181920,
            "time": 172.272555,
            "velocity": 0.8267716535433071
          },
          {
            "duration": 0.14772712499998875,
            "durationTicks": 156,
            "midi": 49,
            "name": "C#3",
            "ticks": 182160,
            "time": 172.4998275,
            "velocity": 0.8267716535433071
          },
          {
            "duration": 0.14772712499998875,
            "durationTicks": 156,
            "midi": 50,
            "name": "D3",
            "ticks": 182400,
            "time": 172.7271,
            "velocity": 0.8267716535433071
          },
          {
            "duration": 0.14772712499998875,
            "durationTicks": 156,
            "midi": 50,
            "name": "D3",
            "ticks": 182640,
            "time": 172.9543725,
            "velocity": 0.8267716535433071
          },
          {
            "duration": 0.14772712499998875,
            "durationTicks": 156,
            "midi": 52,
            "name": "E3",
            "ticks": 182880,
            "time": 173.181645,
            "velocity": 0.8267716535433071
          },
          {
            "duration": 0.14772712499998875,
            "durationTicks": 156,
            "midi": 54,
            "name": "F#3",
            "ticks": 183120,
            "time": 173.4089175,
            "velocity": 0.8267716535433071
          },
          {
            "duration": 0.14772712499998875,
            "durationTicks": 156,
            "midi": 55,
            "name": "G3",
            "ticks": 183360,
            "time": 173.63619,
            "velocity": 0.8267716535433071
          },
          {
            "duration": 0.14772712499998875,
            "durationTicks": 156,
            "midi": 55,
            "name": "G3",
            "ticks": 183600,
            "time": 173.8634625,
            "velocity": 0.8267716535433071
          },
          {
            "duration": 0.14772712500001717,
            "durationTicks": 156,
            "midi": 55,
            "name": "G3",
            "ticks": 183840,
            "time": 174.090735,
            "velocity": 0.8267716535433071
          },
          {
            "duration": 0.14772712500001717,
            "durationTicks": 156,
            "midi": 55,
            "name": "G3",
            "ticks": 184080,
            "time": 174.3180075,
            "velocity": 0.8267716535433071
          },
          {
            "duration": 0.14772712500001717,
            "durationTicks": 156,
            "midi": 57,
            "name": "A3",
            "ticks": 184320,
            "time": 174.54528,
            "velocity": 0.8267716535433071
          },
          {
            "duration": 0.14772712499998875,
            "durationTicks": 156,
            "midi": 57,
            "name": "A3",
            "ticks": 184560,
            "time": 174.77255250000002,
            "velocity": 0.8267716535433071
          },
          {
            "duration": 0.14772712499998875,
            "durationTicks": 156,
            "midi": 57,
            "name": "A3",
            "ticks": 184800,
            "time": 174.99982500000002,
            "velocity": 0.8267716535433071
          },
          {
            "duration": 0.14772712499998875,
            "durationTicks": 156,
            "midi": 57,
            "name": "A3",
            "ticks": 185040,
            "time": 175.2270975,
            "velocity": 0.8267716535433071
          },
          {
            "duration": 0.14772712499998875,
            "durationTicks": 156,
            "midi": 45,
            "name": "A2",
            "ticks": 185280,
            "time": 175.45437,
            "velocity": 0.8267716535433071
          },
          {
            "duration": 0.14772712499998875,
            "durationTicks": 156,
            "midi": 45,
            "name": "A2",
            "ticks": 185520,
            "time": 175.6816425,
            "velocity": 0.8267716535433071
          },
          {
            "duration": 0.14772712499998875,
            "durationTicks": 156,
            "midi": 45,
            "name": "A2",
            "ticks": 185760,
            "time": 175.908915,
            "velocity": 0.8267716535433071
          },
          {
            "duration": 0.14772712499998875,
            "durationTicks": 156,
            "midi": 45,
            "name": "A2",
            "ticks": 186000,
            "time": 176.1361875,
            "velocity": 0.8267716535433071
          },
          {
            "duration": 0.36363600000001384,
            "durationTicks": 384,
            "midi": 50,
            "name": "D3",
            "ticks": 186240,
            "time": 176.36346,
            "velocity": 0.7244094488188977
          },
          {
            "duration": 0.3636359999999854,
            "durationTicks": 384,
            "midi": 45,
            "name": "A2",
            "ticks": 188160,
            "time": 178.18164000000002,
            "velocity": 0.4566929133858268
          },
          {
            "duration": 0.36363600000001384,
            "durationTicks": 384,
            "midi": 50,
            "name": "D3",
            "ticks": 190080,
            "time": 179.99982,
            "velocity": 0.4566929133858268
          },
          {
            "duration": 0.3636359999999854,
            "durationTicks": 384,
            "midi": 45,
            "name": "A2",
            "ticks": 192000,
            "time": 181.818,
            "velocity": 0.4566929133858268
          },
          {
            "duration": 0.14772712500001717,
            "durationTicks": 156,
            "midi": 50,
            "name": "D3",
            "ticks": 194160,
            "time": 183.8634525,
            "velocity": 0.8267716535433071
          },
          {
            "duration": 0.14772712500001717,
            "durationTicks": 156,
            "midi": 54,
            "name": "F#3",
            "ticks": 194400,
            "time": 184.090725,
            "velocity": 0.8267716535433071
          },
          {
            "duration": 0.14772712499998875,
            "durationTicks": 156,
            "midi": 52,
            "name": "E3",
            "ticks": 194640,
            "time": 184.31799750000002,
            "velocity": 0.8267716535433071
          },
          {
            "duration": 0.14772712499998875,
            "durationTicks": 156,
            "midi": 51,
            "name": "D#3",
            "ticks": 194880,
            "time": 184.54527000000002,
            "velocity": 0.8267716535433071
          },
          {
            "duration": 0.14772712499998875,
            "durationTicks": 156,
            "midi": 47,
            "name": "B2",
            "ticks": 195120,
            "time": 184.77254250000001,
            "velocity": 0.8267716535433071
          },
          {
            "duration": 0.14772712499998875,
            "durationTicks": 156,
            "midi": 49,
            "name": "C#3",
            "ticks": 195360,
            "time": 184.999815,
            "velocity": 0.8267716535433071
          },
          {
            "duration": 0.14772712499998875,
            "durationTicks": 156,
            "midi": 51,
            "name": "D#3",
            "ticks": 195600,
            "time": 185.2270875,
            "velocity": 0.8267716535433071
          },
          {
            "duration": 0.14772712499998875,
            "durationTicks": 156,
            "midi": 52,
            "name": "E3",
            "ticks": 195840,
            "time": 185.45436,
            "velocity": 0.8267716535433071
          },
          {
            "duration": 0.14772712499998875,
            "durationTicks": 156,
            "midi": 55,
            "name": "G3",
            "ticks": 196080,
            "time": 185.6816325,
            "velocity": 0.8267716535433071
          },
          {
            "duration": 0.14772712499998875,
            "durationTicks": 156,
            "midi": 52,
            "name": "E3",
            "ticks": 196320,
            "time": 185.908905,
            "velocity": 0.8267716535433071
          },
          {
            "duration": 0.14772712499998875,
            "durationTicks": 156,
            "midi": 50,
            "name": "D3",
            "ticks": 196560,
            "time": 186.1361775,
            "velocity": 0.8267716535433071
          },
          {
            "duration": 0.14772712499998875,
            "durationTicks": 156,
            "midi": 49,
            "name": "C#3",
            "ticks": 196800,
            "time": 186.36345,
            "velocity": 0.8267716535433071
          },
          {
            "duration": 0.14772712499998875,
            "durationTicks": 156,
            "midi": 45,
            "name": "A2",
            "ticks": 197040,
            "time": 186.5907225,
            "velocity": 0.8267716535433071
          },
          {
            "duration": 0.14772712500001717,
            "durationTicks": 156,
            "midi": 47,
            "name": "B2",
            "ticks": 197280,
            "time": 186.817995,
            "velocity": 0.8267716535433071
          },
          {
            "duration": 0.14772712500001717,
            "durationTicks": 156,
            "midi": 49,
            "name": "C#3",
            "ticks": 197520,
            "time": 187.0452675,
            "velocity": 0.8267716535433071
          },
          {
            "duration": 0.14772712500001717,
            "durationTicks": 156,
            "midi": 50,
            "name": "D3",
            "ticks": 197760,
            "time": 187.27254,
            "velocity": 0.8267716535433071
          },
          {
            "duration": 0.14772712499998875,
            "durationTicks": 156,
            "midi": 50,
            "name": "D3",
            "ticks": 198000,
            "time": 187.49981250000002,
            "velocity": 0.8267716535433071
          },
          {
            "duration": 0.14772712499998875,
            "durationTicks": 156,
            "midi": 52,
            "name": "E3",
            "ticks": 198240,
            "time": 187.72708500000002,
            "velocity": 0.8267716535433071
          },
          {
            "duration": 0.14772712499998875,
            "durationTicks": 156,
            "midi": 54,
            "name": "F#3",
            "ticks": 198480,
            "time": 187.95435750000001,
            "velocity": 0.8267716535433071
          },
          {
            "duration": 0.14772712499998875,
            "durationTicks": 156,
            "midi": 55,
            "name": "G3",
            "ticks": 198720,
            "time": 188.18163,
            "velocity": 0.8267716535433071
          },
          {
            "duration": 0.14772712499998875,
            "durationTicks": 156,
            "midi": 55,
            "name": "G3",
            "ticks": 198960,
            "time": 188.4089025,
            "velocity": 0.8267716535433071
          },
          {
            "duration": 0.14772712499998875,
            "durationTicks": 156,
            "midi": 55,
            "name": "G3",
            "ticks": 199200,
            "time": 188.636175,
            "velocity": 0.8267716535433071
          },
          {
            "duration": 0.14772712499998875,
            "durationTicks": 156,
            "midi": 55,
            "name": "G3",
            "ticks": 199440,
            "time": 188.8634475,
            "velocity": 0.8267716535433071
          },
          {
            "duration": 0.14772712499998875,
            "durationTicks": 156,
            "midi": 57,
            "name": "A3",
            "ticks": 199680,
            "time": 189.09072,
            "velocity": 0.8267716535433071
          },
          {
            "duration": 0.14772712499998875,
            "durationTicks": 156,
            "midi": 57,
            "name": "A3",
            "ticks": 199920,
            "time": 189.3179925,
            "velocity": 0.8267716535433071
          },
          {
            "duration": 0.14772712499998875,
            "durationTicks": 156,
            "midi": 57,
            "name": "A3",
            "ticks": 200160,
            "time": 189.545265,
            "velocity": 0.8267716535433071
          },
          {
            "duration": 0.14772712499998875,
            "durationTicks": 156,
            "midi": 57,
            "name": "A3",
            "ticks": 200400,
            "time": 189.7725375,
            "velocity": 0.8267716535433071
          },
          {
            "duration": 0.14772712500001717,
            "durationTicks": 156,
            "midi": 45,
            "name": "A2",
            "ticks": 200640,
            "time": 189.99981,
            "velocity": 0.8267716535433071
          },
          {
            "duration": 0.14772712500001717,
            "durationTicks": 156,
            "midi": 45,
            "name": "A2",
            "ticks": 200880,
            "time": 190.2270825,
            "velocity": 0.8267716535433071
          },
          {
            "duration": 0.14772712500001717,
            "durationTicks": 156,
            "midi": 45,
            "name": "A2",
            "ticks": 201120,
            "time": 190.454355,
            "velocity": 0.8267716535433071
          },
          {
            "duration": 0.14772712499998875,
            "durationTicks": 156,
            "midi": 45,
            "name": "A2",
            "ticks": 201360,
            "time": 190.68162750000002,
            "velocity": 0.8267716535433071
          },
          {
            "duration": 0.14772712499998875,
            "durationTicks": 156,
            "midi": 50,
            "name": "D3",
            "ticks": 201600,
            "time": 190.90890000000002,
            "velocity": 0.8267716535433071
          },
          {
            "duration": 0.14772712499998875,
            "durationTicks": 156,
            "midi": 45,
            "name": "A2",
            "ticks": 201840,
            "time": 191.13617250000001,
            "velocity": 0.8267716535433071
          },
          {
            "duration": 0.14772712499998875,
            "durationTicks": 156,
            "midi": 47,
            "name": "B2",
            "ticks": 202080,
            "time": 191.363445,
            "velocity": 0.8267716535433071
          },
          {
            "duration": 0.14772712499998875,
            "durationTicks": 156,
            "midi": 49,
            "name": "C#3",
            "ticks": 202320,
            "time": 191.5907175,
            "velocity": 0.8267716535433071
          },
          {
            "duration": 0.14772712499998875,
            "durationTicks": 156,
            "midi": 50,
            "name": "D3",
            "ticks": 202560,
            "time": 191.81799,
            "velocity": 0.8267716535433071
          },
          {
            "duration": 0.14772712499998875,
            "durationTicks": 156,
            "midi": 50,
            "name": "D3",
            "ticks": 202800,
            "time": 192.0452625,
            "velocity": 0.8267716535433071
          },
          {
            "duration": 0.14772712499998875,
            "durationTicks": 156,
            "midi": 52,
            "name": "E3",
            "ticks": 203040,
            "time": 192.272535,
            "velocity": 0.8267716535433071
          },
          {
            "duration": 0.14772712499998875,
            "durationTicks": 156,
            "midi": 52,
            "name": "E3",
            "ticks": 203280,
            "time": 192.4998075,
            "velocity": 0.8267716535433071
          },
          {
            "duration": 0.14772712499998875,
            "durationTicks": 156,
            "midi": 54,
            "name": "F#3",
            "ticks": 203520,
            "time": 192.72708,
            "velocity": 0.8267716535433071
          },
          {
            "duration": 0.14772712499998875,
            "durationTicks": 156,
            "midi": 49,
            "name": "C#3",
            "ticks": 203760,
            "time": 192.9543525,
            "velocity": 0.8267716535433071
          },
          {
            "duration": 0.14772712500001717,
            "durationTicks": 156,
            "midi": 50,
            "name": "D3",
            "ticks": 204000,
            "time": 193.181625,
            "velocity": 0.8267716535433071
          },
          {
            "duration": 0.14772712500001717,
            "durationTicks": 156,
            "midi": 52,
            "name": "E3",
            "ticks": 204240,
            "time": 193.4088975,
            "velocity": 0.8267716535433071
          },
          {
            "duration": 0.14772712500001717,
            "durationTicks": 156,
            "midi": 54,
            "name": "F#3",
            "ticks": 204480,
            "time": 193.63617,
            "velocity": 0.8267716535433071
          },
          {
            "duration": 0.14772712499998875,
            "durationTicks": 156,
            "midi": 54,
            "name": "F#3",
            "ticks": 204720,
            "time": 193.86344250000002,
            "velocity": 0.8267716535433071
          },
          {
            "duration": 0.14772712499998875,
            "durationTicks": 156,
            "midi": 55,
            "name": "G3",
            "ticks": 204960,
            "time": 194.09071500000002,
            "velocity": 0.8267716535433071
          },
          {
            "duration": 0.14772712499998875,
            "durationTicks": 156,
            "midi": 55,
            "name": "G3",
            "ticks": 205200,
            "time": 194.31798750000002,
            "velocity": 0.8267716535433071
          },
          {
            "duration": 0.14772712499998875,
            "durationTicks": 156,
            "midi": 57,
            "name": "A3",
            "ticks": 205440,
            "time": 194.54526,
            "velocity": 0.8267716535433071
          },
          {
            "duration": 0.14772712499998875,
            "durationTicks": 156,
            "midi": 57,
            "name": "A3",
            "ticks": 205680,
            "time": 194.7725325,
            "velocity": 0.8267716535433071
          },
          {
            "duration": 0.14772712499998875,
            "durationTicks": 156,
            "midi": 58,
            "name": "A#3",
            "ticks": 205920,
            "time": 194.999805,
            "velocity": 0.8267716535433071
          },
          {
            "duration": 0.14772712499998875,
            "durationTicks": 156,
            "midi": 58,
            "name": "A#3",
            "ticks": 206160,
            "time": 195.2270775,
            "velocity": 0.8267716535433071
          },
          {
            "duration": 0.36363600000001384,
            "durationTicks": 384,
            "midi": 59,
            "name": "B3",
            "ticks": 206400,
            "time": 195.45435,
            "velocity": 0.7244094488188977
          },
          {
            "duration": 0.9090900000000204,
            "durationTicks": 960,
            "midi": 55,
            "name": "G3",
            "ticks": 207360,
            "time": 196.36344,
            "velocity": 0.4566929133858268
          },
          {
            "duration": 0.8636354999999867,
            "durationTicks": 912,
            "midi": 57,
            "name": "A3",
            "ticks": 208320,
            "time": 197.27253000000002,
            "velocity": 0.4566929133858268
          },
          {
            "duration": 0.1818179999999927,
            "durationTicks": 192,
            "midi": 50,
            "name": "D3",
            "ticks": 209280,
            "time": 198.18162,
            "velocity": 0.4566929133858268
          },
          {
            "duration": 0.1818179999999927,
            "durationTicks": 192,
            "midi": 50,
            "name": "D3",
            "ticks": 209760,
            "time": 198.636165,
            "velocity": 0.4566929133858268
          },
          {
            "duration": 0.1818179999999927,
            "durationTicks": 192,
            "midi": 50,
            "name": "D3",
            "ticks": 210240,
            "time": 199.09071,
            "velocity": 0.4566929133858268
          },
          {
            "duration": 0.36363600000001384,
            "durationTicks": 384,
            "midi": 50,
            "name": "D3",
            "ticks": 211200,
            "time": 199.9998,
            "velocity": 0.4566929133858268
          },
          {
            "duration": 0.13636349999998743,
            "durationTicks": 144,
            "midi": 45,
            "name": "A2",
            "ticks": 211920,
            "time": 200.68161750000002,
            "velocity": 0.8267716535433071
          },
          {
            "duration": 0.3636359999999854,
            "durationTicks": 384,
            "midi": 50,
            "name": "D3",
            "ticks": 212160,
            "time": 200.90889,
            "velocity": 0.8267716535433071
          },
          {
            "duration": 0.13636350000001585,
            "durationTicks": 144,
            "midi": 45,
            "name": "A2",
            "ticks": 212880,
            "time": 201.5907075,
            "velocity": 0.8267716535433071
          },
          {
            "duration": 0.14772712499998875,
            "durationTicks": 156,
            "midi": 50,
            "name": "D3",
            "ticks": 213120,
            "time": 201.81798,
            "velocity": 0.8267716535433071
          },
          {
            "duration": 0.14772712499998875,
            "durationTicks": 156,
            "midi": 45,
            "name": "A2",
            "ticks": 213360,
            "time": 202.0452525,
            "velocity": 0.8267716535433071
          },
          {
            "duration": 0.14772712499998875,
            "durationTicks": 156,
            "midi": 50,
            "name": "D3",
            "ticks": 213600,
            "time": 202.272525,
            "velocity": 0.8267716535433071
          },
          {
            "duration": 0.14772712499998875,
            "durationTicks": 156,
            "midi": 54,
            "name": "F#3",
            "ticks": 213840,
            "time": 202.4997975,
            "velocity": 0.8267716535433071
          },
          {
            "duration": 0.36363600000001384,
            "durationTicks": 384,
            "midi": 57,
            "name": "A3",
            "ticks": 214080,
            "time": 202.72707,
            "velocity": 0.8267716535433071
          },
          {
            "duration": 0.3636359999999854,
            "durationTicks": 384,
            "midi": 57,
            "name": "A3",
            "ticks": 215040,
            "time": 203.63616000000002,
            "velocity": 0.8267716535433071
          },
          {
            "duration": 0.13636349999998743,
            "durationTicks": 144,
            "midi": 54,
            "name": "F#3",
            "ticks": 215760,
            "time": 204.3179775,
            "velocity": 0.8267716535433071
          },
          {
            "duration": 0.36363600000001384,
            "durationTicks": 384,
            "midi": 57,
            "name": "A3",
            "ticks": 216000,
            "time": 204.54525,
            "velocity": 0.8267716535433071
          },
          {
            "duration": 0.13636350000001585,
            "durationTicks": 144,
            "midi": 54,
            "name": "F#3",
            "ticks": 216720,
            "time": 205.2270675,
            "velocity": 0.8267716535433071
          },
          {
            "duration": 0.14772712499998875,
            "durationTicks": 156,
            "midi": 57,
            "name": "A3",
            "ticks": 216960,
            "time": 205.45434,
            "velocity": 0.8267716535433071
          },
          {
            "duration": 0.14772712499998875,
            "durationTicks": 156,
            "midi": 54,
            "name": "F#3",
            "ticks": 217200,
            "time": 205.6816125,
            "velocity": 0.8267716535433071
          },
          {
            "duration": 0.14772712500001717,
            "durationTicks": 156,
            "midi": 51,
            "name": "D#3",
            "ticks": 217440,
            "time": 205.908885,
            "velocity": 0.8267716535433071
          },
          {
            "duration": 0.14772712500001717,
            "durationTicks": 156,
            "midi": 54,
            "name": "F#3",
            "ticks": 217680,
            "time": 206.1361575,
            "velocity": 0.8267716535433071
          },
          {
            "duration": 0.36363600000001384,
            "durationTicks": 384,
            "midi": 47,
            "name": "B2",
            "ticks": 217920,
            "time": 206.36343,
            "velocity": 0.8267716535433071
          },
          {
            "duration": 0.3636359999999854,
            "durationTicks": 384,
            "midi": 48,
            "name": "C3",
            "ticks": 218880,
            "time": 207.27252000000001,
            "velocity": 0.4566929133858268
          },
          {
            "duration": 0.36363600000001384,
            "durationTicks": 384,
            "midi": 43,
            "name": "G2",
            "ticks": 220800,
            "time": 209.0907,
            "velocity": 0.4566929133858268
          },
          {
            "duration": 0.36363600000001384,
            "durationTicks": 384,
            "midi": 48,
            "name": "C3",
            "ticks": 222720,
            "time": 210.90888,
            "velocity": 0.4566929133858268
          },
          {
            "duration": 0.36363600000001384,
            "durationTicks": 384,
            "midi": 43,
            "name": "G2",
            "ticks": 224640,
            "time": 212.72706,
            "velocity": 0.4566929133858268
          },
          {
            "duration": 0.36363600000001384,
            "durationTicks": 384,
            "midi": 48,
            "name": "C3",
            "ticks": 226560,
            "time": 214.54524,
            "velocity": 0.4566929133858268
          },
          {
            "duration": 0.3636359999999854,
            "durationTicks": 384,
            "midi": 52,
            "name": "E3",
            "ticks": 228480,
            "time": 216.36342000000002,
            "velocity": 0.4566929133858268
          },
          {
            "duration": 0.36363600000001384,
            "durationTicks": 384,
            "midi": 45,
            "name": "A2",
            "ticks": 230400,
            "time": 218.1816,
            "velocity": 0.4566929133858268
          },
          {
            "duration": 0.3636359999999854,
            "durationTicks": 384,
            "midi": 50,
            "name": "D3",
            "ticks": 232320,
            "time": 219.99978000000002,
            "velocity": 0.4566929133858268
          },
          {
            "duration": 3.564390374999988,
            "durationTicks": 3764,
            "midi": 51,
            "name": "D#3",
            "ticks": 234240,
            "time": 221.81796,
            "velocity": 0.4566929133858268
          },
          {
            "duration": 0.36363600000001384,
            "durationTicks": 384,
            "midi": 50,
            "name": "D3",
            "ticks": 238080,
            "time": 225.45432,
            "velocity": 0.4566929133858268
          },
          {
            "duration": 0.227272499999998,
            "durationTicks": 240,
            "midi": 50,
            "name": "D3",
            "ticks": 238800,
            "time": 226.13613750000002,
            "velocity": 0.8267716535433071
          },
          {
            "duration": 0.227272499999998,
            "durationTicks": 240,
            "midi": 52,
            "name": "E3",
            "ticks": 239040,
            "time": 226.36341000000002,
            "velocity": 0.8267716535433071
          },
          {
            "duration": 0.227272499999998,
            "durationTicks": 240,
            "midi": 54,
            "name": "F#3",
            "ticks": 239280,
            "time": 226.5906825,
            "velocity": 0.8267716535433071
          },
          {
            "duration": 0.227272499999998,
            "durationTicks": 240,
            "midi": 55,
            "name": "G3",
            "ticks": 239520,
            "time": 226.817955,
            "velocity": 0.8267716535433071
          },
          {
            "duration": 0.227272499999998,
            "durationTicks": 240,
            "midi": 57,
            "name": "A3",
            "ticks": 239760,
            "time": 227.0452275,
            "velocity": 0.8267716535433071
          },
          {
            "duration": 0.227272499999998,
            "durationTicks": 240,
            "midi": 60,
            "name": "C4",
            "ticks": 240000,
            "time": 227.2725,
            "velocity": 0.8267716535433071
          },
          {
            "duration": 0.227272499999998,
            "durationTicks": 240,
            "midi": 58,
            "name": "A#3",
            "ticks": 240240,
            "time": 227.4997725,
            "velocity": 0.8267716535433071
          },
          {
            "duration": 0.227272499999998,
            "durationTicks": 240,
            "midi": 54,
            "name": "F#3",
            "ticks": 240720,
            "time": 227.9543175,
            "velocity": 0.8267716535433071
          },
          {
            "duration": 0.227272499999998,
            "durationTicks": 240,
            "midi": 55,
            "name": "G3",
            "ticks": 240960,
            "time": 228.18159,
            "velocity": 0.8267716535433071
          },
          {
            "duration": 0.227272499999998,
            "durationTicks": 240,
            "midi": 57,
            "name": "A3",
            "ticks": 241200,
            "time": 228.4088625,
            "velocity": 0.8267716535433071
          },
          {
            "duration": 0.2272725000000264,
            "durationTicks": 240,
            "midi": 58,
            "name": "A#3",
            "ticks": 241440,
            "time": 228.636135,
            "velocity": 0.8267716535433071
          },
          {
            "duration": 0.227272499999998,
            "durationTicks": 240,
            "midi": 61,
            "name": "C#4",
            "ticks": 241680,
            "time": 228.86340750000002,
            "velocity": 0.8267716535433071
          },
          {
            "duration": 0.227272499999998,
            "durationTicks": 240,
            "midi": 64,
            "name": "E4",
            "ticks": 241920,
            "time": 229.09068000000002,
            "velocity": 0.8267716535433071
          },
          {
            "duration": 0.1818179999999927,
            "durationTicks": 192,
            "midi": 62,
            "name": "D4",
            "ticks": 242160,
            "time": 229.31795250000002,
            "velocity": 0.8267716535433071
          },
          {
            "duration": 1.7272709999999734,
            "durationTicks": 1824,
            "midi": 50,
            "name": "D3",
            "ticks": 247680,
            "time": 234.54522,
            "velocity": 0.4566929133858268
          },
          {
            "duration": 0.3636359999999854,
            "durationTicks": 384,
            "midi": 55,
            "name": "G3",
            "ticks": 249600,
            "time": 236.3634,
            "velocity": 0.984251968503937
          },
          {
            "duration": 0.13636349999998743,
            "durationTicks": 144,
            "midi": 50,
            "name": "D3",
            "ticks": 250320,
            "time": 237.0452175,
            "velocity": 0.8267716535433071
          },
          {
            "duration": 0.3636359999999854,
            "durationTicks": 384,
            "midi": 55,
            "name": "G3",
            "ticks": 250560,
            "time": 237.27249,
            "velocity": 0.8267716535433071
          },
          {
            "duration": 0.13636349999998743,
            "durationTicks": 144,
            "midi": 50,
            "name": "D3",
            "ticks": 251280,
            "time": 237.9543075,
            "velocity": 0.8267716535433071
          },
          {
            "duration": 0.13636349999998743,
            "durationTicks": 144,
            "midi": 55,
            "name": "G3",
            "ticks": 251520,
            "time": 238.18158,
            "velocity": 0.8267716535433071
          },
          {
            "duration": 0.13636349999998743,
            "durationTicks": 144,
            "midi": 50,
            "name": "D3",
            "ticks": 251760,
            "time": 238.4088525,
            "velocity": 0.8267716535433071
          },
          {
            "duration": 0.136363499999959,
            "durationTicks": 144,
            "midi": 55,
            "name": "G3",
            "ticks": 252000,
            "time": 238.63612500000002,
            "velocity": 0.8267716535433071
          },
          {
            "duration": 0.136363499999959,
            "durationTicks": 144,
            "midi": 59,
            "name": "B3",
            "ticks": 252240,
            "time": 238.86339750000002,
            "velocity": 0.8267716535433071
          },
          {
            "duration": 0.363635999999957,
            "durationTicks": 384,
            "midi": 62,
            "name": "D4",
            "ticks": 252480,
            "time": 239.09067000000002,
            "velocity": 0.8267716535433071
          },
          {
            "duration": 0.3636359999999854,
            "durationTicks": 384,
            "midi": 60,
            "name": "C4",
            "ticks": 253440,
            "time": 239.99976,
            "velocity": 0.8267716535433071
          },
          {
            "duration": 0.13636349999998743,
            "durationTicks": 144,
            "midi": 57,
            "name": "A3",
            "ticks": 254160,
            "time": 240.6815775,
            "velocity": 0.8267716535433071
          },
          {
            "duration": 0.3636359999999854,
            "durationTicks": 384,
            "midi": 60,
            "name": "C4",
            "ticks": 254400,
            "time": 240.90885,
            "velocity": 0.8267716535433071
          },
          {
            "duration": 0.13636349999998743,
            "durationTicks": 144,
            "midi": 57,
            "name": "A3",
            "ticks": 255120,
            "time": 241.5906675,
            "velocity": 0.8267716535433071
          },
          {
            "duration": 0.136363499999959,
            "durationTicks": 144,
            "midi": 60,
            "name": "C4",
            "ticks": 255360,
            "time": 241.81794000000002,
            "velocity": 0.8267716535433071
          },
          {
            "duration": 0.136363499999959,
            "durationTicks": 144,
            "midi": 57,
            "name": "A3",
            "ticks": 255600,
            "time": 242.04521250000002,
            "velocity": 0.8267716535433071
          },
          {
            "duration": 0.136363499999959,
            "durationTicks": 144,
            "midi": 54,
            "name": "F#3",
            "ticks": 255840,
            "time": 242.27248500000002,
            "velocity": 0.8267716535433071
          },
          {
            "duration": 0.136363499999959,
            "durationTicks": 144,
            "midi": 57,
            "name": "A3",
            "ticks": 256080,
            "time": 242.49975750000002,
            "velocity": 0.8267716535433071
          },
          {
            "duration": 0.3636359999999854,
            "durationTicks": 384,
            "midi": 50,
            "name": "D3",
            "ticks": 256320,
            "time": 242.72703,
            "velocity": 0.8267716535433071
          },
          {
            "duration": 0.14772712500001717,
            "durationTicks": 156,
            "midi": 55,
            "name": "G3",
            "ticks": 257280,
            "time": 243.63612,
            "velocity": 0.8267716535433071
          },
          {
            "duration": 0.14772712500001717,
            "durationTicks": 156,
            "midi": 55,
            "name": "G3",
            "ticks": 257520,
            "time": 243.8633925,
            "velocity": 0.8267716535433071
          },
          {
            "duration": 0.14772712500001717,
            "durationTicks": 156,
            "midi": 55,
            "name": "G3",
            "ticks": 257760,
            "time": 244.090665,
            "velocity": 0.8267716535433071
          },
          {
            "duration": 0.14772712500001717,
            "durationTicks": 156,
            "midi": 55,
            "name": "G3",
            "ticks": 258000,
            "time": 244.3179375,
            "velocity": 0.8267716535433071
          },
          {
            "duration": 0.1477271250000456,
            "durationTicks": 156,
            "midi": 55,
            "name": "G3",
            "ticks": 258240,
            "time": 244.54521,
            "velocity": 0.8267716535433071
          },
          {
            "duration": 0.1477271250000456,
            "durationTicks": 156,
            "midi": 55,
            "name": "G3",
            "ticks": 258480,
            "time": 244.7724825,
            "velocity": 0.8267716535433071
          },
          {
            "duration": 0.14772712500001717,
            "durationTicks": 156,
            "midi": 55,
            "name": "G3",
            "ticks": 258720,
            "time": 244.99975500000002,
            "velocity": 0.8267716535433071
          },
          {
            "duration": 0.14772712500001717,
            "durationTicks": 156,
            "midi": 55,
            "name": "G3",
            "ticks": 258960,
            "time": 245.22702750000002,
            "velocity": 0.8267716535433071
          },
          {
            "duration": 0.14772712500001717,
            "durationTicks": 156,
            "midi": 55,
            "name": "G3",
            "ticks": 259200,
            "time": 245.45430000000002,
            "velocity": 0.8267716535433071
          },
          {
            "duration": 0.14772712500001717,
            "durationTicks": 156,
            "midi": 55,
            "name": "G3",
            "ticks": 259440,
            "time": 245.68157250000002,
            "velocity": 0.8267716535433071
          },
          {
            "duration": 0.14772712500001717,
            "durationTicks": 156,
            "midi": 55,
            "name": "G3",
            "ticks": 259680,
            "time": 245.908845,
            "velocity": 0.8267716535433071
          },
          {
            "duration": 0.14772712500001717,
            "durationTicks": 156,
            "midi": 55,
            "name": "G3",
            "ticks": 259920,
            "time": 246.1361175,
            "velocity": 0.8267716535433071
          },
          {
            "duration": 0.14772712500001717,
            "durationTicks": 156,
            "midi": 55,
            "name": "G3",
            "ticks": 260160,
            "time": 246.36339,
            "velocity": 0.8267716535433071
          },
          {
            "duration": 0.14772712500001717,
            "durationTicks": 156,
            "midi": 55,
            "name": "G3",
            "ticks": 260400,
            "time": 246.5906625,
            "velocity": 0.8267716535433071
          },
          {
            "duration": 0.14772712500001717,
            "durationTicks": 156,
            "midi": 55,
            "name": "G3",
            "ticks": 260640,
            "time": 246.817935,
            "velocity": 0.8267716535433071
          },
          {
            "duration": 0.14772712500001717,
            "durationTicks": 156,
            "midi": 55,
            "name": "G3",
            "ticks": 260880,
            "time": 247.0452075,
            "velocity": 0.8267716535433071
          },
          {
            "duration": 0.14772712500001717,
            "durationTicks": 156,
            "midi": 55,
            "name": "G3",
            "ticks": 261120,
            "time": 247.27248,
            "velocity": 0.8267716535433071
          },
          {
            "duration": 0.14772712500001717,
            "durationTicks": 156,
            "midi": 55,
            "name": "G3",
            "ticks": 261360,
            "time": 247.4997525,
            "velocity": 0.8267716535433071
          },
          {
            "duration": 0.1477271250000456,
            "durationTicks": 156,
            "midi": 55,
            "name": "G3",
            "ticks": 261600,
            "time": 247.727025,
            "velocity": 0.8267716535433071
          },
          {
            "duration": 0.1477271250000456,
            "durationTicks": 156,
            "midi": 55,
            "name": "G3",
            "ticks": 261840,
            "time": 247.9542975,
            "velocity": 0.8267716535433071
          },
          {
            "duration": 0.14772712500001717,
            "durationTicks": 156,
            "midi": 55,
            "name": "G3",
            "ticks": 262080,
            "time": 248.18157000000002,
            "velocity": 0.8267716535433071
          },
          {
            "duration": 0.14772712500001717,
            "durationTicks": 156,
            "midi": 55,
            "name": "G3",
            "ticks": 262320,
            "time": 248.40884250000002,
            "velocity": 0.8267716535433071
          },
          {
            "duration": 0.14772712500001717,
            "durationTicks": 156,
            "midi": 55,
            "name": "G3",
            "ticks": 262560,
            "time": 248.63611500000002,
            "velocity": 0.8267716535433071
          },
          {
            "duration": 0.14772712500001717,
            "durationTicks": 156,
            "midi": 55,
            "name": "G3",
            "ticks": 262800,
            "time": 248.86338750000002,
            "velocity": 0.8267716535433071
          },
          {
            "duration": 0.14772712500001717,
            "durationTicks": 156,
            "midi": 55,
            "name": "G3",
            "ticks": 263040,
            "time": 249.09066,
            "velocity": 0.8267716535433071
          },
          {
            "duration": 0.14772712500001717,
            "durationTicks": 156,
            "midi": 55,
            "name": "G3",
            "ticks": 263280,
            "time": 249.3179325,
            "velocity": 0.8267716535433071
          },
          {
            "duration": 0.14772712500001717,
            "durationTicks": 156,
            "midi": 55,
            "name": "G3",
            "ticks": 263520,
            "time": 249.545205,
            "velocity": 0.8267716535433071
          },
          {
            "duration": 0.14772712500001717,
            "durationTicks": 156,
            "midi": 55,
            "name": "G3",
            "ticks": 263760,
            "time": 249.7724775,
            "velocity": 0.8267716535433071
          },
          {
            "duration": 0.14772712500001717,
            "durationTicks": 156,
            "midi": 55,
            "name": "G3",
            "ticks": 264000,
            "time": 249.99975,
            "velocity": 0.8267716535433071
          },
          {
            "duration": 0.14772712500001717,
            "durationTicks": 156,
            "midi": 55,
            "name": "G3",
            "ticks": 264240,
            "time": 250.2270225,
            "velocity": 0.8267716535433071
          },
          {
            "duration": 0.14772712500001717,
            "durationTicks": 156,
            "midi": 55,
            "name": "G3",
            "ticks": 264480,
            "time": 250.454295,
            "velocity": 0.8267716535433071
          },
          {
            "duration": 0.14772712500001717,
            "durationTicks": 156,
            "midi": 55,
            "name": "G3",
            "ticks": 264720,
            "time": 250.6815675,
            "velocity": 0.8267716535433071
          },
          {
            "duration": 0.1477271250000456,
            "durationTicks": 156,
            "midi": 55,
            "name": "G3",
            "ticks": 264960,
            "time": 250.90884,
            "velocity": 0.8267716535433071
          },
          {
            "duration": 0.1477271250000456,
            "durationTicks": 156,
            "midi": 55,
            "name": "G3",
            "ticks": 265200,
            "time": 251.1361125,
            "velocity": 0.8267716535433071
          },
          {
            "duration": 0.14772712500001717,
            "durationTicks": 156,
            "midi": 57,
            "name": "A3",
            "ticks": 265440,
            "time": 251.36338500000002,
            "velocity": 0.8267716535433071
          },
          {
            "duration": 0.14772712500001717,
            "durationTicks": 156,
            "midi": 57,
            "name": "A3",
            "ticks": 265680,
            "time": 251.59065750000002,
            "velocity": 0.8267716535433071
          },
          {
            "duration": 0.14772712500001717,
            "durationTicks": 156,
            "midi": 59,
            "name": "B3",
            "ticks": 265920,
            "time": 251.81793000000002,
            "velocity": 0.8267716535433071
          },
          {
            "duration": 0.14772712500001717,
            "durationTicks": 156,
            "midi": 59,
            "name": "B3",
            "ticks": 266160,
            "time": 252.04520250000002,
            "velocity": 0.8267716535433071
          },
          {
            "duration": 0.14772712500001717,
            "durationTicks": 156,
            "midi": 54,
            "name": "F#3",
            "ticks": 266400,
            "time": 252.27247500000001,
            "velocity": 0.8267716535433071
          },
          {
            "duration": 0.14772712500001717,
            "durationTicks": 156,
            "midi": 54,
            "name": "F#3",
            "ticks": 266640,
            "time": 252.4997475,
            "velocity": 0.8267716535433071
          },
          {
            "duration": 0.14772712500001717,
            "durationTicks": 156,
            "midi": 55,
            "name": "G3",
            "ticks": 266880,
            "time": 252.72702,
            "velocity": 0.8267716535433071
          },
          {
            "duration": 0.14772712500001717,
            "durationTicks": 156,
            "midi": 55,
            "name": "G3",
            "ticks": 267120,
            "time": 252.9542925,
            "velocity": 0.8267716535433071
          },
          {
            "duration": 0.14772712500001717,
            "durationTicks": 156,
            "midi": 57,
            "name": "A3",
            "ticks": 267360,
            "time": 253.181565,
            "velocity": 0.8267716535433071
          },
          {
            "duration": 0.14772712500001717,
            "durationTicks": 156,
            "midi": 57,
            "name": "A3",
            "ticks": 267600,
            "time": 253.4088375,
            "velocity": 0.8267716535433071
          },
          {
            "duration": 0.3636359999999854,
            "durationTicks": 384,
            "midi": 59,
            "name": "B3",
            "ticks": 267840,
            "time": 253.63611,
            "velocity": 0.7244094488188977
          },
          {
            "duration": 0.909089999999992,
            "durationTicks": 960,
            "midi": 50,
            "name": "D3",
            "ticks": 270720,
            "time": 256.36338,
            "velocity": 0.4566929133858268
          },
          {
            "duration": 0.7272720000000277,
            "durationTicks": 768,
            "midi": 52,
            "name": "E3",
            "ticks": 271680,
            "time": 257.27247,
            "velocity": 0.4566929133858268
          },
          {
            "duration": 0.29545425000003434,
            "durationTicks": 312,
            "midi": 48,
            "name": "C3",
            "ticks": 272640,
            "time": 258.18156,
            "velocity": 0.4566929133858268
          },
          {
            "duration": 0.29545425000003434,
            "durationTicks": 312,
            "midi": 48,
            "name": "C3",
            "ticks": 273120,
            "time": 258.636105,
            "velocity": 0.4566929133858268
          },
          {
            "duration": 0.29545425000003434,
            "durationTicks": 312,
            "midi": 50,
            "name": "D3",
            "ticks": 273600,
            "time": 259.09065,
            "velocity": 0.4566929133858268
          },
          {
            "duration": 0.2954542499999775,
            "durationTicks": 312,
            "midi": 50,
            "name": "D3",
            "ticks": 274080,
            "time": 259.54519500000004,
            "velocity": 0.4566929133858268
          },
          {
            "duration": 0.14772712500001717,
            "durationTicks": 156,
            "midi": 47,
            "name": "B2",
            "ticks": 274560,
            "time": 259.99974000000003,
            "velocity": 0.4566929133858268
          },
          {
            "duration": 0.14772712500001717,
            "durationTicks": 156,
            "midi": 50,
            "name": "D3",
            "ticks": 275040,
            "time": 260.454285,
            "velocity": 0.4566929133858268
          },
          {
            "duration": 0.2954542499999775,
            "durationTicks": 312,
            "midi": 55,
            "name": "G3",
            "ticks": 275520,
            "time": 260.90883,
            "velocity": 0.4566929133858268
          },
          {
            "duration": 0.909089999999992,
            "durationTicks": 960,
            "midi": 50,
            "name": "D3",
            "ticks": 278400,
            "time": 263.6361,
            "velocity": 0.4566929133858268
          },
          {
            "duration": 0.7272720000000277,
            "durationTicks": 768,
            "midi": 52,
            "name": "E3",
            "ticks": 279360,
            "time": 264.54519,
            "velocity": 0.4566929133858268
          },
          {
            "duration": 0.3636359999999854,
            "durationTicks": 384,
            "midi": 48,
            "name": "C3",
            "ticks": 280320,
            "time": 265.45428,
            "velocity": 0.4566929133858268
          },
          {
            "duration": 0.36363599999992857,
            "durationTicks": 384,
            "midi": 48,
            "name": "C3",
            "ticks": 280800,
            "time": 265.90882500000004,
            "velocity": 0.4566929133858268
          },
          {
            "duration": 0.3636359999999854,
            "durationTicks": 384,
            "midi": 50,
            "name": "D3",
            "ticks": 281280,
            "time": 266.36337000000003,
            "velocity": 0.4566929133858268
          },
          {
            "duration": 0.3636359999999854,
            "durationTicks": 384,
            "midi": 50,
            "name": "D3",
            "ticks": 281760,
            "time": 266.817915,
            "velocity": 0.4566929133858268
          },
          {
            "duration": 0.14772712500001717,
            "durationTicks": 156,
            "midi": 55,
            "name": "G3",
            "ticks": 282240,
            "time": 267.27246,
            "velocity": 0.6141732283464567
          },
          {
            "duration": 0.14772712500001717,
            "durationTicks": 156,
            "midi": 55,
            "name": "G3",
            "ticks": 282480,
            "time": 267.4997325,
            "velocity": 0.7244094488188977
          },
          {
            "duration": 0.14772712500001717,
            "durationTicks": 156,
            "midi": 55,
            "name": "G3",
            "ticks": 282720,
            "time": 267.727005,
            "velocity": 0.7244094488188977
          },
          {
            "duration": 0.14772712500001717,
            "durationTicks": 156,
            "midi": 55,
            "name": "G3",
            "ticks": 282960,
            "time": 267.9542775,
            "velocity": 0.7244094488188977
          },
          {
            "duration": 0.14772712500001717,
            "durationTicks": 156,
            "midi": 55,
            "name": "G3",
            "ticks": 283200,
            "time": 268.18155,
            "velocity": 0.4566929133858268
          },
          {
            "duration": 0.147727125000074,
            "durationTicks": 156,
            "midi": 55,
            "name": "G3",
            "ticks": 283440,
            "time": 268.4088225,
            "velocity": 0.4566929133858268
          },
          {
            "duration": 0.14772712500001717,
            "durationTicks": 156,
            "midi": 55,
            "name": "G3",
            "ticks": 283680,
            "time": 268.636095,
            "velocity": 0.4566929133858268
          },
          {
            "duration": 0.14772712500001717,
            "durationTicks": 156,
            "midi": 55,
            "name": "G3",
            "ticks": 283920,
            "time": 268.86336750000004,
            "velocity": 0.4566929133858268
          },
          {
            "duration": 0.14772712500001717,
            "durationTicks": 156,
            "midi": 55,
            "name": "G3",
            "ticks": 284160,
            "time": 269.09064,
            "velocity": 0.8818897637795275
          },
          {
            "duration": 0.14772712500001717,
            "durationTicks": 156,
            "midi": 55,
            "name": "G3",
            "ticks": 284400,
            "time": 269.31791250000003,
            "velocity": 0.7244094488188977
          },
          {
            "duration": 0.14772712500001717,
            "durationTicks": 156,
            "midi": 55,
            "name": "G3",
            "ticks": 284640,
            "time": 269.545185,
            "velocity": 0.7244094488188977
          },
          {
            "duration": 0.14772712500001717,
            "durationTicks": 156,
            "midi": 55,
            "name": "G3",
            "ticks": 284880,
            "time": 269.77245750000003,
            "velocity": 0.7244094488188977
          },
          {
            "duration": 0.14772712500001717,
            "durationTicks": 156,
            "midi": 55,
            "name": "G3",
            "ticks": 285120,
            "time": 269.99973,
            "velocity": 0.4566929133858268
          },
          {
            "duration": 0.14772712500001717,
            "durationTicks": 156,
            "midi": 55,
            "name": "G3",
            "ticks": 285360,
            "time": 270.2270025,
            "velocity": 0.4566929133858268
          },
          {
            "duration": 0.14772712500001717,
            "durationTicks": 156,
            "midi": 55,
            "name": "G3",
            "ticks": 285600,
            "time": 270.454275,
            "velocity": 0.4566929133858268
          },
          {
            "duration": 0.14772712500001717,
            "durationTicks": 156,
            "midi": 55,
            "name": "G3",
            "ticks": 285840,
            "time": 270.6815475,
            "velocity": 0.4566929133858268
          },
          {
            "duration": 0.14772712500001717,
            "durationTicks": 156,
            "midi": 55,
            "name": "G3",
            "ticks": 286080,
            "time": 270.90882,
            "velocity": 0.4566929133858268
          },
          {
            "duration": 0.14772712500001717,
            "durationTicks": 156,
            "midi": 55,
            "name": "G3",
            "ticks": 286320,
            "time": 271.1360925,
            "velocity": 0.4566929133858268
          },
          {
            "duration": 0.14772712500001717,
            "durationTicks": 156,
            "midi": 55,
            "name": "G3",
            "ticks": 286560,
            "time": 271.363365,
            "velocity": 0.5669291338582677
          },
          {
            "duration": 0.14772712500001717,
            "durationTicks": 156,
            "midi": 55,
            "name": "G3",
            "ticks": 286800,
            "time": 271.5906375,
            "velocity": 0.5669291338582677
          },
          {
            "duration": 0.147727125000074,
            "durationTicks": 156,
            "midi": 55,
            "name": "G3",
            "ticks": 287040,
            "time": 271.81791,
            "velocity": 0.5669291338582677
          },
          {
            "duration": 0.14772712500001717,
            "durationTicks": 156,
            "midi": 55,
            "name": "G3",
            "ticks": 287280,
            "time": 272.0451825,
            "velocity": 0.5669291338582677
          },
          {
            "duration": 0.14772712500001717,
            "durationTicks": 156,
            "midi": 55,
            "name": "G3",
            "ticks": 287520,
            "time": 272.27245500000004,
            "velocity": 0.6377952755905512
          },
          {
            "duration": 0.14772712500001717,
            "durationTicks": 156,
            "midi": 55,
            "name": "G3",
            "ticks": 287760,
            "time": 272.4997275,
            "velocity": 0.6377952755905512
          },
          {
            "duration": 0.14772712500001717,
            "durationTicks": 156,
            "midi": 55,
            "name": "G3",
            "ticks": 288000,
            "time": 272.72700000000003,
            "velocity": 0.6377952755905512
          },
          {
            "duration": 0.14772712500001717,
            "durationTicks": 156,
            "midi": 55,
            "name": "G3",
            "ticks": 288240,
            "time": 272.9542725,
            "velocity": 0.6377952755905512
          },
          {
            "duration": 0.14772712500001717,
            "durationTicks": 156,
            "midi": 54,
            "name": "F#3",
            "ticks": 288480,
            "time": 273.181545,
            "velocity": 0.7244094488188977
          },
          {
            "duration": 0.14772712500001717,
            "durationTicks": 156,
            "midi": 54,
            "name": "F#3",
            "ticks": 288720,
            "time": 273.4088175,
            "velocity": 0.7244094488188977
          },
          {
            "duration": 0.14772712500001717,
            "durationTicks": 156,
            "midi": 55,
            "name": "G3",
            "ticks": 288960,
            "time": 273.63609,
            "velocity": 0.7244094488188977
          },
          {
            "duration": 0.14772712500001717,
            "durationTicks": 156,
            "midi": 55,
            "name": "G3",
            "ticks": 289200,
            "time": 273.8633625,
            "velocity": 0.7244094488188977
          },
          {
            "duration": 0.14772712500001717,
            "durationTicks": 156,
            "midi": 52,
            "name": "E3",
            "ticks": 289440,
            "time": 274.090635,
            "velocity": 0.8267716535433071
          },
          {
            "duration": 0.14772712500001717,
            "durationTicks": 156,
            "midi": 52,
            "name": "E3",
            "ticks": 289680,
            "time": 274.3179075,
            "velocity": 0.8267716535433071
          },
          {
            "duration": 0.14772712500001717,
            "durationTicks": 156,
            "midi": 50,
            "name": "D3",
            "ticks": 289920,
            "time": 274.54518,
            "velocity": 0.8267716535433071
          },
          {
            "duration": 0.147727125000074,
            "durationTicks": 156,
            "midi": 50,
            "name": "D3",
            "ticks": 290160,
            "time": 274.7724525,
            "velocity": 0.8267716535433071
          },
          {
            "duration": 0.14772712500001717,
            "durationTicks": 156,
            "midi": 50,
            "name": "D3",
            "ticks": 290400,
            "time": 274.999725,
            "velocity": 0.8267716535433071
          },
          {
            "duration": 0.14772712500001717,
            "durationTicks": 156,
            "midi": 50,
            "name": "D3",
            "ticks": 290640,
            "time": 275.22699750000004,
            "velocity": 0.8267716535433071
          },
          {
            "duration": 0.14772712500001717,
            "durationTicks": 156,
            "midi": 50,
            "name": "D3",
            "ticks": 290880,
            "time": 275.45427,
            "velocity": 0.8267716535433071
          },
          {
            "duration": 0.14772712500001717,
            "durationTicks": 156,
            "midi": 50,
            "name": "D3",
            "ticks": 291120,
            "time": 275.68154250000003,
            "velocity": 0.8267716535433071
          },
          {
            "duration": 0.14772712500001717,
            "durationTicks": 156,
            "midi": 50,
            "name": "D3",
            "ticks": 291360,
            "time": 275.908815,
            "velocity": 0.8267716535433071
          },
          {
            "duration": 0.14772712500001717,
            "durationTicks": 156,
            "midi": 50,
            "name": "D3",
            "ticks": 291600,
            "time": 276.13608750000003,
            "velocity": 0.8267716535433071
          },
          {
            "duration": 0.14772712500001717,
            "durationTicks": 156,
            "midi": 50,
            "name": "D3",
            "ticks": 291840,
            "time": 276.36336,
            "velocity": 0.8267716535433071
          },
          {
            "duration": 0.14772712500001717,
            "durationTicks": 156,
            "midi": 50,
            "name": "D3",
            "ticks": 292080,
            "time": 276.5906325,
            "velocity": 0.8267716535433071
          },
          {
            "duration": 0.14772712500001717,
            "durationTicks": 156,
            "midi": 50,
            "name": "D3",
            "ticks": 292320,
            "time": 276.817905,
            "velocity": 0.8267716535433071
          },
          {
            "duration": 0.14772712500001717,
            "durationTicks": 156,
            "midi": 50,
            "name": "D3",
            "ticks": 292560,
            "time": 277.0451775,
            "velocity": 0.8267716535433071
          },
          {
            "duration": 0.14772712500001717,
            "durationTicks": 156,
            "midi": 50,
            "name": "D3",
            "ticks": 292800,
            "time": 277.27245,
            "velocity": 0.8267716535433071
          },
          {
            "duration": 0.14772712500001717,
            "durationTicks": 156,
            "midi": 50,
            "name": "D3",
            "ticks": 293040,
            "time": 277.4997225,
            "velocity": 0.8267716535433071
          },
          {
            "duration": 0.14772712500001717,
            "durationTicks": 156,
            "midi": 50,
            "name": "D3",
            "ticks": 293280,
            "time": 277.726995,
            "velocity": 0.8267716535433071
          },
          {
            "duration": 0.14772712500001717,
            "durationTicks": 156,
            "midi": 50,
            "name": "D3",
            "ticks": 293520,
            "time": 277.9542675,
            "velocity": 0.8267716535433071
          },
          {
            "duration": 0.147727125000074,
            "durationTicks": 156,
            "midi": 50,
            "name": "D3",
            "ticks": 293760,
            "time": 278.18154,
            "velocity": 0.8267716535433071
          },
          {
            "duration": 0.14772712500001717,
            "durationTicks": 156,
            "midi": 50,
            "name": "D3",
            "ticks": 294000,
            "time": 278.4088125,
            "velocity": 0.8267716535433071
          },
          {
            "duration": 0.14772712500001717,
            "durationTicks": 156,
            "midi": 50,
            "name": "D3",
            "ticks": 294240,
            "time": 278.63608500000004,
            "velocity": 0.8267716535433071
          },
          {
            "duration": 0.14772712500001717,
            "durationTicks": 156,
            "midi": 50,
            "name": "D3",
            "ticks": 294480,
            "time": 278.8633575,
            "velocity": 0.8267716535433071
          },
          {
            "duration": 0.14772712500001717,
            "durationTicks": 156,
            "midi": 50,
            "name": "D3",
            "ticks": 294720,
            "time": 279.09063000000003,
            "velocity": 0.8267716535433071
          },
          {
            "duration": 0.14772712500001717,
            "durationTicks": 156,
            "midi": 50,
            "name": "D3",
            "ticks": 294960,
            "time": 279.3179025,
            "velocity": 0.8267716535433071
          },
          {
            "duration": 0.14772712500001717,
            "durationTicks": 156,
            "midi": 50,
            "name": "D3",
            "ticks": 295200,
            "time": 279.54517500000003,
            "velocity": 0.8267716535433071
          },
          {
            "duration": 0.14772712500001717,
            "durationTicks": 156,
            "midi": 50,
            "name": "D3",
            "ticks": 295440,
            "time": 279.7724475,
            "velocity": 0.8267716535433071
          },
          {
            "duration": 0.14772712500001717,
            "durationTicks": 156,
            "midi": 50,
            "name": "D3",
            "ticks": 295680,
            "time": 279.99972,
            "velocity": 0.8267716535433071
          },
          {
            "duration": 0.14772712500001717,
            "durationTicks": 156,
            "midi": 50,
            "name": "D3",
            "ticks": 295920,
            "time": 280.2269925,
            "velocity": 0.8267716535433071
          },
          {
            "duration": 0.14772712500001717,
            "durationTicks": 156,
            "midi": 50,
            "name": "D3",
            "ticks": 296160,
            "time": 280.454265,
            "velocity": 0.8267716535433071
          },
          {
            "duration": 0.14772712500001717,
            "durationTicks": 156,
            "midi": 50,
            "name": "D3",
            "ticks": 296400,
            "time": 280.6815375,
            "velocity": 0.8267716535433071
          },
          {
            "duration": 0.3636359999999854,
            "durationTicks": 384,
            "midi": 50,
            "name": "D3",
            "ticks": 296640,
            "time": 280.90881,
            "velocity": 0.7244094488188977
          },
          {
            "duration": 0.18181800000002113,
            "durationTicks": 192,
            "midi": 56,
            "name": "G#3",
            "ticks": 299040,
            "time": 283.181535,
            "velocity": 0.4566929133858268
          },
          {
            "duration": 0.18181800000002113,
            "durationTicks": 192,
            "midi": 57,
            "name": "A3",
            "ticks": 299520,
            "time": 283.63608,
            "velocity": 0.4566929133858268
          },
          {
            "duration": 0.18181800000002113,
            "durationTicks": 192,
            "midi": 55,
            "name": "G3",
            "ticks": 300000,
            "time": 284.090625,
            "velocity": 0.4566929133858268
          },
          {
            "duration": 0.18181800000002113,
            "durationTicks": 192,
            "midi": 54,
            "name": "F#3",
            "ticks": 300480,
            "time": 284.54517,
            "velocity": 0.4566929133858268
          },
          {
            "duration": 0.18181799999996429,
            "durationTicks": 192,
            "midi": 50,
            "name": "D3",
            "ticks": 300960,
            "time": 284.99971500000004,
            "velocity": 0.4566929133858268
          },
          {
            "duration": 0.454544999999996,
            "durationTicks": 480,
            "midi": 51,
            "name": "D#3",
            "ticks": 301920,
            "time": 285.90880500000003,
            "velocity": 0.4566929133858268
          },
          {
            "duration": 0.18181799999996429,
            "durationTicks": 192,
            "midi": 52,
            "name": "E3",
            "ticks": 302400,
            "time": 286.36335,
            "velocity": 0.4566929133858268
          },
          {
            "duration": 0.18181799999996429,
            "durationTicks": 192,
            "midi": 48,
            "name": "C3",
            "ticks": 302880,
            "time": 286.817895,
            "velocity": 0.4566929133858268
          },
          {
            "duration": 0.3409087499999828,
            "durationTicks": 360,
            "midi": 50,
            "name": "D3",
            "ticks": 303360,
            "time": 287.27244,
            "velocity": 0.4566929133858268
          },
          {
            "duration": 0.6818175000000224,
            "durationTicks": 720,
            "midi": 62,
            "name": "D4",
            "ticks": 303840,
            "time": 287.726985,
            "velocity": 0.6141732283464567
          },
          {
            "duration": 0.22727249999996957,
            "durationTicks": 240,
            "midi": 61,
            "name": "C#4",
            "ticks": 304560,
            "time": 288.40880250000004,
            "velocity": 0.4566929133858268
          },
          {
            "duration": 0.2272725000000264,
            "durationTicks": 240,
            "midi": 60,
            "name": "C4",
            "ticks": 304800,
            "time": 288.636075,
            "velocity": 0.4566929133858268
          },
          {
            "duration": 0.22727249999996957,
            "durationTicks": 240,
            "midi": 57,
            "name": "A3",
            "ticks": 305040,
            "time": 288.86334750000003,
            "velocity": 0.4566929133858268
          },
          {
            "duration": 0.18181800000002113,
            "durationTicks": 192,
            "midi": 55,
            "name": "G3",
            "ticks": 305280,
            "time": 289.09062,
            "velocity": 0.4566929133858268
          },
          {
            "duration": 0.18181800000002113,
            "durationTicks": 192,
            "midi": 57,
            "name": "A3",
            "ticks": 305760,
            "time": 289.545165,
            "velocity": 0.4566929133858268
          },
          {
            "duration": 0.18181800000002113,
            "durationTicks": 192,
            "midi": 59,
            "name": "B3",
            "ticks": 306240,
            "time": 289.99971,
            "velocity": 0.4566929133858268
          },
          {
            "duration": 0.18181800000002113,
            "durationTicks": 192,
            "midi": 56,
            "name": "G#3",
            "ticks": 306720,
            "time": 290.454255,
            "velocity": 0.4566929133858268
          },
          {
            "duration": 0.18181800000002113,
            "durationTicks": 192,
            "midi": 57,
            "name": "A3",
            "ticks": 307200,
            "time": 290.9088,
            "velocity": 0.4566929133858268
          },
          {
            "duration": 0.18181799999996429,
            "durationTicks": 192,
            "midi": 55,
            "name": "G3",
            "ticks": 307680,
            "time": 291.36334500000004,
            "velocity": 0.4566929133858268
          },
          {
            "duration": 0.18181799999996429,
            "durationTicks": 192,
            "midi": 54,
            "name": "F#3",
            "ticks": 308160,
            "time": 291.81789000000003,
            "velocity": 0.4566929133858268
          },
          {
            "duration": 0.18181799999996429,
            "durationTicks": 192,
            "midi": 50,
            "name": "D3",
            "ticks": 308640,
            "time": 292.27243500000003,
            "velocity": 0.4566929133858268
          },
          {
            "duration": 0.18181799999996429,
            "durationTicks": 192,
            "midi": 52,
            "name": "E3",
            "ticks": 309120,
            "time": 292.72698,
            "velocity": 0.4566929133858268
          },
          {
            "duration": 0.18181799999996429,
            "durationTicks": 192,
            "midi": 48,
            "name": "C3",
            "ticks": 309600,
            "time": 293.181525,
            "velocity": 0.4566929133858268
          },
          {
            "duration": 0.18181799999996429,
            "durationTicks": 192,
            "midi": 50,
            "name": "D3",
            "ticks": 310080,
            "time": 293.63607,
            "velocity": 0.4566929133858268
          },
          {
            "duration": 0.18181799999996429,
            "durationTicks": 192,
            "midi": 50,
            "name": "D3",
            "ticks": 310560,
            "time": 294.090615,
            "velocity": 0.4566929133858268
          },
          {
            "duration": 0.3636359999999854,
            "durationTicks": 384,
            "midi": 43,
            "name": "G2",
            "ticks": 311040,
            "time": 294.54516,
            "velocity": 0.4566929133858268
          },
          {
            "duration": 0.3636359999999854,
            "durationTicks": 384,
            "midi": 50,
            "name": "D3",
            "ticks": 312960,
            "time": 296.36334,
            "velocity": 0.4566929133858268
          },
          {
            "duration": 0.3636359999999854,
            "durationTicks": 384,
            "midi": 43,
            "name": "G2",
            "ticks": 314880,
            "time": 298.18152000000003,
            "velocity": 0.4566929133858268
          },
          {
            "duration": 0.3636359999999854,
            "durationTicks": 384,
            "midi": 50,
            "name": "D3",
            "ticks": 316800,
            "time": 299.9997,
            "velocity": 0.4566929133858268
          },
          {
            "duration": 0.14772712500001717,
            "durationTicks": 156,
            "midi": 55,
            "name": "G3",
            "ticks": 318960,
            "time": 302.04515250000003,
            "velocity": 0.8267716535433071
          },
          {
            "duration": 0.14772712500001717,
            "durationTicks": 156,
            "midi": 59,
            "name": "B3",
            "ticks": 319200,
            "time": 302.272425,
            "velocity": 0.8267716535433071
          },
          {
            "duration": 0.14772712500001717,
            "durationTicks": 156,
            "midi": 57,
            "name": "A3",
            "ticks": 319440,
            "time": 302.4996975,
            "velocity": 0.8267716535433071
          },
          {
            "duration": 0.14772712500001717,
            "durationTicks": 156,
            "midi": 56,
            "name": "G#3",
            "ticks": 319680,
            "time": 302.72697,
            "velocity": 0.8267716535433071
          },
          {
            "duration": 0.14772712500001717,
            "durationTicks": 156,
            "midi": 52,
            "name": "E3",
            "ticks": 319920,
            "time": 302.9542425,
            "velocity": 0.8267716535433071
          },
          {
            "duration": 0.14772712500001717,
            "durationTicks": 156,
            "midi": 54,
            "name": "F#3",
            "ticks": 320160,
            "time": 303.181515,
            "velocity": 0.8267716535433071
          },
          {
            "duration": 0.14772712500001717,
            "durationTicks": 156,
            "midi": 56,
            "name": "G#3",
            "ticks": 320400,
            "time": 303.4087875,
            "velocity": 0.8267716535433071
          },
          {
            "duration": 0.147727125000074,
            "durationTicks": 156,
            "midi": 57,
            "name": "A3",
            "ticks": 320640,
            "time": 303.63606,
            "velocity": 0.8267716535433071
          },
          {
            "duration": 0.14772712500001717,
            "durationTicks": 156,
            "midi": 60,
            "name": "C4",
            "ticks": 320880,
            "time": 303.8633325,
            "velocity": 0.8267716535433071
          },
          {
            "duration": 0.14772712500001717,
            "durationTicks": 156,
            "midi": 57,
            "name": "A3",
            "ticks": 321120,
            "time": 304.09060500000004,
            "velocity": 0.8267716535433071
          },
          {
            "duration": 0.14772712500001717,
            "durationTicks": 156,
            "midi": 55,
            "name": "G3",
            "ticks": 321360,
            "time": 304.3178775,
            "velocity": 0.8267716535433071
          },
          {
            "duration": 0.14772712500001717,
            "durationTicks": 156,
            "midi": 54,
            "name": "F#3",
            "ticks": 321600,
            "time": 304.54515000000004,
            "velocity": 0.8267716535433071
          },
          {
            "duration": 0.14772712500001717,
            "durationTicks": 156,
            "midi": 50,
            "name": "D3",
            "ticks": 321840,
            "time": 304.7724225,
            "velocity": 0.8267716535433071
          },
          {
            "duration": 0.14772712500001717,
            "durationTicks": 156,
            "midi": 52,
            "name": "E3",
            "ticks": 322080,
            "time": 304.99969500000003,
            "velocity": 0.8267716535433071
          },
          {
            "duration": 0.14772712500001717,
            "durationTicks": 156,
            "midi": 54,
            "name": "F#3",
            "ticks": 322320,
            "time": 305.2269675,
            "velocity": 0.8267716535433071
          },
          {
            "duration": 0.14772712500001717,
            "durationTicks": 156,
            "midi": 55,
            "name": "G3",
            "ticks": 322560,
            "time": 305.45424,
            "velocity": 0.8267716535433071
          },
          {
            "duration": 0.14772712500001717,
            "durationTicks": 156,
            "midi": 55,
            "name": "G3",
            "ticks": 322800,
            "time": 305.6815125,
            "velocity": 0.8267716535433071
          },
          {
            "duration": 0.14772712500001717,
            "durationTicks": 156,
            "midi": 57,
            "name": "A3",
            "ticks": 323040,
            "time": 305.908785,
            "velocity": 0.8267716535433071
          },
          {
            "duration": 0.14772712500001717,
            "durationTicks": 156,
            "midi": 59,
            "name": "B3",
            "ticks": 323280,
            "time": 306.1360575,
            "velocity": 0.8267716535433071
          },
          {
            "duration": 0.14772712500001717,
            "durationTicks": 156,
            "midi": 60,
            "name": "C4",
            "ticks": 323520,
            "time": 306.36333,
            "velocity": 0.8267716535433071
          },
          {
            "duration": 0.147727125000074,
            "durationTicks": 156,
            "midi": 60,
            "name": "C4",
            "ticks": 323760,
            "time": 306.5906025,
            "velocity": 0.8267716535433071
          },
          {
            "duration": 0.14772712500001717,
            "durationTicks": 156,
            "midi": 60,
            "name": "C4",
            "ticks": 324000,
            "time": 306.817875,
            "velocity": 0.8267716535433071
          },
          {
            "duration": 0.14772712500001717,
            "durationTicks": 156,
            "midi": 60,
            "name": "C4",
            "ticks": 324240,
            "time": 307.04514750000004,
            "velocity": 0.8267716535433071
          },
          {
            "duration": 0.14772712500001717,
            "durationTicks": 156,
            "midi": 62,
            "name": "D4",
            "ticks": 324480,
            "time": 307.27242,
            "velocity": 0.8267716535433071
          },
          {
            "duration": 0.14772712500001717,
            "durationTicks": 156,
            "midi": 62,
            "name": "D4",
            "ticks": 324720,
            "time": 307.49969250000004,
            "velocity": 0.8267716535433071
          },
          {
            "duration": 0.14772712500001717,
            "durationTicks": 156,
            "midi": 62,
            "name": "D4",
            "ticks": 324960,
            "time": 307.726965,
            "velocity": 0.8267716535433071
          },
          {
            "duration": 0.14772712500001717,
            "durationTicks": 156,
            "midi": 62,
            "name": "D4",
            "ticks": 325200,
            "time": 307.95423750000003,
            "velocity": 0.8267716535433071
          },
          {
            "duration": 0.14772712500001717,
            "durationTicks": 156,
            "midi": 50,
            "name": "D3",
            "ticks": 325440,
            "time": 308.18151,
            "velocity": 0.8267716535433071
          },
          {
            "duration": 0.14772712500001717,
            "durationTicks": 156,
            "midi": 50,
            "name": "D3",
            "ticks": 325680,
            "time": 308.40878250000003,
            "velocity": 0.8267716535433071
          },
          {
            "duration": 0.14772712500001717,
            "durationTicks": 156,
            "midi": 50,
            "name": "D3",
            "ticks": 325920,
            "time": 308.636055,
            "velocity": 0.8267716535433071
          },
          {
            "duration": 0.14772712500001717,
            "durationTicks": 156,
            "midi": 50,
            "name": "D3",
            "ticks": 326160,
            "time": 308.8633275,
            "velocity": 0.8267716535433071
          },
          {
            "duration": 0.3636359999999854,
            "durationTicks": 384,
            "midi": 55,
            "name": "G3",
            "ticks": 326400,
            "time": 309.0906,
            "velocity": 0.7244094488188977
          },
          {
            "duration": 0.3636359999999854,
            "durationTicks": 384,
            "midi": 50,
            "name": "D3",
            "ticks": 328320,
            "time": 310.90878000000004,
            "velocity": 0.4566929133858268
          },
          {
            "duration": 0.3636359999999854,
            "durationTicks": 384,
            "midi": 55,
            "name": "G3",
            "ticks": 330240,
            "time": 312.72696,
            "velocity": 0.4566929133858268
          },
          {
            "duration": 0.3636359999999854,
            "durationTicks": 384,
            "midi": 50,
            "name": "D3",
            "ticks": 332160,
            "time": 314.54514,
            "velocity": 0.4566929133858268
          },
          {
            "duration": 0.14772712500001717,
            "durationTicks": 156,
            "midi": 55,
            "name": "G3",
            "ticks": 334320,
            "time": 316.5905925,
            "velocity": 0.8267716535433071
          },
          {
            "duration": 0.14772712500001717,
            "durationTicks": 156,
            "midi": 59,
            "name": "B3",
            "ticks": 334560,
            "time": 316.81786500000004,
            "velocity": 0.8267716535433071
          },
          {
            "duration": 0.14772712500001717,
            "durationTicks": 156,
            "midi": 57,
            "name": "A3",
            "ticks": 334800,
            "time": 317.0451375,
            "velocity": 0.8267716535433071
          },
          {
            "duration": 0.14772712500001717,
            "durationTicks": 156,
            "midi": 56,
            "name": "G#3",
            "ticks": 335040,
            "time": 317.27241000000004,
            "velocity": 0.8267716535433071
          },
          {
            "duration": 0.14772712500001717,
            "durationTicks": 156,
            "midi": 52,
            "name": "E3",
            "ticks": 335280,
            "time": 317.4996825,
            "velocity": 0.8267716535433071
          },
          {
            "duration": 0.14772712500001717,
            "durationTicks": 156,
            "midi": 54,
            "name": "F#3",
            "ticks": 335520,
            "time": 317.72695500000003,
            "velocity": 0.8267716535433071
          },
          {
            "duration": 0.14772712500001717,
            "durationTicks": 156,
            "midi": 56,
            "name": "G#3",
            "ticks": 335760,
            "time": 317.9542275,
            "velocity": 0.8267716535433071
          },
          {
            "duration": 0.14772712500001717,
            "durationTicks": 156,
            "midi": 57,
            "name": "A3",
            "ticks": 336000,
            "time": 318.1815,
            "velocity": 0.8267716535433071
          },
          {
            "duration": 0.14772712500001717,
            "durationTicks": 156,
            "midi": 60,
            "name": "C4",
            "ticks": 336240,
            "time": 318.4087725,
            "velocity": 0.8267716535433071
          },
          {
            "duration": 0.14772712500001717,
            "durationTicks": 156,
            "midi": 57,
            "name": "A3",
            "ticks": 336480,
            "time": 318.636045,
            "velocity": 0.8267716535433071
          },
          {
            "duration": 0.14772712500001717,
            "durationTicks": 156,
            "midi": 55,
            "name": "G3",
            "ticks": 336720,
            "time": 318.8633175,
            "velocity": 0.8267716535433071
          },
          {
            "duration": 0.14772712500001717,
            "durationTicks": 156,
            "midi": 54,
            "name": "F#3",
            "ticks": 336960,
            "time": 319.09059,
            "velocity": 0.8267716535433071
          },
          {
            "duration": 0.14772712500001717,
            "durationTicks": 156,
            "midi": 50,
            "name": "D3",
            "ticks": 337200,
            "time": 319.3178625,
            "velocity": 0.8267716535433071
          },
          {
            "duration": 0.14772712500001717,
            "durationTicks": 156,
            "midi": 52,
            "name": "E3",
            "ticks": 337440,
            "time": 319.545135,
            "velocity": 0.8267716535433071
          },
          {
            "duration": 0.14772712500001717,
            "durationTicks": 156,
            "midi": 54,
            "name": "F#3",
            "ticks": 337680,
            "time": 319.77240750000004,
            "velocity": 0.8267716535433071
          },
          {
            "duration": 0.14772712500001717,
            "durationTicks": 156,
            "midi": 55,
            "name": "G3",
            "ticks": 337920,
            "time": 319.99968,
            "velocity": 0.8267716535433071
          },
          {
            "duration": 0.14772712500001717,
            "durationTicks": 156,
            "midi": 55,
            "name": "G3",
            "ticks": 338160,
            "time": 320.22695250000004,
            "velocity": 0.8267716535433071
          },
          {
            "duration": 0.14772712500001717,
            "durationTicks": 156,
            "midi": 57,
            "name": "A3",
            "ticks": 338400,
            "time": 320.454225,
            "velocity": 0.8267716535433071
          },
          {
            "duration": 0.14772712500001717,
            "durationTicks": 156,
            "midi": 59,
            "name": "B3",
            "ticks": 338640,
            "time": 320.68149750000003,
            "velocity": 0.8267716535433071
          },
          {
            "duration": 0.14772712500001717,
            "durationTicks": 156,
            "midi": 60,
            "name": "C4",
            "ticks": 338880,
            "time": 320.90877,
            "velocity": 0.8267716535433071
          },
          {
            "duration": 0.14772712500001717,
            "durationTicks": 156,
            "midi": 60,
            "name": "C4",
            "ticks": 339120,
            "time": 321.13604250000003,
            "velocity": 0.8267716535433071
          },
          {
            "duration": 0.14772712500001717,
            "durationTicks": 156,
            "midi": 60,
            "name": "C4",
            "ticks": 339360,
            "time": 321.363315,
            "velocity": 0.8267716535433071
          },
          {
            "duration": 0.14772712500001717,
            "durationTicks": 156,
            "midi": 60,
            "name": "C4",
            "ticks": 339600,
            "time": 321.5905875,
            "velocity": 0.8267716535433071
          },
          {
            "duration": 0.14772712500001717,
            "durationTicks": 156,
            "midi": 62,
            "name": "D4",
            "ticks": 339840,
            "time": 321.81786,
            "velocity": 0.8267716535433071
          },
          {
            "duration": 0.14772712500001717,
            "durationTicks": 156,
            "midi": 62,
            "name": "D4",
            "ticks": 340080,
            "time": 322.0451325,
            "velocity": 0.8267716535433071
          },
          {
            "duration": 0.14772712500001717,
            "durationTicks": 156,
            "midi": 62,
            "name": "D4",
            "ticks": 340320,
            "time": 322.272405,
            "velocity": 0.8267716535433071
          },
          {
            "duration": 0.14772712500001717,
            "durationTicks": 156,
            "midi": 62,
            "name": "D4",
            "ticks": 340560,
            "time": 322.4996775,
            "velocity": 0.8267716535433071
          },
          {
            "duration": 0.147727125000074,
            "durationTicks": 156,
            "midi": 50,
            "name": "D3",
            "ticks": 340800,
            "time": 322.72695,
            "velocity": 0.8267716535433071
          },
          {
            "duration": 0.14772712500001717,
            "durationTicks": 156,
            "midi": 50,
            "name": "D3",
            "ticks": 341040,
            "time": 322.9542225,
            "velocity": 0.8267716535433071
          },
          {
            "duration": 0.14772712500001717,
            "durationTicks": 156,
            "midi": 50,
            "name": "D3",
            "ticks": 341280,
            "time": 323.18149500000004,
            "velocity": 0.8267716535433071
          },
          {
            "duration": 0.14772712500001717,
            "durationTicks": 156,
            "midi": 50,
            "name": "D3",
            "ticks": 341520,
            "time": 323.4087675,
            "velocity": 0.8267716535433071
          },
          {
            "duration": 0.14772712500001717,
            "durationTicks": 156,
            "midi": 55,
            "name": "G3",
            "ticks": 341760,
            "time": 323.63604000000004,
            "velocity": 0.8267716535433071
          },
          {
            "duration": 0.14772712500001717,
            "durationTicks": 156,
            "midi": 50,
            "name": "D3",
            "ticks": 342000,
            "time": 323.8633125,
            "velocity": 0.8267716535433071
          },
          {
            "duration": 0.14772712500001717,
            "durationTicks": 156,
            "midi": 52,
            "name": "E3",
            "ticks": 342240,
            "time": 324.09058500000003,
            "velocity": 0.8267716535433071
          },
          {
            "duration": 0.14772712500001717,
            "durationTicks": 156,
            "midi": 54,
            "name": "F#3",
            "ticks": 342480,
            "time": 324.3178575,
            "velocity": 0.8267716535433071
          },
          {
            "duration": 0.14772712500001717,
            "durationTicks": 156,
            "midi": 55,
            "name": "G3",
            "ticks": 342720,
            "time": 324.54513000000003,
            "velocity": 0.8267716535433071
          },
          {
            "duration": 0.14772712500001717,
            "durationTicks": 156,
            "midi": 55,
            "name": "G3",
            "ticks": 342960,
            "time": 324.7724025,
            "velocity": 0.8267716535433071
          },
          {
            "duration": 0.14772712500001717,
            "durationTicks": 156,
            "midi": 57,
            "name": "A3",
            "ticks": 343200,
            "time": 324.999675,
            "velocity": 0.8267716535433071
          },
          {
            "duration": 0.14772712500001717,
            "durationTicks": 156,
            "midi": 57,
            "name": "A3",
            "ticks": 343440,
            "time": 325.2269475,
            "velocity": 0.8267716535433071
          },
          {
            "duration": 0.14772712500001717,
            "durationTicks": 156,
            "midi": 59,
            "name": "B3",
            "ticks": 343680,
            "time": 325.45422,
            "velocity": 0.8267716535433071
          },
          {
            "duration": 0.14772712500001717,
            "durationTicks": 156,
            "midi": 54,
            "name": "F#3",
            "ticks": 343920,
            "time": 325.6814925,
            "velocity": 0.8267716535433071
          },
          {
            "duration": 0.14772712500001717,
            "durationTicks": 156,
            "midi": 55,
            "name": "G3",
            "ticks": 344160,
            "time": 325.908765,
            "velocity": 0.8267716535433071
          },
          {
            "duration": 0.14772712500001717,
            "durationTicks": 156,
            "midi": 57,
            "name": "A3",
            "ticks": 344400,
            "time": 326.13603750000004,
            "velocity": 0.8267716535433071
          },
          {
            "duration": 0.14772712500001717,
            "durationTicks": 156,
            "midi": 59,
            "name": "B3",
            "ticks": 344640,
            "time": 326.36331,
            "velocity": 0.8267716535433071
          },
          {
            "duration": 0.14772712500001717,
            "durationTicks": 156,
            "midi": 59,
            "name": "B3",
            "ticks": 344880,
            "time": 326.59058250000004,
            "velocity": 0.8267716535433071
          },
          {
            "duration": 0.14772712500001717,
            "durationTicks": 156,
            "midi": 60,
            "name": "C4",
            "ticks": 345120,
            "time": 326.817855,
            "velocity": 0.8267716535433071
          },
          {
            "duration": 0.14772712500001717,
            "durationTicks": 156,
            "midi": 60,
            "name": "C4",
            "ticks": 345360,
            "time": 327.04512750000004,
            "velocity": 0.8267716535433071
          },
          {
            "duration": 0.14772712500001717,
            "durationTicks": 156,
            "midi": 62,
            "name": "D4",
            "ticks": 345600,
            "time": 327.2724,
            "velocity": 0.8267716535433071
          },
          {
            "duration": 0.14772712500001717,
            "durationTicks": 156,
            "midi": 62,
            "name": "D4",
            "ticks": 345840,
            "time": 327.49967250000003,
            "velocity": 0.8267716535433071
          },
          {
            "duration": 0.14772712500001717,
            "durationTicks": 156,
            "midi": 63,
            "name": "D#4",
            "ticks": 346080,
            "time": 327.726945,
            "velocity": 0.8267716535433071
          },
          {
            "duration": 0.14772712500001717,
            "durationTicks": 156,
            "midi": 63,
            "name": "D#4",
            "ticks": 346320,
            "time": 327.9542175,
            "velocity": 0.8267716535433071
          },
          {
            "duration": 0.3636359999999854,
            "durationTicks": 384,
            "midi": 64,
            "name": "E4",
            "ticks": 346560,
            "time": 328.18149,
            "velocity": 0.8267716535433071
          },
          {
            "duration": 0.9090900000000488,
            "durationTicks": 960,
            "midi": 48,
            "name": "C3",
            "ticks": 347520,
            "time": 329.09058,
            "velocity": 0.4566929133858268
          },
          {
            "duration": 0.8636354999999867,
            "durationTicks": 912,
            "midi": 50,
            "name": "D3",
            "ticks": 348480,
            "time": 329.99967000000004,
            "velocity": 0.4566929133858268
          },
          {
            "duration": 0.3636359999999854,
            "durationTicks": 384,
            "midi": 43,
            "name": "G2",
            "ticks": 349440,
            "time": 330.90876000000003,
            "velocity": 0.4566929133858268
          },
          {
            "duration": 0.909089999999992,
            "durationTicks": 960,
            "midi": 48,
            "name": "C3",
            "ticks": 351360,
            "time": 332.72694,
            "velocity": 0.4566929133858268
          },
          {
            "duration": 0.8636354999999867,
            "durationTicks": 912,
            "midi": 50,
            "name": "D3",
            "ticks": 352320,
            "time": 333.63603,
            "velocity": 0.4566929133858268
          },
          {
            "duration": 0.3636359999999854,
            "durationTicks": 384,
            "midi": 43,
            "name": "G2",
            "ticks": 353280,
            "time": 334.54512,
            "velocity": 0.4566929133858268
          },
          {
            "duration": 0.3636359999999854,
            "durationTicks": 384,
            "midi": 48,
            "name": "C3",
            "ticks": 355200,
            "time": 336.36330000000004,
            "velocity": 0.4566929133858268
          },
          {
            "duration": 0.3636359999999854,
            "durationTicks": 384,
            "midi": 50,
            "name": "D3",
            "ticks": 356160,
            "time": 337.27239000000003,
            "velocity": 0.8267716535433071
          },
          {
            "duration": 0.1704543750000198,
            "durationTicks": 180,
            "midi": 43,
            "name": "G2",
            "ticks": 357120,
            "time": 338.18148,
            "velocity": 0.8267716535433071
          },
          {
            "duration": 0.1704543750000198,
            "durationTicks": 180,
            "midi": 43,
            "name": "G2",
            "ticks": 357360,
            "time": 338.4087525,
            "velocity": 0.8267716535433071
          },
          {
            "duration": 0.1704543750000198,
            "durationTicks": 180,
            "midi": 43,
            "name": "G2",
            "ticks": 357600,
            "time": 338.636025,
            "velocity": 0.8267716535433071
          },
          {
            "duration": 0.17045437499996297,
            "durationTicks": 180,
            "midi": 43,
            "name": "G2",
            "ticks": 357840,
            "time": 338.86329750000004,
            "velocity": 0.8267716535433071
          },
          {
            "duration": 0.1704543750000198,
            "durationTicks": 180,
            "midi": 43,
            "name": "G2",
            "ticks": 358080,
            "time": 339.09057,
            "velocity": 0.8267716535433071
          },
          {
            "duration": 0.17045437499996297,
            "durationTicks": 180,
            "midi": 43,
            "name": "G2",
            "ticks": 358320,
            "time": 339.31784250000004,
            "velocity": 0.8267716535433071
          },
          {
            "duration": 0.1704543750000198,
            "durationTicks": 180,
            "midi": 43,
            "name": "G2",
            "ticks": 358560,
            "time": 339.545115,
            "velocity": 0.8267716535433071
          },
          {
            "duration": 0.17045437499996297,
            "durationTicks": 180,
            "midi": 43,
            "name": "G2",
            "ticks": 358800,
            "time": 339.77238750000004,
            "velocity": 0.8267716535433071
          },
          {
            "duration": 0.1704543750000198,
            "durationTicks": 180,
            "midi": 43,
            "name": "G2",
            "ticks": 359040,
            "time": 339.99966,
            "velocity": 0.8267716535433071
          },
          {
            "duration": 0.17045437499996297,
            "durationTicks": 180,
            "midi": 43,
            "name": "G2",
            "ticks": 359280,
            "time": 340.22693250000003,
            "velocity": 0.8267716535433071
          },
          {
            "duration": 0.1704543750000198,
            "durationTicks": 180,
            "midi": 43,
            "name": "G2",
            "ticks": 359520,
            "time": 340.454205,
            "velocity": 0.8267716535433071
          },
          {
            "duration": 0.17045437499996297,
            "durationTicks": 180,
            "midi": 43,
            "name": "G2",
            "ticks": 359760,
            "time": 340.6814775,
            "velocity": 0.8267716535433071
          },
          {
            "duration": 0.1704543750000198,
            "durationTicks": 180,
            "midi": 43,
            "name": "G2",
            "ticks": 360000,
            "time": 340.90875,
            "velocity": 0.8267716535433071
          },
          {
            "duration": 0.1704543750000198,
            "durationTicks": 180,
            "midi": 43,
            "name": "G2",
            "ticks": 360240,
            "time": 341.1360225,
            "velocity": 0.8267716535433071
          },
          {
            "duration": 0.1704543750000198,
            "durationTicks": 180,
            "midi": 43,
            "name": "G2",
            "ticks": 360480,
            "time": 341.363295,
            "velocity": 0.8267716535433071
          },
          {
            "duration": 0.1704543750000198,
            "durationTicks": 180,
            "midi": 43,
            "name": "G2",
            "ticks": 360720,
            "time": 341.5905675,
            "velocity": 0.8267716535433071
          },
          {
            "duration": 0.1704543750000198,
            "durationTicks": 180,
            "midi": 43,
            "name": "G2",
            "ticks": 360960,
            "time": 341.81784,
            "velocity": 0.8267716535433071
          },
          {
            "duration": 0.1704543750000198,
            "durationTicks": 180,
            "midi": 43,
            "name": "G2",
            "ticks": 361200,
            "time": 342.0451125,
            "velocity": 0.8267716535433071
          },
          {
            "duration": 0.17045437499996297,
            "durationTicks": 180,
            "midi": 43,
            "name": "G2",
            "ticks": 361440,
            "time": 342.27238500000004,
            "velocity": 0.8267716535433071
          },
          {
            "duration": 0.1704543750000198,
            "durationTicks": 180,
            "midi": 43,
            "name": "G2",
            "ticks": 361680,
            "time": 342.4996575,
            "velocity": 0.8267716535433071
          },
          {
            "duration": 0.17045437499996297,
            "durationTicks": 180,
            "midi": 43,
            "name": "G2",
            "ticks": 361920,
            "time": 342.72693000000004,
            "velocity": 0.8267716535433071
          },
          {
            "duration": 0.1704543750000198,
            "durationTicks": 180,
            "midi": 43,
            "name": "G2",
            "ticks": 362160,
            "time": 342.9542025,
            "velocity": 0.8267716535433071
          },
          {
            "duration": 0.17045437499996297,
            "durationTicks": 180,
            "midi": 43,
            "name": "G2",
            "ticks": 362400,
            "time": 343.18147500000003,
            "velocity": 0.8267716535433071
          },
          {
            "duration": 0.1704543750000198,
            "durationTicks": 180,
            "midi": 43,
            "name": "G2",
            "ticks": 362640,
            "time": 343.4087475,
            "velocity": 0.8267716535433071
          },
          {
            "duration": 0.17045437499996297,
            "durationTicks": 180,
            "midi": 43,
            "name": "G2",
            "ticks": 362880,
            "time": 343.63602000000003,
            "velocity": 0.8267716535433071
          },
          {
            "duration": 0.1704543750000198,
            "durationTicks": 180,
            "midi": 43,
            "name": "G2",
            "ticks": 363120,
            "time": 343.8632925,
            "velocity": 0.8267716535433071
          },
          {
            "duration": 0.17045437499996297,
            "durationTicks": 180,
            "midi": 43,
            "name": "G2",
            "ticks": 363360,
            "time": 344.090565,
            "velocity": 0.8267716535433071
          },
          {
            "duration": 0.1704543750000198,
            "durationTicks": 180,
            "midi": 43,
            "name": "G2",
            "ticks": 363600,
            "time": 344.3178375,
            "velocity": 0.8267716535433071
          },
          {
            "duration": 0.1704543750000198,
            "durationTicks": 180,
            "midi": 43,
            "name": "G2",
            "ticks": 363840,
            "time": 344.54511,
            "velocity": 0.8267716535433071
          },
          {
            "duration": 0.1704543750000198,
            "durationTicks": 180,
            "midi": 43,
            "name": "G2",
            "ticks": 364080,
            "time": 344.7723825,
            "velocity": 0.8267716535433071
          },
          {
            "duration": 0.1704543750000198,
            "durationTicks": 180,
            "midi": 43,
            "name": "G2",
            "ticks": 364320,
            "time": 344.999655,
            "velocity": 0.8267716535433071
          },
          {
            "duration": 0.17045437499996297,
            "durationTicks": 180,
            "midi": 43,
            "name": "G2",
            "ticks": 364560,
            "time": 345.22692750000004,
            "velocity": 0.8267716535433071
          },
          {
            "duration": 0.1704543750000198,
            "durationTicks": 180,
            "midi": 43,
            "name": "G2",
            "ticks": 364800,
            "time": 345.4542,
            "velocity": 0.9133858267716536
          },
          {
            "duration": 0.17045437499996297,
            "durationTicks": 180,
            "midi": 47,
            "name": "B2",
            "ticks": 365040,
            "time": 345.68147250000004,
            "velocity": 0.9133858267716536
          },
          {
            "duration": 0.1704543750000198,
            "durationTicks": 180,
            "midi": 50,
            "name": "D3",
            "ticks": 365280,
            "time": 345.908745,
            "velocity": 0.9133858267716536
          },
          {
            "duration": 0.17045437499996297,
            "durationTicks": 180,
            "midi": 55,
            "name": "G3",
            "ticks": 365520,
            "time": 346.13601750000004,
            "velocity": 0.9133858267716536
          },
          {
            "duration": 0.1704543750000198,
            "durationTicks": 180,
            "midi": 59,
            "name": "B3",
            "ticks": 365760,
            "time": 346.36329,
            "velocity": 0.9133858267716536
          },
          {
            "duration": 0.17045437499996297,
            "durationTicks": 180,
            "midi": 55,
            "name": "G3",
            "ticks": 366000,
            "time": 346.59056250000003,
            "velocity": 0.9133858267716536
          },
          {
            "duration": 0.1704543750000198,
            "durationTicks": 180,
            "midi": 62,
            "name": "D4",
            "ticks": 366240,
            "time": 346.817835,
            "velocity": 0.9133858267716536
          },
          {
            "duration": 0.17045437499996297,
            "durationTicks": 180,
            "midi": 59,
            "name": "B3",
            "ticks": 366480,
            "time": 347.04510750000003,
            "velocity": 0.9133858267716536
          },
          {
            "duration": 0.3409087500000396,
            "durationTicks": 360,
            "midi": 55,
            "name": "G3",
            "ticks": 366720,
            "time": 347.27238,
            "velocity": 0.9133858267716536
          },
          {
            "duration": 0.2556815625000013,
            "durationTicks": 270,
            "midi": 43,
            "name": "G2",
            "ticks": 367200,
            "time": 347.726925,
            "velocity": 0.9133858267716536
          },
          {
            "duration": 0.08522718749998148,
            "durationTicks": 90,
            "midi": 43,
            "name": "G2",
            "ticks": 367560,
            "time": 348.06783375000003,
            "velocity": 0.9133858267716536
          },
          {
            "duration": 0.3636359999999854,
            "durationTicks": 384,
            "midi": 43,
            "name": "G2",
            "ticks": 367680,
            "time": 348.18147,
            "velocity": 0.9133858267716536
          }
        ]
      },
      {
        "channel": 0,
        "controlChanges": {},
        "pitchBends": [],
        "instrument": {
          "family": "piano",
          "number": 0,
          "name": "acoustic grand piano"
        },
        "name": "serenade_525_1_(c)ishii",
        "notes": [],
        "endOfTrackTicks": 374400
      },
      {
        "channel": 4,
        "controlChanges": {
          "7": [
            {
              "number": 7,
              "ticks": 0,
              "time": 0,
              "value": 0.8031496062992126
            }
          ],
          "10": [
            {
              "number": 10,
              "ticks": 0,
              "time": 0,
              "value": 0.7401574803149606
            }
          ],
          "91": [
            {
              "number": 91,
              "ticks": 0,
              "time": 0,
              "value": 0.7480314960629921
            }
          ]
        },
        "pitchBends": [],
        "instrument": {
          "family": "strings",
          "number": 43,
          "name": "contrabass"
        },
        "name": "",
        "notes": [
          {
            "duration": 0.36363600000000007,
            "durationTicks": 384,
            "midi": 43,
            "name": "G2",
            "ticks": 0,
            "time": 0,
            "velocity": 0.8267716535433071
          },
          {
            "duration": 0.13636349999999997,
            "durationTicks": 144,
            "midi": 38,
            "name": "D2",
            "ticks": 720,
            "time": 0.6818175000000001,
            "velocity": 0.8267716535433071
          },
          {
            "duration": 0.36363599999999996,
            "durationTicks": 384,
            "midi": 43,
            "name": "G2",
            "ticks": 960,
            "time": 0.9090900000000001,
            "velocity": 0.8267716535433071
          },
          {
            "duration": 0.13636349999999986,
            "durationTicks": 144,
            "midi": 38,
            "name": "D2",
            "ticks": 1680,
            "time": 1.5909075000000001,
            "velocity": 0.8267716535433071
          },
          {
            "duration": 0.13636350000000008,
            "durationTicks": 144,
            "midi": 43,
            "name": "G2",
            "ticks": 1920,
            "time": 1.8181800000000001,
            "velocity": 0.8267716535433071
          },
          {
            "duration": 0.13636349999999986,
            "durationTicks": 144,
            "midi": 38,
            "name": "D2",
            "ticks": 2160,
            "time": 2.0454525,
            "velocity": 0.8267716535433071
          },
          {
            "duration": 0.13636349999999986,
            "durationTicks": 144,
            "midi": 43,
            "name": "G2",
            "ticks": 2400,
            "time": 2.2727250000000003,
            "velocity": 0.8267716535433071
          },
          {
            "duration": 0.13636349999999986,
            "durationTicks": 144,
            "midi": 47,
            "name": "B2",
            "ticks": 2640,
            "time": 2.4999975,
            "velocity": 0.8267716535433071
          },
          {
            "duration": 0.3636359999999996,
            "durationTicks": 384,
            "midi": 50,
            "name": "D3",
            "ticks": 2880,
            "time": 2.7272700000000003,
            "velocity": 0.8267716535433071
          },
          {
            "duration": 0.3636359999999996,
            "durationTicks": 384,
            "midi": 48,
            "name": "C3",
            "ticks": 3840,
            "time": 3.6363600000000003,
            "velocity": 0.8267716535433071
          },
          {
            "duration": 0.13636350000000075,
            "durationTicks": 144,
            "midi": 45,
            "name": "A2",
            "ticks": 4560,
            "time": 4.3181775,
            "velocity": 0.8267716535433071
          },
          {
            "duration": 0.3636360000000005,
            "durationTicks": 384,
            "midi": 48,
            "name": "C3",
            "ticks": 4800,
            "time": 4.545450000000001,
            "velocity": 0.8267716535433071
          },
          {
            "duration": 0.13636350000000075,
            "durationTicks": 144,
            "midi": 45,
            "name": "A2",
            "ticks": 5520,
            "time": 5.2272675,
            "velocity": 0.8267716535433071
          },
          {
            "duration": 0.13636349999999986,
            "durationTicks": 144,
            "midi": 48,
            "name": "C3",
            "ticks": 5760,
            "time": 5.454540000000001,
            "velocity": 0.8267716535433071
          },
          {
            "duration": 0.13636349999999986,
            "durationTicks": 144,
            "midi": 45,
            "name": "A2",
            "ticks": 6000,
            "time": 5.6818125,
            "velocity": 0.8267716535433071
          },
          {
            "duration": 0.13636350000000075,
            "durationTicks": 144,
            "midi": 42,
            "name": "F#2",
            "ticks": 6240,
            "time": 5.909085,
            "velocity": 0.8267716535433071
          },
          {
            "duration": 0.13636350000000075,
            "durationTicks": 144,
            "midi": 45,
            "name": "A2",
            "ticks": 6480,
            "time": 6.1363575,
            "velocity": 0.8267716535433071
          },
          {
            "duration": 0.3636360000000005,
            "durationTicks": 384,
            "midi": 38,
            "name": "D2",
            "ticks": 6720,
            "time": 6.363630000000001,
            "velocity": 0.8267716535433071
          },
          {
            "duration": 0.1477271249999994,
            "durationTicks": 156,
            "midi": 43,
            "name": "G2",
            "ticks": 7680,
            "time": 7.2727200000000005,
            "velocity": 0.8267716535433071
          },
          {
            "duration": 0.1477271249999994,
            "durationTicks": 156,
            "midi": 43,
            "name": "G2",
            "ticks": 7920,
            "time": 7.4999925,
            "velocity": 0.8267716535433071
          },
          {
            "duration": 0.1477271250000003,
            "durationTicks": 156,
            "midi": 43,
            "name": "G2",
            "ticks": 8160,
            "time": 7.727265,
            "velocity": 0.8267716535433071
          },
          {
            "duration": 0.1477271249999994,
            "durationTicks": 156,
            "midi": 43,
            "name": "G2",
            "ticks": 8400,
            "time": 7.954537500000001,
            "velocity": 0.8267716535433071
          },
          {
            "duration": 0.1477271249999994,
            "durationTicks": 156,
            "midi": 43,
            "name": "G2",
            "ticks": 8640,
            "time": 8.18181,
            "velocity": 0.8267716535433071
          },
          {
            "duration": 0.14772712500000118,
            "durationTicks": 156,
            "midi": 43,
            "name": "G2",
            "ticks": 8880,
            "time": 8.4090825,
            "velocity": 0.8267716535433071
          },
          {
            "duration": 0.1477271249999994,
            "durationTicks": 156,
            "midi": 43,
            "name": "G2",
            "ticks": 9120,
            "time": 8.636355000000002,
            "velocity": 0.8267716535433071
          },
          {
            "duration": 0.1477271249999994,
            "durationTicks": 156,
            "midi": 43,
            "name": "G2",
            "ticks": 9360,
            "time": 8.863627500000002,
            "velocity": 0.8267716535433071
          },
          {
            "duration": 0.1477271249999994,
            "durationTicks": 156,
            "midi": 43,
            "name": "G2",
            "ticks": 9600,
            "time": 9.090900000000001,
            "velocity": 0.8267716535433071
          },
          {
            "duration": 0.1477271249999994,
            "durationTicks": 156,
            "midi": 43,
            "name": "G2",
            "ticks": 9840,
            "time": 9.318172500000001,
            "velocity": 0.8267716535433071
          },
          {
            "duration": 0.14772712500000118,
            "durationTicks": 156,
            "midi": 43,
            "name": "G2",
            "ticks": 10080,
            "time": 9.545445,
            "velocity": 0.8267716535433071
          },
          {
            "duration": 0.14772712500000118,
            "durationTicks": 156,
            "midi": 43,
            "name": "G2",
            "ticks": 10320,
            "time": 9.7727175,
            "velocity": 0.8267716535433071
          },
          {
            "duration": 0.1477271249999994,
            "durationTicks": 156,
            "midi": 43,
            "name": "G2",
            "ticks": 10560,
            "time": 9.999990000000002,
            "velocity": 0.8267716535433071
          },
          {
            "duration": 0.1477271249999994,
            "durationTicks": 156,
            "midi": 43,
            "name": "G2",
            "ticks": 10800,
            "time": 10.227262500000002,
            "velocity": 0.8267716535433071
          },
          {
            "duration": 0.1477271249999994,
            "durationTicks": 156,
            "midi": 43,
            "name": "G2",
            "ticks": 11040,
            "time": 10.454535000000002,
            "velocity": 0.8267716535433071
          },
          {
            "duration": 0.1477271249999994,
            "durationTicks": 156,
            "midi": 43,
            "name": "G2",
            "ticks": 11280,
            "time": 10.681807500000001,
            "velocity": 0.8267716535433071
          },
          {
            "duration": 0.1477271249999994,
            "durationTicks": 156,
            "midi": 43,
            "name": "G2",
            "ticks": 11520,
            "time": 10.909080000000001,
            "velocity": 0.8267716535433071
          },
          {
            "duration": 0.1477271249999994,
            "durationTicks": 156,
            "midi": 43,
            "name": "G2",
            "ticks": 11760,
            "time": 11.136352500000001,
            "velocity": 0.8267716535433071
          },
          {
            "duration": 0.14772712500000118,
            "durationTicks": 156,
            "midi": 43,
            "name": "G2",
            "ticks": 12000,
            "time": 11.363625,
            "velocity": 0.8267716535433071
          },
          {
            "duration": 0.1477271249999994,
            "durationTicks": 156,
            "midi": 43,
            "name": "G2",
            "ticks": 12240,
            "time": 11.590897500000002,
            "velocity": 0.8267716535433071
          },
          {
            "duration": 0.1477271249999994,
            "durationTicks": 156,
            "midi": 43,
            "name": "G2",
            "ticks": 12480,
            "time": 11.818170000000002,
            "velocity": 0.8267716535433071
          },
          {
            "duration": 0.1477271249999994,
            "durationTicks": 156,
            "midi": 43,
            "name": "G2",
            "ticks": 12720,
            "time": 12.045442500000002,
            "velocity": 0.8267716535433071
          },
          {
            "duration": 0.1477271249999994,
            "durationTicks": 156,
            "midi": 43,
            "name": "G2",
            "ticks": 12960,
            "time": 12.272715000000002,
            "velocity": 0.8267716535433071
          },
          {
            "duration": 0.1477271249999994,
            "durationTicks": 156,
            "midi": 43,
            "name": "G2",
            "ticks": 13200,
            "time": 12.499987500000001,
            "velocity": 0.8267716535433071
          },
          {
            "duration": 0.1477271249999994,
            "durationTicks": 156,
            "midi": 43,
            "name": "G2",
            "ticks": 13440,
            "time": 12.727260000000001,
            "velocity": 0.8267716535433071
          },
          {
            "duration": 0.14772712500000118,
            "durationTicks": 156,
            "midi": 43,
            "name": "G2",
            "ticks": 13680,
            "time": 12.954532500000001,
            "velocity": 0.8267716535433071
          },
          {
            "duration": 0.1477271249999994,
            "durationTicks": 156,
            "midi": 43,
            "name": "G2",
            "ticks": 13920,
            "time": 13.181805000000002,
            "velocity": 0.8267716535433071
          },
          {
            "duration": 0.1477271249999994,
            "durationTicks": 156,
            "midi": 43,
            "name": "G2",
            "ticks": 14160,
            "time": 13.409077500000002,
            "velocity": 0.8267716535433071
          },
          {
            "duration": 0.1477271249999994,
            "durationTicks": 156,
            "midi": 43,
            "name": "G2",
            "ticks": 14400,
            "time": 13.636350000000002,
            "velocity": 0.8267716535433071
          },
          {
            "duration": 0.1477271249999994,
            "durationTicks": 156,
            "midi": 43,
            "name": "G2",
            "ticks": 14640,
            "time": 13.863622500000002,
            "velocity": 0.8267716535433071
          },
          {
            "duration": 0.1477271249999994,
            "durationTicks": 156,
            "midi": 43,
            "name": "G2",
            "ticks": 14880,
            "time": 14.090895000000002,
            "velocity": 0.8267716535433071
          },
          {
            "duration": 0.1477271249999994,
            "durationTicks": 156,
            "midi": 43,
            "name": "G2",
            "ticks": 15120,
            "time": 14.318167500000001,
            "velocity": 0.8267716535433071
          },
          {
            "duration": 0.14772712500000118,
            "durationTicks": 156,
            "midi": 43,
            "name": "G2",
            "ticks": 15360,
            "time": 14.545440000000001,
            "velocity": 0.8267716535433071
          },
          {
            "duration": 0.1477271249999994,
            "durationTicks": 156,
            "midi": 43,
            "name": "G2",
            "ticks": 15600,
            "time": 14.772712500000003,
            "velocity": 0.8267716535433071
          },
          {
            "duration": 0.1477271249999994,
            "durationTicks": 156,
            "midi": 45,
            "name": "A2",
            "ticks": 15840,
            "time": 14.999985000000002,
            "velocity": 0.8267716535433071
          },
          {
            "duration": 0.1477271249999994,
            "durationTicks": 156,
            "midi": 45,
            "name": "A2",
            "ticks": 16080,
            "time": 15.227257500000002,
            "velocity": 0.8267716535433071
          },
          {
            "duration": 0.14772712500000118,
            "durationTicks": 156,
            "midi": 47,
            "name": "B2",
            "ticks": 16320,
            "time": 15.454530000000002,
            "velocity": 0.8267716535433071
          },
          {
            "duration": 0.14772712500000118,
            "durationTicks": 156,
            "midi": 47,
            "name": "B2",
            "ticks": 16560,
            "time": 15.681802500000002,
            "velocity": 0.8267716535433071
          },
          {
            "duration": 0.1477271249999994,
            "durationTicks": 156,
            "midi": 42,
            "name": "F#2",
            "ticks": 16800,
            "time": 15.909075000000001,
            "velocity": 0.8267716535433071
          },
          {
            "duration": 0.14772712500000296,
            "durationTicks": 156,
            "midi": 42,
            "name": "F#2",
            "ticks": 17040,
            "time": 16.1363475,
            "velocity": 0.8267716535433071
          },
          {
            "duration": 0.14772712500000296,
            "durationTicks": 156,
            "midi": 43,
            "name": "G2",
            "ticks": 17280,
            "time": 16.36362,
            "velocity": 0.8267716535433071
          },
          {
            "duration": 0.1477271249999994,
            "durationTicks": 156,
            "midi": 43,
            "name": "G2",
            "ticks": 17520,
            "time": 16.590892500000002,
            "velocity": 0.8267716535433071
          },
          {
            "duration": 0.1477271249999994,
            "durationTicks": 156,
            "midi": 45,
            "name": "A2",
            "ticks": 17760,
            "time": 16.818165,
            "velocity": 0.8267716535433071
          },
          {
            "duration": 0.14772712500000296,
            "durationTicks": 156,
            "midi": 45,
            "name": "A2",
            "ticks": 18000,
            "time": 17.0454375,
            "velocity": 0.8267716535433071
          },
          {
            "duration": 0.3636359999999996,
            "durationTicks": 384,
            "midi": 47,
            "name": "B2",
            "ticks": 18240,
            "time": 17.27271,
            "velocity": 0.7244094488188977
          },
          {
            "duration": 0.9090899999999991,
            "durationTicks": 960,
            "midi": 38,
            "name": "D2",
            "ticks": 21120,
            "time": 19.99998,
            "velocity": 0.4566929133858268
          },
          {
            "duration": 0.7272720000000028,
            "durationTicks": 768,
            "midi": 40,
            "name": "E2",
            "ticks": 22080,
            "time": 20.90907,
            "velocity": 0.4566929133858268
          },
          {
            "duration": 0.29545425000000236,
            "durationTicks": 312,
            "midi": 36,
            "name": "C2",
            "ticks": 23040,
            "time": 21.81816,
            "velocity": 0.4566929133858268
          },
          {
            "duration": 0.2954542499999988,
            "durationTicks": 312,
            "midi": 36,
            "name": "C2",
            "ticks": 23520,
            "time": 22.272705000000002,
            "velocity": 0.4566929133858268
          },
          {
            "duration": 0.2954542499999988,
            "durationTicks": 312,
            "midi": 38,
            "name": "D2",
            "ticks": 24000,
            "time": 22.72725,
            "velocity": 0.4566929133858268
          },
          {
            "duration": 0.2954542499999988,
            "durationTicks": 312,
            "midi": 38,
            "name": "D2",
            "ticks": 24480,
            "time": 23.181795,
            "velocity": 0.4566929133858268
          },
          {
            "duration": 0.1818179999999998,
            "durationTicks": 192,
            "midi": 35,
            "name": "B1",
            "ticks": 24960,
            "time": 23.63634,
            "velocity": 0.4566929133858268
          },
          {
            "duration": 0.1818179999999998,
            "durationTicks": 192,
            "midi": 38,
            "name": "D2",
            "ticks": 25440,
            "time": 24.090885,
            "velocity": 0.4566929133858268
          },
          {
            "duration": 0.3636359999999996,
            "durationTicks": 384,
            "midi": 43,
            "name": "G2",
            "ticks": 25920,
            "time": 24.54543,
            "velocity": 0.4566929133858268
          },
          {
            "duration": 0.9090899999999991,
            "durationTicks": 960,
            "midi": 38,
            "name": "D2",
            "ticks": 28800,
            "time": 27.2727,
            "velocity": 0.4566929133858268
          },
          {
            "duration": 0.7272720000000028,
            "durationTicks": 768,
            "midi": 40,
            "name": "E2",
            "ticks": 29760,
            "time": 28.18179,
            "velocity": 0.4566929133858268
          },
          {
            "duration": 0.2954542499999988,
            "durationTicks": 312,
            "midi": 36,
            "name": "C2",
            "ticks": 30720,
            "time": 29.090880000000002,
            "velocity": 0.4566929133858268
          },
          {
            "duration": 0.2954542499999988,
            "durationTicks": 312,
            "midi": 36,
            "name": "C2",
            "ticks": 31200,
            "time": 29.545425,
            "velocity": 0.4566929133858268
          },
          {
            "duration": 0.29545425000000236,
            "durationTicks": 312,
            "midi": 38,
            "name": "D2",
            "ticks": 31680,
            "time": 29.99997,
            "velocity": 0.4566929133858268
          },
          {
            "duration": 0.29545425000000236,
            "durationTicks": 312,
            "midi": 38,
            "name": "D2",
            "ticks": 32160,
            "time": 30.454515,
            "velocity": 0.4566929133858268
          },
          {
            "duration": 0.18181800000000337,
            "durationTicks": 192,
            "midi": 43,
            "name": "G2",
            "ticks": 32640,
            "time": 30.90906,
            "velocity": 0.8818897637795275
          },
          {
            "duration": 0.18181800000000337,
            "durationTicks": 192,
            "midi": 43,
            "name": "G2",
            "ticks": 32880,
            "time": 31.1363325,
            "velocity": 0.7244094488188977
          },
          {
            "duration": 0.18181800000000337,
            "durationTicks": 192,
            "midi": 43,
            "name": "G2",
            "ticks": 33120,
            "time": 31.363605,
            "velocity": 0.7244094488188977
          },
          {
            "duration": 0.18181800000000337,
            "durationTicks": 192,
            "midi": 43,
            "name": "G2",
            "ticks": 33360,
            "time": 31.5908775,
            "velocity": 0.7244094488188977
          },
          {
            "duration": 0.1818179999999998,
            "durationTicks": 192,
            "midi": 43,
            "name": "G2",
            "ticks": 33600,
            "time": 31.818150000000003,
            "velocity": 0.4566929133858268
          },
          {
            "duration": 0.18181800000000692,
            "durationTicks": 192,
            "midi": 43,
            "name": "G2",
            "ticks": 33840,
            "time": 32.0454225,
            "velocity": 0.4566929133858268
          },
          {
            "duration": 0.1818179999999998,
            "durationTicks": 192,
            "midi": 43,
            "name": "G2",
            "ticks": 34080,
            "time": 32.272695000000006,
            "velocity": 0.4566929133858268
          },
          {
            "duration": 0.1818179999999998,
            "durationTicks": 192,
            "midi": 43,
            "name": "G2",
            "ticks": 34320,
            "time": 32.499967500000004,
            "velocity": 0.4566929133858268
          },
          {
            "duration": 0.18181800000000692,
            "durationTicks": 192,
            "midi": 43,
            "name": "G2",
            "ticks": 34560,
            "time": 32.72724,
            "velocity": 0.8818897637795275
          },
          {
            "duration": 0.18181800000000692,
            "durationTicks": 192,
            "midi": 43,
            "name": "G2",
            "ticks": 34800,
            "time": 32.9545125,
            "velocity": 0.7244094488188977
          },
          {
            "duration": 0.18181800000000692,
            "durationTicks": 192,
            "midi": 43,
            "name": "G2",
            "ticks": 35040,
            "time": 33.181785,
            "velocity": 0.7244094488188977
          },
          {
            "duration": 0.1818179999999998,
            "durationTicks": 192,
            "midi": 43,
            "name": "G2",
            "ticks": 35280,
            "time": 33.4090575,
            "velocity": 0.7244094488188977
          },
          {
            "duration": 0.1818179999999998,
            "durationTicks": 192,
            "midi": 43,
            "name": "G2",
            "ticks": 35520,
            "time": 33.63633,
            "velocity": 0.4566929133858268
          },
          {
            "duration": 0.18181800000000692,
            "durationTicks": 192,
            "midi": 43,
            "name": "G2",
            "ticks": 35760,
            "time": 33.8636025,
            "velocity": 0.4566929133858268
          },
          {
            "duration": 0.1818179999999998,
            "durationTicks": 192,
            "midi": 43,
            "name": "G2",
            "ticks": 36000,
            "time": 34.090875000000004,
            "velocity": 0.4566929133858268
          },
          {
            "duration": 0.1818179999999998,
            "durationTicks": 192,
            "midi": 43,
            "name": "G2",
            "ticks": 36240,
            "time": 34.3181475,
            "velocity": 0.4566929133858268
          },
          {
            "duration": 0.18181800000000692,
            "durationTicks": 192,
            "midi": 43,
            "name": "G2",
            "ticks": 36480,
            "time": 34.54542,
            "velocity": 0.4566929133858268
          },
          {
            "duration": 0.18181800000000692,
            "durationTicks": 192,
            "midi": 43,
            "name": "G2",
            "ticks": 36720,
            "time": 34.7726925,
            "velocity": 0.4566929133858268
          },
          {
            "duration": 0.1818179999999998,
            "durationTicks": 192,
            "midi": 43,
            "name": "G2",
            "ticks": 36960,
            "time": 34.999965,
            "velocity": 0.4566929133858268
          },
          {
            "duration": 0.1818179999999998,
            "durationTicks": 192,
            "midi": 43,
            "name": "G2",
            "ticks": 37200,
            "time": 35.2272375,
            "velocity": 0.4566929133858268
          },
          {
            "duration": 0.18181800000000692,
            "durationTicks": 192,
            "midi": 43,
            "name": "G2",
            "ticks": 37440,
            "time": 35.45451,
            "velocity": 0.4566929133858268
          },
          {
            "duration": 0.1818179999999998,
            "durationTicks": 192,
            "midi": 43,
            "name": "G2",
            "ticks": 37680,
            "time": 35.681782500000004,
            "velocity": 0.5669291338582677
          },
          {
            "duration": 0.1818179999999998,
            "durationTicks": 192,
            "midi": 43,
            "name": "G2",
            "ticks": 37920,
            "time": 35.909055,
            "velocity": 0.5669291338582677
          },
          {
            "duration": 0.18181800000000692,
            "durationTicks": 192,
            "midi": 43,
            "name": "G2",
            "ticks": 38160,
            "time": 36.1363275,
            "velocity": 0.5669291338582677
          },
          {
            "duration": 0.18181800000000692,
            "durationTicks": 192,
            "midi": 43,
            "name": "G2",
            "ticks": 38400,
            "time": 36.3636,
            "velocity": 0.5669291338582677
          },
          {
            "duration": 0.1818179999999998,
            "durationTicks": 192,
            "midi": 43,
            "name": "G2",
            "ticks": 38640,
            "time": 36.5908725,
            "velocity": 0.6377952755905512
          },
          {
            "duration": 0.1818179999999998,
            "durationTicks": 192,
            "midi": 42,
            "name": "F#2",
            "ticks": 38880,
            "time": 36.818145,
            "velocity": 0.6377952755905512
          },
          {
            "duration": 0.18181800000000692,
            "durationTicks": 192,
            "midi": 42,
            "name": "F#2",
            "ticks": 39120,
            "time": 37.0454175,
            "velocity": 0.6377952755905512
          },
          {
            "duration": 0.1818179999999998,
            "durationTicks": 192,
            "midi": 43,
            "name": "G2",
            "ticks": 39360,
            "time": 37.272690000000004,
            "velocity": 0.6377952755905512
          },
          {
            "duration": 0.1818179999999998,
            "durationTicks": 192,
            "midi": 43,
            "name": "G2",
            "ticks": 39600,
            "time": 37.4999625,
            "velocity": 0.7244094488188977
          },
          {
            "duration": 0.18181800000000692,
            "durationTicks": 192,
            "midi": 40,
            "name": "E2",
            "ticks": 39840,
            "time": 37.727235,
            "velocity": 0.8267716535433071
          },
          {
            "duration": 0.18181800000000692,
            "durationTicks": 192,
            "midi": 40,
            "name": "E2",
            "ticks": 40080,
            "time": 37.9545075,
            "velocity": 0.8267716535433071
          },
          {
            "duration": 0.1818179999999998,
            "durationTicks": 192,
            "midi": 38,
            "name": "D2",
            "ticks": 40320,
            "time": 38.18178,
            "velocity": 0.8267716535433071
          },
          {
            "duration": 0.1818179999999998,
            "durationTicks": 192,
            "midi": 38,
            "name": "D2",
            "ticks": 40560,
            "time": 38.4090525,
            "velocity": 0.8267716535433071
          },
          {
            "duration": 0.18181800000000692,
            "durationTicks": 192,
            "midi": 38,
            "name": "D2",
            "ticks": 40800,
            "time": 38.636325,
            "velocity": 0.8267716535433071
          },
          {
            "duration": 0.1818179999999998,
            "durationTicks": 192,
            "midi": 38,
            "name": "D2",
            "ticks": 41040,
            "time": 38.863597500000004,
            "velocity": 0.8267716535433071
          },
          {
            "duration": 0.1818179999999998,
            "durationTicks": 192,
            "midi": 38,
            "name": "D2",
            "ticks": 41280,
            "time": 39.09087,
            "velocity": 0.8267716535433071
          },
          {
            "duration": 0.18181800000000692,
            "durationTicks": 192,
            "midi": 38,
            "name": "D2",
            "ticks": 41520,
            "time": 39.3181425,
            "velocity": 0.8267716535433071
          },
          {
            "duration": 0.18181800000000692,
            "durationTicks": 192,
            "midi": 38,
            "name": "D2",
            "ticks": 41760,
            "time": 39.545415,
            "velocity": 0.8267716535433071
          },
          {
            "duration": 0.1818179999999998,
            "durationTicks": 192,
            "midi": 38,
            "name": "D2",
            "ticks": 42000,
            "time": 39.7726875,
            "velocity": 0.8267716535433071
          },
          {
            "duration": 0.1818179999999998,
            "durationTicks": 192,
            "midi": 38,
            "name": "D2",
            "ticks": 42240,
            "time": 39.99996,
            "velocity": 0.8267716535433071
          },
          {
            "duration": 0.18181800000000692,
            "durationTicks": 192,
            "midi": 38,
            "name": "D2",
            "ticks": 42480,
            "time": 40.2272325,
            "velocity": 0.8267716535433071
          },
          {
            "duration": 0.1818179999999998,
            "durationTicks": 192,
            "midi": 38,
            "name": "D2",
            "ticks": 42720,
            "time": 40.454505000000005,
            "velocity": 0.8267716535433071
          },
          {
            "duration": 0.1818179999999998,
            "durationTicks": 192,
            "midi": 38,
            "name": "D2",
            "ticks": 42960,
            "time": 40.6817775,
            "velocity": 0.8267716535433071
          },
          {
            "duration": 0.18181800000000692,
            "durationTicks": 192,
            "midi": 38,
            "name": "D2",
            "ticks": 43200,
            "time": 40.90905,
            "velocity": 0.8267716535433071
          },
          {
            "duration": 0.18181800000000692,
            "durationTicks": 192,
            "midi": 38,
            "name": "D2",
            "ticks": 43440,
            "time": 41.1363225,
            "velocity": 0.8267716535433071
          },
          {
            "duration": 0.1818179999999998,
            "durationTicks": 192,
            "midi": 38,
            "name": "D2",
            "ticks": 43680,
            "time": 41.363595000000004,
            "velocity": 0.8267716535433071
          },
          {
            "duration": 0.1818179999999998,
            "durationTicks": 192,
            "midi": 38,
            "name": "D2",
            "ticks": 43920,
            "time": 41.5908675,
            "velocity": 0.8267716535433071
          },
          {
            "duration": 0.14772712500000296,
            "durationTicks": 156,
            "midi": 38,
            "name": "D2",
            "ticks": 44160,
            "time": 41.81814,
            "velocity": 0.8267716535433071
          },
          {
            "duration": 0.14772712499999585,
            "durationTicks": 156,
            "midi": 40,
            "name": "E2",
            "ticks": 44400,
            "time": 42.045412500000005,
            "velocity": 0.8267716535433071
          },
          {
            "duration": 0.14772712500000296,
            "durationTicks": 156,
            "midi": 42,
            "name": "F#2",
            "ticks": 44640,
            "time": 42.272685,
            "velocity": 0.8267716535433071
          },
          {
            "duration": 0.14772712500000296,
            "durationTicks": 156,
            "midi": 40,
            "name": "E2",
            "ticks": 44880,
            "time": 42.4999575,
            "velocity": 0.8267716535433071
          },
          {
            "duration": 0.14772712500000296,
            "durationTicks": 156,
            "midi": 38,
            "name": "D2",
            "ticks": 45120,
            "time": 42.72723,
            "velocity": 0.8267716535433071
          },
          {
            "duration": 0.14772712500000296,
            "durationTicks": 156,
            "midi": 40,
            "name": "E2",
            "ticks": 45360,
            "time": 42.954502500000004,
            "velocity": 0.8267716535433071
          },
          {
            "duration": 0.14772712500000296,
            "durationTicks": 156,
            "midi": 42,
            "name": "F#2",
            "ticks": 45600,
            "time": 43.181775,
            "velocity": 0.8267716535433071
          },
          {
            "duration": 0.14772712500000296,
            "durationTicks": 156,
            "midi": 38,
            "name": "D2",
            "ticks": 45840,
            "time": 43.4090475,
            "velocity": 0.8267716535433071
          },
          {
            "duration": 0.14772712499999585,
            "durationTicks": 156,
            "midi": 43,
            "name": "G2",
            "ticks": 46080,
            "time": 43.636320000000005,
            "velocity": 0.8267716535433071
          },
          {
            "duration": 0.14772712500000296,
            "durationTicks": 156,
            "midi": 45,
            "name": "A2",
            "ticks": 46320,
            "time": 43.8635925,
            "velocity": 0.8267716535433071
          },
          {
            "duration": 0.14772712500000296,
            "durationTicks": 156,
            "midi": 47,
            "name": "B2",
            "ticks": 46560,
            "time": 44.090865,
            "velocity": 0.8267716535433071
          },
          {
            "duration": 0.14772712500000296,
            "durationTicks": 156,
            "midi": 45,
            "name": "A2",
            "ticks": 46800,
            "time": 44.3181375,
            "velocity": 0.8267716535433071
          },
          {
            "duration": 0.14772712500000296,
            "durationTicks": 156,
            "midi": 43,
            "name": "G2",
            "ticks": 47040,
            "time": 44.545410000000004,
            "velocity": 0.8267716535433071
          },
          {
            "duration": 0.14772712500000296,
            "durationTicks": 156,
            "midi": 45,
            "name": "A2",
            "ticks": 47280,
            "time": 44.7726825,
            "velocity": 0.8267716535433071
          },
          {
            "duration": 0.14772712500000296,
            "durationTicks": 156,
            "midi": 47,
            "name": "B2",
            "ticks": 47520,
            "time": 44.999955,
            "velocity": 0.8267716535433071
          },
          {
            "duration": 0.14772712499999585,
            "durationTicks": 156,
            "midi": 44,
            "name": "G#2",
            "ticks": 47760,
            "time": 45.227227500000005,
            "velocity": 0.8267716535433071
          },
          {
            "duration": 0.14772712500000296,
            "durationTicks": 156,
            "midi": 45,
            "name": "A2",
            "ticks": 48000,
            "time": 45.4545,
            "velocity": 0.8267716535433071
          },
          {
            "duration": 0.14772712500000296,
            "durationTicks": 156,
            "midi": 45,
            "name": "A2",
            "ticks": 48240,
            "time": 45.6817725,
            "velocity": 0.8267716535433071
          },
          {
            "duration": 0.14772712500000296,
            "durationTicks": 156,
            "midi": 45,
            "name": "A2",
            "ticks": 48480,
            "time": 45.909045,
            "velocity": 0.8267716535433071
          },
          {
            "duration": 0.14772712500000296,
            "durationTicks": 156,
            "midi": 45,
            "name": "A2",
            "ticks": 48720,
            "time": 46.136317500000004,
            "velocity": 0.8267716535433071
          },
          {
            "duration": 0.14772712500000296,
            "durationTicks": 156,
            "midi": 45,
            "name": "A2",
            "ticks": 48960,
            "time": 46.36359,
            "velocity": 0.8267716535433071
          },
          {
            "duration": 0.14772712500000296,
            "durationTicks": 156,
            "midi": 45,
            "name": "A2",
            "ticks": 49200,
            "time": 46.5908625,
            "velocity": 0.8267716535433071
          },
          {
            "duration": 0.14772712499999585,
            "durationTicks": 156,
            "midi": 45,
            "name": "A2",
            "ticks": 49440,
            "time": 46.818135000000005,
            "velocity": 0.8267716535433071
          },
          {
            "duration": 0.14772712500000296,
            "durationTicks": 156,
            "midi": 45,
            "name": "A2",
            "ticks": 49680,
            "time": 47.0454075,
            "velocity": 0.8267716535433071
          },
          {
            "duration": 0.14772712500000296,
            "durationTicks": 156,
            "midi": 45,
            "name": "A2",
            "ticks": 49920,
            "time": 47.27268,
            "velocity": 0.8267716535433071
          },
          {
            "duration": 0.14772712500000296,
            "durationTicks": 156,
            "midi": 33,
            "name": "A1",
            "ticks": 50160,
            "time": 47.4999525,
            "velocity": 0.8267716535433071
          },
          {
            "duration": 0.14772712500000296,
            "durationTicks": 156,
            "midi": 33,
            "name": "A1",
            "ticks": 50400,
            "time": 47.727225000000004,
            "velocity": 0.8267716535433071
          },
          {
            "duration": 0.14772712500000296,
            "durationTicks": 156,
            "midi": 33,
            "name": "A1",
            "ticks": 50640,
            "time": 47.9544975,
            "velocity": 0.8267716535433071
          },
          {
            "duration": 0.3636359999999996,
            "durationTicks": 384,
            "midi": 33,
            "name": "A1",
            "ticks": 50880,
            "time": 48.18177,
            "velocity": 0.7244094488188977
          },
          {
            "duration": 0.18181800000000692,
            "durationTicks": 192,
            "midi": 39,
            "name": "D#2",
            "ticks": 53280,
            "time": 50.454495,
            "velocity": 0.4566929133858268
          },
          {
            "duration": 0.1818179999999998,
            "durationTicks": 192,
            "midi": 40,
            "name": "E2",
            "ticks": 53760,
            "time": 50.909040000000005,
            "velocity": 0.4566929133858268
          },
          {
            "duration": 0.18181800000000692,
            "durationTicks": 192,
            "midi": 38,
            "name": "D2",
            "ticks": 54240,
            "time": 51.363585,
            "velocity": 0.4566929133858268
          },
          {
            "duration": 0.1818179999999998,
            "durationTicks": 192,
            "midi": 37,
            "name": "C#2",
            "ticks": 54720,
            "time": 51.818130000000004,
            "velocity": 0.4566929133858268
          },
          {
            "duration": 0.18181800000000692,
            "durationTicks": 192,
            "midi": 33,
            "name": "A1",
            "ticks": 55200,
            "time": 52.272675,
            "velocity": 0.4566929133858268
          },
          {
            "duration": 0.3636359999999925,
            "durationTicks": 384,
            "midi": 34,
            "name": "A#1",
            "ticks": 56160,
            "time": 53.181765000000006,
            "velocity": 0.4566929133858268
          },
          {
            "duration": 0.18181800000000692,
            "durationTicks": 192,
            "midi": 35,
            "name": "B1",
            "ticks": 56640,
            "time": 53.63631,
            "velocity": 0.4566929133858268
          },
          {
            "duration": 0.1818179999999998,
            "durationTicks": 192,
            "midi": 31,
            "name": "G1",
            "ticks": 57120,
            "time": 54.090855000000005,
            "velocity": 0.4566929133858268
          },
          {
            "duration": 0.3636359999999996,
            "durationTicks": 384,
            "midi": 33,
            "name": "A1",
            "ticks": 57600,
            "time": 54.5454,
            "velocity": 0.4566929133858268
          },
          {
            "duration": 0.6818175000000011,
            "durationTicks": 720,
            "midi": 45,
            "name": "A2",
            "ticks": 58080,
            "time": 54.999945000000004,
            "velocity": 0.4566929133858268
          },
          {
            "duration": 0.227272499999998,
            "durationTicks": 240,
            "midi": 44,
            "name": "G#2",
            "ticks": 58800,
            "time": 55.681762500000005,
            "velocity": 0.4566929133858268
          },
          {
            "duration": 0.227272499999998,
            "durationTicks": 240,
            "midi": 43,
            "name": "G2",
            "ticks": 59040,
            "time": 55.909035,
            "velocity": 0.4566929133858268
          },
          {
            "duration": 0.2272725000000051,
            "durationTicks": 240,
            "midi": 40,
            "name": "E2",
            "ticks": 59280,
            "time": 56.1363075,
            "velocity": 0.4566929133858268
          },
          {
            "duration": 0.1818179999999998,
            "durationTicks": 192,
            "midi": 38,
            "name": "D2",
            "ticks": 59520,
            "time": 56.363580000000006,
            "velocity": 0.4566929133858268
          },
          {
            "duration": 0.18181800000000692,
            "durationTicks": 192,
            "midi": 40,
            "name": "E2",
            "ticks": 60000,
            "time": 56.818125,
            "velocity": 0.4566929133858268
          },
          {
            "duration": 0.1818179999999998,
            "durationTicks": 192,
            "midi": 42,
            "name": "F#2",
            "ticks": 60480,
            "time": 57.272670000000005,
            "velocity": 0.4566929133858268
          },
          {
            "duration": 0.18181800000000692,
            "durationTicks": 192,
            "midi": 39,
            "name": "D#2",
            "ticks": 60960,
            "time": 57.727215,
            "velocity": 0.4566929133858268
          },
          {
            "duration": 0.1818179999999998,
            "durationTicks": 192,
            "midi": 40,
            "name": "E2",
            "ticks": 61440,
            "time": 58.181760000000004,
            "velocity": 0.4566929133858268
          },
          {
            "duration": 0.18181800000000692,
            "durationTicks": 192,
            "midi": 38,
            "name": "D2",
            "ticks": 61920,
            "time": 58.636305,
            "velocity": 0.4566929133858268
          },
          {
            "duration": 0.1818179999999998,
            "durationTicks": 192,
            "midi": 37,
            "name": "C#2",
            "ticks": 62400,
            "time": 59.09085,
            "velocity": 0.4566929133858268
          },
          {
            "duration": 0.1818179999999998,
            "durationTicks": 192,
            "midi": 33,
            "name": "A1",
            "ticks": 62880,
            "time": 59.545395000000006,
            "velocity": 0.4566929133858268
          },
          {
            "duration": 0.18181800000000692,
            "durationTicks": 192,
            "midi": 35,
            "name": "B1",
            "ticks": 63360,
            "time": 59.99994,
            "velocity": 0.4566929133858268
          },
          {
            "duration": 0.1818179999999998,
            "durationTicks": 192,
            "midi": 43,
            "name": "G2",
            "ticks": 63840,
            "time": 60.454485000000005,
            "velocity": 0.4566929133858268
          },
          {
            "duration": 0.18181800000000692,
            "durationTicks": 192,
            "midi": 45,
            "name": "A2",
            "ticks": 64320,
            "time": 60.90903,
            "velocity": 0.4566929133858268
          },
          {
            "duration": 0.1818179999999998,
            "durationTicks": 192,
            "midi": 33,
            "name": "A1",
            "ticks": 64800,
            "time": 61.363575000000004,
            "velocity": 0.4566929133858268
          },
          {
            "duration": 0.36363600000000673,
            "durationTicks": 384,
            "midi": 38,
            "name": "D2",
            "ticks": 65280,
            "time": 61.81812,
            "velocity": 0.4566929133858268
          },
          {
            "duration": 0.3636359999999996,
            "durationTicks": 384,
            "midi": 33,
            "name": "A1",
            "ticks": 67200,
            "time": 63.636300000000006,
            "velocity": 0.4566929133858268
          },
          {
            "duration": 0.36363600000001384,
            "durationTicks": 384,
            "midi": 38,
            "name": "D2",
            "ticks": 69120,
            "time": 65.45448,
            "velocity": 0.4566929133858268
          },
          {
            "duration": 0.3636359999999996,
            "durationTicks": 384,
            "midi": 33,
            "name": "A1",
            "ticks": 71040,
            "time": 67.27266000000002,
            "velocity": 0.4566929133858268
          },
          {
            "duration": 0.14772712499998875,
            "durationTicks": 156,
            "midi": 38,
            "name": "D2",
            "ticks": 73200,
            "time": 69.31811250000001,
            "velocity": 0.8267716535433071
          },
          {
            "duration": 0.14772712499998875,
            "durationTicks": 156,
            "midi": 42,
            "name": "F#2",
            "ticks": 73440,
            "time": 69.54538500000001,
            "velocity": 0.8267716535433071
          },
          {
            "duration": 0.14772712500000296,
            "durationTicks": 156,
            "midi": 40,
            "name": "E2",
            "ticks": 73680,
            "time": 69.77265750000001,
            "velocity": 0.8267716535433071
          },
          {
            "duration": 0.14772712500000296,
            "durationTicks": 156,
            "midi": 39,
            "name": "D#2",
            "ticks": 73920,
            "time": 69.99993,
            "velocity": 0.8267716535433071
          },
          {
            "duration": 0.14772712500000296,
            "durationTicks": 156,
            "midi": 35,
            "name": "B1",
            "ticks": 74160,
            "time": 70.2272025,
            "velocity": 0.8267716535433071
          },
          {
            "duration": 0.14772712499998875,
            "durationTicks": 156,
            "midi": 37,
            "name": "C#2",
            "ticks": 74400,
            "time": 70.45447500000002,
            "velocity": 0.8267716535433071
          },
          {
            "duration": 0.14772712499998875,
            "durationTicks": 156,
            "midi": 39,
            "name": "D#2",
            "ticks": 74640,
            "time": 70.68174750000001,
            "velocity": 0.8267716535433071
          },
          {
            "duration": 0.14772712499998875,
            "durationTicks": 156,
            "midi": 40,
            "name": "E2",
            "ticks": 74880,
            "time": 70.90902000000001,
            "velocity": 0.8267716535433071
          },
          {
            "duration": 0.14772712499998875,
            "durationTicks": 156,
            "midi": 43,
            "name": "G2",
            "ticks": 75120,
            "time": 71.13629250000001,
            "velocity": 0.8267716535433071
          },
          {
            "duration": 0.14772712500000296,
            "durationTicks": 156,
            "midi": 40,
            "name": "E2",
            "ticks": 75360,
            "time": 71.36356500000001,
            "velocity": 0.8267716535433071
          },
          {
            "duration": 0.14772712500000296,
            "durationTicks": 156,
            "midi": 38,
            "name": "D2",
            "ticks": 75600,
            "time": 71.5908375,
            "velocity": 0.8267716535433071
          },
          {
            "duration": 0.14772712500000296,
            "durationTicks": 156,
            "midi": 37,
            "name": "C#2",
            "ticks": 75840,
            "time": 71.81811,
            "velocity": 0.8267716535433071
          },
          {
            "duration": 0.14772712499998875,
            "durationTicks": 156,
            "midi": 33,
            "name": "A1",
            "ticks": 76080,
            "time": 72.04538250000002,
            "velocity": 0.8267716535433071
          },
          {
            "duration": 0.14772712499998875,
            "durationTicks": 156,
            "midi": 35,
            "name": "B1",
            "ticks": 76320,
            "time": 72.27265500000001,
            "velocity": 0.8267716535433071
          },
          {
            "duration": 0.14772712499998875,
            "durationTicks": 156,
            "midi": 37,
            "name": "C#2",
            "ticks": 76560,
            "time": 72.49992750000001,
            "velocity": 0.8267716535433071
          },
          {
            "duration": 0.14772712499998875,
            "durationTicks": 156,
            "midi": 38,
            "name": "D2",
            "ticks": 76800,
            "time": 72.72720000000001,
            "velocity": 0.8267716535433071
          },
          {
            "duration": 0.14772712500000296,
            "durationTicks": 156,
            "midi": 38,
            "name": "D2",
            "ticks": 77040,
            "time": 72.95447250000001,
            "velocity": 0.8267716535433071
          },
          {
            "duration": 0.14772712500000296,
            "durationTicks": 156,
            "midi": 40,
            "name": "E2",
            "ticks": 77280,
            "time": 73.181745,
            "velocity": 0.8267716535433071
          },
          {
            "duration": 0.14772712500000296,
            "durationTicks": 156,
            "midi": 42,
            "name": "F#2",
            "ticks": 77520,
            "time": 73.4090175,
            "velocity": 0.8267716535433071
          },
          {
            "duration": 0.14772712499998875,
            "durationTicks": 156,
            "midi": 43,
            "name": "G2",
            "ticks": 77760,
            "time": 73.63629000000002,
            "velocity": 0.8267716535433071
          },
          {
            "duration": 0.14772712499998875,
            "durationTicks": 156,
            "midi": 43,
            "name": "G2",
            "ticks": 78000,
            "time": 73.86356250000001,
            "velocity": 0.8267716535433071
          },
          {
            "duration": 0.14772712499998875,
            "durationTicks": 156,
            "midi": 43,
            "name": "G2",
            "ticks": 78240,
            "time": 74.09083500000001,
            "velocity": 0.8267716535433071
          },
          {
            "duration": 0.14772712499998875,
            "durationTicks": 156,
            "midi": 43,
            "name": "G2",
            "ticks": 78480,
            "time": 74.31810750000001,
            "velocity": 0.8267716535433071
          },
          {
            "duration": 0.14772712500000296,
            "durationTicks": 156,
            "midi": 45,
            "name": "A2",
            "ticks": 78720,
            "time": 74.54538000000001,
            "velocity": 0.8267716535433071
          },
          {
            "duration": 0.14772712500000296,
            "durationTicks": 156,
            "midi": 45,
            "name": "A2",
            "ticks": 78960,
            "time": 74.7726525,
            "velocity": 0.8267716535433071
          },
          {
            "duration": 0.14772712500000296,
            "durationTicks": 156,
            "midi": 45,
            "name": "A2",
            "ticks": 79200,
            "time": 74.999925,
            "velocity": 0.8267716535433071
          },
          {
            "duration": 0.14772712499998875,
            "durationTicks": 156,
            "midi": 45,
            "name": "A2",
            "ticks": 79440,
            "time": 75.22719750000002,
            "velocity": 0.8267716535433071
          },
          {
            "duration": 0.14772712499998875,
            "durationTicks": 156,
            "midi": 33,
            "name": "A1",
            "ticks": 79680,
            "time": 75.45447000000001,
            "velocity": 0.8267716535433071
          },
          {
            "duration": 0.14772712499998875,
            "durationTicks": 156,
            "midi": 33,
            "name": "A1",
            "ticks": 79920,
            "time": 75.68174250000001,
            "velocity": 0.8267716535433071
          },
          {
            "duration": 0.14772712499998875,
            "durationTicks": 156,
            "midi": 33,
            "name": "A1",
            "ticks": 80160,
            "time": 75.90901500000001,
            "velocity": 0.8267716535433071
          },
          {
            "duration": 0.14772712500000296,
            "durationTicks": 156,
            "midi": 33,
            "name": "A1",
            "ticks": 80400,
            "time": 76.13628750000001,
            "velocity": 0.8267716535433071
          },
          {
            "duration": 0.36363600000001384,
            "durationTicks": 384,
            "midi": 38,
            "name": "D2",
            "ticks": 80640,
            "time": 76.36356,
            "velocity": 0.7244094488188977
          },
          {
            "duration": 0.36363600000001384,
            "durationTicks": 384,
            "midi": 33,
            "name": "A1",
            "ticks": 82560,
            "time": 78.18174,
            "velocity": 0.4566929133858268
          },
          {
            "duration": 0.3636359999999996,
            "durationTicks": 384,
            "midi": 38,
            "name": "D2",
            "ticks": 84480,
            "time": 79.99992000000002,
            "velocity": 0.4566929133858268
          },
          {
            "duration": 0.3636359999999996,
            "durationTicks": 384,
            "midi": 33,
            "name": "A1",
            "ticks": 86400,
            "time": 81.81810000000002,
            "velocity": 0.4566929133858268
          },
          {
            "duration": 0.14772712499998875,
            "durationTicks": 156,
            "midi": 38,
            "name": "D2",
            "ticks": 88560,
            "time": 83.86355250000001,
            "velocity": 0.8267716535433071
          },
          {
            "duration": 0.14772712500000296,
            "durationTicks": 156,
            "midi": 42,
            "name": "F#2",
            "ticks": 88800,
            "time": 84.09082500000001,
            "velocity": 0.8267716535433071
          },
          {
            "duration": 0.14772712500000296,
            "durationTicks": 156,
            "midi": 40,
            "name": "E2",
            "ticks": 89040,
            "time": 84.31809750000001,
            "velocity": 0.8267716535433071
          },
          {
            "duration": 0.14772712500000296,
            "durationTicks": 156,
            "midi": 39,
            "name": "D#2",
            "ticks": 89280,
            "time": 84.54537,
            "velocity": 0.8267716535433071
          },
          {
            "duration": 0.14772712499998875,
            "durationTicks": 156,
            "midi": 35,
            "name": "B1",
            "ticks": 89520,
            "time": 84.77264250000002,
            "velocity": 0.8267716535433071
          },
          {
            "duration": 0.14772712499998875,
            "durationTicks": 156,
            "midi": 37,
            "name": "C#2",
            "ticks": 89760,
            "time": 84.99991500000002,
            "velocity": 0.8267716535433071
          },
          {
            "duration": 0.14772712499998875,
            "durationTicks": 156,
            "midi": 39,
            "name": "D#2",
            "ticks": 90000,
            "time": 85.22718750000001,
            "velocity": 0.8267716535433071
          },
          {
            "duration": 0.14772712499998875,
            "durationTicks": 156,
            "midi": 40,
            "name": "E2",
            "ticks": 90240,
            "time": 85.45446000000001,
            "velocity": 0.8267716535433071
          },
          {
            "duration": 0.14772712500000296,
            "durationTicks": 156,
            "midi": 43,
            "name": "G2",
            "ticks": 90480,
            "time": 85.68173250000001,
            "velocity": 0.8267716535433071
          },
          {
            "duration": 0.14772712500000296,
            "durationTicks": 156,
            "midi": 40,
            "name": "E2",
            "ticks": 90720,
            "time": 85.90900500000001,
            "velocity": 0.8267716535433071
          },
          {
            "duration": 0.14772712500000296,
            "durationTicks": 156,
            "midi": 38,
            "name": "D2",
            "ticks": 90960,
            "time": 86.1362775,
            "velocity": 0.8267716535433071
          },
          {
            "duration": 0.14772712499998875,
            "durationTicks": 156,
            "midi": 37,
            "name": "C#2",
            "ticks": 91200,
            "time": 86.36355000000002,
            "velocity": 0.8267716535433071
          },
          {
            "duration": 0.14772712499998875,
            "durationTicks": 156,
            "midi": 33,
            "name": "A1",
            "ticks": 91440,
            "time": 86.59082250000002,
            "velocity": 0.8267716535433071
          },
          {
            "duration": 0.14772712499998875,
            "durationTicks": 156,
            "midi": 35,
            "name": "B1",
            "ticks": 91680,
            "time": 86.81809500000001,
            "velocity": 0.8267716535433071
          },
          {
            "duration": 0.14772712499998875,
            "durationTicks": 156,
            "midi": 37,
            "name": "C#2",
            "ticks": 91920,
            "time": 87.04536750000001,
            "velocity": 0.8267716535433071
          },
          {
            "duration": 0.14772712500000296,
            "durationTicks": 156,
            "midi": 38,
            "name": "D2",
            "ticks": 92160,
            "time": 87.27264000000001,
            "velocity": 0.8267716535433071
          },
          {
            "duration": 0.14772712500000296,
            "durationTicks": 156,
            "midi": 38,
            "name": "D2",
            "ticks": 92400,
            "time": 87.49991250000001,
            "velocity": 0.8267716535433071
          },
          {
            "duration": 0.14772712500000296,
            "durationTicks": 156,
            "midi": 40,
            "name": "E2",
            "ticks": 92640,
            "time": 87.727185,
            "velocity": 0.8267716535433071
          },
          {
            "duration": 0.14772712499998875,
            "durationTicks": 156,
            "midi": 42,
            "name": "F#2",
            "ticks": 92880,
            "time": 87.95445750000002,
            "velocity": 0.8267716535433071
          },
          {
            "duration": 0.14772712499998875,
            "durationTicks": 156,
            "midi": 43,
            "name": "G2",
            "ticks": 93120,
            "time": 88.18173000000002,
            "velocity": 0.8267716535433071
          },
          {
            "duration": 0.14772712499998875,
            "durationTicks": 156,
            "midi": 43,
            "name": "G2",
            "ticks": 93360,
            "time": 88.40900250000001,
            "velocity": 0.8267716535433071
          },
          {
            "duration": 0.14772712499998875,
            "durationTicks": 156,
            "midi": 43,
            "name": "G2",
            "ticks": 93600,
            "time": 88.63627500000001,
            "velocity": 0.8267716535433071
          },
          {
            "duration": 0.14772712500000296,
            "durationTicks": 156,
            "midi": 43,
            "name": "G2",
            "ticks": 93840,
            "time": 88.86354750000001,
            "velocity": 0.8267716535433071
          },
          {
            "duration": 0.14772712500000296,
            "durationTicks": 156,
            "midi": 45,
            "name": "A2",
            "ticks": 94080,
            "time": 89.09082000000001,
            "velocity": 0.8267716535433071
          },
          {
            "duration": 0.14772712500000296,
            "durationTicks": 156,
            "midi": 45,
            "name": "A2",
            "ticks": 94320,
            "time": 89.3180925,
            "velocity": 0.8267716535433071
          },
          {
            "duration": 0.14772712499998875,
            "durationTicks": 156,
            "midi": 45,
            "name": "A2",
            "ticks": 94560,
            "time": 89.54536500000002,
            "velocity": 0.8267716535433071
          },
          {
            "duration": 0.14772712499998875,
            "durationTicks": 156,
            "midi": 45,
            "name": "A2",
            "ticks": 94800,
            "time": 89.77263750000002,
            "velocity": 0.8267716535433071
          },
          {
            "duration": 0.14772712499998875,
            "durationTicks": 156,
            "midi": 33,
            "name": "A1",
            "ticks": 95040,
            "time": 89.99991000000001,
            "velocity": 0.8267716535433071
          },
          {
            "duration": 0.14772712499998875,
            "durationTicks": 156,
            "midi": 33,
            "name": "A1",
            "ticks": 95280,
            "time": 90.22718250000001,
            "velocity": 0.8267716535433071
          },
          {
            "duration": 0.14772712500000296,
            "durationTicks": 156,
            "midi": 33,
            "name": "A1",
            "ticks": 95520,
            "time": 90.45445500000001,
            "velocity": 0.8267716535433071
          },
          {
            "duration": 0.14772712500000296,
            "durationTicks": 156,
            "midi": 33,
            "name": "A1",
            "ticks": 95760,
            "time": 90.68172750000001,
            "velocity": 0.8267716535433071
          },
          {
            "duration": 0.14772712500000296,
            "durationTicks": 156,
            "midi": 38,
            "name": "D2",
            "ticks": 96000,
            "time": 90.909,
            "velocity": 0.8267716535433071
          },
          {
            "duration": 0.14772712499998875,
            "durationTicks": 156,
            "midi": 33,
            "name": "A1",
            "ticks": 96240,
            "time": 91.13627250000002,
            "velocity": 0.8267716535433071
          },
          {
            "duration": 0.14772712499998875,
            "durationTicks": 156,
            "midi": 35,
            "name": "B1",
            "ticks": 96480,
            "time": 91.36354500000002,
            "velocity": 0.8267716535433071
          },
          {
            "duration": 0.14772712499998875,
            "durationTicks": 156,
            "midi": 37,
            "name": "C#2",
            "ticks": 96720,
            "time": 91.59081750000001,
            "velocity": 0.8267716535433071
          },
          {
            "duration": 0.14772712499998875,
            "durationTicks": 156,
            "midi": 38,
            "name": "D2",
            "ticks": 96960,
            "time": 91.81809000000001,
            "velocity": 0.8267716535433071
          },
          {
            "duration": 0.14772712500000296,
            "durationTicks": 156,
            "midi": 38,
            "name": "D2",
            "ticks": 97200,
            "time": 92.04536250000001,
            "velocity": 0.8267716535433071
          },
          {
            "duration": 0.14772712500000296,
            "durationTicks": 156,
            "midi": 40,
            "name": "E2",
            "ticks": 97440,
            "time": 92.27263500000001,
            "velocity": 0.8267716535433071
          },
          {
            "duration": 0.14772712500000296,
            "durationTicks": 156,
            "midi": 40,
            "name": "E2",
            "ticks": 97680,
            "time": 92.4999075,
            "velocity": 0.8267716535433071
          },
          {
            "duration": 0.14772712499998875,
            "durationTicks": 156,
            "midi": 42,
            "name": "F#2",
            "ticks": 97920,
            "time": 92.72718000000002,
            "velocity": 0.8267716535433071
          },
          {
            "duration": 0.14772712499998875,
            "durationTicks": 156,
            "midi": 37,
            "name": "C#2",
            "ticks": 98160,
            "time": 92.95445250000002,
            "velocity": 0.8267716535433071
          },
          {
            "duration": 0.14772712499998875,
            "durationTicks": 156,
            "midi": 38,
            "name": "D2",
            "ticks": 98400,
            "time": 93.18172500000001,
            "velocity": 0.8267716535433071
          },
          {
            "duration": 0.14772712499998875,
            "durationTicks": 156,
            "midi": 40,
            "name": "E2",
            "ticks": 98640,
            "time": 93.40899750000001,
            "velocity": 0.8267716535433071
          },
          {
            "duration": 0.14772712500000296,
            "durationTicks": 156,
            "midi": 42,
            "name": "F#2",
            "ticks": 98880,
            "time": 93.63627000000001,
            "velocity": 0.8267716535433071
          },
          {
            "duration": 0.14772712500000296,
            "durationTicks": 156,
            "midi": 42,
            "name": "F#2",
            "ticks": 99120,
            "time": 93.86354250000001,
            "velocity": 0.8267716535433071
          },
          {
            "duration": 0.14772712500000296,
            "durationTicks": 156,
            "midi": 43,
            "name": "G2",
            "ticks": 99360,
            "time": 94.090815,
            "velocity": 0.8267716535433071
          },
          {
            "duration": 0.14772712499998875,
            "durationTicks": 156,
            "midi": 43,
            "name": "G2",
            "ticks": 99600,
            "time": 94.31808750000002,
            "velocity": 0.8267716535433071
          },
          {
            "duration": 0.14772712499998875,
            "durationTicks": 156,
            "midi": 45,
            "name": "A2",
            "ticks": 99840,
            "time": 94.54536000000002,
            "velocity": 0.8267716535433071
          },
          {
            "duration": 0.14772712499998875,
            "durationTicks": 156,
            "midi": 45,
            "name": "A2",
            "ticks": 100080,
            "time": 94.77263250000001,
            "velocity": 0.8267716535433071
          },
          {
            "duration": 0.14772712499998875,
            "durationTicks": 156,
            "midi": 46,
            "name": "A#2",
            "ticks": 100320,
            "time": 94.99990500000001,
            "velocity": 0.8267716535433071
          },
          {
            "duration": 0.14772712500000296,
            "durationTicks": 156,
            "midi": 46,
            "name": "A#2",
            "ticks": 100560,
            "time": 95.22717750000001,
            "velocity": 0.8267716535433071
          },
          {
            "duration": 0.36363600000001384,
            "durationTicks": 384,
            "midi": 47,
            "name": "B2",
            "ticks": 100800,
            "time": 95.45445000000001,
            "velocity": 0.7244094488188977
          },
          {
            "duration": 0.909089999999992,
            "durationTicks": 960,
            "midi": 43,
            "name": "G2",
            "ticks": 101760,
            "time": 96.36354000000001,
            "velocity": 0.4566929133858268
          },
          {
            "duration": 0.8636355000000151,
            "durationTicks": 912,
            "midi": 45,
            "name": "A2",
            "ticks": 102720,
            "time": 97.27263,
            "velocity": 0.4566929133858268
          },
          {
            "duration": 0.18181800000000692,
            "durationTicks": 192,
            "midi": 38,
            "name": "D2",
            "ticks": 103680,
            "time": 98.18172000000001,
            "velocity": 0.4566929133858268
          },
          {
            "duration": 0.18181800000000692,
            "durationTicks": 192,
            "midi": 38,
            "name": "D2",
            "ticks": 104160,
            "time": 98.63626500000001,
            "velocity": 0.4566929133858268
          },
          {
            "duration": 0.1818179999999927,
            "durationTicks": 192,
            "midi": 38,
            "name": "D2",
            "ticks": 104640,
            "time": 99.09081000000002,
            "velocity": 0.4566929133858268
          },
          {
            "duration": 0.36363600000001384,
            "durationTicks": 384,
            "midi": 43,
            "name": "G2",
            "ticks": 105600,
            "time": 99.99990000000001,
            "velocity": 0.8267716535433071
          },
          {
            "duration": 0.13636350000000164,
            "durationTicks": 144,
            "midi": 38,
            "name": "D2",
            "ticks": 106320,
            "time": 100.68171750000002,
            "velocity": 0.8267716535433071
          },
          {
            "duration": 0.3636359999999996,
            "durationTicks": 384,
            "midi": 43,
            "name": "G2",
            "ticks": 106560,
            "time": 100.90899000000002,
            "velocity": 0.8267716535433071
          },
          {
            "duration": 0.13636350000000164,
            "durationTicks": 144,
            "midi": 38,
            "name": "D2",
            "ticks": 107280,
            "time": 101.59080750000001,
            "velocity": 0.8267716535433071
          },
          {
            "duration": 0.13636350000001585,
            "durationTicks": 144,
            "midi": 43,
            "name": "G2",
            "ticks": 107520,
            "time": 101.81808000000001,
            "velocity": 0.8267716535433071
          },
          {
            "duration": 0.13636350000001585,
            "durationTicks": 144,
            "midi": 38,
            "name": "D2",
            "ticks": 107760,
            "time": 102.0453525,
            "velocity": 0.8267716535433071
          },
          {
            "duration": 0.13636350000000164,
            "durationTicks": 144,
            "midi": 43,
            "name": "G2",
            "ticks": 108000,
            "time": 102.27262500000002,
            "velocity": 0.8267716535433071
          },
          {
            "duration": 0.13636350000000164,
            "durationTicks": 144,
            "midi": 47,
            "name": "B2",
            "ticks": 108240,
            "time": 102.49989750000002,
            "velocity": 0.8267716535433071
          },
          {
            "duration": 0.3636359999999996,
            "durationTicks": 384,
            "midi": 50,
            "name": "D3",
            "ticks": 108480,
            "time": 102.72717000000002,
            "velocity": 0.8267716535433071
          },
          {
            "duration": 0.36363600000001384,
            "durationTicks": 384,
            "midi": 48,
            "name": "C3",
            "ticks": 109440,
            "time": 103.63626000000001,
            "velocity": 0.8267716535433071
          },
          {
            "duration": 0.13636350000000164,
            "durationTicks": 144,
            "midi": 45,
            "name": "A2",
            "ticks": 110160,
            "time": 104.31807750000002,
            "velocity": 0.8267716535433071
          },
          {
            "duration": 0.3636359999999996,
            "durationTicks": 384,
            "midi": 48,
            "name": "C3",
            "ticks": 110400,
            "time": 104.54535000000001,
            "velocity": 0.8267716535433071
          },
          {
            "duration": 0.13636350000001585,
            "durationTicks": 144,
            "midi": 45,
            "name": "A2",
            "ticks": 111120,
            "time": 105.22716750000001,
            "velocity": 0.8267716535433071
          },
          {
            "duration": 0.13636350000000164,
            "durationTicks": 144,
            "midi": 48,
            "name": "C3",
            "ticks": 111360,
            "time": 105.45444000000002,
            "velocity": 0.8267716535433071
          },
          {
            "duration": 0.13636350000000164,
            "durationTicks": 144,
            "midi": 45,
            "name": "A2",
            "ticks": 111600,
            "time": 105.68171250000002,
            "velocity": 0.8267716535433071
          },
          {
            "duration": 0.13636350000000164,
            "durationTicks": 144,
            "midi": 42,
            "name": "F#2",
            "ticks": 111840,
            "time": 105.90898500000002,
            "velocity": 0.8267716535433071
          },
          {
            "duration": 0.13636350000000164,
            "durationTicks": 144,
            "midi": 45,
            "name": "A2",
            "ticks": 112080,
            "time": 106.13625750000001,
            "velocity": 0.8267716535433071
          },
          {
            "duration": 0.36363600000001384,
            "durationTicks": 384,
            "midi": 38,
            "name": "D2",
            "ticks": 112320,
            "time": 106.36353000000001,
            "velocity": 0.8267716535433071
          },
          {
            "duration": 0.14772712499998875,
            "durationTicks": 156,
            "midi": 43,
            "name": "G2",
            "ticks": 113280,
            "time": 107.27262000000002,
            "velocity": 0.8267716535433071
          },
          {
            "duration": 0.14772712499998875,
            "durationTicks": 156,
            "midi": 43,
            "name": "G2",
            "ticks": 113520,
            "time": 107.49989250000002,
            "velocity": 0.8267716535433071
          },
          {
            "duration": 0.14772712499998875,
            "durationTicks": 156,
            "midi": 43,
            "name": "G2",
            "ticks": 113760,
            "time": 107.72716500000001,
            "velocity": 0.8267716535433071
          },
          {
            "duration": 0.14772712500000296,
            "durationTicks": 156,
            "midi": 43,
            "name": "G2",
            "ticks": 114000,
            "time": 107.95443750000001,
            "velocity": 0.8267716535433071
          },
          {
            "duration": 0.14772712500000296,
            "durationTicks": 156,
            "midi": 43,
            "name": "G2",
            "ticks": 114240,
            "time": 108.18171000000001,
            "velocity": 0.8267716535433071
          },
          {
            "duration": 0.14772712500000296,
            "durationTicks": 156,
            "midi": 43,
            "name": "G2",
            "ticks": 114480,
            "time": 108.40898250000001,
            "velocity": 0.8267716535433071
          },
          {
            "duration": 0.14772712499998875,
            "durationTicks": 156,
            "midi": 43,
            "name": "G2",
            "ticks": 114720,
            "time": 108.63625500000002,
            "velocity": 0.8267716535433071
          },
          {
            "duration": 0.14772712499998875,
            "durationTicks": 156,
            "midi": 43,
            "name": "G2",
            "ticks": 114960,
            "time": 108.86352750000002,
            "velocity": 0.8267716535433071
          },
          {
            "duration": 0.14772712499998875,
            "durationTicks": 156,
            "midi": 43,
            "name": "G2",
            "ticks": 115200,
            "time": 109.09080000000002,
            "velocity": 0.8267716535433071
          },
          {
            "duration": 0.14772712499998875,
            "durationTicks": 156,
            "midi": 43,
            "name": "G2",
            "ticks": 115440,
            "time": 109.31807250000001,
            "velocity": 0.8267716535433071
          },
          {
            "duration": 0.14772712500000296,
            "durationTicks": 156,
            "midi": 43,
            "name": "G2",
            "ticks": 115680,
            "time": 109.54534500000001,
            "velocity": 0.8267716535433071
          },
          {
            "duration": 0.14772712500000296,
            "durationTicks": 156,
            "midi": 43,
            "name": "G2",
            "ticks": 115920,
            "time": 109.77261750000001,
            "velocity": 0.8267716535433071
          },
          {
            "duration": 0.14772712500000296,
            "durationTicks": 156,
            "midi": 43,
            "name": "G2",
            "ticks": 116160,
            "time": 109.99989000000001,
            "velocity": 0.8267716535433071
          },
          {
            "duration": 0.14772712499998875,
            "durationTicks": 156,
            "midi": 43,
            "name": "G2",
            "ticks": 116400,
            "time": 110.22716250000002,
            "velocity": 0.8267716535433071
          },
          {
            "duration": 0.14772712499998875,
            "durationTicks": 156,
            "midi": 43,
            "name": "G2",
            "ticks": 116640,
            "time": 110.45443500000002,
            "velocity": 0.8267716535433071
          },
          {
            "duration": 0.14772712499998875,
            "durationTicks": 156,
            "midi": 43,
            "name": "G2",
            "ticks": 116880,
            "time": 110.68170750000002,
            "velocity": 0.8267716535433071
          },
          {
            "duration": 0.14772712499998875,
            "durationTicks": 156,
            "midi": 43,
            "name": "G2",
            "ticks": 117120,
            "time": 110.90898000000001,
            "velocity": 0.8267716535433071
          },
          {
            "duration": 0.14772712500000296,
            "durationTicks": 156,
            "midi": 43,
            "name": "G2",
            "ticks": 117360,
            "time": 111.13625250000001,
            "velocity": 0.8267716535433071
          },
          {
            "duration": 0.14772712500000296,
            "durationTicks": 156,
            "midi": 43,
            "name": "G2",
            "ticks": 117600,
            "time": 111.36352500000001,
            "velocity": 0.8267716535433071
          },
          {
            "duration": 0.14772712500000296,
            "durationTicks": 156,
            "midi": 43,
            "name": "G2",
            "ticks": 117840,
            "time": 111.59079750000001,
            "velocity": 0.8267716535433071
          },
          {
            "duration": 0.14772712499998875,
            "durationTicks": 156,
            "midi": 43,
            "name": "G2",
            "ticks": 118080,
            "time": 111.81807000000002,
            "velocity": 0.8267716535433071
          },
          {
            "duration": 0.14772712499998875,
            "durationTicks": 156,
            "midi": 43,
            "name": "G2",
            "ticks": 118320,
            "time": 112.04534250000002,
            "velocity": 0.8267716535433071
          },
          {
            "duration": 0.14772712499998875,
            "durationTicks": 156,
            "midi": 43,
            "name": "G2",
            "ticks": 118560,
            "time": 112.27261500000002,
            "velocity": 0.8267716535433071
          },
          {
            "duration": 0.14772712499998875,
            "durationTicks": 156,
            "midi": 43,
            "name": "G2",
            "ticks": 118800,
            "time": 112.49988750000001,
            "velocity": 0.8267716535433071
          },
          {
            "duration": 0.14772712500000296,
            "durationTicks": 156,
            "midi": 43,
            "name": "G2",
            "ticks": 119040,
            "time": 112.72716000000001,
            "velocity": 0.8267716535433071
          },
          {
            "duration": 0.14772712500000296,
            "durationTicks": 156,
            "midi": 43,
            "name": "G2",
            "ticks": 119280,
            "time": 112.95443250000001,
            "velocity": 0.8267716535433071
          },
          {
            "duration": 0.14772712500000296,
            "durationTicks": 156,
            "midi": 43,
            "name": "G2",
            "ticks": 119520,
            "time": 113.18170500000001,
            "velocity": 0.8267716535433071
          },
          {
            "duration": 0.14772712499998875,
            "durationTicks": 156,
            "midi": 43,
            "name": "G2",
            "ticks": 119760,
            "time": 113.40897750000002,
            "velocity": 0.8267716535433071
          },
          {
            "duration": 0.14772712499998875,
            "durationTicks": 156,
            "midi": 43,
            "name": "G2",
            "ticks": 120000,
            "time": 113.63625000000002,
            "velocity": 0.8267716535433071
          },
          {
            "duration": 0.14772712499998875,
            "durationTicks": 156,
            "midi": 43,
            "name": "G2",
            "ticks": 120240,
            "time": 113.86352250000002,
            "velocity": 0.8267716535433071
          },
          {
            "duration": 0.14772712499998875,
            "durationTicks": 156,
            "midi": 43,
            "name": "G2",
            "ticks": 120480,
            "time": 114.09079500000001,
            "velocity": 0.8267716535433071
          },
          {
            "duration": 0.14772712500000296,
            "durationTicks": 156,
            "midi": 43,
            "name": "G2",
            "ticks": 120720,
            "time": 114.31806750000001,
            "velocity": 0.8267716535433071
          },
          {
            "duration": 0.14772712500000296,
            "durationTicks": 156,
            "midi": 43,
            "name": "G2",
            "ticks": 120960,
            "time": 114.54534000000001,
            "velocity": 0.8267716535433071
          },
          {
            "duration": 0.14772712500000296,
            "durationTicks": 156,
            "midi": 43,
            "name": "G2",
            "ticks": 121200,
            "time": 114.77261250000001,
            "velocity": 0.8267716535433071
          },
          {
            "duration": 0.14772712499998875,
            "durationTicks": 156,
            "midi": 45,
            "name": "A2",
            "ticks": 121440,
            "time": 114.99988500000002,
            "velocity": 0.8267716535433071
          },
          {
            "duration": 0.14772712499998875,
            "durationTicks": 156,
            "midi": 45,
            "name": "A2",
            "ticks": 121680,
            "time": 115.22715750000002,
            "velocity": 0.8267716535433071
          },
          {
            "duration": 0.14772712499998875,
            "durationTicks": 156,
            "midi": 47,
            "name": "B2",
            "ticks": 121920,
            "time": 115.45443000000002,
            "velocity": 0.8267716535433071
          },
          {
            "duration": 0.14772712499998875,
            "durationTicks": 156,
            "midi": 47,
            "name": "B2",
            "ticks": 122160,
            "time": 115.68170250000001,
            "velocity": 0.8267716535433071
          },
          {
            "duration": 0.14772712500000296,
            "durationTicks": 156,
            "midi": 42,
            "name": "F#2",
            "ticks": 122400,
            "time": 115.90897500000001,
            "velocity": 0.8267716535433071
          },
          {
            "duration": 0.14772712500000296,
            "durationTicks": 156,
            "midi": 42,
            "name": "F#2",
            "ticks": 122640,
            "time": 116.13624750000001,
            "velocity": 0.8267716535433071
          },
          {
            "duration": 0.14772712500000296,
            "durationTicks": 156,
            "midi": 43,
            "name": "G2",
            "ticks": 122880,
            "time": 116.36352000000001,
            "velocity": 0.8267716535433071
          },
          {
            "duration": 0.14772712499998875,
            "durationTicks": 156,
            "midi": 43,
            "name": "G2",
            "ticks": 123120,
            "time": 116.59079250000002,
            "velocity": 0.8267716535433071
          },
          {
            "duration": 0.14772712499998875,
            "durationTicks": 156,
            "midi": 45,
            "name": "A2",
            "ticks": 123360,
            "time": 116.81806500000002,
            "velocity": 0.8267716535433071
          },
          {
            "duration": 0.14772712499998875,
            "durationTicks": 156,
            "midi": 45,
            "name": "A2",
            "ticks": 123600,
            "time": 117.04533750000002,
            "velocity": 0.8267716535433071
          },
          {
            "duration": 0.3636359999999996,
            "durationTicks": 384,
            "midi": 47,
            "name": "B2",
            "ticks": 123840,
            "time": 117.27261000000001,
            "velocity": 0.7244094488188977
          },
          {
            "duration": 0.909089999999992,
            "durationTicks": 960,
            "midi": 38,
            "name": "D2",
            "ticks": 126720,
            "time": 119.99988000000002,
            "velocity": 0.4566929133858268
          },
          {
            "duration": 0.7272720000000135,
            "durationTicks": 768,
            "midi": 40,
            "name": "E2",
            "ticks": 127680,
            "time": 120.90897000000001,
            "velocity": 0.4566929133858268
          },
          {
            "duration": 0.2954542499999917,
            "durationTicks": 312,
            "midi": 36,
            "name": "C2",
            "ticks": 128640,
            "time": 121.81806000000002,
            "velocity": 0.4566929133858268
          },
          {
            "duration": 0.2954542499999917,
            "durationTicks": 312,
            "midi": 36,
            "name": "C2",
            "ticks": 129120,
            "time": 122.27260500000001,
            "velocity": 0.4566929133858268
          },
          {
            "duration": 0.2954542499999917,
            "durationTicks": 312,
            "midi": 38,
            "name": "D2",
            "ticks": 129600,
            "time": 122.72715000000001,
            "velocity": 0.4566929133858268
          },
          {
            "duration": 0.2954542499999917,
            "durationTicks": 312,
            "midi": 38,
            "name": "D2",
            "ticks": 130080,
            "time": 123.18169500000002,
            "velocity": 0.4566929133858268
          },
          {
            "duration": 0.1818179999999927,
            "durationTicks": 192,
            "midi": 35,
            "name": "B1",
            "ticks": 130560,
            "time": 123.63624000000002,
            "velocity": 0.4566929133858268
          },
          {
            "duration": 0.1818179999999927,
            "durationTicks": 192,
            "midi": 38,
            "name": "D2",
            "ticks": 131040,
            "time": 124.09078500000001,
            "velocity": 0.4566929133858268
          },
          {
            "duration": 0.3636359999999996,
            "durationTicks": 384,
            "midi": 43,
            "name": "G2",
            "ticks": 131520,
            "time": 124.54533000000002,
            "velocity": 0.4566929133858268
          },
          {
            "duration": 0.909089999999992,
            "durationTicks": 960,
            "midi": 38,
            "name": "D2",
            "ticks": 134400,
            "time": 127.27260000000001,
            "velocity": 0.4566929133858268
          },
          {
            "duration": 0.7272720000000277,
            "durationTicks": 768,
            "midi": 40,
            "name": "E2",
            "ticks": 135360,
            "time": 128.18169,
            "velocity": 0.4566929133858268
          },
          {
            "duration": 0.2954542500000059,
            "durationTicks": 312,
            "midi": 36,
            "name": "C2",
            "ticks": 136320,
            "time": 129.09078,
            "velocity": 0.4566929133858268
          },
          {
            "duration": 0.2954542500000059,
            "durationTicks": 312,
            "midi": 36,
            "name": "C2",
            "ticks": 136800,
            "time": 129.545325,
            "velocity": 0.4566929133858268
          },
          {
            "duration": 0.2954542500000059,
            "durationTicks": 312,
            "midi": 38,
            "name": "D2",
            "ticks": 137280,
            "time": 129.99987,
            "velocity": 0.4566929133858268
          },
          {
            "duration": 0.2954542499999775,
            "durationTicks": 312,
            "midi": 38,
            "name": "D2",
            "ticks": 137760,
            "time": 130.454415,
            "velocity": 0.4566929133858268
          },
          {
            "duration": 0.1818179999999927,
            "durationTicks": 192,
            "midi": 43,
            "name": "G2",
            "ticks": 138240,
            "time": 130.90896,
            "velocity": 0.8818897637795275
          },
          {
            "duration": 0.1818179999999927,
            "durationTicks": 192,
            "midi": 43,
            "name": "G2",
            "ticks": 138480,
            "time": 131.1362325,
            "velocity": 0.7244094488188977
          },
          {
            "duration": 0.1818179999999927,
            "durationTicks": 192,
            "midi": 43,
            "name": "G2",
            "ticks": 138720,
            "time": 131.363505,
            "velocity": 0.7244094488188977
          },
          {
            "duration": 0.1818179999999927,
            "durationTicks": 192,
            "midi": 43,
            "name": "G2",
            "ticks": 138960,
            "time": 131.5907775,
            "velocity": 0.7244094488188977
          },
          {
            "duration": 0.1818179999999927,
            "durationTicks": 192,
            "midi": 43,
            "name": "G2",
            "ticks": 139200,
            "time": 131.81805,
            "velocity": 0.4566929133858268
          },
          {
            "duration": 0.1818179999999927,
            "durationTicks": 192,
            "midi": 43,
            "name": "G2",
            "ticks": 139440,
            "time": 132.0453225,
            "velocity": 0.4566929133858268
          },
          {
            "duration": 0.1818179999999927,
            "durationTicks": 192,
            "midi": 43,
            "name": "G2",
            "ticks": 139680,
            "time": 132.272595,
            "velocity": 0.4566929133858268
          },
          {
            "duration": 0.1818179999999927,
            "durationTicks": 192,
            "midi": 43,
            "name": "G2",
            "ticks": 139920,
            "time": 132.4998675,
            "velocity": 0.4566929133858268
          },
          {
            "duration": 0.1818179999999927,
            "durationTicks": 192,
            "midi": 43,
            "name": "G2",
            "ticks": 140160,
            "time": 132.72714,
            "velocity": 0.8818897637795275
          },
          {
            "duration": 0.1818179999999927,
            "durationTicks": 192,
            "midi": 43,
            "name": "G2",
            "ticks": 140400,
            "time": 132.9544125,
            "velocity": 0.7244094488188977
          },
          {
            "duration": 0.1818179999999927,
            "durationTicks": 192,
            "midi": 43,
            "name": "G2",
            "ticks": 140640,
            "time": 133.181685,
            "velocity": 0.7244094488188977
          },
          {
            "duration": 0.18181799999996429,
            "durationTicks": 192,
            "midi": 43,
            "name": "G2",
            "ticks": 140880,
            "time": 133.4089575,
            "velocity": 0.7244094488188977
          },
          {
            "duration": 0.1818179999999927,
            "durationTicks": 192,
            "midi": 43,
            "name": "G2",
            "ticks": 141120,
            "time": 133.63623,
            "velocity": 0.4566929133858268
          },
          {
            "duration": 0.1818179999999927,
            "durationTicks": 192,
            "midi": 43,
            "name": "G2",
            "ticks": 141360,
            "time": 133.8635025,
            "velocity": 0.4566929133858268
          },
          {
            "duration": 0.1818179999999927,
            "durationTicks": 192,
            "midi": 43,
            "name": "G2",
            "ticks": 141600,
            "time": 134.090775,
            "velocity": 0.4566929133858268
          },
          {
            "duration": 0.1818179999999927,
            "durationTicks": 192,
            "midi": 43,
            "name": "G2",
            "ticks": 141840,
            "time": 134.3180475,
            "velocity": 0.4566929133858268
          },
          {
            "duration": 0.1818179999999927,
            "durationTicks": 192,
            "midi": 43,
            "name": "G2",
            "ticks": 142080,
            "time": 134.54532,
            "velocity": 0.4566929133858268
          },
          {
            "duration": 0.1818179999999927,
            "durationTicks": 192,
            "midi": 43,
            "name": "G2",
            "ticks": 142320,
            "time": 134.7725925,
            "velocity": 0.4566929133858268
          },
          {
            "duration": 0.1818179999999927,
            "durationTicks": 192,
            "midi": 43,
            "name": "G2",
            "ticks": 142560,
            "time": 134.999865,
            "velocity": 0.4566929133858268
          },
          {
            "duration": 0.1818179999999927,
            "durationTicks": 192,
            "midi": 43,
            "name": "G2",
            "ticks": 142800,
            "time": 135.2271375,
            "velocity": 0.4566929133858268
          },
          {
            "duration": 0.1818179999999927,
            "durationTicks": 192,
            "midi": 43,
            "name": "G2",
            "ticks": 143040,
            "time": 135.45441,
            "velocity": 0.4566929133858268
          },
          {
            "duration": 0.1818179999999927,
            "durationTicks": 192,
            "midi": 43,
            "name": "G2",
            "ticks": 143280,
            "time": 135.6816825,
            "velocity": 0.5669291338582677
          },
          {
            "duration": 0.1818179999999927,
            "durationTicks": 192,
            "midi": 43,
            "name": "G2",
            "ticks": 143520,
            "time": 135.908955,
            "velocity": 0.5669291338582677
          },
          {
            "duration": 0.1818179999999927,
            "durationTicks": 192,
            "midi": 43,
            "name": "G2",
            "ticks": 143760,
            "time": 136.1362275,
            "velocity": 0.5669291338582677
          },
          {
            "duration": 0.1818179999999927,
            "durationTicks": 192,
            "midi": 43,
            "name": "G2",
            "ticks": 144000,
            "time": 136.3635,
            "velocity": 0.5669291338582677
          },
          {
            "duration": 0.18181799999996429,
            "durationTicks": 192,
            "midi": 43,
            "name": "G2",
            "ticks": 144240,
            "time": 136.5907725,
            "velocity": 0.6377952755905512
          },
          {
            "duration": 0.1818179999999927,
            "durationTicks": 192,
            "midi": 42,
            "name": "F#2",
            "ticks": 144480,
            "time": 136.818045,
            "velocity": 0.6377952755905512
          },
          {
            "duration": 0.1818179999999927,
            "durationTicks": 192,
            "midi": 42,
            "name": "F#2",
            "ticks": 144720,
            "time": 137.0453175,
            "velocity": 0.6377952755905512
          },
          {
            "duration": 0.1818179999999927,
            "durationTicks": 192,
            "midi": 43,
            "name": "G2",
            "ticks": 144960,
            "time": 137.27259,
            "velocity": 0.6377952755905512
          },
          {
            "duration": 0.1818179999999927,
            "durationTicks": 192,
            "midi": 43,
            "name": "G2",
            "ticks": 145200,
            "time": 137.4998625,
            "velocity": 0.7244094488188977
          },
          {
            "duration": 0.1818179999999927,
            "durationTicks": 192,
            "midi": 40,
            "name": "E2",
            "ticks": 145440,
            "time": 137.727135,
            "velocity": 0.8267716535433071
          },
          {
            "duration": 0.1818179999999927,
            "durationTicks": 192,
            "midi": 40,
            "name": "E2",
            "ticks": 145680,
            "time": 137.9544075,
            "velocity": 0.8267716535433071
          },
          {
            "duration": 0.1818179999999927,
            "durationTicks": 192,
            "midi": 38,
            "name": "D2",
            "ticks": 145920,
            "time": 138.18168,
            "velocity": 0.8267716535433071
          },
          {
            "duration": 0.1818179999999927,
            "durationTicks": 192,
            "midi": 38,
            "name": "D2",
            "ticks": 146160,
            "time": 138.4089525,
            "velocity": 0.8267716535433071
          },
          {
            "duration": 0.1818179999999927,
            "durationTicks": 192,
            "midi": 38,
            "name": "D2",
            "ticks": 146400,
            "time": 138.636225,
            "velocity": 0.8267716535433071
          },
          {
            "duration": 0.1818179999999927,
            "durationTicks": 192,
            "midi": 38,
            "name": "D2",
            "ticks": 146640,
            "time": 138.8634975,
            "velocity": 0.8267716535433071
          },
          {
            "duration": 0.1818179999999927,
            "durationTicks": 192,
            "midi": 38,
            "name": "D2",
            "ticks": 146880,
            "time": 139.09077,
            "velocity": 0.8267716535433071
          },
          {
            "duration": 0.1818179999999927,
            "durationTicks": 192,
            "midi": 38,
            "name": "D2",
            "ticks": 147120,
            "time": 139.3180425,
            "velocity": 0.8267716535433071
          },
          {
            "duration": 0.1818179999999927,
            "durationTicks": 192,
            "midi": 38,
            "name": "D2",
            "ticks": 147360,
            "time": 139.545315,
            "velocity": 0.8267716535433071
          },
          {
            "duration": 0.18181799999996429,
            "durationTicks": 192,
            "midi": 38,
            "name": "D2",
            "ticks": 147600,
            "time": 139.77258750000001,
            "velocity": 0.8267716535433071
          },
          {
            "duration": 0.1818179999999927,
            "durationTicks": 192,
            "midi": 38,
            "name": "D2",
            "ticks": 147840,
            "time": 139.99986,
            "velocity": 0.8267716535433071
          },
          {
            "duration": 0.1818179999999927,
            "durationTicks": 192,
            "midi": 38,
            "name": "D2",
            "ticks": 148080,
            "time": 140.2271325,
            "velocity": 0.8267716535433071
          },
          {
            "duration": 0.1818179999999927,
            "durationTicks": 192,
            "midi": 38,
            "name": "D2",
            "ticks": 148320,
            "time": 140.454405,
            "velocity": 0.8267716535433071
          },
          {
            "duration": 0.1818179999999927,
            "durationTicks": 192,
            "midi": 38,
            "name": "D2",
            "ticks": 148560,
            "time": 140.6816775,
            "velocity": 0.8267716535433071
          },
          {
            "duration": 0.1818179999999927,
            "durationTicks": 192,
            "midi": 38,
            "name": "D2",
            "ticks": 148800,
            "time": 140.90895,
            "velocity": 0.8267716535433071
          },
          {
            "duration": 0.1818179999999927,
            "durationTicks": 192,
            "midi": 38,
            "name": "D2",
            "ticks": 149040,
            "time": 141.1362225,
            "velocity": 0.8267716535433071
          },
          {
            "duration": 0.1818179999999927,
            "durationTicks": 192,
            "midi": 38,
            "name": "D2",
            "ticks": 149280,
            "time": 141.363495,
            "velocity": 0.8267716535433071
          },
          {
            "duration": 0.1818179999999927,
            "durationTicks": 192,
            "midi": 38,
            "name": "D2",
            "ticks": 149520,
            "time": 141.5907675,
            "velocity": 0.8267716535433071
          },
          {
            "duration": 0.14772712499998875,
            "durationTicks": 156,
            "midi": 38,
            "name": "D2",
            "ticks": 149760,
            "time": 141.81804,
            "velocity": 0.8267716535433071
          },
          {
            "duration": 0.14772712499998875,
            "durationTicks": 156,
            "midi": 40,
            "name": "E2",
            "ticks": 150000,
            "time": 142.0453125,
            "velocity": 0.8267716535433071
          },
          {
            "duration": 0.14772712500001717,
            "durationTicks": 156,
            "midi": 42,
            "name": "F#2",
            "ticks": 150240,
            "time": 142.272585,
            "velocity": 0.8267716535433071
          },
          {
            "duration": 0.14772712500001717,
            "durationTicks": 156,
            "midi": 40,
            "name": "E2",
            "ticks": 150480,
            "time": 142.4998575,
            "velocity": 0.8267716535433071
          },
          {
            "duration": 0.14772712500001717,
            "durationTicks": 156,
            "midi": 38,
            "name": "D2",
            "ticks": 150720,
            "time": 142.72713,
            "velocity": 0.8267716535433071
          },
          {
            "duration": 0.14772712499998875,
            "durationTicks": 156,
            "midi": 40,
            "name": "E2",
            "ticks": 150960,
            "time": 142.95440250000001,
            "velocity": 0.8267716535433071
          },
          {
            "duration": 0.14772712499998875,
            "durationTicks": 156,
            "midi": 42,
            "name": "F#2",
            "ticks": 151200,
            "time": 143.181675,
            "velocity": 0.8267716535433071
          },
          {
            "duration": 0.14772712499998875,
            "durationTicks": 156,
            "midi": 38,
            "name": "D2",
            "ticks": 151440,
            "time": 143.4089475,
            "velocity": 0.8267716535433071
          },
          {
            "duration": 0.14772712499998875,
            "durationTicks": 156,
            "midi": 43,
            "name": "G2",
            "ticks": 151680,
            "time": 143.63622,
            "velocity": 0.8267716535433071
          },
          {
            "duration": 0.14772712499998875,
            "durationTicks": 156,
            "midi": 45,
            "name": "A2",
            "ticks": 151920,
            "time": 143.8634925,
            "velocity": 0.8267716535433071
          },
          {
            "duration": 0.14772712499998875,
            "durationTicks": 156,
            "midi": 47,
            "name": "B2",
            "ticks": 152160,
            "time": 144.090765,
            "velocity": 0.8267716535433071
          },
          {
            "duration": 0.14772712499998875,
            "durationTicks": 156,
            "midi": 45,
            "name": "A2",
            "ticks": 152400,
            "time": 144.3180375,
            "velocity": 0.8267716535433071
          },
          {
            "duration": 0.14772712499998875,
            "durationTicks": 156,
            "midi": 43,
            "name": "G2",
            "ticks": 152640,
            "time": 144.54531,
            "velocity": 0.8267716535433071
          },
          {
            "duration": 0.14772712499998875,
            "durationTicks": 156,
            "midi": 45,
            "name": "A2",
            "ticks": 152880,
            "time": 144.7725825,
            "velocity": 0.8267716535433071
          },
          {
            "duration": 0.14772712499998875,
            "durationTicks": 156,
            "midi": 47,
            "name": "B2",
            "ticks": 153120,
            "time": 144.999855,
            "velocity": 0.8267716535433071
          },
          {
            "duration": 0.14772712499998875,
            "durationTicks": 156,
            "midi": 44,
            "name": "G#2",
            "ticks": 153360,
            "time": 145.2271275,
            "velocity": 0.8267716535433071
          },
          {
            "duration": 0.14772712500001717,
            "durationTicks": 156,
            "midi": 45,
            "name": "A2",
            "ticks": 153600,
            "time": 145.4544,
            "velocity": 0.8267716535433071
          },
          {
            "duration": 0.14772712500001717,
            "durationTicks": 156,
            "midi": 45,
            "name": "A2",
            "ticks": 153840,
            "time": 145.6816725,
            "velocity": 0.8267716535433071
          },
          {
            "duration": 0.14772712500001717,
            "durationTicks": 156,
            "midi": 45,
            "name": "A2",
            "ticks": 154080,
            "time": 145.908945,
            "velocity": 0.8267716535433071
          },
          {
            "duration": 0.14772712499998875,
            "durationTicks": 156,
            "midi": 45,
            "name": "A2",
            "ticks": 154320,
            "time": 146.13621750000001,
            "velocity": 0.8267716535433071
          },
          {
            "duration": 0.14772712499998875,
            "durationTicks": 156,
            "midi": 45,
            "name": "A2",
            "ticks": 154560,
            "time": 146.36349,
            "velocity": 0.8267716535433071
          },
          {
            "duration": 0.14772712499998875,
            "durationTicks": 156,
            "midi": 45,
            "name": "A2",
            "ticks": 154800,
            "time": 146.5907625,
            "velocity": 0.8267716535433071
          },
          {
            "duration": 0.14772712499998875,
            "durationTicks": 156,
            "midi": 45,
            "name": "A2",
            "ticks": 155040,
            "time": 146.818035,
            "velocity": 0.8267716535433071
          },
          {
            "duration": 0.14772712499998875,
            "durationTicks": 156,
            "midi": 45,
            "name": "A2",
            "ticks": 155280,
            "time": 147.0453075,
            "velocity": 0.8267716535433071
          },
          {
            "duration": 0.14772712499998875,
            "durationTicks": 156,
            "midi": 45,
            "name": "A2",
            "ticks": 155520,
            "time": 147.27258,
            "velocity": 0.8267716535433071
          },
          {
            "duration": 0.14772712499998875,
            "durationTicks": 156,
            "midi": 33,
            "name": "A1",
            "ticks": 155760,
            "time": 147.4998525,
            "velocity": 0.8267716535433071
          },
          {
            "duration": 0.14772712499998875,
            "durationTicks": 156,
            "midi": 33,
            "name": "A1",
            "ticks": 156000,
            "time": 147.727125,
            "velocity": 0.8267716535433071
          },
          {
            "duration": 0.14772712499998875,
            "durationTicks": 156,
            "midi": 33,
            "name": "A1",
            "ticks": 156240,
            "time": 147.9543975,
            "velocity": 0.8267716535433071
          },
          {
            "duration": 0.36363600000001384,
            "durationTicks": 384,
            "midi": 33,
            "name": "A1",
            "ticks": 156480,
            "time": 148.18167,
            "velocity": 0.7244094488188977
          },
          {
            "duration": 0.1818179999999927,
            "durationTicks": 192,
            "midi": 39,
            "name": "D#2",
            "ticks": 158880,
            "time": 150.454395,
            "velocity": 0.4566929133858268
          },
          {
            "duration": 0.1818179999999927,
            "durationTicks": 192,
            "midi": 40,
            "name": "E2",
            "ticks": 159360,
            "time": 150.90894,
            "velocity": 0.4566929133858268
          },
          {
            "duration": 0.1818179999999927,
            "durationTicks": 192,
            "midi": 38,
            "name": "D2",
            "ticks": 159840,
            "time": 151.363485,
            "velocity": 0.4566929133858268
          },
          {
            "duration": 0.1818179999999927,
            "durationTicks": 192,
            "midi": 37,
            "name": "C#2",
            "ticks": 160320,
            "time": 151.81803,
            "velocity": 0.4566929133858268
          },
          {
            "duration": 0.1818179999999927,
            "durationTicks": 192,
            "midi": 33,
            "name": "A1",
            "ticks": 160800,
            "time": 152.272575,
            "velocity": 0.4566929133858268
          },
          {
            "duration": 0.3636359999999854,
            "durationTicks": 384,
            "midi": 34,
            "name": "A#1",
            "ticks": 161760,
            "time": 153.181665,
            "velocity": 0.4566929133858268
          },
          {
            "duration": 0.1818179999999927,
            "durationTicks": 192,
            "midi": 35,
            "name": "B1",
            "ticks": 162240,
            "time": 153.63621,
            "velocity": 0.4566929133858268
          },
          {
            "duration": 0.1818179999999927,
            "durationTicks": 192,
            "midi": 31,
            "name": "G1",
            "ticks": 162720,
            "time": 154.090755,
            "velocity": 0.4566929133858268
          },
          {
            "duration": 0.36363600000001384,
            "durationTicks": 384,
            "midi": 33,
            "name": "A1",
            "ticks": 163200,
            "time": 154.5453,
            "velocity": 0.4566929133858268
          },
          {
            "duration": 0.6818175000000224,
            "durationTicks": 720,
            "midi": 45,
            "name": "A2",
            "ticks": 163680,
            "time": 154.999845,
            "velocity": 0.4566929133858268
          },
          {
            "duration": 0.227272499999998,
            "durationTicks": 240,
            "midi": 44,
            "name": "G#2",
            "ticks": 164400,
            "time": 155.68166250000002,
            "velocity": 0.4566929133858268
          },
          {
            "duration": 0.227272499999998,
            "durationTicks": 240,
            "midi": 43,
            "name": "G2",
            "ticks": 164640,
            "time": 155.908935,
            "velocity": 0.4566929133858268
          },
          {
            "duration": 0.227272499999998,
            "durationTicks": 240,
            "midi": 40,
            "name": "E2",
            "ticks": 164880,
            "time": 156.1362075,
            "velocity": 0.4566929133858268
          },
          {
            "duration": 0.1818179999999927,
            "durationTicks": 192,
            "midi": 38,
            "name": "D2",
            "ticks": 165120,
            "time": 156.36348,
            "velocity": 0.4566929133858268
          },
          {
            "duration": 0.1818179999999927,
            "durationTicks": 192,
            "midi": 40,
            "name": "E2",
            "ticks": 165600,
            "time": 156.818025,
            "velocity": 0.4566929133858268
          },
          {
            "duration": 0.1818179999999927,
            "durationTicks": 192,
            "midi": 42,
            "name": "F#2",
            "ticks": 166080,
            "time": 157.27257,
            "velocity": 0.4566929133858268
          },
          {
            "duration": 0.1818179999999927,
            "durationTicks": 192,
            "midi": 39,
            "name": "D#2",
            "ticks": 166560,
            "time": 157.727115,
            "velocity": 0.4566929133858268
          },
          {
            "duration": 0.1818179999999927,
            "durationTicks": 192,
            "midi": 40,
            "name": "E2",
            "ticks": 167040,
            "time": 158.18166,
            "velocity": 0.4566929133858268
          },
          {
            "duration": 0.1818179999999927,
            "durationTicks": 192,
            "midi": 38,
            "name": "D2",
            "ticks": 167520,
            "time": 158.636205,
            "velocity": 0.4566929133858268
          },
          {
            "duration": 0.1818179999999927,
            "durationTicks": 192,
            "midi": 37,
            "name": "C#2",
            "ticks": 168000,
            "time": 159.09075,
            "velocity": 0.4566929133858268
          },
          {
            "duration": 0.1818179999999927,
            "durationTicks": 192,
            "midi": 33,
            "name": "A1",
            "ticks": 168480,
            "time": 159.545295,
            "velocity": 0.4566929133858268
          },
          {
            "duration": 0.1818179999999927,
            "durationTicks": 192,
            "midi": 35,
            "name": "B1",
            "ticks": 168960,
            "time": 159.99984,
            "velocity": 0.4566929133858268
          },
          {
            "duration": 0.1818179999999927,
            "durationTicks": 192,
            "midi": 43,
            "name": "G2",
            "ticks": 169440,
            "time": 160.454385,
            "velocity": 0.4566929133858268
          },
          {
            "duration": 0.1818179999999927,
            "durationTicks": 192,
            "midi": 45,
            "name": "A2",
            "ticks": 169920,
            "time": 160.90893,
            "velocity": 0.4566929133858268
          },
          {
            "duration": 0.1818179999999927,
            "durationTicks": 192,
            "midi": 33,
            "name": "A1",
            "ticks": 170400,
            "time": 161.363475,
            "velocity": 0.4566929133858268
          },
          {
            "duration": 0.36363600000001384,
            "durationTicks": 384,
            "midi": 38,
            "name": "D2",
            "ticks": 170880,
            "time": 161.81802,
            "velocity": 0.4566929133858268
          },
          {
            "duration": 0.36363600000001384,
            "durationTicks": 384,
            "midi": 33,
            "name": "A1",
            "ticks": 172800,
            "time": 163.6362,
            "velocity": 0.4566929133858268
          },
          {
            "duration": 0.3636359999999854,
            "durationTicks": 384,
            "midi": 38,
            "name": "D2",
            "ticks": 174720,
            "time": 165.45438000000001,
            "velocity": 0.4566929133858268
          },
          {
            "duration": 0.36363600000001384,
            "durationTicks": 384,
            "midi": 33,
            "name": "A1",
            "ticks": 176640,
            "time": 167.27256,
            "velocity": 0.4566929133858268
          },
          {
            "duration": 0.14772712499998875,
            "durationTicks": 156,
            "midi": 38,
            "name": "D2",
            "ticks": 178800,
            "time": 169.3180125,
            "velocity": 0.8267716535433071
          },
          {
            "duration": 0.14772712499998875,
            "durationTicks": 156,
            "midi": 42,
            "name": "F#2",
            "ticks": 179040,
            "time": 169.545285,
            "velocity": 0.8267716535433071
          },
          {
            "duration": 0.14772712499998875,
            "durationTicks": 156,
            "midi": 40,
            "name": "E2",
            "ticks": 179280,
            "time": 169.7725575,
            "velocity": 0.8267716535433071
          },
          {
            "duration": 0.14772712499998875,
            "durationTicks": 156,
            "midi": 39,
            "name": "D#2",
            "ticks": 179520,
            "time": 169.99983,
            "velocity": 0.8267716535433071
          },
          {
            "duration": 0.14772712499998875,
            "durationTicks": 156,
            "midi": 35,
            "name": "B1",
            "ticks": 179760,
            "time": 170.2271025,
            "velocity": 0.8267716535433071
          },
          {
            "duration": 0.14772712499998875,
            "durationTicks": 156,
            "midi": 37,
            "name": "C#2",
            "ticks": 180000,
            "time": 170.454375,
            "velocity": 0.8267716535433071
          },
          {
            "duration": 0.14772712499998875,
            "durationTicks": 156,
            "midi": 39,
            "name": "D#2",
            "ticks": 180240,
            "time": 170.6816475,
            "velocity": 0.8267716535433071
          },
          {
            "duration": 0.14772712500001717,
            "durationTicks": 156,
            "midi": 40,
            "name": "E2",
            "ticks": 180480,
            "time": 170.90892,
            "velocity": 0.8267716535433071
          },
          {
            "duration": 0.14772712500001717,
            "durationTicks": 156,
            "midi": 43,
            "name": "G2",
            "ticks": 180720,
            "time": 171.1361925,
            "velocity": 0.8267716535433071
          },
          {
            "duration": 0.14772712500001717,
            "durationTicks": 156,
            "midi": 40,
            "name": "E2",
            "ticks": 180960,
            "time": 171.363465,
            "velocity": 0.8267716535433071
          },
          {
            "duration": 0.14772712499998875,
            "durationTicks": 156,
            "midi": 38,
            "name": "D2",
            "ticks": 181200,
            "time": 171.59073750000002,
            "velocity": 0.8267716535433071
          },
          {
            "duration": 0.14772712499998875,
            "durationTicks": 156,
            "midi": 37,
            "name": "C#2",
            "ticks": 181440,
            "time": 171.81801000000002,
            "velocity": 0.8267716535433071
          },
          {
            "duration": 0.14772712499998875,
            "durationTicks": 156,
            "midi": 33,
            "name": "A1",
            "ticks": 181680,
            "time": 172.0452825,
            "velocity": 0.8267716535433071
          },
          {
            "duration": 0.14772712499998875,
            "durationTicks": 156,
            "midi": 35,
            "name": "B1",
            "ticks": 181920,
            "time": 172.272555,
            "velocity": 0.8267716535433071
          },
          {
            "duration": 0.14772712499998875,
            "durationTicks": 156,
            "midi": 37,
            "name": "C#2",
            "ticks": 182160,
            "time": 172.4998275,
            "velocity": 0.8267716535433071
          },
          {
            "duration": 0.14772712499998875,
            "durationTicks": 156,
            "midi": 38,
            "name": "D2",
            "ticks": 182400,
            "time": 172.7271,
            "velocity": 0.8267716535433071
          },
          {
            "duration": 0.14772712499998875,
            "durationTicks": 156,
            "midi": 38,
            "name": "D2",
            "ticks": 182640,
            "time": 172.9543725,
            "velocity": 0.8267716535433071
          },
          {
            "duration": 0.14772712499998875,
            "durationTicks": 156,
            "midi": 40,
            "name": "E2",
            "ticks": 182880,
            "time": 173.181645,
            "velocity": 0.8267716535433071
          },
          {
            "duration": 0.14772712499998875,
            "durationTicks": 156,
            "midi": 42,
            "name": "F#2",
            "ticks": 183120,
            "time": 173.4089175,
            "velocity": 0.8267716535433071
          },
          {
            "duration": 0.14772712499998875,
            "durationTicks": 156,
            "midi": 43,
            "name": "G2",
            "ticks": 183360,
            "time": 173.63619,
            "velocity": 0.8267716535433071
          },
          {
            "duration": 0.14772712499998875,
            "durationTicks": 156,
            "midi": 43,
            "name": "G2",
            "ticks": 183600,
            "time": 173.8634625,
            "velocity": 0.8267716535433071
          },
          {
            "duration": 0.14772712500001717,
            "durationTicks": 156,
            "midi": 43,
            "name": "G2",
            "ticks": 183840,
            "time": 174.090735,
            "velocity": 0.8267716535433071
          },
          {
            "duration": 0.14772712500001717,
            "durationTicks": 156,
            "midi": 43,
            "name": "G2",
            "ticks": 184080,
            "time": 174.3180075,
            "velocity": 0.8267716535433071
          },
          {
            "duration": 0.14772712500001717,
            "durationTicks": 156,
            "midi": 45,
            "name": "A2",
            "ticks": 184320,
            "time": 174.54528,
            "velocity": 0.8267716535433071
          },
          {
            "duration": 0.14772712499998875,
            "durationTicks": 156,
            "midi": 45,
            "name": "A2",
            "ticks": 184560,
            "time": 174.77255250000002,
            "velocity": 0.8267716535433071
          },
          {
            "duration": 0.14772712499998875,
            "durationTicks": 156,
            "midi": 45,
            "name": "A2",
            "ticks": 184800,
            "time": 174.99982500000002,
            "velocity": 0.8267716535433071
          },
          {
            "duration": 0.14772712499998875,
            "durationTicks": 156,
            "midi": 45,
            "name": "A2",
            "ticks": 185040,
            "time": 175.2270975,
            "velocity": 0.8267716535433071
          },
          {
            "duration": 0.14772712499998875,
            "durationTicks": 156,
            "midi": 33,
            "name": "A1",
            "ticks": 185280,
            "time": 175.45437,
            "velocity": 0.8267716535433071
          },
          {
            "duration": 0.14772712499998875,
            "durationTicks": 156,
            "midi": 33,
            "name": "A1",
            "ticks": 185520,
            "time": 175.6816425,
            "velocity": 0.8267716535433071
          },
          {
            "duration": 0.14772712499998875,
            "durationTicks": 156,
            "midi": 33,
            "name": "A1",
            "ticks": 185760,
            "time": 175.908915,
            "velocity": 0.8267716535433071
          },
          {
            "duration": 0.14772712499998875,
            "durationTicks": 156,
            "midi": 33,
            "name": "A1",
            "ticks": 186000,
            "time": 176.1361875,
            "velocity": 0.8267716535433071
          },
          {
            "duration": 0.36363600000001384,
            "durationTicks": 384,
            "midi": 38,
            "name": "D2",
            "ticks": 186240,
            "time": 176.36346,
            "velocity": 0.7244094488188977
          },
          {
            "duration": 0.3636359999999854,
            "durationTicks": 384,
            "midi": 33,
            "name": "A1",
            "ticks": 188160,
            "time": 178.18164000000002,
            "velocity": 0.4566929133858268
          },
          {
            "duration": 0.36363600000001384,
            "durationTicks": 384,
            "midi": 38,
            "name": "D2",
            "ticks": 190080,
            "time": 179.99982,
            "velocity": 0.4566929133858268
          },
          {
            "duration": 0.3636359999999854,
            "durationTicks": 384,
            "midi": 33,
            "name": "A1",
            "ticks": 192000,
            "time": 181.818,
            "velocity": 0.4566929133858268
          },
          {
            "duration": 0.14772712500001717,
            "durationTicks": 156,
            "midi": 38,
            "name": "D2",
            "ticks": 194160,
            "time": 183.8634525,
            "velocity": 0.8267716535433071
          },
          {
            "duration": 0.14772712500001717,
            "durationTicks": 156,
            "midi": 42,
            "name": "F#2",
            "ticks": 194400,
            "time": 184.090725,
            "velocity": 0.8267716535433071
          },
          {
            "duration": 0.14772712499998875,
            "durationTicks": 156,
            "midi": 40,
            "name": "E2",
            "ticks": 194640,
            "time": 184.31799750000002,
            "velocity": 0.8267716535433071
          },
          {
            "duration": 0.14772712499998875,
            "durationTicks": 156,
            "midi": 39,
            "name": "D#2",
            "ticks": 194880,
            "time": 184.54527000000002,
            "velocity": 0.8267716535433071
          },
          {
            "duration": 0.14772712499998875,
            "durationTicks": 156,
            "midi": 35,
            "name": "B1",
            "ticks": 195120,
            "time": 184.77254250000001,
            "velocity": 0.8267716535433071
          },
          {
            "duration": 0.14772712499998875,
            "durationTicks": 156,
            "midi": 37,
            "name": "C#2",
            "ticks": 195360,
            "time": 184.999815,
            "velocity": 0.8267716535433071
          },
          {
            "duration": 0.14772712499998875,
            "durationTicks": 156,
            "midi": 39,
            "name": "D#2",
            "ticks": 195600,
            "time": 185.2270875,
            "velocity": 0.8267716535433071
          },
          {
            "duration": 0.14772712499998875,
            "durationTicks": 156,
            "midi": 40,
            "name": "E2",
            "ticks": 195840,
            "time": 185.45436,
            "velocity": 0.8267716535433071
          },
          {
            "duration": 0.14772712499998875,
            "durationTicks": 156,
            "midi": 43,
            "name": "G2",
            "ticks": 196080,
            "time": 185.6816325,
            "velocity": 0.8267716535433071
          },
          {
            "duration": 0.14772712499998875,
            "durationTicks": 156,
            "midi": 40,
            "name": "E2",
            "ticks": 196320,
            "time": 185.908905,
            "velocity": 0.8267716535433071
          },
          {
            "duration": 0.14772712499998875,
            "durationTicks": 156,
            "midi": 38,
            "name": "D2",
            "ticks": 196560,
            "time": 186.1361775,
            "velocity": 0.8267716535433071
          },
          {
            "duration": 0.14772712499998875,
            "durationTicks": 156,
            "midi": 37,
            "name": "C#2",
            "ticks": 196800,
            "time": 186.36345,
            "velocity": 0.8267716535433071
          },
          {
            "duration": 0.14772712499998875,
            "durationTicks": 156,
            "midi": 33,
            "name": "A1",
            "ticks": 197040,
            "time": 186.5907225,
            "velocity": 0.8267716535433071
          },
          {
            "duration": 0.14772712500001717,
            "durationTicks": 156,
            "midi": 35,
            "name": "B1",
            "ticks": 197280,
            "time": 186.817995,
            "velocity": 0.8267716535433071
          },
          {
            "duration": 0.14772712500001717,
            "durationTicks": 156,
            "midi": 37,
            "name": "C#2",
            "ticks": 197520,
            "time": 187.0452675,
            "velocity": 0.8267716535433071
          },
          {
            "duration": 0.14772712500001717,
            "durationTicks": 156,
            "midi": 38,
            "name": "D2",
            "ticks": 197760,
            "time": 187.27254,
            "velocity": 0.8267716535433071
          },
          {
            "duration": 0.14772712499998875,
            "durationTicks": 156,
            "midi": 38,
            "name": "D2",
            "ticks": 198000,
            "time": 187.49981250000002,
            "velocity": 0.8267716535433071
          },
          {
            "duration": 0.14772712499998875,
            "durationTicks": 156,
            "midi": 40,
            "name": "E2",
            "ticks": 198240,
            "time": 187.72708500000002,
            "velocity": 0.8267716535433071
          },
          {
            "duration": 0.14772712499998875,
            "durationTicks": 156,
            "midi": 42,
            "name": "F#2",
            "ticks": 198480,
            "time": 187.95435750000001,
            "velocity": 0.8267716535433071
          },
          {
            "duration": 0.14772712499998875,
            "durationTicks": 156,
            "midi": 43,
            "name": "G2",
            "ticks": 198720,
            "time": 188.18163,
            "velocity": 0.8267716535433071
          },
          {
            "duration": 0.14772712499998875,
            "durationTicks": 156,
            "midi": 43,
            "name": "G2",
            "ticks": 198960,
            "time": 188.4089025,
            "velocity": 0.8267716535433071
          },
          {
            "duration": 0.14772712499998875,
            "durationTicks": 156,
            "midi": 43,
            "name": "G2",
            "ticks": 199200,
            "time": 188.636175,
            "velocity": 0.8267716535433071
          },
          {
            "duration": 0.14772712499998875,
            "durationTicks": 156,
            "midi": 43,
            "name": "G2",
            "ticks": 199440,
            "time": 188.8634475,
            "velocity": 0.8267716535433071
          },
          {
            "duration": 0.14772712499998875,
            "durationTicks": 156,
            "midi": 45,
            "name": "A2",
            "ticks": 199680,
            "time": 189.09072,
            "velocity": 0.8267716535433071
          },
          {
            "duration": 0.14772712499998875,
            "durationTicks": 156,
            "midi": 45,
            "name": "A2",
            "ticks": 199920,
            "time": 189.3179925,
            "velocity": 0.8267716535433071
          },
          {
            "duration": 0.14772712499998875,
            "durationTicks": 156,
            "midi": 45,
            "name": "A2",
            "ticks": 200160,
            "time": 189.545265,
            "velocity": 0.8267716535433071
          },
          {
            "duration": 0.14772712499998875,
            "durationTicks": 156,
            "midi": 45,
            "name": "A2",
            "ticks": 200400,
            "time": 189.7725375,
            "velocity": 0.8267716535433071
          },
          {
            "duration": 0.14772712500001717,
            "durationTicks": 156,
            "midi": 33,
            "name": "A1",
            "ticks": 200640,
            "time": 189.99981,
            "velocity": 0.8267716535433071
          },
          {
            "duration": 0.14772712500001717,
            "durationTicks": 156,
            "midi": 33,
            "name": "A1",
            "ticks": 200880,
            "time": 190.2270825,
            "velocity": 0.8267716535433071
          },
          {
            "duration": 0.14772712500001717,
            "durationTicks": 156,
            "midi": 33,
            "name": "A1",
            "ticks": 201120,
            "time": 190.454355,
            "velocity": 0.8267716535433071
          },
          {
            "duration": 0.14772712499998875,
            "durationTicks": 156,
            "midi": 33,
            "name": "A1",
            "ticks": 201360,
            "time": 190.68162750000002,
            "velocity": 0.8267716535433071
          },
          {
            "duration": 0.14772712499998875,
            "durationTicks": 156,
            "midi": 38,
            "name": "D2",
            "ticks": 201600,
            "time": 190.90890000000002,
            "velocity": 0.8267716535433071
          },
          {
            "duration": 0.14772712499998875,
            "durationTicks": 156,
            "midi": 33,
            "name": "A1",
            "ticks": 201840,
            "time": 191.13617250000001,
            "velocity": 0.8267716535433071
          },
          {
            "duration": 0.14772712499998875,
            "durationTicks": 156,
            "midi": 35,
            "name": "B1",
            "ticks": 202080,
            "time": 191.363445,
            "velocity": 0.8267716535433071
          },
          {
            "duration": 0.14772712499998875,
            "durationTicks": 156,
            "midi": 37,
            "name": "C#2",
            "ticks": 202320,
            "time": 191.5907175,
            "velocity": 0.8267716535433071
          },
          {
            "duration": 0.14772712499998875,
            "durationTicks": 156,
            "midi": 38,
            "name": "D2",
            "ticks": 202560,
            "time": 191.81799,
            "velocity": 0.8267716535433071
          },
          {
            "duration": 0.14772712499998875,
            "durationTicks": 156,
            "midi": 38,
            "name": "D2",
            "ticks": 202800,
            "time": 192.0452625,
            "velocity": 0.8267716535433071
          },
          {
            "duration": 0.14772712499998875,
            "durationTicks": 156,
            "midi": 40,
            "name": "E2",
            "ticks": 203040,
            "time": 192.272535,
            "velocity": 0.8267716535433071
          },
          {
            "duration": 0.14772712499998875,
            "durationTicks": 156,
            "midi": 40,
            "name": "E2",
            "ticks": 203280,
            "time": 192.4998075,
            "velocity": 0.8267716535433071
          },
          {
            "duration": 0.14772712499998875,
            "durationTicks": 156,
            "midi": 42,
            "name": "F#2",
            "ticks": 203520,
            "time": 192.72708,
            "velocity": 0.8267716535433071
          },
          {
            "duration": 0.14772712499998875,
            "durationTicks": 156,
            "midi": 37,
            "name": "C#2",
            "ticks": 203760,
            "time": 192.9543525,
            "velocity": 0.8267716535433071
          },
          {
            "duration": 0.14772712500001717,
            "durationTicks": 156,
            "midi": 38,
            "name": "D2",
            "ticks": 204000,
            "time": 193.181625,
            "velocity": 0.8267716535433071
          },
          {
            "duration": 0.14772712500001717,
            "durationTicks": 156,
            "midi": 40,
            "name": "E2",
            "ticks": 204240,
            "time": 193.4088975,
            "velocity": 0.8267716535433071
          },
          {
            "duration": 0.14772712500001717,
            "durationTicks": 156,
            "midi": 42,
            "name": "F#2",
            "ticks": 204480,
            "time": 193.63617,
            "velocity": 0.8267716535433071
          },
          {
            "duration": 0.14772712499998875,
            "durationTicks": 156,
            "midi": 42,
            "name": "F#2",
            "ticks": 204720,
            "time": 193.86344250000002,
            "velocity": 0.8267716535433071
          },
          {
            "duration": 0.14772712499998875,
            "durationTicks": 156,
            "midi": 43,
            "name": "G2",
            "ticks": 204960,
            "time": 194.09071500000002,
            "velocity": 0.8267716535433071
          },
          {
            "duration": 0.14772712499998875,
            "durationTicks": 156,
            "midi": 43,
            "name": "G2",
            "ticks": 205200,
            "time": 194.31798750000002,
            "velocity": 0.8267716535433071
          },
          {
            "duration": 0.14772712499998875,
            "durationTicks": 156,
            "midi": 45,
            "name": "A2",
            "ticks": 205440,
            "time": 194.54526,
            "velocity": 0.8267716535433071
          },
          {
            "duration": 0.14772712499998875,
            "durationTicks": 156,
            "midi": 45,
            "name": "A2",
            "ticks": 205680,
            "time": 194.7725325,
            "velocity": 0.8267716535433071
          },
          {
            "duration": 0.14772712499998875,
            "durationTicks": 156,
            "midi": 46,
            "name": "A#2",
            "ticks": 205920,
            "time": 194.999805,
            "velocity": 0.8267716535433071
          },
          {
            "duration": 0.14772712499998875,
            "durationTicks": 156,
            "midi": 46,
            "name": "A#2",
            "ticks": 206160,
            "time": 195.2270775,
            "velocity": 0.8267716535433071
          },
          {
            "duration": 0.36363600000001384,
            "durationTicks": 384,
            "midi": 47,
            "name": "B2",
            "ticks": 206400,
            "time": 195.45435,
            "velocity": 0.7244094488188977
          },
          {
            "duration": 0.9090900000000204,
            "durationTicks": 960,
            "midi": 43,
            "name": "G2",
            "ticks": 207360,
            "time": 196.36344,
            "velocity": 0.4566929133858268
          },
          {
            "duration": 0.8636354999999867,
            "durationTicks": 912,
            "midi": 45,
            "name": "A2",
            "ticks": 208320,
            "time": 197.27253000000002,
            "velocity": 0.4566929133858268
          },
          {
            "duration": 0.1818179999999927,
            "durationTicks": 192,
            "midi": 38,
            "name": "D2",
            "ticks": 209280,
            "time": 198.18162,
            "velocity": 0.4566929133858268
          },
          {
            "duration": 0.1818179999999927,
            "durationTicks": 192,
            "midi": 38,
            "name": "D2",
            "ticks": 209760,
            "time": 198.636165,
            "velocity": 0.4566929133858268
          },
          {
            "duration": 0.1818179999999927,
            "durationTicks": 192,
            "midi": 38,
            "name": "D2",
            "ticks": 210240,
            "time": 199.09071,
            "velocity": 0.4566929133858268
          },
          {
            "duration": 0.36363600000001384,
            "durationTicks": 384,
            "midi": 38,
            "name": "D2",
            "ticks": 211200,
            "time": 199.9998,
            "velocity": 0.8267716535433071
          },
          {
            "duration": 0.13636349999998743,
            "durationTicks": 144,
            "midi": 33,
            "name": "A1",
            "ticks": 211920,
            "time": 200.68161750000002,
            "velocity": 0.8267716535433071
          },
          {
            "duration": 0.3636359999999854,
            "durationTicks": 384,
            "midi": 38,
            "name": "D2",
            "ticks": 212160,
            "time": 200.90889,
            "velocity": 0.8267716535433071
          },
          {
            "duration": 0.13636350000001585,
            "durationTicks": 144,
            "midi": 33,
            "name": "A1",
            "ticks": 212880,
            "time": 201.5907075,
            "velocity": 0.8267716535433071
          },
          {
            "duration": 0.14772712499998875,
            "durationTicks": 156,
            "midi": 38,
            "name": "D2",
            "ticks": 213120,
            "time": 201.81798,
            "velocity": 0.8267716535433071
          },
          {
            "duration": 0.14772712499998875,
            "durationTicks": 156,
            "midi": 33,
            "name": "A1",
            "ticks": 213360,
            "time": 202.0452525,
            "velocity": 0.8267716535433071
          },
          {
            "duration": 0.14772712499998875,
            "durationTicks": 156,
            "midi": 38,
            "name": "D2",
            "ticks": 213600,
            "time": 202.272525,
            "velocity": 0.8267716535433071
          },
          {
            "duration": 0.14772712499998875,
            "durationTicks": 156,
            "midi": 42,
            "name": "F#2",
            "ticks": 213840,
            "time": 202.4997975,
            "velocity": 0.8267716535433071
          },
          {
            "duration": 0.36363600000001384,
            "durationTicks": 384,
            "midi": 45,
            "name": "A2",
            "ticks": 214080,
            "time": 202.72707,
            "velocity": 0.8267716535433071
          },
          {
            "duration": 0.3636359999999854,
            "durationTicks": 384,
            "midi": 45,
            "name": "A2",
            "ticks": 215040,
            "time": 203.63616000000002,
            "velocity": 0.8267716535433071
          },
          {
            "duration": 0.13636349999998743,
            "durationTicks": 144,
            "midi": 42,
            "name": "F#2",
            "ticks": 215760,
            "time": 204.3179775,
            "velocity": 0.8267716535433071
          },
          {
            "duration": 0.36363600000001384,
            "durationTicks": 384,
            "midi": 45,
            "name": "A2",
            "ticks": 216000,
            "time": 204.54525,
            "velocity": 0.8267716535433071
          },
          {
            "duration": 0.13636350000001585,
            "durationTicks": 144,
            "midi": 42,
            "name": "F#2",
            "ticks": 216720,
            "time": 205.2270675,
            "velocity": 0.8267716535433071
          },
          {
            "duration": 0.14772712499998875,
            "durationTicks": 156,
            "midi": 45,
            "name": "A2",
            "ticks": 216960,
            "time": 205.45434,
            "velocity": 0.8267716535433071
          },
          {
            "duration": 0.14772712499998875,
            "durationTicks": 156,
            "midi": 42,
            "name": "F#2",
            "ticks": 217200,
            "time": 205.6816125,
            "velocity": 0.8267716535433071
          },
          {
            "duration": 0.14772712500001717,
            "durationTicks": 156,
            "midi": 39,
            "name": "D#2",
            "ticks": 217440,
            "time": 205.908885,
            "velocity": 0.8267716535433071
          },
          {
            "duration": 0.14772712500001717,
            "durationTicks": 156,
            "midi": 42,
            "name": "F#2",
            "ticks": 217680,
            "time": 206.1361575,
            "velocity": 0.8267716535433071
          },
          {
            "duration": 0.36363600000001384,
            "durationTicks": 384,
            "midi": 35,
            "name": "B1",
            "ticks": 217920,
            "time": 206.36343,
            "velocity": 0.8267716535433071
          },
          {
            "duration": 0.3636359999999854,
            "durationTicks": 384,
            "midi": 36,
            "name": "C2",
            "ticks": 218880,
            "time": 207.27252000000001,
            "velocity": 0.4566929133858268
          },
          {
            "duration": 0.36363600000001384,
            "durationTicks": 384,
            "midi": 31,
            "name": "G1",
            "ticks": 220800,
            "time": 209.0907,
            "velocity": 0.4566929133858268
          },
          {
            "duration": 0.36363600000001384,
            "durationTicks": 384,
            "midi": 36,
            "name": "C2",
            "ticks": 222720,
            "time": 210.90888,
            "velocity": 0.4566929133858268
          },
          {
            "duration": 0.36363600000001384,
            "durationTicks": 384,
            "midi": 31,
            "name": "G1",
            "ticks": 224640,
            "time": 212.72706,
            "velocity": 0.4566929133858268
          },
          {
            "duration": 0.36363600000001384,
            "durationTicks": 384,
            "midi": 36,
            "name": "C2",
            "ticks": 226560,
            "time": 214.54524,
            "velocity": 0.4566929133858268
          },
          {
            "duration": 0.3636359999999854,
            "durationTicks": 384,
            "midi": 40,
            "name": "E2",
            "ticks": 228480,
            "time": 216.36342000000002,
            "velocity": 0.4566929133858268
          },
          {
            "duration": 0.36363600000001384,
            "durationTicks": 384,
            "midi": 33,
            "name": "A1",
            "ticks": 230400,
            "time": 218.1816,
            "velocity": 0.4566929133858268
          },
          {
            "duration": 0.3636359999999854,
            "durationTicks": 384,
            "midi": 38,
            "name": "D2",
            "ticks": 232320,
            "time": 219.99978000000002,
            "velocity": 0.4566929133858268
          },
          {
            "duration": 3.564390374999988,
            "durationTicks": 3764,
            "midi": 39,
            "name": "D#2",
            "ticks": 234240,
            "time": 221.81796,
            "velocity": 0.4566929133858268
          },
          {
            "duration": 0.36363600000001384,
            "durationTicks": 384,
            "midi": 38,
            "name": "D2",
            "ticks": 238080,
            "time": 225.45432,
            "velocity": 0.4566929133858268
          },
          {
            "duration": 0.227272499999998,
            "durationTicks": 240,
            "midi": 38,
            "name": "D2",
            "ticks": 238800,
            "time": 226.13613750000002,
            "velocity": 0.8267716535433071
          },
          {
            "duration": 0.227272499999998,
            "durationTicks": 240,
            "midi": 40,
            "name": "E2",
            "ticks": 239040,
            "time": 226.36341000000002,
            "velocity": 0.8267716535433071
          },
          {
            "duration": 0.227272499999998,
            "durationTicks": 240,
            "midi": 42,
            "name": "F#2",
            "ticks": 239280,
            "time": 226.5906825,
            "velocity": 0.8267716535433071
          },
          {
            "duration": 0.227272499999998,
            "durationTicks": 240,
            "midi": 43,
            "name": "G2",
            "ticks": 239520,
            "time": 226.817955,
            "velocity": 0.8267716535433071
          },
          {
            "duration": 0.227272499999998,
            "durationTicks": 240,
            "midi": 45,
            "name": "A2",
            "ticks": 239760,
            "time": 227.0452275,
            "velocity": 0.8267716535433071
          },
          {
            "duration": 0.227272499999998,
            "durationTicks": 240,
            "midi": 48,
            "name": "C3",
            "ticks": 240000,
            "time": 227.2725,
            "velocity": 0.8267716535433071
          },
          {
            "duration": 0.227272499999998,
            "durationTicks": 240,
            "midi": 46,
            "name": "A#2",
            "ticks": 240240,
            "time": 227.4997725,
            "velocity": 0.8267716535433071
          },
          {
            "duration": 0.227272499999998,
            "durationTicks": 240,
            "midi": 42,
            "name": "F#2",
            "ticks": 240720,
            "time": 227.9543175,
            "velocity": 0.8267716535433071
          },
          {
            "duration": 0.227272499999998,
            "durationTicks": 240,
            "midi": 43,
            "name": "G2",
            "ticks": 240960,
            "time": 228.18159,
            "velocity": 0.8267716535433071
          },
          {
            "duration": 0.227272499999998,
            "durationTicks": 240,
            "midi": 45,
            "name": "A2",
            "ticks": 241200,
            "time": 228.4088625,
            "velocity": 0.8267716535433071
          },
          {
            "duration": 0.2272725000000264,
            "durationTicks": 240,
            "midi": 46,
            "name": "A#2",
            "ticks": 241440,
            "time": 228.636135,
            "velocity": 0.8267716535433071
          },
          {
            "duration": 0.227272499999998,
            "durationTicks": 240,
            "midi": 49,
            "name": "C#3",
            "ticks": 241680,
            "time": 228.86340750000002,
            "velocity": 0.8267716535433071
          },
          {
            "duration": 0.227272499999998,
            "durationTicks": 240,
            "midi": 52,
            "name": "E3",
            "ticks": 241920,
            "time": 229.09068000000002,
            "velocity": 0.8267716535433071
          },
          {
            "duration": 0.1818179999999927,
            "durationTicks": 192,
            "midi": 50,
            "name": "D3",
            "ticks": 242160,
            "time": 229.31795250000002,
            "velocity": 0.8267716535433071
          },
          {
            "duration": 1.7272709999999734,
            "durationTicks": 1824,
            "midi": 38,
            "name": "D2",
            "ticks": 247680,
            "time": 234.54522,
            "velocity": 0.4566929133858268
          },
          {
            "duration": 0.3636359999999854,
            "durationTicks": 384,
            "midi": 43,
            "name": "G2",
            "ticks": 249600,
            "time": 236.3634,
            "velocity": 0.984251968503937
          },
          {
            "duration": 0.13636349999998743,
            "durationTicks": 144,
            "midi": 38,
            "name": "D2",
            "ticks": 250320,
            "time": 237.0452175,
            "velocity": 0.8267716535433071
          },
          {
            "duration": 0.3636359999999854,
            "durationTicks": 384,
            "midi": 43,
            "name": "G2",
            "ticks": 250560,
            "time": 237.27249,
            "velocity": 0.8267716535433071
          },
          {
            "duration": 0.13636349999998743,
            "durationTicks": 144,
            "midi": 38,
            "name": "D2",
            "ticks": 251280,
            "time": 237.9543075,
            "velocity": 0.8267716535433071
          },
          {
            "duration": 0.13636349999998743,
            "durationTicks": 144,
            "midi": 43,
            "name": "G2",
            "ticks": 251520,
            "time": 238.18158,
            "velocity": 0.8267716535433071
          },
          {
            "duration": 0.13636349999998743,
            "durationTicks": 144,
            "midi": 38,
            "name": "D2",
            "ticks": 251760,
            "time": 238.4088525,
            "velocity": 0.8267716535433071
          },
          {
            "duration": 0.136363499999959,
            "durationTicks": 144,
            "midi": 43,
            "name": "G2",
            "ticks": 252000,
            "time": 238.63612500000002,
            "velocity": 0.8267716535433071
          },
          {
            "duration": 0.136363499999959,
            "durationTicks": 144,
            "midi": 47,
            "name": "B2",
            "ticks": 252240,
            "time": 238.86339750000002,
            "velocity": 0.8267716535433071
          },
          {
            "duration": 0.363635999999957,
            "durationTicks": 384,
            "midi": 50,
            "name": "D3",
            "ticks": 252480,
            "time": 239.09067000000002,
            "velocity": 0.8267716535433071
          },
          {
            "duration": 0.3636359999999854,
            "durationTicks": 384,
            "midi": 48,
            "name": "C3",
            "ticks": 253440,
            "time": 239.99976,
            "velocity": 0.8267716535433071
          },
          {
            "duration": 0.13636349999998743,
            "durationTicks": 144,
            "midi": 45,
            "name": "A2",
            "ticks": 254160,
            "time": 240.6815775,
            "velocity": 0.8267716535433071
          },
          {
            "duration": 0.3636359999999854,
            "durationTicks": 384,
            "midi": 48,
            "name": "C3",
            "ticks": 254400,
            "time": 240.90885,
            "velocity": 0.8267716535433071
          },
          {
            "duration": 0.13636349999998743,
            "durationTicks": 144,
            "midi": 45,
            "name": "A2",
            "ticks": 255120,
            "time": 241.5906675,
            "velocity": 0.8267716535433071
          },
          {
            "duration": 0.136363499999959,
            "durationTicks": 144,
            "midi": 48,
            "name": "C3",
            "ticks": 255360,
            "time": 241.81794000000002,
            "velocity": 0.8267716535433071
          },
          {
            "duration": 0.136363499999959,
            "durationTicks": 144,
            "midi": 45,
            "name": "A2",
            "ticks": 255600,
            "time": 242.04521250000002,
            "velocity": 0.8267716535433071
          },
          {
            "duration": 0.136363499999959,
            "durationTicks": 144,
            "midi": 42,
            "name": "F#2",
            "ticks": 255840,
            "time": 242.27248500000002,
            "velocity": 0.8267716535433071
          },
          {
            "duration": 0.136363499999959,
            "durationTicks": 144,
            "midi": 45,
            "name": "A2",
            "ticks": 256080,
            "time": 242.49975750000002,
            "velocity": 0.8267716535433071
          },
          {
            "duration": 0.3636359999999854,
            "durationTicks": 384,
            "midi": 38,
            "name": "D2",
            "ticks": 256320,
            "time": 242.72703,
            "velocity": 0.8267716535433071
          },
          {
            "duration": 0.1818179999999927,
            "durationTicks": 192,
            "midi": 43,
            "name": "G2",
            "ticks": 257280,
            "time": 243.63612,
            "velocity": 0.8267716535433071
          },
          {
            "duration": 0.1818179999999927,
            "durationTicks": 192,
            "midi": 43,
            "name": "G2",
            "ticks": 257520,
            "time": 243.8633925,
            "velocity": 0.8267716535433071
          },
          {
            "duration": 0.1818179999999927,
            "durationTicks": 192,
            "midi": 43,
            "name": "G2",
            "ticks": 257760,
            "time": 244.090665,
            "velocity": 0.8267716535433071
          },
          {
            "duration": 0.1818179999999927,
            "durationTicks": 192,
            "midi": 43,
            "name": "G2",
            "ticks": 258000,
            "time": 244.3179375,
            "velocity": 0.8267716535433071
          },
          {
            "duration": 0.1818179999999927,
            "durationTicks": 192,
            "midi": 43,
            "name": "G2",
            "ticks": 258240,
            "time": 244.54521,
            "velocity": 0.8267716535433071
          },
          {
            "duration": 0.1818179999999927,
            "durationTicks": 192,
            "midi": 43,
            "name": "G2",
            "ticks": 258480,
            "time": 244.7724825,
            "velocity": 0.8267716535433071
          },
          {
            "duration": 0.18181799999996429,
            "durationTicks": 192,
            "midi": 43,
            "name": "G2",
            "ticks": 258720,
            "time": 244.99975500000002,
            "velocity": 0.8267716535433071
          },
          {
            "duration": 0.1818179999999927,
            "durationTicks": 192,
            "midi": 43,
            "name": "G2",
            "ticks": 258960,
            "time": 245.22702750000002,
            "velocity": 0.8267716535433071
          },
          {
            "duration": 0.1818179999999927,
            "durationTicks": 192,
            "midi": 43,
            "name": "G2",
            "ticks": 259200,
            "time": 245.45430000000002,
            "velocity": 0.8267716535433071
          },
          {
            "duration": 0.1818179999999927,
            "durationTicks": 192,
            "midi": 43,
            "name": "G2",
            "ticks": 259440,
            "time": 245.68157250000002,
            "velocity": 0.8267716535433071
          },
          {
            "duration": 0.1818179999999927,
            "durationTicks": 192,
            "midi": 43,
            "name": "G2",
            "ticks": 259680,
            "time": 245.908845,
            "velocity": 0.8267716535433071
          },
          {
            "duration": 0.1818179999999927,
            "durationTicks": 192,
            "midi": 43,
            "name": "G2",
            "ticks": 259920,
            "time": 246.1361175,
            "velocity": 0.8267716535433071
          },
          {
            "duration": 0.1818179999999927,
            "durationTicks": 192,
            "midi": 43,
            "name": "G2",
            "ticks": 260160,
            "time": 246.36339,
            "velocity": 0.8267716535433071
          },
          {
            "duration": 0.1818179999999927,
            "durationTicks": 192,
            "midi": 43,
            "name": "G2",
            "ticks": 260400,
            "time": 246.5906625,
            "velocity": 0.8267716535433071
          },
          {
            "duration": 0.1818179999999927,
            "durationTicks": 192,
            "midi": 43,
            "name": "G2",
            "ticks": 260640,
            "time": 246.817935,
            "velocity": 0.8267716535433071
          },
          {
            "duration": 0.1818179999999927,
            "durationTicks": 192,
            "midi": 43,
            "name": "G2",
            "ticks": 260880,
            "time": 247.0452075,
            "velocity": 0.8267716535433071
          },
          {
            "duration": 0.1818179999999927,
            "durationTicks": 192,
            "midi": 43,
            "name": "G2",
            "ticks": 261120,
            "time": 247.27248,
            "velocity": 0.8267716535433071
          },
          {
            "duration": 0.1818179999999927,
            "durationTicks": 192,
            "midi": 43,
            "name": "G2",
            "ticks": 261360,
            "time": 247.4997525,
            "velocity": 0.8267716535433071
          },
          {
            "duration": 0.1818179999999927,
            "durationTicks": 192,
            "midi": 43,
            "name": "G2",
            "ticks": 261600,
            "time": 247.727025,
            "velocity": 0.8267716535433071
          },
          {
            "duration": 0.1818179999999927,
            "durationTicks": 192,
            "midi": 43,
            "name": "G2",
            "ticks": 261840,
            "time": 247.9542975,
            "velocity": 0.8267716535433071
          },
          {
            "duration": 0.18181799999996429,
            "durationTicks": 192,
            "midi": 43,
            "name": "G2",
            "ticks": 262080,
            "time": 248.18157000000002,
            "velocity": 0.8267716535433071
          },
          {
            "duration": 0.1818179999999927,
            "durationTicks": 192,
            "midi": 43,
            "name": "G2",
            "ticks": 262320,
            "time": 248.40884250000002,
            "velocity": 0.8267716535433071
          },
          {
            "duration": 0.1818179999999927,
            "durationTicks": 192,
            "midi": 43,
            "name": "G2",
            "ticks": 262560,
            "time": 248.63611500000002,
            "velocity": 0.8267716535433071
          },
          {
            "duration": 0.1818179999999927,
            "durationTicks": 192,
            "midi": 43,
            "name": "G2",
            "ticks": 262800,
            "time": 248.86338750000002,
            "velocity": 0.8267716535433071
          },
          {
            "duration": 0.1818179999999927,
            "durationTicks": 192,
            "midi": 43,
            "name": "G2",
            "ticks": 263040,
            "time": 249.09066,
            "velocity": 0.8267716535433071
          },
          {
            "duration": 0.1818179999999927,
            "durationTicks": 192,
            "midi": 43,
            "name": "G2",
            "ticks": 263280,
            "time": 249.3179325,
            "velocity": 0.8267716535433071
          },
          {
            "duration": 0.1818179999999927,
            "durationTicks": 192,
            "midi": 43,
            "name": "G2",
            "ticks": 263520,
            "time": 249.545205,
            "velocity": 0.8267716535433071
          },
          {
            "duration": 0.1818179999999927,
            "durationTicks": 192,
            "midi": 43,
            "name": "G2",
            "ticks": 263760,
            "time": 249.7724775,
            "velocity": 0.8267716535433071
          },
          {
            "duration": 0.1818179999999927,
            "durationTicks": 192,
            "midi": 43,
            "name": "G2",
            "ticks": 264000,
            "time": 249.99975,
            "velocity": 0.8267716535433071
          },
          {
            "duration": 0.1818179999999927,
            "durationTicks": 192,
            "midi": 43,
            "name": "G2",
            "ticks": 264240,
            "time": 250.2270225,
            "velocity": 0.8267716535433071
          },
          {
            "duration": 0.1818179999999927,
            "durationTicks": 192,
            "midi": 43,
            "name": "G2",
            "ticks": 264480,
            "time": 250.454295,
            "velocity": 0.8267716535433071
          },
          {
            "duration": 0.1818179999999927,
            "durationTicks": 192,
            "midi": 43,
            "name": "G2",
            "ticks": 264720,
            "time": 250.6815675,
            "velocity": 0.8267716535433071
          },
          {
            "duration": 0.1818179999999927,
            "durationTicks": 192,
            "midi": 43,
            "name": "G2",
            "ticks": 264960,
            "time": 250.90884,
            "velocity": 0.8267716535433071
          },
          {
            "duration": 0.1818179999999927,
            "durationTicks": 192,
            "midi": 43,
            "name": "G2",
            "ticks": 265200,
            "time": 251.1361125,
            "velocity": 0.8267716535433071
          },
          {
            "duration": 0.18181799999996429,
            "durationTicks": 192,
            "midi": 45,
            "name": "A2",
            "ticks": 265440,
            "time": 251.36338500000002,
            "velocity": 0.8267716535433071
          },
          {
            "duration": 0.1818179999999927,
            "durationTicks": 192,
            "midi": 45,
            "name": "A2",
            "ticks": 265680,
            "time": 251.59065750000002,
            "velocity": 0.8267716535433071
          },
          {
            "duration": 0.1818179999999927,
            "durationTicks": 192,
            "midi": 47,
            "name": "B2",
            "ticks": 265920,
            "time": 251.81793000000002,
            "velocity": 0.8267716535433071
          },
          {
            "duration": 0.1818179999999927,
            "durationTicks": 192,
            "midi": 47,
            "name": "B2",
            "ticks": 266160,
            "time": 252.04520250000002,
            "velocity": 0.8267716535433071
          },
          {
            "duration": 0.1818179999999927,
            "durationTicks": 192,
            "midi": 42,
            "name": "F#2",
            "ticks": 266400,
            "time": 252.27247500000001,
            "velocity": 0.8267716535433071
          },
          {
            "duration": 0.1818179999999927,
            "durationTicks": 192,
            "midi": 42,
            "name": "F#2",
            "ticks": 266640,
            "time": 252.4997475,
            "velocity": 0.8267716535433071
          },
          {
            "duration": 0.1818179999999927,
            "durationTicks": 192,
            "midi": 43,
            "name": "G2",
            "ticks": 266880,
            "time": 252.72702,
            "velocity": 0.8267716535433071
          },
          {
            "duration": 0.1818179999999927,
            "durationTicks": 192,
            "midi": 43,
            "name": "G2",
            "ticks": 267120,
            "time": 252.9542925,
            "velocity": 0.8267716535433071
          },
          {
            "duration": 0.1818179999999927,
            "durationTicks": 192,
            "midi": 45,
            "name": "A2",
            "ticks": 267360,
            "time": 253.181565,
            "velocity": 0.8267716535433071
          },
          {
            "duration": 0.1818179999999927,
            "durationTicks": 192,
            "midi": 45,
            "name": "A2",
            "ticks": 267600,
            "time": 253.4088375,
            "velocity": 0.8267716535433071
          },
          {
            "duration": 0.3636359999999854,
            "durationTicks": 384,
            "midi": 47,
            "name": "B2",
            "ticks": 267840,
            "time": 253.63611,
            "velocity": 0.7244094488188977
          },
          {
            "duration": 0.909089999999992,
            "durationTicks": 960,
            "midi": 38,
            "name": "D2",
            "ticks": 270720,
            "time": 256.36338,
            "velocity": 0.4566929133858268
          },
          {
            "duration": 0.7272720000000277,
            "durationTicks": 768,
            "midi": 40,
            "name": "E2",
            "ticks": 271680,
            "time": 257.27247,
            "velocity": 0.4566929133858268
          },
          {
            "duration": 0.29545425000003434,
            "durationTicks": 312,
            "midi": 36,
            "name": "C2",
            "ticks": 272640,
            "time": 258.18156,
            "velocity": 0.4566929133858268
          },
          {
            "duration": 0.29545425000003434,
            "durationTicks": 312,
            "midi": 36,
            "name": "C2",
            "ticks": 273120,
            "time": 258.636105,
            "velocity": 0.4566929133858268
          },
          {
            "duration": 0.29545425000003434,
            "durationTicks": 312,
            "midi": 38,
            "name": "D2",
            "ticks": 273600,
            "time": 259.09065,
            "velocity": 0.4566929133858268
          },
          {
            "duration": 0.2954542499999775,
            "durationTicks": 312,
            "midi": 38,
            "name": "D2",
            "ticks": 274080,
            "time": 259.54519500000004,
            "velocity": 0.4566929133858268
          },
          {
            "duration": 0.14772712500001717,
            "durationTicks": 156,
            "midi": 35,
            "name": "B1",
            "ticks": 274560,
            "time": 259.99974000000003,
            "velocity": 0.4566929133858268
          },
          {
            "duration": 0.14772712500001717,
            "durationTicks": 156,
            "midi": 38,
            "name": "D2",
            "ticks": 275040,
            "time": 260.454285,
            "velocity": 0.4566929133858268
          },
          {
            "duration": 0.2954542499999775,
            "durationTicks": 312,
            "midi": 43,
            "name": "G2",
            "ticks": 275520,
            "time": 260.90883,
            "velocity": 0.4566929133858268
          },
          {
            "duration": 0.909089999999992,
            "durationTicks": 960,
            "midi": 38,
            "name": "D2",
            "ticks": 278400,
            "time": 263.6361,
            "velocity": 0.4566929133858268
          },
          {
            "duration": 0.7272720000000277,
            "durationTicks": 768,
            "midi": 40,
            "name": "E2",
            "ticks": 279360,
            "time": 264.54519,
            "velocity": 0.4566929133858268
          },
          {
            "duration": 0.3636359999999854,
            "durationTicks": 384,
            "midi": 36,
            "name": "C2",
            "ticks": 280320,
            "time": 265.45428,
            "velocity": 0.4566929133858268
          },
          {
            "duration": 0.36363599999992857,
            "durationTicks": 384,
            "midi": 36,
            "name": "C2",
            "ticks": 280800,
            "time": 265.90882500000004,
            "velocity": 0.4566929133858268
          },
          {
            "duration": 0.3636359999999854,
            "durationTicks": 384,
            "midi": 38,
            "name": "D2",
            "ticks": 281280,
            "time": 266.36337000000003,
            "velocity": 0.4566929133858268
          },
          {
            "duration": 0.3636359999999854,
            "durationTicks": 384,
            "midi": 38,
            "name": "D2",
            "ticks": 281760,
            "time": 266.817915,
            "velocity": 0.4566929133858268
          },
          {
            "duration": 0.14772712500001717,
            "durationTicks": 156,
            "midi": 43,
            "name": "G2",
            "ticks": 282240,
            "time": 267.27246,
            "velocity": 0.6141732283464567
          },
          {
            "duration": 0.14772712500001717,
            "durationTicks": 156,
            "midi": 43,
            "name": "G2",
            "ticks": 282480,
            "time": 267.4997325,
            "velocity": 0.7244094488188977
          },
          {
            "duration": 0.14772712500001717,
            "durationTicks": 156,
            "midi": 43,
            "name": "G2",
            "ticks": 282720,
            "time": 267.727005,
            "velocity": 0.7244094488188977
          },
          {
            "duration": 0.14772712500001717,
            "durationTicks": 156,
            "midi": 43,
            "name": "G2",
            "ticks": 282960,
            "time": 267.9542775,
            "velocity": 0.7244094488188977
          },
          {
            "duration": 0.14772712500001717,
            "durationTicks": 156,
            "midi": 43,
            "name": "G2",
            "ticks": 283200,
            "time": 268.18155,
            "velocity": 0.4566929133858268
          },
          {
            "duration": 0.147727125000074,
            "durationTicks": 156,
            "midi": 43,
            "name": "G2",
            "ticks": 283440,
            "time": 268.4088225,
            "velocity": 0.4566929133858268
          },
          {
            "duration": 0.14772712500001717,
            "durationTicks": 156,
            "midi": 43,
            "name": "G2",
            "ticks": 283680,
            "time": 268.636095,
            "velocity": 0.4566929133858268
          },
          {
            "duration": 0.14772712500001717,
            "durationTicks": 156,
            "midi": 43,
            "name": "G2",
            "ticks": 283920,
            "time": 268.86336750000004,
            "velocity": 0.4566929133858268
          },
          {
            "duration": 0.14772712500001717,
            "durationTicks": 156,
            "midi": 43,
            "name": "G2",
            "ticks": 284160,
            "time": 269.09064,
            "velocity": 0.8818897637795275
          },
          {
            "duration": 0.14772712500001717,
            "durationTicks": 156,
            "midi": 43,
            "name": "G2",
            "ticks": 284400,
            "time": 269.31791250000003,
            "velocity": 0.7244094488188977
          },
          {
            "duration": 0.14772712500001717,
            "durationTicks": 156,
            "midi": 43,
            "name": "G2",
            "ticks": 284640,
            "time": 269.545185,
            "velocity": 0.7244094488188977
          },
          {
            "duration": 0.14772712500001717,
            "durationTicks": 156,
            "midi": 43,
            "name": "G2",
            "ticks": 284880,
            "time": 269.77245750000003,
            "velocity": 0.7244094488188977
          },
          {
            "duration": 0.14772712500001717,
            "durationTicks": 156,
            "midi": 43,
            "name": "G2",
            "ticks": 285120,
            "time": 269.99973,
            "velocity": 0.4566929133858268
          },
          {
            "duration": 0.14772712500001717,
            "durationTicks": 156,
            "midi": 43,
            "name": "G2",
            "ticks": 285360,
            "time": 270.2270025,
            "velocity": 0.4566929133858268
          },
          {
            "duration": 0.14772712500001717,
            "durationTicks": 156,
            "midi": 43,
            "name": "G2",
            "ticks": 285600,
            "time": 270.454275,
            "velocity": 0.4566929133858268
          },
          {
            "duration": 0.14772712500001717,
            "durationTicks": 156,
            "midi": 43,
            "name": "G2",
            "ticks": 285840,
            "time": 270.6815475,
            "velocity": 0.4566929133858268
          },
          {
            "duration": 0.14772712500001717,
            "durationTicks": 156,
            "midi": 43,
            "name": "G2",
            "ticks": 286080,
            "time": 270.90882,
            "velocity": 0.4566929133858268
          },
          {
            "duration": 0.14772712500001717,
            "durationTicks": 156,
            "midi": 43,
            "name": "G2",
            "ticks": 286320,
            "time": 271.1360925,
            "velocity": 0.4566929133858268
          },
          {
            "duration": 0.14772712500001717,
            "durationTicks": 156,
            "midi": 43,
            "name": "G2",
            "ticks": 286560,
            "time": 271.363365,
            "velocity": 0.4566929133858268
          },
          {
            "duration": 0.14772712500001717,
            "durationTicks": 156,
            "midi": 43,
            "name": "G2",
            "ticks": 286800,
            "time": 271.5906375,
            "velocity": 0.5669291338582677
          },
          {
            "duration": 0.147727125000074,
            "durationTicks": 156,
            "midi": 43,
            "name": "G2",
            "ticks": 287040,
            "time": 271.81791,
            "velocity": 0.5669291338582677
          },
          {
            "duration": 0.14772712500001717,
            "durationTicks": 156,
            "midi": 43,
            "name": "G2",
            "ticks": 287280,
            "time": 272.0451825,
            "velocity": 0.5669291338582677
          },
          {
            "duration": 0.14772712500001717,
            "durationTicks": 156,
            "midi": 43,
            "name": "G2",
            "ticks": 287520,
            "time": 272.27245500000004,
            "velocity": 0.6377952755905512
          },
          {
            "duration": 0.14772712500001717,
            "durationTicks": 156,
            "midi": 43,
            "name": "G2",
            "ticks": 287760,
            "time": 272.4997275,
            "velocity": 0.6377952755905512
          },
          {
            "duration": 0.14772712500001717,
            "durationTicks": 156,
            "midi": 43,
            "name": "G2",
            "ticks": 288000,
            "time": 272.72700000000003,
            "velocity": 0.6377952755905512
          },
          {
            "duration": 0.14772712500001717,
            "durationTicks": 156,
            "midi": 43,
            "name": "G2",
            "ticks": 288240,
            "time": 272.9542725,
            "velocity": 0.6377952755905512
          },
          {
            "duration": 0.14772712500001717,
            "durationTicks": 156,
            "midi": 42,
            "name": "F#2",
            "ticks": 288480,
            "time": 273.181545,
            "velocity": 0.6377952755905512
          },
          {
            "duration": 0.14772712500001717,
            "durationTicks": 156,
            "midi": 42,
            "name": "F#2",
            "ticks": 288720,
            "time": 273.4088175,
            "velocity": 0.7244094488188977
          },
          {
            "duration": 0.14772712500001717,
            "durationTicks": 156,
            "midi": 43,
            "name": "G2",
            "ticks": 288960,
            "time": 273.63609,
            "velocity": 0.7244094488188977
          },
          {
            "duration": 0.14772712500001717,
            "durationTicks": 156,
            "midi": 43,
            "name": "G2",
            "ticks": 289200,
            "time": 273.8633625,
            "velocity": 0.7244094488188977
          },
          {
            "duration": 0.14772712500001717,
            "durationTicks": 156,
            "midi": 40,
            "name": "E2",
            "ticks": 289440,
            "time": 274.090635,
            "velocity": 0.8267716535433071
          },
          {
            "duration": 0.14772712500001717,
            "durationTicks": 156,
            "midi": 40,
            "name": "E2",
            "ticks": 289680,
            "time": 274.3179075,
            "velocity": 0.8267716535433071
          },
          {
            "duration": 0.18181799999996429,
            "durationTicks": 192,
            "midi": 38,
            "name": "D2",
            "ticks": 289920,
            "time": 274.54518,
            "velocity": 0.8267716535433071
          },
          {
            "duration": 0.18181800000002113,
            "durationTicks": 192,
            "midi": 38,
            "name": "D2",
            "ticks": 290160,
            "time": 274.7724525,
            "velocity": 0.8267716535433071
          },
          {
            "duration": 0.18181799999996429,
            "durationTicks": 192,
            "midi": 38,
            "name": "D2",
            "ticks": 290400,
            "time": 274.999725,
            "velocity": 0.8267716535433071
          },
          {
            "duration": 0.18181799999996429,
            "durationTicks": 192,
            "midi": 38,
            "name": "D2",
            "ticks": 290640,
            "time": 275.22699750000004,
            "velocity": 0.8267716535433071
          },
          {
            "duration": 0.18181800000002113,
            "durationTicks": 192,
            "midi": 38,
            "name": "D2",
            "ticks": 290880,
            "time": 275.45427,
            "velocity": 0.8267716535433071
          },
          {
            "duration": 0.18181799999996429,
            "durationTicks": 192,
            "midi": 38,
            "name": "D2",
            "ticks": 291120,
            "time": 275.68154250000003,
            "velocity": 0.8267716535433071
          },
          {
            "duration": 0.18181800000002113,
            "durationTicks": 192,
            "midi": 38,
            "name": "D2",
            "ticks": 291360,
            "time": 275.908815,
            "velocity": 0.8267716535433071
          },
          {
            "duration": 0.18181799999996429,
            "durationTicks": 192,
            "midi": 38,
            "name": "D2",
            "ticks": 291600,
            "time": 276.13608750000003,
            "velocity": 0.8267716535433071
          },
          {
            "duration": 0.18181800000002113,
            "durationTicks": 192,
            "midi": 38,
            "name": "D2",
            "ticks": 291840,
            "time": 276.36336,
            "velocity": 0.8267716535433071
          },
          {
            "duration": 0.18181799999996429,
            "durationTicks": 192,
            "midi": 38,
            "name": "D2",
            "ticks": 292080,
            "time": 276.5906325,
            "velocity": 0.8267716535433071
          },
          {
            "duration": 0.18181800000002113,
            "durationTicks": 192,
            "midi": 38,
            "name": "D2",
            "ticks": 292320,
            "time": 276.817905,
            "velocity": 0.8267716535433071
          },
          {
            "duration": 0.18181799999996429,
            "durationTicks": 192,
            "midi": 38,
            "name": "D2",
            "ticks": 292560,
            "time": 277.0451775,
            "velocity": 0.8267716535433071
          },
          {
            "duration": 0.18181800000002113,
            "durationTicks": 192,
            "midi": 38,
            "name": "D2",
            "ticks": 292800,
            "time": 277.27245,
            "velocity": 0.8267716535433071
          },
          {
            "duration": 0.18181799999996429,
            "durationTicks": 192,
            "midi": 38,
            "name": "D2",
            "ticks": 293040,
            "time": 277.4997225,
            "velocity": 0.8267716535433071
          },
          {
            "duration": 0.18181800000002113,
            "durationTicks": 192,
            "midi": 38,
            "name": "D2",
            "ticks": 293280,
            "time": 277.726995,
            "velocity": 0.8267716535433071
          },
          {
            "duration": 0.18181799999996429,
            "durationTicks": 192,
            "midi": 38,
            "name": "D2",
            "ticks": 293520,
            "time": 277.9542675,
            "velocity": 0.8267716535433071
          },
          {
            "duration": 0.18181800000002113,
            "durationTicks": 192,
            "midi": 38,
            "name": "D2",
            "ticks": 293760,
            "time": 278.18154,
            "velocity": 0.8267716535433071
          },
          {
            "duration": 0.18181799999996429,
            "durationTicks": 192,
            "midi": 38,
            "name": "D2",
            "ticks": 294000,
            "time": 278.4088125,
            "velocity": 0.8267716535433071
          },
          {
            "duration": 0.18181799999996429,
            "durationTicks": 192,
            "midi": 38,
            "name": "D2",
            "ticks": 294240,
            "time": 278.63608500000004,
            "velocity": 0.8267716535433071
          },
          {
            "duration": 0.18181800000002113,
            "durationTicks": 192,
            "midi": 38,
            "name": "D2",
            "ticks": 294480,
            "time": 278.8633575,
            "velocity": 0.8267716535433071
          },
          {
            "duration": 0.18181799999996429,
            "durationTicks": 192,
            "midi": 38,
            "name": "D2",
            "ticks": 294720,
            "time": 279.09063000000003,
            "velocity": 0.8267716535433071
          },
          {
            "duration": 0.18181800000002113,
            "durationTicks": 192,
            "midi": 38,
            "name": "D2",
            "ticks": 294960,
            "time": 279.3179025,
            "velocity": 0.8267716535433071
          },
          {
            "duration": 0.18181799999996429,
            "durationTicks": 192,
            "midi": 38,
            "name": "D2",
            "ticks": 295200,
            "time": 279.54517500000003,
            "velocity": 0.8267716535433071
          },
          {
            "duration": 0.18181800000002113,
            "durationTicks": 192,
            "midi": 38,
            "name": "D2",
            "ticks": 295440,
            "time": 279.7724475,
            "velocity": 0.8267716535433071
          },
          {
            "duration": 0.18181799999996429,
            "durationTicks": 192,
            "midi": 38,
            "name": "D2",
            "ticks": 295680,
            "time": 279.99972,
            "velocity": 0.8267716535433071
          },
          {
            "duration": 0.18181800000002113,
            "durationTicks": 192,
            "midi": 38,
            "name": "D2",
            "ticks": 295920,
            "time": 280.2269925,
            "velocity": 0.8267716535433071
          },
          {
            "duration": 0.18181799999996429,
            "durationTicks": 192,
            "midi": 38,
            "name": "D2",
            "ticks": 296160,
            "time": 280.454265,
            "velocity": 0.8267716535433071
          },
          {
            "duration": 0.18181800000002113,
            "durationTicks": 192,
            "midi": 38,
            "name": "D2",
            "ticks": 296400,
            "time": 280.6815375,
            "velocity": 0.8267716535433071
          },
          {
            "duration": 0.3636359999999854,
            "durationTicks": 384,
            "midi": 38,
            "name": "D2",
            "ticks": 296640,
            "time": 280.90881,
            "velocity": 0.8267716535433071
          },
          {
            "duration": 0.18181800000002113,
            "durationTicks": 192,
            "midi": 44,
            "name": "G#2",
            "ticks": 299040,
            "time": 283.181535,
            "velocity": 0.4566929133858268
          },
          {
            "duration": 0.18181800000002113,
            "durationTicks": 192,
            "midi": 45,
            "name": "A2",
            "ticks": 299520,
            "time": 283.63608,
            "velocity": 0.4566929133858268
          },
          {
            "duration": 0.18181800000002113,
            "durationTicks": 192,
            "midi": 43,
            "name": "G2",
            "ticks": 300000,
            "time": 284.090625,
            "velocity": 0.4566929133858268
          },
          {
            "duration": 0.18181800000002113,
            "durationTicks": 192,
            "midi": 42,
            "name": "F#2",
            "ticks": 300480,
            "time": 284.54517,
            "velocity": 0.4566929133858268
          },
          {
            "duration": 0.18181799999996429,
            "durationTicks": 192,
            "midi": 38,
            "name": "D2",
            "ticks": 300960,
            "time": 284.99971500000004,
            "velocity": 0.4566929133858268
          },
          {
            "duration": 0.454544999999996,
            "durationTicks": 480,
            "midi": 39,
            "name": "D#2",
            "ticks": 301920,
            "time": 285.90880500000003,
            "velocity": 0.4566929133858268
          },
          {
            "duration": 0.18181799999996429,
            "durationTicks": 192,
            "midi": 40,
            "name": "E2",
            "ticks": 302400,
            "time": 286.36335,
            "velocity": 0.4566929133858268
          },
          {
            "duration": 0.18181799999996429,
            "durationTicks": 192,
            "midi": 36,
            "name": "C2",
            "ticks": 302880,
            "time": 286.817895,
            "velocity": 0.4566929133858268
          },
          {
            "duration": 0.3409087499999828,
            "durationTicks": 360,
            "midi": 38,
            "name": "D2",
            "ticks": 303360,
            "time": 287.27244,
            "velocity": 0.4566929133858268
          },
          {
            "duration": 0.6818175000000224,
            "durationTicks": 720,
            "midi": 50,
            "name": "D3",
            "ticks": 303840,
            "time": 287.726985,
            "velocity": 0.6141732283464567
          },
          {
            "duration": 0.22727249999996957,
            "durationTicks": 240,
            "midi": 49,
            "name": "C#3",
            "ticks": 304560,
            "time": 288.40880250000004,
            "velocity": 0.4566929133858268
          },
          {
            "duration": 0.2272725000000264,
            "durationTicks": 240,
            "midi": 48,
            "name": "C3",
            "ticks": 304800,
            "time": 288.636075,
            "velocity": 0.4566929133858268
          },
          {
            "duration": 0.22727249999996957,
            "durationTicks": 240,
            "midi": 45,
            "name": "A2",
            "ticks": 305040,
            "time": 288.86334750000003,
            "velocity": 0.4566929133858268
          },
          {
            "duration": 0.18181800000002113,
            "durationTicks": 192,
            "midi": 43,
            "name": "G2",
            "ticks": 305280,
            "time": 289.09062,
            "velocity": 0.4566929133858268
          },
          {
            "duration": 0.18181800000002113,
            "durationTicks": 192,
            "midi": 45,
            "name": "A2",
            "ticks": 305760,
            "time": 289.545165,
            "velocity": 0.4566929133858268
          },
          {
            "duration": 0.18181800000002113,
            "durationTicks": 192,
            "midi": 47,
            "name": "B2",
            "ticks": 306240,
            "time": 289.99971,
            "velocity": 0.4566929133858268
          },
          {
            "duration": 0.18181800000002113,
            "durationTicks": 192,
            "midi": 44,
            "name": "G#2",
            "ticks": 306720,
            "time": 290.454255,
            "velocity": 0.4566929133858268
          },
          {
            "duration": 0.18181800000002113,
            "durationTicks": 192,
            "midi": 45,
            "name": "A2",
            "ticks": 307200,
            "time": 290.9088,
            "velocity": 0.4566929133858268
          },
          {
            "duration": 0.18181799999996429,
            "durationTicks": 192,
            "midi": 43,
            "name": "G2",
            "ticks": 307680,
            "time": 291.36334500000004,
            "velocity": 0.4566929133858268
          },
          {
            "duration": 0.18181799999996429,
            "durationTicks": 192,
            "midi": 42,
            "name": "F#2",
            "ticks": 308160,
            "time": 291.81789000000003,
            "velocity": 0.4566929133858268
          },
          {
            "duration": 0.18181799999996429,
            "durationTicks": 192,
            "midi": 38,
            "name": "D2",
            "ticks": 308640,
            "time": 292.27243500000003,
            "velocity": 0.4566929133858268
          },
          {
            "duration": 0.18181799999996429,
            "durationTicks": 192,
            "midi": 40,
            "name": "E2",
            "ticks": 309120,
            "time": 292.72698,
            "velocity": 0.4566929133858268
          },
          {
            "duration": 0.18181799999996429,
            "durationTicks": 192,
            "midi": 36,
            "name": "C2",
            "ticks": 309600,
            "time": 293.181525,
            "velocity": 0.4566929133858268
          },
          {
            "duration": 0.18181799999996429,
            "durationTicks": 192,
            "midi": 38,
            "name": "D2",
            "ticks": 310080,
            "time": 293.63607,
            "velocity": 0.4566929133858268
          },
          {
            "duration": 0.18181799999996429,
            "durationTicks": 192,
            "midi": 38,
            "name": "D2",
            "ticks": 310560,
            "time": 294.090615,
            "velocity": 0.4566929133858268
          },
          {
            "duration": 0.3636359999999854,
            "durationTicks": 384,
            "midi": 31,
            "name": "G1",
            "ticks": 311040,
            "time": 294.54516,
            "velocity": 0.4566929133858268
          },
          {
            "duration": 0.3636359999999854,
            "durationTicks": 384,
            "midi": 38,
            "name": "D2",
            "ticks": 312960,
            "time": 296.36334,
            "velocity": 0.4566929133858268
          },
          {
            "duration": 0.3636359999999854,
            "durationTicks": 384,
            "midi": 31,
            "name": "G1",
            "ticks": 314880,
            "time": 298.18152000000003,
            "velocity": 0.4566929133858268
          },
          {
            "duration": 0.3636359999999854,
            "durationTicks": 384,
            "midi": 38,
            "name": "D2",
            "ticks": 316800,
            "time": 299.9997,
            "velocity": 0.4566929133858268
          },
          {
            "duration": 0.14772712500001717,
            "durationTicks": 156,
            "midi": 43,
            "name": "G2",
            "ticks": 318960,
            "time": 302.04515250000003,
            "velocity": 0.8267716535433071
          },
          {
            "duration": 0.14772712500001717,
            "durationTicks": 156,
            "midi": 47,
            "name": "B2",
            "ticks": 319200,
            "time": 302.272425,
            "velocity": 0.8267716535433071
          },
          {
            "duration": 0.14772712500001717,
            "durationTicks": 156,
            "midi": 45,
            "name": "A2",
            "ticks": 319440,
            "time": 302.4996975,
            "velocity": 0.8267716535433071
          },
          {
            "duration": 0.14772712500001717,
            "durationTicks": 156,
            "midi": 44,
            "name": "G#2",
            "ticks": 319680,
            "time": 302.72697,
            "velocity": 0.8267716535433071
          },
          {
            "duration": 0.14772712500001717,
            "durationTicks": 156,
            "midi": 40,
            "name": "E2",
            "ticks": 319920,
            "time": 302.9542425,
            "velocity": 0.8267716535433071
          },
          {
            "duration": 0.14772712500001717,
            "durationTicks": 156,
            "midi": 42,
            "name": "F#2",
            "ticks": 320160,
            "time": 303.181515,
            "velocity": 0.8267716535433071
          },
          {
            "duration": 0.14772712500001717,
            "durationTicks": 156,
            "midi": 44,
            "name": "G#2",
            "ticks": 320400,
            "time": 303.4087875,
            "velocity": 0.8267716535433071
          },
          {
            "duration": 0.147727125000074,
            "durationTicks": 156,
            "midi": 45,
            "name": "A2",
            "ticks": 320640,
            "time": 303.63606,
            "velocity": 0.8267716535433071
          },
          {
            "duration": 0.14772712500001717,
            "durationTicks": 156,
            "midi": 48,
            "name": "C3",
            "ticks": 320880,
            "time": 303.8633325,
            "velocity": 0.8267716535433071
          },
          {
            "duration": 0.14772712500001717,
            "durationTicks": 156,
            "midi": 45,
            "name": "A2",
            "ticks": 321120,
            "time": 304.09060500000004,
            "velocity": 0.8267716535433071
          },
          {
            "duration": 0.14772712500001717,
            "durationTicks": 156,
            "midi": 43,
            "name": "G2",
            "ticks": 321360,
            "time": 304.3178775,
            "velocity": 0.8267716535433071
          },
          {
            "duration": 0.14772712500001717,
            "durationTicks": 156,
            "midi": 42,
            "name": "F#2",
            "ticks": 321600,
            "time": 304.54515000000004,
            "velocity": 0.8267716535433071
          },
          {
            "duration": 0.14772712500001717,
            "durationTicks": 156,
            "midi": 38,
            "name": "D2",
            "ticks": 321840,
            "time": 304.7724225,
            "velocity": 0.8267716535433071
          },
          {
            "duration": 0.14772712500001717,
            "durationTicks": 156,
            "midi": 40,
            "name": "E2",
            "ticks": 322080,
            "time": 304.99969500000003,
            "velocity": 0.8267716535433071
          },
          {
            "duration": 0.14772712500001717,
            "durationTicks": 156,
            "midi": 42,
            "name": "F#2",
            "ticks": 322320,
            "time": 305.2269675,
            "velocity": 0.8267716535433071
          },
          {
            "duration": 0.14772712500001717,
            "durationTicks": 156,
            "midi": 43,
            "name": "G2",
            "ticks": 322560,
            "time": 305.45424,
            "velocity": 0.8267716535433071
          },
          {
            "duration": 0.14772712500001717,
            "durationTicks": 156,
            "midi": 43,
            "name": "G2",
            "ticks": 322800,
            "time": 305.6815125,
            "velocity": 0.8267716535433071
          },
          {
            "duration": 0.14772712500001717,
            "durationTicks": 156,
            "midi": 45,
            "name": "A2",
            "ticks": 323040,
            "time": 305.908785,
            "velocity": 0.8267716535433071
          },
          {
            "duration": 0.14772712500001717,
            "durationTicks": 156,
            "midi": 47,
            "name": "B2",
            "ticks": 323280,
            "time": 306.1360575,
            "velocity": 0.8267716535433071
          },
          {
            "duration": 0.14772712500001717,
            "durationTicks": 156,
            "midi": 48,
            "name": "C3",
            "ticks": 323520,
            "time": 306.36333,
            "velocity": 0.8267716535433071
          },
          {
            "duration": 0.147727125000074,
            "durationTicks": 156,
            "midi": 48,
            "name": "C3",
            "ticks": 323760,
            "time": 306.5906025,
            "velocity": 0.8267716535433071
          },
          {
            "duration": 0.14772712500001717,
            "durationTicks": 156,
            "midi": 48,
            "name": "C3",
            "ticks": 324000,
            "time": 306.817875,
            "velocity": 0.8267716535433071
          },
          {
            "duration": 0.14772712500001717,
            "durationTicks": 156,
            "midi": 48,
            "name": "C3",
            "ticks": 324240,
            "time": 307.04514750000004,
            "velocity": 0.8267716535433071
          },
          {
            "duration": 0.14772712500001717,
            "durationTicks": 156,
            "midi": 50,
            "name": "D3",
            "ticks": 324480,
            "time": 307.27242,
            "velocity": 0.8267716535433071
          },
          {
            "duration": 0.14772712500001717,
            "durationTicks": 156,
            "midi": 50,
            "name": "D3",
            "ticks": 324720,
            "time": 307.49969250000004,
            "velocity": 0.8267716535433071
          },
          {
            "duration": 0.14772712500001717,
            "durationTicks": 156,
            "midi": 50,
            "name": "D3",
            "ticks": 324960,
            "time": 307.726965,
            "velocity": 0.8267716535433071
          },
          {
            "duration": 0.14772712500001717,
            "durationTicks": 156,
            "midi": 50,
            "name": "D3",
            "ticks": 325200,
            "time": 307.95423750000003,
            "velocity": 0.8267716535433071
          },
          {
            "duration": 0.14772712500001717,
            "durationTicks": 156,
            "midi": 38,
            "name": "D2",
            "ticks": 325440,
            "time": 308.18151,
            "velocity": 0.8267716535433071
          },
          {
            "duration": 0.14772712500001717,
            "durationTicks": 156,
            "midi": 38,
            "name": "D2",
            "ticks": 325680,
            "time": 308.40878250000003,
            "velocity": 0.8267716535433071
          },
          {
            "duration": 0.14772712500001717,
            "durationTicks": 156,
            "midi": 38,
            "name": "D2",
            "ticks": 325920,
            "time": 308.636055,
            "velocity": 0.8267716535433071
          },
          {
            "duration": 0.14772712500001717,
            "durationTicks": 156,
            "midi": 38,
            "name": "D2",
            "ticks": 326160,
            "time": 308.8633275,
            "velocity": 0.8267716535433071
          },
          {
            "duration": 0.3636359999999854,
            "durationTicks": 384,
            "midi": 43,
            "name": "G2",
            "ticks": 326400,
            "time": 309.0906,
            "velocity": 0.7244094488188977
          },
          {
            "duration": 0.3636359999999854,
            "durationTicks": 384,
            "midi": 38,
            "name": "D2",
            "ticks": 328320,
            "time": 310.90878000000004,
            "velocity": 0.4566929133858268
          },
          {
            "duration": 0.3636359999999854,
            "durationTicks": 384,
            "midi": 43,
            "name": "G2",
            "ticks": 330240,
            "time": 312.72696,
            "velocity": 0.4566929133858268
          },
          {
            "duration": 0.3636359999999854,
            "durationTicks": 384,
            "midi": 38,
            "name": "D2",
            "ticks": 332160,
            "time": 314.54514,
            "velocity": 0.4566929133858268
          },
          {
            "duration": 0.14772712500001717,
            "durationTicks": 156,
            "midi": 43,
            "name": "G2",
            "ticks": 334320,
            "time": 316.5905925,
            "velocity": 0.8267716535433071
          },
          {
            "duration": 0.14772712500001717,
            "durationTicks": 156,
            "midi": 47,
            "name": "B2",
            "ticks": 334560,
            "time": 316.81786500000004,
            "velocity": 0.8267716535433071
          },
          {
            "duration": 0.14772712500001717,
            "durationTicks": 156,
            "midi": 45,
            "name": "A2",
            "ticks": 334800,
            "time": 317.0451375,
            "velocity": 0.8267716535433071
          },
          {
            "duration": 0.14772712500001717,
            "durationTicks": 156,
            "midi": 44,
            "name": "G#2",
            "ticks": 335040,
            "time": 317.27241000000004,
            "velocity": 0.8267716535433071
          },
          {
            "duration": 0.14772712500001717,
            "durationTicks": 156,
            "midi": 40,
            "name": "E2",
            "ticks": 335280,
            "time": 317.4996825,
            "velocity": 0.8267716535433071
          },
          {
            "duration": 0.14772712500001717,
            "durationTicks": 156,
            "midi": 42,
            "name": "F#2",
            "ticks": 335520,
            "time": 317.72695500000003,
            "velocity": 0.8267716535433071
          },
          {
            "duration": 0.14772712500001717,
            "durationTicks": 156,
            "midi": 44,
            "name": "G#2",
            "ticks": 335760,
            "time": 317.9542275,
            "velocity": 0.8267716535433071
          },
          {
            "duration": 0.14772712500001717,
            "durationTicks": 156,
            "midi": 45,
            "name": "A2",
            "ticks": 336000,
            "time": 318.1815,
            "velocity": 0.8267716535433071
          },
          {
            "duration": 0.14772712500001717,
            "durationTicks": 156,
            "midi": 48,
            "name": "C3",
            "ticks": 336240,
            "time": 318.4087725,
            "velocity": 0.8267716535433071
          },
          {
            "duration": 0.14772712500001717,
            "durationTicks": 156,
            "midi": 45,
            "name": "A2",
            "ticks": 336480,
            "time": 318.636045,
            "velocity": 0.8267716535433071
          },
          {
            "duration": 0.14772712500001717,
            "durationTicks": 156,
            "midi": 43,
            "name": "G2",
            "ticks": 336720,
            "time": 318.8633175,
            "velocity": 0.8267716535433071
          },
          {
            "duration": 0.14772712500001717,
            "durationTicks": 156,
            "midi": 42,
            "name": "F#2",
            "ticks": 336960,
            "time": 319.09059,
            "velocity": 0.8267716535433071
          },
          {
            "duration": 0.14772712500001717,
            "durationTicks": 156,
            "midi": 38,
            "name": "D2",
            "ticks": 337200,
            "time": 319.3178625,
            "velocity": 0.8267716535433071
          },
          {
            "duration": 0.14772712500001717,
            "durationTicks": 156,
            "midi": 40,
            "name": "E2",
            "ticks": 337440,
            "time": 319.545135,
            "velocity": 0.8267716535433071
          },
          {
            "duration": 0.14772712500001717,
            "durationTicks": 156,
            "midi": 42,
            "name": "F#2",
            "ticks": 337680,
            "time": 319.77240750000004,
            "velocity": 0.8267716535433071
          },
          {
            "duration": 0.14772712500001717,
            "durationTicks": 156,
            "midi": 43,
            "name": "G2",
            "ticks": 337920,
            "time": 319.99968,
            "velocity": 0.8267716535433071
          },
          {
            "duration": 0.14772712500001717,
            "durationTicks": 156,
            "midi": 43,
            "name": "G2",
            "ticks": 338160,
            "time": 320.22695250000004,
            "velocity": 0.8267716535433071
          },
          {
            "duration": 0.14772712500001717,
            "durationTicks": 156,
            "midi": 45,
            "name": "A2",
            "ticks": 338400,
            "time": 320.454225,
            "velocity": 0.8267716535433071
          },
          {
            "duration": 0.14772712500001717,
            "durationTicks": 156,
            "midi": 47,
            "name": "B2",
            "ticks": 338640,
            "time": 320.68149750000003,
            "velocity": 0.8267716535433071
          },
          {
            "duration": 0.14772712500001717,
            "durationTicks": 156,
            "midi": 48,
            "name": "C3",
            "ticks": 338880,
            "time": 320.90877,
            "velocity": 0.8267716535433071
          },
          {
            "duration": 0.14772712500001717,
            "durationTicks": 156,
            "midi": 48,
            "name": "C3",
            "ticks": 339120,
            "time": 321.13604250000003,
            "velocity": 0.8267716535433071
          },
          {
            "duration": 0.14772712500001717,
            "durationTicks": 156,
            "midi": 48,
            "name": "C3",
            "ticks": 339360,
            "time": 321.363315,
            "velocity": 0.8267716535433071
          },
          {
            "duration": 0.14772712500001717,
            "durationTicks": 156,
            "midi": 48,
            "name": "C3",
            "ticks": 339600,
            "time": 321.5905875,
            "velocity": 0.8267716535433071
          },
          {
            "duration": 0.14772712500001717,
            "durationTicks": 156,
            "midi": 50,
            "name": "D3",
            "ticks": 339840,
            "time": 321.81786,
            "velocity": 0.8267716535433071
          },
          {
            "duration": 0.14772712500001717,
            "durationTicks": 156,
            "midi": 50,
            "name": "D3",
            "ticks": 340080,
            "time": 322.0451325,
            "velocity": 0.8267716535433071
          },
          {
            "duration": 0.14772712500001717,
            "durationTicks": 156,
            "midi": 50,
            "name": "D3",
            "ticks": 340320,
            "time": 322.272405,
            "velocity": 0.8267716535433071
          },
          {
            "duration": 0.14772712500001717,
            "durationTicks": 156,
            "midi": 50,
            "name": "D3",
            "ticks": 340560,
            "time": 322.4996775,
            "velocity": 0.8267716535433071
          },
          {
            "duration": 0.147727125000074,
            "durationTicks": 156,
            "midi": 38,
            "name": "D2",
            "ticks": 340800,
            "time": 322.72695,
            "velocity": 0.8267716535433071
          },
          {
            "duration": 0.14772712500001717,
            "durationTicks": 156,
            "midi": 38,
            "name": "D2",
            "ticks": 341040,
            "time": 322.9542225,
            "velocity": 0.8267716535433071
          },
          {
            "duration": 0.14772712500001717,
            "durationTicks": 156,
            "midi": 38,
            "name": "D2",
            "ticks": 341280,
            "time": 323.18149500000004,
            "velocity": 0.8267716535433071
          },
          {
            "duration": 0.14772712500001717,
            "durationTicks": 156,
            "midi": 38,
            "name": "D2",
            "ticks": 341520,
            "time": 323.4087675,
            "velocity": 0.8267716535433071
          },
          {
            "duration": 0.14772712500001717,
            "durationTicks": 156,
            "midi": 43,
            "name": "G2",
            "ticks": 341760,
            "time": 323.63604000000004,
            "velocity": 0.8267716535433071
          },
          {
            "duration": 0.14772712500001717,
            "durationTicks": 156,
            "midi": 38,
            "name": "D2",
            "ticks": 342000,
            "time": 323.8633125,
            "velocity": 0.8267716535433071
          },
          {
            "duration": 0.14772712500001717,
            "durationTicks": 156,
            "midi": 40,
            "name": "E2",
            "ticks": 342240,
            "time": 324.09058500000003,
            "velocity": 0.8267716535433071
          },
          {
            "duration": 0.14772712500001717,
            "durationTicks": 156,
            "midi": 42,
            "name": "F#2",
            "ticks": 342480,
            "time": 324.3178575,
            "velocity": 0.8267716535433071
          },
          {
            "duration": 0.14772712500001717,
            "durationTicks": 156,
            "midi": 43,
            "name": "G2",
            "ticks": 342720,
            "time": 324.54513000000003,
            "velocity": 0.8267716535433071
          },
          {
            "duration": 0.14772712500001717,
            "durationTicks": 156,
            "midi": 43,
            "name": "G2",
            "ticks": 342960,
            "time": 324.7724025,
            "velocity": 0.8267716535433071
          },
          {
            "duration": 0.14772712500001717,
            "durationTicks": 156,
            "midi": 45,
            "name": "A2",
            "ticks": 343200,
            "time": 324.999675,
            "velocity": 0.8267716535433071
          },
          {
            "duration": 0.14772712500001717,
            "durationTicks": 156,
            "midi": 45,
            "name": "A2",
            "ticks": 343440,
            "time": 325.2269475,
            "velocity": 0.8267716535433071
          },
          {
            "duration": 0.14772712500001717,
            "durationTicks": 156,
            "midi": 47,
            "name": "B2",
            "ticks": 343680,
            "time": 325.45422,
            "velocity": 0.8267716535433071
          },
          {
            "duration": 0.14772712500001717,
            "durationTicks": 156,
            "midi": 42,
            "name": "F#2",
            "ticks": 343920,
            "time": 325.6814925,
            "velocity": 0.8267716535433071
          },
          {
            "duration": 0.14772712500001717,
            "durationTicks": 156,
            "midi": 43,
            "name": "G2",
            "ticks": 344160,
            "time": 325.908765,
            "velocity": 0.8267716535433071
          },
          {
            "duration": 0.14772712500001717,
            "durationTicks": 156,
            "midi": 45,
            "name": "A2",
            "ticks": 344400,
            "time": 326.13603750000004,
            "velocity": 0.8267716535433071
          },
          {
            "duration": 0.14772712500001717,
            "durationTicks": 156,
            "midi": 47,
            "name": "B2",
            "ticks": 344640,
            "time": 326.36331,
            "velocity": 0.8267716535433071
          },
          {
            "duration": 0.14772712500001717,
            "durationTicks": 156,
            "midi": 47,
            "name": "B2",
            "ticks": 344880,
            "time": 326.59058250000004,
            "velocity": 0.8267716535433071
          },
          {
            "duration": 0.14772712500001717,
            "durationTicks": 156,
            "midi": 48,
            "name": "C3",
            "ticks": 345120,
            "time": 326.817855,
            "velocity": 0.8267716535433071
          },
          {
            "duration": 0.14772712500001717,
            "durationTicks": 156,
            "midi": 48,
            "name": "C3",
            "ticks": 345360,
            "time": 327.04512750000004,
            "velocity": 0.8267716535433071
          },
          {
            "duration": 0.14772712500001717,
            "durationTicks": 156,
            "midi": 50,
            "name": "D3",
            "ticks": 345600,
            "time": 327.2724,
            "velocity": 0.8267716535433071
          },
          {
            "duration": 0.14772712500001717,
            "durationTicks": 156,
            "midi": 50,
            "name": "D3",
            "ticks": 345840,
            "time": 327.49967250000003,
            "velocity": 0.8267716535433071
          },
          {
            "duration": 0.14772712500001717,
            "durationTicks": 156,
            "midi": 51,
            "name": "D#3",
            "ticks": 346080,
            "time": 327.726945,
            "velocity": 0.8267716535433071
          },
          {
            "duration": 0.14772712500001717,
            "durationTicks": 156,
            "midi": 51,
            "name": "D#3",
            "ticks": 346320,
            "time": 327.9542175,
            "velocity": 0.8267716535433071
          },
          {
            "duration": 0.3636359999999854,
            "durationTicks": 384,
            "midi": 52,
            "name": "E3",
            "ticks": 346560,
            "time": 328.18149,
            "velocity": 0.8267716535433071
          },
          {
            "duration": 0.9090900000000488,
            "durationTicks": 960,
            "midi": 36,
            "name": "C2",
            "ticks": 347520,
            "time": 329.09058,
            "velocity": 0.4566929133858268
          },
          {
            "duration": 0.8636354999999867,
            "durationTicks": 912,
            "midi": 38,
            "name": "D2",
            "ticks": 348480,
            "time": 329.99967000000004,
            "velocity": 0.4566929133858268
          },
          {
            "duration": 0.3636359999999854,
            "durationTicks": 384,
            "midi": 31,
            "name": "G1",
            "ticks": 349440,
            "time": 330.90876000000003,
            "velocity": 0.4566929133858268
          },
          {
            "duration": 0.909089999999992,
            "durationTicks": 960,
            "midi": 36,
            "name": "C2",
            "ticks": 351360,
            "time": 332.72694,
            "velocity": 0.4566929133858268
          },
          {
            "duration": 0.8636354999999867,
            "durationTicks": 912,
            "midi": 38,
            "name": "D2",
            "ticks": 352320,
            "time": 333.63603,
            "velocity": 0.4566929133858268
          },
          {
            "duration": 0.3636359999999854,
            "durationTicks": 384,
            "midi": 31,
            "name": "G1",
            "ticks": 353280,
            "time": 334.54512,
            "velocity": 0.4566929133858268
          },
          {
            "duration": 0.3636359999999854,
            "durationTicks": 384,
            "midi": 36,
            "name": "C2",
            "ticks": 355200,
            "time": 336.36330000000004,
            "velocity": 0.4566929133858268
          },
          {
            "duration": 0.3636359999999854,
            "durationTicks": 384,
            "midi": 38,
            "name": "D2",
            "ticks": 356160,
            "time": 337.27239000000003,
            "velocity": 0.8267716535433071
          },
          {
            "duration": 0.1704543750000198,
            "durationTicks": 180,
            "midi": 31,
            "name": "G1",
            "ticks": 357120,
            "time": 338.18148,
            "velocity": 0.8267716535433071
          },
          {
            "duration": 0.1704543750000198,
            "durationTicks": 180,
            "midi": 31,
            "name": "G1",
            "ticks": 357360,
            "time": 338.4087525,
            "velocity": 0.8267716535433071
          },
          {
            "duration": 0.1704543750000198,
            "durationTicks": 180,
            "midi": 31,
            "name": "G1",
            "ticks": 357600,
            "time": 338.636025,
            "velocity": 0.8267716535433071
          },
          {
            "duration": 0.17045437499996297,
            "durationTicks": 180,
            "midi": 31,
            "name": "G1",
            "ticks": 357840,
            "time": 338.86329750000004,
            "velocity": 0.8267716535433071
          },
          {
            "duration": 0.1704543750000198,
            "durationTicks": 180,
            "midi": 31,
            "name": "G1",
            "ticks": 358080,
            "time": 339.09057,
            "velocity": 0.8267716535433071
          },
          {
            "duration": 0.17045437499996297,
            "durationTicks": 180,
            "midi": 31,
            "name": "G1",
            "ticks": 358320,
            "time": 339.31784250000004,
            "velocity": 0.8267716535433071
          },
          {
            "duration": 0.1704543750000198,
            "durationTicks": 180,
            "midi": 31,
            "name": "G1",
            "ticks": 358560,
            "time": 339.545115,
            "velocity": 0.8267716535433071
          },
          {
            "duration": 0.17045437499996297,
            "durationTicks": 180,
            "midi": 31,
            "name": "G1",
            "ticks": 358800,
            "time": 339.77238750000004,
            "velocity": 0.8267716535433071
          },
          {
            "duration": 0.1704543750000198,
            "durationTicks": 180,
            "midi": 31,
            "name": "G1",
            "ticks": 359040,
            "time": 339.99966,
            "velocity": 0.8267716535433071
          },
          {
            "duration": 0.17045437499996297,
            "durationTicks": 180,
            "midi": 31,
            "name": "G1",
            "ticks": 359280,
            "time": 340.22693250000003,
            "velocity": 0.8267716535433071
          },
          {
            "duration": 0.1704543750000198,
            "durationTicks": 180,
            "midi": 31,
            "name": "G1",
            "ticks": 359520,
            "time": 340.454205,
            "velocity": 0.8267716535433071
          },
          {
            "duration": 0.17045437499996297,
            "durationTicks": 180,
            "midi": 31,
            "name": "G1",
            "ticks": 359760,
            "time": 340.6814775,
            "velocity": 0.8267716535433071
          },
          {
            "duration": 0.1704543750000198,
            "durationTicks": 180,
            "midi": 31,
            "name": "G1",
            "ticks": 360000,
            "time": 340.90875,
            "velocity": 0.8267716535433071
          },
          {
            "duration": 0.1704543750000198,
            "durationTicks": 180,
            "midi": 31,
            "name": "G1",
            "ticks": 360240,
            "time": 341.1360225,
            "velocity": 0.8267716535433071
          },
          {
            "duration": 0.1704543750000198,
            "durationTicks": 180,
            "midi": 31,
            "name": "G1",
            "ticks": 360480,
            "time": 341.363295,
            "velocity": 0.8267716535433071
          },
          {
            "duration": 0.1704543750000198,
            "durationTicks": 180,
            "midi": 31,
            "name": "G1",
            "ticks": 360720,
            "time": 341.5905675,
            "velocity": 0.8267716535433071
          },
          {
            "duration": 0.1704543750000198,
            "durationTicks": 180,
            "midi": 31,
            "name": "G1",
            "ticks": 360960,
            "time": 341.81784,
            "velocity": 0.8267716535433071
          },
          {
            "duration": 0.1704543750000198,
            "durationTicks": 180,
            "midi": 31,
            "name": "G1",
            "ticks": 361200,
            "time": 342.0451125,
            "velocity": 0.8267716535433071
          },
          {
            "duration": 0.17045437499996297,
            "durationTicks": 180,
            "midi": 31,
            "name": "G1",
            "ticks": 361440,
            "time": 342.27238500000004,
            "velocity": 0.8267716535433071
          },
          {
            "duration": 0.1704543750000198,
            "durationTicks": 180,
            "midi": 31,
            "name": "G1",
            "ticks": 361680,
            "time": 342.4996575,
            "velocity": 0.8267716535433071
          },
          {
            "duration": 0.17045437499996297,
            "durationTicks": 180,
            "midi": 31,
            "name": "G1",
            "ticks": 361920,
            "time": 342.72693000000004,
            "velocity": 0.8267716535433071
          },
          {
            "duration": 0.1704543750000198,
            "durationTicks": 180,
            "midi": 31,
            "name": "G1",
            "ticks": 362160,
            "time": 342.9542025,
            "velocity": 0.8267716535433071
          },
          {
            "duration": 0.17045437499996297,
            "durationTicks": 180,
            "midi": 31,
            "name": "G1",
            "ticks": 362400,
            "time": 343.18147500000003,
            "velocity": 0.8267716535433071
          },
          {
            "duration": 0.1704543750000198,
            "durationTicks": 180,
            "midi": 31,
            "name": "G1",
            "ticks": 362640,
            "time": 343.4087475,
            "velocity": 0.8267716535433071
          },
          {
            "duration": 0.17045437499996297,
            "durationTicks": 180,
            "midi": 31,
            "name": "G1",
            "ticks": 362880,
            "time": 343.63602000000003,
            "velocity": 0.8267716535433071
          },
          {
            "duration": 0.1704543750000198,
            "durationTicks": 180,
            "midi": 31,
            "name": "G1",
            "ticks": 363120,
            "time": 343.8632925,
            "velocity": 0.8267716535433071
          },
          {
            "duration": 0.17045437499996297,
            "durationTicks": 180,
            "midi": 31,
            "name": "G1",
            "ticks": 363360,
            "time": 344.090565,
            "velocity": 0.8267716535433071
          },
          {
            "duration": 0.1704543750000198,
            "durationTicks": 180,
            "midi": 31,
            "name": "G1",
            "ticks": 363600,
            "time": 344.3178375,
            "velocity": 0.8267716535433071
          },
          {
            "duration": 0.1704543750000198,
            "durationTicks": 180,
            "midi": 31,
            "name": "G1",
            "ticks": 363840,
            "time": 344.54511,
            "velocity": 0.8267716535433071
          },
          {
            "duration": 0.1704543750000198,
            "durationTicks": 180,
            "midi": 31,
            "name": "G1",
            "ticks": 364080,
            "time": 344.7723825,
            "velocity": 0.8267716535433071
          },
          {
            "duration": 0.1704543750000198,
            "durationTicks": 180,
            "midi": 31,
            "name": "G1",
            "ticks": 364320,
            "time": 344.999655,
            "velocity": 0.8267716535433071
          },
          {
            "duration": 0.17045437499996297,
            "durationTicks": 180,
            "midi": 31,
            "name": "G1",
            "ticks": 364560,
            "time": 345.22692750000004,
            "velocity": 0.8267716535433071
          },
          {
            "duration": 0.1704543750000198,
            "durationTicks": 180,
            "midi": 31,
            "name": "G1",
            "ticks": 364800,
            "time": 345.4542,
            "velocity": 0.9133858267716536
          },
          {
            "duration": 0.17045437499996297,
            "durationTicks": 180,
            "midi": 35,
            "name": "B1",
            "ticks": 365040,
            "time": 345.68147250000004,
            "velocity": 0.9133858267716536
          },
          {
            "duration": 0.1704543750000198,
            "durationTicks": 180,
            "midi": 38,
            "name": "D2",
            "ticks": 365280,
            "time": 345.908745,
            "velocity": 0.9133858267716536
          },
          {
            "duration": 0.17045437499996297,
            "durationTicks": 180,
            "midi": 43,
            "name": "G2",
            "ticks": 365520,
            "time": 346.13601750000004,
            "velocity": 0.9133858267716536
          },
          {
            "duration": 0.1704543750000198,
            "durationTicks": 180,
            "midi": 47,
            "name": "B2",
            "ticks": 365760,
            "time": 346.36329,
            "velocity": 0.9133858267716536
          },
          {
            "duration": 0.17045437499996297,
            "durationTicks": 180,
            "midi": 43,
            "name": "G2",
            "ticks": 366000,
            "time": 346.59056250000003,
            "velocity": 0.9133858267716536
          },
          {
            "duration": 0.1704543750000198,
            "durationTicks": 180,
            "midi": 50,
            "name": "D3",
            "ticks": 366240,
            "time": 346.817835,
            "velocity": 0.9133858267716536
          },
          {
            "duration": 0.17045437499996297,
            "durationTicks": 180,
            "midi": 47,
            "name": "B2",
            "ticks": 366480,
            "time": 347.04510750000003,
            "velocity": 0.9133858267716536
          },
          {
            "duration": 0.3409087500000396,
            "durationTicks": 360,
            "midi": 43,
            "name": "G2",
            "ticks": 366720,
            "time": 347.27238,
            "velocity": 0.9133858267716536
          },
          {
            "duration": 0.2556815625000013,
            "durationTicks": 270,
            "midi": 31,
            "name": "G1",
            "ticks": 367200,
            "time": 347.726925,
            "velocity": 0.9133858267716536
          },
          {
            "duration": 0.08522718749998148,
            "durationTicks": 90,
            "midi": 31,
            "name": "G1",
            "ticks": 367560,
            "time": 348.06783375000003,
            "velocity": 0.9133858267716536
          },
          {
            "duration": 0.3636359999999854,
            "durationTicks": 384,
            "midi": 31,
            "name": "G1",
            "ticks": 367680,
            "time": 348.18147,
            "velocity": 0.9133858267716536
          },
          {
            "duration": 0.7272720000000277,
            "durationTicks": 768,
            "midi": 31,
            "name": "G1",
            "ticks": 370560,
            "time": 350.90874,
            "velocity": 0.007874015748031496
          }
        ]
      }
    ]
  }