{
    "header": {
      "keySignatures": [
        {
          "key": "C",
          "scale": "major",
          "ticks": 0
        }
      ],
      "meta": [
        {
          "text": "C Original",
          "ticks": 1,
          "type": "marker"
        },
        {
          "text": "VERSE 1",
          "ticks": 1920,
          "type": "marker"
        },
        {
          "text": "VERSE 2",
          "ticks": 17280,
          "type": "marker"
        }
      ],
      "name": "",
      "ppq": 480,
      "tempos": [
        {
          "bpm": 86.00005160003096,
          "ticks": 0
        },
        {
          "bpm": 88.00002346667293,
          "ticks": 5760
        },
        {
          "bpm": 86.00005160003096,
          "ticks": 7680
        },
        {
          "bpm": 88.00002346667293,
          "ticks": 11520
        },
        {
          "bpm": 86.00005160003096,
          "ticks": 13440
        },
        {
          "bpm": 88.00002346667293,
          "ticks": 19200
        },
        {
          "bpm": 87.00002175000543,
          "ticks": 20160
        },
        {
          "bpm": 85.00004250002125,
          "ticks": 21120
        },
        {
          "bpm": 86.00005160003096,
          "ticks": 23040
        },
        {
          "bpm": 87.00002175000543,
          "ticks": 25440
        },
        {
          "bpm": 85.00004250002125,
          "ticks": 26880
        }
      ],
      "timeSignatures": [
        {
          "ticks": 0,
          "timeSignature": [
            4,
            4
          ],
          "measures": 0
        }
      ]
    },
    "tracks": [
      {
        "channel": 0,
        "controlChanges": {
          "0": [
            {
              "number": 0,
              "ticks": 481,
              "time": 0.6991274875000001,
              "value": 0
            }
          ],
          "32": [
            {
              "number": 32,
              "ticks": 481,
              "time": 0.6991274875000001,
              "value": 0
            }
          ]
        },
        "pitchBends": [],
        "instrument": {
          "family": "piano",
          "number": 0,
          "name": "acoustic grand piano"
        },
        "name": "Strawberry Swing (MIDI DEMO)",
        "notes": [],
        "endOfTrackTicks": 28800
      },
      {
        "channel": 0,
        "controlChanges": {
          "6": [
            {
              "number": 6,
              "ticks": 586,
              "time": 0.8517436750000001,
              "value": 0.015748031496062992
            }
          ],
          "7": [
            {
              "number": 7,
              "ticks": 482,
              "time": 0.700580975,
              "value": 0.7086614173228346
            }
          ],
          "10": [
            {
              "number": 10,
              "ticks": 482,
              "time": 0.700580975,
              "value": 0.1889763779527559
            }
          ],
          "11": [
            {
              "number": 11,
              "ticks": 487,
              "time": 0.7078484125000001,
              "value": 1
            }
          ],
          "38": [
            {
              "number": 38,
              "ticks": 587,
              "time": 0.8531971625,
              "value": 0
            }
          ],
          "91": [
            {
              "number": 91,
              "ticks": 482,
              "time": 0.700580975,
              "value": 0.31496062992125984
            }
          ],
          "93": [
            {
              "number": 93,
              "ticks": 482,
              "time": 0.700580975,
              "value": 0.31496062992125984
            }
          ],
          "100": [
            {
              "number": 100,
              "ticks": 585,
              "time": 0.8502901875000001,
              "value": 0
            }
          ],
          "101": [
            {
              "number": 101,
              "ticks": 584,
              "time": 0.8488367,
              "value": 0
            }
          ],
          "120": [
            {
              "number": 120,
              "ticks": 28755,
              "time": 41.661272562499995,
              "value": 0
            },
            {
              "number": 120,
              "ticks": 28755,
              "time": 41.661272562499995,
              "value": 0
            }
          ],
          "123": [
            {
              "number": 123,
              "ticks": 28680,
              "time": 41.5509785,
              "value": 0
            },
            {
              "number": 123,
              "ticks": 28680,
              "time": 41.5509785,
              "value": 0
            }
          ]
        },
        "pitchBends": [],
        "instrument": {
          "family": "guitar",
          "number": 24,
          "name": "acoustic guitar (nylon)"
        },
        "name": "",
        "notes": []
      },
      {
        "channel": 0,
        "controlChanges": {
          "0": [
            {
              "number": 0,
              "ticks": 483,
              "time": 0.7020344625000001,
              "value": 0
            }
          ],
          "32": [
            {
              "number": 32,
              "ticks": 484,
              "time": 0.70348795,
              "value": 0
            }
          ]
        },
        "pitchBends": [],
        "instrument": {
          "family": "piano",
          "number": 0,
          "name": "acoustic grand piano"
        },
        "name": "Strawberry Swing (MIDI DEMO)",
        "notes": [],
        "endOfTrackTicks": 28800
      },
      {
        "channel": 1,
        "controlChanges": {
          "6": [
            {
              "number": 6,
              "ticks": 510,
              "time": 0.741278625,
              "value": 0.015748031496062992
            }
          ],
          "7": [
            {
              "number": 7,
              "ticks": 485,
              "time": 0.7049414375,
              "value": 0.9133858267716536
            }
          ],
          "10": [
            {
              "number": 10,
              "ticks": 485,
              "time": 0.7049414375,
              "value": 0.5039370078740157
            }
          ],
          "11": [
            {
              "number": 11,
              "ticks": 495,
              "time": 0.7194763125,
              "value": 1
            }
          ],
          "38": [
            {
              "number": 38,
              "ticks": 511,
              "time": 0.7427321125,
              "value": 0
            }
          ],
          "91": [
            {
              "number": 91,
              "ticks": 485,
              "time": 0.7049414375,
              "value": 0
            }
          ],
          "93": [
            {
              "number": 93,
              "ticks": 485,
              "time": 0.7049414375,
              "value": 0.23622047244094488
            }
          ],
          "100": [
            {
              "number": 100,
              "ticks": 509,
              "time": 0.7398251374999999,
              "value": 0
            }
          ],
          "101": [
            {
              "number": 101,
              "ticks": 508,
              "time": 0.73837165,
              "value": 0
            }
          ],
          "120": [
            {
              "number": 120,
              "ticks": 28755,
              "time": 41.661272562499995,
              "value": 0
            }
          ],
          "123": [
            {
              "number": 123,
              "ticks": 28680,
              "time": 41.5509785,
              "value": 0
            }
          ]
        },
        "pitchBends": [],
        "instrument": {
          "family": "bass",
          "number": 33,
          "name": "electric bass (finger)"
        },
        "name": "",
        "notes": [
          {
            "duration": 2.0857545624999996,
            "durationTicks": 1435,
            "midi": 37,
            "name": "C#2",
            "ticks": 1920,
            "time": 2.790696,
            "velocity": 0.8661417322834646
          },
          {
            "duration": 0.6904065624999998,
            "durationTicks": 475,
            "midi": 37,
            "name": "C#2",
            "ticks": 3360,
            "time": 4.883718,
            "velocity": 0.8661417322834646
          },
          {
            "duration": 2.0944754874999996,
            "durationTicks": 1441,
            "midi": 32,
            "name": "G#1",
            "ticks": 3840,
            "time": 5.581392,
            "velocity": 0.9133858267716536
          },
          {
            "duration": 0.6976739999999992,
            "durationTicks": 480,
            "midi": 32,
            "name": "G#1",
            "ticks": 5280,
            "time": 7.6744140000000005,
            "velocity": 0.9133858267716536
          },
          {
            "duration": 0.6761361833333339,
            "durationTicks": 476,
            "midi": 39,
            "name": "D#2",
            "ticks": 5760,
            "time": 8.372088,
            "velocity": 0.8818897637795275
          },
          {
            "duration": 0.33806809166666696,
            "durationTicks": 238,
            "midi": 39,
            "name": "D#2",
            "ticks": 6240,
            "time": 9.053906,
            "velocity": 0.8503937007874016
          },
          {
            "duration": 0.33806809166666696,
            "durationTicks": 238,
            "midi": 39,
            "name": "D#2",
            "ticks": 6480,
            "time": 9.394815,
            "velocity": 0.7952755905511811
          },
          {
            "duration": 0.33806809166666696,
            "durationTicks": 238,
            "midi": 39,
            "name": "D#2",
            "ticks": 6720,
            "time": 9.735724,
            "velocity": 0.7952755905511811
          },
          {
            "duration": 0.5085225916666669,
            "durationTicks": 358,
            "midi": 39,
            "name": "D#2",
            "ticks": 6960,
            "time": 10.076633,
            "velocity": 0.8818897637795275
          },
          {
            "duration": 0.167613591666667,
            "durationTicks": 118,
            "midi": 39,
            "name": "D#2",
            "ticks": 7320,
            "time": 10.5879965,
            "velocity": 0.8503937007874016
          },
          {
            "duration": 0.33806809166666696,
            "durationTicks": 238,
            "midi": 39,
            "name": "D#2",
            "ticks": 7440,
            "time": 10.758450999999999,
            "velocity": 0.8267716535433071
          },
          {
            "duration": 0.6918600500000007,
            "durationTicks": 476,
            "midi": 39,
            "name": "D#2",
            "ticks": 7680,
            "time": 11.099359999999999,
            "velocity": 0.8818897637795275
          },
          {
            "duration": 0.34593002500000125,
            "durationTicks": 238,
            "midi": 39,
            "name": "D#2",
            "ticks": 8160,
            "time": 11.797033999999998,
            "velocity": 0.8503937007874016
          },
          {
            "duration": 0.3459300249999995,
            "durationTicks": 238,
            "midi": 39,
            "name": "D#2",
            "ticks": 8400,
            "time": 12.145871,
            "velocity": 0.7952755905511811
          },
          {
            "duration": 0.3459300249999995,
            "durationTicks": 238,
            "midi": 39,
            "name": "D#2",
            "ticks": 8640,
            "time": 12.494708,
            "velocity": 0.7952755905511811
          },
          {
            "duration": 0.5203485249999993,
            "durationTicks": 358,
            "midi": 39,
            "name": "D#2",
            "ticks": 8880,
            "time": 12.843544999999999,
            "velocity": 0.8818897637795275
          },
          {
            "duration": 0.17151152499999966,
            "durationTicks": 118,
            "midi": 39,
            "name": "D#2",
            "ticks": 9240,
            "time": 13.3668005,
            "velocity": 0.8503937007874016
          },
          {
            "duration": 0.34593002500000125,
            "durationTicks": 238,
            "midi": 39,
            "name": "D#2",
            "ticks": 9360,
            "time": 13.541218999999998,
            "velocity": 0.8267716535433071
          },
          {
            "duration": 2.0857545624999982,
            "durationTicks": 1435,
            "midi": 37,
            "name": "C#2",
            "ticks": 9600,
            "time": 13.890056,
            "velocity": 0.8661417322834646
          },
          {
            "duration": 0.6904065625000015,
            "durationTicks": 475,
            "midi": 37,
            "name": "C#2",
            "ticks": 11040,
            "time": 15.983077999999999,
            "velocity": 0.8661417322834646
          },
          {
            "duration": 2.046874454166666,
            "durationTicks": 1441,
            "midi": 32,
            "name": "G#1",
            "ticks": 11520,
            "time": 16.680752,
            "velocity": 0.9133858267716536
          },
          {
            "duration": 0.6818179999999998,
            "durationTicks": 480,
            "midi": 32,
            "name": "G#1",
            "ticks": 12960,
            "time": 18.726205999999998,
            "velocity": 0.9133858267716536
          },
          {
            "duration": 0.691860049999999,
            "durationTicks": 476,
            "midi": 39,
            "name": "D#2",
            "ticks": 13440,
            "time": 19.408023999999997,
            "velocity": 0.8818897637795275
          },
          {
            "duration": 0.34593002500000125,
            "durationTicks": 238,
            "midi": 39,
            "name": "D#2",
            "ticks": 13920,
            "time": 20.105697999999997,
            "velocity": 0.8503937007874016
          },
          {
            "duration": 0.34593002500000125,
            "durationTicks": 238,
            "midi": 39,
            "name": "D#2",
            "ticks": 14160,
            "time": 20.454534999999996,
            "velocity": 0.7952755905511811
          },
          {
            "duration": 0.34593002500000125,
            "durationTicks": 238,
            "midi": 39,
            "name": "D#2",
            "ticks": 14400,
            "time": 20.803371999999996,
            "velocity": 0.7952755905511811
          },
          {
            "duration": 0.5203485249999993,
            "durationTicks": 358,
            "midi": 39,
            "name": "D#2",
            "ticks": 14640,
            "time": 21.152209,
            "velocity": 0.8818897637795275
          },
          {
            "duration": 0.17151152499999966,
            "durationTicks": 118,
            "midi": 39,
            "name": "D#2",
            "ticks": 15000,
            "time": 21.675464499999997,
            "velocity": 0.8503937007874016
          },
          {
            "duration": 0.3459300249999977,
            "durationTicks": 238,
            "midi": 39,
            "name": "D#2",
            "ticks": 15120,
            "time": 21.849883,
            "velocity": 0.8267716535433071
          },
          {
            "duration": 0.691860049999999,
            "durationTicks": 476,
            "midi": 39,
            "name": "D#2",
            "ticks": 15360,
            "time": 22.198719999999998,
            "velocity": 0.8818897637795275
          },
          {
            "duration": 0.34593002500000125,
            "durationTicks": 238,
            "midi": 39,
            "name": "D#2",
            "ticks": 15840,
            "time": 22.896393999999997,
            "velocity": 0.8503937007874016
          },
          {
            "duration": 0.34593002500000125,
            "durationTicks": 238,
            "midi": 39,
            "name": "D#2",
            "ticks": 16080,
            "time": 23.245230999999997,
            "velocity": 0.7952755905511811
          },
          {
            "duration": 0.34593002500000125,
            "durationTicks": 238,
            "midi": 39,
            "name": "D#2",
            "ticks": 16320,
            "time": 23.594067999999996,
            "velocity": 0.7952755905511811
          },
          {
            "duration": 0.5203485250000028,
            "durationTicks": 358,
            "midi": 39,
            "name": "D#2",
            "ticks": 16560,
            "time": 23.942904999999996,
            "velocity": 0.8818897637795275
          },
          {
            "duration": 0.17151152499999966,
            "durationTicks": 118,
            "midi": 39,
            "name": "D#2",
            "ticks": 16920,
            "time": 24.466160499999997,
            "velocity": 0.8503937007874016
          },
          {
            "duration": 0.3459300249999977,
            "durationTicks": 238,
            "midi": 39,
            "name": "D#2",
            "ticks": 17040,
            "time": 24.640579,
            "velocity": 0.8267716535433071
          },
          {
            "duration": 2.0857545625,
            "durationTicks": 1435,
            "midi": 37,
            "name": "C#2",
            "ticks": 17280,
            "time": 24.989416,
            "velocity": 0.8661417322834646
          },
          {
            "duration": 0.6904065625000015,
            "durationTicks": 475,
            "midi": 37,
            "name": "C#2",
            "ticks": 18720,
            "time": 27.082437999999996,
            "velocity": 0.8661417322834646
          },
          {
            "duration": 2.0547277812500013,
            "durationTicks": 1441,
            "midi": 32,
            "name": "G#1",
            "ticks": 19200,
            "time": 27.780111999999995,
            "velocity": 0.9133858267716536
          },
          {
            "duration": 0.6896550000000019,
            "durationTicks": 480,
            "midi": 32,
            "name": "G#1",
            "ticks": 20640,
            "time": 29.833402999999993,
            "velocity": 0.9133858267716536
          },
          {
            "duration": 0.6999996499999988,
            "durationTicks": 476,
            "midi": 39,
            "name": "D#2",
            "ticks": 21120,
            "time": 30.523057999999995,
            "velocity": 0.8818897637795275
          },
          {
            "duration": 0.34999982500000115,
            "durationTicks": 238,
            "midi": 39,
            "name": "D#2",
            "ticks": 21600,
            "time": 31.228939999999994,
            "velocity": 0.8503937007874016
          },
          {
            "duration": 0.34999982500000115,
            "durationTicks": 238,
            "midi": 39,
            "name": "D#2",
            "ticks": 21840,
            "time": 31.581880999999996,
            "velocity": 0.7952755905511811
          },
          {
            "duration": 0.3499998249999976,
            "durationTicks": 238,
            "midi": 39,
            "name": "D#2",
            "ticks": 22080,
            "time": 31.934821999999997,
            "velocity": 0.7952755905511811
          },
          {
            "duration": 0.5264703249999982,
            "durationTicks": 358,
            "midi": 39,
            "name": "D#2",
            "ticks": 22320,
            "time": 32.287763,
            "velocity": 0.8818897637795275
          },
          {
            "duration": 0.17352932500000406,
            "durationTicks": 118,
            "midi": 39,
            "name": "D#2",
            "ticks": 22680,
            "time": 32.81717449999999,
            "velocity": 0.8503937007874016
          },
          {
            "duration": 0.3499998250000047,
            "durationTicks": 238,
            "midi": 39,
            "name": "D#2",
            "ticks": 22800,
            "time": 32.993644999999994,
            "velocity": 0.8267716535433071
          },
          {
            "duration": 0.6918600500000025,
            "durationTicks": 476,
            "midi": 39,
            "name": "D#2",
            "ticks": 23040,
            "time": 33.346585999999995,
            "velocity": 0.8818897637795275
          },
          {
            "duration": 0.34593002500000125,
            "durationTicks": 238,
            "midi": 39,
            "name": "D#2",
            "ticks": 23520,
            "time": 34.044259999999994,
            "velocity": 0.8503937007874016
          },
          {
            "duration": 0.34593002500000125,
            "durationTicks": 238,
            "midi": 39,
            "name": "D#2",
            "ticks": 23760,
            "time": 34.393097,
            "velocity": 0.7952755905511811
          },
          {
            "duration": 0.34593002500000125,
            "durationTicks": 238,
            "midi": 39,
            "name": "D#2",
            "ticks": 24000,
            "time": 34.74193399999999,
            "velocity": 0.7952755905511811
          },
          {
            "duration": 0.5203485249999957,
            "durationTicks": 358,
            "midi": 39,
            "name": "D#2",
            "ticks": 24240,
            "time": 35.090771,
            "velocity": 0.8818897637795275
          },
          {
            "duration": 0.17151152499999966,
            "durationTicks": 118,
            "midi": 39,
            "name": "D#2",
            "ticks": 24600,
            "time": 35.614026499999994,
            "velocity": 0.8503937007874016
          },
          {
            "duration": 0.34593002500000125,
            "durationTicks": 238,
            "midi": 39,
            "name": "D#2",
            "ticks": 24720,
            "time": 35.788444999999996,
            "velocity": 0.8267716535433071
          },
          {
            "duration": 2.069800093750004,
            "durationTicks": 1435,
            "midi": 37,
            "name": "C#2",
            "ticks": 24960,
            "time": 36.13728199999999,
            "velocity": 0.8661417322834646
          }
        ]
      },
      {
        "channel": 0,
        "controlChanges": {
          "0": [
            {
              "number": 0,
              "ticks": 486,
              "time": 0.706394925,
              "value": 0
            }
          ],
          "32": [
            {
              "number": 32,
              "ticks": 486,
              "time": 0.706394925,
              "value": 0
            }
          ]
        },
        "pitchBends": [],
        "instrument": {
          "family": "piano",
          "number": 0,
          "name": "acoustic grand piano"
        },
        "name": "Strawberry Swing (MIDI DEMO)",
        "notes": [],
        "endOfTrackTicks": 28800
      },
      {
        "channel": 2,
        "controlChanges": {
          "1": [
            {
              "number": 1,
              "ticks": 7680,
              "time": 11.099359999999999,
              "value": 0.047244094488188976
            },
            {
              "number": 1,
              "ticks": 8160,
              "time": 11.797033999999998,
              "value": 0.09448818897637795
            },
            {
              "number": 1,
              "ticks": 8640,
              "time": 12.494708,
              "value": 0.14173228346456693
            },
            {
              "number": 1,
              "ticks": 9120,
              "time": 13.192381999999998,
              "value": 0.11023622047244094
            },
            {
              "number": 1,
              "ticks": 9600,
              "time": 13.890056,
              "value": 0.06299212598425197
            },
            {
              "number": 1,
              "ticks": 10080,
              "time": 14.587729999999999,
              "value": 0
            },
            {
              "number": 1,
              "ticks": 23040,
              "time": 33.346585999999995,
              "value": 0.047244094488188976
            },
            {
              "number": 1,
              "ticks": 23520,
              "time": 34.044259999999994,
              "value": 0.09448818897637795
            },
            {
              "number": 1,
              "ticks": 24000,
              "time": 34.74193399999999,
              "value": 0.14173228346456693
            },
            {
              "number": 1,
              "ticks": 24480,
              "time": 35.43960799999999,
              "value": 0.11023622047244094
            },
            {
              "number": 1,
              "ticks": 24960,
              "time": 36.13728199999999,
              "value": 0.06299212598425197
            },
            {
              "number": 1,
              "ticks": 25440,
              "time": 36.834956,
              "value": 0
            }
          ],
          "6": [
            {
              "number": 6,
              "ticks": 632,
              "time": 0.9186041,
              "value": 0.015748031496062992
            }
          ],
          "7": [
            {
              "number": 7,
              "ticks": 487,
              "time": 0.7078484125000001,
              "value": 0.5511811023622047
            }
          ],
          "10": [
            {
              "number": 10,
              "ticks": 487,
              "time": 0.7078484125000001,
              "value": 0.5039370078740157
            }
          ],
          "11": [
            {
              "number": 11,
              "ticks": 503,
              "time": 0.7311042125,
              "value": 1
            },
            {
              "number": 11,
              "ticks": 1920,
              "time": 2.790696,
              "value": 0.8110236220472441
            },
            {
              "number": 11,
              "ticks": 2880,
              "time": 4.186044,
              "value": 0.8188976377952756
            },
            {
              "number": 11,
              "ticks": 3360,
              "time": 4.883718,
              "value": 0.8267716535433071
            },
            {
              "number": 11,
              "ticks": 3840,
              "time": 5.581392,
              "value": 0.8346456692913385
            },
            {
              "number": 11,
              "ticks": 4800,
              "time": 6.97674,
              "value": 0.84251968503937
            },
            {
              "number": 11,
              "ticks": 5280,
              "time": 7.6744140000000005,
              "value": 0.8503937007874016
            },
            {
              "number": 11,
              "ticks": 5760,
              "time": 8.372088,
              "value": 0.8582677165354331
            },
            {
              "number": 11,
              "ticks": 6720,
              "time": 9.735724,
              "value": 0.8661417322834646
            },
            {
              "number": 11,
              "ticks": 7200,
              "time": 10.417542,
              "value": 0.8818897637795275
            },
            {
              "number": 11,
              "ticks": 7680,
              "time": 11.099359999999999,
              "value": 0.889763779527559
            },
            {
              "number": 11,
              "ticks": 8640,
              "time": 12.494708,
              "value": 0.8976377952755905
            },
            {
              "number": 11,
              "ticks": 9120,
              "time": 13.192381999999998,
              "value": 0.905511811023622
            },
            {
              "number": 11,
              "ticks": 9600,
              "time": 13.890056,
              "value": 0.9133858267716536
            },
            {
              "number": 11,
              "ticks": 10560,
              "time": 15.285404,
              "value": 0.9212598425196851
            },
            {
              "number": 11,
              "ticks": 11040,
              "time": 15.983077999999999,
              "value": 0.9291338582677166
            },
            {
              "number": 11,
              "ticks": 11520,
              "time": 16.680752,
              "value": 0.937007874015748
            },
            {
              "number": 11,
              "ticks": 12480,
              "time": 18.044387999999998,
              "value": 0.9448818897637795
            },
            {
              "number": 11,
              "ticks": 12960,
              "time": 18.726205999999998,
              "value": 0.952755905511811
            },
            {
              "number": 11,
              "ticks": 13440,
              "time": 19.408023999999997,
              "value": 0.9606299212598425
            },
            {
              "number": 11,
              "ticks": 14400,
              "time": 20.803371999999996,
              "value": 0.968503937007874
            },
            {
              "number": 11,
              "ticks": 15069,
              "time": 21.7757551375,
              "value": 0.9921259842519685
            }
          ],
          "38": [
            {
              "number": 38,
              "ticks": 633,
              "time": 0.9200575875000001,
              "value": 0
            }
          ],
          "91": [
            {
              "number": 91,
              "ticks": 487,
              "time": 0.7078484125000001,
              "value": 0
            }
          ],
          "93": [
            {
              "number": 93,
              "ticks": 487,
              "time": 0.7078484125000001,
              "value": 0.15748031496062992
            }
          ],
          "100": [
            {
              "number": 100,
              "ticks": 631,
              "time": 0.9171506125000001,
              "value": 0
            }
          ],
          "101": [
            {
              "number": 101,
              "ticks": 630,
              "time": 0.915697125,
              "value": 0
            }
          ],
          "120": [
            {
              "number": 120,
              "ticks": 28755,
              "time": 41.661272562499995,
              "value": 0
            }
          ],
          "123": [
            {
              "number": 123,
              "ticks": 28680,
              "time": 41.5509785,
              "value": 0
            }
          ]
        },
        "pitchBends": [],
        "instrument": {
          "family": "organ",
          "number": 17,
          "name": "percussive organ"
        },
        "name": "",
        "notes": [
          {
            "duration": 2.7790681000000004,
            "durationTicks": 1912,
            "midi": 61,
            "name": "C#4",
            "ticks": 1920,
            "time": 2.790696,
            "velocity": 0.6771653543307087
          },
          {
            "duration": 2.7747076375,
            "durationTicks": 1909,
            "midi": 73,
            "name": "C#5",
            "ticks": 1920,
            "time": 2.790696,
            "velocity": 0.6771653543307087
          },
          {
            "duration": 2.7805215875000004,
            "durationTicks": 1913,
            "midi": 77,
            "name": "F5",
            "ticks": 1920,
            "time": 2.790696,
            "velocity": 0.6771653543307087
          },
          {
            "duration": 2.7456378875000005,
            "durationTicks": 1889,
            "midi": 80,
            "name": "G#5",
            "ticks": 1920,
            "time": 2.790696,
            "velocity": 0.5984251968503937
          },
          {
            "duration": 2.7805215875000004,
            "durationTicks": 1913,
            "midi": 85,
            "name": "C#6",
            "ticks": 1920,
            "time": 2.790696,
            "velocity": 0.6771653543307087
          },
          {
            "duration": 2.7935369083333326,
            "durationTicks": 1922,
            "midi": 68,
            "name": "G#4",
            "ticks": 3840,
            "time": 5.581392,
            "velocity": 0.6929133858267716
          },
          {
            "duration": 2.826207354166667,
            "durationTicks": 1945,
            "midi": 72,
            "name": "C5",
            "ticks": 3840,
            "time": 5.581392,
            "velocity": 0.6929133858267716
          },
          {
            "duration": 2.7543588125000005,
            "durationTicks": 1895,
            "midi": 75,
            "name": "D#5",
            "ticks": 3840,
            "time": 5.581392,
            "velocity": 0.6929133858267716
          },
          {
            "duration": 2.781975075000001,
            "durationTicks": 1914,
            "midi": 80,
            "name": "G#5",
            "ticks": 3840,
            "time": 5.581392,
            "velocity": 0.6062992125984252
          },
          {
            "duration": 2.7963778166666655,
            "durationTicks": 1924,
            "midi": 84,
            "name": "C6",
            "ticks": 3840,
            "time": 5.581392,
            "velocity": 0.6929133858267716
          },
          {
            "duration": 2.6874992833333327,
            "durationTicks": 1892,
            "midi": 63,
            "name": "D#4",
            "ticks": 5760,
            "time": 8.372088,
            "velocity": 0.6535433070866141
          },
          {
            "duration": 4.057213062499999,
            "durationTicks": 2835,
            "midi": 70,
            "name": "A#4",
            "ticks": 5760,
            "time": 8.372088,
            "velocity": 0.6535433070866141
          },
          {
            "duration": 2.6931811000000003,
            "durationTicks": 1896,
            "midi": 75,
            "name": "D#5",
            "ticks": 5760,
            "time": 8.372088,
            "velocity": 0.6535433070866141
          },
          {
            "duration": 2.707385641666667,
            "durationTicks": 1906,
            "midi": 79,
            "name": "G5",
            "ticks": 5760,
            "time": 8.372088,
            "velocity": 0.5748031496062992
          },
          {
            "duration": 2.691760645833332,
            "durationTicks": 1895,
            "midi": 82,
            "name": "A#5",
            "ticks": 5760,
            "time": 8.372088,
            "velocity": 0.6535433070866141
          },
          {
            "duration": 2.78488205,
            "durationTicks": 1916,
            "midi": 63,
            "name": "D#4",
            "ticks": 7680,
            "time": 11.099359999999999,
            "velocity": 0.6377952755905512
          },
          {
            "duration": 2.7892425124999995,
            "durationTicks": 1919,
            "midi": 75,
            "name": "D#5",
            "ticks": 7680,
            "time": 11.099359999999999,
            "velocity": 0.6456692913385826
          },
          {
            "duration": 2.7877890250000004,
            "durationTicks": 1918,
            "midi": 79,
            "name": "G5",
            "ticks": 7680,
            "time": 11.099359999999999,
            "velocity": 0.5669291338582677
          },
          {
            "duration": 2.7936029750000007,
            "durationTicks": 1922,
            "midi": 82,
            "name": "A#5",
            "ticks": 7680,
            "time": 11.099359999999999,
            "velocity": 0.6456692913385826
          },
          {
            "duration": 1.4040689250000007,
            "durationTicks": 966,
            "midi": 70,
            "name": "A#4",
            "ticks": 8640,
            "time": 12.494708,
            "velocity": 0.6535433070866141
          },
          {
            "duration": 2.779068099999998,
            "durationTicks": 1912,
            "midi": 61,
            "name": "C#4",
            "ticks": 9600,
            "time": 13.890056,
            "velocity": 0.6771653543307087
          },
          {
            "duration": 2.774707637499999,
            "durationTicks": 1909,
            "midi": 73,
            "name": "C#5",
            "ticks": 9600,
            "time": 13.890056,
            "velocity": 0.6771653543307087
          },
          {
            "duration": 2.780521587499999,
            "durationTicks": 1913,
            "midi": 77,
            "name": "F5",
            "ticks": 9600,
            "time": 13.890056,
            "velocity": 0.6771653543307087
          },
          {
            "duration": 2.745637887500001,
            "durationTicks": 1889,
            "midi": 80,
            "name": "G#5",
            "ticks": 9600,
            "time": 13.890056,
            "velocity": 0.5984251968503937
          },
          {
            "duration": 2.780521587499999,
            "durationTicks": 1913,
            "midi": 85,
            "name": "C#6",
            "ticks": 9600,
            "time": 13.890056,
            "velocity": 0.6771653543307087
          },
          {
            "duration": 2.7301789749999976,
            "durationTicks": 1922,
            "midi": 68,
            "name": "G#4",
            "ticks": 11520,
            "time": 16.680752,
            "velocity": 0.6929133858267716
          },
          {
            "duration": 2.7636091874999984,
            "durationTicks": 1945,
            "midi": 72,
            "name": "C5",
            "ticks": 11520,
            "time": 16.680752,
            "velocity": 0.6929133858267716
          },
          {
            "duration": 2.691760645833334,
            "durationTicks": 1895,
            "midi": 75,
            "name": "D#5",
            "ticks": 11520,
            "time": 16.680752,
            "velocity": 0.6929133858267716
          },
          {
            "duration": 2.7187492750000004,
            "durationTicks": 1914,
            "midi": 80,
            "name": "G#5",
            "ticks": 11520,
            "time": 16.680752,
            "velocity": 0.6062992125984252
          },
          {
            "duration": 2.7330859499999995,
            "durationTicks": 1924,
            "midi": 84,
            "name": "C6",
            "ticks": 11520,
            "time": 16.680752,
            "velocity": 0.6929133858267716
          },
          {
            "duration": 2.7499983499999985,
            "durationTicks": 1892,
            "midi": 63,
            "name": "D#4",
            "ticks": 13440,
            "time": 19.408023999999997,
            "velocity": 0.6535433070866141
          },
          {
            "duration": 4.120637062500002,
            "durationTicks": 2835,
            "midi": 70,
            "name": "A#4",
            "ticks": 13440,
            "time": 19.408023999999997,
            "velocity": 0.6535433070866141
          },
          {
            "duration": 2.7558122999999988,
            "durationTicks": 1896,
            "midi": 75,
            "name": "D#5",
            "ticks": 13440,
            "time": 19.408023999999997,
            "velocity": 0.6535433070866141
          },
          {
            "duration": 2.7703471750000013,
            "durationTicks": 1906,
            "midi": 80,
            "name": "G#5",
            "ticks": 13440,
            "time": 19.408023999999997,
            "velocity": 0.5748031496062992
          },
          {
            "duration": 2.7543588125000014,
            "durationTicks": 1895,
            "midi": 82,
            "name": "A#5",
            "ticks": 13440,
            "time": 19.408023999999997,
            "velocity": 0.6535433070866141
          },
          {
            "duration": 2.78488205,
            "durationTicks": 1916,
            "midi": 63,
            "name": "D#4",
            "ticks": 15360,
            "time": 22.198719999999998,
            "velocity": 0.6377952755905512
          },
          {
            "duration": 2.7892425124999995,
            "durationTicks": 1919,
            "midi": 75,
            "name": "D#5",
            "ticks": 15360,
            "time": 22.198719999999998,
            "velocity": 0.6456692913385826
          },
          {
            "duration": 2.7877890249999986,
            "durationTicks": 1918,
            "midi": 79,
            "name": "G5",
            "ticks": 15360,
            "time": 22.198719999999998,
            "velocity": 0.5669291338582677
          },
          {
            "duration": 2.793602974999999,
            "durationTicks": 1922,
            "midi": 82,
            "name": "A#5",
            "ticks": 15360,
            "time": 22.198719999999998,
            "velocity": 0.6456692913385826
          },
          {
            "duration": 1.4040689250000007,
            "durationTicks": 966,
            "midi": 70,
            "name": "A#4",
            "ticks": 16320,
            "time": 23.594067999999996,
            "velocity": 0.6535433070866141
          },
          {
            "duration": 2.7790680999999964,
            "durationTicks": 1912,
            "midi": 61,
            "name": "C#4",
            "ticks": 17280,
            "time": 24.989416,
            "velocity": 0.6771653543307087
          },
          {
            "duration": 2.7747076375000006,
            "durationTicks": 1909,
            "midi": 73,
            "name": "C#5",
            "ticks": 17280,
            "time": 24.989416,
            "velocity": 0.6771653543307087
          },
          {
            "duration": 2.7805215874999973,
            "durationTicks": 1913,
            "midi": 77,
            "name": "F5",
            "ticks": 17280,
            "time": 24.989416,
            "velocity": 0.6771653543307087
          },
          {
            "duration": 2.745637887499999,
            "durationTicks": 1889,
            "midi": 80,
            "name": "G#5",
            "ticks": 17280,
            "time": 24.989416,
            "velocity": 0.5984251968503937
          },
          {
            "duration": 2.7805215874999973,
            "durationTicks": 1913,
            "midi": 85,
            "name": "C#6",
            "ticks": 17280,
            "time": 24.989416,
            "velocity": 0.6771653543307087
          },
          {
            "duration": 2.745887175,
            "durationTicks": 1922,
            "midi": 68,
            "name": "G#4",
            "ticks": 19200,
            "time": 27.780111999999995,
            "velocity": 0.6929133858267716
          },
          {
            "duration": 2.7797106874999997,
            "durationTicks": 1945,
            "midi": 72,
            "name": "C5",
            "ticks": 19200,
            "time": 27.780111999999995,
            "velocity": 0.6929133858267716
          },
          {
            "duration": 2.7070264687500014,
            "durationTicks": 1895,
            "midi": 75,
            "name": "D#5",
            "ticks": 19200,
            "time": 27.780111999999995,
            "velocity": 0.6929133858267716
          },
          {
            "duration": 2.734325312500001,
            "durationTicks": 1914,
            "midi": 80,
            "name": "G#5",
            "ticks": 19200,
            "time": 27.780111999999995,
            "velocity": 0.6062992125984252
          },
          {
            "duration": 2.74882835,
            "durationTicks": 1924,
            "midi": 84,
            "name": "C6",
            "ticks": 19200,
            "time": 27.780111999999995,
            "velocity": 0.6929133858267716
          },
          {
            "duration": 2.782351549999998,
            "durationTicks": 1892,
            "midi": 63,
            "name": "D#4",
            "ticks": 21120,
            "time": 30.523057999999995,
            "velocity": 0.6535433070866141
          },
          {
            "duration": 4.1534690624999975,
            "durationTicks": 2835,
            "midi": 70,
            "name": "A#4",
            "ticks": 21120,
            "time": 30.523057999999995,
            "velocity": 0.6535433070866141
          },
          {
            "duration": 2.788233899999998,
            "durationTicks": 1896,
            "midi": 75,
            "name": "D#5",
            "ticks": 21120,
            "time": 30.523057999999995,
            "velocity": 0.6535433070866141
          },
          {
            "duration": 2.8029397750000022,
            "durationTicks": 1906,
            "midi": 79,
            "name": "G5",
            "ticks": 21120,
            "time": 30.523057999999995,
            "velocity": 0.5748031496062992
          },
          {
            "duration": 2.786763312499996,
            "durationTicks": 1895,
            "midi": 82,
            "name": "A#5",
            "ticks": 21120,
            "time": 30.523057999999995,
            "velocity": 0.6535433070866141
          },
          {
            "duration": 2.78488205,
            "durationTicks": 1916,
            "midi": 63,
            "name": "D#4",
            "ticks": 23040,
            "time": 33.346585999999995,
            "velocity": 0.6377952755905512
          },
          {
            "duration": 2.789242512500003,
            "durationTicks": 1919,
            "midi": 75,
            "name": "D#5",
            "ticks": 23040,
            "time": 33.346585999999995,
            "velocity": 0.6456692913385826
          },
          {
            "duration": 2.787789025000002,
            "durationTicks": 1918,
            "midi": 79,
            "name": "G5",
            "ticks": 23040,
            "time": 33.346585999999995,
            "velocity": 0.5669291338582677
          },
          {
            "duration": 2.793602974999999,
            "durationTicks": 1922,
            "midi": 82,
            "name": "A#5",
            "ticks": 23040,
            "time": 33.346585999999995,
            "velocity": 0.6456692913385826
          },
          {
            "duration": 1.4040689250000042,
            "durationTicks": 966,
            "midi": 70,
            "name": "A#4",
            "ticks": 24000,
            "time": 34.74193399999999,
            "velocity": 0.6535433070866141
          },
          {
            "duration": 2.7551447500000066,
            "durationTicks": 1912,
            "midi": 61,
            "name": "C#4",
            "ticks": 24960,
            "time": 36.13728199999999,
            "velocity": 0.6771653543307087
          },
          {
            "duration": 2.750834406250007,
            "durationTicks": 1909,
            "midi": 73,
            "name": "C#5",
            "ticks": 24960,
            "time": 36.13728199999999,
            "velocity": 0.6771653543307087
          },
          {
            "duration": 2.7565815312500064,
            "durationTicks": 1913,
            "midi": 77,
            "name": "F5",
            "ticks": 24960,
            "time": 36.13728199999999,
            "velocity": 0.6771653543307087
          },
          {
            "duration": 2.722098781250004,
            "durationTicks": 1889,
            "midi": 80,
            "name": "G#5",
            "ticks": 24960,
            "time": 36.13728199999999,
            "velocity": 0.5984251968503937
          },
          {
            "duration": 2.7565815312500064,
            "durationTicks": 1913,
            "midi": 85,
            "name": "C#6",
            "ticks": 24960,
            "time": 36.13728199999999,
            "velocity": 0.6771653543307087
          }
        ]
      },
      {
        "channel": 0,
        "controlChanges": {
          "0": [
            {
              "number": 0,
              "ticks": 488,
              "time": 0.7093018999999999,
              "value": 0
            }
          ],
          "32": [
            {
              "number": 32,
              "ticks": 489,
              "time": 0.7107553875,
              "value": 0
            }
          ]
        },
        "pitchBends": [],
        "instrument": {
          "family": "piano",
          "number": 0,
          "name": "acoustic grand piano"
        },
        "name": "Strawberry Swing (MIDI DEMO)",
        "notes": [],
        "endOfTrackTicks": 28800
      },
      {
        "channel": 3,
        "controlChanges": {
          "6": [
            {
              "number": 6,
              "ticks": 641,
              "time": 0.9316854875,
              "value": 0.015748031496062992
            }
          ],
          "7": [
            {
              "number": 7,
              "ticks": 490,
              "time": 0.712208875,
              "value": 0.8582677165354331
            }
          ],
          "10": [
            {
              "number": 10,
              "ticks": 490,
              "time": 0.712208875,
              "value": 0.5039370078740157
            }
          ],
          "11": [
            {
              "number": 11,
              "ticks": 511,
              "time": 0.7427321125,
              "value": 1
            }
          ],
          "38": [
            {
              "number": 38,
              "ticks": 642,
              "time": 0.933138975,
              "value": 0
            }
          ],
          "91": [
            {
              "number": 91,
              "ticks": 490,
              "time": 0.712208875,
              "value": 0.3937007874015748
            }
          ],
          "93": [
            {
              "number": 93,
              "ticks": 490,
              "time": 0.712208875,
              "value": 0.11811023622047244
            }
          ],
          "100": [
            {
              "number": 100,
              "ticks": 640,
              "time": 0.930232,
              "value": 0
            }
          ],
          "101": [
            {
              "number": 101,
              "ticks": 639,
              "time": 0.9287785125000001,
              "value": 0
            }
          ],
          "120": [
            {
              "number": 120,
              "ticks": 28755,
              "time": 41.661272562499995,
              "value": 0
            }
          ],
          "123": [
            {
              "number": 123,
              "ticks": 28680,
              "time": 41.5509785,
              "value": 0
            }
          ]
        },
        "pitchBends": [
          {
            "ticks": 5503,
            "time": 7.998541712500001,
            "value": 0.173828125
          },
          {
            "ticks": 5580,
            "time": 8.110460250000001,
            "value": 0
          },
          {
            "ticks": 8122,
            "time": 11.741801474999999,
            "value": -0.391357421875
          },
          {
            "ticks": 8146,
            "time": 11.776685174999999,
            "value": -0.174072265625
          },
          {
            "ticks": 8214,
            "time": 11.875522324999999,
            "value": -0.084228515625
          },
          {
            "ticks": 8296,
            "time": 11.9947083,
            "value": 0
          },
          {
            "ticks": 20863,
            "time": 30.153805218749994,
            "value": 0.173828125
          },
          {
            "ticks": 20940,
            "time": 30.264437374999996,
            "value": 0
          },
          {
            "ticks": 23482,
            "time": 33.98902747499999,
            "value": -0.391357421875
          },
          {
            "ticks": 23506,
            "time": 34.023911174999995,
            "value": -0.174072265625
          },
          {
            "ticks": 23574,
            "time": 34.122748324999996,
            "value": -0.084228515625
          },
          {
            "ticks": 23656,
            "time": 34.2419343,
            "value": 0
          }
        ],
        "instrument": {
          "family": "reed",
          "number": 66,
          "name": "tenor sax"
        },
        "name": "",
        "notes": [
          {
            "duration": 0.36918582499999975,
            "durationTicks": 254,
            "midi": 56,
            "name": "G#3",
            "ticks": 3120,
            "time": 4.534881,
            "velocity": 0.7795275590551181
          },
          {
            "duration": 0.35174397499999976,
            "durationTicks": 242,
            "midi": 58,
            "name": "A#3",
            "ticks": 3360,
            "time": 4.883718,
            "velocity": 0.8346456692913385
          },
          {
            "duration": 0.19331383749999986,
            "durationTicks": 133,
            "midi": 60,
            "name": "C4",
            "ticks": 3600,
            "time": 5.2325550000000005,
            "velocity": 0.8740157480314961
          },
          {
            "duration": 0.8154064874999989,
            "durationTicks": 561,
            "midi": 63,
            "name": "D#4",
            "ticks": 3720,
            "time": 5.4069735,
            "velocity": 0.8346456692913385
          },
          {
            "duration": 0.3561044374999991,
            "durationTicks": 245,
            "midi": 63,
            "name": "D#4",
            "ticks": 4320,
            "time": 6.279066,
            "velocity": 0.8346456692913385
          },
          {
            "duration": 0.34738351250000044,
            "durationTicks": 239,
            "midi": 60,
            "name": "C4",
            "ticks": 4560,
            "time": 6.627903,
            "velocity": 0.8740157480314961
          },
          {
            "duration": 0.3168602750000007,
            "durationTicks": 218,
            "midi": 63,
            "name": "D#4",
            "ticks": 4800,
            "time": 6.97674,
            "velocity": 0.8740157480314961
          },
          {
            "duration": 0.35755792500000005,
            "durationTicks": 246,
            "midi": 63,
            "name": "D#4",
            "ticks": 5040,
            "time": 7.325577,
            "velocity": 0.8582677165354331
          },
          {
            "duration": 0.3284881750000004,
            "durationTicks": 226,
            "midi": 65,
            "name": "F4",
            "ticks": 5280,
            "time": 7.6744140000000005,
            "velocity": 0.8503937007874016
          },
          {
            "duration": 1.0519618125,
            "durationTicks": 735,
            "midi": 58,
            "name": "A#3",
            "ticks": 5520,
            "time": 8.023251,
            "velocity": 0.7795275590551181
          },
          {
            "duration": 0.35610443750000087,
            "durationTicks": 245,
            "midi": 63,
            "name": "D#4",
            "ticks": 8160,
            "time": 11.797033999999998,
            "velocity": 0.8818897637795275
          },
          {
            "duration": 0.17732547499999995,
            "durationTicks": 122,
            "midi": 63,
            "name": "D#4",
            "ticks": 8400,
            "time": 12.145871,
            "velocity": 0.7795275590551181
          },
          {
            "duration": 0.5174415499999991,
            "durationTicks": 356,
            "midi": 63,
            "name": "D#4",
            "ticks": 8520,
            "time": 12.3202895,
            "velocity": 0.8740157480314961
          },
          {
            "duration": 0.3386625875,
            "durationTicks": 233,
            "midi": 61,
            "name": "C#4",
            "ticks": 8880,
            "time": 12.843544999999999,
            "velocity": 0.8818897637795275
          },
          {
            "duration": 0.3386625875,
            "durationTicks": 233,
            "midi": 60,
            "name": "C4",
            "ticks": 9120,
            "time": 13.192381999999998,
            "velocity": 0.8740157480314961
          },
          {
            "duration": 0.36918582500000063,
            "durationTicks": 254,
            "midi": 56,
            "name": "G#3",
            "ticks": 9360,
            "time": 13.541218999999998,
            "velocity": 0.8740157480314961
          },
          {
            "duration": 0.29796493749999975,
            "durationTicks": 205,
            "midi": 53,
            "name": "F3",
            "ticks": 9600,
            "time": 13.890056,
            "velocity": 0.8976377952755905
          },
          {
            "duration": 1.0959295750000013,
            "durationTicks": 754,
            "midi": 56,
            "name": "G#3",
            "ticks": 9840,
            "time": 14.238893,
            "velocity": 0.8346456692913385
          },
          {
            "duration": 0.34302304999999933,
            "durationTicks": 236,
            "midi": 56,
            "name": "G#3",
            "ticks": 16560,
            "time": 23.942904999999996,
            "velocity": 0.8188976377952756
          },
          {
            "duration": 0.34156956249999837,
            "durationTicks": 235,
            "midi": 58,
            "name": "A#3",
            "ticks": 16800,
            "time": 24.291742,
            "velocity": 0.8110236220472441
          },
          {
            "duration": 0.19040686249999794,
            "durationTicks": 131,
            "midi": 60,
            "name": "C4",
            "ticks": 17040,
            "time": 24.640579,
            "velocity": 0.8582677165354331
          },
          {
            "duration": 1.0537784375,
            "durationTicks": 725,
            "midi": 63,
            "name": "D#4",
            "ticks": 17160,
            "time": 24.814997499999997,
            "velocity": 0.8031496062992126
          },
          {
            "duration": 0.3691858250000024,
            "durationTicks": 254,
            "midi": 56,
            "name": "G#3",
            "ticks": 18480,
            "time": 26.733600999999997,
            "velocity": 0.7795275590551181
          },
          {
            "duration": 0.35174397500000154,
            "durationTicks": 242,
            "midi": 58,
            "name": "A#3",
            "ticks": 18720,
            "time": 27.082437999999996,
            "velocity": 0.8346456692913385
          },
          {
            "duration": 0.19331383749999986,
            "durationTicks": 133,
            "midi": 60,
            "name": "C4",
            "ticks": 18960,
            "time": 27.431275,
            "velocity": 0.8740157480314961
          },
          {
            "duration": 0.8008387874999983,
            "durationTicks": 561,
            "midi": 63,
            "name": "D#4",
            "ticks": 19080,
            "time": 27.605693499999997,
            "velocity": 0.8346456692913385
          },
          {
            "duration": 0.3480112708333323,
            "durationTicks": 245,
            "midi": 63,
            "name": "D#4",
            "ticks": 19680,
            "time": 28.461929999999995,
            "velocity": 0.8346456692913385
          },
          {
            "duration": 0.33948854583333343,
            "durationTicks": 239,
            "midi": 60,
            "name": "C4",
            "ticks": 19920,
            "time": 28.802838999999995,
            "velocity": 0.8740157480314961
          },
          {
            "duration": 0.3132183124999983,
            "durationTicks": 218,
            "midi": 63,
            "name": "D#4",
            "ticks": 20160,
            "time": 29.143747999999995,
            "velocity": 0.8740157480314961
          },
          {
            "duration": 0.35344818749999973,
            "durationTicks": 246,
            "midi": 63,
            "name": "D#4",
            "ticks": 20400,
            "time": 29.488575499999996,
            "velocity": 0.8582677165354331
          },
          {
            "duration": 0.32471256250000025,
            "durationTicks": 226,
            "midi": 65,
            "name": "F4",
            "ticks": 20640,
            "time": 29.833402999999993,
            "velocity": 0.8503937007874016
          },
          {
            "duration": 1.0727683124999992,
            "durationTicks": 735,
            "midi": 58,
            "name": "A#3",
            "ticks": 20880,
            "time": 30.178230499999994,
            "velocity": 0.7795275590551181
          },
          {
            "duration": 0.35610443750000087,
            "durationTicks": 245,
            "midi": 63,
            "name": "D#4",
            "ticks": 23520,
            "time": 34.044259999999994,
            "velocity": 0.8818897637795275
          },
          {
            "duration": 0.1773254749999964,
            "durationTicks": 122,
            "midi": 63,
            "name": "D#4",
            "ticks": 23760,
            "time": 34.393097,
            "velocity": 0.7795275590551181
          },
          {
            "duration": 0.5174415500000009,
            "durationTicks": 356,
            "midi": 63,
            "name": "D#4",
            "ticks": 23880,
            "time": 34.56751549999999,
            "velocity": 0.8740157480314961
          },
          {
            "duration": 0.33866258749999645,
            "durationTicks": 233,
            "midi": 61,
            "name": "C#4",
            "ticks": 24240,
            "time": 35.090771,
            "velocity": 0.8818897637795275
          },
          {
            "duration": 0.33866258750000355,
            "durationTicks": 233,
            "midi": 60,
            "name": "C4",
            "ticks": 24480,
            "time": 35.43960799999999,
            "velocity": 0.8740157480314961
          },
          {
            "duration": 0.3691858250000024,
            "durationTicks": 254,
            "midi": 56,
            "name": "G#3",
            "ticks": 24720,
            "time": 35.788444999999996,
            "velocity": 0.8740157480314961
          },
          {
            "duration": 0.4316857875000011,
            "durationTicks": 297,
            "midi": 53,
            "name": "F3",
            "ticks": 24960,
            "time": 36.13728199999999,
            "velocity": 0.8976377952755905
          },
          {
            "duration": 0.9541563125000039,
            "durationTicks": 662,
            "midi": 56,
            "name": "G#3",
            "ticks": 25260,
            "time": 36.573328249999996,
            "velocity": 0.8346456692913385
          }
        ]
      },
      {
        "channel": 0,
        "controlChanges": {
          "0": [
            {
              "number": 0,
              "ticks": 491,
              "time": 0.7136623625,
              "value": 0
            }
          ],
          "32": [
            {
              "number": 32,
              "ticks": 491,
              "time": 0.7136623625,
              "value": 0
            }
          ]
        },
        "pitchBends": [],
        "instrument": {
          "family": "piano",
          "number": 0,
          "name": "acoustic grand piano"
        },
        "name": "Strawberry Swing (MIDI DEMO)",
        "notes": [],
        "endOfTrackTicks": 28800
      },
      {
        "channel": 0,
        "controlChanges": {
          "6": [
            {
              "number": 6,
              "ticks": 658,
              "time": 0.956394775,
              "value": 0.015748031496062992
            }
          ],
          "7": [
            {
              "number": 7,
              "ticks": 492,
              "time": 0.71511585,
              "value": 0.7559055118110236
            }
          ],
          "10": [
            {
              "number": 10,
              "ticks": 492,
              "time": 0.71511585,
              "value": 0.5039370078740157
            }
          ],
          "11": [
            {
              "number": 11,
              "ticks": 519,
              "time": 0.7543600125000001,
              "value": 1
            }
          ],
          "38": [
            {
              "number": 38,
              "ticks": 659,
              "time": 0.9578482625,
              "value": 0
            }
          ],
          "91": [
            {
              "number": 91,
              "ticks": 492,
              "time": 0.71511585,
              "value": 0.3937007874015748
            }
          ],
          "93": [
            {
              "number": 93,
              "ticks": 492,
              "time": 0.71511585,
              "value": 0
            }
          ],
          "100": [
            {
              "number": 100,
              "ticks": 657,
              "time": 0.9549412875,
              "value": 0
            }
          ],
          "101": [
            {
              "number": 101,
              "ticks": 656,
              "time": 0.9534878,
              "value": 0
            }
          ],
          "120": [
            {
              "number": 120,
              "ticks": 28755,
              "time": 41.661272562499995,
              "value": 0
            }
          ],
          "123": [
            {
              "number": 123,
              "ticks": 28680,
              "time": 41.5509785,
              "value": 0
            }
          ]
        },
        "pitchBends": [],
        "instrument": {
          "family": "ensemble",
          "number": 53,
          "name": "voice oohs"
        },
        "name": "",
        "notes": []
      },
      {
        "channel": 0,
        "controlChanges": {
          "0": [
            {
              "number": 0,
              "ticks": 493,
              "time": 0.7165693375000001,
              "value": 0
            }
          ],
          "32": [
            {
              "number": 32,
              "ticks": 494,
              "time": 0.7180228249999999,
              "value": 0
            }
          ]
        },
        "pitchBends": [],
        "instrument": {
          "family": "piano",
          "number": 0,
          "name": "acoustic grand piano"
        },
        "name": "Strawberry Swing (MIDI DEMO)",
        "notes": [],
        "endOfTrackTicks": 28800
      },
      {
        "channel": 0,
        "controlChanges": {
          "6": [
            {
              "number": 6,
              "ticks": 655,
              "time": 0.9520343124999999,
              "value": 0.015748031496062992
            }
          ],
          "7": [
            {
              "number": 7,
              "ticks": 495,
              "time": 0.7194763125,
              "value": 0.5905511811023622
            }
          ],
          "10": [
            {
              "number": 10,
              "ticks": 495,
              "time": 0.7194763125,
              "value": 0.5039370078740157
            }
          ],
          "11": [
            {
              "number": 11,
              "ticks": 527,
              "time": 0.7659879125,
              "value": 1
            }
          ],
          "38": [
            {
              "number": 38,
              "ticks": 656,
              "time": 0.9534878,
              "value": 0
            }
          ],
          "91": [
            {
              "number": 91,
              "ticks": 495,
              "time": 0.7194763125,
              "value": 0.31496062992125984
            }
          ],
          "93": [
            {
              "number": 93,
              "ticks": 495,
              "time": 0.7194763125,
              "value": 0
            }
          ],
          "100": [
            {
              "number": 100,
              "ticks": 654,
              "time": 0.9505808250000001,
              "value": 0
            }
          ],
          "101": [
            {
              "number": 101,
              "ticks": 653,
              "time": 0.9491273375,
              "value": 0
            }
          ],
          "120": [
            {
              "number": 120,
              "ticks": 28755,
              "time": 41.661272562499995,
              "value": 0
            }
          ],
          "123": [
            {
              "number": 123,
              "ticks": 28680,
              "time": 41.5509785,
              "value": 0
            }
          ]
        },
        "pitchBends": [],
        "instrument": {
          "family": "ensemble",
          "number": 50,
          "name": "synthstrings 1"
        },
        "name": "",
        "notes": []
      },
      {
        "channel": 0,
        "controlChanges": {
          "0": [
            {
              "number": 0,
              "ticks": 496,
              "time": 0.7209298000000001,
              "value": 0
            }
          ],
          "32": [
            {
              "number": 32,
              "ticks": 496,
              "time": 0.7209298000000001,
              "value": 0
            }
          ]
        },
        "pitchBends": [],
        "instrument": {
          "family": "piano",
          "number": 0,
          "name": "acoustic grand piano"
        },
        "name": "Strawberry Swing (MIDI DEMO)",
        "notes": [],
        "endOfTrackTicks": 28800
      },
      {
        "channel": 6,
        "controlChanges": {
          "6": [
            {
              "number": 6,
              "ticks": 651,
              "time": 0.9462203625,
              "value": 0.015748031496062992
            }
          ],
          "7": [
            {
              "number": 7,
              "ticks": 497,
              "time": 0.7223832875,
              "value": 0.6535433070866141
            }
          ],
          "10": [
            {
              "number": 10,
              "ticks": 497,
              "time": 0.7223832875,
              "value": 0.5826771653543307
            }
          ],
          "11": [
            {
              "number": 11,
              "ticks": 535,
              "time": 0.7776158125,
              "value": 1
            }
          ],
          "38": [
            {
              "number": 38,
              "ticks": 652,
              "time": 0.94767385,
              "value": 0
            }
          ],
          "91": [
            {
              "number": 91,
              "ticks": 497,
              "time": 0.7223832875,
              "value": 0.07874015748031496
            }
          ],
          "93": [
            {
              "number": 93,
              "ticks": 497,
              "time": 0.7223832875,
              "value": 0
            }
          ],
          "100": [
            {
              "number": 100,
              "ticks": 650,
              "time": 0.9447668750000001,
              "value": 0
            }
          ],
          "101": [
            {
              "number": 101,
              "ticks": 649,
              "time": 0.9433133875,
              "value": 0
            }
          ],
          "120": [
            {
              "number": 120,
              "ticks": 28755,
              "time": 41.661272562499995,
              "value": 0
            }
          ],
          "123": [
            {
              "number": 123,
              "ticks": 28680,
              "time": 41.5509785,
              "value": 0
            }
          ]
        },
        "pitchBends": [],
        "instrument": {
          "family": "ensemble",
          "number": 49,
          "name": "string ensemble 2"
        },
        "name": "",
        "notes": [
          {
            "duration": 2.090115025,
            "durationTicks": 1438,
            "midi": 37,
            "name": "C#2",
            "ticks": 1920,
            "time": 2.790696,
            "velocity": 0.8188976377952756
          },
          {
            "duration": 0.694767025,
            "durationTicks": 478,
            "midi": 37,
            "name": "C#2",
            "ticks": 3360,
            "time": 4.883718,
            "velocity": 0.8188976377952756
          },
          {
            "duration": 2.0901150250000002,
            "durationTicks": 1438,
            "midi": 44,
            "name": "G#2",
            "ticks": 3840,
            "time": 5.581392,
            "velocity": 0.8188976377952756
          },
          {
            "duration": 0.6947670249999991,
            "durationTicks": 478,
            "midi": 44,
            "name": "G#2",
            "ticks": 5280,
            "time": 7.6744140000000005,
            "velocity": 0.8188976377952756
          },
          {
            "duration": 1.7017040916666666,
            "durationTicks": 1198,
            "midi": 39,
            "name": "D#2",
            "ticks": 5760,
            "time": 8.372088,
            "velocity": 0.8188976377952756
          },
          {
            "duration": 1.0198860916666668,
            "durationTicks": 718,
            "midi": 39,
            "name": "D#2",
            "ticks": 6960,
            "time": 10.076633,
            "velocity": 0.8188976377952756
          },
          {
            "duration": 1.7412780249999997,
            "durationTicks": 1198,
            "midi": 39,
            "name": "D#2",
            "ticks": 7680,
            "time": 11.099359999999999,
            "velocity": 0.8188976377952756
          },
          {
            "duration": 1.0436040250000005,
            "durationTicks": 718,
            "midi": 39,
            "name": "D#2",
            "ticks": 8880,
            "time": 12.843544999999999,
            "velocity": 0.8188976377952756
          },
          {
            "duration": 2.0901150249999993,
            "durationTicks": 1438,
            "midi": 37,
            "name": "C#2",
            "ticks": 9600,
            "time": 13.890056,
            "velocity": 0.8188976377952756
          },
          {
            "duration": 0.6947670250000009,
            "durationTicks": 478,
            "midi": 37,
            "name": "C#2",
            "ticks": 11040,
            "time": 15.983077999999999,
            "velocity": 0.8188976377952756
          },
          {
            "duration": 2.0426130916666665,
            "durationTicks": 1438,
            "midi": 44,
            "name": "G#2",
            "ticks": 11520,
            "time": 16.680752,
            "velocity": 0.8188976377952756
          },
          {
            "duration": 0.6789770916666669,
            "durationTicks": 478,
            "midi": 44,
            "name": "G#2",
            "ticks": 12960,
            "time": 18.726205999999998,
            "velocity": 0.8188976377952756
          },
          {
            "duration": 1.7412780249999997,
            "durationTicks": 1198,
            "midi": 39,
            "name": "D#2",
            "ticks": 13440,
            "time": 19.408023999999997,
            "velocity": 0.8188976377952756
          },
          {
            "duration": 1.043604024999997,
            "durationTicks": 718,
            "midi": 39,
            "name": "D#2",
            "ticks": 14640,
            "time": 21.152209,
            "velocity": 0.8188976377952756
          },
          {
            "duration": 1.7412780249999997,
            "durationTicks": 1198,
            "midi": 39,
            "name": "D#2",
            "ticks": 15360,
            "time": 22.198719999999998,
            "velocity": 0.8188976377952756
          },
          {
            "duration": 1.0436040250000005,
            "durationTicks": 718,
            "midi": 39,
            "name": "D#2",
            "ticks": 16560,
            "time": 23.942904999999996,
            "velocity": 0.8188976377952756
          },
          {
            "duration": 2.0901150249999993,
            "durationTicks": 1438,
            "midi": 37,
            "name": "C#2",
            "ticks": 17280,
            "time": 24.989416,
            "velocity": 0.8188976377952756
          },
          {
            "duration": 0.6947670250000009,
            "durationTicks": 478,
            "midi": 37,
            "name": "C#2",
            "ticks": 18720,
            "time": 27.082437999999996,
            "velocity": 0.8188976377952756
          },
          {
            "duration": 2.0504174374999984,
            "durationTicks": 1438,
            "midi": 44,
            "name": "G#2",
            "ticks": 19200,
            "time": 27.780111999999995,
            "velocity": 0.8188976377952756
          },
          {
            "duration": 0.6867814375000023,
            "durationTicks": 478,
            "midi": 44,
            "name": "G#2",
            "ticks": 20640,
            "time": 29.833402999999993,
            "velocity": 0.8188976377952756
          },
          {
            "duration": 1.7617638249999992,
            "durationTicks": 1198,
            "midi": 39,
            "name": "D#2",
            "ticks": 21120,
            "time": 30.523057999999995,
            "velocity": 0.8188976377952756
          },
          {
            "duration": 1.0558818250000002,
            "durationTicks": 718,
            "midi": 39,
            "name": "D#2",
            "ticks": 22320,
            "time": 32.287763,
            "velocity": 0.8188976377952756
          },
          {
            "duration": 1.7412780249999997,
            "durationTicks": 1198,
            "midi": 39,
            "name": "D#2",
            "ticks": 23040,
            "time": 33.346585999999995,
            "velocity": 0.8188976377952756
          },
          {
            "duration": 1.0436040250000005,
            "durationTicks": 718,
            "midi": 39,
            "name": "D#2",
            "ticks": 24240,
            "time": 35.090771,
            "velocity": 0.8188976377952756
          },
          {
            "duration": 2.7278459062500033,
            "durationTicks": 1893,
            "midi": 37,
            "name": "C#2",
            "ticks": 24960,
            "time": 36.13728199999999,
            "velocity": 0.8188976377952756
          }
        ]
      },
      {
        "channel": 0,
        "controlChanges": {
          "0": [
            {
              "number": 0,
              "ticks": 496,
              "time": 0.7209298000000001,
              "value": 0
            }
          ],
          "32": [
            {
              "number": 32,
              "ticks": 496,
              "time": 0.7209298000000001,
              "value": 0
            }
          ]
        },
        "pitchBends": [],
        "instrument": {
          "family": "piano",
          "number": 0,
          "name": "acoustic grand piano"
        },
        "name": "Strawberry Swing (MIDI DEMO)",
        "notes": [],
        "endOfTrackTicks": 28800
      },
      {
        "channel": 7,
        "controlChanges": {
          "6": [
            {
              "number": 6,
              "ticks": 651,
              "time": 0.9462203625,
              "value": 0.015748031496062992
            }
          ],
          "7": [
            {
              "number": 7,
              "ticks": 497,
              "time": 0.7223832875,
              "value": 0.6299212598425197
            }
          ],
          "10": [
            {
              "number": 10,
              "ticks": 497,
              "time": 0.7223832875,
              "value": 0.3464566929133858
            }
          ],
          "11": [
            {
              "number": 11,
              "ticks": 535,
              "time": 0.7776158125,
              "value": 1
            }
          ],
          "38": [
            {
              "number": 38,
              "ticks": 652,
              "time": 0.94767385,
              "value": 0
            }
          ],
          "91": [
            {
              "number": 91,
              "ticks": 497,
              "time": 0.7223832875,
              "value": 0.5511811023622047
            }
          ],
          "93": [
            {
              "number": 93,
              "ticks": 497,
              "time": 0.7223832875,
              "value": 0.07874015748031496
            }
          ],
          "100": [
            {
              "number": 100,
              "ticks": 650,
              "time": 0.9447668750000001,
              "value": 0
            }
          ],
          "101": [
            {
              "number": 101,
              "ticks": 649,
              "time": 0.9433133875,
              "value": 0
            }
          ],
          "120": [
            {
              "number": 120,
              "ticks": 28755,
              "time": 41.661272562499995,
              "value": 0
            }
          ],
          "123": [
            {
              "number": 123,
              "ticks": 28680,
              "time": 41.5509785,
              "value": 0
            }
          ]
        },
        "pitchBends": [],
        "instrument": {
          "family": "synth pad",
          "number": 93,
          "name": "pad 6 (metallic)"
        },
        "name": "",
        "notes": [
          {
            "duration": 0.5174415499999996,
            "durationTicks": 356,
            "midi": 75,
            "name": "D#5",
            "ticks": 1920,
            "time": 2.790696,
            "velocity": 0.8188976377952756
          },
          {
            "duration": 0.5130810875000003,
            "durationTicks": 353,
            "midi": 77,
            "name": "F5",
            "ticks": 2280,
            "time": 3.3139515,
            "velocity": 0.8031496062992126
          },
          {
            "duration": 0.6962205125,
            "durationTicks": 479,
            "midi": 75,
            "name": "D#5",
            "ticks": 2640,
            "time": 3.8372070000000003,
            "velocity": 0.8188976377952756
          },
          {
            "duration": 0.5145345749999999,
            "durationTicks": 354,
            "midi": 80,
            "name": "G#5",
            "ticks": 3120,
            "time": 4.534881,
            "velocity": 0.7244094488188977
          },
          {
            "duration": 0.5218020125000002,
            "durationTicks": 359,
            "midi": 70,
            "name": "A#4",
            "ticks": 3480,
            "time": 5.0581365,
            "velocity": 0.8188976377952756
          },
          {
            "duration": 0.18168593749999928,
            "durationTicks": 125,
            "midi": 70,
            "name": "A#4",
            "ticks": 3840,
            "time": 5.581392,
            "velocity": 0.7322834645669292
          },
          {
            "duration": 0.34011607500000096,
            "durationTicks": 234,
            "midi": 72,
            "name": "C5",
            "ticks": 3960,
            "time": 5.7558105,
            "velocity": 0.8188976377952756
          },
          {
            "duration": 0.5363368875000001,
            "durationTicks": 369,
            "midi": 75,
            "name": "D#5",
            "ticks": 4200,
            "time": 6.1046475000000004,
            "velocity": 0.8188976377952756
          },
          {
            "duration": 0.17151152500000055,
            "durationTicks": 118,
            "midi": 70,
            "name": "A#4",
            "ticks": 4560,
            "time": 6.627903,
            "velocity": 0.7244094488188977
          },
          {
            "duration": 0.17732547499999907,
            "durationTicks": 122,
            "midi": 72,
            "name": "C5",
            "ticks": 4680,
            "time": 6.802321500000001,
            "velocity": 0.7322834645669292
          },
          {
            "duration": 0.33575561249999897,
            "durationTicks": 231,
            "midi": 65,
            "name": "F4",
            "ticks": 4800,
            "time": 6.97674,
            "velocity": 0.8188976377952756
          },
          {
            "duration": 0.5305229374999998,
            "durationTicks": 365,
            "midi": 70,
            "name": "A#4",
            "ticks": 5040,
            "time": 7.325577,
            "velocity": 0.8188976377952756
          },
          {
            "duration": 0.5072671374999995,
            "durationTicks": 349,
            "midi": 75,
            "name": "D#5",
            "ticks": 5400,
            "time": 7.8488325,
            "velocity": 0.8188976377952756
          },
          {
            "duration": 0.167613591666667,
            "durationTicks": 118,
            "midi": 65,
            "name": "F4",
            "ticks": 5760,
            "time": 8.372088,
            "velocity": 0.8188976377952756
          },
          {
            "duration": 0.3551135416666664,
            "durationTicks": 250,
            "midi": 70,
            "name": "A#4",
            "ticks": 5880,
            "time": 8.5425425,
            "velocity": 0.7244094488188977
          },
          {
            "duration": 0.4843748708333333,
            "durationTicks": 341,
            "midi": 72,
            "name": "C5",
            "ticks": 6120,
            "time": 8.8834515,
            "velocity": 0.8188976377952756
          },
          {
            "duration": 0.3522726333333335,
            "durationTicks": 248,
            "midi": 72,
            "name": "C5",
            "ticks": 6480,
            "time": 9.394815,
            "velocity": 0.8188976377952756
          },
          {
            "duration": 0.167613591666667,
            "durationTicks": 118,
            "midi": 65,
            "name": "F4",
            "ticks": 6720,
            "time": 9.735724,
            "velocity": 0.7716535433070866
          },
          {
            "duration": 0.17613631666666762,
            "durationTicks": 124,
            "midi": 70,
            "name": "A#4",
            "ticks": 6840,
            "time": 9.9061785,
            "velocity": 0.7716535433070866
          },
          {
            "duration": 0.505681683333334,
            "durationTicks": 356,
            "midi": 75,
            "name": "D#5",
            "ticks": 6960,
            "time": 10.076633,
            "velocity": 0.8188976377952756
          },
          {
            "duration": 0.167613591666667,
            "durationTicks": 118,
            "midi": 72,
            "name": "C5",
            "ticks": 7320,
            "time": 10.5879965,
            "velocity": 0.7559055118110236
          },
          {
            "duration": 0.34526946249999924,
            "durationTicks": 243,
            "midi": 70,
            "name": "A#4",
            "ticks": 7440,
            "time": 10.758450999999999,
            "velocity": 0.8188976377952756
          },
          {
            "duration": 0.5130810874999998,
            "durationTicks": 353,
            "midi": 65,
            "name": "F4",
            "ticks": 7680,
            "time": 11.099359999999999,
            "velocity": 0.8188976377952756
          },
          {
            "duration": 0.5101741124999997,
            "durationTicks": 351,
            "midi": 70,
            "name": "A#4",
            "ticks": 8040,
            "time": 11.622615499999998,
            "velocity": 0.8188976377952756
          },
          {
            "duration": 0.6933135374999999,
            "durationTicks": 477,
            "midi": 75,
            "name": "D#5",
            "ticks": 8400,
            "time": 12.145871,
            "velocity": 0.7716535433070866
          },
          {
            "duration": 0.5261624749999996,
            "durationTicks": 362,
            "midi": 70,
            "name": "A#4",
            "ticks": 8880,
            "time": 12.843544999999999,
            "velocity": 0.7952755905511811
          },
          {
            "duration": 0.5319764249999999,
            "durationTicks": 366,
            "midi": 72,
            "name": "C5",
            "ticks": 9240,
            "time": 13.3668005,
            "velocity": 0.8188976377952756
          },
          {
            "duration": 0.5276159624999988,
            "durationTicks": 363,
            "midi": 75,
            "name": "D#5",
            "ticks": 9600,
            "time": 13.890056,
            "velocity": 0.7716535433070866
          },
          {
            "duration": 0.691860049999999,
            "durationTicks": 476,
            "midi": 77,
            "name": "F5",
            "ticks": 9960,
            "time": 14.413311499999999,
            "velocity": 0.7795275590551181
          },
          {
            "duration": 0.5174415500000009,
            "durationTicks": 356,
            "midi": 80,
            "name": "G#5",
            "ticks": 10440,
            "time": 15.110985499999998,
            "velocity": 0.7559055118110236
          },
          {
            "duration": 0.5159880625,
            "durationTicks": 355,
            "midi": 75,
            "name": "D#5",
            "ticks": 10800,
            "time": 15.634241,
            "velocity": 0.8188976377952756
          },
          {
            "duration": 0.5203485249999993,
            "durationTicks": 358,
            "midi": 80,
            "name": "G#5",
            "ticks": 11160,
            "time": 16.1574965,
            "velocity": 0.8188976377952756
          },
          {
            "duration": 0.1690340458333317,
            "durationTicks": 119,
            "midi": 75,
            "name": "D#5",
            "ticks": 11520,
            "time": 16.680752,
            "velocity": 0.7322834645669292
          },
          {
            "duration": 0.3423294541666664,
            "durationTicks": 241,
            "midi": 72,
            "name": "C5",
            "ticks": 11640,
            "time": 16.8512065,
            "velocity": 0.7244094488188977
          },
          {
            "duration": 0.5113634999999981,
            "durationTicks": 360,
            "midi": 70,
            "name": "A#4",
            "ticks": 11880,
            "time": 17.1921155,
            "velocity": 0.7716535433070866
          },
          {
            "duration": 0.16761359166666523,
            "durationTicks": 118,
            "midi": 70,
            "name": "A#4",
            "ticks": 12240,
            "time": 17.703478999999998,
            "velocity": 0.7559055118110236
          },
          {
            "duration": 0.16761359166666523,
            "durationTicks": 118,
            "midi": 68,
            "name": "G#4",
            "ticks": 12360,
            "time": 17.8739335,
            "velocity": 0.7322834645669292
          },
          {
            "duration": 0.33238627500000106,
            "durationTicks": 234,
            "midi": 65,
            "name": "F4",
            "ticks": 12480,
            "time": 18.044387999999998,
            "velocity": 0.7716535433070866
          },
          {
            "duration": 0.5269884958333328,
            "durationTicks": 371,
            "midi": 75,
            "name": "D#5",
            "ticks": 12720,
            "time": 18.385296999999998,
            "velocity": 0.8188976377952756
          },
          {
            "duration": 0.17329540833333112,
            "durationTicks": 122,
            "midi": 68,
            "name": "G#4",
            "ticks": 13080,
            "time": 18.8966605,
            "velocity": 0.7322834645669292
          },
          {
            "duration": 0.33806809166666696,
            "durationTicks": 238,
            "midi": 65,
            "name": "F4",
            "ticks": 13200,
            "time": 19.067114999999998,
            "velocity": 0.8188976377952756
          },
          {
            "duration": 0.501453187500001,
            "durationTicks": 345,
            "midi": 75,
            "name": "D#5",
            "ticks": 13440,
            "time": 19.408023999999997,
            "velocity": 0.8188976377952756
          },
          {
            "duration": 0.18023244999999832,
            "durationTicks": 124,
            "midi": 75,
            "name": "D#5",
            "ticks": 13800,
            "time": 19.9312795,
            "velocity": 0.8188976377952756
          },
          {
            "duration": 0.1744185000000016,
            "durationTicks": 120,
            "midi": 75,
            "name": "D#5",
            "ticks": 13920,
            "time": 20.105697999999997,
            "velocity": 0.7716535433070866
          },
          {
            "duration": 0.175871987499999,
            "durationTicks": 121,
            "midi": 72,
            "name": "C5",
            "ticks": 14040,
            "time": 20.2801165,
            "velocity": 0.8188976377952756
          },
          {
            "duration": 0.17151152499999966,
            "durationTicks": 118,
            "midi": 70,
            "name": "A#4",
            "ticks": 14160,
            "time": 20.454534999999996,
            "velocity": 0.7795275590551181
          },
          {
            "duration": 0.18023244999999832,
            "durationTicks": 124,
            "midi": 72,
            "name": "C5",
            "ticks": 14280,
            "time": 20.628953499999998,
            "velocity": 0.8188976377952756
          },
          {
            "duration": 0.34011607500000096,
            "durationTicks": 234,
            "midi": 65,
            "name": "F4",
            "ticks": 14400,
            "time": 20.803371999999996,
            "velocity": 0.7559055118110236
          },
          {
            "duration": 0.5087206249999987,
            "durationTicks": 350,
            "midi": 75,
            "name": "D#5",
            "ticks": 14640,
            "time": 21.152209,
            "velocity": 0.8110236220472441
          },
          {
            "duration": 0.5436043250000004,
            "durationTicks": 374,
            "midi": 65,
            "name": "F4",
            "ticks": 15000,
            "time": 21.675464499999997,
            "velocity": 0.7716535433070866
          },
          {
            "duration": 0.501453187500001,
            "durationTicks": 345,
            "midi": 80,
            "name": "G#5",
            "ticks": 15360,
            "time": 22.198719999999998,
            "velocity": 0.8188976377952756
          },
          {
            "duration": 0.5436043249999969,
            "durationTicks": 374,
            "midi": 80,
            "name": "G#5",
            "ticks": 15720,
            "time": 22.7219755,
            "velocity": 0.8188976377952756
          },
          {
            "duration": 0.3197672500000017,
            "durationTicks": 220,
            "midi": 77,
            "name": "F5",
            "ticks": 16080,
            "time": 23.245230999999997,
            "velocity": 0.8188976377952756
          },
          {
            "duration": 0.3488369999999996,
            "durationTicks": 240,
            "midi": 75,
            "name": "D#5",
            "ticks": 16320,
            "time": 23.594067999999996,
            "velocity": 0.7559055118110236
          },
          {
            "duration": 0.5377903750000002,
            "durationTicks": 370,
            "midi": 75,
            "name": "D#5",
            "ticks": 16560,
            "time": 23.942904999999996,
            "velocity": 0.7480314960629921
          },
          {
            "duration": 0.48982528750000043,
            "durationTicks": 337,
            "midi": 77,
            "name": "F5",
            "ticks": 16920,
            "time": 24.466160499999997,
            "velocity": 0.7795275590551181
          },
          {
            "duration": 0.5174415500000009,
            "durationTicks": 356,
            "midi": 75,
            "name": "D#5",
            "ticks": 17280,
            "time": 24.989416,
            "velocity": 0.8188976377952756
          },
          {
            "duration": 0.5130810875000016,
            "durationTicks": 353,
            "midi": 77,
            "name": "F5",
            "ticks": 17640,
            "time": 25.512671499999996,
            "velocity": 0.8031496062992126
          },
          {
            "duration": 0.6962205125000018,
            "durationTicks": 479,
            "midi": 75,
            "name": "D#5",
            "ticks": 18000,
            "time": 26.035926999999997,
            "velocity": 0.8188976377952756
          },
          {
            "duration": 0.5145345750000025,
            "durationTicks": 354,
            "midi": 80,
            "name": "G#5",
            "ticks": 18480,
            "time": 26.733600999999997,
            "velocity": 0.8110236220472441
          },
          {
            "duration": 0.5218020125000002,
            "durationTicks": 359,
            "midi": 70,
            "name": "A#4",
            "ticks": 18840,
            "time": 27.256856499999998,
            "velocity": 0.8188976377952756
          },
          {
            "duration": 0.1775567708333341,
            "durationTicks": 125,
            "midi": 70,
            "name": "A#4",
            "ticks": 19200,
            "time": 27.780111999999995,
            "velocity": 0.7322834645669292
          },
          {
            "duration": 0.3323862749999975,
            "durationTicks": 234,
            "midi": 72,
            "name": "C5",
            "ticks": 19320,
            "time": 27.950566499999997,
            "velocity": 0.8188976377952756
          },
          {
            "duration": 0.5241475874999999,
            "durationTicks": 369,
            "midi": 75,
            "name": "D#5",
            "ticks": 19560,
            "time": 28.291475499999997,
            "velocity": 0.8188976377952756
          },
          {
            "duration": 0.16761359166666523,
            "durationTicks": 118,
            "midi": 70,
            "name": "A#4",
            "ticks": 19920,
            "time": 28.802838999999995,
            "velocity": 0.7244094488188977
          },
          {
            "duration": 0.17332806249999777,
            "durationTicks": 122,
            "midi": 72,
            "name": "C5",
            "ticks": 20040,
            "time": 28.973293499999997,
            "velocity": 0.7322834645669292
          },
          {
            "duration": 0.33189646874999923,
            "durationTicks": 231,
            "midi": 65,
            "name": "F4",
            "ticks": 20160,
            "time": 29.143747999999995,
            "velocity": 0.8188976377952756
          },
          {
            "duration": 0.5244251562500004,
            "durationTicks": 365,
            "midi": 70,
            "name": "A#4",
            "ticks": 20400,
            "time": 29.488575499999996,
            "velocity": 0.8188976377952756
          },
          {
            "duration": 0.5014366562500001,
            "durationTicks": 349,
            "midi": 75,
            "name": "D#5",
            "ticks": 20760,
            "time": 30.005816749999994,
            "velocity": 0.8188976377952756
          },
          {
            "duration": 0.1735293250000005,
            "durationTicks": 118,
            "midi": 65,
            "name": "F4",
            "ticks": 21120,
            "time": 30.523057999999995,
            "velocity": 0.8188976377952756
          },
          {
            "duration": 0.3676468749999984,
            "durationTicks": 250,
            "midi": 70,
            "name": "A#4",
            "ticks": 21240,
            "time": 30.699528499999996,
            "velocity": 0.7244094488188977
          },
          {
            "duration": 0.5014703375000025,
            "durationTicks": 341,
            "midi": 72,
            "name": "C5",
            "ticks": 21480,
            "time": 31.052469499999994,
            "velocity": 0.8188976377952756
          },
          {
            "duration": 0.36470569999999825,
            "durationTicks": 248,
            "midi": 72,
            "name": "C5",
            "ticks": 21840,
            "time": 31.581880999999996,
            "velocity": 0.8188976377952756
          },
          {
            "duration": 0.17352932499999696,
            "durationTicks": 118,
            "midi": 65,
            "name": "F4",
            "ticks": 22080,
            "time": 31.934821999999997,
            "velocity": 0.7716535433070866
          },
          {
            "duration": 0.1823528500000009,
            "durationTicks": 124,
            "midi": 70,
            "name": "A#4",
            "ticks": 22200,
            "time": 32.1112925,
            "velocity": 0.7716535433070866
          },
          {
            "duration": 0.5235291499999946,
            "durationTicks": 356,
            "midi": 75,
            "name": "D#5",
            "ticks": 22320,
            "time": 32.287763,
            "velocity": 0.8188976377952756
          },
          {
            "duration": 0.17352932500000406,
            "durationTicks": 118,
            "midi": 72,
            "name": "C5",
            "ticks": 22680,
            "time": 32.81717449999999,
            "velocity": 0.7559055118110236
          },
          {
            "duration": 0.35730146250000416,
            "durationTicks": 243,
            "midi": 70,
            "name": "A#4",
            "ticks": 22800,
            "time": 32.993644999999994,
            "velocity": 0.8188976377952756
          },
          {
            "duration": 0.513081087499998,
            "durationTicks": 353,
            "midi": 65,
            "name": "F4",
            "ticks": 23040,
            "time": 33.346585999999995,
            "velocity": 0.8188976377952756
          },
          {
            "duration": 0.5101741125000032,
            "durationTicks": 351,
            "midi": 70,
            "name": "A#4",
            "ticks": 23400,
            "time": 33.86984149999999,
            "velocity": 0.8188976377952756
          },
          {
            "duration": 0.6933135374999964,
            "durationTicks": 477,
            "midi": 75,
            "name": "D#5",
            "ticks": 23760,
            "time": 34.393097,
            "velocity": 0.7716535433070866
          },
          {
            "duration": 0.5261624749999996,
            "durationTicks": 362,
            "midi": 70,
            "name": "A#4",
            "ticks": 24240,
            "time": 35.090771,
            "velocity": 0.7952755905511811
          },
          {
            "duration": 0.5319764250000034,
            "durationTicks": 366,
            "midi": 72,
            "name": "C5",
            "ticks": 24600,
            "time": 35.614026499999994,
            "velocity": 0.8188976377952756
          },
          {
            "duration": 0.5276159625000005,
            "durationTicks": 363,
            "midi": 75,
            "name": "D#5",
            "ticks": 24960,
            "time": 36.13728199999999,
            "velocity": 0.7716535433070866
          },
          {
            "duration": 0.6859126250000003,
            "durationTicks": 476,
            "midi": 77,
            "name": "F5",
            "ticks": 25320,
            "time": 36.6605375,
            "velocity": 0.7795275590551181
          },
          {
            "duration": 0.5114941250000058,
            "durationTicks": 356,
            "midi": 80,
            "name": "G#5",
            "ticks": 25800,
            "time": 37.352197249999996,
            "velocity": 0.7086614173228346
          },
          {
            "duration": 0.5100573437499989,
            "durationTicks": 355,
            "midi": 70,
            "name": "A#4",
            "ticks": 26160,
            "time": 37.8694385,
            "velocity": 0.6220472440944882
          },
          {
            "duration": 0.5143676874999983,
            "durationTicks": 358,
            "midi": 75,
            "name": "D#5",
            "ticks": 26520,
            "time": 38.38667975,
            "velocity": 0.44881889763779526
          }
        ]
      },
      {
        "channel": 0,
        "controlChanges": {
          "0": [
            {
              "number": 0,
              "ticks": 496,
              "time": 0.7209298000000001,
              "value": 0
            }
          ],
          "32": [
            {
              "number": 32,
              "ticks": 496,
              "time": 0.7209298000000001,
              "value": 0
            }
          ]
        },
        "pitchBends": [],
        "instrument": {
          "family": "piano",
          "number": 0,
          "name": "acoustic grand piano"
        },
        "name": "Strawberry Swing (MIDI DEMO)",
        "notes": [],
        "endOfTrackTicks": 28800
      },
      {
        "channel": 8,
        "controlChanges": {
          "6": [
            {
              "number": 6,
              "ticks": 651,
              "time": 0.9462203625,
              "value": 0.015748031496062992
            }
          ],
          "7": [
            {
              "number": 7,
              "ticks": 497,
              "time": 0.7223832875,
              "value": 0.6377952755905512
            }
          ],
          "10": [
            {
              "number": 10,
              "ticks": 497,
              "time": 0.7223832875,
              "value": 0.6614173228346457
            }
          ],
          "11": [
            {
              "number": 11,
              "ticks": 535,
              "time": 0.7776158125,
              "value": 1
            }
          ],
          "38": [
            {
              "number": 38,
              "ticks": 652,
              "time": 0.94767385,
              "value": 0
            }
          ],
          "91": [
            {
              "number": 91,
              "ticks": 497,
              "time": 0.7223832875,
              "value": 0.47244094488188976
            }
          ],
          "93": [
            {
              "number": 93,
              "ticks": 497,
              "time": 0.7223832875,
              "value": 0.07874015748031496
            }
          ],
          "100": [
            {
              "number": 100,
              "ticks": 650,
              "time": 0.9447668750000001,
              "value": 0
            }
          ],
          "101": [
            {
              "number": 101,
              "ticks": 649,
              "time": 0.9433133875,
              "value": 0
            }
          ],
          "120": [
            {
              "number": 120,
              "ticks": 28755,
              "time": 41.661272562499995,
              "value": 0
            }
          ],
          "123": [
            {
              "number": 123,
              "ticks": 28680,
              "time": 41.5509785,
              "value": 0
            }
          ]
        },
        "pitchBends": [],
        "instrument": {
          "family": "guitar",
          "number": 26,
          "name": "electric guitar (jazz)"
        },
        "name": "",
        "notes": [
          {
            "duration": 0.49999970000000005,
            "durationTicks": 344,
            "midi": 80,
            "name": "G#5",
            "ticks": 1920,
            "time": 2.790696,
            "velocity": 0.8976377952755905
          },
          {
            "duration": 0.16279060000000012,
            "durationTicks": 112,
            "midi": 80,
            "name": "G#5",
            "ticks": 2280,
            "time": 3.3139515,
            "velocity": 0.6929133858267716
          },
          {
            "duration": 0.1744184999999998,
            "durationTicks": 120,
            "midi": 80,
            "name": "G#5",
            "ticks": 2400,
            "time": 3.48837,
            "velocity": 0.8188976377952756
          },
          {
            "duration": 0.1889533750000001,
            "durationTicks": 130,
            "midi": 77,
            "name": "F5",
            "ticks": 2520,
            "time": 3.6627885,
            "velocity": 0.7795275590551181
          },
          {
            "duration": 0.15116269999999998,
            "durationTicks": 104,
            "midi": 75,
            "name": "D#5",
            "ticks": 2640,
            "time": 3.8372070000000003,
            "velocity": 0.7401574803149606
          },
          {
            "duration": 0.18459291250000032,
            "durationTicks": 127,
            "midi": 72,
            "name": "C5",
            "ticks": 2760,
            "time": 4.0116255,
            "velocity": 0.7165354330708661
          },
          {
            "duration": 0.3430230500000002,
            "durationTicks": 236,
            "midi": 70,
            "name": "A#4",
            "ticks": 2880,
            "time": 4.186044,
            "velocity": 0.7874015748031497
          },
          {
            "duration": 0.5101741124999997,
            "durationTicks": 351,
            "midi": 70,
            "name": "A#4",
            "ticks": 3120,
            "time": 4.534881,
            "velocity": 0.7637795275590551
          },
          {
            "duration": 0.5247089875000004,
            "durationTicks": 361,
            "midi": 72,
            "name": "C5",
            "ticks": 3480,
            "time": 5.0581365,
            "velocity": 0.7244094488188977
          },
          {
            "duration": 0.5305229374999998,
            "durationTicks": 365,
            "midi": 75,
            "name": "D#5",
            "ticks": 3840,
            "time": 5.581392,
            "velocity": 0.7795275590551181
          },
          {
            "duration": 0.16133711249999916,
            "durationTicks": 111,
            "midi": 75,
            "name": "D#5",
            "ticks": 4200,
            "time": 6.1046475000000004,
            "velocity": 0.7716535433070866
          },
          {
            "duration": 0.35319746249999984,
            "durationTicks": 243,
            "midi": 75,
            "name": "D#5",
            "ticks": 4320,
            "time": 6.279066,
            "velocity": 0.8188976377952756
          },
          {
            "duration": 0.17005803750000048,
            "durationTicks": 117,
            "midi": 70,
            "name": "A#4",
            "ticks": 4560,
            "time": 6.627903,
            "velocity": 0.6535433070866141
          },
          {
            "duration": 0.1642440875000002,
            "durationTicks": 113,
            "midi": 72,
            "name": "C5",
            "ticks": 4680,
            "time": 6.802321500000001,
            "velocity": 0.7716535433070866
          },
          {
            "duration": 0.3561044374999991,
            "durationTicks": 245,
            "midi": 65,
            "name": "F4",
            "ticks": 4800,
            "time": 6.97674,
            "velocity": 0.8188976377952756
          },
          {
            "duration": 0.5145345750000008,
            "durationTicks": 354,
            "midi": 70,
            "name": "A#4",
            "ticks": 5040,
            "time": 7.325577,
            "velocity": 0.7559055118110236
          },
          {
            "duration": 0.5116275999999988,
            "durationTicks": 352,
            "midi": 72,
            "name": "C5",
            "ticks": 5400,
            "time": 7.8488325,
            "velocity": 0.7874015748031497
          },
          {
            "duration": 0.5156248624999993,
            "durationTicks": 363,
            "midi": 75,
            "name": "D#5",
            "ticks": 5760,
            "time": 8.372088,
            "velocity": 0.7874015748031497
          },
          {
            "duration": 0.18039767916666705,
            "durationTicks": 127,
            "midi": 75,
            "name": "D#5",
            "ticks": 6120,
            "time": 8.8834515,
            "velocity": 0.7322834645669292
          },
          {
            "duration": 0.1534090500000005,
            "durationTicks": 108,
            "midi": 75,
            "name": "D#5",
            "ticks": 6240,
            "time": 9.053906,
            "velocity": 0.7401574803149606
          },
          {
            "duration": 0.167613591666667,
            "durationTicks": 118,
            "midi": 72,
            "name": "C5",
            "ticks": 6360,
            "time": 9.2243605,
            "velocity": 0.5984251968503937
          },
          {
            "duration": 0.18181813333333352,
            "durationTicks": 128,
            "midi": 70,
            "name": "A#4",
            "ticks": 6480,
            "time": 9.394815,
            "velocity": 0.7874015748031497
          },
          {
            "duration": 0.167613591666667,
            "durationTicks": 118,
            "midi": 68,
            "name": "G#4",
            "ticks": 6600,
            "time": 9.5652695,
            "velocity": 0.6692913385826772
          },
          {
            "duration": 0.3124999166666669,
            "durationTicks": 220,
            "midi": 65,
            "name": "F4",
            "ticks": 6720,
            "time": 9.735724,
            "velocity": 0.7716535433070866
          },
          {
            "duration": 0.5127839541666663,
            "durationTicks": 361,
            "midi": 75,
            "name": "D#5",
            "ticks": 6960,
            "time": 10.076633,
            "velocity": 0.7874015748031497
          },
          {
            "duration": 0.5273518624999998,
            "durationTicks": 371,
            "midi": 77,
            "name": "F5",
            "ticks": 7320,
            "time": 10.5879965,
            "velocity": 0.7795275590551181
          },
          {
            "duration": 0.5130810874999998,
            "durationTicks": 353,
            "midi": 80,
            "name": "G#5",
            "ticks": 7680,
            "time": 11.099359999999999,
            "velocity": 0.8188976377952756
          },
          {
            "duration": 0.17877896250000092,
            "durationTicks": 123,
            "midi": 80,
            "name": "G#5",
            "ticks": 8040,
            "time": 11.622615499999998,
            "velocity": 0.8188976377952756
          },
          {
            "duration": 0.16715106250000034,
            "durationTicks": 115,
            "midi": 80,
            "name": "G#5",
            "ticks": 8160,
            "time": 11.797033999999998,
            "velocity": 0.7401574803149606
          },
          {
            "duration": 0.16133711249999827,
            "durationTicks": 111,
            "midi": 77,
            "name": "F5",
            "ticks": 8280,
            "time": 11.9714525,
            "velocity": 0.6456692913385826
          },
          {
            "duration": 0.1584301374999999,
            "durationTicks": 109,
            "midi": 75,
            "name": "D#5",
            "ticks": 8400,
            "time": 12.145871,
            "velocity": 0.7480314960629921
          },
          {
            "duration": 0.17877896249999914,
            "durationTicks": 123,
            "midi": 72,
            "name": "C5",
            "ticks": 8520,
            "time": 12.3202895,
            "velocity": 0.6929133858267716
          },
          {
            "duration": 0.3386625875,
            "durationTicks": 233,
            "midi": 70,
            "name": "A#4",
            "ticks": 8640,
            "time": 12.494708,
            "velocity": 0.7637795275590551
          },
          {
            "duration": 0.5479647874999998,
            "durationTicks": 377,
            "midi": 75,
            "name": "D#5",
            "ticks": 8880,
            "time": 12.843544999999999,
            "velocity": 0.8188976377952756
          },
          {
            "duration": 0.514534574999999,
            "durationTicks": 354,
            "midi": 77,
            "name": "F5",
            "ticks": 9240,
            "time": 13.3668005,
            "velocity": 0.7874015748031497
          },
          {
            "duration": 0.514534574999999,
            "durationTicks": 354,
            "midi": 80,
            "name": "G#5",
            "ticks": 9600,
            "time": 13.890056,
            "velocity": 0.8188976377952756
          },
          {
            "duration": 0.16569757499999938,
            "durationTicks": 114,
            "midi": 80,
            "name": "G#5",
            "ticks": 9960,
            "time": 14.413311499999999,
            "velocity": 0.7086614173228346
          },
          {
            "duration": 0.1744184999999998,
            "durationTicks": 120,
            "midi": 80,
            "name": "G#5",
            "ticks": 10080,
            "time": 14.587729999999999,
            "velocity": 0.7874015748031497
          },
          {
            "duration": 0.15552316249999976,
            "durationTicks": 107,
            "midi": 77,
            "name": "F5",
            "ticks": 10200,
            "time": 14.762148499999999,
            "velocity": 0.6771653543307087
          },
          {
            "duration": 0.175871987499999,
            "durationTicks": 121,
            "midi": 75,
            "name": "D#5",
            "ticks": 10320,
            "time": 14.936567,
            "velocity": 0.7559055118110236
          },
          {
            "duration": 0.1845929125000012,
            "durationTicks": 127,
            "midi": 72,
            "name": "C5",
            "ticks": 10440,
            "time": 15.110985499999998,
            "velocity": 0.7559055118110236
          },
          {
            "duration": 0.33430212500000067,
            "durationTicks": 230,
            "midi": 70,
            "name": "A#4",
            "ticks": 10560,
            "time": 15.285404,
            "velocity": 0.7716535433070866
          },
          {
            "duration": 0.5363368874999992,
            "durationTicks": 369,
            "midi": 70,
            "name": "A#4",
            "ticks": 10800,
            "time": 15.634241,
            "velocity": 0.7874015748031497
          },
          {
            "duration": 0.5188950374999983,
            "durationTicks": 357,
            "midi": 72,
            "name": "C5",
            "ticks": 11160,
            "time": 16.1574965,
            "velocity": 0.7637795275590551
          },
          {
            "duration": 0.4928975958333339,
            "durationTicks": 347,
            "midi": 75,
            "name": "D#5",
            "ticks": 11520,
            "time": 16.680752,
            "velocity": 0.7637795275590551
          },
          {
            "duration": 0.18181813333332997,
            "durationTicks": 128,
            "midi": 75,
            "name": "D#5",
            "ticks": 11880,
            "time": 17.1921155,
            "velocity": 0.7086614173228346
          },
          {
            "duration": 0.490056687500001,
            "durationTicks": 345,
            "midi": 75,
            "name": "D#5",
            "ticks": 12000,
            "time": 17.362569999999998,
            "velocity": 0.7637795275590551
          },
          {
            "duration": 0.17329540833333112,
            "durationTicks": 122,
            "midi": 75,
            "name": "D#5",
            "ticks": 12360,
            "time": 17.8739335,
            "velocity": 0.7165354330708661
          },
          {
            "duration": 0.3295453666666681,
            "durationTicks": 232,
            "midi": 75,
            "name": "D#5",
            "ticks": 12480,
            "time": 18.044387999999998,
            "velocity": 0.7795275590551181
          },
          {
            "duration": 0.5255680416666664,
            "durationTicks": 370,
            "midi": 70,
            "name": "A#4",
            "ticks": 12720,
            "time": 18.385296999999998,
            "velocity": 0.7637795275590551
          },
          {
            "duration": 0.4914771416666639,
            "durationTicks": 346,
            "midi": 72,
            "name": "C5",
            "ticks": 13080,
            "time": 18.8966605,
            "velocity": 0.7716535433070866
          },
          {
            "duration": 0.5377903750000002,
            "durationTicks": 370,
            "midi": 75,
            "name": "D#5",
            "ticks": 13440,
            "time": 19.408023999999997,
            "velocity": 0.8031496062992126
          },
          {
            "duration": 0.16279059999999745,
            "durationTicks": 112,
            "midi": 75,
            "name": "D#5",
            "ticks": 13800,
            "time": 19.9312795,
            "velocity": 0.7322834645669292
          },
          {
            "duration": 0.1686045500000013,
            "durationTicks": 116,
            "midi": 75,
            "name": "D#5",
            "ticks": 13920,
            "time": 20.105697999999997,
            "velocity": 0.6850393700787402
          },
          {
            "duration": 0.16424408749999841,
            "durationTicks": 113,
            "midi": 72,
            "name": "C5",
            "ticks": 14040,
            "time": 20.2801165,
            "velocity": 0.7322834645669292
          },
          {
            "duration": 0.16715106250000034,
            "durationTicks": 115,
            "midi": 70,
            "name": "A#4",
            "ticks": 14160,
            "time": 20.454534999999996,
            "velocity": 0.7637795275590551
          },
          {
            "duration": 0.17296501250000063,
            "durationTicks": 119,
            "midi": 72,
            "name": "C5",
            "ticks": 14280,
            "time": 20.628953499999998,
            "velocity": 0.6929133858267716
          },
          {
            "duration": 0.37063931250000337,
            "durationTicks": 255,
            "midi": 65,
            "name": "F4",
            "ticks": 14400,
            "time": 20.803371999999996,
            "velocity": 0.7795275590551181
          },
          {
            "duration": 0.5043601624999994,
            "durationTicks": 347,
            "midi": 75,
            "name": "D#5",
            "ticks": 14640,
            "time": 21.152209,
            "velocity": 0.7559055118110236
          },
          {
            "duration": 0.4825578499999992,
            "durationTicks": 332,
            "midi": 77,
            "name": "F5",
            "ticks": 15000,
            "time": 21.675464499999997,
            "velocity": 0.7795275590551181
          },
          {
            "duration": 0.49999970000000005,
            "durationTicks": 344,
            "midi": 75,
            "name": "D#5",
            "ticks": 15360,
            "time": 22.198719999999998,
            "velocity": 0.8188976377952756
          },
          {
            "duration": 0.49999970000000005,
            "durationTicks": 344,
            "midi": 80,
            "name": "G#5",
            "ticks": 15360,
            "time": 22.198719999999998,
            "velocity": 0.7244094488188977
          },
          {
            "duration": 0.17441849999999803,
            "durationTicks": 120,
            "midi": 75,
            "name": "D#5",
            "ticks": 15660,
            "time": 22.63476625,
            "velocity": 0.6929133858267716
          },
          {
            "duration": 0.17441849999999803,
            "durationTicks": 120,
            "midi": 80,
            "name": "G#5",
            "ticks": 15720,
            "time": 22.7219755,
            "velocity": 0.6535433070866141
          },
          {
            "duration": 0.37936023750000203,
            "durationTicks": 261,
            "midi": 75,
            "name": "D#5",
            "ticks": 15780,
            "time": 22.809184749999996,
            "velocity": 0.7480314960629921
          },
          {
            "duration": 0.8808134249999995,
            "durationTicks": 606,
            "midi": 80,
            "name": "G#5",
            "ticks": 15840,
            "time": 22.896393999999997,
            "velocity": 0.6929133858267716
          },
          {
            "duration": 0.34593002500000125,
            "durationTicks": 238,
            "midi": 75,
            "name": "D#5",
            "ticks": 16080,
            "time": 23.245230999999997,
            "velocity": 0.7795275590551181
          },
          {
            "duration": 0.8561041375000009,
            "durationTicks": 589,
            "midi": 75,
            "name": "D#5",
            "ticks": 16320,
            "time": 23.594067999999996,
            "velocity": 0.7874015748031497
          },
          {
            "duration": 0.18168593749999928,
            "durationTicks": 125,
            "midi": 80,
            "name": "G#5",
            "ticks": 16440,
            "time": 23.768486499999998,
            "velocity": 0.7637795275590551
          },
          {
            "duration": 0.32122073749999913,
            "durationTicks": 221,
            "midi": 80,
            "name": "G#5",
            "ticks": 16560,
            "time": 23.942904999999996,
            "velocity": 0.7637795275590551
          },
          {
            "duration": 0.7093018999999998,
            "durationTicks": 488,
            "midi": 80,
            "name": "G#5",
            "ticks": 16800,
            "time": 24.291742,
            "velocity": 0.7637795275590551
          },
          {
            "duration": 0.5494182750000007,
            "durationTicks": 378,
            "midi": 75,
            "name": "D#5",
            "ticks": 16920,
            "time": 24.466160499999997,
            "velocity": 0.7244094488188977
          },
          {
            "duration": 0.49999970000000005,
            "durationTicks": 344,
            "midi": 80,
            "name": "G#5",
            "ticks": 17280,
            "time": 24.989416,
            "velocity": 0.8188976377952756
          },
          {
            "duration": 0.162790600000001,
            "durationTicks": 112,
            "midi": 80,
            "name": "G#5",
            "ticks": 17640,
            "time": 25.512671499999996,
            "velocity": 0.6929133858267716
          },
          {
            "duration": 0.1744185000000016,
            "durationTicks": 120,
            "midi": 80,
            "name": "G#5",
            "ticks": 17760,
            "time": 25.687089999999998,
            "velocity": 0.8188976377952756
          },
          {
            "duration": 0.18895337499999698,
            "durationTicks": 130,
            "midi": 77,
            "name": "F5",
            "ticks": 17880,
            "time": 25.8615085,
            "velocity": 0.7795275590551181
          },
          {
            "duration": 0.15116270000000043,
            "durationTicks": 104,
            "midi": 75,
            "name": "D#5",
            "ticks": 18000,
            "time": 26.035926999999997,
            "velocity": 0.7401574803149606
          },
          {
            "duration": 0.18459291249999765,
            "durationTicks": 127,
            "midi": 72,
            "name": "C5",
            "ticks": 18120,
            "time": 26.2103455,
            "velocity": 0.7165354330708661
          },
          {
            "duration": 0.34302304999999933,
            "durationTicks": 236,
            "midi": 70,
            "name": "A#4",
            "ticks": 18240,
            "time": 26.384763999999997,
            "velocity": 0.7874015748031497
          },
          {
            "duration": 0.5101741124999997,
            "durationTicks": 351,
            "midi": 70,
            "name": "A#4",
            "ticks": 18480,
            "time": 26.733600999999997,
            "velocity": 0.7637795275590551
          },
          {
            "duration": 0.5246759541666641,
            "durationTicks": 361,
            "midi": 72,
            "name": "C5",
            "ticks": 18840,
            "time": 27.256856499999998,
            "velocity": 0.7244094488188977
          },
          {
            "duration": 0.518465770833334,
            "durationTicks": 365,
            "midi": 75,
            "name": "D#5",
            "ticks": 19200,
            "time": 27.780111999999995,
            "velocity": 0.7795275590551181
          },
          {
            "duration": 0.1576704124999999,
            "durationTicks": 111,
            "midi": 75,
            "name": "D#5",
            "ticks": 19560,
            "time": 28.291475499999997,
            "velocity": 0.7716535433070866
          },
          {
            "duration": 0.34517036249999933,
            "durationTicks": 243,
            "midi": 75,
            "name": "D#5",
            "ticks": 19680,
            "time": 28.461929999999995,
            "velocity": 0.8188976377952756
          },
          {
            "duration": 0.16619313749999876,
            "durationTicks": 117,
            "midi": 70,
            "name": "A#4",
            "ticks": 19920,
            "time": 28.802838999999995,
            "velocity": 0.6535433070866141
          },
          {
            "duration": 0.16051132083333286,
            "durationTicks": 113,
            "midi": 72,
            "name": "C5",
            "ticks": 20040,
            "time": 28.973293499999997,
            "velocity": 0.7716535433070866
          },
          {
            "duration": 0.35201140624999994,
            "durationTicks": 245,
            "midi": 65,
            "name": "F4",
            "ticks": 20160,
            "time": 29.143747999999995,
            "velocity": 0.8188976377952756
          },
          {
            "duration": 0.5086205624999991,
            "durationTicks": 354,
            "midi": 70,
            "name": "A#4",
            "ticks": 20400,
            "time": 29.488575499999996,
            "velocity": 0.7559055118110236
          },
          {
            "duration": 0.5057469999999995,
            "durationTicks": 352,
            "midi": 72,
            "name": "C5",
            "ticks": 20760,
            "time": 30.005816749999994,
            "velocity": 0.7874015748031497
          },
          {
            "duration": 0.5338232625000003,
            "durationTicks": 363,
            "midi": 75,
            "name": "D#5",
            "ticks": 21120,
            "time": 30.523057999999995,
            "velocity": 0.7874015748031497
          },
          {
            "duration": 0.18676461250000287,
            "durationTicks": 127,
            "midi": 75,
            "name": "D#5",
            "ticks": 21480,
            "time": 31.052469499999994,
            "velocity": 0.7322834645669292
          },
          {
            "duration": 0.15882344999999987,
            "durationTicks": 108,
            "midi": 75,
            "name": "D#5",
            "ticks": 21600,
            "time": 31.228939999999994,
            "velocity": 0.7401574803149606
          },
          {
            "duration": 0.1735293250000005,
            "durationTicks": 118,
            "midi": 72,
            "name": "C5",
            "ticks": 21720,
            "time": 31.405410499999995,
            "velocity": 0.5984251968503937
          },
          {
            "duration": 0.18823520000000116,
            "durationTicks": 128,
            "midi": 70,
            "name": "A#4",
            "ticks": 21840,
            "time": 31.581880999999996,
            "velocity": 0.7874015748031497
          },
          {
            "duration": 0.1735293250000005,
            "durationTicks": 118,
            "midi": 68,
            "name": "G#4",
            "ticks": 21960,
            "time": 31.758351499999996,
            "velocity": 0.6692913385826772
          },
          {
            "duration": 0.32352925,
            "durationTicks": 220,
            "midi": 65,
            "name": "F4",
            "ticks": 22080,
            "time": 31.934821999999997,
            "velocity": 0.7716535433070866
          },
          {
            "duration": 0.5308820874999967,
            "durationTicks": 361,
            "midi": 75,
            "name": "D#5",
            "ticks": 22320,
            "time": 32.287763,
            "velocity": 0.7874015748031497
          },
          {
            "duration": 0.5453998625000054,
            "durationTicks": 371,
            "midi": 77,
            "name": "F5",
            "ticks": 22680,
            "time": 32.81717449999999,
            "velocity": 0.7795275590551181
          },
          {
            "duration": 0.513081087499998,
            "durationTicks": 353,
            "midi": 80,
            "name": "G#5",
            "ticks": 23040,
            "time": 33.346585999999995,
            "velocity": 0.8188976377952756
          },
          {
            "duration": 0.17877896250000447,
            "durationTicks": 123,
            "midi": 80,
            "name": "G#5",
            "ticks": 23400,
            "time": 33.86984149999999,
            "velocity": 0.8188976377952756
          },
          {
            "duration": 0.1671510625000039,
            "durationTicks": 115,
            "midi": 80,
            "name": "G#5",
            "ticks": 23520,
            "time": 34.044259999999994,
            "velocity": 0.7401574803149606
          },
          {
            "duration": 0.16133711250000005,
            "durationTicks": 111,
            "midi": 77,
            "name": "F5",
            "ticks": 23640,
            "time": 34.218678499999996,
            "velocity": 0.6456692913385826
          },
          {
            "duration": 0.15843013749999812,
            "durationTicks": 109,
            "midi": 75,
            "name": "D#5",
            "ticks": 23760,
            "time": 34.393097,
            "velocity": 0.7480314960629921
          },
          {
            "duration": 0.17877896250000447,
            "durationTicks": 123,
            "midi": 72,
            "name": "C5",
            "ticks": 23880,
            "time": 34.56751549999999,
            "velocity": 0.6929133858267716
          },
          {
            "duration": 0.33866258750000355,
            "durationTicks": 233,
            "midi": 70,
            "name": "A#4",
            "ticks": 24000,
            "time": 34.74193399999999,
            "velocity": 0.7637795275590551
          },
          {
            "duration": 0.5479647874999998,
            "durationTicks": 377,
            "midi": 75,
            "name": "D#5",
            "ticks": 24240,
            "time": 35.090771,
            "velocity": 0.8188976377952756
          },
          {
            "duration": 0.514534574999999,
            "durationTicks": 354,
            "midi": 77,
            "name": "F5",
            "ticks": 24600,
            "time": 35.614026499999994,
            "velocity": 0.7874015748031497
          },
          {
            "duration": 0.5145345750000061,
            "durationTicks": 354,
            "midi": 80,
            "name": "G#5",
            "ticks": 24960,
            "time": 36.13728199999999,
            "velocity": 0.8188976377952756
          },
          {
            "duration": 0.16569757499999582,
            "durationTicks": 114,
            "midi": 80,
            "name": "G#5",
            "ticks": 25320,
            "time": 36.6605375,
            "velocity": 0.7086614173228346
          },
          {
            "duration": 0.17241374999999692,
            "durationTicks": 120,
            "midi": 80,
            "name": "G#5",
            "ticks": 25440,
            "time": 36.834956,
            "velocity": 0.7874015748031497
          },
          {
            "duration": 0.15373559374999957,
            "durationTicks": 107,
            "midi": 77,
            "name": "F5",
            "ticks": 25560,
            "time": 37.007369749999995,
            "velocity": 0.6771653543307087
          },
          {
            "duration": 0.17385053124999672,
            "durationTicks": 121,
            "midi": 75,
            "name": "D#5",
            "ticks": 25680,
            "time": 37.1797835,
            "velocity": 0.7559055118110236
          },
          {
            "duration": 0.1824712187500026,
            "durationTicks": 127,
            "midi": 72,
            "name": "C5",
            "ticks": 25800,
            "time": 37.352197249999996,
            "velocity": 0.7559055118110236
          },
          {
            "duration": 0.14942525000000018,
            "durationTicks": 104,
            "midi": 70,
            "name": "A#4",
            "ticks": 25920,
            "time": 37.524611,
            "velocity": 0.7716535433070866
          },
          {
            "duration": 0.179597656250003,
            "durationTicks": 125,
            "midi": 72,
            "name": "C5",
            "ticks": 26040,
            "time": 37.69702475,
            "velocity": 0.7716535433070866
          },
          {
            "duration": 0.530172281249996,
            "durationTicks": 369,
            "midi": 70,
            "name": "A#4",
            "ticks": 26160,
            "time": 37.8694385,
            "velocity": 0.7322834645669292
          },
          {
            "duration": 0.5129309062499985,
            "durationTicks": 357,
            "midi": 72,
            "name": "C5",
            "ticks": 26520,
            "time": 38.38667975,
            "velocity": 0.6377952755905512
          }
        ]
      },
      {
        "channel": 9,
        "controlChanges": {
          "7": [
            {
              "number": 7,
              "ticks": 505,
              "time": 0.7340111874999999,
              "value": 1
            }
          ],
          "10": [
            {
              "number": 10,
              "ticks": 505,
              "time": 0.7340111874999999,
              "value": 0.5039370078740157
            }
          ],
          "11": [
            {
              "number": 11,
              "ticks": 559,
              "time": 0.8124995125,
              "value": 1
            }
          ],
          "91": [
            {
              "number": 91,
              "ticks": 505,
              "time": 0.7340111874999999,
              "value": 0.3937007874015748
            }
          ],
          "93": [
            {
              "number": 93,
              "ticks": 505,
              "time": 0.7340111874999999,
              "value": 0
            }
          ],
          "120": [
            {
              "number": 120,
              "ticks": 28755,
              "time": 41.661272562499995,
              "value": 0
            },
            {
              "number": 120,
              "ticks": 28755,
              "time": 41.661272562499995,
              "value": 0
            }
          ],
          "123": [
            {
              "number": 123,
              "ticks": 28680,
              "time": 41.5509785,
              "value": 0
            },
            {
              "number": 123,
              "ticks": 28680,
              "time": 41.5509785,
              "value": 0
            }
          ]
        },
        "pitchBends": [],
        "instrument": {
          "family": "drums",
          "number": 0,
          "name": "standard kit"
        },
        "name": "Strawberry Swing (MIDI DEMO)",
        "notes": [
          {
            "duration": 0.1715115250000001,
            "durationTicks": 118,
            "midi": 35,
            "name": "B1",
            "ticks": 1920,
            "time": 2.790696,
            "velocity": 0.5511811023622047
          },
          {
            "duration": 0.1715115250000001,
            "durationTicks": 118,
            "midi": 36,
            "name": "C2",
            "ticks": 1920,
            "time": 2.790696,
            "velocity": 0.5905511811023622
          },
          {
            "duration": 0.1715115250000001,
            "durationTicks": 118,
            "midi": 44,
            "name": "G#2",
            "ticks": 1920,
            "time": 2.790696,
            "velocity": 0.5039370078740157
          },
          {
            "duration": 0.1715115250000001,
            "durationTicks": 118,
            "midi": 47,
            "name": "B2",
            "ticks": 1920,
            "time": 2.790696,
            "velocity": 0.5275590551181102
          },
          {
            "duration": 0.1715115250000001,
            "durationTicks": 118,
            "midi": 55,
            "name": "G3",
            "ticks": 1920,
            "time": 2.790696,
            "velocity": 0.7086614173228346
          },
          {
            "duration": 0.1715115250000001,
            "durationTicks": 118,
            "midi": 70,
            "name": "A#4",
            "ticks": 1920,
            "time": 2.790696,
            "velocity": 0.3779527559055118
          },
          {
            "duration": 0.0843022750000002,
            "durationTicks": 58,
            "midi": 87,
            "name": "D#6",
            "ticks": 1920,
            "time": 2.790696,
            "velocity": 0.6299212598425197
          },
          {
            "duration": 0.17151152500000055,
            "durationTicks": 118,
            "midi": 48,
            "name": "C3",
            "ticks": 2040,
            "time": 2.9651145,
            "velocity": 0.14960629921259844
          },
          {
            "duration": 0.17151152500000055,
            "durationTicks": 118,
            "midi": 70,
            "name": "A#4",
            "ticks": 2040,
            "time": 2.9651145,
            "velocity": 0.14173228346456693
          },
          {
            "duration": 0.1715115250000001,
            "durationTicks": 118,
            "midi": 36,
            "name": "C2",
            "ticks": 2160,
            "time": 3.139533,
            "velocity": 0.2677165354330709
          },
          {
            "duration": 0.1715115250000001,
            "durationTicks": 118,
            "midi": 48,
            "name": "C3",
            "ticks": 2160,
            "time": 3.139533,
            "velocity": 0.2125984251968504
          },
          {
            "duration": 0.1715115250000001,
            "durationTicks": 118,
            "midi": 70,
            "name": "A#4",
            "ticks": 2160,
            "time": 3.139533,
            "velocity": 0.25984251968503935
          },
          {
            "duration": 0.1715115250000001,
            "durationTicks": 118,
            "midi": 35,
            "name": "B1",
            "ticks": 2280,
            "time": 3.3139515,
            "velocity": 0.5511811023622047
          },
          {
            "duration": 0.1715115250000001,
            "durationTicks": 118,
            "midi": 36,
            "name": "C2",
            "ticks": 2280,
            "time": 3.3139515,
            "velocity": 0.5590551181102362
          },
          {
            "duration": 0.1715115250000001,
            "durationTicks": 118,
            "midi": 47,
            "name": "B2",
            "ticks": 2280,
            "time": 3.3139515,
            "velocity": 0.7007874015748031
          },
          {
            "duration": 0.1715115250000001,
            "durationTicks": 118,
            "midi": 70,
            "name": "A#4",
            "ticks": 2280,
            "time": 3.3139515,
            "velocity": 0.4251968503937008
          },
          {
            "duration": 0.0843022750000002,
            "durationTicks": 58,
            "midi": 87,
            "name": "D#6",
            "ticks": 2280,
            "time": 3.3139515,
            "velocity": 0.5196850393700787
          },
          {
            "duration": 0.1715115250000001,
            "durationTicks": 118,
            "midi": 28,
            "name": "E1",
            "ticks": 2400,
            "time": 3.48837,
            "velocity": 0.47244094488188976
          },
          {
            "duration": 0.1715115250000001,
            "durationTicks": 118,
            "midi": 36,
            "name": "C2",
            "ticks": 2400,
            "time": 3.48837,
            "velocity": 0.7795275590551181
          },
          {
            "duration": 0.1715115250000001,
            "durationTicks": 118,
            "midi": 37,
            "name": "C#2",
            "ticks": 2400,
            "time": 3.48837,
            "velocity": 0.49606299212598426
          },
          {
            "duration": 0.1715115250000001,
            "durationTicks": 118,
            "midi": 44,
            "name": "G#2",
            "ticks": 2400,
            "time": 3.48837,
            "velocity": 0.3858267716535433
          },
          {
            "duration": 0.1715115250000001,
            "durationTicks": 118,
            "midi": 70,
            "name": "A#4",
            "ticks": 2400,
            "time": 3.48837,
            "velocity": 0.2992125984251969
          },
          {
            "duration": 0.0843022750000002,
            "durationTicks": 58,
            "midi": 86,
            "name": "D6",
            "ticks": 2400,
            "time": 3.48837,
            "velocity": 0.4251968503937008
          },
          {
            "duration": 0.1715115250000001,
            "durationTicks": 118,
            "midi": 70,
            "name": "A#4",
            "ticks": 2520,
            "time": 3.6627885,
            "velocity": 0.23622047244094488
          },
          {
            "duration": 0.17151152499999966,
            "durationTicks": 118,
            "midi": 36,
            "name": "C2",
            "ticks": 2640,
            "time": 3.8372070000000003,
            "velocity": 0.6692913385826772
          },
          {
            "duration": 0.17151152499999966,
            "durationTicks": 118,
            "midi": 48,
            "name": "C3",
            "ticks": 2640,
            "time": 3.8372070000000003,
            "velocity": 0.2283464566929134
          },
          {
            "duration": 0.17151152499999966,
            "durationTicks": 118,
            "midi": 70,
            "name": "A#4",
            "ticks": 2640,
            "time": 3.8372070000000003,
            "velocity": 0.33070866141732286
          },
          {
            "duration": 0.0843022750000002,
            "durationTicks": 58,
            "midi": 87,
            "name": "D#6",
            "ticks": 2640,
            "time": 3.8372070000000003,
            "velocity": 0.4566929133858268
          },
          {
            "duration": 0.17151152500000055,
            "durationTicks": 118,
            "midi": 35,
            "name": "B1",
            "ticks": 2760,
            "time": 4.0116255,
            "velocity": 0.5511811023622047
          },
          {
            "duration": 0.17151152500000055,
            "durationTicks": 118,
            "midi": 36,
            "name": "C2",
            "ticks": 2760,
            "time": 4.0116255,
            "velocity": 0.3937007874015748
          },
          {
            "duration": 0.17151152500000055,
            "durationTicks": 118,
            "midi": 47,
            "name": "B2",
            "ticks": 2760,
            "time": 4.0116255,
            "velocity": 0.6141732283464567
          },
          {
            "duration": 0.17151152500000055,
            "durationTicks": 118,
            "midi": 70,
            "name": "A#4",
            "ticks": 2760,
            "time": 4.0116255,
            "velocity": 0.4094488188976378
          },
          {
            "duration": 0.17151152500000055,
            "durationTicks": 118,
            "midi": 36,
            "name": "C2",
            "ticks": 2880,
            "time": 4.186044,
            "velocity": 0.8188976377952756
          },
          {
            "duration": 0.17151152500000055,
            "durationTicks": 118,
            "midi": 37,
            "name": "C#2",
            "ticks": 2880,
            "time": 4.186044,
            "velocity": 0.4566929133858268
          },
          {
            "duration": 0.17151152500000055,
            "durationTicks": 118,
            "midi": 44,
            "name": "G#2",
            "ticks": 2880,
            "time": 4.186044,
            "velocity": 0.4251968503937008
          },
          {
            "duration": 0.17151152500000055,
            "durationTicks": 118,
            "midi": 70,
            "name": "A#4",
            "ticks": 2880,
            "time": 4.186044,
            "velocity": 0.2440944881889764
          },
          {
            "duration": 0.08430227500000065,
            "durationTicks": 58,
            "midi": 87,
            "name": "D#6",
            "ticks": 2880,
            "time": 4.186044,
            "velocity": 0.6299212598425197
          },
          {
            "duration": 0.17151152500000055,
            "durationTicks": 118,
            "midi": 70,
            "name": "A#4",
            "ticks": 3000,
            "time": 4.3604625,
            "velocity": 0.14960629921259844
          },
          {
            "duration": 0.17151152499999966,
            "durationTicks": 118,
            "midi": 35,
            "name": "B1",
            "ticks": 3120,
            "time": 4.534881,
            "velocity": 0.5511811023622047
          },
          {
            "duration": 0.17151152499999966,
            "durationTicks": 118,
            "midi": 36,
            "name": "C2",
            "ticks": 3120,
            "time": 4.534881,
            "velocity": 0.7086614173228346
          },
          {
            "duration": 0.17151152499999966,
            "durationTicks": 118,
            "midi": 40,
            "name": "E2",
            "ticks": 3120,
            "time": 4.534881,
            "velocity": 0.4330708661417323
          },
          {
            "duration": 0.17151152499999966,
            "durationTicks": 118,
            "midi": 47,
            "name": "B2",
            "ticks": 3120,
            "time": 4.534881,
            "velocity": 0.5275590551181102
          },
          {
            "duration": 0.17151152499999966,
            "durationTicks": 118,
            "midi": 48,
            "name": "C3",
            "ticks": 3120,
            "time": 4.534881,
            "velocity": 0.7165354330708661
          },
          {
            "duration": 0.17151152499999966,
            "durationTicks": 118,
            "midi": 70,
            "name": "A#4",
            "ticks": 3120,
            "time": 4.534881,
            "velocity": 0.36220472440944884
          },
          {
            "duration": 0.08430227499999976,
            "durationTicks": 58,
            "midi": 87,
            "name": "D#6",
            "ticks": 3120,
            "time": 4.534881,
            "velocity": 0.8188976377952756
          },
          {
            "duration": 0.17151152499999966,
            "durationTicks": 118,
            "midi": 70,
            "name": "A#4",
            "ticks": 3240,
            "time": 4.7092995,
            "velocity": 0.2047244094488189
          },
          {
            "duration": 0.17151152500000055,
            "durationTicks": 118,
            "midi": 28,
            "name": "E1",
            "ticks": 3360,
            "time": 4.883718,
            "velocity": 0.47244094488188976
          },
          {
            "duration": 0.17151152500000055,
            "durationTicks": 118,
            "midi": 36,
            "name": "C2",
            "ticks": 3360,
            "time": 4.883718,
            "velocity": 0.7952755905511811
          },
          {
            "duration": 0.17151152500000055,
            "durationTicks": 118,
            "midi": 37,
            "name": "C#2",
            "ticks": 3360,
            "time": 4.883718,
            "velocity": 0.4566929133858268
          },
          {
            "duration": 0.17151152500000055,
            "durationTicks": 118,
            "midi": 43,
            "name": "G2",
            "ticks": 3360,
            "time": 4.883718,
            "velocity": 0.2440944881889764
          },
          {
            "duration": 0.17151152500000055,
            "durationTicks": 118,
            "midi": 44,
            "name": "G#2",
            "ticks": 3360,
            "time": 4.883718,
            "velocity": 0.4409448818897638
          },
          {
            "duration": 0.17151152500000055,
            "durationTicks": 118,
            "midi": 70,
            "name": "A#4",
            "ticks": 3360,
            "time": 4.883718,
            "velocity": 0.28346456692913385
          },
          {
            "duration": 0.08430227500000065,
            "durationTicks": 58,
            "midi": 87,
            "name": "D#6",
            "ticks": 3360,
            "time": 4.883718,
            "velocity": 0.2992125984251969
          },
          {
            "duration": 0.17151152500000055,
            "durationTicks": 118,
            "midi": 40,
            "name": "E2",
            "ticks": 3480,
            "time": 5.0581365,
            "velocity": 0.5118110236220472
          },
          {
            "duration": 0.17151152500000055,
            "durationTicks": 118,
            "midi": 45,
            "name": "A2",
            "ticks": 3480,
            "time": 5.0581365,
            "velocity": 0.7244094488188977
          },
          {
            "duration": 0.17151152500000055,
            "durationTicks": 118,
            "midi": 47,
            "name": "B2",
            "ticks": 3480,
            "time": 5.0581365,
            "velocity": 0.5196850393700787
          },
          {
            "duration": 0.17151152500000055,
            "durationTicks": 118,
            "midi": 70,
            "name": "A#4",
            "ticks": 3480,
            "time": 5.0581365,
            "velocity": 0.3779527559055118
          },
          {
            "duration": 0.08430227500000065,
            "durationTicks": 58,
            "midi": 87,
            "name": "D#6",
            "ticks": 3480,
            "time": 5.0581365,
            "velocity": 0.7795275590551181
          },
          {
            "duration": 0.17151152499999966,
            "durationTicks": 118,
            "midi": 36,
            "name": "C2",
            "ticks": 3600,
            "time": 5.2325550000000005,
            "velocity": 0.6220472440944882
          },
          {
            "duration": 0.17151152499999966,
            "durationTicks": 118,
            "midi": 70,
            "name": "A#4",
            "ticks": 3600,
            "time": 5.2325550000000005,
            "velocity": 0.2992125984251969
          },
          {
            "duration": 0.08430227499999976,
            "durationTicks": 58,
            "midi": 86,
            "name": "D6",
            "ticks": 3600,
            "time": 5.2325550000000005,
            "velocity": 0.4330708661417323
          },
          {
            "duration": 0.17151152499999966,
            "durationTicks": 118,
            "midi": 36,
            "name": "C2",
            "ticks": 3720,
            "time": 5.4069735,
            "velocity": 0.4409448818897638
          },
          {
            "duration": 0.17151152499999966,
            "durationTicks": 118,
            "midi": 45,
            "name": "A2",
            "ticks": 3720,
            "time": 5.4069735,
            "velocity": 0.2047244094488189
          },
          {
            "duration": 0.17151152499999966,
            "durationTicks": 118,
            "midi": 70,
            "name": "A#4",
            "ticks": 3720,
            "time": 5.4069735,
            "velocity": 0.25984251968503935
          },
          {
            "duration": 0.17151152500000055,
            "durationTicks": 118,
            "midi": 35,
            "name": "B1",
            "ticks": 3840,
            "time": 5.581392,
            "velocity": 0.5511811023622047
          },
          {
            "duration": 0.17151152500000055,
            "durationTicks": 118,
            "midi": 36,
            "name": "C2",
            "ticks": 3840,
            "time": 5.581392,
            "velocity": 0.8188976377952756
          },
          {
            "duration": 0.17151152500000055,
            "durationTicks": 118,
            "midi": 37,
            "name": "C#2",
            "ticks": 3840,
            "time": 5.581392,
            "velocity": 0.4409448818897638
          },
          {
            "duration": 0.17151152500000055,
            "durationTicks": 118,
            "midi": 44,
            "name": "G#2",
            "ticks": 3840,
            "time": 5.581392,
            "velocity": 0.5354330708661418
          },
          {
            "duration": 0.17151152500000055,
            "durationTicks": 118,
            "midi": 47,
            "name": "B2",
            "ticks": 3840,
            "time": 5.581392,
            "velocity": 0.5275590551181102
          },
          {
            "duration": 0.17151152500000055,
            "durationTicks": 118,
            "midi": 70,
            "name": "A#4",
            "ticks": 3840,
            "time": 5.581392,
            "velocity": 0.3779527559055118
          },
          {
            "duration": 0.08430227499999976,
            "durationTicks": 58,
            "midi": 87,
            "name": "D#6",
            "ticks": 3840,
            "time": 5.581392,
            "velocity": 0.6299212598425197
          },
          {
            "duration": 0.17151152500000055,
            "durationTicks": 118,
            "midi": 48,
            "name": "C3",
            "ticks": 3960,
            "time": 5.7558105,
            "velocity": 0.14960629921259844
          },
          {
            "duration": 0.17151152500000055,
            "durationTicks": 118,
            "midi": 70,
            "name": "A#4",
            "ticks": 3960,
            "time": 5.7558105,
            "velocity": 0.14173228346456693
          },
          {
            "duration": 0.17151152500000055,
            "durationTicks": 118,
            "midi": 36,
            "name": "C2",
            "ticks": 4080,
            "time": 5.930229,
            "velocity": 0.2677165354330709
          },
          {
            "duration": 0.17151152500000055,
            "durationTicks": 118,
            "midi": 48,
            "name": "C3",
            "ticks": 4080,
            "time": 5.930229,
            "velocity": 0.2125984251968504
          },
          {
            "duration": 0.17151152500000055,
            "durationTicks": 118,
            "midi": 70,
            "name": "A#4",
            "ticks": 4080,
            "time": 5.930229,
            "velocity": 0.25984251968503935
          },
          {
            "duration": 0.17151152499999966,
            "durationTicks": 118,
            "midi": 35,
            "name": "B1",
            "ticks": 4200,
            "time": 6.1046475000000004,
            "velocity": 0.5511811023622047
          },
          {
            "duration": 0.17151152499999966,
            "durationTicks": 118,
            "midi": 36,
            "name": "C2",
            "ticks": 4200,
            "time": 6.1046475000000004,
            "velocity": 0.5590551181102362
          },
          {
            "duration": 0.17151152499999966,
            "durationTicks": 118,
            "midi": 47,
            "name": "B2",
            "ticks": 4200,
            "time": 6.1046475000000004,
            "velocity": 0.7007874015748031
          },
          {
            "duration": 0.17151152499999966,
            "durationTicks": 118,
            "midi": 70,
            "name": "A#4",
            "ticks": 4200,
            "time": 6.1046475000000004,
            "velocity": 0.4251968503937008
          },
          {
            "duration": 0.08430227499999976,
            "durationTicks": 58,
            "midi": 87,
            "name": "D#6",
            "ticks": 4200,
            "time": 6.1046475000000004,
            "velocity": 0.5196850393700787
          },
          {
            "duration": 0.17151152499999966,
            "durationTicks": 118,
            "midi": 28,
            "name": "E1",
            "ticks": 4320,
            "time": 6.279066,
            "velocity": 0.47244094488188976
          },
          {
            "duration": 0.17151152499999966,
            "durationTicks": 118,
            "midi": 36,
            "name": "C2",
            "ticks": 4320,
            "time": 6.279066,
            "velocity": 0.8188976377952756
          },
          {
            "duration": 0.17151152499999966,
            "durationTicks": 118,
            "midi": 37,
            "name": "C#2",
            "ticks": 4320,
            "time": 6.279066,
            "velocity": 0.4094488188976378
          },
          {
            "duration": 0.17151152499999966,
            "durationTicks": 118,
            "midi": 44,
            "name": "G#2",
            "ticks": 4320,
            "time": 6.279066,
            "velocity": 0.30708661417322836
          },
          {
            "duration": 0.17151152499999966,
            "durationTicks": 118,
            "midi": 70,
            "name": "A#4",
            "ticks": 4320,
            "time": 6.279066,
            "velocity": 0.2992125984251969
          },
          {
            "duration": 0.08430227499999976,
            "durationTicks": 58,
            "midi": 86,
            "name": "D6",
            "ticks": 4320,
            "time": 6.279066,
            "velocity": 0.4251968503937008
          },
          {
            "duration": 0.17151152500000055,
            "durationTicks": 118,
            "midi": 45,
            "name": "A2",
            "ticks": 4440,
            "time": 6.4534845,
            "velocity": 0.25984251968503935
          },
          {
            "duration": 0.17151152500000055,
            "durationTicks": 118,
            "midi": 70,
            "name": "A#4",
            "ticks": 4440,
            "time": 6.4534845,
            "velocity": 0.23622047244094488
          },
          {
            "duration": 0.17151152500000055,
            "durationTicks": 118,
            "midi": 36,
            "name": "C2",
            "ticks": 4560,
            "time": 6.627903,
            "velocity": 0.6692913385826772
          },
          {
            "duration": 0.17151152500000055,
            "durationTicks": 118,
            "midi": 48,
            "name": "C3",
            "ticks": 4560,
            "time": 6.627903,
            "velocity": 0.2283464566929134
          },
          {
            "duration": 0.17151152500000055,
            "durationTicks": 118,
            "midi": 70,
            "name": "A#4",
            "ticks": 4560,
            "time": 6.627903,
            "velocity": 0.33070866141732286
          },
          {
            "duration": 0.08430227500000065,
            "durationTicks": 58,
            "midi": 87,
            "name": "D#6",
            "ticks": 4560,
            "time": 6.627903,
            "velocity": 0.4566929133858268
          },
          {
            "duration": 0.17151152499999966,
            "durationTicks": 118,
            "midi": 35,
            "name": "B1",
            "ticks": 4680,
            "time": 6.802321500000001,
            "velocity": 0.5511811023622047
          },
          {
            "duration": 0.17151152499999966,
            "durationTicks": 118,
            "midi": 36,
            "name": "C2",
            "ticks": 4680,
            "time": 6.802321500000001,
            "velocity": 0.3937007874015748
          },
          {
            "duration": 0.17151152499999966,
            "durationTicks": 118,
            "midi": 47,
            "name": "B2",
            "ticks": 4680,
            "time": 6.802321500000001,
            "velocity": 0.6141732283464567
          },
          {
            "duration": 0.17151152499999966,
            "durationTicks": 118,
            "midi": 70,
            "name": "A#4",
            "ticks": 4680,
            "time": 6.802321500000001,
            "velocity": 0.4094488188976378
          },
          {
            "duration": 0.17151152499999966,
            "durationTicks": 118,
            "midi": 36,
            "name": "C2",
            "ticks": 4800,
            "time": 6.97674,
            "velocity": 0.8188976377952756
          },
          {
            "duration": 0.17151152499999966,
            "durationTicks": 118,
            "midi": 37,
            "name": "C#2",
            "ticks": 4800,
            "time": 6.97674,
            "velocity": 0.3858267716535433
          },
          {
            "duration": 0.17151152499999966,
            "durationTicks": 118,
            "midi": 44,
            "name": "G#2",
            "ticks": 4800,
            "time": 6.97674,
            "velocity": 0.3779527559055118
          },
          {
            "duration": 0.17151152499999966,
            "durationTicks": 118,
            "midi": 45,
            "name": "A2",
            "ticks": 4800,
            "time": 6.97674,
            "velocity": 0.5118110236220472
          },
          {
            "duration": 0.17151152499999966,
            "durationTicks": 118,
            "midi": 70,
            "name": "A#4",
            "ticks": 4800,
            "time": 6.97674,
            "velocity": 0.2440944881889764
          },
          {
            "duration": 0.08430227499999976,
            "durationTicks": 58,
            "midi": 87,
            "name": "D#6",
            "ticks": 4800,
            "time": 6.97674,
            "velocity": 0.6299212598425197
          },
          {
            "duration": 0.17151152500000055,
            "durationTicks": 118,
            "midi": 70,
            "name": "A#4",
            "ticks": 4920,
            "time": 7.1511585,
            "velocity": 0.14960629921259844
          },
          {
            "duration": 0.17151152500000055,
            "durationTicks": 118,
            "midi": 35,
            "name": "B1",
            "ticks": 5040,
            "time": 7.325577,
            "velocity": 0.5511811023622047
          },
          {
            "duration": 0.17151152500000055,
            "durationTicks": 118,
            "midi": 36,
            "name": "C2",
            "ticks": 5040,
            "time": 7.325577,
            "velocity": 0.7086614173228346
          },
          {
            "duration": 0.17151152500000055,
            "durationTicks": 118,
            "midi": 40,
            "name": "E2",
            "ticks": 5040,
            "time": 7.325577,
            "velocity": 0.4330708661417323
          },
          {
            "duration": 0.17151152500000055,
            "durationTicks": 118,
            "midi": 47,
            "name": "B2",
            "ticks": 5040,
            "time": 7.325577,
            "velocity": 0.5275590551181102
          },
          {
            "duration": 0.17151152500000055,
            "durationTicks": 118,
            "midi": 48,
            "name": "C3",
            "ticks": 5040,
            "time": 7.325577,
            "velocity": 0.7165354330708661
          },
          {
            "duration": 0.17151152500000055,
            "durationTicks": 118,
            "midi": 70,
            "name": "A#4",
            "ticks": 5040,
            "time": 7.325577,
            "velocity": 0.36220472440944884
          },
          {
            "duration": 0.08430227500000065,
            "durationTicks": 58,
            "midi": 87,
            "name": "D#6",
            "ticks": 5040,
            "time": 7.325577,
            "velocity": 0.7795275590551181
          },
          {
            "duration": 0.17151152500000055,
            "durationTicks": 118,
            "midi": 70,
            "name": "A#4",
            "ticks": 5160,
            "time": 7.4999955,
            "velocity": 0.2047244094488189
          },
          {
            "duration": 0.17151152499999966,
            "durationTicks": 118,
            "midi": 28,
            "name": "E1",
            "ticks": 5280,
            "time": 7.6744140000000005,
            "velocity": 0.47244094488188976
          },
          {
            "duration": 0.17151152499999966,
            "durationTicks": 118,
            "midi": 36,
            "name": "C2",
            "ticks": 5280,
            "time": 7.6744140000000005,
            "velocity": 0.7952755905511811
          },
          {
            "duration": 0.17151152499999966,
            "durationTicks": 118,
            "midi": 37,
            "name": "C#2",
            "ticks": 5280,
            "time": 7.6744140000000005,
            "velocity": 0.3700787401574803
          },
          {
            "duration": 0.17151152499999966,
            "durationTicks": 118,
            "midi": 43,
            "name": "G2",
            "ticks": 5280,
            "time": 7.6744140000000005,
            "velocity": 0.2440944881889764
          },
          {
            "duration": 0.17151152499999966,
            "durationTicks": 118,
            "midi": 44,
            "name": "G#2",
            "ticks": 5280,
            "time": 7.6744140000000005,
            "velocity": 0.41732283464566927
          },
          {
            "duration": 0.17151152499999966,
            "durationTicks": 118,
            "midi": 70,
            "name": "A#4",
            "ticks": 5280,
            "time": 7.6744140000000005,
            "velocity": 0.28346456692913385
          },
          {
            "duration": 0.08430227499999976,
            "durationTicks": 58,
            "midi": 87,
            "name": "D#6",
            "ticks": 5280,
            "time": 7.6744140000000005,
            "velocity": 0.2677165354330709
          },
          {
            "duration": 0.17151152499999966,
            "durationTicks": 118,
            "midi": 40,
            "name": "E2",
            "ticks": 5400,
            "time": 7.8488325,
            "velocity": 0.5118110236220472
          },
          {
            "duration": 0.17151152499999966,
            "durationTicks": 118,
            "midi": 45,
            "name": "A2",
            "ticks": 5400,
            "time": 7.8488325,
            "velocity": 0.7244094488188977
          },
          {
            "duration": 0.17151152499999966,
            "durationTicks": 118,
            "midi": 47,
            "name": "B2",
            "ticks": 5400,
            "time": 7.8488325,
            "velocity": 0.5196850393700787
          },
          {
            "duration": 0.17151152499999966,
            "durationTicks": 118,
            "midi": 70,
            "name": "A#4",
            "ticks": 5400,
            "time": 7.8488325,
            "velocity": 0.3779527559055118
          },
          {
            "duration": 0.08430227499999976,
            "durationTicks": 58,
            "midi": 87,
            "name": "D#6",
            "ticks": 5400,
            "time": 7.8488325,
            "velocity": 0.7322834645669292
          },
          {
            "duration": 0.17151152499999966,
            "durationTicks": 118,
            "midi": 36,
            "name": "C2",
            "ticks": 5520,
            "time": 8.023251,
            "velocity": 0.7086614173228346
          },
          {
            "duration": 0.17151152499999966,
            "durationTicks": 118,
            "midi": 70,
            "name": "A#4",
            "ticks": 5520,
            "time": 8.023251,
            "velocity": 0.2992125984251969
          },
          {
            "duration": 0.08430227500000065,
            "durationTicks": 58,
            "midi": 86,
            "name": "D6",
            "ticks": 5520,
            "time": 8.023251,
            "velocity": 0.4330708661417323
          },
          {
            "duration": 0.17151152499999966,
            "durationTicks": 118,
            "midi": 36,
            "name": "C2",
            "ticks": 5640,
            "time": 8.1976695,
            "velocity": 0.4409448818897638
          },
          {
            "duration": 0.17151152499999966,
            "durationTicks": 118,
            "midi": 45,
            "name": "A2",
            "ticks": 5640,
            "time": 8.1976695,
            "velocity": 0.2047244094488189
          },
          {
            "duration": 0.17151152499999966,
            "durationTicks": 118,
            "midi": 70,
            "name": "A#4",
            "ticks": 5640,
            "time": 8.1976695,
            "velocity": 0.25984251968503935
          },
          {
            "duration": 0.167613591666667,
            "durationTicks": 118,
            "midi": 35,
            "name": "B1",
            "ticks": 5760,
            "time": 8.372088,
            "velocity": 0.5511811023622047
          },
          {
            "duration": 0.167613591666667,
            "durationTicks": 118,
            "midi": 36,
            "name": "C2",
            "ticks": 5760,
            "time": 8.372088,
            "velocity": 0.5905511811023622
          },
          {
            "duration": 0.167613591666667,
            "durationTicks": 118,
            "midi": 37,
            "name": "C#2",
            "ticks": 5760,
            "time": 8.372088,
            "velocity": 0.3543307086614173
          },
          {
            "duration": 0.167613591666667,
            "durationTicks": 118,
            "midi": 44,
            "name": "G#2",
            "ticks": 5760,
            "time": 8.372088,
            "velocity": 0.5354330708661418
          },
          {
            "duration": 0.167613591666667,
            "durationTicks": 118,
            "midi": 47,
            "name": "B2",
            "ticks": 5760,
            "time": 8.372088,
            "velocity": 0.5275590551181102
          },
          {
            "duration": 0.167613591666667,
            "durationTicks": 118,
            "midi": 70,
            "name": "A#4",
            "ticks": 5760,
            "time": 8.372088,
            "velocity": 0.3779527559055118
          },
          {
            "duration": 0.08238634166666614,
            "durationTicks": 58,
            "midi": 87,
            "name": "D#6",
            "ticks": 5760,
            "time": 8.372088,
            "velocity": 0.6299212598425197
          },
          {
            "duration": 0.167613591666667,
            "durationTicks": 118,
            "midi": 48,
            "name": "C3",
            "ticks": 5880,
            "time": 8.5425425,
            "velocity": 0.14960629921259844
          },
          {
            "duration": 0.167613591666667,
            "durationTicks": 118,
            "midi": 70,
            "name": "A#4",
            "ticks": 5880,
            "time": 8.5425425,
            "velocity": 0.14173228346456693
          },
          {
            "duration": 0.167613591666667,
            "durationTicks": 118,
            "midi": 36,
            "name": "C2",
            "ticks": 6000,
            "time": 8.712997,
            "velocity": 0.2677165354330709
          },
          {
            "duration": 0.167613591666667,
            "durationTicks": 118,
            "midi": 48,
            "name": "C3",
            "ticks": 6000,
            "time": 8.712997,
            "velocity": 0.2125984251968504
          },
          {
            "duration": 0.167613591666667,
            "durationTicks": 118,
            "midi": 70,
            "name": "A#4",
            "ticks": 6000,
            "time": 8.712997,
            "velocity": 0.25984251968503935
          },
          {
            "duration": 0.167613591666667,
            "durationTicks": 118,
            "midi": 35,
            "name": "B1",
            "ticks": 6120,
            "time": 8.8834515,
            "velocity": 0.5511811023622047
          },
          {
            "duration": 0.167613591666667,
            "durationTicks": 118,
            "midi": 36,
            "name": "C2",
            "ticks": 6120,
            "time": 8.8834515,
            "velocity": 0.5590551181102362
          },
          {
            "duration": 0.167613591666667,
            "durationTicks": 118,
            "midi": 47,
            "name": "B2",
            "ticks": 6120,
            "time": 8.8834515,
            "velocity": 0.7007874015748031
          },
          {
            "duration": 0.167613591666667,
            "durationTicks": 118,
            "midi": 70,
            "name": "A#4",
            "ticks": 6120,
            "time": 8.8834515,
            "velocity": 0.4251968503937008
          },
          {
            "duration": 0.08238634166666614,
            "durationTicks": 58,
            "midi": 87,
            "name": "D#6",
            "ticks": 6120,
            "time": 8.8834515,
            "velocity": 0.5196850393700787
          },
          {
            "duration": 0.167613591666667,
            "durationTicks": 118,
            "midi": 28,
            "name": "E1",
            "ticks": 6240,
            "time": 9.053906,
            "velocity": 0.47244094488188976
          },
          {
            "duration": 0.167613591666667,
            "durationTicks": 118,
            "midi": 36,
            "name": "C2",
            "ticks": 6240,
            "time": 9.053906,
            "velocity": 0.7795275590551181
          },
          {
            "duration": 0.167613591666667,
            "durationTicks": 118,
            "midi": 37,
            "name": "C#2",
            "ticks": 6240,
            "time": 9.053906,
            "velocity": 0.33070866141732286
          },
          {
            "duration": 0.167613591666667,
            "durationTicks": 118,
            "midi": 44,
            "name": "G#2",
            "ticks": 6240,
            "time": 9.053906,
            "velocity": 0.31496062992125984
          },
          {
            "duration": 0.167613591666667,
            "durationTicks": 118,
            "midi": 70,
            "name": "A#4",
            "ticks": 6240,
            "time": 9.053906,
            "velocity": 0.2992125984251969
          },
          {
            "duration": 0.08238634166666614,
            "durationTicks": 58,
            "midi": 86,
            "name": "D6",
            "ticks": 6240,
            "time": 9.053906,
            "velocity": 0.4251968503937008
          },
          {
            "duration": 0.167613591666667,
            "durationTicks": 118,
            "midi": 70,
            "name": "A#4",
            "ticks": 6360,
            "time": 9.2243605,
            "velocity": 0.23622047244094488
          },
          {
            "duration": 0.167613591666667,
            "durationTicks": 118,
            "midi": 36,
            "name": "C2",
            "ticks": 6480,
            "time": 9.394815,
            "velocity": 0.6692913385826772
          },
          {
            "duration": 0.167613591666667,
            "durationTicks": 118,
            "midi": 48,
            "name": "C3",
            "ticks": 6480,
            "time": 9.394815,
            "velocity": 0.2283464566929134
          },
          {
            "duration": 0.167613591666667,
            "durationTicks": 118,
            "midi": 70,
            "name": "A#4",
            "ticks": 6480,
            "time": 9.394815,
            "velocity": 0.33070866141732286
          },
          {
            "duration": 0.08238634166666614,
            "durationTicks": 58,
            "midi": 87,
            "name": "D#6",
            "ticks": 6480,
            "time": 9.394815,
            "velocity": 0.4566929133858268
          },
          {
            "duration": 0.167613591666667,
            "durationTicks": 118,
            "midi": 35,
            "name": "B1",
            "ticks": 6600,
            "time": 9.5652695,
            "velocity": 0.5511811023622047
          },
          {
            "duration": 0.167613591666667,
            "durationTicks": 118,
            "midi": 36,
            "name": "C2",
            "ticks": 6600,
            "time": 9.5652695,
            "velocity": 0.3937007874015748
          },
          {
            "duration": 0.167613591666667,
            "durationTicks": 118,
            "midi": 47,
            "name": "B2",
            "ticks": 6600,
            "time": 9.5652695,
            "velocity": 0.6141732283464567
          },
          {
            "duration": 0.167613591666667,
            "durationTicks": 118,
            "midi": 70,
            "name": "A#4",
            "ticks": 6600,
            "time": 9.5652695,
            "velocity": 0.4094488188976378
          },
          {
            "duration": 0.167613591666667,
            "durationTicks": 118,
            "midi": 36,
            "name": "C2",
            "ticks": 6720,
            "time": 9.735724,
            "velocity": 0.8188976377952756
          },
          {
            "duration": 0.167613591666667,
            "durationTicks": 118,
            "midi": 37,
            "name": "C#2",
            "ticks": 6720,
            "time": 9.735724,
            "velocity": 0.31496062992125984
          },
          {
            "duration": 0.167613591666667,
            "durationTicks": 118,
            "midi": 44,
            "name": "G#2",
            "ticks": 6720,
            "time": 9.735724,
            "velocity": 0.3779527559055118
          },
          {
            "duration": 0.167613591666667,
            "durationTicks": 118,
            "midi": 70,
            "name": "A#4",
            "ticks": 6720,
            "time": 9.735724,
            "velocity": 0.2440944881889764
          },
          {
            "duration": 0.08238634166666614,
            "durationTicks": 58,
            "midi": 87,
            "name": "D#6",
            "ticks": 6720,
            "time": 9.735724,
            "velocity": 0.6299212598425197
          },
          {
            "duration": 0.167613591666667,
            "durationTicks": 118,
            "midi": 70,
            "name": "A#4",
            "ticks": 6840,
            "time": 9.9061785,
            "velocity": 0.14960629921259844
          },
          {
            "duration": 0.167613591666667,
            "durationTicks": 118,
            "midi": 35,
            "name": "B1",
            "ticks": 6960,
            "time": 10.076633,
            "velocity": 0.5511811023622047
          },
          {
            "duration": 0.167613591666667,
            "durationTicks": 118,
            "midi": 36,
            "name": "C2",
            "ticks": 6960,
            "time": 10.076633,
            "velocity": 0.7086614173228346
          },
          {
            "duration": 0.167613591666667,
            "durationTicks": 118,
            "midi": 40,
            "name": "E2",
            "ticks": 6960,
            "time": 10.076633,
            "velocity": 0.4330708661417323
          },
          {
            "duration": 0.167613591666667,
            "durationTicks": 118,
            "midi": 47,
            "name": "B2",
            "ticks": 6960,
            "time": 10.076633,
            "velocity": 0.5275590551181102
          },
          {
            "duration": 0.167613591666667,
            "durationTicks": 118,
            "midi": 48,
            "name": "C3",
            "ticks": 6960,
            "time": 10.076633,
            "velocity": 0.7165354330708661
          },
          {
            "duration": 0.167613591666667,
            "durationTicks": 118,
            "midi": 70,
            "name": "A#4",
            "ticks": 6960,
            "time": 10.076633,
            "velocity": 0.36220472440944884
          },
          {
            "duration": 0.08238634166666614,
            "durationTicks": 58,
            "midi": 87,
            "name": "D#6",
            "ticks": 6960,
            "time": 10.076633,
            "velocity": 0.7401574803149606
          },
          {
            "duration": 0.167613591666667,
            "durationTicks": 118,
            "midi": 70,
            "name": "A#4",
            "ticks": 7080,
            "time": 10.2470875,
            "velocity": 0.2047244094488189
          },
          {
            "duration": 0.167613591666667,
            "durationTicks": 118,
            "midi": 28,
            "name": "E1",
            "ticks": 7200,
            "time": 10.417542,
            "velocity": 0.47244094488188976
          },
          {
            "duration": 0.167613591666667,
            "durationTicks": 118,
            "midi": 36,
            "name": "C2",
            "ticks": 7200,
            "time": 10.417542,
            "velocity": 0.7952755905511811
          },
          {
            "duration": 0.167613591666667,
            "durationTicks": 118,
            "midi": 37,
            "name": "C#2",
            "ticks": 7200,
            "time": 10.417542,
            "velocity": 0.30708661417322836
          },
          {
            "duration": 0.167613591666667,
            "durationTicks": 118,
            "midi": 43,
            "name": "G2",
            "ticks": 7200,
            "time": 10.417542,
            "velocity": 0.2440944881889764
          },
          {
            "duration": 0.167613591666667,
            "durationTicks": 118,
            "midi": 44,
            "name": "G#2",
            "ticks": 7200,
            "time": 10.417542,
            "velocity": 0.4645669291338583
          },
          {
            "duration": 0.167613591666667,
            "durationTicks": 118,
            "midi": 70,
            "name": "A#4",
            "ticks": 7200,
            "time": 10.417542,
            "velocity": 0.28346456692913385
          },
          {
            "duration": 0.08238634166666792,
            "durationTicks": 58,
            "midi": 87,
            "name": "D#6",
            "ticks": 7200,
            "time": 10.417542,
            "velocity": 0.12598425196850394
          },
          {
            "duration": 0.167613591666667,
            "durationTicks": 118,
            "midi": 40,
            "name": "E2",
            "ticks": 7320,
            "time": 10.5879965,
            "velocity": 0.5118110236220472
          },
          {
            "duration": 0.167613591666667,
            "durationTicks": 118,
            "midi": 45,
            "name": "A2",
            "ticks": 7320,
            "time": 10.5879965,
            "velocity": 0.7244094488188977
          },
          {
            "duration": 0.167613591666667,
            "durationTicks": 118,
            "midi": 47,
            "name": "B2",
            "ticks": 7320,
            "time": 10.5879965,
            "velocity": 0.5196850393700787
          },
          {
            "duration": 0.167613591666667,
            "durationTicks": 118,
            "midi": 70,
            "name": "A#4",
            "ticks": 7320,
            "time": 10.5879965,
            "velocity": 0.3779527559055118
          },
          {
            "duration": 0.08238634166666614,
            "durationTicks": 58,
            "midi": 87,
            "name": "D#6",
            "ticks": 7320,
            "time": 10.5879965,
            "velocity": 0.7244094488188977
          },
          {
            "duration": 0.167613591666667,
            "durationTicks": 118,
            "midi": 36,
            "name": "C2",
            "ticks": 7440,
            "time": 10.758450999999999,
            "velocity": 0.6220472440944882
          },
          {
            "duration": 0.167613591666667,
            "durationTicks": 118,
            "midi": 70,
            "name": "A#4",
            "ticks": 7440,
            "time": 10.758450999999999,
            "velocity": 0.2992125984251969
          },
          {
            "duration": 0.08238634166666792,
            "durationTicks": 58,
            "midi": 86,
            "name": "D6",
            "ticks": 7440,
            "time": 10.758450999999999,
            "velocity": 0.4330708661417323
          },
          {
            "duration": 0.167613591666667,
            "durationTicks": 118,
            "midi": 36,
            "name": "C2",
            "ticks": 7560,
            "time": 10.928905499999999,
            "velocity": 0.4409448818897638
          },
          {
            "duration": 0.167613591666667,
            "durationTicks": 118,
            "midi": 45,
            "name": "A2",
            "ticks": 7560,
            "time": 10.928905499999999,
            "velocity": 0.2047244094488189
          },
          {
            "duration": 0.167613591666667,
            "durationTicks": 118,
            "midi": 70,
            "name": "A#4",
            "ticks": 7560,
            "time": 10.928905499999999,
            "velocity": 0.25984251968503935
          },
          {
            "duration": 0.17151152499999966,
            "durationTicks": 118,
            "midi": 35,
            "name": "B1",
            "ticks": 7680,
            "time": 11.099359999999999,
            "velocity": 0.5511811023622047
          },
          {
            "duration": 0.17151152499999966,
            "durationTicks": 118,
            "midi": 36,
            "name": "C2",
            "ticks": 7680,
            "time": 11.099359999999999,
            "velocity": 0.5905511811023622
          },
          {
            "duration": 0.17151152499999966,
            "durationTicks": 118,
            "midi": 37,
            "name": "C#2",
            "ticks": 7680,
            "time": 11.099359999999999,
            "velocity": 0.2677165354330709
          },
          {
            "duration": 0.17151152499999966,
            "durationTicks": 118,
            "midi": 44,
            "name": "G#2",
            "ticks": 7680,
            "time": 11.099359999999999,
            "velocity": 0.30708661417322836
          },
          {
            "duration": 0.17151152499999966,
            "durationTicks": 118,
            "midi": 47,
            "name": "B2",
            "ticks": 7680,
            "time": 11.099359999999999,
            "velocity": 0.5275590551181102
          },
          {
            "duration": 0.17151152499999966,
            "durationTicks": 118,
            "midi": 70,
            "name": "A#4",
            "ticks": 7680,
            "time": 11.099359999999999,
            "velocity": 0.3779527559055118
          },
          {
            "duration": 0.08430227500000065,
            "durationTicks": 58,
            "midi": 87,
            "name": "D#6",
            "ticks": 7680,
            "time": 11.099359999999999,
            "velocity": 0.6299212598425197
          },
          {
            "duration": 0.17151152499999966,
            "durationTicks": 118,
            "midi": 48,
            "name": "C3",
            "ticks": 7800,
            "time": 11.273778499999999,
            "velocity": 0.14960629921259844
          },
          {
            "duration": 0.17151152499999966,
            "durationTicks": 118,
            "midi": 70,
            "name": "A#4",
            "ticks": 7800,
            "time": 11.273778499999999,
            "velocity": 0.14173228346456693
          },
          {
            "duration": 0.17151152499999966,
            "durationTicks": 118,
            "midi": 36,
            "name": "C2",
            "ticks": 7920,
            "time": 11.448196999999999,
            "velocity": 0.2677165354330709
          },
          {
            "duration": 0.17151152499999966,
            "durationTicks": 118,
            "midi": 48,
            "name": "C3",
            "ticks": 7920,
            "time": 11.448196999999999,
            "velocity": 0.2125984251968504
          },
          {
            "duration": 0.17151152499999966,
            "durationTicks": 118,
            "midi": 70,
            "name": "A#4",
            "ticks": 7920,
            "time": 11.448196999999999,
            "velocity": 0.25984251968503935
          },
          {
            "duration": 0.17151152499999966,
            "durationTicks": 118,
            "midi": 35,
            "name": "B1",
            "ticks": 8040,
            "time": 11.622615499999998,
            "velocity": 0.5511811023622047
          },
          {
            "duration": 0.17151152499999966,
            "durationTicks": 118,
            "midi": 36,
            "name": "C2",
            "ticks": 8040,
            "time": 11.622615499999998,
            "velocity": 0.5590551181102362
          },
          {
            "duration": 0.17151152499999966,
            "durationTicks": 118,
            "midi": 47,
            "name": "B2",
            "ticks": 8040,
            "time": 11.622615499999998,
            "velocity": 0.7007874015748031
          },
          {
            "duration": 0.17151152499999966,
            "durationTicks": 118,
            "midi": 70,
            "name": "A#4",
            "ticks": 8040,
            "time": 11.622615499999998,
            "velocity": 0.4251968503937008
          },
          {
            "duration": 0.08430227500000065,
            "durationTicks": 58,
            "midi": 87,
            "name": "D#6",
            "ticks": 8040,
            "time": 11.622615499999998,
            "velocity": 0.5196850393700787
          },
          {
            "duration": 0.17151152500000144,
            "durationTicks": 118,
            "midi": 28,
            "name": "E1",
            "ticks": 8160,
            "time": 11.797033999999998,
            "velocity": 0.47244094488188976
          },
          {
            "duration": 0.17151152500000144,
            "durationTicks": 118,
            "midi": 36,
            "name": "C2",
            "ticks": 8160,
            "time": 11.797033999999998,
            "velocity": 0.7795275590551181
          },
          {
            "duration": 0.17151152500000144,
            "durationTicks": 118,
            "midi": 37,
            "name": "C#2",
            "ticks": 8160,
            "time": 11.797033999999998,
            "velocity": 0.2204724409448819
          },
          {
            "duration": 0.17151152500000144,
            "durationTicks": 118,
            "midi": 44,
            "name": "G#2",
            "ticks": 8160,
            "time": 11.797033999999998,
            "velocity": 0.3858267716535433
          },
          {
            "duration": 0.17151152500000144,
            "durationTicks": 118,
            "midi": 70,
            "name": "A#4",
            "ticks": 8160,
            "time": 11.797033999999998,
            "velocity": 0.2992125984251969
          },
          {
            "duration": 0.08430227500000065,
            "durationTicks": 58,
            "midi": 86,
            "name": "D6",
            "ticks": 8160,
            "time": 11.797033999999998,
            "velocity": 0.4251968503937008
          },
          {
            "duration": 0.17151152499999966,
            "durationTicks": 118,
            "midi": 70,
            "name": "A#4",
            "ticks": 8280,
            "time": 11.9714525,
            "velocity": 0.23622047244094488
          },
          {
            "duration": 0.17151152499999966,
            "durationTicks": 118,
            "midi": 36,
            "name": "C2",
            "ticks": 8400,
            "time": 12.145871,
            "velocity": 0.6692913385826772
          },
          {
            "duration": 0.17151152499999966,
            "durationTicks": 118,
            "midi": 48,
            "name": "C3",
            "ticks": 8400,
            "time": 12.145871,
            "velocity": 0.2283464566929134
          },
          {
            "duration": 0.17151152499999966,
            "durationTicks": 118,
            "midi": 70,
            "name": "A#4",
            "ticks": 8400,
            "time": 12.145871,
            "velocity": 0.33070866141732286
          },
          {
            "duration": 0.08430227499999887,
            "durationTicks": 58,
            "midi": 87,
            "name": "D#6",
            "ticks": 8400,
            "time": 12.145871,
            "velocity": 0.4566929133858268
          },
          {
            "duration": 0.17151152499999966,
            "durationTicks": 118,
            "midi": 35,
            "name": "B1",
            "ticks": 8520,
            "time": 12.3202895,
            "velocity": 0.5511811023622047
          },
          {
            "duration": 0.17151152499999966,
            "durationTicks": 118,
            "midi": 36,
            "name": "C2",
            "ticks": 8520,
            "time": 12.3202895,
            "velocity": 0.3937007874015748
          },
          {
            "duration": 0.17151152499999966,
            "durationTicks": 118,
            "midi": 47,
            "name": "B2",
            "ticks": 8520,
            "time": 12.3202895,
            "velocity": 0.6141732283464567
          },
          {
            "duration": 0.17151152499999966,
            "durationTicks": 118,
            "midi": 70,
            "name": "A#4",
            "ticks": 8520,
            "time": 12.3202895,
            "velocity": 0.4094488188976378
          },
          {
            "duration": 0.17151152499999966,
            "durationTicks": 118,
            "midi": 36,
            "name": "C2",
            "ticks": 8640,
            "time": 12.494708,
            "velocity": 0.8188976377952756
          },
          {
            "duration": 0.17151152499999966,
            "durationTicks": 118,
            "midi": 37,
            "name": "C#2",
            "ticks": 8640,
            "time": 12.494708,
            "velocity": 0.16535433070866143
          },
          {
            "duration": 0.17151152499999966,
            "durationTicks": 118,
            "midi": 44,
            "name": "G#2",
            "ticks": 8640,
            "time": 12.494708,
            "velocity": 0.4251968503937008
          },
          {
            "duration": 0.17151152499999966,
            "durationTicks": 118,
            "midi": 70,
            "name": "A#4",
            "ticks": 8640,
            "time": 12.494708,
            "velocity": 0.2440944881889764
          },
          {
            "duration": 0.08430227499999887,
            "durationTicks": 58,
            "midi": 87,
            "name": "D#6",
            "ticks": 8640,
            "time": 12.494708,
            "velocity": 0.6299212598425197
          },
          {
            "duration": 0.17151152499999966,
            "durationTicks": 118,
            "midi": 70,
            "name": "A#4",
            "ticks": 8760,
            "time": 12.669126499999999,
            "velocity": 0.14960629921259844
          },
          {
            "duration": 0.17151152499999966,
            "durationTicks": 118,
            "midi": 35,
            "name": "B1",
            "ticks": 8880,
            "time": 12.843544999999999,
            "velocity": 0.5511811023622047
          },
          {
            "duration": 0.17151152499999966,
            "durationTicks": 118,
            "midi": 36,
            "name": "C2",
            "ticks": 8880,
            "time": 12.843544999999999,
            "velocity": 0.7086614173228346
          },
          {
            "duration": 0.17151152499999966,
            "durationTicks": 118,
            "midi": 40,
            "name": "E2",
            "ticks": 8880,
            "time": 12.843544999999999,
            "velocity": 0.4330708661417323
          },
          {
            "duration": 0.17151152499999966,
            "durationTicks": 118,
            "midi": 47,
            "name": "B2",
            "ticks": 8880,
            "time": 12.843544999999999,
            "velocity": 0.5275590551181102
          },
          {
            "duration": 0.17151152499999966,
            "durationTicks": 118,
            "midi": 48,
            "name": "C3",
            "ticks": 8880,
            "time": 12.843544999999999,
            "velocity": 0.7165354330708661
          },
          {
            "duration": 0.17151152499999966,
            "durationTicks": 118,
            "midi": 70,
            "name": "A#4",
            "ticks": 8880,
            "time": 12.843544999999999,
            "velocity": 0.36220472440944884
          },
          {
            "duration": 0.08430227500000065,
            "durationTicks": 58,
            "midi": 87,
            "name": "D#6",
            "ticks": 8880,
            "time": 12.843544999999999,
            "velocity": 0.7480314960629921
          },
          {
            "duration": 0.17151152499999966,
            "durationTicks": 118,
            "midi": 70,
            "name": "A#4",
            "ticks": 9000,
            "time": 13.017963499999999,
            "velocity": 0.2047244094488189
          },
          {
            "duration": 0.17151152499999966,
            "durationTicks": 118,
            "midi": 28,
            "name": "E1",
            "ticks": 9120,
            "time": 13.192381999999998,
            "velocity": 0.47244094488188976
          },
          {
            "duration": 0.17151152499999966,
            "durationTicks": 118,
            "midi": 36,
            "name": "C2",
            "ticks": 9120,
            "time": 13.192381999999998,
            "velocity": 0.7952755905511811
          },
          {
            "duration": 0.17151152499999966,
            "durationTicks": 118,
            "midi": 37,
            "name": "C#2",
            "ticks": 9120,
            "time": 13.192381999999998,
            "velocity": 0.11023622047244094
          },
          {
            "duration": 0.17151152499999966,
            "durationTicks": 118,
            "midi": 43,
            "name": "G2",
            "ticks": 9120,
            "time": 13.192381999999998,
            "velocity": 0.2440944881889764
          },
          {
            "duration": 0.17151152499999966,
            "durationTicks": 118,
            "midi": 44,
            "name": "G#2",
            "ticks": 9120,
            "time": 13.192381999999998,
            "velocity": 0.4645669291338583
          },
          {
            "duration": 0.17151152499999966,
            "durationTicks": 118,
            "midi": 70,
            "name": "A#4",
            "ticks": 9120,
            "time": 13.192381999999998,
            "velocity": 0.28346456692913385
          },
          {
            "duration": 0.08430227500000065,
            "durationTicks": 58,
            "midi": 87,
            "name": "D#6",
            "ticks": 9120,
            "time": 13.192381999999998,
            "velocity": 0.12598425196850394
          },
          {
            "duration": 0.17151152499999966,
            "durationTicks": 118,
            "midi": 40,
            "name": "E2",
            "ticks": 9240,
            "time": 13.3668005,
            "velocity": 0.5118110236220472
          },
          {
            "duration": 0.17151152499999966,
            "durationTicks": 118,
            "midi": 45,
            "name": "A2",
            "ticks": 9240,
            "time": 13.3668005,
            "velocity": 0.7244094488188977
          },
          {
            "duration": 0.17151152499999966,
            "durationTicks": 118,
            "midi": 47,
            "name": "B2",
            "ticks": 9240,
            "time": 13.3668005,
            "velocity": 0.5669291338582677
          },
          {
            "duration": 0.17151152499999966,
            "durationTicks": 118,
            "midi": 70,
            "name": "A#4",
            "ticks": 9240,
            "time": 13.3668005,
            "velocity": 0.3779527559055118
          },
          {
            "duration": 0.08430227499999887,
            "durationTicks": 58,
            "midi": 87,
            "name": "D#6",
            "ticks": 9240,
            "time": 13.3668005,
            "velocity": 0.7007874015748031
          },
          {
            "duration": 0.17151152500000144,
            "durationTicks": 118,
            "midi": 36,
            "name": "C2",
            "ticks": 9360,
            "time": 13.541218999999998,
            "velocity": 0.6220472440944882
          },
          {
            "duration": 0.17151152500000144,
            "durationTicks": 118,
            "midi": 70,
            "name": "A#4",
            "ticks": 9360,
            "time": 13.541218999999998,
            "velocity": 0.2992125984251969
          },
          {
            "duration": 0.08430227500000065,
            "durationTicks": 58,
            "midi": 86,
            "name": "D6",
            "ticks": 9360,
            "time": 13.541218999999998,
            "velocity": 0.4330708661417323
          },
          {
            "duration": 0.17151152499999966,
            "durationTicks": 118,
            "midi": 36,
            "name": "C2",
            "ticks": 9480,
            "time": 13.7156375,
            "velocity": 0.4409448818897638
          },
          {
            "duration": 0.17151152499999966,
            "durationTicks": 118,
            "midi": 45,
            "name": "A2",
            "ticks": 9480,
            "time": 13.7156375,
            "velocity": 0.2047244094488189
          },
          {
            "duration": 0.17151152499999966,
            "durationTicks": 118,
            "midi": 70,
            "name": "A#4",
            "ticks": 9480,
            "time": 13.7156375,
            "velocity": 0.25984251968503935
          },
          {
            "duration": 0.17151152499999966,
            "durationTicks": 118,
            "midi": 35,
            "name": "B1",
            "ticks": 9600,
            "time": 13.890056,
            "velocity": 0.5511811023622047
          },
          {
            "duration": 0.17151152499999966,
            "durationTicks": 118,
            "midi": 36,
            "name": "C2",
            "ticks": 9600,
            "time": 13.890056,
            "velocity": 0.5905511811023622
          },
          {
            "duration": 0.17151152499999966,
            "durationTicks": 118,
            "midi": 44,
            "name": "G#2",
            "ticks": 9600,
            "time": 13.890056,
            "velocity": 0.5039370078740157
          },
          {
            "duration": 0.17151152499999966,
            "durationTicks": 118,
            "midi": 47,
            "name": "B2",
            "ticks": 9600,
            "time": 13.890056,
            "velocity": 0.7322834645669292
          },
          {
            "duration": 0.17151152499999966,
            "durationTicks": 118,
            "midi": 70,
            "name": "A#4",
            "ticks": 9600,
            "time": 13.890056,
            "velocity": 0.3779527559055118
          },
          {
            "duration": 0.08430227500000065,
            "durationTicks": 58,
            "midi": 87,
            "name": "D#6",
            "ticks": 9600,
            "time": 13.890056,
            "velocity": 0.6299212598425197
          },
          {
            "duration": 0.17151152499999966,
            "durationTicks": 118,
            "midi": 48,
            "name": "C3",
            "ticks": 9720,
            "time": 14.0644745,
            "velocity": 0.14960629921259844
          },
          {
            "duration": 0.17151152499999966,
            "durationTicks": 118,
            "midi": 70,
            "name": "A#4",
            "ticks": 9720,
            "time": 14.0644745,
            "velocity": 0.14173228346456693
          },
          {
            "duration": 0.17151152499999966,
            "durationTicks": 118,
            "midi": 36,
            "name": "C2",
            "ticks": 9840,
            "time": 14.238893,
            "velocity": 0.2677165354330709
          },
          {
            "duration": 0.17151152499999966,
            "durationTicks": 118,
            "midi": 48,
            "name": "C3",
            "ticks": 9840,
            "time": 14.238893,
            "velocity": 0.2125984251968504
          },
          {
            "duration": 0.17151152499999966,
            "durationTicks": 118,
            "midi": 70,
            "name": "A#4",
            "ticks": 9840,
            "time": 14.238893,
            "velocity": 0.25984251968503935
          },
          {
            "duration": 0.17151152499999966,
            "durationTicks": 118,
            "midi": 35,
            "name": "B1",
            "ticks": 9960,
            "time": 14.413311499999999,
            "velocity": 0.5511811023622047
          },
          {
            "duration": 0.17151152499999966,
            "durationTicks": 118,
            "midi": 36,
            "name": "C2",
            "ticks": 9960,
            "time": 14.413311499999999,
            "velocity": 0.5590551181102362
          },
          {
            "duration": 0.17151152499999966,
            "durationTicks": 118,
            "midi": 47,
            "name": "B2",
            "ticks": 9960,
            "time": 14.413311499999999,
            "velocity": 0.7007874015748031
          },
          {
            "duration": 0.17151152499999966,
            "durationTicks": 118,
            "midi": 70,
            "name": "A#4",
            "ticks": 9960,
            "time": 14.413311499999999,
            "velocity": 0.4251968503937008
          },
          {
            "duration": 0.08430227500000065,
            "durationTicks": 58,
            "midi": 87,
            "name": "D#6",
            "ticks": 9960,
            "time": 14.413311499999999,
            "velocity": 0.5196850393700787
          },
          {
            "duration": 0.17151152500000144,
            "durationTicks": 118,
            "midi": 28,
            "name": "E1",
            "ticks": 10080,
            "time": 14.587729999999999,
            "velocity": 0.47244094488188976
          },
          {
            "duration": 0.17151152500000144,
            "durationTicks": 118,
            "midi": 36,
            "name": "C2",
            "ticks": 10080,
            "time": 14.587729999999999,
            "velocity": 0.7795275590551181
          },
          {
            "duration": 0.17151152500000144,
            "durationTicks": 118,
            "midi": 44,
            "name": "G#2",
            "ticks": 10080,
            "time": 14.587729999999999,
            "velocity": 0.3858267716535433
          },
          {
            "duration": 0.17151152500000144,
            "durationTicks": 118,
            "midi": 70,
            "name": "A#4",
            "ticks": 10080,
            "time": 14.587729999999999,
            "velocity": 0.2992125984251969
          },
          {
            "duration": 0.08430227500000065,
            "durationTicks": 58,
            "midi": 86,
            "name": "D6",
            "ticks": 10080,
            "time": 14.587729999999999,
            "velocity": 0.4251968503937008
          },
          {
            "duration": 0.17151152499999966,
            "durationTicks": 118,
            "midi": 70,
            "name": "A#4",
            "ticks": 10200,
            "time": 14.762148499999999,
            "velocity": 0.23622047244094488
          },
          {
            "duration": 0.17151152499999966,
            "durationTicks": 118,
            "midi": 36,
            "name": "C2",
            "ticks": 10320,
            "time": 14.936567,
            "velocity": 0.6692913385826772
          },
          {
            "duration": 0.17151152499999966,
            "durationTicks": 118,
            "midi": 48,
            "name": "C3",
            "ticks": 10320,
            "time": 14.936567,
            "velocity": 0.2283464566929134
          },
          {
            "duration": 0.17151152499999966,
            "durationTicks": 118,
            "midi": 70,
            "name": "A#4",
            "ticks": 10320,
            "time": 14.936567,
            "velocity": 0.33070866141732286
          },
          {
            "duration": 0.08430227499999887,
            "durationTicks": 58,
            "midi": 87,
            "name": "D#6",
            "ticks": 10320,
            "time": 14.936567,
            "velocity": 0.4566929133858268
          },
          {
            "duration": 0.17151152500000144,
            "durationTicks": 118,
            "midi": 35,
            "name": "B1",
            "ticks": 10440,
            "time": 15.110985499999998,
            "velocity": 0.5511811023622047
          },
          {
            "duration": 0.17151152500000144,
            "durationTicks": 118,
            "midi": 36,
            "name": "C2",
            "ticks": 10440,
            "time": 15.110985499999998,
            "velocity": 0.3937007874015748
          },
          {
            "duration": 0.17151152500000144,
            "durationTicks": 118,
            "midi": 47,
            "name": "B2",
            "ticks": 10440,
            "time": 15.110985499999998,
            "velocity": 0.6141732283464567
          },
          {
            "duration": 0.17151152500000144,
            "durationTicks": 118,
            "midi": 70,
            "name": "A#4",
            "ticks": 10440,
            "time": 15.110985499999998,
            "velocity": 0.4094488188976378
          },
          {
            "duration": 0.17151152499999966,
            "durationTicks": 118,
            "midi": 36,
            "name": "C2",
            "ticks": 10560,
            "time": 15.285404,
            "velocity": 0.8188976377952756
          },
          {
            "duration": 0.17151152499999966,
            "durationTicks": 118,
            "midi": 44,
            "name": "G#2",
            "ticks": 10560,
            "time": 15.285404,
            "velocity": 0.4251968503937008
          },
          {
            "duration": 0.17151152499999966,
            "durationTicks": 118,
            "midi": 70,
            "name": "A#4",
            "ticks": 10560,
            "time": 15.285404,
            "velocity": 0.2440944881889764
          },
          {
            "duration": 0.08430227499999887,
            "durationTicks": 58,
            "midi": 87,
            "name": "D#6",
            "ticks": 10560,
            "time": 15.285404,
            "velocity": 0.6299212598425197
          },
          {
            "duration": 0.17151152500000144,
            "durationTicks": 118,
            "midi": 70,
            "name": "A#4",
            "ticks": 10680,
            "time": 15.459822499999998,
            "velocity": 0.14960629921259844
          },
          {
            "duration": 0.17151152499999966,
            "durationTicks": 118,
            "midi": 35,
            "name": "B1",
            "ticks": 10800,
            "time": 15.634241,
            "velocity": 0.5511811023622047
          },
          {
            "duration": 0.17151152499999966,
            "durationTicks": 118,
            "midi": 36,
            "name": "C2",
            "ticks": 10800,
            "time": 15.634241,
            "velocity": 0.7086614173228346
          },
          {
            "duration": 0.17151152499999966,
            "durationTicks": 118,
            "midi": 40,
            "name": "E2",
            "ticks": 10800,
            "time": 15.634241,
            "velocity": 0.4330708661417323
          },
          {
            "duration": 0.17151152499999966,
            "durationTicks": 118,
            "midi": 47,
            "name": "B2",
            "ticks": 10800,
            "time": 15.634241,
            "velocity": 0.5275590551181102
          },
          {
            "duration": 0.17151152499999966,
            "durationTicks": 118,
            "midi": 48,
            "name": "C3",
            "ticks": 10800,
            "time": 15.634241,
            "velocity": 0.7165354330708661
          },
          {
            "duration": 0.17151152499999966,
            "durationTicks": 118,
            "midi": 70,
            "name": "A#4",
            "ticks": 10800,
            "time": 15.634241,
            "velocity": 0.36220472440944884
          },
          {
            "duration": 0.08430227499999887,
            "durationTicks": 58,
            "midi": 87,
            "name": "D#6",
            "ticks": 10800,
            "time": 15.634241,
            "velocity": 0.8188976377952756
          },
          {
            "duration": 0.17151152499999966,
            "durationTicks": 118,
            "midi": 70,
            "name": "A#4",
            "ticks": 10920,
            "time": 15.8086595,
            "velocity": 0.2047244094488189
          },
          {
            "duration": 0.17151152499999966,
            "durationTicks": 118,
            "midi": 28,
            "name": "E1",
            "ticks": 11040,
            "time": 15.983077999999999,
            "velocity": 0.47244094488188976
          },
          {
            "duration": 0.17151152499999966,
            "durationTicks": 118,
            "midi": 36,
            "name": "C2",
            "ticks": 11040,
            "time": 15.983077999999999,
            "velocity": 0.7952755905511811
          },
          {
            "duration": 0.17151152499999966,
            "durationTicks": 118,
            "midi": 43,
            "name": "G2",
            "ticks": 11040,
            "time": 15.983077999999999,
            "velocity": 0.2440944881889764
          },
          {
            "duration": 0.17151152499999966,
            "durationTicks": 118,
            "midi": 44,
            "name": "G#2",
            "ticks": 11040,
            "time": 15.983077999999999,
            "velocity": 0.4409448818897638
          },
          {
            "duration": 0.17151152499999966,
            "durationTicks": 118,
            "midi": 70,
            "name": "A#4",
            "ticks": 11040,
            "time": 15.983077999999999,
            "velocity": 0.28346456692913385
          },
          {
            "duration": 0.08430227499999887,
            "durationTicks": 58,
            "midi": 87,
            "name": "D#6",
            "ticks": 11040,
            "time": 15.983077999999999,
            "velocity": 0.2992125984251969
          },
          {
            "duration": 0.17151152499999966,
            "durationTicks": 118,
            "midi": 40,
            "name": "E2",
            "ticks": 11160,
            "time": 16.1574965,
            "velocity": 0.5118110236220472
          },
          {
            "duration": 0.17151152499999966,
            "durationTicks": 118,
            "midi": 45,
            "name": "A2",
            "ticks": 11160,
            "time": 16.1574965,
            "velocity": 0.7244094488188977
          },
          {
            "duration": 0.17151152499999966,
            "durationTicks": 118,
            "midi": 47,
            "name": "B2",
            "ticks": 11160,
            "time": 16.1574965,
            "velocity": 0.5196850393700787
          },
          {
            "duration": 0.17151152499999966,
            "durationTicks": 118,
            "midi": 70,
            "name": "A#4",
            "ticks": 11160,
            "time": 16.1574965,
            "velocity": 0.3779527559055118
          },
          {
            "duration": 0.08430227499999887,
            "durationTicks": 58,
            "midi": 87,
            "name": "D#6",
            "ticks": 11160,
            "time": 16.1574965,
            "velocity": 0.7795275590551181
          },
          {
            "duration": 0.17151152499999966,
            "durationTicks": 118,
            "midi": 36,
            "name": "C2",
            "ticks": 11280,
            "time": 16.331915,
            "velocity": 0.6220472440944882
          },
          {
            "duration": 0.17151152499999966,
            "durationTicks": 118,
            "midi": 70,
            "name": "A#4",
            "ticks": 11280,
            "time": 16.331915,
            "velocity": 0.2992125984251969
          },
          {
            "duration": 0.08430227500000242,
            "durationTicks": 58,
            "midi": 86,
            "name": "D6",
            "ticks": 11280,
            "time": 16.331915,
            "velocity": 0.4330708661417323
          },
          {
            "duration": 0.17151152499999966,
            "durationTicks": 118,
            "midi": 36,
            "name": "C2",
            "ticks": 11400,
            "time": 16.5063335,
            "velocity": 0.4409448818897638
          },
          {
            "duration": 0.17151152499999966,
            "durationTicks": 118,
            "midi": 45,
            "name": "A2",
            "ticks": 11400,
            "time": 16.5063335,
            "velocity": 0.2047244094488189
          },
          {
            "duration": 0.17151152499999966,
            "durationTicks": 118,
            "midi": 70,
            "name": "A#4",
            "ticks": 11400,
            "time": 16.5063335,
            "velocity": 0.25984251968503935
          },
          {
            "duration": 0.16761359166666523,
            "durationTicks": 118,
            "midi": 35,
            "name": "B1",
            "ticks": 11520,
            "time": 16.680752,
            "velocity": 0.5511811023622047
          },
          {
            "duration": 0.16761359166666523,
            "durationTicks": 118,
            "midi": 36,
            "name": "C2",
            "ticks": 11520,
            "time": 16.680752,
            "velocity": 0.8188976377952756
          },
          {
            "duration": 0.16761359166666523,
            "durationTicks": 118,
            "midi": 44,
            "name": "G#2",
            "ticks": 11520,
            "time": 16.680752,
            "velocity": 0.5354330708661418
          },
          {
            "duration": 0.16761359166666523,
            "durationTicks": 118,
            "midi": 47,
            "name": "B2",
            "ticks": 11520,
            "time": 16.680752,
            "velocity": 0.5275590551181102
          },
          {
            "duration": 0.16761359166666523,
            "durationTicks": 118,
            "midi": 70,
            "name": "A#4",
            "ticks": 11520,
            "time": 16.680752,
            "velocity": 0.3779527559055118
          },
          {
            "duration": 0.08238634166666614,
            "durationTicks": 58,
            "midi": 87,
            "name": "D#6",
            "ticks": 11520,
            "time": 16.680752,
            "velocity": 0.6299212598425197
          },
          {
            "duration": 0.16761359166666523,
            "durationTicks": 118,
            "midi": 48,
            "name": "C3",
            "ticks": 11640,
            "time": 16.8512065,
            "velocity": 0.14960629921259844
          },
          {
            "duration": 0.16761359166666523,
            "durationTicks": 118,
            "midi": 70,
            "name": "A#4",
            "ticks": 11640,
            "time": 16.8512065,
            "velocity": 0.14173228346456693
          },
          {
            "duration": 0.16761359166666523,
            "durationTicks": 118,
            "midi": 36,
            "name": "C2",
            "ticks": 11760,
            "time": 17.021660999999998,
            "velocity": 0.2677165354330709
          },
          {
            "duration": 0.16761359166666523,
            "durationTicks": 118,
            "midi": 48,
            "name": "C3",
            "ticks": 11760,
            "time": 17.021660999999998,
            "velocity": 0.2125984251968504
          },
          {
            "duration": 0.16761359166666523,
            "durationTicks": 118,
            "midi": 70,
            "name": "A#4",
            "ticks": 11760,
            "time": 17.021660999999998,
            "velocity": 0.25984251968503935
          },
          {
            "duration": 0.16761359166666523,
            "durationTicks": 118,
            "midi": 35,
            "name": "B1",
            "ticks": 11880,
            "time": 17.1921155,
            "velocity": 0.5511811023622047
          },
          {
            "duration": 0.16761359166666523,
            "durationTicks": 118,
            "midi": 36,
            "name": "C2",
            "ticks": 11880,
            "time": 17.1921155,
            "velocity": 0.5590551181102362
          },
          {
            "duration": 0.16761359166666523,
            "durationTicks": 118,
            "midi": 47,
            "name": "B2",
            "ticks": 11880,
            "time": 17.1921155,
            "velocity": 0.7007874015748031
          },
          {
            "duration": 0.16761359166666523,
            "durationTicks": 118,
            "midi": 70,
            "name": "A#4",
            "ticks": 11880,
            "time": 17.1921155,
            "velocity": 0.4251968503937008
          },
          {
            "duration": 0.08238634166666614,
            "durationTicks": 58,
            "midi": 87,
            "name": "D#6",
            "ticks": 11880,
            "time": 17.1921155,
            "velocity": 0.5196850393700787
          },
          {
            "duration": 0.16761359166666523,
            "durationTicks": 118,
            "midi": 28,
            "name": "E1",
            "ticks": 12000,
            "time": 17.362569999999998,
            "velocity": 0.47244094488188976
          },
          {
            "duration": 0.16761359166666523,
            "durationTicks": 118,
            "midi": 36,
            "name": "C2",
            "ticks": 12000,
            "time": 17.362569999999998,
            "velocity": 0.8188976377952756
          },
          {
            "duration": 0.16761359166666523,
            "durationTicks": 118,
            "midi": 44,
            "name": "G#2",
            "ticks": 12000,
            "time": 17.362569999999998,
            "velocity": 0.30708661417322836
          },
          {
            "duration": 0.16761359166666523,
            "durationTicks": 118,
            "midi": 70,
            "name": "A#4",
            "ticks": 12000,
            "time": 17.362569999999998,
            "velocity": 0.2992125984251969
          },
          {
            "duration": 0.08238634166666614,
            "durationTicks": 58,
            "midi": 86,
            "name": "D6",
            "ticks": 12000,
            "time": 17.362569999999998,
            "velocity": 0.4251968503937008
          },
          {
            "duration": 0.16761359166666523,
            "durationTicks": 118,
            "midi": 45,
            "name": "A2",
            "ticks": 12120,
            "time": 17.5330245,
            "velocity": 0.25984251968503935
          },
          {
            "duration": 0.16761359166666523,
            "durationTicks": 118,
            "midi": 70,
            "name": "A#4",
            "ticks": 12120,
            "time": 17.5330245,
            "velocity": 0.23622047244094488
          },
          {
            "duration": 0.16761359166666523,
            "durationTicks": 118,
            "midi": 36,
            "name": "C2",
            "ticks": 12240,
            "time": 17.703478999999998,
            "velocity": 0.6692913385826772
          },
          {
            "duration": 0.16761359166666523,
            "durationTicks": 118,
            "midi": 48,
            "name": "C3",
            "ticks": 12240,
            "time": 17.703478999999998,
            "velocity": 0.2283464566929134
          },
          {
            "duration": 0.16761359166666523,
            "durationTicks": 118,
            "midi": 70,
            "name": "A#4",
            "ticks": 12240,
            "time": 17.703478999999998,
            "velocity": 0.33070866141732286
          },
          {
            "duration": 0.08238634166666614,
            "durationTicks": 58,
            "midi": 87,
            "name": "D#6",
            "ticks": 12240,
            "time": 17.703478999999998,
            "velocity": 0.4566929133858268
          },
          {
            "duration": 0.16761359166666523,
            "durationTicks": 118,
            "midi": 35,
            "name": "B1",
            "ticks": 12360,
            "time": 17.8739335,
            "velocity": 0.5511811023622047
          },
          {
            "duration": 0.16761359166666523,
            "durationTicks": 118,
            "midi": 36,
            "name": "C2",
            "ticks": 12360,
            "time": 17.8739335,
            "velocity": 0.3937007874015748
          },
          {
            "duration": 0.16761359166666523,
            "durationTicks": 118,
            "midi": 47,
            "name": "B2",
            "ticks": 12360,
            "time": 17.8739335,
            "velocity": 0.6141732283464567
          },
          {
            "duration": 0.16761359166666523,
            "durationTicks": 118,
            "midi": 70,
            "name": "A#4",
            "ticks": 12360,
            "time": 17.8739335,
            "velocity": 0.4094488188976378
          },
          {
            "duration": 0.16761359166666523,
            "durationTicks": 118,
            "midi": 36,
            "name": "C2",
            "ticks": 12480,
            "time": 18.044387999999998,
            "velocity": 0.8188976377952756
          },
          {
            "duration": 0.16761359166666523,
            "durationTicks": 118,
            "midi": 44,
            "name": "G#2",
            "ticks": 12480,
            "time": 18.044387999999998,
            "velocity": 0.3779527559055118
          },
          {
            "duration": 0.16761359166666523,
            "durationTicks": 118,
            "midi": 45,
            "name": "A2",
            "ticks": 12480,
            "time": 18.044387999999998,
            "velocity": 0.5118110236220472
          },
          {
            "duration": 0.16761359166666523,
            "durationTicks": 118,
            "midi": 70,
            "name": "A#4",
            "ticks": 12480,
            "time": 18.044387999999998,
            "velocity": 0.2440944881889764
          },
          {
            "duration": 0.08238634166666614,
            "durationTicks": 58,
            "midi": 87,
            "name": "D#6",
            "ticks": 12480,
            "time": 18.044387999999998,
            "velocity": 0.6299212598425197
          },
          {
            "duration": 0.16761359166666523,
            "durationTicks": 118,
            "midi": 70,
            "name": "A#4",
            "ticks": 12600,
            "time": 18.2148425,
            "velocity": 0.14960629921259844
          },
          {
            "duration": 0.16761359166666523,
            "durationTicks": 118,
            "midi": 35,
            "name": "B1",
            "ticks": 12720,
            "time": 18.385296999999998,
            "velocity": 0.5511811023622047
          },
          {
            "duration": 0.16761359166666523,
            "durationTicks": 118,
            "midi": 36,
            "name": "C2",
            "ticks": 12720,
            "time": 18.385296999999998,
            "velocity": 0.7086614173228346
          },
          {
            "duration": 0.16761359166666523,
            "durationTicks": 118,
            "midi": 40,
            "name": "E2",
            "ticks": 12720,
            "time": 18.385296999999998,
            "velocity": 0.4330708661417323
          },
          {
            "duration": 0.16761359166666523,
            "durationTicks": 118,
            "midi": 47,
            "name": "B2",
            "ticks": 12720,
            "time": 18.385296999999998,
            "velocity": 0.5275590551181102
          },
          {
            "duration": 0.16761359166666523,
            "durationTicks": 118,
            "midi": 48,
            "name": "C3",
            "ticks": 12720,
            "time": 18.385296999999998,
            "velocity": 0.7165354330708661
          },
          {
            "duration": 0.16761359166666523,
            "durationTicks": 118,
            "midi": 70,
            "name": "A#4",
            "ticks": 12720,
            "time": 18.385296999999998,
            "velocity": 0.36220472440944884
          },
          {
            "duration": 0.08238634166666614,
            "durationTicks": 58,
            "midi": 87,
            "name": "D#6",
            "ticks": 12720,
            "time": 18.385296999999998,
            "velocity": 0.7795275590551181
          },
          {
            "duration": 0.16761359166666523,
            "durationTicks": 118,
            "midi": 70,
            "name": "A#4",
            "ticks": 12840,
            "time": 18.5557515,
            "velocity": 0.2047244094488189
          },
          {
            "duration": 0.16761359166666523,
            "durationTicks": 118,
            "midi": 28,
            "name": "E1",
            "ticks": 12960,
            "time": 18.726205999999998,
            "velocity": 0.47244094488188976
          },
          {
            "duration": 0.16761359166666523,
            "durationTicks": 118,
            "midi": 36,
            "name": "C2",
            "ticks": 12960,
            "time": 18.726205999999998,
            "velocity": 0.7952755905511811
          },
          {
            "duration": 0.16761359166666523,
            "durationTicks": 118,
            "midi": 43,
            "name": "G2",
            "ticks": 12960,
            "time": 18.726205999999998,
            "velocity": 0.2440944881889764
          },
          {
            "duration": 0.16761359166666523,
            "durationTicks": 118,
            "midi": 44,
            "name": "G#2",
            "ticks": 12960,
            "time": 18.726205999999998,
            "velocity": 0.41732283464566927
          },
          {
            "duration": 0.16761359166666523,
            "durationTicks": 118,
            "midi": 70,
            "name": "A#4",
            "ticks": 12960,
            "time": 18.726205999999998,
            "velocity": 0.28346456692913385
          },
          {
            "duration": 0.08238634166666614,
            "durationTicks": 58,
            "midi": 87,
            "name": "D#6",
            "ticks": 12960,
            "time": 18.726205999999998,
            "velocity": 0.2677165354330709
          },
          {
            "duration": 0.16761359166666523,
            "durationTicks": 118,
            "midi": 40,
            "name": "E2",
            "ticks": 13080,
            "time": 18.8966605,
            "velocity": 0.5118110236220472
          },
          {
            "duration": 0.16761359166666523,
            "durationTicks": 118,
            "midi": 45,
            "name": "A2",
            "ticks": 13080,
            "time": 18.8966605,
            "velocity": 0.7244094488188977
          },
          {
            "duration": 0.16761359166666523,
            "durationTicks": 118,
            "midi": 47,
            "name": "B2",
            "ticks": 13080,
            "time": 18.8966605,
            "velocity": 0.5196850393700787
          },
          {
            "duration": 0.16761359166666523,
            "durationTicks": 118,
            "midi": 70,
            "name": "A#4",
            "ticks": 13080,
            "time": 18.8966605,
            "velocity": 0.3779527559055118
          },
          {
            "duration": 0.08238634166666614,
            "durationTicks": 58,
            "midi": 87,
            "name": "D#6",
            "ticks": 13080,
            "time": 18.8966605,
            "velocity": 0.7322834645669292
          },
          {
            "duration": 0.16761359166666878,
            "durationTicks": 118,
            "midi": 36,
            "name": "C2",
            "ticks": 13200,
            "time": 19.067114999999998,
            "velocity": 0.7086614173228346
          },
          {
            "duration": 0.16761359166666878,
            "durationTicks": 118,
            "midi": 70,
            "name": "A#4",
            "ticks": 13200,
            "time": 19.067114999999998,
            "velocity": 0.2992125984251969
          },
          {
            "duration": 0.08238634166666614,
            "durationTicks": 58,
            "midi": 86,
            "name": "D6",
            "ticks": 13200,
            "time": 19.067114999999998,
            "velocity": 0.4330708661417323
          },
          {
            "duration": 0.16761359166666523,
            "durationTicks": 118,
            "midi": 36,
            "name": "C2",
            "ticks": 13320,
            "time": 19.2375695,
            "velocity": 0.4409448818897638
          },
          {
            "duration": 0.16761359166666523,
            "durationTicks": 118,
            "midi": 45,
            "name": "A2",
            "ticks": 13320,
            "time": 19.2375695,
            "velocity": 0.2047244094488189
          },
          {
            "duration": 0.16761359166666523,
            "durationTicks": 118,
            "midi": 70,
            "name": "A#4",
            "ticks": 13320,
            "time": 19.2375695,
            "velocity": 0.25984251968503935
          },
          {
            "duration": 0.17151152499999966,
            "durationTicks": 118,
            "midi": 35,
            "name": "B1",
            "ticks": 13440,
            "time": 19.408023999999997,
            "velocity": 0.5511811023622047
          },
          {
            "duration": 0.17151152499999966,
            "durationTicks": 118,
            "midi": 36,
            "name": "C2",
            "ticks": 13440,
            "time": 19.408023999999997,
            "velocity": 0.5905511811023622
          },
          {
            "duration": 0.17151152499999966,
            "durationTicks": 118,
            "midi": 44,
            "name": "G#2",
            "ticks": 13440,
            "time": 19.408023999999997,
            "velocity": 0.5354330708661418
          },
          {
            "duration": 0.17151152499999966,
            "durationTicks": 118,
            "midi": 47,
            "name": "B2",
            "ticks": 13440,
            "time": 19.408023999999997,
            "velocity": 0.5275590551181102
          },
          {
            "duration": 0.17151152499999966,
            "durationTicks": 118,
            "midi": 70,
            "name": "A#4",
            "ticks": 13440,
            "time": 19.408023999999997,
            "velocity": 0.3779527559055118
          },
          {
            "duration": 0.08430227499999887,
            "durationTicks": 58,
            "midi": 87,
            "name": "D#6",
            "ticks": 13440,
            "time": 19.408023999999997,
            "velocity": 0.6299212598425197
          },
          {
            "duration": 0.17151152499999966,
            "durationTicks": 118,
            "midi": 48,
            "name": "C3",
            "ticks": 13560,
            "time": 19.5824425,
            "velocity": 0.14960629921259844
          },
          {
            "duration": 0.17151152499999966,
            "durationTicks": 118,
            "midi": 70,
            "name": "A#4",
            "ticks": 13560,
            "time": 19.5824425,
            "velocity": 0.14173228346456693
          },
          {
            "duration": 0.17151152499999966,
            "durationTicks": 118,
            "midi": 36,
            "name": "C2",
            "ticks": 13680,
            "time": 19.756860999999997,
            "velocity": 0.2677165354330709
          },
          {
            "duration": 0.17151152499999966,
            "durationTicks": 118,
            "midi": 48,
            "name": "C3",
            "ticks": 13680,
            "time": 19.756860999999997,
            "velocity": 0.2125984251968504
          },
          {
            "duration": 0.17151152499999966,
            "durationTicks": 118,
            "midi": 70,
            "name": "A#4",
            "ticks": 13680,
            "time": 19.756860999999997,
            "velocity": 0.25984251968503935
          },
          {
            "duration": 0.17151152499999966,
            "durationTicks": 118,
            "midi": 35,
            "name": "B1",
            "ticks": 13800,
            "time": 19.9312795,
            "velocity": 0.5511811023622047
          },
          {
            "duration": 0.17151152499999966,
            "durationTicks": 118,
            "midi": 36,
            "name": "C2",
            "ticks": 13800,
            "time": 19.9312795,
            "velocity": 0.5590551181102362
          },
          {
            "duration": 0.17151152499999966,
            "durationTicks": 118,
            "midi": 47,
            "name": "B2",
            "ticks": 13800,
            "time": 19.9312795,
            "velocity": 0.7007874015748031
          },
          {
            "duration": 0.17151152499999966,
            "durationTicks": 118,
            "midi": 70,
            "name": "A#4",
            "ticks": 13800,
            "time": 19.9312795,
            "velocity": 0.4251968503937008
          },
          {
            "duration": 0.08430227499999887,
            "durationTicks": 58,
            "midi": 87,
            "name": "D#6",
            "ticks": 13800,
            "time": 19.9312795,
            "velocity": 0.5196850393700787
          },
          {
            "duration": 0.17151152499999966,
            "durationTicks": 118,
            "midi": 28,
            "name": "E1",
            "ticks": 13920,
            "time": 20.105697999999997,
            "velocity": 0.47244094488188976
          },
          {
            "duration": 0.17151152499999966,
            "durationTicks": 118,
            "midi": 36,
            "name": "C2",
            "ticks": 13920,
            "time": 20.105697999999997,
            "velocity": 0.7795275590551181
          },
          {
            "duration": 0.17151152499999966,
            "durationTicks": 118,
            "midi": 44,
            "name": "G#2",
            "ticks": 13920,
            "time": 20.105697999999997,
            "velocity": 0.31496062992125984
          },
          {
            "duration": 0.17151152499999966,
            "durationTicks": 118,
            "midi": 70,
            "name": "A#4",
            "ticks": 13920,
            "time": 20.105697999999997,
            "velocity": 0.2992125984251969
          },
          {
            "duration": 0.08430227500000242,
            "durationTicks": 58,
            "midi": 86,
            "name": "D6",
            "ticks": 13920,
            "time": 20.105697999999997,
            "velocity": 0.4251968503937008
          },
          {
            "duration": 0.17151152499999966,
            "durationTicks": 118,
            "midi": 70,
            "name": "A#4",
            "ticks": 14040,
            "time": 20.2801165,
            "velocity": 0.23622047244094488
          },
          {
            "duration": 0.17151152499999966,
            "durationTicks": 118,
            "midi": 36,
            "name": "C2",
            "ticks": 14160,
            "time": 20.454534999999996,
            "velocity": 0.6692913385826772
          },
          {
            "duration": 0.17151152499999966,
            "durationTicks": 118,
            "midi": 48,
            "name": "C3",
            "ticks": 14160,
            "time": 20.454534999999996,
            "velocity": 0.2283464566929134
          },
          {
            "duration": 0.17151152499999966,
            "durationTicks": 118,
            "midi": 70,
            "name": "A#4",
            "ticks": 14160,
            "time": 20.454534999999996,
            "velocity": 0.33070866141732286
          },
          {
            "duration": 0.08430227500000242,
            "durationTicks": 58,
            "midi": 87,
            "name": "D#6",
            "ticks": 14160,
            "time": 20.454534999999996,
            "velocity": 0.4566929133858268
          },
          {
            "duration": 0.17151152499999966,
            "durationTicks": 118,
            "midi": 35,
            "name": "B1",
            "ticks": 14280,
            "time": 20.628953499999998,
            "velocity": 0.5511811023622047
          },
          {
            "duration": 0.17151152499999966,
            "durationTicks": 118,
            "midi": 36,
            "name": "C2",
            "ticks": 14280,
            "time": 20.628953499999998,
            "velocity": 0.3937007874015748
          },
          {
            "duration": 0.17151152499999966,
            "durationTicks": 118,
            "midi": 47,
            "name": "B2",
            "ticks": 14280,
            "time": 20.628953499999998,
            "velocity": 0.6141732283464567
          },
          {
            "duration": 0.17151152499999966,
            "durationTicks": 118,
            "midi": 70,
            "name": "A#4",
            "ticks": 14280,
            "time": 20.628953499999998,
            "velocity": 0.4094488188976378
          },
          {
            "duration": 0.17151152499999966,
            "durationTicks": 118,
            "midi": 36,
            "name": "C2",
            "ticks": 14400,
            "time": 20.803371999999996,
            "velocity": 0.8188976377952756
          },
          {
            "duration": 0.17151152499999966,
            "durationTicks": 118,
            "midi": 44,
            "name": "G#2",
            "ticks": 14400,
            "time": 20.803371999999996,
            "velocity": 0.3779527559055118
          },
          {
            "duration": 0.17151152499999966,
            "durationTicks": 118,
            "midi": 70,
            "name": "A#4",
            "ticks": 14400,
            "time": 20.803371999999996,
            "velocity": 0.2440944881889764
          },
          {
            "duration": 0.08430227500000242,
            "durationTicks": 58,
            "midi": 87,
            "name": "D#6",
            "ticks": 14400,
            "time": 20.803371999999996,
            "velocity": 0.6299212598425197
          },
          {
            "duration": 0.17151152499999966,
            "durationTicks": 118,
            "midi": 70,
            "name": "A#4",
            "ticks": 14520,
            "time": 20.977790499999998,
            "velocity": 0.14960629921259844
          },
          {
            "duration": 0.17151152499999966,
            "durationTicks": 118,
            "midi": 35,
            "name": "B1",
            "ticks": 14640,
            "time": 21.152209,
            "velocity": 0.5511811023622047
          },
          {
            "duration": 0.17151152499999966,
            "durationTicks": 118,
            "midi": 36,
            "name": "C2",
            "ticks": 14640,
            "time": 21.152209,
            "velocity": 0.7086614173228346
          },
          {
            "duration": 0.17151152499999966,
            "durationTicks": 118,
            "midi": 40,
            "name": "E2",
            "ticks": 14640,
            "time": 21.152209,
            "velocity": 0.4330708661417323
          },
          {
            "duration": 0.17151152499999966,
            "durationTicks": 118,
            "midi": 47,
            "name": "B2",
            "ticks": 14640,
            "time": 21.152209,
            "velocity": 0.5275590551181102
          },
          {
            "duration": 0.17151152499999966,
            "durationTicks": 118,
            "midi": 48,
            "name": "C3",
            "ticks": 14640,
            "time": 21.152209,
            "velocity": 0.7165354330708661
          },
          {
            "duration": 0.17151152499999966,
            "durationTicks": 118,
            "midi": 70,
            "name": "A#4",
            "ticks": 14640,
            "time": 21.152209,
            "velocity": 0.36220472440944884
          },
          {
            "duration": 0.08430227499999887,
            "durationTicks": 58,
            "midi": 87,
            "name": "D#6",
            "ticks": 14640,
            "time": 21.152209,
            "velocity": 0.7401574803149606
          },
          {
            "duration": 0.17151152499999966,
            "durationTicks": 118,
            "midi": 70,
            "name": "A#4",
            "ticks": 14760,
            "time": 21.326627499999997,
            "velocity": 0.2047244094488189
          },
          {
            "duration": 0.17151152499999966,
            "durationTicks": 118,
            "midi": 28,
            "name": "E1",
            "ticks": 14880,
            "time": 21.501046,
            "velocity": 0.47244094488188976
          },
          {
            "duration": 0.17151152499999966,
            "durationTicks": 118,
            "midi": 36,
            "name": "C2",
            "ticks": 14880,
            "time": 21.501046,
            "velocity": 0.7952755905511811
          },
          {
            "duration": 0.17151152499999966,
            "durationTicks": 118,
            "midi": 43,
            "name": "G2",
            "ticks": 14880,
            "time": 21.501046,
            "velocity": 0.2440944881889764
          },
          {
            "duration": 0.17151152499999966,
            "durationTicks": 118,
            "midi": 44,
            "name": "G#2",
            "ticks": 14880,
            "time": 21.501046,
            "velocity": 0.4645669291338583
          },
          {
            "duration": 0.17151152499999966,
            "durationTicks": 118,
            "midi": 70,
            "name": "A#4",
            "ticks": 14880,
            "time": 21.501046,
            "velocity": 0.28346456692913385
          },
          {
            "duration": 0.08430227499999887,
            "durationTicks": 58,
            "midi": 87,
            "name": "D#6",
            "ticks": 14880,
            "time": 21.501046,
            "velocity": 0.12598425196850394
          },
          {
            "duration": 0.17151152499999966,
            "durationTicks": 118,
            "midi": 40,
            "name": "E2",
            "ticks": 15000,
            "time": 21.675464499999997,
            "velocity": 0.5118110236220472
          },
          {
            "duration": 0.17151152499999966,
            "durationTicks": 118,
            "midi": 45,
            "name": "A2",
            "ticks": 15000,
            "time": 21.675464499999997,
            "velocity": 0.7244094488188977
          },
          {
            "duration": 0.17151152499999966,
            "durationTicks": 118,
            "midi": 47,
            "name": "B2",
            "ticks": 15000,
            "time": 21.675464499999997,
            "velocity": 0.5196850393700787
          },
          {
            "duration": 0.17151152499999966,
            "durationTicks": 118,
            "midi": 70,
            "name": "A#4",
            "ticks": 15000,
            "time": 21.675464499999997,
            "velocity": 0.3779527559055118
          },
          {
            "duration": 0.08430227499999887,
            "durationTicks": 58,
            "midi": 87,
            "name": "D#6",
            "ticks": 15000,
            "time": 21.675464499999997,
            "velocity": 0.7244094488188977
          },
          {
            "duration": 0.17151152499999966,
            "durationTicks": 118,
            "midi": 36,
            "name": "C2",
            "ticks": 15120,
            "time": 21.849883,
            "velocity": 0.6220472440944882
          },
          {
            "duration": 0.17151152499999966,
            "durationTicks": 118,
            "midi": 70,
            "name": "A#4",
            "ticks": 15120,
            "time": 21.849883,
            "velocity": 0.2992125984251969
          },
          {
            "duration": 0.08430227499999887,
            "durationTicks": 58,
            "midi": 86,
            "name": "D6",
            "ticks": 15120,
            "time": 21.849883,
            "velocity": 0.4330708661417323
          },
          {
            "duration": 0.17151152499999966,
            "durationTicks": 118,
            "midi": 36,
            "name": "C2",
            "ticks": 15240,
            "time": 22.024301499999996,
            "velocity": 0.4409448818897638
          },
          {
            "duration": 0.17151152499999966,
            "durationTicks": 118,
            "midi": 45,
            "name": "A2",
            "ticks": 15240,
            "time": 22.024301499999996,
            "velocity": 0.2047244094488189
          },
          {
            "duration": 0.17151152499999966,
            "durationTicks": 118,
            "midi": 70,
            "name": "A#4",
            "ticks": 15240,
            "time": 22.024301499999996,
            "velocity": 0.25984251968503935
          },
          {
            "duration": 0.17151152499999966,
            "durationTicks": 118,
            "midi": 35,
            "name": "B1",
            "ticks": 15360,
            "time": 22.198719999999998,
            "velocity": 0.5511811023622047
          },
          {
            "duration": 0.17151152499999966,
            "durationTicks": 118,
            "midi": 36,
            "name": "C2",
            "ticks": 15360,
            "time": 22.198719999999998,
            "velocity": 0.5905511811023622
          },
          {
            "duration": 0.17151152499999966,
            "durationTicks": 118,
            "midi": 44,
            "name": "G#2",
            "ticks": 15360,
            "time": 22.198719999999998,
            "velocity": 0.30708661417322836
          },
          {
            "duration": 0.17151152499999966,
            "durationTicks": 118,
            "midi": 47,
            "name": "B2",
            "ticks": 15360,
            "time": 22.198719999999998,
            "velocity": 0.5275590551181102
          },
          {
            "duration": 0.17151152499999966,
            "durationTicks": 118,
            "midi": 70,
            "name": "A#4",
            "ticks": 15360,
            "time": 22.198719999999998,
            "velocity": 0.3779527559055118
          },
          {
            "duration": 0.08430227499999887,
            "durationTicks": 58,
            "midi": 87,
            "name": "D#6",
            "ticks": 15360,
            "time": 22.198719999999998,
            "velocity": 0.6299212598425197
          },
          {
            "duration": 0.17151152500000322,
            "durationTicks": 118,
            "midi": 48,
            "name": "C3",
            "ticks": 15480,
            "time": 22.373138499999996,
            "velocity": 0.14960629921259844
          },
          {
            "duration": 0.17151152500000322,
            "durationTicks": 118,
            "midi": 70,
            "name": "A#4",
            "ticks": 15480,
            "time": 22.373138499999996,
            "velocity": 0.14173228346456693
          },
          {
            "duration": 0.17151152499999966,
            "durationTicks": 118,
            "midi": 36,
            "name": "C2",
            "ticks": 15600,
            "time": 22.547556999999998,
            "velocity": 0.2677165354330709
          },
          {
            "duration": 0.17151152499999966,
            "durationTicks": 118,
            "midi": 48,
            "name": "C3",
            "ticks": 15600,
            "time": 22.547556999999998,
            "velocity": 0.2125984251968504
          },
          {
            "duration": 0.17151152499999966,
            "durationTicks": 118,
            "midi": 70,
            "name": "A#4",
            "ticks": 15600,
            "time": 22.547556999999998,
            "velocity": 0.25984251968503935
          },
          {
            "duration": 0.17151152499999966,
            "durationTicks": 118,
            "midi": 35,
            "name": "B1",
            "ticks": 15720,
            "time": 22.7219755,
            "velocity": 0.5511811023622047
          },
          {
            "duration": 0.17151152499999966,
            "durationTicks": 118,
            "midi": 36,
            "name": "C2",
            "ticks": 15720,
            "time": 22.7219755,
            "velocity": 0.5590551181102362
          },
          {
            "duration": 0.17151152499999966,
            "durationTicks": 118,
            "midi": 47,
            "name": "B2",
            "ticks": 15720,
            "time": 22.7219755,
            "velocity": 0.7007874015748031
          },
          {
            "duration": 0.17151152499999966,
            "durationTicks": 118,
            "midi": 70,
            "name": "A#4",
            "ticks": 15720,
            "time": 22.7219755,
            "velocity": 0.4251968503937008
          },
          {
            "duration": 0.08430227499999887,
            "durationTicks": 58,
            "midi": 87,
            "name": "D#6",
            "ticks": 15720,
            "time": 22.7219755,
            "velocity": 0.5196850393700787
          },
          {
            "duration": 0.17151152499999966,
            "durationTicks": 118,
            "midi": 28,
            "name": "E1",
            "ticks": 15840,
            "time": 22.896393999999997,
            "velocity": 0.47244094488188976
          },
          {
            "duration": 0.17151152499999966,
            "durationTicks": 118,
            "midi": 36,
            "name": "C2",
            "ticks": 15840,
            "time": 22.896393999999997,
            "velocity": 0.7795275590551181
          },
          {
            "duration": 0.17151152499999966,
            "durationTicks": 118,
            "midi": 44,
            "name": "G#2",
            "ticks": 15840,
            "time": 22.896393999999997,
            "velocity": 0.3858267716535433
          },
          {
            "duration": 0.17151152499999966,
            "durationTicks": 118,
            "midi": 70,
            "name": "A#4",
            "ticks": 15840,
            "time": 22.896393999999997,
            "velocity": 0.2992125984251969
          },
          {
            "duration": 0.08430227500000242,
            "durationTicks": 58,
            "midi": 86,
            "name": "D6",
            "ticks": 15840,
            "time": 22.896393999999997,
            "velocity": 0.4251968503937008
          },
          {
            "duration": 0.17151152499999966,
            "durationTicks": 118,
            "midi": 70,
            "name": "A#4",
            "ticks": 15960,
            "time": 23.0708125,
            "velocity": 0.23622047244094488
          },
          {
            "duration": 0.17151152499999966,
            "durationTicks": 118,
            "midi": 36,
            "name": "C2",
            "ticks": 16080,
            "time": 23.245230999999997,
            "velocity": 0.6692913385826772
          },
          {
            "duration": 0.17151152499999966,
            "durationTicks": 118,
            "midi": 48,
            "name": "C3",
            "ticks": 16080,
            "time": 23.245230999999997,
            "velocity": 0.2283464566929134
          },
          {
            "duration": 0.17151152499999966,
            "durationTicks": 118,
            "midi": 70,
            "name": "A#4",
            "ticks": 16080,
            "time": 23.245230999999997,
            "velocity": 0.33070866141732286
          },
          {
            "duration": 0.08430227500000242,
            "durationTicks": 58,
            "midi": 87,
            "name": "D#6",
            "ticks": 16080,
            "time": 23.245230999999997,
            "velocity": 0.4566929133858268
          },
          {
            "duration": 0.17151152499999966,
            "durationTicks": 118,
            "midi": 35,
            "name": "B1",
            "ticks": 16200,
            "time": 23.4196495,
            "velocity": 0.5511811023622047
          },
          {
            "duration": 0.17151152499999966,
            "durationTicks": 118,
            "midi": 36,
            "name": "C2",
            "ticks": 16200,
            "time": 23.4196495,
            "velocity": 0.3937007874015748
          },
          {
            "duration": 0.17151152499999966,
            "durationTicks": 118,
            "midi": 47,
            "name": "B2",
            "ticks": 16200,
            "time": 23.4196495,
            "velocity": 0.6141732283464567
          },
          {
            "duration": 0.17151152499999966,
            "durationTicks": 118,
            "midi": 70,
            "name": "A#4",
            "ticks": 16200,
            "time": 23.4196495,
            "velocity": 0.4094488188976378
          },
          {
            "duration": 0.17151152500000322,
            "durationTicks": 118,
            "midi": 36,
            "name": "C2",
            "ticks": 16320,
            "time": 23.594067999999996,
            "velocity": 0.8188976377952756
          },
          {
            "duration": 0.17151152500000322,
            "durationTicks": 118,
            "midi": 44,
            "name": "G#2",
            "ticks": 16320,
            "time": 23.594067999999996,
            "velocity": 0.4251968503937008
          },
          {
            "duration": 0.17151152500000322,
            "durationTicks": 118,
            "midi": 70,
            "name": "A#4",
            "ticks": 16320,
            "time": 23.594067999999996,
            "velocity": 0.2440944881889764
          },
          {
            "duration": 0.08430227500000242,
            "durationTicks": 58,
            "midi": 87,
            "name": "D#6",
            "ticks": 16320,
            "time": 23.594067999999996,
            "velocity": 0.6299212598425197
          },
          {
            "duration": 0.17151152499999966,
            "durationTicks": 118,
            "midi": 70,
            "name": "A#4",
            "ticks": 16440,
            "time": 23.768486499999998,
            "velocity": 0.14960629921259844
          },
          {
            "duration": 0.17151152499999966,
            "durationTicks": 118,
            "midi": 35,
            "name": "B1",
            "ticks": 16560,
            "time": 23.942904999999996,
            "velocity": 0.5511811023622047
          },
          {
            "duration": 0.17151152499999966,
            "durationTicks": 118,
            "midi": 36,
            "name": "C2",
            "ticks": 16560,
            "time": 23.942904999999996,
            "velocity": 0.7086614173228346
          },
          {
            "duration": 0.17151152499999966,
            "durationTicks": 118,
            "midi": 40,
            "name": "E2",
            "ticks": 16560,
            "time": 23.942904999999996,
            "velocity": 0.4330708661417323
          },
          {
            "duration": 0.17151152499999966,
            "durationTicks": 118,
            "midi": 47,
            "name": "B2",
            "ticks": 16560,
            "time": 23.942904999999996,
            "velocity": 0.5275590551181102
          },
          {
            "duration": 0.17151152499999966,
            "durationTicks": 118,
            "midi": 48,
            "name": "C3",
            "ticks": 16560,
            "time": 23.942904999999996,
            "velocity": 0.7165354330708661
          },
          {
            "duration": 0.17151152499999966,
            "durationTicks": 118,
            "midi": 70,
            "name": "A#4",
            "ticks": 16560,
            "time": 23.942904999999996,
            "velocity": 0.36220472440944884
          },
          {
            "duration": 0.08430227500000242,
            "durationTicks": 58,
            "midi": 87,
            "name": "D#6",
            "ticks": 16560,
            "time": 23.942904999999996,
            "velocity": 0.7480314960629921
          },
          {
            "duration": 0.17151152499999966,
            "durationTicks": 118,
            "midi": 70,
            "name": "A#4",
            "ticks": 16680,
            "time": 24.117323499999998,
            "velocity": 0.2047244094488189
          },
          {
            "duration": 0.17151152499999966,
            "durationTicks": 118,
            "midi": 28,
            "name": "E1",
            "ticks": 16800,
            "time": 24.291742,
            "velocity": 0.47244094488188976
          },
          {
            "duration": 0.17151152499999966,
            "durationTicks": 118,
            "midi": 36,
            "name": "C2",
            "ticks": 16800,
            "time": 24.291742,
            "velocity": 0.7952755905511811
          },
          {
            "duration": 0.17151152499999966,
            "durationTicks": 118,
            "midi": 43,
            "name": "G2",
            "ticks": 16800,
            "time": 24.291742,
            "velocity": 0.2440944881889764
          },
          {
            "duration": 0.17151152499999966,
            "durationTicks": 118,
            "midi": 44,
            "name": "G#2",
            "ticks": 16800,
            "time": 24.291742,
            "velocity": 0.4645669291338583
          },
          {
            "duration": 0.17151152499999966,
            "durationTicks": 118,
            "midi": 70,
            "name": "A#4",
            "ticks": 16800,
            "time": 24.291742,
            "velocity": 0.28346456692913385
          },
          {
            "duration": 0.08430227499999887,
            "durationTicks": 58,
            "midi": 87,
            "name": "D#6",
            "ticks": 16800,
            "time": 24.291742,
            "velocity": 0.12598425196850394
          },
          {
            "duration": 0.17151152499999966,
            "durationTicks": 118,
            "midi": 40,
            "name": "E2",
            "ticks": 16920,
            "time": 24.466160499999997,
            "velocity": 0.5118110236220472
          },
          {
            "duration": 0.17151152499999966,
            "durationTicks": 118,
            "midi": 45,
            "name": "A2",
            "ticks": 16920,
            "time": 24.466160499999997,
            "velocity": 0.7244094488188977
          },
          {
            "duration": 0.17151152499999966,
            "durationTicks": 118,
            "midi": 47,
            "name": "B2",
            "ticks": 16920,
            "time": 24.466160499999997,
            "velocity": 0.5196850393700787
          },
          {
            "duration": 0.17151152499999966,
            "durationTicks": 118,
            "midi": 70,
            "name": "A#4",
            "ticks": 16920,
            "time": 24.466160499999997,
            "velocity": 0.3779527559055118
          },
          {
            "duration": 0.08430227500000242,
            "durationTicks": 58,
            "midi": 87,
            "name": "D#6",
            "ticks": 16920,
            "time": 24.466160499999997,
            "velocity": 0.7007874015748031
          },
          {
            "duration": 0.17151152499999966,
            "durationTicks": 118,
            "midi": 36,
            "name": "C2",
            "ticks": 17040,
            "time": 24.640579,
            "velocity": 0.6220472440944882
          },
          {
            "duration": 0.17151152499999966,
            "durationTicks": 118,
            "midi": 45,
            "name": "A2",
            "ticks": 17040,
            "time": 24.640579,
            "velocity": 0.3700787401574803
          },
          {
            "duration": 0.17151152499999966,
            "durationTicks": 118,
            "midi": 70,
            "name": "A#4",
            "ticks": 17040,
            "time": 24.640579,
            "velocity": 0.2992125984251969
          },
          {
            "duration": 0.08430227499999887,
            "durationTicks": 58,
            "midi": 86,
            "name": "D6",
            "ticks": 17040,
            "time": 24.640579,
            "velocity": 0.4330708661417323
          },
          {
            "duration": 0.17151152499999966,
            "durationTicks": 118,
            "midi": 36,
            "name": "C2",
            "ticks": 17160,
            "time": 24.814997499999997,
            "velocity": 0.4409448818897638
          },
          {
            "duration": 0.17151152499999966,
            "durationTicks": 118,
            "midi": 45,
            "name": "A2",
            "ticks": 17160,
            "time": 24.814997499999997,
            "velocity": 0.3937007874015748
          },
          {
            "duration": 0.17151152499999966,
            "durationTicks": 118,
            "midi": 70,
            "name": "A#4",
            "ticks": 17160,
            "time": 24.814997499999997,
            "velocity": 0.25984251968503935
          },
          {
            "duration": 0.17151152499999966,
            "durationTicks": 118,
            "midi": 35,
            "name": "B1",
            "ticks": 17280,
            "time": 24.989416,
            "velocity": 0.5511811023622047
          },
          {
            "duration": 0.17151152499999966,
            "durationTicks": 118,
            "midi": 36,
            "name": "C2",
            "ticks": 17280,
            "time": 24.989416,
            "velocity": 0.5905511811023622
          },
          {
            "duration": 0.17151152499999966,
            "durationTicks": 118,
            "midi": 44,
            "name": "G#2",
            "ticks": 17280,
            "time": 24.989416,
            "velocity": 0.5039370078740157
          },
          {
            "duration": 0.17151152499999966,
            "durationTicks": 118,
            "midi": 47,
            "name": "B2",
            "ticks": 17280,
            "time": 24.989416,
            "velocity": 0.5275590551181102
          },
          {
            "duration": 0.17151152499999966,
            "durationTicks": 118,
            "midi": 55,
            "name": "G3",
            "ticks": 17280,
            "time": 24.989416,
            "velocity": 0.7086614173228346
          },
          {
            "duration": 0.17151152499999966,
            "durationTicks": 118,
            "midi": 70,
            "name": "A#4",
            "ticks": 17280,
            "time": 24.989416,
            "velocity": 0.3779527559055118
          },
          {
            "duration": 0.08430227499999887,
            "durationTicks": 58,
            "midi": 87,
            "name": "D#6",
            "ticks": 17280,
            "time": 24.989416,
            "velocity": 0.6299212598425197
          },
          {
            "duration": 0.17151152500000322,
            "durationTicks": 118,
            "midi": 48,
            "name": "C3",
            "ticks": 17400,
            "time": 25.163834499999997,
            "velocity": 0.14960629921259844
          },
          {
            "duration": 0.17151152500000322,
            "durationTicks": 118,
            "midi": 70,
            "name": "A#4",
            "ticks": 17400,
            "time": 25.163834499999997,
            "velocity": 0.14173228346456693
          },
          {
            "duration": 0.17151152499999966,
            "durationTicks": 118,
            "midi": 36,
            "name": "C2",
            "ticks": 17520,
            "time": 25.338252999999998,
            "velocity": 0.2677165354330709
          },
          {
            "duration": 0.17151152499999966,
            "durationTicks": 118,
            "midi": 48,
            "name": "C3",
            "ticks": 17520,
            "time": 25.338252999999998,
            "velocity": 0.2125984251968504
          },
          {
            "duration": 0.17151152499999966,
            "durationTicks": 118,
            "midi": 70,
            "name": "A#4",
            "ticks": 17520,
            "time": 25.338252999999998,
            "velocity": 0.25984251968503935
          },
          {
            "duration": 0.17151152499999966,
            "durationTicks": 118,
            "midi": 35,
            "name": "B1",
            "ticks": 17640,
            "time": 25.512671499999996,
            "velocity": 0.5511811023622047
          },
          {
            "duration": 0.17151152499999966,
            "durationTicks": 118,
            "midi": 36,
            "name": "C2",
            "ticks": 17640,
            "time": 25.512671499999996,
            "velocity": 0.5590551181102362
          },
          {
            "duration": 0.17151152499999966,
            "durationTicks": 118,
            "midi": 47,
            "name": "B2",
            "ticks": 17640,
            "time": 25.512671499999996,
            "velocity": 0.7007874015748031
          },
          {
            "duration": 0.17151152499999966,
            "durationTicks": 118,
            "midi": 70,
            "name": "A#4",
            "ticks": 17640,
            "time": 25.512671499999996,
            "velocity": 0.4251968503937008
          },
          {
            "duration": 0.08430227500000242,
            "durationTicks": 58,
            "midi": 87,
            "name": "D#6",
            "ticks": 17640,
            "time": 25.512671499999996,
            "velocity": 0.5196850393700787
          },
          {
            "duration": 0.17151152499999966,
            "durationTicks": 118,
            "midi": 28,
            "name": "E1",
            "ticks": 17760,
            "time": 25.687089999999998,
            "velocity": 0.47244094488188976
          },
          {
            "duration": 0.17151152499999966,
            "durationTicks": 118,
            "midi": 36,
            "name": "C2",
            "ticks": 17760,
            "time": 25.687089999999998,
            "velocity": 0.7795275590551181
          },
          {
            "duration": 0.17151152499999966,
            "durationTicks": 118,
            "midi": 44,
            "name": "G#2",
            "ticks": 17760,
            "time": 25.687089999999998,
            "velocity": 0.3858267716535433
          },
          {
            "duration": 0.17151152499999966,
            "durationTicks": 118,
            "midi": 70,
            "name": "A#4",
            "ticks": 17760,
            "time": 25.687089999999998,
            "velocity": 0.2992125984251969
          },
          {
            "duration": 0.08430227499999887,
            "durationTicks": 58,
            "midi": 86,
            "name": "D6",
            "ticks": 17760,
            "time": 25.687089999999998,
            "velocity": 0.4251968503937008
          },
          {
            "duration": 0.17151152499999966,
            "durationTicks": 118,
            "midi": 70,
            "name": "A#4",
            "ticks": 17880,
            "time": 25.8615085,
            "velocity": 0.23622047244094488
          },
          {
            "duration": 0.17151152499999966,
            "durationTicks": 118,
            "midi": 36,
            "name": "C2",
            "ticks": 18000,
            "time": 26.035926999999997,
            "velocity": 0.6692913385826772
          },
          {
            "duration": 0.17151152499999966,
            "durationTicks": 118,
            "midi": 48,
            "name": "C3",
            "ticks": 18000,
            "time": 26.035926999999997,
            "velocity": 0.2283464566929134
          },
          {
            "duration": 0.17151152499999966,
            "durationTicks": 118,
            "midi": 70,
            "name": "A#4",
            "ticks": 18000,
            "time": 26.035926999999997,
            "velocity": 0.33070866141732286
          },
          {
            "duration": 0.08430227500000242,
            "durationTicks": 58,
            "midi": 87,
            "name": "D#6",
            "ticks": 18000,
            "time": 26.035926999999997,
            "velocity": 0.4566929133858268
          },
          {
            "duration": 0.17151152499999966,
            "durationTicks": 118,
            "midi": 35,
            "name": "B1",
            "ticks": 18120,
            "time": 26.2103455,
            "velocity": 0.5511811023622047
          },
          {
            "duration": 0.17151152499999966,
            "durationTicks": 118,
            "midi": 36,
            "name": "C2",
            "ticks": 18120,
            "time": 26.2103455,
            "velocity": 0.3937007874015748
          },
          {
            "duration": 0.17151152499999966,
            "durationTicks": 118,
            "midi": 47,
            "name": "B2",
            "ticks": 18120,
            "time": 26.2103455,
            "velocity": 0.6141732283464567
          },
          {
            "duration": 0.17151152499999966,
            "durationTicks": 118,
            "midi": 70,
            "name": "A#4",
            "ticks": 18120,
            "time": 26.2103455,
            "velocity": 0.4094488188976378
          },
          {
            "duration": 0.17151152499999966,
            "durationTicks": 118,
            "midi": 36,
            "name": "C2",
            "ticks": 18240,
            "time": 26.384763999999997,
            "velocity": 0.8188976377952756
          },
          {
            "duration": 0.17151152499999966,
            "durationTicks": 118,
            "midi": 44,
            "name": "G#2",
            "ticks": 18240,
            "time": 26.384763999999997,
            "velocity": 0.4251968503937008
          },
          {
            "duration": 0.17151152499999966,
            "durationTicks": 118,
            "midi": 70,
            "name": "A#4",
            "ticks": 18240,
            "time": 26.384763999999997,
            "velocity": 0.2440944881889764
          },
          {
            "duration": 0.08430227499999887,
            "durationTicks": 58,
            "midi": 87,
            "name": "D#6",
            "ticks": 18240,
            "time": 26.384763999999997,
            "velocity": 0.6299212598425197
          },
          {
            "duration": 0.17151152499999966,
            "durationTicks": 118,
            "midi": 70,
            "name": "A#4",
            "ticks": 18360,
            "time": 26.5591825,
            "velocity": 0.14960629921259844
          },
          {
            "duration": 0.17151152500000322,
            "durationTicks": 118,
            "midi": 35,
            "name": "B1",
            "ticks": 18480,
            "time": 26.733600999999997,
            "velocity": 0.5511811023622047
          },
          {
            "duration": 0.17151152500000322,
            "durationTicks": 118,
            "midi": 36,
            "name": "C2",
            "ticks": 18480,
            "time": 26.733600999999997,
            "velocity": 0.7086614173228346
          },
          {
            "duration": 0.17151152500000322,
            "durationTicks": 118,
            "midi": 40,
            "name": "E2",
            "ticks": 18480,
            "time": 26.733600999999997,
            "velocity": 0.4330708661417323
          },
          {
            "duration": 0.17151152500000322,
            "durationTicks": 118,
            "midi": 47,
            "name": "B2",
            "ticks": 18480,
            "time": 26.733600999999997,
            "velocity": 0.5275590551181102
          },
          {
            "duration": 0.17151152500000322,
            "durationTicks": 118,
            "midi": 48,
            "name": "C3",
            "ticks": 18480,
            "time": 26.733600999999997,
            "velocity": 0.7165354330708661
          },
          {
            "duration": 0.17151152500000322,
            "durationTicks": 118,
            "midi": 70,
            "name": "A#4",
            "ticks": 18480,
            "time": 26.733600999999997,
            "velocity": 0.36220472440944884
          },
          {
            "duration": 0.08430227500000242,
            "durationTicks": 58,
            "midi": 87,
            "name": "D#6",
            "ticks": 18480,
            "time": 26.733600999999997,
            "velocity": 0.8188976377952756
          },
          {
            "duration": 0.17151152499999966,
            "durationTicks": 118,
            "midi": 70,
            "name": "A#4",
            "ticks": 18600,
            "time": 26.908019499999998,
            "velocity": 0.2047244094488189
          },
          {
            "duration": 0.17151152499999966,
            "durationTicks": 118,
            "midi": 28,
            "name": "E1",
            "ticks": 18720,
            "time": 27.082437999999996,
            "velocity": 0.47244094488188976
          },
          {
            "duration": 0.17151152499999966,
            "durationTicks": 118,
            "midi": 36,
            "name": "C2",
            "ticks": 18720,
            "time": 27.082437999999996,
            "velocity": 0.7952755905511811
          },
          {
            "duration": 0.17151152499999966,
            "durationTicks": 118,
            "midi": 43,
            "name": "G2",
            "ticks": 18720,
            "time": 27.082437999999996,
            "velocity": 0.2440944881889764
          },
          {
            "duration": 0.17151152499999966,
            "durationTicks": 118,
            "midi": 44,
            "name": "G#2",
            "ticks": 18720,
            "time": 27.082437999999996,
            "velocity": 0.4409448818897638
          },
          {
            "duration": 0.17151152499999966,
            "durationTicks": 118,
            "midi": 70,
            "name": "A#4",
            "ticks": 18720,
            "time": 27.082437999999996,
            "velocity": 0.28346456692913385
          },
          {
            "duration": 0.08430227500000242,
            "durationTicks": 58,
            "midi": 87,
            "name": "D#6",
            "ticks": 18720,
            "time": 27.082437999999996,
            "velocity": 0.2992125984251969
          },
          {
            "duration": 0.17151152499999966,
            "durationTicks": 118,
            "midi": 40,
            "name": "E2",
            "ticks": 18840,
            "time": 27.256856499999998,
            "velocity": 0.5118110236220472
          },
          {
            "duration": 0.17151152499999966,
            "durationTicks": 118,
            "midi": 45,
            "name": "A2",
            "ticks": 18840,
            "time": 27.256856499999998,
            "velocity": 0.7244094488188977
          },
          {
            "duration": 0.17151152499999966,
            "durationTicks": 118,
            "midi": 47,
            "name": "B2",
            "ticks": 18840,
            "time": 27.256856499999998,
            "velocity": 0.5196850393700787
          },
          {
            "duration": 0.17151152499999966,
            "durationTicks": 118,
            "midi": 70,
            "name": "A#4",
            "ticks": 18840,
            "time": 27.256856499999998,
            "velocity": 0.3779527559055118
          },
          {
            "duration": 0.08430227499999887,
            "durationTicks": 58,
            "midi": 87,
            "name": "D#6",
            "ticks": 18840,
            "time": 27.256856499999998,
            "velocity": 0.7795275590551181
          },
          {
            "duration": 0.17151152499999966,
            "durationTicks": 118,
            "midi": 36,
            "name": "C2",
            "ticks": 18960,
            "time": 27.431275,
            "velocity": 0.6220472440944882
          },
          {
            "duration": 0.17151152499999966,
            "durationTicks": 118,
            "midi": 70,
            "name": "A#4",
            "ticks": 18960,
            "time": 27.431275,
            "velocity": 0.2992125984251969
          },
          {
            "duration": 0.08430227499999887,
            "durationTicks": 58,
            "midi": 86,
            "name": "D6",
            "ticks": 18960,
            "time": 27.431275,
            "velocity": 0.4330708661417323
          },
          {
            "duration": 0.17151152499999966,
            "durationTicks": 118,
            "midi": 36,
            "name": "C2",
            "ticks": 19080,
            "time": 27.605693499999997,
            "velocity": 0.4409448818897638
          },
          {
            "duration": 0.17151152499999966,
            "durationTicks": 118,
            "midi": 45,
            "name": "A2",
            "ticks": 19080,
            "time": 27.605693499999997,
            "velocity": 0.2047244094488189
          },
          {
            "duration": 0.17151152499999966,
            "durationTicks": 118,
            "midi": 70,
            "name": "A#4",
            "ticks": 19080,
            "time": 27.605693499999997,
            "velocity": 0.25984251968503935
          },
          {
            "duration": 0.16761359166666523,
            "durationTicks": 118,
            "midi": 35,
            "name": "B1",
            "ticks": 19200,
            "time": 27.780111999999995,
            "velocity": 0.5511811023622047
          },
          {
            "duration": 0.16761359166666523,
            "durationTicks": 118,
            "midi": 36,
            "name": "C2",
            "ticks": 19200,
            "time": 27.780111999999995,
            "velocity": 0.8188976377952756
          },
          {
            "duration": 0.16761359166666523,
            "durationTicks": 118,
            "midi": 44,
            "name": "G#2",
            "ticks": 19200,
            "time": 27.780111999999995,
            "velocity": 0.5354330708661418
          },
          {
            "duration": 0.16761359166666523,
            "durationTicks": 118,
            "midi": 47,
            "name": "B2",
            "ticks": 19200,
            "time": 27.780111999999995,
            "velocity": 0.5275590551181102
          },
          {
            "duration": 0.16761359166666523,
            "durationTicks": 118,
            "midi": 70,
            "name": "A#4",
            "ticks": 19200,
            "time": 27.780111999999995,
            "velocity": 0.3779527559055118
          },
          {
            "duration": 0.08238634166666614,
            "durationTicks": 58,
            "midi": 87,
            "name": "D#6",
            "ticks": 19200,
            "time": 27.780111999999995,
            "velocity": 0.6299212598425197
          },
          {
            "duration": 0.16761359166666523,
            "durationTicks": 118,
            "midi": 48,
            "name": "C3",
            "ticks": 19320,
            "time": 27.950566499999997,
            "velocity": 0.14960629921259844
          },
          {
            "duration": 0.16761359166666523,
            "durationTicks": 118,
            "midi": 70,
            "name": "A#4",
            "ticks": 19320,
            "time": 27.950566499999997,
            "velocity": 0.14173228346456693
          },
          {
            "duration": 0.16761359166666523,
            "durationTicks": 118,
            "midi": 36,
            "name": "C2",
            "ticks": 19440,
            "time": 28.121020999999995,
            "velocity": 0.2677165354330709
          },
          {
            "duration": 0.16761359166666523,
            "durationTicks": 118,
            "midi": 48,
            "name": "C3",
            "ticks": 19440,
            "time": 28.121020999999995,
            "velocity": 0.2125984251968504
          },
          {
            "duration": 0.16761359166666523,
            "durationTicks": 118,
            "midi": 70,
            "name": "A#4",
            "ticks": 19440,
            "time": 28.121020999999995,
            "velocity": 0.25984251968503935
          },
          {
            "duration": 0.16761359166666523,
            "durationTicks": 118,
            "midi": 35,
            "name": "B1",
            "ticks": 19560,
            "time": 28.291475499999997,
            "velocity": 0.5511811023622047
          },
          {
            "duration": 0.16761359166666523,
            "durationTicks": 118,
            "midi": 36,
            "name": "C2",
            "ticks": 19560,
            "time": 28.291475499999997,
            "velocity": 0.5590551181102362
          },
          {
            "duration": 0.16761359166666523,
            "durationTicks": 118,
            "midi": 47,
            "name": "B2",
            "ticks": 19560,
            "time": 28.291475499999997,
            "velocity": 0.7007874015748031
          },
          {
            "duration": 0.16761359166666523,
            "durationTicks": 118,
            "midi": 70,
            "name": "A#4",
            "ticks": 19560,
            "time": 28.291475499999997,
            "velocity": 0.4251968503937008
          },
          {
            "duration": 0.08238634166666614,
            "durationTicks": 58,
            "midi": 87,
            "name": "D#6",
            "ticks": 19560,
            "time": 28.291475499999997,
            "velocity": 0.5196850393700787
          },
          {
            "duration": 0.16761359166666523,
            "durationTicks": 118,
            "midi": 28,
            "name": "E1",
            "ticks": 19680,
            "time": 28.461929999999995,
            "velocity": 0.47244094488188976
          },
          {
            "duration": 0.16761359166666523,
            "durationTicks": 118,
            "midi": 36,
            "name": "C2",
            "ticks": 19680,
            "time": 28.461929999999995,
            "velocity": 0.8188976377952756
          },
          {
            "duration": 0.16761359166666523,
            "durationTicks": 118,
            "midi": 44,
            "name": "G#2",
            "ticks": 19680,
            "time": 28.461929999999995,
            "velocity": 0.30708661417322836
          },
          {
            "duration": 0.16761359166666523,
            "durationTicks": 118,
            "midi": 70,
            "name": "A#4",
            "ticks": 19680,
            "time": 28.461929999999995,
            "velocity": 0.2992125984251969
          },
          {
            "duration": 0.08238634166666614,
            "durationTicks": 58,
            "midi": 86,
            "name": "D6",
            "ticks": 19680,
            "time": 28.461929999999995,
            "velocity": 0.4251968503937008
          },
          {
            "duration": 0.16761359166666523,
            "durationTicks": 118,
            "midi": 45,
            "name": "A2",
            "ticks": 19800,
            "time": 28.632384499999997,
            "velocity": 0.25984251968503935
          },
          {
            "duration": 0.16761359166666523,
            "durationTicks": 118,
            "midi": 70,
            "name": "A#4",
            "ticks": 19800,
            "time": 28.632384499999997,
            "velocity": 0.23622047244094488
          },
          {
            "duration": 0.16761359166666523,
            "durationTicks": 118,
            "midi": 36,
            "name": "C2",
            "ticks": 19920,
            "time": 28.802838999999995,
            "velocity": 0.6692913385826772
          },
          {
            "duration": 0.16761359166666523,
            "durationTicks": 118,
            "midi": 48,
            "name": "C3",
            "ticks": 19920,
            "time": 28.802838999999995,
            "velocity": 0.2283464566929134
          },
          {
            "duration": 0.16761359166666523,
            "durationTicks": 118,
            "midi": 70,
            "name": "A#4",
            "ticks": 19920,
            "time": 28.802838999999995,
            "velocity": 0.33070866141732286
          },
          {
            "duration": 0.08238634166666614,
            "durationTicks": 58,
            "midi": 87,
            "name": "D#6",
            "ticks": 19920,
            "time": 28.802838999999995,
            "velocity": 0.4566929133858268
          },
          {
            "duration": 0.16761359166666523,
            "durationTicks": 118,
            "midi": 35,
            "name": "B1",
            "ticks": 20040,
            "time": 28.973293499999997,
            "velocity": 0.5511811023622047
          },
          {
            "duration": 0.16761359166666523,
            "durationTicks": 118,
            "midi": 36,
            "name": "C2",
            "ticks": 20040,
            "time": 28.973293499999997,
            "velocity": 0.3937007874015748
          },
          {
            "duration": 0.16761359166666523,
            "durationTicks": 118,
            "midi": 47,
            "name": "B2",
            "ticks": 20040,
            "time": 28.973293499999997,
            "velocity": 0.6141732283464567
          },
          {
            "duration": 0.16761359166666523,
            "durationTicks": 118,
            "midi": 70,
            "name": "A#4",
            "ticks": 20040,
            "time": 28.973293499999997,
            "velocity": 0.4094488188976378
          },
          {
            "duration": 0.16954018750000088,
            "durationTicks": 118,
            "midi": 36,
            "name": "C2",
            "ticks": 20160,
            "time": 29.143747999999995,
            "velocity": 0.8188976377952756
          },
          {
            "duration": 0.16954018750000088,
            "durationTicks": 118,
            "midi": 44,
            "name": "G#2",
            "ticks": 20160,
            "time": 29.143747999999995,
            "velocity": 0.3779527559055118
          },
          {
            "duration": 0.16954018750000088,
            "durationTicks": 118,
            "midi": 45,
            "name": "A2",
            "ticks": 20160,
            "time": 29.143747999999995,
            "velocity": 0.5118110236220472
          },
          {
            "duration": 0.16954018750000088,
            "durationTicks": 118,
            "midi": 70,
            "name": "A#4",
            "ticks": 20160,
            "time": 29.143747999999995,
            "velocity": 0.2440944881889764
          },
          {
            "duration": 0.08333331249999887,
            "durationTicks": 58,
            "midi": 87,
            "name": "D#6",
            "ticks": 20160,
            "time": 29.143747999999995,
            "velocity": 0.6299212598425197
          },
          {
            "duration": 0.16954018750000088,
            "durationTicks": 118,
            "midi": 70,
            "name": "A#4",
            "ticks": 20280,
            "time": 29.316161749999996,
            "velocity": 0.14960629921259844
          },
          {
            "duration": 0.16954018749999733,
            "durationTicks": 118,
            "midi": 35,
            "name": "B1",
            "ticks": 20400,
            "time": 29.488575499999996,
            "velocity": 0.5511811023622047
          },
          {
            "duration": 0.16954018749999733,
            "durationTicks": 118,
            "midi": 36,
            "name": "C2",
            "ticks": 20400,
            "time": 29.488575499999996,
            "velocity": 0.7086614173228346
          },
          {
            "duration": 0.16954018749999733,
            "durationTicks": 118,
            "midi": 40,
            "name": "E2",
            "ticks": 20400,
            "time": 29.488575499999996,
            "velocity": 0.4330708661417323
          },
          {
            "duration": 0.16954018749999733,
            "durationTicks": 118,
            "midi": 47,
            "name": "B2",
            "ticks": 20400,
            "time": 29.488575499999996,
            "velocity": 0.5275590551181102
          },
          {
            "duration": 0.16954018749999733,
            "durationTicks": 118,
            "midi": 48,
            "name": "C3",
            "ticks": 20400,
            "time": 29.488575499999996,
            "velocity": 0.7165354330708661
          },
          {
            "duration": 0.16954018749999733,
            "durationTicks": 118,
            "midi": 70,
            "name": "A#4",
            "ticks": 20400,
            "time": 29.488575499999996,
            "velocity": 0.36220472440944884
          },
          {
            "duration": 0.08333331249999887,
            "durationTicks": 58,
            "midi": 87,
            "name": "D#6",
            "ticks": 20400,
            "time": 29.488575499999996,
            "velocity": 0.7795275590551181
          },
          {
            "duration": 0.16954018749999733,
            "durationTicks": 118,
            "midi": 70,
            "name": "A#4",
            "ticks": 20520,
            "time": 29.660989249999997,
            "velocity": 0.2047244094488189
          },
          {
            "duration": 0.16954018750000088,
            "durationTicks": 118,
            "midi": 28,
            "name": "E1",
            "ticks": 20640,
            "time": 29.833402999999993,
            "velocity": 0.47244094488188976
          },
          {
            "duration": 0.16954018750000088,
            "durationTicks": 118,
            "midi": 36,
            "name": "C2",
            "ticks": 20640,
            "time": 29.833402999999993,
            "velocity": 0.7952755905511811
          },
          {
            "duration": 0.16954018750000088,
            "durationTicks": 118,
            "midi": 43,
            "name": "G2",
            "ticks": 20640,
            "time": 29.833402999999993,
            "velocity": 0.2440944881889764
          },
          {
            "duration": 0.16954018750000088,
            "durationTicks": 118,
            "midi": 44,
            "name": "G#2",
            "ticks": 20640,
            "time": 29.833402999999993,
            "velocity": 0.41732283464566927
          },
          {
            "duration": 0.16954018750000088,
            "durationTicks": 118,
            "midi": 70,
            "name": "A#4",
            "ticks": 20640,
            "time": 29.833402999999993,
            "velocity": 0.28346456692913385
          },
          {
            "duration": 0.08333331250000242,
            "durationTicks": 58,
            "midi": 87,
            "name": "D#6",
            "ticks": 20640,
            "time": 29.833402999999993,
            "velocity": 0.2677165354330709
          },
          {
            "duration": 0.16954018750000088,
            "durationTicks": 118,
            "midi": 40,
            "name": "E2",
            "ticks": 20760,
            "time": 30.005816749999994,
            "velocity": 0.5118110236220472
          },
          {
            "duration": 0.16954018750000088,
            "durationTicks": 118,
            "midi": 45,
            "name": "A2",
            "ticks": 20760,
            "time": 30.005816749999994,
            "velocity": 0.7244094488188977
          },
          {
            "duration": 0.16954018750000088,
            "durationTicks": 118,
            "midi": 47,
            "name": "B2",
            "ticks": 20760,
            "time": 30.005816749999994,
            "velocity": 0.5196850393700787
          },
          {
            "duration": 0.16954018750000088,
            "durationTicks": 118,
            "midi": 70,
            "name": "A#4",
            "ticks": 20760,
            "time": 30.005816749999994,
            "velocity": 0.3779527559055118
          },
          {
            "duration": 0.08333331250000242,
            "durationTicks": 58,
            "midi": 87,
            "name": "D#6",
            "ticks": 20760,
            "time": 30.005816749999994,
            "velocity": 0.7322834645669292
          },
          {
            "duration": 0.16954018750000088,
            "durationTicks": 118,
            "midi": 36,
            "name": "C2",
            "ticks": 20880,
            "time": 30.178230499999994,
            "velocity": 0.7086614173228346
          },
          {
            "duration": 0.16954018750000088,
            "durationTicks": 118,
            "midi": 70,
            "name": "A#4",
            "ticks": 20880,
            "time": 30.178230499999994,
            "velocity": 0.2992125984251969
          },
          {
            "duration": 0.08333331249999887,
            "durationTicks": 58,
            "midi": 86,
            "name": "D6",
            "ticks": 20880,
            "time": 30.178230499999994,
            "velocity": 0.4330708661417323
          },
          {
            "duration": 0.16954018750000088,
            "durationTicks": 118,
            "midi": 36,
            "name": "C2",
            "ticks": 21000,
            "time": 30.350644249999995,
            "velocity": 0.4409448818897638
          },
          {
            "duration": 0.16954018750000088,
            "durationTicks": 118,
            "midi": 45,
            "name": "A2",
            "ticks": 21000,
            "time": 30.350644249999995,
            "velocity": 0.2047244094488189
          },
          {
            "duration": 0.16954018750000088,
            "durationTicks": 118,
            "midi": 70,
            "name": "A#4",
            "ticks": 21000,
            "time": 30.350644249999995,
            "velocity": 0.25984251968503935
          },
          {
            "duration": 0.1735293250000005,
            "durationTicks": 118,
            "midi": 35,
            "name": "B1",
            "ticks": 21120,
            "time": 30.523057999999995,
            "velocity": 0.5511811023622047
          },
          {
            "duration": 0.1735293250000005,
            "durationTicks": 118,
            "midi": 36,
            "name": "C2",
            "ticks": 21120,
            "time": 30.523057999999995,
            "velocity": 0.5905511811023622
          },
          {
            "duration": 0.1749999124999988,
            "durationTicks": 119,
            "midi": 44,
            "name": "G#2",
            "ticks": 21120,
            "time": 30.523057999999995,
            "velocity": 0.5354330708661418
          },
          {
            "duration": 0.1735293250000005,
            "durationTicks": 118,
            "midi": 47,
            "name": "B2",
            "ticks": 21120,
            "time": 30.523057999999995,
            "velocity": 0.5275590551181102
          },
          {
            "duration": 0.1735293250000005,
            "durationTicks": 118,
            "midi": 70,
            "name": "A#4",
            "ticks": 21120,
            "time": 30.523057999999995,
            "velocity": 0.3779527559055118
          },
          {
            "duration": 0.08529407500000019,
            "durationTicks": 58,
            "midi": 87,
            "name": "D#6",
            "ticks": 21120,
            "time": 30.523057999999995,
            "velocity": 0.6299212598425197
          },
          {
            "duration": 0.1735293250000005,
            "durationTicks": 118,
            "midi": 48,
            "name": "C3",
            "ticks": 21240,
            "time": 30.699528499999996,
            "velocity": 0.14960629921259844
          },
          {
            "duration": 0.1735293250000005,
            "durationTicks": 118,
            "midi": 70,
            "name": "A#4",
            "ticks": 21240,
            "time": 30.699528499999996,
            "velocity": 0.14173228346456693
          },
          {
            "duration": 0.1735293250000005,
            "durationTicks": 118,
            "midi": 36,
            "name": "C2",
            "ticks": 21360,
            "time": 30.875998999999997,
            "velocity": 0.2677165354330709
          },
          {
            "duration": 0.1735293250000005,
            "durationTicks": 118,
            "midi": 48,
            "name": "C3",
            "ticks": 21360,
            "time": 30.875998999999997,
            "velocity": 0.2125984251968504
          },
          {
            "duration": 0.1735293250000005,
            "durationTicks": 118,
            "midi": 70,
            "name": "A#4",
            "ticks": 21360,
            "time": 30.875998999999997,
            "velocity": 0.25984251968503935
          },
          {
            "duration": 0.1735293250000005,
            "durationTicks": 118,
            "midi": 35,
            "name": "B1",
            "ticks": 21480,
            "time": 31.052469499999994,
            "velocity": 0.5511811023622047
          },
          {
            "duration": 0.1735293250000005,
            "durationTicks": 118,
            "midi": 36,
            "name": "C2",
            "ticks": 21480,
            "time": 31.052469499999994,
            "velocity": 0.5590551181102362
          },
          {
            "duration": 0.1735293250000005,
            "durationTicks": 118,
            "midi": 47,
            "name": "B2",
            "ticks": 21480,
            "time": 31.052469499999994,
            "velocity": 0.7007874015748031
          },
          {
            "duration": 0.1735293250000005,
            "durationTicks": 118,
            "midi": 70,
            "name": "A#4",
            "ticks": 21480,
            "time": 31.052469499999994,
            "velocity": 0.4251968503937008
          },
          {
            "duration": 0.08529407500000019,
            "durationTicks": 58,
            "midi": 87,
            "name": "D#6",
            "ticks": 21480,
            "time": 31.052469499999994,
            "velocity": 0.5196850393700787
          },
          {
            "duration": 0.1735293250000005,
            "durationTicks": 118,
            "midi": 28,
            "name": "E1",
            "ticks": 21600,
            "time": 31.228939999999994,
            "velocity": 0.47244094488188976
          },
          {
            "duration": 0.1735293250000005,
            "durationTicks": 118,
            "midi": 36,
            "name": "C2",
            "ticks": 21600,
            "time": 31.228939999999994,
            "velocity": 0.7795275590551181
          },
          {
            "duration": 0.1735293250000005,
            "durationTicks": 118,
            "midi": 44,
            "name": "G#2",
            "ticks": 21600,
            "time": 31.228939999999994,
            "velocity": 0.31496062992125984
          },
          {
            "duration": 0.1735293250000005,
            "durationTicks": 118,
            "midi": 70,
            "name": "A#4",
            "ticks": 21600,
            "time": 31.228939999999994,
            "velocity": 0.2992125984251969
          },
          {
            "duration": 0.08529407500000019,
            "durationTicks": 58,
            "midi": 86,
            "name": "D6",
            "ticks": 21600,
            "time": 31.228939999999994,
            "velocity": 0.4251968503937008
          },
          {
            "duration": 0.1735293250000005,
            "durationTicks": 118,
            "midi": 70,
            "name": "A#4",
            "ticks": 21720,
            "time": 31.405410499999995,
            "velocity": 0.23622047244094488
          },
          {
            "duration": 0.1735293250000005,
            "durationTicks": 118,
            "midi": 36,
            "name": "C2",
            "ticks": 21840,
            "time": 31.581880999999996,
            "velocity": 0.6692913385826772
          },
          {
            "duration": 0.1735293250000005,
            "durationTicks": 118,
            "midi": 48,
            "name": "C3",
            "ticks": 21840,
            "time": 31.581880999999996,
            "velocity": 0.2283464566929134
          },
          {
            "duration": 0.1735293250000005,
            "durationTicks": 118,
            "midi": 70,
            "name": "A#4",
            "ticks": 21840,
            "time": 31.581880999999996,
            "velocity": 0.33070866141732286
          },
          {
            "duration": 0.08529407500000019,
            "durationTicks": 58,
            "midi": 87,
            "name": "D#6",
            "ticks": 21840,
            "time": 31.581880999999996,
            "velocity": 0.4566929133858268
          },
          {
            "duration": 0.1735293250000005,
            "durationTicks": 118,
            "midi": 35,
            "name": "B1",
            "ticks": 21960,
            "time": 31.758351499999996,
            "velocity": 0.5511811023622047
          },
          {
            "duration": 0.1735293250000005,
            "durationTicks": 118,
            "midi": 36,
            "name": "C2",
            "ticks": 21960,
            "time": 31.758351499999996,
            "velocity": 0.3937007874015748
          },
          {
            "duration": 0.1735293250000005,
            "durationTicks": 118,
            "midi": 47,
            "name": "B2",
            "ticks": 21960,
            "time": 31.758351499999996,
            "velocity": 0.6141732283464567
          },
          {
            "duration": 0.1735293250000005,
            "durationTicks": 118,
            "midi": 70,
            "name": "A#4",
            "ticks": 21960,
            "time": 31.758351499999996,
            "velocity": 0.4094488188976378
          },
          {
            "duration": 0.17352932499999696,
            "durationTicks": 118,
            "midi": 36,
            "name": "C2",
            "ticks": 22080,
            "time": 31.934821999999997,
            "velocity": 0.8188976377952756
          },
          {
            "duration": 0.17352932499999696,
            "durationTicks": 118,
            "midi": 44,
            "name": "G#2",
            "ticks": 22080,
            "time": 31.934821999999997,
            "velocity": 0.3779527559055118
          },
          {
            "duration": 0.17352932499999696,
            "durationTicks": 118,
            "midi": 70,
            "name": "A#4",
            "ticks": 22080,
            "time": 31.934821999999997,
            "velocity": 0.2440944881889764
          },
          {
            "duration": 0.08529407500000019,
            "durationTicks": 58,
            "midi": 87,
            "name": "D#6",
            "ticks": 22080,
            "time": 31.934821999999997,
            "velocity": 0.6299212598425197
          },
          {
            "duration": 0.17352932499999696,
            "durationTicks": 118,
            "midi": 70,
            "name": "A#4",
            "ticks": 22200,
            "time": 32.1112925,
            "velocity": 0.14960629921259844
          },
          {
            "duration": 0.17352932499999696,
            "durationTicks": 118,
            "midi": 35,
            "name": "B1",
            "ticks": 22320,
            "time": 32.287763,
            "velocity": 0.5511811023622047
          },
          {
            "duration": 0.17352932499999696,
            "durationTicks": 118,
            "midi": 36,
            "name": "C2",
            "ticks": 22320,
            "time": 32.287763,
            "velocity": 0.7086614173228346
          },
          {
            "duration": 0.17352932499999696,
            "durationTicks": 118,
            "midi": 40,
            "name": "E2",
            "ticks": 22320,
            "time": 32.287763,
            "velocity": 0.4330708661417323
          },
          {
            "duration": 0.17352932499999696,
            "durationTicks": 118,
            "midi": 47,
            "name": "B2",
            "ticks": 22320,
            "time": 32.287763,
            "velocity": 0.5275590551181102
          },
          {
            "duration": 0.17352932499999696,
            "durationTicks": 118,
            "midi": 48,
            "name": "C3",
            "ticks": 22320,
            "time": 32.287763,
            "velocity": 0.7165354330708661
          },
          {
            "duration": 0.17352932499999696,
            "durationTicks": 118,
            "midi": 70,
            "name": "A#4",
            "ticks": 22320,
            "time": 32.287763,
            "velocity": 0.36220472440944884
          },
          {
            "duration": 0.08529407500000019,
            "durationTicks": 58,
            "midi": 87,
            "name": "D#6",
            "ticks": 22320,
            "time": 32.287763,
            "velocity": 0.7401574803149606
          },
          {
            "duration": 0.17352932500000406,
            "durationTicks": 118,
            "midi": 70,
            "name": "A#4",
            "ticks": 22440,
            "time": 32.46423349999999,
            "velocity": 0.2047244094488189
          },
          {
            "duration": 0.17352932500000406,
            "durationTicks": 118,
            "midi": 28,
            "name": "E1",
            "ticks": 22560,
            "time": 32.64070399999999,
            "velocity": 0.47244094488188976
          },
          {
            "duration": 0.17352932500000406,
            "durationTicks": 118,
            "midi": 36,
            "name": "C2",
            "ticks": 22560,
            "time": 32.64070399999999,
            "velocity": 0.7952755905511811
          },
          {
            "duration": 0.17352932500000406,
            "durationTicks": 118,
            "midi": 43,
            "name": "G2",
            "ticks": 22560,
            "time": 32.64070399999999,
            "velocity": 0.2440944881889764
          },
          {
            "duration": 0.17352932500000406,
            "durationTicks": 118,
            "midi": 44,
            "name": "G#2",
            "ticks": 22560,
            "time": 32.64070399999999,
            "velocity": 0.4645669291338583
          },
          {
            "duration": 0.17352932500000406,
            "durationTicks": 118,
            "midi": 70,
            "name": "A#4",
            "ticks": 22560,
            "time": 32.64070399999999,
            "velocity": 0.28346456692913385
          },
          {
            "duration": 0.08529407500000019,
            "durationTicks": 58,
            "midi": 87,
            "name": "D#6",
            "ticks": 22560,
            "time": 32.64070399999999,
            "velocity": 0.12598425196850394
          },
          {
            "duration": 0.17352932500000406,
            "durationTicks": 118,
            "midi": 40,
            "name": "E2",
            "ticks": 22680,
            "time": 32.81717449999999,
            "velocity": 0.5118110236220472
          },
          {
            "duration": 0.17352932500000406,
            "durationTicks": 118,
            "midi": 45,
            "name": "A2",
            "ticks": 22680,
            "time": 32.81717449999999,
            "velocity": 0.7244094488188977
          },
          {
            "duration": 0.17352932500000406,
            "durationTicks": 118,
            "midi": 47,
            "name": "B2",
            "ticks": 22680,
            "time": 32.81717449999999,
            "velocity": 0.5196850393700787
          },
          {
            "duration": 0.17352932500000406,
            "durationTicks": 118,
            "midi": 70,
            "name": "A#4",
            "ticks": 22680,
            "time": 32.81717449999999,
            "velocity": 0.3779527559055118
          },
          {
            "duration": 0.08529407500000019,
            "durationTicks": 58,
            "midi": 87,
            "name": "D#6",
            "ticks": 22680,
            "time": 32.81717449999999,
            "velocity": 0.7244094488188977
          },
          {
            "duration": 0.17352932500000406,
            "durationTicks": 118,
            "midi": 36,
            "name": "C2",
            "ticks": 22800,
            "time": 32.993644999999994,
            "velocity": 0.6220472440944882
          },
          {
            "duration": 0.17352932500000406,
            "durationTicks": 118,
            "midi": 70,
            "name": "A#4",
            "ticks": 22800,
            "time": 32.993644999999994,
            "velocity": 0.2992125984251969
          },
          {
            "duration": 0.08529407500000019,
            "durationTicks": 58,
            "midi": 86,
            "name": "D6",
            "ticks": 22800,
            "time": 32.993644999999994,
            "velocity": 0.4330708661417323
          },
          {
            "duration": 0.17352932500000406,
            "durationTicks": 118,
            "midi": 36,
            "name": "C2",
            "ticks": 22920,
            "time": 33.170115499999994,
            "velocity": 0.4409448818897638
          },
          {
            "duration": 0.17352932500000406,
            "durationTicks": 118,
            "midi": 45,
            "name": "A2",
            "ticks": 22920,
            "time": 33.170115499999994,
            "velocity": 0.2047244094488189
          },
          {
            "duration": 0.17352932500000406,
            "durationTicks": 118,
            "midi": 70,
            "name": "A#4",
            "ticks": 22920,
            "time": 33.170115499999994,
            "velocity": 0.25984251968503935
          },
          {
            "duration": 0.17151152499999966,
            "durationTicks": 118,
            "midi": 35,
            "name": "B1",
            "ticks": 23040,
            "time": 33.346585999999995,
            "velocity": 0.5511811023622047
          },
          {
            "duration": 0.17151152499999966,
            "durationTicks": 118,
            "midi": 36,
            "name": "C2",
            "ticks": 23040,
            "time": 33.346585999999995,
            "velocity": 0.5905511811023622
          },
          {
            "duration": 0.17151152499999966,
            "durationTicks": 118,
            "midi": 44,
            "name": "G#2",
            "ticks": 23040,
            "time": 33.346585999999995,
            "velocity": 0.30708661417322836
          },
          {
            "duration": 0.17151152499999966,
            "durationTicks": 118,
            "midi": 47,
            "name": "B2",
            "ticks": 23040,
            "time": 33.346585999999995,
            "velocity": 0.5275590551181102
          },
          {
            "duration": 0.17151152499999966,
            "durationTicks": 118,
            "midi": 70,
            "name": "A#4",
            "ticks": 23040,
            "time": 33.346585999999995,
            "velocity": 0.3779527559055118
          },
          {
            "duration": 0.08430227499999887,
            "durationTicks": 58,
            "midi": 87,
            "name": "D#6",
            "ticks": 23040,
            "time": 33.346585999999995,
            "velocity": 0.6299212598425197
          },
          {
            "duration": 0.17151152499999966,
            "durationTicks": 118,
            "midi": 48,
            "name": "C3",
            "ticks": 23160,
            "time": 33.5210045,
            "velocity": 0.14960629921259844
          },
          {
            "duration": 0.17151152499999966,
            "durationTicks": 118,
            "midi": 70,
            "name": "A#4",
            "ticks": 23160,
            "time": 33.5210045,
            "velocity": 0.14173228346456693
          },
          {
            "duration": 0.17151152499999966,
            "durationTicks": 118,
            "midi": 36,
            "name": "C2",
            "ticks": 23280,
            "time": 33.695423,
            "velocity": 0.2677165354330709
          },
          {
            "duration": 0.17151152499999966,
            "durationTicks": 118,
            "midi": 48,
            "name": "C3",
            "ticks": 23280,
            "time": 33.695423,
            "velocity": 0.2125984251968504
          },
          {
            "duration": 0.17151152499999966,
            "durationTicks": 118,
            "midi": 70,
            "name": "A#4",
            "ticks": 23280,
            "time": 33.695423,
            "velocity": 0.25984251968503935
          },
          {
            "duration": 0.17151152499999966,
            "durationTicks": 118,
            "midi": 35,
            "name": "B1",
            "ticks": 23400,
            "time": 33.86984149999999,
            "velocity": 0.5511811023622047
          },
          {
            "duration": 0.17151152499999966,
            "durationTicks": 118,
            "midi": 36,
            "name": "C2",
            "ticks": 23400,
            "time": 33.86984149999999,
            "velocity": 0.5590551181102362
          },
          {
            "duration": 0.17151152499999966,
            "durationTicks": 118,
            "midi": 47,
            "name": "B2",
            "ticks": 23400,
            "time": 33.86984149999999,
            "velocity": 0.7007874015748031
          },
          {
            "duration": 0.17151152499999966,
            "durationTicks": 118,
            "midi": 70,
            "name": "A#4",
            "ticks": 23400,
            "time": 33.86984149999999,
            "velocity": 0.4251968503937008
          },
          {
            "duration": 0.08430227499999887,
            "durationTicks": 58,
            "midi": 87,
            "name": "D#6",
            "ticks": 23400,
            "time": 33.86984149999999,
            "velocity": 0.5196850393700787
          },
          {
            "duration": 0.17151152499999966,
            "durationTicks": 118,
            "midi": 28,
            "name": "E1",
            "ticks": 23520,
            "time": 34.044259999999994,
            "velocity": 0.47244094488188976
          },
          {
            "duration": 0.17151152499999966,
            "durationTicks": 118,
            "midi": 36,
            "name": "C2",
            "ticks": 23520,
            "time": 34.044259999999994,
            "velocity": 0.7795275590551181
          },
          {
            "duration": 0.17151152499999966,
            "durationTicks": 118,
            "midi": 44,
            "name": "G#2",
            "ticks": 23520,
            "time": 34.044259999999994,
            "velocity": 0.3858267716535433
          },
          {
            "duration": 0.17151152499999966,
            "durationTicks": 118,
            "midi": 70,
            "name": "A#4",
            "ticks": 23520,
            "time": 34.044259999999994,
            "velocity": 0.2992125984251969
          },
          {
            "duration": 0.08430227499999887,
            "durationTicks": 58,
            "midi": 86,
            "name": "D6",
            "ticks": 23520,
            "time": 34.044259999999994,
            "velocity": 0.4251968503937008
          },
          {
            "duration": 0.17151152499999966,
            "durationTicks": 118,
            "midi": 70,
            "name": "A#4",
            "ticks": 23640,
            "time": 34.218678499999996,
            "velocity": 0.23622047244094488
          },
          {
            "duration": 0.17151152499999966,
            "durationTicks": 118,
            "midi": 36,
            "name": "C2",
            "ticks": 23760,
            "time": 34.393097,
            "velocity": 0.6692913385826772
          },
          {
            "duration": 0.17151152499999966,
            "durationTicks": 118,
            "midi": 48,
            "name": "C3",
            "ticks": 23760,
            "time": 34.393097,
            "velocity": 0.2283464566929134
          },
          {
            "duration": 0.17151152499999966,
            "durationTicks": 118,
            "midi": 70,
            "name": "A#4",
            "ticks": 23760,
            "time": 34.393097,
            "velocity": 0.33070866141732286
          },
          {
            "duration": 0.08430227499999887,
            "durationTicks": 58,
            "midi": 87,
            "name": "D#6",
            "ticks": 23760,
            "time": 34.393097,
            "velocity": 0.4566929133858268
          },
          {
            "duration": 0.17151152500000677,
            "durationTicks": 118,
            "midi": 35,
            "name": "B1",
            "ticks": 23880,
            "time": 34.56751549999999,
            "velocity": 0.5511811023622047
          },
          {
            "duration": 0.17151152500000677,
            "durationTicks": 118,
            "midi": 36,
            "name": "C2",
            "ticks": 23880,
            "time": 34.56751549999999,
            "velocity": 0.3937007874015748
          },
          {
            "duration": 0.17151152500000677,
            "durationTicks": 118,
            "midi": 47,
            "name": "B2",
            "ticks": 23880,
            "time": 34.56751549999999,
            "velocity": 0.6141732283464567
          },
          {
            "duration": 0.17151152500000677,
            "durationTicks": 118,
            "midi": 70,
            "name": "A#4",
            "ticks": 23880,
            "time": 34.56751549999999,
            "velocity": 0.4094488188976378
          },
          {
            "duration": 0.17151152499999966,
            "durationTicks": 118,
            "midi": 36,
            "name": "C2",
            "ticks": 24000,
            "time": 34.74193399999999,
            "velocity": 0.8188976377952756
          },
          {
            "duration": 0.17151152499999966,
            "durationTicks": 118,
            "midi": 44,
            "name": "G#2",
            "ticks": 24000,
            "time": 34.74193399999999,
            "velocity": 0.4251968503937008
          },
          {
            "duration": 0.17151152499999966,
            "durationTicks": 118,
            "midi": 70,
            "name": "A#4",
            "ticks": 24000,
            "time": 34.74193399999999,
            "velocity": 0.2440944881889764
          },
          {
            "duration": 0.08430227499999887,
            "durationTicks": 58,
            "midi": 87,
            "name": "D#6",
            "ticks": 24000,
            "time": 34.74193399999999,
            "velocity": 0.6299212598425197
          },
          {
            "duration": 0.17151152499999966,
            "durationTicks": 118,
            "midi": 70,
            "name": "A#4",
            "ticks": 24120,
            "time": 34.916352499999995,
            "velocity": 0.14960629921259844
          },
          {
            "duration": 0.17151152499999966,
            "durationTicks": 118,
            "midi": 35,
            "name": "B1",
            "ticks": 24240,
            "time": 35.090771,
            "velocity": 0.5511811023622047
          },
          {
            "duration": 0.17151152499999966,
            "durationTicks": 118,
            "midi": 36,
            "name": "C2",
            "ticks": 24240,
            "time": 35.090771,
            "velocity": 0.7086614173228346
          },
          {
            "duration": 0.17151152499999966,
            "durationTicks": 118,
            "midi": 40,
            "name": "E2",
            "ticks": 24240,
            "time": 35.090771,
            "velocity": 0.4330708661417323
          },
          {
            "duration": 0.17151152499999966,
            "durationTicks": 118,
            "midi": 47,
            "name": "B2",
            "ticks": 24240,
            "time": 35.090771,
            "velocity": 0.5275590551181102
          },
          {
            "duration": 0.17151152499999966,
            "durationTicks": 118,
            "midi": 48,
            "name": "C3",
            "ticks": 24240,
            "time": 35.090771,
            "velocity": 0.7165354330708661
          },
          {
            "duration": 0.17151152499999966,
            "durationTicks": 118,
            "midi": 70,
            "name": "A#4",
            "ticks": 24240,
            "time": 35.090771,
            "velocity": 0.36220472440944884
          },
          {
            "duration": 0.08430227499999887,
            "durationTicks": 58,
            "midi": 87,
            "name": "D#6",
            "ticks": 24240,
            "time": 35.090771,
            "velocity": 0.7480314960629921
          },
          {
            "duration": 0.17151152499999966,
            "durationTicks": 118,
            "midi": 70,
            "name": "A#4",
            "ticks": 24360,
            "time": 35.2651895,
            "velocity": 0.2047244094488189
          },
          {
            "duration": 0.17151152499999966,
            "durationTicks": 118,
            "midi": 28,
            "name": "E1",
            "ticks": 24480,
            "time": 35.43960799999999,
            "velocity": 0.47244094488188976
          },
          {
            "duration": 0.17151152499999966,
            "durationTicks": 118,
            "midi": 36,
            "name": "C2",
            "ticks": 24480,
            "time": 35.43960799999999,
            "velocity": 0.7952755905511811
          },
          {
            "duration": 0.17151152499999966,
            "durationTicks": 118,
            "midi": 43,
            "name": "G2",
            "ticks": 24480,
            "time": 35.43960799999999,
            "velocity": 0.2440944881889764
          },
          {
            "duration": 0.17151152499999966,
            "durationTicks": 118,
            "midi": 44,
            "name": "G#2",
            "ticks": 24480,
            "time": 35.43960799999999,
            "velocity": 0.4645669291338583
          },
          {
            "duration": 0.17151152499999966,
            "durationTicks": 118,
            "midi": 70,
            "name": "A#4",
            "ticks": 24480,
            "time": 35.43960799999999,
            "velocity": 0.28346456692913385
          },
          {
            "duration": 0.08430227499999887,
            "durationTicks": 58,
            "midi": 87,
            "name": "D#6",
            "ticks": 24480,
            "time": 35.43960799999999,
            "velocity": 0.12598425196850394
          },
          {
            "duration": 0.17151152499999966,
            "durationTicks": 118,
            "midi": 40,
            "name": "E2",
            "ticks": 24600,
            "time": 35.614026499999994,
            "velocity": 0.5118110236220472
          },
          {
            "duration": 0.17151152499999966,
            "durationTicks": 118,
            "midi": 45,
            "name": "A2",
            "ticks": 24600,
            "time": 35.614026499999994,
            "velocity": 0.7244094488188977
          },
          {
            "duration": 0.17151152499999966,
            "durationTicks": 118,
            "midi": 47,
            "name": "B2",
            "ticks": 24600,
            "time": 35.614026499999994,
            "velocity": 0.5669291338582677
          },
          {
            "duration": 0.17151152499999966,
            "durationTicks": 118,
            "midi": 70,
            "name": "A#4",
            "ticks": 24600,
            "time": 35.614026499999994,
            "velocity": 0.3779527559055118
          },
          {
            "duration": 0.08430227499999887,
            "durationTicks": 58,
            "midi": 87,
            "name": "D#6",
            "ticks": 24600,
            "time": 35.614026499999994,
            "velocity": 0.7007874015748031
          },
          {
            "duration": 0.17151152499999966,
            "durationTicks": 118,
            "midi": 36,
            "name": "C2",
            "ticks": 24720,
            "time": 35.788444999999996,
            "velocity": 0.6220472440944882
          },
          {
            "duration": 0.17151152499999966,
            "durationTicks": 118,
            "midi": 70,
            "name": "A#4",
            "ticks": 24720,
            "time": 35.788444999999996,
            "velocity": 0.2992125984251969
          },
          {
            "duration": 0.08430227499999887,
            "durationTicks": 58,
            "midi": 86,
            "name": "D6",
            "ticks": 24720,
            "time": 35.788444999999996,
            "velocity": 0.4330708661417323
          },
          {
            "duration": 0.17151152499999966,
            "durationTicks": 118,
            "midi": 36,
            "name": "C2",
            "ticks": 24840,
            "time": 35.9628635,
            "velocity": 0.4409448818897638
          },
          {
            "duration": 0.17151152499999966,
            "durationTicks": 118,
            "midi": 45,
            "name": "A2",
            "ticks": 24840,
            "time": 35.9628635,
            "velocity": 0.2047244094488189
          },
          {
            "duration": 0.17151152499999966,
            "durationTicks": 118,
            "midi": 70,
            "name": "A#4",
            "ticks": 24840,
            "time": 35.9628635,
            "velocity": 0.25984251968503935
          },
          {
            "duration": 0.17151152500000677,
            "durationTicks": 118,
            "midi": 35,
            "name": "B1",
            "ticks": 24960,
            "time": 36.13728199999999,
            "velocity": 0.5511811023622047
          },
          {
            "duration": 0.17151152500000677,
            "durationTicks": 118,
            "midi": 36,
            "name": "C2",
            "ticks": 24960,
            "time": 36.13728199999999,
            "velocity": 0.5905511811023622
          },
          {
            "duration": 0.17151152500000677,
            "durationTicks": 118,
            "midi": 44,
            "name": "G#2",
            "ticks": 24960,
            "time": 36.13728199999999,
            "velocity": 0.5039370078740157
          },
          {
            "duration": 0.17151152500000677,
            "durationTicks": 118,
            "midi": 47,
            "name": "B2",
            "ticks": 24960,
            "time": 36.13728199999999,
            "velocity": 0.7322834645669292
          },
          {
            "duration": 0.17151152500000677,
            "durationTicks": 118,
            "midi": 70,
            "name": "A#4",
            "ticks": 24960,
            "time": 36.13728199999999,
            "velocity": 0.3779527559055118
          },
          {
            "duration": 0.08430227500000598,
            "durationTicks": 58,
            "midi": 87,
            "name": "D#6",
            "ticks": 24960,
            "time": 36.13728199999999,
            "velocity": 0.6299212598425197
          },
          {
            "duration": 0.17151152499999966,
            "durationTicks": 118,
            "midi": 48,
            "name": "C3",
            "ticks": 25080,
            "time": 36.31170049999999,
            "velocity": 0.14960629921259844
          },
          {
            "duration": 0.17151152499999966,
            "durationTicks": 118,
            "midi": 70,
            "name": "A#4",
            "ticks": 25080,
            "time": 36.31170049999999,
            "velocity": 0.14173228346456693
          },
          {
            "duration": 0.17151152499999966,
            "durationTicks": 118,
            "midi": 36,
            "name": "C2",
            "ticks": 25200,
            "time": 36.486118999999995,
            "velocity": 0.2677165354330709
          },
          {
            "duration": 0.17151152499999966,
            "durationTicks": 118,
            "midi": 48,
            "name": "C3",
            "ticks": 25200,
            "time": 36.486118999999995,
            "velocity": 0.2125984251968504
          },
          {
            "duration": 0.17151152499999966,
            "durationTicks": 118,
            "midi": 70,
            "name": "A#4",
            "ticks": 25200,
            "time": 36.486118999999995,
            "velocity": 0.25984251968503935
          },
          {
            "duration": 0.17151152499999966,
            "durationTicks": 118,
            "midi": 35,
            "name": "B1",
            "ticks": 25320,
            "time": 36.6605375,
            "velocity": 0.5511811023622047
          },
          {
            "duration": 0.17151152499999966,
            "durationTicks": 118,
            "midi": 36,
            "name": "C2",
            "ticks": 25320,
            "time": 36.6605375,
            "velocity": 0.5590551181102362
          },
          {
            "duration": 0.17151152499999966,
            "durationTicks": 118,
            "midi": 47,
            "name": "B2",
            "ticks": 25320,
            "time": 36.6605375,
            "velocity": 0.7007874015748031
          },
          {
            "duration": 0.17151152499999966,
            "durationTicks": 118,
            "midi": 70,
            "name": "A#4",
            "ticks": 25320,
            "time": 36.6605375,
            "velocity": 0.4251968503937008
          },
          {
            "duration": 0.08430227499999887,
            "durationTicks": 58,
            "midi": 87,
            "name": "D#6",
            "ticks": 25320,
            "time": 36.6605375,
            "velocity": 0.5196850393700787
          },
          {
            "duration": 0.16954018749999733,
            "durationTicks": 118,
            "midi": 28,
            "name": "E1",
            "ticks": 25440,
            "time": 36.834956,
            "velocity": 0.47244094488188976
          },
          {
            "duration": 0.16954018749999733,
            "durationTicks": 118,
            "midi": 36,
            "name": "C2",
            "ticks": 25440,
            "time": 36.834956,
            "velocity": 0.7795275590551181
          },
          {
            "duration": 0.16954018749999733,
            "durationTicks": 118,
            "midi": 44,
            "name": "G#2",
            "ticks": 25440,
            "time": 36.834956,
            "velocity": 0.3858267716535433
          },
          {
            "duration": 0.16954018749999733,
            "durationTicks": 118,
            "midi": 70,
            "name": "A#4",
            "ticks": 25440,
            "time": 36.834956,
            "velocity": 0.2992125984251969
          },
          {
            "duration": 0.08333331250000242,
            "durationTicks": 58,
            "midi": 86,
            "name": "D6",
            "ticks": 25440,
            "time": 36.834956,
            "velocity": 0.4251968503937008
          },
          {
            "duration": 0.16954018750000444,
            "durationTicks": 118,
            "midi": 70,
            "name": "A#4",
            "ticks": 25560,
            "time": 37.007369749999995,
            "velocity": 0.23622047244094488
          },
          {
            "duration": 0.16954018749999733,
            "durationTicks": 118,
            "midi": 36,
            "name": "C2",
            "ticks": 25680,
            "time": 37.1797835,
            "velocity": 0.6692913385826772
          },
          {
            "duration": 0.16954018749999733,
            "durationTicks": 118,
            "midi": 48,
            "name": "C3",
            "ticks": 25680,
            "time": 37.1797835,
            "velocity": 0.2283464566929134
          },
          {
            "duration": 0.16954018749999733,
            "durationTicks": 118,
            "midi": 70,
            "name": "A#4",
            "ticks": 25680,
            "time": 37.1797835,
            "velocity": 0.33070866141732286
          },
          {
            "duration": 0.08333331250000242,
            "durationTicks": 58,
            "midi": 87,
            "name": "D#6",
            "ticks": 25680,
            "time": 37.1797835,
            "velocity": 0.4566929133858268
          },
          {
            "duration": 0.16954018750000444,
            "durationTicks": 118,
            "midi": 35,
            "name": "B1",
            "ticks": 25800,
            "time": 37.352197249999996,
            "velocity": 0.5511811023622047
          },
          {
            "duration": 0.16954018750000444,
            "durationTicks": 118,
            "midi": 36,
            "name": "C2",
            "ticks": 25800,
            "time": 37.352197249999996,
            "velocity": 0.3937007874015748
          },
          {
            "duration": 0.16954018750000444,
            "durationTicks": 118,
            "midi": 47,
            "name": "B2",
            "ticks": 25800,
            "time": 37.352197249999996,
            "velocity": 0.6141732283464567
          },
          {
            "duration": 0.16954018750000444,
            "durationTicks": 118,
            "midi": 70,
            "name": "A#4",
            "ticks": 25800,
            "time": 37.352197249999996,
            "velocity": 0.4094488188976378
          },
          {
            "duration": 0.16954018749999733,
            "durationTicks": 118,
            "midi": 36,
            "name": "C2",
            "ticks": 25920,
            "time": 37.524611,
            "velocity": 0.8188976377952756
          },
          {
            "duration": 0.16954018749999733,
            "durationTicks": 118,
            "midi": 44,
            "name": "G#2",
            "ticks": 25920,
            "time": 37.524611,
            "velocity": 0.4251968503937008
          },
          {
            "duration": 0.16954018749999733,
            "durationTicks": 118,
            "midi": 70,
            "name": "A#4",
            "ticks": 25920,
            "time": 37.524611,
            "velocity": 0.2440944881889764
          },
          {
            "duration": 0.08333331249999532,
            "durationTicks": 58,
            "midi": 87,
            "name": "D#6",
            "ticks": 25920,
            "time": 37.524611,
            "velocity": 0.6299212598425197
          },
          {
            "duration": 0.16954018750000444,
            "durationTicks": 118,
            "midi": 70,
            "name": "A#4",
            "ticks": 26040,
            "time": 37.69702475,
            "velocity": 0.14960629921259844
          },
          {
            "duration": 0.16954018749999733,
            "durationTicks": 118,
            "midi": 35,
            "name": "B1",
            "ticks": 26160,
            "time": 37.8694385,
            "velocity": 0.5511811023622047
          },
          {
            "duration": 0.16954018749999733,
            "durationTicks": 118,
            "midi": 36,
            "name": "C2",
            "ticks": 26160,
            "time": 37.8694385,
            "velocity": 0.7086614173228346
          },
          {
            "duration": 0.16954018749999733,
            "durationTicks": 118,
            "midi": 40,
            "name": "E2",
            "ticks": 26160,
            "time": 37.8694385,
            "velocity": 0.4330708661417323
          },
          {
            "duration": 0.16954018749999733,
            "durationTicks": 118,
            "midi": 47,
            "name": "B2",
            "ticks": 26160,
            "time": 37.8694385,
            "velocity": 0.5275590551181102
          },
          {
            "duration": 0.16954018749999733,
            "durationTicks": 118,
            "midi": 48,
            "name": "C3",
            "ticks": 26160,
            "time": 37.8694385,
            "velocity": 0.7165354330708661
          },
          {
            "duration": 0.16954018749999733,
            "durationTicks": 118,
            "midi": 70,
            "name": "A#4",
            "ticks": 26160,
            "time": 37.8694385,
            "velocity": 0.36220472440944884
          },
          {
            "duration": 0.08333331249999532,
            "durationTicks": 58,
            "midi": 87,
            "name": "D#6",
            "ticks": 26160,
            "time": 37.8694385,
            "velocity": 0.8188976377952756
          },
          {
            "duration": 0.16954018749999733,
            "durationTicks": 118,
            "midi": 70,
            "name": "A#4",
            "ticks": 26280,
            "time": 38.04185225,
            "velocity": 0.2047244094488189
          },
          {
            "duration": 0.16954018750000444,
            "durationTicks": 118,
            "midi": 28,
            "name": "E1",
            "ticks": 26400,
            "time": 38.214265999999995,
            "velocity": 0.47244094488188976
          },
          {
            "duration": 0.16954018750000444,
            "durationTicks": 118,
            "midi": 36,
            "name": "C2",
            "ticks": 26400,
            "time": 38.214265999999995,
            "velocity": 0.7952755905511811
          },
          {
            "duration": 0.16954018750000444,
            "durationTicks": 118,
            "midi": 43,
            "name": "G2",
            "ticks": 26400,
            "time": 38.214265999999995,
            "velocity": 0.2440944881889764
          },
          {
            "duration": 0.16954018750000444,
            "durationTicks": 118,
            "midi": 44,
            "name": "G#2",
            "ticks": 26400,
            "time": 38.214265999999995,
            "velocity": 0.4409448818897638
          },
          {
            "duration": 0.16954018750000444,
            "durationTicks": 118,
            "midi": 70,
            "name": "A#4",
            "ticks": 26400,
            "time": 38.214265999999995,
            "velocity": 0.28346456692913385
          },
          {
            "duration": 0.08333331250000242,
            "durationTicks": 58,
            "midi": 87,
            "name": "D#6",
            "ticks": 26400,
            "time": 38.214265999999995,
            "velocity": 0.2992125984251969
          },
          {
            "duration": 0.16954018749999733,
            "durationTicks": 118,
            "midi": 40,
            "name": "E2",
            "ticks": 26520,
            "time": 38.38667975,
            "velocity": 0.5118110236220472
          },
          {
            "duration": 0.16954018749999733,
            "durationTicks": 118,
            "midi": 45,
            "name": "A2",
            "ticks": 26520,
            "time": 38.38667975,
            "velocity": 0.7244094488188977
          },
          {
            "duration": 0.16954018749999733,
            "durationTicks": 118,
            "midi": 47,
            "name": "B2",
            "ticks": 26520,
            "time": 38.38667975,
            "velocity": 0.5196850393700787
          },
          {
            "duration": 0.16954018749999733,
            "durationTicks": 118,
            "midi": 70,
            "name": "A#4",
            "ticks": 26520,
            "time": 38.38667975,
            "velocity": 0.3779527559055118
          },
          {
            "duration": 0.08333331250000242,
            "durationTicks": 58,
            "midi": 87,
            "name": "D#6",
            "ticks": 26520,
            "time": 38.38667975,
            "velocity": 0.7795275590551181
          },
          {
            "duration": 0.16954018750000444,
            "durationTicks": 118,
            "midi": 36,
            "name": "C2",
            "ticks": 26640,
            "time": 38.559093499999996,
            "velocity": 0.6220472440944882
          },
          {
            "duration": 0.16954018750000444,
            "durationTicks": 118,
            "midi": 70,
            "name": "A#4",
            "ticks": 26640,
            "time": 38.559093499999996,
            "velocity": 0.2992125984251969
          },
          {
            "duration": 0.08333331250000242,
            "durationTicks": 58,
            "midi": 86,
            "name": "D6",
            "ticks": 26640,
            "time": 38.559093499999996,
            "velocity": 0.4330708661417323
          },
          {
            "duration": 0.16954018749999733,
            "durationTicks": 118,
            "midi": 36,
            "name": "C2",
            "ticks": 26760,
            "time": 38.73150725,
            "velocity": 0.4409448818897638
          },
          {
            "duration": 0.16954018749999733,
            "durationTicks": 118,
            "midi": 45,
            "name": "A2",
            "ticks": 26760,
            "time": 38.73150725,
            "velocity": 0.2047244094488189
          },
          {
            "duration": 0.16954018749999733,
            "durationTicks": 118,
            "midi": 70,
            "name": "A#4",
            "ticks": 26760,
            "time": 38.73150725,
            "velocity": 0.25984251968503935
          }
        ],
        "endOfTrackTicks": 28800
      },
      {
        "channel": 0,
        "controlChanges": {
          "0": [
            {
              "number": 0,
              "ticks": 496,
              "time": 0.7209298000000001,
              "value": 0
            }
          ],
          "32": [
            {
              "number": 32,
              "ticks": 496,
              "time": 0.7209298000000001,
              "value": 0
            }
          ]
        },
        "pitchBends": [],
        "instrument": {
          "family": "piano",
          "number": 0,
          "name": "acoustic grand piano"
        },
        "name": "Strawberry Swing (MIDI DEMO)",
        "notes": [],
        "endOfTrackTicks": 28800
      },
      {
        "channel": 10,
        "controlChanges": {
          "6": [
            {
              "number": 6,
              "ticks": 651,
              "time": 0.9462203625,
              "value": 0.015748031496062992
            }
          ],
          "7": [
            {
              "number": 7,
              "ticks": 497,
              "time": 0.7223832875,
              "value": 0.5511811023622047
            }
          ],
          "10": [
            {
              "number": 10,
              "ticks": 497,
              "time": 0.7223832875,
              "value": 0.5039370078740157
            }
          ],
          "11": [
            {
              "number": 11,
              "ticks": 535,
              "time": 0.7776158125,
              "value": 1
            }
          ],
          "38": [
            {
              "number": 38,
              "ticks": 652,
              "time": 0.94767385,
              "value": 0
            }
          ],
          "91": [
            {
              "number": 91,
              "ticks": 497,
              "time": 0.7223832875,
              "value": 0.6299212598425197
            }
          ],
          "93": [
            {
              "number": 93,
              "ticks": 497,
              "time": 0.7223832875,
              "value": 0.07874015748031496
            }
          ],
          "100": [
            {
              "number": 100,
              "ticks": 650,
              "time": 0.9447668750000001,
              "value": 0
            }
          ],
          "101": [
            {
              "number": 101,
              "ticks": 649,
              "time": 0.9433133875,
              "value": 0
            }
          ],
          "120": [
            {
              "number": 120,
              "ticks": 28755,
              "time": 41.661272562499995,
              "value": 0
            }
          ],
          "123": [
            {
              "number": 123,
              "ticks": 28680,
              "time": 41.5509785,
              "value": 0
            }
          ]
        },
        "pitchBends": [],
        "instrument": {
          "family": "synth pad",
          "number": 95,
          "name": "pad 8 (sweep)"
        },
        "name": "",
        "notes": [
          {
            "duration": 0.49999970000000005,
            "durationTicks": 344,
            "midi": 80,
            "name": "G#5",
            "ticks": 2160,
            "time": 3.139533,
            "velocity": 0.8188976377952756
          },
          {
            "duration": 0.1642440875000002,
            "durationTicks": 113,
            "midi": 80,
            "name": "G#5",
            "ticks": 2520,
            "time": 3.6627885,
            "velocity": 0.6929133858267716
          },
          {
            "duration": 0.17296501249999974,
            "durationTicks": 119,
            "midi": 80,
            "name": "G#5",
            "ticks": 2640,
            "time": 3.8372070000000003,
            "velocity": 0.8188976377952756
          },
          {
            "duration": 0.19040686249999972,
            "durationTicks": 131,
            "midi": 77,
            "name": "F5",
            "ticks": 2760,
            "time": 4.0116255,
            "velocity": 0.7795275590551181
          },
          {
            "duration": 0.15116270000000043,
            "durationTicks": 104,
            "midi": 75,
            "name": "D#5",
            "ticks": 2880,
            "time": 4.186044,
            "velocity": 0.7401574803149606
          },
          {
            "duration": 0.18313942500000024,
            "durationTicks": 126,
            "midi": 72,
            "name": "C5",
            "ticks": 3000,
            "time": 4.3604625,
            "velocity": 0.7165354330708661
          },
          {
            "duration": 0.34302304999999933,
            "durationTicks": 236,
            "midi": 70,
            "name": "A#4",
            "ticks": 3120,
            "time": 4.534881,
            "velocity": 0.7874015748031497
          },
          {
            "duration": 0.5101741125000006,
            "durationTicks": 351,
            "midi": 70,
            "name": "A#4",
            "ticks": 3360,
            "time": 4.883718,
            "velocity": 0.7637795275590551
          },
          {
            "duration": 0.5247089874999995,
            "durationTicks": 361,
            "midi": 72,
            "name": "C5",
            "ticks": 3720,
            "time": 5.4069735,
            "velocity": 0.7244094488188977
          },
          {
            "duration": 0.5305229374999998,
            "durationTicks": 365,
            "midi": 75,
            "name": "D#5",
            "ticks": 4080,
            "time": 5.930229,
            "velocity": 0.7795275590551181
          },
          {
            "duration": 0.16133711249999916,
            "durationTicks": 111,
            "midi": 75,
            "name": "D#5",
            "ticks": 4440,
            "time": 6.4534845,
            "velocity": 0.7716535433070866
          },
          {
            "duration": 0.3546509499999999,
            "durationTicks": 244,
            "midi": 75,
            "name": "D#5",
            "ticks": 4560,
            "time": 6.627903,
            "velocity": 0.8188976377952756
          },
          {
            "duration": 0.1686045500000004,
            "durationTicks": 116,
            "midi": 70,
            "name": "A#4",
            "ticks": 4800,
            "time": 6.97674,
            "velocity": 0.6535433070866141
          },
          {
            "duration": 0.1642440875000002,
            "durationTicks": 113,
            "midi": 72,
            "name": "C5",
            "ticks": 4920,
            "time": 7.1511585,
            "velocity": 0.7716535433070866
          },
          {
            "duration": 0.3561044375,
            "durationTicks": 245,
            "midi": 65,
            "name": "F4",
            "ticks": 5040,
            "time": 7.325577,
            "velocity": 0.8188976377952756
          },
          {
            "duration": 0.5145345750000008,
            "durationTicks": 354,
            "midi": 70,
            "name": "A#4",
            "ticks": 5280,
            "time": 7.6744140000000005,
            "velocity": 0.7559055118110236
          },
          {
            "duration": 0.5039638666666661,
            "durationTicks": 352,
            "midi": 72,
            "name": "C5",
            "ticks": 5640,
            "time": 8.1976695,
            "velocity": 0.7874015748031497
          },
          {
            "duration": 0.5170453166666658,
            "durationTicks": 364,
            "midi": 75,
            "name": "D#5",
            "ticks": 6000,
            "time": 8.712997,
            "velocity": 0.7874015748031497
          },
          {
            "duration": 0.17897722500000057,
            "durationTicks": 126,
            "midi": 75,
            "name": "D#5",
            "ticks": 6360,
            "time": 9.2243605,
            "velocity": 0.7322834645669292
          },
          {
            "duration": 0.1534090500000005,
            "durationTicks": 108,
            "midi": 75,
            "name": "D#5",
            "ticks": 6480,
            "time": 9.394815,
            "velocity": 0.7401574803149606
          },
          {
            "duration": 0.167613591666667,
            "durationTicks": 118,
            "midi": 72,
            "name": "C5",
            "ticks": 6600,
            "time": 9.5652695,
            "velocity": 0.5984251968503937
          },
          {
            "duration": 0.18181813333333352,
            "durationTicks": 128,
            "midi": 70,
            "name": "A#4",
            "ticks": 6720,
            "time": 9.735724,
            "velocity": 0.7874015748031497
          },
          {
            "duration": 0.167613591666667,
            "durationTicks": 118,
            "midi": 68,
            "name": "G#4",
            "ticks": 6840,
            "time": 9.9061785,
            "velocity": 0.6692913385826772
          },
          {
            "duration": 0.3124999166666669,
            "durationTicks": 220,
            "midi": 65,
            "name": "F4",
            "ticks": 6960,
            "time": 10.076633,
            "velocity": 0.7716535433070866
          },
          {
            "duration": 0.5127839541666663,
            "durationTicks": 361,
            "midi": 70,
            "name": "A#4",
            "ticks": 7200,
            "time": 10.417542,
            "velocity": 0.7874015748031497
          },
          {
            "duration": 0.5352798624999995,
            "durationTicks": 371,
            "midi": 72,
            "name": "C5",
            "ticks": 7560,
            "time": 10.928905499999999,
            "velocity": 0.7795275590551181
          },
          {
            "duration": 0.5130810874999998,
            "durationTicks": 353,
            "midi": 80,
            "name": "G#5",
            "ticks": 7920,
            "time": 11.448196999999999,
            "velocity": 0.8188976377952756
          },
          {
            "duration": 0.17877896249999914,
            "durationTicks": 123,
            "midi": 80,
            "name": "G#5",
            "ticks": 8280,
            "time": 11.9714525,
            "velocity": 0.8188976377952756
          },
          {
            "duration": 0.16860454999999952,
            "durationTicks": 116,
            "midi": 80,
            "name": "G#5",
            "ticks": 8400,
            "time": 12.145871,
            "velocity": 0.7401574803149606
          },
          {
            "duration": 0.15988362499999909,
            "durationTicks": 110,
            "midi": 77,
            "name": "F5",
            "ticks": 8520,
            "time": 12.3202895,
            "velocity": 0.6456692913385826
          },
          {
            "duration": 0.1584301374999999,
            "durationTicks": 109,
            "midi": 75,
            "name": "D#5",
            "ticks": 8640,
            "time": 12.494708,
            "velocity": 0.7480314960629921
          },
          {
            "duration": 0.17877896249999914,
            "durationTicks": 123,
            "midi": 72,
            "name": "C5",
            "ticks": 8760,
            "time": 12.669126499999999,
            "velocity": 0.6929133858267716
          },
          {
            "duration": 0.3386625875,
            "durationTicks": 233,
            "midi": 70,
            "name": "A#4",
            "ticks": 8880,
            "time": 12.843544999999999,
            "velocity": 0.7637795275590551
          },
          {
            "duration": 0.5479647874999998,
            "durationTicks": 377,
            "midi": 75,
            "name": "D#5",
            "ticks": 9120,
            "time": 13.192381999999998,
            "velocity": 0.8188976377952756
          },
          {
            "duration": 0.5159880625,
            "durationTicks": 355,
            "midi": 77,
            "name": "F5",
            "ticks": 9480,
            "time": 13.7156375,
            "velocity": 0.7874015748031497
          },
          {
            "duration": 0.5130810874999998,
            "durationTicks": 353,
            "midi": 80,
            "name": "G#5",
            "ticks": 9840,
            "time": 14.238893,
            "velocity": 0.8188976377952756
          },
          {
            "duration": 0.16569757499999938,
            "durationTicks": 114,
            "midi": 80,
            "name": "G#5",
            "ticks": 10200,
            "time": 14.762148499999999,
            "velocity": 0.7086614173228346
          },
          {
            "duration": 0.175871987499999,
            "durationTicks": 121,
            "midi": 80,
            "name": "G#5",
            "ticks": 10320,
            "time": 14.936567,
            "velocity": 0.7874015748031497
          },
          {
            "duration": 0.15406967500000057,
            "durationTicks": 106,
            "midi": 77,
            "name": "F5",
            "ticks": 10440,
            "time": 15.110985499999998,
            "velocity": 0.6771653543307087
          },
          {
            "duration": 0.17732547499999995,
            "durationTicks": 122,
            "midi": 75,
            "name": "D#5",
            "ticks": 10560,
            "time": 15.285404,
            "velocity": 0.7559055118110236
          },
          {
            "duration": 0.18313942500000024,
            "durationTicks": 126,
            "midi": 72,
            "name": "C5",
            "ticks": 10680,
            "time": 15.459822499999998,
            "velocity": 0.7559055118110236
          },
          {
            "duration": 0.33575561249999986,
            "durationTicks": 231,
            "midi": 70,
            "name": "A#4",
            "ticks": 10800,
            "time": 15.634241,
            "velocity": 0.7716535433070866
          },
          {
            "duration": 0.5348833999999982,
            "durationTicks": 368,
            "midi": 70,
            "name": "A#4",
            "ticks": 11040,
            "time": 15.983077999999999,
            "velocity": 0.7874015748031497
          },
          {
            "duration": 0.512486591666665,
            "durationTicks": 358,
            "midi": 72,
            "name": "C5",
            "ticks": 11400,
            "time": 16.5063335,
            "velocity": 0.7637795275590551
          },
          {
            "duration": 0.49147714166666745,
            "durationTicks": 346,
            "midi": 75,
            "name": "D#5",
            "ticks": 11760,
            "time": 17.021660999999998,
            "velocity": 0.7637795275590551
          },
          {
            "duration": 0.18181813333333352,
            "durationTicks": 128,
            "midi": 75,
            "name": "D#5",
            "ticks": 12120,
            "time": 17.5330245,
            "velocity": 0.7086614173228346
          },
          {
            "duration": 0.490056687500001,
            "durationTicks": 345,
            "midi": 75,
            "name": "D#5",
            "ticks": 12240,
            "time": 17.703478999999998,
            "velocity": 0.7637795275590551
          },
          {
            "duration": 0.17329540833333112,
            "durationTicks": 122,
            "midi": 75,
            "name": "D#5",
            "ticks": 12600,
            "time": 18.2148425,
            "velocity": 0.7165354330708661
          },
          {
            "duration": 0.3295453666666681,
            "durationTicks": 232,
            "midi": 75,
            "name": "D#5",
            "ticks": 12720,
            "time": 18.385296999999998,
            "velocity": 0.7795275590551181
          },
          {
            "duration": 0.5255680416666664,
            "durationTicks": 370,
            "midi": 70,
            "name": "A#4",
            "ticks": 12960,
            "time": 18.726205999999998,
            "velocity": 0.7637795275590551
          },
          {
            "duration": 0.49894267499999856,
            "durationTicks": 346,
            "midi": 72,
            "name": "C5",
            "ticks": 13320,
            "time": 19.2375695,
            "velocity": 0.7716535433070866
          },
          {
            "duration": 0.5392438625000011,
            "durationTicks": 371,
            "midi": 75,
            "name": "D#5",
            "ticks": 13680,
            "time": 19.756860999999997,
            "velocity": 0.8031496062992126
          },
          {
            "duration": 0.16133711250000005,
            "durationTicks": 111,
            "midi": 75,
            "name": "D#5",
            "ticks": 14040,
            "time": 20.2801165,
            "velocity": 0.7322834645669292
          },
          {
            "duration": 0.1686045500000013,
            "durationTicks": 116,
            "midi": 75,
            "name": "D#5",
            "ticks": 14160,
            "time": 20.454534999999996,
            "velocity": 0.6850393700787402
          },
          {
            "duration": 0.16424408749999841,
            "durationTicks": 113,
            "midi": 72,
            "name": "C5",
            "ticks": 14280,
            "time": 20.628953499999998,
            "velocity": 0.7322834645669292
          },
          {
            "duration": 0.16715106250000034,
            "durationTicks": 115,
            "midi": 70,
            "name": "A#4",
            "ticks": 14400,
            "time": 20.803371999999996,
            "velocity": 0.7637795275590551
          },
          {
            "duration": 0.17296501250000063,
            "durationTicks": 119,
            "midi": 72,
            "name": "C5",
            "ticks": 14520,
            "time": 20.977790499999998,
            "velocity": 0.6929133858267716
          },
          {
            "duration": 0.3706393124999998,
            "durationTicks": 255,
            "midi": 65,
            "name": "F4",
            "ticks": 14640,
            "time": 21.152209,
            "velocity": 0.7795275590551181
          },
          {
            "duration": 0.5043601624999994,
            "durationTicks": 347,
            "midi": 75,
            "name": "D#5",
            "ticks": 14880,
            "time": 21.501046,
            "velocity": 0.7559055118110236
          },
          {
            "duration": 0.48401133750000014,
            "durationTicks": 333,
            "midi": 77,
            "name": "F5",
            "ticks": 15240,
            "time": 22.024301499999996,
            "velocity": 0.7795275590551181
          },
          {
            "duration": 0.49999970000000005,
            "durationTicks": 344,
            "midi": 80,
            "name": "G#5",
            "ticks": 15600,
            "time": 22.547556999999998,
            "velocity": 0.8188976377952756
          },
          {
            "duration": 0.17441849999999803,
            "durationTicks": 120,
            "midi": 80,
            "name": "G#5",
            "ticks": 15960,
            "time": 23.0708125,
            "velocity": 0.6929133858267716
          },
          {
            "duration": 0.34593002500000125,
            "durationTicks": 238,
            "midi": 80,
            "name": "G#5",
            "ticks": 16080,
            "time": 23.245230999999997,
            "velocity": 0.8188976377952756
          },
          {
            "duration": 0.35610443750000087,
            "durationTicks": 245,
            "midi": 77,
            "name": "F5",
            "ticks": 16320,
            "time": 23.594067999999996,
            "velocity": 0.7795275590551181
          },
          {
            "duration": 0.3444765375000003,
            "durationTicks": 237,
            "midi": 75,
            "name": "D#5",
            "ticks": 16560,
            "time": 23.942904999999996,
            "velocity": 0.7874015748031497
          },
          {
            "duration": 0.5101741124999997,
            "durationTicks": 351,
            "midi": 80,
            "name": "G#5",
            "ticks": 16800,
            "time": 24.291742,
            "velocity": 0.7637795275590551
          },
          {
            "duration": 0.5305229375000025,
            "durationTicks": 365,
            "midi": 77,
            "name": "F5",
            "ticks": 17160,
            "time": 24.814997499999997,
            "velocity": 0.7244094488188977
          },
          {
            "duration": 0.49999970000000005,
            "durationTicks": 344,
            "midi": 80,
            "name": "G#5",
            "ticks": 17520,
            "time": 25.338252999999998,
            "velocity": 0.8188976377952756
          },
          {
            "duration": 0.16424408749999841,
            "durationTicks": 113,
            "midi": 80,
            "name": "G#5",
            "ticks": 17880,
            "time": 25.8615085,
            "velocity": 0.6929133858267716
          },
          {
            "duration": 0.17296501250000063,
            "durationTicks": 119,
            "midi": 80,
            "name": "G#5",
            "ticks": 18000,
            "time": 26.035926999999997,
            "velocity": 0.8188976377952756
          },
          {
            "duration": 0.19040686249999794,
            "durationTicks": 131,
            "midi": 77,
            "name": "F5",
            "ticks": 18120,
            "time": 26.2103455,
            "velocity": 0.7795275590551181
          },
          {
            "duration": 0.15116270000000043,
            "durationTicks": 104,
            "midi": 75,
            "name": "D#5",
            "ticks": 18240,
            "time": 26.384763999999997,
            "velocity": 0.7401574803149606
          },
          {
            "duration": 0.18313942500000024,
            "durationTicks": 126,
            "midi": 72,
            "name": "C5",
            "ticks": 18360,
            "time": 26.5591825,
            "velocity": 0.7165354330708661
          },
          {
            "duration": 0.3430230500000029,
            "durationTicks": 236,
            "midi": 70,
            "name": "A#4",
            "ticks": 18480,
            "time": 26.733600999999997,
            "velocity": 0.7874015748031497
          },
          {
            "duration": 0.5101741125000032,
            "durationTicks": 351,
            "midi": 70,
            "name": "A#4",
            "ticks": 18720,
            "time": 27.082437999999996,
            "velocity": 0.7637795275590551
          },
          {
            "duration": 0.5167479541666644,
            "durationTicks": 361,
            "midi": 72,
            "name": "C5",
            "ticks": 19080,
            "time": 27.605693499999997,
            "velocity": 0.7244094488188977
          },
          {
            "duration": 0.518465770833334,
            "durationTicks": 365,
            "midi": 75,
            "name": "D#5",
            "ticks": 19440,
            "time": 28.121020999999995,
            "velocity": 0.7795275590551181
          },
          {
            "duration": 0.1576704124999999,
            "durationTicks": 111,
            "midi": 75,
            "name": "D#5",
            "ticks": 19800,
            "time": 28.632384499999997,
            "velocity": 0.7716535433070866
          },
          {
            "duration": 0.3466561249999991,
            "durationTicks": 244,
            "midi": 75,
            "name": "D#5",
            "ticks": 19920,
            "time": 28.802838999999995,
            "velocity": 0.8188976377952756
          },
          {
            "duration": 0.1666666250000013,
            "durationTicks": 116,
            "midi": 70,
            "name": "A#4",
            "ticks": 20160,
            "time": 29.143747999999995,
            "velocity": 0.6535433070866141
          },
          {
            "duration": 0.16235628124999835,
            "durationTicks": 113,
            "midi": 72,
            "name": "C5",
            "ticks": 20280,
            "time": 29.316161749999996,
            "velocity": 0.7716535433070866
          },
          {
            "duration": 0.35201140624999994,
            "durationTicks": 245,
            "midi": 65,
            "name": "F4",
            "ticks": 20400,
            "time": 29.488575499999996,
            "velocity": 0.8188976377952756
          },
          {
            "duration": 0.5086205625000026,
            "durationTicks": 354,
            "midi": 70,
            "name": "A#4",
            "ticks": 20640,
            "time": 29.833402999999993,
            "velocity": 0.7559055118110236
          },
          {
            "duration": 0.5135900500000012,
            "durationTicks": 352,
            "midi": 72,
            "name": "C5",
            "ticks": 21000,
            "time": 30.350644249999995,
            "velocity": 0.7874015748031497
          },
          {
            "duration": 0.5352938499999986,
            "durationTicks": 364,
            "midi": 75,
            "name": "D#5",
            "ticks": 21360,
            "time": 30.875998999999997,
            "velocity": 0.7874015748031497
          },
          {
            "duration": 0.18529402500000103,
            "durationTicks": 126,
            "midi": 75,
            "name": "D#5",
            "ticks": 21720,
            "time": 31.405410499999995,
            "velocity": 0.7322834645669292
          },
          {
            "duration": 0.15882344999999987,
            "durationTicks": 108,
            "midi": 75,
            "name": "D#5",
            "ticks": 21840,
            "time": 31.581880999999996,
            "velocity": 0.7401574803149606
          },
          {
            "duration": 0.1735293250000005,
            "durationTicks": 118,
            "midi": 72,
            "name": "C5",
            "ticks": 21960,
            "time": 31.758351499999996,
            "velocity": 0.5984251968503937
          },
          {
            "duration": 0.18823520000000116,
            "durationTicks": 128,
            "midi": 70,
            "name": "A#4",
            "ticks": 22080,
            "time": 31.934821999999997,
            "velocity": 0.7874015748031497
          },
          {
            "duration": 0.17352932499999696,
            "durationTicks": 118,
            "midi": 68,
            "name": "G#4",
            "ticks": 22200,
            "time": 32.1112925,
            "velocity": 0.6692913385826772
          },
          {
            "duration": 0.32352925,
            "durationTicks": 220,
            "midi": 65,
            "name": "F4",
            "ticks": 22320,
            "time": 32.287763,
            "velocity": 0.7716535433070866
          },
          {
            "duration": 0.5308820875000038,
            "durationTicks": 361,
            "midi": 70,
            "name": "A#4",
            "ticks": 22560,
            "time": 32.64070399999999,
            "velocity": 0.7874015748031497
          },
          {
            "duration": 0.5412958625000002,
            "durationTicks": 371,
            "midi": 72,
            "name": "C5",
            "ticks": 22920,
            "time": 33.170115499999994,
            "velocity": 0.7795275590551181
          },
          {
            "duration": 0.513081087499998,
            "durationTicks": 353,
            "midi": 80,
            "name": "G#5",
            "ticks": 23280,
            "time": 33.695423,
            "velocity": 0.8188976377952756
          },
          {
            "duration": 0.17877896249999736,
            "durationTicks": 123,
            "midi": 80,
            "name": "G#5",
            "ticks": 23640,
            "time": 34.218678499999996,
            "velocity": 0.8188976377952756
          },
          {
            "duration": 0.16860454999999774,
            "durationTicks": 116,
            "midi": 80,
            "name": "G#5",
            "ticks": 23760,
            "time": 34.393097,
            "velocity": 0.7401574803149606
          },
          {
            "duration": 0.1598836250000062,
            "durationTicks": 110,
            "midi": 77,
            "name": "F5",
            "ticks": 23880,
            "time": 34.56751549999999,
            "velocity": 0.6456692913385826
          },
          {
            "duration": 0.15843013749999812,
            "durationTicks": 109,
            "midi": 75,
            "name": "D#5",
            "ticks": 24000,
            "time": 34.74193399999999,
            "velocity": 0.7480314960629921
          },
          {
            "duration": 0.17877896249999736,
            "durationTicks": 123,
            "midi": 72,
            "name": "C5",
            "ticks": 24120,
            "time": 34.916352499999995,
            "velocity": 0.6929133858267716
          },
          {
            "duration": 0.33866258749999645,
            "durationTicks": 233,
            "midi": 70,
            "name": "A#4",
            "ticks": 24240,
            "time": 35.090771,
            "velocity": 0.7637795275590551
          },
          {
            "duration": 0.5479647874999998,
            "durationTicks": 377,
            "midi": 75,
            "name": "D#5",
            "ticks": 24480,
            "time": 35.43960799999999,
            "velocity": 0.8188976377952756
          },
          {
            "duration": 0.5159880625,
            "durationTicks": 355,
            "midi": 77,
            "name": "F5",
            "ticks": 24840,
            "time": 35.9628635,
            "velocity": 0.7874015748031497
          },
          {
            "duration": 0.5111932812500015,
            "durationTicks": 353,
            "midi": 80,
            "name": "G#5",
            "ticks": 25200,
            "time": 36.486118999999995,
            "velocity": 0.7952755905511811
          },
          {
            "duration": 0.16379306250000525,
            "durationTicks": 114,
            "midi": 80,
            "name": "G#5",
            "ticks": 25560,
            "time": 37.007369749999995,
            "velocity": 0.7165354330708661
          },
          {
            "duration": 0.17385053124999672,
            "durationTicks": 121,
            "midi": 80,
            "name": "G#5",
            "ticks": 25680,
            "time": 37.1797835,
            "velocity": 0.6141732283464567
          },
          {
            "duration": 0.15229881249999977,
            "durationTicks": 106,
            "midi": 77,
            "name": "F5",
            "ticks": 25800,
            "time": 37.352197249999996,
            "velocity": 0.5826771653543307
          },
          {
            "duration": 0.17528731249999652,
            "durationTicks": 122,
            "midi": 75,
            "name": "D#5",
            "ticks": 25920,
            "time": 37.524611,
            "velocity": 0.5433070866141733
          },
          {
            "duration": 0.1810344375000028,
            "durationTicks": 126,
            "midi": 72,
            "name": "C5",
            "ticks": 26040,
            "time": 37.69702475,
            "velocity": 0.49606299212598426
          },
          {
            "duration": 0.3318964687499957,
            "durationTicks": 231,
            "midi": 70,
            "name": "A#4",
            "ticks": 26160,
            "time": 37.8694385,
            "velocity": 0.4409448818897638
          },
          {
            "duration": 0.6724136250000043,
            "durationTicks": 468,
            "midi": 70,
            "name": "A#4",
            "ticks": 26400,
            "time": 38.214265999999995,
            "velocity": 0.2992125984251969
          }
        ]
      },
      {
        "channel": 0,
        "controlChanges": {
          "0": [
            {
              "number": 0,
              "ticks": 496,
              "time": 0.7209298000000001,
              "value": 0
            }
          ],
          "32": [
            {
              "number": 32,
              "ticks": 496,
              "time": 0.7209298000000001,
              "value": 0
            }
          ]
        },
        "pitchBends": [],
        "instrument": {
          "family": "piano",
          "number": 0,
          "name": "acoustic grand piano"
        },
        "name": "Strawberry Swing (MIDI DEMO)",
        "notes": [],
        "endOfTrackTicks": 28800
      },
      {
        "channel": 11,
        "controlChanges": {
          "6": [
            {
              "number": 6,
              "ticks": 651,
              "time": 0.9462203625,
              "value": 0.015748031496062992
            }
          ],
          "7": [
            {
              "number": 7,
              "ticks": 497,
              "time": 0.7223832875,
              "value": 0.6299212598425197
            }
          ],
          "10": [
            {
              "number": 10,
              "ticks": 497,
              "time": 0.7223832875,
              "value": 0.3464566929133858
            }
          ],
          "11": [
            {
              "number": 11,
              "ticks": 535,
              "time": 0.7776158125,
              "value": 1
            }
          ],
          "38": [
            {
              "number": 38,
              "ticks": 652,
              "time": 0.94767385,
              "value": 0
            }
          ],
          "91": [
            {
              "number": 91,
              "ticks": 497,
              "time": 0.7223832875,
              "value": 0.31496062992125984
            }
          ],
          "93": [
            {
              "number": 93,
              "ticks": 497,
              "time": 0.7223832875,
              "value": 0.07874015748031496
            }
          ],
          "100": [
            {
              "number": 100,
              "ticks": 650,
              "time": 0.9447668750000001,
              "value": 0
            }
          ],
          "101": [
            {
              "number": 101,
              "ticks": 649,
              "time": 0.9433133875,
              "value": 0
            }
          ],
          "120": [
            {
              "number": 120,
              "ticks": 28755,
              "time": 41.661272562499995,
              "value": 0
            }
          ],
          "123": [
            {
              "number": 123,
              "ticks": 28680,
              "time": 41.5509785,
              "value": 0
            }
          ]
        },
        "pitchBends": [
          {
            "ticks": 1920,
            "time": 2.790696,
            "value": 0
          },
          {
            "ticks": 3697,
            "time": 5.3735432875,
            "value": -0.0001220703125
          },
          {
            "ticks": 3750,
            "time": 5.450578125,
            "value": 0.0616455078125
          },
          {
            "ticks": 3812,
            "time": 5.54069435,
            "value": 0.1109619140625
          },
          {
            "ticks": 3840,
            "time": 5.581392,
            "value": 0
          },
          {
            "ticks": 5617,
            "time": 8.1642392875,
            "value": -0.0001220703125
          },
          {
            "ticks": 5670,
            "time": 8.241274125,
            "value": 0.0616455078125
          },
          {
            "ticks": 5732,
            "time": 8.33139035,
            "value": 0.1109619140625
          },
          {
            "ticks": 5760,
            "time": 8.372088,
            "value": 0
          },
          {
            "ticks": 7537,
            "time": 10.896235054166667,
            "value": -0.0001220703125
          },
          {
            "ticks": 7590,
            "time": 10.971519125,
            "value": 0.0616455078125
          },
          {
            "ticks": 7652,
            "time": 11.059587283333332,
            "value": 0.1109619140625
          },
          {
            "ticks": 7680,
            "time": 11.099359999999999,
            "value": 0
          },
          {
            "ticks": 9457,
            "time": 13.682207287499999,
            "value": -0.0001220703125
          },
          {
            "ticks": 9510,
            "time": 13.759242125,
            "value": 0.0616455078125
          },
          {
            "ticks": 9572,
            "time": 13.84935835,
            "value": 0.1109619140625
          },
          {
            "ticks": 9600,
            "time": 13.890056,
            "value": 0
          },
          {
            "ticks": 11377,
            "time": 16.4729032875,
            "value": -0.0001220703125
          },
          {
            "ticks": 11430,
            "time": 16.549938124999997,
            "value": 0.0616455078125
          },
          {
            "ticks": 11492,
            "time": 16.64005435,
            "value": 0.1109619140625
          },
          {
            "ticks": 11520,
            "time": 16.680752,
            "value": 0
          },
          {
            "ticks": 13297,
            "time": 19.204899054166663,
            "value": -0.0001220703125
          },
          {
            "ticks": 13350,
            "time": 19.280183124999997,
            "value": 0.0616455078125
          },
          {
            "ticks": 13412,
            "time": 19.368251283333333,
            "value": 0.1109619140625
          },
          {
            "ticks": 13440,
            "time": 19.408023999999997,
            "value": 0
          },
          {
            "ticks": 15217,
            "time": 21.9908712875,
            "value": -0.0001220703125
          },
          {
            "ticks": 15270,
            "time": 22.067906124999997,
            "value": 0.0616455078125
          },
          {
            "ticks": 15332,
            "time": 22.158022349999996,
            "value": 0.1109619140625
          },
          {
            "ticks": 15360,
            "time": 22.198719999999998,
            "value": 0
          },
          {
            "ticks": 17137,
            "time": 24.781567287499996,
            "value": -0.0001220703125
          },
          {
            "ticks": 17190,
            "time": 24.858602124999997,
            "value": 0.0616455078125
          },
          {
            "ticks": 17252,
            "time": 24.948718349999996,
            "value": 0.1109619140625
          },
          {
            "ticks": 17279,
            "time": 24.987962512499998,
            "value": 0
          },
          {
            "ticks": 17280,
            "time": 24.989416,
            "value": 0
          },
          {
            "ticks": 19057,
            "time": 27.572263287499997,
            "value": -0.0001220703125
          },
          {
            "ticks": 19110,
            "time": 27.649298124999998,
            "value": 0.0616455078125
          },
          {
            "ticks": 19172,
            "time": 27.739414349999997,
            "value": 0.1109619140625
          },
          {
            "ticks": 19200,
            "time": 27.780111999999995,
            "value": 0
          },
          {
            "ticks": 20977,
            "time": 30.317598281249996,
            "value": -0.0001220703125
          },
          {
            "ticks": 21030,
            "time": 30.393747687499996,
            "value": 0.0616455078125
          },
          {
            "ticks": 21092,
            "time": 30.482828124999994,
            "value": 0.1109619140625
          },
          {
            "ticks": 21120,
            "time": 30.523057999999995,
            "value": 0
          },
          {
            "ticks": 22897,
            "time": 33.136291987499995,
            "value": -0.0001220703125
          },
          {
            "ticks": 22950,
            "time": 33.21423312499999,
            "value": 0.0616455078125
          },
          {
            "ticks": 23012,
            "time": 33.30540954999999,
            "value": 0.1109619140625
          },
          {
            "ticks": 23040,
            "time": 33.346585999999995,
            "value": 0
          },
          {
            "ticks": 24817,
            "time": 35.9294332875,
            "value": -0.0001220703125
          },
          {
            "ticks": 24870,
            "time": 36.006468125,
            "value": 0.0616455078125
          },
          {
            "ticks": 24932,
            "time": 36.09658434999999,
            "value": 0.1109619140625
          },
          {
            "ticks": 24960,
            "time": 36.13728199999999,
            "value": 0
          },
          {
            "ticks": 26737,
            "time": 38.69846128125,
            "value": -0.0001220703125
          },
          {
            "ticks": 26790,
            "time": 38.7746106875,
            "value": 0.0616455078125
          },
          {
            "ticks": 26852,
            "time": 38.863691124999995,
            "value": 0.1109619140625
          }
        ],
        "instrument": {
          "family": "guitar",
          "number": 27,
          "name": "acoustic guitar (nylon)"
        },
        "name": "",
        "notes": [
          {
            "duration": 0.5188950375000001,
            "durationTicks": 357,
            "midi": 68,
            "name": "G#4",
            "ticks": 1920,
            "time": 2.790696,
            "velocity": 0.8188976377952756
          },
          {
            "duration": 0.1715115250000001,
            "durationTicks": 118,
            "midi": 68,
            "name": "G#4",
            "ticks": 2280,
            "time": 3.3139515,
            "velocity": 0.6614173228346457
          },
          {
            "duration": 0.1715115250000001,
            "durationTicks": 118,
            "midi": 68,
            "name": "G#4",
            "ticks": 2400,
            "time": 3.48837,
            "velocity": 0.7795275590551181
          },
          {
            "duration": 0.17296501250000018,
            "durationTicks": 119,
            "midi": 65,
            "name": "F4",
            "ticks": 2520,
            "time": 3.6627885,
            "velocity": 0.7165354330708661
          },
          {
            "duration": 0.0843022750000002,
            "durationTicks": 58,
            "midi": 63,
            "name": "D#4",
            "ticks": 2640,
            "time": 3.8372070000000003,
            "velocity": 0.49606299212598426
          },
          {
            "duration": 0.10174412499999974,
            "durationTicks": 70,
            "midi": 65,
            "name": "F4",
            "ticks": 2700,
            "time": 3.92441625,
            "velocity": 0.7559055118110236
          },
          {
            "duration": 0.07703483750000029,
            "durationTicks": 53,
            "midi": 63,
            "name": "D#4",
            "ticks": 2760,
            "time": 4.0116255,
            "velocity": 0.6377952755905512
          },
          {
            "duration": 0.07848832500000036,
            "durationTicks": 54,
            "midi": 60,
            "name": "C4",
            "ticks": 2820,
            "time": 4.09883475,
            "velocity": 0.4330708661417323
          },
          {
            "duration": 0.35610443750000087,
            "durationTicks": 245,
            "midi": 58,
            "name": "A#3",
            "ticks": 2880,
            "time": 4.186044,
            "velocity": 0.7559055118110236
          },
          {
            "duration": 0.5029066749999993,
            "durationTicks": 346,
            "midi": 58,
            "name": "A#3",
            "ticks": 3120,
            "time": 4.534881,
            "velocity": 0.8188976377952756
          },
          {
            "duration": 0.5276159624999996,
            "durationTicks": 363,
            "midi": 60,
            "name": "C4",
            "ticks": 3480,
            "time": 5.0581365,
            "velocity": 0.7401574803149606
          },
          {
            "duration": 0.5188950375000001,
            "durationTicks": 357,
            "midi": 63,
            "name": "D#4",
            "ticks": 3840,
            "time": 5.581392,
            "velocity": 0.8188976377952756
          },
          {
            "duration": 0.17151152499999966,
            "durationTicks": 118,
            "midi": 63,
            "name": "D#4",
            "ticks": 4200,
            "time": 6.1046475000000004,
            "velocity": 0.6614173228346457
          },
          {
            "duration": 0.17151152499999966,
            "durationTicks": 118,
            "midi": 63,
            "name": "D#4",
            "ticks": 4320,
            "time": 6.279066,
            "velocity": 0.7795275590551181
          },
          {
            "duration": 0.17296501249999974,
            "durationTicks": 119,
            "midi": 60,
            "name": "C4",
            "ticks": 4440,
            "time": 6.4534845,
            "velocity": 0.7165354330708661
          },
          {
            "duration": 0.08430227500000065,
            "durationTicks": 58,
            "midi": 58,
            "name": "A#3",
            "ticks": 4560,
            "time": 6.627903,
            "velocity": 0.49606299212598426
          },
          {
            "duration": 0.10174412500000063,
            "durationTicks": 70,
            "midi": 60,
            "name": "C4",
            "ticks": 4620,
            "time": 6.71511225,
            "velocity": 0.7559055118110236
          },
          {
            "duration": 0.07703483750000029,
            "durationTicks": 53,
            "midi": 58,
            "name": "A#3",
            "ticks": 4680,
            "time": 6.802321500000001,
            "velocity": 0.6377952755905512
          },
          {
            "duration": 0.07848832500000036,
            "durationTicks": 54,
            "midi": 56,
            "name": "G#3",
            "ticks": 4740,
            "time": 6.8895307500000005,
            "velocity": 0.4330708661417323
          },
          {
            "duration": 0.3561044374999991,
            "durationTicks": 245,
            "midi": 53,
            "name": "F3",
            "ticks": 4800,
            "time": 6.97674,
            "velocity": 0.7559055118110236
          },
          {
            "duration": 0.5029066750000002,
            "durationTicks": 346,
            "midi": 58,
            "name": "A#3",
            "ticks": 5040,
            "time": 7.325577,
            "velocity": 0.8188976377952756
          },
          {
            "duration": 0.5275168624999989,
            "durationTicks": 363,
            "midi": 60,
            "name": "C4",
            "ticks": 5400,
            "time": 7.8488325,
            "velocity": 0.7401574803149606
          },
          {
            "duration": 0.5071021375000004,
            "durationTicks": 357,
            "midi": 63,
            "name": "D#4",
            "ticks": 5760,
            "time": 8.372088,
            "velocity": 0.8188976377952756
          },
          {
            "duration": 0.167613591666667,
            "durationTicks": 118,
            "midi": 63,
            "name": "D#4",
            "ticks": 6120,
            "time": 8.8834515,
            "velocity": 0.6614173228346457
          },
          {
            "duration": 0.167613591666667,
            "durationTicks": 118,
            "midi": 63,
            "name": "D#4",
            "ticks": 6240,
            "time": 9.053906,
            "velocity": 0.7795275590551181
          },
          {
            "duration": 0.16903404583333348,
            "durationTicks": 119,
            "midi": 60,
            "name": "C4",
            "ticks": 6360,
            "time": 9.2243605,
            "velocity": 0.7165354330708661
          },
          {
            "duration": 0.08238634166666614,
            "durationTicks": 58,
            "midi": 58,
            "name": "A#3",
            "ticks": 6480,
            "time": 9.394815,
            "velocity": 0.49606299212598426
          },
          {
            "duration": 0.0994317916666656,
            "durationTicks": 70,
            "midi": 60,
            "name": "C4",
            "ticks": 6540,
            "time": 9.48004225,
            "velocity": 0.7559055118110236
          },
          {
            "duration": 0.07528407083333377,
            "durationTicks": 53,
            "midi": 58,
            "name": "A#3",
            "ticks": 6600,
            "time": 9.5652695,
            "velocity": 0.6377952755905512
          },
          {
            "duration": 0.07670452499999847,
            "durationTicks": 54,
            "midi": 56,
            "name": "G#3",
            "ticks": 6660,
            "time": 9.65049675,
            "velocity": 0.4330708661417323
          },
          {
            "duration": 0.34801127083333405,
            "durationTicks": 245,
            "midi": 53,
            "name": "F3",
            "ticks": 6720,
            "time": 9.735724,
            "velocity": 0.7559055118110236
          },
          {
            "duration": 0.49147714166666745,
            "durationTicks": 346,
            "midi": 63,
            "name": "D#4",
            "ticks": 6960,
            "time": 10.076633,
            "velocity": 0.8188976377952756
          },
          {
            "duration": 0.5157239624999992,
            "durationTicks": 363,
            "midi": 65,
            "name": "F4",
            "ticks": 7320,
            "time": 10.5879965,
            "velocity": 0.7401574803149606
          },
          {
            "duration": 0.5188950375000001,
            "durationTicks": 357,
            "midi": 68,
            "name": "G#4",
            "ticks": 7680,
            "time": 11.099359999999999,
            "velocity": 0.8188976377952756
          },
          {
            "duration": 0.17151152499999966,
            "durationTicks": 118,
            "midi": 68,
            "name": "G#4",
            "ticks": 8040,
            "time": 11.622615499999998,
            "velocity": 0.6614173228346457
          },
          {
            "duration": 0.17151152500000144,
            "durationTicks": 118,
            "midi": 68,
            "name": "G#4",
            "ticks": 8160,
            "time": 11.797033999999998,
            "velocity": 0.7795275590551181
          },
          {
            "duration": 0.17296501249999885,
            "durationTicks": 119,
            "midi": 65,
            "name": "F4",
            "ticks": 8280,
            "time": 11.9714525,
            "velocity": 0.7165354330708661
          },
          {
            "duration": 0.08430227499999887,
            "durationTicks": 58,
            "midi": 63,
            "name": "D#4",
            "ticks": 8400,
            "time": 12.145871,
            "velocity": 0.49606299212598426
          },
          {
            "duration": 0.10174412499999974,
            "durationTicks": 70,
            "midi": 65,
            "name": "F4",
            "ticks": 8460,
            "time": 12.233080249999999,
            "velocity": 0.7559055118110236
          },
          {
            "duration": 0.0770348374999994,
            "durationTicks": 53,
            "midi": 63,
            "name": "D#4",
            "ticks": 8520,
            "time": 12.3202895,
            "velocity": 0.6377952755905512
          },
          {
            "duration": 0.07848832500000036,
            "durationTicks": 54,
            "midi": 60,
            "name": "C4",
            "ticks": 8580,
            "time": 12.407498749999998,
            "velocity": 0.4330708661417323
          },
          {
            "duration": 0.3561044374999991,
            "durationTicks": 245,
            "midi": 58,
            "name": "A#3",
            "ticks": 8640,
            "time": 12.494708,
            "velocity": 0.7559055118110236
          },
          {
            "duration": 0.5029066750000002,
            "durationTicks": 346,
            "midi": 63,
            "name": "D#4",
            "ticks": 8880,
            "time": 12.843544999999999,
            "velocity": 0.8188976377952756
          },
          {
            "duration": 0.5276159624999988,
            "durationTicks": 363,
            "midi": 65,
            "name": "F4",
            "ticks": 9240,
            "time": 13.3668005,
            "velocity": 0.7401574803149606
          },
          {
            "duration": 0.5188950375000001,
            "durationTicks": 357,
            "midi": 68,
            "name": "G#4",
            "ticks": 9600,
            "time": 13.890056,
            "velocity": 0.8188976377952756
          },
          {
            "duration": 0.17151152499999966,
            "durationTicks": 118,
            "midi": 68,
            "name": "G#4",
            "ticks": 9960,
            "time": 14.413311499999999,
            "velocity": 0.6614173228346457
          },
          {
            "duration": 0.17151152500000144,
            "durationTicks": 118,
            "midi": 68,
            "name": "G#4",
            "ticks": 10080,
            "time": 14.587729999999999,
            "velocity": 0.7795275590551181
          },
          {
            "duration": 0.17296501250000063,
            "durationTicks": 119,
            "midi": 65,
            "name": "F4",
            "ticks": 10200,
            "time": 14.762148499999999,
            "velocity": 0.7165354330708661
          },
          {
            "duration": 0.08430227499999887,
            "durationTicks": 58,
            "midi": 63,
            "name": "D#4",
            "ticks": 10320,
            "time": 14.936567,
            "velocity": 0.49606299212598426
          },
          {
            "duration": 0.10174412499999974,
            "durationTicks": 70,
            "midi": 65,
            "name": "F4",
            "ticks": 10380,
            "time": 15.02377625,
            "velocity": 0.7559055118110236
          },
          {
            "duration": 0.07703483750000117,
            "durationTicks": 53,
            "midi": 63,
            "name": "D#4",
            "ticks": 10440,
            "time": 15.110985499999998,
            "velocity": 0.6377952755905512
          },
          {
            "duration": 0.07848832500000036,
            "durationTicks": 54,
            "midi": 60,
            "name": "C4",
            "ticks": 10500,
            "time": 15.198194749999999,
            "velocity": 0.4330708661417323
          },
          {
            "duration": 0.35610443750000087,
            "durationTicks": 245,
            "midi": 58,
            "name": "A#3",
            "ticks": 10560,
            "time": 15.285404,
            "velocity": 0.7559055118110236
          },
          {
            "duration": 0.5029066749999984,
            "durationTicks": 346,
            "midi": 58,
            "name": "A#3",
            "ticks": 10800,
            "time": 15.634241,
            "velocity": 0.8188976377952756
          },
          {
            "duration": 0.5275168624999971,
            "durationTicks": 363,
            "midi": 60,
            "name": "C4",
            "ticks": 11160,
            "time": 16.1574965,
            "velocity": 0.7401574803149606
          },
          {
            "duration": 0.5071021374999987,
            "durationTicks": 357,
            "midi": 63,
            "name": "D#4",
            "ticks": 11520,
            "time": 16.680752,
            "velocity": 0.8188976377952756
          },
          {
            "duration": 0.16761359166666523,
            "durationTicks": 118,
            "midi": 63,
            "name": "D#4",
            "ticks": 11880,
            "time": 17.1921155,
            "velocity": 0.6614173228346457
          },
          {
            "duration": 0.16761359166666523,
            "durationTicks": 118,
            "midi": 63,
            "name": "D#4",
            "ticks": 12000,
            "time": 17.362569999999998,
            "velocity": 0.7795275590551181
          },
          {
            "duration": 0.1690340458333317,
            "durationTicks": 119,
            "midi": 60,
            "name": "C4",
            "ticks": 12120,
            "time": 17.5330245,
            "velocity": 0.7165354330708661
          },
          {
            "duration": 0.08238634166666614,
            "durationTicks": 58,
            "midi": 58,
            "name": "A#3",
            "ticks": 12240,
            "time": 17.703478999999998,
            "velocity": 0.49606299212598426
          },
          {
            "duration": 0.09943179166666738,
            "durationTicks": 70,
            "midi": 60,
            "name": "C4",
            "ticks": 12300,
            "time": 17.788706249999997,
            "velocity": 0.7559055118110236
          },
          {
            "duration": 0.07528407083333022,
            "durationTicks": 53,
            "midi": 58,
            "name": "A#3",
            "ticks": 12360,
            "time": 17.8739335,
            "velocity": 0.6377952755905512
          },
          {
            "duration": 0.07670452500000025,
            "durationTicks": 54,
            "midi": 56,
            "name": "G#3",
            "ticks": 12420,
            "time": 17.95916075,
            "velocity": 0.4330708661417323
          },
          {
            "duration": 0.3480112708333323,
            "durationTicks": 245,
            "midi": 53,
            "name": "F3",
            "ticks": 12480,
            "time": 18.044387999999998,
            "velocity": 0.7559055118110236
          },
          {
            "duration": 0.49147714166666745,
            "durationTicks": 346,
            "midi": 58,
            "name": "A#3",
            "ticks": 12720,
            "time": 18.385296999999998,
            "velocity": 0.8188976377952756
          },
          {
            "duration": 0.5157239624999974,
            "durationTicks": 363,
            "midi": 60,
            "name": "C4",
            "ticks": 13080,
            "time": 18.8966605,
            "velocity": 0.7401574803149606
          },
          {
            "duration": 0.5188950374999983,
            "durationTicks": 357,
            "midi": 63,
            "name": "D#4",
            "ticks": 13440,
            "time": 19.408023999999997,
            "velocity": 0.8188976377952756
          },
          {
            "duration": 0.17151152499999966,
            "durationTicks": 118,
            "midi": 63,
            "name": "D#4",
            "ticks": 13800,
            "time": 19.9312795,
            "velocity": 0.6614173228346457
          },
          {
            "duration": 0.17151152499999966,
            "durationTicks": 118,
            "midi": 63,
            "name": "D#4",
            "ticks": 13920,
            "time": 20.105697999999997,
            "velocity": 0.7795275590551181
          },
          {
            "duration": 0.17296501250000063,
            "durationTicks": 119,
            "midi": 60,
            "name": "C4",
            "ticks": 14040,
            "time": 20.2801165,
            "velocity": 0.7165354330708661
          },
          {
            "duration": 0.08430227500000242,
            "durationTicks": 58,
            "midi": 58,
            "name": "A#3",
            "ticks": 14160,
            "time": 20.454534999999996,
            "velocity": 0.49606299212598426
          },
          {
            "duration": 0.10174412499999974,
            "durationTicks": 70,
            "midi": 60,
            "name": "C4",
            "ticks": 14220,
            "time": 20.541744249999997,
            "velocity": 0.7559055118110236
          },
          {
            "duration": 0.07703483750000117,
            "durationTicks": 53,
            "midi": 58,
            "name": "A#3",
            "ticks": 14280,
            "time": 20.628953499999998,
            "velocity": 0.6377952755905512
          },
          {
            "duration": 0.07848832499999858,
            "durationTicks": 54,
            "midi": 56,
            "name": "G#3",
            "ticks": 14340,
            "time": 20.71616275,
            "velocity": 0.4330708661417323
          },
          {
            "duration": 0.35610443750000087,
            "durationTicks": 245,
            "midi": 53,
            "name": "F3",
            "ticks": 14400,
            "time": 20.803371999999996,
            "velocity": 0.7559055118110236
          },
          {
            "duration": 0.5029066749999984,
            "durationTicks": 346,
            "midi": 63,
            "name": "D#4",
            "ticks": 14640,
            "time": 21.152209,
            "velocity": 0.8188976377952756
          },
          {
            "duration": 0.5276159625000005,
            "durationTicks": 363,
            "midi": 65,
            "name": "F4",
            "ticks": 15000,
            "time": 21.675464499999997,
            "velocity": 0.7401574803149606
          },
          {
            "duration": 0.5188950374999983,
            "durationTicks": 357,
            "midi": 68,
            "name": "G#4",
            "ticks": 15360,
            "time": 22.198719999999998,
            "velocity": 0.8188976377952756
          },
          {
            "duration": 0.17151152499999966,
            "durationTicks": 118,
            "midi": 68,
            "name": "G#4",
            "ticks": 15720,
            "time": 22.7219755,
            "velocity": 0.6614173228346457
          },
          {
            "duration": 0.17151152499999966,
            "durationTicks": 118,
            "midi": 68,
            "name": "G#4",
            "ticks": 15840,
            "time": 22.896393999999997,
            "velocity": 0.7795275590551181
          },
          {
            "duration": 0.17296501249999707,
            "durationTicks": 119,
            "midi": 65,
            "name": "F4",
            "ticks": 15960,
            "time": 23.0708125,
            "velocity": 0.7165354330708661
          },
          {
            "duration": 0.08430227500000242,
            "durationTicks": 58,
            "midi": 63,
            "name": "D#4",
            "ticks": 16080,
            "time": 23.245230999999997,
            "velocity": 0.49606299212598426
          },
          {
            "duration": 0.10174412499999974,
            "durationTicks": 70,
            "midi": 65,
            "name": "F4",
            "ticks": 16140,
            "time": 23.332440249999998,
            "velocity": 0.7559055118110236
          },
          {
            "duration": 0.07703483750000117,
            "durationTicks": 53,
            "midi": 63,
            "name": "D#4",
            "ticks": 16200,
            "time": 23.4196495,
            "velocity": 0.6377952755905512
          },
          {
            "duration": 0.07848832499999858,
            "durationTicks": 54,
            "midi": 60,
            "name": "C4",
            "ticks": 16260,
            "time": 23.50685875,
            "velocity": 0.4330708661417323
          },
          {
            "duration": 0.35610443750000087,
            "durationTicks": 245,
            "midi": 58,
            "name": "A#3",
            "ticks": 16320,
            "time": 23.594067999999996,
            "velocity": 0.7559055118110236
          },
          {
            "duration": 0.502906675000002,
            "durationTicks": 346,
            "midi": 63,
            "name": "D#4",
            "ticks": 16560,
            "time": 23.942904999999996,
            "velocity": 0.8188976377952756
          },
          {
            "duration": 0.5276159625000005,
            "durationTicks": 363,
            "midi": 65,
            "name": "F4",
            "ticks": 16920,
            "time": 24.466160499999997,
            "velocity": 0.7401574803149606
          },
          {
            "duration": 0.5188950374999983,
            "durationTicks": 357,
            "midi": 68,
            "name": "G#4",
            "ticks": 17280,
            "time": 24.989416,
            "velocity": 0.8188976377952756
          },
          {
            "duration": 0.17151152499999966,
            "durationTicks": 118,
            "midi": 68,
            "name": "G#4",
            "ticks": 17640,
            "time": 25.512671499999996,
            "velocity": 0.6614173228346457
          },
          {
            "duration": 0.17151152499999966,
            "durationTicks": 118,
            "midi": 68,
            "name": "G#4",
            "ticks": 17760,
            "time": 25.687089999999998,
            "velocity": 0.7795275590551181
          },
          {
            "duration": 0.17296501249999707,
            "durationTicks": 119,
            "midi": 65,
            "name": "F4",
            "ticks": 17880,
            "time": 25.8615085,
            "velocity": 0.7165354330708661
          },
          {
            "duration": 0.08430227500000242,
            "durationTicks": 58,
            "midi": 63,
            "name": "D#4",
            "ticks": 18000,
            "time": 26.035926999999997,
            "velocity": 0.49606299212598426
          },
          {
            "duration": 0.10174412499999974,
            "durationTicks": 70,
            "midi": 65,
            "name": "F4",
            "ticks": 18060,
            "time": 26.123136249999998,
            "velocity": 0.7559055118110236
          },
          {
            "duration": 0.07703483749999762,
            "durationTicks": 53,
            "midi": 63,
            "name": "D#4",
            "ticks": 18120,
            "time": 26.2103455,
            "velocity": 0.6377952755905512
          },
          {
            "duration": 0.07848832500000213,
            "durationTicks": 54,
            "midi": 60,
            "name": "C4",
            "ticks": 18180,
            "time": 26.297554749999996,
            "velocity": 0.4330708661417323
          },
          {
            "duration": 0.35610443750000087,
            "durationTicks": 245,
            "midi": 58,
            "name": "A#3",
            "ticks": 18240,
            "time": 26.384763999999997,
            "velocity": 0.7559055118110236
          },
          {
            "duration": 0.502906675000002,
            "durationTicks": 346,
            "midi": 58,
            "name": "A#3",
            "ticks": 18480,
            "time": 26.733600999999997,
            "velocity": 0.8188976377952756
          },
          {
            "duration": 0.5275168624999971,
            "durationTicks": 363,
            "midi": 60,
            "name": "C4",
            "ticks": 18840,
            "time": 27.256856499999998,
            "velocity": 0.7401574803149606
          },
          {
            "duration": 0.5071021374999987,
            "durationTicks": 357,
            "midi": 63,
            "name": "D#4",
            "ticks": 19200,
            "time": 27.780111999999995,
            "velocity": 0.8188976377952756
          },
          {
            "duration": 0.16761359166666523,
            "durationTicks": 118,
            "midi": 63,
            "name": "D#4",
            "ticks": 19560,
            "time": 28.291475499999997,
            "velocity": 0.6614173228346457
          },
          {
            "duration": 0.16761359166666523,
            "durationTicks": 118,
            "midi": 63,
            "name": "D#4",
            "ticks": 19680,
            "time": 28.461929999999995,
            "velocity": 0.7795275590551181
          },
          {
            "duration": 0.1690340458333317,
            "durationTicks": 119,
            "midi": 60,
            "name": "C4",
            "ticks": 19800,
            "time": 28.632384499999997,
            "velocity": 0.7165354330708661
          },
          {
            "duration": 0.08238634166666614,
            "durationTicks": 58,
            "midi": 58,
            "name": "A#3",
            "ticks": 19920,
            "time": 28.802838999999995,
            "velocity": 0.49606299212598426
          },
          {
            "duration": 0.09943179166666738,
            "durationTicks": 70,
            "midi": 60,
            "name": "C4",
            "ticks": 19980,
            "time": 28.888066249999994,
            "velocity": 0.7559055118110236
          },
          {
            "duration": 0.07528407083333022,
            "durationTicks": 53,
            "midi": 58,
            "name": "A#3",
            "ticks": 20040,
            "time": 28.973293499999997,
            "velocity": 0.6377952755905512
          },
          {
            "duration": 0.07670452500000025,
            "durationTicks": 54,
            "midi": 56,
            "name": "G#3",
            "ticks": 20100,
            "time": 29.058520749999996,
            "velocity": 0.4330708661417323
          },
          {
            "duration": 0.35201140624999994,
            "durationTicks": 245,
            "midi": 53,
            "name": "F3",
            "ticks": 20160,
            "time": 29.143747999999995,
            "velocity": 0.7559055118110236
          },
          {
            "duration": 0.4971263125000007,
            "durationTicks": 346,
            "midi": 58,
            "name": "A#3",
            "ticks": 20400,
            "time": 29.488575499999996,
            "velocity": 0.8188976377952756
          },
          {
            "duration": 0.5216530124999998,
            "durationTicks": 363,
            "midi": 60,
            "name": "C4",
            "ticks": 20760,
            "time": 30.005816749999994,
            "velocity": 0.7401574803149606
          },
          {
            "duration": 0.5249997375,
            "durationTicks": 357,
            "midi": 63,
            "name": "D#4",
            "ticks": 21120,
            "time": 30.523057999999995,
            "velocity": 0.8188976377952756
          },
          {
            "duration": 0.1735293250000005,
            "durationTicks": 118,
            "midi": 63,
            "name": "D#4",
            "ticks": 21480,
            "time": 31.052469499999994,
            "velocity": 0.6614173228346457
          },
          {
            "duration": 0.1735293250000005,
            "durationTicks": 118,
            "midi": 63,
            "name": "D#4",
            "ticks": 21600,
            "time": 31.228939999999994,
            "velocity": 0.7795275590551181
          },
          {
            "duration": 0.1749999124999988,
            "durationTicks": 119,
            "midi": 60,
            "name": "C4",
            "ticks": 21720,
            "time": 31.405410499999995,
            "velocity": 0.7165354330708661
          },
          {
            "duration": 0.08529407500000019,
            "durationTicks": 58,
            "midi": 58,
            "name": "A#3",
            "ticks": 21840,
            "time": 31.581880999999996,
            "velocity": 0.49606299212598426
          },
          {
            "duration": 0.10294112500000097,
            "durationTicks": 70,
            "midi": 60,
            "name": "C4",
            "ticks": 21900,
            "time": 31.670116249999996,
            "velocity": 0.7559055118110236
          },
          {
            "duration": 0.07794113749999809,
            "durationTicks": 53,
            "midi": 58,
            "name": "A#3",
            "ticks": 21960,
            "time": 31.758351499999996,
            "velocity": 0.6377952755905512
          },
          {
            "duration": 0.07941172499999993,
            "durationTicks": 54,
            "midi": 56,
            "name": "G#3",
            "ticks": 22020,
            "time": 31.846586749999997,
            "velocity": 0.4330708661417323
          },
          {
            "duration": 0.3602939374999963,
            "durationTicks": 245,
            "midi": 53,
            "name": "F3",
            "ticks": 22080,
            "time": 31.934821999999997,
            "velocity": 0.7559055118110236
          },
          {
            "duration": 0.5088232749999975,
            "durationTicks": 346,
            "midi": 63,
            "name": "D#4",
            "ticks": 22320,
            "time": 32.287763,
            "velocity": 0.8188976377952756
          },
          {
            "duration": 0.5337719625000048,
            "durationTicks": 363,
            "midi": 65,
            "name": "F4",
            "ticks": 22680,
            "time": 32.81717449999999,
            "velocity": 0.7401574803149606
          },
          {
            "duration": 0.5188950375000019,
            "durationTicks": 357,
            "midi": 68,
            "name": "G#4",
            "ticks": 23040,
            "time": 33.346585999999995,
            "velocity": 0.8188976377952756
          },
          {
            "duration": 0.17151152499999966,
            "durationTicks": 118,
            "midi": 68,
            "name": "G#4",
            "ticks": 23400,
            "time": 33.86984149999999,
            "velocity": 0.6614173228346457
          },
          {
            "duration": 0.17151152499999966,
            "durationTicks": 118,
            "midi": 68,
            "name": "G#4",
            "ticks": 23520,
            "time": 34.044259999999994,
            "velocity": 0.7795275590551181
          },
          {
            "duration": 0.17296501250000063,
            "durationTicks": 119,
            "midi": 65,
            "name": "F4",
            "ticks": 23640,
            "time": 34.218678499999996,
            "velocity": 0.7165354330708661
          },
          {
            "duration": 0.08430227499999887,
            "durationTicks": 58,
            "midi": 63,
            "name": "D#4",
            "ticks": 23760,
            "time": 34.393097,
            "velocity": 0.49606299212598426
          },
          {
            "duration": 0.10174412499999619,
            "durationTicks": 70,
            "midi": 65,
            "name": "F4",
            "ticks": 23820,
            "time": 34.48030625,
            "velocity": 0.7559055118110236
          },
          {
            "duration": 0.07703483750000117,
            "durationTicks": 53,
            "midi": 63,
            "name": "D#4",
            "ticks": 23880,
            "time": 34.56751549999999,
            "velocity": 0.6377952755905512
          },
          {
            "duration": 0.07848832500000213,
            "durationTicks": 54,
            "midi": 60,
            "name": "C4",
            "ticks": 23940,
            "time": 34.65472474999999,
            "velocity": 0.4330708661417323
          },
          {
            "duration": 0.35610443750000087,
            "durationTicks": 245,
            "midi": 58,
            "name": "A#3",
            "ticks": 24000,
            "time": 34.74193399999999,
            "velocity": 0.7559055118110236
          },
          {
            "duration": 0.5029066749999984,
            "durationTicks": 346,
            "midi": 63,
            "name": "D#4",
            "ticks": 24240,
            "time": 35.090771,
            "velocity": 0.8188976377952756
          },
          {
            "duration": 0.5276159625000005,
            "durationTicks": 363,
            "midi": 65,
            "name": "F4",
            "ticks": 24600,
            "time": 35.614026499999994,
            "velocity": 0.7401574803149606
          },
          {
            "duration": 0.5188950375000019,
            "durationTicks": 357,
            "midi": 68,
            "name": "G#4",
            "ticks": 24960,
            "time": 36.13728199999999,
            "velocity": 0.8188976377952756
          },
          {
            "duration": 0.17151152499999966,
            "durationTicks": 118,
            "midi": 68,
            "name": "G#4",
            "ticks": 25320,
            "time": 36.6605375,
            "velocity": 0.6614173228346457
          },
          {
            "duration": 0.16954018749999733,
            "durationTicks": 118,
            "midi": 68,
            "name": "G#4",
            "ticks": 25440,
            "time": 36.834956,
            "velocity": 0.7795275590551181
          },
          {
            "duration": 0.17097696875000423,
            "durationTicks": 119,
            "midi": 65,
            "name": "F4",
            "ticks": 25560,
            "time": 37.007369749999995,
            "velocity": 0.7165354330708661
          },
          {
            "duration": 0.08333331250000242,
            "durationTicks": 58,
            "midi": 63,
            "name": "D#4",
            "ticks": 25680,
            "time": 37.1797835,
            "velocity": 0.49606299212598426
          },
          {
            "duration": 0.10057468749999998,
            "durationTicks": 70,
            "midi": 65,
            "name": "F4",
            "ticks": 25740,
            "time": 37.265990375,
            "velocity": 0.7559055118110236
          },
          {
            "duration": 0.07614940625000344,
            "durationTicks": 53,
            "midi": 63,
            "name": "D#4",
            "ticks": 25800,
            "time": 37.352197249999996,
            "velocity": 0.6377952755905512
          },
          {
            "duration": 0.07758618750000323,
            "durationTicks": 54,
            "midi": 60,
            "name": "C4",
            "ticks": 25860,
            "time": 37.438404125,
            "velocity": 0.4330708661417323
          },
          {
            "duration": 0.35201140624999994,
            "durationTicks": 245,
            "midi": 58,
            "name": "A#3",
            "ticks": 25920,
            "time": 37.524611,
            "velocity": 0.7559055118110236
          },
          {
            "duration": 0.4971263125000007,
            "durationTicks": 346,
            "midi": 58,
            "name": "A#3",
            "ticks": 26160,
            "time": 37.8694385,
            "velocity": 0.5905511811023622
          },
          {
            "duration": 0.5216530124999963,
            "durationTicks": 363,
            "midi": 60,
            "name": "C4",
            "ticks": 26520,
            "time": 38.38667975,
            "velocity": 0.49606299212598426
          }
        ]
      },
      {
        "channel": 0,
        "controlChanges": {
          "0": [
            {
              "number": 0,
              "ticks": 496,
              "time": 0.7209298000000001,
              "value": 0
            }
          ],
          "32": [
            {
              "number": 32,
              "ticks": 496,
              "time": 0.7209298000000001,
              "value": 0
            }
          ]
        },
        "pitchBends": [],
        "instrument": {
          "family": "piano",
          "number": 0,
          "name": "acoustic grand piano"
        },
        "name": "Strawberry Swing (MIDI DEMO)",
        "notes": [],
        "endOfTrackTicks": 28800
      },
      {
        "channel": 12,
        "controlChanges": {
          "6": [
            {
              "number": 6,
              "ticks": 651,
              "time": 0.9462203625,
              "value": 0.015748031496062992
            }
          ],
          "7": [
            {
              "number": 7,
              "ticks": 497,
              "time": 0.7223832875,
              "value": 0.47244094488188976
            }
          ],
          "10": [
            {
              "number": 10,
              "ticks": 497,
              "time": 0.7223832875,
              "value": 0.6692913385826772
            }
          ],
          "11": [
            {
              "number": 11,
              "ticks": 535,
              "time": 0.7776158125,
              "value": 1
            }
          ],
          "38": [
            {
              "number": 38,
              "ticks": 652,
              "time": 0.94767385,
              "value": 0
            }
          ],
          "91": [
            {
              "number": 91,
              "ticks": 497,
              "time": 0.7223832875,
              "value": 0.3937007874015748
            }
          ],
          "93": [
            {
              "number": 93,
              "ticks": 497,
              "time": 0.7223832875,
              "value": 0.15748031496062992
            }
          ],
          "100": [
            {
              "number": 100,
              "ticks": 650,
              "time": 0.9447668750000001,
              "value": 0
            }
          ],
          "101": [
            {
              "number": 101,
              "ticks": 649,
              "time": 0.9433133875,
              "value": 0
            }
          ],
          "120": [
            {
              "number": 120,
              "ticks": 28755,
              "time": 41.661272562499995,
              "value": 0
            }
          ],
          "123": [
            {
              "number": 123,
              "ticks": 28680,
              "time": 41.5509785,
              "value": 0
            }
          ]
        },
        "pitchBends": [],
        "instrument": {
          "family": "synth effects",
          "number": 97,
          "name": "fx 2 (soundtrack)"
        },
        "name": "",
        "notes": [
          {
            "duration": 2.787789025,
            "durationTicks": 1918,
            "midi": 49,
            "name": "C#3",
            "ticks": 1920,
            "time": 2.790696,
            "velocity": 0.8188976377952756
          },
          {
            "duration": 2.7877890249999995,
            "durationTicks": 1918,
            "midi": 56,
            "name": "G#3",
            "ticks": 3840,
            "time": 5.581392,
            "velocity": 0.8188976377952756
          },
          {
            "duration": 5.515061025,
            "durationTicks": 3838,
            "midi": 51,
            "name": "D#3",
            "ticks": 5760,
            "time": 8.372088,
            "velocity": 0.8188976377952756
          },
          {
            "duration": 2.7877890250000004,
            "durationTicks": 1918,
            "midi": 49,
            "name": "C#3",
            "ticks": 9600,
            "time": 13.890056,
            "velocity": 0.8188976377952756
          },
          {
            "duration": 2.7244310916666663,
            "durationTicks": 1918,
            "midi": 56,
            "name": "G#3",
            "ticks": 11520,
            "time": 16.680752,
            "velocity": 0.8188976377952756
          },
          {
            "duration": 5.578485024999999,
            "durationTicks": 3838,
            "midi": 51,
            "name": "D#3",
            "ticks": 13440,
            "time": 19.408023999999997,
            "velocity": 0.8188976377952756
          },
          {
            "duration": 2.7877890249999986,
            "durationTicks": 1918,
            "midi": 49,
            "name": "C#3",
            "ticks": 17280,
            "time": 24.989416,
            "velocity": 0.8188976377952756
          },
          {
            "duration": 2.7400724375000003,
            "durationTicks": 1918,
            "midi": 56,
            "name": "G#3",
            "ticks": 19200,
            "time": 27.780111999999995,
            "velocity": 0.8188976377952756
          },
          {
            "duration": 5.611317025000002,
            "durationTicks": 3838,
            "midi": 51,
            "name": "D#3",
            "ticks": 21120,
            "time": 30.523057999999995,
            "velocity": 0.8188976377952756
          },
          {
            "duration": 2.085604687500009,
            "durationTicks": 1446,
            "midi": 49,
            "name": "C#3",
            "ticks": 24960,
            "time": 36.13728199999999,
            "velocity": 0.8188976377952756
          }
        ]
      },
      {
        "channel": 0,
        "controlChanges": {
          "0": [
            {
              "number": 0,
              "ticks": 496,
              "time": 0.7209298000000001,
              "value": 0
            }
          ],
          "32": [
            {
              "number": 32,
              "ticks": 496,
              "time": 0.7209298000000001,
              "value": 0
            }
          ]
        },
        "pitchBends": [],
        "instrument": {
          "family": "piano",
          "number": 0,
          "name": "acoustic grand piano"
        },
        "name": "Strawberry Swing (MIDI DEMO)",
        "notes": [],
        "endOfTrackTicks": 28800
      },
      {
        "channel": 13,
        "controlChanges": {
          "6": [
            {
              "number": 6,
              "ticks": 651,
              "time": 0.9462203625,
              "value": 0.015748031496062992
            }
          ],
          "7": [
            {
              "number": 7,
              "ticks": 497,
              "time": 0.7223832875,
              "value": 0.8661417322834646
            }
          ],
          "10": [
            {
              "number": 10,
              "ticks": 497,
              "time": 0.7223832875,
              "value": 0.10236220472440945
            }
          ],
          "11": [
            {
              "number": 11,
              "ticks": 535,
              "time": 0.7776158125,
              "value": 1
            },
            {
              "number": 11,
              "ticks": 13380,
              "time": 19.32279675,
              "value": 0.8110236220472441
            },
            {
              "number": 11,
              "ticks": 13560,
              "time": 19.5824425,
              "value": 0.8188976377952756
            },
            {
              "number": 11,
              "ticks": 13680,
              "time": 19.756860999999997,
              "value": 0.8267716535433071
            },
            {
              "number": 11,
              "ticks": 13800,
              "time": 19.9312795,
              "value": 0.8346456692913385
            },
            {
              "number": 11,
              "ticks": 13920,
              "time": 20.105697999999997,
              "value": 0.84251968503937
            },
            {
              "number": 11,
              "ticks": 14160,
              "time": 20.454534999999996,
              "value": 0.8503937007874016
            },
            {
              "number": 11,
              "ticks": 14280,
              "time": 20.628953499999998,
              "value": 0.8582677165354331
            },
            {
              "number": 11,
              "ticks": 14400,
              "time": 20.803371999999996,
              "value": 0.8661417322834646
            },
            {
              "number": 11,
              "ticks": 14520,
              "time": 20.977790499999998,
              "value": 0.8740157480314961
            },
            {
              "number": 11,
              "ticks": 14640,
              "time": 21.152209,
              "value": 0.8818897637795275
            },
            {
              "number": 11,
              "ticks": 14940,
              "time": 21.588255249999996,
              "value": 0.889763779527559
            },
            {
              "number": 11,
              "ticks": 15060,
              "time": 21.762673749999998,
              "value": 0.8976377952755905
            },
            {
              "number": 11,
              "ticks": 15180,
              "time": 21.93709225,
              "value": 0.905511811023622
            },
            {
              "number": 11,
              "ticks": 15300,
              "time": 22.111510749999997,
              "value": 0.9133858267716536
            },
            {
              "number": 11,
              "ticks": 15420,
              "time": 22.28592925,
              "value": 0.9212598425196851
            },
            {
              "number": 11,
              "ticks": 15660,
              "time": 22.63476625,
              "value": 0.9291338582677166
            },
            {
              "number": 11,
              "ticks": 15780,
              "time": 22.809184749999996,
              "value": 0.937007874015748
            },
            {
              "number": 11,
              "ticks": 15900,
              "time": 22.983603249999998,
              "value": 0.9448818897637795
            },
            {
              "number": 11,
              "ticks": 16080,
              "time": 23.245230999999997,
              "value": 0.952755905511811
            },
            {
              "number": 11,
              "ticks": 16200,
              "time": 23.4196495,
              "value": 0.9606299212598425
            },
            {
              "number": 11,
              "ticks": 16440,
              "time": 23.768486499999998,
              "value": 0.968503937007874
            },
            {
              "number": 11,
              "ticks": 16560,
              "time": 23.942904999999996,
              "value": 0.9763779527559056
            },
            {
              "number": 11,
              "ticks": 16680,
              "time": 24.117323499999998,
              "value": 0.984251968503937
            },
            {
              "number": 11,
              "ticks": 16800,
              "time": 24.291742,
              "value": 0.9921259842519685
            },
            {
              "number": 11,
              "ticks": 16920,
              "time": 24.466160499999997,
              "value": 1
            }
          ],
          "38": [
            {
              "number": 38,
              "ticks": 652,
              "time": 0.94767385,
              "value": 0
            }
          ],
          "91": [
            {
              "number": 91,
              "ticks": 497,
              "time": 0.7223832875,
              "value": 0.5511811023622047
            }
          ],
          "93": [
            {
              "number": 93,
              "ticks": 497,
              "time": 0.7223832875,
              "value": 0
            },
            {
              "number": 93,
              "ticks": 13440,
              "time": 19.408023999999997,
              "value": 0.023622047244094488
            },
            {
              "number": 93,
              "ticks": 14400,
              "time": 20.803371999999996,
              "value": 0.031496062992125984
            },
            {
              "number": 93,
              "ticks": 15240,
              "time": 22.024301499999996,
              "value": 0.03937007874015748
            },
            {
              "number": 93,
              "ticks": 16080,
              "time": 23.245230999999997,
              "value": 0.047244094488188976
            },
            {
              "number": 93,
              "ticks": 16920,
              "time": 24.466160499999997,
              "value": 0.05511811023622047
            },
            {
              "number": 93,
              "ticks": 17760,
              "time": 25.687089999999998,
              "value": 0.06299212598425197
            },
            {
              "number": 93,
              "ticks": 18600,
              "time": 26.908019499999998,
              "value": 0.07086614173228346
            },
            {
              "number": 93,
              "ticks": 19560,
              "time": 28.291475499999997,
              "value": 0.07874015748031496
            },
            {
              "number": 93,
              "ticks": 20400,
              "time": 29.488575499999996,
              "value": 0.08661417322834646
            },
            {
              "number": 93,
              "ticks": 21240,
              "time": 30.699528499999996,
              "value": 0.09448818897637795
            },
            {
              "number": 93,
              "ticks": 22080,
              "time": 31.934821999999997,
              "value": 0.10236220472440945
            },
            {
              "number": 93,
              "ticks": 22920,
              "time": 33.170115499999994,
              "value": 0.11023622047244094
            },
            {
              "number": 93,
              "ticks": 23880,
              "time": 34.56751549999999,
              "value": 0.12598425196850394
            },
            {
              "number": 93,
              "ticks": 24720,
              "time": 35.788444999999996,
              "value": 0.13385826771653545
            },
            {
              "number": 93,
              "ticks": 25560,
              "time": 37.007369749999995,
              "value": 0.14173228346456693
            },
            {
              "number": 93,
              "ticks": 26400,
              "time": 38.214265999999995,
              "value": 0.14960629921259844
            }
          ],
          "100": [
            {
              "number": 100,
              "ticks": 650,
              "time": 0.9447668750000001,
              "value": 0
            }
          ],
          "101": [
            {
              "number": 101,
              "ticks": 649,
              "time": 0.9433133875,
              "value": 0
            }
          ],
          "120": [
            {
              "number": 120,
              "ticks": 28755,
              "time": 41.661272562499995,
              "value": 0
            }
          ],
          "123": [
            {
              "number": 123,
              "ticks": 28680,
              "time": 41.5509785,
              "value": 0
            }
          ]
        },
        "pitchBends": [],
        "instrument": {
          "family": "ensemble",
          "number": 48,
          "name": "string ensemble 1"
        },
        "name": "",
        "notes": [
          {
            "duration": 0.1526161875000014,
            "durationTicks": 105,
            "midi": 51,
            "name": "D#3",
            "ticks": 13440,
            "time": 19.408023999999997,
            "velocity": 0.6929133858267716
          },
          {
            "duration": 0.08430227499999887,
            "durationTicks": 58,
            "midi": 46,
            "name": "A#2",
            "ticks": 13560,
            "time": 19.5824425,
            "velocity": 0.5590551181102362
          },
          {
            "duration": 0.08430227499999887,
            "durationTicks": 58,
            "midi": 51,
            "name": "D#3",
            "ticks": 13560,
            "time": 19.5824425,
            "velocity": 0.4330708661417323
          },
          {
            "duration": 0.08430227499999887,
            "durationTicks": 58,
            "midi": 46,
            "name": "A#2",
            "ticks": 13680,
            "time": 19.756860999999997,
            "velocity": 0.48031496062992124
          },
          {
            "duration": 0.08430227499999887,
            "durationTicks": 58,
            "midi": 51,
            "name": "D#3",
            "ticks": 13680,
            "time": 19.756860999999997,
            "velocity": 0.3543307086614173
          },
          {
            "duration": 0.15843013749999812,
            "durationTicks": 109,
            "midi": 46,
            "name": "A#2",
            "ticks": 13800,
            "time": 19.9312795,
            "velocity": 0.889763779527559
          },
          {
            "duration": 0.15988362499999909,
            "durationTicks": 110,
            "midi": 51,
            "name": "D#3",
            "ticks": 13800,
            "time": 19.9312795,
            "velocity": 0.7637795275590551
          },
          {
            "duration": 0.09302320000000108,
            "durationTicks": 64,
            "midi": 46,
            "name": "A#2",
            "ticks": 13920,
            "time": 20.105697999999997,
            "velocity": 0.3858267716535433
          },
          {
            "duration": 0.09302320000000108,
            "durationTicks": 64,
            "midi": 51,
            "name": "D#3",
            "ticks": 13920,
            "time": 20.105697999999997,
            "velocity": 0.25984251968503935
          },
          {
            "duration": 0.08430227499999887,
            "durationTicks": 58,
            "midi": 46,
            "name": "A#2",
            "ticks": 14040,
            "time": 20.2801165,
            "velocity": 0.5196850393700787
          },
          {
            "duration": 0.08430227499999887,
            "durationTicks": 58,
            "midi": 51,
            "name": "D#3",
            "ticks": 14040,
            "time": 20.2801165,
            "velocity": 0.3937007874015748
          },
          {
            "duration": 0.08430227500000242,
            "durationTicks": 58,
            "midi": 46,
            "name": "A#2",
            "ticks": 14160,
            "time": 20.454534999999996,
            "velocity": 0.6377952755905512
          },
          {
            "duration": 0.08430227500000242,
            "durationTicks": 58,
            "midi": 51,
            "name": "D#3",
            "ticks": 14160,
            "time": 20.454534999999996,
            "velocity": 0.5118110236220472
          },
          {
            "duration": 0.16133711250000005,
            "durationTicks": 111,
            "midi": 46,
            "name": "A#2",
            "ticks": 14280,
            "time": 20.628953499999998,
            "velocity": 0.8661417322834646
          },
          {
            "duration": 0.162790600000001,
            "durationTicks": 112,
            "midi": 51,
            "name": "D#3",
            "ticks": 14280,
            "time": 20.628953499999998,
            "velocity": 0.7401574803149606
          },
          {
            "duration": 0.08430227500000242,
            "durationTicks": 58,
            "midi": 46,
            "name": "A#2",
            "ticks": 14400,
            "time": 20.803371999999996,
            "velocity": 0.3700787401574803
          },
          {
            "duration": 0.08430227500000242,
            "durationTicks": 58,
            "midi": 51,
            "name": "D#3",
            "ticks": 14400,
            "time": 20.803371999999996,
            "velocity": 0.2440944881889764
          },
          {
            "duration": 0.08430227499999887,
            "durationTicks": 58,
            "midi": 46,
            "name": "A#2",
            "ticks": 14520,
            "time": 20.977790499999998,
            "velocity": 0.4566929133858268
          },
          {
            "duration": 0.08430227499999887,
            "durationTicks": 58,
            "midi": 51,
            "name": "D#3",
            "ticks": 14520,
            "time": 20.977790499999998,
            "velocity": 0.33070866141732286
          },
          {
            "duration": 0.14680223749999755,
            "durationTicks": 101,
            "midi": 46,
            "name": "A#2",
            "ticks": 14640,
            "time": 21.152209,
            "velocity": 0.8976377952755905
          },
          {
            "duration": 0.1482557249999985,
            "durationTicks": 102,
            "midi": 51,
            "name": "D#3",
            "ticks": 14640,
            "time": 21.152209,
            "velocity": 0.7716535433070866
          },
          {
            "duration": 0.08430227499999887,
            "durationTicks": 58,
            "midi": 46,
            "name": "A#2",
            "ticks": 14760,
            "time": 21.326627499999997,
            "velocity": 0.29133858267716534
          },
          {
            "duration": 0.08430227499999887,
            "durationTicks": 58,
            "midi": 51,
            "name": "D#3",
            "ticks": 14760,
            "time": 21.326627499999997,
            "velocity": 0.16535433070866143
          },
          {
            "duration": 0.08430227499999887,
            "durationTicks": 58,
            "midi": 46,
            "name": "A#2",
            "ticks": 14880,
            "time": 21.501046,
            "velocity": 0.4409448818897638
          },
          {
            "duration": 0.08430227499999887,
            "durationTicks": 58,
            "midi": 51,
            "name": "D#3",
            "ticks": 14880,
            "time": 21.501046,
            "velocity": 0.31496062992125984
          },
          {
            "duration": 0.162790600000001,
            "durationTicks": 112,
            "midi": 46,
            "name": "A#2",
            "ticks": 15000,
            "time": 21.675464499999997,
            "velocity": 0.889763779527559
          },
          {
            "duration": 0.162790600000001,
            "durationTicks": 112,
            "midi": 51,
            "name": "D#3",
            "ticks": 15000,
            "time": 21.675464499999997,
            "velocity": 0.7637795275590551
          },
          {
            "duration": 0.08430227499999887,
            "durationTicks": 58,
            "midi": 46,
            "name": "A#2",
            "ticks": 15120,
            "time": 21.849883,
            "velocity": 0.47244094488188976
          },
          {
            "duration": 0.08430227499999887,
            "durationTicks": 58,
            "midi": 51,
            "name": "D#3",
            "ticks": 15120,
            "time": 21.849883,
            "velocity": 0.3464566929133858
          },
          {
            "duration": 0.08430227500000242,
            "durationTicks": 58,
            "midi": 46,
            "name": "A#2",
            "ticks": 15240,
            "time": 22.024301499999996,
            "velocity": 0.3779527559055118
          },
          {
            "duration": 0.08430227500000242,
            "durationTicks": 58,
            "midi": 51,
            "name": "D#3",
            "ticks": 15240,
            "time": 22.024301499999996,
            "velocity": 0.25196850393700787
          },
          {
            "duration": 0.15261618749999784,
            "durationTicks": 105,
            "midi": 46,
            "name": "A#2",
            "ticks": 15360,
            "time": 22.198719999999998,
            "velocity": 0.8188976377952756
          },
          {
            "duration": 0.15261618749999784,
            "durationTicks": 105,
            "midi": 51,
            "name": "D#3",
            "ticks": 15360,
            "time": 22.198719999999998,
            "velocity": 0.6929133858267716
          },
          {
            "duration": 0.08430227500000242,
            "durationTicks": 58,
            "midi": 46,
            "name": "A#2",
            "ticks": 15480,
            "time": 22.373138499999996,
            "velocity": 0.5590551181102362
          },
          {
            "duration": 0.08430227500000242,
            "durationTicks": 58,
            "midi": 51,
            "name": "D#3",
            "ticks": 15480,
            "time": 22.373138499999996,
            "velocity": 0.4330708661417323
          },
          {
            "duration": 0.08430227499999887,
            "durationTicks": 58,
            "midi": 46,
            "name": "A#2",
            "ticks": 15600,
            "time": 22.547556999999998,
            "velocity": 0.48031496062992124
          },
          {
            "duration": 0.08430227499999887,
            "durationTicks": 58,
            "midi": 51,
            "name": "D#3",
            "ticks": 15600,
            "time": 22.547556999999998,
            "velocity": 0.3543307086614173
          },
          {
            "duration": 0.15843013749999812,
            "durationTicks": 109,
            "midi": 46,
            "name": "A#2",
            "ticks": 15720,
            "time": 22.7219755,
            "velocity": 0.889763779527559
          },
          {
            "duration": 0.15988362499999909,
            "durationTicks": 110,
            "midi": 51,
            "name": "D#3",
            "ticks": 15720,
            "time": 22.7219755,
            "velocity": 0.7637795275590551
          },
          {
            "duration": 0.09302320000000108,
            "durationTicks": 64,
            "midi": 46,
            "name": "A#2",
            "ticks": 15840,
            "time": 22.896393999999997,
            "velocity": 0.3858267716535433
          },
          {
            "duration": 0.09302320000000108,
            "durationTicks": 64,
            "midi": 51,
            "name": "D#3",
            "ticks": 15840,
            "time": 22.896393999999997,
            "velocity": 0.25984251968503935
          },
          {
            "duration": 0.08430227499999887,
            "durationTicks": 58,
            "midi": 46,
            "name": "A#2",
            "ticks": 15960,
            "time": 23.0708125,
            "velocity": 0.5196850393700787
          },
          {
            "duration": 0.08430227499999887,
            "durationTicks": 58,
            "midi": 51,
            "name": "D#3",
            "ticks": 15960,
            "time": 23.0708125,
            "velocity": 0.3937007874015748
          },
          {
            "duration": 0.08430227500000242,
            "durationTicks": 58,
            "midi": 46,
            "name": "A#2",
            "ticks": 16080,
            "time": 23.245230999999997,
            "velocity": 0.6377952755905512
          },
          {
            "duration": 0.08430227500000242,
            "durationTicks": 58,
            "midi": 51,
            "name": "D#3",
            "ticks": 16080,
            "time": 23.245230999999997,
            "velocity": 0.5118110236220472
          },
          {
            "duration": 0.162790600000001,
            "durationTicks": 112,
            "midi": 46,
            "name": "A#2",
            "ticks": 16200,
            "time": 23.4196495,
            "velocity": 0.8661417322834646
          },
          {
            "duration": 0.16133711250000005,
            "durationTicks": 111,
            "midi": 51,
            "name": "D#3",
            "ticks": 16200,
            "time": 23.4196495,
            "velocity": 0.7401574803149606
          },
          {
            "duration": 0.08430227500000242,
            "durationTicks": 58,
            "midi": 46,
            "name": "A#2",
            "ticks": 16320,
            "time": 23.594067999999996,
            "velocity": 0.3700787401574803
          },
          {
            "duration": 0.08430227500000242,
            "durationTicks": 58,
            "midi": 51,
            "name": "D#3",
            "ticks": 16320,
            "time": 23.594067999999996,
            "velocity": 0.2440944881889764
          },
          {
            "duration": 0.08430227499999887,
            "durationTicks": 58,
            "midi": 46,
            "name": "A#2",
            "ticks": 16440,
            "time": 23.768486499999998,
            "velocity": 0.4566929133858268
          },
          {
            "duration": 0.08430227499999887,
            "durationTicks": 58,
            "midi": 51,
            "name": "D#3",
            "ticks": 16440,
            "time": 23.768486499999998,
            "velocity": 0.33070866141732286
          },
          {
            "duration": 0.14825572500000206,
            "durationTicks": 102,
            "midi": 46,
            "name": "A#2",
            "ticks": 16560,
            "time": 23.942904999999996,
            "velocity": 0.8976377952755905
          },
          {
            "duration": 0.1468022375000011,
            "durationTicks": 101,
            "midi": 51,
            "name": "D#3",
            "ticks": 16560,
            "time": 23.942904999999996,
            "velocity": 0.7716535433070866
          },
          {
            "duration": 0.08430227499999887,
            "durationTicks": 58,
            "midi": 46,
            "name": "A#2",
            "ticks": 16680,
            "time": 24.117323499999998,
            "velocity": 0.29133858267716534
          },
          {
            "duration": 0.08430227499999887,
            "durationTicks": 58,
            "midi": 51,
            "name": "D#3",
            "ticks": 16680,
            "time": 24.117323499999998,
            "velocity": 0.16535433070866143
          },
          {
            "duration": 0.08430227499999887,
            "durationTicks": 58,
            "midi": 46,
            "name": "A#2",
            "ticks": 16800,
            "time": 24.291742,
            "velocity": 0.4409448818897638
          },
          {
            "duration": 0.08430227499999887,
            "durationTicks": 58,
            "midi": 51,
            "name": "D#3",
            "ticks": 16800,
            "time": 24.291742,
            "velocity": 0.31496062992125984
          },
          {
            "duration": 0.162790600000001,
            "durationTicks": 112,
            "midi": 46,
            "name": "A#2",
            "ticks": 16920,
            "time": 24.466160499999997,
            "velocity": 0.889763779527559
          },
          {
            "duration": 0.162790600000001,
            "durationTicks": 112,
            "midi": 51,
            "name": "D#3",
            "ticks": 16920,
            "time": 24.466160499999997,
            "velocity": 0.7637795275590551
          },
          {
            "duration": 0.08430227499999887,
            "durationTicks": 58,
            "midi": 46,
            "name": "A#2",
            "ticks": 17040,
            "time": 24.640579,
            "velocity": 0.47244094488188976
          },
          {
            "duration": 0.08430227499999887,
            "durationTicks": 58,
            "midi": 51,
            "name": "D#3",
            "ticks": 17040,
            "time": 24.640579,
            "velocity": 0.3464566929133858
          },
          {
            "duration": 0.08430227499999887,
            "durationTicks": 58,
            "midi": 46,
            "name": "A#2",
            "ticks": 17160,
            "time": 24.814997499999997,
            "velocity": 0.3779527559055118
          },
          {
            "duration": 0.08430227499999887,
            "durationTicks": 58,
            "midi": 51,
            "name": "D#3",
            "ticks": 17160,
            "time": 24.814997499999997,
            "velocity": 0.25196850393700787
          },
          {
            "duration": 0.1540696749999988,
            "durationTicks": 106,
            "midi": 44,
            "name": "G#2",
            "ticks": 17280,
            "time": 24.989416,
            "velocity": 0.8188976377952756
          },
          {
            "duration": 0.15261618749999784,
            "durationTicks": 105,
            "midi": 49,
            "name": "C#3",
            "ticks": 17280,
            "time": 24.989416,
            "velocity": 0.6929133858267716
          },
          {
            "duration": 0.08430227500000242,
            "durationTicks": 58,
            "midi": 44,
            "name": "G#2",
            "ticks": 17400,
            "time": 25.163834499999997,
            "velocity": 0.5590551181102362
          },
          {
            "duration": 0.08430227500000242,
            "durationTicks": 58,
            "midi": 49,
            "name": "C#3",
            "ticks": 17400,
            "time": 25.163834499999997,
            "velocity": 0.4330708661417323
          },
          {
            "duration": 0.08430227499999887,
            "durationTicks": 58,
            "midi": 44,
            "name": "G#2",
            "ticks": 17520,
            "time": 25.338252999999998,
            "velocity": 0.48031496062992124
          },
          {
            "duration": 0.08430227499999887,
            "durationTicks": 58,
            "midi": 49,
            "name": "C#3",
            "ticks": 17520,
            "time": 25.338252999999998,
            "velocity": 0.3543307086614173
          },
          {
            "duration": 0.15843013750000168,
            "durationTicks": 109,
            "midi": 44,
            "name": "G#2",
            "ticks": 17640,
            "time": 25.512671499999996,
            "velocity": 0.889763779527559
          },
          {
            "duration": 0.15843013750000168,
            "durationTicks": 109,
            "midi": 49,
            "name": "C#3",
            "ticks": 17640,
            "time": 25.512671499999996,
            "velocity": 0.7637795275590551
          },
          {
            "duration": 0.09302319999999753,
            "durationTicks": 64,
            "midi": 44,
            "name": "G#2",
            "ticks": 17760,
            "time": 25.687089999999998,
            "velocity": 0.3858267716535433
          },
          {
            "duration": 0.09302319999999753,
            "durationTicks": 64,
            "midi": 49,
            "name": "C#3",
            "ticks": 17760,
            "time": 25.687089999999998,
            "velocity": 0.25984251968503935
          },
          {
            "duration": 0.08430227499999887,
            "durationTicks": 58,
            "midi": 44,
            "name": "G#2",
            "ticks": 17880,
            "time": 25.8615085,
            "velocity": 0.5196850393700787
          },
          {
            "duration": 0.08430227499999887,
            "durationTicks": 58,
            "midi": 49,
            "name": "C#3",
            "ticks": 17880,
            "time": 25.8615085,
            "velocity": 0.3937007874015748
          },
          {
            "duration": 0.08430227500000242,
            "durationTicks": 58,
            "midi": 44,
            "name": "G#2",
            "ticks": 18000,
            "time": 26.035926999999997,
            "velocity": 0.6377952755905512
          },
          {
            "duration": 0.08430227500000242,
            "durationTicks": 58,
            "midi": 49,
            "name": "C#3",
            "ticks": 18000,
            "time": 26.035926999999997,
            "velocity": 0.5118110236220472
          },
          {
            "duration": 0.1613371124999965,
            "durationTicks": 111,
            "midi": 44,
            "name": "G#2",
            "ticks": 18120,
            "time": 26.2103455,
            "velocity": 0.8661417322834646
          },
          {
            "duration": 0.1613371124999965,
            "durationTicks": 111,
            "midi": 49,
            "name": "C#3",
            "ticks": 18120,
            "time": 26.2103455,
            "velocity": 0.7401574803149606
          },
          {
            "duration": 0.08430227499999887,
            "durationTicks": 58,
            "midi": 44,
            "name": "G#2",
            "ticks": 18240,
            "time": 26.384763999999997,
            "velocity": 0.3700787401574803
          },
          {
            "duration": 0.08430227499999887,
            "durationTicks": 58,
            "midi": 49,
            "name": "C#3",
            "ticks": 18240,
            "time": 26.384763999999997,
            "velocity": 0.5826771653543307
          },
          {
            "duration": 0.08430227499999887,
            "durationTicks": 58,
            "midi": 44,
            "name": "G#2",
            "ticks": 18360,
            "time": 26.5591825,
            "velocity": 0.4566929133858268
          },
          {
            "duration": 0.08430227499999887,
            "durationTicks": 58,
            "midi": 49,
            "name": "C#3",
            "ticks": 18360,
            "time": 26.5591825,
            "velocity": 0.33070866141732286
          },
          {
            "duration": 0.1468022375000011,
            "durationTicks": 101,
            "midi": 44,
            "name": "G#2",
            "ticks": 18480,
            "time": 26.733600999999997,
            "velocity": 0.8976377952755905
          },
          {
            "duration": 0.1468022375000011,
            "durationTicks": 101,
            "midi": 49,
            "name": "C#3",
            "ticks": 18480,
            "time": 26.733600999999997,
            "velocity": 0.6377952755905512
          },
          {
            "duration": 0.08430227499999887,
            "durationTicks": 58,
            "midi": 44,
            "name": "G#2",
            "ticks": 18600,
            "time": 26.908019499999998,
            "velocity": 0.4881889763779528
          },
          {
            "duration": 0.08430227499999887,
            "durationTicks": 58,
            "midi": 49,
            "name": "C#3",
            "ticks": 18600,
            "time": 26.908019499999998,
            "velocity": 0.48031496062992124
          },
          {
            "duration": 0.08430227500000242,
            "durationTicks": 58,
            "midi": 44,
            "name": "G#2",
            "ticks": 18720,
            "time": 27.082437999999996,
            "velocity": 0.4409448818897638
          },
          {
            "duration": 0.08430227500000242,
            "durationTicks": 58,
            "midi": 49,
            "name": "C#3",
            "ticks": 18720,
            "time": 27.082437999999996,
            "velocity": 0.5511811023622047
          },
          {
            "duration": 0.162790600000001,
            "durationTicks": 112,
            "midi": 44,
            "name": "G#2",
            "ticks": 18840,
            "time": 27.256856499999998,
            "velocity": 0.889763779527559
          },
          {
            "duration": 0.16133711250000005,
            "durationTicks": 111,
            "midi": 49,
            "name": "C#3",
            "ticks": 18840,
            "time": 27.256856499999998,
            "velocity": 0.7637795275590551
          },
          {
            "duration": 0.08430227499999887,
            "durationTicks": 58,
            "midi": 44,
            "name": "G#2",
            "ticks": 18960,
            "time": 27.431275,
            "velocity": 0.47244094488188976
          },
          {
            "duration": 0.08430227499999887,
            "durationTicks": 58,
            "midi": 49,
            "name": "C#3",
            "ticks": 18960,
            "time": 27.431275,
            "velocity": 0.3464566929133858
          },
          {
            "duration": 0.08430227500000242,
            "durationTicks": 58,
            "midi": 44,
            "name": "G#2",
            "ticks": 19080,
            "time": 27.605693499999997,
            "velocity": 0.5275590551181102
          },
          {
            "duration": 0.08430227500000242,
            "durationTicks": 58,
            "midi": 49,
            "name": "C#3",
            "ticks": 19080,
            "time": 27.605693499999997,
            "velocity": 0.5905511811023622
          },
          {
            "duration": 0.14914768750000107,
            "durationTicks": 105,
            "midi": 44,
            "name": "G#2",
            "ticks": 19200,
            "time": 27.780111999999995,
            "velocity": 0.8188976377952756
          },
          {
            "duration": 0.14914768750000107,
            "durationTicks": 105,
            "midi": 51,
            "name": "D#3",
            "ticks": 19200,
            "time": 27.780111999999995,
            "velocity": 0.6929133858267716
          },
          {
            "duration": 0.08238634166666614,
            "durationTicks": 58,
            "midi": 44,
            "name": "G#2",
            "ticks": 19320,
            "time": 27.950566499999997,
            "velocity": 0.5590551181102362
          },
          {
            "duration": 0.08238634166666614,
            "durationTicks": 58,
            "midi": 51,
            "name": "D#3",
            "ticks": 19320,
            "time": 27.950566499999997,
            "velocity": 0.4330708661417323
          },
          {
            "duration": 0.08238634166666614,
            "durationTicks": 58,
            "midi": 44,
            "name": "G#2",
            "ticks": 19440,
            "time": 28.121020999999995,
            "velocity": 0.48031496062992124
          },
          {
            "duration": 0.08238634166666614,
            "durationTicks": 58,
            "midi": 51,
            "name": "D#3",
            "ticks": 19440,
            "time": 28.121020999999995,
            "velocity": 0.3543307086614173
          },
          {
            "duration": 0.1548295041666634,
            "durationTicks": 109,
            "midi": 44,
            "name": "G#2",
            "ticks": 19560,
            "time": 28.291475499999997,
            "velocity": 0.889763779527559
          },
          {
            "duration": 0.1548295041666634,
            "durationTicks": 109,
            "midi": 51,
            "name": "D#3",
            "ticks": 19560,
            "time": 28.291475499999997,
            "velocity": 0.7637795275590551
          },
          {
            "duration": 0.09090906666666854,
            "durationTicks": 64,
            "midi": 44,
            "name": "G#2",
            "ticks": 19680,
            "time": 28.461929999999995,
            "velocity": 0.3858267716535433
          },
          {
            "duration": 0.09090906666666854,
            "durationTicks": 64,
            "midi": 51,
            "name": "D#3",
            "ticks": 19680,
            "time": 28.461929999999995,
            "velocity": 0.25984251968503935
          },
          {
            "duration": 0.08238634166666614,
            "durationTicks": 58,
            "midi": 44,
            "name": "G#2",
            "ticks": 19800,
            "time": 28.632384499999997,
            "velocity": 0.5196850393700787
          },
          {
            "duration": 0.08238634166666614,
            "durationTicks": 58,
            "midi": 51,
            "name": "D#3",
            "ticks": 19800,
            "time": 28.632384499999997,
            "velocity": 0.3937007874015748
          },
          {
            "duration": 0.08238634166666614,
            "durationTicks": 58,
            "midi": 44,
            "name": "G#2",
            "ticks": 19920,
            "time": 28.802838999999995,
            "velocity": 0.6377952755905512
          },
          {
            "duration": 0.08238634166666614,
            "durationTicks": 58,
            "midi": 51,
            "name": "D#3",
            "ticks": 19920,
            "time": 28.802838999999995,
            "velocity": 0.5118110236220472
          },
          {
            "duration": 0.1576704124999999,
            "durationTicks": 111,
            "midi": 44,
            "name": "G#2",
            "ticks": 20040,
            "time": 28.973293499999997,
            "velocity": 0.8661417322834646
          },
          {
            "duration": 0.1576704124999999,
            "durationTicks": 111,
            "midi": 51,
            "name": "D#3",
            "ticks": 20040,
            "time": 28.973293499999997,
            "velocity": 0.7401574803149606
          },
          {
            "duration": 0.08333331249999887,
            "durationTicks": 58,
            "midi": 44,
            "name": "G#2",
            "ticks": 20160,
            "time": 29.143747999999995,
            "velocity": 0.5196850393700787
          },
          {
            "duration": 0.08333331249999887,
            "durationTicks": 58,
            "midi": 51,
            "name": "D#3",
            "ticks": 20160,
            "time": 29.143747999999995,
            "velocity": 0.5433070866141733
          },
          {
            "duration": 0.08333331249999887,
            "durationTicks": 58,
            "midi": 44,
            "name": "G#2",
            "ticks": 20280,
            "time": 29.316161749999996,
            "velocity": 0.5433070866141733
          },
          {
            "duration": 0.08333331249999887,
            "durationTicks": 58,
            "midi": 51,
            "name": "D#3",
            "ticks": 20280,
            "time": 29.316161749999996,
            "velocity": 0.33070866141732286
          },
          {
            "duration": 0.14511490625000079,
            "durationTicks": 101,
            "midi": 44,
            "name": "G#2",
            "ticks": 20400,
            "time": 29.488575499999996,
            "velocity": 0.8976377952755905
          },
          {
            "duration": 0.14655168750000058,
            "durationTicks": 102,
            "midi": 51,
            "name": "D#3",
            "ticks": 20400,
            "time": 29.488575499999996,
            "velocity": 0.7716535433070866
          },
          {
            "duration": 0.08333331249999887,
            "durationTicks": 58,
            "midi": 44,
            "name": "G#2",
            "ticks": 20520,
            "time": 29.660989249999997,
            "velocity": 0.5826771653543307
          },
          {
            "duration": 0.08333331249999887,
            "durationTicks": 58,
            "midi": 51,
            "name": "D#3",
            "ticks": 20520,
            "time": 29.660989249999997,
            "velocity": 0.5511811023622047
          },
          {
            "duration": 0.08333331250000242,
            "durationTicks": 58,
            "midi": 44,
            "name": "G#2",
            "ticks": 20640,
            "time": 29.833402999999993,
            "velocity": 0.5196850393700787
          },
          {
            "duration": 0.08333331250000242,
            "durationTicks": 58,
            "midi": 51,
            "name": "D#3",
            "ticks": 20640,
            "time": 29.833402999999993,
            "velocity": 0.31496062992125984
          },
          {
            "duration": 0.1609195000000021,
            "durationTicks": 112,
            "midi": 44,
            "name": "G#2",
            "ticks": 20760,
            "time": 30.005816749999994,
            "velocity": 0.5669291338582677
          },
          {
            "duration": 0.1609195000000021,
            "durationTicks": 112,
            "midi": 51,
            "name": "D#3",
            "ticks": 20760,
            "time": 30.005816749999994,
            "velocity": 0.5196850393700787
          },
          {
            "duration": 0.1666666250000013,
            "durationTicks": 116,
            "midi": 44,
            "name": "G#2",
            "ticks": 20880,
            "time": 30.178230499999994,
            "velocity": 0.7716535433070866
          },
          {
            "duration": 0.08333331249999887,
            "durationTicks": 58,
            "midi": 51,
            "name": "D#3",
            "ticks": 20880,
            "time": 30.178230499999994,
            "velocity": 0.3464566929133858
          },
          {
            "duration": 0.1666666250000013,
            "durationTicks": 116,
            "midi": 41,
            "name": "F2",
            "ticks": 21000,
            "time": 30.350644249999995,
            "velocity": 0.7874015748031497
          },
          {
            "duration": 0.08333331249999887,
            "durationTicks": 58,
            "midi": 51,
            "name": "D#3",
            "ticks": 21000,
            "time": 30.350644249999995,
            "velocity": 0.6850393700787402
          },
          {
            "duration": 0.15588227499999974,
            "durationTicks": 106,
            "midi": 46,
            "name": "A#2",
            "ticks": 21120,
            "time": 30.523057999999995,
            "velocity": 0.8188976377952756
          },
          {
            "duration": 0.15441168750000145,
            "durationTicks": 105,
            "midi": 51,
            "name": "D#3",
            "ticks": 21120,
            "time": 30.523057999999995,
            "velocity": 0.6929133858267716
          },
          {
            "duration": 0.08529407500000019,
            "durationTicks": 58,
            "midi": 46,
            "name": "A#2",
            "ticks": 21240,
            "time": 30.699528499999996,
            "velocity": 0.5590551181102362
          },
          {
            "duration": 0.08529407500000019,
            "durationTicks": 58,
            "midi": 51,
            "name": "D#3",
            "ticks": 21240,
            "time": 30.699528499999996,
            "velocity": 0.4330708661417323
          },
          {
            "duration": 0.08529407500000019,
            "durationTicks": 58,
            "midi": 46,
            "name": "A#2",
            "ticks": 21360,
            "time": 30.875998999999997,
            "velocity": 0.5590551181102362
          },
          {
            "duration": 0.08529407500000019,
            "durationTicks": 58,
            "midi": 51,
            "name": "D#3",
            "ticks": 21360,
            "time": 30.875998999999997,
            "velocity": 0.5590551181102362
          },
          {
            "duration": 0.1602940375000017,
            "durationTicks": 109,
            "midi": 46,
            "name": "A#2",
            "ticks": 21480,
            "time": 31.052469499999994,
            "velocity": 0.7480314960629921
          },
          {
            "duration": 0.161764625,
            "durationTicks": 110,
            "midi": 51,
            "name": "D#3",
            "ticks": 21480,
            "time": 31.052469499999994,
            "velocity": 0.8110236220472441
          },
          {
            "duration": 0.09411760000000058,
            "durationTicks": 64,
            "midi": 46,
            "name": "A#2",
            "ticks": 21600,
            "time": 31.228939999999994,
            "velocity": 0.6456692913385826
          },
          {
            "duration": 0.09411760000000058,
            "durationTicks": 64,
            "midi": 51,
            "name": "D#3",
            "ticks": 21600,
            "time": 31.228939999999994,
            "velocity": 0.6614173228346457
          },
          {
            "duration": 0.08529407500000019,
            "durationTicks": 58,
            "midi": 46,
            "name": "A#2",
            "ticks": 21720,
            "time": 31.405410499999995,
            "velocity": 0.6299212598425197
          },
          {
            "duration": 0.08529407500000019,
            "durationTicks": 58,
            "midi": 51,
            "name": "D#3",
            "ticks": 21720,
            "time": 31.405410499999995,
            "velocity": 0.6299212598425197
          },
          {
            "duration": 0.08529407500000019,
            "durationTicks": 58,
            "midi": 46,
            "name": "A#2",
            "ticks": 21840,
            "time": 31.581880999999996,
            "velocity": 0.6377952755905512
          },
          {
            "duration": 0.08529407500000019,
            "durationTicks": 58,
            "midi": 51,
            "name": "D#3",
            "ticks": 21840,
            "time": 31.581880999999996,
            "velocity": 0.5118110236220472
          },
          {
            "duration": 0.16323521249999828,
            "durationTicks": 111,
            "midi": 46,
            "name": "A#2",
            "ticks": 21960,
            "time": 31.758351499999996,
            "velocity": 0.8661417322834646
          },
          {
            "duration": 0.16470580000000012,
            "durationTicks": 112,
            "midi": 51,
            "name": "D#3",
            "ticks": 21960,
            "time": 31.758351499999996,
            "velocity": 0.7401574803149606
          },
          {
            "duration": 0.08529407500000019,
            "durationTicks": 58,
            "midi": 46,
            "name": "A#2",
            "ticks": 22080,
            "time": 31.934821999999997,
            "velocity": 0.5748031496062992
          },
          {
            "duration": 0.08529407500000019,
            "durationTicks": 58,
            "midi": 51,
            "name": "D#3",
            "ticks": 22080,
            "time": 31.934821999999997,
            "velocity": 0.5826771653543307
          },
          {
            "duration": 0.08529407500000019,
            "durationTicks": 58,
            "midi": 46,
            "name": "A#2",
            "ticks": 22200,
            "time": 32.1112925,
            "velocity": 0.4566929133858268
          },
          {
            "duration": 0.08529407500000019,
            "durationTicks": 58,
            "midi": 51,
            "name": "D#3",
            "ticks": 22200,
            "time": 32.1112925,
            "velocity": 0.33070866141732286
          },
          {
            "duration": 0.14852933749999409,
            "durationTicks": 101,
            "midi": 46,
            "name": "A#2",
            "ticks": 22320,
            "time": 32.287763,
            "velocity": 0.8976377952755905
          },
          {
            "duration": 0.14999992499999593,
            "durationTicks": 102,
            "midi": 51,
            "name": "D#3",
            "ticks": 22320,
            "time": 32.287763,
            "velocity": 0.7716535433070866
          },
          {
            "duration": 0.08529407500000019,
            "durationTicks": 58,
            "midi": 46,
            "name": "A#2",
            "ticks": 22440,
            "time": 32.46423349999999,
            "velocity": 0.4330708661417323
          },
          {
            "duration": 0.08529407500000019,
            "durationTicks": 58,
            "midi": 51,
            "name": "D#3",
            "ticks": 22440,
            "time": 32.46423349999999,
            "velocity": 0.4330708661417323
          },
          {
            "duration": 0.08529407500000019,
            "durationTicks": 58,
            "midi": 46,
            "name": "A#2",
            "ticks": 22560,
            "time": 32.64070399999999,
            "velocity": 0.5826771653543307
          },
          {
            "duration": 0.08529407500000019,
            "durationTicks": 58,
            "midi": 51,
            "name": "D#3",
            "ticks": 22560,
            "time": 32.64070399999999,
            "velocity": 0.6141732283464567
          },
          {
            "duration": 0.16470580000000012,
            "durationTicks": 112,
            "midi": 46,
            "name": "A#2",
            "ticks": 22680,
            "time": 32.81717449999999,
            "velocity": 0.889763779527559
          },
          {
            "duration": 0.16470580000000012,
            "durationTicks": 112,
            "midi": 51,
            "name": "D#3",
            "ticks": 22680,
            "time": 32.81717449999999,
            "velocity": 0.7637795275590551
          },
          {
            "duration": 0.08529407500000019,
            "durationTicks": 58,
            "midi": 46,
            "name": "A#2",
            "ticks": 22800,
            "time": 32.993644999999994,
            "velocity": 0.47244094488188976
          },
          {
            "duration": 0.08529407500000019,
            "durationTicks": 58,
            "midi": 51,
            "name": "D#3",
            "ticks": 22800,
            "time": 32.993644999999994,
            "velocity": 0.3464566929133858
          },
          {
            "duration": 0.08529407500000019,
            "durationTicks": 58,
            "midi": 46,
            "name": "A#2",
            "ticks": 22920,
            "time": 33.170115499999994,
            "velocity": 0.48031496062992124
          },
          {
            "duration": 0.08529407500000019,
            "durationTicks": 58,
            "midi": 51,
            "name": "D#3",
            "ticks": 22920,
            "time": 33.170115499999994,
            "velocity": 0.48031496062992124
          },
          {
            "duration": 0.1526161875000014,
            "durationTicks": 105,
            "midi": 46,
            "name": "A#2",
            "ticks": 23040,
            "time": 33.346585999999995,
            "velocity": 0.8188976377952756
          },
          {
            "duration": 0.1526161875000014,
            "durationTicks": 105,
            "midi": 51,
            "name": "D#3",
            "ticks": 23040,
            "time": 33.346585999999995,
            "velocity": 0.6929133858267716
          },
          {
            "duration": 0.08430227499999887,
            "durationTicks": 58,
            "midi": 46,
            "name": "A#2",
            "ticks": 23160,
            "time": 33.5210045,
            "velocity": 0.5590551181102362
          },
          {
            "duration": 0.08430227499999887,
            "durationTicks": 58,
            "midi": 51,
            "name": "D#3",
            "ticks": 23160,
            "time": 33.5210045,
            "velocity": 0.4330708661417323
          },
          {
            "duration": 0.08430227499999887,
            "durationTicks": 58,
            "midi": 46,
            "name": "A#2",
            "ticks": 23280,
            "time": 33.695423,
            "velocity": 0.48031496062992124
          },
          {
            "duration": 0.08430227499999887,
            "durationTicks": 58,
            "midi": 51,
            "name": "D#3",
            "ticks": 23280,
            "time": 33.695423,
            "velocity": 0.3543307086614173
          },
          {
            "duration": 0.15843013750000523,
            "durationTicks": 109,
            "midi": 46,
            "name": "A#2",
            "ticks": 23400,
            "time": 33.86984149999999,
            "velocity": 0.889763779527559
          },
          {
            "duration": 0.15988362499999909,
            "durationTicks": 110,
            "midi": 51,
            "name": "D#3",
            "ticks": 23400,
            "time": 33.86984149999999,
            "velocity": 0.7637795275590551
          },
          {
            "duration": 0.09302319999999753,
            "durationTicks": 64,
            "midi": 46,
            "name": "A#2",
            "ticks": 23520,
            "time": 34.044259999999994,
            "velocity": 0.3858267716535433
          },
          {
            "duration": 0.09302319999999753,
            "durationTicks": 64,
            "midi": 51,
            "name": "D#3",
            "ticks": 23520,
            "time": 34.044259999999994,
            "velocity": 0.25984251968503935
          },
          {
            "duration": 0.08430227499999887,
            "durationTicks": 58,
            "midi": 46,
            "name": "A#2",
            "ticks": 23640,
            "time": 34.218678499999996,
            "velocity": 0.5196850393700787
          },
          {
            "duration": 0.08430227499999887,
            "durationTicks": 58,
            "midi": 51,
            "name": "D#3",
            "ticks": 23640,
            "time": 34.218678499999996,
            "velocity": 0.3937007874015748
          },
          {
            "duration": 0.08430227499999887,
            "durationTicks": 58,
            "midi": 46,
            "name": "A#2",
            "ticks": 23760,
            "time": 34.393097,
            "velocity": 0.6377952755905512
          },
          {
            "duration": 0.08430227499999887,
            "durationTicks": 58,
            "midi": 51,
            "name": "D#3",
            "ticks": 23760,
            "time": 34.393097,
            "velocity": 0.5118110236220472
          },
          {
            "duration": 0.162790600000001,
            "durationTicks": 112,
            "midi": 46,
            "name": "A#2",
            "ticks": 23880,
            "time": 34.56751549999999,
            "velocity": 0.8661417322834646
          },
          {
            "duration": 0.16133711250000005,
            "durationTicks": 111,
            "midi": 51,
            "name": "D#3",
            "ticks": 23880,
            "time": 34.56751549999999,
            "velocity": 0.7401574803149606
          },
          {
            "duration": 0.08430227499999887,
            "durationTicks": 58,
            "midi": 46,
            "name": "A#2",
            "ticks": 24000,
            "time": 34.74193399999999,
            "velocity": 0.5826771653543307
          },
          {
            "duration": 0.08430227499999887,
            "durationTicks": 58,
            "midi": 51,
            "name": "D#3",
            "ticks": 24000,
            "time": 34.74193399999999,
            "velocity": 0.5826771653543307
          },
          {
            "duration": 0.08430227499999887,
            "durationTicks": 58,
            "midi": 46,
            "name": "A#2",
            "ticks": 24120,
            "time": 34.916352499999995,
            "velocity": 0.4566929133858268
          },
          {
            "duration": 0.08430227499999887,
            "durationTicks": 58,
            "midi": 51,
            "name": "D#3",
            "ticks": 24120,
            "time": 34.916352499999995,
            "velocity": 0.33070866141732286
          },
          {
            "duration": 0.1482557249999985,
            "durationTicks": 102,
            "midi": 46,
            "name": "A#2",
            "ticks": 24240,
            "time": 35.090771,
            "velocity": 0.8976377952755905
          },
          {
            "duration": 0.14680223749999755,
            "durationTicks": 101,
            "midi": 51,
            "name": "D#3",
            "ticks": 24240,
            "time": 35.090771,
            "velocity": 0.7716535433070866
          },
          {
            "duration": 0.08430227499999887,
            "durationTicks": 58,
            "midi": 46,
            "name": "A#2",
            "ticks": 24360,
            "time": 35.2651895,
            "velocity": 0.29133858267716534
          },
          {
            "duration": 0.08430227499999887,
            "durationTicks": 58,
            "midi": 51,
            "name": "D#3",
            "ticks": 24360,
            "time": 35.2651895,
            "velocity": 0.4881889763779528
          },
          {
            "duration": 0.08430227499999887,
            "durationTicks": 58,
            "midi": 46,
            "name": "A#2",
            "ticks": 24480,
            "time": 35.43960799999999,
            "velocity": 0.5748031496062992
          },
          {
            "duration": 0.08430227499999887,
            "durationTicks": 58,
            "midi": 51,
            "name": "D#3",
            "ticks": 24480,
            "time": 35.43960799999999,
            "velocity": 0.5511811023622047
          },
          {
            "duration": 0.162790600000001,
            "durationTicks": 112,
            "midi": 46,
            "name": "A#2",
            "ticks": 24600,
            "time": 35.614026499999994,
            "velocity": 0.889763779527559
          },
          {
            "duration": 0.162790600000001,
            "durationTicks": 112,
            "midi": 51,
            "name": "D#3",
            "ticks": 24600,
            "time": 35.614026499999994,
            "velocity": 0.7637795275590551
          },
          {
            "duration": 0.08430227499999887,
            "durationTicks": 58,
            "midi": 46,
            "name": "A#2",
            "ticks": 24720,
            "time": 35.788444999999996,
            "velocity": 0.6377952755905512
          },
          {
            "duration": 0.08430227499999887,
            "durationTicks": 58,
            "midi": 51,
            "name": "D#3",
            "ticks": 24720,
            "time": 35.788444999999996,
            "velocity": 0.6377952755905512
          },
          {
            "duration": 0.08430227499999887,
            "durationTicks": 58,
            "midi": 46,
            "name": "A#2",
            "ticks": 24840,
            "time": 35.9628635,
            "velocity": 0.5669291338582677
          },
          {
            "duration": 0.08430227499999887,
            "durationTicks": 58,
            "midi": 51,
            "name": "D#3",
            "ticks": 24840,
            "time": 35.9628635,
            "velocity": 0.6850393700787402
          },
          {
            "duration": 0.15406967500000235,
            "durationTicks": 106,
            "midi": 44,
            "name": "G#2",
            "ticks": 24960,
            "time": 36.13728199999999,
            "velocity": 0.8188976377952756
          },
          {
            "duration": 0.1526161875000014,
            "durationTicks": 105,
            "midi": 49,
            "name": "C#3",
            "ticks": 24960,
            "time": 36.13728199999999,
            "velocity": 0.6929133858267716
          },
          {
            "duration": 0.08430227499999887,
            "durationTicks": 58,
            "midi": 44,
            "name": "G#2",
            "ticks": 25080,
            "time": 36.31170049999999,
            "velocity": 0.5590551181102362
          },
          {
            "duration": 0.08430227499999887,
            "durationTicks": 58,
            "midi": 49,
            "name": "C#3",
            "ticks": 25080,
            "time": 36.31170049999999,
            "velocity": 0.4330708661417323
          },
          {
            "duration": 0.08430227499999887,
            "durationTicks": 58,
            "midi": 44,
            "name": "G#2",
            "ticks": 25200,
            "time": 36.486118999999995,
            "velocity": 0.48031496062992124
          },
          {
            "duration": 0.08430227499999887,
            "durationTicks": 58,
            "midi": 49,
            "name": "C#3",
            "ticks": 25200,
            "time": 36.486118999999995,
            "velocity": 0.3543307086614173
          },
          {
            "duration": 0.15843013749999812,
            "durationTicks": 109,
            "midi": 44,
            "name": "G#2",
            "ticks": 25320,
            "time": 36.6605375,
            "velocity": 0.889763779527559
          },
          {
            "duration": 0.15843013749999812,
            "durationTicks": 109,
            "midi": 49,
            "name": "C#3",
            "ticks": 25320,
            "time": 36.6605375,
            "velocity": 0.7637795275590551
          },
          {
            "duration": 0.0919540000000012,
            "durationTicks": 64,
            "midi": 44,
            "name": "G#2",
            "ticks": 25440,
            "time": 36.834956,
            "velocity": 0.3858267716535433
          },
          {
            "duration": 0.0919540000000012,
            "durationTicks": 64,
            "midi": 49,
            "name": "C#3",
            "ticks": 25440,
            "time": 36.834956,
            "velocity": 0.25984251968503935
          },
          {
            "duration": 0.08333331250000242,
            "durationTicks": 58,
            "midi": 44,
            "name": "G#2",
            "ticks": 25560,
            "time": 37.007369749999995,
            "velocity": 0.5196850393700787
          },
          {
            "duration": 0.08333331250000242,
            "durationTicks": 58,
            "midi": 49,
            "name": "C#3",
            "ticks": 25560,
            "time": 37.007369749999995,
            "velocity": 0.3937007874015748
          },
          {
            "duration": 0.08333331250000242,
            "durationTicks": 58,
            "midi": 44,
            "name": "G#2",
            "ticks": 25680,
            "time": 37.1797835,
            "velocity": 0.6377952755905512
          },
          {
            "duration": 0.08333331250000242,
            "durationTicks": 58,
            "midi": 49,
            "name": "C#3",
            "ticks": 25680,
            "time": 37.1797835,
            "velocity": 0.5118110236220472
          },
          {
            "duration": 0.15948271874999875,
            "durationTicks": 111,
            "midi": 44,
            "name": "G#2",
            "ticks": 25800,
            "time": 37.352197249999996,
            "velocity": 0.8661417322834646
          },
          {
            "duration": 0.15948271874999875,
            "durationTicks": 111,
            "midi": 49,
            "name": "C#3",
            "ticks": 25800,
            "time": 37.352197249999996,
            "velocity": 0.7401574803149606
          },
          {
            "duration": 0.08333331249999532,
            "durationTicks": 58,
            "midi": 44,
            "name": "G#2",
            "ticks": 25920,
            "time": 37.524611,
            "velocity": 0.3700787401574803
          },
          {
            "duration": 0.08333331249999532,
            "durationTicks": 58,
            "midi": 49,
            "name": "C#3",
            "ticks": 25920,
            "time": 37.524611,
            "velocity": 0.5826771653543307
          },
          {
            "duration": 0.08333331250000242,
            "durationTicks": 58,
            "midi": 44,
            "name": "G#2",
            "ticks": 26040,
            "time": 37.69702475,
            "velocity": 0.4566929133858268
          },
          {
            "duration": 0.08333331250000242,
            "durationTicks": 58,
            "midi": 49,
            "name": "C#3",
            "ticks": 26040,
            "time": 37.69702475,
            "velocity": 0.33070866141732286
          },
          {
            "duration": 0.14511490625000079,
            "durationTicks": 101,
            "midi": 44,
            "name": "G#2",
            "ticks": 26160,
            "time": 37.8694385,
            "velocity": 0.8976377952755905
          },
          {
            "duration": 0.14511490625000079,
            "durationTicks": 101,
            "midi": 49,
            "name": "C#3",
            "ticks": 26160,
            "time": 37.8694385,
            "velocity": 0.6377952755905512
          },
          {
            "duration": 0.08333331250000242,
            "durationTicks": 58,
            "midi": 44,
            "name": "G#2",
            "ticks": 26280,
            "time": 38.04185225,
            "velocity": 0.4881889763779528
          },
          {
            "duration": 0.08333331250000242,
            "durationTicks": 58,
            "midi": 49,
            "name": "C#3",
            "ticks": 26280,
            "time": 38.04185225,
            "velocity": 0.48031496062992124
          },
          {
            "duration": 0.08333331250000242,
            "durationTicks": 58,
            "midi": 44,
            "name": "G#2",
            "ticks": 26400,
            "time": 38.214265999999995,
            "velocity": 0.4409448818897638
          },
          {
            "duration": 0.08333331250000242,
            "durationTicks": 58,
            "midi": 49,
            "name": "C#3",
            "ticks": 26400,
            "time": 38.214265999999995,
            "velocity": 0.5511811023622047
          },
          {
            "duration": 0.16091949999999855,
            "durationTicks": 112,
            "midi": 44,
            "name": "G#2",
            "ticks": 26520,
            "time": 38.38667975,
            "velocity": 0.6377952755905512
          },
          {
            "duration": 0.15948271874999875,
            "durationTicks": 111,
            "midi": 49,
            "name": "C#3",
            "ticks": 26520,
            "time": 38.38667975,
            "velocity": 0.5984251968503937
          },
          {
            "duration": 0.08333331250000242,
            "durationTicks": 58,
            "midi": 44,
            "name": "G#2",
            "ticks": 26640,
            "time": 38.559093499999996,
            "velocity": 0.4881889763779528
          },
          {
            "duration": 0.08333331250000242,
            "durationTicks": 58,
            "midi": 49,
            "name": "C#3",
            "ticks": 26640,
            "time": 38.559093499999996,
            "velocity": 0.4881889763779528
          },
          {
            "duration": 0.08333331249999532,
            "durationTicks": 58,
            "midi": 44,
            "name": "G#2",
            "ticks": 26760,
            "time": 38.73150725,
            "velocity": 0.4094488188976378
          },
          {
            "duration": 0.08333331249999532,
            "durationTicks": 58,
            "midi": 49,
            "name": "C#3",
            "ticks": 26760,
            "time": 38.73150725,
            "velocity": 0.4094488188976378
          }
        ]
      },
      {
        "channel": 0,
        "controlChanges": {
          "0": [
            {
              "number": 0,
              "ticks": 496,
              "time": 0.7209298000000001,
              "value": 0
            }
          ],
          "32": [
            {
              "number": 32,
              "ticks": 496,
              "time": 0.7209298000000001,
              "value": 0
            }
          ]
        },
        "pitchBends": [],
        "instrument": {
          "family": "piano",
          "number": 0,
          "name": "acoustic grand piano"
        },
        "name": "Strawberry Swing (MIDI DEMO)",
        "notes": [],
        "endOfTrackTicks": 28800
      },
      {
        "channel": 0,
        "controlChanges": {
          "6": [
            {
              "number": 6,
              "ticks": 651,
              "time": 0.9462203625,
              "value": 0.015748031496062992
            }
          ],
          "7": [
            {
              "number": 7,
              "ticks": 497,
              "time": 0.7223832875,
              "value": 0.7086614173228346
            }
          ],
          "10": [
            {
              "number": 10,
              "ticks": 497,
              "time": 0.7223832875,
              "value": 0.8188976377952756
            }
          ],
          "11": [
            {
              "number": 11,
              "ticks": 535,
              "time": 0.7776158125,
              "value": 1
            }
          ],
          "38": [
            {
              "number": 38,
              "ticks": 652,
              "time": 0.94767385,
              "value": 0
            }
          ],
          "91": [
            {
              "number": 91,
              "ticks": 497,
              "time": 0.7223832875,
              "value": 0.6299212598425197
            }
          ],
          "93": [
            {
              "number": 93,
              "ticks": 497,
              "time": 0.7223832875,
              "value": 0
            }
          ],
          "100": [
            {
              "number": 100,
              "ticks": 650,
              "time": 0.9447668750000001,
              "value": 0
            }
          ],
          "101": [
            {
              "number": 101,
              "ticks": 649,
              "time": 0.9433133875,
              "value": 0
            }
          ],
          "120": [
            {
              "number": 120,
              "ticks": 28755,
              "time": 41.661272562499995,
              "value": 0
            }
          ],
          "123": [
            {
              "number": 123,
              "ticks": 28680,
              "time": 41.5509785,
              "value": 0
            }
          ]
        },
        "pitchBends": [],
        "instrument": {
          "family": "guitar",
          "number": 25,
          "name": "acoustic guitar (steel)"
        },
        "name": "",
        "notes": []
      },
      {
        "channel": 0,
        "controlChanges": {
          "0": [
            {
              "number": 0,
              "ticks": 496,
              "time": 0.7209298000000001,
              "value": 0
            }
          ],
          "6": [
            {
              "number": 6,
              "ticks": 651,
              "time": 0.9462203625,
              "value": 0.015748031496062992
            }
          ],
          "7": [
            {
              "number": 7,
              "ticks": 497,
              "time": 0.7223832875,
              "value": 0.7874015748031497
            }
          ],
          "10": [
            {
              "number": 10,
              "ticks": 497,
              "time": 0.7223832875,
              "value": 0.5039370078740157
            }
          ],
          "11": [
            {
              "number": 11,
              "ticks": 535,
              "time": 0.7776158125,
              "value": 1
            }
          ],
          "32": [
            {
              "number": 32,
              "ticks": 496,
              "time": 0.7209298000000001,
              "value": 0
            }
          ],
          "38": [
            {
              "number": 38,
              "ticks": 652,
              "time": 0.94767385,
              "value": 0
            }
          ],
          "91": [
            {
              "number": 91,
              "ticks": 497,
              "time": 0.7223832875,
              "value": 0.31496062992125984
            }
          ],
          "93": [
            {
              "number": 93,
              "ticks": 497,
              "time": 0.7223832875,
              "value": 0
            }
          ],
          "100": [
            {
              "number": 100,
              "ticks": 650,
              "time": 0.9447668750000001,
              "value": 0
            }
          ],
          "101": [
            {
              "number": 101,
              "ticks": 649,
              "time": 0.9433133875,
              "value": 0
            }
          ]
        },
        "pitchBends": [],
        "instrument": {
          "family": "piano",
          "number": 0,
          "name": "acoustic grand piano"
        },
        "name": "Strawberry Swing (MIDI DEMO)",
        "notes": [],
        "endOfTrackTicks": 28800
      }
    ]
  }