{
    "header": {
      "keySignatures": [
        {
          "key": "C",
          "scale": "major",
          "ticks": 0
        }
      ],
      "meta": [],
      "name": "",
      "ppq": 480,
      "tempos": [
        {
          "bpm": 120,
          "ticks": 0
        },
        {
          "bpm": 130.00013000013,
          "ticks": 5760
        }
      ],
      "timeSignatures": [
        {
          "ticks": 0,
          "timeSignature": [
            4,
            4
          ],
          "measures": 0
        }
      ]
    },
    "tracks": [
      {
        "channel": 0,
        "controlChanges": {},
        "pitchBends": [],
        "instrument": {
          "family": "piano",
          "number": 0,
          "name": "acoustic grand piano"
        },
        "name": "Instrument Name*mezclada",
        "notes": [],
        "endOfTrackTicks": 38400
      },
      {
        "channel": 0,
        "controlChanges": {},
        "pitchBends": [],
        "instrument": {
          "family": "piano",
          "number": 0,
          "name": "acoustic grand piano"
        },
        "name": "Instrument Name*mezclada",
        "notes": [],
        "endOfTrackTicks": 38400
      },
      {
        "channel": 1,
        "controlChanges": {
          "1": [
            {
              "number": 1,
              "ticks": 2406,
              "time": 2.50625,
              "value": 0
            }
          ],
          "7": [
            {
              "number": 7,
              "ticks": 512,
              "time": 0.5333333333333333,
              "value": 0.84251968503937
            }
          ],
          "10": [
            {
              "number": 10,
              "ticks": 512,
              "time": 0.5333333333333333,
              "value": 0.5039370078740157
            }
          ],
          "11": [
            {
              "number": 11,
              "ticks": 512,
              "time": 0.5333333333333333,
              "value": 1
            }
          ],
          "91": [
            {
              "number": 91,
              "ticks": 516,
              "time": 0.5375,
              "value": 0
            }
          ],
          "93": [
            {
              "number": 93,
              "ticks": 516,
              "time": 0.5375,
              "value": 0
            }
          ]
        },
        "pitchBends": [
          {
            "ticks": 2414,
            "time": 2.5145833333333334,
            "value": 0
          }
        ],
        "instrument": {
          "family": "bass",
          "number": 33,
          "name": "electric bass (finger)"
        },
        "name": "",
        "notes": [
          {
            "duration": 0.5461533000000003,
            "durationTicks": 568,
            "midi": 47,
            "name": "B2",
            "ticks": 5760,
            "time": 6,
            "velocity": 0.7086614173228346
          },
          {
            "duration": 0.10769220000000068,
            "durationTicks": 112,
            "midi": 47,
            "name": "B2",
            "ticks": 6480,
            "time": 6.692307,
            "velocity": 0.5196850393700787
          },
          {
            "duration": 0.5499994499999996,
            "durationTicks": 572,
            "midi": 42,
            "name": "F#2",
            "ticks": 6720,
            "time": 6.923076,
            "velocity": 0.6850393700787402
          },
          {
            "duration": 0.7384608000000004,
            "durationTicks": 768,
            "midi": 47,
            "name": "B2",
            "ticks": 7440,
            "time": 7.615383,
            "velocity": 0.6614173228346457
          },
          {
            "duration": 0.07307684999999964,
            "durationTicks": 76,
            "midi": 47,
            "name": "B2",
            "ticks": 8400,
            "time": 8.538459,
            "velocity": 0.5511811023622047
          },
          {
            "duration": 0.3769226999999997,
            "durationTicks": 392,
            "midi": 42,
            "name": "F#2",
            "ticks": 8640,
            "time": 8.769228,
            "velocity": 0.7244094488188977
          },
          {
            "duration": 0.28076895000000057,
            "durationTicks": 292,
            "midi": 42,
            "name": "F#2",
            "ticks": 9120,
            "time": 9.230766,
            "velocity": 0.6850393700787402
          },
          {
            "duration": 0.5269225500000001,
            "durationTicks": 548,
            "midi": 42,
            "name": "F#2",
            "ticks": 9600,
            "time": 9.692304,
            "velocity": 0.8346456692913385
          },
          {
            "duration": 0.7307684999999999,
            "durationTicks": 760,
            "midi": 42,
            "name": "F#2",
            "ticks": 10320,
            "time": 10.384611,
            "velocity": 0.7244094488188977
          },
          {
            "duration": 0.3461534999999998,
            "durationTicks": 360,
            "midi": 42,
            "name": "F#2",
            "ticks": 11280,
            "time": 11.307687,
            "velocity": 0.6456692913385826
          },
          {
            "duration": 0.3307689000000007,
            "durationTicks": 344,
            "midi": 42,
            "name": "F#2",
            "ticks": 11760,
            "time": 11.769224999999999,
            "velocity": 0.8582677165354331
          },
          {
            "duration": 0.07692300000000074,
            "durationTicks": 80,
            "midi": 42,
            "name": "F#2",
            "ticks": 12240,
            "time": 12.230763,
            "velocity": 0.5196850393700787
          },
          {
            "duration": 0.3807688500000008,
            "durationTicks": 396,
            "midi": 54,
            "name": "F#3",
            "ticks": 12480,
            "time": 12.461531999999998,
            "velocity": 0.8031496062992126
          },
          {
            "duration": 0.3461534999999998,
            "durationTicks": 360,
            "midi": 54,
            "name": "F#3",
            "ticks": 12960,
            "time": 12.92307,
            "velocity": 0.6456692913385826
          },
          {
            "duration": 0.5115379499999992,
            "durationTicks": 532,
            "midi": 47,
            "name": "B2",
            "ticks": 13440,
            "time": 13.384608,
            "velocity": 0.7086614173228346
          },
          {
            "duration": 0.07307684999999964,
            "durationTicks": 76,
            "midi": 47,
            "name": "B2",
            "ticks": 14160,
            "time": 14.076915,
            "velocity": 0.6220472440944882
          },
          {
            "duration": 0.542307150000001,
            "durationTicks": 564,
            "midi": 42,
            "name": "F#2",
            "ticks": 14400,
            "time": 14.307683999999998,
            "velocity": 0.7007874015748031
          },
          {
            "duration": 0.09615374999999915,
            "durationTicks": 100,
            "midi": 47,
            "name": "B2",
            "ticks": 15120,
            "time": 14.999991,
            "velocity": 0.6535433070866141
          },
          {
            "duration": 0.33846120000000113,
            "durationTicks": 352,
            "midi": 47,
            "name": "B2",
            "ticks": 15600,
            "time": 15.461528999999999,
            "velocity": 0.6850393700787402
          },
          {
            "duration": 0.13076909999999842,
            "durationTicks": 136,
            "midi": 47,
            "name": "B2",
            "ticks": 16080,
            "time": 15.923067,
            "velocity": 0.6062992125984252
          },
          {
            "duration": 0.3884611499999977,
            "durationTicks": 404,
            "midi": 42,
            "name": "F#2",
            "ticks": 16320,
            "time": 16.153836,
            "velocity": 0.7795275590551181
          },
          {
            "duration": 0.24615359999999953,
            "durationTicks": 256,
            "midi": 42,
            "name": "F#2",
            "ticks": 16800,
            "time": 16.615374,
            "velocity": 0.47244094488188976
          },
          {
            "duration": 0.5692301999999998,
            "durationTicks": 592,
            "midi": 42,
            "name": "F#2",
            "ticks": 17280,
            "time": 17.076912,
            "velocity": 0.7795275590551181
          },
          {
            "duration": 0.8346145499999977,
            "durationTicks": 868,
            "midi": 54,
            "name": "F#3",
            "ticks": 18000,
            "time": 17.769219,
            "velocity": 0.7795275590551181
          },
          {
            "duration": 0.7192300500000002,
            "durationTicks": 748,
            "midi": 42,
            "name": "F#2",
            "ticks": 18960,
            "time": 18.692294999999998,
            "velocity": 0.7795275590551181
          },
          {
            "duration": 0.11153835000000356,
            "durationTicks": 116,
            "midi": 42,
            "name": "F#2",
            "ticks": 19920,
            "time": 19.615370999999996,
            "velocity": 0.5118110236220472
          },
          {
            "duration": 0.3730765500000004,
            "durationTicks": 388,
            "midi": 54,
            "name": "F#3",
            "ticks": 20160,
            "time": 19.84614,
            "velocity": 0.8031496062992126
          },
          {
            "duration": 0.2192305499999989,
            "durationTicks": 228,
            "midi": 54,
            "name": "F#3",
            "ticks": 20640,
            "time": 20.307678,
            "velocity": 0.7086614173228346
          },
          {
            "duration": 0.5038456499999988,
            "durationTicks": 524,
            "midi": 47,
            "name": "B2",
            "ticks": 21120,
            "time": 20.769216,
            "velocity": 0.7637795275590551
          },
          {
            "duration": 0.06923069999999854,
            "durationTicks": 72,
            "midi": 47,
            "name": "B2",
            "ticks": 21840,
            "time": 21.461523,
            "velocity": 0.5590551181102362
          },
          {
            "duration": 0.35769194999999954,
            "durationTicks": 372,
            "midi": 42,
            "name": "F#2",
            "ticks": 22080,
            "time": 21.692292,
            "velocity": 0.6850393700787402
          },
          {
            "duration": 0.3692303999999993,
            "durationTicks": 384,
            "midi": 47,
            "name": "B2",
            "ticks": 22560,
            "time": 22.15383,
            "velocity": 0.7244094488188977
          },
          {
            "duration": 0.5615379000000011,
            "durationTicks": 584,
            "midi": 40,
            "name": "E2",
            "ticks": 23040,
            "time": 22.615367999999997,
            "velocity": 0.7637795275590551
          },
          {
            "duration": 0.2999996999999972,
            "durationTicks": 312,
            "midi": 40,
            "name": "E2",
            "ticks": 23760,
            "time": 23.307675,
            "velocity": 0.6771653543307087
          },
          {
            "duration": 0.0961537500000027,
            "durationTicks": 100,
            "midi": 40,
            "name": "E2",
            "ticks": 24240,
            "time": 23.769212999999997,
            "velocity": 0.7244094488188977
          },
          {
            "duration": 0.3461534999999998,
            "durationTicks": 360,
            "midi": 47,
            "name": "B2",
            "ticks": 24480,
            "time": 23.999982,
            "velocity": 0.7401574803149606
          },
          {
            "duration": 0.5307686999999994,
            "durationTicks": 552,
            "midi": 39,
            "name": "D#2",
            "ticks": 24960,
            "time": 24.461519999999997,
            "velocity": 0.7637795275590551
          },
          {
            "duration": 0.0961537500000027,
            "durationTicks": 100,
            "midi": 39,
            "name": "D#2",
            "ticks": 25680,
            "time": 25.153826999999996,
            "velocity": 0.6771653543307087
          },
          {
            "duration": 0.3961534499999999,
            "durationTicks": 412,
            "midi": 46,
            "name": "A#2",
            "ticks": 25920,
            "time": 25.384596,
            "velocity": 0.7244094488188977
          },
          {
            "duration": 0.32307660000000027,
            "durationTicks": 336,
            "midi": 39,
            "name": "D#2",
            "ticks": 26400,
            "time": 25.846134,
            "velocity": 0.7637795275590551
          },
          {
            "duration": 0.4846149000000004,
            "durationTicks": 504,
            "midi": 44,
            "name": "G#2",
            "ticks": 26880,
            "time": 26.307671999999997,
            "velocity": 0.7637795275590551
          },
          {
            "duration": 0.0961537500000027,
            "durationTicks": 100,
            "midi": 44,
            "name": "G#2",
            "ticks": 27600,
            "time": 26.999978999999996,
            "velocity": 0.7086614173228346
          },
          {
            "duration": 0.40769189999999966,
            "durationTicks": 424,
            "midi": 51,
            "name": "D#3",
            "ticks": 27840,
            "time": 27.230748,
            "velocity": 0.6614173228346457
          },
          {
            "duration": 0.3307688999999989,
            "durationTicks": 344,
            "midi": 44,
            "name": "G#2",
            "ticks": 28320,
            "time": 27.692286,
            "velocity": 0.7637795275590551
          },
          {
            "duration": 0.4923072000000026,
            "durationTicks": 512,
            "midi": 49,
            "name": "C#3",
            "ticks": 28800,
            "time": 28.153823999999997,
            "velocity": 0.7244094488188977
          },
          {
            "duration": 0.0961537500000027,
            "durationTicks": 100,
            "midi": 49,
            "name": "C#3",
            "ticks": 29520,
            "time": 28.846130999999996,
            "velocity": 0.5748031496062992
          },
          {
            "duration": 0.7615376999999981,
            "durationTicks": 792,
            "midi": 44,
            "name": "G#2",
            "ticks": 29760,
            "time": 29.0769,
            "velocity": 0.7795275590551181
          },
          {
            "duration": 0.5730763500000009,
            "durationTicks": 596,
            "midi": 42,
            "name": "F#2",
            "ticks": 30720,
            "time": 29.999975999999997,
            "velocity": 0.7637795275590551
          },
          {
            "duration": 0.11538450000000111,
            "durationTicks": 120,
            "midi": 42,
            "name": "F#2",
            "ticks": 31440,
            "time": 30.692282999999996,
            "velocity": 0.7401574803149606
          },
          {
            "duration": 0.3961534499999999,
            "durationTicks": 412,
            "midi": 49,
            "name": "C#3",
            "ticks": 31680,
            "time": 30.923052,
            "velocity": 0.7559055118110236
          },
          {
            "duration": 0.36153810000000064,
            "durationTicks": 376,
            "midi": 42,
            "name": "F#2",
            "ticks": 32160,
            "time": 31.384589999999996,
            "velocity": 0.7795275590551181
          },
          {
            "duration": 0.5307686999999994,
            "durationTicks": 552,
            "midi": 47,
            "name": "B2",
            "ticks": 32640,
            "time": 31.846127999999997,
            "velocity": 0.6850393700787402
          },
          {
            "duration": 0.10384605000000136,
            "durationTicks": 108,
            "midi": 47,
            "name": "B2",
            "ticks": 33360,
            "time": 32.53843499999999,
            "velocity": 0.49606299212598426
          },
          {
            "duration": 0.761537699999991,
            "durationTicks": 792,
            "midi": 42,
            "name": "F#2",
            "ticks": 33600,
            "time": 32.769204,
            "velocity": 0.7086614173228346
          },
          {
            "duration": 0.5615379000000047,
            "durationTicks": 584,
            "midi": 49,
            "name": "C#3",
            "ticks": 34560,
            "time": 33.69228,
            "velocity": 0.8188976377952756
          },
          {
            "duration": 0.10384605000000136,
            "durationTicks": 108,
            "midi": 49,
            "name": "C#3",
            "ticks": 35280,
            "time": 34.384586999999996,
            "velocity": 0.4881889763779528
          },
          {
            "duration": 0.357691949999996,
            "durationTicks": 372,
            "midi": 42,
            "name": "F#2",
            "ticks": 35520,
            "time": 34.615356,
            "velocity": 0.6850393700787402
          },
          {
            "duration": 0.3346150499999965,
            "durationTicks": 348,
            "midi": 42,
            "name": "F#2",
            "ticks": 36000,
            "time": 35.076893999999996,
            "velocity": 0.6850393700787402
          }
        ]
      },
      {
        "channel": 0,
        "controlChanges": {},
        "pitchBends": [],
        "instrument": {
          "family": "piano",
          "number": 0,
          "name": "acoustic grand piano"
        },
        "name": "Instrument Name*mezclada",
        "notes": [],
        "endOfTrackTicks": 38400
      },
      {
        "channel": 2,
        "controlChanges": {
          "1": [
            {
              "number": 1,
              "ticks": 2406,
              "time": 2.50625,
              "value": 0
            }
          ],
          "7": [
            {
              "number": 7,
              "ticks": 532,
              "time": 0.5541666666666667,
              "value": 0.84251968503937
            }
          ],
          "10": [
            {
              "number": 10,
              "ticks": 532,
              "time": 0.5541666666666667,
              "value": 0.5826771653543307
            }
          ],
          "11": [
            {
              "number": 11,
              "ticks": 532,
              "time": 0.5541666666666667,
              "value": 1
            }
          ],
          "91": [
            {
              "number": 91,
              "ticks": 536,
              "time": 0.5583333333333333,
              "value": 0.47244094488188976
            }
          ],
          "93": [
            {
              "number": 93,
              "ticks": 536,
              "time": 0.5583333333333333,
              "value": 0.2283464566929134
            }
          ]
        },
        "pitchBends": [
          {
            "ticks": 2414,
            "time": 2.5145833333333334,
            "value": 0
          }
        ],
        "instrument": {
          "family": "piano",
          "number": 4,
          "name": "electric piano 1"
        },
        "name": "",
        "notes": [
          {
            "duration": 1.5038446499999996,
            "durationTicks": 1564,
            "midi": 51,
            "name": "D#3",
            "ticks": 5760,
            "time": 6,
            "velocity": 0.8031496062992126
          },
          {
            "duration": 3.2576890499999998,
            "durationTicks": 3388,
            "midi": 54,
            "name": "F#3",
            "ticks": 5760,
            "time": 6,
            "velocity": 0.6220472440944882
          },
          {
            "duration": 0.7576915499999997,
            "durationTicks": 788,
            "midi": 58,
            "name": "A#3",
            "ticks": 5760,
            "time": 6,
            "velocity": 0.7244094488188977
          },
          {
            "duration": 3.403842749999999,
            "durationTicks": 3540,
            "midi": 61,
            "name": "C#4",
            "ticks": 5760,
            "time": 6,
            "velocity": 0.7795275590551181
          },
          {
            "duration": 0.8807683500000003,
            "durationTicks": 916,
            "midi": 59,
            "name": "B3",
            "ticks": 6480,
            "time": 6.692307,
            "velocity": 0.6377952755905512
          },
          {
            "duration": 0.8615376000000001,
            "durationTicks": 896,
            "midi": 51,
            "name": "D#3",
            "ticks": 7440,
            "time": 7.615383,
            "velocity": 0.5196850393700787
          },
          {
            "duration": 0.8692299000000006,
            "durationTicks": 904,
            "midi": 58,
            "name": "A#3",
            "ticks": 7440,
            "time": 7.615383,
            "velocity": 0.8346456692913385
          },
          {
            "duration": 0.9346144499999998,
            "durationTicks": 972,
            "midi": 51,
            "name": "D#3",
            "ticks": 8400,
            "time": 8.538459,
            "velocity": 0.5669291338582677
          },
          {
            "duration": 0.8076915000000007,
            "durationTicks": 840,
            "midi": 59,
            "name": "B3",
            "ticks": 8400,
            "time": 8.538459,
            "velocity": 0.7637795275590551
          },
          {
            "duration": 3.119227649999999,
            "durationTicks": 3244,
            "midi": 52,
            "name": "E3",
            "ticks": 9600,
            "time": 9.692304,
            "velocity": 0.8740157480314961
          },
          {
            "duration": 3.099996899999999,
            "durationTicks": 3224,
            "midi": 58,
            "name": "A#3",
            "ticks": 9600,
            "time": 9.692304,
            "velocity": 0.5905511811023622
          },
          {
            "duration": 3.0961507499999996,
            "durationTicks": 3220,
            "midi": 60,
            "name": "C4",
            "ticks": 9600,
            "time": 9.692304,
            "velocity": 0.6850393700787402
          },
          {
            "duration": 3.1076891999999994,
            "durationTicks": 3232,
            "midi": 62,
            "name": "D4",
            "ticks": 9600,
            "time": 9.692304,
            "velocity": 0.7559055118110236
          },
          {
            "duration": 0.3499996500000009,
            "durationTicks": 364,
            "midi": 52,
            "name": "E3",
            "ticks": 12960,
            "time": 12.92307,
            "velocity": 0.6850393700787402
          },
          {
            "duration": 0.3730765500000004,
            "durationTicks": 388,
            "midi": 58,
            "name": "A#3",
            "ticks": 12960,
            "time": 12.92307,
            "velocity": 0.5118110236220472
          },
          {
            "duration": 0.36153810000000064,
            "durationTicks": 376,
            "midi": 60,
            "name": "C4",
            "ticks": 12960,
            "time": 12.92307,
            "velocity": 0.6614173228346457
          },
          {
            "duration": 0.34230735000000045,
            "durationTicks": 356,
            "midi": 62,
            "name": "D4",
            "ticks": 12960,
            "time": 12.92307,
            "velocity": 0.7322834645669292
          },
          {
            "duration": 1.365383249999999,
            "durationTicks": 1420,
            "midi": 51,
            "name": "D#3",
            "ticks": 13440,
            "time": 13.384608,
            "velocity": 0.5039370078740157
          },
          {
            "duration": 1.365383249999999,
            "durationTicks": 1420,
            "midi": 54,
            "name": "F#3",
            "ticks": 13440,
            "time": 13.384608,
            "velocity": 0.5039370078740157
          },
          {
            "duration": 0.6846146999999991,
            "durationTicks": 712,
            "midi": 58,
            "name": "A#3",
            "ticks": 13440,
            "time": 13.384608,
            "velocity": 0.4881889763779528
          },
          {
            "duration": 0.665383949999999,
            "durationTicks": 692,
            "midi": 59,
            "name": "B3",
            "ticks": 13440,
            "time": 13.384608,
            "velocity": 0.5984251968503937
          },
          {
            "duration": 3.342304349999999,
            "durationTicks": 3476,
            "midi": 63,
            "name": "D#4",
            "ticks": 13440,
            "time": 13.384608,
            "velocity": 0.6220472440944882
          },
          {
            "duration": 1.253844899999999,
            "durationTicks": 1304,
            "midi": 59,
            "name": "B3",
            "ticks": 14160,
            "time": 14.076915,
            "velocity": 0.7244094488188977
          },
          {
            "duration": 2.099997899999998,
            "durationTicks": 2184,
            "midi": 51,
            "name": "D#3",
            "ticks": 14880,
            "time": 14.769222,
            "velocity": 0.44881889763779526
          },
          {
            "duration": 2.0923055999999995,
            "durationTicks": 2176,
            "midi": 54,
            "name": "F#3",
            "ticks": 14880,
            "time": 14.769222,
            "velocity": 0.4645669291338583
          },
          {
            "duration": 0.7384608000000004,
            "durationTicks": 768,
            "midi": 58,
            "name": "A#3",
            "ticks": 14880,
            "time": 14.769222,
            "velocity": 0.4881889763779528
          },
          {
            "duration": 0.6884608499999985,
            "durationTicks": 716,
            "midi": 59,
            "name": "B3",
            "ticks": 15600,
            "time": 15.461528999999999,
            "velocity": 0.5433070866141733
          },
          {
            "duration": 0.4384610999999978,
            "durationTicks": 456,
            "midi": 58,
            "name": "A#3",
            "ticks": 16320,
            "time": 16.153836,
            "velocity": 0.4566929133858268
          },
          {
            "duration": 0.29615354999999965,
            "durationTicks": 308,
            "midi": 59,
            "name": "B3",
            "ticks": 16800,
            "time": 16.615374,
            "velocity": 0.5905511811023622
          },
          {
            "duration": 0.015384599999997306,
            "durationTicks": 16,
            "midi": 52,
            "name": "E3",
            "ticks": 17280,
            "time": 17.076912,
            "velocity": 0.4566929133858268
          },
          {
            "duration": 3.130766099999999,
            "durationTicks": 3256,
            "midi": 54,
            "name": "F#3",
            "ticks": 17280,
            "time": 17.076912,
            "velocity": 0.5354330708661418
          },
          {
            "duration": 3.111535349999997,
            "durationTicks": 3236,
            "midi": 58,
            "name": "A#3",
            "ticks": 17280,
            "time": 17.076912,
            "velocity": 0.5196850393700787
          },
          {
            "duration": 3.111535349999997,
            "durationTicks": 3236,
            "midi": 60,
            "name": "C4",
            "ticks": 17280,
            "time": 17.076912,
            "velocity": 0.7086614173228346
          },
          {
            "duration": 3.1461506999999997,
            "durationTicks": 3272,
            "midi": 62,
            "name": "D4",
            "ticks": 17280,
            "time": 17.076912,
            "velocity": 0.7322834645669292
          },
          {
            "duration": 0.5153840999999986,
            "durationTicks": 536,
            "midi": 58,
            "name": "A#3",
            "ticks": 21120,
            "time": 20.769216,
            "velocity": 0.6614173228346457
          },
          {
            "duration": 0.5115379499999975,
            "durationTicks": 532,
            "midi": 61,
            "name": "C#4",
            "ticks": 21120,
            "time": 20.769216,
            "velocity": 0.5196850393700787
          },
          {
            "duration": 0.5076917999999964,
            "durationTicks": 528,
            "midi": 63,
            "name": "D#4",
            "ticks": 21120,
            "time": 20.769216,
            "velocity": 0.5984251968503937
          },
          {
            "duration": 0.5115379499999975,
            "durationTicks": 532,
            "midi": 66,
            "name": "F#4",
            "ticks": 21120,
            "time": 20.769216,
            "velocity": 0.6614173228346457
          },
          {
            "duration": 0.06923069999999854,
            "durationTicks": 72,
            "midi": 58,
            "name": "A#3",
            "ticks": 21840,
            "time": 21.461523,
            "velocity": 0.3543307086614173
          },
          {
            "duration": 0.049999950000000126,
            "durationTicks": 52,
            "midi": 61,
            "name": "C#4",
            "ticks": 21840,
            "time": 21.461523,
            "velocity": 0.2440944881889764
          },
          {
            "duration": 0.05384610000000123,
            "durationTicks": 56,
            "midi": 63,
            "name": "D#4",
            "ticks": 21840,
            "time": 21.461523,
            "velocity": 0.3464566929133858
          },
          {
            "duration": 0.05384610000000123,
            "durationTicks": 56,
            "midi": 66,
            "name": "F#4",
            "ticks": 21840,
            "time": 21.461523,
            "velocity": 0.3937007874015748
          },
          {
            "duration": 0.5769224999999985,
            "durationTicks": 600,
            "midi": 58,
            "name": "A#3",
            "ticks": 22080,
            "time": 21.692292,
            "velocity": 0.5196850393700787
          },
          {
            "duration": 0.5615379000000011,
            "durationTicks": 584,
            "midi": 61,
            "name": "C#4",
            "ticks": 22080,
            "time": 21.692292,
            "velocity": 0.4645669291338583
          },
          {
            "duration": 0.5615379000000011,
            "durationTicks": 584,
            "midi": 63,
            "name": "D#4",
            "ticks": 22080,
            "time": 21.692292,
            "velocity": 0.5511811023622047
          },
          {
            "duration": 0.5653840500000022,
            "durationTicks": 588,
            "midi": 66,
            "name": "F#4",
            "ticks": 22080,
            "time": 21.692292,
            "velocity": 0.5984251968503937
          },
          {
            "duration": 0.06538455000000098,
            "durationTicks": 68,
            "midi": 58,
            "name": "A#3",
            "ticks": 22800,
            "time": 22.384598999999998,
            "velocity": 0.4881889763779528
          },
          {
            "duration": 0.049999950000000126,
            "durationTicks": 52,
            "midi": 61,
            "name": "C#4",
            "ticks": 22800,
            "time": 22.384598999999998,
            "velocity": 0.4409448818897638
          },
          {
            "duration": 0.049999950000000126,
            "durationTicks": 52,
            "midi": 63,
            "name": "D#4",
            "ticks": 22800,
            "time": 22.384598999999998,
            "velocity": 0.5196850393700787
          },
          {
            "duration": 0.05384610000000123,
            "durationTicks": 56,
            "midi": 66,
            "name": "F#4",
            "ticks": 22800,
            "time": 22.384598999999998,
            "velocity": 0.6141732283464567
          },
          {
            "duration": 0.511537950000001,
            "durationTicks": 532,
            "midi": 58,
            "name": "A#3",
            "ticks": 23280,
            "time": 22.846137,
            "velocity": 0.5511811023622047
          },
          {
            "duration": 0.4730764499999971,
            "durationTicks": 492,
            "midi": 61,
            "name": "C#4",
            "ticks": 23280,
            "time": 22.846137,
            "velocity": 0.4645669291338583
          },
          {
            "duration": 0.4807687499999993,
            "durationTicks": 500,
            "midi": 63,
            "name": "D#4",
            "ticks": 23280,
            "time": 22.846137,
            "velocity": 0.5590551181102362
          },
          {
            "duration": 0.49230719999999906,
            "durationTicks": 512,
            "midi": 66,
            "name": "F#4",
            "ticks": 23280,
            "time": 22.846137,
            "velocity": 0.5905511811023622
          },
          {
            "duration": 0.07307684999999964,
            "durationTicks": 76,
            "midi": 58,
            "name": "A#3",
            "ticks": 24000,
            "time": 23.538444,
            "velocity": 0.4645669291338583
          },
          {
            "duration": 0.05769224999999878,
            "durationTicks": 60,
            "midi": 61,
            "name": "C#4",
            "ticks": 24000,
            "time": 23.538444,
            "velocity": 0.3858267716535433
          },
          {
            "duration": 0.05769224999999878,
            "durationTicks": 60,
            "midi": 63,
            "name": "D#4",
            "ticks": 24000,
            "time": 23.538444,
            "velocity": 0.4330708661417323
          },
          {
            "duration": 0.06538455000000098,
            "durationTicks": 68,
            "midi": 66,
            "name": "F#4",
            "ticks": 24000,
            "time": 23.538444,
            "velocity": 0.5039370078740157
          },
          {
            "duration": 0.3615380999999971,
            "durationTicks": 376,
            "midi": 58,
            "name": "A#3",
            "ticks": 24480,
            "time": 23.999982,
            "velocity": 0.5826771653543307
          },
          {
            "duration": 0.3423073499999987,
            "durationTicks": 356,
            "midi": 61,
            "name": "C#4",
            "ticks": 24480,
            "time": 23.999982,
            "velocity": 0.5039370078740157
          },
          {
            "duration": 0.3461534999999998,
            "durationTicks": 360,
            "midi": 63,
            "name": "D#4",
            "ticks": 24480,
            "time": 23.999982,
            "velocity": 0.5905511811023622
          },
          {
            "duration": 0.3461534999999998,
            "durationTicks": 360,
            "midi": 66,
            "name": "F#4",
            "ticks": 24480,
            "time": 23.999982,
            "velocity": 0.6614173228346457
          },
          {
            "duration": 0.576922500000002,
            "durationTicks": 600,
            "midi": 54,
            "name": "F#3",
            "ticks": 24960,
            "time": 24.461519999999997,
            "velocity": 0.41732283464566927
          },
          {
            "duration": 0.5730763500000009,
            "durationTicks": 596,
            "midi": 58,
            "name": "A#3",
            "ticks": 24960,
            "time": 24.461519999999997,
            "velocity": 0.41732283464566927
          },
          {
            "duration": 0.5807686499999996,
            "durationTicks": 604,
            "midi": 61,
            "name": "C#4",
            "ticks": 24960,
            "time": 24.461519999999997,
            "velocity": 0.44881889763779526
          },
          {
            "duration": 0.5846148000000007,
            "durationTicks": 608,
            "midi": 63,
            "name": "D#4",
            "ticks": 24960,
            "time": 24.461519999999997,
            "velocity": 0.5196850393700787
          },
          {
            "duration": 0.9038452500000034,
            "durationTicks": 940,
            "midi": 54,
            "name": "F#3",
            "ticks": 25680,
            "time": 25.153826999999996,
            "velocity": 0.4015748031496063
          },
          {
            "duration": 0.9153837000000031,
            "durationTicks": 952,
            "midi": 58,
            "name": "A#3",
            "ticks": 25680,
            "time": 25.153826999999996,
            "velocity": 0.4015748031496063
          },
          {
            "duration": 0.888460649999999,
            "durationTicks": 924,
            "midi": 61,
            "name": "C#4",
            "ticks": 25680,
            "time": 25.153826999999996,
            "velocity": 0.47244094488188976
          },
          {
            "duration": 0.9346144500000015,
            "durationTicks": 972,
            "midi": 63,
            "name": "D#4",
            "ticks": 25680,
            "time": 25.153826999999996,
            "velocity": 0.5511811023622047
          },
          {
            "duration": 0.3653842499999982,
            "durationTicks": 380,
            "midi": 63,
            "name": "D#4",
            "ticks": 27120,
            "time": 26.538441,
            "velocity": 0.5511811023622047
          },
          {
            "duration": 0.3653842499999982,
            "durationTicks": 380,
            "midi": 65,
            "name": "F4",
            "ticks": 27120,
            "time": 26.538441,
            "velocity": 0.7559055118110236
          },
          {
            "duration": 0.3615380999999971,
            "durationTicks": 376,
            "midi": 69,
            "name": "A4",
            "ticks": 27120,
            "time": 26.538441,
            "velocity": 0.6850393700787402
          },
          {
            "duration": 0.12692295000000087,
            "durationTicks": 132,
            "midi": 63,
            "name": "D#4",
            "ticks": 27600,
            "time": 26.999978999999996,
            "velocity": 0.44881889763779526
          },
          {
            "duration": 0.13461524999999952,
            "durationTicks": 140,
            "midi": 65,
            "name": "F4",
            "ticks": 27600,
            "time": 26.999978999999996,
            "velocity": 0.6850393700787402
          },
          {
            "duration": 0.14230754999999817,
            "durationTicks": 148,
            "midi": 72,
            "name": "C5",
            "ticks": 27600,
            "time": 26.999978999999996,
            "velocity": 0.5669291338582677
          },
          {
            "duration": 0.3461534999999998,
            "durationTicks": 360,
            "midi": 63,
            "name": "D#4",
            "ticks": 27840,
            "time": 27.230748,
            "velocity": 0.4330708661417323
          },
          {
            "duration": 0.3461534999999998,
            "durationTicks": 360,
            "midi": 65,
            "name": "F4",
            "ticks": 27840,
            "time": 27.230748,
            "velocity": 0.7322834645669292
          },
          {
            "duration": 0.3423073499999987,
            "durationTicks": 356,
            "midi": 72,
            "name": "C5",
            "ticks": 27840,
            "time": 27.230748,
            "velocity": 0.6850393700787402
          },
          {
            "duration": 0.3038458499999983,
            "durationTicks": 316,
            "midi": 63,
            "name": "D#4",
            "ticks": 28320,
            "time": 27.692286,
            "velocity": 0.49606299212598426
          },
          {
            "duration": 0.2961535499999961,
            "durationTicks": 308,
            "midi": 65,
            "name": "F4",
            "ticks": 28320,
            "time": 27.692286,
            "velocity": 0.8110236220472441
          },
          {
            "duration": 0.31538429999999806,
            "durationTicks": 328,
            "midi": 69,
            "name": "A4",
            "ticks": 28320,
            "time": 27.692286,
            "velocity": 0.7795275590551181
          },
          {
            "duration": 0.8499991500000021,
            "durationTicks": 884,
            "midi": 56,
            "name": "G#3",
            "ticks": 28800,
            "time": 28.153823999999997,
            "velocity": 0.5590551181102362
          },
          {
            "duration": 0.8423068500000035,
            "durationTicks": 876,
            "midi": 59,
            "name": "B3",
            "ticks": 28800,
            "time": 28.153823999999997,
            "velocity": 0.4645669291338583
          },
          {
            "duration": 0.8499991500000021,
            "durationTicks": 884,
            "midi": 61,
            "name": "C#4",
            "ticks": 28800,
            "time": 28.153823999999997,
            "velocity": 0.5669291338582677
          },
          {
            "duration": 0.8423068500000035,
            "durationTicks": 876,
            "midi": 64,
            "name": "E4",
            "ticks": 28800,
            "time": 28.153823999999997,
            "velocity": 0.5196850393700787
          },
          {
            "duration": 0.06153839999999988,
            "durationTicks": 64,
            "midi": 56,
            "name": "G#3",
            "ticks": 29760,
            "time": 29.0769,
            "velocity": 0.3700787401574803
          },
          {
            "duration": 0.03846150000000037,
            "durationTicks": 40,
            "midi": 59,
            "name": "B3",
            "ticks": 29760,
            "time": 29.0769,
            "velocity": 0.25196850393700787
          },
          {
            "duration": 0.049999950000000126,
            "durationTicks": 52,
            "midi": 61,
            "name": "C#4",
            "ticks": 29760,
            "time": 29.0769,
            "velocity": 0.3464566929133858
          },
          {
            "duration": 0.04615379999999902,
            "durationTicks": 48,
            "midi": 64,
            "name": "E4",
            "ticks": 29760,
            "time": 29.0769,
            "velocity": 0.3543307086614173
          },
          {
            "duration": 0.36153810000000064,
            "durationTicks": 376,
            "midi": 56,
            "name": "G#3",
            "ticks": 30000,
            "time": 29.307668999999997,
            "velocity": 0.5039370078740157
          },
          {
            "duration": 0.3692303999999993,
            "durationTicks": 384,
            "midi": 59,
            "name": "B3",
            "ticks": 30000,
            "time": 29.307668999999997,
            "velocity": 0.4330708661417323
          },
          {
            "duration": 0.38846115000000125,
            "durationTicks": 404,
            "midi": 61,
            "name": "C#4",
            "ticks": 30000,
            "time": 29.307668999999997,
            "velocity": 0.5511811023622047
          },
          {
            "duration": 0.38461500000000015,
            "durationTicks": 400,
            "midi": 64,
            "name": "E4",
            "ticks": 30000,
            "time": 29.307668999999997,
            "velocity": 0.5118110236220472
          },
          {
            "duration": 1.5423061500000017,
            "durationTicks": 1604,
            "midi": 56,
            "name": "G#3",
            "ticks": 30480,
            "time": 29.769206999999998,
            "velocity": 0.49606299212598426
          },
          {
            "duration": 1.5269215499999973,
            "durationTicks": 1588,
            "midi": 59,
            "name": "B3",
            "ticks": 30480,
            "time": 29.769206999999998,
            "velocity": 0.47244094488188976
          },
          {
            "duration": 1.5269215499999973,
            "durationTicks": 1588,
            "midi": 61,
            "name": "C#4",
            "ticks": 30480,
            "time": 29.769206999999998,
            "velocity": 0.5039370078740157
          },
          {
            "duration": 1.5346138499999995,
            "durationTicks": 1596,
            "midi": 64,
            "name": "E4",
            "ticks": 30480,
            "time": 29.769206999999998,
            "velocity": 0.5039370078740157
          },
          {
            "duration": 0.3230766000000038,
            "durationTicks": 336,
            "midi": 56,
            "name": "G#3",
            "ticks": 32160,
            "time": 31.384589999999996,
            "velocity": 0.5748031496062992
          },
          {
            "duration": 0.3499996500000009,
            "durationTicks": 364,
            "midi": 59,
            "name": "B3",
            "ticks": 32160,
            "time": 31.384589999999996,
            "velocity": 0.5196850393700787
          },
          {
            "duration": 0.36538425000000174,
            "durationTicks": 380,
            "midi": 61,
            "name": "C#4",
            "ticks": 32160,
            "time": 31.384589999999996,
            "velocity": 0.5590551181102362
          },
          {
            "duration": 0.3230766000000038,
            "durationTicks": 336,
            "midi": 64,
            "name": "E4",
            "ticks": 32160,
            "time": 31.384589999999996,
            "velocity": 0.4881889763779528
          },
          {
            "duration": 0.6230763000000046,
            "durationTicks": 648,
            "midi": 54,
            "name": "F#3",
            "ticks": 32640,
            "time": 31.846127999999997,
            "velocity": 0.4094488188976378
          },
          {
            "duration": 0.6230763000000046,
            "durationTicks": 648,
            "midi": 58,
            "name": "A#3",
            "ticks": 32640,
            "time": 31.846127999999997,
            "velocity": 0.4251968503937008
          },
          {
            "duration": 0.6230763000000046,
            "durationTicks": 648,
            "midi": 59,
            "name": "B3",
            "ticks": 32640,
            "time": 31.846127999999997,
            "velocity": 0.33070866141732286
          },
          {
            "duration": 0.5846148000000007,
            "durationTicks": 608,
            "midi": 61,
            "name": "C#4",
            "ticks": 32640,
            "time": 31.846127999999997,
            "velocity": 0.3700787401574803
          },
          {
            "duration": 0.6192301500000035,
            "durationTicks": 644,
            "midi": 63,
            "name": "D#4",
            "ticks": 32640,
            "time": 31.846127999999997,
            "velocity": 0.4645669291338583
          },
          {
            "duration": 0.8153838000000064,
            "durationTicks": 848,
            "midi": 54,
            "name": "F#3",
            "ticks": 33360,
            "time": 32.53843499999999,
            "velocity": 0.41732283464566927
          },
          {
            "duration": 0.799999200000002,
            "durationTicks": 832,
            "midi": 58,
            "name": "A#3",
            "ticks": 33360,
            "time": 32.53843499999999,
            "velocity": 0.4251968503937008
          },
          {
            "duration": 0.8230761000000086,
            "durationTicks": 856,
            "midi": 59,
            "name": "B3",
            "ticks": 33360,
            "time": 32.53843499999999,
            "velocity": 0.5590551181102362
          },
          {
            "duration": 0.32692274999999427,
            "durationTicks": 340,
            "midi": 59,
            "name": "B3",
            "ticks": 34320,
            "time": 33.461511,
            "velocity": 0.8188976377952756
          },
          {
            "duration": 0.31538430000000517,
            "durationTicks": 328,
            "midi": 54,
            "name": "F#3",
            "ticks": 34800,
            "time": 33.92304899999999,
            "velocity": 0.6220472440944882
          },
          {
            "duration": 0.45384570000000224,
            "durationTicks": 472,
            "midi": 59,
            "name": "B3",
            "ticks": 34800,
            "time": 33.92304899999999,
            "velocity": 0.7559055118110236
          },
          {
            "duration": 0.14230754999999817,
            "durationTicks": 148,
            "midi": 54,
            "name": "F#3",
            "ticks": 35280,
            "time": 34.384586999999996,
            "velocity": 0.49606299212598426
          },
          {
            "duration": 0.08846144999999694,
            "durationTicks": 92,
            "midi": 54,
            "name": "F#3",
            "ticks": 35400,
            "time": 34.4999715,
            "velocity": 0.5039370078740157
          },
          {
            "duration": 0.05384610000000123,
            "durationTicks": 56,
            "midi": 55,
            "name": "G3",
            "ticks": 35400,
            "time": 34.4999715,
            "velocity": 0.5196850393700787
          },
          {
            "duration": 0.09999990000000025,
            "durationTicks": 104,
            "midi": 56,
            "name": "G#3",
            "ticks": 35400,
            "time": 34.4999715,
            "velocity": 0.5748031496062992
          },
          {
            "duration": 0.06923069999999854,
            "durationTicks": 72,
            "midi": 54,
            "name": "F#3",
            "ticks": 35520,
            "time": 34.615356,
            "velocity": 0.5196850393700787
          },
          {
            "duration": 0.09999990000000025,
            "durationTicks": 104,
            "midi": 59,
            "name": "B3",
            "ticks": 35520,
            "time": 34.615356,
            "velocity": 0.6377952755905512
          },
          {
            "duration": 0.16538444999999768,
            "durationTicks": 172,
            "midi": 54,
            "name": "F#3",
            "ticks": 35760,
            "time": 34.846125,
            "velocity": 0.6456692913385826
          },
          {
            "duration": 0.2192305499999918,
            "durationTicks": 228,
            "midi": 59,
            "name": "B3",
            "ticks": 35760,
            "time": 34.846125,
            "velocity": 0.8188976377952756
          },
          {
            "duration": 0.03461535000000282,
            "durationTicks": 36,
            "midi": 55,
            "name": "G3",
            "ticks": 36000,
            "time": 35.076893999999996,
            "velocity": 0.6850393700787402
          },
          {
            "duration": 0.2038459500000016,
            "durationTicks": 212,
            "midi": 56,
            "name": "G#3",
            "ticks": 36000,
            "time": 35.076893999999996,
            "velocity": 0.5196850393700787
          },
          {
            "duration": 0.07692300000000074,
            "durationTicks": 80,
            "midi": 54,
            "name": "F#3",
            "ticks": 36240,
            "time": 35.307663,
            "velocity": 0.7086614173228346
          }
        ]
      },
      {
        "channel": 0,
        "controlChanges": {},
        "pitchBends": [],
        "instrument": {
          "family": "piano",
          "number": 0,
          "name": "acoustic grand piano"
        },
        "name": "Instrument Name*mezclada",
        "notes": [],
        "endOfTrackTicks": 38400
      },
      {
        "channel": 3,
        "controlChanges": {
          "1": [
            {
              "number": 1,
              "ticks": 2406,
              "time": 2.50625,
              "value": 0
            }
          ],
          "7": [
            {
              "number": 7,
              "ticks": 552,
              "time": 0.575,
              "value": 0.7165354330708661
            }
          ],
          "10": [
            {
              "number": 10,
              "ticks": 552,
              "time": 0.575,
              "value": 0.5039370078740157
            }
          ],
          "11": [
            {
              "number": 11,
              "ticks": 552,
              "time": 0.575,
              "value": 1
            }
          ],
          "91": [
            {
              "number": 91,
              "ticks": 556,
              "time": 0.5791666666666667,
              "value": 0.4330708661417323
            }
          ],
          "93": [
            {
              "number": 93,
              "ticks": 556,
              "time": 0.5791666666666667,
              "value": 0
            }
          ]
        },
        "pitchBends": [
          {
            "ticks": 2414,
            "time": 2.5145833333333334,
            "value": 0
          }
        ],
        "instrument": {
          "family": "reed",
          "number": 66,
          "name": "tenor sax"
        },
        "name": "",
        "notes": [
          {
            "duration": 0.19038442499999775,
            "durationTicks": 198,
            "midi": 59,
            "name": "B3",
            "ticks": 21840,
            "time": 21.461523,
            "velocity": 0.9763779527559056
          },
          {
            "duration": 0.22884592499999812,
            "durationTicks": 238,
            "midi": 59,
            "name": "B3",
            "ticks": 22080,
            "time": 21.692292,
            "velocity": 0.9212598425196851
          },
          {
            "duration": 0.19423057499999885,
            "durationTicks": 202,
            "midi": 59,
            "name": "B3",
            "ticks": 22440,
            "time": 22.038445499999998,
            "velocity": 0.9448818897637795
          },
          {
            "duration": 0.3673073250000023,
            "durationTicks": 382,
            "midi": 61,
            "name": "C#4",
            "ticks": 22800,
            "time": 22.384598999999998,
            "velocity": 0.9448818897637795
          },
          {
            "duration": 0.22499977499999702,
            "durationTicks": 234,
            "midi": 61,
            "name": "C#4",
            "ticks": 23280,
            "time": 22.846137,
            "velocity": 1
          },
          {
            "duration": 0.44615340000000003,
            "durationTicks": 464,
            "midi": 58,
            "name": "A#3",
            "ticks": 23760,
            "time": 23.307675,
            "velocity": 0.9606299212598425
          },
          {
            "duration": 0.1999998000000005,
            "durationTicks": 208,
            "midi": 56,
            "name": "G#3",
            "ticks": 24240,
            "time": 23.769212999999997,
            "velocity": 0.9133858267716536
          },
          {
            "duration": 1.4807677500000018,
            "durationTicks": 1540,
            "midi": 54,
            "name": "F#3",
            "ticks": 24720,
            "time": 24.230750999999998,
            "velocity": 0.9448818897637795
          },
          {
            "duration": 0.20192287500000106,
            "durationTicks": 210,
            "midi": 59,
            "name": "B3",
            "ticks": 29520,
            "time": 28.846130999999996,
            "velocity": 0.9606299212598425
          },
          {
            "duration": 0.23653822500000032,
            "durationTicks": 246,
            "midi": 59,
            "name": "B3",
            "ticks": 29760,
            "time": 29.0769,
            "velocity": 0.8267716535433071
          },
          {
            "duration": 0.2576920499999993,
            "durationTicks": 268,
            "midi": 59,
            "name": "B3",
            "ticks": 30120,
            "time": 29.423053499999998,
            "velocity": 0.84251968503937
          },
          {
            "duration": 0.38076884999999905,
            "durationTicks": 396,
            "midi": 64,
            "name": "E4",
            "ticks": 30480,
            "time": 29.769206999999998,
            "velocity": 1
          },
          {
            "duration": 0.16346137499999713,
            "durationTicks": 170,
            "midi": 64,
            "name": "E4",
            "ticks": 30960,
            "time": 30.230745,
            "velocity": 0.84251968503937
          },
          {
            "duration": 0.3634611750000012,
            "durationTicks": 378,
            "midi": 63,
            "name": "D#4",
            "ticks": 31440,
            "time": 30.692282999999996,
            "velocity": 1
          },
          {
            "duration": 0.3326919749999995,
            "durationTicks": 346,
            "midi": 59,
            "name": "B3",
            "ticks": 31920,
            "time": 31.153820999999997,
            "velocity": 0.9212598425196851
          },
          {
            "duration": 0.9230759999999947,
            "durationTicks": 960,
            "midi": 61,
            "name": "C#4",
            "ticks": 32400,
            "time": 31.615358999999998,
            "velocity": 0.9448818897637795
          },
          {
            "duration": 0.9230760000000089,
            "durationTicks": 960,
            "midi": 59,
            "name": "B3",
            "ticks": 33360,
            "time": 32.53843499999999,
            "velocity": 0.9448818897637795
          }
        ]
      },
      {
        "channel": 0,
        "controlChanges": {},
        "pitchBends": [],
        "instrument": {
          "family": "piano",
          "number": 0,
          "name": "acoustic grand piano"
        },
        "name": "Instrument Name*mezclada",
        "notes": [],
        "endOfTrackTicks": 38400
      },
      {
        "channel": 4,
        "controlChanges": {
          "1": [
            {
              "number": 1,
              "ticks": 2406,
              "time": 2.50625,
              "value": 0
            }
          ],
          "7": [
            {
              "number": 7,
              "ticks": 572,
              "time": 0.5958333333333333,
              "value": 0.8976377952755905
            }
          ],
          "10": [
            {
              "number": 10,
              "ticks": 572,
              "time": 0.5958333333333333,
              "value": 0.4251968503937008
            }
          ],
          "11": [
            {
              "number": 11,
              "ticks": 572,
              "time": 0.5958333333333333,
              "value": 1
            }
          ],
          "91": [
            {
              "number": 91,
              "ticks": 576,
              "time": 0.6,
              "value": 0.5511811023622047
            }
          ],
          "93": [
            {
              "number": 93,
              "ticks": 576,
              "time": 0.6,
              "value": 0.2204724409448819
            }
          ]
        },
        "pitchBends": [
          {
            "ticks": 2414,
            "time": 2.5145833333333334,
            "value": 0
          }
        ],
        "instrument": {
          "family": "piano",
          "number": 4,
          "name": "electric piano 1"
        },
        "name": "",
        "notes": [
          {
            "duration": 0.3692303999999993,
            "durationTicks": 384,
            "midi": 58,
            "name": "A#3",
            "ticks": 9600,
            "time": 9.692304,
            "velocity": 0.6535433070866141
          },
          {
            "duration": 0.3692303999999993,
            "durationTicks": 384,
            "midi": 62,
            "name": "D4",
            "ticks": 9600,
            "time": 9.692304,
            "velocity": 0.7322834645669292
          },
          {
            "duration": 0.18461520000000142,
            "durationTicks": 192,
            "midi": 60,
            "name": "C4",
            "ticks": 10080,
            "time": 10.153842,
            "velocity": 0.6062992125984252
          },
          {
            "duration": 0.18461520000000142,
            "durationTicks": 192,
            "midi": 64,
            "name": "E4",
            "ticks": 10080,
            "time": 10.153842,
            "velocity": 0.6535433070866141
          },
          {
            "duration": 0.3692303999999993,
            "durationTicks": 384,
            "midi": 62,
            "name": "D4",
            "ticks": 10320,
            "time": 10.384611,
            "velocity": 0.7086614173228346
          },
          {
            "duration": 0.3692303999999993,
            "durationTicks": 384,
            "midi": 66,
            "name": "F#4",
            "ticks": 10320,
            "time": 10.384611,
            "velocity": 0.8267716535433071
          },
          {
            "duration": 0.18461519999999965,
            "durationTicks": 192,
            "midi": 64,
            "name": "E4",
            "ticks": 10800,
            "time": 10.846149,
            "velocity": 0.7559055118110236
          },
          {
            "duration": 0.18461519999999965,
            "durationTicks": 192,
            "midi": 68,
            "name": "G#4",
            "ticks": 10800,
            "time": 10.846149,
            "velocity": 0.7165354330708661
          },
          {
            "duration": 0.3692303999999993,
            "durationTicks": 384,
            "midi": 66,
            "name": "F#4",
            "ticks": 11040,
            "time": 11.076918,
            "velocity": 0.6299212598425197
          },
          {
            "duration": 0.3692303999999993,
            "durationTicks": 384,
            "midi": 70,
            "name": "A#4",
            "ticks": 11040,
            "time": 11.076918,
            "velocity": 0.7165354330708661
          },
          {
            "duration": 0.18461519999999965,
            "durationTicks": 192,
            "midi": 68,
            "name": "G#4",
            "ticks": 11520,
            "time": 11.538456,
            "velocity": 0.7165354330708661
          },
          {
            "duration": 0.18461519999999965,
            "durationTicks": 192,
            "midi": 72,
            "name": "C5",
            "ticks": 11520,
            "time": 11.538456,
            "velocity": 0.7559055118110236
          },
          {
            "duration": 0.36923040000000107,
            "durationTicks": 384,
            "midi": 70,
            "name": "A#4",
            "ticks": 11760,
            "time": 11.769224999999999,
            "velocity": 0.7874015748031497
          },
          {
            "duration": 0.36923040000000107,
            "durationTicks": 384,
            "midi": 74,
            "name": "D5",
            "ticks": 11760,
            "time": 11.769224999999999,
            "velocity": 0.6929133858267716
          },
          {
            "duration": 0.18461519999999965,
            "durationTicks": 192,
            "midi": 72,
            "name": "C5",
            "ticks": 12240,
            "time": 12.230763,
            "velocity": 0.7401574803149606
          },
          {
            "duration": 0.18461519999999965,
            "durationTicks": 192,
            "midi": 76,
            "name": "E5",
            "ticks": 12240,
            "time": 12.230763,
            "velocity": 0.7244094488188977
          },
          {
            "duration": 0.36923040000000107,
            "durationTicks": 384,
            "midi": 74,
            "name": "D5",
            "ticks": 12480,
            "time": 12.461531999999998,
            "velocity": 0.7480314960629921
          },
          {
            "duration": 0.36923040000000107,
            "durationTicks": 384,
            "midi": 78,
            "name": "F#5",
            "ticks": 12480,
            "time": 12.461531999999998,
            "velocity": 0.7637795275590551
          },
          {
            "duration": 0.49230719999999906,
            "durationTicks": 512,
            "midi": 74,
            "name": "D5",
            "ticks": 12960,
            "time": 12.92307,
            "velocity": 0.6377952755905512
          },
          {
            "duration": 0.49230719999999906,
            "durationTicks": 512,
            "midi": 78,
            "name": "F#5",
            "ticks": 12960,
            "time": 12.92307,
            "velocity": 0.6377952755905512
          },
          {
            "duration": 0.3692303999999993,
            "durationTicks": 384,
            "midi": 58,
            "name": "A#3",
            "ticks": 17280,
            "time": 17.076912,
            "velocity": 0.6062992125984252
          },
          {
            "duration": 0.3692303999999993,
            "durationTicks": 384,
            "midi": 62,
            "name": "D4",
            "ticks": 17280,
            "time": 17.076912,
            "velocity": 0.7716535433070866
          },
          {
            "duration": 0.1846152000000032,
            "durationTicks": 192,
            "midi": 60,
            "name": "C4",
            "ticks": 17760,
            "time": 17.538449999999997,
            "velocity": 0.5905511811023622
          },
          {
            "duration": 0.1846152000000032,
            "durationTicks": 192,
            "midi": 64,
            "name": "E4",
            "ticks": 17760,
            "time": 17.538449999999997,
            "velocity": 0.8188976377952756
          },
          {
            "duration": 0.3692303999999993,
            "durationTicks": 384,
            "midi": 62,
            "name": "D4",
            "ticks": 18000,
            "time": 17.769219,
            "velocity": 0.7007874015748031
          },
          {
            "duration": 0.3692303999999993,
            "durationTicks": 384,
            "midi": 66,
            "name": "F#4",
            "ticks": 18000,
            "time": 17.769219,
            "velocity": 0.6614173228346457
          },
          {
            "duration": 0.1846152000000032,
            "durationTicks": 192,
            "midi": 64,
            "name": "E4",
            "ticks": 18480,
            "time": 18.230756999999997,
            "velocity": 0.6141732283464567
          },
          {
            "duration": 0.1846152000000032,
            "durationTicks": 192,
            "midi": 68,
            "name": "G#4",
            "ticks": 18480,
            "time": 18.230756999999997,
            "velocity": 0.6377952755905512
          },
          {
            "duration": 0.3692303999999993,
            "durationTicks": 384,
            "midi": 66,
            "name": "F#4",
            "ticks": 18720,
            "time": 18.461526,
            "velocity": 0.5984251968503937
          },
          {
            "duration": 0.3692303999999993,
            "durationTicks": 384,
            "midi": 70,
            "name": "A#4",
            "ticks": 18720,
            "time": 18.461526,
            "velocity": 0.7795275590551181
          },
          {
            "duration": 0.1846152000000032,
            "durationTicks": 192,
            "midi": 68,
            "name": "G#4",
            "ticks": 19200,
            "time": 18.923063999999997,
            "velocity": 0.6692913385826772
          },
          {
            "duration": 0.1846152000000032,
            "durationTicks": 192,
            "midi": 72,
            "name": "C5",
            "ticks": 19200,
            "time": 18.923063999999997,
            "velocity": 0.7007874015748031
          },
          {
            "duration": 0.3692303999999993,
            "durationTicks": 384,
            "midi": 70,
            "name": "A#4",
            "ticks": 19440,
            "time": 19.153833,
            "velocity": 0.6141732283464567
          },
          {
            "duration": 0.3692303999999993,
            "durationTicks": 384,
            "midi": 74,
            "name": "D5",
            "ticks": 19440,
            "time": 19.153833,
            "velocity": 0.7480314960629921
          },
          {
            "duration": 0.1846152000000032,
            "durationTicks": 192,
            "midi": 72,
            "name": "C5",
            "ticks": 19920,
            "time": 19.615370999999996,
            "velocity": 0.7086614173228346
          },
          {
            "duration": 0.1846152000000032,
            "durationTicks": 192,
            "midi": 76,
            "name": "E5",
            "ticks": 19920,
            "time": 19.615370999999996,
            "velocity": 0.7637795275590551
          },
          {
            "duration": 0.3692303999999993,
            "durationTicks": 384,
            "midi": 74,
            "name": "D5",
            "ticks": 20160,
            "time": 19.84614,
            "velocity": 0.7322834645669292
          },
          {
            "duration": 0.3692303999999993,
            "durationTicks": 384,
            "midi": 78,
            "name": "F#5",
            "ticks": 20160,
            "time": 19.84614,
            "velocity": 0.6929133858267716
          },
          {
            "duration": 0.4923072000000026,
            "durationTicks": 512,
            "midi": 74,
            "name": "D5",
            "ticks": 20640,
            "time": 20.307678,
            "velocity": 0.7637795275590551
          },
          {
            "duration": 0.4923072000000026,
            "durationTicks": 512,
            "midi": 78,
            "name": "F#5",
            "ticks": 20640,
            "time": 20.307678,
            "velocity": 0.6299212598425197
          }
        ]
      },
      {
        "channel": 0,
        "controlChanges": {},
        "pitchBends": [],
        "instrument": {
          "family": "piano",
          "number": 0,
          "name": "acoustic grand piano"
        },
        "name": "Instrument Name*mezclada",
        "notes": [],
        "endOfTrackTicks": 38400
      },
      {
        "channel": 5,
        "controlChanges": {
          "1": [
            {
              "number": 1,
              "ticks": 2406,
              "time": 2.50625,
              "value": 0
            }
          ],
          "7": [
            {
              "number": 7,
              "ticks": 592,
              "time": 0.6166666666666667,
              "value": 0.5511811023622047
            }
          ],
          "10": [
            {
              "number": 10,
              "ticks": 592,
              "time": 0.6166666666666667,
              "value": 0.3464566929133858
            }
          ],
          "11": [
            {
              "number": 11,
              "ticks": 592,
              "time": 0.6166666666666667,
              "value": 1
            }
          ],
          "91": [
            {
              "number": 91,
              "ticks": 596,
              "time": 0.6208333333333333,
              "value": 0.4330708661417323
            }
          ],
          "93": [
            {
              "number": 93,
              "ticks": 596,
              "time": 0.6208333333333333,
              "value": 0
            }
          ]
        },
        "pitchBends": [
          {
            "ticks": 2414,
            "time": 2.5145833333333334,
            "value": 0
          }
        ],
        "instrument": {
          "family": "guitar",
          "number": 24,
          "name": "acoustic guitar (nylon)"
        },
        "name": "",
        "notes": [
          {
            "duration": 0.04615379999999991,
            "durationTicks": 48,
            "midi": 54,
            "name": "F#3",
            "ticks": 5760,
            "time": 6,
            "velocity": 0.8346456692913385
          },
          {
            "duration": 0.05769224999999967,
            "durationTicks": 60,
            "midi": 58,
            "name": "A#3",
            "ticks": 5760,
            "time": 6,
            "velocity": 0.7795275590551181
          },
          {
            "duration": 0.05769224999999967,
            "durationTicks": 60,
            "midi": 61,
            "name": "C#4",
            "ticks": 5760,
            "time": 6,
            "velocity": 0.6850393700787402
          },
          {
            "duration": 0.05384610000000034,
            "durationTicks": 56,
            "midi": 63,
            "name": "D#4",
            "ticks": 5760,
            "time": 6,
            "velocity": 0.7559055118110236
          },
          {
            "duration": 0.06923070000000031,
            "durationTicks": 72,
            "midi": 66,
            "name": "F#4",
            "ticks": 5760,
            "time": 6,
            "velocity": 0.84251968503937
          },
          {
            "duration": 0.5230763999999999,
            "durationTicks": 544,
            "midi": 54,
            "name": "F#3",
            "ticks": 6240,
            "time": 6.461538,
            "velocity": 0.8031496062992126
          },
          {
            "duration": 0.5346148499999996,
            "durationTicks": 556,
            "midi": 58,
            "name": "A#3",
            "ticks": 6240,
            "time": 6.461538,
            "velocity": 0.7716535433070866
          },
          {
            "duration": 0.5038456499999997,
            "durationTicks": 524,
            "midi": 61,
            "name": "C#4",
            "ticks": 6240,
            "time": 6.461538,
            "velocity": 0.7244094488188977
          },
          {
            "duration": 0.49615335000000016,
            "durationTicks": 516,
            "midi": 63,
            "name": "D#4",
            "ticks": 6240,
            "time": 6.461538,
            "velocity": 0.8661417322834646
          },
          {
            "duration": 0.5076917999999999,
            "durationTicks": 528,
            "midi": 66,
            "name": "F#4",
            "ticks": 6240,
            "time": 6.461538,
            "velocity": 0.905511811023622
          },
          {
            "duration": 0.05384610000000034,
            "durationTicks": 56,
            "midi": 54,
            "name": "F#3",
            "ticks": 6960,
            "time": 7.153845,
            "velocity": 0.6141732283464567
          },
          {
            "duration": 0.07692299999999985,
            "durationTicks": 80,
            "midi": 58,
            "name": "A#3",
            "ticks": 6960,
            "time": 7.153845,
            "velocity": 0.6299212598425197
          },
          {
            "duration": 0.06153840000000077,
            "durationTicks": 64,
            "midi": 61,
            "name": "C#4",
            "ticks": 6960,
            "time": 7.153845,
            "velocity": 0.6299212598425197
          },
          {
            "duration": 0.06153840000000077,
            "durationTicks": 64,
            "midi": 63,
            "name": "D#4",
            "ticks": 6960,
            "time": 7.153845,
            "velocity": 0.6850393700787402
          },
          {
            "duration": 0.0653845500000001,
            "durationTicks": 68,
            "midi": 66,
            "name": "F#4",
            "ticks": 6960,
            "time": 7.153845,
            "velocity": 0.7637795275590551
          },
          {
            "duration": 0.07307684999999964,
            "durationTicks": 76,
            "midi": 54,
            "name": "F#3",
            "ticks": 7440,
            "time": 7.615383,
            "velocity": 0.6535433070866141
          },
          {
            "duration": 0.07307684999999964,
            "durationTicks": 76,
            "midi": 58,
            "name": "A#3",
            "ticks": 7440,
            "time": 7.615383,
            "velocity": 0.6692913385826772
          },
          {
            "duration": 0.0461538000000008,
            "durationTicks": 48,
            "midi": 61,
            "name": "C#4",
            "ticks": 7440,
            "time": 7.615383,
            "velocity": 0.6456692913385826
          },
          {
            "duration": 0.05384610000000034,
            "durationTicks": 56,
            "midi": 63,
            "name": "D#4",
            "ticks": 7440,
            "time": 7.615383,
            "velocity": 0.7559055118110236
          },
          {
            "duration": 0.049999950000000126,
            "durationTicks": 52,
            "midi": 66,
            "name": "F#4",
            "ticks": 7440,
            "time": 7.615383,
            "velocity": 0.7637795275590551
          },
          {
            "duration": 0.4846149000000004,
            "durationTicks": 504,
            "midi": 54,
            "name": "F#3",
            "ticks": 7920,
            "time": 8.076920999999999,
            "velocity": 0.7244094488188977
          },
          {
            "duration": 0.49615335000000016,
            "durationTicks": 516,
            "midi": 58,
            "name": "A#3",
            "ticks": 7920,
            "time": 8.076920999999999,
            "velocity": 0.7401574803149606
          },
          {
            "duration": 0.4846149000000004,
            "durationTicks": 504,
            "midi": 61,
            "name": "C#4",
            "ticks": 7920,
            "time": 8.076920999999999,
            "velocity": 0.7716535433070866
          },
          {
            "duration": 0.4807687500000011,
            "durationTicks": 500,
            "midi": 63,
            "name": "D#4",
            "ticks": 7920,
            "time": 8.076920999999999,
            "velocity": 0.8346456692913385
          },
          {
            "duration": 0.49999950000000126,
            "durationTicks": 520,
            "midi": 66,
            "name": "F#4",
            "ticks": 7920,
            "time": 8.076920999999999,
            "velocity": 0.9212598425196851
          },
          {
            "duration": 0.07307684999999964,
            "durationTicks": 76,
            "midi": 54,
            "name": "F#3",
            "ticks": 8640,
            "time": 8.769228,
            "velocity": 0.6299212598425197
          },
          {
            "duration": 0.07692299999999896,
            "durationTicks": 80,
            "midi": 58,
            "name": "A#3",
            "ticks": 8640,
            "time": 8.769228,
            "velocity": 0.5984251968503937
          },
          {
            "duration": 0.06538454999999921,
            "durationTicks": 68,
            "midi": 61,
            "name": "C#4",
            "ticks": 8640,
            "time": 8.769228,
            "velocity": 0.6220472440944882
          },
          {
            "duration": 0.049999950000000126,
            "durationTicks": 52,
            "midi": 63,
            "name": "D#4",
            "ticks": 8640,
            "time": 8.769228,
            "velocity": 0.7559055118110236
          },
          {
            "duration": 0.06923070000000031,
            "durationTicks": 72,
            "midi": 66,
            "name": "F#4",
            "ticks": 8640,
            "time": 8.769228,
            "velocity": 0.8267716535433071
          },
          {
            "duration": 0.08076915000000007,
            "durationTicks": 84,
            "midi": 54,
            "name": "F#3",
            "ticks": 9120,
            "time": 9.230766,
            "velocity": 0.6299212598425197
          },
          {
            "duration": 0.0884614500000005,
            "durationTicks": 92,
            "midi": 58,
            "name": "A#3",
            "ticks": 9120,
            "time": 9.230766,
            "velocity": 0.7322834645669292
          },
          {
            "duration": 0.08461530000000117,
            "durationTicks": 88,
            "midi": 61,
            "name": "C#4",
            "ticks": 9120,
            "time": 9.230766,
            "velocity": 0.7480314960629921
          },
          {
            "duration": 0.08076915000000007,
            "durationTicks": 84,
            "midi": 63,
            "name": "D#4",
            "ticks": 9120,
            "time": 9.230766,
            "velocity": 0.8188976377952756
          },
          {
            "duration": 0.08076915000000007,
            "durationTicks": 84,
            "midi": 66,
            "name": "F#4",
            "ticks": 9120,
            "time": 9.230766,
            "velocity": 0.8346456692913385
          },
          {
            "duration": 0.5499994499999996,
            "durationTicks": 572,
            "midi": 54,
            "name": "F#3",
            "ticks": 9600,
            "time": 9.692304,
            "velocity": 0.7322834645669292
          },
          {
            "duration": 0.5423071499999992,
            "durationTicks": 564,
            "midi": 58,
            "name": "A#3",
            "ticks": 9600,
            "time": 9.692304,
            "velocity": 0.6377952755905512
          },
          {
            "duration": 0.5307686999999994,
            "durationTicks": 552,
            "midi": 60,
            "name": "C4",
            "ticks": 9600,
            "time": 9.692304,
            "velocity": 0.6456692913385826
          },
          {
            "duration": 0.5461533000000003,
            "durationTicks": 568,
            "midi": 62,
            "name": "D4",
            "ticks": 9600,
            "time": 9.692304,
            "velocity": 0.7716535433070866
          },
          {
            "duration": 0.5423071499999992,
            "durationTicks": 564,
            "midi": 66,
            "name": "F#4",
            "ticks": 9600,
            "time": 9.692304,
            "velocity": 0.9133858267716536
          },
          {
            "duration": 0.06538455000000098,
            "durationTicks": 68,
            "midi": 54,
            "name": "F#3",
            "ticks": 10320,
            "time": 10.384611,
            "velocity": 0.5590551181102362
          },
          {
            "duration": 0.07692300000000074,
            "durationTicks": 80,
            "midi": 58,
            "name": "A#3",
            "ticks": 10320,
            "time": 10.384611,
            "velocity": 0.6771653543307087
          },
          {
            "duration": 0.05384610000000123,
            "durationTicks": 56,
            "midi": 60,
            "name": "C4",
            "ticks": 10320,
            "time": 10.384611,
            "velocity": 0.4566929133858268
          },
          {
            "duration": 0.06153839999999988,
            "durationTicks": 64,
            "midi": 62,
            "name": "D4",
            "ticks": 10320,
            "time": 10.384611,
            "velocity": 0.5826771653543307
          },
          {
            "duration": 0.05384610000000123,
            "durationTicks": 56,
            "midi": 66,
            "name": "F#4",
            "ticks": 10320,
            "time": 10.384611,
            "velocity": 0.7007874015748031
          },
          {
            "duration": 0.58846095,
            "durationTicks": 612,
            "midi": 54,
            "name": "F#3",
            "ticks": 11040,
            "time": 11.076918,
            "velocity": 0.6535433070866141
          },
          {
            "duration": 0.5846148000000007,
            "durationTicks": 608,
            "midi": 58,
            "name": "A#3",
            "ticks": 11040,
            "time": 11.076918,
            "velocity": 0.6141732283464567
          },
          {
            "duration": 0.5961532500000004,
            "durationTicks": 620,
            "midi": 60,
            "name": "C4",
            "ticks": 11040,
            "time": 11.076918,
            "velocity": 0.6141732283464567
          },
          {
            "duration": 0.5999994000000015,
            "durationTicks": 624,
            "midi": 62,
            "name": "D4",
            "ticks": 11040,
            "time": 11.076918,
            "velocity": 0.7480314960629921
          },
          {
            "duration": 0.5999994000000015,
            "durationTicks": 624,
            "midi": 66,
            "name": "F#4",
            "ticks": 11040,
            "time": 11.076918,
            "velocity": 0.905511811023622
          },
          {
            "duration": 0.0884614500000005,
            "durationTicks": 92,
            "midi": 54,
            "name": "F#3",
            "ticks": 11760,
            "time": 11.769224999999999,
            "velocity": 0.6062992125984252
          },
          {
            "duration": 0.08076915000000184,
            "durationTicks": 84,
            "midi": 58,
            "name": "A#3",
            "ticks": 11760,
            "time": 11.769224999999999,
            "velocity": 0.6220472440944882
          },
          {
            "duration": 0.07692300000000074,
            "durationTicks": 80,
            "midi": 60,
            "name": "C4",
            "ticks": 11760,
            "time": 11.769224999999999,
            "velocity": 0.5118110236220472
          },
          {
            "duration": 0.09615375000000093,
            "durationTicks": 100,
            "midi": 62,
            "name": "D4",
            "ticks": 11760,
            "time": 11.769224999999999,
            "velocity": 0.5039370078740157
          },
          {
            "duration": 0.0884614500000005,
            "durationTicks": 92,
            "midi": 66,
            "name": "F#4",
            "ticks": 11760,
            "time": 11.769224999999999,
            "velocity": 0.7480314960629921
          },
          {
            "duration": 0.08076915000000184,
            "durationTicks": 84,
            "midi": 54,
            "name": "F#3",
            "ticks": 12480,
            "time": 12.461531999999998,
            "velocity": 0.6614173228346457
          },
          {
            "duration": 0.07307684999999964,
            "durationTicks": 76,
            "midi": 58,
            "name": "A#3",
            "ticks": 12480,
            "time": 12.461531999999998,
            "velocity": 0.6220472440944882
          },
          {
            "duration": 0.049999950000000126,
            "durationTicks": 52,
            "midi": 60,
            "name": "C4",
            "ticks": 12480,
            "time": 12.461531999999998,
            "velocity": 0.5984251968503937
          },
          {
            "duration": 0.06153839999999988,
            "durationTicks": 64,
            "midi": 62,
            "name": "D4",
            "ticks": 12480,
            "time": 12.461531999999998,
            "velocity": 0.6456692913385826
          },
          {
            "duration": 0.06923070000000209,
            "durationTicks": 72,
            "midi": 66,
            "name": "F#4",
            "ticks": 12480,
            "time": 12.461531999999998,
            "velocity": 0.8503937007874016
          },
          {
            "duration": 0.36538424999999997,
            "durationTicks": 380,
            "midi": 54,
            "name": "F#3",
            "ticks": 12960,
            "time": 12.92307,
            "velocity": 0.7322834645669292
          },
          {
            "duration": 0.35769194999999954,
            "durationTicks": 372,
            "midi": 58,
            "name": "A#3",
            "ticks": 12960,
            "time": 12.92307,
            "velocity": 0.7480314960629921
          },
          {
            "duration": 0.34230735000000045,
            "durationTicks": 356,
            "midi": 60,
            "name": "C4",
            "ticks": 12960,
            "time": 12.92307,
            "velocity": 0.6850393700787402
          },
          {
            "duration": 0.36538424999999997,
            "durationTicks": 380,
            "midi": 62,
            "name": "D4",
            "ticks": 12960,
            "time": 12.92307,
            "velocity": 0.8582677165354331
          },
          {
            "duration": 0.3538458000000002,
            "durationTicks": 368,
            "midi": 66,
            "name": "F#4",
            "ticks": 12960,
            "time": 12.92307,
            "velocity": 0.8818897637795275
          },
          {
            "duration": 0.09230759999999805,
            "durationTicks": 96,
            "midi": 54,
            "name": "F#3",
            "ticks": 13440,
            "time": 13.384608,
            "velocity": 0.6535433070866141
          },
          {
            "duration": 0.08076914999999829,
            "durationTicks": 84,
            "midi": 58,
            "name": "A#3",
            "ticks": 13440,
            "time": 13.384608,
            "velocity": 0.5905511811023622
          },
          {
            "duration": 0.09615374999999915,
            "durationTicks": 100,
            "midi": 61,
            "name": "C#4",
            "ticks": 13440,
            "time": 13.384608,
            "velocity": 0.5905511811023622
          },
          {
            "duration": 0.06923069999999854,
            "durationTicks": 72,
            "midi": 63,
            "name": "D#4",
            "ticks": 13440,
            "time": 13.384608,
            "velocity": 0.6456692913385826
          },
          {
            "duration": 0.1076921999999989,
            "durationTicks": 112,
            "midi": 66,
            "name": "F#4",
            "ticks": 13440,
            "time": 13.384608,
            "velocity": 0.6771653543307087
          },
          {
            "duration": 0.5307686999999994,
            "durationTicks": 552,
            "midi": 54,
            "name": "F#3",
            "ticks": 13920,
            "time": 13.846146,
            "velocity": 0.6771653543307087
          },
          {
            "duration": 0.542307150000001,
            "durationTicks": 564,
            "midi": 58,
            "name": "A#3",
            "ticks": 13920,
            "time": 13.846146,
            "velocity": 0.7322834645669292
          },
          {
            "duration": 0.523076399999999,
            "durationTicks": 544,
            "midi": 61,
            "name": "C#4",
            "ticks": 13920,
            "time": 13.846146,
            "velocity": 0.6929133858267716
          },
          {
            "duration": 0.5346148500000005,
            "durationTicks": 556,
            "midi": 63,
            "name": "D#4",
            "ticks": 13920,
            "time": 13.846146,
            "velocity": 0.8110236220472441
          },
          {
            "duration": 0.5461533000000003,
            "durationTicks": 568,
            "midi": 66,
            "name": "F#4",
            "ticks": 13920,
            "time": 13.846146,
            "velocity": 0.9212598425196851
          },
          {
            "duration": 0.05384610000000123,
            "durationTicks": 56,
            "midi": 54,
            "name": "F#3",
            "ticks": 14640,
            "time": 14.538452999999999,
            "velocity": 0.6535433070866141
          },
          {
            "duration": 0.07692300000000074,
            "durationTicks": 80,
            "midi": 58,
            "name": "A#3",
            "ticks": 14640,
            "time": 14.538452999999999,
            "velocity": 0.6220472440944882
          },
          {
            "duration": 0.06153839999999988,
            "durationTicks": 64,
            "midi": 61,
            "name": "C#4",
            "ticks": 14640,
            "time": 14.538452999999999,
            "velocity": 0.5669291338582677
          },
          {
            "duration": 0.06153839999999988,
            "durationTicks": 64,
            "midi": 63,
            "name": "D#4",
            "ticks": 14640,
            "time": 14.538452999999999,
            "velocity": 0.6377952755905512
          },
          {
            "duration": 0.07692300000000074,
            "durationTicks": 80,
            "midi": 66,
            "name": "F#4",
            "ticks": 14640,
            "time": 14.538452999999999,
            "velocity": 0.7244094488188977
          },
          {
            "duration": 0.07692300000000074,
            "durationTicks": 80,
            "midi": 54,
            "name": "F#3",
            "ticks": 15120,
            "time": 14.999991,
            "velocity": 0.7401574803149606
          },
          {
            "duration": 0.05384609999999945,
            "durationTicks": 56,
            "midi": 58,
            "name": "A#3",
            "ticks": 15120,
            "time": 14.999991,
            "velocity": 0.6692913385826772
          },
          {
            "duration": 0.03461534999999927,
            "durationTicks": 36,
            "midi": 61,
            "name": "C#4",
            "ticks": 15120,
            "time": 14.999991,
            "velocity": 0.5984251968503937
          },
          {
            "duration": 0.0461538000000008,
            "durationTicks": 48,
            "midi": 63,
            "name": "D#4",
            "ticks": 15120,
            "time": 14.999991,
            "velocity": 0.7637795275590551
          },
          {
            "duration": 0.06538454999999921,
            "durationTicks": 68,
            "midi": 66,
            "name": "F#4",
            "ticks": 15120,
            "time": 14.999991,
            "velocity": 0.7874015748031497
          },
          {
            "duration": 0.511537950000001,
            "durationTicks": 532,
            "midi": 54,
            "name": "F#3",
            "ticks": 15600,
            "time": 15.461528999999999,
            "velocity": 0.7716535433070866
          },
          {
            "duration": 0.49615335000000016,
            "durationTicks": 516,
            "midi": 58,
            "name": "A#3",
            "ticks": 15600,
            "time": 15.461528999999999,
            "velocity": 0.6850393700787402
          },
          {
            "duration": 0.4999994999999995,
            "durationTicks": 520,
            "midi": 61,
            "name": "C#4",
            "ticks": 15600,
            "time": 15.461528999999999,
            "velocity": 0.7322834645669292
          },
          {
            "duration": 0.49615335000000016,
            "durationTicks": 516,
            "midi": 63,
            "name": "D#4",
            "ticks": 15600,
            "time": 15.461528999999999,
            "velocity": 0.8188976377952756
          },
          {
            "duration": 0.5192302499999997,
            "durationTicks": 540,
            "midi": 66,
            "name": "F#4",
            "ticks": 15600,
            "time": 15.461528999999999,
            "velocity": 0.889763779527559
          },
          {
            "duration": 0.09999990000000025,
            "durationTicks": 104,
            "midi": 54,
            "name": "F#3",
            "ticks": 16320,
            "time": 16.153836,
            "velocity": 0.7086614173228346
          },
          {
            "duration": 0.07692300000000074,
            "durationTicks": 80,
            "midi": 58,
            "name": "A#3",
            "ticks": 16320,
            "time": 16.153836,
            "velocity": 0.6535433070866141
          },
          {
            "duration": 0.06923069999999854,
            "durationTicks": 72,
            "midi": 61,
            "name": "C#4",
            "ticks": 16320,
            "time": 16.153836,
            "velocity": 0.6062992125984252
          },
          {
            "duration": 0.06538455000000098,
            "durationTicks": 68,
            "midi": 63,
            "name": "D#4",
            "ticks": 16320,
            "time": 16.153836,
            "velocity": 0.7559055118110236
          },
          {
            "duration": 0.07307684999999964,
            "durationTicks": 76,
            "midi": 66,
            "name": "F#4",
            "ticks": 16320,
            "time": 16.153836,
            "velocity": 0.7795275590551181
          },
          {
            "duration": 0.0884614500000005,
            "durationTicks": 92,
            "midi": 54,
            "name": "F#3",
            "ticks": 16800,
            "time": 16.615374,
            "velocity": 0.6771653543307087
          },
          {
            "duration": 0.07307684999999964,
            "durationTicks": 76,
            "midi": 58,
            "name": "A#3",
            "ticks": 16800,
            "time": 16.615374,
            "velocity": 0.7322834645669292
          },
          {
            "duration": 0.07692300000000074,
            "durationTicks": 80,
            "midi": 61,
            "name": "C#4",
            "ticks": 16800,
            "time": 16.615374,
            "velocity": 0.7716535433070866
          },
          {
            "duration": 0.06153839999999988,
            "durationTicks": 64,
            "midi": 63,
            "name": "D#4",
            "ticks": 16800,
            "time": 16.615374,
            "velocity": 0.8188976377952756
          },
          {
            "duration": 0.06923069999999854,
            "durationTicks": 72,
            "midi": 66,
            "name": "F#4",
            "ticks": 16800,
            "time": 16.615374,
            "velocity": 0.889763779527559
          },
          {
            "duration": 0.09230759999999805,
            "durationTicks": 96,
            "midi": 54,
            "name": "F#3",
            "ticks": 17280,
            "time": 17.076912,
            "velocity": 0.6692913385826772
          },
          {
            "duration": 0.07692300000000074,
            "durationTicks": 80,
            "midi": 58,
            "name": "A#3",
            "ticks": 17280,
            "time": 17.076912,
            "velocity": 0.6929133858267716
          },
          {
            "duration": 0.06538454999999743,
            "durationTicks": 68,
            "midi": 60,
            "name": "C4",
            "ticks": 17280,
            "time": 17.076912,
            "velocity": 0.5748031496062992
          },
          {
            "duration": 0.07307684999999964,
            "durationTicks": 76,
            "midi": 62,
            "name": "D4",
            "ticks": 17280,
            "time": 17.076912,
            "velocity": 0.6141732283464567
          },
          {
            "duration": 0.05769224999999878,
            "durationTicks": 60,
            "midi": 66,
            "name": "F#4",
            "ticks": 17280,
            "time": 17.076912,
            "velocity": 0.8503937007874016
          },
          {
            "duration": 0.6307686000000032,
            "durationTicks": 656,
            "midi": 54,
            "name": "F#3",
            "ticks": 17760,
            "time": 17.538449999999997,
            "velocity": 0.7007874015748031
          },
          {
            "duration": 0.6076917000000037,
            "durationTicks": 632,
            "midi": 58,
            "name": "A#3",
            "ticks": 17760,
            "time": 17.538449999999997,
            "velocity": 0.6456692913385826
          },
          {
            "duration": 0.576922500000002,
            "durationTicks": 600,
            "midi": 60,
            "name": "C4",
            "ticks": 17760,
            "time": 17.538449999999997,
            "velocity": 0.6141732283464567
          },
          {
            "duration": 0.6076917000000037,
            "durationTicks": 632,
            "midi": 62,
            "name": "D4",
            "ticks": 17760,
            "time": 17.538449999999997,
            "velocity": 0.6299212598425197
          },
          {
            "duration": 0.6038455500000026,
            "durationTicks": 628,
            "midi": 66,
            "name": "F#4",
            "ticks": 17760,
            "time": 17.538449999999997,
            "velocity": 0.8267716535433071
          },
          {
            "duration": 0.08461530000000295,
            "durationTicks": 88,
            "midi": 54,
            "name": "F#3",
            "ticks": 18480,
            "time": 18.230756999999997,
            "velocity": 0.5354330708661418
          },
          {
            "duration": 0.07307685000000319,
            "durationTicks": 76,
            "midi": 58,
            "name": "A#3",
            "ticks": 18480,
            "time": 18.230756999999997,
            "velocity": 0.5196850393700787
          },
          {
            "duration": 0.03461535000000282,
            "durationTicks": 36,
            "midi": 60,
            "name": "C4",
            "ticks": 18480,
            "time": 18.230756999999997,
            "velocity": 0.47244094488188976
          },
          {
            "duration": 0.07307685000000319,
            "durationTicks": 76,
            "midi": 62,
            "name": "D4",
            "ticks": 18480,
            "time": 18.230756999999997,
            "velocity": 0.6771653543307087
          },
          {
            "duration": 0.046153800000002576,
            "durationTicks": 48,
            "midi": 66,
            "name": "F#4",
            "ticks": 18480,
            "time": 18.230756999999997,
            "velocity": 0.7165354330708661
          },
          {
            "duration": 1.44999855,
            "durationTicks": 1508,
            "midi": 54,
            "name": "F#3",
            "ticks": 18960,
            "time": 18.692294999999998,
            "velocity": 0.6614173228346457
          },
          {
            "duration": 1.465383150000001,
            "durationTicks": 1524,
            "midi": 58,
            "name": "A#3",
            "ticks": 18960,
            "time": 18.692294999999998,
            "velocity": 0.7244094488188977
          },
          {
            "duration": 1.465383150000001,
            "durationTicks": 1524,
            "midi": 60,
            "name": "C4",
            "ticks": 18960,
            "time": 18.692294999999998,
            "velocity": 0.6220472440944882
          },
          {
            "duration": 1.515383100000001,
            "durationTicks": 1576,
            "midi": 62,
            "name": "D4",
            "ticks": 18960,
            "time": 18.692294999999998,
            "velocity": 0.7401574803149606
          },
          {
            "duration": 1.5038446500000013,
            "durationTicks": 1564,
            "midi": 66,
            "name": "F#4",
            "ticks": 18960,
            "time": 18.692294999999998,
            "velocity": 0.7952755905511811
          },
          {
            "duration": 0.37692269999999795,
            "durationTicks": 392,
            "midi": 54,
            "name": "F#3",
            "ticks": 20640,
            "time": 20.307678,
            "velocity": 0.7401574803149606
          },
          {
            "duration": 0.3961534499999999,
            "durationTicks": 412,
            "midi": 58,
            "name": "A#3",
            "ticks": 20640,
            "time": 20.307678,
            "velocity": 0.6850393700787402
          },
          {
            "duration": 0.33846120000000113,
            "durationTicks": 352,
            "midi": 60,
            "name": "C4",
            "ticks": 20640,
            "time": 20.307678,
            "velocity": 0.6929133858267716
          },
          {
            "duration": 0.35769194999999954,
            "durationTicks": 372,
            "midi": 62,
            "name": "D4",
            "ticks": 20640,
            "time": 20.307678,
            "velocity": 0.7795275590551181
          },
          {
            "duration": 0.3961534499999999,
            "durationTicks": 412,
            "midi": 66,
            "name": "F#4",
            "ticks": 20640,
            "time": 20.307678,
            "velocity": 0.9133858267716536
          },
          {
            "duration": 0.09615374999999915,
            "durationTicks": 100,
            "midi": 54,
            "name": "F#3",
            "ticks": 21120,
            "time": 20.769216,
            "velocity": 0.6456692913385826
          },
          {
            "duration": 0.09615374999999915,
            "durationTicks": 100,
            "midi": 58,
            "name": "A#3",
            "ticks": 21120,
            "time": 20.769216,
            "velocity": 0.5984251968503937
          },
          {
            "duration": 0.0884614500000005,
            "durationTicks": 92,
            "midi": 61,
            "name": "C#4",
            "ticks": 21120,
            "time": 20.769216,
            "velocity": 0.6456692913385826
          },
          {
            "duration": 0.08076914999999474,
            "durationTicks": 84,
            "midi": 63,
            "name": "D#4",
            "ticks": 21120,
            "time": 20.769216,
            "velocity": 0.5984251968503937
          },
          {
            "duration": 0.12307679999999976,
            "durationTicks": 128,
            "midi": 66,
            "name": "F#4",
            "ticks": 21120,
            "time": 20.769216,
            "velocity": 0.47244094488188976
          },
          {
            "duration": 0.5346148500000005,
            "durationTicks": 556,
            "midi": 54,
            "name": "F#3",
            "ticks": 21600,
            "time": 21.230753999999997,
            "velocity": 0.7165354330708661
          },
          {
            "duration": 0.5269225500000019,
            "durationTicks": 548,
            "midi": 58,
            "name": "A#3",
            "ticks": 21600,
            "time": 21.230753999999997,
            "velocity": 0.6771653543307087
          },
          {
            "duration": 0.5346148500000005,
            "durationTicks": 556,
            "midi": 61,
            "name": "C#4",
            "ticks": 21600,
            "time": 21.230753999999997,
            "velocity": 0.7401574803149606
          },
          {
            "duration": 0.5307686999999994,
            "durationTicks": 552,
            "midi": 63,
            "name": "D#4",
            "ticks": 21600,
            "time": 21.230753999999997,
            "velocity": 0.7480314960629921
          },
          {
            "duration": 0.5576917500000036,
            "durationTicks": 580,
            "midi": 66,
            "name": "F#4",
            "ticks": 21600,
            "time": 21.230753999999997,
            "velocity": 0.7874015748031497
          },
          {
            "duration": 0.0999999000000038,
            "durationTicks": 104,
            "midi": 54,
            "name": "F#3",
            "ticks": 22320,
            "time": 21.923060999999997,
            "velocity": 0.6220472440944882
          },
          {
            "duration": 0.0923076000000016,
            "durationTicks": 96,
            "midi": 58,
            "name": "A#3",
            "ticks": 22320,
            "time": 21.923060999999997,
            "velocity": 0.6850393700787402
          },
          {
            "duration": 0.08076914999999829,
            "durationTicks": 84,
            "midi": 61,
            "name": "C#4",
            "ticks": 22320,
            "time": 21.923060999999997,
            "velocity": 0.6614173228346457
          },
          {
            "duration": 0.07692300000000074,
            "durationTicks": 80,
            "midi": 63,
            "name": "D#4",
            "ticks": 22320,
            "time": 21.923060999999997,
            "velocity": 0.7795275590551181
          },
          {
            "duration": 0.10384605000000136,
            "durationTicks": 108,
            "midi": 66,
            "name": "F#4",
            "ticks": 22320,
            "time": 21.923060999999997,
            "velocity": 0.9291338582677166
          },
          {
            "duration": 0.0884614500000005,
            "durationTicks": 92,
            "midi": 54,
            "name": "F#3",
            "ticks": 22800,
            "time": 22.384598999999998,
            "velocity": 0.6614173228346457
          },
          {
            "duration": 0.06923069999999854,
            "durationTicks": 72,
            "midi": 58,
            "name": "A#3",
            "ticks": 22800,
            "time": 22.384598999999998,
            "velocity": 0.6771653543307087
          },
          {
            "duration": 0.06923069999999854,
            "durationTicks": 72,
            "midi": 61,
            "name": "C#4",
            "ticks": 22800,
            "time": 22.384598999999998,
            "velocity": 0.7165354330708661
          },
          {
            "duration": 0.08076914999999829,
            "durationTicks": 84,
            "midi": 66,
            "name": "F#4",
            "ticks": 22800,
            "time": 22.384598999999998,
            "velocity": 0.7480314960629921
          },
          {
            "duration": 0.4769225999999982,
            "durationTicks": 496,
            "midi": 54,
            "name": "F#3",
            "ticks": 23280,
            "time": 22.846137,
            "velocity": 0.7795275590551181
          },
          {
            "duration": 0.4807687499999993,
            "durationTicks": 500,
            "midi": 58,
            "name": "A#3",
            "ticks": 23280,
            "time": 22.846137,
            "velocity": 0.7244094488188977
          },
          {
            "duration": 0.46538414999999844,
            "durationTicks": 484,
            "midi": 61,
            "name": "C#4",
            "ticks": 23280,
            "time": 22.846137,
            "velocity": 0.7244094488188977
          },
          {
            "duration": 0.5076917999999999,
            "durationTicks": 528,
            "midi": 66,
            "name": "F#4",
            "ticks": 23280,
            "time": 22.846137,
            "velocity": 0.9133858267716536
          },
          {
            "duration": 0.0923076000000016,
            "durationTicks": 96,
            "midi": 54,
            "name": "F#3",
            "ticks": 24000,
            "time": 23.538444,
            "velocity": 0.6771653543307087
          },
          {
            "duration": 0.0846152999999994,
            "durationTicks": 88,
            "midi": 58,
            "name": "A#3",
            "ticks": 24000,
            "time": 23.538444,
            "velocity": 0.6141732283464567
          },
          {
            "duration": 0.07307684999999964,
            "durationTicks": 76,
            "midi": 61,
            "name": "C#4",
            "ticks": 24000,
            "time": 23.538444,
            "velocity": 0.6299212598425197
          },
          {
            "duration": 0.0846152999999994,
            "durationTicks": 88,
            "midi": 66,
            "name": "F#4",
            "ticks": 24000,
            "time": 23.538444,
            "velocity": 0.7322834645669292
          },
          {
            "duration": 0.3384611999999976,
            "durationTicks": 352,
            "midi": 54,
            "name": "F#3",
            "ticks": 24480,
            "time": 23.999982,
            "velocity": 0.6535433070866141
          },
          {
            "duration": 0.33461505,
            "durationTicks": 348,
            "midi": 58,
            "name": "A#3",
            "ticks": 24480,
            "time": 23.999982,
            "velocity": 0.7480314960629921
          },
          {
            "duration": 0.31153814999999696,
            "durationTicks": 324,
            "midi": 61,
            "name": "C#4",
            "ticks": 24480,
            "time": 23.999982,
            "velocity": 0.7244094488188977
          },
          {
            "duration": 0.3423073499999987,
            "durationTicks": 356,
            "midi": 66,
            "name": "F#4",
            "ticks": 24480,
            "time": 23.999982,
            "velocity": 0.7952755905511811
          },
          {
            "duration": 0.0961537500000027,
            "durationTicks": 100,
            "midi": 58,
            "name": "A#3",
            "ticks": 24960,
            "time": 24.461519999999997,
            "velocity": 0.7007874015748031
          },
          {
            "duration": 0.0846152999999994,
            "durationTicks": 88,
            "midi": 61,
            "name": "C#4",
            "ticks": 24960,
            "time": 24.461519999999997,
            "velocity": 0.6771653543307087
          },
          {
            "duration": 0.06538455000000098,
            "durationTicks": 68,
            "midi": 63,
            "name": "D#4",
            "ticks": 24960,
            "time": 24.461519999999997,
            "velocity": 0.7086614173228346
          },
          {
            "duration": 0.0999999000000038,
            "durationTicks": 104,
            "midi": 66,
            "name": "F#4",
            "ticks": 24960,
            "time": 24.461519999999997,
            "velocity": 0.8188976377952756
          },
          {
            "duration": 0.5346148500000005,
            "durationTicks": 556,
            "midi": 58,
            "name": "A#3",
            "ticks": 25440,
            "time": 24.923057999999997,
            "velocity": 0.7480314960629921
          },
          {
            "duration": 0.5230764000000008,
            "durationTicks": 544,
            "midi": 61,
            "name": "C#4",
            "ticks": 25440,
            "time": 24.923057999999997,
            "velocity": 0.6929133858267716
          },
          {
            "duration": 0.5230764000000008,
            "durationTicks": 544,
            "midi": 63,
            "name": "D#4",
            "ticks": 25440,
            "time": 24.923057999999997,
            "velocity": 0.7795275590551181
          },
          {
            "duration": 0.5538456000000025,
            "durationTicks": 576,
            "midi": 66,
            "name": "F#4",
            "ticks": 25440,
            "time": 24.923057999999997,
            "velocity": 0.8110236220472441
          },
          {
            "duration": 0.13076909999999842,
            "durationTicks": 136,
            "midi": 58,
            "name": "A#3",
            "ticks": 26160,
            "time": 25.615364999999997,
            "velocity": 0.7244094488188977
          },
          {
            "duration": 0.10384605000000136,
            "durationTicks": 108,
            "midi": 61,
            "name": "C#4",
            "ticks": 26160,
            "time": 25.615364999999997,
            "velocity": 0.7165354330708661
          },
          {
            "duration": 0.0846152999999994,
            "durationTicks": 88,
            "midi": 63,
            "name": "D#4",
            "ticks": 26160,
            "time": 25.615364999999997,
            "velocity": 0.8031496062992126
          },
          {
            "duration": 0.08076914999999829,
            "durationTicks": 84,
            "midi": 66,
            "name": "F#4",
            "ticks": 26160,
            "time": 25.615364999999997,
            "velocity": 0.8031496062992126
          },
          {
            "duration": 0.1076921999999989,
            "durationTicks": 112,
            "midi": 56,
            "name": "G#3",
            "ticks": 26640,
            "time": 26.076902999999998,
            "velocity": 0.7007874015748031
          },
          {
            "duration": 0.08076914999999829,
            "durationTicks": 84,
            "midi": 60,
            "name": "C4",
            "ticks": 26640,
            "time": 26.076902999999998,
            "velocity": 0.6299212598425197
          },
          {
            "duration": 0.07692299999999719,
            "durationTicks": 80,
            "midi": 63,
            "name": "D#4",
            "ticks": 26640,
            "time": 26.076902999999998,
            "velocity": 0.7952755905511811
          },
          {
            "duration": 0.05769224999999878,
            "durationTicks": 60,
            "midi": 65,
            "name": "F4",
            "ticks": 26640,
            "time": 26.076902999999998,
            "velocity": 0.5748031496062992
          },
          {
            "duration": 0.09615374999999915,
            "durationTicks": 100,
            "midi": 69,
            "name": "A4",
            "ticks": 26640,
            "time": 26.076902999999998,
            "velocity": 0.6850393700787402
          },
          {
            "duration": 0.5192302499999997,
            "durationTicks": 540,
            "midi": 56,
            "name": "G#3",
            "ticks": 27120,
            "time": 26.538441,
            "velocity": 0.7874015748031497
          },
          {
            "duration": 0.5230763999999972,
            "durationTicks": 544,
            "midi": 60,
            "name": "C4",
            "ticks": 27120,
            "time": 26.538441,
            "velocity": 0.6614173228346457
          },
          {
            "duration": 0.5384609999999981,
            "durationTicks": 560,
            "midi": 63,
            "name": "D#4",
            "ticks": 27120,
            "time": 26.538441,
            "velocity": 0.7637795275590551
          },
          {
            "duration": 0.5384609999999981,
            "durationTicks": 560,
            "midi": 65,
            "name": "F4",
            "ticks": 27120,
            "time": 26.538441,
            "velocity": 0.6535433070866141
          },
          {
            "duration": 0.5269225499999983,
            "durationTicks": 548,
            "midi": 69,
            "name": "A4",
            "ticks": 27120,
            "time": 26.538441,
            "velocity": 0.5905511811023622
          },
          {
            "duration": 0.1076921999999989,
            "durationTicks": 112,
            "midi": 56,
            "name": "G#3",
            "ticks": 27840,
            "time": 27.230748,
            "velocity": 0.7874015748031497
          },
          {
            "duration": 0.07307684999999964,
            "durationTicks": 76,
            "midi": 60,
            "name": "C4",
            "ticks": 27840,
            "time": 27.230748,
            "velocity": 0.6062992125984252
          },
          {
            "duration": 0.07307684999999964,
            "durationTicks": 76,
            "midi": 63,
            "name": "D#4",
            "ticks": 27840,
            "time": 27.230748,
            "velocity": 0.7480314960629921
          },
          {
            "duration": 0.06923069999999854,
            "durationTicks": 72,
            "midi": 65,
            "name": "F4",
            "ticks": 27840,
            "time": 27.230748,
            "velocity": 0.6141732283464567
          },
          {
            "duration": 0.09999990000000025,
            "durationTicks": 104,
            "midi": 69,
            "name": "A4",
            "ticks": 27840,
            "time": 27.230748,
            "velocity": 0.6299212598425197
          },
          {
            "duration": 0.357691949999996,
            "durationTicks": 372,
            "midi": 56,
            "name": "G#3",
            "ticks": 28320,
            "time": 27.692286,
            "velocity": 0.8346456692913385
          },
          {
            "duration": 0.2538458999999982,
            "durationTicks": 264,
            "midi": 60,
            "name": "C4",
            "ticks": 28320,
            "time": 27.692286,
            "velocity": 0.7480314960629921
          },
          {
            "duration": 0.31153814999999696,
            "durationTicks": 324,
            "midi": 63,
            "name": "D#4",
            "ticks": 28320,
            "time": 27.692286,
            "velocity": 0.8110236220472441
          },
          {
            "duration": 0.34999964999999733,
            "durationTicks": 364,
            "midi": 65,
            "name": "F4",
            "ticks": 28320,
            "time": 27.692286,
            "velocity": 0.7480314960629921
          },
          {
            "duration": 0.31923044999999917,
            "durationTicks": 332,
            "midi": 69,
            "name": "A4",
            "ticks": 28320,
            "time": 27.692286,
            "velocity": 0.6771653543307087
          },
          {
            "duration": 0.07692300000000074,
            "durationTicks": 80,
            "midi": 56,
            "name": "G#3",
            "ticks": 28800,
            "time": 28.153823999999997,
            "velocity": 0.7795275590551181
          },
          {
            "duration": 0.08076914999999829,
            "durationTicks": 84,
            "midi": 59,
            "name": "B3",
            "ticks": 28800,
            "time": 28.153823999999997,
            "velocity": 0.7007874015748031
          },
          {
            "duration": 0.0923076000000016,
            "durationTicks": 96,
            "midi": 61,
            "name": "C#4",
            "ticks": 28800,
            "time": 28.153823999999997,
            "velocity": 0.6771653543307087
          },
          {
            "duration": 0.08076914999999829,
            "durationTicks": 84,
            "midi": 64,
            "name": "E4",
            "ticks": 28800,
            "time": 28.153823999999997,
            "velocity": 0.6771653543307087
          },
          {
            "duration": 0.08846145000000405,
            "durationTicks": 92,
            "midi": 68,
            "name": "G#4",
            "ticks": 28800,
            "time": 28.153823999999997,
            "velocity": 0.7165354330708661
          },
          {
            "duration": 0.5499994500000014,
            "durationTicks": 572,
            "midi": 56,
            "name": "G#3",
            "ticks": 29280,
            "time": 28.615361999999998,
            "velocity": 0.7874015748031497
          },
          {
            "duration": 0.5653840500000022,
            "durationTicks": 588,
            "midi": 59,
            "name": "B3",
            "ticks": 29280,
            "time": 28.615361999999998,
            "velocity": 0.8110236220472441
          },
          {
            "duration": 0.5730763500000009,
            "durationTicks": 596,
            "midi": 61,
            "name": "C#4",
            "ticks": 29280,
            "time": 28.615361999999998,
            "velocity": 0.6929133858267716
          },
          {
            "duration": 0.5653840500000022,
            "durationTicks": 588,
            "midi": 64,
            "name": "E4",
            "ticks": 29280,
            "time": 28.615361999999998,
            "velocity": 0.7874015748031497
          },
          {
            "duration": 0.5730763500000009,
            "durationTicks": 596,
            "midi": 68,
            "name": "G#4",
            "ticks": 29280,
            "time": 28.615361999999998,
            "velocity": 0.7322834645669292
          },
          {
            "duration": 0.09999990000000025,
            "durationTicks": 104,
            "midi": 56,
            "name": "G#3",
            "ticks": 30000,
            "time": 29.307668999999997,
            "velocity": 0.7716535433070866
          },
          {
            "duration": 0.0923076000000016,
            "durationTicks": 96,
            "midi": 59,
            "name": "B3",
            "ticks": 30000,
            "time": 29.307668999999997,
            "velocity": 0.7322834645669292
          },
          {
            "duration": 0.10384605000000136,
            "durationTicks": 108,
            "midi": 61,
            "name": "C#4",
            "ticks": 30000,
            "time": 29.307668999999997,
            "velocity": 0.6850393700787402
          },
          {
            "duration": 0.08076914999999829,
            "durationTicks": 84,
            "midi": 64,
            "name": "E4",
            "ticks": 30000,
            "time": 29.307668999999997,
            "velocity": 0.7401574803149606
          },
          {
            "duration": 0.0923076000000016,
            "durationTicks": 96,
            "midi": 68,
            "name": "G#4",
            "ticks": 30000,
            "time": 29.307668999999997,
            "velocity": 0.7795275590551181
          },
          {
            "duration": 0.08076914999999829,
            "durationTicks": 84,
            "midi": 54,
            "name": "F#3",
            "ticks": 30480,
            "time": 29.769206999999998,
            "velocity": 0.6771653543307087
          },
          {
            "duration": 0.06538454999999743,
            "durationTicks": 68,
            "midi": 58,
            "name": "A#3",
            "ticks": 30480,
            "time": 29.769206999999998,
            "velocity": 0.7480314960629921
          },
          {
            "duration": 0.06538454999999743,
            "durationTicks": 68,
            "midi": 61,
            "name": "C#4",
            "ticks": 30480,
            "time": 29.769206999999998,
            "velocity": 0.6535433070866141
          },
          {
            "duration": 0.05384610000000123,
            "durationTicks": 56,
            "midi": 63,
            "name": "D#4",
            "ticks": 30480,
            "time": 29.769206999999998,
            "velocity": 0.7559055118110236
          },
          {
            "duration": 0.06538454999999743,
            "durationTicks": 68,
            "midi": 66,
            "name": "F#4",
            "ticks": 30480,
            "time": 29.769206999999998,
            "velocity": 0.7716535433070866
          },
          {
            "duration": 0.4576918499999998,
            "durationTicks": 476,
            "midi": 54,
            "name": "F#3",
            "ticks": 30960,
            "time": 30.230745,
            "velocity": 0.7480314960629921
          },
          {
            "duration": 0.46153799999999734,
            "durationTicks": 480,
            "midi": 58,
            "name": "A#3",
            "ticks": 30960,
            "time": 30.230745,
            "velocity": 0.7637795275590551
          },
          {
            "duration": 0.4769225999999982,
            "durationTicks": 496,
            "midi": 61,
            "name": "C#4",
            "ticks": 30960,
            "time": 30.230745,
            "velocity": 0.6929133858267716
          },
          {
            "duration": 0.46153799999999734,
            "durationTicks": 480,
            "midi": 63,
            "name": "D#4",
            "ticks": 30960,
            "time": 30.230745,
            "velocity": 0.8346456692913385
          },
          {
            "duration": 0.48076874999999575,
            "durationTicks": 500,
            "midi": 66,
            "name": "F#4",
            "ticks": 30960,
            "time": 30.230745,
            "velocity": 0.937007874015748
          },
          {
            "duration": 0.09615374999999915,
            "durationTicks": 100,
            "midi": 54,
            "name": "F#3",
            "ticks": 31680,
            "time": 30.923052,
            "velocity": 0.7007874015748031
          },
          {
            "duration": 0.08461529999999584,
            "durationTicks": 88,
            "midi": 58,
            "name": "A#3",
            "ticks": 31680,
            "time": 30.923052,
            "velocity": 0.6220472440944882
          },
          {
            "duration": 0.049999950000000126,
            "durationTicks": 52,
            "midi": 61,
            "name": "C#4",
            "ticks": 31680,
            "time": 30.923052,
            "velocity": 0.5748031496062992
          },
          {
            "duration": 0.053846099999997676,
            "durationTicks": 56,
            "midi": 63,
            "name": "D#4",
            "ticks": 31680,
            "time": 30.923052,
            "velocity": 0.6535433070866141
          },
          {
            "duration": 0.08076914999999829,
            "durationTicks": 84,
            "midi": 66,
            "name": "F#4",
            "ticks": 31680,
            "time": 30.923052,
            "velocity": 0.7559055118110236
          },
          {
            "duration": 0.3499996500000009,
            "durationTicks": 364,
            "midi": 54,
            "name": "F#3",
            "ticks": 32160,
            "time": 31.384589999999996,
            "velocity": 0.7401574803149606
          },
          {
            "duration": 0.353845800000002,
            "durationTicks": 368,
            "midi": 58,
            "name": "A#3",
            "ticks": 32160,
            "time": 31.384589999999996,
            "velocity": 0.7086614173228346
          },
          {
            "duration": 0.34230735000000223,
            "durationTicks": 356,
            "midi": 61,
            "name": "C#4",
            "ticks": 32160,
            "time": 31.384589999999996,
            "velocity": 0.7952755905511811
          },
          {
            "duration": 0.3230766000000038,
            "durationTicks": 336,
            "midi": 63,
            "name": "D#4",
            "ticks": 32160,
            "time": 31.384589999999996,
            "velocity": 0.8740157480314961
          },
          {
            "duration": 0.3076919999999994,
            "durationTicks": 320,
            "midi": 66,
            "name": "F#4",
            "ticks": 32160,
            "time": 31.384589999999996,
            "velocity": 0.9606299212598425
          },
          {
            "duration": 0.10769220000000246,
            "durationTicks": 112,
            "midi": 54,
            "name": "F#3",
            "ticks": 32640,
            "time": 31.846127999999997,
            "velocity": 0.6535433070866141
          },
          {
            "duration": 0.07307684999999964,
            "durationTicks": 76,
            "midi": 58,
            "name": "A#3",
            "ticks": 32640,
            "time": 31.846127999999997,
            "velocity": 0.6771653543307087
          },
          {
            "duration": 0.06153839999999988,
            "durationTicks": 64,
            "midi": 59,
            "name": "B3",
            "ticks": 32640,
            "time": 31.846127999999997,
            "velocity": 0.7480314960629921
          },
          {
            "duration": 0.08076914999999829,
            "durationTicks": 84,
            "midi": 63,
            "name": "D#4",
            "ticks": 32640,
            "time": 31.846127999999997,
            "velocity": 0.7401574803149606
          },
          {
            "duration": 0.5423071499999992,
            "durationTicks": 564,
            "midi": 54,
            "name": "F#3",
            "ticks": 33120,
            "time": 32.307666,
            "velocity": 0.8818897637795275
          },
          {
            "duration": 0.5307686999999959,
            "durationTicks": 552,
            "midi": 58,
            "name": "A#3",
            "ticks": 33120,
            "time": 32.307666,
            "velocity": 0.8031496062992126
          },
          {
            "duration": 0.5192302499999997,
            "durationTicks": 540,
            "midi": 59,
            "name": "B3",
            "ticks": 33120,
            "time": 32.307666,
            "velocity": 0.84251968503937
          },
          {
            "duration": 0.534614849999997,
            "durationTicks": 556,
            "midi": 63,
            "name": "D#4",
            "ticks": 33120,
            "time": 32.307666,
            "velocity": 0.7795275590551181
          },
          {
            "duration": 0.13076909999999486,
            "durationTicks": 136,
            "midi": 54,
            "name": "F#3",
            "ticks": 33840,
            "time": 32.999973,
            "velocity": 0.7244094488188977
          },
          {
            "duration": 0.08461529999999584,
            "durationTicks": 88,
            "midi": 58,
            "name": "A#3",
            "ticks": 33840,
            "time": 32.999973,
            "velocity": 0.6771653543307087
          },
          {
            "duration": 0.06923069999999854,
            "durationTicks": 72,
            "midi": 59,
            "name": "B3",
            "ticks": 33840,
            "time": 32.999973,
            "velocity": 0.7952755905511811
          },
          {
            "duration": 0.09999990000000025,
            "durationTicks": 104,
            "midi": 63,
            "name": "D#4",
            "ticks": 33840,
            "time": 32.999973,
            "velocity": 0.7401574803149606
          },
          {
            "duration": 0.09230759999999805,
            "durationTicks": 96,
            "midi": 56,
            "name": "G#3",
            "ticks": 34320,
            "time": 33.461511,
            "velocity": 0.8346456692913385
          },
          {
            "duration": 0.053846099999994124,
            "durationTicks": 56,
            "midi": 59,
            "name": "B3",
            "ticks": 34320,
            "time": 33.461511,
            "velocity": 0.6299212598425197
          },
          {
            "duration": 0.053846099999994124,
            "durationTicks": 56,
            "midi": 61,
            "name": "C#4",
            "ticks": 34320,
            "time": 33.461511,
            "velocity": 0.7637795275590551
          },
          {
            "duration": 0.06153839999999633,
            "durationTicks": 64,
            "midi": 64,
            "name": "E4",
            "ticks": 34320,
            "time": 33.461511,
            "velocity": 0.8031496062992126
          },
          {
            "duration": 0.47307645000000775,
            "durationTicks": 492,
            "midi": 56,
            "name": "G#3",
            "ticks": 34800,
            "time": 33.92304899999999,
            "velocity": 0.9291338582677166
          },
          {
            "duration": 0.48846105000000506,
            "durationTicks": 508,
            "midi": 59,
            "name": "B3",
            "ticks": 34800,
            "time": 33.92304899999999,
            "velocity": 0.7716535433070866
          },
          {
            "duration": 0.48076875000000285,
            "durationTicks": 500,
            "midi": 61,
            "name": "C#4",
            "ticks": 34800,
            "time": 33.92304899999999,
            "velocity": 0.8976377952755905
          },
          {
            "duration": 0.49230720000000616,
            "durationTicks": 512,
            "midi": 64,
            "name": "E4",
            "ticks": 34800,
            "time": 33.92304899999999,
            "velocity": 0.8110236220472441
          },
          {
            "duration": 0.11153834999999646,
            "durationTicks": 116,
            "midi": 56,
            "name": "G#3",
            "ticks": 35520,
            "time": 34.615356,
            "velocity": 0.8267716535433071
          },
          {
            "duration": 0.08076915000000184,
            "durationTicks": 84,
            "midi": 58,
            "name": "A#3",
            "ticks": 35520,
            "time": 34.615356,
            "velocity": 0.7480314960629921
          },
          {
            "duration": 0.07692300000000074,
            "durationTicks": 80,
            "midi": 61,
            "name": "C#4",
            "ticks": 35520,
            "time": 34.615356,
            "velocity": 0.7795275590551181
          },
          {
            "duration": 0.09230759999999805,
            "durationTicks": 96,
            "midi": 64,
            "name": "E4",
            "ticks": 35520,
            "time": 34.615356,
            "velocity": 0.7637795275590551
          },
          {
            "duration": 0.46153800000000444,
            "durationTicks": 480,
            "midi": 56,
            "name": "G#3",
            "ticks": 36000,
            "time": 35.076893999999996,
            "velocity": 0.9291338582677166
          },
          {
            "duration": 0.46153800000000444,
            "durationTicks": 480,
            "midi": 58,
            "name": "A#3",
            "ticks": 36000,
            "time": 35.076893999999996,
            "velocity": 0.8110236220472441
          },
          {
            "duration": 0.32692275000000137,
            "durationTicks": 340,
            "midi": 61,
            "name": "C#4",
            "ticks": 36000,
            "time": 35.076893999999996,
            "velocity": 0.8503937007874016
          },
          {
            "duration": 0.30769200000000296,
            "durationTicks": 320,
            "midi": 64,
            "name": "E4",
            "ticks": 36000,
            "time": 35.076893999999996,
            "velocity": 0.8110236220472441
          }
        ]
      },
      {
        "channel": 0,
        "controlChanges": {},
        "pitchBends": [],
        "instrument": {
          "family": "piano",
          "number": 0,
          "name": "acoustic grand piano"
        },
        "name": "Instrument Name*mezclada",
        "notes": [],
        "endOfTrackTicks": 38400
      },
      {
        "channel": 0,
        "controlChanges": {
          "1": [
            {
              "number": 1,
              "ticks": 2406,
              "time": 2.50625,
              "value": 0
            }
          ],
          "7": [
            {
              "number": 7,
              "ticks": 612,
              "time": 0.6375,
              "value": 0.6377952755905512
            }
          ],
          "10": [
            {
              "number": 10,
              "ticks": 612,
              "time": 0.6375,
              "value": 0.5039370078740157
            }
          ],
          "11": [
            {
              "number": 11,
              "ticks": 612,
              "time": 0.6375,
              "value": 1
            }
          ],
          "91": [
            {
              "number": 91,
              "ticks": 616,
              "time": 0.6416666666666667,
              "value": 0.5511811023622047
            }
          ],
          "93": [
            {
              "number": 93,
              "ticks": 616,
              "time": 0.6416666666666667,
              "value": 0.15748031496062992
            }
          ]
        },
        "pitchBends": [
          {
            "ticks": 2414,
            "time": 2.5145833333333334,
            "value": 0
          }
        ],
        "instrument": {
          "family": "ensemble",
          "number": 49,
          "name": "string ensemble 2"
        },
        "name": "",
        "notes": []
      },
      {
        "channel": 0,
        "controlChanges": {},
        "pitchBends": [],
        "instrument": {
          "family": "piano",
          "number": 0,
          "name": "acoustic grand piano"
        },
        "name": "Instrument Name*mezclada",
        "notes": [],
        "endOfTrackTicks": 38400
      },
      {
        "channel": 0,
        "controlChanges": {
          "1": [
            {
              "number": 1,
              "ticks": 2406,
              "time": 2.50625,
              "value": 0
            }
          ],
          "7": [
            {
              "number": 7,
              "ticks": 632,
              "time": 0.6583333333333333,
              "value": 0.7401574803149606
            }
          ],
          "10": [
            {
              "number": 10,
              "ticks": 632,
              "time": 0.6583333333333333,
              "value": 0.6614173228346457
            }
          ],
          "11": [
            {
              "number": 11,
              "ticks": 632,
              "time": 0.6583333333333333,
              "value": 1
            }
          ],
          "91": [
            {
              "number": 91,
              "ticks": 636,
              "time": 0.6625,
              "value": 0.4330708661417323
            }
          ],
          "93": [
            {
              "number": 93,
              "ticks": 636,
              "time": 0.6625,
              "value": 0.03937007874015748
            }
          ]
        },
        "pitchBends": [
          {
            "ticks": 2414,
            "time": 2.5145833333333334,
            "value": 0
          }
        ],
        "instrument": {
          "family": "brass",
          "number": 56,
          "name": "trumpet"
        },
        "name": "",
        "notes": []
      },
      {
        "channel": 0,
        "controlChanges": {},
        "pitchBends": [],
        "instrument": {
          "family": "piano",
          "number": 0,
          "name": "acoustic grand piano"
        },
        "name": "Instrument Name*mezclada",
        "notes": [],
        "endOfTrackTicks": 38400
      },
      {
        "channel": 0,
        "controlChanges": {
          "1": [
            {
              "number": 1,
              "ticks": 2406,
              "time": 2.50625,
              "value": 0
            }
          ],
          "7": [
            {
              "number": 7,
              "ticks": 652,
              "time": 0.6791666666666667,
              "value": 0.7322834645669292
            }
          ],
          "10": [
            {
              "number": 10,
              "ticks": 652,
              "time": 0.6791666666666667,
              "value": 0.3464566929133858
            }
          ],
          "11": [
            {
              "number": 11,
              "ticks": 652,
              "time": 0.6791666666666667,
              "value": 1
            }
          ],
          "91": [
            {
              "number": 91,
              "ticks": 656,
              "time": 0.6833333333333333,
              "value": 0.4330708661417323
            }
          ],
          "93": [
            {
              "number": 93,
              "ticks": 656,
              "time": 0.6833333333333333,
              "value": 0.03937007874015748
            }
          ]
        },
        "pitchBends": [
          {
            "ticks": 2414,
            "time": 2.5145833333333334,
            "value": 0
          }
        ],
        "instrument": {
          "family": "reed",
          "number": 65,
          "name": "alto sax"
        },
        "name": "",
        "notes": []
      },
      {
        "channel": 9,
        "controlChanges": {
          "1": [
            {
              "number": 1,
              "ticks": 2406,
              "time": 2.50625,
              "value": 0
            }
          ],
          "7": [
            {
              "number": 7,
              "ticks": 672,
              "time": 0.7,
              "value": 0.7874015748031497
            }
          ],
          "11": [
            {
              "number": 11,
              "ticks": 672,
              "time": 0.7,
              "value": 1
            }
          ],
          "91": [
            {
              "number": 91,
              "ticks": 676,
              "time": 0.7041666666666667,
              "value": 0.36220472440944884
            }
          ],
          "93": [
            {
              "number": 93,
              "ticks": 676,
              "time": 0.7041666666666667,
              "value": 0
            }
          ]
        },
        "pitchBends": [
          {
            "ticks": 2414,
            "time": 2.5145833333333334,
            "value": 0
          }
        ],
        "instrument": {
          "family": "drums",
          "number": 0,
          "name": "standard kit"
        },
        "name": "Instrument Name*mezclada",
        "notes": [
          {
            "duration": 0.5,
            "durationTicks": 480,
            "midi": 37,
            "name": "C#2",
            "ticks": 3840,
            "time": 4,
            "velocity": 0.6614173228346457
          },
          {
            "duration": 0.5,
            "durationTicks": 480,
            "midi": 37,
            "name": "C#2",
            "ticks": 4320,
            "time": 4.5,
            "velocity": 0.7559055118110236
          },
          {
            "duration": 0.5,
            "durationTicks": 480,
            "midi": 37,
            "name": "C#2",
            "ticks": 4800,
            "time": 5,
            "velocity": 0.7086614173228346
          },
          {
            "duration": 0.5,
            "durationTicks": 480,
            "midi": 37,
            "name": "C#2",
            "ticks": 5280,
            "time": 5.5,
            "velocity": 0.7795275590551181
          },
          {
            "duration": 0.026923049999999726,
            "durationTicks": 28,
            "midi": 36,
            "name": "C2",
            "ticks": 5760,
            "time": 6,
            "velocity": 0.8188976377952756
          },
          {
            "duration": 0.026923049999999726,
            "durationTicks": 28,
            "midi": 37,
            "name": "C#2",
            "ticks": 5760,
            "time": 6,
            "velocity": 0.9921259842519685
          },
          {
            "duration": 0.026923049999999726,
            "durationTicks": 28,
            "midi": 51,
            "name": "D#3",
            "ticks": 5760,
            "time": 6,
            "velocity": 0.8818897637795275
          },
          {
            "duration": 0.026923050000000615,
            "durationTicks": 28,
            "midi": 42,
            "name": "F#2",
            "ticks": 6000,
            "time": 6.230769,
            "velocity": 0.25984251968503935
          },
          {
            "duration": 0.026923049999999726,
            "durationTicks": 28,
            "midi": 37,
            "name": "C#2",
            "ticks": 6240,
            "time": 6.461538,
            "velocity": 1
          },
          {
            "duration": 0.026923049999999726,
            "durationTicks": 28,
            "midi": 42,
            "name": "F#2",
            "ticks": 6240,
            "time": 6.461538,
            "velocity": 0.7795275590551181
          },
          {
            "duration": 0.026923050000000615,
            "durationTicks": 28,
            "midi": 36,
            "name": "C2",
            "ticks": 6480,
            "time": 6.692307,
            "velocity": 0.4330708661417323
          },
          {
            "duration": 0.026923050000000615,
            "durationTicks": 28,
            "midi": 42,
            "name": "F#2",
            "ticks": 6480,
            "time": 6.692307,
            "velocity": 0.3228346456692913
          },
          {
            "duration": 0.026923049999999726,
            "durationTicks": 28,
            "midi": 36,
            "name": "C2",
            "ticks": 6720,
            "time": 6.923076,
            "velocity": 0.7795275590551181
          },
          {
            "duration": 0.026923049999999726,
            "durationTicks": 28,
            "midi": 42,
            "name": "F#2",
            "ticks": 6720,
            "time": 6.923076,
            "velocity": 0.5826771653543307
          },
          {
            "duration": 0.026923049999999726,
            "durationTicks": 28,
            "midi": 37,
            "name": "C#2",
            "ticks": 6960,
            "time": 7.153845,
            "velocity": 0.9448818897637795
          },
          {
            "duration": 0.026923049999999726,
            "durationTicks": 28,
            "midi": 42,
            "name": "F#2",
            "ticks": 6960,
            "time": 7.153845,
            "velocity": 0.30708661417322836
          },
          {
            "duration": 0.026923049999999726,
            "durationTicks": 28,
            "midi": 42,
            "name": "F#2",
            "ticks": 7200,
            "time": 7.384614,
            "velocity": 0.8110236220472441
          },
          {
            "duration": 0.026923050000000615,
            "durationTicks": 28,
            "midi": 36,
            "name": "C2",
            "ticks": 7440,
            "time": 7.615383,
            "velocity": 0.49606299212598426
          },
          {
            "duration": 0.026923050000000615,
            "durationTicks": 28,
            "midi": 37,
            "name": "C#2",
            "ticks": 7440,
            "time": 7.615383,
            "velocity": 0.8818897637795275
          },
          {
            "duration": 0.026923050000000615,
            "durationTicks": 28,
            "midi": 42,
            "name": "F#2",
            "ticks": 7440,
            "time": 7.615383,
            "velocity": 0.4409448818897638
          },
          {
            "duration": 0.026923049999999726,
            "durationTicks": 28,
            "midi": 36,
            "name": "C2",
            "ticks": 7680,
            "time": 7.846152,
            "velocity": 0.8346456692913385
          },
          {
            "duration": 0.026923049999999726,
            "durationTicks": 28,
            "midi": 42,
            "name": "F#2",
            "ticks": 7680,
            "time": 7.846152,
            "velocity": 0.6299212598425197
          },
          {
            "duration": 0.026923050000000615,
            "durationTicks": 28,
            "midi": 37,
            "name": "C#2",
            "ticks": 7920,
            "time": 8.076920999999999,
            "velocity": 0.8976377952755905
          },
          {
            "duration": 0.026923050000000615,
            "durationTicks": 28,
            "midi": 42,
            "name": "F#2",
            "ticks": 7920,
            "time": 8.076920999999999,
            "velocity": 0.5275590551181102
          },
          {
            "duration": 0.026923050000000615,
            "durationTicks": 28,
            "midi": 42,
            "name": "F#2",
            "ticks": 8160,
            "time": 8.30769,
            "velocity": 0.6614173228346457
          },
          {
            "duration": 0.026923050000000615,
            "durationTicks": 28,
            "midi": 36,
            "name": "C2",
            "ticks": 8400,
            "time": 8.538459,
            "velocity": 0.3858267716535433
          },
          {
            "duration": 0.026923050000000615,
            "durationTicks": 28,
            "midi": 37,
            "name": "C#2",
            "ticks": 8400,
            "time": 8.538459,
            "velocity": 0.47244094488188976
          },
          {
            "duration": 0.026923050000000615,
            "durationTicks": 28,
            "midi": 42,
            "name": "F#2",
            "ticks": 8400,
            "time": 8.538459,
            "velocity": 0.3700787401574803
          },
          {
            "duration": 0.026923049999998838,
            "durationTicks": 28,
            "midi": 36,
            "name": "C2",
            "ticks": 8640,
            "time": 8.769228,
            "velocity": 0.8976377952755905
          },
          {
            "duration": 0.026923049999998838,
            "durationTicks": 28,
            "midi": 37,
            "name": "C#2",
            "ticks": 8640,
            "time": 8.769228,
            "velocity": 0.8661417322834646
          },
          {
            "duration": 0.026923049999998838,
            "durationTicks": 28,
            "midi": 42,
            "name": "F#2",
            "ticks": 8640,
            "time": 8.769228,
            "velocity": 0.6614173228346457
          },
          {
            "duration": 0.026923049999998838,
            "durationTicks": 28,
            "midi": 42,
            "name": "F#2",
            "ticks": 8880,
            "time": 8.999997,
            "velocity": 0.3700787401574803
          },
          {
            "duration": 0.026923050000000615,
            "durationTicks": 28,
            "midi": 37,
            "name": "C#2",
            "ticks": 9120,
            "time": 9.230766,
            "velocity": 0.8976377952755905
          },
          {
            "duration": 0.026923050000000615,
            "durationTicks": 28,
            "midi": 42,
            "name": "F#2",
            "ticks": 9120,
            "time": 9.230766,
            "velocity": 0.7559055118110236
          },
          {
            "duration": 0.026923050000000615,
            "durationTicks": 28,
            "midi": 36,
            "name": "C2",
            "ticks": 9360,
            "time": 9.461535,
            "velocity": 0.23622047244094488
          },
          {
            "duration": 0.026923050000000615,
            "durationTicks": 28,
            "midi": 42,
            "name": "F#2",
            "ticks": 9360,
            "time": 9.461535,
            "velocity": 0.6456692913385826
          },
          {
            "duration": 0.026923050000000615,
            "durationTicks": 28,
            "midi": 36,
            "name": "C2",
            "ticks": 9600,
            "time": 9.692304,
            "velocity": 0.8346456692913385
          },
          {
            "duration": 0.026923050000000615,
            "durationTicks": 28,
            "midi": 37,
            "name": "C#2",
            "ticks": 9600,
            "time": 9.692304,
            "velocity": 0.8818897637795275
          },
          {
            "duration": 0.026923050000000615,
            "durationTicks": 28,
            "midi": 46,
            "name": "A#2",
            "ticks": 9600,
            "time": 9.692304,
            "velocity": 0.6456692913385826
          },
          {
            "duration": 0.026923050000000615,
            "durationTicks": 28,
            "midi": 36,
            "name": "C2",
            "ticks": 10080,
            "time": 10.153842,
            "velocity": 0.2047244094488189
          },
          {
            "duration": 0.026923050000000615,
            "durationTicks": 28,
            "midi": 42,
            "name": "F#2",
            "ticks": 10080,
            "time": 10.153842,
            "velocity": 0.6456692913385826
          },
          {
            "duration": 0.026923050000000615,
            "durationTicks": 28,
            "midi": 36,
            "name": "C2",
            "ticks": 10320,
            "time": 10.384611,
            "velocity": 0.8740157480314961
          },
          {
            "duration": 0.026923050000000615,
            "durationTicks": 28,
            "midi": 37,
            "name": "C#2",
            "ticks": 10320,
            "time": 10.384611,
            "velocity": 0.9448818897637795
          },
          {
            "duration": 0.026923050000000615,
            "durationTicks": 28,
            "midi": 46,
            "name": "A#2",
            "ticks": 10320,
            "time": 10.384611,
            "velocity": 0.5196850393700787
          },
          {
            "duration": 0.026923049999998838,
            "durationTicks": 28,
            "midi": 36,
            "name": "C2",
            "ticks": 10800,
            "time": 10.846149,
            "velocity": 0.2440944881889764
          },
          {
            "duration": 0.026923049999998838,
            "durationTicks": 28,
            "midi": 42,
            "name": "F#2",
            "ticks": 10800,
            "time": 10.846149,
            "velocity": 0.6141732283464567
          },
          {
            "duration": 0.026923050000000615,
            "durationTicks": 28,
            "midi": 36,
            "name": "C2",
            "ticks": 11040,
            "time": 11.076918,
            "velocity": 0.8582677165354331
          },
          {
            "duration": 0.026923050000000615,
            "durationTicks": 28,
            "midi": 37,
            "name": "C#2",
            "ticks": 11040,
            "time": 11.076918,
            "velocity": 0.9212598425196851
          },
          {
            "duration": 0.026923050000000615,
            "durationTicks": 28,
            "midi": 46,
            "name": "A#2",
            "ticks": 11040,
            "time": 11.076918,
            "velocity": 0.7086614173228346
          },
          {
            "duration": 0.026923050000000615,
            "durationTicks": 28,
            "midi": 36,
            "name": "C2",
            "ticks": 11760,
            "time": 11.769224999999999,
            "velocity": 0.3700787401574803
          },
          {
            "duration": 0.026923050000000615,
            "durationTicks": 28,
            "midi": 37,
            "name": "C#2",
            "ticks": 11760,
            "time": 11.769224999999999,
            "velocity": 0.8976377952755905
          },
          {
            "duration": 0.026923050000000615,
            "durationTicks": 28,
            "midi": 42,
            "name": "F#2",
            "ticks": 11760,
            "time": 11.769224999999999,
            "velocity": 0.5984251968503937
          },
          {
            "duration": 0.026923050000000615,
            "durationTicks": 28,
            "midi": 36,
            "name": "C2",
            "ticks": 12240,
            "time": 12.230763,
            "velocity": 0.5984251968503937
          },
          {
            "duration": 0.026923050000000615,
            "durationTicks": 28,
            "midi": 42,
            "name": "F#2",
            "ticks": 12240,
            "time": 12.230763,
            "velocity": 0.6850393700787402
          },
          {
            "duration": 0.026923050000000615,
            "durationTicks": 28,
            "midi": 36,
            "name": "C2",
            "ticks": 12480,
            "time": 12.461531999999998,
            "velocity": 0.5196850393700787
          },
          {
            "duration": 0.026923050000000615,
            "durationTicks": 28,
            "midi": 37,
            "name": "C#2",
            "ticks": 12480,
            "time": 12.461531999999998,
            "velocity": 0.9448818897637795
          },
          {
            "duration": 0.026923050000000615,
            "durationTicks": 28,
            "midi": 46,
            "name": "A#2",
            "ticks": 12480,
            "time": 12.461531999999998,
            "velocity": 0.5669291338582677
          },
          {
            "duration": 0.026923049999998838,
            "durationTicks": 28,
            "midi": 42,
            "name": "F#2",
            "ticks": 12720,
            "time": 12.692301,
            "velocity": 0.33858267716535434
          },
          {
            "duration": 0.026923050000000615,
            "durationTicks": 28,
            "midi": 42,
            "name": "F#2",
            "ticks": 12840,
            "time": 12.807685499999998,
            "velocity": 0.5511811023622047
          },
          {
            "duration": 0.026923050000000615,
            "durationTicks": 28,
            "midi": 36,
            "name": "C2",
            "ticks": 12960,
            "time": 12.92307,
            "velocity": 0.7401574803149606
          },
          {
            "duration": 0.026923050000000615,
            "durationTicks": 28,
            "midi": 37,
            "name": "C#2",
            "ticks": 12960,
            "time": 12.92307,
            "velocity": 0.8188976377952756
          },
          {
            "duration": 0.026923050000000615,
            "durationTicks": 28,
            "midi": 42,
            "name": "F#2",
            "ticks": 12960,
            "time": 12.92307,
            "velocity": 0.7086614173228346
          },
          {
            "duration": 0.026923049999998838,
            "durationTicks": 28,
            "midi": 46,
            "name": "A#2",
            "ticks": 13200,
            "time": 13.153839,
            "velocity": 0.41732283464566927
          },
          {
            "duration": 0.026923049999998838,
            "durationTicks": 28,
            "midi": 36,
            "name": "C2",
            "ticks": 13440,
            "time": 13.384608,
            "velocity": 0.7637795275590551
          },
          {
            "duration": 0.026923049999998838,
            "durationTicks": 28,
            "midi": 37,
            "name": "C#2",
            "ticks": 13440,
            "time": 13.384608,
            "velocity": 0.9212598425196851
          },
          {
            "duration": 0.026923049999998838,
            "durationTicks": 28,
            "midi": 42,
            "name": "F#2",
            "ticks": 13440,
            "time": 13.384608,
            "velocity": 0.7795275590551181
          },
          {
            "duration": 0.026923050000000615,
            "durationTicks": 28,
            "midi": 42,
            "name": "F#2",
            "ticks": 13680,
            "time": 13.615376999999999,
            "velocity": 0.2755905511811024
          },
          {
            "duration": 0.026923049999998838,
            "durationTicks": 28,
            "midi": 37,
            "name": "C#2",
            "ticks": 13920,
            "time": 13.846146,
            "velocity": 0.9921259842519685
          },
          {
            "duration": 0.026923049999998838,
            "durationTicks": 28,
            "midi": 42,
            "name": "F#2",
            "ticks": 13920,
            "time": 13.846146,
            "velocity": 0.6299212598425197
          },
          {
            "duration": 0.026923049999998838,
            "durationTicks": 28,
            "midi": 36,
            "name": "C2",
            "ticks": 14160,
            "time": 14.076915,
            "velocity": 0.41732283464566927
          },
          {
            "duration": 0.026923049999998838,
            "durationTicks": 28,
            "midi": 42,
            "name": "F#2",
            "ticks": 14160,
            "time": 14.076915,
            "velocity": 0.3464566929133858
          },
          {
            "duration": 0.026923050000000615,
            "durationTicks": 28,
            "midi": 36,
            "name": "C2",
            "ticks": 14400,
            "time": 14.307683999999998,
            "velocity": 0.7795275590551181
          },
          {
            "duration": 0.026923050000000615,
            "durationTicks": 28,
            "midi": 42,
            "name": "F#2",
            "ticks": 14400,
            "time": 14.307683999999998,
            "velocity": 0.6141732283464567
          },
          {
            "duration": 0.026923050000000615,
            "durationTicks": 28,
            "midi": 37,
            "name": "C#2",
            "ticks": 14640,
            "time": 14.538452999999999,
            "velocity": 0.9212598425196851
          },
          {
            "duration": 0.026923050000000615,
            "durationTicks": 28,
            "midi": 42,
            "name": "F#2",
            "ticks": 14640,
            "time": 14.538452999999999,
            "velocity": 0.3937007874015748
          },
          {
            "duration": 0.026923050000000615,
            "durationTicks": 28,
            "midi": 42,
            "name": "F#2",
            "ticks": 14880,
            "time": 14.769222,
            "velocity": 0.7559055118110236
          },
          {
            "duration": 0.026923049999998838,
            "durationTicks": 28,
            "midi": 36,
            "name": "C2",
            "ticks": 15120,
            "time": 14.999991,
            "velocity": 0.5039370078740157
          },
          {
            "duration": 0.026923049999998838,
            "durationTicks": 28,
            "midi": 37,
            "name": "C#2",
            "ticks": 15120,
            "time": 14.999991,
            "velocity": 0.8818897637795275
          },
          {
            "duration": 0.026923049999998838,
            "durationTicks": 28,
            "midi": 42,
            "name": "F#2",
            "ticks": 15120,
            "time": 14.999991,
            "velocity": 0.41732283464566927
          },
          {
            "duration": 0.026923050000000615,
            "durationTicks": 28,
            "midi": 36,
            "name": "C2",
            "ticks": 15360,
            "time": 15.230759999999998,
            "velocity": 0.8188976377952756
          },
          {
            "duration": 0.026923050000000615,
            "durationTicks": 28,
            "midi": 42,
            "name": "F#2",
            "ticks": 15360,
            "time": 15.230759999999998,
            "velocity": 0.7322834645669292
          },
          {
            "duration": 0.026923050000000615,
            "durationTicks": 28,
            "midi": 37,
            "name": "C#2",
            "ticks": 15600,
            "time": 15.461528999999999,
            "velocity": 0.7795275590551181
          },
          {
            "duration": 0.026923050000000615,
            "durationTicks": 28,
            "midi": 42,
            "name": "F#2",
            "ticks": 15600,
            "time": 15.461528999999999,
            "velocity": 0.44881889763779526
          },
          {
            "duration": 0.026923050000000615,
            "durationTicks": 28,
            "midi": 42,
            "name": "F#2",
            "ticks": 15840,
            "time": 15.692298,
            "velocity": 0.7322834645669292
          },
          {
            "duration": 0.026923049999998838,
            "durationTicks": 28,
            "midi": 36,
            "name": "C2",
            "ticks": 16080,
            "time": 15.923067,
            "velocity": 0.36220472440944884
          },
          {
            "duration": 0.026923049999998838,
            "durationTicks": 28,
            "midi": 37,
            "name": "C#2",
            "ticks": 16080,
            "time": 15.923067,
            "velocity": 0.8031496062992126
          },
          {
            "duration": 0.026923049999998838,
            "durationTicks": 28,
            "midi": 42,
            "name": "F#2",
            "ticks": 16080,
            "time": 15.923067,
            "velocity": 0.49606299212598426
          },
          {
            "duration": 0.026923050000000615,
            "durationTicks": 28,
            "midi": 36,
            "name": "C2",
            "ticks": 16320,
            "time": 16.153836,
            "velocity": 0.8582677165354331
          },
          {
            "duration": 0.026923050000000615,
            "durationTicks": 28,
            "midi": 37,
            "name": "C#2",
            "ticks": 16320,
            "time": 16.153836,
            "velocity": 0.8188976377952756
          },
          {
            "duration": 0.026923050000000615,
            "durationTicks": 28,
            "midi": 42,
            "name": "F#2",
            "ticks": 16320,
            "time": 16.153836,
            "velocity": 0.6850393700787402
          },
          {
            "duration": 0.026923050000000615,
            "durationTicks": 28,
            "midi": 42,
            "name": "F#2",
            "ticks": 16560,
            "time": 16.384605,
            "velocity": 0.5826771653543307
          },
          {
            "duration": 0.026923049999997062,
            "durationTicks": 28,
            "midi": 37,
            "name": "C#2",
            "ticks": 16800,
            "time": 16.615374,
            "velocity": 0.9448818897637795
          },
          {
            "duration": 0.026923049999997062,
            "durationTicks": 28,
            "midi": 42,
            "name": "F#2",
            "ticks": 16800,
            "time": 16.615374,
            "velocity": 0.7322834645669292
          },
          {
            "duration": 0.026923050000000615,
            "durationTicks": 28,
            "midi": 36,
            "name": "C2",
            "ticks": 17040,
            "time": 16.846142999999998,
            "velocity": 0.3858267716535433
          },
          {
            "duration": 0.026923050000000615,
            "durationTicks": 28,
            "midi": 42,
            "name": "F#2",
            "ticks": 17040,
            "time": 16.846142999999998,
            "velocity": 0.5826771653543307
          },
          {
            "duration": 0.026923050000000615,
            "durationTicks": 28,
            "midi": 36,
            "name": "C2",
            "ticks": 17280,
            "time": 17.076912,
            "velocity": 0.8346456692913385
          },
          {
            "duration": 0.026923050000000615,
            "durationTicks": 28,
            "midi": 37,
            "name": "C#2",
            "ticks": 17280,
            "time": 17.076912,
            "velocity": 0.8818897637795275
          },
          {
            "duration": 0.026923050000000615,
            "durationTicks": 28,
            "midi": 46,
            "name": "A#2",
            "ticks": 17280,
            "time": 17.076912,
            "velocity": 0.5826771653543307
          },
          {
            "duration": 0.026923050000000615,
            "durationTicks": 28,
            "midi": 36,
            "name": "C2",
            "ticks": 17760,
            "time": 17.538449999999997,
            "velocity": 0.25984251968503935
          },
          {
            "duration": 0.026923050000000615,
            "durationTicks": 28,
            "midi": 51,
            "name": "D#3",
            "ticks": 17760,
            "time": 17.538449999999997,
            "velocity": 0.7322834645669292
          },
          {
            "duration": 0.026923050000000615,
            "durationTicks": 28,
            "midi": 36,
            "name": "C2",
            "ticks": 18000,
            "time": 17.769219,
            "velocity": 0.8346456692913385
          },
          {
            "duration": 0.026923050000000615,
            "durationTicks": 28,
            "midi": 37,
            "name": "C#2",
            "ticks": 18000,
            "time": 17.769219,
            "velocity": 0.9212598425196851
          },
          {
            "duration": 0.026923050000000615,
            "durationTicks": 28,
            "midi": 59,
            "name": "B3",
            "ticks": 18000,
            "time": 17.769219,
            "velocity": 0.8188976377952756
          },
          {
            "duration": 0.026923050000000615,
            "durationTicks": 28,
            "midi": 36,
            "name": "C2",
            "ticks": 18480,
            "time": 18.230756999999997,
            "velocity": 0.18110236220472442
          },
          {
            "duration": 0.026923050000000615,
            "durationTicks": 28,
            "midi": 46,
            "name": "A#2",
            "ticks": 18480,
            "time": 18.230756999999997,
            "velocity": 0.49606299212598426
          },
          {
            "duration": 0.026923050000000615,
            "durationTicks": 28,
            "midi": 36,
            "name": "C2",
            "ticks": 18720,
            "time": 18.461526,
            "velocity": 0.8346456692913385
          },
          {
            "duration": 0.026923050000000615,
            "durationTicks": 28,
            "midi": 37,
            "name": "C#2",
            "ticks": 18720,
            "time": 18.461526,
            "velocity": 0.9448818897637795
          },
          {
            "duration": 0.026923050000000615,
            "durationTicks": 28,
            "midi": 51,
            "name": "D#3",
            "ticks": 18720,
            "time": 18.461526,
            "velocity": 0.7795275590551181
          },
          {
            "duration": 0.026923050000000615,
            "durationTicks": 28,
            "midi": 51,
            "name": "D#3",
            "ticks": 19200,
            "time": 18.923063999999997,
            "velocity": 0.7322834645669292
          },
          {
            "duration": 0.026923050000000615,
            "durationTicks": 28,
            "midi": 36,
            "name": "C2",
            "ticks": 19440,
            "time": 19.153833,
            "velocity": 0.3543307086614173
          },
          {
            "duration": 0.026923050000000615,
            "durationTicks": 28,
            "midi": 37,
            "name": "C#2",
            "ticks": 19440,
            "time": 19.153833,
            "velocity": 0.8661417322834646
          },
          {
            "duration": 0.026923050000000615,
            "durationTicks": 28,
            "midi": 59,
            "name": "B3",
            "ticks": 19440,
            "time": 19.153833,
            "velocity": 0.6535433070866141
          },
          {
            "duration": 0.026923050000000615,
            "durationTicks": 28,
            "midi": 36,
            "name": "C2",
            "ticks": 19920,
            "time": 19.615370999999996,
            "velocity": 0.33858267716535434
          },
          {
            "duration": 0.026923050000000615,
            "durationTicks": 28,
            "midi": 53,
            "name": "F3",
            "ticks": 19920,
            "time": 19.615370999999996,
            "velocity": 0.29133858267716534
          },
          {
            "duration": 0.026923050000000615,
            "durationTicks": 28,
            "midi": 36,
            "name": "C2",
            "ticks": 20160,
            "time": 19.84614,
            "velocity": 0.8188976377952756
          },
          {
            "duration": 0.026923050000000615,
            "durationTicks": 28,
            "midi": 37,
            "name": "C#2",
            "ticks": 20160,
            "time": 19.84614,
            "velocity": 0.8818897637795275
          },
          {
            "duration": 0.026923050000000615,
            "durationTicks": 28,
            "midi": 53,
            "name": "F3",
            "ticks": 20160,
            "time": 19.84614,
            "velocity": 0.8582677165354331
          },
          {
            "duration": 0.026923049999997062,
            "durationTicks": 28,
            "midi": 36,
            "name": "C2",
            "ticks": 20640,
            "time": 20.307678,
            "velocity": 0.8031496062992126
          },
          {
            "duration": 0.026923049999997062,
            "durationTicks": 28,
            "midi": 37,
            "name": "C#2",
            "ticks": 20640,
            "time": 20.307678,
            "velocity": 0.8661417322834646
          },
          {
            "duration": 0.026923049999997062,
            "durationTicks": 28,
            "midi": 46,
            "name": "A#2",
            "ticks": 20640,
            "time": 20.307678,
            "velocity": 0.6850393700787402
          },
          {
            "duration": 0.026923049999997062,
            "durationTicks": 28,
            "midi": 36,
            "name": "C2",
            "ticks": 21120,
            "time": 20.769216,
            "velocity": 0.8346456692913385
          },
          {
            "duration": 0.026923049999997062,
            "durationTicks": 28,
            "midi": 37,
            "name": "C#2",
            "ticks": 21120,
            "time": 20.769216,
            "velocity": 0.9448818897637795
          },
          {
            "duration": 0.026923049999997062,
            "durationTicks": 28,
            "midi": 42,
            "name": "F#2",
            "ticks": 21120,
            "time": 20.769216,
            "velocity": 0.7322834645669292
          },
          {
            "duration": 0.026923050000000615,
            "durationTicks": 28,
            "midi": 37,
            "name": "C#2",
            "ticks": 21600,
            "time": 21.230753999999997,
            "velocity": 1
          },
          {
            "duration": 0.026923050000000615,
            "durationTicks": 28,
            "midi": 42,
            "name": "F#2",
            "ticks": 21600,
            "time": 21.230753999999997,
            "velocity": 0.3700787401574803
          },
          {
            "duration": 0.026923049999997062,
            "durationTicks": 28,
            "midi": 36,
            "name": "C2",
            "ticks": 21840,
            "time": 21.461523,
            "velocity": 0.3779527559055118
          },
          {
            "duration": 0.026923049999997062,
            "durationTicks": 28,
            "midi": 42,
            "name": "F#2",
            "ticks": 21840,
            "time": 21.461523,
            "velocity": 0.4251968503937008
          },
          {
            "duration": 0.026923049999997062,
            "durationTicks": 28,
            "midi": 36,
            "name": "C2",
            "ticks": 22080,
            "time": 21.692292,
            "velocity": 0.8031496062992126
          },
          {
            "duration": 0.026923049999997062,
            "durationTicks": 28,
            "midi": 42,
            "name": "F#2",
            "ticks": 22080,
            "time": 21.692292,
            "velocity": 0.7322834645669292
          },
          {
            "duration": 0.026923050000000615,
            "durationTicks": 28,
            "midi": 37,
            "name": "C#2",
            "ticks": 22320,
            "time": 21.923060999999997,
            "velocity": 0.8976377952755905
          },
          {
            "duration": 0.026923050000000615,
            "durationTicks": 28,
            "midi": 42,
            "name": "F#2",
            "ticks": 22320,
            "time": 21.923060999999997,
            "velocity": 0.33858267716535434
          },
          {
            "duration": 0.026923049999997062,
            "durationTicks": 28,
            "midi": 42,
            "name": "F#2",
            "ticks": 22560,
            "time": 22.15383,
            "velocity": 0.7795275590551181
          },
          {
            "duration": 0.026923049999997062,
            "durationTicks": 28,
            "midi": 36,
            "name": "C2",
            "ticks": 22800,
            "time": 22.384598999999998,
            "velocity": 0.4015748031496063
          },
          {
            "duration": 0.026923049999997062,
            "durationTicks": 28,
            "midi": 37,
            "name": "C#2",
            "ticks": 22800,
            "time": 22.384598999999998,
            "velocity": 0.8661417322834646
          },
          {
            "duration": 0.026923049999997062,
            "durationTicks": 28,
            "midi": 42,
            "name": "F#2",
            "ticks": 22800,
            "time": 22.384598999999998,
            "velocity": 0.41732283464566927
          },
          {
            "duration": 0.026923050000000615,
            "durationTicks": 28,
            "midi": 36,
            "name": "C2",
            "ticks": 23040,
            "time": 22.615367999999997,
            "velocity": 0.7795275590551181
          },
          {
            "duration": 0.026923050000000615,
            "durationTicks": 28,
            "midi": 42,
            "name": "F#2",
            "ticks": 23040,
            "time": 22.615367999999997,
            "velocity": 0.7795275590551181
          },
          {
            "duration": 0.026923049999997062,
            "durationTicks": 28,
            "midi": 37,
            "name": "C#2",
            "ticks": 23280,
            "time": 22.846137,
            "velocity": 0.8503937007874016
          },
          {
            "duration": 0.026923049999997062,
            "durationTicks": 28,
            "midi": 42,
            "name": "F#2",
            "ticks": 23280,
            "time": 22.846137,
            "velocity": 0.4330708661417323
          },
          {
            "duration": 0.026923050000000615,
            "durationTicks": 28,
            "midi": 42,
            "name": "F#2",
            "ticks": 23520,
            "time": 23.076905999999997,
            "velocity": 0.6850393700787402
          },
          {
            "duration": 0.026923049999997062,
            "durationTicks": 28,
            "midi": 36,
            "name": "C2",
            "ticks": 23760,
            "time": 23.307675,
            "velocity": 0.33070866141732286
          },
          {
            "duration": 0.026923049999997062,
            "durationTicks": 28,
            "midi": 37,
            "name": "C#2",
            "ticks": 23760,
            "time": 23.307675,
            "velocity": 0.6535433070866141
          },
          {
            "duration": 0.026923049999997062,
            "durationTicks": 28,
            "midi": 42,
            "name": "F#2",
            "ticks": 23760,
            "time": 23.307675,
            "velocity": 0.5511811023622047
          },
          {
            "duration": 0.026923049999997062,
            "durationTicks": 28,
            "midi": 36,
            "name": "C2",
            "ticks": 24000,
            "time": 23.538444,
            "velocity": 0.7637795275590551
          },
          {
            "duration": 0.026923049999997062,
            "durationTicks": 28,
            "midi": 42,
            "name": "F#2",
            "ticks": 24000,
            "time": 23.538444,
            "velocity": 0.5984251968503937
          },
          {
            "duration": 0.026923050000000615,
            "durationTicks": 28,
            "midi": 42,
            "name": "F#2",
            "ticks": 24240,
            "time": 23.769212999999997,
            "velocity": 0.4409448818897638
          },
          {
            "duration": 0.026923049999997062,
            "durationTicks": 28,
            "midi": 37,
            "name": "C#2",
            "ticks": 24480,
            "time": 23.999982,
            "velocity": 0.8503937007874016
          },
          {
            "duration": 0.026923049999997062,
            "durationTicks": 28,
            "midi": 42,
            "name": "F#2",
            "ticks": 24480,
            "time": 23.999982,
            "velocity": 0.7086614173228346
          },
          {
            "duration": 0.026923049999997062,
            "durationTicks": 28,
            "midi": 36,
            "name": "C2",
            "ticks": 24720,
            "time": 24.230750999999998,
            "velocity": 0.4409448818897638
          },
          {
            "duration": 0.026923049999997062,
            "durationTicks": 28,
            "midi": 42,
            "name": "F#2",
            "ticks": 24720,
            "time": 24.230750999999998,
            "velocity": 0.4566929133858268
          },
          {
            "duration": 0.026923050000000615,
            "durationTicks": 28,
            "midi": 36,
            "name": "C2",
            "ticks": 24960,
            "time": 24.461519999999997,
            "velocity": 0.7637795275590551
          },
          {
            "duration": 0.026923050000000615,
            "durationTicks": 28,
            "midi": 37,
            "name": "C#2",
            "ticks": 24960,
            "time": 24.461519999999997,
            "velocity": 0.7795275590551181
          },
          {
            "duration": 0.026923050000000615,
            "durationTicks": 28,
            "midi": 42,
            "name": "F#2",
            "ticks": 24960,
            "time": 24.461519999999997,
            "velocity": 0.7559055118110236
          },
          {
            "duration": 0.026923049999997062,
            "durationTicks": 28,
            "midi": 42,
            "name": "F#2",
            "ticks": 25200,
            "time": 24.692289,
            "velocity": 0.3543307086614173
          },
          {
            "duration": 0.026923050000000615,
            "durationTicks": 28,
            "midi": 42,
            "name": "F#2",
            "ticks": 25440,
            "time": 24.923057999999997,
            "velocity": 0.7322834645669292
          },
          {
            "duration": 0.026923050000000615,
            "durationTicks": 28,
            "midi": 36,
            "name": "C2",
            "ticks": 25680,
            "time": 25.153826999999996,
            "velocity": 0.33858267716535434
          },
          {
            "duration": 0.026923050000000615,
            "durationTicks": 28,
            "midi": 37,
            "name": "C#2",
            "ticks": 25680,
            "time": 25.153826999999996,
            "velocity": 0.8661417322834646
          },
          {
            "duration": 0.026923050000000615,
            "durationTicks": 28,
            "midi": 42,
            "name": "F#2",
            "ticks": 25680,
            "time": 25.153826999999996,
            "velocity": 0.5039370078740157
          },
          {
            "duration": 0.026923049999997062,
            "durationTicks": 28,
            "midi": 36,
            "name": "C2",
            "ticks": 25920,
            "time": 25.384596,
            "velocity": 0.7795275590551181
          },
          {
            "duration": 0.026923049999997062,
            "durationTicks": 28,
            "midi": 42,
            "name": "F#2",
            "ticks": 25920,
            "time": 25.384596,
            "velocity": 0.5669291338582677
          },
          {
            "duration": 0.026923050000000615,
            "durationTicks": 28,
            "midi": 37,
            "name": "C#2",
            "ticks": 26160,
            "time": 25.615364999999997,
            "velocity": 0.7559055118110236
          },
          {
            "duration": 0.026923050000000615,
            "durationTicks": 28,
            "midi": 42,
            "name": "F#2",
            "ticks": 26160,
            "time": 25.615364999999997,
            "velocity": 0.4251968503937008
          },
          {
            "duration": 0.026923049999997062,
            "durationTicks": 28,
            "midi": 42,
            "name": "F#2",
            "ticks": 26400,
            "time": 25.846134,
            "velocity": 0.7086614173228346
          },
          {
            "duration": 0.026923049999997062,
            "durationTicks": 28,
            "midi": 36,
            "name": "C2",
            "ticks": 26640,
            "time": 26.076902999999998,
            "velocity": 0.3228346456692913
          },
          {
            "duration": 0.026923049999997062,
            "durationTicks": 28,
            "midi": 37,
            "name": "C#2",
            "ticks": 26640,
            "time": 26.076902999999998,
            "velocity": 0.8346456692913385
          },
          {
            "duration": 0.026923049999997062,
            "durationTicks": 28,
            "midi": 42,
            "name": "F#2",
            "ticks": 26640,
            "time": 26.076902999999998,
            "velocity": 0.48031496062992124
          },
          {
            "duration": 0.026923050000000615,
            "durationTicks": 28,
            "midi": 36,
            "name": "C2",
            "ticks": 26880,
            "time": 26.307671999999997,
            "velocity": 0.7637795275590551
          },
          {
            "duration": 0.026923050000000615,
            "durationTicks": 28,
            "midi": 42,
            "name": "F#2",
            "ticks": 26880,
            "time": 26.307671999999997,
            "velocity": 0.6299212598425197
          },
          {
            "duration": 0.026923049999997062,
            "durationTicks": 28,
            "midi": 37,
            "name": "C#2",
            "ticks": 27120,
            "time": 26.538441,
            "velocity": 0.6692913385826772
          },
          {
            "duration": 0.026923049999997062,
            "durationTicks": 28,
            "midi": 42,
            "name": "F#2",
            "ticks": 27120,
            "time": 26.538441,
            "velocity": 0.18110236220472442
          },
          {
            "duration": 0.026923049999997062,
            "durationTicks": 28,
            "midi": 42,
            "name": "F#2",
            "ticks": 27360,
            "time": 26.769209999999998,
            "velocity": 0.7086614173228346
          },
          {
            "duration": 0.026923050000000615,
            "durationTicks": 28,
            "midi": 36,
            "name": "C2",
            "ticks": 27600,
            "time": 26.999978999999996,
            "velocity": 0.25984251968503935
          },
          {
            "duration": 0.026923050000000615,
            "durationTicks": 28,
            "midi": 37,
            "name": "C#2",
            "ticks": 27600,
            "time": 26.999978999999996,
            "velocity": 0.8346456692913385
          },
          {
            "duration": 0.026923050000000615,
            "durationTicks": 28,
            "midi": 42,
            "name": "F#2",
            "ticks": 27600,
            "time": 26.999978999999996,
            "velocity": 0.4566929133858268
          },
          {
            "duration": 0.026923049999997062,
            "durationTicks": 28,
            "midi": 36,
            "name": "C2",
            "ticks": 27840,
            "time": 27.230748,
            "velocity": 0.7637795275590551
          },
          {
            "duration": 0.026923049999997062,
            "durationTicks": 28,
            "midi": 37,
            "name": "C#2",
            "ticks": 27840,
            "time": 27.230748,
            "velocity": 0.7874015748031497
          },
          {
            "duration": 0.026923049999997062,
            "durationTicks": 28,
            "midi": 42,
            "name": "F#2",
            "ticks": 27840,
            "time": 27.230748,
            "velocity": 0.6456692913385826
          },
          {
            "duration": 0.026923050000000615,
            "durationTicks": 28,
            "midi": 42,
            "name": "F#2",
            "ticks": 28080,
            "time": 27.461516999999997,
            "velocity": 0.5275590551181102
          },
          {
            "duration": 0.026923049999997062,
            "durationTicks": 28,
            "midi": 37,
            "name": "C#2",
            "ticks": 28320,
            "time": 27.692286,
            "velocity": 0.8503937007874016
          },
          {
            "duration": 0.026923049999997062,
            "durationTicks": 28,
            "midi": 42,
            "name": "F#2",
            "ticks": 28320,
            "time": 27.692286,
            "velocity": 0.7559055118110236
          },
          {
            "duration": 0.026923049999997062,
            "durationTicks": 28,
            "midi": 36,
            "name": "C2",
            "ticks": 28560,
            "time": 27.923054999999998,
            "velocity": 0.3779527559055118
          },
          {
            "duration": 0.026923049999997062,
            "durationTicks": 28,
            "midi": 42,
            "name": "F#2",
            "ticks": 28560,
            "time": 27.923054999999998,
            "velocity": 0.5275590551181102
          },
          {
            "duration": 0.026923050000000615,
            "durationTicks": 28,
            "midi": 36,
            "name": "C2",
            "ticks": 28800,
            "time": 28.153823999999997,
            "velocity": 0.8031496062992126
          },
          {
            "duration": 0.026923050000000615,
            "durationTicks": 28,
            "midi": 37,
            "name": "C#2",
            "ticks": 28800,
            "time": 28.153823999999997,
            "velocity": 0.8346456692913385
          },
          {
            "duration": 0.026923050000000615,
            "durationTicks": 28,
            "midi": 42,
            "name": "F#2",
            "ticks": 28800,
            "time": 28.153823999999997,
            "velocity": 0.5669291338582677
          },
          {
            "duration": 0.026923049999997062,
            "durationTicks": 28,
            "midi": 42,
            "name": "F#2",
            "ticks": 29040,
            "time": 28.384593,
            "velocity": 0.5669291338582677
          },
          {
            "duration": 0.026923049999997062,
            "durationTicks": 28,
            "midi": 37,
            "name": "C#2",
            "ticks": 29280,
            "time": 28.615361999999998,
            "velocity": 0.9448818897637795
          },
          {
            "duration": 0.026923049999997062,
            "durationTicks": 28,
            "midi": 42,
            "name": "F#2",
            "ticks": 29280,
            "time": 28.615361999999998,
            "velocity": 0.5196850393700787
          },
          {
            "duration": 0.026923050000000615,
            "durationTicks": 28,
            "midi": 36,
            "name": "C2",
            "ticks": 29520,
            "time": 28.846130999999996,
            "velocity": 0.36220472440944884
          },
          {
            "duration": 0.026923050000000615,
            "durationTicks": 28,
            "midi": 42,
            "name": "F#2",
            "ticks": 29520,
            "time": 28.846130999999996,
            "velocity": 0.5826771653543307
          },
          {
            "duration": 0.026923049999997062,
            "durationTicks": 28,
            "midi": 36,
            "name": "C2",
            "ticks": 29760,
            "time": 29.0769,
            "velocity": 0.8188976377952756
          },
          {
            "duration": 0.026923049999997062,
            "durationTicks": 28,
            "midi": 42,
            "name": "F#2",
            "ticks": 29760,
            "time": 29.0769,
            "velocity": 0.5511811023622047
          },
          {
            "duration": 0.026923049999997062,
            "durationTicks": 28,
            "midi": 37,
            "name": "C#2",
            "ticks": 30000,
            "time": 29.307668999999997,
            "velocity": 0.8503937007874016
          },
          {
            "duration": 0.026923049999997062,
            "durationTicks": 28,
            "midi": 42,
            "name": "F#2",
            "ticks": 30000,
            "time": 29.307668999999997,
            "velocity": 0.5433070866141733
          },
          {
            "duration": 0.026923050000000615,
            "durationTicks": 28,
            "midi": 42,
            "name": "F#2",
            "ticks": 30240,
            "time": 29.538437999999996,
            "velocity": 0.7086614173228346
          },
          {
            "duration": 0.026923049999997062,
            "durationTicks": 28,
            "midi": 36,
            "name": "C2",
            "ticks": 30480,
            "time": 29.769206999999998,
            "velocity": 0.5039370078740157
          },
          {
            "duration": 0.026923049999997062,
            "durationTicks": 28,
            "midi": 37,
            "name": "C#2",
            "ticks": 30480,
            "time": 29.769206999999998,
            "velocity": 0.7637795275590551
          },
          {
            "duration": 0.026923049999997062,
            "durationTicks": 28,
            "midi": 42,
            "name": "F#2",
            "ticks": 30480,
            "time": 29.769206999999998,
            "velocity": 0.5433070866141733
          },
          {
            "duration": 0.026923050000000615,
            "durationTicks": 28,
            "midi": 36,
            "name": "C2",
            "ticks": 30720,
            "time": 29.999975999999997,
            "velocity": 0.8188976377952756
          },
          {
            "duration": 0.026923050000000615,
            "durationTicks": 28,
            "midi": 42,
            "name": "F#2",
            "ticks": 30720,
            "time": 29.999975999999997,
            "velocity": 0.6141732283464567
          },
          {
            "duration": 0.026923049999997062,
            "durationTicks": 28,
            "midi": 37,
            "name": "C#2",
            "ticks": 30960,
            "time": 30.230745,
            "velocity": 0.8503937007874016
          },
          {
            "duration": 0.026923049999997062,
            "durationTicks": 28,
            "midi": 42,
            "name": "F#2",
            "ticks": 30960,
            "time": 30.230745,
            "velocity": 0.48031496062992124
          },
          {
            "duration": 0.026923049999997062,
            "durationTicks": 28,
            "midi": 42,
            "name": "F#2",
            "ticks": 31200,
            "time": 30.461513999999998,
            "velocity": 0.6850393700787402
          },
          {
            "duration": 0.026923050000000615,
            "durationTicks": 28,
            "midi": 36,
            "name": "C2",
            "ticks": 31440,
            "time": 30.692282999999996,
            "velocity": 0.4251968503937008
          },
          {
            "duration": 0.026923050000000615,
            "durationTicks": 28,
            "midi": 37,
            "name": "C#2",
            "ticks": 31440,
            "time": 30.692282999999996,
            "velocity": 0.5826771653543307
          },
          {
            "duration": 0.026923050000000615,
            "durationTicks": 28,
            "midi": 42,
            "name": "F#2",
            "ticks": 31440,
            "time": 30.692282999999996,
            "velocity": 0.4015748031496063
          },
          {
            "duration": 0.026923049999997062,
            "durationTicks": 28,
            "midi": 36,
            "name": "C2",
            "ticks": 31680,
            "time": 30.923052,
            "velocity": 0.7637795275590551
          },
          {
            "duration": 0.026923049999997062,
            "durationTicks": 28,
            "midi": 37,
            "name": "C#2",
            "ticks": 31680,
            "time": 30.923052,
            "velocity": 0.8503937007874016
          },
          {
            "duration": 0.026923049999997062,
            "durationTicks": 28,
            "midi": 42,
            "name": "F#2",
            "ticks": 31680,
            "time": 30.923052,
            "velocity": 0.6614173228346457
          },
          {
            "duration": 0.026923049999997062,
            "durationTicks": 28,
            "midi": 42,
            "name": "F#2",
            "ticks": 31920,
            "time": 31.153820999999997,
            "velocity": 0.5669291338582677
          },
          {
            "duration": 0.026923050000000615,
            "durationTicks": 28,
            "midi": 37,
            "name": "C#2",
            "ticks": 32160,
            "time": 31.384589999999996,
            "velocity": 0.8976377952755905
          },
          {
            "duration": 0.026923050000000615,
            "durationTicks": 28,
            "midi": 42,
            "name": "F#2",
            "ticks": 32160,
            "time": 31.384589999999996,
            "velocity": 0.7086614173228346
          },
          {
            "duration": 0.026923049999997062,
            "durationTicks": 28,
            "midi": 36,
            "name": "C2",
            "ticks": 32400,
            "time": 31.615358999999998,
            "velocity": 0.47244094488188976
          },
          {
            "duration": 0.026923049999997062,
            "durationTicks": 28,
            "midi": 42,
            "name": "F#2",
            "ticks": 32400,
            "time": 31.615358999999998,
            "velocity": 0.4881889763779528
          },
          {
            "duration": 0.026923050000000615,
            "durationTicks": 28,
            "midi": 36,
            "name": "C2",
            "ticks": 32640,
            "time": 31.846127999999997,
            "velocity": 0.7637795275590551
          },
          {
            "duration": 0.026923050000000615,
            "durationTicks": 28,
            "midi": 37,
            "name": "C#2",
            "ticks": 32640,
            "time": 31.846127999999997,
            "velocity": 0.8818897637795275
          },
          {
            "duration": 0.026923050000000615,
            "durationTicks": 28,
            "midi": 42,
            "name": "F#2",
            "ticks": 32640,
            "time": 31.846127999999997,
            "velocity": 0.6850393700787402
          },
          {
            "duration": 0.026923050000000615,
            "durationTicks": 28,
            "midi": 42,
            "name": "F#2",
            "ticks": 32880,
            "time": 32.076896999999995,
            "velocity": 0.5275590551181102
          },
          {
            "duration": 0.02692304999999351,
            "durationTicks": 28,
            "midi": 37,
            "name": "C#2",
            "ticks": 33120,
            "time": 32.307666,
            "velocity": 0.9212598425196851
          },
          {
            "duration": 0.02692304999999351,
            "durationTicks": 28,
            "midi": 42,
            "name": "F#2",
            "ticks": 33120,
            "time": 32.307666,
            "velocity": 0.6456692913385826
          },
          {
            "duration": 0.02692305000000772,
            "durationTicks": 28,
            "midi": 36,
            "name": "C2",
            "ticks": 33360,
            "time": 32.53843499999999,
            "velocity": 0.4094488188976378
          },
          {
            "duration": 0.02692305000000772,
            "durationTicks": 28,
            "midi": 42,
            "name": "F#2",
            "ticks": 33360,
            "time": 32.53843499999999,
            "velocity": 0.48031496062992124
          },
          {
            "duration": 0.02692304999999351,
            "durationTicks": 28,
            "midi": 36,
            "name": "C2",
            "ticks": 33600,
            "time": 32.769204,
            "velocity": 0.8031496062992126
          },
          {
            "duration": 0.02692304999999351,
            "durationTicks": 28,
            "midi": 42,
            "name": "F#2",
            "ticks": 33600,
            "time": 32.769204,
            "velocity": 0.4881889763779528
          },
          {
            "duration": 0.02692304999999351,
            "durationTicks": 28,
            "midi": 37,
            "name": "C#2",
            "ticks": 33840,
            "time": 32.999973,
            "velocity": 0.8503937007874016
          },
          {
            "duration": 0.02692304999999351,
            "durationTicks": 28,
            "midi": 42,
            "name": "F#2",
            "ticks": 33840,
            "time": 32.999973,
            "velocity": 0.4881889763779528
          },
          {
            "duration": 0.02692305000000772,
            "durationTicks": 28,
            "midi": 42,
            "name": "F#2",
            "ticks": 34080,
            "time": 33.23074199999999,
            "velocity": 0.6299212598425197
          },
          {
            "duration": 0.02692304999999351,
            "durationTicks": 28,
            "midi": 36,
            "name": "C2",
            "ticks": 34320,
            "time": 33.461511,
            "velocity": 0.33858267716535434
          },
          {
            "duration": 0.02692304999999351,
            "durationTicks": 28,
            "midi": 37,
            "name": "C#2",
            "ticks": 34320,
            "time": 33.461511,
            "velocity": 0.8976377952755905
          },
          {
            "duration": 0.02692304999999351,
            "durationTicks": 28,
            "midi": 42,
            "name": "F#2",
            "ticks": 34320,
            "time": 33.461511,
            "velocity": 0.49606299212598426
          },
          {
            "duration": 0.02692304999999351,
            "durationTicks": 28,
            "midi": 36,
            "name": "C2",
            "ticks": 34560,
            "time": 33.69228,
            "velocity": 0.8188976377952756
          },
          {
            "duration": 0.02692304999999351,
            "durationTicks": 28,
            "midi": 42,
            "name": "F#2",
            "ticks": 34560,
            "time": 33.69228,
            "velocity": 0.44881889763779526
          },
          {
            "duration": 0.02692305000000772,
            "durationTicks": 28,
            "midi": 37,
            "name": "C#2",
            "ticks": 34800,
            "time": 33.92304899999999,
            "velocity": 0.8976377952755905
          },
          {
            "duration": 0.02692305000000772,
            "durationTicks": 28,
            "midi": 46,
            "name": "A#2",
            "ticks": 34800,
            "time": 33.92304899999999,
            "velocity": 0.7559055118110236
          },
          {
            "duration": 0.02692304999999351,
            "durationTicks": 28,
            "midi": 42,
            "name": "F#2",
            "ticks": 35040,
            "time": 34.153818,
            "velocity": 0.6141732283464567
          },
          {
            "duration": 0.026923050000000615,
            "durationTicks": 28,
            "midi": 36,
            "name": "C2",
            "ticks": 35280,
            "time": 34.384586999999996,
            "velocity": 0.3543307086614173
          },
          {
            "duration": 0.026923050000000615,
            "durationTicks": 28,
            "midi": 37,
            "name": "C#2",
            "ticks": 35280,
            "time": 34.384586999999996,
            "velocity": 0.6614173228346457
          },
          {
            "duration": 0.026923050000000615,
            "durationTicks": 28,
            "midi": 42,
            "name": "F#2",
            "ticks": 35280,
            "time": 34.384586999999996,
            "velocity": 0.6299212598425197
          },
          {
            "duration": 0.026923050000000615,
            "durationTicks": 28,
            "midi": 36,
            "name": "C2",
            "ticks": 35520,
            "time": 34.615356,
            "velocity": 0.7795275590551181
          },
          {
            "duration": 0.026923050000000615,
            "durationTicks": 28,
            "midi": 37,
            "name": "C#2",
            "ticks": 35520,
            "time": 34.615356,
            "velocity": 0.968503937007874
          },
          {
            "duration": 0.026923050000000615,
            "durationTicks": 28,
            "midi": 46,
            "name": "A#2",
            "ticks": 35520,
            "time": 34.615356,
            "velocity": 0.7086614173228346
          },
          {
            "duration": 0.02692304999999351,
            "durationTicks": 28,
            "midi": 42,
            "name": "F#2",
            "ticks": 35760,
            "time": 34.846125,
            "velocity": 0.5984251968503937
          },
          {
            "duration": 0.026923050000000615,
            "durationTicks": 28,
            "midi": 37,
            "name": "C#2",
            "ticks": 36000,
            "time": 35.076893999999996,
            "velocity": 0.9448818897637795
          },
          {
            "duration": 0.026923050000000615,
            "durationTicks": 28,
            "midi": 42,
            "name": "F#2",
            "ticks": 36000,
            "time": 35.076893999999996,
            "velocity": 0.7322834645669292
          },
          {
            "duration": 0.026923050000000615,
            "durationTicks": 28,
            "midi": 36,
            "name": "C2",
            "ticks": 36240,
            "time": 35.307663,
            "velocity": 0.5905511811023622
          },
          {
            "duration": 0.026923050000000615,
            "durationTicks": 28,
            "midi": 46,
            "name": "A#2",
            "ticks": 36240,
            "time": 35.307663,
            "velocity": 0.49606299212598426
          }
        ],
        "endOfTrackTicks": 38400
      },
      {
        "channel": 0,
        "controlChanges": {},
        "pitchBends": [],
        "instrument": {
          "family": "piano",
          "number": 0,
          "name": "acoustic grand piano"
        },
        "name": "Instrument Name*mezclada",
        "notes": [],
        "endOfTrackTicks": 38400
      },
      {
        "channel": 0,
        "controlChanges": {
          "1": [
            {
              "number": 1,
              "ticks": 2406,
              "time": 2.50625,
              "value": 0
            }
          ],
          "7": [
            {
              "number": 7,
              "ticks": 692,
              "time": 0.7208333333333333,
              "value": 0.6614173228346457
            }
          ],
          "10": [
            {
              "number": 10,
              "ticks": 692,
              "time": 0.7208333333333333,
              "value": 0.47244094488188976
            }
          ],
          "11": [
            {
              "number": 11,
              "ticks": 692,
              "time": 0.7208333333333333,
              "value": 1
            }
          ],
          "91": [
            {
              "number": 91,
              "ticks": 696,
              "time": 0.725,
              "value": 0.4330708661417323
            }
          ],
          "93": [
            {
              "number": 93,
              "ticks": 696,
              "time": 0.725,
              "value": 0.15748031496062992
            }
          ]
        },
        "pitchBends": [
          {
            "ticks": 2414,
            "time": 2.5145833333333334,
            "value": 0
          }
        ],
        "instrument": {
          "family": "ensemble",
          "number": 53,
          "name": "voice oohs"
        },
        "name": "",
        "notes": []
      },
      {
        "channel": 0,
        "controlChanges": {},
        "pitchBends": [],
        "instrument": {
          "family": "piano",
          "number": 0,
          "name": "acoustic grand piano"
        },
        "name": "Instrument Name*mezclada",
        "notes": [],
        "endOfTrackTicks": 38400
      },
      {
        "channel": 0,
        "controlChanges": {
          "1": [
            {
              "number": 1,
              "ticks": 2406,
              "time": 2.50625,
              "value": 0
            }
          ],
          "7": [
            {
              "number": 7,
              "ticks": 712,
              "time": 0.7416666666666667,
              "value": 0.6771653543307087
            }
          ],
          "10": [
            {
              "number": 10,
              "ticks": 712,
              "time": 0.7416666666666667,
              "value": 0.6062992125984252
            }
          ],
          "11": [
            {
              "number": 11,
              "ticks": 712,
              "time": 0.7416666666666667,
              "value": 1
            }
          ],
          "91": [
            {
              "number": 91,
              "ticks": 716,
              "time": 0.7458333333333333,
              "value": 0.6299212598425197
            }
          ],
          "93": [
            {
              "number": 93,
              "ticks": 716,
              "time": 0.7458333333333333,
              "value": 0.15748031496062992
            }
          ]
        },
        "pitchBends": [
          {
            "ticks": 2414,
            "time": 2.5145833333333334,
            "value": 0
          }
        ],
        "instrument": {
          "family": "ensemble",
          "number": 54,
          "name": "synth voice"
        },
        "name": "",
        "notes": []
      },
      {
        "channel": 0,
        "controlChanges": {},
        "pitchBends": [],
        "instrument": {
          "family": "piano",
          "number": 0,
          "name": "acoustic grand piano"
        },
        "name": "Instrument Name*mezclada",
        "notes": [],
        "endOfTrackTicks": 38400
      },
      {
        "channel": 0,
        "controlChanges": {
          "1": [
            {
              "number": 1,
              "ticks": 2406,
              "time": 2.50625,
              "value": 0
            }
          ],
          "7": [
            {
              "number": 7,
              "ticks": 732,
              "time": 0.7625,
              "value": 0.7874015748031497
            }
          ],
          "10": [
            {
              "number": 10,
              "ticks": 732,
              "time": 0.7625,
              "value": 0.2677165354330709
            }
          ],
          "11": [
            {
              "number": 11,
              "ticks": 732,
              "time": 0.7625,
              "value": 1
            }
          ],
          "91": [
            {
              "number": 91,
              "ticks": 736,
              "time": 0.7666666666666667,
              "value": 0.5511811023622047
            }
          ],
          "93": [
            {
              "number": 93,
              "ticks": 736,
              "time": 0.7666666666666667,
              "value": 0.23622047244094488
            }
          ]
        },
        "pitchBends": [
          {
            "ticks": 2414,
            "time": 2.5145833333333334,
            "value": 0
          }
        ],
        "instrument": {
          "family": "brass",
          "number": 57,
          "name": "trombone"
        },
        "name": "",
        "notes": []
      }
    ]
  }