{
    "header": {
      "keySignatures": [
        {
          "key": "D",
          "scale": "major",
          "ticks": 0
        }
      ],
      "meta": [],
      "name": "柴-六-第四乐章",
      "ppq": 480,
      "tempos": [
        {
          "bpm": 40,
          "ticks": 0
        }
      ],
      "timeSignatures": [
        {
          "ticks": 0,
          "timeSignature": [
            3,
            4
          ],
          "measures": 0
        }
      ]
    },
    "tracks": [
      {
        "channel": 0,
        "controlChanges": {},
        "pitchBends": [],
        "instrument": {
          "family": "piano",
          "number": 0,
          "name": "acoustic grand piano"
        },
        "name": "Pathetique Op.74",
        "notes": [],
        "endOfTrackTicks": 1440
      },
      {
        "channel": 0,
        "controlChanges": {},
        "pitchBends": [],
        "instrument": {
          "family": "piano",
          "number": 0,
          "name": "acoustic grand piano"
        },
        "name": "Flutes",
        "notes": [],
        "endOfTrackTicks": 218880
      },
      {
        "channel": 0,
        "controlChanges": {
          "7": [
            {
              "number": 7,
              "ticks": 0,
              "time": 0,
              "value": 1
            }
          ],
          "10": [
            {
              "number": 10,
              "ticks": 0,
              "time": 0,
              "value": 0.47244094488188976
            }
          ]
        },
        "pitchBends": [],
        "instrument": {
          "family": "pipe",
          "number": 73,
          "name": "flute"
        },
        "name": "",
        "notes": [
          {
            "duration": 5.206250000000001,
            "durationTicks": 1666,
            "midi": 66,
            "name": "F#4",
            "ticks": 1920,
            "time": 6,
            "velocity": 0.6299212598425197
          },
          {
            "duration": 4.40625,
            "durationTicks": 1410,
            "midi": 66,
            "name": "F#4",
            "ticks": 4800,
            "time": 15,
            "velocity": 0.5511811023622047
          },
          {
            "duration": 4.40625,
            "durationTicks": 1410,
            "midi": 64,
            "name": "E4",
            "ticks": 6240,
            "time": 19.5,
            "velocity": 0.4330708661417323
          },
          {
            "duration": 1.40625,
            "durationTicks": 450,
            "midi": 62,
            "name": "D4",
            "ticks": 7680,
            "time": 24,
            "velocity": 0.4330708661417323
          },
          {
            "duration": 2.90625,
            "durationTicks": 930,
            "midi": 69,
            "name": "A4",
            "ticks": 8160,
            "time": 25.5,
            "velocity": 0.4330708661417323
          },
          {
            "duration": 4.40625,
            "durationTicks": 1410,
            "midi": 68,
            "name": "G#4",
            "ticks": 9120,
            "time": 28.5,
            "velocity": 0.4330708661417323
          },
          {
            "duration": 1.40625,
            "durationTicks": 450,
            "midi": 66,
            "name": "F#4",
            "ticks": 10560,
            "time": 33,
            "velocity": 0.4330708661417323
          },
          {
            "duration": 2.90625,
            "durationTicks": 930,
            "midi": 73,
            "name": "C#5",
            "ticks": 11040,
            "time": 34.5,
            "velocity": 0.4330708661417323
          },
          {
            "duration": 2.1125000000000043,
            "durationTicks": 676,
            "midi": 71,
            "name": "B4",
            "ticks": 12000,
            "time": 37.5,
            "velocity": 0.49606299212598426
          },
          {
            "duration": 0.7062500000000043,
            "durationTicks": 226,
            "midi": 69,
            "name": "A4",
            "ticks": 12720,
            "time": 39.75,
            "velocity": 0.5433070866141733
          },
          {
            "duration": 1.40625,
            "durationTicks": 450,
            "midi": 76,
            "name": "E5",
            "ticks": 12960,
            "time": 40.5,
            "velocity": 0.5590551181102362
          },
          {
            "duration": 2.1125000000000043,
            "durationTicks": 676,
            "midi": 75,
            "name": "D#5",
            "ticks": 13440,
            "time": 42,
            "velocity": 0.5905511811023622
          },
          {
            "duration": 0.7062500000000043,
            "durationTicks": 226,
            "midi": 73,
            "name": "C#5",
            "ticks": 14160,
            "time": 44.25,
            "velocity": 0.6299212598425197
          },
          {
            "duration": 1.40625,
            "durationTicks": 450,
            "midi": 80,
            "name": "G#5",
            "ticks": 14400,
            "time": 45,
            "velocity": 0.6456692913385826
          },
          {
            "duration": 2.112499999999997,
            "durationTicks": 676,
            "midi": 78,
            "name": "F#5",
            "ticks": 14880,
            "time": 46.5,
            "velocity": 0.6771653543307087
          },
          {
            "duration": 0.7062499999999972,
            "durationTicks": 226,
            "midi": 77,
            "name": "F5",
            "ticks": 15600,
            "time": 48.75,
            "velocity": 0.7244094488188977
          },
          {
            "duration": 1.40625,
            "durationTicks": 450,
            "midi": 85,
            "name": "C#6",
            "ticks": 15840,
            "time": 49.5,
            "velocity": 0.7165354330708661
          },
          {
            "duration": 1.0562499999999986,
            "durationTicks": 338,
            "midi": 83,
            "name": "B5",
            "ticks": 16320,
            "time": 51,
            "velocity": 0.6614173228346457
          },
          {
            "duration": 0.35624999999999574,
            "durationTicks": 114,
            "midi": 81,
            "name": "A5",
            "ticks": 16680,
            "time": 52.125,
            "velocity": 0.6220472440944882
          },
          {
            "duration": 0.7062499999999972,
            "durationTicks": 226,
            "midi": 80,
            "name": "G#5",
            "ticks": 16800,
            "time": 52.5,
            "velocity": 0.6062992125984252
          },
          {
            "duration": 0.7062499999999972,
            "durationTicks": 226,
            "midi": 81,
            "name": "A5",
            "ticks": 17040,
            "time": 53.25,
            "velocity": 0.5748031496062992
          },
          {
            "duration": 1.0562499999999986,
            "durationTicks": 338,
            "midi": 80,
            "name": "G#5",
            "ticks": 17280,
            "time": 54,
            "velocity": 0.6614173228346457
          },
          {
            "duration": 0.35624999999999574,
            "durationTicks": 114,
            "midi": 78,
            "name": "F#5",
            "ticks": 17640,
            "time": 55.125,
            "velocity": 0.6220472440944882
          },
          {
            "duration": 0.7062499999999972,
            "durationTicks": 226,
            "midi": 77,
            "name": "F5",
            "ticks": 17760,
            "time": 55.5,
            "velocity": 0.6062992125984252
          },
          {
            "duration": 0.7062499999999972,
            "durationTicks": 226,
            "midi": 78,
            "name": "F#5",
            "ticks": 18000,
            "time": 56.25,
            "velocity": 0.5748031496062992
          },
          {
            "duration": 0.7062499999999972,
            "durationTicks": 226,
            "midi": 76,
            "name": "E5",
            "ticks": 18240,
            "time": 57,
            "velocity": 0.6062992125984252
          },
          {
            "duration": 0.7062499999999972,
            "durationTicks": 226,
            "midi": 74,
            "name": "D5",
            "ticks": 18480,
            "time": 57.75,
            "velocity": 0.5748031496062992
          },
          {
            "duration": 0.7062499999999972,
            "durationTicks": 226,
            "midi": 73,
            "name": "C#5",
            "ticks": 18720,
            "time": 58.5,
            "velocity": 0.5511811023622047
          },
          {
            "duration": 0.7062499999999972,
            "durationTicks": 226,
            "midi": 74,
            "name": "D5",
            "ticks": 18960,
            "time": 59.25,
            "velocity": 0.5354330708661418
          },
          {
            "duration": 0.7062499999999972,
            "durationTicks": 226,
            "midi": 73,
            "name": "C#5",
            "ticks": 19200,
            "time": 60,
            "velocity": 0.5275590551181102
          },
          {
            "duration": 0.7062499999999972,
            "durationTicks": 226,
            "midi": 71,
            "name": "B4",
            "ticks": 19440,
            "time": 60.75,
            "velocity": 0.5118110236220472
          },
          {
            "duration": 0.7062499999999972,
            "durationTicks": 226,
            "midi": 69,
            "name": "A4",
            "ticks": 19680,
            "time": 61.5,
            "velocity": 0.5039370078740157
          },
          {
            "duration": 0.7062499999999972,
            "durationTicks": 226,
            "midi": 71,
            "name": "B4",
            "ticks": 19920,
            "time": 62.25,
            "velocity": 0.4881889763779528
          },
          {
            "duration": 0.7062499999999972,
            "durationTicks": 226,
            "midi": 69,
            "name": "A4",
            "ticks": 20160,
            "time": 63,
            "velocity": 0.5275590551181102
          },
          {
            "duration": 0.7062499999999972,
            "durationTicks": 226,
            "midi": 67,
            "name": "G4",
            "ticks": 20400,
            "time": 63.75,
            "velocity": 0.5196850393700787
          },
          {
            "duration": 0.7062499999999972,
            "durationTicks": 226,
            "midi": 66,
            "name": "F#4",
            "ticks": 20640,
            "time": 64.5,
            "velocity": 0.5118110236220472
          },
          {
            "duration": 0.7062499999999972,
            "durationTicks": 226,
            "midi": 67,
            "name": "G4",
            "ticks": 20880,
            "time": 65.25,
            "velocity": 0.5039370078740157
          },
          {
            "duration": 0.7062499999999972,
            "durationTicks": 226,
            "midi": 66,
            "name": "F#4",
            "ticks": 21120,
            "time": 66,
            "velocity": 0.49606299212598426
          },
          {
            "duration": 0.7062499999999972,
            "durationTicks": 226,
            "midi": 64,
            "name": "E4",
            "ticks": 21360,
            "time": 66.75,
            "velocity": 0.4881889763779528
          },
          {
            "duration": 0.7062499999999972,
            "durationTicks": 226,
            "midi": 62,
            "name": "D4",
            "ticks": 21600,
            "time": 67.5,
            "velocity": 0.47244094488188976
          },
          {
            "duration": 0.7062499999999972,
            "durationTicks": 226,
            "midi": 64,
            "name": "E4",
            "ticks": 21840,
            "time": 68.25,
            "velocity": 0.47244094488188976
          },
          {
            "duration": 0.7062499999999972,
            "durationTicks": 226,
            "midi": 62,
            "name": "D4",
            "ticks": 22080,
            "time": 69,
            "velocity": 0.47244094488188976
          },
          {
            "duration": 0.7062499999999972,
            "durationTicks": 226,
            "midi": 61,
            "name": "C#4",
            "ticks": 22320,
            "time": 69.75,
            "velocity": 0.47244094488188976
          },
          {
            "duration": 0.7062499999999972,
            "durationTicks": 226,
            "midi": 60,
            "name": "C4",
            "ticks": 22560,
            "time": 70.5,
            "velocity": 0.47244094488188976
          },
          {
            "duration": 0.7062499999999972,
            "durationTicks": 226,
            "midi": 61,
            "name": "C#4",
            "ticks": 22800,
            "time": 71.25,
            "velocity": 0.47244094488188976
          },
          {
            "duration": 1.0562500000000057,
            "durationTicks": 338,
            "midi": 62,
            "name": "D4",
            "ticks": 23040,
            "time": 72,
            "velocity": 0.47244094488188976
          },
          {
            "duration": 0.35624999999998863,
            "durationTicks": 114,
            "midi": 61,
            "name": "C#4",
            "ticks": 23400,
            "time": 73.125,
            "velocity": 0.47244094488188976
          },
          {
            "duration": 2.4625000000000057,
            "durationTicks": 788,
            "midi": 64,
            "name": "E4",
            "ticks": 23520,
            "time": 73.5,
            "velocity": 0.47244094488188976
          },
          {
            "duration": 0.35624999999998863,
            "durationTicks": 114,
            "midi": 62,
            "name": "D4",
            "ticks": 24360,
            "time": 76.125,
            "velocity": 0.47244094488188976
          },
          {
            "duration": 3.706249999999997,
            "durationTicks": 1186,
            "midi": 61,
            "name": "C#4",
            "ticks": 24480,
            "time": 76.5,
            "velocity": 0.44881889763779526
          },
          {
            "duration": 1.40625,
            "durationTicks": 450,
            "midi": 81,
            "name": "A5",
            "ticks": 77280,
            "time": 241.5,
            "velocity": 0.49606299212598426
          },
          {
            "duration": 2.8125,
            "durationTicks": 900,
            "midi": 79,
            "name": "G5",
            "ticks": 77760,
            "time": 243,
            "velocity": 0.47244094488188976
          },
          {
            "duration": 1.40625,
            "durationTicks": 450,
            "midi": 73,
            "name": "C#5",
            "ticks": 78720,
            "time": 246,
            "velocity": 0.49606299212598426
          },
          {
            "duration": 2.8125,
            "durationTicks": 900,
            "midi": 74,
            "name": "D5",
            "ticks": 79200,
            "time": 247.5,
            "velocity": 0.5118110236220472
          },
          {
            "duration": 1.40625,
            "durationTicks": 450,
            "midi": 81,
            "name": "A5",
            "ticks": 80160,
            "time": 250.5,
            "velocity": 0.5433070866141733
          },
          {
            "duration": 2.8125,
            "durationTicks": 900,
            "midi": 79,
            "name": "G5",
            "ticks": 80640,
            "time": 252,
            "velocity": 0.5511811023622047
          },
          {
            "duration": 1.40625,
            "durationTicks": 450,
            "midi": 73,
            "name": "C#5",
            "ticks": 81600,
            "time": 255,
            "velocity": 0.5826771653543307
          },
          {
            "duration": 2.8125,
            "durationTicks": 900,
            "midi": 74,
            "name": "D5",
            "ticks": 82080,
            "time": 256.5,
            "velocity": 0.5905511811023622
          },
          {
            "duration": 1.40625,
            "durationTicks": 450,
            "midi": 84,
            "name": "C6",
            "ticks": 83040,
            "time": 259.5,
            "velocity": 0.6220472440944882
          },
          {
            "duration": 2.8125,
            "durationTicks": 900,
            "midi": 83,
            "name": "B5",
            "ticks": 83520,
            "time": 261,
            "velocity": 0.6377952755905512
          },
          {
            "duration": 1.40625,
            "durationTicks": 450,
            "midi": 88,
            "name": "E6",
            "ticks": 84480,
            "time": 264,
            "velocity": 0.6614173228346457
          },
          {
            "duration": 1.40625,
            "durationTicks": 450,
            "midi": 88,
            "name": "E6",
            "ticks": 84960,
            "time": 265.5,
            "velocity": 0.6771653543307087
          },
          {
            "duration": 1.40625,
            "durationTicks": 450,
            "midi": 90,
            "name": "F#6",
            "ticks": 85440,
            "time": 267,
            "velocity": 0.6850393700787402
          },
          {
            "duration": 1.40625,
            "durationTicks": 450,
            "midi": 83,
            "name": "B5",
            "ticks": 85920,
            "time": 268.5,
            "velocity": 0.7007874015748031
          },
          {
            "duration": 4.21875,
            "durationTicks": 1350,
            "midi": 83,
            "name": "B5",
            "ticks": 86400,
            "time": 270,
            "velocity": 0.7165354330708661
          },
          {
            "duration": 1.40625,
            "durationTicks": 450,
            "midi": 83,
            "name": "B5",
            "ticks": 87840,
            "time": 274.5,
            "velocity": 0.6692913385826772
          },
          {
            "duration": 1.40625,
            "durationTicks": 450,
            "midi": 82,
            "name": "A#5",
            "ticks": 88320,
            "time": 276,
            "velocity": 0.6692913385826772
          },
          {
            "duration": 0.46875,
            "durationTicks": 150,
            "midi": 82,
            "name": "A#5",
            "ticks": 88800,
            "time": 277.5,
            "velocity": 0.6692913385826772
          },
          {
            "duration": 0.46875,
            "durationTicks": 150,
            "midi": 81,
            "name": "A5",
            "ticks": 88960,
            "time": 278,
            "velocity": 0.6692913385826772
          },
          {
            "duration": 0.96875,
            "durationTicks": 310,
            "midi": 81,
            "name": "A5",
            "ticks": 89120,
            "time": 278.5,
            "velocity": 0.6692913385826772
          },
          {
            "duration": 0.46875,
            "durationTicks": 150,
            "midi": 81,
            "name": "A5",
            "ticks": 89440,
            "time": 279.5,
            "velocity": 0.6692913385826772
          },
          {
            "duration": 0.96875,
            "durationTicks": 310,
            "midi": 81,
            "name": "A5",
            "ticks": 89600,
            "time": 280,
            "velocity": 0.6692913385826772
          },
          {
            "duration": 0.46875,
            "durationTicks": 150,
            "midi": 81,
            "name": "A5",
            "ticks": 89920,
            "time": 281,
            "velocity": 0.6692913385826772
          },
          {
            "duration": 0.96875,
            "durationTicks": 310,
            "midi": 81,
            "name": "A5",
            "ticks": 90080,
            "time": 281.5,
            "velocity": 0.6692913385826772
          },
          {
            "duration": 0.46875,
            "durationTicks": 150,
            "midi": 80,
            "name": "G#5",
            "ticks": 90400,
            "time": 282.5,
            "velocity": 0.6692913385826772
          },
          {
            "duration": 0.46875,
            "durationTicks": 150,
            "midi": 80,
            "name": "G#5",
            "ticks": 90560,
            "time": 283,
            "velocity": 0.6692913385826772
          },
          {
            "duration": 0.46875,
            "durationTicks": 150,
            "midi": 81,
            "name": "A5",
            "ticks": 90880,
            "time": 284,
            "velocity": 0.6299212598425197
          },
          {
            "duration": 0.96875,
            "durationTicks": 310,
            "midi": 81,
            "name": "A5",
            "ticks": 91040,
            "time": 284.5,
            "velocity": 0.6299212598425197
          },
          {
            "duration": 0.46875,
            "durationTicks": 150,
            "midi": 81,
            "name": "A5",
            "ticks": 91360,
            "time": 285.5,
            "velocity": 0.6299212598425197
          },
          {
            "duration": 0.96875,
            "durationTicks": 310,
            "midi": 81,
            "name": "A5",
            "ticks": 91520,
            "time": 286,
            "velocity": 0.6299212598425197
          },
          {
            "duration": 0.46875,
            "durationTicks": 150,
            "midi": 81,
            "name": "A5",
            "ticks": 91840,
            "time": 287,
            "velocity": 0.6299212598425197
          },
          {
            "duration": 0.96875,
            "durationTicks": 310,
            "midi": 81,
            "name": "A5",
            "ticks": 92000,
            "time": 287.5,
            "velocity": 0.6299212598425197
          },
          {
            "duration": 0.46875,
            "durationTicks": 150,
            "midi": 81,
            "name": "A5",
            "ticks": 92320,
            "time": 288.5,
            "velocity": 0.6299212598425197
          },
          {
            "duration": 0.96875,
            "durationTicks": 310,
            "midi": 81,
            "name": "A5",
            "ticks": 92480,
            "time": 289,
            "velocity": 0.6299212598425197
          },
          {
            "duration": 0.46875,
            "durationTicks": 150,
            "midi": 81,
            "name": "A5",
            "ticks": 92800,
            "time": 290,
            "velocity": 0.6299212598425197
          },
          {
            "duration": 0.96875,
            "durationTicks": 310,
            "midi": 81,
            "name": "A5",
            "ticks": 92960,
            "time": 290.5,
            "velocity": 0.6299212598425197
          },
          {
            "duration": 0.46875,
            "durationTicks": 150,
            "midi": 80,
            "name": "G#5",
            "ticks": 93280,
            "time": 291.5,
            "velocity": 0.6299212598425197
          },
          {
            "duration": 0.46875,
            "durationTicks": 150,
            "midi": 80,
            "name": "G#5",
            "ticks": 93440,
            "time": 292,
            "velocity": 0.6299212598425197
          },
          {
            "duration": 0.46875,
            "durationTicks": 150,
            "midi": 81,
            "name": "A5",
            "ticks": 93760,
            "time": 293,
            "velocity": 0.5748031496062992
          },
          {
            "duration": 0.96875,
            "durationTicks": 310,
            "midi": 81,
            "name": "A5",
            "ticks": 93920,
            "time": 293.5,
            "velocity": 0.5826771653543307
          },
          {
            "duration": 0.46875,
            "durationTicks": 150,
            "midi": 81,
            "name": "A5",
            "ticks": 94240,
            "time": 294.5,
            "velocity": 0.5905511811023622
          },
          {
            "duration": 0.96875,
            "durationTicks": 310,
            "midi": 81,
            "name": "A5",
            "ticks": 94400,
            "time": 295,
            "velocity": 0.5984251968503937
          },
          {
            "duration": 0.46875,
            "durationTicks": 150,
            "midi": 81,
            "name": "A5",
            "ticks": 94720,
            "time": 296,
            "velocity": 0.6062992125984252
          },
          {
            "duration": 0.46875,
            "durationTicks": 150,
            "midi": 81,
            "name": "A5",
            "ticks": 94880,
            "time": 296.5,
            "velocity": 0.6141732283464567
          },
          {
            "duration": 0.46875,
            "durationTicks": 150,
            "midi": 83,
            "name": "B5",
            "ticks": 95200,
            "time": 297.5,
            "velocity": 0.5748031496062992
          },
          {
            "duration": 0.96875,
            "durationTicks": 310,
            "midi": 83,
            "name": "B5",
            "ticks": 95360,
            "time": 298,
            "velocity": 0.5826771653543307
          },
          {
            "duration": 0.46875,
            "durationTicks": 150,
            "midi": 83,
            "name": "B5",
            "ticks": 95680,
            "time": 299,
            "velocity": 0.5905511811023622
          },
          {
            "duration": 0.96875,
            "durationTicks": 310,
            "midi": 83,
            "name": "B5",
            "ticks": 95840,
            "time": 299.5,
            "velocity": 0.5984251968503937
          },
          {
            "duration": 0.46875,
            "durationTicks": 150,
            "midi": 83,
            "name": "B5",
            "ticks": 96160,
            "time": 300.5,
            "velocity": 0.6062992125984252
          },
          {
            "duration": 0.46875,
            "durationTicks": 150,
            "midi": 83,
            "name": "B5",
            "ticks": 96320,
            "time": 301,
            "velocity": 0.6141732283464567
          },
          {
            "duration": 0.46875,
            "durationTicks": 150,
            "midi": 85,
            "name": "C#6",
            "ticks": 96640,
            "time": 302,
            "velocity": 0.5748031496062992
          },
          {
            "duration": 0.96875,
            "durationTicks": 310,
            "midi": 85,
            "name": "C#6",
            "ticks": 96800,
            "time": 302.5,
            "velocity": 0.5826771653543307
          },
          {
            "duration": 0.46875,
            "durationTicks": 150,
            "midi": 85,
            "name": "C#6",
            "ticks": 97120,
            "time": 303.5,
            "velocity": 0.5905511811023622
          },
          {
            "duration": 0.96875,
            "durationTicks": 310,
            "midi": 85,
            "name": "C#6",
            "ticks": 97280,
            "time": 304,
            "velocity": 0.5984251968503937
          },
          {
            "duration": 0.46875,
            "durationTicks": 150,
            "midi": 85,
            "name": "C#6",
            "ticks": 97600,
            "time": 305,
            "velocity": 0.6062992125984252
          },
          {
            "duration": 0.46875,
            "durationTicks": 150,
            "midi": 85,
            "name": "C#6",
            "ticks": 97760,
            "time": 305.5,
            "velocity": 0.6141732283464567
          },
          {
            "duration": 0.46875,
            "durationTicks": 150,
            "midi": 86,
            "name": "D6",
            "ticks": 98080,
            "time": 306.5,
            "velocity": 0.6377952755905512
          },
          {
            "duration": 0.96875,
            "durationTicks": 310,
            "midi": 86,
            "name": "D6",
            "ticks": 98240,
            "time": 307,
            "velocity": 0.6456692913385826
          },
          {
            "duration": 0.46875,
            "durationTicks": 150,
            "midi": 86,
            "name": "D6",
            "ticks": 98560,
            "time": 308,
            "velocity": 0.6692913385826772
          },
          {
            "duration": 0.96875,
            "durationTicks": 310,
            "midi": 86,
            "name": "D6",
            "ticks": 98720,
            "time": 308.5,
            "velocity": 0.6771653543307087
          },
          {
            "duration": 0.46875,
            "durationTicks": 150,
            "midi": 86,
            "name": "D6",
            "ticks": 99040,
            "time": 309.5,
            "velocity": 0.7007874015748031
          },
          {
            "duration": 0.46875,
            "durationTicks": 150,
            "midi": 86,
            "name": "D6",
            "ticks": 99200,
            "time": 310,
            "velocity": 0.7086614173228346
          },
          {
            "duration": 0.46875,
            "durationTicks": 150,
            "midi": 88,
            "name": "E6",
            "ticks": 99520,
            "time": 311,
            "velocity": 0.7322834645669292
          },
          {
            "duration": 0.96875,
            "durationTicks": 310,
            "midi": 88,
            "name": "E6",
            "ticks": 99680,
            "time": 311.5,
            "velocity": 0.7401574803149606
          },
          {
            "duration": 0.46875,
            "durationTicks": 150,
            "midi": 88,
            "name": "E6",
            "ticks": 100000,
            "time": 312.5,
            "velocity": 0.7637795275590551
          },
          {
            "duration": 0.96875,
            "durationTicks": 310,
            "midi": 88,
            "name": "E6",
            "ticks": 100160,
            "time": 313,
            "velocity": 0.7716535433070866
          },
          {
            "duration": 0.46875,
            "durationTicks": 150,
            "midi": 88,
            "name": "E6",
            "ticks": 100480,
            "time": 314,
            "velocity": 0.7952755905511811
          },
          {
            "duration": 0.46875,
            "durationTicks": 150,
            "midi": 88,
            "name": "E6",
            "ticks": 100640,
            "time": 314.5,
            "velocity": 0.8031496062992126
          },
          {
            "duration": 0.46875,
            "durationTicks": 150,
            "midi": 90,
            "name": "F#6",
            "ticks": 100800,
            "time": 315,
            "velocity": 0.8661417322834646
          },
          {
            "duration": 0.46875,
            "durationTicks": 150,
            "midi": 90,
            "name": "F#6",
            "ticks": 100960,
            "time": 315.5,
            "velocity": 0.8661417322834646
          },
          {
            "duration": 0.96875,
            "durationTicks": 310,
            "midi": 90,
            "name": "F#6",
            "ticks": 101120,
            "time": 316,
            "velocity": 0.8661417322834646
          },
          {
            "duration": 0.46875,
            "durationTicks": 150,
            "midi": 90,
            "name": "F#6",
            "ticks": 101440,
            "time": 317,
            "velocity": 0.8661417322834646
          },
          {
            "duration": 0.96875,
            "durationTicks": 310,
            "midi": 90,
            "name": "F#6",
            "ticks": 101600,
            "time": 317.5,
            "velocity": 0.8661417322834646
          },
          {
            "duration": 0.46875,
            "durationTicks": 150,
            "midi": 90,
            "name": "F#6",
            "ticks": 101920,
            "time": 318.5,
            "velocity": 0.8661417322834646
          },
          {
            "duration": 0.96875,
            "durationTicks": 310,
            "midi": 90,
            "name": "F#6",
            "ticks": 102080,
            "time": 319,
            "velocity": 0.8661417322834646
          },
          {
            "duration": 0.46875,
            "durationTicks": 150,
            "midi": 88,
            "name": "E6",
            "ticks": 103680,
            "time": 324,
            "velocity": 0.8661417322834646
          },
          {
            "duration": 0.46875,
            "durationTicks": 150,
            "midi": 88,
            "name": "E6",
            "ticks": 103840,
            "time": 324.5,
            "velocity": 0.8661417322834646
          },
          {
            "duration": 0.96875,
            "durationTicks": 310,
            "midi": 88,
            "name": "E6",
            "ticks": 104000,
            "time": 325,
            "velocity": 0.8661417322834646
          },
          {
            "duration": 0.46875,
            "durationTicks": 150,
            "midi": 88,
            "name": "E6",
            "ticks": 104320,
            "time": 326,
            "velocity": 0.8661417322834646
          },
          {
            "duration": 0.96875,
            "durationTicks": 310,
            "midi": 88,
            "name": "E6",
            "ticks": 104480,
            "time": 326.5,
            "velocity": 0.8661417322834646
          },
          {
            "duration": 0.46875,
            "durationTicks": 150,
            "midi": 88,
            "name": "E6",
            "ticks": 104800,
            "time": 327.5,
            "velocity": 0.8661417322834646
          },
          {
            "duration": 0.96875,
            "durationTicks": 310,
            "midi": 88,
            "name": "E6",
            "ticks": 104960,
            "time": 328,
            "velocity": 0.8661417322834646
          },
          {
            "duration": 0.46875,
            "durationTicks": 150,
            "midi": 79,
            "name": "G5",
            "ticks": 106560,
            "time": 333,
            "velocity": 0.8661417322834646
          },
          {
            "duration": 0.46875,
            "durationTicks": 150,
            "midi": 84,
            "name": "C6",
            "ticks": 106560,
            "time": 333,
            "velocity": 0.8661417322834646
          },
          {
            "duration": 0.46875,
            "durationTicks": 150,
            "midi": 79,
            "name": "G5",
            "ticks": 106720,
            "time": 333.5,
            "velocity": 0.8661417322834646
          },
          {
            "duration": 0.46875,
            "durationTicks": 150,
            "midi": 84,
            "name": "C6",
            "ticks": 106720,
            "time": 333.5,
            "velocity": 0.8661417322834646
          },
          {
            "duration": 0.96875,
            "durationTicks": 310,
            "midi": 79,
            "name": "G5",
            "ticks": 106880,
            "time": 334,
            "velocity": 0.8661417322834646
          },
          {
            "duration": 0.96875,
            "durationTicks": 310,
            "midi": 84,
            "name": "C6",
            "ticks": 106880,
            "time": 334,
            "velocity": 0.8661417322834646
          },
          {
            "duration": 0.46875,
            "durationTicks": 150,
            "midi": 79,
            "name": "G5",
            "ticks": 107200,
            "time": 335,
            "velocity": 0.8661417322834646
          },
          {
            "duration": 0.46875,
            "durationTicks": 150,
            "midi": 84,
            "name": "C6",
            "ticks": 107200,
            "time": 335,
            "velocity": 0.8661417322834646
          },
          {
            "duration": 0.96875,
            "durationTicks": 310,
            "midi": 79,
            "name": "G5",
            "ticks": 107360,
            "time": 335.5,
            "velocity": 0.8661417322834646
          },
          {
            "duration": 0.96875,
            "durationTicks": 310,
            "midi": 84,
            "name": "C6",
            "ticks": 107360,
            "time": 335.5,
            "velocity": 0.8661417322834646
          },
          {
            "duration": 0.46875,
            "durationTicks": 150,
            "midi": 79,
            "name": "G5",
            "ticks": 107680,
            "time": 336.5,
            "velocity": 0.8661417322834646
          },
          {
            "duration": 0.46875,
            "durationTicks": 150,
            "midi": 84,
            "name": "C6",
            "ticks": 107680,
            "time": 336.5,
            "velocity": 0.8661417322834646
          },
          {
            "duration": 0.96875,
            "durationTicks": 310,
            "midi": 79,
            "name": "G5",
            "ticks": 107840,
            "time": 337,
            "velocity": 0.8661417322834646
          },
          {
            "duration": 0.96875,
            "durationTicks": 310,
            "midi": 84,
            "name": "C6",
            "ticks": 107840,
            "time": 337,
            "velocity": 0.8661417322834646
          },
          {
            "duration": 0.3562500000000455,
            "durationTicks": 114,
            "midi": 84,
            "name": "C6",
            "ticks": 109440,
            "time": 342,
            "velocity": 1
          },
          {
            "duration": 0.7062500000000114,
            "durationTicks": 226,
            "midi": 72,
            "name": "C5",
            "ticks": 115440,
            "time": 360.75,
            "velocity": 1
          },
          {
            "duration": 0.7062500000000114,
            "durationTicks": 226,
            "midi": 76,
            "name": "E5",
            "ticks": 115440,
            "time": 360.75,
            "velocity": 1
          },
          {
            "duration": 4.40625,
            "durationTicks": 1410,
            "midi": 71,
            "name": "B4",
            "ticks": 155520,
            "time": 486,
            "velocity": 0.5511811023622047
          },
          {
            "duration": 2.8125,
            "durationTicks": 900,
            "midi": 74,
            "name": "D5",
            "ticks": 156960,
            "time": 490.5,
            "velocity": 0.5511811023622047
          },
          {
            "duration": 1.40625,
            "durationTicks": 450,
            "midi": 66,
            "name": "F#4",
            "ticks": 157920,
            "time": 493.5,
            "velocity": 0.5511811023622047
          },
          {
            "duration": 2.8125,
            "durationTicks": 900,
            "midi": 76,
            "name": "E5",
            "ticks": 158400,
            "time": 495,
            "velocity": 0.6220472440944882
          },
          {
            "duration": 1.40625,
            "durationTicks": 450,
            "midi": 74,
            "name": "D5",
            "ticks": 159360,
            "time": 498,
            "velocity": 0.6771653543307087
          },
          {
            "duration": 2.8125,
            "durationTicks": 900,
            "midi": 67,
            "name": "G4",
            "ticks": 159840,
            "time": 499.5,
            "velocity": 0.7007874015748031
          },
          {
            "duration": 2.8125,
            "durationTicks": 900,
            "midi": 79,
            "name": "G5",
            "ticks": 159840,
            "time": 499.5,
            "velocity": 0.7007874015748031
          },
          {
            "duration": 1.40625,
            "durationTicks": 450,
            "midi": 71,
            "name": "B4",
            "ticks": 160800,
            "time": 502.5,
            "velocity": 0.7480314960629921
          },
          {
            "duration": 1.40625,
            "durationTicks": 450,
            "midi": 83,
            "name": "B5",
            "ticks": 161280,
            "time": 504,
            "velocity": 0.7716535433070866
          },
          {
            "duration": 0.7062500000000682,
            "durationTicks": 226,
            "midi": 82,
            "name": "A#5",
            "ticks": 161760,
            "time": 505.5,
            "velocity": 0.7952755905511811
          },
          {
            "duration": 0.7062500000000682,
            "durationTicks": 226,
            "midi": 83,
            "name": "B5",
            "ticks": 162000,
            "time": 506.25,
            "velocity": 0.8110236220472441
          },
          {
            "duration": 1.40625,
            "durationTicks": 450,
            "midi": 84,
            "name": "C6",
            "ticks": 162240,
            "time": 507,
            "velocity": 0.8267716535433071
          },
          {
            "duration": 0.7062500000000682,
            "durationTicks": 226,
            "midi": 83,
            "name": "B5",
            "ticks": 162720,
            "time": 508.5,
            "velocity": 0.8503937007874016
          },
          {
            "duration": 0.7062500000000682,
            "durationTicks": 226,
            "midi": 84,
            "name": "C6",
            "ticks": 162960,
            "time": 509.25,
            "velocity": 0.8582677165354331
          },
          {
            "duration": 1.40625,
            "durationTicks": 450,
            "midi": 86,
            "name": "D6",
            "ticks": 163200,
            "time": 510,
            "velocity": 0.8740157480314961
          },
          {
            "duration": 0.7062500000000682,
            "durationTicks": 226,
            "midi": 85,
            "name": "C#6",
            "ticks": 163680,
            "time": 511.5,
            "velocity": 0.8976377952755905
          },
          {
            "duration": 0.7062500000000682,
            "durationTicks": 226,
            "midi": 86,
            "name": "D6",
            "ticks": 163920,
            "time": 512.25,
            "velocity": 0.9133858267716536
          },
          {
            "duration": 1.40625,
            "durationTicks": 450,
            "midi": 85,
            "name": "C#6",
            "ticks": 164160,
            "time": 513,
            "velocity": 0.9212598425196851
          },
          {
            "duration": 1.40625,
            "durationTicks": 450,
            "midi": 85,
            "name": "C#6",
            "ticks": 164640,
            "time": 514.5,
            "velocity": 0.9212598425196851
          },
          {
            "duration": 1.40625,
            "durationTicks": 450,
            "midi": 85,
            "name": "C#6",
            "ticks": 165120,
            "time": 516,
            "velocity": 0.9212598425196851
          },
          {
            "duration": 1.40625,
            "durationTicks": 450,
            "midi": 86,
            "name": "D6",
            "ticks": 165600,
            "time": 517.5,
            "velocity": 0.9212598425196851
          },
          {
            "duration": 1.40625,
            "durationTicks": 450,
            "midi": 86,
            "name": "D6",
            "ticks": 166080,
            "time": 519,
            "velocity": 0.9448818897637795
          },
          {
            "duration": 1.40625,
            "durationTicks": 450,
            "midi": 86,
            "name": "D6",
            "ticks": 166560,
            "time": 520.5,
            "velocity": 0.9448818897637795
          },
          {
            "duration": 4.21875,
            "durationTicks": 1350,
            "midi": 88,
            "name": "E6",
            "ticks": 167040,
            "time": 522,
            "velocity": 0.9448818897637795
          },
          {
            "duration": 1.40625,
            "durationTicks": 450,
            "midi": 88,
            "name": "E6",
            "ticks": 168480,
            "time": 526.5,
            "velocity": 0.9212598425196851
          },
          {
            "duration": 1.40625,
            "durationTicks": 450,
            "midi": 86,
            "name": "D6",
            "ticks": 168960,
            "time": 528,
            "velocity": 0.9448818897637795
          },
          {
            "duration": 1.40625,
            "durationTicks": 450,
            "midi": 81,
            "name": "A5",
            "ticks": 169440,
            "time": 529.5,
            "velocity": 0.9448818897637795
          },
          {
            "duration": 4.21875,
            "durationTicks": 1350,
            "midi": 86,
            "name": "D6",
            "ticks": 169920,
            "time": 531,
            "velocity": 0.9448818897637795
          },
          {
            "duration": 2.8125,
            "durationTicks": 900,
            "midi": 85,
            "name": "C#6",
            "ticks": 171360,
            "time": 535.5,
            "velocity": 0.9448818897637795
          },
          {
            "duration": 1.40625,
            "durationTicks": 450,
            "midi": 76,
            "name": "E5",
            "ticks": 172320,
            "time": 538.5,
            "velocity": 0.9448818897637795
          },
          {
            "duration": 4.21875,
            "durationTicks": 1350,
            "midi": 83,
            "name": "B5",
            "ticks": 172800,
            "time": 540,
            "velocity": 0.9448818897637795
          },
          {
            "duration": 1.40625,
            "durationTicks": 450,
            "midi": 79,
            "name": "G5",
            "ticks": 174240,
            "time": 544.5,
            "velocity": 1
          },
          {
            "duration": 1.40625,
            "durationTicks": 450,
            "midi": 82,
            "name": "A#5",
            "ticks": 174240,
            "time": 544.5,
            "velocity": 1
          },
          {
            "duration": 1.40625,
            "durationTicks": 450,
            "midi": 78,
            "name": "F#5",
            "ticks": 174720,
            "time": 546,
            "velocity": 1
          },
          {
            "duration": 1.40625,
            "durationTicks": 450,
            "midi": 81,
            "name": "A5",
            "ticks": 174720,
            "time": 546,
            "velocity": 1
          },
          {
            "duration": 1.40625,
            "durationTicks": 450,
            "midi": 73,
            "name": "C#5",
            "ticks": 175200,
            "time": 547.5,
            "velocity": 1
          },
          {
            "duration": 1.40625,
            "durationTicks": 450,
            "midi": 76,
            "name": "E5",
            "ticks": 175200,
            "time": 547.5,
            "velocity": 1
          },
          {
            "duration": 4.21875,
            "durationTicks": 1350,
            "midi": 78,
            "name": "F#5",
            "ticks": 175680,
            "time": 549,
            "velocity": 0.9448818897637795
          },
          {
            "duration": 1.40625,
            "durationTicks": 450,
            "midi": 73,
            "name": "C#5",
            "ticks": 177120,
            "time": 553.5,
            "velocity": 1
          },
          {
            "duration": 1.40625,
            "durationTicks": 450,
            "midi": 74,
            "name": "D5",
            "ticks": 177600,
            "time": 555,
            "velocity": 1
          },
          {
            "duration": 1.40625,
            "durationTicks": 450,
            "midi": 75,
            "name": "D#5",
            "ticks": 178080,
            "time": 556.5,
            "velocity": 1
          },
          {
            "duration": 1.40625,
            "durationTicks": 450,
            "midi": 76,
            "name": "E5",
            "ticks": 178560,
            "time": 558,
            "velocity": 1
          },
          {
            "duration": 1.40625,
            "durationTicks": 450,
            "midi": 78,
            "name": "F#5",
            "ticks": 179040,
            "time": 559.5,
            "velocity": 1
          },
          {
            "duration": 0.7062500000000682,
            "durationTicks": 226,
            "midi": 79,
            "name": "G5",
            "ticks": 179520,
            "time": 561,
            "velocity": 0.905511811023622
          },
          {
            "duration": 0.7062500000000682,
            "durationTicks": 226,
            "midi": 78,
            "name": "F#5",
            "ticks": 179760,
            "time": 561.75,
            "velocity": 0.905511811023622
          },
          {
            "duration": 0.7062500000000682,
            "durationTicks": 226,
            "midi": 76,
            "name": "E5",
            "ticks": 180000,
            "time": 562.5,
            "velocity": 0.905511811023622
          },
          {
            "duration": 0.7062500000000682,
            "durationTicks": 226,
            "midi": 74,
            "name": "D5",
            "ticks": 180240,
            "time": 563.25,
            "velocity": 0.905511811023622
          },
          {
            "duration": 0.7062500000000682,
            "durationTicks": 226,
            "midi": 73,
            "name": "C#5",
            "ticks": 180480,
            "time": 564,
            "velocity": 0.905511811023622
          },
          {
            "duration": 0.7062500000000682,
            "durationTicks": 226,
            "midi": 74,
            "name": "D5",
            "ticks": 180720,
            "time": 564.75,
            "velocity": 0.905511811023622
          },
          {
            "duration": 0.7062500000000682,
            "durationTicks": 226,
            "midi": 73,
            "name": "C#5",
            "ticks": 180960,
            "time": 565.5,
            "velocity": 0.905511811023622
          },
          {
            "duration": 0.7062500000000682,
            "durationTicks": 226,
            "midi": 71,
            "name": "B4",
            "ticks": 181200,
            "time": 566.25,
            "velocity": 0.905511811023622
          },
          {
            "duration": 0.7062500000000682,
            "durationTicks": 226,
            "midi": 66,
            "name": "F#4",
            "ticks": 181440,
            "time": 567,
            "velocity": 1
          },
          {
            "duration": 0.2375000000000682,
            "durationTicks": 76,
            "midi": 66,
            "name": "F#4",
            "ticks": 182400,
            "time": 570,
            "velocity": 1
          },
          {
            "duration": 0.23749999999995453,
            "durationTicks": 76,
            "midi": 68,
            "name": "G#4",
            "ticks": 182480,
            "time": 570.25,
            "velocity": 1
          },
          {
            "duration": 0.23749999999995453,
            "durationTicks": 76,
            "midi": 70,
            "name": "A#4",
            "ticks": 182560,
            "time": 570.5,
            "velocity": 1
          },
          {
            "duration": 0.18124999999997726,
            "durationTicks": 58,
            "midi": 71,
            "name": "B4",
            "ticks": 182640,
            "time": 570.75,
            "velocity": 1
          },
          {
            "duration": 0.18124999999997726,
            "durationTicks": 58,
            "midi": 73,
            "name": "C#5",
            "ticks": 182700,
            "time": 570.9375,
            "velocity": 1
          },
          {
            "duration": 0.18124999999997726,
            "durationTicks": 58,
            "midi": 74,
            "name": "D5",
            "ticks": 182760,
            "time": 571.125,
            "velocity": 1
          },
          {
            "duration": 0.18124999999997726,
            "durationTicks": 58,
            "midi": 76,
            "name": "E5",
            "ticks": 182820,
            "time": 571.3125,
            "velocity": 1
          },
          {
            "duration": 1.40625,
            "durationTicks": 450,
            "midi": 78,
            "name": "F#5",
            "ticks": 182880,
            "time": 571.5,
            "velocity": 1
          },
          {
            "duration": 0.7062500000000682,
            "durationTicks": 226,
            "midi": 76,
            "name": "E5",
            "ticks": 183360,
            "time": 573,
            "velocity": 1
          },
          {
            "duration": 0.7062500000000682,
            "durationTicks": 226,
            "midi": 74,
            "name": "D5",
            "ticks": 183600,
            "time": 573.75,
            "velocity": 1
          },
          {
            "duration": 0.7062500000000682,
            "durationTicks": 226,
            "midi": 73,
            "name": "C#5",
            "ticks": 183840,
            "time": 574.5,
            "velocity": 1
          },
          {
            "duration": 0.7062500000000682,
            "durationTicks": 226,
            "midi": 71,
            "name": "B4",
            "ticks": 184080,
            "time": 575.25,
            "velocity": 1
          },
          {
            "duration": 0.7062500000000682,
            "durationTicks": 226,
            "midi": 74,
            "name": "D5",
            "ticks": 184320,
            "time": 576,
            "velocity": 1
          },
          {
            "duration": 0.7062500000000682,
            "durationTicks": 226,
            "midi": 73,
            "name": "C#5",
            "ticks": 184560,
            "time": 576.75,
            "velocity": 1
          },
          {
            "duration": 0.2375000000000682,
            "durationTicks": 76,
            "midi": 66,
            "name": "F#4",
            "ticks": 185280,
            "time": 579,
            "velocity": 1
          },
          {
            "duration": 0.23749999999995453,
            "durationTicks": 76,
            "midi": 68,
            "name": "G#4",
            "ticks": 185360,
            "time": 579.25,
            "velocity": 1
          },
          {
            "duration": 0.23749999999995453,
            "durationTicks": 76,
            "midi": 70,
            "name": "A#4",
            "ticks": 185440,
            "time": 579.5,
            "velocity": 1
          },
          {
            "duration": 0.18124999999997726,
            "durationTicks": 58,
            "midi": 71,
            "name": "B4",
            "ticks": 185520,
            "time": 579.75,
            "velocity": 1
          },
          {
            "duration": 0.18124999999997726,
            "durationTicks": 58,
            "midi": 73,
            "name": "C#5",
            "ticks": 185580,
            "time": 579.9375,
            "velocity": 1
          },
          {
            "duration": 0.18124999999997726,
            "durationTicks": 58,
            "midi": 74,
            "name": "D5",
            "ticks": 185640,
            "time": 580.125,
            "velocity": 1
          },
          {
            "duration": 0.18124999999997726,
            "durationTicks": 58,
            "midi": 76,
            "name": "E5",
            "ticks": 185700,
            "time": 580.3125,
            "velocity": 1
          },
          {
            "duration": 1.40625,
            "durationTicks": 450,
            "midi": 78,
            "name": "F#5",
            "ticks": 185760,
            "time": 580.5,
            "velocity": 1
          },
          {
            "duration": 0.7062500000000682,
            "durationTicks": 226,
            "midi": 76,
            "name": "E5",
            "ticks": 186240,
            "time": 582,
            "velocity": 1
          },
          {
            "duration": 0.7062500000000682,
            "durationTicks": 226,
            "midi": 74,
            "name": "D5",
            "ticks": 186480,
            "time": 582.75,
            "velocity": 1
          },
          {
            "duration": 0.7062500000000682,
            "durationTicks": 226,
            "midi": 73,
            "name": "C#5",
            "ticks": 186720,
            "time": 583.5,
            "velocity": 1
          },
          {
            "duration": 0.7062500000000682,
            "durationTicks": 226,
            "midi": 71,
            "name": "B4",
            "ticks": 186960,
            "time": 584.25,
            "velocity": 1
          },
          {
            "duration": 0.7062500000000682,
            "durationTicks": 226,
            "midi": 74,
            "name": "D5",
            "ticks": 187200,
            "time": 585,
            "velocity": 1
          },
          {
            "duration": 0.7062500000000682,
            "durationTicks": 226,
            "midi": 73,
            "name": "C#5",
            "ticks": 187440,
            "time": 585.75,
            "velocity": 1
          },
          {
            "duration": 1.40625,
            "durationTicks": 450,
            "midi": 59,
            "name": "B3",
            "ticks": 212640,
            "time": 664.5,
            "velocity": 0.47244094488188976
          },
          {
            "duration": 1.40625,
            "durationTicks": 450,
            "midi": 62,
            "name": "D4",
            "ticks": 212640,
            "time": 664.5,
            "velocity": 0.47244094488188976
          },
          {
            "duration": 2.8125,
            "durationTicks": 900,
            "midi": 60,
            "name": "C4",
            "ticks": 213120,
            "time": 666,
            "velocity": 0.47244094488188976
          },
          {
            "duration": 2.8125,
            "durationTicks": 900,
            "midi": 64,
            "name": "E4",
            "ticks": 213120,
            "time": 666,
            "velocity": 0.47244094488188976
          },
          {
            "duration": 1.40625,
            "durationTicks": 450,
            "midi": 61,
            "name": "C#4",
            "ticks": 214080,
            "time": 669,
            "velocity": 0.47244094488188976
          },
          {
            "duration": 1.40625,
            "durationTicks": 450,
            "midi": 64,
            "name": "E4",
            "ticks": 214080,
            "time": 669,
            "velocity": 0.47244094488188976
          },
          {
            "duration": 2.8125,
            "durationTicks": 900,
            "midi": 62,
            "name": "D4",
            "ticks": 214560,
            "time": 670.5,
            "velocity": 0.47244094488188976
          },
          {
            "duration": 2.8125,
            "durationTicks": 900,
            "midi": 66,
            "name": "F#4",
            "ticks": 214560,
            "time": 670.5,
            "velocity": 0.47244094488188976
          },
          {
            "duration": 1.40625,
            "durationTicks": 450,
            "midi": 59,
            "name": "B3",
            "ticks": 215520,
            "time": 673.5,
            "velocity": 0.47244094488188976
          },
          {
            "duration": 1.40625,
            "durationTicks": 450,
            "midi": 62,
            "name": "D4",
            "ticks": 215520,
            "time": 673.5,
            "velocity": 0.47244094488188976
          },
          {
            "duration": 2.8125,
            "durationTicks": 900,
            "midi": 60,
            "name": "C4",
            "ticks": 216000,
            "time": 675,
            "velocity": 0.47244094488188976
          },
          {
            "duration": 2.8125,
            "durationTicks": 900,
            "midi": 64,
            "name": "E4",
            "ticks": 216000,
            "time": 675,
            "velocity": 0.47244094488188976
          },
          {
            "duration": 1.40625,
            "durationTicks": 450,
            "midi": 61,
            "name": "C#4",
            "ticks": 216960,
            "time": 678,
            "velocity": 0.47244094488188976
          },
          {
            "duration": 1.40625,
            "durationTicks": 450,
            "midi": 64,
            "name": "E4",
            "ticks": 216960,
            "time": 678,
            "velocity": 0.47244094488188976
          },
          {
            "duration": 3.4500000000000455,
            "durationTicks": 1104,
            "midi": 62,
            "name": "D4",
            "ticks": 217440,
            "time": 679.5,
            "velocity": 0.47244094488188976
          },
          {
            "duration": 2.206250000000068,
            "durationTicks": 706,
            "midi": 66,
            "name": "F#4",
            "ticks": 217440,
            "time": 679.5,
            "velocity": 0.47244094488188976
          }
        ]
      },
      {
        "channel": 0,
        "controlChanges": {},
        "pitchBends": [],
        "instrument": {
          "family": "piano",
          "number": 0,
          "name": "acoustic grand piano"
        },
        "name": "Oboes",
        "notes": [],
        "endOfTrackTicks": 218880
      },
      {
        "channel": 1,
        "controlChanges": {
          "7": [
            {
              "number": 7,
              "ticks": 0,
              "time": 0,
              "value": 1
            }
          ],
          "10": [
            {
              "number": 10,
              "ticks": 0,
              "time": 0,
              "value": 0.5354330708661418
            }
          ]
        },
        "pitchBends": [],
        "instrument": {
          "family": "reed",
          "number": 68,
          "name": "oboe"
        },
        "name": "",
        "notes": [
          {
            "duration": 1.40625,
            "durationTicks": 450,
            "midi": 68,
            "name": "G#4",
            "ticks": 14400,
            "time": 45,
            "velocity": 0.6456692913385826
          },
          {
            "duration": 1.40625,
            "durationTicks": 450,
            "midi": 80,
            "name": "G#5",
            "ticks": 14400,
            "time": 45,
            "velocity": 0.6456692913385826
          },
          {
            "duration": 2.112499999999997,
            "durationTicks": 676,
            "midi": 66,
            "name": "F#4",
            "ticks": 14880,
            "time": 46.5,
            "velocity": 0.6771653543307087
          },
          {
            "duration": 2.112499999999997,
            "durationTicks": 676,
            "midi": 78,
            "name": "F#5",
            "ticks": 14880,
            "time": 46.5,
            "velocity": 0.6771653543307087
          },
          {
            "duration": 0.7062499999999972,
            "durationTicks": 226,
            "midi": 65,
            "name": "F4",
            "ticks": 15600,
            "time": 48.75,
            "velocity": 0.7244094488188977
          },
          {
            "duration": 0.7062499999999972,
            "durationTicks": 226,
            "midi": 77,
            "name": "F5",
            "ticks": 15600,
            "time": 48.75,
            "velocity": 0.7244094488188977
          },
          {
            "duration": 1.40625,
            "durationTicks": 450,
            "midi": 73,
            "name": "C#5",
            "ticks": 15840,
            "time": 49.5,
            "velocity": 0.7165354330708661
          },
          {
            "duration": 1.40625,
            "durationTicks": 450,
            "midi": 85,
            "name": "C#6",
            "ticks": 15840,
            "time": 49.5,
            "velocity": 0.7165354330708661
          },
          {
            "duration": 1.0562499999999986,
            "durationTicks": 338,
            "midi": 71,
            "name": "B4",
            "ticks": 16320,
            "time": 51,
            "velocity": 0.6614173228346457
          },
          {
            "duration": 1.0562499999999986,
            "durationTicks": 338,
            "midi": 83,
            "name": "B5",
            "ticks": 16320,
            "time": 51,
            "velocity": 0.6614173228346457
          },
          {
            "duration": 0.35624999999999574,
            "durationTicks": 114,
            "midi": 69,
            "name": "A4",
            "ticks": 16680,
            "time": 52.125,
            "velocity": 0.6220472440944882
          },
          {
            "duration": 0.35624999999999574,
            "durationTicks": 114,
            "midi": 81,
            "name": "A5",
            "ticks": 16680,
            "time": 52.125,
            "velocity": 0.6220472440944882
          },
          {
            "duration": 0.7062499999999972,
            "durationTicks": 226,
            "midi": 68,
            "name": "G#4",
            "ticks": 16800,
            "time": 52.5,
            "velocity": 0.6062992125984252
          },
          {
            "duration": 0.7062499999999972,
            "durationTicks": 226,
            "midi": 80,
            "name": "G#5",
            "ticks": 16800,
            "time": 52.5,
            "velocity": 0.6062992125984252
          },
          {
            "duration": 0.7062499999999972,
            "durationTicks": 226,
            "midi": 69,
            "name": "A4",
            "ticks": 17040,
            "time": 53.25,
            "velocity": 0.5748031496062992
          },
          {
            "duration": 0.7062499999999972,
            "durationTicks": 226,
            "midi": 81,
            "name": "A5",
            "ticks": 17040,
            "time": 53.25,
            "velocity": 0.5748031496062992
          },
          {
            "duration": 1.0562499999999986,
            "durationTicks": 338,
            "midi": 68,
            "name": "G#4",
            "ticks": 17280,
            "time": 54,
            "velocity": 0.6614173228346457
          },
          {
            "duration": 1.0562499999999986,
            "durationTicks": 338,
            "midi": 80,
            "name": "G#5",
            "ticks": 17280,
            "time": 54,
            "velocity": 0.6614173228346457
          },
          {
            "duration": 0.35624999999999574,
            "durationTicks": 114,
            "midi": 66,
            "name": "F#4",
            "ticks": 17640,
            "time": 55.125,
            "velocity": 0.6220472440944882
          },
          {
            "duration": 0.35624999999999574,
            "durationTicks": 114,
            "midi": 78,
            "name": "F#5",
            "ticks": 17640,
            "time": 55.125,
            "velocity": 0.6220472440944882
          },
          {
            "duration": 0.7062499999999972,
            "durationTicks": 226,
            "midi": 65,
            "name": "F4",
            "ticks": 17760,
            "time": 55.5,
            "velocity": 0.6062992125984252
          },
          {
            "duration": 0.7062499999999972,
            "durationTicks": 226,
            "midi": 77,
            "name": "F5",
            "ticks": 17760,
            "time": 55.5,
            "velocity": 0.6062992125984252
          },
          {
            "duration": 0.7062499999999972,
            "durationTicks": 226,
            "midi": 66,
            "name": "F#4",
            "ticks": 18000,
            "time": 56.25,
            "velocity": 0.5748031496062992
          },
          {
            "duration": 0.7062499999999972,
            "durationTicks": 226,
            "midi": 78,
            "name": "F#5",
            "ticks": 18000,
            "time": 56.25,
            "velocity": 0.5748031496062992
          },
          {
            "duration": 1.40625,
            "durationTicks": 450,
            "midi": 69,
            "name": "A4",
            "ticks": 77280,
            "time": 241.5,
            "velocity": 0.49606299212598426
          },
          {
            "duration": 1.40625,
            "durationTicks": 450,
            "midi": 81,
            "name": "A5",
            "ticks": 77280,
            "time": 241.5,
            "velocity": 0.49606299212598426
          },
          {
            "duration": 2.8125,
            "durationTicks": 900,
            "midi": 67,
            "name": "G4",
            "ticks": 77760,
            "time": 243,
            "velocity": 0.47244094488188976
          },
          {
            "duration": 2.8125,
            "durationTicks": 900,
            "midi": 79,
            "name": "G5",
            "ticks": 77760,
            "time": 243,
            "velocity": 0.47244094488188976
          },
          {
            "duration": 1.40625,
            "durationTicks": 450,
            "midi": 61,
            "name": "C#4",
            "ticks": 78720,
            "time": 246,
            "velocity": 0.49606299212598426
          },
          {
            "duration": 1.40625,
            "durationTicks": 450,
            "midi": 73,
            "name": "C#5",
            "ticks": 78720,
            "time": 246,
            "velocity": 0.49606299212598426
          },
          {
            "duration": 2.8125,
            "durationTicks": 900,
            "midi": 62,
            "name": "D4",
            "ticks": 79200,
            "time": 247.5,
            "velocity": 0.5118110236220472
          },
          {
            "duration": 2.8125,
            "durationTicks": 900,
            "midi": 74,
            "name": "D5",
            "ticks": 79200,
            "time": 247.5,
            "velocity": 0.5118110236220472
          },
          {
            "duration": 1.40625,
            "durationTicks": 450,
            "midi": 69,
            "name": "A4",
            "ticks": 80160,
            "time": 250.5,
            "velocity": 0.5433070866141733
          },
          {
            "duration": 1.40625,
            "durationTicks": 450,
            "midi": 81,
            "name": "A5",
            "ticks": 80160,
            "time": 250.5,
            "velocity": 0.5433070866141733
          },
          {
            "duration": 2.8125,
            "durationTicks": 900,
            "midi": 67,
            "name": "G4",
            "ticks": 80640,
            "time": 252,
            "velocity": 0.5511811023622047
          },
          {
            "duration": 2.8125,
            "durationTicks": 900,
            "midi": 79,
            "name": "G5",
            "ticks": 80640,
            "time": 252,
            "velocity": 0.5511811023622047
          },
          {
            "duration": 1.40625,
            "durationTicks": 450,
            "midi": 61,
            "name": "C#4",
            "ticks": 81600,
            "time": 255,
            "velocity": 0.5826771653543307
          },
          {
            "duration": 1.40625,
            "durationTicks": 450,
            "midi": 73,
            "name": "C#5",
            "ticks": 81600,
            "time": 255,
            "velocity": 0.5826771653543307
          },
          {
            "duration": 2.8125,
            "durationTicks": 900,
            "midi": 62,
            "name": "D4",
            "ticks": 82080,
            "time": 256.5,
            "velocity": 0.5905511811023622
          },
          {
            "duration": 2.8125,
            "durationTicks": 900,
            "midi": 74,
            "name": "D5",
            "ticks": 82080,
            "time": 256.5,
            "velocity": 0.5905511811023622
          },
          {
            "duration": 1.40625,
            "durationTicks": 450,
            "midi": 72,
            "name": "C5",
            "ticks": 83040,
            "time": 259.5,
            "velocity": 0.6220472440944882
          },
          {
            "duration": 1.40625,
            "durationTicks": 450,
            "midi": 84,
            "name": "C6",
            "ticks": 83040,
            "time": 259.5,
            "velocity": 0.6220472440944882
          },
          {
            "duration": 2.8125,
            "durationTicks": 900,
            "midi": 71,
            "name": "B4",
            "ticks": 83520,
            "time": 261,
            "velocity": 0.6377952755905512
          },
          {
            "duration": 2.8125,
            "durationTicks": 900,
            "midi": 83,
            "name": "B5",
            "ticks": 83520,
            "time": 261,
            "velocity": 0.6377952755905512
          },
          {
            "duration": 1.40625,
            "durationTicks": 450,
            "midi": 64,
            "name": "E4",
            "ticks": 84480,
            "time": 264,
            "velocity": 0.6614173228346457
          },
          {
            "duration": 1.40625,
            "durationTicks": 450,
            "midi": 76,
            "name": "E5",
            "ticks": 84480,
            "time": 264,
            "velocity": 0.6614173228346457
          },
          {
            "duration": 1.40625,
            "durationTicks": 450,
            "midi": 64,
            "name": "E4",
            "ticks": 84960,
            "time": 265.5,
            "velocity": 0.6771653543307087
          },
          {
            "duration": 1.40625,
            "durationTicks": 450,
            "midi": 76,
            "name": "E5",
            "ticks": 84960,
            "time": 265.5,
            "velocity": 0.6771653543307087
          },
          {
            "duration": 1.40625,
            "durationTicks": 450,
            "midi": 66,
            "name": "F#4",
            "ticks": 85440,
            "time": 267,
            "velocity": 0.6850393700787402
          },
          {
            "duration": 1.40625,
            "durationTicks": 450,
            "midi": 78,
            "name": "F#5",
            "ticks": 85440,
            "time": 267,
            "velocity": 0.6850393700787402
          },
          {
            "duration": 1.40625,
            "durationTicks": 450,
            "midi": 71,
            "name": "B4",
            "ticks": 85920,
            "time": 268.5,
            "velocity": 0.7007874015748031
          },
          {
            "duration": 1.40625,
            "durationTicks": 450,
            "midi": 83,
            "name": "B5",
            "ticks": 85920,
            "time": 268.5,
            "velocity": 0.7007874015748031
          },
          {
            "duration": 4.21875,
            "durationTicks": 1350,
            "midi": 71,
            "name": "B4",
            "ticks": 86400,
            "time": 270,
            "velocity": 0.7165354330708661
          },
          {
            "duration": 4.21875,
            "durationTicks": 1350,
            "midi": 83,
            "name": "B5",
            "ticks": 86400,
            "time": 270,
            "velocity": 0.7165354330708661
          },
          {
            "duration": 1.40625,
            "durationTicks": 450,
            "midi": 71,
            "name": "B4",
            "ticks": 87840,
            "time": 274.5,
            "velocity": 0.6692913385826772
          },
          {
            "duration": 1.40625,
            "durationTicks": 450,
            "midi": 83,
            "name": "B5",
            "ticks": 87840,
            "time": 274.5,
            "velocity": 0.6692913385826772
          },
          {
            "duration": 1.40625,
            "durationTicks": 450,
            "midi": 70,
            "name": "A#4",
            "ticks": 88320,
            "time": 276,
            "velocity": 0.6692913385826772
          },
          {
            "duration": 1.40625,
            "durationTicks": 450,
            "midi": 82,
            "name": "A#5",
            "ticks": 88320,
            "time": 276,
            "velocity": 0.6692913385826772
          },
          {
            "duration": 0.46875,
            "durationTicks": 150,
            "midi": 70,
            "name": "A#4",
            "ticks": 88800,
            "time": 277.5,
            "velocity": 0.6692913385826772
          },
          {
            "duration": 0.46875,
            "durationTicks": 150,
            "midi": 82,
            "name": "A#5",
            "ticks": 88800,
            "time": 277.5,
            "velocity": 0.6692913385826772
          },
          {
            "duration": 0.46875,
            "durationTicks": 150,
            "midi": 69,
            "name": "A4",
            "ticks": 88960,
            "time": 278,
            "velocity": 0.6692913385826772
          },
          {
            "duration": 0.46875,
            "durationTicks": 150,
            "midi": 81,
            "name": "A5",
            "ticks": 88960,
            "time": 278,
            "velocity": 0.6692913385826772
          },
          {
            "duration": 0.96875,
            "durationTicks": 310,
            "midi": 69,
            "name": "A4",
            "ticks": 89120,
            "time": 278.5,
            "velocity": 0.6692913385826772
          },
          {
            "duration": 0.96875,
            "durationTicks": 310,
            "midi": 81,
            "name": "A5",
            "ticks": 89120,
            "time": 278.5,
            "velocity": 0.6692913385826772
          },
          {
            "duration": 0.46875,
            "durationTicks": 150,
            "midi": 69,
            "name": "A4",
            "ticks": 89440,
            "time": 279.5,
            "velocity": 0.6692913385826772
          },
          {
            "duration": 0.46875,
            "durationTicks": 150,
            "midi": 81,
            "name": "A5",
            "ticks": 89440,
            "time": 279.5,
            "velocity": 0.6692913385826772
          },
          {
            "duration": 0.96875,
            "durationTicks": 310,
            "midi": 69,
            "name": "A4",
            "ticks": 89600,
            "time": 280,
            "velocity": 0.6692913385826772
          },
          {
            "duration": 0.96875,
            "durationTicks": 310,
            "midi": 81,
            "name": "A5",
            "ticks": 89600,
            "time": 280,
            "velocity": 0.6692913385826772
          },
          {
            "duration": 0.46875,
            "durationTicks": 150,
            "midi": 69,
            "name": "A4",
            "ticks": 89920,
            "time": 281,
            "velocity": 0.6692913385826772
          },
          {
            "duration": 0.46875,
            "durationTicks": 150,
            "midi": 81,
            "name": "A5",
            "ticks": 89920,
            "time": 281,
            "velocity": 0.6692913385826772
          },
          {
            "duration": 0.96875,
            "durationTicks": 310,
            "midi": 69,
            "name": "A4",
            "ticks": 90080,
            "time": 281.5,
            "velocity": 0.6692913385826772
          },
          {
            "duration": 0.96875,
            "durationTicks": 310,
            "midi": 81,
            "name": "A5",
            "ticks": 90080,
            "time": 281.5,
            "velocity": 0.6692913385826772
          },
          {
            "duration": 0.46875,
            "durationTicks": 150,
            "midi": 68,
            "name": "G#4",
            "ticks": 90400,
            "time": 282.5,
            "velocity": 0.6692913385826772
          },
          {
            "duration": 0.46875,
            "durationTicks": 150,
            "midi": 80,
            "name": "G#5",
            "ticks": 90400,
            "time": 282.5,
            "velocity": 0.6692913385826772
          },
          {
            "duration": 0.46875,
            "durationTicks": 150,
            "midi": 68,
            "name": "G#4",
            "ticks": 90560,
            "time": 283,
            "velocity": 0.6692913385826772
          },
          {
            "duration": 0.46875,
            "durationTicks": 150,
            "midi": 80,
            "name": "G#5",
            "ticks": 90560,
            "time": 283,
            "velocity": 0.6692913385826772
          },
          {
            "duration": 0.46875,
            "durationTicks": 150,
            "midi": 69,
            "name": "A4",
            "ticks": 90880,
            "time": 284,
            "velocity": 0.6299212598425197
          },
          {
            "duration": 0.46875,
            "durationTicks": 150,
            "midi": 81,
            "name": "A5",
            "ticks": 90880,
            "time": 284,
            "velocity": 0.6299212598425197
          },
          {
            "duration": 0.46875,
            "durationTicks": 150,
            "midi": 69,
            "name": "A4",
            "ticks": 91040,
            "time": 284.5,
            "velocity": 0.6299212598425197
          },
          {
            "duration": 0.96875,
            "durationTicks": 310,
            "midi": 81,
            "name": "A5",
            "ticks": 91040,
            "time": 284.5,
            "velocity": 0.6299212598425197
          },
          {
            "duration": 0.46875,
            "durationTicks": 150,
            "midi": 69,
            "name": "A4",
            "ticks": 91200,
            "time": 285,
            "velocity": 0.6299212598425197
          },
          {
            "duration": 0.46875,
            "durationTicks": 150,
            "midi": 69,
            "name": "A4",
            "ticks": 91360,
            "time": 285.5,
            "velocity": 0.6299212598425197
          },
          {
            "duration": 0.46875,
            "durationTicks": 150,
            "midi": 81,
            "name": "A5",
            "ticks": 91360,
            "time": 285.5,
            "velocity": 0.6299212598425197
          },
          {
            "duration": 0.46875,
            "durationTicks": 150,
            "midi": 69,
            "name": "A4",
            "ticks": 91520,
            "time": 286,
            "velocity": 0.6299212598425197
          },
          {
            "duration": 0.96875,
            "durationTicks": 310,
            "midi": 81,
            "name": "A5",
            "ticks": 91520,
            "time": 286,
            "velocity": 0.6299212598425197
          },
          {
            "duration": 0.46875,
            "durationTicks": 150,
            "midi": 69,
            "name": "A4",
            "ticks": 91680,
            "time": 286.5,
            "velocity": 0.6299212598425197
          },
          {
            "duration": 0.46875,
            "durationTicks": 150,
            "midi": 69,
            "name": "A4",
            "ticks": 91840,
            "time": 287,
            "velocity": 0.6299212598425197
          },
          {
            "duration": 0.46875,
            "durationTicks": 150,
            "midi": 81,
            "name": "A5",
            "ticks": 91840,
            "time": 287,
            "velocity": 0.6299212598425197
          },
          {
            "duration": 0.46875,
            "durationTicks": 150,
            "midi": 69,
            "name": "A4",
            "ticks": 92000,
            "time": 287.5,
            "velocity": 0.6299212598425197
          },
          {
            "duration": 0.96875,
            "durationTicks": 310,
            "midi": 81,
            "name": "A5",
            "ticks": 92000,
            "time": 287.5,
            "velocity": 0.6299212598425197
          },
          {
            "duration": 0.46875,
            "durationTicks": 150,
            "midi": 69,
            "name": "A4",
            "ticks": 92160,
            "time": 288,
            "velocity": 0.6299212598425197
          },
          {
            "duration": 0.46875,
            "durationTicks": 150,
            "midi": 69,
            "name": "A4",
            "ticks": 92320,
            "time": 288.5,
            "velocity": 0.6299212598425197
          },
          {
            "duration": 0.46875,
            "durationTicks": 150,
            "midi": 81,
            "name": "A5",
            "ticks": 92320,
            "time": 288.5,
            "velocity": 0.6299212598425197
          },
          {
            "duration": 0.46875,
            "durationTicks": 150,
            "midi": 69,
            "name": "A4",
            "ticks": 92480,
            "time": 289,
            "velocity": 0.6299212598425197
          },
          {
            "duration": 0.96875,
            "durationTicks": 310,
            "midi": 81,
            "name": "A5",
            "ticks": 92480,
            "time": 289,
            "velocity": 0.6299212598425197
          },
          {
            "duration": 0.46875,
            "durationTicks": 150,
            "midi": 69,
            "name": "A4",
            "ticks": 92640,
            "time": 289.5,
            "velocity": 0.6299212598425197
          },
          {
            "duration": 0.46875,
            "durationTicks": 150,
            "midi": 69,
            "name": "A4",
            "ticks": 92800,
            "time": 290,
            "velocity": 0.6299212598425197
          },
          {
            "duration": 0.46875,
            "durationTicks": 150,
            "midi": 81,
            "name": "A5",
            "ticks": 92800,
            "time": 290,
            "velocity": 0.6299212598425197
          },
          {
            "duration": 0.46875,
            "durationTicks": 150,
            "midi": 69,
            "name": "A4",
            "ticks": 92960,
            "time": 290.5,
            "velocity": 0.6299212598425197
          },
          {
            "duration": 0.96875,
            "durationTicks": 310,
            "midi": 81,
            "name": "A5",
            "ticks": 92960,
            "time": 290.5,
            "velocity": 0.6299212598425197
          },
          {
            "duration": 0.46875,
            "durationTicks": 150,
            "midi": 69,
            "name": "A4",
            "ticks": 93120,
            "time": 291,
            "velocity": 0.6299212598425197
          },
          {
            "duration": 0.46875,
            "durationTicks": 150,
            "midi": 68,
            "name": "G#4",
            "ticks": 93280,
            "time": 291.5,
            "velocity": 0.6299212598425197
          },
          {
            "duration": 0.46875,
            "durationTicks": 150,
            "midi": 80,
            "name": "G#5",
            "ticks": 93280,
            "time": 291.5,
            "velocity": 0.6299212598425197
          },
          {
            "duration": 0.46875,
            "durationTicks": 150,
            "midi": 68,
            "name": "G#4",
            "ticks": 93440,
            "time": 292,
            "velocity": 0.6299212598425197
          },
          {
            "duration": 0.46875,
            "durationTicks": 150,
            "midi": 80,
            "name": "G#5",
            "ticks": 93440,
            "time": 292,
            "velocity": 0.6299212598425197
          },
          {
            "duration": 0.46875,
            "durationTicks": 150,
            "midi": 69,
            "name": "A4",
            "ticks": 93760,
            "time": 293,
            "velocity": 0.5748031496062992
          },
          {
            "duration": 0.46875,
            "durationTicks": 150,
            "midi": 81,
            "name": "A5",
            "ticks": 93760,
            "time": 293,
            "velocity": 0.5748031496062992
          },
          {
            "duration": 0.96875,
            "durationTicks": 310,
            "midi": 69,
            "name": "A4",
            "ticks": 93920,
            "time": 293.5,
            "velocity": 0.5826771653543307
          },
          {
            "duration": 0.96875,
            "durationTicks": 310,
            "midi": 81,
            "name": "A5",
            "ticks": 93920,
            "time": 293.5,
            "velocity": 0.5826771653543307
          },
          {
            "duration": 0.46875,
            "durationTicks": 150,
            "midi": 69,
            "name": "A4",
            "ticks": 94240,
            "time": 294.5,
            "velocity": 0.5905511811023622
          },
          {
            "duration": 0.46875,
            "durationTicks": 150,
            "midi": 81,
            "name": "A5",
            "ticks": 94240,
            "time": 294.5,
            "velocity": 0.5905511811023622
          },
          {
            "duration": 0.96875,
            "durationTicks": 310,
            "midi": 69,
            "name": "A4",
            "ticks": 94400,
            "time": 295,
            "velocity": 0.5984251968503937
          },
          {
            "duration": 0.96875,
            "durationTicks": 310,
            "midi": 81,
            "name": "A5",
            "ticks": 94400,
            "time": 295,
            "velocity": 0.5984251968503937
          },
          {
            "duration": 0.46875,
            "durationTicks": 150,
            "midi": 69,
            "name": "A4",
            "ticks": 94720,
            "time": 296,
            "velocity": 0.6062992125984252
          },
          {
            "duration": 0.46875,
            "durationTicks": 150,
            "midi": 81,
            "name": "A5",
            "ticks": 94720,
            "time": 296,
            "velocity": 0.6062992125984252
          },
          {
            "duration": 0.46875,
            "durationTicks": 150,
            "midi": 69,
            "name": "A4",
            "ticks": 94880,
            "time": 296.5,
            "velocity": 0.6141732283464567
          },
          {
            "duration": 0.46875,
            "durationTicks": 150,
            "midi": 81,
            "name": "A5",
            "ticks": 94880,
            "time": 296.5,
            "velocity": 0.6141732283464567
          },
          {
            "duration": 0.46875,
            "durationTicks": 150,
            "midi": 71,
            "name": "B4",
            "ticks": 95200,
            "time": 297.5,
            "velocity": 0.5748031496062992
          },
          {
            "duration": 0.46875,
            "durationTicks": 150,
            "midi": 83,
            "name": "B5",
            "ticks": 95200,
            "time": 297.5,
            "velocity": 0.5748031496062992
          },
          {
            "duration": 0.96875,
            "durationTicks": 310,
            "midi": 71,
            "name": "B4",
            "ticks": 95360,
            "time": 298,
            "velocity": 0.5826771653543307
          },
          {
            "duration": 0.96875,
            "durationTicks": 310,
            "midi": 83,
            "name": "B5",
            "ticks": 95360,
            "time": 298,
            "velocity": 0.5826771653543307
          },
          {
            "duration": 0.46875,
            "durationTicks": 150,
            "midi": 71,
            "name": "B4",
            "ticks": 95680,
            "time": 299,
            "velocity": 0.5905511811023622
          },
          {
            "duration": 0.46875,
            "durationTicks": 150,
            "midi": 83,
            "name": "B5",
            "ticks": 95680,
            "time": 299,
            "velocity": 0.5905511811023622
          },
          {
            "duration": 0.96875,
            "durationTicks": 310,
            "midi": 71,
            "name": "B4",
            "ticks": 95840,
            "time": 299.5,
            "velocity": 0.5984251968503937
          },
          {
            "duration": 0.96875,
            "durationTicks": 310,
            "midi": 83,
            "name": "B5",
            "ticks": 95840,
            "time": 299.5,
            "velocity": 0.5984251968503937
          },
          {
            "duration": 0.46875,
            "durationTicks": 150,
            "midi": 71,
            "name": "B4",
            "ticks": 96160,
            "time": 300.5,
            "velocity": 0.6062992125984252
          },
          {
            "duration": 0.46875,
            "durationTicks": 150,
            "midi": 83,
            "name": "B5",
            "ticks": 96160,
            "time": 300.5,
            "velocity": 0.6062992125984252
          },
          {
            "duration": 0.46875,
            "durationTicks": 150,
            "midi": 71,
            "name": "B4",
            "ticks": 96320,
            "time": 301,
            "velocity": 0.6141732283464567
          },
          {
            "duration": 0.46875,
            "durationTicks": 150,
            "midi": 83,
            "name": "B5",
            "ticks": 96320,
            "time": 301,
            "velocity": 0.6141732283464567
          },
          {
            "duration": 0.46875,
            "durationTicks": 150,
            "midi": 73,
            "name": "C#5",
            "ticks": 96640,
            "time": 302,
            "velocity": 0.5748031496062992
          },
          {
            "duration": 0.46875,
            "durationTicks": 150,
            "midi": 85,
            "name": "C#6",
            "ticks": 96640,
            "time": 302,
            "velocity": 0.5748031496062992
          },
          {
            "duration": 0.96875,
            "durationTicks": 310,
            "midi": 73,
            "name": "C#5",
            "ticks": 96800,
            "time": 302.5,
            "velocity": 0.5826771653543307
          },
          {
            "duration": 0.96875,
            "durationTicks": 310,
            "midi": 85,
            "name": "C#6",
            "ticks": 96800,
            "time": 302.5,
            "velocity": 0.5826771653543307
          },
          {
            "duration": 0.46875,
            "durationTicks": 150,
            "midi": 73,
            "name": "C#5",
            "ticks": 97120,
            "time": 303.5,
            "velocity": 0.5905511811023622
          },
          {
            "duration": 0.46875,
            "durationTicks": 150,
            "midi": 85,
            "name": "C#6",
            "ticks": 97120,
            "time": 303.5,
            "velocity": 0.5905511811023622
          },
          {
            "duration": 0.96875,
            "durationTicks": 310,
            "midi": 73,
            "name": "C#5",
            "ticks": 97280,
            "time": 304,
            "velocity": 0.5984251968503937
          },
          {
            "duration": 0.96875,
            "durationTicks": 310,
            "midi": 85,
            "name": "C#6",
            "ticks": 97280,
            "time": 304,
            "velocity": 0.5984251968503937
          },
          {
            "duration": 0.46875,
            "durationTicks": 150,
            "midi": 73,
            "name": "C#5",
            "ticks": 97600,
            "time": 305,
            "velocity": 0.6062992125984252
          },
          {
            "duration": 0.46875,
            "durationTicks": 150,
            "midi": 85,
            "name": "C#6",
            "ticks": 97600,
            "time": 305,
            "velocity": 0.6062992125984252
          },
          {
            "duration": 0.46875,
            "durationTicks": 150,
            "midi": 73,
            "name": "C#5",
            "ticks": 97760,
            "time": 305.5,
            "velocity": 0.6141732283464567
          },
          {
            "duration": 0.46875,
            "durationTicks": 150,
            "midi": 85,
            "name": "C#6",
            "ticks": 97760,
            "time": 305.5,
            "velocity": 0.6141732283464567
          },
          {
            "duration": 0.46875,
            "durationTicks": 150,
            "midi": 74,
            "name": "D5",
            "ticks": 98080,
            "time": 306.5,
            "velocity": 0.6377952755905512
          },
          {
            "duration": 0.46875,
            "durationTicks": 150,
            "midi": 86,
            "name": "D6",
            "ticks": 98080,
            "time": 306.5,
            "velocity": 0.6377952755905512
          },
          {
            "duration": 0.96875,
            "durationTicks": 310,
            "midi": 62,
            "name": "D4",
            "ticks": 98240,
            "time": 307,
            "velocity": 0.6456692913385826
          },
          {
            "duration": 0.96875,
            "durationTicks": 310,
            "midi": 74,
            "name": "D5",
            "ticks": 98240,
            "time": 307,
            "velocity": 0.6456692913385826
          },
          {
            "duration": 0.46875,
            "durationTicks": 150,
            "midi": 62,
            "name": "D4",
            "ticks": 98560,
            "time": 308,
            "velocity": 0.6692913385826772
          },
          {
            "duration": 0.46875,
            "durationTicks": 150,
            "midi": 74,
            "name": "D5",
            "ticks": 98560,
            "time": 308,
            "velocity": 0.6692913385826772
          },
          {
            "duration": 0.96875,
            "durationTicks": 310,
            "midi": 62,
            "name": "D4",
            "ticks": 98720,
            "time": 308.5,
            "velocity": 0.6771653543307087
          },
          {
            "duration": 0.96875,
            "durationTicks": 310,
            "midi": 74,
            "name": "D5",
            "ticks": 98720,
            "time": 308.5,
            "velocity": 0.6771653543307087
          },
          {
            "duration": 0.46875,
            "durationTicks": 150,
            "midi": 62,
            "name": "D4",
            "ticks": 99040,
            "time": 309.5,
            "velocity": 0.7007874015748031
          },
          {
            "duration": 0.46875,
            "durationTicks": 150,
            "midi": 74,
            "name": "D5",
            "ticks": 99040,
            "time": 309.5,
            "velocity": 0.7007874015748031
          },
          {
            "duration": 0.46875,
            "durationTicks": 150,
            "midi": 62,
            "name": "D4",
            "ticks": 99200,
            "time": 310,
            "velocity": 0.7086614173228346
          },
          {
            "duration": 0.46875,
            "durationTicks": 150,
            "midi": 74,
            "name": "D5",
            "ticks": 99200,
            "time": 310,
            "velocity": 0.7086614173228346
          },
          {
            "duration": 0.46875,
            "durationTicks": 150,
            "midi": 64,
            "name": "E4",
            "ticks": 99520,
            "time": 311,
            "velocity": 0.7322834645669292
          },
          {
            "duration": 0.46875,
            "durationTicks": 150,
            "midi": 76,
            "name": "E5",
            "ticks": 99520,
            "time": 311,
            "velocity": 0.7322834645669292
          },
          {
            "duration": 0.96875,
            "durationTicks": 310,
            "midi": 64,
            "name": "E4",
            "ticks": 99680,
            "time": 311.5,
            "velocity": 0.7401574803149606
          },
          {
            "duration": 0.96875,
            "durationTicks": 310,
            "midi": 76,
            "name": "E5",
            "ticks": 99680,
            "time": 311.5,
            "velocity": 0.7401574803149606
          },
          {
            "duration": 0.46875,
            "durationTicks": 150,
            "midi": 64,
            "name": "E4",
            "ticks": 100000,
            "time": 312.5,
            "velocity": 0.7637795275590551
          },
          {
            "duration": 0.46875,
            "durationTicks": 150,
            "midi": 76,
            "name": "E5",
            "ticks": 100000,
            "time": 312.5,
            "velocity": 0.7637795275590551
          },
          {
            "duration": 0.96875,
            "durationTicks": 310,
            "midi": 64,
            "name": "E4",
            "ticks": 100160,
            "time": 313,
            "velocity": 0.7716535433070866
          },
          {
            "duration": 0.96875,
            "durationTicks": 310,
            "midi": 76,
            "name": "E5",
            "ticks": 100160,
            "time": 313,
            "velocity": 0.7716535433070866
          },
          {
            "duration": 0.46875,
            "durationTicks": 150,
            "midi": 64,
            "name": "E4",
            "ticks": 100480,
            "time": 314,
            "velocity": 0.7952755905511811
          },
          {
            "duration": 0.46875,
            "durationTicks": 150,
            "midi": 76,
            "name": "E5",
            "ticks": 100480,
            "time": 314,
            "velocity": 0.7952755905511811
          },
          {
            "duration": 0.46875,
            "durationTicks": 150,
            "midi": 64,
            "name": "E4",
            "ticks": 100640,
            "time": 314.5,
            "velocity": 0.8031496062992126
          },
          {
            "duration": 0.46875,
            "durationTicks": 150,
            "midi": 76,
            "name": "E5",
            "ticks": 100640,
            "time": 314.5,
            "velocity": 0.8031496062992126
          },
          {
            "duration": 0.46875,
            "durationTicks": 150,
            "midi": 66,
            "name": "F#4",
            "ticks": 100800,
            "time": 315,
            "velocity": 0.8661417322834646
          },
          {
            "duration": 0.46875,
            "durationTicks": 150,
            "midi": 78,
            "name": "F#5",
            "ticks": 100800,
            "time": 315,
            "velocity": 0.8661417322834646
          },
          {
            "duration": 0.46875,
            "durationTicks": 150,
            "midi": 78,
            "name": "F#5",
            "ticks": 100960,
            "time": 315.5,
            "velocity": 0.8661417322834646
          },
          {
            "duration": 0.96875,
            "durationTicks": 310,
            "midi": 78,
            "name": "F#5",
            "ticks": 101120,
            "time": 316,
            "velocity": 0.8661417322834646
          },
          {
            "duration": 0.46875,
            "durationTicks": 150,
            "midi": 78,
            "name": "F#5",
            "ticks": 101440,
            "time": 317,
            "velocity": 0.8661417322834646
          },
          {
            "duration": 0.96875,
            "durationTicks": 310,
            "midi": 78,
            "name": "F#5",
            "ticks": 101600,
            "time": 317.5,
            "velocity": 0.8661417322834646
          },
          {
            "duration": 0.46875,
            "durationTicks": 150,
            "midi": 78,
            "name": "F#5",
            "ticks": 101920,
            "time": 318.5,
            "velocity": 0.8661417322834646
          },
          {
            "duration": 0.96875,
            "durationTicks": 310,
            "midi": 78,
            "name": "F#5",
            "ticks": 102080,
            "time": 319,
            "velocity": 0.8661417322834646
          },
          {
            "duration": 0.46875,
            "durationTicks": 150,
            "midi": 72,
            "name": "C5",
            "ticks": 103680,
            "time": 324,
            "velocity": 0.8661417322834646
          },
          {
            "duration": 0.46875,
            "durationTicks": 150,
            "midi": 76,
            "name": "E5",
            "ticks": 103680,
            "time": 324,
            "velocity": 0.8661417322834646
          },
          {
            "duration": 0.46875,
            "durationTicks": 150,
            "midi": 72,
            "name": "C5",
            "ticks": 103840,
            "time": 324.5,
            "velocity": 0.8661417322834646
          },
          {
            "duration": 0.46875,
            "durationTicks": 150,
            "midi": 76,
            "name": "E5",
            "ticks": 103840,
            "time": 324.5,
            "velocity": 0.8661417322834646
          },
          {
            "duration": 0.96875,
            "durationTicks": 310,
            "midi": 72,
            "name": "C5",
            "ticks": 104000,
            "time": 325,
            "velocity": 0.8661417322834646
          },
          {
            "duration": 0.96875,
            "durationTicks": 310,
            "midi": 76,
            "name": "E5",
            "ticks": 104000,
            "time": 325,
            "velocity": 0.8661417322834646
          },
          {
            "duration": 0.46875,
            "durationTicks": 150,
            "midi": 72,
            "name": "C5",
            "ticks": 104320,
            "time": 326,
            "velocity": 0.8661417322834646
          },
          {
            "duration": 0.46875,
            "durationTicks": 150,
            "midi": 76,
            "name": "E5",
            "ticks": 104320,
            "time": 326,
            "velocity": 0.8661417322834646
          },
          {
            "duration": 0.96875,
            "durationTicks": 310,
            "midi": 72,
            "name": "C5",
            "ticks": 104480,
            "time": 326.5,
            "velocity": 0.8661417322834646
          },
          {
            "duration": 0.96875,
            "durationTicks": 310,
            "midi": 76,
            "name": "E5",
            "ticks": 104480,
            "time": 326.5,
            "velocity": 0.8661417322834646
          },
          {
            "duration": 0.46875,
            "durationTicks": 150,
            "midi": 72,
            "name": "C5",
            "ticks": 104800,
            "time": 327.5,
            "velocity": 0.8661417322834646
          },
          {
            "duration": 0.46875,
            "durationTicks": 150,
            "midi": 76,
            "name": "E5",
            "ticks": 104800,
            "time": 327.5,
            "velocity": 0.8661417322834646
          },
          {
            "duration": 0.96875,
            "durationTicks": 310,
            "midi": 72,
            "name": "C5",
            "ticks": 104960,
            "time": 328,
            "velocity": 0.8661417322834646
          },
          {
            "duration": 0.96875,
            "durationTicks": 310,
            "midi": 76,
            "name": "E5",
            "ticks": 104960,
            "time": 328,
            "velocity": 0.8661417322834646
          },
          {
            "duration": 0.46875,
            "durationTicks": 150,
            "midi": 79,
            "name": "G5",
            "ticks": 106560,
            "time": 333,
            "velocity": 0.8661417322834646
          },
          {
            "duration": 0.46875,
            "durationTicks": 150,
            "midi": 84,
            "name": "C6",
            "ticks": 106560,
            "time": 333,
            "velocity": 0.8661417322834646
          },
          {
            "duration": 0.46875,
            "durationTicks": 150,
            "midi": 79,
            "name": "G5",
            "ticks": 106720,
            "time": 333.5,
            "velocity": 0.8661417322834646
          },
          {
            "duration": 0.46875,
            "durationTicks": 150,
            "midi": 84,
            "name": "C6",
            "ticks": 106720,
            "time": 333.5,
            "velocity": 0.8661417322834646
          },
          {
            "duration": 0.96875,
            "durationTicks": 310,
            "midi": 79,
            "name": "G5",
            "ticks": 106880,
            "time": 334,
            "velocity": 0.8661417322834646
          },
          {
            "duration": 0.96875,
            "durationTicks": 310,
            "midi": 84,
            "name": "C6",
            "ticks": 106880,
            "time": 334,
            "velocity": 0.8661417322834646
          },
          {
            "duration": 0.46875,
            "durationTicks": 150,
            "midi": 79,
            "name": "G5",
            "ticks": 107200,
            "time": 335,
            "velocity": 0.8661417322834646
          },
          {
            "duration": 0.46875,
            "durationTicks": 150,
            "midi": 84,
            "name": "C6",
            "ticks": 107200,
            "time": 335,
            "velocity": 0.8661417322834646
          },
          {
            "duration": 0.96875,
            "durationTicks": 310,
            "midi": 79,
            "name": "G5",
            "ticks": 107360,
            "time": 335.5,
            "velocity": 0.8661417322834646
          },
          {
            "duration": 0.96875,
            "durationTicks": 310,
            "midi": 84,
            "name": "C6",
            "ticks": 107360,
            "time": 335.5,
            "velocity": 0.8661417322834646
          },
          {
            "duration": 0.46875,
            "durationTicks": 150,
            "midi": 79,
            "name": "G5",
            "ticks": 107680,
            "time": 336.5,
            "velocity": 0.8661417322834646
          },
          {
            "duration": 0.46875,
            "durationTicks": 150,
            "midi": 84,
            "name": "C6",
            "ticks": 107680,
            "time": 336.5,
            "velocity": 0.8661417322834646
          },
          {
            "duration": 0.96875,
            "durationTicks": 310,
            "midi": 79,
            "name": "G5",
            "ticks": 107840,
            "time": 337,
            "velocity": 0.8661417322834646
          },
          {
            "duration": 0.96875,
            "durationTicks": 310,
            "midi": 84,
            "name": "C6",
            "ticks": 107840,
            "time": 337,
            "velocity": 0.8661417322834646
          },
          {
            "duration": 0.3562500000000455,
            "durationTicks": 114,
            "midi": 72,
            "name": "C5",
            "ticks": 109440,
            "time": 342,
            "velocity": 1
          },
          {
            "duration": 0.3562500000000455,
            "durationTicks": 114,
            "midi": 76,
            "name": "E5",
            "ticks": 109440,
            "time": 342,
            "velocity": 1
          },
          {
            "duration": 0.3562500000000455,
            "durationTicks": 114,
            "midi": 72,
            "name": "C5",
            "ticks": 110400,
            "time": 345,
            "velocity": 1
          },
          {
            "duration": 0.3562500000000455,
            "durationTicks": 114,
            "midi": 76,
            "name": "E5",
            "ticks": 110400,
            "time": 345,
            "velocity": 1
          },
          {
            "duration": 0.3562500000000455,
            "durationTicks": 114,
            "midi": 72,
            "name": "C5",
            "ticks": 111360,
            "time": 348,
            "velocity": 1
          },
          {
            "duration": 0.3562500000000455,
            "durationTicks": 114,
            "midi": 76,
            "name": "E5",
            "ticks": 111360,
            "time": 348,
            "velocity": 1
          },
          {
            "duration": 0.3562500000000455,
            "durationTicks": 114,
            "midi": 72,
            "name": "C5",
            "ticks": 112320,
            "time": 351,
            "velocity": 1
          },
          {
            "duration": 0.3562500000000455,
            "durationTicks": 114,
            "midi": 76,
            "name": "E5",
            "ticks": 112320,
            "time": 351,
            "velocity": 1
          },
          {
            "duration": 0.7062500000000114,
            "durationTicks": 226,
            "midi": 60,
            "name": "C4",
            "ticks": 115440,
            "time": 360.75,
            "velocity": 1
          },
          {
            "duration": 0.7062500000000114,
            "durationTicks": 226,
            "midi": 67,
            "name": "G4",
            "ticks": 115440,
            "time": 360.75,
            "velocity": 1
          },
          {
            "duration": 5.206250000000011,
            "durationTicks": 1666,
            "midi": 61,
            "name": "C#4",
            "ticks": 119520,
            "time": 373.5,
            "velocity": 0.7874015748031497
          },
          {
            "duration": 5.206250000000011,
            "durationTicks": 1666,
            "midi": 73,
            "name": "C#5",
            "ticks": 119520,
            "time": 373.5,
            "velocity": 0.7874015748031497
          },
          {
            "duration": 0.7062500000000114,
            "durationTicks": 226,
            "midi": 59,
            "name": "B3",
            "ticks": 121200,
            "time": 378.75,
            "velocity": 0.6299212598425197
          },
          {
            "duration": 0.7062500000000114,
            "durationTicks": 226,
            "midi": 71,
            "name": "B4",
            "ticks": 121200,
            "time": 378.75,
            "velocity": 0.6299212598425197
          },
          {
            "duration": 5.206250000000068,
            "durationTicks": 1666,
            "midi": 68,
            "name": "G#4",
            "ticks": 122400,
            "time": 382.5,
            "velocity": 0.7480314960629921
          },
          {
            "duration": 0.7062500000000682,
            "durationTicks": 226,
            "midi": 66,
            "name": "F#4",
            "ticks": 124080,
            "time": 387.75,
            "velocity": 0.7480314960629921
          },
          {
            "duration": 1.4562500000000682,
            "durationTicks": 466,
            "midi": 66,
            "name": "F#4",
            "ticks": 125040,
            "time": 390.75,
            "velocity": 0.7086614173228346
          },
          {
            "duration": 0.7062500000000682,
            "durationTicks": 226,
            "midi": 64,
            "name": "E4",
            "ticks": 125520,
            "time": 392.25,
            "velocity": 0.7086614173228346
          },
          {
            "duration": 1.4562500000000682,
            "durationTicks": 466,
            "midi": 64,
            "name": "E4",
            "ticks": 126480,
            "time": 395.25,
            "velocity": 0.47244094488188976
          },
          {
            "duration": 0.7062500000000682,
            "durationTicks": 226,
            "midi": 62,
            "name": "D4",
            "ticks": 126960,
            "time": 396.75,
            "velocity": 0.47244094488188976
          },
          {
            "duration": 4.40625,
            "durationTicks": 1410,
            "midi": 71,
            "name": "B4",
            "ticks": 155520,
            "time": 486,
            "velocity": 0.5511811023622047
          },
          {
            "duration": 2.8125,
            "durationTicks": 900,
            "midi": 62,
            "name": "D4",
            "ticks": 156960,
            "time": 490.5,
            "velocity": 0.5511811023622047
          },
          {
            "duration": 1.40625,
            "durationTicks": 450,
            "midi": 66,
            "name": "F#4",
            "ticks": 157920,
            "time": 493.5,
            "velocity": 0.5511811023622047
          },
          {
            "duration": 2.8125,
            "durationTicks": 900,
            "midi": 64,
            "name": "E4",
            "ticks": 158400,
            "time": 495,
            "velocity": 0.6220472440944882
          },
          {
            "duration": 2.8125,
            "durationTicks": 900,
            "midi": 76,
            "name": "E5",
            "ticks": 158400,
            "time": 495,
            "velocity": 0.6220472440944882
          },
          {
            "duration": 1.40625,
            "durationTicks": 450,
            "midi": 62,
            "name": "D4",
            "ticks": 159360,
            "time": 498,
            "velocity": 0.6771653543307087
          },
          {
            "duration": 1.40625,
            "durationTicks": 450,
            "midi": 74,
            "name": "D5",
            "ticks": 159360,
            "time": 498,
            "velocity": 0.6771653543307087
          },
          {
            "duration": 2.8125,
            "durationTicks": 900,
            "midi": 67,
            "name": "G4",
            "ticks": 159840,
            "time": 499.5,
            "velocity": 0.7007874015748031
          },
          {
            "duration": 2.8125,
            "durationTicks": 900,
            "midi": 79,
            "name": "G5",
            "ticks": 159840,
            "time": 499.5,
            "velocity": 0.7007874015748031
          },
          {
            "duration": 1.40625,
            "durationTicks": 450,
            "midi": 59,
            "name": "B3",
            "ticks": 160800,
            "time": 502.5,
            "velocity": 0.7480314960629921
          },
          {
            "duration": 1.40625,
            "durationTicks": 450,
            "midi": 71,
            "name": "B4",
            "ticks": 160800,
            "time": 502.5,
            "velocity": 0.7480314960629921
          },
          {
            "duration": 1.40625,
            "durationTicks": 450,
            "midi": 68,
            "name": "G#4",
            "ticks": 161280,
            "time": 504,
            "velocity": 0.7716535433070866
          },
          {
            "duration": 1.40625,
            "durationTicks": 450,
            "midi": 71,
            "name": "B4",
            "ticks": 161280,
            "time": 504,
            "velocity": 0.7716535433070866
          },
          {
            "duration": 0.7062500000000682,
            "durationTicks": 226,
            "midi": 67,
            "name": "G4",
            "ticks": 161760,
            "time": 505.5,
            "velocity": 0.7952755905511811
          },
          {
            "duration": 0.7062500000000682,
            "durationTicks": 226,
            "midi": 70,
            "name": "A#4",
            "ticks": 161760,
            "time": 505.5,
            "velocity": 0.7952755905511811
          },
          {
            "duration": 0.7062500000000682,
            "durationTicks": 226,
            "midi": 68,
            "name": "G#4",
            "ticks": 162000,
            "time": 506.25,
            "velocity": 0.8110236220472441
          },
          {
            "duration": 0.7062500000000682,
            "durationTicks": 226,
            "midi": 71,
            "name": "B4",
            "ticks": 162000,
            "time": 506.25,
            "velocity": 0.8110236220472441
          },
          {
            "duration": 1.40625,
            "durationTicks": 450,
            "midi": 69,
            "name": "A4",
            "ticks": 162240,
            "time": 507,
            "velocity": 0.8267716535433071
          },
          {
            "duration": 1.40625,
            "durationTicks": 450,
            "midi": 72,
            "name": "C5",
            "ticks": 162240,
            "time": 507,
            "velocity": 0.8267716535433071
          },
          {
            "duration": 0.7062500000000682,
            "durationTicks": 226,
            "midi": 68,
            "name": "G#4",
            "ticks": 162720,
            "time": 508.5,
            "velocity": 0.8503937007874016
          },
          {
            "duration": 0.7062500000000682,
            "durationTicks": 226,
            "midi": 71,
            "name": "B4",
            "ticks": 162720,
            "time": 508.5,
            "velocity": 0.8503937007874016
          },
          {
            "duration": 0.7062500000000682,
            "durationTicks": 226,
            "midi": 69,
            "name": "A4",
            "ticks": 162960,
            "time": 509.25,
            "velocity": 0.8582677165354331
          },
          {
            "duration": 0.7062500000000682,
            "durationTicks": 226,
            "midi": 72,
            "name": "C5",
            "ticks": 162960,
            "time": 509.25,
            "velocity": 0.8582677165354331
          },
          {
            "duration": 1.40625,
            "durationTicks": 450,
            "midi": 71,
            "name": "B4",
            "ticks": 163200,
            "time": 510,
            "velocity": 0.8740157480314961
          },
          {
            "duration": 1.40625,
            "durationTicks": 450,
            "midi": 74,
            "name": "D5",
            "ticks": 163200,
            "time": 510,
            "velocity": 0.8740157480314961
          },
          {
            "duration": 0.7062500000000682,
            "durationTicks": 226,
            "midi": 69,
            "name": "A4",
            "ticks": 163680,
            "time": 511.5,
            "velocity": 0.8976377952755905
          },
          {
            "duration": 0.7062500000000682,
            "durationTicks": 226,
            "midi": 73,
            "name": "C#5",
            "ticks": 163680,
            "time": 511.5,
            "velocity": 0.8976377952755905
          },
          {
            "duration": 0.7062500000000682,
            "durationTicks": 226,
            "midi": 71,
            "name": "B4",
            "ticks": 163920,
            "time": 512.25,
            "velocity": 0.9133858267716536
          },
          {
            "duration": 0.7062500000000682,
            "durationTicks": 226,
            "midi": 74,
            "name": "D5",
            "ticks": 163920,
            "time": 512.25,
            "velocity": 0.9133858267716536
          },
          {
            "duration": 1.40625,
            "durationTicks": 450,
            "midi": 73,
            "name": "C#5",
            "ticks": 164160,
            "time": 513,
            "velocity": 0.9212598425196851
          },
          {
            "duration": 1.40625,
            "durationTicks": 450,
            "midi": 76,
            "name": "E5",
            "ticks": 164160,
            "time": 513,
            "velocity": 0.9212598425196851
          },
          {
            "duration": 1.40625,
            "durationTicks": 450,
            "midi": 76,
            "name": "E5",
            "ticks": 164640,
            "time": 514.5,
            "velocity": 0.9212598425196851
          },
          {
            "duration": 1.40625,
            "durationTicks": 450,
            "midi": 81,
            "name": "A5",
            "ticks": 164640,
            "time": 514.5,
            "velocity": 0.9212598425196851
          },
          {
            "duration": 1.40625,
            "durationTicks": 450,
            "midi": 73,
            "name": "C#5",
            "ticks": 165120,
            "time": 516,
            "velocity": 0.9212598425196851
          },
          {
            "duration": 1.40625,
            "durationTicks": 450,
            "midi": 76,
            "name": "E5",
            "ticks": 165120,
            "time": 516,
            "velocity": 0.9212598425196851
          },
          {
            "duration": 1.40625,
            "durationTicks": 450,
            "midi": 74,
            "name": "D5",
            "ticks": 165600,
            "time": 517.5,
            "velocity": 0.9212598425196851
          },
          {
            "duration": 1.40625,
            "durationTicks": 450,
            "midi": 81,
            "name": "A5",
            "ticks": 165600,
            "time": 517.5,
            "velocity": 0.9212598425196851
          },
          {
            "duration": 1.40625,
            "durationTicks": 450,
            "midi": 74,
            "name": "D5",
            "ticks": 166080,
            "time": 519,
            "velocity": 0.9448818897637795
          },
          {
            "duration": 1.40625,
            "durationTicks": 450,
            "midi": 80,
            "name": "G#5",
            "ticks": 166080,
            "time": 519,
            "velocity": 0.9448818897637795
          },
          {
            "duration": 1.40625,
            "durationTicks": 450,
            "midi": 74,
            "name": "D5",
            "ticks": 166560,
            "time": 520.5,
            "velocity": 0.9448818897637795
          },
          {
            "duration": 1.40625,
            "durationTicks": 450,
            "midi": 83,
            "name": "B5",
            "ticks": 166560,
            "time": 520.5,
            "velocity": 0.9448818897637795
          },
          {
            "duration": 4.21875,
            "durationTicks": 1350,
            "midi": 76,
            "name": "E5",
            "ticks": 167040,
            "time": 522,
            "velocity": 0.9448818897637795
          },
          {
            "duration": 4.21875,
            "durationTicks": 1350,
            "midi": 84,
            "name": "C6",
            "ticks": 167040,
            "time": 522,
            "velocity": 0.9448818897637795
          },
          {
            "duration": 1.40625,
            "durationTicks": 450,
            "midi": 76,
            "name": "E5",
            "ticks": 168480,
            "time": 526.5,
            "velocity": 0.9212598425196851
          },
          {
            "duration": 1.40625,
            "durationTicks": 450,
            "midi": 85,
            "name": "C#6",
            "ticks": 168480,
            "time": 526.5,
            "velocity": 0.9212598425196851
          },
          {
            "duration": 1.40625,
            "durationTicks": 450,
            "midi": 74,
            "name": "D5",
            "ticks": 168960,
            "time": 528,
            "velocity": 0.9448818897637795
          },
          {
            "duration": 1.40625,
            "durationTicks": 450,
            "midi": 86,
            "name": "D6",
            "ticks": 168960,
            "time": 528,
            "velocity": 0.9448818897637795
          },
          {
            "duration": 1.40625,
            "durationTicks": 450,
            "midi": 79,
            "name": "G5",
            "ticks": 169440,
            "time": 529.5,
            "velocity": 0.9448818897637795
          },
          {
            "duration": 1.40625,
            "durationTicks": 450,
            "midi": 81,
            "name": "A5",
            "ticks": 169440,
            "time": 529.5,
            "velocity": 0.9448818897637795
          },
          {
            "duration": 4.21875,
            "durationTicks": 1350,
            "midi": 74,
            "name": "D5",
            "ticks": 169920,
            "time": 531,
            "velocity": 0.9448818897637795
          },
          {
            "duration": 4.21875,
            "durationTicks": 1350,
            "midi": 81,
            "name": "A5",
            "ticks": 169920,
            "time": 531,
            "velocity": 0.9448818897637795
          },
          {
            "duration": 2.90625,
            "durationTicks": 930,
            "midi": 73,
            "name": "C#5",
            "ticks": 171360,
            "time": 535.5,
            "velocity": 1
          },
          {
            "duration": 1.40625,
            "durationTicks": 450,
            "midi": 82,
            "name": "A#5",
            "ticks": 171360,
            "time": 535.5,
            "velocity": 1
          },
          {
            "duration": 1.40625,
            "durationTicks": 450,
            "midi": 81,
            "name": "A5",
            "ticks": 171840,
            "time": 537,
            "velocity": 1
          },
          {
            "duration": 1.40625,
            "durationTicks": 450,
            "midi": 76,
            "name": "E5",
            "ticks": 172320,
            "time": 538.5,
            "velocity": 1
          },
          {
            "duration": 1.40625,
            "durationTicks": 450,
            "midi": 79,
            "name": "G5",
            "ticks": 172320,
            "time": 538.5,
            "velocity": 1
          },
          {
            "duration": 4.21875,
            "durationTicks": 1350,
            "midi": 78,
            "name": "F#5",
            "ticks": 172800,
            "time": 540,
            "velocity": 0.9448818897637795
          },
          {
            "duration": 4.21875,
            "durationTicks": 1350,
            "midi": 83,
            "name": "B5",
            "ticks": 172800,
            "time": 540,
            "velocity": 0.9448818897637795
          },
          {
            "duration": 1.40625,
            "durationTicks": 450,
            "midi": 79,
            "name": "G5",
            "ticks": 174240,
            "time": 544.5,
            "velocity": 1
          },
          {
            "duration": 1.40625,
            "durationTicks": 450,
            "midi": 82,
            "name": "A#5",
            "ticks": 174240,
            "time": 544.5,
            "velocity": 1
          },
          {
            "duration": 1.40625,
            "durationTicks": 450,
            "midi": 78,
            "name": "F#5",
            "ticks": 174720,
            "time": 546,
            "velocity": 1
          },
          {
            "duration": 1.40625,
            "durationTicks": 450,
            "midi": 81,
            "name": "A5",
            "ticks": 174720,
            "time": 546,
            "velocity": 1
          },
          {
            "duration": 1.40625,
            "durationTicks": 450,
            "midi": 73,
            "name": "C#5",
            "ticks": 175200,
            "time": 547.5,
            "velocity": 1
          },
          {
            "duration": 1.40625,
            "durationTicks": 450,
            "midi": 76,
            "name": "E5",
            "ticks": 175200,
            "time": 547.5,
            "velocity": 1
          },
          {
            "duration": 4.21875,
            "durationTicks": 1350,
            "midi": 74,
            "name": "D5",
            "ticks": 175680,
            "time": 549,
            "velocity": 0.9448818897637795
          },
          {
            "duration": 4.21875,
            "durationTicks": 1350,
            "midi": 78,
            "name": "F#5",
            "ticks": 175680,
            "time": 549,
            "velocity": 0.9448818897637795
          },
          {
            "duration": 0.7062500000000682,
            "durationTicks": 226,
            "midi": 71,
            "name": "B4",
            "ticks": 177600,
            "time": 555,
            "velocity": 0.905511811023622
          },
          {
            "duration": 0.7062500000000682,
            "durationTicks": 226,
            "midi": 83,
            "name": "B5",
            "ticks": 177600,
            "time": 555,
            "velocity": 0.905511811023622
          },
          {
            "duration": 0.7062500000000682,
            "durationTicks": 226,
            "midi": 69,
            "name": "A4",
            "ticks": 177840,
            "time": 555.75,
            "velocity": 0.905511811023622
          },
          {
            "duration": 0.7062500000000682,
            "durationTicks": 226,
            "midi": 81,
            "name": "A5",
            "ticks": 177840,
            "time": 555.75,
            "velocity": 0.905511811023622
          },
          {
            "duration": 0.7062500000000682,
            "durationTicks": 226,
            "midi": 67,
            "name": "G4",
            "ticks": 178080,
            "time": 556.5,
            "velocity": 0.905511811023622
          },
          {
            "duration": 0.7062500000000682,
            "durationTicks": 226,
            "midi": 79,
            "name": "G5",
            "ticks": 178080,
            "time": 556.5,
            "velocity": 0.905511811023622
          },
          {
            "duration": 0.7062500000000682,
            "durationTicks": 226,
            "midi": 66,
            "name": "F#4",
            "ticks": 178320,
            "time": 557.25,
            "velocity": 0.905511811023622
          },
          {
            "duration": 0.7062500000000682,
            "durationTicks": 226,
            "midi": 78,
            "name": "F#5",
            "ticks": 178320,
            "time": 557.25,
            "velocity": 0.905511811023622
          },
          {
            "duration": 2.8125,
            "durationTicks": 900,
            "midi": 69,
            "name": "A4",
            "ticks": 178560,
            "time": 558,
            "velocity": 0.9448818897637795
          },
          {
            "duration": 2.8125,
            "durationTicks": 900,
            "midi": 81,
            "name": "A5",
            "ticks": 178560,
            "time": 558,
            "velocity": 0.9448818897637795
          },
          {
            "duration": 0.7062500000000682,
            "durationTicks": 226,
            "midi": 67,
            "name": "G4",
            "ticks": 179520,
            "time": 561,
            "velocity": 0.905511811023622
          },
          {
            "duration": 0.7062500000000682,
            "durationTicks": 226,
            "midi": 79,
            "name": "G5",
            "ticks": 179520,
            "time": 561,
            "velocity": 0.905511811023622
          },
          {
            "duration": 0.7062500000000682,
            "durationTicks": 226,
            "midi": 66,
            "name": "F#4",
            "ticks": 179760,
            "time": 561.75,
            "velocity": 0.905511811023622
          },
          {
            "duration": 0.7062500000000682,
            "durationTicks": 226,
            "midi": 78,
            "name": "F#5",
            "ticks": 179760,
            "time": 561.75,
            "velocity": 0.905511811023622
          },
          {
            "duration": 0.7062500000000682,
            "durationTicks": 226,
            "midi": 64,
            "name": "E4",
            "ticks": 180000,
            "time": 562.5,
            "velocity": 0.905511811023622
          },
          {
            "duration": 0.7062500000000682,
            "durationTicks": 226,
            "midi": 76,
            "name": "E5",
            "ticks": 180000,
            "time": 562.5,
            "velocity": 0.905511811023622
          },
          {
            "duration": 0.7062500000000682,
            "durationTicks": 226,
            "midi": 62,
            "name": "D4",
            "ticks": 180240,
            "time": 563.25,
            "velocity": 0.905511811023622
          },
          {
            "duration": 0.7062500000000682,
            "durationTicks": 226,
            "midi": 74,
            "name": "D5",
            "ticks": 180240,
            "time": 563.25,
            "velocity": 0.905511811023622
          },
          {
            "duration": 0.7062500000000682,
            "durationTicks": 226,
            "midi": 61,
            "name": "C#4",
            "ticks": 180480,
            "time": 564,
            "velocity": 0.905511811023622
          },
          {
            "duration": 0.7062500000000682,
            "durationTicks": 226,
            "midi": 73,
            "name": "C#5",
            "ticks": 180480,
            "time": 564,
            "velocity": 0.905511811023622
          },
          {
            "duration": 0.7062500000000682,
            "durationTicks": 226,
            "midi": 62,
            "name": "D4",
            "ticks": 180720,
            "time": 564.75,
            "velocity": 0.905511811023622
          },
          {
            "duration": 0.7062500000000682,
            "durationTicks": 226,
            "midi": 74,
            "name": "D5",
            "ticks": 180720,
            "time": 564.75,
            "velocity": 0.905511811023622
          },
          {
            "duration": 0.7062500000000682,
            "durationTicks": 226,
            "midi": 61,
            "name": "C#4",
            "ticks": 180960,
            "time": 565.5,
            "velocity": 0.905511811023622
          },
          {
            "duration": 0.7062500000000682,
            "durationTicks": 226,
            "midi": 73,
            "name": "C#5",
            "ticks": 180960,
            "time": 565.5,
            "velocity": 0.905511811023622
          },
          {
            "duration": 0.7062500000000682,
            "durationTicks": 226,
            "midi": 59,
            "name": "B3",
            "ticks": 181200,
            "time": 566.25,
            "velocity": 0.905511811023622
          },
          {
            "duration": 0.7062500000000682,
            "durationTicks": 226,
            "midi": 71,
            "name": "B4",
            "ticks": 181200,
            "time": 566.25,
            "velocity": 0.905511811023622
          },
          {
            "duration": 0.7062500000000682,
            "durationTicks": 226,
            "midi": 59,
            "name": "B3",
            "ticks": 181440,
            "time": 567,
            "velocity": 1
          },
          {
            "duration": 0.7062500000000682,
            "durationTicks": 226,
            "midi": 62,
            "name": "D4",
            "ticks": 181440,
            "time": 567,
            "velocity": 1
          },
          {
            "duration": 0.2375000000000682,
            "durationTicks": 76,
            "midi": 61,
            "name": "C#4",
            "ticks": 182400,
            "time": 570,
            "velocity": 1
          },
          {
            "duration": 0.23749999999995453,
            "durationTicks": 76,
            "midi": 62,
            "name": "D4",
            "ticks": 182480,
            "time": 570.25,
            "velocity": 1
          },
          {
            "duration": 0.23749999999995453,
            "durationTicks": 76,
            "midi": 64,
            "name": "E4",
            "ticks": 182560,
            "time": 570.5,
            "velocity": 1
          },
          {
            "duration": 0.18124999999997726,
            "durationTicks": 58,
            "midi": 65,
            "name": "F4",
            "ticks": 182640,
            "time": 570.75,
            "velocity": 1
          },
          {
            "duration": 0.18124999999997726,
            "durationTicks": 58,
            "midi": 67,
            "name": "G4",
            "ticks": 182700,
            "time": 570.9375,
            "velocity": 1
          },
          {
            "duration": 0.18124999999997726,
            "durationTicks": 58,
            "midi": 68,
            "name": "G#4",
            "ticks": 182760,
            "time": 571.125,
            "velocity": 1
          },
          {
            "duration": 0.18124999999997726,
            "durationTicks": 58,
            "midi": 70,
            "name": "A#4",
            "ticks": 182820,
            "time": 571.3125,
            "velocity": 1
          },
          {
            "duration": 1.40625,
            "durationTicks": 450,
            "midi": 71,
            "name": "B4",
            "ticks": 182880,
            "time": 571.5,
            "velocity": 1
          },
          {
            "duration": 0.7062500000000682,
            "durationTicks": 226,
            "midi": 70,
            "name": "A#4",
            "ticks": 183360,
            "time": 573,
            "velocity": 1
          },
          {
            "duration": 0.7062500000000682,
            "durationTicks": 226,
            "midi": 68,
            "name": "G#4",
            "ticks": 183600,
            "time": 573.75,
            "velocity": 1
          },
          {
            "duration": 0.7062500000000682,
            "durationTicks": 226,
            "midi": 66,
            "name": "F#4",
            "ticks": 183840,
            "time": 574.5,
            "velocity": 1
          },
          {
            "duration": 0.7062500000000682,
            "durationTicks": 226,
            "midi": 65,
            "name": "F4",
            "ticks": 184080,
            "time": 575.25,
            "velocity": 1
          },
          {
            "duration": 1.40625,
            "durationTicks": 450,
            "midi": 64,
            "name": "E4",
            "ticks": 184320,
            "time": 576,
            "velocity": 1
          },
          {
            "duration": 0.2375000000000682,
            "durationTicks": 76,
            "midi": 61,
            "name": "C#4",
            "ticks": 185280,
            "time": 579,
            "velocity": 1
          },
          {
            "duration": 0.23749999999995453,
            "durationTicks": 76,
            "midi": 62,
            "name": "D4",
            "ticks": 185360,
            "time": 579.25,
            "velocity": 1
          },
          {
            "duration": 0.23749999999995453,
            "durationTicks": 76,
            "midi": 64,
            "name": "E4",
            "ticks": 185440,
            "time": 579.5,
            "velocity": 1
          },
          {
            "duration": 0.18124999999997726,
            "durationTicks": 58,
            "midi": 65,
            "name": "F4",
            "ticks": 185520,
            "time": 579.75,
            "velocity": 1
          },
          {
            "duration": 0.18124999999997726,
            "durationTicks": 58,
            "midi": 67,
            "name": "G4",
            "ticks": 185580,
            "time": 579.9375,
            "velocity": 1
          },
          {
            "duration": 0.18124999999997726,
            "durationTicks": 58,
            "midi": 68,
            "name": "G#4",
            "ticks": 185640,
            "time": 580.125,
            "velocity": 1
          },
          {
            "duration": 0.18124999999997726,
            "durationTicks": 58,
            "midi": 70,
            "name": "A#4",
            "ticks": 185700,
            "time": 580.3125,
            "velocity": 1
          },
          {
            "duration": 1.40625,
            "durationTicks": 450,
            "midi": 71,
            "name": "B4",
            "ticks": 185760,
            "time": 580.5,
            "velocity": 1
          },
          {
            "duration": 0.7062500000000682,
            "durationTicks": 226,
            "midi": 70,
            "name": "A#4",
            "ticks": 186240,
            "time": 582,
            "velocity": 1
          },
          {
            "duration": 0.7062500000000682,
            "durationTicks": 226,
            "midi": 68,
            "name": "G#4",
            "ticks": 186480,
            "time": 582.75,
            "velocity": 1
          },
          {
            "duration": 0.7062500000000682,
            "durationTicks": 226,
            "midi": 66,
            "name": "F#4",
            "ticks": 186720,
            "time": 583.5,
            "velocity": 1
          },
          {
            "duration": 0.7062500000000682,
            "durationTicks": 226,
            "midi": 65,
            "name": "F4",
            "ticks": 186960,
            "time": 584.25,
            "velocity": 1
          },
          {
            "duration": 1.40625,
            "durationTicks": 450,
            "midi": 64,
            "name": "E4",
            "ticks": 187200,
            "time": 585,
            "velocity": 1
          },
          {
            "duration": 1.40625,
            "durationTicks": 450,
            "midi": 59,
            "name": "B3",
            "ticks": 212640,
            "time": 664.5,
            "velocity": 0.47244094488188976
          },
          {
            "duration": 1.40625,
            "durationTicks": 450,
            "midi": 62,
            "name": "D4",
            "ticks": 212640,
            "time": 664.5,
            "velocity": 0.47244094488188976
          },
          {
            "duration": 2.8125,
            "durationTicks": 900,
            "midi": 60,
            "name": "C4",
            "ticks": 213120,
            "time": 666,
            "velocity": 0.47244094488188976
          },
          {
            "duration": 2.8125,
            "durationTicks": 900,
            "midi": 64,
            "name": "E4",
            "ticks": 213120,
            "time": 666,
            "velocity": 0.47244094488188976
          },
          {
            "duration": 1.40625,
            "durationTicks": 450,
            "midi": 61,
            "name": "C#4",
            "ticks": 214080,
            "time": 669,
            "velocity": 0.47244094488188976
          },
          {
            "duration": 1.40625,
            "durationTicks": 450,
            "midi": 64,
            "name": "E4",
            "ticks": 214080,
            "time": 669,
            "velocity": 0.47244094488188976
          },
          {
            "duration": 2.8125,
            "durationTicks": 900,
            "midi": 62,
            "name": "D4",
            "ticks": 214560,
            "time": 670.5,
            "velocity": 0.47244094488188976
          },
          {
            "duration": 2.8125,
            "durationTicks": 900,
            "midi": 66,
            "name": "F#4",
            "ticks": 214560,
            "time": 670.5,
            "velocity": 0.47244094488188976
          },
          {
            "duration": 1.40625,
            "durationTicks": 450,
            "midi": 59,
            "name": "B3",
            "ticks": 215520,
            "time": 673.5,
            "velocity": 0.47244094488188976
          },
          {
            "duration": 1.40625,
            "durationTicks": 450,
            "midi": 62,
            "name": "D4",
            "ticks": 215520,
            "time": 673.5,
            "velocity": 0.47244094488188976
          },
          {
            "duration": 2.8125,
            "durationTicks": 900,
            "midi": 60,
            "name": "C4",
            "ticks": 216000,
            "time": 675,
            "velocity": 0.47244094488188976
          },
          {
            "duration": 2.8125,
            "durationTicks": 900,
            "midi": 64,
            "name": "E4",
            "ticks": 216000,
            "time": 675,
            "velocity": 0.47244094488188976
          },
          {
            "duration": 1.40625,
            "durationTicks": 450,
            "midi": 61,
            "name": "C#4",
            "ticks": 216960,
            "time": 678,
            "velocity": 0.47244094488188976
          },
          {
            "duration": 1.40625,
            "durationTicks": 450,
            "midi": 64,
            "name": "E4",
            "ticks": 216960,
            "time": 678,
            "velocity": 0.47244094488188976
          },
          {
            "duration": 3.4500000000000455,
            "durationTicks": 1104,
            "midi": 62,
            "name": "D4",
            "ticks": 217440,
            "time": 679.5,
            "velocity": 0.47244094488188976
          },
          {
            "duration": 2.206250000000068,
            "durationTicks": 706,
            "midi": 66,
            "name": "F#4",
            "ticks": 217440,
            "time": 679.5,
            "velocity": 0.47244094488188976
          }
        ]
      },
      {
        "channel": 0,
        "controlChanges": {},
        "pitchBends": [],
        "instrument": {
          "family": "piano",
          "number": 0,
          "name": "acoustic grand piano"
        },
        "name": "Clarinets",
        "notes": [],
        "endOfTrackTicks": 224640
      },
      {
        "channel": 2,
        "controlChanges": {
          "7": [
            {
              "number": 7,
              "ticks": 0,
              "time": 0,
              "value": 1
            }
          ],
          "10": [
            {
              "number": 10,
              "ticks": 0,
              "time": 0,
              "value": 0.5590551181102362
            }
          ]
        },
        "pitchBends": [],
        "instrument": {
          "family": "reed",
          "number": 71,
          "name": "clarinet"
        },
        "name": "",
        "notes": [
          {
            "duration": 2.90625,
            "durationTicks": 930,
            "midi": 61,
            "name": "C#4",
            "ticks": 11040,
            "time": 34.5,
            "velocity": 0.4330708661417323
          },
          {
            "duration": 2.90625,
            "durationTicks": 930,
            "midi": 73,
            "name": "C#5",
            "ticks": 11040,
            "time": 34.5,
            "velocity": 0.4330708661417323
          },
          {
            "duration": 2.1125000000000043,
            "durationTicks": 676,
            "midi": 59,
            "name": "B3",
            "ticks": 12000,
            "time": 37.5,
            "velocity": 0.49606299212598426
          },
          {
            "duration": 2.1125000000000043,
            "durationTicks": 676,
            "midi": 71,
            "name": "B4",
            "ticks": 12000,
            "time": 37.5,
            "velocity": 0.49606299212598426
          },
          {
            "duration": 0.7062500000000043,
            "durationTicks": 226,
            "midi": 57,
            "name": "A3",
            "ticks": 12720,
            "time": 39.75,
            "velocity": 0.5433070866141733
          },
          {
            "duration": 0.7062500000000043,
            "durationTicks": 226,
            "midi": 69,
            "name": "A4",
            "ticks": 12720,
            "time": 39.75,
            "velocity": 0.5433070866141733
          },
          {
            "duration": 1.40625,
            "durationTicks": 450,
            "midi": 64,
            "name": "E4",
            "ticks": 12960,
            "time": 40.5,
            "velocity": 0.5590551181102362
          },
          {
            "duration": 1.40625,
            "durationTicks": 450,
            "midi": 76,
            "name": "E5",
            "ticks": 12960,
            "time": 40.5,
            "velocity": 0.5590551181102362
          },
          {
            "duration": 2.1125000000000043,
            "durationTicks": 676,
            "midi": 63,
            "name": "D#4",
            "ticks": 13440,
            "time": 42,
            "velocity": 0.5905511811023622
          },
          {
            "duration": 2.1125000000000043,
            "durationTicks": 676,
            "midi": 75,
            "name": "D#5",
            "ticks": 13440,
            "time": 42,
            "velocity": 0.5905511811023622
          },
          {
            "duration": 0.7062500000000043,
            "durationTicks": 226,
            "midi": 61,
            "name": "C#4",
            "ticks": 14160,
            "time": 44.25,
            "velocity": 0.6299212598425197
          },
          {
            "duration": 0.7062500000000043,
            "durationTicks": 226,
            "midi": 73,
            "name": "C#5",
            "ticks": 14160,
            "time": 44.25,
            "velocity": 0.6299212598425197
          },
          {
            "duration": 1.40625,
            "durationTicks": 450,
            "midi": 68,
            "name": "G#4",
            "ticks": 14400,
            "time": 45,
            "velocity": 0.6456692913385826
          },
          {
            "duration": 1.40625,
            "durationTicks": 450,
            "midi": 80,
            "name": "G#5",
            "ticks": 14400,
            "time": 45,
            "velocity": 0.6456692913385826
          },
          {
            "duration": 2.112499999999997,
            "durationTicks": 676,
            "midi": 66,
            "name": "F#4",
            "ticks": 14880,
            "time": 46.5,
            "velocity": 0.6771653543307087
          },
          {
            "duration": 2.112499999999997,
            "durationTicks": 676,
            "midi": 78,
            "name": "F#5",
            "ticks": 14880,
            "time": 46.5,
            "velocity": 0.6771653543307087
          },
          {
            "duration": 0.7062499999999972,
            "durationTicks": 226,
            "midi": 65,
            "name": "F4",
            "ticks": 15600,
            "time": 48.75,
            "velocity": 0.7244094488188977
          },
          {
            "duration": 0.7062499999999972,
            "durationTicks": 226,
            "midi": 77,
            "name": "F5",
            "ticks": 15600,
            "time": 48.75,
            "velocity": 0.7244094488188977
          },
          {
            "duration": 1.40625,
            "durationTicks": 450,
            "midi": 73,
            "name": "C#5",
            "ticks": 15840,
            "time": 49.5,
            "velocity": 0.7165354330708661
          },
          {
            "duration": 1.40625,
            "durationTicks": 450,
            "midi": 85,
            "name": "C#6",
            "ticks": 15840,
            "time": 49.5,
            "velocity": 0.7165354330708661
          },
          {
            "duration": 1.0562499999999986,
            "durationTicks": 338,
            "midi": 71,
            "name": "B4",
            "ticks": 16320,
            "time": 51,
            "velocity": 0.6614173228346457
          },
          {
            "duration": 1.0562499999999986,
            "durationTicks": 338,
            "midi": 83,
            "name": "B5",
            "ticks": 16320,
            "time": 51,
            "velocity": 0.6614173228346457
          },
          {
            "duration": 0.35624999999999574,
            "durationTicks": 114,
            "midi": 69,
            "name": "A4",
            "ticks": 16680,
            "time": 52.125,
            "velocity": 0.6220472440944882
          },
          {
            "duration": 0.35624999999999574,
            "durationTicks": 114,
            "midi": 81,
            "name": "A5",
            "ticks": 16680,
            "time": 52.125,
            "velocity": 0.6220472440944882
          },
          {
            "duration": 0.7062499999999972,
            "durationTicks": 226,
            "midi": 68,
            "name": "G#4",
            "ticks": 16800,
            "time": 52.5,
            "velocity": 0.6062992125984252
          },
          {
            "duration": 0.7062499999999972,
            "durationTicks": 226,
            "midi": 80,
            "name": "G#5",
            "ticks": 16800,
            "time": 52.5,
            "velocity": 0.6062992125984252
          },
          {
            "duration": 0.7062499999999972,
            "durationTicks": 226,
            "midi": 69,
            "name": "A4",
            "ticks": 17040,
            "time": 53.25,
            "velocity": 0.5748031496062992
          },
          {
            "duration": 0.7062499999999972,
            "durationTicks": 226,
            "midi": 81,
            "name": "A5",
            "ticks": 17040,
            "time": 53.25,
            "velocity": 0.5748031496062992
          },
          {
            "duration": 1.0562499999999986,
            "durationTicks": 338,
            "midi": 68,
            "name": "G#4",
            "ticks": 17280,
            "time": 54,
            "velocity": 0.6614173228346457
          },
          {
            "duration": 1.0562499999999986,
            "durationTicks": 338,
            "midi": 80,
            "name": "G#5",
            "ticks": 17280,
            "time": 54,
            "velocity": 0.6614173228346457
          },
          {
            "duration": 0.35624999999999574,
            "durationTicks": 114,
            "midi": 66,
            "name": "F#4",
            "ticks": 17640,
            "time": 55.125,
            "velocity": 0.6220472440944882
          },
          {
            "duration": 0.35624999999999574,
            "durationTicks": 114,
            "midi": 78,
            "name": "F#5",
            "ticks": 17640,
            "time": 55.125,
            "velocity": 0.6220472440944882
          },
          {
            "duration": 0.7062499999999972,
            "durationTicks": 226,
            "midi": 65,
            "name": "F4",
            "ticks": 17760,
            "time": 55.5,
            "velocity": 0.6062992125984252
          },
          {
            "duration": 0.7062499999999972,
            "durationTicks": 226,
            "midi": 77,
            "name": "F5",
            "ticks": 17760,
            "time": 55.5,
            "velocity": 0.6062992125984252
          },
          {
            "duration": 0.7062499999999972,
            "durationTicks": 226,
            "midi": 66,
            "name": "F#4",
            "ticks": 18000,
            "time": 56.25,
            "velocity": 0.5748031496062992
          },
          {
            "duration": 0.7062499999999972,
            "durationTicks": 226,
            "midi": 78,
            "name": "F#5",
            "ticks": 18000,
            "time": 56.25,
            "velocity": 0.5748031496062992
          },
          {
            "duration": 0.7062499999999972,
            "durationTicks": 226,
            "midi": 64,
            "name": "E4",
            "ticks": 18240,
            "time": 57,
            "velocity": 0.6062992125984252
          },
          {
            "duration": 0.7062499999999972,
            "durationTicks": 226,
            "midi": 76,
            "name": "E5",
            "ticks": 18240,
            "time": 57,
            "velocity": 0.6062992125984252
          },
          {
            "duration": 0.7062499999999972,
            "durationTicks": 226,
            "midi": 62,
            "name": "D4",
            "ticks": 18480,
            "time": 57.75,
            "velocity": 0.5748031496062992
          },
          {
            "duration": 0.7062499999999972,
            "durationTicks": 226,
            "midi": 74,
            "name": "D5",
            "ticks": 18480,
            "time": 57.75,
            "velocity": 0.5748031496062992
          },
          {
            "duration": 0.7062499999999972,
            "durationTicks": 226,
            "midi": 61,
            "name": "C#4",
            "ticks": 18720,
            "time": 58.5,
            "velocity": 0.5511811023622047
          },
          {
            "duration": 0.7062499999999972,
            "durationTicks": 226,
            "midi": 73,
            "name": "C#5",
            "ticks": 18720,
            "time": 58.5,
            "velocity": 0.5511811023622047
          },
          {
            "duration": 0.7062499999999972,
            "durationTicks": 226,
            "midi": 62,
            "name": "D4",
            "ticks": 18960,
            "time": 59.25,
            "velocity": 0.5354330708661418
          },
          {
            "duration": 0.7062499999999972,
            "durationTicks": 226,
            "midi": 74,
            "name": "D5",
            "ticks": 18960,
            "time": 59.25,
            "velocity": 0.5354330708661418
          },
          {
            "duration": 0.7062499999999972,
            "durationTicks": 226,
            "midi": 61,
            "name": "C#4",
            "ticks": 19200,
            "time": 60,
            "velocity": 0.5275590551181102
          },
          {
            "duration": 0.7062499999999972,
            "durationTicks": 226,
            "midi": 73,
            "name": "C#5",
            "ticks": 19200,
            "time": 60,
            "velocity": 0.5275590551181102
          },
          {
            "duration": 0.7062499999999972,
            "durationTicks": 226,
            "midi": 59,
            "name": "B3",
            "ticks": 19440,
            "time": 60.75,
            "velocity": 0.5118110236220472
          },
          {
            "duration": 0.7062499999999972,
            "durationTicks": 226,
            "midi": 71,
            "name": "B4",
            "ticks": 19440,
            "time": 60.75,
            "velocity": 0.5118110236220472
          },
          {
            "duration": 0.7062499999999972,
            "durationTicks": 226,
            "midi": 57,
            "name": "A3",
            "ticks": 19680,
            "time": 61.5,
            "velocity": 0.5039370078740157
          },
          {
            "duration": 0.7062499999999972,
            "durationTicks": 226,
            "midi": 69,
            "name": "A4",
            "ticks": 19680,
            "time": 61.5,
            "velocity": 0.5039370078740157
          },
          {
            "duration": 0.7062499999999972,
            "durationTicks": 226,
            "midi": 59,
            "name": "B3",
            "ticks": 19920,
            "time": 62.25,
            "velocity": 0.4881889763779528
          },
          {
            "duration": 0.7062499999999972,
            "durationTicks": 226,
            "midi": 71,
            "name": "B4",
            "ticks": 19920,
            "time": 62.25,
            "velocity": 0.4881889763779528
          },
          {
            "duration": 0.7062499999999972,
            "durationTicks": 226,
            "midi": 57,
            "name": "A3",
            "ticks": 20160,
            "time": 63,
            "velocity": 0.5275590551181102
          },
          {
            "duration": 0.7062499999999972,
            "durationTicks": 226,
            "midi": 69,
            "name": "A4",
            "ticks": 20160,
            "time": 63,
            "velocity": 0.5275590551181102
          },
          {
            "duration": 0.7062499999999972,
            "durationTicks": 226,
            "midi": 55,
            "name": "G3",
            "ticks": 20400,
            "time": 63.75,
            "velocity": 0.5196850393700787
          },
          {
            "duration": 0.7062499999999972,
            "durationTicks": 226,
            "midi": 67,
            "name": "G4",
            "ticks": 20400,
            "time": 63.75,
            "velocity": 0.5196850393700787
          },
          {
            "duration": 1.40625,
            "durationTicks": 450,
            "midi": 54,
            "name": "F#3",
            "ticks": 54240,
            "time": 169.5,
            "velocity": 0.41732283464566927
          },
          {
            "duration": 1.40625,
            "durationTicks": 450,
            "midi": 66,
            "name": "F#4",
            "ticks": 54240,
            "time": 169.5,
            "velocity": 0.41732283464566927
          },
          {
            "duration": 2.8125,
            "durationTicks": 900,
            "midi": 55,
            "name": "G3",
            "ticks": 54720,
            "time": 171,
            "velocity": 0.41732283464566927
          },
          {
            "duration": 2.8125,
            "durationTicks": 900,
            "midi": 67,
            "name": "G4",
            "ticks": 54720,
            "time": 171,
            "velocity": 0.41732283464566927
          },
          {
            "duration": 1.40625,
            "durationTicks": 450,
            "midi": 49,
            "name": "C#3",
            "ticks": 55680,
            "time": 174,
            "velocity": 0.41732283464566927
          },
          {
            "duration": 1.40625,
            "durationTicks": 450,
            "midi": 61,
            "name": "C#4",
            "ticks": 55680,
            "time": 174,
            "velocity": 0.41732283464566927
          },
          {
            "duration": 2.8125,
            "durationTicks": 900,
            "midi": 50,
            "name": "D3",
            "ticks": 56160,
            "time": 175.5,
            "velocity": 0.4330708661417323
          },
          {
            "duration": 2.8125,
            "durationTicks": 900,
            "midi": 62,
            "name": "D4",
            "ticks": 56160,
            "time": 175.5,
            "velocity": 0.4330708661417323
          },
          {
            "duration": 1.40625,
            "durationTicks": 450,
            "midi": 57,
            "name": "A3",
            "ticks": 57120,
            "time": 178.5,
            "velocity": 0.4330708661417323
          },
          {
            "duration": 1.40625,
            "durationTicks": 450,
            "midi": 69,
            "name": "A4",
            "ticks": 57120,
            "time": 178.5,
            "velocity": 0.4330708661417323
          },
          {
            "duration": 2.8125,
            "durationTicks": 900,
            "midi": 55,
            "name": "G3",
            "ticks": 57600,
            "time": 180,
            "velocity": 0.41732283464566927
          },
          {
            "duration": 2.8125,
            "durationTicks": 900,
            "midi": 67,
            "name": "G4",
            "ticks": 57600,
            "time": 180,
            "velocity": 0.41732283464566927
          },
          {
            "duration": 1.40625,
            "durationTicks": 450,
            "midi": 49,
            "name": "C#3",
            "ticks": 58560,
            "time": 183,
            "velocity": 0.41732283464566927
          },
          {
            "duration": 1.40625,
            "durationTicks": 450,
            "midi": 61,
            "name": "C#4",
            "ticks": 58560,
            "time": 183,
            "velocity": 0.41732283464566927
          },
          {
            "duration": 2.8125,
            "durationTicks": 900,
            "midi": 50,
            "name": "D3",
            "ticks": 59040,
            "time": 184.5,
            "velocity": 0.4645669291338583
          },
          {
            "duration": 2.8125,
            "durationTicks": 900,
            "midi": 62,
            "name": "D4",
            "ticks": 59040,
            "time": 184.5,
            "velocity": 0.4645669291338583
          },
          {
            "duration": 1.40625,
            "durationTicks": 450,
            "midi": 57,
            "name": "A3",
            "ticks": 60000,
            "time": 187.5,
            "velocity": 0.5275590551181102
          },
          {
            "duration": 1.40625,
            "durationTicks": 450,
            "midi": 69,
            "name": "A4",
            "ticks": 60000,
            "time": 187.5,
            "velocity": 0.5275590551181102
          },
          {
            "duration": 2.8125,
            "durationTicks": 900,
            "midi": 71,
            "name": "B4",
            "ticks": 60480,
            "time": 189,
            "velocity": 0.5590551181102362
          },
          {
            "duration": 1.40625,
            "durationTicks": 450,
            "midi": 76,
            "name": "E5",
            "ticks": 61440,
            "time": 192,
            "velocity": 0.6220472440944882
          },
          {
            "duration": 1.40625,
            "durationTicks": 450,
            "midi": 76,
            "name": "E5",
            "ticks": 61920,
            "time": 193.5,
            "velocity": 0.6535433070866141
          },
          {
            "duration": 1.40625,
            "durationTicks": 450,
            "midi": 78,
            "name": "F#5",
            "ticks": 62400,
            "time": 195,
            "velocity": 0.6850393700787402
          },
          {
            "duration": 1.40625,
            "durationTicks": 450,
            "midi": 71,
            "name": "B4",
            "ticks": 62880,
            "time": 196.5,
            "velocity": 0.7165354330708661
          },
          {
            "duration": 4.21875,
            "durationTicks": 1350,
            "midi": 71,
            "name": "B4",
            "ticks": 63360,
            "time": 198,
            "velocity": 0.7086614173228346
          },
          {
            "duration": 1.40625,
            "durationTicks": 450,
            "midi": 71,
            "name": "B4",
            "ticks": 64800,
            "time": 202.5,
            "velocity": 0.7086614173228346
          },
          {
            "duration": 1.40625,
            "durationTicks": 450,
            "midi": 70,
            "name": "A#4",
            "ticks": 65280,
            "time": 204,
            "velocity": 0.6535433070866141
          },
          {
            "duration": 0.46875,
            "durationTicks": 150,
            "midi": 71,
            "name": "B4",
            "ticks": 65760,
            "time": 205.5,
            "velocity": 0.49606299212598426
          },
          {
            "duration": 0.46875,
            "durationTicks": 150,
            "midi": 69,
            "name": "A4",
            "ticks": 65920,
            "time": 206,
            "velocity": 0.49606299212598426
          },
          {
            "duration": 0.96875,
            "durationTicks": 310,
            "midi": 69,
            "name": "A4",
            "ticks": 66080,
            "time": 206.5,
            "velocity": 0.49606299212598426
          },
          {
            "duration": 0.46875,
            "durationTicks": 150,
            "midi": 69,
            "name": "A4",
            "ticks": 66400,
            "time": 207.5,
            "velocity": 0.49606299212598426
          },
          {
            "duration": 0.96875,
            "durationTicks": 310,
            "midi": 69,
            "name": "A4",
            "ticks": 66560,
            "time": 208,
            "velocity": 0.49606299212598426
          },
          {
            "duration": 0.46875,
            "durationTicks": 150,
            "midi": 69,
            "name": "A4",
            "ticks": 66880,
            "time": 209,
            "velocity": 0.49606299212598426
          },
          {
            "duration": 0.96875,
            "durationTicks": 310,
            "midi": 69,
            "name": "A4",
            "ticks": 67040,
            "time": 209.5,
            "velocity": 0.49606299212598426
          },
          {
            "duration": 0.46875,
            "durationTicks": 150,
            "midi": 68,
            "name": "G#4",
            "ticks": 67360,
            "time": 210.5,
            "velocity": 0.49606299212598426
          },
          {
            "duration": 0.46875,
            "durationTicks": 150,
            "midi": 68,
            "name": "G#4",
            "ticks": 67520,
            "time": 211,
            "velocity": 0.49606299212598426
          },
          {
            "duration": 0.46875,
            "durationTicks": 150,
            "midi": 69,
            "name": "A4",
            "ticks": 67840,
            "time": 212,
            "velocity": 0.4330708661417323
          },
          {
            "duration": 0.96875,
            "durationTicks": 310,
            "midi": 69,
            "name": "A4",
            "ticks": 68000,
            "time": 212.5,
            "velocity": 0.4330708661417323
          },
          {
            "duration": 0.46875,
            "durationTicks": 150,
            "midi": 69,
            "name": "A4",
            "ticks": 68320,
            "time": 213.5,
            "velocity": 0.4330708661417323
          },
          {
            "duration": 0.96875,
            "durationTicks": 310,
            "midi": 69,
            "name": "A4",
            "ticks": 68480,
            "time": 214,
            "velocity": 0.4330708661417323
          },
          {
            "duration": 0.46875,
            "durationTicks": 150,
            "midi": 69,
            "name": "A4",
            "ticks": 68800,
            "time": 215,
            "velocity": 0.4330708661417323
          },
          {
            "duration": 0.96875,
            "durationTicks": 310,
            "midi": 69,
            "name": "A4",
            "ticks": 68960,
            "time": 215.5,
            "velocity": 0.4330708661417323
          },
          {
            "duration": 0.46875,
            "durationTicks": 150,
            "midi": 69,
            "name": "A4",
            "ticks": 69280,
            "time": 216.5,
            "velocity": 0.4330708661417323
          },
          {
            "duration": 0.96875,
            "durationTicks": 310,
            "midi": 69,
            "name": "A4",
            "ticks": 69440,
            "time": 217,
            "velocity": 0.4330708661417323
          },
          {
            "duration": 0.46875,
            "durationTicks": 150,
            "midi": 69,
            "name": "A4",
            "ticks": 69760,
            "time": 218,
            "velocity": 0.4330708661417323
          },
          {
            "duration": 0.96875,
            "durationTicks": 310,
            "midi": 69,
            "name": "A4",
            "ticks": 69920,
            "time": 218.5,
            "velocity": 0.4330708661417323
          },
          {
            "duration": 0.46875,
            "durationTicks": 150,
            "midi": 68,
            "name": "G#4",
            "ticks": 70240,
            "time": 219.5,
            "velocity": 0.4330708661417323
          },
          {
            "duration": 0.46875,
            "durationTicks": 150,
            "midi": 68,
            "name": "G#4",
            "ticks": 70400,
            "time": 220,
            "velocity": 0.4330708661417323
          },
          {
            "duration": 0.46875,
            "durationTicks": 150,
            "midi": 69,
            "name": "A4",
            "ticks": 70720,
            "time": 221,
            "velocity": 0.4330708661417323
          },
          {
            "duration": 0.96875,
            "durationTicks": 310,
            "midi": 69,
            "name": "A4",
            "ticks": 70880,
            "time": 221.5,
            "velocity": 0.4330708661417323
          },
          {
            "duration": 0.46875,
            "durationTicks": 150,
            "midi": 69,
            "name": "A4",
            "ticks": 71200,
            "time": 222.5,
            "velocity": 0.4330708661417323
          },
          {
            "duration": 0.96875,
            "durationTicks": 310,
            "midi": 69,
            "name": "A4",
            "ticks": 71360,
            "time": 223,
            "velocity": 0.4330708661417323
          },
          {
            "duration": 0.46875,
            "durationTicks": 150,
            "midi": 69,
            "name": "A4",
            "ticks": 71680,
            "time": 224,
            "velocity": 0.4330708661417323
          },
          {
            "duration": 0.46875,
            "durationTicks": 150,
            "midi": 69,
            "name": "A4",
            "ticks": 71840,
            "time": 224.5,
            "velocity": 0.4330708661417323
          },
          {
            "duration": 0.46875,
            "durationTicks": 150,
            "midi": 71,
            "name": "B4",
            "ticks": 72160,
            "time": 225.5,
            "velocity": 0.47244094488188976
          },
          {
            "duration": 0.96875,
            "durationTicks": 310,
            "midi": 71,
            "name": "B4",
            "ticks": 72320,
            "time": 226,
            "velocity": 0.48031496062992124
          },
          {
            "duration": 0.46875,
            "durationTicks": 150,
            "midi": 71,
            "name": "B4",
            "ticks": 72640,
            "time": 227,
            "velocity": 0.4881889763779528
          },
          {
            "duration": 0.96875,
            "durationTicks": 310,
            "midi": 71,
            "name": "B4",
            "ticks": 72800,
            "time": 227.5,
            "velocity": 0.49606299212598426
          },
          {
            "duration": 0.46875,
            "durationTicks": 150,
            "midi": 71,
            "name": "B4",
            "ticks": 73120,
            "time": 228.5,
            "velocity": 0.5039370078740157
          },
          {
            "duration": 0.46875,
            "durationTicks": 150,
            "midi": 71,
            "name": "B4",
            "ticks": 73280,
            "time": 229,
            "velocity": 0.5118110236220472
          },
          {
            "duration": 0.46875,
            "durationTicks": 150,
            "midi": 73,
            "name": "C#5",
            "ticks": 73600,
            "time": 230,
            "velocity": 0.5275590551181102
          },
          {
            "duration": 0.96875,
            "durationTicks": 310,
            "midi": 73,
            "name": "C#5",
            "ticks": 73760,
            "time": 230.5,
            "velocity": 0.5275590551181102
          },
          {
            "duration": 0.46875,
            "durationTicks": 150,
            "midi": 73,
            "name": "C#5",
            "ticks": 74080,
            "time": 231.5,
            "velocity": 0.5433070866141733
          },
          {
            "duration": 0.96875,
            "durationTicks": 310,
            "midi": 73,
            "name": "C#5",
            "ticks": 74240,
            "time": 232,
            "velocity": 0.5433070866141733
          },
          {
            "duration": 0.46875,
            "durationTicks": 150,
            "midi": 73,
            "name": "C#5",
            "ticks": 74560,
            "time": 233,
            "velocity": 0.5590551181102362
          },
          {
            "duration": 0.46875,
            "durationTicks": 150,
            "midi": 73,
            "name": "C#5",
            "ticks": 74720,
            "time": 233.5,
            "velocity": 0.5590551181102362
          },
          {
            "duration": 0.46875,
            "durationTicks": 150,
            "midi": 74,
            "name": "D5",
            "ticks": 75040,
            "time": 234.5,
            "velocity": 0.5748031496062992
          },
          {
            "duration": 0.96875,
            "durationTicks": 310,
            "midi": 74,
            "name": "D5",
            "ticks": 75200,
            "time": 235,
            "velocity": 0.5826771653543307
          },
          {
            "duration": 0.46875,
            "durationTicks": 150,
            "midi": 74,
            "name": "D5",
            "ticks": 75520,
            "time": 236,
            "velocity": 0.5905511811023622
          },
          {
            "duration": 0.96875,
            "durationTicks": 310,
            "midi": 74,
            "name": "D5",
            "ticks": 75680,
            "time": 236.5,
            "velocity": 0.5984251968503937
          },
          {
            "duration": 0.46875,
            "durationTicks": 150,
            "midi": 74,
            "name": "D5",
            "ticks": 76000,
            "time": 237.5,
            "velocity": 0.6062992125984252
          },
          {
            "duration": 0.46875,
            "durationTicks": 150,
            "midi": 74,
            "name": "D5",
            "ticks": 76160,
            "time": 238,
            "velocity": 0.6141732283464567
          },
          {
            "duration": 0.46875,
            "durationTicks": 150,
            "midi": 74,
            "name": "D5",
            "ticks": 76480,
            "time": 239,
            "velocity": 0.6220472440944882
          },
          {
            "duration": 0.96875,
            "durationTicks": 310,
            "midi": 74,
            "name": "D5",
            "ticks": 76640,
            "time": 239.5,
            "velocity": 0.6299212598425197
          },
          {
            "duration": 0.46875,
            "durationTicks": 150,
            "midi": 74,
            "name": "D5",
            "ticks": 76960,
            "time": 240.5,
            "velocity": 0.6377952755905512
          },
          {
            "duration": 0.46875,
            "durationTicks": 150,
            "midi": 74,
            "name": "D5",
            "ticks": 77120,
            "time": 241,
            "velocity": 0.6456692913385826
          },
          {
            "duration": 1.40625,
            "durationTicks": 450,
            "midi": 69,
            "name": "A4",
            "ticks": 77280,
            "time": 241.5,
            "velocity": 0.6535433070866141
          },
          {
            "duration": 2.8125,
            "durationTicks": 900,
            "midi": 67,
            "name": "G4",
            "ticks": 77760,
            "time": 243,
            "velocity": 0.47244094488188976
          },
          {
            "duration": 1.40625,
            "durationTicks": 450,
            "midi": 61,
            "name": "C#4",
            "ticks": 78720,
            "time": 246,
            "velocity": 0.49606299212598426
          },
          {
            "duration": 2.8125,
            "durationTicks": 900,
            "midi": 62,
            "name": "D4",
            "ticks": 79200,
            "time": 247.5,
            "velocity": 0.5118110236220472
          },
          {
            "duration": 1.40625,
            "durationTicks": 450,
            "midi": 69,
            "name": "A4",
            "ticks": 80160,
            "time": 250.5,
            "velocity": 0.5433070866141733
          },
          {
            "duration": 2.8125,
            "durationTicks": 900,
            "midi": 67,
            "name": "G4",
            "ticks": 80640,
            "time": 252,
            "velocity": 0.5511811023622047
          },
          {
            "duration": 1.40625,
            "durationTicks": 450,
            "midi": 61,
            "name": "C#4",
            "ticks": 81600,
            "time": 255,
            "velocity": 0.5826771653543307
          },
          {
            "duration": 2.8125,
            "durationTicks": 900,
            "midi": 62,
            "name": "D4",
            "ticks": 82080,
            "time": 256.5,
            "velocity": 0.5905511811023622
          },
          {
            "duration": 1.40625,
            "durationTicks": 450,
            "midi": 60,
            "name": "C4",
            "ticks": 83040,
            "time": 259.5,
            "velocity": 0.6220472440944882
          },
          {
            "duration": 1.40625,
            "durationTicks": 450,
            "midi": 72,
            "name": "C5",
            "ticks": 83040,
            "time": 259.5,
            "velocity": 0.6220472440944882
          },
          {
            "duration": 2.8125,
            "durationTicks": 900,
            "midi": 59,
            "name": "B3",
            "ticks": 83520,
            "time": 261,
            "velocity": 0.6377952755905512
          },
          {
            "duration": 2.8125,
            "durationTicks": 900,
            "midi": 71,
            "name": "B4",
            "ticks": 83520,
            "time": 261,
            "velocity": 0.6377952755905512
          },
          {
            "duration": 1.40625,
            "durationTicks": 450,
            "midi": 52,
            "name": "E3",
            "ticks": 84480,
            "time": 264,
            "velocity": 0.6614173228346457
          },
          {
            "duration": 1.40625,
            "durationTicks": 450,
            "midi": 64,
            "name": "E4",
            "ticks": 84480,
            "time": 264,
            "velocity": 0.6614173228346457
          },
          {
            "duration": 1.40625,
            "durationTicks": 450,
            "midi": 64,
            "name": "E4",
            "ticks": 84960,
            "time": 265.5,
            "velocity": 0.6771653543307087
          },
          {
            "duration": 1.40625,
            "durationTicks": 450,
            "midi": 76,
            "name": "E5",
            "ticks": 84960,
            "time": 265.5,
            "velocity": 0.6771653543307087
          },
          {
            "duration": 1.40625,
            "durationTicks": 450,
            "midi": 66,
            "name": "F#4",
            "ticks": 85440,
            "time": 267,
            "velocity": 0.6850393700787402
          },
          {
            "duration": 1.40625,
            "durationTicks": 450,
            "midi": 78,
            "name": "F#5",
            "ticks": 85440,
            "time": 267,
            "velocity": 0.6850393700787402
          },
          {
            "duration": 1.40625,
            "durationTicks": 450,
            "midi": 59,
            "name": "B3",
            "ticks": 85920,
            "time": 268.5,
            "velocity": 0.7007874015748031
          },
          {
            "duration": 1.40625,
            "durationTicks": 450,
            "midi": 71,
            "name": "B4",
            "ticks": 85920,
            "time": 268.5,
            "velocity": 0.7007874015748031
          },
          {
            "duration": 4.21875,
            "durationTicks": 1350,
            "midi": 59,
            "name": "B3",
            "ticks": 86400,
            "time": 270,
            "velocity": 0.7165354330708661
          },
          {
            "duration": 4.21875,
            "durationTicks": 1350,
            "midi": 71,
            "name": "B4",
            "ticks": 86400,
            "time": 270,
            "velocity": 0.7165354330708661
          },
          {
            "duration": 1.40625,
            "durationTicks": 450,
            "midi": 59,
            "name": "B3",
            "ticks": 87840,
            "time": 274.5,
            "velocity": 0.6692913385826772
          },
          {
            "duration": 1.40625,
            "durationTicks": 450,
            "midi": 71,
            "name": "B4",
            "ticks": 87840,
            "time": 274.5,
            "velocity": 0.6692913385826772
          },
          {
            "duration": 1.40625,
            "durationTicks": 450,
            "midi": 58,
            "name": "A#3",
            "ticks": 88320,
            "time": 276,
            "velocity": 0.6692913385826772
          },
          {
            "duration": 1.40625,
            "durationTicks": 450,
            "midi": 70,
            "name": "A#4",
            "ticks": 88320,
            "time": 276,
            "velocity": 0.6692913385826772
          },
          {
            "duration": 0.46875,
            "durationTicks": 150,
            "midi": 58,
            "name": "A#3",
            "ticks": 88800,
            "time": 277.5,
            "velocity": 0.6692913385826772
          },
          {
            "duration": 0.46875,
            "durationTicks": 150,
            "midi": 70,
            "name": "A#4",
            "ticks": 88800,
            "time": 277.5,
            "velocity": 0.6692913385826772
          },
          {
            "duration": 0.46875,
            "durationTicks": 150,
            "midi": 57,
            "name": "A3",
            "ticks": 88960,
            "time": 278,
            "velocity": 0.6692913385826772
          },
          {
            "duration": 0.46875,
            "durationTicks": 150,
            "midi": 69,
            "name": "A4",
            "ticks": 88960,
            "time": 278,
            "velocity": 0.6692913385826772
          },
          {
            "duration": 0.96875,
            "durationTicks": 310,
            "midi": 57,
            "name": "A3",
            "ticks": 89120,
            "time": 278.5,
            "velocity": 0.6692913385826772
          },
          {
            "duration": 0.96875,
            "durationTicks": 310,
            "midi": 69,
            "name": "A4",
            "ticks": 89120,
            "time": 278.5,
            "velocity": 0.6692913385826772
          },
          {
            "duration": 0.46875,
            "durationTicks": 150,
            "midi": 57,
            "name": "A3",
            "ticks": 89440,
            "time": 279.5,
            "velocity": 0.6692913385826772
          },
          {
            "duration": 0.46875,
            "durationTicks": 150,
            "midi": 69,
            "name": "A4",
            "ticks": 89440,
            "time": 279.5,
            "velocity": 0.6692913385826772
          },
          {
            "duration": 0.96875,
            "durationTicks": 310,
            "midi": 57,
            "name": "A3",
            "ticks": 89600,
            "time": 280,
            "velocity": 0.6692913385826772
          },
          {
            "duration": 0.96875,
            "durationTicks": 310,
            "midi": 69,
            "name": "A4",
            "ticks": 89600,
            "time": 280,
            "velocity": 0.6692913385826772
          },
          {
            "duration": 0.46875,
            "durationTicks": 150,
            "midi": 57,
            "name": "A3",
            "ticks": 89920,
            "time": 281,
            "velocity": 0.6692913385826772
          },
          {
            "duration": 0.46875,
            "durationTicks": 150,
            "midi": 69,
            "name": "A4",
            "ticks": 89920,
            "time": 281,
            "velocity": 0.6692913385826772
          },
          {
            "duration": 0.96875,
            "durationTicks": 310,
            "midi": 57,
            "name": "A3",
            "ticks": 90080,
            "time": 281.5,
            "velocity": 0.6692913385826772
          },
          {
            "duration": 0.96875,
            "durationTicks": 310,
            "midi": 69,
            "name": "A4",
            "ticks": 90080,
            "time": 281.5,
            "velocity": 0.6692913385826772
          },
          {
            "duration": 0.46875,
            "durationTicks": 150,
            "midi": 56,
            "name": "G#3",
            "ticks": 90400,
            "time": 282.5,
            "velocity": 0.6692913385826772
          },
          {
            "duration": 0.46875,
            "durationTicks": 150,
            "midi": 68,
            "name": "G#4",
            "ticks": 90400,
            "time": 282.5,
            "velocity": 0.6692913385826772
          },
          {
            "duration": 0.46875,
            "durationTicks": 150,
            "midi": 56,
            "name": "G#3",
            "ticks": 90560,
            "time": 283,
            "velocity": 0.6692913385826772
          },
          {
            "duration": 0.46875,
            "durationTicks": 150,
            "midi": 68,
            "name": "G#4",
            "ticks": 90560,
            "time": 283,
            "velocity": 0.6692913385826772
          },
          {
            "duration": 0.46875,
            "durationTicks": 150,
            "midi": 57,
            "name": "A3",
            "ticks": 90880,
            "time": 284,
            "velocity": 0.6299212598425197
          },
          {
            "duration": 0.46875,
            "durationTicks": 150,
            "midi": 69,
            "name": "A4",
            "ticks": 90880,
            "time": 284,
            "velocity": 0.6299212598425197
          },
          {
            "duration": 0.46875,
            "durationTicks": 150,
            "midi": 57,
            "name": "A3",
            "ticks": 91040,
            "time": 284.5,
            "velocity": 0.6299212598425197
          },
          {
            "duration": 0.96875,
            "durationTicks": 310,
            "midi": 69,
            "name": "A4",
            "ticks": 91040,
            "time": 284.5,
            "velocity": 0.6299212598425197
          },
          {
            "duration": 0.46875,
            "durationTicks": 150,
            "midi": 57,
            "name": "A3",
            "ticks": 91200,
            "time": 285,
            "velocity": 0.6299212598425197
          },
          {
            "duration": 0.46875,
            "durationTicks": 150,
            "midi": 57,
            "name": "A3",
            "ticks": 91360,
            "time": 285.5,
            "velocity": 0.6299212598425197
          },
          {
            "duration": 0.46875,
            "durationTicks": 150,
            "midi": 69,
            "name": "A4",
            "ticks": 91360,
            "time": 285.5,
            "velocity": 0.6299212598425197
          },
          {
            "duration": 0.46875,
            "durationTicks": 150,
            "midi": 57,
            "name": "A3",
            "ticks": 91520,
            "time": 286,
            "velocity": 0.6299212598425197
          },
          {
            "duration": 0.96875,
            "durationTicks": 310,
            "midi": 69,
            "name": "A4",
            "ticks": 91520,
            "time": 286,
            "velocity": 0.6299212598425197
          },
          {
            "duration": 0.46875,
            "durationTicks": 150,
            "midi": 57,
            "name": "A3",
            "ticks": 91680,
            "time": 286.5,
            "velocity": 0.6299212598425197
          },
          {
            "duration": 0.46875,
            "durationTicks": 150,
            "midi": 57,
            "name": "A3",
            "ticks": 91840,
            "time": 287,
            "velocity": 0.6299212598425197
          },
          {
            "duration": 0.46875,
            "durationTicks": 150,
            "midi": 69,
            "name": "A4",
            "ticks": 91840,
            "time": 287,
            "velocity": 0.6299212598425197
          },
          {
            "duration": 0.46875,
            "durationTicks": 150,
            "midi": 57,
            "name": "A3",
            "ticks": 92000,
            "time": 287.5,
            "velocity": 0.6299212598425197
          },
          {
            "duration": 0.96875,
            "durationTicks": 310,
            "midi": 69,
            "name": "A4",
            "ticks": 92000,
            "time": 287.5,
            "velocity": 0.6299212598425197
          },
          {
            "duration": 0.46875,
            "durationTicks": 150,
            "midi": 57,
            "name": "A3",
            "ticks": 92160,
            "time": 288,
            "velocity": 0.6299212598425197
          },
          {
            "duration": 0.46875,
            "durationTicks": 150,
            "midi": 57,
            "name": "A3",
            "ticks": 92320,
            "time": 288.5,
            "velocity": 0.6299212598425197
          },
          {
            "duration": 0.46875,
            "durationTicks": 150,
            "midi": 69,
            "name": "A4",
            "ticks": 92320,
            "time": 288.5,
            "velocity": 0.6299212598425197
          },
          {
            "duration": 0.46875,
            "durationTicks": 150,
            "midi": 57,
            "name": "A3",
            "ticks": 92480,
            "time": 289,
            "velocity": 0.6299212598425197
          },
          {
            "duration": 0.96875,
            "durationTicks": 310,
            "midi": 69,
            "name": "A4",
            "ticks": 92480,
            "time": 289,
            "velocity": 0.6299212598425197
          },
          {
            "duration": 0.46875,
            "durationTicks": 150,
            "midi": 57,
            "name": "A3",
            "ticks": 92640,
            "time": 289.5,
            "velocity": 0.6299212598425197
          },
          {
            "duration": 0.46875,
            "durationTicks": 150,
            "midi": 57,
            "name": "A3",
            "ticks": 92800,
            "time": 290,
            "velocity": 0.6299212598425197
          },
          {
            "duration": 0.46875,
            "durationTicks": 150,
            "midi": 69,
            "name": "A4",
            "ticks": 92800,
            "time": 290,
            "velocity": 0.6299212598425197
          },
          {
            "duration": 0.46875,
            "durationTicks": 150,
            "midi": 57,
            "name": "A3",
            "ticks": 92960,
            "time": 290.5,
            "velocity": 0.6299212598425197
          },
          {
            "duration": 0.96875,
            "durationTicks": 310,
            "midi": 69,
            "name": "A4",
            "ticks": 92960,
            "time": 290.5,
            "velocity": 0.6299212598425197
          },
          {
            "duration": 0.46875,
            "durationTicks": 150,
            "midi": 57,
            "name": "A3",
            "ticks": 93120,
            "time": 291,
            "velocity": 0.6299212598425197
          },
          {
            "duration": 0.46875,
            "durationTicks": 150,
            "midi": 56,
            "name": "G#3",
            "ticks": 93280,
            "time": 291.5,
            "velocity": 0.6299212598425197
          },
          {
            "duration": 0.46875,
            "durationTicks": 150,
            "midi": 68,
            "name": "G#4",
            "ticks": 93280,
            "time": 291.5,
            "velocity": 0.6299212598425197
          },
          {
            "duration": 0.46875,
            "durationTicks": 150,
            "midi": 56,
            "name": "G#3",
            "ticks": 93440,
            "time": 292,
            "velocity": 0.6299212598425197
          },
          {
            "duration": 0.46875,
            "durationTicks": 150,
            "midi": 68,
            "name": "G#4",
            "ticks": 93440,
            "time": 292,
            "velocity": 0.6299212598425197
          },
          {
            "duration": 0.46875,
            "durationTicks": 150,
            "midi": 57,
            "name": "A3",
            "ticks": 93760,
            "time": 293,
            "velocity": 0.5748031496062992
          },
          {
            "duration": 0.46875,
            "durationTicks": 150,
            "midi": 69,
            "name": "A4",
            "ticks": 93760,
            "time": 293,
            "velocity": 0.5748031496062992
          },
          {
            "duration": 0.96875,
            "durationTicks": 310,
            "midi": 57,
            "name": "A3",
            "ticks": 93920,
            "time": 293.5,
            "velocity": 0.5826771653543307
          },
          {
            "duration": 0.96875,
            "durationTicks": 310,
            "midi": 69,
            "name": "A4",
            "ticks": 93920,
            "time": 293.5,
            "velocity": 0.5826771653543307
          },
          {
            "duration": 0.46875,
            "durationTicks": 150,
            "midi": 57,
            "name": "A3",
            "ticks": 94240,
            "time": 294.5,
            "velocity": 0.5905511811023622
          },
          {
            "duration": 0.46875,
            "durationTicks": 150,
            "midi": 69,
            "name": "A4",
            "ticks": 94240,
            "time": 294.5,
            "velocity": 0.5905511811023622
          },
          {
            "duration": 0.96875,
            "durationTicks": 310,
            "midi": 57,
            "name": "A3",
            "ticks": 94400,
            "time": 295,
            "velocity": 0.5984251968503937
          },
          {
            "duration": 0.96875,
            "durationTicks": 310,
            "midi": 69,
            "name": "A4",
            "ticks": 94400,
            "time": 295,
            "velocity": 0.5984251968503937
          },
          {
            "duration": 0.46875,
            "durationTicks": 150,
            "midi": 57,
            "name": "A3",
            "ticks": 94720,
            "time": 296,
            "velocity": 0.6062992125984252
          },
          {
            "duration": 0.46875,
            "durationTicks": 150,
            "midi": 69,
            "name": "A4",
            "ticks": 94720,
            "time": 296,
            "velocity": 0.6062992125984252
          },
          {
            "duration": 0.46875,
            "durationTicks": 150,
            "midi": 57,
            "name": "A3",
            "ticks": 94880,
            "time": 296.5,
            "velocity": 0.6141732283464567
          },
          {
            "duration": 0.46875,
            "durationTicks": 150,
            "midi": 69,
            "name": "A4",
            "ticks": 94880,
            "time": 296.5,
            "velocity": 0.6141732283464567
          },
          {
            "duration": 0.46875,
            "durationTicks": 150,
            "midi": 59,
            "name": "B3",
            "ticks": 95200,
            "time": 297.5,
            "velocity": 0.5748031496062992
          },
          {
            "duration": 0.46875,
            "durationTicks": 150,
            "midi": 71,
            "name": "B4",
            "ticks": 95200,
            "time": 297.5,
            "velocity": 0.5748031496062992
          },
          {
            "duration": 0.96875,
            "durationTicks": 310,
            "midi": 59,
            "name": "B3",
            "ticks": 95360,
            "time": 298,
            "velocity": 0.5826771653543307
          },
          {
            "duration": 0.96875,
            "durationTicks": 310,
            "midi": 71,
            "name": "B4",
            "ticks": 95360,
            "time": 298,
            "velocity": 0.5826771653543307
          },
          {
            "duration": 0.46875,
            "durationTicks": 150,
            "midi": 59,
            "name": "B3",
            "ticks": 95680,
            "time": 299,
            "velocity": 0.5905511811023622
          },
          {
            "duration": 0.46875,
            "durationTicks": 150,
            "midi": 71,
            "name": "B4",
            "ticks": 95680,
            "time": 299,
            "velocity": 0.5905511811023622
          },
          {
            "duration": 0.96875,
            "durationTicks": 310,
            "midi": 59,
            "name": "B3",
            "ticks": 95840,
            "time": 299.5,
            "velocity": 0.5984251968503937
          },
          {
            "duration": 0.96875,
            "durationTicks": 310,
            "midi": 71,
            "name": "B4",
            "ticks": 95840,
            "time": 299.5,
            "velocity": 0.5984251968503937
          },
          {
            "duration": 0.46875,
            "durationTicks": 150,
            "midi": 59,
            "name": "B3",
            "ticks": 96160,
            "time": 300.5,
            "velocity": 0.6062992125984252
          },
          {
            "duration": 0.46875,
            "durationTicks": 150,
            "midi": 71,
            "name": "B4",
            "ticks": 96160,
            "time": 300.5,
            "velocity": 0.6062992125984252
          },
          {
            "duration": 0.46875,
            "durationTicks": 150,
            "midi": 59,
            "name": "B3",
            "ticks": 96320,
            "time": 301,
            "velocity": 0.6141732283464567
          },
          {
            "duration": 0.46875,
            "durationTicks": 150,
            "midi": 71,
            "name": "B4",
            "ticks": 96320,
            "time": 301,
            "velocity": 0.6141732283464567
          },
          {
            "duration": 0.46875,
            "durationTicks": 150,
            "midi": 61,
            "name": "C#4",
            "ticks": 96640,
            "time": 302,
            "velocity": 0.5748031496062992
          },
          {
            "duration": 0.46875,
            "durationTicks": 150,
            "midi": 73,
            "name": "C#5",
            "ticks": 96640,
            "time": 302,
            "velocity": 0.5748031496062992
          },
          {
            "duration": 0.96875,
            "durationTicks": 310,
            "midi": 61,
            "name": "C#4",
            "ticks": 96800,
            "time": 302.5,
            "velocity": 0.5826771653543307
          },
          {
            "duration": 0.96875,
            "durationTicks": 310,
            "midi": 73,
            "name": "C#5",
            "ticks": 96800,
            "time": 302.5,
            "velocity": 0.5826771653543307
          },
          {
            "duration": 0.46875,
            "durationTicks": 150,
            "midi": 61,
            "name": "C#4",
            "ticks": 97120,
            "time": 303.5,
            "velocity": 0.5905511811023622
          },
          {
            "duration": 0.46875,
            "durationTicks": 150,
            "midi": 73,
            "name": "C#5",
            "ticks": 97120,
            "time": 303.5,
            "velocity": 0.5905511811023622
          },
          {
            "duration": 0.96875,
            "durationTicks": 310,
            "midi": 61,
            "name": "C#4",
            "ticks": 97280,
            "time": 304,
            "velocity": 0.5984251968503937
          },
          {
            "duration": 0.96875,
            "durationTicks": 310,
            "midi": 73,
            "name": "C#5",
            "ticks": 97280,
            "time": 304,
            "velocity": 0.5984251968503937
          },
          {
            "duration": 0.46875,
            "durationTicks": 150,
            "midi": 61,
            "name": "C#4",
            "ticks": 97600,
            "time": 305,
            "velocity": 0.6062992125984252
          },
          {
            "duration": 0.46875,
            "durationTicks": 150,
            "midi": 73,
            "name": "C#5",
            "ticks": 97600,
            "time": 305,
            "velocity": 0.6062992125984252
          },
          {
            "duration": 0.46875,
            "durationTicks": 150,
            "midi": 61,
            "name": "C#4",
            "ticks": 97760,
            "time": 305.5,
            "velocity": 0.6141732283464567
          },
          {
            "duration": 0.46875,
            "durationTicks": 150,
            "midi": 73,
            "name": "C#5",
            "ticks": 97760,
            "time": 305.5,
            "velocity": 0.6141732283464567
          },
          {
            "duration": 0.46875,
            "durationTicks": 150,
            "midi": 62,
            "name": "D4",
            "ticks": 98080,
            "time": 306.5,
            "velocity": 0.6377952755905512
          },
          {
            "duration": 0.46875,
            "durationTicks": 150,
            "midi": 74,
            "name": "D5",
            "ticks": 98080,
            "time": 306.5,
            "velocity": 0.6377952755905512
          },
          {
            "duration": 0.96875,
            "durationTicks": 310,
            "midi": 62,
            "name": "D4",
            "ticks": 98240,
            "time": 307,
            "velocity": 0.6456692913385826
          },
          {
            "duration": 0.96875,
            "durationTicks": 310,
            "midi": 74,
            "name": "D5",
            "ticks": 98240,
            "time": 307,
            "velocity": 0.6456692913385826
          },
          {
            "duration": 0.46875,
            "durationTicks": 150,
            "midi": 62,
            "name": "D4",
            "ticks": 98560,
            "time": 308,
            "velocity": 0.6692913385826772
          },
          {
            "duration": 0.46875,
            "durationTicks": 150,
            "midi": 74,
            "name": "D5",
            "ticks": 98560,
            "time": 308,
            "velocity": 0.6692913385826772
          },
          {
            "duration": 0.96875,
            "durationTicks": 310,
            "midi": 62,
            "name": "D4",
            "ticks": 98720,
            "time": 308.5,
            "velocity": 0.6771653543307087
          },
          {
            "duration": 0.96875,
            "durationTicks": 310,
            "midi": 74,
            "name": "D5",
            "ticks": 98720,
            "time": 308.5,
            "velocity": 0.6771653543307087
          },
          {
            "duration": 0.46875,
            "durationTicks": 150,
            "midi": 62,
            "name": "D4",
            "ticks": 99040,
            "time": 309.5,
            "velocity": 0.7007874015748031
          },
          {
            "duration": 0.46875,
            "durationTicks": 150,
            "midi": 74,
            "name": "D5",
            "ticks": 99040,
            "time": 309.5,
            "velocity": 0.7007874015748031
          },
          {
            "duration": 0.46875,
            "durationTicks": 150,
            "midi": 62,
            "name": "D4",
            "ticks": 99200,
            "time": 310,
            "velocity": 0.7086614173228346
          },
          {
            "duration": 0.46875,
            "durationTicks": 150,
            "midi": 74,
            "name": "D5",
            "ticks": 99200,
            "time": 310,
            "velocity": 0.7086614173228346
          },
          {
            "duration": 0.46875,
            "durationTicks": 150,
            "midi": 64,
            "name": "E4",
            "ticks": 99520,
            "time": 311,
            "velocity": 0.7322834645669292
          },
          {
            "duration": 0.46875,
            "durationTicks": 150,
            "midi": 76,
            "name": "E5",
            "ticks": 99520,
            "time": 311,
            "velocity": 0.7322834645669292
          },
          {
            "duration": 0.96875,
            "durationTicks": 310,
            "midi": 64,
            "name": "E4",
            "ticks": 99680,
            "time": 311.5,
            "velocity": 0.7401574803149606
          },
          {
            "duration": 0.96875,
            "durationTicks": 310,
            "midi": 76,
            "name": "E5",
            "ticks": 99680,
            "time": 311.5,
            "velocity": 0.7401574803149606
          },
          {
            "duration": 0.46875,
            "durationTicks": 150,
            "midi": 64,
            "name": "E4",
            "ticks": 100000,
            "time": 312.5,
            "velocity": 0.7637795275590551
          },
          {
            "duration": 0.46875,
            "durationTicks": 150,
            "midi": 76,
            "name": "E5",
            "ticks": 100000,
            "time": 312.5,
            "velocity": 0.7637795275590551
          },
          {
            "duration": 0.96875,
            "durationTicks": 310,
            "midi": 64,
            "name": "E4",
            "ticks": 100160,
            "time": 313,
            "velocity": 0.7716535433070866
          },
          {
            "duration": 0.96875,
            "durationTicks": 310,
            "midi": 76,
            "name": "E5",
            "ticks": 100160,
            "time": 313,
            "velocity": 0.7716535433070866
          },
          {
            "duration": 0.46875,
            "durationTicks": 150,
            "midi": 64,
            "name": "E4",
            "ticks": 100480,
            "time": 314,
            "velocity": 0.7952755905511811
          },
          {
            "duration": 0.46875,
            "durationTicks": 150,
            "midi": 76,
            "name": "E5",
            "ticks": 100480,
            "time": 314,
            "velocity": 0.7952755905511811
          },
          {
            "duration": 0.46875,
            "durationTicks": 150,
            "midi": 64,
            "name": "E4",
            "ticks": 100640,
            "time": 314.5,
            "velocity": 0.8031496062992126
          },
          {
            "duration": 0.46875,
            "durationTicks": 150,
            "midi": 76,
            "name": "E5",
            "ticks": 100640,
            "time": 314.5,
            "velocity": 0.8031496062992126
          },
          {
            "duration": 0.46875,
            "durationTicks": 150,
            "midi": 78,
            "name": "F#5",
            "ticks": 100800,
            "time": 315,
            "velocity": 0.8661417322834646
          },
          {
            "duration": 0.46875,
            "durationTicks": 150,
            "midi": 78,
            "name": "F#5",
            "ticks": 100960,
            "time": 315.5,
            "velocity": 0.8661417322834646
          },
          {
            "duration": 0.96875,
            "durationTicks": 310,
            "midi": 78,
            "name": "F#5",
            "ticks": 101120,
            "time": 316,
            "velocity": 0.8661417322834646
          },
          {
            "duration": 0.46875,
            "durationTicks": 150,
            "midi": 78,
            "name": "F#5",
            "ticks": 101440,
            "time": 317,
            "velocity": 0.8661417322834646
          },
          {
            "duration": 0.96875,
            "durationTicks": 310,
            "midi": 78,
            "name": "F#5",
            "ticks": 101600,
            "time": 317.5,
            "velocity": 0.8661417322834646
          },
          {
            "duration": 0.46875,
            "durationTicks": 150,
            "midi": 78,
            "name": "F#5",
            "ticks": 101920,
            "time": 318.5,
            "velocity": 0.8661417322834646
          },
          {
            "duration": 0.96875,
            "durationTicks": 310,
            "midi": 78,
            "name": "F#5",
            "ticks": 102080,
            "time": 319,
            "velocity": 0.8661417322834646
          },
          {
            "duration": 0.46875,
            "durationTicks": 150,
            "midi": 72,
            "name": "C5",
            "ticks": 103680,
            "time": 324,
            "velocity": 0.8661417322834646
          },
          {
            "duration": 0.46875,
            "durationTicks": 150,
            "midi": 76,
            "name": "E5",
            "ticks": 103680,
            "time": 324,
            "velocity": 0.8661417322834646
          },
          {
            "duration": 0.46875,
            "durationTicks": 150,
            "midi": 72,
            "name": "C5",
            "ticks": 103840,
            "time": 324.5,
            "velocity": 0.8661417322834646
          },
          {
            "duration": 0.46875,
            "durationTicks": 150,
            "midi": 76,
            "name": "E5",
            "ticks": 103840,
            "time": 324.5,
            "velocity": 0.8661417322834646
          },
          {
            "duration": 0.96875,
            "durationTicks": 310,
            "midi": 72,
            "name": "C5",
            "ticks": 104000,
            "time": 325,
            "velocity": 0.8661417322834646
          },
          {
            "duration": 0.96875,
            "durationTicks": 310,
            "midi": 76,
            "name": "E5",
            "ticks": 104000,
            "time": 325,
            "velocity": 0.8661417322834646
          },
          {
            "duration": 0.46875,
            "durationTicks": 150,
            "midi": 72,
            "name": "C5",
            "ticks": 104320,
            "time": 326,
            "velocity": 0.8661417322834646
          },
          {
            "duration": 0.46875,
            "durationTicks": 150,
            "midi": 76,
            "name": "E5",
            "ticks": 104320,
            "time": 326,
            "velocity": 0.8661417322834646
          },
          {
            "duration": 0.96875,
            "durationTicks": 310,
            "midi": 72,
            "name": "C5",
            "ticks": 104480,
            "time": 326.5,
            "velocity": 0.8661417322834646
          },
          {
            "duration": 0.96875,
            "durationTicks": 310,
            "midi": 76,
            "name": "E5",
            "ticks": 104480,
            "time": 326.5,
            "velocity": 0.8661417322834646
          },
          {
            "duration": 0.46875,
            "durationTicks": 150,
            "midi": 72,
            "name": "C5",
            "ticks": 104800,
            "time": 327.5,
            "velocity": 0.8661417322834646
          },
          {
            "duration": 0.46875,
            "durationTicks": 150,
            "midi": 76,
            "name": "E5",
            "ticks": 104800,
            "time": 327.5,
            "velocity": 0.8661417322834646
          },
          {
            "duration": 0.96875,
            "durationTicks": 310,
            "midi": 72,
            "name": "C5",
            "ticks": 104960,
            "time": 328,
            "velocity": 0.8661417322834646
          },
          {
            "duration": 0.96875,
            "durationTicks": 310,
            "midi": 76,
            "name": "E5",
            "ticks": 104960,
            "time": 328,
            "velocity": 0.8661417322834646
          },
          {
            "duration": 0.46875,
            "durationTicks": 150,
            "midi": 79,
            "name": "G5",
            "ticks": 106560,
            "time": 333,
            "velocity": 0.8661417322834646
          },
          {
            "duration": 0.46875,
            "durationTicks": 150,
            "midi": 84,
            "name": "C6",
            "ticks": 106560,
            "time": 333,
            "velocity": 0.8661417322834646
          },
          {
            "duration": 0.46875,
            "durationTicks": 150,
            "midi": 79,
            "name": "G5",
            "ticks": 106720,
            "time": 333.5,
            "velocity": 0.8661417322834646
          },
          {
            "duration": 0.46875,
            "durationTicks": 150,
            "midi": 84,
            "name": "C6",
            "ticks": 106720,
            "time": 333.5,
            "velocity": 0.8661417322834646
          },
          {
            "duration": 0.96875,
            "durationTicks": 310,
            "midi": 79,
            "name": "G5",
            "ticks": 106880,
            "time": 334,
            "velocity": 0.8661417322834646
          },
          {
            "duration": 0.96875,
            "durationTicks": 310,
            "midi": 84,
            "name": "C6",
            "ticks": 106880,
            "time": 334,
            "velocity": 0.8661417322834646
          },
          {
            "duration": 0.46875,
            "durationTicks": 150,
            "midi": 79,
            "name": "G5",
            "ticks": 107200,
            "time": 335,
            "velocity": 0.8661417322834646
          },
          {
            "duration": 0.46875,
            "durationTicks": 150,
            "midi": 84,
            "name": "C6",
            "ticks": 107200,
            "time": 335,
            "velocity": 0.8661417322834646
          },
          {
            "duration": 0.96875,
            "durationTicks": 310,
            "midi": 79,
            "name": "G5",
            "ticks": 107360,
            "time": 335.5,
            "velocity": 0.8661417322834646
          },
          {
            "duration": 0.96875,
            "durationTicks": 310,
            "midi": 84,
            "name": "C6",
            "ticks": 107360,
            "time": 335.5,
            "velocity": 0.8661417322834646
          },
          {
            "duration": 0.46875,
            "durationTicks": 150,
            "midi": 79,
            "name": "G5",
            "ticks": 107680,
            "time": 336.5,
            "velocity": 0.8661417322834646
          },
          {
            "duration": 0.46875,
            "durationTicks": 150,
            "midi": 84,
            "name": "C6",
            "ticks": 107680,
            "time": 336.5,
            "velocity": 0.8661417322834646
          },
          {
            "duration": 0.96875,
            "durationTicks": 310,
            "midi": 79,
            "name": "G5",
            "ticks": 107840,
            "time": 337,
            "velocity": 0.8661417322834646
          },
          {
            "duration": 0.96875,
            "durationTicks": 310,
            "midi": 84,
            "name": "C6",
            "ticks": 107840,
            "time": 337,
            "velocity": 0.8661417322834646
          },
          {
            "duration": 0.3562500000000455,
            "durationTicks": 114,
            "midi": 72,
            "name": "C5",
            "ticks": 109440,
            "time": 342,
            "velocity": 1
          },
          {
            "duration": 0.3562500000000455,
            "durationTicks": 114,
            "midi": 76,
            "name": "E5",
            "ticks": 109440,
            "time": 342,
            "velocity": 1
          },
          {
            "duration": 0.3562500000000455,
            "durationTicks": 114,
            "midi": 72,
            "name": "C5",
            "ticks": 110400,
            "time": 345,
            "velocity": 1
          },
          {
            "duration": 0.3562500000000455,
            "durationTicks": 114,
            "midi": 76,
            "name": "E5",
            "ticks": 110400,
            "time": 345,
            "velocity": 1
          },
          {
            "duration": 0.3562500000000455,
            "durationTicks": 114,
            "midi": 72,
            "name": "C5",
            "ticks": 111360,
            "time": 348,
            "velocity": 1
          },
          {
            "duration": 0.3562500000000455,
            "durationTicks": 114,
            "midi": 76,
            "name": "E5",
            "ticks": 111360,
            "time": 348,
            "velocity": 1
          },
          {
            "duration": 0.3562500000000455,
            "durationTicks": 114,
            "midi": 72,
            "name": "C5",
            "ticks": 112320,
            "time": 351,
            "velocity": 1
          },
          {
            "duration": 0.3562500000000455,
            "durationTicks": 114,
            "midi": 76,
            "name": "E5",
            "ticks": 112320,
            "time": 351,
            "velocity": 1
          },
          {
            "duration": 0.7062500000000114,
            "durationTicks": 226,
            "midi": 55,
            "name": "G3",
            "ticks": 115440,
            "time": 360.75,
            "velocity": 1
          },
          {
            "duration": 0.7062500000000114,
            "durationTicks": 226,
            "midi": 64,
            "name": "E4",
            "ticks": 115440,
            "time": 360.75,
            "velocity": 1
          },
          {
            "duration": 5.206250000000011,
            "durationTicks": 1666,
            "midi": 61,
            "name": "C#4",
            "ticks": 119520,
            "time": 373.5,
            "velocity": 0.7874015748031497
          },
          {
            "duration": 5.206250000000011,
            "durationTicks": 1666,
            "midi": 73,
            "name": "C#5",
            "ticks": 119520,
            "time": 373.5,
            "velocity": 0.7874015748031497
          },
          {
            "duration": 0.7062500000000114,
            "durationTicks": 226,
            "midi": 59,
            "name": "B3",
            "ticks": 121200,
            "time": 378.75,
            "velocity": 0.6299212598425197
          },
          {
            "duration": 0.7062500000000114,
            "durationTicks": 226,
            "midi": 71,
            "name": "B4",
            "ticks": 121200,
            "time": 378.75,
            "velocity": 0.6299212598425197
          },
          {
            "duration": 5.206250000000068,
            "durationTicks": 1666,
            "midi": 56,
            "name": "G#3",
            "ticks": 122400,
            "time": 382.5,
            "velocity": 0.7480314960629921
          },
          {
            "duration": 0.7062500000000682,
            "durationTicks": 226,
            "midi": 54,
            "name": "F#3",
            "ticks": 124080,
            "time": 387.75,
            "velocity": 0.7480314960629921
          },
          {
            "duration": 0.7062500000000682,
            "durationTicks": 226,
            "midi": 54,
            "name": "F#3",
            "ticks": 125040,
            "time": 390.75,
            "velocity": 0.8661417322834646
          },
          {
            "duration": 1.40625,
            "durationTicks": 450,
            "midi": 52,
            "name": "E3",
            "ticks": 125280,
            "time": 391.5,
            "velocity": 0.8661417322834646
          },
          {
            "duration": 1.40625,
            "durationTicks": 450,
            "midi": 55,
            "name": "G3",
            "ticks": 125280,
            "time": 391.5,
            "velocity": 0.8661417322834646
          },
          {
            "duration": 0.7062500000000682,
            "durationTicks": 226,
            "midi": 52,
            "name": "E3",
            "ticks": 126480,
            "time": 395.25,
            "velocity": 0.47244094488188976
          },
          {
            "duration": 1.40625,
            "durationTicks": 450,
            "midi": 50,
            "name": "D3",
            "ticks": 126720,
            "time": 396,
            "velocity": 0.47244094488188976
          },
          {
            "duration": 1.40625,
            "durationTicks": 450,
            "midi": 54,
            "name": "F#3",
            "ticks": 126720,
            "time": 396,
            "velocity": 0.47244094488188976
          },
          {
            "duration": 4.40625,
            "durationTicks": 1410,
            "midi": 59,
            "name": "B3",
            "ticks": 155520,
            "time": 486,
            "velocity": 0.5511811023622047
          },
          {
            "duration": 2.8125,
            "durationTicks": 900,
            "midi": 62,
            "name": "D4",
            "ticks": 156960,
            "time": 490.5,
            "velocity": 0.5511811023622047
          },
          {
            "duration": 1.40625,
            "durationTicks": 450,
            "midi": 54,
            "name": "F#3",
            "ticks": 157920,
            "time": 493.5,
            "velocity": 0.5511811023622047
          },
          {
            "duration": 2.8125,
            "durationTicks": 900,
            "midi": 64,
            "name": "E4",
            "ticks": 158400,
            "time": 495,
            "velocity": 0.6220472440944882
          },
          {
            "duration": 2.8125,
            "durationTicks": 900,
            "midi": 76,
            "name": "E5",
            "ticks": 158400,
            "time": 495,
            "velocity": 0.6220472440944882
          },
          {
            "duration": 1.40625,
            "durationTicks": 450,
            "midi": 62,
            "name": "D4",
            "ticks": 159360,
            "time": 498,
            "velocity": 0.6771653543307087
          },
          {
            "duration": 1.40625,
            "durationTicks": 450,
            "midi": 74,
            "name": "D5",
            "ticks": 159360,
            "time": 498,
            "velocity": 0.6771653543307087
          },
          {
            "duration": 2.8125,
            "durationTicks": 900,
            "midi": 67,
            "name": "G4",
            "ticks": 159840,
            "time": 499.5,
            "velocity": 0.7007874015748031
          },
          {
            "duration": 1.40625,
            "durationTicks": 450,
            "midi": 59,
            "name": "B3",
            "ticks": 160800,
            "time": 502.5,
            "velocity": 0.7480314960629921
          },
          {
            "duration": 1.40625,
            "durationTicks": 450,
            "midi": 71,
            "name": "B4",
            "ticks": 160800,
            "time": 502.5,
            "velocity": 0.7480314960629921
          },
          {
            "duration": 1.40625,
            "durationTicks": 450,
            "midi": 56,
            "name": "G#3",
            "ticks": 161280,
            "time": 504,
            "velocity": 0.7716535433070866
          },
          {
            "duration": 1.40625,
            "durationTicks": 450,
            "midi": 59,
            "name": "B3",
            "ticks": 161280,
            "time": 504,
            "velocity": 0.7716535433070866
          },
          {
            "duration": 0.7062500000000682,
            "durationTicks": 226,
            "midi": 55,
            "name": "G3",
            "ticks": 161760,
            "time": 505.5,
            "velocity": 0.7952755905511811
          },
          {
            "duration": 0.7062500000000682,
            "durationTicks": 226,
            "midi": 58,
            "name": "A#3",
            "ticks": 161760,
            "time": 505.5,
            "velocity": 0.7952755905511811
          },
          {
            "duration": 0.7062500000000682,
            "durationTicks": 226,
            "midi": 56,
            "name": "G#3",
            "ticks": 162000,
            "time": 506.25,
            "velocity": 0.8110236220472441
          },
          {
            "duration": 0.7062500000000682,
            "durationTicks": 226,
            "midi": 59,
            "name": "B3",
            "ticks": 162000,
            "time": 506.25,
            "velocity": 0.8110236220472441
          },
          {
            "duration": 1.40625,
            "durationTicks": 450,
            "midi": 57,
            "name": "A3",
            "ticks": 162240,
            "time": 507,
            "velocity": 0.8267716535433071
          },
          {
            "duration": 1.40625,
            "durationTicks": 450,
            "midi": 60,
            "name": "C4",
            "ticks": 162240,
            "time": 507,
            "velocity": 0.8267716535433071
          },
          {
            "duration": 0.7062500000000682,
            "durationTicks": 226,
            "midi": 56,
            "name": "G#3",
            "ticks": 162720,
            "time": 508.5,
            "velocity": 0.8503937007874016
          },
          {
            "duration": 0.7062500000000682,
            "durationTicks": 226,
            "midi": 59,
            "name": "B3",
            "ticks": 162720,
            "time": 508.5,
            "velocity": 0.8503937007874016
          },
          {
            "duration": 0.7062500000000682,
            "durationTicks": 226,
            "midi": 57,
            "name": "A3",
            "ticks": 162960,
            "time": 509.25,
            "velocity": 0.8582677165354331
          },
          {
            "duration": 0.7062500000000682,
            "durationTicks": 226,
            "midi": 60,
            "name": "C4",
            "ticks": 162960,
            "time": 509.25,
            "velocity": 0.8582677165354331
          },
          {
            "duration": 1.40625,
            "durationTicks": 450,
            "midi": 71,
            "name": "B4",
            "ticks": 163200,
            "time": 510,
            "velocity": 0.8740157480314961
          },
          {
            "duration": 1.40625,
            "durationTicks": 450,
            "midi": 74,
            "name": "D5",
            "ticks": 163200,
            "time": 510,
            "velocity": 0.8740157480314961
          },
          {
            "duration": 0.7062500000000682,
            "durationTicks": 226,
            "midi": 69,
            "name": "A4",
            "ticks": 163680,
            "time": 511.5,
            "velocity": 0.8976377952755905
          },
          {
            "duration": 0.7062500000000682,
            "durationTicks": 226,
            "midi": 73,
            "name": "C#5",
            "ticks": 163680,
            "time": 511.5,
            "velocity": 0.8976377952755905
          },
          {
            "duration": 0.7062500000000682,
            "durationTicks": 226,
            "midi": 71,
            "name": "B4",
            "ticks": 163920,
            "time": 512.25,
            "velocity": 0.9133858267716536
          },
          {
            "duration": 0.7062500000000682,
            "durationTicks": 226,
            "midi": 74,
            "name": "D5",
            "ticks": 163920,
            "time": 512.25,
            "velocity": 0.9133858267716536
          },
          {
            "duration": 1.40625,
            "durationTicks": 450,
            "midi": 64,
            "name": "E4",
            "ticks": 164160,
            "time": 513,
            "velocity": 0.9212598425196851
          },
          {
            "duration": 1.40625,
            "durationTicks": 450,
            "midi": 76,
            "name": "E5",
            "ticks": 164160,
            "time": 513,
            "velocity": 0.9212598425196851
          },
          {
            "duration": 1.40625,
            "durationTicks": 450,
            "midi": 69,
            "name": "A4",
            "ticks": 164640,
            "time": 514.5,
            "velocity": 0.9212598425196851
          },
          {
            "duration": 1.40625,
            "durationTicks": 450,
            "midi": 81,
            "name": "A5",
            "ticks": 164640,
            "time": 514.5,
            "velocity": 0.9212598425196851
          },
          {
            "duration": 1.40625,
            "durationTicks": 450,
            "midi": 64,
            "name": "E4",
            "ticks": 165120,
            "time": 516,
            "velocity": 0.9212598425196851
          },
          {
            "duration": 1.40625,
            "durationTicks": 450,
            "midi": 76,
            "name": "E5",
            "ticks": 165120,
            "time": 516,
            "velocity": 0.9212598425196851
          },
          {
            "duration": 1.40625,
            "durationTicks": 450,
            "midi": 69,
            "name": "A4",
            "ticks": 165600,
            "time": 517.5,
            "velocity": 0.9212598425196851
          },
          {
            "duration": 1.40625,
            "durationTicks": 450,
            "midi": 81,
            "name": "A5",
            "ticks": 165600,
            "time": 517.5,
            "velocity": 0.9212598425196851
          },
          {
            "duration": 1.40625,
            "durationTicks": 450,
            "midi": 68,
            "name": "G#4",
            "ticks": 166080,
            "time": 519,
            "velocity": 0.9448818897637795
          },
          {
            "duration": 1.40625,
            "durationTicks": 450,
            "midi": 80,
            "name": "G#5",
            "ticks": 166080,
            "time": 519,
            "velocity": 0.9448818897637795
          },
          {
            "duration": 1.40625,
            "durationTicks": 450,
            "midi": 71,
            "name": "B4",
            "ticks": 166560,
            "time": 520.5,
            "velocity": 0.9448818897637795
          },
          {
            "duration": 1.40625,
            "durationTicks": 450,
            "midi": 83,
            "name": "B5",
            "ticks": 166560,
            "time": 520.5,
            "velocity": 0.9448818897637795
          },
          {
            "duration": 4.21875,
            "durationTicks": 1350,
            "midi": 76,
            "name": "E5",
            "ticks": 167040,
            "time": 522,
            "velocity": 0.9448818897637795
          },
          {
            "duration": 4.21875,
            "durationTicks": 1350,
            "midi": 84,
            "name": "C6",
            "ticks": 167040,
            "time": 522,
            "velocity": 0.9448818897637795
          },
          {
            "duration": 1.40625,
            "durationTicks": 450,
            "midi": 76,
            "name": "E5",
            "ticks": 168480,
            "time": 526.5,
            "velocity": 0.9212598425196851
          },
          {
            "duration": 1.40625,
            "durationTicks": 450,
            "midi": 85,
            "name": "C#6",
            "ticks": 168480,
            "time": 526.5,
            "velocity": 0.9212598425196851
          },
          {
            "duration": 1.40625,
            "durationTicks": 450,
            "midi": 74,
            "name": "D5",
            "ticks": 168960,
            "time": 528,
            "velocity": 0.9448818897637795
          },
          {
            "duration": 1.40625,
            "durationTicks": 450,
            "midi": 86,
            "name": "D6",
            "ticks": 168960,
            "time": 528,
            "velocity": 0.9448818897637795
          },
          {
            "duration": 1.40625,
            "durationTicks": 450,
            "midi": 79,
            "name": "G5",
            "ticks": 169440,
            "time": 529.5,
            "velocity": 0.9448818897637795
          },
          {
            "duration": 1.40625,
            "durationTicks": 450,
            "midi": 81,
            "name": "A5",
            "ticks": 169440,
            "time": 529.5,
            "velocity": 0.9448818897637795
          },
          {
            "duration": 4.21875,
            "durationTicks": 1350,
            "midi": 74,
            "name": "D5",
            "ticks": 169920,
            "time": 531,
            "velocity": 0.9448818897637795
          },
          {
            "duration": 4.21875,
            "durationTicks": 1350,
            "midi": 81,
            "name": "A5",
            "ticks": 169920,
            "time": 531,
            "velocity": 0.9448818897637795
          },
          {
            "duration": 1.40625,
            "durationTicks": 450,
            "midi": 70,
            "name": "A#4",
            "ticks": 171360,
            "time": 535.5,
            "velocity": 1
          },
          {
            "duration": 1.40625,
            "durationTicks": 450,
            "midi": 82,
            "name": "A#5",
            "ticks": 171360,
            "time": 535.5,
            "velocity": 1
          },
          {
            "duration": 1.40625,
            "durationTicks": 450,
            "midi": 69,
            "name": "A4",
            "ticks": 171840,
            "time": 537,
            "velocity": 1
          },
          {
            "duration": 1.40625,
            "durationTicks": 450,
            "midi": 81,
            "name": "A5",
            "ticks": 171840,
            "time": 537,
            "velocity": 1
          },
          {
            "duration": 1.40625,
            "durationTicks": 450,
            "midi": 67,
            "name": "G4",
            "ticks": 172320,
            "time": 538.5,
            "velocity": 1
          },
          {
            "duration": 1.40625,
            "durationTicks": 450,
            "midi": 79,
            "name": "G5",
            "ticks": 172320,
            "time": 538.5,
            "velocity": 1
          },
          {
            "duration": 4.21875,
            "durationTicks": 1350,
            "midi": 71,
            "name": "B4",
            "ticks": 172800,
            "time": 540,
            "velocity": 0.9448818897637795
          },
          {
            "duration": 4.21875,
            "durationTicks": 1350,
            "midi": 78,
            "name": "F#5",
            "ticks": 172800,
            "time": 540,
            "velocity": 0.9448818897637795
          },
          {
            "duration": 1.40625,
            "durationTicks": 450,
            "midi": 79,
            "name": "G5",
            "ticks": 174240,
            "time": 544.5,
            "velocity": 1
          },
          {
            "duration": 1.40625,
            "durationTicks": 450,
            "midi": 82,
            "name": "A#5",
            "ticks": 174240,
            "time": 544.5,
            "velocity": 1
          },
          {
            "duration": 1.40625,
            "durationTicks": 450,
            "midi": 78,
            "name": "F#5",
            "ticks": 174720,
            "time": 546,
            "velocity": 1
          },
          {
            "duration": 1.40625,
            "durationTicks": 450,
            "midi": 81,
            "name": "A5",
            "ticks": 174720,
            "time": 546,
            "velocity": 1
          },
          {
            "duration": 0.7062500000000682,
            "durationTicks": 226,
            "midi": 73,
            "name": "C#5",
            "ticks": 175200,
            "time": 547.5,
            "velocity": 1
          },
          {
            "duration": 0.7062500000000682,
            "durationTicks": 226,
            "midi": 76,
            "name": "E5",
            "ticks": 175200,
            "time": 547.5,
            "velocity": 1
          },
          {
            "duration": 0.7062500000000682,
            "durationTicks": 226,
            "midi": 61,
            "name": "C#4",
            "ticks": 175440,
            "time": 548.25,
            "velocity": 1
          },
          {
            "duration": 0.7062500000000682,
            "durationTicks": 226,
            "midi": 64,
            "name": "E4",
            "ticks": 175440,
            "time": 548.25,
            "velocity": 1
          },
          {
            "duration": 4.21875,
            "durationTicks": 1350,
            "midi": 62,
            "name": "D4",
            "ticks": 175680,
            "time": 549,
            "velocity": 0.9448818897637795
          },
          {
            "duration": 4.21875,
            "durationTicks": 1350,
            "midi": 66,
            "name": "F#4",
            "ticks": 175680,
            "time": 549,
            "velocity": 0.9448818897637795
          },
          {
            "duration": 4.21875,
            "durationTicks": 1350,
            "midi": 57,
            "name": "A3",
            "ticks": 177120,
            "time": 553.5,
            "velocity": 0.9448818897637795
          },
          {
            "duration": 4.21875,
            "durationTicks": 1350,
            "midi": 59,
            "name": "B3",
            "ticks": 177120,
            "time": 553.5,
            "velocity": 0.9448818897637795
          },
          {
            "duration": 4.21875,
            "durationTicks": 1350,
            "midi": 52,
            "name": "E3",
            "ticks": 178560,
            "time": 558,
            "velocity": 0.9448818897637795
          },
          {
            "duration": 4.21875,
            "durationTicks": 1350,
            "midi": 59,
            "name": "B3",
            "ticks": 178560,
            "time": 558,
            "velocity": 0.9448818897637795
          },
          {
            "duration": 2.8125,
            "durationTicks": 900,
            "midi": 55,
            "name": "G3",
            "ticks": 180000,
            "time": 562.5,
            "velocity": 0.9448818897637795
          },
          {
            "duration": 2.8125,
            "durationTicks": 900,
            "midi": 59,
            "name": "B3",
            "ticks": 180000,
            "time": 562.5,
            "velocity": 0.9448818897637795
          },
          {
            "duration": 1.40625,
            "durationTicks": 450,
            "midi": 50,
            "name": "D3",
            "ticks": 180960,
            "time": 565.5,
            "velocity": 0.9448818897637795
          },
          {
            "duration": 1.40625,
            "durationTicks": 450,
            "midi": 55,
            "name": "G3",
            "ticks": 180960,
            "time": 565.5,
            "velocity": 0.9448818897637795
          },
          {
            "duration": 0.7062500000000682,
            "durationTicks": 226,
            "midi": 54,
            "name": "F#3",
            "ticks": 181440,
            "time": 567,
            "velocity": 1
          },
          {
            "duration": 0.2375000000000682,
            "durationTicks": 76,
            "midi": 58,
            "name": "A#3",
            "ticks": 182400,
            "time": 570,
            "velocity": 1
          },
          {
            "duration": 0.23749999999995453,
            "durationTicks": 76,
            "midi": 59,
            "name": "B3",
            "ticks": 182480,
            "time": 570.25,
            "velocity": 1
          },
          {
            "duration": 0.23749999999995453,
            "durationTicks": 76,
            "midi": 61,
            "name": "C#4",
            "ticks": 182560,
            "time": 570.5,
            "velocity": 1
          },
          {
            "duration": 0.18124999999997726,
            "durationTicks": 58,
            "midi": 62,
            "name": "D4",
            "ticks": 182640,
            "time": 570.75,
            "velocity": 1
          },
          {
            "duration": 0.18124999999997726,
            "durationTicks": 58,
            "midi": 64,
            "name": "E4",
            "ticks": 182700,
            "time": 570.9375,
            "velocity": 1
          },
          {
            "duration": 0.18124999999997726,
            "durationTicks": 58,
            "midi": 65,
            "name": "F4",
            "ticks": 182760,
            "time": 571.125,
            "velocity": 1
          },
          {
            "duration": 0.18124999999997726,
            "durationTicks": 58,
            "midi": 67,
            "name": "G4",
            "ticks": 182820,
            "time": 571.3125,
            "velocity": 1
          },
          {
            "duration": 1.40625,
            "durationTicks": 450,
            "midi": 68,
            "name": "G#4",
            "ticks": 182880,
            "time": 571.5,
            "velocity": 1
          },
          {
            "duration": 0.7062500000000682,
            "durationTicks": 226,
            "midi": 66,
            "name": "F#4",
            "ticks": 183360,
            "time": 573,
            "velocity": 1
          },
          {
            "duration": 0.7062500000000682,
            "durationTicks": 226,
            "midi": 65,
            "name": "F4",
            "ticks": 183600,
            "time": 573.75,
            "velocity": 1
          },
          {
            "duration": 0.7062500000000682,
            "durationTicks": 226,
            "midi": 64,
            "name": "E4",
            "ticks": 183840,
            "time": 574.5,
            "velocity": 1
          },
          {
            "duration": 0.7062500000000682,
            "durationTicks": 226,
            "midi": 62,
            "name": "D4",
            "ticks": 184080,
            "time": 575.25,
            "velocity": 1
          },
          {
            "duration": 1.40625,
            "durationTicks": 450,
            "midi": 54,
            "name": "F#3",
            "ticks": 184320,
            "time": 576,
            "velocity": 1
          },
          {
            "duration": 0.2375000000000682,
            "durationTicks": 76,
            "midi": 58,
            "name": "A#3",
            "ticks": 185280,
            "time": 579,
            "velocity": 1
          },
          {
            "duration": 0.23749999999995453,
            "durationTicks": 76,
            "midi": 59,
            "name": "B3",
            "ticks": 185360,
            "time": 579.25,
            "velocity": 1
          },
          {
            "duration": 0.23749999999995453,
            "durationTicks": 76,
            "midi": 61,
            "name": "C#4",
            "ticks": 185440,
            "time": 579.5,
            "velocity": 1
          },
          {
            "duration": 0.18124999999997726,
            "durationTicks": 58,
            "midi": 62,
            "name": "D4",
            "ticks": 185520,
            "time": 579.75,
            "velocity": 1
          },
          {
            "duration": 0.18124999999997726,
            "durationTicks": 58,
            "midi": 64,
            "name": "E4",
            "ticks": 185580,
            "time": 579.9375,
            "velocity": 1
          },
          {
            "duration": 0.18124999999997726,
            "durationTicks": 58,
            "midi": 65,
            "name": "F4",
            "ticks": 185640,
            "time": 580.125,
            "velocity": 1
          },
          {
            "duration": 0.18124999999997726,
            "durationTicks": 58,
            "midi": 67,
            "name": "G4",
            "ticks": 185700,
            "time": 580.3125,
            "velocity": 1
          },
          {
            "duration": 1.40625,
            "durationTicks": 450,
            "midi": 68,
            "name": "G#4",
            "ticks": 185760,
            "time": 580.5,
            "velocity": 1
          },
          {
            "duration": 0.7062500000000682,
            "durationTicks": 226,
            "midi": 66,
            "name": "F#4",
            "ticks": 186240,
            "time": 582,
            "velocity": 1
          },
          {
            "duration": 0.7062500000000682,
            "durationTicks": 226,
            "midi": 65,
            "name": "F4",
            "ticks": 186480,
            "time": 582.75,
            "velocity": 1
          },
          {
            "duration": 0.7062500000000682,
            "durationTicks": 226,
            "midi": 64,
            "name": "E4",
            "ticks": 186720,
            "time": 583.5,
            "velocity": 1
          },
          {
            "duration": 0.7062500000000682,
            "durationTicks": 226,
            "midi": 62,
            "name": "D4",
            "ticks": 186960,
            "time": 584.25,
            "velocity": 1
          },
          {
            "duration": 1.40625,
            "durationTicks": 450,
            "midi": 54,
            "name": "F#3",
            "ticks": 187200,
            "time": 585,
            "velocity": 1
          },
          {
            "duration": 0.2375000000000682,
            "durationTicks": 76,
            "midi": 54,
            "name": "F#3",
            "ticks": 188160,
            "time": 588,
            "velocity": 1
          },
          {
            "duration": 0.2375000000000682,
            "durationTicks": 76,
            "midi": 59,
            "name": "B3",
            "ticks": 188160,
            "time": 588,
            "velocity": 1
          },
          {
            "duration": 0.23749999999995453,
            "durationTicks": 76,
            "midi": 55,
            "name": "G3",
            "ticks": 188240,
            "time": 588.25,
            "velocity": 1
          },
          {
            "duration": 0.23749999999995453,
            "durationTicks": 76,
            "midi": 61,
            "name": "C#4",
            "ticks": 188240,
            "time": 588.25,
            "velocity": 1
          },
          {
            "duration": 0.23749999999995453,
            "durationTicks": 76,
            "midi": 56,
            "name": "G#3",
            "ticks": 188320,
            "time": 588.5,
            "velocity": 1
          },
          {
            "duration": 0.23749999999995453,
            "durationTicks": 76,
            "midi": 62,
            "name": "D4",
            "ticks": 188320,
            "time": 588.5,
            "velocity": 1
          },
          {
            "duration": 0.18124999999997726,
            "durationTicks": 58,
            "midi": 58,
            "name": "A#3",
            "ticks": 188400,
            "time": 588.75,
            "velocity": 1
          },
          {
            "duration": 0.18124999999997726,
            "durationTicks": 58,
            "midi": 64,
            "name": "E4",
            "ticks": 188400,
            "time": 588.75,
            "velocity": 1
          },
          {
            "duration": 0.18124999999997726,
            "durationTicks": 58,
            "midi": 59,
            "name": "B3",
            "ticks": 188460,
            "time": 588.9375,
            "velocity": 1
          },
          {
            "duration": 0.18124999999997726,
            "durationTicks": 58,
            "midi": 66,
            "name": "F#4",
            "ticks": 188460,
            "time": 588.9375,
            "velocity": 1
          },
          {
            "duration": 0.18124999999997726,
            "durationTicks": 58,
            "midi": 61,
            "name": "C#4",
            "ticks": 188520,
            "time": 589.125,
            "velocity": 1
          },
          {
            "duration": 0.18124999999997726,
            "durationTicks": 58,
            "midi": 67,
            "name": "G4",
            "ticks": 188520,
            "time": 589.125,
            "velocity": 1
          },
          {
            "duration": 0.18124999999997726,
            "durationTicks": 58,
            "midi": 63,
            "name": "D#4",
            "ticks": 188580,
            "time": 589.3125,
            "velocity": 1
          },
          {
            "duration": 0.18124999999997726,
            "durationTicks": 58,
            "midi": 69,
            "name": "A4",
            "ticks": 188580,
            "time": 589.3125,
            "velocity": 1
          },
          {
            "duration": 1.40625,
            "durationTicks": 450,
            "midi": 64,
            "name": "E4",
            "ticks": 188640,
            "time": 589.5,
            "velocity": 1
          },
          {
            "duration": 1.40625,
            "durationTicks": 450,
            "midi": 71,
            "name": "B4",
            "ticks": 188640,
            "time": 589.5,
            "velocity": 1
          },
          {
            "duration": 0.7062500000000682,
            "durationTicks": 226,
            "midi": 63,
            "name": "D#4",
            "ticks": 189120,
            "time": 591,
            "velocity": 1
          },
          {
            "duration": 0.7062500000000682,
            "durationTicks": 226,
            "midi": 69,
            "name": "A4",
            "ticks": 189120,
            "time": 591,
            "velocity": 1
          },
          {
            "duration": 0.7062500000000682,
            "durationTicks": 226,
            "midi": 61,
            "name": "C#4",
            "ticks": 189360,
            "time": 591.75,
            "velocity": 1
          },
          {
            "duration": 0.7062500000000682,
            "durationTicks": 226,
            "midi": 68,
            "name": "G#4",
            "ticks": 189360,
            "time": 591.75,
            "velocity": 1
          },
          {
            "duration": 0.7062500000000682,
            "durationTicks": 226,
            "midi": 59,
            "name": "B3",
            "ticks": 189600,
            "time": 592.5,
            "velocity": 1
          },
          {
            "duration": 0.7062500000000682,
            "durationTicks": 226,
            "midi": 66,
            "name": "F#4",
            "ticks": 189600,
            "time": 592.5,
            "velocity": 1
          },
          {
            "duration": 0.7062500000000682,
            "durationTicks": 226,
            "midi": 58,
            "name": "A#3",
            "ticks": 189840,
            "time": 593.25,
            "velocity": 1
          },
          {
            "duration": 0.7062500000000682,
            "durationTicks": 226,
            "midi": 64,
            "name": "E4",
            "ticks": 189840,
            "time": 593.25,
            "velocity": 1
          },
          {
            "duration": 1.4562500000000682,
            "durationTicks": 466,
            "midi": 61,
            "name": "C#4",
            "ticks": 190080,
            "time": 594,
            "velocity": 1
          },
          {
            "duration": 0.7062500000000682,
            "durationTicks": 226,
            "midi": 67,
            "name": "G4",
            "ticks": 190080,
            "time": 594,
            "velocity": 1
          },
          {
            "duration": 0.7062500000000682,
            "durationTicks": 226,
            "midi": 66,
            "name": "F#4",
            "ticks": 190320,
            "time": 594.75,
            "velocity": 1
          },
          {
            "duration": 0.2375000000000682,
            "durationTicks": 76,
            "midi": 54,
            "name": "F#3",
            "ticks": 191040,
            "time": 597,
            "velocity": 1
          },
          {
            "duration": 0.2375000000000682,
            "durationTicks": 76,
            "midi": 59,
            "name": "B3",
            "ticks": 191040,
            "time": 597,
            "velocity": 1
          },
          {
            "duration": 0.23749999999995453,
            "durationTicks": 76,
            "midi": 55,
            "name": "G3",
            "ticks": 191120,
            "time": 597.25,
            "velocity": 1
          },
          {
            "duration": 0.23749999999995453,
            "durationTicks": 76,
            "midi": 61,
            "name": "C#4",
            "ticks": 191120,
            "time": 597.25,
            "velocity": 1
          },
          {
            "duration": 0.23749999999995453,
            "durationTicks": 76,
            "midi": 56,
            "name": "G#3",
            "ticks": 191200,
            "time": 597.5,
            "velocity": 1
          },
          {
            "duration": 0.23749999999995453,
            "durationTicks": 76,
            "midi": 62,
            "name": "D4",
            "ticks": 191200,
            "time": 597.5,
            "velocity": 1
          },
          {
            "duration": 0.18124999999997726,
            "durationTicks": 58,
            "midi": 58,
            "name": "A#3",
            "ticks": 191280,
            "time": 597.75,
            "velocity": 1
          },
          {
            "duration": 0.18124999999997726,
            "durationTicks": 58,
            "midi": 64,
            "name": "E4",
            "ticks": 191280,
            "time": 597.75,
            "velocity": 1
          },
          {
            "duration": 0.18124999999997726,
            "durationTicks": 58,
            "midi": 59,
            "name": "B3",
            "ticks": 191340,
            "time": 597.9375,
            "velocity": 1
          },
          {
            "duration": 0.18124999999997726,
            "durationTicks": 58,
            "midi": 66,
            "name": "F#4",
            "ticks": 191340,
            "time": 597.9375,
            "velocity": 1
          },
          {
            "duration": 0.18124999999997726,
            "durationTicks": 58,
            "midi": 61,
            "name": "C#4",
            "ticks": 191400,
            "time": 598.125,
            "velocity": 1
          },
          {
            "duration": 0.18124999999997726,
            "durationTicks": 58,
            "midi": 67,
            "name": "G4",
            "ticks": 191400,
            "time": 598.125,
            "velocity": 1
          },
          {
            "duration": 0.18124999999997726,
            "durationTicks": 58,
            "midi": 63,
            "name": "D#4",
            "ticks": 191460,
            "time": 598.3125,
            "velocity": 1
          },
          {
            "duration": 0.18124999999997726,
            "durationTicks": 58,
            "midi": 69,
            "name": "A4",
            "ticks": 191460,
            "time": 598.3125,
            "velocity": 1
          },
          {
            "duration": 1.40625,
            "durationTicks": 450,
            "midi": 64,
            "name": "E4",
            "ticks": 191520,
            "time": 598.5,
            "velocity": 1
          },
          {
            "duration": 1.40625,
            "durationTicks": 450,
            "midi": 71,
            "name": "B4",
            "ticks": 191520,
            "time": 598.5,
            "velocity": 1
          },
          {
            "duration": 0.7062500000000682,
            "durationTicks": 226,
            "midi": 63,
            "name": "D#4",
            "ticks": 192000,
            "time": 600,
            "velocity": 1
          },
          {
            "duration": 0.7062500000000682,
            "durationTicks": 226,
            "midi": 69,
            "name": "A4",
            "ticks": 192000,
            "time": 600,
            "velocity": 1
          },
          {
            "duration": 0.7062500000000682,
            "durationTicks": 226,
            "midi": 61,
            "name": "C#4",
            "ticks": 192240,
            "time": 600.75,
            "velocity": 1
          },
          {
            "duration": 0.7062500000000682,
            "durationTicks": 226,
            "midi": 68,
            "name": "G#4",
            "ticks": 192240,
            "time": 600.75,
            "velocity": 1
          },
          {
            "duration": 0.7062500000000682,
            "durationTicks": 226,
            "midi": 59,
            "name": "B3",
            "ticks": 192480,
            "time": 601.5,
            "velocity": 1
          },
          {
            "duration": 0.7062500000000682,
            "durationTicks": 226,
            "midi": 66,
            "name": "F#4",
            "ticks": 192480,
            "time": 601.5,
            "velocity": 1
          },
          {
            "duration": 0.7062500000000682,
            "durationTicks": 226,
            "midi": 58,
            "name": "A#3",
            "ticks": 192720,
            "time": 602.25,
            "velocity": 1
          },
          {
            "duration": 0.7062500000000682,
            "durationTicks": 226,
            "midi": 64,
            "name": "E4",
            "ticks": 192720,
            "time": 602.25,
            "velocity": 1
          },
          {
            "duration": 1.4562500000000682,
            "durationTicks": 466,
            "midi": 61,
            "name": "C#4",
            "ticks": 192960,
            "time": 603,
            "velocity": 1
          },
          {
            "duration": 0.7062500000000682,
            "durationTicks": 226,
            "midi": 67,
            "name": "G4",
            "ticks": 192960,
            "time": 603,
            "velocity": 1
          },
          {
            "duration": 0.7062500000000682,
            "durationTicks": 226,
            "midi": 66,
            "name": "F#4",
            "ticks": 193200,
            "time": 603.75,
            "velocity": 0.9763779527559056
          },
          {
            "duration": 1.4562500000000682,
            "durationTicks": 466,
            "midi": 59,
            "name": "B3",
            "ticks": 194400,
            "time": 607.5,
            "velocity": 0.8661417322834646
          },
          {
            "duration": 0.7062500000000682,
            "durationTicks": 226,
            "midi": 66,
            "name": "F#4",
            "ticks": 194400,
            "time": 607.5,
            "velocity": 0.8661417322834646
          },
          {
            "duration": 0.7062500000000682,
            "durationTicks": 226,
            "midi": 64,
            "name": "E4",
            "ticks": 194640,
            "time": 608.25,
            "velocity": 0.84251968503937
          },
          {
            "duration": 1.4562500000000682,
            "durationTicks": 466,
            "midi": 59,
            "name": "B3",
            "ticks": 195840,
            "time": 612,
            "velocity": 0.7244094488188977
          },
          {
            "duration": 0.7062500000000682,
            "durationTicks": 226,
            "midi": 64,
            "name": "E4",
            "ticks": 195840,
            "time": 612,
            "velocity": 0.7244094488188977
          },
          {
            "duration": 0.7062500000000682,
            "durationTicks": 226,
            "midi": 62,
            "name": "D4",
            "ticks": 196080,
            "time": 612.75,
            "velocity": 0.7007874015748031
          },
          {
            "duration": 1.40625,
            "durationTicks": 450,
            "midi": 59,
            "name": "B3",
            "ticks": 212640,
            "time": 664.5,
            "velocity": 0.47244094488188976
          },
          {
            "duration": 1.40625,
            "durationTicks": 450,
            "midi": 62,
            "name": "D4",
            "ticks": 212640,
            "time": 664.5,
            "velocity": 0.47244094488188976
          },
          {
            "duration": 2.8125,
            "durationTicks": 900,
            "midi": 60,
            "name": "C4",
            "ticks": 213120,
            "time": 666,
            "velocity": 0.47244094488188976
          },
          {
            "duration": 2.8125,
            "durationTicks": 900,
            "midi": 64,
            "name": "E4",
            "ticks": 213120,
            "time": 666,
            "velocity": 0.47244094488188976
          },
          {
            "duration": 1.40625,
            "durationTicks": 450,
            "midi": 61,
            "name": "C#4",
            "ticks": 214080,
            "time": 669,
            "velocity": 0.47244094488188976
          },
          {
            "duration": 1.40625,
            "durationTicks": 450,
            "midi": 64,
            "name": "E4",
            "ticks": 214080,
            "time": 669,
            "velocity": 0.47244094488188976
          },
          {
            "duration": 2.8125,
            "durationTicks": 900,
            "midi": 62,
            "name": "D4",
            "ticks": 214560,
            "time": 670.5,
            "velocity": 0.47244094488188976
          },
          {
            "duration": 2.8125,
            "durationTicks": 900,
            "midi": 66,
            "name": "F#4",
            "ticks": 214560,
            "time": 670.5,
            "velocity": 0.47244094488188976
          },
          {
            "duration": 1.40625,
            "durationTicks": 450,
            "midi": 59,
            "name": "B3",
            "ticks": 215520,
            "time": 673.5,
            "velocity": 0.47244094488188976
          },
          {
            "duration": 1.40625,
            "durationTicks": 450,
            "midi": 62,
            "name": "D4",
            "ticks": 215520,
            "time": 673.5,
            "velocity": 0.47244094488188976
          },
          {
            "duration": 2.8125,
            "durationTicks": 900,
            "midi": 60,
            "name": "C4",
            "ticks": 216000,
            "time": 675,
            "velocity": 0.47244094488188976
          },
          {
            "duration": 2.8125,
            "durationTicks": 900,
            "midi": 64,
            "name": "E4",
            "ticks": 216000,
            "time": 675,
            "velocity": 0.47244094488188976
          },
          {
            "duration": 1.40625,
            "durationTicks": 450,
            "midi": 61,
            "name": "C#4",
            "ticks": 216960,
            "time": 678,
            "velocity": 0.47244094488188976
          },
          {
            "duration": 1.40625,
            "durationTicks": 450,
            "midi": 64,
            "name": "E4",
            "ticks": 216960,
            "time": 678,
            "velocity": 0.47244094488188976
          },
          {
            "duration": 3.4500000000000455,
            "durationTicks": 1104,
            "midi": 62,
            "name": "D4",
            "ticks": 217440,
            "time": 679.5,
            "velocity": 0.47244094488188976
          },
          {
            "duration": 2.206250000000068,
            "durationTicks": 706,
            "midi": 66,
            "name": "F#4",
            "ticks": 217440,
            "time": 679.5,
            "velocity": 0.47244094488188976
          },
          {
            "duration": 2.8125,
            "durationTicks": 900,
            "midi": 49,
            "name": "C#3",
            "ticks": 218880,
            "time": 684,
            "velocity": 0.47244094488188976
          },
          {
            "duration": 1.40625,
            "durationTicks": 450,
            "midi": 50,
            "name": "D3",
            "ticks": 219840,
            "time": 687,
            "velocity": 0.47244094488188976
          },
          {
            "duration": 2.8125,
            "durationTicks": 900,
            "midi": 55,
            "name": "G3",
            "ticks": 220320,
            "time": 688.5,
            "velocity": 0.47244094488188976
          },
          {
            "duration": 1.40625,
            "durationTicks": 450,
            "midi": 54,
            "name": "F#3",
            "ticks": 221280,
            "time": 691.5,
            "velocity": 0.47244094488188976
          },
          {
            "duration": 4.40625,
            "durationTicks": 1410,
            "midi": 55,
            "name": "G3",
            "ticks": 221760,
            "time": 693,
            "velocity": 0.47244094488188976
          },
          {
            "duration": 2.206250000000068,
            "durationTicks": 706,
            "midi": 54,
            "name": "F#3",
            "ticks": 223200,
            "time": 697.5,
            "velocity": 0.47244094488188976
          }
        ]
      },
      {
        "channel": 0,
        "controlChanges": {},
        "pitchBends": [],
        "instrument": {
          "family": "piano",
          "number": 0,
          "name": "acoustic grand piano"
        },
        "name": "Bassoons",
        "notes": [],
        "endOfTrackTicks": 236160
      },
      {
        "channel": 3,
        "controlChanges": {
          "7": [
            {
              "number": 7,
              "ticks": 0,
              "time": 0,
              "value": 1
            }
          ],
          "10": [
            {
              "number": 10,
              "ticks": 0,
              "time": 0,
              "value": 0.5511811023622047
            }
          ]
        },
        "pitchBends": [],
        "instrument": {
          "family": "reed",
          "number": 70,
          "name": "bassoon"
        },
        "name": "",
        "notes": [
          {
            "duration": 5.206250000000001,
            "durationTicks": 1666,
            "midi": 66,
            "name": "F#4",
            "ticks": 1920,
            "time": 6,
            "velocity": 0.6299212598425197
          },
          {
            "duration": 4.40625,
            "durationTicks": 1410,
            "midi": 66,
            "name": "F#4",
            "ticks": 4800,
            "time": 15,
            "velocity": 0.5511811023622047
          },
          {
            "duration": 4.40625,
            "durationTicks": 1410,
            "midi": 64,
            "name": "E4",
            "ticks": 6240,
            "time": 19.5,
            "velocity": 0.4330708661417323
          },
          {
            "duration": 1.40625,
            "durationTicks": 450,
            "midi": 62,
            "name": "D4",
            "ticks": 7680,
            "time": 24,
            "velocity": 0.4330708661417323
          },
          {
            "duration": 2.90625,
            "durationTicks": 930,
            "midi": 69,
            "name": "A4",
            "ticks": 8160,
            "time": 25.5,
            "velocity": 0.4330708661417323
          },
          {
            "duration": 4.40625,
            "durationTicks": 1410,
            "midi": 68,
            "name": "G#4",
            "ticks": 9120,
            "time": 28.5,
            "velocity": 0.4330708661417323
          },
          {
            "duration": 1.40625,
            "durationTicks": 450,
            "midi": 66,
            "name": "F#4",
            "ticks": 10560,
            "time": 33,
            "velocity": 0.4330708661417323
          },
          {
            "duration": 2.90625,
            "durationTicks": 930,
            "midi": 61,
            "name": "C#4",
            "ticks": 11040,
            "time": 34.5,
            "velocity": 0.4330708661417323
          },
          {
            "duration": 2.1125000000000043,
            "durationTicks": 676,
            "midi": 59,
            "name": "B3",
            "ticks": 12000,
            "time": 37.5,
            "velocity": 0.49606299212598426
          },
          {
            "duration": 0.7062500000000043,
            "durationTicks": 226,
            "midi": 57,
            "name": "A3",
            "ticks": 12720,
            "time": 39.75,
            "velocity": 0.5433070866141733
          },
          {
            "duration": 1.40625,
            "durationTicks": 450,
            "midi": 64,
            "name": "E4",
            "ticks": 12960,
            "time": 40.5,
            "velocity": 0.5590551181102362
          },
          {
            "duration": 2.1125000000000043,
            "durationTicks": 676,
            "midi": 63,
            "name": "D#4",
            "ticks": 13440,
            "time": 42,
            "velocity": 0.5905511811023622
          },
          {
            "duration": 0.7062500000000043,
            "durationTicks": 226,
            "midi": 61,
            "name": "C#4",
            "ticks": 14160,
            "time": 44.25,
            "velocity": 0.6299212598425197
          },
          {
            "duration": 1.40625,
            "durationTicks": 450,
            "midi": 68,
            "name": "G#4",
            "ticks": 14400,
            "time": 45,
            "velocity": 0.6456692913385826
          },
          {
            "duration": 2.112499999999997,
            "durationTicks": 676,
            "midi": 66,
            "name": "F#4",
            "ticks": 14880,
            "time": 46.5,
            "velocity": 0.6771653543307087
          },
          {
            "duration": 0.7062499999999972,
            "durationTicks": 226,
            "midi": 65,
            "name": "F4",
            "ticks": 15600,
            "time": 48.75,
            "velocity": 0.7244094488188977
          },
          {
            "duration": 1.40625,
            "durationTicks": 450,
            "midi": 73,
            "name": "C#5",
            "ticks": 15840,
            "time": 49.5,
            "velocity": 0.7165354330708661
          },
          {
            "duration": 1.0562499999999986,
            "durationTicks": 338,
            "midi": 71,
            "name": "B4",
            "ticks": 16320,
            "time": 51,
            "velocity": 0.6614173228346457
          },
          {
            "duration": 0.35624999999999574,
            "durationTicks": 114,
            "midi": 69,
            "name": "A4",
            "ticks": 16680,
            "time": 52.125,
            "velocity": 0.6220472440944882
          },
          {
            "duration": 0.7062499999999972,
            "durationTicks": 226,
            "midi": 68,
            "name": "G#4",
            "ticks": 16800,
            "time": 52.5,
            "velocity": 0.6062992125984252
          },
          {
            "duration": 0.7062499999999972,
            "durationTicks": 226,
            "midi": 69,
            "name": "A4",
            "ticks": 17040,
            "time": 53.25,
            "velocity": 0.5748031496062992
          },
          {
            "duration": 1.0562499999999986,
            "durationTicks": 338,
            "midi": 68,
            "name": "G#4",
            "ticks": 17280,
            "time": 54,
            "velocity": 0.6614173228346457
          },
          {
            "duration": 0.35624999999999574,
            "durationTicks": 114,
            "midi": 66,
            "name": "F#4",
            "ticks": 17640,
            "time": 55.125,
            "velocity": 0.6220472440944882
          },
          {
            "duration": 0.7062499999999972,
            "durationTicks": 226,
            "midi": 65,
            "name": "F4",
            "ticks": 17760,
            "time": 55.5,
            "velocity": 0.6062992125984252
          },
          {
            "duration": 0.7062499999999972,
            "durationTicks": 226,
            "midi": 66,
            "name": "F#4",
            "ticks": 18000,
            "time": 56.25,
            "velocity": 0.5748031496062992
          },
          {
            "duration": 0.7062499999999972,
            "durationTicks": 226,
            "midi": 64,
            "name": "E4",
            "ticks": 18240,
            "time": 57,
            "velocity": 0.6062992125984252
          },
          {
            "duration": 0.7062499999999972,
            "durationTicks": 226,
            "midi": 62,
            "name": "D4",
            "ticks": 18480,
            "time": 57.75,
            "velocity": 0.5748031496062992
          },
          {
            "duration": 0.7062499999999972,
            "durationTicks": 226,
            "midi": 61,
            "name": "C#4",
            "ticks": 18720,
            "time": 58.5,
            "velocity": 0.5511811023622047
          },
          {
            "duration": 0.7062499999999972,
            "durationTicks": 226,
            "midi": 62,
            "name": "D4",
            "ticks": 18960,
            "time": 59.25,
            "velocity": 0.5354330708661418
          },
          {
            "duration": 0.7062499999999972,
            "durationTicks": 226,
            "midi": 61,
            "name": "C#4",
            "ticks": 19200,
            "time": 60,
            "velocity": 0.5275590551181102
          },
          {
            "duration": 0.7062499999999972,
            "durationTicks": 226,
            "midi": 59,
            "name": "B3",
            "ticks": 19440,
            "time": 60.75,
            "velocity": 0.5118110236220472
          },
          {
            "duration": 0.7062499999999972,
            "durationTicks": 226,
            "midi": 57,
            "name": "A3",
            "ticks": 19680,
            "time": 61.5,
            "velocity": 0.5039370078740157
          },
          {
            "duration": 0.7062499999999972,
            "durationTicks": 226,
            "midi": 59,
            "name": "B3",
            "ticks": 19920,
            "time": 62.25,
            "velocity": 0.4881889763779528
          },
          {
            "duration": 0.7062499999999972,
            "durationTicks": 226,
            "midi": 57,
            "name": "A3",
            "ticks": 20160,
            "time": 63,
            "velocity": 0.5275590551181102
          },
          {
            "duration": 0.7062499999999972,
            "durationTicks": 226,
            "midi": 55,
            "name": "G3",
            "ticks": 20400,
            "time": 63.75,
            "velocity": 0.5196850393700787
          },
          {
            "duration": 0.7062499999999972,
            "durationTicks": 226,
            "midi": 66,
            "name": "F#4",
            "ticks": 20640,
            "time": 64.5,
            "velocity": 0.5118110236220472
          },
          {
            "duration": 0.7062499999999972,
            "durationTicks": 226,
            "midi": 67,
            "name": "G4",
            "ticks": 20880,
            "time": 65.25,
            "velocity": 0.5039370078740157
          },
          {
            "duration": 0.7062499999999972,
            "durationTicks": 226,
            "midi": 66,
            "name": "F#4",
            "ticks": 21120,
            "time": 66,
            "velocity": 0.49606299212598426
          },
          {
            "duration": 0.7062499999999972,
            "durationTicks": 226,
            "midi": 64,
            "name": "E4",
            "ticks": 21360,
            "time": 66.75,
            "velocity": 0.4881889763779528
          },
          {
            "duration": 0.7062499999999972,
            "durationTicks": 226,
            "midi": 62,
            "name": "D4",
            "ticks": 21600,
            "time": 67.5,
            "velocity": 0.47244094488188976
          },
          {
            "duration": 0.7062499999999972,
            "durationTicks": 226,
            "midi": 64,
            "name": "E4",
            "ticks": 21840,
            "time": 68.25,
            "velocity": 0.47244094488188976
          },
          {
            "duration": 0.7062499999999972,
            "durationTicks": 226,
            "midi": 62,
            "name": "D4",
            "ticks": 22080,
            "time": 69,
            "velocity": 0.47244094488188976
          },
          {
            "duration": 0.7062499999999972,
            "durationTicks": 226,
            "midi": 61,
            "name": "C#4",
            "ticks": 22320,
            "time": 69.75,
            "velocity": 0.47244094488188976
          },
          {
            "duration": 0.7062499999999972,
            "durationTicks": 226,
            "midi": 60,
            "name": "C4",
            "ticks": 22560,
            "time": 70.5,
            "velocity": 0.47244094488188976
          },
          {
            "duration": 0.7062499999999972,
            "durationTicks": 226,
            "midi": 61,
            "name": "C#4",
            "ticks": 22800,
            "time": 71.25,
            "velocity": 0.47244094488188976
          },
          {
            "duration": 1.0562500000000057,
            "durationTicks": 338,
            "midi": 62,
            "name": "D4",
            "ticks": 23040,
            "time": 72,
            "velocity": 0.47244094488188976
          },
          {
            "duration": 0.35624999999998863,
            "durationTicks": 114,
            "midi": 61,
            "name": "C#4",
            "ticks": 23400,
            "time": 73.125,
            "velocity": 0.47244094488188976
          },
          {
            "duration": 2.4625000000000057,
            "durationTicks": 788,
            "midi": 64,
            "name": "E4",
            "ticks": 23520,
            "time": 73.5,
            "velocity": 0.47244094488188976
          },
          {
            "duration": 0.35624999999998863,
            "durationTicks": 114,
            "midi": 62,
            "name": "D4",
            "ticks": 24360,
            "time": 76.125,
            "velocity": 0.47244094488188976
          },
          {
            "duration": 3.706249999999997,
            "durationTicks": 1186,
            "midi": 61,
            "name": "C#4",
            "ticks": 24480,
            "time": 76.5,
            "velocity": 0.44881889763779526
          },
          {
            "duration": 5.206249999999997,
            "durationTicks": 1666,
            "midi": 66,
            "name": "F#4",
            "ticks": 29280,
            "time": 91.5,
            "velocity": 0.6299212598425197
          },
          {
            "duration": 4.40625,
            "durationTicks": 1410,
            "midi": 66,
            "name": "F#4",
            "ticks": 32160,
            "time": 100.5,
            "velocity": 0.5511811023622047
          },
          {
            "duration": 4.40625,
            "durationTicks": 1410,
            "midi": 64,
            "name": "E4",
            "ticks": 33600,
            "time": 105,
            "velocity": 0.4330708661417323
          },
          {
            "duration": 4.40625,
            "durationTicks": 1410,
            "midi": 62,
            "name": "D4",
            "ticks": 35040,
            "time": 109.5,
            "velocity": 0.4330708661417323
          },
          {
            "duration": 4.40625,
            "durationTicks": 1410,
            "midi": 61,
            "name": "C#4",
            "ticks": 36480,
            "time": 114,
            "velocity": 0.4330708661417323
          },
          {
            "duration": 4.40625,
            "durationTicks": 1410,
            "midi": 59,
            "name": "B3",
            "ticks": 37920,
            "time": 118.5,
            "velocity": 0.4330708661417323
          },
          {
            "duration": 2.3999999999999915,
            "durationTicks": 768,
            "midi": 58,
            "name": "A#3",
            "ticks": 39360,
            "time": 123,
            "velocity": 0.4330708661417323
          },
          {
            "duration": 1.40625,
            "durationTicks": 450,
            "midi": 57,
            "name": "A3",
            "ticks": 40320,
            "time": 126,
            "velocity": 0.47244094488188976
          },
          {
            "duration": 2.4625000000000057,
            "durationTicks": 788,
            "midi": 55,
            "name": "G3",
            "ticks": 40800,
            "time": 127.5,
            "velocity": 0.5118110236220472
          },
          {
            "duration": 0.35624999999998863,
            "durationTicks": 114,
            "midi": 54,
            "name": "F#3",
            "ticks": 41640,
            "time": 130.125,
            "velocity": 0.5826771653543307
          },
          {
            "duration": 1.40625,
            "durationTicks": 450,
            "midi": 54,
            "name": "F#3",
            "ticks": 41760,
            "time": 130.5,
            "velocity": 0.6299212598425197
          },
          {
            "duration": 2.4625000000000057,
            "durationTicks": 788,
            "midi": 52,
            "name": "E3",
            "ticks": 42240,
            "time": 132,
            "velocity": 0.6614173228346457
          },
          {
            "duration": 0.35624999999998863,
            "durationTicks": 114,
            "midi": 50,
            "name": "D3",
            "ticks": 43080,
            "time": 134.625,
            "velocity": 0.7165354330708661
          },
          {
            "duration": 1.40625,
            "durationTicks": 450,
            "midi": 50,
            "name": "D3",
            "ticks": 43200,
            "time": 135,
            "velocity": 0.7322834645669292
          },
          {
            "duration": 2.4625000000000057,
            "durationTicks": 788,
            "midi": 49,
            "name": "C#3",
            "ticks": 43680,
            "time": 136.5,
            "velocity": 0.7637795275590551
          },
          {
            "duration": 0.35624999999998863,
            "durationTicks": 114,
            "midi": 47,
            "name": "B2",
            "ticks": 44520,
            "time": 139.125,
            "velocity": 0.8188976377952756
          },
          {
            "duration": 1.0562500000000057,
            "durationTicks": 338,
            "midi": 47,
            "name": "B2",
            "ticks": 44640,
            "time": 139.5,
            "velocity": 0.8267716535433071
          },
          {
            "duration": 0.35624999999998863,
            "durationTicks": 114,
            "midi": 45,
            "name": "A2",
            "ticks": 45000,
            "time": 140.625,
            "velocity": 0.7795275590551181
          },
          {
            "duration": 1.0562500000000057,
            "durationTicks": 338,
            "midi": 45,
            "name": "A2",
            "ticks": 45120,
            "time": 141,
            "velocity": 0.7637795275590551
          },
          {
            "duration": 0.35624999999998863,
            "durationTicks": 114,
            "midi": 43,
            "name": "G2",
            "ticks": 45480,
            "time": 142.125,
            "velocity": 0.7086614173228346
          },
          {
            "duration": 1.0562500000000057,
            "durationTicks": 338,
            "midi": 43,
            "name": "G2",
            "ticks": 45600,
            "time": 142.5,
            "velocity": 0.6929133858267716
          },
          {
            "duration": 0.35624999999998863,
            "durationTicks": 114,
            "midi": 42,
            "name": "F#2",
            "ticks": 45960,
            "time": 143.625,
            "velocity": 0.6456692913385826
          },
          {
            "duration": 1.0562500000000057,
            "durationTicks": 338,
            "midi": 42,
            "name": "F#2",
            "ticks": 46080,
            "time": 144,
            "velocity": 0.6299212598425197
          },
          {
            "duration": 0.35624999999998863,
            "durationTicks": 114,
            "midi": 40,
            "name": "E2",
            "ticks": 46440,
            "time": 145.125,
            "velocity": 0.5905511811023622
          },
          {
            "duration": 1.0562500000000057,
            "durationTicks": 338,
            "midi": 40,
            "name": "E2",
            "ticks": 46560,
            "time": 145.5,
            "velocity": 0.5748031496062992
          },
          {
            "duration": 0.35624999999998863,
            "durationTicks": 114,
            "midi": 38,
            "name": "D2",
            "ticks": 46920,
            "time": 146.625,
            "velocity": 0.5354330708661418
          },
          {
            "duration": 1.0562500000000057,
            "durationTicks": 338,
            "midi": 38,
            "name": "D2",
            "ticks": 47040,
            "time": 147,
            "velocity": 0.5275590551181102
          },
          {
            "duration": 0.35624999999998863,
            "durationTicks": 114,
            "midi": 37,
            "name": "C#2",
            "ticks": 47400,
            "time": 148.125,
            "velocity": 0.4881889763779528
          },
          {
            "duration": 1.40625,
            "durationTicks": 450,
            "midi": 37,
            "name": "C#2",
            "ticks": 47520,
            "time": 148.5,
            "velocity": 0.47244094488188976
          },
          {
            "duration": 0.35624999999998863,
            "durationTicks": 114,
            "midi": 38,
            "name": "D2",
            "ticks": 48000,
            "time": 150,
            "velocity": 0.47244094488188976
          },
          {
            "duration": 0.35624999999998863,
            "durationTicks": 114,
            "midi": 37,
            "name": "C#2",
            "ticks": 48120,
            "time": 150.375,
            "velocity": 0.47244094488188976
          },
          {
            "duration": 0.35624999999998863,
            "durationTicks": 114,
            "midi": 36,
            "name": "C2",
            "ticks": 48240,
            "time": 150.75,
            "velocity": 0.47244094488188976
          },
          {
            "duration": 0.35624999999998863,
            "durationTicks": 114,
            "midi": 37,
            "name": "C#2",
            "ticks": 48360,
            "time": 151.125,
            "velocity": 0.47244094488188976
          },
          {
            "duration": 1.0562500000000057,
            "durationTicks": 338,
            "midi": 40,
            "name": "E2",
            "ticks": 48480,
            "time": 151.5,
            "velocity": 0.47244094488188976
          },
          {
            "duration": 0.35624999999998863,
            "durationTicks": 114,
            "midi": 38,
            "name": "D2",
            "ticks": 48840,
            "time": 152.625,
            "velocity": 0.47244094488188976
          },
          {
            "duration": 8.100000000000023,
            "durationTicks": 2592,
            "midi": 37,
            "name": "C#2",
            "ticks": 48960,
            "time": 153,
            "velocity": 0.47244094488188976
          },
          {
            "duration": 1.40625,
            "durationTicks": 450,
            "midi": 54,
            "name": "F#3",
            "ticks": 54240,
            "time": 169.5,
            "velocity": 0.41732283464566927
          },
          {
            "duration": 1.40625,
            "durationTicks": 450,
            "midi": 66,
            "name": "F#4",
            "ticks": 54240,
            "time": 169.5,
            "velocity": 0.41732283464566927
          },
          {
            "duration": 2.8125,
            "durationTicks": 900,
            "midi": 55,
            "name": "G3",
            "ticks": 54720,
            "time": 171,
            "velocity": 0.41732283464566927
          },
          {
            "duration": 2.8125,
            "durationTicks": 900,
            "midi": 67,
            "name": "G4",
            "ticks": 54720,
            "time": 171,
            "velocity": 0.41732283464566927
          },
          {
            "duration": 1.40625,
            "durationTicks": 450,
            "midi": 49,
            "name": "C#3",
            "ticks": 55680,
            "time": 174,
            "velocity": 0.41732283464566927
          },
          {
            "duration": 1.40625,
            "durationTicks": 450,
            "midi": 61,
            "name": "C#4",
            "ticks": 55680,
            "time": 174,
            "velocity": 0.41732283464566927
          },
          {
            "duration": 2.8125,
            "durationTicks": 900,
            "midi": 50,
            "name": "D3",
            "ticks": 56160,
            "time": 175.5,
            "velocity": 0.4330708661417323
          },
          {
            "duration": 2.8125,
            "durationTicks": 900,
            "midi": 62,
            "name": "D4",
            "ticks": 56160,
            "time": 175.5,
            "velocity": 0.4330708661417323
          },
          {
            "duration": 1.40625,
            "durationTicks": 450,
            "midi": 57,
            "name": "A3",
            "ticks": 57120,
            "time": 178.5,
            "velocity": 0.4330708661417323
          },
          {
            "duration": 1.40625,
            "durationTicks": 450,
            "midi": 69,
            "name": "A4",
            "ticks": 57120,
            "time": 178.5,
            "velocity": 0.4330708661417323
          },
          {
            "duration": 2.8125,
            "durationTicks": 900,
            "midi": 55,
            "name": "G3",
            "ticks": 57600,
            "time": 180,
            "velocity": 0.41732283464566927
          },
          {
            "duration": 2.8125,
            "durationTicks": 900,
            "midi": 67,
            "name": "G4",
            "ticks": 57600,
            "time": 180,
            "velocity": 0.41732283464566927
          },
          {
            "duration": 1.40625,
            "durationTicks": 450,
            "midi": 49,
            "name": "C#3",
            "ticks": 58560,
            "time": 183,
            "velocity": 0.41732283464566927
          },
          {
            "duration": 1.40625,
            "durationTicks": 450,
            "midi": 61,
            "name": "C#4",
            "ticks": 58560,
            "time": 183,
            "velocity": 0.41732283464566927
          },
          {
            "duration": 2.8125,
            "durationTicks": 900,
            "midi": 50,
            "name": "D3",
            "ticks": 59040,
            "time": 184.5,
            "velocity": 0.4645669291338583
          },
          {
            "duration": 2.8125,
            "durationTicks": 900,
            "midi": 62,
            "name": "D4",
            "ticks": 59040,
            "time": 184.5,
            "velocity": 0.4645669291338583
          },
          {
            "duration": 1.40625,
            "durationTicks": 450,
            "midi": 60,
            "name": "C4",
            "ticks": 60000,
            "time": 187.5,
            "velocity": 0.5275590551181102
          },
          {
            "duration": 2.8125,
            "durationTicks": 900,
            "midi": 59,
            "name": "B3",
            "ticks": 60480,
            "time": 189,
            "velocity": 0.5590551181102362
          },
          {
            "duration": 1.40625,
            "durationTicks": 450,
            "midi": 64,
            "name": "E4",
            "ticks": 61440,
            "time": 192,
            "velocity": 0.6220472440944882
          },
          {
            "duration": 1.40625,
            "durationTicks": 450,
            "midi": 64,
            "name": "E4",
            "ticks": 61920,
            "time": 193.5,
            "velocity": 0.6535433070866141
          },
          {
            "duration": 1.40625,
            "durationTicks": 450,
            "midi": 66,
            "name": "F#4",
            "ticks": 62400,
            "time": 195,
            "velocity": 0.6850393700787402
          },
          {
            "duration": 1.40625,
            "durationTicks": 450,
            "midi": 59,
            "name": "B3",
            "ticks": 62880,
            "time": 196.5,
            "velocity": 0.7165354330708661
          },
          {
            "duration": 4.21875,
            "durationTicks": 1350,
            "midi": 59,
            "name": "B3",
            "ticks": 63360,
            "time": 198,
            "velocity": 0.7086614173228346
          },
          {
            "duration": 1.40625,
            "durationTicks": 450,
            "midi": 59,
            "name": "B3",
            "ticks": 64800,
            "time": 202.5,
            "velocity": 0.7086614173228346
          },
          {
            "duration": 1.40625,
            "durationTicks": 450,
            "midi": 58,
            "name": "A#3",
            "ticks": 65280,
            "time": 204,
            "velocity": 0.6535433070866141
          },
          {
            "duration": 0.46875,
            "durationTicks": 150,
            "midi": 59,
            "name": "B3",
            "ticks": 65760,
            "time": 205.5,
            "velocity": 0.49606299212598426
          },
          {
            "duration": 0.46875,
            "durationTicks": 150,
            "midi": 57,
            "name": "A3",
            "ticks": 65920,
            "time": 206,
            "velocity": 0.49606299212598426
          },
          {
            "duration": 0.96875,
            "durationTicks": 310,
            "midi": 57,
            "name": "A3",
            "ticks": 66080,
            "time": 206.5,
            "velocity": 0.49606299212598426
          },
          {
            "duration": 0.46875,
            "durationTicks": 150,
            "midi": 57,
            "name": "A3",
            "ticks": 66400,
            "time": 207.5,
            "velocity": 0.49606299212598426
          },
          {
            "duration": 0.96875,
            "durationTicks": 310,
            "midi": 57,
            "name": "A3",
            "ticks": 66560,
            "time": 208,
            "velocity": 0.49606299212598426
          },
          {
            "duration": 0.46875,
            "durationTicks": 150,
            "midi": 57,
            "name": "A3",
            "ticks": 66880,
            "time": 209,
            "velocity": 0.49606299212598426
          },
          {
            "duration": 0.96875,
            "durationTicks": 310,
            "midi": 57,
            "name": "A3",
            "ticks": 67040,
            "time": 209.5,
            "velocity": 0.49606299212598426
          },
          {
            "duration": 0.46875,
            "durationTicks": 150,
            "midi": 56,
            "name": "G#3",
            "ticks": 67360,
            "time": 210.5,
            "velocity": 0.49606299212598426
          },
          {
            "duration": 0.46875,
            "durationTicks": 150,
            "midi": 56,
            "name": "G#3",
            "ticks": 67520,
            "time": 211,
            "velocity": 0.49606299212598426
          },
          {
            "duration": 0.46875,
            "durationTicks": 150,
            "midi": 57,
            "name": "A3",
            "ticks": 67840,
            "time": 212,
            "velocity": 0.4330708661417323
          },
          {
            "duration": 0.96875,
            "durationTicks": 310,
            "midi": 57,
            "name": "A3",
            "ticks": 68000,
            "time": 212.5,
            "velocity": 0.4330708661417323
          },
          {
            "duration": 0.46875,
            "durationTicks": 150,
            "midi": 57,
            "name": "A3",
            "ticks": 68320,
            "time": 213.5,
            "velocity": 0.4330708661417323
          },
          {
            "duration": 0.96875,
            "durationTicks": 310,
            "midi": 57,
            "name": "A3",
            "ticks": 68480,
            "time": 214,
            "velocity": 0.4330708661417323
          },
          {
            "duration": 0.46875,
            "durationTicks": 150,
            "midi": 57,
            "name": "A3",
            "ticks": 68800,
            "time": 215,
            "velocity": 0.4330708661417323
          },
          {
            "duration": 0.96875,
            "durationTicks": 310,
            "midi": 57,
            "name": "A3",
            "ticks": 68960,
            "time": 215.5,
            "velocity": 0.4330708661417323
          },
          {
            "duration": 0.46875,
            "durationTicks": 150,
            "midi": 57,
            "name": "A3",
            "ticks": 69280,
            "time": 216.5,
            "velocity": 0.4330708661417323
          },
          {
            "duration": 0.96875,
            "durationTicks": 310,
            "midi": 57,
            "name": "A3",
            "ticks": 69440,
            "time": 217,
            "velocity": 0.4330708661417323
          },
          {
            "duration": 0.46875,
            "durationTicks": 150,
            "midi": 57,
            "name": "A3",
            "ticks": 69760,
            "time": 218,
            "velocity": 0.4330708661417323
          },
          {
            "duration": 0.96875,
            "durationTicks": 310,
            "midi": 57,
            "name": "A3",
            "ticks": 69920,
            "time": 218.5,
            "velocity": 0.4330708661417323
          },
          {
            "duration": 0.46875,
            "durationTicks": 150,
            "midi": 56,
            "name": "G#3",
            "ticks": 70240,
            "time": 219.5,
            "velocity": 0.4330708661417323
          },
          {
            "duration": 0.46875,
            "durationTicks": 150,
            "midi": 56,
            "name": "G#3",
            "ticks": 70400,
            "time": 220,
            "velocity": 0.4330708661417323
          },
          {
            "duration": 0.46875,
            "durationTicks": 150,
            "midi": 57,
            "name": "A3",
            "ticks": 70720,
            "time": 221,
            "velocity": 0.4330708661417323
          },
          {
            "duration": 0.96875,
            "durationTicks": 310,
            "midi": 57,
            "name": "A3",
            "ticks": 70880,
            "time": 221.5,
            "velocity": 0.4330708661417323
          },
          {
            "duration": 0.46875,
            "durationTicks": 150,
            "midi": 57,
            "name": "A3",
            "ticks": 71200,
            "time": 222.5,
            "velocity": 0.4330708661417323
          },
          {
            "duration": 0.96875,
            "durationTicks": 310,
            "midi": 57,
            "name": "A3",
            "ticks": 71360,
            "time": 223,
            "velocity": 0.4330708661417323
          },
          {
            "duration": 0.46875,
            "durationTicks": 150,
            "midi": 57,
            "name": "A3",
            "ticks": 71680,
            "time": 224,
            "velocity": 0.4330708661417323
          },
          {
            "duration": 0.46875,
            "durationTicks": 150,
            "midi": 57,
            "name": "A3",
            "ticks": 71840,
            "time": 224.5,
            "velocity": 0.4330708661417323
          },
          {
            "duration": 0.46875,
            "durationTicks": 150,
            "midi": 59,
            "name": "B3",
            "ticks": 72160,
            "time": 225.5,
            "velocity": 0.47244094488188976
          },
          {
            "duration": 0.96875,
            "durationTicks": 310,
            "midi": 59,
            "name": "B3",
            "ticks": 72320,
            "time": 226,
            "velocity": 0.48031496062992124
          },
          {
            "duration": 0.46875,
            "durationTicks": 150,
            "midi": 59,
            "name": "B3",
            "ticks": 72640,
            "time": 227,
            "velocity": 0.4881889763779528
          },
          {
            "duration": 0.96875,
            "durationTicks": 310,
            "midi": 59,
            "name": "B3",
            "ticks": 72800,
            "time": 227.5,
            "velocity": 0.49606299212598426
          },
          {
            "duration": 0.46875,
            "durationTicks": 150,
            "midi": 59,
            "name": "B3",
            "ticks": 73120,
            "time": 228.5,
            "velocity": 0.5039370078740157
          },
          {
            "duration": 0.46875,
            "durationTicks": 150,
            "midi": 59,
            "name": "B3",
            "ticks": 73280,
            "time": 229,
            "velocity": 0.5118110236220472
          },
          {
            "duration": 0.46875,
            "durationTicks": 150,
            "midi": 61,
            "name": "C#4",
            "ticks": 73600,
            "time": 230,
            "velocity": 0.5275590551181102
          },
          {
            "duration": 0.96875,
            "durationTicks": 310,
            "midi": 61,
            "name": "C#4",
            "ticks": 73760,
            "time": 230.5,
            "velocity": 0.5275590551181102
          },
          {
            "duration": 0.46875,
            "durationTicks": 150,
            "midi": 61,
            "name": "C#4",
            "ticks": 74080,
            "time": 231.5,
            "velocity": 0.5433070866141733
          },
          {
            "duration": 0.96875,
            "durationTicks": 310,
            "midi": 61,
            "name": "C#4",
            "ticks": 74240,
            "time": 232,
            "velocity": 0.5433070866141733
          },
          {
            "duration": 0.46875,
            "durationTicks": 150,
            "midi": 61,
            "name": "C#4",
            "ticks": 74560,
            "time": 233,
            "velocity": 0.5590551181102362
          },
          {
            "duration": 0.46875,
            "durationTicks": 150,
            "midi": 61,
            "name": "C#4",
            "ticks": 74720,
            "time": 233.5,
            "velocity": 0.5590551181102362
          },
          {
            "duration": 0.46875,
            "durationTicks": 150,
            "midi": 62,
            "name": "D4",
            "ticks": 75040,
            "time": 234.5,
            "velocity": 0.5748031496062992
          },
          {
            "duration": 0.96875,
            "durationTicks": 310,
            "midi": 62,
            "name": "D4",
            "ticks": 75200,
            "time": 235,
            "velocity": 0.5826771653543307
          },
          {
            "duration": 0.46875,
            "durationTicks": 150,
            "midi": 62,
            "name": "D4",
            "ticks": 75520,
            "time": 236,
            "velocity": 0.5905511811023622
          },
          {
            "duration": 0.96875,
            "durationTicks": 310,
            "midi": 62,
            "name": "D4",
            "ticks": 75680,
            "time": 236.5,
            "velocity": 0.5984251968503937
          },
          {
            "duration": 0.46875,
            "durationTicks": 150,
            "midi": 62,
            "name": "D4",
            "ticks": 76000,
            "time": 237.5,
            "velocity": 0.6062992125984252
          },
          {
            "duration": 0.46875,
            "durationTicks": 150,
            "midi": 62,
            "name": "D4",
            "ticks": 76160,
            "time": 238,
            "velocity": 0.6141732283464567
          },
          {
            "duration": 0.46875,
            "durationTicks": 150,
            "midi": 64,
            "name": "E4",
            "ticks": 76480,
            "time": 239,
            "velocity": 0.6220472440944882
          },
          {
            "duration": 0.96875,
            "durationTicks": 310,
            "midi": 64,
            "name": "E4",
            "ticks": 76640,
            "time": 239.5,
            "velocity": 0.6299212598425197
          },
          {
            "duration": 0.46875,
            "durationTicks": 150,
            "midi": 64,
            "name": "E4",
            "ticks": 76960,
            "time": 240.5,
            "velocity": 0.6377952755905512
          },
          {
            "duration": 0.46875,
            "durationTicks": 150,
            "midi": 64,
            "name": "E4",
            "ticks": 77120,
            "time": 241,
            "velocity": 0.6456692913385826
          },
          {
            "duration": 1.40625,
            "durationTicks": 450,
            "midi": 60,
            "name": "C4",
            "ticks": 83040,
            "time": 259.5,
            "velocity": 0.6220472440944882
          },
          {
            "duration": 2.8125,
            "durationTicks": 900,
            "midi": 59,
            "name": "B3",
            "ticks": 83520,
            "time": 261,
            "velocity": 0.6377952755905512
          },
          {
            "duration": 1.40625,
            "durationTicks": 450,
            "midi": 64,
            "name": "E4",
            "ticks": 84480,
            "time": 264,
            "velocity": 0.6614173228346457
          },
          {
            "duration": 1.40625,
            "durationTicks": 450,
            "midi": 64,
            "name": "E4",
            "ticks": 84960,
            "time": 265.5,
            "velocity": 0.6771653543307087
          },
          {
            "duration": 1.40625,
            "durationTicks": 450,
            "midi": 66,
            "name": "F#4",
            "ticks": 85440,
            "time": 267,
            "velocity": 0.6850393700787402
          },
          {
            "duration": 1.40625,
            "durationTicks": 450,
            "midi": 59,
            "name": "B3",
            "ticks": 85920,
            "time": 268.5,
            "velocity": 0.7007874015748031
          },
          {
            "duration": 4.21875,
            "durationTicks": 1350,
            "midi": 59,
            "name": "B3",
            "ticks": 86400,
            "time": 270,
            "velocity": 0.7165354330708661
          },
          {
            "duration": 1.40625,
            "durationTicks": 450,
            "midi": 59,
            "name": "B3",
            "ticks": 87840,
            "time": 274.5,
            "velocity": 0.6692913385826772
          },
          {
            "duration": 1.40625,
            "durationTicks": 450,
            "midi": 58,
            "name": "A#3",
            "ticks": 88320,
            "time": 276,
            "velocity": 0.6692913385826772
          },
          {
            "duration": 0.46875,
            "durationTicks": 150,
            "midi": 58,
            "name": "A#3",
            "ticks": 88800,
            "time": 277.5,
            "velocity": 0.6692913385826772
          },
          {
            "duration": 0.46875,
            "durationTicks": 150,
            "midi": 57,
            "name": "A3",
            "ticks": 88960,
            "time": 278,
            "velocity": 0.6692913385826772
          },
          {
            "duration": 0.96875,
            "durationTicks": 310,
            "midi": 57,
            "name": "A3",
            "ticks": 89120,
            "time": 278.5,
            "velocity": 0.6692913385826772
          },
          {
            "duration": 0.46875,
            "durationTicks": 150,
            "midi": 57,
            "name": "A3",
            "ticks": 89440,
            "time": 279.5,
            "velocity": 0.6692913385826772
          },
          {
            "duration": 0.96875,
            "durationTicks": 310,
            "midi": 57,
            "name": "A3",
            "ticks": 89600,
            "time": 280,
            "velocity": 0.6692913385826772
          },
          {
            "duration": 0.46875,
            "durationTicks": 150,
            "midi": 57,
            "name": "A3",
            "ticks": 89920,
            "time": 281,
            "velocity": 0.6692913385826772
          },
          {
            "duration": 0.96875,
            "durationTicks": 310,
            "midi": 57,
            "name": "A3",
            "ticks": 90080,
            "time": 281.5,
            "velocity": 0.6692913385826772
          },
          {
            "duration": 0.46875,
            "durationTicks": 150,
            "midi": 56,
            "name": "G#3",
            "ticks": 90400,
            "time": 282.5,
            "velocity": 0.6692913385826772
          },
          {
            "duration": 0.46875,
            "durationTicks": 150,
            "midi": 56,
            "name": "G#3",
            "ticks": 90560,
            "time": 283,
            "velocity": 0.6692913385826772
          },
          {
            "duration": 0.46875,
            "durationTicks": 150,
            "midi": 57,
            "name": "A3",
            "ticks": 90880,
            "time": 284,
            "velocity": 0.6299212598425197
          },
          {
            "duration": 0.96875,
            "durationTicks": 310,
            "midi": 57,
            "name": "A3",
            "ticks": 91040,
            "time": 284.5,
            "velocity": 0.6299212598425197
          },
          {
            "duration": 0.46875,
            "durationTicks": 150,
            "midi": 57,
            "name": "A3",
            "ticks": 91360,
            "time": 285.5,
            "velocity": 0.6299212598425197
          },
          {
            "duration": 0.96875,
            "durationTicks": 310,
            "midi": 57,
            "name": "A3",
            "ticks": 91520,
            "time": 286,
            "velocity": 0.6299212598425197
          },
          {
            "duration": 0.46875,
            "durationTicks": 150,
            "midi": 57,
            "name": "A3",
            "ticks": 91840,
            "time": 287,
            "velocity": 0.6299212598425197
          },
          {
            "duration": 0.96875,
            "durationTicks": 310,
            "midi": 57,
            "name": "A3",
            "ticks": 92000,
            "time": 287.5,
            "velocity": 0.6299212598425197
          },
          {
            "duration": 0.46875,
            "durationTicks": 150,
            "midi": 57,
            "name": "A3",
            "ticks": 92320,
            "time": 288.5,
            "velocity": 0.6299212598425197
          },
          {
            "duration": 0.96875,
            "durationTicks": 310,
            "midi": 57,
            "name": "A3",
            "ticks": 92480,
            "time": 289,
            "velocity": 0.6299212598425197
          },
          {
            "duration": 0.46875,
            "durationTicks": 150,
            "midi": 57,
            "name": "A3",
            "ticks": 92800,
            "time": 290,
            "velocity": 0.6299212598425197
          },
          {
            "duration": 0.96875,
            "durationTicks": 310,
            "midi": 57,
            "name": "A3",
            "ticks": 92960,
            "time": 290.5,
            "velocity": 0.6299212598425197
          },
          {
            "duration": 0.46875,
            "durationTicks": 150,
            "midi": 56,
            "name": "G#3",
            "ticks": 93280,
            "time": 291.5,
            "velocity": 0.6299212598425197
          },
          {
            "duration": 0.46875,
            "durationTicks": 150,
            "midi": 56,
            "name": "G#3",
            "ticks": 93440,
            "time": 292,
            "velocity": 0.6299212598425197
          },
          {
            "duration": 0.46875,
            "durationTicks": 150,
            "midi": 57,
            "name": "A3",
            "ticks": 93760,
            "time": 293,
            "velocity": 0.5748031496062992
          },
          {
            "duration": 0.96875,
            "durationTicks": 310,
            "midi": 57,
            "name": "A3",
            "ticks": 93920,
            "time": 293.5,
            "velocity": 0.5826771653543307
          },
          {
            "duration": 0.46875,
            "durationTicks": 150,
            "midi": 57,
            "name": "A3",
            "ticks": 94240,
            "time": 294.5,
            "velocity": 0.5905511811023622
          },
          {
            "duration": 0.96875,
            "durationTicks": 310,
            "midi": 57,
            "name": "A3",
            "ticks": 94400,
            "time": 295,
            "velocity": 0.5984251968503937
          },
          {
            "duration": 0.46875,
            "durationTicks": 150,
            "midi": 57,
            "name": "A3",
            "ticks": 94720,
            "time": 296,
            "velocity": 0.6062992125984252
          },
          {
            "duration": 0.46875,
            "durationTicks": 150,
            "midi": 57,
            "name": "A3",
            "ticks": 94880,
            "time": 296.5,
            "velocity": 0.6141732283464567
          },
          {
            "duration": 0.46875,
            "durationTicks": 150,
            "midi": 59,
            "name": "B3",
            "ticks": 95200,
            "time": 297.5,
            "velocity": 0.5748031496062992
          },
          {
            "duration": 0.96875,
            "durationTicks": 310,
            "midi": 59,
            "name": "B3",
            "ticks": 95360,
            "time": 298,
            "velocity": 0.5826771653543307
          },
          {
            "duration": 0.46875,
            "durationTicks": 150,
            "midi": 59,
            "name": "B3",
            "ticks": 95680,
            "time": 299,
            "velocity": 0.5905511811023622
          },
          {
            "duration": 0.96875,
            "durationTicks": 310,
            "midi": 59,
            "name": "B3",
            "ticks": 95840,
            "time": 299.5,
            "velocity": 0.5984251968503937
          },
          {
            "duration": 0.46875,
            "durationTicks": 150,
            "midi": 59,
            "name": "B3",
            "ticks": 96160,
            "time": 300.5,
            "velocity": 0.6062992125984252
          },
          {
            "duration": 0.46875,
            "durationTicks": 150,
            "midi": 59,
            "name": "B3",
            "ticks": 96320,
            "time": 301,
            "velocity": 0.6141732283464567
          },
          {
            "duration": 0.46875,
            "durationTicks": 150,
            "midi": 61,
            "name": "C#4",
            "ticks": 96640,
            "time": 302,
            "velocity": 0.5748031496062992
          },
          {
            "duration": 0.96875,
            "durationTicks": 310,
            "midi": 61,
            "name": "C#4",
            "ticks": 96800,
            "time": 302.5,
            "velocity": 0.5826771653543307
          },
          {
            "duration": 0.46875,
            "durationTicks": 150,
            "midi": 61,
            "name": "C#4",
            "ticks": 97120,
            "time": 303.5,
            "velocity": 0.5905511811023622
          },
          {
            "duration": 0.96875,
            "durationTicks": 310,
            "midi": 61,
            "name": "C#4",
            "ticks": 97280,
            "time": 304,
            "velocity": 0.5984251968503937
          },
          {
            "duration": 0.46875,
            "durationTicks": 150,
            "midi": 61,
            "name": "C#4",
            "ticks": 97600,
            "time": 305,
            "velocity": 0.6062992125984252
          },
          {
            "duration": 0.46875,
            "durationTicks": 150,
            "midi": 61,
            "name": "C#4",
            "ticks": 97760,
            "time": 305.5,
            "velocity": 0.6141732283464567
          },
          {
            "duration": 0.46875,
            "durationTicks": 150,
            "midi": 62,
            "name": "D4",
            "ticks": 98080,
            "time": 306.5,
            "velocity": 0.6377952755905512
          },
          {
            "duration": 0.96875,
            "durationTicks": 310,
            "midi": 62,
            "name": "D4",
            "ticks": 98240,
            "time": 307,
            "velocity": 0.6456692913385826
          },
          {
            "duration": 0.46875,
            "durationTicks": 150,
            "midi": 62,
            "name": "D4",
            "ticks": 98560,
            "time": 308,
            "velocity": 0.6692913385826772
          },
          {
            "duration": 0.96875,
            "durationTicks": 310,
            "midi": 62,
            "name": "D4",
            "ticks": 98720,
            "time": 308.5,
            "velocity": 0.6771653543307087
          },
          {
            "duration": 0.46875,
            "durationTicks": 150,
            "midi": 62,
            "name": "D4",
            "ticks": 99040,
            "time": 309.5,
            "velocity": 0.7007874015748031
          },
          {
            "duration": 0.46875,
            "durationTicks": 150,
            "midi": 62,
            "name": "D4",
            "ticks": 99200,
            "time": 310,
            "velocity": 0.7086614173228346
          },
          {
            "duration": 0.46875,
            "durationTicks": 150,
            "midi": 64,
            "name": "E4",
            "ticks": 99520,
            "time": 311,
            "velocity": 0.7322834645669292
          },
          {
            "duration": 0.96875,
            "durationTicks": 310,
            "midi": 64,
            "name": "E4",
            "ticks": 99680,
            "time": 311.5,
            "velocity": 0.7401574803149606
          },
          {
            "duration": 0.46875,
            "durationTicks": 150,
            "midi": 64,
            "name": "E4",
            "ticks": 100000,
            "time": 312.5,
            "velocity": 0.7637795275590551
          },
          {
            "duration": 0.96875,
            "durationTicks": 310,
            "midi": 64,
            "name": "E4",
            "ticks": 100160,
            "time": 313,
            "velocity": 0.7716535433070866
          },
          {
            "duration": 0.46875,
            "durationTicks": 150,
            "midi": 64,
            "name": "E4",
            "ticks": 100480,
            "time": 314,
            "velocity": 0.7952755905511811
          },
          {
            "duration": 0.46875,
            "durationTicks": 150,
            "midi": 64,
            "name": "E4",
            "ticks": 100640,
            "time": 314.5,
            "velocity": 0.8031496062992126
          },
          {
            "duration": 0.46875,
            "durationTicks": 150,
            "midi": 38,
            "name": "D2",
            "ticks": 100800,
            "time": 315,
            "velocity": 0.8661417322834646
          },
          {
            "duration": 0.46875,
            "durationTicks": 150,
            "midi": 50,
            "name": "D3",
            "ticks": 100800,
            "time": 315,
            "velocity": 0.8661417322834646
          },
          {
            "duration": 0.46875,
            "durationTicks": 150,
            "midi": 38,
            "name": "D2",
            "ticks": 100960,
            "time": 315.5,
            "velocity": 0.8661417322834646
          },
          {
            "duration": 0.46875,
            "durationTicks": 150,
            "midi": 50,
            "name": "D3",
            "ticks": 100960,
            "time": 315.5,
            "velocity": 0.8661417322834646
          },
          {
            "duration": 0.96875,
            "durationTicks": 310,
            "midi": 38,
            "name": "D2",
            "ticks": 101120,
            "time": 316,
            "velocity": 0.8661417322834646
          },
          {
            "duration": 0.96875,
            "durationTicks": 310,
            "midi": 50,
            "name": "D3",
            "ticks": 101120,
            "time": 316,
            "velocity": 0.8661417322834646
          },
          {
            "duration": 0.46875,
            "durationTicks": 150,
            "midi": 38,
            "name": "D2",
            "ticks": 101440,
            "time": 317,
            "velocity": 0.8661417322834646
          },
          {
            "duration": 0.46875,
            "durationTicks": 150,
            "midi": 50,
            "name": "D3",
            "ticks": 101440,
            "time": 317,
            "velocity": 0.8661417322834646
          },
          {
            "duration": 0.96875,
            "durationTicks": 310,
            "midi": 38,
            "name": "D2",
            "ticks": 101600,
            "time": 317.5,
            "velocity": 0.8661417322834646
          },
          {
            "duration": 0.96875,
            "durationTicks": 310,
            "midi": 50,
            "name": "D3",
            "ticks": 101600,
            "time": 317.5,
            "velocity": 0.8661417322834646
          },
          {
            "duration": 0.46875,
            "durationTicks": 150,
            "midi": 38,
            "name": "D2",
            "ticks": 101920,
            "time": 318.5,
            "velocity": 0.8661417322834646
          },
          {
            "duration": 0.46875,
            "durationTicks": 150,
            "midi": 50,
            "name": "D3",
            "ticks": 101920,
            "time": 318.5,
            "velocity": 0.8661417322834646
          },
          {
            "duration": 0.96875,
            "durationTicks": 310,
            "midi": 38,
            "name": "D2",
            "ticks": 102080,
            "time": 319,
            "velocity": 0.8661417322834646
          },
          {
            "duration": 0.96875,
            "durationTicks": 310,
            "midi": 50,
            "name": "D3",
            "ticks": 102080,
            "time": 319,
            "velocity": 0.8661417322834646
          },
          {
            "duration": 0.46875,
            "durationTicks": 150,
            "midi": 36,
            "name": "C2",
            "ticks": 103680,
            "time": 324,
            "velocity": 0.8661417322834646
          },
          {
            "duration": 0.46875,
            "durationTicks": 150,
            "midi": 48,
            "name": "C3",
            "ticks": 103680,
            "time": 324,
            "velocity": 0.8661417322834646
          },
          {
            "duration": 0.46875,
            "durationTicks": 150,
            "midi": 36,
            "name": "C2",
            "ticks": 103840,
            "time": 324.5,
            "velocity": 0.8661417322834646
          },
          {
            "duration": 0.46875,
            "durationTicks": 150,
            "midi": 48,
            "name": "C3",
            "ticks": 103840,
            "time": 324.5,
            "velocity": 0.8661417322834646
          },
          {
            "duration": 0.96875,
            "durationTicks": 310,
            "midi": 36,
            "name": "C2",
            "ticks": 104000,
            "time": 325,
            "velocity": 0.8661417322834646
          },
          {
            "duration": 0.96875,
            "durationTicks": 310,
            "midi": 48,
            "name": "C3",
            "ticks": 104000,
            "time": 325,
            "velocity": 0.8661417322834646
          },
          {
            "duration": 0.46875,
            "durationTicks": 150,
            "midi": 36,
            "name": "C2",
            "ticks": 104320,
            "time": 326,
            "velocity": 0.8661417322834646
          },
          {
            "duration": 0.46875,
            "durationTicks": 150,
            "midi": 48,
            "name": "C3",
            "ticks": 104320,
            "time": 326,
            "velocity": 0.8661417322834646
          },
          {
            "duration": 0.96875,
            "durationTicks": 310,
            "midi": 36,
            "name": "C2",
            "ticks": 104480,
            "time": 326.5,
            "velocity": 0.8661417322834646
          },
          {
            "duration": 0.96875,
            "durationTicks": 310,
            "midi": 48,
            "name": "C3",
            "ticks": 104480,
            "time": 326.5,
            "velocity": 0.8661417322834646
          },
          {
            "duration": 0.46875,
            "durationTicks": 150,
            "midi": 36,
            "name": "C2",
            "ticks": 104800,
            "time": 327.5,
            "velocity": 0.8661417322834646
          },
          {
            "duration": 0.46875,
            "durationTicks": 150,
            "midi": 48,
            "name": "C3",
            "ticks": 104800,
            "time": 327.5,
            "velocity": 0.8661417322834646
          },
          {
            "duration": 0.96875,
            "durationTicks": 310,
            "midi": 36,
            "name": "C2",
            "ticks": 104960,
            "time": 328,
            "velocity": 0.8661417322834646
          },
          {
            "duration": 0.96875,
            "durationTicks": 310,
            "midi": 48,
            "name": "C3",
            "ticks": 104960,
            "time": 328,
            "velocity": 0.8661417322834646
          },
          {
            "duration": 0.46875,
            "durationTicks": 150,
            "midi": 40,
            "name": "E2",
            "ticks": 106560,
            "time": 333,
            "velocity": 0.8661417322834646
          },
          {
            "duration": 0.46875,
            "durationTicks": 150,
            "midi": 52,
            "name": "E3",
            "ticks": 106560,
            "time": 333,
            "velocity": 0.8661417322834646
          },
          {
            "duration": 0.46875,
            "durationTicks": 150,
            "midi": 40,
            "name": "E2",
            "ticks": 106720,
            "time": 333.5,
            "velocity": 0.8661417322834646
          },
          {
            "duration": 0.46875,
            "durationTicks": 150,
            "midi": 52,
            "name": "E3",
            "ticks": 106720,
            "time": 333.5,
            "velocity": 0.8661417322834646
          },
          {
            "duration": 0.96875,
            "durationTicks": 310,
            "midi": 40,
            "name": "E2",
            "ticks": 106880,
            "time": 334,
            "velocity": 0.8661417322834646
          },
          {
            "duration": 0.96875,
            "durationTicks": 310,
            "midi": 52,
            "name": "E3",
            "ticks": 106880,
            "time": 334,
            "velocity": 0.8661417322834646
          },
          {
            "duration": 0.46875,
            "durationTicks": 150,
            "midi": 40,
            "name": "E2",
            "ticks": 107200,
            "time": 335,
            "velocity": 0.8661417322834646
          },
          {
            "duration": 0.46875,
            "durationTicks": 150,
            "midi": 52,
            "name": "E3",
            "ticks": 107200,
            "time": 335,
            "velocity": 0.8661417322834646
          },
          {
            "duration": 0.96875,
            "durationTicks": 310,
            "midi": 40,
            "name": "E2",
            "ticks": 107360,
            "time": 335.5,
            "velocity": 0.8661417322834646
          },
          {
            "duration": 0.96875,
            "durationTicks": 310,
            "midi": 52,
            "name": "E3",
            "ticks": 107360,
            "time": 335.5,
            "velocity": 0.8661417322834646
          },
          {
            "duration": 0.46875,
            "durationTicks": 150,
            "midi": 40,
            "name": "E2",
            "ticks": 107680,
            "time": 336.5,
            "velocity": 0.8661417322834646
          },
          {
            "duration": 0.46875,
            "durationTicks": 150,
            "midi": 52,
            "name": "E3",
            "ticks": 107680,
            "time": 336.5,
            "velocity": 0.8661417322834646
          },
          {
            "duration": 0.96875,
            "durationTicks": 310,
            "midi": 40,
            "name": "E2",
            "ticks": 107840,
            "time": 337,
            "velocity": 0.8661417322834646
          },
          {
            "duration": 0.96875,
            "durationTicks": 310,
            "midi": 52,
            "name": "E3",
            "ticks": 107840,
            "time": 337,
            "velocity": 0.8661417322834646
          },
          {
            "duration": 0.3562500000000455,
            "durationTicks": 114,
            "midi": 43,
            "name": "G2",
            "ticks": 109440,
            "time": 342,
            "velocity": 1
          },
          {
            "duration": 0.3562500000000455,
            "durationTicks": 114,
            "midi": 55,
            "name": "G3",
            "ticks": 109440,
            "time": 342,
            "velocity": 1
          },
          {
            "duration": 0.3562500000000455,
            "durationTicks": 114,
            "midi": 48,
            "name": "C3",
            "ticks": 110400,
            "time": 345,
            "velocity": 1
          },
          {
            "duration": 0.3562500000000455,
            "durationTicks": 114,
            "midi": 60,
            "name": "C4",
            "ticks": 110400,
            "time": 345,
            "velocity": 1
          },
          {
            "duration": 0.3562500000000455,
            "durationTicks": 114,
            "midi": 52,
            "name": "E3",
            "ticks": 111360,
            "time": 348,
            "velocity": 1
          },
          {
            "duration": 0.3562500000000455,
            "durationTicks": 114,
            "midi": 55,
            "name": "G3",
            "ticks": 112320,
            "time": 351,
            "velocity": 1
          },
          {
            "duration": 0.19999999999998863,
            "durationTicks": 64,
            "midi": 48,
            "name": "C3",
            "ticks": 114720,
            "time": 358.5,
            "velocity": 1
          },
          {
            "duration": 0.19999999999998863,
            "durationTicks": 64,
            "midi": 60,
            "name": "C4",
            "ticks": 114720,
            "time": 358.5,
            "velocity": 1
          },
          {
            "duration": 0.19999999999998863,
            "durationTicks": 64,
            "midi": 47,
            "name": "B2",
            "ticks": 114788,
            "time": 358.71250000000003,
            "velocity": 1
          },
          {
            "duration": 0.19999999999998863,
            "durationTicks": 64,
            "midi": 59,
            "name": "B3",
            "ticks": 114788,
            "time": 358.71250000000003,
            "velocity": 1
          },
          {
            "duration": 0.19999999999998863,
            "durationTicks": 64,
            "midi": 45,
            "name": "A2",
            "ticks": 114856,
            "time": 358.925,
            "velocity": 1
          },
          {
            "duration": 0.19999999999998863,
            "durationTicks": 64,
            "midi": 57,
            "name": "A3",
            "ticks": 114856,
            "time": 358.925,
            "velocity": 1
          },
          {
            "duration": 0.1999999999999318,
            "durationTicks": 64,
            "midi": 43,
            "name": "G2",
            "ticks": 114924,
            "time": 359.13750000000005,
            "velocity": 1
          },
          {
            "duration": 0.1999999999999318,
            "durationTicks": 64,
            "midi": 55,
            "name": "G3",
            "ticks": 114924,
            "time": 359.13750000000005,
            "velocity": 1
          },
          {
            "duration": 0.1999999999999318,
            "durationTicks": 64,
            "midi": 41,
            "name": "F2",
            "ticks": 114992,
            "time": 359.35,
            "velocity": 1
          },
          {
            "duration": 0.1999999999999318,
            "durationTicks": 64,
            "midi": 53,
            "name": "F3",
            "ticks": 114992,
            "time": 359.35,
            "velocity": 1
          },
          {
            "duration": 0.19999999999998863,
            "durationTicks": 64,
            "midi": 40,
            "name": "E2",
            "ticks": 115060,
            "time": 359.5625,
            "velocity": 1
          },
          {
            "duration": 0.19999999999998863,
            "durationTicks": 64,
            "midi": 52,
            "name": "E3",
            "ticks": 115060,
            "time": 359.5625,
            "velocity": 1
          },
          {
            "duration": 0.19999999999998863,
            "durationTicks": 64,
            "midi": 38,
            "name": "D2",
            "ticks": 115128,
            "time": 359.775,
            "velocity": 1
          },
          {
            "duration": 0.19999999999998863,
            "durationTicks": 64,
            "midi": 50,
            "name": "D3",
            "ticks": 115128,
            "time": 359.775,
            "velocity": 1
          },
          {
            "duration": 0.7062500000000114,
            "durationTicks": 226,
            "midi": 36,
            "name": "C2",
            "ticks": 115200,
            "time": 360,
            "velocity": 1
          },
          {
            "duration": 0.7062500000000114,
            "durationTicks": 226,
            "midi": 48,
            "name": "C3",
            "ticks": 115200,
            "time": 360,
            "velocity": 1
          },
          {
            "duration": 0.7062500000000114,
            "durationTicks": 226,
            "midi": 48,
            "name": "C3",
            "ticks": 115440,
            "time": 360.75,
            "velocity": 1
          },
          {
            "duration": 4.21875,
            "durationTicks": 1350,
            "midi": 46,
            "name": "A#2",
            "ticks": 119520,
            "time": 373.5,
            "velocity": 0.7874015748031497
          },
          {
            "duration": 1.4562500000000114,
            "durationTicks": 466,
            "midi": 47,
            "name": "B2",
            "ticks": 120960,
            "time": 378,
            "velocity": 0.7874015748031497
          },
          {
            "duration": 4.21875,
            "durationTicks": 1350,
            "midi": 40,
            "name": "E2",
            "ticks": 122400,
            "time": 382.5,
            "velocity": 0.7480314960629921
          },
          {
            "duration": 1.4562500000000682,
            "durationTicks": 466,
            "midi": 41,
            "name": "F2",
            "ticks": 123840,
            "time": 387,
            "velocity": 0.7480314960629921
          },
          {
            "duration": 12.706250000000068,
            "durationTicks": 4066,
            "midi": 40,
            "name": "E2",
            "ticks": 144000,
            "time": 450,
            "velocity": 0.7086614173228346
          },
          {
            "duration": 2.8125,
            "durationTicks": 900,
            "midi": 50,
            "name": "D3",
            "ticks": 159840,
            "time": 499.5,
            "velocity": 0.7007874015748031
          },
          {
            "duration": 1.40625,
            "durationTicks": 450,
            "midi": 52,
            "name": "E3",
            "ticks": 160800,
            "time": 502.5,
            "velocity": 0.7480314960629921
          },
          {
            "duration": 2.8125,
            "durationTicks": 900,
            "midi": 52,
            "name": "E3",
            "ticks": 161280,
            "time": 504,
            "velocity": 0.7716535433070866
          },
          {
            "duration": 0.7062500000000682,
            "durationTicks": 226,
            "midi": 51,
            "name": "D#3",
            "ticks": 162240,
            "time": 507,
            "velocity": 0.8267716535433071
          },
          {
            "duration": 0.7062500000000682,
            "durationTicks": 226,
            "midi": 52,
            "name": "E3",
            "ticks": 162480,
            "time": 507.75,
            "velocity": 0.8346456692913385
          },
          {
            "duration": 1.40625,
            "durationTicks": 450,
            "midi": 52,
            "name": "E3",
            "ticks": 162720,
            "time": 508.5,
            "velocity": 0.8503937007874016
          },
          {
            "duration": 2.8125,
            "durationTicks": 900,
            "midi": 55,
            "name": "G3",
            "ticks": 163200,
            "time": 510,
            "velocity": 0.8740157480314961
          },
          {
            "duration": 1.40625,
            "durationTicks": 450,
            "midi": 46,
            "name": "A#2",
            "ticks": 164160,
            "time": 513,
            "velocity": 0.8661417322834646
          },
          {
            "duration": 1.40625,
            "durationTicks": 450,
            "midi": 45,
            "name": "A2",
            "ticks": 164640,
            "time": 514.5,
            "velocity": 0.8661417322834646
          },
          {
            "duration": 1.40625,
            "durationTicks": 450,
            "midi": 43,
            "name": "G2",
            "ticks": 165120,
            "time": 516,
            "velocity": 0.8661417322834646
          },
          {
            "duration": 1.40625,
            "durationTicks": 450,
            "midi": 41,
            "name": "F2",
            "ticks": 165600,
            "time": 517.5,
            "velocity": 0.8661417322834646
          },
          {
            "duration": 43.21875,
            "durationTicks": 13830,
            "midi": 40,
            "name": "E2",
            "ticks": 166080,
            "time": 519,
            "velocity": 0.9448818897637795
          },
          {
            "duration": 1.40625,
            "durationTicks": 450,
            "midi": 42,
            "name": "F#2",
            "ticks": 167040,
            "time": 522,
            "velocity": 1
          },
          {
            "duration": 1.40625,
            "durationTicks": 450,
            "midi": 44,
            "name": "G#2",
            "ticks": 167520,
            "time": 523.5,
            "velocity": 1
          },
          {
            "duration": 1.40625,
            "durationTicks": 450,
            "midi": 45,
            "name": "A2",
            "ticks": 168000,
            "time": 525,
            "velocity": 1
          },
          {
            "duration": 1.40625,
            "durationTicks": 450,
            "midi": 46,
            "name": "A#2",
            "ticks": 168480,
            "time": 526.5,
            "velocity": 1
          },
          {
            "duration": 1.40625,
            "durationTicks": 450,
            "midi": 47,
            "name": "B2",
            "ticks": 168960,
            "time": 528,
            "velocity": 1
          },
          {
            "duration": 1.40625,
            "durationTicks": 450,
            "midi": 49,
            "name": "C#3",
            "ticks": 169440,
            "time": 529.5,
            "velocity": 1
          },
          {
            "duration": 1.40625,
            "durationTicks": 450,
            "midi": 50,
            "name": "D3",
            "ticks": 169920,
            "time": 531,
            "velocity": 1
          },
          {
            "duration": 1.40625,
            "durationTicks": 450,
            "midi": 52,
            "name": "E3",
            "ticks": 170400,
            "time": 532.5,
            "velocity": 1
          },
          {
            "duration": 1.40625,
            "durationTicks": 450,
            "midi": 53,
            "name": "F3",
            "ticks": 170880,
            "time": 534,
            "velocity": 1
          },
          {
            "duration": 1.40625,
            "durationTicks": 450,
            "midi": 55,
            "name": "G3",
            "ticks": 171360,
            "time": 535.5,
            "velocity": 1
          },
          {
            "duration": 1.40625,
            "durationTicks": 450,
            "midi": 57,
            "name": "A3",
            "ticks": 171840,
            "time": 537,
            "velocity": 1
          },
          {
            "duration": 1.40625,
            "durationTicks": 450,
            "midi": 58,
            "name": "A#3",
            "ticks": 172320,
            "time": 538.5,
            "velocity": 1
          },
          {
            "duration": 1.40625,
            "durationTicks": 450,
            "midi": 59,
            "name": "B3",
            "ticks": 172800,
            "time": 540,
            "velocity": 1
          },
          {
            "duration": 1.40625,
            "durationTicks": 450,
            "midi": 61,
            "name": "C#4",
            "ticks": 173280,
            "time": 541.5,
            "velocity": 1
          },
          {
            "duration": 1.40625,
            "durationTicks": 450,
            "midi": 62,
            "name": "D4",
            "ticks": 173760,
            "time": 543,
            "velocity": 1
          },
          {
            "duration": 1.40625,
            "durationTicks": 450,
            "midi": 64,
            "name": "E4",
            "ticks": 174240,
            "time": 544.5,
            "velocity": 1
          },
          {
            "duration": 1.40625,
            "durationTicks": 450,
            "midi": 66,
            "name": "F#4",
            "ticks": 174720,
            "time": 546,
            "velocity": 1
          },
          {
            "duration": 1.40625,
            "durationTicks": 450,
            "midi": 67,
            "name": "G4",
            "ticks": 175200,
            "time": 547.5,
            "velocity": 1
          },
          {
            "duration": 1.40625,
            "durationTicks": 450,
            "midi": 68,
            "name": "G#4",
            "ticks": 175680,
            "time": 549,
            "velocity": 1
          },
          {
            "duration": 1.40625,
            "durationTicks": 450,
            "midi": 70,
            "name": "A#4",
            "ticks": 176160,
            "time": 550.5,
            "velocity": 1
          },
          {
            "duration": 1.40625,
            "durationTicks": 450,
            "midi": 71,
            "name": "B4",
            "ticks": 176640,
            "time": 552,
            "velocity": 1
          },
          {
            "duration": 8.71875,
            "durationTicks": 2790,
            "midi": 47,
            "name": "B2",
            "ticks": 177120,
            "time": 553.5,
            "velocity": 0.9448818897637795
          },
          {
            "duration": 4.21875,
            "durationTicks": 1350,
            "midi": 41,
            "name": "F2",
            "ticks": 180000,
            "time": 562.5,
            "velocity": 0.9448818897637795
          },
          {
            "duration": 4.21875,
            "durationTicks": 1350,
            "midi": 47,
            "name": "B2",
            "ticks": 180000,
            "time": 562.5,
            "velocity": 0.9448818897637795
          },
          {
            "duration": 0.7062500000000682,
            "durationTicks": 226,
            "midi": 42,
            "name": "F#2",
            "ticks": 181440,
            "time": 567,
            "velocity": 1
          },
          {
            "duration": 0.2375000000000682,
            "durationTicks": 76,
            "midi": 52,
            "name": "E3",
            "ticks": 182400,
            "time": 570,
            "velocity": 1
          },
          {
            "duration": 0.23749999999995453,
            "durationTicks": 76,
            "midi": 53,
            "name": "F3",
            "ticks": 182480,
            "time": 570.25,
            "velocity": 1
          },
          {
            "duration": 0.23749999999995453,
            "durationTicks": 76,
            "midi": 54,
            "name": "F#3",
            "ticks": 182560,
            "time": 570.5,
            "velocity": 1
          },
          {
            "duration": 0.18124999999997726,
            "durationTicks": 58,
            "midi": 56,
            "name": "G#3",
            "ticks": 182640,
            "time": 570.75,
            "velocity": 1
          },
          {
            "duration": 0.18124999999997726,
            "durationTicks": 58,
            "midi": 58,
            "name": "A#3",
            "ticks": 182700,
            "time": 570.9375,
            "velocity": 1
          },
          {
            "duration": 0.18124999999997726,
            "durationTicks": 58,
            "midi": 59,
            "name": "B3",
            "ticks": 182760,
            "time": 571.125,
            "velocity": 1
          },
          {
            "duration": 0.18124999999997726,
            "durationTicks": 58,
            "midi": 61,
            "name": "C#4",
            "ticks": 182820,
            "time": 571.3125,
            "velocity": 1
          },
          {
            "duration": 1.40625,
            "durationTicks": 450,
            "midi": 62,
            "name": "D4",
            "ticks": 182880,
            "time": 571.5,
            "velocity": 1
          },
          {
            "duration": 0.7062500000000682,
            "durationTicks": 226,
            "midi": 61,
            "name": "C#4",
            "ticks": 183360,
            "time": 573,
            "velocity": 1
          },
          {
            "duration": 0.7062500000000682,
            "durationTicks": 226,
            "midi": 59,
            "name": "B3",
            "ticks": 183600,
            "time": 573.75,
            "velocity": 1
          },
          {
            "duration": 0.7062500000000682,
            "durationTicks": 226,
            "midi": 58,
            "name": "A#3",
            "ticks": 183840,
            "time": 574.5,
            "velocity": 1
          },
          {
            "duration": 0.7062500000000682,
            "durationTicks": 226,
            "midi": 56,
            "name": "G#3",
            "ticks": 184080,
            "time": 575.25,
            "velocity": 1
          },
          {
            "duration": 1.40625,
            "durationTicks": 450,
            "midi": 58,
            "name": "A#3",
            "ticks": 184320,
            "time": 576,
            "velocity": 1
          },
          {
            "duration": 0.2375000000000682,
            "durationTicks": 76,
            "midi": 52,
            "name": "E3",
            "ticks": 185280,
            "time": 579,
            "velocity": 1
          },
          {
            "duration": 0.23749999999995453,
            "durationTicks": 76,
            "midi": 53,
            "name": "F3",
            "ticks": 185360,
            "time": 579.25,
            "velocity": 1
          },
          {
            "duration": 0.23749999999995453,
            "durationTicks": 76,
            "midi": 54,
            "name": "F#3",
            "ticks": 185440,
            "time": 579.5,
            "velocity": 1
          },
          {
            "duration": 0.18124999999997726,
            "durationTicks": 58,
            "midi": 56,
            "name": "G#3",
            "ticks": 185520,
            "time": 579.75,
            "velocity": 1
          },
          {
            "duration": 0.18124999999997726,
            "durationTicks": 58,
            "midi": 58,
            "name": "A#3",
            "ticks": 185580,
            "time": 579.9375,
            "velocity": 1
          },
          {
            "duration": 0.18124999999997726,
            "durationTicks": 58,
            "midi": 59,
            "name": "B3",
            "ticks": 185640,
            "time": 580.125,
            "velocity": 1
          },
          {
            "duration": 0.18124999999997726,
            "durationTicks": 58,
            "midi": 61,
            "name": "C#4",
            "ticks": 185700,
            "time": 580.3125,
            "velocity": 1
          },
          {
            "duration": 1.40625,
            "durationTicks": 450,
            "midi": 62,
            "name": "D4",
            "ticks": 185760,
            "time": 580.5,
            "velocity": 1
          },
          {
            "duration": 0.7062500000000682,
            "durationTicks": 226,
            "midi": 61,
            "name": "C#4",
            "ticks": 186240,
            "time": 582,
            "velocity": 1
          },
          {
            "duration": 0.7062500000000682,
            "durationTicks": 226,
            "midi": 59,
            "name": "B3",
            "ticks": 186480,
            "time": 582.75,
            "velocity": 1
          },
          {
            "duration": 0.7062500000000682,
            "durationTicks": 226,
            "midi": 58,
            "name": "A#3",
            "ticks": 186720,
            "time": 583.5,
            "velocity": 1
          },
          {
            "duration": 0.7062500000000682,
            "durationTicks": 226,
            "midi": 56,
            "name": "G#3",
            "ticks": 186960,
            "time": 584.25,
            "velocity": 1
          },
          {
            "duration": 1.40625,
            "durationTicks": 450,
            "midi": 58,
            "name": "A#3",
            "ticks": 187200,
            "time": 585,
            "velocity": 1
          },
          {
            "duration": 0.2375000000000682,
            "durationTicks": 76,
            "midi": 44,
            "name": "G#2",
            "ticks": 188160,
            "time": 588,
            "velocity": 1
          },
          {
            "duration": 0.2375000000000682,
            "durationTicks": 76,
            "midi": 50,
            "name": "D3",
            "ticks": 188160,
            "time": 588,
            "velocity": 1
          },
          {
            "duration": 0.23749999999995453,
            "durationTicks": 76,
            "midi": 46,
            "name": "A#2",
            "ticks": 188240,
            "time": 588.25,
            "velocity": 1
          },
          {
            "duration": 0.23749999999995453,
            "durationTicks": 76,
            "midi": 52,
            "name": "E3",
            "ticks": 188240,
            "time": 588.25,
            "velocity": 1
          },
          {
            "duration": 0.23749999999995453,
            "durationTicks": 76,
            "midi": 47,
            "name": "B2",
            "ticks": 188320,
            "time": 588.5,
            "velocity": 1
          },
          {
            "duration": 0.23749999999995453,
            "durationTicks": 76,
            "midi": 53,
            "name": "F3",
            "ticks": 188320,
            "time": 588.5,
            "velocity": 1
          },
          {
            "duration": 0.18124999999997726,
            "durationTicks": 58,
            "midi": 49,
            "name": "C#3",
            "ticks": 188400,
            "time": 588.75,
            "velocity": 1
          },
          {
            "duration": 0.18124999999997726,
            "durationTicks": 58,
            "midi": 55,
            "name": "G3",
            "ticks": 188400,
            "time": 588.75,
            "velocity": 1
          },
          {
            "duration": 0.18124999999997726,
            "durationTicks": 58,
            "midi": 50,
            "name": "D3",
            "ticks": 188460,
            "time": 588.9375,
            "velocity": 1
          },
          {
            "duration": 0.18124999999997726,
            "durationTicks": 58,
            "midi": 56,
            "name": "G#3",
            "ticks": 188460,
            "time": 588.9375,
            "velocity": 1
          },
          {
            "duration": 0.18124999999997726,
            "durationTicks": 58,
            "midi": 52,
            "name": "E3",
            "ticks": 188520,
            "time": 589.125,
            "velocity": 1
          },
          {
            "duration": 0.18124999999997726,
            "durationTicks": 58,
            "midi": 58,
            "name": "A#3",
            "ticks": 188520,
            "time": 589.125,
            "velocity": 1
          },
          {
            "duration": 0.18124999999997726,
            "durationTicks": 58,
            "midi": 54,
            "name": "F#3",
            "ticks": 188580,
            "time": 589.3125,
            "velocity": 1
          },
          {
            "duration": 0.18124999999997726,
            "durationTicks": 58,
            "midi": 60,
            "name": "C4",
            "ticks": 188580,
            "time": 589.3125,
            "velocity": 1
          },
          {
            "duration": 1.40625,
            "durationTicks": 450,
            "midi": 55,
            "name": "G3",
            "ticks": 188640,
            "time": 589.5,
            "velocity": 1
          },
          {
            "duration": 1.40625,
            "durationTicks": 450,
            "midi": 61,
            "name": "C#4",
            "ticks": 188640,
            "time": 589.5,
            "velocity": 1
          },
          {
            "duration": 0.7062500000000682,
            "durationTicks": 226,
            "midi": 54,
            "name": "F#3",
            "ticks": 189120,
            "time": 591,
            "velocity": 1
          },
          {
            "duration": 0.7062500000000682,
            "durationTicks": 226,
            "midi": 60,
            "name": "C4",
            "ticks": 189120,
            "time": 591,
            "velocity": 1
          },
          {
            "duration": 0.7062500000000682,
            "durationTicks": 226,
            "midi": 52,
            "name": "E3",
            "ticks": 189360,
            "time": 591.75,
            "velocity": 1
          },
          {
            "duration": 0.7062500000000682,
            "durationTicks": 226,
            "midi": 58,
            "name": "A#3",
            "ticks": 189360,
            "time": 591.75,
            "velocity": 1
          },
          {
            "duration": 0.7062500000000682,
            "durationTicks": 226,
            "midi": 50,
            "name": "D3",
            "ticks": 189600,
            "time": 592.5,
            "velocity": 1
          },
          {
            "duration": 0.7062500000000682,
            "durationTicks": 226,
            "midi": 56,
            "name": "G#3",
            "ticks": 189600,
            "time": 592.5,
            "velocity": 1
          },
          {
            "duration": 0.7062500000000682,
            "durationTicks": 226,
            "midi": 49,
            "name": "C#3",
            "ticks": 189840,
            "time": 593.25,
            "velocity": 1
          },
          {
            "duration": 0.7062500000000682,
            "durationTicks": 226,
            "midi": 55,
            "name": "G3",
            "ticks": 189840,
            "time": 593.25,
            "velocity": 1
          },
          {
            "duration": 0.7062500000000682,
            "durationTicks": 226,
            "midi": 47,
            "name": "B2",
            "ticks": 190080,
            "time": 594,
            "velocity": 1
          },
          {
            "duration": 1.4562500000000682,
            "durationTicks": 466,
            "midi": 52,
            "name": "E3",
            "ticks": 190080,
            "time": 594,
            "velocity": 1
          },
          {
            "duration": 0.7062500000000682,
            "durationTicks": 226,
            "midi": 46,
            "name": "A#2",
            "ticks": 190320,
            "time": 594.75,
            "velocity": 1
          },
          {
            "duration": 0.2375000000000682,
            "durationTicks": 76,
            "midi": 44,
            "name": "G#2",
            "ticks": 191040,
            "time": 597,
            "velocity": 1
          },
          {
            "duration": 0.2375000000000682,
            "durationTicks": 76,
            "midi": 50,
            "name": "D3",
            "ticks": 191040,
            "time": 597,
            "velocity": 1
          },
          {
            "duration": 0.23749999999995453,
            "durationTicks": 76,
            "midi": 46,
            "name": "A#2",
            "ticks": 191120,
            "time": 597.25,
            "velocity": 1
          },
          {
            "duration": 0.23749999999995453,
            "durationTicks": 76,
            "midi": 52,
            "name": "E3",
            "ticks": 191120,
            "time": 597.25,
            "velocity": 1
          },
          {
            "duration": 0.23749999999995453,
            "durationTicks": 76,
            "midi": 47,
            "name": "B2",
            "ticks": 191200,
            "time": 597.5,
            "velocity": 1
          },
          {
            "duration": 0.23749999999995453,
            "durationTicks": 76,
            "midi": 53,
            "name": "F3",
            "ticks": 191200,
            "time": 597.5,
            "velocity": 1
          },
          {
            "duration": 0.18124999999997726,
            "durationTicks": 58,
            "midi": 49,
            "name": "C#3",
            "ticks": 191280,
            "time": 597.75,
            "velocity": 1
          },
          {
            "duration": 0.18124999999997726,
            "durationTicks": 58,
            "midi": 55,
            "name": "G3",
            "ticks": 191280,
            "time": 597.75,
            "velocity": 1
          },
          {
            "duration": 0.18124999999997726,
            "durationTicks": 58,
            "midi": 50,
            "name": "D3",
            "ticks": 191340,
            "time": 597.9375,
            "velocity": 1
          },
          {
            "duration": 0.18124999999997726,
            "durationTicks": 58,
            "midi": 56,
            "name": "G#3",
            "ticks": 191340,
            "time": 597.9375,
            "velocity": 1
          },
          {
            "duration": 0.18124999999997726,
            "durationTicks": 58,
            "midi": 52,
            "name": "E3",
            "ticks": 191400,
            "time": 598.125,
            "velocity": 1
          },
          {
            "duration": 0.18124999999997726,
            "durationTicks": 58,
            "midi": 58,
            "name": "A#3",
            "ticks": 191400,
            "time": 598.125,
            "velocity": 1
          },
          {
            "duration": 0.18124999999997726,
            "durationTicks": 58,
            "midi": 54,
            "name": "F#3",
            "ticks": 191460,
            "time": 598.3125,
            "velocity": 1
          },
          {
            "duration": 0.18124999999997726,
            "durationTicks": 58,
            "midi": 60,
            "name": "C4",
            "ticks": 191460,
            "time": 598.3125,
            "velocity": 1
          },
          {
            "duration": 1.40625,
            "durationTicks": 450,
            "midi": 55,
            "name": "G3",
            "ticks": 191520,
            "time": 598.5,
            "velocity": 1
          },
          {
            "duration": 1.40625,
            "durationTicks": 450,
            "midi": 61,
            "name": "C#4",
            "ticks": 191520,
            "time": 598.5,
            "velocity": 1
          },
          {
            "duration": 0.7062500000000682,
            "durationTicks": 226,
            "midi": 54,
            "name": "F#3",
            "ticks": 192000,
            "time": 600,
            "velocity": 1
          },
          {
            "duration": 0.7062500000000682,
            "durationTicks": 226,
            "midi": 60,
            "name": "C4",
            "ticks": 192000,
            "time": 600,
            "velocity": 1
          },
          {
            "duration": 0.7062500000000682,
            "durationTicks": 226,
            "midi": 52,
            "name": "E3",
            "ticks": 192240,
            "time": 600.75,
            "velocity": 1
          },
          {
            "duration": 0.7062500000000682,
            "durationTicks": 226,
            "midi": 58,
            "name": "A#3",
            "ticks": 192240,
            "time": 600.75,
            "velocity": 1
          },
          {
            "duration": 0.7062500000000682,
            "durationTicks": 226,
            "midi": 50,
            "name": "D3",
            "ticks": 192480,
            "time": 601.5,
            "velocity": 1
          },
          {
            "duration": 0.7062500000000682,
            "durationTicks": 226,
            "midi": 56,
            "name": "G#3",
            "ticks": 192480,
            "time": 601.5,
            "velocity": 1
          },
          {
            "duration": 0.7062500000000682,
            "durationTicks": 226,
            "midi": 49,
            "name": "C#3",
            "ticks": 192720,
            "time": 602.25,
            "velocity": 1
          },
          {
            "duration": 0.7062500000000682,
            "durationTicks": 226,
            "midi": 55,
            "name": "G3",
            "ticks": 192720,
            "time": 602.25,
            "velocity": 1
          },
          {
            "duration": 0.7062500000000682,
            "durationTicks": 226,
            "midi": 47,
            "name": "B2",
            "ticks": 192960,
            "time": 603,
            "velocity": 1
          },
          {
            "duration": 1.4562500000000682,
            "durationTicks": 466,
            "midi": 52,
            "name": "E3",
            "ticks": 192960,
            "time": 603,
            "velocity": 1
          },
          {
            "duration": 0.7062500000000682,
            "durationTicks": 226,
            "midi": 46,
            "name": "A#2",
            "ticks": 193200,
            "time": 603.75,
            "velocity": 0.9763779527559056
          },
          {
            "duration": 0.7062500000000682,
            "durationTicks": 226,
            "midi": 50,
            "name": "D3",
            "ticks": 194400,
            "time": 607.5,
            "velocity": 0.8661417322834646
          },
          {
            "duration": 1.4562500000000682,
            "durationTicks": 466,
            "midi": 55,
            "name": "G3",
            "ticks": 194400,
            "time": 607.5,
            "velocity": 0.8661417322834646
          },
          {
            "duration": 0.7062500000000682,
            "durationTicks": 226,
            "midi": 49,
            "name": "C#3",
            "ticks": 194640,
            "time": 608.25,
            "velocity": 0.84251968503937
          },
          {
            "duration": 0.7062500000000682,
            "durationTicks": 226,
            "midi": 55,
            "name": "G3",
            "ticks": 195840,
            "time": 612,
            "velocity": 0.7244094488188977
          },
          {
            "duration": 0.7062500000000682,
            "durationTicks": 226,
            "midi": 61,
            "name": "C#4",
            "ticks": 195840,
            "time": 612,
            "velocity": 0.7244094488188977
          },
          {
            "duration": 0.7062500000000682,
            "durationTicks": 226,
            "midi": 54,
            "name": "F#3",
            "ticks": 196080,
            "time": 612.75,
            "velocity": 0.7007874015748031
          },
          {
            "duration": 0.7062500000000682,
            "durationTicks": 226,
            "midi": 62,
            "name": "D4",
            "ticks": 196080,
            "time": 612.75,
            "velocity": 0.7007874015748031
          },
          {
            "duration": 1.40625,
            "durationTicks": 450,
            "midi": 59,
            "name": "B3",
            "ticks": 212640,
            "time": 664.5,
            "velocity": 0.47244094488188976
          },
          {
            "duration": 1.40625,
            "durationTicks": 450,
            "midi": 62,
            "name": "D4",
            "ticks": 212640,
            "time": 664.5,
            "velocity": 0.47244094488188976
          },
          {
            "duration": 2.8125,
            "durationTicks": 900,
            "midi": 60,
            "name": "C4",
            "ticks": 213120,
            "time": 666,
            "velocity": 0.47244094488188976
          },
          {
            "duration": 2.8125,
            "durationTicks": 900,
            "midi": 64,
            "name": "E4",
            "ticks": 213120,
            "time": 666,
            "velocity": 0.47244094488188976
          },
          {
            "duration": 1.40625,
            "durationTicks": 450,
            "midi": 61,
            "name": "C#4",
            "ticks": 214080,
            "time": 669,
            "velocity": 0.47244094488188976
          },
          {
            "duration": 1.40625,
            "durationTicks": 450,
            "midi": 64,
            "name": "E4",
            "ticks": 214080,
            "time": 669,
            "velocity": 0.47244094488188976
          },
          {
            "duration": 2.8125,
            "durationTicks": 900,
            "midi": 62,
            "name": "D4",
            "ticks": 214560,
            "time": 670.5,
            "velocity": 0.47244094488188976
          },
          {
            "duration": 2.8125,
            "durationTicks": 900,
            "midi": 66,
            "name": "F#4",
            "ticks": 214560,
            "time": 670.5,
            "velocity": 0.47244094488188976
          },
          {
            "duration": 1.40625,
            "durationTicks": 450,
            "midi": 59,
            "name": "B3",
            "ticks": 215520,
            "time": 673.5,
            "velocity": 0.47244094488188976
          },
          {
            "duration": 1.40625,
            "durationTicks": 450,
            "midi": 62,
            "name": "D4",
            "ticks": 215520,
            "time": 673.5,
            "velocity": 0.47244094488188976
          },
          {
            "duration": 2.8125,
            "durationTicks": 900,
            "midi": 60,
            "name": "C4",
            "ticks": 216000,
            "time": 675,
            "velocity": 0.47244094488188976
          },
          {
            "duration": 2.8125,
            "durationTicks": 900,
            "midi": 64,
            "name": "E4",
            "ticks": 216000,
            "time": 675,
            "velocity": 0.47244094488188976
          },
          {
            "duration": 1.40625,
            "durationTicks": 450,
            "midi": 61,
            "name": "C#4",
            "ticks": 216960,
            "time": 678,
            "velocity": 0.47244094488188976
          },
          {
            "duration": 1.40625,
            "durationTicks": 450,
            "midi": 64,
            "name": "E4",
            "ticks": 216960,
            "time": 678,
            "velocity": 0.47244094488188976
          },
          {
            "duration": 3.4500000000000455,
            "durationTicks": 1104,
            "midi": 62,
            "name": "D4",
            "ticks": 217440,
            "time": 679.5,
            "velocity": 0.47244094488188976
          },
          {
            "duration": 2.206250000000068,
            "durationTicks": 706,
            "midi": 66,
            "name": "F#4",
            "ticks": 217440,
            "time": 679.5,
            "velocity": 0.47244094488188976
          },
          {
            "duration": 2.8125,
            "durationTicks": 900,
            "midi": 49,
            "name": "C#3",
            "ticks": 218880,
            "time": 684,
            "velocity": 0.47244094488188976
          },
          {
            "duration": 1.40625,
            "durationTicks": 450,
            "midi": 50,
            "name": "D3",
            "ticks": 219840,
            "time": 687,
            "velocity": 0.47244094488188976
          },
          {
            "duration": 2.8125,
            "durationTicks": 900,
            "midi": 55,
            "name": "G3",
            "ticks": 220320,
            "time": 688.5,
            "velocity": 0.47244094488188976
          },
          {
            "duration": 1.40625,
            "durationTicks": 450,
            "midi": 54,
            "name": "F#3",
            "ticks": 221280,
            "time": 691.5,
            "velocity": 0.47244094488188976
          },
          {
            "duration": 4.40625,
            "durationTicks": 1410,
            "midi": 52,
            "name": "E3",
            "ticks": 221760,
            "time": 693,
            "velocity": 0.47244094488188976
          },
          {
            "duration": 4.40625,
            "durationTicks": 1410,
            "midi": 55,
            "name": "G3",
            "ticks": 221760,
            "time": 693,
            "velocity": 0.47244094488188976
          },
          {
            "duration": 2.206250000000068,
            "durationTicks": 706,
            "midi": 54,
            "name": "F#3",
            "ticks": 223200,
            "time": 697.5,
            "velocity": 0.47244094488188976
          },
          {
            "duration": 1.40625,
            "durationTicks": 450,
            "midi": 47,
            "name": "B2",
            "ticks": 224160,
            "time": 700.5,
            "velocity": 0.5905511811023622
          },
          {
            "duration": 2.8125,
            "durationTicks": 900,
            "midi": 40,
            "name": "E2",
            "ticks": 224640,
            "time": 702,
            "velocity": 0.47244094488188976
          },
          {
            "duration": 1.40625,
            "durationTicks": 450,
            "midi": 43,
            "name": "G2",
            "ticks": 225600,
            "time": 705,
            "velocity": 0.47244094488188976
          },
          {
            "duration": 2.8125,
            "durationTicks": 900,
            "midi": 38,
            "name": "D2",
            "ticks": 226080,
            "time": 706.5,
            "velocity": 0.47244094488188976
          },
          {
            "duration": 1.40625,
            "durationTicks": 450,
            "midi": 47,
            "name": "B2",
            "ticks": 227040,
            "time": 709.5,
            "velocity": 0.47244094488188976
          },
          {
            "duration": 2.8125,
            "durationTicks": 900,
            "midi": 40,
            "name": "E2",
            "ticks": 227520,
            "time": 711,
            "velocity": 0.47244094488188976
          },
          {
            "duration": 1.40625,
            "durationTicks": 450,
            "midi": 43,
            "name": "G2",
            "ticks": 228480,
            "time": 714,
            "velocity": 0.47244094488188976
          },
          {
            "duration": 4.40625,
            "durationTicks": 1410,
            "midi": 38,
            "name": "D2",
            "ticks": 228960,
            "time": 715.5,
            "velocity": 0.5511811023622047
          },
          {
            "duration": 2.8125,
            "durationTicks": 900,
            "midi": 37,
            "name": "C#2",
            "ticks": 230400,
            "time": 720,
            "velocity": 0.5196850393700787
          },
          {
            "duration": 1.40625,
            "durationTicks": 450,
            "midi": 38,
            "name": "D2",
            "ticks": 231360,
            "time": 723,
            "velocity": 0.49606299212598426
          },
          {
            "duration": 2.8125,
            "durationTicks": 900,
            "midi": 43,
            "name": "G2",
            "ticks": 231840,
            "time": 724.5,
            "velocity": 0.4881889763779528
          },
          {
            "duration": 1.40625,
            "durationTicks": 450,
            "midi": 42,
            "name": "F#2",
            "ticks": 232800,
            "time": 727.5,
            "velocity": 0.4645669291338583
          },
          {
            "duration": 4.40625,
            "durationTicks": 1410,
            "midi": 43,
            "name": "G2",
            "ticks": 233280,
            "time": 729,
            "velocity": 0.44881889763779526
          },
          {
            "duration": 2.206250000000068,
            "durationTicks": 706,
            "midi": 42,
            "name": "F#2",
            "ticks": 234720,
            "time": 733.5,
            "velocity": 0.41732283464566927
          }
        ]
      },
      {
        "channel": 0,
        "controlChanges": {},
        "pitchBends": [],
        "instrument": {
          "family": "piano",
          "number": 0,
          "name": "acoustic grand piano"
        },
        "name": "Horns",
        "notes": [],
        "endOfTrackTicks": 224640
      },
      {
        "channel": 4,
        "controlChanges": {
          "7": [
            {
              "number": 7,
              "ticks": 0,
              "time": 0,
              "value": 1
            }
          ],
          "10": [
            {
              "number": 10,
              "ticks": 0,
              "time": 0,
              "value": 0.5039370078740157
            }
          ]
        },
        "pitchBends": [],
        "instrument": {
          "family": "brass",
          "number": 60,
          "name": "french horn"
        },
        "name": "",
        "notes": [
          {
            "duration": 4.21875,
            "durationTicks": 1350,
            "midi": 52,
            "name": "E3",
            "ticks": 38880,
            "time": 121.5,
            "velocity": 0.4330708661417323
          },
          {
            "duration": 3.6000000000000227,
            "durationTicks": 1152,
            "midi": 47,
            "name": "B2",
            "ticks": 40320,
            "time": 126,
            "velocity": 0.3937007874015748
          },
          {
            "duration": 8.100000000000023,
            "durationTicks": 2592,
            "midi": 47,
            "name": "B2",
            "ticks": 41760,
            "time": 130.5,
            "velocity": 0.4330708661417323
          },
          {
            "duration": 11.90625,
            "durationTicks": 3810,
            "midi": 47,
            "name": "B2",
            "ticks": 45600,
            "time": 142.5,
            "velocity": 0.5905511811023622
          },
          {
            "duration": 1.40625,
            "durationTicks": 450,
            "midi": 46,
            "name": "A#2",
            "ticks": 49440,
            "time": 154.5,
            "velocity": 0.5275590551181102
          },
          {
            "duration": 5.100000000000023,
            "durationTicks": 1632,
            "midi": 45,
            "name": "A2",
            "ticks": 49920,
            "time": 156,
            "velocity": 0.5275590551181102
          },
          {
            "duration": 0.46875,
            "durationTicks": 150,
            "midi": 45,
            "name": "A2",
            "ticks": 52000,
            "time": 162.5,
            "velocity": 0.3700787401574803
          },
          {
            "duration": 0.46875,
            "durationTicks": 150,
            "midi": 57,
            "name": "A3",
            "ticks": 52000,
            "time": 162.5,
            "velocity": 0.3700787401574803
          },
          {
            "duration": 0.96875,
            "durationTicks": 310,
            "midi": 45,
            "name": "A2",
            "ticks": 52160,
            "time": 163,
            "velocity": 0.3700787401574803
          },
          {
            "duration": 0.96875,
            "durationTicks": 310,
            "midi": 57,
            "name": "A3",
            "ticks": 52160,
            "time": 163,
            "velocity": 0.3700787401574803
          },
          {
            "duration": 0.46875,
            "durationTicks": 150,
            "midi": 45,
            "name": "A2",
            "ticks": 52480,
            "time": 164,
            "velocity": 0.3700787401574803
          },
          {
            "duration": 0.46875,
            "durationTicks": 150,
            "midi": 57,
            "name": "A3",
            "ticks": 52480,
            "time": 164,
            "velocity": 0.3700787401574803
          },
          {
            "duration": 0.96875,
            "durationTicks": 310,
            "midi": 45,
            "name": "A2",
            "ticks": 52640,
            "time": 164.5,
            "velocity": 0.3700787401574803
          },
          {
            "duration": 0.96875,
            "durationTicks": 310,
            "midi": 57,
            "name": "A3",
            "ticks": 52640,
            "time": 164.5,
            "velocity": 0.3700787401574803
          },
          {
            "duration": 0.46875,
            "durationTicks": 150,
            "midi": 45,
            "name": "A2",
            "ticks": 52960,
            "time": 165.5,
            "velocity": 0.3700787401574803
          },
          {
            "duration": 0.46875,
            "durationTicks": 150,
            "midi": 57,
            "name": "A3",
            "ticks": 52960,
            "time": 165.5,
            "velocity": 0.3700787401574803
          },
          {
            "duration": 0.96875,
            "durationTicks": 310,
            "midi": 45,
            "name": "A2",
            "ticks": 53120,
            "time": 166,
            "velocity": 0.3700787401574803
          },
          {
            "duration": 0.96875,
            "durationTicks": 310,
            "midi": 57,
            "name": "A3",
            "ticks": 53120,
            "time": 166,
            "velocity": 0.3700787401574803
          },
          {
            "duration": 0.46875,
            "durationTicks": 150,
            "midi": 45,
            "name": "A2",
            "ticks": 53440,
            "time": 167,
            "velocity": 0.3700787401574803
          },
          {
            "duration": 0.46875,
            "durationTicks": 150,
            "midi": 57,
            "name": "A3",
            "ticks": 53440,
            "time": 167,
            "velocity": 0.3700787401574803
          },
          {
            "duration": 0.96875,
            "durationTicks": 310,
            "midi": 45,
            "name": "A2",
            "ticks": 53600,
            "time": 167.5,
            "velocity": 0.3700787401574803
          },
          {
            "duration": 0.96875,
            "durationTicks": 310,
            "midi": 57,
            "name": "A3",
            "ticks": 53600,
            "time": 167.5,
            "velocity": 0.3700787401574803
          },
          {
            "duration": 0.46875,
            "durationTicks": 150,
            "midi": 45,
            "name": "A2",
            "ticks": 53920,
            "time": 168.5,
            "velocity": 0.3700787401574803
          },
          {
            "duration": 0.46875,
            "durationTicks": 150,
            "midi": 57,
            "name": "A3",
            "ticks": 53920,
            "time": 168.5,
            "velocity": 0.3700787401574803
          },
          {
            "duration": 0.96875,
            "durationTicks": 310,
            "midi": 45,
            "name": "A2",
            "ticks": 54080,
            "time": 169,
            "velocity": 0.3700787401574803
          },
          {
            "duration": 0.96875,
            "durationTicks": 310,
            "midi": 57,
            "name": "A3",
            "ticks": 54080,
            "time": 169,
            "velocity": 0.3700787401574803
          },
          {
            "duration": 0.46875,
            "durationTicks": 150,
            "midi": 45,
            "name": "A2",
            "ticks": 54400,
            "time": 170,
            "velocity": 0.3700787401574803
          },
          {
            "duration": 0.46875,
            "durationTicks": 150,
            "midi": 57,
            "name": "A3",
            "ticks": 54400,
            "time": 170,
            "velocity": 0.3700787401574803
          },
          {
            "duration": 0.96875,
            "durationTicks": 310,
            "midi": 45,
            "name": "A2",
            "ticks": 54560,
            "time": 170.5,
            "velocity": 0.3700787401574803
          },
          {
            "duration": 0.96875,
            "durationTicks": 310,
            "midi": 57,
            "name": "A3",
            "ticks": 54560,
            "time": 170.5,
            "velocity": 0.3700787401574803
          },
          {
            "duration": 0.46875,
            "durationTicks": 150,
            "midi": 45,
            "name": "A2",
            "ticks": 54880,
            "time": 171.5,
            "velocity": 0.3700787401574803
          },
          {
            "duration": 0.46875,
            "durationTicks": 150,
            "midi": 57,
            "name": "A3",
            "ticks": 54880,
            "time": 171.5,
            "velocity": 0.3700787401574803
          },
          {
            "duration": 0.96875,
            "durationTicks": 310,
            "midi": 45,
            "name": "A2",
            "ticks": 55040,
            "time": 172,
            "velocity": 0.3700787401574803
          },
          {
            "duration": 0.96875,
            "durationTicks": 310,
            "midi": 57,
            "name": "A3",
            "ticks": 55040,
            "time": 172,
            "velocity": 0.3700787401574803
          },
          {
            "duration": 0.46875,
            "durationTicks": 150,
            "midi": 45,
            "name": "A2",
            "ticks": 55360,
            "time": 173,
            "velocity": 0.3700787401574803
          },
          {
            "duration": 0.46875,
            "durationTicks": 150,
            "midi": 57,
            "name": "A3",
            "ticks": 55360,
            "time": 173,
            "velocity": 0.3700787401574803
          },
          {
            "duration": 0.96875,
            "durationTicks": 310,
            "midi": 45,
            "name": "A2",
            "ticks": 55520,
            "time": 173.5,
            "velocity": 0.3700787401574803
          },
          {
            "duration": 0.96875,
            "durationTicks": 310,
            "midi": 57,
            "name": "A3",
            "ticks": 55520,
            "time": 173.5,
            "velocity": 0.3700787401574803
          },
          {
            "duration": 0.46875,
            "durationTicks": 150,
            "midi": 45,
            "name": "A2",
            "ticks": 55840,
            "time": 174.5,
            "velocity": 0.3700787401574803
          },
          {
            "duration": 0.46875,
            "durationTicks": 150,
            "midi": 57,
            "name": "A3",
            "ticks": 55840,
            "time": 174.5,
            "velocity": 0.3700787401574803
          },
          {
            "duration": 0.96875,
            "durationTicks": 310,
            "midi": 45,
            "name": "A2",
            "ticks": 56000,
            "time": 175,
            "velocity": 0.3700787401574803
          },
          {
            "duration": 0.96875,
            "durationTicks": 310,
            "midi": 57,
            "name": "A3",
            "ticks": 56000,
            "time": 175,
            "velocity": 0.3700787401574803
          },
          {
            "duration": 0.46875,
            "durationTicks": 150,
            "midi": 45,
            "name": "A2",
            "ticks": 56320,
            "time": 176,
            "velocity": 0.3700787401574803
          },
          {
            "duration": 0.46875,
            "durationTicks": 150,
            "midi": 57,
            "name": "A3",
            "ticks": 56320,
            "time": 176,
            "velocity": 0.3700787401574803
          },
          {
            "duration": 0.96875,
            "durationTicks": 310,
            "midi": 45,
            "name": "A2",
            "ticks": 56480,
            "time": 176.5,
            "velocity": 0.3700787401574803
          },
          {
            "duration": 0.96875,
            "durationTicks": 310,
            "midi": 57,
            "name": "A3",
            "ticks": 56480,
            "time": 176.5,
            "velocity": 0.3700787401574803
          },
          {
            "duration": 0.46875,
            "durationTicks": 150,
            "midi": 45,
            "name": "A2",
            "ticks": 56800,
            "time": 177.5,
            "velocity": 0.3700787401574803
          },
          {
            "duration": 0.46875,
            "durationTicks": 150,
            "midi": 57,
            "name": "A3",
            "ticks": 56800,
            "time": 177.5,
            "velocity": 0.3700787401574803
          },
          {
            "duration": 0.96875,
            "durationTicks": 310,
            "midi": 45,
            "name": "A2",
            "ticks": 56960,
            "time": 178,
            "velocity": 0.3700787401574803
          },
          {
            "duration": 0.96875,
            "durationTicks": 310,
            "midi": 57,
            "name": "A3",
            "ticks": 56960,
            "time": 178,
            "velocity": 0.3700787401574803
          },
          {
            "duration": 0.46875,
            "durationTicks": 150,
            "midi": 45,
            "name": "A2",
            "ticks": 57280,
            "time": 179,
            "velocity": 0.3700787401574803
          },
          {
            "duration": 0.46875,
            "durationTicks": 150,
            "midi": 57,
            "name": "A3",
            "ticks": 57280,
            "time": 179,
            "velocity": 0.3700787401574803
          },
          {
            "duration": 0.96875,
            "durationTicks": 310,
            "midi": 45,
            "name": "A2",
            "ticks": 57440,
            "time": 179.5,
            "velocity": 0.3700787401574803
          },
          {
            "duration": 0.96875,
            "durationTicks": 310,
            "midi": 57,
            "name": "A3",
            "ticks": 57440,
            "time": 179.5,
            "velocity": 0.3700787401574803
          },
          {
            "duration": 0.46875,
            "durationTicks": 150,
            "midi": 45,
            "name": "A2",
            "ticks": 57760,
            "time": 180.5,
            "velocity": 0.3700787401574803
          },
          {
            "duration": 0.46875,
            "durationTicks": 150,
            "midi": 57,
            "name": "A3",
            "ticks": 57760,
            "time": 180.5,
            "velocity": 0.3700787401574803
          },
          {
            "duration": 0.96875,
            "durationTicks": 310,
            "midi": 45,
            "name": "A2",
            "ticks": 57920,
            "time": 181,
            "velocity": 0.3700787401574803
          },
          {
            "duration": 0.96875,
            "durationTicks": 310,
            "midi": 57,
            "name": "A3",
            "ticks": 57920,
            "time": 181,
            "velocity": 0.3700787401574803
          },
          {
            "duration": 0.46875,
            "durationTicks": 150,
            "midi": 45,
            "name": "A2",
            "ticks": 58240,
            "time": 182,
            "velocity": 0.3700787401574803
          },
          {
            "duration": 0.46875,
            "durationTicks": 150,
            "midi": 57,
            "name": "A3",
            "ticks": 58240,
            "time": 182,
            "velocity": 0.3700787401574803
          },
          {
            "duration": 0.96875,
            "durationTicks": 310,
            "midi": 45,
            "name": "A2",
            "ticks": 58400,
            "time": 182.5,
            "velocity": 0.3700787401574803
          },
          {
            "duration": 0.96875,
            "durationTicks": 310,
            "midi": 57,
            "name": "A3",
            "ticks": 58400,
            "time": 182.5,
            "velocity": 0.3700787401574803
          },
          {
            "duration": 0.46875,
            "durationTicks": 150,
            "midi": 45,
            "name": "A2",
            "ticks": 58720,
            "time": 183.5,
            "velocity": 0.3700787401574803
          },
          {
            "duration": 0.46875,
            "durationTicks": 150,
            "midi": 57,
            "name": "A3",
            "ticks": 58720,
            "time": 183.5,
            "velocity": 0.3700787401574803
          },
          {
            "duration": 0.96875,
            "durationTicks": 310,
            "midi": 45,
            "name": "A2",
            "ticks": 58880,
            "time": 184,
            "velocity": 0.3700787401574803
          },
          {
            "duration": 0.96875,
            "durationTicks": 310,
            "midi": 57,
            "name": "A3",
            "ticks": 58880,
            "time": 184,
            "velocity": 0.3700787401574803
          },
          {
            "duration": 0.46875,
            "durationTicks": 150,
            "midi": 45,
            "name": "A2",
            "ticks": 59200,
            "time": 185,
            "velocity": 0.48031496062992124
          },
          {
            "duration": 0.46875,
            "durationTicks": 150,
            "midi": 57,
            "name": "A3",
            "ticks": 59200,
            "time": 185,
            "velocity": 0.48031496062992124
          },
          {
            "duration": 0.96875,
            "durationTicks": 310,
            "midi": 45,
            "name": "A2",
            "ticks": 59360,
            "time": 185.5,
            "velocity": 0.4881889763779528
          },
          {
            "duration": 0.96875,
            "durationTicks": 310,
            "midi": 57,
            "name": "A3",
            "ticks": 59360,
            "time": 185.5,
            "velocity": 0.4881889763779528
          },
          {
            "duration": 0.46875,
            "durationTicks": 150,
            "midi": 45,
            "name": "A2",
            "ticks": 59680,
            "time": 186.5,
            "velocity": 0.5118110236220472
          },
          {
            "duration": 0.46875,
            "durationTicks": 150,
            "midi": 57,
            "name": "A3",
            "ticks": 59680,
            "time": 186.5,
            "velocity": 0.5118110236220472
          },
          {
            "duration": 0.96875,
            "durationTicks": 310,
            "midi": 45,
            "name": "A2",
            "ticks": 59840,
            "time": 187,
            "velocity": 0.5196850393700787
          },
          {
            "duration": 0.96875,
            "durationTicks": 310,
            "midi": 57,
            "name": "A3",
            "ticks": 59840,
            "time": 187,
            "velocity": 0.5196850393700787
          },
          {
            "duration": 0.46875,
            "durationTicks": 150,
            "midi": 45,
            "name": "A2",
            "ticks": 60160,
            "time": 188,
            "velocity": 0.5433070866141733
          },
          {
            "duration": 0.46875,
            "durationTicks": 150,
            "midi": 57,
            "name": "A3",
            "ticks": 60160,
            "time": 188,
            "velocity": 0.5433070866141733
          },
          {
            "duration": 0.96875,
            "durationTicks": 310,
            "midi": 45,
            "name": "A2",
            "ticks": 60320,
            "time": 188.5,
            "velocity": 0.5511811023622047
          },
          {
            "duration": 0.96875,
            "durationTicks": 310,
            "midi": 57,
            "name": "A3",
            "ticks": 60320,
            "time": 188.5,
            "velocity": 0.5511811023622047
          },
          {
            "duration": 0.46875,
            "durationTicks": 150,
            "midi": 45,
            "name": "A2",
            "ticks": 60640,
            "time": 189.5,
            "velocity": 0.5748031496062992
          },
          {
            "duration": 0.46875,
            "durationTicks": 150,
            "midi": 57,
            "name": "A3",
            "ticks": 60640,
            "time": 189.5,
            "velocity": 0.5748031496062992
          },
          {
            "duration": 0.96875,
            "durationTicks": 310,
            "midi": 45,
            "name": "A2",
            "ticks": 60800,
            "time": 190,
            "velocity": 0.5826771653543307
          },
          {
            "duration": 0.96875,
            "durationTicks": 310,
            "midi": 57,
            "name": "A3",
            "ticks": 60800,
            "time": 190,
            "velocity": 0.5826771653543307
          },
          {
            "duration": 0.46875,
            "durationTicks": 150,
            "midi": 45,
            "name": "A2",
            "ticks": 61120,
            "time": 191,
            "velocity": 0.6062992125984252
          },
          {
            "duration": 0.46875,
            "durationTicks": 150,
            "midi": 57,
            "name": "A3",
            "ticks": 61120,
            "time": 191,
            "velocity": 0.6062992125984252
          },
          {
            "duration": 0.96875,
            "durationTicks": 310,
            "midi": 45,
            "name": "A2",
            "ticks": 61280,
            "time": 191.5,
            "velocity": 0.6141732283464567
          },
          {
            "duration": 0.96875,
            "durationTicks": 310,
            "midi": 57,
            "name": "A3",
            "ticks": 61280,
            "time": 191.5,
            "velocity": 0.6141732283464567
          },
          {
            "duration": 0.46875,
            "durationTicks": 150,
            "midi": 47,
            "name": "B2",
            "ticks": 61600,
            "time": 192.5,
            "velocity": 0.6377952755905512
          },
          {
            "duration": 0.46875,
            "durationTicks": 150,
            "midi": 59,
            "name": "B3",
            "ticks": 61600,
            "time": 192.5,
            "velocity": 0.6377952755905512
          },
          {
            "duration": 0.96875,
            "durationTicks": 310,
            "midi": 47,
            "name": "B2",
            "ticks": 61760,
            "time": 193,
            "velocity": 0.6456692913385826
          },
          {
            "duration": 0.96875,
            "durationTicks": 310,
            "midi": 59,
            "name": "B3",
            "ticks": 61760,
            "time": 193,
            "velocity": 0.6456692913385826
          },
          {
            "duration": 0.46875,
            "durationTicks": 150,
            "midi": 47,
            "name": "B2",
            "ticks": 62080,
            "time": 194,
            "velocity": 0.6692913385826772
          },
          {
            "duration": 0.46875,
            "durationTicks": 150,
            "midi": 59,
            "name": "B3",
            "ticks": 62080,
            "time": 194,
            "velocity": 0.6692913385826772
          },
          {
            "duration": 0.96875,
            "durationTicks": 310,
            "midi": 47,
            "name": "B2",
            "ticks": 62240,
            "time": 194.5,
            "velocity": 0.6771653543307087
          },
          {
            "duration": 0.96875,
            "durationTicks": 310,
            "midi": 59,
            "name": "B3",
            "ticks": 62240,
            "time": 194.5,
            "velocity": 0.6771653543307087
          },
          {
            "duration": 0.46875,
            "durationTicks": 150,
            "midi": 47,
            "name": "B2",
            "ticks": 62560,
            "time": 195.5,
            "velocity": 0.7007874015748031
          },
          {
            "duration": 0.46875,
            "durationTicks": 150,
            "midi": 59,
            "name": "B3",
            "ticks": 62560,
            "time": 195.5,
            "velocity": 0.7007874015748031
          },
          {
            "duration": 0.96875,
            "durationTicks": 310,
            "midi": 47,
            "name": "B2",
            "ticks": 62720,
            "time": 196,
            "velocity": 0.7086614173228346
          },
          {
            "duration": 0.96875,
            "durationTicks": 310,
            "midi": 59,
            "name": "B3",
            "ticks": 62720,
            "time": 196,
            "velocity": 0.7086614173228346
          },
          {
            "duration": 0.46875,
            "durationTicks": 150,
            "midi": 51,
            "name": "D#3",
            "ticks": 63040,
            "time": 197,
            "velocity": 0.7086614173228346
          },
          {
            "duration": 0.46875,
            "durationTicks": 150,
            "midi": 63,
            "name": "D#4",
            "ticks": 63040,
            "time": 197,
            "velocity": 0.7086614173228346
          },
          {
            "duration": 0.96875,
            "durationTicks": 310,
            "midi": 51,
            "name": "D#3",
            "ticks": 63200,
            "time": 197.5,
            "velocity": 0.7086614173228346
          },
          {
            "duration": 0.96875,
            "durationTicks": 310,
            "midi": 63,
            "name": "D#4",
            "ticks": 63200,
            "time": 197.5,
            "velocity": 0.7086614173228346
          },
          {
            "duration": 0.46875,
            "durationTicks": 150,
            "midi": 51,
            "name": "D#3",
            "ticks": 63520,
            "time": 198.5,
            "velocity": 0.7086614173228346
          },
          {
            "duration": 0.46875,
            "durationTicks": 150,
            "midi": 63,
            "name": "D#4",
            "ticks": 63520,
            "time": 198.5,
            "velocity": 0.7086614173228346
          },
          {
            "duration": 0.96875,
            "durationTicks": 310,
            "midi": 51,
            "name": "D#3",
            "ticks": 63680,
            "time": 199,
            "velocity": 0.7086614173228346
          },
          {
            "duration": 0.96875,
            "durationTicks": 310,
            "midi": 63,
            "name": "D#4",
            "ticks": 63680,
            "time": 199,
            "velocity": 0.7086614173228346
          },
          {
            "duration": 0.46875,
            "durationTicks": 150,
            "midi": 52,
            "name": "E3",
            "ticks": 64000,
            "time": 200,
            "velocity": 0.7086614173228346
          },
          {
            "duration": 0.46875,
            "durationTicks": 150,
            "midi": 64,
            "name": "E4",
            "ticks": 64000,
            "time": 200,
            "velocity": 0.7086614173228346
          },
          {
            "duration": 0.96875,
            "durationTicks": 310,
            "midi": 52,
            "name": "E3",
            "ticks": 64160,
            "time": 200.5,
            "velocity": 0.7086614173228346
          },
          {
            "duration": 0.96875,
            "durationTicks": 310,
            "midi": 64,
            "name": "E4",
            "ticks": 64160,
            "time": 200.5,
            "velocity": 0.7086614173228346
          },
          {
            "duration": 0.46875,
            "durationTicks": 150,
            "midi": 51,
            "name": "D#3",
            "ticks": 64480,
            "time": 201.5,
            "velocity": 0.7086614173228346
          },
          {
            "duration": 0.46875,
            "durationTicks": 150,
            "midi": 63,
            "name": "D#4",
            "ticks": 64480,
            "time": 201.5,
            "velocity": 0.7086614173228346
          },
          {
            "duration": 0.96875,
            "durationTicks": 310,
            "midi": 50,
            "name": "D3",
            "ticks": 64640,
            "time": 202,
            "velocity": 0.7086614173228346
          },
          {
            "duration": 0.96875,
            "durationTicks": 310,
            "midi": 62,
            "name": "D4",
            "ticks": 64640,
            "time": 202,
            "velocity": 0.7086614173228346
          },
          {
            "duration": 0.46875,
            "durationTicks": 150,
            "midi": 50,
            "name": "D3",
            "ticks": 64960,
            "time": 203,
            "velocity": 0.6692913385826772
          },
          {
            "duration": 0.46875,
            "durationTicks": 150,
            "midi": 62,
            "name": "D4",
            "ticks": 64960,
            "time": 203,
            "velocity": 0.6692913385826772
          },
          {
            "duration": 0.96875,
            "durationTicks": 310,
            "midi": 50,
            "name": "D3",
            "ticks": 65120,
            "time": 203.5,
            "velocity": 0.6771653543307087
          },
          {
            "duration": 0.96875,
            "durationTicks": 310,
            "midi": 62,
            "name": "D4",
            "ticks": 65120,
            "time": 203.5,
            "velocity": 0.6771653543307087
          },
          {
            "duration": 0.46875,
            "durationTicks": 150,
            "midi": 49,
            "name": "C#3",
            "ticks": 65440,
            "time": 204.5,
            "velocity": 0.7007874015748031
          },
          {
            "duration": 0.46875,
            "durationTicks": 150,
            "midi": 61,
            "name": "C#4",
            "ticks": 65440,
            "time": 204.5,
            "velocity": 0.7007874015748031
          },
          {
            "duration": 0.46875,
            "durationTicks": 150,
            "midi": 49,
            "name": "C#3",
            "ticks": 65600,
            "time": 205,
            "velocity": 0.7086614173228346
          },
          {
            "duration": 0.46875,
            "durationTicks": 150,
            "midi": 61,
            "name": "C#4",
            "ticks": 65600,
            "time": 205,
            "velocity": 0.7086614173228346
          },
          {
            "duration": 0.46875,
            "durationTicks": 150,
            "midi": 50,
            "name": "D3",
            "ticks": 65760,
            "time": 205.5,
            "velocity": 0.7165354330708661
          },
          {
            "duration": 0.46875,
            "durationTicks": 150,
            "midi": 62,
            "name": "D4",
            "ticks": 65760,
            "time": 205.5,
            "velocity": 0.7165354330708661
          },
          {
            "duration": 2.8125,
            "durationTicks": 900,
            "midi": 55,
            "name": "G3",
            "ticks": 66240,
            "time": 207,
            "velocity": 0.41732283464566927
          },
          {
            "duration": 2.8125,
            "durationTicks": 900,
            "midi": 67,
            "name": "G4",
            "ticks": 66240,
            "time": 207,
            "velocity": 0.41732283464566927
          },
          {
            "duration": 0.7062500000000114,
            "durationTicks": 226,
            "midi": 50,
            "name": "D3",
            "ticks": 67200,
            "time": 210,
            "velocity": 0.41732283464566927
          },
          {
            "duration": 0.7062500000000114,
            "durationTicks": 226,
            "midi": 62,
            "name": "D4",
            "ticks": 67200,
            "time": 210,
            "velocity": 0.41732283464566927
          },
          {
            "duration": 2.8125,
            "durationTicks": 900,
            "midi": 55,
            "name": "G3",
            "ticks": 69120,
            "time": 216,
            "velocity": 0.41732283464566927
          },
          {
            "duration": 2.8125,
            "durationTicks": 900,
            "midi": 67,
            "name": "G4",
            "ticks": 69120,
            "time": 216,
            "velocity": 0.41732283464566927
          },
          {
            "duration": 0.7062500000000114,
            "durationTicks": 226,
            "midi": 50,
            "name": "D3",
            "ticks": 70080,
            "time": 219,
            "velocity": 0.41732283464566927
          },
          {
            "duration": 0.7062500000000114,
            "durationTicks": 226,
            "midi": 62,
            "name": "D4",
            "ticks": 70080,
            "time": 219,
            "velocity": 0.41732283464566927
          },
          {
            "duration": 1.40625,
            "durationTicks": 450,
            "midi": 54,
            "name": "F#3",
            "ticks": 72000,
            "time": 225,
            "velocity": 0.47244094488188976
          },
          {
            "duration": 1.40625,
            "durationTicks": 450,
            "midi": 66,
            "name": "F#4",
            "ticks": 72000,
            "time": 225,
            "velocity": 0.47244094488188976
          },
          {
            "duration": 1.40625,
            "durationTicks": 450,
            "midi": 52,
            "name": "E3",
            "ticks": 72480,
            "time": 226.5,
            "velocity": 0.4881889763779528
          },
          {
            "duration": 1.40625,
            "durationTicks": 450,
            "midi": 64,
            "name": "E4",
            "ticks": 72480,
            "time": 226.5,
            "velocity": 0.4881889763779528
          },
          {
            "duration": 1.40625,
            "durationTicks": 450,
            "midi": 50,
            "name": "D3",
            "ticks": 72960,
            "time": 228,
            "velocity": 0.5039370078740157
          },
          {
            "duration": 1.40625,
            "durationTicks": 450,
            "midi": 62,
            "name": "D4",
            "ticks": 72960,
            "time": 228,
            "velocity": 0.5039370078740157
          },
          {
            "duration": 0.7062500000000114,
            "durationTicks": 226,
            "midi": 49,
            "name": "C#3",
            "ticks": 73440,
            "time": 229.5,
            "velocity": 0.5196850393700787
          },
          {
            "duration": 0.7062500000000114,
            "durationTicks": 226,
            "midi": 61,
            "name": "C#4",
            "ticks": 73440,
            "time": 229.5,
            "velocity": 0.5196850393700787
          },
          {
            "duration": 1.40625,
            "durationTicks": 450,
            "midi": 57,
            "name": "A3",
            "ticks": 74880,
            "time": 234,
            "velocity": 0.5669291338582677
          },
          {
            "duration": 1.40625,
            "durationTicks": 450,
            "midi": 69,
            "name": "A4",
            "ticks": 74880,
            "time": 234,
            "velocity": 0.5669291338582677
          },
          {
            "duration": 1.40625,
            "durationTicks": 450,
            "midi": 55,
            "name": "G3",
            "ticks": 75360,
            "time": 235.5,
            "velocity": 0.5826771653543307
          },
          {
            "duration": 1.40625,
            "durationTicks": 450,
            "midi": 67,
            "name": "G4",
            "ticks": 75360,
            "time": 235.5,
            "velocity": 0.5826771653543307
          },
          {
            "duration": 1.40625,
            "durationTicks": 450,
            "midi": 53,
            "name": "F3",
            "ticks": 75840,
            "time": 237,
            "velocity": 0.5984251968503937
          },
          {
            "duration": 1.40625,
            "durationTicks": 450,
            "midi": 65,
            "name": "F4",
            "ticks": 75840,
            "time": 237,
            "velocity": 0.5984251968503937
          },
          {
            "duration": 0.7062500000000114,
            "durationTicks": 226,
            "midi": 52,
            "name": "E3",
            "ticks": 76320,
            "time": 238.5,
            "velocity": 0.6141732283464567
          },
          {
            "duration": 0.7062500000000114,
            "durationTicks": 226,
            "midi": 64,
            "name": "E4",
            "ticks": 76320,
            "time": 238.5,
            "velocity": 0.6141732283464567
          },
          {
            "duration": 0.46875,
            "durationTicks": 150,
            "midi": 57,
            "name": "A3",
            "ticks": 77440,
            "time": 242,
            "velocity": 0.3700787401574803
          },
          {
            "duration": 0.46875,
            "durationTicks": 150,
            "midi": 69,
            "name": "A4",
            "ticks": 77440,
            "time": 242,
            "velocity": 0.3700787401574803
          },
          {
            "duration": 0.96875,
            "durationTicks": 310,
            "midi": 57,
            "name": "A3",
            "ticks": 77600,
            "time": 242.5,
            "velocity": 0.3700787401574803
          },
          {
            "duration": 0.96875,
            "durationTicks": 310,
            "midi": 69,
            "name": "A4",
            "ticks": 77600,
            "time": 242.5,
            "velocity": 0.3700787401574803
          },
          {
            "duration": 0.46875,
            "durationTicks": 150,
            "midi": 57,
            "name": "A3",
            "ticks": 77920,
            "time": 243.5,
            "velocity": 0.47244094488188976
          },
          {
            "duration": 0.46875,
            "durationTicks": 150,
            "midi": 69,
            "name": "A4",
            "ticks": 77920,
            "time": 243.5,
            "velocity": 0.47244094488188976
          },
          {
            "duration": 0.96875,
            "durationTicks": 310,
            "midi": 57,
            "name": "A3",
            "ticks": 78080,
            "time": 244,
            "velocity": 0.48031496062992124
          },
          {
            "duration": 0.96875,
            "durationTicks": 310,
            "midi": 69,
            "name": "A4",
            "ticks": 78080,
            "time": 244,
            "velocity": 0.48031496062992124
          },
          {
            "duration": 0.46875,
            "durationTicks": 150,
            "midi": 57,
            "name": "A3",
            "ticks": 78400,
            "time": 245,
            "velocity": 0.4881889763779528
          },
          {
            "duration": 0.46875,
            "durationTicks": 150,
            "midi": 69,
            "name": "A4",
            "ticks": 78400,
            "time": 245,
            "velocity": 0.4881889763779528
          },
          {
            "duration": 0.96875,
            "durationTicks": 310,
            "midi": 57,
            "name": "A3",
            "ticks": 78560,
            "time": 245.5,
            "velocity": 0.49606299212598426
          },
          {
            "duration": 0.96875,
            "durationTicks": 310,
            "midi": 69,
            "name": "A4",
            "ticks": 78560,
            "time": 245.5,
            "velocity": 0.49606299212598426
          },
          {
            "duration": 0.46875,
            "durationTicks": 150,
            "midi": 57,
            "name": "A3",
            "ticks": 78880,
            "time": 246.5,
            "velocity": 0.5039370078740157
          },
          {
            "duration": 0.46875,
            "durationTicks": 150,
            "midi": 69,
            "name": "A4",
            "ticks": 78880,
            "time": 246.5,
            "velocity": 0.5039370078740157
          },
          {
            "duration": 0.96875,
            "durationTicks": 310,
            "midi": 57,
            "name": "A3",
            "ticks": 79040,
            "time": 247,
            "velocity": 0.5039370078740157
          },
          {
            "duration": 0.96875,
            "durationTicks": 310,
            "midi": 69,
            "name": "A4",
            "ticks": 79040,
            "time": 247,
            "velocity": 0.5039370078740157
          },
          {
            "duration": 0.46875,
            "durationTicks": 150,
            "midi": 57,
            "name": "A3",
            "ticks": 79360,
            "time": 248,
            "velocity": 0.5196850393700787
          },
          {
            "duration": 0.46875,
            "durationTicks": 150,
            "midi": 69,
            "name": "A4",
            "ticks": 79360,
            "time": 248,
            "velocity": 0.5196850393700787
          },
          {
            "duration": 0.96875,
            "durationTicks": 310,
            "midi": 57,
            "name": "A3",
            "ticks": 79520,
            "time": 248.5,
            "velocity": 0.5196850393700787
          },
          {
            "duration": 0.96875,
            "durationTicks": 310,
            "midi": 69,
            "name": "A4",
            "ticks": 79520,
            "time": 248.5,
            "velocity": 0.5196850393700787
          },
          {
            "duration": 0.46875,
            "durationTicks": 150,
            "midi": 57,
            "name": "A3",
            "ticks": 79840,
            "time": 249.5,
            "velocity": 0.5275590551181102
          },
          {
            "duration": 0.46875,
            "durationTicks": 150,
            "midi": 69,
            "name": "A4",
            "ticks": 79840,
            "time": 249.5,
            "velocity": 0.5275590551181102
          },
          {
            "duration": 0.96875,
            "durationTicks": 310,
            "midi": 57,
            "name": "A3",
            "ticks": 80000,
            "time": 250,
            "velocity": 0.5354330708661418
          },
          {
            "duration": 0.96875,
            "durationTicks": 310,
            "midi": 69,
            "name": "A4",
            "ticks": 80000,
            "time": 250,
            "velocity": 0.5354330708661418
          },
          {
            "duration": 0.46875,
            "durationTicks": 150,
            "midi": 57,
            "name": "A3",
            "ticks": 80320,
            "time": 251,
            "velocity": 0.5433070866141733
          },
          {
            "duration": 0.46875,
            "durationTicks": 150,
            "midi": 69,
            "name": "A4",
            "ticks": 80320,
            "time": 251,
            "velocity": 0.5433070866141733
          },
          {
            "duration": 0.96875,
            "durationTicks": 310,
            "midi": 57,
            "name": "A3",
            "ticks": 80480,
            "time": 251.5,
            "velocity": 0.5511811023622047
          },
          {
            "duration": 0.96875,
            "durationTicks": 310,
            "midi": 69,
            "name": "A4",
            "ticks": 80480,
            "time": 251.5,
            "velocity": 0.5511811023622047
          },
          {
            "duration": 0.46875,
            "durationTicks": 150,
            "midi": 57,
            "name": "A3",
            "ticks": 80800,
            "time": 252.5,
            "velocity": 0.5590551181102362
          },
          {
            "duration": 0.46875,
            "durationTicks": 150,
            "midi": 69,
            "name": "A4",
            "ticks": 80800,
            "time": 252.5,
            "velocity": 0.5590551181102362
          },
          {
            "duration": 0.96875,
            "durationTicks": 310,
            "midi": 57,
            "name": "A3",
            "ticks": 80960,
            "time": 253,
            "velocity": 0.5590551181102362
          },
          {
            "duration": 0.96875,
            "durationTicks": 310,
            "midi": 69,
            "name": "A4",
            "ticks": 80960,
            "time": 253,
            "velocity": 0.5590551181102362
          },
          {
            "duration": 0.46875,
            "durationTicks": 150,
            "midi": 57,
            "name": "A3",
            "ticks": 81280,
            "time": 254,
            "velocity": 0.5748031496062992
          },
          {
            "duration": 0.46875,
            "durationTicks": 150,
            "midi": 69,
            "name": "A4",
            "ticks": 81280,
            "time": 254,
            "velocity": 0.5748031496062992
          },
          {
            "duration": 0.96875,
            "durationTicks": 310,
            "midi": 57,
            "name": "A3",
            "ticks": 81440,
            "time": 254.5,
            "velocity": 0.5748031496062992
          },
          {
            "duration": 0.96875,
            "durationTicks": 310,
            "midi": 69,
            "name": "A4",
            "ticks": 81440,
            "time": 254.5,
            "velocity": 0.5748031496062992
          },
          {
            "duration": 0.46875,
            "durationTicks": 150,
            "midi": 57,
            "name": "A3",
            "ticks": 81760,
            "time": 255.5,
            "velocity": 0.5826771653543307
          },
          {
            "duration": 0.46875,
            "durationTicks": 150,
            "midi": 69,
            "name": "A4",
            "ticks": 81760,
            "time": 255.5,
            "velocity": 0.5826771653543307
          },
          {
            "duration": 0.96875,
            "durationTicks": 310,
            "midi": 57,
            "name": "A3",
            "ticks": 81920,
            "time": 256,
            "velocity": 0.5905511811023622
          },
          {
            "duration": 0.96875,
            "durationTicks": 310,
            "midi": 69,
            "name": "A4",
            "ticks": 81920,
            "time": 256,
            "velocity": 0.5905511811023622
          },
          {
            "duration": 0.46875,
            "durationTicks": 150,
            "midi": 57,
            "name": "A3",
            "ticks": 82240,
            "time": 257,
            "velocity": 0.5984251968503937
          },
          {
            "duration": 0.46875,
            "durationTicks": 150,
            "midi": 69,
            "name": "A4",
            "ticks": 82240,
            "time": 257,
            "velocity": 0.5984251968503937
          },
          {
            "duration": 0.96875,
            "durationTicks": 310,
            "midi": 57,
            "name": "A3",
            "ticks": 82400,
            "time": 257.5,
            "velocity": 0.6062992125984252
          },
          {
            "duration": 0.96875,
            "durationTicks": 310,
            "midi": 69,
            "name": "A4",
            "ticks": 82400,
            "time": 257.5,
            "velocity": 0.6062992125984252
          },
          {
            "duration": 0.46875,
            "durationTicks": 150,
            "midi": 57,
            "name": "A3",
            "ticks": 82720,
            "time": 258.5,
            "velocity": 0.6141732283464567
          },
          {
            "duration": 0.46875,
            "durationTicks": 150,
            "midi": 69,
            "name": "A4",
            "ticks": 82720,
            "time": 258.5,
            "velocity": 0.6141732283464567
          },
          {
            "duration": 0.96875,
            "durationTicks": 310,
            "midi": 57,
            "name": "A3",
            "ticks": 82880,
            "time": 259,
            "velocity": 0.6141732283464567
          },
          {
            "duration": 0.96875,
            "durationTicks": 310,
            "midi": 69,
            "name": "A4",
            "ticks": 82880,
            "time": 259,
            "velocity": 0.6141732283464567
          },
          {
            "duration": 0.46875,
            "durationTicks": 150,
            "midi": 57,
            "name": "A3",
            "ticks": 83200,
            "time": 260,
            "velocity": 0.6220472440944882
          },
          {
            "duration": 0.46875,
            "durationTicks": 150,
            "midi": 69,
            "name": "A4",
            "ticks": 83200,
            "time": 260,
            "velocity": 0.6220472440944882
          },
          {
            "duration": 0.96875,
            "durationTicks": 310,
            "midi": 57,
            "name": "A3",
            "ticks": 83360,
            "time": 260.5,
            "velocity": 0.6299212598425197
          },
          {
            "duration": 0.96875,
            "durationTicks": 310,
            "midi": 69,
            "name": "A4",
            "ticks": 83360,
            "time": 260.5,
            "velocity": 0.6299212598425197
          },
          {
            "duration": 0.46875,
            "durationTicks": 150,
            "midi": 57,
            "name": "A3",
            "ticks": 83680,
            "time": 261.5,
            "velocity": 0.6377952755905512
          },
          {
            "duration": 0.46875,
            "durationTicks": 150,
            "midi": 69,
            "name": "A4",
            "ticks": 83680,
            "time": 261.5,
            "velocity": 0.6377952755905512
          },
          {
            "duration": 0.96875,
            "durationTicks": 310,
            "midi": 57,
            "name": "A3",
            "ticks": 83840,
            "time": 262,
            "velocity": 0.6456692913385826
          },
          {
            "duration": 0.96875,
            "durationTicks": 310,
            "midi": 69,
            "name": "A4",
            "ticks": 83840,
            "time": 262,
            "velocity": 0.6456692913385826
          },
          {
            "duration": 0.46875,
            "durationTicks": 150,
            "midi": 55,
            "name": "G3",
            "ticks": 84160,
            "time": 263,
            "velocity": 0.6535433070866141
          },
          {
            "duration": 0.46875,
            "durationTicks": 150,
            "midi": 67,
            "name": "G4",
            "ticks": 84160,
            "time": 263,
            "velocity": 0.6535433070866141
          },
          {
            "duration": 0.46875,
            "durationTicks": 150,
            "midi": 55,
            "name": "G3",
            "ticks": 84320,
            "time": 263.5,
            "velocity": 0.6535433070866141
          },
          {
            "duration": 0.46875,
            "durationTicks": 150,
            "midi": 67,
            "name": "G4",
            "ticks": 84320,
            "time": 263.5,
            "velocity": 0.6535433070866141
          },
          {
            "duration": 0.46875,
            "durationTicks": 150,
            "midi": 59,
            "name": "B3",
            "ticks": 84640,
            "time": 264.5,
            "velocity": 0.6692913385826772
          },
          {
            "duration": 0.46875,
            "durationTicks": 150,
            "midi": 71,
            "name": "B4",
            "ticks": 84640,
            "time": 264.5,
            "velocity": 0.6692913385826772
          },
          {
            "duration": 0.96875,
            "durationTicks": 310,
            "midi": 59,
            "name": "B3",
            "ticks": 84800,
            "time": 265,
            "velocity": 0.6692913385826772
          },
          {
            "duration": 0.96875,
            "durationTicks": 310,
            "midi": 71,
            "name": "B4",
            "ticks": 84800,
            "time": 265,
            "velocity": 0.6692913385826772
          },
          {
            "duration": 0.46875,
            "durationTicks": 150,
            "midi": 59,
            "name": "B3",
            "ticks": 85120,
            "time": 266,
            "velocity": 0.6771653543307087
          },
          {
            "duration": 0.46875,
            "durationTicks": 150,
            "midi": 71,
            "name": "B4",
            "ticks": 85120,
            "time": 266,
            "velocity": 0.6771653543307087
          },
          {
            "duration": 0.96875,
            "durationTicks": 310,
            "midi": 59,
            "name": "B3",
            "ticks": 85280,
            "time": 266.5,
            "velocity": 0.6850393700787402
          },
          {
            "duration": 0.96875,
            "durationTicks": 310,
            "midi": 71,
            "name": "B4",
            "ticks": 85280,
            "time": 266.5,
            "velocity": 0.6850393700787402
          },
          {
            "duration": 0.46875,
            "durationTicks": 150,
            "midi": 59,
            "name": "B3",
            "ticks": 85600,
            "time": 267.5,
            "velocity": 0.6929133858267716
          },
          {
            "duration": 0.46875,
            "durationTicks": 150,
            "midi": 71,
            "name": "B4",
            "ticks": 85600,
            "time": 267.5,
            "velocity": 0.6929133858267716
          },
          {
            "duration": 0.46875,
            "durationTicks": 150,
            "midi": 59,
            "name": "B3",
            "ticks": 85760,
            "time": 268,
            "velocity": 0.7007874015748031
          },
          {
            "duration": 0.46875,
            "durationTicks": 150,
            "midi": 71,
            "name": "B4",
            "ticks": 85760,
            "time": 268,
            "velocity": 0.7007874015748031
          },
          {
            "duration": 0.46875,
            "durationTicks": 150,
            "midi": 51,
            "name": "D#3",
            "ticks": 86080,
            "time": 269,
            "velocity": 0.7086614173228346
          },
          {
            "duration": 0.46875,
            "durationTicks": 150,
            "midi": 63,
            "name": "D#4",
            "ticks": 86080,
            "time": 269,
            "velocity": 0.7086614173228346
          },
          {
            "duration": 0.96875,
            "durationTicks": 310,
            "midi": 51,
            "name": "D#3",
            "ticks": 86240,
            "time": 269.5,
            "velocity": 0.7086614173228346
          },
          {
            "duration": 0.96875,
            "durationTicks": 310,
            "midi": 63,
            "name": "D#4",
            "ticks": 86240,
            "time": 269.5,
            "velocity": 0.7086614173228346
          },
          {
            "duration": 0.46875,
            "durationTicks": 150,
            "midi": 51,
            "name": "D#3",
            "ticks": 86560,
            "time": 270.5,
            "velocity": 0.7165354330708661
          },
          {
            "duration": 0.46875,
            "durationTicks": 150,
            "midi": 63,
            "name": "D#4",
            "ticks": 86560,
            "time": 270.5,
            "velocity": 0.7165354330708661
          },
          {
            "duration": 0.96875,
            "durationTicks": 310,
            "midi": 51,
            "name": "D#3",
            "ticks": 86720,
            "time": 271,
            "velocity": 0.7244094488188977
          },
          {
            "duration": 0.96875,
            "durationTicks": 310,
            "midi": 63,
            "name": "D#4",
            "ticks": 86720,
            "time": 271,
            "velocity": 0.7244094488188977
          },
          {
            "duration": 0.46875,
            "durationTicks": 150,
            "midi": 52,
            "name": "E3",
            "ticks": 87040,
            "time": 272,
            "velocity": 0.7322834645669292
          },
          {
            "duration": 0.46875,
            "durationTicks": 150,
            "midi": 64,
            "name": "E4",
            "ticks": 87040,
            "time": 272,
            "velocity": 0.7322834645669292
          },
          {
            "duration": 0.46875,
            "durationTicks": 150,
            "midi": 52,
            "name": "E3",
            "ticks": 87200,
            "time": 272.5,
            "velocity": 0.7401574803149606
          },
          {
            "duration": 0.46875,
            "durationTicks": 150,
            "midi": 64,
            "name": "E4",
            "ticks": 87200,
            "time": 272.5,
            "velocity": 0.7401574803149606
          },
          {
            "duration": 0.46875,
            "durationTicks": 150,
            "midi": 51,
            "name": "D#3",
            "ticks": 87520,
            "time": 273.5,
            "velocity": 0.7480314960629921
          },
          {
            "duration": 0.46875,
            "durationTicks": 150,
            "midi": 63,
            "name": "D#4",
            "ticks": 87520,
            "time": 273.5,
            "velocity": 0.7480314960629921
          },
          {
            "duration": 0.96875,
            "durationTicks": 310,
            "midi": 51,
            "name": "D#3",
            "ticks": 87680,
            "time": 274,
            "velocity": 0.7480314960629921
          },
          {
            "duration": 0.96875,
            "durationTicks": 310,
            "midi": 63,
            "name": "D#4",
            "ticks": 87680,
            "time": 274,
            "velocity": 0.7480314960629921
          },
          {
            "duration": 0.46875,
            "durationTicks": 150,
            "midi": 50,
            "name": "D3",
            "ticks": 88000,
            "time": 275,
            "velocity": 0.7637795275590551
          },
          {
            "duration": 0.46875,
            "durationTicks": 150,
            "midi": 62,
            "name": "D4",
            "ticks": 88000,
            "time": 275,
            "velocity": 0.7637795275590551
          },
          {
            "duration": 0.96875,
            "durationTicks": 310,
            "midi": 50,
            "name": "D3",
            "ticks": 88160,
            "time": 275.5,
            "velocity": 0.7637795275590551
          },
          {
            "duration": 0.96875,
            "durationTicks": 310,
            "midi": 62,
            "name": "D4",
            "ticks": 88160,
            "time": 275.5,
            "velocity": 0.7637795275590551
          },
          {
            "duration": 0.46875,
            "durationTicks": 150,
            "midi": 49,
            "name": "C#3",
            "ticks": 88480,
            "time": 276.5,
            "velocity": 0.7716535433070866
          },
          {
            "duration": 0.46875,
            "durationTicks": 150,
            "midi": 61,
            "name": "C#4",
            "ticks": 88480,
            "time": 276.5,
            "velocity": 0.7716535433070866
          },
          {
            "duration": 0.46875,
            "durationTicks": 150,
            "midi": 49,
            "name": "C#3",
            "ticks": 88640,
            "time": 277,
            "velocity": 0.7795275590551181
          },
          {
            "duration": 0.46875,
            "durationTicks": 150,
            "midi": 61,
            "name": "C#4",
            "ticks": 88640,
            "time": 277,
            "velocity": 0.7795275590551181
          },
          {
            "duration": 0.46875,
            "durationTicks": 150,
            "midi": 50,
            "name": "D3",
            "ticks": 88800,
            "time": 277.5,
            "velocity": 0.7795275590551181
          },
          {
            "duration": 0.46875,
            "durationTicks": 150,
            "midi": 62,
            "name": "D4",
            "ticks": 88800,
            "time": 277.5,
            "velocity": 0.7795275590551181
          },
          {
            "duration": 2.8125,
            "durationTicks": 900,
            "midi": 55,
            "name": "G3",
            "ticks": 89280,
            "time": 279,
            "velocity": 0.7874015748031497
          },
          {
            "duration": 2.8125,
            "durationTicks": 900,
            "midi": 67,
            "name": "G4",
            "ticks": 89280,
            "time": 279,
            "velocity": 0.7874015748031497
          },
          {
            "duration": 0.7062500000000114,
            "durationTicks": 226,
            "midi": 50,
            "name": "D3",
            "ticks": 90240,
            "time": 282,
            "velocity": 0.7874015748031497
          },
          {
            "duration": 0.7062500000000114,
            "durationTicks": 226,
            "midi": 62,
            "name": "D4",
            "ticks": 90240,
            "time": 282,
            "velocity": 0.7874015748031497
          },
          {
            "duration": 2.8125,
            "durationTicks": 900,
            "midi": 55,
            "name": "G3",
            "ticks": 92160,
            "time": 288,
            "velocity": 0.7874015748031497
          },
          {
            "duration": 2.8125,
            "durationTicks": 900,
            "midi": 67,
            "name": "G4",
            "ticks": 92160,
            "time": 288,
            "velocity": 0.7874015748031497
          },
          {
            "duration": 0.7062500000000114,
            "durationTicks": 226,
            "midi": 50,
            "name": "D3",
            "ticks": 93120,
            "time": 291,
            "velocity": 0.7874015748031497
          },
          {
            "duration": 0.7062500000000114,
            "durationTicks": 226,
            "midi": 62,
            "name": "D4",
            "ticks": 93120,
            "time": 291,
            "velocity": 0.7874015748031497
          },
          {
            "duration": 1.40625,
            "durationTicks": 450,
            "midi": 54,
            "name": "F#3",
            "ticks": 95040,
            "time": 297,
            "velocity": 0.8267716535433071
          },
          {
            "duration": 1.40625,
            "durationTicks": 450,
            "midi": 66,
            "name": "F#4",
            "ticks": 95040,
            "time": 297,
            "velocity": 0.8267716535433071
          },
          {
            "duration": 1.40625,
            "durationTicks": 450,
            "midi": 52,
            "name": "E3",
            "ticks": 95520,
            "time": 298.5,
            "velocity": 0.8267716535433071
          },
          {
            "duration": 1.40625,
            "durationTicks": 450,
            "midi": 64,
            "name": "E4",
            "ticks": 95520,
            "time": 298.5,
            "velocity": 0.8267716535433071
          },
          {
            "duration": 1.40625,
            "durationTicks": 450,
            "midi": 50,
            "name": "D3",
            "ticks": 96000,
            "time": 300,
            "velocity": 0.8267716535433071
          },
          {
            "duration": 1.40625,
            "durationTicks": 450,
            "midi": 62,
            "name": "D4",
            "ticks": 96000,
            "time": 300,
            "velocity": 0.8267716535433071
          },
          {
            "duration": 4.21875,
            "durationTicks": 1350,
            "midi": 49,
            "name": "C#3",
            "ticks": 96480,
            "time": 301.5,
            "velocity": 0.8267716535433071
          },
          {
            "duration": 4.21875,
            "durationTicks": 1350,
            "midi": 61,
            "name": "C#4",
            "ticks": 96480,
            "time": 301.5,
            "velocity": 0.8267716535433071
          },
          {
            "duration": 1.40625,
            "durationTicks": 450,
            "midi": 57,
            "name": "A3",
            "ticks": 97920,
            "time": 306,
            "velocity": 0.8267716535433071
          },
          {
            "duration": 1.40625,
            "durationTicks": 450,
            "midi": 69,
            "name": "A4",
            "ticks": 97920,
            "time": 306,
            "velocity": 0.8267716535433071
          },
          {
            "duration": 1.40625,
            "durationTicks": 450,
            "midi": 55,
            "name": "G3",
            "ticks": 98400,
            "time": 307.5,
            "velocity": 0.84251968503937
          },
          {
            "duration": 1.40625,
            "durationTicks": 450,
            "midi": 67,
            "name": "G4",
            "ticks": 98400,
            "time": 307.5,
            "velocity": 0.84251968503937
          },
          {
            "duration": 1.40625,
            "durationTicks": 450,
            "midi": 53,
            "name": "F3",
            "ticks": 98880,
            "time": 309,
            "velocity": 0.8661417322834646
          },
          {
            "duration": 1.40625,
            "durationTicks": 450,
            "midi": 65,
            "name": "F4",
            "ticks": 98880,
            "time": 309,
            "velocity": 0.8661417322834646
          },
          {
            "duration": 4.21875,
            "durationTicks": 1350,
            "midi": 52,
            "name": "E3",
            "ticks": 99360,
            "time": 310.5,
            "velocity": 0.889763779527559
          },
          {
            "duration": 4.21875,
            "durationTicks": 1350,
            "midi": 64,
            "name": "E4",
            "ticks": 99360,
            "time": 310.5,
            "velocity": 0.889763779527559
          },
          {
            "duration": 5.206250000000011,
            "durationTicks": 1666,
            "midi": 59,
            "name": "B3",
            "ticks": 100800,
            "time": 315,
            "velocity": 0.9212598425196851
          },
          {
            "duration": 5.206250000000011,
            "durationTicks": 1666,
            "midi": 71,
            "name": "B4",
            "ticks": 100800,
            "time": 315,
            "velocity": 0.9212598425196851
          },
          {
            "duration": 0.46875,
            "durationTicks": 150,
            "midi": 55,
            "name": "G3",
            "ticks": 103680,
            "time": 324,
            "velocity": 0.8661417322834646
          },
          {
            "duration": 0.46875,
            "durationTicks": 150,
            "midi": 60,
            "name": "C4",
            "ticks": 103680,
            "time": 324,
            "velocity": 0.8661417322834646
          },
          {
            "duration": 0.46875,
            "durationTicks": 150,
            "midi": 64,
            "name": "E4",
            "ticks": 103680,
            "time": 324,
            "velocity": 0.8661417322834646
          },
          {
            "duration": 0.46875,
            "durationTicks": 150,
            "midi": 55,
            "name": "G3",
            "ticks": 103840,
            "time": 324.5,
            "velocity": 0.8661417322834646
          },
          {
            "duration": 0.46875,
            "durationTicks": 150,
            "midi": 60,
            "name": "C4",
            "ticks": 103840,
            "time": 324.5,
            "velocity": 0.8661417322834646
          },
          {
            "duration": 0.46875,
            "durationTicks": 150,
            "midi": 64,
            "name": "E4",
            "ticks": 103840,
            "time": 324.5,
            "velocity": 0.8661417322834646
          },
          {
            "duration": 0.96875,
            "durationTicks": 310,
            "midi": 55,
            "name": "G3",
            "ticks": 104000,
            "time": 325,
            "velocity": 0.8661417322834646
          },
          {
            "duration": 0.96875,
            "durationTicks": 310,
            "midi": 60,
            "name": "C4",
            "ticks": 104000,
            "time": 325,
            "velocity": 0.8661417322834646
          },
          {
            "duration": 0.96875,
            "durationTicks": 310,
            "midi": 64,
            "name": "E4",
            "ticks": 104000,
            "time": 325,
            "velocity": 0.8661417322834646
          },
          {
            "duration": 0.46875,
            "durationTicks": 150,
            "midi": 55,
            "name": "G3",
            "ticks": 104320,
            "time": 326,
            "velocity": 0.8661417322834646
          },
          {
            "duration": 0.46875,
            "durationTicks": 150,
            "midi": 60,
            "name": "C4",
            "ticks": 104320,
            "time": 326,
            "velocity": 0.8661417322834646
          },
          {
            "duration": 0.46875,
            "durationTicks": 150,
            "midi": 64,
            "name": "E4",
            "ticks": 104320,
            "time": 326,
            "velocity": 0.8661417322834646
          },
          {
            "duration": 0.96875,
            "durationTicks": 310,
            "midi": 55,
            "name": "G3",
            "ticks": 104480,
            "time": 326.5,
            "velocity": 0.8661417322834646
          },
          {
            "duration": 0.96875,
            "durationTicks": 310,
            "midi": 60,
            "name": "C4",
            "ticks": 104480,
            "time": 326.5,
            "velocity": 0.8661417322834646
          },
          {
            "duration": 0.96875,
            "durationTicks": 310,
            "midi": 64,
            "name": "E4",
            "ticks": 104480,
            "time": 326.5,
            "velocity": 0.8661417322834646
          },
          {
            "duration": 0.46875,
            "durationTicks": 150,
            "midi": 55,
            "name": "G3",
            "ticks": 104800,
            "time": 327.5,
            "velocity": 0.8661417322834646
          },
          {
            "duration": 0.46875,
            "durationTicks": 150,
            "midi": 60,
            "name": "C4",
            "ticks": 104800,
            "time": 327.5,
            "velocity": 0.8661417322834646
          },
          {
            "duration": 0.46875,
            "durationTicks": 150,
            "midi": 64,
            "name": "E4",
            "ticks": 104800,
            "time": 327.5,
            "velocity": 0.8661417322834646
          },
          {
            "duration": 0.96875,
            "durationTicks": 310,
            "midi": 55,
            "name": "G3",
            "ticks": 104960,
            "time": 328,
            "velocity": 0.8661417322834646
          },
          {
            "duration": 0.96875,
            "durationTicks": 310,
            "midi": 60,
            "name": "C4",
            "ticks": 104960,
            "time": 328,
            "velocity": 0.8661417322834646
          },
          {
            "duration": 0.96875,
            "durationTicks": 310,
            "midi": 64,
            "name": "E4",
            "ticks": 104960,
            "time": 328,
            "velocity": 0.8661417322834646
          },
          {
            "duration": 0.46875,
            "durationTicks": 150,
            "midi": 55,
            "name": "G3",
            "ticks": 106560,
            "time": 333,
            "velocity": 0.8661417322834646
          },
          {
            "duration": 0.46875,
            "durationTicks": 150,
            "midi": 60,
            "name": "C4",
            "ticks": 106560,
            "time": 333,
            "velocity": 0.8661417322834646
          },
          {
            "duration": 0.46875,
            "durationTicks": 150,
            "midi": 67,
            "name": "G4",
            "ticks": 106560,
            "time": 333,
            "velocity": 0.8661417322834646
          },
          {
            "duration": 0.46875,
            "durationTicks": 150,
            "midi": 72,
            "name": "C5",
            "ticks": 106560,
            "time": 333,
            "velocity": 0.8661417322834646
          },
          {
            "duration": 0.46875,
            "durationTicks": 150,
            "midi": 55,
            "name": "G3",
            "ticks": 106720,
            "time": 333.5,
            "velocity": 0.8661417322834646
          },
          {
            "duration": 0.46875,
            "durationTicks": 150,
            "midi": 60,
            "name": "C4",
            "ticks": 106720,
            "time": 333.5,
            "velocity": 0.8661417322834646
          },
          {
            "duration": 0.46875,
            "durationTicks": 150,
            "midi": 67,
            "name": "G4",
            "ticks": 106720,
            "time": 333.5,
            "velocity": 0.8661417322834646
          },
          {
            "duration": 0.46875,
            "durationTicks": 150,
            "midi": 72,
            "name": "C5",
            "ticks": 106720,
            "time": 333.5,
            "velocity": 0.8661417322834646
          },
          {
            "duration": 0.96875,
            "durationTicks": 310,
            "midi": 55,
            "name": "G3",
            "ticks": 106880,
            "time": 334,
            "velocity": 0.8661417322834646
          },
          {
            "duration": 0.96875,
            "durationTicks": 310,
            "midi": 60,
            "name": "C4",
            "ticks": 106880,
            "time": 334,
            "velocity": 0.8661417322834646
          },
          {
            "duration": 0.96875,
            "durationTicks": 310,
            "midi": 67,
            "name": "G4",
            "ticks": 106880,
            "time": 334,
            "velocity": 0.8661417322834646
          },
          {
            "duration": 0.96875,
            "durationTicks": 310,
            "midi": 72,
            "name": "C5",
            "ticks": 106880,
            "time": 334,
            "velocity": 0.8661417322834646
          },
          {
            "duration": 0.46875,
            "durationTicks": 150,
            "midi": 55,
            "name": "G3",
            "ticks": 107200,
            "time": 335,
            "velocity": 0.8661417322834646
          },
          {
            "duration": 0.46875,
            "durationTicks": 150,
            "midi": 60,
            "name": "C4",
            "ticks": 107200,
            "time": 335,
            "velocity": 0.8661417322834646
          },
          {
            "duration": 0.46875,
            "durationTicks": 150,
            "midi": 67,
            "name": "G4",
            "ticks": 107200,
            "time": 335,
            "velocity": 0.8661417322834646
          },
          {
            "duration": 0.46875,
            "durationTicks": 150,
            "midi": 72,
            "name": "C5",
            "ticks": 107200,
            "time": 335,
            "velocity": 0.8661417322834646
          },
          {
            "duration": 0.96875,
            "durationTicks": 310,
            "midi": 55,
            "name": "G3",
            "ticks": 107360,
            "time": 335.5,
            "velocity": 0.8661417322834646
          },
          {
            "duration": 0.96875,
            "durationTicks": 310,
            "midi": 60,
            "name": "C4",
            "ticks": 107360,
            "time": 335.5,
            "velocity": 0.8661417322834646
          },
          {
            "duration": 0.96875,
            "durationTicks": 310,
            "midi": 67,
            "name": "G4",
            "ticks": 107360,
            "time": 335.5,
            "velocity": 0.8661417322834646
          },
          {
            "duration": 0.96875,
            "durationTicks": 310,
            "midi": 72,
            "name": "C5",
            "ticks": 107360,
            "time": 335.5,
            "velocity": 0.8661417322834646
          },
          {
            "duration": 0.46875,
            "durationTicks": 150,
            "midi": 55,
            "name": "G3",
            "ticks": 107680,
            "time": 336.5,
            "velocity": 0.8661417322834646
          },
          {
            "duration": 0.46875,
            "durationTicks": 150,
            "midi": 60,
            "name": "C4",
            "ticks": 107680,
            "time": 336.5,
            "velocity": 0.8661417322834646
          },
          {
            "duration": 0.46875,
            "durationTicks": 150,
            "midi": 67,
            "name": "G4",
            "ticks": 107680,
            "time": 336.5,
            "velocity": 0.8661417322834646
          },
          {
            "duration": 0.46875,
            "durationTicks": 150,
            "midi": 72,
            "name": "C5",
            "ticks": 107680,
            "time": 336.5,
            "velocity": 0.8661417322834646
          },
          {
            "duration": 0.96875,
            "durationTicks": 310,
            "midi": 55,
            "name": "G3",
            "ticks": 107840,
            "time": 337,
            "velocity": 0.8661417322834646
          },
          {
            "duration": 0.96875,
            "durationTicks": 310,
            "midi": 60,
            "name": "C4",
            "ticks": 107840,
            "time": 337,
            "velocity": 0.8661417322834646
          },
          {
            "duration": 0.96875,
            "durationTicks": 310,
            "midi": 67,
            "name": "G4",
            "ticks": 107840,
            "time": 337,
            "velocity": 0.8661417322834646
          },
          {
            "duration": 0.96875,
            "durationTicks": 310,
            "midi": 72,
            "name": "C5",
            "ticks": 107840,
            "time": 337,
            "velocity": 0.8661417322834646
          },
          {
            "duration": 0.3562500000000455,
            "durationTicks": 114,
            "midi": 43,
            "name": "G2",
            "ticks": 109440,
            "time": 342,
            "velocity": 1
          },
          {
            "duration": 0.3562500000000455,
            "durationTicks": 114,
            "midi": 55,
            "name": "G3",
            "ticks": 109440,
            "time": 342,
            "velocity": 1
          },
          {
            "duration": 0.3562500000000455,
            "durationTicks": 114,
            "midi": 60,
            "name": "C4",
            "ticks": 109440,
            "time": 342,
            "velocity": 1
          },
          {
            "duration": 0.3562500000000455,
            "durationTicks": 114,
            "midi": 64,
            "name": "E4",
            "ticks": 109440,
            "time": 342,
            "velocity": 1
          },
          {
            "duration": 0.3562500000000455,
            "durationTicks": 114,
            "midi": 60,
            "name": "C4",
            "ticks": 110400,
            "time": 345,
            "velocity": 1
          },
          {
            "duration": 0.3562500000000455,
            "durationTicks": 114,
            "midi": 64,
            "name": "E4",
            "ticks": 110400,
            "time": 345,
            "velocity": 1
          },
          {
            "duration": 0.3562500000000455,
            "durationTicks": 114,
            "midi": 60,
            "name": "C4",
            "ticks": 111360,
            "time": 348,
            "velocity": 1
          },
          {
            "duration": 0.3562500000000455,
            "durationTicks": 114,
            "midi": 64,
            "name": "E4",
            "ticks": 111360,
            "time": 348,
            "velocity": 1
          },
          {
            "duration": 0.3562500000000455,
            "durationTicks": 114,
            "midi": 60,
            "name": "C4",
            "ticks": 112320,
            "time": 351,
            "velocity": 1
          },
          {
            "duration": 0.3562500000000455,
            "durationTicks": 114,
            "midi": 64,
            "name": "E4",
            "ticks": 112320,
            "time": 351,
            "velocity": 1
          },
          {
            "duration": 0.7062500000000114,
            "durationTicks": 226,
            "midi": 60,
            "name": "C4",
            "ticks": 115440,
            "time": 360.75,
            "velocity": 1
          },
          {
            "duration": 0.7062500000000114,
            "durationTicks": 226,
            "midi": 67,
            "name": "G4",
            "ticks": 115440,
            "time": 360.75,
            "velocity": 1
          },
          {
            "duration": 5.206250000000068,
            "durationTicks": 1666,
            "midi": 66,
            "name": "F#4",
            "ticks": 131520,
            "time": 411,
            "velocity": 0.5511811023622047
          },
          {
            "duration": 4.40625,
            "durationTicks": 1410,
            "midi": 66,
            "name": "F#4",
            "ticks": 134400,
            "time": 420,
            "velocity": 0.4330708661417323
          },
          {
            "duration": 4.40625,
            "durationTicks": 1410,
            "midi": 64,
            "name": "E4",
            "ticks": 135840,
            "time": 424.5,
            "velocity": 0.4330708661417323
          },
          {
            "duration": 4.40625,
            "durationTicks": 1410,
            "midi": 62,
            "name": "D4",
            "ticks": 137280,
            "time": 429,
            "velocity": 0.4330708661417323
          },
          {
            "duration": 4.40625,
            "durationTicks": 1410,
            "midi": 61,
            "name": "C#4",
            "ticks": 138720,
            "time": 433.5,
            "velocity": 0.4330708661417323
          },
          {
            "duration": 2.4624999999999773,
            "durationTicks": 788,
            "midi": 59,
            "name": "B3",
            "ticks": 140160,
            "time": 438,
            "velocity": 0.4330708661417323
          },
          {
            "duration": 0.3562500000000455,
            "durationTicks": 114,
            "midi": 57,
            "name": "A3",
            "ticks": 141000,
            "time": 440.625,
            "velocity": 0.4330708661417323
          },
          {
            "duration": 1.40625,
            "durationTicks": 450,
            "midi": 57,
            "name": "A3",
            "ticks": 141120,
            "time": 441,
            "velocity": 0.4330708661417323
          },
          {
            "duration": 0.7062500000000682,
            "durationTicks": 226,
            "midi": 55,
            "name": "G3",
            "ticks": 141600,
            "time": 442.5,
            "velocity": 0.4330708661417323
          },
          {
            "duration": 0.7062500000000682,
            "durationTicks": 226,
            "midi": 54,
            "name": "F#3",
            "ticks": 141840,
            "time": 443.25,
            "velocity": 0.47244094488188976
          },
          {
            "duration": 1.0562499999999773,
            "durationTicks": 338,
            "midi": 52,
            "name": "E3",
            "ticks": 142080,
            "time": 444,
            "velocity": 0.47244094488188976
          },
          {
            "duration": 0.3562500000000455,
            "durationTicks": 114,
            "midi": 50,
            "name": "D3",
            "ticks": 142440,
            "time": 445.125,
            "velocity": 0.47244094488188976
          },
          {
            "duration": 2.8125,
            "durationTicks": 900,
            "midi": 50,
            "name": "D3",
            "ticks": 142560,
            "time": 445.5,
            "velocity": 0.7874015748031497
          },
          {
            "duration": 1.0562499999999773,
            "durationTicks": 338,
            "midi": 49,
            "name": "C#3",
            "ticks": 143520,
            "time": 448.5,
            "velocity": 0.7874015748031497
          },
          {
            "duration": 0.3562500000000455,
            "durationTicks": 114,
            "midi": 48,
            "name": "C3",
            "ticks": 143880,
            "time": 449.625,
            "velocity": 0.7874015748031497
          },
          {
            "duration": 2.8125,
            "durationTicks": 900,
            "midi": 48,
            "name": "C3",
            "ticks": 144000,
            "time": 450,
            "velocity": 0.8267716535433071
          },
          {
            "duration": 1.0562499999999773,
            "durationTicks": 338,
            "midi": 48,
            "name": "C3",
            "ticks": 144960,
            "time": 453,
            "velocity": 0.8267716535433071
          },
          {
            "duration": 0.3562500000000455,
            "durationTicks": 114,
            "midi": 47,
            "name": "B2",
            "ticks": 145320,
            "time": 454.125,
            "velocity": 0.8267716535433071
          },
          {
            "duration": 2.4624999999999773,
            "durationTicks": 788,
            "midi": 47,
            "name": "B2",
            "ticks": 145440,
            "time": 454.5,
            "velocity": 0.905511811023622
          },
          {
            "duration": 0.3562500000000455,
            "durationTicks": 114,
            "midi": 46,
            "name": "A#2",
            "ticks": 146280,
            "time": 457.125,
            "velocity": 0.905511811023622
          },
          {
            "duration": 5.206250000000068,
            "durationTicks": 1666,
            "midi": 46,
            "name": "A#2",
            "ticks": 146400,
            "time": 457.5,
            "velocity": 0.905511811023622
          },
          {
            "duration": 5.206250000000068,
            "durationTicks": 1666,
            "midi": 66,
            "name": "F#4",
            "ticks": 151680,
            "time": 474,
            "velocity": 0.5511811023622047
          },
          {
            "duration": 3.706250000000068,
            "durationTicks": 1186,
            "midi": 66,
            "name": "F#4",
            "ticks": 154560,
            "time": 483,
            "velocity": 0.5511811023622047
          },
          {
            "duration": 5.206250000000068,
            "durationTicks": 1666,
            "midi": 55,
            "name": "G3",
            "ticks": 155520,
            "time": 486,
            "velocity": 0.5511811023622047
          },
          {
            "duration": 0.7062500000000682,
            "durationTicks": 226,
            "midi": 64,
            "name": "E4",
            "ticks": 155760,
            "time": 486.75,
            "velocity": 0.6299212598425197
          },
          {
            "duration": 3.706250000000068,
            "durationTicks": 1186,
            "midi": 67,
            "name": "G4",
            "ticks": 156000,
            "time": 487.5,
            "velocity": 0.5511811023622047
          },
          {
            "duration": 0.7062500000000682,
            "durationTicks": 226,
            "midi": 54,
            "name": "F#3",
            "ticks": 157200,
            "time": 491.25,
            "velocity": 0.6299212598425197
          },
          {
            "duration": 0.7062500000000682,
            "durationTicks": 226,
            "midi": 66,
            "name": "F#4",
            "ticks": 157200,
            "time": 491.25,
            "velocity": 0.6299212598425197
          },
          {
            "duration": 1.40625,
            "durationTicks": 450,
            "midi": 57,
            "name": "A3",
            "ticks": 157440,
            "time": 492,
            "velocity": 0.6299212598425197
          },
          {
            "duration": 1.40625,
            "durationTicks": 450,
            "midi": 69,
            "name": "A4",
            "ticks": 157440,
            "time": 492,
            "velocity": 0.6299212598425197
          },
          {
            "duration": 2.206250000000068,
            "durationTicks": 706,
            "midi": 59,
            "name": "B3",
            "ticks": 157920,
            "time": 493.5,
            "velocity": 0.6299212598425197
          },
          {
            "duration": 2.206250000000068,
            "durationTicks": 706,
            "midi": 71,
            "name": "B4",
            "ticks": 157920,
            "time": 493.5,
            "velocity": 0.6299212598425197
          },
          {
            "duration": 0.7062500000000682,
            "durationTicks": 226,
            "midi": 57,
            "name": "A3",
            "ticks": 158640,
            "time": 495.75,
            "velocity": 0.6377952755905512
          },
          {
            "duration": 0.7062500000000682,
            "durationTicks": 226,
            "midi": 69,
            "name": "A4",
            "ticks": 158640,
            "time": 495.75,
            "velocity": 0.6377952755905512
          },
          {
            "duration": 3.706250000000068,
            "durationTicks": 1186,
            "midi": 60,
            "name": "C4",
            "ticks": 158880,
            "time": 496.5,
            "velocity": 0.6456692913385826
          },
          {
            "duration": 3.706250000000068,
            "durationTicks": 1186,
            "midi": 72,
            "name": "C5",
            "ticks": 158880,
            "time": 496.5,
            "velocity": 0.6456692913385826
          },
          {
            "duration": 0.7062500000000682,
            "durationTicks": 226,
            "midi": 59,
            "name": "B3",
            "ticks": 160080,
            "time": 500.25,
            "velocity": 0.7086614173228346
          },
          {
            "duration": 0.7062500000000682,
            "durationTicks": 226,
            "midi": 71,
            "name": "B4",
            "ticks": 160080,
            "time": 500.25,
            "velocity": 0.7086614173228346
          },
          {
            "duration": 1.40625,
            "durationTicks": 450,
            "midi": 62,
            "name": "D4",
            "ticks": 160320,
            "time": 501,
            "velocity": 0.7244094488188977
          },
          {
            "duration": 1.40625,
            "durationTicks": 450,
            "midi": 64,
            "name": "E4",
            "ticks": 160800,
            "time": 502.5,
            "velocity": 0.7480314960629921
          },
          {
            "duration": 1.40625,
            "durationTicks": 450,
            "midi": 56,
            "name": "G#3",
            "ticks": 161280,
            "time": 504,
            "velocity": 0.7716535433070866
          },
          {
            "duration": 1.40625,
            "durationTicks": 450,
            "midi": 59,
            "name": "B3",
            "ticks": 161280,
            "time": 504,
            "velocity": 0.7716535433070866
          },
          {
            "duration": 1.40625,
            "durationTicks": 450,
            "midi": 68,
            "name": "G#4",
            "ticks": 161280,
            "time": 504,
            "velocity": 0.7716535433070866
          },
          {
            "duration": 1.40625,
            "durationTicks": 450,
            "midi": 71,
            "name": "B4",
            "ticks": 161280,
            "time": 504,
            "velocity": 0.7716535433070866
          },
          {
            "duration": 0.7062500000000682,
            "durationTicks": 226,
            "midi": 55,
            "name": "G3",
            "ticks": 161760,
            "time": 505.5,
            "velocity": 0.7952755905511811
          },
          {
            "duration": 0.7062500000000682,
            "durationTicks": 226,
            "midi": 58,
            "name": "A#3",
            "ticks": 161760,
            "time": 505.5,
            "velocity": 0.7952755905511811
          },
          {
            "duration": 0.7062500000000682,
            "durationTicks": 226,
            "midi": 67,
            "name": "G4",
            "ticks": 161760,
            "time": 505.5,
            "velocity": 0.7952755905511811
          },
          {
            "duration": 0.7062500000000682,
            "durationTicks": 226,
            "midi": 70,
            "name": "A#4",
            "ticks": 161760,
            "time": 505.5,
            "velocity": 0.7952755905511811
          },
          {
            "duration": 0.7062500000000682,
            "durationTicks": 226,
            "midi": 56,
            "name": "G#3",
            "ticks": 162000,
            "time": 506.25,
            "velocity": 0.8110236220472441
          },
          {
            "duration": 0.7062500000000682,
            "durationTicks": 226,
            "midi": 59,
            "name": "B3",
            "ticks": 162000,
            "time": 506.25,
            "velocity": 0.8110236220472441
          },
          {
            "duration": 0.7062500000000682,
            "durationTicks": 226,
            "midi": 68,
            "name": "G#4",
            "ticks": 162000,
            "time": 506.25,
            "velocity": 0.8110236220472441
          },
          {
            "duration": 0.7062500000000682,
            "durationTicks": 226,
            "midi": 71,
            "name": "B4",
            "ticks": 162000,
            "time": 506.25,
            "velocity": 0.8110236220472441
          },
          {
            "duration": 1.40625,
            "durationTicks": 450,
            "midi": 57,
            "name": "A3",
            "ticks": 162240,
            "time": 507,
            "velocity": 0.8267716535433071
          },
          {
            "duration": 1.40625,
            "durationTicks": 450,
            "midi": 60,
            "name": "C4",
            "ticks": 162240,
            "time": 507,
            "velocity": 0.8267716535433071
          },
          {
            "duration": 1.40625,
            "durationTicks": 450,
            "midi": 69,
            "name": "A4",
            "ticks": 162240,
            "time": 507,
            "velocity": 0.8267716535433071
          },
          {
            "duration": 1.40625,
            "durationTicks": 450,
            "midi": 72,
            "name": "C5",
            "ticks": 162240,
            "time": 507,
            "velocity": 0.8267716535433071
          },
          {
            "duration": 0.7062500000000682,
            "durationTicks": 226,
            "midi": 56,
            "name": "G#3",
            "ticks": 162720,
            "time": 508.5,
            "velocity": 0.8503937007874016
          },
          {
            "duration": 0.7062500000000682,
            "durationTicks": 226,
            "midi": 59,
            "name": "B3",
            "ticks": 162720,
            "time": 508.5,
            "velocity": 0.8503937007874016
          },
          {
            "duration": 0.7062500000000682,
            "durationTicks": 226,
            "midi": 68,
            "name": "G#4",
            "ticks": 162720,
            "time": 508.5,
            "velocity": 0.8503937007874016
          },
          {
            "duration": 0.7062500000000682,
            "durationTicks": 226,
            "midi": 71,
            "name": "B4",
            "ticks": 162720,
            "time": 508.5,
            "velocity": 0.8503937007874016
          },
          {
            "duration": 0.7062500000000682,
            "durationTicks": 226,
            "midi": 57,
            "name": "A3",
            "ticks": 162960,
            "time": 509.25,
            "velocity": 0.8582677165354331
          },
          {
            "duration": 0.7062500000000682,
            "durationTicks": 226,
            "midi": 60,
            "name": "C4",
            "ticks": 162960,
            "time": 509.25,
            "velocity": 0.8582677165354331
          },
          {
            "duration": 0.7062500000000682,
            "durationTicks": 226,
            "midi": 69,
            "name": "A4",
            "ticks": 162960,
            "time": 509.25,
            "velocity": 0.8582677165354331
          },
          {
            "duration": 0.7062500000000682,
            "durationTicks": 226,
            "midi": 72,
            "name": "C5",
            "ticks": 162960,
            "time": 509.25,
            "velocity": 0.8582677165354331
          },
          {
            "duration": 1.40625,
            "durationTicks": 450,
            "midi": 59,
            "name": "B3",
            "ticks": 163200,
            "time": 510,
            "velocity": 0.8740157480314961
          },
          {
            "duration": 1.40625,
            "durationTicks": 450,
            "midi": 62,
            "name": "D4",
            "ticks": 163200,
            "time": 510,
            "velocity": 0.8740157480314961
          },
          {
            "duration": 0.7062500000000682,
            "durationTicks": 226,
            "midi": 57,
            "name": "A3",
            "ticks": 163680,
            "time": 511.5,
            "velocity": 0.8976377952755905
          },
          {
            "duration": 0.7062500000000682,
            "durationTicks": 226,
            "midi": 61,
            "name": "C#4",
            "ticks": 163680,
            "time": 511.5,
            "velocity": 0.8976377952755905
          },
          {
            "duration": 0.7062500000000682,
            "durationTicks": 226,
            "midi": 59,
            "name": "B3",
            "ticks": 163920,
            "time": 512.25,
            "velocity": 0.9133858267716536
          },
          {
            "duration": 0.7062500000000682,
            "durationTicks": 226,
            "midi": 62,
            "name": "D4",
            "ticks": 163920,
            "time": 512.25,
            "velocity": 0.9133858267716536
          },
          {
            "duration": 1.40625,
            "durationTicks": 450,
            "midi": 52,
            "name": "E3",
            "ticks": 164160,
            "time": 513,
            "velocity": 0.9212598425196851
          },
          {
            "duration": 1.40625,
            "durationTicks": 450,
            "midi": 61,
            "name": "C#4",
            "ticks": 164160,
            "time": 513,
            "velocity": 0.9212598425196851
          },
          {
            "duration": 1.40625,
            "durationTicks": 450,
            "midi": 57,
            "name": "A3",
            "ticks": 164640,
            "time": 514.5,
            "velocity": 0.9212598425196851
          },
          {
            "duration": 1.40625,
            "durationTicks": 450,
            "midi": 61,
            "name": "C#4",
            "ticks": 164640,
            "time": 514.5,
            "velocity": 0.9212598425196851
          },
          {
            "duration": 1.40625,
            "durationTicks": 450,
            "midi": 52,
            "name": "E3",
            "ticks": 165120,
            "time": 516,
            "velocity": 0.9212598425196851
          },
          {
            "duration": 1.40625,
            "durationTicks": 450,
            "midi": 61,
            "name": "C#4",
            "ticks": 165120,
            "time": 516,
            "velocity": 0.9212598425196851
          },
          {
            "duration": 1.40625,
            "durationTicks": 450,
            "midi": 57,
            "name": "A3",
            "ticks": 165600,
            "time": 517.5,
            "velocity": 0.9212598425196851
          },
          {
            "duration": 1.40625,
            "durationTicks": 450,
            "midi": 62,
            "name": "D4",
            "ticks": 165600,
            "time": 517.5,
            "velocity": 0.9212598425196851
          },
          {
            "duration": 1.40625,
            "durationTicks": 450,
            "midi": 56,
            "name": "G#3",
            "ticks": 166080,
            "time": 519,
            "velocity": 0.9448818897637795
          },
          {
            "duration": 1.40625,
            "durationTicks": 450,
            "midi": 62,
            "name": "D4",
            "ticks": 166080,
            "time": 519,
            "velocity": 0.9448818897637795
          },
          {
            "duration": 1.40625,
            "durationTicks": 450,
            "midi": 59,
            "name": "B3",
            "ticks": 166560,
            "time": 520.5,
            "velocity": 0.9448818897637795
          },
          {
            "duration": 1.40625,
            "durationTicks": 450,
            "midi": 62,
            "name": "D4",
            "ticks": 166560,
            "time": 520.5,
            "velocity": 0.9448818897637795
          },
          {
            "duration": 4.21875,
            "durationTicks": 1350,
            "midi": 60,
            "name": "C4",
            "ticks": 167040,
            "time": 522,
            "velocity": 0.9448818897637795
          },
          {
            "duration": 4.21875,
            "durationTicks": 1350,
            "midi": 64,
            "name": "E4",
            "ticks": 167040,
            "time": 522,
            "velocity": 0.9448818897637795
          },
          {
            "duration": 1.40625,
            "durationTicks": 450,
            "midi": 61,
            "name": "C#4",
            "ticks": 168480,
            "time": 526.5,
            "velocity": 0.9212598425196851
          },
          {
            "duration": 1.40625,
            "durationTicks": 450,
            "midi": 64,
            "name": "E4",
            "ticks": 168480,
            "time": 526.5,
            "velocity": 0.9212598425196851
          },
          {
            "duration": 1.40625,
            "durationTicks": 450,
            "midi": 62,
            "name": "D4",
            "ticks": 168960,
            "time": 528,
            "velocity": 0.9448818897637795
          },
          {
            "duration": 1.40625,
            "durationTicks": 450,
            "midi": 55,
            "name": "G3",
            "ticks": 169440,
            "time": 529.5,
            "velocity": 0.9448818897637795
          },
          {
            "duration": 1.40625,
            "durationTicks": 450,
            "midi": 57,
            "name": "A3",
            "ticks": 169440,
            "time": 529.5,
            "velocity": 0.9448818897637795
          },
          {
            "duration": 4.21875,
            "durationTicks": 1350,
            "midi": 57,
            "name": "A3",
            "ticks": 169920,
            "time": 531,
            "velocity": 0.9448818897637795
          },
          {
            "duration": 4.21875,
            "durationTicks": 1350,
            "midi": 62,
            "name": "D4",
            "ticks": 169920,
            "time": 531,
            "velocity": 0.9448818897637795
          },
          {
            "duration": 1.40625,
            "durationTicks": 450,
            "midi": 58,
            "name": "A#3",
            "ticks": 171360,
            "time": 535.5,
            "velocity": 1
          },
          {
            "duration": 4.21875,
            "durationTicks": 1350,
            "midi": 61,
            "name": "C#4",
            "ticks": 171360,
            "time": 535.5,
            "velocity": 0.9448818897637795
          },
          {
            "duration": 1.40625,
            "durationTicks": 450,
            "midi": 57,
            "name": "A3",
            "ticks": 171840,
            "time": 537,
            "velocity": 1
          },
          {
            "duration": 1.40625,
            "durationTicks": 450,
            "midi": 52,
            "name": "E3",
            "ticks": 172320,
            "time": 538.5,
            "velocity": 1
          },
          {
            "duration": 1.40625,
            "durationTicks": 450,
            "midi": 55,
            "name": "G3",
            "ticks": 172320,
            "time": 538.5,
            "velocity": 1
          },
          {
            "duration": 4.21875,
            "durationTicks": 1350,
            "midi": 54,
            "name": "F#3",
            "ticks": 172800,
            "time": 540,
            "velocity": 0.9448818897637795
          },
          {
            "duration": 4.21875,
            "durationTicks": 1350,
            "midi": 59,
            "name": "B3",
            "ticks": 172800,
            "time": 540,
            "velocity": 0.9448818897637795
          },
          {
            "duration": 1.40625,
            "durationTicks": 450,
            "midi": 55,
            "name": "G3",
            "ticks": 174240,
            "time": 544.5,
            "velocity": 1
          },
          {
            "duration": 1.40625,
            "durationTicks": 450,
            "midi": 58,
            "name": "A#3",
            "ticks": 174240,
            "time": 544.5,
            "velocity": 1
          },
          {
            "duration": 1.40625,
            "durationTicks": 450,
            "midi": 54,
            "name": "F#3",
            "ticks": 174720,
            "time": 546,
            "velocity": 1
          },
          {
            "duration": 1.40625,
            "durationTicks": 450,
            "midi": 58,
            "name": "A#3",
            "ticks": 174720,
            "time": 546,
            "velocity": 1
          },
          {
            "duration": 1.40625,
            "durationTicks": 450,
            "midi": 52,
            "name": "E3",
            "ticks": 175200,
            "time": 547.5,
            "velocity": 1
          },
          {
            "duration": 1.40625,
            "durationTicks": 450,
            "midi": 61,
            "name": "C#4",
            "ticks": 175200,
            "time": 547.5,
            "velocity": 1
          },
          {
            "duration": 4.21875,
            "durationTicks": 1350,
            "midi": 51,
            "name": "D#3",
            "ticks": 175680,
            "time": 549,
            "velocity": 0.9448818897637795
          },
          {
            "duration": 4.21875,
            "durationTicks": 1350,
            "midi": 54,
            "name": "F#3",
            "ticks": 175680,
            "time": 549,
            "velocity": 0.9448818897637795
          },
          {
            "duration": 4.21875,
            "durationTicks": 1350,
            "midi": 69,
            "name": "A4",
            "ticks": 177120,
            "time": 553.5,
            "velocity": 0.9448818897637795
          },
          {
            "duration": 4.21875,
            "durationTicks": 1350,
            "midi": 71,
            "name": "B4",
            "ticks": 177120,
            "time": 553.5,
            "velocity": 0.9448818897637795
          },
          {
            "duration": 4.21875,
            "durationTicks": 1350,
            "midi": 64,
            "name": "E4",
            "ticks": 178560,
            "time": 558,
            "velocity": 0.9448818897637795
          },
          {
            "duration": 4.21875,
            "durationTicks": 1350,
            "midi": 71,
            "name": "B4",
            "ticks": 178560,
            "time": 558,
            "velocity": 0.9448818897637795
          },
          {
            "duration": 2.8125,
            "durationTicks": 900,
            "midi": 67,
            "name": "G4",
            "ticks": 180000,
            "time": 562.5,
            "velocity": 0.9448818897637795
          },
          {
            "duration": 2.8125,
            "durationTicks": 900,
            "midi": 71,
            "name": "B4",
            "ticks": 180000,
            "time": 562.5,
            "velocity": 0.9448818897637795
          },
          {
            "duration": 1.40625,
            "durationTicks": 450,
            "midi": 62,
            "name": "D4",
            "ticks": 180960,
            "time": 565.5,
            "velocity": 0.9448818897637795
          },
          {
            "duration": 1.40625,
            "durationTicks": 450,
            "midi": 67,
            "name": "G4",
            "ticks": 180960,
            "time": 565.5,
            "velocity": 0.9448818897637795
          },
          {
            "duration": 0.7062500000000682,
            "durationTicks": 226,
            "midi": 47,
            "name": "B2",
            "ticks": 181440,
            "time": 567,
            "velocity": 1
          },
          {
            "duration": 0.7062500000000682,
            "durationTicks": 226,
            "midi": 59,
            "name": "B3",
            "ticks": 181440,
            "time": 567,
            "velocity": 1
          },
          {
            "duration": 8.90625,
            "durationTicks": 2850,
            "midi": 54,
            "name": "F#3",
            "ticks": 181920,
            "time": 568.5,
            "velocity": 0.9448818897637795
          },
          {
            "duration": 1.0499999999999545,
            "durationTicks": 336,
            "midi": 66,
            "name": "F#4",
            "ticks": 184320,
            "time": 576,
            "velocity": 1
          },
          {
            "duration": 8.90625,
            "durationTicks": 2850,
            "midi": 54,
            "name": "F#3",
            "ticks": 184800,
            "time": 577.5,
            "velocity": 0.9448818897637795
          },
          {
            "duration": 1.0499999999999545,
            "durationTicks": 336,
            "midi": 66,
            "name": "F#4",
            "ticks": 187200,
            "time": 585,
            "velocity": 1
          },
          {
            "duration": 8.90625,
            "durationTicks": 2850,
            "midi": 42,
            "name": "F#2",
            "ticks": 187680,
            "time": 586.5,
            "velocity": 0.9448818897637795
          },
          {
            "duration": 1.0499999999999545,
            "durationTicks": 336,
            "midi": 49,
            "name": "C#3",
            "ticks": 190080,
            "time": 594,
            "velocity": 1
          },
          {
            "duration": 8.90625,
            "durationTicks": 2850,
            "midi": 42,
            "name": "F#2",
            "ticks": 190560,
            "time": 595.5,
            "velocity": 0.9448818897637795
          },
          {
            "duration": 1.0499999999999545,
            "durationTicks": 336,
            "midi": 49,
            "name": "C#3",
            "ticks": 192960,
            "time": 603,
            "velocity": 1
          },
          {
            "duration": 4.40625,
            "durationTicks": 1410,
            "midi": 42,
            "name": "F#2",
            "ticks": 193440,
            "time": 604.5,
            "velocity": 0.9448818897637795
          },
          {
            "duration": 4.40625,
            "durationTicks": 1410,
            "midi": 42,
            "name": "F#2",
            "ticks": 194880,
            "time": 609,
            "velocity": 0.9448818897637795
          },
          {
            "duration": 3.449999999999932,
            "durationTicks": 1104,
            "midi": 42,
            "name": "F#2",
            "ticks": 196336,
            "time": 613.5500000000001,
            "velocity": 0.5669291338582677
          },
          {
            "duration": 38.20625000000007,
            "durationTicks": 12226,
            "midi": 47,
            "name": "B2",
            "ticks": 211680,
            "time": 661.5,
            "velocity": 0.5511811023622047
          },
          {
            "duration": 2.8125,
            "durationTicks": 900,
            "midi": 58,
            "name": "A#3",
            "ticks": 220320,
            "time": 688.5,
            "velocity": 0.47244094488188976
          },
          {
            "duration": 1.40625,
            "durationTicks": 450,
            "midi": 59,
            "name": "B3",
            "ticks": 221280,
            "time": 691.5,
            "velocity": 0.47244094488188976
          }
        ]
      },
      {
        "channel": 0,
        "controlChanges": {},
        "pitchBends": [],
        "instrument": {
          "family": "piano",
          "number": 0,
          "name": "acoustic grand piano"
        },
        "name": "Trumpets",
        "notes": [],
        "endOfTrackTicks": 182880
      },
      {
        "channel": 5,
        "controlChanges": {
          "7": [
            {
              "number": 7,
              "ticks": 0,
              "time": 0,
              "value": 1
            }
          ],
          "10": [
            {
              "number": 10,
              "ticks": 0,
              "time": 0,
              "value": 0.5511811023622047
            }
          ]
        },
        "pitchBends": [],
        "instrument": {
          "family": "brass",
          "number": 56,
          "name": "trumpet"
        },
        "name": "",
        "notes": [
          {
            "duration": 1.40625,
            "durationTicks": 450,
            "midi": 68,
            "name": "G#4",
            "ticks": 73440,
            "time": 229.5,
            "velocity": 0.5196850393700787
          },
          {
            "duration": 1.40625,
            "durationTicks": 450,
            "midi": 66,
            "name": "F#4",
            "ticks": 73920,
            "time": 231,
            "velocity": 0.5354330708661418
          },
          {
            "duration": 1.40625,
            "durationTicks": 450,
            "midi": 64,
            "name": "E4",
            "ticks": 74400,
            "time": 232.5,
            "velocity": 0.5511811023622047
          },
          {
            "duration": 0.7062500000000114,
            "durationTicks": 226,
            "midi": 62,
            "name": "D4",
            "ticks": 74880,
            "time": 234,
            "velocity": 0.5669291338582677
          },
          {
            "duration": 1.40625,
            "durationTicks": 450,
            "midi": 71,
            "name": "B4",
            "ticks": 76320,
            "time": 238.5,
            "velocity": 0.6141732283464567
          },
          {
            "duration": 0.7062500000000114,
            "durationTicks": 226,
            "midi": 69,
            "name": "A4",
            "ticks": 76800,
            "time": 240,
            "velocity": 0.6377952755905512
          },
          {
            "duration": 0.7062500000000114,
            "durationTicks": 226,
            "midi": 67,
            "name": "G4",
            "ticks": 77040,
            "time": 240.75,
            "velocity": 0.6456692913385826
          },
          {
            "duration": 0.7062500000000114,
            "durationTicks": 226,
            "midi": 66,
            "name": "F#4",
            "ticks": 77280,
            "time": 241.5,
            "velocity": 0.6535433070866141
          },
          {
            "duration": 0.7062500000000114,
            "durationTicks": 226,
            "midi": 65,
            "name": "F4",
            "ticks": 77520,
            "time": 242.25,
            "velocity": 0.6614173228346457
          },
          {
            "duration": 0.7062500000000114,
            "durationTicks": 226,
            "midi": 64,
            "name": "E4",
            "ticks": 77760,
            "time": 243,
            "velocity": 0.6614173228346457
          },
          {
            "duration": 1.40625,
            "durationTicks": 450,
            "midi": 62,
            "name": "D4",
            "ticks": 90240,
            "time": 282,
            "velocity": 0.8267716535433071
          },
          {
            "duration": 1.40625,
            "durationTicks": 450,
            "midi": 62,
            "name": "D4",
            "ticks": 90720,
            "time": 283.5,
            "velocity": 0.8267716535433071
          },
          {
            "duration": 1.40625,
            "durationTicks": 450,
            "midi": 61,
            "name": "C#4",
            "ticks": 91200,
            "time": 285,
            "velocity": 0.8267716535433071
          },
          {
            "duration": 1.40625,
            "durationTicks": 450,
            "midi": 59,
            "name": "B3",
            "ticks": 91680,
            "time": 286.5,
            "velocity": 0.8267716535433071
          },
          {
            "duration": 0.7062500000000114,
            "durationTicks": 226,
            "midi": 57,
            "name": "A3",
            "ticks": 92160,
            "time": 288,
            "velocity": 0.8267716535433071
          },
          {
            "duration": 1.40625,
            "durationTicks": 450,
            "midi": 62,
            "name": "D4",
            "ticks": 93120,
            "time": 291,
            "velocity": 0.8267716535433071
          },
          {
            "duration": 1.40625,
            "durationTicks": 450,
            "midi": 62,
            "name": "D4",
            "ticks": 93600,
            "time": 292.5,
            "velocity": 0.8267716535433071
          },
          {
            "duration": 1.40625,
            "durationTicks": 450,
            "midi": 61,
            "name": "C#4",
            "ticks": 94080,
            "time": 294,
            "velocity": 0.8267716535433071
          },
          {
            "duration": 1.40625,
            "durationTicks": 450,
            "midi": 60,
            "name": "C4",
            "ticks": 94560,
            "time": 295.5,
            "velocity": 0.8267716535433071
          },
          {
            "duration": 2.2062500000000114,
            "durationTicks": 706,
            "midi": 59,
            "name": "B3",
            "ticks": 95040,
            "time": 297,
            "velocity": 0.7874015748031497
          },
          {
            "duration": 1.40625,
            "durationTicks": 450,
            "midi": 68,
            "name": "G#4",
            "ticks": 96480,
            "time": 301.5,
            "velocity": 0.8267716535433071
          },
          {
            "duration": 1.40625,
            "durationTicks": 450,
            "midi": 66,
            "name": "F#4",
            "ticks": 96960,
            "time": 303,
            "velocity": 0.8267716535433071
          },
          {
            "duration": 1.40625,
            "durationTicks": 450,
            "midi": 64,
            "name": "E4",
            "ticks": 97440,
            "time": 304.5,
            "velocity": 0.8267716535433071
          },
          {
            "duration": 2.2062500000000114,
            "durationTicks": 706,
            "midi": 62,
            "name": "D4",
            "ticks": 97920,
            "time": 306,
            "velocity": 0.8267716535433071
          },
          {
            "duration": 1.40625,
            "durationTicks": 450,
            "midi": 71,
            "name": "B4",
            "ticks": 99360,
            "time": 310.5,
            "velocity": 0.889763779527559
          },
          {
            "duration": 1.40625,
            "durationTicks": 450,
            "midi": 69,
            "name": "A4",
            "ticks": 99840,
            "time": 312,
            "velocity": 0.905511811023622
          },
          {
            "duration": 1.40625,
            "durationTicks": 450,
            "midi": 67,
            "name": "G4",
            "ticks": 100320,
            "time": 313.5,
            "velocity": 0.9291338582677166
          },
          {
            "duration": 0.46875,
            "durationTicks": 150,
            "midi": 66,
            "name": "F#4",
            "ticks": 100800,
            "time": 315,
            "velocity": 0.9606299212598425
          },
          {
            "duration": 0.46875,
            "durationTicks": 150,
            "midi": 66,
            "name": "F#4",
            "ticks": 100960,
            "time": 315.5,
            "velocity": 0.9606299212598425
          },
          {
            "duration": 0.96875,
            "durationTicks": 310,
            "midi": 66,
            "name": "F#4",
            "ticks": 101120,
            "time": 316,
            "velocity": 0.9606299212598425
          },
          {
            "duration": 0.46875,
            "durationTicks": 150,
            "midi": 66,
            "name": "F#4",
            "ticks": 101440,
            "time": 317,
            "velocity": 0.9606299212598425
          },
          {
            "duration": 0.96875,
            "durationTicks": 310,
            "midi": 66,
            "name": "F#4",
            "ticks": 101600,
            "time": 317.5,
            "velocity": 0.9606299212598425
          },
          {
            "duration": 0.46875,
            "durationTicks": 150,
            "midi": 66,
            "name": "F#4",
            "ticks": 101920,
            "time": 318.5,
            "velocity": 0.9606299212598425
          },
          {
            "duration": 0.96875,
            "durationTicks": 310,
            "midi": 66,
            "name": "F#4",
            "ticks": 102080,
            "time": 319,
            "velocity": 0.9606299212598425
          },
          {
            "duration": 0.46875,
            "durationTicks": 150,
            "midi": 72,
            "name": "C5",
            "ticks": 103680,
            "time": 324,
            "velocity": 0.8661417322834646
          },
          {
            "duration": 0.46875,
            "durationTicks": 150,
            "midi": 76,
            "name": "E5",
            "ticks": 103680,
            "time": 324,
            "velocity": 0.8661417322834646
          },
          {
            "duration": 0.46875,
            "durationTicks": 150,
            "midi": 72,
            "name": "C5",
            "ticks": 103840,
            "time": 324.5,
            "velocity": 0.8661417322834646
          },
          {
            "duration": 0.46875,
            "durationTicks": 150,
            "midi": 76,
            "name": "E5",
            "ticks": 103840,
            "time": 324.5,
            "velocity": 0.8661417322834646
          },
          {
            "duration": 0.96875,
            "durationTicks": 310,
            "midi": 72,
            "name": "C5",
            "ticks": 104000,
            "time": 325,
            "velocity": 0.8661417322834646
          },
          {
            "duration": 0.96875,
            "durationTicks": 310,
            "midi": 76,
            "name": "E5",
            "ticks": 104000,
            "time": 325,
            "velocity": 0.8661417322834646
          },
          {
            "duration": 0.46875,
            "durationTicks": 150,
            "midi": 72,
            "name": "C5",
            "ticks": 104320,
            "time": 326,
            "velocity": 0.8661417322834646
          },
          {
            "duration": 0.46875,
            "durationTicks": 150,
            "midi": 76,
            "name": "E5",
            "ticks": 104320,
            "time": 326,
            "velocity": 0.8661417322834646
          },
          {
            "duration": 0.96875,
            "durationTicks": 310,
            "midi": 72,
            "name": "C5",
            "ticks": 104480,
            "time": 326.5,
            "velocity": 0.8661417322834646
          },
          {
            "duration": 0.96875,
            "durationTicks": 310,
            "midi": 76,
            "name": "E5",
            "ticks": 104480,
            "time": 326.5,
            "velocity": 0.8661417322834646
          },
          {
            "duration": 0.46875,
            "durationTicks": 150,
            "midi": 72,
            "name": "C5",
            "ticks": 104800,
            "time": 327.5,
            "velocity": 0.8661417322834646
          },
          {
            "duration": 0.46875,
            "durationTicks": 150,
            "midi": 76,
            "name": "E5",
            "ticks": 104800,
            "time": 327.5,
            "velocity": 0.8661417322834646
          },
          {
            "duration": 0.96875,
            "durationTicks": 310,
            "midi": 72,
            "name": "C5",
            "ticks": 104960,
            "time": 328,
            "velocity": 0.8661417322834646
          },
          {
            "duration": 0.96875,
            "durationTicks": 310,
            "midi": 76,
            "name": "E5",
            "ticks": 104960,
            "time": 328,
            "velocity": 0.8661417322834646
          },
          {
            "duration": 0.46875,
            "durationTicks": 150,
            "midi": 67,
            "name": "G4",
            "ticks": 106560,
            "time": 333,
            "velocity": 0.8661417322834646
          },
          {
            "duration": 0.46875,
            "durationTicks": 150,
            "midi": 72,
            "name": "C5",
            "ticks": 106560,
            "time": 333,
            "velocity": 0.8661417322834646
          },
          {
            "duration": 0.46875,
            "durationTicks": 150,
            "midi": 67,
            "name": "G4",
            "ticks": 106720,
            "time": 333.5,
            "velocity": 0.8661417322834646
          },
          {
            "duration": 0.46875,
            "durationTicks": 150,
            "midi": 72,
            "name": "C5",
            "ticks": 106720,
            "time": 333.5,
            "velocity": 0.8661417322834646
          },
          {
            "duration": 0.96875,
            "durationTicks": 310,
            "midi": 67,
            "name": "G4",
            "ticks": 106880,
            "time": 334,
            "velocity": 0.8661417322834646
          },
          {
            "duration": 0.96875,
            "durationTicks": 310,
            "midi": 72,
            "name": "C5",
            "ticks": 106880,
            "time": 334,
            "velocity": 0.8661417322834646
          },
          {
            "duration": 0.46875,
            "durationTicks": 150,
            "midi": 67,
            "name": "G4",
            "ticks": 107200,
            "time": 335,
            "velocity": 0.8661417322834646
          },
          {
            "duration": 0.46875,
            "durationTicks": 150,
            "midi": 72,
            "name": "C5",
            "ticks": 107200,
            "time": 335,
            "velocity": 0.8661417322834646
          },
          {
            "duration": 0.96875,
            "durationTicks": 310,
            "midi": 67,
            "name": "G4",
            "ticks": 107360,
            "time": 335.5,
            "velocity": 0.8661417322834646
          },
          {
            "duration": 0.96875,
            "durationTicks": 310,
            "midi": 72,
            "name": "C5",
            "ticks": 107360,
            "time": 335.5,
            "velocity": 0.8661417322834646
          },
          {
            "duration": 0.46875,
            "durationTicks": 150,
            "midi": 67,
            "name": "G4",
            "ticks": 107680,
            "time": 336.5,
            "velocity": 0.8661417322834646
          },
          {
            "duration": 0.46875,
            "durationTicks": 150,
            "midi": 72,
            "name": "C5",
            "ticks": 107680,
            "time": 336.5,
            "velocity": 0.8661417322834646
          },
          {
            "duration": 0.96875,
            "durationTicks": 310,
            "midi": 67,
            "name": "G4",
            "ticks": 107840,
            "time": 337,
            "velocity": 0.8661417322834646
          },
          {
            "duration": 0.96875,
            "durationTicks": 310,
            "midi": 72,
            "name": "C5",
            "ticks": 107840,
            "time": 337,
            "velocity": 0.8661417322834646
          },
          {
            "duration": 0.3562500000000455,
            "durationTicks": 114,
            "midi": 72,
            "name": "C5",
            "ticks": 109440,
            "time": 342,
            "velocity": 1
          },
          {
            "duration": 0.3562500000000455,
            "durationTicks": 114,
            "midi": 76,
            "name": "E5",
            "ticks": 109440,
            "time": 342,
            "velocity": 1
          },
          {
            "duration": 0.3562500000000455,
            "durationTicks": 114,
            "midi": 72,
            "name": "C5",
            "ticks": 110400,
            "time": 345,
            "velocity": 1
          },
          {
            "duration": 0.3562500000000455,
            "durationTicks": 114,
            "midi": 76,
            "name": "E5",
            "ticks": 110400,
            "time": 345,
            "velocity": 1
          },
          {
            "duration": 0.3562500000000455,
            "durationTicks": 114,
            "midi": 72,
            "name": "C5",
            "ticks": 111360,
            "time": 348,
            "velocity": 1
          },
          {
            "duration": 0.3562500000000455,
            "durationTicks": 114,
            "midi": 76,
            "name": "E5",
            "ticks": 111360,
            "time": 348,
            "velocity": 1
          },
          {
            "duration": 0.3562500000000455,
            "durationTicks": 114,
            "midi": 72,
            "name": "C5",
            "ticks": 112320,
            "time": 351,
            "velocity": 1
          },
          {
            "duration": 0.3562500000000455,
            "durationTicks": 114,
            "midi": 76,
            "name": "E5",
            "ticks": 112320,
            "time": 351,
            "velocity": 1
          },
          {
            "duration": 0.7062500000000114,
            "durationTicks": 226,
            "midi": 72,
            "name": "C5",
            "ticks": 115440,
            "time": 360.75,
            "velocity": 1
          },
          {
            "duration": 0.7062500000000114,
            "durationTicks": 226,
            "midi": 76,
            "name": "E5",
            "ticks": 115440,
            "time": 360.75,
            "velocity": 1
          },
          {
            "duration": 1.40625,
            "durationTicks": 450,
            "midi": 74,
            "name": "D5",
            "ticks": 160320,
            "time": 501,
            "velocity": 0.7244094488188977
          },
          {
            "duration": 1.40625,
            "durationTicks": 450,
            "midi": 76,
            "name": "E5",
            "ticks": 160800,
            "time": 502.5,
            "velocity": 0.7480314960629921
          },
          {
            "duration": 2.8125,
            "durationTicks": 900,
            "midi": 64,
            "name": "E4",
            "ticks": 161280,
            "time": 504,
            "velocity": 0.7716535433070866
          },
          {
            "duration": 2.8125,
            "durationTicks": 900,
            "midi": 76,
            "name": "E5",
            "ticks": 161280,
            "time": 504,
            "velocity": 0.7716535433070866
          },
          {
            "duration": 0.7062500000000682,
            "durationTicks": 226,
            "midi": 63,
            "name": "D#4",
            "ticks": 162240,
            "time": 507,
            "velocity": 0.8267716535433071
          },
          {
            "duration": 0.7062500000000682,
            "durationTicks": 226,
            "midi": 75,
            "name": "D#5",
            "ticks": 162240,
            "time": 507,
            "velocity": 0.8267716535433071
          },
          {
            "duration": 0.7062500000000682,
            "durationTicks": 226,
            "midi": 64,
            "name": "E4",
            "ticks": 162480,
            "time": 507.75,
            "velocity": 0.8346456692913385
          },
          {
            "duration": 0.7062500000000682,
            "durationTicks": 226,
            "midi": 76,
            "name": "E5",
            "ticks": 162480,
            "time": 507.75,
            "velocity": 0.8346456692913385
          },
          {
            "duration": 1.40625,
            "durationTicks": 450,
            "midi": 64,
            "name": "E4",
            "ticks": 162720,
            "time": 508.5,
            "velocity": 0.8503937007874016
          },
          {
            "duration": 1.40625,
            "durationTicks": 450,
            "midi": 76,
            "name": "E5",
            "ticks": 162720,
            "time": 508.5,
            "velocity": 0.8503937007874016
          },
          {
            "duration": 2.8125,
            "durationTicks": 900,
            "midi": 67,
            "name": "G4",
            "ticks": 163200,
            "time": 510,
            "velocity": 0.8740157480314961
          },
          {
            "duration": 2.8125,
            "durationTicks": 900,
            "midi": 79,
            "name": "G5",
            "ticks": 163200,
            "time": 510,
            "velocity": 0.8740157480314961
          },
          {
            "duration": 1.40625,
            "durationTicks": 450,
            "midi": 64,
            "name": "E4",
            "ticks": 164160,
            "time": 513,
            "velocity": 0.9212598425196851
          },
          {
            "duration": 1.40625,
            "durationTicks": 450,
            "midi": 73,
            "name": "C#5",
            "ticks": 164160,
            "time": 513,
            "velocity": 0.9212598425196851
          },
          {
            "duration": 1.40625,
            "durationTicks": 450,
            "midi": 69,
            "name": "A4",
            "ticks": 164640,
            "time": 514.5,
            "velocity": 0.9212598425196851
          },
          {
            "duration": 1.40625,
            "durationTicks": 450,
            "midi": 73,
            "name": "C#5",
            "ticks": 164640,
            "time": 514.5,
            "velocity": 0.9212598425196851
          },
          {
            "duration": 1.40625,
            "durationTicks": 450,
            "midi": 64,
            "name": "E4",
            "ticks": 165120,
            "time": 516,
            "velocity": 0.9212598425196851
          },
          {
            "duration": 1.40625,
            "durationTicks": 450,
            "midi": 73,
            "name": "C#5",
            "ticks": 165120,
            "time": 516,
            "velocity": 0.9212598425196851
          },
          {
            "duration": 1.40625,
            "durationTicks": 450,
            "midi": 69,
            "name": "A4",
            "ticks": 165600,
            "time": 517.5,
            "velocity": 0.9212598425196851
          },
          {
            "duration": 1.40625,
            "durationTicks": 450,
            "midi": 74,
            "name": "D5",
            "ticks": 165600,
            "time": 517.5,
            "velocity": 0.9212598425196851
          },
          {
            "duration": 1.40625,
            "durationTicks": 450,
            "midi": 68,
            "name": "G#4",
            "ticks": 166080,
            "time": 519,
            "velocity": 0.9448818897637795
          },
          {
            "duration": 1.40625,
            "durationTicks": 450,
            "midi": 74,
            "name": "D5",
            "ticks": 166080,
            "time": 519,
            "velocity": 0.9448818897637795
          },
          {
            "duration": 1.40625,
            "durationTicks": 450,
            "midi": 71,
            "name": "B4",
            "ticks": 166560,
            "time": 520.5,
            "velocity": 0.9448818897637795
          },
          {
            "duration": 1.40625,
            "durationTicks": 450,
            "midi": 74,
            "name": "D5",
            "ticks": 166560,
            "time": 520.5,
            "velocity": 0.9448818897637795
          },
          {
            "duration": 4.21875,
            "durationTicks": 1350,
            "midi": 72,
            "name": "C5",
            "ticks": 167040,
            "time": 522,
            "velocity": 0.9448818897637795
          },
          {
            "duration": 4.21875,
            "durationTicks": 1350,
            "midi": 76,
            "name": "E5",
            "ticks": 167040,
            "time": 522,
            "velocity": 0.9448818897637795
          },
          {
            "duration": 1.40625,
            "durationTicks": 450,
            "midi": 73,
            "name": "C#5",
            "ticks": 168480,
            "time": 526.5,
            "velocity": 0.9212598425196851
          },
          {
            "duration": 1.40625,
            "durationTicks": 450,
            "midi": 76,
            "name": "E5",
            "ticks": 168480,
            "time": 526.5,
            "velocity": 0.9212598425196851
          },
          {
            "duration": 1.40625,
            "durationTicks": 450,
            "midi": 74,
            "name": "D5",
            "ticks": 168960,
            "time": 528,
            "velocity": 0.9448818897637795
          },
          {
            "duration": 1.40625,
            "durationTicks": 450,
            "midi": 67,
            "name": "G4",
            "ticks": 169440,
            "time": 529.5,
            "velocity": 0.9448818897637795
          },
          {
            "duration": 1.40625,
            "durationTicks": 450,
            "midi": 69,
            "name": "A4",
            "ticks": 169440,
            "time": 529.5,
            "velocity": 0.9448818897637795
          },
          {
            "duration": 4.21875,
            "durationTicks": 1350,
            "midi": 69,
            "name": "A4",
            "ticks": 169920,
            "time": 531,
            "velocity": 0.9448818897637795
          },
          {
            "duration": 4.21875,
            "durationTicks": 1350,
            "midi": 74,
            "name": "D5",
            "ticks": 169920,
            "time": 531,
            "velocity": 0.9448818897637795
          },
          {
            "duration": 1.40625,
            "durationTicks": 450,
            "midi": 70,
            "name": "A#4",
            "ticks": 171360,
            "time": 535.5,
            "velocity": 1
          },
          {
            "duration": 4.21875,
            "durationTicks": 1350,
            "midi": 72,
            "name": "C5",
            "ticks": 171360,
            "time": 535.5,
            "velocity": 0.9448818897637795
          },
          {
            "duration": 1.40625,
            "durationTicks": 450,
            "midi": 69,
            "name": "A4",
            "ticks": 171840,
            "time": 537,
            "velocity": 1
          },
          {
            "duration": 1.40625,
            "durationTicks": 450,
            "midi": 64,
            "name": "E4",
            "ticks": 172320,
            "time": 538.5,
            "velocity": 1
          },
          {
            "duration": 1.40625,
            "durationTicks": 450,
            "midi": 67,
            "name": "G4",
            "ticks": 172320,
            "time": 538.5,
            "velocity": 1
          },
          {
            "duration": 4.21875,
            "durationTicks": 1350,
            "midi": 66,
            "name": "F#4",
            "ticks": 172800,
            "time": 540,
            "velocity": 0.9448818897637795
          },
          {
            "duration": 4.21875,
            "durationTicks": 1350,
            "midi": 71,
            "name": "B4",
            "ticks": 172800,
            "time": 540,
            "velocity": 0.9448818897637795
          },
          {
            "duration": 1.40625,
            "durationTicks": 450,
            "midi": 67,
            "name": "G4",
            "ticks": 174240,
            "time": 544.5,
            "velocity": 1
          },
          {
            "duration": 1.40625,
            "durationTicks": 450,
            "midi": 70,
            "name": "A#4",
            "ticks": 174240,
            "time": 544.5,
            "velocity": 1
          },
          {
            "duration": 1.40625,
            "durationTicks": 450,
            "midi": 66,
            "name": "F#4",
            "ticks": 174720,
            "time": 546,
            "velocity": 1
          },
          {
            "duration": 1.40625,
            "durationTicks": 450,
            "midi": 70,
            "name": "A#4",
            "ticks": 174720,
            "time": 546,
            "velocity": 1
          },
          {
            "duration": 1.40625,
            "durationTicks": 450,
            "midi": 64,
            "name": "E4",
            "ticks": 175200,
            "time": 547.5,
            "velocity": 1
          },
          {
            "duration": 1.40625,
            "durationTicks": 450,
            "midi": 73,
            "name": "C#5",
            "ticks": 175200,
            "time": 547.5,
            "velocity": 1
          },
          {
            "duration": 1.40625,
            "durationTicks": 450,
            "midi": 68,
            "name": "G#4",
            "ticks": 175680,
            "time": 549,
            "velocity": 1
          },
          {
            "duration": 1.40625,
            "durationTicks": 450,
            "midi": 70,
            "name": "A#4",
            "ticks": 176160,
            "time": 550.5,
            "velocity": 1
          },
          {
            "duration": 1.40625,
            "durationTicks": 450,
            "midi": 71,
            "name": "B4",
            "ticks": 176640,
            "time": 552,
            "velocity": 1
          },
          {
            "duration": 1.40625,
            "durationTicks": 450,
            "midi": 73,
            "name": "C#5",
            "ticks": 177120,
            "time": 553.5,
            "velocity": 1
          },
          {
            "duration": 1.40625,
            "durationTicks": 450,
            "midi": 74,
            "name": "D5",
            "ticks": 177600,
            "time": 555,
            "velocity": 1
          },
          {
            "duration": 1.40625,
            "durationTicks": 450,
            "midi": 75,
            "name": "D#5",
            "ticks": 178080,
            "time": 556.5,
            "velocity": 1
          },
          {
            "duration": 1.40625,
            "durationTicks": 450,
            "midi": 76,
            "name": "E5",
            "ticks": 178560,
            "time": 558,
            "velocity": 1
          },
          {
            "duration": 1.40625,
            "durationTicks": 450,
            "midi": 78,
            "name": "F#5",
            "ticks": 179040,
            "time": 559.5,
            "velocity": 1
          },
          {
            "duration": 1.40625,
            "durationTicks": 450,
            "midi": 79,
            "name": "G5",
            "ticks": 179520,
            "time": 561,
            "velocity": 1
          },
          {
            "duration": 0.7062500000000682,
            "durationTicks": 226,
            "midi": 62,
            "name": "D4",
            "ticks": 181440,
            "time": 567,
            "velocity": 0.9448818897637795
          },
          {
            "duration": 0.7062500000000682,
            "durationTicks": 226,
            "midi": 66,
            "name": "F#4",
            "ticks": 181440,
            "time": 567,
            "velocity": 0.9448818897637795
          }
        ]
      },
      {
        "channel": 0,
        "controlChanges": {},
        "pitchBends": [],
        "instrument": {
          "family": "piano",
          "number": 0,
          "name": "acoustic grand piano"
        },
        "name": "Trombone 1",
        "notes": [],
        "endOfTrackTicks": 218880
      },
      {
        "channel": 6,
        "controlChanges": {
          "7": [
            {
              "number": 7,
              "ticks": 0,
              "time": 0,
              "value": 1
            }
          ],
          "10": [
            {
              "number": 10,
              "ticks": 0,
              "time": 0,
              "value": 0.6299212598425197
            }
          ]
        },
        "pitchBends": [],
        "instrument": {
          "family": "brass",
          "number": 57,
          "name": "trombone"
        },
        "name": "",
        "notes": [
          {
            "duration": 1.40625,
            "durationTicks": 450,
            "midi": 50,
            "name": "D3",
            "ticks": 67200,
            "time": 210,
            "velocity": 0.44881889763779526
          },
          {
            "duration": 1.40625,
            "durationTicks": 450,
            "midi": 62,
            "name": "D4",
            "ticks": 67200,
            "time": 210,
            "velocity": 0.44881889763779526
          },
          {
            "duration": 1.40625,
            "durationTicks": 450,
            "midi": 50,
            "name": "D3",
            "ticks": 67680,
            "time": 211.5,
            "velocity": 0.44881889763779526
          },
          {
            "duration": 1.40625,
            "durationTicks": 450,
            "midi": 62,
            "name": "D4",
            "ticks": 67680,
            "time": 211.5,
            "velocity": 0.44881889763779526
          },
          {
            "duration": 1.40625,
            "durationTicks": 450,
            "midi": 49,
            "name": "C#3",
            "ticks": 68160,
            "time": 213,
            "velocity": 0.44881889763779526
          },
          {
            "duration": 1.40625,
            "durationTicks": 450,
            "midi": 61,
            "name": "C#4",
            "ticks": 68160,
            "time": 213,
            "velocity": 0.44881889763779526
          },
          {
            "duration": 1.40625,
            "durationTicks": 450,
            "midi": 47,
            "name": "B2",
            "ticks": 68640,
            "time": 214.5,
            "velocity": 0.44881889763779526
          },
          {
            "duration": 1.40625,
            "durationTicks": 450,
            "midi": 59,
            "name": "B3",
            "ticks": 68640,
            "time": 214.5,
            "velocity": 0.44881889763779526
          },
          {
            "duration": 0.7062500000000114,
            "durationTicks": 226,
            "midi": 45,
            "name": "A2",
            "ticks": 69120,
            "time": 216,
            "velocity": 0.44881889763779526
          },
          {
            "duration": 0.7062500000000114,
            "durationTicks": 226,
            "midi": 57,
            "name": "A3",
            "ticks": 69120,
            "time": 216,
            "velocity": 0.44881889763779526
          },
          {
            "duration": 1.40625,
            "durationTicks": 450,
            "midi": 50,
            "name": "D3",
            "ticks": 70080,
            "time": 219,
            "velocity": 0.44881889763779526
          },
          {
            "duration": 1.40625,
            "durationTicks": 450,
            "midi": 62,
            "name": "D4",
            "ticks": 70080,
            "time": 219,
            "velocity": 0.44881889763779526
          },
          {
            "duration": 1.40625,
            "durationTicks": 450,
            "midi": 50,
            "name": "D3",
            "ticks": 70560,
            "time": 220.5,
            "velocity": 0.44881889763779526
          },
          {
            "duration": 1.40625,
            "durationTicks": 450,
            "midi": 62,
            "name": "D4",
            "ticks": 70560,
            "time": 220.5,
            "velocity": 0.44881889763779526
          },
          {
            "duration": 1.40625,
            "durationTicks": 450,
            "midi": 49,
            "name": "C#3",
            "ticks": 71040,
            "time": 222,
            "velocity": 0.44881889763779526
          },
          {
            "duration": 1.40625,
            "durationTicks": 450,
            "midi": 61,
            "name": "C#4",
            "ticks": 71040,
            "time": 222,
            "velocity": 0.44881889763779526
          },
          {
            "duration": 1.40625,
            "durationTicks": 450,
            "midi": 48,
            "name": "C3",
            "ticks": 71520,
            "time": 223.5,
            "velocity": 0.44881889763779526
          },
          {
            "duration": 1.40625,
            "durationTicks": 450,
            "midi": 60,
            "name": "C4",
            "ticks": 71520,
            "time": 223.5,
            "velocity": 0.44881889763779526
          },
          {
            "duration": 0.7062500000000114,
            "durationTicks": 226,
            "midi": 47,
            "name": "B2",
            "ticks": 72000,
            "time": 225,
            "velocity": 0.47244094488188976
          },
          {
            "duration": 0.7062500000000114,
            "durationTicks": 226,
            "midi": 59,
            "name": "B3",
            "ticks": 72000,
            "time": 225,
            "velocity": 0.47244094488188976
          },
          {
            "duration": 1.40625,
            "durationTicks": 450,
            "midi": 56,
            "name": "G#3",
            "ticks": 73440,
            "time": 229.5,
            "velocity": 0.5196850393700787
          },
          {
            "duration": 1.40625,
            "durationTicks": 450,
            "midi": 54,
            "name": "F#3",
            "ticks": 73920,
            "time": 231,
            "velocity": 0.5354330708661418
          },
          {
            "duration": 1.40625,
            "durationTicks": 450,
            "midi": 52,
            "name": "E3",
            "ticks": 74400,
            "time": 232.5,
            "velocity": 0.5511811023622047
          },
          {
            "duration": 0.7062500000000114,
            "durationTicks": 226,
            "midi": 50,
            "name": "D3",
            "ticks": 74880,
            "time": 234,
            "velocity": 0.5669291338582677
          },
          {
            "duration": 1.40625,
            "durationTicks": 450,
            "midi": 59,
            "name": "B3",
            "ticks": 76320,
            "time": 238.5,
            "velocity": 0.6141732283464567
          },
          {
            "duration": 0.7062500000000114,
            "durationTicks": 226,
            "midi": 57,
            "name": "A3",
            "ticks": 76800,
            "time": 240,
            "velocity": 0.6377952755905512
          },
          {
            "duration": 0.7062500000000114,
            "durationTicks": 226,
            "midi": 55,
            "name": "G3",
            "ticks": 77040,
            "time": 240.75,
            "velocity": 0.6456692913385826
          },
          {
            "duration": 0.7062500000000114,
            "durationTicks": 226,
            "midi": 54,
            "name": "F#3",
            "ticks": 77280,
            "time": 241.5,
            "velocity": 0.6535433070866141
          },
          {
            "duration": 0.7062500000000114,
            "durationTicks": 226,
            "midi": 53,
            "name": "F3",
            "ticks": 77520,
            "time": 242.25,
            "velocity": 0.6614173228346457
          },
          {
            "duration": 0.7062500000000114,
            "durationTicks": 226,
            "midi": 52,
            "name": "E3",
            "ticks": 77760,
            "time": 243,
            "velocity": 0.6614173228346457
          },
          {
            "duration": 1.40625,
            "durationTicks": 450,
            "midi": 50,
            "name": "D3",
            "ticks": 90240,
            "time": 282,
            "velocity": 0.8267716535433071
          },
          {
            "duration": 1.40625,
            "durationTicks": 450,
            "midi": 50,
            "name": "D3",
            "ticks": 90720,
            "time": 283.5,
            "velocity": 0.8267716535433071
          },
          {
            "duration": 1.40625,
            "durationTicks": 450,
            "midi": 49,
            "name": "C#3",
            "ticks": 91200,
            "time": 285,
            "velocity": 0.8267716535433071
          },
          {
            "duration": 1.40625,
            "durationTicks": 450,
            "midi": 47,
            "name": "B2",
            "ticks": 91680,
            "time": 286.5,
            "velocity": 0.8267716535433071
          },
          {
            "duration": 0.7062500000000114,
            "durationTicks": 226,
            "midi": 45,
            "name": "A2",
            "ticks": 92160,
            "time": 288,
            "velocity": 0.8267716535433071
          },
          {
            "duration": 1.40625,
            "durationTicks": 450,
            "midi": 50,
            "name": "D3",
            "ticks": 93120,
            "time": 291,
            "velocity": 0.8267716535433071
          },
          {
            "duration": 1.40625,
            "durationTicks": 450,
            "midi": 50,
            "name": "D3",
            "ticks": 93600,
            "time": 292.5,
            "velocity": 0.8267716535433071
          },
          {
            "duration": 1.40625,
            "durationTicks": 450,
            "midi": 49,
            "name": "C#3",
            "ticks": 94080,
            "time": 294,
            "velocity": 0.8267716535433071
          },
          {
            "duration": 1.40625,
            "durationTicks": 450,
            "midi": 48,
            "name": "C3",
            "ticks": 94560,
            "time": 295.5,
            "velocity": 0.8267716535433071
          },
          {
            "duration": 4.40625,
            "durationTicks": 1410,
            "midi": 47,
            "name": "B2",
            "ticks": 95040,
            "time": 297,
            "velocity": 0.7874015748031497
          },
          {
            "duration": 1.40625,
            "durationTicks": 450,
            "midi": 56,
            "name": "G#3",
            "ticks": 96480,
            "time": 301.5,
            "velocity": 0.8267716535433071
          },
          {
            "duration": 1.40625,
            "durationTicks": 450,
            "midi": 54,
            "name": "F#3",
            "ticks": 96960,
            "time": 303,
            "velocity": 0.8267716535433071
          },
          {
            "duration": 1.40625,
            "durationTicks": 450,
            "midi": 52,
            "name": "E3",
            "ticks": 97440,
            "time": 304.5,
            "velocity": 0.8267716535433071
          },
          {
            "duration": 4.40625,
            "durationTicks": 1410,
            "midi": 50,
            "name": "D3",
            "ticks": 97920,
            "time": 306,
            "velocity": 0.8267716535433071
          },
          {
            "duration": 1.40625,
            "durationTicks": 450,
            "midi": 59,
            "name": "B3",
            "ticks": 99360,
            "time": 310.5,
            "velocity": 0.889763779527559
          },
          {
            "duration": 1.40625,
            "durationTicks": 450,
            "midi": 57,
            "name": "A3",
            "ticks": 99840,
            "time": 312,
            "velocity": 0.905511811023622
          },
          {
            "duration": 1.40625,
            "durationTicks": 450,
            "midi": 55,
            "name": "G3",
            "ticks": 100320,
            "time": 313.5,
            "velocity": 0.9291338582677166
          },
          {
            "duration": 0.46875,
            "durationTicks": 150,
            "midi": 54,
            "name": "F#3",
            "ticks": 100800,
            "time": 315,
            "velocity": 0.9606299212598425
          },
          {
            "duration": 0.46875,
            "durationTicks": 150,
            "midi": 54,
            "name": "F#3",
            "ticks": 100960,
            "time": 315.5,
            "velocity": 0.9606299212598425
          },
          {
            "duration": 0.96875,
            "durationTicks": 310,
            "midi": 54,
            "name": "F#3",
            "ticks": 101120,
            "time": 316,
            "velocity": 0.9606299212598425
          },
          {
            "duration": 0.46875,
            "durationTicks": 150,
            "midi": 54,
            "name": "F#3",
            "ticks": 101440,
            "time": 317,
            "velocity": 0.9606299212598425
          },
          {
            "duration": 0.96875,
            "durationTicks": 310,
            "midi": 54,
            "name": "F#3",
            "ticks": 101600,
            "time": 317.5,
            "velocity": 0.9606299212598425
          },
          {
            "duration": 0.46875,
            "durationTicks": 150,
            "midi": 54,
            "name": "F#3",
            "ticks": 101920,
            "time": 318.5,
            "velocity": 0.9606299212598425
          },
          {
            "duration": 0.96875,
            "durationTicks": 310,
            "midi": 54,
            "name": "F#3",
            "ticks": 102080,
            "time": 319,
            "velocity": 0.9606299212598425
          },
          {
            "duration": 0.46875,
            "durationTicks": 150,
            "midi": 60,
            "name": "C4",
            "ticks": 103680,
            "time": 324,
            "velocity": 0.8661417322834646
          },
          {
            "duration": 0.46875,
            "durationTicks": 150,
            "midi": 64,
            "name": "E4",
            "ticks": 103680,
            "time": 324,
            "velocity": 0.8661417322834646
          },
          {
            "duration": 0.46875,
            "durationTicks": 150,
            "midi": 60,
            "name": "C4",
            "ticks": 103840,
            "time": 324.5,
            "velocity": 0.8661417322834646
          },
          {
            "duration": 0.46875,
            "durationTicks": 150,
            "midi": 64,
            "name": "E4",
            "ticks": 103840,
            "time": 324.5,
            "velocity": 0.8661417322834646
          },
          {
            "duration": 0.96875,
            "durationTicks": 310,
            "midi": 60,
            "name": "C4",
            "ticks": 104000,
            "time": 325,
            "velocity": 0.8661417322834646
          },
          {
            "duration": 0.96875,
            "durationTicks": 310,
            "midi": 64,
            "name": "E4",
            "ticks": 104000,
            "time": 325,
            "velocity": 0.8661417322834646
          },
          {
            "duration": 0.46875,
            "durationTicks": 150,
            "midi": 60,
            "name": "C4",
            "ticks": 104320,
            "time": 326,
            "velocity": 0.8661417322834646
          },
          {
            "duration": 0.46875,
            "durationTicks": 150,
            "midi": 64,
            "name": "E4",
            "ticks": 104320,
            "time": 326,
            "velocity": 0.8661417322834646
          },
          {
            "duration": 0.96875,
            "durationTicks": 310,
            "midi": 60,
            "name": "C4",
            "ticks": 104480,
            "time": 326.5,
            "velocity": 0.8661417322834646
          },
          {
            "duration": 0.96875,
            "durationTicks": 310,
            "midi": 64,
            "name": "E4",
            "ticks": 104480,
            "time": 326.5,
            "velocity": 0.8661417322834646
          },
          {
            "duration": 0.46875,
            "durationTicks": 150,
            "midi": 60,
            "name": "C4",
            "ticks": 104800,
            "time": 327.5,
            "velocity": 0.8661417322834646
          },
          {
            "duration": 0.46875,
            "durationTicks": 150,
            "midi": 64,
            "name": "E4",
            "ticks": 104800,
            "time": 327.5,
            "velocity": 0.8661417322834646
          },
          {
            "duration": 0.96875,
            "durationTicks": 310,
            "midi": 60,
            "name": "C4",
            "ticks": 104960,
            "time": 328,
            "velocity": 0.8661417322834646
          },
          {
            "duration": 0.96875,
            "durationTicks": 310,
            "midi": 64,
            "name": "E4",
            "ticks": 104960,
            "time": 328,
            "velocity": 0.8661417322834646
          },
          {
            "duration": 0.46875,
            "durationTicks": 150,
            "midi": 55,
            "name": "G3",
            "ticks": 106560,
            "time": 333,
            "velocity": 0.8661417322834646
          },
          {
            "duration": 0.46875,
            "durationTicks": 150,
            "midi": 60,
            "name": "C4",
            "ticks": 106560,
            "time": 333,
            "velocity": 0.8661417322834646
          },
          {
            "duration": 0.46875,
            "durationTicks": 150,
            "midi": 55,
            "name": "G3",
            "ticks": 106720,
            "time": 333.5,
            "velocity": 0.8661417322834646
          },
          {
            "duration": 0.46875,
            "durationTicks": 150,
            "midi": 60,
            "name": "C4",
            "ticks": 106720,
            "time": 333.5,
            "velocity": 0.8661417322834646
          },
          {
            "duration": 0.96875,
            "durationTicks": 310,
            "midi": 55,
            "name": "G3",
            "ticks": 106880,
            "time": 334,
            "velocity": 0.8661417322834646
          },
          {
            "duration": 0.96875,
            "durationTicks": 310,
            "midi": 60,
            "name": "C4",
            "ticks": 106880,
            "time": 334,
            "velocity": 0.8661417322834646
          },
          {
            "duration": 0.46875,
            "durationTicks": 150,
            "midi": 55,
            "name": "G3",
            "ticks": 107200,
            "time": 335,
            "velocity": 0.8661417322834646
          },
          {
            "duration": 0.46875,
            "durationTicks": 150,
            "midi": 60,
            "name": "C4",
            "ticks": 107200,
            "time": 335,
            "velocity": 0.8661417322834646
          },
          {
            "duration": 0.96875,
            "durationTicks": 310,
            "midi": 55,
            "name": "G3",
            "ticks": 107360,
            "time": 335.5,
            "velocity": 0.8661417322834646
          },
          {
            "duration": 0.96875,
            "durationTicks": 310,
            "midi": 60,
            "name": "C4",
            "ticks": 107360,
            "time": 335.5,
            "velocity": 0.8661417322834646
          },
          {
            "duration": 0.46875,
            "durationTicks": 150,
            "midi": 55,
            "name": "G3",
            "ticks": 107680,
            "time": 336.5,
            "velocity": 0.8661417322834646
          },
          {
            "duration": 0.46875,
            "durationTicks": 150,
            "midi": 60,
            "name": "C4",
            "ticks": 107680,
            "time": 336.5,
            "velocity": 0.8661417322834646
          },
          {
            "duration": 0.96875,
            "durationTicks": 310,
            "midi": 55,
            "name": "G3",
            "ticks": 107840,
            "time": 337,
            "velocity": 0.8661417322834646
          },
          {
            "duration": 0.96875,
            "durationTicks": 310,
            "midi": 60,
            "name": "C4",
            "ticks": 107840,
            "time": 337,
            "velocity": 0.8661417322834646
          },
          {
            "duration": 0.3562500000000455,
            "durationTicks": 114,
            "midi": 60,
            "name": "C4",
            "ticks": 109440,
            "time": 342,
            "velocity": 1
          },
          {
            "duration": 0.3562500000000455,
            "durationTicks": 114,
            "midi": 64,
            "name": "E4",
            "ticks": 109440,
            "time": 342,
            "velocity": 1
          },
          {
            "duration": 0.3562500000000455,
            "durationTicks": 114,
            "midi": 60,
            "name": "C4",
            "ticks": 110400,
            "time": 345,
            "velocity": 1
          },
          {
            "duration": 0.3562500000000455,
            "durationTicks": 114,
            "midi": 64,
            "name": "E4",
            "ticks": 110400,
            "time": 345,
            "velocity": 1
          },
          {
            "duration": 0.3562500000000455,
            "durationTicks": 114,
            "midi": 60,
            "name": "C4",
            "ticks": 111360,
            "time": 348,
            "velocity": 1
          },
          {
            "duration": 0.3562500000000455,
            "durationTicks": 114,
            "midi": 64,
            "name": "E4",
            "ticks": 111360,
            "time": 348,
            "velocity": 1
          },
          {
            "duration": 0.3562500000000455,
            "durationTicks": 114,
            "midi": 60,
            "name": "C4",
            "ticks": 112320,
            "time": 351,
            "velocity": 1
          },
          {
            "duration": 0.3562500000000455,
            "durationTicks": 114,
            "midi": 64,
            "name": "E4",
            "ticks": 112320,
            "time": 351,
            "velocity": 1
          },
          {
            "duration": 0.7062500000000114,
            "durationTicks": 226,
            "midi": 55,
            "name": "G3",
            "ticks": 115440,
            "time": 360.75,
            "velocity": 1
          },
          {
            "duration": 0.7062500000000114,
            "durationTicks": 226,
            "midi": 64,
            "name": "E4",
            "ticks": 115440,
            "time": 360.75,
            "velocity": 1
          },
          {
            "duration": 1.40625,
            "durationTicks": 450,
            "midi": 40,
            "name": "E2",
            "ticks": 166560,
            "time": 520.5,
            "velocity": 1
          },
          {
            "duration": 1.40625,
            "durationTicks": 450,
            "midi": 42,
            "name": "F#2",
            "ticks": 167040,
            "time": 522,
            "velocity": 1
          },
          {
            "duration": 1.40625,
            "durationTicks": 450,
            "midi": 44,
            "name": "G#2",
            "ticks": 167520,
            "time": 523.5,
            "velocity": 1
          },
          {
            "duration": 1.40625,
            "durationTicks": 450,
            "midi": 45,
            "name": "A2",
            "ticks": 168000,
            "time": 525,
            "velocity": 1
          },
          {
            "duration": 1.40625,
            "durationTicks": 450,
            "midi": 46,
            "name": "A#2",
            "ticks": 168480,
            "time": 526.5,
            "velocity": 1
          },
          {
            "duration": 1.40625,
            "durationTicks": 450,
            "midi": 47,
            "name": "B2",
            "ticks": 168960,
            "time": 528,
            "velocity": 1
          },
          {
            "duration": 1.40625,
            "durationTicks": 450,
            "midi": 49,
            "name": "C#3",
            "ticks": 169440,
            "time": 529.5,
            "velocity": 1
          },
          {
            "duration": 1.40625,
            "durationTicks": 450,
            "midi": 50,
            "name": "D3",
            "ticks": 169920,
            "time": 531,
            "velocity": 1
          },
          {
            "duration": 1.40625,
            "durationTicks": 450,
            "midi": 52,
            "name": "E3",
            "ticks": 170400,
            "time": 532.5,
            "velocity": 1
          },
          {
            "duration": 1.40625,
            "durationTicks": 450,
            "midi": 53,
            "name": "F3",
            "ticks": 170880,
            "time": 534,
            "velocity": 1
          },
          {
            "duration": 1.40625,
            "durationTicks": 450,
            "midi": 55,
            "name": "G3",
            "ticks": 171360,
            "time": 535.5,
            "velocity": 1
          },
          {
            "duration": 1.40625,
            "durationTicks": 450,
            "midi": 57,
            "name": "A3",
            "ticks": 171840,
            "time": 537,
            "velocity": 1
          },
          {
            "duration": 1.40625,
            "durationTicks": 450,
            "midi": 58,
            "name": "A#3",
            "ticks": 172320,
            "time": 538.5,
            "velocity": 1
          },
          {
            "duration": 1.40625,
            "durationTicks": 450,
            "midi": 59,
            "name": "B3",
            "ticks": 172800,
            "time": 540,
            "velocity": 1
          },
          {
            "duration": 1.40625,
            "durationTicks": 450,
            "midi": 61,
            "name": "C#4",
            "ticks": 173280,
            "time": 541.5,
            "velocity": 1
          },
          {
            "duration": 1.40625,
            "durationTicks": 450,
            "midi": 62,
            "name": "D4",
            "ticks": 173760,
            "time": 543,
            "velocity": 1
          },
          {
            "duration": 1.40625,
            "durationTicks": 450,
            "midi": 64,
            "name": "E4",
            "ticks": 174240,
            "time": 544.5,
            "velocity": 1
          },
          {
            "duration": 1.40625,
            "durationTicks": 450,
            "midi": 66,
            "name": "F#4",
            "ticks": 174720,
            "time": 546,
            "velocity": 1
          },
          {
            "duration": 1.40625,
            "durationTicks": 450,
            "midi": 67,
            "name": "G4",
            "ticks": 175200,
            "time": 547.5,
            "velocity": 1
          },
          {
            "duration": 4.21875,
            "durationTicks": 1350,
            "midi": 62,
            "name": "D4",
            "ticks": 175680,
            "time": 549,
            "velocity": 0.9448818897637795
          },
          {
            "duration": 4.21875,
            "durationTicks": 1350,
            "midi": 66,
            "name": "F#4",
            "ticks": 175680,
            "time": 549,
            "velocity": 0.9448818897637795
          },
          {
            "duration": 4.21875,
            "durationTicks": 1350,
            "midi": 57,
            "name": "A3",
            "ticks": 177120,
            "time": 553.5,
            "velocity": 0.9448818897637795
          },
          {
            "duration": 4.21875,
            "durationTicks": 1350,
            "midi": 59,
            "name": "B3",
            "ticks": 177120,
            "time": 553.5,
            "velocity": 0.9448818897637795
          },
          {
            "duration": 4.21875,
            "durationTicks": 1350,
            "midi": 52,
            "name": "E3",
            "ticks": 178560,
            "time": 558,
            "velocity": 0.9448818897637795
          },
          {
            "duration": 4.21875,
            "durationTicks": 1350,
            "midi": 59,
            "name": "B3",
            "ticks": 178560,
            "time": 558,
            "velocity": 0.9448818897637795
          },
          {
            "duration": 2.8125,
            "durationTicks": 900,
            "midi": 55,
            "name": "G3",
            "ticks": 180000,
            "time": 562.5,
            "velocity": 0.9448818897637795
          },
          {
            "duration": 2.8125,
            "durationTicks": 900,
            "midi": 59,
            "name": "B3",
            "ticks": 180000,
            "time": 562.5,
            "velocity": 0.9448818897637795
          },
          {
            "duration": 1.40625,
            "durationTicks": 450,
            "midi": 50,
            "name": "D3",
            "ticks": 180960,
            "time": 565.5,
            "velocity": 0.9448818897637795
          },
          {
            "duration": 1.40625,
            "durationTicks": 450,
            "midi": 55,
            "name": "G3",
            "ticks": 180960,
            "time": 565.5,
            "velocity": 0.9448818897637795
          },
          {
            "duration": 0.7062500000000682,
            "durationTicks": 226,
            "midi": 50,
            "name": "D3",
            "ticks": 181440,
            "time": 567,
            "velocity": 0.9448818897637795
          },
          {
            "duration": 0.7062500000000682,
            "durationTicks": 226,
            "midi": 54,
            "name": "F#3",
            "ticks": 181440,
            "time": 567,
            "velocity": 0.9448818897637795
          },
          {
            "duration": 2.8125,
            "durationTicks": 900,
            "midi": 59,
            "name": "B3",
            "ticks": 197760,
            "time": 618,
            "velocity": 0.5275590551181102
          },
          {
            "duration": 2.8125,
            "durationTicks": 900,
            "midi": 62,
            "name": "D4",
            "ticks": 197760,
            "time": 618,
            "velocity": 0.5275590551181102
          },
          {
            "duration": 4.21875,
            "durationTicks": 1350,
            "midi": 59,
            "name": "B3",
            "ticks": 198720,
            "time": 621,
            "velocity": 0.5748031496062992
          },
          {
            "duration": 4.21875,
            "durationTicks": 1350,
            "midi": 62,
            "name": "D4",
            "ticks": 198720,
            "time": 621,
            "velocity": 0.5748031496062992
          },
          {
            "duration": 0.7062500000000682,
            "durationTicks": 226,
            "midi": 57,
            "name": "A3",
            "ticks": 200160,
            "time": 625.5,
            "velocity": 0.5748031496062992
          },
          {
            "duration": 0.7062500000000682,
            "durationTicks": 226,
            "midi": 60,
            "name": "C4",
            "ticks": 200160,
            "time": 625.5,
            "velocity": 0.5748031496062992
          },
          {
            "duration": 2.8125,
            "durationTicks": 900,
            "midi": 57,
            "name": "A3",
            "ticks": 200640,
            "time": 627,
            "velocity": 0.5275590551181102
          },
          {
            "duration": 2.8125,
            "durationTicks": 900,
            "midi": 60,
            "name": "C4",
            "ticks": 200640,
            "time": 627,
            "velocity": 0.5275590551181102
          },
          {
            "duration": 4.21875,
            "durationTicks": 1350,
            "midi": 57,
            "name": "A3",
            "ticks": 201600,
            "time": 630,
            "velocity": 0.5748031496062992
          },
          {
            "duration": 4.21875,
            "durationTicks": 1350,
            "midi": 60,
            "name": "C4",
            "ticks": 201600,
            "time": 630,
            "velocity": 0.5748031496062992
          },
          {
            "duration": 0.7062500000000682,
            "durationTicks": 226,
            "midi": 55,
            "name": "G3",
            "ticks": 203040,
            "time": 634.5,
            "velocity": 0.5748031496062992
          },
          {
            "duration": 0.7062500000000682,
            "durationTicks": 226,
            "midi": 59,
            "name": "B3",
            "ticks": 203040,
            "time": 634.5,
            "velocity": 0.5748031496062992
          },
          {
            "duration": 2.8125,
            "durationTicks": 900,
            "midi": 55,
            "name": "G3",
            "ticks": 203520,
            "time": 636,
            "velocity": 0.5275590551181102
          },
          {
            "duration": 2.8125,
            "durationTicks": 900,
            "midi": 59,
            "name": "B3",
            "ticks": 203520,
            "time": 636,
            "velocity": 0.5275590551181102
          },
          {
            "duration": 4.21875,
            "durationTicks": 1350,
            "midi": 55,
            "name": "G3",
            "ticks": 204480,
            "time": 639,
            "velocity": 0.5275590551181102
          },
          {
            "duration": 4.21875,
            "durationTicks": 1350,
            "midi": 59,
            "name": "B3",
            "ticks": 204480,
            "time": 639,
            "velocity": 0.5275590551181102
          },
          {
            "duration": 3.706250000000068,
            "durationTicks": 1186,
            "midi": 54,
            "name": "F#3",
            "ticks": 205920,
            "time": 643.5,
            "velocity": 0.47244094488188976
          },
          {
            "duration": 3.706250000000068,
            "durationTicks": 1186,
            "midi": 58,
            "name": "A#3",
            "ticks": 205920,
            "time": 643.5,
            "velocity": 0.47244094488188976
          },
          {
            "duration": 3.706250000000068,
            "durationTicks": 1186,
            "midi": 50,
            "name": "D3",
            "ticks": 207360,
            "time": 648,
            "velocity": 0.47244094488188976
          },
          {
            "duration": 3.706250000000068,
            "durationTicks": 1186,
            "midi": 59,
            "name": "B3",
            "ticks": 207360,
            "time": 648,
            "velocity": 0.47244094488188976
          },
          {
            "duration": 3.706250000000068,
            "durationTicks": 1186,
            "midi": 49,
            "name": "C#3",
            "ticks": 208800,
            "time": 652.5,
            "velocity": 0.44881889763779526
          },
          {
            "duration": 3.706250000000068,
            "durationTicks": 1186,
            "midi": 55,
            "name": "G3",
            "ticks": 208800,
            "time": 652.5,
            "velocity": 0.44881889763779526
          },
          {
            "duration": 3.706250000000068,
            "durationTicks": 1186,
            "midi": 49,
            "name": "C#3",
            "ticks": 210240,
            "time": 657,
            "velocity": 0.3937007874015748
          },
          {
            "duration": 3.706250000000068,
            "durationTicks": 1186,
            "midi": 54,
            "name": "F#3",
            "ticks": 210240,
            "time": 657,
            "velocity": 0.3937007874015748
          },
          {
            "duration": 4.21875,
            "durationTicks": 1350,
            "midi": 52,
            "name": "E3",
            "ticks": 213120,
            "time": 666,
            "velocity": 0.5905511811023622
          },
          {
            "duration": 4.21875,
            "durationTicks": 1350,
            "midi": 55,
            "name": "G3",
            "ticks": 213120,
            "time": 666,
            "velocity": 0.5905511811023622
          },
          {
            "duration": 4.21875,
            "durationTicks": 1350,
            "midi": 50,
            "name": "D3",
            "ticks": 214560,
            "time": 670.5,
            "velocity": 0.5905511811023622
          },
          {
            "duration": 4.21875,
            "durationTicks": 1350,
            "midi": 54,
            "name": "F#3",
            "ticks": 214560,
            "time": 670.5,
            "velocity": 0.5905511811023622
          },
          {
            "duration": 4.21875,
            "durationTicks": 1350,
            "midi": 52,
            "name": "E3",
            "ticks": 216000,
            "time": 675,
            "velocity": 0.5905511811023622
          },
          {
            "duration": 4.21875,
            "durationTicks": 1350,
            "midi": 55,
            "name": "G3",
            "ticks": 216000,
            "time": 675,
            "velocity": 0.5905511811023622
          },
          {
            "duration": 4.21875,
            "durationTicks": 1350,
            "midi": 50,
            "name": "D3",
            "ticks": 217440,
            "time": 679.5,
            "velocity": 0.5905511811023622
          },
          {
            "duration": 4.21875,
            "durationTicks": 1350,
            "midi": 54,
            "name": "F#3",
            "ticks": 217440,
            "time": 679.5,
            "velocity": 0.5905511811023622
          }
        ]
      },
      {
        "channel": 6,
        "controlChanges": {
          "7": [
            {
              "number": 7,
              "ticks": 0,
              "time": 0,
              "value": 1
            }
          ],
          "10": [
            {
              "number": 10,
              "ticks": 0,
              "time": 0,
              "value": 0.6456692913385826
            }
          ]
        },
        "pitchBends": [],
        "instrument": {
          "family": "brass",
          "number": 0,
          "name": "trombone"
        },
        "name": "Trombone 2",
        "notes": [
          {
            "duration": 1.40625,
            "durationTicks": 450,
            "midi": 42,
            "name": "F#2",
            "ticks": 88800,
            "time": 277.5,
            "velocity": 0.7480314960629921
          },
          {
            "duration": 2.8125,
            "durationTicks": 900,
            "midi": 40,
            "name": "E2",
            "ticks": 89280,
            "time": 279,
            "velocity": 0.7480314960629921
          },
          {
            "duration": 1.40625,
            "durationTicks": 450,
            "midi": 41,
            "name": "F2",
            "ticks": 90240,
            "time": 282,
            "velocity": 0.7480314960629921
          },
          {
            "duration": 4.40625,
            "durationTicks": 1410,
            "midi": 42,
            "name": "F#2",
            "ticks": 90720,
            "time": 283.5,
            "velocity": 0.7874015748031497
          },
          {
            "duration": 2.8125,
            "durationTicks": 900,
            "midi": 40,
            "name": "E2",
            "ticks": 92160,
            "time": 288,
            "velocity": 0.7480314960629921
          },
          {
            "duration": 1.40625,
            "durationTicks": 450,
            "midi": 41,
            "name": "F2",
            "ticks": 93120,
            "time": 291,
            "velocity": 0.7480314960629921
          },
          {
            "duration": 4.40625,
            "durationTicks": 1410,
            "midi": 42,
            "name": "F#2",
            "ticks": 93600,
            "time": 292.5,
            "velocity": 0.7874015748031497
          },
          {
            "duration": 2.8125,
            "durationTicks": 900,
            "midi": 43,
            "name": "G2",
            "ticks": 95040,
            "time": 297,
            "velocity": 0.7480314960629921
          },
          {
            "duration": 1.40625,
            "durationTicks": 450,
            "midi": 44,
            "name": "G#2",
            "ticks": 96000,
            "time": 300,
            "velocity": 0.7480314960629921
          },
          {
            "duration": 2.8125,
            "durationTicks": 900,
            "midi": 45,
            "name": "A2",
            "ticks": 96480,
            "time": 301.5,
            "velocity": 0.7480314960629921
          },
          {
            "duration": 1.40625,
            "durationTicks": 450,
            "midi": 46,
            "name": "A#2",
            "ticks": 97440,
            "time": 304.5,
            "velocity": 0.7480314960629921
          },
          {
            "duration": 2.8125,
            "durationTicks": 900,
            "midi": 47,
            "name": "B2",
            "ticks": 97920,
            "time": 306,
            "velocity": 0.8267716535433071
          },
          {
            "duration": 1.40625,
            "durationTicks": 450,
            "midi": 47,
            "name": "B2",
            "ticks": 98880,
            "time": 309,
            "velocity": 0.8661417322834646
          },
          {
            "duration": 4.40625,
            "durationTicks": 1410,
            "midi": 49,
            "name": "C#3",
            "ticks": 99360,
            "time": 310.5,
            "velocity": 0.889763779527559
          },
          {
            "duration": 0.46875,
            "durationTicks": 150,
            "midi": 50,
            "name": "D3",
            "ticks": 100800,
            "time": 315,
            "velocity": 0.9606299212598425
          },
          {
            "duration": 0.46875,
            "durationTicks": 150,
            "midi": 50,
            "name": "D3",
            "ticks": 100960,
            "time": 315.5,
            "velocity": 0.9606299212598425
          },
          {
            "duration": 0.96875,
            "durationTicks": 310,
            "midi": 50,
            "name": "D3",
            "ticks": 101120,
            "time": 316,
            "velocity": 0.9606299212598425
          },
          {
            "duration": 0.46875,
            "durationTicks": 150,
            "midi": 50,
            "name": "D3",
            "ticks": 101440,
            "time": 317,
            "velocity": 0.9606299212598425
          },
          {
            "duration": 0.96875,
            "durationTicks": 310,
            "midi": 50,
            "name": "D3",
            "ticks": 101600,
            "time": 317.5,
            "velocity": 0.9606299212598425
          },
          {
            "duration": 0.46875,
            "durationTicks": 150,
            "midi": 50,
            "name": "D3",
            "ticks": 101920,
            "time": 318.5,
            "velocity": 0.9606299212598425
          },
          {
            "duration": 0.96875,
            "durationTicks": 310,
            "midi": 50,
            "name": "D3",
            "ticks": 102080,
            "time": 319,
            "velocity": 0.9606299212598425
          },
          {
            "duration": 0.46875,
            "durationTicks": 150,
            "midi": 48,
            "name": "C3",
            "ticks": 103680,
            "time": 324,
            "velocity": 1
          },
          {
            "duration": 0.46875,
            "durationTicks": 150,
            "midi": 48,
            "name": "C3",
            "ticks": 103840,
            "time": 324.5,
            "velocity": 1
          },
          {
            "duration": 0.96875,
            "durationTicks": 310,
            "midi": 48,
            "name": "C3",
            "ticks": 104000,
            "time": 325,
            "velocity": 1
          },
          {
            "duration": 0.46875,
            "durationTicks": 150,
            "midi": 48,
            "name": "C3",
            "ticks": 104320,
            "time": 326,
            "velocity": 1
          },
          {
            "duration": 0.96875,
            "durationTicks": 310,
            "midi": 48,
            "name": "C3",
            "ticks": 104480,
            "time": 326.5,
            "velocity": 1
          },
          {
            "duration": 0.46875,
            "durationTicks": 150,
            "midi": 48,
            "name": "C3",
            "ticks": 104800,
            "time": 327.5,
            "velocity": 1
          },
          {
            "duration": 0.96875,
            "durationTicks": 310,
            "midi": 48,
            "name": "C3",
            "ticks": 104960,
            "time": 328,
            "velocity": 1
          },
          {
            "duration": 0.46875,
            "durationTicks": 150,
            "midi": 52,
            "name": "E3",
            "ticks": 106560,
            "time": 333,
            "velocity": 1
          },
          {
            "duration": 0.46875,
            "durationTicks": 150,
            "midi": 52,
            "name": "E3",
            "ticks": 106720,
            "time": 333.5,
            "velocity": 1
          },
          {
            "duration": 0.96875,
            "durationTicks": 310,
            "midi": 52,
            "name": "E3",
            "ticks": 106880,
            "time": 334,
            "velocity": 1
          },
          {
            "duration": 0.46875,
            "durationTicks": 150,
            "midi": 52,
            "name": "E3",
            "ticks": 107200,
            "time": 335,
            "velocity": 1
          },
          {
            "duration": 0.96875,
            "durationTicks": 310,
            "midi": 52,
            "name": "E3",
            "ticks": 107360,
            "time": 335.5,
            "velocity": 1
          },
          {
            "duration": 0.46875,
            "durationTicks": 150,
            "midi": 52,
            "name": "E3",
            "ticks": 107680,
            "time": 336.5,
            "velocity": 1
          },
          {
            "duration": 0.96875,
            "durationTicks": 310,
            "midi": 52,
            "name": "E3",
            "ticks": 107840,
            "time": 337,
            "velocity": 1
          },
          {
            "duration": 0.3562500000000455,
            "durationTicks": 114,
            "midi": 55,
            "name": "G3",
            "ticks": 109440,
            "time": 342,
            "velocity": 1
          },
          {
            "duration": 0.3562500000000455,
            "durationTicks": 114,
            "midi": 48,
            "name": "C3",
            "ticks": 110400,
            "time": 345,
            "velocity": 1
          },
          {
            "duration": 0.3562500000000455,
            "durationTicks": 114,
            "midi": 52,
            "name": "E3",
            "ticks": 111360,
            "time": 348,
            "velocity": 1
          },
          {
            "duration": 0.3562500000000455,
            "durationTicks": 114,
            "midi": 55,
            "name": "G3",
            "ticks": 112320,
            "time": 351,
            "velocity": 1
          },
          {
            "duration": 0.7062500000000114,
            "durationTicks": 226,
            "midi": 48,
            "name": "C3",
            "ticks": 115200,
            "time": 360,
            "velocity": 1
          },
          {
            "duration": 0.7062500000000114,
            "durationTicks": 226,
            "midi": 48,
            "name": "C3",
            "ticks": 115440,
            "time": 360.75,
            "velocity": 1
          },
          {
            "duration": 1.40625,
            "durationTicks": 450,
            "midi": 40,
            "name": "E2",
            "ticks": 166560,
            "time": 520.5,
            "velocity": 1
          },
          {
            "duration": 1.40625,
            "durationTicks": 450,
            "midi": 42,
            "name": "F#2",
            "ticks": 167040,
            "time": 522,
            "velocity": 1
          },
          {
            "duration": 1.40625,
            "durationTicks": 450,
            "midi": 44,
            "name": "G#2",
            "ticks": 167520,
            "time": 523.5,
            "velocity": 1
          },
          {
            "duration": 1.40625,
            "durationTicks": 450,
            "midi": 45,
            "name": "A2",
            "ticks": 168000,
            "time": 525,
            "velocity": 1
          },
          {
            "duration": 1.40625,
            "durationTicks": 450,
            "midi": 46,
            "name": "A#2",
            "ticks": 168480,
            "time": 526.5,
            "velocity": 1
          },
          {
            "duration": 1.40625,
            "durationTicks": 450,
            "midi": 47,
            "name": "B2",
            "ticks": 168960,
            "time": 528,
            "velocity": 1
          },
          {
            "duration": 1.40625,
            "durationTicks": 450,
            "midi": 49,
            "name": "C#3",
            "ticks": 169440,
            "time": 529.5,
            "velocity": 1
          },
          {
            "duration": 1.40625,
            "durationTicks": 450,
            "midi": 50,
            "name": "D3",
            "ticks": 169920,
            "time": 531,
            "velocity": 1
          },
          {
            "duration": 1.40625,
            "durationTicks": 450,
            "midi": 52,
            "name": "E3",
            "ticks": 170400,
            "time": 532.5,
            "velocity": 1
          },
          {
            "duration": 1.40625,
            "durationTicks": 450,
            "midi": 53,
            "name": "F3",
            "ticks": 170880,
            "time": 534,
            "velocity": 1
          },
          {
            "duration": 1.40625,
            "durationTicks": 450,
            "midi": 55,
            "name": "G3",
            "ticks": 171360,
            "time": 535.5,
            "velocity": 1
          },
          {
            "duration": 1.40625,
            "durationTicks": 450,
            "midi": 57,
            "name": "A3",
            "ticks": 171840,
            "time": 537,
            "velocity": 1
          },
          {
            "duration": 1.40625,
            "durationTicks": 450,
            "midi": 58,
            "name": "A#3",
            "ticks": 172320,
            "time": 538.5,
            "velocity": 1
          },
          {
            "duration": 1.40625,
            "durationTicks": 450,
            "midi": 59,
            "name": "B3",
            "ticks": 172800,
            "time": 540,
            "velocity": 1
          },
          {
            "duration": 8.71875,
            "durationTicks": 2790,
            "midi": 47,
            "name": "B2",
            "ticks": 177120,
            "time": 553.5,
            "velocity": 0.9448818897637795
          },
          {
            "duration": 4.21875,
            "durationTicks": 1350,
            "midi": 47,
            "name": "B2",
            "ticks": 180000,
            "time": 562.5,
            "velocity": 0.9448818897637795
          },
          {
            "duration": 18.706250000000068,
            "durationTicks": 5986,
            "midi": 42,
            "name": "F#2",
            "ticks": 181440,
            "time": 567,
            "velocity": 0.9448818897637795
          },
          {
            "duration": 2.8125,
            "durationTicks": 900,
            "midi": 54,
            "name": "F#3",
            "ticks": 197760,
            "time": 618,
            "velocity": 0.5275590551181102
          },
          {
            "duration": 2.8125,
            "durationTicks": 900,
            "midi": 53,
            "name": "F3",
            "ticks": 198720,
            "time": 621,
            "velocity": 0.5275590551181102
          },
          {
            "duration": 2.206250000000068,
            "durationTicks": 706,
            "midi": 52,
            "name": "E3",
            "ticks": 199680,
            "time": 624,
            "velocity": 0.5275590551181102
          },
          {
            "duration": 2.8125,
            "durationTicks": 900,
            "midi": 52,
            "name": "E3",
            "ticks": 200640,
            "time": 627,
            "velocity": 0.5275590551181102
          },
          {
            "duration": 2.8125,
            "durationTicks": 900,
            "midi": 51,
            "name": "D#3",
            "ticks": 201600,
            "time": 630,
            "velocity": 0.5275590551181102
          },
          {
            "duration": 2.206250000000068,
            "durationTicks": 706,
            "midi": 50,
            "name": "D3",
            "ticks": 202560,
            "time": 633,
            "velocity": 0.5275590551181102
          },
          {
            "duration": 2.8125,
            "durationTicks": 900,
            "midi": 50,
            "name": "D3",
            "ticks": 203520,
            "time": 636,
            "velocity": 0.5275590551181102
          },
          {
            "duration": 4.40625,
            "durationTicks": 1410,
            "midi": 49,
            "name": "C#3",
            "ticks": 204480,
            "time": 639,
            "velocity": 0.5275590551181102
          },
          {
            "duration": 3.706250000000068,
            "durationTicks": 1186,
            "midi": 49,
            "name": "C#3",
            "ticks": 205920,
            "time": 643.5,
            "velocity": 0.47244094488188976
          },
          {
            "duration": 3.706250000000068,
            "durationTicks": 1186,
            "midi": 47,
            "name": "B2",
            "ticks": 207360,
            "time": 648,
            "velocity": 0.47244094488188976
          },
          {
            "duration": 3.706250000000068,
            "durationTicks": 1186,
            "midi": 47,
            "name": "B2",
            "ticks": 208800,
            "time": 652.5,
            "velocity": 0.44881889763779526
          },
          {
            "duration": 3.706250000000068,
            "durationTicks": 1186,
            "midi": 46,
            "name": "A#2",
            "ticks": 210240,
            "time": 657,
            "velocity": 0.3937007874015748
          }
        ],
        "endOfTrackTicks": 211680
      },
      {
        "channel": 0,
        "controlChanges": {},
        "pitchBends": [],
        "instrument": {
          "family": "piano",
          "number": 0,
          "name": "acoustic grand piano"
        },
        "name": "Tubas",
        "notes": [],
        "endOfTrackTicks": 211680
      },
      {
        "channel": 7,
        "controlChanges": {
          "7": [
            {
              "number": 7,
              "ticks": 0,
              "time": 0,
              "value": 1
            }
          ],
          "10": [
            {
              "number": 10,
              "ticks": 0,
              "time": 0,
              "value": 0.6614173228346457
            }
          ]
        },
        "pitchBends": [],
        "instrument": {
          "family": "brass",
          "number": 58,
          "name": "tuba"
        },
        "name": "",
        "notes": [
          {
            "duration": 1.40625,
            "durationTicks": 450,
            "midi": 32,
            "name": "G#1",
            "ticks": 96000,
            "time": 300,
            "velocity": 0.7480314960629921
          },
          {
            "duration": 2.8125,
            "durationTicks": 900,
            "midi": 33,
            "name": "A1",
            "ticks": 96480,
            "time": 301.5,
            "velocity": 0.7480314960629921
          },
          {
            "duration": 1.40625,
            "durationTicks": 450,
            "midi": 34,
            "name": "A#1",
            "ticks": 97440,
            "time": 304.5,
            "velocity": 0.7480314960629921
          },
          {
            "duration": 2.8125,
            "durationTicks": 900,
            "midi": 35,
            "name": "B1",
            "ticks": 97920,
            "time": 306,
            "velocity": 0.8267716535433071
          },
          {
            "duration": 1.40625,
            "durationTicks": 450,
            "midi": 35,
            "name": "B1",
            "ticks": 98880,
            "time": 309,
            "velocity": 0.8661417322834646
          },
          {
            "duration": 4.40625,
            "durationTicks": 1410,
            "midi": 37,
            "name": "C#2",
            "ticks": 99360,
            "time": 310.5,
            "velocity": 0.889763779527559
          },
          {
            "duration": 0.46875,
            "durationTicks": 150,
            "midi": 38,
            "name": "D2",
            "ticks": 100800,
            "time": 315,
            "velocity": 0.8661417322834646
          },
          {
            "duration": 0.46875,
            "durationTicks": 150,
            "midi": 38,
            "name": "D2",
            "ticks": 100960,
            "time": 315.5,
            "velocity": 0.8661417322834646
          },
          {
            "duration": 0.96875,
            "durationTicks": 310,
            "midi": 38,
            "name": "D2",
            "ticks": 101120,
            "time": 316,
            "velocity": 0.8661417322834646
          },
          {
            "duration": 0.46875,
            "durationTicks": 150,
            "midi": 38,
            "name": "D2",
            "ticks": 101440,
            "time": 317,
            "velocity": 0.8661417322834646
          },
          {
            "duration": 0.96875,
            "durationTicks": 310,
            "midi": 38,
            "name": "D2",
            "ticks": 101600,
            "time": 317.5,
            "velocity": 0.8661417322834646
          },
          {
            "duration": 0.46875,
            "durationTicks": 150,
            "midi": 38,
            "name": "D2",
            "ticks": 101920,
            "time": 318.5,
            "velocity": 0.8661417322834646
          },
          {
            "duration": 0.96875,
            "durationTicks": 310,
            "midi": 38,
            "name": "D2",
            "ticks": 102080,
            "time": 319,
            "velocity": 0.8661417322834646
          },
          {
            "duration": 0.46875,
            "durationTicks": 150,
            "midi": 36,
            "name": "C2",
            "ticks": 103680,
            "time": 324,
            "velocity": 1
          },
          {
            "duration": 0.46875,
            "durationTicks": 150,
            "midi": 36,
            "name": "C2",
            "ticks": 103840,
            "time": 324.5,
            "velocity": 1
          },
          {
            "duration": 0.96875,
            "durationTicks": 310,
            "midi": 36,
            "name": "C2",
            "ticks": 104000,
            "time": 325,
            "velocity": 1
          },
          {
            "duration": 0.46875,
            "durationTicks": 150,
            "midi": 36,
            "name": "C2",
            "ticks": 104320,
            "time": 326,
            "velocity": 1
          },
          {
            "duration": 0.96875,
            "durationTicks": 310,
            "midi": 36,
            "name": "C2",
            "ticks": 104480,
            "time": 326.5,
            "velocity": 1
          },
          {
            "duration": 0.46875,
            "durationTicks": 150,
            "midi": 36,
            "name": "C2",
            "ticks": 104800,
            "time": 327.5,
            "velocity": 1
          },
          {
            "duration": 0.96875,
            "durationTicks": 310,
            "midi": 36,
            "name": "C2",
            "ticks": 104960,
            "time": 328,
            "velocity": 1
          },
          {
            "duration": 0.46875,
            "durationTicks": 150,
            "midi": 40,
            "name": "E2",
            "ticks": 106560,
            "time": 333,
            "velocity": 1
          },
          {
            "duration": 0.46875,
            "durationTicks": 150,
            "midi": 40,
            "name": "E2",
            "ticks": 106720,
            "time": 333.5,
            "velocity": 1
          },
          {
            "duration": 0.96875,
            "durationTicks": 310,
            "midi": 40,
            "name": "E2",
            "ticks": 106880,
            "time": 334,
            "velocity": 1
          },
          {
            "duration": 0.46875,
            "durationTicks": 150,
            "midi": 40,
            "name": "E2",
            "ticks": 107200,
            "time": 335,
            "velocity": 1
          },
          {
            "duration": 0.96875,
            "durationTicks": 310,
            "midi": 40,
            "name": "E2",
            "ticks": 107360,
            "time": 335.5,
            "velocity": 1
          },
          {
            "duration": 0.46875,
            "durationTicks": 150,
            "midi": 40,
            "name": "E2",
            "ticks": 107680,
            "time": 336.5,
            "velocity": 1
          },
          {
            "duration": 0.96875,
            "durationTicks": 310,
            "midi": 40,
            "name": "E2",
            "ticks": 107840,
            "time": 337,
            "velocity": 1
          },
          {
            "duration": 0.3562500000000455,
            "durationTicks": 114,
            "midi": 43,
            "name": "G2",
            "ticks": 109440,
            "time": 342,
            "velocity": 1
          },
          {
            "duration": 0.3562500000000455,
            "durationTicks": 114,
            "midi": 48,
            "name": "C3",
            "ticks": 110400,
            "time": 345,
            "velocity": 1
          },
          {
            "duration": 0.3562500000000455,
            "durationTicks": 114,
            "midi": 52,
            "name": "E3",
            "ticks": 111360,
            "time": 348,
            "velocity": 1
          },
          {
            "duration": 0.3562500000000455,
            "durationTicks": 114,
            "midi": 55,
            "name": "G3",
            "ticks": 112320,
            "time": 351,
            "velocity": 1
          },
          {
            "duration": 0.7062500000000114,
            "durationTicks": 226,
            "midi": 36,
            "name": "C2",
            "ticks": 115200,
            "time": 360,
            "velocity": 1
          },
          {
            "duration": 0.7062500000000114,
            "durationTicks": 226,
            "midi": 48,
            "name": "C3",
            "ticks": 115440,
            "time": 360.75,
            "velocity": 1
          },
          {
            "duration": 1.40625,
            "durationTicks": 450,
            "midi": 46,
            "name": "A#2",
            "ticks": 164160,
            "time": 513,
            "velocity": 0.8661417322834646
          },
          {
            "duration": 1.40625,
            "durationTicks": 450,
            "midi": 45,
            "name": "A2",
            "ticks": 164640,
            "time": 514.5,
            "velocity": 0.8661417322834646
          },
          {
            "duration": 1.40625,
            "durationTicks": 450,
            "midi": 43,
            "name": "G2",
            "ticks": 165120,
            "time": 516,
            "velocity": 0.8661417322834646
          },
          {
            "duration": 1.40625,
            "durationTicks": 450,
            "midi": 41,
            "name": "F2",
            "ticks": 165600,
            "time": 517.5,
            "velocity": 0.8661417322834646
          },
          {
            "duration": 43.21875,
            "durationTicks": 13830,
            "midi": 40,
            "name": "E2",
            "ticks": 166080,
            "time": 519,
            "velocity": 0.905511811023622
          },
          {
            "duration": 4.21875,
            "durationTicks": 1350,
            "midi": 41,
            "name": "F2",
            "ticks": 180000,
            "time": 562.5,
            "velocity": 0.9448818897637795
          },
          {
            "duration": 18.706250000000068,
            "durationTicks": 5986,
            "midi": 42,
            "name": "F#2",
            "ticks": 181440,
            "time": 567,
            "velocity": 0.9448818897637795
          },
          {
            "duration": 2.8125,
            "durationTicks": 900,
            "midi": 42,
            "name": "F#2",
            "ticks": 197760,
            "time": 618,
            "velocity": 0.5275590551181102
          },
          {
            "duration": 2.8125,
            "durationTicks": 900,
            "midi": 43,
            "name": "G2",
            "ticks": 198720,
            "time": 621,
            "velocity": 0.5275590551181102
          },
          {
            "duration": 1.40625,
            "durationTicks": 450,
            "midi": 44,
            "name": "G#2",
            "ticks": 199680,
            "time": 624,
            "velocity": 0.5275590551181102
          },
          {
            "duration": 0.7062500000000682,
            "durationTicks": 226,
            "midi": 45,
            "name": "A2",
            "ticks": 200160,
            "time": 625.5,
            "velocity": 0.5748031496062992
          },
          {
            "duration": 2.8125,
            "durationTicks": 900,
            "midi": 40,
            "name": "E2",
            "ticks": 200640,
            "time": 627,
            "velocity": 0.5275590551181102
          },
          {
            "duration": 2.8125,
            "durationTicks": 900,
            "midi": 41,
            "name": "F2",
            "ticks": 201600,
            "time": 630,
            "velocity": 0.5275590551181102
          },
          {
            "duration": 1.40625,
            "durationTicks": 450,
            "midi": 42,
            "name": "F#2",
            "ticks": 202560,
            "time": 633,
            "velocity": 0.5275590551181102
          },
          {
            "duration": 0.7062500000000682,
            "durationTicks": 226,
            "midi": 43,
            "name": "G2",
            "ticks": 203040,
            "time": 634.5,
            "velocity": 0.5748031496062992
          },
          {
            "duration": 2.8125,
            "durationTicks": 900,
            "midi": 38,
            "name": "D2",
            "ticks": 203520,
            "time": 636,
            "velocity": 0.5275590551181102
          },
          {
            "duration": 2.8125,
            "durationTicks": 900,
            "midi": 40,
            "name": "E2",
            "ticks": 204480,
            "time": 639,
            "velocity": 0.5275590551181102
          },
          {
            "duration": 1.40625,
            "durationTicks": 450,
            "midi": 41,
            "name": "F2",
            "ticks": 205440,
            "time": 642,
            "velocity": 0.5039370078740157
          },
          {
            "duration": 3.706250000000068,
            "durationTicks": 1186,
            "midi": 42,
            "name": "F#2",
            "ticks": 205920,
            "time": 643.5,
            "velocity": 0.47244094488188976
          },
          {
            "duration": 3.706250000000068,
            "durationTicks": 1186,
            "midi": 43,
            "name": "G2",
            "ticks": 207360,
            "time": 648,
            "velocity": 0.47244094488188976
          },
          {
            "duration": 3.706250000000068,
            "durationTicks": 1186,
            "midi": 40,
            "name": "E2",
            "ticks": 208800,
            "time": 652.5,
            "velocity": 0.44881889763779526
          },
          {
            "duration": 3.706250000000068,
            "durationTicks": 1186,
            "midi": 42,
            "name": "F#2",
            "ticks": 210240,
            "time": 657,
            "velocity": 0.3937007874015748
          }
        ]
      },
      {
        "channel": 0,
        "controlChanges": {},
        "pitchBends": [],
        "instrument": {
          "family": "piano",
          "number": 0,
          "name": "acoustic grand piano"
        },
        "name": "Timpani",
        "notes": [],
        "endOfTrackTicks": 198720
      },
      {
        "channel": 8,
        "controlChanges": {
          "7": [
            {
              "number": 7,
              "ticks": 0,
              "time": 0,
              "value": 1
            }
          ],
          "10": [
            {
              "number": 10,
              "ticks": 0,
              "time": 0,
              "value": 0.07874015748031496
            }
          ]
        },
        "pitchBends": [],
        "instrument": {
          "family": "strings",
          "number": 47,
          "name": "timpani"
        },
        "name": "",
        "notes": [
          {
            "duration": 0.18124999999997726,
            "durationTicks": 58,
            "midi": 50,
            "name": "D3",
            "ticks": 100800,
            "time": 315,
            "velocity": 0.8661417322834646
          },
          {
            "duration": 0.18124999999997726,
            "durationTicks": 58,
            "midi": 50,
            "name": "D3",
            "ticks": 100860,
            "time": 315.1875,
            "velocity": 0.8661417322834646
          },
          {
            "duration": 0.18124999999997726,
            "durationTicks": 58,
            "midi": 50,
            "name": "D3",
            "ticks": 100920,
            "time": 315.375,
            "velocity": 0.8661417322834646
          },
          {
            "duration": 0.18124999999997726,
            "durationTicks": 58,
            "midi": 50,
            "name": "D3",
            "ticks": 100980,
            "time": 315.5625,
            "velocity": 0.8661417322834646
          },
          {
            "duration": 0.18124999999997726,
            "durationTicks": 58,
            "midi": 50,
            "name": "D3",
            "ticks": 101040,
            "time": 315.75,
            "velocity": 0.8661417322834646
          },
          {
            "duration": 0.18124999999997726,
            "durationTicks": 58,
            "midi": 50,
            "name": "D3",
            "ticks": 101100,
            "time": 315.9375,
            "velocity": 0.8661417322834646
          },
          {
            "duration": 0.18124999999997726,
            "durationTicks": 58,
            "midi": 50,
            "name": "D3",
            "ticks": 101160,
            "time": 316.125,
            "velocity": 0.8661417322834646
          },
          {
            "duration": 0.18124999999997726,
            "durationTicks": 58,
            "midi": 50,
            "name": "D3",
            "ticks": 101220,
            "time": 316.3125,
            "velocity": 0.8661417322834646
          },
          {
            "duration": 0.18124999999997726,
            "durationTicks": 58,
            "midi": 50,
            "name": "D3",
            "ticks": 101280,
            "time": 316.5,
            "velocity": 0.8661417322834646
          },
          {
            "duration": 0.18124999999997726,
            "durationTicks": 58,
            "midi": 50,
            "name": "D3",
            "ticks": 101340,
            "time": 316.6875,
            "velocity": 0.8661417322834646
          },
          {
            "duration": 0.18124999999997726,
            "durationTicks": 58,
            "midi": 50,
            "name": "D3",
            "ticks": 101400,
            "time": 316.875,
            "velocity": 0.8661417322834646
          },
          {
            "duration": 0.18124999999997726,
            "durationTicks": 58,
            "midi": 50,
            "name": "D3",
            "ticks": 101460,
            "time": 317.0625,
            "velocity": 0.8661417322834646
          },
          {
            "duration": 0.18124999999997726,
            "durationTicks": 58,
            "midi": 50,
            "name": "D3",
            "ticks": 101520,
            "time": 317.25,
            "velocity": 0.8661417322834646
          },
          {
            "duration": 0.18124999999997726,
            "durationTicks": 58,
            "midi": 50,
            "name": "D3",
            "ticks": 101580,
            "time": 317.4375,
            "velocity": 0.8661417322834646
          },
          {
            "duration": 0.18124999999997726,
            "durationTicks": 58,
            "midi": 50,
            "name": "D3",
            "ticks": 101640,
            "time": 317.625,
            "velocity": 0.8661417322834646
          },
          {
            "duration": 0.18124999999997726,
            "durationTicks": 58,
            "midi": 50,
            "name": "D3",
            "ticks": 101700,
            "time": 317.8125,
            "velocity": 0.8661417322834646
          },
          {
            "duration": 0.18124999999997726,
            "durationTicks": 58,
            "midi": 50,
            "name": "D3",
            "ticks": 101760,
            "time": 318,
            "velocity": 0.8661417322834646
          },
          {
            "duration": 0.18124999999997726,
            "durationTicks": 58,
            "midi": 50,
            "name": "D3",
            "ticks": 101820,
            "time": 318.1875,
            "velocity": 0.8661417322834646
          },
          {
            "duration": 0.18124999999997726,
            "durationTicks": 58,
            "midi": 50,
            "name": "D3",
            "ticks": 101880,
            "time": 318.375,
            "velocity": 0.8661417322834646
          },
          {
            "duration": 0.18124999999997726,
            "durationTicks": 58,
            "midi": 50,
            "name": "D3",
            "ticks": 101940,
            "time": 318.5625,
            "velocity": 0.8661417322834646
          },
          {
            "duration": 0.18124999999997726,
            "durationTicks": 58,
            "midi": 50,
            "name": "D3",
            "ticks": 102000,
            "time": 318.75,
            "velocity": 0.8661417322834646
          },
          {
            "duration": 0.18124999999997726,
            "durationTicks": 58,
            "midi": 50,
            "name": "D3",
            "ticks": 102060,
            "time": 318.9375,
            "velocity": 0.8661417322834646
          },
          {
            "duration": 0.18124999999997726,
            "durationTicks": 58,
            "midi": 50,
            "name": "D3",
            "ticks": 102120,
            "time": 319.125,
            "velocity": 0.8661417322834646
          },
          {
            "duration": 0.18124999999997726,
            "durationTicks": 58,
            "midi": 50,
            "name": "D3",
            "ticks": 102180,
            "time": 319.3125,
            "velocity": 0.8661417322834646
          },
          {
            "duration": 0.6000000000000227,
            "durationTicks": 192,
            "midi": 50,
            "name": "D3",
            "ticks": 102240,
            "time": 319.5,
            "velocity": 0.8661417322834646
          },
          {
            "duration": 0.18124999999997726,
            "durationTicks": 58,
            "midi": 48,
            "name": "C3",
            "ticks": 103680,
            "time": 324,
            "velocity": 0.8661417322834646
          },
          {
            "duration": 0.18124999999997726,
            "durationTicks": 58,
            "midi": 48,
            "name": "C3",
            "ticks": 103740,
            "time": 324.1875,
            "velocity": 0.8661417322834646
          },
          {
            "duration": 0.18124999999997726,
            "durationTicks": 58,
            "midi": 48,
            "name": "C3",
            "ticks": 103800,
            "time": 324.375,
            "velocity": 0.8661417322834646
          },
          {
            "duration": 0.18124999999997726,
            "durationTicks": 58,
            "midi": 48,
            "name": "C3",
            "ticks": 103860,
            "time": 324.5625,
            "velocity": 0.8661417322834646
          },
          {
            "duration": 0.18124999999997726,
            "durationTicks": 58,
            "midi": 48,
            "name": "C3",
            "ticks": 103920,
            "time": 324.75,
            "velocity": 0.8661417322834646
          },
          {
            "duration": 0.18124999999997726,
            "durationTicks": 58,
            "midi": 48,
            "name": "C3",
            "ticks": 103980,
            "time": 324.9375,
            "velocity": 0.8661417322834646
          },
          {
            "duration": 0.18124999999997726,
            "durationTicks": 58,
            "midi": 48,
            "name": "C3",
            "ticks": 104040,
            "time": 325.125,
            "velocity": 0.8661417322834646
          },
          {
            "duration": 0.18124999999997726,
            "durationTicks": 58,
            "midi": 48,
            "name": "C3",
            "ticks": 104100,
            "time": 325.3125,
            "velocity": 0.8661417322834646
          },
          {
            "duration": 0.18124999999997726,
            "durationTicks": 58,
            "midi": 48,
            "name": "C3",
            "ticks": 104160,
            "time": 325.5,
            "velocity": 0.8661417322834646
          },
          {
            "duration": 0.18124999999997726,
            "durationTicks": 58,
            "midi": 48,
            "name": "C3",
            "ticks": 104220,
            "time": 325.6875,
            "velocity": 0.8661417322834646
          },
          {
            "duration": 0.18124999999997726,
            "durationTicks": 58,
            "midi": 48,
            "name": "C3",
            "ticks": 104280,
            "time": 325.875,
            "velocity": 0.8661417322834646
          },
          {
            "duration": 0.18124999999997726,
            "durationTicks": 58,
            "midi": 48,
            "name": "C3",
            "ticks": 104340,
            "time": 326.0625,
            "velocity": 0.8661417322834646
          },
          {
            "duration": 0.18124999999997726,
            "durationTicks": 58,
            "midi": 48,
            "name": "C3",
            "ticks": 104400,
            "time": 326.25,
            "velocity": 0.8661417322834646
          },
          {
            "duration": 0.18124999999997726,
            "durationTicks": 58,
            "midi": 48,
            "name": "C3",
            "ticks": 104460,
            "time": 326.4375,
            "velocity": 0.8661417322834646
          },
          {
            "duration": 0.18124999999997726,
            "durationTicks": 58,
            "midi": 48,
            "name": "C3",
            "ticks": 104520,
            "time": 326.625,
            "velocity": 0.8661417322834646
          },
          {
            "duration": 0.18124999999997726,
            "durationTicks": 58,
            "midi": 48,
            "name": "C3",
            "ticks": 104580,
            "time": 326.8125,
            "velocity": 0.8661417322834646
          },
          {
            "duration": 0.18124999999997726,
            "durationTicks": 58,
            "midi": 48,
            "name": "C3",
            "ticks": 104640,
            "time": 327,
            "velocity": 0.8661417322834646
          },
          {
            "duration": 0.18124999999997726,
            "durationTicks": 58,
            "midi": 48,
            "name": "C3",
            "ticks": 104700,
            "time": 327.1875,
            "velocity": 0.8661417322834646
          },
          {
            "duration": 0.18124999999997726,
            "durationTicks": 58,
            "midi": 48,
            "name": "C3",
            "ticks": 104760,
            "time": 327.375,
            "velocity": 0.8661417322834646
          },
          {
            "duration": 0.18124999999997726,
            "durationTicks": 58,
            "midi": 48,
            "name": "C3",
            "ticks": 104820,
            "time": 327.5625,
            "velocity": 0.8661417322834646
          },
          {
            "duration": 0.18124999999997726,
            "durationTicks": 58,
            "midi": 48,
            "name": "C3",
            "ticks": 104880,
            "time": 327.75,
            "velocity": 0.8661417322834646
          },
          {
            "duration": 0.18124999999997726,
            "durationTicks": 58,
            "midi": 48,
            "name": "C3",
            "ticks": 104940,
            "time": 327.9375,
            "velocity": 0.8661417322834646
          },
          {
            "duration": 0.18124999999997726,
            "durationTicks": 58,
            "midi": 48,
            "name": "C3",
            "ticks": 105000,
            "time": 328.125,
            "velocity": 0.8661417322834646
          },
          {
            "duration": 0.18124999999997726,
            "durationTicks": 58,
            "midi": 48,
            "name": "C3",
            "ticks": 105060,
            "time": 328.3125,
            "velocity": 0.8661417322834646
          },
          {
            "duration": 0.6000000000000227,
            "durationTicks": 192,
            "midi": 48,
            "name": "C3",
            "ticks": 105120,
            "time": 328.5,
            "velocity": 0.8661417322834646
          },
          {
            "duration": 0.18124999999997726,
            "durationTicks": 58,
            "midi": 48,
            "name": "C3",
            "ticks": 106560,
            "time": 333,
            "velocity": 0.8661417322834646
          },
          {
            "duration": 0.18124999999997726,
            "durationTicks": 58,
            "midi": 48,
            "name": "C3",
            "ticks": 106620,
            "time": 333.1875,
            "velocity": 0.8661417322834646
          },
          {
            "duration": 0.18124999999997726,
            "durationTicks": 58,
            "midi": 48,
            "name": "C3",
            "ticks": 106680,
            "time": 333.375,
            "velocity": 0.8661417322834646
          },
          {
            "duration": 0.18124999999997726,
            "durationTicks": 58,
            "midi": 48,
            "name": "C3",
            "ticks": 106740,
            "time": 333.5625,
            "velocity": 0.8661417322834646
          },
          {
            "duration": 0.18124999999997726,
            "durationTicks": 58,
            "midi": 48,
            "name": "C3",
            "ticks": 106800,
            "time": 333.75,
            "velocity": 0.8661417322834646
          },
          {
            "duration": 0.18124999999997726,
            "durationTicks": 58,
            "midi": 48,
            "name": "C3",
            "ticks": 106860,
            "time": 333.9375,
            "velocity": 0.8661417322834646
          },
          {
            "duration": 0.18124999999997726,
            "durationTicks": 58,
            "midi": 48,
            "name": "C3",
            "ticks": 106920,
            "time": 334.125,
            "velocity": 0.8661417322834646
          },
          {
            "duration": 0.18124999999997726,
            "durationTicks": 58,
            "midi": 48,
            "name": "C3",
            "ticks": 106980,
            "time": 334.3125,
            "velocity": 0.8661417322834646
          },
          {
            "duration": 0.18124999999997726,
            "durationTicks": 58,
            "midi": 48,
            "name": "C3",
            "ticks": 107040,
            "time": 334.5,
            "velocity": 0.8661417322834646
          },
          {
            "duration": 0.18124999999997726,
            "durationTicks": 58,
            "midi": 48,
            "name": "C3",
            "ticks": 107100,
            "time": 334.6875,
            "velocity": 0.8661417322834646
          },
          {
            "duration": 0.18124999999997726,
            "durationTicks": 58,
            "midi": 48,
            "name": "C3",
            "ticks": 107160,
            "time": 334.875,
            "velocity": 0.8661417322834646
          },
          {
            "duration": 0.18124999999997726,
            "durationTicks": 58,
            "midi": 48,
            "name": "C3",
            "ticks": 107220,
            "time": 335.0625,
            "velocity": 0.8661417322834646
          },
          {
            "duration": 0.18124999999997726,
            "durationTicks": 58,
            "midi": 48,
            "name": "C3",
            "ticks": 107280,
            "time": 335.25,
            "velocity": 0.8661417322834646
          },
          {
            "duration": 0.18124999999997726,
            "durationTicks": 58,
            "midi": 48,
            "name": "C3",
            "ticks": 107340,
            "time": 335.4375,
            "velocity": 0.8661417322834646
          },
          {
            "duration": 0.18124999999997726,
            "durationTicks": 58,
            "midi": 48,
            "name": "C3",
            "ticks": 107400,
            "time": 335.625,
            "velocity": 0.8661417322834646
          },
          {
            "duration": 0.18124999999997726,
            "durationTicks": 58,
            "midi": 48,
            "name": "C3",
            "ticks": 107460,
            "time": 335.8125,
            "velocity": 0.8661417322834646
          },
          {
            "duration": 0.18124999999997726,
            "durationTicks": 58,
            "midi": 48,
            "name": "C3",
            "ticks": 107520,
            "time": 336,
            "velocity": 0.8661417322834646
          },
          {
            "duration": 0.18124999999997726,
            "durationTicks": 58,
            "midi": 48,
            "name": "C3",
            "ticks": 107580,
            "time": 336.1875,
            "velocity": 0.8661417322834646
          },
          {
            "duration": 0.18124999999997726,
            "durationTicks": 58,
            "midi": 48,
            "name": "C3",
            "ticks": 107640,
            "time": 336.375,
            "velocity": 0.8661417322834646
          },
          {
            "duration": 0.18124999999997726,
            "durationTicks": 58,
            "midi": 48,
            "name": "C3",
            "ticks": 107700,
            "time": 336.5625,
            "velocity": 0.8661417322834646
          },
          {
            "duration": 0.18124999999997726,
            "durationTicks": 58,
            "midi": 48,
            "name": "C3",
            "ticks": 107760,
            "time": 336.75,
            "velocity": 0.8661417322834646
          },
          {
            "duration": 0.18124999999997726,
            "durationTicks": 58,
            "midi": 48,
            "name": "C3",
            "ticks": 107820,
            "time": 336.9375,
            "velocity": 0.8661417322834646
          },
          {
            "duration": 0.18124999999997726,
            "durationTicks": 58,
            "midi": 48,
            "name": "C3",
            "ticks": 107880,
            "time": 337.125,
            "velocity": 0.8661417322834646
          },
          {
            "duration": 0.18124999999997726,
            "durationTicks": 58,
            "midi": 48,
            "name": "C3",
            "ticks": 107940,
            "time": 337.3125,
            "velocity": 0.8661417322834646
          },
          {
            "duration": 0.6000000000000227,
            "durationTicks": 192,
            "midi": 48,
            "name": "C3",
            "ticks": 108000,
            "time": 337.5,
            "velocity": 0.8661417322834646
          },
          {
            "duration": 0.7062500000000114,
            "durationTicks": 226,
            "midi": 48,
            "name": "C3",
            "ticks": 115440,
            "time": 360.75,
            "velocity": 1
          },
          {
            "duration": 0.18124999999997726,
            "durationTicks": 58,
            "midi": 52,
            "name": "E3",
            "ticks": 166080,
            "time": 519,
            "velocity": 0.905511811023622
          },
          {
            "duration": 0.18124999999997726,
            "durationTicks": 58,
            "midi": 52,
            "name": "E3",
            "ticks": 166140,
            "time": 519.1875,
            "velocity": 0.905511811023622
          },
          {
            "duration": 0.18124999999997726,
            "durationTicks": 58,
            "midi": 52,
            "name": "E3",
            "ticks": 166200,
            "time": 519.375,
            "velocity": 0.905511811023622
          },
          {
            "duration": 0.18124999999997726,
            "durationTicks": 58,
            "midi": 52,
            "name": "E3",
            "ticks": 166260,
            "time": 519.5625,
            "velocity": 0.905511811023622
          },
          {
            "duration": 0.18124999999997726,
            "durationTicks": 58,
            "midi": 52,
            "name": "E3",
            "ticks": 166320,
            "time": 519.75,
            "velocity": 0.905511811023622
          },
          {
            "duration": 0.18124999999997726,
            "durationTicks": 58,
            "midi": 52,
            "name": "E3",
            "ticks": 166380,
            "time": 519.9375,
            "velocity": 0.905511811023622
          },
          {
            "duration": 0.18124999999997726,
            "durationTicks": 58,
            "midi": 52,
            "name": "E3",
            "ticks": 166440,
            "time": 520.125,
            "velocity": 0.905511811023622
          },
          {
            "duration": 0.18124999999997726,
            "durationTicks": 58,
            "midi": 52,
            "name": "E3",
            "ticks": 166500,
            "time": 520.3125,
            "velocity": 0.905511811023622
          },
          {
            "duration": 0.18124999999997726,
            "durationTicks": 58,
            "midi": 52,
            "name": "E3",
            "ticks": 166560,
            "time": 520.5,
            "velocity": 0.905511811023622
          },
          {
            "duration": 0.18124999999997726,
            "durationTicks": 58,
            "midi": 52,
            "name": "E3",
            "ticks": 166620,
            "time": 520.6875,
            "velocity": 0.905511811023622
          },
          {
            "duration": 0.18124999999997726,
            "durationTicks": 58,
            "midi": 52,
            "name": "E3",
            "ticks": 166680,
            "time": 520.875,
            "velocity": 0.905511811023622
          },
          {
            "duration": 0.18124999999997726,
            "durationTicks": 58,
            "midi": 52,
            "name": "E3",
            "ticks": 166740,
            "time": 521.0625,
            "velocity": 0.905511811023622
          },
          {
            "duration": 0.18124999999997726,
            "durationTicks": 58,
            "midi": 52,
            "name": "E3",
            "ticks": 166800,
            "time": 521.25,
            "velocity": 0.905511811023622
          },
          {
            "duration": 0.18124999999997726,
            "durationTicks": 58,
            "midi": 52,
            "name": "E3",
            "ticks": 166860,
            "time": 521.4375,
            "velocity": 0.905511811023622
          },
          {
            "duration": 0.18124999999997726,
            "durationTicks": 58,
            "midi": 52,
            "name": "E3",
            "ticks": 166920,
            "time": 521.625,
            "velocity": 0.905511811023622
          },
          {
            "duration": 0.18124999999997726,
            "durationTicks": 58,
            "midi": 52,
            "name": "E3",
            "ticks": 166980,
            "time": 521.8125,
            "velocity": 0.905511811023622
          },
          {
            "duration": 0.18124999999997726,
            "durationTicks": 58,
            "midi": 52,
            "name": "E3",
            "ticks": 167040,
            "time": 522,
            "velocity": 0.905511811023622
          },
          {
            "duration": 0.18124999999997726,
            "durationTicks": 58,
            "midi": 52,
            "name": "E3",
            "ticks": 167100,
            "time": 522.1875,
            "velocity": 0.905511811023622
          },
          {
            "duration": 0.18124999999997726,
            "durationTicks": 58,
            "midi": 52,
            "name": "E3",
            "ticks": 167160,
            "time": 522.375,
            "velocity": 0.905511811023622
          },
          {
            "duration": 0.18124999999997726,
            "durationTicks": 58,
            "midi": 52,
            "name": "E3",
            "ticks": 167220,
            "time": 522.5625,
            "velocity": 0.905511811023622
          },
          {
            "duration": 0.18124999999997726,
            "durationTicks": 58,
            "midi": 52,
            "name": "E3",
            "ticks": 167280,
            "time": 522.75,
            "velocity": 0.905511811023622
          },
          {
            "duration": 0.18124999999997726,
            "durationTicks": 58,
            "midi": 52,
            "name": "E3",
            "ticks": 167340,
            "time": 522.9375,
            "velocity": 0.905511811023622
          },
          {
            "duration": 0.18124999999997726,
            "durationTicks": 58,
            "midi": 52,
            "name": "E3",
            "ticks": 167400,
            "time": 523.125,
            "velocity": 0.905511811023622
          },
          {
            "duration": 0.18124999999997726,
            "durationTicks": 58,
            "midi": 52,
            "name": "E3",
            "ticks": 167460,
            "time": 523.3125,
            "velocity": 0.905511811023622
          },
          {
            "duration": 0.18124999999997726,
            "durationTicks": 58,
            "midi": 52,
            "name": "E3",
            "ticks": 167520,
            "time": 523.5,
            "velocity": 0.905511811023622
          },
          {
            "duration": 0.18124999999997726,
            "durationTicks": 58,
            "midi": 52,
            "name": "E3",
            "ticks": 167580,
            "time": 523.6875,
            "velocity": 0.905511811023622
          },
          {
            "duration": 0.18124999999997726,
            "durationTicks": 58,
            "midi": 52,
            "name": "E3",
            "ticks": 167640,
            "time": 523.875,
            "velocity": 0.905511811023622
          },
          {
            "duration": 0.18124999999997726,
            "durationTicks": 58,
            "midi": 52,
            "name": "E3",
            "ticks": 167700,
            "time": 524.0625,
            "velocity": 0.905511811023622
          },
          {
            "duration": 0.18124999999997726,
            "durationTicks": 58,
            "midi": 52,
            "name": "E3",
            "ticks": 167760,
            "time": 524.25,
            "velocity": 0.905511811023622
          },
          {
            "duration": 0.18124999999997726,
            "durationTicks": 58,
            "midi": 52,
            "name": "E3",
            "ticks": 167820,
            "time": 524.4375,
            "velocity": 0.905511811023622
          },
          {
            "duration": 0.18124999999997726,
            "durationTicks": 58,
            "midi": 52,
            "name": "E3",
            "ticks": 167880,
            "time": 524.625,
            "velocity": 0.905511811023622
          },
          {
            "duration": 0.18124999999997726,
            "durationTicks": 58,
            "midi": 52,
            "name": "E3",
            "ticks": 167940,
            "time": 524.8125,
            "velocity": 0.905511811023622
          },
          {
            "duration": 0.18124999999997726,
            "durationTicks": 58,
            "midi": 52,
            "name": "E3",
            "ticks": 168000,
            "time": 525,
            "velocity": 0.905511811023622
          },
          {
            "duration": 0.18124999999997726,
            "durationTicks": 58,
            "midi": 52,
            "name": "E3",
            "ticks": 168060,
            "time": 525.1875,
            "velocity": 0.905511811023622
          },
          {
            "duration": 0.18124999999997726,
            "durationTicks": 58,
            "midi": 52,
            "name": "E3",
            "ticks": 168120,
            "time": 525.375,
            "velocity": 0.905511811023622
          },
          {
            "duration": 0.18124999999997726,
            "durationTicks": 58,
            "midi": 52,
            "name": "E3",
            "ticks": 168180,
            "time": 525.5625,
            "velocity": 0.905511811023622
          },
          {
            "duration": 0.18124999999997726,
            "durationTicks": 58,
            "midi": 52,
            "name": "E3",
            "ticks": 168240,
            "time": 525.75,
            "velocity": 0.905511811023622
          },
          {
            "duration": 0.18124999999997726,
            "durationTicks": 58,
            "midi": 52,
            "name": "E3",
            "ticks": 168300,
            "time": 525.9375,
            "velocity": 0.905511811023622
          },
          {
            "duration": 0.18124999999997726,
            "durationTicks": 58,
            "midi": 52,
            "name": "E3",
            "ticks": 168360,
            "time": 526.125,
            "velocity": 0.905511811023622
          },
          {
            "duration": 0.18124999999997726,
            "durationTicks": 58,
            "midi": 52,
            "name": "E3",
            "ticks": 168420,
            "time": 526.3125,
            "velocity": 0.905511811023622
          },
          {
            "duration": 0.18124999999997726,
            "durationTicks": 58,
            "midi": 52,
            "name": "E3",
            "ticks": 168480,
            "time": 526.5,
            "velocity": 0.905511811023622
          },
          {
            "duration": 0.18124999999997726,
            "durationTicks": 58,
            "midi": 52,
            "name": "E3",
            "ticks": 168540,
            "time": 526.6875,
            "velocity": 0.905511811023622
          },
          {
            "duration": 0.18124999999997726,
            "durationTicks": 58,
            "midi": 52,
            "name": "E3",
            "ticks": 168600,
            "time": 526.875,
            "velocity": 0.905511811023622
          },
          {
            "duration": 0.18124999999997726,
            "durationTicks": 58,
            "midi": 52,
            "name": "E3",
            "ticks": 168660,
            "time": 527.0625,
            "velocity": 0.905511811023622
          },
          {
            "duration": 0.18124999999997726,
            "durationTicks": 58,
            "midi": 52,
            "name": "E3",
            "ticks": 168720,
            "time": 527.25,
            "velocity": 0.905511811023622
          },
          {
            "duration": 0.18124999999997726,
            "durationTicks": 58,
            "midi": 52,
            "name": "E3",
            "ticks": 168780,
            "time": 527.4375,
            "velocity": 0.905511811023622
          },
          {
            "duration": 0.18124999999997726,
            "durationTicks": 58,
            "midi": 52,
            "name": "E3",
            "ticks": 168840,
            "time": 527.625,
            "velocity": 0.905511811023622
          },
          {
            "duration": 0.18124999999997726,
            "durationTicks": 58,
            "midi": 52,
            "name": "E3",
            "ticks": 168900,
            "time": 527.8125,
            "velocity": 0.905511811023622
          },
          {
            "duration": 0.18124999999997726,
            "durationTicks": 58,
            "midi": 52,
            "name": "E3",
            "ticks": 168960,
            "time": 528,
            "velocity": 0.905511811023622
          },
          {
            "duration": 0.18124999999997726,
            "durationTicks": 58,
            "midi": 52,
            "name": "E3",
            "ticks": 169020,
            "time": 528.1875,
            "velocity": 0.905511811023622
          },
          {
            "duration": 0.18124999999997726,
            "durationTicks": 58,
            "midi": 52,
            "name": "E3",
            "ticks": 169080,
            "time": 528.375,
            "velocity": 0.905511811023622
          },
          {
            "duration": 0.18124999999997726,
            "durationTicks": 58,
            "midi": 52,
            "name": "E3",
            "ticks": 169140,
            "time": 528.5625,
            "velocity": 0.905511811023622
          },
          {
            "duration": 0.18124999999997726,
            "durationTicks": 58,
            "midi": 52,
            "name": "E3",
            "ticks": 169200,
            "time": 528.75,
            "velocity": 0.905511811023622
          },
          {
            "duration": 0.18124999999997726,
            "durationTicks": 58,
            "midi": 52,
            "name": "E3",
            "ticks": 169260,
            "time": 528.9375,
            "velocity": 0.905511811023622
          },
          {
            "duration": 0.18124999999997726,
            "durationTicks": 58,
            "midi": 52,
            "name": "E3",
            "ticks": 169320,
            "time": 529.125,
            "velocity": 0.905511811023622
          },
          {
            "duration": 0.18124999999997726,
            "durationTicks": 58,
            "midi": 52,
            "name": "E3",
            "ticks": 169380,
            "time": 529.3125,
            "velocity": 0.905511811023622
          },
          {
            "duration": 0.18124999999997726,
            "durationTicks": 58,
            "midi": 52,
            "name": "E3",
            "ticks": 169440,
            "time": 529.5,
            "velocity": 0.905511811023622
          },
          {
            "duration": 0.18124999999997726,
            "durationTicks": 58,
            "midi": 52,
            "name": "E3",
            "ticks": 169500,
            "time": 529.6875,
            "velocity": 0.905511811023622
          },
          {
            "duration": 0.18124999999997726,
            "durationTicks": 58,
            "midi": 52,
            "name": "E3",
            "ticks": 169560,
            "time": 529.875,
            "velocity": 0.905511811023622
          },
          {
            "duration": 0.18124999999997726,
            "durationTicks": 58,
            "midi": 52,
            "name": "E3",
            "ticks": 169620,
            "time": 530.0625,
            "velocity": 0.905511811023622
          },
          {
            "duration": 0.18124999999997726,
            "durationTicks": 58,
            "midi": 52,
            "name": "E3",
            "ticks": 169680,
            "time": 530.25,
            "velocity": 0.905511811023622
          },
          {
            "duration": 0.18124999999997726,
            "durationTicks": 58,
            "midi": 52,
            "name": "E3",
            "ticks": 169740,
            "time": 530.4375,
            "velocity": 0.905511811023622
          },
          {
            "duration": 0.18124999999997726,
            "durationTicks": 58,
            "midi": 52,
            "name": "E3",
            "ticks": 169800,
            "time": 530.625,
            "velocity": 0.905511811023622
          },
          {
            "duration": 0.18124999999997726,
            "durationTicks": 58,
            "midi": 52,
            "name": "E3",
            "ticks": 169860,
            "time": 530.8125,
            "velocity": 0.905511811023622
          },
          {
            "duration": 0.18124999999997726,
            "durationTicks": 58,
            "midi": 52,
            "name": "E3",
            "ticks": 169920,
            "time": 531,
            "velocity": 0.905511811023622
          },
          {
            "duration": 0.18124999999997726,
            "durationTicks": 58,
            "midi": 52,
            "name": "E3",
            "ticks": 169980,
            "time": 531.1875,
            "velocity": 0.905511811023622
          },
          {
            "duration": 0.18124999999997726,
            "durationTicks": 58,
            "midi": 52,
            "name": "E3",
            "ticks": 170040,
            "time": 531.375,
            "velocity": 0.905511811023622
          },
          {
            "duration": 0.18124999999997726,
            "durationTicks": 58,
            "midi": 52,
            "name": "E3",
            "ticks": 170100,
            "time": 531.5625,
            "velocity": 0.905511811023622
          },
          {
            "duration": 0.18124999999997726,
            "durationTicks": 58,
            "midi": 52,
            "name": "E3",
            "ticks": 170160,
            "time": 531.75,
            "velocity": 0.905511811023622
          },
          {
            "duration": 0.18124999999997726,
            "durationTicks": 58,
            "midi": 52,
            "name": "E3",
            "ticks": 170220,
            "time": 531.9375,
            "velocity": 0.905511811023622
          },
          {
            "duration": 0.18124999999997726,
            "durationTicks": 58,
            "midi": 52,
            "name": "E3",
            "ticks": 170280,
            "time": 532.125,
            "velocity": 0.905511811023622
          },
          {
            "duration": 0.18124999999997726,
            "durationTicks": 58,
            "midi": 52,
            "name": "E3",
            "ticks": 170340,
            "time": 532.3125,
            "velocity": 0.905511811023622
          },
          {
            "duration": 0.18124999999997726,
            "durationTicks": 58,
            "midi": 52,
            "name": "E3",
            "ticks": 170400,
            "time": 532.5,
            "velocity": 0.905511811023622
          },
          {
            "duration": 0.18124999999997726,
            "durationTicks": 58,
            "midi": 52,
            "name": "E3",
            "ticks": 170460,
            "time": 532.6875,
            "velocity": 0.905511811023622
          },
          {
            "duration": 0.18124999999997726,
            "durationTicks": 58,
            "midi": 52,
            "name": "E3",
            "ticks": 170520,
            "time": 532.875,
            "velocity": 0.905511811023622
          },
          {
            "duration": 0.18124999999997726,
            "durationTicks": 58,
            "midi": 52,
            "name": "E3",
            "ticks": 170580,
            "time": 533.0625,
            "velocity": 0.905511811023622
          },
          {
            "duration": 0.18124999999997726,
            "durationTicks": 58,
            "midi": 52,
            "name": "E3",
            "ticks": 170640,
            "time": 533.25,
            "velocity": 0.905511811023622
          },
          {
            "duration": 0.18124999999997726,
            "durationTicks": 58,
            "midi": 52,
            "name": "E3",
            "ticks": 170700,
            "time": 533.4375,
            "velocity": 0.905511811023622
          },
          {
            "duration": 0.18124999999997726,
            "durationTicks": 58,
            "midi": 52,
            "name": "E3",
            "ticks": 170760,
            "time": 533.625,
            "velocity": 0.905511811023622
          },
          {
            "duration": 0.18124999999997726,
            "durationTicks": 58,
            "midi": 52,
            "name": "E3",
            "ticks": 170820,
            "time": 533.8125,
            "velocity": 0.905511811023622
          },
          {
            "duration": 0.18124999999997726,
            "durationTicks": 58,
            "midi": 52,
            "name": "E3",
            "ticks": 170880,
            "time": 534,
            "velocity": 0.905511811023622
          },
          {
            "duration": 0.18124999999997726,
            "durationTicks": 58,
            "midi": 52,
            "name": "E3",
            "ticks": 170940,
            "time": 534.1875,
            "velocity": 0.905511811023622
          },
          {
            "duration": 0.18124999999997726,
            "durationTicks": 58,
            "midi": 52,
            "name": "E3",
            "ticks": 171000,
            "time": 534.375,
            "velocity": 0.905511811023622
          },
          {
            "duration": 0.18124999999997726,
            "durationTicks": 58,
            "midi": 52,
            "name": "E3",
            "ticks": 171060,
            "time": 534.5625,
            "velocity": 0.905511811023622
          },
          {
            "duration": 0.18124999999997726,
            "durationTicks": 58,
            "midi": 52,
            "name": "E3",
            "ticks": 171120,
            "time": 534.75,
            "velocity": 0.905511811023622
          },
          {
            "duration": 0.18124999999997726,
            "durationTicks": 58,
            "midi": 52,
            "name": "E3",
            "ticks": 171180,
            "time": 534.9375,
            "velocity": 0.905511811023622
          },
          {
            "duration": 0.18124999999997726,
            "durationTicks": 58,
            "midi": 52,
            "name": "E3",
            "ticks": 171240,
            "time": 535.125,
            "velocity": 0.905511811023622
          },
          {
            "duration": 0.18124999999997726,
            "durationTicks": 58,
            "midi": 52,
            "name": "E3",
            "ticks": 171300,
            "time": 535.3125,
            "velocity": 0.905511811023622
          },
          {
            "duration": 0.18124999999997726,
            "durationTicks": 58,
            "midi": 52,
            "name": "E3",
            "ticks": 171360,
            "time": 535.5,
            "velocity": 0.905511811023622
          },
          {
            "duration": 0.18124999999997726,
            "durationTicks": 58,
            "midi": 52,
            "name": "E3",
            "ticks": 171420,
            "time": 535.6875,
            "velocity": 0.905511811023622
          },
          {
            "duration": 0.18124999999997726,
            "durationTicks": 58,
            "midi": 52,
            "name": "E3",
            "ticks": 171480,
            "time": 535.875,
            "velocity": 0.905511811023622
          },
          {
            "duration": 0.18124999999997726,
            "durationTicks": 58,
            "midi": 52,
            "name": "E3",
            "ticks": 171540,
            "time": 536.0625,
            "velocity": 0.905511811023622
          },
          {
            "duration": 0.18124999999997726,
            "durationTicks": 58,
            "midi": 52,
            "name": "E3",
            "ticks": 171600,
            "time": 536.25,
            "velocity": 0.905511811023622
          },
          {
            "duration": 0.18124999999997726,
            "durationTicks": 58,
            "midi": 52,
            "name": "E3",
            "ticks": 171660,
            "time": 536.4375,
            "velocity": 0.905511811023622
          },
          {
            "duration": 0.18124999999997726,
            "durationTicks": 58,
            "midi": 52,
            "name": "E3",
            "ticks": 171720,
            "time": 536.625,
            "velocity": 0.905511811023622
          },
          {
            "duration": 0.18124999999997726,
            "durationTicks": 58,
            "midi": 52,
            "name": "E3",
            "ticks": 171780,
            "time": 536.8125,
            "velocity": 0.905511811023622
          },
          {
            "duration": 0.18124999999997726,
            "durationTicks": 58,
            "midi": 52,
            "name": "E3",
            "ticks": 171840,
            "time": 537,
            "velocity": 0.905511811023622
          },
          {
            "duration": 0.18124999999997726,
            "durationTicks": 58,
            "midi": 52,
            "name": "E3",
            "ticks": 171900,
            "time": 537.1875,
            "velocity": 0.905511811023622
          },
          {
            "duration": 0.18124999999997726,
            "durationTicks": 58,
            "midi": 52,
            "name": "E3",
            "ticks": 171960,
            "time": 537.375,
            "velocity": 0.905511811023622
          },
          {
            "duration": 0.18124999999997726,
            "durationTicks": 58,
            "midi": 52,
            "name": "E3",
            "ticks": 172020,
            "time": 537.5625,
            "velocity": 0.905511811023622
          },
          {
            "duration": 0.18124999999997726,
            "durationTicks": 58,
            "midi": 52,
            "name": "E3",
            "ticks": 172080,
            "time": 537.75,
            "velocity": 0.905511811023622
          },
          {
            "duration": 0.18124999999997726,
            "durationTicks": 58,
            "midi": 52,
            "name": "E3",
            "ticks": 172140,
            "time": 537.9375,
            "velocity": 0.905511811023622
          },
          {
            "duration": 0.18124999999997726,
            "durationTicks": 58,
            "midi": 52,
            "name": "E3",
            "ticks": 172200,
            "time": 538.125,
            "velocity": 0.905511811023622
          },
          {
            "duration": 0.18124999999997726,
            "durationTicks": 58,
            "midi": 52,
            "name": "E3",
            "ticks": 172260,
            "time": 538.3125,
            "velocity": 0.905511811023622
          },
          {
            "duration": 0.18124999999997726,
            "durationTicks": 58,
            "midi": 52,
            "name": "E3",
            "ticks": 172320,
            "time": 538.5,
            "velocity": 0.905511811023622
          },
          {
            "duration": 0.18124999999997726,
            "durationTicks": 58,
            "midi": 52,
            "name": "E3",
            "ticks": 172380,
            "time": 538.6875,
            "velocity": 0.905511811023622
          },
          {
            "duration": 0.18124999999997726,
            "durationTicks": 58,
            "midi": 52,
            "name": "E3",
            "ticks": 172440,
            "time": 538.875,
            "velocity": 0.905511811023622
          },
          {
            "duration": 0.18124999999997726,
            "durationTicks": 58,
            "midi": 52,
            "name": "E3",
            "ticks": 172500,
            "time": 539.0625,
            "velocity": 0.905511811023622
          },
          {
            "duration": 0.18124999999997726,
            "durationTicks": 58,
            "midi": 52,
            "name": "E3",
            "ticks": 172560,
            "time": 539.25,
            "velocity": 0.905511811023622
          },
          {
            "duration": 0.18124999999997726,
            "durationTicks": 58,
            "midi": 52,
            "name": "E3",
            "ticks": 172620,
            "time": 539.4375,
            "velocity": 0.905511811023622
          },
          {
            "duration": 0.18124999999997726,
            "durationTicks": 58,
            "midi": 52,
            "name": "E3",
            "ticks": 172680,
            "time": 539.625,
            "velocity": 0.905511811023622
          },
          {
            "duration": 0.18124999999997726,
            "durationTicks": 58,
            "midi": 52,
            "name": "E3",
            "ticks": 172740,
            "time": 539.8125,
            "velocity": 0.905511811023622
          },
          {
            "duration": 0.18124999999997726,
            "durationTicks": 58,
            "midi": 52,
            "name": "E3",
            "ticks": 172800,
            "time": 540,
            "velocity": 0.905511811023622
          },
          {
            "duration": 0.18124999999997726,
            "durationTicks": 58,
            "midi": 52,
            "name": "E3",
            "ticks": 172860,
            "time": 540.1875,
            "velocity": 0.905511811023622
          },
          {
            "duration": 0.18124999999997726,
            "durationTicks": 58,
            "midi": 52,
            "name": "E3",
            "ticks": 172920,
            "time": 540.375,
            "velocity": 0.905511811023622
          },
          {
            "duration": 0.18124999999997726,
            "durationTicks": 58,
            "midi": 52,
            "name": "E3",
            "ticks": 172980,
            "time": 540.5625,
            "velocity": 0.905511811023622
          },
          {
            "duration": 0.18124999999997726,
            "durationTicks": 58,
            "midi": 52,
            "name": "E3",
            "ticks": 173040,
            "time": 540.75,
            "velocity": 0.905511811023622
          },
          {
            "duration": 0.18124999999997726,
            "durationTicks": 58,
            "midi": 52,
            "name": "E3",
            "ticks": 173100,
            "time": 540.9375,
            "velocity": 0.905511811023622
          },
          {
            "duration": 0.18124999999997726,
            "durationTicks": 58,
            "midi": 52,
            "name": "E3",
            "ticks": 173160,
            "time": 541.125,
            "velocity": 0.905511811023622
          },
          {
            "duration": 0.18124999999997726,
            "durationTicks": 58,
            "midi": 52,
            "name": "E3",
            "ticks": 173220,
            "time": 541.3125,
            "velocity": 0.905511811023622
          },
          {
            "duration": 0.18124999999997726,
            "durationTicks": 58,
            "midi": 52,
            "name": "E3",
            "ticks": 173280,
            "time": 541.5,
            "velocity": 0.905511811023622
          },
          {
            "duration": 0.18124999999997726,
            "durationTicks": 58,
            "midi": 52,
            "name": "E3",
            "ticks": 173340,
            "time": 541.6875,
            "velocity": 0.905511811023622
          },
          {
            "duration": 0.18124999999997726,
            "durationTicks": 58,
            "midi": 52,
            "name": "E3",
            "ticks": 173400,
            "time": 541.875,
            "velocity": 0.905511811023622
          },
          {
            "duration": 0.18124999999997726,
            "durationTicks": 58,
            "midi": 52,
            "name": "E3",
            "ticks": 173460,
            "time": 542.0625,
            "velocity": 0.905511811023622
          },
          {
            "duration": 0.18124999999997726,
            "durationTicks": 58,
            "midi": 52,
            "name": "E3",
            "ticks": 173520,
            "time": 542.25,
            "velocity": 0.905511811023622
          },
          {
            "duration": 0.18124999999997726,
            "durationTicks": 58,
            "midi": 52,
            "name": "E3",
            "ticks": 173580,
            "time": 542.4375,
            "velocity": 0.905511811023622
          },
          {
            "duration": 0.18124999999997726,
            "durationTicks": 58,
            "midi": 52,
            "name": "E3",
            "ticks": 173640,
            "time": 542.625,
            "velocity": 0.905511811023622
          },
          {
            "duration": 0.18124999999997726,
            "durationTicks": 58,
            "midi": 52,
            "name": "E3",
            "ticks": 173700,
            "time": 542.8125,
            "velocity": 0.905511811023622
          },
          {
            "duration": 0.18124999999997726,
            "durationTicks": 58,
            "midi": 52,
            "name": "E3",
            "ticks": 173760,
            "time": 543,
            "velocity": 0.905511811023622
          },
          {
            "duration": 0.18124999999997726,
            "durationTicks": 58,
            "midi": 52,
            "name": "E3",
            "ticks": 173820,
            "time": 543.1875,
            "velocity": 0.905511811023622
          },
          {
            "duration": 0.18124999999997726,
            "durationTicks": 58,
            "midi": 52,
            "name": "E3",
            "ticks": 173880,
            "time": 543.375,
            "velocity": 0.905511811023622
          },
          {
            "duration": 0.18124999999997726,
            "durationTicks": 58,
            "midi": 52,
            "name": "E3",
            "ticks": 173940,
            "time": 543.5625,
            "velocity": 0.905511811023622
          },
          {
            "duration": 0.18124999999997726,
            "durationTicks": 58,
            "midi": 52,
            "name": "E3",
            "ticks": 174000,
            "time": 543.75,
            "velocity": 0.905511811023622
          },
          {
            "duration": 0.18124999999997726,
            "durationTicks": 58,
            "midi": 52,
            "name": "E3",
            "ticks": 174060,
            "time": 543.9375,
            "velocity": 0.905511811023622
          },
          {
            "duration": 0.18124999999997726,
            "durationTicks": 58,
            "midi": 52,
            "name": "E3",
            "ticks": 174120,
            "time": 544.125,
            "velocity": 0.905511811023622
          },
          {
            "duration": 0.18124999999997726,
            "durationTicks": 58,
            "midi": 52,
            "name": "E3",
            "ticks": 174180,
            "time": 544.3125,
            "velocity": 0.905511811023622
          },
          {
            "duration": 0.18124999999997726,
            "durationTicks": 58,
            "midi": 52,
            "name": "E3",
            "ticks": 174240,
            "time": 544.5,
            "velocity": 0.905511811023622
          },
          {
            "duration": 0.18124999999997726,
            "durationTicks": 58,
            "midi": 52,
            "name": "E3",
            "ticks": 174300,
            "time": 544.6875,
            "velocity": 0.905511811023622
          },
          {
            "duration": 0.18124999999997726,
            "durationTicks": 58,
            "midi": 52,
            "name": "E3",
            "ticks": 174360,
            "time": 544.875,
            "velocity": 0.905511811023622
          },
          {
            "duration": 0.18124999999997726,
            "durationTicks": 58,
            "midi": 52,
            "name": "E3",
            "ticks": 174420,
            "time": 545.0625,
            "velocity": 0.905511811023622
          },
          {
            "duration": 0.18124999999997726,
            "durationTicks": 58,
            "midi": 52,
            "name": "E3",
            "ticks": 174480,
            "time": 545.25,
            "velocity": 0.905511811023622
          },
          {
            "duration": 0.18124999999997726,
            "durationTicks": 58,
            "midi": 52,
            "name": "E3",
            "ticks": 174540,
            "time": 545.4375,
            "velocity": 0.905511811023622
          },
          {
            "duration": 0.18124999999997726,
            "durationTicks": 58,
            "midi": 52,
            "name": "E3",
            "ticks": 174600,
            "time": 545.625,
            "velocity": 0.905511811023622
          },
          {
            "duration": 0.18124999999997726,
            "durationTicks": 58,
            "midi": 52,
            "name": "E3",
            "ticks": 174660,
            "time": 545.8125,
            "velocity": 0.905511811023622
          },
          {
            "duration": 0.18124999999997726,
            "durationTicks": 58,
            "midi": 52,
            "name": "E3",
            "ticks": 174720,
            "time": 546,
            "velocity": 0.905511811023622
          },
          {
            "duration": 0.18124999999997726,
            "durationTicks": 58,
            "midi": 52,
            "name": "E3",
            "ticks": 174780,
            "time": 546.1875,
            "velocity": 0.905511811023622
          },
          {
            "duration": 0.18124999999997726,
            "durationTicks": 58,
            "midi": 52,
            "name": "E3",
            "ticks": 174840,
            "time": 546.375,
            "velocity": 0.905511811023622
          },
          {
            "duration": 0.18124999999997726,
            "durationTicks": 58,
            "midi": 52,
            "name": "E3",
            "ticks": 174900,
            "time": 546.5625,
            "velocity": 0.905511811023622
          },
          {
            "duration": 0.18124999999997726,
            "durationTicks": 58,
            "midi": 52,
            "name": "E3",
            "ticks": 174960,
            "time": 546.75,
            "velocity": 0.905511811023622
          },
          {
            "duration": 0.18124999999997726,
            "durationTicks": 58,
            "midi": 52,
            "name": "E3",
            "ticks": 175020,
            "time": 546.9375,
            "velocity": 0.905511811023622
          },
          {
            "duration": 0.18124999999997726,
            "durationTicks": 58,
            "midi": 52,
            "name": "E3",
            "ticks": 175080,
            "time": 547.125,
            "velocity": 0.905511811023622
          },
          {
            "duration": 0.18124999999997726,
            "durationTicks": 58,
            "midi": 52,
            "name": "E3",
            "ticks": 175140,
            "time": 547.3125,
            "velocity": 0.905511811023622
          },
          {
            "duration": 0.18124999999997726,
            "durationTicks": 58,
            "midi": 52,
            "name": "E3",
            "ticks": 175200,
            "time": 547.5,
            "velocity": 0.905511811023622
          },
          {
            "duration": 0.18124999999997726,
            "durationTicks": 58,
            "midi": 52,
            "name": "E3",
            "ticks": 175260,
            "time": 547.6875,
            "velocity": 0.905511811023622
          },
          {
            "duration": 0.18124999999997726,
            "durationTicks": 58,
            "midi": 52,
            "name": "E3",
            "ticks": 175320,
            "time": 547.875,
            "velocity": 0.905511811023622
          },
          {
            "duration": 0.18124999999997726,
            "durationTicks": 58,
            "midi": 52,
            "name": "E3",
            "ticks": 175380,
            "time": 548.0625,
            "velocity": 0.905511811023622
          },
          {
            "duration": 0.18124999999997726,
            "durationTicks": 58,
            "midi": 52,
            "name": "E3",
            "ticks": 175440,
            "time": 548.25,
            "velocity": 0.905511811023622
          },
          {
            "duration": 0.18124999999997726,
            "durationTicks": 58,
            "midi": 52,
            "name": "E3",
            "ticks": 175500,
            "time": 548.4375,
            "velocity": 0.905511811023622
          },
          {
            "duration": 0.18124999999997726,
            "durationTicks": 58,
            "midi": 52,
            "name": "E3",
            "ticks": 175560,
            "time": 548.625,
            "velocity": 0.905511811023622
          },
          {
            "duration": 0.18124999999997726,
            "durationTicks": 58,
            "midi": 52,
            "name": "E3",
            "ticks": 175620,
            "time": 548.8125,
            "velocity": 0.905511811023622
          },
          {
            "duration": 0.18124999999997726,
            "durationTicks": 58,
            "midi": 52,
            "name": "E3",
            "ticks": 175680,
            "time": 549,
            "velocity": 0.905511811023622
          },
          {
            "duration": 0.18124999999997726,
            "durationTicks": 58,
            "midi": 52,
            "name": "E3",
            "ticks": 175740,
            "time": 549.1875,
            "velocity": 0.905511811023622
          },
          {
            "duration": 0.18124999999997726,
            "durationTicks": 58,
            "midi": 52,
            "name": "E3",
            "ticks": 175800,
            "time": 549.375,
            "velocity": 0.905511811023622
          },
          {
            "duration": 0.18124999999997726,
            "durationTicks": 58,
            "midi": 52,
            "name": "E3",
            "ticks": 175860,
            "time": 549.5625,
            "velocity": 0.905511811023622
          },
          {
            "duration": 0.18124999999997726,
            "durationTicks": 58,
            "midi": 52,
            "name": "E3",
            "ticks": 175920,
            "time": 549.75,
            "velocity": 0.905511811023622
          },
          {
            "duration": 0.18124999999997726,
            "durationTicks": 58,
            "midi": 52,
            "name": "E3",
            "ticks": 175980,
            "time": 549.9375,
            "velocity": 0.905511811023622
          },
          {
            "duration": 0.18124999999997726,
            "durationTicks": 58,
            "midi": 52,
            "name": "E3",
            "ticks": 176040,
            "time": 550.125,
            "velocity": 0.905511811023622
          },
          {
            "duration": 0.18124999999997726,
            "durationTicks": 58,
            "midi": 52,
            "name": "E3",
            "ticks": 176100,
            "time": 550.3125,
            "velocity": 0.905511811023622
          },
          {
            "duration": 0.18124999999997726,
            "durationTicks": 58,
            "midi": 52,
            "name": "E3",
            "ticks": 176160,
            "time": 550.5,
            "velocity": 0.905511811023622
          },
          {
            "duration": 0.18124999999997726,
            "durationTicks": 58,
            "midi": 52,
            "name": "E3",
            "ticks": 176220,
            "time": 550.6875,
            "velocity": 0.905511811023622
          },
          {
            "duration": 0.18124999999997726,
            "durationTicks": 58,
            "midi": 52,
            "name": "E3",
            "ticks": 176280,
            "time": 550.875,
            "velocity": 0.905511811023622
          },
          {
            "duration": 0.18124999999997726,
            "durationTicks": 58,
            "midi": 52,
            "name": "E3",
            "ticks": 176340,
            "time": 551.0625,
            "velocity": 0.905511811023622
          },
          {
            "duration": 0.18124999999997726,
            "durationTicks": 58,
            "midi": 52,
            "name": "E3",
            "ticks": 176400,
            "time": 551.25,
            "velocity": 0.905511811023622
          },
          {
            "duration": 0.18124999999997726,
            "durationTicks": 58,
            "midi": 52,
            "name": "E3",
            "ticks": 176460,
            "time": 551.4375,
            "velocity": 0.905511811023622
          },
          {
            "duration": 0.18124999999997726,
            "durationTicks": 58,
            "midi": 52,
            "name": "E3",
            "ticks": 176520,
            "time": 551.625,
            "velocity": 0.905511811023622
          },
          {
            "duration": 0.18124999999997726,
            "durationTicks": 58,
            "midi": 52,
            "name": "E3",
            "ticks": 176580,
            "time": 551.8125,
            "velocity": 0.905511811023622
          },
          {
            "duration": 0.18124999999997726,
            "durationTicks": 58,
            "midi": 52,
            "name": "E3",
            "ticks": 176640,
            "time": 552,
            "velocity": 0.905511811023622
          },
          {
            "duration": 0.18124999999997726,
            "durationTicks": 58,
            "midi": 52,
            "name": "E3",
            "ticks": 176700,
            "time": 552.1875,
            "velocity": 0.905511811023622
          },
          {
            "duration": 0.18124999999997726,
            "durationTicks": 58,
            "midi": 52,
            "name": "E3",
            "ticks": 176760,
            "time": 552.375,
            "velocity": 0.905511811023622
          },
          {
            "duration": 0.18124999999997726,
            "durationTicks": 58,
            "midi": 52,
            "name": "E3",
            "ticks": 176820,
            "time": 552.5625,
            "velocity": 0.905511811023622
          },
          {
            "duration": 0.18124999999997726,
            "durationTicks": 58,
            "midi": 52,
            "name": "E3",
            "ticks": 176880,
            "time": 552.75,
            "velocity": 0.905511811023622
          },
          {
            "duration": 0.18124999999997726,
            "durationTicks": 58,
            "midi": 52,
            "name": "E3",
            "ticks": 176940,
            "time": 552.9375,
            "velocity": 0.905511811023622
          },
          {
            "duration": 0.18124999999997726,
            "durationTicks": 58,
            "midi": 52,
            "name": "E3",
            "ticks": 177000,
            "time": 553.125,
            "velocity": 0.905511811023622
          },
          {
            "duration": 0.18124999999997726,
            "durationTicks": 58,
            "midi": 52,
            "name": "E3",
            "ticks": 177060,
            "time": 553.3125,
            "velocity": 0.905511811023622
          },
          {
            "duration": 0.18124999999997726,
            "durationTicks": 58,
            "midi": 52,
            "name": "E3",
            "ticks": 177120,
            "time": 553.5,
            "velocity": 0.905511811023622
          },
          {
            "duration": 0.18124999999997726,
            "durationTicks": 58,
            "midi": 52,
            "name": "E3",
            "ticks": 177180,
            "time": 553.6875,
            "velocity": 0.905511811023622
          },
          {
            "duration": 0.18124999999997726,
            "durationTicks": 58,
            "midi": 52,
            "name": "E3",
            "ticks": 177240,
            "time": 553.875,
            "velocity": 0.905511811023622
          },
          {
            "duration": 0.18124999999997726,
            "durationTicks": 58,
            "midi": 52,
            "name": "E3",
            "ticks": 177300,
            "time": 554.0625,
            "velocity": 0.905511811023622
          },
          {
            "duration": 0.18124999999997726,
            "durationTicks": 58,
            "midi": 52,
            "name": "E3",
            "ticks": 177360,
            "time": 554.25,
            "velocity": 0.905511811023622
          },
          {
            "duration": 0.18124999999997726,
            "durationTicks": 58,
            "midi": 52,
            "name": "E3",
            "ticks": 177420,
            "time": 554.4375,
            "velocity": 0.905511811023622
          },
          {
            "duration": 0.18124999999997726,
            "durationTicks": 58,
            "midi": 52,
            "name": "E3",
            "ticks": 177480,
            "time": 554.625,
            "velocity": 0.905511811023622
          },
          {
            "duration": 0.18124999999997726,
            "durationTicks": 58,
            "midi": 52,
            "name": "E3",
            "ticks": 177540,
            "time": 554.8125,
            "velocity": 0.905511811023622
          },
          {
            "duration": 0.18124999999997726,
            "durationTicks": 58,
            "midi": 52,
            "name": "E3",
            "ticks": 177600,
            "time": 555,
            "velocity": 0.905511811023622
          },
          {
            "duration": 0.18124999999997726,
            "durationTicks": 58,
            "midi": 52,
            "name": "E3",
            "ticks": 177660,
            "time": 555.1875,
            "velocity": 0.905511811023622
          },
          {
            "duration": 0.18124999999997726,
            "durationTicks": 58,
            "midi": 52,
            "name": "E3",
            "ticks": 177720,
            "time": 555.375,
            "velocity": 0.905511811023622
          },
          {
            "duration": 0.18124999999997726,
            "durationTicks": 58,
            "midi": 52,
            "name": "E3",
            "ticks": 177780,
            "time": 555.5625,
            "velocity": 0.905511811023622
          },
          {
            "duration": 0.18124999999997726,
            "durationTicks": 58,
            "midi": 52,
            "name": "E3",
            "ticks": 177840,
            "time": 555.75,
            "velocity": 0.905511811023622
          },
          {
            "duration": 0.18124999999997726,
            "durationTicks": 58,
            "midi": 52,
            "name": "E3",
            "ticks": 177900,
            "time": 555.9375,
            "velocity": 0.905511811023622
          },
          {
            "duration": 0.18124999999997726,
            "durationTicks": 58,
            "midi": 52,
            "name": "E3",
            "ticks": 177960,
            "time": 556.125,
            "velocity": 0.905511811023622
          },
          {
            "duration": 0.18124999999997726,
            "durationTicks": 58,
            "midi": 52,
            "name": "E3",
            "ticks": 178020,
            "time": 556.3125,
            "velocity": 0.905511811023622
          },
          {
            "duration": 0.18124999999997726,
            "durationTicks": 58,
            "midi": 52,
            "name": "E3",
            "ticks": 178080,
            "time": 556.5,
            "velocity": 0.905511811023622
          },
          {
            "duration": 0.18124999999997726,
            "durationTicks": 58,
            "midi": 52,
            "name": "E3",
            "ticks": 178140,
            "time": 556.6875,
            "velocity": 0.905511811023622
          },
          {
            "duration": 0.18124999999997726,
            "durationTicks": 58,
            "midi": 52,
            "name": "E3",
            "ticks": 178200,
            "time": 556.875,
            "velocity": 0.905511811023622
          },
          {
            "duration": 0.18124999999997726,
            "durationTicks": 58,
            "midi": 52,
            "name": "E3",
            "ticks": 178260,
            "time": 557.0625,
            "velocity": 0.905511811023622
          },
          {
            "duration": 0.18124999999997726,
            "durationTicks": 58,
            "midi": 52,
            "name": "E3",
            "ticks": 178320,
            "time": 557.25,
            "velocity": 0.905511811023622
          },
          {
            "duration": 0.18124999999997726,
            "durationTicks": 58,
            "midi": 52,
            "name": "E3",
            "ticks": 178380,
            "time": 557.4375,
            "velocity": 0.905511811023622
          },
          {
            "duration": 0.18124999999997726,
            "durationTicks": 58,
            "midi": 52,
            "name": "E3",
            "ticks": 178440,
            "time": 557.625,
            "velocity": 0.905511811023622
          },
          {
            "duration": 0.18124999999997726,
            "durationTicks": 58,
            "midi": 52,
            "name": "E3",
            "ticks": 178500,
            "time": 557.8125,
            "velocity": 0.905511811023622
          },
          {
            "duration": 0.18124999999997726,
            "durationTicks": 58,
            "midi": 52,
            "name": "E3",
            "ticks": 178560,
            "time": 558,
            "velocity": 0.905511811023622
          },
          {
            "duration": 0.18124999999997726,
            "durationTicks": 58,
            "midi": 52,
            "name": "E3",
            "ticks": 178620,
            "time": 558.1875,
            "velocity": 0.905511811023622
          },
          {
            "duration": 0.18124999999997726,
            "durationTicks": 58,
            "midi": 52,
            "name": "E3",
            "ticks": 178680,
            "time": 558.375,
            "velocity": 0.905511811023622
          },
          {
            "duration": 0.18124999999997726,
            "durationTicks": 58,
            "midi": 52,
            "name": "E3",
            "ticks": 178740,
            "time": 558.5625,
            "velocity": 0.905511811023622
          },
          {
            "duration": 0.18124999999997726,
            "durationTicks": 58,
            "midi": 52,
            "name": "E3",
            "ticks": 178800,
            "time": 558.75,
            "velocity": 0.905511811023622
          },
          {
            "duration": 0.18124999999997726,
            "durationTicks": 58,
            "midi": 52,
            "name": "E3",
            "ticks": 178860,
            "time": 558.9375,
            "velocity": 0.905511811023622
          },
          {
            "duration": 0.18124999999997726,
            "durationTicks": 58,
            "midi": 52,
            "name": "E3",
            "ticks": 178920,
            "time": 559.125,
            "velocity": 0.905511811023622
          },
          {
            "duration": 0.18124999999997726,
            "durationTicks": 58,
            "midi": 52,
            "name": "E3",
            "ticks": 178980,
            "time": 559.3125,
            "velocity": 0.905511811023622
          },
          {
            "duration": 0.18124999999997726,
            "durationTicks": 58,
            "midi": 52,
            "name": "E3",
            "ticks": 179040,
            "time": 559.5,
            "velocity": 0.905511811023622
          },
          {
            "duration": 0.18124999999997726,
            "durationTicks": 58,
            "midi": 52,
            "name": "E3",
            "ticks": 179100,
            "time": 559.6875,
            "velocity": 0.905511811023622
          },
          {
            "duration": 0.18124999999997726,
            "durationTicks": 58,
            "midi": 52,
            "name": "E3",
            "ticks": 179160,
            "time": 559.875,
            "velocity": 0.905511811023622
          },
          {
            "duration": 0.18124999999997726,
            "durationTicks": 58,
            "midi": 52,
            "name": "E3",
            "ticks": 179220,
            "time": 560.0625,
            "velocity": 0.905511811023622
          },
          {
            "duration": 0.18124999999997726,
            "durationTicks": 58,
            "midi": 52,
            "name": "E3",
            "ticks": 179280,
            "time": 560.25,
            "velocity": 0.905511811023622
          },
          {
            "duration": 0.18124999999997726,
            "durationTicks": 58,
            "midi": 52,
            "name": "E3",
            "ticks": 179340,
            "time": 560.4375,
            "velocity": 0.905511811023622
          },
          {
            "duration": 0.18124999999997726,
            "durationTicks": 58,
            "midi": 52,
            "name": "E3",
            "ticks": 179400,
            "time": 560.625,
            "velocity": 0.905511811023622
          },
          {
            "duration": 0.18124999999997726,
            "durationTicks": 58,
            "midi": 52,
            "name": "E3",
            "ticks": 179460,
            "time": 560.8125,
            "velocity": 0.905511811023622
          },
          {
            "duration": 0.18124999999997726,
            "durationTicks": 58,
            "midi": 52,
            "name": "E3",
            "ticks": 179520,
            "time": 561,
            "velocity": 0.905511811023622
          },
          {
            "duration": 0.18124999999997726,
            "durationTicks": 58,
            "midi": 52,
            "name": "E3",
            "ticks": 179580,
            "time": 561.1875,
            "velocity": 0.905511811023622
          },
          {
            "duration": 0.18124999999997726,
            "durationTicks": 58,
            "midi": 52,
            "name": "E3",
            "ticks": 179640,
            "time": 561.375,
            "velocity": 0.905511811023622
          },
          {
            "duration": 0.18124999999997726,
            "durationTicks": 58,
            "midi": 52,
            "name": "E3",
            "ticks": 179700,
            "time": 561.5625,
            "velocity": 0.905511811023622
          },
          {
            "duration": 0.18124999999997726,
            "durationTicks": 58,
            "midi": 52,
            "name": "E3",
            "ticks": 179760,
            "time": 561.75,
            "velocity": 0.905511811023622
          },
          {
            "duration": 0.18124999999997726,
            "durationTicks": 58,
            "midi": 52,
            "name": "E3",
            "ticks": 179820,
            "time": 561.9375,
            "velocity": 0.905511811023622
          },
          {
            "duration": 0.18124999999997726,
            "durationTicks": 58,
            "midi": 52,
            "name": "E3",
            "ticks": 179880,
            "time": 562.125,
            "velocity": 0.905511811023622
          },
          {
            "duration": 0.18124999999997726,
            "durationTicks": 58,
            "midi": 52,
            "name": "E3",
            "ticks": 179940,
            "time": 562.3125,
            "velocity": 0.905511811023622
          },
          {
            "duration": 0.18124999999997726,
            "durationTicks": 58,
            "midi": 47,
            "name": "B2",
            "ticks": 180000,
            "time": 562.5,
            "velocity": 0.905511811023622
          },
          {
            "duration": 0.18124999999997726,
            "durationTicks": 58,
            "midi": 47,
            "name": "B2",
            "ticks": 180060,
            "time": 562.6875,
            "velocity": 0.905511811023622
          },
          {
            "duration": 0.18124999999997726,
            "durationTicks": 58,
            "midi": 47,
            "name": "B2",
            "ticks": 180120,
            "time": 562.875,
            "velocity": 0.905511811023622
          },
          {
            "duration": 0.18124999999997726,
            "durationTicks": 58,
            "midi": 47,
            "name": "B2",
            "ticks": 180180,
            "time": 563.0625,
            "velocity": 0.905511811023622
          },
          {
            "duration": 0.18124999999997726,
            "durationTicks": 58,
            "midi": 47,
            "name": "B2",
            "ticks": 180240,
            "time": 563.25,
            "velocity": 0.905511811023622
          },
          {
            "duration": 0.18124999999997726,
            "durationTicks": 58,
            "midi": 47,
            "name": "B2",
            "ticks": 180300,
            "time": 563.4375,
            "velocity": 0.905511811023622
          },
          {
            "duration": 0.18124999999997726,
            "durationTicks": 58,
            "midi": 47,
            "name": "B2",
            "ticks": 180360,
            "time": 563.625,
            "velocity": 0.905511811023622
          },
          {
            "duration": 0.18124999999997726,
            "durationTicks": 58,
            "midi": 47,
            "name": "B2",
            "ticks": 180420,
            "time": 563.8125,
            "velocity": 0.905511811023622
          },
          {
            "duration": 0.18124999999997726,
            "durationTicks": 58,
            "midi": 47,
            "name": "B2",
            "ticks": 180480,
            "time": 564,
            "velocity": 0.905511811023622
          },
          {
            "duration": 0.18124999999997726,
            "durationTicks": 58,
            "midi": 47,
            "name": "B2",
            "ticks": 180540,
            "time": 564.1875,
            "velocity": 0.905511811023622
          },
          {
            "duration": 0.18124999999997726,
            "durationTicks": 58,
            "midi": 47,
            "name": "B2",
            "ticks": 180600,
            "time": 564.375,
            "velocity": 0.905511811023622
          },
          {
            "duration": 0.18124999999997726,
            "durationTicks": 58,
            "midi": 47,
            "name": "B2",
            "ticks": 180660,
            "time": 564.5625,
            "velocity": 0.905511811023622
          },
          {
            "duration": 0.18124999999997726,
            "durationTicks": 58,
            "midi": 47,
            "name": "B2",
            "ticks": 180720,
            "time": 564.75,
            "velocity": 0.905511811023622
          },
          {
            "duration": 0.18124999999997726,
            "durationTicks": 58,
            "midi": 47,
            "name": "B2",
            "ticks": 180780,
            "time": 564.9375,
            "velocity": 0.905511811023622
          },
          {
            "duration": 0.18124999999997726,
            "durationTicks": 58,
            "midi": 47,
            "name": "B2",
            "ticks": 180840,
            "time": 565.125,
            "velocity": 0.905511811023622
          },
          {
            "duration": 0.18124999999997726,
            "durationTicks": 58,
            "midi": 47,
            "name": "B2",
            "ticks": 180900,
            "time": 565.3125,
            "velocity": 0.905511811023622
          },
          {
            "duration": 0.18124999999997726,
            "durationTicks": 58,
            "midi": 47,
            "name": "B2",
            "ticks": 180960,
            "time": 565.5,
            "velocity": 0.905511811023622
          },
          {
            "duration": 0.18124999999997726,
            "durationTicks": 58,
            "midi": 47,
            "name": "B2",
            "ticks": 181020,
            "time": 565.6875,
            "velocity": 0.905511811023622
          },
          {
            "duration": 0.18124999999997726,
            "durationTicks": 58,
            "midi": 47,
            "name": "B2",
            "ticks": 181080,
            "time": 565.875,
            "velocity": 0.905511811023622
          },
          {
            "duration": 0.18124999999997726,
            "durationTicks": 58,
            "midi": 47,
            "name": "B2",
            "ticks": 181140,
            "time": 566.0625,
            "velocity": 0.905511811023622
          },
          {
            "duration": 0.18124999999997726,
            "durationTicks": 58,
            "midi": 47,
            "name": "B2",
            "ticks": 181200,
            "time": 566.25,
            "velocity": 0.905511811023622
          },
          {
            "duration": 0.18124999999997726,
            "durationTicks": 58,
            "midi": 47,
            "name": "B2",
            "ticks": 181260,
            "time": 566.4375,
            "velocity": 0.905511811023622
          },
          {
            "duration": 0.18124999999997726,
            "durationTicks": 58,
            "midi": 47,
            "name": "B2",
            "ticks": 181320,
            "time": 566.625,
            "velocity": 0.905511811023622
          },
          {
            "duration": 0.18124999999997726,
            "durationTicks": 58,
            "midi": 47,
            "name": "B2",
            "ticks": 181380,
            "time": 566.8125,
            "velocity": 0.905511811023622
          },
          {
            "duration": 0.18124999999997726,
            "durationTicks": 58,
            "midi": 42,
            "name": "F#2",
            "ticks": 181440,
            "time": 567,
            "velocity": 0.905511811023622
          },
          {
            "duration": 0.18124999999997726,
            "durationTicks": 58,
            "midi": 42,
            "name": "F#2",
            "ticks": 181500,
            "time": 567.1875,
            "velocity": 0.8976377952755905
          },
          {
            "duration": 0.18124999999997726,
            "durationTicks": 58,
            "midi": 42,
            "name": "F#2",
            "ticks": 181560,
            "time": 567.375,
            "velocity": 0.889763779527559
          },
          {
            "duration": 0.18124999999997726,
            "durationTicks": 58,
            "midi": 42,
            "name": "F#2",
            "ticks": 181620,
            "time": 567.5625,
            "velocity": 0.8818897637795275
          },
          {
            "duration": 0.18124999999997726,
            "durationTicks": 58,
            "midi": 42,
            "name": "F#2",
            "ticks": 181680,
            "time": 567.75,
            "velocity": 0.8740157480314961
          },
          {
            "duration": 0.18124999999997726,
            "durationTicks": 58,
            "midi": 42,
            "name": "F#2",
            "ticks": 181740,
            "time": 567.9375,
            "velocity": 0.8661417322834646
          },
          {
            "duration": 0.18124999999997726,
            "durationTicks": 58,
            "midi": 42,
            "name": "F#2",
            "ticks": 181800,
            "time": 568.125,
            "velocity": 0.8582677165354331
          },
          {
            "duration": 0.18124999999997726,
            "durationTicks": 58,
            "midi": 42,
            "name": "F#2",
            "ticks": 181860,
            "time": 568.3125,
            "velocity": 0.8503937007874016
          },
          {
            "duration": 0.18124999999997726,
            "durationTicks": 58,
            "midi": 42,
            "name": "F#2",
            "ticks": 181920,
            "time": 568.5,
            "velocity": 0.84251968503937
          },
          {
            "duration": 0.18124999999997726,
            "durationTicks": 58,
            "midi": 42,
            "name": "F#2",
            "ticks": 181980,
            "time": 568.6875,
            "velocity": 0.8346456692913385
          },
          {
            "duration": 0.18124999999997726,
            "durationTicks": 58,
            "midi": 42,
            "name": "F#2",
            "ticks": 182040,
            "time": 568.875,
            "velocity": 0.8267716535433071
          },
          {
            "duration": 0.18124999999997726,
            "durationTicks": 58,
            "midi": 42,
            "name": "F#2",
            "ticks": 182100,
            "time": 569.0625,
            "velocity": 0.8188976377952756
          },
          {
            "duration": 0.18124999999997726,
            "durationTicks": 58,
            "midi": 42,
            "name": "F#2",
            "ticks": 182160,
            "time": 569.25,
            "velocity": 0.8031496062992126
          },
          {
            "duration": 0.18124999999997726,
            "durationTicks": 58,
            "midi": 42,
            "name": "F#2",
            "ticks": 182220,
            "time": 569.4375,
            "velocity": 0.7952755905511811
          },
          {
            "duration": 0.18124999999997726,
            "durationTicks": 58,
            "midi": 42,
            "name": "F#2",
            "ticks": 182280,
            "time": 569.625,
            "velocity": 0.7874015748031497
          },
          {
            "duration": 0.18124999999997726,
            "durationTicks": 58,
            "midi": 42,
            "name": "F#2",
            "ticks": 182340,
            "time": 569.8125,
            "velocity": 0.7795275590551181
          },
          {
            "duration": 0.18124999999997726,
            "durationTicks": 58,
            "midi": 42,
            "name": "F#2",
            "ticks": 182400,
            "time": 570,
            "velocity": 0.7716535433070866
          },
          {
            "duration": 0.18124999999997726,
            "durationTicks": 58,
            "midi": 42,
            "name": "F#2",
            "ticks": 182460,
            "time": 570.1875,
            "velocity": 0.7637795275590551
          },
          {
            "duration": 0.18124999999997726,
            "durationTicks": 58,
            "midi": 42,
            "name": "F#2",
            "ticks": 182520,
            "time": 570.375,
            "velocity": 0.7559055118110236
          },
          {
            "duration": 0.18124999999997726,
            "durationTicks": 58,
            "midi": 42,
            "name": "F#2",
            "ticks": 182580,
            "time": 570.5625,
            "velocity": 0.7480314960629921
          },
          {
            "duration": 0.18124999999997726,
            "durationTicks": 58,
            "midi": 42,
            "name": "F#2",
            "ticks": 182640,
            "time": 570.75,
            "velocity": 0.7401574803149606
          },
          {
            "duration": 0.18124999999997726,
            "durationTicks": 58,
            "midi": 42,
            "name": "F#2",
            "ticks": 182700,
            "time": 570.9375,
            "velocity": 0.7322834645669292
          },
          {
            "duration": 0.18124999999997726,
            "durationTicks": 58,
            "midi": 42,
            "name": "F#2",
            "ticks": 182760,
            "time": 571.125,
            "velocity": 0.7244094488188977
          },
          {
            "duration": 0.18124999999997726,
            "durationTicks": 58,
            "midi": 42,
            "name": "F#2",
            "ticks": 182820,
            "time": 571.3125,
            "velocity": 0.7165354330708661
          },
          {
            "duration": 0.18124999999997726,
            "durationTicks": 58,
            "midi": 42,
            "name": "F#2",
            "ticks": 182880,
            "time": 571.5,
            "velocity": 0.7086614173228346
          },
          {
            "duration": 0.18124999999997726,
            "durationTicks": 58,
            "midi": 42,
            "name": "F#2",
            "ticks": 182940,
            "time": 571.6875,
            "velocity": 0.7086614173228346
          },
          {
            "duration": 0.18124999999997726,
            "durationTicks": 58,
            "midi": 42,
            "name": "F#2",
            "ticks": 183000,
            "time": 571.875,
            "velocity": 0.7086614173228346
          },
          {
            "duration": 0.18124999999997726,
            "durationTicks": 58,
            "midi": 42,
            "name": "F#2",
            "ticks": 183060,
            "time": 572.0625,
            "velocity": 0.7086614173228346
          },
          {
            "duration": 0.18124999999997726,
            "durationTicks": 58,
            "midi": 42,
            "name": "F#2",
            "ticks": 183120,
            "time": 572.25,
            "velocity": 0.7086614173228346
          },
          {
            "duration": 0.18124999999997726,
            "durationTicks": 58,
            "midi": 42,
            "name": "F#2",
            "ticks": 183180,
            "time": 572.4375,
            "velocity": 0.7086614173228346
          },
          {
            "duration": 0.18124999999997726,
            "durationTicks": 58,
            "midi": 42,
            "name": "F#2",
            "ticks": 183240,
            "time": 572.625,
            "velocity": 0.7086614173228346
          },
          {
            "duration": 0.18124999999997726,
            "durationTicks": 58,
            "midi": 42,
            "name": "F#2",
            "ticks": 183300,
            "time": 572.8125,
            "velocity": 0.7086614173228346
          },
          {
            "duration": 0.18124999999997726,
            "durationTicks": 58,
            "midi": 42,
            "name": "F#2",
            "ticks": 183360,
            "time": 573,
            "velocity": 0.7086614173228346
          },
          {
            "duration": 0.18124999999997726,
            "durationTicks": 58,
            "midi": 42,
            "name": "F#2",
            "ticks": 183420,
            "time": 573.1875,
            "velocity": 0.7086614173228346
          },
          {
            "duration": 0.18124999999997726,
            "durationTicks": 58,
            "midi": 42,
            "name": "F#2",
            "ticks": 183480,
            "time": 573.375,
            "velocity": 0.7086614173228346
          },
          {
            "duration": 0.18124999999997726,
            "durationTicks": 58,
            "midi": 42,
            "name": "F#2",
            "ticks": 183540,
            "time": 573.5625,
            "velocity": 0.7086614173228346
          },
          {
            "duration": 0.18124999999997726,
            "durationTicks": 58,
            "midi": 42,
            "name": "F#2",
            "ticks": 183600,
            "time": 573.75,
            "velocity": 0.7086614173228346
          },
          {
            "duration": 0.18124999999997726,
            "durationTicks": 58,
            "midi": 42,
            "name": "F#2",
            "ticks": 183660,
            "time": 573.9375,
            "velocity": 0.7086614173228346
          },
          {
            "duration": 0.18124999999997726,
            "durationTicks": 58,
            "midi": 42,
            "name": "F#2",
            "ticks": 183720,
            "time": 574.125,
            "velocity": 0.7086614173228346
          },
          {
            "duration": 0.18124999999997726,
            "durationTicks": 58,
            "midi": 42,
            "name": "F#2",
            "ticks": 183780,
            "time": 574.3125,
            "velocity": 0.7086614173228346
          },
          {
            "duration": 0.18124999999997726,
            "durationTicks": 58,
            "midi": 42,
            "name": "F#2",
            "ticks": 183840,
            "time": 574.5,
            "velocity": 0.7086614173228346
          },
          {
            "duration": 0.18124999999997726,
            "durationTicks": 58,
            "midi": 42,
            "name": "F#2",
            "ticks": 183900,
            "time": 574.6875,
            "velocity": 0.7086614173228346
          },
          {
            "duration": 0.18124999999997726,
            "durationTicks": 58,
            "midi": 42,
            "name": "F#2",
            "ticks": 183960,
            "time": 574.875,
            "velocity": 0.7086614173228346
          },
          {
            "duration": 0.18124999999997726,
            "durationTicks": 58,
            "midi": 42,
            "name": "F#2",
            "ticks": 184020,
            "time": 575.0625,
            "velocity": 0.7086614173228346
          },
          {
            "duration": 0.18124999999997726,
            "durationTicks": 58,
            "midi": 42,
            "name": "F#2",
            "ticks": 184080,
            "time": 575.25,
            "velocity": 0.7086614173228346
          },
          {
            "duration": 0.18124999999997726,
            "durationTicks": 58,
            "midi": 42,
            "name": "F#2",
            "ticks": 184140,
            "time": 575.4375,
            "velocity": 0.7086614173228346
          },
          {
            "duration": 0.18124999999997726,
            "durationTicks": 58,
            "midi": 42,
            "name": "F#2",
            "ticks": 184200,
            "time": 575.625,
            "velocity": 0.7086614173228346
          },
          {
            "duration": 0.18124999999997726,
            "durationTicks": 58,
            "midi": 42,
            "name": "F#2",
            "ticks": 184260,
            "time": 575.8125,
            "velocity": 0.7086614173228346
          },
          {
            "duration": 0.18124999999997726,
            "durationTicks": 58,
            "midi": 42,
            "name": "F#2",
            "ticks": 184320,
            "time": 576,
            "velocity": 0.7086614173228346
          },
          {
            "duration": 0.18124999999997726,
            "durationTicks": 58,
            "midi": 42,
            "name": "F#2",
            "ticks": 184380,
            "time": 576.1875,
            "velocity": 0.7086614173228346
          },
          {
            "duration": 0.18124999999997726,
            "durationTicks": 58,
            "midi": 42,
            "name": "F#2",
            "ticks": 184440,
            "time": 576.375,
            "velocity": 0.7086614173228346
          },
          {
            "duration": 0.18124999999997726,
            "durationTicks": 58,
            "midi": 42,
            "name": "F#2",
            "ticks": 184500,
            "time": 576.5625,
            "velocity": 0.7086614173228346
          },
          {
            "duration": 0.18124999999997726,
            "durationTicks": 58,
            "midi": 42,
            "name": "F#2",
            "ticks": 184560,
            "time": 576.75,
            "velocity": 0.7086614173228346
          },
          {
            "duration": 0.18124999999997726,
            "durationTicks": 58,
            "midi": 42,
            "name": "F#2",
            "ticks": 184620,
            "time": 576.9375,
            "velocity": 0.7086614173228346
          },
          {
            "duration": 0.18124999999997726,
            "durationTicks": 58,
            "midi": 42,
            "name": "F#2",
            "ticks": 184680,
            "time": 577.125,
            "velocity": 0.7086614173228346
          },
          {
            "duration": 0.18124999999997726,
            "durationTicks": 58,
            "midi": 42,
            "name": "F#2",
            "ticks": 184740,
            "time": 577.3125,
            "velocity": 0.7086614173228346
          },
          {
            "duration": 0.18124999999997726,
            "durationTicks": 58,
            "midi": 42,
            "name": "F#2",
            "ticks": 184800,
            "time": 577.5,
            "velocity": 0.7086614173228346
          },
          {
            "duration": 0.18124999999997726,
            "durationTicks": 58,
            "midi": 42,
            "name": "F#2",
            "ticks": 184860,
            "time": 577.6875,
            "velocity": 0.7086614173228346
          },
          {
            "duration": 0.18124999999997726,
            "durationTicks": 58,
            "midi": 42,
            "name": "F#2",
            "ticks": 184920,
            "time": 577.875,
            "velocity": 0.7086614173228346
          },
          {
            "duration": 0.18124999999997726,
            "durationTicks": 58,
            "midi": 42,
            "name": "F#2",
            "ticks": 184980,
            "time": 578.0625,
            "velocity": 0.7086614173228346
          },
          {
            "duration": 0.18124999999997726,
            "durationTicks": 58,
            "midi": 42,
            "name": "F#2",
            "ticks": 185040,
            "time": 578.25,
            "velocity": 0.7086614173228346
          },
          {
            "duration": 0.18124999999997726,
            "durationTicks": 58,
            "midi": 42,
            "name": "F#2",
            "ticks": 185100,
            "time": 578.4375,
            "velocity": 0.7086614173228346
          },
          {
            "duration": 0.18124999999997726,
            "durationTicks": 58,
            "midi": 42,
            "name": "F#2",
            "ticks": 185160,
            "time": 578.625,
            "velocity": 0.7086614173228346
          },
          {
            "duration": 0.18124999999997726,
            "durationTicks": 58,
            "midi": 42,
            "name": "F#2",
            "ticks": 185220,
            "time": 578.8125,
            "velocity": 0.7086614173228346
          },
          {
            "duration": 0.18124999999997726,
            "durationTicks": 58,
            "midi": 42,
            "name": "F#2",
            "ticks": 185280,
            "time": 579,
            "velocity": 0.7086614173228346
          },
          {
            "duration": 0.18124999999997726,
            "durationTicks": 58,
            "midi": 42,
            "name": "F#2",
            "ticks": 185340,
            "time": 579.1875,
            "velocity": 0.7086614173228346
          },
          {
            "duration": 0.18124999999997726,
            "durationTicks": 58,
            "midi": 42,
            "name": "F#2",
            "ticks": 185400,
            "time": 579.375,
            "velocity": 0.7086614173228346
          },
          {
            "duration": 0.18124999999997726,
            "durationTicks": 58,
            "midi": 42,
            "name": "F#2",
            "ticks": 185460,
            "time": 579.5625,
            "velocity": 0.7086614173228346
          },
          {
            "duration": 0.18124999999997726,
            "durationTicks": 58,
            "midi": 42,
            "name": "F#2",
            "ticks": 185520,
            "time": 579.75,
            "velocity": 0.7086614173228346
          },
          {
            "duration": 0.18124999999997726,
            "durationTicks": 58,
            "midi": 42,
            "name": "F#2",
            "ticks": 185580,
            "time": 579.9375,
            "velocity": 0.7086614173228346
          },
          {
            "duration": 0.18124999999997726,
            "durationTicks": 58,
            "midi": 42,
            "name": "F#2",
            "ticks": 185640,
            "time": 580.125,
            "velocity": 0.7086614173228346
          },
          {
            "duration": 0.18124999999997726,
            "durationTicks": 58,
            "midi": 42,
            "name": "F#2",
            "ticks": 185700,
            "time": 580.3125,
            "velocity": 0.7086614173228346
          },
          {
            "duration": 0.18124999999997726,
            "durationTicks": 58,
            "midi": 42,
            "name": "F#2",
            "ticks": 185760,
            "time": 580.5,
            "velocity": 0.7086614173228346
          },
          {
            "duration": 0.18124999999997726,
            "durationTicks": 58,
            "midi": 42,
            "name": "F#2",
            "ticks": 185820,
            "time": 580.6875,
            "velocity": 0.7086614173228346
          },
          {
            "duration": 0.18124999999997726,
            "durationTicks": 58,
            "midi": 42,
            "name": "F#2",
            "ticks": 185880,
            "time": 580.875,
            "velocity": 0.7086614173228346
          },
          {
            "duration": 0.18124999999997726,
            "durationTicks": 58,
            "midi": 42,
            "name": "F#2",
            "ticks": 185940,
            "time": 581.0625,
            "velocity": 0.7086614173228346
          },
          {
            "duration": 0.18124999999997726,
            "durationTicks": 58,
            "midi": 42,
            "name": "F#2",
            "ticks": 186000,
            "time": 581.25,
            "velocity": 0.7086614173228346
          },
          {
            "duration": 0.18124999999997726,
            "durationTicks": 58,
            "midi": 42,
            "name": "F#2",
            "ticks": 186060,
            "time": 581.4375,
            "velocity": 0.7086614173228346
          },
          {
            "duration": 0.18124999999997726,
            "durationTicks": 58,
            "midi": 42,
            "name": "F#2",
            "ticks": 186120,
            "time": 581.625,
            "velocity": 0.7086614173228346
          },
          {
            "duration": 0.18124999999997726,
            "durationTicks": 58,
            "midi": 42,
            "name": "F#2",
            "ticks": 186180,
            "time": 581.8125,
            "velocity": 0.7086614173228346
          },
          {
            "duration": 0.18124999999997726,
            "durationTicks": 58,
            "midi": 42,
            "name": "F#2",
            "ticks": 186240,
            "time": 582,
            "velocity": 0.7086614173228346
          },
          {
            "duration": 0.18124999999997726,
            "durationTicks": 58,
            "midi": 42,
            "name": "F#2",
            "ticks": 186300,
            "time": 582.1875,
            "velocity": 0.7086614173228346
          },
          {
            "duration": 0.18124999999997726,
            "durationTicks": 58,
            "midi": 42,
            "name": "F#2",
            "ticks": 186360,
            "time": 582.375,
            "velocity": 0.7086614173228346
          },
          {
            "duration": 0.18124999999997726,
            "durationTicks": 58,
            "midi": 42,
            "name": "F#2",
            "ticks": 186420,
            "time": 582.5625,
            "velocity": 0.7086614173228346
          },
          {
            "duration": 0.18124999999997726,
            "durationTicks": 58,
            "midi": 42,
            "name": "F#2",
            "ticks": 186480,
            "time": 582.75,
            "velocity": 0.7086614173228346
          },
          {
            "duration": 0.18124999999997726,
            "durationTicks": 58,
            "midi": 42,
            "name": "F#2",
            "ticks": 186540,
            "time": 582.9375,
            "velocity": 0.7086614173228346
          },
          {
            "duration": 0.18124999999997726,
            "durationTicks": 58,
            "midi": 42,
            "name": "F#2",
            "ticks": 186600,
            "time": 583.125,
            "velocity": 0.7086614173228346
          },
          {
            "duration": 0.18124999999997726,
            "durationTicks": 58,
            "midi": 42,
            "name": "F#2",
            "ticks": 186660,
            "time": 583.3125,
            "velocity": 0.7086614173228346
          },
          {
            "duration": 0.18124999999997726,
            "durationTicks": 58,
            "midi": 42,
            "name": "F#2",
            "ticks": 186720,
            "time": 583.5,
            "velocity": 0.7086614173228346
          },
          {
            "duration": 0.18124999999997726,
            "durationTicks": 58,
            "midi": 42,
            "name": "F#2",
            "ticks": 186780,
            "time": 583.6875,
            "velocity": 0.7086614173228346
          },
          {
            "duration": 0.18124999999997726,
            "durationTicks": 58,
            "midi": 42,
            "name": "F#2",
            "ticks": 186840,
            "time": 583.875,
            "velocity": 0.7086614173228346
          },
          {
            "duration": 0.18124999999997726,
            "durationTicks": 58,
            "midi": 42,
            "name": "F#2",
            "ticks": 186900,
            "time": 584.0625,
            "velocity": 0.7086614173228346
          },
          {
            "duration": 0.18124999999997726,
            "durationTicks": 58,
            "midi": 42,
            "name": "F#2",
            "ticks": 186960,
            "time": 584.25,
            "velocity": 0.7086614173228346
          },
          {
            "duration": 0.18124999999997726,
            "durationTicks": 58,
            "midi": 42,
            "name": "F#2",
            "ticks": 187020,
            "time": 584.4375,
            "velocity": 0.7086614173228346
          },
          {
            "duration": 0.18124999999997726,
            "durationTicks": 58,
            "midi": 42,
            "name": "F#2",
            "ticks": 187080,
            "time": 584.625,
            "velocity": 0.7086614173228346
          },
          {
            "duration": 0.18124999999997726,
            "durationTicks": 58,
            "midi": 42,
            "name": "F#2",
            "ticks": 187140,
            "time": 584.8125,
            "velocity": 0.7086614173228346
          },
          {
            "duration": 0.18124999999997726,
            "durationTicks": 58,
            "midi": 42,
            "name": "F#2",
            "ticks": 187200,
            "time": 585,
            "velocity": 0.7086614173228346
          },
          {
            "duration": 0.18124999999997726,
            "durationTicks": 58,
            "midi": 42,
            "name": "F#2",
            "ticks": 187260,
            "time": 585.1875,
            "velocity": 0.7086614173228346
          },
          {
            "duration": 0.18124999999997726,
            "durationTicks": 58,
            "midi": 42,
            "name": "F#2",
            "ticks": 187320,
            "time": 585.375,
            "velocity": 0.7086614173228346
          },
          {
            "duration": 0.18124999999997726,
            "durationTicks": 58,
            "midi": 42,
            "name": "F#2",
            "ticks": 187380,
            "time": 585.5625,
            "velocity": 0.7086614173228346
          },
          {
            "duration": 0.18124999999997726,
            "durationTicks": 58,
            "midi": 42,
            "name": "F#2",
            "ticks": 187440,
            "time": 585.75,
            "velocity": 0.7086614173228346
          },
          {
            "duration": 0.18124999999997726,
            "durationTicks": 58,
            "midi": 42,
            "name": "F#2",
            "ticks": 187500,
            "time": 585.9375,
            "velocity": 0.7086614173228346
          },
          {
            "duration": 0.18124999999997726,
            "durationTicks": 58,
            "midi": 42,
            "name": "F#2",
            "ticks": 187560,
            "time": 586.125,
            "velocity": 0.7086614173228346
          },
          {
            "duration": 0.18124999999997726,
            "durationTicks": 58,
            "midi": 42,
            "name": "F#2",
            "ticks": 187620,
            "time": 586.3125,
            "velocity": 0.7086614173228346
          },
          {
            "duration": 0.18124999999997726,
            "durationTicks": 58,
            "midi": 42,
            "name": "F#2",
            "ticks": 187680,
            "time": 586.5,
            "velocity": 0.7086614173228346
          },
          {
            "duration": 0.18124999999997726,
            "durationTicks": 58,
            "midi": 42,
            "name": "F#2",
            "ticks": 187740,
            "time": 586.6875,
            "velocity": 0.7086614173228346
          },
          {
            "duration": 0.18124999999997726,
            "durationTicks": 58,
            "midi": 42,
            "name": "F#2",
            "ticks": 187800,
            "time": 586.875,
            "velocity": 0.7086614173228346
          },
          {
            "duration": 0.18124999999997726,
            "durationTicks": 58,
            "midi": 42,
            "name": "F#2",
            "ticks": 187860,
            "time": 587.0625,
            "velocity": 0.7086614173228346
          },
          {
            "duration": 0.18124999999997726,
            "durationTicks": 58,
            "midi": 42,
            "name": "F#2",
            "ticks": 187920,
            "time": 587.25,
            "velocity": 0.7086614173228346
          },
          {
            "duration": 0.18124999999997726,
            "durationTicks": 58,
            "midi": 42,
            "name": "F#2",
            "ticks": 187980,
            "time": 587.4375,
            "velocity": 0.7086614173228346
          },
          {
            "duration": 0.18124999999997726,
            "durationTicks": 58,
            "midi": 42,
            "name": "F#2",
            "ticks": 188040,
            "time": 587.625,
            "velocity": 0.7086614173228346
          },
          {
            "duration": 0.18124999999997726,
            "durationTicks": 58,
            "midi": 42,
            "name": "F#2",
            "ticks": 188100,
            "time": 587.8125,
            "velocity": 0.7086614173228346
          },
          {
            "duration": 0.18124999999997726,
            "durationTicks": 58,
            "midi": 42,
            "name": "F#2",
            "ticks": 188160,
            "time": 588,
            "velocity": 0.7086614173228346
          },
          {
            "duration": 0.18124999999997726,
            "durationTicks": 58,
            "midi": 42,
            "name": "F#2",
            "ticks": 188220,
            "time": 588.1875,
            "velocity": 0.7086614173228346
          },
          {
            "duration": 0.18124999999997726,
            "durationTicks": 58,
            "midi": 42,
            "name": "F#2",
            "ticks": 188280,
            "time": 588.375,
            "velocity": 0.7086614173228346
          },
          {
            "duration": 0.18124999999997726,
            "durationTicks": 58,
            "midi": 42,
            "name": "F#2",
            "ticks": 188340,
            "time": 588.5625,
            "velocity": 0.7086614173228346
          },
          {
            "duration": 0.18124999999997726,
            "durationTicks": 58,
            "midi": 42,
            "name": "F#2",
            "ticks": 188400,
            "time": 588.75,
            "velocity": 0.7086614173228346
          },
          {
            "duration": 0.18124999999997726,
            "durationTicks": 58,
            "midi": 42,
            "name": "F#2",
            "ticks": 188460,
            "time": 588.9375,
            "velocity": 0.7086614173228346
          },
          {
            "duration": 0.18124999999997726,
            "durationTicks": 58,
            "midi": 42,
            "name": "F#2",
            "ticks": 188520,
            "time": 589.125,
            "velocity": 0.7086614173228346
          },
          {
            "duration": 0.18124999999997726,
            "durationTicks": 58,
            "midi": 42,
            "name": "F#2",
            "ticks": 188580,
            "time": 589.3125,
            "velocity": 0.7086614173228346
          },
          {
            "duration": 0.18124999999997726,
            "durationTicks": 58,
            "midi": 42,
            "name": "F#2",
            "ticks": 188640,
            "time": 589.5,
            "velocity": 0.7086614173228346
          },
          {
            "duration": 0.18124999999997726,
            "durationTicks": 58,
            "midi": 42,
            "name": "F#2",
            "ticks": 188700,
            "time": 589.6875,
            "velocity": 0.7086614173228346
          },
          {
            "duration": 0.18124999999997726,
            "durationTicks": 58,
            "midi": 42,
            "name": "F#2",
            "ticks": 188760,
            "time": 589.875,
            "velocity": 0.7086614173228346
          },
          {
            "duration": 0.18124999999997726,
            "durationTicks": 58,
            "midi": 42,
            "name": "F#2",
            "ticks": 188820,
            "time": 590.0625,
            "velocity": 0.7086614173228346
          },
          {
            "duration": 0.18124999999997726,
            "durationTicks": 58,
            "midi": 42,
            "name": "F#2",
            "ticks": 188880,
            "time": 590.25,
            "velocity": 0.7086614173228346
          },
          {
            "duration": 0.18124999999997726,
            "durationTicks": 58,
            "midi": 42,
            "name": "F#2",
            "ticks": 188940,
            "time": 590.4375,
            "velocity": 0.7086614173228346
          },
          {
            "duration": 0.18124999999997726,
            "durationTicks": 58,
            "midi": 42,
            "name": "F#2",
            "ticks": 189000,
            "time": 590.625,
            "velocity": 0.7086614173228346
          },
          {
            "duration": 0.18124999999997726,
            "durationTicks": 58,
            "midi": 42,
            "name": "F#2",
            "ticks": 189060,
            "time": 590.8125,
            "velocity": 0.7086614173228346
          },
          {
            "duration": 0.18124999999997726,
            "durationTicks": 58,
            "midi": 42,
            "name": "F#2",
            "ticks": 189120,
            "time": 591,
            "velocity": 0.7086614173228346
          },
          {
            "duration": 0.18124999999997726,
            "durationTicks": 58,
            "midi": 42,
            "name": "F#2",
            "ticks": 189180,
            "time": 591.1875,
            "velocity": 0.7086614173228346
          },
          {
            "duration": 0.18124999999997726,
            "durationTicks": 58,
            "midi": 42,
            "name": "F#2",
            "ticks": 189240,
            "time": 591.375,
            "velocity": 0.7086614173228346
          },
          {
            "duration": 0.18124999999997726,
            "durationTicks": 58,
            "midi": 42,
            "name": "F#2",
            "ticks": 189300,
            "time": 591.5625,
            "velocity": 0.7086614173228346
          },
          {
            "duration": 0.18124999999997726,
            "durationTicks": 58,
            "midi": 42,
            "name": "F#2",
            "ticks": 189360,
            "time": 591.75,
            "velocity": 0.7086614173228346
          },
          {
            "duration": 0.18124999999997726,
            "durationTicks": 58,
            "midi": 42,
            "name": "F#2",
            "ticks": 189420,
            "time": 591.9375,
            "velocity": 0.7086614173228346
          },
          {
            "duration": 0.18124999999997726,
            "durationTicks": 58,
            "midi": 42,
            "name": "F#2",
            "ticks": 189480,
            "time": 592.125,
            "velocity": 0.7086614173228346
          },
          {
            "duration": 0.18124999999997726,
            "durationTicks": 58,
            "midi": 42,
            "name": "F#2",
            "ticks": 189540,
            "time": 592.3125,
            "velocity": 0.7086614173228346
          },
          {
            "duration": 0.18124999999997726,
            "durationTicks": 58,
            "midi": 42,
            "name": "F#2",
            "ticks": 189600,
            "time": 592.5,
            "velocity": 0.7086614173228346
          },
          {
            "duration": 0.18124999999997726,
            "durationTicks": 58,
            "midi": 42,
            "name": "F#2",
            "ticks": 189660,
            "time": 592.6875,
            "velocity": 0.7086614173228346
          },
          {
            "duration": 0.18124999999997726,
            "durationTicks": 58,
            "midi": 42,
            "name": "F#2",
            "ticks": 189720,
            "time": 592.875,
            "velocity": 0.7086614173228346
          },
          {
            "duration": 0.18124999999997726,
            "durationTicks": 58,
            "midi": 42,
            "name": "F#2",
            "ticks": 189780,
            "time": 593.0625,
            "velocity": 0.7086614173228346
          },
          {
            "duration": 0.18124999999997726,
            "durationTicks": 58,
            "midi": 42,
            "name": "F#2",
            "ticks": 189840,
            "time": 593.25,
            "velocity": 0.7086614173228346
          },
          {
            "duration": 0.18124999999997726,
            "durationTicks": 58,
            "midi": 42,
            "name": "F#2",
            "ticks": 189900,
            "time": 593.4375,
            "velocity": 0.7086614173228346
          },
          {
            "duration": 0.18124999999997726,
            "durationTicks": 58,
            "midi": 42,
            "name": "F#2",
            "ticks": 189960,
            "time": 593.625,
            "velocity": 0.7086614173228346
          },
          {
            "duration": 0.18124999999997726,
            "durationTicks": 58,
            "midi": 42,
            "name": "F#2",
            "ticks": 190020,
            "time": 593.8125,
            "velocity": 0.7086614173228346
          },
          {
            "duration": 0.18124999999997726,
            "durationTicks": 58,
            "midi": 42,
            "name": "F#2",
            "ticks": 190080,
            "time": 594,
            "velocity": 0.7086614173228346
          },
          {
            "duration": 0.18124999999997726,
            "durationTicks": 58,
            "midi": 42,
            "name": "F#2",
            "ticks": 190140,
            "time": 594.1875,
            "velocity": 0.7086614173228346
          },
          {
            "duration": 0.18124999999997726,
            "durationTicks": 58,
            "midi": 42,
            "name": "F#2",
            "ticks": 190200,
            "time": 594.375,
            "velocity": 0.7086614173228346
          },
          {
            "duration": 0.18124999999997726,
            "durationTicks": 58,
            "midi": 42,
            "name": "F#2",
            "ticks": 190260,
            "time": 594.5625,
            "velocity": 0.7086614173228346
          },
          {
            "duration": 0.18124999999997726,
            "durationTicks": 58,
            "midi": 42,
            "name": "F#2",
            "ticks": 190320,
            "time": 594.75,
            "velocity": 0.7086614173228346
          },
          {
            "duration": 0.18124999999997726,
            "durationTicks": 58,
            "midi": 42,
            "name": "F#2",
            "ticks": 190380,
            "time": 594.9375,
            "velocity": 0.7086614173228346
          },
          {
            "duration": 0.18124999999997726,
            "durationTicks": 58,
            "midi": 42,
            "name": "F#2",
            "ticks": 190440,
            "time": 595.125,
            "velocity": 0.7086614173228346
          },
          {
            "duration": 0.18124999999997726,
            "durationTicks": 58,
            "midi": 42,
            "name": "F#2",
            "ticks": 190500,
            "time": 595.3125,
            "velocity": 0.7086614173228346
          },
          {
            "duration": 0.18124999999997726,
            "durationTicks": 58,
            "midi": 42,
            "name": "F#2",
            "ticks": 190560,
            "time": 595.5,
            "velocity": 0.7086614173228346
          },
          {
            "duration": 0.18124999999997726,
            "durationTicks": 58,
            "midi": 42,
            "name": "F#2",
            "ticks": 190620,
            "time": 595.6875,
            "velocity": 0.7086614173228346
          },
          {
            "duration": 0.18124999999997726,
            "durationTicks": 58,
            "midi": 42,
            "name": "F#2",
            "ticks": 190680,
            "time": 595.875,
            "velocity": 0.7086614173228346
          },
          {
            "duration": 0.18124999999997726,
            "durationTicks": 58,
            "midi": 42,
            "name": "F#2",
            "ticks": 190740,
            "time": 596.0625,
            "velocity": 0.7086614173228346
          },
          {
            "duration": 0.18124999999997726,
            "durationTicks": 58,
            "midi": 42,
            "name": "F#2",
            "ticks": 190800,
            "time": 596.25,
            "velocity": 0.7086614173228346
          },
          {
            "duration": 0.18124999999997726,
            "durationTicks": 58,
            "midi": 42,
            "name": "F#2",
            "ticks": 190860,
            "time": 596.4375,
            "velocity": 0.7086614173228346
          },
          {
            "duration": 0.18124999999997726,
            "durationTicks": 58,
            "midi": 42,
            "name": "F#2",
            "ticks": 190920,
            "time": 596.625,
            "velocity": 0.7086614173228346
          },
          {
            "duration": 0.18124999999997726,
            "durationTicks": 58,
            "midi": 42,
            "name": "F#2",
            "ticks": 190980,
            "time": 596.8125,
            "velocity": 0.7086614173228346
          },
          {
            "duration": 0.18124999999997726,
            "durationTicks": 58,
            "midi": 42,
            "name": "F#2",
            "ticks": 191040,
            "time": 597,
            "velocity": 0.7086614173228346
          },
          {
            "duration": 0.18124999999997726,
            "durationTicks": 58,
            "midi": 42,
            "name": "F#2",
            "ticks": 191100,
            "time": 597.1875,
            "velocity": 0.7086614173228346
          },
          {
            "duration": 0.18124999999997726,
            "durationTicks": 58,
            "midi": 42,
            "name": "F#2",
            "ticks": 191160,
            "time": 597.375,
            "velocity": 0.7086614173228346
          },
          {
            "duration": 0.18124999999997726,
            "durationTicks": 58,
            "midi": 42,
            "name": "F#2",
            "ticks": 191220,
            "time": 597.5625,
            "velocity": 0.7086614173228346
          },
          {
            "duration": 0.18124999999997726,
            "durationTicks": 58,
            "midi": 42,
            "name": "F#2",
            "ticks": 191280,
            "time": 597.75,
            "velocity": 0.7086614173228346
          },
          {
            "duration": 0.18124999999997726,
            "durationTicks": 58,
            "midi": 42,
            "name": "F#2",
            "ticks": 191340,
            "time": 597.9375,
            "velocity": 0.7086614173228346
          },
          {
            "duration": 0.18124999999997726,
            "durationTicks": 58,
            "midi": 42,
            "name": "F#2",
            "ticks": 191400,
            "time": 598.125,
            "velocity": 0.7086614173228346
          },
          {
            "duration": 0.18124999999997726,
            "durationTicks": 58,
            "midi": 42,
            "name": "F#2",
            "ticks": 191460,
            "time": 598.3125,
            "velocity": 0.7086614173228346
          },
          {
            "duration": 0.18124999999997726,
            "durationTicks": 58,
            "midi": 42,
            "name": "F#2",
            "ticks": 191520,
            "time": 598.5,
            "velocity": 0.905511811023622
          },
          {
            "duration": 0.18124999999997726,
            "durationTicks": 58,
            "midi": 42,
            "name": "F#2",
            "ticks": 191580,
            "time": 598.6875,
            "velocity": 0.905511811023622
          },
          {
            "duration": 0.18124999999997726,
            "durationTicks": 58,
            "midi": 42,
            "name": "F#2",
            "ticks": 191640,
            "time": 598.875,
            "velocity": 0.8976377952755905
          },
          {
            "duration": 0.18124999999997726,
            "durationTicks": 58,
            "midi": 42,
            "name": "F#2",
            "ticks": 191700,
            "time": 599.0625,
            "velocity": 0.8976377952755905
          },
          {
            "duration": 0.18124999999997726,
            "durationTicks": 58,
            "midi": 42,
            "name": "F#2",
            "ticks": 191760,
            "time": 599.25,
            "velocity": 0.889763779527559
          },
          {
            "duration": 0.18124999999997726,
            "durationTicks": 58,
            "midi": 42,
            "name": "F#2",
            "ticks": 191820,
            "time": 599.4375,
            "velocity": 0.889763779527559
          },
          {
            "duration": 0.18124999999997726,
            "durationTicks": 58,
            "midi": 42,
            "name": "F#2",
            "ticks": 191880,
            "time": 599.625,
            "velocity": 0.8818897637795275
          },
          {
            "duration": 0.18124999999997726,
            "durationTicks": 58,
            "midi": 42,
            "name": "F#2",
            "ticks": 191940,
            "time": 599.8125,
            "velocity": 0.8740157480314961
          },
          {
            "duration": 0.18124999999997726,
            "durationTicks": 58,
            "midi": 42,
            "name": "F#2",
            "ticks": 192000,
            "time": 600,
            "velocity": 0.8740157480314961
          },
          {
            "duration": 0.18124999999997726,
            "durationTicks": 58,
            "midi": 42,
            "name": "F#2",
            "ticks": 192060,
            "time": 600.1875,
            "velocity": 0.8661417322834646
          },
          {
            "duration": 0.18124999999997726,
            "durationTicks": 58,
            "midi": 42,
            "name": "F#2",
            "ticks": 192120,
            "time": 600.375,
            "velocity": 0.8661417322834646
          },
          {
            "duration": 0.18124999999997726,
            "durationTicks": 58,
            "midi": 42,
            "name": "F#2",
            "ticks": 192180,
            "time": 600.5625,
            "velocity": 0.8582677165354331
          },
          {
            "duration": 0.18124999999997726,
            "durationTicks": 58,
            "midi": 42,
            "name": "F#2",
            "ticks": 192240,
            "time": 600.75,
            "velocity": 0.8582677165354331
          },
          {
            "duration": 0.18124999999997726,
            "durationTicks": 58,
            "midi": 42,
            "name": "F#2",
            "ticks": 192300,
            "time": 600.9375,
            "velocity": 0.8503937007874016
          },
          {
            "duration": 0.18124999999997726,
            "durationTicks": 58,
            "midi": 42,
            "name": "F#2",
            "ticks": 192360,
            "time": 601.125,
            "velocity": 0.8503937007874016
          },
          {
            "duration": 0.18124999999997726,
            "durationTicks": 58,
            "midi": 42,
            "name": "F#2",
            "ticks": 192420,
            "time": 601.3125,
            "velocity": 0.84251968503937
          },
          {
            "duration": 0.18124999999997726,
            "durationTicks": 58,
            "midi": 42,
            "name": "F#2",
            "ticks": 192480,
            "time": 601.5,
            "velocity": 0.8346456692913385
          },
          {
            "duration": 0.18124999999997726,
            "durationTicks": 58,
            "midi": 42,
            "name": "F#2",
            "ticks": 192540,
            "time": 601.6875,
            "velocity": 0.8346456692913385
          },
          {
            "duration": 0.18124999999997726,
            "durationTicks": 58,
            "midi": 42,
            "name": "F#2",
            "ticks": 192600,
            "time": 601.875,
            "velocity": 0.8267716535433071
          },
          {
            "duration": 0.18124999999997726,
            "durationTicks": 58,
            "midi": 42,
            "name": "F#2",
            "ticks": 192660,
            "time": 602.0625,
            "velocity": 0.8267716535433071
          },
          {
            "duration": 0.18124999999997726,
            "durationTicks": 58,
            "midi": 42,
            "name": "F#2",
            "ticks": 192720,
            "time": 602.25,
            "velocity": 0.8188976377952756
          },
          {
            "duration": 0.18124999999997726,
            "durationTicks": 58,
            "midi": 42,
            "name": "F#2",
            "ticks": 192780,
            "time": 602.4375,
            "velocity": 0.8188976377952756
          },
          {
            "duration": 0.18124999999997726,
            "durationTicks": 58,
            "midi": 42,
            "name": "F#2",
            "ticks": 192840,
            "time": 602.625,
            "velocity": 0.8110236220472441
          },
          {
            "duration": 0.18124999999997726,
            "durationTicks": 58,
            "midi": 42,
            "name": "F#2",
            "ticks": 192900,
            "time": 602.8125,
            "velocity": 0.8110236220472441
          },
          {
            "duration": 0.18124999999997726,
            "durationTicks": 58,
            "midi": 42,
            "name": "F#2",
            "ticks": 192960,
            "time": 603,
            "velocity": 0.8031496062992126
          },
          {
            "duration": 0.18124999999997726,
            "durationTicks": 58,
            "midi": 42,
            "name": "F#2",
            "ticks": 193020,
            "time": 603.1875,
            "velocity": 0.8031496062992126
          },
          {
            "duration": 0.18124999999997726,
            "durationTicks": 58,
            "midi": 42,
            "name": "F#2",
            "ticks": 193080,
            "time": 603.375,
            "velocity": 0.7952755905511811
          },
          {
            "duration": 0.18124999999997726,
            "durationTicks": 58,
            "midi": 42,
            "name": "F#2",
            "ticks": 193140,
            "time": 603.5625,
            "velocity": 0.7874015748031497
          },
          {
            "duration": 0.18124999999997726,
            "durationTicks": 58,
            "midi": 42,
            "name": "F#2",
            "ticks": 193200,
            "time": 603.75,
            "velocity": 0.7874015748031497
          },
          {
            "duration": 0.18124999999997726,
            "durationTicks": 58,
            "midi": 42,
            "name": "F#2",
            "ticks": 193260,
            "time": 603.9375,
            "velocity": 0.7795275590551181
          },
          {
            "duration": 0.18124999999997726,
            "durationTicks": 58,
            "midi": 42,
            "name": "F#2",
            "ticks": 193320,
            "time": 604.125,
            "velocity": 0.7795275590551181
          },
          {
            "duration": 0.18124999999997726,
            "durationTicks": 58,
            "midi": 42,
            "name": "F#2",
            "ticks": 193380,
            "time": 604.3125,
            "velocity": 0.7716535433070866
          },
          {
            "duration": 0.18124999999997726,
            "durationTicks": 58,
            "midi": 42,
            "name": "F#2",
            "ticks": 193440,
            "time": 604.5,
            "velocity": 0.7716535433070866
          },
          {
            "duration": 0.18124999999997726,
            "durationTicks": 58,
            "midi": 42,
            "name": "F#2",
            "ticks": 193500,
            "time": 604.6875,
            "velocity": 0.7637795275590551
          },
          {
            "duration": 0.18124999999997726,
            "durationTicks": 58,
            "midi": 42,
            "name": "F#2",
            "ticks": 193560,
            "time": 604.875,
            "velocity": 0.7637795275590551
          },
          {
            "duration": 0.18124999999997726,
            "durationTicks": 58,
            "midi": 42,
            "name": "F#2",
            "ticks": 193620,
            "time": 605.0625,
            "velocity": 0.7559055118110236
          },
          {
            "duration": 0.18124999999997726,
            "durationTicks": 58,
            "midi": 42,
            "name": "F#2",
            "ticks": 193680,
            "time": 605.25,
            "velocity": 0.7480314960629921
          },
          {
            "duration": 0.18124999999997726,
            "durationTicks": 58,
            "midi": 42,
            "name": "F#2",
            "ticks": 193740,
            "time": 605.4375,
            "velocity": 0.7480314960629921
          },
          {
            "duration": 0.18124999999997726,
            "durationTicks": 58,
            "midi": 42,
            "name": "F#2",
            "ticks": 193800,
            "time": 605.625,
            "velocity": 0.7401574803149606
          },
          {
            "duration": 0.18124999999997726,
            "durationTicks": 58,
            "midi": 42,
            "name": "F#2",
            "ticks": 193860,
            "time": 605.8125,
            "velocity": 0.7401574803149606
          },
          {
            "duration": 0.18124999999997726,
            "durationTicks": 58,
            "midi": 42,
            "name": "F#2",
            "ticks": 193920,
            "time": 606,
            "velocity": 0.7322834645669292
          },
          {
            "duration": 0.18124999999997726,
            "durationTicks": 58,
            "midi": 42,
            "name": "F#2",
            "ticks": 193980,
            "time": 606.1875,
            "velocity": 0.7322834645669292
          },
          {
            "duration": 0.18124999999997726,
            "durationTicks": 58,
            "midi": 42,
            "name": "F#2",
            "ticks": 194040,
            "time": 606.375,
            "velocity": 0.7244094488188977
          },
          {
            "duration": 0.18124999999997726,
            "durationTicks": 58,
            "midi": 42,
            "name": "F#2",
            "ticks": 194100,
            "time": 606.5625,
            "velocity": 0.7244094488188977
          },
          {
            "duration": 0.18124999999997726,
            "durationTicks": 58,
            "midi": 42,
            "name": "F#2",
            "ticks": 194160,
            "time": 606.75,
            "velocity": 0.7165354330708661
          },
          {
            "duration": 0.18124999999997726,
            "durationTicks": 58,
            "midi": 42,
            "name": "F#2",
            "ticks": 194220,
            "time": 606.9375,
            "velocity": 0.7086614173228346
          },
          {
            "duration": 0.18124999999997726,
            "durationTicks": 58,
            "midi": 42,
            "name": "F#2",
            "ticks": 194280,
            "time": 607.125,
            "velocity": 0.7086614173228346
          },
          {
            "duration": 0.18124999999997726,
            "durationTicks": 58,
            "midi": 42,
            "name": "F#2",
            "ticks": 194340,
            "time": 607.3125,
            "velocity": 0.7007874015748031
          },
          {
            "duration": 0.18124999999997726,
            "durationTicks": 58,
            "midi": 42,
            "name": "F#2",
            "ticks": 194400,
            "time": 607.5,
            "velocity": 0.7007874015748031
          },
          {
            "duration": 0.18124999999997726,
            "durationTicks": 58,
            "midi": 42,
            "name": "F#2",
            "ticks": 194460,
            "time": 607.6875,
            "velocity": 0.6929133858267716
          },
          {
            "duration": 0.18124999999997726,
            "durationTicks": 58,
            "midi": 42,
            "name": "F#2",
            "ticks": 194520,
            "time": 607.875,
            "velocity": 0.6929133858267716
          },
          {
            "duration": 0.18124999999997726,
            "durationTicks": 58,
            "midi": 42,
            "name": "F#2",
            "ticks": 194580,
            "time": 608.0625,
            "velocity": 0.6850393700787402
          },
          {
            "duration": 0.18124999999997726,
            "durationTicks": 58,
            "midi": 42,
            "name": "F#2",
            "ticks": 194640,
            "time": 608.25,
            "velocity": 0.6850393700787402
          },
          {
            "duration": 0.18124999999997726,
            "durationTicks": 58,
            "midi": 42,
            "name": "F#2",
            "ticks": 194700,
            "time": 608.4375,
            "velocity": 0.6771653543307087
          },
          {
            "duration": 0.18124999999997726,
            "durationTicks": 58,
            "midi": 42,
            "name": "F#2",
            "ticks": 194760,
            "time": 608.625,
            "velocity": 0.6692913385826772
          },
          {
            "duration": 0.18124999999997726,
            "durationTicks": 58,
            "midi": 42,
            "name": "F#2",
            "ticks": 194820,
            "time": 608.8125,
            "velocity": 0.6692913385826772
          },
          {
            "duration": 0.18124999999997726,
            "durationTicks": 58,
            "midi": 42,
            "name": "F#2",
            "ticks": 194880,
            "time": 609,
            "velocity": 0.6614173228346457
          },
          {
            "duration": 0.18124999999997726,
            "durationTicks": 58,
            "midi": 42,
            "name": "F#2",
            "ticks": 194940,
            "time": 609.1875,
            "velocity": 0.6614173228346457
          },
          {
            "duration": 0.18124999999997726,
            "durationTicks": 58,
            "midi": 42,
            "name": "F#2",
            "ticks": 195000,
            "time": 609.375,
            "velocity": 0.6535433070866141
          },
          {
            "duration": 0.18124999999997726,
            "durationTicks": 58,
            "midi": 42,
            "name": "F#2",
            "ticks": 195060,
            "time": 609.5625,
            "velocity": 0.6535433070866141
          },
          {
            "duration": 0.18124999999997726,
            "durationTicks": 58,
            "midi": 42,
            "name": "F#2",
            "ticks": 195120,
            "time": 609.75,
            "velocity": 0.6456692913385826
          },
          {
            "duration": 0.18124999999997726,
            "durationTicks": 58,
            "midi": 42,
            "name": "F#2",
            "ticks": 195180,
            "time": 609.9375,
            "velocity": 0.6456692913385826
          },
          {
            "duration": 0.18124999999997726,
            "durationTicks": 58,
            "midi": 42,
            "name": "F#2",
            "ticks": 195240,
            "time": 610.125,
            "velocity": 0.6377952755905512
          },
          {
            "duration": 0.18124999999997726,
            "durationTicks": 58,
            "midi": 42,
            "name": "F#2",
            "ticks": 195300,
            "time": 610.3125,
            "velocity": 0.6377952755905512
          },
          {
            "duration": 0.18124999999997726,
            "durationTicks": 58,
            "midi": 42,
            "name": "F#2",
            "ticks": 195360,
            "time": 610.5,
            "velocity": 0.6299212598425197
          },
          {
            "duration": 0.18124999999997726,
            "durationTicks": 58,
            "midi": 42,
            "name": "F#2",
            "ticks": 195420,
            "time": 610.6875,
            "velocity": 0.6220472440944882
          },
          {
            "duration": 0.18124999999997726,
            "durationTicks": 58,
            "midi": 42,
            "name": "F#2",
            "ticks": 195480,
            "time": 610.875,
            "velocity": 0.6220472440944882
          },
          {
            "duration": 0.18124999999997726,
            "durationTicks": 58,
            "midi": 42,
            "name": "F#2",
            "ticks": 195540,
            "time": 611.0625,
            "velocity": 0.6141732283464567
          },
          {
            "duration": 0.18124999999997726,
            "durationTicks": 58,
            "midi": 42,
            "name": "F#2",
            "ticks": 195600,
            "time": 611.25,
            "velocity": 0.6141732283464567
          },
          {
            "duration": 0.18124999999997726,
            "durationTicks": 58,
            "midi": 42,
            "name": "F#2",
            "ticks": 195660,
            "time": 611.4375,
            "velocity": 0.6062992125984252
          },
          {
            "duration": 0.18124999999997726,
            "durationTicks": 58,
            "midi": 42,
            "name": "F#2",
            "ticks": 195720,
            "time": 611.625,
            "velocity": 0.6062992125984252
          },
          {
            "duration": 0.18124999999997726,
            "durationTicks": 58,
            "midi": 42,
            "name": "F#2",
            "ticks": 195780,
            "time": 611.8125,
            "velocity": 0.5984251968503937
          },
          {
            "duration": 0.18124999999997726,
            "durationTicks": 58,
            "midi": 42,
            "name": "F#2",
            "ticks": 195840,
            "time": 612,
            "velocity": 0.5984251968503937
          },
          {
            "duration": 0.18124999999997726,
            "durationTicks": 58,
            "midi": 42,
            "name": "F#2",
            "ticks": 195900,
            "time": 612.1875,
            "velocity": 0.5905511811023622
          },
          {
            "duration": 0.18124999999997726,
            "durationTicks": 58,
            "midi": 42,
            "name": "F#2",
            "ticks": 195960,
            "time": 612.375,
            "velocity": 0.5826771653543307
          },
          {
            "duration": 0.18124999999997726,
            "durationTicks": 58,
            "midi": 42,
            "name": "F#2",
            "ticks": 196020,
            "time": 612.5625,
            "velocity": 0.5826771653543307
          },
          {
            "duration": 0.18124999999997726,
            "durationTicks": 58,
            "midi": 42,
            "name": "F#2",
            "ticks": 196080,
            "time": 612.75,
            "velocity": 0.5748031496062992
          },
          {
            "duration": 0.18124999999997726,
            "durationTicks": 58,
            "midi": 42,
            "name": "F#2",
            "ticks": 196140,
            "time": 612.9375,
            "velocity": 0.5748031496062992
          },
          {
            "duration": 0.18124999999997726,
            "durationTicks": 58,
            "midi": 42,
            "name": "F#2",
            "ticks": 196200,
            "time": 613.125,
            "velocity": 0.5669291338582677
          },
          {
            "duration": 0.18124999999997726,
            "durationTicks": 58,
            "midi": 42,
            "name": "F#2",
            "ticks": 196260,
            "time": 613.3125,
            "velocity": 0.5669291338582677
          },
          {
            "duration": 0.18124999999997726,
            "durationTicks": 58,
            "midi": 42,
            "name": "F#2",
            "ticks": 196320,
            "time": 613.5,
            "velocity": 0.5590551181102362
          },
          {
            "duration": 0.18124999999997726,
            "durationTicks": 58,
            "midi": 42,
            "name": "F#2",
            "ticks": 196380,
            "time": 613.6875,
            "velocity": 0.5590551181102362
          },
          {
            "duration": 0.18124999999997726,
            "durationTicks": 58,
            "midi": 42,
            "name": "F#2",
            "ticks": 196440,
            "time": 613.875,
            "velocity": 0.5511811023622047
          },
          {
            "duration": 0.18124999999997726,
            "durationTicks": 58,
            "midi": 42,
            "name": "F#2",
            "ticks": 196500,
            "time": 614.0625,
            "velocity": 0.5433070866141733
          },
          {
            "duration": 0.18124999999997726,
            "durationTicks": 58,
            "midi": 42,
            "name": "F#2",
            "ticks": 196560,
            "time": 614.25,
            "velocity": 0.5433070866141733
          },
          {
            "duration": 0.18124999999997726,
            "durationTicks": 58,
            "midi": 42,
            "name": "F#2",
            "ticks": 196620,
            "time": 614.4375,
            "velocity": 0.5354330708661418
          },
          {
            "duration": 0.18124999999997726,
            "durationTicks": 58,
            "midi": 42,
            "name": "F#2",
            "ticks": 196680,
            "time": 614.625,
            "velocity": 0.5354330708661418
          },
          {
            "duration": 0.18124999999997726,
            "durationTicks": 58,
            "midi": 42,
            "name": "F#2",
            "ticks": 196740,
            "time": 614.8125,
            "velocity": 0.5275590551181102
          },
          {
            "duration": 0.18124999999997726,
            "durationTicks": 58,
            "midi": 42,
            "name": "F#2",
            "ticks": 196800,
            "time": 615,
            "velocity": 0.5275590551181102
          },
          {
            "duration": 0.18124999999997726,
            "durationTicks": 58,
            "midi": 42,
            "name": "F#2",
            "ticks": 196860,
            "time": 615.1875,
            "velocity": 0.5196850393700787
          },
          {
            "duration": 0.18124999999997726,
            "durationTicks": 58,
            "midi": 42,
            "name": "F#2",
            "ticks": 196920,
            "time": 615.375,
            "velocity": 0.5196850393700787
          },
          {
            "duration": 0.18124999999997726,
            "durationTicks": 58,
            "midi": 42,
            "name": "F#2",
            "ticks": 196980,
            "time": 615.5625,
            "velocity": 0.5118110236220472
          },
          {
            "duration": 0.18124999999997726,
            "durationTicks": 58,
            "midi": 42,
            "name": "F#2",
            "ticks": 197040,
            "time": 615.75,
            "velocity": 0.5039370078740157
          },
          {
            "duration": 0.18124999999997726,
            "durationTicks": 58,
            "midi": 42,
            "name": "F#2",
            "ticks": 197100,
            "time": 615.9375,
            "velocity": 0.5039370078740157
          },
          {
            "duration": 0.18124999999997726,
            "durationTicks": 58,
            "midi": 42,
            "name": "F#2",
            "ticks": 197160,
            "time": 616.125,
            "velocity": 0.49606299212598426
          },
          {
            "duration": 0.18124999999997726,
            "durationTicks": 58,
            "midi": 42,
            "name": "F#2",
            "ticks": 197220,
            "time": 616.3125,
            "velocity": 0.49606299212598426
          },
          {
            "duration": 0.599999999999909,
            "durationTicks": 192,
            "midi": 42,
            "name": "F#2",
            "ticks": 197280,
            "time": 616.5,
            "velocity": 0.4330708661417323
          }
        ]
      },
      {
        "channel": 0,
        "controlChanges": {},
        "pitchBends": [],
        "instrument": {
          "family": "piano",
          "number": 0,
          "name": "acoustic grand piano"
        },
        "name": "Violin 1",
        "notes": [],
        "endOfTrackTicks": 223200
      },
      {
        "channel": 10,
        "controlChanges": {
          "7": [
            {
              "number": 7,
              "ticks": 0,
              "time": 0,
              "value": 1
            }
          ],
          "10": [
            {
              "number": 10,
              "ticks": 0,
              "time": 0,
              "value": 0.11811023622047244
            }
          ]
        },
        "pitchBends": [],
        "instrument": {
          "family": "ensemble",
          "number": 48,
          "name": "string ensemble 1"
        },
        "name": "",
        "notes": [
          {
            "duration": 1.40625,
            "durationTicks": 450,
            "midi": 71,
            "name": "B4",
            "ticks": 0,
            "time": 0,
            "velocity": 0.8661417322834646
          },
          {
            "duration": 0.7062500000000003,
            "durationTicks": 226,
            "midi": 76,
            "name": "E5",
            "ticks": 480,
            "time": 1.5,
            "velocity": 0.8661417322834646
          },
          {
            "duration": 0.7062500000000003,
            "durationTicks": 226,
            "midi": 68,
            "name": "G#4",
            "ticks": 720,
            "time": 2.25,
            "velocity": 0.8661417322834646
          },
          {
            "duration": 1.0562500000000004,
            "durationTicks": 338,
            "midi": 73,
            "name": "C#5",
            "ticks": 960,
            "time": 3,
            "velocity": 0.84251968503937
          },
          {
            "duration": 0.3562499999999993,
            "durationTicks": 114,
            "midi": 65,
            "name": "F4",
            "ticks": 1320,
            "time": 4.125,
            "velocity": 0.8031496062992126
          },
          {
            "duration": 3.7062500000000007,
            "durationTicks": 1186,
            "midi": 73,
            "name": "C#5",
            "ticks": 1440,
            "time": 4.5,
            "velocity": 0.7086614173228346
          },
          {
            "duration": 1.40625,
            "durationTicks": 450,
            "midi": 71,
            "name": "B4",
            "ticks": 2880,
            "time": 9,
            "velocity": 0.8661417322834646
          },
          {
            "duration": 0.7062500000000007,
            "durationTicks": 226,
            "midi": 76,
            "name": "E5",
            "ticks": 3360,
            "time": 10.5,
            "velocity": 0.8661417322834646
          },
          {
            "duration": 0.7062500000000007,
            "durationTicks": 226,
            "midi": 68,
            "name": "G#4",
            "ticks": 3600,
            "time": 11.25,
            "velocity": 0.8661417322834646
          },
          {
            "duration": 1.0562500000000021,
            "durationTicks": 338,
            "midi": 73,
            "name": "C#5",
            "ticks": 3840,
            "time": 12,
            "velocity": 0.8582677165354331
          },
          {
            "duration": 0.35625000000000107,
            "durationTicks": 114,
            "midi": 65,
            "name": "F4",
            "ticks": 4200,
            "time": 13.125,
            "velocity": 0.8110236220472441
          },
          {
            "duration": 0.7062500000000007,
            "durationTicks": 226,
            "midi": 74,
            "name": "D5",
            "ticks": 4320,
            "time": 13.5,
            "velocity": 0.7480314960629921
          },
          {
            "duration": 2.9562500000000007,
            "durationTicks": 946,
            "midi": 73,
            "name": "C#5",
            "ticks": 4560,
            "time": 14.25,
            "velocity": 0.7480314960629921
          },
          {
            "duration": 2.9562500000000007,
            "durationTicks": 946,
            "midi": 67,
            "name": "G4",
            "ticks": 5760,
            "time": 18,
            "velocity": 0.5275590551181102
          },
          {
            "duration": 1.0562500000000021,
            "durationTicks": 338,
            "midi": 67,
            "name": "G4",
            "ticks": 6720,
            "time": 21,
            "velocity": 0.5275590551181102
          },
          {
            "duration": 0.35625000000000284,
            "durationTicks": 114,
            "midi": 69,
            "name": "A4",
            "ticks": 7080,
            "time": 22.125,
            "velocity": 0.5275590551181102
          },
          {
            "duration": 2.8125,
            "durationTicks": 900,
            "midi": 66,
            "name": "F#4",
            "ticks": 7200,
            "time": 22.5,
            "velocity": 0.49606299212598426
          },
          {
            "duration": 2.9562500000000043,
            "durationTicks": 946,
            "midi": 71,
            "name": "B4",
            "ticks": 8640,
            "time": 27,
            "velocity": 0.5275590551181102
          },
          {
            "duration": 1.0562499999999986,
            "durationTicks": 338,
            "midi": 71,
            "name": "B4",
            "ticks": 9600,
            "time": 30,
            "velocity": 0.5275590551181102
          },
          {
            "duration": 0.35625000000000284,
            "durationTicks": 114,
            "midi": 73,
            "name": "C#5",
            "ticks": 9960,
            "time": 31.125,
            "velocity": 0.5275590551181102
          },
          {
            "duration": 2.8125,
            "durationTicks": 900,
            "midi": 69,
            "name": "A4",
            "ticks": 10080,
            "time": 31.5,
            "velocity": 0.5275590551181102
          },
          {
            "duration": 2.1125000000000043,
            "durationTicks": 676,
            "midi": 74,
            "name": "D5",
            "ticks": 11520,
            "time": 36,
            "velocity": 0.5039370078740157
          },
          {
            "duration": 0.7062500000000043,
            "durationTicks": 226,
            "midi": 76,
            "name": "E5",
            "ticks": 12240,
            "time": 38.25,
            "velocity": 0.5590551181102362
          },
          {
            "duration": 1.40625,
            "durationTicks": 450,
            "midi": 73,
            "name": "C#5",
            "ticks": 12480,
            "time": 39,
            "velocity": 0.5748031496062992
          },
          {
            "duration": 2.1125000000000043,
            "durationTicks": 676,
            "midi": 78,
            "name": "F#5",
            "ticks": 12960,
            "time": 40.5,
            "velocity": 0.6141732283464567
          },
          {
            "duration": 0.7062500000000043,
            "durationTicks": 226,
            "midi": 80,
            "name": "G#5",
            "ticks": 13680,
            "time": 42.75,
            "velocity": 0.6692913385826772
          },
          {
            "duration": 1.40625,
            "durationTicks": 450,
            "midi": 76,
            "name": "E5",
            "ticks": 13920,
            "time": 43.5,
            "velocity": 0.6850393700787402
          },
          {
            "duration": 2.1125000000000043,
            "durationTicks": 676,
            "midi": 73,
            "name": "C#5",
            "ticks": 14400,
            "time": 45,
            "velocity": 0.7244094488188977
          },
          {
            "duration": 2.1125000000000043,
            "durationTicks": 676,
            "midi": 81,
            "name": "A5",
            "ticks": 14400,
            "time": 45,
            "velocity": 0.7244094488188977
          },
          {
            "duration": 0.7062500000000043,
            "durationTicks": 226,
            "midi": 83,
            "name": "B5",
            "ticks": 15120,
            "time": 47.25,
            "velocity": 0.7795275590551181
          },
          {
            "duration": 1.40625,
            "durationTicks": 450,
            "midi": 85,
            "name": "C#6",
            "ticks": 15360,
            "time": 48,
            "velocity": 0.7952755905511811
          },
          {
            "duration": 5.206249999999997,
            "durationTicks": 1666,
            "midi": 78,
            "name": "F#5",
            "ticks": 15840,
            "time": 49.5,
            "velocity": 0.7874015748031497
          },
          {
            "duration": 5.206249999999997,
            "durationTicks": 1666,
            "midi": 86,
            "name": "D6",
            "ticks": 15840,
            "time": 49.5,
            "velocity": 0.7874015748031497
          },
          {
            "duration": 2.206249999999997,
            "durationTicks": 706,
            "midi": 74,
            "name": "D5",
            "ticks": 17760,
            "time": 55.5,
            "velocity": 0.7086614173228346
          },
          {
            "duration": 2.206249999999997,
            "durationTicks": 706,
            "midi": 71,
            "name": "B4",
            "ticks": 18720,
            "time": 58.5,
            "velocity": 0.7086614173228346
          },
          {
            "duration": 1.40625,
            "durationTicks": 450,
            "midi": 63,
            "name": "D#4",
            "ticks": 19680,
            "time": 61.5,
            "velocity": 0.6692913385826772
          },
          {
            "duration": 0.7062499999999972,
            "durationTicks": 226,
            "midi": 59,
            "name": "B3",
            "ticks": 20160,
            "time": 63,
            "velocity": 0.6220472440944882
          },
          {
            "duration": 1.40625,
            "durationTicks": 450,
            "midi": 59,
            "name": "B3",
            "ticks": 20640,
            "time": 64.5,
            "velocity": 0.6692913385826772
          },
          {
            "duration": 0.7062499999999972,
            "durationTicks": 226,
            "midi": 55,
            "name": "G3",
            "ticks": 21120,
            "time": 66,
            "velocity": 0.6220472440944882
          },
          {
            "duration": 7.3125,
            "durationTicks": 2340,
            "midi": 55,
            "name": "G3",
            "ticks": 21600,
            "time": 67.5,
            "velocity": 0.5511811023622047
          },
          {
            "duration": 5.206249999999997,
            "durationTicks": 1666,
            "midi": 64,
            "name": "E4",
            "ticks": 24000,
            "time": 75,
            "velocity": 0.49606299212598426
          },
          {
            "duration": 0.35624999999998863,
            "durationTicks": 114,
            "midi": 64,
            "name": "E4",
            "ticks": 26520,
            "time": 82.875,
            "velocity": 0.4881889763779528
          },
          {
            "duration": 0.35624999999998863,
            "durationTicks": 114,
            "midi": 61,
            "name": "C#4",
            "ticks": 26640,
            "time": 83.25,
            "velocity": 0.5196850393700787
          },
          {
            "duration": 0.35624999999998863,
            "durationTicks": 114,
            "midi": 69,
            "name": "A4",
            "ticks": 26760,
            "time": 83.625,
            "velocity": 0.5433070866141733
          },
          {
            "duration": 0.35624999999998863,
            "durationTicks": 114,
            "midi": 65,
            "name": "F4",
            "ticks": 26880,
            "time": 84,
            "velocity": 0.5748031496062992
          },
          {
            "duration": 0.35624999999998863,
            "durationTicks": 114,
            "midi": 73,
            "name": "C#5",
            "ticks": 27000,
            "time": 84.375,
            "velocity": 0.5984251968503937
          },
          {
            "duration": 0.35624999999998863,
            "durationTicks": 114,
            "midi": 68,
            "name": "G#4",
            "ticks": 27120,
            "time": 84.75,
            "velocity": 0.6220472440944882
          },
          {
            "duration": 0.35624999999998863,
            "durationTicks": 114,
            "midi": 76,
            "name": "E5",
            "ticks": 27240,
            "time": 85.125,
            "velocity": 0.6535433070866141
          },
          {
            "duration": 1.40625,
            "durationTicks": 450,
            "midi": 71,
            "name": "B4",
            "ticks": 27360,
            "time": 85.5,
            "velocity": 0.8661417322834646
          },
          {
            "duration": 0.7062499999999972,
            "durationTicks": 226,
            "midi": 76,
            "name": "E5",
            "ticks": 27840,
            "time": 87,
            "velocity": 0.8661417322834646
          },
          {
            "duration": 0.7062499999999972,
            "durationTicks": 226,
            "midi": 68,
            "name": "G#4",
            "ticks": 28080,
            "time": 87.75,
            "velocity": 0.8661417322834646
          },
          {
            "duration": 1.0562500000000057,
            "durationTicks": 338,
            "midi": 73,
            "name": "C#5",
            "ticks": 28320,
            "time": 88.5,
            "velocity": 0.8582677165354331
          },
          {
            "duration": 0.35624999999998863,
            "durationTicks": 114,
            "midi": 65,
            "name": "F4",
            "ticks": 28680,
            "time": 89.625,
            "velocity": 0.8110236220472441
          },
          {
            "duration": 3.706249999999997,
            "durationTicks": 1186,
            "midi": 73,
            "name": "C#5",
            "ticks": 28800,
            "time": 90,
            "velocity": 0.7086614173228346
          },
          {
            "duration": 1.40625,
            "durationTicks": 450,
            "midi": 71,
            "name": "B4",
            "ticks": 30240,
            "time": 94.5,
            "velocity": 0.8661417322834646
          },
          {
            "duration": 0.7062499999999972,
            "durationTicks": 226,
            "midi": 76,
            "name": "E5",
            "ticks": 30720,
            "time": 96,
            "velocity": 0.8661417322834646
          },
          {
            "duration": 0.7062499999999972,
            "durationTicks": 226,
            "midi": 68,
            "name": "G#4",
            "ticks": 30960,
            "time": 96.75,
            "velocity": 0.8661417322834646
          },
          {
            "duration": 1.0562500000000057,
            "durationTicks": 338,
            "midi": 73,
            "name": "C#5",
            "ticks": 31200,
            "time": 97.5,
            "velocity": 0.8582677165354331
          },
          {
            "duration": 0.35624999999998863,
            "durationTicks": 114,
            "midi": 65,
            "name": "F4",
            "ticks": 31560,
            "time": 98.625,
            "velocity": 0.8110236220472441
          },
          {
            "duration": 0.7062499999999972,
            "durationTicks": 226,
            "midi": 74,
            "name": "D5",
            "ticks": 31680,
            "time": 99,
            "velocity": 0.7480314960629921
          },
          {
            "duration": 2.956249999999997,
            "durationTicks": 946,
            "midi": 73,
            "name": "C#5",
            "ticks": 31920,
            "time": 99.75,
            "velocity": 0.7480314960629921
          },
          {
            "duration": 2.956249999999997,
            "durationTicks": 946,
            "midi": 67,
            "name": "G4",
            "ticks": 33120,
            "time": 103.5,
            "velocity": 0.5275590551181102
          },
          {
            "duration": 1.0562500000000057,
            "durationTicks": 338,
            "midi": 67,
            "name": "G4",
            "ticks": 34080,
            "time": 106.5,
            "velocity": 0.5275590551181102
          },
          {
            "duration": 0.35624999999998863,
            "durationTicks": 114,
            "midi": 69,
            "name": "A4",
            "ticks": 34440,
            "time": 107.625,
            "velocity": 0.5275590551181102
          },
          {
            "duration": 3.6000000000000085,
            "durationTicks": 1152,
            "midi": 66,
            "name": "F#4",
            "ticks": 34560,
            "time": 108,
            "velocity": 0.49606299212598426
          },
          {
            "duration": 2.956249999999997,
            "durationTicks": 946,
            "midi": 64,
            "name": "E4",
            "ticks": 36000,
            "time": 112.5,
            "velocity": 0.5275590551181102
          },
          {
            "duration": 1.0562500000000057,
            "durationTicks": 338,
            "midi": 64,
            "name": "E4",
            "ticks": 36960,
            "time": 115.5,
            "velocity": 0.5275590551181102
          },
          {
            "duration": 0.35624999999998863,
            "durationTicks": 114,
            "midi": 66,
            "name": "F#4",
            "ticks": 37320,
            "time": 116.625,
            "velocity": 0.5275590551181102
          },
          {
            "duration": 3.6000000000000085,
            "durationTicks": 1152,
            "midi": 62,
            "name": "D4",
            "ticks": 37440,
            "time": 117,
            "velocity": 0.49606299212598426
          },
          {
            "duration": 2.956249999999997,
            "durationTicks": 946,
            "midi": 61,
            "name": "C#4",
            "ticks": 38880,
            "time": 121.5,
            "velocity": 0.5275590551181102
          },
          {
            "duration": 1.0562500000000057,
            "durationTicks": 338,
            "midi": 61,
            "name": "C#4",
            "ticks": 39840,
            "time": 124.5,
            "velocity": 0.5275590551181102
          },
          {
            "duration": 0.35624999999998863,
            "durationTicks": 114,
            "midi": 62,
            "name": "D4",
            "ticks": 40200,
            "time": 125.625,
            "velocity": 0.5275590551181102
          },
          {
            "duration": 3.6000000000000227,
            "durationTicks": 1152,
            "midi": 59,
            "name": "B3",
            "ticks": 40320,
            "time": 126,
            "velocity": 0.49606299212598426
          },
          {
            "duration": 8.100000000000023,
            "durationTicks": 2592,
            "midi": 55,
            "name": "G3",
            "ticks": 41760,
            "time": 130.5,
            "velocity": 0.4330708661417323
          },
          {
            "duration": 18.600000000000023,
            "durationTicks": 5952,
            "midi": 55,
            "name": "G3",
            "ticks": 45600,
            "time": 142.5,
            "velocity": 0.6299212598425197
          },
          {
            "duration": 1.40625,
            "durationTicks": 450,
            "midi": 74,
            "name": "D5",
            "ticks": 54240,
            "time": 169.5,
            "velocity": 0.47244094488188976
          },
          {
            "duration": 1.40625,
            "durationTicks": 450,
            "midi": 74,
            "name": "D5",
            "ticks": 54720,
            "time": 171,
            "velocity": 0.47244094488188976
          },
          {
            "duration": 1.40625,
            "durationTicks": 450,
            "midi": 73,
            "name": "C#5",
            "ticks": 55200,
            "time": 172.5,
            "velocity": 0.47244094488188976
          },
          {
            "duration": 1.40625,
            "durationTicks": 450,
            "midi": 71,
            "name": "B4",
            "ticks": 55680,
            "time": 174,
            "velocity": 0.47244094488188976
          },
          {
            "duration": 2.8125,
            "durationTicks": 900,
            "midi": 69,
            "name": "A4",
            "ticks": 56160,
            "time": 175.5,
            "velocity": 0.47244094488188976
          },
          {
            "duration": 1.40625,
            "durationTicks": 450,
            "midi": 74,
            "name": "D5",
            "ticks": 57120,
            "time": 178.5,
            "velocity": 0.47244094488188976
          },
          {
            "duration": 1.40625,
            "durationTicks": 450,
            "midi": 74,
            "name": "D5",
            "ticks": 57600,
            "time": 180,
            "velocity": 0.47244094488188976
          },
          {
            "duration": 1.40625,
            "durationTicks": 450,
            "midi": 73,
            "name": "C#5",
            "ticks": 58080,
            "time": 181.5,
            "velocity": 0.47244094488188976
          },
          {
            "duration": 1.40625,
            "durationTicks": 450,
            "midi": 71,
            "name": "B4",
            "ticks": 58560,
            "time": 183,
            "velocity": 0.47244094488188976
          },
          {
            "duration": 2.8125,
            "durationTicks": 900,
            "midi": 69,
            "name": "A4",
            "ticks": 59040,
            "time": 184.5,
            "velocity": 0.4645669291338583
          },
          {
            "duration": 1.40625,
            "durationTicks": 450,
            "midi": 78,
            "name": "F#5",
            "ticks": 60000,
            "time": 187.5,
            "velocity": 0.5275590551181102
          },
          {
            "duration": 1.40625,
            "durationTicks": 450,
            "midi": 78,
            "name": "F#5",
            "ticks": 60480,
            "time": 189,
            "velocity": 0.5590551181102362
          },
          {
            "duration": 1.40625,
            "durationTicks": 450,
            "midi": 76,
            "name": "E5",
            "ticks": 60960,
            "time": 190.5,
            "velocity": 0.5905511811023622
          },
          {
            "duration": 1.40625,
            "durationTicks": 450,
            "midi": 79,
            "name": "G5",
            "ticks": 61440,
            "time": 192,
            "velocity": 0.6220472440944882
          },
          {
            "duration": 1.40625,
            "durationTicks": 450,
            "midi": 79,
            "name": "G5",
            "ticks": 61920,
            "time": 193.5,
            "velocity": 0.6535433070866141
          },
          {
            "duration": 1.40625,
            "durationTicks": 450,
            "midi": 78,
            "name": "F#5",
            "ticks": 62400,
            "time": 195,
            "velocity": 0.6850393700787402
          },
          {
            "duration": 1.40625,
            "durationTicks": 450,
            "midi": 81,
            "name": "A5",
            "ticks": 62880,
            "time": 196.5,
            "velocity": 0.7165354330708661
          },
          {
            "duration": 1.40625,
            "durationTicks": 450,
            "midi": 81,
            "name": "A5",
            "ticks": 63360,
            "time": 198,
            "velocity": 0.7480314960629921
          },
          {
            "duration": 1.40625,
            "durationTicks": 450,
            "midi": 79,
            "name": "G5",
            "ticks": 63840,
            "time": 199.5,
            "velocity": 0.7480314960629921
          },
          {
            "duration": 1.40625,
            "durationTicks": 450,
            "midi": 71,
            "name": "B4",
            "ticks": 64320,
            "time": 201,
            "velocity": 0.7480314960629921
          },
          {
            "duration": 2.8125,
            "durationTicks": 900,
            "midi": 76,
            "name": "E5",
            "ticks": 64800,
            "time": 202.5,
            "velocity": 0.7244094488188977
          },
          {
            "duration": 1.40625,
            "durationTicks": 450,
            "midi": 74,
            "name": "D5",
            "ticks": 65760,
            "time": 205.5,
            "velocity": 0.5433070866141733
          },
          {
            "duration": 1.40625,
            "durationTicks": 450,
            "midi": 74,
            "name": "D5",
            "ticks": 66240,
            "time": 207,
            "velocity": 0.44881889763779526
          },
          {
            "duration": 1.40625,
            "durationTicks": 450,
            "midi": 73,
            "name": "C#5",
            "ticks": 66720,
            "time": 208.5,
            "velocity": 0.44881889763779526
          },
          {
            "duration": 1.40625,
            "durationTicks": 450,
            "midi": 71,
            "name": "B4",
            "ticks": 67200,
            "time": 210,
            "velocity": 0.44881889763779526
          },
          {
            "duration": 2.8125,
            "durationTicks": 900,
            "midi": 69,
            "name": "A4",
            "ticks": 67680,
            "time": 211.5,
            "velocity": 0.4881889763779528
          },
          {
            "duration": 1.40625,
            "durationTicks": 450,
            "midi": 74,
            "name": "D5",
            "ticks": 68640,
            "time": 214.5,
            "velocity": 0.4881889763779528
          },
          {
            "duration": 1.40625,
            "durationTicks": 450,
            "midi": 74,
            "name": "D5",
            "ticks": 69120,
            "time": 216,
            "velocity": 0.44881889763779526
          },
          {
            "duration": 1.40625,
            "durationTicks": 450,
            "midi": 73,
            "name": "C#5",
            "ticks": 69600,
            "time": 217.5,
            "velocity": 0.44881889763779526
          },
          {
            "duration": 1.40625,
            "durationTicks": 450,
            "midi": 71,
            "name": "B4",
            "ticks": 70080,
            "time": 219,
            "velocity": 0.44881889763779526
          },
          {
            "duration": 2.8125,
            "durationTicks": 900,
            "midi": 69,
            "name": "A4",
            "ticks": 70560,
            "time": 220.5,
            "velocity": 0.4881889763779528
          },
          {
            "duration": 1.40625,
            "durationTicks": 450,
            "midi": 74,
            "name": "D5",
            "ticks": 71520,
            "time": 223.5,
            "velocity": 0.4881889763779528
          },
          {
            "duration": 1.40625,
            "durationTicks": 450,
            "midi": 75,
            "name": "D#5",
            "ticks": 72000,
            "time": 225,
            "velocity": 0.47244094488188976
          },
          {
            "duration": 1.40625,
            "durationTicks": 450,
            "midi": 76,
            "name": "E5",
            "ticks": 72480,
            "time": 226.5,
            "velocity": 0.4881889763779528
          },
          {
            "duration": 1.40625,
            "durationTicks": 450,
            "midi": 76,
            "name": "E5",
            "ticks": 72960,
            "time": 228,
            "velocity": 0.5039370078740157
          },
          {
            "duration": 1.40625,
            "durationTicks": 450,
            "midi": 77,
            "name": "F5",
            "ticks": 73440,
            "time": 229.5,
            "velocity": 0.5196850393700787
          },
          {
            "duration": 1.40625,
            "durationTicks": 450,
            "midi": 78,
            "name": "F#5",
            "ticks": 73920,
            "time": 231,
            "velocity": 0.5354330708661418
          },
          {
            "duration": 1.40625,
            "durationTicks": 450,
            "midi": 78,
            "name": "F#5",
            "ticks": 74400,
            "time": 232.5,
            "velocity": 0.5511811023622047
          },
          {
            "duration": 1.40625,
            "durationTicks": 450,
            "midi": 78,
            "name": "F#5",
            "ticks": 74880,
            "time": 234,
            "velocity": 0.5669291338582677
          },
          {
            "duration": 1.40625,
            "durationTicks": 450,
            "midi": 79,
            "name": "G5",
            "ticks": 75360,
            "time": 235.5,
            "velocity": 0.5826771653543307
          },
          {
            "duration": 1.40625,
            "durationTicks": 450,
            "midi": 79,
            "name": "G5",
            "ticks": 75840,
            "time": 237,
            "velocity": 0.5984251968503937
          },
          {
            "duration": 1.40625,
            "durationTicks": 450,
            "midi": 80,
            "name": "G#5",
            "ticks": 76320,
            "time": 238.5,
            "velocity": 0.6141732283464567
          },
          {
            "duration": 1.40625,
            "durationTicks": 450,
            "midi": 81,
            "name": "A5",
            "ticks": 76800,
            "time": 240,
            "velocity": 0.6377952755905512
          },
          {
            "duration": 1.40625,
            "durationTicks": 450,
            "midi": 86,
            "name": "D6",
            "ticks": 77280,
            "time": 241.5,
            "velocity": 0.6299212598425197
          },
          {
            "duration": 1.40625,
            "durationTicks": 450,
            "midi": 86,
            "name": "D6",
            "ticks": 77760,
            "time": 243,
            "velocity": 0.5511811023622047
          },
          {
            "duration": 1.40625,
            "durationTicks": 450,
            "midi": 85,
            "name": "C#6",
            "ticks": 78240,
            "time": 244.5,
            "velocity": 0.5669291338582677
          },
          {
            "duration": 1.40625,
            "durationTicks": 450,
            "midi": 83,
            "name": "B5",
            "ticks": 78720,
            "time": 246,
            "velocity": 0.5826771653543307
          },
          {
            "duration": 2.8125,
            "durationTicks": 900,
            "midi": 81,
            "name": "A5",
            "ticks": 79200,
            "time": 247.5,
            "velocity": 0.5984251968503937
          },
          {
            "duration": 1.40625,
            "durationTicks": 450,
            "midi": 86,
            "name": "D6",
            "ticks": 80160,
            "time": 250.5,
            "velocity": 0.6377952755905512
          },
          {
            "duration": 1.40625,
            "durationTicks": 450,
            "midi": 86,
            "name": "D6",
            "ticks": 80640,
            "time": 252,
            "velocity": 0.6535433070866141
          },
          {
            "duration": 1.40625,
            "durationTicks": 450,
            "midi": 85,
            "name": "C#6",
            "ticks": 81120,
            "time": 253.5,
            "velocity": 0.6692913385826772
          },
          {
            "duration": 1.40625,
            "durationTicks": 450,
            "midi": 83,
            "name": "B5",
            "ticks": 81600,
            "time": 255,
            "velocity": 0.6850393700787402
          },
          {
            "duration": 2.8125,
            "durationTicks": 900,
            "midi": 81,
            "name": "A5",
            "ticks": 82080,
            "time": 256.5,
            "velocity": 0.7007874015748031
          },
          {
            "duration": 1.40625,
            "durationTicks": 450,
            "midi": 90,
            "name": "F#6",
            "ticks": 83040,
            "time": 259.5,
            "velocity": 0.7322834645669292
          },
          {
            "duration": 1.40625,
            "durationTicks": 450,
            "midi": 90,
            "name": "F#6",
            "ticks": 83520,
            "time": 261,
            "velocity": 0.7559055118110236
          },
          {
            "duration": 1.40625,
            "durationTicks": 450,
            "midi": 88,
            "name": "E6",
            "ticks": 84000,
            "time": 262.5,
            "velocity": 0.7716535433070866
          },
          {
            "duration": 1.40625,
            "durationTicks": 450,
            "midi": 91,
            "name": "G6",
            "ticks": 84480,
            "time": 264,
            "velocity": 0.7874015748031497
          },
          {
            "duration": 1.40625,
            "durationTicks": 450,
            "midi": 91,
            "name": "G6",
            "ticks": 84960,
            "time": 265.5,
            "velocity": 0.8031496062992126
          },
          {
            "duration": 1.40625,
            "durationTicks": 450,
            "midi": 90,
            "name": "F#6",
            "ticks": 85440,
            "time": 267,
            "velocity": 0.8188976377952756
          },
          {
            "duration": 1.40625,
            "durationTicks": 450,
            "midi": 93,
            "name": "A6",
            "ticks": 85920,
            "time": 268.5,
            "velocity": 0.8346456692913385
          },
          {
            "duration": 1.40625,
            "durationTicks": 450,
            "midi": 93,
            "name": "A6",
            "ticks": 86400,
            "time": 270,
            "velocity": 0.8503937007874016
          },
          {
            "duration": 1.40625,
            "durationTicks": 450,
            "midi": 91,
            "name": "G6",
            "ticks": 86880,
            "time": 271.5,
            "velocity": 0.8740157480314961
          },
          {
            "duration": 1.40625,
            "durationTicks": 450,
            "midi": 83,
            "name": "B5",
            "ticks": 87360,
            "time": 273,
            "velocity": 0.889763779527559
          },
          {
            "duration": 2.8125,
            "durationTicks": 900,
            "midi": 88,
            "name": "E6",
            "ticks": 87840,
            "time": 274.5,
            "velocity": 0.905511811023622
          },
          {
            "duration": 1.40625,
            "durationTicks": 450,
            "midi": 86,
            "name": "D6",
            "ticks": 88800,
            "time": 277.5,
            "velocity": 0.7874015748031497
          },
          {
            "duration": 1.40625,
            "durationTicks": 450,
            "midi": 86,
            "name": "D6",
            "ticks": 89280,
            "time": 279,
            "velocity": 0.7874015748031497
          },
          {
            "duration": 1.40625,
            "durationTicks": 450,
            "midi": 85,
            "name": "C#6",
            "ticks": 89760,
            "time": 280.5,
            "velocity": 0.7874015748031497
          },
          {
            "duration": 1.40625,
            "durationTicks": 450,
            "midi": 83,
            "name": "B5",
            "ticks": 90240,
            "time": 282,
            "velocity": 0.7874015748031497
          },
          {
            "duration": 2.8125,
            "durationTicks": 900,
            "midi": 81,
            "name": "A5",
            "ticks": 90720,
            "time": 283.5,
            "velocity": 0.7952755905511811
          },
          {
            "duration": 1.40625,
            "durationTicks": 450,
            "midi": 86,
            "name": "D6",
            "ticks": 91680,
            "time": 286.5,
            "velocity": 0.7952755905511811
          },
          {
            "duration": 1.40625,
            "durationTicks": 450,
            "midi": 86,
            "name": "D6",
            "ticks": 92160,
            "time": 288,
            "velocity": 0.7874015748031497
          },
          {
            "duration": 1.40625,
            "durationTicks": 450,
            "midi": 85,
            "name": "C#6",
            "ticks": 92640,
            "time": 289.5,
            "velocity": 0.7874015748031497
          },
          {
            "duration": 1.40625,
            "durationTicks": 450,
            "midi": 83,
            "name": "B5",
            "ticks": 93120,
            "time": 291,
            "velocity": 0.7874015748031497
          },
          {
            "duration": 2.8125,
            "durationTicks": 900,
            "midi": 81,
            "name": "A5",
            "ticks": 93600,
            "time": 292.5,
            "velocity": 0.7952755905511811
          },
          {
            "duration": 1.40625,
            "durationTicks": 450,
            "midi": 86,
            "name": "D6",
            "ticks": 94560,
            "time": 295.5,
            "velocity": 0.7952755905511811
          },
          {
            "duration": 1.40625,
            "durationTicks": 450,
            "midi": 87,
            "name": "D#6",
            "ticks": 95040,
            "time": 297,
            "velocity": 0.7952755905511811
          },
          {
            "duration": 1.40625,
            "durationTicks": 450,
            "midi": 88,
            "name": "E6",
            "ticks": 95520,
            "time": 298.5,
            "velocity": 0.7952755905511811
          },
          {
            "duration": 1.40625,
            "durationTicks": 450,
            "midi": 88,
            "name": "E6",
            "ticks": 96000,
            "time": 300,
            "velocity": 0.7952755905511811
          },
          {
            "duration": 1.40625,
            "durationTicks": 450,
            "midi": 89,
            "name": "F6",
            "ticks": 96480,
            "time": 301.5,
            "velocity": 0.7952755905511811
          },
          {
            "duration": 1.40625,
            "durationTicks": 450,
            "midi": 90,
            "name": "F#6",
            "ticks": 96960,
            "time": 303,
            "velocity": 0.7952755905511811
          },
          {
            "duration": 1.40625,
            "durationTicks": 450,
            "midi": 90,
            "name": "F#6",
            "ticks": 97440,
            "time": 304.5,
            "velocity": 0.7952755905511811
          },
          {
            "duration": 1.40625,
            "durationTicks": 450,
            "midi": 90,
            "name": "F#6",
            "ticks": 97920,
            "time": 306,
            "velocity": 0.7874015748031497
          },
          {
            "duration": 1.40625,
            "durationTicks": 450,
            "midi": 91,
            "name": "G6",
            "ticks": 98400,
            "time": 307.5,
            "velocity": 0.8110236220472441
          },
          {
            "duration": 1.40625,
            "durationTicks": 450,
            "midi": 91,
            "name": "G6",
            "ticks": 98880,
            "time": 309,
            "velocity": 0.8346456692913385
          },
          {
            "duration": 1.40625,
            "durationTicks": 450,
            "midi": 92,
            "name": "G#6",
            "ticks": 99360,
            "time": 310.5,
            "velocity": 0.8582677165354331
          },
          {
            "duration": 1.40625,
            "durationTicks": 450,
            "midi": 93,
            "name": "A6",
            "ticks": 99840,
            "time": 312,
            "velocity": 0.8818897637795275
          },
          {
            "duration": 1.40625,
            "durationTicks": 450,
            "midi": 94,
            "name": "A#6",
            "ticks": 100320,
            "time": 313.5,
            "velocity": 0.905511811023622
          },
          {
            "duration": 5.206250000000011,
            "durationTicks": 1666,
            "midi": 95,
            "name": "B6",
            "ticks": 100800,
            "time": 315,
            "velocity": 1
          },
          {
            "duration": 0.7062500000000114,
            "durationTicks": 226,
            "midi": 93,
            "name": "A6",
            "ticks": 102480,
            "time": 320.25,
            "velocity": 1
          },
          {
            "duration": 0.7062500000000114,
            "durationTicks": 226,
            "midi": 91,
            "name": "G6",
            "ticks": 102720,
            "time": 321,
            "velocity": 1
          },
          {
            "duration": 0.7062500000000114,
            "durationTicks": 226,
            "midi": 90,
            "name": "F#6",
            "ticks": 102960,
            "time": 321.75,
            "velocity": 1
          },
          {
            "duration": 0.7062500000000114,
            "durationTicks": 226,
            "midi": 88,
            "name": "E6",
            "ticks": 103200,
            "time": 322.5,
            "velocity": 1
          },
          {
            "duration": 0.7062500000000114,
            "durationTicks": 226,
            "midi": 86,
            "name": "D6",
            "ticks": 103440,
            "time": 323.25,
            "velocity": 1
          },
          {
            "duration": 5.206250000000011,
            "durationTicks": 1666,
            "midi": 91,
            "name": "G6",
            "ticks": 103680,
            "time": 324,
            "velocity": 1
          },
          {
            "duration": 0.7062500000000114,
            "durationTicks": 226,
            "midi": 90,
            "name": "F#6",
            "ticks": 105360,
            "time": 329.25,
            "velocity": 1
          },
          {
            "duration": 0.7062500000000114,
            "durationTicks": 226,
            "midi": 88,
            "name": "E6",
            "ticks": 105600,
            "time": 330,
            "velocity": 1
          },
          {
            "duration": 0.7062500000000114,
            "durationTicks": 226,
            "midi": 86,
            "name": "D6",
            "ticks": 105840,
            "time": 330.75,
            "velocity": 1
          },
          {
            "duration": 0.7062500000000114,
            "durationTicks": 226,
            "midi": 84,
            "name": "C6",
            "ticks": 106080,
            "time": 331.5,
            "velocity": 1
          },
          {
            "duration": 0.7062500000000114,
            "durationTicks": 226,
            "midi": 83,
            "name": "B5",
            "ticks": 106320,
            "time": 332.25,
            "velocity": 1
          },
          {
            "duration": 5.206250000000011,
            "durationTicks": 1666,
            "midi": 88,
            "name": "E6",
            "ticks": 106560,
            "time": 333,
            "velocity": 1
          },
          {
            "duration": 0.7062500000000114,
            "durationTicks": 226,
            "midi": 86,
            "name": "D6",
            "ticks": 108240,
            "time": 338.25,
            "velocity": 1
          },
          {
            "duration": 0.7062500000000114,
            "durationTicks": 226,
            "midi": 84,
            "name": "C6",
            "ticks": 108480,
            "time": 339,
            "velocity": 1
          },
          {
            "duration": 0.7062500000000114,
            "durationTicks": 226,
            "midi": 83,
            "name": "B5",
            "ticks": 108720,
            "time": 339.75,
            "velocity": 1
          },
          {
            "duration": 0.7062500000000114,
            "durationTicks": 226,
            "midi": 81,
            "name": "A5",
            "ticks": 108960,
            "time": 340.5,
            "velocity": 1
          },
          {
            "duration": 0.7062500000000114,
            "durationTicks": 226,
            "midi": 79,
            "name": "G5",
            "ticks": 109200,
            "time": 341.25,
            "velocity": 1
          },
          {
            "duration": 0.46875,
            "durationTicks": 150,
            "midi": 84,
            "name": "C6",
            "ticks": 109440,
            "time": 342,
            "velocity": 1
          },
          {
            "duration": 0.46875,
            "durationTicks": 150,
            "midi": 83,
            "name": "B5",
            "ticks": 109600,
            "time": 342.5,
            "velocity": 1
          },
          {
            "duration": 0.46875,
            "durationTicks": 150,
            "midi": 81,
            "name": "A5",
            "ticks": 109760,
            "time": 343,
            "velocity": 1
          },
          {
            "duration": 0.46875,
            "durationTicks": 150,
            "midi": 79,
            "name": "G5",
            "ticks": 109920,
            "time": 343.5,
            "velocity": 1
          },
          {
            "duration": 0.46875,
            "durationTicks": 150,
            "midi": 77,
            "name": "F5",
            "ticks": 110080,
            "time": 344,
            "velocity": 1
          },
          {
            "duration": 0.46875,
            "durationTicks": 150,
            "midi": 76,
            "name": "E5",
            "ticks": 110240,
            "time": 344.5,
            "velocity": 1
          },
          {
            "duration": 0.46875,
            "durationTicks": 150,
            "midi": 81,
            "name": "A5",
            "ticks": 110400,
            "time": 345,
            "velocity": 1
          },
          {
            "duration": 0.46875,
            "durationTicks": 150,
            "midi": 79,
            "name": "G5",
            "ticks": 110560,
            "time": 345.5,
            "velocity": 1
          },
          {
            "duration": 0.46875,
            "durationTicks": 150,
            "midi": 77,
            "name": "F5",
            "ticks": 110720,
            "time": 346,
            "velocity": 1
          },
          {
            "duration": 0.46875,
            "durationTicks": 150,
            "midi": 76,
            "name": "E5",
            "ticks": 110880,
            "time": 346.5,
            "velocity": 1
          },
          {
            "duration": 0.46875,
            "durationTicks": 150,
            "midi": 74,
            "name": "D5",
            "ticks": 111040,
            "time": 347,
            "velocity": 1
          },
          {
            "duration": 0.46875,
            "durationTicks": 150,
            "midi": 72,
            "name": "C5",
            "ticks": 111200,
            "time": 347.5,
            "velocity": 1
          },
          {
            "duration": 0.3562500000000455,
            "durationTicks": 114,
            "midi": 79,
            "name": "G5",
            "ticks": 111360,
            "time": 348,
            "velocity": 1
          },
          {
            "duration": 0.3562500000000455,
            "durationTicks": 114,
            "midi": 77,
            "name": "F5",
            "ticks": 111480,
            "time": 348.375,
            "velocity": 1
          },
          {
            "duration": 0.3562500000000455,
            "durationTicks": 114,
            "midi": 76,
            "name": "E5",
            "ticks": 111600,
            "time": 348.75,
            "velocity": 1
          },
          {
            "duration": 0.3562500000000455,
            "durationTicks": 114,
            "midi": 74,
            "name": "D5",
            "ticks": 111720,
            "time": 349.125,
            "velocity": 1
          },
          {
            "duration": 0.3562500000000455,
            "durationTicks": 114,
            "midi": 72,
            "name": "C5",
            "ticks": 111840,
            "time": 349.5,
            "velocity": 1
          },
          {
            "duration": 0.3562500000000455,
            "durationTicks": 114,
            "midi": 71,
            "name": "B4",
            "ticks": 111960,
            "time": 349.875,
            "velocity": 1
          },
          {
            "duration": 0.3562500000000455,
            "durationTicks": 114,
            "midi": 69,
            "name": "A4",
            "ticks": 112080,
            "time": 350.25,
            "velocity": 1
          },
          {
            "duration": 0.3562500000000455,
            "durationTicks": 114,
            "midi": 67,
            "name": "G4",
            "ticks": 112200,
            "time": 350.625,
            "velocity": 1
          },
          {
            "duration": 0.3562500000000455,
            "durationTicks": 114,
            "midi": 76,
            "name": "E5",
            "ticks": 112320,
            "time": 351,
            "velocity": 1
          },
          {
            "duration": 0.3562500000000455,
            "durationTicks": 114,
            "midi": 74,
            "name": "D5",
            "ticks": 112440,
            "time": 351.375,
            "velocity": 1
          },
          {
            "duration": 0.3562500000000455,
            "durationTicks": 114,
            "midi": 72,
            "name": "C5",
            "ticks": 112560,
            "time": 351.75,
            "velocity": 1
          },
          {
            "duration": 0.3562500000000455,
            "durationTicks": 114,
            "midi": 71,
            "name": "B4",
            "ticks": 112680,
            "time": 352.125,
            "velocity": 1
          },
          {
            "duration": 0.3562500000000455,
            "durationTicks": 114,
            "midi": 69,
            "name": "A4",
            "ticks": 112800,
            "time": 352.5,
            "velocity": 1
          },
          {
            "duration": 0.3562500000000455,
            "durationTicks": 114,
            "midi": 67,
            "name": "G4",
            "ticks": 112920,
            "time": 352.875,
            "velocity": 1
          },
          {
            "duration": 0.3562500000000455,
            "durationTicks": 114,
            "midi": 65,
            "name": "F4",
            "ticks": 113040,
            "time": 353.25,
            "velocity": 1
          },
          {
            "duration": 0.3562500000000455,
            "durationTicks": 114,
            "midi": 64,
            "name": "E4",
            "ticks": 113160,
            "time": 353.625,
            "velocity": 1
          },
          {
            "duration": 0.23750000000001137,
            "durationTicks": 76,
            "midi": 72,
            "name": "C5",
            "ticks": 113280,
            "time": 354,
            "velocity": 1
          },
          {
            "duration": 0.23749999999995453,
            "durationTicks": 76,
            "midi": 71,
            "name": "B4",
            "ticks": 113360,
            "time": 354.25,
            "velocity": 1
          },
          {
            "duration": 0.23750000000001137,
            "durationTicks": 76,
            "midi": 69,
            "name": "A4",
            "ticks": 113440,
            "time": 354.5,
            "velocity": 1
          },
          {
            "duration": 0.23750000000001137,
            "durationTicks": 76,
            "midi": 67,
            "name": "G4",
            "ticks": 113520,
            "time": 354.75,
            "velocity": 1
          },
          {
            "duration": 0.23749999999995453,
            "durationTicks": 76,
            "midi": 65,
            "name": "F4",
            "ticks": 113600,
            "time": 355,
            "velocity": 1
          },
          {
            "duration": 0.23750000000001137,
            "durationTicks": 76,
            "midi": 64,
            "name": "E4",
            "ticks": 113680,
            "time": 355.25,
            "velocity": 1
          },
          {
            "duration": 0.23750000000001137,
            "durationTicks": 76,
            "midi": 69,
            "name": "A4",
            "ticks": 113760,
            "time": 355.5,
            "velocity": 1
          },
          {
            "duration": 0.23749999999995453,
            "durationTicks": 76,
            "midi": 67,
            "name": "G4",
            "ticks": 113840,
            "time": 355.75,
            "velocity": 1
          },
          {
            "duration": 0.23750000000001137,
            "durationTicks": 76,
            "midi": 65,
            "name": "F4",
            "ticks": 113920,
            "time": 356,
            "velocity": 1
          },
          {
            "duration": 0.23750000000001137,
            "durationTicks": 76,
            "midi": 64,
            "name": "E4",
            "ticks": 114000,
            "time": 356.25,
            "velocity": 1
          },
          {
            "duration": 0.23749999999995453,
            "durationTicks": 76,
            "midi": 62,
            "name": "D4",
            "ticks": 114080,
            "time": 356.5,
            "velocity": 1
          },
          {
            "duration": 0.23750000000001137,
            "durationTicks": 76,
            "midi": 60,
            "name": "C4",
            "ticks": 114160,
            "time": 356.75,
            "velocity": 1
          },
          {
            "duration": 0.23750000000001137,
            "durationTicks": 76,
            "midi": 64,
            "name": "E4",
            "ticks": 114240,
            "time": 357,
            "velocity": 1
          },
          {
            "duration": 0.23749999999995453,
            "durationTicks": 76,
            "midi": 62,
            "name": "D4",
            "ticks": 114320,
            "time": 357.25,
            "velocity": 1
          },
          {
            "duration": 0.23750000000001137,
            "durationTicks": 76,
            "midi": 60,
            "name": "C4",
            "ticks": 114400,
            "time": 357.5,
            "velocity": 1
          },
          {
            "duration": 0.23750000000001137,
            "durationTicks": 76,
            "midi": 59,
            "name": "B3",
            "ticks": 114480,
            "time": 357.75,
            "velocity": 1
          },
          {
            "duration": 0.23749999999995453,
            "durationTicks": 76,
            "midi": 57,
            "name": "A3",
            "ticks": 114560,
            "time": 358,
            "velocity": 1
          },
          {
            "duration": 0.23750000000001137,
            "durationTicks": 76,
            "midi": 55,
            "name": "G3",
            "ticks": 114640,
            "time": 358.25,
            "velocity": 1
          },
          {
            "duration": 0.7062500000000114,
            "durationTicks": 226,
            "midi": 55,
            "name": "G3",
            "ticks": 115440,
            "time": 360.75,
            "velocity": 1
          },
          {
            "duration": 0.7062500000000114,
            "durationTicks": 226,
            "midi": 64,
            "name": "E4",
            "ticks": 115440,
            "time": 360.75,
            "velocity": 1
          },
          {
            "duration": 0.7062500000000114,
            "durationTicks": 226,
            "midi": 72,
            "name": "C5",
            "ticks": 115440,
            "time": 360.75,
            "velocity": 1
          },
          {
            "duration": 0.7062500000000114,
            "durationTicks": 226,
            "midi": 76,
            "name": "E5",
            "ticks": 115440,
            "time": 360.75,
            "velocity": 1
          },
          {
            "duration": 1.40625,
            "durationTicks": 450,
            "midi": 79,
            "name": "G5",
            "ticks": 119040,
            "time": 372,
            "velocity": 0.9212598425196851
          },
          {
            "duration": 1.40625,
            "durationTicks": 450,
            "midi": 79,
            "name": "G5",
            "ticks": 119520,
            "time": 373.5,
            "velocity": 0.9212598425196851
          },
          {
            "duration": 1.40625,
            "durationTicks": 450,
            "midi": 78,
            "name": "F#5",
            "ticks": 120000,
            "time": 375,
            "velocity": 0.9212598425196851
          },
          {
            "duration": 1.40625,
            "durationTicks": 450,
            "midi": 76,
            "name": "E5",
            "ticks": 120480,
            "time": 376.5,
            "velocity": 0.9212598425196851
          },
          {
            "duration": 1.40625,
            "durationTicks": 450,
            "midi": 74,
            "name": "D5",
            "ticks": 120960,
            "time": 378,
            "velocity": 0.9212598425196851
          },
          {
            "duration": 1.40625,
            "durationTicks": 450,
            "midi": 74,
            "name": "D5",
            "ticks": 121920,
            "time": 381,
            "velocity": 0.9212598425196851
          },
          {
            "duration": 1.40625,
            "durationTicks": 450,
            "midi": 74,
            "name": "D5",
            "ticks": 122400,
            "time": 382.5,
            "velocity": 0.8661417322834646
          },
          {
            "duration": 1.40625,
            "durationTicks": 450,
            "midi": 73,
            "name": "C#5",
            "ticks": 122880,
            "time": 384,
            "velocity": 0.8661417322834646
          },
          {
            "duration": 1.40625,
            "durationTicks": 450,
            "midi": 71,
            "name": "B4",
            "ticks": 123360,
            "time": 385.5,
            "velocity": 0.8661417322834646
          },
          {
            "duration": 1.40625,
            "durationTicks": 450,
            "midi": 69,
            "name": "A4",
            "ticks": 123840,
            "time": 387,
            "velocity": 0.8661417322834646
          },
          {
            "duration": 0.7062500000000682,
            "durationTicks": 226,
            "midi": 69,
            "name": "A4",
            "ticks": 125040,
            "time": 390.75,
            "velocity": 0.8661417322834646
          },
          {
            "duration": 1.40625,
            "durationTicks": 450,
            "midi": 67,
            "name": "G4",
            "ticks": 125280,
            "time": 391.5,
            "velocity": 0.8661417322834646
          },
          {
            "duration": 0.7062500000000682,
            "durationTicks": 226,
            "midi": 67,
            "name": "G4",
            "ticks": 126480,
            "time": 395.25,
            "velocity": 0.5905511811023622
          },
          {
            "duration": 1.40625,
            "durationTicks": 450,
            "midi": 66,
            "name": "F#4",
            "ticks": 126720,
            "time": 396,
            "velocity": 0.5905511811023622
          },
          {
            "duration": 3.3562500000000455,
            "durationTicks": 1074,
            "midi": 66,
            "name": "F#4",
            "ticks": 127680,
            "time": 399,
            "velocity": 0.5905511811023622
          },
          {
            "duration": 0.3562500000000455,
            "durationTicks": 114,
            "midi": 66,
            "name": "F#4",
            "ticks": 128760,
            "time": 402.375,
            "velocity": 0.6141732283464567
          },
          {
            "duration": 0.3562500000000455,
            "durationTicks": 114,
            "midi": 67,
            "name": "G4",
            "ticks": 128880,
            "time": 402.75,
            "velocity": 0.6377952755905512
          },
          {
            "duration": 0.3562500000000455,
            "durationTicks": 114,
            "midi": 70,
            "name": "A#4",
            "ticks": 129000,
            "time": 403.125,
            "velocity": 0.6614173228346457
          },
          {
            "duration": 0.3562500000000455,
            "durationTicks": 114,
            "midi": 71,
            "name": "B4",
            "ticks": 129120,
            "time": 403.5,
            "velocity": 0.6929133858267716
          },
          {
            "duration": 0.3562500000000455,
            "durationTicks": 114,
            "midi": 73,
            "name": "C#5",
            "ticks": 129240,
            "time": 403.875,
            "velocity": 0.7165354330708661
          },
          {
            "duration": 0.3562500000000455,
            "durationTicks": 114,
            "midi": 74,
            "name": "D5",
            "ticks": 129360,
            "time": 404.25,
            "velocity": 0.7401574803149606
          },
          {
            "duration": 0.3562500000000455,
            "durationTicks": 114,
            "midi": 76,
            "name": "E5",
            "ticks": 129480,
            "time": 404.625,
            "velocity": 0.7637795275590551
          },
          {
            "duration": 1.40625,
            "durationTicks": 450,
            "midi": 78,
            "name": "F#5",
            "ticks": 129600,
            "time": 405,
            "velocity": 0.8661417322834646
          },
          {
            "duration": 0.7062500000000682,
            "durationTicks": 226,
            "midi": 76,
            "name": "E5",
            "ticks": 130080,
            "time": 406.5,
            "velocity": 0.8661417322834646
          },
          {
            "duration": 0.7062500000000682,
            "durationTicks": 226,
            "midi": 74,
            "name": "D5",
            "ticks": 130320,
            "time": 407.25,
            "velocity": 0.8661417322834646
          },
          {
            "duration": 1.0562499999999773,
            "durationTicks": 338,
            "midi": 73,
            "name": "C#5",
            "ticks": 130560,
            "time": 408,
            "velocity": 0.8582677165354331
          },
          {
            "duration": 0.3562500000000455,
            "durationTicks": 114,
            "midi": 71,
            "name": "B4",
            "ticks": 130920,
            "time": 409.125,
            "velocity": 0.8110236220472441
          },
          {
            "duration": 3.706250000000068,
            "durationTicks": 1186,
            "midi": 73,
            "name": "C#5",
            "ticks": 131040,
            "time": 409.5,
            "velocity": 0.7086614173228346
          },
          {
            "duration": 1.40625,
            "durationTicks": 450,
            "midi": 78,
            "name": "F#5",
            "ticks": 132480,
            "time": 414,
            "velocity": 0.8661417322834646
          },
          {
            "duration": 0.7062500000000682,
            "durationTicks": 226,
            "midi": 76,
            "name": "E5",
            "ticks": 132960,
            "time": 415.5,
            "velocity": 0.8661417322834646
          },
          {
            "duration": 0.7062500000000682,
            "durationTicks": 226,
            "midi": 74,
            "name": "D5",
            "ticks": 133200,
            "time": 416.25,
            "velocity": 0.8661417322834646
          },
          {
            "duration": 1.0562499999999773,
            "durationTicks": 338,
            "midi": 73,
            "name": "C#5",
            "ticks": 133440,
            "time": 417,
            "velocity": 0.8582677165354331
          },
          {
            "duration": 0.3562500000000455,
            "durationTicks": 114,
            "midi": 71,
            "name": "B4",
            "ticks": 133800,
            "time": 418.125,
            "velocity": 0.8110236220472441
          },
          {
            "duration": 0.7062500000000682,
            "durationTicks": 226,
            "midi": 74,
            "name": "D5",
            "ticks": 133920,
            "time": 418.5,
            "velocity": 0.7480314960629921
          },
          {
            "duration": 2.956250000000068,
            "durationTicks": 946,
            "midi": 73,
            "name": "C#5",
            "ticks": 134160,
            "time": 419.25,
            "velocity": 0.7480314960629921
          },
          {
            "duration": 2.956250000000068,
            "durationTicks": 946,
            "midi": 67,
            "name": "G4",
            "ticks": 135360,
            "time": 423,
            "velocity": 0.5275590551181102
          },
          {
            "duration": 1.0562499999999773,
            "durationTicks": 338,
            "midi": 67,
            "name": "G4",
            "ticks": 136320,
            "time": 426,
            "velocity": 0.5275590551181102
          },
          {
            "duration": 0.3562500000000455,
            "durationTicks": 114,
            "midi": 69,
            "name": "A4",
            "ticks": 136680,
            "time": 427.125,
            "velocity": 0.5275590551181102
          },
          {
            "duration": 3.599999999999966,
            "durationTicks": 1152,
            "midi": 66,
            "name": "F#4",
            "ticks": 136800,
            "time": 427.5,
            "velocity": 0.49606299212598426
          },
          {
            "duration": 2.956250000000068,
            "durationTicks": 946,
            "midi": 64,
            "name": "E4",
            "ticks": 138240,
            "time": 432,
            "velocity": 0.5275590551181102
          },
          {
            "duration": 1.0562499999999773,
            "durationTicks": 338,
            "midi": 64,
            "name": "E4",
            "ticks": 139200,
            "time": 435,
            "velocity": 0.5275590551181102
          },
          {
            "duration": 0.3562500000000455,
            "durationTicks": 114,
            "midi": 66,
            "name": "F#4",
            "ticks": 139560,
            "time": 436.125,
            "velocity": 0.5275590551181102
          },
          {
            "duration": 3.599999999999966,
            "durationTicks": 1152,
            "midi": 62,
            "name": "D4",
            "ticks": 139680,
            "time": 436.5,
            "velocity": 0.49606299212598426
          },
          {
            "duration": 2.8125,
            "durationTicks": 900,
            "midi": 62,
            "name": "D4",
            "ticks": 141120,
            "time": 441,
            "velocity": 0.6299212598425197
          },
          {
            "duration": 1.40625,
            "durationTicks": 450,
            "midi": 64,
            "name": "E4",
            "ticks": 142080,
            "time": 444,
            "velocity": 0.6299212598425197
          },
          {
            "duration": 4.21875,
            "durationTicks": 1350,
            "midi": 66,
            "name": "F#4",
            "ticks": 142560,
            "time": 445.5,
            "velocity": 0.6299212598425197
          },
          {
            "duration": 1.40625,
            "durationTicks": 450,
            "midi": 66,
            "name": "F#4",
            "ticks": 144000,
            "time": 450,
            "velocity": 0.7874015748031497
          },
          {
            "duration": 2.8125,
            "durationTicks": 900,
            "midi": 64,
            "name": "E4",
            "ticks": 144480,
            "time": 451.5,
            "velocity": 0.8267716535433071
          },
          {
            "duration": 8.206250000000068,
            "durationTicks": 2626,
            "midi": 73,
            "name": "C#5",
            "ticks": 145440,
            "time": 454.5,
            "velocity": 0.8661417322834646
          },
          {
            "duration": 0.2375000000000682,
            "durationTicks": 76,
            "midi": 61,
            "name": "C#4",
            "ticks": 148560,
            "time": 464.25,
            "velocity": 0.6692913385826772
          },
          {
            "duration": 0.23749999999995453,
            "durationTicks": 76,
            "midi": 62,
            "name": "D4",
            "ticks": 148640,
            "time": 464.5,
            "velocity": 0.6850393700787402
          },
          {
            "duration": 0.23750000000001137,
            "durationTicks": 76,
            "midi": 64,
            "name": "E4",
            "ticks": 148720,
            "time": 464.75,
            "velocity": 0.6929133858267716
          },
          {
            "duration": 0.2375000000000682,
            "durationTicks": 76,
            "midi": 66,
            "name": "F#4",
            "ticks": 148800,
            "time": 465,
            "velocity": 0.7086614173228346
          },
          {
            "duration": 0.23749999999995453,
            "durationTicks": 76,
            "midi": 67,
            "name": "G4",
            "ticks": 148880,
            "time": 465.25,
            "velocity": 0.7244094488188977
          },
          {
            "duration": 0.23750000000001137,
            "durationTicks": 76,
            "midi": 68,
            "name": "G#4",
            "ticks": 148960,
            "time": 465.5,
            "velocity": 0.7322834645669292
          },
          {
            "duration": 0.2375000000000682,
            "durationTicks": 76,
            "midi": 69,
            "name": "A4",
            "ticks": 149040,
            "time": 465.75,
            "velocity": 0.7480314960629921
          },
          {
            "duration": 0.23749999999995453,
            "durationTicks": 76,
            "midi": 70,
            "name": "A#4",
            "ticks": 149120,
            "time": 466,
            "velocity": 0.7637795275590551
          },
          {
            "duration": 0.23750000000001137,
            "durationTicks": 76,
            "midi": 71,
            "name": "B4",
            "ticks": 149200,
            "time": 466.25,
            "velocity": 0.7716535433070866
          },
          {
            "duration": 0.2375000000000682,
            "durationTicks": 76,
            "midi": 72,
            "name": "C5",
            "ticks": 149280,
            "time": 466.5,
            "velocity": 0.7874015748031497
          },
          {
            "duration": 0.23749999999995453,
            "durationTicks": 76,
            "midi": 73,
            "name": "C#5",
            "ticks": 149360,
            "time": 466.75,
            "velocity": 0.8031496062992126
          },
          {
            "duration": 0.23750000000001137,
            "durationTicks": 76,
            "midi": 74,
            "name": "D5",
            "ticks": 149440,
            "time": 467,
            "velocity": 0.8110236220472441
          },
          {
            "duration": 0.2375000000000682,
            "durationTicks": 76,
            "midi": 75,
            "name": "D#5",
            "ticks": 149520,
            "time": 467.25,
            "velocity": 0.8267716535433071
          },
          {
            "duration": 0.23749999999995453,
            "durationTicks": 76,
            "midi": 76,
            "name": "E5",
            "ticks": 149600,
            "time": 467.5,
            "velocity": 0.84251968503937
          },
          {
            "duration": 0.23750000000001137,
            "durationTicks": 76,
            "midi": 77,
            "name": "F5",
            "ticks": 149680,
            "time": 467.75,
            "velocity": 0.8503937007874016
          },
          {
            "duration": 1.40625,
            "durationTicks": 450,
            "midi": 78,
            "name": "F#5",
            "ticks": 149760,
            "time": 468,
            "velocity": 0.8661417322834646
          },
          {
            "duration": 0.7062500000000682,
            "durationTicks": 226,
            "midi": 76,
            "name": "E5",
            "ticks": 150240,
            "time": 469.5,
            "velocity": 0.8661417322834646
          },
          {
            "duration": 0.7062500000000682,
            "durationTicks": 226,
            "midi": 74,
            "name": "D5",
            "ticks": 150480,
            "time": 470.25,
            "velocity": 0.8661417322834646
          },
          {
            "duration": 1.0562499999999773,
            "durationTicks": 338,
            "midi": 73,
            "name": "C#5",
            "ticks": 150720,
            "time": 471,
            "velocity": 0.8582677165354331
          },
          {
            "duration": 0.3562500000000455,
            "durationTicks": 114,
            "midi": 71,
            "name": "B4",
            "ticks": 151080,
            "time": 472.125,
            "velocity": 0.8110236220472441
          },
          {
            "duration": 3.706250000000068,
            "durationTicks": 1186,
            "midi": 73,
            "name": "C#5",
            "ticks": 151200,
            "time": 472.5,
            "velocity": 0.7086614173228346
          },
          {
            "duration": 1.40625,
            "durationTicks": 450,
            "midi": 78,
            "name": "F#5",
            "ticks": 152640,
            "time": 477,
            "velocity": 0.8661417322834646
          },
          {
            "duration": 0.7062500000000682,
            "durationTicks": 226,
            "midi": 76,
            "name": "E5",
            "ticks": 153120,
            "time": 478.5,
            "velocity": 0.8661417322834646
          },
          {
            "duration": 0.7062500000000682,
            "durationTicks": 226,
            "midi": 74,
            "name": "D5",
            "ticks": 153360,
            "time": 479.25,
            "velocity": 0.8661417322834646
          },
          {
            "duration": 1.0562499999999773,
            "durationTicks": 338,
            "midi": 73,
            "name": "C#5",
            "ticks": 153600,
            "time": 480,
            "velocity": 0.8582677165354331
          },
          {
            "duration": 0.3562500000000455,
            "durationTicks": 114,
            "midi": 71,
            "name": "B4",
            "ticks": 153960,
            "time": 481.125,
            "velocity": 0.8110236220472441
          },
          {
            "duration": 0.7062500000000682,
            "durationTicks": 226,
            "midi": 74,
            "name": "D5",
            "ticks": 154080,
            "time": 481.5,
            "velocity": 0.7480314960629921
          },
          {
            "duration": 2.956250000000068,
            "durationTicks": 946,
            "midi": 73,
            "name": "C#5",
            "ticks": 154320,
            "time": 482.25,
            "velocity": 0.7480314960629921
          },
          {
            "duration": 1.40625,
            "durationTicks": 450,
            "midi": 79,
            "name": "G5",
            "ticks": 155520,
            "time": 486,
            "velocity": 0.7086614173228346
          },
          {
            "duration": 0.7062500000000682,
            "durationTicks": 226,
            "midi": 78,
            "name": "F#5",
            "ticks": 156000,
            "time": 487.5,
            "velocity": 0.7086614173228346
          },
          {
            "duration": 0.7062500000000682,
            "durationTicks": 226,
            "midi": 76,
            "name": "E5",
            "ticks": 156240,
            "time": 488.25,
            "velocity": 0.7086614173228346
          },
          {
            "duration": 0.7062500000000682,
            "durationTicks": 226,
            "midi": 74,
            "name": "D5",
            "ticks": 156480,
            "time": 489,
            "velocity": 0.7086614173228346
          },
          {
            "duration": 0.7062500000000682,
            "durationTicks": 226,
            "midi": 73,
            "name": "C#5",
            "ticks": 156720,
            "time": 489.75,
            "velocity": 0.7086614173228346
          },
          {
            "duration": 1.40625,
            "durationTicks": 450,
            "midi": 81,
            "name": "A5",
            "ticks": 156960,
            "time": 490.5,
            "velocity": 0.7086614173228346
          },
          {
            "duration": 1.0562499999999773,
            "durationTicks": 338,
            "midi": 79,
            "name": "G5",
            "ticks": 157440,
            "time": 492,
            "velocity": 0.7086614173228346
          },
          {
            "duration": 0.3562500000000455,
            "durationTicks": 114,
            "midi": 78,
            "name": "F#5",
            "ticks": 157800,
            "time": 493.125,
            "velocity": 0.7086614173228346
          },
          {
            "duration": 0.7062500000000682,
            "durationTicks": 226,
            "midi": 76,
            "name": "E5",
            "ticks": 157920,
            "time": 493.5,
            "velocity": 0.7086614173228346
          },
          {
            "duration": 0.7062500000000682,
            "durationTicks": 226,
            "midi": 75,
            "name": "D#5",
            "ticks": 158160,
            "time": 494.25,
            "velocity": 0.7086614173228346
          },
          {
            "duration": 1.40625,
            "durationTicks": 450,
            "midi": 84,
            "name": "C6",
            "ticks": 158400,
            "time": 495,
            "velocity": 0.6220472440944882
          },
          {
            "duration": 1.0562499999999773,
            "durationTicks": 338,
            "midi": 83,
            "name": "B5",
            "ticks": 158880,
            "time": 496.5,
            "velocity": 0.6456692913385826
          },
          {
            "duration": 0.3562500000000455,
            "durationTicks": 114,
            "midi": 81,
            "name": "A5",
            "ticks": 159240,
            "time": 497.625,
            "velocity": 0.6614173228346457
          },
          {
            "duration": 0.7062500000000682,
            "durationTicks": 226,
            "midi": 79,
            "name": "G5",
            "ticks": 159360,
            "time": 498,
            "velocity": 0.6692913385826772
          },
          {
            "duration": 0.7062500000000682,
            "durationTicks": 226,
            "midi": 78,
            "name": "F#5",
            "ticks": 159600,
            "time": 498.75,
            "velocity": 0.6771653543307087
          },
          {
            "duration": 1.40625,
            "durationTicks": 450,
            "midi": 86,
            "name": "D6",
            "ticks": 159840,
            "time": 499.5,
            "velocity": 0.6929133858267716
          },
          {
            "duration": 1.0562499999999773,
            "durationTicks": 338,
            "midi": 84,
            "name": "C6",
            "ticks": 160320,
            "time": 501,
            "velocity": 0.7165354330708661
          },
          {
            "duration": 0.3562500000000455,
            "durationTicks": 114,
            "midi": 83,
            "name": "B5",
            "ticks": 160680,
            "time": 502.125,
            "velocity": 0.7322834645669292
          },
          {
            "duration": 0.7062500000000682,
            "durationTicks": 226,
            "midi": 81,
            "name": "A5",
            "ticks": 160800,
            "time": 502.5,
            "velocity": 0.7322834645669292
          },
          {
            "duration": 0.7062500000000682,
            "durationTicks": 226,
            "midi": 80,
            "name": "G#5",
            "ticks": 161040,
            "time": 503.25,
            "velocity": 0.7480314960629921
          },
          {
            "duration": 0.7062500000000682,
            "durationTicks": 226,
            "midi": 88,
            "name": "E6",
            "ticks": 161280,
            "time": 504,
            "velocity": 0.7559055118110236
          },
          {
            "duration": 0.7062500000000682,
            "durationTicks": 226,
            "midi": 86,
            "name": "D6",
            "ticks": 161520,
            "time": 504.75,
            "velocity": 0.7637795275590551
          },
          {
            "duration": 0.7062500000000682,
            "durationTicks": 226,
            "midi": 84,
            "name": "C6",
            "ticks": 161760,
            "time": 505.5,
            "velocity": 0.7795275590551181
          },
          {
            "duration": 0.7062500000000682,
            "durationTicks": 226,
            "midi": 83,
            "name": "B5",
            "ticks": 162000,
            "time": 506.25,
            "velocity": 0.7874015748031497
          },
          {
            "duration": 0.7062500000000682,
            "durationTicks": 226,
            "midi": 89,
            "name": "F6",
            "ticks": 162240,
            "time": 507,
            "velocity": 0.8031496062992126
          },
          {
            "duration": 0.7062500000000682,
            "durationTicks": 226,
            "midi": 88,
            "name": "E6",
            "ticks": 162480,
            "time": 507.75,
            "velocity": 0.8110236220472441
          },
          {
            "duration": 0.7062500000000682,
            "durationTicks": 226,
            "midi": 86,
            "name": "D6",
            "ticks": 162720,
            "time": 508.5,
            "velocity": 0.8188976377952756
          },
          {
            "duration": 0.7062500000000682,
            "durationTicks": 226,
            "midi": 84,
            "name": "C6",
            "ticks": 162960,
            "time": 509.25,
            "velocity": 0.8346456692913385
          },
          {
            "duration": 0.3562500000000455,
            "durationTicks": 114,
            "midi": 91,
            "name": "G6",
            "ticks": 163200,
            "time": 510,
            "velocity": 0.84251968503937
          },
          {
            "duration": 0.3562500000000455,
            "durationTicks": 114,
            "midi": 91,
            "name": "G6",
            "ticks": 163320,
            "time": 510.375,
            "velocity": 0.8503937007874016
          },
          {
            "duration": 0.3562500000000455,
            "durationTicks": 114,
            "midi": 89,
            "name": "F6",
            "ticks": 163440,
            "time": 510.75,
            "velocity": 0.8503937007874016
          },
          {
            "duration": 0.3562500000000455,
            "durationTicks": 114,
            "midi": 89,
            "name": "F6",
            "ticks": 163560,
            "time": 511.125,
            "velocity": 0.8582677165354331
          },
          {
            "duration": 0.3562500000000455,
            "durationTicks": 114,
            "midi": 88,
            "name": "E6",
            "ticks": 163680,
            "time": 511.5,
            "velocity": 0.8661417322834646
          },
          {
            "duration": 0.3562500000000455,
            "durationTicks": 114,
            "midi": 88,
            "name": "E6",
            "ticks": 163800,
            "time": 511.875,
            "velocity": 0.8740157480314961
          },
          {
            "duration": 0.3562500000000455,
            "durationTicks": 114,
            "midi": 86,
            "name": "D6",
            "ticks": 163920,
            "time": 512.25,
            "velocity": 0.8740157480314961
          },
          {
            "duration": 0.3562500000000455,
            "durationTicks": 114,
            "midi": 86,
            "name": "D6",
            "ticks": 164040,
            "time": 512.625,
            "velocity": 0.8818897637795275
          },
          {
            "duration": 0.3562500000000455,
            "durationTicks": 114,
            "midi": 93,
            "name": "A6",
            "ticks": 164160,
            "time": 513,
            "velocity": 0.889763779527559
          },
          {
            "duration": 0.3562500000000455,
            "durationTicks": 114,
            "midi": 93,
            "name": "A6",
            "ticks": 164280,
            "time": 513.375,
            "velocity": 0.889763779527559
          },
          {
            "duration": 0.3562500000000455,
            "durationTicks": 114,
            "midi": 91,
            "name": "G6",
            "ticks": 164400,
            "time": 513.75,
            "velocity": 0.8976377952755905
          },
          {
            "duration": 0.3562500000000455,
            "durationTicks": 114,
            "midi": 91,
            "name": "G6",
            "ticks": 164520,
            "time": 514.125,
            "velocity": 0.905511811023622
          },
          {
            "duration": 0.3562500000000455,
            "durationTicks": 114,
            "midi": 89,
            "name": "F6",
            "ticks": 164640,
            "time": 514.5,
            "velocity": 0.905511811023622
          },
          {
            "duration": 0.3562500000000455,
            "durationTicks": 114,
            "midi": 89,
            "name": "F6",
            "ticks": 164760,
            "time": 514.875,
            "velocity": 0.9133858267716536
          },
          {
            "duration": 0.3562500000000455,
            "durationTicks": 114,
            "midi": 88,
            "name": "E6",
            "ticks": 164880,
            "time": 515.25,
            "velocity": 0.9212598425196851
          },
          {
            "duration": 0.3562500000000455,
            "durationTicks": 114,
            "midi": 88,
            "name": "E6",
            "ticks": 165000,
            "time": 515.625,
            "velocity": 0.9212598425196851
          },
          {
            "duration": 0.2375000000000682,
            "durationTicks": 76,
            "midi": 94,
            "name": "A#6",
            "ticks": 165120,
            "time": 516,
            "velocity": 0.9606299212598425
          },
          {
            "duration": 0.23749999999995453,
            "durationTicks": 76,
            "midi": 94,
            "name": "A#6",
            "ticks": 165200,
            "time": 516.25,
            "velocity": 0.9606299212598425
          },
          {
            "duration": 0.23749999999995453,
            "durationTicks": 76,
            "midi": 94,
            "name": "A#6",
            "ticks": 165280,
            "time": 516.5,
            "velocity": 0.9606299212598425
          },
          {
            "duration": 0.2375000000000682,
            "durationTicks": 76,
            "midi": 93,
            "name": "A6",
            "ticks": 165360,
            "time": 516.75,
            "velocity": 0.9606299212598425
          },
          {
            "duration": 0.23749999999995453,
            "durationTicks": 76,
            "midi": 93,
            "name": "A6",
            "ticks": 165440,
            "time": 517,
            "velocity": 0.9606299212598425
          },
          {
            "duration": 0.23749999999995453,
            "durationTicks": 76,
            "midi": 93,
            "name": "A6",
            "ticks": 165520,
            "time": 517.25,
            "velocity": 0.9606299212598425
          },
          {
            "duration": 0.2375000000000682,
            "durationTicks": 76,
            "midi": 91,
            "name": "G6",
            "ticks": 165600,
            "time": 517.5,
            "velocity": 0.9606299212598425
          },
          {
            "duration": 0.23749999999995453,
            "durationTicks": 76,
            "midi": 91,
            "name": "G6",
            "ticks": 165680,
            "time": 517.75,
            "velocity": 0.9606299212598425
          },
          {
            "duration": 0.23749999999995453,
            "durationTicks": 76,
            "midi": 91,
            "name": "G6",
            "ticks": 165760,
            "time": 518,
            "velocity": 0.9606299212598425
          },
          {
            "duration": 0.2375000000000682,
            "durationTicks": 76,
            "midi": 89,
            "name": "F6",
            "ticks": 165840,
            "time": 518.25,
            "velocity": 0.9606299212598425
          },
          {
            "duration": 0.23749999999995453,
            "durationTicks": 76,
            "midi": 89,
            "name": "F6",
            "ticks": 165920,
            "time": 518.5,
            "velocity": 0.9606299212598425
          },
          {
            "duration": 0.23749999999995453,
            "durationTicks": 76,
            "midi": 89,
            "name": "F6",
            "ticks": 166000,
            "time": 518.75,
            "velocity": 0.9606299212598425
          },
          {
            "duration": 0.2375000000000682,
            "durationTicks": 76,
            "midi": 96,
            "name": "C7",
            "ticks": 166080,
            "time": 519,
            "velocity": 0.9606299212598425
          },
          {
            "duration": 0.23749999999995453,
            "durationTicks": 76,
            "midi": 96,
            "name": "C7",
            "ticks": 166160,
            "time": 519.25,
            "velocity": 0.9606299212598425
          },
          {
            "duration": 0.23749999999995453,
            "durationTicks": 76,
            "midi": 96,
            "name": "C7",
            "ticks": 166240,
            "time": 519.5,
            "velocity": 0.9606299212598425
          },
          {
            "duration": 0.2375000000000682,
            "durationTicks": 76,
            "midi": 95,
            "name": "B6",
            "ticks": 166320,
            "time": 519.75,
            "velocity": 0.9606299212598425
          },
          {
            "duration": 0.23749999999995453,
            "durationTicks": 76,
            "midi": 95,
            "name": "B6",
            "ticks": 166400,
            "time": 520,
            "velocity": 0.9606299212598425
          },
          {
            "duration": 0.23749999999995453,
            "durationTicks": 76,
            "midi": 95,
            "name": "B6",
            "ticks": 166480,
            "time": 520.25,
            "velocity": 0.9606299212598425
          },
          {
            "duration": 0.2375000000000682,
            "durationTicks": 76,
            "midi": 93,
            "name": "A6",
            "ticks": 166560,
            "time": 520.5,
            "velocity": 0.9606299212598425
          },
          {
            "duration": 0.23749999999995453,
            "durationTicks": 76,
            "midi": 93,
            "name": "A6",
            "ticks": 166640,
            "time": 520.75,
            "velocity": 0.9606299212598425
          },
          {
            "duration": 0.23749999999995453,
            "durationTicks": 76,
            "midi": 93,
            "name": "A6",
            "ticks": 166720,
            "time": 521,
            "velocity": 0.9606299212598425
          },
          {
            "duration": 0.2375000000000682,
            "durationTicks": 76,
            "midi": 92,
            "name": "G#6",
            "ticks": 166800,
            "time": 521.25,
            "velocity": 0.9606299212598425
          },
          {
            "duration": 0.23749999999995453,
            "durationTicks": 76,
            "midi": 92,
            "name": "G#6",
            "ticks": 166880,
            "time": 521.5,
            "velocity": 0.9606299212598425
          },
          {
            "duration": 0.23749999999995453,
            "durationTicks": 76,
            "midi": 92,
            "name": "G#6",
            "ticks": 166960,
            "time": 521.75,
            "velocity": 0.9606299212598425
          },
          {
            "duration": 0.18124999999997726,
            "durationTicks": 58,
            "midi": 95,
            "name": "B6",
            "ticks": 167040,
            "time": 522,
            "velocity": 1
          },
          {
            "duration": 0.18124999999997726,
            "durationTicks": 58,
            "midi": 95,
            "name": "B6",
            "ticks": 167100,
            "time": 522.1875,
            "velocity": 1
          },
          {
            "duration": 0.18124999999997726,
            "durationTicks": 58,
            "midi": 95,
            "name": "B6",
            "ticks": 167160,
            "time": 522.375,
            "velocity": 1
          },
          {
            "duration": 0.18124999999997726,
            "durationTicks": 58,
            "midi": 95,
            "name": "B6",
            "ticks": 167220,
            "time": 522.5625,
            "velocity": 1
          },
          {
            "duration": 0.18124999999997726,
            "durationTicks": 58,
            "midi": 95,
            "name": "B6",
            "ticks": 167280,
            "time": 522.75,
            "velocity": 1
          },
          {
            "duration": 0.18124999999997726,
            "durationTicks": 58,
            "midi": 95,
            "name": "B6",
            "ticks": 167340,
            "time": 522.9375,
            "velocity": 1
          },
          {
            "duration": 0.18124999999997726,
            "durationTicks": 58,
            "midi": 95,
            "name": "B6",
            "ticks": 167400,
            "time": 523.125,
            "velocity": 1
          },
          {
            "duration": 0.18124999999997726,
            "durationTicks": 58,
            "midi": 95,
            "name": "B6",
            "ticks": 167460,
            "time": 523.3125,
            "velocity": 1
          },
          {
            "duration": 0.18124999999997726,
            "durationTicks": 58,
            "midi": 95,
            "name": "B6",
            "ticks": 167520,
            "time": 523.5,
            "velocity": 1
          },
          {
            "duration": 0.18124999999997726,
            "durationTicks": 58,
            "midi": 95,
            "name": "B6",
            "ticks": 167580,
            "time": 523.6875,
            "velocity": 1
          },
          {
            "duration": 0.18124999999997726,
            "durationTicks": 58,
            "midi": 95,
            "name": "B6",
            "ticks": 167640,
            "time": 523.875,
            "velocity": 1
          },
          {
            "duration": 0.18124999999997726,
            "durationTicks": 58,
            "midi": 95,
            "name": "B6",
            "ticks": 167700,
            "time": 524.0625,
            "velocity": 1
          },
          {
            "duration": 0.18124999999997726,
            "durationTicks": 58,
            "midi": 95,
            "name": "B6",
            "ticks": 167760,
            "time": 524.25,
            "velocity": 1
          },
          {
            "duration": 0.18124999999997726,
            "durationTicks": 58,
            "midi": 95,
            "name": "B6",
            "ticks": 167820,
            "time": 524.4375,
            "velocity": 1
          },
          {
            "duration": 0.18124999999997726,
            "durationTicks": 58,
            "midi": 95,
            "name": "B6",
            "ticks": 167880,
            "time": 524.625,
            "velocity": 1
          },
          {
            "duration": 0.18124999999997726,
            "durationTicks": 58,
            "midi": 95,
            "name": "B6",
            "ticks": 167940,
            "time": 524.8125,
            "velocity": 1
          },
          {
            "duration": 0.18124999999997726,
            "durationTicks": 58,
            "midi": 93,
            "name": "A6",
            "ticks": 168000,
            "time": 525,
            "velocity": 1
          },
          {
            "duration": 0.18124999999997726,
            "durationTicks": 58,
            "midi": 93,
            "name": "A6",
            "ticks": 168060,
            "time": 525.1875,
            "velocity": 1
          },
          {
            "duration": 0.18124999999997726,
            "durationTicks": 58,
            "midi": 93,
            "name": "A6",
            "ticks": 168120,
            "time": 525.375,
            "velocity": 1
          },
          {
            "duration": 0.18124999999997726,
            "durationTicks": 58,
            "midi": 93,
            "name": "A6",
            "ticks": 168180,
            "time": 525.5625,
            "velocity": 1
          },
          {
            "duration": 0.18124999999997726,
            "durationTicks": 58,
            "midi": 93,
            "name": "A6",
            "ticks": 168240,
            "time": 525.75,
            "velocity": 1
          },
          {
            "duration": 0.18124999999997726,
            "durationTicks": 58,
            "midi": 93,
            "name": "A6",
            "ticks": 168300,
            "time": 525.9375,
            "velocity": 1
          },
          {
            "duration": 0.18124999999997726,
            "durationTicks": 58,
            "midi": 93,
            "name": "A6",
            "ticks": 168360,
            "time": 526.125,
            "velocity": 1
          },
          {
            "duration": 0.18124999999997726,
            "durationTicks": 58,
            "midi": 93,
            "name": "A6",
            "ticks": 168420,
            "time": 526.3125,
            "velocity": 1
          },
          {
            "duration": 0.2375000000000682,
            "durationTicks": 76,
            "midi": 93,
            "name": "A6",
            "ticks": 168960,
            "time": 528,
            "velocity": 0.9606299212598425
          },
          {
            "duration": 0.23749999999995453,
            "durationTicks": 76,
            "midi": 93,
            "name": "A6",
            "ticks": 169040,
            "time": 528.25,
            "velocity": 0.9606299212598425
          },
          {
            "duration": 0.23749999999995453,
            "durationTicks": 76,
            "midi": 93,
            "name": "A6",
            "ticks": 169120,
            "time": 528.5,
            "velocity": 0.9606299212598425
          },
          {
            "duration": 0.2375000000000682,
            "durationTicks": 76,
            "midi": 91,
            "name": "G6",
            "ticks": 169200,
            "time": 528.75,
            "velocity": 0.9606299212598425
          },
          {
            "duration": 0.23749999999995453,
            "durationTicks": 76,
            "midi": 91,
            "name": "G6",
            "ticks": 169280,
            "time": 529,
            "velocity": 0.9606299212598425
          },
          {
            "duration": 0.23749999999995453,
            "durationTicks": 76,
            "midi": 91,
            "name": "G6",
            "ticks": 169360,
            "time": 529.25,
            "velocity": 0.9606299212598425
          },
          {
            "duration": 0.2375000000000682,
            "durationTicks": 76,
            "midi": 89,
            "name": "F6",
            "ticks": 169440,
            "time": 529.5,
            "velocity": 0.9606299212598425
          },
          {
            "duration": 0.23749999999995453,
            "durationTicks": 76,
            "midi": 89,
            "name": "F6",
            "ticks": 169520,
            "time": 529.75,
            "velocity": 0.9606299212598425
          },
          {
            "duration": 0.23749999999995453,
            "durationTicks": 76,
            "midi": 89,
            "name": "F6",
            "ticks": 169600,
            "time": 530,
            "velocity": 0.9606299212598425
          },
          {
            "duration": 0.2375000000000682,
            "durationTicks": 76,
            "midi": 88,
            "name": "E6",
            "ticks": 169680,
            "time": 530.25,
            "velocity": 0.9606299212598425
          },
          {
            "duration": 0.23749999999995453,
            "durationTicks": 76,
            "midi": 88,
            "name": "E6",
            "ticks": 169760,
            "time": 530.5,
            "velocity": 0.9606299212598425
          },
          {
            "duration": 0.23749999999995453,
            "durationTicks": 76,
            "midi": 88,
            "name": "E6",
            "ticks": 169840,
            "time": 530.75,
            "velocity": 0.9606299212598425
          },
          {
            "duration": 0.18124999999997726,
            "durationTicks": 58,
            "midi": 91,
            "name": "G6",
            "ticks": 169920,
            "time": 531,
            "velocity": 1
          },
          {
            "duration": 0.18124999999997726,
            "durationTicks": 58,
            "midi": 91,
            "name": "G6",
            "ticks": 169980,
            "time": 531.1875,
            "velocity": 1
          },
          {
            "duration": 0.18124999999997726,
            "durationTicks": 58,
            "midi": 91,
            "name": "G6",
            "ticks": 170040,
            "time": 531.375,
            "velocity": 1
          },
          {
            "duration": 0.18124999999997726,
            "durationTicks": 58,
            "midi": 91,
            "name": "G6",
            "ticks": 170100,
            "time": 531.5625,
            "velocity": 1
          },
          {
            "duration": 0.18124999999997726,
            "durationTicks": 58,
            "midi": 91,
            "name": "G6",
            "ticks": 170160,
            "time": 531.75,
            "velocity": 1
          },
          {
            "duration": 0.18124999999997726,
            "durationTicks": 58,
            "midi": 91,
            "name": "G6",
            "ticks": 170220,
            "time": 531.9375,
            "velocity": 1
          },
          {
            "duration": 0.18124999999997726,
            "durationTicks": 58,
            "midi": 91,
            "name": "G6",
            "ticks": 170280,
            "time": 532.125,
            "velocity": 1
          },
          {
            "duration": 0.18124999999997726,
            "durationTicks": 58,
            "midi": 91,
            "name": "G6",
            "ticks": 170340,
            "time": 532.3125,
            "velocity": 1
          },
          {
            "duration": 0.18124999999997726,
            "durationTicks": 58,
            "midi": 91,
            "name": "G6",
            "ticks": 170400,
            "time": 532.5,
            "velocity": 1
          },
          {
            "duration": 0.18124999999997726,
            "durationTicks": 58,
            "midi": 91,
            "name": "G6",
            "ticks": 170460,
            "time": 532.6875,
            "velocity": 1
          },
          {
            "duration": 0.18124999999997726,
            "durationTicks": 58,
            "midi": 91,
            "name": "G6",
            "ticks": 170520,
            "time": 532.875,
            "velocity": 1
          },
          {
            "duration": 0.18124999999997726,
            "durationTicks": 58,
            "midi": 91,
            "name": "G6",
            "ticks": 170580,
            "time": 533.0625,
            "velocity": 1
          },
          {
            "duration": 0.18124999999997726,
            "durationTicks": 58,
            "midi": 91,
            "name": "G6",
            "ticks": 170640,
            "time": 533.25,
            "velocity": 1
          },
          {
            "duration": 0.18124999999997726,
            "durationTicks": 58,
            "midi": 91,
            "name": "G6",
            "ticks": 170700,
            "time": 533.4375,
            "velocity": 1
          },
          {
            "duration": 0.18124999999997726,
            "durationTicks": 58,
            "midi": 91,
            "name": "G6",
            "ticks": 170760,
            "time": 533.625,
            "velocity": 1
          },
          {
            "duration": 0.18124999999997726,
            "durationTicks": 58,
            "midi": 91,
            "name": "G6",
            "ticks": 170820,
            "time": 533.8125,
            "velocity": 1
          },
          {
            "duration": 0.18124999999997726,
            "durationTicks": 58,
            "midi": 89,
            "name": "F6",
            "ticks": 170880,
            "time": 534,
            "velocity": 1
          },
          {
            "duration": 0.18124999999997726,
            "durationTicks": 58,
            "midi": 89,
            "name": "F6",
            "ticks": 170940,
            "time": 534.1875,
            "velocity": 1
          },
          {
            "duration": 0.18124999999997726,
            "durationTicks": 58,
            "midi": 89,
            "name": "F6",
            "ticks": 171000,
            "time": 534.375,
            "velocity": 1
          },
          {
            "duration": 0.18124999999997726,
            "durationTicks": 58,
            "midi": 89,
            "name": "F6",
            "ticks": 171060,
            "time": 534.5625,
            "velocity": 1
          },
          {
            "duration": 0.18124999999997726,
            "durationTicks": 58,
            "midi": 89,
            "name": "F6",
            "ticks": 171120,
            "time": 534.75,
            "velocity": 1
          },
          {
            "duration": 0.18124999999997726,
            "durationTicks": 58,
            "midi": 89,
            "name": "F6",
            "ticks": 171180,
            "time": 534.9375,
            "velocity": 1
          },
          {
            "duration": 0.18124999999997726,
            "durationTicks": 58,
            "midi": 89,
            "name": "F6",
            "ticks": 171240,
            "time": 535.125,
            "velocity": 1
          },
          {
            "duration": 0.18124999999997726,
            "durationTicks": 58,
            "midi": 89,
            "name": "F6",
            "ticks": 171300,
            "time": 535.3125,
            "velocity": 1
          },
          {
            "duration": 0.2375000000000682,
            "durationTicks": 76,
            "midi": 89,
            "name": "F6",
            "ticks": 171840,
            "time": 537,
            "velocity": 0.9606299212598425
          },
          {
            "duration": 0.23749999999995453,
            "durationTicks": 76,
            "midi": 89,
            "name": "F6",
            "ticks": 171920,
            "time": 537.25,
            "velocity": 0.9606299212598425
          },
          {
            "duration": 0.23749999999995453,
            "durationTicks": 76,
            "midi": 89,
            "name": "F6",
            "ticks": 172000,
            "time": 537.5,
            "velocity": 0.9606299212598425
          },
          {
            "duration": 0.2375000000000682,
            "durationTicks": 76,
            "midi": 88,
            "name": "E6",
            "ticks": 172080,
            "time": 537.75,
            "velocity": 0.9606299212598425
          },
          {
            "duration": 0.23749999999995453,
            "durationTicks": 76,
            "midi": 88,
            "name": "E6",
            "ticks": 172160,
            "time": 538,
            "velocity": 0.9606299212598425
          },
          {
            "duration": 0.23749999999995453,
            "durationTicks": 76,
            "midi": 88,
            "name": "E6",
            "ticks": 172240,
            "time": 538.25,
            "velocity": 0.9606299212598425
          },
          {
            "duration": 0.2375000000000682,
            "durationTicks": 76,
            "midi": 86,
            "name": "D6",
            "ticks": 172320,
            "time": 538.5,
            "velocity": 0.9606299212598425
          },
          {
            "duration": 0.23749999999995453,
            "durationTicks": 76,
            "midi": 86,
            "name": "D6",
            "ticks": 172400,
            "time": 538.75,
            "velocity": 0.9606299212598425
          },
          {
            "duration": 0.23749999999995453,
            "durationTicks": 76,
            "midi": 86,
            "name": "D6",
            "ticks": 172480,
            "time": 539,
            "velocity": 0.9606299212598425
          },
          {
            "duration": 0.2375000000000682,
            "durationTicks": 76,
            "midi": 85,
            "name": "C#6",
            "ticks": 172560,
            "time": 539.25,
            "velocity": 0.9606299212598425
          },
          {
            "duration": 0.23749999999995453,
            "durationTicks": 76,
            "midi": 85,
            "name": "C#6",
            "ticks": 172640,
            "time": 539.5,
            "velocity": 0.9606299212598425
          },
          {
            "duration": 0.23749999999995453,
            "durationTicks": 76,
            "midi": 85,
            "name": "C#6",
            "ticks": 172720,
            "time": 539.75,
            "velocity": 0.9606299212598425
          },
          {
            "duration": 0.18124999999997726,
            "durationTicks": 58,
            "midi": 88,
            "name": "E6",
            "ticks": 172800,
            "time": 540,
            "velocity": 1
          },
          {
            "duration": 0.18124999999997726,
            "durationTicks": 58,
            "midi": 88,
            "name": "E6",
            "ticks": 172860,
            "time": 540.1875,
            "velocity": 1
          },
          {
            "duration": 0.18124999999997726,
            "durationTicks": 58,
            "midi": 88,
            "name": "E6",
            "ticks": 172920,
            "time": 540.375,
            "velocity": 1
          },
          {
            "duration": 0.18124999999997726,
            "durationTicks": 58,
            "midi": 88,
            "name": "E6",
            "ticks": 172980,
            "time": 540.5625,
            "velocity": 1
          },
          {
            "duration": 0.18124999999997726,
            "durationTicks": 58,
            "midi": 88,
            "name": "E6",
            "ticks": 173040,
            "time": 540.75,
            "velocity": 1
          },
          {
            "duration": 0.18124999999997726,
            "durationTicks": 58,
            "midi": 88,
            "name": "E6",
            "ticks": 173100,
            "time": 540.9375,
            "velocity": 1
          },
          {
            "duration": 0.18124999999997726,
            "durationTicks": 58,
            "midi": 88,
            "name": "E6",
            "ticks": 173160,
            "time": 541.125,
            "velocity": 1
          },
          {
            "duration": 0.18124999999997726,
            "durationTicks": 58,
            "midi": 88,
            "name": "E6",
            "ticks": 173220,
            "time": 541.3125,
            "velocity": 1
          },
          {
            "duration": 0.18124999999997726,
            "durationTicks": 58,
            "midi": 88,
            "name": "E6",
            "ticks": 173280,
            "time": 541.5,
            "velocity": 1
          },
          {
            "duration": 0.18124999999997726,
            "durationTicks": 58,
            "midi": 88,
            "name": "E6",
            "ticks": 173340,
            "time": 541.6875,
            "velocity": 1
          },
          {
            "duration": 0.18124999999997726,
            "durationTicks": 58,
            "midi": 88,
            "name": "E6",
            "ticks": 173400,
            "time": 541.875,
            "velocity": 1
          },
          {
            "duration": 0.18124999999997726,
            "durationTicks": 58,
            "midi": 88,
            "name": "E6",
            "ticks": 173460,
            "time": 542.0625,
            "velocity": 1
          },
          {
            "duration": 0.18124999999997726,
            "durationTicks": 58,
            "midi": 88,
            "name": "E6",
            "ticks": 173520,
            "time": 542.25,
            "velocity": 1
          },
          {
            "duration": 0.18124999999997726,
            "durationTicks": 58,
            "midi": 88,
            "name": "E6",
            "ticks": 173580,
            "time": 542.4375,
            "velocity": 1
          },
          {
            "duration": 0.18124999999997726,
            "durationTicks": 58,
            "midi": 88,
            "name": "E6",
            "ticks": 173640,
            "time": 542.625,
            "velocity": 1
          },
          {
            "duration": 0.18124999999997726,
            "durationTicks": 58,
            "midi": 88,
            "name": "E6",
            "ticks": 173700,
            "time": 542.8125,
            "velocity": 1
          },
          {
            "duration": 0.18124999999997726,
            "durationTicks": 58,
            "midi": 86,
            "name": "D6",
            "ticks": 173760,
            "time": 543,
            "velocity": 1
          },
          {
            "duration": 0.18124999999997726,
            "durationTicks": 58,
            "midi": 86,
            "name": "D6",
            "ticks": 173820,
            "time": 543.1875,
            "velocity": 1
          },
          {
            "duration": 0.18124999999997726,
            "durationTicks": 58,
            "midi": 86,
            "name": "D6",
            "ticks": 173880,
            "time": 543.375,
            "velocity": 1
          },
          {
            "duration": 0.18124999999997726,
            "durationTicks": 58,
            "midi": 86,
            "name": "D6",
            "ticks": 173940,
            "time": 543.5625,
            "velocity": 1
          },
          {
            "duration": 0.18124999999997726,
            "durationTicks": 58,
            "midi": 86,
            "name": "D6",
            "ticks": 174000,
            "time": 543.75,
            "velocity": 1
          },
          {
            "duration": 0.18124999999997726,
            "durationTicks": 58,
            "midi": 86,
            "name": "D6",
            "ticks": 174060,
            "time": 543.9375,
            "velocity": 1
          },
          {
            "duration": 0.18124999999997726,
            "durationTicks": 58,
            "midi": 86,
            "name": "D6",
            "ticks": 174120,
            "time": 544.125,
            "velocity": 1
          },
          {
            "duration": 0.18124999999997726,
            "durationTicks": 58,
            "midi": 86,
            "name": "D6",
            "ticks": 174180,
            "time": 544.3125,
            "velocity": 1
          },
          {
            "duration": 0.2375000000000682,
            "durationTicks": 76,
            "midi": 86,
            "name": "D6",
            "ticks": 174720,
            "time": 546,
            "velocity": 0.9606299212598425
          },
          {
            "duration": 0.23749999999995453,
            "durationTicks": 76,
            "midi": 86,
            "name": "D6",
            "ticks": 174800,
            "time": 546.25,
            "velocity": 0.9606299212598425
          },
          {
            "duration": 0.23749999999995453,
            "durationTicks": 76,
            "midi": 86,
            "name": "D6",
            "ticks": 174880,
            "time": 546.5,
            "velocity": 0.9606299212598425
          },
          {
            "duration": 0.2375000000000682,
            "durationTicks": 76,
            "midi": 85,
            "name": "C#6",
            "ticks": 174960,
            "time": 546.75,
            "velocity": 0.9606299212598425
          },
          {
            "duration": 0.23749999999995453,
            "durationTicks": 76,
            "midi": 85,
            "name": "C#6",
            "ticks": 175040,
            "time": 547,
            "velocity": 0.9606299212598425
          },
          {
            "duration": 0.23749999999995453,
            "durationTicks": 76,
            "midi": 85,
            "name": "C#6",
            "ticks": 175120,
            "time": 547.25,
            "velocity": 0.9606299212598425
          },
          {
            "duration": 0.2375000000000682,
            "durationTicks": 76,
            "midi": 83,
            "name": "B5",
            "ticks": 175200,
            "time": 547.5,
            "velocity": 0.9606299212598425
          },
          {
            "duration": 0.23749999999995453,
            "durationTicks": 76,
            "midi": 83,
            "name": "B5",
            "ticks": 175280,
            "time": 547.75,
            "velocity": 0.9606299212598425
          },
          {
            "duration": 0.23749999999995453,
            "durationTicks": 76,
            "midi": 83,
            "name": "B5",
            "ticks": 175360,
            "time": 548,
            "velocity": 0.9606299212598425
          },
          {
            "duration": 0.2375000000000682,
            "durationTicks": 76,
            "midi": 82,
            "name": "A#5",
            "ticks": 175440,
            "time": 548.25,
            "velocity": 0.9606299212598425
          },
          {
            "duration": 0.23749999999995453,
            "durationTicks": 76,
            "midi": 82,
            "name": "A#5",
            "ticks": 175520,
            "time": 548.5,
            "velocity": 0.9606299212598425
          },
          {
            "duration": 0.23749999999995453,
            "durationTicks": 76,
            "midi": 82,
            "name": "A#5",
            "ticks": 175600,
            "time": 548.75,
            "velocity": 0.9606299212598425
          },
          {
            "duration": 0.18124999999997726,
            "durationTicks": 58,
            "midi": 85,
            "name": "C#6",
            "ticks": 175680,
            "time": 549,
            "velocity": 1
          },
          {
            "duration": 0.18124999999997726,
            "durationTicks": 58,
            "midi": 85,
            "name": "C#6",
            "ticks": 175740,
            "time": 549.1875,
            "velocity": 1
          },
          {
            "duration": 0.18124999999997726,
            "durationTicks": 58,
            "midi": 85,
            "name": "C#6",
            "ticks": 175800,
            "time": 549.375,
            "velocity": 1
          },
          {
            "duration": 0.18124999999997726,
            "durationTicks": 58,
            "midi": 85,
            "name": "C#6",
            "ticks": 175860,
            "time": 549.5625,
            "velocity": 1
          },
          {
            "duration": 0.18124999999997726,
            "durationTicks": 58,
            "midi": 85,
            "name": "C#6",
            "ticks": 175920,
            "time": 549.75,
            "velocity": 1
          },
          {
            "duration": 0.18124999999997726,
            "durationTicks": 58,
            "midi": 85,
            "name": "C#6",
            "ticks": 175980,
            "time": 549.9375,
            "velocity": 1
          },
          {
            "duration": 0.18124999999997726,
            "durationTicks": 58,
            "midi": 85,
            "name": "C#6",
            "ticks": 176040,
            "time": 550.125,
            "velocity": 1
          },
          {
            "duration": 0.18124999999997726,
            "durationTicks": 58,
            "midi": 85,
            "name": "C#6",
            "ticks": 176100,
            "time": 550.3125,
            "velocity": 1
          },
          {
            "duration": 0.18124999999997726,
            "durationTicks": 58,
            "midi": 85,
            "name": "C#6",
            "ticks": 176160,
            "time": 550.5,
            "velocity": 1
          },
          {
            "duration": 0.18124999999997726,
            "durationTicks": 58,
            "midi": 85,
            "name": "C#6",
            "ticks": 176220,
            "time": 550.6875,
            "velocity": 1
          },
          {
            "duration": 0.18124999999997726,
            "durationTicks": 58,
            "midi": 85,
            "name": "C#6",
            "ticks": 176280,
            "time": 550.875,
            "velocity": 1
          },
          {
            "duration": 0.18124999999997726,
            "durationTicks": 58,
            "midi": 85,
            "name": "C#6",
            "ticks": 176340,
            "time": 551.0625,
            "velocity": 1
          },
          {
            "duration": 0.18124999999997726,
            "durationTicks": 58,
            "midi": 85,
            "name": "C#6",
            "ticks": 176400,
            "time": 551.25,
            "velocity": 1
          },
          {
            "duration": 0.18124999999997726,
            "durationTicks": 58,
            "midi": 85,
            "name": "C#6",
            "ticks": 176460,
            "time": 551.4375,
            "velocity": 1
          },
          {
            "duration": 0.18124999999997726,
            "durationTicks": 58,
            "midi": 85,
            "name": "C#6",
            "ticks": 176520,
            "time": 551.625,
            "velocity": 1
          },
          {
            "duration": 0.18124999999997726,
            "durationTicks": 58,
            "midi": 85,
            "name": "C#6",
            "ticks": 176580,
            "time": 551.8125,
            "velocity": 1
          },
          {
            "duration": 0.18124999999997726,
            "durationTicks": 58,
            "midi": 83,
            "name": "B5",
            "ticks": 176640,
            "time": 552,
            "velocity": 1
          },
          {
            "duration": 0.18124999999997726,
            "durationTicks": 58,
            "midi": 83,
            "name": "B5",
            "ticks": 176700,
            "time": 552.1875,
            "velocity": 1
          },
          {
            "duration": 0.18124999999997726,
            "durationTicks": 58,
            "midi": 83,
            "name": "B5",
            "ticks": 176760,
            "time": 552.375,
            "velocity": 1
          },
          {
            "duration": 0.18124999999997726,
            "durationTicks": 58,
            "midi": 83,
            "name": "B5",
            "ticks": 176820,
            "time": 552.5625,
            "velocity": 1
          },
          {
            "duration": 0.18124999999997726,
            "durationTicks": 58,
            "midi": 83,
            "name": "B5",
            "ticks": 176880,
            "time": 552.75,
            "velocity": 1
          },
          {
            "duration": 0.18124999999997726,
            "durationTicks": 58,
            "midi": 83,
            "name": "B5",
            "ticks": 176940,
            "time": 552.9375,
            "velocity": 1
          },
          {
            "duration": 0.18124999999997726,
            "durationTicks": 58,
            "midi": 83,
            "name": "B5",
            "ticks": 177000,
            "time": 553.125,
            "velocity": 1
          },
          {
            "duration": 0.18124999999997726,
            "durationTicks": 58,
            "midi": 83,
            "name": "B5",
            "ticks": 177060,
            "time": 553.3125,
            "velocity": 1
          },
          {
            "duration": 0.2375000000000682,
            "durationTicks": 76,
            "midi": 83,
            "name": "B5",
            "ticks": 177600,
            "time": 555,
            "velocity": 0.9606299212598425
          },
          {
            "duration": 0.23749999999995453,
            "durationTicks": 76,
            "midi": 83,
            "name": "B5",
            "ticks": 177680,
            "time": 555.25,
            "velocity": 0.9606299212598425
          },
          {
            "duration": 0.23749999999995453,
            "durationTicks": 76,
            "midi": 83,
            "name": "B5",
            "ticks": 177760,
            "time": 555.5,
            "velocity": 0.9606299212598425
          },
          {
            "duration": 0.2375000000000682,
            "durationTicks": 76,
            "midi": 81,
            "name": "A5",
            "ticks": 177840,
            "time": 555.75,
            "velocity": 0.9606299212598425
          },
          {
            "duration": 0.23749999999995453,
            "durationTicks": 76,
            "midi": 81,
            "name": "A5",
            "ticks": 177920,
            "time": 556,
            "velocity": 0.9606299212598425
          },
          {
            "duration": 0.23749999999995453,
            "durationTicks": 76,
            "midi": 81,
            "name": "A5",
            "ticks": 178000,
            "time": 556.25,
            "velocity": 0.9606299212598425
          },
          {
            "duration": 0.2375000000000682,
            "durationTicks": 76,
            "midi": 79,
            "name": "G5",
            "ticks": 178080,
            "time": 556.5,
            "velocity": 0.9606299212598425
          },
          {
            "duration": 0.23749999999995453,
            "durationTicks": 76,
            "midi": 79,
            "name": "G5",
            "ticks": 178160,
            "time": 556.75,
            "velocity": 0.9606299212598425
          },
          {
            "duration": 0.23749999999995453,
            "durationTicks": 76,
            "midi": 79,
            "name": "G5",
            "ticks": 178240,
            "time": 557,
            "velocity": 0.9606299212598425
          },
          {
            "duration": 0.2375000000000682,
            "durationTicks": 76,
            "midi": 78,
            "name": "F#5",
            "ticks": 178320,
            "time": 557.25,
            "velocity": 0.9606299212598425
          },
          {
            "duration": 0.23749999999995453,
            "durationTicks": 76,
            "midi": 78,
            "name": "F#5",
            "ticks": 178400,
            "time": 557.5,
            "velocity": 0.9606299212598425
          },
          {
            "duration": 0.23749999999995453,
            "durationTicks": 76,
            "midi": 78,
            "name": "F#5",
            "ticks": 178480,
            "time": 557.75,
            "velocity": 0.9606299212598425
          },
          {
            "duration": 0.18124999999997726,
            "durationTicks": 58,
            "midi": 81,
            "name": "A5",
            "ticks": 178560,
            "time": 558,
            "velocity": 1
          },
          {
            "duration": 0.18124999999997726,
            "durationTicks": 58,
            "midi": 81,
            "name": "A5",
            "ticks": 178620,
            "time": 558.1875,
            "velocity": 1
          },
          {
            "duration": 0.18124999999997726,
            "durationTicks": 58,
            "midi": 81,
            "name": "A5",
            "ticks": 178680,
            "time": 558.375,
            "velocity": 1
          },
          {
            "duration": 0.18124999999997726,
            "durationTicks": 58,
            "midi": 81,
            "name": "A5",
            "ticks": 178740,
            "time": 558.5625,
            "velocity": 1
          },
          {
            "duration": 0.18124999999997726,
            "durationTicks": 58,
            "midi": 81,
            "name": "A5",
            "ticks": 178800,
            "time": 558.75,
            "velocity": 1
          },
          {
            "duration": 0.18124999999997726,
            "durationTicks": 58,
            "midi": 81,
            "name": "A5",
            "ticks": 178860,
            "time": 558.9375,
            "velocity": 1
          },
          {
            "duration": 0.18124999999997726,
            "durationTicks": 58,
            "midi": 81,
            "name": "A5",
            "ticks": 178920,
            "time": 559.125,
            "velocity": 1
          },
          {
            "duration": 0.18124999999997726,
            "durationTicks": 58,
            "midi": 81,
            "name": "A5",
            "ticks": 178980,
            "time": 559.3125,
            "velocity": 1
          },
          {
            "duration": 0.18124999999997726,
            "durationTicks": 58,
            "midi": 81,
            "name": "A5",
            "ticks": 179040,
            "time": 559.5,
            "velocity": 1
          },
          {
            "duration": 0.18124999999997726,
            "durationTicks": 58,
            "midi": 81,
            "name": "A5",
            "ticks": 179100,
            "time": 559.6875,
            "velocity": 1
          },
          {
            "duration": 0.18124999999997726,
            "durationTicks": 58,
            "midi": 81,
            "name": "A5",
            "ticks": 179160,
            "time": 559.875,
            "velocity": 1
          },
          {
            "duration": 0.18124999999997726,
            "durationTicks": 58,
            "midi": 81,
            "name": "A5",
            "ticks": 179220,
            "time": 560.0625,
            "velocity": 1
          },
          {
            "duration": 0.18124999999997726,
            "durationTicks": 58,
            "midi": 81,
            "name": "A5",
            "ticks": 179280,
            "time": 560.25,
            "velocity": 1
          },
          {
            "duration": 0.18124999999997726,
            "durationTicks": 58,
            "midi": 81,
            "name": "A5",
            "ticks": 179340,
            "time": 560.4375,
            "velocity": 1
          },
          {
            "duration": 0.18124999999997726,
            "durationTicks": 58,
            "midi": 81,
            "name": "A5",
            "ticks": 179400,
            "time": 560.625,
            "velocity": 1
          },
          {
            "duration": 0.18124999999997726,
            "durationTicks": 58,
            "midi": 81,
            "name": "A5",
            "ticks": 179460,
            "time": 560.8125,
            "velocity": 1
          },
          {
            "duration": 0.2375000000000682,
            "durationTicks": 76,
            "midi": 79,
            "name": "G5",
            "ticks": 179520,
            "time": 561,
            "velocity": 0.9606299212598425
          },
          {
            "duration": 0.23749999999995453,
            "durationTicks": 76,
            "midi": 79,
            "name": "G5",
            "ticks": 179600,
            "time": 561.25,
            "velocity": 0.9606299212598425
          },
          {
            "duration": 0.23749999999995453,
            "durationTicks": 76,
            "midi": 79,
            "name": "G5",
            "ticks": 179680,
            "time": 561.5,
            "velocity": 0.9606299212598425
          },
          {
            "duration": 0.2375000000000682,
            "durationTicks": 76,
            "midi": 78,
            "name": "F#5",
            "ticks": 179760,
            "time": 561.75,
            "velocity": 0.9606299212598425
          },
          {
            "duration": 0.23749999999995453,
            "durationTicks": 76,
            "midi": 78,
            "name": "F#5",
            "ticks": 179840,
            "time": 562,
            "velocity": 0.9606299212598425
          },
          {
            "duration": 0.23749999999995453,
            "durationTicks": 76,
            "midi": 78,
            "name": "F#5",
            "ticks": 179920,
            "time": 562.25,
            "velocity": 0.9606299212598425
          },
          {
            "duration": 0.2375000000000682,
            "durationTicks": 76,
            "midi": 76,
            "name": "E5",
            "ticks": 180000,
            "time": 562.5,
            "velocity": 0.9606299212598425
          },
          {
            "duration": 0.23749999999995453,
            "durationTicks": 76,
            "midi": 76,
            "name": "E5",
            "ticks": 180080,
            "time": 562.75,
            "velocity": 0.9606299212598425
          },
          {
            "duration": 0.23749999999995453,
            "durationTicks": 76,
            "midi": 76,
            "name": "E5",
            "ticks": 180160,
            "time": 563,
            "velocity": 0.9606299212598425
          },
          {
            "duration": 0.2375000000000682,
            "durationTicks": 76,
            "midi": 74,
            "name": "D5",
            "ticks": 180240,
            "time": 563.25,
            "velocity": 0.9606299212598425
          },
          {
            "duration": 0.23749999999995453,
            "durationTicks": 76,
            "midi": 74,
            "name": "D5",
            "ticks": 180320,
            "time": 563.5,
            "velocity": 0.9606299212598425
          },
          {
            "duration": 0.23749999999995453,
            "durationTicks": 76,
            "midi": 74,
            "name": "D5",
            "ticks": 180400,
            "time": 563.75,
            "velocity": 0.9606299212598425
          },
          {
            "duration": 0.2375000000000682,
            "durationTicks": 76,
            "midi": 73,
            "name": "C#5",
            "ticks": 180480,
            "time": 564,
            "velocity": 0.9606299212598425
          },
          {
            "duration": 0.23749999999995453,
            "durationTicks": 76,
            "midi": 73,
            "name": "C#5",
            "ticks": 180560,
            "time": 564.25,
            "velocity": 0.9606299212598425
          },
          {
            "duration": 0.23749999999995453,
            "durationTicks": 76,
            "midi": 73,
            "name": "C#5",
            "ticks": 180640,
            "time": 564.5,
            "velocity": 0.9606299212598425
          },
          {
            "duration": 0.2375000000000682,
            "durationTicks": 76,
            "midi": 74,
            "name": "D5",
            "ticks": 180720,
            "time": 564.75,
            "velocity": 0.9606299212598425
          },
          {
            "duration": 0.23749999999995453,
            "durationTicks": 76,
            "midi": 74,
            "name": "D5",
            "ticks": 180800,
            "time": 565,
            "velocity": 0.9606299212598425
          },
          {
            "duration": 0.23749999999995453,
            "durationTicks": 76,
            "midi": 74,
            "name": "D5",
            "ticks": 180880,
            "time": 565.25,
            "velocity": 0.9606299212598425
          },
          {
            "duration": 0.2375000000000682,
            "durationTicks": 76,
            "midi": 73,
            "name": "C#5",
            "ticks": 180960,
            "time": 565.5,
            "velocity": 0.9606299212598425
          },
          {
            "duration": 0.23749999999995453,
            "durationTicks": 76,
            "midi": 73,
            "name": "C#5",
            "ticks": 181040,
            "time": 565.75,
            "velocity": 0.9606299212598425
          },
          {
            "duration": 0.23749999999995453,
            "durationTicks": 76,
            "midi": 73,
            "name": "C#5",
            "ticks": 181120,
            "time": 566,
            "velocity": 0.9606299212598425
          },
          {
            "duration": 0.2375000000000682,
            "durationTicks": 76,
            "midi": 71,
            "name": "B4",
            "ticks": 181200,
            "time": 566.25,
            "velocity": 0.9606299212598425
          },
          {
            "duration": 0.23749999999995453,
            "durationTicks": 76,
            "midi": 71,
            "name": "B4",
            "ticks": 181280,
            "time": 566.5,
            "velocity": 0.9606299212598425
          },
          {
            "duration": 0.23749999999995453,
            "durationTicks": 76,
            "midi": 71,
            "name": "B4",
            "ticks": 181360,
            "time": 566.75,
            "velocity": 0.9606299212598425
          },
          {
            "duration": 0.7062500000000682,
            "durationTicks": 226,
            "midi": 66,
            "name": "F#4",
            "ticks": 181440,
            "time": 567,
            "velocity": 1
          },
          {
            "duration": 0.2375000000000682,
            "durationTicks": 76,
            "midi": 66,
            "name": "F#4",
            "ticks": 182400,
            "time": 570,
            "velocity": 1
          },
          {
            "duration": 0.23749999999995453,
            "durationTicks": 76,
            "midi": 68,
            "name": "G#4",
            "ticks": 182480,
            "time": 570.25,
            "velocity": 1
          },
          {
            "duration": 0.23749999999995453,
            "durationTicks": 76,
            "midi": 70,
            "name": "A#4",
            "ticks": 182560,
            "time": 570.5,
            "velocity": 1
          },
          {
            "duration": 0.18124999999997726,
            "durationTicks": 58,
            "midi": 71,
            "name": "B4",
            "ticks": 182640,
            "time": 570.75,
            "velocity": 1
          },
          {
            "duration": 0.18124999999997726,
            "durationTicks": 58,
            "midi": 73,
            "name": "C#5",
            "ticks": 182700,
            "time": 570.9375,
            "velocity": 1
          },
          {
            "duration": 0.18124999999997726,
            "durationTicks": 58,
            "midi": 74,
            "name": "D5",
            "ticks": 182760,
            "time": 571.125,
            "velocity": 1
          },
          {
            "duration": 0.18124999999997726,
            "durationTicks": 58,
            "midi": 76,
            "name": "E5",
            "ticks": 182820,
            "time": 571.3125,
            "velocity": 1
          },
          {
            "duration": 1.40625,
            "durationTicks": 450,
            "midi": 78,
            "name": "F#5",
            "ticks": 182880,
            "time": 571.5,
            "velocity": 1
          },
          {
            "duration": 0.7062500000000682,
            "durationTicks": 226,
            "midi": 76,
            "name": "E5",
            "ticks": 183360,
            "time": 573,
            "velocity": 1
          },
          {
            "duration": 0.7062500000000682,
            "durationTicks": 226,
            "midi": 74,
            "name": "D5",
            "ticks": 183600,
            "time": 573.75,
            "velocity": 1
          },
          {
            "duration": 0.7062500000000682,
            "durationTicks": 226,
            "midi": 73,
            "name": "C#5",
            "ticks": 183840,
            "time": 574.5,
            "velocity": 1
          },
          {
            "duration": 0.7062500000000682,
            "durationTicks": 226,
            "midi": 71,
            "name": "B4",
            "ticks": 184080,
            "time": 575.25,
            "velocity": 1
          },
          {
            "duration": 0.7062500000000682,
            "durationTicks": 226,
            "midi": 74,
            "name": "D5",
            "ticks": 184320,
            "time": 576,
            "velocity": 1
          },
          {
            "duration": 0.7062500000000682,
            "durationTicks": 226,
            "midi": 73,
            "name": "C#5",
            "ticks": 184560,
            "time": 576.75,
            "velocity": 1
          },
          {
            "duration": 0.2375000000000682,
            "durationTicks": 76,
            "midi": 66,
            "name": "F#4",
            "ticks": 185280,
            "time": 579,
            "velocity": 1
          },
          {
            "duration": 0.23749999999995453,
            "durationTicks": 76,
            "midi": 68,
            "name": "G#4",
            "ticks": 185360,
            "time": 579.25,
            "velocity": 1
          },
          {
            "duration": 0.23749999999995453,
            "durationTicks": 76,
            "midi": 70,
            "name": "A#4",
            "ticks": 185440,
            "time": 579.5,
            "velocity": 1
          },
          {
            "duration": 0.18124999999997726,
            "durationTicks": 58,
            "midi": 71,
            "name": "B4",
            "ticks": 185520,
            "time": 579.75,
            "velocity": 1
          },
          {
            "duration": 0.18124999999997726,
            "durationTicks": 58,
            "midi": 73,
            "name": "C#5",
            "ticks": 185580,
            "time": 579.9375,
            "velocity": 1
          },
          {
            "duration": 0.18124999999997726,
            "durationTicks": 58,
            "midi": 74,
            "name": "D5",
            "ticks": 185640,
            "time": 580.125,
            "velocity": 1
          },
          {
            "duration": 0.18124999999997726,
            "durationTicks": 58,
            "midi": 76,
            "name": "E5",
            "ticks": 185700,
            "time": 580.3125,
            "velocity": 1
          },
          {
            "duration": 1.40625,
            "durationTicks": 450,
            "midi": 78,
            "name": "F#5",
            "ticks": 185760,
            "time": 580.5,
            "velocity": 1
          },
          {
            "duration": 0.7062500000000682,
            "durationTicks": 226,
            "midi": 76,
            "name": "E5",
            "ticks": 186240,
            "time": 582,
            "velocity": 1
          },
          {
            "duration": 0.7062500000000682,
            "durationTicks": 226,
            "midi": 74,
            "name": "D5",
            "ticks": 186480,
            "time": 582.75,
            "velocity": 1
          },
          {
            "duration": 0.7062500000000682,
            "durationTicks": 226,
            "midi": 73,
            "name": "C#5",
            "ticks": 186720,
            "time": 583.5,
            "velocity": 1
          },
          {
            "duration": 0.7062500000000682,
            "durationTicks": 226,
            "midi": 71,
            "name": "B4",
            "ticks": 186960,
            "time": 584.25,
            "velocity": 1
          },
          {
            "duration": 0.7062500000000682,
            "durationTicks": 226,
            "midi": 74,
            "name": "D5",
            "ticks": 187200,
            "time": 585,
            "velocity": 1
          },
          {
            "duration": 0.7062500000000682,
            "durationTicks": 226,
            "midi": 73,
            "name": "C#5",
            "ticks": 187440,
            "time": 585.75,
            "velocity": 1
          },
          {
            "duration": 0.2375000000000682,
            "durationTicks": 76,
            "midi": 59,
            "name": "B3",
            "ticks": 188160,
            "time": 588,
            "velocity": 1
          },
          {
            "duration": 0.23749999999995453,
            "durationTicks": 76,
            "midi": 61,
            "name": "C#4",
            "ticks": 188240,
            "time": 588.25,
            "velocity": 1
          },
          {
            "duration": 0.23749999999995453,
            "durationTicks": 76,
            "midi": 62,
            "name": "D4",
            "ticks": 188320,
            "time": 588.5,
            "velocity": 1
          },
          {
            "duration": 0.18124999999997726,
            "durationTicks": 58,
            "midi": 64,
            "name": "E4",
            "ticks": 188400,
            "time": 588.75,
            "velocity": 1
          },
          {
            "duration": 0.18124999999997726,
            "durationTicks": 58,
            "midi": 66,
            "name": "F#4",
            "ticks": 188460,
            "time": 588.9375,
            "velocity": 1
          },
          {
            "duration": 0.18124999999997726,
            "durationTicks": 58,
            "midi": 67,
            "name": "G4",
            "ticks": 188520,
            "time": 589.125,
            "velocity": 1
          },
          {
            "duration": 0.18124999999997726,
            "durationTicks": 58,
            "midi": 69,
            "name": "A4",
            "ticks": 188580,
            "time": 589.3125,
            "velocity": 1
          },
          {
            "duration": 1.40625,
            "durationTicks": 450,
            "midi": 71,
            "name": "B4",
            "ticks": 188640,
            "time": 589.5,
            "velocity": 1
          },
          {
            "duration": 0.7062500000000682,
            "durationTicks": 226,
            "midi": 69,
            "name": "A4",
            "ticks": 189120,
            "time": 591,
            "velocity": 1
          },
          {
            "duration": 0.7062500000000682,
            "durationTicks": 226,
            "midi": 68,
            "name": "G#4",
            "ticks": 189360,
            "time": 591.75,
            "velocity": 1
          },
          {
            "duration": 0.7062500000000682,
            "durationTicks": 226,
            "midi": 66,
            "name": "F#4",
            "ticks": 189600,
            "time": 592.5,
            "velocity": 1
          },
          {
            "duration": 0.7062500000000682,
            "durationTicks": 226,
            "midi": 64,
            "name": "E4",
            "ticks": 189840,
            "time": 593.25,
            "velocity": 1
          },
          {
            "duration": 0.7062500000000682,
            "durationTicks": 226,
            "midi": 67,
            "name": "G4",
            "ticks": 190080,
            "time": 594,
            "velocity": 1
          },
          {
            "duration": 0.7062500000000682,
            "durationTicks": 226,
            "midi": 66,
            "name": "F#4",
            "ticks": 190320,
            "time": 594.75,
            "velocity": 1
          },
          {
            "duration": 0.2375000000000682,
            "durationTicks": 76,
            "midi": 59,
            "name": "B3",
            "ticks": 191040,
            "time": 597,
            "velocity": 1
          },
          {
            "duration": 0.23749999999995453,
            "durationTicks": 76,
            "midi": 61,
            "name": "C#4",
            "ticks": 191120,
            "time": 597.25,
            "velocity": 1
          },
          {
            "duration": 0.23749999999995453,
            "durationTicks": 76,
            "midi": 62,
            "name": "D4",
            "ticks": 191200,
            "time": 597.5,
            "velocity": 1
          },
          {
            "duration": 0.18124999999997726,
            "durationTicks": 58,
            "midi": 64,
            "name": "E4",
            "ticks": 191280,
            "time": 597.75,
            "velocity": 1
          },
          {
            "duration": 0.18124999999997726,
            "durationTicks": 58,
            "midi": 66,
            "name": "F#4",
            "ticks": 191340,
            "time": 597.9375,
            "velocity": 1
          },
          {
            "duration": 0.18124999999997726,
            "durationTicks": 58,
            "midi": 67,
            "name": "G4",
            "ticks": 191400,
            "time": 598.125,
            "velocity": 1
          },
          {
            "duration": 0.18124999999997726,
            "durationTicks": 58,
            "midi": 69,
            "name": "A4",
            "ticks": 191460,
            "time": 598.3125,
            "velocity": 1
          },
          {
            "duration": 1.40625,
            "durationTicks": 450,
            "midi": 71,
            "name": "B4",
            "ticks": 191520,
            "time": 598.5,
            "velocity": 1
          },
          {
            "duration": 0.7062500000000682,
            "durationTicks": 226,
            "midi": 69,
            "name": "A4",
            "ticks": 192000,
            "time": 600,
            "velocity": 1
          },
          {
            "duration": 0.7062500000000682,
            "durationTicks": 226,
            "midi": 68,
            "name": "G#4",
            "ticks": 192240,
            "time": 600.75,
            "velocity": 1
          },
          {
            "duration": 0.7062500000000682,
            "durationTicks": 226,
            "midi": 66,
            "name": "F#4",
            "ticks": 192480,
            "time": 601.5,
            "velocity": 1
          },
          {
            "duration": 0.7062500000000682,
            "durationTicks": 226,
            "midi": 64,
            "name": "E4",
            "ticks": 192720,
            "time": 602.25,
            "velocity": 1
          },
          {
            "duration": 0.7062500000000682,
            "durationTicks": 226,
            "midi": 67,
            "name": "G4",
            "ticks": 192960,
            "time": 603,
            "velocity": 1
          },
          {
            "duration": 0.7062500000000682,
            "durationTicks": 226,
            "midi": 66,
            "name": "F#4",
            "ticks": 193200,
            "time": 603.75,
            "velocity": 0.984251968503937
          },
          {
            "duration": 0.7062500000000682,
            "durationTicks": 226,
            "midi": 66,
            "name": "F#4",
            "ticks": 194400,
            "time": 607.5,
            "velocity": 0.8582677165354331
          },
          {
            "duration": 0.7062500000000682,
            "durationTicks": 226,
            "midi": 64,
            "name": "E4",
            "ticks": 194640,
            "time": 608.25,
            "velocity": 0.8346456692913385
          },
          {
            "duration": 0.7062500000000682,
            "durationTicks": 226,
            "midi": 64,
            "name": "E4",
            "ticks": 195840,
            "time": 612,
            "velocity": 0.7165354330708661
          },
          {
            "duration": 0.7062500000000682,
            "durationTicks": 226,
            "midi": 62,
            "name": "D4",
            "ticks": 196080,
            "time": 612.75,
            "velocity": 0.6850393700787402
          },
          {
            "duration": 1.40625,
            "durationTicks": 450,
            "midi": 71,
            "name": "B4",
            "ticks": 212640,
            "time": 664.5,
            "velocity": 0.47244094488188976
          },
          {
            "duration": 1.40625,
            "durationTicks": 450,
            "midi": 71,
            "name": "B4",
            "ticks": 213120,
            "time": 666,
            "velocity": 0.47244094488188976
          },
          {
            "duration": 1.40625,
            "durationTicks": 450,
            "midi": 69,
            "name": "A4",
            "ticks": 213600,
            "time": 667.5,
            "velocity": 0.47244094488188976
          },
          {
            "duration": 1.40625,
            "durationTicks": 450,
            "midi": 67,
            "name": "G4",
            "ticks": 214080,
            "time": 669,
            "velocity": 0.47244094488188976
          },
          {
            "duration": 2.8125,
            "durationTicks": 900,
            "midi": 66,
            "name": "F#4",
            "ticks": 214560,
            "time": 670.5,
            "velocity": 0.47244094488188976
          },
          {
            "duration": 1.40625,
            "durationTicks": 450,
            "midi": 71,
            "name": "B4",
            "ticks": 215520,
            "time": 673.5,
            "velocity": 0.47244094488188976
          },
          {
            "duration": 1.40625,
            "durationTicks": 450,
            "midi": 71,
            "name": "B4",
            "ticks": 216000,
            "time": 675,
            "velocity": 0.47244094488188976
          },
          {
            "duration": 1.40625,
            "durationTicks": 450,
            "midi": 69,
            "name": "A4",
            "ticks": 216480,
            "time": 676.5,
            "velocity": 0.47244094488188976
          },
          {
            "duration": 1.40625,
            "durationTicks": 450,
            "midi": 67,
            "name": "G4",
            "ticks": 216960,
            "time": 678,
            "velocity": 0.47244094488188976
          },
          {
            "duration": 2.8125,
            "durationTicks": 900,
            "midi": 66,
            "name": "F#4",
            "ticks": 217440,
            "time": 679.5,
            "velocity": 0.47244094488188976
          },
          {
            "duration": 1.40625,
            "durationTicks": 450,
            "midi": 66,
            "name": "F#4",
            "ticks": 218400,
            "time": 682.5,
            "velocity": 0.47244094488188976
          },
          {
            "duration": 1.40625,
            "durationTicks": 450,
            "midi": 66,
            "name": "F#4",
            "ticks": 218880,
            "time": 684,
            "velocity": 0.47244094488188976
          },
          {
            "duration": 1.40625,
            "durationTicks": 450,
            "midi": 64,
            "name": "E4",
            "ticks": 219360,
            "time": 685.5,
            "velocity": 0.47244094488188976
          },
          {
            "duration": 1.40625,
            "durationTicks": 450,
            "midi": 62,
            "name": "D4",
            "ticks": 219840,
            "time": 687,
            "velocity": 0.47244094488188976
          },
          {
            "duration": 1.40625,
            "durationTicks": 450,
            "midi": 62,
            "name": "D4",
            "ticks": 220320,
            "time": 688.5,
            "velocity": 0.47244094488188976
          },
          {
            "duration": 1.40625,
            "durationTicks": 450,
            "midi": 61,
            "name": "C#4",
            "ticks": 220800,
            "time": 690,
            "velocity": 0.47244094488188976
          },
          {
            "duration": 1.40625,
            "durationTicks": 450,
            "midi": 59,
            "name": "B3",
            "ticks": 221280,
            "time": 691.5,
            "velocity": 0.47244094488188976
          },
          {
            "duration": 1.40625,
            "durationTicks": 450,
            "midi": 59,
            "name": "B3",
            "ticks": 221760,
            "time": 693,
            "velocity": 0.47244094488188976
          },
          {
            "duration": 1.40625,
            "durationTicks": 450,
            "midi": 57,
            "name": "A3",
            "ticks": 222240,
            "time": 694.5,
            "velocity": 0.47244094488188976
          },
          {
            "duration": 0.7062500000000682,
            "durationTicks": 226,
            "midi": 55,
            "name": "G3",
            "ticks": 222720,
            "time": 696,
            "velocity": 0.47244094488188976
          }
        ]
      },
      {
        "channel": 0,
        "controlChanges": {},
        "pitchBends": [],
        "instrument": {
          "family": "piano",
          "number": 0,
          "name": "acoustic grand piano"
        },
        "name": "Violin 2",
        "notes": [],
        "endOfTrackTicks": 223200
      },
      {
        "channel": 11,
        "controlChanges": {
          "7": [
            {
              "number": 7,
              "ticks": 0,
              "time": 0,
              "value": 1
            }
          ],
          "10": [
            {
              "number": 10,
              "ticks": 0,
              "time": 0,
              "value": 0.31496062992125984
            },
            {
              "number": 10,
              "ticks": 0,
              "time": 0,
              "value": 0.31496062992125984
            }
          ]
        },
        "pitchBends": [],
        "instrument": {
          "family": "ensemble",
          "number": 48,
          "name": "string ensemble 1"
        },
        "name": "",
        "notes": [
          {
            "duration": 1.40625,
            "durationTicks": 450,
            "midi": 78,
            "name": "F#5",
            "ticks": 0,
            "time": 0,
            "velocity": 0.8661417322834646
          },
          {
            "duration": 0.7062500000000003,
            "durationTicks": 226,
            "midi": 70,
            "name": "A#4",
            "ticks": 480,
            "time": 1.5,
            "velocity": 0.8661417322834646
          },
          {
            "duration": 0.7062500000000003,
            "durationTicks": 226,
            "midi": 74,
            "name": "D5",
            "ticks": 720,
            "time": 2.25,
            "velocity": 0.8661417322834646
          },
          {
            "duration": 1.0562500000000004,
            "durationTicks": 338,
            "midi": 65,
            "name": "F4",
            "ticks": 960,
            "time": 3,
            "velocity": 0.84251968503937
          },
          {
            "duration": 0.3562499999999993,
            "durationTicks": 114,
            "midi": 73,
            "name": "C#5",
            "ticks": 1320,
            "time": 4.125,
            "velocity": 0.8031496062992126
          },
          {
            "duration": 3.7062500000000007,
            "durationTicks": 1186,
            "midi": 64,
            "name": "E4",
            "ticks": 1440,
            "time": 4.5,
            "velocity": 0.7086614173228346
          },
          {
            "duration": 1.40625,
            "durationTicks": 450,
            "midi": 78,
            "name": "F#5",
            "ticks": 2880,
            "time": 9,
            "velocity": 0.8661417322834646
          },
          {
            "duration": 0.7062500000000007,
            "durationTicks": 226,
            "midi": 69,
            "name": "A4",
            "ticks": 3360,
            "time": 10.5,
            "velocity": 0.8661417322834646
          },
          {
            "duration": 0.7062500000000007,
            "durationTicks": 226,
            "midi": 75,
            "name": "D#5",
            "ticks": 3600,
            "time": 11.25,
            "velocity": 0.8661417322834646
          },
          {
            "duration": 1.0562500000000021,
            "durationTicks": 338,
            "midi": 65,
            "name": "F4",
            "ticks": 3840,
            "time": 12,
            "velocity": 0.8582677165354331
          },
          {
            "duration": 0.35625000000000107,
            "durationTicks": 114,
            "midi": 71,
            "name": "B4",
            "ticks": 4200,
            "time": 13.125,
            "velocity": 0.8110236220472441
          },
          {
            "duration": 3.7062500000000007,
            "durationTicks": 1186,
            "midi": 64,
            "name": "E4",
            "ticks": 4320,
            "time": 13.5,
            "velocity": 0.7086614173228346
          },
          {
            "duration": 2.9562500000000007,
            "durationTicks": 946,
            "midi": 59,
            "name": "B3",
            "ticks": 5760,
            "time": 18,
            "velocity": 0.5275590551181102
          },
          {
            "duration": 1.0562500000000021,
            "durationTicks": 338,
            "midi": 59,
            "name": "B3",
            "ticks": 6720,
            "time": 21,
            "velocity": 0.5275590551181102
          },
          {
            "duration": 0.35625000000000284,
            "durationTicks": 114,
            "midi": 57,
            "name": "A3",
            "ticks": 7080,
            "time": 22.125,
            "velocity": 0.5275590551181102
          },
          {
            "duration": 2.8125,
            "durationTicks": 900,
            "midi": 57,
            "name": "A3",
            "ticks": 7200,
            "time": 22.5,
            "velocity": 0.49606299212598426
          },
          {
            "duration": 2.9562500000000043,
            "durationTicks": 946,
            "midi": 62,
            "name": "D4",
            "ticks": 8640,
            "time": 27,
            "velocity": 0.5275590551181102
          },
          {
            "duration": 1.0562499999999986,
            "durationTicks": 338,
            "midi": 62,
            "name": "D4",
            "ticks": 9600,
            "time": 30,
            "velocity": 0.5275590551181102
          },
          {
            "duration": 0.35625000000000284,
            "durationTicks": 114,
            "midi": 61,
            "name": "C#4",
            "ticks": 9960,
            "time": 31.125,
            "velocity": 0.5275590551181102
          },
          {
            "duration": 2.8125,
            "durationTicks": 900,
            "midi": 61,
            "name": "C#4",
            "ticks": 10080,
            "time": 31.5,
            "velocity": 0.5275590551181102
          },
          {
            "duration": 2.1125000000000043,
            "durationTicks": 676,
            "midi": 62,
            "name": "D4",
            "ticks": 11520,
            "time": 36,
            "velocity": 0.5039370078740157
          },
          {
            "duration": 0.7062500000000043,
            "durationTicks": 226,
            "midi": 64,
            "name": "E4",
            "ticks": 12240,
            "time": 38.25,
            "velocity": 0.5590551181102362
          },
          {
            "duration": 1.40625,
            "durationTicks": 450,
            "midi": 61,
            "name": "C#4",
            "ticks": 12480,
            "time": 39,
            "velocity": 0.5748031496062992
          },
          {
            "duration": 2.1125000000000043,
            "durationTicks": 676,
            "midi": 66,
            "name": "F#4",
            "ticks": 12960,
            "time": 40.5,
            "velocity": 0.6141732283464567
          },
          {
            "duration": 0.7062500000000043,
            "durationTicks": 226,
            "midi": 66,
            "name": "F#4",
            "ticks": 13680,
            "time": 42.75,
            "velocity": 0.6692913385826772
          },
          {
            "duration": 1.40625,
            "durationTicks": 450,
            "midi": 64,
            "name": "E4",
            "ticks": 13920,
            "time": 43.5,
            "velocity": 0.6850393700787402
          },
          {
            "duration": 2.1125000000000043,
            "durationTicks": 676,
            "midi": 69,
            "name": "A4",
            "ticks": 14400,
            "time": 45,
            "velocity": 0.7244094488188977
          },
          {
            "duration": 2.1125000000000043,
            "durationTicks": 676,
            "midi": 81,
            "name": "A5",
            "ticks": 14400,
            "time": 45,
            "velocity": 0.7244094488188977
          },
          {
            "duration": 0.7062500000000043,
            "durationTicks": 226,
            "midi": 71,
            "name": "B4",
            "ticks": 15120,
            "time": 47.25,
            "velocity": 0.7795275590551181
          },
          {
            "duration": 0.7062500000000043,
            "durationTicks": 226,
            "midi": 80,
            "name": "G#5",
            "ticks": 15120,
            "time": 47.25,
            "velocity": 0.7795275590551181
          },
          {
            "duration": 1.40625,
            "durationTicks": 450,
            "midi": 73,
            "name": "C#5",
            "ticks": 15360,
            "time": 48,
            "velocity": 0.7952755905511811
          },
          {
            "duration": 1.40625,
            "durationTicks": 450,
            "midi": 80,
            "name": "G#5",
            "ticks": 15360,
            "time": 48,
            "velocity": 0.7952755905511811
          },
          {
            "duration": 5.206249999999997,
            "durationTicks": 1666,
            "midi": 62,
            "name": "D4",
            "ticks": 15840,
            "time": 49.5,
            "velocity": 0.7874015748031497
          },
          {
            "duration": 5.206249999999997,
            "durationTicks": 1666,
            "midi": 74,
            "name": "D5",
            "ticks": 15840,
            "time": 49.5,
            "velocity": 0.7874015748031497
          },
          {
            "duration": 2.206249999999997,
            "durationTicks": 706,
            "midi": 62,
            "name": "D4",
            "ticks": 17760,
            "time": 55.5,
            "velocity": 0.7086614173228346
          },
          {
            "duration": 2.206249999999997,
            "durationTicks": 706,
            "midi": 71,
            "name": "B4",
            "ticks": 17760,
            "time": 55.5,
            "velocity": 0.7086614173228346
          },
          {
            "duration": 1.40625,
            "durationTicks": 450,
            "midi": 65,
            "name": "F4",
            "ticks": 18720,
            "time": 58.5,
            "velocity": 0.7086614173228346
          },
          {
            "duration": 0.7062499999999972,
            "durationTicks": 226,
            "midi": 64,
            "name": "E4",
            "ticks": 19200,
            "time": 60,
            "velocity": 0.6929133858267716
          },
          {
            "duration": 1.40625,
            "durationTicks": 450,
            "midi": 59,
            "name": "B3",
            "ticks": 19680,
            "time": 61.5,
            "velocity": 0.6692913385826772
          },
          {
            "duration": 0.7062499999999972,
            "durationTicks": 226,
            "midi": 64,
            "name": "E4",
            "ticks": 20160,
            "time": 63,
            "velocity": 0.6220472440944882
          },
          {
            "duration": 0.35624999999998863,
            "durationTicks": 114,
            "midi": 59,
            "name": "B3",
            "ticks": 26520,
            "time": 82.875,
            "velocity": 0.4881889763779528
          },
          {
            "duration": 0.35624999999998863,
            "durationTicks": 114,
            "midi": 67,
            "name": "G4",
            "ticks": 26640,
            "time": 83.25,
            "velocity": 0.5196850393700787
          },
          {
            "duration": 0.35624999999998863,
            "durationTicks": 114,
            "midi": 64,
            "name": "E4",
            "ticks": 26760,
            "time": 83.625,
            "velocity": 0.5433070866141733
          },
          {
            "duration": 0.35624999999998863,
            "durationTicks": 114,
            "midi": 71,
            "name": "B4",
            "ticks": 26880,
            "time": 84,
            "velocity": 0.5748031496062992
          },
          {
            "duration": 0.35624999999998863,
            "durationTicks": 114,
            "midi": 67,
            "name": "G4",
            "ticks": 27000,
            "time": 84.375,
            "velocity": 0.5984251968503937
          },
          {
            "duration": 0.35624999999998863,
            "durationTicks": 114,
            "midi": 74,
            "name": "D5",
            "ticks": 27120,
            "time": 84.75,
            "velocity": 0.6220472440944882
          },
          {
            "duration": 0.35624999999998863,
            "durationTicks": 114,
            "midi": 70,
            "name": "A#4",
            "ticks": 27240,
            "time": 85.125,
            "velocity": 0.6535433070866141
          },
          {
            "duration": 1.40625,
            "durationTicks": 450,
            "midi": 78,
            "name": "F#5",
            "ticks": 27360,
            "time": 85.5,
            "velocity": 0.8661417322834646
          },
          {
            "duration": 0.7062499999999972,
            "durationTicks": 226,
            "midi": 70,
            "name": "A#4",
            "ticks": 27840,
            "time": 87,
            "velocity": 0.8661417322834646
          },
          {
            "duration": 0.7062499999999972,
            "durationTicks": 226,
            "midi": 74,
            "name": "D5",
            "ticks": 28080,
            "time": 87.75,
            "velocity": 0.8661417322834646
          },
          {
            "duration": 1.0562500000000057,
            "durationTicks": 338,
            "midi": 65,
            "name": "F4",
            "ticks": 28320,
            "time": 88.5,
            "velocity": 0.8582677165354331
          },
          {
            "duration": 0.35624999999998863,
            "durationTicks": 114,
            "midi": 71,
            "name": "B4",
            "ticks": 28680,
            "time": 89.625,
            "velocity": 0.8110236220472441
          },
          {
            "duration": 3.706249999999997,
            "durationTicks": 1186,
            "midi": 64,
            "name": "E4",
            "ticks": 28800,
            "time": 90,
            "velocity": 0.7086614173228346
          },
          {
            "duration": 1.40625,
            "durationTicks": 450,
            "midi": 78,
            "name": "F#5",
            "ticks": 30240,
            "time": 94.5,
            "velocity": 0.8661417322834646
          },
          {
            "duration": 0.7062499999999972,
            "durationTicks": 226,
            "midi": 70,
            "name": "A#4",
            "ticks": 30720,
            "time": 96,
            "velocity": 0.8661417322834646
          },
          {
            "duration": 0.7062499999999972,
            "durationTicks": 226,
            "midi": 74,
            "name": "D5",
            "ticks": 30960,
            "time": 96.75,
            "velocity": 0.8661417322834646
          },
          {
            "duration": 1.0562500000000057,
            "durationTicks": 338,
            "midi": 65,
            "name": "F4",
            "ticks": 31200,
            "time": 97.5,
            "velocity": 0.8582677165354331
          },
          {
            "duration": 0.35624999999998863,
            "durationTicks": 114,
            "midi": 71,
            "name": "B4",
            "ticks": 31560,
            "time": 98.625,
            "velocity": 0.8110236220472441
          },
          {
            "duration": 3.706249999999997,
            "durationTicks": 1186,
            "midi": 64,
            "name": "E4",
            "ticks": 31680,
            "time": 99,
            "velocity": 0.7086614173228346
          },
          {
            "duration": 2.956249999999997,
            "durationTicks": 946,
            "midi": 59,
            "name": "B3",
            "ticks": 33120,
            "time": 103.5,
            "velocity": 0.5275590551181102
          },
          {
            "duration": 1.0562500000000057,
            "durationTicks": 338,
            "midi": 59,
            "name": "B3",
            "ticks": 34080,
            "time": 106.5,
            "velocity": 0.5275590551181102
          },
          {
            "duration": 0.35624999999998863,
            "durationTicks": 114,
            "midi": 57,
            "name": "A3",
            "ticks": 34440,
            "time": 107.625,
            "velocity": 0.5275590551181102
          },
          {
            "duration": 3.6000000000000085,
            "durationTicks": 1152,
            "midi": 57,
            "name": "A3",
            "ticks": 34560,
            "time": 108,
            "velocity": 0.49606299212598426
          },
          {
            "duration": 1.40625,
            "durationTicks": 450,
            "midi": 62,
            "name": "D4",
            "ticks": 65760,
            "time": 205.5,
            "velocity": 0.5433070866141733
          },
          {
            "duration": 1.40625,
            "durationTicks": 450,
            "midi": 74,
            "name": "D5",
            "ticks": 65760,
            "time": 205.5,
            "velocity": 0.5433070866141733
          },
          {
            "duration": 1.40625,
            "durationTicks": 450,
            "midi": 62,
            "name": "D4",
            "ticks": 66240,
            "time": 207,
            "velocity": 0.44881889763779526
          },
          {
            "duration": 1.40625,
            "durationTicks": 450,
            "midi": 74,
            "name": "D5",
            "ticks": 66240,
            "time": 207,
            "velocity": 0.44881889763779526
          },
          {
            "duration": 1.40625,
            "durationTicks": 450,
            "midi": 61,
            "name": "C#4",
            "ticks": 66720,
            "time": 208.5,
            "velocity": 0.44881889763779526
          },
          {
            "duration": 1.40625,
            "durationTicks": 450,
            "midi": 73,
            "name": "C#5",
            "ticks": 66720,
            "time": 208.5,
            "velocity": 0.44881889763779526
          },
          {
            "duration": 1.40625,
            "durationTicks": 450,
            "midi": 59,
            "name": "B3",
            "ticks": 67200,
            "time": 210,
            "velocity": 0.44881889763779526
          },
          {
            "duration": 1.40625,
            "durationTicks": 450,
            "midi": 71,
            "name": "B4",
            "ticks": 67200,
            "time": 210,
            "velocity": 0.44881889763779526
          },
          {
            "duration": 2.8125,
            "durationTicks": 900,
            "midi": 57,
            "name": "A3",
            "ticks": 67680,
            "time": 211.5,
            "velocity": 0.4881889763779528
          },
          {
            "duration": 2.8125,
            "durationTicks": 900,
            "midi": 69,
            "name": "A4",
            "ticks": 67680,
            "time": 211.5,
            "velocity": 0.4881889763779528
          },
          {
            "duration": 1.40625,
            "durationTicks": 450,
            "midi": 62,
            "name": "D4",
            "ticks": 68640,
            "time": 214.5,
            "velocity": 0.4881889763779528
          },
          {
            "duration": 1.40625,
            "durationTicks": 450,
            "midi": 74,
            "name": "D5",
            "ticks": 68640,
            "time": 214.5,
            "velocity": 0.4881889763779528
          },
          {
            "duration": 1.40625,
            "durationTicks": 450,
            "midi": 62,
            "name": "D4",
            "ticks": 69120,
            "time": 216,
            "velocity": 0.44881889763779526
          },
          {
            "duration": 1.40625,
            "durationTicks": 450,
            "midi": 74,
            "name": "D5",
            "ticks": 69120,
            "time": 216,
            "velocity": 0.44881889763779526
          },
          {
            "duration": 1.40625,
            "durationTicks": 450,
            "midi": 61,
            "name": "C#4",
            "ticks": 69600,
            "time": 217.5,
            "velocity": 0.44881889763779526
          },
          {
            "duration": 1.40625,
            "durationTicks": 450,
            "midi": 73,
            "name": "C#5",
            "ticks": 69600,
            "time": 217.5,
            "velocity": 0.44881889763779526
          },
          {
            "duration": 1.40625,
            "durationTicks": 450,
            "midi": 59,
            "name": "B3",
            "ticks": 70080,
            "time": 219,
            "velocity": 0.44881889763779526
          },
          {
            "duration": 1.40625,
            "durationTicks": 450,
            "midi": 71,
            "name": "B4",
            "ticks": 70080,
            "time": 219,
            "velocity": 0.44881889763779526
          },
          {
            "duration": 2.8125,
            "durationTicks": 900,
            "midi": 57,
            "name": "A3",
            "ticks": 70560,
            "time": 220.5,
            "velocity": 0.4881889763779528
          },
          {
            "duration": 2.8125,
            "durationTicks": 900,
            "midi": 69,
            "name": "A4",
            "ticks": 70560,
            "time": 220.5,
            "velocity": 0.4881889763779528
          },
          {
            "duration": 1.40625,
            "durationTicks": 450,
            "midi": 62,
            "name": "D4",
            "ticks": 71520,
            "time": 223.5,
            "velocity": 0.4881889763779528
          },
          {
            "duration": 1.40625,
            "durationTicks": 450,
            "midi": 74,
            "name": "D5",
            "ticks": 71520,
            "time": 223.5,
            "velocity": 0.4881889763779528
          },
          {
            "duration": 1.40625,
            "durationTicks": 450,
            "midi": 63,
            "name": "D#4",
            "ticks": 72000,
            "time": 225,
            "velocity": 0.47244094488188976
          },
          {
            "duration": 1.40625,
            "durationTicks": 450,
            "midi": 75,
            "name": "D#5",
            "ticks": 72000,
            "time": 225,
            "velocity": 0.47244094488188976
          },
          {
            "duration": 1.40625,
            "durationTicks": 450,
            "midi": 64,
            "name": "E4",
            "ticks": 72480,
            "time": 226.5,
            "velocity": 0.4881889763779528
          },
          {
            "duration": 1.40625,
            "durationTicks": 450,
            "midi": 76,
            "name": "E5",
            "ticks": 72480,
            "time": 226.5,
            "velocity": 0.4881889763779528
          },
          {
            "duration": 1.40625,
            "durationTicks": 450,
            "midi": 64,
            "name": "E4",
            "ticks": 72960,
            "time": 228,
            "velocity": 0.5039370078740157
          },
          {
            "duration": 1.40625,
            "durationTicks": 450,
            "midi": 76,
            "name": "E5",
            "ticks": 72960,
            "time": 228,
            "velocity": 0.5039370078740157
          },
          {
            "duration": 1.40625,
            "durationTicks": 450,
            "midi": 65,
            "name": "F4",
            "ticks": 73440,
            "time": 229.5,
            "velocity": 0.5196850393700787
          },
          {
            "duration": 1.40625,
            "durationTicks": 450,
            "midi": 77,
            "name": "F5",
            "ticks": 73440,
            "time": 229.5,
            "velocity": 0.5196850393700787
          },
          {
            "duration": 1.40625,
            "durationTicks": 450,
            "midi": 66,
            "name": "F#4",
            "ticks": 73920,
            "time": 231,
            "velocity": 0.5354330708661418
          },
          {
            "duration": 1.40625,
            "durationTicks": 450,
            "midi": 78,
            "name": "F#5",
            "ticks": 73920,
            "time": 231,
            "velocity": 0.5354330708661418
          },
          {
            "duration": 1.40625,
            "durationTicks": 450,
            "midi": 66,
            "name": "F#4",
            "ticks": 74400,
            "time": 232.5,
            "velocity": 0.5511811023622047
          },
          {
            "duration": 1.40625,
            "durationTicks": 450,
            "midi": 78,
            "name": "F#5",
            "ticks": 74400,
            "time": 232.5,
            "velocity": 0.5511811023622047
          },
          {
            "duration": 1.40625,
            "durationTicks": 450,
            "midi": 66,
            "name": "F#4",
            "ticks": 74880,
            "time": 234,
            "velocity": 0.5669291338582677
          },
          {
            "duration": 1.40625,
            "durationTicks": 450,
            "midi": 78,
            "name": "F#5",
            "ticks": 74880,
            "time": 234,
            "velocity": 0.5669291338582677
          },
          {
            "duration": 1.40625,
            "durationTicks": 450,
            "midi": 67,
            "name": "G4",
            "ticks": 75360,
            "time": 235.5,
            "velocity": 0.5826771653543307
          },
          {
            "duration": 1.40625,
            "durationTicks": 450,
            "midi": 79,
            "name": "G5",
            "ticks": 75360,
            "time": 235.5,
            "velocity": 0.5826771653543307
          },
          {
            "duration": 1.40625,
            "durationTicks": 450,
            "midi": 67,
            "name": "G4",
            "ticks": 75840,
            "time": 237,
            "velocity": 0.5984251968503937
          },
          {
            "duration": 1.40625,
            "durationTicks": 450,
            "midi": 79,
            "name": "G5",
            "ticks": 75840,
            "time": 237,
            "velocity": 0.5984251968503937
          },
          {
            "duration": 1.40625,
            "durationTicks": 450,
            "midi": 68,
            "name": "G#4",
            "ticks": 76320,
            "time": 238.5,
            "velocity": 0.6141732283464567
          },
          {
            "duration": 1.40625,
            "durationTicks": 450,
            "midi": 80,
            "name": "G#5",
            "ticks": 76320,
            "time": 238.5,
            "velocity": 0.6141732283464567
          },
          {
            "duration": 1.40625,
            "durationTicks": 450,
            "midi": 69,
            "name": "A4",
            "ticks": 76800,
            "time": 240,
            "velocity": 0.6377952755905512
          },
          {
            "duration": 1.40625,
            "durationTicks": 450,
            "midi": 81,
            "name": "A5",
            "ticks": 76800,
            "time": 240,
            "velocity": 0.6377952755905512
          },
          {
            "duration": 1.40625,
            "durationTicks": 450,
            "midi": 74,
            "name": "D5",
            "ticks": 77280,
            "time": 241.5,
            "velocity": 0.6299212598425197
          },
          {
            "duration": 1.40625,
            "durationTicks": 450,
            "midi": 74,
            "name": "D5",
            "ticks": 77760,
            "time": 243,
            "velocity": 0.5511811023622047
          },
          {
            "duration": 1.40625,
            "durationTicks": 450,
            "midi": 73,
            "name": "C#5",
            "ticks": 78240,
            "time": 244.5,
            "velocity": 0.5669291338582677
          },
          {
            "duration": 1.40625,
            "durationTicks": 450,
            "midi": 71,
            "name": "B4",
            "ticks": 78720,
            "time": 246,
            "velocity": 0.5826771653543307
          },
          {
            "duration": 2.8125,
            "durationTicks": 900,
            "midi": 69,
            "name": "A4",
            "ticks": 79200,
            "time": 247.5,
            "velocity": 0.5984251968503937
          },
          {
            "duration": 1.40625,
            "durationTicks": 450,
            "midi": 74,
            "name": "D5",
            "ticks": 80160,
            "time": 250.5,
            "velocity": 0.6377952755905512
          },
          {
            "duration": 1.40625,
            "durationTicks": 450,
            "midi": 74,
            "name": "D5",
            "ticks": 80640,
            "time": 252,
            "velocity": 0.6535433070866141
          },
          {
            "duration": 1.40625,
            "durationTicks": 450,
            "midi": 73,
            "name": "C#5",
            "ticks": 81120,
            "time": 253.5,
            "velocity": 0.6692913385826772
          },
          {
            "duration": 1.40625,
            "durationTicks": 450,
            "midi": 71,
            "name": "B4",
            "ticks": 81600,
            "time": 255,
            "velocity": 0.6850393700787402
          },
          {
            "duration": 2.8125,
            "durationTicks": 900,
            "midi": 69,
            "name": "A4",
            "ticks": 82080,
            "time": 256.5,
            "velocity": 0.7007874015748031
          },
          {
            "duration": 1.40625,
            "durationTicks": 450,
            "midi": 78,
            "name": "F#5",
            "ticks": 83040,
            "time": 259.5,
            "velocity": 0.7322834645669292
          },
          {
            "duration": 1.40625,
            "durationTicks": 450,
            "midi": 78,
            "name": "F#5",
            "ticks": 83520,
            "time": 261,
            "velocity": 0.7559055118110236
          },
          {
            "duration": 1.40625,
            "durationTicks": 450,
            "midi": 76,
            "name": "E5",
            "ticks": 84000,
            "time": 262.5,
            "velocity": 0.7716535433070866
          },
          {
            "duration": 1.40625,
            "durationTicks": 450,
            "midi": 79,
            "name": "G5",
            "ticks": 84480,
            "time": 264,
            "velocity": 0.7874015748031497
          },
          {
            "duration": 1.40625,
            "durationTicks": 450,
            "midi": 79,
            "name": "G5",
            "ticks": 84960,
            "time": 265.5,
            "velocity": 0.8031496062992126
          },
          {
            "duration": 1.40625,
            "durationTicks": 450,
            "midi": 78,
            "name": "F#5",
            "ticks": 85440,
            "time": 267,
            "velocity": 0.8188976377952756
          },
          {
            "duration": 1.40625,
            "durationTicks": 450,
            "midi": 81,
            "name": "A5",
            "ticks": 85920,
            "time": 268.5,
            "velocity": 0.8346456692913385
          },
          {
            "duration": 1.40625,
            "durationTicks": 450,
            "midi": 81,
            "name": "A5",
            "ticks": 86400,
            "time": 270,
            "velocity": 0.8503937007874016
          },
          {
            "duration": 1.40625,
            "durationTicks": 450,
            "midi": 79,
            "name": "G5",
            "ticks": 86880,
            "time": 271.5,
            "velocity": 0.8740157480314961
          },
          {
            "duration": 1.40625,
            "durationTicks": 450,
            "midi": 71,
            "name": "B4",
            "ticks": 87360,
            "time": 273,
            "velocity": 0.889763779527559
          },
          {
            "duration": 2.8125,
            "durationTicks": 900,
            "midi": 76,
            "name": "E5",
            "ticks": 87840,
            "time": 274.5,
            "velocity": 0.905511811023622
          },
          {
            "duration": 1.40625,
            "durationTicks": 450,
            "midi": 74,
            "name": "D5",
            "ticks": 88800,
            "time": 277.5,
            "velocity": 0.7874015748031497
          },
          {
            "duration": 1.40625,
            "durationTicks": 450,
            "midi": 86,
            "name": "D6",
            "ticks": 88800,
            "time": 277.5,
            "velocity": 0.7874015748031497
          },
          {
            "duration": 1.40625,
            "durationTicks": 450,
            "midi": 74,
            "name": "D5",
            "ticks": 89280,
            "time": 279,
            "velocity": 0.7874015748031497
          },
          {
            "duration": 1.40625,
            "durationTicks": 450,
            "midi": 86,
            "name": "D6",
            "ticks": 89280,
            "time": 279,
            "velocity": 0.7874015748031497
          },
          {
            "duration": 1.40625,
            "durationTicks": 450,
            "midi": 73,
            "name": "C#5",
            "ticks": 89760,
            "time": 280.5,
            "velocity": 0.7874015748031497
          },
          {
            "duration": 1.40625,
            "durationTicks": 450,
            "midi": 85,
            "name": "C#6",
            "ticks": 89760,
            "time": 280.5,
            "velocity": 0.7874015748031497
          },
          {
            "duration": 1.40625,
            "durationTicks": 450,
            "midi": 71,
            "name": "B4",
            "ticks": 90240,
            "time": 282,
            "velocity": 0.7874015748031497
          },
          {
            "duration": 1.40625,
            "durationTicks": 450,
            "midi": 83,
            "name": "B5",
            "ticks": 90240,
            "time": 282,
            "velocity": 0.7874015748031497
          },
          {
            "duration": 2.8125,
            "durationTicks": 900,
            "midi": 69,
            "name": "A4",
            "ticks": 90720,
            "time": 283.5,
            "velocity": 0.7952755905511811
          },
          {
            "duration": 2.8125,
            "durationTicks": 900,
            "midi": 81,
            "name": "A5",
            "ticks": 90720,
            "time": 283.5,
            "velocity": 0.7952755905511811
          },
          {
            "duration": 1.40625,
            "durationTicks": 450,
            "midi": 74,
            "name": "D5",
            "ticks": 91680,
            "time": 286.5,
            "velocity": 0.7952755905511811
          },
          {
            "duration": 1.40625,
            "durationTicks": 450,
            "midi": 86,
            "name": "D6",
            "ticks": 91680,
            "time": 286.5,
            "velocity": 0.7952755905511811
          },
          {
            "duration": 1.40625,
            "durationTicks": 450,
            "midi": 74,
            "name": "D5",
            "ticks": 92160,
            "time": 288,
            "velocity": 0.7874015748031497
          },
          {
            "duration": 1.40625,
            "durationTicks": 450,
            "midi": 86,
            "name": "D6",
            "ticks": 92160,
            "time": 288,
            "velocity": 0.7874015748031497
          },
          {
            "duration": 1.40625,
            "durationTicks": 450,
            "midi": 73,
            "name": "C#5",
            "ticks": 92640,
            "time": 289.5,
            "velocity": 0.7874015748031497
          },
          {
            "duration": 1.40625,
            "durationTicks": 450,
            "midi": 85,
            "name": "C#6",
            "ticks": 92640,
            "time": 289.5,
            "velocity": 0.7874015748031497
          },
          {
            "duration": 1.40625,
            "durationTicks": 450,
            "midi": 71,
            "name": "B4",
            "ticks": 93120,
            "time": 291,
            "velocity": 0.7874015748031497
          },
          {
            "duration": 1.40625,
            "durationTicks": 450,
            "midi": 83,
            "name": "B5",
            "ticks": 93120,
            "time": 291,
            "velocity": 0.7874015748031497
          },
          {
            "duration": 2.8125,
            "durationTicks": 900,
            "midi": 69,
            "name": "A4",
            "ticks": 93600,
            "time": 292.5,
            "velocity": 0.7952755905511811
          },
          {
            "duration": 2.8125,
            "durationTicks": 900,
            "midi": 81,
            "name": "A5",
            "ticks": 93600,
            "time": 292.5,
            "velocity": 0.7952755905511811
          },
          {
            "duration": 1.40625,
            "durationTicks": 450,
            "midi": 74,
            "name": "D5",
            "ticks": 94560,
            "time": 295.5,
            "velocity": 0.7952755905511811
          },
          {
            "duration": 1.40625,
            "durationTicks": 450,
            "midi": 86,
            "name": "D6",
            "ticks": 94560,
            "time": 295.5,
            "velocity": 0.7952755905511811
          },
          {
            "duration": 1.40625,
            "durationTicks": 450,
            "midi": 75,
            "name": "D#5",
            "ticks": 95040,
            "time": 297,
            "velocity": 0.7952755905511811
          },
          {
            "duration": 1.40625,
            "durationTicks": 450,
            "midi": 87,
            "name": "D#6",
            "ticks": 95040,
            "time": 297,
            "velocity": 0.7952755905511811
          },
          {
            "duration": 1.40625,
            "durationTicks": 450,
            "midi": 76,
            "name": "E5",
            "ticks": 95520,
            "time": 298.5,
            "velocity": 0.7952755905511811
          },
          {
            "duration": 1.40625,
            "durationTicks": 450,
            "midi": 88,
            "name": "E6",
            "ticks": 95520,
            "time": 298.5,
            "velocity": 0.7952755905511811
          },
          {
            "duration": 1.40625,
            "durationTicks": 450,
            "midi": 76,
            "name": "E5",
            "ticks": 96000,
            "time": 300,
            "velocity": 0.7952755905511811
          },
          {
            "duration": 1.40625,
            "durationTicks": 450,
            "midi": 88,
            "name": "E6",
            "ticks": 96000,
            "time": 300,
            "velocity": 0.7952755905511811
          },
          {
            "duration": 1.40625,
            "durationTicks": 450,
            "midi": 77,
            "name": "F5",
            "ticks": 96480,
            "time": 301.5,
            "velocity": 0.7952755905511811
          },
          {
            "duration": 1.40625,
            "durationTicks": 450,
            "midi": 89,
            "name": "F6",
            "ticks": 96480,
            "time": 301.5,
            "velocity": 0.7952755905511811
          },
          {
            "duration": 1.40625,
            "durationTicks": 450,
            "midi": 78,
            "name": "F#5",
            "ticks": 96960,
            "time": 303,
            "velocity": 0.7952755905511811
          },
          {
            "duration": 1.40625,
            "durationTicks": 450,
            "midi": 90,
            "name": "F#6",
            "ticks": 96960,
            "time": 303,
            "velocity": 0.7952755905511811
          },
          {
            "duration": 1.40625,
            "durationTicks": 450,
            "midi": 78,
            "name": "F#5",
            "ticks": 97440,
            "time": 304.5,
            "velocity": 0.7952755905511811
          },
          {
            "duration": 1.40625,
            "durationTicks": 450,
            "midi": 90,
            "name": "F#6",
            "ticks": 97440,
            "time": 304.5,
            "velocity": 0.7952755905511811
          },
          {
            "duration": 1.40625,
            "durationTicks": 450,
            "midi": 78,
            "name": "F#5",
            "ticks": 97920,
            "time": 306,
            "velocity": 0.7874015748031497
          },
          {
            "duration": 1.40625,
            "durationTicks": 450,
            "midi": 90,
            "name": "F#6",
            "ticks": 97920,
            "time": 306,
            "velocity": 0.7874015748031497
          },
          {
            "duration": 1.40625,
            "durationTicks": 450,
            "midi": 79,
            "name": "G5",
            "ticks": 98400,
            "time": 307.5,
            "velocity": 0.8110236220472441
          },
          {
            "duration": 1.40625,
            "durationTicks": 450,
            "midi": 91,
            "name": "G6",
            "ticks": 98400,
            "time": 307.5,
            "velocity": 0.8110236220472441
          },
          {
            "duration": 1.40625,
            "durationTicks": 450,
            "midi": 79,
            "name": "G5",
            "ticks": 98880,
            "time": 309,
            "velocity": 0.8346456692913385
          },
          {
            "duration": 1.40625,
            "durationTicks": 450,
            "midi": 91,
            "name": "G6",
            "ticks": 98880,
            "time": 309,
            "velocity": 0.8346456692913385
          },
          {
            "duration": 1.40625,
            "durationTicks": 450,
            "midi": 80,
            "name": "G#5",
            "ticks": 99360,
            "time": 310.5,
            "velocity": 0.8582677165354331
          },
          {
            "duration": 1.40625,
            "durationTicks": 450,
            "midi": 92,
            "name": "G#6",
            "ticks": 99360,
            "time": 310.5,
            "velocity": 0.8582677165354331
          },
          {
            "duration": 1.40625,
            "durationTicks": 450,
            "midi": 81,
            "name": "A5",
            "ticks": 99840,
            "time": 312,
            "velocity": 0.8818897637795275
          },
          {
            "duration": 1.40625,
            "durationTicks": 450,
            "midi": 93,
            "name": "A6",
            "ticks": 99840,
            "time": 312,
            "velocity": 0.8818897637795275
          },
          {
            "duration": 1.40625,
            "durationTicks": 450,
            "midi": 82,
            "name": "A#5",
            "ticks": 100320,
            "time": 313.5,
            "velocity": 0.905511811023622
          },
          {
            "duration": 1.40625,
            "durationTicks": 450,
            "midi": 94,
            "name": "A#6",
            "ticks": 100320,
            "time": 313.5,
            "velocity": 0.905511811023622
          },
          {
            "duration": 5.206250000000011,
            "durationTicks": 1666,
            "midi": 83,
            "name": "B5",
            "ticks": 100800,
            "time": 315,
            "velocity": 1
          },
          {
            "duration": 5.206250000000011,
            "durationTicks": 1666,
            "midi": 95,
            "name": "B6",
            "ticks": 100800,
            "time": 315,
            "velocity": 1
          },
          {
            "duration": 0.7062500000000114,
            "durationTicks": 226,
            "midi": 81,
            "name": "A5",
            "ticks": 102480,
            "time": 320.25,
            "velocity": 1
          },
          {
            "duration": 0.7062500000000114,
            "durationTicks": 226,
            "midi": 93,
            "name": "A6",
            "ticks": 102480,
            "time": 320.25,
            "velocity": 1
          },
          {
            "duration": 0.7062500000000114,
            "durationTicks": 226,
            "midi": 79,
            "name": "G5",
            "ticks": 102720,
            "time": 321,
            "velocity": 1
          },
          {
            "duration": 0.7062500000000114,
            "durationTicks": 226,
            "midi": 91,
            "name": "G6",
            "ticks": 102720,
            "time": 321,
            "velocity": 1
          },
          {
            "duration": 0.7062500000000114,
            "durationTicks": 226,
            "midi": 78,
            "name": "F#5",
            "ticks": 102960,
            "time": 321.75,
            "velocity": 1
          },
          {
            "duration": 0.7062500000000114,
            "durationTicks": 226,
            "midi": 90,
            "name": "F#6",
            "ticks": 102960,
            "time": 321.75,
            "velocity": 1
          },
          {
            "duration": 0.7062500000000114,
            "durationTicks": 226,
            "midi": 76,
            "name": "E5",
            "ticks": 103200,
            "time": 322.5,
            "velocity": 1
          },
          {
            "duration": 0.7062500000000114,
            "durationTicks": 226,
            "midi": 88,
            "name": "E6",
            "ticks": 103200,
            "time": 322.5,
            "velocity": 1
          },
          {
            "duration": 0.7062500000000114,
            "durationTicks": 226,
            "midi": 74,
            "name": "D5",
            "ticks": 103440,
            "time": 323.25,
            "velocity": 1
          },
          {
            "duration": 0.7062500000000114,
            "durationTicks": 226,
            "midi": 86,
            "name": "D6",
            "ticks": 103440,
            "time": 323.25,
            "velocity": 1
          },
          {
            "duration": 5.206250000000011,
            "durationTicks": 1666,
            "midi": 79,
            "name": "G5",
            "ticks": 103680,
            "time": 324,
            "velocity": 1
          },
          {
            "duration": 5.206250000000011,
            "durationTicks": 1666,
            "midi": 91,
            "name": "G6",
            "ticks": 103680,
            "time": 324,
            "velocity": 1
          },
          {
            "duration": 0.7062500000000114,
            "durationTicks": 226,
            "midi": 78,
            "name": "F#5",
            "ticks": 105360,
            "time": 329.25,
            "velocity": 1
          },
          {
            "duration": 0.7062500000000114,
            "durationTicks": 226,
            "midi": 90,
            "name": "F#6",
            "ticks": 105360,
            "time": 329.25,
            "velocity": 1
          },
          {
            "duration": 0.7062500000000114,
            "durationTicks": 226,
            "midi": 76,
            "name": "E5",
            "ticks": 105600,
            "time": 330,
            "velocity": 1
          },
          {
            "duration": 0.7062500000000114,
            "durationTicks": 226,
            "midi": 88,
            "name": "E6",
            "ticks": 105600,
            "time": 330,
            "velocity": 1
          },
          {
            "duration": 0.7062500000000114,
            "durationTicks": 226,
            "midi": 74,
            "name": "D5",
            "ticks": 105840,
            "time": 330.75,
            "velocity": 1
          },
          {
            "duration": 0.7062500000000114,
            "durationTicks": 226,
            "midi": 86,
            "name": "D6",
            "ticks": 105840,
            "time": 330.75,
            "velocity": 1
          },
          {
            "duration": 0.7062500000000114,
            "durationTicks": 226,
            "midi": 72,
            "name": "C5",
            "ticks": 106080,
            "time": 331.5,
            "velocity": 1
          },
          {
            "duration": 0.7062500000000114,
            "durationTicks": 226,
            "midi": 84,
            "name": "C6",
            "ticks": 106080,
            "time": 331.5,
            "velocity": 1
          },
          {
            "duration": 0.7062500000000114,
            "durationTicks": 226,
            "midi": 71,
            "name": "B4",
            "ticks": 106320,
            "time": 332.25,
            "velocity": 1
          },
          {
            "duration": 0.7062500000000114,
            "durationTicks": 226,
            "midi": 83,
            "name": "B5",
            "ticks": 106320,
            "time": 332.25,
            "velocity": 1
          },
          {
            "duration": 5.206250000000011,
            "durationTicks": 1666,
            "midi": 76,
            "name": "E5",
            "ticks": 106560,
            "time": 333,
            "velocity": 1
          },
          {
            "duration": 5.206250000000011,
            "durationTicks": 1666,
            "midi": 88,
            "name": "E6",
            "ticks": 106560,
            "time": 333,
            "velocity": 1
          },
          {
            "duration": 0.7062500000000114,
            "durationTicks": 226,
            "midi": 74,
            "name": "D5",
            "ticks": 108240,
            "time": 338.25,
            "velocity": 1
          },
          {
            "duration": 0.7062500000000114,
            "durationTicks": 226,
            "midi": 86,
            "name": "D6",
            "ticks": 108240,
            "time": 338.25,
            "velocity": 1
          },
          {
            "duration": 0.7062500000000114,
            "durationTicks": 226,
            "midi": 72,
            "name": "C5",
            "ticks": 108480,
            "time": 339,
            "velocity": 1
          },
          {
            "duration": 0.7062500000000114,
            "durationTicks": 226,
            "midi": 84,
            "name": "C6",
            "ticks": 108480,
            "time": 339,
            "velocity": 1
          },
          {
            "duration": 0.7062500000000114,
            "durationTicks": 226,
            "midi": 71,
            "name": "B4",
            "ticks": 108720,
            "time": 339.75,
            "velocity": 1
          },
          {
            "duration": 0.7062500000000114,
            "durationTicks": 226,
            "midi": 83,
            "name": "B5",
            "ticks": 108720,
            "time": 339.75,
            "velocity": 1
          },
          {
            "duration": 0.7062500000000114,
            "durationTicks": 226,
            "midi": 69,
            "name": "A4",
            "ticks": 108960,
            "time": 340.5,
            "velocity": 1
          },
          {
            "duration": 0.7062500000000114,
            "durationTicks": 226,
            "midi": 81,
            "name": "A5",
            "ticks": 108960,
            "time": 340.5,
            "velocity": 1
          },
          {
            "duration": 0.7062500000000114,
            "durationTicks": 226,
            "midi": 67,
            "name": "G4",
            "ticks": 109200,
            "time": 341.25,
            "velocity": 1
          },
          {
            "duration": 0.7062500000000114,
            "durationTicks": 226,
            "midi": 79,
            "name": "G5",
            "ticks": 109200,
            "time": 341.25,
            "velocity": 1
          },
          {
            "duration": 0.46875,
            "durationTicks": 150,
            "midi": 72,
            "name": "C5",
            "ticks": 109440,
            "time": 342,
            "velocity": 1
          },
          {
            "duration": 0.46875,
            "durationTicks": 150,
            "midi": 84,
            "name": "C6",
            "ticks": 109440,
            "time": 342,
            "velocity": 1
          },
          {
            "duration": 0.46875,
            "durationTicks": 150,
            "midi": 71,
            "name": "B4",
            "ticks": 109600,
            "time": 342.5,
            "velocity": 1
          },
          {
            "duration": 0.46875,
            "durationTicks": 150,
            "midi": 83,
            "name": "B5",
            "ticks": 109600,
            "time": 342.5,
            "velocity": 1
          },
          {
            "duration": 0.46875,
            "durationTicks": 150,
            "midi": 69,
            "name": "A4",
            "ticks": 109760,
            "time": 343,
            "velocity": 1
          },
          {
            "duration": 0.46875,
            "durationTicks": 150,
            "midi": 81,
            "name": "A5",
            "ticks": 109760,
            "time": 343,
            "velocity": 1
          },
          {
            "duration": 0.46875,
            "durationTicks": 150,
            "midi": 67,
            "name": "G4",
            "ticks": 109920,
            "time": 343.5,
            "velocity": 1
          },
          {
            "duration": 0.46875,
            "durationTicks": 150,
            "midi": 79,
            "name": "G5",
            "ticks": 109920,
            "time": 343.5,
            "velocity": 1
          },
          {
            "duration": 0.46875,
            "durationTicks": 150,
            "midi": 65,
            "name": "F4",
            "ticks": 110080,
            "time": 344,
            "velocity": 1
          },
          {
            "duration": 0.46875,
            "durationTicks": 150,
            "midi": 77,
            "name": "F5",
            "ticks": 110080,
            "time": 344,
            "velocity": 1
          },
          {
            "duration": 0.46875,
            "durationTicks": 150,
            "midi": 64,
            "name": "E4",
            "ticks": 110240,
            "time": 344.5,
            "velocity": 1
          },
          {
            "duration": 0.46875,
            "durationTicks": 150,
            "midi": 76,
            "name": "E5",
            "ticks": 110240,
            "time": 344.5,
            "velocity": 1
          },
          {
            "duration": 0.46875,
            "durationTicks": 150,
            "midi": 69,
            "name": "A4",
            "ticks": 110400,
            "time": 345,
            "velocity": 1
          },
          {
            "duration": 0.46875,
            "durationTicks": 150,
            "midi": 81,
            "name": "A5",
            "ticks": 110400,
            "time": 345,
            "velocity": 1
          },
          {
            "duration": 0.46875,
            "durationTicks": 150,
            "midi": 67,
            "name": "G4",
            "ticks": 110560,
            "time": 345.5,
            "velocity": 1
          },
          {
            "duration": 0.46875,
            "durationTicks": 150,
            "midi": 79,
            "name": "G5",
            "ticks": 110560,
            "time": 345.5,
            "velocity": 1
          },
          {
            "duration": 0.46875,
            "durationTicks": 150,
            "midi": 65,
            "name": "F4",
            "ticks": 110720,
            "time": 346,
            "velocity": 1
          },
          {
            "duration": 0.46875,
            "durationTicks": 150,
            "midi": 77,
            "name": "F5",
            "ticks": 110720,
            "time": 346,
            "velocity": 1
          },
          {
            "duration": 0.46875,
            "durationTicks": 150,
            "midi": 64,
            "name": "E4",
            "ticks": 110880,
            "time": 346.5,
            "velocity": 1
          },
          {
            "duration": 0.46875,
            "durationTicks": 150,
            "midi": 76,
            "name": "E5",
            "ticks": 110880,
            "time": 346.5,
            "velocity": 1
          },
          {
            "duration": 0.46875,
            "durationTicks": 150,
            "midi": 62,
            "name": "D4",
            "ticks": 111040,
            "time": 347,
            "velocity": 1
          },
          {
            "duration": 0.46875,
            "durationTicks": 150,
            "midi": 74,
            "name": "D5",
            "ticks": 111040,
            "time": 347,
            "velocity": 1
          },
          {
            "duration": 0.46875,
            "durationTicks": 150,
            "midi": 60,
            "name": "C4",
            "ticks": 111200,
            "time": 347.5,
            "velocity": 1
          },
          {
            "duration": 0.46875,
            "durationTicks": 150,
            "midi": 72,
            "name": "C5",
            "ticks": 111200,
            "time": 347.5,
            "velocity": 1
          },
          {
            "duration": 0.3562500000000455,
            "durationTicks": 114,
            "midi": 67,
            "name": "G4",
            "ticks": 111360,
            "time": 348,
            "velocity": 1
          },
          {
            "duration": 0.3562500000000455,
            "durationTicks": 114,
            "midi": 79,
            "name": "G5",
            "ticks": 111360,
            "time": 348,
            "velocity": 1
          },
          {
            "duration": 0.3562500000000455,
            "durationTicks": 114,
            "midi": 65,
            "name": "F4",
            "ticks": 111480,
            "time": 348.375,
            "velocity": 1
          },
          {
            "duration": 0.3562500000000455,
            "durationTicks": 114,
            "midi": 77,
            "name": "F5",
            "ticks": 111480,
            "time": 348.375,
            "velocity": 1
          },
          {
            "duration": 0.3562500000000455,
            "durationTicks": 114,
            "midi": 64,
            "name": "E4",
            "ticks": 111600,
            "time": 348.75,
            "velocity": 1
          },
          {
            "duration": 0.3562500000000455,
            "durationTicks": 114,
            "midi": 76,
            "name": "E5",
            "ticks": 111600,
            "time": 348.75,
            "velocity": 1
          },
          {
            "duration": 0.3562500000000455,
            "durationTicks": 114,
            "midi": 74,
            "name": "D5",
            "ticks": 111720,
            "time": 349.125,
            "velocity": 1
          },
          {
            "duration": 0.3562500000000455,
            "durationTicks": 114,
            "midi": 72,
            "name": "C5",
            "ticks": 111840,
            "time": 349.5,
            "velocity": 1
          },
          {
            "duration": 0.3562500000000455,
            "durationTicks": 114,
            "midi": 71,
            "name": "B4",
            "ticks": 111960,
            "time": 349.875,
            "velocity": 1
          },
          {
            "duration": 0.3562500000000455,
            "durationTicks": 114,
            "midi": 69,
            "name": "A4",
            "ticks": 112080,
            "time": 350.25,
            "velocity": 1
          },
          {
            "duration": 0.3562500000000455,
            "durationTicks": 114,
            "midi": 67,
            "name": "G4",
            "ticks": 112200,
            "time": 350.625,
            "velocity": 1
          },
          {
            "duration": 0.3562500000000455,
            "durationTicks": 114,
            "midi": 76,
            "name": "E5",
            "ticks": 112320,
            "time": 351,
            "velocity": 1
          },
          {
            "duration": 0.3562500000000455,
            "durationTicks": 114,
            "midi": 74,
            "name": "D5",
            "ticks": 112440,
            "time": 351.375,
            "velocity": 1
          },
          {
            "duration": 0.3562500000000455,
            "durationTicks": 114,
            "midi": 72,
            "name": "C5",
            "ticks": 112560,
            "time": 351.75,
            "velocity": 1
          },
          {
            "duration": 0.3562500000000455,
            "durationTicks": 114,
            "midi": 71,
            "name": "B4",
            "ticks": 112680,
            "time": 352.125,
            "velocity": 1
          },
          {
            "duration": 0.3562500000000455,
            "durationTicks": 114,
            "midi": 69,
            "name": "A4",
            "ticks": 112800,
            "time": 352.5,
            "velocity": 1
          },
          {
            "duration": 0.3562500000000455,
            "durationTicks": 114,
            "midi": 67,
            "name": "G4",
            "ticks": 112920,
            "time": 352.875,
            "velocity": 1
          },
          {
            "duration": 0.3562500000000455,
            "durationTicks": 114,
            "midi": 65,
            "name": "F4",
            "ticks": 113040,
            "time": 353.25,
            "velocity": 1
          },
          {
            "duration": 0.3562500000000455,
            "durationTicks": 114,
            "midi": 64,
            "name": "E4",
            "ticks": 113160,
            "time": 353.625,
            "velocity": 1
          },
          {
            "duration": 0.23750000000001137,
            "durationTicks": 76,
            "midi": 72,
            "name": "C5",
            "ticks": 113280,
            "time": 354,
            "velocity": 1
          },
          {
            "duration": 0.23749999999995453,
            "durationTicks": 76,
            "midi": 71,
            "name": "B4",
            "ticks": 113360,
            "time": 354.25,
            "velocity": 1
          },
          {
            "duration": 0.23750000000001137,
            "durationTicks": 76,
            "midi": 69,
            "name": "A4",
            "ticks": 113440,
            "time": 354.5,
            "velocity": 1
          },
          {
            "duration": 0.23750000000001137,
            "durationTicks": 76,
            "midi": 67,
            "name": "G4",
            "ticks": 113520,
            "time": 354.75,
            "velocity": 1
          },
          {
            "duration": 0.23749999999995453,
            "durationTicks": 76,
            "midi": 65,
            "name": "F4",
            "ticks": 113600,
            "time": 355,
            "velocity": 1
          },
          {
            "duration": 0.23750000000001137,
            "durationTicks": 76,
            "midi": 64,
            "name": "E4",
            "ticks": 113680,
            "time": 355.25,
            "velocity": 1
          },
          {
            "duration": 0.23750000000001137,
            "durationTicks": 76,
            "midi": 69,
            "name": "A4",
            "ticks": 113760,
            "time": 355.5,
            "velocity": 1
          },
          {
            "duration": 0.23749999999995453,
            "durationTicks": 76,
            "midi": 67,
            "name": "G4",
            "ticks": 113840,
            "time": 355.75,
            "velocity": 1
          },
          {
            "duration": 0.23750000000001137,
            "durationTicks": 76,
            "midi": 65,
            "name": "F4",
            "ticks": 113920,
            "time": 356,
            "velocity": 1
          },
          {
            "duration": 0.23750000000001137,
            "durationTicks": 76,
            "midi": 64,
            "name": "E4",
            "ticks": 114000,
            "time": 356.25,
            "velocity": 1
          },
          {
            "duration": 0.23749999999995453,
            "durationTicks": 76,
            "midi": 62,
            "name": "D4",
            "ticks": 114080,
            "time": 356.5,
            "velocity": 1
          },
          {
            "duration": 0.23750000000001137,
            "durationTicks": 76,
            "midi": 60,
            "name": "C4",
            "ticks": 114160,
            "time": 356.75,
            "velocity": 1
          },
          {
            "duration": 0.23750000000001137,
            "durationTicks": 76,
            "midi": 64,
            "name": "E4",
            "ticks": 114240,
            "time": 357,
            "velocity": 1
          },
          {
            "duration": 0.23749999999995453,
            "durationTicks": 76,
            "midi": 62,
            "name": "D4",
            "ticks": 114320,
            "time": 357.25,
            "velocity": 1
          },
          {
            "duration": 0.23750000000001137,
            "durationTicks": 76,
            "midi": 60,
            "name": "C4",
            "ticks": 114400,
            "time": 357.5,
            "velocity": 1
          },
          {
            "duration": 0.23750000000001137,
            "durationTicks": 76,
            "midi": 59,
            "name": "B3",
            "ticks": 114480,
            "time": 357.75,
            "velocity": 1
          },
          {
            "duration": 0.23749999999995453,
            "durationTicks": 76,
            "midi": 57,
            "name": "A3",
            "ticks": 114560,
            "time": 358,
            "velocity": 1
          },
          {
            "duration": 0.23750000000001137,
            "durationTicks": 76,
            "midi": 55,
            "name": "G3",
            "ticks": 114640,
            "time": 358.25,
            "velocity": 1
          },
          {
            "duration": 0.7062500000000114,
            "durationTicks": 226,
            "midi": 60,
            "name": "C4",
            "ticks": 115440,
            "time": 360.75,
            "velocity": 1
          },
          {
            "duration": 0.7062500000000114,
            "durationTicks": 226,
            "midi": 67,
            "name": "G4",
            "ticks": 115440,
            "time": 360.75,
            "velocity": 1
          },
          {
            "duration": 0.7062500000000114,
            "durationTicks": 226,
            "midi": 72,
            "name": "C5",
            "ticks": 115440,
            "time": 360.75,
            "velocity": 1
          },
          {
            "duration": 0.7062500000000114,
            "durationTicks": 226,
            "midi": 76,
            "name": "E5",
            "ticks": 115440,
            "time": 360.75,
            "velocity": 1
          },
          {
            "duration": 1.40625,
            "durationTicks": 450,
            "midi": 64,
            "name": "E4",
            "ticks": 119520,
            "time": 373.5,
            "velocity": 0.9212598425196851
          },
          {
            "duration": 1.40625,
            "durationTicks": 450,
            "midi": 66,
            "name": "F#4",
            "ticks": 120000,
            "time": 375,
            "velocity": 0.9212598425196851
          },
          {
            "duration": 1.40625,
            "durationTicks": 450,
            "midi": 67,
            "name": "G4",
            "ticks": 120480,
            "time": 376.5,
            "velocity": 0.9212598425196851
          },
          {
            "duration": 1.40625,
            "durationTicks": 450,
            "midi": 66,
            "name": "F#4",
            "ticks": 120960,
            "time": 378,
            "velocity": 0.9212598425196851
          },
          {
            "duration": 1.40625,
            "durationTicks": 450,
            "midi": 59,
            "name": "B3",
            "ticks": 122400,
            "time": 382.5,
            "velocity": 0.8661417322834646
          },
          {
            "duration": 1.40625,
            "durationTicks": 450,
            "midi": 61,
            "name": "C#4",
            "ticks": 122880,
            "time": 384,
            "velocity": 0.8661417322834646
          },
          {
            "duration": 1.40625,
            "durationTicks": 450,
            "midi": 62,
            "name": "D4",
            "ticks": 123360,
            "time": 385.5,
            "velocity": 0.8661417322834646
          },
          {
            "duration": 1.40625,
            "durationTicks": 450,
            "midi": 61,
            "name": "C#4",
            "ticks": 123840,
            "time": 387,
            "velocity": 0.8661417322834646
          },
          {
            "duration": 0.7062500000000682,
            "durationTicks": 226,
            "midi": 60,
            "name": "C4",
            "ticks": 125040,
            "time": 390.75,
            "velocity": 0.8661417322834646
          },
          {
            "duration": 1.40625,
            "durationTicks": 450,
            "midi": 59,
            "name": "B3",
            "ticks": 125280,
            "time": 391.5,
            "velocity": 0.8661417322834646
          },
          {
            "duration": 2.15625,
            "durationTicks": 690,
            "midi": 59,
            "name": "B3",
            "ticks": 126480,
            "time": 395.25,
            "velocity": 0.5905511811023622
          },
          {
            "duration": 3.2999999999999545,
            "durationTicks": 1056,
            "midi": 59,
            "name": "B3",
            "ticks": 127680,
            "time": 399,
            "velocity": 0.5905511811023622
          },
          {
            "duration": 3.2999999999999545,
            "durationTicks": 1056,
            "midi": 62,
            "name": "D4",
            "ticks": 127680,
            "time": 399,
            "velocity": 0.5905511811023622
          },
          {
            "duration": 0.2999999999999545,
            "durationTicks": 96,
            "midi": 62,
            "name": "D4",
            "ticks": 128760,
            "time": 402.375,
            "velocity": 0.6141732283464567
          },
          {
            "duration": 0.2999999999999545,
            "durationTicks": 96,
            "midi": 61,
            "name": "C#4",
            "ticks": 128880,
            "time": 402.75,
            "velocity": 0.6377952755905512
          },
          {
            "duration": 0.2999999999999545,
            "durationTicks": 96,
            "midi": 64,
            "name": "E4",
            "ticks": 129000,
            "time": 403.125,
            "velocity": 0.6614173228346457
          },
          {
            "duration": 0.2999999999999545,
            "durationTicks": 96,
            "midi": 62,
            "name": "D4",
            "ticks": 129120,
            "time": 403.5,
            "velocity": 0.6929133858267716
          },
          {
            "duration": 0.2999999999999545,
            "durationTicks": 96,
            "midi": 67,
            "name": "G4",
            "ticks": 129240,
            "time": 403.875,
            "velocity": 0.7165354330708661
          },
          {
            "duration": 0.2999999999999545,
            "durationTicks": 96,
            "midi": 66,
            "name": "F#4",
            "ticks": 129360,
            "time": 404.25,
            "velocity": 0.7401574803149606
          },
          {
            "duration": 0.2999999999999545,
            "durationTicks": 96,
            "midi": 70,
            "name": "A#4",
            "ticks": 129480,
            "time": 404.625,
            "velocity": 0.7637795275590551
          },
          {
            "duration": 1.40625,
            "durationTicks": 450,
            "midi": 71,
            "name": "B4",
            "ticks": 129600,
            "time": 405,
            "velocity": 0.8661417322834646
          },
          {
            "duration": 0.7062500000000682,
            "durationTicks": 226,
            "midi": 70,
            "name": "A#4",
            "ticks": 130080,
            "time": 406.5,
            "velocity": 0.8661417322834646
          },
          {
            "duration": 0.7062500000000682,
            "durationTicks": 226,
            "midi": 68,
            "name": "G#4",
            "ticks": 130320,
            "time": 407.25,
            "velocity": 0.8661417322834646
          },
          {
            "duration": 1.0562499999999773,
            "durationTicks": 338,
            "midi": 65,
            "name": "F4",
            "ticks": 130560,
            "time": 408,
            "velocity": 0.8582677165354331
          },
          {
            "duration": 0.3562500000000455,
            "durationTicks": 114,
            "midi": 65,
            "name": "F4",
            "ticks": 130920,
            "time": 409.125,
            "velocity": 0.8110236220472441
          },
          {
            "duration": 3.706250000000068,
            "durationTicks": 1186,
            "midi": 64,
            "name": "E4",
            "ticks": 131040,
            "time": 409.5,
            "velocity": 0.7086614173228346
          },
          {
            "duration": 1.40625,
            "durationTicks": 450,
            "midi": 71,
            "name": "B4",
            "ticks": 132480,
            "time": 414,
            "velocity": 0.8661417322834646
          },
          {
            "duration": 0.7062500000000682,
            "durationTicks": 226,
            "midi": 70,
            "name": "A#4",
            "ticks": 132960,
            "time": 415.5,
            "velocity": 0.8661417322834646
          },
          {
            "duration": 0.7062500000000682,
            "durationTicks": 226,
            "midi": 68,
            "name": "G#4",
            "ticks": 133200,
            "time": 416.25,
            "velocity": 0.8661417322834646
          },
          {
            "duration": 1.0562499999999773,
            "durationTicks": 338,
            "midi": 65,
            "name": "F4",
            "ticks": 133440,
            "time": 417,
            "velocity": 0.8582677165354331
          },
          {
            "duration": 0.3562500000000455,
            "durationTicks": 114,
            "midi": 65,
            "name": "F4",
            "ticks": 133800,
            "time": 418.125,
            "velocity": 0.8110236220472441
          },
          {
            "duration": 3.706250000000068,
            "durationTicks": 1186,
            "midi": 64,
            "name": "E4",
            "ticks": 133920,
            "time": 418.5,
            "velocity": 0.7086614173228346
          },
          {
            "duration": 2.956250000000068,
            "durationTicks": 946,
            "midi": 59,
            "name": "B3",
            "ticks": 135360,
            "time": 423,
            "velocity": 0.5275590551181102
          },
          {
            "duration": 1.0562499999999773,
            "durationTicks": 338,
            "midi": 59,
            "name": "B3",
            "ticks": 136320,
            "time": 426,
            "velocity": 0.5275590551181102
          },
          {
            "duration": 0.3562500000000455,
            "durationTicks": 114,
            "midi": 57,
            "name": "A3",
            "ticks": 136680,
            "time": 427.125,
            "velocity": 0.5275590551181102
          },
          {
            "duration": 3.599999999999966,
            "durationTicks": 1152,
            "midi": 57,
            "name": "A3",
            "ticks": 136800,
            "time": 427.5,
            "velocity": 0.49606299212598426
          },
          {
            "duration": 2.8125,
            "durationTicks": 900,
            "midi": 59,
            "name": "B3",
            "ticks": 141120,
            "time": 441,
            "velocity": 0.6299212598425197
          },
          {
            "duration": 1.40625,
            "durationTicks": 450,
            "midi": 59,
            "name": "B3",
            "ticks": 142080,
            "time": 444,
            "velocity": 0.6299212598425197
          },
          {
            "duration": 1.40625,
            "durationTicks": 450,
            "midi": 59,
            "name": "B3",
            "ticks": 142560,
            "time": 445.5,
            "velocity": 0.6299212598425197
          },
          {
            "duration": 2.8125,
            "durationTicks": 900,
            "midi": 58,
            "name": "A#3",
            "ticks": 143040,
            "time": 447,
            "velocity": 0.6299212598425197
          },
          {
            "duration": 5.90625,
            "durationTicks": 1890,
            "midi": 67,
            "name": "G4",
            "ticks": 144000,
            "time": 450,
            "velocity": 0.8267716535433071
          },
          {
            "duration": 6.706250000000068,
            "durationTicks": 2146,
            "midi": 66,
            "name": "F#4",
            "ticks": 145920,
            "time": 456,
            "velocity": 0.8661417322834646
          },
          {
            "duration": 0.2375000000000682,
            "durationTicks": 76,
            "midi": 58,
            "name": "A#3",
            "ticks": 148800,
            "time": 465,
            "velocity": 0.7086614173228346
          },
          {
            "duration": 0.23749999999995453,
            "durationTicks": 76,
            "midi": 59,
            "name": "B3",
            "ticks": 148880,
            "time": 465.25,
            "velocity": 0.7244094488188977
          },
          {
            "duration": 0.23750000000001137,
            "durationTicks": 76,
            "midi": 60,
            "name": "C4",
            "ticks": 148960,
            "time": 465.5,
            "velocity": 0.7322834645669292
          },
          {
            "duration": 0.2375000000000682,
            "durationTicks": 76,
            "midi": 61,
            "name": "C#4",
            "ticks": 149040,
            "time": 465.75,
            "velocity": 0.7480314960629921
          },
          {
            "duration": 0.23749999999995453,
            "durationTicks": 76,
            "midi": 62,
            "name": "D4",
            "ticks": 149120,
            "time": 466,
            "velocity": 0.7637795275590551
          },
          {
            "duration": 0.23750000000001137,
            "durationTicks": 76,
            "midi": 63,
            "name": "D#4",
            "ticks": 149200,
            "time": 466.25,
            "velocity": 0.7716535433070866
          },
          {
            "duration": 0.2375000000000682,
            "durationTicks": 76,
            "midi": 64,
            "name": "E4",
            "ticks": 149280,
            "time": 466.5,
            "velocity": 0.7874015748031497
          },
          {
            "duration": 0.23749999999995453,
            "durationTicks": 76,
            "midi": 65,
            "name": "F4",
            "ticks": 149360,
            "time": 466.75,
            "velocity": 0.8031496062992126
          },
          {
            "duration": 0.23750000000001137,
            "durationTicks": 76,
            "midi": 66,
            "name": "F#4",
            "ticks": 149440,
            "time": 467,
            "velocity": 0.8110236220472441
          },
          {
            "duration": 0.2375000000000682,
            "durationTicks": 76,
            "midi": 67,
            "name": "G4",
            "ticks": 149520,
            "time": 467.25,
            "velocity": 0.8267716535433071
          },
          {
            "duration": 0.23749999999995453,
            "durationTicks": 76,
            "midi": 68,
            "name": "G#4",
            "ticks": 149600,
            "time": 467.5,
            "velocity": 0.84251968503937
          },
          {
            "duration": 0.23750000000001137,
            "durationTicks": 76,
            "midi": 69,
            "name": "A4",
            "ticks": 149680,
            "time": 467.75,
            "velocity": 0.8503937007874016
          },
          {
            "duration": 1.40625,
            "durationTicks": 450,
            "midi": 71,
            "name": "B4",
            "ticks": 149760,
            "time": 468,
            "velocity": 0.8661417322834646
          },
          {
            "duration": 0.7062500000000682,
            "durationTicks": 226,
            "midi": 70,
            "name": "A#4",
            "ticks": 150240,
            "time": 469.5,
            "velocity": 0.8661417322834646
          },
          {
            "duration": 0.7062500000000682,
            "durationTicks": 226,
            "midi": 68,
            "name": "G#4",
            "ticks": 150480,
            "time": 470.25,
            "velocity": 0.8661417322834646
          },
          {
            "duration": 1.0562499999999773,
            "durationTicks": 338,
            "midi": 65,
            "name": "F4",
            "ticks": 150720,
            "time": 471,
            "velocity": 0.8582677165354331
          },
          {
            "duration": 0.3562500000000455,
            "durationTicks": 114,
            "midi": 65,
            "name": "F4",
            "ticks": 151080,
            "time": 472.125,
            "velocity": 0.8110236220472441
          },
          {
            "duration": 3.706250000000068,
            "durationTicks": 1186,
            "midi": 64,
            "name": "E4",
            "ticks": 151200,
            "time": 472.5,
            "velocity": 0.7086614173228346
          },
          {
            "duration": 1.40625,
            "durationTicks": 450,
            "midi": 71,
            "name": "B4",
            "ticks": 152640,
            "time": 477,
            "velocity": 0.8661417322834646
          },
          {
            "duration": 0.7062500000000682,
            "durationTicks": 226,
            "midi": 70,
            "name": "A#4",
            "ticks": 153120,
            "time": 478.5,
            "velocity": 0.8661417322834646
          },
          {
            "duration": 0.7062500000000682,
            "durationTicks": 226,
            "midi": 68,
            "name": "G#4",
            "ticks": 153360,
            "time": 479.25,
            "velocity": 0.8661417322834646
          },
          {
            "duration": 1.0562499999999773,
            "durationTicks": 338,
            "midi": 65,
            "name": "F4",
            "ticks": 153600,
            "time": 480,
            "velocity": 0.8582677165354331
          },
          {
            "duration": 0.3562500000000455,
            "durationTicks": 114,
            "midi": 65,
            "name": "F4",
            "ticks": 153960,
            "time": 481.125,
            "velocity": 0.8110236220472441
          },
          {
            "duration": 3.706250000000068,
            "durationTicks": 1186,
            "midi": 64,
            "name": "E4",
            "ticks": 154080,
            "time": 481.5,
            "velocity": 0.7086614173228346
          },
          {
            "duration": 1.40625,
            "durationTicks": 450,
            "midi": 67,
            "name": "G4",
            "ticks": 155520,
            "time": 486,
            "velocity": 0.7086614173228346
          },
          {
            "duration": 0.7062500000000682,
            "durationTicks": 226,
            "midi": 66,
            "name": "F#4",
            "ticks": 156000,
            "time": 487.5,
            "velocity": 0.7086614173228346
          },
          {
            "duration": 0.7062500000000682,
            "durationTicks": 226,
            "midi": 64,
            "name": "E4",
            "ticks": 156240,
            "time": 488.25,
            "velocity": 0.7086614173228346
          },
          {
            "duration": 0.7062500000000682,
            "durationTicks": 226,
            "midi": 62,
            "name": "D4",
            "ticks": 156480,
            "time": 489,
            "velocity": 0.7086614173228346
          },
          {
            "duration": 0.7062500000000682,
            "durationTicks": 226,
            "midi": 61,
            "name": "C#4",
            "ticks": 156720,
            "time": 489.75,
            "velocity": 0.7086614173228346
          },
          {
            "duration": 1.40625,
            "durationTicks": 450,
            "midi": 69,
            "name": "A4",
            "ticks": 156960,
            "time": 490.5,
            "velocity": 0.7086614173228346
          },
          {
            "duration": 1.0562499999999773,
            "durationTicks": 338,
            "midi": 67,
            "name": "G4",
            "ticks": 157440,
            "time": 492,
            "velocity": 0.7086614173228346
          },
          {
            "duration": 0.3562500000000455,
            "durationTicks": 114,
            "midi": 66,
            "name": "F#4",
            "ticks": 157800,
            "time": 493.125,
            "velocity": 0.7086614173228346
          },
          {
            "duration": 0.7062500000000682,
            "durationTicks": 226,
            "midi": 64,
            "name": "E4",
            "ticks": 157920,
            "time": 493.5,
            "velocity": 0.7086614173228346
          },
          {
            "duration": 0.7062500000000682,
            "durationTicks": 226,
            "midi": 63,
            "name": "D#4",
            "ticks": 158160,
            "time": 494.25,
            "velocity": 0.7086614173228346
          },
          {
            "duration": 1.40625,
            "durationTicks": 450,
            "midi": 72,
            "name": "C5",
            "ticks": 158400,
            "time": 495,
            "velocity": 0.6220472440944882
          },
          {
            "duration": 1.0562499999999773,
            "durationTicks": 338,
            "midi": 71,
            "name": "B4",
            "ticks": 158880,
            "time": 496.5,
            "velocity": 0.6456692913385826
          },
          {
            "duration": 0.3562500000000455,
            "durationTicks": 114,
            "midi": 69,
            "name": "A4",
            "ticks": 159240,
            "time": 497.625,
            "velocity": 0.6614173228346457
          },
          {
            "duration": 0.7062500000000682,
            "durationTicks": 226,
            "midi": 67,
            "name": "G4",
            "ticks": 159360,
            "time": 498,
            "velocity": 0.6692913385826772
          },
          {
            "duration": 0.7062500000000682,
            "durationTicks": 226,
            "midi": 66,
            "name": "F#4",
            "ticks": 159600,
            "time": 498.75,
            "velocity": 0.6771653543307087
          },
          {
            "duration": 1.40625,
            "durationTicks": 450,
            "midi": 74,
            "name": "D5",
            "ticks": 159840,
            "time": 499.5,
            "velocity": 0.6929133858267716
          },
          {
            "duration": 1.0562499999999773,
            "durationTicks": 338,
            "midi": 72,
            "name": "C5",
            "ticks": 160320,
            "time": 501,
            "velocity": 0.7165354330708661
          },
          {
            "duration": 0.3562500000000455,
            "durationTicks": 114,
            "midi": 71,
            "name": "B4",
            "ticks": 160680,
            "time": 502.125,
            "velocity": 0.7322834645669292
          },
          {
            "duration": 0.7062500000000682,
            "durationTicks": 226,
            "midi": 69,
            "name": "A4",
            "ticks": 160800,
            "time": 502.5,
            "velocity": 0.7322834645669292
          },
          {
            "duration": 0.7062500000000682,
            "durationTicks": 226,
            "midi": 68,
            "name": "G#4",
            "ticks": 161040,
            "time": 503.25,
            "velocity": 0.7480314960629921
          },
          {
            "duration": 0.7062500000000682,
            "durationTicks": 226,
            "midi": 76,
            "name": "E5",
            "ticks": 161280,
            "time": 504,
            "velocity": 0.7559055118110236
          },
          {
            "duration": 0.7062500000000682,
            "durationTicks": 226,
            "midi": 74,
            "name": "D5",
            "ticks": 161520,
            "time": 504.75,
            "velocity": 0.7637795275590551
          },
          {
            "duration": 0.7062500000000682,
            "durationTicks": 226,
            "midi": 72,
            "name": "C5",
            "ticks": 161760,
            "time": 505.5,
            "velocity": 0.7795275590551181
          },
          {
            "duration": 0.7062500000000682,
            "durationTicks": 226,
            "midi": 71,
            "name": "B4",
            "ticks": 162000,
            "time": 506.25,
            "velocity": 0.7874015748031497
          },
          {
            "duration": 0.7062500000000682,
            "durationTicks": 226,
            "midi": 77,
            "name": "F5",
            "ticks": 162240,
            "time": 507,
            "velocity": 0.8031496062992126
          },
          {
            "duration": 0.7062500000000682,
            "durationTicks": 226,
            "midi": 76,
            "name": "E5",
            "ticks": 162480,
            "time": 507.75,
            "velocity": 0.8110236220472441
          },
          {
            "duration": 0.7062500000000682,
            "durationTicks": 226,
            "midi": 74,
            "name": "D5",
            "ticks": 162720,
            "time": 508.5,
            "velocity": 0.8188976377952756
          },
          {
            "duration": 0.7062500000000682,
            "durationTicks": 226,
            "midi": 72,
            "name": "C5",
            "ticks": 162960,
            "time": 509.25,
            "velocity": 0.8346456692913385
          },
          {
            "duration": 0.3562500000000455,
            "durationTicks": 114,
            "midi": 79,
            "name": "G5",
            "ticks": 163200,
            "time": 510,
            "velocity": 0.84251968503937
          },
          {
            "duration": 0.3562500000000455,
            "durationTicks": 114,
            "midi": 79,
            "name": "G5",
            "ticks": 163320,
            "time": 510.375,
            "velocity": 0.8503937007874016
          },
          {
            "duration": 0.3562500000000455,
            "durationTicks": 114,
            "midi": 77,
            "name": "F5",
            "ticks": 163440,
            "time": 510.75,
            "velocity": 0.8503937007874016
          },
          {
            "duration": 0.3562500000000455,
            "durationTicks": 114,
            "midi": 77,
            "name": "F5",
            "ticks": 163560,
            "time": 511.125,
            "velocity": 0.8582677165354331
          },
          {
            "duration": 0.3562500000000455,
            "durationTicks": 114,
            "midi": 76,
            "name": "E5",
            "ticks": 163680,
            "time": 511.5,
            "velocity": 0.8661417322834646
          },
          {
            "duration": 0.3562500000000455,
            "durationTicks": 114,
            "midi": 76,
            "name": "E5",
            "ticks": 163800,
            "time": 511.875,
            "velocity": 0.8740157480314961
          },
          {
            "duration": 0.3562500000000455,
            "durationTicks": 114,
            "midi": 74,
            "name": "D5",
            "ticks": 163920,
            "time": 512.25,
            "velocity": 0.8740157480314961
          },
          {
            "duration": 0.3562500000000455,
            "durationTicks": 114,
            "midi": 74,
            "name": "D5",
            "ticks": 164040,
            "time": 512.625,
            "velocity": 0.8818897637795275
          },
          {
            "duration": 0.3562500000000455,
            "durationTicks": 114,
            "midi": 81,
            "name": "A5",
            "ticks": 164160,
            "time": 513,
            "velocity": 0.889763779527559
          },
          {
            "duration": 0.3562500000000455,
            "durationTicks": 114,
            "midi": 81,
            "name": "A5",
            "ticks": 164280,
            "time": 513.375,
            "velocity": 0.889763779527559
          },
          {
            "duration": 0.3562500000000455,
            "durationTicks": 114,
            "midi": 79,
            "name": "G5",
            "ticks": 164400,
            "time": 513.75,
            "velocity": 0.8976377952755905
          },
          {
            "duration": 0.3562500000000455,
            "durationTicks": 114,
            "midi": 79,
            "name": "G5",
            "ticks": 164520,
            "time": 514.125,
            "velocity": 0.905511811023622
          },
          {
            "duration": 0.3562500000000455,
            "durationTicks": 114,
            "midi": 77,
            "name": "F5",
            "ticks": 164640,
            "time": 514.5,
            "velocity": 0.905511811023622
          },
          {
            "duration": 0.3562500000000455,
            "durationTicks": 114,
            "midi": 77,
            "name": "F5",
            "ticks": 164760,
            "time": 514.875,
            "velocity": 0.9133858267716536
          },
          {
            "duration": 0.3562500000000455,
            "durationTicks": 114,
            "midi": 76,
            "name": "E5",
            "ticks": 164880,
            "time": 515.25,
            "velocity": 0.9212598425196851
          },
          {
            "duration": 0.3562500000000455,
            "durationTicks": 114,
            "midi": 76,
            "name": "E5",
            "ticks": 165000,
            "time": 515.625,
            "velocity": 0.9212598425196851
          },
          {
            "duration": 0.2375000000000682,
            "durationTicks": 76,
            "midi": 82,
            "name": "A#5",
            "ticks": 165120,
            "time": 516,
            "velocity": 0.9606299212598425
          },
          {
            "duration": 0.23749999999995453,
            "durationTicks": 76,
            "midi": 82,
            "name": "A#5",
            "ticks": 165200,
            "time": 516.25,
            "velocity": 0.9606299212598425
          },
          {
            "duration": 0.23749999999995453,
            "durationTicks": 76,
            "midi": 82,
            "name": "A#5",
            "ticks": 165280,
            "time": 516.5,
            "velocity": 0.9606299212598425
          },
          {
            "duration": 0.2375000000000682,
            "durationTicks": 76,
            "midi": 81,
            "name": "A5",
            "ticks": 165360,
            "time": 516.75,
            "velocity": 0.9606299212598425
          },
          {
            "duration": 0.23749999999995453,
            "durationTicks": 76,
            "midi": 81,
            "name": "A5",
            "ticks": 165440,
            "time": 517,
            "velocity": 0.9606299212598425
          },
          {
            "duration": 0.23749999999995453,
            "durationTicks": 76,
            "midi": 81,
            "name": "A5",
            "ticks": 165520,
            "time": 517.25,
            "velocity": 0.9606299212598425
          },
          {
            "duration": 0.2375000000000682,
            "durationTicks": 76,
            "midi": 79,
            "name": "G5",
            "ticks": 165600,
            "time": 517.5,
            "velocity": 0.9606299212598425
          },
          {
            "duration": 0.23749999999995453,
            "durationTicks": 76,
            "midi": 79,
            "name": "G5",
            "ticks": 165680,
            "time": 517.75,
            "velocity": 0.9606299212598425
          },
          {
            "duration": 0.23749999999995453,
            "durationTicks": 76,
            "midi": 79,
            "name": "G5",
            "ticks": 165760,
            "time": 518,
            "velocity": 0.9606299212598425
          },
          {
            "duration": 0.2375000000000682,
            "durationTicks": 76,
            "midi": 77,
            "name": "F5",
            "ticks": 165840,
            "time": 518.25,
            "velocity": 0.9606299212598425
          },
          {
            "duration": 0.23749999999995453,
            "durationTicks": 76,
            "midi": 77,
            "name": "F5",
            "ticks": 165920,
            "time": 518.5,
            "velocity": 0.9606299212598425
          },
          {
            "duration": 0.23749999999995453,
            "durationTicks": 76,
            "midi": 77,
            "name": "F5",
            "ticks": 166000,
            "time": 518.75,
            "velocity": 0.9606299212598425
          },
          {
            "duration": 0.2375000000000682,
            "durationTicks": 76,
            "midi": 84,
            "name": "C6",
            "ticks": 166080,
            "time": 519,
            "velocity": 0.9606299212598425
          },
          {
            "duration": 0.23749999999995453,
            "durationTicks": 76,
            "midi": 84,
            "name": "C6",
            "ticks": 166160,
            "time": 519.25,
            "velocity": 0.9606299212598425
          },
          {
            "duration": 0.23749999999995453,
            "durationTicks": 76,
            "midi": 84,
            "name": "C6",
            "ticks": 166240,
            "time": 519.5,
            "velocity": 0.9606299212598425
          },
          {
            "duration": 0.2375000000000682,
            "durationTicks": 76,
            "midi": 83,
            "name": "B5",
            "ticks": 166320,
            "time": 519.75,
            "velocity": 0.9606299212598425
          },
          {
            "duration": 0.23749999999995453,
            "durationTicks": 76,
            "midi": 83,
            "name": "B5",
            "ticks": 166400,
            "time": 520,
            "velocity": 0.9606299212598425
          },
          {
            "duration": 0.23749999999995453,
            "durationTicks": 76,
            "midi": 83,
            "name": "B5",
            "ticks": 166480,
            "time": 520.25,
            "velocity": 0.9606299212598425
          },
          {
            "duration": 0.2375000000000682,
            "durationTicks": 76,
            "midi": 81,
            "name": "A5",
            "ticks": 166560,
            "time": 520.5,
            "velocity": 0.9606299212598425
          },
          {
            "duration": 0.23749999999995453,
            "durationTicks": 76,
            "midi": 81,
            "name": "A5",
            "ticks": 166640,
            "time": 520.75,
            "velocity": 0.9606299212598425
          },
          {
            "duration": 0.23749999999995453,
            "durationTicks": 76,
            "midi": 81,
            "name": "A5",
            "ticks": 166720,
            "time": 521,
            "velocity": 0.9606299212598425
          },
          {
            "duration": 0.2375000000000682,
            "durationTicks": 76,
            "midi": 80,
            "name": "G#5",
            "ticks": 166800,
            "time": 521.25,
            "velocity": 0.9606299212598425
          },
          {
            "duration": 0.23749999999995453,
            "durationTicks": 76,
            "midi": 80,
            "name": "G#5",
            "ticks": 166880,
            "time": 521.5,
            "velocity": 0.9606299212598425
          },
          {
            "duration": 0.23749999999995453,
            "durationTicks": 76,
            "midi": 80,
            "name": "G#5",
            "ticks": 166960,
            "time": 521.75,
            "velocity": 0.9606299212598425
          },
          {
            "duration": 0.18124999999997726,
            "durationTicks": 58,
            "midi": 83,
            "name": "B5",
            "ticks": 167040,
            "time": 522,
            "velocity": 1
          },
          {
            "duration": 0.18124999999997726,
            "durationTicks": 58,
            "midi": 83,
            "name": "B5",
            "ticks": 167100,
            "time": 522.1875,
            "velocity": 1
          },
          {
            "duration": 0.18124999999997726,
            "durationTicks": 58,
            "midi": 83,
            "name": "B5",
            "ticks": 167160,
            "time": 522.375,
            "velocity": 1
          },
          {
            "duration": 0.18124999999997726,
            "durationTicks": 58,
            "midi": 83,
            "name": "B5",
            "ticks": 167220,
            "time": 522.5625,
            "velocity": 1
          },
          {
            "duration": 0.18124999999997726,
            "durationTicks": 58,
            "midi": 83,
            "name": "B5",
            "ticks": 167280,
            "time": 522.75,
            "velocity": 1
          },
          {
            "duration": 0.18124999999997726,
            "durationTicks": 58,
            "midi": 83,
            "name": "B5",
            "ticks": 167340,
            "time": 522.9375,
            "velocity": 1
          },
          {
            "duration": 0.18124999999997726,
            "durationTicks": 58,
            "midi": 83,
            "name": "B5",
            "ticks": 167400,
            "time": 523.125,
            "velocity": 1
          },
          {
            "duration": 0.18124999999997726,
            "durationTicks": 58,
            "midi": 83,
            "name": "B5",
            "ticks": 167460,
            "time": 523.3125,
            "velocity": 1
          },
          {
            "duration": 0.18124999999997726,
            "durationTicks": 58,
            "midi": 83,
            "name": "B5",
            "ticks": 167520,
            "time": 523.5,
            "velocity": 1
          },
          {
            "duration": 0.18124999999997726,
            "durationTicks": 58,
            "midi": 83,
            "name": "B5",
            "ticks": 167580,
            "time": 523.6875,
            "velocity": 1
          },
          {
            "duration": 0.18124999999997726,
            "durationTicks": 58,
            "midi": 83,
            "name": "B5",
            "ticks": 167640,
            "time": 523.875,
            "velocity": 1
          },
          {
            "duration": 0.18124999999997726,
            "durationTicks": 58,
            "midi": 83,
            "name": "B5",
            "ticks": 167700,
            "time": 524.0625,
            "velocity": 1
          },
          {
            "duration": 0.18124999999997726,
            "durationTicks": 58,
            "midi": 83,
            "name": "B5",
            "ticks": 167760,
            "time": 524.25,
            "velocity": 1
          },
          {
            "duration": 0.18124999999997726,
            "durationTicks": 58,
            "midi": 83,
            "name": "B5",
            "ticks": 167820,
            "time": 524.4375,
            "velocity": 1
          },
          {
            "duration": 0.18124999999997726,
            "durationTicks": 58,
            "midi": 83,
            "name": "B5",
            "ticks": 167880,
            "time": 524.625,
            "velocity": 1
          },
          {
            "duration": 0.18124999999997726,
            "durationTicks": 58,
            "midi": 83,
            "name": "B5",
            "ticks": 167940,
            "time": 524.8125,
            "velocity": 1
          },
          {
            "duration": 0.18124999999997726,
            "durationTicks": 58,
            "midi": 81,
            "name": "A5",
            "ticks": 168000,
            "time": 525,
            "velocity": 1
          },
          {
            "duration": 0.18124999999997726,
            "durationTicks": 58,
            "midi": 81,
            "name": "A5",
            "ticks": 168060,
            "time": 525.1875,
            "velocity": 1
          },
          {
            "duration": 0.18124999999997726,
            "durationTicks": 58,
            "midi": 81,
            "name": "A5",
            "ticks": 168120,
            "time": 525.375,
            "velocity": 1
          },
          {
            "duration": 0.18124999999997726,
            "durationTicks": 58,
            "midi": 81,
            "name": "A5",
            "ticks": 168180,
            "time": 525.5625,
            "velocity": 1
          },
          {
            "duration": 0.18124999999997726,
            "durationTicks": 58,
            "midi": 81,
            "name": "A5",
            "ticks": 168240,
            "time": 525.75,
            "velocity": 1
          },
          {
            "duration": 0.18124999999997726,
            "durationTicks": 58,
            "midi": 81,
            "name": "A5",
            "ticks": 168300,
            "time": 525.9375,
            "velocity": 1
          },
          {
            "duration": 0.18124999999997726,
            "durationTicks": 58,
            "midi": 81,
            "name": "A5",
            "ticks": 168360,
            "time": 526.125,
            "velocity": 1
          },
          {
            "duration": 0.18124999999997726,
            "durationTicks": 58,
            "midi": 81,
            "name": "A5",
            "ticks": 168420,
            "time": 526.3125,
            "velocity": 1
          },
          {
            "duration": 0.2375000000000682,
            "durationTicks": 76,
            "midi": 81,
            "name": "A5",
            "ticks": 168960,
            "time": 528,
            "velocity": 0.9606299212598425
          },
          {
            "duration": 0.23749999999995453,
            "durationTicks": 76,
            "midi": 81,
            "name": "A5",
            "ticks": 169040,
            "time": 528.25,
            "velocity": 0.9606299212598425
          },
          {
            "duration": 0.23749999999995453,
            "durationTicks": 76,
            "midi": 81,
            "name": "A5",
            "ticks": 169120,
            "time": 528.5,
            "velocity": 0.9606299212598425
          },
          {
            "duration": 0.2375000000000682,
            "durationTicks": 76,
            "midi": 79,
            "name": "G5",
            "ticks": 169200,
            "time": 528.75,
            "velocity": 0.9606299212598425
          },
          {
            "duration": 0.23749999999995453,
            "durationTicks": 76,
            "midi": 79,
            "name": "G5",
            "ticks": 169280,
            "time": 529,
            "velocity": 0.9606299212598425
          },
          {
            "duration": 0.23749999999995453,
            "durationTicks": 76,
            "midi": 79,
            "name": "G5",
            "ticks": 169360,
            "time": 529.25,
            "velocity": 0.9606299212598425
          },
          {
            "duration": 0.2375000000000682,
            "durationTicks": 76,
            "midi": 77,
            "name": "F5",
            "ticks": 169440,
            "time": 529.5,
            "velocity": 0.9606299212598425
          },
          {
            "duration": 0.23749999999995453,
            "durationTicks": 76,
            "midi": 77,
            "name": "F5",
            "ticks": 169520,
            "time": 529.75,
            "velocity": 0.9606299212598425
          },
          {
            "duration": 0.23749999999995453,
            "durationTicks": 76,
            "midi": 77,
            "name": "F5",
            "ticks": 169600,
            "time": 530,
            "velocity": 0.9606299212598425
          },
          {
            "duration": 0.2375000000000682,
            "durationTicks": 76,
            "midi": 76,
            "name": "E5",
            "ticks": 169680,
            "time": 530.25,
            "velocity": 0.9606299212598425
          },
          {
            "duration": 0.23749999999995453,
            "durationTicks": 76,
            "midi": 76,
            "name": "E5",
            "ticks": 169760,
            "time": 530.5,
            "velocity": 0.9606299212598425
          },
          {
            "duration": 0.23749999999995453,
            "durationTicks": 76,
            "midi": 76,
            "name": "E5",
            "ticks": 169840,
            "time": 530.75,
            "velocity": 0.9606299212598425
          },
          {
            "duration": 0.18124999999997726,
            "durationTicks": 58,
            "midi": 79,
            "name": "G5",
            "ticks": 169920,
            "time": 531,
            "velocity": 1
          },
          {
            "duration": 0.18124999999997726,
            "durationTicks": 58,
            "midi": 79,
            "name": "G5",
            "ticks": 169980,
            "time": 531.1875,
            "velocity": 1
          },
          {
            "duration": 0.18124999999997726,
            "durationTicks": 58,
            "midi": 79,
            "name": "G5",
            "ticks": 170040,
            "time": 531.375,
            "velocity": 1
          },
          {
            "duration": 0.18124999999997726,
            "durationTicks": 58,
            "midi": 79,
            "name": "G5",
            "ticks": 170100,
            "time": 531.5625,
            "velocity": 1
          },
          {
            "duration": 0.18124999999997726,
            "durationTicks": 58,
            "midi": 79,
            "name": "G5",
            "ticks": 170160,
            "time": 531.75,
            "velocity": 1
          },
          {
            "duration": 0.18124999999997726,
            "durationTicks": 58,
            "midi": 79,
            "name": "G5",
            "ticks": 170220,
            "time": 531.9375,
            "velocity": 1
          },
          {
            "duration": 0.18124999999997726,
            "durationTicks": 58,
            "midi": 79,
            "name": "G5",
            "ticks": 170280,
            "time": 532.125,
            "velocity": 1
          },
          {
            "duration": 0.18124999999997726,
            "durationTicks": 58,
            "midi": 79,
            "name": "G5",
            "ticks": 170340,
            "time": 532.3125,
            "velocity": 1
          },
          {
            "duration": 0.18124999999997726,
            "durationTicks": 58,
            "midi": 79,
            "name": "G5",
            "ticks": 170400,
            "time": 532.5,
            "velocity": 1
          },
          {
            "duration": 0.18124999999997726,
            "durationTicks": 58,
            "midi": 79,
            "name": "G5",
            "ticks": 170460,
            "time": 532.6875,
            "velocity": 1
          },
          {
            "duration": 0.18124999999997726,
            "durationTicks": 58,
            "midi": 79,
            "name": "G5",
            "ticks": 170520,
            "time": 532.875,
            "velocity": 1
          },
          {
            "duration": 0.18124999999997726,
            "durationTicks": 58,
            "midi": 79,
            "name": "G5",
            "ticks": 170580,
            "time": 533.0625,
            "velocity": 1
          },
          {
            "duration": 0.18124999999997726,
            "durationTicks": 58,
            "midi": 79,
            "name": "G5",
            "ticks": 170640,
            "time": 533.25,
            "velocity": 1
          },
          {
            "duration": 0.18124999999997726,
            "durationTicks": 58,
            "midi": 79,
            "name": "G5",
            "ticks": 170700,
            "time": 533.4375,
            "velocity": 1
          },
          {
            "duration": 0.18124999999997726,
            "durationTicks": 58,
            "midi": 79,
            "name": "G5",
            "ticks": 170760,
            "time": 533.625,
            "velocity": 1
          },
          {
            "duration": 0.18124999999997726,
            "durationTicks": 58,
            "midi": 79,
            "name": "G5",
            "ticks": 170820,
            "time": 533.8125,
            "velocity": 1
          },
          {
            "duration": 0.18124999999997726,
            "durationTicks": 58,
            "midi": 77,
            "name": "F5",
            "ticks": 170880,
            "time": 534,
            "velocity": 1
          },
          {
            "duration": 0.18124999999997726,
            "durationTicks": 58,
            "midi": 77,
            "name": "F5",
            "ticks": 170940,
            "time": 534.1875,
            "velocity": 1
          },
          {
            "duration": 0.18124999999997726,
            "durationTicks": 58,
            "midi": 77,
            "name": "F5",
            "ticks": 171000,
            "time": 534.375,
            "velocity": 1
          },
          {
            "duration": 0.18124999999997726,
            "durationTicks": 58,
            "midi": 77,
            "name": "F5",
            "ticks": 171060,
            "time": 534.5625,
            "velocity": 1
          },
          {
            "duration": 0.18124999999997726,
            "durationTicks": 58,
            "midi": 77,
            "name": "F5",
            "ticks": 171120,
            "time": 534.75,
            "velocity": 1
          },
          {
            "duration": 0.18124999999997726,
            "durationTicks": 58,
            "midi": 77,
            "name": "F5",
            "ticks": 171180,
            "time": 534.9375,
            "velocity": 1
          },
          {
            "duration": 0.18124999999997726,
            "durationTicks": 58,
            "midi": 77,
            "name": "F5",
            "ticks": 171240,
            "time": 535.125,
            "velocity": 1
          },
          {
            "duration": 0.18124999999997726,
            "durationTicks": 58,
            "midi": 77,
            "name": "F5",
            "ticks": 171300,
            "time": 535.3125,
            "velocity": 1
          },
          {
            "duration": 0.2375000000000682,
            "durationTicks": 76,
            "midi": 77,
            "name": "F5",
            "ticks": 171840,
            "time": 537,
            "velocity": 0.9606299212598425
          },
          {
            "duration": 0.2375000000000682,
            "durationTicks": 76,
            "midi": 89,
            "name": "F6",
            "ticks": 171840,
            "time": 537,
            "velocity": 0.9606299212598425
          },
          {
            "duration": 0.23749999999995453,
            "durationTicks": 76,
            "midi": 77,
            "name": "F5",
            "ticks": 171920,
            "time": 537.25,
            "velocity": 0.9606299212598425
          },
          {
            "duration": 0.23749999999995453,
            "durationTicks": 76,
            "midi": 89,
            "name": "F6",
            "ticks": 171920,
            "time": 537.25,
            "velocity": 0.9606299212598425
          },
          {
            "duration": 0.23749999999995453,
            "durationTicks": 76,
            "midi": 77,
            "name": "F5",
            "ticks": 172000,
            "time": 537.5,
            "velocity": 0.9606299212598425
          },
          {
            "duration": 0.23749999999995453,
            "durationTicks": 76,
            "midi": 89,
            "name": "F6",
            "ticks": 172000,
            "time": 537.5,
            "velocity": 0.9606299212598425
          },
          {
            "duration": 0.2375000000000682,
            "durationTicks": 76,
            "midi": 76,
            "name": "E5",
            "ticks": 172080,
            "time": 537.75,
            "velocity": 0.9606299212598425
          },
          {
            "duration": 0.2375000000000682,
            "durationTicks": 76,
            "midi": 88,
            "name": "E6",
            "ticks": 172080,
            "time": 537.75,
            "velocity": 0.9606299212598425
          },
          {
            "duration": 0.23749999999995453,
            "durationTicks": 76,
            "midi": 76,
            "name": "E5",
            "ticks": 172160,
            "time": 538,
            "velocity": 0.9606299212598425
          },
          {
            "duration": 0.23749999999995453,
            "durationTicks": 76,
            "midi": 88,
            "name": "E6",
            "ticks": 172160,
            "time": 538,
            "velocity": 0.9606299212598425
          },
          {
            "duration": 0.23749999999995453,
            "durationTicks": 76,
            "midi": 76,
            "name": "E5",
            "ticks": 172240,
            "time": 538.25,
            "velocity": 0.9606299212598425
          },
          {
            "duration": 0.23749999999995453,
            "durationTicks": 76,
            "midi": 88,
            "name": "E6",
            "ticks": 172240,
            "time": 538.25,
            "velocity": 0.9606299212598425
          },
          {
            "duration": 0.2375000000000682,
            "durationTicks": 76,
            "midi": 74,
            "name": "D5",
            "ticks": 172320,
            "time": 538.5,
            "velocity": 0.9606299212598425
          },
          {
            "duration": 0.2375000000000682,
            "durationTicks": 76,
            "midi": 86,
            "name": "D6",
            "ticks": 172320,
            "time": 538.5,
            "velocity": 0.9606299212598425
          },
          {
            "duration": 0.23749999999995453,
            "durationTicks": 76,
            "midi": 74,
            "name": "D5",
            "ticks": 172400,
            "time": 538.75,
            "velocity": 0.9606299212598425
          },
          {
            "duration": 0.23749999999995453,
            "durationTicks": 76,
            "midi": 86,
            "name": "D6",
            "ticks": 172400,
            "time": 538.75,
            "velocity": 0.9606299212598425
          },
          {
            "duration": 0.23749999999995453,
            "durationTicks": 76,
            "midi": 74,
            "name": "D5",
            "ticks": 172480,
            "time": 539,
            "velocity": 0.9606299212598425
          },
          {
            "duration": 0.23749999999995453,
            "durationTicks": 76,
            "midi": 86,
            "name": "D6",
            "ticks": 172480,
            "time": 539,
            "velocity": 0.9606299212598425
          },
          {
            "duration": 0.2375000000000682,
            "durationTicks": 76,
            "midi": 73,
            "name": "C#5",
            "ticks": 172560,
            "time": 539.25,
            "velocity": 0.9606299212598425
          },
          {
            "duration": 0.2375000000000682,
            "durationTicks": 76,
            "midi": 85,
            "name": "C#6",
            "ticks": 172560,
            "time": 539.25,
            "velocity": 0.9606299212598425
          },
          {
            "duration": 0.23749999999995453,
            "durationTicks": 76,
            "midi": 73,
            "name": "C#5",
            "ticks": 172640,
            "time": 539.5,
            "velocity": 0.9606299212598425
          },
          {
            "duration": 0.23749999999995453,
            "durationTicks": 76,
            "midi": 85,
            "name": "C#6",
            "ticks": 172640,
            "time": 539.5,
            "velocity": 0.9606299212598425
          },
          {
            "duration": 0.23749999999995453,
            "durationTicks": 76,
            "midi": 73,
            "name": "C#5",
            "ticks": 172720,
            "time": 539.75,
            "velocity": 0.9606299212598425
          },
          {
            "duration": 0.23749999999995453,
            "durationTicks": 76,
            "midi": 85,
            "name": "C#6",
            "ticks": 172720,
            "time": 539.75,
            "velocity": 0.9606299212598425
          },
          {
            "duration": 0.18124999999997726,
            "durationTicks": 58,
            "midi": 76,
            "name": "E5",
            "ticks": 172800,
            "time": 540,
            "velocity": 1
          },
          {
            "duration": 0.18124999999997726,
            "durationTicks": 58,
            "midi": 76,
            "name": "E5",
            "ticks": 172860,
            "time": 540.1875,
            "velocity": 1
          },
          {
            "duration": 0.18124999999997726,
            "durationTicks": 58,
            "midi": 76,
            "name": "E5",
            "ticks": 172920,
            "time": 540.375,
            "velocity": 1
          },
          {
            "duration": 0.18124999999997726,
            "durationTicks": 58,
            "midi": 76,
            "name": "E5",
            "ticks": 172980,
            "time": 540.5625,
            "velocity": 1
          },
          {
            "duration": 0.18124999999997726,
            "durationTicks": 58,
            "midi": 76,
            "name": "E5",
            "ticks": 173040,
            "time": 540.75,
            "velocity": 1
          },
          {
            "duration": 0.18124999999997726,
            "durationTicks": 58,
            "midi": 76,
            "name": "E5",
            "ticks": 173100,
            "time": 540.9375,
            "velocity": 1
          },
          {
            "duration": 0.18124999999997726,
            "durationTicks": 58,
            "midi": 76,
            "name": "E5",
            "ticks": 173160,
            "time": 541.125,
            "velocity": 1
          },
          {
            "duration": 0.18124999999997726,
            "durationTicks": 58,
            "midi": 76,
            "name": "E5",
            "ticks": 173220,
            "time": 541.3125,
            "velocity": 1
          },
          {
            "duration": 0.18124999999997726,
            "durationTicks": 58,
            "midi": 76,
            "name": "E5",
            "ticks": 173280,
            "time": 541.5,
            "velocity": 1
          },
          {
            "duration": 0.18124999999997726,
            "durationTicks": 58,
            "midi": 76,
            "name": "E5",
            "ticks": 173340,
            "time": 541.6875,
            "velocity": 1
          },
          {
            "duration": 0.18124999999997726,
            "durationTicks": 58,
            "midi": 76,
            "name": "E5",
            "ticks": 173400,
            "time": 541.875,
            "velocity": 1
          },
          {
            "duration": 0.18124999999997726,
            "durationTicks": 58,
            "midi": 76,
            "name": "E5",
            "ticks": 173460,
            "time": 542.0625,
            "velocity": 1
          },
          {
            "duration": 0.18124999999997726,
            "durationTicks": 58,
            "midi": 76,
            "name": "E5",
            "ticks": 173520,
            "time": 542.25,
            "velocity": 1
          },
          {
            "duration": 0.18124999999997726,
            "durationTicks": 58,
            "midi": 76,
            "name": "E5",
            "ticks": 173580,
            "time": 542.4375,
            "velocity": 1
          },
          {
            "duration": 0.18124999999997726,
            "durationTicks": 58,
            "midi": 76,
            "name": "E5",
            "ticks": 173640,
            "time": 542.625,
            "velocity": 1
          },
          {
            "duration": 0.18124999999997726,
            "durationTicks": 58,
            "midi": 76,
            "name": "E5",
            "ticks": 173700,
            "time": 542.8125,
            "velocity": 1
          },
          {
            "duration": 0.18124999999997726,
            "durationTicks": 58,
            "midi": 74,
            "name": "D5",
            "ticks": 173760,
            "time": 543,
            "velocity": 1
          },
          {
            "duration": 0.18124999999997726,
            "durationTicks": 58,
            "midi": 74,
            "name": "D5",
            "ticks": 173820,
            "time": 543.1875,
            "velocity": 1
          },
          {
            "duration": 0.18124999999997726,
            "durationTicks": 58,
            "midi": 74,
            "name": "D5",
            "ticks": 173880,
            "time": 543.375,
            "velocity": 1
          },
          {
            "duration": 0.18124999999997726,
            "durationTicks": 58,
            "midi": 74,
            "name": "D5",
            "ticks": 173940,
            "time": 543.5625,
            "velocity": 1
          },
          {
            "duration": 0.18124999999997726,
            "durationTicks": 58,
            "midi": 74,
            "name": "D5",
            "ticks": 174000,
            "time": 543.75,
            "velocity": 1
          },
          {
            "duration": 0.18124999999997726,
            "durationTicks": 58,
            "midi": 74,
            "name": "D5",
            "ticks": 174060,
            "time": 543.9375,
            "velocity": 1
          },
          {
            "duration": 0.18124999999997726,
            "durationTicks": 58,
            "midi": 74,
            "name": "D5",
            "ticks": 174120,
            "time": 544.125,
            "velocity": 1
          },
          {
            "duration": 0.18124999999997726,
            "durationTicks": 58,
            "midi": 74,
            "name": "D5",
            "ticks": 174180,
            "time": 544.3125,
            "velocity": 1
          },
          {
            "duration": 0.2375000000000682,
            "durationTicks": 76,
            "midi": 74,
            "name": "D5",
            "ticks": 174720,
            "time": 546,
            "velocity": 0.9606299212598425
          },
          {
            "duration": 0.2375000000000682,
            "durationTicks": 76,
            "midi": 86,
            "name": "D6",
            "ticks": 174720,
            "time": 546,
            "velocity": 0.9606299212598425
          },
          {
            "duration": 0.23749999999995453,
            "durationTicks": 76,
            "midi": 74,
            "name": "D5",
            "ticks": 174800,
            "time": 546.25,
            "velocity": 0.9606299212598425
          },
          {
            "duration": 0.23749999999995453,
            "durationTicks": 76,
            "midi": 86,
            "name": "D6",
            "ticks": 174800,
            "time": 546.25,
            "velocity": 0.9606299212598425
          },
          {
            "duration": 0.23749999999995453,
            "durationTicks": 76,
            "midi": 74,
            "name": "D5",
            "ticks": 174880,
            "time": 546.5,
            "velocity": 0.9606299212598425
          },
          {
            "duration": 0.23749999999995453,
            "durationTicks": 76,
            "midi": 86,
            "name": "D6",
            "ticks": 174880,
            "time": 546.5,
            "velocity": 0.9606299212598425
          },
          {
            "duration": 0.2375000000000682,
            "durationTicks": 76,
            "midi": 73,
            "name": "C#5",
            "ticks": 174960,
            "time": 546.75,
            "velocity": 0.9606299212598425
          },
          {
            "duration": 0.2375000000000682,
            "durationTicks": 76,
            "midi": 85,
            "name": "C#6",
            "ticks": 174960,
            "time": 546.75,
            "velocity": 0.9606299212598425
          },
          {
            "duration": 0.23749999999995453,
            "durationTicks": 76,
            "midi": 73,
            "name": "C#5",
            "ticks": 175040,
            "time": 547,
            "velocity": 0.9606299212598425
          },
          {
            "duration": 0.23749999999995453,
            "durationTicks": 76,
            "midi": 85,
            "name": "C#6",
            "ticks": 175040,
            "time": 547,
            "velocity": 0.9606299212598425
          },
          {
            "duration": 0.23749999999995453,
            "durationTicks": 76,
            "midi": 73,
            "name": "C#5",
            "ticks": 175120,
            "time": 547.25,
            "velocity": 0.9606299212598425
          },
          {
            "duration": 0.23749999999995453,
            "durationTicks": 76,
            "midi": 85,
            "name": "C#6",
            "ticks": 175120,
            "time": 547.25,
            "velocity": 0.9606299212598425
          },
          {
            "duration": 0.2375000000000682,
            "durationTicks": 76,
            "midi": 71,
            "name": "B4",
            "ticks": 175200,
            "time": 547.5,
            "velocity": 0.9606299212598425
          },
          {
            "duration": 0.2375000000000682,
            "durationTicks": 76,
            "midi": 83,
            "name": "B5",
            "ticks": 175200,
            "time": 547.5,
            "velocity": 0.9606299212598425
          },
          {
            "duration": 0.23749999999995453,
            "durationTicks": 76,
            "midi": 71,
            "name": "B4",
            "ticks": 175280,
            "time": 547.75,
            "velocity": 0.9606299212598425
          },
          {
            "duration": 0.23749999999995453,
            "durationTicks": 76,
            "midi": 83,
            "name": "B5",
            "ticks": 175280,
            "time": 547.75,
            "velocity": 0.9606299212598425
          },
          {
            "duration": 0.23749999999995453,
            "durationTicks": 76,
            "midi": 71,
            "name": "B4",
            "ticks": 175360,
            "time": 548,
            "velocity": 0.9606299212598425
          },
          {
            "duration": 0.23749999999995453,
            "durationTicks": 76,
            "midi": 83,
            "name": "B5",
            "ticks": 175360,
            "time": 548,
            "velocity": 0.9606299212598425
          },
          {
            "duration": 0.2375000000000682,
            "durationTicks": 76,
            "midi": 70,
            "name": "A#4",
            "ticks": 175440,
            "time": 548.25,
            "velocity": 0.9606299212598425
          },
          {
            "duration": 0.2375000000000682,
            "durationTicks": 76,
            "midi": 82,
            "name": "A#5",
            "ticks": 175440,
            "time": 548.25,
            "velocity": 0.9606299212598425
          },
          {
            "duration": 0.23749999999995453,
            "durationTicks": 76,
            "midi": 70,
            "name": "A#4",
            "ticks": 175520,
            "time": 548.5,
            "velocity": 0.9606299212598425
          },
          {
            "duration": 0.23749999999995453,
            "durationTicks": 76,
            "midi": 82,
            "name": "A#5",
            "ticks": 175520,
            "time": 548.5,
            "velocity": 0.9606299212598425
          },
          {
            "duration": 0.23749999999995453,
            "durationTicks": 76,
            "midi": 70,
            "name": "A#4",
            "ticks": 175600,
            "time": 548.75,
            "velocity": 0.9606299212598425
          },
          {
            "duration": 0.23749999999995453,
            "durationTicks": 76,
            "midi": 82,
            "name": "A#5",
            "ticks": 175600,
            "time": 548.75,
            "velocity": 0.9606299212598425
          },
          {
            "duration": 0.18124999999997726,
            "durationTicks": 58,
            "midi": 73,
            "name": "C#5",
            "ticks": 175680,
            "time": 549,
            "velocity": 1
          },
          {
            "duration": 0.18124999999997726,
            "durationTicks": 58,
            "midi": 73,
            "name": "C#5",
            "ticks": 175740,
            "time": 549.1875,
            "velocity": 1
          },
          {
            "duration": 0.18124999999997726,
            "durationTicks": 58,
            "midi": 73,
            "name": "C#5",
            "ticks": 175800,
            "time": 549.375,
            "velocity": 1
          },
          {
            "duration": 0.18124999999997726,
            "durationTicks": 58,
            "midi": 73,
            "name": "C#5",
            "ticks": 175860,
            "time": 549.5625,
            "velocity": 1
          },
          {
            "duration": 0.18124999999997726,
            "durationTicks": 58,
            "midi": 73,
            "name": "C#5",
            "ticks": 175920,
            "time": 549.75,
            "velocity": 1
          },
          {
            "duration": 0.18124999999997726,
            "durationTicks": 58,
            "midi": 73,
            "name": "C#5",
            "ticks": 175980,
            "time": 549.9375,
            "velocity": 1
          },
          {
            "duration": 0.18124999999997726,
            "durationTicks": 58,
            "midi": 73,
            "name": "C#5",
            "ticks": 176040,
            "time": 550.125,
            "velocity": 1
          },
          {
            "duration": 0.18124999999997726,
            "durationTicks": 58,
            "midi": 73,
            "name": "C#5",
            "ticks": 176100,
            "time": 550.3125,
            "velocity": 1
          },
          {
            "duration": 0.18124999999997726,
            "durationTicks": 58,
            "midi": 73,
            "name": "C#5",
            "ticks": 176160,
            "time": 550.5,
            "velocity": 1
          },
          {
            "duration": 0.18124999999997726,
            "durationTicks": 58,
            "midi": 73,
            "name": "C#5",
            "ticks": 176220,
            "time": 550.6875,
            "velocity": 1
          },
          {
            "duration": 0.18124999999997726,
            "durationTicks": 58,
            "midi": 73,
            "name": "C#5",
            "ticks": 176280,
            "time": 550.875,
            "velocity": 1
          },
          {
            "duration": 0.18124999999997726,
            "durationTicks": 58,
            "midi": 73,
            "name": "C#5",
            "ticks": 176340,
            "time": 551.0625,
            "velocity": 1
          },
          {
            "duration": 0.18124999999997726,
            "durationTicks": 58,
            "midi": 73,
            "name": "C#5",
            "ticks": 176400,
            "time": 551.25,
            "velocity": 1
          },
          {
            "duration": 0.18124999999997726,
            "durationTicks": 58,
            "midi": 73,
            "name": "C#5",
            "ticks": 176460,
            "time": 551.4375,
            "velocity": 1
          },
          {
            "duration": 0.18124999999997726,
            "durationTicks": 58,
            "midi": 73,
            "name": "C#5",
            "ticks": 176520,
            "time": 551.625,
            "velocity": 1
          },
          {
            "duration": 0.18124999999997726,
            "durationTicks": 58,
            "midi": 73,
            "name": "C#5",
            "ticks": 176580,
            "time": 551.8125,
            "velocity": 1
          },
          {
            "duration": 0.18124999999997726,
            "durationTicks": 58,
            "midi": 71,
            "name": "B4",
            "ticks": 176640,
            "time": 552,
            "velocity": 1
          },
          {
            "duration": 0.18124999999997726,
            "durationTicks": 58,
            "midi": 71,
            "name": "B4",
            "ticks": 176700,
            "time": 552.1875,
            "velocity": 1
          },
          {
            "duration": 0.18124999999997726,
            "durationTicks": 58,
            "midi": 71,
            "name": "B4",
            "ticks": 176760,
            "time": 552.375,
            "velocity": 1
          },
          {
            "duration": 0.18124999999997726,
            "durationTicks": 58,
            "midi": 71,
            "name": "B4",
            "ticks": 176820,
            "time": 552.5625,
            "velocity": 1
          },
          {
            "duration": 0.18124999999997726,
            "durationTicks": 58,
            "midi": 71,
            "name": "B4",
            "ticks": 176880,
            "time": 552.75,
            "velocity": 1
          },
          {
            "duration": 0.18124999999997726,
            "durationTicks": 58,
            "midi": 71,
            "name": "B4",
            "ticks": 176940,
            "time": 552.9375,
            "velocity": 1
          },
          {
            "duration": 0.18124999999997726,
            "durationTicks": 58,
            "midi": 71,
            "name": "B4",
            "ticks": 177000,
            "time": 553.125,
            "velocity": 1
          },
          {
            "duration": 0.18124999999997726,
            "durationTicks": 58,
            "midi": 71,
            "name": "B4",
            "ticks": 177060,
            "time": 553.3125,
            "velocity": 1
          },
          {
            "duration": 0.2375000000000682,
            "durationTicks": 76,
            "midi": 71,
            "name": "B4",
            "ticks": 177600,
            "time": 555,
            "velocity": 0.9606299212598425
          },
          {
            "duration": 0.2375000000000682,
            "durationTicks": 76,
            "midi": 83,
            "name": "B5",
            "ticks": 177600,
            "time": 555,
            "velocity": 0.9606299212598425
          },
          {
            "duration": 0.23749999999995453,
            "durationTicks": 76,
            "midi": 71,
            "name": "B4",
            "ticks": 177680,
            "time": 555.25,
            "velocity": 0.9606299212598425
          },
          {
            "duration": 0.23749999999995453,
            "durationTicks": 76,
            "midi": 83,
            "name": "B5",
            "ticks": 177680,
            "time": 555.25,
            "velocity": 0.9606299212598425
          },
          {
            "duration": 0.23749999999995453,
            "durationTicks": 76,
            "midi": 71,
            "name": "B4",
            "ticks": 177760,
            "time": 555.5,
            "velocity": 0.9606299212598425
          },
          {
            "duration": 0.23749999999995453,
            "durationTicks": 76,
            "midi": 83,
            "name": "B5",
            "ticks": 177760,
            "time": 555.5,
            "velocity": 0.9606299212598425
          },
          {
            "duration": 0.2375000000000682,
            "durationTicks": 76,
            "midi": 69,
            "name": "A4",
            "ticks": 177840,
            "time": 555.75,
            "velocity": 0.9606299212598425
          },
          {
            "duration": 0.2375000000000682,
            "durationTicks": 76,
            "midi": 81,
            "name": "A5",
            "ticks": 177840,
            "time": 555.75,
            "velocity": 0.9606299212598425
          },
          {
            "duration": 0.23749999999995453,
            "durationTicks": 76,
            "midi": 69,
            "name": "A4",
            "ticks": 177920,
            "time": 556,
            "velocity": 0.9606299212598425
          },
          {
            "duration": 0.23749999999995453,
            "durationTicks": 76,
            "midi": 81,
            "name": "A5",
            "ticks": 177920,
            "time": 556,
            "velocity": 0.9606299212598425
          },
          {
            "duration": 0.23749999999995453,
            "durationTicks": 76,
            "midi": 69,
            "name": "A4",
            "ticks": 178000,
            "time": 556.25,
            "velocity": 0.9606299212598425
          },
          {
            "duration": 0.23749999999995453,
            "durationTicks": 76,
            "midi": 81,
            "name": "A5",
            "ticks": 178000,
            "time": 556.25,
            "velocity": 0.9606299212598425
          },
          {
            "duration": 0.2375000000000682,
            "durationTicks": 76,
            "midi": 67,
            "name": "G4",
            "ticks": 178080,
            "time": 556.5,
            "velocity": 0.9606299212598425
          },
          {
            "duration": 0.2375000000000682,
            "durationTicks": 76,
            "midi": 79,
            "name": "G5",
            "ticks": 178080,
            "time": 556.5,
            "velocity": 0.9606299212598425
          },
          {
            "duration": 0.23749999999995453,
            "durationTicks": 76,
            "midi": 67,
            "name": "G4",
            "ticks": 178160,
            "time": 556.75,
            "velocity": 0.9606299212598425
          },
          {
            "duration": 0.23749999999995453,
            "durationTicks": 76,
            "midi": 79,
            "name": "G5",
            "ticks": 178160,
            "time": 556.75,
            "velocity": 0.9606299212598425
          },
          {
            "duration": 0.23749999999995453,
            "durationTicks": 76,
            "midi": 67,
            "name": "G4",
            "ticks": 178240,
            "time": 557,
            "velocity": 0.9606299212598425
          },
          {
            "duration": 0.23749999999995453,
            "durationTicks": 76,
            "midi": 79,
            "name": "G5",
            "ticks": 178240,
            "time": 557,
            "velocity": 0.9606299212598425
          },
          {
            "duration": 0.2375000000000682,
            "durationTicks": 76,
            "midi": 66,
            "name": "F#4",
            "ticks": 178320,
            "time": 557.25,
            "velocity": 0.9606299212598425
          },
          {
            "duration": 0.2375000000000682,
            "durationTicks": 76,
            "midi": 78,
            "name": "F#5",
            "ticks": 178320,
            "time": 557.25,
            "velocity": 0.9606299212598425
          },
          {
            "duration": 0.23749999999995453,
            "durationTicks": 76,
            "midi": 66,
            "name": "F#4",
            "ticks": 178400,
            "time": 557.5,
            "velocity": 0.9606299212598425
          },
          {
            "duration": 0.23749999999995453,
            "durationTicks": 76,
            "midi": 78,
            "name": "F#5",
            "ticks": 178400,
            "time": 557.5,
            "velocity": 0.9606299212598425
          },
          {
            "duration": 0.23749999999995453,
            "durationTicks": 76,
            "midi": 66,
            "name": "F#4",
            "ticks": 178480,
            "time": 557.75,
            "velocity": 0.9606299212598425
          },
          {
            "duration": 0.23749999999995453,
            "durationTicks": 76,
            "midi": 78,
            "name": "F#5",
            "ticks": 178480,
            "time": 557.75,
            "velocity": 0.9606299212598425
          },
          {
            "duration": 0.18124999999997726,
            "durationTicks": 58,
            "midi": 69,
            "name": "A4",
            "ticks": 178560,
            "time": 558,
            "velocity": 1
          },
          {
            "duration": 0.18124999999997726,
            "durationTicks": 58,
            "midi": 81,
            "name": "A5",
            "ticks": 178560,
            "time": 558,
            "velocity": 1
          },
          {
            "duration": 0.18124999999997726,
            "durationTicks": 58,
            "midi": 69,
            "name": "A4",
            "ticks": 178620,
            "time": 558.1875,
            "velocity": 1
          },
          {
            "duration": 0.18124999999997726,
            "durationTicks": 58,
            "midi": 81,
            "name": "A5",
            "ticks": 178620,
            "time": 558.1875,
            "velocity": 1
          },
          {
            "duration": 0.18124999999997726,
            "durationTicks": 58,
            "midi": 69,
            "name": "A4",
            "ticks": 178680,
            "time": 558.375,
            "velocity": 1
          },
          {
            "duration": 0.18124999999997726,
            "durationTicks": 58,
            "midi": 81,
            "name": "A5",
            "ticks": 178680,
            "time": 558.375,
            "velocity": 1
          },
          {
            "duration": 0.18124999999997726,
            "durationTicks": 58,
            "midi": 69,
            "name": "A4",
            "ticks": 178740,
            "time": 558.5625,
            "velocity": 1
          },
          {
            "duration": 0.18124999999997726,
            "durationTicks": 58,
            "midi": 81,
            "name": "A5",
            "ticks": 178740,
            "time": 558.5625,
            "velocity": 1
          },
          {
            "duration": 0.18124999999997726,
            "durationTicks": 58,
            "midi": 69,
            "name": "A4",
            "ticks": 178800,
            "time": 558.75,
            "velocity": 1
          },
          {
            "duration": 0.18124999999997726,
            "durationTicks": 58,
            "midi": 81,
            "name": "A5",
            "ticks": 178800,
            "time": 558.75,
            "velocity": 1
          },
          {
            "duration": 0.18124999999997726,
            "durationTicks": 58,
            "midi": 69,
            "name": "A4",
            "ticks": 178860,
            "time": 558.9375,
            "velocity": 1
          },
          {
            "duration": 0.18124999999997726,
            "durationTicks": 58,
            "midi": 81,
            "name": "A5",
            "ticks": 178860,
            "time": 558.9375,
            "velocity": 1
          },
          {
            "duration": 0.18124999999997726,
            "durationTicks": 58,
            "midi": 69,
            "name": "A4",
            "ticks": 178920,
            "time": 559.125,
            "velocity": 1
          },
          {
            "duration": 0.18124999999997726,
            "durationTicks": 58,
            "midi": 81,
            "name": "A5",
            "ticks": 178920,
            "time": 559.125,
            "velocity": 1
          },
          {
            "duration": 0.18124999999997726,
            "durationTicks": 58,
            "midi": 69,
            "name": "A4",
            "ticks": 178980,
            "time": 559.3125,
            "velocity": 1
          },
          {
            "duration": 0.18124999999997726,
            "durationTicks": 58,
            "midi": 81,
            "name": "A5",
            "ticks": 178980,
            "time": 559.3125,
            "velocity": 1
          },
          {
            "duration": 0.18124999999997726,
            "durationTicks": 58,
            "midi": 69,
            "name": "A4",
            "ticks": 179040,
            "time": 559.5,
            "velocity": 1
          },
          {
            "duration": 0.18124999999997726,
            "durationTicks": 58,
            "midi": 81,
            "name": "A5",
            "ticks": 179040,
            "time": 559.5,
            "velocity": 1
          },
          {
            "duration": 0.18124999999997726,
            "durationTicks": 58,
            "midi": 69,
            "name": "A4",
            "ticks": 179100,
            "time": 559.6875,
            "velocity": 1
          },
          {
            "duration": 0.18124999999997726,
            "durationTicks": 58,
            "midi": 81,
            "name": "A5",
            "ticks": 179100,
            "time": 559.6875,
            "velocity": 1
          },
          {
            "duration": 0.18124999999997726,
            "durationTicks": 58,
            "midi": 69,
            "name": "A4",
            "ticks": 179160,
            "time": 559.875,
            "velocity": 1
          },
          {
            "duration": 0.18124999999997726,
            "durationTicks": 58,
            "midi": 81,
            "name": "A5",
            "ticks": 179160,
            "time": 559.875,
            "velocity": 1
          },
          {
            "duration": 0.18124999999997726,
            "durationTicks": 58,
            "midi": 69,
            "name": "A4",
            "ticks": 179220,
            "time": 560.0625,
            "velocity": 1
          },
          {
            "duration": 0.18124999999997726,
            "durationTicks": 58,
            "midi": 81,
            "name": "A5",
            "ticks": 179220,
            "time": 560.0625,
            "velocity": 1
          },
          {
            "duration": 0.18124999999997726,
            "durationTicks": 58,
            "midi": 69,
            "name": "A4",
            "ticks": 179280,
            "time": 560.25,
            "velocity": 1
          },
          {
            "duration": 0.18124999999997726,
            "durationTicks": 58,
            "midi": 81,
            "name": "A5",
            "ticks": 179280,
            "time": 560.25,
            "velocity": 1
          },
          {
            "duration": 0.18124999999997726,
            "durationTicks": 58,
            "midi": 69,
            "name": "A4",
            "ticks": 179340,
            "time": 560.4375,
            "velocity": 1
          },
          {
            "duration": 0.18124999999997726,
            "durationTicks": 58,
            "midi": 81,
            "name": "A5",
            "ticks": 179340,
            "time": 560.4375,
            "velocity": 1
          },
          {
            "duration": 0.18124999999997726,
            "durationTicks": 58,
            "midi": 69,
            "name": "A4",
            "ticks": 179400,
            "time": 560.625,
            "velocity": 1
          },
          {
            "duration": 0.18124999999997726,
            "durationTicks": 58,
            "midi": 81,
            "name": "A5",
            "ticks": 179400,
            "time": 560.625,
            "velocity": 1
          },
          {
            "duration": 0.18124999999997726,
            "durationTicks": 58,
            "midi": 69,
            "name": "A4",
            "ticks": 179460,
            "time": 560.8125,
            "velocity": 1
          },
          {
            "duration": 0.18124999999997726,
            "durationTicks": 58,
            "midi": 81,
            "name": "A5",
            "ticks": 179460,
            "time": 560.8125,
            "velocity": 1
          },
          {
            "duration": 0.2375000000000682,
            "durationTicks": 76,
            "midi": 67,
            "name": "G4",
            "ticks": 179520,
            "time": 561,
            "velocity": 0.9606299212598425
          },
          {
            "duration": 0.2375000000000682,
            "durationTicks": 76,
            "midi": 79,
            "name": "G5",
            "ticks": 179520,
            "time": 561,
            "velocity": 0.9606299212598425
          },
          {
            "duration": 0.23749999999995453,
            "durationTicks": 76,
            "midi": 67,
            "name": "G4",
            "ticks": 179600,
            "time": 561.25,
            "velocity": 0.9606299212598425
          },
          {
            "duration": 0.23749999999995453,
            "durationTicks": 76,
            "midi": 79,
            "name": "G5",
            "ticks": 179600,
            "time": 561.25,
            "velocity": 0.9606299212598425
          },
          {
            "duration": 0.23749999999995453,
            "durationTicks": 76,
            "midi": 67,
            "name": "G4",
            "ticks": 179680,
            "time": 561.5,
            "velocity": 0.9606299212598425
          },
          {
            "duration": 0.23749999999995453,
            "durationTicks": 76,
            "midi": 79,
            "name": "G5",
            "ticks": 179680,
            "time": 561.5,
            "velocity": 0.9606299212598425
          },
          {
            "duration": 0.2375000000000682,
            "durationTicks": 76,
            "midi": 66,
            "name": "F#4",
            "ticks": 179760,
            "time": 561.75,
            "velocity": 0.9606299212598425
          },
          {
            "duration": 0.2375000000000682,
            "durationTicks": 76,
            "midi": 78,
            "name": "F#5",
            "ticks": 179760,
            "time": 561.75,
            "velocity": 0.9606299212598425
          },
          {
            "duration": 0.23749999999995453,
            "durationTicks": 76,
            "midi": 66,
            "name": "F#4",
            "ticks": 179840,
            "time": 562,
            "velocity": 0.9606299212598425
          },
          {
            "duration": 0.23749999999995453,
            "durationTicks": 76,
            "midi": 78,
            "name": "F#5",
            "ticks": 179840,
            "time": 562,
            "velocity": 0.9606299212598425
          },
          {
            "duration": 0.23749999999995453,
            "durationTicks": 76,
            "midi": 66,
            "name": "F#4",
            "ticks": 179920,
            "time": 562.25,
            "velocity": 0.9606299212598425
          },
          {
            "duration": 0.23749999999995453,
            "durationTicks": 76,
            "midi": 78,
            "name": "F#5",
            "ticks": 179920,
            "time": 562.25,
            "velocity": 0.9606299212598425
          },
          {
            "duration": 0.2375000000000682,
            "durationTicks": 76,
            "midi": 64,
            "name": "E4",
            "ticks": 180000,
            "time": 562.5,
            "velocity": 0.9606299212598425
          },
          {
            "duration": 0.2375000000000682,
            "durationTicks": 76,
            "midi": 76,
            "name": "E5",
            "ticks": 180000,
            "time": 562.5,
            "velocity": 0.9606299212598425
          },
          {
            "duration": 0.23749999999995453,
            "durationTicks": 76,
            "midi": 64,
            "name": "E4",
            "ticks": 180080,
            "time": 562.75,
            "velocity": 0.9606299212598425
          },
          {
            "duration": 0.23749999999995453,
            "durationTicks": 76,
            "midi": 76,
            "name": "E5",
            "ticks": 180080,
            "time": 562.75,
            "velocity": 0.9606299212598425
          },
          {
            "duration": 0.23749999999995453,
            "durationTicks": 76,
            "midi": 64,
            "name": "E4",
            "ticks": 180160,
            "time": 563,
            "velocity": 0.9606299212598425
          },
          {
            "duration": 0.23749999999995453,
            "durationTicks": 76,
            "midi": 76,
            "name": "E5",
            "ticks": 180160,
            "time": 563,
            "velocity": 0.9606299212598425
          },
          {
            "duration": 0.2375000000000682,
            "durationTicks": 76,
            "midi": 62,
            "name": "D4",
            "ticks": 180240,
            "time": 563.25,
            "velocity": 0.9606299212598425
          },
          {
            "duration": 0.2375000000000682,
            "durationTicks": 76,
            "midi": 74,
            "name": "D5",
            "ticks": 180240,
            "time": 563.25,
            "velocity": 0.9606299212598425
          },
          {
            "duration": 0.23749999999995453,
            "durationTicks": 76,
            "midi": 62,
            "name": "D4",
            "ticks": 180320,
            "time": 563.5,
            "velocity": 0.9606299212598425
          },
          {
            "duration": 0.23749999999995453,
            "durationTicks": 76,
            "midi": 74,
            "name": "D5",
            "ticks": 180320,
            "time": 563.5,
            "velocity": 0.9606299212598425
          },
          {
            "duration": 0.23749999999995453,
            "durationTicks": 76,
            "midi": 62,
            "name": "D4",
            "ticks": 180400,
            "time": 563.75,
            "velocity": 0.9606299212598425
          },
          {
            "duration": 0.23749999999995453,
            "durationTicks": 76,
            "midi": 74,
            "name": "D5",
            "ticks": 180400,
            "time": 563.75,
            "velocity": 0.9606299212598425
          },
          {
            "duration": 0.2375000000000682,
            "durationTicks": 76,
            "midi": 61,
            "name": "C#4",
            "ticks": 180480,
            "time": 564,
            "velocity": 0.9606299212598425
          },
          {
            "duration": 0.2375000000000682,
            "durationTicks": 76,
            "midi": 73,
            "name": "C#5",
            "ticks": 180480,
            "time": 564,
            "velocity": 0.9606299212598425
          },
          {
            "duration": 0.23749999999995453,
            "durationTicks": 76,
            "midi": 61,
            "name": "C#4",
            "ticks": 180560,
            "time": 564.25,
            "velocity": 0.9606299212598425
          },
          {
            "duration": 0.23749999999995453,
            "durationTicks": 76,
            "midi": 73,
            "name": "C#5",
            "ticks": 180560,
            "time": 564.25,
            "velocity": 0.9606299212598425
          },
          {
            "duration": 0.23749999999995453,
            "durationTicks": 76,
            "midi": 61,
            "name": "C#4",
            "ticks": 180640,
            "time": 564.5,
            "velocity": 0.9606299212598425
          },
          {
            "duration": 0.23749999999995453,
            "durationTicks": 76,
            "midi": 73,
            "name": "C#5",
            "ticks": 180640,
            "time": 564.5,
            "velocity": 0.9606299212598425
          },
          {
            "duration": 0.2375000000000682,
            "durationTicks": 76,
            "midi": 62,
            "name": "D4",
            "ticks": 180720,
            "time": 564.75,
            "velocity": 0.9606299212598425
          },
          {
            "duration": 0.2375000000000682,
            "durationTicks": 76,
            "midi": 74,
            "name": "D5",
            "ticks": 180720,
            "time": 564.75,
            "velocity": 0.9606299212598425
          },
          {
            "duration": 0.23749999999995453,
            "durationTicks": 76,
            "midi": 62,
            "name": "D4",
            "ticks": 180800,
            "time": 565,
            "velocity": 0.9606299212598425
          },
          {
            "duration": 0.23749999999995453,
            "durationTicks": 76,
            "midi": 74,
            "name": "D5",
            "ticks": 180800,
            "time": 565,
            "velocity": 0.9606299212598425
          },
          {
            "duration": 0.23749999999995453,
            "durationTicks": 76,
            "midi": 62,
            "name": "D4",
            "ticks": 180880,
            "time": 565.25,
            "velocity": 0.9606299212598425
          },
          {
            "duration": 0.23749999999995453,
            "durationTicks": 76,
            "midi": 74,
            "name": "D5",
            "ticks": 180880,
            "time": 565.25,
            "velocity": 0.9606299212598425
          },
          {
            "duration": 0.2375000000000682,
            "durationTicks": 76,
            "midi": 61,
            "name": "C#4",
            "ticks": 180960,
            "time": 565.5,
            "velocity": 0.9606299212598425
          },
          {
            "duration": 0.2375000000000682,
            "durationTicks": 76,
            "midi": 73,
            "name": "C#5",
            "ticks": 180960,
            "time": 565.5,
            "velocity": 0.9606299212598425
          },
          {
            "duration": 0.23749999999995453,
            "durationTicks": 76,
            "midi": 61,
            "name": "C#4",
            "ticks": 181040,
            "time": 565.75,
            "velocity": 0.9606299212598425
          },
          {
            "duration": 0.23749999999995453,
            "durationTicks": 76,
            "midi": 73,
            "name": "C#5",
            "ticks": 181040,
            "time": 565.75,
            "velocity": 0.9606299212598425
          },
          {
            "duration": 0.23749999999995453,
            "durationTicks": 76,
            "midi": 61,
            "name": "C#4",
            "ticks": 181120,
            "time": 566,
            "velocity": 0.9606299212598425
          },
          {
            "duration": 0.23749999999995453,
            "durationTicks": 76,
            "midi": 73,
            "name": "C#5",
            "ticks": 181120,
            "time": 566,
            "velocity": 0.9606299212598425
          },
          {
            "duration": 0.2375000000000682,
            "durationTicks": 76,
            "midi": 59,
            "name": "B3",
            "ticks": 181200,
            "time": 566.25,
            "velocity": 0.9606299212598425
          },
          {
            "duration": 0.2375000000000682,
            "durationTicks": 76,
            "midi": 71,
            "name": "B4",
            "ticks": 181200,
            "time": 566.25,
            "velocity": 0.9606299212598425
          },
          {
            "duration": 0.23749999999995453,
            "durationTicks": 76,
            "midi": 59,
            "name": "B3",
            "ticks": 181280,
            "time": 566.5,
            "velocity": 0.9606299212598425
          },
          {
            "duration": 0.23749999999995453,
            "durationTicks": 76,
            "midi": 71,
            "name": "B4",
            "ticks": 181280,
            "time": 566.5,
            "velocity": 0.9606299212598425
          },
          {
            "duration": 0.23749999999995453,
            "durationTicks": 76,
            "midi": 59,
            "name": "B3",
            "ticks": 181360,
            "time": 566.75,
            "velocity": 0.9606299212598425
          },
          {
            "duration": 0.23749999999995453,
            "durationTicks": 76,
            "midi": 71,
            "name": "B4",
            "ticks": 181360,
            "time": 566.75,
            "velocity": 0.9606299212598425
          },
          {
            "duration": 0.7062500000000682,
            "durationTicks": 226,
            "midi": 59,
            "name": "B3",
            "ticks": 181440,
            "time": 567,
            "velocity": 1
          },
          {
            "duration": 0.7062500000000682,
            "durationTicks": 226,
            "midi": 62,
            "name": "D4",
            "ticks": 181440,
            "time": 567,
            "velocity": 1
          },
          {
            "duration": 0.2375000000000682,
            "durationTicks": 76,
            "midi": 61,
            "name": "C#4",
            "ticks": 182400,
            "time": 570,
            "velocity": 1
          },
          {
            "duration": 0.23749999999995453,
            "durationTicks": 76,
            "midi": 62,
            "name": "D4",
            "ticks": 182480,
            "time": 570.25,
            "velocity": 1
          },
          {
            "duration": 0.23749999999995453,
            "durationTicks": 76,
            "midi": 64,
            "name": "E4",
            "ticks": 182560,
            "time": 570.5,
            "velocity": 1
          },
          {
            "duration": 0.18124999999997726,
            "durationTicks": 58,
            "midi": 65,
            "name": "F4",
            "ticks": 182640,
            "time": 570.75,
            "velocity": 1
          },
          {
            "duration": 0.18124999999997726,
            "durationTicks": 58,
            "midi": 67,
            "name": "G4",
            "ticks": 182700,
            "time": 570.9375,
            "velocity": 1
          },
          {
            "duration": 0.18124999999997726,
            "durationTicks": 58,
            "midi": 68,
            "name": "G#4",
            "ticks": 182760,
            "time": 571.125,
            "velocity": 1
          },
          {
            "duration": 0.18124999999997726,
            "durationTicks": 58,
            "midi": 70,
            "name": "A#4",
            "ticks": 182820,
            "time": 571.3125,
            "velocity": 1
          },
          {
            "duration": 1.40625,
            "durationTicks": 450,
            "midi": 71,
            "name": "B4",
            "ticks": 182880,
            "time": 571.5,
            "velocity": 1
          },
          {
            "duration": 0.7062500000000682,
            "durationTicks": 226,
            "midi": 70,
            "name": "A#4",
            "ticks": 183360,
            "time": 573,
            "velocity": 1
          },
          {
            "duration": 0.7062500000000682,
            "durationTicks": 226,
            "midi": 68,
            "name": "G#4",
            "ticks": 183600,
            "time": 573.75,
            "velocity": 1
          },
          {
            "duration": 0.7062500000000682,
            "durationTicks": 226,
            "midi": 66,
            "name": "F#4",
            "ticks": 183840,
            "time": 574.5,
            "velocity": 1
          },
          {
            "duration": 0.7062500000000682,
            "durationTicks": 226,
            "midi": 65,
            "name": "F4",
            "ticks": 184080,
            "time": 575.25,
            "velocity": 1
          },
          {
            "duration": 1.40625,
            "durationTicks": 450,
            "midi": 64,
            "name": "E4",
            "ticks": 184320,
            "time": 576,
            "velocity": 1
          },
          {
            "duration": 0.2375000000000682,
            "durationTicks": 76,
            "midi": 61,
            "name": "C#4",
            "ticks": 185280,
            "time": 579,
            "velocity": 1
          },
          {
            "duration": 0.23749999999995453,
            "durationTicks": 76,
            "midi": 62,
            "name": "D4",
            "ticks": 185360,
            "time": 579.25,
            "velocity": 1
          },
          {
            "duration": 0.23749999999995453,
            "durationTicks": 76,
            "midi": 64,
            "name": "E4",
            "ticks": 185440,
            "time": 579.5,
            "velocity": 1
          },
          {
            "duration": 0.18124999999997726,
            "durationTicks": 58,
            "midi": 65,
            "name": "F4",
            "ticks": 185520,
            "time": 579.75,
            "velocity": 1
          },
          {
            "duration": 0.18124999999997726,
            "durationTicks": 58,
            "midi": 67,
            "name": "G4",
            "ticks": 185580,
            "time": 579.9375,
            "velocity": 1
          },
          {
            "duration": 0.18124999999997726,
            "durationTicks": 58,
            "midi": 68,
            "name": "G#4",
            "ticks": 185640,
            "time": 580.125,
            "velocity": 1
          },
          {
            "duration": 0.18124999999997726,
            "durationTicks": 58,
            "midi": 70,
            "name": "A#4",
            "ticks": 185700,
            "time": 580.3125,
            "velocity": 1
          },
          {
            "duration": 1.40625,
            "durationTicks": 450,
            "midi": 71,
            "name": "B4",
            "ticks": 185760,
            "time": 580.5,
            "velocity": 1
          },
          {
            "duration": 0.7062500000000682,
            "durationTicks": 226,
            "midi": 70,
            "name": "A#4",
            "ticks": 186240,
            "time": 582,
            "velocity": 1
          },
          {
            "duration": 0.7062500000000682,
            "durationTicks": 226,
            "midi": 68,
            "name": "G#4",
            "ticks": 186480,
            "time": 582.75,
            "velocity": 1
          },
          {
            "duration": 0.7062500000000682,
            "durationTicks": 226,
            "midi": 66,
            "name": "F#4",
            "ticks": 186720,
            "time": 583.5,
            "velocity": 1
          },
          {
            "duration": 0.7062500000000682,
            "durationTicks": 226,
            "midi": 65,
            "name": "F4",
            "ticks": 186960,
            "time": 584.25,
            "velocity": 1
          },
          {
            "duration": 1.40625,
            "durationTicks": 450,
            "midi": 64,
            "name": "E4",
            "ticks": 187200,
            "time": 585,
            "velocity": 1
          },
          {
            "duration": 0.2375000000000682,
            "durationTicks": 76,
            "midi": 59,
            "name": "B3",
            "ticks": 188160,
            "time": 588,
            "velocity": 1
          },
          {
            "duration": 0.23749999999995453,
            "durationTicks": 76,
            "midi": 55,
            "name": "G3",
            "ticks": 188240,
            "time": 588.25,
            "velocity": 1
          },
          {
            "duration": 0.23749999999995453,
            "durationTicks": 76,
            "midi": 56,
            "name": "G#3",
            "ticks": 188320,
            "time": 588.5,
            "velocity": 1
          },
          {
            "duration": 0.18124999999997726,
            "durationTicks": 58,
            "midi": 58,
            "name": "A#3",
            "ticks": 188400,
            "time": 588.75,
            "velocity": 1
          },
          {
            "duration": 0.18124999999997726,
            "durationTicks": 58,
            "midi": 59,
            "name": "B3",
            "ticks": 188460,
            "time": 588.9375,
            "velocity": 1
          },
          {
            "duration": 0.18124999999997726,
            "durationTicks": 58,
            "midi": 61,
            "name": "C#4",
            "ticks": 188520,
            "time": 589.125,
            "velocity": 1
          },
          {
            "duration": 0.18124999999997726,
            "durationTicks": 58,
            "midi": 63,
            "name": "D#4",
            "ticks": 188580,
            "time": 589.3125,
            "velocity": 1
          },
          {
            "duration": 1.40625,
            "durationTicks": 450,
            "midi": 64,
            "name": "E4",
            "ticks": 188640,
            "time": 589.5,
            "velocity": 1
          },
          {
            "duration": 0.7062500000000682,
            "durationTicks": 226,
            "midi": 63,
            "name": "D#4",
            "ticks": 189120,
            "time": 591,
            "velocity": 1
          },
          {
            "duration": 0.7062500000000682,
            "durationTicks": 226,
            "midi": 61,
            "name": "C#4",
            "ticks": 189360,
            "time": 591.75,
            "velocity": 1
          },
          {
            "duration": 0.7062500000000682,
            "durationTicks": 226,
            "midi": 59,
            "name": "B3",
            "ticks": 189600,
            "time": 592.5,
            "velocity": 1
          },
          {
            "duration": 0.7062500000000682,
            "durationTicks": 226,
            "midi": 58,
            "name": "A#3",
            "ticks": 189840,
            "time": 593.25,
            "velocity": 1
          },
          {
            "duration": 1.40625,
            "durationTicks": 450,
            "midi": 61,
            "name": "C#4",
            "ticks": 190080,
            "time": 594,
            "velocity": 1
          },
          {
            "duration": 0.2375000000000682,
            "durationTicks": 76,
            "midi": 59,
            "name": "B3",
            "ticks": 191040,
            "time": 597,
            "velocity": 1
          },
          {
            "duration": 0.23749999999995453,
            "durationTicks": 76,
            "midi": 55,
            "name": "G3",
            "ticks": 191120,
            "time": 597.25,
            "velocity": 1
          },
          {
            "duration": 0.23749999999995453,
            "durationTicks": 76,
            "midi": 56,
            "name": "G#3",
            "ticks": 191200,
            "time": 597.5,
            "velocity": 1
          },
          {
            "duration": 0.18124999999997726,
            "durationTicks": 58,
            "midi": 58,
            "name": "A#3",
            "ticks": 191280,
            "time": 597.75,
            "velocity": 1
          },
          {
            "duration": 0.18124999999997726,
            "durationTicks": 58,
            "midi": 59,
            "name": "B3",
            "ticks": 191340,
            "time": 597.9375,
            "velocity": 1
          },
          {
            "duration": 0.18124999999997726,
            "durationTicks": 58,
            "midi": 61,
            "name": "C#4",
            "ticks": 191400,
            "time": 598.125,
            "velocity": 1
          },
          {
            "duration": 0.18124999999997726,
            "durationTicks": 58,
            "midi": 63,
            "name": "D#4",
            "ticks": 191460,
            "time": 598.3125,
            "velocity": 1
          },
          {
            "duration": 1.40625,
            "durationTicks": 450,
            "midi": 64,
            "name": "E4",
            "ticks": 191520,
            "time": 598.5,
            "velocity": 1
          },
          {
            "duration": 0.7062500000000682,
            "durationTicks": 226,
            "midi": 63,
            "name": "D#4",
            "ticks": 192000,
            "time": 600,
            "velocity": 1
          },
          {
            "duration": 0.7062500000000682,
            "durationTicks": 226,
            "midi": 61,
            "name": "C#4",
            "ticks": 192240,
            "time": 600.75,
            "velocity": 1
          },
          {
            "duration": 0.7062500000000682,
            "durationTicks": 226,
            "midi": 59,
            "name": "B3",
            "ticks": 192480,
            "time": 601.5,
            "velocity": 1
          },
          {
            "duration": 0.7062500000000682,
            "durationTicks": 226,
            "midi": 58,
            "name": "A#3",
            "ticks": 192720,
            "time": 602.25,
            "velocity": 1
          },
          {
            "duration": 1.40625,
            "durationTicks": 450,
            "midi": 61,
            "name": "C#4",
            "ticks": 192960,
            "time": 603,
            "velocity": 1
          },
          {
            "duration": 1.40625,
            "durationTicks": 450,
            "midi": 59,
            "name": "B3",
            "ticks": 194400,
            "time": 607.5,
            "velocity": 0.8582677165354331
          },
          {
            "duration": 1.40625,
            "durationTicks": 450,
            "midi": 59,
            "name": "B3",
            "ticks": 195840,
            "time": 612,
            "velocity": 0.7165354330708661
          },
          {
            "duration": 1.40625,
            "durationTicks": 450,
            "midi": 71,
            "name": "B4",
            "ticks": 212640,
            "time": 664.5,
            "velocity": 0.47244094488188976
          },
          {
            "duration": 1.40625,
            "durationTicks": 450,
            "midi": 71,
            "name": "B4",
            "ticks": 213120,
            "time": 666,
            "velocity": 0.47244094488188976
          },
          {
            "duration": 1.40625,
            "durationTicks": 450,
            "midi": 69,
            "name": "A4",
            "ticks": 213600,
            "time": 667.5,
            "velocity": 0.47244094488188976
          },
          {
            "duration": 1.40625,
            "durationTicks": 450,
            "midi": 67,
            "name": "G4",
            "ticks": 214080,
            "time": 669,
            "velocity": 0.47244094488188976
          },
          {
            "duration": 2.8125,
            "durationTicks": 900,
            "midi": 66,
            "name": "F#4",
            "ticks": 214560,
            "time": 670.5,
            "velocity": 0.47244094488188976
          },
          {
            "duration": 1.40625,
            "durationTicks": 450,
            "midi": 71,
            "name": "B4",
            "ticks": 215520,
            "time": 673.5,
            "velocity": 0.47244094488188976
          },
          {
            "duration": 1.40625,
            "durationTicks": 450,
            "midi": 71,
            "name": "B4",
            "ticks": 216000,
            "time": 675,
            "velocity": 0.47244094488188976
          },
          {
            "duration": 1.40625,
            "durationTicks": 450,
            "midi": 69,
            "name": "A4",
            "ticks": 216480,
            "time": 676.5,
            "velocity": 0.47244094488188976
          },
          {
            "duration": 1.40625,
            "durationTicks": 450,
            "midi": 67,
            "name": "G4",
            "ticks": 216960,
            "time": 678,
            "velocity": 0.47244094488188976
          },
          {
            "duration": 2.8125,
            "durationTicks": 900,
            "midi": 66,
            "name": "F#4",
            "ticks": 217440,
            "time": 679.5,
            "velocity": 0.47244094488188976
          },
          {
            "duration": 1.40625,
            "durationTicks": 450,
            "midi": 66,
            "name": "F#4",
            "ticks": 218400,
            "time": 682.5,
            "velocity": 0.47244094488188976
          },
          {
            "duration": 1.40625,
            "durationTicks": 450,
            "midi": 66,
            "name": "F#4",
            "ticks": 218880,
            "time": 684,
            "velocity": 0.47244094488188976
          },
          {
            "duration": 1.40625,
            "durationTicks": 450,
            "midi": 64,
            "name": "E4",
            "ticks": 219360,
            "time": 685.5,
            "velocity": 0.47244094488188976
          },
          {
            "duration": 1.40625,
            "durationTicks": 450,
            "midi": 62,
            "name": "D4",
            "ticks": 219840,
            "time": 687,
            "velocity": 0.47244094488188976
          },
          {
            "duration": 1.40625,
            "durationTicks": 450,
            "midi": 62,
            "name": "D4",
            "ticks": 220320,
            "time": 688.5,
            "velocity": 0.47244094488188976
          },
          {
            "duration": 1.40625,
            "durationTicks": 450,
            "midi": 61,
            "name": "C#4",
            "ticks": 220800,
            "time": 690,
            "velocity": 0.47244094488188976
          },
          {
            "duration": 1.40625,
            "durationTicks": 450,
            "midi": 59,
            "name": "B3",
            "ticks": 221280,
            "time": 691.5,
            "velocity": 0.47244094488188976
          },
          {
            "duration": 1.40625,
            "durationTicks": 450,
            "midi": 59,
            "name": "B3",
            "ticks": 221760,
            "time": 693,
            "velocity": 0.47244094488188976
          },
          {
            "duration": 1.40625,
            "durationTicks": 450,
            "midi": 57,
            "name": "A3",
            "ticks": 222240,
            "time": 694.5,
            "velocity": 0.47244094488188976
          },
          {
            "duration": 0.7062500000000682,
            "durationTicks": 226,
            "midi": 55,
            "name": "G3",
            "ticks": 222720,
            "time": 696,
            "velocity": 0.47244094488188976
          }
        ]
      },
      {
        "channel": 0,
        "controlChanges": {},
        "pitchBends": [],
        "instrument": {
          "family": "piano",
          "number": 0,
          "name": "acoustic grand piano"
        },
        "name": "Viola",
        "notes": [],
        "endOfTrackTicks": 230400
      },
      {
        "channel": 12,
        "controlChanges": {
          "7": [
            {
              "number": 7,
              "ticks": 0,
              "time": 0,
              "value": 1
            }
          ],
          "10": [
            {
              "number": 10,
              "ticks": 0,
              "time": 0,
              "value": 0.6929133858267716
            },
            {
              "number": 10,
              "ticks": 0,
              "time": 0,
              "value": 0.6850393700787402
            }
          ]
        },
        "pitchBends": [],
        "instrument": {
          "family": "ensemble",
          "number": 48,
          "name": "string ensemble 1"
        },
        "name": "",
        "notes": [
          {
            "duration": 1.40625,
            "durationTicks": 450,
            "midi": 62,
            "name": "D4",
            "ticks": 0,
            "time": 0,
            "velocity": 0.8661417322834646
          },
          {
            "duration": 0.7062500000000003,
            "durationTicks": 226,
            "midi": 66,
            "name": "F#4",
            "ticks": 480,
            "time": 1.5,
            "velocity": 0.8661417322834646
          },
          {
            "duration": 0.7062500000000003,
            "durationTicks": 226,
            "midi": 59,
            "name": "B3",
            "ticks": 720,
            "time": 2.25,
            "velocity": 0.8661417322834646
          },
          {
            "duration": 1.0562500000000004,
            "durationTicks": 338,
            "midi": 59,
            "name": "B3",
            "ticks": 960,
            "time": 3,
            "velocity": 0.84251968503937
          },
          {
            "duration": 0.3562499999999993,
            "durationTicks": 114,
            "midi": 55,
            "name": "G3",
            "ticks": 1320,
            "time": 4.125,
            "velocity": 0.8031496062992126
          },
          {
            "duration": 3.7062500000000007,
            "durationTicks": 1186,
            "midi": 58,
            "name": "A#3",
            "ticks": 1440,
            "time": 4.5,
            "velocity": 0.7086614173228346
          },
          {
            "duration": 1.40625,
            "durationTicks": 450,
            "midi": 62,
            "name": "D4",
            "ticks": 2880,
            "time": 9,
            "velocity": 0.8661417322834646
          },
          {
            "duration": 0.7062500000000007,
            "durationTicks": 226,
            "midi": 66,
            "name": "F#4",
            "ticks": 3360,
            "time": 10.5,
            "velocity": 0.8661417322834646
          },
          {
            "duration": 0.7062500000000007,
            "durationTicks": 226,
            "midi": 59,
            "name": "B3",
            "ticks": 3600,
            "time": 11.25,
            "velocity": 0.8661417322834646
          },
          {
            "duration": 1.0562500000000021,
            "durationTicks": 338,
            "midi": 59,
            "name": "B3",
            "ticks": 3840,
            "time": 12,
            "velocity": 0.8582677165354331
          },
          {
            "duration": 0.35625000000000107,
            "durationTicks": 114,
            "midi": 55,
            "name": "G3",
            "ticks": 4200,
            "time": 13.125,
            "velocity": 0.8110236220472441
          },
          {
            "duration": 3.7062500000000007,
            "durationTicks": 1186,
            "midi": 58,
            "name": "A#3",
            "ticks": 4320,
            "time": 13.5,
            "velocity": 0.7086614173228346
          },
          {
            "duration": 2.9562500000000007,
            "durationTicks": 946,
            "midi": 55,
            "name": "G3",
            "ticks": 5760,
            "time": 18,
            "velocity": 0.5275590551181102
          },
          {
            "duration": 1.0562500000000021,
            "durationTicks": 338,
            "midi": 55,
            "name": "G3",
            "ticks": 6720,
            "time": 21,
            "velocity": 0.5275590551181102
          },
          {
            "duration": 0.35625000000000284,
            "durationTicks": 114,
            "midi": 55,
            "name": "G3",
            "ticks": 7080,
            "time": 22.125,
            "velocity": 0.5275590551181102
          },
          {
            "duration": 2.8125,
            "durationTicks": 900,
            "midi": 54,
            "name": "F#3",
            "ticks": 7200,
            "time": 22.5,
            "velocity": 0.49606299212598426
          },
          {
            "duration": 2.9562500000000043,
            "durationTicks": 946,
            "midi": 59,
            "name": "B3",
            "ticks": 8640,
            "time": 27,
            "velocity": 0.5275590551181102
          },
          {
            "duration": 1.0562499999999986,
            "durationTicks": 338,
            "midi": 59,
            "name": "B3",
            "ticks": 9600,
            "time": 30,
            "velocity": 0.5275590551181102
          },
          {
            "duration": 0.35625000000000284,
            "durationTicks": 114,
            "midi": 59,
            "name": "B3",
            "ticks": 9960,
            "time": 31.125,
            "velocity": 0.5275590551181102
          },
          {
            "duration": 2.8125,
            "durationTicks": 900,
            "midi": 57,
            "name": "A3",
            "ticks": 10080,
            "time": 31.5,
            "velocity": 0.5275590551181102
          },
          {
            "duration": 2.1125000000000043,
            "durationTicks": 676,
            "midi": 66,
            "name": "F#4",
            "ticks": 11520,
            "time": 36,
            "velocity": 0.5039370078740157
          },
          {
            "duration": 0.7062500000000043,
            "durationTicks": 226,
            "midi": 64,
            "name": "E4",
            "ticks": 12240,
            "time": 38.25,
            "velocity": 0.5590551181102362
          },
          {
            "duration": 1.40625,
            "durationTicks": 450,
            "midi": 64,
            "name": "E4",
            "ticks": 12480,
            "time": 39,
            "velocity": 0.5748031496062992
          },
          {
            "duration": 2.1125000000000043,
            "durationTicks": 676,
            "midi": 69,
            "name": "A4",
            "ticks": 12960,
            "time": 40.5,
            "velocity": 0.6141732283464567
          },
          {
            "duration": 0.7062500000000043,
            "durationTicks": 226,
            "midi": 68,
            "name": "G#4",
            "ticks": 13680,
            "time": 42.75,
            "velocity": 0.6692913385826772
          },
          {
            "duration": 1.40625,
            "durationTicks": 450,
            "midi": 68,
            "name": "G#4",
            "ticks": 13920,
            "time": 43.5,
            "velocity": 0.6850393700787402
          },
          {
            "duration": 2.1125000000000043,
            "durationTicks": 676,
            "midi": 69,
            "name": "A4",
            "ticks": 14400,
            "time": 45,
            "velocity": 0.7244094488188977
          },
          {
            "duration": 2.1125000000000043,
            "durationTicks": 676,
            "midi": 73,
            "name": "C#5",
            "ticks": 14400,
            "time": 45,
            "velocity": 0.7244094488188977
          },
          {
            "duration": 0.7062500000000043,
            "durationTicks": 226,
            "midi": 68,
            "name": "G#4",
            "ticks": 15120,
            "time": 47.25,
            "velocity": 0.7795275590551181
          },
          {
            "duration": 1.40625,
            "durationTicks": 450,
            "midi": 68,
            "name": "G#4",
            "ticks": 15360,
            "time": 48,
            "velocity": 0.7952755905511811
          },
          {
            "duration": 5.206249999999997,
            "durationTicks": 1666,
            "midi": 66,
            "name": "F#4",
            "ticks": 15840,
            "time": 49.5,
            "velocity": 0.7874015748031497
          },
          {
            "duration": 2.206249999999997,
            "durationTicks": 706,
            "midi": 59,
            "name": "B3",
            "ticks": 17760,
            "time": 55.5,
            "velocity": 0.7086614173228346
          },
          {
            "duration": 2.206249999999997,
            "durationTicks": 706,
            "midi": 59,
            "name": "B3",
            "ticks": 18720,
            "time": 58.5,
            "velocity": 0.7086614173228346
          },
          {
            "duration": 1.40625,
            "durationTicks": 450,
            "midi": 54,
            "name": "F#3",
            "ticks": 20640,
            "time": 64.5,
            "velocity": 0.5039370078740157
          },
          {
            "duration": 0.7062499999999972,
            "durationTicks": 226,
            "midi": 59,
            "name": "B3",
            "ticks": 21120,
            "time": 66,
            "velocity": 0.4881889763779528
          },
          {
            "duration": 5.206249999999997,
            "durationTicks": 1666,
            "midi": 67,
            "name": "G4",
            "ticks": 24000,
            "time": 75,
            "velocity": 0.47244094488188976
          },
          {
            "duration": 0.35624999999998863,
            "durationTicks": 114,
            "midi": 55,
            "name": "G3",
            "ticks": 26520,
            "time": 82.875,
            "velocity": 0.4881889763779528
          },
          {
            "duration": 0.35624999999998863,
            "durationTicks": 114,
            "midi": 52,
            "name": "E3",
            "ticks": 26640,
            "time": 83.25,
            "velocity": 0.5196850393700787
          },
          {
            "duration": 0.35624999999998863,
            "durationTicks": 114,
            "midi": 61,
            "name": "C#4",
            "ticks": 26760,
            "time": 83.625,
            "velocity": 0.5433070866141733
          },
          {
            "duration": 0.35624999999998863,
            "durationTicks": 114,
            "midi": 56,
            "name": "G#3",
            "ticks": 26880,
            "time": 84,
            "velocity": 0.5748031496062992
          },
          {
            "duration": 0.35624999999998863,
            "durationTicks": 114,
            "midi": 64,
            "name": "E4",
            "ticks": 27000,
            "time": 84.375,
            "velocity": 0.5984251968503937
          },
          {
            "duration": 0.35624999999998863,
            "durationTicks": 114,
            "midi": 59,
            "name": "B3",
            "ticks": 27120,
            "time": 84.75,
            "velocity": 0.6220472440944882
          },
          {
            "duration": 0.35624999999998863,
            "durationTicks": 114,
            "midi": 67,
            "name": "G4",
            "ticks": 27240,
            "time": 85.125,
            "velocity": 0.6535433070866141
          },
          {
            "duration": 1.40625,
            "durationTicks": 450,
            "midi": 62,
            "name": "D4",
            "ticks": 27360,
            "time": 85.5,
            "velocity": 0.8661417322834646
          },
          {
            "duration": 0.7062499999999972,
            "durationTicks": 226,
            "midi": 66,
            "name": "F#4",
            "ticks": 27840,
            "time": 87,
            "velocity": 0.8661417322834646
          },
          {
            "duration": 0.7062499999999972,
            "durationTicks": 226,
            "midi": 59,
            "name": "B3",
            "ticks": 28080,
            "time": 87.75,
            "velocity": 0.8661417322834646
          },
          {
            "duration": 1.0562500000000057,
            "durationTicks": 338,
            "midi": 59,
            "name": "B3",
            "ticks": 28320,
            "time": 88.5,
            "velocity": 0.8582677165354331
          },
          {
            "duration": 0.35624999999998863,
            "durationTicks": 114,
            "midi": 55,
            "name": "G3",
            "ticks": 28680,
            "time": 89.625,
            "velocity": 0.8110236220472441
          },
          {
            "duration": 3.706249999999997,
            "durationTicks": 1186,
            "midi": 58,
            "name": "A#3",
            "ticks": 28800,
            "time": 90,
            "velocity": 0.7086614173228346
          },
          {
            "duration": 1.40625,
            "durationTicks": 450,
            "midi": 62,
            "name": "D4",
            "ticks": 30240,
            "time": 94.5,
            "velocity": 0.8661417322834646
          },
          {
            "duration": 0.7062499999999972,
            "durationTicks": 226,
            "midi": 66,
            "name": "F#4",
            "ticks": 30720,
            "time": 96,
            "velocity": 0.8661417322834646
          },
          {
            "duration": 0.7062499999999972,
            "durationTicks": 226,
            "midi": 59,
            "name": "B3",
            "ticks": 30960,
            "time": 96.75,
            "velocity": 0.8661417322834646
          },
          {
            "duration": 1.0562500000000057,
            "durationTicks": 338,
            "midi": 59,
            "name": "B3",
            "ticks": 31200,
            "time": 97.5,
            "velocity": 0.8582677165354331
          },
          {
            "duration": 0.35624999999998863,
            "durationTicks": 114,
            "midi": 55,
            "name": "G3",
            "ticks": 31560,
            "time": 98.625,
            "velocity": 0.8110236220472441
          },
          {
            "duration": 3.706249999999997,
            "durationTicks": 1186,
            "midi": 58,
            "name": "A#3",
            "ticks": 31680,
            "time": 99,
            "velocity": 0.7086614173228346
          },
          {
            "duration": 2.956249999999997,
            "durationTicks": 946,
            "midi": 55,
            "name": "G3",
            "ticks": 33120,
            "time": 103.5,
            "velocity": 0.5275590551181102
          },
          {
            "duration": 1.0562500000000057,
            "durationTicks": 338,
            "midi": 55,
            "name": "G3",
            "ticks": 34080,
            "time": 106.5,
            "velocity": 0.5275590551181102
          },
          {
            "duration": 0.35624999999998863,
            "durationTicks": 114,
            "midi": 55,
            "name": "G3",
            "ticks": 34440,
            "time": 107.625,
            "velocity": 0.5275590551181102
          },
          {
            "duration": 3.6000000000000085,
            "durationTicks": 1152,
            "midi": 54,
            "name": "F#3",
            "ticks": 34560,
            "time": 108,
            "velocity": 0.49606299212598426
          },
          {
            "duration": 2.956249999999997,
            "durationTicks": 946,
            "midi": 52,
            "name": "E3",
            "ticks": 36000,
            "time": 112.5,
            "velocity": 0.5275590551181102
          },
          {
            "duration": 1.0562500000000057,
            "durationTicks": 338,
            "midi": 52,
            "name": "E3",
            "ticks": 36960,
            "time": 115.5,
            "velocity": 0.5275590551181102
          },
          {
            "duration": 0.35624999999998863,
            "durationTicks": 114,
            "midi": 52,
            "name": "E3",
            "ticks": 37320,
            "time": 116.625,
            "velocity": 0.5275590551181102
          },
          {
            "duration": 3.6000000000000085,
            "durationTicks": 1152,
            "midi": 54,
            "name": "F#3",
            "ticks": 37440,
            "time": 117,
            "velocity": 0.49606299212598426
          },
          {
            "duration": 2.956249999999997,
            "durationTicks": 946,
            "midi": 49,
            "name": "C#3",
            "ticks": 38880,
            "time": 121.5,
            "velocity": 0.5275590551181102
          },
          {
            "duration": 1.0562500000000057,
            "durationTicks": 338,
            "midi": 49,
            "name": "C#3",
            "ticks": 39840,
            "time": 124.5,
            "velocity": 0.5275590551181102
          },
          {
            "duration": 0.35624999999998863,
            "durationTicks": 114,
            "midi": 50,
            "name": "D3",
            "ticks": 40200,
            "time": 125.625,
            "velocity": 0.5275590551181102
          },
          {
            "duration": 3.6000000000000227,
            "durationTicks": 1152,
            "midi": 47,
            "name": "B2",
            "ticks": 40320,
            "time": 126,
            "velocity": 0.49606299212598426
          },
          {
            "duration": 1.40625,
            "durationTicks": 450,
            "midi": 62,
            "name": "D4",
            "ticks": 54240,
            "time": 169.5,
            "velocity": 0.47244094488188976
          },
          {
            "duration": 1.40625,
            "durationTicks": 450,
            "midi": 62,
            "name": "D4",
            "ticks": 54720,
            "time": 171,
            "velocity": 0.47244094488188976
          },
          {
            "duration": 1.40625,
            "durationTicks": 450,
            "midi": 61,
            "name": "C#4",
            "ticks": 55200,
            "time": 172.5,
            "velocity": 0.47244094488188976
          },
          {
            "duration": 1.40625,
            "durationTicks": 450,
            "midi": 59,
            "name": "B3",
            "ticks": 55680,
            "time": 174,
            "velocity": 0.47244094488188976
          },
          {
            "duration": 2.8125,
            "durationTicks": 900,
            "midi": 57,
            "name": "A3",
            "ticks": 56160,
            "time": 175.5,
            "velocity": 0.47244094488188976
          },
          {
            "duration": 1.40625,
            "durationTicks": 450,
            "midi": 62,
            "name": "D4",
            "ticks": 57120,
            "time": 178.5,
            "velocity": 0.47244094488188976
          },
          {
            "duration": 1.40625,
            "durationTicks": 450,
            "midi": 62,
            "name": "D4",
            "ticks": 57600,
            "time": 180,
            "velocity": 0.47244094488188976
          },
          {
            "duration": 1.40625,
            "durationTicks": 450,
            "midi": 61,
            "name": "C#4",
            "ticks": 58080,
            "time": 181.5,
            "velocity": 0.47244094488188976
          },
          {
            "duration": 1.40625,
            "durationTicks": 450,
            "midi": 59,
            "name": "B3",
            "ticks": 58560,
            "time": 183,
            "velocity": 0.47244094488188976
          },
          {
            "duration": 2.8125,
            "durationTicks": 900,
            "midi": 57,
            "name": "A3",
            "ticks": 59040,
            "time": 184.5,
            "velocity": 0.4645669291338583
          },
          {
            "duration": 1.40625,
            "durationTicks": 450,
            "midi": 66,
            "name": "F#4",
            "ticks": 60000,
            "time": 187.5,
            "velocity": 0.5275590551181102
          },
          {
            "duration": 1.40625,
            "durationTicks": 450,
            "midi": 66,
            "name": "F#4",
            "ticks": 60480,
            "time": 189,
            "velocity": 0.5590551181102362
          },
          {
            "duration": 1.40625,
            "durationTicks": 450,
            "midi": 64,
            "name": "E4",
            "ticks": 60960,
            "time": 190.5,
            "velocity": 0.5905511811023622
          },
          {
            "duration": 1.40625,
            "durationTicks": 450,
            "midi": 67,
            "name": "G4",
            "ticks": 61440,
            "time": 192,
            "velocity": 0.6220472440944882
          },
          {
            "duration": 1.40625,
            "durationTicks": 450,
            "midi": 67,
            "name": "G4",
            "ticks": 61920,
            "time": 193.5,
            "velocity": 0.6535433070866141
          },
          {
            "duration": 1.40625,
            "durationTicks": 450,
            "midi": 66,
            "name": "F#4",
            "ticks": 62400,
            "time": 195,
            "velocity": 0.6850393700787402
          },
          {
            "duration": 1.40625,
            "durationTicks": 450,
            "midi": 69,
            "name": "A4",
            "ticks": 62880,
            "time": 196.5,
            "velocity": 0.7165354330708661
          },
          {
            "duration": 1.40625,
            "durationTicks": 450,
            "midi": 69,
            "name": "A4",
            "ticks": 63360,
            "time": 198,
            "velocity": 0.7480314960629921
          },
          {
            "duration": 1.40625,
            "durationTicks": 450,
            "midi": 67,
            "name": "G4",
            "ticks": 63840,
            "time": 199.5,
            "velocity": 0.7480314960629921
          },
          {
            "duration": 1.40625,
            "durationTicks": 450,
            "midi": 59,
            "name": "B3",
            "ticks": 64320,
            "time": 201,
            "velocity": 0.7480314960629921
          },
          {
            "duration": 2.8125,
            "durationTicks": 900,
            "midi": 64,
            "name": "E4",
            "ticks": 64800,
            "time": 202.5,
            "velocity": 0.7244094488188977
          },
          {
            "duration": 1.40625,
            "durationTicks": 450,
            "midi": 62,
            "name": "D4",
            "ticks": 65760,
            "time": 205.5,
            "velocity": 0.5433070866141733
          },
          {
            "duration": 1.40625,
            "durationTicks": 450,
            "midi": 62,
            "name": "D4",
            "ticks": 66240,
            "time": 207,
            "velocity": 0.44881889763779526
          },
          {
            "duration": 1.40625,
            "durationTicks": 450,
            "midi": 61,
            "name": "C#4",
            "ticks": 66720,
            "time": 208.5,
            "velocity": 0.44881889763779526
          },
          {
            "duration": 1.40625,
            "durationTicks": 450,
            "midi": 59,
            "name": "B3",
            "ticks": 67200,
            "time": 210,
            "velocity": 0.44881889763779526
          },
          {
            "duration": 2.8125,
            "durationTicks": 900,
            "midi": 57,
            "name": "A3",
            "ticks": 67680,
            "time": 211.5,
            "velocity": 0.4881889763779528
          },
          {
            "duration": 1.40625,
            "durationTicks": 450,
            "midi": 62,
            "name": "D4",
            "ticks": 68640,
            "time": 214.5,
            "velocity": 0.4881889763779528
          },
          {
            "duration": 1.40625,
            "durationTicks": 450,
            "midi": 62,
            "name": "D4",
            "ticks": 69120,
            "time": 216,
            "velocity": 0.44881889763779526
          },
          {
            "duration": 1.40625,
            "durationTicks": 450,
            "midi": 61,
            "name": "C#4",
            "ticks": 69600,
            "time": 217.5,
            "velocity": 0.44881889763779526
          },
          {
            "duration": 1.40625,
            "durationTicks": 450,
            "midi": 59,
            "name": "B3",
            "ticks": 70080,
            "time": 219,
            "velocity": 0.44881889763779526
          },
          {
            "duration": 2.8125,
            "durationTicks": 900,
            "midi": 57,
            "name": "A3",
            "ticks": 70560,
            "time": 220.5,
            "velocity": 0.4881889763779528
          },
          {
            "duration": 1.40625,
            "durationTicks": 450,
            "midi": 62,
            "name": "D4",
            "ticks": 71520,
            "time": 223.5,
            "velocity": 0.4881889763779528
          },
          {
            "duration": 1.40625,
            "durationTicks": 450,
            "midi": 63,
            "name": "D#4",
            "ticks": 72000,
            "time": 225,
            "velocity": 0.47244094488188976
          },
          {
            "duration": 1.40625,
            "durationTicks": 450,
            "midi": 64,
            "name": "E4",
            "ticks": 72480,
            "time": 226.5,
            "velocity": 0.4881889763779528
          },
          {
            "duration": 1.40625,
            "durationTicks": 450,
            "midi": 64,
            "name": "E4",
            "ticks": 72960,
            "time": 228,
            "velocity": 0.5039370078740157
          },
          {
            "duration": 1.40625,
            "durationTicks": 450,
            "midi": 65,
            "name": "F4",
            "ticks": 73440,
            "time": 229.5,
            "velocity": 0.5196850393700787
          },
          {
            "duration": 1.40625,
            "durationTicks": 450,
            "midi": 66,
            "name": "F#4",
            "ticks": 73920,
            "time": 231,
            "velocity": 0.5354330708661418
          },
          {
            "duration": 1.40625,
            "durationTicks": 450,
            "midi": 66,
            "name": "F#4",
            "ticks": 74400,
            "time": 232.5,
            "velocity": 0.5511811023622047
          },
          {
            "duration": 1.40625,
            "durationTicks": 450,
            "midi": 66,
            "name": "F#4",
            "ticks": 74880,
            "time": 234,
            "velocity": 0.5669291338582677
          },
          {
            "duration": 1.40625,
            "durationTicks": 450,
            "midi": 67,
            "name": "G4",
            "ticks": 75360,
            "time": 235.5,
            "velocity": 0.5826771653543307
          },
          {
            "duration": 1.40625,
            "durationTicks": 450,
            "midi": 67,
            "name": "G4",
            "ticks": 75840,
            "time": 237,
            "velocity": 0.5984251968503937
          },
          {
            "duration": 1.40625,
            "durationTicks": 450,
            "midi": 68,
            "name": "G#4",
            "ticks": 76320,
            "time": 238.5,
            "velocity": 0.6141732283464567
          },
          {
            "duration": 1.40625,
            "durationTicks": 450,
            "midi": 69,
            "name": "A4",
            "ticks": 76800,
            "time": 240,
            "velocity": 0.6377952755905512
          },
          {
            "duration": 1.40625,
            "durationTicks": 450,
            "midi": 62,
            "name": "D4",
            "ticks": 77280,
            "time": 241.5,
            "velocity": 0.6299212598425197
          },
          {
            "duration": 1.40625,
            "durationTicks": 450,
            "midi": 62,
            "name": "D4",
            "ticks": 77760,
            "time": 243,
            "velocity": 0.5511811023622047
          },
          {
            "duration": 1.40625,
            "durationTicks": 450,
            "midi": 61,
            "name": "C#4",
            "ticks": 78240,
            "time": 244.5,
            "velocity": 0.5669291338582677
          },
          {
            "duration": 1.40625,
            "durationTicks": 450,
            "midi": 59,
            "name": "B3",
            "ticks": 78720,
            "time": 246,
            "velocity": 0.5826771653543307
          },
          {
            "duration": 2.8125,
            "durationTicks": 900,
            "midi": 57,
            "name": "A3",
            "ticks": 79200,
            "time": 247.5,
            "velocity": 0.5984251968503937
          },
          {
            "duration": 1.40625,
            "durationTicks": 450,
            "midi": 62,
            "name": "D4",
            "ticks": 80160,
            "time": 250.5,
            "velocity": 0.6377952755905512
          },
          {
            "duration": 1.40625,
            "durationTicks": 450,
            "midi": 62,
            "name": "D4",
            "ticks": 80640,
            "time": 252,
            "velocity": 0.6535433070866141
          },
          {
            "duration": 1.40625,
            "durationTicks": 450,
            "midi": 61,
            "name": "C#4",
            "ticks": 81120,
            "time": 253.5,
            "velocity": 0.6692913385826772
          },
          {
            "duration": 1.40625,
            "durationTicks": 450,
            "midi": 59,
            "name": "B3",
            "ticks": 81600,
            "time": 255,
            "velocity": 0.6850393700787402
          },
          {
            "duration": 2.8125,
            "durationTicks": 900,
            "midi": 57,
            "name": "A3",
            "ticks": 82080,
            "time": 256.5,
            "velocity": 0.7007874015748031
          },
          {
            "duration": 1.40625,
            "durationTicks": 450,
            "midi": 66,
            "name": "F#4",
            "ticks": 83040,
            "time": 259.5,
            "velocity": 0.7322834645669292
          },
          {
            "duration": 1.40625,
            "durationTicks": 450,
            "midi": 66,
            "name": "F#4",
            "ticks": 83520,
            "time": 261,
            "velocity": 0.7559055118110236
          },
          {
            "duration": 1.40625,
            "durationTicks": 450,
            "midi": 64,
            "name": "E4",
            "ticks": 84000,
            "time": 262.5,
            "velocity": 0.7716535433070866
          },
          {
            "duration": 1.40625,
            "durationTicks": 450,
            "midi": 67,
            "name": "G4",
            "ticks": 84480,
            "time": 264,
            "velocity": 0.7874015748031497
          },
          {
            "duration": 1.40625,
            "durationTicks": 450,
            "midi": 67,
            "name": "G4",
            "ticks": 84960,
            "time": 265.5,
            "velocity": 0.8031496062992126
          },
          {
            "duration": 1.40625,
            "durationTicks": 450,
            "midi": 66,
            "name": "F#4",
            "ticks": 85440,
            "time": 267,
            "velocity": 0.8188976377952756
          },
          {
            "duration": 1.40625,
            "durationTicks": 450,
            "midi": 69,
            "name": "A4",
            "ticks": 85920,
            "time": 268.5,
            "velocity": 0.8346456692913385
          },
          {
            "duration": 1.40625,
            "durationTicks": 450,
            "midi": 69,
            "name": "A4",
            "ticks": 86400,
            "time": 270,
            "velocity": 0.8503937007874016
          },
          {
            "duration": 1.40625,
            "durationTicks": 450,
            "midi": 67,
            "name": "G4",
            "ticks": 86880,
            "time": 271.5,
            "velocity": 0.8740157480314961
          },
          {
            "duration": 1.40625,
            "durationTicks": 450,
            "midi": 59,
            "name": "B3",
            "ticks": 87360,
            "time": 273,
            "velocity": 0.889763779527559
          },
          {
            "duration": 2.8125,
            "durationTicks": 900,
            "midi": 64,
            "name": "E4",
            "ticks": 87840,
            "time": 274.5,
            "velocity": 0.905511811023622
          },
          {
            "duration": 1.40625,
            "durationTicks": 450,
            "midi": 62,
            "name": "D4",
            "ticks": 88800,
            "time": 277.5,
            "velocity": 0.7874015748031497
          },
          {
            "duration": 1.40625,
            "durationTicks": 450,
            "midi": 74,
            "name": "D5",
            "ticks": 88800,
            "time": 277.5,
            "velocity": 0.7874015748031497
          },
          {
            "duration": 1.40625,
            "durationTicks": 450,
            "midi": 62,
            "name": "D4",
            "ticks": 89280,
            "time": 279,
            "velocity": 0.7874015748031497
          },
          {
            "duration": 1.40625,
            "durationTicks": 450,
            "midi": 74,
            "name": "D5",
            "ticks": 89280,
            "time": 279,
            "velocity": 0.7874015748031497
          },
          {
            "duration": 1.40625,
            "durationTicks": 450,
            "midi": 61,
            "name": "C#4",
            "ticks": 89760,
            "time": 280.5,
            "velocity": 0.7874015748031497
          },
          {
            "duration": 1.40625,
            "durationTicks": 450,
            "midi": 73,
            "name": "C#5",
            "ticks": 89760,
            "time": 280.5,
            "velocity": 0.7874015748031497
          },
          {
            "duration": 1.40625,
            "durationTicks": 450,
            "midi": 59,
            "name": "B3",
            "ticks": 90240,
            "time": 282,
            "velocity": 0.7874015748031497
          },
          {
            "duration": 1.40625,
            "durationTicks": 450,
            "midi": 71,
            "name": "B4",
            "ticks": 90240,
            "time": 282,
            "velocity": 0.7874015748031497
          },
          {
            "duration": 2.8125,
            "durationTicks": 900,
            "midi": 57,
            "name": "A3",
            "ticks": 90720,
            "time": 283.5,
            "velocity": 0.7952755905511811
          },
          {
            "duration": 2.8125,
            "durationTicks": 900,
            "midi": 69,
            "name": "A4",
            "ticks": 90720,
            "time": 283.5,
            "velocity": 0.7952755905511811
          },
          {
            "duration": 1.40625,
            "durationTicks": 450,
            "midi": 62,
            "name": "D4",
            "ticks": 91680,
            "time": 286.5,
            "velocity": 0.7952755905511811
          },
          {
            "duration": 1.40625,
            "durationTicks": 450,
            "midi": 74,
            "name": "D5",
            "ticks": 91680,
            "time": 286.5,
            "velocity": 0.7952755905511811
          },
          {
            "duration": 1.40625,
            "durationTicks": 450,
            "midi": 62,
            "name": "D4",
            "ticks": 92160,
            "time": 288,
            "velocity": 0.7874015748031497
          },
          {
            "duration": 1.40625,
            "durationTicks": 450,
            "midi": 74,
            "name": "D5",
            "ticks": 92160,
            "time": 288,
            "velocity": 0.7874015748031497
          },
          {
            "duration": 1.40625,
            "durationTicks": 450,
            "midi": 61,
            "name": "C#4",
            "ticks": 92640,
            "time": 289.5,
            "velocity": 0.7874015748031497
          },
          {
            "duration": 1.40625,
            "durationTicks": 450,
            "midi": 73,
            "name": "C#5",
            "ticks": 92640,
            "time": 289.5,
            "velocity": 0.7874015748031497
          },
          {
            "duration": 1.40625,
            "durationTicks": 450,
            "midi": 59,
            "name": "B3",
            "ticks": 93120,
            "time": 291,
            "velocity": 0.7874015748031497
          },
          {
            "duration": 1.40625,
            "durationTicks": 450,
            "midi": 71,
            "name": "B4",
            "ticks": 93120,
            "time": 291,
            "velocity": 0.7874015748031497
          },
          {
            "duration": 2.8125,
            "durationTicks": 900,
            "midi": 57,
            "name": "A3",
            "ticks": 93600,
            "time": 292.5,
            "velocity": 0.7952755905511811
          },
          {
            "duration": 2.8125,
            "durationTicks": 900,
            "midi": 69,
            "name": "A4",
            "ticks": 93600,
            "time": 292.5,
            "velocity": 0.7952755905511811
          },
          {
            "duration": 1.40625,
            "durationTicks": 450,
            "midi": 62,
            "name": "D4",
            "ticks": 94560,
            "time": 295.5,
            "velocity": 0.7952755905511811
          },
          {
            "duration": 1.40625,
            "durationTicks": 450,
            "midi": 74,
            "name": "D5",
            "ticks": 94560,
            "time": 295.5,
            "velocity": 0.7952755905511811
          },
          {
            "duration": 1.40625,
            "durationTicks": 450,
            "midi": 63,
            "name": "D#4",
            "ticks": 95040,
            "time": 297,
            "velocity": 0.7952755905511811
          },
          {
            "duration": 1.40625,
            "durationTicks": 450,
            "midi": 75,
            "name": "D#5",
            "ticks": 95040,
            "time": 297,
            "velocity": 0.7952755905511811
          },
          {
            "duration": 1.40625,
            "durationTicks": 450,
            "midi": 64,
            "name": "E4",
            "ticks": 95520,
            "time": 298.5,
            "velocity": 0.7952755905511811
          },
          {
            "duration": 1.40625,
            "durationTicks": 450,
            "midi": 76,
            "name": "E5",
            "ticks": 95520,
            "time": 298.5,
            "velocity": 0.7952755905511811
          },
          {
            "duration": 1.40625,
            "durationTicks": 450,
            "midi": 64,
            "name": "E4",
            "ticks": 96000,
            "time": 300,
            "velocity": 0.7952755905511811
          },
          {
            "duration": 1.40625,
            "durationTicks": 450,
            "midi": 76,
            "name": "E5",
            "ticks": 96000,
            "time": 300,
            "velocity": 0.7952755905511811
          },
          {
            "duration": 1.40625,
            "durationTicks": 450,
            "midi": 65,
            "name": "F4",
            "ticks": 96480,
            "time": 301.5,
            "velocity": 0.7952755905511811
          },
          {
            "duration": 1.40625,
            "durationTicks": 450,
            "midi": 77,
            "name": "F5",
            "ticks": 96480,
            "time": 301.5,
            "velocity": 0.7952755905511811
          },
          {
            "duration": 1.40625,
            "durationTicks": 450,
            "midi": 66,
            "name": "F#4",
            "ticks": 96960,
            "time": 303,
            "velocity": 0.7952755905511811
          },
          {
            "duration": 1.40625,
            "durationTicks": 450,
            "midi": 78,
            "name": "F#5",
            "ticks": 96960,
            "time": 303,
            "velocity": 0.7952755905511811
          },
          {
            "duration": 1.40625,
            "durationTicks": 450,
            "midi": 66,
            "name": "F#4",
            "ticks": 97440,
            "time": 304.5,
            "velocity": 0.7952755905511811
          },
          {
            "duration": 1.40625,
            "durationTicks": 450,
            "midi": 78,
            "name": "F#5",
            "ticks": 97440,
            "time": 304.5,
            "velocity": 0.7952755905511811
          },
          {
            "duration": 1.40625,
            "durationTicks": 450,
            "midi": 66,
            "name": "F#4",
            "ticks": 97920,
            "time": 306,
            "velocity": 0.7874015748031497
          },
          {
            "duration": 1.40625,
            "durationTicks": 450,
            "midi": 78,
            "name": "F#5",
            "ticks": 97920,
            "time": 306,
            "velocity": 0.7874015748031497
          },
          {
            "duration": 1.40625,
            "durationTicks": 450,
            "midi": 67,
            "name": "G4",
            "ticks": 98400,
            "time": 307.5,
            "velocity": 0.8110236220472441
          },
          {
            "duration": 1.40625,
            "durationTicks": 450,
            "midi": 79,
            "name": "G5",
            "ticks": 98400,
            "time": 307.5,
            "velocity": 0.8110236220472441
          },
          {
            "duration": 1.40625,
            "durationTicks": 450,
            "midi": 67,
            "name": "G4",
            "ticks": 98880,
            "time": 309,
            "velocity": 0.8346456692913385
          },
          {
            "duration": 1.40625,
            "durationTicks": 450,
            "midi": 79,
            "name": "G5",
            "ticks": 98880,
            "time": 309,
            "velocity": 0.8346456692913385
          },
          {
            "duration": 1.40625,
            "durationTicks": 450,
            "midi": 68,
            "name": "G#4",
            "ticks": 99360,
            "time": 310.5,
            "velocity": 0.8582677165354331
          },
          {
            "duration": 1.40625,
            "durationTicks": 450,
            "midi": 80,
            "name": "G#5",
            "ticks": 99360,
            "time": 310.5,
            "velocity": 0.8582677165354331
          },
          {
            "duration": 1.40625,
            "durationTicks": 450,
            "midi": 69,
            "name": "A4",
            "ticks": 99840,
            "time": 312,
            "velocity": 0.8818897637795275
          },
          {
            "duration": 1.40625,
            "durationTicks": 450,
            "midi": 81,
            "name": "A5",
            "ticks": 99840,
            "time": 312,
            "velocity": 0.8818897637795275
          },
          {
            "duration": 1.40625,
            "durationTicks": 450,
            "midi": 70,
            "name": "A#4",
            "ticks": 100320,
            "time": 313.5,
            "velocity": 0.905511811023622
          },
          {
            "duration": 1.40625,
            "durationTicks": 450,
            "midi": 82,
            "name": "A#5",
            "ticks": 100320,
            "time": 313.5,
            "velocity": 0.905511811023622
          },
          {
            "duration": 5.206250000000011,
            "durationTicks": 1666,
            "midi": 71,
            "name": "B4",
            "ticks": 100800,
            "time": 315,
            "velocity": 1
          },
          {
            "duration": 5.206250000000011,
            "durationTicks": 1666,
            "midi": 83,
            "name": "B5",
            "ticks": 100800,
            "time": 315,
            "velocity": 1
          },
          {
            "duration": 0.7062500000000114,
            "durationTicks": 226,
            "midi": 69,
            "name": "A4",
            "ticks": 102480,
            "time": 320.25,
            "velocity": 1
          },
          {
            "duration": 0.7062500000000114,
            "durationTicks": 226,
            "midi": 81,
            "name": "A5",
            "ticks": 102480,
            "time": 320.25,
            "velocity": 1
          },
          {
            "duration": 0.7062500000000114,
            "durationTicks": 226,
            "midi": 67,
            "name": "G4",
            "ticks": 102720,
            "time": 321,
            "velocity": 1
          },
          {
            "duration": 0.7062500000000114,
            "durationTicks": 226,
            "midi": 79,
            "name": "G5",
            "ticks": 102720,
            "time": 321,
            "velocity": 1
          },
          {
            "duration": 0.7062500000000114,
            "durationTicks": 226,
            "midi": 66,
            "name": "F#4",
            "ticks": 102960,
            "time": 321.75,
            "velocity": 1
          },
          {
            "duration": 0.7062500000000114,
            "durationTicks": 226,
            "midi": 78,
            "name": "F#5",
            "ticks": 102960,
            "time": 321.75,
            "velocity": 1
          },
          {
            "duration": 0.7062500000000114,
            "durationTicks": 226,
            "midi": 64,
            "name": "E4",
            "ticks": 103200,
            "time": 322.5,
            "velocity": 1
          },
          {
            "duration": 0.7062500000000114,
            "durationTicks": 226,
            "midi": 76,
            "name": "E5",
            "ticks": 103200,
            "time": 322.5,
            "velocity": 1
          },
          {
            "duration": 0.7062500000000114,
            "durationTicks": 226,
            "midi": 62,
            "name": "D4",
            "ticks": 103440,
            "time": 323.25,
            "velocity": 1
          },
          {
            "duration": 0.7062500000000114,
            "durationTicks": 226,
            "midi": 74,
            "name": "D5",
            "ticks": 103440,
            "time": 323.25,
            "velocity": 1
          },
          {
            "duration": 5.206250000000011,
            "durationTicks": 1666,
            "midi": 67,
            "name": "G4",
            "ticks": 103680,
            "time": 324,
            "velocity": 1
          },
          {
            "duration": 5.206250000000011,
            "durationTicks": 1666,
            "midi": 79,
            "name": "G5",
            "ticks": 103680,
            "time": 324,
            "velocity": 1
          },
          {
            "duration": 0.7062500000000114,
            "durationTicks": 226,
            "midi": 66,
            "name": "F#4",
            "ticks": 105360,
            "time": 329.25,
            "velocity": 1
          },
          {
            "duration": 0.7062500000000114,
            "durationTicks": 226,
            "midi": 78,
            "name": "F#5",
            "ticks": 105360,
            "time": 329.25,
            "velocity": 1
          },
          {
            "duration": 0.7062500000000114,
            "durationTicks": 226,
            "midi": 64,
            "name": "E4",
            "ticks": 105600,
            "time": 330,
            "velocity": 1
          },
          {
            "duration": 0.7062500000000114,
            "durationTicks": 226,
            "midi": 76,
            "name": "E5",
            "ticks": 105600,
            "time": 330,
            "velocity": 1
          },
          {
            "duration": 0.7062500000000114,
            "durationTicks": 226,
            "midi": 62,
            "name": "D4",
            "ticks": 105840,
            "time": 330.75,
            "velocity": 1
          },
          {
            "duration": 0.7062500000000114,
            "durationTicks": 226,
            "midi": 74,
            "name": "D5",
            "ticks": 105840,
            "time": 330.75,
            "velocity": 1
          },
          {
            "duration": 0.7062500000000114,
            "durationTicks": 226,
            "midi": 60,
            "name": "C4",
            "ticks": 106080,
            "time": 331.5,
            "velocity": 1
          },
          {
            "duration": 0.7062500000000114,
            "durationTicks": 226,
            "midi": 72,
            "name": "C5",
            "ticks": 106080,
            "time": 331.5,
            "velocity": 1
          },
          {
            "duration": 0.7062500000000114,
            "durationTicks": 226,
            "midi": 59,
            "name": "B3",
            "ticks": 106320,
            "time": 332.25,
            "velocity": 1
          },
          {
            "duration": 0.7062500000000114,
            "durationTicks": 226,
            "midi": 71,
            "name": "B4",
            "ticks": 106320,
            "time": 332.25,
            "velocity": 1
          },
          {
            "duration": 5.206250000000011,
            "durationTicks": 1666,
            "midi": 64,
            "name": "E4",
            "ticks": 106560,
            "time": 333,
            "velocity": 1
          },
          {
            "duration": 5.206250000000011,
            "durationTicks": 1666,
            "midi": 76,
            "name": "E5",
            "ticks": 106560,
            "time": 333,
            "velocity": 1
          },
          {
            "duration": 0.7062500000000114,
            "durationTicks": 226,
            "midi": 62,
            "name": "D4",
            "ticks": 108240,
            "time": 338.25,
            "velocity": 1
          },
          {
            "duration": 0.7062500000000114,
            "durationTicks": 226,
            "midi": 74,
            "name": "D5",
            "ticks": 108240,
            "time": 338.25,
            "velocity": 1
          },
          {
            "duration": 0.7062500000000114,
            "durationTicks": 226,
            "midi": 60,
            "name": "C4",
            "ticks": 108480,
            "time": 339,
            "velocity": 1
          },
          {
            "duration": 0.7062500000000114,
            "durationTicks": 226,
            "midi": 72,
            "name": "C5",
            "ticks": 108480,
            "time": 339,
            "velocity": 1
          },
          {
            "duration": 0.7062500000000114,
            "durationTicks": 226,
            "midi": 59,
            "name": "B3",
            "ticks": 108720,
            "time": 339.75,
            "velocity": 1
          },
          {
            "duration": 0.7062500000000114,
            "durationTicks": 226,
            "midi": 71,
            "name": "B4",
            "ticks": 108720,
            "time": 339.75,
            "velocity": 1
          },
          {
            "duration": 0.7062500000000114,
            "durationTicks": 226,
            "midi": 57,
            "name": "A3",
            "ticks": 108960,
            "time": 340.5,
            "velocity": 1
          },
          {
            "duration": 0.7062500000000114,
            "durationTicks": 226,
            "midi": 69,
            "name": "A4",
            "ticks": 108960,
            "time": 340.5,
            "velocity": 1
          },
          {
            "duration": 0.7062500000000114,
            "durationTicks": 226,
            "midi": 55,
            "name": "G3",
            "ticks": 109200,
            "time": 341.25,
            "velocity": 1
          },
          {
            "duration": 0.7062500000000114,
            "durationTicks": 226,
            "midi": 67,
            "name": "G4",
            "ticks": 109200,
            "time": 341.25,
            "velocity": 1
          },
          {
            "duration": 0.46875,
            "durationTicks": 150,
            "midi": 60,
            "name": "C4",
            "ticks": 109440,
            "time": 342,
            "velocity": 1
          },
          {
            "duration": 0.46875,
            "durationTicks": 150,
            "midi": 72,
            "name": "C5",
            "ticks": 109440,
            "time": 342,
            "velocity": 1
          },
          {
            "duration": 0.46875,
            "durationTicks": 150,
            "midi": 59,
            "name": "B3",
            "ticks": 109600,
            "time": 342.5,
            "velocity": 1
          },
          {
            "duration": 0.46875,
            "durationTicks": 150,
            "midi": 71,
            "name": "B4",
            "ticks": 109600,
            "time": 342.5,
            "velocity": 1
          },
          {
            "duration": 0.46875,
            "durationTicks": 150,
            "midi": 57,
            "name": "A3",
            "ticks": 109760,
            "time": 343,
            "velocity": 1
          },
          {
            "duration": 0.46875,
            "durationTicks": 150,
            "midi": 69,
            "name": "A4",
            "ticks": 109760,
            "time": 343,
            "velocity": 1
          },
          {
            "duration": 0.46875,
            "durationTicks": 150,
            "midi": 55,
            "name": "G3",
            "ticks": 109920,
            "time": 343.5,
            "velocity": 1
          },
          {
            "duration": 0.46875,
            "durationTicks": 150,
            "midi": 67,
            "name": "G4",
            "ticks": 109920,
            "time": 343.5,
            "velocity": 1
          },
          {
            "duration": 0.46875,
            "durationTicks": 150,
            "midi": 53,
            "name": "F3",
            "ticks": 110080,
            "time": 344,
            "velocity": 1
          },
          {
            "duration": 0.46875,
            "durationTicks": 150,
            "midi": 65,
            "name": "F4",
            "ticks": 110080,
            "time": 344,
            "velocity": 1
          },
          {
            "duration": 0.46875,
            "durationTicks": 150,
            "midi": 52,
            "name": "E3",
            "ticks": 110240,
            "time": 344.5,
            "velocity": 1
          },
          {
            "duration": 0.46875,
            "durationTicks": 150,
            "midi": 64,
            "name": "E4",
            "ticks": 110240,
            "time": 344.5,
            "velocity": 1
          },
          {
            "duration": 0.46875,
            "durationTicks": 150,
            "midi": 57,
            "name": "A3",
            "ticks": 110400,
            "time": 345,
            "velocity": 1
          },
          {
            "duration": 0.46875,
            "durationTicks": 150,
            "midi": 69,
            "name": "A4",
            "ticks": 110400,
            "time": 345,
            "velocity": 1
          },
          {
            "duration": 0.46875,
            "durationTicks": 150,
            "midi": 55,
            "name": "G3",
            "ticks": 110560,
            "time": 345.5,
            "velocity": 1
          },
          {
            "duration": 0.46875,
            "durationTicks": 150,
            "midi": 67,
            "name": "G4",
            "ticks": 110560,
            "time": 345.5,
            "velocity": 1
          },
          {
            "duration": 0.46875,
            "durationTicks": 150,
            "midi": 53,
            "name": "F3",
            "ticks": 110720,
            "time": 346,
            "velocity": 1
          },
          {
            "duration": 0.46875,
            "durationTicks": 150,
            "midi": 65,
            "name": "F4",
            "ticks": 110720,
            "time": 346,
            "velocity": 1
          },
          {
            "duration": 0.46875,
            "durationTicks": 150,
            "midi": 52,
            "name": "E3",
            "ticks": 110880,
            "time": 346.5,
            "velocity": 1
          },
          {
            "duration": 0.46875,
            "durationTicks": 150,
            "midi": 64,
            "name": "E4",
            "ticks": 110880,
            "time": 346.5,
            "velocity": 1
          },
          {
            "duration": 0.46875,
            "durationTicks": 150,
            "midi": 50,
            "name": "D3",
            "ticks": 111040,
            "time": 347,
            "velocity": 1
          },
          {
            "duration": 0.46875,
            "durationTicks": 150,
            "midi": 62,
            "name": "D4",
            "ticks": 111040,
            "time": 347,
            "velocity": 1
          },
          {
            "duration": 0.46875,
            "durationTicks": 150,
            "midi": 48,
            "name": "C3",
            "ticks": 111200,
            "time": 347.5,
            "velocity": 1
          },
          {
            "duration": 0.46875,
            "durationTicks": 150,
            "midi": 60,
            "name": "C4",
            "ticks": 111200,
            "time": 347.5,
            "velocity": 1
          },
          {
            "duration": 0.3562500000000455,
            "durationTicks": 114,
            "midi": 55,
            "name": "G3",
            "ticks": 111360,
            "time": 348,
            "velocity": 1
          },
          {
            "duration": 0.3562500000000455,
            "durationTicks": 114,
            "midi": 67,
            "name": "G4",
            "ticks": 111360,
            "time": 348,
            "velocity": 1
          },
          {
            "duration": 0.3562500000000455,
            "durationTicks": 114,
            "midi": 53,
            "name": "F3",
            "ticks": 111480,
            "time": 348.375,
            "velocity": 1
          },
          {
            "duration": 0.3562500000000455,
            "durationTicks": 114,
            "midi": 65,
            "name": "F4",
            "ticks": 111480,
            "time": 348.375,
            "velocity": 1
          },
          {
            "duration": 0.3562500000000455,
            "durationTicks": 114,
            "midi": 52,
            "name": "E3",
            "ticks": 111600,
            "time": 348.75,
            "velocity": 1
          },
          {
            "duration": 0.3562500000000455,
            "durationTicks": 114,
            "midi": 64,
            "name": "E4",
            "ticks": 111600,
            "time": 348.75,
            "velocity": 1
          },
          {
            "duration": 0.3562500000000455,
            "durationTicks": 114,
            "midi": 62,
            "name": "D4",
            "ticks": 111720,
            "time": 349.125,
            "velocity": 1
          },
          {
            "duration": 0.3562500000000455,
            "durationTicks": 114,
            "midi": 60,
            "name": "C4",
            "ticks": 111840,
            "time": 349.5,
            "velocity": 1
          },
          {
            "duration": 0.3562500000000455,
            "durationTicks": 114,
            "midi": 59,
            "name": "B3",
            "ticks": 111960,
            "time": 349.875,
            "velocity": 1
          },
          {
            "duration": 0.3562500000000455,
            "durationTicks": 114,
            "midi": 57,
            "name": "A3",
            "ticks": 112080,
            "time": 350.25,
            "velocity": 1
          },
          {
            "duration": 0.3562500000000455,
            "durationTicks": 114,
            "midi": 55,
            "name": "G3",
            "ticks": 112200,
            "time": 350.625,
            "velocity": 1
          },
          {
            "duration": 0.3562500000000455,
            "durationTicks": 114,
            "midi": 64,
            "name": "E4",
            "ticks": 112320,
            "time": 351,
            "velocity": 1
          },
          {
            "duration": 0.3562500000000455,
            "durationTicks": 114,
            "midi": 62,
            "name": "D4",
            "ticks": 112440,
            "time": 351.375,
            "velocity": 1
          },
          {
            "duration": 0.3562500000000455,
            "durationTicks": 114,
            "midi": 60,
            "name": "C4",
            "ticks": 112560,
            "time": 351.75,
            "velocity": 1
          },
          {
            "duration": 0.3562500000000455,
            "durationTicks": 114,
            "midi": 59,
            "name": "B3",
            "ticks": 112680,
            "time": 352.125,
            "velocity": 1
          },
          {
            "duration": 0.3562500000000455,
            "durationTicks": 114,
            "midi": 57,
            "name": "A3",
            "ticks": 112800,
            "time": 352.5,
            "velocity": 1
          },
          {
            "duration": 0.3562500000000455,
            "durationTicks": 114,
            "midi": 55,
            "name": "G3",
            "ticks": 112920,
            "time": 352.875,
            "velocity": 1
          },
          {
            "duration": 0.3562500000000455,
            "durationTicks": 114,
            "midi": 53,
            "name": "F3",
            "ticks": 113040,
            "time": 353.25,
            "velocity": 1
          },
          {
            "duration": 0.3562500000000455,
            "durationTicks": 114,
            "midi": 52,
            "name": "E3",
            "ticks": 113160,
            "time": 353.625,
            "velocity": 1
          },
          {
            "duration": 0.23750000000001137,
            "durationTicks": 76,
            "midi": 60,
            "name": "C4",
            "ticks": 113280,
            "time": 354,
            "velocity": 1
          },
          {
            "duration": 0.23749999999995453,
            "durationTicks": 76,
            "midi": 59,
            "name": "B3",
            "ticks": 113360,
            "time": 354.25,
            "velocity": 1
          },
          {
            "duration": 0.23750000000001137,
            "durationTicks": 76,
            "midi": 57,
            "name": "A3",
            "ticks": 113440,
            "time": 354.5,
            "velocity": 1
          },
          {
            "duration": 0.23750000000001137,
            "durationTicks": 76,
            "midi": 55,
            "name": "G3",
            "ticks": 113520,
            "time": 354.75,
            "velocity": 1
          },
          {
            "duration": 0.23749999999995453,
            "durationTicks": 76,
            "midi": 53,
            "name": "F3",
            "ticks": 113600,
            "time": 355,
            "velocity": 1
          },
          {
            "duration": 0.23750000000001137,
            "durationTicks": 76,
            "midi": 52,
            "name": "E3",
            "ticks": 113680,
            "time": 355.25,
            "velocity": 1
          },
          {
            "duration": 0.23750000000001137,
            "durationTicks": 76,
            "midi": 57,
            "name": "A3",
            "ticks": 113760,
            "time": 355.5,
            "velocity": 1
          },
          {
            "duration": 0.23749999999995453,
            "durationTicks": 76,
            "midi": 55,
            "name": "G3",
            "ticks": 113840,
            "time": 355.75,
            "velocity": 1
          },
          {
            "duration": 0.23750000000001137,
            "durationTicks": 76,
            "midi": 53,
            "name": "F3",
            "ticks": 113920,
            "time": 356,
            "velocity": 1
          },
          {
            "duration": 0.23750000000001137,
            "durationTicks": 76,
            "midi": 52,
            "name": "E3",
            "ticks": 114000,
            "time": 356.25,
            "velocity": 1
          },
          {
            "duration": 0.23749999999995453,
            "durationTicks": 76,
            "midi": 50,
            "name": "D3",
            "ticks": 114080,
            "time": 356.5,
            "velocity": 1
          },
          {
            "duration": 0.23750000000001137,
            "durationTicks": 76,
            "midi": 50,
            "name": "D3",
            "ticks": 114160,
            "time": 356.75,
            "velocity": 1
          },
          {
            "duration": 0.23750000000001137,
            "durationTicks": 76,
            "midi": 64,
            "name": "E4",
            "ticks": 114240,
            "time": 357,
            "velocity": 1
          },
          {
            "duration": 0.23749999999995453,
            "durationTicks": 76,
            "midi": 62,
            "name": "D4",
            "ticks": 114320,
            "time": 357.25,
            "velocity": 1
          },
          {
            "duration": 0.23750000000001137,
            "durationTicks": 76,
            "midi": 60,
            "name": "C4",
            "ticks": 114400,
            "time": 357.5,
            "velocity": 1
          },
          {
            "duration": 0.23750000000001137,
            "durationTicks": 76,
            "midi": 59,
            "name": "B3",
            "ticks": 114480,
            "time": 357.75,
            "velocity": 1
          },
          {
            "duration": 0.23749999999995453,
            "durationTicks": 76,
            "midi": 57,
            "name": "A3",
            "ticks": 114560,
            "time": 358,
            "velocity": 1
          },
          {
            "duration": 0.23750000000001137,
            "durationTicks": 76,
            "midi": 55,
            "name": "G3",
            "ticks": 114640,
            "time": 358.25,
            "velocity": 1
          },
          {
            "duration": 0.19999999999998863,
            "durationTicks": 64,
            "midi": 60,
            "name": "C4",
            "ticks": 114720,
            "time": 358.5,
            "velocity": 1
          },
          {
            "duration": 0.19999999999998863,
            "durationTicks": 64,
            "midi": 59,
            "name": "B3",
            "ticks": 114788,
            "time": 358.71250000000003,
            "velocity": 1
          },
          {
            "duration": 0.19999999999998863,
            "durationTicks": 64,
            "midi": 57,
            "name": "A3",
            "ticks": 114856,
            "time": 358.925,
            "velocity": 1
          },
          {
            "duration": 0.1999999999999318,
            "durationTicks": 64,
            "midi": 55,
            "name": "G3",
            "ticks": 114924,
            "time": 359.13750000000005,
            "velocity": 1
          },
          {
            "duration": 0.1999999999999318,
            "durationTicks": 64,
            "midi": 53,
            "name": "F3",
            "ticks": 114992,
            "time": 359.35,
            "velocity": 1
          },
          {
            "duration": 0.19999999999998863,
            "durationTicks": 64,
            "midi": 52,
            "name": "E3",
            "ticks": 115060,
            "time": 359.5625,
            "velocity": 1
          },
          {
            "duration": 0.19999999999998863,
            "durationTicks": 64,
            "midi": 50,
            "name": "D3",
            "ticks": 115128,
            "time": 359.775,
            "velocity": 1
          },
          {
            "duration": 0.7062500000000114,
            "durationTicks": 226,
            "midi": 48,
            "name": "C3",
            "ticks": 115200,
            "time": 360,
            "velocity": 1
          },
          {
            "duration": 0.7062500000000114,
            "durationTicks": 226,
            "midi": 48,
            "name": "C3",
            "ticks": 115440,
            "time": 360.75,
            "velocity": 1
          },
          {
            "duration": 0.7062500000000114,
            "durationTicks": 226,
            "midi": 55,
            "name": "G3",
            "ticks": 115440,
            "time": 360.75,
            "velocity": 1
          },
          {
            "duration": 0.7062500000000114,
            "durationTicks": 226,
            "midi": 60,
            "name": "C4",
            "ticks": 115440,
            "time": 360.75,
            "velocity": 1
          },
          {
            "duration": 1.40625,
            "durationTicks": 450,
            "midi": 52,
            "name": "E3",
            "ticks": 119520,
            "time": 373.5,
            "velocity": 0.9212598425196851
          },
          {
            "duration": 1.40625,
            "durationTicks": 450,
            "midi": 54,
            "name": "F#3",
            "ticks": 120000,
            "time": 375,
            "velocity": 0.9212598425196851
          },
          {
            "duration": 1.40625,
            "durationTicks": 450,
            "midi": 55,
            "name": "G3",
            "ticks": 120480,
            "time": 376.5,
            "velocity": 0.9212598425196851
          },
          {
            "duration": 1.40625,
            "durationTicks": 450,
            "midi": 54,
            "name": "F#3",
            "ticks": 120960,
            "time": 378,
            "velocity": 0.9212598425196851
          },
          {
            "duration": 1.40625,
            "durationTicks": 450,
            "midi": 62,
            "name": "D4",
            "ticks": 121920,
            "time": 381,
            "velocity": 0.8267716535433071
          },
          {
            "duration": 1.40625,
            "durationTicks": 450,
            "midi": 62,
            "name": "D4",
            "ticks": 122400,
            "time": 382.5,
            "velocity": 0.8661417322834646
          },
          {
            "duration": 1.40625,
            "durationTicks": 450,
            "midi": 61,
            "name": "C#4",
            "ticks": 122880,
            "time": 384,
            "velocity": 0.8661417322834646
          },
          {
            "duration": 1.40625,
            "durationTicks": 450,
            "midi": 59,
            "name": "B3",
            "ticks": 123360,
            "time": 385.5,
            "velocity": 0.8661417322834646
          },
          {
            "duration": 1.40625,
            "durationTicks": 450,
            "midi": 57,
            "name": "A3",
            "ticks": 123840,
            "time": 387,
            "velocity": 0.8661417322834646
          },
          {
            "duration": 0.7062500000000682,
            "durationTicks": 226,
            "midi": 57,
            "name": "A3",
            "ticks": 125040,
            "time": 390.75,
            "velocity": 0.8661417322834646
          },
          {
            "duration": 1.40625,
            "durationTicks": 450,
            "midi": 55,
            "name": "G3",
            "ticks": 125280,
            "time": 391.5,
            "velocity": 0.8661417322834646
          },
          {
            "duration": 0.7062500000000682,
            "durationTicks": 226,
            "midi": 55,
            "name": "G3",
            "ticks": 126480,
            "time": 395.25,
            "velocity": 0.5905511811023622
          },
          {
            "duration": 1.40625,
            "durationTicks": 450,
            "midi": 54,
            "name": "F#3",
            "ticks": 126720,
            "time": 396,
            "velocity": 0.5905511811023622
          },
          {
            "duration": 3.2999999999999545,
            "durationTicks": 1056,
            "midi": 54,
            "name": "F#3",
            "ticks": 127680,
            "time": 399,
            "velocity": 0.5905511811023622
          },
          {
            "duration": 0.2999999999999545,
            "durationTicks": 96,
            "midi": 59,
            "name": "B3",
            "ticks": 128760,
            "time": 402.375,
            "velocity": 0.6141732283464567
          },
          {
            "duration": 0.2999999999999545,
            "durationTicks": 96,
            "midi": 58,
            "name": "A#3",
            "ticks": 128880,
            "time": 402.75,
            "velocity": 0.6377952755905512
          },
          {
            "duration": 0.2999999999999545,
            "durationTicks": 96,
            "midi": 61,
            "name": "C#4",
            "ticks": 129000,
            "time": 403.125,
            "velocity": 0.6614173228346457
          },
          {
            "duration": 0.2999999999999545,
            "durationTicks": 96,
            "midi": 59,
            "name": "B3",
            "ticks": 129120,
            "time": 403.5,
            "velocity": 0.6929133858267716
          },
          {
            "duration": 0.2999999999999545,
            "durationTicks": 96,
            "midi": 64,
            "name": "E4",
            "ticks": 129240,
            "time": 403.875,
            "velocity": 0.7165354330708661
          },
          {
            "duration": 0.2999999999999545,
            "durationTicks": 96,
            "midi": 62,
            "name": "D4",
            "ticks": 129360,
            "time": 404.25,
            "velocity": 0.7401574803149606
          },
          {
            "duration": 0.2999999999999545,
            "durationTicks": 96,
            "midi": 67,
            "name": "G4",
            "ticks": 129480,
            "time": 404.625,
            "velocity": 0.7637795275590551
          },
          {
            "duration": 1.40625,
            "durationTicks": 450,
            "midi": 68,
            "name": "G#4",
            "ticks": 129600,
            "time": 405,
            "velocity": 0.8661417322834646
          },
          {
            "duration": 0.7062500000000682,
            "durationTicks": 226,
            "midi": 66,
            "name": "F#4",
            "ticks": 130080,
            "time": 406.5,
            "velocity": 0.8661417322834646
          },
          {
            "duration": 0.7062500000000682,
            "durationTicks": 226,
            "midi": 65,
            "name": "F4",
            "ticks": 130320,
            "time": 407.25,
            "velocity": 0.8661417322834646
          },
          {
            "duration": 1.0562499999999773,
            "durationTicks": 338,
            "midi": 59,
            "name": "B3",
            "ticks": 130560,
            "time": 408,
            "velocity": 0.8582677165354331
          },
          {
            "duration": 0.3562500000000455,
            "durationTicks": 114,
            "midi": 59,
            "name": "B3",
            "ticks": 130920,
            "time": 409.125,
            "velocity": 0.8110236220472441
          },
          {
            "duration": 3.706250000000068,
            "durationTicks": 1186,
            "midi": 58,
            "name": "A#3",
            "ticks": 131040,
            "time": 409.5,
            "velocity": 0.7086614173228346
          },
          {
            "duration": 1.40625,
            "durationTicks": 450,
            "midi": 68,
            "name": "G#4",
            "ticks": 132480,
            "time": 414,
            "velocity": 0.8661417322834646
          },
          {
            "duration": 0.7062500000000682,
            "durationTicks": 226,
            "midi": 66,
            "name": "F#4",
            "ticks": 132960,
            "time": 415.5,
            "velocity": 0.8661417322834646
          },
          {
            "duration": 0.7062500000000682,
            "durationTicks": 226,
            "midi": 65,
            "name": "F4",
            "ticks": 133200,
            "time": 416.25,
            "velocity": 0.8661417322834646
          },
          {
            "duration": 1.0562499999999773,
            "durationTicks": 338,
            "midi": 59,
            "name": "B3",
            "ticks": 133440,
            "time": 417,
            "velocity": 0.8582677165354331
          },
          {
            "duration": 0.3562500000000455,
            "durationTicks": 114,
            "midi": 59,
            "name": "B3",
            "ticks": 133800,
            "time": 418.125,
            "velocity": 0.8110236220472441
          },
          {
            "duration": 3.706250000000068,
            "durationTicks": 1186,
            "midi": 58,
            "name": "A#3",
            "ticks": 133920,
            "time": 418.5,
            "velocity": 0.7086614173228346
          },
          {
            "duration": 2.956250000000068,
            "durationTicks": 946,
            "midi": 55,
            "name": "G3",
            "ticks": 135360,
            "time": 423,
            "velocity": 0.5275590551181102
          },
          {
            "duration": 1.0562499999999773,
            "durationTicks": 338,
            "midi": 55,
            "name": "G3",
            "ticks": 136320,
            "time": 426,
            "velocity": 0.5275590551181102
          },
          {
            "duration": 0.3562500000000455,
            "durationTicks": 114,
            "midi": 55,
            "name": "G3",
            "ticks": 136680,
            "time": 427.125,
            "velocity": 0.5275590551181102
          },
          {
            "duration": 3.599999999999966,
            "durationTicks": 1152,
            "midi": 54,
            "name": "F#3",
            "ticks": 136800,
            "time": 427.5,
            "velocity": 0.49606299212598426
          },
          {
            "duration": 2.956250000000068,
            "durationTicks": 946,
            "midi": 52,
            "name": "E3",
            "ticks": 138240,
            "time": 432,
            "velocity": 0.5275590551181102
          },
          {
            "duration": 1.0562499999999773,
            "durationTicks": 338,
            "midi": 52,
            "name": "E3",
            "ticks": 139200,
            "time": 435,
            "velocity": 0.5275590551181102
          },
          {
            "duration": 0.3562500000000455,
            "durationTicks": 114,
            "midi": 52,
            "name": "E3",
            "ticks": 139560,
            "time": 436.125,
            "velocity": 0.5275590551181102
          },
          {
            "duration": 3.599999999999966,
            "durationTicks": 1152,
            "midi": 54,
            "name": "F#3",
            "ticks": 139680,
            "time": 436.5,
            "velocity": 0.49606299212598426
          },
          {
            "duration": 2.8125,
            "durationTicks": 900,
            "midi": 50,
            "name": "D3",
            "ticks": 141120,
            "time": 441,
            "velocity": 0.6299212598425197
          },
          {
            "duration": 5.71875,
            "durationTicks": 1830,
            "midi": 52,
            "name": "E3",
            "ticks": 142080,
            "time": 444,
            "velocity": 0.6299212598425197
          },
          {
            "duration": 5.90625,
            "durationTicks": 1890,
            "midi": 55,
            "name": "G3",
            "ticks": 144000,
            "time": 450,
            "velocity": 0.8267716535433071
          },
          {
            "duration": 6.706250000000068,
            "durationTicks": 2146,
            "midi": 54,
            "name": "F#3",
            "ticks": 145920,
            "time": 456,
            "velocity": 0.8661417322834646
          },
          {
            "duration": 0.2375000000000682,
            "durationTicks": 76,
            "midi": 54,
            "name": "F#3",
            "ticks": 148560,
            "time": 464.25,
            "velocity": 0.6692913385826772
          },
          {
            "duration": 0.23749999999995453,
            "durationTicks": 76,
            "midi": 52,
            "name": "E3",
            "ticks": 148640,
            "time": 464.5,
            "velocity": 0.6850393700787402
          },
          {
            "duration": 0.23750000000001137,
            "durationTicks": 76,
            "midi": 55,
            "name": "G3",
            "ticks": 148720,
            "time": 464.75,
            "velocity": 0.6929133858267716
          },
          {
            "duration": 0.2375000000000682,
            "durationTicks": 76,
            "midi": 61,
            "name": "C#4",
            "ticks": 148800,
            "time": 465,
            "velocity": 0.7086614173228346
          },
          {
            "duration": 0.23749999999995453,
            "durationTicks": 76,
            "midi": 62,
            "name": "D4",
            "ticks": 148880,
            "time": 465.25,
            "velocity": 0.7244094488188977
          },
          {
            "duration": 0.23750000000001137,
            "durationTicks": 76,
            "midi": 63,
            "name": "D#4",
            "ticks": 148960,
            "time": 465.5,
            "velocity": 0.7322834645669292
          },
          {
            "duration": 0.2375000000000682,
            "durationTicks": 76,
            "midi": 64,
            "name": "E4",
            "ticks": 149040,
            "time": 465.75,
            "velocity": 0.7480314960629921
          },
          {
            "duration": 0.23749999999995453,
            "durationTicks": 76,
            "midi": 65,
            "name": "F4",
            "ticks": 149120,
            "time": 466,
            "velocity": 0.7637795275590551
          },
          {
            "duration": 0.23750000000001137,
            "durationTicks": 76,
            "midi": 66,
            "name": "F#4",
            "ticks": 149200,
            "time": 466.25,
            "velocity": 0.7716535433070866
          },
          {
            "duration": 0.2375000000000682,
            "durationTicks": 76,
            "midi": 67,
            "name": "G4",
            "ticks": 149280,
            "time": 466.5,
            "velocity": 0.7874015748031497
          },
          {
            "duration": 0.23749999999995453,
            "durationTicks": 76,
            "midi": 68,
            "name": "G#4",
            "ticks": 149360,
            "time": 466.75,
            "velocity": 0.8031496062992126
          },
          {
            "duration": 0.23750000000001137,
            "durationTicks": 76,
            "midi": 69,
            "name": "A4",
            "ticks": 149440,
            "time": 467,
            "velocity": 0.8110236220472441
          },
          {
            "duration": 0.2375000000000682,
            "durationTicks": 76,
            "midi": 70,
            "name": "A#4",
            "ticks": 149520,
            "time": 467.25,
            "velocity": 0.8267716535433071
          },
          {
            "duration": 0.23749999999995453,
            "durationTicks": 76,
            "midi": 71,
            "name": "B4",
            "ticks": 149600,
            "time": 467.5,
            "velocity": 0.84251968503937
          },
          {
            "duration": 0.23750000000001137,
            "durationTicks": 76,
            "midi": 73,
            "name": "C#5",
            "ticks": 149680,
            "time": 467.75,
            "velocity": 0.8503937007874016
          },
          {
            "duration": 1.40625,
            "durationTicks": 450,
            "midi": 68,
            "name": "G#4",
            "ticks": 149760,
            "time": 468,
            "velocity": 0.8661417322834646
          },
          {
            "duration": 0.7062500000000682,
            "durationTicks": 226,
            "midi": 66,
            "name": "F#4",
            "ticks": 150240,
            "time": 469.5,
            "velocity": 0.8661417322834646
          },
          {
            "duration": 0.7062500000000682,
            "durationTicks": 226,
            "midi": 65,
            "name": "F4",
            "ticks": 150480,
            "time": 470.25,
            "velocity": 0.8661417322834646
          },
          {
            "duration": 1.0562499999999773,
            "durationTicks": 338,
            "midi": 59,
            "name": "B3",
            "ticks": 150720,
            "time": 471,
            "velocity": 0.8582677165354331
          },
          {
            "duration": 0.3562500000000455,
            "durationTicks": 114,
            "midi": 59,
            "name": "B3",
            "ticks": 151080,
            "time": 472.125,
            "velocity": 0.8110236220472441
          },
          {
            "duration": 3.706250000000068,
            "durationTicks": 1186,
            "midi": 58,
            "name": "A#3",
            "ticks": 151200,
            "time": 472.5,
            "velocity": 0.7086614173228346
          },
          {
            "duration": 1.40625,
            "durationTicks": 450,
            "midi": 68,
            "name": "G#4",
            "ticks": 152640,
            "time": 477,
            "velocity": 0.8661417322834646
          },
          {
            "duration": 0.7062500000000682,
            "durationTicks": 226,
            "midi": 66,
            "name": "F#4",
            "ticks": 153120,
            "time": 478.5,
            "velocity": 0.8661417322834646
          },
          {
            "duration": 0.7062500000000682,
            "durationTicks": 226,
            "midi": 65,
            "name": "F4",
            "ticks": 153360,
            "time": 479.25,
            "velocity": 0.8661417322834646
          },
          {
            "duration": 1.0562499999999773,
            "durationTicks": 338,
            "midi": 59,
            "name": "B3",
            "ticks": 153600,
            "time": 480,
            "velocity": 0.8582677165354331
          },
          {
            "duration": 0.3562500000000455,
            "durationTicks": 114,
            "midi": 59,
            "name": "B3",
            "ticks": 153960,
            "time": 481.125,
            "velocity": 0.8110236220472441
          },
          {
            "duration": 3.706250000000068,
            "durationTicks": 1186,
            "midi": 58,
            "name": "A#3",
            "ticks": 154080,
            "time": 481.5,
            "velocity": 0.7086614173228346
          },
          {
            "duration": 1.40625,
            "durationTicks": 450,
            "midi": 52,
            "name": "E3",
            "ticks": 155520,
            "time": 486,
            "velocity": 0.7086614173228346
          },
          {
            "duration": 0.7062500000000682,
            "durationTicks": 226,
            "midi": 50,
            "name": "D3",
            "ticks": 156000,
            "time": 487.5,
            "velocity": 0.7086614173228346
          },
          {
            "duration": 0.7062500000000682,
            "durationTicks": 226,
            "midi": 49,
            "name": "C#3",
            "ticks": 156240,
            "time": 488.25,
            "velocity": 0.7086614173228346
          },
          {
            "duration": 1.4562500000000682,
            "durationTicks": 466,
            "midi": 52,
            "name": "E3",
            "ticks": 156480,
            "time": 489,
            "velocity": 0.7086614173228346
          },
          {
            "duration": 1.40625,
            "durationTicks": 450,
            "midi": 57,
            "name": "A3",
            "ticks": 156960,
            "time": 490.5,
            "velocity": 0.7086614173228346
          },
          {
            "duration": 1.0562499999999773,
            "durationTicks": 338,
            "midi": 55,
            "name": "G3",
            "ticks": 157440,
            "time": 492,
            "velocity": 0.7086614173228346
          },
          {
            "duration": 0.3562500000000455,
            "durationTicks": 114,
            "midi": 54,
            "name": "F#3",
            "ticks": 157800,
            "time": 493.125,
            "velocity": 0.7086614173228346
          },
          {
            "duration": 0.7062500000000682,
            "durationTicks": 226,
            "midi": 52,
            "name": "E3",
            "ticks": 157920,
            "time": 493.5,
            "velocity": 0.7086614173228346
          },
          {
            "duration": 0.7062500000000682,
            "durationTicks": 226,
            "midi": 51,
            "name": "D#3",
            "ticks": 158160,
            "time": 494.25,
            "velocity": 0.7086614173228346
          },
          {
            "duration": 1.40625,
            "durationTicks": 450,
            "midi": 60,
            "name": "C4",
            "ticks": 158400,
            "time": 495,
            "velocity": 0.6220472440944882
          },
          {
            "duration": 1.0562499999999773,
            "durationTicks": 338,
            "midi": 59,
            "name": "B3",
            "ticks": 158880,
            "time": 496.5,
            "velocity": 0.6456692913385826
          },
          {
            "duration": 0.3562500000000455,
            "durationTicks": 114,
            "midi": 57,
            "name": "A3",
            "ticks": 159240,
            "time": 497.625,
            "velocity": 0.6614173228346457
          },
          {
            "duration": 0.7062500000000682,
            "durationTicks": 226,
            "midi": 55,
            "name": "G3",
            "ticks": 159360,
            "time": 498,
            "velocity": 0.6692913385826772
          },
          {
            "duration": 0.7062500000000682,
            "durationTicks": 226,
            "midi": 54,
            "name": "F#3",
            "ticks": 159600,
            "time": 498.75,
            "velocity": 0.6771653543307087
          },
          {
            "duration": 1.40625,
            "durationTicks": 450,
            "midi": 62,
            "name": "D4",
            "ticks": 159840,
            "time": 499.5,
            "velocity": 0.6929133858267716
          },
          {
            "duration": 1.0562499999999773,
            "durationTicks": 338,
            "midi": 60,
            "name": "C4",
            "ticks": 160320,
            "time": 501,
            "velocity": 0.7165354330708661
          },
          {
            "duration": 0.3562500000000455,
            "durationTicks": 114,
            "midi": 59,
            "name": "B3",
            "ticks": 160680,
            "time": 502.125,
            "velocity": 0.7322834645669292
          },
          {
            "duration": 0.7062500000000682,
            "durationTicks": 226,
            "midi": 57,
            "name": "A3",
            "ticks": 160800,
            "time": 502.5,
            "velocity": 0.7322834645669292
          },
          {
            "duration": 0.7062500000000682,
            "durationTicks": 226,
            "midi": 56,
            "name": "G#3",
            "ticks": 161040,
            "time": 503.25,
            "velocity": 0.7480314960629921
          },
          {
            "duration": 0.7062500000000682,
            "durationTicks": 226,
            "midi": 64,
            "name": "E4",
            "ticks": 161280,
            "time": 504,
            "velocity": 0.7559055118110236
          },
          {
            "duration": 0.7062500000000682,
            "durationTicks": 226,
            "midi": 62,
            "name": "D4",
            "ticks": 161520,
            "time": 504.75,
            "velocity": 0.7637795275590551
          },
          {
            "duration": 0.7062500000000682,
            "durationTicks": 226,
            "midi": 60,
            "name": "C4",
            "ticks": 161760,
            "time": 505.5,
            "velocity": 0.7795275590551181
          },
          {
            "duration": 0.7062500000000682,
            "durationTicks": 226,
            "midi": 59,
            "name": "B3",
            "ticks": 162000,
            "time": 506.25,
            "velocity": 0.7874015748031497
          },
          {
            "duration": 0.7062500000000682,
            "durationTicks": 226,
            "midi": 65,
            "name": "F4",
            "ticks": 162240,
            "time": 507,
            "velocity": 0.8031496062992126
          },
          {
            "duration": 0.7062500000000682,
            "durationTicks": 226,
            "midi": 64,
            "name": "E4",
            "ticks": 162480,
            "time": 507.75,
            "velocity": 0.8110236220472441
          },
          {
            "duration": 0.7062500000000682,
            "durationTicks": 226,
            "midi": 62,
            "name": "D4",
            "ticks": 162720,
            "time": 508.5,
            "velocity": 0.8188976377952756
          },
          {
            "duration": 0.7062500000000682,
            "durationTicks": 226,
            "midi": 60,
            "name": "C4",
            "ticks": 162960,
            "time": 509.25,
            "velocity": 0.8346456692913385
          },
          {
            "duration": 0.3562500000000455,
            "durationTicks": 114,
            "midi": 67,
            "name": "G4",
            "ticks": 163200,
            "time": 510,
            "velocity": 0.84251968503937
          },
          {
            "duration": 0.3562500000000455,
            "durationTicks": 114,
            "midi": 67,
            "name": "G4",
            "ticks": 163320,
            "time": 510.375,
            "velocity": 0.8503937007874016
          },
          {
            "duration": 0.3562500000000455,
            "durationTicks": 114,
            "midi": 65,
            "name": "F4",
            "ticks": 163440,
            "time": 510.75,
            "velocity": 0.8503937007874016
          },
          {
            "duration": 0.3562500000000455,
            "durationTicks": 114,
            "midi": 65,
            "name": "F4",
            "ticks": 163560,
            "time": 511.125,
            "velocity": 0.8582677165354331
          },
          {
            "duration": 0.3562500000000455,
            "durationTicks": 114,
            "midi": 64,
            "name": "E4",
            "ticks": 163680,
            "time": 511.5,
            "velocity": 0.8661417322834646
          },
          {
            "duration": 0.3562500000000455,
            "durationTicks": 114,
            "midi": 64,
            "name": "E4",
            "ticks": 163800,
            "time": 511.875,
            "velocity": 0.8740157480314961
          },
          {
            "duration": 0.3562500000000455,
            "durationTicks": 114,
            "midi": 62,
            "name": "D4",
            "ticks": 163920,
            "time": 512.25,
            "velocity": 0.8740157480314961
          },
          {
            "duration": 0.3562500000000455,
            "durationTicks": 114,
            "midi": 62,
            "name": "D4",
            "ticks": 164040,
            "time": 512.625,
            "velocity": 0.8818897637795275
          },
          {
            "duration": 0.3562500000000455,
            "durationTicks": 114,
            "midi": 69,
            "name": "A4",
            "ticks": 164160,
            "time": 513,
            "velocity": 0.84251968503937
          },
          {
            "duration": 0.3562500000000455,
            "durationTicks": 114,
            "midi": 69,
            "name": "A4",
            "ticks": 164280,
            "time": 513.375,
            "velocity": 0.8503937007874016
          },
          {
            "duration": 0.3562500000000455,
            "durationTicks": 114,
            "midi": 67,
            "name": "G4",
            "ticks": 164400,
            "time": 513.75,
            "velocity": 0.8503937007874016
          },
          {
            "duration": 0.3562500000000455,
            "durationTicks": 114,
            "midi": 67,
            "name": "G4",
            "ticks": 164520,
            "time": 514.125,
            "velocity": 0.8582677165354331
          },
          {
            "duration": 0.3562500000000455,
            "durationTicks": 114,
            "midi": 65,
            "name": "F4",
            "ticks": 164640,
            "time": 514.5,
            "velocity": 0.8661417322834646
          },
          {
            "duration": 0.3562500000000455,
            "durationTicks": 114,
            "midi": 65,
            "name": "F4",
            "ticks": 164760,
            "time": 514.875,
            "velocity": 0.8740157480314961
          },
          {
            "duration": 0.3562500000000455,
            "durationTicks": 114,
            "midi": 64,
            "name": "E4",
            "ticks": 164880,
            "time": 515.25,
            "velocity": 0.8740157480314961
          },
          {
            "duration": 0.3562500000000455,
            "durationTicks": 114,
            "midi": 64,
            "name": "E4",
            "ticks": 165000,
            "time": 515.625,
            "velocity": 0.8818897637795275
          },
          {
            "duration": 0.2375000000000682,
            "durationTicks": 76,
            "midi": 70,
            "name": "A#4",
            "ticks": 165120,
            "time": 516,
            "velocity": 0.9606299212598425
          },
          {
            "duration": 0.23749999999995453,
            "durationTicks": 76,
            "midi": 70,
            "name": "A#4",
            "ticks": 165200,
            "time": 516.25,
            "velocity": 0.9606299212598425
          },
          {
            "duration": 0.23749999999995453,
            "durationTicks": 76,
            "midi": 70,
            "name": "A#4",
            "ticks": 165280,
            "time": 516.5,
            "velocity": 0.9606299212598425
          },
          {
            "duration": 0.2375000000000682,
            "durationTicks": 76,
            "midi": 69,
            "name": "A4",
            "ticks": 165360,
            "time": 516.75,
            "velocity": 0.9606299212598425
          },
          {
            "duration": 0.23749999999995453,
            "durationTicks": 76,
            "midi": 69,
            "name": "A4",
            "ticks": 165440,
            "time": 517,
            "velocity": 0.9606299212598425
          },
          {
            "duration": 0.23749999999995453,
            "durationTicks": 76,
            "midi": 69,
            "name": "A4",
            "ticks": 165520,
            "time": 517.25,
            "velocity": 0.9606299212598425
          },
          {
            "duration": 0.2375000000000682,
            "durationTicks": 76,
            "midi": 67,
            "name": "G4",
            "ticks": 165600,
            "time": 517.5,
            "velocity": 0.9606299212598425
          },
          {
            "duration": 0.23749999999995453,
            "durationTicks": 76,
            "midi": 67,
            "name": "G4",
            "ticks": 165680,
            "time": 517.75,
            "velocity": 0.9606299212598425
          },
          {
            "duration": 0.23749999999995453,
            "durationTicks": 76,
            "midi": 67,
            "name": "G4",
            "ticks": 165760,
            "time": 518,
            "velocity": 0.9606299212598425
          },
          {
            "duration": 0.2375000000000682,
            "durationTicks": 76,
            "midi": 65,
            "name": "F4",
            "ticks": 165840,
            "time": 518.25,
            "velocity": 0.9606299212598425
          },
          {
            "duration": 0.23749999999995453,
            "durationTicks": 76,
            "midi": 65,
            "name": "F4",
            "ticks": 165920,
            "time": 518.5,
            "velocity": 0.9606299212598425
          },
          {
            "duration": 0.23749999999995453,
            "durationTicks": 76,
            "midi": 65,
            "name": "F4",
            "ticks": 166000,
            "time": 518.75,
            "velocity": 0.9606299212598425
          },
          {
            "duration": 0.2375000000000682,
            "durationTicks": 76,
            "midi": 72,
            "name": "C5",
            "ticks": 166080,
            "time": 519,
            "velocity": 0.9606299212598425
          },
          {
            "duration": 0.23749999999995453,
            "durationTicks": 76,
            "midi": 72,
            "name": "C5",
            "ticks": 166160,
            "time": 519.25,
            "velocity": 0.9606299212598425
          },
          {
            "duration": 0.23749999999995453,
            "durationTicks": 76,
            "midi": 72,
            "name": "C5",
            "ticks": 166240,
            "time": 519.5,
            "velocity": 0.9606299212598425
          },
          {
            "duration": 0.2375000000000682,
            "durationTicks": 76,
            "midi": 71,
            "name": "B4",
            "ticks": 166320,
            "time": 519.75,
            "velocity": 0.9606299212598425
          },
          {
            "duration": 0.23749999999995453,
            "durationTicks": 76,
            "midi": 71,
            "name": "B4",
            "ticks": 166400,
            "time": 520,
            "velocity": 0.9606299212598425
          },
          {
            "duration": 0.23749999999995453,
            "durationTicks": 76,
            "midi": 71,
            "name": "B4",
            "ticks": 166480,
            "time": 520.25,
            "velocity": 0.9606299212598425
          },
          {
            "duration": 0.2375000000000682,
            "durationTicks": 76,
            "midi": 69,
            "name": "A4",
            "ticks": 166560,
            "time": 520.5,
            "velocity": 0.9606299212598425
          },
          {
            "duration": 0.23749999999995453,
            "durationTicks": 76,
            "midi": 69,
            "name": "A4",
            "ticks": 166640,
            "time": 520.75,
            "velocity": 0.9606299212598425
          },
          {
            "duration": 0.23749999999995453,
            "durationTicks": 76,
            "midi": 69,
            "name": "A4",
            "ticks": 166720,
            "time": 521,
            "velocity": 0.9606299212598425
          },
          {
            "duration": 0.2375000000000682,
            "durationTicks": 76,
            "midi": 68,
            "name": "G#4",
            "ticks": 166800,
            "time": 521.25,
            "velocity": 0.9606299212598425
          },
          {
            "duration": 0.23749999999995453,
            "durationTicks": 76,
            "midi": 68,
            "name": "G#4",
            "ticks": 166880,
            "time": 521.5,
            "velocity": 0.9606299212598425
          },
          {
            "duration": 0.23749999999995453,
            "durationTicks": 76,
            "midi": 68,
            "name": "G#4",
            "ticks": 166960,
            "time": 521.75,
            "velocity": 0.9606299212598425
          },
          {
            "duration": 0.18124999999997726,
            "durationTicks": 58,
            "midi": 71,
            "name": "B4",
            "ticks": 167040,
            "time": 522,
            "velocity": 1
          },
          {
            "duration": 0.18124999999997726,
            "durationTicks": 58,
            "midi": 71,
            "name": "B4",
            "ticks": 167100,
            "time": 522.1875,
            "velocity": 1
          },
          {
            "duration": 0.18124999999997726,
            "durationTicks": 58,
            "midi": 71,
            "name": "B4",
            "ticks": 167160,
            "time": 522.375,
            "velocity": 1
          },
          {
            "duration": 0.18124999999997726,
            "durationTicks": 58,
            "midi": 71,
            "name": "B4",
            "ticks": 167220,
            "time": 522.5625,
            "velocity": 1
          },
          {
            "duration": 0.18124999999997726,
            "durationTicks": 58,
            "midi": 71,
            "name": "B4",
            "ticks": 167280,
            "time": 522.75,
            "velocity": 1
          },
          {
            "duration": 0.18124999999997726,
            "durationTicks": 58,
            "midi": 71,
            "name": "B4",
            "ticks": 167340,
            "time": 522.9375,
            "velocity": 1
          },
          {
            "duration": 0.18124999999997726,
            "durationTicks": 58,
            "midi": 71,
            "name": "B4",
            "ticks": 167400,
            "time": 523.125,
            "velocity": 1
          },
          {
            "duration": 0.18124999999997726,
            "durationTicks": 58,
            "midi": 71,
            "name": "B4",
            "ticks": 167460,
            "time": 523.3125,
            "velocity": 1
          },
          {
            "duration": 0.18124999999997726,
            "durationTicks": 58,
            "midi": 71,
            "name": "B4",
            "ticks": 167520,
            "time": 523.5,
            "velocity": 1
          },
          {
            "duration": 0.18124999999997726,
            "durationTicks": 58,
            "midi": 71,
            "name": "B4",
            "ticks": 167580,
            "time": 523.6875,
            "velocity": 1
          },
          {
            "duration": 0.18124999999997726,
            "durationTicks": 58,
            "midi": 71,
            "name": "B4",
            "ticks": 167640,
            "time": 523.875,
            "velocity": 1
          },
          {
            "duration": 0.18124999999997726,
            "durationTicks": 58,
            "midi": 71,
            "name": "B4",
            "ticks": 167700,
            "time": 524.0625,
            "velocity": 1
          },
          {
            "duration": 0.18124999999997726,
            "durationTicks": 58,
            "midi": 71,
            "name": "B4",
            "ticks": 167760,
            "time": 524.25,
            "velocity": 1
          },
          {
            "duration": 0.18124999999997726,
            "durationTicks": 58,
            "midi": 71,
            "name": "B4",
            "ticks": 167820,
            "time": 524.4375,
            "velocity": 1
          },
          {
            "duration": 0.18124999999997726,
            "durationTicks": 58,
            "midi": 71,
            "name": "B4",
            "ticks": 167880,
            "time": 524.625,
            "velocity": 1
          },
          {
            "duration": 0.18124999999997726,
            "durationTicks": 58,
            "midi": 71,
            "name": "B4",
            "ticks": 167940,
            "time": 524.8125,
            "velocity": 1
          },
          {
            "duration": 0.18124999999997726,
            "durationTicks": 58,
            "midi": 69,
            "name": "A4",
            "ticks": 168000,
            "time": 525,
            "velocity": 1
          },
          {
            "duration": 0.18124999999997726,
            "durationTicks": 58,
            "midi": 69,
            "name": "A4",
            "ticks": 168060,
            "time": 525.1875,
            "velocity": 1
          },
          {
            "duration": 0.18124999999997726,
            "durationTicks": 58,
            "midi": 69,
            "name": "A4",
            "ticks": 168120,
            "time": 525.375,
            "velocity": 1
          },
          {
            "duration": 0.18124999999997726,
            "durationTicks": 58,
            "midi": 69,
            "name": "A4",
            "ticks": 168180,
            "time": 525.5625,
            "velocity": 1
          },
          {
            "duration": 0.18124999999997726,
            "durationTicks": 58,
            "midi": 69,
            "name": "A4",
            "ticks": 168240,
            "time": 525.75,
            "velocity": 1
          },
          {
            "duration": 0.18124999999997726,
            "durationTicks": 58,
            "midi": 69,
            "name": "A4",
            "ticks": 168300,
            "time": 525.9375,
            "velocity": 1
          },
          {
            "duration": 0.18124999999997726,
            "durationTicks": 58,
            "midi": 69,
            "name": "A4",
            "ticks": 168360,
            "time": 526.125,
            "velocity": 1
          },
          {
            "duration": 0.18124999999997726,
            "durationTicks": 58,
            "midi": 69,
            "name": "A4",
            "ticks": 168420,
            "time": 526.3125,
            "velocity": 1
          },
          {
            "duration": 0.2375000000000682,
            "durationTicks": 76,
            "midi": 69,
            "name": "A4",
            "ticks": 168960,
            "time": 528,
            "velocity": 0.9606299212598425
          },
          {
            "duration": 0.23749999999995453,
            "durationTicks": 76,
            "midi": 69,
            "name": "A4",
            "ticks": 169040,
            "time": 528.25,
            "velocity": 0.9606299212598425
          },
          {
            "duration": 0.23749999999995453,
            "durationTicks": 76,
            "midi": 69,
            "name": "A4",
            "ticks": 169120,
            "time": 528.5,
            "velocity": 0.9606299212598425
          },
          {
            "duration": 0.2375000000000682,
            "durationTicks": 76,
            "midi": 67,
            "name": "G4",
            "ticks": 169200,
            "time": 528.75,
            "velocity": 0.9606299212598425
          },
          {
            "duration": 0.23749999999995453,
            "durationTicks": 76,
            "midi": 67,
            "name": "G4",
            "ticks": 169280,
            "time": 529,
            "velocity": 0.9606299212598425
          },
          {
            "duration": 0.23749999999995453,
            "durationTicks": 76,
            "midi": 67,
            "name": "G4",
            "ticks": 169360,
            "time": 529.25,
            "velocity": 0.9606299212598425
          },
          {
            "duration": 0.2375000000000682,
            "durationTicks": 76,
            "midi": 65,
            "name": "F4",
            "ticks": 169440,
            "time": 529.5,
            "velocity": 0.9606299212598425
          },
          {
            "duration": 0.23749999999995453,
            "durationTicks": 76,
            "midi": 65,
            "name": "F4",
            "ticks": 169520,
            "time": 529.75,
            "velocity": 0.9606299212598425
          },
          {
            "duration": 0.23749999999995453,
            "durationTicks": 76,
            "midi": 65,
            "name": "F4",
            "ticks": 169600,
            "time": 530,
            "velocity": 0.9606299212598425
          },
          {
            "duration": 0.2375000000000682,
            "durationTicks": 76,
            "midi": 64,
            "name": "E4",
            "ticks": 169680,
            "time": 530.25,
            "velocity": 0.9606299212598425
          },
          {
            "duration": 0.23749999999995453,
            "durationTicks": 76,
            "midi": 64,
            "name": "E4",
            "ticks": 169760,
            "time": 530.5,
            "velocity": 0.9606299212598425
          },
          {
            "duration": 0.23749999999995453,
            "durationTicks": 76,
            "midi": 64,
            "name": "E4",
            "ticks": 169840,
            "time": 530.75,
            "velocity": 0.9606299212598425
          },
          {
            "duration": 0.18124999999997726,
            "durationTicks": 58,
            "midi": 67,
            "name": "G4",
            "ticks": 169920,
            "time": 531,
            "velocity": 1
          },
          {
            "duration": 0.18124999999997726,
            "durationTicks": 58,
            "midi": 67,
            "name": "G4",
            "ticks": 169980,
            "time": 531.1875,
            "velocity": 1
          },
          {
            "duration": 0.18124999999997726,
            "durationTicks": 58,
            "midi": 67,
            "name": "G4",
            "ticks": 170040,
            "time": 531.375,
            "velocity": 1
          },
          {
            "duration": 0.18124999999997726,
            "durationTicks": 58,
            "midi": 67,
            "name": "G4",
            "ticks": 170100,
            "time": 531.5625,
            "velocity": 1
          },
          {
            "duration": 0.18124999999997726,
            "durationTicks": 58,
            "midi": 67,
            "name": "G4",
            "ticks": 170160,
            "time": 531.75,
            "velocity": 1
          },
          {
            "duration": 0.18124999999997726,
            "durationTicks": 58,
            "midi": 67,
            "name": "G4",
            "ticks": 170220,
            "time": 531.9375,
            "velocity": 1
          },
          {
            "duration": 0.18124999999997726,
            "durationTicks": 58,
            "midi": 67,
            "name": "G4",
            "ticks": 170280,
            "time": 532.125,
            "velocity": 1
          },
          {
            "duration": 0.18124999999997726,
            "durationTicks": 58,
            "midi": 67,
            "name": "G4",
            "ticks": 170340,
            "time": 532.3125,
            "velocity": 1
          },
          {
            "duration": 0.18124999999997726,
            "durationTicks": 58,
            "midi": 67,
            "name": "G4",
            "ticks": 170400,
            "time": 532.5,
            "velocity": 1
          },
          {
            "duration": 0.18124999999997726,
            "durationTicks": 58,
            "midi": 67,
            "name": "G4",
            "ticks": 170460,
            "time": 532.6875,
            "velocity": 1
          },
          {
            "duration": 0.18124999999997726,
            "durationTicks": 58,
            "midi": 67,
            "name": "G4",
            "ticks": 170520,
            "time": 532.875,
            "velocity": 1
          },
          {
            "duration": 0.18124999999997726,
            "durationTicks": 58,
            "midi": 67,
            "name": "G4",
            "ticks": 170580,
            "time": 533.0625,
            "velocity": 1
          },
          {
            "duration": 0.18124999999997726,
            "durationTicks": 58,
            "midi": 67,
            "name": "G4",
            "ticks": 170640,
            "time": 533.25,
            "velocity": 1
          },
          {
            "duration": 0.18124999999997726,
            "durationTicks": 58,
            "midi": 67,
            "name": "G4",
            "ticks": 170700,
            "time": 533.4375,
            "velocity": 1
          },
          {
            "duration": 0.18124999999997726,
            "durationTicks": 58,
            "midi": 67,
            "name": "G4",
            "ticks": 170760,
            "time": 533.625,
            "velocity": 1
          },
          {
            "duration": 0.18124999999997726,
            "durationTicks": 58,
            "midi": 67,
            "name": "G4",
            "ticks": 170820,
            "time": 533.8125,
            "velocity": 1
          },
          {
            "duration": 0.18124999999997726,
            "durationTicks": 58,
            "midi": 65,
            "name": "F4",
            "ticks": 170880,
            "time": 534,
            "velocity": 1
          },
          {
            "duration": 0.18124999999997726,
            "durationTicks": 58,
            "midi": 65,
            "name": "F4",
            "ticks": 170940,
            "time": 534.1875,
            "velocity": 1
          },
          {
            "duration": 0.18124999999997726,
            "durationTicks": 58,
            "midi": 65,
            "name": "F4",
            "ticks": 171000,
            "time": 534.375,
            "velocity": 1
          },
          {
            "duration": 0.18124999999997726,
            "durationTicks": 58,
            "midi": 65,
            "name": "F4",
            "ticks": 171060,
            "time": 534.5625,
            "velocity": 1
          },
          {
            "duration": 0.18124999999997726,
            "durationTicks": 58,
            "midi": 65,
            "name": "F4",
            "ticks": 171120,
            "time": 534.75,
            "velocity": 1
          },
          {
            "duration": 0.18124999999997726,
            "durationTicks": 58,
            "midi": 65,
            "name": "F4",
            "ticks": 171180,
            "time": 534.9375,
            "velocity": 1
          },
          {
            "duration": 0.18124999999997726,
            "durationTicks": 58,
            "midi": 65,
            "name": "F4",
            "ticks": 171240,
            "time": 535.125,
            "velocity": 1
          },
          {
            "duration": 0.18124999999997726,
            "durationTicks": 58,
            "midi": 65,
            "name": "F4",
            "ticks": 171300,
            "time": 535.3125,
            "velocity": 1
          },
          {
            "duration": 0.2375000000000682,
            "durationTicks": 76,
            "midi": 65,
            "name": "F4",
            "ticks": 171840,
            "time": 537,
            "velocity": 0.9606299212598425
          },
          {
            "duration": 0.2375000000000682,
            "durationTicks": 76,
            "midi": 77,
            "name": "F5",
            "ticks": 171840,
            "time": 537,
            "velocity": 0.9606299212598425
          },
          {
            "duration": 0.23749999999995453,
            "durationTicks": 76,
            "midi": 65,
            "name": "F4",
            "ticks": 171920,
            "time": 537.25,
            "velocity": 0.9606299212598425
          },
          {
            "duration": 0.23749999999995453,
            "durationTicks": 76,
            "midi": 77,
            "name": "F5",
            "ticks": 171920,
            "time": 537.25,
            "velocity": 0.9606299212598425
          },
          {
            "duration": 0.23749999999995453,
            "durationTicks": 76,
            "midi": 65,
            "name": "F4",
            "ticks": 172000,
            "time": 537.5,
            "velocity": 0.9606299212598425
          },
          {
            "duration": 0.23749999999995453,
            "durationTicks": 76,
            "midi": 77,
            "name": "F5",
            "ticks": 172000,
            "time": 537.5,
            "velocity": 0.9606299212598425
          },
          {
            "duration": 0.2375000000000682,
            "durationTicks": 76,
            "midi": 64,
            "name": "E4",
            "ticks": 172080,
            "time": 537.75,
            "velocity": 0.9606299212598425
          },
          {
            "duration": 0.2375000000000682,
            "durationTicks": 76,
            "midi": 76,
            "name": "E5",
            "ticks": 172080,
            "time": 537.75,
            "velocity": 0.9606299212598425
          },
          {
            "duration": 0.23749999999995453,
            "durationTicks": 76,
            "midi": 64,
            "name": "E4",
            "ticks": 172160,
            "time": 538,
            "velocity": 0.9606299212598425
          },
          {
            "duration": 0.23749999999995453,
            "durationTicks": 76,
            "midi": 76,
            "name": "E5",
            "ticks": 172160,
            "time": 538,
            "velocity": 0.9606299212598425
          },
          {
            "duration": 0.23749999999995453,
            "durationTicks": 76,
            "midi": 64,
            "name": "E4",
            "ticks": 172240,
            "time": 538.25,
            "velocity": 0.9606299212598425
          },
          {
            "duration": 0.23749999999995453,
            "durationTicks": 76,
            "midi": 76,
            "name": "E5",
            "ticks": 172240,
            "time": 538.25,
            "velocity": 0.9606299212598425
          },
          {
            "duration": 0.2375000000000682,
            "durationTicks": 76,
            "midi": 62,
            "name": "D4",
            "ticks": 172320,
            "time": 538.5,
            "velocity": 0.9606299212598425
          },
          {
            "duration": 0.2375000000000682,
            "durationTicks": 76,
            "midi": 74,
            "name": "D5",
            "ticks": 172320,
            "time": 538.5,
            "velocity": 0.9606299212598425
          },
          {
            "duration": 0.23749999999995453,
            "durationTicks": 76,
            "midi": 62,
            "name": "D4",
            "ticks": 172400,
            "time": 538.75,
            "velocity": 0.9606299212598425
          },
          {
            "duration": 0.23749999999995453,
            "durationTicks": 76,
            "midi": 74,
            "name": "D5",
            "ticks": 172400,
            "time": 538.75,
            "velocity": 0.9606299212598425
          },
          {
            "duration": 0.23749999999995453,
            "durationTicks": 76,
            "midi": 62,
            "name": "D4",
            "ticks": 172480,
            "time": 539,
            "velocity": 0.9606299212598425
          },
          {
            "duration": 0.23749999999995453,
            "durationTicks": 76,
            "midi": 74,
            "name": "D5",
            "ticks": 172480,
            "time": 539,
            "velocity": 0.9606299212598425
          },
          {
            "duration": 0.2375000000000682,
            "durationTicks": 76,
            "midi": 61,
            "name": "C#4",
            "ticks": 172560,
            "time": 539.25,
            "velocity": 0.9606299212598425
          },
          {
            "duration": 0.2375000000000682,
            "durationTicks": 76,
            "midi": 73,
            "name": "C#5",
            "ticks": 172560,
            "time": 539.25,
            "velocity": 0.9606299212598425
          },
          {
            "duration": 0.23749999999995453,
            "durationTicks": 76,
            "midi": 61,
            "name": "C#4",
            "ticks": 172640,
            "time": 539.5,
            "velocity": 0.9606299212598425
          },
          {
            "duration": 0.23749999999995453,
            "durationTicks": 76,
            "midi": 73,
            "name": "C#5",
            "ticks": 172640,
            "time": 539.5,
            "velocity": 0.9606299212598425
          },
          {
            "duration": 0.23749999999995453,
            "durationTicks": 76,
            "midi": 61,
            "name": "C#4",
            "ticks": 172720,
            "time": 539.75,
            "velocity": 0.9606299212598425
          },
          {
            "duration": 0.23749999999995453,
            "durationTicks": 76,
            "midi": 73,
            "name": "C#5",
            "ticks": 172720,
            "time": 539.75,
            "velocity": 0.9606299212598425
          },
          {
            "duration": 0.18124999999997726,
            "durationTicks": 58,
            "midi": 64,
            "name": "E4",
            "ticks": 172800,
            "time": 540,
            "velocity": 1
          },
          {
            "duration": 0.18124999999997726,
            "durationTicks": 58,
            "midi": 64,
            "name": "E4",
            "ticks": 172860,
            "time": 540.1875,
            "velocity": 1
          },
          {
            "duration": 0.18124999999997726,
            "durationTicks": 58,
            "midi": 64,
            "name": "E4",
            "ticks": 172920,
            "time": 540.375,
            "velocity": 1
          },
          {
            "duration": 0.18124999999997726,
            "durationTicks": 58,
            "midi": 64,
            "name": "E4",
            "ticks": 172980,
            "time": 540.5625,
            "velocity": 1
          },
          {
            "duration": 0.18124999999997726,
            "durationTicks": 58,
            "midi": 64,
            "name": "E4",
            "ticks": 173040,
            "time": 540.75,
            "velocity": 1
          },
          {
            "duration": 0.18124999999997726,
            "durationTicks": 58,
            "midi": 64,
            "name": "E4",
            "ticks": 173100,
            "time": 540.9375,
            "velocity": 1
          },
          {
            "duration": 0.18124999999997726,
            "durationTicks": 58,
            "midi": 64,
            "name": "E4",
            "ticks": 173160,
            "time": 541.125,
            "velocity": 1
          },
          {
            "duration": 0.18124999999997726,
            "durationTicks": 58,
            "midi": 64,
            "name": "E4",
            "ticks": 173220,
            "time": 541.3125,
            "velocity": 1
          },
          {
            "duration": 0.18124999999997726,
            "durationTicks": 58,
            "midi": 64,
            "name": "E4",
            "ticks": 173280,
            "time": 541.5,
            "velocity": 1
          },
          {
            "duration": 0.18124999999997726,
            "durationTicks": 58,
            "midi": 64,
            "name": "E4",
            "ticks": 173340,
            "time": 541.6875,
            "velocity": 1
          },
          {
            "duration": 0.18124999999997726,
            "durationTicks": 58,
            "midi": 64,
            "name": "E4",
            "ticks": 173400,
            "time": 541.875,
            "velocity": 1
          },
          {
            "duration": 0.18124999999997726,
            "durationTicks": 58,
            "midi": 64,
            "name": "E4",
            "ticks": 173460,
            "time": 542.0625,
            "velocity": 1
          },
          {
            "duration": 0.18124999999997726,
            "durationTicks": 58,
            "midi": 64,
            "name": "E4",
            "ticks": 173520,
            "time": 542.25,
            "velocity": 1
          },
          {
            "duration": 0.18124999999997726,
            "durationTicks": 58,
            "midi": 64,
            "name": "E4",
            "ticks": 173580,
            "time": 542.4375,
            "velocity": 1
          },
          {
            "duration": 0.18124999999997726,
            "durationTicks": 58,
            "midi": 64,
            "name": "E4",
            "ticks": 173640,
            "time": 542.625,
            "velocity": 1
          },
          {
            "duration": 0.18124999999997726,
            "durationTicks": 58,
            "midi": 64,
            "name": "E4",
            "ticks": 173700,
            "time": 542.8125,
            "velocity": 1
          },
          {
            "duration": 0.18124999999997726,
            "durationTicks": 58,
            "midi": 62,
            "name": "D4",
            "ticks": 173760,
            "time": 543,
            "velocity": 1
          },
          {
            "duration": 0.18124999999997726,
            "durationTicks": 58,
            "midi": 62,
            "name": "D4",
            "ticks": 173820,
            "time": 543.1875,
            "velocity": 1
          },
          {
            "duration": 0.18124999999997726,
            "durationTicks": 58,
            "midi": 62,
            "name": "D4",
            "ticks": 173880,
            "time": 543.375,
            "velocity": 1
          },
          {
            "duration": 0.18124999999997726,
            "durationTicks": 58,
            "midi": 62,
            "name": "D4",
            "ticks": 173940,
            "time": 543.5625,
            "velocity": 1
          },
          {
            "duration": 0.18124999999997726,
            "durationTicks": 58,
            "midi": 62,
            "name": "D4",
            "ticks": 174000,
            "time": 543.75,
            "velocity": 1
          },
          {
            "duration": 0.18124999999997726,
            "durationTicks": 58,
            "midi": 62,
            "name": "D4",
            "ticks": 174060,
            "time": 543.9375,
            "velocity": 1
          },
          {
            "duration": 0.18124999999997726,
            "durationTicks": 58,
            "midi": 62,
            "name": "D4",
            "ticks": 174120,
            "time": 544.125,
            "velocity": 1
          },
          {
            "duration": 0.18124999999997726,
            "durationTicks": 58,
            "midi": 62,
            "name": "D4",
            "ticks": 174180,
            "time": 544.3125,
            "velocity": 1
          },
          {
            "duration": 0.2375000000000682,
            "durationTicks": 76,
            "midi": 62,
            "name": "D4",
            "ticks": 174720,
            "time": 546,
            "velocity": 0.9606299212598425
          },
          {
            "duration": 0.2375000000000682,
            "durationTicks": 76,
            "midi": 74,
            "name": "D5",
            "ticks": 174720,
            "time": 546,
            "velocity": 0.9606299212598425
          },
          {
            "duration": 0.23749999999995453,
            "durationTicks": 76,
            "midi": 62,
            "name": "D4",
            "ticks": 174800,
            "time": 546.25,
            "velocity": 0.9606299212598425
          },
          {
            "duration": 0.23749999999995453,
            "durationTicks": 76,
            "midi": 74,
            "name": "D5",
            "ticks": 174800,
            "time": 546.25,
            "velocity": 0.9606299212598425
          },
          {
            "duration": 0.23749999999995453,
            "durationTicks": 76,
            "midi": 62,
            "name": "D4",
            "ticks": 174880,
            "time": 546.5,
            "velocity": 0.9606299212598425
          },
          {
            "duration": 0.23749999999995453,
            "durationTicks": 76,
            "midi": 74,
            "name": "D5",
            "ticks": 174880,
            "time": 546.5,
            "velocity": 0.9606299212598425
          },
          {
            "duration": 0.2375000000000682,
            "durationTicks": 76,
            "midi": 61,
            "name": "C#4",
            "ticks": 174960,
            "time": 546.75,
            "velocity": 0.9606299212598425
          },
          {
            "duration": 0.2375000000000682,
            "durationTicks": 76,
            "midi": 73,
            "name": "C#5",
            "ticks": 174960,
            "time": 546.75,
            "velocity": 0.9606299212598425
          },
          {
            "duration": 0.23749999999995453,
            "durationTicks": 76,
            "midi": 61,
            "name": "C#4",
            "ticks": 175040,
            "time": 547,
            "velocity": 0.9606299212598425
          },
          {
            "duration": 0.23749999999995453,
            "durationTicks": 76,
            "midi": 73,
            "name": "C#5",
            "ticks": 175040,
            "time": 547,
            "velocity": 0.9606299212598425
          },
          {
            "duration": 0.23749999999995453,
            "durationTicks": 76,
            "midi": 61,
            "name": "C#4",
            "ticks": 175120,
            "time": 547.25,
            "velocity": 0.9606299212598425
          },
          {
            "duration": 0.23749999999995453,
            "durationTicks": 76,
            "midi": 73,
            "name": "C#5",
            "ticks": 175120,
            "time": 547.25,
            "velocity": 0.9606299212598425
          },
          {
            "duration": 0.2375000000000682,
            "durationTicks": 76,
            "midi": 59,
            "name": "B3",
            "ticks": 175200,
            "time": 547.5,
            "velocity": 0.9606299212598425
          },
          {
            "duration": 0.2375000000000682,
            "durationTicks": 76,
            "midi": 71,
            "name": "B4",
            "ticks": 175200,
            "time": 547.5,
            "velocity": 0.9606299212598425
          },
          {
            "duration": 0.23749999999995453,
            "durationTicks": 76,
            "midi": 59,
            "name": "B3",
            "ticks": 175280,
            "time": 547.75,
            "velocity": 0.9606299212598425
          },
          {
            "duration": 0.23749999999995453,
            "durationTicks": 76,
            "midi": 71,
            "name": "B4",
            "ticks": 175280,
            "time": 547.75,
            "velocity": 0.9606299212598425
          },
          {
            "duration": 0.23749999999995453,
            "durationTicks": 76,
            "midi": 59,
            "name": "B3",
            "ticks": 175360,
            "time": 548,
            "velocity": 0.9606299212598425
          },
          {
            "duration": 0.23749999999995453,
            "durationTicks": 76,
            "midi": 71,
            "name": "B4",
            "ticks": 175360,
            "time": 548,
            "velocity": 0.9606299212598425
          },
          {
            "duration": 0.2375000000000682,
            "durationTicks": 76,
            "midi": 58,
            "name": "A#3",
            "ticks": 175440,
            "time": 548.25,
            "velocity": 0.9606299212598425
          },
          {
            "duration": 0.2375000000000682,
            "durationTicks": 76,
            "midi": 70,
            "name": "A#4",
            "ticks": 175440,
            "time": 548.25,
            "velocity": 0.9606299212598425
          },
          {
            "duration": 0.23749999999995453,
            "durationTicks": 76,
            "midi": 58,
            "name": "A#3",
            "ticks": 175520,
            "time": 548.5,
            "velocity": 0.9606299212598425
          },
          {
            "duration": 0.23749999999995453,
            "durationTicks": 76,
            "midi": 70,
            "name": "A#4",
            "ticks": 175520,
            "time": 548.5,
            "velocity": 0.9606299212598425
          },
          {
            "duration": 0.23749999999995453,
            "durationTicks": 76,
            "midi": 58,
            "name": "A#3",
            "ticks": 175600,
            "time": 548.75,
            "velocity": 0.9606299212598425
          },
          {
            "duration": 0.23749999999995453,
            "durationTicks": 76,
            "midi": 70,
            "name": "A#4",
            "ticks": 175600,
            "time": 548.75,
            "velocity": 0.9606299212598425
          },
          {
            "duration": 0.18124999999997726,
            "durationTicks": 58,
            "midi": 61,
            "name": "C#4",
            "ticks": 175680,
            "time": 549,
            "velocity": 1
          },
          {
            "duration": 0.18124999999997726,
            "durationTicks": 58,
            "midi": 61,
            "name": "C#4",
            "ticks": 175740,
            "time": 549.1875,
            "velocity": 1
          },
          {
            "duration": 0.18124999999997726,
            "durationTicks": 58,
            "midi": 61,
            "name": "C#4",
            "ticks": 175800,
            "time": 549.375,
            "velocity": 1
          },
          {
            "duration": 0.18124999999997726,
            "durationTicks": 58,
            "midi": 61,
            "name": "C#4",
            "ticks": 175860,
            "time": 549.5625,
            "velocity": 1
          },
          {
            "duration": 0.18124999999997726,
            "durationTicks": 58,
            "midi": 61,
            "name": "C#4",
            "ticks": 175920,
            "time": 549.75,
            "velocity": 1
          },
          {
            "duration": 0.18124999999997726,
            "durationTicks": 58,
            "midi": 61,
            "name": "C#4",
            "ticks": 175980,
            "time": 549.9375,
            "velocity": 1
          },
          {
            "duration": 0.18124999999997726,
            "durationTicks": 58,
            "midi": 61,
            "name": "C#4",
            "ticks": 176040,
            "time": 550.125,
            "velocity": 1
          },
          {
            "duration": 0.18124999999997726,
            "durationTicks": 58,
            "midi": 61,
            "name": "C#4",
            "ticks": 176100,
            "time": 550.3125,
            "velocity": 1
          },
          {
            "duration": 0.18124999999997726,
            "durationTicks": 58,
            "midi": 61,
            "name": "C#4",
            "ticks": 176160,
            "time": 550.5,
            "velocity": 1
          },
          {
            "duration": 0.18124999999997726,
            "durationTicks": 58,
            "midi": 61,
            "name": "C#4",
            "ticks": 176220,
            "time": 550.6875,
            "velocity": 1
          },
          {
            "duration": 0.18124999999997726,
            "durationTicks": 58,
            "midi": 61,
            "name": "C#4",
            "ticks": 176280,
            "time": 550.875,
            "velocity": 1
          },
          {
            "duration": 0.18124999999997726,
            "durationTicks": 58,
            "midi": 61,
            "name": "C#4",
            "ticks": 176340,
            "time": 551.0625,
            "velocity": 1
          },
          {
            "duration": 0.18124999999997726,
            "durationTicks": 58,
            "midi": 61,
            "name": "C#4",
            "ticks": 176400,
            "time": 551.25,
            "velocity": 1
          },
          {
            "duration": 0.18124999999997726,
            "durationTicks": 58,
            "midi": 61,
            "name": "C#4",
            "ticks": 176460,
            "time": 551.4375,
            "velocity": 1
          },
          {
            "duration": 0.18124999999997726,
            "durationTicks": 58,
            "midi": 61,
            "name": "C#4",
            "ticks": 176520,
            "time": 551.625,
            "velocity": 1
          },
          {
            "duration": 0.18124999999997726,
            "durationTicks": 58,
            "midi": 61,
            "name": "C#4",
            "ticks": 176580,
            "time": 551.8125,
            "velocity": 1
          },
          {
            "duration": 0.18124999999997726,
            "durationTicks": 58,
            "midi": 59,
            "name": "B3",
            "ticks": 176640,
            "time": 552,
            "velocity": 1
          },
          {
            "duration": 0.18124999999997726,
            "durationTicks": 58,
            "midi": 59,
            "name": "B3",
            "ticks": 176700,
            "time": 552.1875,
            "velocity": 1
          },
          {
            "duration": 0.18124999999997726,
            "durationTicks": 58,
            "midi": 59,
            "name": "B3",
            "ticks": 176760,
            "time": 552.375,
            "velocity": 1
          },
          {
            "duration": 0.18124999999997726,
            "durationTicks": 58,
            "midi": 59,
            "name": "B3",
            "ticks": 176820,
            "time": 552.5625,
            "velocity": 1
          },
          {
            "duration": 0.18124999999997726,
            "durationTicks": 58,
            "midi": 59,
            "name": "B3",
            "ticks": 176880,
            "time": 552.75,
            "velocity": 1
          },
          {
            "duration": 0.18124999999997726,
            "durationTicks": 58,
            "midi": 59,
            "name": "B3",
            "ticks": 176940,
            "time": 552.9375,
            "velocity": 1
          },
          {
            "duration": 0.18124999999997726,
            "durationTicks": 58,
            "midi": 59,
            "name": "B3",
            "ticks": 177000,
            "time": 553.125,
            "velocity": 1
          },
          {
            "duration": 0.18124999999997726,
            "durationTicks": 58,
            "midi": 59,
            "name": "B3",
            "ticks": 177060,
            "time": 553.3125,
            "velocity": 1
          },
          {
            "duration": 0.2375000000000682,
            "durationTicks": 76,
            "midi": 59,
            "name": "B3",
            "ticks": 177600,
            "time": 555,
            "velocity": 0.9606299212598425
          },
          {
            "duration": 0.2375000000000682,
            "durationTicks": 76,
            "midi": 71,
            "name": "B4",
            "ticks": 177600,
            "time": 555,
            "velocity": 0.9606299212598425
          },
          {
            "duration": 0.23749999999995453,
            "durationTicks": 76,
            "midi": 59,
            "name": "B3",
            "ticks": 177680,
            "time": 555.25,
            "velocity": 0.9606299212598425
          },
          {
            "duration": 0.23749999999995453,
            "durationTicks": 76,
            "midi": 71,
            "name": "B4",
            "ticks": 177680,
            "time": 555.25,
            "velocity": 0.9606299212598425
          },
          {
            "duration": 0.23749999999995453,
            "durationTicks": 76,
            "midi": 59,
            "name": "B3",
            "ticks": 177760,
            "time": 555.5,
            "velocity": 0.9606299212598425
          },
          {
            "duration": 0.23749999999995453,
            "durationTicks": 76,
            "midi": 71,
            "name": "B4",
            "ticks": 177760,
            "time": 555.5,
            "velocity": 0.9606299212598425
          },
          {
            "duration": 0.2375000000000682,
            "durationTicks": 76,
            "midi": 57,
            "name": "A3",
            "ticks": 177840,
            "time": 555.75,
            "velocity": 0.9606299212598425
          },
          {
            "duration": 0.2375000000000682,
            "durationTicks": 76,
            "midi": 69,
            "name": "A4",
            "ticks": 177840,
            "time": 555.75,
            "velocity": 0.9606299212598425
          },
          {
            "duration": 0.23749999999995453,
            "durationTicks": 76,
            "midi": 57,
            "name": "A3",
            "ticks": 177920,
            "time": 556,
            "velocity": 0.9606299212598425
          },
          {
            "duration": 0.23749999999995453,
            "durationTicks": 76,
            "midi": 69,
            "name": "A4",
            "ticks": 177920,
            "time": 556,
            "velocity": 0.9606299212598425
          },
          {
            "duration": 0.23749999999995453,
            "durationTicks": 76,
            "midi": 57,
            "name": "A3",
            "ticks": 178000,
            "time": 556.25,
            "velocity": 0.9606299212598425
          },
          {
            "duration": 0.23749999999995453,
            "durationTicks": 76,
            "midi": 69,
            "name": "A4",
            "ticks": 178000,
            "time": 556.25,
            "velocity": 0.9606299212598425
          },
          {
            "duration": 0.2375000000000682,
            "durationTicks": 76,
            "midi": 55,
            "name": "G3",
            "ticks": 178080,
            "time": 556.5,
            "velocity": 0.9606299212598425
          },
          {
            "duration": 0.2375000000000682,
            "durationTicks": 76,
            "midi": 67,
            "name": "G4",
            "ticks": 178080,
            "time": 556.5,
            "velocity": 0.9606299212598425
          },
          {
            "duration": 0.23749999999995453,
            "durationTicks": 76,
            "midi": 55,
            "name": "G3",
            "ticks": 178160,
            "time": 556.75,
            "velocity": 0.9606299212598425
          },
          {
            "duration": 0.23749999999995453,
            "durationTicks": 76,
            "midi": 67,
            "name": "G4",
            "ticks": 178160,
            "time": 556.75,
            "velocity": 0.9606299212598425
          },
          {
            "duration": 0.23749999999995453,
            "durationTicks": 76,
            "midi": 55,
            "name": "G3",
            "ticks": 178240,
            "time": 557,
            "velocity": 0.9606299212598425
          },
          {
            "duration": 0.23749999999995453,
            "durationTicks": 76,
            "midi": 67,
            "name": "G4",
            "ticks": 178240,
            "time": 557,
            "velocity": 0.9606299212598425
          },
          {
            "duration": 0.2375000000000682,
            "durationTicks": 76,
            "midi": 54,
            "name": "F#3",
            "ticks": 178320,
            "time": 557.25,
            "velocity": 0.9606299212598425
          },
          {
            "duration": 0.2375000000000682,
            "durationTicks": 76,
            "midi": 66,
            "name": "F#4",
            "ticks": 178320,
            "time": 557.25,
            "velocity": 0.9606299212598425
          },
          {
            "duration": 0.23749999999995453,
            "durationTicks": 76,
            "midi": 54,
            "name": "F#3",
            "ticks": 178400,
            "time": 557.5,
            "velocity": 0.9606299212598425
          },
          {
            "duration": 0.23749999999995453,
            "durationTicks": 76,
            "midi": 66,
            "name": "F#4",
            "ticks": 178400,
            "time": 557.5,
            "velocity": 0.9606299212598425
          },
          {
            "duration": 0.23749999999995453,
            "durationTicks": 76,
            "midi": 54,
            "name": "F#3",
            "ticks": 178480,
            "time": 557.75,
            "velocity": 0.9606299212598425
          },
          {
            "duration": 0.23749999999995453,
            "durationTicks": 76,
            "midi": 66,
            "name": "F#4",
            "ticks": 178480,
            "time": 557.75,
            "velocity": 0.9606299212598425
          },
          {
            "duration": 0.18124999999997726,
            "durationTicks": 58,
            "midi": 57,
            "name": "A3",
            "ticks": 178560,
            "time": 558,
            "velocity": 1
          },
          {
            "duration": 0.18124999999997726,
            "durationTicks": 58,
            "midi": 69,
            "name": "A4",
            "ticks": 178560,
            "time": 558,
            "velocity": 1
          },
          {
            "duration": 0.18124999999997726,
            "durationTicks": 58,
            "midi": 57,
            "name": "A3",
            "ticks": 178620,
            "time": 558.1875,
            "velocity": 1
          },
          {
            "duration": 0.18124999999997726,
            "durationTicks": 58,
            "midi": 69,
            "name": "A4",
            "ticks": 178620,
            "time": 558.1875,
            "velocity": 1
          },
          {
            "duration": 0.18124999999997726,
            "durationTicks": 58,
            "midi": 57,
            "name": "A3",
            "ticks": 178680,
            "time": 558.375,
            "velocity": 1
          },
          {
            "duration": 0.18124999999997726,
            "durationTicks": 58,
            "midi": 69,
            "name": "A4",
            "ticks": 178680,
            "time": 558.375,
            "velocity": 1
          },
          {
            "duration": 0.18124999999997726,
            "durationTicks": 58,
            "midi": 57,
            "name": "A3",
            "ticks": 178740,
            "time": 558.5625,
            "velocity": 1
          },
          {
            "duration": 0.18124999999997726,
            "durationTicks": 58,
            "midi": 69,
            "name": "A4",
            "ticks": 178740,
            "time": 558.5625,
            "velocity": 1
          },
          {
            "duration": 0.18124999999997726,
            "durationTicks": 58,
            "midi": 57,
            "name": "A3",
            "ticks": 178800,
            "time": 558.75,
            "velocity": 1
          },
          {
            "duration": 0.18124999999997726,
            "durationTicks": 58,
            "midi": 69,
            "name": "A4",
            "ticks": 178800,
            "time": 558.75,
            "velocity": 1
          },
          {
            "duration": 0.18124999999997726,
            "durationTicks": 58,
            "midi": 57,
            "name": "A3",
            "ticks": 178860,
            "time": 558.9375,
            "velocity": 1
          },
          {
            "duration": 0.18124999999997726,
            "durationTicks": 58,
            "midi": 69,
            "name": "A4",
            "ticks": 178860,
            "time": 558.9375,
            "velocity": 1
          },
          {
            "duration": 0.18124999999997726,
            "durationTicks": 58,
            "midi": 57,
            "name": "A3",
            "ticks": 178920,
            "time": 559.125,
            "velocity": 1
          },
          {
            "duration": 0.18124999999997726,
            "durationTicks": 58,
            "midi": 69,
            "name": "A4",
            "ticks": 178920,
            "time": 559.125,
            "velocity": 1
          },
          {
            "duration": 0.18124999999997726,
            "durationTicks": 58,
            "midi": 57,
            "name": "A3",
            "ticks": 178980,
            "time": 559.3125,
            "velocity": 1
          },
          {
            "duration": 0.18124999999997726,
            "durationTicks": 58,
            "midi": 69,
            "name": "A4",
            "ticks": 178980,
            "time": 559.3125,
            "velocity": 1
          },
          {
            "duration": 0.18124999999997726,
            "durationTicks": 58,
            "midi": 57,
            "name": "A3",
            "ticks": 179040,
            "time": 559.5,
            "velocity": 1
          },
          {
            "duration": 0.18124999999997726,
            "durationTicks": 58,
            "midi": 69,
            "name": "A4",
            "ticks": 179040,
            "time": 559.5,
            "velocity": 1
          },
          {
            "duration": 0.18124999999997726,
            "durationTicks": 58,
            "midi": 57,
            "name": "A3",
            "ticks": 179100,
            "time": 559.6875,
            "velocity": 1
          },
          {
            "duration": 0.18124999999997726,
            "durationTicks": 58,
            "midi": 69,
            "name": "A4",
            "ticks": 179100,
            "time": 559.6875,
            "velocity": 1
          },
          {
            "duration": 0.18124999999997726,
            "durationTicks": 58,
            "midi": 57,
            "name": "A3",
            "ticks": 179160,
            "time": 559.875,
            "velocity": 1
          },
          {
            "duration": 0.18124999999997726,
            "durationTicks": 58,
            "midi": 69,
            "name": "A4",
            "ticks": 179160,
            "time": 559.875,
            "velocity": 1
          },
          {
            "duration": 0.18124999999997726,
            "durationTicks": 58,
            "midi": 57,
            "name": "A3",
            "ticks": 179220,
            "time": 560.0625,
            "velocity": 1
          },
          {
            "duration": 0.18124999999997726,
            "durationTicks": 58,
            "midi": 69,
            "name": "A4",
            "ticks": 179220,
            "time": 560.0625,
            "velocity": 1
          },
          {
            "duration": 0.18124999999997726,
            "durationTicks": 58,
            "midi": 57,
            "name": "A3",
            "ticks": 179280,
            "time": 560.25,
            "velocity": 1
          },
          {
            "duration": 0.18124999999997726,
            "durationTicks": 58,
            "midi": 69,
            "name": "A4",
            "ticks": 179280,
            "time": 560.25,
            "velocity": 1
          },
          {
            "duration": 0.18124999999997726,
            "durationTicks": 58,
            "midi": 57,
            "name": "A3",
            "ticks": 179340,
            "time": 560.4375,
            "velocity": 1
          },
          {
            "duration": 0.18124999999997726,
            "durationTicks": 58,
            "midi": 69,
            "name": "A4",
            "ticks": 179340,
            "time": 560.4375,
            "velocity": 1
          },
          {
            "duration": 0.18124999999997726,
            "durationTicks": 58,
            "midi": 57,
            "name": "A3",
            "ticks": 179400,
            "time": 560.625,
            "velocity": 1
          },
          {
            "duration": 0.18124999999997726,
            "durationTicks": 58,
            "midi": 69,
            "name": "A4",
            "ticks": 179400,
            "time": 560.625,
            "velocity": 1
          },
          {
            "duration": 0.18124999999997726,
            "durationTicks": 58,
            "midi": 57,
            "name": "A3",
            "ticks": 179460,
            "time": 560.8125,
            "velocity": 1
          },
          {
            "duration": 0.18124999999997726,
            "durationTicks": 58,
            "midi": 69,
            "name": "A4",
            "ticks": 179460,
            "time": 560.8125,
            "velocity": 1
          },
          {
            "duration": 0.2375000000000682,
            "durationTicks": 76,
            "midi": 55,
            "name": "G3",
            "ticks": 179520,
            "time": 561,
            "velocity": 0.9606299212598425
          },
          {
            "duration": 0.2375000000000682,
            "durationTicks": 76,
            "midi": 67,
            "name": "G4",
            "ticks": 179520,
            "time": 561,
            "velocity": 0.9606299212598425
          },
          {
            "duration": 0.23749999999995453,
            "durationTicks": 76,
            "midi": 55,
            "name": "G3",
            "ticks": 179600,
            "time": 561.25,
            "velocity": 0.9606299212598425
          },
          {
            "duration": 0.23749999999995453,
            "durationTicks": 76,
            "midi": 67,
            "name": "G4",
            "ticks": 179600,
            "time": 561.25,
            "velocity": 0.9606299212598425
          },
          {
            "duration": 0.23749999999995453,
            "durationTicks": 76,
            "midi": 55,
            "name": "G3",
            "ticks": 179680,
            "time": 561.5,
            "velocity": 0.9606299212598425
          },
          {
            "duration": 0.23749999999995453,
            "durationTicks": 76,
            "midi": 67,
            "name": "G4",
            "ticks": 179680,
            "time": 561.5,
            "velocity": 0.9606299212598425
          },
          {
            "duration": 0.2375000000000682,
            "durationTicks": 76,
            "midi": 54,
            "name": "F#3",
            "ticks": 179760,
            "time": 561.75,
            "velocity": 0.9606299212598425
          },
          {
            "duration": 0.2375000000000682,
            "durationTicks": 76,
            "midi": 66,
            "name": "F#4",
            "ticks": 179760,
            "time": 561.75,
            "velocity": 0.9606299212598425
          },
          {
            "duration": 0.23749999999995453,
            "durationTicks": 76,
            "midi": 54,
            "name": "F#3",
            "ticks": 179840,
            "time": 562,
            "velocity": 0.9606299212598425
          },
          {
            "duration": 0.23749999999995453,
            "durationTicks": 76,
            "midi": 66,
            "name": "F#4",
            "ticks": 179840,
            "time": 562,
            "velocity": 0.9606299212598425
          },
          {
            "duration": 0.23749999999995453,
            "durationTicks": 76,
            "midi": 54,
            "name": "F#3",
            "ticks": 179920,
            "time": 562.25,
            "velocity": 0.9606299212598425
          },
          {
            "duration": 0.23749999999995453,
            "durationTicks": 76,
            "midi": 66,
            "name": "F#4",
            "ticks": 179920,
            "time": 562.25,
            "velocity": 0.9606299212598425
          },
          {
            "duration": 0.2375000000000682,
            "durationTicks": 76,
            "midi": 52,
            "name": "E3",
            "ticks": 180000,
            "time": 562.5,
            "velocity": 0.9606299212598425
          },
          {
            "duration": 0.2375000000000682,
            "durationTicks": 76,
            "midi": 64,
            "name": "E4",
            "ticks": 180000,
            "time": 562.5,
            "velocity": 0.9606299212598425
          },
          {
            "duration": 0.23749999999995453,
            "durationTicks": 76,
            "midi": 52,
            "name": "E3",
            "ticks": 180080,
            "time": 562.75,
            "velocity": 0.9606299212598425
          },
          {
            "duration": 0.23749999999995453,
            "durationTicks": 76,
            "midi": 64,
            "name": "E4",
            "ticks": 180080,
            "time": 562.75,
            "velocity": 0.9606299212598425
          },
          {
            "duration": 0.23749999999995453,
            "durationTicks": 76,
            "midi": 52,
            "name": "E3",
            "ticks": 180160,
            "time": 563,
            "velocity": 0.9606299212598425
          },
          {
            "duration": 0.23749999999995453,
            "durationTicks": 76,
            "midi": 64,
            "name": "E4",
            "ticks": 180160,
            "time": 563,
            "velocity": 0.9606299212598425
          },
          {
            "duration": 0.2375000000000682,
            "durationTicks": 76,
            "midi": 50,
            "name": "D3",
            "ticks": 180240,
            "time": 563.25,
            "velocity": 0.9606299212598425
          },
          {
            "duration": 0.2375000000000682,
            "durationTicks": 76,
            "midi": 62,
            "name": "D4",
            "ticks": 180240,
            "time": 563.25,
            "velocity": 0.9606299212598425
          },
          {
            "duration": 0.23749999999995453,
            "durationTicks": 76,
            "midi": 50,
            "name": "D3",
            "ticks": 180320,
            "time": 563.5,
            "velocity": 0.9606299212598425
          },
          {
            "duration": 0.23749999999995453,
            "durationTicks": 76,
            "midi": 62,
            "name": "D4",
            "ticks": 180320,
            "time": 563.5,
            "velocity": 0.9606299212598425
          },
          {
            "duration": 0.23749999999995453,
            "durationTicks": 76,
            "midi": 50,
            "name": "D3",
            "ticks": 180400,
            "time": 563.75,
            "velocity": 0.9606299212598425
          },
          {
            "duration": 0.23749999999995453,
            "durationTicks": 76,
            "midi": 62,
            "name": "D4",
            "ticks": 180400,
            "time": 563.75,
            "velocity": 0.9606299212598425
          },
          {
            "duration": 0.2375000000000682,
            "durationTicks": 76,
            "midi": 49,
            "name": "C#3",
            "ticks": 180480,
            "time": 564,
            "velocity": 0.9606299212598425
          },
          {
            "duration": 0.2375000000000682,
            "durationTicks": 76,
            "midi": 61,
            "name": "C#4",
            "ticks": 180480,
            "time": 564,
            "velocity": 0.9606299212598425
          },
          {
            "duration": 0.23749999999995453,
            "durationTicks": 76,
            "midi": 49,
            "name": "C#3",
            "ticks": 180560,
            "time": 564.25,
            "velocity": 0.9606299212598425
          },
          {
            "duration": 0.23749999999995453,
            "durationTicks": 76,
            "midi": 61,
            "name": "C#4",
            "ticks": 180560,
            "time": 564.25,
            "velocity": 0.9606299212598425
          },
          {
            "duration": 0.23749999999995453,
            "durationTicks": 76,
            "midi": 49,
            "name": "C#3",
            "ticks": 180640,
            "time": 564.5,
            "velocity": 0.9606299212598425
          },
          {
            "duration": 0.23749999999995453,
            "durationTicks": 76,
            "midi": 61,
            "name": "C#4",
            "ticks": 180640,
            "time": 564.5,
            "velocity": 0.9606299212598425
          },
          {
            "duration": 0.2375000000000682,
            "durationTicks": 76,
            "midi": 50,
            "name": "D3",
            "ticks": 180720,
            "time": 564.75,
            "velocity": 0.9606299212598425
          },
          {
            "duration": 0.2375000000000682,
            "durationTicks": 76,
            "midi": 62,
            "name": "D4",
            "ticks": 180720,
            "time": 564.75,
            "velocity": 0.9606299212598425
          },
          {
            "duration": 0.23749999999995453,
            "durationTicks": 76,
            "midi": 50,
            "name": "D3",
            "ticks": 180800,
            "time": 565,
            "velocity": 0.9606299212598425
          },
          {
            "duration": 0.23749999999995453,
            "durationTicks": 76,
            "midi": 62,
            "name": "D4",
            "ticks": 180800,
            "time": 565,
            "velocity": 0.9606299212598425
          },
          {
            "duration": 0.23749999999995453,
            "durationTicks": 76,
            "midi": 50,
            "name": "D3",
            "ticks": 180880,
            "time": 565.25,
            "velocity": 0.9606299212598425
          },
          {
            "duration": 0.23749999999995453,
            "durationTicks": 76,
            "midi": 62,
            "name": "D4",
            "ticks": 180880,
            "time": 565.25,
            "velocity": 0.9606299212598425
          },
          {
            "duration": 0.2375000000000682,
            "durationTicks": 76,
            "midi": 49,
            "name": "C#3",
            "ticks": 180960,
            "time": 565.5,
            "velocity": 0.9606299212598425
          },
          {
            "duration": 0.2375000000000682,
            "durationTicks": 76,
            "midi": 61,
            "name": "C#4",
            "ticks": 180960,
            "time": 565.5,
            "velocity": 0.9606299212598425
          },
          {
            "duration": 0.23749999999995453,
            "durationTicks": 76,
            "midi": 49,
            "name": "C#3",
            "ticks": 181040,
            "time": 565.75,
            "velocity": 0.9606299212598425
          },
          {
            "duration": 0.23749999999995453,
            "durationTicks": 76,
            "midi": 61,
            "name": "C#4",
            "ticks": 181040,
            "time": 565.75,
            "velocity": 0.9606299212598425
          },
          {
            "duration": 0.23749999999995453,
            "durationTicks": 76,
            "midi": 49,
            "name": "C#3",
            "ticks": 181120,
            "time": 566,
            "velocity": 0.9606299212598425
          },
          {
            "duration": 0.23749999999995453,
            "durationTicks": 76,
            "midi": 61,
            "name": "C#4",
            "ticks": 181120,
            "time": 566,
            "velocity": 0.9606299212598425
          },
          {
            "duration": 0.7062500000000682,
            "durationTicks": 226,
            "midi": 54,
            "name": "F#3",
            "ticks": 181440,
            "time": 567,
            "velocity": 1
          },
          {
            "duration": 0.2375000000000682,
            "durationTicks": 76,
            "midi": 58,
            "name": "A#3",
            "ticks": 182400,
            "time": 570,
            "velocity": 1
          },
          {
            "duration": 0.23749999999995453,
            "durationTicks": 76,
            "midi": 59,
            "name": "B3",
            "ticks": 182480,
            "time": 570.25,
            "velocity": 1
          },
          {
            "duration": 0.23749999999995453,
            "durationTicks": 76,
            "midi": 61,
            "name": "C#4",
            "ticks": 182560,
            "time": 570.5,
            "velocity": 1
          },
          {
            "duration": 0.18124999999997726,
            "durationTicks": 58,
            "midi": 62,
            "name": "D4",
            "ticks": 182640,
            "time": 570.75,
            "velocity": 1
          },
          {
            "duration": 0.18124999999997726,
            "durationTicks": 58,
            "midi": 64,
            "name": "E4",
            "ticks": 182700,
            "time": 570.9375,
            "velocity": 1
          },
          {
            "duration": 0.18124999999997726,
            "durationTicks": 58,
            "midi": 65,
            "name": "F4",
            "ticks": 182760,
            "time": 571.125,
            "velocity": 1
          },
          {
            "duration": 0.18124999999997726,
            "durationTicks": 58,
            "midi": 67,
            "name": "G4",
            "ticks": 182820,
            "time": 571.3125,
            "velocity": 1
          },
          {
            "duration": 1.40625,
            "durationTicks": 450,
            "midi": 68,
            "name": "G#4",
            "ticks": 182880,
            "time": 571.5,
            "velocity": 1
          },
          {
            "duration": 0.7062500000000682,
            "durationTicks": 226,
            "midi": 67,
            "name": "G4",
            "ticks": 183360,
            "time": 573,
            "velocity": 1
          },
          {
            "duration": 0.7062500000000682,
            "durationTicks": 226,
            "midi": 65,
            "name": "F4",
            "ticks": 183600,
            "time": 573.75,
            "velocity": 1
          },
          {
            "duration": 0.7062500000000682,
            "durationTicks": 226,
            "midi": 64,
            "name": "E4",
            "ticks": 183840,
            "time": 574.5,
            "velocity": 1
          },
          {
            "duration": 0.7062500000000682,
            "durationTicks": 226,
            "midi": 62,
            "name": "D4",
            "ticks": 184080,
            "time": 575.25,
            "velocity": 1
          },
          {
            "duration": 1.40625,
            "durationTicks": 450,
            "midi": 58,
            "name": "A#3",
            "ticks": 184320,
            "time": 576,
            "velocity": 1
          },
          {
            "duration": 1.40625,
            "durationTicks": 450,
            "midi": 66,
            "name": "F#4",
            "ticks": 184320,
            "time": 576,
            "velocity": 1
          },
          {
            "duration": 0.2375000000000682,
            "durationTicks": 76,
            "midi": 58,
            "name": "A#3",
            "ticks": 185280,
            "time": 579,
            "velocity": 1
          },
          {
            "duration": 0.23749999999995453,
            "durationTicks": 76,
            "midi": 59,
            "name": "B3",
            "ticks": 185360,
            "time": 579.25,
            "velocity": 1
          },
          {
            "duration": 0.23749999999995453,
            "durationTicks": 76,
            "midi": 61,
            "name": "C#4",
            "ticks": 185440,
            "time": 579.5,
            "velocity": 1
          },
          {
            "duration": 0.18124999999997726,
            "durationTicks": 58,
            "midi": 62,
            "name": "D4",
            "ticks": 185520,
            "time": 579.75,
            "velocity": 1
          },
          {
            "duration": 0.18124999999997726,
            "durationTicks": 58,
            "midi": 64,
            "name": "E4",
            "ticks": 185580,
            "time": 579.9375,
            "velocity": 1
          },
          {
            "duration": 0.18124999999997726,
            "durationTicks": 58,
            "midi": 65,
            "name": "F4",
            "ticks": 185640,
            "time": 580.125,
            "velocity": 1
          },
          {
            "duration": 0.18124999999997726,
            "durationTicks": 58,
            "midi": 66,
            "name": "F#4",
            "ticks": 185700,
            "time": 580.3125,
            "velocity": 1
          },
          {
            "duration": 1.40625,
            "durationTicks": 450,
            "midi": 68,
            "name": "G#4",
            "ticks": 185760,
            "time": 580.5,
            "velocity": 1
          },
          {
            "duration": 0.7062500000000682,
            "durationTicks": 226,
            "midi": 67,
            "name": "G4",
            "ticks": 186240,
            "time": 582,
            "velocity": 1
          },
          {
            "duration": 0.7062500000000682,
            "durationTicks": 226,
            "midi": 65,
            "name": "F4",
            "ticks": 186480,
            "time": 582.75,
            "velocity": 1
          },
          {
            "duration": 0.7062500000000682,
            "durationTicks": 226,
            "midi": 64,
            "name": "E4",
            "ticks": 186720,
            "time": 583.5,
            "velocity": 1
          },
          {
            "duration": 0.7062500000000682,
            "durationTicks": 226,
            "midi": 62,
            "name": "D4",
            "ticks": 186960,
            "time": 584.25,
            "velocity": 1
          },
          {
            "duration": 1.40625,
            "durationTicks": 450,
            "midi": 58,
            "name": "A#3",
            "ticks": 187200,
            "time": 585,
            "velocity": 1
          },
          {
            "duration": 1.40625,
            "durationTicks": 450,
            "midi": 66,
            "name": "F#4",
            "ticks": 187200,
            "time": 585,
            "velocity": 1
          },
          {
            "duration": 0.2375000000000682,
            "durationTicks": 76,
            "midi": 50,
            "name": "D3",
            "ticks": 188160,
            "time": 588,
            "velocity": 1
          },
          {
            "duration": 0.2375000000000682,
            "durationTicks": 76,
            "midi": 54,
            "name": "F#3",
            "ticks": 188160,
            "time": 588,
            "velocity": 1
          },
          {
            "duration": 0.23749999999995453,
            "durationTicks": 76,
            "midi": 52,
            "name": "E3",
            "ticks": 188240,
            "time": 588.25,
            "velocity": 1
          },
          {
            "duration": 0.23749999999995453,
            "durationTicks": 76,
            "midi": 53,
            "name": "F3",
            "ticks": 188320,
            "time": 588.5,
            "velocity": 1
          },
          {
            "duration": 0.18124999999997726,
            "durationTicks": 58,
            "midi": 55,
            "name": "G3",
            "ticks": 188400,
            "time": 588.75,
            "velocity": 1
          },
          {
            "duration": 0.18124999999997726,
            "durationTicks": 58,
            "midi": 57,
            "name": "A3",
            "ticks": 188460,
            "time": 588.9375,
            "velocity": 1
          },
          {
            "duration": 0.18124999999997726,
            "durationTicks": 58,
            "midi": 58,
            "name": "A#3",
            "ticks": 188520,
            "time": 589.125,
            "velocity": 1
          },
          {
            "duration": 0.18124999999997726,
            "durationTicks": 58,
            "midi": 60,
            "name": "C4",
            "ticks": 188580,
            "time": 589.3125,
            "velocity": 1
          },
          {
            "duration": 1.40625,
            "durationTicks": 450,
            "midi": 61,
            "name": "C#4",
            "ticks": 188640,
            "time": 589.5,
            "velocity": 1
          },
          {
            "duration": 0.7062500000000682,
            "durationTicks": 226,
            "midi": 60,
            "name": "C4",
            "ticks": 189120,
            "time": 591,
            "velocity": 1
          },
          {
            "duration": 0.7062500000000682,
            "durationTicks": 226,
            "midi": 58,
            "name": "A#3",
            "ticks": 189360,
            "time": 591.75,
            "velocity": 1
          },
          {
            "duration": 0.7062500000000682,
            "durationTicks": 226,
            "midi": 56,
            "name": "G#3",
            "ticks": 189600,
            "time": 592.5,
            "velocity": 1
          },
          {
            "duration": 0.7062500000000682,
            "durationTicks": 226,
            "midi": 55,
            "name": "G3",
            "ticks": 189840,
            "time": 593.25,
            "velocity": 1
          },
          {
            "duration": 1.40625,
            "durationTicks": 450,
            "midi": 52,
            "name": "E3",
            "ticks": 190080,
            "time": 594,
            "velocity": 1
          },
          {
            "duration": 0.2375000000000682,
            "durationTicks": 76,
            "midi": 50,
            "name": "D3",
            "ticks": 191040,
            "time": 597,
            "velocity": 1
          },
          {
            "duration": 0.2375000000000682,
            "durationTicks": 76,
            "midi": 54,
            "name": "F#3",
            "ticks": 191040,
            "time": 597,
            "velocity": 1
          },
          {
            "duration": 0.23749999999995453,
            "durationTicks": 76,
            "midi": 52,
            "name": "E3",
            "ticks": 191120,
            "time": 597.25,
            "velocity": 1
          },
          {
            "duration": 0.23749999999995453,
            "durationTicks": 76,
            "midi": 53,
            "name": "F3",
            "ticks": 191200,
            "time": 597.5,
            "velocity": 1
          },
          {
            "duration": 0.18124999999997726,
            "durationTicks": 58,
            "midi": 55,
            "name": "G3",
            "ticks": 191280,
            "time": 597.75,
            "velocity": 1
          },
          {
            "duration": 0.18124999999997726,
            "durationTicks": 58,
            "midi": 57,
            "name": "A3",
            "ticks": 191340,
            "time": 597.9375,
            "velocity": 1
          },
          {
            "duration": 0.18124999999997726,
            "durationTicks": 58,
            "midi": 58,
            "name": "A#3",
            "ticks": 191400,
            "time": 598.125,
            "velocity": 1
          },
          {
            "duration": 0.18124999999997726,
            "durationTicks": 58,
            "midi": 60,
            "name": "C4",
            "ticks": 191460,
            "time": 598.3125,
            "velocity": 1
          },
          {
            "duration": 1.40625,
            "durationTicks": 450,
            "midi": 61,
            "name": "C#4",
            "ticks": 191520,
            "time": 598.5,
            "velocity": 1
          },
          {
            "duration": 0.7062500000000682,
            "durationTicks": 226,
            "midi": 60,
            "name": "C4",
            "ticks": 192000,
            "time": 600,
            "velocity": 1
          },
          {
            "duration": 0.7062500000000682,
            "durationTicks": 226,
            "midi": 58,
            "name": "A#3",
            "ticks": 192240,
            "time": 600.75,
            "velocity": 1
          },
          {
            "duration": 0.7062500000000682,
            "durationTicks": 226,
            "midi": 56,
            "name": "G#3",
            "ticks": 192480,
            "time": 601.5,
            "velocity": 1
          },
          {
            "duration": 0.7062500000000682,
            "durationTicks": 226,
            "midi": 55,
            "name": "G3",
            "ticks": 192720,
            "time": 602.25,
            "velocity": 1
          },
          {
            "duration": 1.40625,
            "durationTicks": 450,
            "midi": 52,
            "name": "E3",
            "ticks": 192960,
            "time": 603,
            "velocity": 1
          },
          {
            "duration": 1.40625,
            "durationTicks": 450,
            "midi": 55,
            "name": "G3",
            "ticks": 194400,
            "time": 607.5,
            "velocity": 0.8582677165354331
          },
          {
            "duration": 0.7062500000000682,
            "durationTicks": 226,
            "midi": 61,
            "name": "C#4",
            "ticks": 195840,
            "time": 612,
            "velocity": 0.7165354330708661
          },
          {
            "duration": 0.7062500000000682,
            "durationTicks": 226,
            "midi": 62,
            "name": "D4",
            "ticks": 196080,
            "time": 612.75,
            "velocity": 0.6850393700787402
          },
          {
            "duration": 1.40625,
            "durationTicks": 450,
            "midi": 59,
            "name": "B3",
            "ticks": 214080,
            "time": 669,
            "velocity": 0.47244094488188976
          },
          {
            "duration": 1.40625,
            "durationTicks": 450,
            "midi": 59,
            "name": "B3",
            "ticks": 214560,
            "time": 670.5,
            "velocity": 0.47244094488188976
          },
          {
            "duration": 1.40625,
            "durationTicks": 450,
            "midi": 58,
            "name": "A#3",
            "ticks": 215040,
            "time": 672,
            "velocity": 0.47244094488188976
          },
          {
            "duration": 1.40625,
            "durationTicks": 450,
            "midi": 57,
            "name": "A3",
            "ticks": 215520,
            "time": 673.5,
            "velocity": 0.47244094488188976
          },
          {
            "duration": 0.7062500000000682,
            "durationTicks": 226,
            "midi": 57,
            "name": "A3",
            "ticks": 216000,
            "time": 675,
            "velocity": 0.47244094488188976
          },
          {
            "duration": 1.40625,
            "durationTicks": 450,
            "midi": 59,
            "name": "B3",
            "ticks": 216960,
            "time": 678,
            "velocity": 0.47244094488188976
          },
          {
            "duration": 1.40625,
            "durationTicks": 450,
            "midi": 59,
            "name": "B3",
            "ticks": 217440,
            "time": 679.5,
            "velocity": 0.47244094488188976
          },
          {
            "duration": 1.40625,
            "durationTicks": 450,
            "midi": 58,
            "name": "A#3",
            "ticks": 217920,
            "time": 681,
            "velocity": 0.47244094488188976
          },
          {
            "duration": 1.40625,
            "durationTicks": 450,
            "midi": 57,
            "name": "A3",
            "ticks": 218400,
            "time": 682.5,
            "velocity": 0.47244094488188976
          },
          {
            "duration": 2.8125,
            "durationTicks": 900,
            "midi": 55,
            "name": "G3",
            "ticks": 218880,
            "time": 684,
            "velocity": 0.47244094488188976
          },
          {
            "duration": 1.40625,
            "durationTicks": 450,
            "midi": 54,
            "name": "F#3",
            "ticks": 219840,
            "time": 687,
            "velocity": 0.47244094488188976
          },
          {
            "duration": 2.8125,
            "durationTicks": 900,
            "midi": 52,
            "name": "E3",
            "ticks": 220320,
            "time": 688.5,
            "velocity": 0.47244094488188976
          },
          {
            "duration": 1.40625,
            "durationTicks": 450,
            "midi": 50,
            "name": "D3",
            "ticks": 221280,
            "time": 691.5,
            "velocity": 0.47244094488188976
          },
          {
            "duration": 4.40625,
            "durationTicks": 1410,
            "midi": 49,
            "name": "C#3",
            "ticks": 221760,
            "time": 693,
            "velocity": 0.47244094488188976
          },
          {
            "duration": 2.206250000000068,
            "durationTicks": 706,
            "midi": 50,
            "name": "D3",
            "ticks": 223200,
            "time": 697.5,
            "velocity": 0.5905511811023622
          },
          {
            "duration": 1.40625,
            "durationTicks": 450,
            "midi": 50,
            "name": "D3",
            "ticks": 224160,
            "time": 700.5,
            "velocity": 0.5905511811023622
          },
          {
            "duration": 2.8125,
            "durationTicks": 900,
            "midi": 48,
            "name": "C3",
            "ticks": 224640,
            "time": 702,
            "velocity": 0.5905511811023622
          },
          {
            "duration": 2.8125,
            "durationTicks": 900,
            "midi": 52,
            "name": "E3",
            "ticks": 224640,
            "time": 702,
            "velocity": 0.5905511811023622
          },
          {
            "duration": 1.40625,
            "durationTicks": 450,
            "midi": 49,
            "name": "C#3",
            "ticks": 225600,
            "time": 705,
            "velocity": 0.5905511811023622
          },
          {
            "duration": 1.40625,
            "durationTicks": 450,
            "midi": 52,
            "name": "E3",
            "ticks": 225600,
            "time": 705,
            "velocity": 0.5905511811023622
          },
          {
            "duration": 2.8125,
            "durationTicks": 900,
            "midi": 50,
            "name": "D3",
            "ticks": 226080,
            "time": 706.5,
            "velocity": 0.5905511811023622
          },
          {
            "duration": 1.40625,
            "durationTicks": 450,
            "midi": 50,
            "name": "D3",
            "ticks": 227040,
            "time": 709.5,
            "velocity": 0.5905511811023622
          },
          {
            "duration": 2.8125,
            "durationTicks": 900,
            "midi": 48,
            "name": "C3",
            "ticks": 227520,
            "time": 711,
            "velocity": 0.6299212598425197
          },
          {
            "duration": 2.8125,
            "durationTicks": 900,
            "midi": 52,
            "name": "E3",
            "ticks": 227520,
            "time": 711,
            "velocity": 0.6299212598425197
          },
          {
            "duration": 1.40625,
            "durationTicks": 450,
            "midi": 49,
            "name": "C#3",
            "ticks": 228480,
            "time": 714,
            "velocity": 0.6220472440944882
          },
          {
            "duration": 1.40625,
            "durationTicks": 450,
            "midi": 52,
            "name": "E3",
            "ticks": 228480,
            "time": 714,
            "velocity": 0.6220472440944882
          },
          {
            "duration": 4.40625,
            "durationTicks": 1410,
            "midi": 50,
            "name": "D3",
            "ticks": 228960,
            "time": 715.5,
            "velocity": 0.6141732283464567
          }
        ]
      },
      {
        "channel": 0,
        "controlChanges": {},
        "pitchBends": [],
        "instrument": {
          "family": "piano",
          "number": 0,
          "name": "acoustic grand piano"
        },
        "name": "Cello",
        "notes": [],
        "endOfTrackTicks": 250560
      },
      {
        "channel": 14,
        "controlChanges": {
          "7": [
            {
              "number": 7,
              "ticks": 0,
              "time": 0,
              "value": 1
            },
            {
              "number": 7,
              "ticks": 234720,
              "time": 733.5,
              "value": 0.889763779527559
            },
            {
              "number": 7,
              "ticks": 236160,
              "time": 738,
              "value": 0.7480314960629921
            },
            {
              "number": 7,
              "ticks": 236456,
              "time": 738.925,
              "value": 0.7401574803149606
            },
            {
              "number": 7,
              "ticks": 236744,
              "time": 739.8249999999999,
              "value": 0.7322834645669292
            },
            {
              "number": 7,
              "ticks": 237032,
              "time": 740.725,
              "value": 0.7244094488188977
            },
            {
              "number": 7,
              "ticks": 237320,
              "time": 741.625,
              "value": 0.7165354330708661
            },
            {
              "number": 7,
              "ticks": 237608,
              "time": 742.525,
              "value": 0.7086614173228346
            },
            {
              "number": 7,
              "ticks": 239032,
              "time": 746.975,
              "value": 0.6929133858267716
            },
            {
              "number": 7,
              "ticks": 239384,
              "time": 748.0749999999999,
              "value": 0.7007874015748031
            },
            {
              "number": 7,
              "ticks": 239736,
              "time": 749.175,
              "value": 0.7086614173228346
            },
            {
              "number": 7,
              "ticks": 240088,
              "time": 750.275,
              "value": 0.7165354330708661
            },
            {
              "number": 7,
              "ticks": 240440,
              "time": 751.375,
              "value": 0.7244094488188977
            },
            {
              "number": 7,
              "ticks": 240480,
              "time": 751.5,
              "value": 0.8818897637795275
            },
            {
              "number": 7,
              "ticks": 240576,
              "time": 751.8,
              "value": 0.8740157480314961
            },
            {
              "number": 7,
              "ticks": 240664,
              "time": 752.075,
              "value": 0.8661417322834646
            },
            {
              "number": 7,
              "ticks": 240752,
              "time": 752.35,
              "value": 0.8582677165354331
            },
            {
              "number": 7,
              "ticks": 240848,
              "time": 752.65,
              "value": 0.8503937007874016
            },
            {
              "number": 7,
              "ticks": 240936,
              "time": 752.925,
              "value": 0.84251968503937
            },
            {
              "number": 7,
              "ticks": 241024,
              "time": 753.2,
              "value": 0.8346456692913385
            },
            {
              "number": 7,
              "ticks": 241120,
              "time": 753.5,
              "value": 0.8267716535433071
            },
            {
              "number": 7,
              "ticks": 241208,
              "time": 753.775,
              "value": 0.8188976377952756
            },
            {
              "number": 7,
              "ticks": 241296,
              "time": 754.05,
              "value": 0.8110236220472441
            },
            {
              "number": 7,
              "ticks": 241392,
              "time": 754.3499999999999,
              "value": 0.8031496062992126
            },
            {
              "number": 7,
              "ticks": 241480,
              "time": 754.625,
              "value": 0.7952755905511811
            },
            {
              "number": 7,
              "ticks": 241568,
              "time": 754.9,
              "value": 0.7874015748031497
            },
            {
              "number": 7,
              "ticks": 241664,
              "time": 755.1999999999999,
              "value": 0.7795275590551181
            },
            {
              "number": 7,
              "ticks": 241752,
              "time": 755.4749999999999,
              "value": 0.7716535433070866
            },
            {
              "number": 7,
              "ticks": 241840,
              "time": 755.75,
              "value": 0.7637795275590551
            },
            {
              "number": 7,
              "ticks": 241936,
              "time": 756.0500000000001,
              "value": 0.7559055118110236
            },
            {
              "number": 7,
              "ticks": 242024,
              "time": 756.3249999999999,
              "value": 0.7480314960629921
            },
            {
              "number": 7,
              "ticks": 242112,
              "time": 756.5999999999999,
              "value": 0.7401574803149606
            },
            {
              "number": 7,
              "ticks": 242208,
              "time": 756.9000000000001,
              "value": 0.7322834645669292
            },
            {
              "number": 7,
              "ticks": 242296,
              "time": 757.1750000000001,
              "value": 0.7244094488188977
            },
            {
              "number": 7,
              "ticks": 242384,
              "time": 757.4499999999999,
              "value": 0.7165354330708661
            },
            {
              "number": 7,
              "ticks": 242480,
              "time": 757.75,
              "value": 0.7086614173228346
            },
            {
              "number": 7,
              "ticks": 242568,
              "time": 758.0250000000001,
              "value": 0.7007874015748031
            },
            {
              "number": 7,
              "ticks": 242656,
              "time": 758.3000000000001,
              "value": 0.6929133858267716
            },
            {
              "number": 7,
              "ticks": 242752,
              "time": 758.6,
              "value": 0.6850393700787402
            },
            {
              "number": 7,
              "ticks": 242840,
              "time": 758.875,
              "value": 0.6771653543307087
            },
            {
              "number": 7,
              "ticks": 242928,
              "time": 759.1500000000001,
              "value": 0.6692913385826772
            },
            {
              "number": 7,
              "ticks": 243024,
              "time": 759.45,
              "value": 0.6614173228346457
            },
            {
              "number": 7,
              "ticks": 243112,
              "time": 759.725,
              "value": 0.6535433070866141
            },
            {
              "number": 7,
              "ticks": 243200,
              "time": 760,
              "value": 0.6456692913385826
            },
            {
              "number": 7,
              "ticks": 243288,
              "time": 760.2750000000001,
              "value": 0.6377952755905512
            },
            {
              "number": 7,
              "ticks": 243384,
              "time": 760.575,
              "value": 0.6299212598425197
            },
            {
              "number": 7,
              "ticks": 243472,
              "time": 760.85,
              "value": 0.6220472440944882
            },
            {
              "number": 7,
              "ticks": 243560,
              "time": 761.125,
              "value": 0.6141732283464567
            },
            {
              "number": 7,
              "ticks": 243656,
              "time": 761.425,
              "value": 0.6062992125984252
            },
            {
              "number": 7,
              "ticks": 243744,
              "time": 761.7,
              "value": 0.5984251968503937
            },
            {
              "number": 7,
              "ticks": 243832,
              "time": 761.975,
              "value": 0.5905511811023622
            },
            {
              "number": 7,
              "ticks": 243928,
              "time": 762.275,
              "value": 0.5826771653543307
            },
            {
              "number": 7,
              "ticks": 244016,
              "time": 762.55,
              "value": 0.5748031496062992
            },
            {
              "number": 7,
              "ticks": 244104,
              "time": 762.825,
              "value": 0.5669291338582677
            },
            {
              "number": 7,
              "ticks": 244200,
              "time": 763.125,
              "value": 0.5590551181102362
            },
            {
              "number": 7,
              "ticks": 244288,
              "time": 763.4,
              "value": 0.5511811023622047
            },
            {
              "number": 7,
              "ticks": 244376,
              "time": 763.675,
              "value": 0.5433070866141733
            },
            {
              "number": 7,
              "ticks": 244472,
              "time": 763.975,
              "value": 0.5354330708661418
            },
            {
              "number": 7,
              "ticks": 244560,
              "time": 764.25,
              "value": 0.5275590551181102
            },
            {
              "number": 7,
              "ticks": 244648,
              "time": 764.525,
              "value": 0.5196850393700787
            },
            {
              "number": 7,
              "ticks": 244744,
              "time": 764.825,
              "value": 0.5118110236220472
            },
            {
              "number": 7,
              "ticks": 244832,
              "time": 765.1,
              "value": 0.5039370078740157
            },
            {
              "number": 7,
              "ticks": 244920,
              "time": 765.375,
              "value": 0.49606299212598426
            },
            {
              "number": 7,
              "ticks": 245016,
              "time": 765.675,
              "value": 0.4881889763779528
            },
            {
              "number": 7,
              "ticks": 245104,
              "time": 765.95,
              "value": 0.48031496062992124
            },
            {
              "number": 7,
              "ticks": 245192,
              "time": 766.225,
              "value": 0.47244094488188976
            },
            {
              "number": 7,
              "ticks": 245288,
              "time": 766.525,
              "value": 0.4645669291338583
            },
            {
              "number": 7,
              "ticks": 245376,
              "time": 766.8,
              "value": 0.4566929133858268
            },
            {
              "number": 7,
              "ticks": 245464,
              "time": 767.075,
              "value": 0.44881889763779526
            },
            {
              "number": 7,
              "ticks": 245560,
              "time": 767.375,
              "value": 0.4409448818897638
            },
            {
              "number": 7,
              "ticks": 245648,
              "time": 767.65,
              "value": 0.4330708661417323
            },
            {
              "number": 7,
              "ticks": 245736,
              "time": 767.925,
              "value": 0.4251968503937008
            },
            {
              "number": 7,
              "ticks": 245832,
              "time": 768.2249999999999,
              "value": 0.41732283464566927
            },
            {
              "number": 7,
              "ticks": 245920,
              "time": 768.5,
              "value": 0.4094488188976378
            },
            {
              "number": 7,
              "ticks": 246008,
              "time": 768.775,
              "value": 0.4015748031496063
            },
            {
              "number": 7,
              "ticks": 246096,
              "time": 769.0500000000001,
              "value": 0.3937007874015748
            },
            {
              "number": 7,
              "ticks": 247664,
              "time": 773.95,
              "value": 0.3543307086614173
            },
            {
              "number": 7,
              "ticks": 247760,
              "time": 774.25,
              "value": 0.3464566929133858
            },
            {
              "number": 7,
              "ticks": 247856,
              "time": 774.55,
              "value": 0.33858267716535434
            },
            {
              "number": 7,
              "ticks": 247952,
              "time": 774.8500000000001,
              "value": 0.33070866141732286
            },
            {
              "number": 7,
              "ticks": 248048,
              "time": 775.15,
              "value": 0.3228346456692913
            },
            {
              "number": 7,
              "ticks": 248144,
              "time": 775.45,
              "value": 0.31496062992125984
            },
            {
              "number": 7,
              "ticks": 248240,
              "time": 775.75,
              "value": 0.30708661417322836
            },
            {
              "number": 7,
              "ticks": 248336,
              "time": 776.05,
              "value": 0.2992125984251969
            },
            {
              "number": 7,
              "ticks": 248432,
              "time": 776.3500000000001,
              "value": 0.29133858267716534
            },
            {
              "number": 7,
              "ticks": 248528,
              "time": 776.65,
              "value": 0.28346456692913385
            },
            {
              "number": 7,
              "ticks": 248616,
              "time": 776.9250000000001,
              "value": 0.2755905511811024
            },
            {
              "number": 7,
              "ticks": 248712,
              "time": 777.2249999999999,
              "value": 0.2677165354330709
            },
            {
              "number": 7,
              "ticks": 248808,
              "time": 777.5250000000001,
              "value": 0.25984251968503935
            },
            {
              "number": 7,
              "ticks": 248904,
              "time": 777.8249999999999,
              "value": 0.25196850393700787
            },
            {
              "number": 7,
              "ticks": 249000,
              "time": 778.125,
              "value": 0.2440944881889764
            },
            {
              "number": 7,
              "ticks": 249096,
              "time": 778.4250000000001,
              "value": 0.23622047244094488
            },
            {
              "number": 7,
              "ticks": 249192,
              "time": 778.7249999999999,
              "value": 0.2283464566929134
            },
            {
              "number": 7,
              "ticks": 249288,
              "time": 779.0250000000001,
              "value": 0.2204724409448819
            },
            {
              "number": 7,
              "ticks": 249384,
              "time": 779.3249999999999,
              "value": 0.2125984251968504
            },
            {
              "number": 7,
              "ticks": 249472,
              "time": 779.6,
              "value": 0.2047244094488189
            },
            {
              "number": 7,
              "ticks": 249568,
              "time": 779.8999999999999,
              "value": 0.1968503937007874
            },
            {
              "number": 7,
              "ticks": 249664,
              "time": 780.2,
              "value": 0.1889763779527559
            },
            {
              "number": 7,
              "ticks": 249760,
              "time": 780.5,
              "value": 0.18110236220472442
            },
            {
              "number": 7,
              "ticks": 249856,
              "time": 780.8,
              "value": 0.1732283464566929
            },
            {
              "number": 7,
              "ticks": 249952,
              "time": 781.1,
              "value": 0.16535433070866143
            },
            {
              "number": 7,
              "ticks": 250048,
              "time": 781.3999999999999,
              "value": 0.15748031496062992
            },
            {
              "number": 7,
              "ticks": 250144,
              "time": 781.7,
              "value": 0.14960629921259844
            },
            {
              "number": 7,
              "ticks": 250240,
              "time": 782,
              "value": 0.14173228346456693
            },
            {
              "number": 7,
              "ticks": 250328,
              "time": 782.275,
              "value": 0.13385826771653545
            }
          ],
          "10": [
            {
              "number": 10,
              "ticks": 0,
              "time": 0,
              "value": 0.8267716535433071
            }
          ]
        },
        "pitchBends": [],
        "instrument": {
          "family": "strings",
          "number": 42,
          "name": "cello"
        },
        "name": "",
        "notes": [
          {
            "duration": 1.40625,
            "durationTicks": 450,
            "midi": 68,
            "name": "G#4",
            "ticks": 0,
            "time": 0,
            "velocity": 0.8661417322834646
          },
          {
            "duration": 0.7062500000000003,
            "durationTicks": 226,
            "midi": 61,
            "name": "C#4",
            "ticks": 480,
            "time": 1.5,
            "velocity": 0.8661417322834646
          },
          {
            "duration": 0.7062500000000003,
            "durationTicks": 226,
            "midi": 65,
            "name": "F4",
            "ticks": 720,
            "time": 2.25,
            "velocity": 0.8661417322834646
          },
          {
            "duration": 1.0562500000000004,
            "durationTicks": 338,
            "midi": 56,
            "name": "G#3",
            "ticks": 960,
            "time": 3,
            "velocity": 0.84251968503937
          },
          {
            "duration": 0.3562499999999993,
            "durationTicks": 114,
            "midi": 59,
            "name": "B3",
            "ticks": 1320,
            "time": 4.125,
            "velocity": 0.8031496062992126
          },
          {
            "duration": 3.7062500000000007,
            "durationTicks": 1186,
            "midi": 54,
            "name": "F#3",
            "ticks": 1440,
            "time": 4.5,
            "velocity": 0.7086614173228346
          },
          {
            "duration": 1.40625,
            "durationTicks": 450,
            "midi": 68,
            "name": "G#4",
            "ticks": 2880,
            "time": 9,
            "velocity": 0.8661417322834646
          },
          {
            "duration": 0.7062500000000007,
            "durationTicks": 226,
            "midi": 61,
            "name": "C#4",
            "ticks": 3360,
            "time": 10.5,
            "velocity": 0.8661417322834646
          },
          {
            "duration": 0.7062500000000007,
            "durationTicks": 226,
            "midi": 65,
            "name": "F4",
            "ticks": 3600,
            "time": 11.25,
            "velocity": 0.8661417322834646
          },
          {
            "duration": 1.0562500000000021,
            "durationTicks": 338,
            "midi": 56,
            "name": "G#3",
            "ticks": 3840,
            "time": 12,
            "velocity": 0.8582677165354331
          },
          {
            "duration": 0.35625000000000107,
            "durationTicks": 114,
            "midi": 59,
            "name": "B3",
            "ticks": 4200,
            "time": 13.125,
            "velocity": 0.8110236220472441
          },
          {
            "duration": 3.7062500000000007,
            "durationTicks": 1186,
            "midi": 54,
            "name": "F#3",
            "ticks": 4320,
            "time": 13.5,
            "velocity": 0.7086614173228346
          },
          {
            "duration": 2.9562500000000007,
            "durationTicks": 946,
            "midi": 50,
            "name": "D3",
            "ticks": 5760,
            "time": 18,
            "velocity": 0.5275590551181102
          },
          {
            "duration": 1.0562500000000021,
            "durationTicks": 338,
            "midi": 50,
            "name": "D3",
            "ticks": 6720,
            "time": 21,
            "velocity": 0.5275590551181102
          },
          {
            "duration": 0.35625000000000284,
            "durationTicks": 114,
            "midi": 49,
            "name": "C#3",
            "ticks": 7080,
            "time": 22.125,
            "velocity": 0.5275590551181102
          },
          {
            "duration": 2.8125,
            "durationTicks": 900,
            "midi": 50,
            "name": "D3",
            "ticks": 7200,
            "time": 22.5,
            "velocity": 0.49606299212598426
          },
          {
            "duration": 2.9562500000000043,
            "durationTicks": 946,
            "midi": 54,
            "name": "F#3",
            "ticks": 8640,
            "time": 27,
            "velocity": 0.5275590551181102
          },
          {
            "duration": 1.0562499999999986,
            "durationTicks": 338,
            "midi": 54,
            "name": "F#3",
            "ticks": 9600,
            "time": 30,
            "velocity": 0.5275590551181102
          },
          {
            "duration": 0.35625000000000284,
            "durationTicks": 114,
            "midi": 53,
            "name": "F3",
            "ticks": 9960,
            "time": 31.125,
            "velocity": 0.5275590551181102
          },
          {
            "duration": 2.8125,
            "durationTicks": 900,
            "midi": 54,
            "name": "F#3",
            "ticks": 10080,
            "time": 31.5,
            "velocity": 0.5275590551181102
          },
          {
            "duration": 2.1125000000000043,
            "durationTicks": 676,
            "midi": 57,
            "name": "A3",
            "ticks": 11520,
            "time": 36,
            "velocity": 0.5039370078740157
          },
          {
            "duration": 0.7062500000000043,
            "durationTicks": 226,
            "midi": 56,
            "name": "G#3",
            "ticks": 12240,
            "time": 38.25,
            "velocity": 0.5590551181102362
          },
          {
            "duration": 1.40625,
            "durationTicks": 450,
            "midi": 57,
            "name": "A3",
            "ticks": 12480,
            "time": 39,
            "velocity": 0.5748031496062992
          },
          {
            "duration": 2.1125000000000043,
            "durationTicks": 676,
            "midi": 61,
            "name": "C#4",
            "ticks": 12960,
            "time": 40.5,
            "velocity": 0.6141732283464567
          },
          {
            "duration": 0.7062500000000043,
            "durationTicks": 226,
            "midi": 60,
            "name": "C4",
            "ticks": 13680,
            "time": 42.75,
            "velocity": 0.6692913385826772
          },
          {
            "duration": 1.40625,
            "durationTicks": 450,
            "midi": 61,
            "name": "C#4",
            "ticks": 13920,
            "time": 43.5,
            "velocity": 0.6850393700787402
          },
          {
            "duration": 2.1125000000000043,
            "durationTicks": 676,
            "midi": 64,
            "name": "E4",
            "ticks": 14400,
            "time": 45,
            "velocity": 0.7244094488188977
          },
          {
            "duration": 0.7062500000000043,
            "durationTicks": 226,
            "midi": 62,
            "name": "D4",
            "ticks": 15120,
            "time": 47.25,
            "velocity": 0.7795275590551181
          },
          {
            "duration": 1.40625,
            "durationTicks": 450,
            "midi": 61,
            "name": "C#4",
            "ticks": 15360,
            "time": 48,
            "velocity": 0.7952755905511811
          },
          {
            "duration": 5.206249999999997,
            "durationTicks": 1666,
            "midi": 59,
            "name": "B3",
            "ticks": 15840,
            "time": 49.5,
            "velocity": 0.7874015748031497
          },
          {
            "duration": 2.206249999999997,
            "durationTicks": 706,
            "midi": 57,
            "name": "A3",
            "ticks": 17760,
            "time": 55.5,
            "velocity": 0.7086614173228346
          },
          {
            "duration": 1.40625,
            "durationTicks": 450,
            "midi": 56,
            "name": "G#3",
            "ticks": 18720,
            "time": 58.5,
            "velocity": 0.7086614173228346
          },
          {
            "duration": 0.7062499999999972,
            "durationTicks": 226,
            "midi": 55,
            "name": "G3",
            "ticks": 19200,
            "time": 60,
            "velocity": 0.6929133858267716
          },
          {
            "duration": 0.7062499999999972,
            "durationTicks": 226,
            "midi": 54,
            "name": "F#3",
            "ticks": 19680,
            "time": 61.5,
            "velocity": 0.5984251968503937
          },
          {
            "duration": 0.7062499999999972,
            "durationTicks": 226,
            "midi": 53,
            "name": "F3",
            "ticks": 19920,
            "time": 62.25,
            "velocity": 0.5748031496062992
          },
          {
            "duration": 0.7062499999999972,
            "durationTicks": 226,
            "midi": 52,
            "name": "E3",
            "ticks": 20160,
            "time": 63,
            "velocity": 0.5275590551181102
          },
          {
            "duration": 1.40625,
            "durationTicks": 450,
            "midi": 50,
            "name": "D3",
            "ticks": 20640,
            "time": 64.5,
            "velocity": 0.5039370078740157
          },
          {
            "duration": 0.7062499999999972,
            "durationTicks": 226,
            "midi": 49,
            "name": "C#3",
            "ticks": 21120,
            "time": 66,
            "velocity": 0.4881889763779528
          },
          {
            "duration": 7.3125,
            "durationTicks": 2340,
            "midi": 59,
            "name": "B3",
            "ticks": 21600,
            "time": 67.5,
            "velocity": 0.44881889763779526
          },
          {
            "duration": 5.206249999999997,
            "durationTicks": 1666,
            "midi": 71,
            "name": "B4",
            "ticks": 24000,
            "time": 75,
            "velocity": 0.4330708661417323
          },
          {
            "duration": 0.35624999999998863,
            "durationTicks": 114,
            "midi": 49,
            "name": "C#3",
            "ticks": 26520,
            "time": 82.875,
            "velocity": 0.4881889763779528
          },
          {
            "duration": 0.35624999999998863,
            "durationTicks": 114,
            "midi": 59,
            "name": "B3",
            "ticks": 26640,
            "time": 83.25,
            "velocity": 0.5196850393700787
          },
          {
            "duration": 0.35624999999998863,
            "durationTicks": 114,
            "midi": 55,
            "name": "G3",
            "ticks": 26760,
            "time": 83.625,
            "velocity": 0.5433070866141733
          },
          {
            "duration": 0.35624999999998863,
            "durationTicks": 114,
            "midi": 62,
            "name": "D4",
            "ticks": 26880,
            "time": 84,
            "velocity": 0.5748031496062992
          },
          {
            "duration": 0.35624999999998863,
            "durationTicks": 114,
            "midi": 58,
            "name": "A#3",
            "ticks": 27000,
            "time": 84.375,
            "velocity": 0.5984251968503937
          },
          {
            "duration": 0.35624999999998863,
            "durationTicks": 114,
            "midi": 65,
            "name": "F4",
            "ticks": 27120,
            "time": 84.75,
            "velocity": 0.6220472440944882
          },
          {
            "duration": 0.35624999999998863,
            "durationTicks": 114,
            "midi": 61,
            "name": "C#4",
            "ticks": 27240,
            "time": 85.125,
            "velocity": 0.6535433070866141
          },
          {
            "duration": 1.40625,
            "durationTicks": 450,
            "midi": 68,
            "name": "G#4",
            "ticks": 27360,
            "time": 85.5,
            "velocity": 0.8661417322834646
          },
          {
            "duration": 0.7062499999999972,
            "durationTicks": 226,
            "midi": 61,
            "name": "C#4",
            "ticks": 27840,
            "time": 87,
            "velocity": 0.8661417322834646
          },
          {
            "duration": 0.7062499999999972,
            "durationTicks": 226,
            "midi": 65,
            "name": "F4",
            "ticks": 28080,
            "time": 87.75,
            "velocity": 0.8661417322834646
          },
          {
            "duration": 1.0562500000000057,
            "durationTicks": 338,
            "midi": 56,
            "name": "G#3",
            "ticks": 28320,
            "time": 88.5,
            "velocity": 0.8582677165354331
          },
          {
            "duration": 0.35624999999998863,
            "durationTicks": 114,
            "midi": 59,
            "name": "B3",
            "ticks": 28680,
            "time": 89.625,
            "velocity": 0.8110236220472441
          },
          {
            "duration": 3.706249999999997,
            "durationTicks": 1186,
            "midi": 54,
            "name": "F#3",
            "ticks": 28800,
            "time": 90,
            "velocity": 0.7086614173228346
          },
          {
            "duration": 1.40625,
            "durationTicks": 450,
            "midi": 68,
            "name": "G#4",
            "ticks": 30240,
            "time": 94.5,
            "velocity": 0.8661417322834646
          },
          {
            "duration": 0.7062499999999972,
            "durationTicks": 226,
            "midi": 61,
            "name": "C#4",
            "ticks": 30720,
            "time": 96,
            "velocity": 0.8661417322834646
          },
          {
            "duration": 0.7062499999999972,
            "durationTicks": 226,
            "midi": 65,
            "name": "F4",
            "ticks": 30960,
            "time": 96.75,
            "velocity": 0.8661417322834646
          },
          {
            "duration": 1.0562500000000057,
            "durationTicks": 338,
            "midi": 56,
            "name": "G#3",
            "ticks": 31200,
            "time": 97.5,
            "velocity": 0.8582677165354331
          },
          {
            "duration": 0.35624999999998863,
            "durationTicks": 114,
            "midi": 59,
            "name": "B3",
            "ticks": 31560,
            "time": 98.625,
            "velocity": 0.8110236220472441
          },
          {
            "duration": 3.706249999999997,
            "durationTicks": 1186,
            "midi": 54,
            "name": "F#3",
            "ticks": 31680,
            "time": 99,
            "velocity": 0.7086614173228346
          },
          {
            "duration": 2.956249999999997,
            "durationTicks": 946,
            "midi": 50,
            "name": "D3",
            "ticks": 33120,
            "time": 103.5,
            "velocity": 0.44881889763779526
          },
          {
            "duration": 1.0562500000000057,
            "durationTicks": 338,
            "midi": 50,
            "name": "D3",
            "ticks": 34080,
            "time": 106.5,
            "velocity": 0.44881889763779526
          },
          {
            "duration": 0.35624999999998863,
            "durationTicks": 114,
            "midi": 49,
            "name": "C#3",
            "ticks": 34440,
            "time": 107.625,
            "velocity": 0.44881889763779526
          },
          {
            "duration": 3.6000000000000085,
            "durationTicks": 1152,
            "midi": 50,
            "name": "D3",
            "ticks": 34560,
            "time": 108,
            "velocity": 0.44881889763779526
          },
          {
            "duration": 2.956249999999997,
            "durationTicks": 946,
            "midi": 47,
            "name": "B2",
            "ticks": 36000,
            "time": 112.5,
            "velocity": 0.44881889763779526
          },
          {
            "duration": 2.956249999999997,
            "durationTicks": 946,
            "midi": 55,
            "name": "G3",
            "ticks": 36000,
            "time": 112.5,
            "velocity": 0.44881889763779526
          },
          {
            "duration": 1.0562500000000057,
            "durationTicks": 338,
            "midi": 47,
            "name": "B2",
            "ticks": 36960,
            "time": 115.5,
            "velocity": 0.44881889763779526
          },
          {
            "duration": 1.0562500000000057,
            "durationTicks": 338,
            "midi": 55,
            "name": "G3",
            "ticks": 36960,
            "time": 115.5,
            "velocity": 0.44881889763779526
          },
          {
            "duration": 0.35624999999998863,
            "durationTicks": 114,
            "midi": 46,
            "name": "A#2",
            "ticks": 37320,
            "time": 116.625,
            "velocity": 0.44881889763779526
          },
          {
            "duration": 0.35624999999998863,
            "durationTicks": 114,
            "midi": 54,
            "name": "F#3",
            "ticks": 37320,
            "time": 116.625,
            "velocity": 0.44881889763779526
          },
          {
            "duration": 3.6000000000000085,
            "durationTicks": 1152,
            "midi": 47,
            "name": "B2",
            "ticks": 37440,
            "time": 117,
            "velocity": 0.44881889763779526
          },
          {
            "duration": 3.6000000000000085,
            "durationTicks": 1152,
            "midi": 50,
            "name": "D3",
            "ticks": 37440,
            "time": 117,
            "velocity": 0.44881889763779526
          },
          {
            "duration": 2.956249999999997,
            "durationTicks": 946,
            "midi": 43,
            "name": "G2",
            "ticks": 38880,
            "time": 121.5,
            "velocity": 0.41732283464566927
          },
          {
            "duration": 1.0562500000000057,
            "durationTicks": 338,
            "midi": 43,
            "name": "G2",
            "ticks": 39840,
            "time": 124.5,
            "velocity": 0.41732283464566927
          },
          {
            "duration": 0.35624999999998863,
            "durationTicks": 114,
            "midi": 42,
            "name": "F#2",
            "ticks": 40200,
            "time": 125.625,
            "velocity": 0.41732283464566927
          },
          {
            "duration": 3.6000000000000227,
            "durationTicks": 1152,
            "midi": 43,
            "name": "G2",
            "ticks": 40320,
            "time": 126,
            "velocity": 0.3937007874015748
          },
          {
            "duration": 8.100000000000023,
            "durationTicks": 2592,
            "midi": 40,
            "name": "E2",
            "ticks": 41760,
            "time": 130.5,
            "velocity": 0.4330708661417323
          },
          {
            "duration": 8.100000000000023,
            "durationTicks": 2592,
            "midi": 43,
            "name": "G2",
            "ticks": 41760,
            "time": 130.5,
            "velocity": 0.4330708661417323
          },
          {
            "duration": 18.600000000000023,
            "durationTicks": 5952,
            "midi": 40,
            "name": "E2",
            "ticks": 45600,
            "time": 142.5,
            "velocity": 0.5118110236220472
          },
          {
            "duration": 18.600000000000023,
            "durationTicks": 5952,
            "midi": 43,
            "name": "G2",
            "ticks": 45600,
            "time": 142.5,
            "velocity": 0.5118110236220472
          },
          {
            "duration": 1.40625,
            "durationTicks": 450,
            "midi": 50,
            "name": "D3",
            "ticks": 54240,
            "time": 169.5,
            "velocity": 0.3937007874015748
          },
          {
            "duration": 2.8125,
            "durationTicks": 900,
            "midi": 52,
            "name": "E3",
            "ticks": 54720,
            "time": 171,
            "velocity": 0.3937007874015748
          },
          {
            "duration": 1.40625,
            "durationTicks": 450,
            "midi": 55,
            "name": "G3",
            "ticks": 55680,
            "time": 174,
            "velocity": 0.3937007874015748
          },
          {
            "duration": 1.40625,
            "durationTicks": 450,
            "midi": 55,
            "name": "G3",
            "ticks": 56160,
            "time": 175.5,
            "velocity": 0.41732283464566927
          },
          {
            "duration": 1.40625,
            "durationTicks": 450,
            "midi": 54,
            "name": "F#3",
            "ticks": 56640,
            "time": 177,
            "velocity": 0.41732283464566927
          },
          {
            "duration": 1.40625,
            "durationTicks": 450,
            "midi": 53,
            "name": "F3",
            "ticks": 57120,
            "time": 178.5,
            "velocity": 0.41732283464566927
          },
          {
            "duration": 2.8125,
            "durationTicks": 900,
            "midi": 52,
            "name": "E3",
            "ticks": 57600,
            "time": 180,
            "velocity": 0.3937007874015748
          },
          {
            "duration": 1.40625,
            "durationTicks": 450,
            "midi": 55,
            "name": "G3",
            "ticks": 58560,
            "time": 183,
            "velocity": 0.3937007874015748
          },
          {
            "duration": 1.40625,
            "durationTicks": 450,
            "midi": 55,
            "name": "G3",
            "ticks": 59040,
            "time": 184.5,
            "velocity": 0.3700787401574803
          },
          {
            "duration": 1.40625,
            "durationTicks": 450,
            "midi": 54,
            "name": "F#3",
            "ticks": 59520,
            "time": 186,
            "velocity": 0.4015748031496063
          },
          {
            "duration": 1.40625,
            "durationTicks": 450,
            "midi": 52,
            "name": "E3",
            "ticks": 60000,
            "time": 187.5,
            "velocity": 0.4330708661417323
          },
          {
            "duration": 1.40625,
            "durationTicks": 450,
            "midi": 51,
            "name": "D#3",
            "ticks": 60480,
            "time": 189,
            "velocity": 0.4566929133858268
          },
          {
            "duration": 1.40625,
            "durationTicks": 450,
            "midi": 52,
            "name": "E3",
            "ticks": 60960,
            "time": 190.5,
            "velocity": 0.4881889763779528
          },
          {
            "duration": 1.40625,
            "durationTicks": 450,
            "midi": 49,
            "name": "C#3",
            "ticks": 61440,
            "time": 192,
            "velocity": 0.5196850393700787
          },
          {
            "duration": 1.40625,
            "durationTicks": 450,
            "midi": 49,
            "name": "C#3",
            "ticks": 61920,
            "time": 193.5,
            "velocity": 0.5433070866141733
          },
          {
            "duration": 1.40625,
            "durationTicks": 450,
            "midi": 51,
            "name": "D#3",
            "ticks": 62400,
            "time": 195,
            "velocity": 0.5748031496062992
          },
          {
            "duration": 1.40625,
            "durationTicks": 450,
            "midi": 42,
            "name": "F#2",
            "ticks": 62880,
            "time": 196.5,
            "velocity": 0.5984251968503937
          },
          {
            "duration": 2.90625,
            "durationTicks": 930,
            "midi": 43,
            "name": "G2",
            "ticks": 63360,
            "time": 198,
            "velocity": 0.6299212598425197
          },
          {
            "duration": 1.40625,
            "durationTicks": 450,
            "midi": 55,
            "name": "G3",
            "ticks": 64320,
            "time": 201,
            "velocity": 0.6299212598425197
          },
          {
            "duration": 2.8125,
            "durationTicks": 900,
            "midi": 55,
            "name": "G3",
            "ticks": 64800,
            "time": 202.5,
            "velocity": 0.6299212598425197
          },
          {
            "duration": 1.40625,
            "durationTicks": 450,
            "midi": 54,
            "name": "F#3",
            "ticks": 65760,
            "time": 205.5,
            "velocity": 0.47244094488188976
          },
          {
            "duration": 2.8125,
            "durationTicks": 900,
            "midi": 52,
            "name": "E3",
            "ticks": 66240,
            "time": 207,
            "velocity": 0.3700787401574803
          },
          {
            "duration": 1.40625,
            "durationTicks": 450,
            "midi": 53,
            "name": "F3",
            "ticks": 67200,
            "time": 210,
            "velocity": 0.3700787401574803
          },
          {
            "duration": 4.40625,
            "durationTicks": 1410,
            "midi": 54,
            "name": "F#3",
            "ticks": 67680,
            "time": 211.5,
            "velocity": 0.3700787401574803
          },
          {
            "duration": 2.8125,
            "durationTicks": 900,
            "midi": 52,
            "name": "E3",
            "ticks": 69120,
            "time": 216,
            "velocity": 0.3700787401574803
          },
          {
            "duration": 1.40625,
            "durationTicks": 450,
            "midi": 53,
            "name": "F3",
            "ticks": 70080,
            "time": 219,
            "velocity": 0.3700787401574803
          },
          {
            "duration": 4.40625,
            "durationTicks": 1410,
            "midi": 54,
            "name": "F#3",
            "ticks": 70560,
            "time": 220.5,
            "velocity": 0.3700787401574803
          },
          {
            "duration": 2.8125,
            "durationTicks": 900,
            "midi": 43,
            "name": "G2",
            "ticks": 72000,
            "time": 225,
            "velocity": 0.3937007874015748
          },
          {
            "duration": 1.40625,
            "durationTicks": 450,
            "midi": 44,
            "name": "G#2",
            "ticks": 72960,
            "time": 228,
            "velocity": 0.41732283464566927
          },
          {
            "duration": 2.8125,
            "durationTicks": 900,
            "midi": 45,
            "name": "A2",
            "ticks": 73440,
            "time": 229.5,
            "velocity": 0.4330708661417323
          },
          {
            "duration": 1.40625,
            "durationTicks": 450,
            "midi": 46,
            "name": "A#2",
            "ticks": 74400,
            "time": 232.5,
            "velocity": 0.4566929133858268
          },
          {
            "duration": 2.8125,
            "durationTicks": 900,
            "midi": 47,
            "name": "B2",
            "ticks": 74880,
            "time": 234,
            "velocity": 0.47244094488188976
          },
          {
            "duration": 1.40625,
            "durationTicks": 450,
            "midi": 47,
            "name": "B2",
            "ticks": 75840,
            "time": 237,
            "velocity": 0.49606299212598426
          },
          {
            "duration": 1.40625,
            "durationTicks": 450,
            "midi": 48,
            "name": "C3",
            "ticks": 76320,
            "time": 238.5,
            "velocity": 0.5118110236220472
          },
          {
            "duration": 1.40625,
            "durationTicks": 450,
            "midi": 49,
            "name": "C#3",
            "ticks": 76800,
            "time": 240,
            "velocity": 0.5275590551181102
          },
          {
            "duration": 1.40625,
            "durationTicks": 450,
            "midi": 50,
            "name": "D3",
            "ticks": 77280,
            "time": 241.5,
            "velocity": 0.5433070866141733
          },
          {
            "duration": 2.8125,
            "durationTicks": 900,
            "midi": 52,
            "name": "E3",
            "ticks": 77760,
            "time": 243,
            "velocity": 0.3937007874015748
          },
          {
            "duration": 1.40625,
            "durationTicks": 450,
            "midi": 55,
            "name": "G3",
            "ticks": 78720,
            "time": 246,
            "velocity": 0.4094488188976378
          },
          {
            "duration": 1.40625,
            "durationTicks": 450,
            "midi": 55,
            "name": "G3",
            "ticks": 79200,
            "time": 247.5,
            "velocity": 0.4251968503937008
          },
          {
            "duration": 1.40625,
            "durationTicks": 450,
            "midi": 54,
            "name": "F#3",
            "ticks": 79680,
            "time": 249,
            "velocity": 0.4330708661417323
          },
          {
            "duration": 1.40625,
            "durationTicks": 450,
            "midi": 53,
            "name": "F3",
            "ticks": 80160,
            "time": 250.5,
            "velocity": 0.4409448818897638
          },
          {
            "duration": 2.8125,
            "durationTicks": 900,
            "midi": 52,
            "name": "E3",
            "ticks": 80640,
            "time": 252,
            "velocity": 0.4566929133858268
          },
          {
            "duration": 1.40625,
            "durationTicks": 450,
            "midi": 55,
            "name": "G3",
            "ticks": 81600,
            "time": 255,
            "velocity": 0.47244094488188976
          },
          {
            "duration": 1.40625,
            "durationTicks": 450,
            "midi": 55,
            "name": "G3",
            "ticks": 82080,
            "time": 256.5,
            "velocity": 0.4881889763779528
          },
          {
            "duration": 1.40625,
            "durationTicks": 450,
            "midi": 54,
            "name": "F#3",
            "ticks": 82560,
            "time": 258,
            "velocity": 0.49606299212598426
          },
          {
            "duration": 1.40625,
            "durationTicks": 450,
            "midi": 52,
            "name": "E3",
            "ticks": 83040,
            "time": 259.5,
            "velocity": 0.5039370078740157
          },
          {
            "duration": 1.40625,
            "durationTicks": 450,
            "midi": 51,
            "name": "D#3",
            "ticks": 83520,
            "time": 261,
            "velocity": 0.5196850393700787
          },
          {
            "duration": 1.40625,
            "durationTicks": 450,
            "midi": 52,
            "name": "E3",
            "ticks": 84000,
            "time": 262.5,
            "velocity": 0.5275590551181102
          },
          {
            "duration": 1.40625,
            "durationTicks": 450,
            "midi": 49,
            "name": "C#3",
            "ticks": 84480,
            "time": 264,
            "velocity": 0.5433070866141733
          },
          {
            "duration": 1.40625,
            "durationTicks": 450,
            "midi": 49,
            "name": "C#3",
            "ticks": 84960,
            "time": 265.5,
            "velocity": 0.5511811023622047
          },
          {
            "duration": 1.40625,
            "durationTicks": 450,
            "midi": 51,
            "name": "D#3",
            "ticks": 85440,
            "time": 267,
            "velocity": 0.5590551181102362
          },
          {
            "duration": 1.40625,
            "durationTicks": 450,
            "midi": 42,
            "name": "F#2",
            "ticks": 85920,
            "time": 268.5,
            "velocity": 0.5748031496062992
          },
          {
            "duration": 6.899999999999977,
            "durationTicks": 2208,
            "midi": 43,
            "name": "G2",
            "ticks": 86400,
            "time": 270,
            "velocity": 0.5826771653543307
          },
          {
            "duration": 1.40625,
            "durationTicks": 450,
            "midi": 62,
            "name": "D4",
            "ticks": 88800,
            "time": 277.5,
            "velocity": 0.7480314960629921
          },
          {
            "duration": 1.40625,
            "durationTicks": 450,
            "midi": 62,
            "name": "D4",
            "ticks": 89280,
            "time": 279,
            "velocity": 0.7480314960629921
          },
          {
            "duration": 1.40625,
            "durationTicks": 450,
            "midi": 61,
            "name": "C#4",
            "ticks": 89760,
            "time": 280.5,
            "velocity": 0.7480314960629921
          },
          {
            "duration": 1.40625,
            "durationTicks": 450,
            "midi": 59,
            "name": "B3",
            "ticks": 90240,
            "time": 282,
            "velocity": 0.7480314960629921
          },
          {
            "duration": 2.90625,
            "durationTicks": 930,
            "midi": 57,
            "name": "A3",
            "ticks": 90720,
            "time": 283.5,
            "velocity": 0.7952755905511811
          },
          {
            "duration": 1.40625,
            "durationTicks": 450,
            "midi": 62,
            "name": "D4",
            "ticks": 91680,
            "time": 286.5,
            "velocity": 0.7952755905511811
          },
          {
            "duration": 1.40625,
            "durationTicks": 450,
            "midi": 62,
            "name": "D4",
            "ticks": 92160,
            "time": 288,
            "velocity": 0.7480314960629921
          },
          {
            "duration": 1.40625,
            "durationTicks": 450,
            "midi": 61,
            "name": "C#4",
            "ticks": 92640,
            "time": 289.5,
            "velocity": 0.7480314960629921
          },
          {
            "duration": 1.40625,
            "durationTicks": 450,
            "midi": 59,
            "name": "B3",
            "ticks": 93120,
            "time": 291,
            "velocity": 0.7480314960629921
          },
          {
            "duration": 2.90625,
            "durationTicks": 930,
            "midi": 57,
            "name": "A3",
            "ticks": 93600,
            "time": 292.5,
            "velocity": 0.7952755905511811
          },
          {
            "duration": 1.40625,
            "durationTicks": 450,
            "midi": 62,
            "name": "D4",
            "ticks": 94560,
            "time": 295.5,
            "velocity": 0.7952755905511811
          },
          {
            "duration": 1.40625,
            "durationTicks": 450,
            "midi": 63,
            "name": "D#4",
            "ticks": 95040,
            "time": 297,
            "velocity": 0.7952755905511811
          },
          {
            "duration": 1.40625,
            "durationTicks": 450,
            "midi": 64,
            "name": "E4",
            "ticks": 95520,
            "time": 298.5,
            "velocity": 0.7952755905511811
          },
          {
            "duration": 1.40625,
            "durationTicks": 450,
            "midi": 64,
            "name": "E4",
            "ticks": 96000,
            "time": 300,
            "velocity": 0.7952755905511811
          },
          {
            "duration": 1.40625,
            "durationTicks": 450,
            "midi": 65,
            "name": "F4",
            "ticks": 96480,
            "time": 301.5,
            "velocity": 0.7952755905511811
          },
          {
            "duration": 1.40625,
            "durationTicks": 450,
            "midi": 66,
            "name": "F#4",
            "ticks": 96960,
            "time": 303,
            "velocity": 0.7952755905511811
          },
          {
            "duration": 1.40625,
            "durationTicks": 450,
            "midi": 66,
            "name": "F#4",
            "ticks": 97440,
            "time": 304.5,
            "velocity": 0.7952755905511811
          },
          {
            "duration": 1.40625,
            "durationTicks": 450,
            "midi": 66,
            "name": "F#4",
            "ticks": 97920,
            "time": 306,
            "velocity": 0.7874015748031497
          },
          {
            "duration": 1.40625,
            "durationTicks": 450,
            "midi": 67,
            "name": "G4",
            "ticks": 98400,
            "time": 307.5,
            "velocity": 0.8110236220472441
          },
          {
            "duration": 1.40625,
            "durationTicks": 450,
            "midi": 67,
            "name": "G4",
            "ticks": 98880,
            "time": 309,
            "velocity": 0.8346456692913385
          },
          {
            "duration": 1.40625,
            "durationTicks": 450,
            "midi": 68,
            "name": "G#4",
            "ticks": 99360,
            "time": 310.5,
            "velocity": 0.8582677165354331
          },
          {
            "duration": 1.40625,
            "durationTicks": 450,
            "midi": 69,
            "name": "A4",
            "ticks": 99840,
            "time": 312,
            "velocity": 0.8818897637795275
          },
          {
            "duration": 1.40625,
            "durationTicks": 450,
            "midi": 70,
            "name": "A#4",
            "ticks": 100320,
            "time": 313.5,
            "velocity": 0.905511811023622
          },
          {
            "duration": 5.206250000000011,
            "durationTicks": 1666,
            "midi": 71,
            "name": "B4",
            "ticks": 100800,
            "time": 315,
            "velocity": 1
          },
          {
            "duration": 0.7062500000000114,
            "durationTicks": 226,
            "midi": 69,
            "name": "A4",
            "ticks": 102480,
            "time": 320.25,
            "velocity": 1
          },
          {
            "duration": 0.7062500000000114,
            "durationTicks": 226,
            "midi": 67,
            "name": "G4",
            "ticks": 102720,
            "time": 321,
            "velocity": 1
          },
          {
            "duration": 0.7062500000000114,
            "durationTicks": 226,
            "midi": 66,
            "name": "F#4",
            "ticks": 102960,
            "time": 321.75,
            "velocity": 1
          },
          {
            "duration": 0.7062500000000114,
            "durationTicks": 226,
            "midi": 64,
            "name": "E4",
            "ticks": 103200,
            "time": 322.5,
            "velocity": 1
          },
          {
            "duration": 0.7062500000000114,
            "durationTicks": 226,
            "midi": 62,
            "name": "D4",
            "ticks": 103440,
            "time": 323.25,
            "velocity": 1
          },
          {
            "duration": 5.206250000000011,
            "durationTicks": 1666,
            "midi": 67,
            "name": "G4",
            "ticks": 103680,
            "time": 324,
            "velocity": 1
          },
          {
            "duration": 0.7062500000000114,
            "durationTicks": 226,
            "midi": 66,
            "name": "F#4",
            "ticks": 105360,
            "time": 329.25,
            "velocity": 1
          },
          {
            "duration": 0.7062500000000114,
            "durationTicks": 226,
            "midi": 64,
            "name": "E4",
            "ticks": 105600,
            "time": 330,
            "velocity": 1
          },
          {
            "duration": 0.7062500000000114,
            "durationTicks": 226,
            "midi": 62,
            "name": "D4",
            "ticks": 105840,
            "time": 330.75,
            "velocity": 1
          },
          {
            "duration": 0.7062500000000114,
            "durationTicks": 226,
            "midi": 60,
            "name": "C4",
            "ticks": 106080,
            "time": 331.5,
            "velocity": 1
          },
          {
            "duration": 0.7062500000000114,
            "durationTicks": 226,
            "midi": 59,
            "name": "B3",
            "ticks": 106320,
            "time": 332.25,
            "velocity": 1
          },
          {
            "duration": 5.206250000000011,
            "durationTicks": 1666,
            "midi": 64,
            "name": "E4",
            "ticks": 106560,
            "time": 333,
            "velocity": 1
          },
          {
            "duration": 0.7062500000000114,
            "durationTicks": 226,
            "midi": 62,
            "name": "D4",
            "ticks": 108240,
            "time": 338.25,
            "velocity": 1
          },
          {
            "duration": 0.7062500000000114,
            "durationTicks": 226,
            "midi": 60,
            "name": "C4",
            "ticks": 108480,
            "time": 339,
            "velocity": 1
          },
          {
            "duration": 0.7062500000000114,
            "durationTicks": 226,
            "midi": 59,
            "name": "B3",
            "ticks": 108720,
            "time": 339.75,
            "velocity": 1
          },
          {
            "duration": 0.7062500000000114,
            "durationTicks": 226,
            "midi": 57,
            "name": "A3",
            "ticks": 108960,
            "time": 340.5,
            "velocity": 1
          },
          {
            "duration": 0.7062500000000114,
            "durationTicks": 226,
            "midi": 55,
            "name": "G3",
            "ticks": 109200,
            "time": 341.25,
            "velocity": 1
          },
          {
            "duration": 0.46875,
            "durationTicks": 150,
            "midi": 60,
            "name": "C4",
            "ticks": 109440,
            "time": 342,
            "velocity": 1
          },
          {
            "duration": 0.46875,
            "durationTicks": 150,
            "midi": 59,
            "name": "B3",
            "ticks": 109600,
            "time": 342.5,
            "velocity": 1
          },
          {
            "duration": 0.46875,
            "durationTicks": 150,
            "midi": 57,
            "name": "A3",
            "ticks": 109760,
            "time": 343,
            "velocity": 1
          },
          {
            "duration": 0.46875,
            "durationTicks": 150,
            "midi": 55,
            "name": "G3",
            "ticks": 109920,
            "time": 343.5,
            "velocity": 1
          },
          {
            "duration": 0.46875,
            "durationTicks": 150,
            "midi": 53,
            "name": "F3",
            "ticks": 110080,
            "time": 344,
            "velocity": 1
          },
          {
            "duration": 0.46875,
            "durationTicks": 150,
            "midi": 52,
            "name": "E3",
            "ticks": 110240,
            "time": 344.5,
            "velocity": 1
          },
          {
            "duration": 0.46875,
            "durationTicks": 150,
            "midi": 57,
            "name": "A3",
            "ticks": 110400,
            "time": 345,
            "velocity": 1
          },
          {
            "duration": 0.46875,
            "durationTicks": 150,
            "midi": 55,
            "name": "G3",
            "ticks": 110560,
            "time": 345.5,
            "velocity": 1
          },
          {
            "duration": 0.46875,
            "durationTicks": 150,
            "midi": 53,
            "name": "F3",
            "ticks": 110720,
            "time": 346,
            "velocity": 1
          },
          {
            "duration": 0.46875,
            "durationTicks": 150,
            "midi": 52,
            "name": "E3",
            "ticks": 110880,
            "time": 346.5,
            "velocity": 1
          },
          {
            "duration": 0.46875,
            "durationTicks": 150,
            "midi": 50,
            "name": "D3",
            "ticks": 111040,
            "time": 347,
            "velocity": 1
          },
          {
            "duration": 0.46875,
            "durationTicks": 150,
            "midi": 48,
            "name": "C3",
            "ticks": 111200,
            "time": 347.5,
            "velocity": 1
          },
          {
            "duration": 0.3562500000000455,
            "durationTicks": 114,
            "midi": 55,
            "name": "G3",
            "ticks": 111360,
            "time": 348,
            "velocity": 1
          },
          {
            "duration": 0.3562500000000455,
            "durationTicks": 114,
            "midi": 65,
            "name": "F4",
            "ticks": 111480,
            "time": 348.375,
            "velocity": 1
          },
          {
            "duration": 0.3562500000000455,
            "durationTicks": 114,
            "midi": 64,
            "name": "E4",
            "ticks": 111600,
            "time": 348.75,
            "velocity": 1
          },
          {
            "duration": 0.3562500000000455,
            "durationTicks": 114,
            "midi": 62,
            "name": "D4",
            "ticks": 111720,
            "time": 349.125,
            "velocity": 1
          },
          {
            "duration": 0.3562500000000455,
            "durationTicks": 114,
            "midi": 60,
            "name": "C4",
            "ticks": 111840,
            "time": 349.5,
            "velocity": 1
          },
          {
            "duration": 0.3562500000000455,
            "durationTicks": 114,
            "midi": 59,
            "name": "B3",
            "ticks": 111960,
            "time": 349.875,
            "velocity": 1
          },
          {
            "duration": 0.3562500000000455,
            "durationTicks": 114,
            "midi": 57,
            "name": "A3",
            "ticks": 112080,
            "time": 350.25,
            "velocity": 1
          },
          {
            "duration": 0.3562500000000455,
            "durationTicks": 114,
            "midi": 55,
            "name": "G3",
            "ticks": 112200,
            "time": 350.625,
            "velocity": 1
          },
          {
            "duration": 0.3562500000000455,
            "durationTicks": 114,
            "midi": 64,
            "name": "E4",
            "ticks": 112320,
            "time": 351,
            "velocity": 1
          },
          {
            "duration": 0.3562500000000455,
            "durationTicks": 114,
            "midi": 62,
            "name": "D4",
            "ticks": 112440,
            "time": 351.375,
            "velocity": 1
          },
          {
            "duration": 0.3562500000000455,
            "durationTicks": 114,
            "midi": 60,
            "name": "C4",
            "ticks": 112560,
            "time": 351.75,
            "velocity": 1
          },
          {
            "duration": 0.3562500000000455,
            "durationTicks": 114,
            "midi": 59,
            "name": "B3",
            "ticks": 112680,
            "time": 352.125,
            "velocity": 1
          },
          {
            "duration": 0.3562500000000455,
            "durationTicks": 114,
            "midi": 57,
            "name": "A3",
            "ticks": 112800,
            "time": 352.5,
            "velocity": 1
          },
          {
            "duration": 0.3562500000000455,
            "durationTicks": 114,
            "midi": 55,
            "name": "G3",
            "ticks": 112920,
            "time": 352.875,
            "velocity": 1
          },
          {
            "duration": 0.3562500000000455,
            "durationTicks": 114,
            "midi": 53,
            "name": "F3",
            "ticks": 113040,
            "time": 353.25,
            "velocity": 1
          },
          {
            "duration": 0.3562500000000455,
            "durationTicks": 114,
            "midi": 52,
            "name": "E3",
            "ticks": 113160,
            "time": 353.625,
            "velocity": 1
          },
          {
            "duration": 0.23750000000001137,
            "durationTicks": 76,
            "midi": 60,
            "name": "C4",
            "ticks": 113280,
            "time": 354,
            "velocity": 1
          },
          {
            "duration": 0.23749999999995453,
            "durationTicks": 76,
            "midi": 59,
            "name": "B3",
            "ticks": 113360,
            "time": 354.25,
            "velocity": 1
          },
          {
            "duration": 0.23750000000001137,
            "durationTicks": 76,
            "midi": 57,
            "name": "A3",
            "ticks": 113440,
            "time": 354.5,
            "velocity": 1
          },
          {
            "duration": 0.23750000000001137,
            "durationTicks": 76,
            "midi": 55,
            "name": "G3",
            "ticks": 113520,
            "time": 354.75,
            "velocity": 1
          },
          {
            "duration": 0.23749999999995453,
            "durationTicks": 76,
            "midi": 53,
            "name": "F3",
            "ticks": 113600,
            "time": 355,
            "velocity": 1
          },
          {
            "duration": 0.23750000000001137,
            "durationTicks": 76,
            "midi": 52,
            "name": "E3",
            "ticks": 113680,
            "time": 355.25,
            "velocity": 1
          },
          {
            "duration": 0.23750000000001137,
            "durationTicks": 76,
            "midi": 57,
            "name": "A3",
            "ticks": 113760,
            "time": 355.5,
            "velocity": 1
          },
          {
            "duration": 0.23749999999995453,
            "durationTicks": 76,
            "midi": 55,
            "name": "G3",
            "ticks": 113840,
            "time": 355.75,
            "velocity": 1
          },
          {
            "duration": 0.23750000000001137,
            "durationTicks": 76,
            "midi": 53,
            "name": "F3",
            "ticks": 113920,
            "time": 356,
            "velocity": 1
          },
          {
            "duration": 0.23750000000001137,
            "durationTicks": 76,
            "midi": 52,
            "name": "E3",
            "ticks": 114000,
            "time": 356.25,
            "velocity": 1
          },
          {
            "duration": 0.23749999999995453,
            "durationTicks": 76,
            "midi": 50,
            "name": "D3",
            "ticks": 114080,
            "time": 356.5,
            "velocity": 1
          },
          {
            "duration": 0.23750000000001137,
            "durationTicks": 76,
            "midi": 48,
            "name": "C3",
            "ticks": 114160,
            "time": 356.75,
            "velocity": 1
          },
          {
            "duration": 0.23750000000001137,
            "durationTicks": 76,
            "midi": 52,
            "name": "E3",
            "ticks": 114240,
            "time": 357,
            "velocity": 1
          },
          {
            "duration": 0.23749999999995453,
            "durationTicks": 76,
            "midi": 50,
            "name": "D3",
            "ticks": 114320,
            "time": 357.25,
            "velocity": 1
          },
          {
            "duration": 0.23750000000001137,
            "durationTicks": 76,
            "midi": 48,
            "name": "C3",
            "ticks": 114400,
            "time": 357.5,
            "velocity": 1
          },
          {
            "duration": 0.23750000000001137,
            "durationTicks": 76,
            "midi": 47,
            "name": "B2",
            "ticks": 114480,
            "time": 357.75,
            "velocity": 1
          },
          {
            "duration": 0.23749999999995453,
            "durationTicks": 76,
            "midi": 45,
            "name": "A2",
            "ticks": 114560,
            "time": 358,
            "velocity": 1
          },
          {
            "duration": 0.23750000000001137,
            "durationTicks": 76,
            "midi": 43,
            "name": "G2",
            "ticks": 114640,
            "time": 358.25,
            "velocity": 1
          },
          {
            "duration": 0.19999999999998863,
            "durationTicks": 64,
            "midi": 48,
            "name": "C3",
            "ticks": 114720,
            "time": 358.5,
            "velocity": 1
          },
          {
            "duration": 0.19999999999998863,
            "durationTicks": 64,
            "midi": 47,
            "name": "B2",
            "ticks": 114788,
            "time": 358.71250000000003,
            "velocity": 1
          },
          {
            "duration": 0.19999999999998863,
            "durationTicks": 64,
            "midi": 45,
            "name": "A2",
            "ticks": 114856,
            "time": 358.925,
            "velocity": 1
          },
          {
            "duration": 0.1999999999999318,
            "durationTicks": 64,
            "midi": 43,
            "name": "G2",
            "ticks": 114924,
            "time": 359.13750000000005,
            "velocity": 1
          },
          {
            "duration": 0.1999999999999318,
            "durationTicks": 64,
            "midi": 41,
            "name": "F2",
            "ticks": 114992,
            "time": 359.35,
            "velocity": 1
          },
          {
            "duration": 0.19999999999998863,
            "durationTicks": 64,
            "midi": 40,
            "name": "E2",
            "ticks": 115060,
            "time": 359.5625,
            "velocity": 1
          },
          {
            "duration": 0.19999999999998863,
            "durationTicks": 64,
            "midi": 38,
            "name": "D2",
            "ticks": 115128,
            "time": 359.775,
            "velocity": 1
          },
          {
            "duration": 0.7062500000000114,
            "durationTicks": 226,
            "midi": 36,
            "name": "C2",
            "ticks": 115200,
            "time": 360,
            "velocity": 1
          },
          {
            "duration": 0.7062500000000114,
            "durationTicks": 226,
            "midi": 48,
            "name": "C3",
            "ticks": 115440,
            "time": 360.75,
            "velocity": 1
          },
          {
            "duration": 1.40625,
            "durationTicks": 450,
            "midi": 67,
            "name": "G4",
            "ticks": 119040,
            "time": 372,
            "velocity": 0.8267716535433071
          },
          {
            "duration": 1.40625,
            "durationTicks": 450,
            "midi": 67,
            "name": "G4",
            "ticks": 119520,
            "time": 373.5,
            "velocity": 0.8267716535433071
          },
          {
            "duration": 1.40625,
            "durationTicks": 450,
            "midi": 66,
            "name": "F#4",
            "ticks": 120000,
            "time": 375,
            "velocity": 0.8267716535433071
          },
          {
            "duration": 1.40625,
            "durationTicks": 450,
            "midi": 64,
            "name": "E4",
            "ticks": 120480,
            "time": 376.5,
            "velocity": 0.8267716535433071
          },
          {
            "duration": 1.40625,
            "durationTicks": 450,
            "midi": 62,
            "name": "D4",
            "ticks": 120960,
            "time": 378,
            "velocity": 0.8267716535433071
          },
          {
            "duration": 1.40625,
            "durationTicks": 450,
            "midi": 47,
            "name": "B2",
            "ticks": 122400,
            "time": 382.5,
            "velocity": 0.7086614173228346
          },
          {
            "duration": 1.40625,
            "durationTicks": 450,
            "midi": 49,
            "name": "C#3",
            "ticks": 122880,
            "time": 384,
            "velocity": 0.7086614173228346
          },
          {
            "duration": 1.40625,
            "durationTicks": 450,
            "midi": 50,
            "name": "D3",
            "ticks": 123360,
            "time": 385.5,
            "velocity": 0.7086614173228346
          },
          {
            "duration": 1.40625,
            "durationTicks": 450,
            "midi": 49,
            "name": "C#3",
            "ticks": 123840,
            "time": 387,
            "velocity": 0.7086614173228346
          },
          {
            "duration": 0.7062500000000682,
            "durationTicks": 226,
            "midi": 51,
            "name": "D#3",
            "ticks": 125040,
            "time": 390.75,
            "velocity": 0.7086614173228346
          },
          {
            "duration": 1.40625,
            "durationTicks": 450,
            "midi": 52,
            "name": "E3",
            "ticks": 125280,
            "time": 391.5,
            "velocity": 0.7086614173228346
          },
          {
            "duration": 0.7062500000000682,
            "durationTicks": 226,
            "midi": 49,
            "name": "C#3",
            "ticks": 126480,
            "time": 395.25,
            "velocity": 0.5905511811023622
          },
          {
            "duration": 1.40625,
            "durationTicks": 450,
            "midi": 50,
            "name": "D3",
            "ticks": 126720,
            "time": 396,
            "velocity": 0.5905511811023622
          },
          {
            "duration": 3.3562500000000455,
            "durationTicks": 1074,
            "midi": 50,
            "name": "D3",
            "ticks": 127680,
            "time": 399,
            "velocity": 0.5905511811023622
          },
          {
            "duration": 0.3562500000000455,
            "durationTicks": 114,
            "midi": 50,
            "name": "D3",
            "ticks": 128760,
            "time": 402.375,
            "velocity": 0.6141732283464567
          },
          {
            "duration": 0.3562500000000455,
            "durationTicks": 114,
            "midi": 52,
            "name": "E3",
            "ticks": 128880,
            "time": 402.75,
            "velocity": 0.6377952755905512
          },
          {
            "duration": 0.3562500000000455,
            "durationTicks": 114,
            "midi": 54,
            "name": "F#3",
            "ticks": 129000,
            "time": 403.125,
            "velocity": 0.6614173228346457
          },
          {
            "duration": 0.3562500000000455,
            "durationTicks": 114,
            "midi": 55,
            "name": "G3",
            "ticks": 129120,
            "time": 403.5,
            "velocity": 0.6929133858267716
          },
          {
            "duration": 0.3562500000000455,
            "durationTicks": 114,
            "midi": 58,
            "name": "A#3",
            "ticks": 129240,
            "time": 403.875,
            "velocity": 0.7165354330708661
          },
          {
            "duration": 0.3562500000000455,
            "durationTicks": 114,
            "midi": 59,
            "name": "B3",
            "ticks": 129360,
            "time": 404.25,
            "velocity": 0.7401574803149606
          },
          {
            "duration": 0.3562500000000455,
            "durationTicks": 114,
            "midi": 61,
            "name": "C#4",
            "ticks": 129480,
            "time": 404.625,
            "velocity": 0.7637795275590551
          },
          {
            "duration": 1.40625,
            "durationTicks": 450,
            "midi": 62,
            "name": "D4",
            "ticks": 129600,
            "time": 405,
            "velocity": 0.8661417322834646
          },
          {
            "duration": 0.7062500000000682,
            "durationTicks": 226,
            "midi": 61,
            "name": "C#4",
            "ticks": 130080,
            "time": 406.5,
            "velocity": 0.8661417322834646
          },
          {
            "duration": 0.7062500000000682,
            "durationTicks": 226,
            "midi": 59,
            "name": "B3",
            "ticks": 130320,
            "time": 407.25,
            "velocity": 0.8661417322834646
          },
          {
            "duration": 1.0562499999999773,
            "durationTicks": 338,
            "midi": 56,
            "name": "G#3",
            "ticks": 130560,
            "time": 408,
            "velocity": 0.8582677165354331
          },
          {
            "duration": 0.3562500000000455,
            "durationTicks": 114,
            "midi": 55,
            "name": "G3",
            "ticks": 130920,
            "time": 409.125,
            "velocity": 0.8110236220472441
          },
          {
            "duration": 3.706250000000068,
            "durationTicks": 1186,
            "midi": 54,
            "name": "F#3",
            "ticks": 131040,
            "time": 409.5,
            "velocity": 0.7086614173228346
          },
          {
            "duration": 1.40625,
            "durationTicks": 450,
            "midi": 62,
            "name": "D4",
            "ticks": 132480,
            "time": 414,
            "velocity": 0.8661417322834646
          },
          {
            "duration": 0.7062500000000682,
            "durationTicks": 226,
            "midi": 61,
            "name": "C#4",
            "ticks": 132960,
            "time": 415.5,
            "velocity": 0.8661417322834646
          },
          {
            "duration": 0.7062500000000682,
            "durationTicks": 226,
            "midi": 59,
            "name": "B3",
            "ticks": 133200,
            "time": 416.25,
            "velocity": 0.8661417322834646
          },
          {
            "duration": 1.0562499999999773,
            "durationTicks": 338,
            "midi": 56,
            "name": "G#3",
            "ticks": 133440,
            "time": 417,
            "velocity": 0.8582677165354331
          },
          {
            "duration": 0.3562500000000455,
            "durationTicks": 114,
            "midi": 55,
            "name": "G3",
            "ticks": 133800,
            "time": 418.125,
            "velocity": 0.8110236220472441
          },
          {
            "duration": 3.706250000000068,
            "durationTicks": 1186,
            "midi": 54,
            "name": "F#3",
            "ticks": 133920,
            "time": 418.5,
            "velocity": 0.7086614173228346
          },
          {
            "duration": 2.956250000000068,
            "durationTicks": 946,
            "midi": 50,
            "name": "D3",
            "ticks": 135360,
            "time": 423,
            "velocity": 0.44881889763779526
          },
          {
            "duration": 1.0562499999999773,
            "durationTicks": 338,
            "midi": 50,
            "name": "D3",
            "ticks": 136320,
            "time": 426,
            "velocity": 0.44881889763779526
          },
          {
            "duration": 0.3562500000000455,
            "durationTicks": 114,
            "midi": 49,
            "name": "C#3",
            "ticks": 136680,
            "time": 427.125,
            "velocity": 0.44881889763779526
          },
          {
            "duration": 3.599999999999966,
            "durationTicks": 1152,
            "midi": 50,
            "name": "D3",
            "ticks": 136800,
            "time": 427.5,
            "velocity": 0.44881889763779526
          },
          {
            "duration": 2.956250000000068,
            "durationTicks": 946,
            "midi": 47,
            "name": "B2",
            "ticks": 138240,
            "time": 432,
            "velocity": 0.44881889763779526
          },
          {
            "duration": 2.956250000000068,
            "durationTicks": 946,
            "midi": 55,
            "name": "G3",
            "ticks": 138240,
            "time": 432,
            "velocity": 0.44881889763779526
          },
          {
            "duration": 1.0562499999999773,
            "durationTicks": 338,
            "midi": 47,
            "name": "B2",
            "ticks": 139200,
            "time": 435,
            "velocity": 0.44881889763779526
          },
          {
            "duration": 1.0562499999999773,
            "durationTicks": 338,
            "midi": 55,
            "name": "G3",
            "ticks": 139200,
            "time": 435,
            "velocity": 0.44881889763779526
          },
          {
            "duration": 0.3562500000000455,
            "durationTicks": 114,
            "midi": 46,
            "name": "A#2",
            "ticks": 139560,
            "time": 436.125,
            "velocity": 0.44881889763779526
          },
          {
            "duration": 0.3562500000000455,
            "durationTicks": 114,
            "midi": 54,
            "name": "F#3",
            "ticks": 139560,
            "time": 436.125,
            "velocity": 0.44881889763779526
          },
          {
            "duration": 3.599999999999966,
            "durationTicks": 1152,
            "midi": 47,
            "name": "B2",
            "ticks": 139680,
            "time": 436.5,
            "velocity": 0.44881889763779526
          },
          {
            "duration": 3.599999999999966,
            "durationTicks": 1152,
            "midi": 50,
            "name": "D3",
            "ticks": 139680,
            "time": 436.5,
            "velocity": 0.44881889763779526
          },
          {
            "duration": 4.21875,
            "durationTicks": 1350,
            "midi": 43,
            "name": "G2",
            "ticks": 141120,
            "time": 441,
            "velocity": 0.6299212598425197
          },
          {
            "duration": 4.21875,
            "durationTicks": 1350,
            "midi": 42,
            "name": "F#2",
            "ticks": 142560,
            "time": 445.5,
            "velocity": 0.6299212598425197
          },
          {
            "duration": 1.40625,
            "durationTicks": 450,
            "midi": 54,
            "name": "F#3",
            "ticks": 144000,
            "time": 450,
            "velocity": 0.6062992125984252
          },
          {
            "duration": 2.8125,
            "durationTicks": 900,
            "midi": 52,
            "name": "E3",
            "ticks": 144480,
            "time": 451.5,
            "velocity": 0.6929133858267716
          },
          {
            "duration": 8.206250000000068,
            "durationTicks": 2626,
            "midi": 61,
            "name": "C#4",
            "ticks": 145440,
            "time": 454.5,
            "velocity": 0.7086614173228346
          },
          {
            "duration": 0.2375000000000682,
            "durationTicks": 76,
            "midi": 46,
            "name": "A#2",
            "ticks": 148560,
            "time": 464.25,
            "velocity": 0.6692913385826772
          },
          {
            "duration": 0.23749999999995453,
            "durationTicks": 76,
            "midi": 55,
            "name": "G3",
            "ticks": 148640,
            "time": 464.5,
            "velocity": 0.6850393700787402
          },
          {
            "duration": 0.23750000000001137,
            "durationTicks": 76,
            "midi": 43,
            "name": "G2",
            "ticks": 148720,
            "time": 464.75,
            "velocity": 0.6929133858267716
          },
          {
            "duration": 0.2375000000000682,
            "durationTicks": 76,
            "midi": 52,
            "name": "E3",
            "ticks": 148800,
            "time": 465,
            "velocity": 0.7086614173228346
          },
          {
            "duration": 0.23749999999995453,
            "durationTicks": 76,
            "midi": 53,
            "name": "F3",
            "ticks": 148880,
            "time": 465.25,
            "velocity": 0.7244094488188977
          },
          {
            "duration": 0.23750000000001137,
            "durationTicks": 76,
            "midi": 54,
            "name": "F#3",
            "ticks": 148960,
            "time": 465.5,
            "velocity": 0.7322834645669292
          },
          {
            "duration": 0.2375000000000682,
            "durationTicks": 76,
            "midi": 55,
            "name": "G3",
            "ticks": 149040,
            "time": 465.75,
            "velocity": 0.7480314960629921
          },
          {
            "duration": 0.23749999999995453,
            "durationTicks": 76,
            "midi": 56,
            "name": "G#3",
            "ticks": 149120,
            "time": 466,
            "velocity": 0.7637795275590551
          },
          {
            "duration": 0.23750000000001137,
            "durationTicks": 76,
            "midi": 57,
            "name": "A3",
            "ticks": 149200,
            "time": 466.25,
            "velocity": 0.7716535433070866
          },
          {
            "duration": 0.2375000000000682,
            "durationTicks": 76,
            "midi": 58,
            "name": "A#3",
            "ticks": 149280,
            "time": 466.5,
            "velocity": 0.7874015748031497
          },
          {
            "duration": 0.23749999999995453,
            "durationTicks": 76,
            "midi": 59,
            "name": "B3",
            "ticks": 149360,
            "time": 466.75,
            "velocity": 0.8031496062992126
          },
          {
            "duration": 0.23750000000001137,
            "durationTicks": 76,
            "midi": 60,
            "name": "C4",
            "ticks": 149440,
            "time": 467,
            "velocity": 0.8110236220472441
          },
          {
            "duration": 0.2375000000000682,
            "durationTicks": 76,
            "midi": 61,
            "name": "C#4",
            "ticks": 149520,
            "time": 467.25,
            "velocity": 0.8267716535433071
          },
          {
            "duration": 0.23749999999995453,
            "durationTicks": 76,
            "midi": 62,
            "name": "D4",
            "ticks": 149600,
            "time": 467.5,
            "velocity": 0.84251968503937
          },
          {
            "duration": 0.23750000000001137,
            "durationTicks": 76,
            "midi": 63,
            "name": "D#4",
            "ticks": 149680,
            "time": 467.75,
            "velocity": 0.8503937007874016
          },
          {
            "duration": 1.40625,
            "durationTicks": 450,
            "midi": 62,
            "name": "D4",
            "ticks": 149760,
            "time": 468,
            "velocity": 0.8661417322834646
          },
          {
            "duration": 0.7062500000000682,
            "durationTicks": 226,
            "midi": 61,
            "name": "C#4",
            "ticks": 150240,
            "time": 469.5,
            "velocity": 0.8661417322834646
          },
          {
            "duration": 0.7062500000000682,
            "durationTicks": 226,
            "midi": 59,
            "name": "B3",
            "ticks": 150480,
            "time": 470.25,
            "velocity": 0.8661417322834646
          },
          {
            "duration": 1.0562499999999773,
            "durationTicks": 338,
            "midi": 56,
            "name": "G#3",
            "ticks": 150720,
            "time": 471,
            "velocity": 0.8582677165354331
          },
          {
            "duration": 0.3562500000000455,
            "durationTicks": 114,
            "midi": 55,
            "name": "G3",
            "ticks": 151080,
            "time": 472.125,
            "velocity": 0.8110236220472441
          },
          {
            "duration": 3.706250000000068,
            "durationTicks": 1186,
            "midi": 54,
            "name": "F#3",
            "ticks": 151200,
            "time": 472.5,
            "velocity": 0.7086614173228346
          },
          {
            "duration": 1.40625,
            "durationTicks": 450,
            "midi": 62,
            "name": "D4",
            "ticks": 152640,
            "time": 477,
            "velocity": 0.8661417322834646
          },
          {
            "duration": 0.7062500000000682,
            "durationTicks": 226,
            "midi": 61,
            "name": "C#4",
            "ticks": 153120,
            "time": 478.5,
            "velocity": 0.8661417322834646
          },
          {
            "duration": 0.7062500000000682,
            "durationTicks": 226,
            "midi": 59,
            "name": "B3",
            "ticks": 153360,
            "time": 479.25,
            "velocity": 0.8661417322834646
          },
          {
            "duration": 1.0562499999999773,
            "durationTicks": 338,
            "midi": 56,
            "name": "G#3",
            "ticks": 153600,
            "time": 480,
            "velocity": 0.8582677165354331
          },
          {
            "duration": 0.3562500000000455,
            "durationTicks": 114,
            "midi": 55,
            "name": "G3",
            "ticks": 153960,
            "time": 481.125,
            "velocity": 0.8110236220472441
          },
          {
            "duration": 3.706250000000068,
            "durationTicks": 1186,
            "midi": 54,
            "name": "F#3",
            "ticks": 154080,
            "time": 481.5,
            "velocity": 0.7086614173228346
          },
          {
            "duration": 1.40625,
            "durationTicks": 450,
            "midi": 52,
            "name": "E3",
            "ticks": 155520,
            "time": 486,
            "velocity": 0.7086614173228346
          },
          {
            "duration": 0.7062500000000682,
            "durationTicks": 226,
            "midi": 50,
            "name": "D3",
            "ticks": 156000,
            "time": 487.5,
            "velocity": 0.7086614173228346
          },
          {
            "duration": 0.7062500000000682,
            "durationTicks": 226,
            "midi": 49,
            "name": "C#3",
            "ticks": 156240,
            "time": 488.25,
            "velocity": 0.7086614173228346
          },
          {
            "duration": 1.4562500000000682,
            "durationTicks": 466,
            "midi": 52,
            "name": "E3",
            "ticks": 156480,
            "time": 489,
            "velocity": 0.7086614173228346
          },
          {
            "duration": 2.112500000000068,
            "durationTicks": 676,
            "midi": 50,
            "name": "D3",
            "ticks": 156960,
            "time": 490.5,
            "velocity": 0.6299212598425197
          },
          {
            "duration": 0.7062500000000682,
            "durationTicks": 226,
            "midi": 60,
            "name": "C4",
            "ticks": 157680,
            "time": 492.75,
            "velocity": 0.6299212598425197
          },
          {
            "duration": 1.40625,
            "durationTicks": 450,
            "midi": 59,
            "name": "B3",
            "ticks": 157920,
            "time": 493.5,
            "velocity": 0.6299212598425197
          },
          {
            "duration": 1.40625,
            "durationTicks": 450,
            "midi": 57,
            "name": "A3",
            "ticks": 158400,
            "time": 495,
            "velocity": 0.6220472440944882
          },
          {
            "duration": 0.7062500000000682,
            "durationTicks": 226,
            "midi": 55,
            "name": "G3",
            "ticks": 158880,
            "time": 496.5,
            "velocity": 0.6456692913385826
          },
          {
            "duration": 0.7062500000000682,
            "durationTicks": 226,
            "midi": 54,
            "name": "F#3",
            "ticks": 159120,
            "time": 497.25,
            "velocity": 0.6614173228346457
          },
          {
            "duration": 1.4562500000000682,
            "durationTicks": 466,
            "midi": 57,
            "name": "A3",
            "ticks": 159360,
            "time": 498,
            "velocity": 0.6692913385826772
          },
          {
            "duration": 2.112500000000068,
            "durationTicks": 676,
            "midi": 55,
            "name": "G3",
            "ticks": 159840,
            "time": 499.5,
            "velocity": 0.6929133858267716
          },
          {
            "duration": 0.7062500000000682,
            "durationTicks": 226,
            "midi": 53,
            "name": "F3",
            "ticks": 160560,
            "time": 501.75,
            "velocity": 0.7244094488188977
          },
          {
            "duration": 1.40625,
            "durationTicks": 450,
            "midi": 52,
            "name": "E3",
            "ticks": 160800,
            "time": 502.5,
            "velocity": 0.7322834645669292
          },
          {
            "duration": 2.8125,
            "durationTicks": 900,
            "midi": 50,
            "name": "D3",
            "ticks": 161280,
            "time": 504,
            "velocity": 0.7559055118110236
          },
          {
            "duration": 2.90625,
            "durationTicks": 930,
            "midi": 48,
            "name": "C3",
            "ticks": 162240,
            "time": 507,
            "velocity": 0.8031496062992126
          },
          {
            "duration": 2.8125,
            "durationTicks": 900,
            "midi": 47,
            "name": "B2",
            "ticks": 163200,
            "time": 510,
            "velocity": 0.84251968503937
          },
          {
            "duration": 0.3562500000000455,
            "durationTicks": 114,
            "midi": 57,
            "name": "A3",
            "ticks": 164160,
            "time": 513,
            "velocity": 0.84251968503937
          },
          {
            "duration": 0.3562500000000455,
            "durationTicks": 114,
            "midi": 57,
            "name": "A3",
            "ticks": 164280,
            "time": 513.375,
            "velocity": 0.8503937007874016
          },
          {
            "duration": 0.3562500000000455,
            "durationTicks": 114,
            "midi": 55,
            "name": "G3",
            "ticks": 164400,
            "time": 513.75,
            "velocity": 0.8503937007874016
          },
          {
            "duration": 0.3562500000000455,
            "durationTicks": 114,
            "midi": 55,
            "name": "G3",
            "ticks": 164520,
            "time": 514.125,
            "velocity": 0.8582677165354331
          },
          {
            "duration": 0.3562500000000455,
            "durationTicks": 114,
            "midi": 53,
            "name": "F3",
            "ticks": 164640,
            "time": 514.5,
            "velocity": 0.8661417322834646
          },
          {
            "duration": 0.3562500000000455,
            "durationTicks": 114,
            "midi": 53,
            "name": "F3",
            "ticks": 164760,
            "time": 514.875,
            "velocity": 0.8740157480314961
          },
          {
            "duration": 0.3562500000000455,
            "durationTicks": 114,
            "midi": 52,
            "name": "E3",
            "ticks": 164880,
            "time": 515.25,
            "velocity": 0.8740157480314961
          },
          {
            "duration": 0.3562500000000455,
            "durationTicks": 114,
            "midi": 52,
            "name": "E3",
            "ticks": 165000,
            "time": 515.625,
            "velocity": 0.8818897637795275
          },
          {
            "duration": 0.2375000000000682,
            "durationTicks": 76,
            "midi": 58,
            "name": "A#3",
            "ticks": 165120,
            "time": 516,
            "velocity": 0.9606299212598425
          },
          {
            "duration": 0.23749999999995453,
            "durationTicks": 76,
            "midi": 58,
            "name": "A#3",
            "ticks": 165200,
            "time": 516.25,
            "velocity": 0.9606299212598425
          },
          {
            "duration": 0.23749999999995453,
            "durationTicks": 76,
            "midi": 58,
            "name": "A#3",
            "ticks": 165280,
            "time": 516.5,
            "velocity": 0.9606299212598425
          },
          {
            "duration": 0.2375000000000682,
            "durationTicks": 76,
            "midi": 57,
            "name": "A3",
            "ticks": 165360,
            "time": 516.75,
            "velocity": 0.9606299212598425
          },
          {
            "duration": 0.23749999999995453,
            "durationTicks": 76,
            "midi": 57,
            "name": "A3",
            "ticks": 165440,
            "time": 517,
            "velocity": 0.9606299212598425
          },
          {
            "duration": 0.23749999999995453,
            "durationTicks": 76,
            "midi": 57,
            "name": "A3",
            "ticks": 165520,
            "time": 517.25,
            "velocity": 0.9606299212598425
          },
          {
            "duration": 0.2375000000000682,
            "durationTicks": 76,
            "midi": 55,
            "name": "G3",
            "ticks": 165600,
            "time": 517.5,
            "velocity": 0.9606299212598425
          },
          {
            "duration": 0.23749999999995453,
            "durationTicks": 76,
            "midi": 55,
            "name": "G3",
            "ticks": 165680,
            "time": 517.75,
            "velocity": 0.9606299212598425
          },
          {
            "duration": 0.23749999999995453,
            "durationTicks": 76,
            "midi": 55,
            "name": "G3",
            "ticks": 165760,
            "time": 518,
            "velocity": 0.9606299212598425
          },
          {
            "duration": 0.2375000000000682,
            "durationTicks": 76,
            "midi": 53,
            "name": "F3",
            "ticks": 165840,
            "time": 518.25,
            "velocity": 0.9606299212598425
          },
          {
            "duration": 0.23749999999995453,
            "durationTicks": 76,
            "midi": 53,
            "name": "F3",
            "ticks": 165920,
            "time": 518.5,
            "velocity": 0.9606299212598425
          },
          {
            "duration": 0.23749999999995453,
            "durationTicks": 76,
            "midi": 53,
            "name": "F3",
            "ticks": 166000,
            "time": 518.75,
            "velocity": 0.9606299212598425
          },
          {
            "duration": 0.2375000000000682,
            "durationTicks": 76,
            "midi": 60,
            "name": "C4",
            "ticks": 166080,
            "time": 519,
            "velocity": 0.9606299212598425
          },
          {
            "duration": 0.23749999999995453,
            "durationTicks": 76,
            "midi": 60,
            "name": "C4",
            "ticks": 166160,
            "time": 519.25,
            "velocity": 0.9606299212598425
          },
          {
            "duration": 0.23749999999995453,
            "durationTicks": 76,
            "midi": 60,
            "name": "C4",
            "ticks": 166240,
            "time": 519.5,
            "velocity": 0.9606299212598425
          },
          {
            "duration": 0.2375000000000682,
            "durationTicks": 76,
            "midi": 59,
            "name": "B3",
            "ticks": 166320,
            "time": 519.75,
            "velocity": 0.9606299212598425
          },
          {
            "duration": 0.23749999999995453,
            "durationTicks": 76,
            "midi": 59,
            "name": "B3",
            "ticks": 166400,
            "time": 520,
            "velocity": 0.9606299212598425
          },
          {
            "duration": 0.23749999999995453,
            "durationTicks": 76,
            "midi": 59,
            "name": "B3",
            "ticks": 166480,
            "time": 520.25,
            "velocity": 0.9606299212598425
          },
          {
            "duration": 0.2375000000000682,
            "durationTicks": 76,
            "midi": 57,
            "name": "A3",
            "ticks": 166560,
            "time": 520.5,
            "velocity": 0.9606299212598425
          },
          {
            "duration": 0.23749999999995453,
            "durationTicks": 76,
            "midi": 57,
            "name": "A3",
            "ticks": 166640,
            "time": 520.75,
            "velocity": 0.9606299212598425
          },
          {
            "duration": 0.23749999999995453,
            "durationTicks": 76,
            "midi": 57,
            "name": "A3",
            "ticks": 166720,
            "time": 521,
            "velocity": 0.9606299212598425
          },
          {
            "duration": 0.2375000000000682,
            "durationTicks": 76,
            "midi": 56,
            "name": "G#3",
            "ticks": 166800,
            "time": 521.25,
            "velocity": 0.9606299212598425
          },
          {
            "duration": 0.23749999999995453,
            "durationTicks": 76,
            "midi": 56,
            "name": "G#3",
            "ticks": 166880,
            "time": 521.5,
            "velocity": 0.9606299212598425
          },
          {
            "duration": 0.23749999999995453,
            "durationTicks": 76,
            "midi": 56,
            "name": "G#3",
            "ticks": 166960,
            "time": 521.75,
            "velocity": 0.9606299212598425
          },
          {
            "duration": 0.18124999999997726,
            "durationTicks": 58,
            "midi": 59,
            "name": "B3",
            "ticks": 167040,
            "time": 522,
            "velocity": 1
          },
          {
            "duration": 0.18124999999997726,
            "durationTicks": 58,
            "midi": 59,
            "name": "B3",
            "ticks": 167100,
            "time": 522.1875,
            "velocity": 1
          },
          {
            "duration": 0.18124999999997726,
            "durationTicks": 58,
            "midi": 59,
            "name": "B3",
            "ticks": 167160,
            "time": 522.375,
            "velocity": 1
          },
          {
            "duration": 0.18124999999997726,
            "durationTicks": 58,
            "midi": 59,
            "name": "B3",
            "ticks": 167220,
            "time": 522.5625,
            "velocity": 1
          },
          {
            "duration": 0.18124999999997726,
            "durationTicks": 58,
            "midi": 59,
            "name": "B3",
            "ticks": 167280,
            "time": 522.75,
            "velocity": 1
          },
          {
            "duration": 0.18124999999997726,
            "durationTicks": 58,
            "midi": 59,
            "name": "B3",
            "ticks": 167340,
            "time": 522.9375,
            "velocity": 1
          },
          {
            "duration": 0.18124999999997726,
            "durationTicks": 58,
            "midi": 59,
            "name": "B3",
            "ticks": 167400,
            "time": 523.125,
            "velocity": 1
          },
          {
            "duration": 0.18124999999997726,
            "durationTicks": 58,
            "midi": 59,
            "name": "B3",
            "ticks": 167460,
            "time": 523.3125,
            "velocity": 1
          },
          {
            "duration": 0.18124999999997726,
            "durationTicks": 58,
            "midi": 59,
            "name": "B3",
            "ticks": 167520,
            "time": 523.5,
            "velocity": 1
          },
          {
            "duration": 0.18124999999997726,
            "durationTicks": 58,
            "midi": 59,
            "name": "B3",
            "ticks": 167580,
            "time": 523.6875,
            "velocity": 1
          },
          {
            "duration": 0.18124999999997726,
            "durationTicks": 58,
            "midi": 59,
            "name": "B3",
            "ticks": 167640,
            "time": 523.875,
            "velocity": 1
          },
          {
            "duration": 0.18124999999997726,
            "durationTicks": 58,
            "midi": 59,
            "name": "B3",
            "ticks": 167700,
            "time": 524.0625,
            "velocity": 1
          },
          {
            "duration": 0.18124999999997726,
            "durationTicks": 58,
            "midi": 59,
            "name": "B3",
            "ticks": 167760,
            "time": 524.25,
            "velocity": 1
          },
          {
            "duration": 0.18124999999997726,
            "durationTicks": 58,
            "midi": 59,
            "name": "B3",
            "ticks": 167820,
            "time": 524.4375,
            "velocity": 1
          },
          {
            "duration": 0.18124999999997726,
            "durationTicks": 58,
            "midi": 59,
            "name": "B3",
            "ticks": 167880,
            "time": 524.625,
            "velocity": 1
          },
          {
            "duration": 0.18124999999997726,
            "durationTicks": 58,
            "midi": 59,
            "name": "B3",
            "ticks": 167940,
            "time": 524.8125,
            "velocity": 1
          },
          {
            "duration": 0.18124999999997726,
            "durationTicks": 58,
            "midi": 57,
            "name": "A3",
            "ticks": 168000,
            "time": 525,
            "velocity": 1
          },
          {
            "duration": 0.18124999999997726,
            "durationTicks": 58,
            "midi": 57,
            "name": "A3",
            "ticks": 168060,
            "time": 525.1875,
            "velocity": 1
          },
          {
            "duration": 0.18124999999997726,
            "durationTicks": 58,
            "midi": 57,
            "name": "A3",
            "ticks": 168120,
            "time": 525.375,
            "velocity": 1
          },
          {
            "duration": 0.18124999999997726,
            "durationTicks": 58,
            "midi": 57,
            "name": "A3",
            "ticks": 168180,
            "time": 525.5625,
            "velocity": 1
          },
          {
            "duration": 0.18124999999997726,
            "durationTicks": 58,
            "midi": 57,
            "name": "A3",
            "ticks": 168240,
            "time": 525.75,
            "velocity": 1
          },
          {
            "duration": 0.18124999999997726,
            "durationTicks": 58,
            "midi": 57,
            "name": "A3",
            "ticks": 168300,
            "time": 525.9375,
            "velocity": 1
          },
          {
            "duration": 0.18124999999997726,
            "durationTicks": 58,
            "midi": 57,
            "name": "A3",
            "ticks": 168360,
            "time": 526.125,
            "velocity": 1
          },
          {
            "duration": 0.18124999999997726,
            "durationTicks": 58,
            "midi": 57,
            "name": "A3",
            "ticks": 168420,
            "time": 526.3125,
            "velocity": 1
          },
          {
            "duration": 0.2375000000000682,
            "durationTicks": 76,
            "midi": 57,
            "name": "A3",
            "ticks": 168960,
            "time": 528,
            "velocity": 0.9606299212598425
          },
          {
            "duration": 0.23749999999995453,
            "durationTicks": 76,
            "midi": 57,
            "name": "A3",
            "ticks": 169040,
            "time": 528.25,
            "velocity": 0.9606299212598425
          },
          {
            "duration": 0.23749999999995453,
            "durationTicks": 76,
            "midi": 57,
            "name": "A3",
            "ticks": 169120,
            "time": 528.5,
            "velocity": 0.9606299212598425
          },
          {
            "duration": 0.2375000000000682,
            "durationTicks": 76,
            "midi": 55,
            "name": "G3",
            "ticks": 169200,
            "time": 528.75,
            "velocity": 0.9606299212598425
          },
          {
            "duration": 0.23749999999995453,
            "durationTicks": 76,
            "midi": 55,
            "name": "G3",
            "ticks": 169280,
            "time": 529,
            "velocity": 0.9606299212598425
          },
          {
            "duration": 0.23749999999995453,
            "durationTicks": 76,
            "midi": 55,
            "name": "G3",
            "ticks": 169360,
            "time": 529.25,
            "velocity": 0.9606299212598425
          },
          {
            "duration": 0.2375000000000682,
            "durationTicks": 76,
            "midi": 53,
            "name": "F3",
            "ticks": 169440,
            "time": 529.5,
            "velocity": 0.9606299212598425
          },
          {
            "duration": 0.23749999999995453,
            "durationTicks": 76,
            "midi": 53,
            "name": "F3",
            "ticks": 169520,
            "time": 529.75,
            "velocity": 0.9606299212598425
          },
          {
            "duration": 0.23749999999995453,
            "durationTicks": 76,
            "midi": 53,
            "name": "F3",
            "ticks": 169600,
            "time": 530,
            "velocity": 0.9606299212598425
          },
          {
            "duration": 0.2375000000000682,
            "durationTicks": 76,
            "midi": 52,
            "name": "E3",
            "ticks": 169680,
            "time": 530.25,
            "velocity": 0.9606299212598425
          },
          {
            "duration": 0.23749999999995453,
            "durationTicks": 76,
            "midi": 52,
            "name": "E3",
            "ticks": 169760,
            "time": 530.5,
            "velocity": 0.9606299212598425
          },
          {
            "duration": 0.23749999999995453,
            "durationTicks": 76,
            "midi": 52,
            "name": "E3",
            "ticks": 169840,
            "time": 530.75,
            "velocity": 0.9606299212598425
          },
          {
            "duration": 0.18124999999997726,
            "durationTicks": 58,
            "midi": 55,
            "name": "G3",
            "ticks": 169920,
            "time": 531,
            "velocity": 1
          },
          {
            "duration": 0.18124999999997726,
            "durationTicks": 58,
            "midi": 55,
            "name": "G3",
            "ticks": 169980,
            "time": 531.1875,
            "velocity": 1
          },
          {
            "duration": 0.18124999999997726,
            "durationTicks": 58,
            "midi": 55,
            "name": "G3",
            "ticks": 170040,
            "time": 531.375,
            "velocity": 1
          },
          {
            "duration": 0.18124999999997726,
            "durationTicks": 58,
            "midi": 55,
            "name": "G3",
            "ticks": 170100,
            "time": 531.5625,
            "velocity": 1
          },
          {
            "duration": 0.18124999999997726,
            "durationTicks": 58,
            "midi": 55,
            "name": "G3",
            "ticks": 170160,
            "time": 531.75,
            "velocity": 1
          },
          {
            "duration": 0.18124999999997726,
            "durationTicks": 58,
            "midi": 55,
            "name": "G3",
            "ticks": 170220,
            "time": 531.9375,
            "velocity": 1
          },
          {
            "duration": 0.18124999999997726,
            "durationTicks": 58,
            "midi": 55,
            "name": "G3",
            "ticks": 170280,
            "time": 532.125,
            "velocity": 1
          },
          {
            "duration": 0.18124999999997726,
            "durationTicks": 58,
            "midi": 55,
            "name": "G3",
            "ticks": 170340,
            "time": 532.3125,
            "velocity": 1
          },
          {
            "duration": 0.18124999999997726,
            "durationTicks": 58,
            "midi": 55,
            "name": "G3",
            "ticks": 170400,
            "time": 532.5,
            "velocity": 1
          },
          {
            "duration": 0.18124999999997726,
            "durationTicks": 58,
            "midi": 55,
            "name": "G3",
            "ticks": 170460,
            "time": 532.6875,
            "velocity": 1
          },
          {
            "duration": 0.18124999999997726,
            "durationTicks": 58,
            "midi": 55,
            "name": "G3",
            "ticks": 170520,
            "time": 532.875,
            "velocity": 1
          },
          {
            "duration": 0.18124999999997726,
            "durationTicks": 58,
            "midi": 55,
            "name": "G3",
            "ticks": 170580,
            "time": 533.0625,
            "velocity": 1
          },
          {
            "duration": 0.18124999999997726,
            "durationTicks": 58,
            "midi": 55,
            "name": "G3",
            "ticks": 170640,
            "time": 533.25,
            "velocity": 1
          },
          {
            "duration": 0.18124999999997726,
            "durationTicks": 58,
            "midi": 55,
            "name": "G3",
            "ticks": 170700,
            "time": 533.4375,
            "velocity": 1
          },
          {
            "duration": 0.18124999999997726,
            "durationTicks": 58,
            "midi": 55,
            "name": "G3",
            "ticks": 170760,
            "time": 533.625,
            "velocity": 1
          },
          {
            "duration": 0.18124999999997726,
            "durationTicks": 58,
            "midi": 55,
            "name": "G3",
            "ticks": 170820,
            "time": 533.8125,
            "velocity": 1
          },
          {
            "duration": 0.18124999999997726,
            "durationTicks": 58,
            "midi": 53,
            "name": "F3",
            "ticks": 170880,
            "time": 534,
            "velocity": 1
          },
          {
            "duration": 0.18124999999997726,
            "durationTicks": 58,
            "midi": 53,
            "name": "F3",
            "ticks": 170940,
            "time": 534.1875,
            "velocity": 1
          },
          {
            "duration": 0.18124999999997726,
            "durationTicks": 58,
            "midi": 53,
            "name": "F3",
            "ticks": 171000,
            "time": 534.375,
            "velocity": 1
          },
          {
            "duration": 0.18124999999997726,
            "durationTicks": 58,
            "midi": 53,
            "name": "F3",
            "ticks": 171060,
            "time": 534.5625,
            "velocity": 1
          },
          {
            "duration": 0.18124999999997726,
            "durationTicks": 58,
            "midi": 53,
            "name": "F3",
            "ticks": 171120,
            "time": 534.75,
            "velocity": 1
          },
          {
            "duration": 0.18124999999997726,
            "durationTicks": 58,
            "midi": 53,
            "name": "F3",
            "ticks": 171180,
            "time": 534.9375,
            "velocity": 1
          },
          {
            "duration": 0.18124999999997726,
            "durationTicks": 58,
            "midi": 53,
            "name": "F3",
            "ticks": 171240,
            "time": 535.125,
            "velocity": 1
          },
          {
            "duration": 0.18124999999997726,
            "durationTicks": 58,
            "midi": 53,
            "name": "F3",
            "ticks": 171300,
            "time": 535.3125,
            "velocity": 1
          },
          {
            "duration": 0.2375000000000682,
            "durationTicks": 76,
            "midi": 65,
            "name": "F4",
            "ticks": 171840,
            "time": 537,
            "velocity": 0.9606299212598425
          },
          {
            "duration": 0.23749999999995453,
            "durationTicks": 76,
            "midi": 65,
            "name": "F4",
            "ticks": 171920,
            "time": 537.25,
            "velocity": 0.9606299212598425
          },
          {
            "duration": 0.23749999999995453,
            "durationTicks": 76,
            "midi": 65,
            "name": "F4",
            "ticks": 172000,
            "time": 537.5,
            "velocity": 0.9606299212598425
          },
          {
            "duration": 0.2375000000000682,
            "durationTicks": 76,
            "midi": 64,
            "name": "E4",
            "ticks": 172080,
            "time": 537.75,
            "velocity": 0.9606299212598425
          },
          {
            "duration": 0.23749999999995453,
            "durationTicks": 76,
            "midi": 64,
            "name": "E4",
            "ticks": 172160,
            "time": 538,
            "velocity": 0.9606299212598425
          },
          {
            "duration": 0.23749999999995453,
            "durationTicks": 76,
            "midi": 64,
            "name": "E4",
            "ticks": 172240,
            "time": 538.25,
            "velocity": 0.9606299212598425
          },
          {
            "duration": 0.2375000000000682,
            "durationTicks": 76,
            "midi": 62,
            "name": "D4",
            "ticks": 172320,
            "time": 538.5,
            "velocity": 0.9606299212598425
          },
          {
            "duration": 0.23749999999995453,
            "durationTicks": 76,
            "midi": 62,
            "name": "D4",
            "ticks": 172400,
            "time": 538.75,
            "velocity": 0.9606299212598425
          },
          {
            "duration": 0.23749999999995453,
            "durationTicks": 76,
            "midi": 62,
            "name": "D4",
            "ticks": 172480,
            "time": 539,
            "velocity": 0.9606299212598425
          },
          {
            "duration": 0.2375000000000682,
            "durationTicks": 76,
            "midi": 61,
            "name": "C#4",
            "ticks": 172560,
            "time": 539.25,
            "velocity": 0.9606299212598425
          },
          {
            "duration": 0.23749999999995453,
            "durationTicks": 76,
            "midi": 61,
            "name": "C#4",
            "ticks": 172640,
            "time": 539.5,
            "velocity": 0.9606299212598425
          },
          {
            "duration": 0.23749999999995453,
            "durationTicks": 76,
            "midi": 61,
            "name": "C#4",
            "ticks": 172720,
            "time": 539.75,
            "velocity": 0.9606299212598425
          },
          {
            "duration": 0.18124999999997726,
            "durationTicks": 58,
            "midi": 64,
            "name": "E4",
            "ticks": 172800,
            "time": 540,
            "velocity": 1
          },
          {
            "duration": 0.18124999999997726,
            "durationTicks": 58,
            "midi": 64,
            "name": "E4",
            "ticks": 172860,
            "time": 540.1875,
            "velocity": 1
          },
          {
            "duration": 0.18124999999997726,
            "durationTicks": 58,
            "midi": 64,
            "name": "E4",
            "ticks": 172920,
            "time": 540.375,
            "velocity": 1
          },
          {
            "duration": 0.18124999999997726,
            "durationTicks": 58,
            "midi": 64,
            "name": "E4",
            "ticks": 172980,
            "time": 540.5625,
            "velocity": 1
          },
          {
            "duration": 0.18124999999997726,
            "durationTicks": 58,
            "midi": 64,
            "name": "E4",
            "ticks": 173040,
            "time": 540.75,
            "velocity": 1
          },
          {
            "duration": 0.18124999999997726,
            "durationTicks": 58,
            "midi": 64,
            "name": "E4",
            "ticks": 173100,
            "time": 540.9375,
            "velocity": 1
          },
          {
            "duration": 0.18124999999997726,
            "durationTicks": 58,
            "midi": 64,
            "name": "E4",
            "ticks": 173160,
            "time": 541.125,
            "velocity": 1
          },
          {
            "duration": 0.18124999999997726,
            "durationTicks": 58,
            "midi": 64,
            "name": "E4",
            "ticks": 173220,
            "time": 541.3125,
            "velocity": 1
          },
          {
            "duration": 0.18124999999997726,
            "durationTicks": 58,
            "midi": 64,
            "name": "E4",
            "ticks": 173280,
            "time": 541.5,
            "velocity": 1
          },
          {
            "duration": 0.18124999999997726,
            "durationTicks": 58,
            "midi": 64,
            "name": "E4",
            "ticks": 173340,
            "time": 541.6875,
            "velocity": 1
          },
          {
            "duration": 0.18124999999997726,
            "durationTicks": 58,
            "midi": 64,
            "name": "E4",
            "ticks": 173400,
            "time": 541.875,
            "velocity": 1
          },
          {
            "duration": 0.18124999999997726,
            "durationTicks": 58,
            "midi": 64,
            "name": "E4",
            "ticks": 173460,
            "time": 542.0625,
            "velocity": 1
          },
          {
            "duration": 0.18124999999997726,
            "durationTicks": 58,
            "midi": 64,
            "name": "E4",
            "ticks": 173520,
            "time": 542.25,
            "velocity": 1
          },
          {
            "duration": 0.18124999999997726,
            "durationTicks": 58,
            "midi": 64,
            "name": "E4",
            "ticks": 173580,
            "time": 542.4375,
            "velocity": 1
          },
          {
            "duration": 0.18124999999997726,
            "durationTicks": 58,
            "midi": 64,
            "name": "E4",
            "ticks": 173640,
            "time": 542.625,
            "velocity": 1
          },
          {
            "duration": 0.18124999999997726,
            "durationTicks": 58,
            "midi": 64,
            "name": "E4",
            "ticks": 173700,
            "time": 542.8125,
            "velocity": 1
          },
          {
            "duration": 0.18124999999997726,
            "durationTicks": 58,
            "midi": 62,
            "name": "D4",
            "ticks": 173760,
            "time": 543,
            "velocity": 1
          },
          {
            "duration": 0.18124999999997726,
            "durationTicks": 58,
            "midi": 62,
            "name": "D4",
            "ticks": 173820,
            "time": 543.1875,
            "velocity": 1
          },
          {
            "duration": 0.18124999999997726,
            "durationTicks": 58,
            "midi": 62,
            "name": "D4",
            "ticks": 173880,
            "time": 543.375,
            "velocity": 1
          },
          {
            "duration": 0.18124999999997726,
            "durationTicks": 58,
            "midi": 62,
            "name": "D4",
            "ticks": 173940,
            "time": 543.5625,
            "velocity": 1
          },
          {
            "duration": 0.18124999999997726,
            "durationTicks": 58,
            "midi": 62,
            "name": "D4",
            "ticks": 174000,
            "time": 543.75,
            "velocity": 1
          },
          {
            "duration": 0.18124999999997726,
            "durationTicks": 58,
            "midi": 62,
            "name": "D4",
            "ticks": 174060,
            "time": 543.9375,
            "velocity": 1
          },
          {
            "duration": 0.18124999999997726,
            "durationTicks": 58,
            "midi": 62,
            "name": "D4",
            "ticks": 174120,
            "time": 544.125,
            "velocity": 1
          },
          {
            "duration": 0.18124999999997726,
            "durationTicks": 58,
            "midi": 62,
            "name": "D4",
            "ticks": 174180,
            "time": 544.3125,
            "velocity": 1
          },
          {
            "duration": 0.2375000000000682,
            "durationTicks": 76,
            "midi": 62,
            "name": "D4",
            "ticks": 174720,
            "time": 546,
            "velocity": 0.9606299212598425
          },
          {
            "duration": 0.23749999999995453,
            "durationTicks": 76,
            "midi": 62,
            "name": "D4",
            "ticks": 174800,
            "time": 546.25,
            "velocity": 0.9606299212598425
          },
          {
            "duration": 0.23749999999995453,
            "durationTicks": 76,
            "midi": 62,
            "name": "D4",
            "ticks": 174880,
            "time": 546.5,
            "velocity": 0.9606299212598425
          },
          {
            "duration": 0.2375000000000682,
            "durationTicks": 76,
            "midi": 61,
            "name": "C#4",
            "ticks": 174960,
            "time": 546.75,
            "velocity": 0.9606299212598425
          },
          {
            "duration": 0.23749999999995453,
            "durationTicks": 76,
            "midi": 61,
            "name": "C#4",
            "ticks": 175040,
            "time": 547,
            "velocity": 0.9606299212598425
          },
          {
            "duration": 0.23749999999995453,
            "durationTicks": 76,
            "midi": 61,
            "name": "C#4",
            "ticks": 175120,
            "time": 547.25,
            "velocity": 0.9606299212598425
          },
          {
            "duration": 0.2375000000000682,
            "durationTicks": 76,
            "midi": 59,
            "name": "B3",
            "ticks": 175200,
            "time": 547.5,
            "velocity": 0.9606299212598425
          },
          {
            "duration": 0.23749999999995453,
            "durationTicks": 76,
            "midi": 59,
            "name": "B3",
            "ticks": 175280,
            "time": 547.75,
            "velocity": 0.9606299212598425
          },
          {
            "duration": 0.23749999999995453,
            "durationTicks": 76,
            "midi": 59,
            "name": "B3",
            "ticks": 175360,
            "time": 548,
            "velocity": 0.9606299212598425
          },
          {
            "duration": 0.2375000000000682,
            "durationTicks": 76,
            "midi": 58,
            "name": "A#3",
            "ticks": 175440,
            "time": 548.25,
            "velocity": 0.9606299212598425
          },
          {
            "duration": 0.23749999999995453,
            "durationTicks": 76,
            "midi": 58,
            "name": "A#3",
            "ticks": 175520,
            "time": 548.5,
            "velocity": 0.9606299212598425
          },
          {
            "duration": 0.23749999999995453,
            "durationTicks": 76,
            "midi": 58,
            "name": "A#3",
            "ticks": 175600,
            "time": 548.75,
            "velocity": 0.9606299212598425
          },
          {
            "duration": 0.18124999999997726,
            "durationTicks": 58,
            "midi": 61,
            "name": "C#4",
            "ticks": 175680,
            "time": 549,
            "velocity": 1
          },
          {
            "duration": 0.18124999999997726,
            "durationTicks": 58,
            "midi": 61,
            "name": "C#4",
            "ticks": 175740,
            "time": 549.1875,
            "velocity": 1
          },
          {
            "duration": 0.18124999999997726,
            "durationTicks": 58,
            "midi": 61,
            "name": "C#4",
            "ticks": 175800,
            "time": 549.375,
            "velocity": 1
          },
          {
            "duration": 0.18124999999997726,
            "durationTicks": 58,
            "midi": 61,
            "name": "C#4",
            "ticks": 175860,
            "time": 549.5625,
            "velocity": 1
          },
          {
            "duration": 0.18124999999997726,
            "durationTicks": 58,
            "midi": 61,
            "name": "C#4",
            "ticks": 175920,
            "time": 549.75,
            "velocity": 1
          },
          {
            "duration": 0.18124999999997726,
            "durationTicks": 58,
            "midi": 61,
            "name": "C#4",
            "ticks": 175980,
            "time": 549.9375,
            "velocity": 1
          },
          {
            "duration": 0.18124999999997726,
            "durationTicks": 58,
            "midi": 61,
            "name": "C#4",
            "ticks": 176040,
            "time": 550.125,
            "velocity": 1
          },
          {
            "duration": 0.18124999999997726,
            "durationTicks": 58,
            "midi": 61,
            "name": "C#4",
            "ticks": 176100,
            "time": 550.3125,
            "velocity": 1
          },
          {
            "duration": 0.18124999999997726,
            "durationTicks": 58,
            "midi": 61,
            "name": "C#4",
            "ticks": 176160,
            "time": 550.5,
            "velocity": 1
          },
          {
            "duration": 0.18124999999997726,
            "durationTicks": 58,
            "midi": 61,
            "name": "C#4",
            "ticks": 176220,
            "time": 550.6875,
            "velocity": 1
          },
          {
            "duration": 0.18124999999997726,
            "durationTicks": 58,
            "midi": 61,
            "name": "C#4",
            "ticks": 176280,
            "time": 550.875,
            "velocity": 1
          },
          {
            "duration": 0.18124999999997726,
            "durationTicks": 58,
            "midi": 61,
            "name": "C#4",
            "ticks": 176340,
            "time": 551.0625,
            "velocity": 1
          },
          {
            "duration": 0.18124999999997726,
            "durationTicks": 58,
            "midi": 61,
            "name": "C#4",
            "ticks": 176400,
            "time": 551.25,
            "velocity": 1
          },
          {
            "duration": 0.18124999999997726,
            "durationTicks": 58,
            "midi": 61,
            "name": "C#4",
            "ticks": 176460,
            "time": 551.4375,
            "velocity": 1
          },
          {
            "duration": 0.18124999999997726,
            "durationTicks": 58,
            "midi": 61,
            "name": "C#4",
            "ticks": 176520,
            "time": 551.625,
            "velocity": 1
          },
          {
            "duration": 0.18124999999997726,
            "durationTicks": 58,
            "midi": 61,
            "name": "C#4",
            "ticks": 176580,
            "time": 551.8125,
            "velocity": 1
          },
          {
            "duration": 0.18124999999997726,
            "durationTicks": 58,
            "midi": 59,
            "name": "B3",
            "ticks": 176640,
            "time": 552,
            "velocity": 1
          },
          {
            "duration": 0.18124999999997726,
            "durationTicks": 58,
            "midi": 59,
            "name": "B3",
            "ticks": 176700,
            "time": 552.1875,
            "velocity": 1
          },
          {
            "duration": 0.18124999999997726,
            "durationTicks": 58,
            "midi": 59,
            "name": "B3",
            "ticks": 176760,
            "time": 552.375,
            "velocity": 1
          },
          {
            "duration": 0.18124999999997726,
            "durationTicks": 58,
            "midi": 59,
            "name": "B3",
            "ticks": 176820,
            "time": 552.5625,
            "velocity": 1
          },
          {
            "duration": 0.18124999999997726,
            "durationTicks": 58,
            "midi": 59,
            "name": "B3",
            "ticks": 176880,
            "time": 552.75,
            "velocity": 1
          },
          {
            "duration": 0.18124999999997726,
            "durationTicks": 58,
            "midi": 59,
            "name": "B3",
            "ticks": 176940,
            "time": 552.9375,
            "velocity": 1
          },
          {
            "duration": 0.18124999999997726,
            "durationTicks": 58,
            "midi": 59,
            "name": "B3",
            "ticks": 177000,
            "time": 553.125,
            "velocity": 1
          },
          {
            "duration": 0.18124999999997726,
            "durationTicks": 58,
            "midi": 59,
            "name": "B3",
            "ticks": 177060,
            "time": 553.3125,
            "velocity": 1
          },
          {
            "duration": 0.2375000000000682,
            "durationTicks": 76,
            "midi": 59,
            "name": "B3",
            "ticks": 177600,
            "time": 555,
            "velocity": 0.9606299212598425
          },
          {
            "duration": 0.23749999999995453,
            "durationTicks": 76,
            "midi": 59,
            "name": "B3",
            "ticks": 177680,
            "time": 555.25,
            "velocity": 0.9606299212598425
          },
          {
            "duration": 0.23749999999995453,
            "durationTicks": 76,
            "midi": 59,
            "name": "B3",
            "ticks": 177760,
            "time": 555.5,
            "velocity": 0.9606299212598425
          },
          {
            "duration": 0.2375000000000682,
            "durationTicks": 76,
            "midi": 57,
            "name": "A3",
            "ticks": 177840,
            "time": 555.75,
            "velocity": 0.9606299212598425
          },
          {
            "duration": 0.23749999999995453,
            "durationTicks": 76,
            "midi": 57,
            "name": "A3",
            "ticks": 177920,
            "time": 556,
            "velocity": 0.9606299212598425
          },
          {
            "duration": 0.23749999999995453,
            "durationTicks": 76,
            "midi": 57,
            "name": "A3",
            "ticks": 178000,
            "time": 556.25,
            "velocity": 0.9606299212598425
          },
          {
            "duration": 0.2375000000000682,
            "durationTicks": 76,
            "midi": 55,
            "name": "G3",
            "ticks": 178080,
            "time": 556.5,
            "velocity": 0.9606299212598425
          },
          {
            "duration": 0.23749999999995453,
            "durationTicks": 76,
            "midi": 55,
            "name": "G3",
            "ticks": 178160,
            "time": 556.75,
            "velocity": 0.9606299212598425
          },
          {
            "duration": 0.23749999999995453,
            "durationTicks": 76,
            "midi": 55,
            "name": "G3",
            "ticks": 178240,
            "time": 557,
            "velocity": 0.9606299212598425
          },
          {
            "duration": 0.2375000000000682,
            "durationTicks": 76,
            "midi": 54,
            "name": "F#3",
            "ticks": 178320,
            "time": 557.25,
            "velocity": 0.9606299212598425
          },
          {
            "duration": 0.23749999999995453,
            "durationTicks": 76,
            "midi": 54,
            "name": "F#3",
            "ticks": 178400,
            "time": 557.5,
            "velocity": 0.9606299212598425
          },
          {
            "duration": 0.23749999999995453,
            "durationTicks": 76,
            "midi": 54,
            "name": "F#3",
            "ticks": 178480,
            "time": 557.75,
            "velocity": 0.9606299212598425
          },
          {
            "duration": 0.18124999999997726,
            "durationTicks": 58,
            "midi": 57,
            "name": "A3",
            "ticks": 178560,
            "time": 558,
            "velocity": 1
          },
          {
            "duration": 0.18124999999997726,
            "durationTicks": 58,
            "midi": 57,
            "name": "A3",
            "ticks": 178620,
            "time": 558.1875,
            "velocity": 1
          },
          {
            "duration": 0.18124999999997726,
            "durationTicks": 58,
            "midi": 57,
            "name": "A3",
            "ticks": 178680,
            "time": 558.375,
            "velocity": 1
          },
          {
            "duration": 0.18124999999997726,
            "durationTicks": 58,
            "midi": 57,
            "name": "A3",
            "ticks": 178740,
            "time": 558.5625,
            "velocity": 1
          },
          {
            "duration": 0.18124999999997726,
            "durationTicks": 58,
            "midi": 57,
            "name": "A3",
            "ticks": 178800,
            "time": 558.75,
            "velocity": 1
          },
          {
            "duration": 0.18124999999997726,
            "durationTicks": 58,
            "midi": 57,
            "name": "A3",
            "ticks": 178860,
            "time": 558.9375,
            "velocity": 1
          },
          {
            "duration": 0.18124999999997726,
            "durationTicks": 58,
            "midi": 57,
            "name": "A3",
            "ticks": 178920,
            "time": 559.125,
            "velocity": 1
          },
          {
            "duration": 0.18124999999997726,
            "durationTicks": 58,
            "midi": 57,
            "name": "A3",
            "ticks": 178980,
            "time": 559.3125,
            "velocity": 1
          },
          {
            "duration": 0.18124999999997726,
            "durationTicks": 58,
            "midi": 57,
            "name": "A3",
            "ticks": 179040,
            "time": 559.5,
            "velocity": 1
          },
          {
            "duration": 0.18124999999997726,
            "durationTicks": 58,
            "midi": 57,
            "name": "A3",
            "ticks": 179100,
            "time": 559.6875,
            "velocity": 1
          },
          {
            "duration": 0.18124999999997726,
            "durationTicks": 58,
            "midi": 57,
            "name": "A3",
            "ticks": 179160,
            "time": 559.875,
            "velocity": 1
          },
          {
            "duration": 0.18124999999997726,
            "durationTicks": 58,
            "midi": 57,
            "name": "A3",
            "ticks": 179220,
            "time": 560.0625,
            "velocity": 1
          },
          {
            "duration": 0.18124999999997726,
            "durationTicks": 58,
            "midi": 57,
            "name": "A3",
            "ticks": 179280,
            "time": 560.25,
            "velocity": 1
          },
          {
            "duration": 0.18124999999997726,
            "durationTicks": 58,
            "midi": 57,
            "name": "A3",
            "ticks": 179340,
            "time": 560.4375,
            "velocity": 1
          },
          {
            "duration": 0.18124999999997726,
            "durationTicks": 58,
            "midi": 57,
            "name": "A3",
            "ticks": 179400,
            "time": 560.625,
            "velocity": 1
          },
          {
            "duration": 0.18124999999997726,
            "durationTicks": 58,
            "midi": 57,
            "name": "A3",
            "ticks": 179460,
            "time": 560.8125,
            "velocity": 1
          },
          {
            "duration": 0.2375000000000682,
            "durationTicks": 76,
            "midi": 55,
            "name": "G3",
            "ticks": 179520,
            "time": 561,
            "velocity": 0.9606299212598425
          },
          {
            "duration": 0.23749999999995453,
            "durationTicks": 76,
            "midi": 55,
            "name": "G3",
            "ticks": 179600,
            "time": 561.25,
            "velocity": 0.9606299212598425
          },
          {
            "duration": 0.23749999999995453,
            "durationTicks": 76,
            "midi": 55,
            "name": "G3",
            "ticks": 179680,
            "time": 561.5,
            "velocity": 0.9606299212598425
          },
          {
            "duration": 0.2375000000000682,
            "durationTicks": 76,
            "midi": 54,
            "name": "F#3",
            "ticks": 179760,
            "time": 561.75,
            "velocity": 0.9606299212598425
          },
          {
            "duration": 0.23749999999995453,
            "durationTicks": 76,
            "midi": 54,
            "name": "F#3",
            "ticks": 179840,
            "time": 562,
            "velocity": 0.9606299212598425
          },
          {
            "duration": 0.23749999999995453,
            "durationTicks": 76,
            "midi": 54,
            "name": "F#3",
            "ticks": 179920,
            "time": 562.25,
            "velocity": 0.9606299212598425
          },
          {
            "duration": 0.2375000000000682,
            "durationTicks": 76,
            "midi": 52,
            "name": "E3",
            "ticks": 180000,
            "time": 562.5,
            "velocity": 0.9606299212598425
          },
          {
            "duration": 0.23749999999995453,
            "durationTicks": 76,
            "midi": 52,
            "name": "E3",
            "ticks": 180080,
            "time": 562.75,
            "velocity": 0.9606299212598425
          },
          {
            "duration": 0.23749999999995453,
            "durationTicks": 76,
            "midi": 52,
            "name": "E3",
            "ticks": 180160,
            "time": 563,
            "velocity": 0.9606299212598425
          },
          {
            "duration": 0.2375000000000682,
            "durationTicks": 76,
            "midi": 50,
            "name": "D3",
            "ticks": 180240,
            "time": 563.25,
            "velocity": 0.9606299212598425
          },
          {
            "duration": 0.23749999999995453,
            "durationTicks": 76,
            "midi": 50,
            "name": "D3",
            "ticks": 180320,
            "time": 563.5,
            "velocity": 0.9606299212598425
          },
          {
            "duration": 0.23749999999995453,
            "durationTicks": 76,
            "midi": 50,
            "name": "D3",
            "ticks": 180400,
            "time": 563.75,
            "velocity": 0.9606299212598425
          },
          {
            "duration": 0.2375000000000682,
            "durationTicks": 76,
            "midi": 49,
            "name": "C#3",
            "ticks": 180480,
            "time": 564,
            "velocity": 0.9606299212598425
          },
          {
            "duration": 0.23749999999995453,
            "durationTicks": 76,
            "midi": 49,
            "name": "C#3",
            "ticks": 180560,
            "time": 564.25,
            "velocity": 0.9606299212598425
          },
          {
            "duration": 0.23749999999995453,
            "durationTicks": 76,
            "midi": 49,
            "name": "C#3",
            "ticks": 180640,
            "time": 564.5,
            "velocity": 0.9606299212598425
          },
          {
            "duration": 0.2375000000000682,
            "durationTicks": 76,
            "midi": 50,
            "name": "D3",
            "ticks": 180720,
            "time": 564.75,
            "velocity": 0.9606299212598425
          },
          {
            "duration": 0.23749999999995453,
            "durationTicks": 76,
            "midi": 50,
            "name": "D3",
            "ticks": 180800,
            "time": 565,
            "velocity": 0.9606299212598425
          },
          {
            "duration": 0.23749999999995453,
            "durationTicks": 76,
            "midi": 50,
            "name": "D3",
            "ticks": 180880,
            "time": 565.25,
            "velocity": 0.9606299212598425
          },
          {
            "duration": 0.2375000000000682,
            "durationTicks": 76,
            "midi": 49,
            "name": "C#3",
            "ticks": 180960,
            "time": 565.5,
            "velocity": 0.9606299212598425
          },
          {
            "duration": 0.23749999999995453,
            "durationTicks": 76,
            "midi": 49,
            "name": "C#3",
            "ticks": 181040,
            "time": 565.75,
            "velocity": 0.9606299212598425
          },
          {
            "duration": 0.23749999999995453,
            "durationTicks": 76,
            "midi": 49,
            "name": "C#3",
            "ticks": 181120,
            "time": 566,
            "velocity": 0.9606299212598425
          },
          {
            "duration": 0.2375000000000682,
            "durationTicks": 76,
            "midi": 47,
            "name": "B2",
            "ticks": 181200,
            "time": 566.25,
            "velocity": 0.9606299212598425
          },
          {
            "duration": 0.23749999999995453,
            "durationTicks": 76,
            "midi": 47,
            "name": "B2",
            "ticks": 181280,
            "time": 566.5,
            "velocity": 0.9606299212598425
          },
          {
            "duration": 0.23749999999995453,
            "durationTicks": 76,
            "midi": 47,
            "name": "B2",
            "ticks": 181360,
            "time": 566.75,
            "velocity": 0.9606299212598425
          },
          {
            "duration": 0.7062500000000682,
            "durationTicks": 226,
            "midi": 42,
            "name": "F#2",
            "ticks": 181440,
            "time": 567,
            "velocity": 1
          },
          {
            "duration": 0.2375000000000682,
            "durationTicks": 76,
            "midi": 52,
            "name": "E3",
            "ticks": 182400,
            "time": 570,
            "velocity": 1
          },
          {
            "duration": 0.23749999999995453,
            "durationTicks": 76,
            "midi": 53,
            "name": "F3",
            "ticks": 182480,
            "time": 570.25,
            "velocity": 1
          },
          {
            "duration": 0.23749999999995453,
            "durationTicks": 76,
            "midi": 54,
            "name": "F#3",
            "ticks": 182560,
            "time": 570.5,
            "velocity": 1
          },
          {
            "duration": 0.18124999999997726,
            "durationTicks": 58,
            "midi": 56,
            "name": "G#3",
            "ticks": 182640,
            "time": 570.75,
            "velocity": 1
          },
          {
            "duration": 0.18124999999997726,
            "durationTicks": 58,
            "midi": 58,
            "name": "A#3",
            "ticks": 182700,
            "time": 570.9375,
            "velocity": 1
          },
          {
            "duration": 0.18124999999997726,
            "durationTicks": 58,
            "midi": 59,
            "name": "B3",
            "ticks": 182760,
            "time": 571.125,
            "velocity": 1
          },
          {
            "duration": 0.18124999999997726,
            "durationTicks": 58,
            "midi": 61,
            "name": "C#4",
            "ticks": 182820,
            "time": 571.3125,
            "velocity": 1
          },
          {
            "duration": 1.40625,
            "durationTicks": 450,
            "midi": 62,
            "name": "D4",
            "ticks": 182880,
            "time": 571.5,
            "velocity": 1
          },
          {
            "duration": 0.7062500000000682,
            "durationTicks": 226,
            "midi": 61,
            "name": "C#4",
            "ticks": 183360,
            "time": 573,
            "velocity": 1
          },
          {
            "duration": 0.7062500000000682,
            "durationTicks": 226,
            "midi": 59,
            "name": "B3",
            "ticks": 183600,
            "time": 573.75,
            "velocity": 1
          },
          {
            "duration": 0.7062500000000682,
            "durationTicks": 226,
            "midi": 58,
            "name": "A#3",
            "ticks": 183840,
            "time": 574.5,
            "velocity": 1
          },
          {
            "duration": 0.7062500000000682,
            "durationTicks": 226,
            "midi": 56,
            "name": "G#3",
            "ticks": 184080,
            "time": 575.25,
            "velocity": 1
          },
          {
            "duration": 1.40625,
            "durationTicks": 450,
            "midi": 54,
            "name": "F#3",
            "ticks": 184320,
            "time": 576,
            "velocity": 1
          },
          {
            "duration": 0.2375000000000682,
            "durationTicks": 76,
            "midi": 52,
            "name": "E3",
            "ticks": 185280,
            "time": 579,
            "velocity": 1
          },
          {
            "duration": 0.23749999999995453,
            "durationTicks": 76,
            "midi": 53,
            "name": "F3",
            "ticks": 185360,
            "time": 579.25,
            "velocity": 1
          },
          {
            "duration": 0.23749999999995453,
            "durationTicks": 76,
            "midi": 54,
            "name": "F#3",
            "ticks": 185440,
            "time": 579.5,
            "velocity": 1
          },
          {
            "duration": 0.18124999999997726,
            "durationTicks": 58,
            "midi": 56,
            "name": "G#3",
            "ticks": 185520,
            "time": 579.75,
            "velocity": 1
          },
          {
            "duration": 0.18124999999997726,
            "durationTicks": 58,
            "midi": 58,
            "name": "A#3",
            "ticks": 185580,
            "time": 579.9375,
            "velocity": 1
          },
          {
            "duration": 0.18124999999997726,
            "durationTicks": 58,
            "midi": 59,
            "name": "B3",
            "ticks": 185640,
            "time": 580.125,
            "velocity": 1
          },
          {
            "duration": 0.18124999999997726,
            "durationTicks": 58,
            "midi": 61,
            "name": "C#4",
            "ticks": 185700,
            "time": 580.3125,
            "velocity": 1
          },
          {
            "duration": 1.40625,
            "durationTicks": 450,
            "midi": 62,
            "name": "D4",
            "ticks": 185760,
            "time": 580.5,
            "velocity": 1
          },
          {
            "duration": 0.7062500000000682,
            "durationTicks": 226,
            "midi": 61,
            "name": "C#4",
            "ticks": 186240,
            "time": 582,
            "velocity": 1
          },
          {
            "duration": 0.7062500000000682,
            "durationTicks": 226,
            "midi": 59,
            "name": "B3",
            "ticks": 186480,
            "time": 582.75,
            "velocity": 1
          },
          {
            "duration": 0.7062500000000682,
            "durationTicks": 226,
            "midi": 58,
            "name": "A#3",
            "ticks": 186720,
            "time": 583.5,
            "velocity": 1
          },
          {
            "duration": 0.7062500000000682,
            "durationTicks": 226,
            "midi": 56,
            "name": "G#3",
            "ticks": 186960,
            "time": 584.25,
            "velocity": 1
          },
          {
            "duration": 1.40625,
            "durationTicks": 450,
            "midi": 54,
            "name": "F#3",
            "ticks": 187200,
            "time": 585,
            "velocity": 1
          },
          {
            "duration": 0.2375000000000682,
            "durationTicks": 76,
            "midi": 44,
            "name": "G#2",
            "ticks": 188160,
            "time": 588,
            "velocity": 1
          },
          {
            "duration": 0.23749999999995453,
            "durationTicks": 76,
            "midi": 46,
            "name": "A#2",
            "ticks": 188240,
            "time": 588.25,
            "velocity": 1
          },
          {
            "duration": 0.23749999999995453,
            "durationTicks": 76,
            "midi": 47,
            "name": "B2",
            "ticks": 188320,
            "time": 588.5,
            "velocity": 1
          },
          {
            "duration": 0.18124999999997726,
            "durationTicks": 58,
            "midi": 49,
            "name": "C#3",
            "ticks": 188400,
            "time": 588.75,
            "velocity": 1
          },
          {
            "duration": 0.18124999999997726,
            "durationTicks": 58,
            "midi": 50,
            "name": "D3",
            "ticks": 188460,
            "time": 588.9375,
            "velocity": 1
          },
          {
            "duration": 0.18124999999997726,
            "durationTicks": 58,
            "midi": 52,
            "name": "E3",
            "ticks": 188520,
            "time": 589.125,
            "velocity": 1
          },
          {
            "duration": 0.18124999999997726,
            "durationTicks": 58,
            "midi": 54,
            "name": "F#3",
            "ticks": 188580,
            "time": 589.3125,
            "velocity": 1
          },
          {
            "duration": 1.40625,
            "durationTicks": 450,
            "midi": 55,
            "name": "G3",
            "ticks": 188640,
            "time": 589.5,
            "velocity": 1
          },
          {
            "duration": 0.7062500000000682,
            "durationTicks": 226,
            "midi": 54,
            "name": "F#3",
            "ticks": 189120,
            "time": 591,
            "velocity": 1
          },
          {
            "duration": 0.7062500000000682,
            "durationTicks": 226,
            "midi": 52,
            "name": "E3",
            "ticks": 189360,
            "time": 591.75,
            "velocity": 1
          },
          {
            "duration": 0.7062500000000682,
            "durationTicks": 226,
            "midi": 50,
            "name": "D3",
            "ticks": 189600,
            "time": 592.5,
            "velocity": 1
          },
          {
            "duration": 0.7062500000000682,
            "durationTicks": 226,
            "midi": 49,
            "name": "C#3",
            "ticks": 189840,
            "time": 593.25,
            "velocity": 1
          },
          {
            "duration": 0.7062500000000682,
            "durationTicks": 226,
            "midi": 47,
            "name": "B2",
            "ticks": 190080,
            "time": 594,
            "velocity": 1
          },
          {
            "duration": 0.7062500000000682,
            "durationTicks": 226,
            "midi": 46,
            "name": "A#2",
            "ticks": 190320,
            "time": 594.75,
            "velocity": 1
          },
          {
            "duration": 0.2375000000000682,
            "durationTicks": 76,
            "midi": 44,
            "name": "G#2",
            "ticks": 191040,
            "time": 597,
            "velocity": 1
          },
          {
            "duration": 0.23749999999995453,
            "durationTicks": 76,
            "midi": 46,
            "name": "A#2",
            "ticks": 191120,
            "time": 597.25,
            "velocity": 1
          },
          {
            "duration": 0.23749999999995453,
            "durationTicks": 76,
            "midi": 47,
            "name": "B2",
            "ticks": 191200,
            "time": 597.5,
            "velocity": 1
          },
          {
            "duration": 0.18124999999997726,
            "durationTicks": 58,
            "midi": 49,
            "name": "C#3",
            "ticks": 191280,
            "time": 597.75,
            "velocity": 1
          },
          {
            "duration": 0.18124999999997726,
            "durationTicks": 58,
            "midi": 50,
            "name": "D3",
            "ticks": 191340,
            "time": 597.9375,
            "velocity": 1
          },
          {
            "duration": 0.18124999999997726,
            "durationTicks": 58,
            "midi": 52,
            "name": "E3",
            "ticks": 191400,
            "time": 598.125,
            "velocity": 1
          },
          {
            "duration": 0.18124999999997726,
            "durationTicks": 58,
            "midi": 54,
            "name": "F#3",
            "ticks": 191460,
            "time": 598.3125,
            "velocity": 1
          },
          {
            "duration": 1.40625,
            "durationTicks": 450,
            "midi": 55,
            "name": "G3",
            "ticks": 191520,
            "time": 598.5,
            "velocity": 1
          },
          {
            "duration": 0.7062500000000682,
            "durationTicks": 226,
            "midi": 54,
            "name": "F#3",
            "ticks": 192000,
            "time": 600,
            "velocity": 1
          },
          {
            "duration": 0.7062500000000682,
            "durationTicks": 226,
            "midi": 52,
            "name": "E3",
            "ticks": 192240,
            "time": 600.75,
            "velocity": 1
          },
          {
            "duration": 0.7062500000000682,
            "durationTicks": 226,
            "midi": 50,
            "name": "D3",
            "ticks": 192480,
            "time": 601.5,
            "velocity": 1
          },
          {
            "duration": 0.7062500000000682,
            "durationTicks": 226,
            "midi": 49,
            "name": "C#3",
            "ticks": 192720,
            "time": 602.25,
            "velocity": 1
          },
          {
            "duration": 0.7062500000000682,
            "durationTicks": 226,
            "midi": 47,
            "name": "B2",
            "ticks": 192960,
            "time": 603,
            "velocity": 1
          },
          {
            "duration": 0.7062500000000682,
            "durationTicks": 226,
            "midi": 46,
            "name": "A#2",
            "ticks": 193200,
            "time": 603.75,
            "velocity": 0.984251968503937
          },
          {
            "duration": 0.7062500000000682,
            "durationTicks": 226,
            "midi": 50,
            "name": "D3",
            "ticks": 194400,
            "time": 607.5,
            "velocity": 0.8582677165354331
          },
          {
            "duration": 0.7062500000000682,
            "durationTicks": 226,
            "midi": 49,
            "name": "C#3",
            "ticks": 194640,
            "time": 608.25,
            "velocity": 0.8346456692913385
          },
          {
            "duration": 0.7062500000000682,
            "durationTicks": 226,
            "midi": 55,
            "name": "G3",
            "ticks": 195840,
            "time": 612,
            "velocity": 0.7165354330708661
          },
          {
            "duration": 0.7062500000000682,
            "durationTicks": 226,
            "midi": 54,
            "name": "F#3",
            "ticks": 196080,
            "time": 612.75,
            "velocity": 0.6850393700787402
          },
          {
            "duration": 1.40625,
            "durationTicks": 450,
            "midi": 59,
            "name": "B3",
            "ticks": 214080,
            "time": 669,
            "velocity": 0.47244094488188976
          },
          {
            "duration": 1.40625,
            "durationTicks": 450,
            "midi": 59,
            "name": "B3",
            "ticks": 214560,
            "time": 670.5,
            "velocity": 0.47244094488188976
          },
          {
            "duration": 1.40625,
            "durationTicks": 450,
            "midi": 58,
            "name": "A#3",
            "ticks": 215040,
            "time": 672,
            "velocity": 0.47244094488188976
          },
          {
            "duration": 1.40625,
            "durationTicks": 450,
            "midi": 57,
            "name": "A3",
            "ticks": 215520,
            "time": 673.5,
            "velocity": 0.47244094488188976
          },
          {
            "duration": 0.7062500000000682,
            "durationTicks": 226,
            "midi": 57,
            "name": "A3",
            "ticks": 216000,
            "time": 675,
            "velocity": 0.47244094488188976
          },
          {
            "duration": 1.40625,
            "durationTicks": 450,
            "midi": 59,
            "name": "B3",
            "ticks": 216960,
            "time": 678,
            "velocity": 0.47244094488188976
          },
          {
            "duration": 1.40625,
            "durationTicks": 450,
            "midi": 59,
            "name": "B3",
            "ticks": 217440,
            "time": 679.5,
            "velocity": 0.47244094488188976
          },
          {
            "duration": 1.40625,
            "durationTicks": 450,
            "midi": 58,
            "name": "A#3",
            "ticks": 217920,
            "time": 681,
            "velocity": 0.47244094488188976
          },
          {
            "duration": 1.40625,
            "durationTicks": 450,
            "midi": 57,
            "name": "A3",
            "ticks": 218400,
            "time": 682.5,
            "velocity": 0.47244094488188976
          },
          {
            "duration": 2.8125,
            "durationTicks": 900,
            "midi": 55,
            "name": "G3",
            "ticks": 218880,
            "time": 684,
            "velocity": 0.47244094488188976
          },
          {
            "duration": 1.40625,
            "durationTicks": 450,
            "midi": 54,
            "name": "F#3",
            "ticks": 219840,
            "time": 687,
            "velocity": 0.47244094488188976
          },
          {
            "duration": 2.8125,
            "durationTicks": 900,
            "midi": 52,
            "name": "E3",
            "ticks": 220320,
            "time": 688.5,
            "velocity": 0.47244094488188976
          },
          {
            "duration": 1.40625,
            "durationTicks": 450,
            "midi": 50,
            "name": "D3",
            "ticks": 221280,
            "time": 691.5,
            "velocity": 0.47244094488188976
          },
          {
            "duration": 4.40625,
            "durationTicks": 1410,
            "midi": 49,
            "name": "C#3",
            "ticks": 221760,
            "time": 693,
            "velocity": 0.47244094488188976
          },
          {
            "duration": 2.206250000000068,
            "durationTicks": 706,
            "midi": 59,
            "name": "B3",
            "ticks": 223200,
            "time": 697.5,
            "velocity": 0.5905511811023622
          },
          {
            "duration": 1.40625,
            "durationTicks": 450,
            "midi": 59,
            "name": "B3",
            "ticks": 224160,
            "time": 700.5,
            "velocity": 0.5905511811023622
          },
          {
            "duration": 1.40625,
            "durationTicks": 450,
            "midi": 59,
            "name": "B3",
            "ticks": 224640,
            "time": 702,
            "velocity": 0.5905511811023622
          },
          {
            "duration": 1.40625,
            "durationTicks": 450,
            "midi": 57,
            "name": "A3",
            "ticks": 225120,
            "time": 703.5,
            "velocity": 0.5905511811023622
          },
          {
            "duration": 1.40625,
            "durationTicks": 450,
            "midi": 47,
            "name": "B2",
            "ticks": 225600,
            "time": 705,
            "velocity": 0.5905511811023622
          },
          {
            "duration": 1.40625,
            "durationTicks": 450,
            "midi": 55,
            "name": "G3",
            "ticks": 225600,
            "time": 705,
            "velocity": 0.5905511811023622
          },
          {
            "duration": 1.40625,
            "durationTicks": 450,
            "midi": 47,
            "name": "B2",
            "ticks": 226080,
            "time": 706.5,
            "velocity": 0.5905511811023622
          },
          {
            "duration": 4.40625,
            "durationTicks": 1410,
            "midi": 54,
            "name": "F#3",
            "ticks": 226080,
            "time": 706.5,
            "velocity": 0.5905511811023622
          },
          {
            "duration": 1.40625,
            "durationTicks": 450,
            "midi": 46,
            "name": "A#2",
            "ticks": 226560,
            "time": 708,
            "velocity": 0.5905511811023622
          },
          {
            "duration": 1.40625,
            "durationTicks": 450,
            "midi": 45,
            "name": "A2",
            "ticks": 227040,
            "time": 709.5,
            "velocity": 0.5905511811023622
          },
          {
            "duration": 1.40625,
            "durationTicks": 450,
            "midi": 43,
            "name": "G2",
            "ticks": 227520,
            "time": 711,
            "velocity": 0.6299212598425197
          },
          {
            "duration": 1.40625,
            "durationTicks": 450,
            "midi": 59,
            "name": "B3",
            "ticks": 227520,
            "time": 711,
            "velocity": 0.6299212598425197
          },
          {
            "duration": 1.40625,
            "durationTicks": 450,
            "midi": 57,
            "name": "A3",
            "ticks": 228000,
            "time": 712.5,
            "velocity": 0.6299212598425197
          },
          {
            "duration": 1.40625,
            "durationTicks": 450,
            "midi": 47,
            "name": "B2",
            "ticks": 228480,
            "time": 714,
            "velocity": 0.6220472440944882
          },
          {
            "duration": 1.40625,
            "durationTicks": 450,
            "midi": 55,
            "name": "G3",
            "ticks": 228480,
            "time": 714,
            "velocity": 0.6220472440944882
          },
          {
            "duration": 1.40625,
            "durationTicks": 450,
            "midi": 47,
            "name": "B2",
            "ticks": 228960,
            "time": 715.5,
            "velocity": 0.6141732283464567
          },
          {
            "duration": 4.40625,
            "durationTicks": 1410,
            "midi": 54,
            "name": "F#3",
            "ticks": 228960,
            "time": 715.5,
            "velocity": 0.6141732283464567
          },
          {
            "duration": 1.40625,
            "durationTicks": 450,
            "midi": 46,
            "name": "A#2",
            "ticks": 229440,
            "time": 717,
            "velocity": 0.6141732283464567
          },
          {
            "duration": 1.40625,
            "durationTicks": 450,
            "midi": 45,
            "name": "A2",
            "ticks": 229920,
            "time": 718.5,
            "velocity": 0.6062992125984252
          },
          {
            "duration": 2.90625,
            "durationTicks": 930,
            "midi": 43,
            "name": "G2",
            "ticks": 230400,
            "time": 720,
            "velocity": 0.6062992125984252
          },
          {
            "duration": 1.40625,
            "durationTicks": 450,
            "midi": 54,
            "name": "F#3",
            "ticks": 230400,
            "time": 720,
            "velocity": 0.6062992125984252
          },
          {
            "duration": 1.40625,
            "durationTicks": 450,
            "midi": 52,
            "name": "E3",
            "ticks": 230880,
            "time": 721.5,
            "velocity": 0.5984251968503937
          },
          {
            "duration": 1.40625,
            "durationTicks": 450,
            "midi": 42,
            "name": "F#2",
            "ticks": 231360,
            "time": 723,
            "velocity": 0.5984251968503937
          },
          {
            "duration": 1.40625,
            "durationTicks": 450,
            "midi": 50,
            "name": "D3",
            "ticks": 231360,
            "time": 723,
            "velocity": 0.5984251968503937
          },
          {
            "duration": 2.90625,
            "durationTicks": 930,
            "midi": 40,
            "name": "E2",
            "ticks": 231840,
            "time": 724.5,
            "velocity": 0.5905511811023622
          },
          {
            "duration": 1.40625,
            "durationTicks": 450,
            "midi": 50,
            "name": "D3",
            "ticks": 231840,
            "time": 724.5,
            "velocity": 0.5905511811023622
          },
          {
            "duration": 1.40625,
            "durationTicks": 450,
            "midi": 49,
            "name": "C#3",
            "ticks": 232320,
            "time": 726,
            "velocity": 0.5826771653543307
          },
          {
            "duration": 1.40625,
            "durationTicks": 450,
            "midi": 38,
            "name": "D2",
            "ticks": 232800,
            "time": 727.5,
            "velocity": 0.5826771653543307
          },
          {
            "duration": 1.40625,
            "durationTicks": 450,
            "midi": 47,
            "name": "B2",
            "ticks": 232800,
            "time": 727.5,
            "velocity": 0.5826771653543307
          },
          {
            "duration": 4.40625,
            "durationTicks": 1410,
            "midi": 37,
            "name": "C#2",
            "ticks": 233280,
            "time": 729,
            "velocity": 0.5748031496062992
          },
          {
            "duration": 1.40625,
            "durationTicks": 450,
            "midi": 47,
            "name": "B2",
            "ticks": 233280,
            "time": 729,
            "velocity": 0.5748031496062992
          },
          {
            "duration": 1.40625,
            "durationTicks": 450,
            "midi": 45,
            "name": "A2",
            "ticks": 233760,
            "time": 730.5,
            "velocity": 0.5748031496062992
          },
          {
            "duration": 1.40625,
            "durationTicks": 450,
            "midi": 43,
            "name": "G2",
            "ticks": 234240,
            "time": 732,
            "velocity": 0.5669291338582677
          },
          {
            "duration": 4.40625,
            "durationTicks": 1410,
            "midi": 38,
            "name": "D2",
            "ticks": 234720,
            "time": 733.5,
            "velocity": 0.5748031496062992
          },
          {
            "duration": 4.40625,
            "durationTicks": 1410,
            "midi": 42,
            "name": "F#2",
            "ticks": 234720,
            "time": 733.5,
            "velocity": 0.5748031496062992
          },
          {
            "duration": 4.40625,
            "durationTicks": 1410,
            "midi": 37,
            "name": "C#2",
            "ticks": 236160,
            "time": 738,
            "velocity": 0.5748031496062992
          },
          {
            "duration": 4.40625,
            "durationTicks": 1410,
            "midi": 40,
            "name": "E2",
            "ticks": 236160,
            "time": 738,
            "velocity": 0.5748031496062992
          },
          {
            "duration": 4.40625,
            "durationTicks": 1410,
            "midi": 43,
            "name": "G2",
            "ticks": 236160,
            "time": 738,
            "velocity": 0.5748031496062992
          },
          {
            "duration": 4.40625,
            "durationTicks": 1410,
            "midi": 47,
            "name": "B2",
            "ticks": 236160,
            "time": 738,
            "velocity": 0.5748031496062992
          },
          {
            "duration": 4.40625,
            "durationTicks": 1410,
            "midi": 38,
            "name": "D2",
            "ticks": 237600,
            "time": 742.5,
            "velocity": 0.5118110236220472
          },
          {
            "duration": 4.40625,
            "durationTicks": 1410,
            "midi": 42,
            "name": "F#2",
            "ticks": 237600,
            "time": 742.5,
            "velocity": 0.5118110236220472
          },
          {
            "duration": 4.40625,
            "durationTicks": 1410,
            "midi": 37,
            "name": "C#2",
            "ticks": 239040,
            "time": 747,
            "velocity": 0.5511811023622047
          },
          {
            "duration": 4.40625,
            "durationTicks": 1410,
            "midi": 40,
            "name": "E2",
            "ticks": 239040,
            "time": 747,
            "velocity": 0.5511811023622047
          },
          {
            "duration": 4.40625,
            "durationTicks": 1410,
            "midi": 43,
            "name": "G2",
            "ticks": 239040,
            "time": 747,
            "velocity": 0.5511811023622047
          },
          {
            "duration": 4.40625,
            "durationTicks": 1410,
            "midi": 47,
            "name": "B2",
            "ticks": 239040,
            "time": 747,
            "velocity": 0.5511811023622047
          },
          {
            "duration": 30.799999999999955,
            "durationTicks": 9856,
            "midi": 38,
            "name": "D2",
            "ticks": 240480,
            "time": 751.5,
            "velocity": 0.5196850393700787
          },
          {
            "duration": 30.875,
            "durationTicks": 9880,
            "midi": 42,
            "name": "F#2",
            "ticks": 240480,
            "time": 751.5,
            "velocity": 0.5196850393700787
          }
        ]
      },
      {
        "channel": 0,
        "controlChanges": {},
        "pitchBends": [],
        "instrument": {
          "family": "piano",
          "number": 0,
          "name": "acoustic grand piano"
        },
        "name": "Contrabass",
        "notes": [],
        "endOfTrackTicks": 250560
      },
      {
        "channel": 15,
        "controlChanges": {
          "7": [
            {
              "number": 7,
              "ticks": 0,
              "time": 0,
              "value": 1
            },
            {
              "number": 7,
              "ticks": 240480,
              "time": 751.5,
              "value": 0.952755905511811
            },
            {
              "number": 7,
              "ticks": 240688,
              "time": 752.15,
              "value": 0.9448818897637795
            },
            {
              "number": 7,
              "ticks": 240888,
              "time": 752.7750000000001,
              "value": 0.937007874015748
            },
            {
              "number": 7,
              "ticks": 241088,
              "time": 753.4,
              "value": 0.9291338582677166
            },
            {
              "number": 7,
              "ticks": 241288,
              "time": 754.025,
              "value": 0.9212598425196851
            },
            {
              "number": 7,
              "ticks": 241488,
              "time": 754.6500000000001,
              "value": 0.9133858267716536
            },
            {
              "number": 7,
              "ticks": 241688,
              "time": 755.275,
              "value": 0.905511811023622
            },
            {
              "number": 7,
              "ticks": 241888,
              "time": 755.9,
              "value": 0.8976377952755905
            },
            {
              "number": 7,
              "ticks": 242088,
              "time": 756.5250000000001,
              "value": 0.889763779527559
            },
            {
              "number": 7,
              "ticks": 242288,
              "time": 757.15,
              "value": 0.8818897637795275
            },
            {
              "number": 7,
              "ticks": 242488,
              "time": 757.775,
              "value": 0.8740157480314961
            },
            {
              "number": 7,
              "ticks": 242688,
              "time": 758.4000000000001,
              "value": 0.8661417322834646
            },
            {
              "number": 7,
              "ticks": 242888,
              "time": 759.025,
              "value": 0.8582677165354331
            },
            {
              "number": 7,
              "ticks": 243088,
              "time": 759.65,
              "value": 0.8503937007874016
            },
            {
              "number": 7,
              "ticks": 243288,
              "time": 760.2750000000001,
              "value": 0.84251968503937
            },
            {
              "number": 7,
              "ticks": 243496,
              "time": 760.9250000000001,
              "value": 0.8346456692913385
            },
            {
              "number": 7,
              "ticks": 243696,
              "time": 761.55,
              "value": 0.8267716535433071
            },
            {
              "number": 7,
              "ticks": 243896,
              "time": 762.175,
              "value": 0.8188976377952756
            },
            {
              "number": 7,
              "ticks": 244096,
              "time": 762.8000000000001,
              "value": 0.8110236220472441
            },
            {
              "number": 7,
              "ticks": 244296,
              "time": 763.425,
              "value": 0.8031496062992126
            },
            {
              "number": 7,
              "ticks": 244496,
              "time": 764.05,
              "value": 0.7952755905511811
            },
            {
              "number": 7,
              "ticks": 244696,
              "time": 764.6750000000001,
              "value": 0.7874015748031497
            },
            {
              "number": 7,
              "ticks": 244896,
              "time": 765.3,
              "value": 0.7795275590551181
            },
            {
              "number": 7,
              "ticks": 245096,
              "time": 765.925,
              "value": 0.7716535433070866
            },
            {
              "number": 7,
              "ticks": 245296,
              "time": 766.5500000000001,
              "value": 0.7637795275590551
            },
            {
              "number": 7,
              "ticks": 245496,
              "time": 767.175,
              "value": 0.7559055118110236
            },
            {
              "number": 7,
              "ticks": 245696,
              "time": 767.8,
              "value": 0.7480314960629921
            },
            {
              "number": 7,
              "ticks": 245896,
              "time": 768.425,
              "value": 0.7401574803149606
            },
            {
              "number": 7,
              "ticks": 246096,
              "time": 769.0500000000001,
              "value": 0.7322834645669292
            },
            {
              "number": 7,
              "ticks": 246224,
              "time": 769.45,
              "value": 0.6771653543307087
            },
            {
              "number": 7,
              "ticks": 246280,
              "time": 769.625,
              "value": 0.6692913385826772
            },
            {
              "number": 7,
              "ticks": 246336,
              "time": 769.8000000000001,
              "value": 0.6614173228346457
            },
            {
              "number": 7,
              "ticks": 246392,
              "time": 769.9750000000001,
              "value": 0.6535433070866141
            },
            {
              "number": 7,
              "ticks": 246448,
              "time": 770.1499999999999,
              "value": 0.6456692913385826
            },
            {
              "number": 7,
              "ticks": 246504,
              "time": 770.3249999999999,
              "value": 0.6377952755905512
            },
            {
              "number": 7,
              "ticks": 246560,
              "time": 770.5,
              "value": 0.6299212598425197
            },
            {
              "number": 7,
              "ticks": 246616,
              "time": 770.675,
              "value": 0.6220472440944882
            },
            {
              "number": 7,
              "ticks": 246664,
              "time": 770.825,
              "value": 0.6141732283464567
            },
            {
              "number": 7,
              "ticks": 246720,
              "time": 771,
              "value": 0.6062992125984252
            },
            {
              "number": 7,
              "ticks": 246776,
              "time": 771.175,
              "value": 0.5984251968503937
            },
            {
              "number": 7,
              "ticks": 246832,
              "time": 771.35,
              "value": 0.5905511811023622
            },
            {
              "number": 7,
              "ticks": 246888,
              "time": 771.5250000000001,
              "value": 0.5826771653543307
            },
            {
              "number": 7,
              "ticks": 246944,
              "time": 771.7,
              "value": 0.5748031496062992
            },
            {
              "number": 7,
              "ticks": 247000,
              "time": 771.875,
              "value": 0.5669291338582677
            },
            {
              "number": 7,
              "ticks": 247056,
              "time": 772.0500000000001,
              "value": 0.5590551181102362
            },
            {
              "number": 7,
              "ticks": 247104,
              "time": 772.1999999999999,
              "value": 0.5511811023622047
            },
            {
              "number": 7,
              "ticks": 247120,
              "time": 772.25,
              "value": 0.3937007874015748
            },
            {
              "number": 7,
              "ticks": 247128,
              "time": 772.2750000000001,
              "value": 0.5118110236220472
            },
            {
              "number": 7,
              "ticks": 247152,
              "time": 772.3499999999999,
              "value": 0.5039370078740157
            },
            {
              "number": 7,
              "ticks": 247240,
              "time": 772.625,
              "value": 0.49606299212598426
            },
            {
              "number": 7,
              "ticks": 247328,
              "time": 772.9,
              "value": 0.4881889763779528
            },
            {
              "number": 7,
              "ticks": 247416,
              "time": 773.1750000000001,
              "value": 0.48031496062992124
            },
            {
              "number": 7,
              "ticks": 247504,
              "time": 773.45,
              "value": 0.47244094488188976
            },
            {
              "number": 7,
              "ticks": 247592,
              "time": 773.7250000000001,
              "value": 0.4645669291338583
            },
            {
              "number": 7,
              "ticks": 247680,
              "time": 774,
              "value": 0.4566929133858268
            },
            {
              "number": 7,
              "ticks": 247768,
              "time": 774.2749999999999,
              "value": 0.44881889763779526
            },
            {
              "number": 7,
              "ticks": 247856,
              "time": 774.55,
              "value": 0.4409448818897638
            },
            {
              "number": 7,
              "ticks": 247944,
              "time": 774.8249999999999,
              "value": 0.4330708661417323
            },
            {
              "number": 7,
              "ticks": 248032,
              "time": 775.1,
              "value": 0.4251968503937008
            },
            {
              "number": 7,
              "ticks": 248120,
              "time": 775.375,
              "value": 0.41732283464566927
            },
            {
              "number": 7,
              "ticks": 248208,
              "time": 775.6500000000001,
              "value": 0.4094488188976378
            },
            {
              "number": 7,
              "ticks": 248288,
              "time": 775.9,
              "value": 0.4015748031496063
            },
            {
              "number": 7,
              "ticks": 248376,
              "time": 776.1750000000001,
              "value": 0.3937007874015748
            },
            {
              "number": 7,
              "ticks": 248464,
              "time": 776.45,
              "value": 0.3858267716535433
            },
            {
              "number": 7,
              "ticks": 248552,
              "time": 776.7250000000001,
              "value": 0.3779527559055118
            },
            {
              "number": 7,
              "ticks": 248640,
              "time": 777,
              "value": 0.3700787401574803
            },
            {
              "number": 7,
              "ticks": 248728,
              "time": 777.2749999999999,
              "value": 0.36220472440944884
            },
            {
              "number": 7,
              "ticks": 248816,
              "time": 777.55,
              "value": 0.3543307086614173
            },
            {
              "number": 7,
              "ticks": 248904,
              "time": 777.8249999999999,
              "value": 0.3464566929133858
            },
            {
              "number": 7,
              "ticks": 248992,
              "time": 778.1,
              "value": 0.33858267716535434
            },
            {
              "number": 7,
              "ticks": 249080,
              "time": 778.375,
              "value": 0.33070866141732286
            },
            {
              "number": 7,
              "ticks": 249168,
              "time": 778.6500000000001,
              "value": 0.3228346456692913
            },
            {
              "number": 7,
              "ticks": 249256,
              "time": 778.925,
              "value": 0.31496062992125984
            },
            {
              "number": 7,
              "ticks": 249344,
              "time": 779.2,
              "value": 0.30708661417322836
            },
            {
              "number": 7,
              "ticks": 249424,
              "time": 779.45,
              "value": 0.2992125984251969
            },
            {
              "number": 7,
              "ticks": 249512,
              "time": 779.7250000000001,
              "value": 0.29133858267716534
            },
            {
              "number": 7,
              "ticks": 249600,
              "time": 780,
              "value": 0.28346456692913385
            },
            {
              "number": 7,
              "ticks": 249688,
              "time": 780.2749999999999,
              "value": 0.2755905511811024
            },
            {
              "number": 7,
              "ticks": 249776,
              "time": 780.55,
              "value": 0.2677165354330709
            },
            {
              "number": 7,
              "ticks": 249864,
              "time": 780.8249999999999,
              "value": 0.25984251968503935
            },
            {
              "number": 7,
              "ticks": 249952,
              "time": 781.1,
              "value": 0.25196850393700787
            },
            {
              "number": 7,
              "ticks": 250040,
              "time": 781.375,
              "value": 0.2440944881889764
            },
            {
              "number": 7,
              "ticks": 250128,
              "time": 781.6500000000001,
              "value": 0.23622047244094488
            },
            {
              "number": 7,
              "ticks": 250216,
              "time": 781.925,
              "value": 0.2283464566929134
            },
            {
              "number": 7,
              "ticks": 250304,
              "time": 782.2,
              "value": 0.2204724409448819
            },
            {
              "number": 7,
              "ticks": 250392,
              "time": 782.4749999999999,
              "value": 0.2125984251968504
            },
            {
              "number": 7,
              "ticks": 250480,
              "time": 782.75,
              "value": 0.2047244094488189
            }
          ],
          "10": [
            {
              "number": 10,
              "ticks": 0,
              "time": 0,
              "value": 0.9448818897637795
            }
          ]
        },
        "pitchBends": [],
        "instrument": {
          "family": "strings",
          "number": 43,
          "name": "contrabass"
        },
        "name": "",
        "notes": [
          {
            "duration": 2.9562500000000007,
            "durationTicks": 946,
            "midi": 38,
            "name": "D2",
            "ticks": 5760,
            "time": 18,
            "velocity": 0.5275590551181102
          },
          {
            "duration": 1.0562500000000021,
            "durationTicks": 338,
            "midi": 38,
            "name": "D2",
            "ticks": 6720,
            "time": 21,
            "velocity": 0.5275590551181102
          },
          {
            "duration": 0.35625000000000284,
            "durationTicks": 114,
            "midi": 37,
            "name": "C#2",
            "ticks": 7080,
            "time": 22.125,
            "velocity": 0.5275590551181102
          },
          {
            "duration": 2.8125,
            "durationTicks": 900,
            "midi": 38,
            "name": "D2",
            "ticks": 7200,
            "time": 22.5,
            "velocity": 0.49606299212598426
          },
          {
            "duration": 2.9562500000000043,
            "durationTicks": 946,
            "midi": 42,
            "name": "F#2",
            "ticks": 8640,
            "time": 27,
            "velocity": 0.5275590551181102
          },
          {
            "duration": 1.0562499999999986,
            "durationTicks": 338,
            "midi": 42,
            "name": "F#2",
            "ticks": 9600,
            "time": 30,
            "velocity": 0.5275590551181102
          },
          {
            "duration": 0.35625000000000284,
            "durationTicks": 114,
            "midi": 41,
            "name": "F2",
            "ticks": 9960,
            "time": 31.125,
            "velocity": 0.5275590551181102
          },
          {
            "duration": 2.8125,
            "durationTicks": 900,
            "midi": 42,
            "name": "F#2",
            "ticks": 10080,
            "time": 31.5,
            "velocity": 0.5275590551181102
          },
          {
            "duration": 2.1125000000000043,
            "durationTicks": 676,
            "midi": 45,
            "name": "A2",
            "ticks": 11520,
            "time": 36,
            "velocity": 0.5039370078740157
          },
          {
            "duration": 0.7062500000000043,
            "durationTicks": 226,
            "midi": 44,
            "name": "G#2",
            "ticks": 12240,
            "time": 38.25,
            "velocity": 0.5590551181102362
          },
          {
            "duration": 1.40625,
            "durationTicks": 450,
            "midi": 45,
            "name": "A2",
            "ticks": 12480,
            "time": 39,
            "velocity": 0.5748031496062992
          },
          {
            "duration": 2.1125000000000043,
            "durationTicks": 676,
            "midi": 49,
            "name": "C#3",
            "ticks": 12960,
            "time": 40.5,
            "velocity": 0.6141732283464567
          },
          {
            "duration": 0.7062500000000043,
            "durationTicks": 226,
            "midi": 48,
            "name": "C3",
            "ticks": 13680,
            "time": 42.75,
            "velocity": 0.6692913385826772
          },
          {
            "duration": 1.40625,
            "durationTicks": 450,
            "midi": 49,
            "name": "C#3",
            "ticks": 13920,
            "time": 43.5,
            "velocity": 0.6850393700787402
          },
          {
            "duration": 2.1125000000000043,
            "durationTicks": 676,
            "midi": 52,
            "name": "E3",
            "ticks": 14400,
            "time": 45,
            "velocity": 0.7244094488188977
          },
          {
            "duration": 0.7062500000000043,
            "durationTicks": 226,
            "midi": 50,
            "name": "D3",
            "ticks": 15120,
            "time": 47.25,
            "velocity": 0.7795275590551181
          },
          {
            "duration": 1.40625,
            "durationTicks": 450,
            "midi": 49,
            "name": "C#3",
            "ticks": 15360,
            "time": 48,
            "velocity": 0.7952755905511811
          },
          {
            "duration": 5.206249999999997,
            "durationTicks": 1666,
            "midi": 47,
            "name": "B2",
            "ticks": 15840,
            "time": 49.5,
            "velocity": 0.7874015748031497
          },
          {
            "duration": 2.206249999999997,
            "durationTicks": 706,
            "midi": 45,
            "name": "A2",
            "ticks": 17760,
            "time": 55.5,
            "velocity": 0.7086614173228346
          },
          {
            "duration": 1.40625,
            "durationTicks": 450,
            "midi": 44,
            "name": "G#2",
            "ticks": 18720,
            "time": 58.5,
            "velocity": 0.7086614173228346
          },
          {
            "duration": 0.7062499999999972,
            "durationTicks": 226,
            "midi": 43,
            "name": "G2",
            "ticks": 19200,
            "time": 60,
            "velocity": 0.6929133858267716
          },
          {
            "duration": 0.7062499999999972,
            "durationTicks": 226,
            "midi": 42,
            "name": "F#2",
            "ticks": 19680,
            "time": 61.5,
            "velocity": 0.5984251968503937
          },
          {
            "duration": 0.7062499999999972,
            "durationTicks": 226,
            "midi": 41,
            "name": "F2",
            "ticks": 19920,
            "time": 62.25,
            "velocity": 0.5748031496062992
          },
          {
            "duration": 0.7062499999999972,
            "durationTicks": 226,
            "midi": 40,
            "name": "E2",
            "ticks": 20160,
            "time": 63,
            "velocity": 0.5275590551181102
          },
          {
            "duration": 1.40625,
            "durationTicks": 450,
            "midi": 38,
            "name": "D2",
            "ticks": 20640,
            "time": 64.5,
            "velocity": 0.5039370078740157
          },
          {
            "duration": 0.7062499999999972,
            "durationTicks": 226,
            "midi": 37,
            "name": "C#2",
            "ticks": 21120,
            "time": 66,
            "velocity": 0.4881889763779528
          },
          {
            "duration": 7.3125,
            "durationTicks": 2340,
            "midi": 52,
            "name": "E3",
            "ticks": 21600,
            "time": 67.5,
            "velocity": 0.44881889763779526
          },
          {
            "duration": 2.956249999999997,
            "durationTicks": 946,
            "midi": 38,
            "name": "D2",
            "ticks": 33120,
            "time": 103.5,
            "velocity": 0.44881889763779526
          },
          {
            "duration": 1.0562500000000057,
            "durationTicks": 338,
            "midi": 38,
            "name": "D2",
            "ticks": 34080,
            "time": 106.5,
            "velocity": 0.44881889763779526
          },
          {
            "duration": 0.35624999999998863,
            "durationTicks": 114,
            "midi": 37,
            "name": "C#2",
            "ticks": 34440,
            "time": 107.625,
            "velocity": 0.44881889763779526
          },
          {
            "duration": 3.6000000000000085,
            "durationTicks": 1152,
            "midi": 38,
            "name": "D2",
            "ticks": 34560,
            "time": 108,
            "velocity": 0.44881889763779526
          },
          {
            "duration": 2.956249999999997,
            "durationTicks": 946,
            "midi": 35,
            "name": "B1",
            "ticks": 36000,
            "time": 112.5,
            "velocity": 0.44881889763779526
          },
          {
            "duration": 1.0562500000000057,
            "durationTicks": 338,
            "midi": 35,
            "name": "B1",
            "ticks": 36960,
            "time": 115.5,
            "velocity": 0.44881889763779526
          },
          {
            "duration": 0.35624999999998863,
            "durationTicks": 114,
            "midi": 34,
            "name": "A#1",
            "ticks": 37320,
            "time": 116.625,
            "velocity": 0.44881889763779526
          },
          {
            "duration": 3.6000000000000085,
            "durationTicks": 1152,
            "midi": 35,
            "name": "B1",
            "ticks": 37440,
            "time": 117,
            "velocity": 0.44881889763779526
          },
          {
            "duration": 2.956249999999997,
            "durationTicks": 946,
            "midi": 31,
            "name": "G1",
            "ticks": 38880,
            "time": 121.5,
            "velocity": 0.41732283464566927
          },
          {
            "duration": 1.0562500000000057,
            "durationTicks": 338,
            "midi": 31,
            "name": "G1",
            "ticks": 39840,
            "time": 124.5,
            "velocity": 0.41732283464566927
          },
          {
            "duration": 0.35624999999998863,
            "durationTicks": 114,
            "midi": 30,
            "name": "F#1",
            "ticks": 40200,
            "time": 125.625,
            "velocity": 0.41732283464566927
          },
          {
            "duration": 3.6000000000000227,
            "durationTicks": 1152,
            "midi": 31,
            "name": "G1",
            "ticks": 40320,
            "time": 126,
            "velocity": 0.3937007874015748
          },
          {
            "duration": 8.100000000000023,
            "durationTicks": 2592,
            "midi": 28,
            "name": "E1",
            "ticks": 41760,
            "time": 130.5,
            "velocity": 0.4330708661417323
          },
          {
            "duration": 18.600000000000023,
            "durationTicks": 5952,
            "midi": 28,
            "name": "E1",
            "ticks": 45600,
            "time": 142.5,
            "velocity": 0.5118110236220472
          },
          {
            "duration": 1.40625,
            "durationTicks": 450,
            "midi": 38,
            "name": "D2",
            "ticks": 54240,
            "time": 169.5,
            "velocity": 0.3937007874015748
          },
          {
            "duration": 2.8125,
            "durationTicks": 900,
            "midi": 40,
            "name": "E2",
            "ticks": 54720,
            "time": 171,
            "velocity": 0.3937007874015748
          },
          {
            "duration": 1.40625,
            "durationTicks": 450,
            "midi": 43,
            "name": "G2",
            "ticks": 55680,
            "time": 174,
            "velocity": 0.3937007874015748
          },
          {
            "duration": 1.40625,
            "durationTicks": 450,
            "midi": 43,
            "name": "G2",
            "ticks": 56160,
            "time": 175.5,
            "velocity": 0.41732283464566927
          },
          {
            "duration": 1.40625,
            "durationTicks": 450,
            "midi": 42,
            "name": "F#2",
            "ticks": 56640,
            "time": 177,
            "velocity": 0.41732283464566927
          },
          {
            "duration": 1.40625,
            "durationTicks": 450,
            "midi": 41,
            "name": "F2",
            "ticks": 57120,
            "time": 178.5,
            "velocity": 0.41732283464566927
          },
          {
            "duration": 2.8125,
            "durationTicks": 900,
            "midi": 40,
            "name": "E2",
            "ticks": 57600,
            "time": 180,
            "velocity": 0.3937007874015748
          },
          {
            "duration": 1.40625,
            "durationTicks": 450,
            "midi": 43,
            "name": "G2",
            "ticks": 58560,
            "time": 183,
            "velocity": 0.3937007874015748
          },
          {
            "duration": 1.40625,
            "durationTicks": 450,
            "midi": 43,
            "name": "G2",
            "ticks": 59040,
            "time": 184.5,
            "velocity": 0.3700787401574803
          },
          {
            "duration": 1.40625,
            "durationTicks": 450,
            "midi": 42,
            "name": "F#2",
            "ticks": 59520,
            "time": 186,
            "velocity": 0.4015748031496063
          },
          {
            "duration": 1.40625,
            "durationTicks": 450,
            "midi": 40,
            "name": "E2",
            "ticks": 60000,
            "time": 187.5,
            "velocity": 0.4330708661417323
          },
          {
            "duration": 1.40625,
            "durationTicks": 450,
            "midi": 39,
            "name": "D#2",
            "ticks": 60480,
            "time": 189,
            "velocity": 0.4566929133858268
          },
          {
            "duration": 1.40625,
            "durationTicks": 450,
            "midi": 40,
            "name": "E2",
            "ticks": 60960,
            "time": 190.5,
            "velocity": 0.4881889763779528
          },
          {
            "duration": 1.40625,
            "durationTicks": 450,
            "midi": 37,
            "name": "C#2",
            "ticks": 61440,
            "time": 192,
            "velocity": 0.5196850393700787
          },
          {
            "duration": 1.40625,
            "durationTicks": 450,
            "midi": 37,
            "name": "C#2",
            "ticks": 61920,
            "time": 193.5,
            "velocity": 0.5433070866141733
          },
          {
            "duration": 1.40625,
            "durationTicks": 450,
            "midi": 39,
            "name": "D#2",
            "ticks": 62400,
            "time": 195,
            "velocity": 0.5748031496062992
          },
          {
            "duration": 1.40625,
            "durationTicks": 450,
            "midi": 30,
            "name": "F#1",
            "ticks": 62880,
            "time": 196.5,
            "velocity": 0.5984251968503937
          },
          {
            "duration": 2.90625,
            "durationTicks": 930,
            "midi": 31,
            "name": "G1",
            "ticks": 63360,
            "time": 198,
            "velocity": 0.6299212598425197
          },
          {
            "duration": 1.40625,
            "durationTicks": 450,
            "midi": 43,
            "name": "G2",
            "ticks": 64320,
            "time": 201,
            "velocity": 0.6299212598425197
          },
          {
            "duration": 2.8125,
            "durationTicks": 900,
            "midi": 43,
            "name": "G2",
            "ticks": 64800,
            "time": 202.5,
            "velocity": 0.6299212598425197
          },
          {
            "duration": 1.40625,
            "durationTicks": 450,
            "midi": 42,
            "name": "F#2",
            "ticks": 65760,
            "time": 205.5,
            "velocity": 0.47244094488188976
          },
          {
            "duration": 2.8125,
            "durationTicks": 900,
            "midi": 40,
            "name": "E2",
            "ticks": 66240,
            "time": 207,
            "velocity": 0.3700787401574803
          },
          {
            "duration": 1.40625,
            "durationTicks": 450,
            "midi": 41,
            "name": "F2",
            "ticks": 67200,
            "time": 210,
            "velocity": 0.3700787401574803
          },
          {
            "duration": 4.40625,
            "durationTicks": 1410,
            "midi": 42,
            "name": "F#2",
            "ticks": 67680,
            "time": 211.5,
            "velocity": 0.3700787401574803
          },
          {
            "duration": 2.8125,
            "durationTicks": 900,
            "midi": 40,
            "name": "E2",
            "ticks": 69120,
            "time": 216,
            "velocity": 0.3700787401574803
          },
          {
            "duration": 1.40625,
            "durationTicks": 450,
            "midi": 41,
            "name": "F2",
            "ticks": 70080,
            "time": 219,
            "velocity": 0.3700787401574803
          },
          {
            "duration": 4.40625,
            "durationTicks": 1410,
            "midi": 42,
            "name": "F#2",
            "ticks": 70560,
            "time": 220.5,
            "velocity": 0.3700787401574803
          },
          {
            "duration": 2.8125,
            "durationTicks": 900,
            "midi": 31,
            "name": "G1",
            "ticks": 72000,
            "time": 225,
            "velocity": 0.3937007874015748
          },
          {
            "duration": 1.40625,
            "durationTicks": 450,
            "midi": 32,
            "name": "G#1",
            "ticks": 72960,
            "time": 228,
            "velocity": 0.41732283464566927
          },
          {
            "duration": 2.8125,
            "durationTicks": 900,
            "midi": 33,
            "name": "A1",
            "ticks": 73440,
            "time": 229.5,
            "velocity": 0.4330708661417323
          },
          {
            "duration": 1.40625,
            "durationTicks": 450,
            "midi": 34,
            "name": "A#1",
            "ticks": 74400,
            "time": 232.5,
            "velocity": 0.4566929133858268
          },
          {
            "duration": 2.8125,
            "durationTicks": 900,
            "midi": 35,
            "name": "B1",
            "ticks": 74880,
            "time": 234,
            "velocity": 0.47244094488188976
          },
          {
            "duration": 1.40625,
            "durationTicks": 450,
            "midi": 35,
            "name": "B1",
            "ticks": 75840,
            "time": 237,
            "velocity": 0.49606299212598426
          },
          {
            "duration": 1.40625,
            "durationTicks": 450,
            "midi": 36,
            "name": "C2",
            "ticks": 76320,
            "time": 238.5,
            "velocity": 0.5118110236220472
          },
          {
            "duration": 1.40625,
            "durationTicks": 450,
            "midi": 37,
            "name": "C#2",
            "ticks": 76800,
            "time": 240,
            "velocity": 0.5275590551181102
          },
          {
            "duration": 1.40625,
            "durationTicks": 450,
            "midi": 38,
            "name": "D2",
            "ticks": 77280,
            "time": 241.5,
            "velocity": 0.5433070866141733
          },
          {
            "duration": 2.8125,
            "durationTicks": 900,
            "midi": 40,
            "name": "E2",
            "ticks": 77760,
            "time": 243,
            "velocity": 0.3937007874015748
          },
          {
            "duration": 1.40625,
            "durationTicks": 450,
            "midi": 43,
            "name": "G2",
            "ticks": 78720,
            "time": 246,
            "velocity": 0.4094488188976378
          },
          {
            "duration": 1.40625,
            "durationTicks": 450,
            "midi": 43,
            "name": "G2",
            "ticks": 79200,
            "time": 247.5,
            "velocity": 0.4251968503937008
          },
          {
            "duration": 1.40625,
            "durationTicks": 450,
            "midi": 42,
            "name": "F#2",
            "ticks": 79680,
            "time": 249,
            "velocity": 0.4330708661417323
          },
          {
            "duration": 1.40625,
            "durationTicks": 450,
            "midi": 41,
            "name": "F2",
            "ticks": 80160,
            "time": 250.5,
            "velocity": 0.4409448818897638
          },
          {
            "duration": 2.8125,
            "durationTicks": 900,
            "midi": 40,
            "name": "E2",
            "ticks": 80640,
            "time": 252,
            "velocity": 0.4566929133858268
          },
          {
            "duration": 1.40625,
            "durationTicks": 450,
            "midi": 43,
            "name": "G2",
            "ticks": 81600,
            "time": 255,
            "velocity": 0.47244094488188976
          },
          {
            "duration": 1.40625,
            "durationTicks": 450,
            "midi": 43,
            "name": "G2",
            "ticks": 82080,
            "time": 256.5,
            "velocity": 0.4881889763779528
          },
          {
            "duration": 1.40625,
            "durationTicks": 450,
            "midi": 42,
            "name": "F#2",
            "ticks": 82560,
            "time": 258,
            "velocity": 0.49606299212598426
          },
          {
            "duration": 1.40625,
            "durationTicks": 450,
            "midi": 40,
            "name": "E2",
            "ticks": 83040,
            "time": 259.5,
            "velocity": 0.5039370078740157
          },
          {
            "duration": 1.40625,
            "durationTicks": 450,
            "midi": 39,
            "name": "D#2",
            "ticks": 83520,
            "time": 261,
            "velocity": 0.5196850393700787
          },
          {
            "duration": 1.40625,
            "durationTicks": 450,
            "midi": 40,
            "name": "E2",
            "ticks": 84000,
            "time": 262.5,
            "velocity": 0.5275590551181102
          },
          {
            "duration": 1.40625,
            "durationTicks": 450,
            "midi": 37,
            "name": "C#2",
            "ticks": 84480,
            "time": 264,
            "velocity": 0.5433070866141733
          },
          {
            "duration": 1.40625,
            "durationTicks": 450,
            "midi": 37,
            "name": "C#2",
            "ticks": 84960,
            "time": 265.5,
            "velocity": 0.5511811023622047
          },
          {
            "duration": 1.40625,
            "durationTicks": 450,
            "midi": 39,
            "name": "D#2",
            "ticks": 85440,
            "time": 267,
            "velocity": 0.5590551181102362
          },
          {
            "duration": 1.40625,
            "durationTicks": 450,
            "midi": 30,
            "name": "F#1",
            "ticks": 85920,
            "time": 268.5,
            "velocity": 0.5748031496062992
          },
          {
            "duration": 6.899999999999977,
            "durationTicks": 2208,
            "midi": 31,
            "name": "G1",
            "ticks": 86400,
            "time": 270,
            "velocity": 0.5826771653543307
          },
          {
            "duration": 1.40625,
            "durationTicks": 450,
            "midi": 30,
            "name": "F#1",
            "ticks": 88800,
            "time": 277.5,
            "velocity": 0.7480314960629921
          },
          {
            "duration": 2.8125,
            "durationTicks": 900,
            "midi": 28,
            "name": "E1",
            "ticks": 89280,
            "time": 279,
            "velocity": 0.7480314960629921
          },
          {
            "duration": 1.40625,
            "durationTicks": 450,
            "midi": 29,
            "name": "F1",
            "ticks": 90240,
            "time": 282,
            "velocity": 0.7480314960629921
          },
          {
            "duration": 4.40625,
            "durationTicks": 1410,
            "midi": 30,
            "name": "F#1",
            "ticks": 90720,
            "time": 283.5,
            "velocity": 0.7952755905511811
          },
          {
            "duration": 2.8125,
            "durationTicks": 900,
            "midi": 28,
            "name": "E1",
            "ticks": 92160,
            "time": 288,
            "velocity": 0.7480314960629921
          },
          {
            "duration": 1.40625,
            "durationTicks": 450,
            "midi": 29,
            "name": "F1",
            "ticks": 93120,
            "time": 291,
            "velocity": 0.7480314960629921
          },
          {
            "duration": 4.40625,
            "durationTicks": 1410,
            "midi": 30,
            "name": "F#1",
            "ticks": 93600,
            "time": 292.5,
            "velocity": 0.7952755905511811
          },
          {
            "duration": 2.8125,
            "durationTicks": 900,
            "midi": 31,
            "name": "G1",
            "ticks": 95040,
            "time": 297,
            "velocity": 0.7952755905511811
          },
          {
            "duration": 1.40625,
            "durationTicks": 450,
            "midi": 32,
            "name": "G#1",
            "ticks": 96000,
            "time": 300,
            "velocity": 0.7952755905511811
          },
          {
            "duration": 1.40625,
            "durationTicks": 450,
            "midi": 44,
            "name": "G#2",
            "ticks": 96000,
            "time": 300,
            "velocity": 0.7952755905511811
          },
          {
            "duration": 2.8125,
            "durationTicks": 900,
            "midi": 33,
            "name": "A1",
            "ticks": 96480,
            "time": 301.5,
            "velocity": 0.7952755905511811
          },
          {
            "duration": 2.8125,
            "durationTicks": 900,
            "midi": 45,
            "name": "A2",
            "ticks": 96480,
            "time": 301.5,
            "velocity": 0.7952755905511811
          },
          {
            "duration": 1.40625,
            "durationTicks": 450,
            "midi": 34,
            "name": "A#1",
            "ticks": 97440,
            "time": 304.5,
            "velocity": 0.7952755905511811
          },
          {
            "duration": 1.40625,
            "durationTicks": 450,
            "midi": 46,
            "name": "A#2",
            "ticks": 97440,
            "time": 304.5,
            "velocity": 0.7952755905511811
          },
          {
            "duration": 2.8125,
            "durationTicks": 900,
            "midi": 35,
            "name": "B1",
            "ticks": 97920,
            "time": 306,
            "velocity": 0.7874015748031497
          },
          {
            "duration": 2.8125,
            "durationTicks": 900,
            "midi": 47,
            "name": "B2",
            "ticks": 97920,
            "time": 306,
            "velocity": 0.7874015748031497
          },
          {
            "duration": 1.40625,
            "durationTicks": 450,
            "midi": 35,
            "name": "B1",
            "ticks": 98880,
            "time": 309,
            "velocity": 0.8346456692913385
          },
          {
            "duration": 1.40625,
            "durationTicks": 450,
            "midi": 47,
            "name": "B2",
            "ticks": 98880,
            "time": 309,
            "velocity": 0.8346456692913385
          },
          {
            "duration": 4.40625,
            "durationTicks": 1410,
            "midi": 37,
            "name": "C#2",
            "ticks": 99360,
            "time": 310.5,
            "velocity": 0.8582677165354331
          },
          {
            "duration": 4.40625,
            "durationTicks": 1410,
            "midi": 49,
            "name": "C#3",
            "ticks": 99360,
            "time": 310.5,
            "velocity": 0.8582677165354331
          },
          {
            "duration": 0.46875,
            "durationTicks": 150,
            "midi": 38,
            "name": "D2",
            "ticks": 100800,
            "time": 315,
            "velocity": 0.8661417322834646
          },
          {
            "duration": 0.46875,
            "durationTicks": 150,
            "midi": 50,
            "name": "D3",
            "ticks": 100800,
            "time": 315,
            "velocity": 0.8661417322834646
          },
          {
            "duration": 0.46875,
            "durationTicks": 150,
            "midi": 38,
            "name": "D2",
            "ticks": 100960,
            "time": 315.5,
            "velocity": 0.8661417322834646
          },
          {
            "duration": 0.46875,
            "durationTicks": 150,
            "midi": 50,
            "name": "D3",
            "ticks": 100960,
            "time": 315.5,
            "velocity": 0.8661417322834646
          },
          {
            "duration": 0.96875,
            "durationTicks": 310,
            "midi": 38,
            "name": "D2",
            "ticks": 101120,
            "time": 316,
            "velocity": 0.8661417322834646
          },
          {
            "duration": 0.96875,
            "durationTicks": 310,
            "midi": 50,
            "name": "D3",
            "ticks": 101120,
            "time": 316,
            "velocity": 0.8661417322834646
          },
          {
            "duration": 0.46875,
            "durationTicks": 150,
            "midi": 38,
            "name": "D2",
            "ticks": 101440,
            "time": 317,
            "velocity": 0.8661417322834646
          },
          {
            "duration": 0.46875,
            "durationTicks": 150,
            "midi": 50,
            "name": "D3",
            "ticks": 101440,
            "time": 317,
            "velocity": 0.8661417322834646
          },
          {
            "duration": 0.96875,
            "durationTicks": 310,
            "midi": 38,
            "name": "D2",
            "ticks": 101600,
            "time": 317.5,
            "velocity": 0.8661417322834646
          },
          {
            "duration": 0.96875,
            "durationTicks": 310,
            "midi": 50,
            "name": "D3",
            "ticks": 101600,
            "time": 317.5,
            "velocity": 0.8661417322834646
          },
          {
            "duration": 0.46875,
            "durationTicks": 150,
            "midi": 38,
            "name": "D2",
            "ticks": 101920,
            "time": 318.5,
            "velocity": 0.8661417322834646
          },
          {
            "duration": 0.46875,
            "durationTicks": 150,
            "midi": 50,
            "name": "D3",
            "ticks": 101920,
            "time": 318.5,
            "velocity": 0.8661417322834646
          },
          {
            "duration": 0.96875,
            "durationTicks": 310,
            "midi": 38,
            "name": "D2",
            "ticks": 102080,
            "time": 319,
            "velocity": 0.8661417322834646
          },
          {
            "duration": 0.96875,
            "durationTicks": 310,
            "midi": 50,
            "name": "D3",
            "ticks": 102080,
            "time": 319,
            "velocity": 0.8661417322834646
          },
          {
            "duration": 0.46875,
            "durationTicks": 150,
            "midi": 36,
            "name": "C2",
            "ticks": 103680,
            "time": 324,
            "velocity": 0.8661417322834646
          },
          {
            "duration": 0.46875,
            "durationTicks": 150,
            "midi": 48,
            "name": "C3",
            "ticks": 103680,
            "time": 324,
            "velocity": 0.8661417322834646
          },
          {
            "duration": 0.46875,
            "durationTicks": 150,
            "midi": 36,
            "name": "C2",
            "ticks": 103840,
            "time": 324.5,
            "velocity": 0.8661417322834646
          },
          {
            "duration": 0.46875,
            "durationTicks": 150,
            "midi": 48,
            "name": "C3",
            "ticks": 103840,
            "time": 324.5,
            "velocity": 0.8661417322834646
          },
          {
            "duration": 0.96875,
            "durationTicks": 310,
            "midi": 36,
            "name": "C2",
            "ticks": 104000,
            "time": 325,
            "velocity": 0.8661417322834646
          },
          {
            "duration": 0.96875,
            "durationTicks": 310,
            "midi": 48,
            "name": "C3",
            "ticks": 104000,
            "time": 325,
            "velocity": 0.8661417322834646
          },
          {
            "duration": 0.46875,
            "durationTicks": 150,
            "midi": 36,
            "name": "C2",
            "ticks": 104320,
            "time": 326,
            "velocity": 0.8661417322834646
          },
          {
            "duration": 0.46875,
            "durationTicks": 150,
            "midi": 48,
            "name": "C3",
            "ticks": 104320,
            "time": 326,
            "velocity": 0.8661417322834646
          },
          {
            "duration": 0.96875,
            "durationTicks": 310,
            "midi": 36,
            "name": "C2",
            "ticks": 104480,
            "time": 326.5,
            "velocity": 0.8661417322834646
          },
          {
            "duration": 0.96875,
            "durationTicks": 310,
            "midi": 48,
            "name": "C3",
            "ticks": 104480,
            "time": 326.5,
            "velocity": 0.8661417322834646
          },
          {
            "duration": 0.46875,
            "durationTicks": 150,
            "midi": 36,
            "name": "C2",
            "ticks": 104800,
            "time": 327.5,
            "velocity": 0.8661417322834646
          },
          {
            "duration": 0.46875,
            "durationTicks": 150,
            "midi": 48,
            "name": "C3",
            "ticks": 104800,
            "time": 327.5,
            "velocity": 0.8661417322834646
          },
          {
            "duration": 0.96875,
            "durationTicks": 310,
            "midi": 36,
            "name": "C2",
            "ticks": 104960,
            "time": 328,
            "velocity": 0.8661417322834646
          },
          {
            "duration": 0.96875,
            "durationTicks": 310,
            "midi": 48,
            "name": "C3",
            "ticks": 104960,
            "time": 328,
            "velocity": 0.8661417322834646
          },
          {
            "duration": 0.46875,
            "durationTicks": 150,
            "midi": 40,
            "name": "E2",
            "ticks": 106560,
            "time": 333,
            "velocity": 0.8661417322834646
          },
          {
            "duration": 0.46875,
            "durationTicks": 150,
            "midi": 40,
            "name": "E2",
            "ticks": 106720,
            "time": 333.5,
            "velocity": 0.8661417322834646
          },
          {
            "duration": 0.96875,
            "durationTicks": 310,
            "midi": 40,
            "name": "E2",
            "ticks": 106880,
            "time": 334,
            "velocity": 0.8661417322834646
          },
          {
            "duration": 0.46875,
            "durationTicks": 150,
            "midi": 40,
            "name": "E2",
            "ticks": 107200,
            "time": 335,
            "velocity": 0.8661417322834646
          },
          {
            "duration": 0.96875,
            "durationTicks": 310,
            "midi": 40,
            "name": "E2",
            "ticks": 107360,
            "time": 335.5,
            "velocity": 0.8661417322834646
          },
          {
            "duration": 0.46875,
            "durationTicks": 150,
            "midi": 40,
            "name": "E2",
            "ticks": 107680,
            "time": 336.5,
            "velocity": 0.8661417322834646
          },
          {
            "duration": 0.96875,
            "durationTicks": 310,
            "midi": 40,
            "name": "E2",
            "ticks": 107840,
            "time": 337,
            "velocity": 0.8661417322834646
          },
          {
            "duration": 0.3562500000000455,
            "durationTicks": 114,
            "midi": 43,
            "name": "G2",
            "ticks": 109440,
            "time": 342,
            "velocity": 1
          },
          {
            "duration": 0.3562500000000455,
            "durationTicks": 114,
            "midi": 48,
            "name": "C3",
            "ticks": 110400,
            "time": 345,
            "velocity": 1
          },
          {
            "duration": 0.3562500000000455,
            "durationTicks": 114,
            "midi": 52,
            "name": "E3",
            "ticks": 111360,
            "time": 348,
            "velocity": 1
          },
          {
            "duration": 0.3562500000000455,
            "durationTicks": 114,
            "midi": 55,
            "name": "G3",
            "ticks": 112320,
            "time": 351,
            "velocity": 1
          },
          {
            "duration": 0.7062500000000114,
            "durationTicks": 226,
            "midi": 36,
            "name": "C2",
            "ticks": 115200,
            "time": 360,
            "velocity": 1
          },
          {
            "duration": 0.7062500000000114,
            "durationTicks": 226,
            "midi": 48,
            "name": "C3",
            "ticks": 115440,
            "time": 360.75,
            "velocity": 1
          },
          {
            "duration": 4.21875,
            "durationTicks": 1350,
            "midi": 34,
            "name": "A#1",
            "ticks": 119520,
            "time": 373.5,
            "velocity": 0.7874015748031497
          },
          {
            "duration": 1.4562500000000114,
            "durationTicks": 466,
            "midi": 35,
            "name": "B1",
            "ticks": 120960,
            "time": 378,
            "velocity": 0.7874015748031497
          },
          {
            "duration": 4.21875,
            "durationTicks": 1350,
            "midi": 41,
            "name": "F2",
            "ticks": 122400,
            "time": 382.5,
            "velocity": 0.7086614173228346
          },
          {
            "duration": 1.4562500000000682,
            "durationTicks": 466,
            "midi": 42,
            "name": "F#2",
            "ticks": 123840,
            "time": 387,
            "velocity": 0.7086614173228346
          },
          {
            "duration": 0.7062500000000682,
            "durationTicks": 226,
            "midi": 39,
            "name": "D#2",
            "ticks": 125040,
            "time": 390.75,
            "velocity": 0.7086614173228346
          },
          {
            "duration": 1.40625,
            "durationTicks": 450,
            "midi": 40,
            "name": "E2",
            "ticks": 125280,
            "time": 391.5,
            "velocity": 0.7086614173228346
          },
          {
            "duration": 0.7062500000000682,
            "durationTicks": 226,
            "midi": 37,
            "name": "C#2",
            "ticks": 126480,
            "time": 395.25,
            "velocity": 0.5905511811023622
          },
          {
            "duration": 1.40625,
            "durationTicks": 450,
            "midi": 38,
            "name": "D2",
            "ticks": 126720,
            "time": 396,
            "velocity": 0.5905511811023622
          },
          {
            "duration": 3.706250000000068,
            "durationTicks": 1186,
            "midi": 38,
            "name": "D2",
            "ticks": 127680,
            "time": 399,
            "velocity": 0.5905511811023622
          },
          {
            "duration": 2.956250000000068,
            "durationTicks": 946,
            "midi": 38,
            "name": "D2",
            "ticks": 135360,
            "time": 423,
            "velocity": 0.44881889763779526
          },
          {
            "duration": 1.0562499999999773,
            "durationTicks": 338,
            "midi": 38,
            "name": "D2",
            "ticks": 136320,
            "time": 426,
            "velocity": 0.44881889763779526
          },
          {
            "duration": 0.3562500000000455,
            "durationTicks": 114,
            "midi": 37,
            "name": "C#2",
            "ticks": 136680,
            "time": 427.125,
            "velocity": 0.44881889763779526
          },
          {
            "duration": 3.599999999999966,
            "durationTicks": 1152,
            "midi": 38,
            "name": "D2",
            "ticks": 136800,
            "time": 427.5,
            "velocity": 0.44881889763779526
          },
          {
            "duration": 2.956250000000068,
            "durationTicks": 946,
            "midi": 35,
            "name": "B1",
            "ticks": 138240,
            "time": 432,
            "velocity": 0.44881889763779526
          },
          {
            "duration": 1.0562499999999773,
            "durationTicks": 338,
            "midi": 35,
            "name": "B1",
            "ticks": 139200,
            "time": 435,
            "velocity": 0.44881889763779526
          },
          {
            "duration": 0.3562500000000455,
            "durationTicks": 114,
            "midi": 34,
            "name": "A#1",
            "ticks": 139560,
            "time": 436.125,
            "velocity": 0.44881889763779526
          },
          {
            "duration": 3.599999999999966,
            "durationTicks": 1152,
            "midi": 35,
            "name": "B1",
            "ticks": 139680,
            "time": 436.5,
            "velocity": 0.44881889763779526
          },
          {
            "duration": 4.21875,
            "durationTicks": 1350,
            "midi": 31,
            "name": "G1",
            "ticks": 141120,
            "time": 441,
            "velocity": 0.6299212598425197
          },
          {
            "duration": 4.21875,
            "durationTicks": 1350,
            "midi": 30,
            "name": "F#1",
            "ticks": 142560,
            "time": 445.5,
            "velocity": 0.6299212598425197
          },
          {
            "duration": 4.21875,
            "durationTicks": 1350,
            "midi": 28,
            "name": "E1",
            "ticks": 144000,
            "time": 450,
            "velocity": 0.7795275590551181
          },
          {
            "duration": 8.206250000000068,
            "durationTicks": 2626,
            "midi": 52,
            "name": "E3",
            "ticks": 145440,
            "time": 454.5,
            "velocity": 0.7086614173228346
          },
          {
            "duration": 0.2375000000000682,
            "durationTicks": 76,
            "midi": 40,
            "name": "E2",
            "ticks": 148560,
            "time": 464.25,
            "velocity": 0.6535433070866141
          },
          {
            "duration": 0.23749999999995453,
            "durationTicks": 76,
            "midi": 47,
            "name": "B2",
            "ticks": 148640,
            "time": 464.5,
            "velocity": 0.6535433070866141
          },
          {
            "duration": 0.23750000000001137,
            "durationTicks": 76,
            "midi": 50,
            "name": "D3",
            "ticks": 148720,
            "time": 464.75,
            "velocity": 0.6535433070866141
          },
          {
            "duration": 0.2375000000000682,
            "durationTicks": 76,
            "midi": 52,
            "name": "E3",
            "ticks": 148800,
            "time": 465,
            "velocity": 0.6535433070866141
          },
          {
            "duration": 2.112500000000068,
            "durationTicks": 676,
            "midi": 50,
            "name": "D3",
            "ticks": 156960,
            "time": 490.5,
            "velocity": 0.6299212598425197
          },
          {
            "duration": 0.7062500000000682,
            "durationTicks": 226,
            "midi": 48,
            "name": "C3",
            "ticks": 157680,
            "time": 492.75,
            "velocity": 0.6299212598425197
          },
          {
            "duration": 1.40625,
            "durationTicks": 450,
            "midi": 47,
            "name": "B2",
            "ticks": 157920,
            "time": 493.5,
            "velocity": 0.6299212598425197
          },
          {
            "duration": 1.40625,
            "durationTicks": 450,
            "midi": 45,
            "name": "A2",
            "ticks": 158400,
            "time": 495,
            "velocity": 0.6220472440944882
          },
          {
            "duration": 0.7062500000000682,
            "durationTicks": 226,
            "midi": 43,
            "name": "G2",
            "ticks": 158880,
            "time": 496.5,
            "velocity": 0.6456692913385826
          },
          {
            "duration": 0.7062500000000682,
            "durationTicks": 226,
            "midi": 42,
            "name": "F#2",
            "ticks": 159120,
            "time": 497.25,
            "velocity": 0.6614173228346457
          },
          {
            "duration": 1.4562500000000682,
            "durationTicks": 466,
            "midi": 45,
            "name": "A2",
            "ticks": 159360,
            "time": 498,
            "velocity": 0.6692913385826772
          },
          {
            "duration": 2.112500000000068,
            "durationTicks": 676,
            "midi": 43,
            "name": "G2",
            "ticks": 159840,
            "time": 499.5,
            "velocity": 0.6929133858267716
          },
          {
            "duration": 0.7062500000000682,
            "durationTicks": 226,
            "midi": 41,
            "name": "F2",
            "ticks": 160560,
            "time": 501.75,
            "velocity": 0.7244094488188977
          },
          {
            "duration": 1.40625,
            "durationTicks": 450,
            "midi": 40,
            "name": "E2",
            "ticks": 160800,
            "time": 502.5,
            "velocity": 0.7322834645669292
          },
          {
            "duration": 2.8125,
            "durationTicks": 900,
            "midi": 38,
            "name": "D2",
            "ticks": 161280,
            "time": 504,
            "velocity": 0.7559055118110236
          },
          {
            "duration": 2.90625,
            "durationTicks": 930,
            "midi": 36,
            "name": "C2",
            "ticks": 162240,
            "time": 507,
            "velocity": 0.8031496062992126
          },
          {
            "duration": 2.8125,
            "durationTicks": 900,
            "midi": 35,
            "name": "B1",
            "ticks": 163200,
            "time": 510,
            "velocity": 0.84251968503937
          },
          {
            "duration": 1.40625,
            "durationTicks": 450,
            "midi": 34,
            "name": "A#1",
            "ticks": 164160,
            "time": 513,
            "velocity": 0.8661417322834646
          },
          {
            "duration": 1.40625,
            "durationTicks": 450,
            "midi": 33,
            "name": "A1",
            "ticks": 164640,
            "time": 514.5,
            "velocity": 0.8661417322834646
          },
          {
            "duration": 1.40625,
            "durationTicks": 450,
            "midi": 31,
            "name": "G1",
            "ticks": 165120,
            "time": 516,
            "velocity": 0.8661417322834646
          },
          {
            "duration": 1.40625,
            "durationTicks": 450,
            "midi": 29,
            "name": "F1",
            "ticks": 165600,
            "time": 517.5,
            "velocity": 0.8661417322834646
          },
          {
            "duration": 0.2375000000000682,
            "durationTicks": 76,
            "midi": 28,
            "name": "E1",
            "ticks": 166080,
            "time": 519,
            "velocity": 0.9448818897637795
          },
          {
            "duration": 0.23749999999995453,
            "durationTicks": 76,
            "midi": 28,
            "name": "E1",
            "ticks": 166160,
            "time": 519.25,
            "velocity": 0.9448818897637795
          },
          {
            "duration": 0.23749999999995453,
            "durationTicks": 76,
            "midi": 28,
            "name": "E1",
            "ticks": 166240,
            "time": 519.5,
            "velocity": 0.9448818897637795
          },
          {
            "duration": 0.2375000000000682,
            "durationTicks": 76,
            "midi": 28,
            "name": "E1",
            "ticks": 166320,
            "time": 519.75,
            "velocity": 0.9448818897637795
          },
          {
            "duration": 0.23749999999995453,
            "durationTicks": 76,
            "midi": 28,
            "name": "E1",
            "ticks": 166400,
            "time": 520,
            "velocity": 0.9448818897637795
          },
          {
            "duration": 0.23749999999995453,
            "durationTicks": 76,
            "midi": 28,
            "name": "E1",
            "ticks": 166480,
            "time": 520.25,
            "velocity": 0.9448818897637795
          },
          {
            "duration": 0.2375000000000682,
            "durationTicks": 76,
            "midi": 28,
            "name": "E1",
            "ticks": 166560,
            "time": 520.5,
            "velocity": 0.9448818897637795
          },
          {
            "duration": 0.23749999999995453,
            "durationTicks": 76,
            "midi": 28,
            "name": "E1",
            "ticks": 166640,
            "time": 520.75,
            "velocity": 0.9448818897637795
          },
          {
            "duration": 0.23749999999995453,
            "durationTicks": 76,
            "midi": 28,
            "name": "E1",
            "ticks": 166720,
            "time": 521,
            "velocity": 0.9448818897637795
          },
          {
            "duration": 0.2375000000000682,
            "durationTicks": 76,
            "midi": 28,
            "name": "E1",
            "ticks": 166800,
            "time": 521.25,
            "velocity": 0.9448818897637795
          },
          {
            "duration": 0.23749999999995453,
            "durationTicks": 76,
            "midi": 28,
            "name": "E1",
            "ticks": 166880,
            "time": 521.5,
            "velocity": 0.9448818897637795
          },
          {
            "duration": 0.23749999999995453,
            "durationTicks": 76,
            "midi": 28,
            "name": "E1",
            "ticks": 166960,
            "time": 521.75,
            "velocity": 0.9448818897637795
          },
          {
            "duration": 0.2375000000000682,
            "durationTicks": 76,
            "midi": 28,
            "name": "E1",
            "ticks": 167040,
            "time": 522,
            "velocity": 0.9448818897637795
          },
          {
            "duration": 0.23749999999995453,
            "durationTicks": 76,
            "midi": 28,
            "name": "E1",
            "ticks": 167120,
            "time": 522.25,
            "velocity": 0.9448818897637795
          },
          {
            "duration": 0.23749999999995453,
            "durationTicks": 76,
            "midi": 28,
            "name": "E1",
            "ticks": 167200,
            "time": 522.5,
            "velocity": 0.9448818897637795
          },
          {
            "duration": 0.2375000000000682,
            "durationTicks": 76,
            "midi": 28,
            "name": "E1",
            "ticks": 167280,
            "time": 522.75,
            "velocity": 0.9448818897637795
          },
          {
            "duration": 0.23749999999995453,
            "durationTicks": 76,
            "midi": 28,
            "name": "E1",
            "ticks": 167360,
            "time": 523,
            "velocity": 0.9448818897637795
          },
          {
            "duration": 0.23749999999995453,
            "durationTicks": 76,
            "midi": 28,
            "name": "E1",
            "ticks": 167440,
            "time": 523.25,
            "velocity": 0.9448818897637795
          },
          {
            "duration": 0.2375000000000682,
            "durationTicks": 76,
            "midi": 28,
            "name": "E1",
            "ticks": 167520,
            "time": 523.5,
            "velocity": 0.9448818897637795
          },
          {
            "duration": 0.23749999999995453,
            "durationTicks": 76,
            "midi": 28,
            "name": "E1",
            "ticks": 167600,
            "time": 523.75,
            "velocity": 0.9448818897637795
          },
          {
            "duration": 0.23749999999995453,
            "durationTicks": 76,
            "midi": 28,
            "name": "E1",
            "ticks": 167680,
            "time": 524,
            "velocity": 0.9448818897637795
          },
          {
            "duration": 0.2375000000000682,
            "durationTicks": 76,
            "midi": 28,
            "name": "E1",
            "ticks": 167760,
            "time": 524.25,
            "velocity": 0.9448818897637795
          },
          {
            "duration": 0.23749999999995453,
            "durationTicks": 76,
            "midi": 28,
            "name": "E1",
            "ticks": 167840,
            "time": 524.5,
            "velocity": 0.9448818897637795
          },
          {
            "duration": 0.23749999999995453,
            "durationTicks": 76,
            "midi": 28,
            "name": "E1",
            "ticks": 167920,
            "time": 524.75,
            "velocity": 0.9448818897637795
          },
          {
            "duration": 0.2375000000000682,
            "durationTicks": 76,
            "midi": 28,
            "name": "E1",
            "ticks": 168000,
            "time": 525,
            "velocity": 0.9448818897637795
          },
          {
            "duration": 0.23749999999995453,
            "durationTicks": 76,
            "midi": 28,
            "name": "E1",
            "ticks": 168080,
            "time": 525.25,
            "velocity": 0.9448818897637795
          },
          {
            "duration": 0.23749999999995453,
            "durationTicks": 76,
            "midi": 28,
            "name": "E1",
            "ticks": 168160,
            "time": 525.5,
            "velocity": 0.9448818897637795
          },
          {
            "duration": 0.2375000000000682,
            "durationTicks": 76,
            "midi": 28,
            "name": "E1",
            "ticks": 168240,
            "time": 525.75,
            "velocity": 0.9448818897637795
          },
          {
            "duration": 0.23749999999995453,
            "durationTicks": 76,
            "midi": 28,
            "name": "E1",
            "ticks": 168320,
            "time": 526,
            "velocity": 0.9448818897637795
          },
          {
            "duration": 0.23749999999995453,
            "durationTicks": 76,
            "midi": 28,
            "name": "E1",
            "ticks": 168400,
            "time": 526.25,
            "velocity": 0.9448818897637795
          },
          {
            "duration": 0.2375000000000682,
            "durationTicks": 76,
            "midi": 28,
            "name": "E1",
            "ticks": 168480,
            "time": 526.5,
            "velocity": 0.9448818897637795
          },
          {
            "duration": 0.23749999999995453,
            "durationTicks": 76,
            "midi": 28,
            "name": "E1",
            "ticks": 168560,
            "time": 526.75,
            "velocity": 0.9448818897637795
          },
          {
            "duration": 0.23749999999995453,
            "durationTicks": 76,
            "midi": 28,
            "name": "E1",
            "ticks": 168640,
            "time": 527,
            "velocity": 0.9448818897637795
          },
          {
            "duration": 0.2375000000000682,
            "durationTicks": 76,
            "midi": 28,
            "name": "E1",
            "ticks": 168720,
            "time": 527.25,
            "velocity": 0.9448818897637795
          },
          {
            "duration": 0.23749999999995453,
            "durationTicks": 76,
            "midi": 28,
            "name": "E1",
            "ticks": 168800,
            "time": 527.5,
            "velocity": 0.9448818897637795
          },
          {
            "duration": 0.23749999999995453,
            "durationTicks": 76,
            "midi": 28,
            "name": "E1",
            "ticks": 168880,
            "time": 527.75,
            "velocity": 0.9448818897637795
          },
          {
            "duration": 0.2375000000000682,
            "durationTicks": 76,
            "midi": 28,
            "name": "E1",
            "ticks": 168960,
            "time": 528,
            "velocity": 0.9448818897637795
          },
          {
            "duration": 0.23749999999995453,
            "durationTicks": 76,
            "midi": 28,
            "name": "E1",
            "ticks": 169040,
            "time": 528.25,
            "velocity": 0.9448818897637795
          },
          {
            "duration": 0.23749999999995453,
            "durationTicks": 76,
            "midi": 28,
            "name": "E1",
            "ticks": 169120,
            "time": 528.5,
            "velocity": 0.9448818897637795
          },
          {
            "duration": 0.2375000000000682,
            "durationTicks": 76,
            "midi": 28,
            "name": "E1",
            "ticks": 169200,
            "time": 528.75,
            "velocity": 0.9448818897637795
          },
          {
            "duration": 0.23749999999995453,
            "durationTicks": 76,
            "midi": 28,
            "name": "E1",
            "ticks": 169280,
            "time": 529,
            "velocity": 0.9448818897637795
          },
          {
            "duration": 0.23749999999995453,
            "durationTicks": 76,
            "midi": 28,
            "name": "E1",
            "ticks": 169360,
            "time": 529.25,
            "velocity": 0.9448818897637795
          },
          {
            "duration": 0.2375000000000682,
            "durationTicks": 76,
            "midi": 28,
            "name": "E1",
            "ticks": 169440,
            "time": 529.5,
            "velocity": 0.9448818897637795
          },
          {
            "duration": 0.23749999999995453,
            "durationTicks": 76,
            "midi": 28,
            "name": "E1",
            "ticks": 169520,
            "time": 529.75,
            "velocity": 0.9448818897637795
          },
          {
            "duration": 0.23749999999995453,
            "durationTicks": 76,
            "midi": 28,
            "name": "E1",
            "ticks": 169600,
            "time": 530,
            "velocity": 0.9448818897637795
          },
          {
            "duration": 0.2375000000000682,
            "durationTicks": 76,
            "midi": 28,
            "name": "E1",
            "ticks": 169680,
            "time": 530.25,
            "velocity": 0.9448818897637795
          },
          {
            "duration": 0.23749999999995453,
            "durationTicks": 76,
            "midi": 28,
            "name": "E1",
            "ticks": 169760,
            "time": 530.5,
            "velocity": 0.9448818897637795
          },
          {
            "duration": 0.23749999999995453,
            "durationTicks": 76,
            "midi": 28,
            "name": "E1",
            "ticks": 169840,
            "time": 530.75,
            "velocity": 0.9448818897637795
          },
          {
            "duration": 0.2375000000000682,
            "durationTicks": 76,
            "midi": 28,
            "name": "E1",
            "ticks": 169920,
            "time": 531,
            "velocity": 0.9448818897637795
          },
          {
            "duration": 0.23749999999995453,
            "durationTicks": 76,
            "midi": 28,
            "name": "E1",
            "ticks": 170000,
            "time": 531.25,
            "velocity": 0.9448818897637795
          },
          {
            "duration": 0.23749999999995453,
            "durationTicks": 76,
            "midi": 28,
            "name": "E1",
            "ticks": 170080,
            "time": 531.5,
            "velocity": 0.9448818897637795
          },
          {
            "duration": 0.2375000000000682,
            "durationTicks": 76,
            "midi": 28,
            "name": "E1",
            "ticks": 170160,
            "time": 531.75,
            "velocity": 0.9448818897637795
          },
          {
            "duration": 0.23749999999995453,
            "durationTicks": 76,
            "midi": 28,
            "name": "E1",
            "ticks": 170240,
            "time": 532,
            "velocity": 0.9448818897637795
          },
          {
            "duration": 0.23749999999995453,
            "durationTicks": 76,
            "midi": 28,
            "name": "E1",
            "ticks": 170320,
            "time": 532.25,
            "velocity": 0.9448818897637795
          },
          {
            "duration": 0.2375000000000682,
            "durationTicks": 76,
            "midi": 28,
            "name": "E1",
            "ticks": 170400,
            "time": 532.5,
            "velocity": 0.9448818897637795
          },
          {
            "duration": 0.23749999999995453,
            "durationTicks": 76,
            "midi": 28,
            "name": "E1",
            "ticks": 170480,
            "time": 532.75,
            "velocity": 0.9448818897637795
          },
          {
            "duration": 0.23749999999995453,
            "durationTicks": 76,
            "midi": 28,
            "name": "E1",
            "ticks": 170560,
            "time": 533,
            "velocity": 0.9448818897637795
          },
          {
            "duration": 0.2375000000000682,
            "durationTicks": 76,
            "midi": 28,
            "name": "E1",
            "ticks": 170640,
            "time": 533.25,
            "velocity": 0.9448818897637795
          },
          {
            "duration": 0.23749999999995453,
            "durationTicks": 76,
            "midi": 28,
            "name": "E1",
            "ticks": 170720,
            "time": 533.5,
            "velocity": 0.9448818897637795
          },
          {
            "duration": 0.23749999999995453,
            "durationTicks": 76,
            "midi": 28,
            "name": "E1",
            "ticks": 170800,
            "time": 533.75,
            "velocity": 0.9448818897637795
          },
          {
            "duration": 0.2375000000000682,
            "durationTicks": 76,
            "midi": 28,
            "name": "E1",
            "ticks": 170880,
            "time": 534,
            "velocity": 0.9448818897637795
          },
          {
            "duration": 0.23749999999995453,
            "durationTicks": 76,
            "midi": 28,
            "name": "E1",
            "ticks": 170960,
            "time": 534.25,
            "velocity": 0.9448818897637795
          },
          {
            "duration": 0.23749999999995453,
            "durationTicks": 76,
            "midi": 28,
            "name": "E1",
            "ticks": 171040,
            "time": 534.5,
            "velocity": 0.9448818897637795
          },
          {
            "duration": 0.2375000000000682,
            "durationTicks": 76,
            "midi": 28,
            "name": "E1",
            "ticks": 171120,
            "time": 534.75,
            "velocity": 0.9448818897637795
          },
          {
            "duration": 0.23749999999995453,
            "durationTicks": 76,
            "midi": 28,
            "name": "E1",
            "ticks": 171200,
            "time": 535,
            "velocity": 0.9448818897637795
          },
          {
            "duration": 0.23749999999995453,
            "durationTicks": 76,
            "midi": 28,
            "name": "E1",
            "ticks": 171280,
            "time": 535.25,
            "velocity": 0.9448818897637795
          },
          {
            "duration": 0.2375000000000682,
            "durationTicks": 76,
            "midi": 28,
            "name": "E1",
            "ticks": 171360,
            "time": 535.5,
            "velocity": 0.9448818897637795
          },
          {
            "duration": 0.23749999999995453,
            "durationTicks": 76,
            "midi": 28,
            "name": "E1",
            "ticks": 171440,
            "time": 535.75,
            "velocity": 0.9448818897637795
          },
          {
            "duration": 0.23749999999995453,
            "durationTicks": 76,
            "midi": 28,
            "name": "E1",
            "ticks": 171520,
            "time": 536,
            "velocity": 0.9448818897637795
          },
          {
            "duration": 0.2375000000000682,
            "durationTicks": 76,
            "midi": 28,
            "name": "E1",
            "ticks": 171600,
            "time": 536.25,
            "velocity": 0.9448818897637795
          },
          {
            "duration": 0.23749999999995453,
            "durationTicks": 76,
            "midi": 28,
            "name": "E1",
            "ticks": 171680,
            "time": 536.5,
            "velocity": 0.9448818897637795
          },
          {
            "duration": 0.23749999999995453,
            "durationTicks": 76,
            "midi": 28,
            "name": "E1",
            "ticks": 171760,
            "time": 536.75,
            "velocity": 0.9448818897637795
          },
          {
            "duration": 0.2375000000000682,
            "durationTicks": 76,
            "midi": 28,
            "name": "E1",
            "ticks": 171840,
            "time": 537,
            "velocity": 0.9448818897637795
          },
          {
            "duration": 0.23749999999995453,
            "durationTicks": 76,
            "midi": 28,
            "name": "E1",
            "ticks": 171920,
            "time": 537.25,
            "velocity": 0.9448818897637795
          },
          {
            "duration": 0.23749999999995453,
            "durationTicks": 76,
            "midi": 28,
            "name": "E1",
            "ticks": 172000,
            "time": 537.5,
            "velocity": 0.9448818897637795
          },
          {
            "duration": 0.2375000000000682,
            "durationTicks": 76,
            "midi": 28,
            "name": "E1",
            "ticks": 172080,
            "time": 537.75,
            "velocity": 0.9448818897637795
          },
          {
            "duration": 0.23749999999995453,
            "durationTicks": 76,
            "midi": 28,
            "name": "E1",
            "ticks": 172160,
            "time": 538,
            "velocity": 0.9448818897637795
          },
          {
            "duration": 0.23749999999995453,
            "durationTicks": 76,
            "midi": 28,
            "name": "E1",
            "ticks": 172240,
            "time": 538.25,
            "velocity": 0.9448818897637795
          },
          {
            "duration": 0.2375000000000682,
            "durationTicks": 76,
            "midi": 28,
            "name": "E1",
            "ticks": 172320,
            "time": 538.5,
            "velocity": 0.9448818897637795
          },
          {
            "duration": 0.23749999999995453,
            "durationTicks": 76,
            "midi": 28,
            "name": "E1",
            "ticks": 172400,
            "time": 538.75,
            "velocity": 0.9448818897637795
          },
          {
            "duration": 0.23749999999995453,
            "durationTicks": 76,
            "midi": 28,
            "name": "E1",
            "ticks": 172480,
            "time": 539,
            "velocity": 0.9448818897637795
          },
          {
            "duration": 0.2375000000000682,
            "durationTicks": 76,
            "midi": 28,
            "name": "E1",
            "ticks": 172560,
            "time": 539.25,
            "velocity": 0.9448818897637795
          },
          {
            "duration": 0.23749999999995453,
            "durationTicks": 76,
            "midi": 28,
            "name": "E1",
            "ticks": 172640,
            "time": 539.5,
            "velocity": 0.9448818897637795
          },
          {
            "duration": 0.23749999999995453,
            "durationTicks": 76,
            "midi": 28,
            "name": "E1",
            "ticks": 172720,
            "time": 539.75,
            "velocity": 0.9448818897637795
          },
          {
            "duration": 0.2375000000000682,
            "durationTicks": 76,
            "midi": 28,
            "name": "E1",
            "ticks": 172800,
            "time": 540,
            "velocity": 0.9448818897637795
          },
          {
            "duration": 0.23749999999995453,
            "durationTicks": 76,
            "midi": 28,
            "name": "E1",
            "ticks": 172880,
            "time": 540.25,
            "velocity": 0.9448818897637795
          },
          {
            "duration": 0.23749999999995453,
            "durationTicks": 76,
            "midi": 28,
            "name": "E1",
            "ticks": 172960,
            "time": 540.5,
            "velocity": 0.9448818897637795
          },
          {
            "duration": 0.2375000000000682,
            "durationTicks": 76,
            "midi": 28,
            "name": "E1",
            "ticks": 173040,
            "time": 540.75,
            "velocity": 0.9448818897637795
          },
          {
            "duration": 0.23749999999995453,
            "durationTicks": 76,
            "midi": 28,
            "name": "E1",
            "ticks": 173120,
            "time": 541,
            "velocity": 0.9448818897637795
          },
          {
            "duration": 0.23749999999995453,
            "durationTicks": 76,
            "midi": 28,
            "name": "E1",
            "ticks": 173200,
            "time": 541.25,
            "velocity": 0.9448818897637795
          },
          {
            "duration": 0.2375000000000682,
            "durationTicks": 76,
            "midi": 28,
            "name": "E1",
            "ticks": 173280,
            "time": 541.5,
            "velocity": 0.9448818897637795
          },
          {
            "duration": 0.23749999999995453,
            "durationTicks": 76,
            "midi": 28,
            "name": "E1",
            "ticks": 173360,
            "time": 541.75,
            "velocity": 0.9448818897637795
          },
          {
            "duration": 0.23749999999995453,
            "durationTicks": 76,
            "midi": 28,
            "name": "E1",
            "ticks": 173440,
            "time": 542,
            "velocity": 0.9448818897637795
          },
          {
            "duration": 0.2375000000000682,
            "durationTicks": 76,
            "midi": 28,
            "name": "E1",
            "ticks": 173520,
            "time": 542.25,
            "velocity": 0.9448818897637795
          },
          {
            "duration": 0.23749999999995453,
            "durationTicks": 76,
            "midi": 28,
            "name": "E1",
            "ticks": 173600,
            "time": 542.5,
            "velocity": 0.9448818897637795
          },
          {
            "duration": 0.23749999999995453,
            "durationTicks": 76,
            "midi": 28,
            "name": "E1",
            "ticks": 173680,
            "time": 542.75,
            "velocity": 0.9448818897637795
          },
          {
            "duration": 0.2375000000000682,
            "durationTicks": 76,
            "midi": 28,
            "name": "E1",
            "ticks": 173760,
            "time": 543,
            "velocity": 0.9448818897637795
          },
          {
            "duration": 0.23749999999995453,
            "durationTicks": 76,
            "midi": 28,
            "name": "E1",
            "ticks": 173840,
            "time": 543.25,
            "velocity": 0.9448818897637795
          },
          {
            "duration": 0.23749999999995453,
            "durationTicks": 76,
            "midi": 28,
            "name": "E1",
            "ticks": 173920,
            "time": 543.5,
            "velocity": 0.9448818897637795
          },
          {
            "duration": 0.2375000000000682,
            "durationTicks": 76,
            "midi": 28,
            "name": "E1",
            "ticks": 174000,
            "time": 543.75,
            "velocity": 0.9448818897637795
          },
          {
            "duration": 0.23749999999995453,
            "durationTicks": 76,
            "midi": 28,
            "name": "E1",
            "ticks": 174080,
            "time": 544,
            "velocity": 0.9448818897637795
          },
          {
            "duration": 0.23749999999995453,
            "durationTicks": 76,
            "midi": 28,
            "name": "E1",
            "ticks": 174160,
            "time": 544.25,
            "velocity": 0.9448818897637795
          },
          {
            "duration": 0.2375000000000682,
            "durationTicks": 76,
            "midi": 28,
            "name": "E1",
            "ticks": 174240,
            "time": 544.5,
            "velocity": 0.9448818897637795
          },
          {
            "duration": 0.23749999999995453,
            "durationTicks": 76,
            "midi": 28,
            "name": "E1",
            "ticks": 174320,
            "time": 544.75,
            "velocity": 0.9448818897637795
          },
          {
            "duration": 0.23749999999995453,
            "durationTicks": 76,
            "midi": 28,
            "name": "E1",
            "ticks": 174400,
            "time": 545,
            "velocity": 0.9448818897637795
          },
          {
            "duration": 0.2375000000000682,
            "durationTicks": 76,
            "midi": 28,
            "name": "E1",
            "ticks": 174480,
            "time": 545.25,
            "velocity": 0.9448818897637795
          },
          {
            "duration": 0.23749999999995453,
            "durationTicks": 76,
            "midi": 28,
            "name": "E1",
            "ticks": 174560,
            "time": 545.5,
            "velocity": 0.9448818897637795
          },
          {
            "duration": 0.23749999999995453,
            "durationTicks": 76,
            "midi": 28,
            "name": "E1",
            "ticks": 174640,
            "time": 545.75,
            "velocity": 0.9448818897637795
          },
          {
            "duration": 0.2375000000000682,
            "durationTicks": 76,
            "midi": 28,
            "name": "E1",
            "ticks": 174720,
            "time": 546,
            "velocity": 0.9448818897637795
          },
          {
            "duration": 0.23749999999995453,
            "durationTicks": 76,
            "midi": 28,
            "name": "E1",
            "ticks": 174800,
            "time": 546.25,
            "velocity": 0.9448818897637795
          },
          {
            "duration": 0.23749999999995453,
            "durationTicks": 76,
            "midi": 28,
            "name": "E1",
            "ticks": 174880,
            "time": 546.5,
            "velocity": 0.9448818897637795
          },
          {
            "duration": 0.2375000000000682,
            "durationTicks": 76,
            "midi": 28,
            "name": "E1",
            "ticks": 174960,
            "time": 546.75,
            "velocity": 0.9448818897637795
          },
          {
            "duration": 0.23749999999995453,
            "durationTicks": 76,
            "midi": 28,
            "name": "E1",
            "ticks": 175040,
            "time": 547,
            "velocity": 0.9448818897637795
          },
          {
            "duration": 0.23749999999995453,
            "durationTicks": 76,
            "midi": 28,
            "name": "E1",
            "ticks": 175120,
            "time": 547.25,
            "velocity": 0.9448818897637795
          },
          {
            "duration": 0.2375000000000682,
            "durationTicks": 76,
            "midi": 28,
            "name": "E1",
            "ticks": 175200,
            "time": 547.5,
            "velocity": 0.9448818897637795
          },
          {
            "duration": 0.23749999999995453,
            "durationTicks": 76,
            "midi": 28,
            "name": "E1",
            "ticks": 175280,
            "time": 547.75,
            "velocity": 0.9448818897637795
          },
          {
            "duration": 0.23749999999995453,
            "durationTicks": 76,
            "midi": 28,
            "name": "E1",
            "ticks": 175360,
            "time": 548,
            "velocity": 0.9448818897637795
          },
          {
            "duration": 0.2375000000000682,
            "durationTicks": 76,
            "midi": 28,
            "name": "E1",
            "ticks": 175440,
            "time": 548.25,
            "velocity": 0.9448818897637795
          },
          {
            "duration": 0.23749999999995453,
            "durationTicks": 76,
            "midi": 28,
            "name": "E1",
            "ticks": 175520,
            "time": 548.5,
            "velocity": 0.9448818897637795
          },
          {
            "duration": 0.23749999999995453,
            "durationTicks": 76,
            "midi": 28,
            "name": "E1",
            "ticks": 175600,
            "time": 548.75,
            "velocity": 0.9448818897637795
          },
          {
            "duration": 0.2375000000000682,
            "durationTicks": 76,
            "midi": 28,
            "name": "E1",
            "ticks": 175680,
            "time": 549,
            "velocity": 0.9448818897637795
          },
          {
            "duration": 0.23749999999995453,
            "durationTicks": 76,
            "midi": 28,
            "name": "E1",
            "ticks": 175760,
            "time": 549.25,
            "velocity": 0.9448818897637795
          },
          {
            "duration": 0.23749999999995453,
            "durationTicks": 76,
            "midi": 28,
            "name": "E1",
            "ticks": 175840,
            "time": 549.5,
            "velocity": 0.9448818897637795
          },
          {
            "duration": 0.2375000000000682,
            "durationTicks": 76,
            "midi": 28,
            "name": "E1",
            "ticks": 175920,
            "time": 549.75,
            "velocity": 0.9448818897637795
          },
          {
            "duration": 0.23749999999995453,
            "durationTicks": 76,
            "midi": 28,
            "name": "E1",
            "ticks": 176000,
            "time": 550,
            "velocity": 0.9448818897637795
          },
          {
            "duration": 0.23749999999995453,
            "durationTicks": 76,
            "midi": 28,
            "name": "E1",
            "ticks": 176080,
            "time": 550.25,
            "velocity": 0.9448818897637795
          },
          {
            "duration": 0.2375000000000682,
            "durationTicks": 76,
            "midi": 28,
            "name": "E1",
            "ticks": 176160,
            "time": 550.5,
            "velocity": 0.9448818897637795
          },
          {
            "duration": 0.23749999999995453,
            "durationTicks": 76,
            "midi": 28,
            "name": "E1",
            "ticks": 176240,
            "time": 550.75,
            "velocity": 0.9448818897637795
          },
          {
            "duration": 0.23749999999995453,
            "durationTicks": 76,
            "midi": 28,
            "name": "E1",
            "ticks": 176320,
            "time": 551,
            "velocity": 0.9448818897637795
          },
          {
            "duration": 0.2375000000000682,
            "durationTicks": 76,
            "midi": 28,
            "name": "E1",
            "ticks": 176400,
            "time": 551.25,
            "velocity": 0.9448818897637795
          },
          {
            "duration": 0.23749999999995453,
            "durationTicks": 76,
            "midi": 28,
            "name": "E1",
            "ticks": 176480,
            "time": 551.5,
            "velocity": 0.9448818897637795
          },
          {
            "duration": 0.23749999999995453,
            "durationTicks": 76,
            "midi": 28,
            "name": "E1",
            "ticks": 176560,
            "time": 551.75,
            "velocity": 0.9448818897637795
          },
          {
            "duration": 0.2375000000000682,
            "durationTicks": 76,
            "midi": 28,
            "name": "E1",
            "ticks": 176640,
            "time": 552,
            "velocity": 0.9448818897637795
          },
          {
            "duration": 0.23749999999995453,
            "durationTicks": 76,
            "midi": 28,
            "name": "E1",
            "ticks": 176720,
            "time": 552.25,
            "velocity": 0.9448818897637795
          },
          {
            "duration": 0.23749999999995453,
            "durationTicks": 76,
            "midi": 28,
            "name": "E1",
            "ticks": 176800,
            "time": 552.5,
            "velocity": 0.9448818897637795
          },
          {
            "duration": 0.2375000000000682,
            "durationTicks": 76,
            "midi": 28,
            "name": "E1",
            "ticks": 176880,
            "time": 552.75,
            "velocity": 0.9448818897637795
          },
          {
            "duration": 0.23749999999995453,
            "durationTicks": 76,
            "midi": 28,
            "name": "E1",
            "ticks": 176960,
            "time": 553,
            "velocity": 0.9448818897637795
          },
          {
            "duration": 0.23749999999995453,
            "durationTicks": 76,
            "midi": 28,
            "name": "E1",
            "ticks": 177040,
            "time": 553.25,
            "velocity": 0.9448818897637795
          },
          {
            "duration": 0.2375000000000682,
            "durationTicks": 76,
            "midi": 28,
            "name": "E1",
            "ticks": 177120,
            "time": 553.5,
            "velocity": 0.9448818897637795
          },
          {
            "duration": 0.23749999999995453,
            "durationTicks": 76,
            "midi": 28,
            "name": "E1",
            "ticks": 177200,
            "time": 553.75,
            "velocity": 0.9448818897637795
          },
          {
            "duration": 0.23749999999995453,
            "durationTicks": 76,
            "midi": 28,
            "name": "E1",
            "ticks": 177280,
            "time": 554,
            "velocity": 0.9448818897637795
          },
          {
            "duration": 0.2375000000000682,
            "durationTicks": 76,
            "midi": 28,
            "name": "E1",
            "ticks": 177360,
            "time": 554.25,
            "velocity": 0.9448818897637795
          },
          {
            "duration": 0.23749999999995453,
            "durationTicks": 76,
            "midi": 28,
            "name": "E1",
            "ticks": 177440,
            "time": 554.5,
            "velocity": 0.9448818897637795
          },
          {
            "duration": 0.23749999999995453,
            "durationTicks": 76,
            "midi": 28,
            "name": "E1",
            "ticks": 177520,
            "time": 554.75,
            "velocity": 0.9448818897637795
          },
          {
            "duration": 0.2375000000000682,
            "durationTicks": 76,
            "midi": 28,
            "name": "E1",
            "ticks": 177600,
            "time": 555,
            "velocity": 0.9448818897637795
          },
          {
            "duration": 0.23749999999995453,
            "durationTicks": 76,
            "midi": 28,
            "name": "E1",
            "ticks": 177680,
            "time": 555.25,
            "velocity": 0.9448818897637795
          },
          {
            "duration": 0.23749999999995453,
            "durationTicks": 76,
            "midi": 28,
            "name": "E1",
            "ticks": 177760,
            "time": 555.5,
            "velocity": 0.9448818897637795
          },
          {
            "duration": 0.2375000000000682,
            "durationTicks": 76,
            "midi": 28,
            "name": "E1",
            "ticks": 177840,
            "time": 555.75,
            "velocity": 0.9448818897637795
          },
          {
            "duration": 0.23749999999995453,
            "durationTicks": 76,
            "midi": 28,
            "name": "E1",
            "ticks": 177920,
            "time": 556,
            "velocity": 0.9448818897637795
          },
          {
            "duration": 0.23749999999995453,
            "durationTicks": 76,
            "midi": 28,
            "name": "E1",
            "ticks": 178000,
            "time": 556.25,
            "velocity": 0.9448818897637795
          },
          {
            "duration": 0.2375000000000682,
            "durationTicks": 76,
            "midi": 28,
            "name": "E1",
            "ticks": 178080,
            "time": 556.5,
            "velocity": 0.9448818897637795
          },
          {
            "duration": 0.23749999999995453,
            "durationTicks": 76,
            "midi": 28,
            "name": "E1",
            "ticks": 178160,
            "time": 556.75,
            "velocity": 0.9448818897637795
          },
          {
            "duration": 0.23749999999995453,
            "durationTicks": 76,
            "midi": 28,
            "name": "E1",
            "ticks": 178240,
            "time": 557,
            "velocity": 0.9448818897637795
          },
          {
            "duration": 0.2375000000000682,
            "durationTicks": 76,
            "midi": 28,
            "name": "E1",
            "ticks": 178320,
            "time": 557.25,
            "velocity": 0.9448818897637795
          },
          {
            "duration": 0.23749999999995453,
            "durationTicks": 76,
            "midi": 28,
            "name": "E1",
            "ticks": 178400,
            "time": 557.5,
            "velocity": 0.9448818897637795
          },
          {
            "duration": 0.23749999999995453,
            "durationTicks": 76,
            "midi": 28,
            "name": "E1",
            "ticks": 178480,
            "time": 557.75,
            "velocity": 0.9448818897637795
          },
          {
            "duration": 0.2375000000000682,
            "durationTicks": 76,
            "midi": 28,
            "name": "E1",
            "ticks": 178560,
            "time": 558,
            "velocity": 0.9448818897637795
          },
          {
            "duration": 0.23749999999995453,
            "durationTicks": 76,
            "midi": 28,
            "name": "E1",
            "ticks": 178640,
            "time": 558.25,
            "velocity": 0.9448818897637795
          },
          {
            "duration": 0.23749999999995453,
            "durationTicks": 76,
            "midi": 28,
            "name": "E1",
            "ticks": 178720,
            "time": 558.5,
            "velocity": 0.9448818897637795
          },
          {
            "duration": 0.2375000000000682,
            "durationTicks": 76,
            "midi": 28,
            "name": "E1",
            "ticks": 178800,
            "time": 558.75,
            "velocity": 0.9448818897637795
          },
          {
            "duration": 0.23749999999995453,
            "durationTicks": 76,
            "midi": 28,
            "name": "E1",
            "ticks": 178880,
            "time": 559,
            "velocity": 0.9448818897637795
          },
          {
            "duration": 0.23749999999995453,
            "durationTicks": 76,
            "midi": 28,
            "name": "E1",
            "ticks": 178960,
            "time": 559.25,
            "velocity": 0.9448818897637795
          },
          {
            "duration": 0.2375000000000682,
            "durationTicks": 76,
            "midi": 28,
            "name": "E1",
            "ticks": 179040,
            "time": 559.5,
            "velocity": 0.9448818897637795
          },
          {
            "duration": 0.23749999999995453,
            "durationTicks": 76,
            "midi": 28,
            "name": "E1",
            "ticks": 179120,
            "time": 559.75,
            "velocity": 0.9448818897637795
          },
          {
            "duration": 0.23749999999995453,
            "durationTicks": 76,
            "midi": 28,
            "name": "E1",
            "ticks": 179200,
            "time": 560,
            "velocity": 0.9448818897637795
          },
          {
            "duration": 0.2375000000000682,
            "durationTicks": 76,
            "midi": 28,
            "name": "E1",
            "ticks": 179280,
            "time": 560.25,
            "velocity": 0.9448818897637795
          },
          {
            "duration": 0.23749999999995453,
            "durationTicks": 76,
            "midi": 28,
            "name": "E1",
            "ticks": 179360,
            "time": 560.5,
            "velocity": 0.9448818897637795
          },
          {
            "duration": 0.23749999999995453,
            "durationTicks": 76,
            "midi": 28,
            "name": "E1",
            "ticks": 179440,
            "time": 560.75,
            "velocity": 0.9448818897637795
          },
          {
            "duration": 0.2375000000000682,
            "durationTicks": 76,
            "midi": 28,
            "name": "E1",
            "ticks": 179520,
            "time": 561,
            "velocity": 0.9448818897637795
          },
          {
            "duration": 0.23749999999995453,
            "durationTicks": 76,
            "midi": 28,
            "name": "E1",
            "ticks": 179600,
            "time": 561.25,
            "velocity": 0.9448818897637795
          },
          {
            "duration": 0.23749999999995453,
            "durationTicks": 76,
            "midi": 28,
            "name": "E1",
            "ticks": 179680,
            "time": 561.5,
            "velocity": 0.9448818897637795
          },
          {
            "duration": 0.2375000000000682,
            "durationTicks": 76,
            "midi": 28,
            "name": "E1",
            "ticks": 179760,
            "time": 561.75,
            "velocity": 0.9448818897637795
          },
          {
            "duration": 0.23749999999995453,
            "durationTicks": 76,
            "midi": 28,
            "name": "E1",
            "ticks": 179840,
            "time": 562,
            "velocity": 0.9448818897637795
          },
          {
            "duration": 0.23749999999995453,
            "durationTicks": 76,
            "midi": 28,
            "name": "E1",
            "ticks": 179920,
            "time": 562.25,
            "velocity": 0.9448818897637795
          },
          {
            "duration": 0.2375000000000682,
            "durationTicks": 76,
            "midi": 29,
            "name": "F1",
            "ticks": 180000,
            "time": 562.5,
            "velocity": 0.9448818897637795
          },
          {
            "duration": 0.23749999999995453,
            "durationTicks": 76,
            "midi": 29,
            "name": "F1",
            "ticks": 180080,
            "time": 562.75,
            "velocity": 0.9448818897637795
          },
          {
            "duration": 0.23749999999995453,
            "durationTicks": 76,
            "midi": 29,
            "name": "F1",
            "ticks": 180160,
            "time": 563,
            "velocity": 0.9448818897637795
          },
          {
            "duration": 0.2375000000000682,
            "durationTicks": 76,
            "midi": 29,
            "name": "F1",
            "ticks": 180240,
            "time": 563.25,
            "velocity": 0.9448818897637795
          },
          {
            "duration": 0.23749999999995453,
            "durationTicks": 76,
            "midi": 29,
            "name": "F1",
            "ticks": 180320,
            "time": 563.5,
            "velocity": 0.9448818897637795
          },
          {
            "duration": 0.23749999999995453,
            "durationTicks": 76,
            "midi": 29,
            "name": "F1",
            "ticks": 180400,
            "time": 563.75,
            "velocity": 0.9448818897637795
          },
          {
            "duration": 0.2375000000000682,
            "durationTicks": 76,
            "midi": 29,
            "name": "F1",
            "ticks": 180480,
            "time": 564,
            "velocity": 0.9448818897637795
          },
          {
            "duration": 0.23749999999995453,
            "durationTicks": 76,
            "midi": 29,
            "name": "F1",
            "ticks": 180560,
            "time": 564.25,
            "velocity": 0.9448818897637795
          },
          {
            "duration": 0.23749999999995453,
            "durationTicks": 76,
            "midi": 29,
            "name": "F1",
            "ticks": 180640,
            "time": 564.5,
            "velocity": 0.9448818897637795
          },
          {
            "duration": 0.2375000000000682,
            "durationTicks": 76,
            "midi": 29,
            "name": "F1",
            "ticks": 180720,
            "time": 564.75,
            "velocity": 0.9448818897637795
          },
          {
            "duration": 0.23749999999995453,
            "durationTicks": 76,
            "midi": 29,
            "name": "F1",
            "ticks": 180800,
            "time": 565,
            "velocity": 0.9448818897637795
          },
          {
            "duration": 0.23749999999995453,
            "durationTicks": 76,
            "midi": 29,
            "name": "F1",
            "ticks": 180880,
            "time": 565.25,
            "velocity": 0.9448818897637795
          },
          {
            "duration": 0.2375000000000682,
            "durationTicks": 76,
            "midi": 29,
            "name": "F1",
            "ticks": 180960,
            "time": 565.5,
            "velocity": 0.9448818897637795
          },
          {
            "duration": 0.23749999999995453,
            "durationTicks": 76,
            "midi": 29,
            "name": "F1",
            "ticks": 181040,
            "time": 565.75,
            "velocity": 0.9448818897637795
          },
          {
            "duration": 0.23749999999995453,
            "durationTicks": 76,
            "midi": 29,
            "name": "F1",
            "ticks": 181120,
            "time": 566,
            "velocity": 0.9448818897637795
          },
          {
            "duration": 0.2375000000000682,
            "durationTicks": 76,
            "midi": 29,
            "name": "F1",
            "ticks": 181200,
            "time": 566.25,
            "velocity": 0.9448818897637795
          },
          {
            "duration": 0.23749999999995453,
            "durationTicks": 76,
            "midi": 29,
            "name": "F1",
            "ticks": 181280,
            "time": 566.5,
            "velocity": 0.9448818897637795
          },
          {
            "duration": 0.23749999999995453,
            "durationTicks": 76,
            "midi": 29,
            "name": "F1",
            "ticks": 181360,
            "time": 566.75,
            "velocity": 0.9448818897637795
          },
          {
            "duration": 50.20625000000007,
            "durationTicks": 16066,
            "midi": 30,
            "name": "F#1",
            "ticks": 181440,
            "time": 567,
            "velocity": 0.9448818897637795
          },
          {
            "duration": 0.46875,
            "durationTicks": 150,
            "midi": 35,
            "name": "B1",
            "ticks": 211680,
            "time": 661.5,
            "velocity": 0.3700787401574803
          },
          {
            "duration": 0.46875,
            "durationTicks": 150,
            "midi": 35,
            "name": "B1",
            "ticks": 211840,
            "time": 662,
            "velocity": 0.3937007874015748
          },
          {
            "duration": 0.96875,
            "durationTicks": 310,
            "midi": 35,
            "name": "B1",
            "ticks": 212000,
            "time": 662.5,
            "velocity": 0.41732283464566927
          },
          {
            "duration": 0.46875,
            "durationTicks": 150,
            "midi": 35,
            "name": "B1",
            "ticks": 212320,
            "time": 663.5,
            "velocity": 0.4645669291338583
          },
          {
            "duration": 0.96875,
            "durationTicks": 310,
            "midi": 35,
            "name": "B1",
            "ticks": 212480,
            "time": 664,
            "velocity": 0.49606299212598426
          },
          {
            "duration": 0.46875,
            "durationTicks": 150,
            "midi": 35,
            "name": "B1",
            "ticks": 212800,
            "time": 665,
            "velocity": 0.5433070866141733
          },
          {
            "duration": 0.96875,
            "durationTicks": 310,
            "midi": 35,
            "name": "B1",
            "ticks": 212960,
            "time": 665.5,
            "velocity": 0.5669291338582677
          },
          {
            "duration": 0.46875,
            "durationTicks": 150,
            "midi": 35,
            "name": "B1",
            "ticks": 213280,
            "time": 666.5,
            "velocity": 0.5905511811023622
          },
          {
            "duration": 0.96875,
            "durationTicks": 310,
            "midi": 35,
            "name": "B1",
            "ticks": 213440,
            "time": 667,
            "velocity": 0.5905511811023622
          },
          {
            "duration": 0.46875,
            "durationTicks": 150,
            "midi": 35,
            "name": "B1",
            "ticks": 213760,
            "time": 668,
            "velocity": 0.5905511811023622
          },
          {
            "duration": 0.96875,
            "durationTicks": 310,
            "midi": 35,
            "name": "B1",
            "ticks": 213920,
            "time": 668.5,
            "velocity": 0.5905511811023622
          },
          {
            "duration": 0.46875,
            "durationTicks": 150,
            "midi": 35,
            "name": "B1",
            "ticks": 214240,
            "time": 669.5,
            "velocity": 0.5905511811023622
          },
          {
            "duration": 0.96875,
            "durationTicks": 310,
            "midi": 35,
            "name": "B1",
            "ticks": 214400,
            "time": 670,
            "velocity": 0.5905511811023622
          },
          {
            "duration": 0.46875,
            "durationTicks": 150,
            "midi": 35,
            "name": "B1",
            "ticks": 214720,
            "time": 671,
            "velocity": 0.5905511811023622
          },
          {
            "duration": 0.96875,
            "durationTicks": 310,
            "midi": 35,
            "name": "B1",
            "ticks": 214880,
            "time": 671.5,
            "velocity": 0.5905511811023622
          },
          {
            "duration": 0.46875,
            "durationTicks": 150,
            "midi": 35,
            "name": "B1",
            "ticks": 215200,
            "time": 672.5,
            "velocity": 0.5905511811023622
          },
          {
            "duration": 0.96875,
            "durationTicks": 310,
            "midi": 35,
            "name": "B1",
            "ticks": 215360,
            "time": 673,
            "velocity": 0.5905511811023622
          },
          {
            "duration": 0.46875,
            "durationTicks": 150,
            "midi": 35,
            "name": "B1",
            "ticks": 215680,
            "time": 674,
            "velocity": 0.5905511811023622
          },
          {
            "duration": 0.96875,
            "durationTicks": 310,
            "midi": 35,
            "name": "B1",
            "ticks": 215840,
            "time": 674.5,
            "velocity": 0.5905511811023622
          },
          {
            "duration": 0.46875,
            "durationTicks": 150,
            "midi": 35,
            "name": "B1",
            "ticks": 216160,
            "time": 675.5,
            "velocity": 0.5905511811023622
          },
          {
            "duration": 0.96875,
            "durationTicks": 310,
            "midi": 35,
            "name": "B1",
            "ticks": 216320,
            "time": 676,
            "velocity": 0.5905511811023622
          },
          {
            "duration": 0.46875,
            "durationTicks": 150,
            "midi": 35,
            "name": "B1",
            "ticks": 216640,
            "time": 677,
            "velocity": 0.5905511811023622
          },
          {
            "duration": 0.96875,
            "durationTicks": 310,
            "midi": 35,
            "name": "B1",
            "ticks": 216800,
            "time": 677.5,
            "velocity": 0.5905511811023622
          },
          {
            "duration": 0.46875,
            "durationTicks": 150,
            "midi": 35,
            "name": "B1",
            "ticks": 217120,
            "time": 678.5,
            "velocity": 0.5905511811023622
          },
          {
            "duration": 0.46875,
            "durationTicks": 150,
            "midi": 35,
            "name": "B1",
            "ticks": 217280,
            "time": 679,
            "velocity": 0.5905511811023622
          },
          {
            "duration": 0.46875,
            "durationTicks": 150,
            "midi": 35,
            "name": "B1",
            "ticks": 217440,
            "time": 679.5,
            "velocity": 0.5905511811023622
          },
          {
            "duration": 0.46875,
            "durationTicks": 150,
            "midi": 35,
            "name": "B1",
            "ticks": 217600,
            "time": 680,
            "velocity": 0.5905511811023622
          },
          {
            "duration": 0.96875,
            "durationTicks": 310,
            "midi": 35,
            "name": "B1",
            "ticks": 217760,
            "time": 680.5,
            "velocity": 0.5905511811023622
          },
          {
            "duration": 0.46875,
            "durationTicks": 150,
            "midi": 35,
            "name": "B1",
            "ticks": 218080,
            "time": 681.5,
            "velocity": 0.5905511811023622
          },
          {
            "duration": 0.96875,
            "durationTicks": 310,
            "midi": 35,
            "name": "B1",
            "ticks": 218240,
            "time": 682,
            "velocity": 0.5905511811023622
          },
          {
            "duration": 0.46875,
            "durationTicks": 150,
            "midi": 35,
            "name": "B1",
            "ticks": 218560,
            "time": 683,
            "velocity": 0.5905511811023622
          },
          {
            "duration": 0.96875,
            "durationTicks": 310,
            "midi": 35,
            "name": "B1",
            "ticks": 218720,
            "time": 683.5,
            "velocity": 0.5905511811023622
          },
          {
            "duration": 0.46875,
            "durationTicks": 150,
            "midi": 35,
            "name": "B1",
            "ticks": 219040,
            "time": 684.5,
            "velocity": 0.5905511811023622
          },
          {
            "duration": 0.96875,
            "durationTicks": 310,
            "midi": 35,
            "name": "B1",
            "ticks": 219200,
            "time": 685,
            "velocity": 0.5905511811023622
          },
          {
            "duration": 0.46875,
            "durationTicks": 150,
            "midi": 35,
            "name": "B1",
            "ticks": 219520,
            "time": 686,
            "velocity": 0.5905511811023622
          },
          {
            "duration": 0.96875,
            "durationTicks": 310,
            "midi": 35,
            "name": "B1",
            "ticks": 219680,
            "time": 686.5,
            "velocity": 0.5905511811023622
          },
          {
            "duration": 0.46875,
            "durationTicks": 150,
            "midi": 35,
            "name": "B1",
            "ticks": 220000,
            "time": 687.5,
            "velocity": 0.5905511811023622
          },
          {
            "duration": 0.96875,
            "durationTicks": 310,
            "midi": 35,
            "name": "B1",
            "ticks": 220160,
            "time": 688,
            "velocity": 0.5905511811023622
          },
          {
            "duration": 0.46875,
            "durationTicks": 150,
            "midi": 35,
            "name": "B1",
            "ticks": 220480,
            "time": 689,
            "velocity": 0.5905511811023622
          },
          {
            "duration": 0.96875,
            "durationTicks": 310,
            "midi": 35,
            "name": "B1",
            "ticks": 220640,
            "time": 689.5,
            "velocity": 0.5905511811023622
          },
          {
            "duration": 0.46875,
            "durationTicks": 150,
            "midi": 35,
            "name": "B1",
            "ticks": 220960,
            "time": 690.5,
            "velocity": 0.5905511811023622
          },
          {
            "duration": 0.96875,
            "durationTicks": 310,
            "midi": 35,
            "name": "B1",
            "ticks": 221120,
            "time": 691,
            "velocity": 0.5905511811023622
          },
          {
            "duration": 0.46875,
            "durationTicks": 150,
            "midi": 35,
            "name": "B1",
            "ticks": 221440,
            "time": 692,
            "velocity": 0.5905511811023622
          },
          {
            "duration": 0.96875,
            "durationTicks": 310,
            "midi": 35,
            "name": "B1",
            "ticks": 221600,
            "time": 692.5,
            "velocity": 0.5905511811023622
          },
          {
            "duration": 0.46875,
            "durationTicks": 150,
            "midi": 35,
            "name": "B1",
            "ticks": 221920,
            "time": 693.5,
            "velocity": 0.5905511811023622
          },
          {
            "duration": 0.96875,
            "durationTicks": 310,
            "midi": 35,
            "name": "B1",
            "ticks": 222080,
            "time": 694,
            "velocity": 0.5905511811023622
          },
          {
            "duration": 0.46875,
            "durationTicks": 150,
            "midi": 35,
            "name": "B1",
            "ticks": 222400,
            "time": 695,
            "velocity": 0.5905511811023622
          },
          {
            "duration": 0.96875,
            "durationTicks": 310,
            "midi": 35,
            "name": "B1",
            "ticks": 222560,
            "time": 695.5,
            "velocity": 0.5905511811023622
          },
          {
            "duration": 0.46875,
            "durationTicks": 150,
            "midi": 35,
            "name": "B1",
            "ticks": 222880,
            "time": 696.5,
            "velocity": 0.5905511811023622
          },
          {
            "duration": 0.96875,
            "durationTicks": 310,
            "midi": 35,
            "name": "B1",
            "ticks": 223040,
            "time": 697,
            "velocity": 0.5905511811023622
          },
          {
            "duration": 0.46875,
            "durationTicks": 150,
            "midi": 35,
            "name": "B1",
            "ticks": 223360,
            "time": 698,
            "velocity": 0.5905511811023622
          },
          {
            "duration": 0.96875,
            "durationTicks": 310,
            "midi": 35,
            "name": "B1",
            "ticks": 223520,
            "time": 698.5,
            "velocity": 0.5905511811023622
          },
          {
            "duration": 0.46875,
            "durationTicks": 150,
            "midi": 35,
            "name": "B1",
            "ticks": 223840,
            "time": 699.5,
            "velocity": 0.5905511811023622
          },
          {
            "duration": 0.96875,
            "durationTicks": 310,
            "midi": 35,
            "name": "B1",
            "ticks": 224000,
            "time": 700,
            "velocity": 0.5905511811023622
          },
          {
            "duration": 1.40625,
            "durationTicks": 450,
            "midi": 42,
            "name": "F#2",
            "ticks": 224160,
            "time": 700.5,
            "velocity": 0.47244094488188976
          },
          {
            "duration": 0.46875,
            "durationTicks": 150,
            "midi": 35,
            "name": "B1",
            "ticks": 224320,
            "time": 701,
            "velocity": 0.5905511811023622
          },
          {
            "duration": 0.96875,
            "durationTicks": 310,
            "midi": 35,
            "name": "B1",
            "ticks": 224480,
            "time": 701.5,
            "velocity": 0.5905511811023622
          },
          {
            "duration": 2.8125,
            "durationTicks": 900,
            "midi": 43,
            "name": "G2",
            "ticks": 224640,
            "time": 702,
            "velocity": 0.47244094488188976
          },
          {
            "duration": 0.46875,
            "durationTicks": 150,
            "midi": 35,
            "name": "B1",
            "ticks": 224800,
            "time": 702.5,
            "velocity": 0.5905511811023622
          },
          {
            "duration": 0.96875,
            "durationTicks": 310,
            "midi": 35,
            "name": "B1",
            "ticks": 224960,
            "time": 703,
            "velocity": 0.5905511811023622
          },
          {
            "duration": 0.46875,
            "durationTicks": 150,
            "midi": 35,
            "name": "B1",
            "ticks": 225280,
            "time": 704,
            "velocity": 0.5905511811023622
          },
          {
            "duration": 0.96875,
            "durationTicks": 310,
            "midi": 35,
            "name": "B1",
            "ticks": 225440,
            "time": 704.5,
            "velocity": 0.5905511811023622
          },
          {
            "duration": 1.40625,
            "durationTicks": 450,
            "midi": 40,
            "name": "E2",
            "ticks": 225600,
            "time": 705,
            "velocity": 0.47244094488188976
          },
          {
            "duration": 0.46875,
            "durationTicks": 150,
            "midi": 35,
            "name": "B1",
            "ticks": 225760,
            "time": 705.5,
            "velocity": 0.5905511811023622
          },
          {
            "duration": 0.96875,
            "durationTicks": 310,
            "midi": 35,
            "name": "B1",
            "ticks": 225920,
            "time": 706,
            "velocity": 0.5905511811023622
          },
          {
            "duration": 2.8125,
            "durationTicks": 900,
            "midi": 42,
            "name": "F#2",
            "ticks": 226080,
            "time": 706.5,
            "velocity": 0.47244094488188976
          },
          {
            "duration": 0.46875,
            "durationTicks": 150,
            "midi": 35,
            "name": "B1",
            "ticks": 226240,
            "time": 707,
            "velocity": 0.5905511811023622
          },
          {
            "duration": 0.96875,
            "durationTicks": 310,
            "midi": 35,
            "name": "B1",
            "ticks": 226400,
            "time": 707.5,
            "velocity": 0.5905511811023622
          },
          {
            "duration": 0.46875,
            "durationTicks": 150,
            "midi": 35,
            "name": "B1",
            "ticks": 226720,
            "time": 708.5,
            "velocity": 0.5905511811023622
          },
          {
            "duration": 0.96875,
            "durationTicks": 310,
            "midi": 35,
            "name": "B1",
            "ticks": 226880,
            "time": 709,
            "velocity": 0.5905511811023622
          },
          {
            "duration": 1.40625,
            "durationTicks": 450,
            "midi": 42,
            "name": "F#2",
            "ticks": 227040,
            "time": 709.5,
            "velocity": 0.47244094488188976
          },
          {
            "duration": 0.46875,
            "durationTicks": 150,
            "midi": 35,
            "name": "B1",
            "ticks": 227200,
            "time": 710,
            "velocity": 0.5905511811023622
          },
          {
            "duration": 0.96875,
            "durationTicks": 310,
            "midi": 35,
            "name": "B1",
            "ticks": 227360,
            "time": 710.5,
            "velocity": 0.5905511811023622
          },
          {
            "duration": 2.8125,
            "durationTicks": 900,
            "midi": 43,
            "name": "G2",
            "ticks": 227520,
            "time": 711,
            "velocity": 0.6299212598425197
          },
          {
            "duration": 0.46875,
            "durationTicks": 150,
            "midi": 35,
            "name": "B1",
            "ticks": 227680,
            "time": 711.5,
            "velocity": 0.6299212598425197
          },
          {
            "duration": 0.96875,
            "durationTicks": 310,
            "midi": 35,
            "name": "B1",
            "ticks": 227840,
            "time": 712,
            "velocity": 0.6299212598425197
          },
          {
            "duration": 0.46875,
            "durationTicks": 150,
            "midi": 35,
            "name": "B1",
            "ticks": 228160,
            "time": 713,
            "velocity": 0.6220472440944882
          },
          {
            "duration": 0.96875,
            "durationTicks": 310,
            "midi": 35,
            "name": "B1",
            "ticks": 228320,
            "time": 713.5,
            "velocity": 0.6220472440944882
          },
          {
            "duration": 1.40625,
            "durationTicks": 450,
            "midi": 40,
            "name": "E2",
            "ticks": 228480,
            "time": 714,
            "velocity": 0.6220472440944882
          },
          {
            "duration": 0.46875,
            "durationTicks": 150,
            "midi": 35,
            "name": "B1",
            "ticks": 228640,
            "time": 714.5,
            "velocity": 0.6220472440944882
          },
          {
            "duration": 0.96875,
            "durationTicks": 310,
            "midi": 35,
            "name": "B1",
            "ticks": 228800,
            "time": 715,
            "velocity": 0.6220472440944882
          },
          {
            "duration": 2.8125,
            "durationTicks": 900,
            "midi": 42,
            "name": "F#2",
            "ticks": 228960,
            "time": 715.5,
            "velocity": 0.6141732283464567
          },
          {
            "duration": 0.46875,
            "durationTicks": 150,
            "midi": 35,
            "name": "B1",
            "ticks": 229120,
            "time": 716,
            "velocity": 0.6141732283464567
          },
          {
            "duration": 0.96875,
            "durationTicks": 310,
            "midi": 35,
            "name": "B1",
            "ticks": 229280,
            "time": 716.5,
            "velocity": 0.6141732283464567
          },
          {
            "duration": 0.46875,
            "durationTicks": 150,
            "midi": 35,
            "name": "B1",
            "ticks": 229600,
            "time": 717.5,
            "velocity": 0.6141732283464567
          },
          {
            "duration": 0.96875,
            "durationTicks": 310,
            "midi": 35,
            "name": "B1",
            "ticks": 229760,
            "time": 718,
            "velocity": 0.6062992125984252
          },
          {
            "duration": 1.40625,
            "durationTicks": 450,
            "midi": 42,
            "name": "F#2",
            "ticks": 229920,
            "time": 718.5,
            "velocity": 0.6062992125984252
          },
          {
            "duration": 0.46875,
            "durationTicks": 150,
            "midi": 35,
            "name": "B1",
            "ticks": 230080,
            "time": 719,
            "velocity": 0.6062992125984252
          },
          {
            "duration": 0.96875,
            "durationTicks": 310,
            "midi": 35,
            "name": "B1",
            "ticks": 230240,
            "time": 719.5,
            "velocity": 0.6062992125984252
          },
          {
            "duration": 4.21875,
            "durationTicks": 1350,
            "midi": 47,
            "name": "B2",
            "ticks": 230400,
            "time": 720,
            "velocity": 0.6062992125984252
          },
          {
            "duration": 0.46875,
            "durationTicks": 150,
            "midi": 35,
            "name": "B1",
            "ticks": 230560,
            "time": 720.5,
            "velocity": 0.6062992125984252
          },
          {
            "duration": 0.96875,
            "durationTicks": 310,
            "midi": 35,
            "name": "B1",
            "ticks": 230720,
            "time": 721,
            "velocity": 0.5984251968503937
          },
          {
            "duration": 0.46875,
            "durationTicks": 150,
            "midi": 35,
            "name": "B1",
            "ticks": 231040,
            "time": 722,
            "velocity": 0.5984251968503937
          },
          {
            "duration": 0.96875,
            "durationTicks": 310,
            "midi": 35,
            "name": "B1",
            "ticks": 231200,
            "time": 722.5,
            "velocity": 0.5984251968503937
          },
          {
            "duration": 0.46875,
            "durationTicks": 150,
            "midi": 35,
            "name": "B1",
            "ticks": 231520,
            "time": 723.5,
            "velocity": 0.5905511811023622
          },
          {
            "duration": 0.96875,
            "durationTicks": 310,
            "midi": 35,
            "name": "B1",
            "ticks": 231680,
            "time": 724,
            "velocity": 0.5905511811023622
          },
          {
            "duration": 2.8125,
            "durationTicks": 900,
            "midi": 46,
            "name": "A#2",
            "ticks": 231840,
            "time": 724.5,
            "velocity": 0.6141732283464567
          },
          {
            "duration": 0.46875,
            "durationTicks": 150,
            "midi": 35,
            "name": "B1",
            "ticks": 232000,
            "time": 725,
            "velocity": 0.5905511811023622
          },
          {
            "duration": 0.96875,
            "durationTicks": 310,
            "midi": 35,
            "name": "B1",
            "ticks": 232160,
            "time": 725.5,
            "velocity": 0.5905511811023622
          },
          {
            "duration": 0.46875,
            "durationTicks": 150,
            "midi": 35,
            "name": "B1",
            "ticks": 232480,
            "time": 726.5,
            "velocity": 0.5826771653543307
          },
          {
            "duration": 0.96875,
            "durationTicks": 310,
            "midi": 35,
            "name": "B1",
            "ticks": 232640,
            "time": 727,
            "velocity": 0.5826771653543307
          },
          {
            "duration": 1.40625,
            "durationTicks": 450,
            "midi": 47,
            "name": "B2",
            "ticks": 232800,
            "time": 727.5,
            "velocity": 0.6062992125984252
          },
          {
            "duration": 0.46875,
            "durationTicks": 150,
            "midi": 35,
            "name": "B1",
            "ticks": 232960,
            "time": 728,
            "velocity": 0.5826771653543307
          },
          {
            "duration": 0.96875,
            "durationTicks": 310,
            "midi": 35,
            "name": "B1",
            "ticks": 233120,
            "time": 728.5,
            "velocity": 0.5826771653543307
          },
          {
            "duration": 4.21875,
            "durationTicks": 1350,
            "midi": 40,
            "name": "E2",
            "ticks": 233280,
            "time": 729,
            "velocity": 0.5748031496062992
          },
          {
            "duration": 0.46875,
            "durationTicks": 150,
            "midi": 35,
            "name": "B1",
            "ticks": 233440,
            "time": 729.5,
            "velocity": 0.5748031496062992
          },
          {
            "duration": 0.96875,
            "durationTicks": 310,
            "midi": 35,
            "name": "B1",
            "ticks": 233600,
            "time": 730,
            "velocity": 0.5748031496062992
          },
          {
            "duration": 0.46875,
            "durationTicks": 150,
            "midi": 35,
            "name": "B1",
            "ticks": 233920,
            "time": 731,
            "velocity": 0.5748031496062992
          },
          {
            "duration": 0.96875,
            "durationTicks": 310,
            "midi": 35,
            "name": "B1",
            "ticks": 234080,
            "time": 731.5,
            "velocity": 0.5669291338582677
          },
          {
            "duration": 0.46875,
            "durationTicks": 150,
            "midi": 35,
            "name": "B1",
            "ticks": 234400,
            "time": 732.5,
            "velocity": 0.5669291338582677
          },
          {
            "duration": 0.96875,
            "durationTicks": 310,
            "midi": 35,
            "name": "B1",
            "ticks": 234560,
            "time": 733,
            "velocity": 0.5669291338582677
          },
          {
            "duration": 0.46875,
            "durationTicks": 150,
            "midi": 35,
            "name": "B1",
            "ticks": 234880,
            "time": 734,
            "velocity": 0.5590551181102362
          },
          {
            "duration": 0.96875,
            "durationTicks": 310,
            "midi": 35,
            "name": "B1",
            "ticks": 235040,
            "time": 734.5,
            "velocity": 0.5590551181102362
          },
          {
            "duration": 0.46875,
            "durationTicks": 150,
            "midi": 35,
            "name": "B1",
            "ticks": 235360,
            "time": 735.5,
            "velocity": 0.5590551181102362
          },
          {
            "duration": 0.96875,
            "durationTicks": 310,
            "midi": 35,
            "name": "B1",
            "ticks": 235520,
            "time": 736,
            "velocity": 0.5590551181102362
          },
          {
            "duration": 0.46875,
            "durationTicks": 150,
            "midi": 35,
            "name": "B1",
            "ticks": 235840,
            "time": 737,
            "velocity": 0.5511811023622047
          },
          {
            "duration": 0.96875,
            "durationTicks": 310,
            "midi": 35,
            "name": "B1",
            "ticks": 236000,
            "time": 737.5,
            "velocity": 0.5511811023622047
          },
          {
            "duration": 0.46875,
            "durationTicks": 150,
            "midi": 35,
            "name": "B1",
            "ticks": 236320,
            "time": 738.5,
            "velocity": 0.5590551181102362
          },
          {
            "duration": 0.96875,
            "durationTicks": 310,
            "midi": 35,
            "name": "B1",
            "ticks": 236480,
            "time": 739,
            "velocity": 0.5590551181102362
          },
          {
            "duration": 0.46875,
            "durationTicks": 150,
            "midi": 35,
            "name": "B1",
            "ticks": 236800,
            "time": 740,
            "velocity": 0.5590551181102362
          },
          {
            "duration": 0.96875,
            "durationTicks": 310,
            "midi": 35,
            "name": "B1",
            "ticks": 236960,
            "time": 740.5,
            "velocity": 0.5590551181102362
          },
          {
            "duration": 0.46875,
            "durationTicks": 150,
            "midi": 35,
            "name": "B1",
            "ticks": 237280,
            "time": 741.5,
            "velocity": 0.5511811023622047
          },
          {
            "duration": 0.96875,
            "durationTicks": 310,
            "midi": 35,
            "name": "B1",
            "ticks": 237440,
            "time": 742,
            "velocity": 0.5511811023622047
          },
          {
            "duration": 0.46875,
            "durationTicks": 150,
            "midi": 35,
            "name": "B1",
            "ticks": 237760,
            "time": 743,
            "velocity": 0.5590551181102362
          },
          {
            "duration": 0.96875,
            "durationTicks": 310,
            "midi": 35,
            "name": "B1",
            "ticks": 237920,
            "time": 743.5,
            "velocity": 0.5590551181102362
          },
          {
            "duration": 0.46875,
            "durationTicks": 150,
            "midi": 35,
            "name": "B1",
            "ticks": 238240,
            "time": 744.5,
            "velocity": 0.5590551181102362
          },
          {
            "duration": 0.96875,
            "durationTicks": 310,
            "midi": 35,
            "name": "B1",
            "ticks": 238400,
            "time": 745,
            "velocity": 0.5590551181102362
          },
          {
            "duration": 0.46875,
            "durationTicks": 150,
            "midi": 35,
            "name": "B1",
            "ticks": 238720,
            "time": 746,
            "velocity": 0.5511811023622047
          },
          {
            "duration": 0.96875,
            "durationTicks": 310,
            "midi": 35,
            "name": "B1",
            "ticks": 238880,
            "time": 746.5,
            "velocity": 0.5511811023622047
          },
          {
            "duration": 0.46875,
            "durationTicks": 150,
            "midi": 35,
            "name": "B1",
            "ticks": 239200,
            "time": 747.5,
            "velocity": 0.5511811023622047
          },
          {
            "duration": 0.96875,
            "durationTicks": 310,
            "midi": 35,
            "name": "B1",
            "ticks": 239360,
            "time": 748,
            "velocity": 0.5433070866141733
          },
          {
            "duration": 0.46875,
            "durationTicks": 150,
            "midi": 35,
            "name": "B1",
            "ticks": 239680,
            "time": 749,
            "velocity": 0.5354330708661418
          },
          {
            "duration": 0.96875,
            "durationTicks": 310,
            "midi": 35,
            "name": "B1",
            "ticks": 239840,
            "time": 749.5,
            "velocity": 0.5354330708661418
          },
          {
            "duration": 0.46875,
            "durationTicks": 150,
            "midi": 35,
            "name": "B1",
            "ticks": 240160,
            "time": 750.5,
            "velocity": 0.5275590551181102
          },
          {
            "duration": 0.96875,
            "durationTicks": 310,
            "midi": 35,
            "name": "B1",
            "ticks": 240320,
            "time": 751,
            "velocity": 0.5275590551181102
          },
          {
            "duration": 0.46875,
            "durationTicks": 150,
            "midi": 35,
            "name": "B1",
            "ticks": 240640,
            "time": 752,
            "velocity": 0.5196850393700787
          },
          {
            "duration": 0.96875,
            "durationTicks": 310,
            "midi": 35,
            "name": "B1",
            "ticks": 240800,
            "time": 752.5,
            "velocity": 0.5118110236220472
          },
          {
            "duration": 0.46875,
            "durationTicks": 150,
            "midi": 35,
            "name": "B1",
            "ticks": 241120,
            "time": 753.5,
            "velocity": 0.5039370078740157
          },
          {
            "duration": 0.96875,
            "durationTicks": 310,
            "midi": 35,
            "name": "B1",
            "ticks": 241280,
            "time": 754,
            "velocity": 0.5039370078740157
          },
          {
            "duration": 0.46875,
            "durationTicks": 150,
            "midi": 35,
            "name": "B1",
            "ticks": 241600,
            "time": 755,
            "velocity": 0.49606299212598426
          },
          {
            "duration": 1.2062500000000682,
            "durationTicks": 386,
            "midi": 35,
            "name": "B1",
            "ticks": 241760,
            "time": 755.5,
            "velocity": 0.4881889763779528
          },
          {
            "duration": 0.7062500000000682,
            "durationTicks": 226,
            "midi": 35,
            "name": "B1",
            "ticks": 242160,
            "time": 756.75,
            "velocity": 0.48031496062992124
          },
          {
            "duration": 0.7062500000000682,
            "durationTicks": 226,
            "midi": 35,
            "name": "B1",
            "ticks": 242400,
            "time": 757.5,
            "velocity": 0.47244094488188976
          },
          {
            "duration": 0.7062500000000682,
            "durationTicks": 226,
            "midi": 35,
            "name": "B1",
            "ticks": 242640,
            "time": 758.25,
            "velocity": 0.47244094488188976
          },
          {
            "duration": 0.7062500000000682,
            "durationTicks": 226,
            "midi": 35,
            "name": "B1",
            "ticks": 242880,
            "time": 759,
            "velocity": 0.4645669291338583
          },
          {
            "duration": 2.15625,
            "durationTicks": 690,
            "midi": 35,
            "name": "B1",
            "ticks": 243120,
            "time": 759.75,
            "velocity": 0.4566929133858268
          },
          {
            "duration": 2.8125,
            "durationTicks": 900,
            "midi": 35,
            "name": "B1",
            "ticks": 243840,
            "time": 762,
            "velocity": 0.4409448818897638
          },
          {
            "duration": 2.8125,
            "durationTicks": 900,
            "midi": 35,
            "name": "B1",
            "ticks": 244800,
            "time": 765,
            "velocity": 0.41732283464566927
          },
          {
            "duration": 14.400000000000091,
            "durationTicks": 4608,
            "midi": 35,
            "name": "B1",
            "ticks": 245760,
            "time": 768,
            "velocity": 0.4015748031496063
          }
        ]
      },
      {
        "channel": 0,
        "controlChanges": {},
        "pitchBends": [],
        "instrument": {
          "family": "piano",
          "number": 0,
          "name": "acoustic grand piano"
        },
        "name": "Pizz",
        "notes": [],
        "endOfTrackTicks": 246240
      },
      {
        "channel": 13,
        "controlChanges": {
          "7": [
            {
              "number": 7,
              "ticks": 0,
              "time": 0,
              "value": 1
            },
            {
              "number": 7,
              "ticks": 240480,
              "time": 751.5,
              "value": 0.6535433070866141
            }
          ],
          "10": [
            {
              "number": 10,
              "ticks": 0,
              "time": 0,
              "value": 0.8661417322834646
            }
          ]
        },
        "pitchBends": [],
        "instrument": {
          "family": "strings",
          "number": 45,
          "name": "contrabass"
        },
        "name": "",
        "notes": [
          {
            "duration": 0.599999999999909,
            "durationTicks": 192,
            "midi": 47,
            "name": "B2",
            "ticks": 238080,
            "time": 744,
            "velocity": 0.5118110236220472
          },
          {
            "duration": 0.599999999999909,
            "durationTicks": 192,
            "midi": 35,
            "name": "B1",
            "ticks": 240960,
            "time": 753,
            "velocity": 0.5118110236220472
          },
          {
            "duration": 0.599999999999909,
            "durationTicks": 192,
            "midi": 35,
            "name": "B1",
            "ticks": 242400,
            "time": 757.5,
            "velocity": 0.5118110236220472
          },
          {
            "duration": 0.599999999999909,
            "durationTicks": 192,
            "midi": 35,
            "name": "B1",
            "ticks": 243840,
            "time": 762,
            "velocity": 0.5118110236220472
          },
          {
            "duration": 0.599999999999909,
            "durationTicks": 192,
            "midi": 35,
            "name": "B1",
            "ticks": 244800,
            "time": 765,
            "velocity": 0.5118110236220472
          },
          {
            "duration": 0.599999999999909,
            "durationTicks": 192,
            "midi": 35,
            "name": "B1",
            "ticks": 245760,
            "time": 768,
            "velocity": 0.5118110236220472
          }
        ]
      }
    ]
  }