{
    "header": {
      "keySignatures": [],
      "meta": [],
      "name": "",
      "ppq": 384,
      "tempos": [
        {
          "bpm": 148.00489402849587,
          "ticks": 0
        },
        {
          "bpm": 109.00390415650054,
          "ticks": 1536
        }
      ],
      "timeSignatures": [
        {
          "ticks": 0,
          "timeSignature": [
            4,
            4
          ],
          "measures": 0
        }
      ]
    },
    "tracks": [
      {
        "channel": 1,
        "controlChanges": {},
        "pitchBends": [],
        "instrument": {
          "family": "piano",
          "number": 0,
          "name": "acoustic grand piano"
        },
        "name": "",
        "notes": [
          {
            "duration": 0.13187601041666142,
            "durationTicks": 92,
            "midi": 40,
            "name": "E2",
            "ticks": 30714,
            "time": 43.446331390625005,
            "velocity": 0.84251968503937
          },
          {
            "duration": 0.0946067031249953,
            "durationTicks": 66,
            "midi": 40,
            "name": "E2",
            "ticks": 30904,
            "time": 43.718684020833344,
            "velocity": 0.7322834645669292
          },
          {
            "duration": 0.11754166145832556,
            "durationTicks": 82,
            "midi": 40,
            "name": "E2",
            "ticks": 31006,
            "time": 43.86489438020834,
            "velocity": 0.8267716535433071
          },
          {
            "duration": 0.14047661979166293,
            "durationTicks": 98,
            "midi": 40,
            "name": "E2",
            "ticks": 31098,
            "time": 43.996770390625,
            "velocity": 0.7480314960629921
          },
          {
            "duration": 0.15481096874999878,
            "durationTicks": 108,
            "midi": 40,
            "name": "E2",
            "ticks": 31294,
            "time": 44.27772363020834,
            "velocity": 0.7874015748031497
          },
          {
            "duration": 0.15767783854166595,
            "durationTicks": 110,
            "midi": 40,
            "name": "E2",
            "ticks": 31488,
            "time": 44.55581,
            "velocity": 0.7874015748031497
          },
          {
            "duration": 0.15481096874999878,
            "durationTicks": 108,
            "midi": 40,
            "name": "E2",
            "ticks": 31678,
            "time": 44.82816263020834,
            "velocity": 0.8031496062992126
          },
          {
            "duration": 0.1519440989583316,
            "durationTicks": 106,
            "midi": 40,
            "name": "E2",
            "ticks": 31868,
            "time": 45.10051526041667,
            "velocity": 0.7874015748031497
          },
          {
            "duration": 0.14621035937499727,
            "durationTicks": 102,
            "midi": 40,
            "name": "E2",
            "ticks": 32056,
            "time": 45.37000102083334,
            "velocity": 0.8346456692913385
          },
          {
            "duration": 0.14621035937499727,
            "durationTicks": 102,
            "midi": 40,
            "name": "E2",
            "ticks": 32254,
            "time": 45.65382113020834,
            "velocity": 0.8031496062992126
          },
          {
            "duration": 0.08887296354166807,
            "durationTicks": 62,
            "midi": 40,
            "name": "E2",
            "ticks": 32440,
            "time": 45.92044002083334,
            "velocity": 0.7874015748031497
          },
          {
            "duration": 0.10607418229166399,
            "durationTicks": 74,
            "midi": 40,
            "name": "E2",
            "ticks": 32544,
            "time": 46.069517250000004,
            "velocity": 0.7795275590551181
          },
          {
            "duration": 0.13760975000000286,
            "durationTicks": 96,
            "midi": 40,
            "name": "E2",
            "ticks": 32636,
            "time": 46.201393260416665,
            "velocity": 0.8110236220472441
          },
          {
            "duration": 0.14907722916667154,
            "durationTicks": 104,
            "midi": 40,
            "name": "E2",
            "ticks": 32828,
            "time": 46.47661276041667,
            "velocity": 0.7637795275590551
          },
          {
            "duration": 0.13187601041666142,
            "durationTicks": 92,
            "midi": 40,
            "name": "E2",
            "ticks": 33016,
            "time": 46.74609852083334,
            "velocity": 0.8267716535433071
          },
          {
            "duration": 0.1433434895833301,
            "durationTicks": 100,
            "midi": 40,
            "name": "E2",
            "ticks": 33208,
            "time": 47.02131802083334,
            "velocity": 0.7637795275590551
          },
          {
            "duration": 0.13187601041667563,
            "durationTicks": 92,
            "midi": 40,
            "name": "E2",
            "ticks": 33404,
            "time": 47.30227126041667,
            "velocity": 0.8346456692913385
          },
          {
            "duration": 0.13760975000000286,
            "durationTicks": 96,
            "midi": 40,
            "name": "E2",
            "ticks": 33592,
            "time": 47.57175702083334,
            "velocity": 0.8031496062992126
          },
          {
            "duration": 0.13187601041666142,
            "durationTicks": 92,
            "midi": 40,
            "name": "E2",
            "ticks": 33792,
            "time": 47.858444000000006,
            "velocity": 0.84251968503937
          },
          {
            "duration": 0.09460670312500241,
            "durationTicks": 66,
            "midi": 40,
            "name": "E2",
            "ticks": 33982,
            "time": 48.13079663020834,
            "velocity": 0.7322834645669292
          },
          {
            "duration": 0.11754166145833267,
            "durationTicks": 82,
            "midi": 40,
            "name": "E2",
            "ticks": 34074,
            "time": 48.262672640625006,
            "velocity": 0.8267716535433071
          },
          {
            "duration": 0.14047661979166293,
            "durationTicks": 98,
            "midi": 40,
            "name": "E2",
            "ticks": 34174,
            "time": 48.40601613020834,
            "velocity": 0.7480314960629921
          },
          {
            "duration": 0.15481096874999878,
            "durationTicks": 108,
            "midi": 40,
            "name": "E2",
            "ticks": 34362,
            "time": 48.67550189062501,
            "velocity": 0.7874015748031497
          },
          {
            "duration": 0.15767783854166595,
            "durationTicks": 110,
            "midi": 40,
            "name": "E2",
            "ticks": 34552,
            "time": 48.94785452083334,
            "velocity": 0.7874015748031497
          },
          {
            "duration": 0.15481096874999878,
            "durationTicks": 108,
            "midi": 40,
            "name": "E2",
            "ticks": 34748,
            "time": 49.22880776041667,
            "velocity": 0.8031496062992126
          },
          {
            "duration": 0.1519440989583245,
            "durationTicks": 106,
            "midi": 40,
            "name": "E2",
            "ticks": 34936,
            "time": 49.49829352083334,
            "velocity": 0.7874015748031497
          },
          {
            "duration": 0.14621035937499727,
            "durationTicks": 102,
            "midi": 40,
            "name": "E2",
            "ticks": 35134,
            "time": 49.78211363020834,
            "velocity": 0.8346456692913385
          },
          {
            "duration": 0.14621035937499727,
            "durationTicks": 102,
            "midi": 40,
            "name": "E2",
            "ticks": 35326,
            "time": 50.05733313020834,
            "velocity": 0.8031496062992126
          },
          {
            "duration": 0.08887296354166097,
            "durationTicks": 62,
            "midi": 40,
            "name": "E2",
            "ticks": 35518,
            "time": 50.33255263020834,
            "velocity": 0.7874015748031497
          },
          {
            "duration": 0.10607418229166399,
            "durationTicks": 74,
            "midi": 40,
            "name": "E2",
            "ticks": 35610,
            "time": 50.464428640625,
            "velocity": 0.7795275590551181
          },
          {
            "duration": 0.13760975000000286,
            "durationTicks": 96,
            "midi": 40,
            "name": "E2",
            "ticks": 35704,
            "time": 50.59917152083334,
            "velocity": 0.8110236220472441
          },
          {
            "duration": 0.14907722916666444,
            "durationTicks": 104,
            "midi": 40,
            "name": "E2",
            "ticks": 35902,
            "time": 50.88299163020834,
            "velocity": 0.7637795275590551
          },
          {
            "duration": 0.13187601041666142,
            "durationTicks": 92,
            "midi": 40,
            "name": "E2",
            "ticks": 36088,
            "time": 51.14961052083334,
            "velocity": 0.8267716535433071
          },
          {
            "duration": 0.1433434895833301,
            "durationTicks": 100,
            "midi": 40,
            "name": "E2",
            "ticks": 36286,
            "time": 51.43343063020834,
            "velocity": 0.7637795275590551
          },
          {
            "duration": 0.13187601041666142,
            "durationTicks": 92,
            "midi": 40,
            "name": "E2",
            "ticks": 36480,
            "time": 51.71151700000001,
            "velocity": 0.8346456692913385
          },
          {
            "duration": 0.13760975000000286,
            "durationTicks": 96,
            "midi": 40,
            "name": "E2",
            "ticks": 36664,
            "time": 51.97526902083334,
            "velocity": 0.8031496062992126
          },
          {
            "duration": 0.14047661979166293,
            "durationTicks": 98,
            "midi": 40,
            "name": "E2",
            "ticks": 36856,
            "time": 52.25048852083334,
            "velocity": 0.8346456692913385
          },
          {
            "duration": 0.10034044270833675,
            "durationTicks": 70,
            "midi": 40,
            "name": "E2",
            "ticks": 37052,
            "time": 52.53144176041667,
            "velocity": 0.7716535433070866
          },
          {
            "duration": 0.10894105208333826,
            "durationTicks": 76,
            "midi": 40,
            "name": "E2",
            "ticks": 37146,
            "time": 52.666184640625005,
            "velocity": 0.8267716535433071
          },
          {
            "duration": 0.1433434895833372,
            "durationTicks": 100,
            "midi": 40,
            "name": "E2",
            "ticks": 37248,
            "time": 52.812395,
            "velocity": 0.7952755905511811
          },
          {
            "duration": 0.14047661979166293,
            "durationTicks": 98,
            "midi": 40,
            "name": "E2",
            "ticks": 37438,
            "time": 53.08474763020834,
            "velocity": 0.7952755905511811
          },
          {
            "duration": 0.15481096874999878,
            "durationTicks": 108,
            "midi": 40,
            "name": "E2",
            "ticks": 37630,
            "time": 53.35996713020834,
            "velocity": 0.7716535433070866
          },
          {
            "duration": 0.15481096874999878,
            "durationTicks": 108,
            "midi": 40,
            "name": "E2",
            "ticks": 37824,
            "time": 53.638053500000005,
            "velocity": 0.8267716535433071
          },
          {
            "duration": 0.16054470833333312,
            "durationTicks": 112,
            "midi": 40,
            "name": "E2",
            "ticks": 38012,
            "time": 53.90753926041667,
            "velocity": 0.7874015748031497
          },
          {
            "duration": 0.1519440989583245,
            "durationTicks": 106,
            "midi": 40,
            "name": "E2",
            "ticks": 38206,
            "time": 54.18562563020834,
            "velocity": 0.8110236220472441
          },
          {
            "duration": 0.1720121875000018,
            "durationTicks": 120,
            "midi": 40,
            "name": "E2",
            "ticks": 38398,
            "time": 54.46084513020834,
            "velocity": 0.7637795275590551
          },
          {
            "duration": 0.0946067031249953,
            "durationTicks": 66,
            "midi": 40,
            "name": "E2",
            "ticks": 38592,
            "time": 54.73893150000001,
            "velocity": 0.8267716535433071
          },
          {
            "duration": 0.12900914062499425,
            "durationTicks": 90,
            "midi": 40,
            "name": "E2",
            "ticks": 38682,
            "time": 54.86794064062501,
            "velocity": 0.7952755905511811
          },
          {
            "duration": 0.12900914062500135,
            "durationTicks": 90,
            "midi": 40,
            "name": "E2",
            "ticks": 38778,
            "time": 55.005550390625004,
            "velocity": 0.8267716535433071
          },
          {
            "duration": 0.1433434895833372,
            "durationTicks": 100,
            "midi": 40,
            "name": "E2",
            "ticks": 38972,
            "time": 55.28363676041667,
            "velocity": 0.7952755905511811
          },
          {
            "duration": 0.14621035937500437,
            "durationTicks": 102,
            "midi": 40,
            "name": "E2",
            "ticks": 39162,
            "time": 55.555989390625,
            "velocity": 0.8110236220472441
          },
          {
            "duration": 0.15767783854167305,
            "durationTicks": 110,
            "midi": 40,
            "name": "E2",
            "ticks": 39356,
            "time": 55.83407576041667,
            "velocity": 0.7952755905511811
          },
          {
            "duration": 0.14621035937499727,
            "durationTicks": 102,
            "midi": 40,
            "name": "E2",
            "ticks": 39550,
            "time": 56.11216213020834,
            "velocity": 0.8110236220472441
          },
          {
            "duration": 0.1519440989583245,
            "durationTicks": 106,
            "midi": 40,
            "name": "E2",
            "ticks": 39736,
            "time": 56.378781020833344,
            "velocity": 0.7795275590551181
          },
          {
            "duration": 0.16341157812499318,
            "durationTicks": 114,
            "midi": 33,
            "name": "A1",
            "ticks": 39934,
            "time": 56.662601130208344,
            "velocity": 0.8031496062992126
          },
          {
            "duration": 0.11180792187499833,
            "durationTicks": 78,
            "midi": 33,
            "name": "A1",
            "ticks": 40126,
            "time": 56.93782063020834,
            "velocity": 0.7401574803149606
          },
          {
            "duration": 0.09747357291666248,
            "durationTicks": 68,
            "midi": 33,
            "name": "A1",
            "ticks": 40224,
            "time": 57.078297250000006,
            "velocity": 0.7874015748031497
          },
          {
            "duration": 0.13474288020832859,
            "durationTicks": 94,
            "midi": 33,
            "name": "A1",
            "ticks": 40312,
            "time": 57.20443952083334,
            "velocity": 0.7716535433070866
          },
          {
            "duration": 0.12900914062499425,
            "durationTicks": 90,
            "midi": 33,
            "name": "A1",
            "ticks": 40512,
            "time": 57.49112650000001,
            "velocity": 0.7874015748031497
          },
          {
            "duration": 0.14907722916666444,
            "durationTicks": 104,
            "midi": 33,
            "name": "A1",
            "ticks": 40696,
            "time": 57.75487852083334,
            "velocity": 0.7795275590551181
          },
          {
            "duration": 0.13474288020832859,
            "durationTicks": 94,
            "midi": 33,
            "name": "A1",
            "ticks": 40888,
            "time": 58.03009802083334,
            "velocity": 0.7952755905511811
          },
          {
            "duration": 0.14907722916667154,
            "durationTicks": 104,
            "midi": 33,
            "name": "A1",
            "ticks": 41084,
            "time": 58.31105126041667,
            "velocity": 0.7716535433070866
          },
          {
            "duration": 0.14621035937499727,
            "durationTicks": 102,
            "midi": 33,
            "name": "A1",
            "ticks": 41274,
            "time": 58.58340389062501,
            "velocity": 0.7874015748031497
          },
          {
            "duration": 0.1806127968749962,
            "durationTicks": 126,
            "midi": 33,
            "name": "A1",
            "ticks": 41472,
            "time": 58.86722400000001,
            "velocity": 0.7874015748031497
          },
          {
            "duration": 0.0860060937500009,
            "durationTicks": 60,
            "midi": 33,
            "name": "A1",
            "ticks": 41656,
            "time": 59.13097602083334,
            "velocity": 0.7637795275590551
          },
          {
            "duration": 0.10607418229166399,
            "durationTicks": 74,
            "midi": 33,
            "name": "A1",
            "ticks": 41752,
            "time": 59.26858577083334,
            "velocity": 0.7716535433070866
          },
          {
            "duration": 0.1146747916666726,
            "durationTicks": 80,
            "midi": 33,
            "name": "A1",
            "ticks": 41852,
            "time": 59.41192926041667,
            "velocity": 0.8031496062992126
          },
          {
            "duration": 0.1347428802083357,
            "durationTicks": 94,
            "midi": 33,
            "name": "A1",
            "ticks": 42042,
            "time": 59.684281890625,
            "velocity": 0.7637795275590551
          },
          {
            "duration": 0.14047661979167003,
            "durationTicks": 98,
            "midi": 33,
            "name": "A1",
            "ticks": 42236,
            "time": 59.96236826041667,
            "velocity": 0.8031496062992126
          },
          {
            "duration": 0.15767783854166595,
            "durationTicks": 110,
            "midi": 33,
            "name": "A1",
            "ticks": 42430,
            "time": 60.24045463020834,
            "velocity": 0.7874015748031497
          },
          {
            "duration": 0.14621035937499727,
            "durationTicks": 102,
            "midi": 33,
            "name": "A1",
            "ticks": 42618,
            "time": 60.509940390625005,
            "velocity": 0.8031496062992126
          },
          {
            "duration": 0.14907722916666444,
            "durationTicks": 104,
            "midi": 33,
            "name": "A1",
            "ticks": 42816,
            "time": 60.793760500000005,
            "velocity": 0.7480314960629921
          },
          {
            "duration": 0.18921340624999772,
            "durationTicks": 132,
            "midi": 40,
            "name": "E2",
            "ticks": 43006,
            "time": 61.06611313020834,
            "velocity": 0.8031496062992126
          },
          {
            "duration": 0.11180792187499833,
            "durationTicks": 78,
            "midi": 40,
            "name": "E2",
            "ticks": 43192,
            "time": 61.33273202083334,
            "velocity": 0.7874015748031497
          },
          {
            "duration": 0.09460670312500241,
            "durationTicks": 66,
            "midi": 40,
            "name": "E2",
            "ticks": 43296,
            "time": 61.481809250000005,
            "velocity": 0.8267716535433071
          },
          {
            "duration": 0.13474288020832859,
            "durationTicks": 94,
            "midi": 40,
            "name": "E2",
            "ticks": 43390,
            "time": 61.61655213020834,
            "velocity": 0.8267716535433071
          },
          {
            "duration": 0.12900914062500135,
            "durationTicks": 90,
            "midi": 40,
            "name": "E2",
            "ticks": 43582,
            "time": 61.89177163020834,
            "velocity": 0.8267716535433071
          },
          {
            "duration": 0.16054470833334022,
            "durationTicks": 112,
            "midi": 40,
            "name": "E2",
            "ticks": 43770,
            "time": 62.161257390625,
            "velocity": 0.8031496062992126
          },
          {
            "duration": 0.13760975000000286,
            "durationTicks": 96,
            "midi": 40,
            "name": "E2",
            "ticks": 43962,
            "time": 62.436476890625,
            "velocity": 0.8267716535433071
          },
          {
            "duration": 0.1519440989583316,
            "durationTicks": 106,
            "midi": 40,
            "name": "E2",
            "ticks": 44152,
            "time": 62.70882952083334,
            "velocity": 0.8110236220472441
          },
          {
            "duration": 0.1519440989583316,
            "durationTicks": 106,
            "midi": 40,
            "name": "E2",
            "ticks": 44350,
            "time": 62.99264963020834,
            "velocity": 0.8110236220472441
          },
          {
            "duration": 0.1720121874999947,
            "durationTicks": 120,
            "midi": 40,
            "name": "E2",
            "ticks": 44544,
            "time": 63.27073600000001,
            "velocity": 0.8110236220472441
          },
          {
            "duration": 0.08313922395832662,
            "durationTicks": 58,
            "midi": 40,
            "name": "E2",
            "ticks": 44728,
            "time": 63.534488020833344,
            "velocity": 0.8031496062992126
          },
          {
            "duration": 0.12040853124999984,
            "durationTicks": 84,
            "midi": 40,
            "name": "E2",
            "ticks": 44830,
            "time": 63.68069838020834,
            "velocity": 0.8031496062992126
          },
          {
            "duration": 0.11754166145833977,
            "durationTicks": 82,
            "midi": 40,
            "name": "E2",
            "ticks": 44928,
            "time": 63.821175000000004,
            "velocity": 0.8110236220472441
          },
          {
            "duration": 0.14047661979167003,
            "durationTicks": 98,
            "midi": 40,
            "name": "E2",
            "ticks": 45112,
            "time": 64.08492702083333,
            "velocity": 0.7952755905511811
          },
          {
            "duration": 0.12040853125000694,
            "durationTicks": 84,
            "midi": 40,
            "name": "E2",
            "ticks": 45310,
            "time": 64.36874713020833,
            "velocity": 0.8346456692913385
          },
          {
            "duration": 0.1519440989583387,
            "durationTicks": 106,
            "midi": 40,
            "name": "E2",
            "ticks": 45498,
            "time": 64.638232890625,
            "velocity": 0.7952755905511811
          },
          {
            "duration": 0.1433434895833301,
            "durationTicks": 100,
            "midi": 40,
            "name": "E2",
            "ticks": 45696,
            "time": 64.922053,
            "velocity": 0.8031496062992126
          },
          {
            "duration": 0.1433434895833443,
            "durationTicks": 100,
            "midi": 40,
            "name": "E2",
            "ticks": 45888,
            "time": 65.1972725,
            "velocity": 0.84251968503937
          },
          {
            "duration": 0.16627844791665325,
            "durationTicks": 116,
            "midi": 35,
            "name": "B1",
            "ticks": 46074,
            "time": 65.46389139062501,
            "velocity": 0.8267716535433071
          },
          {
            "duration": 0.09747357291665537,
            "durationTicks": 68,
            "midi": 35,
            "name": "B1",
            "ticks": 46264,
            "time": 65.73624402083334,
            "velocity": 0.7480314960629921
          },
          {
            "duration": 0.09460670312500952,
            "durationTicks": 66,
            "midi": 35,
            "name": "B1",
            "ticks": 46366,
            "time": 65.88245438020833,
            "velocity": 0.8110236220472441
          },
          {
            "duration": 0.13187601041666142,
            "durationTicks": 92,
            "midi": 35,
            "name": "B1",
            "ticks": 46464,
            "time": 66.022931,
            "velocity": 0.7874015748031497
          },
          {
            "duration": 0.13187601041666142,
            "durationTicks": 92,
            "midi": 35,
            "name": "B1",
            "ticks": 46648,
            "time": 66.28668302083334,
            "velocity": 0.7874015748031497
          },
          {
            "duration": 0.14907722916666444,
            "durationTicks": 104,
            "midi": 35,
            "name": "B1",
            "ticks": 46840,
            "time": 66.56190252083333,
            "velocity": 0.7637795275590551
          },
          {
            "duration": 0.1519440989583245,
            "durationTicks": 106,
            "midi": 35,
            "name": "B1",
            "ticks": 47040,
            "time": 66.8485895,
            "velocity": 0.8110236220472441
          },
          {
            "duration": 0.14621035937500437,
            "durationTicks": 102,
            "midi": 35,
            "name": "B1",
            "ticks": 47230,
            "time": 67.12094213020833,
            "velocity": 0.7165354330708661
          },
          {
            "duration": 0.14047661979167003,
            "durationTicks": 98,
            "midi": 33,
            "name": "A1",
            "ticks": 47418,
            "time": 67.39042789062499,
            "velocity": 0.8031496062992126
          },
          {
            "duration": 0.15481096874999878,
            "durationTicks": 108,
            "midi": 33,
            "name": "A1",
            "ticks": 47608,
            "time": 67.66278052083334,
            "velocity": 0.8110236220472441
          },
          {
            "duration": 0.16627844791665325,
            "durationTicks": 116,
            "midi": 33,
            "name": "A1",
            "ticks": 47802,
            "time": 67.940866890625,
            "velocity": 0.7952755905511811
          },
          {
            "duration": 0.1519440989583387,
            "durationTicks": 106,
            "midi": 33,
            "name": "A1",
            "ticks": 47994,
            "time": 68.216086390625,
            "velocity": 0.8031496062992126
          },
          {
            "duration": 0.16054470833333312,
            "durationTicks": 112,
            "midi": 33,
            "name": "A1",
            "ticks": 48192,
            "time": 68.4999065,
            "velocity": 0.7716535433070866
          },
          {
            "duration": 0.14907722916666444,
            "durationTicks": 104,
            "midi": 33,
            "name": "A1",
            "ticks": 48378,
            "time": 68.76652539062499,
            "velocity": 0.8110236220472441
          },
          {
            "duration": 0.15481096874999878,
            "durationTicks": 108,
            "midi": 33,
            "name": "A1",
            "ticks": 48568,
            "time": 69.03887802083334,
            "velocity": 0.7401574803149606
          },
          {
            "duration": 0.1433434895833301,
            "durationTicks": 100,
            "midi": 33,
            "name": "A1",
            "ticks": 48768,
            "time": 69.325565,
            "velocity": 0.8110236220472441
          },
          {
            "duration": 0.15767783854165884,
            "durationTicks": 110,
            "midi": 33,
            "name": "A1",
            "ticks": 48960,
            "time": 69.6007845,
            "velocity": 0.7795275590551181
          },
          {
            "duration": 0.16341157812499318,
            "durationTicks": 114,
            "midi": 40,
            "name": "E2",
            "ticks": 49150,
            "time": 69.87313713020833,
            "velocity": 0.8503937007874016
          },
          {
            "duration": 0.08887296354166097,
            "durationTicks": 62,
            "midi": 40,
            "name": "E2",
            "ticks": 49340,
            "time": 70.14548976041667,
            "velocity": 0.7795275590551181
          },
          {
            "duration": 0.09173983333332103,
            "durationTicks": 64,
            "midi": 40,
            "name": "E2",
            "ticks": 49438,
            "time": 70.28596638020834,
            "velocity": 0.8346456692913385
          },
          {
            "duration": 0.13760975000000997,
            "durationTicks": 96,
            "midi": 40,
            "name": "E2",
            "ticks": 49536,
            "time": 70.42644299999999,
            "velocity": 0.8031496062992126
          },
          {
            "duration": 0.1433434895833301,
            "durationTicks": 100,
            "midi": 40,
            "name": "E2",
            "ticks": 49726,
            "time": 70.69879563020834,
            "velocity": 0.8267716535433071
          },
          {
            "duration": 0.15767783854165884,
            "durationTicks": 110,
            "midi": 40,
            "name": "E2",
            "ticks": 49920,
            "time": 70.976882,
            "velocity": 0.8031496062992126
          },
          {
            "duration": 0.1519440989583387,
            "durationTicks": 106,
            "midi": 40,
            "name": "E2",
            "ticks": 50112,
            "time": 71.2521015,
            "velocity": 0.84251968503937
          },
          {
            "duration": 0.2551514114583284,
            "durationTicks": 178,
            "midi": 37,
            "name": "C#2",
            "ticks": 50304,
            "time": 71.527321,
            "velocity": 0.8031496062992126
          },
          {
            "duration": 0.24368393229165974,
            "durationTicks": 170,
            "midi": 35,
            "name": "B1",
            "ticks": 50490,
            "time": 71.793939890625,
            "velocity": 0.8267716535433071
          },
          {
            "duration": 0.24081706249999968,
            "durationTicks": 168,
            "midi": 28,
            "name": "E1",
            "ticks": 50680,
            "time": 72.06629252083333,
            "velocity": 0.8267716535433071
          },
          {
            "duration": 0.13187601041666142,
            "durationTicks": 92,
            "midi": 40,
            "name": "E2",
            "ticks": 52216,
            "time": 74.26804852083333,
            "velocity": 0.84251968503937
          },
          {
            "duration": 0.09460670312500952,
            "durationTicks": 66,
            "midi": 40,
            "name": "E2",
            "ticks": 52416,
            "time": 74.55473549999999,
            "velocity": 0.7322834645669292
          },
          {
            "duration": 0.11754166145831846,
            "durationTicks": 82,
            "midi": 40,
            "name": "E2",
            "ticks": 52512,
            "time": 74.69234525,
            "velocity": 0.8267716535433071
          },
          {
            "duration": 0.14047661979167003,
            "durationTicks": 98,
            "midi": 40,
            "name": "E2",
            "ticks": 52602,
            "time": 74.821354390625,
            "velocity": 0.7480314960629921
          },
          {
            "duration": 0.15481096874999878,
            "durationTicks": 108,
            "midi": 40,
            "name": "E2",
            "ticks": 52792,
            "time": 75.09370702083332,
            "velocity": 0.7874015748031497
          },
          {
            "duration": 0.15767783854167305,
            "durationTicks": 110,
            "midi": 40,
            "name": "E2",
            "ticks": 52986,
            "time": 75.371793390625,
            "velocity": 0.7874015748031497
          },
          {
            "duration": 0.15481096874999878,
            "durationTicks": 108,
            "midi": 40,
            "name": "E2",
            "ticks": 53184,
            "time": 75.6556135,
            "velocity": 0.8031496062992126
          },
          {
            "duration": 0.1519440989583387,
            "durationTicks": 106,
            "midi": 40,
            "name": "E2",
            "ticks": 53376,
            "time": 75.93083299999999,
            "velocity": 0.7874015748031497
          },
          {
            "duration": 0.14621035937500437,
            "durationTicks": 102,
            "midi": 40,
            "name": "E2",
            "ticks": 53568,
            "time": 76.2060525,
            "velocity": 0.8346456692913385
          },
          {
            "duration": 0.14621035937499016,
            "durationTicks": 102,
            "midi": 40,
            "name": "E2",
            "ticks": 53758,
            "time": 76.47840513020833,
            "velocity": 0.8031496062992126
          },
          {
            "duration": 0.08887296354167518,
            "durationTicks": 62,
            "midi": 40,
            "name": "E2",
            "ticks": 53946,
            "time": 76.747890890625,
            "velocity": 0.7874015748031497
          },
          {
            "duration": 0.10607418229164978,
            "durationTicks": 74,
            "midi": 40,
            "name": "E2",
            "ticks": 54044,
            "time": 76.88836751041667,
            "velocity": 0.7795275590551181
          },
          {
            "duration": 0.13760974999999576,
            "durationTicks": 96,
            "midi": 40,
            "name": "E2",
            "ticks": 54136,
            "time": 77.02024352083333,
            "velocity": 0.8110236220472441
          },
          {
            "duration": 0.14907722916667865,
            "durationTicks": 104,
            "midi": 40,
            "name": "E2",
            "ticks": 54328,
            "time": 77.29546302083332,
            "velocity": 0.7637795275590551
          },
          {
            "duration": 0.13187601041666142,
            "durationTicks": 92,
            "midi": 40,
            "name": "E2",
            "ticks": 54520,
            "time": 77.57068252083333,
            "velocity": 0.8267716535433071
          },
          {
            "duration": 0.1433434895833301,
            "durationTicks": 100,
            "midi": 40,
            "name": "E2",
            "ticks": 54716,
            "time": 77.85163576041667,
            "velocity": 0.7637795275590551
          },
          {
            "duration": 0.1318760104166472,
            "durationTicks": 92,
            "midi": 40,
            "name": "E2",
            "ticks": 54908,
            "time": 78.12685526041668,
            "velocity": 0.8346456692913385
          },
          {
            "duration": 0.13760974999999576,
            "durationTicks": 96,
            "midi": 40,
            "name": "E2",
            "ticks": 55096,
            "time": 78.39634102083333,
            "velocity": 0.8031496062992126
          },
          {
            "duration": 0.14047661979165582,
            "durationTicks": 98,
            "midi": 40,
            "name": "E2",
            "ticks": 55292,
            "time": 78.67729426041667,
            "velocity": 0.8346456692913385
          },
          {
            "duration": 0.10034044270832965,
            "durationTicks": 70,
            "midi": 40,
            "name": "E2",
            "ticks": 55488,
            "time": 78.9582475,
            "velocity": 0.7716535433070866
          },
          {
            "duration": 0.10894105208333826,
            "durationTicks": 76,
            "midi": 40,
            "name": "E2",
            "ticks": 55576,
            "time": 79.08438977083333,
            "velocity": 0.8267716535433071
          },
          {
            "duration": 0.1433434895833301,
            "durationTicks": 100,
            "midi": 40,
            "name": "E2",
            "ticks": 55674,
            "time": 79.224866390625,
            "velocity": 0.7952755905511811
          },
          {
            "duration": 0.14047661979167003,
            "durationTicks": 98,
            "midi": 40,
            "name": "E2",
            "ticks": 55864,
            "time": 79.49721902083333,
            "velocity": 0.7952755905511811
          },
          {
            "duration": 0.15481096874999878,
            "durationTicks": 108,
            "midi": 40,
            "name": "E2",
            "ticks": 56058,
            "time": 79.775305390625,
            "velocity": 0.7716535433070866
          },
          {
            "duration": 0.15481096874999878,
            "durationTicks": 108,
            "midi": 40,
            "name": "E2",
            "ticks": 56252,
            "time": 80.05339176041667,
            "velocity": 0.8267716535433071
          },
          {
            "duration": 0.16054470833333312,
            "durationTicks": 112,
            "midi": 40,
            "name": "E2",
            "ticks": 56444,
            "time": 80.32861126041666,
            "velocity": 0.7874015748031497
          },
          {
            "duration": 0.1519440989583245,
            "durationTicks": 106,
            "midi": 40,
            "name": "E2",
            "ticks": 56636,
            "time": 80.60383076041667,
            "velocity": 0.8110236220472441
          },
          {
            "duration": 0.1720121875000018,
            "durationTicks": 120,
            "midi": 40,
            "name": "E2",
            "ticks": 56832,
            "time": 80.884784,
            "velocity": 0.7637795275590551
          },
          {
            "duration": 0.0946067031249953,
            "durationTicks": 66,
            "midi": 40,
            "name": "E2",
            "ticks": 57022,
            "time": 81.15713663020833,
            "velocity": 0.8267716535433071
          },
          {
            "duration": 0.12900914062500135,
            "durationTicks": 90,
            "midi": 40,
            "name": "E2",
            "ticks": 57116,
            "time": 81.29187951041666,
            "velocity": 0.7952755905511811
          },
          {
            "duration": 0.12900914062500135,
            "durationTicks": 90,
            "midi": 40,
            "name": "E2",
            "ticks": 57210,
            "time": 81.426622390625,
            "velocity": 0.8267716535433071
          },
          {
            "duration": 0.1433434895833159,
            "durationTicks": 100,
            "midi": 40,
            "name": "E2",
            "ticks": 57402,
            "time": 81.701841890625,
            "velocity": 0.7952755905511811
          },
          {
            "duration": 0.14621035937500437,
            "durationTicks": 102,
            "midi": 40,
            "name": "E2",
            "ticks": 57596,
            "time": 81.97992826041667,
            "velocity": 0.8110236220472441
          },
          {
            "duration": 0.15767783854167305,
            "durationTicks": 110,
            "midi": 40,
            "name": "E2",
            "ticks": 57792,
            "time": 82.2608815,
            "velocity": 0.7952755905511811
          },
          {
            "duration": 0.14621035937500437,
            "durationTicks": 102,
            "midi": 40,
            "name": "E2",
            "ticks": 57982,
            "time": 82.53323413020833,
            "velocity": 0.8110236220472441
          },
          {
            "duration": 0.1519440989583245,
            "durationTicks": 106,
            "midi": 40,
            "name": "E2",
            "ticks": 58170,
            "time": 82.802719890625,
            "velocity": 0.7795275590551181
          },
          {
            "duration": 0.16341157812499318,
            "durationTicks": 114,
            "midi": 33,
            "name": "A1",
            "ticks": 58360,
            "time": 83.07507252083333,
            "velocity": 0.8031496062992126
          },
          {
            "duration": 0.11180792187499833,
            "durationTicks": 78,
            "midi": 33,
            "name": "A1",
            "ticks": 58556,
            "time": 83.35602576041667,
            "velocity": 0.7401574803149606
          },
          {
            "duration": 0.09747357291666958,
            "durationTicks": 68,
            "midi": 33,
            "name": "A1",
            "ticks": 58648,
            "time": 83.48790177083333,
            "velocity": 0.7874015748031497
          },
          {
            "duration": 0.1347428802083499,
            "durationTicks": 94,
            "midi": 33,
            "name": "A1",
            "ticks": 58750,
            "time": 83.63411213020832,
            "velocity": 0.7716535433070866
          },
          {
            "duration": 0.12900914062500135,
            "durationTicks": 90,
            "midi": 33,
            "name": "A1",
            "ticks": 58944,
            "time": 83.9121985,
            "velocity": 0.7874015748031497
          },
          {
            "duration": 0.14907722916665023,
            "durationTicks": 104,
            "midi": 33,
            "name": "A1",
            "ticks": 59132,
            "time": 84.18168426041667,
            "velocity": 0.7795275590551181
          },
          {
            "duration": 0.1347428802083499,
            "durationTicks": 94,
            "midi": 33,
            "name": "A1",
            "ticks": 59326,
            "time": 84.45977063020833,
            "velocity": 0.7952755905511811
          },
          {
            "duration": 0.14907722916667865,
            "durationTicks": 104,
            "midi": 33,
            "name": "A1",
            "ticks": 59520,
            "time": 84.73785699999999,
            "velocity": 0.7716535433070866
          },
          {
            "duration": 0.14621035937499016,
            "durationTicks": 102,
            "midi": 33,
            "name": "A1",
            "ticks": 59708,
            "time": 85.00734276041668,
            "velocity": 0.7874015748031497
          },
          {
            "duration": 0.18061279687501042,
            "durationTicks": 126,
            "midi": 33,
            "name": "A1",
            "ticks": 59898,
            "time": 85.279695390625,
            "velocity": 0.7874015748031497
          },
          {
            "duration": 0.0860060937500009,
            "durationTicks": 60,
            "midi": 33,
            "name": "A1",
            "ticks": 60090,
            "time": 85.554914890625,
            "velocity": 0.7637795275590551
          },
          {
            "duration": 0.10607418229164978,
            "durationTicks": 74,
            "midi": 33,
            "name": "A1",
            "ticks": 60188,
            "time": 85.69539151041667,
            "velocity": 0.7716535433070866
          },
          {
            "duration": 0.1146747916666726,
            "durationTicks": 80,
            "midi": 33,
            "name": "A1",
            "ticks": 60288,
            "time": 85.838735,
            "velocity": 0.8031496062992126
          },
          {
            "duration": 0.13474288020832148,
            "durationTicks": 94,
            "midi": 33,
            "name": "A1",
            "ticks": 60476,
            "time": 86.10822076041667,
            "velocity": 0.7637795275590551
          },
          {
            "duration": 0.14047661979167003,
            "durationTicks": 98,
            "midi": 33,
            "name": "A1",
            "ticks": 60664,
            "time": 86.37770652083333,
            "velocity": 0.8031496062992126
          },
          {
            "duration": 0.15767783854167305,
            "durationTicks": 110,
            "midi": 33,
            "name": "A1",
            "ticks": 60862,
            "time": 86.66152663020833,
            "velocity": 0.7874015748031497
          },
          {
            "duration": 0.14621035937499016,
            "durationTicks": 102,
            "midi": 33,
            "name": "A1",
            "ticks": 61052,
            "time": 86.93387926041667,
            "velocity": 0.8031496062992126
          },
          {
            "duration": 0.14907722916666444,
            "durationTicks": 104,
            "midi": 33,
            "name": "A1",
            "ticks": 61248,
            "time": 87.2148325,
            "velocity": 0.7480314960629921
          },
          {
            "duration": 0.18921340625000482,
            "durationTicks": 132,
            "midi": 40,
            "name": "E2",
            "ticks": 61432,
            "time": 87.47858452083332,
            "velocity": 0.8031496062992126
          },
          {
            "duration": 0.11180792187499833,
            "durationTicks": 78,
            "midi": 40,
            "name": "E2",
            "ticks": 61626,
            "time": 87.756670890625,
            "velocity": 0.7874015748031497
          },
          {
            "duration": 0.0946067031249953,
            "durationTicks": 66,
            "midi": 40,
            "name": "E2",
            "ticks": 61720,
            "time": 87.89141377083332,
            "velocity": 0.8267716535433071
          },
          {
            "duration": 0.1347428802083357,
            "durationTicks": 94,
            "midi": 40,
            "name": "E2",
            "ticks": 61822,
            "time": 88.03762413020833,
            "velocity": 0.8267716535433071
          },
          {
            "duration": 0.12900914062500135,
            "durationTicks": 90,
            "midi": 40,
            "name": "E2",
            "ticks": 62016,
            "time": 88.3157105,
            "velocity": 0.8267716535433071
          },
          {
            "duration": 0.16054470833333312,
            "durationTicks": 112,
            "midi": 40,
            "name": "E2",
            "ticks": 62208,
            "time": 88.59093,
            "velocity": 0.8031496062992126
          },
          {
            "duration": 0.13760975000000997,
            "durationTicks": 96,
            "midi": 40,
            "name": "E2",
            "ticks": 62400,
            "time": 88.86614949999999,
            "velocity": 0.8267716535433071
          },
          {
            "duration": 0.1519440989583387,
            "durationTicks": 106,
            "midi": 40,
            "name": "E2",
            "ticks": 62588,
            "time": 89.13563526041666,
            "velocity": 0.8110236220472441
          },
          {
            "duration": 0.1519440989583245,
            "durationTicks": 106,
            "midi": 40,
            "name": "E2",
            "ticks": 62780,
            "time": 89.41085476041667,
            "velocity": 0.8110236220472441
          },
          {
            "duration": 0.1720121875000018,
            "durationTicks": 120,
            "midi": 40,
            "name": "E2",
            "ticks": 62976,
            "time": 89.691808,
            "velocity": 0.8110236220472441
          },
          {
            "duration": 0.08313922395834084,
            "durationTicks": 58,
            "midi": 40,
            "name": "E2",
            "ticks": 63166,
            "time": 89.96416063020833,
            "velocity": 0.8031496062992126
          },
          {
            "duration": 0.12040853124999273,
            "durationTicks": 84,
            "midi": 40,
            "name": "E2",
            "ticks": 63258,
            "time": 90.096036640625,
            "velocity": 0.8031496062992126
          },
          {
            "duration": 0.11754166145833267,
            "durationTicks": 82,
            "midi": 40,
            "name": "E2",
            "ticks": 63354,
            "time": 90.233646390625,
            "velocity": 0.8110236220472441
          },
          {
            "duration": 0.14047661979167003,
            "durationTicks": 98,
            "midi": 40,
            "name": "E2",
            "ticks": 63546,
            "time": 90.508865890625,
            "velocity": 0.7952755905511811
          },
          {
            "duration": 0.12040853125000694,
            "durationTicks": 84,
            "midi": 40,
            "name": "E2",
            "ticks": 63738,
            "time": 90.784085390625,
            "velocity": 0.8346456692913385
          },
          {
            "duration": 0.1519440989583245,
            "durationTicks": 106,
            "midi": 40,
            "name": "E2",
            "ticks": 63936,
            "time": 91.0679055,
            "velocity": 0.7952755905511811
          },
          {
            "duration": 0.1433434895833301,
            "durationTicks": 100,
            "midi": 40,
            "name": "E2",
            "ticks": 64128,
            "time": 91.343125,
            "velocity": 0.8031496062992126
          },
          {
            "duration": 0.1433434895833301,
            "durationTicks": 100,
            "midi": 40,
            "name": "E2",
            "ticks": 64316,
            "time": 91.61261076041667,
            "velocity": 0.84251968503937
          },
          {
            "duration": 0.16627844791666746,
            "durationTicks": 116,
            "midi": 35,
            "name": "B1",
            "ticks": 64506,
            "time": 91.884963390625,
            "velocity": 0.8267716535433071
          },
          {
            "duration": 0.09747357291666958,
            "durationTicks": 68,
            "midi": 35,
            "name": "B1",
            "ticks": 64698,
            "time": 92.160182890625,
            "velocity": 0.7480314960629921
          },
          {
            "duration": 0.0946067031249953,
            "durationTicks": 66,
            "midi": 35,
            "name": "B1",
            "ticks": 64800,
            "time": 92.30639325,
            "velocity": 0.8110236220472441
          },
          {
            "duration": 0.13187601041667563,
            "durationTicks": 92,
            "midi": 35,
            "name": "B1",
            "ticks": 64894,
            "time": 92.44113613020832,
            "velocity": 0.7874015748031497
          },
          {
            "duration": 0.13187601041666142,
            "durationTicks": 92,
            "midi": 35,
            "name": "B1",
            "ticks": 65084,
            "time": 92.71348876041667,
            "velocity": 0.7874015748031497
          },
          {
            "duration": 0.14907722916667865,
            "durationTicks": 104,
            "midi": 35,
            "name": "B1",
            "ticks": 65280,
            "time": 92.99444199999999,
            "velocity": 0.7637795275590551
          },
          {
            "duration": 0.1519440989583245,
            "durationTicks": 106,
            "midi": 35,
            "name": "B1",
            "ticks": 65472,
            "time": 93.2696615,
            "velocity": 0.8110236220472441
          },
          {
            "duration": 0.14621035937500437,
            "durationTicks": 102,
            "midi": 35,
            "name": "B1",
            "ticks": 65660,
            "time": 93.53914726041667,
            "velocity": 0.7165354330708661
          },
          {
            "duration": 0.14047661979167003,
            "durationTicks": 98,
            "midi": 33,
            "name": "A1",
            "ticks": 65856,
            "time": 93.8201005,
            "velocity": 0.8031496062992126
          },
          {
            "duration": 0.15481096874999878,
            "durationTicks": 108,
            "midi": 33,
            "name": "A1",
            "ticks": 66048,
            "time": 94.09532,
            "velocity": 0.8110236220472441
          },
          {
            "duration": 0.16627844791668167,
            "durationTicks": 116,
            "midi": 33,
            "name": "A1",
            "ticks": 66240,
            "time": 94.37053949999999,
            "velocity": 0.7952755905511811
          },
          {
            "duration": 0.1519440989583387,
            "durationTicks": 106,
            "midi": 33,
            "name": "A1",
            "ticks": 66428,
            "time": 94.64002526041666,
            "velocity": 0.8031496062992126
          },
          {
            "duration": 0.16054470833334733,
            "durationTicks": 112,
            "midi": 33,
            "name": "A1",
            "ticks": 66616,
            "time": 94.90951102083332,
            "velocity": 0.7716535433070866
          },
          {
            "duration": 0.14907722916665023,
            "durationTicks": 104,
            "midi": 33,
            "name": "A1",
            "ticks": 66812,
            "time": 95.19046426041668,
            "velocity": 0.8110236220472441
          },
          {
            "duration": 0.15481096874999878,
            "durationTicks": 108,
            "midi": 33,
            "name": "A1",
            "ticks": 67004,
            "time": 95.46568376041667,
            "velocity": 0.7401574803149606
          },
          {
            "duration": 0.1433434895833301,
            "durationTicks": 100,
            "midi": 33,
            "name": "A1",
            "ticks": 67200,
            "time": 95.74663699999999,
            "velocity": 0.8110236220472441
          },
          {
            "duration": 0.15767783854167305,
            "durationTicks": 110,
            "midi": 33,
            "name": "A1",
            "ticks": 67390,
            "time": 96.01898963020832,
            "velocity": 0.7795275590551181
          },
          {
            "duration": 0.1634115781250074,
            "durationTicks": 114,
            "midi": 40,
            "name": "E2",
            "ticks": 67578,
            "time": 96.288475390625,
            "velocity": 0.8503937007874016
          },
          {
            "duration": 0.08887296354167518,
            "durationTicks": 62,
            "midi": 40,
            "name": "E2",
            "ticks": 67774,
            "time": 96.56942863020832,
            "velocity": 0.7795275590551181
          },
          {
            "duration": 0.09173983333333524,
            "durationTicks": 64,
            "midi": 40,
            "name": "E2",
            "ticks": 67866,
            "time": 96.701304640625,
            "velocity": 0.8346456692913385
          },
          {
            "duration": 0.13760974999999576,
            "durationTicks": 96,
            "midi": 40,
            "name": "E2",
            "ticks": 67968,
            "time": 96.847515,
            "velocity": 0.8031496062992126
          },
          {
            "duration": 0.1433434895833301,
            "durationTicks": 100,
            "midi": 40,
            "name": "E2",
            "ticks": 68156,
            "time": 97.11700076041667,
            "velocity": 0.8267716535433071
          },
          {
            "duration": 0.15767783854167305,
            "durationTicks": 110,
            "midi": 40,
            "name": "E2",
            "ticks": 68350,
            "time": 97.39508713020832,
            "velocity": 0.8031496062992126
          },
          {
            "duration": 0.1519440989583245,
            "durationTicks": 106,
            "midi": 40,
            "name": "E2",
            "ticks": 68544,
            "time": 97.6731735,
            "velocity": 0.84251968503937
          },
          {
            "duration": 0.2551514114583284,
            "durationTicks": 178,
            "midi": 37,
            "name": "C#2",
            "ticks": 68730,
            "time": 97.939792390625,
            "velocity": 0.8031496062992126
          },
          {
            "duration": 0.24368393229165974,
            "durationTicks": 170,
            "midi": 35,
            "name": "B1",
            "ticks": 68920,
            "time": 98.21214502083333,
            "velocity": 0.8267716535433071
          },
          {
            "duration": 0.1347428802083357,
            "durationTicks": 94,
            "midi": 40,
            "name": "E2",
            "ticks": 69118,
            "time": 98.49596513020833,
            "velocity": 0.8661417322834646
          },
          {
            "duration": 0.16627844791666746,
            "durationTicks": 116,
            "midi": 40,
            "name": "E2",
            "ticks": 69306,
            "time": 98.765450890625,
            "velocity": 0.84251968503937
          },
          {
            "duration": 0.15767783854167305,
            "durationTicks": 110,
            "midi": 44,
            "name": "G#2",
            "ticks": 69496,
            "time": 99.03780352083332,
            "velocity": 0.8503937007874016
          },
          {
            "duration": 0.14621035937500437,
            "durationTicks": 102,
            "midi": 44,
            "name": "G#2",
            "ticks": 69688,
            "time": 99.31302302083333,
            "velocity": 0.84251968503937
          },
          {
            "duration": 0.1605447083333189,
            "durationTicks": 112,
            "midi": 47,
            "name": "B2",
            "ticks": 69888,
            "time": 99.59971,
            "velocity": 0.889763779527559
          },
          {
            "duration": 0.1720121875000018,
            "durationTicks": 120,
            "midi": 47,
            "name": "B2",
            "ticks": 70072,
            "time": 99.86346202083332,
            "velocity": 0.889763779527559
          },
          {
            "duration": 0.16914531770832752,
            "durationTicks": 118,
            "midi": 44,
            "name": "G#2",
            "ticks": 70268,
            "time": 100.14441526041666,
            "velocity": 0.84251968503937
          },
          {
            "duration": 0.2006808854166735,
            "durationTicks": 140,
            "midi": 44,
            "name": "G#2",
            "ticks": 70462,
            "time": 100.42250163020833,
            "velocity": 0.8346456692913385
          },
          {
            "duration": 0.17774592708333614,
            "durationTicks": 124,
            "midi": 35,
            "name": "B1",
            "ticks": 70656,
            "time": 100.700588,
            "velocity": 0.84251968503937
          },
          {
            "duration": 0.16914531770834174,
            "durationTicks": 118,
            "midi": 35,
            "name": "B1",
            "ticks": 70846,
            "time": 100.97294063020833,
            "velocity": 0.7952755905511811
          },
          {
            "duration": 0.16341157812499318,
            "durationTicks": 114,
            "midi": 35,
            "name": "B1",
            "ticks": 71038,
            "time": 101.24816013020833,
            "velocity": 0.8110236220472441
          },
          {
            "duration": 0.1892134062499906,
            "durationTicks": 132,
            "midi": 35,
            "name": "B1",
            "ticks": 71226,
            "time": 101.517645890625,
            "velocity": 0.7795275590551181
          },
          {
            "duration": 0.1806127968749962,
            "durationTicks": 126,
            "midi": 35,
            "name": "B1",
            "ticks": 71420,
            "time": 101.79573226041667,
            "velocity": 0.7952755905511811
          },
          {
            "duration": 0.18347966666665627,
            "durationTicks": 128,
            "midi": 35,
            "name": "B1",
            "ticks": 71612,
            "time": 102.07095176041668,
            "velocity": 0.7795275590551181
          },
          {
            "duration": 0.16627844791666746,
            "durationTicks": 116,
            "midi": 35,
            "name": "B1",
            "ticks": 71806,
            "time": 102.34903813020833,
            "velocity": 0.8110236220472441
          },
          {
            "duration": 0.1892134062499906,
            "durationTicks": 132,
            "midi": 35,
            "name": "B1",
            "ticks": 71998,
            "time": 102.62425763020833,
            "velocity": 0.7874015748031497
          },
          {
            "duration": 0.17487905729166187,
            "durationTicks": 122,
            "midi": 33,
            "name": "A1",
            "ticks": 72186,
            "time": 102.893743390625,
            "velocity": 0.8346456692913385
          },
          {
            "duration": 0.18921340625000482,
            "durationTicks": 132,
            "midi": 33,
            "name": "A1",
            "ticks": 72378,
            "time": 103.168962890625,
            "velocity": 0.7637795275590551
          },
          {
            "duration": 0.1720121875000018,
            "durationTicks": 120,
            "midi": 33,
            "name": "A1",
            "ticks": 72574,
            "time": 103.44991613020832,
            "velocity": 0.8267716535433071
          },
          {
            "duration": 0.16914531770834174,
            "durationTicks": 118,
            "midi": 33,
            "name": "A1",
            "ticks": 72766,
            "time": 103.72513563020833,
            "velocity": 0.7952755905511811
          },
          {
            "duration": 0.16054470833333312,
            "durationTicks": 112,
            "midi": 33,
            "name": "A1",
            "ticks": 72954,
            "time": 103.994621390625,
            "velocity": 0.8267716535433071
          },
          {
            "duration": 0.16914531770834174,
            "durationTicks": 118,
            "midi": 33,
            "name": "A1",
            "ticks": 73144,
            "time": 104.26697402083333,
            "velocity": 0.7874015748031497
          },
          {
            "duration": 0.15767783854167305,
            "durationTicks": 110,
            "midi": 33,
            "name": "A1",
            "ticks": 73336,
            "time": 104.54219352083332,
            "velocity": 0.8110236220472441
          },
          {
            "duration": 0.1634115781250074,
            "durationTicks": 114,
            "midi": 33,
            "name": "A1",
            "ticks": 73534,
            "time": 104.82601363020832,
            "velocity": 0.7716535433070866
          },
          {
            "duration": 0.15767783854167305,
            "durationTicks": 110,
            "midi": 35,
            "name": "B1",
            "ticks": 73726,
            "time": 105.10123313020833,
            "velocity": 0.8110236220472441
          },
          {
            "duration": 0.1720121875000018,
            "durationTicks": 120,
            "midi": 35,
            "name": "B1",
            "ticks": 73912,
            "time": 105.36785202083333,
            "velocity": 0.7874015748031497
          },
          {
            "duration": 0.16054470833333312,
            "durationTicks": 112,
            "midi": 35,
            "name": "B1",
            "ticks": 74104,
            "time": 105.64307152083333,
            "velocity": 0.8031496062992126
          },
          {
            "duration": 0.17487905729167608,
            "durationTicks": 122,
            "midi": 35,
            "name": "B1",
            "ticks": 74298,
            "time": 105.921157890625,
            "velocity": 0.7480314960629921
          },
          {
            "duration": 0.16341157812499318,
            "durationTicks": 114,
            "midi": 35,
            "name": "B1",
            "ticks": 74490,
            "time": 106.196377390625,
            "velocity": 0.8110236220472441
          },
          {
            "duration": 0.17774592708333614,
            "durationTicks": 124,
            "midi": 35,
            "name": "B1",
            "ticks": 74686,
            "time": 106.47733063020833,
            "velocity": 0.7244094488188977
          },
          {
            "duration": 0.17774592708332193,
            "durationTicks": 124,
            "midi": 35,
            "name": "B1",
            "ticks": 74876,
            "time": 106.74968326041667,
            "velocity": 0.8031496062992126
          },
          {
            "duration": 0.16627844791666746,
            "durationTicks": 116,
            "midi": 35,
            "name": "B1",
            "ticks": 75070,
            "time": 107.02776963020833,
            "velocity": 0.7874015748031497
          },
          {
            "duration": 0.15767783854167305,
            "durationTicks": 110,
            "midi": 33,
            "name": "A1",
            "ticks": 75256,
            "time": 107.29438852083332,
            "velocity": 0.8267716535433071
          },
          {
            "duration": 0.17774592708335035,
            "durationTicks": 124,
            "midi": 33,
            "name": "A1",
            "ticks": 75454,
            "time": 107.57820863020832,
            "velocity": 0.7874015748031497
          },
          {
            "duration": 0.14907722916667865,
            "durationTicks": 104,
            "midi": 33,
            "name": "A1",
            "ticks": 75640,
            "time": 107.84482752083332,
            "velocity": 0.8110236220472441
          },
          {
            "duration": 0.1634115781250074,
            "durationTicks": 114,
            "midi": 33,
            "name": "A1",
            "ticks": 75838,
            "time": 108.12864763020832,
            "velocity": 0.7716535433070866
          },
          {
            "duration": 0.16054470833333312,
            "durationTicks": 112,
            "midi": 33,
            "name": "A1",
            "ticks": 76028,
            "time": 108.40100026041667,
            "velocity": 0.8267716535433071
          },
          {
            "duration": 0.17487905729167608,
            "durationTicks": 122,
            "midi": 33,
            "name": "A1",
            "ticks": 76216,
            "time": 108.67048602083332,
            "velocity": 0.7637795275590551
          },
          {
            "duration": 0.15481096874999878,
            "durationTicks": 108,
            "midi": 33,
            "name": "A1",
            "ticks": 76408,
            "time": 108.94570552083333,
            "velocity": 0.8110236220472441
          },
          {
            "duration": 0.1720121875000018,
            "durationTicks": 120,
            "midi": 33,
            "name": "A1",
            "ticks": 76604,
            "time": 109.22665876041667,
            "velocity": 0.7952755905511811
          },
          {
            "duration": 0.16627844791668167,
            "durationTicks": 116,
            "midi": 37,
            "name": "C#2",
            "ticks": 76798,
            "time": 109.50474513020832,
            "velocity": 0.84251968503937
          },
          {
            "duration": 0.16054470833333312,
            "durationTicks": 112,
            "midi": 37,
            "name": "C#2",
            "ticks": 76988,
            "time": 109.77709776041667,
            "velocity": 0.8346456692913385
          },
          {
            "duration": 0.1433434895833443,
            "durationTicks": 100,
            "midi": 37,
            "name": "C#2",
            "ticks": 77176,
            "time": 110.04658352083332,
            "velocity": 0.8503937007874016
          },
          {
            "duration": 0.15481096874999878,
            "durationTicks": 108,
            "midi": 37,
            "name": "C#2",
            "ticks": 77370,
            "time": 110.324669890625,
            "velocity": 0.8267716535433071
          },
          {
            "duration": 0.14047661979167003,
            "durationTicks": 98,
            "midi": 37,
            "name": "C#2",
            "ticks": 77562,
            "time": 110.599889390625,
            "velocity": 0.8267716535433071
          },
          {
            "duration": 0.15194409895835292,
            "durationTicks": 106,
            "midi": 37,
            "name": "C#2",
            "ticks": 77758,
            "time": 110.88084263020832,
            "velocity": 0.8503937007874016
          },
          {
            "duration": 0.13187601041666142,
            "durationTicks": 92,
            "midi": 37,
            "name": "C#2",
            "ticks": 77944,
            "time": 111.14746152083333,
            "velocity": 0.8503937007874016
          },
          {
            "duration": 0.15767783854167305,
            "durationTicks": 110,
            "midi": 37,
            "name": "C#2",
            "ticks": 78144,
            "time": 111.43414849999999,
            "velocity": 0.8267716535433071
          },
          {
            "duration": 0.14621035937500437,
            "durationTicks": 102,
            "midi": 30,
            "name": "F#1",
            "ticks": 78334,
            "time": 111.70650113020832,
            "velocity": 0.8110236220472441
          },
          {
            "duration": 0.14907722916666444,
            "durationTicks": 104,
            "midi": 30,
            "name": "F#1",
            "ticks": 78526,
            "time": 111.98172063020833,
            "velocity": 0.8110236220472441
          },
          {
            "duration": 0.16054470833334733,
            "durationTicks": 112,
            "midi": 30,
            "name": "F#1",
            "ticks": 78718,
            "time": 112.25694013020832,
            "velocity": 0.7952755905511811
          },
          {
            "duration": 0.14621035937500437,
            "durationTicks": 102,
            "midi": 30,
            "name": "F#1",
            "ticks": 78906,
            "time": 112.52642589062499,
            "velocity": 0.8031496062992126
          },
          {
            "duration": 0.16627844791665325,
            "durationTicks": 116,
            "midi": 30,
            "name": "F#1",
            "ticks": 79100,
            "time": 112.80451226041667,
            "velocity": 0.7874015748031497
          },
          {
            "duration": 0.14047661979167003,
            "durationTicks": 98,
            "midi": 30,
            "name": "F#1",
            "ticks": 79288,
            "time": 113.07399802083333,
            "velocity": 0.8346456692913385
          },
          {
            "duration": 0.1634115781250074,
            "durationTicks": 114,
            "midi": 30,
            "name": "F#1",
            "ticks": 79484,
            "time": 113.35495126041667,
            "velocity": 0.7874015748031497
          },
          {
            "duration": 0.1519440989583387,
            "durationTicks": 106,
            "midi": 30,
            "name": "F#1",
            "ticks": 79680,
            "time": 113.6359045,
            "velocity": 0.8267716535433071
          },
          {
            "duration": 0.16914531770834174,
            "durationTicks": 118,
            "midi": 33,
            "name": "A1",
            "ticks": 79864,
            "time": 113.89965652083333,
            "velocity": 0.8110236220472441
          },
          {
            "duration": 0.14907722916666444,
            "durationTicks": 104,
            "midi": 33,
            "name": "A1",
            "ticks": 80062,
            "time": 114.18347663020833,
            "velocity": 0.8267716535433071
          },
          {
            "duration": 0.14621035937500437,
            "durationTicks": 102,
            "midi": 33,
            "name": "A1",
            "ticks": 80248,
            "time": 114.45009552083333,
            "velocity": 0.7874015748031497
          },
          {
            "duration": 0.14047661979165582,
            "durationTicks": 98,
            "midi": 33,
            "name": "A1",
            "ticks": 80444,
            "time": 114.73104876041667,
            "velocity": 0.8110236220472441
          },
          {
            "duration": 0.14621035937500437,
            "durationTicks": 102,
            "midi": 35,
            "name": "B1",
            "ticks": 80638,
            "time": 115.00913513020832,
            "velocity": 0.8267716535433071
          },
          {
            "duration": 0.16054470833333312,
            "durationTicks": 112,
            "midi": 35,
            "name": "B1",
            "ticks": 80824,
            "time": 115.27575402083333,
            "velocity": 0.7086614173228346
          },
          {
            "duration": 0.13760975000000997,
            "durationTicks": 96,
            "midi": 35,
            "name": "B1",
            "ticks": 81024,
            "time": 115.56244099999999,
            "velocity": 0.8031496062992126
          },
          {
            "duration": 0.16054470833334733,
            "durationTicks": 112,
            "midi": 35,
            "name": "B1",
            "ticks": 81208,
            "time": 115.82619302083333,
            "velocity": 0.7874015748031497
          },
          {
            "duration": 0.14907722916667865,
            "durationTicks": 104,
            "midi": 37,
            "name": "C#2",
            "ticks": 81400,
            "time": 116.10141252083332,
            "velocity": 0.8267716535433071
          },
          {
            "duration": 0.1519440989583245,
            "durationTicks": 106,
            "midi": 37,
            "name": "C#2",
            "ticks": 81594,
            "time": 116.379498890625,
            "velocity": 0.8267716535433071
          },
          {
            "duration": 0.15767783854165884,
            "durationTicks": 110,
            "midi": 37,
            "name": "C#2",
            "ticks": 81788,
            "time": 116.65758526041667,
            "velocity": 0.8346456692913385
          },
          {
            "duration": 0.1433434895833301,
            "durationTicks": 100,
            "midi": 37,
            "name": "C#2",
            "ticks": 81980,
            "time": 116.93280476041667,
            "velocity": 0.8267716535433071
          },
          {
            "duration": 0.16341157812499318,
            "durationTicks": 114,
            "midi": 37,
            "name": "C#2",
            "ticks": 82170,
            "time": 117.205157390625,
            "velocity": 0.8267716535433071
          },
          {
            "duration": 0.16054470833333312,
            "durationTicks": 112,
            "midi": 37,
            "name": "C#2",
            "ticks": 82364,
            "time": 117.48324376041667,
            "velocity": 0.8110236220472441
          },
          {
            "duration": 0.15194409895835292,
            "durationTicks": 106,
            "midi": 35,
            "name": "B1",
            "ticks": 82558,
            "time": 117.76133013020832,
            "velocity": 0.8503937007874016
          },
          {
            "duration": 0.154810968750013,
            "durationTicks": 108,
            "midi": 35,
            "name": "B1",
            "ticks": 82746,
            "time": 118.030815890625,
            "velocity": 0.7874015748031497
          },
          {
            "duration": 0.12614227083332707,
            "durationTicks": 88,
            "midi": 33,
            "name": "A1",
            "ticks": 82938,
            "time": 118.306035390625,
            "velocity": 0.8346456692913385
          },
          {
            "duration": 0.14907722916667865,
            "durationTicks": 104,
            "midi": 33,
            "name": "A1",
            "ticks": 83136,
            "time": 118.5898555,
            "velocity": 0.7874015748031497
          },
          {
            "duration": 0.1347428802083357,
            "durationTicks": 94,
            "midi": 33,
            "name": "A1",
            "ticks": 83324,
            "time": 118.85934126041667,
            "velocity": 0.8031496062992126
          },
          {
            "duration": 0.15194409895835292,
            "durationTicks": 106,
            "midi": 33,
            "name": "A1",
            "ticks": 83518,
            "time": 119.13742763020832,
            "velocity": 0.7480314960629921
          },
          {
            "duration": 0.14047661979167003,
            "durationTicks": 98,
            "midi": 35,
            "name": "B1",
            "ticks": 83704,
            "time": 119.40404652083333,
            "velocity": 0.8346456692913385
          },
          {
            "duration": 0.16054470833333312,
            "durationTicks": 112,
            "midi": 35,
            "name": "B1",
            "ticks": 83898,
            "time": 119.682132890625,
            "velocity": 0.7401574803149606
          },
          {
            "duration": 0.13760975000000997,
            "durationTicks": 96,
            "midi": 35,
            "name": "B1",
            "ticks": 84092,
            "time": 119.96021926041666,
            "velocity": 0.8031496062992126
          },
          {
            "duration": 0.16627844791666746,
            "durationTicks": 116,
            "midi": 35,
            "name": "B1",
            "ticks": 84288,
            "time": 120.2411725,
            "velocity": 0.7322834645669292
          },
          {
            "duration": 0.1232754010416528,
            "durationTicks": 86,
            "midi": 37,
            "name": "C#2",
            "ticks": 84476,
            "time": 120.51065826041668,
            "velocity": 0.8267716535433071
          },
          {
            "duration": 0.15767783854165884,
            "durationTicks": 110,
            "midi": 37,
            "name": "C#2",
            "ticks": 84668,
            "time": 120.78587776041667,
            "velocity": 0.8110236220472441
          },
          {
            "duration": 0.12327540104166701,
            "durationTicks": 86,
            "midi": 37,
            "name": "C#2",
            "ticks": 84858,
            "time": 121.058230390625,
            "velocity": 0.8267716535433071
          },
          {
            "duration": 0.15481096874999878,
            "durationTicks": 108,
            "midi": 37,
            "name": "C#2",
            "ticks": 85054,
            "time": 121.33918363020832,
            "velocity": 0.8110236220472441
          },
          {
            "duration": 0.1146747916666726,
            "durationTicks": 80,
            "midi": 37,
            "name": "C#2",
            "ticks": 85248,
            "time": 121.61727,
            "velocity": 0.8267716535433071
          },
          {
            "duration": 0.13187601041667563,
            "durationTicks": 92,
            "midi": 37,
            "name": "C#2",
            "ticks": 85432,
            "time": 121.88102202083333,
            "velocity": 0.8346456692913385
          },
          {
            "duration": 0.16054470833333312,
            "durationTicks": 112,
            "midi": 35,
            "name": "B1",
            "ticks": 85626,
            "time": 122.159108390625,
            "velocity": 0.8110236220472441
          },
          {
            "duration": 0.1433434895833301,
            "durationTicks": 100,
            "midi": 35,
            "name": "B1",
            "ticks": 85820,
            "time": 122.43719476041667,
            "velocity": 0.7795275590551181
          },
          {
            "duration": 0.14047661979165582,
            "durationTicks": 98,
            "midi": 33,
            "name": "A1",
            "ticks": 86012,
            "time": 122.71241426041667,
            "velocity": 0.8267716535433071
          },
          {
            "duration": 0.15194409895835292,
            "durationTicks": 106,
            "midi": 33,
            "name": "A1",
            "ticks": 86200,
            "time": 122.98190002083332,
            "velocity": 0.7716535433070866
          },
          {
            "duration": 0.12614227083334129,
            "durationTicks": 88,
            "midi": 33,
            "name": "A1",
            "ticks": 86392,
            "time": 123.25711952083333,
            "velocity": 0.8031496062992126
          },
          {
            "duration": 0.1519440989583245,
            "durationTicks": 106,
            "midi": 33,
            "name": "A1",
            "ticks": 86592,
            "time": 123.5438065,
            "velocity": 0.7795275590551181
          },
          {
            "duration": 0.13187601041667563,
            "durationTicks": 92,
            "midi": 35,
            "name": "B1",
            "ticks": 86778,
            "time": 123.810425390625,
            "velocity": 0.8110236220472441
          },
          {
            "duration": 0.15767783854167305,
            "durationTicks": 110,
            "midi": 35,
            "name": "B1",
            "ticks": 86976,
            "time": 124.0942455,
            "velocity": 0.7716535433070866
          },
          {
            "duration": 0.14047661979167003,
            "durationTicks": 98,
            "midi": 35,
            "name": "B1",
            "ticks": 87168,
            "time": 124.369465,
            "velocity": 0.7874015748031497
          },
          {
            "duration": 0.14907722916667865,
            "durationTicks": 104,
            "midi": 35,
            "name": "B1",
            "ticks": 87358,
            "time": 124.64181763020832,
            "velocity": 0.7244094488188977
          },
          {
            "duration": 0.1433434895833301,
            "durationTicks": 100,
            "midi": 40,
            "name": "E2",
            "ticks": 87552,
            "time": 124.919904,
            "velocity": 0.8346456692913385
          },
          {
            "duration": 0.09747357291666958,
            "durationTicks": 68,
            "midi": 40,
            "name": "E2",
            "ticks": 87742,
            "time": 125.19225663020833,
            "velocity": 0.7637795275590551
          },
          {
            "duration": 0.11180792187499833,
            "durationTicks": 78,
            "midi": 40,
            "name": "E2",
            "ticks": 87840,
            "time": 125.33273325,
            "velocity": 0.8267716535433071
          },
          {
            "duration": 0.12614227083334129,
            "durationTicks": 88,
            "midi": 40,
            "name": "E2",
            "ticks": 87928,
            "time": 125.45887552083333,
            "velocity": 0.8031496062992126
          },
          {
            "duration": 0.12614227083332707,
            "durationTicks": 88,
            "midi": 40,
            "name": "E2",
            "ticks": 88122,
            "time": 125.736961890625,
            "velocity": 0.8110236220472441
          },
          {
            "duration": 0.14621035937499016,
            "durationTicks": 102,
            "midi": 40,
            "name": "E2",
            "ticks": 88316,
            "time": 126.01504826041668,
            "velocity": 0.7952755905511811
          },
          {
            "duration": 0.1433434895833301,
            "durationTicks": 100,
            "midi": 40,
            "name": "E2",
            "ticks": 88506,
            "time": 126.287400890625,
            "velocity": 0.8110236220472441
          },
          {
            "duration": 0.14621035937499016,
            "durationTicks": 102,
            "midi": 37,
            "name": "C#2",
            "ticks": 88702,
            "time": 126.56835413020833,
            "velocity": 0.8503937007874016
          },
          {
            "duration": 0.15767783854165884,
            "durationTicks": 110,
            "midi": 35,
            "name": "B1",
            "ticks": 88892,
            "time": 126.84070676041667,
            "velocity": 0.8346456692913385
          },
          {
            "duration": 0.2809532395833543,
            "durationTicks": 196,
            "midi": 40,
            "name": "E2",
            "ticks": 89080,
            "time": 127.11019252083332,
            "velocity": 0.8031496062992126
          },
          {
            "duration": 0.13187601041667563,
            "durationTicks": 92,
            "midi": 40,
            "name": "E2",
            "ticks": 90618,
            "time": 129.314815390625,
            "velocity": 0.84251968503937
          },
          {
            "duration": 0.09460670312500952,
            "durationTicks": 66,
            "midi": 40,
            "name": "E2",
            "ticks": 90808,
            "time": 129.58716802083333,
            "velocity": 0.7322834645669292
          },
          {
            "duration": 0.11754166145831846,
            "durationTicks": 82,
            "midi": 40,
            "name": "E2",
            "ticks": 90912,
            "time": 129.73624525,
            "velocity": 0.8267716535433071
          },
          {
            "duration": 0.14047661979165582,
            "durationTicks": 98,
            "midi": 40,
            "name": "E2",
            "ticks": 91006,
            "time": 129.87098813020833,
            "velocity": 0.7480314960629921
          },
          {
            "duration": 0.154810968750013,
            "durationTicks": 108,
            "midi": 40,
            "name": "E2",
            "ticks": 91192,
            "time": 130.13760702083331,
            "velocity": 0.7874015748031497
          },
          {
            "duration": 0.15767783854167305,
            "durationTicks": 110,
            "midi": 40,
            "name": "E2",
            "ticks": 91390,
            "time": 130.42142713020831,
            "velocity": 0.7874015748031497
          },
          {
            "duration": 0.154810968750013,
            "durationTicks": 108,
            "midi": 40,
            "name": "E2",
            "ticks": 91578,
            "time": 130.690912890625,
            "velocity": 0.8031496062992126
          },
          {
            "duration": 0.15194409895835292,
            "durationTicks": 106,
            "midi": 40,
            "name": "E2",
            "ticks": 91776,
            "time": 130.974733,
            "velocity": 0.7874015748031497
          },
          {
            "duration": 0.14621035937497595,
            "durationTicks": 102,
            "midi": 40,
            "name": "E2",
            "ticks": 91960,
            "time": 131.23848502083334,
            "velocity": 0.8346456692913385
          },
          {
            "duration": 0.14621035937497595,
            "durationTicks": 102,
            "midi": 40,
            "name": "E2",
            "ticks": 92158,
            "time": 131.52230513020834,
            "velocity": 0.8031496062992126
          },
          {
            "duration": 0.08887296354166097,
            "durationTicks": 62,
            "midi": 40,
            "name": "E2",
            "ticks": 92348,
            "time": 131.79465776041667,
            "velocity": 0.7874015748031497
          },
          {
            "duration": 0.1060741822916782,
            "durationTicks": 74,
            "midi": 40,
            "name": "E2",
            "ticks": 92442,
            "time": 131.929400640625,
            "velocity": 0.7795275590551181
          },
          {
            "duration": 0.13760974999999576,
            "durationTicks": 96,
            "midi": 40,
            "name": "E2",
            "ticks": 92536,
            "time": 132.06414352083334,
            "velocity": 0.8110236220472441
          },
          {
            "duration": 0.14907722916666444,
            "durationTicks": 104,
            "midi": 40,
            "name": "E2",
            "ticks": 92728,
            "time": 132.33936302083333,
            "velocity": 0.7637795275590551
          },
          {
            "duration": 0.13187601041667563,
            "durationTicks": 92,
            "midi": 40,
            "name": "E2",
            "ticks": 92920,
            "time": 132.61458252083332,
            "velocity": 0.8267716535433071
          },
          {
            "duration": 0.1433434895833443,
            "durationTicks": 100,
            "midi": 40,
            "name": "E2",
            "ticks": 93116,
            "time": 132.89553576041666,
            "velocity": 0.7637795275590551
          },
          {
            "duration": 0.13187601041667563,
            "durationTicks": 92,
            "midi": 40,
            "name": "E2",
            "ticks": 93310,
            "time": 133.17362213020832,
            "velocity": 0.8346456692913385
          },
          {
            "duration": 0.13760974999999576,
            "durationTicks": 96,
            "midi": 40,
            "name": "E2",
            "ticks": 93496,
            "time": 133.44024102083333,
            "velocity": 0.8031496062992126
          },
          {
            "duration": 0.14047661979168424,
            "durationTicks": 98,
            "midi": 40,
            "name": "E2",
            "ticks": 93694,
            "time": 133.72406113020833,
            "velocity": 0.8346456692913385
          },
          {
            "duration": 0.10034044270835807,
            "durationTicks": 70,
            "midi": 40,
            "name": "E2",
            "ticks": 93886,
            "time": 133.99928063020832,
            "velocity": 0.7716535433070866
          },
          {
            "duration": 0.10894105208333826,
            "durationTicks": 76,
            "midi": 40,
            "name": "E2",
            "ticks": 93984,
            "time": 134.13975725,
            "velocity": 0.8267716535433071
          },
          {
            "duration": 0.1433434895833443,
            "durationTicks": 100,
            "midi": 40,
            "name": "E2",
            "ticks": 94074,
            "time": 134.268766390625,
            "velocity": 0.7952755905511811
          },
          {
            "duration": 0.14047661979168424,
            "durationTicks": 98,
            "midi": 40,
            "name": "E2",
            "ticks": 94264,
            "time": 134.54111902083332,
            "velocity": 0.7952755905511811
          },
          {
            "duration": 0.15481096874998457,
            "durationTicks": 108,
            "midi": 40,
            "name": "E2",
            "ticks": 94456,
            "time": 134.81633852083334,
            "velocity": 0.7716535433070866
          },
          {
            "duration": 0.15481096874998457,
            "durationTicks": 108,
            "midi": 40,
            "name": "E2",
            "ticks": 94654,
            "time": 135.10015863020834,
            "velocity": 0.8267716535433071
          },
          {
            "duration": 0.16054470833333312,
            "durationTicks": 112,
            "midi": 40,
            "name": "E2",
            "ticks": 94840,
            "time": 135.36677752083332,
            "velocity": 0.7874015748031497
          },
          {
            "duration": 0.1519440989583245,
            "durationTicks": 106,
            "midi": 40,
            "name": "E2",
            "ticks": 95036,
            "time": 135.64773076041666,
            "velocity": 0.8110236220472441
          },
          {
            "duration": 0.1720121875000018,
            "durationTicks": 120,
            "midi": 40,
            "name": "E2",
            "ticks": 95224,
            "time": 135.91721652083334,
            "velocity": 0.7637795275590551
          },
          {
            "duration": 0.09460670312500952,
            "durationTicks": 66,
            "midi": 40,
            "name": "E2",
            "ticks": 95420,
            "time": 136.19816976041668,
            "velocity": 0.8267716535433071
          },
          {
            "duration": 0.1060741822916782,
            "durationTicks": 74,
            "midi": 40,
            "name": "E2",
            "ticks": 95518,
            "time": 136.33864638020833,
            "velocity": 0.7952755905511811
          },
          {
            "duration": 0.12900914062498714,
            "durationTicks": 90,
            "midi": 40,
            "name": "E2",
            "ticks": 95610,
            "time": 136.470522390625,
            "velocity": 0.8267716535433071
          },
          {
            "duration": 0.1433434895833443,
            "durationTicks": 100,
            "midi": 40,
            "name": "E2",
            "ticks": 95806,
            "time": 136.75147563020832,
            "velocity": 0.7952755905511811
          },
          {
            "duration": 0.14621035937500437,
            "durationTicks": 102,
            "midi": 40,
            "name": "E2",
            "ticks": 96000,
            "time": 137.029562,
            "velocity": 0.8110236220472441
          },
          {
            "duration": 0.15767783854167305,
            "durationTicks": 110,
            "midi": 40,
            "name": "E2",
            "ticks": 96184,
            "time": 137.29331402083332,
            "velocity": 0.7952755905511811
          },
          {
            "duration": 0.14621035937500437,
            "durationTicks": 102,
            "midi": 40,
            "name": "E2",
            "ticks": 96380,
            "time": 137.57426726041666,
            "velocity": 0.8110236220472441
          },
          {
            "duration": 0.1519440989583245,
            "durationTicks": 106,
            "midi": 40,
            "name": "E2",
            "ticks": 96576,
            "time": 137.8552205,
            "velocity": 0.7795275590551181
          },
          {
            "duration": 0.16341157812499318,
            "durationTicks": 114,
            "midi": 33,
            "name": "A1",
            "ticks": 96764,
            "time": 138.12470626041667,
            "velocity": 0.8031496062992126
          },
          {
            "duration": 0.11180792187499833,
            "durationTicks": 78,
            "midi": 33,
            "name": "A1",
            "ticks": 96958,
            "time": 138.40279263020832,
            "velocity": 0.7401574803149606
          },
          {
            "duration": 0.09747357291666958,
            "durationTicks": 68,
            "midi": 33,
            "name": "A1",
            "ticks": 97050,
            "time": 138.534668640625,
            "velocity": 0.7874015748031497
          },
          {
            "duration": 0.13474288020830727,
            "durationTicks": 94,
            "midi": 33,
            "name": "A1",
            "ticks": 97148,
            "time": 138.67514526041668,
            "velocity": 0.7716535433070866
          },
          {
            "duration": 0.12900914062498714,
            "durationTicks": 90,
            "midi": 33,
            "name": "A1",
            "ticks": 97340,
            "time": 138.95036476041668,
            "velocity": 0.7874015748031497
          },
          {
            "duration": 0.14907722916666444,
            "durationTicks": 104,
            "midi": 33,
            "name": "A1",
            "ticks": 97530,
            "time": 139.222717390625,
            "velocity": 0.7795275590551181
          },
          {
            "duration": 0.1347428802083357,
            "durationTicks": 94,
            "midi": 33,
            "name": "A1",
            "ticks": 97722,
            "time": 139.497936890625,
            "velocity": 0.7952755905511811
          },
          {
            "duration": 0.14907722916666444,
            "durationTicks": 104,
            "midi": 33,
            "name": "A1",
            "ticks": 97920,
            "time": 139.781757,
            "velocity": 0.7716535433070866
          },
          {
            "duration": 0.14621035937500437,
            "durationTicks": 102,
            "midi": 33,
            "name": "A1",
            "ticks": 98104,
            "time": 140.04550902083332,
            "velocity": 0.7874015748031497
          },
          {
            "duration": 0.18061279687501042,
            "durationTicks": 126,
            "midi": 33,
            "name": "A1",
            "ticks": 98300,
            "time": 140.32646226041666,
            "velocity": 0.7874015748031497
          },
          {
            "duration": 0.0860060937500009,
            "durationTicks": 60,
            "midi": 33,
            "name": "A1",
            "ticks": 98496,
            "time": 140.6074155,
            "velocity": 0.7637795275590551
          },
          {
            "duration": 0.1060741822916782,
            "durationTicks": 74,
            "midi": 33,
            "name": "A1",
            "ticks": 98584,
            "time": 140.73355777083333,
            "velocity": 0.7716535433070866
          },
          {
            "duration": 0.11467479166668682,
            "durationTicks": 80,
            "midi": 33,
            "name": "A1",
            "ticks": 98680,
            "time": 140.87116752083332,
            "velocity": 0.8031496062992126
          },
          {
            "duration": 0.13474288020830727,
            "durationTicks": 94,
            "midi": 33,
            "name": "A1",
            "ticks": 98880,
            "time": 141.1578545,
            "velocity": 0.7637795275590551
          },
          {
            "duration": 0.14047661979165582,
            "durationTicks": 98,
            "midi": 33,
            "name": "A1",
            "ticks": 99064,
            "time": 141.42160652083334,
            "velocity": 0.8031496062992126
          },
          {
            "duration": 0.15767783854167305,
            "durationTicks": 110,
            "midi": 33,
            "name": "A1",
            "ticks": 99264,
            "time": 141.7082935,
            "velocity": 0.7874015748031497
          },
          {
            "duration": 0.14621035937500437,
            "durationTicks": 102,
            "midi": 33,
            "name": "A1",
            "ticks": 99452,
            "time": 141.97777926041667,
            "velocity": 0.8031496062992126
          },
          {
            "duration": 0.14907722916666444,
            "durationTicks": 104,
            "midi": 33,
            "name": "A1",
            "ticks": 99644,
            "time": 142.25299876041666,
            "velocity": 0.7480314960629921
          },
          {
            "duration": 0.1892134062499906,
            "durationTicks": 132,
            "midi": 40,
            "name": "E2",
            "ticks": 99840,
            "time": 142.533952,
            "velocity": 0.8031496062992126
          },
          {
            "duration": 0.11180792187499833,
            "durationTicks": 78,
            "midi": 40,
            "name": "E2",
            "ticks": 100026,
            "time": 142.800570890625,
            "velocity": 0.7874015748031497
          },
          {
            "duration": 0.0946067031249811,
            "durationTicks": 66,
            "midi": 40,
            "name": "E2",
            "ticks": 100124,
            "time": 142.94104751041667,
            "velocity": 0.8267716535433071
          },
          {
            "duration": 0.1347428802083357,
            "durationTicks": 94,
            "midi": 40,
            "name": "E2",
            "ticks": 100220,
            "time": 143.07865726041666,
            "velocity": 0.8267716535433071
          },
          {
            "duration": 0.12900914062498714,
            "durationTicks": 90,
            "midi": 40,
            "name": "E2",
            "ticks": 100414,
            "time": 143.35674363020834,
            "velocity": 0.8267716535433071
          },
          {
            "duration": 0.16054470833336154,
            "durationTicks": 112,
            "midi": 40,
            "name": "E2",
            "ticks": 100608,
            "time": 143.63483,
            "velocity": 0.8031496062992126
          },
          {
            "duration": 0.13760975000002418,
            "durationTicks": 96,
            "midi": 40,
            "name": "E2",
            "ticks": 100800,
            "time": 143.91004949999999,
            "velocity": 0.8267716535433071
          },
          {
            "duration": 0.1519440989583245,
            "durationTicks": 106,
            "midi": 40,
            "name": "E2",
            "ticks": 100990,
            "time": 144.18240213020835,
            "velocity": 0.8110236220472441
          },
          {
            "duration": 0.15194409895835292,
            "durationTicks": 106,
            "midi": 40,
            "name": "E2",
            "ticks": 101180,
            "time": 144.45475476041665,
            "velocity": 0.8110236220472441
          },
          {
            "duration": 0.1720121875000018,
            "durationTicks": 120,
            "midi": 40,
            "name": "E2",
            "ticks": 101370,
            "time": 144.727107390625,
            "velocity": 0.8110236220472441
          },
          {
            "duration": 0.08313922395834084,
            "durationTicks": 58,
            "midi": 40,
            "name": "E2",
            "ticks": 101564,
            "time": 145.00519376041666,
            "velocity": 0.8031496062992126
          },
          {
            "duration": 0.12040853125000694,
            "durationTicks": 84,
            "midi": 40,
            "name": "E2",
            "ticks": 101660,
            "time": 145.14280351041666,
            "velocity": 0.8031496062992126
          },
          {
            "duration": 0.11754166145834688,
            "durationTicks": 82,
            "midi": 40,
            "name": "E2",
            "ticks": 101760,
            "time": 145.286147,
            "velocity": 0.8110236220472441
          },
          {
            "duration": 0.14047661979165582,
            "durationTicks": 98,
            "midi": 40,
            "name": "E2",
            "ticks": 101944,
            "time": 145.54989902083335,
            "velocity": 0.7952755905511811
          },
          {
            "duration": 0.12040853124997852,
            "durationTicks": 84,
            "midi": 40,
            "name": "E2",
            "ticks": 102144,
            "time": 145.836586,
            "velocity": 0.8346456692913385
          },
          {
            "duration": 0.15194409895835292,
            "durationTicks": 106,
            "midi": 40,
            "name": "E2",
            "ticks": 102336,
            "time": 146.1118055,
            "velocity": 0.7952755905511811
          },
          {
            "duration": 0.1433434895833443,
            "durationTicks": 100,
            "midi": 40,
            "name": "E2",
            "ticks": 102522,
            "time": 146.37842439062499,
            "velocity": 0.8031496062992126
          },
          {
            "duration": 0.1433434895833443,
            "durationTicks": 100,
            "midi": 40,
            "name": "E2",
            "ticks": 102720,
            "time": 146.66224449999999,
            "velocity": 0.84251968503937
          },
          {
            "duration": 0.16627844791665325,
            "durationTicks": 116,
            "midi": 35,
            "name": "B1",
            "ticks": 102904,
            "time": 146.92599652083334,
            "velocity": 0.8267716535433071
          },
          {
            "duration": 0.09747357291666958,
            "durationTicks": 68,
            "midi": 35,
            "name": "B1",
            "ticks": 103102,
            "time": 147.20981663020834,
            "velocity": 0.7480314960629921
          },
          {
            "duration": 0.0946067031249811,
            "durationTicks": 66,
            "midi": 35,
            "name": "B1",
            "ticks": 103192,
            "time": 147.33882577083335,
            "velocity": 0.8110236220472441
          },
          {
            "duration": 0.1318760104166472,
            "durationTicks": 92,
            "midi": 35,
            "name": "B1",
            "ticks": 103288,
            "time": 147.47643552083335,
            "velocity": 0.7874015748031497
          },
          {
            "duration": 0.1318760104166472,
            "durationTicks": 92,
            "midi": 35,
            "name": "B1",
            "ticks": 103480,
            "time": 147.75165502083334,
            "velocity": 0.7874015748031497
          },
          {
            "duration": 0.14907722916666444,
            "durationTicks": 104,
            "midi": 35,
            "name": "B1",
            "ticks": 103674,
            "time": 148.029741390625,
            "velocity": 0.7637795275590551
          },
          {
            "duration": 0.15194409895835292,
            "durationTicks": 106,
            "midi": 35,
            "name": "B1",
            "ticks": 103868,
            "time": 148.30782776041664,
            "velocity": 0.8110236220472441
          },
          {
            "duration": 0.14621035937500437,
            "durationTicks": 102,
            "midi": 35,
            "name": "B1",
            "ticks": 104056,
            "time": 148.57731352083334,
            "velocity": 0.7165354330708661
          },
          {
            "duration": 0.14047661979165582,
            "durationTicks": 98,
            "midi": 33,
            "name": "A1",
            "ticks": 104248,
            "time": 148.85253302083333,
            "velocity": 0.8031496062992126
          },
          {
            "duration": 0.154810968750013,
            "durationTicks": 108,
            "midi": 33,
            "name": "A1",
            "ticks": 104448,
            "time": 149.13922,
            "velocity": 0.8110236220472441
          },
          {
            "duration": 0.16627844791665325,
            "durationTicks": 116,
            "midi": 33,
            "name": "A1",
            "ticks": 104634,
            "time": 149.405838890625,
            "velocity": 0.7952755905511811
          },
          {
            "duration": 0.1519440989583245,
            "durationTicks": 106,
            "midi": 33,
            "name": "A1",
            "ticks": 104832,
            "time": 149.689659,
            "velocity": 0.8031496062992126
          },
          {
            "duration": 0.16054470833333312,
            "durationTicks": 112,
            "midi": 33,
            "name": "A1",
            "ticks": 105024,
            "time": 149.9648785,
            "velocity": 0.7716535433070866
          },
          {
            "duration": 0.14907722916666444,
            "durationTicks": 104,
            "midi": 33,
            "name": "A1",
            "ticks": 105208,
            "time": 150.22863052083335,
            "velocity": 0.8110236220472441
          },
          {
            "duration": 0.154810968750013,
            "durationTicks": 108,
            "midi": 33,
            "name": "A1",
            "ticks": 105402,
            "time": 150.506716890625,
            "velocity": 0.7401574803149606
          },
          {
            "duration": 0.1433434895833159,
            "durationTicks": 100,
            "midi": 33,
            "name": "A1",
            "ticks": 105598,
            "time": 150.78767013020834,
            "velocity": 0.8110236220472441
          },
          {
            "duration": 0.15767783854164463,
            "durationTicks": 110,
            "midi": 33,
            "name": "A1",
            "ticks": 105786,
            "time": 151.057155890625,
            "velocity": 0.7795275590551181
          },
          {
            "duration": 0.16341157812499318,
            "durationTicks": 114,
            "midi": 40,
            "name": "E2",
            "ticks": 105982,
            "time": 151.33810913020835,
            "velocity": 0.8503937007874016
          },
          {
            "duration": 0.08887296354166097,
            "durationTicks": 62,
            "midi": 40,
            "name": "E2",
            "ticks": 106168,
            "time": 151.60472802083333,
            "velocity": 0.7795275590551181
          },
          {
            "duration": 0.09173983333332103,
            "durationTicks": 64,
            "midi": 40,
            "name": "E2",
            "ticks": 106270,
            "time": 151.75093838020834,
            "velocity": 0.8346456692913385
          },
          {
            "duration": 0.13760974999999576,
            "durationTicks": 96,
            "midi": 40,
            "name": "E2",
            "ticks": 106368,
            "time": 151.891415,
            "velocity": 0.8031496062992126
          },
          {
            "duration": 0.1433434895833443,
            "durationTicks": 100,
            "midi": 40,
            "name": "E2",
            "ticks": 106556,
            "time": 152.16090076041667,
            "velocity": 0.8267716535433071
          },
          {
            "duration": 0.15767783854167305,
            "durationTicks": 110,
            "midi": 40,
            "name": "E2",
            "ticks": 106748,
            "time": 152.43612026041666,
            "velocity": 0.8031496062992126
          },
          {
            "duration": 0.1519440989583245,
            "durationTicks": 106,
            "midi": 40,
            "name": "E2",
            "ticks": 106942,
            "time": 152.71420663020834,
            "velocity": 0.84251968503937
          },
          {
            "duration": 0.2580182812500027,
            "durationTicks": 180,
            "midi": 37,
            "name": "C#2",
            "ticks": 107136,
            "time": 152.992293,
            "velocity": 0.8031496062992126
          },
          {
            "duration": 0.24368393229164553,
            "durationTicks": 170,
            "midi": 35,
            "name": "B1",
            "ticks": 107320,
            "time": 153.25604502083334,
            "velocity": 0.8267716535433071
          },
          {
            "duration": 0.16054470833336154,
            "durationTicks": 112,
            "midi": 40,
            "name": "E2",
            "ticks": 107514,
            "time": 153.534131390625,
            "velocity": 0.8661417322834646
          },
          {
            "duration": 0.13187601041667563,
            "durationTicks": 92,
            "midi": 40,
            "name": "E2",
            "ticks": 109052,
            "time": 155.73875426041667,
            "velocity": 0.84251968503937
          },
          {
            "duration": 0.09460670312500952,
            "durationTicks": 66,
            "midi": 40,
            "name": "E2",
            "ticks": 109240,
            "time": 156.00824002083334,
            "velocity": 0.7322834645669292
          },
          {
            "duration": 0.11754166145831846,
            "durationTicks": 82,
            "midi": 40,
            "name": "E2",
            "ticks": 109342,
            "time": 156.15445038020835,
            "velocity": 0.8267716535433071
          },
          {
            "duration": 0.14047661979165582,
            "durationTicks": 98,
            "midi": 40,
            "name": "E2",
            "ticks": 109434,
            "time": 156.286326390625,
            "velocity": 0.7480314960629921
          },
          {
            "duration": 0.154810968750013,
            "durationTicks": 108,
            "midi": 40,
            "name": "E2",
            "ticks": 109632,
            "time": 156.5701465,
            "velocity": 0.7874015748031497
          },
          {
            "duration": 0.15767783854164463,
            "durationTicks": 110,
            "midi": 40,
            "name": "E2",
            "ticks": 109816,
            "time": 156.83389852083334,
            "velocity": 0.7874015748031497
          },
          {
            "duration": 0.154810968750013,
            "durationTicks": 108,
            "midi": 40,
            "name": "E2",
            "ticks": 110008,
            "time": 157.10911802083334,
            "velocity": 0.8031496062992126
          },
          {
            "duration": 0.15194409895835292,
            "durationTicks": 106,
            "midi": 40,
            "name": "E2",
            "ticks": 110208,
            "time": 157.395805,
            "velocity": 0.7874015748031497
          },
          {
            "duration": 0.14621035937500437,
            "durationTicks": 102,
            "midi": 40,
            "name": "E2",
            "ticks": 110400,
            "time": 157.6710245,
            "velocity": 0.8346456692913385
          },
          {
            "duration": 0.14621035937500437,
            "durationTicks": 102,
            "midi": 40,
            "name": "E2",
            "ticks": 110586,
            "time": 157.937643390625,
            "velocity": 0.8031496062992126
          },
          {
            "duration": 0.08887296354166097,
            "durationTicks": 62,
            "midi": 40,
            "name": "E2",
            "ticks": 110778,
            "time": 158.212862890625,
            "velocity": 0.7874015748031497
          },
          {
            "duration": 0.1060741822916782,
            "durationTicks": 74,
            "midi": 40,
            "name": "E2",
            "ticks": 110874,
            "time": 158.350472640625,
            "velocity": 0.7795275590551181
          },
          {
            "duration": 0.13760974999999576,
            "durationTicks": 96,
            "midi": 40,
            "name": "E2",
            "ticks": 110972,
            "time": 158.49094926041667,
            "velocity": 0.8110236220472441
          },
          {
            "duration": 0.14907722916663602,
            "durationTicks": 104,
            "midi": 40,
            "name": "E2",
            "ticks": 111168,
            "time": 158.7719025,
            "velocity": 0.7637795275590551
          },
          {
            "duration": 0.1318760104166472,
            "durationTicks": 92,
            "midi": 40,
            "name": "E2",
            "ticks": 111358,
            "time": 159.04425513020834,
            "velocity": 0.8267716535433071
          },
          {
            "duration": 0.1433434895833159,
            "durationTicks": 100,
            "midi": 40,
            "name": "E2",
            "ticks": 111544,
            "time": 159.31087402083335,
            "velocity": 0.7637795275590551
          },
          {
            "duration": 0.13187601041667563,
            "durationTicks": 92,
            "midi": 40,
            "name": "E2",
            "ticks": 111740,
            "time": 159.59182726041666,
            "velocity": 0.8346456692913385
          },
          {
            "duration": 0.13760974999999576,
            "durationTicks": 96,
            "midi": 40,
            "name": "E2",
            "ticks": 111934,
            "time": 159.86991363020834,
            "velocity": 0.8031496062992126
          },
          {
            "duration": 0.14047661979165582,
            "durationTicks": 98,
            "midi": 40,
            "name": "E2",
            "ticks": 112126,
            "time": 160.14513313020834,
            "velocity": 0.8346456692913385
          },
          {
            "duration": 0.10034044270830123,
            "durationTicks": 70,
            "midi": 40,
            "name": "E2",
            "ticks": 112312,
            "time": 160.41175202083335,
            "velocity": 0.7716535433070866
          },
          {
            "duration": 0.10894105208333826,
            "durationTicks": 76,
            "midi": 40,
            "name": "E2",
            "ticks": 112412,
            "time": 160.55509551041666,
            "velocity": 0.8267716535433071
          },
          {
            "duration": 0.1433434895833159,
            "durationTicks": 100,
            "midi": 40,
            "name": "E2",
            "ticks": 112504,
            "time": 160.68697152083334,
            "velocity": 0.7952755905511811
          },
          {
            "duration": 0.14047661979165582,
            "durationTicks": 98,
            "midi": 40,
            "name": "E2",
            "ticks": 112698,
            "time": 160.965057890625,
            "velocity": 0.7952755905511811
          },
          {
            "duration": 0.15481096874998457,
            "durationTicks": 108,
            "midi": 40,
            "name": "E2",
            "ticks": 112890,
            "time": 161.240277390625,
            "velocity": 0.7716535433070866
          },
          {
            "duration": 0.15481096874998457,
            "durationTicks": 108,
            "midi": 40,
            "name": "E2",
            "ticks": 113088,
            "time": 161.5240975,
            "velocity": 0.8267716535433071
          },
          {
            "duration": 0.1605447083333047,
            "durationTicks": 112,
            "midi": 40,
            "name": "E2",
            "ticks": 113278,
            "time": 161.79645013020834,
            "velocity": 0.7874015748031497
          },
          {
            "duration": 0.1519440989583245,
            "durationTicks": 106,
            "midi": 40,
            "name": "E2",
            "ticks": 113470,
            "time": 162.07166963020833,
            "velocity": 0.8110236220472441
          },
          {
            "duration": 0.1720121875000018,
            "durationTicks": 120,
            "midi": 40,
            "name": "E2",
            "ticks": 113662,
            "time": 162.34688913020835,
            "velocity": 0.7637795275590551
          },
          {
            "duration": 0.09460670312500952,
            "durationTicks": 66,
            "midi": 40,
            "name": "E2",
            "ticks": 113852,
            "time": 162.61924176041666,
            "velocity": 0.8267716535433071
          },
          {
            "duration": 0.12900914062501556,
            "durationTicks": 90,
            "midi": 40,
            "name": "E2",
            "ticks": 113946,
            "time": 162.753984640625,
            "velocity": 0.7952755905511811
          },
          {
            "duration": 0.12900914062501556,
            "durationTicks": 90,
            "midi": 40,
            "name": "E2",
            "ticks": 114042,
            "time": 162.891594390625,
            "velocity": 0.8267716535433071
          },
          {
            "duration": 0.1433434895833443,
            "durationTicks": 100,
            "midi": 40,
            "name": "E2",
            "ticks": 114234,
            "time": 163.166813890625,
            "velocity": 0.7952755905511811
          },
          {
            "duration": 0.14621035937500437,
            "durationTicks": 102,
            "midi": 40,
            "name": "E2",
            "ticks": 114426,
            "time": 163.442033390625,
            "velocity": 0.8110236220472441
          },
          {
            "duration": 0.15767783854167305,
            "durationTicks": 110,
            "midi": 40,
            "name": "E2",
            "ticks": 114618,
            "time": 163.717252890625,
            "velocity": 0.7952755905511811
          },
          {
            "duration": 0.14621035937500437,
            "durationTicks": 102,
            "midi": 40,
            "name": "E2",
            "ticks": 114816,
            "time": 164.001073,
            "velocity": 0.8110236220472441
          },
          {
            "duration": 0.1519440989583245,
            "durationTicks": 106,
            "midi": 40,
            "name": "E2",
            "ticks": 115000,
            "time": 164.26482502083334,
            "velocity": 0.7795275590551181
          },
          {
            "duration": 0.1634115781250216,
            "durationTicks": 114,
            "midi": 33,
            "name": "A1",
            "ticks": 115192,
            "time": 164.54004452083333,
            "velocity": 0.8031496062992126
          },
          {
            "duration": 0.11180792187499833,
            "durationTicks": 78,
            "midi": 33,
            "name": "A1",
            "ticks": 115384,
            "time": 164.81526402083335,
            "velocity": 0.7401574803149606
          },
          {
            "duration": 0.09747357291666958,
            "durationTicks": 68,
            "midi": 33,
            "name": "A1",
            "ticks": 115486,
            "time": 164.96147438020833,
            "velocity": 0.7874015748031497
          },
          {
            "duration": 0.13474288020830727,
            "durationTicks": 94,
            "midi": 33,
            "name": "A1",
            "ticks": 115582,
            "time": 165.09908413020835,
            "velocity": 0.7716535433070866
          },
          {
            "duration": 0.12900914062498714,
            "durationTicks": 90,
            "midi": 33,
            "name": "A1",
            "ticks": 115774,
            "time": 165.37430363020835,
            "velocity": 0.7874015748031497
          },
          {
            "duration": 0.14907722916666444,
            "durationTicks": 104,
            "midi": 33,
            "name": "A1",
            "ticks": 115962,
            "time": 165.643789390625,
            "velocity": 0.7795275590551181
          },
          {
            "duration": 0.13474288020830727,
            "durationTicks": 94,
            "midi": 33,
            "name": "A1",
            "ticks": 116152,
            "time": 165.91614202083335,
            "velocity": 0.7952755905511811
          },
          {
            "duration": 0.14907722916666444,
            "durationTicks": 104,
            "midi": 33,
            "name": "A1",
            "ticks": 116350,
            "time": 166.19996213020835,
            "velocity": 0.7716535433070866
          },
          {
            "duration": 0.14621035937500437,
            "durationTicks": 102,
            "midi": 33,
            "name": "A1",
            "ticks": 116544,
            "time": 166.4780485,
            "velocity": 0.7874015748031497
          },
          {
            "duration": 0.180612796874982,
            "durationTicks": 126,
            "midi": 33,
            "name": "A1",
            "ticks": 116728,
            "time": 166.74180052083335,
            "velocity": 0.7874015748031497
          },
          {
            "duration": 0.0860060937500009,
            "durationTicks": 60,
            "midi": 33,
            "name": "A1",
            "ticks": 116920,
            "time": 167.01702002083334,
            "velocity": 0.7637795275590551
          },
          {
            "duration": 0.10607418229164978,
            "durationTicks": 74,
            "midi": 33,
            "name": "A1",
            "ticks": 117022,
            "time": 167.16323038020835,
            "velocity": 0.7716535433070866
          },
          {
            "duration": 0.1146747916666584,
            "durationTicks": 80,
            "midi": 33,
            "name": "A1",
            "ticks": 117114,
            "time": 167.295106390625,
            "velocity": 0.8031496062992126
          },
          {
            "duration": 0.1347428802083641,
            "durationTicks": 94,
            "midi": 33,
            "name": "A1",
            "ticks": 117306,
            "time": 167.57032589062499,
            "velocity": 0.7637795275590551
          },
          {
            "duration": 0.14047661979165582,
            "durationTicks": 98,
            "midi": 33,
            "name": "A1",
            "ticks": 117496,
            "time": 167.84267852083335,
            "velocity": 0.8031496062992126
          },
          {
            "duration": 0.15767783854167305,
            "durationTicks": 110,
            "midi": 33,
            "name": "A1",
            "ticks": 117690,
            "time": 168.120764890625,
            "velocity": 0.7874015748031497
          },
          {
            "duration": 0.14621035937500437,
            "durationTicks": 102,
            "midi": 33,
            "name": "A1",
            "ticks": 117888,
            "time": 168.404585,
            "velocity": 0.8031496062992126
          },
          {
            "duration": 0.14907722916666444,
            "durationTicks": 104,
            "midi": 33,
            "name": "A1",
            "ticks": 118080,
            "time": 168.6798045,
            "velocity": 0.7480314960629921
          },
          {
            "duration": 0.1892134062499906,
            "durationTicks": 132,
            "midi": 40,
            "name": "E2",
            "ticks": 118266,
            "time": 168.946423390625,
            "velocity": 0.8031496062992126
          },
          {
            "duration": 0.11180792187499833,
            "durationTicks": 78,
            "midi": 40,
            "name": "E2",
            "ticks": 118460,
            "time": 169.22450976041665,
            "velocity": 0.7874015748031497
          },
          {
            "duration": 0.09460670312500952,
            "durationTicks": 66,
            "midi": 40,
            "name": "E2",
            "ticks": 118558,
            "time": 169.36498638020834,
            "velocity": 0.8267716535433071
          },
          {
            "duration": 0.1347428802083641,
            "durationTicks": 94,
            "midi": 40,
            "name": "E2",
            "ticks": 118656,
            "time": 169.505463,
            "velocity": 0.8267716535433071
          },
          {
            "duration": 0.12900914062498714,
            "durationTicks": 90,
            "midi": 40,
            "name": "E2",
            "ticks": 118842,
            "time": 169.772081890625,
            "velocity": 0.8267716535433071
          },
          {
            "duration": 0.16054470833333312,
            "durationTicks": 112,
            "midi": 40,
            "name": "E2",
            "ticks": 119032,
            "time": 170.04443452083333,
            "velocity": 0.8031496062992126
          },
          {
            "duration": 0.13760974999999576,
            "durationTicks": 96,
            "midi": 40,
            "name": "E2",
            "ticks": 119228,
            "time": 170.32538776041665,
            "velocity": 0.8267716535433071
          },
          {
            "duration": 0.1519440989583245,
            "durationTicks": 106,
            "midi": 40,
            "name": "E2",
            "ticks": 119418,
            "time": 170.597740390625,
            "velocity": 0.8110236220472441
          },
          {
            "duration": 0.1519440989583245,
            "durationTicks": 106,
            "midi": 40,
            "name": "E2",
            "ticks": 119616,
            "time": 170.8815605,
            "velocity": 0.8110236220472441
          },
          {
            "duration": 0.1720121875000018,
            "durationTicks": 120,
            "midi": 40,
            "name": "E2",
            "ticks": 119808,
            "time": 171.15678,
            "velocity": 0.8110236220472441
          },
          {
            "duration": 0.08313922395831241,
            "durationTicks": 58,
            "midi": 40,
            "name": "E2",
            "ticks": 119998,
            "time": 171.42913263020836,
            "velocity": 0.8031496062992126
          },
          {
            "duration": 0.12040853125000694,
            "durationTicks": 84,
            "midi": 40,
            "name": "E2",
            "ticks": 120088,
            "time": 171.55814177083334,
            "velocity": 0.8031496062992126
          },
          {
            "duration": 0.11754166145831846,
            "durationTicks": 82,
            "midi": 40,
            "name": "E2",
            "ticks": 120184,
            "time": 171.69575152083334,
            "velocity": 0.8110236220472441
          },
          {
            "duration": 0.14047661979165582,
            "durationTicks": 98,
            "midi": 40,
            "name": "E2",
            "ticks": 120384,
            "time": 171.9824385,
            "velocity": 0.7952755905511811
          },
          {
            "duration": 0.12040853124997852,
            "durationTicks": 84,
            "midi": 40,
            "name": "E2",
            "ticks": 120568,
            "time": 172.24619052083335,
            "velocity": 0.8346456692913385
          },
          {
            "duration": 0.15194409895835292,
            "durationTicks": 106,
            "midi": 40,
            "name": "E2",
            "ticks": 120762,
            "time": 172.524276890625,
            "velocity": 0.7952755905511811
          },
          {
            "duration": 0.1433434895833443,
            "durationTicks": 100,
            "midi": 40,
            "name": "E2",
            "ticks": 120956,
            "time": 172.80236326041666,
            "velocity": 0.8031496062992126
          },
          {
            "duration": 0.1433434895833443,
            "durationTicks": 100,
            "midi": 40,
            "name": "E2",
            "ticks": 121146,
            "time": 173.074715890625,
            "velocity": 0.84251968503937
          },
          {
            "duration": 0.16627844791665325,
            "durationTicks": 116,
            "midi": 35,
            "name": "B1",
            "ticks": 121342,
            "time": 173.35566913020835,
            "velocity": 0.8267716535433071
          },
          {
            "duration": 0.09747357291666958,
            "durationTicks": 68,
            "midi": 35,
            "name": "B1",
            "ticks": 121528,
            "time": 173.62228802083334,
            "velocity": 0.7480314960629921
          },
          {
            "duration": 0.09460670312500952,
            "durationTicks": 66,
            "midi": 35,
            "name": "B1",
            "ticks": 121628,
            "time": 173.76563151041665,
            "velocity": 0.8110236220472441
          },
          {
            "duration": 0.1318760104166472,
            "durationTicks": 92,
            "midi": 35,
            "name": "B1",
            "ticks": 121720,
            "time": 173.89750752083336,
            "velocity": 0.7874015748031497
          },
          {
            "duration": 0.1318760104166472,
            "durationTicks": 92,
            "midi": 35,
            "name": "B1",
            "ticks": 121914,
            "time": 174.175593890625,
            "velocity": 0.7874015748031497
          },
          {
            "duration": 0.14907722916663602,
            "durationTicks": 104,
            "midi": 35,
            "name": "B1",
            "ticks": 122112,
            "time": 174.459414,
            "velocity": 0.7637795275590551
          },
          {
            "duration": 0.15194409895835292,
            "durationTicks": 106,
            "midi": 35,
            "name": "B1",
            "ticks": 122304,
            "time": 174.7346335,
            "velocity": 0.8110236220472441
          },
          {
            "duration": 0.14621035937500437,
            "durationTicks": 102,
            "midi": 35,
            "name": "B1",
            "ticks": 122496,
            "time": 175.009853,
            "velocity": 0.7165354330708661
          },
          {
            "duration": 0.14047661979165582,
            "durationTicks": 98,
            "midi": 33,
            "name": "A1",
            "ticks": 122680,
            "time": 175.27360502083334,
            "velocity": 0.8031496062992126
          },
          {
            "duration": 0.154810968750013,
            "durationTicks": 108,
            "midi": 33,
            "name": "A1",
            "ticks": 122872,
            "time": 175.54882452083334,
            "velocity": 0.8110236220472441
          },
          {
            "duration": 0.16627844791665325,
            "durationTicks": 116,
            "midi": 33,
            "name": "A1",
            "ticks": 123072,
            "time": 175.8355115,
            "velocity": 0.7952755905511811
          },
          {
            "duration": 0.15194409895829608,
            "durationTicks": 106,
            "midi": 33,
            "name": "A1",
            "ticks": 123262,
            "time": 176.10786413020836,
            "velocity": 0.8031496062992126
          },
          {
            "duration": 0.1605447083333047,
            "durationTicks": 112,
            "midi": 33,
            "name": "A1",
            "ticks": 123448,
            "time": 176.37448302083334,
            "velocity": 0.7716535433070866
          },
          {
            "duration": 0.14907722916666444,
            "durationTicks": 104,
            "midi": 33,
            "name": "A1",
            "ticks": 123642,
            "time": 176.652569390625,
            "velocity": 0.8110236220472441
          },
          {
            "duration": 0.15481096874998457,
            "durationTicks": 108,
            "midi": 33,
            "name": "A1",
            "ticks": 123834,
            "time": 176.927788890625,
            "velocity": 0.7401574803149606
          },
          {
            "duration": 0.1433434895833159,
            "durationTicks": 100,
            "midi": 33,
            "name": "A1",
            "ticks": 124030,
            "time": 177.20874213020835,
            "velocity": 0.8110236220472441
          },
          {
            "duration": 0.15767783854167305,
            "durationTicks": 110,
            "midi": 33,
            "name": "A1",
            "ticks": 124218,
            "time": 177.478227890625,
            "velocity": 0.7795275590551181
          },
          {
            "duration": 0.1720121875000018,
            "durationTicks": 120,
            "midi": 40,
            "name": "E2",
            "ticks": 124416,
            "time": 177.762048,
            "velocity": 0.8110236220472441
          },
          {
            "duration": 0.08313922395834084,
            "durationTicks": 58,
            "midi": 40,
            "name": "E2",
            "ticks": 124604,
            "time": 178.03153376041666,
            "velocity": 0.8031496062992126
          },
          {
            "duration": 0.12040853125000694,
            "durationTicks": 84,
            "midi": 40,
            "name": "E2",
            "ticks": 124696,
            "time": 178.16340977083334,
            "velocity": 0.8031496062992126
          },
          {
            "duration": 0.11754166145834688,
            "durationTicks": 82,
            "midi": 40,
            "name": "E2",
            "ticks": 124794,
            "time": 178.303886390625,
            "velocity": 0.8110236220472441
          },
          {
            "duration": 0.14047661979165582,
            "durationTicks": 98,
            "midi": 40,
            "name": "E2",
            "ticks": 124984,
            "time": 178.57623902083336,
            "velocity": 0.7952755905511811
          },
          {
            "duration": 0.12040853124997852,
            "durationTicks": 84,
            "midi": 40,
            "name": "E2",
            "ticks": 125182,
            "time": 178.86005913020836,
            "velocity": 0.8346456692913385
          },
          {
            "duration": 0.1519440989583245,
            "durationTicks": 106,
            "midi": 40,
            "name": "E2",
            "ticks": 125368,
            "time": 179.12667802083334,
            "velocity": 0.7952755905511811
          },
          {
            "duration": 0.1433434895833443,
            "durationTicks": 100,
            "midi": 40,
            "name": "E2",
            "ticks": 125568,
            "time": 179.413365,
            "velocity": 0.8031496062992126
          },
          {
            "duration": 0.1433434895833443,
            "durationTicks": 100,
            "midi": 40,
            "name": "E2",
            "ticks": 125760,
            "time": 179.6885845,
            "velocity": 0.84251968503937
          },
          {
            "duration": 0.1605447083333047,
            "durationTicks": 112,
            "midi": 40,
            "name": "E2",
            "ticks": 125944,
            "time": 179.95233652083334,
            "velocity": 0.8503937007874016
          },
          {
            "duration": 0.16054470833336154,
            "durationTicks": 112,
            "midi": 40,
            "name": "E2",
            "ticks": 126138,
            "time": 180.230422890625,
            "velocity": 0.8110236220472441
          },
          {
            "duration": 0.1720121875000018,
            "durationTicks": 120,
            "midi": 44,
            "name": "G#2",
            "ticks": 126328,
            "time": 180.50277552083335,
            "velocity": 0.84251968503937
          },
          {
            "duration": 0.16341157812499318,
            "durationTicks": 114,
            "midi": 44,
            "name": "G#2",
            "ticks": 126524,
            "time": 180.78372876041666,
            "velocity": 0.8267716535433071
          },
          {
            "duration": 0.16914531770834174,
            "durationTicks": 118,
            "midi": 50,
            "name": "D3",
            "ticks": 126720,
            "time": 181.064682,
            "velocity": 0.8110236220472441
          },
          {
            "duration": 0.1519440989583245,
            "durationTicks": 106,
            "midi": 50,
            "name": "D3",
            "ticks": 126910,
            "time": 181.33703463020834,
            "velocity": 0.8346456692913385
          },
          {
            "duration": 0.16914531770831331,
            "durationTicks": 118,
            "midi": 44,
            "name": "G#2",
            "ticks": 127096,
            "time": 181.60365352083335,
            "velocity": 0.8503937007874016
          },
          {
            "duration": 0.18634653645830213,
            "durationTicks": 130,
            "midi": 45,
            "name": "A2",
            "ticks": 127294,
            "time": 181.88747363020835,
            "velocity": 0.8110236220472441
          },
          {
            "duration": 0.16627844791665325,
            "durationTicks": 116,
            "midi": 35,
            "name": "B1",
            "ticks": 127488,
            "time": 182.16556,
            "velocity": 0.8267716535433071
          },
          {
            "duration": 0.09747357291664116,
            "durationTicks": 68,
            "midi": 35,
            "name": "B1",
            "ticks": 127672,
            "time": 182.42931202083335,
            "velocity": 0.7480314960629921
          },
          {
            "duration": 0.0946067031249811,
            "durationTicks": 66,
            "midi": 35,
            "name": "B1",
            "ticks": 127774,
            "time": 182.57552238020835,
            "velocity": 0.8110236220472441
          },
          {
            "duration": 0.1318760104166472,
            "durationTicks": 92,
            "midi": 35,
            "name": "B1",
            "ticks": 127872,
            "time": 182.715999,
            "velocity": 0.7874015748031497
          },
          {
            "duration": 0.1318760104166472,
            "durationTicks": 92,
            "midi": 35,
            "name": "B1",
            "ticks": 128062,
            "time": 182.98835163020834,
            "velocity": 0.7874015748031497
          },
          {
            "duration": 0.14907722916669286,
            "durationTicks": 104,
            "midi": 35,
            "name": "B1",
            "ticks": 128252,
            "time": 183.26070426041665,
            "velocity": 0.7637795275590551
          },
          {
            "duration": 0.1519440989583245,
            "durationTicks": 106,
            "midi": 35,
            "name": "B1",
            "ticks": 128444,
            "time": 183.53592376041667,
            "velocity": 0.8110236220472441
          },
          {
            "duration": 0.14621035937500437,
            "durationTicks": 102,
            "midi": 35,
            "name": "B1",
            "ticks": 128636,
            "time": 183.81114326041666,
            "velocity": 0.7165354330708661
          },
          {
            "duration": 0.14047661979165582,
            "durationTicks": 98,
            "midi": 35,
            "name": "B1",
            "ticks": 128832,
            "time": 184.0920965,
            "velocity": 0.8031496062992126
          },
          {
            "duration": 0.15481096874998457,
            "durationTicks": 108,
            "midi": 33,
            "name": "A1",
            "ticks": 129018,
            "time": 184.358715390625,
            "velocity": 0.8110236220472441
          },
          {
            "duration": 0.16627844791665325,
            "durationTicks": 116,
            "midi": 33,
            "name": "A1",
            "ticks": 129208,
            "time": 184.63106802083334,
            "velocity": 0.7952755905511811
          },
          {
            "duration": 0.1519440989583245,
            "durationTicks": 106,
            "midi": 33,
            "name": "A1",
            "ticks": 129406,
            "time": 184.91488813020834,
            "velocity": 0.8031496062992126
          },
          {
            "duration": 0.16054470833336154,
            "durationTicks": 112,
            "midi": 33,
            "name": "A1",
            "ticks": 129600,
            "time": 185.1929745,
            "velocity": 0.7716535433070866
          },
          {
            "duration": 0.14907722916669286,
            "durationTicks": 104,
            "midi": 33,
            "name": "A1",
            "ticks": 129788,
            "time": 185.46246026041666,
            "velocity": 0.8110236220472441
          },
          {
            "duration": 0.154810968750013,
            "durationTicks": 108,
            "midi": 33,
            "name": "A1",
            "ticks": 129982,
            "time": 185.74054663020834,
            "velocity": 0.7401574803149606
          },
          {
            "duration": 0.1433434895833159,
            "durationTicks": 100,
            "midi": 33,
            "name": "A1",
            "ticks": 130170,
            "time": 186.010032390625,
            "velocity": 0.8110236220472441
          },
          {
            "duration": 0.15767783854164463,
            "durationTicks": 110,
            "midi": 33,
            "name": "A1",
            "ticks": 130362,
            "time": 186.285251890625,
            "velocity": 0.7795275590551181
          },
          {
            "duration": 0.16341157812499318,
            "durationTicks": 114,
            "midi": 40,
            "name": "E2",
            "ticks": 130552,
            "time": 186.55760452083334,
            "velocity": 0.8503937007874016
          },
          {
            "duration": 0.08887296354168939,
            "durationTicks": 62,
            "midi": 40,
            "name": "E2",
            "ticks": 130748,
            "time": 186.83855776041665,
            "velocity": 0.7795275590551181
          },
          {
            "duration": 0.09173983333332103,
            "durationTicks": 64,
            "midi": 40,
            "name": "E2",
            "ticks": 130842,
            "time": 186.973300640625,
            "velocity": 0.8346456692913385
          },
          {
            "duration": 0.13760974999999576,
            "durationTicks": 96,
            "midi": 40,
            "name": "E2",
            "ticks": 130936,
            "time": 187.10804352083335,
            "velocity": 0.8031496062992126
          },
          {
            "duration": 0.1433434895833443,
            "durationTicks": 100,
            "midi": 40,
            "name": "E2",
            "ticks": 131136,
            "time": 187.3947305,
            "velocity": 0.8267716535433071
          },
          {
            "duration": 0.15767783854164463,
            "durationTicks": 110,
            "midi": 40,
            "name": "E2",
            "ticks": 131328,
            "time": 187.66995,
            "velocity": 0.8031496062992126
          },
          {
            "duration": 0.15194409895835292,
            "durationTicks": 106,
            "midi": 40,
            "name": "E2",
            "ticks": 131520,
            "time": 187.9451695,
            "velocity": 0.84251968503937
          },
          {
            "duration": 0.2580182812500027,
            "durationTicks": 180,
            "midi": 37,
            "name": "C#2",
            "ticks": 131710,
            "time": 188.21752213020835,
            "velocity": 0.8031496062992126
          },
          {
            "duration": 0.24368393229167395,
            "durationTicks": 170,
            "midi": 35,
            "name": "B1",
            "ticks": 131898,
            "time": 188.487007890625,
            "velocity": 0.8267716535433071
          },
          {
            "duration": 0.1347428802083357,
            "durationTicks": 94,
            "midi": 40,
            "name": "E2",
            "ticks": 132096,
            "time": 188.770828,
            "velocity": 0.8661417322834646
          },
          {
            "duration": 0.1318760104166472,
            "durationTicks": 92,
            "midi": 40,
            "name": "E2",
            "ticks": 133632,
            "time": 190.972584,
            "velocity": 0.84251968503937
          },
          {
            "duration": 0.09460670312500952,
            "durationTicks": 66,
            "midi": 40,
            "name": "E2",
            "ticks": 133816,
            "time": 191.23633602083333,
            "velocity": 0.7322834645669292
          },
          {
            "duration": 0.11754166145831846,
            "durationTicks": 82,
            "midi": 40,
            "name": "E2",
            "ticks": 133912,
            "time": 191.37394577083333,
            "velocity": 0.8267716535433071
          },
          {
            "duration": 0.14047661979165582,
            "durationTicks": 98,
            "midi": 40,
            "name": "E2",
            "ticks": 134016,
            "time": 191.523023,
            "velocity": 0.7480314960629921
          },
          {
            "duration": 0.15481096874998457,
            "durationTicks": 108,
            "midi": 40,
            "name": "E2",
            "ticks": 134202,
            "time": 191.789641890625,
            "velocity": 0.7874015748031497
          },
          {
            "duration": 0.15767783854167305,
            "durationTicks": 110,
            "midi": 40,
            "name": "E2",
            "ticks": 134394,
            "time": 192.064861390625,
            "velocity": 0.7874015748031497
          },
          {
            "duration": 0.154810968750013,
            "durationTicks": 108,
            "midi": 40,
            "name": "E2",
            "ticks": 134592,
            "time": 192.3486815,
            "velocity": 0.8031496062992126
          },
          {
            "duration": 0.1519440989583245,
            "durationTicks": 106,
            "midi": 40,
            "name": "E2",
            "ticks": 134780,
            "time": 192.61816726041667,
            "velocity": 0.7874015748031497
          },
          {
            "duration": 0.14621035937500437,
            "durationTicks": 102,
            "midi": 40,
            "name": "E2",
            "ticks": 134974,
            "time": 192.89625363020835,
            "velocity": 0.8346456692913385
          },
          {
            "duration": 0.14621035937500437,
            "durationTicks": 102,
            "midi": 40,
            "name": "E2",
            "ticks": 135168,
            "time": 193.17434,
            "velocity": 0.8031496062992126
          },
          {
            "duration": 0.08887296354166097,
            "durationTicks": 62,
            "midi": 40,
            "name": "E2",
            "ticks": 135360,
            "time": 193.4495595,
            "velocity": 0.7874015748031497
          },
          {
            "duration": 0.10607418229164978,
            "durationTicks": 74,
            "midi": 40,
            "name": "E2",
            "ticks": 135450,
            "time": 193.578568640625,
            "velocity": 0.7795275590551181
          },
          {
            "duration": 0.13760974999999576,
            "durationTicks": 96,
            "midi": 40,
            "name": "E2",
            "ticks": 135544,
            "time": 193.71331152083334,
            "velocity": 0.8110236220472441
          },
          {
            "duration": 0.14907722916666444,
            "durationTicks": 104,
            "midi": 40,
            "name": "E2",
            "ticks": 135742,
            "time": 193.99713163020834,
            "velocity": 0.7637795275590551
          },
          {
            "duration": 0.13187601041667563,
            "durationTicks": 92,
            "midi": 40,
            "name": "E2",
            "ticks": 135930,
            "time": 194.266617390625,
            "velocity": 0.8267716535433071
          },
          {
            "duration": 0.1433434895833443,
            "durationTicks": 100,
            "midi": 40,
            "name": "E2",
            "ticks": 136124,
            "time": 194.54470376041667,
            "velocity": 0.7637795275590551
          },
          {
            "duration": 0.1318760104166472,
            "durationTicks": 92,
            "midi": 40,
            "name": "E2",
            "ticks": 136318,
            "time": 194.82279013020835,
            "velocity": 0.8346456692913385
          },
          {
            "duration": 0.13760974999999576,
            "durationTicks": 96,
            "midi": 40,
            "name": "E2",
            "ticks": 136510,
            "time": 195.09800963020834,
            "velocity": 0.8031496062992126
          },
          {
            "duration": 0.14047661979165582,
            "durationTicks": 98,
            "midi": 40,
            "name": "E2",
            "ticks": 136696,
            "time": 195.36462852083335,
            "velocity": 0.8346456692913385
          },
          {
            "duration": 0.10034044270832965,
            "durationTicks": 70,
            "midi": 40,
            "name": "E2",
            "ticks": 136888,
            "time": 195.63984802083334,
            "velocity": 0.7716535433070866
          },
          {
            "duration": 0.10894105208333826,
            "durationTicks": 76,
            "midi": 40,
            "name": "E2",
            "ticks": 136988,
            "time": 195.78319151041666,
            "velocity": 0.8267716535433071
          },
          {
            "duration": 0.1433434895833443,
            "durationTicks": 100,
            "midi": 40,
            "name": "E2",
            "ticks": 137082,
            "time": 195.917934390625,
            "velocity": 0.7952755905511811
          },
          {
            "duration": 0.14047661979165582,
            "durationTicks": 98,
            "midi": 40,
            "name": "E2",
            "ticks": 137274,
            "time": 196.193153890625,
            "velocity": 0.7952755905511811
          },
          {
            "duration": 0.154810968750013,
            "durationTicks": 108,
            "midi": 40,
            "name": "E2",
            "ticks": 137464,
            "time": 196.46550652083334,
            "velocity": 0.7716535433070866
          },
          {
            "duration": 0.154810968750013,
            "durationTicks": 108,
            "midi": 40,
            "name": "E2",
            "ticks": 137660,
            "time": 196.74645976041666,
            "velocity": 0.8267716535433071
          },
          {
            "duration": 0.16054470833336154,
            "durationTicks": 112,
            "midi": 40,
            "name": "E2",
            "ticks": 137850,
            "time": 197.018812390625,
            "velocity": 0.7874015748031497
          },
          {
            "duration": 0.15194409895829608,
            "durationTicks": 106,
            "midi": 40,
            "name": "E2",
            "ticks": 138040,
            "time": 197.29116502083335,
            "velocity": 0.8110236220472441
          },
          {
            "duration": 0.1720121875000018,
            "durationTicks": 120,
            "midi": 40,
            "name": "E2",
            "ticks": 138234,
            "time": 197.569251390625,
            "velocity": 0.7637795275590551
          },
          {
            "duration": 0.09460670312500952,
            "durationTicks": 66,
            "midi": 40,
            "name": "E2",
            "ticks": 138432,
            "time": 197.8530715,
            "velocity": 0.8267716535433071
          },
          {
            "duration": 0.12900914062498714,
            "durationTicks": 90,
            "midi": 40,
            "name": "E2",
            "ticks": 138522,
            "time": 197.98208064062501,
            "velocity": 0.7952755905511811
          },
          {
            "duration": 0.12900914062498714,
            "durationTicks": 90,
            "midi": 40,
            "name": "E2",
            "ticks": 138616,
            "time": 198.11682352083335,
            "velocity": 0.8267716535433071
          },
          {
            "duration": 0.1433434895833159,
            "durationTicks": 100,
            "midi": 40,
            "name": "E2",
            "ticks": 138808,
            "time": 198.39204302083334,
            "velocity": 0.7952755905511811
          },
          {
            "duration": 0.14621035937500437,
            "durationTicks": 102,
            "midi": 40,
            "name": "E2",
            "ticks": 139008,
            "time": 198.67873,
            "velocity": 0.8110236220472441
          },
          {
            "duration": 0.15767783854164463,
            "durationTicks": 110,
            "midi": 40,
            "name": "E2",
            "ticks": 139192,
            "time": 198.94248202083335,
            "velocity": 0.7952755905511811
          },
          {
            "duration": 0.14621035937497595,
            "durationTicks": 102,
            "midi": 40,
            "name": "E2",
            "ticks": 139392,
            "time": 199.229169,
            "velocity": 0.8110236220472441
          },
          {
            "duration": 0.15194409895835292,
            "durationTicks": 106,
            "midi": 40,
            "name": "E2",
            "ticks": 139578,
            "time": 199.495787890625,
            "velocity": 0.7795275590551181
          },
          {
            "duration": 0.1634115781250216,
            "durationTicks": 114,
            "midi": 33,
            "name": "A1",
            "ticks": 139770,
            "time": 199.771007390625,
            "velocity": 0.8031496062992126
          },
          {
            "duration": 0.11180792187499833,
            "durationTicks": 78,
            "midi": 33,
            "name": "A1",
            "ticks": 139960,
            "time": 200.04336002083335,
            "velocity": 0.7401574803149606
          },
          {
            "duration": 0.09747357291664116,
            "durationTicks": 68,
            "midi": 33,
            "name": "A1",
            "ticks": 140058,
            "time": 200.183836640625,
            "velocity": 0.7874015748031497
          },
          {
            "duration": 0.1347428802083357,
            "durationTicks": 94,
            "midi": 33,
            "name": "A1",
            "ticks": 140160,
            "time": 200.330047,
            "velocity": 0.7716535433070866
          },
          {
            "duration": 0.12900914062501556,
            "durationTicks": 90,
            "midi": 33,
            "name": "A1",
            "ticks": 140346,
            "time": 200.596665890625,
            "velocity": 0.7874015748031497
          },
          {
            "duration": 0.14907722916666444,
            "durationTicks": 104,
            "midi": 33,
            "name": "A1",
            "ticks": 140542,
            "time": 200.87761913020833,
            "velocity": 0.7795275590551181
          },
          {
            "duration": 0.1347428802083357,
            "durationTicks": 94,
            "midi": 33,
            "name": "A1",
            "ticks": 140732,
            "time": 201.14997176041666,
            "velocity": 0.7952755905511811
          },
          {
            "duration": 0.14907722916666444,
            "durationTicks": 104,
            "midi": 33,
            "name": "A1",
            "ticks": 140926,
            "time": 201.42805813020834,
            "velocity": 0.7716535433070866
          },
          {
            "duration": 0.14621035937497595,
            "durationTicks": 102,
            "midi": 33,
            "name": "A1",
            "ticks": 141114,
            "time": 201.697543890625,
            "velocity": 0.7874015748031497
          },
          {
            "duration": 0.180612796874982,
            "durationTicks": 126,
            "midi": 33,
            "name": "A1",
            "ticks": 141312,
            "time": 201.981364,
            "velocity": 0.7874015748031497
          },
          {
            "duration": 0.0860060937500009,
            "durationTicks": 60,
            "midi": 33,
            "name": "A1",
            "ticks": 141496,
            "time": 202.24511602083334,
            "velocity": 0.7637795275590551
          },
          {
            "duration": 0.1060741822916782,
            "durationTicks": 74,
            "midi": 33,
            "name": "A1",
            "ticks": 141592,
            "time": 202.38272577083333,
            "velocity": 0.7716535433070866
          },
          {
            "duration": 0.11467479166668682,
            "durationTicks": 80,
            "midi": 33,
            "name": "A1",
            "ticks": 141692,
            "time": 202.52606926041665,
            "velocity": 0.8031496062992126
          },
          {
            "duration": 0.13474288020830727,
            "durationTicks": 94,
            "midi": 33,
            "name": "A1",
            "ticks": 141886,
            "time": 202.80415563020836,
            "velocity": 0.7637795275590551
          },
          {
            "duration": 0.14047661979165582,
            "durationTicks": 98,
            "midi": 33,
            "name": "A1",
            "ticks": 142074,
            "time": 203.073641390625,
            "velocity": 0.8031496062992126
          },
          {
            "duration": 0.15767783854164463,
            "durationTicks": 110,
            "midi": 33,
            "name": "A1",
            "ticks": 142272,
            "time": 203.3574615,
            "velocity": 0.7874015748031497
          },
          {
            "duration": 0.14621035937500437,
            "durationTicks": 102,
            "midi": 33,
            "name": "A1",
            "ticks": 142462,
            "time": 203.62981413020833,
            "velocity": 0.8031496062992126
          },
          {
            "duration": 0.14907722916666444,
            "durationTicks": 104,
            "midi": 33,
            "name": "A1",
            "ticks": 142650,
            "time": 203.899299890625,
            "velocity": 0.7480314960629921
          },
          {
            "duration": 0.1892134062499906,
            "durationTicks": 132,
            "midi": 40,
            "name": "E2",
            "ticks": 142846,
            "time": 204.18025313020834,
            "velocity": 0.8031496062992126
          },
          {
            "duration": 0.11180792187499833,
            "durationTicks": 78,
            "midi": 40,
            "name": "E2",
            "ticks": 143032,
            "time": 204.44687202083335,
            "velocity": 0.7874015748031497
          },
          {
            "duration": 0.09460670312500952,
            "durationTicks": 66,
            "midi": 40,
            "name": "E2",
            "ticks": 143136,
            "time": 204.59594925,
            "velocity": 0.8267716535433071
          },
          {
            "duration": 0.1347428802083357,
            "durationTicks": 94,
            "midi": 40,
            "name": "E2",
            "ticks": 143228,
            "time": 204.72782526041667,
            "velocity": 0.8267716535433071
          },
          {
            "duration": 0.12900914062498714,
            "durationTicks": 90,
            "midi": 40,
            "name": "E2",
            "ticks": 143422,
            "time": 205.00591163020835,
            "velocity": 0.8267716535433071
          },
          {
            "duration": 0.16054470833336154,
            "durationTicks": 112,
            "midi": 40,
            "name": "E2",
            "ticks": 143616,
            "time": 205.283998,
            "velocity": 0.8031496062992126
          },
          {
            "duration": 0.13760974999999576,
            "durationTicks": 96,
            "midi": 40,
            "name": "E2",
            "ticks": 143800,
            "time": 205.54775002083335,
            "velocity": 0.8267716535433071
          },
          {
            "duration": 0.15194409895829608,
            "durationTicks": 106,
            "midi": 40,
            "name": "E2",
            "ticks": 143998,
            "time": 205.83157013020835,
            "velocity": 0.8110236220472441
          },
          {
            "duration": 0.15194409895835292,
            "durationTicks": 106,
            "midi": 40,
            "name": "E2",
            "ticks": 144188,
            "time": 206.10392276041665,
            "velocity": 0.8110236220472441
          },
          {
            "duration": 0.1720121875000018,
            "durationTicks": 120,
            "midi": 40,
            "name": "E2",
            "ticks": 144382,
            "time": 206.38200913020833,
            "velocity": 0.8110236220472441
          },
          {
            "duration": 0.08313922395831241,
            "durationTicks": 58,
            "midi": 40,
            "name": "E2",
            "ticks": 144568,
            "time": 206.64862802083334,
            "velocity": 0.8031496062992126
          },
          {
            "duration": 0.12040853125000694,
            "durationTicks": 84,
            "midi": 40,
            "name": "E2",
            "ticks": 144666,
            "time": 206.789104640625,
            "velocity": 0.8031496062992126
          },
          {
            "duration": 0.11754166145834688,
            "durationTicks": 82,
            "midi": 40,
            "name": "E2",
            "ticks": 144764,
            "time": 206.92958126041665,
            "velocity": 0.8110236220472441
          },
          {
            "duration": 0.14047661979165582,
            "durationTicks": 98,
            "midi": 40,
            "name": "E2",
            "ticks": 144958,
            "time": 207.20766763020833,
            "velocity": 0.7952755905511811
          },
          {
            "duration": 0.12040853125000694,
            "durationTicks": 84,
            "midi": 40,
            "name": "E2",
            "ticks": 145144,
            "time": 207.47428652083335,
            "velocity": 0.8346456692913385
          },
          {
            "duration": 0.15194409895835292,
            "durationTicks": 106,
            "midi": 40,
            "name": "E2",
            "ticks": 145338,
            "time": 207.752372890625,
            "velocity": 0.7952755905511811
          },
          {
            "duration": 0.1433434895833443,
            "durationTicks": 100,
            "midi": 40,
            "name": "E2",
            "ticks": 145530,
            "time": 208.027592390625,
            "velocity": 0.8031496062992126
          },
          {
            "duration": 0.1433434895833159,
            "durationTicks": 100,
            "midi": 40,
            "name": "E2",
            "ticks": 145720,
            "time": 208.29994502083335,
            "velocity": 0.84251968503937
          },
          {
            "duration": 0.16627844791668167,
            "durationTicks": 116,
            "midi": 35,
            "name": "B1",
            "ticks": 145916,
            "time": 208.58089826041666,
            "velocity": 0.8267716535433071
          },
          {
            "duration": 0.09747357291666958,
            "durationTicks": 68,
            "midi": 35,
            "name": "B1",
            "ticks": 146106,
            "time": 208.853250890625,
            "velocity": 0.7480314960629921
          },
          {
            "duration": 0.09460670312500952,
            "durationTicks": 66,
            "midi": 35,
            "name": "B1",
            "ticks": 146204,
            "time": 208.99372751041665,
            "velocity": 0.8110236220472441
          },
          {
            "duration": 0.1318760104166472,
            "durationTicks": 92,
            "midi": 35,
            "name": "B1",
            "ticks": 146298,
            "time": 209.128470390625,
            "velocity": 0.7874015748031497
          },
          {
            "duration": 0.1318760104166472,
            "durationTicks": 92,
            "midi": 35,
            "name": "B1",
            "ticks": 146490,
            "time": 209.403689890625,
            "velocity": 0.7874015748031497
          },
          {
            "duration": 0.14907722916666444,
            "durationTicks": 104,
            "midi": 35,
            "name": "B1",
            "ticks": 146682,
            "time": 209.678909390625,
            "velocity": 0.7637795275590551
          },
          {
            "duration": 0.15194409895829608,
            "durationTicks": 106,
            "midi": 35,
            "name": "B1",
            "ticks": 146872,
            "time": 209.95126202083335,
            "velocity": 0.8110236220472441
          },
          {
            "duration": 0.14621035937500437,
            "durationTicks": 102,
            "midi": 35,
            "name": "B1",
            "ticks": 147064,
            "time": 210.22648152083335,
            "velocity": 0.7165354330708661
          },
          {
            "duration": 0.14047661979165582,
            "durationTicks": 98,
            "midi": 33,
            "name": "A1",
            "ticks": 147262,
            "time": 210.51030163020835,
            "velocity": 0.8031496062992126
          },
          {
            "duration": 0.154810968750013,
            "durationTicks": 108,
            "midi": 33,
            "name": "A1",
            "ticks": 147450,
            "time": 210.779787390625,
            "velocity": 0.8110236220472441
          },
          {
            "duration": 0.16627844791665325,
            "durationTicks": 116,
            "midi": 33,
            "name": "A1",
            "ticks": 147642,
            "time": 211.055006890625,
            "velocity": 0.7952755905511811
          },
          {
            "duration": 0.1519440989583245,
            "durationTicks": 106,
            "midi": 33,
            "name": "A1",
            "ticks": 147832,
            "time": 211.32735952083334,
            "velocity": 0.8031496062992126
          },
          {
            "duration": 0.16054470833336154,
            "durationTicks": 112,
            "midi": 33,
            "name": "A1",
            "ticks": 148028,
            "time": 211.60831276041665,
            "velocity": 0.7716535433070866
          },
          {
            "duration": 0.14907722916666444,
            "durationTicks": 104,
            "midi": 33,
            "name": "A1",
            "ticks": 148224,
            "time": 211.889266,
            "velocity": 0.8110236220472441
          },
          {
            "duration": 0.154810968750013,
            "durationTicks": 108,
            "midi": 33,
            "name": "A1",
            "ticks": 148408,
            "time": 212.15301802083334,
            "velocity": 0.7401574803149606
          },
          {
            "duration": 0.1433434895833159,
            "durationTicks": 100,
            "midi": 33,
            "name": "A1",
            "ticks": 148600,
            "time": 212.42823752083333,
            "velocity": 0.8110236220472441
          },
          {
            "duration": 0.15767783854167305,
            "durationTicks": 110,
            "midi": 33,
            "name": "A1",
            "ticks": 148800,
            "time": 212.7149245,
            "velocity": 0.7795275590551181
          },
          {
            "duration": 0.1720121875000018,
            "durationTicks": 120,
            "midi": 40,
            "name": "E2",
            "ticks": 148988,
            "time": 212.98441026041667,
            "velocity": 0.8110236220472441
          },
          {
            "duration": 0.08313922395831241,
            "durationTicks": 58,
            "midi": 40,
            "name": "E2",
            "ticks": 149182,
            "time": 213.26249663020835,
            "velocity": 0.8031496062992126
          },
          {
            "duration": 0.12040853125000694,
            "durationTicks": 84,
            "midi": 40,
            "name": "E2",
            "ticks": 149280,
            "time": 213.40297325,
            "velocity": 0.8031496062992126
          },
          {
            "duration": 0.11754166145834688,
            "durationTicks": 82,
            "midi": 40,
            "name": "E2",
            "ticks": 149376,
            "time": 213.540583,
            "velocity": 0.8110236220472441
          },
          {
            "duration": 0.14047661979165582,
            "durationTicks": 98,
            "midi": 40,
            "name": "E2",
            "ticks": 149566,
            "time": 213.81293563020836,
            "velocity": 0.7952755905511811
          },
          {
            "duration": 0.12040853125000694,
            "durationTicks": 84,
            "midi": 40,
            "name": "E2",
            "ticks": 149756,
            "time": 214.08528826041666,
            "velocity": 0.8346456692913385
          },
          {
            "duration": 0.15194409895835292,
            "durationTicks": 106,
            "midi": 40,
            "name": "E2",
            "ticks": 149952,
            "time": 214.3662415,
            "velocity": 0.7952755905511811
          },
          {
            "duration": 0.1433434895833443,
            "durationTicks": 100,
            "midi": 40,
            "name": "E2",
            "ticks": 150144,
            "time": 214.641461,
            "velocity": 0.8031496062992126
          },
          {
            "duration": 0.1433434895833443,
            "durationTicks": 100,
            "midi": 40,
            "name": "E2",
            "ticks": 150336,
            "time": 214.9166805,
            "velocity": 0.84251968503937
          },
          {
            "duration": 0.1605447083333047,
            "durationTicks": 112,
            "midi": 40,
            "name": "E2",
            "ticks": 150526,
            "time": 215.18903313020834,
            "velocity": 0.8503937007874016
          },
          {
            "duration": 0.1605447083333047,
            "durationTicks": 112,
            "midi": 40,
            "name": "E2",
            "ticks": 150712,
            "time": 215.45565202083336,
            "velocity": 0.8110236220472441
          },
          {
            "duration": 0.1720121875000018,
            "durationTicks": 120,
            "midi": 44,
            "name": "G#2",
            "ticks": 150904,
            "time": 215.73087152083335,
            "velocity": 0.84251968503937
          },
          {
            "duration": 0.16341157812499318,
            "durationTicks": 114,
            "midi": 44,
            "name": "G#2",
            "ticks": 151098,
            "time": 216.008957890625,
            "velocity": 0.8267716535433071
          },
          {
            "duration": 0.16914531770834174,
            "durationTicks": 118,
            "midi": 50,
            "name": "D3",
            "ticks": 151296,
            "time": 216.292778,
            "velocity": 0.8110236220472441
          },
          {
            "duration": 0.15194409895835292,
            "durationTicks": 106,
            "midi": 50,
            "name": "D3",
            "ticks": 151488,
            "time": 216.5679975,
            "velocity": 0.8346456692913385
          },
          {
            "duration": 0.16914531770834174,
            "durationTicks": 118,
            "midi": 44,
            "name": "G#2",
            "ticks": 151676,
            "time": 216.83748326041666,
            "velocity": 0.8503937007874016
          },
          {
            "duration": 0.18634653645830213,
            "durationTicks": 130,
            "midi": 45,
            "name": "A2",
            "ticks": 151870,
            "time": 217.11556963020834,
            "velocity": 0.8110236220472441
          },
          {
            "duration": 0.16627844791665325,
            "durationTicks": 116,
            "midi": 35,
            "name": "B1",
            "ticks": 152064,
            "time": 217.393656,
            "velocity": 0.8267716535433071
          },
          {
            "duration": 0.09747357291664116,
            "durationTicks": 68,
            "midi": 35,
            "name": "B1",
            "ticks": 152254,
            "time": 217.66600863020835,
            "velocity": 0.7480314960629921
          },
          {
            "duration": 0.0946067031249811,
            "durationTicks": 66,
            "midi": 35,
            "name": "B1",
            "ticks": 152352,
            "time": 217.80648525,
            "velocity": 0.8110236220472441
          },
          {
            "duration": 0.13187601041667563,
            "durationTicks": 92,
            "midi": 35,
            "name": "B1",
            "ticks": 152444,
            "time": 217.93836126041666,
            "velocity": 0.7874015748031497
          },
          {
            "duration": 0.1318760104166472,
            "durationTicks": 92,
            "midi": 35,
            "name": "B1",
            "ticks": 152632,
            "time": 218.20784702083336,
            "velocity": 0.7874015748031497
          },
          {
            "duration": 0.14907722916666444,
            "durationTicks": 104,
            "midi": 35,
            "name": "B1",
            "ticks": 152832,
            "time": 218.494534,
            "velocity": 0.7637795275590551
          },
          {
            "duration": 0.15194409895829608,
            "durationTicks": 106,
            "midi": 35,
            "name": "B1",
            "ticks": 153022,
            "time": 218.76688663020835,
            "velocity": 0.8110236220472441
          },
          {
            "duration": 0.14621035937500437,
            "durationTicks": 102,
            "midi": 35,
            "name": "B1",
            "ticks": 153210,
            "time": 219.036372390625,
            "velocity": 0.7165354330708661
          },
          {
            "duration": 0.14047661979165582,
            "durationTicks": 98,
            "midi": 33,
            "name": "A1",
            "ticks": 153406,
            "time": 219.31732563020836,
            "velocity": 0.8031496062992126
          },
          {
            "duration": 0.154810968750013,
            "durationTicks": 108,
            "midi": 33,
            "name": "A1",
            "ticks": 153592,
            "time": 219.58394452083334,
            "velocity": 0.8110236220472441
          },
          {
            "duration": 0.16627844791665325,
            "durationTicks": 116,
            "midi": 33,
            "name": "A1",
            "ticks": 153786,
            "time": 219.862030890625,
            "velocity": 0.7952755905511811
          },
          {
            "duration": 0.1519440989583245,
            "durationTicks": 106,
            "midi": 33,
            "name": "A1",
            "ticks": 153982,
            "time": 220.14298413020833,
            "velocity": 0.8031496062992126
          },
          {
            "duration": 0.16054470833333312,
            "durationTicks": 112,
            "midi": 33,
            "name": "A1",
            "ticks": 154170,
            "time": 220.412469890625,
            "velocity": 0.7716535433070866
          },
          {
            "duration": 0.14907722916666444,
            "durationTicks": 104,
            "midi": 33,
            "name": "A1",
            "ticks": 154360,
            "time": 220.68482252083334,
            "velocity": 0.8110236220472441
          },
          {
            "duration": 0.15481096874998457,
            "durationTicks": 108,
            "midi": 33,
            "name": "A1",
            "ticks": 154552,
            "time": 220.96004202083336,
            "velocity": 0.7401574803149606
          },
          {
            "duration": 0.1433434895833443,
            "durationTicks": 100,
            "midi": 33,
            "name": "A1",
            "ticks": 154746,
            "time": 221.238128390625,
            "velocity": 0.8110236220472441
          },
          {
            "duration": 0.15767783854164463,
            "durationTicks": 110,
            "midi": 33,
            "name": "A1",
            "ticks": 154944,
            "time": 221.5219485,
            "velocity": 0.7795275590551181
          },
          {
            "duration": 0.16341157812499318,
            "durationTicks": 114,
            "midi": 40,
            "name": "E2",
            "ticks": 155136,
            "time": 221.797168,
            "velocity": 0.8503937007874016
          },
          {
            "duration": 0.08887296354166097,
            "durationTicks": 62,
            "midi": 40,
            "name": "E2",
            "ticks": 155328,
            "time": 222.0723875,
            "velocity": 0.7795275590551181
          },
          {
            "duration": 0.09173983333332103,
            "durationTicks": 64,
            "midi": 40,
            "name": "E2",
            "ticks": 155424,
            "time": 222.20999725000001,
            "velocity": 0.8346456692913385
          },
          {
            "duration": 0.13760974999999576,
            "durationTicks": 96,
            "midi": 40,
            "name": "E2",
            "ticks": 155518,
            "time": 222.34474013020835,
            "velocity": 0.8031496062992126
          },
          {
            "duration": 0.1433434895833443,
            "durationTicks": 100,
            "midi": 40,
            "name": "E2",
            "ticks": 155712,
            "time": 222.6228265,
            "velocity": 0.8267716535433071
          },
          {
            "duration": 0.15767783854167305,
            "durationTicks": 110,
            "midi": 40,
            "name": "E2",
            "ticks": 155902,
            "time": 222.89517913020833,
            "velocity": 0.8031496062992126
          },
          {
            "duration": 0.15194409895829608,
            "durationTicks": 106,
            "midi": 40,
            "name": "E2",
            "ticks": 156094,
            "time": 223.17039863020835,
            "velocity": 0.84251968503937
          },
          {
            "duration": 0.25228454166665415,
            "durationTicks": 176,
            "midi": 37,
            "name": "C#2",
            "ticks": 156282,
            "time": 223.439884390625,
            "velocity": 0.8031496062992126
          },
          {
            "duration": 0.24368393229167395,
            "durationTicks": 170,
            "midi": 35,
            "name": "B1",
            "ticks": 156480,
            "time": 223.7237045,
            "velocity": 0.8267716535433071
          },
          {
            "duration": 0.13474288020830727,
            "durationTicks": 94,
            "midi": 40,
            "name": "E2",
            "ticks": 156664,
            "time": 223.98745652083335,
            "velocity": 0.8661417322834646
          },
          {
            "duration": 0.13187601041667563,
            "durationTicks": 92,
            "midi": 40,
            "name": "E2",
            "ticks": 158200,
            "time": 226.18921252083334,
            "velocity": 0.84251968503937
          },
          {
            "duration": 0.09460670312500952,
            "durationTicks": 66,
            "midi": 40,
            "name": "E2",
            "ticks": 158398,
            "time": 226.47303263020834,
            "velocity": 0.7322834645669292
          },
          {
            "duration": 0.11754166145831846,
            "durationTicks": 82,
            "midi": 40,
            "name": "E2",
            "ticks": 158488,
            "time": 226.60204177083335,
            "velocity": 0.8267716535433071
          },
          {
            "duration": 0.14047661979165582,
            "durationTicks": 98,
            "midi": 40,
            "name": "E2",
            "ticks": 158584,
            "time": 226.73965152083335,
            "velocity": 0.7480314960629921
          },
          {
            "duration": 0.15481096874998457,
            "durationTicks": 108,
            "midi": 40,
            "name": "E2",
            "ticks": 158782,
            "time": 227.02347163020835,
            "velocity": 0.7874015748031497
          },
          {
            "duration": 0.15767783854170148,
            "durationTicks": 110,
            "midi": 40,
            "name": "E2",
            "ticks": 158972,
            "time": 227.29582426041665,
            "velocity": 0.7874015748031497
          },
          {
            "duration": 0.154810968750013,
            "durationTicks": 108,
            "midi": 40,
            "name": "E2",
            "ticks": 159166,
            "time": 227.57391063020833,
            "velocity": 0.8031496062992126
          },
          {
            "duration": 0.1519440989583245,
            "durationTicks": 106,
            "midi": 40,
            "name": "E2",
            "ticks": 159352,
            "time": 227.84052952083334,
            "velocity": 0.7874015748031497
          },
          {
            "duration": 0.14621035937500437,
            "durationTicks": 102,
            "midi": 40,
            "name": "E2",
            "ticks": 159546,
            "time": 228.118615890625,
            "velocity": 0.8346456692913385
          },
          {
            "duration": 0.14621035937500437,
            "durationTicks": 102,
            "midi": 40,
            "name": "E2",
            "ticks": 159736,
            "time": 228.39096852083335,
            "velocity": 0.8031496062992126
          },
          {
            "duration": 0.08887296354168939,
            "durationTicks": 62,
            "midi": 40,
            "name": "E2",
            "ticks": 159932,
            "time": 228.67192176041667,
            "velocity": 0.7874015748031497
          },
          {
            "duration": 0.10607418229164978,
            "durationTicks": 74,
            "midi": 40,
            "name": "E2",
            "ticks": 160032,
            "time": 228.81526525,
            "velocity": 0.7795275590551181
          },
          {
            "duration": 0.13760974999999576,
            "durationTicks": 96,
            "midi": 40,
            "name": "E2",
            "ticks": 160122,
            "time": 228.944274390625,
            "velocity": 0.8110236220472441
          },
          {
            "duration": 0.14907722916669286,
            "durationTicks": 104,
            "midi": 40,
            "name": "E2",
            "ticks": 160316,
            "time": 229.22236076041665,
            "velocity": 0.7637795275590551
          },
          {
            "duration": 0.13187601041667563,
            "durationTicks": 92,
            "midi": 40,
            "name": "E2",
            "ticks": 160512,
            "time": 229.503314,
            "velocity": 0.8267716535433071
          },
          {
            "duration": 0.1433434895833443,
            "durationTicks": 100,
            "midi": 40,
            "name": "E2",
            "ticks": 160700,
            "time": 229.77279976041666,
            "velocity": 0.7637795275590551
          },
          {
            "duration": 0.13187601041670405,
            "durationTicks": 92,
            "midi": 40,
            "name": "E2",
            "ticks": 160892,
            "time": 230.04801926041665,
            "velocity": 0.8346456692913385
          },
          {
            "duration": 0.13760975000002418,
            "durationTicks": 96,
            "midi": 40,
            "name": "E2",
            "ticks": 161084,
            "time": 230.32323876041664,
            "velocity": 0.8031496062992126
          },
          {
            "duration": 0.14047661979165582,
            "durationTicks": 98,
            "midi": 40,
            "name": "E2",
            "ticks": 161274,
            "time": 230.595591390625,
            "velocity": 0.8346456692913385
          },
          {
            "duration": 0.10034044270832965,
            "durationTicks": 70,
            "midi": 40,
            "name": "E2",
            "ticks": 161472,
            "time": 230.8794115,
            "velocity": 0.7716535433070866
          },
          {
            "duration": 0.10894105208330984,
            "durationTicks": 76,
            "midi": 40,
            "name": "E2",
            "ticks": 161560,
            "time": 231.00555377083336,
            "velocity": 0.8267716535433071
          },
          {
            "duration": 0.1433434895833443,
            "durationTicks": 100,
            "midi": 40,
            "name": "E2",
            "ticks": 161658,
            "time": 231.14603039062501,
            "velocity": 0.7952755905511811
          },
          {
            "duration": 0.14047661979168424,
            "durationTicks": 98,
            "midi": 40,
            "name": "E2",
            "ticks": 161852,
            "time": 231.42411676041667,
            "velocity": 0.7952755905511811
          },
          {
            "duration": 0.154810968750013,
            "durationTicks": 108,
            "midi": 40,
            "name": "E2",
            "ticks": 162044,
            "time": 231.69933626041666,
            "velocity": 0.7716535433070866
          },
          {
            "duration": 0.15481096874998457,
            "durationTicks": 108,
            "midi": 40,
            "name": "E2",
            "ticks": 162232,
            "time": 231.96882202083336,
            "velocity": 0.8267716535433071
          },
          {
            "duration": 0.16054470833333312,
            "durationTicks": 112,
            "midi": 40,
            "name": "E2",
            "ticks": 162428,
            "time": 232.24977526041667,
            "velocity": 0.7874015748031497
          },
          {
            "duration": 0.15194409895829608,
            "durationTicks": 106,
            "midi": 40,
            "name": "E2",
            "ticks": 162622,
            "time": 232.52786163020835,
            "velocity": 0.8110236220472441
          },
          {
            "duration": 0.1720121875000018,
            "durationTicks": 120,
            "midi": 40,
            "name": "E2",
            "ticks": 162816,
            "time": 232.805948,
            "velocity": 0.7637795275590551
          },
          {
            "duration": 0.1146747916666584,
            "durationTicks": 80,
            "midi": 40,
            "name": "E2",
            "ticks": 163002,
            "time": 233.072566890625,
            "velocity": 0.8267716535433071
          },
          {
            "duration": 0.12900914062498714,
            "durationTicks": 90,
            "midi": 40,
            "name": "E2",
            "ticks": 163100,
            "time": 233.21304351041667,
            "velocity": 0.7952755905511811
          },
          {
            "duration": 0.12900914062498714,
            "durationTicks": 90,
            "midi": 40,
            "name": "E2",
            "ticks": 163200,
            "time": 233.356387,
            "velocity": 0.8267716535433071
          },
          {
            "duration": 0.1433434895833159,
            "durationTicks": 100,
            "midi": 40,
            "name": "E2",
            "ticks": 163384,
            "time": 233.62013902083334,
            "velocity": 0.7952755905511811
          },
          {
            "duration": 0.14621035937497595,
            "durationTicks": 102,
            "midi": 40,
            "name": "E2",
            "ticks": 163576,
            "time": 233.89535852083335,
            "velocity": 0.8110236220472441
          },
          {
            "duration": 0.15767783854164463,
            "durationTicks": 110,
            "midi": 40,
            "name": "E2",
            "ticks": 163768,
            "time": 234.17057802083335,
            "velocity": 0.7952755905511811
          },
          {
            "duration": 0.14621035937500437,
            "durationTicks": 102,
            "midi": 40,
            "name": "E2",
            "ticks": 163964,
            "time": 234.45153126041666,
            "velocity": 0.8110236220472441
          },
          {
            "duration": 0.15194409895835292,
            "durationTicks": 106,
            "midi": 40,
            "name": "E2",
            "ticks": 164154,
            "time": 234.723883890625,
            "velocity": 0.7795275590551181
          },
          {
            "duration": 0.13187601041667563,
            "durationTicks": 92,
            "midi": 40,
            "name": "E2",
            "ticks": 164348,
            "time": 235.00197026041667,
            "velocity": 0.84251968503937
          },
          {
            "duration": 0.09460670312500952,
            "durationTicks": 66,
            "midi": 40,
            "name": "E2",
            "ticks": 164538,
            "time": 235.274322890625,
            "velocity": 0.7322834645669292
          },
          {
            "duration": 0.11754166145831846,
            "durationTicks": 82,
            "midi": 40,
            "name": "E2",
            "ticks": 164632,
            "time": 235.40906577083334,
            "velocity": 0.8267716535433071
          },
          {
            "duration": 0.14047661979165582,
            "durationTicks": 98,
            "midi": 40,
            "name": "E2",
            "ticks": 164736,
            "time": 235.558143,
            "velocity": 0.7480314960629921
          },
          {
            "duration": 0.15481096874998457,
            "durationTicks": 108,
            "midi": 40,
            "name": "E2",
            "ticks": 164922,
            "time": 235.824761890625,
            "velocity": 0.7874015748031497
          },
          {
            "duration": 0.15767783854164463,
            "durationTicks": 110,
            "midi": 40,
            "name": "E2",
            "ticks": 165120,
            "time": 236.108582,
            "velocity": 0.7874015748031497
          },
          {
            "duration": 0.154810968750013,
            "durationTicks": 108,
            "midi": 40,
            "name": "E2",
            "ticks": 165306,
            "time": 236.375200890625,
            "velocity": 0.8031496062992126
          },
          {
            "duration": 0.1519440989583245,
            "durationTicks": 106,
            "midi": 40,
            "name": "E2",
            "ticks": 165502,
            "time": 236.65615413020834,
            "velocity": 0.7874015748031497
          },
          {
            "duration": 0.14621035937500437,
            "durationTicks": 102,
            "midi": 40,
            "name": "E2",
            "ticks": 165688,
            "time": 236.92277302083335,
            "velocity": 0.8346456692913385
          },
          {
            "duration": 0.1318760104166472,
            "durationTicks": 92,
            "midi": 40,
            "name": "E2",
            "ticks": 165888,
            "time": 237.20946,
            "velocity": 0.84251968503937
          },
          {
            "duration": 0.09460670312500952,
            "durationTicks": 66,
            "midi": 40,
            "name": "E2",
            "ticks": 166078,
            "time": 237.48181263020834,
            "velocity": 0.7322834645669292
          },
          {
            "duration": 0.11754166145831846,
            "durationTicks": 82,
            "midi": 40,
            "name": "E2",
            "ticks": 166174,
            "time": 237.61942238020833,
            "velocity": 0.8267716535433071
          },
          {
            "duration": 0.14047661979165582,
            "durationTicks": 98,
            "midi": 40,
            "name": "E2",
            "ticks": 166272,
            "time": 237.759899,
            "velocity": 0.7480314960629921
          },
          {
            "duration": 0.15481096874998457,
            "durationTicks": 108,
            "midi": 40,
            "name": "E2",
            "ticks": 166462,
            "time": 238.03225163020835,
            "velocity": 0.7874015748031497
          },
          {
            "duration": 0.15767783854164463,
            "durationTicks": 110,
            "midi": 40,
            "name": "E2",
            "ticks": 166656,
            "time": 238.310338,
            "velocity": 0.7874015748031497
          },
          {
            "duration": 0.154810968750013,
            "durationTicks": 108,
            "midi": 40,
            "name": "E2",
            "ticks": 166846,
            "time": 238.58269063020833,
            "velocity": 0.8031496062992126
          },
          {
            "duration": 0.1519440989583245,
            "durationTicks": 106,
            "midi": 40,
            "name": "E2",
            "ticks": 167040,
            "time": 238.860777,
            "velocity": 0.7874015748031497
          },
          {
            "duration": 0.14621035937500437,
            "durationTicks": 102,
            "midi": 40,
            "name": "E2",
            "ticks": 167232,
            "time": 239.1359965,
            "velocity": 0.8346456692913385
          },
          {
            "duration": 0.14621035937500437,
            "durationTicks": 102,
            "midi": 40,
            "name": "E2",
            "ticks": 167418,
            "time": 239.402615390625,
            "velocity": 0.8031496062992126
          }
        ],
        "endOfTrackTicks": 167712
      },
      {
        "channel": 2,
        "controlChanges": {},
        "pitchBends": [],
        "instrument": {
          "family": "piano",
          "number": 0,
          "name": "acoustic grand piano"
        },
        "name": "",
        "notes": [
          {
            "duration": 0.1146747916666655,
            "durationTicks": 80,
            "midi": 59,
            "name": "B3",
            "ticks": 29752,
            "time": 42.06736702083334,
            "velocity": 0.9291338582677166
          },
          {
            "duration": 0.2092814947916679,
            "durationTicks": 146,
            "midi": 64,
            "name": "E4",
            "ticks": 29950,
            "time": 42.35118713020834,
            "velocity": 0.9291338582677166
          },
          {
            "duration": 0.21788210416666232,
            "durationTicks": 152,
            "midi": 66,
            "name": "F#4",
            "ticks": 30238,
            "time": 42.76401638020834,
            "velocity": 0.889763779527559
          },
          {
            "duration": 0.20354775520834067,
            "durationTicks": 142,
            "midi": 66,
            "name": "F#4",
            "ticks": 30528,
            "time": 43.1797125,
            "velocity": 0.905511811023622
          },
          {
            "duration": 0.2694857604166643,
            "durationTicks": 188,
            "midi": 66,
            "name": "F#4",
            "ticks": 30720,
            "time": 43.45493200000001,
            "velocity": 0.9133858267716536
          },
          {
            "duration": 0.5189034322916655,
            "durationTicks": 362,
            "midi": 68,
            "name": "G#4",
            "ticks": 30910,
            "time": 43.72728463020834,
            "velocity": 0.889763779527559
          },
          {
            "duration": 0.2092814947916679,
            "durationTicks": 146,
            "midi": 59,
            "name": "B3",
            "ticks": 32824,
            "time": 46.47087902083334,
            "velocity": 0.9291338582677166
          },
          {
            "duration": 0.34975811458333084,
            "durationTicks": 244,
            "midi": 64,
            "name": "E4",
            "ticks": 33022,
            "time": 46.75469913020834,
            "velocity": 0.9133858267716536
          },
          {
            "duration": 0.3554918541666652,
            "durationTicks": 248,
            "midi": 66,
            "name": "F#4",
            "ticks": 33310,
            "time": 47.16752838020834,
            "velocity": 0.9212598425196851
          },
          {
            "duration": 0.27235263020833145,
            "durationTicks": 190,
            "midi": 69,
            "name": "A4",
            "ticks": 33592,
            "time": 47.57175702083334,
            "velocity": 0.889763779527559
          },
          {
            "duration": 0.581974567708329,
            "durationTicks": 406,
            "midi": 68,
            "name": "G#4",
            "ticks": 33790,
            "time": 47.85557713020834,
            "velocity": 0.9133858267716536
          },
          {
            "duration": 0.1920802760416649,
            "durationTicks": 134,
            "midi": 59,
            "name": "B3",
            "ticks": 35898,
            "time": 50.877257890625,
            "velocity": 0.9212598425196851
          },
          {
            "duration": 0.335423765624995,
            "durationTicks": 234,
            "midi": 64,
            "name": "E4",
            "ticks": 36094,
            "time": 51.15821113020834,
            "velocity": 0.9133858267716536
          },
          {
            "duration": 0.32108941666666624,
            "durationTicks": 224,
            "midi": 66,
            "name": "F#4",
            "ticks": 36378,
            "time": 51.565306640625,
            "velocity": 0.9133858267716536
          },
          {
            "duration": 0.22361584375000376,
            "durationTicks": 156,
            "midi": 66,
            "name": "F#4",
            "ticks": 36664,
            "time": 51.97526902083334,
            "velocity": 0.9133858267716536
          },
          {
            "duration": 0.3411575052083222,
            "durationTicks": 238,
            "midi": 69,
            "name": "A4",
            "ticks": 36856,
            "time": 52.25048852083334,
            "velocity": 0.905511811023622
          },
          {
            "duration": 0.35835872395833235,
            "durationTicks": 250,
            "midi": 68,
            "name": "G#4",
            "ticks": 37144,
            "time": 52.66331777083334,
            "velocity": 0.9133858267716536
          },
          {
            "duration": 0.2494176718750012,
            "durationTicks": 174,
            "midi": 66,
            "name": "F#4",
            "ticks": 37434,
            "time": 53.079013890625006,
            "velocity": 0.8976377952755905
          },
          {
            "duration": 0.3554918541666723,
            "durationTicks": 248,
            "midi": 69,
            "name": "A4",
            "ticks": 37628,
            "time": 53.357100260416665,
            "velocity": 0.8976377952755905
          },
          {
            "duration": 0.352624984374998,
            "durationTicks": 246,
            "midi": 68,
            "name": "G#4",
            "ticks": 37914,
            "time": 53.76706264062501,
            "velocity": 0.889763779527559
          },
          {
            "duration": 0.2494176718750012,
            "durationTicks": 174,
            "midi": 66,
            "name": "F#4",
            "ticks": 38204,
            "time": 54.18275876041667,
            "velocity": 0.8661417322834646
          },
          {
            "duration": 0.2694857604166785,
            "durationTicks": 188,
            "midi": 69,
            "name": "A4",
            "ticks": 38588,
            "time": 54.733197760416665,
            "velocity": 0.9133858267716536
          },
          {
            "duration": 0.27235263020833145,
            "durationTicks": 190,
            "midi": 68,
            "name": "G#4",
            "ticks": 38780,
            "time": 55.00841726041667,
            "velocity": 0.8976377952755905
          },
          {
            "duration": 0.2006808854166593,
            "durationTicks": 140,
            "midi": 66,
            "name": "F#4",
            "ticks": 38974,
            "time": 55.286503630208344,
            "velocity": 0.889763779527559
          },
          {
            "duration": 0.26088515104166277,
            "durationTicks": 182,
            "midi": 69,
            "name": "A4",
            "ticks": 39354,
            "time": 55.83120889062501,
            "velocity": 0.9133858267716536
          },
          {
            "duration": 0.26088515104166277,
            "durationTicks": 182,
            "midi": 68,
            "name": "G#4",
            "ticks": 39550,
            "time": 56.11216213020834,
            "velocity": 0.8976377952755905
          },
          {
            "duration": 0.229349583333331,
            "durationTicks": 160,
            "midi": 66,
            "name": "F#4",
            "ticks": 39740,
            "time": 56.38451476041667,
            "velocity": 0.8818897637795275
          },
          {
            "duration": 0.8199247604166615,
            "durationTicks": 572,
            "midi": 66,
            "name": "F#4",
            "ticks": 39928,
            "time": 56.65400052083334,
            "velocity": 0.9133858267716536
          },
          {
            "duration": 0.13474288020832859,
            "durationTicks": 94,
            "midi": 68,
            "name": "G#4",
            "ticks": 40504,
            "time": 57.47965902083334,
            "velocity": 0.889763779527559
          },
          {
            "duration": 0.10894105208333826,
            "durationTicks": 76,
            "midi": 66,
            "name": "F#4",
            "ticks": 40604,
            "time": 57.62300251041667,
            "velocity": 0.8661417322834646
          },
          {
            "duration": 0.5733739583333346,
            "durationTicks": 400,
            "midi": 64,
            "name": "E4",
            "ticks": 40700,
            "time": 57.76061226041667,
            "velocity": 0.8346456692913385
          },
          {
            "duration": 0.12900914062500135,
            "durationTicks": 90,
            "midi": 66,
            "name": "F#4",
            "ticks": 42044,
            "time": 59.68714876041667,
            "velocity": 0.9212598425196851
          },
          {
            "duration": 0.352624984374998,
            "durationTicks": 246,
            "midi": 66,
            "name": "F#4",
            "ticks": 42232,
            "time": 59.95663452083334,
            "velocity": 0.9212598425196851
          },
          {
            "duration": 0.38416055208332267,
            "durationTicks": 268,
            "midi": 64,
            "name": "E4",
            "ticks": 42526,
            "time": 60.37806438020834,
            "velocity": 0.9212598425196851
          },
          {
            "duration": 0.26375202083333704,
            "durationTicks": 184,
            "midi": 61,
            "name": "C#4",
            "ticks": 42816,
            "time": 60.793760500000005,
            "velocity": 0.9133858267716536
          },
          {
            "duration": 0.1347428802083357,
            "durationTicks": 94,
            "midi": 59,
            "name": "B3",
            "ticks": 43002,
            "time": 61.060379390625,
            "velocity": 0.8503937007874016
          },
          {
            "duration": 0.1347428802083357,
            "durationTicks": 94,
            "midi": 57,
            "name": "A3",
            "ticks": 43098,
            "time": 61.197989140625005,
            "velocity": 0.7559055118110236
          },
          {
            "duration": 0.5705070885416603,
            "durationTicks": 398,
            "midi": 56,
            "name": "G#3",
            "ticks": 43194,
            "time": 61.33559889062501,
            "velocity": 0.7165354330708661
          },
          {
            "duration": 0.13760974999999576,
            "durationTicks": 96,
            "midi": 68,
            "name": "G#4",
            "ticks": 45696,
            "time": 64.922053,
            "velocity": 0.9448818897637795
          },
          {
            "duration": 0.39562803124998425,
            "durationTicks": 276,
            "midi": 66,
            "name": "F#4",
            "ticks": 46074,
            "time": 65.46389139062501,
            "velocity": 0.968503937007874
          },
          {
            "duration": 0.1347428802083357,
            "durationTicks": 94,
            "midi": 64,
            "name": "E4",
            "ticks": 46364,
            "time": 65.87958751041666,
            "velocity": 0.7637795275590551
          },
          {
            "duration": 0.4214298593749959,
            "durationTicks": 294,
            "midi": 63,
            "name": "D#4",
            "ticks": 46464,
            "time": 66.022931,
            "velocity": 0.8031496062992126
          },
          {
            "duration": 0.4042286406250071,
            "durationTicks": 282,
            "midi": 69,
            "name": "A4",
            "ticks": 47612,
            "time": 67.66851426041666,
            "velocity": 0.9448818897637795
          },
          {
            "duration": 0.3841605520833298,
            "durationTicks": 268,
            "midi": 68,
            "name": "G#4",
            "ticks": 47902,
            "time": 68.08421038020833,
            "velocity": 0.9448818897637795
          },
          {
            "duration": 0.26375202083333704,
            "durationTicks": 184,
            "midi": 69,
            "name": "A4",
            "ticks": 48192,
            "time": 68.4999065,
            "velocity": 0.8976377952755905
          },
          {
            "duration": 0.3812936822916697,
            "durationTicks": 266,
            "midi": 68,
            "name": "G#4",
            "ticks": 48378,
            "time": 68.76652539062499,
            "velocity": 0.9448818897637795
          },
          {
            "duration": 0.36982620312500103,
            "durationTicks": 258,
            "midi": 64,
            "name": "E4",
            "ticks": 48664,
            "time": 69.17648777083333,
            "velocity": 0.9212598425196851
          },
          {
            "duration": 0.27235263020833145,
            "durationTicks": 190,
            "midi": 66,
            "name": "F#4",
            "ticks": 48952,
            "time": 69.58931702083333,
            "velocity": 0.9212598425196851
          },
          {
            "duration": 0.8227916302083287,
            "durationTicks": 574,
            "midi": 64,
            "name": "E4",
            "ticks": 49150,
            "time": 69.87313713020833,
            "velocity": 0.905511811023622
          },
          {
            "duration": 0.19781401562499923,
            "durationTicks": 138,
            "midi": 59,
            "name": "B3",
            "ticks": 51264,
            "time": 72.9034185,
            "velocity": 0.9606299212598425
          },
          {
            "duration": 0.27235263020833145,
            "durationTicks": 190,
            "midi": 64,
            "name": "E4",
            "ticks": 51456,
            "time": 73.17863799999999,
            "velocity": 0.9448818897637795
          },
          {
            "duration": 0.18634653645833055,
            "durationTicks": 130,
            "midi": 66,
            "name": "F#4",
            "ticks": 51648,
            "time": 73.4538575,
            "velocity": 0.968503937007874
          },
          {
            "duration": 0.2006808854166735,
            "durationTicks": 140,
            "midi": 66,
            "name": "F#4",
            "ticks": 52024,
            "time": 73.99282902083333,
            "velocity": 0.9921259842519685
          },
          {
            "duration": 0.2666188906249971,
            "durationTicks": 186,
            "midi": 66,
            "name": "F#4",
            "ticks": 52224,
            "time": 74.279516,
            "velocity": 0.9921259842519685
          },
          {
            "duration": 0.19781401562499923,
            "durationTicks": 138,
            "midi": 68,
            "name": "G#4",
            "ticks": 52412,
            "time": 74.54900176041667,
            "velocity": 0.889763779527559
          },
          {
            "duration": 0.19494714583333916,
            "durationTicks": 136,
            "midi": 59,
            "name": "B3",
            "ticks": 54328,
            "time": 77.29546302083332,
            "velocity": 0.9606299212598425
          },
          {
            "duration": 0.27235263020833145,
            "durationTicks": 190,
            "midi": 64,
            "name": "E4",
            "ticks": 54524,
            "time": 77.57641626041666,
            "velocity": 0.9291338582677166
          },
          {
            "duration": 0.16627844791665325,
            "durationTicks": 116,
            "midi": 66,
            "name": "F#4",
            "ticks": 54716,
            "time": 77.85163576041667,
            "velocity": 0.9212598425196851
          },
          {
            "duration": 0.14621035937499016,
            "durationTicks": 102,
            "midi": 66,
            "name": "F#4",
            "ticks": 55096,
            "time": 78.39634102083333,
            "velocity": 0.968503937007874
          },
          {
            "duration": 0.3182225468750062,
            "durationTicks": 222,
            "midi": 69,
            "name": "A4",
            "ticks": 55296,
            "time": 78.683028,
            "velocity": 0.9291338582677166
          },
          {
            "duration": 0.37555994270832116,
            "durationTicks": 262,
            "midi": 68,
            "name": "G#4",
            "ticks": 55578,
            "time": 79.087256640625,
            "velocity": 0.9212598425196851
          },
          {
            "duration": 0.27235263020834566,
            "durationTicks": 190,
            "midi": 69,
            "name": "A4",
            "ticks": 55864,
            "time": 79.49721902083333,
            "velocity": 0.905511811023622
          },
          {
            "duration": 0.5160365625000054,
            "durationTicks": 360,
            "midi": 68,
            "name": "G#4",
            "ticks": 56058,
            "time": 79.775305390625,
            "velocity": 0.9212598425196851
          },
          {
            "duration": 0.3411575052083293,
            "durationTicks": 238,
            "midi": 64,
            "name": "E4",
            "ticks": 56448,
            "time": 80.334345,
            "velocity": 0.8582677165354331
          },
          {
            "duration": 0.3812936822916697,
            "durationTicks": 266,
            "midi": 69,
            "name": "A4",
            "ticks": 56832,
            "time": 80.884784,
            "velocity": 0.9448818897637795
          },
          {
            "duration": 0.3726930729166611,
            "durationTicks": 260,
            "midi": 68,
            "name": "G#4",
            "ticks": 57116,
            "time": 81.29187951041666,
            "velocity": 0.9448818897637795
          },
          {
            "duration": 0.26948576041665717,
            "durationTicks": 188,
            "midi": 69,
            "name": "A4",
            "ticks": 57404,
            "time": 81.70470876041666,
            "velocity": 0.8976377952755905
          },
          {
            "duration": 0.3640924635416667,
            "durationTicks": 254,
            "midi": 68,
            "name": "G#4",
            "ticks": 57594,
            "time": 81.977061390625,
            "velocity": 0.9448818897637795
          },
          {
            "duration": 0.3440243750000036,
            "durationTicks": 240,
            "midi": 66,
            "name": "F#4",
            "ticks": 57884,
            "time": 82.39275751041667,
            "velocity": 0.9212598425196851
          },
          {
            "duration": 0.2694857604166714,
            "durationTicks": 188,
            "midi": 66,
            "name": "F#4",
            "ticks": 58176,
            "time": 82.8113205,
            "velocity": 0.9212598425196851
          },
          {
            "duration": 0.7769217135416682,
            "durationTicks": 542,
            "midi": 66,
            "name": "F#4",
            "ticks": 58368,
            "time": 83.08654,
            "velocity": 0.9448818897637795
          },
          {
            "duration": 0.12040853124999273,
            "durationTicks": 84,
            "midi": 68,
            "name": "G#4",
            "ticks": 58944,
            "time": 83.9121985,
            "velocity": 0.8818897637795275
          },
          {
            "duration": 0.1347428802083499,
            "durationTicks": 94,
            "midi": 66,
            "name": "F#4",
            "ticks": 59038,
            "time": 84.04694138020832,
            "velocity": 0.905511811023622
          },
          {
            "duration": 0.5275040416666741,
            "durationTicks": 368,
            "midi": 64,
            "name": "E4",
            "ticks": 59136,
            "time": 84.187418,
            "velocity": 0.8818897637795275
          },
          {
            "duration": 0.5103028229166569,
            "durationTicks": 356,
            "midi": 61,
            "name": "C#4",
            "ticks": 59516,
            "time": 84.73212326041667,
            "velocity": 0.7007874015748031
          },
          {
            "duration": 0.1347428802083357,
            "durationTicks": 94,
            "midi": 66,
            "name": "F#4",
            "ticks": 60480,
            "time": 86.11395449999999,
            "velocity": 0.9212598425196851
          },
          {
            "duration": 0.24655080208334823,
            "durationTicks": 172,
            "midi": 66,
            "name": "F#4",
            "ticks": 60664,
            "time": 86.37770652083333,
            "velocity": 0.9448818897637795
          },
          {
            "duration": 0.24368393229167395,
            "durationTicks": 170,
            "midi": 64,
            "name": "E4",
            "ticks": 60862,
            "time": 86.66152663020833,
            "velocity": 0.9133858267716536
          },
          {
            "duration": 0.25515141145834264,
            "durationTicks": 178,
            "midi": 61,
            "name": "C#4",
            "ticks": 61048,
            "time": 86.92814552083333,
            "velocity": 0.9448818897637795
          },
          {
            "duration": 0.13474288020832148,
            "durationTicks": 94,
            "midi": 59,
            "name": "B3",
            "ticks": 61248,
            "time": 87.2148325,
            "velocity": 0.84251968503937
          },
          {
            "duration": 0.13187601041667563,
            "durationTicks": 92,
            "midi": 57,
            "name": "A3",
            "ticks": 61344,
            "time": 87.35244225,
            "velocity": 0.7401574803149606
          },
          {
            "duration": 0.6823150104166729,
            "durationTicks": 476,
            "midi": 56,
            "name": "G#3",
            "ticks": 61438,
            "time": 87.48718513020833,
            "velocity": 0.7007874015748031
          },
          {
            "duration": 0.5103028229166711,
            "durationTicks": 356,
            "midi": 68,
            "name": "G#4",
            "ticks": 64128,
            "time": 91.343125,
            "velocity": 0.9448818897637795
          },
          {
            "duration": 0.4042286406250071,
            "durationTicks": 282,
            "midi": 66,
            "name": "F#4",
            "ticks": 64512,
            "time": 91.893564,
            "velocity": 0.968503937007874
          },
          {
            "duration": 0.12900914062500135,
            "durationTicks": 90,
            "midi": 64,
            "name": "E4",
            "ticks": 64796,
            "time": 92.30065951041666,
            "velocity": 0.7480314960629921
          },
          {
            "duration": 0.5619064791666659,
            "durationTicks": 392,
            "midi": 63,
            "name": "D#4",
            "ticks": 64888,
            "time": 92.43253552083333,
            "velocity": 0.8031496062992126
          },
          {
            "duration": 0.384160552083344,
            "durationTicks": 268,
            "midi": 69,
            "name": "A4",
            "ticks": 66046,
            "time": 94.09245313020833,
            "velocity": 0.9448818897637795
          },
          {
            "duration": 0.4042286406250071,
            "durationTicks": 282,
            "midi": 68,
            "name": "G#4",
            "ticks": 66328,
            "time": 94.49668177083332,
            "velocity": 0.9133858267716536
          },
          {
            "duration": 0.27235263020834566,
            "durationTicks": 190,
            "midi": 69,
            "name": "A4",
            "ticks": 66616,
            "time": 94.90951102083332,
            "velocity": 0.8661417322834646
          },
          {
            "duration": 0.3812936822916697,
            "durationTicks": 266,
            "midi": 68,
            "name": "G#4",
            "ticks": 66808,
            "time": 95.18473052083333,
            "velocity": 0.9448818897637795
          },
          {
            "duration": 0.35549185416664386,
            "durationTicks": 248,
            "midi": 64,
            "name": "E4",
            "ticks": 67100,
            "time": 95.60329351041668,
            "velocity": 0.9212598425196851
          },
          {
            "duration": 0.27235263020834566,
            "durationTicks": 190,
            "midi": 64,
            "name": "E4",
            "ticks": 67390,
            "time": 96.01898963020832,
            "velocity": 0.905511811023622
          },
          {
            "duration": 0.40422864062499286,
            "durationTicks": 282,
            "midi": 64,
            "name": "E4",
            "ticks": 67582,
            "time": 96.29420913020833,
            "velocity": 0.9133858267716536
          },
          {
            "duration": 0.12614227083334129,
            "durationTicks": 88,
            "midi": 59,
            "name": "B3",
            "ticks": 67872,
            "time": 96.70990524999999,
            "velocity": 0.8031496062992126
          },
          {
            "duration": 0.26088515104166277,
            "durationTicks": 182,
            "midi": 61,
            "name": "C#4",
            "ticks": 67968,
            "time": 96.847515,
            "velocity": 0.8188976377952756
          },
          {
            "duration": 0.7625873645833394,
            "durationTicks": 532,
            "midi": 64,
            "name": "E4",
            "ticks": 68152,
            "time": 97.11126702083332,
            "velocity": 0.7952755905511811
          },
          {
            "duration": 0.24655080208334823,
            "durationTicks": 172,
            "midi": 64,
            "name": "E4",
            "ticks": 70456,
            "time": 100.41390102083332,
            "velocity": 0.9448818897637795
          },
          {
            "duration": 1.0148719062499936,
            "durationTicks": 708,
            "midi": 63,
            "name": "D#4",
            "ticks": 70648,
            "time": 100.68912052083333,
            "velocity": 0.968503937007874
          },
          {
            "duration": 0.2092814947916679,
            "durationTicks": 146,
            "midi": 63,
            "name": "D#4",
            "ticks": 71418,
            "time": 101.792865390625,
            "velocity": 0.905511811023622
          },
          {
            "duration": 0.5160365625000054,
            "durationTicks": 360,
            "midi": 63,
            "name": "D#4",
            "ticks": 71608,
            "time": 102.06521802083333,
            "velocity": 0.9133858267716536
          },
          {
            "duration": 0.5189034322916655,
            "durationTicks": 362,
            "midi": 64,
            "name": "E4",
            "ticks": 71998,
            "time": 102.62425763020833,
            "velocity": 0.889763779527559
          },
          {
            "duration": 0.260885151041677,
            "durationTicks": 182,
            "midi": 63,
            "name": "D#4",
            "ticks": 72378,
            "time": 103.168962890625,
            "velocity": 0.8346456692913385
          },
          {
            "duration": 0.4701666458333307,
            "durationTicks": 328,
            "midi": 61,
            "name": "C#4",
            "ticks": 72570,
            "time": 103.444182390625,
            "velocity": 0.7559055118110236
          },
          {
            "duration": 0.6106432656250007,
            "durationTicks": 426,
            "midi": 66,
            "name": "F#4",
            "ticks": 73150,
            "time": 104.27557463020833,
            "velocity": 0.9133858267716536
          },
          {
            "duration": 0.1720121875000018,
            "durationTicks": 120,
            "midi": 66,
            "name": "F#4",
            "ticks": 73920,
            "time": 105.3793195,
            "velocity": 0.9212598425196851
          },
          {
            "duration": 0.1519440989583387,
            "durationTicks": 106,
            "midi": 66,
            "name": "F#4",
            "ticks": 74104,
            "time": 105.64307152083333,
            "velocity": 0.9133858267716536
          },
          {
            "duration": 0.16914531770834174,
            "durationTicks": 118,
            "midi": 66,
            "name": "F#4",
            "ticks": 74302,
            "time": 105.92689163020833,
            "velocity": 0.8818897637795275
          },
          {
            "duration": 0.4701666458333307,
            "durationTicks": 328,
            "midi": 66,
            "name": "F#4",
            "ticks": 74490,
            "time": 106.196377390625,
            "velocity": 0.9212598425196851
          },
          {
            "duration": 0.24368393229167395,
            "durationTicks": 170,
            "midi": 66,
            "name": "F#4",
            "ticks": 74880,
            "time": 106.755417,
            "velocity": 0.9133858267716536
          },
          {
            "duration": 0.23508332291667955,
            "durationTicks": 164,
            "midi": 68,
            "name": "G#4",
            "ticks": 75070,
            "time": 107.02776963020833,
            "velocity": 0.905511811023622
          },
          {
            "duration": 0.26088515104166277,
            "durationTicks": 182,
            "midi": 66,
            "name": "F#4",
            "ticks": 75264,
            "time": 107.305856,
            "velocity": 0.9212598425196851
          },
          {
            "duration": 0.20641462499999363,
            "durationTicks": 144,
            "midi": 64,
            "name": "E4",
            "ticks": 75448,
            "time": 107.56960802083333,
            "velocity": 0.905511811023622
          },
          {
            "duration": 0.25515141145835685,
            "durationTicks": 178,
            "midi": 64,
            "name": "E4",
            "ticks": 75640,
            "time": 107.84482752083332,
            "velocity": 0.9291338582677166
          },
          {
            "duration": 0.2580182812500027,
            "durationTicks": 180,
            "midi": 61,
            "name": "C#4",
            "ticks": 75836,
            "time": 108.12578076041667,
            "velocity": 0.9133858267716536
          },
          {
            "duration": 0.3554918541666581,
            "durationTicks": 248,
            "midi": 64,
            "name": "E4",
            "ticks": 76028,
            "time": 108.40100026041667,
            "velocity": 0.9291338582677166
          },
          {
            "duration": 0.24368393229167395,
            "durationTicks": 170,
            "midi": 64,
            "name": "E4",
            "ticks": 76416,
            "time": 108.957173,
            "velocity": 0.9606299212598425
          },
          {
            "duration": 0.24655080208333402,
            "durationTicks": 172,
            "midi": 66,
            "name": "F#4",
            "ticks": 76602,
            "time": 109.223791890625,
            "velocity": 0.9212598425196851
          },
          {
            "duration": 0.37555994270833537,
            "durationTicks": 262,
            "midi": 68,
            "name": "G#4",
            "ticks": 76800,
            "time": 109.507612,
            "velocity": 0.9212598425196851
          },
          {
            "duration": 0.40422864062499286,
            "durationTicks": 282,
            "midi": 66,
            "name": "F#4",
            "ticks": 77080,
            "time": 109.90897377083333,
            "velocity": 0.9212598425196851
          },
          {
            "duration": 0.260885151041677,
            "durationTicks": 182,
            "midi": 64,
            "name": "E4",
            "ticks": 77376,
            "time": 110.3332705,
            "velocity": 0.9133858267716536
          },
          {
            "duration": 0.3440243750000036,
            "durationTicks": 240,
            "midi": 61,
            "name": "C#4",
            "ticks": 77560,
            "time": 110.59702252083332,
            "velocity": 0.8818897637795275
          },
          {
            "duration": 0.27235263020834566,
            "durationTicks": 190,
            "midi": 64,
            "name": "E4",
            "ticks": 77944,
            "time": 111.14746152083333,
            "velocity": 0.9133858267716536
          },
          {
            "duration": 0.2666188906249971,
            "durationTicks": 186,
            "midi": 66,
            "name": "F#4",
            "ticks": 78138,
            "time": 111.425547890625,
            "velocity": 0.905511811023622
          },
          {
            "duration": 0.4099623802083414,
            "durationTicks": 286,
            "midi": 68,
            "name": "G#4",
            "ticks": 78334,
            "time": 111.70650113020832,
            "velocity": 0.9212598425196851
          },
          {
            "duration": 0.33829063541666926,
            "durationTicks": 236,
            "midi": 73,
            "name": "C#5",
            "ticks": 78624,
            "time": 112.12219725,
            "velocity": 0.9448818897637795
          },
          {
            "duration": 0.24368393229167395,
            "durationTicks": 170,
            "midi": 68,
            "name": "G#4",
            "ticks": 78906,
            "time": 112.52642589062499,
            "velocity": 0.9133858267716536
          },
          {
            "duration": 0.2666188906249971,
            "durationTicks": 186,
            "midi": 66,
            "name": "F#4",
            "ticks": 79100,
            "time": 112.80451226041667,
            "velocity": 0.889763779527559
          },
          {
            "duration": 0.5103028229166711,
            "durationTicks": 356,
            "midi": 64,
            "name": "E4",
            "ticks": 79288,
            "time": 113.07399802083333,
            "velocity": 0.7952755905511811
          },
          {
            "duration": 0.18347966666667048,
            "durationTicks": 128,
            "midi": 69,
            "name": "A4",
            "ticks": 80056,
            "time": 114.17487602083332,
            "velocity": 0.9212598425196851
          },
          {
            "duration": 0.16054470833333312,
            "durationTicks": 112,
            "midi": 69,
            "name": "A4",
            "ticks": 80256,
            "time": 114.461563,
            "velocity": 0.9212598425196851
          },
          {
            "duration": 0.23508332291666534,
            "durationTicks": 164,
            "midi": 69,
            "name": "A4",
            "ticks": 80448,
            "time": 114.7367825,
            "velocity": 0.9133858267716536
          },
          {
            "duration": 0.38702742187500405,
            "durationTicks": 270,
            "midi": 68,
            "name": "G#4",
            "ticks": 80638,
            "time": 115.00913513020832,
            "velocity": 0.9133858267716536
          },
          {
            "duration": 0.4099623802083414,
            "durationTicks": 286,
            "midi": 66,
            "name": "F#4",
            "ticks": 80926,
            "time": 115.42196438020832,
            "velocity": 0.9133858267716536
          },
          {
            "duration": 0.1920802760416791,
            "durationTicks": 134,
            "midi": 64,
            "name": "E4",
            "ticks": 81216,
            "time": 115.8376605,
            "velocity": 0.8976377952755905
          },
          {
            "duration": 0.8227916302083429,
            "durationTicks": 574,
            "midi": 64,
            "name": "E4",
            "ticks": 81406,
            "time": 116.11001313020833,
            "velocity": 0.9212598425196851
          },
          {
            "duration": 0.260885151041677,
            "durationTicks": 182,
            "midi": 61,
            "name": "C#4",
            "ticks": 81984,
            "time": 116.93853849999999,
            "velocity": 0.8818897637795275
          },
          {
            "duration": 0.4185629895833216,
            "durationTicks": 292,
            "midi": 64,
            "name": "E4",
            "ticks": 82170,
            "time": 117.205157390625,
            "velocity": 0.8346456692913385
          },
          {
            "duration": 0.16341157812499318,
            "durationTicks": 114,
            "midi": 64,
            "name": "E4",
            "ticks": 83128,
            "time": 118.57838802083333,
            "velocity": 0.9291338582677166
          },
          {
            "duration": 0.16627844791668167,
            "durationTicks": 116,
            "midi": 64,
            "name": "E4",
            "ticks": 83320,
            "time": 118.85360752083332,
            "velocity": 0.9448818897637795
          },
          {
            "duration": 0.2379501927083254,
            "durationTicks": 166,
            "midi": 64,
            "name": "E4",
            "ticks": 83520,
            "time": 119.1402945,
            "velocity": 0.9212598425196851
          },
          {
            "duration": 0.40709551041666714,
            "durationTicks": 284,
            "midi": 63,
            "name": "D#4",
            "ticks": 83710,
            "time": 119.41264713020833,
            "velocity": 0.9212598425196851
          },
          {
            "duration": 0.3984949010416585,
            "durationTicks": 278,
            "midi": 61,
            "name": "C#4",
            "ticks": 83996,
            "time": 119.82260951041667,
            "velocity": 0.905511811023622
          },
          {
            "duration": 0.26088515104166277,
            "durationTicks": 182,
            "midi": 59,
            "name": "B3",
            "ticks": 84286,
            "time": 120.23830563020833,
            "velocity": 0.9133858267716536
          },
          {
            "duration": 0.40709551041668135,
            "durationTicks": 284,
            "midi": 61,
            "name": "C#4",
            "ticks": 84480,
            "time": 120.516392,
            "velocity": 0.9133858267716536
          },
          {
            "duration": 0.12614227083334129,
            "durationTicks": 88,
            "midi": 59,
            "name": "B3",
            "ticks": 84766,
            "time": 120.92635438020832,
            "velocity": 0.7716535433070866
          },
          {
            "duration": 0.5848414375000033,
            "durationTicks": 408,
            "midi": 56,
            "name": "G#3",
            "ticks": 84856,
            "time": 121.05536352083332,
            "velocity": 0.7165354330708661
          },
          {
            "duration": 0.5189034322916655,
            "durationTicks": 362,
            "midi": 69,
            "name": "A4",
            "ticks": 85822,
            "time": 122.44006163020833,
            "velocity": 0.9606299212598425
          },
          {
            "duration": 0.2092814947916679,
            "durationTicks": 146,
            "midi": 69,
            "name": "A4",
            "ticks": 86208,
            "time": 122.9933675,
            "velocity": 0.9133858267716536
          },
          {
            "duration": 0.21788210416667653,
            "durationTicks": 152,
            "midi": 69,
            "name": "A4",
            "ticks": 86400,
            "time": 123.268587,
            "velocity": 0.9212598425196851
          },
          {
            "duration": 0.24368393229167395,
            "durationTicks": 170,
            "midi": 71,
            "name": "B4",
            "ticks": 86590,
            "time": 123.54093963020833,
            "velocity": 0.9212598425196851
          },
          {
            "duration": 0.3898942916666499,
            "durationTicks": 272,
            "midi": 68,
            "name": "G#4",
            "ticks": 86780,
            "time": 123.81329226041667,
            "velocity": 0.9212598425196851
          },
          {
            "duration": 0.3440243750000036,
            "durationTicks": 240,
            "midi": 66,
            "name": "F#4",
            "ticks": 87070,
            "time": 124.22898838020832,
            "velocity": 0.9133858267716536
          },
          {
            "duration": 0.2666188906249971,
            "durationTicks": 186,
            "midi": 66,
            "name": "F#4",
            "ticks": 87356,
            "time": 124.63895076041668,
            "velocity": 0.9133858267716536
          },
          {
            "duration": 0.1347428802083357,
            "durationTicks": 94,
            "midi": 68,
            "name": "G#4",
            "ticks": 87544,
            "time": 124.90843652083333,
            "velocity": 0.8503937007874016
          },
          {
            "duration": 0.1347428802083499,
            "durationTicks": 94,
            "midi": 66,
            "name": "F#4",
            "ticks": 87646,
            "time": 125.05464688020832,
            "velocity": 0.8582677165354331
          },
          {
            "duration": 1.6656513489583347,
            "durationTicks": 1162,
            "midi": 64,
            "name": "E4",
            "ticks": 87744,
            "time": 125.1951235,
            "velocity": 0.7952755905511811
          },
          {
            "duration": 0.2494176718750225,
            "durationTicks": 174,
            "midi": 59,
            "name": "B3",
            "ticks": 132666,
            "time": 189.587885890625,
            "velocity": 0.9291338582677166
          },
          {
            "duration": 0.3411575052083151,
            "durationTicks": 238,
            "midi": 64,
            "name": "E4",
            "ticks": 132856,
            "time": 189.86023852083335,
            "velocity": 0.9133858267716536
          },
          {
            "duration": 0.34115750520834354,
            "durationTicks": 238,
            "midi": 66,
            "name": "F#4",
            "ticks": 133152,
            "time": 190.28453525,
            "velocity": 0.9448818897637795
          },
          {
            "duration": 0.26088515104163434,
            "durationTicks": 182,
            "midi": 66,
            "name": "F#4",
            "ticks": 133434,
            "time": 190.688763890625,
            "velocity": 0.9448818897637795
          },
          {
            "duration": 0.27235263020833145,
            "durationTicks": 190,
            "midi": 66,
            "name": "F#4",
            "ticks": 133626,
            "time": 190.963983390625,
            "velocity": 0.9448818897637795
          },
          {
            "duration": 0.9403332916666614,
            "durationTicks": 656,
            "midi": 68,
            "name": "G#4",
            "ticks": 133822,
            "time": 191.24493663020834,
            "velocity": 0.9133858267716536
          },
          {
            "duration": 0.22074897395830817,
            "durationTicks": 154,
            "midi": 59,
            "name": "B3",
            "ticks": 135742,
            "time": 193.99713163020834,
            "velocity": 0.9448818897637795
          },
          {
            "duration": 0.21788210416670495,
            "durationTicks": 152,
            "midi": 59,
            "name": "B3",
            "ticks": 135932,
            "time": 194.26948426041665,
            "velocity": 0.9212598425196851
          },
          {
            "duration": 0.24368393229164553,
            "durationTicks": 170,
            "midi": 59,
            "name": "B3",
            "ticks": 136126,
            "time": 194.54757063020836,
            "velocity": 0.9291338582677166
          },
          {
            "duration": 0.25515141145834264,
            "durationTicks": 178,
            "midi": 61,
            "name": "C#4",
            "ticks": 136316,
            "time": 194.81992326041666,
            "velocity": 0.905511811023622
          },
          {
            "duration": 0.23795019270829698,
            "durationTicks": 166,
            "midi": 63,
            "name": "D#4",
            "ticks": 136504,
            "time": 195.08940902083336,
            "velocity": 0.905511811023622
          },
          {
            "duration": 0.09173983333332103,
            "durationTicks": 64,
            "midi": 64,
            "name": "E4",
            "ticks": 136700,
            "time": 195.37036226041667,
            "velocity": 0.889763779527559
          },
          {
            "duration": 0.0946067031249811,
            "durationTicks": 66,
            "midi": 64,
            "name": "E4",
            "ticks": 136798,
            "time": 195.51083888020835,
            "velocity": 0.8503937007874016
          },
          {
            "duration": 0.11467479166668682,
            "durationTicks": 80,
            "midi": 64,
            "name": "E4",
            "ticks": 136892,
            "time": 195.64558176041666,
            "velocity": 0.8976377952755905
          },
          {
            "duration": 0.36982620312500103,
            "durationTicks": 258,
            "midi": 63,
            "name": "D#4",
            "ticks": 136986,
            "time": 195.780324640625,
            "velocity": 0.905511811023622
          },
          {
            "duration": 0.08887296354166097,
            "durationTicks": 62,
            "midi": 63,
            "name": "D#4",
            "ticks": 137280,
            "time": 196.2017545,
            "velocity": 0.9212598425196851
          },
          {
            "duration": 0.07167174479164373,
            "durationTicks": 50,
            "midi": 63,
            "name": "D#4",
            "ticks": 137368,
            "time": 196.32789677083335,
            "velocity": 0.8818897637795275
          },
          {
            "duration": 0.07740548437499228,
            "durationTicks": 54,
            "midi": 63,
            "name": "D#4",
            "ticks": 137466,
            "time": 196.468373390625,
            "velocity": 0.905511811023622
          },
          {
            "duration": 0.36695933333334096,
            "durationTicks": 256,
            "midi": 61,
            "name": "C#4",
            "ticks": 137562,
            "time": 196.605983140625,
            "velocity": 0.889763779527559
          },
          {
            "duration": 0.057337395833314986,
            "durationTicks": 40,
            "midi": 61,
            "name": "C#4",
            "ticks": 137848,
            "time": 197.01594552083336,
            "velocity": 0.8582677165354331
          },
          {
            "duration": 0.08027235416665235,
            "durationTicks": 56,
            "midi": 61,
            "name": "C#4",
            "ticks": 137946,
            "time": 197.156422140625,
            "velocity": 0.8503937007874016
          },
          {
            "duration": 0.06307113541666354,
            "durationTicks": 44,
            "midi": 61,
            "name": "C#4",
            "ticks": 138048,
            "time": 197.3026325,
            "velocity": 0.9133858267716536
          },
          {
            "duration": 0.4099623802083556,
            "durationTicks": 286,
            "midi": 59,
            "name": "B3",
            "ticks": 138138,
            "time": 197.431641640625,
            "velocity": 0.8661417322834646
          },
          {
            "duration": 0.38702742187498984,
            "durationTicks": 270,
            "midi": 61,
            "name": "C#4",
            "ticks": 138432,
            "time": 197.8530715,
            "velocity": 0.9448818897637795
          },
          {
            "duration": 0.11180792187499833,
            "durationTicks": 78,
            "midi": 59,
            "name": "B3",
            "ticks": 138720,
            "time": 198.26590075000001,
            "velocity": 0.7952755905511811
          },
          {
            "duration": 0.3640924635416809,
            "durationTicks": 254,
            "midi": 56,
            "name": "G#3",
            "ticks": 138812,
            "time": 198.39777676041666,
            "velocity": 0.6929133858267716
          },
          {
            "duration": 0.272352630208303,
            "durationTicks": 190,
            "midi": 57,
            "name": "A3",
            "ticks": 139192,
            "time": 198.94248202083335,
            "velocity": 0.9291338582677166
          },
          {
            "duration": 0.2637520208332944,
            "durationTicks": 184,
            "midi": 59,
            "name": "B3",
            "ticks": 139390,
            "time": 199.22630213020835,
            "velocity": 0.9212598425196851
          },
          {
            "duration": 0.5361046510416543,
            "durationTicks": 374,
            "midi": 61,
            "name": "C#4",
            "ticks": 139576,
            "time": 199.49292102083334,
            "velocity": 0.9133858267716536
          },
          {
            "duration": 1.0320731250000108,
            "durationTicks": 720,
            "midi": 64,
            "name": "E4",
            "ticks": 139968,
            "time": 200.0548275,
            "velocity": 0.9133858267716536
          },
          {
            "duration": 0.18921340625001903,
            "durationTicks": 132,
            "midi": 69,
            "name": "A4",
            "ticks": 141692,
            "time": 202.52606926041665,
            "velocity": 0.9212598425196851
          },
          {
            "duration": 0.1920802760416791,
            "durationTicks": 134,
            "midi": 69,
            "name": "A4",
            "ticks": 141884,
            "time": 202.80128876041667,
            "velocity": 0.905511811023622
          },
          {
            "duration": 0.20068088541668772,
            "durationTicks": 140,
            "midi": 69,
            "name": "A4",
            "ticks": 142076,
            "time": 203.07650826041666,
            "velocity": 0.8976377952755905
          },
          {
            "duration": 0.17774592708332193,
            "durationTicks": 124,
            "midi": 69,
            "name": "A4",
            "ticks": 142264,
            "time": 203.34599402083333,
            "velocity": 0.9133858267716536
          },
          {
            "duration": 0.2178821041666481,
            "durationTicks": 152,
            "midi": 69,
            "name": "A4",
            "ticks": 142456,
            "time": 203.62121352083335,
            "velocity": 0.9212598425196851
          },
          {
            "duration": 0.21501523437498804,
            "durationTicks": 150,
            "midi": 69,
            "name": "A4",
            "ticks": 142652,
            "time": 203.90216676041666,
            "velocity": 0.889763779527559
          },
          {
            "duration": 0.2494176718750225,
            "durationTicks": 174,
            "midi": 68,
            "name": "G#4",
            "ticks": 142840,
            "time": 204.17165252083333,
            "velocity": 0.968503937007874
          },
          {
            "duration": 0.26948576041664296,
            "durationTicks": 188,
            "midi": 59,
            "name": "B3",
            "ticks": 143034,
            "time": 204.449738890625,
            "velocity": 0.9212598425196851
          },
          {
            "duration": 0.27235263020833145,
            "durationTicks": 190,
            "midi": 61,
            "name": "C#4",
            "ticks": 143228,
            "time": 204.72782526041667,
            "velocity": 0.8582677165354331
          },
          {
            "duration": 0.796989802083317,
            "durationTicks": 556,
            "midi": 59,
            "name": "B3",
            "ticks": 143422,
            "time": 205.00591163020835,
            "velocity": 0.8503937007874016
          },
          {
            "duration": 0.2580182812500027,
            "durationTicks": 180,
            "midi": 68,
            "name": "G#4",
            "ticks": 144568,
            "time": 206.64862802083334,
            "velocity": 0.9448818897637795
          },
          {
            "duration": 0.521770302083354,
            "durationTicks": 364,
            "midi": 68,
            "name": "G#4",
            "ticks": 145536,
            "time": 208.036193,
            "velocity": 0.9448818897637795
          },
          {
            "duration": 0.38702742187498984,
            "durationTicks": 270,
            "midi": 66,
            "name": "F#4",
            "ticks": 145918,
            "time": 208.58376513020835,
            "velocity": 0.9921259842519685
          },
          {
            "duration": 0.13474288020830727,
            "durationTicks": 94,
            "midi": 64,
            "name": "E4",
            "ticks": 146200,
            "time": 208.98799377083336,
            "velocity": 0.7952755905511811
          },
          {
            "duration": 0.4472316874999933,
            "durationTicks": 312,
            "midi": 63,
            "name": "D#4",
            "ticks": 146298,
            "time": 209.128470390625,
            "velocity": 0.8031496062992126
          },
          {
            "duration": 0.16627844791665325,
            "durationTicks": 116,
            "midi": 69,
            "name": "A4",
            "ticks": 147840,
            "time": 211.338827,
            "velocity": 0.9606299212598425
          },
          {
            "duration": 0.25228454166668257,
            "durationTicks": 176,
            "midi": 69,
            "name": "A4",
            "ticks": 148028,
            "time": 211.60831276041665,
            "velocity": 0.9291338582677166
          },
          {
            "duration": 0.23508332291663692,
            "durationTicks": 164,
            "midi": 68,
            "name": "G#4",
            "ticks": 148218,
            "time": 211.880665390625,
            "velocity": 0.9448818897637795
          },
          {
            "duration": 0.22361584374999666,
            "durationTicks": 156,
            "midi": 64,
            "name": "E4",
            "ticks": 148408,
            "time": 212.15301802083334,
            "velocity": 0.9291338582677166
          },
          {
            "duration": 0.2551514114583142,
            "durationTicks": 178,
            "midi": 64,
            "name": "E4",
            "ticks": 148600,
            "time": 212.42823752083333,
            "velocity": 0.9291338582677166
          },
          {
            "duration": 0.25228454166665415,
            "durationTicks": 176,
            "midi": 66,
            "name": "F#4",
            "ticks": 148798,
            "time": 212.71205763020834,
            "velocity": 0.9133858267716536
          },
          {
            "duration": 0.8944633749999866,
            "durationTicks": 624,
            "midi": 64,
            "name": "E4",
            "ticks": 148984,
            "time": 212.97867652083335,
            "velocity": 0.9133858267716536
          },
          {
            "duration": 0.15767783854167305,
            "durationTicks": 110,
            "midi": 68,
            "name": "G#4",
            "ticks": 151096,
            "time": 216.00609102083334,
            "velocity": 0.9448818897637795
          },
          {
            "duration": 0.16341157812499318,
            "durationTicks": 114,
            "midi": 68,
            "name": "G#4",
            "ticks": 151296,
            "time": 216.292778,
            "velocity": 0.9448818897637795
          },
          {
            "duration": 0.18347966666664206,
            "durationTicks": 128,
            "midi": 68,
            "name": "G#4",
            "ticks": 151482,
            "time": 216.559396890625,
            "velocity": 0.9212598425196851
          },
          {
            "duration": 0.1748790572916903,
            "durationTicks": 122,
            "midi": 68,
            "name": "G#4",
            "ticks": 151676,
            "time": 216.83748326041666,
            "velocity": 0.9448818897637795
          },
          {
            "duration": 0.18061279687501042,
            "durationTicks": 126,
            "midi": 68,
            "name": "G#4",
            "ticks": 151868,
            "time": 217.11270276041665,
            "velocity": 0.9212598425196851
          },
          {
            "duration": 0.2408170625000139,
            "durationTicks": 168,
            "midi": 68,
            "name": "G#4",
            "ticks": 152064,
            "time": 217.393656,
            "velocity": 0.968503937007874
          },
          {
            "duration": 0.5418383906250028,
            "durationTicks": 378,
            "midi": 66,
            "name": "F#4",
            "ticks": 152252,
            "time": 217.66314176041666,
            "velocity": 0.9212598425196851
          },
          {
            "duration": 0.5963089166666578,
            "durationTicks": 416,
            "midi": 68,
            "name": "G#4",
            "ticks": 152632,
            "time": 218.20784702083336,
            "velocity": 0.9133858267716536
          },
          {
            "duration": 0.26375202083332283,
            "durationTicks": 184,
            "midi": 69,
            "name": "A4",
            "ticks": 154176,
            "time": 220.4210705,
            "velocity": 0.9291338582677166
          },
          {
            "duration": 0.3554918541666723,
            "durationTicks": 248,
            "midi": 68,
            "name": "G#4",
            "ticks": 154362,
            "time": 220.687689390625,
            "velocity": 0.968503937007874
          },
          {
            "duration": 0.4099623802083272,
            "durationTicks": 286,
            "midi": 64,
            "name": "E4",
            "ticks": 154654,
            "time": 221.10625238020833,
            "velocity": 0.9448818897637795
          },
          {
            "duration": 0.26948576041664296,
            "durationTicks": 188,
            "midi": 66,
            "name": "F#4",
            "ticks": 154944,
            "time": 221.5219485,
            "velocity": 0.9448818897637795
          },
          {
            "duration": 1.0292062552083223,
            "durationTicks": 718,
            "midi": 64,
            "name": "E4",
            "ticks": 155134,
            "time": 221.79430113020834,
            "velocity": 0.9133858267716536
          },
          {
            "duration": 0.5189034322916655,
            "durationTicks": 362,
            "midi": 68,
            "name": "G#4",
            "ticks": 157054,
            "time": 224.54649613020834,
            "velocity": 0.968503937007874
          },
          {
            "duration": 0.4013617708333186,
            "durationTicks": 280,
            "midi": 71,
            "name": "B4",
            "ticks": 157432,
            "time": 225.08833452083334,
            "velocity": 0.9212598425196851
          },
          {
            "duration": 0.3640924635416525,
            "durationTicks": 254,
            "midi": 68,
            "name": "G#4",
            "ticks": 157720,
            "time": 225.50116377083336,
            "velocity": 0.9212598425196851
          },
          {
            "duration": 0.26088515104163434,
            "durationTicks": 182,
            "midi": 66,
            "name": "F#4",
            "ticks": 158016,
            "time": 225.9254605,
            "velocity": 0.84251968503937
          },
          {
            "duration": 0.2694857604166714,
            "durationTicks": 188,
            "midi": 66,
            "name": "F#4",
            "ticks": 158202,
            "time": 226.192079390625,
            "velocity": 0.9448818897637795
          },
          {
            "duration": 0.8571940677082921,
            "durationTicks": 598,
            "midi": 64,
            "name": "E4",
            "ticks": 158392,
            "time": 226.46443202083336,
            "velocity": 0.8031496062992126
          },
          {
            "duration": 0.24081706249998547,
            "durationTicks": 168,
            "midi": 68,
            "name": "G#4",
            "ticks": 160312,
            "time": 229.21662702083336,
            "velocity": 0.968503937007874
          },
          {
            "duration": 0.3898942916666499,
            "durationTicks": 272,
            "midi": 71,
            "name": "B4",
            "ticks": 160510,
            "time": 229.50044713020836,
            "velocity": 0.9291338582677166
          },
          {
            "duration": 0.37555994270832116,
            "durationTicks": 262,
            "midi": 68,
            "name": "G#4",
            "ticks": 160798,
            "time": 229.91327638020834,
            "velocity": 0.9212598425196851
          },
          {
            "duration": 0.272352630208303,
            "durationTicks": 190,
            "midi": 73,
            "name": "C#5",
            "ticks": 161080,
            "time": 230.31750502083335,
            "velocity": 0.9448818897637795
          },
          {
            "duration": 0.9976706875000048,
            "durationTicks": 696,
            "midi": 68,
            "name": "G#4",
            "ticks": 161276,
            "time": 230.59845826041666,
            "velocity": 0.9133858267716536
          }
        ],
        "endOfTrackTicks": 162164
      },
      {
        "channel": 3,
        "controlChanges": {},
        "pitchBends": [],
        "instrument": {
          "family": "piano",
          "number": 0,
          "name": "acoustic grand piano"
        },
        "name": "",
        "notes": [
          {
            "duration": 0.18347966666667048,
            "durationTicks": 128,
            "midi": 64,
            "name": "E4",
            "ticks": 45692,
            "time": 64.91631926041667,
            "velocity": 0.9448818897637795
          },
          {
            "duration": 0.3898942916666641,
            "durationTicks": 272,
            "midi": 63,
            "name": "D#4",
            "ticks": 46072,
            "time": 65.46102452083333,
            "velocity": 0.968503937007874
          },
          {
            "duration": 0.12327540104168122,
            "durationTicks": 86,
            "midi": 61,
            "name": "C#4",
            "ticks": 46364,
            "time": 65.87958751041666,
            "velocity": 0.8267716535433071
          },
          {
            "duration": 0.5389715208333286,
            "durationTicks": 376,
            "midi": 59,
            "name": "B3",
            "ticks": 46462,
            "time": 66.02006413020834,
            "velocity": 0.7637795275590551
          },
          {
            "duration": 0.18347966666665627,
            "durationTicks": 128,
            "midi": 69,
            "name": "A4",
            "ticks": 52028,
            "time": 73.99856276041668,
            "velocity": 0.968503937007874
          },
          {
            "duration": 0.27235263020833145,
            "durationTicks": 190,
            "midi": 69,
            "name": "A4",
            "ticks": 52220,
            "time": 74.27378226041667,
            "velocity": 0.984251968503937
          },
          {
            "duration": 0.25228454166666836,
            "durationTicks": 176,
            "midi": 71,
            "name": "B4",
            "ticks": 52414,
            "time": 74.55186863020833,
            "velocity": 0.905511811023622
          },
          {
            "duration": 0.8227916302083429,
            "durationTicks": 574,
            "midi": 62,
            "name": "D4",
            "ticks": 58360,
            "time": 83.07507252083333,
            "velocity": 0.968503937007874
          },
          {
            "duration": 0.12900914062500135,
            "durationTicks": 90,
            "midi": 64,
            "name": "E4",
            "ticks": 58944,
            "time": 83.9121985,
            "velocity": 0.7637795275590551
          },
          {
            "duration": 0.12327540104166701,
            "durationTicks": 86,
            "midi": 62,
            "name": "D4",
            "ticks": 59036,
            "time": 84.04407451041666,
            "velocity": 0.7952755905511811
          },
          {
            "duration": 0.5447052604166771,
            "durationTicks": 380,
            "midi": 61,
            "name": "C#4",
            "ticks": 59136,
            "time": 84.187418,
            "velocity": 0.7322834645669292
          },
          {
            "duration": 0.5561727395833458,
            "durationTicks": 388,
            "midi": 57,
            "name": "A3",
            "ticks": 59518,
            "time": 84.73499013020833,
            "velocity": 0.5748031496062992
          },
          {
            "duration": 0.5475721302083372,
            "durationTicks": 382,
            "midi": 64,
            "name": "E4",
            "ticks": 64124,
            "time": 91.33739126041667,
            "velocity": 0.9448818897637795
          },
          {
            "duration": 0.3898942916666641,
            "durationTicks": 272,
            "midi": 63,
            "name": "D#4",
            "ticks": 64508,
            "time": 91.88783026041666,
            "velocity": 0.937007874015748
          },
          {
            "duration": 0.13474288020832148,
            "durationTicks": 94,
            "midi": 61,
            "name": "C#4",
            "ticks": 64800,
            "time": 92.30639325,
            "velocity": 0.8110236220472441
          },
          {
            "duration": 0.599175786458332,
            "durationTicks": 418,
            "midi": 59,
            "name": "B3",
            "ticks": 64896,
            "time": 92.444003,
            "velocity": 0.8188976377952756
          },
          {
            "duration": 0.24655080208334823,
            "durationTicks": 172,
            "midi": 64,
            "name": "E4",
            "ticks": 70456,
            "time": 100.41390102083332,
            "velocity": 0.968503937007874
          },
          {
            "duration": 1.0148719062500078,
            "durationTicks": 708,
            "midi": 63,
            "name": "D#4",
            "ticks": 70654,
            "time": 100.69772113020832,
            "velocity": 0.952755905511811
          },
          {
            "duration": 0.2092814947916537,
            "durationTicks": 146,
            "midi": 63,
            "name": "D#4",
            "ticks": 71420,
            "time": 101.79573226041667,
            "velocity": 0.889763779527559
          },
          {
            "duration": 0.5160365624999912,
            "durationTicks": 360,
            "midi": 63,
            "name": "D#4",
            "ticks": 71610,
            "time": 102.068084890625,
            "velocity": 0.8976377952755905
          },
          {
            "duration": 0.5189034322916655,
            "durationTicks": 362,
            "midi": 64,
            "name": "E4",
            "ticks": 71994,
            "time": 102.618523890625,
            "velocity": 0.8740157480314961
          },
          {
            "duration": 0.26088515104166277,
            "durationTicks": 182,
            "midi": 63,
            "name": "D#4",
            "ticks": 72382,
            "time": 103.17469663020833,
            "velocity": 0.8188976377952756
          },
          {
            "duration": 0.4701666458333449,
            "durationTicks": 328,
            "midi": 61,
            "name": "C#4",
            "ticks": 72574,
            "time": 103.44991613020832,
            "velocity": 0.7401574803149606
          },
          {
            "duration": 0.6106432656249865,
            "durationTicks": 426,
            "midi": 66,
            "name": "F#4",
            "ticks": 73146,
            "time": 104.269840890625,
            "velocity": 0.8976377952755905
          },
          {
            "duration": 0.1720121875000018,
            "durationTicks": 120,
            "midi": 66,
            "name": "F#4",
            "ticks": 73914,
            "time": 105.370718890625,
            "velocity": 0.905511811023622
          },
          {
            "duration": 0.1519440989583245,
            "durationTicks": 106,
            "midi": 66,
            "name": "F#4",
            "ticks": 74106,
            "time": 105.645938390625,
            "velocity": 0.8976377952755905
          },
          {
            "duration": 0.16914531770834174,
            "durationTicks": 118,
            "midi": 66,
            "name": "F#4",
            "ticks": 74302,
            "time": 105.92689163020833,
            "velocity": 0.8661417322834646
          },
          {
            "duration": 0.4701666458333307,
            "durationTicks": 328,
            "midi": 66,
            "name": "F#4",
            "ticks": 74490,
            "time": 106.196377390625,
            "velocity": 0.905511811023622
          },
          {
            "duration": 0.24368393229164553,
            "durationTicks": 170,
            "midi": 66,
            "name": "F#4",
            "ticks": 74876,
            "time": 106.74968326041667,
            "velocity": 0.8976377952755905
          },
          {
            "duration": 0.23508332291666534,
            "durationTicks": 164,
            "midi": 68,
            "name": "G#4",
            "ticks": 75068,
            "time": 107.02490276041667,
            "velocity": 0.889763779527559
          },
          {
            "duration": 0.2666188906249971,
            "durationTicks": 186,
            "midi": 66,
            "name": "F#4",
            "ticks": 75260,
            "time": 107.30012226041667,
            "velocity": 0.905511811023622
          },
          {
            "duration": 0.20641462499999363,
            "durationTicks": 144,
            "midi": 64,
            "name": "E4",
            "ticks": 75448,
            "time": 107.56960802083333,
            "velocity": 0.889763779527559
          },
          {
            "duration": 0.2551514114583284,
            "durationTicks": 178,
            "midi": 64,
            "name": "E4",
            "ticks": 75648,
            "time": 107.856295,
            "velocity": 0.9133858267716536
          },
          {
            "duration": 0.2580182812500027,
            "durationTicks": 180,
            "midi": 61,
            "name": "C#4",
            "ticks": 75840,
            "time": 108.1315145,
            "velocity": 0.8976377952755905
          },
          {
            "duration": 0.3554918541666581,
            "durationTicks": 248,
            "midi": 64,
            "name": "E4",
            "ticks": 76028,
            "time": 108.40100026041667,
            "velocity": 0.9133858267716536
          },
          {
            "duration": 0.24368393229167395,
            "durationTicks": 170,
            "midi": 64,
            "name": "E4",
            "ticks": 76408,
            "time": 108.94570552083333,
            "velocity": 0.9448818897637795
          },
          {
            "duration": 0.24655080208333402,
            "durationTicks": 172,
            "midi": 66,
            "name": "F#4",
            "ticks": 76604,
            "time": 109.22665876041667,
            "velocity": 0.905511811023622
          },
          {
            "duration": 0.3755599427083496,
            "durationTicks": 262,
            "midi": 68,
            "name": "G#4",
            "ticks": 76792,
            "time": 109.49614452083333,
            "velocity": 0.905511811023622
          },
          {
            "duration": 0.40422864062499286,
            "durationTicks": 282,
            "midi": 66,
            "name": "F#4",
            "ticks": 77082,
            "time": 109.911840640625,
            "velocity": 0.905511811023622
          },
          {
            "duration": 0.27235263020831724,
            "durationTicks": 190,
            "midi": 64,
            "name": "E4",
            "ticks": 77370,
            "time": 110.324669890625,
            "velocity": 0.8976377952755905
          },
          {
            "duration": 0.3440243750000036,
            "durationTicks": 240,
            "midi": 61,
            "name": "C#4",
            "ticks": 77566,
            "time": 110.60562313020833,
            "velocity": 0.8661417322834646
          },
          {
            "duration": 0.2694857604166714,
            "durationTicks": 188,
            "midi": 64,
            "name": "E4",
            "ticks": 77950,
            "time": 111.15606213020833,
            "velocity": 0.8976377952755905
          },
          {
            "duration": 0.2666188906249971,
            "durationTicks": 186,
            "midi": 66,
            "name": "F#4",
            "ticks": 78140,
            "time": 111.42841476041667,
            "velocity": 0.889763779527559
          },
          {
            "duration": 0.4099623802083272,
            "durationTicks": 286,
            "midi": 68,
            "name": "G#4",
            "ticks": 78332,
            "time": 111.70363426041668,
            "velocity": 0.905511811023622
          },
          {
            "duration": 0.33829063541666926,
            "durationTicks": 236,
            "midi": 73,
            "name": "C#5",
            "ticks": 78624,
            "time": 112.12219725,
            "velocity": 0.9291338582677166
          },
          {
            "duration": 0.24368393229165974,
            "durationTicks": 170,
            "midi": 68,
            "name": "G#4",
            "ticks": 78904,
            "time": 112.52355902083333,
            "velocity": 0.8976377952755905
          },
          {
            "duration": 0.27235263020833145,
            "durationTicks": 190,
            "midi": 66,
            "name": "F#4",
            "ticks": 79098,
            "time": 112.801645390625,
            "velocity": 0.8740157480314961
          },
          {
            "duration": 0.5103028229166569,
            "durationTicks": 356,
            "midi": 64,
            "name": "E4",
            "ticks": 79292,
            "time": 113.07973176041666,
            "velocity": 0.7795275590551181
          },
          {
            "duration": 0.1834796666666847,
            "durationTicks": 128,
            "midi": 69,
            "name": "A4",
            "ticks": 80064,
            "time": 114.18634349999999,
            "velocity": 0.905511811023622
          },
          {
            "duration": 0.16054470833333312,
            "durationTicks": 112,
            "midi": 69,
            "name": "A4",
            "ticks": 80256,
            "time": 114.461563,
            "velocity": 0.905511811023622
          },
          {
            "duration": 0.23508332291667955,
            "durationTicks": 164,
            "midi": 69,
            "name": "A4",
            "ticks": 80442,
            "time": 114.728181890625,
            "velocity": 0.8976377952755905
          },
          {
            "duration": 0.38702742187500405,
            "durationTicks": 270,
            "midi": 68,
            "name": "G#4",
            "ticks": 80638,
            "time": 115.00913513020832,
            "velocity": 0.8976377952755905
          },
          {
            "duration": 0.4099623802083272,
            "durationTicks": 286,
            "midi": 66,
            "name": "F#4",
            "ticks": 80928,
            "time": 115.42483125,
            "velocity": 0.8976377952755905
          },
          {
            "duration": 0.1920802760416791,
            "durationTicks": 134,
            "midi": 64,
            "name": "E4",
            "ticks": 81216,
            "time": 115.8376605,
            "velocity": 0.8818897637795275
          },
          {
            "duration": 0.8141910208333201,
            "durationTicks": 568,
            "midi": 64,
            "name": "E4",
            "ticks": 81408,
            "time": 116.11288,
            "velocity": 0.905511811023622
          },
          {
            "duration": 0.260885151041677,
            "durationTicks": 182,
            "midi": 61,
            "name": "C#4",
            "ticks": 81978,
            "time": 116.929937890625,
            "velocity": 0.8661417322834646
          },
          {
            "duration": 0.41856298958335003,
            "durationTicks": 292,
            "midi": 64,
            "name": "E4",
            "ticks": 82174,
            "time": 117.21089113020832,
            "velocity": 0.8188976377952756
          },
          {
            "duration": 0.16341157812499318,
            "durationTicks": 114,
            "midi": 64,
            "name": "E4",
            "ticks": 83128,
            "time": 118.57838802083333,
            "velocity": 0.9133858267716536
          },
          {
            "duration": 0.16627844791666746,
            "durationTicks": 116,
            "midi": 64,
            "name": "E4",
            "ticks": 83328,
            "time": 118.865075,
            "velocity": 0.9291338582677166
          },
          {
            "duration": 0.2379501927083254,
            "durationTicks": 166,
            "midi": 64,
            "name": "E4",
            "ticks": 83516,
            "time": 119.13456076041668,
            "velocity": 0.905511811023622
          },
          {
            "duration": 0.4099623802083414,
            "durationTicks": 286,
            "midi": 63,
            "name": "D#4",
            "ticks": 83704,
            "time": 119.40404652083333,
            "velocity": 0.905511811023622
          },
          {
            "duration": 0.39849490104167273,
            "durationTicks": 278,
            "midi": 61,
            "name": "C#4",
            "ticks": 83994,
            "time": 119.819742640625,
            "velocity": 0.889763779527559
          },
          {
            "duration": 0.26088515104166277,
            "durationTicks": 182,
            "midi": 59,
            "name": "B3",
            "ticks": 84284,
            "time": 120.23543876041667,
            "velocity": 0.8976377952755905
          },
          {
            "duration": 0.40709551041668135,
            "durationTicks": 284,
            "midi": 61,
            "name": "C#4",
            "ticks": 84480,
            "time": 120.516392,
            "velocity": 0.8976377952755905
          },
          {
            "duration": 0.1347428802083499,
            "durationTicks": 94,
            "midi": 59,
            "name": "B3",
            "ticks": 84766,
            "time": 120.92635438020832,
            "velocity": 0.7559055118110236
          },
          {
            "duration": 0.5848414375000033,
            "durationTicks": 408,
            "midi": 56,
            "name": "G#3",
            "ticks": 84864,
            "time": 121.066831,
            "velocity": 0.7007874015748031
          },
          {
            "duration": 0.5189034322916797,
            "durationTicks": 362,
            "midi": 69,
            "name": "A4",
            "ticks": 85816,
            "time": 122.43146102083332,
            "velocity": 0.9448818897637795
          },
          {
            "duration": 0.2092814947916537,
            "durationTicks": 146,
            "midi": 69,
            "name": "A4",
            "ticks": 86204,
            "time": 122.98763376041667,
            "velocity": 0.8976377952755905
          },
          {
            "duration": 0.21788210416667653,
            "durationTicks": 152,
            "midi": 69,
            "name": "A4",
            "ticks": 86400,
            "time": 123.268587,
            "velocity": 0.905511811023622
          },
          {
            "duration": 0.24368393229167395,
            "durationTicks": 170,
            "midi": 71,
            "name": "B4",
            "ticks": 86590,
            "time": 123.54093963020833,
            "velocity": 0.905511811023622
          },
          {
            "duration": 0.3898942916666499,
            "durationTicks": 272,
            "midi": 68,
            "name": "G#4",
            "ticks": 86780,
            "time": 123.81329226041667,
            "velocity": 0.905511811023622
          },
          {
            "duration": 0.3440243750000036,
            "durationTicks": 240,
            "midi": 66,
            "name": "F#4",
            "ticks": 87072,
            "time": 124.23185525,
            "velocity": 0.8976377952755905
          },
          {
            "duration": 0.27235263020833145,
            "durationTicks": 190,
            "midi": 66,
            "name": "F#4",
            "ticks": 87354,
            "time": 124.636083890625,
            "velocity": 0.8976377952755905
          },
          {
            "duration": 0.12900914062500135,
            "durationTicks": 90,
            "midi": 68,
            "name": "G#4",
            "ticks": 87552,
            "time": 124.919904,
            "velocity": 0.8346456692913385
          },
          {
            "duration": 0.13187601041666142,
            "durationTicks": 92,
            "midi": 66,
            "name": "F#4",
            "ticks": 87644,
            "time": 125.05178001041666,
            "velocity": 0.84251968503937
          },
          {
            "duration": 1.6656513489583205,
            "durationTicks": 1162,
            "midi": 64,
            "name": "E4",
            "ticks": 87738,
            "time": 125.186522890625,
            "velocity": 0.7795275590551181
          },
          {
            "duration": 0.15767783854164463,
            "durationTicks": 110,
            "midi": 68,
            "name": "G#4",
            "ticks": 151098,
            "time": 216.008957890625,
            "velocity": 0.968503937007874
          },
          {
            "duration": 0.16341157812499318,
            "durationTicks": 114,
            "midi": 68,
            "name": "G#4",
            "ticks": 151292,
            "time": 216.28704426041665,
            "velocity": 0.968503937007874
          },
          {
            "duration": 0.18347966666664206,
            "durationTicks": 128,
            "midi": 68,
            "name": "G#4",
            "ticks": 151482,
            "time": 216.559396890625,
            "velocity": 0.9448818897637795
          },
          {
            "duration": 0.17487905729163344,
            "durationTicks": 122,
            "midi": 68,
            "name": "G#4",
            "ticks": 151680,
            "time": 216.843217,
            "velocity": 0.968503937007874
          },
          {
            "duration": 0.18061279687501042,
            "durationTicks": 126,
            "midi": 68,
            "name": "G#4",
            "ticks": 151864,
            "time": 217.10696902083333,
            "velocity": 0.9448818897637795
          },
          {
            "duration": 0.2408170625000139,
            "durationTicks": 168,
            "midi": 68,
            "name": "G#4",
            "ticks": 152064,
            "time": 217.393656,
            "velocity": 0.9921259842519685
          },
          {
            "duration": 0.5447052604166913,
            "durationTicks": 380,
            "midi": 66,
            "name": "F#4",
            "ticks": 152252,
            "time": 217.66314176041666,
            "velocity": 0.9448818897637795
          },
          {
            "duration": 0.5963089166666578,
            "durationTicks": 416,
            "midi": 68,
            "name": "G#4",
            "ticks": 152634,
            "time": 218.210713890625,
            "velocity": 0.937007874015748
          },
          {
            "duration": 0.27235263020833145,
            "durationTicks": 190,
            "midi": 69,
            "name": "A4",
            "ticks": 154176,
            "time": 220.4210705,
            "velocity": 0.952755905511811
          },
          {
            "duration": 0.35549185416664386,
            "durationTicks": 248,
            "midi": 68,
            "name": "G#4",
            "ticks": 154368,
            "time": 220.69629,
            "velocity": 0.9921259842519685
          },
          {
            "duration": 0.40709551041669556,
            "durationTicks": 284,
            "midi": 64,
            "name": "E4",
            "ticks": 154652,
            "time": 221.10338551041664,
            "velocity": 0.968503937007874
          },
          {
            "duration": 0.27235263020835987,
            "durationTicks": 190,
            "midi": 66,
            "name": "F#4",
            "ticks": 154938,
            "time": 221.513347890625,
            "velocity": 0.968503937007874
          },
          {
            "duration": 1.0292062552083507,
            "durationTicks": 718,
            "midi": 64,
            "name": "E4",
            "ticks": 155130,
            "time": 221.788567390625,
            "velocity": 0.937007874015748
          }
        ],
        "endOfTrackTicks": 156040
      },
      {
        "channel": 4,
        "controlChanges": {
          "7": [
            {
              "number": 7,
              "ticks": 3382,
              "time": 4.267688817708334,
              "value": 0
            },
            {
              "number": 7,
              "ticks": 3456,
              "time": 4.373763,
              "value": 0.05511811023622047
            },
            {
              "number": 7,
              "ticks": 3486,
              "time": 4.416766046875,
              "value": 0.12598425196850394
            },
            {
              "number": 7,
              "ticks": 3516,
              "time": 4.45976909375,
              "value": 0.1732283464566929
            },
            {
              "number": 7,
              "ticks": 3546,
              "time": 4.502772140625,
              "value": 0.1968503937007874
            },
            {
              "number": 7,
              "ticks": 3576,
              "time": 4.5457751875,
              "value": 0.2283464566929134
            },
            {
              "number": 7,
              "ticks": 3606,
              "time": 4.588778234375,
              "value": 0.2440944881889764
            },
            {
              "number": 7,
              "ticks": 3636,
              "time": 4.63178128125,
              "value": 0.2677165354330709
            },
            {
              "number": 7,
              "ticks": 3666,
              "time": 4.674784328125,
              "value": 0.29133858267716534
            },
            {
              "number": 7,
              "ticks": 3740,
              "time": 4.7808585104166665,
              "value": 0.2992125984251969
            },
            {
              "number": 7,
              "ticks": 3770,
              "time": 4.823861557291667,
              "value": 0.30708661417322836
            },
            {
              "number": 7,
              "ticks": 3828,
              "time": 4.90700078125,
              "value": 0.33070866141732286
            },
            {
              "number": 7,
              "ticks": 3858,
              "time": 4.950003828125,
              "value": 0.33858267716535434
            },
            {
              "number": 7,
              "ticks": 3902,
              "time": 5.0130749635416665,
              "value": 0.3464566929133858
            },
            {
              "number": 7,
              "ticks": 3962,
              "time": 5.0990810572916665,
              "value": 0.3543307086614173
            },
            {
              "number": 7,
              "ticks": 4006,
              "time": 5.162152192708334,
              "value": 0.3700787401574803
            },
            {
              "number": 7,
              "ticks": 4036,
              "time": 5.205155239583334,
              "value": 0.3779527559055118
            },
            {
              "number": 7,
              "ticks": 4066,
              "time": 5.248158286458334,
              "value": 0.3858267716535433
            },
            {
              "number": 7,
              "ticks": 4096,
              "time": 5.291161333333334,
              "value": 0.3937007874015748
            },
            {
              "number": 7,
              "ticks": 4126,
              "time": 5.334164380208334,
              "value": 0.4015748031496063
            },
            {
              "number": 7,
              "ticks": 4156,
              "time": 5.377167427083334,
              "value": 0.41732283464566927
            },
            {
              "number": 7,
              "ticks": 4200,
              "time": 5.4402385625,
              "value": 0.4251968503937008
            },
            {
              "number": 7,
              "ticks": 4230,
              "time": 5.483241609375,
              "value": 0.4330708661417323
            },
            {
              "number": 7,
              "ticks": 4260,
              "time": 5.52624465625,
              "value": 0.4409448818897638
            },
            {
              "number": 7,
              "ticks": 4290,
              "time": 5.569247703125,
              "value": 0.44881889763779526
            },
            {
              "number": 7,
              "ticks": 4334,
              "time": 5.632318838541667,
              "value": 0.47244094488188976
            },
            {
              "number": 7,
              "ticks": 4364,
              "time": 5.6753218854166665,
              "value": 0.48031496062992124
            },
            {
              "number": 7,
              "ticks": 4394,
              "time": 5.718324932291666,
              "value": 0.4881889763779528
            },
            {
              "number": 7,
              "ticks": 4452,
              "time": 5.80146415625,
              "value": 0.5039370078740157
            },
            {
              "number": 7,
              "ticks": 4498,
              "time": 5.867402161458333,
              "value": 0.5196850393700787
            },
            {
              "number": 7,
              "ticks": 4572,
              "time": 5.97347634375,
              "value": 0.5354330708661418
            },
            {
              "number": 7,
              "ticks": 4602,
              "time": 6.016479390625,
              "value": 0.5433070866141733
            },
            {
              "number": 7,
              "ticks": 4632,
              "time": 6.0594824375,
              "value": 0.5511811023622047
            },
            {
              "number": 7,
              "ticks": 4662,
              "time": 6.102485484375,
              "value": 0.5669291338582677
            },
            {
              "number": 7,
              "ticks": 4766,
              "time": 6.251562713541667,
              "value": 0.5748031496062992
            },
            {
              "number": 7,
              "ticks": 4796,
              "time": 6.294565760416667,
              "value": 0.5826771653543307
            },
            {
              "number": 7,
              "ticks": 4840,
              "time": 6.357636895833333,
              "value": 0.5905511811023622
            },
            {
              "number": 7,
              "ticks": 4870,
              "time": 6.400639942708333,
              "value": 0.5984251968503937
            },
            {
              "number": 7,
              "ticks": 4944,
              "time": 6.506714125,
              "value": 0.6062992125984252
            },
            {
              "number": 7,
              "ticks": 5018,
              "time": 6.612788307291667,
              "value": 0.6141732283464567
            },
            {
              "number": 7,
              "ticks": 5062,
              "time": 6.675859442708333,
              "value": 0.6220472440944882
            },
            {
              "number": 7,
              "ticks": 5122,
              "time": 6.761865536458333,
              "value": 0.6377952755905512
            },
            {
              "number": 7,
              "ticks": 5212,
              "time": 6.890874677083333,
              "value": 0.6456692913385826
            },
            {
              "number": 7,
              "ticks": 5272,
              "time": 6.976880770833333,
              "value": 0.6535433070866141
            },
            {
              "number": 7,
              "ticks": 5346,
              "time": 7.082954953125,
              "value": 0.6614173228346457
            },
            {
              "number": 7,
              "ticks": 5390,
              "time": 7.146026088541667,
              "value": 0.6692913385826772
            },
            {
              "number": 7,
              "ticks": 5494,
              "time": 7.295103317708333,
              "value": 0.6771653543307087
            },
            {
              "number": 7,
              "ticks": 5538,
              "time": 7.358174453125,
              "value": 0.6850393700787402
            },
            {
              "number": 7,
              "ticks": 5568,
              "time": 7.4011775,
              "value": 0.6929133858267716
            },
            {
              "number": 7,
              "ticks": 5612,
              "time": 7.464248635416667,
              "value": 0.7007874015748031
            },
            {
              "number": 7,
              "ticks": 5672,
              "time": 7.550254729166667,
              "value": 0.7086614173228346
            },
            {
              "number": 7,
              "ticks": 5792,
              "time": 7.722266916666667,
              "value": 0.7165354330708661
            },
            {
              "number": 7,
              "ticks": 5866,
              "time": 7.828341098958333,
              "value": 0.7244094488188977
            },
            {
              "number": 7,
              "ticks": 5986,
              "time": 8.000353286458333,
              "value": 0.7322834645669292
            },
            {
              "number": 7,
              "ticks": 6058,
              "time": 8.103560598958333,
              "value": 0.7401574803149606
            },
            {
              "number": 7,
              "ticks": 6104,
              "time": 8.169498604166668,
              "value": 0.7480314960629921
            },
            {
              "number": 7,
              "ticks": 6148,
              "time": 8.232569739583333,
              "value": 0.7559055118110236
            },
            {
              "number": 7,
              "ticks": 6252,
              "time": 8.381646968750001,
              "value": 0.7637795275590551
            },
            {
              "number": 7,
              "ticks": 6326,
              "time": 8.487721151041667,
              "value": 0.7716535433070866
            },
            {
              "number": 7,
              "ticks": 6416,
              "time": 8.616730291666668,
              "value": 0.7795275590551181
            },
            {
              "number": 7,
              "ticks": 6506,
              "time": 8.745739432291668,
              "value": 0.7874015748031497
            },
            {
              "number": 7,
              "ticks": 6594,
              "time": 8.871881703125,
              "value": 0.7952755905511811
            },
            {
              "number": 7,
              "ticks": 6654,
              "time": 8.957887796875001,
              "value": 0.8031496062992126
            },
            {
              "number": 7,
              "ticks": 6772,
              "time": 9.127033114583334,
              "value": 0.8110236220472441
            },
            {
              "number": 7,
              "ticks": 6832,
              "time": 9.213039208333333,
              "value": 0.8188976377952756
            },
            {
              "number": 7,
              "ticks": 6892,
              "time": 9.299045302083334,
              "value": 0.8267716535433071
            },
            {
              "number": 7,
              "ticks": 6952,
              "time": 9.385051395833333,
              "value": 0.8346456692913385
            },
            {
              "number": 7,
              "ticks": 6996,
              "time": 9.44812253125,
              "value": 0.84251968503937
            },
            {
              "number": 7,
              "ticks": 7130,
              "time": 9.640202807291667,
              "value": 0.8503937007874016
            },
            {
              "number": 7,
              "ticks": 7174,
              "time": 9.703273942708334,
              "value": 0.8582677165354331
            },
            {
              "number": 7,
              "ticks": 7264,
              "time": 9.832283083333333,
              "value": 0.8661417322834646
            },
            {
              "number": 7,
              "ticks": 7368,
              "time": 9.9813603125,
              "value": 0.8740157480314961
            },
            {
              "number": 7,
              "ticks": 7428,
              "time": 10.06736640625,
              "value": 0.8818897637795275
            },
            {
              "number": 7,
              "ticks": 7472,
              "time": 10.130437541666668,
              "value": 0.889763779527559
            },
            {
              "number": 7,
              "ticks": 7516,
              "time": 10.193508677083333,
              "value": 0.8976377952755905
            },
            {
              "number": 7,
              "ticks": 7590,
              "time": 10.299582859375,
              "value": 0.905511811023622
            },
            {
              "number": 7,
              "ticks": 7650,
              "time": 10.385588953125,
              "value": 0.9133858267716536
            },
            {
              "number": 7,
              "ticks": 7680,
              "time": 10.428592,
              "value": 0.9212598425196851
            },
            {
              "number": 7,
              "ticks": 7858,
              "time": 10.683743411458334,
              "value": 0.9291338582677166
            },
            {
              "number": 7,
              "ticks": 7962,
              "time": 10.832820640625,
              "value": 0.937007874015748
            },
            {
              "number": 7,
              "ticks": 8006,
              "time": 10.895891776041665,
              "value": 0.9448818897637795
            },
            {
              "number": 7,
              "ticks": 8096,
              "time": 11.024900916666667,
              "value": 0.952755905511811
            },
            {
              "number": 7,
              "ticks": 8170,
              "time": 11.130975098958334,
              "value": 0.9606299212598425
            },
            {
              "number": 7,
              "ticks": 8334,
              "time": 11.366058421875,
              "value": 0.968503937007874
            },
            {
              "number": 7,
              "ticks": 8482,
              "time": 11.578206786458335,
              "value": 0.9763779527559056
            },
            {
              "number": 7,
              "ticks": 8586,
              "time": 11.727284015625001,
              "value": 0.984251968503937
            },
            {
              "number": 7,
              "ticks": 8692,
              "time": 11.879228114583334,
              "value": 0.9921259842519685
            },
            {
              "number": 7,
              "ticks": 8780,
              "time": 12.005370385416667,
              "value": 1
            },
            {
              "number": 7,
              "ticks": 158612,
              "time": 226.77978769791665,
              "value": 0.937007874015748
            },
            {
              "number": 7,
              "ticks": 158642,
              "time": 226.82279074479166,
              "value": 0.8582677165354331
            },
            {
              "number": 7,
              "ticks": 158672,
              "time": 226.86579379166665,
              "value": 0.7874015748031497
            },
            {
              "number": 7,
              "ticks": 158716,
              "time": 226.92886492708334,
              "value": 0.7086614173228346
            },
            {
              "number": 7,
              "ticks": 158746,
              "time": 226.97186797395835,
              "value": 0.6614173228346457
            },
            {
              "number": 7,
              "ticks": 158776,
              "time": 227.01487102083334,
              "value": 0.6141732283464567
            },
            {
              "number": 7,
              "ticks": 158806,
              "time": 227.05787406770835,
              "value": 0.5669291338582677
            },
            {
              "number": 7,
              "ticks": 158836,
              "time": 227.10087711458334,
              "value": 0.5118110236220472
            },
            {
              "number": 7,
              "ticks": 158866,
              "time": 227.14388016145836,
              "value": 0.47244094488188976
            },
            {
              "number": 7,
              "ticks": 158896,
              "time": 227.18688320833334,
              "value": 0.4409448818897638
            },
            {
              "number": 7,
              "ticks": 158926,
              "time": 227.22988625520836,
              "value": 0.41732283464566927
            },
            {
              "number": 7,
              "ticks": 158956,
              "time": 227.27288930208334,
              "value": 0.3937007874015748
            },
            {
              "number": 7,
              "ticks": 159014,
              "time": 227.35602852604165,
              "value": 0.36220472440944884
            },
            {
              "number": 7,
              "ticks": 159088,
              "time": 227.46210270833333,
              "value": 0.3543307086614173
            },
            {
              "number": 7,
              "ticks": 159460,
              "time": 227.99534048958336,
              "value": 0.33070866141732286
            },
            {
              "number": 7,
              "ticks": 159490,
              "time": 228.03834353645834,
              "value": 0.30708661417322836
            },
            {
              "number": 7,
              "ticks": 159520,
              "time": 228.08134658333336,
              "value": 0.2992125984251969
            },
            {
              "number": 7,
              "ticks": 159564,
              "time": 228.14441771875,
              "value": 0.2677165354330709
            },
            {
              "number": 7,
              "ticks": 159638,
              "time": 228.25049190104167,
              "value": 0.2755905511811024
            },
            {
              "number": 7,
              "ticks": 159684,
              "time": 228.31642990625,
              "value": 0.29133858267716534
            },
            {
              "number": 7,
              "ticks": 159728,
              "time": 228.37950104166666,
              "value": 0.30708661417322836
            },
            {
              "number": 7,
              "ticks": 159758,
              "time": 228.42250408854164,
              "value": 0.33070866141732286
            },
            {
              "number": 7,
              "ticks": 159788,
              "time": 228.46550713541666,
              "value": 0.36220472440944884
            },
            {
              "number": 7,
              "ticks": 159832,
              "time": 228.52857827083335,
              "value": 0.3779527559055118
            },
            {
              "number": 7,
              "ticks": 159862,
              "time": 228.57158131770834,
              "value": 0.3937007874015748
            },
            {
              "number": 7,
              "ticks": 159922,
              "time": 228.65758741145834,
              "value": 0.4015748031496063
            },
            {
              "number": 7,
              "ticks": 160130,
              "time": 228.95574186979167,
              "value": 0.4094488188976378
            },
            {
              "number": 7,
              "ticks": 160324,
              "time": 229.23382823958335,
              "value": 0.41732283464566927
            },
            {
              "number": 7,
              "ticks": 160428,
              "time": 229.38290546875,
              "value": 0.4251968503937008
            },
            {
              "number": 7,
              "ticks": 160502,
              "time": 229.48897965104166,
              "value": 0.4330708661417323
            },
            {
              "number": 7,
              "ticks": 160606,
              "time": 229.63805688020835,
              "value": 0.4409448818897638
            },
            {
              "number": 7,
              "ticks": 160710,
              "time": 229.787134109375,
              "value": 0.44881889763779526
            },
            {
              "number": 7,
              "ticks": 160754,
              "time": 229.85020524479165,
              "value": 0.4566929133858268
            },
            {
              "number": 7,
              "ticks": 160784,
              "time": 229.89320829166667,
              "value": 0.4645669291338583
            },
            {
              "number": 7,
              "ticks": 160828,
              "time": 229.95627942708333,
              "value": 0.47244094488188976
            },
            {
              "number": 7,
              "ticks": 160872,
              "time": 230.0193505625,
              "value": 0.48031496062992124
            },
            {
              "number": 7,
              "ticks": 160948,
              "time": 230.12829161458333,
              "value": 0.4881889763779528
            },
            {
              "number": 7,
              "ticks": 160978,
              "time": 230.17129466145835,
              "value": 0.49606299212598426
            },
            {
              "number": 7,
              "ticks": 161082,
              "time": 230.320371890625,
              "value": 0.5039370078740157
            },
            {
              "number": 7,
              "ticks": 161186,
              "time": 230.46944911979165,
              "value": 0.5196850393700787
            },
            {
              "number": 7,
              "ticks": 161260,
              "time": 230.57552330208335,
              "value": 0.5275590551181102
            },
            {
              "number": 7,
              "ticks": 161304,
              "time": 230.6385944375,
              "value": 0.5354330708661418
            },
            {
              "number": 7,
              "ticks": 161334,
              "time": 230.681597484375,
              "value": 0.5433070866141733
            },
            {
              "number": 7,
              "ticks": 161378,
              "time": 230.74466861979167,
              "value": 0.5511811023622047
            },
            {
              "number": 7,
              "ticks": 161468,
              "time": 230.87367776041665,
              "value": 0.5590551181102362
            },
            {
              "number": 7,
              "ticks": 161616,
              "time": 231.085826125,
              "value": 0.5669291338582677
            },
            {
              "number": 7,
              "ticks": 161722,
              "time": 231.23777022395834,
              "value": 0.5748031496062992
            },
            {
              "number": 7,
              "ticks": 161766,
              "time": 231.300841359375,
              "value": 0.5826771653543307
            },
            {
              "number": 7,
              "ticks": 161824,
              "time": 231.38398058333334,
              "value": 0.5905511811023622
            },
            {
              "number": 7,
              "ticks": 161900,
              "time": 231.49292163541665,
              "value": 0.5984251968503937
            },
            {
              "number": 7,
              "ticks": 161974,
              "time": 231.59899581770836,
              "value": 0.6062992125984252
            },
            {
              "number": 7,
              "ticks": 162034,
              "time": 231.68500191145836,
              "value": 0.6141732283464567
            },
            {
              "number": 7,
              "ticks": 162078,
              "time": 231.748073046875,
              "value": 0.6220472440944882
            },
            {
              "number": 7,
              "ticks": 162152,
              "time": 231.85414722916667,
              "value": 0.6299212598425197
            },
            {
              "number": 7,
              "ticks": 162256,
              "time": 232.00322445833334,
              "value": 0.6377952755905512
            },
            {
              "number": 7,
              "ticks": 162360,
              "time": 232.1523016875,
              "value": 0.6456692913385826
            },
            {
              "number": 7,
              "ticks": 162434,
              "time": 232.25837586979165,
              "value": 0.6535433070866141
            },
            {
              "number": 7,
              "ticks": 162494,
              "time": 232.34438196354165,
              "value": 0.6614173228346457
            },
            {
              "number": 7,
              "ticks": 162568,
              "time": 232.45045614583336,
              "value": 0.6692913385826772
            },
            {
              "number": 7,
              "ticks": 162614,
              "time": 232.51639415104165,
              "value": 0.6771653543307087
            },
            {
              "number": 7,
              "ticks": 162672,
              "time": 232.599533375,
              "value": 0.6850393700787402
            },
            {
              "number": 7,
              "ticks": 162746,
              "time": 232.70560755729167,
              "value": 0.7007874015748031
            },
            {
              "number": 7,
              "ticks": 162792,
              "time": 232.7715455625,
              "value": 0.7086614173228346
            },
            {
              "number": 7,
              "ticks": 162880,
              "time": 232.89768783333335,
              "value": 0.7165354330708661
            },
            {
              "number": 7,
              "ticks": 162954,
              "time": 233.003762015625,
              "value": 0.7244094488188977
            },
            {
              "number": 7,
              "ticks": 163014,
              "time": 233.089768109375,
              "value": 0.7322834645669292
            },
            {
              "number": 7,
              "ticks": 163044,
              "time": 233.13277115625,
              "value": 0.7401574803149606
            },
            {
              "number": 7,
              "ticks": 163074,
              "time": 233.175774203125,
              "value": 0.7559055118110236
            },
            {
              "number": 7,
              "ticks": 163104,
              "time": 233.21877725,
              "value": 0.7637795275590551
            },
            {
              "number": 7,
              "ticks": 163192,
              "time": 233.34491952083334,
              "value": 0.7716535433070866
            },
            {
              "number": 7,
              "ticks": 163282,
              "time": 233.47392866145836,
              "value": 0.7795275590551181
            },
            {
              "number": 7,
              "ticks": 163386,
              "time": 233.623005890625,
              "value": 0.7874015748031497
            },
            {
              "number": 7,
              "ticks": 163446,
              "time": 233.709011984375,
              "value": 0.7952755905511811
            },
            {
              "number": 7,
              "ticks": 163506,
              "time": 233.795018078125,
              "value": 0.8031496062992126
            },
            {
              "number": 7,
              "ticks": 163564,
              "time": 233.87815730208334,
              "value": 0.8110236220472441
            },
            {
              "number": 7,
              "ticks": 163684,
              "time": 234.05016948958334,
              "value": 0.8188976377952756
            },
            {
              "number": 7,
              "ticks": 163758,
              "time": 234.156243671875,
              "value": 0.8267716535433071
            },
            {
              "number": 7,
              "ticks": 163818,
              "time": 234.242249765625,
              "value": 0.8346456692913385
            },
            {
              "number": 7,
              "ticks": 163892,
              "time": 234.34832394791667,
              "value": 0.84251968503937
            },
            {
              "number": 7,
              "ticks": 163936,
              "time": 234.41139508333333,
              "value": 0.8503937007874016
            },
            {
              "number": 7,
              "ticks": 164026,
              "time": 234.54040422395835,
              "value": 0.8582677165354331
            },
            {
              "number": 7,
              "ticks": 164070,
              "time": 234.603475359375,
              "value": 0.8661417322834646
            },
            {
              "number": 7,
              "ticks": 164190,
              "time": 234.775487546875,
              "value": 0.8740157480314961
            },
            {
              "number": 7,
              "ticks": 164234,
              "time": 234.83855868229165,
              "value": 0.8818897637795275
            },
            {
              "number": 7,
              "ticks": 164322,
              "time": 234.964700953125,
              "value": 0.889763779527559
            },
            {
              "number": 7,
              "ticks": 164352,
              "time": 235.007704,
              "value": 0.8976377952755905
            },
            {
              "number": 7,
              "ticks": 164412,
              "time": 235.09371009375,
              "value": 0.905511811023622
            },
            {
              "number": 7,
              "ticks": 164576,
              "time": 235.32879341666666,
              "value": 0.9133858267716536
            },
            {
              "number": 7,
              "ticks": 164636,
              "time": 235.41479951041666,
              "value": 0.9212598425196851
            },
            {
              "number": 7,
              "ticks": 164710,
              "time": 235.52087369270834,
              "value": 0.9291338582677166
            },
            {
              "number": 7,
              "ticks": 164770,
              "time": 235.60687978645834,
              "value": 0.937007874015748
            },
            {
              "number": 7,
              "ticks": 164814,
              "time": 235.669950921875,
              "value": 0.9448818897637795
            },
            {
              "number": 7,
              "ticks": 164904,
              "time": 235.79896006250002,
              "value": 0.952755905511811
            },
            {
              "number": 7,
              "ticks": 164962,
              "time": 235.88209928645836,
              "value": 0.9606299212598425
            },
            {
              "number": 7,
              "ticks": 165008,
              "time": 235.94803729166665,
              "value": 0.9763779527559056
            },
            {
              "number": 7,
              "ticks": 165156,
              "time": 236.16018565625,
              "value": 0.984251968503937
            },
            {
              "number": 7,
              "ticks": 165200,
              "time": 236.22325679166667,
              "value": 0.9921259842519685
            },
            {
              "number": 7,
              "ticks": 165230,
              "time": 236.26625983854166,
              "value": 1
            }
          ]
        },
        "pitchBends": [],
        "instrument": {
          "family": "piano",
          "number": 0,
          "name": "acoustic grand piano"
        },
        "name": "",
        "notes": [
          {
            "duration": 1.5481096874999993,
            "durationTicks": 1080,
            "midi": 54,
            "name": "F#3",
            "ticks": 3452,
            "time": 4.368029260416667,
            "velocity": 0.8346456692913385
          },
          {
            "duration": 1.5710446458333331,
            "durationTicks": 1096,
            "midi": 70,
            "name": "A#4",
            "ticks": 3452,
            "time": 4.368029260416667,
            "velocity": 0.8267716535433071
          },
          {
            "duration": 1.5624440364583334,
            "durationTicks": 1090,
            "midi": 73,
            "name": "C#5",
            "ticks": 3452,
            "time": 4.368029260416667,
            "velocity": 0.8346456692913385
          },
          {
            "duration": 1.5481096874999993,
            "durationTicks": 1080,
            "midi": 42,
            "name": "F#2",
            "ticks": 3456,
            "time": 4.373763,
            "velocity": 0.8346456692913385
          },
          {
            "duration": 1.568177776041666,
            "durationTicks": 1094,
            "midi": 66,
            "name": "F#4",
            "ticks": 3456,
            "time": 4.373763,
            "velocity": 0.8110236220472441
          },
          {
            "duration": 1.006271296875,
            "durationTicks": 702,
            "midi": 45,
            "name": "A2",
            "ticks": 4602,
            "time": 6.016479390625,
            "velocity": 0.8582677165354331
          },
          {
            "duration": 1.0091381666666663,
            "durationTicks": 704,
            "midi": 76,
            "name": "E5",
            "ticks": 4602,
            "time": 6.016479390625,
            "velocity": 0.8031496062992126
          },
          {
            "duration": 1.0234725156250004,
            "durationTicks": 714,
            "midi": 73,
            "name": "C#5",
            "ticks": 4604,
            "time": 6.0193462604166665,
            "velocity": 0.7952755905511811
          },
          {
            "duration": 1.0062712968749992,
            "durationTicks": 702,
            "midi": 57,
            "name": "A3",
            "ticks": 4606,
            "time": 6.022213130208334,
            "velocity": 0.8582677165354331
          },
          {
            "duration": 1.0005375572916666,
            "durationTicks": 698,
            "midi": 69,
            "name": "A4",
            "ticks": 4608,
            "time": 6.02508,
            "velocity": 0.8503937007874016
          },
          {
            "duration": 1.0148719062499998,
            "durationTicks": 708,
            "midi": 71,
            "name": "B4",
            "ticks": 5368,
            "time": 7.114490520833333,
            "velocity": 0.8031496062992126
          },
          {
            "duration": 1.0120050364583344,
            "durationTicks": 706,
            "midi": 75,
            "name": "D#5",
            "ticks": 5368,
            "time": 7.114490520833333,
            "velocity": 0.84251968503937
          },
          {
            "duration": 1.0177387760416687,
            "durationTicks": 710,
            "midi": 47,
            "name": "B2",
            "ticks": 5374,
            "time": 7.123091130208333,
            "velocity": 0.8267716535433071
          },
          {
            "duration": 1.017738776041667,
            "durationTicks": 710,
            "midi": 59,
            "name": "B3",
            "ticks": 5376,
            "time": 7.125958,
            "velocity": 0.8267716535433071
          },
          {
            "duration": 1.0234725156250013,
            "durationTicks": 714,
            "midi": 78,
            "name": "F#5",
            "ticks": 5376,
            "time": 7.125958,
            "velocity": 0.7952755905511811
          },
          {
            "duration": 1.017738776041666,
            "durationTicks": 710,
            "midi": 76,
            "name": "E5",
            "ticks": 6136,
            "time": 8.215368520833334,
            "velocity": 0.7952755905511811
          },
          {
            "duration": 1.0234725156250004,
            "durationTicks": 714,
            "midi": 73,
            "name": "C#5",
            "ticks": 6138,
            "time": 8.218235390625,
            "velocity": 0.8031496062992126
          },
          {
            "duration": 1.0120050364583335,
            "durationTicks": 706,
            "midi": 61,
            "name": "C#4",
            "ticks": 6142,
            "time": 8.223969130208333,
            "velocity": 0.8346456692913385
          },
          {
            "duration": 1.0120050364583335,
            "durationTicks": 706,
            "midi": 49,
            "name": "C#3",
            "ticks": 6144,
            "time": 8.226836,
            "velocity": 0.8346456692913385
          },
          {
            "duration": 1.0062712968749992,
            "durationTicks": 702,
            "midi": 80,
            "name": "G#5",
            "ticks": 6144,
            "time": 8.226836,
            "velocity": 0.8110236220472441
          },
          {
            "duration": 0.4586991666666673,
            "durationTicks": 320,
            "midi": 49,
            "name": "C#3",
            "ticks": 6904,
            "time": 9.316246520833333,
            "velocity": 0.84251968503937
          },
          {
            "duration": 0.4615660364583345,
            "durationTicks": 322,
            "midi": 73,
            "name": "C#5",
            "ticks": 6904,
            "time": 9.316246520833333,
            "velocity": 0.7952755905511811
          },
          {
            "duration": 0.45869916666666555,
            "durationTicks": 320,
            "midi": 61,
            "name": "C#4",
            "ticks": 6908,
            "time": 9.321980260416668,
            "velocity": 0.84251968503937
          },
          {
            "duration": 0.45583229687500015,
            "durationTicks": 318,
            "midi": 80,
            "name": "G#5",
            "ticks": 6910,
            "time": 9.324847130208333,
            "velocity": 0.8110236220472441
          },
          {
            "duration": 0.47016664583333245,
            "durationTicks": 328,
            "midi": 76,
            "name": "E5",
            "ticks": 6912,
            "time": 9.327714,
            "velocity": 0.7952755905511811
          },
          {
            "duration": 0.47016664583333423,
            "durationTicks": 328,
            "midi": 47,
            "name": "B2",
            "ticks": 7290,
            "time": 9.869552390625,
            "velocity": 0.8503937007874016
          },
          {
            "duration": 0.4615660364583327,
            "durationTicks": 322,
            "midi": 71,
            "name": "B4",
            "ticks": 7290,
            "time": 9.869552390625,
            "velocity": 0.8110236220472441
          },
          {
            "duration": 0.4586991666666673,
            "durationTicks": 320,
            "midi": 78,
            "name": "F#5",
            "ticks": 7290,
            "time": 9.869552390625,
            "velocity": 0.7952755905511811
          },
          {
            "duration": 0.47016664583333245,
            "durationTicks": 328,
            "midi": 75,
            "name": "D#5",
            "ticks": 7294,
            "time": 9.875286130208334,
            "velocity": 0.8031496062992126
          },
          {
            "duration": 0.47016664583333423,
            "durationTicks": 328,
            "midi": 59,
            "name": "B3",
            "ticks": 7296,
            "time": 9.878153,
            "velocity": 0.8503937007874016
          },
          {
            "duration": 1.0062712968749992,
            "durationTicks": 702,
            "midi": 69,
            "name": "A4",
            "ticks": 7676,
            "time": 10.422858260416668,
            "velocity": 0.8031496062992126
          },
          {
            "duration": 1.014871906249999,
            "durationTicks": 708,
            "midi": 76,
            "name": "E5",
            "ticks": 7676,
            "time": 10.422858260416668,
            "velocity": 0.7952755905511811
          },
          {
            "duration": 1.0091381666666663,
            "durationTicks": 704,
            "midi": 45,
            "name": "A2",
            "ticks": 7680,
            "time": 10.428592,
            "velocity": 0.8110236220472441
          },
          {
            "duration": 1.0091381666666663,
            "durationTicks": 704,
            "midi": 57,
            "name": "A3",
            "ticks": 7680,
            "time": 10.428592,
            "velocity": 0.8110236220472441
          },
          {
            "duration": 0.9976706874999994,
            "durationTicks": 696,
            "midi": 73,
            "name": "C#5",
            "ticks": 7680,
            "time": 10.428592,
            "velocity": 0.8267716535433071
          },
          {
            "duration": 1.0005375572916666,
            "durationTicks": 698,
            "midi": 81,
            "name": "A5",
            "ticks": 7680,
            "time": 10.428592,
            "velocity": 0.8188976377952756
          },
          {
            "duration": 1.0062712968749992,
            "durationTicks": 702,
            "midi": 47,
            "name": "B2",
            "ticks": 8440,
            "time": 11.518002520833335,
            "velocity": 0.8503937007874016
          },
          {
            "duration": 1.0120050364583317,
            "durationTicks": 706,
            "midi": 71,
            "name": "B4",
            "ticks": 8440,
            "time": 11.518002520833335,
            "velocity": 0.8110236220472441
          },
          {
            "duration": 1.0062712968749992,
            "durationTicks": 702,
            "midi": 59,
            "name": "B3",
            "ticks": 8442,
            "time": 11.520869390625,
            "velocity": 0.8503937007874016
          },
          {
            "duration": 1.0148719062500007,
            "durationTicks": 708,
            "midi": 75,
            "name": "D#5",
            "ticks": 8442,
            "time": 11.520869390625,
            "velocity": 0.8031496062992126
          },
          {
            "duration": 1.0005375572916684,
            "durationTicks": 698,
            "midi": 78,
            "name": "F#5",
            "ticks": 8444,
            "time": 11.523736260416666,
            "velocity": 0.8110236220472441
          },
          {
            "duration": 0.9919369479166686,
            "durationTicks": 692,
            "midi": 83,
            "name": "B5",
            "ticks": 8444,
            "time": 11.523736260416666,
            "velocity": 0.8031496062992126
          },
          {
            "duration": 1.0234725156250004,
            "durationTicks": 714,
            "midi": 73,
            "name": "C#5",
            "ticks": 9208,
            "time": 12.618880520833335,
            "velocity": 0.84251968503937
          },
          {
            "duration": 0.9976706874999994,
            "durationTicks": 696,
            "midi": 80,
            "name": "G#5",
            "ticks": 9210,
            "time": 12.621747390625,
            "velocity": 0.84251968503937
          },
          {
            "duration": 1.0234725156250004,
            "durationTicks": 714,
            "midi": 85,
            "name": "C#6",
            "ticks": 9210,
            "time": 12.621747390625,
            "velocity": 0.84251968503937
          },
          {
            "duration": 1.0091381666666681,
            "durationTicks": 704,
            "midi": 61,
            "name": "C#4",
            "ticks": 9212,
            "time": 12.624614260416665,
            "velocity": 0.8503937007874016
          },
          {
            "duration": 1.0091381666666663,
            "durationTicks": 704,
            "midi": 49,
            "name": "C#3",
            "ticks": 9214,
            "time": 12.627481130208334,
            "velocity": 0.8503937007874016
          },
          {
            "duration": 1.0091381666666663,
            "durationTicks": 704,
            "midi": 76,
            "name": "E5",
            "ticks": 9216,
            "time": 12.630348,
            "velocity": 0.7874015748031497
          },
          {
            "duration": 0.4500985572916658,
            "durationTicks": 314,
            "midi": 73,
            "name": "C#5",
            "ticks": 9976,
            "time": 13.719758520833334,
            "velocity": 0.8503937007874016
          },
          {
            "duration": 0.4500985572916658,
            "durationTicks": 314,
            "midi": 85,
            "name": "C#6",
            "ticks": 9978,
            "time": 13.722625390625,
            "velocity": 0.8503937007874016
          },
          {
            "duration": 0.46729977604166706,
            "durationTicks": 326,
            "midi": 61,
            "name": "C#4",
            "ticks": 9980,
            "time": 13.725492260416667,
            "velocity": 0.84251968503937
          },
          {
            "duration": 0.4558322968749984,
            "durationTicks": 318,
            "midi": 76,
            "name": "E5",
            "ticks": 9980,
            "time": 13.725492260416667,
            "velocity": 0.7952755905511811
          },
          {
            "duration": 0.452965427083333,
            "durationTicks": 316,
            "midi": 80,
            "name": "G#5",
            "ticks": 9980,
            "time": 13.725492260416667,
            "velocity": 0.8346456692913385
          },
          {
            "duration": 0.46729977604166706,
            "durationTicks": 326,
            "midi": 49,
            "name": "C#3",
            "ticks": 9984,
            "time": 13.731226,
            "velocity": 0.84251968503937
          },
          {
            "duration": 0.4759003854166668,
            "durationTicks": 332,
            "midi": 71,
            "name": "B4",
            "ticks": 10360,
            "time": 14.270197520833333,
            "velocity": 0.8188976377952756
          },
          {
            "duration": 0.48163412499999936,
            "durationTicks": 336,
            "midi": 47,
            "name": "B2",
            "ticks": 10362,
            "time": 14.273064390625,
            "velocity": 0.84251968503937
          },
          {
            "duration": 0.48163412499999936,
            "durationTicks": 336,
            "midi": 59,
            "name": "B3",
            "ticks": 10368,
            "time": 14.281665,
            "velocity": 0.84251968503937
          },
          {
            "duration": 0.4672997760416653,
            "durationTicks": 326,
            "midi": 75,
            "name": "D#5",
            "ticks": 10368,
            "time": 14.281665,
            "velocity": 0.8582677165354331
          },
          {
            "duration": 0.48163412499999936,
            "durationTicks": 336,
            "midi": 78,
            "name": "F#5",
            "ticks": 10368,
            "time": 14.281665,
            "velocity": 0.8267716535433071
          },
          {
            "duration": 0.4759003854166668,
            "durationTicks": 332,
            "midi": 83,
            "name": "B5",
            "ticks": 10368,
            "time": 14.281665,
            "velocity": 0.8188976377952756
          },
          {
            "duration": 1.0120050364583317,
            "durationTicks": 706,
            "midi": 45,
            "name": "A2",
            "ticks": 10744,
            "time": 14.820636520833334,
            "velocity": 0.8267716535433071
          },
          {
            "duration": 1.003404427083332,
            "durationTicks": 700,
            "midi": 76,
            "name": "E5",
            "ticks": 10744,
            "time": 14.820636520833334,
            "velocity": 0.8582677165354331
          },
          {
            "duration": 1.017738776041666,
            "durationTicks": 710,
            "midi": 73,
            "name": "C#5",
            "ticks": 10750,
            "time": 14.829237130208334,
            "velocity": 0.8661417322834646
          },
          {
            "duration": 1.0005375572916666,
            "durationTicks": 698,
            "midi": 81,
            "name": "A5",
            "ticks": 10750,
            "time": 14.829237130208334,
            "velocity": 0.8661417322834646
          },
          {
            "duration": 1.017738776041666,
            "durationTicks": 710,
            "midi": 85,
            "name": "C#6",
            "ticks": 10750,
            "time": 14.829237130208334,
            "velocity": 0.8740157480314961
          },
          {
            "duration": 1.0120050364583335,
            "durationTicks": 706,
            "midi": 57,
            "name": "A3",
            "ticks": 10752,
            "time": 14.832104000000001,
            "velocity": 0.8661417322834646
          },
          {
            "duration": 0.994803817708334,
            "durationTicks": 694,
            "midi": 59,
            "name": "B3",
            "ticks": 11512,
            "time": 15.921514520833334,
            "velocity": 0.8976377952755905
          },
          {
            "duration": 0.9948038177083358,
            "durationTicks": 694,
            "midi": 47,
            "name": "B2",
            "ticks": 11514,
            "time": 15.924381390625,
            "velocity": 0.889763779527559
          },
          {
            "duration": 0.997670687500003,
            "durationTicks": 696,
            "midi": 78,
            "name": "F#5",
            "ticks": 11514,
            "time": 15.924381390625,
            "velocity": 0.905511811023622
          },
          {
            "duration": 1.0120050364583353,
            "durationTicks": 706,
            "midi": 83,
            "name": "B5",
            "ticks": 11514,
            "time": 15.924381390625,
            "velocity": 0.8976377952755905
          },
          {
            "duration": 0.9976706874999994,
            "durationTicks": 696,
            "midi": 75,
            "name": "D#5",
            "ticks": 11516,
            "time": 15.927248260416667,
            "velocity": 0.9133858267716536
          },
          {
            "duration": 0.9976706874999994,
            "durationTicks": 696,
            "midi": 87,
            "name": "D#6",
            "ticks": 11520,
            "time": 15.932982,
            "velocity": 0.905511811023622
          },
          {
            "duration": 2.680523255208332,
            "durationTicks": 1870,
            "midi": 76,
            "name": "E5",
            "ticks": 12280,
            "time": 17.022392520833336,
            "velocity": 0.937007874015748
          },
          {
            "duration": 2.7349937812499974,
            "durationTicks": 1908,
            "midi": 80,
            "name": "G#5",
            "ticks": 12280,
            "time": 17.022392520833336,
            "velocity": 0.9448818897637795
          },
          {
            "duration": 2.746461260416666,
            "durationTicks": 1916,
            "midi": 52,
            "name": "E3",
            "ticks": 12284,
            "time": 17.028126260416666,
            "velocity": 0.9448818897637795
          },
          {
            "duration": 2.7349937812499974,
            "durationTicks": 1908,
            "midi": 83,
            "name": "B5",
            "ticks": 12286,
            "time": 17.030993130208333,
            "velocity": 0.9291338582677166
          },
          {
            "duration": 2.697724473958335,
            "durationTicks": 1882,
            "midi": 88,
            "name": "E6",
            "ticks": 12286,
            "time": 17.030993130208333,
            "velocity": 0.9291338582677166
          },
          {
            "duration": 2.746461260416666,
            "durationTicks": 1916,
            "midi": 40,
            "name": "E2",
            "ticks": 12288,
            "time": 17.03386,
            "velocity": 0.937007874015748
          },
          {
            "duration": 3.7842681249999828,
            "durationTicks": 2640,
            "midi": 64,
            "name": "E4",
            "ticks": 109048,
            "time": 155.73302052083335,
            "velocity": 0.6377952755905512
          },
          {
            "duration": 3.7814012552083227,
            "durationTicks": 2638,
            "midi": 68,
            "name": "G#4",
            "ticks": 109050,
            "time": 155.735887390625,
            "velocity": 0.6299212598425197
          },
          {
            "duration": 3.775667515624974,
            "durationTicks": 2634,
            "midi": 59,
            "name": "B3",
            "ticks": 109052,
            "time": 155.73875426041667,
            "velocity": 0.6299212598425197
          },
          {
            "duration": 0.49883534374998817,
            "durationTicks": 348,
            "midi": 64,
            "name": "E4",
            "ticks": 111736,
            "time": 159.58609352083334,
            "velocity": 0.6535433070866141
          },
          {
            "duration": 0.5017022135416482,
            "durationTicks": 350,
            "midi": 61,
            "name": "C#4",
            "ticks": 111738,
            "time": 159.588960390625,
            "velocity": 0.6535433070866141
          },
          {
            "duration": 0.5045690833333083,
            "durationTicks": 352,
            "midi": 69,
            "name": "A4",
            "ticks": 111742,
            "time": 159.59469413020835,
            "velocity": 0.6220472440944882
          },
          {
            "duration": 4.311772166666685,
            "durationTicks": 3008,
            "midi": 59,
            "name": "B3",
            "ticks": 112124,
            "time": 160.14226626041665,
            "velocity": 0.6299212598425197
          },
          {
            "duration": 4.317505906250005,
            "durationTicks": 3012,
            "midi": 64,
            "name": "E4",
            "ticks": 112126,
            "time": 160.14513313020834,
            "velocity": 0.6220472440944882
          },
          {
            "duration": 4.311772166666657,
            "durationTicks": 3008,
            "midi": 68,
            "name": "G#4",
            "ticks": 112128,
            "time": 160.148,
            "velocity": 0.6220472440944882
          },
          {
            "duration": 1.0406737343750194,
            "durationTicks": 726,
            "midi": 66,
            "name": "F#4",
            "ticks": 115194,
            "time": 164.542911390625,
            "velocity": 0.6062992125984252
          },
          {
            "duration": 3.784268125000011,
            "durationTicks": 2640,
            "midi": 57,
            "name": "A3",
            "ticks": 115196,
            "time": 164.54577826041665,
            "velocity": 0.6220472440944882
          },
          {
            "duration": 3.784268125000011,
            "durationTicks": 2640,
            "midi": 61,
            "name": "C#4",
            "ticks": 115196,
            "time": 164.54577826041665,
            "velocity": 0.5984251968503937
          },
          {
            "duration": 2.7034582135416656,
            "durationTicks": 1886,
            "midi": 64,
            "name": "E4",
            "ticks": 115966,
            "time": 165.64952313020834,
            "velocity": 0.6299212598425197
          },
          {
            "duration": 0.4959684739582997,
            "durationTicks": 346,
            "midi": 61,
            "name": "C#4",
            "ticks": 117880,
            "time": 168.39311752083336,
            "velocity": 0.6141732283464567
          },
          {
            "duration": 0.49310160416669646,
            "durationTicks": 344,
            "midi": 57,
            "name": "A3",
            "ticks": 117884,
            "time": 168.39885126041665,
            "velocity": 0.6377952755905512
          },
          {
            "duration": 0.4959684739583281,
            "durationTicks": 346,
            "midi": 66,
            "name": "F#4",
            "ticks": 117886,
            "time": 168.40171813020834,
            "velocity": 0.6220472440944882
          },
          {
            "duration": 4.328973385416674,
            "durationTicks": 3020,
            "midi": 59,
            "name": "B3",
            "ticks": 118264,
            "time": 168.94355652083334,
            "velocity": 0.6377952755905512
          },
          {
            "duration": 4.326106515625014,
            "durationTicks": 3018,
            "midi": 68,
            "name": "G#4",
            "ticks": 118266,
            "time": 168.946423390625,
            "velocity": 0.6377952755905512
          },
          {
            "duration": 4.331840255208334,
            "durationTicks": 3022,
            "midi": 64,
            "name": "E4",
            "ticks": 118272,
            "time": 168.955024,
            "velocity": 0.6299212598425197
          },
          {
            "duration": 2.1472854739583056,
            "durationTicks": 1498,
            "midi": 59,
            "name": "B3",
            "ticks": 121336,
            "time": 173.34706852083335,
            "velocity": 0.6062992125984252
          },
          {
            "duration": 2.1386848645833254,
            "durationTicks": 1492,
            "midi": 63,
            "name": "D#4",
            "ticks": 121340,
            "time": 173.35280226041667,
            "velocity": 0.6141732283464567
          },
          {
            "duration": 2.1272173854166567,
            "durationTicks": 1484,
            "midi": 66,
            "name": "F#4",
            "ticks": 121342,
            "time": 173.35566913020835,
            "velocity": 0.6141732283464567
          },
          {
            "duration": 2.1214836458333366,
            "durationTicks": 1480,
            "midi": 61,
            "name": "C#4",
            "ticks": 122874,
            "time": 175.551691390625,
            "velocity": 0.6299212598425197
          },
          {
            "duration": 2.1272173854166567,
            "durationTicks": 1484,
            "midi": 64,
            "name": "E4",
            "ticks": 122874,
            "time": 175.551691390625,
            "velocity": 0.6220472440944882
          },
          {
            "duration": 2.1329511250000053,
            "durationTicks": 1488,
            "midi": 69,
            "name": "A4",
            "ticks": 122878,
            "time": 175.55742513020834,
            "velocity": 0.6062992125984252
          },
          {
            "duration": 4.334707125000023,
            "durationTicks": 3024,
            "midi": 59,
            "name": "B3",
            "ticks": 124412,
            "time": 177.75631426041664,
            "velocity": 0.6141732283464567
          },
          {
            "duration": 4.326106515625014,
            "durationTicks": 3018,
            "midi": 68,
            "name": "G#4",
            "ticks": 124412,
            "time": 177.75631426041664,
            "velocity": 0.6299212598425197
          },
          {
            "duration": 4.323239645833354,
            "durationTicks": 3016,
            "midi": 64,
            "name": "E4",
            "ticks": 124416,
            "time": 177.762048,
            "velocity": 0.6141732283464567
          },
          {
            "duration": 2.138684864583354,
            "durationTicks": 1492,
            "midi": 59,
            "name": "B3",
            "ticks": 127482,
            "time": 182.156959390625,
            "velocity": 0.6299212598425197
          },
          {
            "duration": 2.127217385416685,
            "durationTicks": 1484,
            "midi": 63,
            "name": "D#4",
            "ticks": 127484,
            "time": 182.15982626041665,
            "velocity": 0.6062992125984252
          },
          {
            "duration": 2.130084255208345,
            "durationTicks": 1486,
            "midi": 66,
            "name": "F#4",
            "ticks": 127484,
            "time": 182.15982626041665,
            "velocity": 0.6141732283464567
          },
          {
            "duration": 2.1358179947916653,
            "durationTicks": 1490,
            "midi": 64,
            "name": "E4",
            "ticks": 129016,
            "time": 184.35584852083335,
            "velocity": 0.6141732283464567
          },
          {
            "duration": 2.0383444218749958,
            "durationTicks": 1422,
            "midi": 69,
            "name": "A4",
            "ticks": 129020,
            "time": 184.36158226041667,
            "velocity": 0.6377952755905512
          },
          {
            "duration": 2.1415517343749855,
            "durationTicks": 1494,
            "midi": 61,
            "name": "C#4",
            "ticks": 129022,
            "time": 184.36444913020836,
            "velocity": 0.6299212598425197
          },
          {
            "duration": 2.3508332291666534,
            "durationTicks": 1640,
            "midi": 71,
            "name": "B4",
            "ticks": 130552,
            "time": 186.55760452083334,
            "velocity": 0.6062992125984252
          },
          {
            "duration": 2.3450994895833333,
            "durationTicks": 1636,
            "midi": 64,
            "name": "E4",
            "ticks": 130556,
            "time": 186.56333826041666,
            "velocity": 0.6299212598425197
          },
          {
            "duration": 2.3651675781250106,
            "durationTicks": 1650,
            "midi": 76,
            "name": "E5",
            "ticks": 130556,
            "time": 186.56333826041666,
            "velocity": 0.6141732283464567
          },
          {
            "duration": 2.356566968750002,
            "durationTicks": 1644,
            "midi": 68,
            "name": "G#4",
            "ticks": 130560,
            "time": 186.569072,
            "velocity": 0.6299212598425197
          },
          {
            "duration": 3.7756675156250026,
            "durationTicks": 2634,
            "midi": 59,
            "name": "B3",
            "ticks": 133624,
            "time": 190.96111652083334,
            "velocity": 0.5669291338582677
          },
          {
            "duration": 3.781401255208351,
            "durationTicks": 2638,
            "midi": 68,
            "name": "G#4",
            "ticks": 133628,
            "time": 190.96685026041666,
            "velocity": 0.5669291338582677
          },
          {
            "duration": 3.7842681249999828,
            "durationTicks": 2640,
            "midi": 64,
            "name": "E4",
            "ticks": 133630,
            "time": 190.96971713020835,
            "velocity": 0.5748031496062992
          },
          {
            "duration": 0.5017022135416482,
            "durationTicks": 350,
            "midi": 61,
            "name": "C#4",
            "ticks": 136314,
            "time": 194.817056390625,
            "velocity": 0.5905511811023622
          },
          {
            "duration": 0.49883534374998817,
            "durationTicks": 348,
            "midi": 64,
            "name": "E4",
            "ticks": 136320,
            "time": 194.825657,
            "velocity": 0.5905511811023622
          },
          {
            "duration": 0.5045690833333367,
            "durationTicks": 352,
            "midi": 69,
            "name": "A4",
            "ticks": 136320,
            "time": 194.825657,
            "velocity": 0.5590551181102362
          },
          {
            "duration": 4.311772166666657,
            "durationTicks": 3008,
            "midi": 68,
            "name": "G#4",
            "ticks": 136698,
            "time": 195.367495390625,
            "velocity": 0.5590551181102362
          },
          {
            "duration": 4.317505906249977,
            "durationTicks": 3012,
            "midi": 64,
            "name": "E4",
            "ticks": 136700,
            "time": 195.37036226041667,
            "velocity": 0.5590551181102362
          },
          {
            "duration": 4.311772166666628,
            "durationTicks": 3008,
            "midi": 59,
            "name": "B3",
            "ticks": 136702,
            "time": 195.37322913020836,
            "velocity": 0.5669291338582677
          },
          {
            "duration": 3.784268125000011,
            "durationTicks": 2640,
            "midi": 57,
            "name": "A3",
            "ticks": 139772,
            "time": 199.77387426041665,
            "velocity": 0.5590551181102362
          },
          {
            "duration": 3.784268125000011,
            "durationTicks": 2640,
            "midi": 61,
            "name": "C#4",
            "ticks": 139774,
            "time": 199.77674113020834,
            "velocity": 0.5354330708661418
          },
          {
            "duration": 1.0406737343750194,
            "durationTicks": 726,
            "midi": 66,
            "name": "F#4",
            "ticks": 139774,
            "time": 199.77674113020834,
            "velocity": 0.5433070866141733
          },
          {
            "duration": 2.7034582135416656,
            "durationTicks": 1886,
            "midi": 64,
            "name": "E4",
            "ticks": 140540,
            "time": 200.87475226041667,
            "velocity": 0.5669291338582677
          },
          {
            "duration": 0.4931016041666396,
            "durationTicks": 344,
            "midi": 57,
            "name": "A3",
            "ticks": 142458,
            "time": 203.624080390625,
            "velocity": 0.5748031496062992
          },
          {
            "duration": 0.4959684739583281,
            "durationTicks": 346,
            "midi": 61,
            "name": "C#4",
            "ticks": 142462,
            "time": 203.62981413020833,
            "velocity": 0.5511811023622047
          },
          {
            "duration": 0.4959684739583281,
            "durationTicks": 346,
            "midi": 66,
            "name": "F#4",
            "ticks": 142462,
            "time": 203.62981413020833,
            "velocity": 0.5590551181102362
          },
          {
            "duration": 4.3289733854167025,
            "durationTicks": 3020,
            "midi": 59,
            "name": "B3",
            "ticks": 142844,
            "time": 204.17738626041665,
            "velocity": 0.5748031496062992
          },
          {
            "duration": 4.331840255208306,
            "durationTicks": 3022,
            "midi": 64,
            "name": "E4",
            "ticks": 142846,
            "time": 204.18025313020834,
            "velocity": 0.5669291338582677
          },
          {
            "duration": 4.326106515624986,
            "durationTicks": 3018,
            "midi": 68,
            "name": "G#4",
            "ticks": 142848,
            "time": 204.18312,
            "velocity": 0.5748031496062992
          },
          {
            "duration": 2.138684864583354,
            "durationTicks": 1492,
            "midi": 63,
            "name": "D#4",
            "ticks": 145916,
            "time": 208.58089826041666,
            "velocity": 0.5511811023622047
          },
          {
            "duration": 2.127217385416685,
            "durationTicks": 1484,
            "midi": 66,
            "name": "F#4",
            "ticks": 145916,
            "time": 208.58089826041666,
            "velocity": 0.5511811023622047
          },
          {
            "duration": 2.147285473958334,
            "durationTicks": 1498,
            "midi": 59,
            "name": "B3",
            "ticks": 145920,
            "time": 208.586632,
            "velocity": 0.5433070866141733
          },
          {
            "duration": 2.121483645833308,
            "durationTicks": 1480,
            "midi": 61,
            "name": "C#4",
            "ticks": 147448,
            "time": 210.77692052083336,
            "velocity": 0.5669291338582677
          },
          {
            "duration": 2.1272173854166567,
            "durationTicks": 1484,
            "midi": 64,
            "name": "E4",
            "ticks": 147448,
            "time": 210.77692052083336,
            "velocity": 0.5590551181102362
          },
          {
            "duration": 2.1329511250000053,
            "durationTicks": 1488,
            "midi": 69,
            "name": "A4",
            "ticks": 147452,
            "time": 210.78265426041665,
            "velocity": 0.5433070866141733
          },
          {
            "duration": 4.3232396458333255,
            "durationTicks": 3016,
            "midi": 64,
            "name": "E4",
            "ticks": 148988,
            "time": 212.98441026041667,
            "velocity": 0.5511811023622047
          },
          {
            "duration": 4.326106515624986,
            "durationTicks": 3018,
            "midi": 68,
            "name": "G#4",
            "ticks": 148990,
            "time": 212.98727713020835,
            "velocity": 0.5669291338582677
          },
          {
            "duration": 4.334707124999994,
            "durationTicks": 3024,
            "midi": 59,
            "name": "B3",
            "ticks": 148992,
            "time": 212.99014400000002,
            "velocity": 0.5511811023622047
          },
          {
            "duration": 2.1272173854166567,
            "durationTicks": 1484,
            "midi": 63,
            "name": "D#4",
            "ticks": 152058,
            "time": 217.385055390625,
            "velocity": 0.5433070866141733
          },
          {
            "duration": 2.130084255208345,
            "durationTicks": 1486,
            "midi": 66,
            "name": "F#4",
            "ticks": 152058,
            "time": 217.385055390625,
            "velocity": 0.5511811023622047
          },
          {
            "duration": 2.138684864583354,
            "durationTicks": 1492,
            "midi": 59,
            "name": "B3",
            "ticks": 152064,
            "time": 217.393656,
            "velocity": 0.5669291338582677
          },
          {
            "duration": 2.141551734375014,
            "durationTicks": 1494,
            "midi": 61,
            "name": "C#4",
            "ticks": 153592,
            "time": 219.58394452083334,
            "velocity": 0.5669291338582677
          },
          {
            "duration": 2.1358179947916653,
            "durationTicks": 1490,
            "midi": 64,
            "name": "E4",
            "ticks": 153594,
            "time": 219.586811390625,
            "velocity": 0.5511811023622047
          },
          {
            "duration": 2.0383444218749958,
            "durationTicks": 1422,
            "midi": 69,
            "name": "A4",
            "ticks": 153596,
            "time": 219.58967826041666,
            "velocity": 0.5748031496062992
          },
          {
            "duration": 2.3565669687499735,
            "durationTicks": 1644,
            "midi": 68,
            "name": "G#4",
            "ticks": 155128,
            "time": 221.78570052083336,
            "velocity": 0.5669291338582677
          },
          {
            "duration": 2.3508332291666534,
            "durationTicks": 1640,
            "midi": 71,
            "name": "B4",
            "ticks": 155130,
            "time": 221.788567390625,
            "velocity": 0.5433070866141733
          },
          {
            "duration": 2.3651675781250106,
            "durationTicks": 1650,
            "midi": 76,
            "name": "E5",
            "ticks": 155132,
            "time": 221.79143426041665,
            "velocity": 0.5511811023622047
          },
          {
            "duration": 2.345099489583305,
            "durationTicks": 1636,
            "midi": 64,
            "name": "E4",
            "ticks": 155134,
            "time": 221.79430113020834,
            "velocity": 0.5669291338582677
          },
          {
            "duration": 11.169324708333335,
            "durationTicks": 7792,
            "midi": 71,
            "name": "B4",
            "ticks": 159738,
            "time": 228.39383539062501,
            "velocity": 0.5118110236220472
          }
        ],
        "endOfTrackTicks": 167722
      },
      {
        "channel": 5,
        "controlChanges": {},
        "pitchBends": [],
        "instrument": {
          "family": "piano",
          "number": 0,
          "name": "acoustic grand piano"
        },
        "name": "",
        "notes": [
          {
            "duration": 1.2384877500000009,
            "durationTicks": 864,
            "midi": 64,
            "name": "E4",
            "ticks": 9982,
            "time": 13.728359130208334,
            "velocity": 0.9291338582677166
          },
          {
            "duration": 1.3760975000000002,
            "durationTicks": 960,
            "midi": 52,
            "name": "E3",
            "ticks": 23902,
            "time": 33.681772880208335,
            "velocity": 0.8188976377952756
          },
          {
            "duration": 1.2384877499999902,
            "durationTicks": 864,
            "midi": 52,
            "name": "E3",
            "ticks": 102136,
            "time": 145.82511852083334,
            "velocity": 0.8582677165354331
          },
          {
            "duration": 1.1008779999999945,
            "durationTicks": 768,
            "midi": 52,
            "name": "E3",
            "ticks": 120960,
            "time": 172.808097,
            "velocity": 0.7322834645669292
          },
          {
            "duration": 1.1008779999999945,
            "durationTicks": 768,
            "midi": 52,
            "name": "E3",
            "ticks": 124030,
            "time": 177.20874213020835,
            "velocity": 0.7165354330708661
          },
          {
            "duration": 1.1008779999999945,
            "durationTicks": 768,
            "midi": 52,
            "name": "E3",
            "ticks": 127096,
            "time": 181.60365352083335,
            "velocity": 0.7322834645669292
          },
          {
            "duration": 1.100878000000023,
            "durationTicks": 768,
            "midi": 52,
            "name": "E3",
            "ticks": 130172,
            "time": 186.01289926041665,
            "velocity": 0.7165354330708661
          },
          {
            "duration": 1.1008779999999945,
            "durationTicks": 768,
            "midi": 52,
            "name": "E3",
            "ticks": 145532,
            "time": 208.03045926041665,
            "velocity": 0.7322834645669292
          },
          {
            "duration": 1.1008779999999945,
            "durationTicks": 768,
            "midi": 52,
            "name": "E3",
            "ticks": 148604,
            "time": 212.43397126041666,
            "velocity": 0.7165354330708661
          },
          {
            "duration": 1.1008779999999945,
            "durationTicks": 768,
            "midi": 52,
            "name": "E3",
            "ticks": 151674,
            "time": 216.834616390625,
            "velocity": 0.7322834645669292
          },
          {
            "duration": 1.1008779999999945,
            "durationTicks": 768,
            "midi": 52,
            "name": "E3",
            "ticks": 154746,
            "time": 221.238128390625,
            "velocity": 0.7165354330708661
          },
          {
            "duration": 1.3760975000000144,
            "durationTicks": 960,
            "midi": 52,
            "name": "E3",
            "ticks": 160890,
            "time": 230.045152390625,
            "velocity": 0.5118110236220472
          }
        ],
        "endOfTrackTicks": 162042
      },
      {
        "channel": 6,
        "controlChanges": {},
        "pitchBends": [],
        "instrument": {
          "family": "piano",
          "number": 0,
          "name": "acoustic grand piano"
        },
        "name": "",
        "notes": [
          {
            "duration": 2.2017559999999996,
            "durationTicks": 1536,
            "midi": 64,
            "name": "E4",
            "ticks": 13242,
            "time": 18.401356890625,
            "velocity": 0.8661417322834646
          },
          {
            "duration": 2.201756000000003,
            "durationTicks": 1536,
            "midi": 64,
            "name": "E4",
            "ticks": 28218,
            "time": 39.868477890625,
            "velocity": 0.7952755905511811
          },
          {
            "duration": 2.2017560000000174,
            "durationTicks": 1536,
            "midi": 64,
            "name": "E4",
            "ticks": 106560,
            "time": 152.1666345,
            "velocity": 0.7952755905511811
          },
          {
            "duration": 1.3760975000000144,
            "durationTicks": 960,
            "midi": 52,
            "name": "E3",
            "ticks": 166556,
            "time": 238.16699451041666,
            "velocity": 0.7952755905511811
          }
        ],
        "endOfTrackTicks": 167708
      },
      {
        "channel": 7,
        "controlChanges": {},
        "pitchBends": [],
        "instrument": {
          "family": "piano",
          "number": 0,
          "name": "acoustic grand piano"
        },
        "name": "",
        "notes": [
          {
            "duration": 0.0716717447916615,
            "durationTicks": 50,
            "midi": 59,
            "name": "B3",
            "ticks": 15356,
            "time": 21.43163826041667,
            "velocity": 0.6141732283464567
          },
          {
            "duration": 0.06307113541666709,
            "durationTicks": 44,
            "midi": 56,
            "name": "G#3",
            "ticks": 15358,
            "time": 21.434505130208333,
            "velocity": 0.6141732283464567
          },
          {
            "duration": 0.07740548437499939,
            "durationTicks": 54,
            "midi": 52,
            "name": "E3",
            "ticks": 15360,
            "time": 21.437372,
            "velocity": 0.6062992125984252
          },
          {
            "duration": 0.07740548437499939,
            "durationTicks": 54,
            "midi": 52,
            "name": "E3",
            "ticks": 15546,
            "time": 21.703990890625,
            "velocity": 0.5669291338582677
          },
          {
            "duration": 0.07740548437499939,
            "durationTicks": 54,
            "midi": 56,
            "name": "G#3",
            "ticks": 15552,
            "time": 21.712591500000002,
            "velocity": 0.5984251968503937
          },
          {
            "duration": 0.08027235416666656,
            "durationTicks": 56,
            "midi": 59,
            "name": "B3",
            "ticks": 15552,
            "time": 21.712591500000002,
            "velocity": 0.6141732283464567
          },
          {
            "duration": 0.07740548437499939,
            "durationTicks": 54,
            "midi": 56,
            "name": "G#3",
            "ticks": 15736,
            "time": 21.976343520833332,
            "velocity": 0.6141732283464567
          },
          {
            "duration": 0.06880487499999788,
            "durationTicks": 48,
            "midi": 59,
            "name": "B3",
            "ticks": 15740,
            "time": 21.98207726041667,
            "velocity": 0.6062992125984252
          },
          {
            "duration": 0.08313922395833373,
            "durationTicks": 58,
            "midi": 52,
            "name": "E3",
            "ticks": 15742,
            "time": 21.984944130208333,
            "velocity": 0.6062992125984252
          },
          {
            "duration": 0.07167174479166505,
            "durationTicks": 50,
            "midi": 56,
            "name": "G#3",
            "ticks": 15932,
            "time": 22.25729676041667,
            "velocity": 0.6220472440944882
          },
          {
            "duration": 0.07740548437499939,
            "durationTicks": 54,
            "midi": 52,
            "name": "E3",
            "ticks": 15934,
            "time": 22.260163630208332,
            "velocity": 0.5984251968503937
          },
          {
            "duration": 0.05160365625000196,
            "durationTicks": 36,
            "midi": 59,
            "name": "B3",
            "ticks": 15934,
            "time": 22.260163630208332,
            "velocity": 0.5826771653543307
          },
          {
            "duration": 0.07740548437499939,
            "durationTicks": 54,
            "midi": 56,
            "name": "G#3",
            "ticks": 16122,
            "time": 22.529649390625,
            "velocity": 0.6220472440944882
          },
          {
            "duration": 0.07740548437500294,
            "durationTicks": 54,
            "midi": 52,
            "name": "E3",
            "ticks": 16124,
            "time": 22.532516260416667,
            "velocity": 0.5905511811023622
          },
          {
            "duration": 0.04300304687500045,
            "durationTicks": 30,
            "midi": 59,
            "name": "B3",
            "ticks": 16124,
            "time": 22.532516260416667,
            "velocity": 0.5590551181102362
          },
          {
            "duration": 0.0860060937500009,
            "durationTicks": 60,
            "midi": 56,
            "name": "G#3",
            "ticks": 16312,
            "time": 22.80200202083333,
            "velocity": 0.5984251968503937
          },
          {
            "duration": 0.07740548437499939,
            "durationTicks": 54,
            "midi": 59,
            "name": "B3",
            "ticks": 16312,
            "time": 22.80200202083333,
            "velocity": 0.6141732283464567
          },
          {
            "duration": 0.07453861458333222,
            "durationTicks": 52,
            "midi": 52,
            "name": "E3",
            "ticks": 16320,
            "time": 22.8134695,
            "velocity": 0.5826771653543307
          },
          {
            "duration": 0.08600609374999735,
            "durationTicks": 60,
            "midi": 54,
            "name": "F#3",
            "ticks": 16504,
            "time": 23.077221520833334,
            "velocity": 0.6220472440944882
          },
          {
            "duration": 0.1003404427083332,
            "durationTicks": 70,
            "midi": 57,
            "name": "A3",
            "ticks": 16504,
            "time": 23.077221520833334,
            "velocity": 0.6141732283464567
          },
          {
            "duration": 0.0716717447916686,
            "durationTicks": 50,
            "midi": 52,
            "name": "E3",
            "ticks": 16510,
            "time": 23.08582213020833,
            "velocity": 0.5669291338582677
          },
          {
            "duration": 0.08887296354166807,
            "durationTicks": 62,
            "midi": 56,
            "name": "G#3",
            "ticks": 16702,
            "time": 23.361041630208334,
            "velocity": 0.6141732283464567
          },
          {
            "duration": 0.08027235416666656,
            "durationTicks": 56,
            "midi": 52,
            "name": "E3",
            "ticks": 16704,
            "time": 23.3639085,
            "velocity": 0.5905511811023622
          },
          {
            "duration": 0.08027235416666656,
            "durationTicks": 56,
            "midi": 59,
            "name": "B3",
            "ticks": 16704,
            "time": 23.3639085,
            "velocity": 0.6062992125984252
          },
          {
            "duration": 0.06880487500000143,
            "durationTicks": 48,
            "midi": 52,
            "name": "E3",
            "ticks": 16888,
            "time": 23.62766052083333,
            "velocity": 0.5905511811023622
          },
          {
            "duration": 0.0860060937500009,
            "durationTicks": 60,
            "midi": 56,
            "name": "G#3",
            "ticks": 16892,
            "time": 23.63339426041667,
            "velocity": 0.6220472440944882
          },
          {
            "duration": 0.07453861458333577,
            "durationTicks": 52,
            "midi": 59,
            "name": "B3",
            "ticks": 16894,
            "time": 23.636261130208332,
            "velocity": 0.6062992125984252
          },
          {
            "duration": 0.07740548437499939,
            "durationTicks": 54,
            "midi": 52,
            "name": "E3",
            "ticks": 17084,
            "time": 23.908613760416667,
            "velocity": 0.5826771653543307
          },
          {
            "duration": 0.07167174479166505,
            "durationTicks": 50,
            "midi": 59,
            "name": "B3",
            "ticks": 17084,
            "time": 23.908613760416667,
            "velocity": 0.6062992125984252
          },
          {
            "duration": 0.08313922395833018,
            "durationTicks": 58,
            "midi": 56,
            "name": "G#3",
            "ticks": 17088,
            "time": 23.9143475,
            "velocity": 0.6141732283464567
          },
          {
            "duration": 0.08887296354166807,
            "durationTicks": 62,
            "midi": 56,
            "name": "G#3",
            "ticks": 17274,
            "time": 24.180966390625,
            "velocity": 0.6141732283464567
          },
          {
            "duration": 0.07453861458333222,
            "durationTicks": 52,
            "midi": 59,
            "name": "B3",
            "ticks": 17276,
            "time": 24.18383326041667,
            "velocity": 0.5905511811023622
          },
          {
            "duration": 0.08313922395833373,
            "durationTicks": 58,
            "midi": 52,
            "name": "E3",
            "ticks": 17278,
            "time": 24.186700130208333,
            "velocity": 0.5905511811023622
          },
          {
            "duration": 0.08600609374999735,
            "durationTicks": 60,
            "midi": 52,
            "name": "E3",
            "ticks": 17464,
            "time": 24.453319020833334,
            "velocity": 0.5669291338582677
          },
          {
            "duration": 0.0716717447916686,
            "durationTicks": 50,
            "midi": 59,
            "name": "B3",
            "ticks": 17470,
            "time": 24.46191963020833,
            "velocity": 0.5905511811023622
          },
          {
            "duration": 0.09460670312500241,
            "durationTicks": 66,
            "midi": 56,
            "name": "G#3",
            "ticks": 17472,
            "time": 24.4647865,
            "velocity": 0.5984251968503937
          },
          {
            "duration": 0.07740548437499939,
            "durationTicks": 54,
            "midi": 52,
            "name": "E3",
            "ticks": 17656,
            "time": 24.728538520833332,
            "velocity": 0.5984251968503937
          },
          {
            "duration": 0.06593800520833426,
            "durationTicks": 46,
            "midi": 59,
            "name": "B3",
            "ticks": 17660,
            "time": 24.734272260416667,
            "velocity": 0.6062992125984252
          },
          {
            "duration": 0.08313922395833018,
            "durationTicks": 58,
            "midi": 56,
            "name": "G#3",
            "ticks": 17664,
            "time": 24.740006,
            "velocity": 0.6141732283464567
          },
          {
            "duration": 0.07740548437500294,
            "durationTicks": 54,
            "midi": 52,
            "name": "E3",
            "ticks": 17848,
            "time": 25.00375802083333,
            "velocity": 0.5905511811023622
          },
          {
            "duration": 0.09460670312499886,
            "durationTicks": 66,
            "midi": 56,
            "name": "G#3",
            "ticks": 17852,
            "time": 25.00949176041667,
            "velocity": 0.6141732283464567
          },
          {
            "duration": 0.06307113541666709,
            "durationTicks": 44,
            "midi": 59,
            "name": "B3",
            "ticks": 17854,
            "time": 25.012358630208332,
            "velocity": 0.5905511811023622
          },
          {
            "duration": 0.07740548437499939,
            "durationTicks": 54,
            "midi": 54,
            "name": "F#3",
            "ticks": 18040,
            "time": 25.278977520833333,
            "velocity": 0.6299212598425197
          },
          {
            "duration": 0.08887296354166807,
            "durationTicks": 62,
            "midi": 57,
            "name": "A3",
            "ticks": 18042,
            "time": 25.281844390625,
            "velocity": 0.6299212598425197
          },
          {
            "duration": 0.07740548437499939,
            "durationTicks": 54,
            "midi": 52,
            "name": "E3",
            "ticks": 18044,
            "time": 25.284711260416667,
            "velocity": 0.5905511811023622
          },
          {
            "duration": 0.09747357291666958,
            "durationTicks": 68,
            "midi": 56,
            "name": "G#3",
            "ticks": 18232,
            "time": 25.554197020833332,
            "velocity": 0.6377952755905512
          },
          {
            "duration": 0.08313922395833373,
            "durationTicks": 58,
            "midi": 52,
            "name": "E3",
            "ticks": 18234,
            "time": 25.557063890625,
            "velocity": 0.6062992125984252
          },
          {
            "duration": 0.08313922395833373,
            "durationTicks": 58,
            "midi": 59,
            "name": "B3",
            "ticks": 18240,
            "time": 25.5656645,
            "velocity": 0.6299212598425197
          },
          {
            "duration": 0.09173983333333169,
            "durationTicks": 64,
            "midi": 62,
            "name": "D4",
            "ticks": 18428,
            "time": 25.83515026041667,
            "velocity": 0.5984251968503937
          },
          {
            "duration": 0.09173983333333524,
            "durationTicks": 64,
            "midi": 57,
            "name": "A3",
            "ticks": 18430,
            "time": 25.838017130208332,
            "velocity": 0.6062992125984252
          },
          {
            "duration": 0.0860060937500009,
            "durationTicks": 60,
            "midi": 54,
            "name": "F#3",
            "ticks": 18432,
            "time": 25.840884,
            "velocity": 0.5511811023622047
          },
          {
            "duration": 0.07740548437499939,
            "durationTicks": 54,
            "midi": 62,
            "name": "D4",
            "ticks": 18616,
            "time": 26.104636020833333,
            "velocity": 0.5984251968503937
          },
          {
            "duration": 0.08027235416666656,
            "durationTicks": 56,
            "midi": 54,
            "name": "F#3",
            "ticks": 18622,
            "time": 26.113236630208334,
            "velocity": 0.5354330708661418
          },
          {
            "duration": 0.08313922395833373,
            "durationTicks": 58,
            "midi": 57,
            "name": "A3",
            "ticks": 18622,
            "time": 26.113236630208334,
            "velocity": 0.6062992125984252
          },
          {
            "duration": 0.080272354166663,
            "durationTicks": 56,
            "midi": 54,
            "name": "F#3",
            "ticks": 18812,
            "time": 26.38558926041667,
            "velocity": 0.5669291338582677
          },
          {
            "duration": 0.08313922395833373,
            "durationTicks": 58,
            "midi": 57,
            "name": "A3",
            "ticks": 18816,
            "time": 26.391323,
            "velocity": 0.6141732283464567
          },
          {
            "duration": 0.08313922395833373,
            "durationTicks": 58,
            "midi": 62,
            "name": "D4",
            "ticks": 18816,
            "time": 26.391323,
            "velocity": 0.6062992125984252
          },
          {
            "duration": 0.08027235416666656,
            "durationTicks": 56,
            "midi": 54,
            "name": "F#3",
            "ticks": 19000,
            "time": 26.655075020833333,
            "velocity": 0.5354330708661418
          },
          {
            "duration": 0.07740548437499939,
            "durationTicks": 54,
            "midi": 62,
            "name": "D4",
            "ticks": 19004,
            "time": 26.660808760416668,
            "velocity": 0.6062992125984252
          },
          {
            "duration": 0.07740548437499939,
            "durationTicks": 54,
            "midi": 57,
            "name": "A3",
            "ticks": 19008,
            "time": 26.666542500000002,
            "velocity": 0.6141732283464567
          },
          {
            "duration": 0.0860060937500009,
            "durationTicks": 60,
            "midi": 52,
            "name": "E3",
            "ticks": 19192,
            "time": 26.930294520833332,
            "velocity": 0.6062992125984252
          },
          {
            "duration": 0.0860060937500009,
            "durationTicks": 60,
            "midi": 61,
            "name": "C#4",
            "ticks": 19192,
            "time": 26.930294520833332,
            "velocity": 0.6141732283464567
          },
          {
            "duration": 0.09747357291666603,
            "durationTicks": 68,
            "midi": 57,
            "name": "A3",
            "ticks": 19200,
            "time": 26.941762,
            "velocity": 0.6220472440944882
          },
          {
            "duration": 0.08313922395833018,
            "durationTicks": 58,
            "midi": 61,
            "name": "C#4",
            "ticks": 19386,
            "time": 27.208380890625,
            "velocity": 0.6220472440944882
          },
          {
            "duration": 0.08313922395833728,
            "durationTicks": 58,
            "midi": 52,
            "name": "E3",
            "ticks": 19390,
            "time": 27.214114630208332,
            "velocity": 0.5748031496062992
          },
          {
            "duration": 0.07740548437499939,
            "durationTicks": 54,
            "midi": 57,
            "name": "A3",
            "ticks": 19390,
            "time": 27.214114630208332,
            "velocity": 0.6062992125984252
          },
          {
            "duration": 0.03726930729166966,
            "durationTicks": 26,
            "midi": 54,
            "name": "F#3",
            "ticks": 19578,
            "time": 27.483600390625,
            "velocity": 0.5826771653543307
          },
          {
            "duration": 0.09460670312499886,
            "durationTicks": 66,
            "midi": 57,
            "name": "A3",
            "ticks": 19578,
            "time": 27.483600390625,
            "velocity": 0.6141732283464567
          },
          {
            "duration": 0.09173983333333169,
            "durationTicks": 64,
            "midi": 62,
            "name": "D4",
            "ticks": 19584,
            "time": 27.492201,
            "velocity": 0.6062992125984252
          },
          {
            "duration": 0.07453861458333222,
            "durationTicks": 52,
            "midi": 52,
            "name": "E3",
            "ticks": 19772,
            "time": 27.76168676041667,
            "velocity": 0.5669291338582677
          },
          {
            "duration": 0.080272354166663,
            "durationTicks": 56,
            "midi": 61,
            "name": "C#4",
            "ticks": 19772,
            "time": 27.76168676041667,
            "velocity": 0.6141732283464567
          },
          {
            "duration": 0.0716717447916686,
            "durationTicks": 50,
            "midi": 57,
            "name": "A3",
            "ticks": 19774,
            "time": 27.764553630208333,
            "velocity": 0.5905511811023622
          },
          {
            "duration": 0.06880487499999788,
            "durationTicks": 48,
            "midi": 61,
            "name": "C#4",
            "ticks": 19960,
            "time": 28.031172520833334,
            "velocity": 0.5748031496062992
          },
          {
            "duration": 0.08313922395833373,
            "durationTicks": 58,
            "midi": 52,
            "name": "E3",
            "ticks": 19964,
            "time": 28.036906260416668,
            "velocity": 0.5590551181102362
          },
          {
            "duration": 0.07740548437499939,
            "durationTicks": 54,
            "midi": 57,
            "name": "A3",
            "ticks": 19966,
            "time": 28.03977313020833,
            "velocity": 0.5984251968503937
          },
          {
            "duration": 0.08027235416667011,
            "durationTicks": 56,
            "midi": 52,
            "name": "E3",
            "ticks": 20154,
            "time": 28.309258890625,
            "velocity": 0.5905511811023622
          },
          {
            "duration": 0.0860060937500009,
            "durationTicks": 60,
            "midi": 57,
            "name": "A3",
            "ticks": 20154,
            "time": 28.309258890625,
            "velocity": 0.6062992125984252
          },
          {
            "duration": 0.05733739583333275,
            "durationTicks": 40,
            "midi": 61,
            "name": "C#4",
            "ticks": 20160,
            "time": 28.3178595,
            "velocity": 0.5984251968503937
          },
          {
            "duration": 0.07453861458333932,
            "durationTicks": 52,
            "midi": 61,
            "name": "C#4",
            "ticks": 20344,
            "time": 28.58161152083333,
            "velocity": 0.6220472440944882
          },
          {
            "duration": 0.08600609374999735,
            "durationTicks": 60,
            "midi": 52,
            "name": "E3",
            "ticks": 20346,
            "time": 28.584478390625,
            "velocity": 0.5748031496062992
          },
          {
            "duration": 0.08887296354166807,
            "durationTicks": 62,
            "midi": 57,
            "name": "A3",
            "ticks": 20350,
            "time": 28.590212130208332,
            "velocity": 0.6141732283464567
          },
          {
            "duration": 0.0716717447916686,
            "durationTicks": 50,
            "midi": 61,
            "name": "C#4",
            "ticks": 20538,
            "time": 28.859697890625,
            "velocity": 0.6141732283464567
          },
          {
            "duration": 0.08027235416666656,
            "durationTicks": 56,
            "midi": 52,
            "name": "E3",
            "ticks": 20540,
            "time": 28.862564760416667,
            "velocity": 0.5669291338582677
          },
          {
            "duration": 0.08887296354166807,
            "durationTicks": 62,
            "midi": 57,
            "name": "A3",
            "ticks": 20544,
            "time": 28.8682985,
            "velocity": 0.6220472440944882
          },
          {
            "duration": 0.08313922395833373,
            "durationTicks": 58,
            "midi": 57,
            "name": "A3",
            "ticks": 20730,
            "time": 29.134917390625,
            "velocity": 0.6220472440944882
          },
          {
            "duration": 0.08313922395833018,
            "durationTicks": 58,
            "midi": 52,
            "name": "E3",
            "ticks": 20732,
            "time": 29.13778426041667,
            "velocity": 0.5984251968503937
          },
          {
            "duration": 0.0716717447916686,
            "durationTicks": 50,
            "midi": 61,
            "name": "C#4",
            "ticks": 20734,
            "time": 29.140651130208333,
            "velocity": 0.6220472440944882
          },
          {
            "duration": 0.08313922395833373,
            "durationTicks": 58,
            "midi": 52,
            "name": "E3",
            "ticks": 20924,
            "time": 29.413003760416668,
            "velocity": 0.5984251968503937
          },
          {
            "duration": 0.06880487500000143,
            "durationTicks": 48,
            "midi": 57,
            "name": "A3",
            "ticks": 20924,
            "time": 29.413003760416668,
            "velocity": 0.5984251968503937
          },
          {
            "duration": 0.0716717447916686,
            "durationTicks": 50,
            "midi": 61,
            "name": "C#4",
            "ticks": 20928,
            "time": 29.4187375,
            "velocity": 0.6220472440944882
          },
          {
            "duration": 0.08027235416666656,
            "durationTicks": 56,
            "midi": 54,
            "name": "F#3",
            "ticks": 21112,
            "time": 29.682489520833332,
            "velocity": 0.5748031496062992
          },
          {
            "duration": 0.07453861458333577,
            "durationTicks": 52,
            "midi": 57,
            "name": "A3",
            "ticks": 21112,
            "time": 29.682489520833332,
            "velocity": 0.6299212598425197
          },
          {
            "duration": 0.06307113541666709,
            "durationTicks": 44,
            "midi": 62,
            "name": "D4",
            "ticks": 21118,
            "time": 29.691090130208334,
            "velocity": 0.5905511811023622
          },
          {
            "duration": 0.08313922395833728,
            "durationTicks": 58,
            "midi": 61,
            "name": "C#4",
            "ticks": 21304,
            "time": 29.95770902083333,
            "velocity": 0.6141732283464567
          },
          {
            "duration": 0.08600609374999735,
            "durationTicks": 60,
            "midi": 57,
            "name": "A3",
            "ticks": 21306,
            "time": 29.960575890625,
            "velocity": 0.6220472440944882
          },
          {
            "duration": 0.07740548437499939,
            "durationTicks": 54,
            "midi": 52,
            "name": "E3",
            "ticks": 21308,
            "time": 29.96344276041667,
            "velocity": 0.6141732283464567
          },
          {
            "duration": 0.06020426562499992,
            "durationTicks": 42,
            "midi": 59,
            "name": "B3",
            "ticks": 21500,
            "time": 30.238662260416667,
            "velocity": 0.6062992125984252
          },
          {
            "duration": 0.07453861458333577,
            "durationTicks": 52,
            "midi": 56,
            "name": "G#3",
            "ticks": 21502,
            "time": 30.24152913020833,
            "velocity": 0.5826771653543307
          },
          {
            "duration": 0.07167174479166505,
            "durationTicks": 50,
            "midi": 52,
            "name": "E3",
            "ticks": 21504,
            "time": 30.244396000000002,
            "velocity": 0.6062992125984252
          },
          {
            "duration": 0.07453861458333577,
            "durationTicks": 52,
            "midi": 56,
            "name": "G#3",
            "ticks": 21688,
            "time": 30.50814802083333,
            "velocity": 0.6062992125984252
          },
          {
            "duration": 0.07740548437499939,
            "durationTicks": 54,
            "midi": 52,
            "name": "E3",
            "ticks": 21694,
            "time": 30.516748630208333,
            "velocity": 0.6220472440944882
          },
          {
            "duration": 0.06020426562499992,
            "durationTicks": 42,
            "midi": 59,
            "name": "B3",
            "ticks": 21694,
            "time": 30.516748630208333,
            "velocity": 0.5984251968503937
          },
          {
            "duration": 0.07740548437499939,
            "durationTicks": 54,
            "midi": 52,
            "name": "E3",
            "ticks": 21884,
            "time": 30.78910126041667,
            "velocity": 0.6220472440944882
          },
          {
            "duration": 0.06593800520833071,
            "durationTicks": 46,
            "midi": 59,
            "name": "B3",
            "ticks": 21884,
            "time": 30.78910126041667,
            "velocity": 0.6141732283464567
          },
          {
            "duration": 0.07740548437500294,
            "durationTicks": 54,
            "midi": 56,
            "name": "G#3",
            "ticks": 21888,
            "time": 30.794835,
            "velocity": 0.6062992125984252
          },
          {
            "duration": 0.0716717447916686,
            "durationTicks": 50,
            "midi": 52,
            "name": "E3",
            "ticks": 22072,
            "time": 31.058587020833333,
            "velocity": 0.6062992125984252
          },
          {
            "duration": 0.07453861458333222,
            "durationTicks": 52,
            "midi": 56,
            "name": "G#3",
            "ticks": 22074,
            "time": 31.061453890625,
            "velocity": 0.6141732283464567
          },
          {
            "duration": 0.06593800520833426,
            "durationTicks": 46,
            "midi": 59,
            "name": "B3",
            "ticks": 22078,
            "time": 31.067187630208334,
            "velocity": 0.6220472440944882
          },
          {
            "duration": 0.07740548437499939,
            "durationTicks": 54,
            "midi": 56,
            "name": "G#3",
            "ticks": 22266,
            "time": 31.336673390625002,
            "velocity": 0.6141732283464567
          },
          {
            "duration": 0.07740548437499939,
            "durationTicks": 54,
            "midi": 52,
            "name": "E3",
            "ticks": 22270,
            "time": 31.342407130208333,
            "velocity": 0.6062992125984252
          },
          {
            "duration": 0.06593800520833426,
            "durationTicks": 46,
            "midi": 59,
            "name": "B3",
            "ticks": 22270,
            "time": 31.342407130208333,
            "velocity": 0.6062992125984252
          },
          {
            "duration": 0.08313922395833373,
            "durationTicks": 58,
            "midi": 56,
            "name": "G#3",
            "ticks": 22456,
            "time": 31.609026020833333,
            "velocity": 0.6062992125984252
          },
          {
            "duration": 0.0716717447916686,
            "durationTicks": 50,
            "midi": 59,
            "name": "B3",
            "ticks": 22456,
            "time": 31.609026020833333,
            "velocity": 0.6141732283464567
          },
          {
            "duration": 0.07453861458333222,
            "durationTicks": 52,
            "midi": 52,
            "name": "E3",
            "ticks": 22464,
            "time": 31.620493500000002,
            "velocity": 0.6141732283464567
          },
          {
            "duration": 0.07453861458333577,
            "durationTicks": 52,
            "midi": 54,
            "name": "F#3",
            "ticks": 22648,
            "time": 31.884245520833332,
            "velocity": 0.6220472440944882
          },
          {
            "duration": 0.07740548437499939,
            "durationTicks": 54,
            "midi": 57,
            "name": "A3",
            "ticks": 22654,
            "time": 31.892846130208333,
            "velocity": 0.6220472440944882
          },
          {
            "duration": 0.06593800520833071,
            "durationTicks": 46,
            "midi": 52,
            "name": "E3",
            "ticks": 22656,
            "time": 31.895713,
            "velocity": 0.5905511811023622
          },
          {
            "duration": 0.06307113541666354,
            "durationTicks": 44,
            "midi": 59,
            "name": "B3",
            "ticks": 22842,
            "time": 32.162331890625005,
            "velocity": 0.5905511811023622
          },
          {
            "duration": 0.07740548437499939,
            "durationTicks": 54,
            "midi": 56,
            "name": "G#3",
            "ticks": 22846,
            "time": 32.16806563020833,
            "velocity": 0.6062992125984252
          },
          {
            "duration": 0.0774054843750065,
            "durationTicks": 54,
            "midi": 52,
            "name": "E3",
            "ticks": 22848,
            "time": 32.1709325,
            "velocity": 0.6141732283464567
          },
          {
            "duration": 0.07740548437499939,
            "durationTicks": 54,
            "midi": 52,
            "name": "E3",
            "ticks": 23032,
            "time": 32.434684520833336,
            "velocity": 0.6062992125984252
          },
          {
            "duration": 0.08313922395833373,
            "durationTicks": 58,
            "midi": 59,
            "name": "B3",
            "ticks": 23036,
            "time": 32.44041826041667,
            "velocity": 0.6141732283464567
          },
          {
            "duration": 0.08887296354166807,
            "durationTicks": 62,
            "midi": 56,
            "name": "G#3",
            "ticks": 23040,
            "time": 32.446152000000005,
            "velocity": 0.6062992125984252
          },
          {
            "duration": 0.08313922395833373,
            "durationTicks": 58,
            "midi": 59,
            "name": "B3",
            "ticks": 23226,
            "time": 32.712770890625,
            "velocity": 0.6220472440944882
          },
          {
            "duration": 0.06593800520833071,
            "durationTicks": 46,
            "midi": 52,
            "name": "E3",
            "ticks": 23228,
            "time": 32.71563776041667,
            "velocity": 0.5984251968503937
          },
          {
            "duration": 0.07740548437499939,
            "durationTicks": 54,
            "midi": 56,
            "name": "G#3",
            "ticks": 23228,
            "time": 32.71563776041667,
            "velocity": 0.6299212598425197
          },
          {
            "duration": 0.08313922395833373,
            "durationTicks": 58,
            "midi": 56,
            "name": "G#3",
            "ticks": 23418,
            "time": 32.987990390625,
            "velocity": 0.6299212598425197
          },
          {
            "duration": 0.07453861458333222,
            "durationTicks": 52,
            "midi": 52,
            "name": "E3",
            "ticks": 23422,
            "time": 32.993724130208335,
            "velocity": 0.6062992125984252
          },
          {
            "duration": 0.07453861458333222,
            "durationTicks": 52,
            "midi": 59,
            "name": "B3",
            "ticks": 23424,
            "time": 32.996591,
            "velocity": 0.6141732283464567
          },
          {
            "duration": 0.07453861458333932,
            "durationTicks": 52,
            "midi": 52,
            "name": "E3",
            "ticks": 23608,
            "time": 33.26034302083333,
            "velocity": 0.6062992125984252
          },
          {
            "duration": 0.08027235416667367,
            "durationTicks": 56,
            "midi": 56,
            "name": "G#3",
            "ticks": 23608,
            "time": 33.26034302083333,
            "velocity": 0.6299212598425197
          },
          {
            "duration": 0.07453861458333222,
            "durationTicks": 52,
            "midi": 59,
            "name": "B3",
            "ticks": 23616,
            "time": 33.2718105,
            "velocity": 0.6299212598425197
          },
          {
            "duration": 0.08313922395833373,
            "durationTicks": 58,
            "midi": 59,
            "name": "B3",
            "ticks": 23800,
            "time": 33.53556252083334,
            "velocity": 0.6220472440944882
          },
          {
            "duration": 0.06880487499999788,
            "durationTicks": 48,
            "midi": 52,
            "name": "E3",
            "ticks": 23802,
            "time": 33.538429390625005,
            "velocity": 0.6062992125984252
          },
          {
            "duration": 0.08027235416667367,
            "durationTicks": 56,
            "midi": 56,
            "name": "G#3",
            "ticks": 23806,
            "time": 33.54416313020833,
            "velocity": 0.6141732283464567
          },
          {
            "duration": 0.06307113541666354,
            "durationTicks": 44,
            "midi": 52,
            "name": "E3",
            "ticks": 23998,
            "time": 33.81938263020834,
            "velocity": 0.6141732283464567
          },
          {
            "duration": 0.07453861458333222,
            "durationTicks": 52,
            "midi": 59,
            "name": "B3",
            "ticks": 23998,
            "time": 33.81938263020834,
            "velocity": 0.6220472440944882
          },
          {
            "duration": 0.07167174479166505,
            "durationTicks": 50,
            "midi": 56,
            "name": "G#3",
            "ticks": 24000,
            "time": 33.822249500000005,
            "velocity": 0.6377952755905512
          },
          {
            "duration": 0.08887296354166807,
            "durationTicks": 62,
            "midi": 54,
            "name": "F#3",
            "ticks": 24184,
            "time": 34.086001520833335,
            "velocity": 0.6062992125984252
          },
          {
            "duration": 0.09173983333333524,
            "durationTicks": 64,
            "midi": 57,
            "name": "A3",
            "ticks": 24190,
            "time": 34.09460213020834,
            "velocity": 0.6141732283464567
          },
          {
            "duration": 0.09747357291666958,
            "durationTicks": 68,
            "midi": 62,
            "name": "D4",
            "ticks": 24190,
            "time": 34.09460213020834,
            "velocity": 0.6220472440944882
          },
          {
            "duration": 0.08027235416667367,
            "durationTicks": 56,
            "midi": 52,
            "name": "E3",
            "ticks": 24376,
            "time": 34.361221020833334,
            "velocity": 0.6299212598425197
          },
          {
            "duration": 0.10034044270833675,
            "durationTicks": 70,
            "midi": 57,
            "name": "A3",
            "ticks": 24376,
            "time": 34.361221020833334,
            "velocity": 0.6220472440944882
          },
          {
            "duration": 0.07453861458333222,
            "durationTicks": 52,
            "midi": 61,
            "name": "C#4",
            "ticks": 24384,
            "time": 34.3726885,
            "velocity": 0.6141732283464567
          },
          {
            "duration": 0.06307113541666354,
            "durationTicks": 44,
            "midi": 54,
            "name": "F#3",
            "ticks": 24568,
            "time": 34.63644052083334,
            "velocity": 0.6062992125984252
          },
          {
            "duration": 0.04300304687500045,
            "durationTicks": 30,
            "midi": 59,
            "name": "B3",
            "ticks": 24572,
            "time": 34.642174260416674,
            "velocity": 0.5590551181102362
          },
          {
            "duration": 0.0573373958333363,
            "durationTicks": 40,
            "midi": 63,
            "name": "D#4",
            "ticks": 24576,
            "time": 34.647908,
            "velocity": 0.6299212598425197
          },
          {
            "duration": 0.07453861458333222,
            "durationTicks": 52,
            "midi": 59,
            "name": "B3",
            "ticks": 24762,
            "time": 34.914526890625005,
            "velocity": 0.5984251968503937
          },
          {
            "duration": 0.08027235416666656,
            "durationTicks": 56,
            "midi": 63,
            "name": "D#4",
            "ticks": 24764,
            "time": 34.91739376041667,
            "velocity": 0.6220472440944882
          },
          {
            "duration": 0.08313922395833373,
            "durationTicks": 58,
            "midi": 54,
            "name": "F#3",
            "ticks": 24766,
            "time": 34.92026063020834,
            "velocity": 0.6141732283464567
          },
          {
            "duration": 0.08313922395833373,
            "durationTicks": 58,
            "midi": 54,
            "name": "F#3",
            "ticks": 24956,
            "time": 35.19261326041667,
            "velocity": 0.6220472440944882
          },
          {
            "duration": 0.07167174479166505,
            "durationTicks": 50,
            "midi": 59,
            "name": "B3",
            "ticks": 24958,
            "time": 35.19548013020834,
            "velocity": 0.5826771653543307
          },
          {
            "duration": 0.0860060937500009,
            "durationTicks": 60,
            "midi": 63,
            "name": "D#4",
            "ticks": 24958,
            "time": 35.19548013020834,
            "velocity": 0.6299212598425197
          },
          {
            "duration": 0.06593800520833781,
            "durationTicks": 46,
            "midi": 59,
            "name": "B3",
            "ticks": 25144,
            "time": 35.462099020833335,
            "velocity": 0.5669291338582677
          },
          {
            "duration": 0.08313922395833373,
            "durationTicks": 58,
            "midi": 63,
            "name": "D#4",
            "ticks": 25148,
            "time": 35.46783276041667,
            "velocity": 0.6220472440944882
          },
          {
            "duration": 0.07740548437499939,
            "durationTicks": 54,
            "midi": 54,
            "name": "F#3",
            "ticks": 25152,
            "time": 35.473566500000004,
            "velocity": 0.6299212598425197
          },
          {
            "duration": 0.06307113541667064,
            "durationTicks": 44,
            "midi": 59,
            "name": "B3",
            "ticks": 25336,
            "time": 35.737318520833334,
            "velocity": 0.5590551181102362
          },
          {
            "duration": 0.08313922395834084,
            "durationTicks": 58,
            "midi": 63,
            "name": "D#4",
            "ticks": 25336,
            "time": 35.737318520833334,
            "velocity": 0.6299212598425197
          },
          {
            "duration": 0.08313922395833373,
            "durationTicks": 58,
            "midi": 54,
            "name": "F#3",
            "ticks": 25344,
            "time": 35.748786,
            "velocity": 0.6299212598425197
          },
          {
            "duration": 0.08313922395832662,
            "durationTicks": 58,
            "midi": 54,
            "name": "F#3",
            "ticks": 25530,
            "time": 36.01540489062501,
            "velocity": 0.6220472440944882
          },
          {
            "duration": 0.08313922395832662,
            "durationTicks": 58,
            "midi": 63,
            "name": "D#4",
            "ticks": 25530,
            "time": 36.01540489062501,
            "velocity": 0.6220472440944882
          },
          {
            "duration": 0.06307113541666354,
            "durationTicks": 44,
            "midi": 59,
            "name": "B3",
            "ticks": 25532,
            "time": 36.018271760416674,
            "velocity": 0.5590551181102362
          },
          {
            "duration": 0.07740548437499939,
            "durationTicks": 54,
            "midi": 54,
            "name": "F#3",
            "ticks": 25720,
            "time": 36.28775752083334,
            "velocity": 0.6377952755905512
          },
          {
            "duration": 0.08313922395833373,
            "durationTicks": 58,
            "midi": 63,
            "name": "D#4",
            "ticks": 25720,
            "time": 36.28775752083334,
            "velocity": 0.6220472440944882
          },
          {
            "duration": 0.06020426562500347,
            "durationTicks": 42,
            "midi": 59,
            "name": "B3",
            "ticks": 25726,
            "time": 36.29635813020833,
            "velocity": 0.5590551181102362
          },
          {
            "duration": 0.0860060937500009,
            "durationTicks": 60,
            "midi": 54,
            "name": "F#3",
            "ticks": 25912,
            "time": 36.56297702083334,
            "velocity": 0.6220472440944882
          },
          {
            "duration": 0.07740548437499939,
            "durationTicks": 54,
            "midi": 63,
            "name": "D#4",
            "ticks": 25914,
            "time": 36.565843890625004,
            "velocity": 0.6299212598425197
          },
          {
            "duration": 0.06020426562499637,
            "durationTicks": 42,
            "midi": 59,
            "name": "B3",
            "ticks": 25918,
            "time": 36.57157763020834,
            "velocity": 0.5590551181102362
          },
          {
            "duration": 0.08887296354166807,
            "durationTicks": 62,
            "midi": 61,
            "name": "C#4",
            "ticks": 26104,
            "time": 36.838196520833336,
            "velocity": 0.6220472440944882
          },
          {
            "duration": 0.09747357291666248,
            "durationTicks": 68,
            "midi": 52,
            "name": "E3",
            "ticks": 26106,
            "time": 36.841063390625,
            "velocity": 0.6141732283464567
          },
          {
            "duration": 0.07740548437499939,
            "durationTicks": 54,
            "midi": 57,
            "name": "A3",
            "ticks": 26106,
            "time": 36.841063390625,
            "velocity": 0.5669291338582677
          },
          {
            "duration": 0.08027235416665945,
            "durationTicks": 56,
            "midi": 61,
            "name": "C#4",
            "ticks": 26302,
            "time": 37.12201663020834,
            "velocity": 0.6141732283464567
          },
          {
            "duration": 0.08887296354166807,
            "durationTicks": 62,
            "midi": 52,
            "name": "E3",
            "ticks": 26304,
            "time": 37.1248835,
            "velocity": 0.6141732283464567
          },
          {
            "duration": 0.07167174479166505,
            "durationTicks": 50,
            "midi": 57,
            "name": "A3",
            "ticks": 26304,
            "time": 37.1248835,
            "velocity": 0.5590551181102362
          },
          {
            "duration": 0.06593800520833071,
            "durationTicks": 46,
            "midi": 57,
            "name": "A3",
            "ticks": 26488,
            "time": 37.38863552083334,
            "velocity": 0.5669291338582677
          },
          {
            "duration": 0.0860060937499938,
            "durationTicks": 60,
            "midi": 61,
            "name": "C#4",
            "ticks": 26490,
            "time": 37.39150239062501,
            "velocity": 0.6220472440944882
          },
          {
            "duration": 0.0860060937500009,
            "durationTicks": 60,
            "midi": 52,
            "name": "E3",
            "ticks": 26494,
            "time": 37.39723613020834,
            "velocity": 0.6141732283464567
          },
          {
            "duration": 0.08313922395834084,
            "durationTicks": 58,
            "midi": 61,
            "name": "C#4",
            "ticks": 26684,
            "time": 37.669588760416666,
            "velocity": 0.5984251968503937
          },
          {
            "duration": 0.0573373958333292,
            "durationTicks": 40,
            "midi": 57,
            "name": "A3",
            "ticks": 26686,
            "time": 37.67245563020834,
            "velocity": 0.5354330708661418
          },
          {
            "duration": 0.0860060937499938,
            "durationTicks": 60,
            "midi": 52,
            "name": "E3",
            "ticks": 26688,
            "time": 37.67532250000001,
            "velocity": 0.5984251968503937
          },
          {
            "duration": 0.06593800520833071,
            "durationTicks": 46,
            "midi": 57,
            "name": "A3",
            "ticks": 26872,
            "time": 37.93907452083334,
            "velocity": 0.5511811023622047
          },
          {
            "duration": 0.08027235416666656,
            "durationTicks": 56,
            "midi": 61,
            "name": "C#4",
            "ticks": 26876,
            "time": 37.94480826041667,
            "velocity": 0.6141732283464567
          },
          {
            "duration": 0.08887296354166097,
            "durationTicks": 62,
            "midi": 52,
            "name": "E3",
            "ticks": 26880,
            "time": 37.950542000000006,
            "velocity": 0.6062992125984252
          },
          {
            "duration": 0.08027235416665945,
            "durationTicks": 56,
            "midi": 61,
            "name": "C#4",
            "ticks": 27064,
            "time": 38.21429402083334,
            "velocity": 0.6141732283464567
          },
          {
            "duration": 0.0860060937500009,
            "durationTicks": 60,
            "midi": 52,
            "name": "E3",
            "ticks": 27066,
            "time": 38.217160890625,
            "velocity": 0.6062992125984252
          },
          {
            "duration": 0.051603656249994856,
            "durationTicks": 36,
            "midi": 57,
            "name": "A3",
            "ticks": 27068,
            "time": 38.22002776041667,
            "velocity": 0.5354330708661418
          },
          {
            "duration": 0.07740548437499939,
            "durationTicks": 54,
            "midi": 57,
            "name": "A3",
            "ticks": 27256,
            "time": 38.48951352083334,
            "velocity": 0.5669291338582677
          },
          {
            "duration": 0.08313922395833373,
            "durationTicks": 58,
            "midi": 54,
            "name": "F#3",
            "ticks": 27260,
            "time": 38.49524726041667,
            "velocity": 0.6220472440944882
          },
          {
            "duration": 0.07167174479166505,
            "durationTicks": 50,
            "midi": 62,
            "name": "D4",
            "ticks": 27264,
            "time": 38.500981,
            "velocity": 0.5984251968503937
          },
          {
            "duration": 0.07453861458332511,
            "durationTicks": 52,
            "midi": 57,
            "name": "A3",
            "ticks": 27448,
            "time": 38.76473302083334,
            "velocity": 0.5669291338582677
          },
          {
            "duration": 0.10034044270832965,
            "durationTicks": 70,
            "midi": 61,
            "name": "C#4",
            "ticks": 27454,
            "time": 38.77333363020834,
            "velocity": 0.6220472440944882
          },
          {
            "duration": 0.10607418229166399,
            "durationTicks": 74,
            "midi": 52,
            "name": "E3",
            "ticks": 27456,
            "time": 38.7762005,
            "velocity": 0.6220472440944882
          },
          {
            "duration": 0.09747357291666248,
            "durationTicks": 68,
            "midi": 52,
            "name": "E3",
            "ticks": 27640,
            "time": 39.03995252083334,
            "velocity": 0.5590551181102362
          },
          {
            "duration": 0.0860060937500009,
            "durationTicks": 60,
            "midi": 56,
            "name": "G#3",
            "ticks": 27642,
            "time": 39.042819390625006,
            "velocity": 0.5748031496062992
          },
          {
            "duration": 0.09747357291667669,
            "durationTicks": 68,
            "midi": 59,
            "name": "B3",
            "ticks": 27644,
            "time": 39.045686260416666,
            "velocity": 0.6141732283464567
          },
          {
            "duration": 0.0860060937500009,
            "durationTicks": 60,
            "midi": 59,
            "name": "B3",
            "ticks": 27832,
            "time": 39.31517202083334,
            "velocity": 0.5984251968503937
          },
          {
            "duration": 0.09173983333333524,
            "durationTicks": 64,
            "midi": 52,
            "name": "E3",
            "ticks": 27834,
            "time": 39.318038890625004,
            "velocity": 0.5669291338582677
          },
          {
            "duration": 0.0860060937500009,
            "durationTicks": 60,
            "midi": 56,
            "name": "G#3",
            "ticks": 27834,
            "time": 39.318038890625004,
            "velocity": 0.5669291338582677
          },
          {
            "duration": 0.09460670312500241,
            "durationTicks": 66,
            "midi": 56,
            "name": "G#3",
            "ticks": 28026,
            "time": 39.593258390625,
            "velocity": 0.5669291338582677
          },
          {
            "duration": 0.08887296354166807,
            "durationTicks": 62,
            "midi": 52,
            "name": "E3",
            "ticks": 28030,
            "time": 39.59899213020834,
            "velocity": 0.5590551181102362
          },
          {
            "duration": 0.08027235416666656,
            "durationTicks": 56,
            "midi": 59,
            "name": "B3",
            "ticks": 28032,
            "time": 39.601859000000005,
            "velocity": 0.5905511811023622
          },
          {
            "duration": 0.08887296354166097,
            "durationTicks": 62,
            "midi": 56,
            "name": "G#3",
            "ticks": 28216,
            "time": 39.86561102083334,
            "velocity": 0.5905511811023622
          },
          {
            "duration": 0.07453861458333222,
            "durationTicks": 52,
            "midi": 59,
            "name": "B3",
            "ticks": 28220,
            "time": 39.87134476041667,
            "velocity": 0.5984251968503937
          },
          {
            "duration": 0.08887296354166807,
            "durationTicks": 62,
            "midi": 52,
            "name": "E3",
            "ticks": 28224,
            "time": 39.8770785,
            "velocity": 0.5748031496062992
          },
          {
            "duration": 0.0860060937500009,
            "durationTicks": 60,
            "midi": 56,
            "name": "G#3",
            "ticks": 28412,
            "time": 40.14656426041667,
            "velocity": 0.5826771653543307
          },
          {
            "duration": 0.08027235416665945,
            "durationTicks": 56,
            "midi": 52,
            "name": "E3",
            "ticks": 28414,
            "time": 40.14943113020834,
            "velocity": 0.5669291338582677
          },
          {
            "duration": 0.06593800520833781,
            "durationTicks": 46,
            "midi": 59,
            "name": "B3",
            "ticks": 28416,
            "time": 40.152298,
            "velocity": 0.5748031496062992
          },
          {
            "duration": 0.09173983333333524,
            "durationTicks": 64,
            "midi": 56,
            "name": "G#3",
            "ticks": 28604,
            "time": 40.421783760416666,
            "velocity": 0.5984251968503937
          },
          {
            "duration": 0.0860060937499938,
            "durationTicks": 60,
            "midi": 52,
            "name": "E3",
            "ticks": 28608,
            "time": 40.42751750000001,
            "velocity": 0.5748031496062992
          },
          {
            "duration": 0.07167174479165794,
            "durationTicks": 50,
            "midi": 59,
            "name": "B3",
            "ticks": 28608,
            "time": 40.42751750000001,
            "velocity": 0.5748031496062992
          },
          {
            "duration": 0.0860060937500009,
            "durationTicks": 60,
            "midi": 57,
            "name": "A3",
            "ticks": 28794,
            "time": 40.694136390625005,
            "velocity": 0.5984251968503937
          },
          {
            "duration": 0.07740548437499939,
            "durationTicks": 54,
            "midi": 52,
            "name": "E3",
            "ticks": 28798,
            "time": 40.69987013020834,
            "velocity": 0.5669291338582677
          },
          {
            "duration": 0.0860060937500009,
            "durationTicks": 60,
            "midi": 54,
            "name": "F#3",
            "ticks": 28800,
            "time": 40.702737000000006,
            "velocity": 0.5984251968503937
          },
          {
            "duration": 0.07453861458333932,
            "durationTicks": 52,
            "midi": 59,
            "name": "B3",
            "ticks": 28986,
            "time": 40.969355890625,
            "velocity": 0.5669291338582677
          },
          {
            "duration": 0.0860060937500009,
            "durationTicks": 60,
            "midi": 52,
            "name": "E3",
            "ticks": 28990,
            "time": 40.97508963020834,
            "velocity": 0.5826771653543307
          },
          {
            "duration": 0.09460670312500241,
            "durationTicks": 66,
            "midi": 56,
            "name": "G#3",
            "ticks": 28990,
            "time": 40.97508963020834,
            "velocity": 0.6141732283464567
          },
          {
            "duration": 0.07740548437499939,
            "durationTicks": 54,
            "midi": 52,
            "name": "E3",
            "ticks": 29176,
            "time": 41.24170852083334,
            "velocity": 0.5748031496062992
          },
          {
            "duration": 0.09460670312500241,
            "durationTicks": 66,
            "midi": 56,
            "name": "G#3",
            "ticks": 29178,
            "time": 41.244575390625,
            "velocity": 0.5984251968503937
          },
          {
            "duration": 0.10034044270833675,
            "durationTicks": 70,
            "midi": 59,
            "name": "B3",
            "ticks": 29180,
            "time": 41.24744226041667,
            "velocity": 0.6062992125984252
          }
        ],
        "endOfTrackTicks": 29442
      },
      {
        "channel": 8,
        "controlChanges": {
          "1": [
            {
              "number": 1,
              "ticks": 104438,
              "time": 149.12488565104167,
              "value": 0.13385826771653545
            },
            {
              "number": 1,
              "ticks": 104468,
              "time": 149.16788869791665,
              "value": 0.3937007874015748
            },
            {
              "number": 1,
              "ticks": 104498,
              "time": 149.21089174479167,
              "value": 0.6614173228346457
            },
            {
              "number": 1,
              "ticks": 104528,
              "time": 149.25389479166665,
              "value": 0.8346456692913385
            },
            {
              "number": 1,
              "ticks": 104558,
              "time": 149.29689783854167,
              "value": 0.889763779527559
            },
            {
              "number": 1,
              "ticks": 104676,
              "time": 149.46604315625,
              "value": 0.7716535433070866
            },
            {
              "number": 1,
              "ticks": 104706,
              "time": 149.509046203125,
              "value": 0.5039370078740157
            },
            {
              "number": 1,
              "ticks": 104736,
              "time": 149.55204925,
              "value": 0
            },
            {
              "number": 1,
              "ticks": 104944,
              "time": 149.85020370833334,
              "value": 0.2125984251968504
            },
            {
              "number": 1,
              "ticks": 104974,
              "time": 149.89320675520835,
              "value": 0.5669291338582677
            },
            {
              "number": 1,
              "ticks": 105004,
              "time": 149.93620980208334,
              "value": 0.8661417322834646
            },
            {
              "number": 1,
              "ticks": 105034,
              "time": 149.97921284895835,
              "value": 0.952755905511811
            },
            {
              "number": 1,
              "ticks": 105122,
              "time": 150.10535511979165,
              "value": 0.937007874015748
            },
            {
              "number": 1,
              "ticks": 105152,
              "time": 150.14835816666667,
              "value": 0.9133858267716536
            },
            {
              "number": 1,
              "ticks": 105182,
              "time": 150.19136121354165,
              "value": 0.889763779527559
            },
            {
              "number": 1,
              "ticks": 105212,
              "time": 150.23436426041667,
              "value": 0.7716535433070866
            },
            {
              "number": 1,
              "ticks": 105242,
              "time": 150.27736730729166,
              "value": 0.4409448818897638
            },
            {
              "number": 1,
              "ticks": 105272,
              "time": 150.32037035416667,
              "value": 0
            },
            {
              "number": 1,
              "ticks": 105390,
              "time": 150.489515671875,
              "value": 0.2047244094488189
            },
            {
              "number": 1,
              "ticks": 105420,
              "time": 150.53251871875,
              "value": 0.5354330708661418
            },
            {
              "number": 1,
              "ticks": 105450,
              "time": 150.575521765625,
              "value": 0.8188976377952756
            },
            {
              "number": 1,
              "ticks": 105480,
              "time": 150.6185248125,
              "value": 0.8661417322834646
            },
            {
              "number": 1,
              "ticks": 105658,
              "time": 150.87367622395834,
              "value": 0.8188976377952756
            },
            {
              "number": 1,
              "ticks": 105688,
              "time": 150.91667927083336,
              "value": 0.5826771653543307
            },
            {
              "number": 1,
              "ticks": 105718,
              "time": 150.95968231770834,
              "value": 0
            },
            {
              "number": 1,
              "ticks": 105994,
              "time": 151.35531034895834,
              "value": 0.14960629921259844
            },
            {
              "number": 1,
              "ticks": 106024,
              "time": 151.39831339583336,
              "value": 0.3700787401574803
            },
            {
              "number": 1,
              "ticks": 106054,
              "time": 151.44131644270834,
              "value": 0.5118110236220472
            },
            {
              "number": 1,
              "ticks": 106084,
              "time": 151.48431948958336,
              "value": 0.5748031496062992
            },
            {
              "number": 1,
              "ticks": 106114,
              "time": 151.52732253645834,
              "value": 0.5984251968503937
            },
            {
              "number": 1,
              "ticks": 106262,
              "time": 151.73947090104164,
              "value": 0.47244094488188976
            },
            {
              "number": 1,
              "ticks": 106292,
              "time": 151.78247394791666,
              "value": 0
            },
            {
              "number": 1,
              "ticks": 106768,
              "time": 152.46478895833334,
              "value": 0.03937007874015748
            },
            {
              "number": 1,
              "ticks": 106812,
              "time": 152.52786009375,
              "value": 0.33070866141732286
            },
            {
              "number": 1,
              "ticks": 106842,
              "time": 152.570863140625,
              "value": 0.5590551181102362
            },
            {
              "number": 1,
              "ticks": 106872,
              "time": 152.6138661875,
              "value": 0.6850393700787402
            },
            {
              "number": 1,
              "ticks": 106902,
              "time": 152.656869234375,
              "value": 0.7165354330708661
            },
            {
              "number": 1,
              "ticks": 106990,
              "time": 152.78301150520835,
              "value": 0.6692913385826772
            },
            {
              "number": 1,
              "ticks": 107020,
              "time": 152.82601455208334,
              "value": 0.5590551181102362
            },
            {
              "number": 1,
              "ticks": 107050,
              "time": 152.86901759895835,
              "value": 0.30708661417322836
            },
            {
              "number": 1,
              "ticks": 107080,
              "time": 152.91202064583334,
              "value": 0
            }
          ],
          "7": [
            {
              "number": 7,
              "ticks": 108052,
              "time": 154.30531936458334,
              "value": 0.9921259842519685
            },
            {
              "number": 7,
              "ticks": 108082,
              "time": 154.34832241145835,
              "value": 0.9763779527559056
            },
            {
              "number": 7,
              "ticks": 108126,
              "time": 154.411393546875,
              "value": 0.968503937007874
            },
            {
              "number": 7,
              "ticks": 108156,
              "time": 154.45439659375,
              "value": 0.9606299212598425
            },
            {
              "number": 7,
              "ticks": 108186,
              "time": 154.497399640625,
              "value": 0.952755905511811
            },
            {
              "number": 7,
              "ticks": 108230,
              "time": 154.56047077604165,
              "value": 0.9291338582677166
            },
            {
              "number": 7,
              "ticks": 108276,
              "time": 154.62640878125,
              "value": 0.9212598425196851
            },
            {
              "number": 7,
              "ticks": 108306,
              "time": 154.669411828125,
              "value": 0.8976377952755905
            },
            {
              "number": 7,
              "ticks": 108350,
              "time": 154.73248296354166,
              "value": 0.8818897637795275
            },
            {
              "number": 7,
              "ticks": 108380,
              "time": 154.77548601041664,
              "value": 0.8740157480314961
            },
            {
              "number": 7,
              "ticks": 108438,
              "time": 154.858625234375,
              "value": 0.8503937007874016
            },
            {
              "number": 7,
              "ticks": 108484,
              "time": 154.92456323958334,
              "value": 0.8346456692913385
            },
            {
              "number": 7,
              "ticks": 108514,
              "time": 154.96756628645835,
              "value": 0.8188976377952756
            },
            {
              "number": 7,
              "ticks": 108558,
              "time": 155.030637421875,
              "value": 0.7952755905511811
            },
            {
              "number": 7,
              "ticks": 108632,
              "time": 155.13671160416666,
              "value": 0.7874015748031497
            },
            {
              "number": 7,
              "ticks": 108662,
              "time": 155.17971465104165,
              "value": 0.7637795275590551
            },
            {
              "number": 7,
              "ticks": 108722,
              "time": 155.26572074479165,
              "value": 0.7480314960629921
            },
            {
              "number": 7,
              "ticks": 108752,
              "time": 155.30872379166667,
              "value": 0.7322834645669292
            },
            {
              "number": 7,
              "ticks": 108796,
              "time": 155.37179492708336,
              "value": 0.7244094488188977
            },
            {
              "number": 7,
              "ticks": 109050,
              "time": 155.735887390625,
              "value": 1
            }
          ]
        },
        "pitchBends": [
          {
            "ticks": 91188,
            "time": 130.13187328125,
            "value": 0.008544921875
          },
          {
            "ticks": 91204,
            "time": 130.15480823958333,
            "value": 0.0257568359375
          },
          {
            "ticks": 91218,
            "time": 130.174876328125,
            "value": 0.034423828125
          },
          {
            "ticks": 91234,
            "time": 130.19781128645832,
            "value": 0.0430908203125
          },
          {
            "ticks": 91256,
            "time": 130.22934685416666,
            "value": 0.060302734375
          },
          {
            "ticks": 91278,
            "time": 130.260882421875,
            "value": 0.086181640625
          },
          {
            "ticks": 91292,
            "time": 130.28095051041666,
            "value": 0.0947265625
          },
          {
            "ticks": 91308,
            "time": 130.30388546875,
            "value": 0.1033935546875
          },
          {
            "ticks": 91368,
            "time": 130.3898915625,
            "value": 0.0947265625
          },
          {
            "ticks": 91404,
            "time": 130.44149521875,
            "value": 0.086181640625
          },
          {
            "ticks": 91420,
            "time": 130.46443017708333,
            "value": 0.06884765625
          },
          {
            "ticks": 91434,
            "time": 130.484498265625,
            "value": 0.0257568359375
          },
          {
            "ticks": 91450,
            "time": 130.50743322395832,
            "value": 0
          },
          {
            "ticks": 91992,
            "time": 131.2843549375,
            "value": -0.017333984375
          },
          {
            "ticks": 92008,
            "time": 131.30728989583332,
            "value": -0.0604248046875
          },
          {
            "ticks": 92022,
            "time": 131.327357984375,
            "value": -0.103515625
          },
          {
            "ticks": 92036,
            "time": 131.34742607291668,
            "value": -0.189697265625
          },
          {
            "ticks": 92052,
            "time": 131.37036103125,
            "value": -0.32763671875
          },
          {
            "ticks": 92066,
            "time": 131.39042911979166,
            "value": -0.543212890625
          },
          {
            "ticks": 92082,
            "time": 131.413364078125,
            "value": -0.793212890625
          },
          {
            "ticks": 92096,
            "time": 131.43343216666668,
            "value": -1
          },
          {
            "ticks": 92156,
            "time": 131.51943826041668,
            "value": -0.9052734375
          },
          {
            "ticks": 92170,
            "time": 131.53950634895833,
            "value": -0.6983642578125
          },
          {
            "ticks": 92186,
            "time": 131.56244130729166,
            "value": -0.5689697265625
          },
          {
            "ticks": 92200,
            "time": 131.58250939583334,
            "value": -0.4483642578125
          },
          {
            "ticks": 92216,
            "time": 131.60544435416668,
            "value": -0.3189697265625
          },
          {
            "ticks": 92230,
            "time": 131.62551244270833,
            "value": -0.189697265625
          },
          {
            "ticks": 92244,
            "time": 131.64558053125,
            "value": -0.0948486328125
          },
          {
            "ticks": 92260,
            "time": 131.6685154895833,
            "value": -0.043212890625
          },
          {
            "ticks": 92274,
            "time": 131.688583578125,
            "value": 0
          },
          {
            "ticks": 93908,
            "time": 134.03081619791666,
            "value": 0.008544921875
          },
          {
            "ticks": 93930,
            "time": 134.062351765625,
            "value": 0.034423828125
          },
          {
            "ticks": 93952,
            "time": 134.09388733333333,
            "value": 0.06884765625
          },
          {
            "ticks": 93968,
            "time": 134.11682229166667,
            "value": 0.086181640625
          },
          {
            "ticks": 93982,
            "time": 134.1368903802083,
            "value": 0.1033935546875
          },
          {
            "ticks": 94048,
            "time": 134.23149708333332,
            "value": 0.0430908203125
          },
          {
            "ticks": 94064,
            "time": 134.25443204166666,
            "value": 0
          },
          {
            "ticks": 94644,
            "time": 135.08582428125,
            "value": 0.0172119140625
          },
          {
            "ticks": 94664,
            "time": 135.11449297916667,
            "value": 0.0430908203125
          },
          {
            "ticks": 94680,
            "time": 135.1374279375,
            "value": 0.06884765625
          },
          {
            "ticks": 94694,
            "time": 135.15749602604168,
            "value": 0.1033935546875
          },
          {
            "ticks": 94710,
            "time": 135.180430984375,
            "value": 0.112060546875
          },
          {
            "ticks": 94732,
            "time": 135.21196655208334,
            "value": 0.1033935546875
          },
          {
            "ticks": 94754,
            "time": 135.24350211979166,
            "value": 0.060302734375
          },
          {
            "ticks": 94768,
            "time": 135.26357020833333,
            "value": 0
          },
          {
            "ticks": 95810,
            "time": 136.75720936979167,
            "value": -0.0345458984375
          },
          {
            "ticks": 95824,
            "time": 136.77727745833332,
            "value": -0.0863037109375
          },
          {
            "ticks": 95840,
            "time": 136.80021241666668,
            "value": -0.1983642578125
          },
          {
            "ticks": 95854,
            "time": 136.82028050520833,
            "value": -0.3189697265625
          },
          {
            "ticks": 95870,
            "time": 136.84321546354167,
            "value": -0.465576171875
          },
          {
            "ticks": 95884,
            "time": 136.86328355208332,
            "value": -0.62939453125
          },
          {
            "ticks": 95900,
            "time": 136.88621851041668,
            "value": -0.793212890625
          },
          {
            "ticks": 95914,
            "time": 136.90628659895833,
            "value": -0.9224853515625
          },
          {
            "ticks": 95928,
            "time": 136.9263546875,
            "value": -0.965576171875
          },
          {
            "ticks": 95944,
            "time": 136.94928964583332,
            "value": -0.9483642578125
          },
          {
            "ticks": 95958,
            "time": 136.969357734375,
            "value": -0.77587890625
          },
          {
            "ticks": 95972,
            "time": 136.98942582291667,
            "value": -0.517333984375
          },
          {
            "ticks": 95988,
            "time": 137.01236078125,
            "value": -0.267333984375
          },
          {
            "ticks": 96002,
            "time": 137.03242886979166,
            "value": 0
          },
          {
            "ticks": 96412,
            "time": 137.62013717708334,
            "value": -0.0086669921875
          },
          {
            "ticks": 96426,
            "time": 137.64020526562499,
            "value": -0.0517578125
          },
          {
            "ticks": 96442,
            "time": 137.66314022395832,
            "value": -0.103515625
          },
          {
            "ticks": 96456,
            "time": 137.6832083125,
            "value": -0.1724853515625
          },
          {
            "ticks": 96472,
            "time": 137.70614327083334,
            "value": -0.2242431640625
          },
          {
            "ticks": 96486,
            "time": 137.726211359375,
            "value": -0.293212890625
          },
          {
            "ticks": 96500,
            "time": 137.74627944791666,
            "value": -0.3448486328125
          },
          {
            "ticks": 96516,
            "time": 137.76921440625,
            "value": -0.3966064453125
          },
          {
            "ticks": 96530,
            "time": 137.78928249479168,
            "value": -0.43115234375
          },
          {
            "ticks": 96546,
            "time": 137.812217453125,
            "value": -0.4483642578125
          },
          {
            "ticks": 96576,
            "time": 137.8552205,
            "value": -0.3966064453125
          },
          {
            "ticks": 96590,
            "time": 137.87528858854168,
            "value": -0.293212890625
          },
          {
            "ticks": 96606,
            "time": 137.898223546875,
            "value": -0.1466064453125
          },
          {
            "ticks": 96620,
            "time": 137.91829163541667,
            "value": 0
          },
          {
            "ticks": 96752,
            "time": 138.10750504166668,
            "value": 0
          },
          {
            "ticks": 97168,
            "time": 138.7038139583333,
            "value": 0.034423828125
          },
          {
            "ticks": 97184,
            "time": 138.72674891666668,
            "value": 0.06884765625
          },
          {
            "ticks": 97198,
            "time": 138.74681700520833,
            "value": 0.1033935546875
          },
          {
            "ticks": 97214,
            "time": 138.76975196354167,
            "value": 0.112060546875
          },
          {
            "ticks": 97250,
            "time": 138.82135561979166,
            "value": 0.1033935546875
          },
          {
            "ticks": 97266,
            "time": 138.844290578125,
            "value": 0.0430908203125
          },
          {
            "ticks": 97280,
            "time": 138.86435866666667,
            "value": 0
          },
          {
            "ticks": 97950,
            "time": 139.82476004687499,
            "value": 0.0257568359375
          },
          {
            "ticks": 97964,
            "time": 139.84482813541666,
            "value": 0.0775146484375
          },
          {
            "ticks": 97980,
            "time": 139.86776309375,
            "value": 0.146484375
          },
          {
            "ticks": 97994,
            "time": 139.88783118229168,
            "value": 0
          },
          {
            "ticks": 98750,
            "time": 140.97150796354168,
            "value": -0.0517578125
          },
          {
            "ticks": 98764,
            "time": 140.99157605208333,
            "value": -0.12939453125
          },
          {
            "ticks": 98780,
            "time": 141.01451101041667,
            "value": -0.267333984375
          },
          {
            "ticks": 98794,
            "time": 141.03457909895832,
            "value": -0.5086669921875
          },
          {
            "ticks": 98808,
            "time": 141.0546471875,
            "value": -0.7845458984375
          },
          {
            "ticks": 98824,
            "time": 141.07758214583333,
            "value": -1
          },
          {
            "ticks": 98884,
            "time": 141.16358823958333,
            "value": -0.939697265625
          },
          {
            "ticks": 98898,
            "time": 141.183656328125,
            "value": -0.6121826171875
          },
          {
            "ticks": 98914,
            "time": 141.20659128645832,
            "value": 0
          },
          {
            "ticks": 99420,
            "time": 141.93190934375,
            "value": 0.008544921875
          },
          {
            "ticks": 99434,
            "time": 141.95197743229167,
            "value": 0.0516357421875
          },
          {
            "ticks": 99448,
            "time": 141.97204552083332,
            "value": 0.086181640625
          },
          {
            "ticks": 99464,
            "time": 141.99498047916668,
            "value": 0.1033935546875
          },
          {
            "ticks": 99486,
            "time": 142.026516046875,
            "value": 0.0947265625
          },
          {
            "ticks": 99508,
            "time": 142.05805161458332,
            "value": 0.06884765625
          },
          {
            "ticks": 99522,
            "time": 142.078119703125,
            "value": 0
          },
          {
            "ticks": 99568,
            "time": 142.14405770833332,
            "value": -0.017333984375
          },
          {
            "ticks": 99598,
            "time": 142.18706075520834,
            "value": 0
          },
          {
            "ticks": 99870,
            "time": 142.57695504687499,
            "value": 0.008544921875
          },
          {
            "ticks": 99884,
            "time": 142.59702313541666,
            "value": 0.0516357421875
          },
          {
            "ticks": 99906,
            "time": 142.628558703125,
            "value": 0.06884765625
          },
          {
            "ticks": 99930,
            "time": 142.662961140625,
            "value": 0.0430908203125
          },
          {
            "ticks": 99944,
            "time": 142.68302922916666,
            "value": 0
          },
          {
            "ticks": 99982,
            "time": 142.73749975520835,
            "value": -0.017333984375
          },
          {
            "ticks": 99996,
            "time": 142.75756784375,
            "value": 0
          },
          {
            "ticks": 100018,
            "time": 142.78910341145834,
            "value": 0.0172119140625
          },
          {
            "ticks": 100034,
            "time": 142.81203836979165,
            "value": 0.0430908203125
          },
          {
            "ticks": 100070,
            "time": 142.86364202604165,
            "value": 0.034423828125
          },
          {
            "ticks": 100086,
            "time": 142.886576984375,
            "value": 0
          },
          {
            "ticks": 100138,
            "time": 142.96111559895834,
            "value": -0.017333984375
          },
          {
            "ticks": 100152,
            "time": 142.9811836875,
            "value": 0
          },
          {
            "ticks": 100792,
            "time": 143.89858202083335,
            "value": 0.065673828125
          },
          {
            "ticks": 100808,
            "time": 143.92151697916665,
            "value": 0.1243896484375
          },
          {
            "ticks": 100822,
            "time": 143.94158506770833,
            "value": 0
          },
          {
            "ticks": 101392,
            "time": 144.75864295833335,
            "value": -0.0517578125
          },
          {
            "ticks": 101406,
            "time": 144.778711046875,
            "value": -0.1121826171875
          },
          {
            "ticks": 101422,
            "time": 144.80164600520834,
            "value": -0.1983642578125
          },
          {
            "ticks": 101436,
            "time": 144.82171409375,
            "value": -0.293212890625
          },
          {
            "ticks": 101452,
            "time": 144.84464905208335,
            "value": -0.439697265625
          },
          {
            "ticks": 101466,
            "time": 144.864717140625,
            "value": -0.5863037109375
          },
          {
            "ticks": 101482,
            "time": 144.88765209895834,
            "value": -0.7242431640625
          },
          {
            "ticks": 101496,
            "time": 144.9077201875,
            "value": -0.8621826171875
          },
          {
            "ticks": 101512,
            "time": 144.93065514583336,
            "value": -0.9569091796875
          },
          {
            "ticks": 101526,
            "time": 144.950723234375,
            "value": -1
          },
          {
            "ticks": 101540,
            "time": 144.97079132291665,
            "value": -0.9742431640625
          },
          {
            "ticks": 101556,
            "time": 144.99372628125,
            "value": -0.82763671875
          },
          {
            "ticks": 101570,
            "time": 145.01379436979167,
            "value": -0.6466064453125
          },
          {
            "ticks": 101586,
            "time": 145.036729328125,
            "value": -0.4827880859375
          },
          {
            "ticks": 101600,
            "time": 145.05679741666665,
            "value": -0.3363037109375
          },
          {
            "ticks": 101616,
            "time": 145.079732375,
            "value": -0.241455078125
          },
          {
            "ticks": 101630,
            "time": 145.09980046354167,
            "value": -0.163818359375
          },
          {
            "ticks": 101646,
            "time": 145.122735421875,
            "value": -0.103515625
          },
          {
            "ticks": 101660,
            "time": 145.14280351041666,
            "value": -0.07763671875
          },
          {
            "ticks": 101674,
            "time": 145.16287159895833,
            "value": -0.0517578125
          },
          {
            "ticks": 101690,
            "time": 145.18580655729164,
            "value": 0
          },
          {
            "ticks": 102748,
            "time": 146.70238067708334,
            "value": 0.0172119140625
          },
          {
            "ticks": 102762,
            "time": 146.722448765625,
            "value": 0.0257568359375
          },
          {
            "ticks": 102776,
            "time": 146.74251685416667,
            "value": 0.0516357421875
          },
          {
            "ticks": 102790,
            "time": 146.76258494270834,
            "value": 0.060302734375
          },
          {
            "ticks": 102814,
            "time": 146.79698738020835,
            "value": 0.0775146484375
          },
          {
            "ticks": 102836,
            "time": 146.82852294791667,
            "value": 0.1033935546875
          },
          {
            "ticks": 102858,
            "time": 146.860058515625,
            "value": 0.12060546875
          },
          {
            "ticks": 102872,
            "time": 146.88012660416666,
            "value": 0.1292724609375
          },
          {
            "ticks": 102918,
            "time": 146.946064609375,
            "value": 0.12060546875
          },
          {
            "ticks": 102940,
            "time": 146.97760017708333,
            "value": 0.1033935546875
          },
          {
            "ticks": 102954,
            "time": 146.997668265625,
            "value": 0.0947265625
          },
          {
            "ticks": 102978,
            "time": 147.032070703125,
            "value": 0.0775146484375
          },
          {
            "ticks": 102992,
            "time": 147.05213879166666,
            "value": 0.0516357421875
          },
          {
            "ticks": 103006,
            "time": 147.07220688020834,
            "value": 0.0257568359375
          },
          {
            "ticks": 103022,
            "time": 147.09514183854165,
            "value": 0
          },
          {
            "ticks": 103602,
            "time": 147.926534078125,
            "value": -0.017333984375
          },
          {
            "ticks": 103638,
            "time": 147.978137734375,
            "value": -0.0345458984375
          },
          {
            "ticks": 103654,
            "time": 148.00107269270833,
            "value": -0.043212890625
          },
          {
            "ticks": 103668,
            "time": 148.02114078125,
            "value": -0.0604248046875
          },
          {
            "ticks": 103684,
            "time": 148.04407573958335,
            "value": -0.0689697265625
          },
          {
            "ticks": 103706,
            "time": 148.07561130729167,
            "value": -0.0948486328125
          },
          {
            "ticks": 103720,
            "time": 148.09567939583334,
            "value": -0.1121826171875
          },
          {
            "ticks": 103734,
            "time": 148.115747484375,
            "value": -0.137939453125
          },
          {
            "ticks": 103750,
            "time": 148.13868244270833,
            "value": -0.163818359375
          },
          {
            "ticks": 103764,
            "time": 148.15875053125,
            "value": -0.189697265625
          },
          {
            "ticks": 103780,
            "time": 148.18168548958334,
            "value": -0.2242431640625
          },
          {
            "ticks": 103794,
            "time": 148.201753578125,
            "value": -0.2586669921875
          },
          {
            "ticks": 103810,
            "time": 148.22468853645833,
            "value": -0.293212890625
          },
          {
            "ticks": 103824,
            "time": 148.244756625,
            "value": -0.3104248046875
          },
          {
            "ticks": 103868,
            "time": 148.30782776041664,
            "value": -0.27587890625
          },
          {
            "ticks": 103884,
            "time": 148.33076271875,
            "value": -0.2327880859375
          },
          {
            "ticks": 103898,
            "time": 148.35083080729166,
            "value": -0.163818359375
          },
          {
            "ticks": 103914,
            "time": 148.373765765625,
            "value": -0.103515625
          },
          {
            "ticks": 103928,
            "time": 148.39383385416664,
            "value": -0.0689697265625
          },
          {
            "ticks": 103944,
            "time": 148.4167688125,
            "value": -0.0345458984375
          },
          {
            "ticks": 103958,
            "time": 148.43683690104166,
            "value": 0
          },
          {
            "ticks": 106146,
            "time": 151.573192453125,
            "value": 0.0257568359375
          },
          {
            "ticks": 106160,
            "time": 151.59326054166667,
            "value": 0.086181640625
          },
          {
            "ticks": 106176,
            "time": 151.6161955,
            "value": 0.1292724609375
          },
          {
            "ticks": 106190,
            "time": 151.63626358854165,
            "value": 0.1551513671875
          },
          {
            "ticks": 106220,
            "time": 151.67926663541667,
            "value": 0.146484375
          },
          {
            "ticks": 106242,
            "time": 151.710802203125,
            "value": 0.086181640625
          },
          {
            "ticks": 106258,
            "time": 151.73373716145835,
            "value": 0
          },
          {
            "ticks": 106844,
            "time": 152.57373001041665,
            "value": -0.0345458984375
          },
          {
            "ticks": 106860,
            "time": 152.59666496875,
            "value": -0.1207275390625
          },
          {
            "ticks": 106874,
            "time": 152.61673305729167,
            "value": -0.2242431640625
          },
          {
            "ticks": 106890,
            "time": 152.639668015625,
            "value": -0.3017578125
          },
          {
            "ticks": 106904,
            "time": 152.65973610416665,
            "value": -0.32763671875
          },
          {
            "ticks": 106920,
            "time": 152.6826710625,
            "value": -0.3104248046875
          },
          {
            "ticks": 106934,
            "time": 152.70273915104167,
            "value": -0.2586669921875
          },
          {
            "ticks": 106948,
            "time": 152.72280723958335,
            "value": -0.189697265625
          },
          {
            "ticks": 106964,
            "time": 152.74574219791666,
            "value": -0.103515625
          },
          {
            "ticks": 106978,
            "time": 152.76581028645833,
            "value": -0.0604248046875
          },
          {
            "ticks": 106994,
            "time": 152.78874524479164,
            "value": -0.017333984375
          },
          {
            "ticks": 107008,
            "time": 152.80881333333335,
            "value": 0
          },
          {
            "ticks": 107956,
            "time": 154.16770961458334,
            "value": -0.0086669921875
          },
          {
            "ticks": 107978,
            "time": 154.19924518229166,
            "value": -0.017333984375
          },
          {
            "ticks": 108008,
            "time": 154.24224822916665,
            "value": -0.0345458984375
          },
          {
            "ticks": 108022,
            "time": 154.26231631770835,
            "value": -0.043212890625
          },
          {
            "ticks": 108038,
            "time": 154.28525127604166,
            "value": -0.0517578125
          },
          {
            "ticks": 108052,
            "time": 154.30531936458334,
            "value": -0.0689697265625
          },
          {
            "ticks": 108074,
            "time": 154.33685493229166,
            "value": -0.0863037109375
          },
          {
            "ticks": 108090,
            "time": 154.359789890625,
            "value": -0.103515625
          },
          {
            "ticks": 108112,
            "time": 154.39132545833334,
            "value": -0.12939453125
          },
          {
            "ticks": 108126,
            "time": 154.411393546875,
            "value": -0.1466064453125
          },
          {
            "ticks": 108142,
            "time": 154.43432850520836,
            "value": -0.1724853515625
          },
          {
            "ticks": 108156,
            "time": 154.45439659375,
            "value": -0.189697265625
          },
          {
            "ticks": 108172,
            "time": 154.47733155208334,
            "value": -0.2069091796875
          },
          {
            "ticks": 108186,
            "time": 154.497399640625,
            "value": -0.2327880859375
          },
          {
            "ticks": 108202,
            "time": 154.52033459895836,
            "value": -0.2501220703125
          },
          {
            "ticks": 108216,
            "time": 154.5404026875,
            "value": -0.27587890625
          },
          {
            "ticks": 108238,
            "time": 154.57193825520835,
            "value": -0.3017578125
          },
          {
            "ticks": 108254,
            "time": 154.59487321354166,
            "value": -0.32763671875
          },
          {
            "ticks": 108276,
            "time": 154.62640878125,
            "value": -0.353515625
          },
          {
            "ticks": 108290,
            "time": 154.64647686979166,
            "value": -0.3707275390625
          },
          {
            "ticks": 108306,
            "time": 154.669411828125,
            "value": -0.387939453125
          },
          {
            "ticks": 108320,
            "time": 154.68947991666664,
            "value": -0.413818359375
          },
          {
            "ticks": 108342,
            "time": 154.721015484375,
            "value": -0.439697265625
          },
          {
            "ticks": 108358,
            "time": 154.74395044270835,
            "value": -0.4569091796875
          },
          {
            "ticks": 108372,
            "time": 154.76401853125,
            "value": -0.4827880859375
          },
          {
            "ticks": 108388,
            "time": 154.78695348958334,
            "value": -0.5
          },
          {
            "ticks": 108402,
            "time": 154.807021578125,
            "value": -0.517333984375
          },
          {
            "ticks": 108418,
            "time": 154.82995653645835,
            "value": -0.543212890625
          },
          {
            "ticks": 108432,
            "time": 154.850024625,
            "value": -0.5604248046875
          },
          {
            "ticks": 108446,
            "time": 154.87009271354165,
            "value": -0.5863037109375
          },
          {
            "ticks": 108462,
            "time": 154.893027671875,
            "value": -0.603515625
          },
          {
            "ticks": 108476,
            "time": 154.91309576041667,
            "value": -0.6207275390625
          },
          {
            "ticks": 108490,
            "time": 154.93316384895834,
            "value": -0.637939453125
          },
          {
            "ticks": 108506,
            "time": 154.95609880729165,
            "value": -0.663818359375
          },
          {
            "ticks": 108520,
            "time": 154.97616689583333,
            "value": -0.689697265625
          },
          {
            "ticks": 108536,
            "time": 154.99910185416667,
            "value": -0.715576171875
          },
          {
            "ticks": 108550,
            "time": 155.01916994270834,
            "value": -0.741455078125
          },
          {
            "ticks": 108566,
            "time": 155.04210490104165,
            "value": -0.7586669921875
          },
          {
            "ticks": 108580,
            "time": 155.06217298958333,
            "value": -0.793212890625
          },
          {
            "ticks": 108596,
            "time": 155.08510794791667,
            "value": -0.8104248046875
          },
          {
            "ticks": 108610,
            "time": 155.10517603645835,
            "value": -0.8448486328125
          },
          {
            "ticks": 108624,
            "time": 155.125244125,
            "value": -0.8707275390625
          },
          {
            "ticks": 108640,
            "time": 155.14817908333333,
            "value": -0.8966064453125
          },
          {
            "ticks": 108654,
            "time": 155.168247171875,
            "value": -0.913818359375
          },
          {
            "ticks": 108670,
            "time": 155.19118213020835,
            "value": -0.939697265625
          },
          {
            "ticks": 108684,
            "time": 155.21125021875,
            "value": -0.965576171875
          },
          {
            "ticks": 108700,
            "time": 155.23418517708333,
            "value": -0.9742431640625
          },
          {
            "ticks": 108744,
            "time": 155.2972563125,
            "value": -1
          },
          {
            "ticks": 109050,
            "time": 155.735887390625,
            "value": 0.003173828125
          }
        ],
        "instrument": {
          "family": "piano",
          "number": 0,
          "name": "acoustic grand piano"
        },
        "name": "",
        "notes": [
          {
            "duration": 0.1433434895833301,
            "durationTicks": 100,
            "midi": 59,
            "name": "B3",
            "ticks": 89640,
            "time": 127.9129160625,
            "velocity": 0.8661417322834646
          },
          {
            "duration": 0.14907722916666444,
            "durationTicks": 104,
            "midi": 64,
            "name": "E4",
            "ticks": 89832,
            "time": 128.1881355625,
            "velocity": 0.8346456692913385
          },
          {
            "duration": 0.1519440989583245,
            "durationTicks": 106,
            "midi": 66,
            "name": "F#4",
            "ticks": 90068,
            "time": 128.5264261979167,
            "velocity": 0.8188976377952756
          },
          {
            "duration": 0.16054470833333312,
            "durationTicks": 112,
            "midi": 68,
            "name": "G#4",
            "ticks": 90326,
            "time": 128.89625240104166,
            "velocity": 0.8188976377952756
          },
          {
            "duration": 1.8089948385416506,
            "durationTicks": 1262,
            "midi": 68,
            "name": "G#4",
            "ticks": 90812,
            "time": 129.59290176041668,
            "velocity": 0.8661417322834646
          },
          {
            "duration": 0.14907722916666444,
            "durationTicks": 104,
            "midi": 59,
            "name": "B3",
            "ticks": 92712,
            "time": 132.3164280625,
            "velocity": 0.8661417322834646
          },
          {
            "duration": 0.14621035937497595,
            "durationTicks": 102,
            "midi": 64,
            "name": "E4",
            "ticks": 92912,
            "time": 132.60311504166668,
            "velocity": 0.8582677165354331
          },
          {
            "duration": 0.14047661979165582,
            "durationTicks": 98,
            "midi": 66,
            "name": "F#4",
            "ticks": 93174,
            "time": 132.978674984375,
            "velocity": 0.8661417322834646
          },
          {
            "duration": 0.15767783854167305,
            "durationTicks": 110,
            "midi": 68,
            "name": "G#4",
            "ticks": 93426,
            "time": 133.339900578125,
            "velocity": 0.8582677165354331
          },
          {
            "duration": 0.6823150104166587,
            "durationTicks": 476,
            "midi": 68,
            "name": "G#4",
            "ticks": 93666,
            "time": 133.683924953125,
            "velocity": 0.8582677165354331
          },
          {
            "duration": 0.13187601041667563,
            "durationTicks": 92,
            "midi": 64,
            "name": "E4",
            "ticks": 94162,
            "time": 134.39490866145832,
            "velocity": 0.7480314960629921
          },
          {
            "duration": 0.1146747916666584,
            "durationTicks": 80,
            "midi": 59,
            "name": "B3",
            "ticks": 94270,
            "time": 134.54971963020833,
            "velocity": 0.7952755905511811
          },
          {
            "duration": 0.616377005208335,
            "durationTicks": 430,
            "midi": 68,
            "name": "G#4",
            "ticks": 94434,
            "time": 134.784802953125,
            "velocity": 0.8582677165354331
          },
          {
            "duration": 0.11467479166668682,
            "durationTicks": 80,
            "midi": 64,
            "name": "E4",
            "ticks": 94858,
            "time": 135.39257934895832,
            "velocity": 0.7322834645669292
          },
          {
            "duration": 0.12900914062501556,
            "durationTicks": 90,
            "midi": 59,
            "name": "B3",
            "ticks": 94958,
            "time": 135.53592283854167,
            "velocity": 0.8267716535433071
          },
          {
            "duration": 0.16341157812499318,
            "durationTicks": 114,
            "midi": 57,
            "name": "A3",
            "ticks": 95088,
            "time": 135.722269375,
            "velocity": 0.7952755905511811
          },
          {
            "duration": 0.9632682499999987,
            "durationTicks": 672,
            "midi": 56,
            "name": "G#3",
            "ticks": 95224,
            "time": 135.91721652083334,
            "velocity": 0.8267716535433071
          },
          {
            "duration": 1.163949135416658,
            "durationTicks": 812,
            "midi": 73,
            "name": "C#5",
            "ticks": 96582,
            "time": 137.863821109375,
            "velocity": 0.9133858267716536
          },
          {
            "duration": 0.12900914062498714,
            "durationTicks": 90,
            "midi": 69,
            "name": "A4",
            "ticks": 97392,
            "time": 139.024903375,
            "velocity": 0.7480314960629921
          },
          {
            "duration": 0.12327540104166701,
            "durationTicks": 86,
            "midi": 64,
            "name": "E4",
            "ticks": 97498,
            "time": 139.17684747395833,
            "velocity": 0.8110236220472441
          },
          {
            "duration": 0.10320731250001813,
            "durationTicks": 72,
            "midi": 62,
            "name": "D4",
            "ticks": 97624,
            "time": 139.35746027083331,
            "velocity": 0.84251968503937
          },
          {
            "duration": 0.5303709114583057,
            "durationTicks": 370,
            "midi": 61,
            "name": "C#4",
            "ticks": 97760,
            "time": 139.55240741666668,
            "velocity": 0.8661417322834646
          },
          {
            "duration": 0.22361584374999666,
            "durationTicks": 156,
            "midi": 57,
            "name": "A3",
            "ticks": 98118,
            "time": 140.065577109375,
            "velocity": 0.8110236220472441
          },
          {
            "duration": 0.7568536249999909,
            "durationTicks": 528,
            "midi": 52,
            "name": "E3",
            "ticks": 98286,
            "time": 140.306394171875,
            "velocity": 0.84251968503937
          },
          {
            "duration": 0.3038881979166774,
            "durationTicks": 212,
            "midi": 73,
            "name": "C#5",
            "ticks": 99358,
            "time": 141.84303638020833,
            "velocity": 0.8582677165354331
          },
          {
            "duration": 0.10894105208333826,
            "durationTicks": 76,
            "midi": 69,
            "name": "A4",
            "ticks": 99580,
            "time": 142.16125892708334,
            "velocity": 0.7165354330708661
          },
          {
            "duration": 0.11180792187499833,
            "durationTicks": 78,
            "midi": 64,
            "name": "E4",
            "ticks": 99660,
            "time": 142.27593371875,
            "velocity": 0.6299212598425197
          },
          {
            "duration": 0.6192438749999951,
            "durationTicks": 432,
            "midi": 68,
            "name": "G#4",
            "ticks": 99834,
            "time": 142.525351390625,
            "velocity": 0.8582677165354331
          },
          {
            "duration": 0.1146747916666584,
            "durationTicks": 80,
            "midi": 64,
            "name": "E4",
            "ticks": 100282,
            "time": 143.16753022395835,
            "velocity": 0.7952755905511811
          },
          {
            "duration": 0.10034044270835807,
            "durationTicks": 70,
            "midi": 59,
            "name": "B3",
            "ticks": 100410,
            "time": 143.351009890625,
            "velocity": 0.8267716535433071
          },
          {
            "duration": 0.10607418229164978,
            "durationTicks": 74,
            "midi": 57,
            "name": "A3",
            "ticks": 100552,
            "time": 143.55455764583334,
            "velocity": 0.8031496062992126
          },
          {
            "duration": 1.1553485260416778,
            "durationTicks": 806,
            "midi": 56,
            "name": "G#3",
            "ticks": 100700,
            "time": 143.76670601041667,
            "velocity": 0.84251968503937
          },
          {
            "duration": 1.8950009322916515,
            "durationTicks": 1322,
            "midi": 66,
            "name": "F#4",
            "ticks": 102502,
            "time": 146.34975569270836,
            "velocity": 0.8267716535433071
          },
          {
            "duration": 0.3726930729166611,
            "durationTicks": 260,
            "midi": 69,
            "name": "A4",
            "ticks": 104442,
            "time": 149.130619390625,
            "velocity": 0.8740157480314961
          },
          {
            "duration": 0.13760974999999576,
            "durationTicks": 96,
            "midi": 68,
            "name": "G#4",
            "ticks": 104696,
            "time": 149.49471185416667,
            "velocity": 0.7874015748031497
          },
          {
            "duration": 0.13760974999999576,
            "durationTicks": 96,
            "midi": 64,
            "name": "E4",
            "ticks": 104782,
            "time": 149.61798725520833,
            "velocity": 0.7480314960629921
          },
          {
            "duration": 0.18347966666667048,
            "durationTicks": 128,
            "midi": 59,
            "name": "B3",
            "ticks": 104884,
            "time": 149.76419761458334,
            "velocity": 0.6220472440944882
          },
          {
            "duration": 0.335423765624995,
            "durationTicks": 234,
            "midi": 69,
            "name": "A4",
            "ticks": 104970,
            "time": 149.887473015625,
            "velocity": 0.905511811023622
          },
          {
            "duration": 0.14047661979165582,
            "durationTicks": 98,
            "midi": 68,
            "name": "G#4",
            "ticks": 105192,
            "time": 150.2056955625,
            "velocity": 0.8031496062992126
          },
          {
            "duration": 0.12900914062498714,
            "durationTicks": 90,
            "midi": 64,
            "name": "E4",
            "ticks": 105288,
            "time": 150.3433053125,
            "velocity": 0.7637795275590551
          },
          {
            "duration": 0.09747357291666958,
            "durationTicks": 68,
            "midi": 59,
            "name": "B3",
            "ticks": 105382,
            "time": 150.47804819270834,
            "velocity": 0.6850393700787402
          },
          {
            "duration": 0.220748973958365,
            "durationTicks": 154,
            "midi": 69,
            "name": "A4",
            "ticks": 105452,
            "time": 150.57838863541664,
            "velocity": 0.889763779527559
          },
          {
            "duration": 0.1433434895833443,
            "durationTicks": 100,
            "midi": 68,
            "name": "G#4",
            "ticks": 105584,
            "time": 150.76760204166666,
            "velocity": 0.84251968503937
          },
          {
            "duration": 0.09460670312500952,
            "durationTicks": 66,
            "midi": 64,
            "name": "E4",
            "ticks": 105678,
            "time": 150.902344921875,
            "velocity": 0.8346456692913385
          },
          {
            "duration": 0.09173983333332103,
            "durationTicks": 64,
            "midi": 59,
            "name": "B3",
            "ticks": 105736,
            "time": 150.98548414583334,
            "velocity": 0.7874015748031497
          },
          {
            "duration": 0.12900914062501556,
            "durationTicks": 90,
            "midi": 57,
            "name": "A3",
            "ticks": 105794,
            "time": 151.06862336979165,
            "velocity": 0.7401574803149606
          },
          {
            "duration": 0.11754166145829004,
            "durationTicks": 82,
            "midi": 56,
            "name": "G#3",
            "ticks": 105886,
            "time": 151.20049938020836,
            "velocity": 0.5590551181102362
          },
          {
            "duration": 0.5676402187500003,
            "durationTicks": 396,
            "midi": 57,
            "name": "A3",
            "ticks": 105950,
            "time": 151.29223921354165,
            "velocity": 0.8503937007874016
          },
          {
            "duration": 0.14621035937500437,
            "durationTicks": 102,
            "midi": 56,
            "name": "G#3",
            "ticks": 106334,
            "time": 151.84267821354166,
            "velocity": 0.8582677165354331
          },
          {
            "duration": 0.1261422708333555,
            "durationTicks": 88,
            "midi": 52,
            "name": "E3",
            "ticks": 106442,
            "time": 151.99748918229164,
            "velocity": 0.8267716535433071
          },
          {
            "duration": 0.16914531770837016,
            "durationTicks": 118,
            "midi": 47,
            "name": "B2",
            "ticks": 106500,
            "time": 152.08062840624999,
            "velocity": 0.8188976377952756
          },
          {
            "duration": 0.11754166145831846,
            "durationTicks": 82,
            "midi": 45,
            "name": "A2",
            "ticks": 106600,
            "time": 152.22397189583333,
            "velocity": 0.7874015748031497
          },
          {
            "duration": 0.12040853125000694,
            "durationTicks": 84,
            "midi": 44,
            "name": "G#2",
            "ticks": 106680,
            "time": 152.3386466875,
            "velocity": 0.7874015748031497
          },
          {
            "duration": 0.23221645312500527,
            "durationTicks": 162,
            "midi": 45,
            "name": "A2",
            "ticks": 106748,
            "time": 152.43612026041666,
            "velocity": 0.8661417322834646
          },
          {
            "duration": 0.36695933333331254,
            "durationTicks": 256,
            "midi": 57,
            "name": "A3",
            "ticks": 106912,
            "time": 152.67120358333335,
            "velocity": 0.905511811023622
          },
          {
            "duration": 0.1146747916666584,
            "durationTicks": 80,
            "midi": 56,
            "name": "G#3",
            "ticks": 107170,
            "time": 153.04102978645835,
            "velocity": 0.8110236220472441
          },
          {
            "duration": 0.0860060937500009,
            "durationTicks": 60,
            "midi": 52,
            "name": "E3",
            "ticks": 107252,
            "time": 153.15857144791664,
            "velocity": 0.8267716535433071
          },
          {
            "duration": 0.09173983333332103,
            "durationTicks": 64,
            "midi": 47,
            "name": "B2",
            "ticks": 107314,
            "time": 153.24744441145833,
            "velocity": 0.8110236220472441
          },
          {
            "duration": 0.09173983333334945,
            "durationTicks": 64,
            "midi": 45,
            "name": "A2",
            "ticks": 107382,
            "time": 153.344917984375,
            "velocity": 0.8740157480314961
          },
          {
            "duration": 0.09173983333332103,
            "durationTicks": 64,
            "midi": 44,
            "name": "G#2",
            "ticks": 107448,
            "time": 153.4395246875,
            "velocity": 0.9133858267716536
          },
          {
            "duration": 1.8519978854166652,
            "durationTicks": 1292,
            "midi": 40,
            "name": "E2",
            "ticks": 107514,
            "time": 153.534131390625,
            "velocity": 0.84251968503937
          },
          {
            "duration": 0.097473572916698,
            "durationTicks": 68,
            "midi": 28,
            "name": "E1",
            "ticks": 118460,
            "time": 169.22450976041665,
            "velocity": 0.7795275590551181
          },
          {
            "duration": 0.09460670312500952,
            "durationTicks": 66,
            "midi": 40,
            "name": "E2",
            "ticks": 118460,
            "time": 169.22450976041665,
            "velocity": 0.7795275590551181
          },
          {
            "duration": 0.10320731250001813,
            "durationTicks": 72,
            "midi": 28,
            "name": "E1",
            "ticks": 118556,
            "time": 169.36211951041665,
            "velocity": 0.7559055118110236
          },
          {
            "duration": 0.08313922395834084,
            "durationTicks": 58,
            "midi": 40,
            "name": "E2",
            "ticks": 118556,
            "time": 169.36211951041665,
            "velocity": 0.7637795275590551
          },
          {
            "duration": 0.10034044270835807,
            "durationTicks": 70,
            "midi": 28,
            "name": "E1",
            "ticks": 118652,
            "time": 169.49972926041664,
            "velocity": 0.7795275590551181
          },
          {
            "duration": 0.0860060937500009,
            "durationTicks": 60,
            "midi": 40,
            "name": "E2",
            "ticks": 118652,
            "time": 169.49972926041664,
            "velocity": 0.7716535433070866
          },
          {
            "duration": 0.1060741822916782,
            "durationTicks": 74,
            "midi": 28,
            "name": "E1",
            "ticks": 120092,
            "time": 171.56387551041666,
            "velocity": 0.7716535433070866
          },
          {
            "duration": 0.1060741822916782,
            "durationTicks": 74,
            "midi": 40,
            "name": "E2",
            "ticks": 120092,
            "time": 171.56387551041666,
            "velocity": 0.7795275590551181
          },
          {
            "duration": 0.08887296354168939,
            "durationTicks": 62,
            "midi": 28,
            "name": "E1",
            "ticks": 120188,
            "time": 171.70148526041666,
            "velocity": 0.7637795275590551
          },
          {
            "duration": 0.1060741822916782,
            "durationTicks": 74,
            "midi": 40,
            "name": "E2",
            "ticks": 120188,
            "time": 171.70148526041666,
            "velocity": 0.7795275590551181
          },
          {
            "duration": 0.0860060937500009,
            "durationTicks": 60,
            "midi": 28,
            "name": "E1",
            "ticks": 120860,
            "time": 172.66475351041666,
            "velocity": 0.7637795275590551
          },
          {
            "duration": 0.10034044270832965,
            "durationTicks": 70,
            "midi": 40,
            "name": "E2",
            "ticks": 120860,
            "time": 172.66475351041666,
            "velocity": 0.7637795275590551
          },
          {
            "duration": 0.1060741822916782,
            "durationTicks": 74,
            "midi": 28,
            "name": "E1",
            "ticks": 120956,
            "time": 172.80236326041666,
            "velocity": 0.7637795275590551
          },
          {
            "duration": 0.08887296354168939,
            "durationTicks": 62,
            "midi": 40,
            "name": "E2",
            "ticks": 120956,
            "time": 172.80236326041666,
            "velocity": 0.7716535433070866
          },
          {
            "duration": 0.097473572916698,
            "durationTicks": 68,
            "midi": 35,
            "name": "B1",
            "ticks": 121724,
            "time": 173.90324126041665,
            "velocity": 0.7637795275590551
          },
          {
            "duration": 0.097473572916698,
            "durationTicks": 68,
            "midi": 47,
            "name": "B2",
            "ticks": 121724,
            "time": 173.90324126041665,
            "velocity": 0.7874015748031497
          },
          {
            "duration": 0.09460670312500952,
            "durationTicks": 66,
            "midi": 35,
            "name": "B1",
            "ticks": 121820,
            "time": 174.04085101041665,
            "velocity": 0.7637795275590551
          },
          {
            "duration": 0.08313922395834084,
            "durationTicks": 58,
            "midi": 47,
            "name": "B2",
            "ticks": 121820,
            "time": 174.04085101041665,
            "velocity": 0.7716535433070866
          },
          {
            "duration": 0.10320731249998971,
            "durationTicks": 72,
            "midi": 35,
            "name": "B1",
            "ticks": 121916,
            "time": 174.17846076041667,
            "velocity": 0.7637795275590551
          },
          {
            "duration": 0.09173983333332103,
            "durationTicks": 64,
            "midi": 47,
            "name": "B2",
            "ticks": 121916,
            "time": 174.17846076041667,
            "velocity": 0.7795275590551181
          },
          {
            "duration": 0.0860060937500009,
            "durationTicks": 60,
            "midi": 33,
            "name": "A1",
            "ticks": 122972,
            "time": 175.69216801041665,
            "velocity": 0.7716535433070866
          },
          {
            "duration": 0.10607418229170662,
            "durationTicks": 74,
            "midi": 45,
            "name": "A2",
            "ticks": 122972,
            "time": 175.69216801041665,
            "velocity": 0.7716535433070866
          },
          {
            "duration": 0.10607418229170662,
            "durationTicks": 74,
            "midi": 33,
            "name": "A1",
            "ticks": 123068,
            "time": 175.82977776041665,
            "velocity": 0.7480314960629921
          },
          {
            "duration": 0.0860060937500009,
            "durationTicks": 60,
            "midi": 45,
            "name": "A2",
            "ticks": 123068,
            "time": 175.82977776041665,
            "velocity": 0.7637795275590551
          },
          {
            "duration": 0.10320731250001813,
            "durationTicks": 72,
            "midi": 33,
            "name": "A1",
            "ticks": 123164,
            "time": 175.96738751041664,
            "velocity": 0.7637795275590551
          },
          {
            "duration": 0.10034044270835807,
            "durationTicks": 70,
            "midi": 45,
            "name": "A2",
            "ticks": 123164,
            "time": 175.96738751041664,
            "velocity": 0.7637795275590551
          },
          {
            "duration": 0.09747357291666958,
            "durationTicks": 68,
            "midi": 33,
            "name": "A1",
            "ticks": 123260,
            "time": 176.10499726041667,
            "velocity": 0.7480314960629921
          },
          {
            "duration": 0.10034044270832965,
            "durationTicks": 70,
            "midi": 45,
            "name": "A2",
            "ticks": 123260,
            "time": 176.10499726041667,
            "velocity": 0.7637795275590551
          },
          {
            "duration": 0.10320731249998971,
            "durationTicks": 72,
            "midi": 28,
            "name": "E1",
            "ticks": 124604,
            "time": 178.03153376041666,
            "velocity": 0.7716535433070866
          },
          {
            "duration": 0.1060741822916782,
            "durationTicks": 74,
            "midi": 40,
            "name": "E2",
            "ticks": 124604,
            "time": 178.03153376041666,
            "velocity": 0.7795275590551181
          },
          {
            "duration": 0.1060741822916782,
            "durationTicks": 74,
            "midi": 28,
            "name": "E1",
            "ticks": 124700,
            "time": 178.16914351041666,
            "velocity": 0.7559055118110236
          },
          {
            "duration": 0.08887296354168939,
            "durationTicks": 62,
            "midi": 40,
            "name": "E2",
            "ticks": 124700,
            "time": 178.16914351041666,
            "velocity": 0.7637795275590551
          },
          {
            "duration": 0.0860060937500009,
            "durationTicks": 60,
            "midi": 28,
            "name": "E1",
            "ticks": 124796,
            "time": 178.30675326041666,
            "velocity": 0.7637795275590551
          },
          {
            "duration": 0.097473572916698,
            "durationTicks": 68,
            "midi": 40,
            "name": "E2",
            "ticks": 124796,
            "time": 178.30675326041666,
            "velocity": 0.7716535433070866
          },
          {
            "duration": 0.09173983333334945,
            "durationTicks": 64,
            "midi": 28,
            "name": "E1",
            "ticks": 124892,
            "time": 178.44436301041665,
            "velocity": 0.7559055118110236
          },
          {
            "duration": 0.09460670312500952,
            "durationTicks": 66,
            "midi": 40,
            "name": "E2",
            "ticks": 124892,
            "time": 178.44436301041665,
            "velocity": 0.7637795275590551
          },
          {
            "duration": 0.1060741822916782,
            "durationTicks": 74,
            "midi": 28,
            "name": "E1",
            "ticks": 125468,
            "time": 179.27002151041665,
            "velocity": 0.7716535433070866
          },
          {
            "duration": 0.08313922395834084,
            "durationTicks": 58,
            "midi": 40,
            "name": "E2",
            "ticks": 125468,
            "time": 179.27002151041665,
            "velocity": 0.7716535433070866
          },
          {
            "duration": 0.0860060937500009,
            "durationTicks": 60,
            "midi": 28,
            "name": "E1",
            "ticks": 125564,
            "time": 179.40763126041665,
            "velocity": 0.7559055118110236
          },
          {
            "duration": 0.097473572916698,
            "durationTicks": 68,
            "midi": 40,
            "name": "E2",
            "ticks": 125564,
            "time": 179.40763126041665,
            "velocity": 0.7637795275590551
          },
          {
            "duration": 0.0860060937500009,
            "durationTicks": 60,
            "midi": 28,
            "name": "E1",
            "ticks": 125660,
            "time": 179.54524101041665,
            "velocity": 0.7637795275590551
          },
          {
            "duration": 0.09173983333334945,
            "durationTicks": 64,
            "midi": 40,
            "name": "E2",
            "ticks": 125660,
            "time": 179.54524101041665,
            "velocity": 0.7716535433070866
          },
          {
            "duration": 0.10034044270832965,
            "durationTicks": 70,
            "midi": 28,
            "name": "E1",
            "ticks": 125756,
            "time": 179.68285076041667,
            "velocity": 0.7559055118110236
          },
          {
            "duration": 0.09173983333332103,
            "durationTicks": 64,
            "midi": 40,
            "name": "E2",
            "ticks": 125756,
            "time": 179.68285076041667,
            "velocity": 0.7637795275590551
          },
          {
            "duration": 0.08313922395834084,
            "durationTicks": 58,
            "midi": 28,
            "name": "E1",
            "ticks": 125852,
            "time": 179.82046051041667,
            "velocity": 0.7795275590551181
          },
          {
            "duration": 0.08313922395834084,
            "durationTicks": 58,
            "midi": 40,
            "name": "E2",
            "ticks": 125852,
            "time": 179.82046051041667,
            "velocity": 0.7716535433070866
          },
          {
            "duration": 0.09173983333334945,
            "durationTicks": 64,
            "midi": 28,
            "name": "E1",
            "ticks": 126332,
            "time": 180.50850926041664,
            "velocity": 0.7795275590551181
          },
          {
            "duration": 0.08313922395836926,
            "durationTicks": 58,
            "midi": 40,
            "name": "E2",
            "ticks": 126332,
            "time": 180.50850926041664,
            "velocity": 0.7795275590551181
          },
          {
            "duration": 0.09747357291666958,
            "durationTicks": 68,
            "midi": 28,
            "name": "E1",
            "ticks": 126428,
            "time": 180.64611901041667,
            "velocity": 0.7637795275590551
          },
          {
            "duration": 0.08313922395834084,
            "durationTicks": 58,
            "midi": 40,
            "name": "E2",
            "ticks": 126428,
            "time": 180.64611901041667,
            "velocity": 0.7637795275590551
          },
          {
            "duration": 0.0946067031249811,
            "durationTicks": 66,
            "midi": 28,
            "name": "E1",
            "ticks": 126524,
            "time": 180.78372876041666,
            "velocity": 0.7637795275590551
          },
          {
            "duration": 0.08887296354168939,
            "durationTicks": 62,
            "midi": 40,
            "name": "E2",
            "ticks": 126524,
            "time": 180.78372876041666,
            "velocity": 0.7637795275590551
          },
          {
            "duration": 0.08313922395834084,
            "durationTicks": 58,
            "midi": 28,
            "name": "E1",
            "ticks": 126620,
            "time": 180.92133851041666,
            "velocity": 0.7559055118110236
          },
          {
            "duration": 0.10034044270832965,
            "durationTicks": 70,
            "midi": 40,
            "name": "E2",
            "ticks": 126620,
            "time": 180.92133851041666,
            "velocity": 0.7716535433070866
          },
          {
            "duration": 0.09173983333334945,
            "durationTicks": 64,
            "midi": 33,
            "name": "A1",
            "ticks": 129212,
            "time": 184.63680176041666,
            "velocity": 0.7716535433070866
          },
          {
            "duration": 0.08887296354168939,
            "durationTicks": 62,
            "midi": 45,
            "name": "A2",
            "ticks": 129212,
            "time": 184.63680176041666,
            "velocity": 0.7795275590551181
          },
          {
            "duration": 0.08887296354168939,
            "durationTicks": 62,
            "midi": 33,
            "name": "A1",
            "ticks": 129308,
            "time": 184.77441151041666,
            "velocity": 0.7637795275590551
          },
          {
            "duration": 0.0860060937500009,
            "durationTicks": 60,
            "midi": 45,
            "name": "A2",
            "ticks": 129308,
            "time": 184.77441151041666,
            "velocity": 0.7637795275590551
          },
          {
            "duration": 0.09173983333334945,
            "durationTicks": 64,
            "midi": 33,
            "name": "A1",
            "ticks": 129404,
            "time": 184.91202126041665,
            "velocity": 0.7637795275590551
          },
          {
            "duration": 0.10320731250001813,
            "durationTicks": 72,
            "midi": 45,
            "name": "A2",
            "ticks": 129404,
            "time": 184.91202126041665,
            "velocity": 0.7637795275590551
          },
          {
            "duration": 0.097473572916698,
            "durationTicks": 68,
            "midi": 33,
            "name": "A1",
            "ticks": 129500,
            "time": 185.04963101041665,
            "velocity": 0.7480314960629921
          },
          {
            "duration": 0.10034044270835807,
            "durationTicks": 70,
            "midi": 45,
            "name": "A2",
            "ticks": 129500,
            "time": 185.04963101041665,
            "velocity": 0.7637795275590551
          },
          {
            "duration": 0.10320731250001813,
            "durationTicks": 72,
            "midi": 33,
            "name": "A1",
            "ticks": 129596,
            "time": 185.18724076041664,
            "velocity": 0.7716535433070866
          },
          {
            "duration": 0.0860060937500009,
            "durationTicks": 60,
            "midi": 45,
            "name": "A2",
            "ticks": 129596,
            "time": 185.18724076041664,
            "velocity": 0.7716535433070866
          },
          {
            "duration": 0.1060741822916782,
            "durationTicks": 74,
            "midi": 33,
            "name": "A1",
            "ticks": 130364,
            "time": 186.28811876041667,
            "velocity": 0.7637795275590551
          },
          {
            "duration": 0.0946067031249811,
            "durationTicks": 66,
            "midi": 45,
            "name": "A2",
            "ticks": 130364,
            "time": 186.28811876041667,
            "velocity": 0.7795275590551181
          },
          {
            "duration": 0.08887296354168939,
            "durationTicks": 62,
            "midi": 33,
            "name": "A1",
            "ticks": 130460,
            "time": 186.42572851041666,
            "velocity": 0.7559055118110236
          },
          {
            "duration": 0.10320731249998971,
            "durationTicks": 72,
            "midi": 45,
            "name": "A2",
            "ticks": 130460,
            "time": 186.42572851041666,
            "velocity": 0.7559055118110236
          },
          {
            "duration": 0.097473572916698,
            "durationTicks": 68,
            "midi": 28,
            "name": "E1",
            "ticks": 130556,
            "time": 186.56333826041666,
            "velocity": 0.7716535433070866
          },
          {
            "duration": 0.10320731249998971,
            "durationTicks": 72,
            "midi": 40,
            "name": "E2",
            "ticks": 130556,
            "time": 186.56333826041666,
            "velocity": 0.7716535433070866
          },
          {
            "duration": 0.10034044270835807,
            "durationTicks": 70,
            "midi": 28,
            "name": "E1",
            "ticks": 130652,
            "time": 186.70094801041665,
            "velocity": 0.7480314960629921
          },
          {
            "duration": 0.08887296354168939,
            "durationTicks": 62,
            "midi": 40,
            "name": "E2",
            "ticks": 130652,
            "time": 186.70094801041665,
            "velocity": 0.7637795275590551
          },
          {
            "duration": 0.08887296354168939,
            "durationTicks": 62,
            "midi": 28,
            "name": "E1",
            "ticks": 130748,
            "time": 186.83855776041665,
            "velocity": 0.7637795275590551
          },
          {
            "duration": 0.10320731250001813,
            "durationTicks": 72,
            "midi": 40,
            "name": "E2",
            "ticks": 130748,
            "time": 186.83855776041665,
            "velocity": 0.7637795275590551
          },
          {
            "duration": 0.10034044270835807,
            "durationTicks": 70,
            "midi": 28,
            "name": "E1",
            "ticks": 131516,
            "time": 187.93943576041664,
            "velocity": 0.7637795275590551
          },
          {
            "duration": 0.08313922395836926,
            "durationTicks": 58,
            "midi": 40,
            "name": "E2",
            "ticks": 131516,
            "time": 187.93943576041664,
            "velocity": 0.7716535433070866
          },
          {
            "duration": 0.0946067031249811,
            "durationTicks": 66,
            "midi": 28,
            "name": "E1",
            "ticks": 131612,
            "time": 188.07704551041667,
            "velocity": 0.7559055118110236
          },
          {
            "duration": 0.10320731249998971,
            "durationTicks": 72,
            "midi": 40,
            "name": "E2",
            "ticks": 131612,
            "time": 188.07704551041667,
            "velocity": 0.7637795275590551
          },
          {
            "duration": 0.0946067031249811,
            "durationTicks": 66,
            "midi": 28,
            "name": "E1",
            "ticks": 131708,
            "time": 188.21465526041666,
            "velocity": 0.7637795275590551
          },
          {
            "duration": 0.09173983333334945,
            "durationTicks": 64,
            "midi": 40,
            "name": "E2",
            "ticks": 131708,
            "time": 188.21465526041666,
            "velocity": 0.7716535433070866
          },
          {
            "duration": 0.0860060937500009,
            "durationTicks": 60,
            "midi": 28,
            "name": "E1",
            "ticks": 131900,
            "time": 188.48987476041665,
            "velocity": 0.7637795275590551
          },
          {
            "duration": 0.10320731249998971,
            "durationTicks": 72,
            "midi": 40,
            "name": "E2",
            "ticks": 131900,
            "time": 188.48987476041665,
            "velocity": 0.7795275590551181
          },
          {
            "duration": 0.097473572916698,
            "durationTicks": 68,
            "midi": 28,
            "name": "E1",
            "ticks": 132092,
            "time": 188.76509426041665,
            "velocity": 0.7716535433070866
          },
          {
            "duration": 0.08313922395834084,
            "durationTicks": 58,
            "midi": 40,
            "name": "E2",
            "ticks": 132092,
            "time": 188.76509426041665,
            "velocity": 0.7795275590551181
          }
        ],
        "endOfTrackTicks": 132352
      },
      {
        "channel": 9,
        "controlChanges": {
          "7": [
            {
              "number": 7,
              "ticks": 1538,
              "time": 1.6244348697916668,
              "value": 1
            },
            {
              "number": 7,
              "ticks": 1538,
              "time": 1.6244348697916668,
              "value": 1
            },
            {
              "number": 7,
              "ticks": 1538,
              "time": 1.6244348697916668,
              "value": 1
            },
            {
              "number": 7,
              "ticks": 1538,
              "time": 1.6244348697916668,
              "value": 1
            },
            {
              "number": 7,
              "ticks": 1538,
              "time": 1.6244348697916668,
              "value": 1
            },
            {
              "number": 7,
              "ticks": 1538,
              "time": 1.6244348697916668,
              "value": 1
            },
            {
              "number": 7,
              "ticks": 1538,
              "time": 1.6244348697916668,
              "value": 1
            },
            {
              "number": 7,
              "ticks": 1538,
              "time": 1.6244348697916668,
              "value": 1
            },
            {
              "number": 7,
              "ticks": 1538,
              "time": 1.6244348697916668,
              "value": 1
            },
            {
              "number": 7,
              "ticks": 1538,
              "time": 1.6244348697916668,
              "value": 1
            },
            {
              "number": 7,
              "ticks": 1538,
              "time": 1.6244348697916668,
              "value": 1
            },
            {
              "number": 7,
              "ticks": 1538,
              "time": 1.6244348697916668,
              "value": 1
            },
            {
              "number": 7,
              "ticks": 1538,
              "time": 1.6244348697916668,
              "value": 1
            },
            {
              "number": 7,
              "ticks": 1538,
              "time": 1.6244348697916668,
              "value": 1
            },
            {
              "number": 7,
              "ticks": 1538,
              "time": 1.6244348697916668,
              "value": 1
            },
            {
              "number": 7,
              "ticks": 1538,
              "time": 1.6244348697916668,
              "value": 1
            }
          ],
          "121": [
            {
              "number": 121,
              "ticks": 254,
              "time": 0.2681499166666667,
              "value": 0
            },
            {
              "number": 121,
              "ticks": 256,
              "time": 0.27026133333333335,
              "value": 0
            },
            {
              "number": 121,
              "ticks": 258,
              "time": 0.27237275,
              "value": 0
            },
            {
              "number": 121,
              "ticks": 260,
              "time": 0.2744841666666667,
              "value": 0
            },
            {
              "number": 121,
              "ticks": 262,
              "time": 0.27659558333333334,
              "value": 0
            },
            {
              "number": 121,
              "ticks": 264,
              "time": 0.27870700000000004,
              "value": 0
            },
            {
              "number": 121,
              "ticks": 266,
              "time": 0.2808184166666667,
              "value": 0
            },
            {
              "number": 121,
              "ticks": 268,
              "time": 0.2829298333333333,
              "value": 0
            },
            {
              "number": 121,
              "ticks": 270,
              "time": 0.28504125,
              "value": 0
            },
            {
              "number": 121,
              "ticks": 272,
              "time": 0.2871526666666667,
              "value": 0
            },
            {
              "number": 121,
              "ticks": 274,
              "time": 0.28926408333333337,
              "value": 0
            },
            {
              "number": 121,
              "ticks": 276,
              "time": 0.2913755,
              "value": 0
            },
            {
              "number": 121,
              "ticks": 278,
              "time": 0.2934869166666667,
              "value": 0
            },
            {
              "number": 121,
              "ticks": 280,
              "time": 0.29559833333333335,
              "value": 0
            },
            {
              "number": 121,
              "ticks": 282,
              "time": 0.29770975,
              "value": 0
            },
            {
              "number": 121,
              "ticks": 284,
              "time": 0.2998211666666667,
              "value": 0
            },
            {
              "number": 121,
              "ticks": 167678,
              "time": 239.77530846354165,
              "value": 0
            },
            {
              "number": 121,
              "ticks": 167680,
              "time": 239.77817533333334,
              "value": 0
            },
            {
              "number": 121,
              "ticks": 167682,
              "time": 239.781042203125,
              "value": 0
            },
            {
              "number": 121,
              "ticks": 167684,
              "time": 239.78390907291666,
              "value": 0
            },
            {
              "number": 121,
              "ticks": 167686,
              "time": 239.78677594270835,
              "value": 0
            },
            {
              "number": 121,
              "ticks": 167688,
              "time": 239.7896428125,
              "value": 0
            },
            {
              "number": 121,
              "ticks": 167690,
              "time": 239.79250968229167,
              "value": 0
            },
            {
              "number": 121,
              "ticks": 167692,
              "time": 239.79537655208335,
              "value": 0
            },
            {
              "number": 121,
              "ticks": 167694,
              "time": 239.79824342187501,
              "value": 0
            },
            {
              "number": 121,
              "ticks": 167696,
              "time": 239.80111029166665,
              "value": 0
            },
            {
              "number": 121,
              "ticks": 167698,
              "time": 239.80397716145833,
              "value": 0
            },
            {
              "number": 121,
              "ticks": 167700,
              "time": 239.80684403125,
              "value": 0
            },
            {
              "number": 121,
              "ticks": 167702,
              "time": 239.80971090104165,
              "value": 0
            },
            {
              "number": 121,
              "ticks": 167704,
              "time": 239.81257777083334,
              "value": 0
            },
            {
              "number": 121,
              "ticks": 167706,
              "time": 239.815444640625,
              "value": 0
            },
            {
              "number": 121,
              "ticks": 167708,
              "time": 239.81831151041666,
              "value": 0
            }
          ]
        },
        "pitchBends": [],
        "instrument": {
          "family": "drums",
          "number": 0,
          "name": "standard kit"
        },
        "name": "",
        "notes": [
          {
            "duration": 0.011467479166668682,
            "durationTicks": 8,
            "midi": 38,
            "name": "D2",
            "ticks": 15736,
            "time": 21.976343520833332,
            "velocity": 0.8740157480314961
          },
          {
            "duration": 0.011467479166668682,
            "durationTicks": 8,
            "midi": 38,
            "name": "D2",
            "ticks": 16510,
            "time": 23.08582213020833,
            "velocity": 0.905511811023622
          },
          {
            "duration": 0.011467479166668682,
            "durationTicks": 8,
            "midi": 42,
            "name": "F#2",
            "ticks": 17080,
            "time": 23.902880020833333,
            "velocity": 0.6062992125984252
          },
          {
            "duration": 0.011467479166665129,
            "durationTicks": 8,
            "midi": 42,
            "name": "F#2",
            "ticks": 17180,
            "time": 24.046223510416667,
            "velocity": 0.7795275590551181
          },
          {
            "duration": 0.011467479166668682,
            "durationTicks": 8,
            "midi": 38,
            "name": "D2",
            "ticks": 17272,
            "time": 24.17809952083333,
            "velocity": 0.889763779527559
          },
          {
            "duration": 0.011467479166668682,
            "durationTicks": 8,
            "midi": 42,
            "name": "F#2",
            "ticks": 17280,
            "time": 24.189567,
            "velocity": 0.6220472440944882
          },
          {
            "duration": 0.011467479166668682,
            "durationTicks": 8,
            "midi": 42,
            "name": "F#2",
            "ticks": 17466,
            "time": 24.456185890625,
            "velocity": 0.6929133858267716
          },
          {
            "duration": 0.011467479166668682,
            "durationTicks": 8,
            "midi": 42,
            "name": "F#2",
            "ticks": 17664,
            "time": 24.740006,
            "velocity": 0.6062992125984252
          },
          {
            "duration": 0.011467479166665129,
            "durationTicks": 8,
            "midi": 42,
            "name": "F#2",
            "ticks": 17852,
            "time": 25.00949176041667,
            "velocity": 0.6456692913385826
          },
          {
            "duration": 0.011467479166668682,
            "durationTicks": 8,
            "midi": 38,
            "name": "D2",
            "ticks": 18040,
            "time": 25.278977520833333,
            "velocity": 0.8740157480314961
          },
          {
            "duration": 0.011467479166665129,
            "durationTicks": 8,
            "midi": 42,
            "name": "F#2",
            "ticks": 18044,
            "time": 25.284711260416667,
            "velocity": 0.7165354330708661
          },
          {
            "duration": 0.011467479166668682,
            "durationTicks": 8,
            "midi": 42,
            "name": "F#2",
            "ticks": 18234,
            "time": 25.557063890625,
            "velocity": 0.6929133858267716
          },
          {
            "duration": 0.011467479166668682,
            "durationTicks": 8,
            "midi": 42,
            "name": "F#2",
            "ticks": 18426,
            "time": 25.832283390625,
            "velocity": 0.7401574803149606
          },
          {
            "duration": 0.011467479166668682,
            "durationTicks": 8,
            "midi": 42,
            "name": "F#2",
            "ticks": 18616,
            "time": 26.104636020833333,
            "velocity": 0.6692913385826772
          },
          {
            "duration": 0.011467479166668682,
            "durationTicks": 8,
            "midi": 42,
            "name": "F#2",
            "ticks": 18720,
            "time": 26.25371325,
            "velocity": 0.5511811023622047
          },
          {
            "duration": 0.011467479166668682,
            "durationTicks": 8,
            "midi": 42,
            "name": "F#2",
            "ticks": 18814,
            "time": 26.388456130208333,
            "velocity": 0.8188976377952756
          },
          {
            "duration": 0.011467479166668682,
            "durationTicks": 8,
            "midi": 38,
            "name": "D2",
            "ticks": 18816,
            "time": 26.391323,
            "velocity": 0.8740157480314961
          },
          {
            "duration": 0.011467479166668682,
            "durationTicks": 8,
            "midi": 42,
            "name": "F#2",
            "ticks": 19002,
            "time": 26.657941890625,
            "velocity": 0.7165354330708661
          },
          {
            "duration": 0.011467479166661576,
            "durationTicks": 8,
            "midi": 42,
            "name": "F#2",
            "ticks": 19196,
            "time": 26.93602826041667,
            "velocity": 0.7480314960629921
          },
          {
            "duration": 0.011467479166668682,
            "durationTicks": 8,
            "midi": 42,
            "name": "F#2",
            "ticks": 19390,
            "time": 27.214114630208332,
            "velocity": 0.7165354330708661
          },
          {
            "duration": 0.011467479166668682,
            "durationTicks": 8,
            "midi": 42,
            "name": "F#2",
            "ticks": 19576,
            "time": 27.480733520833333,
            "velocity": 0.7401574803149606
          },
          {
            "duration": 0.011467479166668682,
            "durationTicks": 8,
            "midi": 38,
            "name": "D2",
            "ticks": 19582,
            "time": 27.48933413020833,
            "velocity": 0.905511811023622
          },
          {
            "duration": 0.011467479166668682,
            "durationTicks": 8,
            "midi": 42,
            "name": "F#2",
            "ticks": 19776,
            "time": 27.7674205,
            "velocity": 0.7322834645669292
          },
          {
            "duration": 0.011467479166668682,
            "durationTicks": 8,
            "midi": 42,
            "name": "F#2",
            "ticks": 19966,
            "time": 28.03977313020833,
            "velocity": 0.7322834645669292
          },
          {
            "duration": 0.011467479166661576,
            "durationTicks": 8,
            "midi": 42,
            "name": "F#2",
            "ticks": 20156,
            "time": 28.31212576041667,
            "velocity": 0.6377952755905512
          },
          {
            "duration": 0.011467479166661576,
            "durationTicks": 8,
            "midi": 42,
            "name": "F#2",
            "ticks": 20252,
            "time": 28.44973551041667,
            "velocity": 0.6377952755905512
          },
          {
            "duration": 0.011467479166668682,
            "durationTicks": 8,
            "midi": 42,
            "name": "F#2",
            "ticks": 20344,
            "time": 28.58161152083333,
            "velocity": 0.6220472440944882
          },
          {
            "duration": 0.011467479166665129,
            "durationTicks": 8,
            "midi": 38,
            "name": "D2",
            "ticks": 20348,
            "time": 28.58734526041667,
            "velocity": 0.889763779527559
          },
          {
            "duration": 0.011467479166668682,
            "durationTicks": 8,
            "midi": 42,
            "name": "F#2",
            "ticks": 20542,
            "time": 28.86543163020833,
            "velocity": 0.7401574803149606
          },
          {
            "duration": 0.011467479166661576,
            "durationTicks": 8,
            "midi": 42,
            "name": "F#2",
            "ticks": 20732,
            "time": 29.13778426041667,
            "velocity": 0.7322834645669292
          },
          {
            "duration": 0.011467479166668682,
            "durationTicks": 8,
            "midi": 42,
            "name": "F#2",
            "ticks": 20928,
            "time": 29.4187375,
            "velocity": 0.7480314960629921
          },
          {
            "duration": 0.011467479166668682,
            "durationTicks": 8,
            "midi": 38,
            "name": "D2",
            "ticks": 21112,
            "time": 29.682489520833332,
            "velocity": 0.8740157480314961
          },
          {
            "duration": 0.011467479166668682,
            "durationTicks": 8,
            "midi": 42,
            "name": "F#2",
            "ticks": 21114,
            "time": 29.685356390625,
            "velocity": 0.7401574803149606
          },
          {
            "duration": 0.011467479166665129,
            "durationTicks": 8,
            "midi": 42,
            "name": "F#2",
            "ticks": 21306,
            "time": 29.960575890625,
            "velocity": 0.7322834645669292
          },
          {
            "duration": 0.011467479166668682,
            "durationTicks": 8,
            "midi": 42,
            "name": "F#2",
            "ticks": 21496,
            "time": 30.232928520833333,
            "velocity": 0.7401574803149606
          },
          {
            "duration": 0.011467479166661576,
            "durationTicks": 8,
            "midi": 42,
            "name": "F#2",
            "ticks": 21692,
            "time": 30.51388176041667,
            "velocity": 0.6692913385826772
          },
          {
            "duration": 0.011467479166668682,
            "durationTicks": 8,
            "midi": 42,
            "name": "F#2",
            "ticks": 21790,
            "time": 30.654358380208333,
            "velocity": 0.5511811023622047
          },
          {
            "duration": 0.011467479166668682,
            "durationTicks": 8,
            "midi": 42,
            "name": "F#2",
            "ticks": 21886,
            "time": 30.791968130208332,
            "velocity": 0.8188976377952756
          },
          {
            "duration": 0.011467479166668682,
            "durationTicks": 8,
            "midi": 38,
            "name": "D2",
            "ticks": 21888,
            "time": 30.794835,
            "velocity": 0.8740157480314961
          },
          {
            "duration": 0.011467479166665129,
            "durationTicks": 8,
            "midi": 42,
            "name": "F#2",
            "ticks": 22076,
            "time": 31.064320760416667,
            "velocity": 0.7165354330708661
          },
          {
            "duration": 0.011467479166665129,
            "durationTicks": 8,
            "midi": 42,
            "name": "F#2",
            "ticks": 22268,
            "time": 31.33954026041667,
            "velocity": 0.7480314960629921
          },
          {
            "duration": 0.011467479166665129,
            "durationTicks": 8,
            "midi": 42,
            "name": "F#2",
            "ticks": 22460,
            "time": 31.614759760416668,
            "velocity": 0.7165354330708661
          },
          {
            "duration": 0.011467479166668682,
            "durationTicks": 8,
            "midi": 38,
            "name": "D2",
            "ticks": 22648,
            "time": 31.884245520833332,
            "velocity": 0.8740157480314961
          },
          {
            "duration": 0.011467479166668682,
            "durationTicks": 8,
            "midi": 42,
            "name": "F#2",
            "ticks": 22656,
            "time": 31.895713,
            "velocity": 0.7401574803149606
          },
          {
            "duration": 0.011467479166661576,
            "durationTicks": 8,
            "midi": 42,
            "name": "F#2",
            "ticks": 22844,
            "time": 32.16519876041667,
            "velocity": 0.7322834645669292
          },
          {
            "duration": 0.011467479166668682,
            "durationTicks": 8,
            "midi": 42,
            "name": "F#2",
            "ticks": 23034,
            "time": 32.437551390625,
            "velocity": 0.7322834645669292
          },
          {
            "duration": 0.011467479166661576,
            "durationTicks": 8,
            "midi": 42,
            "name": "F#2",
            "ticks": 23228,
            "time": 32.71563776041667,
            "velocity": 0.6377952755905512
          },
          {
            "duration": 0.011467479166661576,
            "durationTicks": 8,
            "midi": 42,
            "name": "F#2",
            "ticks": 23320,
            "time": 32.84751377083334,
            "velocity": 0.6377952755905512
          },
          {
            "duration": 0.011467479166668682,
            "durationTicks": 8,
            "midi": 38,
            "name": "D2",
            "ticks": 23424,
            "time": 32.996591,
            "velocity": 0.889763779527559
          },
          {
            "duration": 0.011467479166668682,
            "durationTicks": 8,
            "midi": 42,
            "name": "F#2",
            "ticks": 23424,
            "time": 32.996591,
            "velocity": 0.6220472440944882
          },
          {
            "duration": 0.011467479166668682,
            "durationTicks": 8,
            "midi": 42,
            "name": "F#2",
            "ticks": 23610,
            "time": 33.263209890625,
            "velocity": 0.7401574803149606
          },
          {
            "duration": 0.011467479166668682,
            "durationTicks": 8,
            "midi": 42,
            "name": "F#2",
            "ticks": 23808,
            "time": 33.54703,
            "velocity": 0.7322834645669292
          },
          {
            "duration": 0.011467479166668682,
            "durationTicks": 8,
            "midi": 42,
            "name": "F#2",
            "ticks": 23994,
            "time": 33.813648890625004,
            "velocity": 0.7480314960629921
          },
          {
            "duration": 0.011467479166668682,
            "durationTicks": 8,
            "midi": 38,
            "name": "D2",
            "ticks": 24192,
            "time": 34.097469000000004,
            "velocity": 0.905511811023622
          },
          {
            "duration": 0.011467479166668682,
            "durationTicks": 8,
            "midi": 42,
            "name": "F#2",
            "ticks": 24192,
            "time": 34.097469000000004,
            "velocity": 0.7401574803149606
          },
          {
            "duration": 0.011467479166661576,
            "durationTicks": 8,
            "midi": 42,
            "name": "F#2",
            "ticks": 24380,
            "time": 34.366954760416675,
            "velocity": 0.7322834645669292
          },
          {
            "duration": 0.011467479166668682,
            "durationTicks": 8,
            "midi": 49,
            "name": "C#3",
            "ticks": 24574,
            "time": 34.645041130208334,
            "velocity": 0.6850393700787402
          },
          {
            "duration": 0.011467479166668682,
            "durationTicks": 8,
            "midi": 42,
            "name": "F#2",
            "ticks": 24760,
            "time": 34.91166002083334,
            "velocity": 0.6692913385826772
          },
          {
            "duration": 0.011467479166661576,
            "durationTicks": 8,
            "midi": 42,
            "name": "F#2",
            "ticks": 24860,
            "time": 35.055003510416675,
            "velocity": 0.5748031496062992
          },
          {
            "duration": 0.011467479166668682,
            "durationTicks": 8,
            "midi": 42,
            "name": "F#2",
            "ticks": 24956,
            "time": 35.19261326041667,
            "velocity": 0.7795275590551181
          },
          {
            "duration": 0.011467479166668682,
            "durationTicks": 8,
            "midi": 38,
            "name": "D2",
            "ticks": 24960,
            "time": 35.198347000000005,
            "velocity": 0.889763779527559
          },
          {
            "duration": 0.011467479166668682,
            "durationTicks": 8,
            "midi": 42,
            "name": "F#2",
            "ticks": 25148,
            "time": 35.46783276041667,
            "velocity": 0.6929133858267716
          },
          {
            "duration": 0.011467479166668682,
            "durationTicks": 8,
            "midi": 42,
            "name": "F#2",
            "ticks": 25336,
            "time": 35.737318520833334,
            "velocity": 0.7401574803149606
          },
          {
            "duration": 0.011467479166668682,
            "durationTicks": 8,
            "midi": 42,
            "name": "F#2",
            "ticks": 25534,
            "time": 36.021138630208334,
            "velocity": 0.7165354330708661
          },
          {
            "duration": 0.011467479166668682,
            "durationTicks": 8,
            "midi": 42,
            "name": "F#2",
            "ticks": 25720,
            "time": 36.28775752083334,
            "velocity": 0.7480314960629921
          },
          {
            "duration": 0.011467479166668682,
            "durationTicks": 8,
            "midi": 38,
            "name": "D2",
            "ticks": 25726,
            "time": 36.29635813020833,
            "velocity": 0.8740157480314961
          },
          {
            "duration": 0.011467479166668682,
            "durationTicks": 8,
            "midi": 42,
            "name": "F#2",
            "ticks": 25920,
            "time": 36.574444500000006,
            "velocity": 0.7637795275590551
          },
          {
            "duration": 0.011467479166668682,
            "durationTicks": 8,
            "midi": 42,
            "name": "F#2",
            "ticks": 26110,
            "time": 36.84679713020834,
            "velocity": 0.7165354330708661
          },
          {
            "duration": 0.011467479166661576,
            "durationTicks": 8,
            "midi": 42,
            "name": "F#2",
            "ticks": 26296,
            "time": 37.11341602083334,
            "velocity": 0.5748031496062992
          },
          {
            "duration": 0.011467479166661576,
            "durationTicks": 8,
            "midi": 42,
            "name": "F#2",
            "ticks": 26394,
            "time": 37.253892640625004,
            "velocity": 0.7637795275590551
          },
          {
            "duration": 0.011467479166661576,
            "durationTicks": 8,
            "midi": 42,
            "name": "F#2",
            "ticks": 26490,
            "time": 37.39150239062501,
            "velocity": 0.7952755905511811
          },
          {
            "duration": 0.011467479166675787,
            "durationTicks": 8,
            "midi": 38,
            "name": "D2",
            "ticks": 26492,
            "time": 37.39436926041667,
            "velocity": 0.8740157480314961
          },
          {
            "duration": 0.011467479166661576,
            "durationTicks": 8,
            "midi": 42,
            "name": "F#2",
            "ticks": 26686,
            "time": 37.67245563020834,
            "velocity": 0.7401574803149606
          },
          {
            "duration": 0.011467479166668682,
            "durationTicks": 8,
            "midi": 42,
            "name": "F#2",
            "ticks": 26872,
            "time": 37.93907452083334,
            "velocity": 0.7322834645669292
          },
          {
            "duration": 0.011467479166668682,
            "durationTicks": 8,
            "midi": 42,
            "name": "F#2",
            "ticks": 27068,
            "time": 38.22002776041667,
            "velocity": 0.7637795275590551
          },
          {
            "duration": 0.011467479166661576,
            "durationTicks": 8,
            "midi": 38,
            "name": "D2",
            "ticks": 27256,
            "time": 38.48951352083334,
            "velocity": 0.8740157480314961
          },
          {
            "duration": 0.011467479166668682,
            "durationTicks": 8,
            "midi": 42,
            "name": "F#2",
            "ticks": 27258,
            "time": 38.492380390625,
            "velocity": 0.7637795275590551
          },
          {
            "duration": 0.011467479166675787,
            "durationTicks": 8,
            "midi": 42,
            "name": "F#2",
            "ticks": 27452,
            "time": 38.77046676041667,
            "velocity": 0.7480314960629921
          },
          {
            "duration": 0.011467479166661576,
            "durationTicks": 8,
            "midi": 42,
            "name": "F#2",
            "ticks": 27648,
            "time": 39.05142000000001,
            "velocity": 0.7795275590551181
          },
          {
            "duration": 0.011467479166661576,
            "durationTicks": 8,
            "midi": 42,
            "name": "F#2",
            "ticks": 27840,
            "time": 39.326639500000006,
            "velocity": 0.7322834645669292
          },
          {
            "duration": 0.011467479166668682,
            "durationTicks": 8,
            "midi": 42,
            "name": "F#2",
            "ticks": 27936,
            "time": 39.46424925,
            "velocity": 0.6929133858267716
          },
          {
            "duration": 0.011467479166668682,
            "durationTicks": 8,
            "midi": 38,
            "name": "D2",
            "ticks": 28026,
            "time": 39.593258390625,
            "velocity": 0.889763779527559
          },
          {
            "duration": 0.011467479166668682,
            "durationTicks": 8,
            "midi": 42,
            "name": "F#2",
            "ticks": 28026,
            "time": 39.593258390625,
            "velocity": 0.7322834645669292
          },
          {
            "duration": 0.011467479166661576,
            "durationTicks": 8,
            "midi": 42,
            "name": "F#2",
            "ticks": 28222,
            "time": 39.87421163020834,
            "velocity": 0.7637795275590551
          },
          {
            "duration": 0.011467479166675787,
            "durationTicks": 8,
            "midi": 42,
            "name": "F#2",
            "ticks": 28412,
            "time": 40.14656426041667,
            "velocity": 0.7637795275590551
          },
          {
            "duration": 0.011467479166668682,
            "durationTicks": 8,
            "midi": 42,
            "name": "F#2",
            "ticks": 28600,
            "time": 40.41605002083334,
            "velocity": 0.7480314960629921
          },
          {
            "duration": 0.011467479166668682,
            "durationTicks": 8,
            "midi": 38,
            "name": "D2",
            "ticks": 28792,
            "time": 40.69126952083334,
            "velocity": 0.9291338582677166
          },
          {
            "duration": 0.011467479166661576,
            "durationTicks": 8,
            "midi": 42,
            "name": "F#2",
            "ticks": 28800,
            "time": 40.702737000000006,
            "velocity": 0.7637795275590551
          },
          {
            "duration": 0.011467479166661576,
            "durationTicks": 8,
            "midi": 42,
            "name": "F#2",
            "ticks": 28992,
            "time": 40.977956500000005,
            "velocity": 0.7637795275590551
          },
          {
            "duration": 0.011467479166661576,
            "durationTicks": 8,
            "midi": 42,
            "name": "F#2",
            "ticks": 29182,
            "time": 41.25030913020834,
            "velocity": 0.7480314960629921
          },
          {
            "duration": 0.011467479166675787,
            "durationTicks": 8,
            "midi": 42,
            "name": "F#2",
            "ticks": 30716,
            "time": 43.449198260416665,
            "velocity": 0.6929133858267716
          },
          {
            "duration": 0.011467479166661576,
            "durationTicks": 8,
            "midi": 35,
            "name": "B1",
            "ticks": 30720,
            "time": 43.45493200000001,
            "velocity": 0.889763779527559
          },
          {
            "duration": 0.011467479166668682,
            "durationTicks": 8,
            "midi": 42,
            "name": "F#2",
            "ticks": 30910,
            "time": 43.72728463020834,
            "velocity": 0.7322834645669292
          },
          {
            "duration": 0.011467479166661576,
            "durationTicks": 8,
            "midi": 42,
            "name": "F#2",
            "ticks": 31006,
            "time": 43.86489438020834,
            "velocity": 0.6062992125984252
          },
          {
            "duration": 0.011467479166668682,
            "durationTicks": 8,
            "midi": 38,
            "name": "D2",
            "ticks": 31098,
            "time": 43.996770390625,
            "velocity": 0.7952755905511811
          },
          {
            "duration": 0.011467479166661576,
            "durationTicks": 8,
            "midi": 42,
            "name": "F#2",
            "ticks": 31104,
            "time": 44.005371000000004,
            "velocity": 0.7637795275590551
          },
          {
            "duration": 0.011467479166668682,
            "durationTicks": 8,
            "midi": 42,
            "name": "F#2",
            "ticks": 31290,
            "time": 44.271989890625,
            "velocity": 0.7480314960629921
          },
          {
            "duration": 0.011467479166661576,
            "durationTicks": 8,
            "midi": 35,
            "name": "B1",
            "ticks": 31294,
            "time": 44.27772363020834,
            "velocity": 0.6614173228346457
          },
          {
            "duration": 0.011467479166661576,
            "durationTicks": 8,
            "midi": 35,
            "name": "B1",
            "ticks": 31482,
            "time": 44.54720939062501,
            "velocity": 0.8503937007874016
          },
          {
            "duration": 0.011467479166661576,
            "durationTicks": 8,
            "midi": 42,
            "name": "F#2",
            "ticks": 31486,
            "time": 44.55294313020834,
            "velocity": 0.7637795275590551
          },
          {
            "duration": 0.011467479166661576,
            "durationTicks": 8,
            "midi": 42,
            "name": "F#2",
            "ticks": 31674,
            "time": 44.822428890625005,
            "velocity": 0.7401574803149606
          },
          {
            "duration": 0.011467479166668682,
            "durationTicks": 8,
            "midi": 38,
            "name": "D2",
            "ticks": 31868,
            "time": 45.10051526041667,
            "velocity": 0.8661417322834646
          },
          {
            "duration": 0.011467479166661576,
            "durationTicks": 8,
            "midi": 42,
            "name": "F#2",
            "ticks": 31872,
            "time": 45.106249000000005,
            "velocity": 0.7480314960629921
          },
          {
            "duration": 0.011467479166668682,
            "durationTicks": 8,
            "midi": 42,
            "name": "F#2",
            "ticks": 32062,
            "time": 45.37860163020834,
            "velocity": 0.7401574803149606
          },
          {
            "duration": 0.011467479166668682,
            "durationTicks": 8,
            "midi": 35,
            "name": "B1",
            "ticks": 32252,
            "time": 45.65095426041667,
            "velocity": 0.8740157480314961
          },
          {
            "duration": 0.011467479166668682,
            "durationTicks": 8,
            "midi": 42,
            "name": "F#2",
            "ticks": 32252,
            "time": 45.65095426041667,
            "velocity": 0.7480314960629921
          },
          {
            "duration": 0.011467479166661576,
            "durationTicks": 8,
            "midi": 42,
            "name": "F#2",
            "ticks": 32442,
            "time": 45.92330689062501,
            "velocity": 0.6850393700787402
          },
          {
            "duration": 0.011467479166668682,
            "durationTicks": 8,
            "midi": 42,
            "name": "F#2",
            "ticks": 32542,
            "time": 46.06665038020834,
            "velocity": 0.7401574803149606
          },
          {
            "duration": 0.011467479166661576,
            "durationTicks": 8,
            "midi": 42,
            "name": "F#2",
            "ticks": 32634,
            "time": 46.198526390625005,
            "velocity": 0.6850393700787402
          },
          {
            "duration": 0.011467479166675787,
            "durationTicks": 8,
            "midi": 38,
            "name": "D2",
            "ticks": 32636,
            "time": 46.201393260416665,
            "velocity": 0.8346456692913385
          },
          {
            "duration": 0.011467479166668682,
            "durationTicks": 8,
            "midi": 42,
            "name": "F#2",
            "ticks": 32828,
            "time": 46.47661276041667,
            "velocity": 0.7322834645669292
          },
          {
            "duration": 0.011467479166661576,
            "durationTicks": 8,
            "midi": 35,
            "name": "B1",
            "ticks": 32832,
            "time": 46.482346500000006,
            "velocity": 0.6299212598425197
          },
          {
            "duration": 0.011467479166661576,
            "durationTicks": 8,
            "midi": 35,
            "name": "B1",
            "ticks": 33024,
            "time": 46.757566000000004,
            "velocity": 0.889763779527559
          },
          {
            "duration": 0.011467479166661576,
            "durationTicks": 8,
            "midi": 42,
            "name": "F#2",
            "ticks": 33024,
            "time": 46.757566000000004,
            "velocity": 0.6929133858267716
          },
          {
            "duration": 0.011467479166668682,
            "durationTicks": 8,
            "midi": 42,
            "name": "F#2",
            "ticks": 33210,
            "time": 47.024184890625,
            "velocity": 0.7480314960629921
          },
          {
            "duration": 0.011467479166661576,
            "durationTicks": 8,
            "midi": 42,
            "name": "F#2",
            "ticks": 33406,
            "time": 47.30513813020834,
            "velocity": 0.7322834645669292
          },
          {
            "duration": 0.011467479166668682,
            "durationTicks": 8,
            "midi": 38,
            "name": "D2",
            "ticks": 33408,
            "time": 47.308005,
            "velocity": 0.8346456692913385
          },
          {
            "duration": 0.011467479166668682,
            "durationTicks": 8,
            "midi": 42,
            "name": "F#2",
            "ticks": 33592,
            "time": 47.57175702083334,
            "velocity": 0.7322834645669292
          },
          {
            "duration": 0.011467479166668682,
            "durationTicks": 8,
            "midi": 42,
            "name": "F#2",
            "ticks": 33788,
            "time": 47.85271026041667,
            "velocity": 0.7401574803149606
          },
          {
            "duration": 0.011467479166661576,
            "durationTicks": 8,
            "midi": 35,
            "name": "B1",
            "ticks": 33792,
            "time": 47.858444000000006,
            "velocity": 0.905511811023622
          },
          {
            "duration": 0.011467479166661576,
            "durationTicks": 8,
            "midi": 42,
            "name": "F#2",
            "ticks": 33976,
            "time": 48.12219602083334,
            "velocity": 0.6929133858267716
          },
          {
            "duration": 0.011467479166661576,
            "durationTicks": 8,
            "midi": 42,
            "name": "F#2",
            "ticks": 34078,
            "time": 48.26840638020834,
            "velocity": 0.6456692913385826
          },
          {
            "duration": 0.011467479166661576,
            "durationTicks": 8,
            "midi": 38,
            "name": "D2",
            "ticks": 34168,
            "time": 48.39741552083334,
            "velocity": 0.8503937007874016
          },
          {
            "duration": 0.011467479166668682,
            "durationTicks": 8,
            "midi": 42,
            "name": "F#2",
            "ticks": 34170,
            "time": 48.400282390625,
            "velocity": 0.7795275590551181
          },
          {
            "duration": 0.011467479166661576,
            "durationTicks": 8,
            "midi": 35,
            "name": "B1",
            "ticks": 34366,
            "time": 48.68123563020834,
            "velocity": 0.6929133858267716
          },
          {
            "duration": 0.011467479166661576,
            "durationTicks": 8,
            "midi": 42,
            "name": "F#2",
            "ticks": 34366,
            "time": 48.68123563020834,
            "velocity": 0.6850393700787402
          },
          {
            "duration": 0.011467479166675787,
            "durationTicks": 8,
            "midi": 42,
            "name": "F#2",
            "ticks": 34556,
            "time": 48.953588260416666,
            "velocity": 0.7401574803149606
          },
          {
            "duration": 0.011467479166661576,
            "durationTicks": 8,
            "midi": 35,
            "name": "B1",
            "ticks": 34558,
            "time": 48.95645513020834,
            "velocity": 0.889763779527559
          },
          {
            "duration": 0.011467479166668682,
            "durationTicks": 8,
            "midi": 42,
            "name": "F#2",
            "ticks": 34744,
            "time": 49.22307402083334,
            "velocity": 0.6929133858267716
          },
          {
            "duration": 0.011467479166661576,
            "durationTicks": 8,
            "midi": 42,
            "name": "F#2",
            "ticks": 34936,
            "time": 49.49829352083334,
            "velocity": 0.7401574803149606
          },
          {
            "duration": 0.011467479166668682,
            "durationTicks": 8,
            "midi": 38,
            "name": "D2",
            "ticks": 34942,
            "time": 49.50689413020834,
            "velocity": 0.8503937007874016
          },
          {
            "duration": 0.011467479166668682,
            "durationTicks": 8,
            "midi": 42,
            "name": "F#2",
            "ticks": 35136,
            "time": 49.7849805,
            "velocity": 0.7401574803149606
          },
          {
            "duration": 0.011467479166675787,
            "durationTicks": 8,
            "midi": 35,
            "name": "B1",
            "ticks": 35324,
            "time": 50.05446626041667,
            "velocity": 0.889763779527559
          },
          {
            "duration": 0.011467479166661576,
            "durationTicks": 8,
            "midi": 42,
            "name": "F#2",
            "ticks": 35326,
            "time": 50.05733313020834,
            "velocity": 0.7480314960629921
          },
          {
            "duration": 0.011467479166668682,
            "durationTicks": 8,
            "midi": 42,
            "name": "F#2",
            "ticks": 35512,
            "time": 50.32395202083334,
            "velocity": 0.7322834645669292
          },
          {
            "duration": 0.011467479166661576,
            "durationTicks": 8,
            "midi": 42,
            "name": "F#2",
            "ticks": 35608,
            "time": 50.46156177083334,
            "velocity": 0.7165354330708661
          },
          {
            "duration": 0.011467479166668682,
            "durationTicks": 8,
            "midi": 42,
            "name": "F#2",
            "ticks": 35704,
            "time": 50.59917152083334,
            "velocity": 0.6692913385826772
          },
          {
            "duration": 0.011467479166661576,
            "durationTicks": 8,
            "midi": 38,
            "name": "D2",
            "ticks": 35712,
            "time": 50.610639000000006,
            "velocity": 0.8503937007874016
          },
          {
            "duration": 0.011467479166668682,
            "durationTicks": 8,
            "midi": 35,
            "name": "B1",
            "ticks": 35900,
            "time": 50.88012476041667,
            "velocity": 0.6850393700787402
          },
          {
            "duration": 0.011467479166661576,
            "durationTicks": 8,
            "midi": 42,
            "name": "F#2",
            "ticks": 35904,
            "time": 50.885858500000005,
            "velocity": 0.7401574803149606
          },
          {
            "duration": 0.011467479166661576,
            "durationTicks": 8,
            "midi": 42,
            "name": "F#2",
            "ticks": 36088,
            "time": 51.14961052083334,
            "velocity": 0.7322834645669292
          },
          {
            "duration": 0.011467479166661576,
            "durationTicks": 8,
            "midi": 35,
            "name": "B1",
            "ticks": 36094,
            "time": 51.15821113020834,
            "velocity": 0.8661417322834646
          },
          {
            "duration": 0.011467479166661576,
            "durationTicks": 8,
            "midi": 42,
            "name": "F#2",
            "ticks": 36280,
            "time": 51.42483002083334,
            "velocity": 0.7322834645669292
          },
          {
            "duration": 0.011467479166661576,
            "durationTicks": 8,
            "midi": 38,
            "name": "D2",
            "ticks": 36474,
            "time": 51.702916390625006,
            "velocity": 0.7952755905511811
          },
          {
            "duration": 0.011467479166661576,
            "durationTicks": 8,
            "midi": 42,
            "name": "F#2",
            "ticks": 36474,
            "time": 51.702916390625006,
            "velocity": 0.7480314960629921
          },
          {
            "duration": 0.011467479166661576,
            "durationTicks": 8,
            "midi": 42,
            "name": "F#2",
            "ticks": 36666,
            "time": 51.978135890625005,
            "velocity": 0.7322834645669292
          },
          {
            "duration": 0.011467479166668682,
            "durationTicks": 8,
            "midi": 42,
            "name": "F#2",
            "ticks": 36862,
            "time": 52.25908913020834,
            "velocity": 0.6929133858267716
          },
          {
            "duration": 0.011467479166661576,
            "durationTicks": 8,
            "midi": 35,
            "name": "B1",
            "ticks": 36864,
            "time": 52.261956000000005,
            "velocity": 0.8661417322834646
          },
          {
            "duration": 0.011467479166661576,
            "durationTicks": 8,
            "midi": 42,
            "name": "F#2",
            "ticks": 37056,
            "time": 52.537175500000004,
            "velocity": 0.6850393700787402
          },
          {
            "duration": 0.011467479166668682,
            "durationTicks": 8,
            "midi": 42,
            "name": "F#2",
            "ticks": 37150,
            "time": 52.67191838020834,
            "velocity": 0.6220472440944882
          },
          {
            "duration": 0.011467479166661576,
            "durationTicks": 8,
            "midi": 38,
            "name": "D2",
            "ticks": 37240,
            "time": 52.80092752083334,
            "velocity": 0.8188976377952756
          },
          {
            "duration": 0.011467479166675787,
            "durationTicks": 8,
            "midi": 42,
            "name": "F#2",
            "ticks": 37244,
            "time": 52.80666126041667,
            "velocity": 0.7480314960629921
          },
          {
            "duration": 0.011467479166661576,
            "durationTicks": 8,
            "midi": 35,
            "name": "B1",
            "ticks": 37438,
            "time": 53.08474763020834,
            "velocity": 0.6377952755905512
          },
          {
            "duration": 0.011467479166661576,
            "durationTicks": 8,
            "midi": 42,
            "name": "F#2",
            "ticks": 37438,
            "time": 53.08474763020834,
            "velocity": 0.7165354330708661
          },
          {
            "duration": 0.011467479166668682,
            "durationTicks": 8,
            "midi": 42,
            "name": "F#2",
            "ticks": 37624,
            "time": 53.35136652083334,
            "velocity": 0.7401574803149606
          },
          {
            "duration": 0.011467479166668682,
            "durationTicks": 8,
            "midi": 35,
            "name": "B1",
            "ticks": 37630,
            "time": 53.35996713020834,
            "velocity": 0.8503937007874016
          },
          {
            "duration": 0.011467479166668682,
            "durationTicks": 8,
            "midi": 42,
            "name": "F#2",
            "ticks": 37820,
            "time": 53.63231976041667,
            "velocity": 0.6929133858267716
          },
          {
            "duration": 0.011467479166661576,
            "durationTicks": 8,
            "midi": 42,
            "name": "F#2",
            "ticks": 38008,
            "time": 53.90180552083334,
            "velocity": 0.7165354330708661
          },
          {
            "duration": 0.011467479166661576,
            "durationTicks": 8,
            "midi": 38,
            "name": "D2",
            "ticks": 38016,
            "time": 53.913273000000004,
            "velocity": 0.8661417322834646
          },
          {
            "duration": 0.011467479166661576,
            "durationTicks": 8,
            "midi": 42,
            "name": "F#2",
            "ticks": 38206,
            "time": 54.18562563020834,
            "velocity": 0.7165354330708661
          },
          {
            "duration": 0.011467479166675787,
            "durationTicks": 8,
            "midi": 42,
            "name": "F#2",
            "ticks": 38396,
            "time": 54.45797826041667,
            "velocity": 0.7401574803149606
          },
          {
            "duration": 0.011467479166661576,
            "durationTicks": 8,
            "midi": 35,
            "name": "B1",
            "ticks": 38398,
            "time": 54.46084513020834,
            "velocity": 0.889763779527559
          },
          {
            "duration": 0.011467479166661576,
            "durationTicks": 8,
            "midi": 42,
            "name": "F#2",
            "ticks": 38590,
            "time": 54.73606463020834,
            "velocity": 0.6850393700787402
          },
          {
            "duration": 0.011467479166668682,
            "durationTicks": 8,
            "midi": 42,
            "name": "F#2",
            "ticks": 38688,
            "time": 54.87654125,
            "velocity": 0.6062992125984252
          },
          {
            "duration": 0.011467479166668682,
            "durationTicks": 8,
            "midi": 42,
            "name": "F#2",
            "ticks": 38780,
            "time": 55.00841726041667,
            "velocity": 0.7322834645669292
          },
          {
            "duration": 0.011467479166668682,
            "durationTicks": 8,
            "midi": 38,
            "name": "D2",
            "ticks": 38782,
            "time": 55.01128413020834,
            "velocity": 0.8188976377952756
          },
          {
            "duration": 0.011467479166668682,
            "durationTicks": 8,
            "midi": 35,
            "name": "B1",
            "ticks": 38970,
            "time": 55.280769890625,
            "velocity": 0.6929133858267716
          },
          {
            "duration": 0.011467479166661576,
            "durationTicks": 8,
            "midi": 42,
            "name": "F#2",
            "ticks": 38976,
            "time": 55.289370500000004,
            "velocity": 0.7480314960629921
          },
          {
            "duration": 0.011467479166661576,
            "durationTicks": 8,
            "midi": 42,
            "name": "F#2",
            "ticks": 39160,
            "time": 55.55312252083334,
            "velocity": 0.7165354330708661
          },
          {
            "duration": 0.011467479166668682,
            "durationTicks": 8,
            "midi": 35,
            "name": "B1",
            "ticks": 39162,
            "time": 55.555989390625,
            "velocity": 0.905511811023622
          },
          {
            "duration": 0.011467479166675787,
            "durationTicks": 8,
            "midi": 42,
            "name": "F#2",
            "ticks": 39356,
            "time": 55.83407576041667,
            "velocity": 0.7322834645669292
          },
          {
            "duration": 0.011467479166675787,
            "durationTicks": 8,
            "midi": 38,
            "name": "D2",
            "ticks": 39548,
            "time": 56.109295260416665,
            "velocity": 0.7952755905511811
          },
          {
            "duration": 0.011467479166661576,
            "durationTicks": 8,
            "midi": 42,
            "name": "F#2",
            "ticks": 39552,
            "time": 56.11502900000001,
            "velocity": 0.6929133858267716
          },
          {
            "duration": 0.011467479166661576,
            "durationTicks": 8,
            "midi": 42,
            "name": "F#2",
            "ticks": 39738,
            "time": 56.381647890625004,
            "velocity": 0.7322834645669292
          },
          {
            "duration": 0.011467479166668682,
            "durationTicks": 8,
            "midi": 35,
            "name": "B1",
            "ticks": 39930,
            "time": 56.656867390625,
            "velocity": 0.8661417322834646
          },
          {
            "duration": 0.011467479166661576,
            "durationTicks": 8,
            "midi": 42,
            "name": "F#2",
            "ticks": 39934,
            "time": 56.662601130208344,
            "velocity": 0.7480314960629921
          },
          {
            "duration": 0.011467479166661576,
            "durationTicks": 8,
            "midi": 42,
            "name": "F#2",
            "ticks": 40120,
            "time": 56.92922002083334,
            "velocity": 0.6929133858267716
          },
          {
            "duration": 0.011467479166661576,
            "durationTicks": 8,
            "midi": 42,
            "name": "F#2",
            "ticks": 40224,
            "time": 57.078297250000006,
            "velocity": 0.6850393700787402
          },
          {
            "duration": 0.011467479166661576,
            "durationTicks": 8,
            "midi": 42,
            "name": "F#2",
            "ticks": 40318,
            "time": 57.21304013020834,
            "velocity": 0.7952755905511811
          },
          {
            "duration": 0.011467479166668682,
            "durationTicks": 8,
            "midi": 38,
            "name": "D2",
            "ticks": 40320,
            "time": 57.215907,
            "velocity": 0.8346456692913385
          },
          {
            "duration": 0.011467479166661576,
            "durationTicks": 8,
            "midi": 35,
            "name": "B1",
            "ticks": 40506,
            "time": 57.482525890625006,
            "velocity": 0.6535433070866141
          },
          {
            "duration": 0.011467479166661576,
            "durationTicks": 8,
            "midi": 42,
            "name": "F#2",
            "ticks": 40512,
            "time": 57.49112650000001,
            "velocity": 0.6692913385826772
          },
          {
            "duration": 0.011467479166668682,
            "durationTicks": 8,
            "midi": 35,
            "name": "B1",
            "ticks": 40700,
            "time": 57.76061226041667,
            "velocity": 0.8740157480314961
          },
          {
            "duration": 0.011467479166668682,
            "durationTicks": 8,
            "midi": 42,
            "name": "F#2",
            "ticks": 40700,
            "time": 57.76061226041667,
            "velocity": 0.7322834645669292
          },
          {
            "duration": 0.011467479166668682,
            "durationTicks": 8,
            "midi": 42,
            "name": "F#2",
            "ticks": 40894,
            "time": 58.03869863020834,
            "velocity": 0.7401574803149606
          },
          {
            "duration": 0.011467479166661576,
            "durationTicks": 8,
            "midi": 42,
            "name": "F#2",
            "ticks": 41086,
            "time": 58.31391813020834,
            "velocity": 0.7401574803149606
          },
          {
            "duration": 0.011467479166668682,
            "durationTicks": 8,
            "midi": 38,
            "name": "D2",
            "ticks": 41088,
            "time": 58.316785,
            "velocity": 0.8188976377952756
          },
          {
            "duration": 0.011467479166661576,
            "durationTicks": 8,
            "midi": 42,
            "name": "F#2",
            "ticks": 41278,
            "time": 58.58913763020834,
            "velocity": 0.7322834645669292
          },
          {
            "duration": 0.011467479166675787,
            "durationTicks": 8,
            "midi": 35,
            "name": "B1",
            "ticks": 41468,
            "time": 58.861490260416666,
            "velocity": 0.8661417322834646
          },
          {
            "duration": 0.011467479166661576,
            "durationTicks": 8,
            "midi": 42,
            "name": "F#2",
            "ticks": 41470,
            "time": 58.86435713020834,
            "velocity": 0.7480314960629921
          },
          {
            "duration": 0.011467479166661576,
            "durationTicks": 8,
            "midi": 42,
            "name": "F#2",
            "ticks": 41658,
            "time": 59.133842890625004,
            "velocity": 0.7480314960629921
          },
          {
            "duration": 0.011467479166661576,
            "durationTicks": 8,
            "midi": 42,
            "name": "F#2",
            "ticks": 41754,
            "time": 59.27145264062501,
            "velocity": 0.6929133858267716
          },
          {
            "duration": 0.011467479166661576,
            "durationTicks": 8,
            "midi": 38,
            "name": "D2",
            "ticks": 41848,
            "time": 59.40619552083334,
            "velocity": 0.8110236220472441
          },
          {
            "duration": 0.011467479166668682,
            "durationTicks": 8,
            "midi": 42,
            "name": "F#2",
            "ticks": 41850,
            "time": 59.409062390625,
            "velocity": 0.6692913385826772
          },
          {
            "duration": 0.011467479166661576,
            "durationTicks": 8,
            "midi": 35,
            "name": "B1",
            "ticks": 42040,
            "time": 59.68141502083334,
            "velocity": 0.6377952755905512
          },
          {
            "duration": 0.011467479166661576,
            "durationTicks": 8,
            "midi": 42,
            "name": "F#2",
            "ticks": 42046,
            "time": 59.69001563020834,
            "velocity": 0.7637795275590551
          },
          {
            "duration": 0.011467479166675787,
            "durationTicks": 8,
            "midi": 35,
            "name": "B1",
            "ticks": 42236,
            "time": 59.96236826041667,
            "velocity": 0.8661417322834646
          },
          {
            "duration": 0.011467479166675787,
            "durationTicks": 8,
            "midi": 42,
            "name": "F#2",
            "ticks": 42236,
            "time": 59.96236826041667,
            "velocity": 0.6929133858267716
          },
          {
            "duration": 0.011467479166675787,
            "durationTicks": 8,
            "midi": 42,
            "name": "F#2",
            "ticks": 42428,
            "time": 60.237587760416666,
            "velocity": 0.7480314960629921
          },
          {
            "duration": 0.011467479166668682,
            "durationTicks": 8,
            "midi": 38,
            "name": "D2",
            "ticks": 42622,
            "time": 60.51567413020834,
            "velocity": 0.8661417322834646
          },
          {
            "duration": 0.011467479166661576,
            "durationTicks": 8,
            "midi": 42,
            "name": "F#2",
            "ticks": 42624,
            "time": 60.518541000000006,
            "velocity": 0.7401574803149606
          },
          {
            "duration": 0.011467479166668682,
            "durationTicks": 8,
            "midi": 42,
            "name": "F#2",
            "ticks": 42810,
            "time": 60.785159890625,
            "velocity": 0.7165354330708661
          },
          {
            "duration": 0.011467479166661576,
            "durationTicks": 8,
            "midi": 35,
            "name": "B1",
            "ticks": 43000,
            "time": 61.05751252083334,
            "velocity": 0.889763779527559
          },
          {
            "duration": 0.011467479166668682,
            "durationTicks": 8,
            "midi": 42,
            "name": "F#2",
            "ticks": 43002,
            "time": 61.060379390625,
            "velocity": 0.7401574803149606
          },
          {
            "duration": 0.011467479166661576,
            "durationTicks": 8,
            "midi": 42,
            "name": "F#2",
            "ticks": 43192,
            "time": 61.33273202083334,
            "velocity": 0.7480314960629921
          },
          {
            "duration": 0.011467479166668682,
            "durationTicks": 8,
            "midi": 42,
            "name": "F#2",
            "ticks": 43292,
            "time": 61.47607551041667,
            "velocity": 0.6456692913385826
          },
          {
            "duration": 0.011467479166668682,
            "durationTicks": 8,
            "midi": 38,
            "name": "D2",
            "ticks": 43384,
            "time": 61.60795152083334,
            "velocity": 0.8503937007874016
          },
          {
            "duration": 0.011467479166675787,
            "durationTicks": 8,
            "midi": 42,
            "name": "F#2",
            "ticks": 43388,
            "time": 61.613685260416666,
            "velocity": 0.7952755905511811
          },
          {
            "duration": 0.011467479166668682,
            "durationTicks": 8,
            "midi": 42,
            "name": "F#2",
            "ticks": 43576,
            "time": 61.88317102083334,
            "velocity": 0.7165354330708661
          },
          {
            "duration": 0.011467479166668682,
            "durationTicks": 8,
            "midi": 35,
            "name": "B1",
            "ticks": 43580,
            "time": 61.88890476041667,
            "velocity": 0.6456692913385826
          },
          {
            "duration": 0.011467479166661576,
            "durationTicks": 8,
            "midi": 42,
            "name": "F#2",
            "ticks": 43768,
            "time": 62.15839052083334,
            "velocity": 0.7637795275590551
          },
          {
            "duration": 0.011467479166661576,
            "durationTicks": 8,
            "midi": 35,
            "name": "B1",
            "ticks": 43776,
            "time": 62.169858000000005,
            "velocity": 0.8740157480314961
          },
          {
            "duration": 0.011467479166668682,
            "durationTicks": 8,
            "midi": 42,
            "name": "F#2",
            "ticks": 43962,
            "time": 62.436476890625,
            "velocity": 0.7401574803149606
          },
          {
            "duration": 0.011467479166675787,
            "durationTicks": 8,
            "midi": 38,
            "name": "D2",
            "ticks": 44156,
            "time": 62.71456326041667,
            "velocity": 0.8110236220472441
          },
          {
            "duration": 0.011467479166675787,
            "durationTicks": 8,
            "midi": 42,
            "name": "F#2",
            "ticks": 44156,
            "time": 62.71456326041667,
            "velocity": 0.7637795275590551
          },
          {
            "duration": 0.011467479166661576,
            "durationTicks": 8,
            "midi": 42,
            "name": "F#2",
            "ticks": 44350,
            "time": 62.99264963020834,
            "velocity": 0.7165354330708661
          },
          {
            "duration": 0.011467479166661576,
            "durationTicks": 8,
            "midi": 35,
            "name": "B1",
            "ticks": 44538,
            "time": 63.262135390625005,
            "velocity": 0.8661417322834646
          },
          {
            "duration": 0.011467479166668682,
            "durationTicks": 8,
            "midi": 42,
            "name": "F#2",
            "ticks": 44542,
            "time": 63.26786913020834,
            "velocity": 0.7637795275590551
          },
          {
            "duration": 0.011467479166668682,
            "durationTicks": 8,
            "midi": 42,
            "name": "F#2",
            "ticks": 44732,
            "time": 63.54022176041667,
            "velocity": 0.6850393700787402
          },
          {
            "duration": 0.011467479166668682,
            "durationTicks": 8,
            "midi": 42,
            "name": "F#2",
            "ticks": 44824,
            "time": 63.67209777083334,
            "velocity": 0.7165354330708661
          },
          {
            "duration": 0.011467479166661576,
            "durationTicks": 8,
            "midi": 38,
            "name": "D2",
            "ticks": 44926,
            "time": 63.818308130208344,
            "velocity": 0.8661417322834646
          },
          {
            "duration": 0.011467479166661576,
            "durationTicks": 8,
            "midi": 42,
            "name": "F#2",
            "ticks": 44926,
            "time": 63.818308130208344,
            "velocity": 0.7322834645669292
          },
          {
            "duration": 0.01146747916665447,
            "durationTicks": 8,
            "midi": 42,
            "name": "F#2",
            "ticks": 45114,
            "time": 64.08779389062501,
            "velocity": 0.7795275590551181
          },
          {
            "duration": 0.011467479166668682,
            "durationTicks": 8,
            "midi": 35,
            "name": "B1",
            "ticks": 45120,
            "time": 64.0963945,
            "velocity": 0.6692913385826772
          },
          {
            "duration": 0.011467479166668682,
            "durationTicks": 8,
            "midi": 42,
            "name": "F#2",
            "ticks": 45306,
            "time": 64.363013390625,
            "velocity": 0.7165354330708661
          },
          {
            "duration": 0.011467479166668682,
            "durationTicks": 8,
            "midi": 35,
            "name": "B1",
            "ticks": 45310,
            "time": 64.36874713020833,
            "velocity": 0.889763779527559
          },
          {
            "duration": 0.011467479166668682,
            "durationTicks": 8,
            "midi": 42,
            "name": "F#2",
            "ticks": 45504,
            "time": 64.6468335,
            "velocity": 0.7401574803149606
          },
          {
            "duration": 0.011467479166668682,
            "durationTicks": 8,
            "midi": 38,
            "name": "D2",
            "ticks": 45692,
            "time": 64.91631926041667,
            "velocity": 0.8503937007874016
          },
          {
            "duration": 0.011467479166668682,
            "durationTicks": 8,
            "midi": 42,
            "name": "F#2",
            "ticks": 45694,
            "time": 64.91918613020833,
            "velocity": 0.6850393700787402
          },
          {
            "duration": 0.011467479166668682,
            "durationTicks": 8,
            "midi": 42,
            "name": "F#2",
            "ticks": 45886,
            "time": 65.19440563020834,
            "velocity": 0.7480314960629921
          },
          {
            "duration": 0.011467479166668682,
            "durationTicks": 8,
            "midi": 35,
            "name": "B1",
            "ticks": 46076,
            "time": 65.46675826041667,
            "velocity": 0.8740157480314961
          },
          {
            "duration": 0.01146747916665447,
            "durationTicks": 8,
            "midi": 42,
            "name": "F#2",
            "ticks": 46078,
            "time": 65.46962513020834,
            "velocity": 0.7165354330708661
          },
          {
            "duration": 0.011467479166668682,
            "durationTicks": 8,
            "midi": 42,
            "name": "F#2",
            "ticks": 46268,
            "time": 65.74197776041666,
            "velocity": 0.7480314960629921
          },
          {
            "duration": 0.01146747916665447,
            "durationTicks": 8,
            "midi": 42,
            "name": "F#2",
            "ticks": 46368,
            "time": 65.88532125,
            "velocity": 0.7322834645669292
          },
          {
            "duration": 0.011467479166668682,
            "durationTicks": 8,
            "midi": 42,
            "name": "F#2",
            "ticks": 46458,
            "time": 66.01433039062499,
            "velocity": 0.7637795275590551
          },
          {
            "duration": 0.011467479166668682,
            "durationTicks": 8,
            "midi": 38,
            "name": "D2",
            "ticks": 46464,
            "time": 66.022931,
            "velocity": 0.8503937007874016
          },
          {
            "duration": 0.011467479166668682,
            "durationTicks": 8,
            "midi": 35,
            "name": "B1",
            "ticks": 46654,
            "time": 66.29528363020833,
            "velocity": 0.6929133858267716
          },
          {
            "duration": 0.011467479166668682,
            "durationTicks": 8,
            "midi": 42,
            "name": "F#2",
            "ticks": 46656,
            "time": 66.29815049999999,
            "velocity": 0.6929133858267716
          },
          {
            "duration": 0.011467479166668682,
            "durationTicks": 8,
            "midi": 35,
            "name": "B1",
            "ticks": 46840,
            "time": 66.56190252083333,
            "velocity": 0.905511811023622
          },
          {
            "duration": 0.01146747916665447,
            "durationTicks": 8,
            "midi": 42,
            "name": "F#2",
            "ticks": 46846,
            "time": 66.57050313020834,
            "velocity": 0.7480314960629921
          },
          {
            "duration": 0.011467479166668682,
            "durationTicks": 8,
            "midi": 42,
            "name": "F#2",
            "ticks": 47038,
            "time": 66.84572263020833,
            "velocity": 0.6929133858267716
          },
          {
            "duration": 0.011467479166668682,
            "durationTicks": 8,
            "midi": 38,
            "name": "D2",
            "ticks": 47226,
            "time": 67.115208390625,
            "velocity": 0.8346456692913385
          },
          {
            "duration": 0.011467479166668682,
            "durationTicks": 8,
            "midi": 42,
            "name": "F#2",
            "ticks": 47228,
            "time": 67.11807526041666,
            "velocity": 0.7480314960629921
          },
          {
            "duration": 0.01146747916665447,
            "durationTicks": 8,
            "midi": 42,
            "name": "F#2",
            "ticks": 47422,
            "time": 67.39616163020834,
            "velocity": 0.7165354330708661
          },
          {
            "duration": 0.011467479166682892,
            "durationTicks": 8,
            "midi": 42,
            "name": "F#2",
            "ticks": 47612,
            "time": 67.66851426041666,
            "velocity": 0.7480314960629921
          },
          {
            "duration": 0.011467479166668682,
            "durationTicks": 8,
            "midi": 35,
            "name": "B1",
            "ticks": 47616,
            "time": 67.67424799999999,
            "velocity": 0.889763779527559
          },
          {
            "duration": 0.011467479166668682,
            "durationTicks": 8,
            "midi": 42,
            "name": "F#2",
            "ticks": 47800,
            "time": 67.93800002083333,
            "velocity": 0.6692913385826772
          },
          {
            "duration": 0.011467479166668682,
            "durationTicks": 8,
            "midi": 42,
            "name": "F#2",
            "ticks": 47904,
            "time": 68.08707725,
            "velocity": 0.6692913385826772
          },
          {
            "duration": 0.011467479166668682,
            "durationTicks": 8,
            "midi": 42,
            "name": "F#2",
            "ticks": 47998,
            "time": 68.22182013020833,
            "velocity": 0.6692913385826772
          },
          {
            "duration": 0.01146747916665447,
            "durationTicks": 8,
            "midi": 38,
            "name": "D2",
            "ticks": 48000,
            "time": 68.224687,
            "velocity": 0.8661417322834646
          },
          {
            "duration": 0.01146747916665447,
            "durationTicks": 8,
            "midi": 35,
            "name": "B1",
            "ticks": 48184,
            "time": 68.48843902083334,
            "velocity": 0.6771653543307087
          },
          {
            "duration": 0.01146747916665447,
            "durationTicks": 8,
            "midi": 42,
            "name": "F#2",
            "ticks": 48184,
            "time": 68.48843902083334,
            "velocity": 0.7480314960629921
          },
          {
            "duration": 0.011467479166668682,
            "durationTicks": 8,
            "midi": 42,
            "name": "F#2",
            "ticks": 48376,
            "time": 68.76365852083333,
            "velocity": 0.6850393700787402
          },
          {
            "duration": 0.011467479166668682,
            "durationTicks": 8,
            "midi": 35,
            "name": "B1",
            "ticks": 48378,
            "time": 68.76652539062499,
            "velocity": 0.8740157480314961
          },
          {
            "duration": 0.011467479166668682,
            "durationTicks": 8,
            "midi": 42,
            "name": "F#2",
            "ticks": 48574,
            "time": 69.04747863020833,
            "velocity": 0.7480314960629921
          },
          {
            "duration": 0.011467479166668682,
            "durationTicks": 8,
            "midi": 38,
            "name": "D2",
            "ticks": 48764,
            "time": 69.31983126041666,
            "velocity": 0.8740157480314961
          },
          {
            "duration": 0.011467479166668682,
            "durationTicks": 8,
            "midi": 42,
            "name": "F#2",
            "ticks": 48768,
            "time": 69.325565,
            "velocity": 0.6929133858267716
          },
          {
            "duration": 0.011467479166668682,
            "durationTicks": 8,
            "midi": 42,
            "name": "F#2",
            "ticks": 48952,
            "time": 69.58931702083333,
            "velocity": 0.7401574803149606
          },
          {
            "duration": 0.011467479166668682,
            "durationTicks": 8,
            "midi": 35,
            "name": "B1",
            "ticks": 49148,
            "time": 69.87027026041666,
            "velocity": 0.8740157480314961
          },
          {
            "duration": 0.011467479166668682,
            "durationTicks": 8,
            "midi": 42,
            "name": "F#2",
            "ticks": 49150,
            "time": 69.87313713020833,
            "velocity": 0.7165354330708661
          },
          {
            "duration": 0.01146747916665447,
            "durationTicks": 8,
            "midi": 42,
            "name": "F#2",
            "ticks": 49342,
            "time": 70.14835663020834,
            "velocity": 0.7401574803149606
          },
          {
            "duration": 0.011467479166668682,
            "durationTicks": 8,
            "midi": 42,
            "name": "F#2",
            "ticks": 49440,
            "time": 70.28883325,
            "velocity": 0.5433070866141733
          },
          {
            "duration": 0.011467479166668682,
            "durationTicks": 8,
            "midi": 38,
            "name": "D2",
            "ticks": 49534,
            "time": 70.42357613020833,
            "velocity": 0.8503937007874016
          },
          {
            "duration": 0.011467479166668682,
            "durationTicks": 8,
            "midi": 42,
            "name": "F#2",
            "ticks": 49534,
            "time": 70.42357613020833,
            "velocity": 0.7401574803149606
          },
          {
            "duration": 0.01146747916665447,
            "durationTicks": 8,
            "midi": 42,
            "name": "F#2",
            "ticks": 49722,
            "time": 70.693061890625,
            "velocity": 0.7401574803149606
          },
          {
            "duration": 0.01146747916665447,
            "durationTicks": 8,
            "midi": 35,
            "name": "B1",
            "ticks": 49726,
            "time": 70.69879563020834,
            "velocity": 0.6614173228346457
          },
          {
            "duration": 0.011467479166668682,
            "durationTicks": 8,
            "midi": 35,
            "name": "B1",
            "ticks": 49918,
            "time": 70.97401513020833,
            "velocity": 0.8740157480314961
          },
          {
            "duration": 0.011467479166668682,
            "durationTicks": 8,
            "midi": 42,
            "name": "F#2",
            "ticks": 49918,
            "time": 70.97401513020833,
            "velocity": 0.7480314960629921
          },
          {
            "duration": 0.011467479166668682,
            "durationTicks": 8,
            "midi": 42,
            "name": "F#2",
            "ticks": 50112,
            "time": 71.2521015,
            "velocity": 0.7401574803149606
          },
          {
            "duration": 0.011467479166668682,
            "durationTicks": 8,
            "midi": 42,
            "name": "F#2",
            "ticks": 50296,
            "time": 71.51585352083333,
            "velocity": 0.7480314960629921
          },
          {
            "duration": 0.01146747916665447,
            "durationTicks": 8,
            "midi": 38,
            "name": "D2",
            "ticks": 50304,
            "time": 71.527321,
            "velocity": 0.8346456692913385
          },
          {
            "duration": 0.01146747916665447,
            "durationTicks": 8,
            "midi": 42,
            "name": "F#2",
            "ticks": 50488,
            "time": 71.79107302083334,
            "velocity": 0.7480314960629921
          },
          {
            "duration": 0.011467479166668682,
            "durationTicks": 8,
            "midi": 42,
            "name": "F#2",
            "ticks": 50680,
            "time": 72.06629252083333,
            "velocity": 0.8503937007874016
          },
          {
            "duration": 0.011467479166668682,
            "durationTicks": 8,
            "midi": 35,
            "name": "B1",
            "ticks": 50688,
            "time": 72.07776,
            "velocity": 0.905511811023622
          },
          {
            "duration": 0.01146747916665447,
            "durationTicks": 8,
            "midi": 35,
            "name": "B1",
            "ticks": 52220,
            "time": 74.27378226041667,
            "velocity": 0.889763779527559
          },
          {
            "duration": 0.011467479166668682,
            "durationTicks": 8,
            "midi": 42,
            "name": "F#2",
            "ticks": 52222,
            "time": 74.27664913020833,
            "velocity": 0.6929133858267716
          },
          {
            "duration": 0.01146747916665447,
            "durationTicks": 8,
            "midi": 42,
            "name": "F#2",
            "ticks": 52412,
            "time": 74.54900176041667,
            "velocity": 0.7322834645669292
          },
          {
            "duration": 0.011467479166668682,
            "durationTicks": 8,
            "midi": 42,
            "name": "F#2",
            "ticks": 52512,
            "time": 74.69234525,
            "velocity": 0.6062992125984252
          },
          {
            "duration": 0.011467479166668682,
            "durationTicks": 8,
            "midi": 42,
            "name": "F#2",
            "ticks": 52600,
            "time": 74.81848752083333,
            "velocity": 0.7637795275590551
          },
          {
            "duration": 0.011467479166668682,
            "durationTicks": 8,
            "midi": 38,
            "name": "D2",
            "ticks": 52606,
            "time": 74.82708813020832,
            "velocity": 0.7952755905511811
          },
          {
            "duration": 0.01146747916665447,
            "durationTicks": 8,
            "midi": 35,
            "name": "B1",
            "ticks": 52796,
            "time": 75.09944076041667,
            "velocity": 0.6614173228346457
          },
          {
            "duration": 0.01146747916665447,
            "durationTicks": 8,
            "midi": 42,
            "name": "F#2",
            "ticks": 52796,
            "time": 75.09944076041667,
            "velocity": 0.7480314960629921
          },
          {
            "duration": 0.011467479166682892,
            "durationTicks": 8,
            "midi": 35,
            "name": "B1",
            "ticks": 52990,
            "time": 75.37752713020832,
            "velocity": 0.8503937007874016
          },
          {
            "duration": 0.011467479166668682,
            "durationTicks": 8,
            "midi": 42,
            "name": "F#2",
            "ticks": 52992,
            "time": 75.380394,
            "velocity": 0.7637795275590551
          },
          {
            "duration": 0.01146747916665447,
            "durationTicks": 8,
            "midi": 42,
            "name": "F#2",
            "ticks": 53180,
            "time": 75.64987976041667,
            "velocity": 0.7401574803149606
          },
          {
            "duration": 0.01146747916665447,
            "durationTicks": 8,
            "midi": 38,
            "name": "D2",
            "ticks": 53372,
            "time": 75.92509926041667,
            "velocity": 0.8661417322834646
          },
          {
            "duration": 0.01146747916665447,
            "durationTicks": 8,
            "midi": 42,
            "name": "F#2",
            "ticks": 53372,
            "time": 75.92509926041667,
            "velocity": 0.7480314960629921
          },
          {
            "duration": 0.011467479166668682,
            "durationTicks": 8,
            "midi": 42,
            "name": "F#2",
            "ticks": 53568,
            "time": 76.2060525,
            "velocity": 0.7401574803149606
          },
          {
            "duration": 0.011467479166682892,
            "durationTicks": 8,
            "midi": 42,
            "name": "F#2",
            "ticks": 53752,
            "time": 76.46980452083332,
            "velocity": 0.7480314960629921
          },
          {
            "duration": 0.01146747916665447,
            "durationTicks": 8,
            "midi": 35,
            "name": "B1",
            "ticks": 53756,
            "time": 76.47553826041667,
            "velocity": 0.8740157480314961
          },
          {
            "duration": 0.011467479166668682,
            "durationTicks": 8,
            "midi": 42,
            "name": "F#2",
            "ticks": 53952,
            "time": 76.7564915,
            "velocity": 0.6850393700787402
          },
          {
            "duration": 0.011467479166682892,
            "durationTicks": 8,
            "midi": 42,
            "name": "F#2",
            "ticks": 54048,
            "time": 76.89410124999999,
            "velocity": 0.7401574803149606
          },
          {
            "duration": 0.01146747916665447,
            "durationTicks": 8,
            "midi": 42,
            "name": "F#2",
            "ticks": 54140,
            "time": 77.02597726041667,
            "velocity": 0.6850393700787402
          },
          {
            "duration": 0.011467479166668682,
            "durationTicks": 8,
            "midi": 38,
            "name": "D2",
            "ticks": 54142,
            "time": 77.02884413020833,
            "velocity": 0.8346456692913385
          },
          {
            "duration": 0.011467479166668682,
            "durationTicks": 8,
            "midi": 35,
            "name": "B1",
            "ticks": 54334,
            "time": 77.30406363020833,
            "velocity": 0.6299212598425197
          },
          {
            "duration": 0.011467479166668682,
            "durationTicks": 8,
            "midi": 42,
            "name": "F#2",
            "ticks": 54334,
            "time": 77.30406363020833,
            "velocity": 0.7322834645669292
          },
          {
            "duration": 0.011467479166668682,
            "durationTicks": 8,
            "midi": 42,
            "name": "F#2",
            "ticks": 54520,
            "time": 77.57068252083333,
            "velocity": 0.6929133858267716
          },
          {
            "duration": 0.011467479166668682,
            "durationTicks": 8,
            "midi": 35,
            "name": "B1",
            "ticks": 54526,
            "time": 77.57928313020832,
            "velocity": 0.889763779527559
          },
          {
            "duration": 0.011467479166682892,
            "durationTicks": 8,
            "midi": 42,
            "name": "F#2",
            "ticks": 54712,
            "time": 77.84590202083332,
            "velocity": 0.7480314960629921
          },
          {
            "duration": 0.011467479166668682,
            "durationTicks": 8,
            "midi": 38,
            "name": "D2",
            "ticks": 54904,
            "time": 78.12112152083333,
            "velocity": 0.8346456692913385
          },
          {
            "duration": 0.011467479166682892,
            "durationTicks": 8,
            "midi": 42,
            "name": "F#2",
            "ticks": 54910,
            "time": 78.12972213020832,
            "velocity": 0.7322834645669292
          },
          {
            "duration": 0.011467479166682892,
            "durationTicks": 8,
            "midi": 42,
            "name": "F#2",
            "ticks": 55098,
            "time": 78.399207890625,
            "velocity": 0.7322834645669292
          },
          {
            "duration": 0.01146747916665447,
            "durationTicks": 8,
            "midi": 42,
            "name": "F#2",
            "ticks": 55292,
            "time": 78.67729426041667,
            "velocity": 0.7401574803149606
          },
          {
            "duration": 0.011467479166668682,
            "durationTicks": 8,
            "midi": 35,
            "name": "B1",
            "ticks": 55294,
            "time": 78.68016113020833,
            "velocity": 0.905511811023622
          },
          {
            "duration": 0.011467479166668682,
            "durationTicks": 8,
            "midi": 42,
            "name": "F#2",
            "ticks": 55484,
            "time": 78.95251376041666,
            "velocity": 0.6929133858267716
          },
          {
            "duration": 0.011467479166682892,
            "durationTicks": 8,
            "midi": 42,
            "name": "F#2",
            "ticks": 55582,
            "time": 79.09299038020832,
            "velocity": 0.6456692913385826
          },
          {
            "duration": 0.01146747916665447,
            "durationTicks": 8,
            "midi": 38,
            "name": "D2",
            "ticks": 55676,
            "time": 79.22773326041667,
            "velocity": 0.8503937007874016
          },
          {
            "duration": 0.01146747916665447,
            "durationTicks": 8,
            "midi": 42,
            "name": "F#2",
            "ticks": 55676,
            "time": 79.22773326041667,
            "velocity": 0.7795275590551181
          },
          {
            "duration": 0.011467479166682892,
            "durationTicks": 8,
            "midi": 42,
            "name": "F#2",
            "ticks": 55870,
            "time": 79.50581963020832,
            "velocity": 0.6850393700787402
          },
          {
            "duration": 0.011467479166668682,
            "durationTicks": 8,
            "midi": 35,
            "name": "B1",
            "ticks": 55872,
            "time": 79.5086865,
            "velocity": 0.6929133858267716
          },
          {
            "duration": 0.011467479166682892,
            "durationTicks": 8,
            "midi": 35,
            "name": "B1",
            "ticks": 56058,
            "time": 79.775305390625,
            "velocity": 0.889763779527559
          },
          {
            "duration": 0.011467479166682892,
            "durationTicks": 8,
            "midi": 42,
            "name": "F#2",
            "ticks": 56058,
            "time": 79.775305390625,
            "velocity": 0.7401574803149606
          },
          {
            "duration": 0.01146747916665447,
            "durationTicks": 8,
            "midi": 42,
            "name": "F#2",
            "ticks": 56252,
            "time": 80.05339176041667,
            "velocity": 0.6929133858267716
          },
          {
            "duration": 0.011467479166668682,
            "durationTicks": 8,
            "midi": 38,
            "name": "D2",
            "ticks": 56440,
            "time": 80.32287752083333,
            "velocity": 0.8503937007874016
          },
          {
            "duration": 0.01146747916665447,
            "durationTicks": 8,
            "midi": 42,
            "name": "F#2",
            "ticks": 56444,
            "time": 80.32861126041666,
            "velocity": 0.7401574803149606
          },
          {
            "duration": 0.011467479166668682,
            "durationTicks": 8,
            "midi": 42,
            "name": "F#2",
            "ticks": 56634,
            "time": 80.600963890625,
            "velocity": 0.7401574803149606
          },
          {
            "duration": 0.01146747916665447,
            "durationTicks": 8,
            "midi": 42,
            "name": "F#2",
            "ticks": 56828,
            "time": 80.87905026041668,
            "velocity": 0.7480314960629921
          },
          {
            "duration": 0.011467479166682892,
            "durationTicks": 8,
            "midi": 35,
            "name": "B1",
            "ticks": 56830,
            "time": 80.88191713020832,
            "velocity": 0.889763779527559
          },
          {
            "duration": 0.01146747916665447,
            "durationTicks": 8,
            "midi": 42,
            "name": "F#2",
            "ticks": 57020,
            "time": 81.15426976041667,
            "velocity": 0.7322834645669292
          },
          {
            "duration": 0.011467479166668682,
            "durationTicks": 8,
            "midi": 42,
            "name": "F#2",
            "ticks": 57118,
            "time": 81.29474638020832,
            "velocity": 0.7165354330708661
          },
          {
            "duration": 0.011467479166668682,
            "durationTicks": 8,
            "midi": 38,
            "name": "D2",
            "ticks": 57208,
            "time": 81.42375552083332,
            "velocity": 0.8503937007874016
          },
          {
            "duration": 0.011467479166682892,
            "durationTicks": 8,
            "midi": 42,
            "name": "F#2",
            "ticks": 57216,
            "time": 81.435223,
            "velocity": 0.6692913385826772
          },
          {
            "duration": 0.01146747916665447,
            "durationTicks": 8,
            "midi": 42,
            "name": "F#2",
            "ticks": 57404,
            "time": 81.70470876041666,
            "velocity": 0.7401574803149606
          },
          {
            "duration": 0.011467479166668682,
            "durationTicks": 8,
            "midi": 35,
            "name": "B1",
            "ticks": 57408,
            "time": 81.7104425,
            "velocity": 0.6850393700787402
          },
          {
            "duration": 0.011467479166668682,
            "durationTicks": 8,
            "midi": 42,
            "name": "F#2",
            "ticks": 57598,
            "time": 81.98279513020833,
            "velocity": 0.7322834645669292
          },
          {
            "duration": 0.011467479166668682,
            "durationTicks": 8,
            "midi": 35,
            "name": "B1",
            "ticks": 57600,
            "time": 81.985662,
            "velocity": 0.8661417322834646
          },
          {
            "duration": 0.011467479166682892,
            "durationTicks": 8,
            "midi": 42,
            "name": "F#2",
            "ticks": 57790,
            "time": 82.25801463020832,
            "velocity": 0.7322834645669292
          },
          {
            "duration": 0.011467479166682892,
            "durationTicks": 8,
            "midi": 42,
            "name": "F#2",
            "ticks": 57978,
            "time": 82.527500390625,
            "velocity": 0.7480314960629921
          },
          {
            "duration": 0.01146747916665447,
            "durationTicks": 8,
            "midi": 38,
            "name": "D2",
            "ticks": 57980,
            "time": 82.53036726041667,
            "velocity": 0.7952755905511811
          },
          {
            "duration": 0.01146747916665447,
            "durationTicks": 8,
            "midi": 42,
            "name": "F#2",
            "ticks": 58172,
            "time": 82.80558676041667,
            "velocity": 0.7322834645669292
          },
          {
            "duration": 0.011467479166668682,
            "durationTicks": 8,
            "midi": 42,
            "name": "F#2",
            "ticks": 58366,
            "time": 83.08367313020833,
            "velocity": 0.6929133858267716
          },
          {
            "duration": 0.011467479166668682,
            "durationTicks": 8,
            "midi": 35,
            "name": "B1",
            "ticks": 58368,
            "time": 83.08654,
            "velocity": 0.8661417322834646
          },
          {
            "duration": 0.011467479166668682,
            "durationTicks": 8,
            "midi": 42,
            "name": "F#2",
            "ticks": 58558,
            "time": 83.35889263020833,
            "velocity": 0.6850393700787402
          },
          {
            "duration": 0.011467479166682892,
            "durationTicks": 8,
            "midi": 42,
            "name": "F#2",
            "ticks": 58650,
            "time": 83.49076864062499,
            "velocity": 0.6220472440944882
          },
          {
            "duration": 0.011467479166668682,
            "durationTicks": 8,
            "midi": 42,
            "name": "F#2",
            "ticks": 58746,
            "time": 83.628378390625,
            "velocity": 0.7480314960629921
          },
          {
            "duration": 0.011467479166668682,
            "durationTicks": 8,
            "midi": 38,
            "name": "D2",
            "ticks": 58750,
            "time": 83.63411213020832,
            "velocity": 0.8188976377952756
          },
          {
            "duration": 0.011467479166682892,
            "durationTicks": 8,
            "midi": 35,
            "name": "B1",
            "ticks": 58938,
            "time": 83.903597890625,
            "velocity": 0.6377952755905512
          },
          {
            "duration": 0.011467479166668682,
            "durationTicks": 8,
            "midi": 42,
            "name": "F#2",
            "ticks": 58944,
            "time": 83.9121985,
            "velocity": 0.7165354330708661
          },
          {
            "duration": 0.011467479166668682,
            "durationTicks": 8,
            "midi": 35,
            "name": "B1",
            "ticks": 59130,
            "time": 84.178817390625,
            "velocity": 0.8503937007874016
          },
          {
            "duration": 0.011467479166682892,
            "durationTicks": 8,
            "midi": 42,
            "name": "F#2",
            "ticks": 59134,
            "time": 84.18455113020832,
            "velocity": 0.7401574803149606
          },
          {
            "duration": 0.011467479166668682,
            "durationTicks": 8,
            "midi": 42,
            "name": "F#2",
            "ticks": 59326,
            "time": 84.45977063020833,
            "velocity": 0.6929133858267716
          },
          {
            "duration": 0.011467479166668682,
            "durationTicks": 8,
            "midi": 42,
            "name": "F#2",
            "ticks": 59514,
            "time": 84.729256390625,
            "velocity": 0.7165354330708661
          },
          {
            "duration": 0.01146747916665447,
            "durationTicks": 8,
            "midi": 38,
            "name": "D2",
            "ticks": 59516,
            "time": 84.73212326041667,
            "velocity": 0.8661417322834646
          },
          {
            "duration": 0.011467479166668682,
            "durationTicks": 8,
            "midi": 42,
            "name": "F#2",
            "ticks": 59706,
            "time": 85.004475890625,
            "velocity": 0.7165354330708661
          },
          {
            "duration": 0.011467479166682892,
            "durationTicks": 8,
            "midi": 42,
            "name": "F#2",
            "ticks": 59898,
            "time": 85.279695390625,
            "velocity": 0.7401574803149606
          },
          {
            "duration": 0.011467479166668682,
            "durationTicks": 8,
            "midi": 35,
            "name": "B1",
            "ticks": 59902,
            "time": 85.28542913020833,
            "velocity": 0.889763779527559
          },
          {
            "duration": 0.011467479166682892,
            "durationTicks": 8,
            "midi": 42,
            "name": "F#2",
            "ticks": 60096,
            "time": 85.5635155,
            "velocity": 0.6850393700787402
          },
          {
            "duration": 0.011467479166668682,
            "durationTicks": 8,
            "midi": 42,
            "name": "F#2",
            "ticks": 60186,
            "time": 85.692524640625,
            "velocity": 0.6062992125984252
          },
          {
            "duration": 0.011467479166668682,
            "durationTicks": 8,
            "midi": 42,
            "name": "F#2",
            "ticks": 60280,
            "time": 85.82726752083333,
            "velocity": 0.7322834645669292
          },
          {
            "duration": 0.011467479166668682,
            "durationTicks": 8,
            "midi": 38,
            "name": "D2",
            "ticks": 60286,
            "time": 85.83586813020833,
            "velocity": 0.8188976377952756
          },
          {
            "duration": 0.011467479166668682,
            "durationTicks": 8,
            "midi": 42,
            "name": "F#2",
            "ticks": 60474,
            "time": 86.105353890625,
            "velocity": 0.7480314960629921
          },
          {
            "duration": 0.011467479166682892,
            "durationTicks": 8,
            "midi": 35,
            "name": "B1",
            "ticks": 60480,
            "time": 86.11395449999999,
            "velocity": 0.6929133858267716
          },
          {
            "duration": 0.01146747916665447,
            "durationTicks": 8,
            "midi": 35,
            "name": "B1",
            "ticks": 60668,
            "time": 86.38344026041668,
            "velocity": 0.905511811023622
          },
          {
            "duration": 0.011467479166668682,
            "durationTicks": 8,
            "midi": 42,
            "name": "F#2",
            "ticks": 60670,
            "time": 86.38630713020832,
            "velocity": 0.7165354330708661
          },
          {
            "duration": 0.011467479166668682,
            "durationTicks": 8,
            "midi": 42,
            "name": "F#2",
            "ticks": 60864,
            "time": 86.6643935,
            "velocity": 0.7322834645669292
          },
          {
            "duration": 0.011467479166668682,
            "durationTicks": 8,
            "midi": 42,
            "name": "F#2",
            "ticks": 61048,
            "time": 86.92814552083333,
            "velocity": 0.6929133858267716
          },
          {
            "duration": 0.011467479166682892,
            "durationTicks": 8,
            "midi": 38,
            "name": "D2",
            "ticks": 61054,
            "time": 86.93674613020832,
            "velocity": 0.7952755905511811
          },
          {
            "duration": 0.011467479166668682,
            "durationTicks": 8,
            "midi": 42,
            "name": "F#2",
            "ticks": 61240,
            "time": 87.20336502083333,
            "velocity": 0.7322834645669292
          },
          {
            "duration": 0.011467479166668682,
            "durationTicks": 8,
            "midi": 42,
            "name": "F#2",
            "ticks": 61434,
            "time": 87.481451390625,
            "velocity": 0.7480314960629921
          },
          {
            "duration": 0.011467479166682892,
            "durationTicks": 8,
            "midi": 35,
            "name": "B1",
            "ticks": 61440,
            "time": 87.49005199999999,
            "velocity": 0.8661417322834646
          },
          {
            "duration": 0.011467479166668682,
            "durationTicks": 8,
            "midi": 42,
            "name": "F#2",
            "ticks": 61632,
            "time": 87.7652715,
            "velocity": 0.6929133858267716
          },
          {
            "duration": 0.011467479166668682,
            "durationTicks": 8,
            "midi": 42,
            "name": "F#2",
            "ticks": 61722,
            "time": 87.894280640625,
            "velocity": 0.6850393700787402
          },
          {
            "duration": 0.011467479166668682,
            "durationTicks": 8,
            "midi": 42,
            "name": "F#2",
            "ticks": 61818,
            "time": 88.031890390625,
            "velocity": 0.7952755905511811
          },
          {
            "duration": 0.01146747916665447,
            "durationTicks": 8,
            "midi": 38,
            "name": "D2",
            "ticks": 61820,
            "time": 88.03475726041667,
            "velocity": 0.8346456692913385
          },
          {
            "duration": 0.011467479166668682,
            "durationTicks": 8,
            "midi": 42,
            "name": "F#2",
            "ticks": 62010,
            "time": 88.307109890625,
            "velocity": 0.6692913385826772
          },
          {
            "duration": 0.01146747916665447,
            "durationTicks": 8,
            "midi": 35,
            "name": "B1",
            "ticks": 62012,
            "time": 88.30997676041667,
            "velocity": 0.6535433070866141
          },
          {
            "duration": 0.011467479166668682,
            "durationTicks": 8,
            "midi": 42,
            "name": "F#2",
            "ticks": 62200,
            "time": 88.57946252083333,
            "velocity": 0.7322834645669292
          },
          {
            "duration": 0.011467479166668682,
            "durationTicks": 8,
            "midi": 35,
            "name": "B1",
            "ticks": 62208,
            "time": 88.59093,
            "velocity": 0.8740157480314961
          },
          {
            "duration": 0.011467479166668682,
            "durationTicks": 8,
            "midi": 42,
            "name": "F#2",
            "ticks": 62398,
            "time": 88.86328263020833,
            "velocity": 0.7401574803149606
          },
          {
            "duration": 0.011467479166668682,
            "durationTicks": 8,
            "midi": 38,
            "name": "D2",
            "ticks": 62590,
            "time": 89.13850213020832,
            "velocity": 0.8188976377952756
          },
          {
            "duration": 0.011467479166668682,
            "durationTicks": 8,
            "midi": 42,
            "name": "F#2",
            "ticks": 62590,
            "time": 89.13850213020832,
            "velocity": 0.7401574803149606
          },
          {
            "duration": 0.011467479166668682,
            "durationTicks": 8,
            "midi": 42,
            "name": "F#2",
            "ticks": 62782,
            "time": 89.41372163020833,
            "velocity": 0.7322834645669292
          },
          {
            "duration": 0.011467479166682892,
            "durationTicks": 8,
            "midi": 35,
            "name": "B1",
            "ticks": 62974,
            "time": 89.68894113020832,
            "velocity": 0.8661417322834646
          },
          {
            "duration": 0.011467479166668682,
            "durationTicks": 8,
            "midi": 42,
            "name": "F#2",
            "ticks": 62976,
            "time": 89.691808,
            "velocity": 0.7480314960629921
          },
          {
            "duration": 0.011467479166668682,
            "durationTicks": 8,
            "midi": 42,
            "name": "F#2",
            "ticks": 63166,
            "time": 89.96416063020833,
            "velocity": 0.7480314960629921
          },
          {
            "duration": 0.011467479166668682,
            "durationTicks": 8,
            "midi": 42,
            "name": "F#2",
            "ticks": 63256,
            "time": 90.09316977083333,
            "velocity": 0.6929133858267716
          },
          {
            "duration": 0.01146747916665447,
            "durationTicks": 8,
            "midi": 42,
            "name": "F#2",
            "ticks": 63356,
            "time": 90.23651326041667,
            "velocity": 0.6692913385826772
          },
          {
            "duration": 0.011467479166668682,
            "durationTicks": 8,
            "midi": 38,
            "name": "D2",
            "ticks": 63358,
            "time": 90.23938013020833,
            "velocity": 0.8110236220472441
          },
          {
            "duration": 0.011467479166668682,
            "durationTicks": 8,
            "midi": 35,
            "name": "B1",
            "ticks": 63550,
            "time": 90.51459963020832,
            "velocity": 0.6377952755905512
          },
          {
            "duration": 0.011467479166668682,
            "durationTicks": 8,
            "midi": 42,
            "name": "F#2",
            "ticks": 63550,
            "time": 90.51459963020832,
            "velocity": 0.7637795275590551
          },
          {
            "duration": 0.011467479166682892,
            "durationTicks": 8,
            "midi": 35,
            "name": "B1",
            "ticks": 63736,
            "time": 90.78121852083332,
            "velocity": 0.8661417322834646
          },
          {
            "duration": 0.011467479166682892,
            "durationTicks": 8,
            "midi": 42,
            "name": "F#2",
            "ticks": 63736,
            "time": 90.78121852083332,
            "velocity": 0.6929133858267716
          },
          {
            "duration": 0.011467479166668682,
            "durationTicks": 8,
            "midi": 42,
            "name": "F#2",
            "ticks": 63928,
            "time": 91.05643802083333,
            "velocity": 0.7480314960629921
          },
          {
            "duration": 0.011467479166668682,
            "durationTicks": 8,
            "midi": 38,
            "name": "D2",
            "ticks": 64120,
            "time": 91.33165752083333,
            "velocity": 0.8661417322834646
          },
          {
            "duration": 0.011467479166668682,
            "durationTicks": 8,
            "midi": 42,
            "name": "F#2",
            "ticks": 64120,
            "time": 91.33165752083333,
            "velocity": 0.7401574803149606
          },
          {
            "duration": 0.011467479166682892,
            "durationTicks": 8,
            "midi": 42,
            "name": "F#2",
            "ticks": 64320,
            "time": 91.61834449999999,
            "velocity": 0.7165354330708661
          },
          {
            "duration": 0.011467479166668682,
            "durationTicks": 8,
            "midi": 49,
            "name": "C#3",
            "ticks": 64506,
            "time": 91.884963390625,
            "velocity": 0.7480314960629921
          },
          {
            "duration": 0.011467479166668682,
            "durationTicks": 8,
            "midi": 35,
            "name": "B1",
            "ticks": 64508,
            "time": 91.88783026041666,
            "velocity": 0.889763779527559
          },
          {
            "duration": 0.011467479166682892,
            "durationTicks": 8,
            "midi": 42,
            "name": "F#2",
            "ticks": 64696,
            "time": 92.15731602083332,
            "velocity": 0.7480314960629921
          },
          {
            "duration": 0.011467479166668682,
            "durationTicks": 8,
            "midi": 42,
            "name": "F#2",
            "ticks": 64794,
            "time": 92.297792640625,
            "velocity": 0.6456692913385826
          },
          {
            "duration": 0.011467479166668682,
            "durationTicks": 8,
            "midi": 38,
            "name": "D2",
            "ticks": 64888,
            "time": 92.43253552083333,
            "velocity": 0.8503937007874016
          },
          {
            "duration": 0.011467479166682892,
            "durationTicks": 8,
            "midi": 42,
            "name": "F#2",
            "ticks": 64894,
            "time": 92.44113613020832,
            "velocity": 0.7952755905511811
          },
          {
            "duration": 0.01146747916665447,
            "durationTicks": 8,
            "midi": 42,
            "name": "F#2",
            "ticks": 65084,
            "time": 92.71348876041667,
            "velocity": 0.7165354330708661
          },
          {
            "duration": 0.011467479166668682,
            "durationTicks": 8,
            "midi": 35,
            "name": "B1",
            "ticks": 65088,
            "time": 92.7192225,
            "velocity": 0.6456692913385826
          },
          {
            "duration": 0.011467479166668682,
            "durationTicks": 8,
            "midi": 35,
            "name": "B1",
            "ticks": 65272,
            "time": 92.98297452083332,
            "velocity": 0.8740157480314961
          },
          {
            "duration": 0.011467479166682892,
            "durationTicks": 8,
            "midi": 42,
            "name": "F#2",
            "ticks": 65280,
            "time": 92.99444199999999,
            "velocity": 0.7637795275590551
          },
          {
            "duration": 0.011467479166668682,
            "durationTicks": 8,
            "midi": 42,
            "name": "F#2",
            "ticks": 65470,
            "time": 93.26679463020832,
            "velocity": 0.7401574803149606
          },
          {
            "duration": 0.011467479166668682,
            "durationTicks": 8,
            "midi": 42,
            "name": "F#2",
            "ticks": 65662,
            "time": 93.54201413020833,
            "velocity": 0.7637795275590551
          },
          {
            "duration": 0.011467479166668682,
            "durationTicks": 8,
            "midi": 38,
            "name": "D2",
            "ticks": 65664,
            "time": 93.544881,
            "velocity": 0.8110236220472441
          },
          {
            "duration": 0.011467479166668682,
            "durationTicks": 8,
            "midi": 42,
            "name": "F#2",
            "ticks": 65856,
            "time": 93.8201005,
            "velocity": 0.7165354330708661
          },
          {
            "duration": 0.011467479166668682,
            "durationTicks": 8,
            "midi": 35,
            "name": "B1",
            "ticks": 66046,
            "time": 94.09245313020833,
            "velocity": 0.8661417322834646
          },
          {
            "duration": 0.011467479166668682,
            "durationTicks": 8,
            "midi": 42,
            "name": "F#2",
            "ticks": 66046,
            "time": 94.09245313020833,
            "velocity": 0.7637795275590551
          },
          {
            "duration": 0.011467479166682892,
            "durationTicks": 8,
            "midi": 42,
            "name": "F#2",
            "ticks": 66240,
            "time": 94.37053949999999,
            "velocity": 0.6850393700787402
          },
          {
            "duration": 0.011467479166668682,
            "durationTicks": 8,
            "midi": 42,
            "name": "F#2",
            "ticks": 66334,
            "time": 94.50528238020833,
            "velocity": 0.7165354330708661
          },
          {
            "duration": 0.011467479166668682,
            "durationTicks": 8,
            "midi": 38,
            "name": "D2",
            "ticks": 66428,
            "time": 94.64002526041666,
            "velocity": 0.8661417322834646
          },
          {
            "duration": 0.011467479166668682,
            "durationTicks": 8,
            "midi": 42,
            "name": "F#2",
            "ticks": 66432,
            "time": 94.645759,
            "velocity": 0.7322834645669292
          },
          {
            "duration": 0.011467479166668682,
            "durationTicks": 8,
            "midi": 42,
            "name": "F#2",
            "ticks": 66622,
            "time": 94.91811163020833,
            "velocity": 0.7795275590551181
          },
          {
            "duration": 0.011467479166668682,
            "durationTicks": 8,
            "midi": 35,
            "name": "B1",
            "ticks": 66624,
            "time": 94.9209785,
            "velocity": 0.6692913385826772
          },
          {
            "duration": 0.011467479166668682,
            "durationTicks": 8,
            "midi": 35,
            "name": "B1",
            "ticks": 66810,
            "time": 95.187597390625,
            "velocity": 0.889763779527559
          },
          {
            "duration": 0.011467479166668682,
            "durationTicks": 8,
            "midi": 42,
            "name": "F#2",
            "ticks": 66816,
            "time": 95.196198,
            "velocity": 0.7165354330708661
          },
          {
            "duration": 0.01146747916665447,
            "durationTicks": 8,
            "midi": 42,
            "name": "F#2",
            "ticks": 67004,
            "time": 95.46568376041667,
            "velocity": 0.7401574803149606
          },
          {
            "duration": 0.01146747916665447,
            "durationTicks": 8,
            "midi": 38,
            "name": "D2",
            "ticks": 67196,
            "time": 95.74090326041667,
            "velocity": 0.8503937007874016
          },
          {
            "duration": 0.011467479166668682,
            "durationTicks": 8,
            "midi": 42,
            "name": "F#2",
            "ticks": 67198,
            "time": 95.74377013020833,
            "velocity": 0.6850393700787402
          },
          {
            "duration": 0.011467479166668682,
            "durationTicks": 8,
            "midi": 42,
            "name": "F#2",
            "ticks": 67390,
            "time": 96.01898963020832,
            "velocity": 0.7480314960629921
          },
          {
            "duration": 0.011467479166682892,
            "durationTicks": 8,
            "midi": 59,
            "name": "B3",
            "ticks": 67576,
            "time": 96.28560852083332,
            "velocity": 0.3228346456692913
          },
          {
            "duration": 0.011467479166668682,
            "durationTicks": 8,
            "midi": 35,
            "name": "B1",
            "ticks": 67584,
            "time": 96.297076,
            "velocity": 0.8740157480314961
          },
          {
            "duration": 0.011467479166668682,
            "durationTicks": 8,
            "midi": 42,
            "name": "F#2",
            "ticks": 67584,
            "time": 96.297076,
            "velocity": 0.7165354330708661
          },
          {
            "duration": 0.011467479166668682,
            "durationTicks": 8,
            "midi": 42,
            "name": "F#2",
            "ticks": 67768,
            "time": 96.56082802083333,
            "velocity": 0.7480314960629921
          },
          {
            "duration": 0.011467479166668682,
            "durationTicks": 8,
            "midi": 42,
            "name": "F#2",
            "ticks": 67870,
            "time": 96.70703838020833,
            "velocity": 0.7322834645669292
          },
          {
            "duration": 0.011467479166682892,
            "durationTicks": 8,
            "midi": 38,
            "name": "D2",
            "ticks": 67962,
            "time": 96.83891439062499,
            "velocity": 0.8503937007874016
          },
          {
            "duration": 0.01146747916665447,
            "durationTicks": 8,
            "midi": 59,
            "name": "B3",
            "ticks": 67964,
            "time": 96.84178126041667,
            "velocity": 0.4409448818897638
          },
          {
            "duration": 0.011467479166668682,
            "durationTicks": 8,
            "midi": 42,
            "name": "F#2",
            "ticks": 67966,
            "time": 96.84464813020833,
            "velocity": 0.7637795275590551
          },
          {
            "duration": 0.011467479166668682,
            "durationTicks": 8,
            "midi": 35,
            "name": "B1",
            "ticks": 68152,
            "time": 97.11126702083332,
            "velocity": 0.6929133858267716
          },
          {
            "duration": 0.011467479166682892,
            "durationTicks": 8,
            "midi": 42,
            "name": "F#2",
            "ticks": 68160,
            "time": 97.12273449999999,
            "velocity": 0.6929133858267716
          },
          {
            "duration": 0.011467479166668682,
            "durationTicks": 8,
            "midi": 35,
            "name": "B1",
            "ticks": 68344,
            "time": 97.38648652083333,
            "velocity": 0.905511811023622
          },
          {
            "duration": 0.011467479166668682,
            "durationTicks": 8,
            "midi": 42,
            "name": "F#2",
            "ticks": 68352,
            "time": 97.397954,
            "velocity": 0.7480314960629921
          },
          {
            "duration": 0.011467479166668682,
            "durationTicks": 8,
            "midi": 59,
            "name": "B3",
            "ticks": 68352,
            "time": 97.397954,
            "velocity": 0.48031496062992124
          },
          {
            "duration": 0.011467479166668682,
            "durationTicks": 8,
            "midi": 42,
            "name": "F#2",
            "ticks": 68538,
            "time": 97.664572890625,
            "velocity": 0.6929133858267716
          },
          {
            "duration": 0.011467479166668682,
            "durationTicks": 8,
            "midi": 42,
            "name": "F#2",
            "ticks": 68730,
            "time": 97.939792390625,
            "velocity": 0.7480314960629921
          },
          {
            "duration": 0.01146747916665447,
            "durationTicks": 8,
            "midi": 38,
            "name": "D2",
            "ticks": 68732,
            "time": 97.94265926041668,
            "velocity": 0.8346456692913385
          },
          {
            "duration": 0.011467479166668682,
            "durationTicks": 8,
            "midi": 59,
            "name": "B3",
            "ticks": 68736,
            "time": 97.948393,
            "velocity": 0.5196850393700787
          },
          {
            "duration": 0.01146747916665447,
            "durationTicks": 8,
            "midi": 42,
            "name": "F#2",
            "ticks": 68924,
            "time": 98.21787876041667,
            "velocity": 0.7165354330708661
          },
          {
            "duration": 0.011467479166668682,
            "durationTicks": 8,
            "midi": 59,
            "name": "B3",
            "ticks": 69112,
            "time": 98.48736452083332,
            "velocity": 0.6141732283464567
          },
          {
            "duration": 0.01146747916665447,
            "durationTicks": 8,
            "midi": 42,
            "name": "F#2",
            "ticks": 69116,
            "time": 98.49309826041667,
            "velocity": 0.7480314960629921
          },
          {
            "duration": 0.011467479166682892,
            "durationTicks": 8,
            "midi": 35,
            "name": "B1",
            "ticks": 69120,
            "time": 98.498832,
            "velocity": 0.889763779527559
          },
          {
            "duration": 0.011467479166668682,
            "durationTicks": 8,
            "midi": 42,
            "name": "F#2",
            "ticks": 69308,
            "time": 98.76831776041666,
            "velocity": 0.6692913385826772
          },
          {
            "duration": 0.011467479166668682,
            "durationTicks": 8,
            "midi": 42,
            "name": "F#2",
            "ticks": 69408,
            "time": 98.91166125,
            "velocity": 0.6692913385826772
          },
          {
            "duration": 0.011467479166682892,
            "durationTicks": 8,
            "midi": 59,
            "name": "B3",
            "ticks": 69496,
            "time": 99.03780352083332,
            "velocity": 0.6614173228346457
          },
          {
            "duration": 0.011467479166668682,
            "durationTicks": 8,
            "midi": 38,
            "name": "D2",
            "ticks": 69498,
            "time": 99.040670390625,
            "velocity": 0.8661417322834646
          },
          {
            "duration": 0.011467479166668682,
            "durationTicks": 8,
            "midi": 42,
            "name": "F#2",
            "ticks": 69502,
            "time": 99.04640413020833,
            "velocity": 0.6692913385826772
          },
          {
            "duration": 0.011467479166668682,
            "durationTicks": 8,
            "midi": 35,
            "name": "B1",
            "ticks": 69688,
            "time": 99.31302302083333,
            "velocity": 0.6771653543307087
          },
          {
            "duration": 0.011467479166668682,
            "durationTicks": 8,
            "midi": 42,
            "name": "F#2",
            "ticks": 69688,
            "time": 99.31302302083333,
            "velocity": 0.7480314960629921
          },
          {
            "duration": 0.011467479166668682,
            "durationTicks": 8,
            "midi": 35,
            "name": "B1",
            "ticks": 69880,
            "time": 99.58824252083333,
            "velocity": 0.8740157480314961
          },
          {
            "duration": 0.011467479166668682,
            "durationTicks": 8,
            "midi": 59,
            "name": "B3",
            "ticks": 69880,
            "time": 99.58824252083333,
            "velocity": 0.7086614173228346
          },
          {
            "duration": 0.011467479166668682,
            "durationTicks": 8,
            "midi": 42,
            "name": "F#2",
            "ticks": 69888,
            "time": 99.59971,
            "velocity": 0.6850393700787402
          },
          {
            "duration": 0.011467479166668682,
            "durationTicks": 8,
            "midi": 38,
            "name": "D2",
            "ticks": 70078,
            "time": 99.87206263020833,
            "velocity": 0.8503937007874016
          },
          {
            "duration": 0.011467479166668682,
            "durationTicks": 8,
            "midi": 59,
            "name": "B3",
            "ticks": 70268,
            "time": 100.14441526041666,
            "velocity": 0.7952755905511811
          },
          {
            "duration": 0.011467479166668682,
            "durationTicks": 8,
            "midi": 38,
            "name": "D2",
            "ticks": 70272,
            "time": 100.150149,
            "velocity": 0.7952755905511811
          },
          {
            "duration": 0.01146747916665447,
            "durationTicks": 8,
            "midi": 38,
            "name": "D2",
            "ticks": 70364,
            "time": 100.28202501041667,
            "velocity": 0.8503937007874016
          },
          {
            "duration": 0.011467479166668682,
            "durationTicks": 8,
            "midi": 38,
            "name": "D2",
            "ticks": 70560,
            "time": 100.56297825,
            "velocity": 0.8661417322834646
          },
          {
            "duration": 0.011467479166668682,
            "durationTicks": 8,
            "midi": 35,
            "name": "B1",
            "ticks": 70648,
            "time": 100.68912052083333,
            "velocity": 0.889763779527559
          },
          {
            "duration": 0.011467479166668682,
            "durationTicks": 8,
            "midi": 59,
            "name": "B3",
            "ticks": 70648,
            "time": 100.68912052083333,
            "velocity": 0.6929133858267716
          },
          {
            "duration": 0.011467479166682892,
            "durationTicks": 8,
            "midi": 42,
            "name": "F#2",
            "ticks": 70654,
            "time": 100.69772113020832,
            "velocity": 0.6929133858267716
          },
          {
            "duration": 0.011467479166668682,
            "durationTicks": 8,
            "midi": 42,
            "name": "F#2",
            "ticks": 70840,
            "time": 100.96434002083333,
            "velocity": 0.7322834645669292
          },
          {
            "duration": 0.011467479166668682,
            "durationTicks": 8,
            "midi": 42,
            "name": "F#2",
            "ticks": 70940,
            "time": 101.10768351041666,
            "velocity": 0.6062992125984252
          },
          {
            "duration": 0.011467479166668682,
            "durationTicks": 8,
            "midi": 42,
            "name": "F#2",
            "ticks": 71032,
            "time": 101.23955952083332,
            "velocity": 0.7637795275590551
          },
          {
            "duration": 0.011467479166668682,
            "durationTicks": 8,
            "midi": 38,
            "name": "D2",
            "ticks": 71038,
            "time": 101.24816013020833,
            "velocity": 0.7952755905511811
          },
          {
            "duration": 0.011467479166682892,
            "durationTicks": 8,
            "midi": 59,
            "name": "B3",
            "ticks": 71040,
            "time": 101.251027,
            "velocity": 0.6456692913385826
          },
          {
            "duration": 0.011467479166668682,
            "durationTicks": 8,
            "midi": 42,
            "name": "F#2",
            "ticks": 71228,
            "time": 101.52051276041666,
            "velocity": 0.7480314960629921
          },
          {
            "duration": 0.011467479166668682,
            "durationTicks": 8,
            "midi": 35,
            "name": "B1",
            "ticks": 71232,
            "time": 101.5262465,
            "velocity": 0.6614173228346457
          },
          {
            "duration": 0.011467479166682892,
            "durationTicks": 8,
            "midi": 59,
            "name": "B3",
            "ticks": 71416,
            "time": 101.78999852083332,
            "velocity": 0.6929133858267716
          },
          {
            "duration": 0.011467479166668682,
            "durationTicks": 8,
            "midi": 42,
            "name": "F#2",
            "ticks": 71418,
            "time": 101.792865390625,
            "velocity": 0.7637795275590551
          },
          {
            "duration": 0.011467479166668682,
            "durationTicks": 8,
            "midi": 35,
            "name": "B1",
            "ticks": 71424,
            "time": 101.801466,
            "velocity": 0.8503937007874016
          },
          {
            "duration": 0.011467479166668682,
            "durationTicks": 8,
            "midi": 42,
            "name": "F#2",
            "ticks": 71610,
            "time": 102.068084890625,
            "velocity": 0.7401574803149606
          },
          {
            "duration": 0.011467479166668682,
            "durationTicks": 8,
            "midi": 38,
            "name": "D2",
            "ticks": 71800,
            "time": 102.34043752083333,
            "velocity": 0.8661417322834646
          },
          {
            "duration": 0.01146747916665447,
            "durationTicks": 8,
            "midi": 42,
            "name": "F#2",
            "ticks": 71804,
            "time": 102.34617126041667,
            "velocity": 0.7480314960629921
          },
          {
            "duration": 0.011467479166668682,
            "durationTicks": 8,
            "midi": 59,
            "name": "B3",
            "ticks": 71808,
            "time": 102.351905,
            "velocity": 0.6614173228346457
          },
          {
            "duration": 0.011467479166668682,
            "durationTicks": 8,
            "midi": 42,
            "name": "F#2",
            "ticks": 71992,
            "time": 102.61565702083332,
            "velocity": 0.7401574803149606
          },
          {
            "duration": 0.011467479166668682,
            "durationTicks": 8,
            "midi": 35,
            "name": "B1",
            "ticks": 72186,
            "time": 102.893743390625,
            "velocity": 0.8740157480314961
          },
          {
            "duration": 0.01146747916665447,
            "durationTicks": 8,
            "midi": 42,
            "name": "F#2",
            "ticks": 72188,
            "time": 102.89661026041667,
            "velocity": 0.7480314960629921
          },
          {
            "duration": 0.011467479166668682,
            "durationTicks": 8,
            "midi": 59,
            "name": "B3",
            "ticks": 72190,
            "time": 102.89947713020833,
            "velocity": 0.6850393700787402
          },
          {
            "duration": 0.011467479166668682,
            "durationTicks": 8,
            "midi": 42,
            "name": "F#2",
            "ticks": 72384,
            "time": 103.1775635,
            "velocity": 0.6850393700787402
          },
          {
            "duration": 0.011467479166668682,
            "durationTicks": 8,
            "midi": 42,
            "name": "F#2",
            "ticks": 72480,
            "time": 103.31517325,
            "velocity": 0.7401574803149606
          },
          {
            "duration": 0.011467479166668682,
            "durationTicks": 8,
            "midi": 42,
            "name": "F#2",
            "ticks": 72568,
            "time": 103.44131552083333,
            "velocity": 0.6850393700787402
          },
          {
            "duration": 0.011467479166668682,
            "durationTicks": 8,
            "midi": 59,
            "name": "B3",
            "ticks": 72570,
            "time": 103.444182390625,
            "velocity": 0.6850393700787402
          },
          {
            "duration": 0.01146747916665447,
            "durationTicks": 8,
            "midi": 38,
            "name": "D2",
            "ticks": 72572,
            "time": 103.44704926041668,
            "velocity": 0.8346456692913385
          },
          {
            "duration": 0.011467479166668682,
            "durationTicks": 8,
            "midi": 35,
            "name": "B1",
            "ticks": 72760,
            "time": 103.71653502083333,
            "velocity": 0.6299212598425197
          },
          {
            "duration": 0.011467479166668682,
            "durationTicks": 8,
            "midi": 42,
            "name": "F#2",
            "ticks": 72760,
            "time": 103.71653502083333,
            "velocity": 0.7322834645669292
          },
          {
            "duration": 0.011467479166668682,
            "durationTicks": 8,
            "midi": 42,
            "name": "F#2",
            "ticks": 72952,
            "time": 103.99175452083333,
            "velocity": 0.6929133858267716
          },
          {
            "duration": 0.011467479166682892,
            "durationTicks": 8,
            "midi": 59,
            "name": "B3",
            "ticks": 72958,
            "time": 104.00035513020832,
            "velocity": 0.6850393700787402
          },
          {
            "duration": 0.011467479166682892,
            "durationTicks": 8,
            "midi": 35,
            "name": "B1",
            "ticks": 72960,
            "time": 104.003222,
            "velocity": 0.889763779527559
          },
          {
            "duration": 0.011467479166668682,
            "durationTicks": 8,
            "midi": 42,
            "name": "F#2",
            "ticks": 73146,
            "time": 104.269840890625,
            "velocity": 0.7480314960629921
          },
          {
            "duration": 0.011467479166668682,
            "durationTicks": 8,
            "midi": 38,
            "name": "D2",
            "ticks": 73338,
            "time": 104.545060390625,
            "velocity": 0.8346456692913385
          },
          {
            "duration": 0.01146747916665447,
            "durationTicks": 8,
            "midi": 42,
            "name": "F#2",
            "ticks": 73340,
            "time": 104.54792726041667,
            "velocity": 0.7322834645669292
          },
          {
            "duration": 0.01146747916665447,
            "durationTicks": 8,
            "midi": 59,
            "name": "B3",
            "ticks": 73340,
            "time": 104.54792726041667,
            "velocity": 0.6062992125984252
          },
          {
            "duration": 0.011467479166668682,
            "durationTicks": 8,
            "midi": 42,
            "name": "F#2",
            "ticks": 73528,
            "time": 104.81741302083333,
            "velocity": 0.7322834645669292
          },
          {
            "duration": 0.011467479166668682,
            "durationTicks": 8,
            "midi": 35,
            "name": "B1",
            "ticks": 73536,
            "time": 104.8288805,
            "velocity": 0.7637795275590551
          },
          {
            "duration": 0.011467479166682892,
            "durationTicks": 8,
            "midi": 35,
            "name": "B1",
            "ticks": 73720,
            "time": 105.09263252083332,
            "velocity": 0.905511811023622
          },
          {
            "duration": 0.011467479166668682,
            "durationTicks": 8,
            "midi": 42,
            "name": "F#2",
            "ticks": 73726,
            "time": 105.10123313020833,
            "velocity": 0.7401574803149606
          },
          {
            "duration": 0.011467479166668682,
            "durationTicks": 8,
            "midi": 59,
            "name": "B3",
            "ticks": 73726,
            "time": 105.10123313020833,
            "velocity": 0.6220472440944882
          },
          {
            "duration": 0.011467479166682892,
            "durationTicks": 8,
            "midi": 42,
            "name": "F#2",
            "ticks": 73918,
            "time": 105.37645263020832,
            "velocity": 0.6929133858267716
          },
          {
            "duration": 0.01146747916665447,
            "durationTicks": 8,
            "midi": 42,
            "name": "F#2",
            "ticks": 74012,
            "time": 105.51119551041667,
            "velocity": 0.6456692913385826
          },
          {
            "duration": 0.011467479166668682,
            "durationTicks": 8,
            "midi": 38,
            "name": "D2",
            "ticks": 74104,
            "time": 105.64307152083333,
            "velocity": 0.8503937007874016
          },
          {
            "duration": 0.011467479166668682,
            "durationTicks": 8,
            "midi": 59,
            "name": "B3",
            "ticks": 74106,
            "time": 105.645938390625,
            "velocity": 0.6377952755905512
          },
          {
            "duration": 0.011467479166668682,
            "durationTicks": 8,
            "midi": 42,
            "name": "F#2",
            "ticks": 74112,
            "time": 105.654539,
            "velocity": 0.7795275590551181
          },
          {
            "duration": 0.011467479166668682,
            "durationTicks": 8,
            "midi": 35,
            "name": "B1",
            "ticks": 74302,
            "time": 105.92689163020833,
            "velocity": 0.6929133858267716
          },
          {
            "duration": 0.011467479166668682,
            "durationTicks": 8,
            "midi": 42,
            "name": "F#2",
            "ticks": 74302,
            "time": 105.92689163020833,
            "velocity": 0.6850393700787402
          },
          {
            "duration": 0.011467479166682892,
            "durationTicks": 8,
            "midi": 42,
            "name": "F#2",
            "ticks": 74494,
            "time": 106.20211113020832,
            "velocity": 0.7401574803149606
          },
          {
            "duration": 0.011467479166682892,
            "durationTicks": 8,
            "midi": 59,
            "name": "B3",
            "ticks": 74494,
            "time": 106.20211113020832,
            "velocity": 0.6614173228346457
          },
          {
            "duration": 0.011467479166668682,
            "durationTicks": 8,
            "midi": 35,
            "name": "B1",
            "ticks": 74496,
            "time": 106.204978,
            "velocity": 0.889763779527559
          },
          {
            "duration": 0.011467479166668682,
            "durationTicks": 8,
            "midi": 42,
            "name": "F#2",
            "ticks": 74688,
            "time": 106.4801975,
            "velocity": 0.6929133858267716
          },
          {
            "duration": 0.01146747916665447,
            "durationTicks": 8,
            "midi": 59,
            "name": "B3",
            "ticks": 74876,
            "time": 106.74968326041667,
            "velocity": 0.6456692913385826
          },
          {
            "duration": 0.011467479166682892,
            "durationTicks": 8,
            "midi": 38,
            "name": "D2",
            "ticks": 74878,
            "time": 106.75255013020832,
            "velocity": 0.8503937007874016
          },
          {
            "duration": 0.011467479166682892,
            "durationTicks": 8,
            "midi": 42,
            "name": "F#2",
            "ticks": 74878,
            "time": 106.75255013020832,
            "velocity": 0.7401574803149606
          },
          {
            "duration": 0.011467479166668682,
            "durationTicks": 8,
            "midi": 42,
            "name": "F#2",
            "ticks": 75064,
            "time": 107.01916902083333,
            "velocity": 0.7401574803149606
          },
          {
            "duration": 0.011467479166682892,
            "durationTicks": 8,
            "midi": 59,
            "name": "B3",
            "ticks": 75256,
            "time": 107.29438852083332,
            "velocity": 0.6692913385826772
          },
          {
            "duration": 0.011467479166668682,
            "durationTicks": 8,
            "midi": 42,
            "name": "F#2",
            "ticks": 75258,
            "time": 107.297255390625,
            "velocity": 0.7480314960629921
          },
          {
            "duration": 0.011467479166668682,
            "durationTicks": 8,
            "midi": 35,
            "name": "B1",
            "ticks": 75262,
            "time": 107.30298913020833,
            "velocity": 0.889763779527559
          },
          {
            "duration": 0.011467479166668682,
            "durationTicks": 8,
            "midi": 42,
            "name": "F#2",
            "ticks": 75448,
            "time": 107.56960802083333,
            "velocity": 0.7322834645669292
          },
          {
            "duration": 0.01146747916665447,
            "durationTicks": 8,
            "midi": 42,
            "name": "F#2",
            "ticks": 75548,
            "time": 107.71295151041667,
            "velocity": 0.7165354330708661
          },
          {
            "duration": 0.01146747916665447,
            "durationTicks": 8,
            "midi": 38,
            "name": "D2",
            "ticks": 75644,
            "time": 107.85056126041667,
            "velocity": 0.8503937007874016
          },
          {
            "duration": 0.01146747916665447,
            "durationTicks": 8,
            "midi": 42,
            "name": "F#2",
            "ticks": 75644,
            "time": 107.85056126041667,
            "velocity": 0.6692913385826772
          },
          {
            "duration": 0.011467479166668682,
            "durationTicks": 8,
            "midi": 59,
            "name": "B3",
            "ticks": 75648,
            "time": 107.856295,
            "velocity": 0.6062992125984252
          },
          {
            "duration": 0.011467479166668682,
            "durationTicks": 8,
            "midi": 35,
            "name": "B1",
            "ticks": 75832,
            "time": 108.12004702083333,
            "velocity": 0.6850393700787402
          },
          {
            "duration": 0.011467479166668682,
            "durationTicks": 8,
            "midi": 42,
            "name": "F#2",
            "ticks": 75832,
            "time": 108.12004702083333,
            "velocity": 0.7401574803149606
          },
          {
            "duration": 0.011467479166682892,
            "durationTicks": 8,
            "midi": 35,
            "name": "B1",
            "ticks": 76026,
            "time": 108.39813339062499,
            "velocity": 0.8661417322834646
          },
          {
            "duration": 0.011467479166682892,
            "durationTicks": 8,
            "midi": 42,
            "name": "F#2",
            "ticks": 76026,
            "time": 108.39813339062499,
            "velocity": 0.7322834645669292
          },
          {
            "duration": 0.011467479166668682,
            "durationTicks": 8,
            "midi": 59,
            "name": "B3",
            "ticks": 76032,
            "time": 108.406734,
            "velocity": 0.6220472440944882
          },
          {
            "duration": 0.01146747916665447,
            "durationTicks": 8,
            "midi": 42,
            "name": "F#2",
            "ticks": 76220,
            "time": 108.67621976041667,
            "velocity": 0.7322834645669292
          },
          {
            "duration": 0.011467479166668682,
            "durationTicks": 8,
            "midi": 38,
            "name": "D2",
            "ticks": 76408,
            "time": 108.94570552083333,
            "velocity": 0.7952755905511811
          },
          {
            "duration": 0.011467479166668682,
            "durationTicks": 8,
            "midi": 42,
            "name": "F#2",
            "ticks": 76410,
            "time": 108.948572390625,
            "velocity": 0.7480314960629921
          },
          {
            "duration": 0.011467479166668682,
            "durationTicks": 8,
            "midi": 59,
            "name": "B3",
            "ticks": 76416,
            "time": 108.957173,
            "velocity": 0.6614173228346457
          },
          {
            "duration": 0.011467479166682892,
            "durationTicks": 8,
            "midi": 42,
            "name": "F#2",
            "ticks": 76602,
            "time": 109.223791890625,
            "velocity": 0.7322834645669292
          },
          {
            "duration": 0.011467479166668682,
            "durationTicks": 8,
            "midi": 35,
            "name": "B1",
            "ticks": 76606,
            "time": 109.22952563020833,
            "velocity": 0.7637795275590551
          },
          {
            "duration": 0.011467479166668682,
            "durationTicks": 8,
            "midi": 35,
            "name": "B1",
            "ticks": 76794,
            "time": 109.499011390625,
            "velocity": 0.8661417322834646
          },
          {
            "duration": 0.011467479166682892,
            "durationTicks": 8,
            "midi": 42,
            "name": "F#2",
            "ticks": 76798,
            "time": 109.50474513020832,
            "velocity": 0.6929133858267716
          },
          {
            "duration": 0.011467479166682892,
            "durationTicks": 8,
            "midi": 59,
            "name": "B3",
            "ticks": 76800,
            "time": 109.507612,
            "velocity": 0.6692913385826772
          },
          {
            "duration": 0.011467479166668682,
            "durationTicks": 8,
            "midi": 42,
            "name": "F#2",
            "ticks": 76992,
            "time": 109.7828315,
            "velocity": 0.6850393700787402
          },
          {
            "duration": 0.011467479166682892,
            "durationTicks": 8,
            "midi": 42,
            "name": "F#2",
            "ticks": 77086,
            "time": 109.91757438020832,
            "velocity": 0.6220472440944882
          },
          {
            "duration": 0.011467479166668682,
            "durationTicks": 8,
            "midi": 38,
            "name": "D2",
            "ticks": 77178,
            "time": 110.049450390625,
            "velocity": 0.8188976377952756
          },
          {
            "duration": 0.01146747916665447,
            "durationTicks": 8,
            "midi": 42,
            "name": "F#2",
            "ticks": 77180,
            "time": 110.05231726041667,
            "velocity": 0.7480314960629921
          },
          {
            "duration": 0.011467479166668682,
            "durationTicks": 8,
            "midi": 59,
            "name": "B3",
            "ticks": 77182,
            "time": 110.05518413020833,
            "velocity": 0.6614173228346457
          },
          {
            "duration": 0.011467479166668682,
            "durationTicks": 8,
            "midi": 42,
            "name": "F#2",
            "ticks": 77374,
            "time": 110.33040363020832,
            "velocity": 0.7165354330708661
          },
          {
            "duration": 0.011467479166668682,
            "durationTicks": 8,
            "midi": 35,
            "name": "B1",
            "ticks": 77376,
            "time": 110.3332705,
            "velocity": 0.6377952755905512
          },
          {
            "duration": 0.011467479166682892,
            "durationTicks": 8,
            "midi": 35,
            "name": "B1",
            "ticks": 77562,
            "time": 110.599889390625,
            "velocity": 0.8503937007874016
          },
          {
            "duration": 0.011467479166682892,
            "durationTicks": 8,
            "midi": 42,
            "name": "F#2",
            "ticks": 77562,
            "time": 110.599889390625,
            "velocity": 0.7401574803149606
          },
          {
            "duration": 0.011467479166668682,
            "durationTicks": 8,
            "midi": 59,
            "name": "B3",
            "ticks": 77568,
            "time": 110.60849,
            "velocity": 0.6456692913385826
          },
          {
            "duration": 0.011467479166668682,
            "durationTicks": 8,
            "midi": 42,
            "name": "F#2",
            "ticks": 77760,
            "time": 110.8837095,
            "velocity": 0.6929133858267716
          },
          {
            "duration": 0.011467479166668682,
            "durationTicks": 8,
            "midi": 38,
            "name": "D2",
            "ticks": 77944,
            "time": 111.14746152083333,
            "velocity": 0.8661417322834646
          },
          {
            "duration": 0.011467479166668682,
            "durationTicks": 8,
            "midi": 42,
            "name": "F#2",
            "ticks": 77944,
            "time": 111.14746152083333,
            "velocity": 0.7165354330708661
          },
          {
            "duration": 0.011467479166668682,
            "durationTicks": 8,
            "midi": 59,
            "name": "B3",
            "ticks": 77944,
            "time": 111.14746152083333,
            "velocity": 0.6614173228346457
          },
          {
            "duration": 0.01146747916665447,
            "durationTicks": 8,
            "midi": 42,
            "name": "F#2",
            "ticks": 78140,
            "time": 111.42841476041667,
            "velocity": 0.7165354330708661
          },
          {
            "duration": 0.011467479166668682,
            "durationTicks": 8,
            "midi": 59,
            "name": "B3",
            "ticks": 78328,
            "time": 111.69790052083333,
            "velocity": 0.6377952755905512
          },
          {
            "duration": 0.01146747916665447,
            "durationTicks": 8,
            "midi": 35,
            "name": "B1",
            "ticks": 78332,
            "time": 111.70363426041668,
            "velocity": 0.889763779527559
          },
          {
            "duration": 0.01146747916665447,
            "durationTicks": 8,
            "midi": 42,
            "name": "F#2",
            "ticks": 78332,
            "time": 111.70363426041668,
            "velocity": 0.7401574803149606
          },
          {
            "duration": 0.01146747916665447,
            "durationTicks": 8,
            "midi": 42,
            "name": "F#2",
            "ticks": 78524,
            "time": 111.97885376041667,
            "velocity": 0.6850393700787402
          },
          {
            "duration": 0.011467479166668682,
            "durationTicks": 8,
            "midi": 42,
            "name": "F#2",
            "ticks": 78616,
            "time": 112.11072977083333,
            "velocity": 0.6062992125984252
          },
          {
            "duration": 0.011467479166668682,
            "durationTicks": 8,
            "midi": 38,
            "name": "D2",
            "ticks": 78714,
            "time": 112.251206390625,
            "velocity": 0.8188976377952756
          },
          {
            "duration": 0.01146747916665447,
            "durationTicks": 8,
            "midi": 42,
            "name": "F#2",
            "ticks": 78716,
            "time": 112.25407326041667,
            "velocity": 0.7322834645669292
          },
          {
            "duration": 0.011467479166682892,
            "durationTicks": 8,
            "midi": 59,
            "name": "B3",
            "ticks": 78718,
            "time": 112.25694013020832,
            "velocity": 0.6141732283464567
          },
          {
            "duration": 0.011467479166682892,
            "durationTicks": 8,
            "midi": 35,
            "name": "B1",
            "ticks": 78906,
            "time": 112.52642589062499,
            "velocity": 0.6929133858267716
          },
          {
            "duration": 0.01146747916665447,
            "durationTicks": 8,
            "midi": 42,
            "name": "F#2",
            "ticks": 78908,
            "time": 112.52929276041667,
            "velocity": 0.7480314960629921
          },
          {
            "duration": 0.011467479166668682,
            "durationTicks": 8,
            "midi": 35,
            "name": "B1",
            "ticks": 79096,
            "time": 112.79877852083332,
            "velocity": 0.905511811023622
          },
          {
            "duration": 0.011467479166668682,
            "durationTicks": 8,
            "midi": 42,
            "name": "F#2",
            "ticks": 79096,
            "time": 112.79877852083332,
            "velocity": 0.7165354330708661
          },
          {
            "duration": 0.011467479166668682,
            "durationTicks": 8,
            "midi": 59,
            "name": "B3",
            "ticks": 79096,
            "time": 112.79877852083332,
            "velocity": 0.6456692913385826
          },
          {
            "duration": 0.011467479166668682,
            "durationTicks": 8,
            "midi": 42,
            "name": "F#2",
            "ticks": 79294,
            "time": 113.08259863020832,
            "velocity": 0.7322834645669292
          },
          {
            "duration": 0.011467479166668682,
            "durationTicks": 8,
            "midi": 42,
            "name": "F#2",
            "ticks": 79482,
            "time": 113.352084390625,
            "velocity": 0.6929133858267716
          },
          {
            "duration": 0.011467479166668682,
            "durationTicks": 8,
            "midi": 59,
            "name": "B3",
            "ticks": 79486,
            "time": 113.35781813020833,
            "velocity": 0.6614173228346457
          },
          {
            "duration": 0.011467479166668682,
            "durationTicks": 8,
            "midi": 38,
            "name": "D2",
            "ticks": 79488,
            "time": 113.360685,
            "velocity": 0.7952755905511811
          },
          {
            "duration": 0.011467479166668682,
            "durationTicks": 8,
            "midi": 42,
            "name": "F#2",
            "ticks": 79674,
            "time": 113.627303890625,
            "velocity": 0.7322834645669292
          },
          {
            "duration": 0.011467479166682892,
            "durationTicks": 8,
            "midi": 35,
            "name": "B1",
            "ticks": 79678,
            "time": 113.63303763020832,
            "velocity": 0.7480314960629921
          },
          {
            "duration": 0.011467479166668682,
            "durationTicks": 8,
            "midi": 35,
            "name": "B1",
            "ticks": 79864,
            "time": 113.89965652083333,
            "velocity": 0.8661417322834646
          },
          {
            "duration": 0.01146747916665447,
            "durationTicks": 8,
            "midi": 59,
            "name": "B3",
            "ticks": 79868,
            "time": 113.90539026041667,
            "velocity": 0.6692913385826772
          },
          {
            "duration": 0.011467479166668682,
            "durationTicks": 8,
            "midi": 49,
            "name": "C#3",
            "ticks": 79872,
            "time": 113.911124,
            "velocity": 0.7637795275590551
          },
          {
            "duration": 0.011467479166668682,
            "durationTicks": 8,
            "midi": 42,
            "name": "F#2",
            "ticks": 80058,
            "time": 114.177742890625,
            "velocity": 0.6929133858267716
          },
          {
            "duration": 0.011467479166668682,
            "durationTicks": 8,
            "midi": 42,
            "name": "F#2",
            "ticks": 80158,
            "time": 114.32108638020833,
            "velocity": 0.6850393700787402
          },
          {
            "duration": 0.011467479166668682,
            "durationTicks": 8,
            "midi": 38,
            "name": "D2",
            "ticks": 80250,
            "time": 114.452962390625,
            "velocity": 0.8346456692913385
          },
          {
            "duration": 0.011467479166668682,
            "durationTicks": 8,
            "midi": 59,
            "name": "B3",
            "ticks": 80252,
            "time": 114.45582926041666,
            "velocity": 0.6614173228346457
          },
          {
            "duration": 0.011467479166668682,
            "durationTicks": 8,
            "midi": 42,
            "name": "F#2",
            "ticks": 80254,
            "time": 114.45869613020832,
            "velocity": 0.7952755905511811
          },
          {
            "duration": 0.01146747916665447,
            "durationTicks": 8,
            "midi": 42,
            "name": "F#2",
            "ticks": 80444,
            "time": 114.73104876041667,
            "velocity": 0.6692913385826772
          },
          {
            "duration": 0.011467479166668682,
            "durationTicks": 8,
            "midi": 35,
            "name": "B1",
            "ticks": 80446,
            "time": 114.73391563020833,
            "velocity": 0.6535433070866141
          },
          {
            "duration": 0.011467479166668682,
            "durationTicks": 8,
            "midi": 35,
            "name": "B1",
            "ticks": 80632,
            "time": 115.00053452083333,
            "velocity": 0.8740157480314961
          },
          {
            "duration": 0.011467479166668682,
            "durationTicks": 8,
            "midi": 59,
            "name": "B3",
            "ticks": 80634,
            "time": 115.003401390625,
            "velocity": 0.6614173228346457
          },
          {
            "duration": 0.01146747916665447,
            "durationTicks": 8,
            "midi": 42,
            "name": "F#2",
            "ticks": 80636,
            "time": 115.00626826041668,
            "velocity": 0.7322834645669292
          },
          {
            "duration": 0.01146747916665447,
            "durationTicks": 8,
            "midi": 42,
            "name": "F#2",
            "ticks": 80828,
            "time": 115.28148776041667,
            "velocity": 0.7401574803149606
          },
          {
            "duration": 0.011467479166668682,
            "durationTicks": 8,
            "midi": 59,
            "name": "B3",
            "ticks": 81016,
            "time": 115.55097352083332,
            "velocity": 0.6614173228346457
          },
          {
            "duration": 0.011467479166668682,
            "durationTicks": 8,
            "midi": 38,
            "name": "D2",
            "ticks": 81018,
            "time": 115.553840390625,
            "velocity": 0.8188976377952756
          },
          {
            "duration": 0.011467479166668682,
            "durationTicks": 8,
            "midi": 42,
            "name": "F#2",
            "ticks": 81022,
            "time": 115.55957413020833,
            "velocity": 0.7401574803149606
          },
          {
            "duration": 0.011467479166668682,
            "durationTicks": 8,
            "midi": 42,
            "name": "F#2",
            "ticks": 81216,
            "time": 115.8376605,
            "velocity": 0.7322834645669292
          },
          {
            "duration": 0.011467479166668682,
            "durationTicks": 8,
            "midi": 42,
            "name": "F#2",
            "ticks": 81402,
            "time": 116.104279390625,
            "velocity": 0.7480314960629921
          },
          {
            "duration": 0.01146747916665447,
            "durationTicks": 8,
            "midi": 35,
            "name": "B1",
            "ticks": 81404,
            "time": 116.10714626041667,
            "velocity": 0.8661417322834646
          },
          {
            "duration": 0.011467479166668682,
            "durationTicks": 8,
            "midi": 59,
            "name": "B3",
            "ticks": 81408,
            "time": 116.11288,
            "velocity": 0.6614173228346457
          },
          {
            "duration": 0.011467479166668682,
            "durationTicks": 8,
            "midi": 42,
            "name": "F#2",
            "ticks": 81594,
            "time": 116.379498890625,
            "velocity": 0.7480314960629921
          },
          {
            "duration": 0.011467479166668682,
            "durationTicks": 8,
            "midi": 42,
            "name": "F#2",
            "ticks": 81690,
            "time": 116.517108640625,
            "velocity": 0.6929133858267716
          },
          {
            "duration": 0.011467479166668682,
            "durationTicks": 8,
            "midi": 38,
            "name": "D2",
            "ticks": 81784,
            "time": 116.65185152083333,
            "velocity": 0.8110236220472441
          },
          {
            "duration": 0.011467479166682892,
            "durationTicks": 8,
            "midi": 42,
            "name": "F#2",
            "ticks": 81786,
            "time": 116.65471839062499,
            "velocity": 0.6692913385826772
          },
          {
            "duration": 0.011467479166682892,
            "durationTicks": 8,
            "midi": 59,
            "name": "B3",
            "ticks": 81786,
            "time": 116.65471839062499,
            "velocity": 0.6220472440944882
          },
          {
            "duration": 0.011467479166668682,
            "durationTicks": 8,
            "midi": 35,
            "name": "B1",
            "ticks": 81982,
            "time": 116.93567163020833,
            "velocity": 0.6377952755905512
          },
          {
            "duration": 0.011467479166682892,
            "durationTicks": 8,
            "midi": 42,
            "name": "F#2",
            "ticks": 81984,
            "time": 116.93853849999999,
            "velocity": 0.7637795275590551
          },
          {
            "duration": 0.011467479166668682,
            "durationTicks": 8,
            "midi": 35,
            "name": "B1",
            "ticks": 82168,
            "time": 117.20229052083333,
            "velocity": 0.8661417322834646
          },
          {
            "duration": 0.011467479166668682,
            "durationTicks": 8,
            "midi": 42,
            "name": "F#2",
            "ticks": 82170,
            "time": 117.205157390625,
            "velocity": 0.6929133858267716
          },
          {
            "duration": 0.011467479166668682,
            "durationTicks": 8,
            "midi": 59,
            "name": "B3",
            "ticks": 82170,
            "time": 117.205157390625,
            "velocity": 0.6850393700787402
          },
          {
            "duration": 0.011467479166668682,
            "durationTicks": 8,
            "midi": 42,
            "name": "F#2",
            "ticks": 82368,
            "time": 117.4889775,
            "velocity": 0.7480314960629921
          },
          {
            "duration": 0.01146747916665447,
            "durationTicks": 8,
            "midi": 42,
            "name": "F#2",
            "ticks": 82556,
            "time": 117.75846326041668,
            "velocity": 0.7401574803149606
          },
          {
            "duration": 0.011467479166682892,
            "durationTicks": 8,
            "midi": 59,
            "name": "B3",
            "ticks": 82558,
            "time": 117.76133013020832,
            "velocity": 0.6692913385826772
          },
          {
            "duration": 0.011467479166668682,
            "durationTicks": 8,
            "midi": 38,
            "name": "D2",
            "ticks": 82560,
            "time": 117.764197,
            "velocity": 0.8661417322834646
          },
          {
            "duration": 0.011467479166668682,
            "durationTicks": 8,
            "midi": 42,
            "name": "F#2",
            "ticks": 82744,
            "time": 118.02794902083333,
            "velocity": 0.7165354330708661
          },
          {
            "duration": 0.01146747916665447,
            "durationTicks": 8,
            "midi": 35,
            "name": "B1",
            "ticks": 82748,
            "time": 118.03368276041667,
            "velocity": 0.7401574803149606
          },
          {
            "duration": 0.011467479166668682,
            "durationTicks": 8,
            "midi": 35,
            "name": "B1",
            "ticks": 82938,
            "time": 118.306035390625,
            "velocity": 0.889763779527559
          },
          {
            "duration": 0.01146747916665447,
            "durationTicks": 8,
            "midi": 49,
            "name": "C#3",
            "ticks": 82940,
            "time": 118.30890226041667,
            "velocity": 0.4566929133858268
          },
          {
            "duration": 0.011467479166682892,
            "durationTicks": 8,
            "midi": 59,
            "name": "B3",
            "ticks": 82944,
            "time": 118.314636,
            "velocity": 0.6614173228346457
          },
          {
            "duration": 0.011467479166668682,
            "durationTicks": 8,
            "midi": 42,
            "name": "F#2",
            "ticks": 83130,
            "time": 118.581254890625,
            "velocity": 0.7480314960629921
          },
          {
            "duration": 0.011467479166668682,
            "durationTicks": 8,
            "midi": 42,
            "name": "F#2",
            "ticks": 83224,
            "time": 118.71599777083333,
            "velocity": 0.6456692913385826
          },
          {
            "duration": 0.011467479166682892,
            "durationTicks": 8,
            "midi": 38,
            "name": "D2",
            "ticks": 83320,
            "time": 118.85360752083332,
            "velocity": 0.8503937007874016
          },
          {
            "duration": 0.01146747916665447,
            "durationTicks": 8,
            "midi": 42,
            "name": "F#2",
            "ticks": 83324,
            "time": 118.85934126041667,
            "velocity": 0.7952755905511811
          },
          {
            "duration": 0.01146747916665447,
            "durationTicks": 8,
            "midi": 59,
            "name": "B3",
            "ticks": 83324,
            "time": 118.85934126041667,
            "velocity": 0.6929133858267716
          },
          {
            "duration": 0.011467479166668682,
            "durationTicks": 8,
            "midi": 35,
            "name": "B1",
            "ticks": 83512,
            "time": 119.12882702083333,
            "velocity": 0.6456692913385826
          },
          {
            "duration": 0.011467479166682892,
            "durationTicks": 8,
            "midi": 42,
            "name": "F#2",
            "ticks": 83518,
            "time": 119.13742763020832,
            "velocity": 0.7165354330708661
          },
          {
            "duration": 0.011467479166682892,
            "durationTicks": 8,
            "midi": 42,
            "name": "F#2",
            "ticks": 83706,
            "time": 119.406913390625,
            "velocity": 0.7637795275590551
          },
          {
            "duration": 0.011467479166682892,
            "durationTicks": 8,
            "midi": 59,
            "name": "B3",
            "ticks": 83706,
            "time": 119.406913390625,
            "velocity": 0.6850393700787402
          },
          {
            "duration": 0.011467479166668682,
            "durationTicks": 8,
            "midi": 35,
            "name": "B1",
            "ticks": 83710,
            "time": 119.41264713020833,
            "velocity": 0.8740157480314961
          },
          {
            "duration": 0.011467479166668682,
            "durationTicks": 8,
            "midi": 42,
            "name": "F#2",
            "ticks": 83902,
            "time": 119.68786663020833,
            "velocity": 0.7401574803149606
          },
          {
            "duration": 0.011467479166668682,
            "durationTicks": 8,
            "midi": 59,
            "name": "B3",
            "ticks": 84090,
            "time": 119.957352390625,
            "velocity": 0.6614173228346457
          },
          {
            "duration": 0.011467479166668682,
            "durationTicks": 8,
            "midi": 42,
            "name": "F#2",
            "ticks": 84094,
            "time": 119.96308613020832,
            "velocity": 0.7637795275590551
          },
          {
            "duration": 0.011467479166668682,
            "durationTicks": 8,
            "midi": 38,
            "name": "D2",
            "ticks": 84096,
            "time": 119.965953,
            "velocity": 0.8110236220472441
          },
          {
            "duration": 0.01146747916665447,
            "durationTicks": 8,
            "midi": 42,
            "name": "F#2",
            "ticks": 84284,
            "time": 120.23543876041667,
            "velocity": 0.7165354330708661
          },
          {
            "duration": 0.011467479166668682,
            "durationTicks": 8,
            "midi": 42,
            "name": "F#2",
            "ticks": 84474,
            "time": 120.507791390625,
            "velocity": 0.7637795275590551
          },
          {
            "duration": 0.011467479166668682,
            "durationTicks": 8,
            "midi": 35,
            "name": "B1",
            "ticks": 84480,
            "time": 120.516392,
            "velocity": 0.8661417322834646
          },
          {
            "duration": 0.011467479166668682,
            "durationTicks": 8,
            "midi": 59,
            "name": "B3",
            "ticks": 84480,
            "time": 120.516392,
            "velocity": 0.6614173228346457
          },
          {
            "duration": 0.011467479166668682,
            "durationTicks": 8,
            "midi": 42,
            "name": "F#2",
            "ticks": 84664,
            "time": 120.78014402083333,
            "velocity": 0.6850393700787402
          },
          {
            "duration": 0.011467479166668682,
            "durationTicks": 8,
            "midi": 42,
            "name": "F#2",
            "ticks": 84762,
            "time": 120.920620640625,
            "velocity": 0.7165354330708661
          },
          {
            "duration": 0.011467479166668682,
            "durationTicks": 8,
            "midi": 38,
            "name": "D2",
            "ticks": 84858,
            "time": 121.058230390625,
            "velocity": 0.8661417322834646
          },
          {
            "duration": 0.011467479166668682,
            "durationTicks": 8,
            "midi": 42,
            "name": "F#2",
            "ticks": 84858,
            "time": 121.058230390625,
            "velocity": 0.7322834645669292
          },
          {
            "duration": 0.01146747916665447,
            "durationTicks": 8,
            "midi": 59,
            "name": "B3",
            "ticks": 84860,
            "time": 121.06109726041667,
            "velocity": 0.6692913385826772
          },
          {
            "duration": 0.011467479166668682,
            "durationTicks": 8,
            "midi": 35,
            "name": "B1",
            "ticks": 85054,
            "time": 121.33918363020832,
            "velocity": 0.6692913385826772
          },
          {
            "duration": 0.011467479166668682,
            "durationTicks": 8,
            "midi": 42,
            "name": "F#2",
            "ticks": 85056,
            "time": 121.3420505,
            "velocity": 0.7795275590551181
          },
          {
            "duration": 0.01146747916665447,
            "durationTicks": 8,
            "midi": 49,
            "name": "C#3",
            "ticks": 85244,
            "time": 121.61153626041667,
            "velocity": 0.6692913385826772
          },
          {
            "duration": 0.011467479166668682,
            "durationTicks": 8,
            "midi": 59,
            "name": "B3",
            "ticks": 85246,
            "time": 121.61440313020833,
            "velocity": 0.6614173228346457
          },
          {
            "duration": 0.011467479166668682,
            "durationTicks": 8,
            "midi": 35,
            "name": "B1",
            "ticks": 85248,
            "time": 121.61727,
            "velocity": 0.889763779527559
          },
          {
            "duration": 0.011467479166668682,
            "durationTicks": 8,
            "midi": 57,
            "name": "A3",
            "ticks": 85624,
            "time": 122.15624152083333,
            "velocity": 0.7401574803149606
          },
          {
            "duration": 0.01146747916665447,
            "durationTicks": 8,
            "midi": 38,
            "name": "D2",
            "ticks": 85628,
            "time": 122.16197526041667,
            "velocity": 0.8503937007874016
          },
          {
            "duration": 0.01146747916665447,
            "durationTicks": 8,
            "midi": 59,
            "name": "B3",
            "ticks": 85628,
            "time": 122.16197526041667,
            "velocity": 0.6929133858267716
          },
          {
            "duration": 0.01146747916665447,
            "durationTicks": 8,
            "midi": 35,
            "name": "B1",
            "ticks": 85820,
            "time": 122.43719476041667,
            "velocity": 0.7480314960629921
          },
          {
            "duration": 0.011467479166668682,
            "durationTicks": 8,
            "midi": 59,
            "name": "B3",
            "ticks": 86010,
            "time": 122.709547390625,
            "velocity": 0.6850393700787402
          },
          {
            "duration": 0.011467479166668682,
            "durationTicks": 8,
            "midi": 35,
            "name": "B1",
            "ticks": 86012,
            "time": 122.71241426041667,
            "velocity": 0.8740157480314961
          },
          {
            "duration": 0.011467479166668682,
            "durationTicks": 8,
            "midi": 49,
            "name": "C#3",
            "ticks": 86012,
            "time": 122.71241426041667,
            "velocity": 0.7480314960629921
          },
          {
            "duration": 0.011467479166668682,
            "durationTicks": 8,
            "midi": 42,
            "name": "F#2",
            "ticks": 86202,
            "time": 122.984766890625,
            "velocity": 0.7480314960629921
          },
          {
            "duration": 0.01146747916665447,
            "durationTicks": 8,
            "midi": 42,
            "name": "F#2",
            "ticks": 86300,
            "time": 123.12524351041667,
            "velocity": 0.7322834645669292
          },
          {
            "duration": 0.011467479166668682,
            "durationTicks": 8,
            "midi": 38,
            "name": "D2",
            "ticks": 86394,
            "time": 123.259986390625,
            "velocity": 0.8503937007874016
          },
          {
            "duration": 0.011467479166668682,
            "durationTicks": 8,
            "midi": 59,
            "name": "B3",
            "ticks": 86394,
            "time": 123.259986390625,
            "velocity": 0.6614173228346457
          },
          {
            "duration": 0.01146747916665447,
            "durationTicks": 8,
            "midi": 42,
            "name": "F#2",
            "ticks": 86396,
            "time": 123.26285326041668,
            "velocity": 0.7637795275590551
          },
          {
            "duration": 0.011467479166668682,
            "durationTicks": 8,
            "midi": 42,
            "name": "F#2",
            "ticks": 86584,
            "time": 123.53233902083333,
            "velocity": 0.6929133858267716
          },
          {
            "duration": 0.01146747916665447,
            "durationTicks": 8,
            "midi": 35,
            "name": "B1",
            "ticks": 86588,
            "time": 123.53807276041667,
            "velocity": 0.6929133858267716
          },
          {
            "duration": 0.01146747916665447,
            "durationTicks": 8,
            "midi": 42,
            "name": "F#2",
            "ticks": 86780,
            "time": 123.81329226041667,
            "velocity": 0.7480314960629921
          },
          {
            "duration": 0.011467479166668682,
            "durationTicks": 8,
            "midi": 59,
            "name": "B3",
            "ticks": 86782,
            "time": 123.81615913020833,
            "velocity": 0.6692913385826772
          },
          {
            "duration": 0.011467479166682892,
            "durationTicks": 8,
            "midi": 35,
            "name": "B1",
            "ticks": 86784,
            "time": 123.819026,
            "velocity": 0.905511811023622
          },
          {
            "duration": 0.011467479166668682,
            "durationTicks": 8,
            "midi": 42,
            "name": "F#2",
            "ticks": 86974,
            "time": 124.09137863020833,
            "velocity": 0.6929133858267716
          },
          {
            "duration": 0.011467479166682892,
            "durationTicks": 8,
            "midi": 42,
            "name": "F#2",
            "ticks": 87160,
            "time": 124.35799752083332,
            "velocity": 0.7480314960629921
          },
          {
            "duration": 0.01146747916665447,
            "durationTicks": 8,
            "midi": 59,
            "name": "B3",
            "ticks": 87164,
            "time": 124.36373126041667,
            "velocity": 0.6850393700787402
          },
          {
            "duration": 0.011467479166668682,
            "durationTicks": 8,
            "midi": 38,
            "name": "D2",
            "ticks": 87168,
            "time": 124.369465,
            "velocity": 0.8346456692913385
          },
          {
            "duration": 0.011467479166682892,
            "durationTicks": 8,
            "midi": 42,
            "name": "F#2",
            "ticks": 87358,
            "time": 124.64181763020832,
            "velocity": 0.7165354330708661
          },
          {
            "duration": 0.011467479166668682,
            "durationTicks": 8,
            "midi": 35,
            "name": "B1",
            "ticks": 87544,
            "time": 124.90843652083333,
            "velocity": 0.889763779527559
          },
          {
            "duration": 0.011467479166668682,
            "durationTicks": 8,
            "midi": 42,
            "name": "F#2",
            "ticks": 87550,
            "time": 124.91703713020833,
            "velocity": 0.7480314960629921
          },
          {
            "duration": 0.011467479166668682,
            "durationTicks": 8,
            "midi": 59,
            "name": "B3",
            "ticks": 87550,
            "time": 124.91703713020833,
            "velocity": 0.6850393700787402
          },
          {
            "duration": 0.011467479166668682,
            "durationTicks": 8,
            "midi": 42,
            "name": "F#2",
            "ticks": 87742,
            "time": 125.19225663020833,
            "velocity": 0.6692913385826772
          },
          {
            "duration": 0.011467479166682892,
            "durationTicks": 8,
            "midi": 42,
            "name": "F#2",
            "ticks": 87832,
            "time": 125.32126577083332,
            "velocity": 0.6692913385826772
          },
          {
            "duration": 0.011467479166668682,
            "durationTicks": 8,
            "midi": 59,
            "name": "B3",
            "ticks": 87928,
            "time": 125.45887552083333,
            "velocity": 0.6929133858267716
          },
          {
            "duration": 0.011467479166668682,
            "durationTicks": 8,
            "midi": 38,
            "name": "D2",
            "ticks": 87932,
            "time": 125.46460926041667,
            "velocity": 0.8661417322834646
          },
          {
            "duration": 0.011467479166668682,
            "durationTicks": 8,
            "midi": 42,
            "name": "F#2",
            "ticks": 87934,
            "time": 125.46747613020833,
            "velocity": 0.6692913385826772
          },
          {
            "duration": 0.011467479166668682,
            "durationTicks": 8,
            "midi": 35,
            "name": "B1",
            "ticks": 88128,
            "time": 125.7455625,
            "velocity": 0.6771653543307087
          },
          {
            "duration": 0.011467479166668682,
            "durationTicks": 8,
            "midi": 42,
            "name": "F#2",
            "ticks": 88128,
            "time": 125.7455625,
            "velocity": 0.7480314960629921
          },
          {
            "duration": 0.011467479166668682,
            "durationTicks": 8,
            "midi": 35,
            "name": "B1",
            "ticks": 88312,
            "time": 126.00931452083333,
            "velocity": 0.8740157480314961
          },
          {
            "duration": 0.011467479166668682,
            "durationTicks": 8,
            "midi": 42,
            "name": "F#2",
            "ticks": 88312,
            "time": 126.00931452083333,
            "velocity": 0.6850393700787402
          },
          {
            "duration": 0.011467479166668682,
            "durationTicks": 8,
            "midi": 59,
            "name": "B3",
            "ticks": 88320,
            "time": 126.020782,
            "velocity": 0.7165354330708661
          },
          {
            "duration": 0.011467479166682892,
            "durationTicks": 8,
            "midi": 42,
            "name": "F#2",
            "ticks": 88506,
            "time": 126.287400890625,
            "velocity": 0.7480314960629921
          },
          {
            "duration": 0.011467479166668682,
            "durationTicks": 8,
            "midi": 59,
            "name": "B3",
            "ticks": 88698,
            "time": 126.562620390625,
            "velocity": 0.7165354330708661
          },
          {
            "duration": 0.01146747916665447,
            "durationTicks": 8,
            "midi": 38,
            "name": "D2",
            "ticks": 88700,
            "time": 126.56548726041667,
            "velocity": 0.8740157480314961
          },
          {
            "duration": 0.01146747916665447,
            "durationTicks": 8,
            "midi": 42,
            "name": "F#2",
            "ticks": 88700,
            "time": 126.56548726041667,
            "velocity": 0.6929133858267716
          },
          {
            "duration": 0.011467479166668682,
            "durationTicks": 8,
            "midi": 35,
            "name": "B1",
            "ticks": 88894,
            "time": 126.84357363020833,
            "velocity": 0.7480314960629921
          },
          {
            "duration": 0.011467479166668682,
            "durationTicks": 8,
            "midi": 42,
            "name": "F#2",
            "ticks": 88894,
            "time": 126.84357363020833,
            "velocity": 0.7401574803149606
          },
          {
            "duration": 0.011467479166668682,
            "durationTicks": 8,
            "midi": 35,
            "name": "B1",
            "ticks": 89082,
            "time": 127.113059390625,
            "velocity": 0.889763779527559
          },
          {
            "duration": 0.011467479166668682,
            "durationTicks": 8,
            "midi": 42,
            "name": "F#2",
            "ticks": 89088,
            "time": 127.12166,
            "velocity": 0.8503937007874016
          },
          {
            "duration": 0.011467479166668682,
            "durationTicks": 8,
            "midi": 42,
            "name": "F#2",
            "ticks": 90432,
            "time": 129.04819650000002,
            "velocity": 0.7952755905511811
          },
          {
            "duration": 0.011467479166668682,
            "durationTicks": 8,
            "midi": 35,
            "name": "B1",
            "ticks": 90618,
            "time": 129.314815390625,
            "velocity": 0.889763779527559
          },
          {
            "duration": 0.011467479166668682,
            "durationTicks": 8,
            "midi": 42,
            "name": "F#2",
            "ticks": 90624,
            "time": 129.323416,
            "velocity": 0.6929133858267716
          },
          {
            "duration": 0.011467479166668682,
            "durationTicks": 8,
            "midi": 42,
            "name": "F#2",
            "ticks": 90808,
            "time": 129.58716802083333,
            "velocity": 0.7322834645669292
          },
          {
            "duration": 0.011467479166697103,
            "durationTicks": 8,
            "midi": 42,
            "name": "F#2",
            "ticks": 90906,
            "time": 129.727644640625,
            "velocity": 0.6062992125984252
          },
          {
            "duration": 0.011467479166668682,
            "durationTicks": 8,
            "midi": 38,
            "name": "D2",
            "ticks": 91002,
            "time": 129.865254390625,
            "velocity": 0.7952755905511811
          },
          {
            "duration": 0.011467479166668682,
            "durationTicks": 8,
            "midi": 42,
            "name": "F#2",
            "ticks": 91004,
            "time": 129.86812126041667,
            "velocity": 0.7637795275590551
          },
          {
            "duration": 0.011467479166668682,
            "durationTicks": 8,
            "midi": 42,
            "name": "F#2",
            "ticks": 91194,
            "time": 130.140473890625,
            "velocity": 0.7480314960629921
          },
          {
            "duration": 0.011467479166668682,
            "durationTicks": 8,
            "midi": 35,
            "name": "B1",
            "ticks": 91198,
            "time": 130.14620763020832,
            "velocity": 0.6614173228346457
          },
          {
            "duration": 0.011467479166668682,
            "durationTicks": 8,
            "midi": 35,
            "name": "B1",
            "ticks": 91384,
            "time": 130.41282652083333,
            "velocity": 0.8503937007874016
          },
          {
            "duration": 0.01146747916664026,
            "durationTicks": 8,
            "midi": 42,
            "name": "F#2",
            "ticks": 91388,
            "time": 130.41856026041668,
            "velocity": 0.7637795275590551
          },
          {
            "duration": 0.011467479166697103,
            "durationTicks": 8,
            "midi": 42,
            "name": "F#2",
            "ticks": 91578,
            "time": 130.690912890625,
            "velocity": 0.7401574803149606
          },
          {
            "duration": 0.011467479166668682,
            "durationTicks": 8,
            "midi": 42,
            "name": "F#2",
            "ticks": 91770,
            "time": 130.966132390625,
            "velocity": 0.7480314960629921
          },
          {
            "duration": 0.011467479166697103,
            "durationTicks": 8,
            "midi": 38,
            "name": "D2",
            "ticks": 91776,
            "time": 130.974733,
            "velocity": 0.8661417322834646
          },
          {
            "duration": 0.011467479166668682,
            "durationTicks": 8,
            "midi": 42,
            "name": "F#2",
            "ticks": 91960,
            "time": 131.23848502083334,
            "velocity": 0.7401574803149606
          },
          {
            "duration": 0.011467479166668682,
            "durationTicks": 8,
            "midi": 35,
            "name": "B1",
            "ticks": 92152,
            "time": 131.51370452083333,
            "velocity": 0.8740157480314961
          },
          {
            "duration": 0.011467479166668682,
            "durationTicks": 8,
            "midi": 42,
            "name": "F#2",
            "ticks": 92160,
            "time": 131.525172,
            "velocity": 0.7480314960629921
          },
          {
            "duration": 0.011467479166668682,
            "durationTicks": 8,
            "midi": 42,
            "name": "F#2",
            "ticks": 92350,
            "time": 131.79752463020833,
            "velocity": 0.6850393700787402
          },
          {
            "duration": 0.011467479166668682,
            "durationTicks": 8,
            "midi": 42,
            "name": "F#2",
            "ticks": 92446,
            "time": 131.93513438020832,
            "velocity": 0.7401574803149606
          },
          {
            "duration": 0.011467479166668682,
            "durationTicks": 8,
            "midi": 42,
            "name": "F#2",
            "ticks": 92538,
            "time": 132.067010390625,
            "velocity": 0.6850393700787402
          },
          {
            "duration": 0.011467479166668682,
            "durationTicks": 8,
            "midi": 38,
            "name": "D2",
            "ticks": 92540,
            "time": 132.06987726041666,
            "velocity": 0.8346456692913385
          },
          {
            "duration": 0.011467479166668682,
            "durationTicks": 8,
            "midi": 42,
            "name": "F#2",
            "ticks": 92730,
            "time": 132.342229890625,
            "velocity": 0.7322834645669292
          },
          {
            "duration": 0.011467479166668682,
            "durationTicks": 8,
            "midi": 35,
            "name": "B1",
            "ticks": 92734,
            "time": 132.34796363020834,
            "velocity": 0.6299212598425197
          },
          {
            "duration": 0.011467479166668682,
            "durationTicks": 8,
            "midi": 35,
            "name": "B1",
            "ticks": 92922,
            "time": 132.617449390625,
            "velocity": 0.889763779527559
          },
          {
            "duration": 0.011467479166668682,
            "durationTicks": 8,
            "midi": 42,
            "name": "F#2",
            "ticks": 92926,
            "time": 132.62318313020833,
            "velocity": 0.6929133858267716
          },
          {
            "duration": 0.011467479166668682,
            "durationTicks": 8,
            "midi": 42,
            "name": "F#2",
            "ticks": 93118,
            "time": 132.89840263020832,
            "velocity": 0.7480314960629921
          },
          {
            "duration": 0.011467479166668682,
            "durationTicks": 8,
            "midi": 42,
            "name": "F#2",
            "ticks": 93304,
            "time": 133.16502152083333,
            "velocity": 0.7322834645669292
          },
          {
            "duration": 0.011467479166697103,
            "durationTicks": 8,
            "midi": 38,
            "name": "D2",
            "ticks": 93310,
            "time": 133.17362213020832,
            "velocity": 0.8346456692913385
          },
          {
            "duration": 0.011467479166697103,
            "durationTicks": 8,
            "midi": 42,
            "name": "F#2",
            "ticks": 93498,
            "time": 133.443107890625,
            "velocity": 0.7322834645669292
          },
          {
            "duration": 0.011467479166668682,
            "durationTicks": 8,
            "midi": 42,
            "name": "F#2",
            "ticks": 93690,
            "time": 133.718327390625,
            "velocity": 0.7401574803149606
          },
          {
            "duration": 0.011467479166668682,
            "durationTicks": 8,
            "midi": 35,
            "name": "B1",
            "ticks": 93694,
            "time": 133.72406113020833,
            "velocity": 0.905511811023622
          },
          {
            "duration": 0.011467479166668682,
            "durationTicks": 8,
            "midi": 42,
            "name": "F#2",
            "ticks": 93886,
            "time": 133.99928063020832,
            "velocity": 0.6929133858267716
          },
          {
            "duration": 0.011467479166668682,
            "durationTicks": 8,
            "midi": 42,
            "name": "F#2",
            "ticks": 93978,
            "time": 134.131156640625,
            "velocity": 0.6456692913385826
          },
          {
            "duration": 0.011467479166668682,
            "durationTicks": 8,
            "midi": 42,
            "name": "F#2",
            "ticks": 94074,
            "time": 134.268766390625,
            "velocity": 0.7795275590551181
          },
          {
            "duration": 0.011467479166668682,
            "durationTicks": 8,
            "midi": 38,
            "name": "D2",
            "ticks": 94080,
            "time": 134.277367,
            "velocity": 0.8503937007874016
          },
          {
            "duration": 0.011467479166668682,
            "durationTicks": 8,
            "midi": 42,
            "name": "F#2",
            "ticks": 94268,
            "time": 134.54685276041667,
            "velocity": 0.6850393700787402
          },
          {
            "duration": 0.011467479166668682,
            "durationTicks": 8,
            "midi": 35,
            "name": "B1",
            "ticks": 94272,
            "time": 134.5525865,
            "velocity": 0.6929133858267716
          },
          {
            "duration": 0.011467479166668682,
            "durationTicks": 8,
            "midi": 42,
            "name": "F#2",
            "ticks": 94456,
            "time": 134.81633852083334,
            "velocity": 0.7401574803149606
          },
          {
            "duration": 0.011467479166668682,
            "durationTicks": 8,
            "midi": 35,
            "name": "B1",
            "ticks": 94464,
            "time": 134.827806,
            "velocity": 0.889763779527559
          },
          {
            "duration": 0.01146747916664026,
            "durationTicks": 8,
            "midi": 42,
            "name": "F#2",
            "ticks": 94652,
            "time": 135.09729176041668,
            "velocity": 0.6929133858267716
          },
          {
            "duration": 0.011467479166668682,
            "durationTicks": 8,
            "midi": 38,
            "name": "D2",
            "ticks": 94846,
            "time": 135.37537813020833,
            "velocity": 0.8503937007874016
          },
          {
            "duration": 0.011467479166668682,
            "durationTicks": 8,
            "midi": 42,
            "name": "F#2",
            "ticks": 94848,
            "time": 135.378245,
            "velocity": 0.7401574803149606
          },
          {
            "duration": 0.011467479166668682,
            "durationTicks": 8,
            "midi": 42,
            "name": "F#2",
            "ticks": 95040,
            "time": 135.6534645,
            "velocity": 0.7401574803149606
          },
          {
            "duration": 0.011467479166668682,
            "durationTicks": 8,
            "midi": 35,
            "name": "B1",
            "ticks": 95224,
            "time": 135.91721652083334,
            "velocity": 0.889763779527559
          },
          {
            "duration": 0.01146747916664026,
            "durationTicks": 8,
            "midi": 42,
            "name": "F#2",
            "ticks": 95228,
            "time": 135.92295026041668,
            "velocity": 0.7480314960629921
          },
          {
            "duration": 0.011467479166668682,
            "durationTicks": 8,
            "midi": 42,
            "name": "F#2",
            "ticks": 95424,
            "time": 136.2039035,
            "velocity": 0.7322834645669292
          },
          {
            "duration": 0.011467479166668682,
            "durationTicks": 8,
            "midi": 42,
            "name": "F#2",
            "ticks": 95520,
            "time": 136.34151325,
            "velocity": 0.7165354330708661
          },
          {
            "duration": 0.011467479166668682,
            "durationTicks": 8,
            "midi": 38,
            "name": "D2",
            "ticks": 95612,
            "time": 136.47338926041667,
            "velocity": 0.8503937007874016
          },
          {
            "duration": 0.011467479166697103,
            "durationTicks": 8,
            "midi": 42,
            "name": "F#2",
            "ticks": 95616,
            "time": 136.479123,
            "velocity": 0.6692913385826772
          },
          {
            "duration": 0.011467479166668682,
            "durationTicks": 8,
            "midi": 42,
            "name": "F#2",
            "ticks": 95800,
            "time": 136.74287502083334,
            "velocity": 0.7401574803149606
          },
          {
            "duration": 0.011467479166668682,
            "durationTicks": 8,
            "midi": 35,
            "name": "B1",
            "ticks": 95802,
            "time": 136.745741890625,
            "velocity": 0.6850393700787402
          },
          {
            "duration": 0.011467479166668682,
            "durationTicks": 8,
            "midi": 42,
            "name": "F#2",
            "ticks": 95994,
            "time": 137.020961390625,
            "velocity": 0.7322834645669292
          },
          {
            "duration": 0.01146747916664026,
            "durationTicks": 8,
            "midi": 35,
            "name": "B1",
            "ticks": 95996,
            "time": 137.02382826041668,
            "velocity": 0.8661417322834646
          },
          {
            "duration": 0.011467479166668682,
            "durationTicks": 8,
            "midi": 42,
            "name": "F#2",
            "ticks": 96188,
            "time": 137.29904776041667,
            "velocity": 0.7322834645669292
          },
          {
            "duration": 0.011467479166668682,
            "durationTicks": 8,
            "midi": 38,
            "name": "D2",
            "ticks": 96378,
            "time": 137.571400390625,
            "velocity": 0.7952755905511811
          },
          {
            "duration": 0.011467479166668682,
            "durationTicks": 8,
            "midi": 42,
            "name": "F#2",
            "ticks": 96384,
            "time": 137.580001,
            "velocity": 0.7480314960629921
          },
          {
            "duration": 0.011467479166668682,
            "durationTicks": 8,
            "midi": 42,
            "name": "F#2",
            "ticks": 96574,
            "time": 137.85235363020834,
            "velocity": 0.7322834645669292
          },
          {
            "duration": 0.011467479166668682,
            "durationTicks": 8,
            "midi": 35,
            "name": "B1",
            "ticks": 96766,
            "time": 138.12757313020833,
            "velocity": 0.8661417322834646
          },
          {
            "duration": 0.011467479166668682,
            "durationTicks": 8,
            "midi": 42,
            "name": "F#2",
            "ticks": 96768,
            "time": 138.13044,
            "velocity": 0.6929133858267716
          },
          {
            "duration": 0.011467479166668682,
            "durationTicks": 8,
            "midi": 42,
            "name": "F#2",
            "ticks": 96960,
            "time": 138.4056595,
            "velocity": 0.6850393700787402
          },
          {
            "duration": 0.011467479166668682,
            "durationTicks": 8,
            "midi": 42,
            "name": "F#2",
            "ticks": 97050,
            "time": 138.534668640625,
            "velocity": 0.6220472440944882
          },
          {
            "duration": 0.01146747916664026,
            "durationTicks": 8,
            "midi": 38,
            "name": "D2",
            "ticks": 97148,
            "time": 138.67514526041668,
            "velocity": 0.8188976377952756
          },
          {
            "duration": 0.01146747916664026,
            "durationTicks": 8,
            "midi": 42,
            "name": "F#2",
            "ticks": 97148,
            "time": 138.67514526041668,
            "velocity": 0.7480314960629921
          },
          {
            "duration": 0.011467479166668682,
            "durationTicks": 8,
            "midi": 42,
            "name": "F#2",
            "ticks": 97336,
            "time": 138.94463102083333,
            "velocity": 0.7165354330708661
          },
          {
            "duration": 0.011467479166668682,
            "durationTicks": 8,
            "midi": 35,
            "name": "B1",
            "ticks": 97342,
            "time": 138.95323163020834,
            "velocity": 0.6377952755905512
          },
          {
            "duration": 0.011467479166668682,
            "durationTicks": 8,
            "midi": 35,
            "name": "B1",
            "ticks": 97534,
            "time": 139.22845113020833,
            "velocity": 0.8503937007874016
          },
          {
            "duration": 0.011467479166697103,
            "durationTicks": 8,
            "midi": 42,
            "name": "F#2",
            "ticks": 97536,
            "time": 139.231318,
            "velocity": 0.7401574803149606
          },
          {
            "duration": 0.011467479166668682,
            "durationTicks": 8,
            "midi": 42,
            "name": "F#2",
            "ticks": 97726,
            "time": 139.50367063020832,
            "velocity": 0.6929133858267716
          },
          {
            "duration": 0.011467479166668682,
            "durationTicks": 8,
            "midi": 38,
            "name": "D2",
            "ticks": 97914,
            "time": 139.773156390625,
            "velocity": 0.8661417322834646
          },
          {
            "duration": 0.011467479166668682,
            "durationTicks": 8,
            "midi": 42,
            "name": "F#2",
            "ticks": 97920,
            "time": 139.781757,
            "velocity": 0.7165354330708661
          },
          {
            "duration": 0.011467479166668682,
            "durationTicks": 8,
            "midi": 42,
            "name": "F#2",
            "ticks": 98106,
            "time": 140.048375890625,
            "velocity": 0.7165354330708661
          },
          {
            "duration": 0.011467479166668682,
            "durationTicks": 8,
            "midi": 35,
            "name": "B1",
            "ticks": 98298,
            "time": 140.323595390625,
            "velocity": 0.889763779527559
          },
          {
            "duration": 0.011467479166668682,
            "durationTicks": 8,
            "midi": 42,
            "name": "F#2",
            "ticks": 98298,
            "time": 140.323595390625,
            "velocity": 0.7401574803149606
          },
          {
            "duration": 0.011467479166668682,
            "durationTicks": 8,
            "midi": 42,
            "name": "F#2",
            "ticks": 98488,
            "time": 140.59594802083333,
            "velocity": 0.6850393700787402
          },
          {
            "duration": 0.01146747916664026,
            "durationTicks": 8,
            "midi": 42,
            "name": "F#2",
            "ticks": 98588,
            "time": 140.73929151041668,
            "velocity": 0.6062992125984252
          },
          {
            "duration": 0.011467479166668682,
            "durationTicks": 8,
            "midi": 42,
            "name": "F#2",
            "ticks": 98682,
            "time": 140.874034390625,
            "velocity": 0.7322834645669292
          },
          {
            "duration": 0.011467479166668682,
            "durationTicks": 8,
            "midi": 38,
            "name": "D2",
            "ticks": 98688,
            "time": 140.882635,
            "velocity": 0.8188976377952756
          },
          {
            "duration": 0.011467479166697103,
            "durationTicks": 8,
            "midi": 42,
            "name": "F#2",
            "ticks": 98872,
            "time": 141.14638702083332,
            "velocity": 0.7480314960629921
          },
          {
            "duration": 0.011467479166668682,
            "durationTicks": 8,
            "midi": 35,
            "name": "B1",
            "ticks": 98880,
            "time": 141.1578545,
            "velocity": 0.6929133858267716
          },
          {
            "duration": 0.011467479166668682,
            "durationTicks": 8,
            "midi": 35,
            "name": "B1",
            "ticks": 99066,
            "time": 141.424473390625,
            "velocity": 0.905511811023622
          },
          {
            "duration": 0.011467479166668682,
            "durationTicks": 8,
            "midi": 42,
            "name": "F#2",
            "ticks": 99072,
            "time": 141.433074,
            "velocity": 0.7165354330708661
          },
          {
            "duration": 0.011467479166668682,
            "durationTicks": 8,
            "midi": 42,
            "name": "F#2",
            "ticks": 99264,
            "time": 141.7082935,
            "velocity": 0.7322834645669292
          },
          {
            "duration": 0.011467479166668682,
            "durationTicks": 8,
            "midi": 38,
            "name": "D2",
            "ticks": 99450,
            "time": 141.974912390625,
            "velocity": 0.7952755905511811
          },
          {
            "duration": 0.011467479166668682,
            "durationTicks": 8,
            "midi": 42,
            "name": "F#2",
            "ticks": 99454,
            "time": 141.98064613020833,
            "velocity": 0.6929133858267716
          },
          {
            "duration": 0.011467479166668682,
            "durationTicks": 8,
            "midi": 42,
            "name": "F#2",
            "ticks": 99648,
            "time": 142.2587325,
            "velocity": 0.7322834645669292
          },
          {
            "duration": 0.011467479166668682,
            "durationTicks": 8,
            "midi": 35,
            "name": "B1",
            "ticks": 99840,
            "time": 142.533952,
            "velocity": 0.8661417322834646
          },
          {
            "duration": 0.011467479166668682,
            "durationTicks": 8,
            "midi": 42,
            "name": "F#2",
            "ticks": 99840,
            "time": 142.533952,
            "velocity": 0.7480314960629921
          },
          {
            "duration": 0.011467479166668682,
            "durationTicks": 8,
            "midi": 42,
            "name": "F#2",
            "ticks": 100030,
            "time": 142.80630463020833,
            "velocity": 0.6929133858267716
          },
          {
            "duration": 0.01146747916664026,
            "durationTicks": 8,
            "midi": 42,
            "name": "F#2",
            "ticks": 100126,
            "time": 142.94391438020835,
            "velocity": 0.6850393700787402
          },
          {
            "duration": 0.01146747916664026,
            "durationTicks": 8,
            "midi": 42,
            "name": "F#2",
            "ticks": 100222,
            "time": 143.08152413020835,
            "velocity": 0.7952755905511811
          },
          {
            "duration": 0.01146747916664026,
            "durationTicks": 8,
            "midi": 38,
            "name": "D2",
            "ticks": 100224,
            "time": 143.084391,
            "velocity": 0.8346456692913385
          },
          {
            "duration": 0.011467479166668682,
            "durationTicks": 8,
            "midi": 35,
            "name": "B1",
            "ticks": 100410,
            "time": 143.351009890625,
            "velocity": 0.6535433070866141
          },
          {
            "duration": 0.011467479166668682,
            "durationTicks": 8,
            "midi": 42,
            "name": "F#2",
            "ticks": 100414,
            "time": 143.35674363020834,
            "velocity": 0.6692913385826772
          },
          {
            "duration": 0.01146747916664026,
            "durationTicks": 8,
            "midi": 35,
            "name": "B1",
            "ticks": 100600,
            "time": 143.62336252083335,
            "velocity": 0.8740157480314961
          },
          {
            "duration": 0.011467479166668682,
            "durationTicks": 8,
            "midi": 42,
            "name": "F#2",
            "ticks": 100608,
            "time": 143.63483,
            "velocity": 0.7322834645669292
          },
          {
            "duration": 0.01146747916664026,
            "durationTicks": 8,
            "midi": 42,
            "name": "F#2",
            "ticks": 100792,
            "time": 143.89858202083335,
            "velocity": 0.7401574803149606
          },
          {
            "duration": 0.011467479166668682,
            "durationTicks": 8,
            "midi": 38,
            "name": "D2",
            "ticks": 100986,
            "time": 144.176668390625,
            "velocity": 0.8188976377952756
          },
          {
            "duration": 0.011467479166697103,
            "durationTicks": 8,
            "midi": 42,
            "name": "F#2",
            "ticks": 100988,
            "time": 144.17953526041666,
            "velocity": 0.7401574803149606
          },
          {
            "duration": 0.011467479166668682,
            "durationTicks": 8,
            "midi": 42,
            "name": "F#2",
            "ticks": 101182,
            "time": 144.45762163020834,
            "velocity": 0.7322834645669292
          },
          {
            "duration": 0.01146747916664026,
            "durationTicks": 8,
            "midi": 35,
            "name": "B1",
            "ticks": 101368,
            "time": 144.72424052083335,
            "velocity": 0.8661417322834646
          },
          {
            "duration": 0.01146747916664026,
            "durationTicks": 8,
            "midi": 42,
            "name": "F#2",
            "ticks": 101374,
            "time": 144.73284113020836,
            "velocity": 0.7480314960629921
          },
          {
            "duration": 0.01146747916664026,
            "durationTicks": 8,
            "midi": 42,
            "name": "F#2",
            "ticks": 101568,
            "time": 145.0109275,
            "velocity": 0.7480314960629921
          },
          {
            "duration": 0.01146747916664026,
            "durationTicks": 8,
            "midi": 42,
            "name": "F#2",
            "ticks": 101664,
            "time": 145.14853725,
            "velocity": 0.6929133858267716
          },
          {
            "duration": 0.011467479166668682,
            "durationTicks": 8,
            "midi": 38,
            "name": "D2",
            "ticks": 101754,
            "time": 145.277546390625,
            "velocity": 0.8110236220472441
          },
          {
            "duration": 0.011467479166668682,
            "durationTicks": 8,
            "midi": 42,
            "name": "F#2",
            "ticks": 101754,
            "time": 145.277546390625,
            "velocity": 0.6692913385826772
          },
          {
            "duration": 0.01146747916664026,
            "durationTicks": 8,
            "midi": 35,
            "name": "B1",
            "ticks": 101944,
            "time": 145.54989902083335,
            "velocity": 0.6377952755905512
          },
          {
            "duration": 0.01146747916664026,
            "durationTicks": 8,
            "midi": 42,
            "name": "F#2",
            "ticks": 101944,
            "time": 145.54989902083335,
            "velocity": 0.7637795275590551
          },
          {
            "duration": 0.011467479166668682,
            "durationTicks": 8,
            "midi": 35,
            "name": "B1",
            "ticks": 102136,
            "time": 145.82511852083334,
            "velocity": 0.8661417322834646
          },
          {
            "duration": 0.01146747916664026,
            "durationTicks": 8,
            "midi": 42,
            "name": "F#2",
            "ticks": 102142,
            "time": 145.83371913020835,
            "velocity": 0.6929133858267716
          },
          {
            "duration": 0.011467479166697103,
            "durationTicks": 8,
            "midi": 42,
            "name": "F#2",
            "ticks": 102332,
            "time": 146.10607176041665,
            "velocity": 0.7480314960629921
          },
          {
            "duration": 0.011467479166668682,
            "durationTicks": 8,
            "midi": 38,
            "name": "D2",
            "ticks": 102522,
            "time": 146.37842439062499,
            "velocity": 0.8661417322834646
          },
          {
            "duration": 0.011467479166697103,
            "durationTicks": 8,
            "midi": 42,
            "name": "F#2",
            "ticks": 102524,
            "time": 146.38129126041665,
            "velocity": 0.7401574803149606
          },
          {
            "duration": 0.01146747916664026,
            "durationTicks": 8,
            "midi": 42,
            "name": "F#2",
            "ticks": 102718,
            "time": 146.65937763020835,
            "velocity": 0.7165354330708661
          },
          {
            "duration": 0.01146747916664026,
            "durationTicks": 8,
            "midi": 49,
            "name": "C#3",
            "ticks": 102910,
            "time": 146.93459713020835,
            "velocity": 0.7322834645669292
          },
          {
            "duration": 0.01146747916664026,
            "durationTicks": 8,
            "midi": 35,
            "name": "B1",
            "ticks": 102912,
            "time": 146.937464,
            "velocity": 0.889763779527559
          },
          {
            "duration": 0.01146747916664026,
            "durationTicks": 8,
            "midi": 42,
            "name": "F#2",
            "ticks": 103096,
            "time": 147.20121602083336,
            "velocity": 0.7480314960629921
          },
          {
            "duration": 0.01146747916664026,
            "durationTicks": 8,
            "midi": 42,
            "name": "F#2",
            "ticks": 103194,
            "time": 147.341692640625,
            "velocity": 0.6456692913385826
          },
          {
            "duration": 0.011467479166668682,
            "durationTicks": 8,
            "midi": 38,
            "name": "D2",
            "ticks": 103292,
            "time": 147.48216926041667,
            "velocity": 0.8503937007874016
          },
          {
            "duration": 0.011467479166668682,
            "durationTicks": 8,
            "midi": 42,
            "name": "F#2",
            "ticks": 103292,
            "time": 147.48216926041667,
            "velocity": 0.7952755905511811
          },
          {
            "duration": 0.011467479166668682,
            "durationTicks": 8,
            "midi": 35,
            "name": "B1",
            "ticks": 103482,
            "time": 147.754521890625,
            "velocity": 0.6456692913385826
          },
          {
            "duration": 0.01146747916664026,
            "durationTicks": 8,
            "midi": 42,
            "name": "F#2",
            "ticks": 103486,
            "time": 147.76025563020835,
            "velocity": 0.7165354330708661
          },
          {
            "duration": 0.011467479166668682,
            "durationTicks": 8,
            "midi": 35,
            "name": "B1",
            "ticks": 103678,
            "time": 148.03547513020834,
            "velocity": 0.8740157480314961
          },
          {
            "duration": 0.011467479166668682,
            "durationTicks": 8,
            "midi": 42,
            "name": "F#2",
            "ticks": 103678,
            "time": 148.03547513020834,
            "velocity": 0.7637795275590551
          },
          {
            "duration": 0.01146747916664026,
            "durationTicks": 8,
            "midi": 42,
            "name": "F#2",
            "ticks": 103866,
            "time": 148.304960890625,
            "velocity": 0.7401574803149606
          },
          {
            "duration": 0.011467479166668682,
            "durationTicks": 8,
            "midi": 38,
            "name": "D2",
            "ticks": 104060,
            "time": 148.58304726041666,
            "velocity": 0.8110236220472441
          },
          {
            "duration": 0.011467479166668682,
            "durationTicks": 8,
            "midi": 42,
            "name": "F#2",
            "ticks": 104060,
            "time": 148.58304726041666,
            "velocity": 0.7637795275590551
          },
          {
            "duration": 0.011467479166668682,
            "durationTicks": 8,
            "midi": 42,
            "name": "F#2",
            "ticks": 104250,
            "time": 148.855399890625,
            "velocity": 0.7165354330708661
          },
          {
            "duration": 0.01146747916664026,
            "durationTicks": 8,
            "midi": 42,
            "name": "F#2",
            "ticks": 104440,
            "time": 149.12775252083335,
            "velocity": 0.7637795275590551
          },
          {
            "duration": 0.011467479166668682,
            "durationTicks": 8,
            "midi": 35,
            "name": "B1",
            "ticks": 104448,
            "time": 149.13922,
            "velocity": 0.8661417322834646
          },
          {
            "duration": 0.01146747916664026,
            "durationTicks": 8,
            "midi": 42,
            "name": "F#2",
            "ticks": 104634,
            "time": 149.405838890625,
            "velocity": 0.6850393700787402
          },
          {
            "duration": 0.011467479166668682,
            "durationTicks": 8,
            "midi": 42,
            "name": "F#2",
            "ticks": 104728,
            "time": 149.54058177083334,
            "velocity": 0.7165354330708661
          },
          {
            "duration": 0.011467479166668682,
            "durationTicks": 8,
            "midi": 38,
            "name": "D2",
            "ticks": 104824,
            "time": 149.67819152083334,
            "velocity": 0.8661417322834646
          },
          {
            "duration": 0.011467479166668682,
            "durationTicks": 8,
            "midi": 42,
            "name": "F#2",
            "ticks": 104824,
            "time": 149.67819152083334,
            "velocity": 0.7322834645669292
          },
          {
            "duration": 0.01146747916664026,
            "durationTicks": 8,
            "midi": 35,
            "name": "B1",
            "ticks": 105016,
            "time": 149.95341102083336,
            "velocity": 0.6692913385826772
          },
          {
            "duration": 0.011467479166697103,
            "durationTicks": 8,
            "midi": 42,
            "name": "F#2",
            "ticks": 105020,
            "time": 149.95914476041665,
            "velocity": 0.7795275590551181
          },
          {
            "duration": 0.01146747916664026,
            "durationTicks": 8,
            "midi": 35,
            "name": "B1",
            "ticks": 105208,
            "time": 150.22863052083335,
            "velocity": 0.889763779527559
          },
          {
            "duration": 0.011467479166668682,
            "durationTicks": 8,
            "midi": 42,
            "name": "F#2",
            "ticks": 105216,
            "time": 150.240098,
            "velocity": 0.7165354330708661
          },
          {
            "duration": 0.011467479166668682,
            "durationTicks": 8,
            "midi": 42,
            "name": "F#2",
            "ticks": 105404,
            "time": 150.50958376041666,
            "velocity": 0.7401574803149606
          },
          {
            "duration": 0.011467479166668682,
            "durationTicks": 8,
            "midi": 38,
            "name": "D2",
            "ticks": 105594,
            "time": 150.781936390625,
            "velocity": 0.8503937007874016
          },
          {
            "duration": 0.011467479166668682,
            "durationTicks": 8,
            "midi": 42,
            "name": "F#2",
            "ticks": 105594,
            "time": 150.781936390625,
            "velocity": 0.6850393700787402
          },
          {
            "duration": 0.011467479166668682,
            "durationTicks": 8,
            "midi": 42,
            "name": "F#2",
            "ticks": 105792,
            "time": 151.0657565,
            "velocity": 0.7480314960629921
          },
          {
            "duration": 0.011467479166668682,
            "durationTicks": 8,
            "midi": 42,
            "name": "F#2",
            "ticks": 105976,
            "time": 151.32950852083334,
            "velocity": 0.7165354330708661
          },
          {
            "duration": 0.01146747916664026,
            "durationTicks": 8,
            "midi": 35,
            "name": "B1",
            "ticks": 105978,
            "time": 151.332375390625,
            "velocity": 0.8740157480314961
          },
          {
            "duration": 0.011467479166668682,
            "durationTicks": 8,
            "midi": 42,
            "name": "F#2",
            "ticks": 106174,
            "time": 151.61332863020834,
            "velocity": 0.7480314960629921
          },
          {
            "duration": 0.011467479166668682,
            "durationTicks": 8,
            "midi": 42,
            "name": "F#2",
            "ticks": 106270,
            "time": 151.75093838020834,
            "velocity": 0.7322834645669292
          },
          {
            "duration": 0.011467479166668682,
            "durationTicks": 8,
            "midi": 42,
            "name": "F#2",
            "ticks": 106362,
            "time": 151.882814390625,
            "velocity": 0.7637795275590551
          },
          {
            "duration": 0.011467479166668682,
            "durationTicks": 8,
            "midi": 38,
            "name": "D2",
            "ticks": 106368,
            "time": 151.891415,
            "velocity": 0.8503937007874016
          },
          {
            "duration": 0.011467479166668682,
            "durationTicks": 8,
            "midi": 35,
            "name": "B1",
            "ticks": 106556,
            "time": 152.16090076041667,
            "velocity": 0.6929133858267716
          },
          {
            "duration": 0.01146747916664026,
            "durationTicks": 8,
            "midi": 42,
            "name": "F#2",
            "ticks": 106558,
            "time": 152.16376763020835,
            "velocity": 0.6929133858267716
          },
          {
            "duration": 0.011467479166697103,
            "durationTicks": 8,
            "midi": 35,
            "name": "B1",
            "ticks": 106748,
            "time": 152.43612026041666,
            "velocity": 0.905511811023622
          },
          {
            "duration": 0.01146747916664026,
            "durationTicks": 8,
            "midi": 42,
            "name": "F#2",
            "ticks": 106752,
            "time": 152.441854,
            "velocity": 0.7480314960629921
          },
          {
            "duration": 0.011467479166668682,
            "durationTicks": 8,
            "midi": 42,
            "name": "F#2",
            "ticks": 106944,
            "time": 152.7170735,
            "velocity": 0.6929133858267716
          },
          {
            "duration": 0.011467479166668682,
            "durationTicks": 8,
            "midi": 42,
            "name": "F#2",
            "ticks": 107132,
            "time": 152.98655926041667,
            "velocity": 0.7480314960629921
          },
          {
            "duration": 0.011467479166668682,
            "durationTicks": 8,
            "midi": 38,
            "name": "D2",
            "ticks": 107136,
            "time": 152.992293,
            "velocity": 0.8346456692913385
          },
          {
            "duration": 0.01146747916664026,
            "durationTicks": 8,
            "midi": 42,
            "name": "F#2",
            "ticks": 107326,
            "time": 153.26464563020835,
            "velocity": 0.7165354330708661
          },
          {
            "duration": 0.011467479166668682,
            "durationTicks": 8,
            "midi": 35,
            "name": "B1",
            "ticks": 107512,
            "time": 153.53126452083333,
            "velocity": 0.889763779527559
          },
          {
            "duration": 0.011467479166668682,
            "durationTicks": 8,
            "midi": 42,
            "name": "F#2",
            "ticks": 107514,
            "time": 153.534131390625,
            "velocity": 0.8188976377952756
          },
          {
            "duration": 0.011467479166668682,
            "durationTicks": 8,
            "midi": 42,
            "name": "F#2",
            "ticks": 108858,
            "time": 155.460667890625,
            "velocity": 0.7637795275590551
          },
          {
            "duration": 0.01146747916664026,
            "durationTicks": 8,
            "midi": 35,
            "name": "B1",
            "ticks": 109048,
            "time": 155.73302052083335,
            "velocity": 0.889763779527559
          },
          {
            "duration": 0.011467479166668682,
            "durationTicks": 8,
            "midi": 42,
            "name": "F#2",
            "ticks": 109054,
            "time": 155.74162113020833,
            "velocity": 0.6929133858267716
          },
          {
            "duration": 0.011467479166668682,
            "durationTicks": 8,
            "midi": 59,
            "name": "B3",
            "ticks": 109054,
            "time": 155.74162113020833,
            "velocity": 0.6850393700787402
          },
          {
            "duration": 0.01146747916664026,
            "durationTicks": 8,
            "midi": 42,
            "name": "F#2",
            "ticks": 109248,
            "time": 156.0197075,
            "velocity": 0.7322834645669292
          },
          {
            "duration": 0.011467479166668682,
            "durationTicks": 8,
            "midi": 42,
            "name": "F#2",
            "ticks": 109336,
            "time": 156.14584977083334,
            "velocity": 0.6062992125984252
          },
          {
            "duration": 0.01146747916664026,
            "durationTicks": 8,
            "midi": 59,
            "name": "B3",
            "ticks": 109344,
            "time": 156.15731725,
            "velocity": 0.6220472440944882
          },
          {
            "duration": 0.011467479166668682,
            "durationTicks": 8,
            "midi": 42,
            "name": "F#2",
            "ticks": 109432,
            "time": 156.28345952083333,
            "velocity": 0.7637795275590551
          },
          {
            "duration": 0.011467479166668682,
            "durationTicks": 8,
            "midi": 38,
            "name": "D2",
            "ticks": 109438,
            "time": 156.29206013020834,
            "velocity": 0.7952755905511811
          },
          {
            "duration": 0.011467479166697103,
            "durationTicks": 8,
            "midi": 59,
            "name": "B3",
            "ticks": 109628,
            "time": 156.56441276041664,
            "velocity": 0.7086614173228346
          },
          {
            "duration": 0.011467479166668682,
            "durationTicks": 8,
            "midi": 35,
            "name": "B1",
            "ticks": 109630,
            "time": 156.56727963020833,
            "velocity": 0.6614173228346457
          },
          {
            "duration": 0.011467479166668682,
            "durationTicks": 8,
            "midi": 42,
            "name": "F#2",
            "ticks": 109632,
            "time": 156.5701465,
            "velocity": 0.7480314960629921
          },
          {
            "duration": 0.01146747916664026,
            "durationTicks": 8,
            "midi": 35,
            "name": "B1",
            "ticks": 109822,
            "time": 156.84249913020835,
            "velocity": 0.8503937007874016
          },
          {
            "duration": 0.01146747916664026,
            "durationTicks": 8,
            "midi": 42,
            "name": "F#2",
            "ticks": 109822,
            "time": 156.84249913020835,
            "velocity": 0.7637795275590551
          },
          {
            "duration": 0.011467479166668682,
            "durationTicks": 8,
            "midi": 42,
            "name": "F#2",
            "ticks": 110014,
            "time": 157.11771863020834,
            "velocity": 0.7401574803149606
          },
          {
            "duration": 0.011467479166668682,
            "durationTicks": 8,
            "midi": 59,
            "name": "B3",
            "ticks": 110202,
            "time": 157.387204390625,
            "velocity": 0.6220472440944882
          },
          {
            "duration": 0.011467479166668682,
            "durationTicks": 8,
            "midi": 38,
            "name": "D2",
            "ticks": 110208,
            "time": 157.395805,
            "velocity": 0.8661417322834646
          },
          {
            "duration": 0.011467479166668682,
            "durationTicks": 8,
            "midi": 42,
            "name": "F#2",
            "ticks": 110208,
            "time": 157.395805,
            "velocity": 0.7480314960629921
          },
          {
            "duration": 0.01146747916664026,
            "durationTicks": 8,
            "midi": 42,
            "name": "F#2",
            "ticks": 110392,
            "time": 157.65955702083335,
            "velocity": 0.7401574803149606
          },
          {
            "duration": 0.011467479166668682,
            "durationTicks": 8,
            "midi": 35,
            "name": "B1",
            "ticks": 110584,
            "time": 157.93477652083334,
            "velocity": 0.8740157480314961
          },
          {
            "duration": 0.011467479166668682,
            "durationTicks": 8,
            "midi": 42,
            "name": "F#2",
            "ticks": 110586,
            "time": 157.937643390625,
            "velocity": 0.7480314960629921
          },
          {
            "duration": 0.01146747916664026,
            "durationTicks": 8,
            "midi": 59,
            "name": "B3",
            "ticks": 110590,
            "time": 157.94337713020835,
            "velocity": 0.6220472440944882
          },
          {
            "duration": 0.011467479166668682,
            "durationTicks": 8,
            "midi": 42,
            "name": "F#2",
            "ticks": 110776,
            "time": 158.20999602083333,
            "velocity": 0.6850393700787402
          },
          {
            "duration": 0.011467479166668682,
            "durationTicks": 8,
            "midi": 42,
            "name": "F#2",
            "ticks": 110874,
            "time": 158.350472640625,
            "velocity": 0.7401574803149606
          },
          {
            "duration": 0.011467479166697103,
            "durationTicks": 8,
            "midi": 59,
            "name": "B3",
            "ticks": 110876,
            "time": 158.35333951041665,
            "velocity": 0.6377952755905512
          },
          {
            "duration": 0.01146747916664026,
            "durationTicks": 8,
            "midi": 42,
            "name": "F#2",
            "ticks": 110970,
            "time": 158.488082390625,
            "velocity": 0.6850393700787402
          },
          {
            "duration": 0.011467479166668682,
            "durationTicks": 8,
            "midi": 38,
            "name": "D2",
            "ticks": 110976,
            "time": 158.496683,
            "velocity": 0.8346456692913385
          },
          {
            "duration": 0.011467479166668682,
            "durationTicks": 8,
            "midi": 35,
            "name": "B1",
            "ticks": 111164,
            "time": 158.76616876041666,
            "velocity": 0.6299212598425197
          },
          {
            "duration": 0.011467479166668682,
            "durationTicks": 8,
            "midi": 59,
            "name": "B3",
            "ticks": 111164,
            "time": 158.76616876041666,
            "velocity": 0.6377952755905512
          },
          {
            "duration": 0.01146747916664026,
            "durationTicks": 8,
            "midi": 42,
            "name": "F#2",
            "ticks": 111168,
            "time": 158.7719025,
            "velocity": 0.7322834645669292
          },
          {
            "duration": 0.011467479166668682,
            "durationTicks": 8,
            "midi": 35,
            "name": "B1",
            "ticks": 111354,
            "time": 159.038521390625,
            "velocity": 0.889763779527559
          },
          {
            "duration": 0.011467479166668682,
            "durationTicks": 8,
            "midi": 42,
            "name": "F#2",
            "ticks": 111354,
            "time": 159.038521390625,
            "velocity": 0.6929133858267716
          },
          {
            "duration": 0.01146747916664026,
            "durationTicks": 8,
            "midi": 42,
            "name": "F#2",
            "ticks": 111544,
            "time": 159.31087402083335,
            "velocity": 0.7480314960629921
          },
          {
            "duration": 0.011467479166668682,
            "durationTicks": 8,
            "midi": 38,
            "name": "D2",
            "ticks": 111736,
            "time": 159.58609352083334,
            "velocity": 0.8346456692913385
          },
          {
            "duration": 0.01146747916664026,
            "durationTicks": 8,
            "midi": 59,
            "name": "B3",
            "ticks": 111738,
            "time": 159.588960390625,
            "velocity": 0.6062992125984252
          },
          {
            "duration": 0.011467479166668682,
            "durationTicks": 8,
            "midi": 42,
            "name": "F#2",
            "ticks": 111740,
            "time": 159.59182726041666,
            "velocity": 0.7322834645669292
          },
          {
            "duration": 0.011467479166697103,
            "durationTicks": 8,
            "midi": 42,
            "name": "F#2",
            "ticks": 111932,
            "time": 159.86704676041666,
            "velocity": 0.7322834645669292
          },
          {
            "duration": 0.01146747916664026,
            "durationTicks": 8,
            "midi": 35,
            "name": "B1",
            "ticks": 112120,
            "time": 160.13653252083336,
            "velocity": 0.905511811023622
          },
          {
            "duration": 0.01146747916664026,
            "durationTicks": 8,
            "midi": 42,
            "name": "F#2",
            "ticks": 112120,
            "time": 160.13653252083336,
            "velocity": 0.7401574803149606
          },
          {
            "duration": 0.011467479166697103,
            "durationTicks": 8,
            "midi": 59,
            "name": "B3",
            "ticks": 112124,
            "time": 160.14226626041665,
            "velocity": 0.6614173228346457
          },
          {
            "duration": 0.011467479166668682,
            "durationTicks": 8,
            "midi": 42,
            "name": "F#2",
            "ticks": 112316,
            "time": 160.41748576041667,
            "velocity": 0.6929133858267716
          },
          {
            "duration": 0.01146747916664026,
            "durationTicks": 8,
            "midi": 42,
            "name": "F#2",
            "ticks": 112410,
            "time": 160.552228640625,
            "velocity": 0.6456692913385826
          },
          {
            "duration": 0.01146747916664026,
            "durationTicks": 8,
            "midi": 59,
            "name": "B3",
            "ticks": 112414,
            "time": 160.55796238020835,
            "velocity": 0.6062992125984252
          },
          {
            "duration": 0.01146747916664026,
            "durationTicks": 8,
            "midi": 38,
            "name": "D2",
            "ticks": 112512,
            "time": 160.698439,
            "velocity": 0.8503937007874016
          },
          {
            "duration": 0.01146747916664026,
            "durationTicks": 8,
            "midi": 42,
            "name": "F#2",
            "ticks": 112512,
            "time": 160.698439,
            "velocity": 0.7795275590551181
          },
          {
            "duration": 0.011467479166668682,
            "durationTicks": 8,
            "midi": 42,
            "name": "F#2",
            "ticks": 112696,
            "time": 160.96219102083333,
            "velocity": 0.6850393700787402
          },
          {
            "duration": 0.011467479166668682,
            "durationTicks": 8,
            "midi": 35,
            "name": "B1",
            "ticks": 112698,
            "time": 160.965057890625,
            "velocity": 0.6929133858267716
          },
          {
            "duration": 0.011467479166668682,
            "durationTicks": 8,
            "midi": 59,
            "name": "B3",
            "ticks": 112704,
            "time": 160.9736585,
            "velocity": 0.6220472440944882
          },
          {
            "duration": 0.01146747916664026,
            "durationTicks": 8,
            "midi": 35,
            "name": "B1",
            "ticks": 112890,
            "time": 161.240277390625,
            "velocity": 0.889763779527559
          },
          {
            "duration": 0.011467479166697103,
            "durationTicks": 8,
            "midi": 42,
            "name": "F#2",
            "ticks": 112892,
            "time": 161.24314426041664,
            "velocity": 0.7401574803149606
          },
          {
            "duration": 0.011467479166668682,
            "durationTicks": 8,
            "midi": 42,
            "name": "F#2",
            "ticks": 113084,
            "time": 161.51836376041666,
            "velocity": 0.6929133858267716
          },
          {
            "duration": 0.011467479166668682,
            "durationTicks": 8,
            "midi": 38,
            "name": "D2",
            "ticks": 113272,
            "time": 161.78784952083333,
            "velocity": 0.8503937007874016
          },
          {
            "duration": 0.011467479166697103,
            "durationTicks": 8,
            "midi": 59,
            "name": "B3",
            "ticks": 113276,
            "time": 161.79358326041665,
            "velocity": 0.6614173228346457
          },
          {
            "duration": 0.011467479166668682,
            "durationTicks": 8,
            "midi": 42,
            "name": "F#2",
            "ticks": 113278,
            "time": 161.79645013020834,
            "velocity": 0.7401574803149606
          },
          {
            "duration": 0.011467479166668682,
            "durationTicks": 8,
            "midi": 42,
            "name": "F#2",
            "ticks": 113470,
            "time": 162.07166963020833,
            "velocity": 0.7401574803149606
          },
          {
            "duration": 0.011467479166668682,
            "durationTicks": 8,
            "midi": 42,
            "name": "F#2",
            "ticks": 113656,
            "time": 162.33828852083334,
            "velocity": 0.7480314960629921
          },
          {
            "duration": 0.011467479166668682,
            "durationTicks": 8,
            "midi": 59,
            "name": "B3",
            "ticks": 113656,
            "time": 162.33828852083334,
            "velocity": 0.5590551181102362
          },
          {
            "duration": 0.011467479166668682,
            "durationTicks": 8,
            "midi": 35,
            "name": "B1",
            "ticks": 113660,
            "time": 162.34402226041666,
            "velocity": 0.889763779527559
          },
          {
            "duration": 0.011467479166668682,
            "durationTicks": 8,
            "midi": 42,
            "name": "F#2",
            "ticks": 113854,
            "time": 162.62210863020834,
            "velocity": 0.7322834645669292
          },
          {
            "duration": 0.011467479166668682,
            "durationTicks": 8,
            "midi": 59,
            "name": "B3",
            "ticks": 113854,
            "time": 162.62210863020834,
            "velocity": 0.5118110236220472
          },
          {
            "duration": 0.011467479166668682,
            "durationTicks": 8,
            "midi": 42,
            "name": "F#2",
            "ticks": 113944,
            "time": 162.75111777083333,
            "velocity": 0.7165354330708661
          },
          {
            "duration": 0.011467479166697103,
            "durationTicks": 8,
            "midi": 59,
            "name": "B3",
            "ticks": 113948,
            "time": 162.75685151041665,
            "velocity": 0.6614173228346457
          },
          {
            "duration": 0.01146747916664026,
            "durationTicks": 8,
            "midi": 38,
            "name": "D2",
            "ticks": 114040,
            "time": 162.88872752083336,
            "velocity": 0.8503937007874016
          },
          {
            "duration": 0.011467479166668682,
            "durationTicks": 8,
            "midi": 42,
            "name": "F#2",
            "ticks": 114042,
            "time": 162.891594390625,
            "velocity": 0.6692913385826772
          },
          {
            "duration": 0.011467479166668682,
            "durationTicks": 8,
            "midi": 59,
            "name": "B3",
            "ticks": 114236,
            "time": 163.16968076041667,
            "velocity": 0.6062992125984252
          },
          {
            "duration": 0.011467479166668682,
            "durationTicks": 8,
            "midi": 35,
            "name": "B1",
            "ticks": 114240,
            "time": 163.1754145,
            "velocity": 0.6850393700787402
          },
          {
            "duration": 0.011467479166668682,
            "durationTicks": 8,
            "midi": 42,
            "name": "F#2",
            "ticks": 114240,
            "time": 163.1754145,
            "velocity": 0.7401574803149606
          },
          {
            "duration": 0.01146747916664026,
            "durationTicks": 8,
            "midi": 42,
            "name": "F#2",
            "ticks": 114430,
            "time": 163.44776713020835,
            "velocity": 0.7322834645669292
          },
          {
            "duration": 0.01146747916664026,
            "durationTicks": 8,
            "midi": 35,
            "name": "B1",
            "ticks": 114432,
            "time": 163.450634,
            "velocity": 0.8661417322834646
          },
          {
            "duration": 0.011467479166668682,
            "durationTicks": 8,
            "midi": 59,
            "name": "B3",
            "ticks": 114622,
            "time": 163.72298663020834,
            "velocity": 0.5118110236220472
          },
          {
            "duration": 0.011467479166668682,
            "durationTicks": 8,
            "midi": 42,
            "name": "F#2",
            "ticks": 114624,
            "time": 163.7258535,
            "velocity": 0.7322834645669292
          },
          {
            "duration": 0.01146747916664026,
            "durationTicks": 8,
            "midi": 59,
            "name": "B3",
            "ticks": 114808,
            "time": 163.98960552083335,
            "velocity": 0.5826771653543307
          },
          {
            "duration": 0.01146747916664026,
            "durationTicks": 8,
            "midi": 42,
            "name": "F#2",
            "ticks": 114810,
            "time": 163.992472390625,
            "velocity": 0.7480314960629921
          },
          {
            "duration": 0.011467479166668682,
            "durationTicks": 8,
            "midi": 38,
            "name": "D2",
            "ticks": 114816,
            "time": 164.001073,
            "velocity": 0.7952755905511811
          },
          {
            "duration": 0.011467479166668682,
            "durationTicks": 8,
            "midi": 42,
            "name": "F#2",
            "ticks": 115000,
            "time": 164.26482502083334,
            "velocity": 0.7322834645669292
          },
          {
            "duration": 0.011467479166697103,
            "durationTicks": 8,
            "midi": 59,
            "name": "B3",
            "ticks": 115196,
            "time": 164.54577826041665,
            "velocity": 0.6614173228346457
          },
          {
            "duration": 0.011467479166668682,
            "durationTicks": 8,
            "midi": 35,
            "name": "B1",
            "ticks": 115198,
            "time": 164.54864513020834,
            "velocity": 0.8661417322834646
          },
          {
            "duration": 0.01146747916664026,
            "durationTicks": 8,
            "midi": 42,
            "name": "F#2",
            "ticks": 115200,
            "time": 164.551512,
            "velocity": 0.6929133858267716
          },
          {
            "duration": 0.011467479166697103,
            "durationTicks": 8,
            "midi": 42,
            "name": "F#2",
            "ticks": 115388,
            "time": 164.82099776041665,
            "velocity": 0.6850393700787402
          },
          {
            "duration": 0.011467479166668682,
            "durationTicks": 8,
            "midi": 42,
            "name": "F#2",
            "ticks": 115484,
            "time": 164.95860751041667,
            "velocity": 0.6220472440944882
          },
          {
            "duration": 0.011467479166668682,
            "durationTicks": 8,
            "midi": 59,
            "name": "B3",
            "ticks": 115484,
            "time": 164.95860751041667,
            "velocity": 0.6692913385826772
          },
          {
            "duration": 0.01146747916664026,
            "durationTicks": 8,
            "midi": 38,
            "name": "D2",
            "ticks": 115578,
            "time": 165.093350390625,
            "velocity": 0.8188976377952756
          },
          {
            "duration": 0.01146747916664026,
            "durationTicks": 8,
            "midi": 42,
            "name": "F#2",
            "ticks": 115584,
            "time": 165.101951,
            "velocity": 0.7480314960629921
          },
          {
            "duration": 0.011467479166668682,
            "durationTicks": 8,
            "midi": 42,
            "name": "F#2",
            "ticks": 115768,
            "time": 165.36570302083334,
            "velocity": 0.7165354330708661
          },
          {
            "duration": 0.011467479166697103,
            "durationTicks": 8,
            "midi": 59,
            "name": "B3",
            "ticks": 115772,
            "time": 165.37143676041666,
            "velocity": 0.6692913385826772
          },
          {
            "duration": 0.01146747916664026,
            "durationTicks": 8,
            "midi": 35,
            "name": "B1",
            "ticks": 115774,
            "time": 165.37430363020835,
            "velocity": 0.6377952755905512
          },
          {
            "duration": 0.01146747916664026,
            "durationTicks": 8,
            "midi": 42,
            "name": "F#2",
            "ticks": 115960,
            "time": 165.64092252083336,
            "velocity": 0.7401574803149606
          },
          {
            "duration": 0.011467479166668682,
            "durationTicks": 8,
            "midi": 35,
            "name": "B1",
            "ticks": 115962,
            "time": 165.643789390625,
            "velocity": 0.8503937007874016
          },
          {
            "duration": 0.01146747916664026,
            "durationTicks": 8,
            "midi": 42,
            "name": "F#2",
            "ticks": 116154,
            "time": 165.919008890625,
            "velocity": 0.6929133858267716
          },
          {
            "duration": 0.011467479166668682,
            "durationTicks": 8,
            "midi": 38,
            "name": "D2",
            "ticks": 116344,
            "time": 166.19136152083334,
            "velocity": 0.8661417322834646
          },
          {
            "duration": 0.01146747916664026,
            "durationTicks": 8,
            "midi": 42,
            "name": "F#2",
            "ticks": 116350,
            "time": 166.19996213020835,
            "velocity": 0.7165354330708661
          },
          {
            "duration": 0.01146747916664026,
            "durationTicks": 8,
            "midi": 59,
            "name": "B3",
            "ticks": 116350,
            "time": 166.19996213020835,
            "velocity": 0.6692913385826772
          },
          {
            "duration": 0.011467479166697103,
            "durationTicks": 8,
            "midi": 42,
            "name": "F#2",
            "ticks": 116540,
            "time": 166.47231476041665,
            "velocity": 0.7165354330708661
          },
          {
            "duration": 0.01146747916664026,
            "durationTicks": 8,
            "midi": 42,
            "name": "F#2",
            "ticks": 116730,
            "time": 166.744667390625,
            "velocity": 0.7401574803149606
          },
          {
            "duration": 0.011467479166668682,
            "durationTicks": 8,
            "midi": 35,
            "name": "B1",
            "ticks": 116734,
            "time": 166.75040113020833,
            "velocity": 0.889763779527559
          },
          {
            "duration": 0.011467479166668682,
            "durationTicks": 8,
            "midi": 59,
            "name": "B3",
            "ticks": 116734,
            "time": 166.75040113020833,
            "velocity": 0.6456692913385826
          },
          {
            "duration": 0.01146747916664026,
            "durationTicks": 8,
            "midi": 59,
            "name": "B3",
            "ticks": 116922,
            "time": 167.019886890625,
            "velocity": 0.5275590551181102
          },
          {
            "duration": 0.01146747916664026,
            "durationTicks": 8,
            "midi": 42,
            "name": "F#2",
            "ticks": 116926,
            "time": 167.02562063020835,
            "velocity": 0.6850393700787402
          },
          {
            "duration": 0.011467479166697103,
            "durationTicks": 8,
            "midi": 42,
            "name": "F#2",
            "ticks": 117020,
            "time": 167.16036351041666,
            "velocity": 0.6062992125984252
          },
          {
            "duration": 0.01146747916664026,
            "durationTicks": 8,
            "midi": 59,
            "name": "B3",
            "ticks": 117024,
            "time": 167.16609725,
            "velocity": 0.6062992125984252
          },
          {
            "duration": 0.011467479166668682,
            "durationTicks": 8,
            "midi": 42,
            "name": "F#2",
            "ticks": 117112,
            "time": 167.29223952083333,
            "velocity": 0.7322834645669292
          },
          {
            "duration": 0.011467479166668682,
            "durationTicks": 8,
            "midi": 38,
            "name": "D2",
            "ticks": 117118,
            "time": 167.30084013020834,
            "velocity": 0.8188976377952756
          },
          {
            "duration": 0.011467479166668682,
            "durationTicks": 8,
            "midi": 59,
            "name": "B3",
            "ticks": 117306,
            "time": 167.57032589062499,
            "velocity": 0.6614173228346457
          },
          {
            "duration": 0.011467479166668682,
            "durationTicks": 8,
            "midi": 35,
            "name": "B1",
            "ticks": 117312,
            "time": 167.5789265,
            "velocity": 0.6929133858267716
          },
          {
            "duration": 0.011467479166668682,
            "durationTicks": 8,
            "midi": 42,
            "name": "F#2",
            "ticks": 117312,
            "time": 167.5789265,
            "velocity": 0.7480314960629921
          },
          {
            "duration": 0.01146747916664026,
            "durationTicks": 8,
            "midi": 42,
            "name": "F#2",
            "ticks": 117496,
            "time": 167.84267852083335,
            "velocity": 0.7165354330708661
          },
          {
            "duration": 0.011467479166668682,
            "durationTicks": 8,
            "midi": 35,
            "name": "B1",
            "ticks": 117500,
            "time": 167.84841226041667,
            "velocity": 0.905511811023622
          },
          {
            "duration": 0.01146747916664026,
            "durationTicks": 8,
            "midi": 42,
            "name": "F#2",
            "ticks": 117696,
            "time": 168.1293655,
            "velocity": 0.7322834645669292
          },
          {
            "duration": 0.01146747916664026,
            "durationTicks": 8,
            "midi": 59,
            "name": "B3",
            "ticks": 117696,
            "time": 168.1293655,
            "velocity": 0.49606299212598426
          },
          {
            "duration": 0.011467479166668682,
            "durationTicks": 8,
            "midi": 38,
            "name": "D2",
            "ticks": 117882,
            "time": 168.395984390625,
            "velocity": 0.7952755905511811
          },
          {
            "duration": 0.011467479166668682,
            "durationTicks": 8,
            "midi": 59,
            "name": "B3",
            "ticks": 117882,
            "time": 168.395984390625,
            "velocity": 0.6456692913385826
          },
          {
            "duration": 0.011467479166668682,
            "durationTicks": 8,
            "midi": 42,
            "name": "F#2",
            "ticks": 117886,
            "time": 168.40171813020834,
            "velocity": 0.6929133858267716
          },
          {
            "duration": 0.01146747916664026,
            "durationTicks": 8,
            "midi": 42,
            "name": "F#2",
            "ticks": 118074,
            "time": 168.671203890625,
            "velocity": 0.7322834645669292
          },
          {
            "duration": 0.011467479166668682,
            "durationTicks": 8,
            "midi": 42,
            "name": "F#2",
            "ticks": 118266,
            "time": 168.946423390625,
            "velocity": 0.7480314960629921
          },
          {
            "duration": 0.011467479166697103,
            "durationTicks": 8,
            "midi": 59,
            "name": "B3",
            "ticks": 118268,
            "time": 168.94929026041666,
            "velocity": 0.6929133858267716
          },
          {
            "duration": 0.01146747916664026,
            "durationTicks": 8,
            "midi": 35,
            "name": "B1",
            "ticks": 118270,
            "time": 168.95215713020835,
            "velocity": 0.8661417322834646
          },
          {
            "duration": 0.011467479166668682,
            "durationTicks": 8,
            "midi": 42,
            "name": "F#2",
            "ticks": 118458,
            "time": 169.221642890625,
            "velocity": 0.6929133858267716
          },
          {
            "duration": 0.01146747916664026,
            "durationTicks": 8,
            "midi": 42,
            "name": "F#2",
            "ticks": 118552,
            "time": 169.35638577083336,
            "velocity": 0.6850393700787402
          },
          {
            "duration": 0.011467479166668682,
            "durationTicks": 8,
            "midi": 59,
            "name": "B3",
            "ticks": 118558,
            "time": 169.36498638020834,
            "velocity": 0.6929133858267716
          },
          {
            "duration": 0.01146747916664026,
            "durationTicks": 8,
            "midi": 42,
            "name": "F#2",
            "ticks": 118648,
            "time": 169.49399552083335,
            "velocity": 0.7952755905511811
          },
          {
            "duration": 0.011467479166697103,
            "durationTicks": 8,
            "midi": 38,
            "name": "D2",
            "ticks": 118652,
            "time": 169.49972926041664,
            "velocity": 0.8346456692913385
          },
          {
            "duration": 0.01146747916664026,
            "durationTicks": 8,
            "midi": 42,
            "name": "F#2",
            "ticks": 118842,
            "time": 169.772081890625,
            "velocity": 0.6692913385826772
          },
          {
            "duration": 0.01146747916664026,
            "durationTicks": 8,
            "midi": 35,
            "name": "B1",
            "ticks": 118846,
            "time": 169.77781563020835,
            "velocity": 0.6535433070866141
          },
          {
            "duration": 0.01146747916664026,
            "durationTicks": 8,
            "midi": 59,
            "name": "B3",
            "ticks": 118846,
            "time": 169.77781563020835,
            "velocity": 0.6692913385826772
          },
          {
            "duration": 0.011467479166697103,
            "durationTicks": 8,
            "midi": 42,
            "name": "F#2",
            "ticks": 119036,
            "time": 170.05016826041665,
            "velocity": 0.7322834645669292
          },
          {
            "duration": 0.01146747916664026,
            "durationTicks": 8,
            "midi": 35,
            "name": "B1",
            "ticks": 119040,
            "time": 170.055902,
            "velocity": 0.8740157480314961
          },
          {
            "duration": 0.011467479166668682,
            "durationTicks": 8,
            "midi": 42,
            "name": "F#2",
            "ticks": 119230,
            "time": 170.32825463020833,
            "velocity": 0.7401574803149606
          },
          {
            "duration": 0.011467479166668682,
            "durationTicks": 8,
            "midi": 59,
            "name": "B3",
            "ticks": 119230,
            "time": 170.32825463020833,
            "velocity": 0.6456692913385826
          },
          {
            "duration": 0.01146747916664026,
            "durationTicks": 8,
            "midi": 42,
            "name": "F#2",
            "ticks": 119416,
            "time": 170.59487352083335,
            "velocity": 0.7401574803149606
          },
          {
            "duration": 0.01146747916664026,
            "durationTicks": 8,
            "midi": 59,
            "name": "B3",
            "ticks": 119418,
            "time": 170.597740390625,
            "velocity": 0.6929133858267716
          },
          {
            "duration": 0.011467479166668682,
            "durationTicks": 8,
            "midi": 38,
            "name": "D2",
            "ticks": 119420,
            "time": 170.60060726041667,
            "velocity": 0.8188976377952756
          },
          {
            "duration": 0.011467479166697103,
            "durationTicks": 8,
            "midi": 42,
            "name": "F#2",
            "ticks": 119612,
            "time": 170.87582676041666,
            "velocity": 0.7322834645669292
          },
          {
            "duration": 0.011467479166668682,
            "durationTicks": 8,
            "midi": 35,
            "name": "B1",
            "ticks": 119802,
            "time": 171.148179390625,
            "velocity": 0.8661417322834646
          },
          {
            "duration": 0.011467479166668682,
            "durationTicks": 8,
            "midi": 59,
            "name": "B3",
            "ticks": 119802,
            "time": 171.148179390625,
            "velocity": 0.6692913385826772
          },
          {
            "duration": 0.011467479166697103,
            "durationTicks": 8,
            "midi": 42,
            "name": "F#2",
            "ticks": 119804,
            "time": 171.15104626041665,
            "velocity": 0.7480314960629921
          },
          {
            "duration": 0.011467479166668682,
            "durationTicks": 8,
            "midi": 42,
            "name": "F#2",
            "ticks": 120000,
            "time": 171.4319995,
            "velocity": 0.7480314960629921
          },
          {
            "duration": 0.01146747916664026,
            "durationTicks": 8,
            "midi": 59,
            "name": "B3",
            "ticks": 120090,
            "time": 171.561008640625,
            "velocity": 0.6850393700787402
          },
          {
            "duration": 0.01146747916664026,
            "durationTicks": 8,
            "midi": 42,
            "name": "F#2",
            "ticks": 120094,
            "time": 171.56674238020835,
            "velocity": 0.6929133858267716
          },
          {
            "duration": 0.011467479166697103,
            "durationTicks": 8,
            "midi": 42,
            "name": "F#2",
            "ticks": 120188,
            "time": 171.70148526041666,
            "velocity": 0.6692913385826772
          },
          {
            "duration": 0.01146747916664026,
            "durationTicks": 8,
            "midi": 38,
            "name": "D2",
            "ticks": 120192,
            "time": 171.707219,
            "velocity": 0.8110236220472441
          },
          {
            "duration": 0.011467479166697103,
            "durationTicks": 8,
            "midi": 35,
            "name": "B1",
            "ticks": 120380,
            "time": 171.97670476041665,
            "velocity": 0.6377952755905512
          },
          {
            "duration": 0.011467479166668682,
            "durationTicks": 8,
            "midi": 59,
            "name": "B3",
            "ticks": 120382,
            "time": 171.97957163020834,
            "velocity": 0.6929133858267716
          },
          {
            "duration": 0.011467479166668682,
            "durationTicks": 8,
            "midi": 42,
            "name": "F#2",
            "ticks": 120384,
            "time": 171.9824385,
            "velocity": 0.7637795275590551
          },
          {
            "duration": 0.011467479166668682,
            "durationTicks": 8,
            "midi": 42,
            "name": "F#2",
            "ticks": 120574,
            "time": 172.25479113020833,
            "velocity": 0.6929133858267716
          },
          {
            "duration": 0.011467479166668682,
            "durationTicks": 8,
            "midi": 35,
            "name": "B1",
            "ticks": 120576,
            "time": 172.257658,
            "velocity": 0.8661417322834646
          },
          {
            "duration": 0.01146747916664026,
            "durationTicks": 8,
            "midi": 42,
            "name": "F#2",
            "ticks": 120762,
            "time": 172.524276890625,
            "velocity": 0.7480314960629921
          },
          {
            "duration": 0.011467479166668682,
            "durationTicks": 8,
            "midi": 42,
            "name": "F#2",
            "ticks": 120954,
            "time": 172.799496390625,
            "velocity": 0.7401574803149606
          },
          {
            "duration": 0.011467479166697103,
            "durationTicks": 8,
            "midi": 59,
            "name": "B3",
            "ticks": 120956,
            "time": 172.80236326041666,
            "velocity": 0.7165354330708661
          },
          {
            "duration": 0.011467479166668682,
            "durationTicks": 8,
            "midi": 38,
            "name": "D2",
            "ticks": 120958,
            "time": 172.80523013020834,
            "velocity": 0.8661417322834646
          },
          {
            "duration": 0.011467479166668682,
            "durationTicks": 8,
            "midi": 42,
            "name": "F#2",
            "ticks": 121146,
            "time": 173.074715890625,
            "velocity": 0.7165354330708661
          },
          {
            "duration": 0.011467479166668682,
            "durationTicks": 8,
            "midi": 59,
            "name": "B3",
            "ticks": 121340,
            "time": 173.35280226041667,
            "velocity": 0.6850393700787402
          },
          {
            "duration": 0.011467479166668682,
            "durationTicks": 8,
            "midi": 35,
            "name": "B1",
            "ticks": 121344,
            "time": 173.358536,
            "velocity": 0.889763779527559
          },
          {
            "duration": 0.011467479166668682,
            "durationTicks": 8,
            "midi": 49,
            "name": "C#3",
            "ticks": 121344,
            "time": 173.358536,
            "velocity": 0.6220472440944882
          },
          {
            "duration": 0.01146747916664026,
            "durationTicks": 8,
            "midi": 42,
            "name": "F#2",
            "ticks": 121534,
            "time": 173.63088863020835,
            "velocity": 0.7480314960629921
          },
          {
            "duration": 0.011467479166668682,
            "durationTicks": 8,
            "midi": 42,
            "name": "F#2",
            "ticks": 121630,
            "time": 173.76849838020834,
            "velocity": 0.6456692913385826
          },
          {
            "duration": 0.01146747916664026,
            "durationTicks": 8,
            "midi": 59,
            "name": "B3",
            "ticks": 121632,
            "time": 173.77136525,
            "velocity": 0.6220472440944882
          },
          {
            "duration": 0.011467479166697103,
            "durationTicks": 8,
            "midi": 38,
            "name": "D2",
            "ticks": 121724,
            "time": 173.90324126041665,
            "velocity": 0.8503937007874016
          },
          {
            "duration": 0.011467479166668682,
            "durationTicks": 8,
            "midi": 42,
            "name": "F#2",
            "ticks": 121726,
            "time": 173.90610813020834,
            "velocity": 0.7952755905511811
          },
          {
            "duration": 0.01146747916664026,
            "durationTicks": 8,
            "midi": 42,
            "name": "F#2",
            "ticks": 121914,
            "time": 174.175593890625,
            "velocity": 0.7165354330708661
          },
          {
            "duration": 0.011467479166668682,
            "durationTicks": 8,
            "midi": 35,
            "name": "B1",
            "ticks": 121916,
            "time": 174.17846076041667,
            "velocity": 0.6456692913385826
          },
          {
            "duration": 0.011467479166668682,
            "durationTicks": 8,
            "midi": 59,
            "name": "B3",
            "ticks": 121920,
            "time": 174.1841945,
            "velocity": 0.6220472440944882
          },
          {
            "duration": 0.011467479166668682,
            "durationTicks": 8,
            "midi": 42,
            "name": "F#2",
            "ticks": 122104,
            "time": 174.44794652083334,
            "velocity": 0.7637795275590551
          },
          {
            "duration": 0.01146747916664026,
            "durationTicks": 8,
            "midi": 35,
            "name": "B1",
            "ticks": 122110,
            "time": 174.45654713020835,
            "velocity": 0.8740157480314961
          },
          {
            "duration": 0.011467479166668682,
            "durationTicks": 8,
            "midi": 42,
            "name": "F#2",
            "ticks": 122304,
            "time": 174.7346335,
            "velocity": 0.7401574803149606
          },
          {
            "duration": 0.01146747916664026,
            "durationTicks": 8,
            "midi": 59,
            "name": "B3",
            "ticks": 122488,
            "time": 174.99838552083335,
            "velocity": 0.6141732283464567
          },
          {
            "duration": 0.011467479166668682,
            "durationTicks": 8,
            "midi": 38,
            "name": "D2",
            "ticks": 122494,
            "time": 175.00698613020833,
            "velocity": 0.8110236220472441
          },
          {
            "duration": 0.011467479166668682,
            "durationTicks": 8,
            "midi": 42,
            "name": "F#2",
            "ticks": 122494,
            "time": 175.00698613020833,
            "velocity": 0.7637795275590551
          },
          {
            "duration": 0.01146747916664026,
            "durationTicks": 8,
            "midi": 42,
            "name": "F#2",
            "ticks": 122686,
            "time": 175.28220563020835,
            "velocity": 0.7165354330708661
          },
          {
            "duration": 0.011467479166668682,
            "durationTicks": 8,
            "midi": 35,
            "name": "B1",
            "ticks": 122872,
            "time": 175.54882452083334,
            "velocity": 0.8661417322834646
          },
          {
            "duration": 0.011467479166668682,
            "durationTicks": 8,
            "midi": 42,
            "name": "F#2",
            "ticks": 122874,
            "time": 175.551691390625,
            "velocity": 0.7637795275590551
          },
          {
            "duration": 0.011467479166668682,
            "durationTicks": 8,
            "midi": 59,
            "name": "B3",
            "ticks": 122874,
            "time": 175.551691390625,
            "velocity": 0.6692913385826772
          },
          {
            "duration": 0.01146747916664026,
            "durationTicks": 8,
            "midi": 42,
            "name": "F#2",
            "ticks": 123064,
            "time": 175.82404402083336,
            "velocity": 0.6850393700787402
          },
          {
            "duration": 0.011467479166697103,
            "durationTicks": 8,
            "midi": 59,
            "name": "B3",
            "ticks": 123164,
            "time": 175.96738751041664,
            "velocity": 0.5905511811023622
          },
          {
            "duration": 0.011467479166668682,
            "durationTicks": 8,
            "midi": 42,
            "name": "F#2",
            "ticks": 123168,
            "time": 175.97312125,
            "velocity": 0.7165354330708661
          },
          {
            "duration": 0.01146747916664026,
            "durationTicks": 8,
            "midi": 42,
            "name": "F#2",
            "ticks": 123258,
            "time": 176.102130390625,
            "velocity": 0.7322834645669292
          },
          {
            "duration": 0.011467479166668682,
            "durationTicks": 8,
            "midi": 38,
            "name": "D2",
            "ticks": 123260,
            "time": 176.10499726041667,
            "velocity": 0.8661417322834646
          },
          {
            "duration": 0.011467479166697103,
            "durationTicks": 8,
            "midi": 42,
            "name": "F#2",
            "ticks": 123452,
            "time": 176.38021676041666,
            "velocity": 0.7795275590551181
          },
          {
            "duration": 0.01146747916664026,
            "durationTicks": 8,
            "midi": 35,
            "name": "B1",
            "ticks": 123456,
            "time": 176.3859505,
            "velocity": 0.6692913385826772
          },
          {
            "duration": 0.01146747916664026,
            "durationTicks": 8,
            "midi": 59,
            "name": "B3",
            "ticks": 123456,
            "time": 176.3859505,
            "velocity": 0.6220472440944882
          },
          {
            "duration": 0.011467479166668682,
            "durationTicks": 8,
            "midi": 35,
            "name": "B1",
            "ticks": 123642,
            "time": 176.652569390625,
            "velocity": 0.889763779527559
          },
          {
            "duration": 0.011467479166668682,
            "durationTicks": 8,
            "midi": 42,
            "name": "F#2",
            "ticks": 123642,
            "time": 176.652569390625,
            "velocity": 0.7165354330708661
          },
          {
            "duration": 0.011467479166668682,
            "durationTicks": 8,
            "midi": 42,
            "name": "F#2",
            "ticks": 123838,
            "time": 176.93352263020833,
            "velocity": 0.7401574803149606
          },
          {
            "duration": 0.011467479166668682,
            "durationTicks": 8,
            "midi": 59,
            "name": "B3",
            "ticks": 123840,
            "time": 176.9363895,
            "velocity": 0.5826771653543307
          },
          {
            "duration": 0.011467479166668682,
            "durationTicks": 8,
            "midi": 38,
            "name": "D2",
            "ticks": 124028,
            "time": 177.20587526041666,
            "velocity": 0.8503937007874016
          },
          {
            "duration": 0.01146747916664026,
            "durationTicks": 8,
            "midi": 59,
            "name": "B3",
            "ticks": 124030,
            "time": 177.20874213020835,
            "velocity": 0.6377952755905512
          },
          {
            "duration": 0.01146747916664026,
            "durationTicks": 8,
            "midi": 42,
            "name": "F#2",
            "ticks": 124032,
            "time": 177.211609,
            "velocity": 0.6850393700787402
          },
          {
            "duration": 0.011467479166697103,
            "durationTicks": 8,
            "midi": 42,
            "name": "F#2",
            "ticks": 124220,
            "time": 177.48109476041665,
            "velocity": 0.7480314960629921
          },
          {
            "duration": 0.01146747916664026,
            "durationTicks": 8,
            "midi": 59,
            "name": "B3",
            "ticks": 124408,
            "time": 177.75058052083335,
            "velocity": 0.6141732283464567
          },
          {
            "duration": 0.011467479166697103,
            "durationTicks": 8,
            "midi": 35,
            "name": "B1",
            "ticks": 124412,
            "time": 177.75631426041664,
            "velocity": 0.8740157480314961
          },
          {
            "duration": 0.011467479166668682,
            "durationTicks": 8,
            "midi": 49,
            "name": "C#3",
            "ticks": 124414,
            "time": 177.75918113020833,
            "velocity": 0.44881889763779526
          },
          {
            "duration": 0.01146747916664026,
            "durationTicks": 8,
            "midi": 42,
            "name": "F#2",
            "ticks": 124606,
            "time": 178.03440063020835,
            "velocity": 0.7480314960629921
          },
          {
            "duration": 0.011467479166668682,
            "durationTicks": 8,
            "midi": 42,
            "name": "F#2",
            "ticks": 124696,
            "time": 178.16340977083334,
            "velocity": 0.7322834645669292
          },
          {
            "duration": 0.011467479166697103,
            "durationTicks": 8,
            "midi": 59,
            "name": "B3",
            "ticks": 124700,
            "time": 178.16914351041666,
            "velocity": 0.6614173228346457
          },
          {
            "duration": 0.011467479166668682,
            "durationTicks": 8,
            "midi": 42,
            "name": "F#2",
            "ticks": 124798,
            "time": 178.30962013020834,
            "velocity": 0.7637795275590551
          },
          {
            "duration": 0.01146747916664026,
            "durationTicks": 8,
            "midi": 38,
            "name": "D2",
            "ticks": 124800,
            "time": 178.312487,
            "velocity": 0.8503937007874016
          },
          {
            "duration": 0.01146747916664026,
            "durationTicks": 8,
            "midi": 35,
            "name": "B1",
            "ticks": 124984,
            "time": 178.57623902083336,
            "velocity": 0.6929133858267716
          },
          {
            "duration": 0.011467479166668682,
            "durationTicks": 8,
            "midi": 42,
            "name": "F#2",
            "ticks": 124986,
            "time": 178.579105890625,
            "velocity": 0.6929133858267716
          },
          {
            "duration": 0.011467479166697103,
            "durationTicks": 8,
            "midi": 59,
            "name": "B3",
            "ticks": 124988,
            "time": 178.58197276041665,
            "velocity": 0.6692913385826772
          },
          {
            "duration": 0.01146747916664026,
            "durationTicks": 8,
            "midi": 35,
            "name": "B1",
            "ticks": 125176,
            "time": 178.85145852083335,
            "velocity": 0.905511811023622
          },
          {
            "duration": 0.011467479166668682,
            "durationTicks": 8,
            "midi": 42,
            "name": "F#2",
            "ticks": 125184,
            "time": 178.862926,
            "velocity": 0.7480314960629921
          },
          {
            "duration": 0.011467479166668682,
            "durationTicks": 8,
            "midi": 59,
            "name": "B3",
            "ticks": 125368,
            "time": 179.12667802083334,
            "velocity": 0.6141732283464567
          },
          {
            "duration": 0.01146747916664026,
            "durationTicks": 8,
            "midi": 42,
            "name": "F#2",
            "ticks": 125376,
            "time": 179.1381455,
            "velocity": 0.6929133858267716
          },
          {
            "duration": 0.011467479166668682,
            "durationTicks": 8,
            "midi": 38,
            "name": "D2",
            "ticks": 125560,
            "time": 179.40189752083333,
            "velocity": 0.8346456692913385
          },
          {
            "duration": 0.011467479166697103,
            "durationTicks": 8,
            "midi": 42,
            "name": "F#2",
            "ticks": 125564,
            "time": 179.40763126041665,
            "velocity": 0.7480314960629921
          },
          {
            "duration": 0.011467479166668682,
            "durationTicks": 8,
            "midi": 59,
            "name": "B3",
            "ticks": 125566,
            "time": 179.41049813020834,
            "velocity": 0.6456692913385826
          },
          {
            "duration": 0.01146747916664026,
            "durationTicks": 8,
            "midi": 42,
            "name": "F#2",
            "ticks": 125754,
            "time": 179.679983890625,
            "velocity": 0.7165354330708661
          },
          {
            "duration": 0.011467479166668682,
            "durationTicks": 8,
            "midi": 35,
            "name": "B1",
            "ticks": 125944,
            "time": 179.95233652083334,
            "velocity": 0.889763779527559
          },
          {
            "duration": 0.011467479166668682,
            "durationTicks": 8,
            "midi": 59,
            "name": "B3",
            "ticks": 125946,
            "time": 179.955203390625,
            "velocity": 0.6456692913385826
          },
          {
            "duration": 0.01146747916664026,
            "durationTicks": 8,
            "midi": 42,
            "name": "F#2",
            "ticks": 125952,
            "time": 179.963804,
            "velocity": 0.7480314960629921
          },
          {
            "duration": 0.011467479166668682,
            "durationTicks": 8,
            "midi": 42,
            "name": "F#2",
            "ticks": 126136,
            "time": 180.22755602083333,
            "velocity": 0.6692913385826772
          },
          {
            "duration": 0.011467479166668682,
            "durationTicks": 8,
            "midi": 42,
            "name": "F#2",
            "ticks": 126238,
            "time": 180.37376638020834,
            "velocity": 0.6692913385826772
          },
          {
            "duration": 0.011467479166668682,
            "durationTicks": 8,
            "midi": 59,
            "name": "B3",
            "ticks": 126240,
            "time": 180.37663325,
            "velocity": 0.5905511811023622
          },
          {
            "duration": 0.01146747916664026,
            "durationTicks": 8,
            "midi": 38,
            "name": "D2",
            "ticks": 126328,
            "time": 180.50277552083335,
            "velocity": 0.8661417322834646
          },
          {
            "duration": 0.01146747916664026,
            "durationTicks": 8,
            "midi": 42,
            "name": "F#2",
            "ticks": 126328,
            "time": 180.50277552083335,
            "velocity": 0.6692913385826772
          },
          {
            "duration": 0.011467479166697103,
            "durationTicks": 8,
            "midi": 59,
            "name": "B3",
            "ticks": 126332,
            "time": 180.50850926041664,
            "velocity": 0.6377952755905512
          },
          {
            "duration": 0.011467479166668682,
            "durationTicks": 8,
            "midi": 42,
            "name": "F#2",
            "ticks": 126520,
            "time": 180.77799502083334,
            "velocity": 0.7480314960629921
          },
          {
            "duration": 0.011467479166668682,
            "durationTicks": 8,
            "midi": 59,
            "name": "B3",
            "ticks": 126520,
            "time": 180.77799502083334,
            "velocity": 0.6377952755905512
          },
          {
            "duration": 0.011467479166668682,
            "durationTicks": 8,
            "midi": 35,
            "name": "B1",
            "ticks": 126524,
            "time": 180.78372876041666,
            "velocity": 0.6771653543307087
          },
          {
            "duration": 0.011467479166668682,
            "durationTicks": 8,
            "midi": 59,
            "name": "B3",
            "ticks": 126712,
            "time": 181.05321452083334,
            "velocity": 0.6614173228346457
          },
          {
            "duration": 0.011467479166668682,
            "durationTicks": 8,
            "midi": 42,
            "name": "F#2",
            "ticks": 126718,
            "time": 181.06181513020834,
            "velocity": 0.6850393700787402
          },
          {
            "duration": 0.01146747916664026,
            "durationTicks": 8,
            "midi": 35,
            "name": "B1",
            "ticks": 126720,
            "time": 181.064682,
            "velocity": 0.8740157480314961
          },
          {
            "duration": 0.011467479166668682,
            "durationTicks": 8,
            "midi": 42,
            "name": "F#2",
            "ticks": 126906,
            "time": 181.331300890625,
            "velocity": 0.7480314960629921
          },
          {
            "duration": 0.011467479166668682,
            "durationTicks": 8,
            "midi": 59,
            "name": "B3",
            "ticks": 126912,
            "time": 181.3399015,
            "velocity": 0.6929133858267716
          },
          {
            "duration": 0.01146747916664026,
            "durationTicks": 8,
            "midi": 42,
            "name": "F#2",
            "ticks": 127098,
            "time": 181.606520390625,
            "velocity": 0.6929133858267716
          },
          {
            "duration": 0.011467479166668682,
            "durationTicks": 8,
            "midi": 59,
            "name": "B3",
            "ticks": 127100,
            "time": 181.60938726041667,
            "velocity": 0.6692913385826772
          },
          {
            "duration": 0.011467479166668682,
            "durationTicks": 8,
            "midi": 38,
            "name": "D2",
            "ticks": 127104,
            "time": 181.615121,
            "velocity": 0.8740157480314961
          },
          {
            "duration": 0.011467479166697103,
            "durationTicks": 8,
            "midi": 59,
            "name": "B3",
            "ticks": 127292,
            "time": 181.88460676041666,
            "velocity": 0.6692913385826772
          },
          {
            "duration": 0.01146747916664026,
            "durationTicks": 8,
            "midi": 42,
            "name": "F#2",
            "ticks": 127296,
            "time": 181.8903405,
            "velocity": 0.7401574803149606
          },
          {
            "duration": 0.011467479166668682,
            "durationTicks": 8,
            "midi": 59,
            "name": "B3",
            "ticks": 127480,
            "time": 182.15409252083333,
            "velocity": 0.7322834645669292
          },
          {
            "duration": 0.011467479166697103,
            "durationTicks": 8,
            "midi": 42,
            "name": "F#2",
            "ticks": 127484,
            "time": 182.15982626041665,
            "velocity": 0.6929133858267716
          },
          {
            "duration": 0.011467479166668682,
            "durationTicks": 8,
            "midi": 35,
            "name": "B1",
            "ticks": 127486,
            "time": 182.16269313020834,
            "velocity": 0.889763779527559
          },
          {
            "duration": 0.011467479166668682,
            "durationTicks": 8,
            "midi": 42,
            "name": "F#2",
            "ticks": 127678,
            "time": 182.43791263020833,
            "velocity": 0.7322834645669292
          },
          {
            "duration": 0.011467479166668682,
            "durationTicks": 8,
            "midi": 42,
            "name": "F#2",
            "ticks": 127772,
            "time": 182.57265551041667,
            "velocity": 0.6062992125984252
          },
          {
            "duration": 0.011467479166668682,
            "durationTicks": 8,
            "midi": 59,
            "name": "B3",
            "ticks": 127864,
            "time": 182.70453152083334,
            "velocity": 0.6929133858267716
          },
          {
            "duration": 0.01146747916664026,
            "durationTicks": 8,
            "midi": 38,
            "name": "D2",
            "ticks": 127866,
            "time": 182.707398390625,
            "velocity": 0.7952755905511811
          },
          {
            "duration": 0.011467479166668682,
            "durationTicks": 8,
            "midi": 42,
            "name": "F#2",
            "ticks": 127868,
            "time": 182.71026526041666,
            "velocity": 0.7637795275590551
          },
          {
            "duration": 0.011467479166697103,
            "durationTicks": 8,
            "midi": 35,
            "name": "B1",
            "ticks": 128060,
            "time": 182.98548476041665,
            "velocity": 0.6614173228346457
          },
          {
            "duration": 0.011467479166697103,
            "durationTicks": 8,
            "midi": 42,
            "name": "F#2",
            "ticks": 128060,
            "time": 182.98548476041665,
            "velocity": 0.7480314960629921
          },
          {
            "duration": 0.01146747916664026,
            "durationTicks": 8,
            "midi": 35,
            "name": "B1",
            "ticks": 128250,
            "time": 183.257837390625,
            "velocity": 0.8503937007874016
          },
          {
            "duration": 0.01146747916664026,
            "durationTicks": 8,
            "midi": 59,
            "name": "B3",
            "ticks": 128250,
            "time": 183.257837390625,
            "velocity": 0.6850393700787402
          },
          {
            "duration": 0.011467479166697103,
            "durationTicks": 8,
            "midi": 42,
            "name": "F#2",
            "ticks": 128252,
            "time": 183.26070426041665,
            "velocity": 0.7637795275590551
          },
          {
            "duration": 0.011467479166668682,
            "durationTicks": 8,
            "midi": 42,
            "name": "F#2",
            "ticks": 128440,
            "time": 183.53019002083334,
            "velocity": 0.7401574803149606
          },
          {
            "duration": 0.011467479166668682,
            "durationTicks": 8,
            "midi": 38,
            "name": "D2",
            "ticks": 128634,
            "time": 183.808276390625,
            "velocity": 0.8661417322834646
          },
          {
            "duration": 0.011467479166668682,
            "durationTicks": 8,
            "midi": 42,
            "name": "F#2",
            "ticks": 128634,
            "time": 183.808276390625,
            "velocity": 0.7480314960629921
          },
          {
            "duration": 0.011467479166668682,
            "durationTicks": 8,
            "midi": 59,
            "name": "B3",
            "ticks": 128634,
            "time": 183.808276390625,
            "velocity": 0.6614173228346457
          },
          {
            "duration": 0.011467479166668682,
            "durationTicks": 8,
            "midi": 42,
            "name": "F#2",
            "ticks": 128832,
            "time": 184.0920965,
            "velocity": 0.7401574803149606
          },
          {
            "duration": 0.01146747916664026,
            "durationTicks": 8,
            "midi": 59,
            "name": "B3",
            "ticks": 129018,
            "time": 184.358715390625,
            "velocity": 0.6692913385826772
          },
          {
            "duration": 0.011467479166668682,
            "durationTicks": 8,
            "midi": 35,
            "name": "B1",
            "ticks": 129024,
            "time": 184.367316,
            "velocity": 0.8740157480314961
          },
          {
            "duration": 0.011467479166668682,
            "durationTicks": 8,
            "midi": 42,
            "name": "F#2",
            "ticks": 129024,
            "time": 184.367316,
            "velocity": 0.7480314960629921
          },
          {
            "duration": 0.011467479166668682,
            "durationTicks": 8,
            "midi": 42,
            "name": "F#2",
            "ticks": 129208,
            "time": 184.63106802083334,
            "velocity": 0.6850393700787402
          },
          {
            "duration": 0.011467479166668682,
            "durationTicks": 8,
            "midi": 42,
            "name": "F#2",
            "ticks": 129310,
            "time": 184.77727838020834,
            "velocity": 0.7401574803149606
          },
          {
            "duration": 0.011467479166697103,
            "durationTicks": 8,
            "midi": 38,
            "name": "D2",
            "ticks": 129404,
            "time": 184.91202126041665,
            "velocity": 0.8346456692913385
          },
          {
            "duration": 0.011467479166668682,
            "durationTicks": 8,
            "midi": 42,
            "name": "F#2",
            "ticks": 129408,
            "time": 184.917755,
            "velocity": 0.6850393700787402
          },
          {
            "duration": 0.011467479166668682,
            "durationTicks": 8,
            "midi": 59,
            "name": "B3",
            "ticks": 129408,
            "time": 184.917755,
            "velocity": 0.6929133858267716
          },
          {
            "duration": 0.01146747916664026,
            "durationTicks": 8,
            "midi": 42,
            "name": "F#2",
            "ticks": 129592,
            "time": 185.18150702083335,
            "velocity": 0.7322834645669292
          },
          {
            "duration": 0.01146747916664026,
            "durationTicks": 8,
            "midi": 35,
            "name": "B1",
            "ticks": 129594,
            "time": 185.184373890625,
            "velocity": 0.6299212598425197
          },
          {
            "duration": 0.011467479166668682,
            "durationTicks": 8,
            "midi": 42,
            "name": "F#2",
            "ticks": 129784,
            "time": 185.45672652083334,
            "velocity": 0.6929133858267716
          },
          {
            "duration": 0.01146747916664026,
            "durationTicks": 8,
            "midi": 35,
            "name": "B1",
            "ticks": 129786,
            "time": 185.459593390625,
            "velocity": 0.889763779527559
          },
          {
            "duration": 0.01146747916664026,
            "durationTicks": 8,
            "midi": 59,
            "name": "B3",
            "ticks": 129790,
            "time": 185.46532713020835,
            "velocity": 0.6692913385826772
          },
          {
            "duration": 0.011467479166668682,
            "durationTicks": 8,
            "midi": 42,
            "name": "F#2",
            "ticks": 129976,
            "time": 185.73194602083333,
            "velocity": 0.7480314960629921
          },
          {
            "duration": 0.01146747916664026,
            "durationTicks": 8,
            "midi": 38,
            "name": "D2",
            "ticks": 130168,
            "time": 186.00716552083335,
            "velocity": 0.8346456692913385
          },
          {
            "duration": 0.01146747916664026,
            "durationTicks": 8,
            "midi": 42,
            "name": "F#2",
            "ticks": 130170,
            "time": 186.010032390625,
            "velocity": 0.7322834645669292
          },
          {
            "duration": 0.01146747916664026,
            "durationTicks": 8,
            "midi": 59,
            "name": "B3",
            "ticks": 130170,
            "time": 186.010032390625,
            "velocity": 0.6850393700787402
          },
          {
            "duration": 0.01146747916664026,
            "durationTicks": 8,
            "midi": 42,
            "name": "F#2",
            "ticks": 130368,
            "time": 186.2938525,
            "velocity": 0.7322834645669292
          },
          {
            "duration": 0.011467479166668682,
            "durationTicks": 8,
            "midi": 35,
            "name": "B1",
            "ticks": 130554,
            "time": 186.560471390625,
            "velocity": 0.905511811023622
          },
          {
            "duration": 0.011467479166668682,
            "durationTicks": 8,
            "midi": 59,
            "name": "B3",
            "ticks": 130554,
            "time": 186.560471390625,
            "velocity": 0.6692913385826772
          },
          {
            "duration": 0.011467479166668682,
            "durationTicks": 8,
            "midi": 49,
            "name": "C#3",
            "ticks": 130558,
            "time": 186.56620513020835,
            "velocity": 0.5275590551181102
          },
          {
            "duration": 0.01146747916664026,
            "durationTicks": 8,
            "midi": 42,
            "name": "F#2",
            "ticks": 130744,
            "time": 186.83282402083336,
            "velocity": 0.6929133858267716
          },
          {
            "duration": 0.01146747916664026,
            "durationTicks": 8,
            "midi": 42,
            "name": "F#2",
            "ticks": 130842,
            "time": 186.973300640625,
            "velocity": 0.6456692913385826
          },
          {
            "duration": 0.01146747916664026,
            "durationTicks": 8,
            "midi": 42,
            "name": "F#2",
            "ticks": 130936,
            "time": 187.10804352083335,
            "velocity": 0.7795275590551181
          },
          {
            "duration": 0.01146747916664026,
            "durationTicks": 8,
            "midi": 38,
            "name": "D2",
            "ticks": 130938,
            "time": 187.110910390625,
            "velocity": 0.8503937007874016
          },
          {
            "duration": 0.01146747916664026,
            "durationTicks": 8,
            "midi": 59,
            "name": "B3",
            "ticks": 130942,
            "time": 187.11664413020836,
            "velocity": 0.6377952755905512
          },
          {
            "duration": 0.011467479166697103,
            "durationTicks": 8,
            "midi": 35,
            "name": "B1",
            "ticks": 131132,
            "time": 187.38899676041666,
            "velocity": 0.6929133858267716
          },
          {
            "duration": 0.01146747916664026,
            "durationTicks": 8,
            "midi": 42,
            "name": "F#2",
            "ticks": 131136,
            "time": 187.3947305,
            "velocity": 0.6850393700787402
          },
          {
            "duration": 0.011467479166668682,
            "durationTicks": 8,
            "midi": 59,
            "name": "B3",
            "ticks": 131322,
            "time": 187.661349390625,
            "velocity": 0.6692913385826772
          },
          {
            "duration": 0.011467479166697103,
            "durationTicks": 8,
            "midi": 35,
            "name": "B1",
            "ticks": 131324,
            "time": 187.66421626041665,
            "velocity": 0.889763779527559
          },
          {
            "duration": 0.011467479166697103,
            "durationTicks": 8,
            "midi": 42,
            "name": "F#2",
            "ticks": 131324,
            "time": 187.66421626041665,
            "velocity": 0.7401574803149606
          },
          {
            "duration": 0.01146747916664026,
            "durationTicks": 8,
            "midi": 42,
            "name": "F#2",
            "ticks": 131512,
            "time": 187.93370202083335,
            "velocity": 0.6929133858267716
          },
          {
            "duration": 0.011467479166668682,
            "durationTicks": 8,
            "midi": 42,
            "name": "F#2",
            "ticks": 131704,
            "time": 188.20892152083334,
            "velocity": 0.7401574803149606
          },
          {
            "duration": 0.011467479166668682,
            "durationTicks": 8,
            "midi": 59,
            "name": "B3",
            "ticks": 131704,
            "time": 188.20892152083334,
            "velocity": 0.6377952755905512
          },
          {
            "duration": 0.01146747916664026,
            "durationTicks": 8,
            "midi": 38,
            "name": "D2",
            "ticks": 131710,
            "time": 188.21752213020835,
            "velocity": 0.8503937007874016
          },
          {
            "duration": 0.01146747916664026,
            "durationTicks": 8,
            "midi": 42,
            "name": "F#2",
            "ticks": 131904,
            "time": 188.4956085,
            "velocity": 0.7401574803149606
          },
          {
            "duration": 0.01146747916664026,
            "durationTicks": 8,
            "midi": 42,
            "name": "F#2",
            "ticks": 132090,
            "time": 188.76222739062501,
            "velocity": 0.8346456692913385
          },
          {
            "duration": 0.011467479166668682,
            "durationTicks": 8,
            "midi": 35,
            "name": "B1",
            "ticks": 132096,
            "time": 188.770828,
            "velocity": 0.905511811023622
          },
          {
            "duration": 0.011467479166668682,
            "durationTicks": 8,
            "midi": 42,
            "name": "F#2",
            "ticks": 133440,
            "time": 190.6973645,
            "velocity": 0.8188976377952756
          },
          {
            "duration": 0.01146747916664026,
            "durationTicks": 8,
            "midi": 42,
            "name": "F#2",
            "ticks": 133630,
            "time": 190.96971713020835,
            "velocity": 0.6929133858267716
          },
          {
            "duration": 0.01146747916664026,
            "durationTicks": 8,
            "midi": 59,
            "name": "B3",
            "ticks": 133630,
            "time": 190.96971713020835,
            "velocity": 0.6929133858267716
          },
          {
            "duration": 0.01146747916664026,
            "durationTicks": 8,
            "midi": 35,
            "name": "B1",
            "ticks": 133632,
            "time": 190.972584,
            "velocity": 0.889763779527559
          },
          {
            "duration": 0.011467479166697103,
            "durationTicks": 8,
            "midi": 42,
            "name": "F#2",
            "ticks": 133820,
            "time": 191.24206976041665,
            "velocity": 0.7322834645669292
          },
          {
            "duration": 0.011467479166697103,
            "durationTicks": 8,
            "midi": 59,
            "name": "B3",
            "ticks": 133820,
            "time": 191.24206976041665,
            "velocity": 0.5905511811023622
          },
          {
            "duration": 0.011467479166668682,
            "durationTicks": 8,
            "midi": 59,
            "name": "B3",
            "ticks": 133912,
            "time": 191.37394577083333,
            "velocity": 0.6692913385826772
          },
          {
            "duration": 0.011467479166668682,
            "durationTicks": 8,
            "midi": 42,
            "name": "F#2",
            "ticks": 133914,
            "time": 191.376812640625,
            "velocity": 0.6062992125984252
          },
          {
            "duration": 0.01146747916664026,
            "durationTicks": 8,
            "midi": 38,
            "name": "D2",
            "ticks": 134008,
            "time": 191.51155552083335,
            "velocity": 0.7952755905511811
          },
          {
            "duration": 0.011467479166668682,
            "durationTicks": 8,
            "midi": 42,
            "name": "F#2",
            "ticks": 134016,
            "time": 191.523023,
            "velocity": 0.7637795275590551
          },
          {
            "duration": 0.01146747916664026,
            "durationTicks": 8,
            "midi": 35,
            "name": "B1",
            "ticks": 134206,
            "time": 191.79537563020835,
            "velocity": 0.6614173228346457
          },
          {
            "duration": 0.011467479166668682,
            "durationTicks": 8,
            "midi": 42,
            "name": "F#2",
            "ticks": 134208,
            "time": 191.7982425,
            "velocity": 0.7480314960629921
          },
          {
            "duration": 0.011467479166668682,
            "durationTicks": 8,
            "midi": 59,
            "name": "B3",
            "ticks": 134208,
            "time": 191.7982425,
            "velocity": 0.6850393700787402
          },
          {
            "duration": 0.011467479166668682,
            "durationTicks": 8,
            "midi": 35,
            "name": "B1",
            "ticks": 134392,
            "time": 192.06199452083334,
            "velocity": 0.8503937007874016
          },
          {
            "duration": 0.011467479166668682,
            "durationTicks": 8,
            "midi": 42,
            "name": "F#2",
            "ticks": 134394,
            "time": 192.064861390625,
            "velocity": 0.7637795275590551
          },
          {
            "duration": 0.011467479166697103,
            "durationTicks": 8,
            "midi": 42,
            "name": "F#2",
            "ticks": 134588,
            "time": 192.34294776041665,
            "velocity": 0.7401574803149606
          },
          {
            "duration": 0.011467479166668682,
            "durationTicks": 8,
            "midi": 59,
            "name": "B3",
            "ticks": 134592,
            "time": 192.3486815,
            "velocity": 0.6141732283464567
          },
          {
            "duration": 0.01146747916664026,
            "durationTicks": 8,
            "midi": 42,
            "name": "F#2",
            "ticks": 134778,
            "time": 192.615300390625,
            "velocity": 0.7480314960629921
          },
          {
            "duration": 0.011467479166668682,
            "durationTicks": 8,
            "midi": 59,
            "name": "B3",
            "ticks": 134780,
            "time": 192.61816726041667,
            "velocity": 0.6220472440944882
          },
          {
            "duration": 0.011467479166668682,
            "durationTicks": 8,
            "midi": 38,
            "name": "D2",
            "ticks": 134784,
            "time": 192.623901,
            "velocity": 0.8661417322834646
          },
          {
            "duration": 0.011467479166668682,
            "durationTicks": 8,
            "midi": 42,
            "name": "F#2",
            "ticks": 134970,
            "time": 192.890519890625,
            "velocity": 0.7401574803149606
          },
          {
            "duration": 0.011467479166668682,
            "durationTicks": 8,
            "midi": 35,
            "name": "B1",
            "ticks": 135160,
            "time": 193.16287252083333,
            "velocity": 0.8740157480314961
          },
          {
            "duration": 0.011467479166668682,
            "durationTicks": 8,
            "midi": 42,
            "name": "F#2",
            "ticks": 135162,
            "time": 193.165739390625,
            "velocity": 0.7480314960629921
          },
          {
            "duration": 0.011467479166668682,
            "durationTicks": 8,
            "midi": 59,
            "name": "B3",
            "ticks": 135166,
            "time": 193.17147313020834,
            "velocity": 0.6850393700787402
          },
          {
            "duration": 0.01146747916664026,
            "durationTicks": 8,
            "midi": 59,
            "name": "B3",
            "ticks": 135352,
            "time": 193.43809202083335,
            "velocity": 0.6141732283464567
          },
          {
            "duration": 0.011467479166668682,
            "durationTicks": 8,
            "midi": 42,
            "name": "F#2",
            "ticks": 135358,
            "time": 193.44669263020833,
            "velocity": 0.6850393700787402
          },
          {
            "duration": 0.01146747916664026,
            "durationTicks": 8,
            "midi": 42,
            "name": "F#2",
            "ticks": 135448,
            "time": 193.57570177083335,
            "velocity": 0.7401574803149606
          },
          {
            "duration": 0.01146747916664026,
            "durationTicks": 8,
            "midi": 59,
            "name": "B3",
            "ticks": 135448,
            "time": 193.57570177083335,
            "velocity": 0.6220472440944882
          },
          {
            "duration": 0.011467479166668682,
            "durationTicks": 8,
            "midi": 42,
            "name": "F#2",
            "ticks": 135548,
            "time": 193.71904526041666,
            "velocity": 0.6850393700787402
          },
          {
            "duration": 0.01146747916664026,
            "durationTicks": 8,
            "midi": 38,
            "name": "D2",
            "ticks": 135550,
            "time": 193.72191213020835,
            "velocity": 0.8346456692913385
          },
          {
            "duration": 0.011467479166668682,
            "durationTicks": 8,
            "midi": 59,
            "name": "B3",
            "ticks": 135736,
            "time": 193.98853102083334,
            "velocity": 0.6062992125984252
          },
          {
            "duration": 0.011467479166668682,
            "durationTicks": 8,
            "midi": 42,
            "name": "F#2",
            "ticks": 135738,
            "time": 193.991397890625,
            "velocity": 0.7322834645669292
          },
          {
            "duration": 0.011467479166697103,
            "durationTicks": 8,
            "midi": 35,
            "name": "B1",
            "ticks": 135740,
            "time": 193.99426476041666,
            "velocity": 0.6299212598425197
          },
          {
            "duration": 0.01146747916664026,
            "durationTicks": 8,
            "midi": 42,
            "name": "F#2",
            "ticks": 135928,
            "time": 194.26375052083336,
            "velocity": 0.6929133858267716
          },
          {
            "duration": 0.011467479166697103,
            "durationTicks": 8,
            "midi": 35,
            "name": "B1",
            "ticks": 135932,
            "time": 194.26948426041665,
            "velocity": 0.889763779527559
          },
          {
            "duration": 0.01146747916664026,
            "durationTicks": 8,
            "midi": 42,
            "name": "F#2",
            "ticks": 136120,
            "time": 194.53897002083335,
            "velocity": 0.7480314960629921
          },
          {
            "duration": 0.01146747916664026,
            "durationTicks": 8,
            "midi": 59,
            "name": "B3",
            "ticks": 136122,
            "time": 194.541836890625,
            "velocity": 0.6377952755905512
          },
          {
            "duration": 0.011467479166668682,
            "durationTicks": 8,
            "midi": 38,
            "name": "D2",
            "ticks": 136312,
            "time": 194.81418952083334,
            "velocity": 0.8346456692913385
          },
          {
            "duration": 0.011467479166668682,
            "durationTicks": 8,
            "midi": 42,
            "name": "F#2",
            "ticks": 136314,
            "time": 194.817056390625,
            "velocity": 0.7322834645669292
          },
          {
            "duration": 0.01146747916664026,
            "durationTicks": 8,
            "midi": 59,
            "name": "B3",
            "ticks": 136320,
            "time": 194.825657,
            "velocity": 0.6377952755905512
          },
          {
            "duration": 0.011467479166668682,
            "durationTicks": 8,
            "midi": 42,
            "name": "F#2",
            "ticks": 136506,
            "time": 195.092275890625,
            "velocity": 0.7322834645669292
          },
          {
            "duration": 0.01146747916664026,
            "durationTicks": 8,
            "midi": 59,
            "name": "B3",
            "ticks": 136696,
            "time": 195.36462852083335,
            "velocity": 0.5905511811023622
          },
          {
            "duration": 0.01146747916664026,
            "durationTicks": 8,
            "midi": 35,
            "name": "B1",
            "ticks": 136702,
            "time": 195.37322913020836,
            "velocity": 0.905511811023622
          },
          {
            "duration": 0.011467479166668682,
            "durationTicks": 8,
            "midi": 42,
            "name": "F#2",
            "ticks": 136704,
            "time": 195.376096,
            "velocity": 0.7401574803149606
          },
          {
            "duration": 0.01146747916664026,
            "durationTicks": 8,
            "midi": 42,
            "name": "F#2",
            "ticks": 136894,
            "time": 195.64844863020835,
            "velocity": 0.6929133858267716
          },
          {
            "duration": 0.01146747916664026,
            "durationTicks": 8,
            "midi": 59,
            "name": "B3",
            "ticks": 136896,
            "time": 195.6513155,
            "velocity": 0.6062992125984252
          },
          {
            "duration": 0.011467479166668682,
            "durationTicks": 8,
            "midi": 42,
            "name": "F#2",
            "ticks": 136990,
            "time": 195.78605838020835,
            "velocity": 0.6456692913385826
          },
          {
            "duration": 0.011467479166668682,
            "durationTicks": 8,
            "midi": 59,
            "name": "B3",
            "ticks": 136990,
            "time": 195.78605838020835,
            "velocity": 0.6377952755905512
          },
          {
            "duration": 0.011467479166697103,
            "durationTicks": 8,
            "midi": 42,
            "name": "F#2",
            "ticks": 137084,
            "time": 195.92080126041665,
            "velocity": 0.7795275590551181
          },
          {
            "duration": 0.011467479166668682,
            "durationTicks": 8,
            "midi": 38,
            "name": "D2",
            "ticks": 137086,
            "time": 195.92366813020834,
            "velocity": 0.8503937007874016
          },
          {
            "duration": 0.01146747916664026,
            "durationTicks": 8,
            "midi": 35,
            "name": "B1",
            "ticks": 137272,
            "time": 196.19028702083335,
            "velocity": 0.6929133858267716
          },
          {
            "duration": 0.01146747916664026,
            "durationTicks": 8,
            "midi": 42,
            "name": "F#2",
            "ticks": 137272,
            "time": 196.19028702083335,
            "velocity": 0.6850393700787402
          },
          {
            "duration": 0.01146747916664026,
            "durationTicks": 8,
            "midi": 59,
            "name": "B3",
            "ticks": 137272,
            "time": 196.19028702083335,
            "velocity": 0.6929133858267716
          },
          {
            "duration": 0.01146747916664026,
            "durationTicks": 8,
            "midi": 35,
            "name": "B1",
            "ticks": 137470,
            "time": 196.47410713020835,
            "velocity": 0.889763779527559
          },
          {
            "duration": 0.01146747916664026,
            "durationTicks": 8,
            "midi": 42,
            "name": "F#2",
            "ticks": 137470,
            "time": 196.47410713020835,
            "velocity": 0.7401574803149606
          },
          {
            "duration": 0.011467479166668682,
            "durationTicks": 8,
            "midi": 42,
            "name": "F#2",
            "ticks": 137658,
            "time": 196.743592890625,
            "velocity": 0.6929133858267716
          },
          {
            "duration": 0.01146747916664026,
            "durationTicks": 8,
            "midi": 59,
            "name": "B3",
            "ticks": 137664,
            "time": 196.7521935,
            "velocity": 0.6850393700787402
          },
          {
            "duration": 0.011467479166668682,
            "durationTicks": 8,
            "midi": 59,
            "name": "B3",
            "ticks": 137850,
            "time": 197.018812390625,
            "velocity": 0.6850393700787402
          },
          {
            "duration": 0.011467479166668682,
            "durationTicks": 8,
            "midi": 38,
            "name": "D2",
            "ticks": 137854,
            "time": 197.02454613020834,
            "velocity": 0.8503937007874016
          },
          {
            "duration": 0.011467479166668682,
            "durationTicks": 8,
            "midi": 42,
            "name": "F#2",
            "ticks": 137856,
            "time": 197.027413,
            "velocity": 0.7401574803149606
          },
          {
            "duration": 0.011467479166668682,
            "durationTicks": 8,
            "midi": 42,
            "name": "F#2",
            "ticks": 138044,
            "time": 197.29689876041667,
            "velocity": 0.7401574803149606
          },
          {
            "duration": 0.01146747916664026,
            "durationTicks": 8,
            "midi": 59,
            "name": "B3",
            "ticks": 138046,
            "time": 197.29976563020836,
            "velocity": 0.5905511811023622
          },
          {
            "duration": 0.011467479166668682,
            "durationTicks": 8,
            "midi": 59,
            "name": "B3",
            "ticks": 138232,
            "time": 197.56638452083334,
            "velocity": 0.6850393700787402
          },
          {
            "duration": 0.011467479166668682,
            "durationTicks": 8,
            "midi": 35,
            "name": "B1",
            "ticks": 138234,
            "time": 197.569251390625,
            "velocity": 0.889763779527559
          },
          {
            "duration": 0.011467479166697103,
            "durationTicks": 8,
            "midi": 42,
            "name": "F#2",
            "ticks": 138236,
            "time": 197.57211826041666,
            "velocity": 0.7480314960629921
          },
          {
            "duration": 0.011467479166668682,
            "durationTicks": 8,
            "midi": 59,
            "name": "B3",
            "ticks": 138426,
            "time": 197.844470890625,
            "velocity": 0.6377952755905512
          },
          {
            "duration": 0.011467479166668682,
            "durationTicks": 8,
            "midi": 42,
            "name": "F#2",
            "ticks": 138430,
            "time": 197.85020463020834,
            "velocity": 0.7322834645669292
          },
          {
            "duration": 0.01146747916664026,
            "durationTicks": 8,
            "midi": 42,
            "name": "F#2",
            "ticks": 138522,
            "time": 197.98208064062501,
            "velocity": 0.7165354330708661
          },
          {
            "duration": 0.011467479166697103,
            "durationTicks": 8,
            "midi": 59,
            "name": "B3",
            "ticks": 138524,
            "time": 197.98494751041665,
            "velocity": 0.6220472440944882
          },
          {
            "duration": 0.011467479166668682,
            "durationTicks": 8,
            "midi": 59,
            "name": "B3",
            "ticks": 138620,
            "time": 198.12255726041667,
            "velocity": 0.5196850393700787
          },
          {
            "duration": 0.011467479166668682,
            "durationTicks": 8,
            "midi": 38,
            "name": "D2",
            "ticks": 138624,
            "time": 198.128291,
            "velocity": 0.8503937007874016
          },
          {
            "duration": 0.011467479166668682,
            "durationTicks": 8,
            "midi": 42,
            "name": "F#2",
            "ticks": 138624,
            "time": 198.128291,
            "velocity": 0.6692913385826772
          },
          {
            "duration": 0.011467479166668682,
            "durationTicks": 8,
            "midi": 42,
            "name": "F#2",
            "ticks": 138810,
            "time": 198.394909890625,
            "velocity": 0.7401574803149606
          },
          {
            "duration": 0.01146747916664026,
            "durationTicks": 8,
            "midi": 35,
            "name": "B1",
            "ticks": 138814,
            "time": 198.40064363020835,
            "velocity": 0.6850393700787402
          },
          {
            "duration": 0.01146747916664026,
            "durationTicks": 8,
            "midi": 59,
            "name": "B3",
            "ticks": 138816,
            "time": 198.4035105,
            "velocity": 0.6929133858267716
          },
          {
            "duration": 0.011467479166668682,
            "durationTicks": 8,
            "midi": 42,
            "name": "F#2",
            "ticks": 139000,
            "time": 198.66726252083333,
            "velocity": 0.7322834645669292
          },
          {
            "duration": 0.011467479166668682,
            "durationTicks": 8,
            "midi": 35,
            "name": "B1",
            "ticks": 139002,
            "time": 198.670129390625,
            "velocity": 0.8661417322834646
          },
          {
            "duration": 0.01146747916664026,
            "durationTicks": 8,
            "midi": 59,
            "name": "B3",
            "ticks": 139194,
            "time": 198.945348890625,
            "velocity": 0.6692913385826772
          },
          {
            "duration": 0.011467479166668682,
            "durationTicks": 8,
            "midi": 42,
            "name": "F#2",
            "ticks": 139200,
            "time": 198.9539495,
            "velocity": 0.7322834645669292
          },
          {
            "duration": 0.011467479166668682,
            "durationTicks": 8,
            "midi": 42,
            "name": "F#2",
            "ticks": 139384,
            "time": 199.21770152083334,
            "velocity": 0.7480314960629921
          },
          {
            "duration": 0.01146747916664026,
            "durationTicks": 8,
            "midi": 38,
            "name": "D2",
            "ticks": 139390,
            "time": 199.22630213020835,
            "velocity": 0.7952755905511811
          },
          {
            "duration": 0.01146747916664026,
            "durationTicks": 8,
            "midi": 59,
            "name": "B3",
            "ticks": 139392,
            "time": 199.229169,
            "velocity": 0.7322834645669292
          },
          {
            "duration": 0.011467479166668682,
            "durationTicks": 8,
            "midi": 42,
            "name": "F#2",
            "ticks": 139578,
            "time": 199.495787890625,
            "velocity": 0.7322834645669292
          },
          {
            "duration": 0.01146747916664026,
            "durationTicks": 8,
            "midi": 59,
            "name": "B3",
            "ticks": 139768,
            "time": 199.76814052083336,
            "velocity": 0.7086614173228346
          },
          {
            "duration": 0.011467479166668682,
            "durationTicks": 8,
            "midi": 42,
            "name": "F#2",
            "ticks": 139770,
            "time": 199.771007390625,
            "velocity": 0.6929133858267716
          },
          {
            "duration": 0.011467479166697103,
            "durationTicks": 8,
            "midi": 35,
            "name": "B1",
            "ticks": 139772,
            "time": 199.77387426041665,
            "velocity": 0.8661417322834646
          },
          {
            "duration": 0.01146747916664026,
            "durationTicks": 8,
            "midi": 42,
            "name": "F#2",
            "ticks": 139962,
            "time": 200.046226890625,
            "velocity": 0.6850393700787402
          },
          {
            "duration": 0.01146747916664026,
            "durationTicks": 8,
            "midi": 59,
            "name": "B3",
            "ticks": 139962,
            "time": 200.046226890625,
            "velocity": 0.6456692913385826
          },
          {
            "duration": 0.01146747916664026,
            "durationTicks": 8,
            "midi": 42,
            "name": "F#2",
            "ticks": 140058,
            "time": 200.183836640625,
            "velocity": 0.6220472440944882
          },
          {
            "duration": 0.01146747916664026,
            "durationTicks": 8,
            "midi": 59,
            "name": "B3",
            "ticks": 140062,
            "time": 200.18957038020835,
            "velocity": 0.6614173228346457
          },
          {
            "duration": 0.011467479166668682,
            "durationTicks": 8,
            "midi": 38,
            "name": "D2",
            "ticks": 140152,
            "time": 200.31857952083334,
            "velocity": 0.8188976377952756
          },
          {
            "duration": 0.01146747916664026,
            "durationTicks": 8,
            "midi": 42,
            "name": "F#2",
            "ticks": 140158,
            "time": 200.32718013020835,
            "velocity": 0.7480314960629921
          },
          {
            "duration": 0.011467479166668682,
            "durationTicks": 8,
            "midi": 59,
            "name": "B3",
            "ticks": 140344,
            "time": 200.59379902083333,
            "velocity": 0.6692913385826772
          },
          {
            "duration": 0.011467479166668682,
            "durationTicks": 8,
            "midi": 35,
            "name": "B1",
            "ticks": 140346,
            "time": 200.596665890625,
            "velocity": 0.6377952755905512
          },
          {
            "duration": 0.011467479166668682,
            "durationTicks": 8,
            "midi": 42,
            "name": "F#2",
            "ticks": 140350,
            "time": 200.60239963020834,
            "velocity": 0.7165354330708661
          },
          {
            "duration": 0.01146747916664026,
            "durationTicks": 8,
            "midi": 35,
            "name": "B1",
            "ticks": 140536,
            "time": 200.86901852083335,
            "velocity": 0.8503937007874016
          },
          {
            "duration": 0.011467479166668682,
            "durationTicks": 8,
            "midi": 42,
            "name": "F#2",
            "ticks": 140540,
            "time": 200.87475226041667,
            "velocity": 0.7401574803149606
          },
          {
            "duration": 0.011467479166668682,
            "durationTicks": 8,
            "midi": 42,
            "name": "F#2",
            "ticks": 140730,
            "time": 201.147104890625,
            "velocity": 0.6929133858267716
          },
          {
            "duration": 0.011467479166668682,
            "durationTicks": 8,
            "midi": 59,
            "name": "B3",
            "ticks": 140732,
            "time": 201.14997176041666,
            "velocity": 0.6614173228346457
          },
          {
            "duration": 0.011467479166697103,
            "durationTicks": 8,
            "midi": 42,
            "name": "F#2",
            "ticks": 140924,
            "time": 201.42519126041665,
            "velocity": 0.7165354330708661
          },
          {
            "duration": 0.011467479166697103,
            "durationTicks": 8,
            "midi": 59,
            "name": "B3",
            "ticks": 140924,
            "time": 201.42519126041665,
            "velocity": 0.6929133858267716
          },
          {
            "duration": 0.011467479166668682,
            "durationTicks": 8,
            "midi": 38,
            "name": "D2",
            "ticks": 140926,
            "time": 201.42805813020834,
            "velocity": 0.8661417322834646
          },
          {
            "duration": 0.011467479166668682,
            "durationTicks": 8,
            "midi": 42,
            "name": "F#2",
            "ticks": 141120,
            "time": 201.7061445,
            "velocity": 0.7165354330708661
          },
          {
            "duration": 0.011467479166668682,
            "durationTicks": 8,
            "midi": 35,
            "name": "B1",
            "ticks": 141304,
            "time": 201.96989652083334,
            "velocity": 0.889763779527559
          },
          {
            "duration": 0.01146747916664026,
            "durationTicks": 8,
            "midi": 42,
            "name": "F#2",
            "ticks": 141306,
            "time": 201.972763390625,
            "velocity": 0.7401574803149606
          },
          {
            "duration": 0.01146747916664026,
            "durationTicks": 8,
            "midi": 59,
            "name": "B3",
            "ticks": 141310,
            "time": 201.97849713020835,
            "velocity": 0.7165354330708661
          },
          {
            "duration": 0.01146747916664026,
            "durationTicks": 8,
            "midi": 42,
            "name": "F#2",
            "ticks": 141504,
            "time": 202.2565835,
            "velocity": 0.6850393700787402
          },
          {
            "duration": 0.01146747916664026,
            "durationTicks": 8,
            "midi": 59,
            "name": "B3",
            "ticks": 141504,
            "time": 202.2565835,
            "velocity": 0.6614173228346457
          },
          {
            "duration": 0.011467479166668682,
            "durationTicks": 8,
            "midi": 59,
            "name": "B3",
            "ticks": 141592,
            "time": 202.38272577083333,
            "velocity": 0.6220472440944882
          },
          {
            "duration": 0.011467479166668682,
            "durationTicks": 8,
            "midi": 42,
            "name": "F#2",
            "ticks": 141594,
            "time": 202.385592640625,
            "velocity": 0.6062992125984252
          },
          {
            "duration": 0.01146747916664026,
            "durationTicks": 8,
            "midi": 38,
            "name": "D2",
            "ticks": 141688,
            "time": 202.52033552083336,
            "velocity": 0.8188976377952756
          },
          {
            "duration": 0.011467479166668682,
            "durationTicks": 8,
            "midi": 42,
            "name": "F#2",
            "ticks": 141696,
            "time": 202.531803,
            "velocity": 0.7322834645669292
          },
          {
            "duration": 0.01146747916664026,
            "durationTicks": 8,
            "midi": 42,
            "name": "F#2",
            "ticks": 141880,
            "time": 202.79555502083335,
            "velocity": 0.7480314960629921
          },
          {
            "duration": 0.011467479166668682,
            "durationTicks": 8,
            "midi": 35,
            "name": "B1",
            "ticks": 141884,
            "time": 202.80128876041667,
            "velocity": 0.6929133858267716
          },
          {
            "duration": 0.01146747916664026,
            "durationTicks": 8,
            "midi": 59,
            "name": "B3",
            "ticks": 141886,
            "time": 202.80415563020836,
            "velocity": 0.6614173228346457
          },
          {
            "duration": 0.011467479166668682,
            "durationTicks": 8,
            "midi": 35,
            "name": "B1",
            "ticks": 142074,
            "time": 203.073641390625,
            "velocity": 0.905511811023622
          },
          {
            "duration": 0.011467479166697103,
            "durationTicks": 8,
            "midi": 42,
            "name": "F#2",
            "ticks": 142076,
            "time": 203.07650826041666,
            "velocity": 0.7165354330708661
          },
          {
            "duration": 0.011467479166668682,
            "durationTicks": 8,
            "midi": 42,
            "name": "F#2",
            "ticks": 142264,
            "time": 203.34599402083333,
            "velocity": 0.7322834645669292
          },
          {
            "duration": 0.011467479166697103,
            "durationTicks": 8,
            "midi": 59,
            "name": "B3",
            "ticks": 142268,
            "time": 203.35172776041665,
            "velocity": 0.6456692913385826
          },
          {
            "duration": 0.01146747916664026,
            "durationTicks": 8,
            "midi": 42,
            "name": "F#2",
            "ticks": 142456,
            "time": 203.62121352083335,
            "velocity": 0.6929133858267716
          },
          {
            "duration": 0.011467479166668682,
            "durationTicks": 8,
            "midi": 59,
            "name": "B3",
            "ticks": 142462,
            "time": 203.62981413020833,
            "velocity": 0.6850393700787402
          },
          {
            "duration": 0.011467479166668682,
            "durationTicks": 8,
            "midi": 38,
            "name": "D2",
            "ticks": 142464,
            "time": 203.632681,
            "velocity": 0.7952755905511811
          },
          {
            "duration": 0.011467479166668682,
            "durationTicks": 8,
            "midi": 59,
            "name": "B3",
            "ticks": 142652,
            "time": 203.90216676041666,
            "velocity": 0.6850393700787402
          },
          {
            "duration": 0.01146747916664026,
            "durationTicks": 8,
            "midi": 42,
            "name": "F#2",
            "ticks": 142654,
            "time": 203.90503363020835,
            "velocity": 0.7322834645669292
          },
          {
            "duration": 0.011467479166668682,
            "durationTicks": 8,
            "midi": 59,
            "name": "B3",
            "ticks": 142840,
            "time": 204.17165252083333,
            "velocity": 0.6456692913385826
          },
          {
            "duration": 0.011467479166668682,
            "durationTicks": 8,
            "midi": 35,
            "name": "B1",
            "ticks": 142842,
            "time": 204.174519390625,
            "velocity": 0.8661417322834646
          },
          {
            "duration": 0.011467479166668682,
            "durationTicks": 8,
            "midi": 42,
            "name": "F#2",
            "ticks": 142846,
            "time": 204.18025313020834,
            "velocity": 0.7480314960629921
          },
          {
            "duration": 0.011467479166697103,
            "durationTicks": 8,
            "midi": 42,
            "name": "F#2",
            "ticks": 143036,
            "time": 204.45260576041665,
            "velocity": 0.6929133858267716
          },
          {
            "duration": 0.011467479166668682,
            "durationTicks": 8,
            "midi": 59,
            "name": "B3",
            "ticks": 143038,
            "time": 204.45547263020833,
            "velocity": 0.5748031496062992
          },
          {
            "duration": 0.011467479166668682,
            "durationTicks": 8,
            "midi": 59,
            "name": "B3",
            "ticks": 143132,
            "time": 204.59021551041667,
            "velocity": 0.6850393700787402
          },
          {
            "duration": 0.01146747916664026,
            "durationTicks": 8,
            "midi": 42,
            "name": "F#2",
            "ticks": 143134,
            "time": 204.59308238020836,
            "velocity": 0.6850393700787402
          },
          {
            "duration": 0.01146747916664026,
            "durationTicks": 8,
            "midi": 38,
            "name": "D2",
            "ticks": 143226,
            "time": 204.724958390625,
            "velocity": 0.8346456692913385
          },
          {
            "duration": 0.01146747916664026,
            "durationTicks": 8,
            "midi": 42,
            "name": "F#2",
            "ticks": 143226,
            "time": 204.724958390625,
            "velocity": 0.7952755905511811
          },
          {
            "duration": 0.011467479166668682,
            "durationTicks": 8,
            "midi": 42,
            "name": "F#2",
            "ticks": 143416,
            "time": 204.99731102083334,
            "velocity": 0.6692913385826772
          },
          {
            "duration": 0.011467479166697103,
            "durationTicks": 8,
            "midi": 35,
            "name": "B1",
            "ticks": 143420,
            "time": 205.00304476041666,
            "velocity": 0.6535433070866141
          },
          {
            "duration": 0.01146747916664026,
            "durationTicks": 8,
            "midi": 59,
            "name": "B3",
            "ticks": 143424,
            "time": 205.0087785,
            "velocity": 0.6456692913385826
          },
          {
            "duration": 0.01146747916664026,
            "durationTicks": 8,
            "midi": 35,
            "name": "B1",
            "ticks": 143608,
            "time": 205.27253052083336,
            "velocity": 0.8740157480314961
          },
          {
            "duration": 0.011467479166697103,
            "durationTicks": 8,
            "midi": 42,
            "name": "F#2",
            "ticks": 143612,
            "time": 205.27826426041665,
            "velocity": 0.7322834645669292
          },
          {
            "duration": 0.01146747916664026,
            "durationTicks": 8,
            "midi": 59,
            "name": "B3",
            "ticks": 143800,
            "time": 205.54775002083335,
            "velocity": 0.7086614173228346
          },
          {
            "duration": 0.01146747916664026,
            "durationTicks": 8,
            "midi": 42,
            "name": "F#2",
            "ticks": 143806,
            "time": 205.55635063020836,
            "velocity": 0.7401574803149606
          },
          {
            "duration": 0.011467479166668682,
            "durationTicks": 8,
            "midi": 38,
            "name": "D2",
            "ticks": 143992,
            "time": 205.82296952083334,
            "velocity": 0.8188976377952756
          },
          {
            "duration": 0.01146747916664026,
            "durationTicks": 8,
            "midi": 42,
            "name": "F#2",
            "ticks": 143998,
            "time": 205.83157013020835,
            "velocity": 0.7401574803149606
          },
          {
            "duration": 0.011467479166668682,
            "durationTicks": 8,
            "midi": 59,
            "name": "B3",
            "ticks": 144186,
            "time": 206.101055890625,
            "velocity": 0.6456692913385826
          },
          {
            "duration": 0.011467479166668682,
            "durationTicks": 8,
            "midi": 42,
            "name": "F#2",
            "ticks": 144192,
            "time": 206.1096565,
            "velocity": 0.7322834645669292
          },
          {
            "duration": 0.01146747916664026,
            "durationTicks": 8,
            "midi": 35,
            "name": "B1",
            "ticks": 144376,
            "time": 206.37340852083335,
            "velocity": 0.8661417322834646
          },
          {
            "duration": 0.011467479166697103,
            "durationTicks": 8,
            "midi": 42,
            "name": "F#2",
            "ticks": 144380,
            "time": 206.37914226041664,
            "velocity": 0.7480314960629921
          },
          {
            "duration": 0.011467479166697103,
            "durationTicks": 8,
            "midi": 59,
            "name": "B3",
            "ticks": 144380,
            "time": 206.37914226041664,
            "velocity": 0.6850393700787402
          },
          {
            "duration": 0.01146747916664026,
            "durationTicks": 8,
            "midi": 42,
            "name": "F#2",
            "ticks": 144570,
            "time": 206.651494890625,
            "velocity": 0.7480314960629921
          },
          {
            "duration": 0.01146747916664026,
            "durationTicks": 8,
            "midi": 59,
            "name": "B3",
            "ticks": 144576,
            "time": 206.6600955,
            "velocity": 0.6062992125984252
          },
          {
            "duration": 0.011467479166697103,
            "durationTicks": 8,
            "midi": 42,
            "name": "F#2",
            "ticks": 144668,
            "time": 206.79197151041666,
            "velocity": 0.6929133858267716
          },
          {
            "duration": 0.01146747916664026,
            "durationTicks": 8,
            "midi": 59,
            "name": "B3",
            "ticks": 144672,
            "time": 206.79770525,
            "velocity": 0.6850393700787402
          },
          {
            "duration": 0.011467479166668682,
            "durationTicks": 8,
            "midi": 42,
            "name": "F#2",
            "ticks": 144760,
            "time": 206.92384752083333,
            "velocity": 0.6692913385826772
          },
          {
            "duration": 0.011467479166668682,
            "durationTicks": 8,
            "midi": 38,
            "name": "D2",
            "ticks": 144762,
            "time": 206.926714390625,
            "velocity": 0.8110236220472441
          },
          {
            "duration": 0.011467479166697103,
            "durationTicks": 8,
            "midi": 59,
            "name": "B3",
            "ticks": 144764,
            "time": 206.92958126041665,
            "velocity": 0.6692913385826772
          },
          {
            "duration": 0.01146747916664026,
            "durationTicks": 8,
            "midi": 42,
            "name": "F#2",
            "ticks": 144952,
            "time": 207.19906702083335,
            "velocity": 0.7637795275590551
          },
          {
            "duration": 0.01146747916664026,
            "durationTicks": 8,
            "midi": 59,
            "name": "B3",
            "ticks": 144952,
            "time": 207.19906702083335,
            "velocity": 0.6929133858267716
          },
          {
            "duration": 0.011467479166697103,
            "durationTicks": 8,
            "midi": 35,
            "name": "B1",
            "ticks": 144956,
            "time": 207.20480076041665,
            "velocity": 0.6377952755905512
          },
          {
            "duration": 0.01146747916664026,
            "durationTicks": 8,
            "midi": 42,
            "name": "F#2",
            "ticks": 145146,
            "time": 207.477153390625,
            "velocity": 0.6929133858267716
          },
          {
            "duration": 0.01146747916664026,
            "durationTicks": 8,
            "midi": 35,
            "name": "B1",
            "ticks": 145152,
            "time": 207.48575400000001,
            "velocity": 0.8661417322834646
          },
          {
            "duration": 0.011467479166668682,
            "durationTicks": 8,
            "midi": 59,
            "name": "B3",
            "ticks": 145336,
            "time": 207.74950602083334,
            "velocity": 0.6692913385826772
          },
          {
            "duration": 0.011467479166668682,
            "durationTicks": 8,
            "midi": 42,
            "name": "F#2",
            "ticks": 145342,
            "time": 207.75810663020835,
            "velocity": 0.7480314960629921
          },
          {
            "duration": 0.011467479166668682,
            "durationTicks": 8,
            "midi": 42,
            "name": "F#2",
            "ticks": 145530,
            "time": 208.027592390625,
            "velocity": 0.7401574803149606
          },
          {
            "duration": 0.011467479166668682,
            "durationTicks": 8,
            "midi": 59,
            "name": "B3",
            "ticks": 145530,
            "time": 208.027592390625,
            "velocity": 0.6929133858267716
          },
          {
            "duration": 0.011467479166668682,
            "durationTicks": 8,
            "midi": 38,
            "name": "D2",
            "ticks": 145534,
            "time": 208.03332613020834,
            "velocity": 0.8661417322834646
          },
          {
            "duration": 0.011467479166668682,
            "durationTicks": 8,
            "midi": 42,
            "name": "F#2",
            "ticks": 145728,
            "time": 208.3114125,
            "velocity": 0.7165354330708661
          },
          {
            "duration": 0.011467479166668682,
            "durationTicks": 8,
            "midi": 59,
            "name": "B3",
            "ticks": 145914,
            "time": 208.578031390625,
            "velocity": 0.6850393700787402
          },
          {
            "duration": 0.011467479166697103,
            "durationTicks": 8,
            "midi": 35,
            "name": "B1",
            "ticks": 145916,
            "time": 208.58089826041666,
            "velocity": 0.889763779527559
          },
          {
            "duration": 0.01146747916664026,
            "durationTicks": 8,
            "midi": 49,
            "name": "C#3",
            "ticks": 145918,
            "time": 208.58376513020835,
            "velocity": 0.6220472440944882
          },
          {
            "duration": 0.011467479166668682,
            "durationTicks": 8,
            "midi": 59,
            "name": "B3",
            "ticks": 146106,
            "time": 208.853250890625,
            "velocity": 0.6220472440944882
          },
          {
            "duration": 0.011467479166697103,
            "durationTicks": 8,
            "midi": 42,
            "name": "F#2",
            "ticks": 146108,
            "time": 208.85611776041665,
            "velocity": 0.7480314960629921
          },
          {
            "duration": 0.01146747916664026,
            "durationTicks": 8,
            "midi": 59,
            "name": "B3",
            "ticks": 146200,
            "time": 208.98799377083336,
            "velocity": 0.7165354330708661
          },
          {
            "duration": 0.011467479166668682,
            "durationTicks": 8,
            "midi": 42,
            "name": "F#2",
            "ticks": 146202,
            "time": 208.990860640625,
            "velocity": 0.6456692913385826
          },
          {
            "duration": 0.011467479166668682,
            "durationTicks": 8,
            "midi": 38,
            "name": "D2",
            "ticks": 146302,
            "time": 209.13420413020833,
            "velocity": 0.8503937007874016
          },
          {
            "duration": 0.011467479166668682,
            "durationTicks": 8,
            "midi": 42,
            "name": "F#2",
            "ticks": 146302,
            "time": 209.13420413020833,
            "velocity": 0.7952755905511811
          },
          {
            "duration": 0.011467479166668682,
            "durationTicks": 8,
            "midi": 42,
            "name": "F#2",
            "ticks": 146488,
            "time": 209.40082302083334,
            "velocity": 0.7165354330708661
          },
          {
            "duration": 0.01146747916664026,
            "durationTicks": 8,
            "midi": 35,
            "name": "B1",
            "ticks": 146494,
            "time": 209.40942363020835,
            "velocity": 0.6456692913385826
          },
          {
            "duration": 0.01146747916664026,
            "durationTicks": 8,
            "midi": 59,
            "name": "B3",
            "ticks": 146496,
            "time": 209.4122905,
            "velocity": 0.6929133858267716
          },
          {
            "duration": 0.011467479166668682,
            "durationTicks": 8,
            "midi": 42,
            "name": "F#2",
            "ticks": 146682,
            "time": 209.678909390625,
            "velocity": 0.7637795275590551
          },
          {
            "duration": 0.01146747916664026,
            "durationTicks": 8,
            "midi": 35,
            "name": "B1",
            "ticks": 146688,
            "time": 209.68751,
            "velocity": 0.8740157480314961
          },
          {
            "duration": 0.011467479166668682,
            "durationTicks": 8,
            "midi": 42,
            "name": "F#2",
            "ticks": 146880,
            "time": 209.9627295,
            "velocity": 0.7401574803149606
          },
          {
            "duration": 0.011467479166668682,
            "durationTicks": 8,
            "midi": 59,
            "name": "B3",
            "ticks": 146880,
            "time": 209.9627295,
            "velocity": 0.6850393700787402
          },
          {
            "duration": 0.01146747916664026,
            "durationTicks": 8,
            "midi": 38,
            "name": "D2",
            "ticks": 147070,
            "time": 210.23508213020835,
            "velocity": 0.8110236220472441
          },
          {
            "duration": 0.01146747916664026,
            "durationTicks": 8,
            "midi": 42,
            "name": "F#2",
            "ticks": 147070,
            "time": 210.23508213020835,
            "velocity": 0.7637795275590551
          },
          {
            "duration": 0.01146747916664026,
            "durationTicks": 8,
            "midi": 59,
            "name": "B3",
            "ticks": 147070,
            "time": 210.23508213020835,
            "velocity": 0.6692913385826772
          },
          {
            "duration": 0.011467479166668682,
            "durationTicks": 8,
            "midi": 42,
            "name": "F#2",
            "ticks": 147262,
            "time": 210.51030163020835,
            "velocity": 0.7165354330708661
          },
          {
            "duration": 0.011467479166668682,
            "durationTicks": 8,
            "midi": 42,
            "name": "F#2",
            "ticks": 147450,
            "time": 210.779787390625,
            "velocity": 0.7637795275590551
          },
          {
            "duration": 0.011467479166697103,
            "durationTicks": 8,
            "midi": 35,
            "name": "B1",
            "ticks": 147452,
            "time": 210.78265426041665,
            "velocity": 0.8661417322834646
          },
          {
            "duration": 0.011467479166697103,
            "durationTicks": 8,
            "midi": 59,
            "name": "B3",
            "ticks": 147452,
            "time": 210.78265426041665,
            "velocity": 0.7086614173228346
          },
          {
            "duration": 0.011467479166668682,
            "durationTicks": 8,
            "midi": 59,
            "name": "B3",
            "ticks": 147644,
            "time": 211.05787376041667,
            "velocity": 0.6220472440944882
          },
          {
            "duration": 0.01146747916664026,
            "durationTicks": 8,
            "midi": 42,
            "name": "F#2",
            "ticks": 147646,
            "time": 211.06074063020836,
            "velocity": 0.6850393700787402
          },
          {
            "duration": 0.011467479166668682,
            "durationTicks": 8,
            "midi": 59,
            "name": "B3",
            "ticks": 147736,
            "time": 211.18974977083334,
            "velocity": 0.6929133858267716
          },
          {
            "duration": 0.01146747916664026,
            "durationTicks": 8,
            "midi": 42,
            "name": "F#2",
            "ticks": 147738,
            "time": 211.192616640625,
            "velocity": 0.7165354330708661
          },
          {
            "duration": 0.01146747916664026,
            "durationTicks": 8,
            "midi": 38,
            "name": "D2",
            "ticks": 147840,
            "time": 211.338827,
            "velocity": 0.8661417322834646
          },
          {
            "duration": 0.01146747916664026,
            "durationTicks": 8,
            "midi": 42,
            "name": "F#2",
            "ticks": 147840,
            "time": 211.338827,
            "velocity": 0.7322834645669292
          },
          {
            "duration": 0.011467479166668682,
            "durationTicks": 8,
            "midi": 59,
            "name": "B3",
            "ticks": 148026,
            "time": 211.605445890625,
            "velocity": 0.6614173228346457
          },
          {
            "duration": 0.011467479166668682,
            "durationTicks": 8,
            "midi": 35,
            "name": "B1",
            "ticks": 148030,
            "time": 211.61117963020834,
            "velocity": 0.6692913385826772
          },
          {
            "duration": 0.011467479166668682,
            "durationTicks": 8,
            "midi": 42,
            "name": "F#2",
            "ticks": 148032,
            "time": 211.6140465,
            "velocity": 0.7795275590551181
          },
          {
            "duration": 0.011467479166697103,
            "durationTicks": 8,
            "midi": 35,
            "name": "B1",
            "ticks": 148220,
            "time": 211.88353226041664,
            "velocity": 0.889763779527559
          },
          {
            "duration": 0.011467479166697103,
            "durationTicks": 8,
            "midi": 42,
            "name": "F#2",
            "ticks": 148220,
            "time": 211.88353226041664,
            "velocity": 0.7165354330708661
          },
          {
            "duration": 0.011467479166668682,
            "durationTicks": 8,
            "midi": 42,
            "name": "F#2",
            "ticks": 148408,
            "time": 212.15301802083334,
            "velocity": 0.7401574803149606
          },
          {
            "duration": 0.01146747916664026,
            "durationTicks": 8,
            "midi": 59,
            "name": "B3",
            "ticks": 148410,
            "time": 212.155884890625,
            "velocity": 0.6692913385826772
          },
          {
            "duration": 0.011467479166668682,
            "durationTicks": 8,
            "midi": 42,
            "name": "F#2",
            "ticks": 148602,
            "time": 212.431104390625,
            "velocity": 0.6850393700787402
          },
          {
            "duration": 0.011467479166668682,
            "durationTicks": 8,
            "midi": 38,
            "name": "D2",
            "ticks": 148606,
            "time": 212.43683813020834,
            "velocity": 0.8503937007874016
          },
          {
            "duration": 0.01146747916664026,
            "durationTicks": 8,
            "midi": 59,
            "name": "B3",
            "ticks": 148608,
            "time": 212.439705,
            "velocity": 0.7086614173228346
          },
          {
            "duration": 0.011467479166668682,
            "durationTicks": 8,
            "midi": 42,
            "name": "F#2",
            "ticks": 148798,
            "time": 212.71205763020834,
            "velocity": 0.7480314960629921
          },
          {
            "duration": 0.011467479166668682,
            "durationTicks": 8,
            "midi": 59,
            "name": "B3",
            "ticks": 148798,
            "time": 212.71205763020834,
            "velocity": 0.6377952755905512
          },
          {
            "duration": 0.011467479166668682,
            "durationTicks": 8,
            "midi": 35,
            "name": "B1",
            "ticks": 148988,
            "time": 212.98441026041667,
            "velocity": 0.8740157480314961
          },
          {
            "duration": 0.01146747916664026,
            "durationTicks": 8,
            "midi": 49,
            "name": "C#3",
            "ticks": 148990,
            "time": 212.98727713020835,
            "velocity": 0.44881889763779526
          },
          {
            "duration": 0.01146747916664026,
            "durationTicks": 8,
            "midi": 59,
            "name": "B3",
            "ticks": 148992,
            "time": 212.99014400000002,
            "velocity": 0.6929133858267716
          },
          {
            "duration": 0.011467479166697103,
            "durationTicks": 8,
            "midi": 59,
            "name": "B3",
            "ticks": 149180,
            "time": 213.25962976041666,
            "velocity": 0.5826771653543307
          },
          {
            "duration": 0.01146747916664026,
            "durationTicks": 8,
            "midi": 42,
            "name": "F#2",
            "ticks": 149182,
            "time": 213.26249663020835,
            "velocity": 0.7480314960629921
          },
          {
            "duration": 0.011467479166668682,
            "durationTicks": 8,
            "midi": 42,
            "name": "F#2",
            "ticks": 149274,
            "time": 213.394372640625,
            "velocity": 0.7322834645669292
          },
          {
            "duration": 0.011467479166668682,
            "durationTicks": 8,
            "midi": 59,
            "name": "B3",
            "ticks": 149274,
            "time": 213.394372640625,
            "velocity": 0.6850393700787402
          },
          {
            "duration": 0.011467479166668682,
            "durationTicks": 8,
            "midi": 38,
            "name": "D2",
            "ticks": 149374,
            "time": 213.53771613020834,
            "velocity": 0.8503937007874016
          },
          {
            "duration": 0.011467479166668682,
            "durationTicks": 8,
            "midi": 42,
            "name": "F#2",
            "ticks": 149374,
            "time": 213.53771613020834,
            "velocity": 0.7637795275590551
          },
          {
            "duration": 0.01146747916664026,
            "durationTicks": 8,
            "midi": 42,
            "name": "F#2",
            "ticks": 149560,
            "time": 213.80433502083335,
            "velocity": 0.6929133858267716
          },
          {
            "duration": 0.01146747916664026,
            "durationTicks": 8,
            "midi": 35,
            "name": "B1",
            "ticks": 149562,
            "time": 213.807201890625,
            "velocity": 0.6929133858267716
          },
          {
            "duration": 0.011467479166668682,
            "durationTicks": 8,
            "midi": 59,
            "name": "B3",
            "ticks": 149564,
            "time": 213.81006876041667,
            "velocity": 0.7401574803149606
          },
          {
            "duration": 0.011467479166697103,
            "durationTicks": 8,
            "midi": 35,
            "name": "B1",
            "ticks": 149756,
            "time": 214.08528826041666,
            "velocity": 0.905511811023622
          },
          {
            "duration": 0.01146747916664026,
            "durationTicks": 8,
            "midi": 42,
            "name": "F#2",
            "ticks": 149760,
            "time": 214.091022,
            "velocity": 0.7480314960629921
          },
          {
            "duration": 0.011467479166668682,
            "durationTicks": 8,
            "midi": 42,
            "name": "F#2",
            "ticks": 149944,
            "time": 214.35477402083333,
            "velocity": 0.6929133858267716
          },
          {
            "duration": 0.011467479166668682,
            "durationTicks": 8,
            "midi": 59,
            "name": "B3",
            "ticks": 149952,
            "time": 214.3662415,
            "velocity": 0.6929133858267716
          },
          {
            "duration": 0.01146747916664026,
            "durationTicks": 8,
            "midi": 38,
            "name": "D2",
            "ticks": 150138,
            "time": 214.632860390625,
            "velocity": 0.8346456692913385
          },
          {
            "duration": 0.011467479166697103,
            "durationTicks": 8,
            "midi": 42,
            "name": "F#2",
            "ticks": 150140,
            "time": 214.63572726041664,
            "velocity": 0.7480314960629921
          },
          {
            "duration": 0.011467479166668682,
            "durationTicks": 8,
            "midi": 59,
            "name": "B3",
            "ticks": 150144,
            "time": 214.641461,
            "velocity": 0.7165354330708661
          },
          {
            "duration": 0.01146747916664026,
            "durationTicks": 8,
            "midi": 42,
            "name": "F#2",
            "ticks": 150330,
            "time": 214.908079890625,
            "velocity": 0.7165354330708661
          },
          {
            "duration": 0.011467479166668682,
            "durationTicks": 8,
            "midi": 59,
            "name": "B3",
            "ticks": 150520,
            "time": 215.18043252083334,
            "velocity": 0.6850393700787402
          },
          {
            "duration": 0.011467479166697103,
            "durationTicks": 8,
            "midi": 42,
            "name": "F#2",
            "ticks": 150524,
            "time": 215.18616626041666,
            "velocity": 0.7480314960629921
          },
          {
            "duration": 0.011467479166668682,
            "durationTicks": 8,
            "midi": 35,
            "name": "B1",
            "ticks": 150526,
            "time": 215.18903313020834,
            "velocity": 0.889763779527559
          },
          {
            "duration": 0.011467479166668682,
            "durationTicks": 8,
            "midi": 59,
            "name": "B3",
            "ticks": 150718,
            "time": 215.46425263020834,
            "velocity": 0.6141732283464567
          },
          {
            "duration": 0.011467479166668682,
            "durationTicks": 8,
            "midi": 42,
            "name": "F#2",
            "ticks": 150720,
            "time": 215.4671195,
            "velocity": 0.6692913385826772
          },
          {
            "duration": 0.011467479166668682,
            "durationTicks": 8,
            "midi": 42,
            "name": "F#2",
            "ticks": 150814,
            "time": 215.60186238020833,
            "velocity": 0.6692913385826772
          },
          {
            "duration": 0.011467479166668682,
            "durationTicks": 8,
            "midi": 59,
            "name": "B3",
            "ticks": 150814,
            "time": 215.60186238020833,
            "velocity": 0.6614173228346457
          },
          {
            "duration": 0.01146747916664026,
            "durationTicks": 8,
            "midi": 42,
            "name": "F#2",
            "ticks": 150904,
            "time": 215.73087152083335,
            "velocity": 0.6692913385826772
          },
          {
            "duration": 0.01146747916664026,
            "durationTicks": 8,
            "midi": 38,
            "name": "D2",
            "ticks": 150910,
            "time": 215.73947213020836,
            "velocity": 0.8661417322834646
          },
          {
            "duration": 0.011467479166668682,
            "durationTicks": 8,
            "midi": 59,
            "name": "B3",
            "ticks": 151098,
            "time": 216.008957890625,
            "velocity": 0.7401574803149606
          },
          {
            "duration": 0.011467479166697103,
            "durationTicks": 8,
            "midi": 42,
            "name": "F#2",
            "ticks": 151100,
            "time": 216.01182476041666,
            "velocity": 0.7480314960629921
          },
          {
            "duration": 0.01146747916664026,
            "durationTicks": 8,
            "midi": 35,
            "name": "B1",
            "ticks": 151104,
            "time": 216.0175585,
            "velocity": 0.6771653543307087
          },
          {
            "duration": 0.011467479166668682,
            "durationTicks": 8,
            "midi": 35,
            "name": "B1",
            "ticks": 151290,
            "time": 216.284177390625,
            "velocity": 0.8740157480314961
          },
          {
            "duration": 0.011467479166668682,
            "durationTicks": 8,
            "midi": 42,
            "name": "F#2",
            "ticks": 151296,
            "time": 216.292778,
            "velocity": 0.6850393700787402
          },
          {
            "duration": 0.01146747916664026,
            "durationTicks": 8,
            "midi": 59,
            "name": "B3",
            "ticks": 151480,
            "time": 216.55653002083335,
            "velocity": 0.6692913385826772
          },
          {
            "duration": 0.011467479166668682,
            "durationTicks": 8,
            "midi": 42,
            "name": "F#2",
            "ticks": 151484,
            "time": 216.56226376041667,
            "velocity": 0.7480314960629921
          },
          {
            "duration": 0.011467479166697103,
            "durationTicks": 8,
            "midi": 42,
            "name": "F#2",
            "ticks": 151676,
            "time": 216.83748326041666,
            "velocity": 0.6929133858267716
          },
          {
            "duration": 0.01146747916664026,
            "durationTicks": 8,
            "midi": 38,
            "name": "D2",
            "ticks": 151678,
            "time": 216.84035013020835,
            "velocity": 0.8740157480314961
          },
          {
            "duration": 0.011467479166668682,
            "durationTicks": 8,
            "midi": 59,
            "name": "B3",
            "ticks": 151864,
            "time": 217.10696902083333,
            "velocity": 0.7086614173228346
          },
          {
            "duration": 0.011467479166668682,
            "durationTicks": 8,
            "midi": 42,
            "name": "F#2",
            "ticks": 151866,
            "time": 217.109835890625,
            "velocity": 0.7401574803149606
          },
          {
            "duration": 0.01146747916664026,
            "durationTicks": 8,
            "midi": 49,
            "name": "C#3",
            "ticks": 152058,
            "time": 217.385055390625,
            "velocity": 0.6220472440944882
          },
          {
            "duration": 0.011467479166668682,
            "durationTicks": 8,
            "midi": 35,
            "name": "B1",
            "ticks": 152062,
            "time": 217.39078913020833,
            "velocity": 0.889763779527559
          },
          {
            "duration": 0.011467479166668682,
            "durationTicks": 8,
            "midi": 59,
            "name": "B3",
            "ticks": 152064,
            "time": 217.393656,
            "velocity": 0.6929133858267716
          },
          {
            "duration": 0.011467479166668682,
            "durationTicks": 8,
            "midi": 42,
            "name": "F#2",
            "ticks": 152252,
            "time": 217.66314176041666,
            "velocity": 0.7322834645669292
          },
          {
            "duration": 0.011467479166668682,
            "durationTicks": 8,
            "midi": 59,
            "name": "B3",
            "ticks": 152252,
            "time": 217.66314176041666,
            "velocity": 0.6456692913385826
          },
          {
            "duration": 0.011467479166697103,
            "durationTicks": 8,
            "midi": 42,
            "name": "F#2",
            "ticks": 152348,
            "time": 217.80075151041666,
            "velocity": 0.6062992125984252
          },
          {
            "duration": 0.011467479166697103,
            "durationTicks": 8,
            "midi": 59,
            "name": "B3",
            "ticks": 152348,
            "time": 217.80075151041666,
            "velocity": 0.6929133858267716
          },
          {
            "duration": 0.011467479166668682,
            "durationTicks": 8,
            "midi": 42,
            "name": "F#2",
            "ticks": 152442,
            "time": 217.935494390625,
            "velocity": 0.7637795275590551
          },
          {
            "duration": 0.011467479166668682,
            "durationTicks": 8,
            "midi": 38,
            "name": "D2",
            "ticks": 152446,
            "time": 217.94122813020834,
            "velocity": 0.7952755905511811
          },
          {
            "duration": 0.011467479166668682,
            "durationTicks": 8,
            "midi": 42,
            "name": "F#2",
            "ticks": 152634,
            "time": 218.210713890625,
            "velocity": 0.7480314960629921
          },
          {
            "duration": 0.011467479166668682,
            "durationTicks": 8,
            "midi": 59,
            "name": "B3",
            "ticks": 152634,
            "time": 218.210713890625,
            "velocity": 0.7086614173228346
          },
          {
            "duration": 0.011467479166697103,
            "durationTicks": 8,
            "midi": 35,
            "name": "B1",
            "ticks": 152636,
            "time": 218.21358076041665,
            "velocity": 0.6614173228346457
          },
          {
            "duration": 0.01146747916664026,
            "durationTicks": 8,
            "midi": 42,
            "name": "F#2",
            "ticks": 152824,
            "time": 218.48306652083335,
            "velocity": 0.7637795275590551
          },
          {
            "duration": 0.01146747916664026,
            "durationTicks": 8,
            "midi": 35,
            "name": "B1",
            "ticks": 152826,
            "time": 218.485933390625,
            "velocity": 0.8503937007874016
          },
          {
            "duration": 0.011467479166697103,
            "durationTicks": 8,
            "midi": 59,
            "name": "B3",
            "ticks": 153020,
            "time": 218.76401976041666,
            "velocity": 0.6614173228346457
          },
          {
            "duration": 0.01146747916664026,
            "durationTicks": 8,
            "midi": 42,
            "name": "F#2",
            "ticks": 153022,
            "time": 218.76688663020835,
            "velocity": 0.7401574803149606
          },
          {
            "duration": 0.011467479166668682,
            "durationTicks": 8,
            "midi": 42,
            "name": "F#2",
            "ticks": 153210,
            "time": 219.036372390625,
            "velocity": 0.7480314960629921
          },
          {
            "duration": 0.011467479166668682,
            "durationTicks": 8,
            "midi": 59,
            "name": "B3",
            "ticks": 153210,
            "time": 219.036372390625,
            "velocity": 0.6220472440944882
          },
          {
            "duration": 0.011467479166668682,
            "durationTicks": 8,
            "midi": 38,
            "name": "D2",
            "ticks": 153214,
            "time": 219.04210613020834,
            "velocity": 0.8661417322834646
          },
          {
            "duration": 0.01146747916664026,
            "durationTicks": 8,
            "midi": 42,
            "name": "F#2",
            "ticks": 153406,
            "time": 219.31732563020836,
            "velocity": 0.7401574803149606
          },
          {
            "duration": 0.011467479166668682,
            "durationTicks": 8,
            "midi": 42,
            "name": "F#2",
            "ticks": 153594,
            "time": 219.586811390625,
            "velocity": 0.7480314960629921
          },
          {
            "duration": 0.011467479166697103,
            "durationTicks": 8,
            "midi": 35,
            "name": "B1",
            "ticks": 153596,
            "time": 219.58967826041666,
            "velocity": 0.8740157480314961
          },
          {
            "duration": 0.011467479166697103,
            "durationTicks": 8,
            "midi": 59,
            "name": "B3",
            "ticks": 153596,
            "time": 219.58967826041666,
            "velocity": 0.6929133858267716
          },
          {
            "duration": 0.011467479166668682,
            "durationTicks": 8,
            "midi": 42,
            "name": "F#2",
            "ticks": 153786,
            "time": 219.862030890625,
            "velocity": 0.6850393700787402
          },
          {
            "duration": 0.011467479166668682,
            "durationTicks": 8,
            "midi": 59,
            "name": "B3",
            "ticks": 153792,
            "time": 219.8706315,
            "velocity": 0.6062992125984252
          },
          {
            "duration": 0.011467479166668682,
            "durationTicks": 8,
            "midi": 42,
            "name": "F#2",
            "ticks": 153882,
            "time": 219.999640640625,
            "velocity": 0.7401574803149606
          },
          {
            "duration": 0.011467479166697103,
            "durationTicks": 8,
            "midi": 59,
            "name": "B3",
            "ticks": 153884,
            "time": 220.00250751041665,
            "velocity": 0.6850393700787402
          },
          {
            "duration": 0.011467479166697103,
            "durationTicks": 8,
            "midi": 38,
            "name": "D2",
            "ticks": 153980,
            "time": 220.14011726041664,
            "velocity": 0.8346456692913385
          },
          {
            "duration": 0.011467479166668682,
            "durationTicks": 8,
            "midi": 42,
            "name": "F#2",
            "ticks": 153982,
            "time": 220.14298413020833,
            "velocity": 0.6850393700787402
          },
          {
            "duration": 0.01146747916664026,
            "durationTicks": 8,
            "midi": 42,
            "name": "F#2",
            "ticks": 154170,
            "time": 220.412469890625,
            "velocity": 0.7322834645669292
          },
          {
            "duration": 0.011467479166668682,
            "durationTicks": 8,
            "midi": 59,
            "name": "B3",
            "ticks": 154172,
            "time": 220.41533676041666,
            "velocity": 0.7086614173228346
          },
          {
            "duration": 0.01146747916664026,
            "durationTicks": 8,
            "midi": 35,
            "name": "B1",
            "ticks": 154174,
            "time": 220.41820363020835,
            "velocity": 0.6299212598425197
          },
          {
            "duration": 0.01146747916664026,
            "durationTicks": 8,
            "midi": 35,
            "name": "B1",
            "ticks": 154368,
            "time": 220.69629,
            "velocity": 0.889763779527559
          },
          {
            "duration": 0.01146747916664026,
            "durationTicks": 8,
            "midi": 42,
            "name": "F#2",
            "ticks": 154368,
            "time": 220.69629,
            "velocity": 0.6929133858267716
          },
          {
            "duration": 0.011467479166697103,
            "durationTicks": 8,
            "midi": 42,
            "name": "F#2",
            "ticks": 154556,
            "time": 220.96577576041665,
            "velocity": 0.7480314960629921
          },
          {
            "duration": 0.011467479166668682,
            "durationTicks": 8,
            "midi": 59,
            "name": "B3",
            "ticks": 154558,
            "time": 220.96864263020834,
            "velocity": 0.6377952755905512
          },
          {
            "duration": 0.01146747916664026,
            "durationTicks": 8,
            "midi": 59,
            "name": "B3",
            "ticks": 154744,
            "time": 221.23526152083335,
            "velocity": 0.6614173228346457
          },
          {
            "duration": 0.011467479166668682,
            "durationTicks": 8,
            "midi": 42,
            "name": "F#2",
            "ticks": 154748,
            "time": 221.24099526041667,
            "velocity": 0.7322834645669292
          },
          {
            "duration": 0.01146747916664026,
            "durationTicks": 8,
            "midi": 38,
            "name": "D2",
            "ticks": 154750,
            "time": 221.24386213020836,
            "velocity": 0.8346456692913385
          },
          {
            "duration": 0.01146747916664026,
            "durationTicks": 8,
            "midi": 42,
            "name": "F#2",
            "ticks": 154942,
            "time": 221.51908163020835,
            "velocity": 0.7322834645669292
          },
          {
            "duration": 0.01146747916664026,
            "durationTicks": 8,
            "midi": 49,
            "name": "C#3",
            "ticks": 155128,
            "time": 221.78570052083336,
            "velocity": 0.5275590551181102
          },
          {
            "duration": 0.011467479166697103,
            "durationTicks": 8,
            "midi": 59,
            "name": "B3",
            "ticks": 155132,
            "time": 221.79143426041665,
            "velocity": 0.6929133858267716
          },
          {
            "duration": 0.011467479166668682,
            "durationTicks": 8,
            "midi": 35,
            "name": "B1",
            "ticks": 155136,
            "time": 221.797168,
            "velocity": 0.905511811023622
          },
          {
            "duration": 0.01146747916664026,
            "durationTicks": 8,
            "midi": 59,
            "name": "B3",
            "ticks": 155322,
            "time": 222.063786890625,
            "velocity": 0.6614173228346457
          },
          {
            "duration": 0.011467479166668682,
            "durationTicks": 8,
            "midi": 42,
            "name": "F#2",
            "ticks": 155326,
            "time": 222.06952063020833,
            "velocity": 0.6929133858267716
          },
          {
            "duration": 0.01146747916664026,
            "durationTicks": 8,
            "midi": 42,
            "name": "F#2",
            "ticks": 155422,
            "time": 222.20713038020835,
            "velocity": 0.6456692913385826
          },
          {
            "duration": 0.01146747916664026,
            "durationTicks": 8,
            "midi": 59,
            "name": "B3",
            "ticks": 155422,
            "time": 222.20713038020835,
            "velocity": 0.6692913385826772
          },
          {
            "duration": 0.011467479166668682,
            "durationTicks": 8,
            "midi": 38,
            "name": "D2",
            "ticks": 155512,
            "time": 222.33613952083334,
            "velocity": 0.8503937007874016
          },
          {
            "duration": 0.01146747916664026,
            "durationTicks": 8,
            "midi": 42,
            "name": "F#2",
            "ticks": 155520,
            "time": 222.347607,
            "velocity": 0.7795275590551181
          },
          {
            "duration": 0.011467479166668682,
            "durationTicks": 8,
            "midi": 35,
            "name": "B1",
            "ticks": 155704,
            "time": 222.61135902083333,
            "velocity": 0.6929133858267716
          },
          {
            "duration": 0.011467479166668682,
            "durationTicks": 8,
            "midi": 42,
            "name": "F#2",
            "ticks": 155706,
            "time": 222.614225890625,
            "velocity": 0.6850393700787402
          },
          {
            "duration": 0.011467479166697103,
            "durationTicks": 8,
            "midi": 59,
            "name": "B3",
            "ticks": 155708,
            "time": 222.61709276041665,
            "velocity": 0.7086614173228346
          },
          {
            "duration": 0.01146747916664026,
            "durationTicks": 8,
            "midi": 35,
            "name": "B1",
            "ticks": 155896,
            "time": 222.88657852083335,
            "velocity": 0.889763779527559
          },
          {
            "duration": 0.01146747916664026,
            "durationTicks": 8,
            "midi": 42,
            "name": "F#2",
            "ticks": 155896,
            "time": 222.88657852083335,
            "velocity": 0.7401574803149606
          },
          {
            "duration": 0.011467479166668682,
            "durationTicks": 8,
            "midi": 42,
            "name": "F#2",
            "ticks": 156088,
            "time": 223.16179802083334,
            "velocity": 0.6929133858267716
          },
          {
            "duration": 0.01146747916664026,
            "durationTicks": 8,
            "midi": 59,
            "name": "B3",
            "ticks": 156090,
            "time": 223.164664890625,
            "velocity": 0.6220472440944882
          },
          {
            "duration": 0.011467479166668682,
            "durationTicks": 8,
            "midi": 38,
            "name": "D2",
            "ticks": 156280,
            "time": 223.43701752083334,
            "velocity": 0.8503937007874016
          },
          {
            "duration": 0.011467479166668682,
            "durationTicks": 8,
            "midi": 59,
            "name": "B3",
            "ticks": 156280,
            "time": 223.43701752083334,
            "velocity": 0.7165354330708661
          },
          {
            "duration": 0.01146747916664026,
            "durationTicks": 8,
            "midi": 42,
            "name": "F#2",
            "ticks": 156288,
            "time": 223.448485,
            "velocity": 0.7401574803149606
          },
          {
            "duration": 0.011467479166697103,
            "durationTicks": 8,
            "midi": 42,
            "name": "F#2",
            "ticks": 156476,
            "time": 223.71797076041665,
            "velocity": 0.7401574803149606
          },
          {
            "duration": 0.011467479166668682,
            "durationTicks": 8,
            "midi": 42,
            "name": "F#2",
            "ticks": 156668,
            "time": 223.99319026041667,
            "velocity": 0.8346456692913385
          },
          {
            "duration": 0.011467479166668682,
            "durationTicks": 8,
            "midi": 35,
            "name": "B1",
            "ticks": 156672,
            "time": 223.998924,
            "velocity": 0.905511811023622
          },
          {
            "duration": 0.01146747916664026,
            "durationTicks": 8,
            "midi": 42,
            "name": "F#2",
            "ticks": 158014,
            "time": 225.92259363020835,
            "velocity": 0.8188976377952756
          },
          {
            "duration": 0.011467479166697103,
            "durationTicks": 8,
            "midi": 35,
            "name": "B1",
            "ticks": 158204,
            "time": 226.19494626041666,
            "velocity": 0.889763779527559
          },
          {
            "duration": 0.01146747916664026,
            "durationTicks": 8,
            "midi": 42,
            "name": "F#2",
            "ticks": 158208,
            "time": 226.20068,
            "velocity": 0.6929133858267716
          },
          {
            "duration": 0.01146747916664026,
            "durationTicks": 8,
            "midi": 42,
            "name": "F#2",
            "ticks": 158392,
            "time": 226.46443202083336,
            "velocity": 0.7322834645669292
          },
          {
            "duration": 0.01146747916664026,
            "durationTicks": 8,
            "midi": 42,
            "name": "F#2",
            "ticks": 158490,
            "time": 226.604908640625,
            "velocity": 0.6062992125984252
          },
          {
            "duration": 0.01146747916664026,
            "durationTicks": 8,
            "midi": 38,
            "name": "D2",
            "ticks": 158584,
            "time": 226.73965152083335,
            "velocity": 0.7952755905511811
          },
          {
            "duration": 0.011467479166668682,
            "durationTicks": 8,
            "midi": 42,
            "name": "F#2",
            "ticks": 158592,
            "time": 226.751119,
            "velocity": 0.7637795275590551
          },
          {
            "duration": 0.011467479166668682,
            "durationTicks": 8,
            "midi": 35,
            "name": "B1",
            "ticks": 158776,
            "time": 227.01487102083334,
            "velocity": 0.6614173228346457
          },
          {
            "duration": 0.01146747916664026,
            "durationTicks": 8,
            "midi": 42,
            "name": "F#2",
            "ticks": 158782,
            "time": 227.02347163020835,
            "velocity": 0.7480314960629921
          },
          {
            "duration": 0.011467479166697103,
            "durationTicks": 8,
            "midi": 42,
            "name": "F#2",
            "ticks": 158972,
            "time": 227.29582426041665,
            "velocity": 0.7637795275590551
          },
          {
            "duration": 0.011467479166668682,
            "durationTicks": 8,
            "midi": 35,
            "name": "B1",
            "ticks": 158974,
            "time": 227.29869113020834,
            "velocity": 0.8503937007874016
          },
          {
            "duration": 0.011467479166668682,
            "durationTicks": 8,
            "midi": 42,
            "name": "F#2",
            "ticks": 159164,
            "time": 227.57104376041667,
            "velocity": 0.7401574803149606
          },
          {
            "duration": 0.011467479166668682,
            "durationTicks": 8,
            "midi": 38,
            "name": "D2",
            "ticks": 159354,
            "time": 227.843396390625,
            "velocity": 0.8661417322834646
          },
          {
            "duration": 0.01146747916664026,
            "durationTicks": 8,
            "midi": 42,
            "name": "F#2",
            "ticks": 159360,
            "time": 227.851997,
            "velocity": 0.7480314960629921
          },
          {
            "duration": 0.011467479166668682,
            "durationTicks": 8,
            "midi": 42,
            "name": "F#2",
            "ticks": 159550,
            "time": 228.12434963020834,
            "velocity": 0.7401574803149606
          },
          {
            "duration": 0.011467479166697103,
            "durationTicks": 8,
            "midi": 42,
            "name": "F#2",
            "ticks": 159740,
            "time": 228.39670226041665,
            "velocity": 0.7480314960629921
          },
          {
            "duration": 0.011467479166668682,
            "durationTicks": 8,
            "midi": 35,
            "name": "B1",
            "ticks": 159744,
            "time": 228.402436,
            "velocity": 0.8740157480314961
          },
          {
            "duration": 0.011467479166668682,
            "durationTicks": 8,
            "midi": 42,
            "name": "F#2",
            "ticks": 159928,
            "time": 228.66618802083335,
            "velocity": 0.6850393700787402
          },
          {
            "duration": 0.01146747916664026,
            "durationTicks": 8,
            "midi": 42,
            "name": "F#2",
            "ticks": 160032,
            "time": 228.81526525,
            "velocity": 0.7401574803149606
          },
          {
            "duration": 0.011467479166668682,
            "durationTicks": 8,
            "midi": 38,
            "name": "D2",
            "ticks": 160122,
            "time": 228.944274390625,
            "velocity": 0.8346456692913385
          },
          {
            "duration": 0.011467479166668682,
            "durationTicks": 8,
            "midi": 42,
            "name": "F#2",
            "ticks": 160122,
            "time": 228.944274390625,
            "velocity": 0.6850393700787402
          },
          {
            "duration": 0.011467479166668682,
            "durationTicks": 8,
            "midi": 42,
            "name": "F#2",
            "ticks": 160314,
            "time": 229.219493890625,
            "velocity": 0.7322834645669292
          },
          {
            "duration": 0.011467479166668682,
            "durationTicks": 8,
            "midi": 35,
            "name": "B1",
            "ticks": 160318,
            "time": 229.22522763020834,
            "velocity": 0.6299212598425197
          },
          {
            "duration": 0.011467479166668682,
            "durationTicks": 8,
            "midi": 35,
            "name": "B1",
            "ticks": 160508,
            "time": 229.49758026041667,
            "velocity": 0.889763779527559
          },
          {
            "duration": 0.011467479166668682,
            "durationTicks": 8,
            "midi": 42,
            "name": "F#2",
            "ticks": 160512,
            "time": 229.503314,
            "velocity": 0.6929133858267716
          },
          {
            "duration": 0.011467479166668682,
            "durationTicks": 8,
            "midi": 42,
            "name": "F#2",
            "ticks": 160696,
            "time": 229.76706602083334,
            "velocity": 0.7480314960629921
          },
          {
            "duration": 0.011467479166668682,
            "durationTicks": 8,
            "midi": 38,
            "name": "D2",
            "ticks": 160890,
            "time": 230.045152390625,
            "velocity": 0.8346456692913385
          },
          {
            "duration": 0.011467479166668682,
            "durationTicks": 8,
            "midi": 42,
            "name": "F#2",
            "ticks": 160896,
            "time": 230.053753,
            "velocity": 0.7322834645669292
          },
          {
            "duration": 0.011467479166668682,
            "durationTicks": 8,
            "midi": 42,
            "name": "F#2",
            "ticks": 161086,
            "time": 230.32610563020833,
            "velocity": 0.7322834645669292
          },
          {
            "duration": 0.01146747916664026,
            "durationTicks": 8,
            "midi": 35,
            "name": "B1",
            "ticks": 161280,
            "time": 230.604192,
            "velocity": 0.905511811023622
          },
          {
            "duration": 0.01146747916664026,
            "durationTicks": 8,
            "midi": 42,
            "name": "F#2",
            "ticks": 161280,
            "time": 230.604192,
            "velocity": 0.7401574803149606
          },
          {
            "duration": 0.011467479166697103,
            "durationTicks": 8,
            "midi": 42,
            "name": "F#2",
            "ticks": 161468,
            "time": 230.87367776041665,
            "velocity": 0.6929133858267716
          },
          {
            "duration": 0.011467479166668682,
            "durationTicks": 8,
            "midi": 42,
            "name": "F#2",
            "ticks": 161562,
            "time": 231.008420640625,
            "velocity": 0.6456692913385826
          },
          {
            "duration": 0.01146747916664026,
            "durationTicks": 8,
            "midi": 38,
            "name": "D2",
            "ticks": 161656,
            "time": 231.14316352083335,
            "velocity": 0.8503937007874016
          },
          {
            "duration": 0.01146747916664026,
            "durationTicks": 8,
            "midi": 42,
            "name": "F#2",
            "ticks": 161656,
            "time": 231.14316352083335,
            "velocity": 0.7795275590551181
          },
          {
            "duration": 0.011467479166668682,
            "durationTicks": 8,
            "midi": 35,
            "name": "B1",
            "ticks": 161852,
            "time": 231.42411676041667,
            "velocity": 0.6929133858267716
          },
          {
            "duration": 0.01146747916664026,
            "durationTicks": 8,
            "midi": 42,
            "name": "F#2",
            "ticks": 161854,
            "time": 231.42698363020835,
            "velocity": 0.6850393700787402
          },
          {
            "duration": 0.011467479166697103,
            "durationTicks": 8,
            "midi": 35,
            "name": "B1",
            "ticks": 162044,
            "time": 231.69933626041666,
            "velocity": 0.889763779527559
          },
          {
            "duration": 0.011467479166668682,
            "durationTicks": 8,
            "midi": 42,
            "name": "F#2",
            "ticks": 162046,
            "time": 231.70220313020835,
            "velocity": 0.7401574803149606
          },
          {
            "duration": 0.011467479166697103,
            "durationTicks": 8,
            "midi": 42,
            "name": "F#2",
            "ticks": 162236,
            "time": 231.97455576041665,
            "velocity": 0.6929133858267716
          },
          {
            "duration": 0.01146747916664026,
            "durationTicks": 8,
            "midi": 42,
            "name": "F#2",
            "ticks": 162426,
            "time": 232.246908390625,
            "velocity": 0.7401574803149606
          },
          {
            "duration": 0.01146747916664026,
            "durationTicks": 8,
            "midi": 38,
            "name": "D2",
            "ticks": 162430,
            "time": 232.25264213020836,
            "velocity": 0.8503937007874016
          },
          {
            "duration": 0.011467479166697103,
            "durationTicks": 8,
            "midi": 42,
            "name": "F#2",
            "ticks": 162620,
            "time": 232.52499476041666,
            "velocity": 0.7401574803149606
          },
          {
            "duration": 0.011467479166668682,
            "durationTicks": 8,
            "midi": 42,
            "name": "F#2",
            "ticks": 162814,
            "time": 232.80308113020834,
            "velocity": 0.7480314960629921
          },
          {
            "duration": 0.011467479166668682,
            "durationTicks": 8,
            "midi": 35,
            "name": "B1",
            "ticks": 162816,
            "time": 232.805948,
            "velocity": 0.889763779527559
          },
          {
            "duration": 0.01146747916664026,
            "durationTicks": 8,
            "midi": 42,
            "name": "F#2",
            "ticks": 163000,
            "time": 233.06970002083335,
            "velocity": 0.7322834645669292
          },
          {
            "duration": 0.011467479166668682,
            "durationTicks": 8,
            "midi": 42,
            "name": "F#2",
            "ticks": 163100,
            "time": 233.21304351041667,
            "velocity": 0.7165354330708661
          },
          {
            "duration": 0.01146747916664026,
            "durationTicks": 8,
            "midi": 42,
            "name": "F#2",
            "ticks": 163194,
            "time": 233.347786390625,
            "velocity": 0.6692913385826772
          },
          {
            "duration": 0.011467479166668682,
            "durationTicks": 8,
            "midi": 38,
            "name": "D2",
            "ticks": 163196,
            "time": 233.35065326041666,
            "velocity": 0.8503937007874016
          },
          {
            "duration": 0.011467479166668682,
            "durationTicks": 8,
            "midi": 42,
            "name": "F#2",
            "ticks": 163384,
            "time": 233.62013902083334,
            "velocity": 0.7401574803149606
          },
          {
            "duration": 0.011467479166697103,
            "durationTicks": 8,
            "midi": 35,
            "name": "B1",
            "ticks": 163388,
            "time": 233.62587276041666,
            "velocity": 0.6850393700787402
          },
          {
            "duration": 0.011467479166668682,
            "durationTicks": 8,
            "midi": 42,
            "name": "F#2",
            "ticks": 163582,
            "time": 233.90395913020834,
            "velocity": 0.7322834645669292
          },
          {
            "duration": 0.011467479166668682,
            "durationTicks": 8,
            "midi": 35,
            "name": "B1",
            "ticks": 163584,
            "time": 233.906826,
            "velocity": 0.8661417322834646
          },
          {
            "duration": 0.011467479166668682,
            "durationTicks": 8,
            "midi": 42,
            "name": "F#2",
            "ticks": 163768,
            "time": 234.17057802083335,
            "velocity": 0.7322834645669292
          },
          {
            "duration": 0.01146747916664026,
            "durationTicks": 8,
            "midi": 38,
            "name": "D2",
            "ticks": 163968,
            "time": 234.457265,
            "velocity": 0.7952755905511811
          },
          {
            "duration": 0.01146747916664026,
            "durationTicks": 8,
            "midi": 42,
            "name": "F#2",
            "ticks": 163968,
            "time": 234.457265,
            "velocity": 0.7480314960629921
          },
          {
            "duration": 0.01146747916664026,
            "durationTicks": 8,
            "midi": 42,
            "name": "F#2",
            "ticks": 164152,
            "time": 234.72101702083336,
            "velocity": 0.7322834645669292
          },
          {
            "duration": 0.01146747916664026,
            "durationTicks": 8,
            "midi": 35,
            "name": "B1",
            "ticks": 164346,
            "time": 234.999103390625,
            "velocity": 0.8661417322834646
          },
          {
            "duration": 0.011467479166668682,
            "durationTicks": 8,
            "midi": 42,
            "name": "F#2",
            "ticks": 164352,
            "time": 235.007704,
            "velocity": 0.6929133858267716
          },
          {
            "duration": 0.011467479166697103,
            "durationTicks": 8,
            "midi": 42,
            "name": "F#2",
            "ticks": 164540,
            "time": 235.27718976041666,
            "velocity": 0.6850393700787402
          },
          {
            "duration": 0.01146747916664026,
            "durationTicks": 8,
            "midi": 42,
            "name": "F#2",
            "ticks": 164640,
            "time": 235.42053325,
            "velocity": 0.6220472440944882
          },
          {
            "duration": 0.011467479166668682,
            "durationTicks": 8,
            "midi": 38,
            "name": "D2",
            "ticks": 164730,
            "time": 235.549542390625,
            "velocity": 0.8188976377952756
          },
          {
            "duration": 0.011467479166668682,
            "durationTicks": 8,
            "midi": 42,
            "name": "F#2",
            "ticks": 164736,
            "time": 235.558143,
            "velocity": 0.7480314960629921
          },
          {
            "duration": 0.01146747916664026,
            "durationTicks": 8,
            "midi": 42,
            "name": "F#2",
            "ticks": 164920,
            "time": 235.82189502083335,
            "velocity": 0.7165354330708661
          },
          {
            "duration": 0.01146747916664026,
            "durationTicks": 8,
            "midi": 35,
            "name": "B1",
            "ticks": 164922,
            "time": 235.824761890625,
            "velocity": 0.6377952755905512
          },
          {
            "duration": 0.011467479166668682,
            "durationTicks": 8,
            "midi": 42,
            "name": "F#2",
            "ticks": 165112,
            "time": 236.09711452083334,
            "velocity": 0.7401574803149606
          },
          {
            "duration": 0.01146747916664026,
            "durationTicks": 8,
            "midi": 35,
            "name": "B1",
            "ticks": 165118,
            "time": 236.10571513020835,
            "velocity": 0.8503937007874016
          },
          {
            "duration": 0.01146747916664026,
            "durationTicks": 8,
            "midi": 42,
            "name": "F#2",
            "ticks": 165312,
            "time": 236.3838015,
            "velocity": 0.6929133858267716
          },
          {
            "duration": 0.01146747916664026,
            "durationTicks": 8,
            "midi": 42,
            "name": "F#2",
            "ticks": 165496,
            "time": 236.64755352083336,
            "velocity": 0.7165354330708661
          },
          {
            "duration": 0.01146747916664026,
            "durationTicks": 8,
            "midi": 38,
            "name": "D2",
            "ticks": 165498,
            "time": 236.65042039062502,
            "velocity": 0.8661417322834646
          },
          {
            "duration": 0.011467479166668682,
            "durationTicks": 8,
            "midi": 42,
            "name": "F#2",
            "ticks": 165692,
            "time": 236.92850676041667,
            "velocity": 0.7165354330708661
          },
          {
            "duration": 0.011467479166668682,
            "durationTicks": 8,
            "midi": 42,
            "name": "F#2",
            "ticks": 165882,
            "time": 237.200859390625,
            "velocity": 0.6929133858267716
          },
          {
            "duration": 0.01146747916664026,
            "durationTicks": 8,
            "midi": 35,
            "name": "B1",
            "ticks": 165888,
            "time": 237.20946,
            "velocity": 0.8661417322834646
          },
          {
            "duration": 0.01146747916664026,
            "durationTicks": 8,
            "midi": 42,
            "name": "F#2",
            "ticks": 166072,
            "time": 237.47321202083336,
            "velocity": 0.6850393700787402
          },
          {
            "duration": 0.01146747916664026,
            "durationTicks": 8,
            "midi": 42,
            "name": "F#2",
            "ticks": 166170,
            "time": 237.613688640625,
            "velocity": 0.6220472440944882
          },
          {
            "duration": 0.01146747916664026,
            "durationTicks": 8,
            "midi": 38,
            "name": "D2",
            "ticks": 166266,
            "time": 237.751298390625,
            "velocity": 0.8188976377952756
          },
          {
            "duration": 0.01146747916664026,
            "durationTicks": 8,
            "midi": 42,
            "name": "F#2",
            "ticks": 166266,
            "time": 237.751298390625,
            "velocity": 0.7480314960629921
          },
          {
            "duration": 0.01146747916664026,
            "durationTicks": 8,
            "midi": 35,
            "name": "B1",
            "ticks": 166462,
            "time": 238.03225163020835,
            "velocity": 0.6377952755905512
          },
          {
            "duration": 0.01146747916664026,
            "durationTicks": 8,
            "midi": 42,
            "name": "F#2",
            "ticks": 166462,
            "time": 238.03225163020835,
            "velocity": 0.7165354330708661
          },
          {
            "duration": 0.011467479166668682,
            "durationTicks": 8,
            "midi": 35,
            "name": "B1",
            "ticks": 166648,
            "time": 238.29887052083333,
            "velocity": 0.8503937007874016
          },
          {
            "duration": 0.011467479166668682,
            "durationTicks": 8,
            "midi": 42,
            "name": "F#2",
            "ticks": 166654,
            "time": 238.30747113020834,
            "velocity": 0.7401574803149606
          },
          {
            "duration": 0.011467479166668682,
            "durationTicks": 8,
            "midi": 42,
            "name": "F#2",
            "ticks": 166848,
            "time": 238.5855575,
            "velocity": 0.6929133858267716
          },
          {
            "duration": 0.01146747916664026,
            "durationTicks": 8,
            "midi": 42,
            "name": "F#2",
            "ticks": 167034,
            "time": 238.852176390625,
            "velocity": 0.7165354330708661
          },
          {
            "duration": 0.01146747916664026,
            "durationTicks": 8,
            "midi": 38,
            "name": "D2",
            "ticks": 167040,
            "time": 238.860777,
            "velocity": 0.8661417322834646
          },
          {
            "duration": 0.01146747916664026,
            "durationTicks": 8,
            "midi": 42,
            "name": "F#2",
            "ticks": 167232,
            "time": 239.1359965,
            "velocity": 0.7165354330708661
          },
          {
            "duration": 0.011467479166697103,
            "durationTicks": 8,
            "midi": 35,
            "name": "B1",
            "ticks": 167420,
            "time": 239.40548226041665,
            "velocity": 0.889763779527559
          },
          {
            "duration": 0.011467479166668682,
            "durationTicks": 8,
            "midi": 42,
            "name": "F#2",
            "ticks": 167422,
            "time": 239.40834913020834,
            "velocity": 0.7401574803149606
          }
        ],
        "endOfTrackTicks": 169100
      },
      {
        "channel": 10,
        "controlChanges": {
          "1": [
            {
              "number": 1,
              "ticks": 21788,
              "time": 30.65149151041667,
              "value": 0.047244094488188976
            },
            {
              "number": 1,
              "ticks": 21818,
              "time": 30.69449455729167,
              "value": 0.11023622047244094
            },
            {
              "number": 1,
              "ticks": 21862,
              "time": 30.757565692708333,
              "value": 0.1968503937007874
            },
            {
              "number": 1,
              "ticks": 21892,
              "time": 30.800568739583333,
              "value": 0.25196850393700787
            },
            {
              "number": 1,
              "ticks": 21922,
              "time": 30.843571786458334,
              "value": 0.30708661417322836
            },
            {
              "number": 1,
              "ticks": 21952,
              "time": 30.886574833333334,
              "value": 0.36220472440944884
            },
            {
              "number": 1,
              "ticks": 21996,
              "time": 30.94964596875,
              "value": 0.4409448818897638
            },
            {
              "number": 1,
              "ticks": 22026,
              "time": 30.992649015625002,
              "value": 0.48031496062992124
            },
            {
              "number": 1,
              "ticks": 22056,
              "time": 31.0356520625,
              "value": 0.5275590551181102
            },
            {
              "number": 1,
              "ticks": 22086,
              "time": 31.078655109375,
              "value": 0.5669291338582677
            },
            {
              "number": 1,
              "ticks": 22130,
              "time": 31.14172624479167,
              "value": 0.6299212598425197
            },
            {
              "number": 1,
              "ticks": 22160,
              "time": 31.184729291666667,
              "value": 0.6692913385826772
            },
            {
              "number": 1,
              "ticks": 22190,
              "time": 31.227732338541667,
              "value": 0.6850393700787402
            },
            {
              "number": 1,
              "ticks": 22264,
              "time": 31.33380652083333,
              "value": 0.6614173228346457
            },
            {
              "number": 1,
              "ticks": 22308,
              "time": 31.396877656250002,
              "value": 0.5669291338582677
            },
            {
              "number": 1,
              "ticks": 22338,
              "time": 31.439880703125002,
              "value": 0.4881889763779528
            },
            {
              "number": 1,
              "ticks": 22368,
              "time": 31.48288375,
              "value": 0.4015748031496063
            },
            {
              "number": 1,
              "ticks": 22398,
              "time": 31.525886796875,
              "value": 0.2992125984251969
            },
            {
              "number": 1,
              "ticks": 22428,
              "time": 31.56888984375,
              "value": 0.1968503937007874
            },
            {
              "number": 1,
              "ticks": 22472,
              "time": 31.631960979166667,
              "value": 0.047244094488188976
            },
            {
              "number": 1,
              "ticks": 22502,
              "time": 31.674964026041668,
              "value": 0
            },
            {
              "number": 1,
              "ticks": 71016,
              "time": 101.2166245625,
              "value": 0.031496062992125984
            },
            {
              "number": 1,
              "ticks": 71060,
              "time": 101.27969569791667,
              "value": 0.07874015748031496
            },
            {
              "number": 1,
              "ticks": 71090,
              "time": 101.32269874479167,
              "value": 0.11023622047244094
            },
            {
              "number": 1,
              "ticks": 71120,
              "time": 101.36570179166667,
              "value": 0.13385826771653545
            },
            {
              "number": 1,
              "ticks": 71150,
              "time": 101.40870483854167,
              "value": 0.16535433070866143
            },
            {
              "number": 1,
              "ticks": 71180,
              "time": 101.45170788541667,
              "value": 0.1968503937007874
            },
            {
              "number": 1,
              "ticks": 71224,
              "time": 101.51477902083333,
              "value": 0.23622047244094488
            },
            {
              "number": 1,
              "ticks": 71254,
              "time": 101.55778206770833,
              "value": 0.2677165354330709
            },
            {
              "number": 1,
              "ticks": 71284,
              "time": 101.60078511458333,
              "value": 0.29133858267716534
            },
            {
              "number": 1,
              "ticks": 71328,
              "time": 101.66385625,
              "value": 0.33070866141732286
            },
            {
              "number": 1,
              "ticks": 71358,
              "time": 101.706859296875,
              "value": 0.36220472440944884
            },
            {
              "number": 1,
              "ticks": 71388,
              "time": 101.74986234375,
              "value": 0.3937007874015748
            },
            {
              "number": 1,
              "ticks": 71432,
              "time": 101.81293347916667,
              "value": 0.4251968503937008
            },
            {
              "number": 1,
              "ticks": 71462,
              "time": 101.85593652604167,
              "value": 0.44881889763779526
            },
            {
              "number": 1,
              "ticks": 71492,
              "time": 101.89893957291667,
              "value": 0.47244094488188976
            },
            {
              "number": 1,
              "ticks": 71522,
              "time": 101.94194261979167,
              "value": 0.4881889763779528
            },
            {
              "number": 1,
              "ticks": 71566,
              "time": 102.00501375520832,
              "value": 0.5196850393700787
            },
            {
              "number": 1,
              "ticks": 71596,
              "time": 102.04801680208332,
              "value": 0.5354330708661418
            },
            {
              "number": 1,
              "ticks": 71640,
              "time": 102.1110879375,
              "value": 0.5669291338582677
            },
            {
              "number": 1,
              "ticks": 71670,
              "time": 102.154090984375,
              "value": 0.5826771653543307
            },
            {
              "number": 1,
              "ticks": 71700,
              "time": 102.19709403125,
              "value": 0.5905511811023622
            },
            {
              "number": 1,
              "ticks": 71746,
              "time": 102.26303203645833,
              "value": 0.6062992125984252
            },
            {
              "number": 1,
              "ticks": 71790,
              "time": 102.326103171875,
              "value": 0.6299212598425197
            },
            {
              "number": 1,
              "ticks": 71820,
              "time": 102.36910621875,
              "value": 0.6456692913385826
            },
            {
              "number": 1,
              "ticks": 71850,
              "time": 102.41210926562499,
              "value": 0.6535433070866141
            },
            {
              "number": 1,
              "ticks": 72012,
              "time": 102.64432571875,
              "value": 0.6299212598425197
            },
            {
              "number": 1,
              "ticks": 72042,
              "time": 102.687328765625,
              "value": 0.6141732283464567
            },
            {
              "number": 1,
              "ticks": 72072,
              "time": 102.7303318125,
              "value": 0.5905511811023622
            },
            {
              "number": 1,
              "ticks": 72102,
              "time": 102.773334859375,
              "value": 0.5590551181102362
            },
            {
              "number": 1,
              "ticks": 72146,
              "time": 102.83640599479168,
              "value": 0.5196850393700787
            },
            {
              "number": 1,
              "ticks": 72176,
              "time": 102.87940904166668,
              "value": 0.48031496062992124
            },
            {
              "number": 1,
              "ticks": 72220,
              "time": 102.94248017708333,
              "value": 0.41732283464566927
            },
            {
              "number": 1,
              "ticks": 72250,
              "time": 102.98548322395833,
              "value": 0.3543307086614173
            },
            {
              "number": 1,
              "ticks": 72280,
              "time": 103.02848627083333,
              "value": 0.2677165354330709
            },
            {
              "number": 1,
              "ticks": 72310,
              "time": 103.07148931770833,
              "value": 0.16535433070866143
            },
            {
              "number": 1,
              "ticks": 72340,
              "time": 103.11449236458333,
              "value": 0.03937007874015748
            },
            {
              "number": 1,
              "ticks": 72370,
              "time": 103.15749541145833,
              "value": 0
            }
          ]
        },
        "pitchBends": [
          {
            "ticks": 18184,
            "time": 25.485392145833334,
            "value": -0.02587890625
          },
          {
            "ticks": 18202,
            "time": 25.51119397395833,
            "value": -0.0689697265625
          },
          {
            "ticks": 18216,
            "time": 25.5312620625,
            "value": -0.12939453125
          },
          {
            "ticks": 18230,
            "time": 25.551330151041668,
            "value": -0.1983642578125
          },
          {
            "ticks": 18246,
            "time": 25.574265109375002,
            "value": -0.267333984375
          },
          {
            "ticks": 18260,
            "time": 25.59433319791667,
            "value": -0.3363037109375
          },
          {
            "ticks": 18276,
            "time": 25.61726815625,
            "value": -0.4052734375
          },
          {
            "ticks": 18290,
            "time": 25.63733624479167,
            "value": -0.4827880859375
          },
          {
            "ticks": 18306,
            "time": 25.660271203125,
            "value": -0.543212890625
          },
          {
            "ticks": 18320,
            "time": 25.68033929166667,
            "value": -0.6121826171875
          },
          {
            "ticks": 18336,
            "time": 25.70327425,
            "value": -0.689697265625
          },
          {
            "ticks": 18350,
            "time": 25.72334233854167,
            "value": -0.741455078125
          },
          {
            "ticks": 18364,
            "time": 25.743410427083333,
            "value": -0.8017578125
          },
          {
            "ticks": 18380,
            "time": 25.766345385416667,
            "value": -0.8448486328125
          },
          {
            "ticks": 18394,
            "time": 25.786413473958333,
            "value": -0.9052734375
          },
          {
            "ticks": 18408,
            "time": 25.8064815625,
            "value": -0.93115234375
          },
          {
            "ticks": 18424,
            "time": 25.829416520833334,
            "value": -0.9742431640625
          },
          {
            "ticks": 18454,
            "time": 25.87241956770833,
            "value": -0.913818359375
          },
          {
            "ticks": 18468,
            "time": 25.89248765625,
            "value": -0.8017578125
          },
          {
            "ticks": 18484,
            "time": 25.91542261458333,
            "value": -0.6552734375
          },
          {
            "ticks": 18498,
            "time": 25.935490703125,
            "value": -0.5345458984375
          },
          {
            "ticks": 18514,
            "time": 25.95842566145833,
            "value": -0.4483642578125
          },
          {
            "ticks": 18528,
            "time": 25.978493750000002,
            "value": -0.353515625
          },
          {
            "ticks": 18542,
            "time": 25.99856183854167,
            "value": -0.267333984375
          },
          {
            "ticks": 18558,
            "time": 26.021496796875,
            "value": -0.189697265625
          },
          {
            "ticks": 18572,
            "time": 26.04156488541667,
            "value": -0.1466064453125
          },
          {
            "ticks": 18588,
            "time": 26.06449984375,
            "value": -0.1121826171875
          },
          {
            "ticks": 18602,
            "time": 26.08456793229167,
            "value": -0.0863037109375
          },
          {
            "ticks": 18618,
            "time": 26.107502890625,
            "value": -0.0604248046875
          },
          {
            "ticks": 18632,
            "time": 26.12757097916667,
            "value": -0.043212890625
          },
          {
            "ticks": 18648,
            "time": 26.1505059375,
            "value": -0.02587890625
          },
          {
            "ticks": 18670,
            "time": 26.182041505208332,
            "value": 0
          },
          {
            "ticks": 70652,
            "time": 100.69485426041668,
            "value": -0.8470458984375
          },
          {
            "ticks": 70662,
            "time": 100.709188609375,
            "value": -0.8104248046875
          },
          {
            "ticks": 70676,
            "time": 100.72925669791667,
            "value": -0.7586669921875
          },
          {
            "ticks": 70690,
            "time": 100.74932478645833,
            "value": -0.6724853515625
          },
          {
            "ticks": 70706,
            "time": 100.77225974479167,
            "value": -0.57763671875
          },
          {
            "ticks": 70720,
            "time": 100.79232783333333,
            "value": -0.517333984375
          },
          {
            "ticks": 70736,
            "time": 100.81526279166667,
            "value": -0.4569091796875
          },
          {
            "ticks": 70750,
            "time": 100.83533088020833,
            "value": -0.4052734375
          },
          {
            "ticks": 70764,
            "time": 100.85539896875,
            "value": -0.37939453125
          },
          {
            "ticks": 70780,
            "time": 100.87833392708333,
            "value": -0.3448486328125
          },
          {
            "ticks": 70810,
            "time": 100.92133697395833,
            "value": -0.3363037109375
          },
          {
            "ticks": 70824,
            "time": 100.9414050625,
            "value": -0.32763671875
          },
          {
            "ticks": 70862,
            "time": 100.99587558854167,
            "value": -0.3189697265625
          },
          {
            "ticks": 70876,
            "time": 101.01594367708333,
            "value": -0.3104248046875
          },
          {
            "ticks": 70898,
            "time": 101.04747924479167,
            "value": -0.3017578125
          },
          {
            "ticks": 70922,
            "time": 101.08188168229167,
            "value": -0.27587890625
          },
          {
            "ticks": 70950,
            "time": 101.12201785937499,
            "value": -0.2586669921875
          },
          {
            "ticks": 70966,
            "time": 101.14495281770833,
            "value": -0.2501220703125
          },
          {
            "ticks": 70988,
            "time": 101.17648838541668,
            "value": -0.241455078125
          },
          {
            "ticks": 71002,
            "time": 101.19655647395832,
            "value": -0.2242431640625
          },
          {
            "ticks": 71018,
            "time": 101.21949143229168,
            "value": -0.215576171875
          },
          {
            "ticks": 71032,
            "time": 101.23955952083332,
            "value": -0.2069091796875
          },
          {
            "ticks": 71086,
            "time": 101.31696500520833,
            "value": -0.1983642578125
          },
          {
            "ticks": 71100,
            "time": 101.33703309375,
            "value": -0.189697265625
          },
          {
            "ticks": 71122,
            "time": 101.36856866145833,
            "value": -0.18115234375
          },
          {
            "ticks": 71136,
            "time": 101.38863675,
            "value": -0.1724853515625
          },
          {
            "ticks": 71160,
            "time": 101.4230391875,
            "value": -0.163818359375
          },
          {
            "ticks": 71182,
            "time": 101.45457475520833,
            "value": -0.1552734375
          },
          {
            "ticks": 71196,
            "time": 101.47464284375,
            "value": -0.1466064453125
          },
          {
            "ticks": 71220,
            "time": 101.50904528125,
            "value": -0.1207275390625
          },
          {
            "ticks": 71248,
            "time": 101.54918145833332,
            "value": -0.1121826171875
          },
          {
            "ticks": 71292,
            "time": 101.61225259375,
            "value": -0.103515625
          },
          {
            "ticks": 71382,
            "time": 101.741261734375,
            "value": -0.0948486328125
          },
          {
            "ticks": 71420,
            "time": 101.79573226041667,
            "value": -0.0863037109375
          },
          {
            "ticks": 71448,
            "time": 101.8358684375,
            "value": -0.07763671875
          },
          {
            "ticks": 71472,
            "time": 101.870270875,
            "value": -0.0689697265625
          },
          {
            "ticks": 71560,
            "time": 101.99641314583333,
            "value": -0.0604248046875
          },
          {
            "ticks": 71612,
            "time": 102.07095176041668,
            "value": -0.0517578125
          },
          {
            "ticks": 71658,
            "time": 102.136889765625,
            "value": -0.043212890625
          },
          {
            "ticks": 71680,
            "time": 102.16842533333333,
            "value": -0.0345458984375
          },
          {
            "ticks": 71702,
            "time": 102.19996090104166,
            "value": -0.017333984375
          },
          {
            "ticks": 71716,
            "time": 102.22002898958333,
            "value": 0
          }
        ],
        "instrument": {
          "family": "piano",
          "number": 0,
          "name": "acoustic grand piano"
        },
        "name": "",
        "notes": [
          {
            "duration": 0.8141910208333378,
            "durationTicks": 568,
            "midi": 74,
            "name": "D5",
            "ticks": 18430,
            "time": 25.838017130208332,
            "velocity": 0.8503937007874016
          },
          {
            "duration": 0.12614227083333418,
            "durationTicks": 88,
            "midi": 73,
            "name": "C#5",
            "ticks": 19004,
            "time": 26.660808760416668,
            "velocity": 0.8267716535433071
          },
          {
            "duration": 0.12614227083333418,
            "durationTicks": 88,
            "midi": 71,
            "name": "B4",
            "ticks": 19100,
            "time": 26.798418510416667,
            "velocity": 0.7637795275590551
          },
          {
            "duration": 0.2580182812500027,
            "durationTicks": 180,
            "midi": 73,
            "name": "C#5",
            "ticks": 19194,
            "time": 26.933161390625,
            "velocity": 0.8267716535433071
          },
          {
            "duration": 0.12040853124999984,
            "durationTicks": 84,
            "midi": 66,
            "name": "F#4",
            "ticks": 20734,
            "time": 29.140651130208333,
            "velocity": 0.7480314960629921
          },
          {
            "duration": 0.1003404427083332,
            "durationTicks": 70,
            "midi": 64,
            "name": "E4",
            "ticks": 21018,
            "time": 29.547746640625,
            "velocity": 0.6929133858267716
          },
          {
            "duration": 0.10034044270833675,
            "durationTicks": 70,
            "midi": 61,
            "name": "C#4",
            "ticks": 21310,
            "time": 29.966309630208332,
            "velocity": 0.7007874015748031
          },
          {
            "duration": 1.5366422083333333,
            "durationTicks": 1072,
            "midi": 59,
            "name": "B3",
            "ticks": 21500,
            "time": 30.238662260416667,
            "velocity": 0.6929133858267716
          },
          {
            "duration": 0.4586991666666762,
            "durationTicks": 320,
            "midi": 54,
            "name": "F#3",
            "ticks": 26492,
            "time": 37.39436926041667,
            "velocity": 0.4566929133858268
          },
          {
            "duration": 0.4386310781249989,
            "durationTicks": 306,
            "midi": 59,
            "name": "B3",
            "ticks": 26492,
            "time": 37.39436926041667,
            "velocity": 0.4330708661417323
          },
          {
            "duration": 0.4414979479166661,
            "durationTicks": 308,
            "midi": 63,
            "name": "D#4",
            "ticks": 26494,
            "time": 37.39723613020834,
            "velocity": 0.4409448818897638
          },
          {
            "duration": 0.1806127968749962,
            "durationTicks": 126,
            "midi": 57,
            "name": "A3",
            "ticks": 69108,
            "time": 98.48163078125,
            "velocity": 0.8582677165354331
          },
          {
            "duration": 0.17774592708335035,
            "durationTicks": 124,
            "midi": 69,
            "name": "A4",
            "ticks": 69112,
            "time": 98.48736452083332,
            "velocity": 0.84251968503937
          },
          {
            "duration": 0.1920802760416791,
            "durationTicks": 134,
            "midi": 68,
            "name": "G#4",
            "ticks": 69376,
            "time": 98.86579133333332,
            "velocity": 0.8661417322834646
          },
          {
            "duration": 0.1720121875000018,
            "durationTicks": 120,
            "midi": 56,
            "name": "G#3",
            "ticks": 69380,
            "time": 98.87152507291667,
            "velocity": 0.8188976377952756
          },
          {
            "duration": 0.2006808854166735,
            "durationTicks": 140,
            "midi": 57,
            "name": "A3",
            "ticks": 69640,
            "time": 99.24421814583333,
            "velocity": 0.84251968503937
          },
          {
            "duration": 0.1920802760416649,
            "durationTicks": 134,
            "midi": 69,
            "name": "A4",
            "ticks": 69644,
            "time": 99.24995188541666,
            "velocity": 0.8188976377952756
          },
          {
            "duration": 0.39849490104167273,
            "durationTicks": 278,
            "midi": 68,
            "name": "G#4",
            "ticks": 69886,
            "time": 99.59684313020833,
            "velocity": 0.84251968503937
          },
          {
            "duration": 0.3927611614583242,
            "durationTicks": 274,
            "midi": 56,
            "name": "G#3",
            "ticks": 69890,
            "time": 99.60257686979168,
            "velocity": 0.8110236220472441
          },
          {
            "duration": 0.39562803124999846,
            "durationTicks": 276,
            "midi": 54,
            "name": "F#3",
            "ticks": 70162,
            "time": 99.99247116145833,
            "velocity": 0.7401574803149606
          },
          {
            "duration": 0.4013617708333328,
            "durationTicks": 280,
            "midi": 66,
            "name": "F#4",
            "ticks": 70164,
            "time": 99.99533803125,
            "velocity": 0.7795275590551181
          },
          {
            "duration": 0.30962193749999756,
            "durationTicks": 216,
            "midi": 52,
            "name": "E3",
            "ticks": 70442,
            "time": 100.39383293229167,
            "velocity": 0.7165354330708661
          },
          {
            "duration": 0.3067550677083233,
            "durationTicks": 214,
            "midi": 64,
            "name": "E4",
            "ticks": 70442,
            "time": 100.39383293229167,
            "velocity": 0.6614173228346457
          },
          {
            "duration": 2.342232619791673,
            "durationTicks": 1634,
            "midi": 83,
            "name": "B5",
            "ticks": 70654,
            "time": 100.69772113020832,
            "velocity": 0.7637795275590551
          },
          {
            "duration": 0.2551514114583284,
            "durationTicks": 178,
            "midi": 56,
            "name": "G#3",
            "ticks": 84858,
            "time": 121.058230390625,
            "velocity": 0.889763779527559
          },
          {
            "duration": 0.24941767187499408,
            "durationTicks": 174,
            "midi": 64,
            "name": "E4",
            "ticks": 85050,
            "time": 121.333449890625,
            "velocity": 0.8661417322834646
          },
          {
            "duration": 0.2092814947916537,
            "durationTicks": 146,
            "midi": 56,
            "name": "G#3",
            "ticks": 85244,
            "time": 121.61153626041667,
            "velocity": 0.8661417322834646
          },
          {
            "duration": 0.18347966666667048,
            "durationTicks": 128,
            "midi": 56,
            "name": "G#3",
            "ticks": 85434,
            "time": 121.883888890625,
            "velocity": 0.7874015748031497
          }
        ],
        "endOfTrackTicks": 85754
      },
      {
        "channel": 11,
        "controlChanges": {},
        "pitchBends": [
          {
            "ticks": 18218,
            "time": 25.53412893229167,
            "value": -0.017333984375
          },
          {
            "ticks": 18236,
            "time": 25.55993076041667,
            "value": -0.0948486328125
          },
          {
            "ticks": 18250,
            "time": 25.579998848958333,
            "value": -0.215576171875
          },
          {
            "ticks": 18266,
            "time": 25.60293380729167,
            "value": -0.3448486328125
          },
          {
            "ticks": 18280,
            "time": 25.623001895833333,
            "value": -0.465576171875
          },
          {
            "ticks": 18296,
            "time": 25.645936854166667,
            "value": -0.5689697265625
          },
          {
            "ticks": 18310,
            "time": 25.666004942708334,
            "value": -0.663818359375
          },
          {
            "ticks": 18324,
            "time": 25.68607303125,
            "value": -0.77587890625
          },
          {
            "ticks": 18340,
            "time": 25.709007989583334,
            "value": -0.87939453125
          },
          {
            "ticks": 18354,
            "time": 25.729076078125,
            "value": -0.9483642578125
          },
          {
            "ticks": 18370,
            "time": 25.75201103645833,
            "value": -1
          },
          {
            "ticks": 18452,
            "time": 25.869552697916667,
            "value": -0.9742431640625
          },
          {
            "ticks": 18466,
            "time": 25.889620786458334,
            "value": -0.8363037109375
          },
          {
            "ticks": 18482,
            "time": 25.912555744791668,
            "value": -0.663818359375
          },
          {
            "ticks": 18496,
            "time": 25.93262383333333,
            "value": -0.5345458984375
          },
          {
            "ticks": 18512,
            "time": 25.955558791666668,
            "value": -0.43115234375
          },
          {
            "ticks": 18526,
            "time": 25.97562688020833,
            "value": -0.32763671875
          },
          {
            "ticks": 18542,
            "time": 25.99856183854167,
            "value": -0.2501220703125
          },
          {
            "ticks": 18556,
            "time": 26.01862992708333,
            "value": -0.189697265625
          },
          {
            "ticks": 18570,
            "time": 26.038698015625002,
            "value": -0.1466064453125
          },
          {
            "ticks": 18586,
            "time": 26.061632973958332,
            "value": -0.103515625
          },
          {
            "ticks": 18600,
            "time": 26.0817010625,
            "value": -0.07763671875
          },
          {
            "ticks": 18614,
            "time": 26.10176915104167,
            "value": -0.0345458984375
          },
          {
            "ticks": 18630,
            "time": 26.124704109375,
            "value": 0
          }
        ],
        "instrument": {
          "family": "piano",
          "number": 0,
          "name": "acoustic grand piano"
        },
        "name": "",
        "notes": [
          {
            "duration": 0.8113241510416636,
            "durationTicks": 566,
            "midi": 71,
            "name": "B4",
            "ticks": 18428,
            "time": 25.83515026041667,
            "velocity": 0.7716535433070866
          },
          {
            "duration": 0.12614227083333418,
            "durationTicks": 88,
            "midi": 69,
            "name": "A4",
            "ticks": 19004,
            "time": 26.660808760416668,
            "velocity": 0.7480314960629921
          },
          {
            "duration": 0.12614227083333418,
            "durationTicks": 88,
            "midi": 66,
            "name": "F#4",
            "ticks": 19102,
            "time": 26.801285380208334,
            "velocity": 0.7637795275590551
          },
          {
            "duration": 0.3210894166666627,
            "durationTicks": 224,
            "midi": 69,
            "name": "A4",
            "ticks": 19196,
            "time": 26.93602826041667,
            "velocity": 0.7874015748031497
          },
          {
            "duration": 2.201756000000003,
            "durationTicks": 1536,
            "midi": 47,
            "name": "B2",
            "ticks": 24550,
            "time": 34.610638692708335,
            "velocity": 0.9212598425196851
          },
          {
            "duration": 2.1902885208333345,
            "durationTicks": 1528,
            "midi": 54,
            "name": "F#3",
            "ticks": 24568,
            "time": 34.63644052083334,
            "velocity": 0.9291338582677166
          },
          {
            "duration": 2.1788210416666587,
            "durationTicks": 1520,
            "midi": 59,
            "name": "B3",
            "ticks": 24578,
            "time": 34.650774869791675,
            "velocity": 0.952755905511811
          },
          {
            "duration": 2.16448669270833,
            "durationTicks": 1510,
            "midi": 63,
            "name": "D#4",
            "ticks": 24588,
            "time": 34.665109218750004,
            "velocity": 0.905511811023622
          },
          {
            "duration": 0.2006808854166593,
            "durationTicks": 140,
            "midi": 66,
            "name": "F#4",
            "ticks": 69116,
            "time": 98.49309826041667,
            "velocity": 0.7952755905511811
          },
          {
            "duration": 0.16914531770835595,
            "durationTicks": 118,
            "midi": 64,
            "name": "E4",
            "ticks": 69376,
            "time": 98.86579133333332,
            "velocity": 0.7716535433070866
          },
          {
            "duration": 0.18347966666667048,
            "durationTicks": 128,
            "midi": 66,
            "name": "F#4",
            "ticks": 69628,
            "time": 99.22701692708333,
            "velocity": 0.7952755905511811
          },
          {
            "duration": 0.4013617708333328,
            "durationTicks": 280,
            "midi": 64,
            "name": "E4",
            "ticks": 69882,
            "time": 99.591109390625,
            "velocity": 0.7559055118110236
          },
          {
            "duration": 0.3812936822916555,
            "durationTicks": 266,
            "midi": 61,
            "name": "C#4",
            "ticks": 70154,
            "time": 99.98100368229167,
            "velocity": 0.7086614173228346
          },
          {
            "duration": 0.26375202083332283,
            "durationTicks": 184,
            "midi": 59,
            "name": "B3",
            "ticks": 70434,
            "time": 100.382365453125,
            "velocity": 0.5748031496062992
          },
          {
            "duration": 2.181687911458326,
            "durationTicks": 1522,
            "midi": 54,
            "name": "F#3",
            "ticks": 70650,
            "time": 100.691987390625,
            "velocity": 0.8267716535433071
          },
          {
            "duration": 2.1816879114583543,
            "durationTicks": 1522,
            "midi": 47,
            "name": "B2",
            "ticks": 70654,
            "time": 100.69772113020832,
            "velocity": 0.8503937007874016
          },
          {
            "duration": 1.6312489114583286,
            "durationTicks": 1138,
            "midi": 45,
            "name": "A2",
            "ticks": 72186,
            "time": 102.893743390625,
            "velocity": 0.8503937007874016
          },
          {
            "duration": 1.6312489114583286,
            "durationTicks": 1138,
            "midi": 52,
            "name": "E3",
            "ticks": 72188,
            "time": 102.89661026041667,
            "velocity": 0.8503937007874016
          },
          {
            "duration": 0.5303709114583341,
            "durationTicks": 370,
            "midi": 45,
            "name": "A2",
            "ticks": 73338,
            "time": 104.545060390625,
            "velocity": 0.8188976377952756
          },
          {
            "duration": 0.5303709114583341,
            "durationTicks": 370,
            "midi": 52,
            "name": "E3",
            "ticks": 73340,
            "time": 104.54792726041667,
            "velocity": 0.8346456692913385
          },
          {
            "duration": 2.181687911458326,
            "durationTicks": 1522,
            "midi": 47,
            "name": "B2",
            "ticks": 73724,
            "time": 105.09836626041667,
            "velocity": 0.8503937007874016
          },
          {
            "duration": 2.181687911458326,
            "durationTicks": 1522,
            "midi": 54,
            "name": "F#3",
            "ticks": 73724,
            "time": 105.09836626041667,
            "velocity": 0.8188976377952756
          },
          {
            "duration": 1.9064684114583343,
            "durationTicks": 1330,
            "midi": 45,
            "name": "A2",
            "ticks": 75258,
            "time": 107.297255390625,
            "velocity": 0.8188976377952756
          },
          {
            "duration": 1.9064684114583343,
            "durationTicks": 1330,
            "midi": 52,
            "name": "E3",
            "ticks": 75262,
            "time": 107.30298913020833,
            "velocity": 0.84251968503937
          },
          {
            "duration": 0.2551514114583284,
            "durationTicks": 178,
            "midi": 45,
            "name": "A2",
            "ticks": 76602,
            "time": 109.223791890625,
            "velocity": 0.8188976377952756
          },
          {
            "duration": 0.2551514114583284,
            "durationTicks": 178,
            "midi": 52,
            "name": "E3",
            "ticks": 76604,
            "time": 109.22665876041667,
            "velocity": 0.8267716535433071
          },
          {
            "duration": 1.6312489114583286,
            "durationTicks": 1138,
            "midi": 49,
            "name": "C#3",
            "ticks": 76796,
            "time": 109.50187826041667,
            "velocity": 0.8346456692913385
          },
          {
            "duration": 1.631248911458357,
            "durationTicks": 1138,
            "midi": 56,
            "name": "G#3",
            "ticks": 76798,
            "time": 109.50474513020832,
            "velocity": 0.84251968503937
          },
          {
            "duration": 0.5303709114583341,
            "durationTicks": 370,
            "midi": 49,
            "name": "C#3",
            "ticks": 77948,
            "time": 111.15319526041667,
            "velocity": 0.84251968503937
          },
          {
            "duration": 0.5303709114583484,
            "durationTicks": 370,
            "midi": 56,
            "name": "G#3",
            "ticks": 77950,
            "time": 111.15606213020833,
            "velocity": 0.8110236220472441
          },
          {
            "duration": 1.6312489114583286,
            "durationTicks": 1138,
            "midi": 49,
            "name": "C#3",
            "ticks": 78330,
            "time": 111.700767390625,
            "velocity": 0.84251968503937
          },
          {
            "duration": 1.6312489114583144,
            "durationTicks": 1138,
            "midi": 42,
            "name": "F#2",
            "ticks": 78332,
            "time": 111.70363426041668,
            "velocity": 0.8346456692913385
          },
          {
            "duration": 0.5303709114583341,
            "durationTicks": 370,
            "midi": 42,
            "name": "F#2",
            "ticks": 79484,
            "time": 113.35495126041667,
            "velocity": 0.8110236220472441
          },
          {
            "duration": 0.5303709114583341,
            "durationTicks": 370,
            "midi": 49,
            "name": "C#3",
            "ticks": 79486,
            "time": 113.35781813020833,
            "velocity": 0.84251968503937
          },
          {
            "duration": 1.0808099114583314,
            "durationTicks": 754,
            "midi": 45,
            "name": "A2",
            "ticks": 79868,
            "time": 113.90539026041667,
            "velocity": 0.8346456692913385
          },
          {
            "duration": 1.0808099114583456,
            "durationTicks": 754,
            "midi": 52,
            "name": "E3",
            "ticks": 79870,
            "time": 113.90825713020833,
            "velocity": 0.8267716535433071
          },
          {
            "duration": 1.0808099114583314,
            "durationTicks": 754,
            "midi": 54,
            "name": "F#3",
            "ticks": 80634,
            "time": 115.003401390625,
            "velocity": 0.8188976377952756
          },
          {
            "duration": 1.0808099114583456,
            "durationTicks": 754,
            "midi": 47,
            "name": "B2",
            "ticks": 80638,
            "time": 115.00913513020832,
            "velocity": 0.8503937007874016
          },
          {
            "duration": 1.0808099114583314,
            "durationTicks": 754,
            "midi": 49,
            "name": "C#3",
            "ticks": 81402,
            "time": 116.104279390625,
            "velocity": 0.8346456692913385
          },
          {
            "duration": 1.0808099114583314,
            "durationTicks": 754,
            "midi": 56,
            "name": "G#3",
            "ticks": 81404,
            "time": 116.10714626041667,
            "velocity": 0.8503937007874016
          },
          {
            "duration": 0.5303709114583341,
            "durationTicks": 370,
            "midi": 49,
            "name": "C#3",
            "ticks": 82172,
            "time": 117.20802426041666,
            "velocity": 0.84251968503937
          },
          {
            "duration": 0.5303709114583484,
            "durationTicks": 370,
            "midi": 56,
            "name": "G#3",
            "ticks": 82174,
            "time": 117.21089113020832,
            "velocity": 0.8267716535433071
          },
          {
            "duration": 0.5303709114583199,
            "durationTicks": 370,
            "midi": 47,
            "name": "B2",
            "ticks": 82554,
            "time": 117.755596390625,
            "velocity": 0.8503937007874016
          },
          {
            "duration": 0.5303709114583484,
            "durationTicks": 370,
            "midi": 54,
            "name": "F#3",
            "ticks": 82558,
            "time": 117.76133013020832,
            "velocity": 0.8031496062992126
          },
          {
            "duration": 1.0808099114583314,
            "durationTicks": 754,
            "midi": 45,
            "name": "A2",
            "ticks": 82938,
            "time": 118.306035390625,
            "velocity": 0.8346456692913385
          },
          {
            "duration": 1.0808099114583314,
            "durationTicks": 754,
            "midi": 52,
            "name": "E3",
            "ticks": 82938,
            "time": 118.306035390625,
            "velocity": 0.8188976377952756
          },
          {
            "duration": 1.0808099114583314,
            "durationTicks": 754,
            "midi": 47,
            "name": "B2",
            "ticks": 83706,
            "time": 119.406913390625,
            "velocity": 0.8503937007874016
          },
          {
            "duration": 1.0808099114583314,
            "durationTicks": 754,
            "midi": 54,
            "name": "F#3",
            "ticks": 83708,
            "time": 119.40978026041667,
            "velocity": 0.8188976377952756
          },
          {
            "duration": 1.0808099114583314,
            "durationTicks": 754,
            "midi": 56,
            "name": "G#3",
            "ticks": 84474,
            "time": 120.507791390625,
            "velocity": 0.8110236220472441
          },
          {
            "duration": 1.0808099114583456,
            "durationTicks": 754,
            "midi": 49,
            "name": "C#3",
            "ticks": 84478,
            "time": 120.51352513020832,
            "velocity": 0.84251968503937
          },
          {
            "duration": 0.5303709114583341,
            "durationTicks": 370,
            "midi": 49,
            "name": "C#3",
            "ticks": 85246,
            "time": 121.61440313020833,
            "velocity": 0.8503937007874016
          },
          {
            "duration": 0.5303709114583341,
            "durationTicks": 370,
            "midi": 56,
            "name": "G#3",
            "ticks": 85246,
            "time": 121.61440313020833,
            "velocity": 0.8031496062992126
          },
          {
            "duration": 0.5303709114583341,
            "durationTicks": 370,
            "midi": 54,
            "name": "F#3",
            "ticks": 85626,
            "time": 122.159108390625,
            "velocity": 0.8031496062992126
          },
          {
            "duration": 0.5303709114583341,
            "durationTicks": 370,
            "midi": 47,
            "name": "B2",
            "ticks": 85628,
            "time": 122.16197526041667,
            "velocity": 0.8503937007874016
          },
          {
            "duration": 1.0808099114583314,
            "durationTicks": 754,
            "midi": 45,
            "name": "A2",
            "ticks": 86012,
            "time": 122.71241426041667,
            "velocity": 0.8346456692913385
          },
          {
            "duration": 1.0808099114583314,
            "durationTicks": 754,
            "midi": 52,
            "name": "E3",
            "ticks": 86012,
            "time": 122.71241426041667,
            "velocity": 0.8267716535433071
          },
          {
            "duration": 1.0808099114583314,
            "durationTicks": 754,
            "midi": 54,
            "name": "F#3",
            "ticks": 86778,
            "time": 123.810425390625,
            "velocity": 0.8267716535433071
          },
          {
            "duration": 1.0808099114583314,
            "durationTicks": 754,
            "midi": 47,
            "name": "B2",
            "ticks": 86780,
            "time": 123.81329226041667,
            "velocity": 0.8267716535433071
          },
          {
            "duration": 2.18168791145834,
            "durationTicks": 1522,
            "midi": 40,
            "name": "E2",
            "ticks": 87546,
            "time": 124.911303390625,
            "velocity": 0.84251968503937
          },
          {
            "duration": 2.181687911458326,
            "durationTicks": 1522,
            "midi": 47,
            "name": "B2",
            "ticks": 87548,
            "time": 124.91417026041667,
            "velocity": 0.8740157480314961
          },
          {
            "duration": 0.1347428802083357,
            "durationTicks": 94,
            "midi": 47,
            "name": "B2",
            "ticks": 89082,
            "time": 127.113059390625,
            "velocity": 0.8582677165354331
          },
          {
            "duration": 0.13760974999999576,
            "durationTicks": 96,
            "midi": 40,
            "name": "E2",
            "ticks": 89084,
            "time": 127.11592626041667,
            "velocity": 0.8346456692913385
          },
          {
            "duration": 2.1329511250000053,
            "durationTicks": 1488,
            "midi": 54,
            "name": "F#3",
            "ticks": 102922,
            "time": 146.95179834895833,
            "velocity": 0.8503937007874016
          },
          {
            "duration": 2.127217385416685,
            "durationTicks": 1484,
            "midi": 47,
            "name": "B2",
            "ticks": 102926,
            "time": 146.95753208854165,
            "velocity": 0.9291338582677166
          },
          {
            "duration": 2.1386848645833254,
            "durationTicks": 1492,
            "midi": 59,
            "name": "B3",
            "ticks": 102928,
            "time": 146.96039895833334,
            "velocity": 0.8267716535433071
          }
        ],
        "endOfTrackTicks": 104612
      },
      {
        "channel": 12,
        "controlChanges": {
          "1": [
            {
              "number": 1,
              "ticks": 70978,
              "time": 101.16215403645833,
              "value": 0.007874015748031496
            },
            {
              "number": 1,
              "ticks": 71020,
              "time": 101.22235830208332,
              "value": 0.03937007874015748
            },
            {
              "number": 1,
              "ticks": 71050,
              "time": 101.26536134895832,
              "value": 0.07086614173228346
            },
            {
              "number": 1,
              "ticks": 71080,
              "time": 101.30836439583332,
              "value": 0.11023622047244094
            },
            {
              "number": 1,
              "ticks": 71124,
              "time": 101.37143553125,
              "value": 0.15748031496062992
            },
            {
              "number": 1,
              "ticks": 71154,
              "time": 101.414438578125,
              "value": 0.1968503937007874
            },
            {
              "number": 1,
              "ticks": 71184,
              "time": 101.457441625,
              "value": 0.23622047244094488
            },
            {
              "number": 1,
              "ticks": 71214,
              "time": 101.500444671875,
              "value": 0.2755905511811024
            },
            {
              "number": 1,
              "ticks": 71258,
              "time": 101.56351580729167,
              "value": 0.3228346456692913
            },
            {
              "number": 1,
              "ticks": 71288,
              "time": 101.60651885416667,
              "value": 0.3543307086614173
            },
            {
              "number": 1,
              "ticks": 71318,
              "time": 101.64952190104167,
              "value": 0.3858267716535433
            },
            {
              "number": 1,
              "ticks": 71362,
              "time": 101.71259303645833,
              "value": 0.4330708661417323
            },
            {
              "number": 1,
              "ticks": 71392,
              "time": 101.75559608333333,
              "value": 0.4645669291338583
            },
            {
              "number": 1,
              "ticks": 71422,
              "time": 101.79859913020833,
              "value": 0.49606299212598426
            },
            {
              "number": 1,
              "ticks": 71452,
              "time": 101.84160217708333,
              "value": 0.5275590551181102
            },
            {
              "number": 1,
              "ticks": 71482,
              "time": 101.88460522395833,
              "value": 0.5511811023622047
            },
            {
              "number": 1,
              "ticks": 71512,
              "time": 101.92760827083333,
              "value": 0.5669291338582677
            },
            {
              "number": 1,
              "ticks": 71542,
              "time": 101.97061131770833,
              "value": 0.5826771653543307
            },
            {
              "number": 1,
              "ticks": 71586,
              "time": 102.033682453125,
              "value": 0.5984251968503937
            },
            {
              "number": 1,
              "ticks": 71616,
              "time": 102.0766855,
              "value": 0.6062992125984252
            },
            {
              "number": 1,
              "ticks": 71646,
              "time": 102.119688546875,
              "value": 0.6141732283464567
            },
            {
              "number": 1,
              "ticks": 71676,
              "time": 102.16269159375,
              "value": 0.6220472440944882
            },
            {
              "number": 1,
              "ticks": 71808,
              "time": 102.351905,
              "value": 0.5984251968503937
            },
            {
              "number": 1,
              "ticks": 71838,
              "time": 102.394908046875,
              "value": 0.5826771653543307
            },
            {
              "number": 1,
              "ticks": 71868,
              "time": 102.43791109375,
              "value": 0.5669291338582677
            },
            {
              "number": 1,
              "ticks": 71898,
              "time": 102.480914140625,
              "value": 0.5433070866141733
            },
            {
              "number": 1,
              "ticks": 71942,
              "time": 102.54398527604167,
              "value": 0.4881889763779528
            },
            {
              "number": 1,
              "ticks": 71972,
              "time": 102.58698832291667,
              "value": 0.4566929133858268
            },
            {
              "number": 1,
              "ticks": 72002,
              "time": 102.62999136979167,
              "value": 0.41732283464566927
            },
            {
              "number": 1,
              "ticks": 72032,
              "time": 102.67299441666667,
              "value": 0.3779527559055118
            },
            {
              "number": 1,
              "ticks": 72076,
              "time": 102.73606555208333,
              "value": 0.33070866141732286
            },
            {
              "number": 1,
              "ticks": 72120,
              "time": 102.7991366875,
              "value": 0.2677165354330709
            },
            {
              "number": 1,
              "ticks": 72150,
              "time": 102.842139734375,
              "value": 0.2125984251968504
            },
            {
              "number": 1,
              "ticks": 72180,
              "time": 102.88514278125,
              "value": 0.1732283464566929
            },
            {
              "number": 1,
              "ticks": 72210,
              "time": 102.928145828125,
              "value": 0.11811023622047244
            },
            {
              "number": 1,
              "ticks": 72240,
              "time": 102.971148875,
              "value": 0.047244094488188976
            },
            {
              "number": 1,
              "ticks": 72270,
              "time": 103.014151921875,
              "value": 0
            }
          ]
        },
        "pitchBends": [
          {
            "ticks": 18180,
            "time": 25.47965840625,
            "value": -0.0086669921875
          },
          {
            "ticks": 18212,
            "time": 25.525528322916667,
            "value": -0.0517578125
          },
          {
            "ticks": 18226,
            "time": 25.545596411458334,
            "value": -0.0948486328125
          },
          {
            "ticks": 18242,
            "time": 25.568531369791668,
            "value": -0.1552734375
          },
          {
            "ticks": 18256,
            "time": 25.58859945833333,
            "value": -0.2327880859375
          },
          {
            "ticks": 18272,
            "time": 25.611534416666668,
            "value": -0.3104248046875
          },
          {
            "ticks": 18286,
            "time": 25.63160250520833,
            "value": -0.3966064453125
          },
          {
            "ticks": 18302,
            "time": 25.65453746354167,
            "value": -0.4827880859375
          },
          {
            "ticks": 18316,
            "time": 25.67460555208333,
            "value": -0.5689697265625
          },
          {
            "ticks": 18332,
            "time": 25.69754051041667,
            "value": -0.6466064453125
          },
          {
            "ticks": 18346,
            "time": 25.717608598958332,
            "value": -0.7327880859375
          },
          {
            "ticks": 18360,
            "time": 25.7376766875,
            "value": -0.8189697265625
          },
          {
            "ticks": 18376,
            "time": 25.760611645833333,
            "value": -0.913818359375
          },
          {
            "ticks": 18390,
            "time": 25.780679734375,
            "value": -1
          },
          {
            "ticks": 18458,
            "time": 25.87815330729167,
            "value": -0.965576171875
          },
          {
            "ticks": 18472,
            "time": 25.898221395833332,
            "value": -0.82763671875
          },
          {
            "ticks": 18488,
            "time": 25.92115635416667,
            "value": -0.7069091796875
          },
          {
            "ticks": 18502,
            "time": 25.941224442708332,
            "value": -0.6121826171875
          },
          {
            "ticks": 18516,
            "time": 25.96129253125,
            "value": -0.5086669921875
          },
          {
            "ticks": 18532,
            "time": 25.984227489583333,
            "value": -0.3966064453125
          },
          {
            "ticks": 18546,
            "time": 26.004295578125,
            "value": -0.3104248046875
          },
          {
            "ticks": 18562,
            "time": 26.027230536458333,
            "value": -0.2501220703125
          },
          {
            "ticks": 18576,
            "time": 26.047298625,
            "value": -0.2069091796875
          },
          {
            "ticks": 18592,
            "time": 26.070233583333334,
            "value": -0.18115234375
          },
          {
            "ticks": 18622,
            "time": 26.113236630208334,
            "value": -0.1552734375
          },
          {
            "ticks": 18644,
            "time": 26.14477219791667,
            "value": -0.12939453125
          },
          {
            "ticks": 18658,
            "time": 26.164840286458332,
            "value": -0.1121826171875
          },
          {
            "ticks": 18688,
            "time": 26.207843333333333,
            "value": -0.0948486328125
          },
          {
            "ticks": 18704,
            "time": 26.230778291666667,
            "value": -0.07763671875
          },
          {
            "ticks": 18732,
            "time": 26.27091446875,
            "value": -0.0689697265625
          },
          {
            "ticks": 18748,
            "time": 26.293849427083334,
            "value": -0.0604248046875
          },
          {
            "ticks": 18770,
            "time": 26.32538499479167,
            "value": -0.02587890625
          },
          {
            "ticks": 18792,
            "time": 26.3569205625,
            "value": 0
          },
          {
            "ticks": 70652,
            "time": 100.69485426041668,
            "value": -1
          },
          {
            "ticks": 70692,
            "time": 100.75219165625,
            "value": -0.8707275390625
          },
          {
            "ticks": 70706,
            "time": 100.77225974479167,
            "value": -0.741455078125
          },
          {
            "ticks": 70720,
            "time": 100.79232783333333,
            "value": -0.6466064453125
          },
          {
            "ticks": 70736,
            "time": 100.81526279166667,
            "value": -0.57763671875
          },
          {
            "ticks": 70750,
            "time": 100.83533088020833,
            "value": -0.517333984375
          },
          {
            "ticks": 70766,
            "time": 100.85826583854167,
            "value": -0.465576171875
          },
          {
            "ticks": 70780,
            "time": 100.87833392708333,
            "value": -0.3966064453125
          },
          {
            "ticks": 70796,
            "time": 100.90126888541667,
            "value": -0.353515625
          },
          {
            "ticks": 70810,
            "time": 100.92133697395833,
            "value": -0.32763671875
          },
          {
            "ticks": 70832,
            "time": 100.95287254166666,
            "value": -0.3017578125
          },
          {
            "ticks": 70848,
            "time": 100.9758075,
            "value": -0.293212890625
          },
          {
            "ticks": 70862,
            "time": 100.99587558854167,
            "value": -0.2845458984375
          },
          {
            "ticks": 70878,
            "time": 101.018810546875,
            "value": -0.267333984375
          },
          {
            "ticks": 70892,
            "time": 101.03887863541667,
            "value": -0.2501220703125
          },
          {
            "ticks": 70908,
            "time": 101.06181359375,
            "value": -0.2327880859375
          },
          {
            "ticks": 70922,
            "time": 101.08188168229167,
            "value": -0.2242431640625
          },
          {
            "ticks": 70952,
            "time": 101.12488472916667,
            "value": -0.215576171875
          },
          {
            "ticks": 70966,
            "time": 101.14495281770833,
            "value": -0.2069091796875
          },
          {
            "ticks": 70988,
            "time": 101.17648838541668,
            "value": -0.1983642578125
          },
          {
            "ticks": 71012,
            "time": 101.21089082291667,
            "value": -0.18115234375
          },
          {
            "ticks": 71034,
            "time": 101.242426390625,
            "value": -0.163818359375
          },
          {
            "ticks": 71064,
            "time": 101.2854294375,
            "value": -0.1552734375
          },
          {
            "ticks": 71094,
            "time": 101.328432484375,
            "value": -0.1466064453125
          },
          {
            "ticks": 71130,
            "time": 101.380036140625,
            "value": -0.137939453125
          },
          {
            "ticks": 71146,
            "time": 101.40297109895833,
            "value": -0.1207275390625
          },
          {
            "ticks": 71204,
            "time": 101.48611032291667,
            "value": -0.1121826171875
          },
          {
            "ticks": 71234,
            "time": 101.52911336979167,
            "value": -0.103515625
          },
          {
            "ticks": 71308,
            "time": 101.63518755208332,
            "value": -0.0948486328125
          },
          {
            "ticks": 71346,
            "time": 101.68965807812499,
            "value": -0.0863037109375
          },
          {
            "ticks": 71376,
            "time": 101.73266112499999,
            "value": -0.07763671875
          },
          {
            "ticks": 71488,
            "time": 101.89320583333333,
            "value": -0.0689697265625
          },
          {
            "ticks": 71524,
            "time": 101.94480948958332,
            "value": -0.0604248046875
          },
          {
            "ticks": 71540,
            "time": 101.96774444791667,
            "value": -0.0517578125
          },
          {
            "ticks": 71554,
            "time": 101.98781253645832,
            "value": -0.0345458984375
          },
          {
            "ticks": 71576,
            "time": 102.01934810416667,
            "value": -0.017333984375
          },
          {
            "ticks": 71598,
            "time": 102.050883671875,
            "value": 0
          }
        ],
        "instrument": {
          "family": "piano",
          "number": 0,
          "name": "acoustic grand piano"
        },
        "name": "",
        "notes": [
          {
            "duration": 0.8514603281250004,
            "durationTicks": 594,
            "midi": 66,
            "name": "F#4",
            "ticks": 18430,
            "time": 25.838017130208332,
            "velocity": 0.8110236220472441
          },
          {
            "duration": 0.17487905729166542,
            "durationTicks": 122,
            "midi": 64,
            "name": "E4",
            "ticks": 19004,
            "time": 26.660808760416668,
            "velocity": 0.7244094488188977
          },
          {
            "duration": 0.15481096874999878,
            "durationTicks": 108,
            "midi": 61,
            "name": "C#4",
            "ticks": 19102,
            "time": 26.801285380208334,
            "velocity": 0.7322834645669292
          },
          {
            "duration": 0.22648271354166383,
            "durationTicks": 158,
            "midi": 64,
            "name": "E4",
            "ticks": 19196,
            "time": 26.93602826041667,
            "velocity": 0.7874015748031497
          },
          {
            "duration": 0.4185629895833358,
            "durationTicks": 292,
            "midi": 59,
            "name": "B3",
            "ticks": 26106,
            "time": 36.841063390625,
            "velocity": 0.5196850393700787
          },
          {
            "duration": 0.4386310781249989,
            "durationTicks": 306,
            "midi": 63,
            "name": "D#4",
            "ticks": 26106,
            "time": 36.841063390625,
            "velocity": 0.5669291338582677
          },
          {
            "duration": 0.4386310781249989,
            "durationTicks": 306,
            "midi": 54,
            "name": "F#3",
            "ticks": 26108,
            "time": 36.84393026041667,
            "velocity": 0.5039370078740157
          },
          {
            "duration": 0.3898942916666783,
            "durationTicks": 272,
            "midi": 71,
            "name": "B4",
            "ticks": 69882,
            "time": 99.591109390625,
            "velocity": 0.8503937007874016
          },
          {
            "duration": 0.3898942916666783,
            "durationTicks": 272,
            "midi": 69,
            "name": "A4",
            "ticks": 70162,
            "time": 99.99247116145833,
            "velocity": 0.8346456692913385
          },
          {
            "duration": 0.2866869791666744,
            "durationTicks": 200,
            "midi": 68,
            "name": "G#4",
            "ticks": 70438,
            "time": 100.38809919270832,
            "velocity": 0.7559055118110236
          },
          {
            "duration": 2.3938362760416823,
            "durationTicks": 1670,
            "midi": 75,
            "name": "D#5",
            "ticks": 70654,
            "time": 100.69772113020832,
            "velocity": 0.7007874015748031
          },
          {
            "duration": 2.3766350572916792,
            "durationTicks": 1658,
            "midi": 78,
            "name": "F#5",
            "ticks": 70656,
            "time": 100.700588,
            "velocity": 0.6929133858267716
          },
          {
            "duration": 0.24941767187499408,
            "durationTicks": 174,
            "midi": 52,
            "name": "E3",
            "ticks": 88316,
            "time": 126.01504826041668,
            "velocity": 0.7322834645669292
          },
          {
            "duration": 0.26375202083333704,
            "durationTicks": 184,
            "midi": 56,
            "name": "G#3",
            "ticks": 88506,
            "time": 126.287400890625,
            "velocity": 0.7795275590551181
          },
          {
            "duration": 0.12614227083334129,
            "durationTicks": 88,
            "midi": 57,
            "name": "A3",
            "ticks": 88702,
            "time": 126.56835413020833,
            "velocity": 0.7244094488188977
          },
          {
            "duration": 0.1232754010416528,
            "durationTicks": 86,
            "midi": 56,
            "name": "G#3",
            "ticks": 88796,
            "time": 126.70309701041667,
            "velocity": 0.6692913385826772
          },
          {
            "duration": 0.12614227083334129,
            "durationTicks": 88,
            "midi": 57,
            "name": "A3",
            "ticks": 88894,
            "time": 126.84357363020833,
            "velocity": 0.7165354330708661
          },
          {
            "duration": 0.1261422708333555,
            "durationTicks": 88,
            "midi": 56,
            "name": "G#3",
            "ticks": 88990,
            "time": 126.98118338020832,
            "velocity": 0.7480314960629921
          },
          {
            "duration": 0.17774592708332193,
            "durationTicks": 124,
            "midi": 52,
            "name": "E3",
            "ticks": 89084,
            "time": 127.11592626041667,
            "velocity": 0.7322834645669292
          }
        ],
        "endOfTrackTicks": 89400
      },
      {
        "channel": 13,
        "controlChanges": {},
        "pitchBends": [],
        "instrument": {
          "family": "piano",
          "number": 0,
          "name": "acoustic grand piano"
        },
        "name": "",
        "notes": [
          {
            "duration": 0.0774054843750065,
            "durationTicks": 54,
            "midi": 40,
            "name": "E2",
            "ticks": 30716,
            "time": 43.449198260416665,
            "velocity": 0.7716535433070866
          },
          {
            "duration": 0.08027235416667367,
            "durationTicks": 56,
            "midi": 47,
            "name": "B2",
            "ticks": 30716,
            "time": 43.449198260416665,
            "velocity": 0.8031496062992126
          },
          {
            "duration": 0.09747357291666248,
            "durationTicks": 68,
            "midi": 52,
            "name": "E3",
            "ticks": 30718,
            "time": 43.45206513020834,
            "velocity": 0.7007874015748031
          },
          {
            "duration": 0.06880487499999788,
            "durationTicks": 48,
            "midi": 40,
            "name": "E2",
            "ticks": 30906,
            "time": 43.721550890625004,
            "velocity": 0.7165354330708661
          },
          {
            "duration": 0.07740548437499939,
            "durationTicks": 54,
            "midi": 47,
            "name": "B2",
            "ticks": 30910,
            "time": 43.72728463020834,
            "velocity": 0.7401574803149606
          },
          {
            "duration": 0.09747357291667669,
            "durationTicks": 68,
            "midi": 40,
            "name": "E2",
            "ticks": 31004,
            "time": 43.86202751041667,
            "velocity": 0.6535433070866141
          },
          {
            "duration": 0.07453861458333932,
            "durationTicks": 52,
            "midi": 47,
            "name": "B2",
            "ticks": 31004,
            "time": 43.86202751041667,
            "velocity": 0.7007874015748031
          },
          {
            "duration": 0.08027235416666656,
            "durationTicks": 56,
            "midi": 40,
            "name": "E2",
            "ticks": 31098,
            "time": 43.996770390625,
            "velocity": 0.6220472440944882
          },
          {
            "duration": 0.07453861458333222,
            "durationTicks": 52,
            "midi": 47,
            "name": "B2",
            "ticks": 31100,
            "time": 43.99963726041667,
            "velocity": 0.7086614173228346
          },
          {
            "duration": 0.10034044270833675,
            "durationTicks": 70,
            "midi": 47,
            "name": "B2",
            "ticks": 31290,
            "time": 44.271989890625,
            "velocity": 0.7874015748031497
          },
          {
            "duration": 0.11754166145832556,
            "durationTicks": 82,
            "midi": 40,
            "name": "E2",
            "ticks": 31294,
            "time": 44.27772363020834,
            "velocity": 0.6850393700787402
          },
          {
            "duration": 0.12900914062500135,
            "durationTicks": 90,
            "midi": 52,
            "name": "E3",
            "ticks": 31294,
            "time": 44.27772363020834,
            "velocity": 0.6850393700787402
          },
          {
            "duration": 0.09747357291666248,
            "durationTicks": 68,
            "midi": 40,
            "name": "E2",
            "ticks": 31482,
            "time": 44.54720939062501,
            "velocity": 0.7401574803149606
          },
          {
            "duration": 0.08313922395832662,
            "durationTicks": 58,
            "midi": 47,
            "name": "B2",
            "ticks": 31486,
            "time": 44.55294313020834,
            "velocity": 0.7874015748031497
          },
          {
            "duration": 0.1232754010416599,
            "durationTicks": 86,
            "midi": 52,
            "name": "E3",
            "ticks": 31674,
            "time": 44.822428890625005,
            "velocity": 0.6929133858267716
          },
          {
            "duration": 0.11754166145832556,
            "durationTicks": 82,
            "midi": 40,
            "name": "E2",
            "ticks": 31678,
            "time": 44.82816263020834,
            "velocity": 0.6850393700787402
          },
          {
            "duration": 0.09460670312500241,
            "durationTicks": 66,
            "midi": 47,
            "name": "B2",
            "ticks": 31678,
            "time": 44.82816263020834,
            "velocity": 0.7874015748031497
          },
          {
            "duration": 0.08887296354166807,
            "durationTicks": 62,
            "midi": 47,
            "name": "B2",
            "ticks": 31866,
            "time": 45.097648390625004,
            "velocity": 0.7874015748031497
          },
          {
            "duration": 0.14907722916666444,
            "durationTicks": 104,
            "midi": 52,
            "name": "E3",
            "ticks": 31866,
            "time": 45.097648390625004,
            "velocity": 0.6850393700787402
          },
          {
            "duration": 0.09173983333333524,
            "durationTicks": 64,
            "midi": 40,
            "name": "E2",
            "ticks": 31868,
            "time": 45.10051526041667,
            "velocity": 0.7480314960629921
          },
          {
            "duration": 0.12327540104166701,
            "durationTicks": 86,
            "midi": 40,
            "name": "E2",
            "ticks": 32058,
            "time": 45.372867890625,
            "velocity": 0.7007874015748031
          },
          {
            "duration": 0.09460670312500241,
            "durationTicks": 66,
            "midi": 47,
            "name": "B2",
            "ticks": 32062,
            "time": 45.37860163020834,
            "velocity": 0.7874015748031497
          },
          {
            "duration": 0.0860060937500009,
            "durationTicks": 60,
            "midi": 47,
            "name": "B2",
            "ticks": 32250,
            "time": 45.648087390625,
            "velocity": 0.7952755905511811
          },
          {
            "duration": 0.09747357291666958,
            "durationTicks": 68,
            "midi": 40,
            "name": "E2",
            "ticks": 32252,
            "time": 45.65095426041667,
            "velocity": 0.7401574803149606
          },
          {
            "duration": 0.13187601041666852,
            "durationTicks": 92,
            "midi": 52,
            "name": "E3",
            "ticks": 32252,
            "time": 45.65095426041667,
            "velocity": 0.6929133858267716
          },
          {
            "duration": 0.07167174479167215,
            "durationTicks": 50,
            "midi": 40,
            "name": "E2",
            "ticks": 32444,
            "time": 45.92617376041667,
            "velocity": 0.6771653543307087
          },
          {
            "duration": 0.07453861458333932,
            "durationTicks": 52,
            "midi": 47,
            "name": "B2",
            "ticks": 32444,
            "time": 45.92617376041667,
            "velocity": 0.7637795275590551
          },
          {
            "duration": 0.07740548437499939,
            "durationTicks": 54,
            "midi": 47,
            "name": "B2",
            "ticks": 32538,
            "time": 46.060916640625,
            "velocity": 0.7322834645669292
          },
          {
            "duration": 0.09747357291666958,
            "durationTicks": 68,
            "midi": 40,
            "name": "E2",
            "ticks": 32542,
            "time": 46.06665038020834,
            "velocity": 0.6535433070866141
          },
          {
            "duration": 0.08313922395832662,
            "durationTicks": 58,
            "midi": 40,
            "name": "E2",
            "ticks": 32638,
            "time": 46.20426013020834,
            "velocity": 0.6850393700787402
          },
          {
            "duration": 0.07167174479166505,
            "durationTicks": 50,
            "midi": 47,
            "name": "B2",
            "ticks": 32638,
            "time": 46.20426013020834,
            "velocity": 0.7637795275590551
          },
          {
            "duration": 0.11180792187499833,
            "durationTicks": 78,
            "midi": 40,
            "name": "E2",
            "ticks": 32826,
            "time": 46.473745890625004,
            "velocity": 0.6850393700787402
          },
          {
            "duration": 0.13187601041666142,
            "durationTicks": 92,
            "midi": 52,
            "name": "E3",
            "ticks": 32826,
            "time": 46.473745890625004,
            "velocity": 0.7007874015748031
          },
          {
            "duration": 0.08313922395832662,
            "durationTicks": 58,
            "midi": 47,
            "name": "B2",
            "ticks": 32830,
            "time": 46.47947963020834,
            "velocity": 0.7716535433070866
          },
          {
            "duration": 0.08313922395834084,
            "durationTicks": 58,
            "midi": 47,
            "name": "B2",
            "ticks": 33018,
            "time": 46.748965390625,
            "velocity": 0.7716535433070866
          },
          {
            "duration": 0.09460670312500241,
            "durationTicks": 66,
            "midi": 40,
            "name": "E2",
            "ticks": 33022,
            "time": 46.75469913020834,
            "velocity": 0.7007874015748031
          },
          {
            "duration": 0.1146747916666584,
            "durationTicks": 80,
            "midi": 40,
            "name": "E2",
            "ticks": 33214,
            "time": 47.02991863020834,
            "velocity": 0.6850393700787402
          },
          {
            "duration": 0.09173983333332814,
            "durationTicks": 64,
            "midi": 47,
            "name": "B2",
            "ticks": 33214,
            "time": 47.02991863020834,
            "velocity": 0.7795275590551181
          },
          {
            "duration": 0.10894105208332405,
            "durationTicks": 76,
            "midi": 52,
            "name": "E3",
            "ticks": 33214,
            "time": 47.02991863020834,
            "velocity": 0.6929133858267716
          },
          {
            "duration": 0.09173983333333524,
            "durationTicks": 64,
            "midi": 47,
            "name": "B2",
            "ticks": 33402,
            "time": 47.29940439062501,
            "velocity": 0.7874015748031497
          },
          {
            "duration": 0.09747357291667669,
            "durationTicks": 68,
            "midi": 40,
            "name": "E2",
            "ticks": 33404,
            "time": 47.30227126041667,
            "velocity": 0.7401574803149606
          },
          {
            "duration": 0.1433434895833301,
            "durationTicks": 100,
            "midi": 52,
            "name": "E3",
            "ticks": 33406,
            "time": 47.30513813020834,
            "velocity": 0.7007874015748031
          },
          {
            "duration": 0.09173983333333524,
            "durationTicks": 64,
            "midi": 47,
            "name": "B2",
            "ticks": 33594,
            "time": 47.574623890625006,
            "velocity": 0.7874015748031497
          },
          {
            "duration": 0.12040853124999984,
            "durationTicks": 84,
            "midi": 40,
            "name": "E2",
            "ticks": 33598,
            "time": 47.58035763020834,
            "velocity": 0.6771653543307087
          },
          {
            "duration": 0.08887296354166807,
            "durationTicks": 62,
            "midi": 47,
            "name": "B2",
            "ticks": 33788,
            "time": 47.85271026041667,
            "velocity": 0.7795275590551181
          },
          {
            "duration": 0.09747357291666248,
            "durationTicks": 68,
            "midi": 40,
            "name": "E2",
            "ticks": 33790,
            "time": 47.85557713020834,
            "velocity": 0.7480314960629921
          },
          {
            "duration": 0.14621035937500437,
            "durationTicks": 102,
            "midi": 52,
            "name": "E3",
            "ticks": 33790,
            "time": 47.85557713020834,
            "velocity": 0.7086614173228346
          },
          {
            "duration": 0.0860060937500009,
            "durationTicks": 60,
            "midi": 40,
            "name": "E2",
            "ticks": 33980,
            "time": 48.12792976041667,
            "velocity": 0.6850393700787402
          },
          {
            "duration": 0.06880487499999788,
            "durationTicks": 48,
            "midi": 47,
            "name": "B2",
            "ticks": 33980,
            "time": 48.12792976041667,
            "velocity": 0.7480314960629921
          },
          {
            "duration": 0.08027235416666656,
            "durationTicks": 56,
            "midi": 40,
            "name": "E2",
            "ticks": 34078,
            "time": 48.26840638020834,
            "velocity": 0.7244094488188977
          },
          {
            "duration": 0.09173983333332814,
            "durationTicks": 64,
            "midi": 47,
            "name": "B2",
            "ticks": 34078,
            "time": 48.26840638020834,
            "velocity": 0.7716535433070866
          },
          {
            "duration": 0.09173983333333524,
            "durationTicks": 64,
            "midi": 47,
            "name": "B2",
            "ticks": 34172,
            "time": 48.40314926041667,
            "velocity": 0.7480314960629921
          },
          {
            "duration": 0.10894105208332405,
            "durationTicks": 76,
            "midi": 40,
            "name": "E2",
            "ticks": 34174,
            "time": 48.40601613020834,
            "velocity": 0.6850393700787402
          },
          {
            "duration": 0.08887296354166097,
            "durationTicks": 62,
            "midi": 40,
            "name": "E2",
            "ticks": 34362,
            "time": 48.67550189062501,
            "velocity": 0.7244094488188977
          },
          {
            "duration": 0.08313922395833373,
            "durationTicks": 58,
            "midi": 47,
            "name": "B2",
            "ticks": 34362,
            "time": 48.67550189062501,
            "velocity": 0.7637795275590551
          },
          {
            "duration": 0.12327540104167412,
            "durationTicks": 86,
            "midi": 52,
            "name": "E3",
            "ticks": 34364,
            "time": 48.67836876041667,
            "velocity": 0.7086614173228346
          },
          {
            "duration": 0.11754166145833977,
            "durationTicks": 82,
            "midi": 40,
            "name": "E2",
            "ticks": 34556,
            "time": 48.953588260416666,
            "velocity": 0.6850393700787402
          },
          {
            "duration": 0.09173983333333524,
            "durationTicks": 64,
            "midi": 47,
            "name": "B2",
            "ticks": 34556,
            "time": 48.953588260416666,
            "velocity": 0.7874015748031497
          },
          {
            "duration": 0.10607418229166399,
            "durationTicks": 74,
            "midi": 52,
            "name": "E3",
            "ticks": 34746,
            "time": 49.225940890625004,
            "velocity": 0.7007874015748031
          },
          {
            "duration": 0.0860060937499938,
            "durationTicks": 60,
            "midi": 47,
            "name": "B2",
            "ticks": 34748,
            "time": 49.22880776041667,
            "velocity": 0.7637795275590551
          },
          {
            "duration": 0.09460670312500241,
            "durationTicks": 66,
            "midi": 40,
            "name": "E2",
            "ticks": 34750,
            "time": 49.23167463020834,
            "velocity": 0.7086614173228346
          },
          {
            "duration": 0.13187601041666852,
            "durationTicks": 92,
            "midi": 52,
            "name": "E3",
            "ticks": 34940,
            "time": 49.50402726041667,
            "velocity": 0.7086614173228346
          },
          {
            "duration": 0.10894105208333116,
            "durationTicks": 76,
            "midi": 40,
            "name": "E2",
            "ticks": 34942,
            "time": 49.50689413020834,
            "velocity": 0.6692913385826772
          },
          {
            "duration": 0.09173983333332814,
            "durationTicks": 64,
            "midi": 47,
            "name": "B2",
            "ticks": 34942,
            "time": 49.50689413020834,
            "velocity": 0.7716535433070866
          },
          {
            "duration": 0.08887296354166097,
            "durationTicks": 62,
            "midi": 40,
            "name": "E2",
            "ticks": 35134,
            "time": 49.78211363020834,
            "velocity": 0.7165354330708661
          },
          {
            "duration": 0.08027235416665945,
            "durationTicks": 56,
            "midi": 47,
            "name": "B2",
            "ticks": 35134,
            "time": 49.78211363020834,
            "velocity": 0.7716535433070866
          },
          {
            "duration": 0.14047661979166293,
            "durationTicks": 98,
            "midi": 52,
            "name": "E3",
            "ticks": 35322,
            "time": 50.05159939062501,
            "velocity": 0.7086614173228346
          },
          {
            "duration": 0.09173983333333524,
            "durationTicks": 64,
            "midi": 47,
            "name": "B2",
            "ticks": 35324,
            "time": 50.05446626041667,
            "velocity": 0.7795275590551181
          },
          {
            "duration": 0.10894105208332405,
            "durationTicks": 76,
            "midi": 40,
            "name": "E2",
            "ticks": 35326,
            "time": 50.05733313020834,
            "velocity": 0.6850393700787402
          },
          {
            "duration": 0.07453861458333222,
            "durationTicks": 52,
            "midi": 40,
            "name": "E2",
            "ticks": 35514,
            "time": 50.326818890625006,
            "velocity": 0.6850393700787402
          },
          {
            "duration": 0.07167174479166505,
            "durationTicks": 50,
            "midi": 47,
            "name": "B2",
            "ticks": 35518,
            "time": 50.33255263020834,
            "velocity": 0.7007874015748031
          },
          {
            "duration": 0.08313922395834084,
            "durationTicks": 58,
            "midi": 47,
            "name": "B2",
            "ticks": 35610,
            "time": 50.464428640625,
            "velocity": 0.7244094488188977
          },
          {
            "duration": 0.11754166145833267,
            "durationTicks": 82,
            "midi": 40,
            "name": "E2",
            "ticks": 35612,
            "time": 50.46729551041667,
            "velocity": 0.6692913385826772
          },
          {
            "duration": 0.0860060937500009,
            "durationTicks": 60,
            "midi": 40,
            "name": "E2",
            "ticks": 35706,
            "time": 50.602038390625005,
            "velocity": 0.6692913385826772
          },
          {
            "duration": 0.07740548437499939,
            "durationTicks": 54,
            "midi": 47,
            "name": "B2",
            "ticks": 35706,
            "time": 50.602038390625005,
            "velocity": 0.7716535433070866
          },
          {
            "duration": 0.10894105208333826,
            "durationTicks": 76,
            "midi": 40,
            "name": "E2",
            "ticks": 35898,
            "time": 50.877257890625,
            "velocity": 0.6850393700787402
          },
          {
            "duration": 0.12614227083333418,
            "durationTicks": 88,
            "midi": 52,
            "name": "E3",
            "ticks": 35898,
            "time": 50.877257890625,
            "velocity": 0.7007874015748031
          },
          {
            "duration": 0.09173983333333524,
            "durationTicks": 64,
            "midi": 47,
            "name": "B2",
            "ticks": 35900,
            "time": 50.88012476041667,
            "velocity": 0.7716535433070866
          },
          {
            "duration": 0.08027235416667367,
            "durationTicks": 56,
            "midi": 47,
            "name": "B2",
            "ticks": 36092,
            "time": 51.15534426041667,
            "velocity": 0.7637795275590551
          },
          {
            "duration": 0.09173983333332814,
            "durationTicks": 64,
            "midi": 40,
            "name": "E2",
            "ticks": 36094,
            "time": 51.15821113020834,
            "velocity": 0.7322834645669292
          },
          {
            "duration": 0.10034044270832965,
            "durationTicks": 70,
            "midi": 52,
            "name": "E3",
            "ticks": 36282,
            "time": 51.42769689062501,
            "velocity": 0.7007874015748031
          },
          {
            "duration": 0.11754166145833977,
            "durationTicks": 82,
            "midi": 40,
            "name": "E2",
            "ticks": 36284,
            "time": 51.43056376041667,
            "velocity": 0.6377952755905512
          },
          {
            "duration": 0.08887296354167518,
            "durationTicks": 62,
            "midi": 47,
            "name": "B2",
            "ticks": 36284,
            "time": 51.43056376041667,
            "velocity": 0.7716535433070866
          },
          {
            "duration": 0.09747357291667669,
            "durationTicks": 68,
            "midi": 40,
            "name": "E2",
            "ticks": 36476,
            "time": 51.705783260416666,
            "velocity": 0.7401574803149606
          },
          {
            "duration": 0.0860060937500009,
            "durationTicks": 60,
            "midi": 47,
            "name": "B2",
            "ticks": 36476,
            "time": 51.705783260416666,
            "velocity": 0.7716535433070866
          },
          {
            "duration": 0.12900914062500135,
            "durationTicks": 90,
            "midi": 52,
            "name": "E3",
            "ticks": 36476,
            "time": 51.705783260416666,
            "velocity": 0.7007874015748031
          },
          {
            "duration": 0.12327540104166701,
            "durationTicks": 86,
            "midi": 40,
            "name": "E2",
            "ticks": 36666,
            "time": 51.978135890625005,
            "velocity": 0.6850393700787402
          },
          {
            "duration": 0.10034044270833675,
            "durationTicks": 70,
            "midi": 47,
            "name": "B2",
            "ticks": 36666,
            "time": 51.978135890625005,
            "velocity": 0.7952755905511811
          },
          {
            "duration": 0.09173983333333524,
            "durationTicks": 64,
            "midi": 40,
            "name": "E2",
            "ticks": 36858,
            "time": 52.253355390625,
            "velocity": 0.7480314960629921
          },
          {
            "duration": 0.0860060937500009,
            "durationTicks": 60,
            "midi": 47,
            "name": "B2",
            "ticks": 36860,
            "time": 52.25622226041667,
            "velocity": 0.7795275590551181
          },
          {
            "duration": 0.14907722916667154,
            "durationTicks": 104,
            "midi": 52,
            "name": "E3",
            "ticks": 36860,
            "time": 52.25622226041667,
            "velocity": 0.7007874015748031
          },
          {
            "duration": 0.08313922395833373,
            "durationTicks": 58,
            "midi": 47,
            "name": "B2",
            "ticks": 37052,
            "time": 52.53144176041667,
            "velocity": 0.7480314960629921
          },
          {
            "duration": 0.08887296354166097,
            "durationTicks": 62,
            "midi": 40,
            "name": "E2",
            "ticks": 37054,
            "time": 52.53430863020834,
            "velocity": 0.6850393700787402
          },
          {
            "duration": 0.07740548437499939,
            "durationTicks": 54,
            "midi": 40,
            "name": "E2",
            "ticks": 37146,
            "time": 52.666184640625005,
            "velocity": 0.7244094488188977
          },
          {
            "duration": 0.08887296354166807,
            "durationTicks": 62,
            "midi": 47,
            "name": "B2",
            "ticks": 37148,
            "time": 52.66905151041667,
            "velocity": 0.7401574803149606
          },
          {
            "duration": 0.10607418229166399,
            "durationTicks": 74,
            "midi": 40,
            "name": "E2",
            "ticks": 37246,
            "time": 52.80952813020834,
            "velocity": 0.6850393700787402
          },
          {
            "duration": 0.08313922395832662,
            "durationTicks": 58,
            "midi": 47,
            "name": "B2",
            "ticks": 37246,
            "time": 52.80952813020834,
            "velocity": 0.7165354330708661
          },
          {
            "duration": 0.08887296354167518,
            "durationTicks": 62,
            "midi": 40,
            "name": "E2",
            "ticks": 37436,
            "time": 53.08188076041667,
            "velocity": 0.7322834645669292
          },
          {
            "duration": 0.0860060937500009,
            "durationTicks": 60,
            "midi": 47,
            "name": "B2",
            "ticks": 37436,
            "time": 53.08188076041667,
            "velocity": 0.7322834645669292
          },
          {
            "duration": 0.1347428802083357,
            "durationTicks": 94,
            "midi": 52,
            "name": "E3",
            "ticks": 37436,
            "time": 53.08188076041667,
            "velocity": 0.7086614173228346
          },
          {
            "duration": 0.09460670312500241,
            "durationTicks": 66,
            "midi": 47,
            "name": "B2",
            "ticks": 37626,
            "time": 53.354233390625005,
            "velocity": 0.7716535433070866
          },
          {
            "duration": 0.11754166145833267,
            "durationTicks": 82,
            "midi": 40,
            "name": "E2",
            "ticks": 37630,
            "time": 53.35996713020834,
            "velocity": 0.7165354330708661
          },
          {
            "duration": 0.09460670312500241,
            "durationTicks": 66,
            "midi": 40,
            "name": "E2",
            "ticks": 37818,
            "time": 53.629452890625004,
            "velocity": 0.7165354330708661
          },
          {
            "duration": 0.0860060937500009,
            "durationTicks": 60,
            "midi": 47,
            "name": "B2",
            "ticks": 37818,
            "time": 53.629452890625004,
            "velocity": 0.7637795275590551
          },
          {
            "duration": 0.10894105208333116,
            "durationTicks": 76,
            "midi": 52,
            "name": "E3",
            "ticks": 37822,
            "time": 53.63518663020834,
            "velocity": 0.7007874015748031
          },
          {
            "duration": 0.10034044270833675,
            "durationTicks": 70,
            "midi": 47,
            "name": "B2",
            "ticks": 38010,
            "time": 53.904672390625,
            "velocity": 0.7795275590551181
          },
          {
            "duration": 0.12040853124999984,
            "durationTicks": 84,
            "midi": 52,
            "name": "E3",
            "ticks": 38012,
            "time": 53.90753926041667,
            "velocity": 0.7086614173228346
          },
          {
            "duration": 0.11754166145832556,
            "durationTicks": 82,
            "midi": 40,
            "name": "E2",
            "ticks": 38014,
            "time": 53.910406130208344,
            "velocity": 0.7244094488188977
          },
          {
            "duration": 0.0860060937499938,
            "durationTicks": 60,
            "midi": 47,
            "name": "B2",
            "ticks": 38202,
            "time": 54.17989189062501,
            "velocity": 0.7795275590551181
          },
          {
            "duration": 0.09173983333332814,
            "durationTicks": 64,
            "midi": 40,
            "name": "E2",
            "ticks": 38206,
            "time": 54.18562563020834,
            "velocity": 0.7244094488188977
          },
          {
            "duration": 0.11754166145833267,
            "durationTicks": 82,
            "midi": 40,
            "name": "E2",
            "ticks": 38394,
            "time": 54.45511139062501,
            "velocity": 0.7165354330708661
          },
          {
            "duration": 0.08887296354166097,
            "durationTicks": 62,
            "midi": 47,
            "name": "B2",
            "ticks": 38394,
            "time": 54.45511139062501,
            "velocity": 0.7637795275590551
          },
          {
            "duration": 0.14621035937500437,
            "durationTicks": 102,
            "midi": 52,
            "name": "E3",
            "ticks": 38396,
            "time": 54.45797826041667,
            "velocity": 0.7086614173228346
          },
          {
            "duration": 0.0573373958333363,
            "durationTicks": 40,
            "midi": 40,
            "name": "E2",
            "ticks": 38586,
            "time": 54.730330890625005,
            "velocity": 0.6220472440944882
          },
          {
            "duration": 0.06593800520833781,
            "durationTicks": 46,
            "midi": 47,
            "name": "B2",
            "ticks": 38588,
            "time": 54.733197760416665,
            "velocity": 0.7086614173228346
          },
          {
            "duration": 0.1232754010416599,
            "durationTicks": 86,
            "midi": 40,
            "name": "E2",
            "ticks": 38686,
            "time": 54.87367438020834,
            "velocity": 0.6771653543307087
          },
          {
            "duration": 0.08027235416665945,
            "durationTicks": 56,
            "midi": 47,
            "name": "B2",
            "ticks": 38686,
            "time": 54.87367438020834,
            "velocity": 0.7322834645669292
          },
          {
            "duration": 0.10320731250000392,
            "durationTicks": 72,
            "midi": 40,
            "name": "E2",
            "ticks": 38778,
            "time": 55.005550390625004,
            "velocity": 0.6850393700787402
          },
          {
            "duration": 0.07740548437499939,
            "durationTicks": 54,
            "midi": 47,
            "name": "B2",
            "ticks": 38782,
            "time": 55.01128413020834,
            "velocity": 0.7480314960629921
          },
          {
            "duration": 0.09747357291666958,
            "durationTicks": 68,
            "midi": 47,
            "name": "B2",
            "ticks": 38970,
            "time": 55.280769890625,
            "velocity": 0.7795275590551181
          },
          {
            "duration": 0.13760974999999576,
            "durationTicks": 96,
            "midi": 52,
            "name": "E3",
            "ticks": 38972,
            "time": 55.28363676041667,
            "velocity": 0.7086614173228346
          },
          {
            "duration": 0.11180792187499833,
            "durationTicks": 78,
            "midi": 40,
            "name": "E2",
            "ticks": 38974,
            "time": 55.286503630208344,
            "velocity": 0.7165354330708661
          },
          {
            "duration": 0.0860060937500009,
            "durationTicks": 60,
            "midi": 47,
            "name": "B2",
            "ticks": 39164,
            "time": 55.55885626041667,
            "velocity": 0.7795275590551181
          },
          {
            "duration": 0.0860060937500009,
            "durationTicks": 60,
            "midi": 40,
            "name": "E2",
            "ticks": 39166,
            "time": 55.56172313020834,
            "velocity": 0.7322834645669292
          },
          {
            "duration": 0.10607418229166399,
            "durationTicks": 74,
            "midi": 52,
            "name": "E3",
            "ticks": 39354,
            "time": 55.83120889062501,
            "velocity": 0.7165354330708661
          },
          {
            "duration": 0.11180792187499833,
            "durationTicks": 78,
            "midi": 40,
            "name": "E2",
            "ticks": 39358,
            "time": 55.83694263020834,
            "velocity": 0.6850393700787402
          },
          {
            "duration": 0.09460670312500241,
            "durationTicks": 66,
            "midi": 47,
            "name": "B2",
            "ticks": 39358,
            "time": 55.83694263020834,
            "velocity": 0.7795275590551181
          },
          {
            "duration": 0.12614227083333418,
            "durationTicks": 88,
            "midi": 52,
            "name": "E3",
            "ticks": 39546,
            "time": 56.106428390625005,
            "velocity": 0.7165354330708661
          },
          {
            "duration": 0.08313922395834084,
            "durationTicks": 58,
            "midi": 40,
            "name": "E2",
            "ticks": 39548,
            "time": 56.109295260416665,
            "velocity": 0.7244094488188977
          },
          {
            "duration": 0.0860060937500009,
            "durationTicks": 60,
            "midi": 47,
            "name": "B2",
            "ticks": 39550,
            "time": 56.11216213020834,
            "velocity": 0.7952755905511811
          },
          {
            "duration": 0.11180792187499833,
            "durationTicks": 78,
            "midi": 40,
            "name": "E2",
            "ticks": 39738,
            "time": 56.381647890625004,
            "velocity": 0.6850393700787402
          },
          {
            "duration": 0.10607418229167109,
            "durationTicks": 74,
            "midi": 47,
            "name": "B2",
            "ticks": 39740,
            "time": 56.38451476041667,
            "velocity": 0.7795275590551181
          },
          {
            "duration": 0.09173983333333524,
            "durationTicks": 64,
            "midi": 45,
            "name": "A2",
            "ticks": 39932,
            "time": 56.65973426041667,
            "velocity": 0.7007874015748031
          },
          {
            "duration": 0.0860060937500009,
            "durationTicks": 60,
            "midi": 52,
            "name": "E3",
            "ticks": 39932,
            "time": 56.65973426041667,
            "velocity": 0.6220472440944882
          },
          {
            "duration": 0.14047661979166293,
            "durationTicks": 98,
            "midi": 57,
            "name": "A3",
            "ticks": 39934,
            "time": 56.662601130208344,
            "velocity": 0.7086614173228346
          },
          {
            "duration": 0.08313922395834084,
            "durationTicks": 58,
            "midi": 45,
            "name": "A2",
            "ticks": 40122,
            "time": 56.932086890625,
            "velocity": 0.6299212598425197
          },
          {
            "duration": 0.0774054843750065,
            "durationTicks": 54,
            "midi": 52,
            "name": "E3",
            "ticks": 40122,
            "time": 56.932086890625,
            "velocity": 0.6850393700787402
          },
          {
            "duration": 0.09747357291666248,
            "durationTicks": 68,
            "midi": 52,
            "name": "E3",
            "ticks": 40218,
            "time": 57.069696640625004,
            "velocity": 0.6299212598425197
          },
          {
            "duration": 0.09173983333333524,
            "durationTicks": 64,
            "midi": 45,
            "name": "A2",
            "ticks": 40220,
            "time": 57.07256351041667,
            "velocity": 0.6850393700787402
          },
          {
            "duration": 0.10607418229166399,
            "durationTicks": 74,
            "midi": 45,
            "name": "A2",
            "ticks": 40318,
            "time": 57.21304013020834,
            "velocity": 0.7086614173228346
          },
          {
            "duration": 0.09460670312500241,
            "durationTicks": 66,
            "midi": 52,
            "name": "E3",
            "ticks": 40318,
            "time": 57.21304013020834,
            "velocity": 0.6850393700787402
          },
          {
            "duration": 0.12900914062500135,
            "durationTicks": 90,
            "midi": 57,
            "name": "A3",
            "ticks": 40506,
            "time": 57.482525890625006,
            "velocity": 0.7007874015748031
          },
          {
            "duration": 0.09173983333332814,
            "durationTicks": 64,
            "midi": 45,
            "name": "A2",
            "ticks": 40510,
            "time": 57.48825963020834,
            "velocity": 0.7007874015748031
          },
          {
            "duration": 0.09747357291666248,
            "durationTicks": 68,
            "midi": 52,
            "name": "E3",
            "ticks": 40510,
            "time": 57.48825963020834,
            "velocity": 0.7165354330708661
          },
          {
            "duration": 0.11180792187499833,
            "durationTicks": 78,
            "midi": 45,
            "name": "A2",
            "ticks": 40700,
            "time": 57.76061226041667,
            "velocity": 0.7007874015748031
          },
          {
            "duration": 0.10320731250000392,
            "durationTicks": 72,
            "midi": 52,
            "name": "E3",
            "ticks": 40702,
            "time": 57.76347913020834,
            "velocity": 0.7480314960629921
          },
          {
            "duration": 0.08887296354166807,
            "durationTicks": 62,
            "midi": 45,
            "name": "A2",
            "ticks": 40890,
            "time": 58.032964890625,
            "velocity": 0.7086614173228346
          },
          {
            "duration": 0.09460670312500241,
            "durationTicks": 66,
            "midi": 52,
            "name": "E3",
            "ticks": 40890,
            "time": 58.032964890625,
            "velocity": 0.7401574803149606
          },
          {
            "duration": 0.10320731249999682,
            "durationTicks": 72,
            "midi": 57,
            "name": "A3",
            "ticks": 40892,
            "time": 58.03583176041667,
            "velocity": 0.6929133858267716
          },
          {
            "duration": 0.10320731250000392,
            "durationTicks": 72,
            "midi": 52,
            "name": "E3",
            "ticks": 41082,
            "time": 58.308184390625,
            "velocity": 0.7401574803149606
          },
          {
            "duration": 0.12040853124999984,
            "durationTicks": 84,
            "midi": 57,
            "name": "A3",
            "ticks": 41084,
            "time": 58.31105126041667,
            "velocity": 0.6929133858267716
          },
          {
            "duration": 0.11180792187499833,
            "durationTicks": 78,
            "midi": 45,
            "name": "A2",
            "ticks": 41086,
            "time": 58.31391813020834,
            "velocity": 0.6850393700787402
          },
          {
            "duration": 0.08027235416667367,
            "durationTicks": 56,
            "midi": 45,
            "name": "A2",
            "ticks": 41276,
            "time": 58.58627076041667,
            "velocity": 0.7086614173228346
          },
          {
            "duration": 0.08027235416667367,
            "durationTicks": 56,
            "midi": 52,
            "name": "E3",
            "ticks": 41276,
            "time": 58.58627076041667,
            "velocity": 0.7244094488188977
          },
          {
            "duration": 0.10034044270833675,
            "durationTicks": 70,
            "midi": 45,
            "name": "A2",
            "ticks": 41466,
            "time": 58.858623390625006,
            "velocity": 0.7007874015748031
          },
          {
            "duration": 0.10320731250000392,
            "durationTicks": 72,
            "midi": 52,
            "name": "E3",
            "ticks": 41470,
            "time": 58.86435713020834,
            "velocity": 0.7322834645669292
          },
          {
            "duration": 0.13474288020832859,
            "durationTicks": 94,
            "midi": 57,
            "name": "A3",
            "ticks": 41470,
            "time": 58.86435713020834,
            "velocity": 0.6929133858267716
          },
          {
            "duration": 0.08027235416666656,
            "durationTicks": 56,
            "midi": 52,
            "name": "E3",
            "ticks": 41658,
            "time": 59.133842890625004,
            "velocity": 0.6535433070866141
          },
          {
            "duration": 0.0573373958333292,
            "durationTicks": 40,
            "midi": 45,
            "name": "A2",
            "ticks": 41662,
            "time": 59.13957663020834,
            "velocity": 0.6220472440944882
          },
          {
            "duration": 0.09747357291666248,
            "durationTicks": 68,
            "midi": 45,
            "name": "A2",
            "ticks": 41758,
            "time": 59.27718638020834,
            "velocity": 0.6850393700787402
          },
          {
            "duration": 0.10034044270832965,
            "durationTicks": 70,
            "midi": 52,
            "name": "E3",
            "ticks": 41758,
            "time": 59.27718638020834,
            "velocity": 0.6850393700787402
          },
          {
            "duration": 0.0860060937500009,
            "durationTicks": 60,
            "midi": 45,
            "name": "A2",
            "ticks": 41852,
            "time": 59.41192926041667,
            "velocity": 0.7322834645669292
          },
          {
            "duration": 0.08887296354166807,
            "durationTicks": 62,
            "midi": 52,
            "name": "E3",
            "ticks": 41854,
            "time": 59.41479613020834,
            "velocity": 0.7007874015748031
          },
          {
            "duration": 0.12040853124999984,
            "durationTicks": 84,
            "midi": 57,
            "name": "A3",
            "ticks": 42042,
            "time": 59.684281890625,
            "velocity": 0.7007874015748031
          },
          {
            "duration": 0.09747357291666248,
            "durationTicks": 68,
            "midi": 45,
            "name": "A2",
            "ticks": 42046,
            "time": 59.69001563020834,
            "velocity": 0.6456692913385826
          },
          {
            "duration": 0.09747357291666248,
            "durationTicks": 68,
            "midi": 52,
            "name": "E3",
            "ticks": 42046,
            "time": 59.69001563020834,
            "velocity": 0.7165354330708661
          },
          {
            "duration": 0.06880487499999788,
            "durationTicks": 48,
            "midi": 45,
            "name": "A2",
            "ticks": 42236,
            "time": 59.96236826041667,
            "velocity": 0.6692913385826772
          },
          {
            "duration": 0.08313922395833373,
            "durationTicks": 58,
            "midi": 52,
            "name": "E3",
            "ticks": 42236,
            "time": 59.96236826041667,
            "velocity": 0.7244094488188977
          },
          {
            "duration": 0.0946067031249953,
            "durationTicks": 66,
            "midi": 57,
            "name": "A3",
            "ticks": 42426,
            "time": 60.234720890625006,
            "velocity": 0.7007874015748031
          },
          {
            "duration": 0.10607418229167109,
            "durationTicks": 74,
            "midi": 45,
            "name": "A2",
            "ticks": 42428,
            "time": 60.237587760416666,
            "velocity": 0.6850393700787402
          },
          {
            "duration": 0.10034044270832965,
            "durationTicks": 70,
            "midi": 52,
            "name": "E3",
            "ticks": 42430,
            "time": 60.24045463020834,
            "velocity": 0.7244094488188977
          },
          {
            "duration": 0.07453861458333932,
            "durationTicks": 52,
            "midi": 45,
            "name": "A2",
            "ticks": 42618,
            "time": 60.509940390625005,
            "velocity": 0.6377952755905512
          },
          {
            "duration": 0.0860060937500009,
            "durationTicks": 60,
            "midi": 52,
            "name": "E3",
            "ticks": 42618,
            "time": 60.509940390625005,
            "velocity": 0.7322834645669292
          },
          {
            "duration": 0.12327540104166701,
            "durationTicks": 86,
            "midi": 57,
            "name": "A3",
            "ticks": 42620,
            "time": 60.51280726041667,
            "velocity": 0.7007874015748031
          },
          {
            "duration": 0.08887296354166807,
            "durationTicks": 62,
            "midi": 52,
            "name": "E3",
            "ticks": 42812,
            "time": 60.78802676041667,
            "velocity": 0.7401574803149606
          },
          {
            "duration": 0.09747357291666958,
            "durationTicks": 68,
            "midi": 45,
            "name": "A2",
            "ticks": 42814,
            "time": 60.79089363020834,
            "velocity": 0.7401574803149606
          },
          {
            "duration": 0.0860060937499938,
            "durationTicks": 60,
            "midi": 40,
            "name": "E2",
            "ticks": 43006,
            "time": 61.06611313020834,
            "velocity": 0.7165354330708661
          },
          {
            "duration": 0.08313922395832662,
            "durationTicks": 58,
            "midi": 47,
            "name": "B2",
            "ticks": 43006,
            "time": 61.06611313020834,
            "velocity": 0.7637795275590551
          },
          {
            "duration": 0.13760974999999576,
            "durationTicks": 96,
            "midi": 52,
            "name": "E3",
            "ticks": 43006,
            "time": 61.06611313020834,
            "velocity": 0.7007874015748031
          },
          {
            "duration": 0.05447052604167624,
            "durationTicks": 38,
            "midi": 47,
            "name": "B2",
            "ticks": 43196,
            "time": 61.33846576041667,
            "velocity": 0.7244094488188977
          },
          {
            "duration": 0.08027235416665945,
            "durationTicks": 56,
            "midi": 40,
            "name": "E2",
            "ticks": 43198,
            "time": 61.34133263020834,
            "velocity": 0.6692913385826772
          },
          {
            "duration": 0.08027235416667367,
            "durationTicks": 56,
            "midi": 40,
            "name": "E2",
            "ticks": 43292,
            "time": 61.47607551041667,
            "velocity": 0.6850393700787402
          },
          {
            "duration": 0.0860060937500009,
            "durationTicks": 60,
            "midi": 47,
            "name": "B2",
            "ticks": 43294,
            "time": 61.47894238020834,
            "velocity": 0.7322834645669292
          },
          {
            "duration": 0.07740548437499939,
            "durationTicks": 54,
            "midi": 47,
            "name": "B2",
            "ticks": 43388,
            "time": 61.613685260416666,
            "velocity": 0.7401574803149606
          },
          {
            "duration": 0.10894105208333116,
            "durationTicks": 76,
            "midi": 40,
            "name": "E2",
            "ticks": 43390,
            "time": 61.61655213020834,
            "velocity": 0.7086614173228346
          },
          {
            "duration": 0.08313922395833373,
            "durationTicks": 58,
            "midi": 40,
            "name": "E2",
            "ticks": 43580,
            "time": 61.88890476041667,
            "velocity": 0.7244094488188977
          },
          {
            "duration": 0.0860060937499938,
            "durationTicks": 60,
            "midi": 47,
            "name": "B2",
            "ticks": 43580,
            "time": 61.88890476041667,
            "velocity": 0.7716535433070866
          },
          {
            "duration": 0.13187601041666852,
            "durationTicks": 92,
            "midi": 52,
            "name": "E3",
            "ticks": 43580,
            "time": 61.88890476041667,
            "velocity": 0.7165354330708661
          },
          {
            "duration": 0.10894105208333116,
            "durationTicks": 76,
            "midi": 40,
            "name": "E2",
            "ticks": 43772,
            "time": 62.16412426041667,
            "velocity": 0.6850393700787402
          },
          {
            "duration": 0.09173983333332814,
            "durationTicks": 64,
            "midi": 47,
            "name": "B2",
            "ticks": 43774,
            "time": 62.16699113020834,
            "velocity": 0.7637795275590551
          },
          {
            "duration": 0.0860060937500009,
            "durationTicks": 60,
            "midi": 40,
            "name": "E2",
            "ticks": 43964,
            "time": 62.43934376041667,
            "velocity": 0.7007874015748031
          },
          {
            "duration": 0.11180792187499833,
            "durationTicks": 78,
            "midi": 52,
            "name": "E3",
            "ticks": 43964,
            "time": 62.43934376041667,
            "velocity": 0.6929133858267716
          },
          {
            "duration": 0.08887296354166097,
            "durationTicks": 62,
            "midi": 47,
            "name": "B2",
            "ticks": 43966,
            "time": 62.44221063020834,
            "velocity": 0.7795275590551181
          },
          {
            "duration": 0.1347428802083357,
            "durationTicks": 94,
            "midi": 52,
            "name": "E3",
            "ticks": 44154,
            "time": 62.71169639062501,
            "velocity": 0.7165354330708661
          },
          {
            "duration": 0.09460670312500241,
            "durationTicks": 66,
            "midi": 47,
            "name": "B2",
            "ticks": 44156,
            "time": 62.71456326041667,
            "velocity": 0.7716535433070866
          },
          {
            "duration": 0.10607418229166399,
            "durationTicks": 74,
            "midi": 40,
            "name": "E2",
            "ticks": 44158,
            "time": 62.71743013020834,
            "velocity": 0.6850393700787402
          },
          {
            "duration": 0.08313922395833373,
            "durationTicks": 58,
            "midi": 47,
            "name": "B2",
            "ticks": 44346,
            "time": 62.986915890625006,
            "velocity": 0.7637795275590551
          },
          {
            "duration": 0.08313922395834084,
            "durationTicks": 58,
            "midi": 40,
            "name": "E2",
            "ticks": 44348,
            "time": 62.98978276041667,
            "velocity": 0.7086614173228346
          },
          {
            "duration": 0.08313922395833373,
            "durationTicks": 58,
            "midi": 47,
            "name": "B2",
            "ticks": 44538,
            "time": 63.262135390625005,
            "velocity": 0.7795275590551181
          },
          {
            "duration": 0.1519440989583387,
            "durationTicks": 106,
            "midi": 52,
            "name": "E3",
            "ticks": 44538,
            "time": 63.262135390625005,
            "velocity": 0.7007874015748031
          },
          {
            "duration": 0.0860060937500009,
            "durationTicks": 60,
            "midi": 40,
            "name": "E2",
            "ticks": 44542,
            "time": 63.26786913020834,
            "velocity": 0.7086614173228346
          },
          {
            "duration": 0.07740548437499939,
            "durationTicks": 54,
            "midi": 40,
            "name": "E2",
            "ticks": 44734,
            "time": 63.54308863020834,
            "velocity": 0.6535433070866141
          },
          {
            "duration": 0.07453861458333222,
            "durationTicks": 52,
            "midi": 47,
            "name": "B2",
            "ticks": 44734,
            "time": 63.54308863020834,
            "velocity": 0.7401574803149606
          },
          {
            "duration": 0.07740548437499939,
            "durationTicks": 54,
            "midi": 40,
            "name": "E2",
            "ticks": 44826,
            "time": 63.67496464062501,
            "velocity": 0.6850393700787402
          },
          {
            "duration": 0.08887296354166097,
            "durationTicks": 62,
            "midi": 47,
            "name": "B2",
            "ticks": 44826,
            "time": 63.67496464062501,
            "velocity": 0.7480314960629921
          },
          {
            "duration": 0.0860060937500009,
            "durationTicks": 60,
            "midi": 47,
            "name": "B2",
            "ticks": 44922,
            "time": 63.812574390625,
            "velocity": 0.7716535433070866
          },
          {
            "duration": 0.1146747916666584,
            "durationTicks": 80,
            "midi": 40,
            "name": "E2",
            "ticks": 44926,
            "time": 63.818308130208344,
            "velocity": 0.6771653543307087
          },
          {
            "duration": 0.08600609374998669,
            "durationTicks": 60,
            "midi": 40,
            "name": "E2",
            "ticks": 45114,
            "time": 64.08779389062501,
            "velocity": 0.6850393700787402
          },
          {
            "duration": 0.08027235416666656,
            "durationTicks": 56,
            "midi": 47,
            "name": "B2",
            "ticks": 45116,
            "time": 64.09066076041667,
            "velocity": 0.7637795275590551
          },
          {
            "duration": 0.13187601041666142,
            "durationTicks": 92,
            "midi": 52,
            "name": "E3",
            "ticks": 45118,
            "time": 64.09352763020834,
            "velocity": 0.7007874015748031
          },
          {
            "duration": 0.10894105208333826,
            "durationTicks": 76,
            "midi": 40,
            "name": "E2",
            "ticks": 45306,
            "time": 64.363013390625,
            "velocity": 0.6614173228346457
          },
          {
            "duration": 0.09173983333333524,
            "durationTicks": 64,
            "midi": 47,
            "name": "B2",
            "ticks": 45310,
            "time": 64.36874713020833,
            "velocity": 0.7716535433070866
          },
          {
            "duration": 0.09173983333333524,
            "durationTicks": 64,
            "midi": 40,
            "name": "E2",
            "ticks": 45498,
            "time": 64.638232890625,
            "velocity": 0.7165354330708661
          },
          {
            "duration": 0.08027235416666656,
            "durationTicks": 56,
            "midi": 47,
            "name": "B2",
            "ticks": 45498,
            "time": 64.638232890625,
            "velocity": 0.7480314960629921
          },
          {
            "duration": 0.10034044270832965,
            "durationTicks": 70,
            "midi": 52,
            "name": "E3",
            "ticks": 45500,
            "time": 64.64109976041667,
            "velocity": 0.7007874015748031
          },
          {
            "duration": 0.12040853125000694,
            "durationTicks": 84,
            "midi": 52,
            "name": "E3",
            "ticks": 45690,
            "time": 64.913452390625,
            "velocity": 0.7007874015748031
          },
          {
            "duration": 0.1146747916666726,
            "durationTicks": 80,
            "midi": 40,
            "name": "E2",
            "ticks": 45694,
            "time": 64.91918613020833,
            "velocity": 0.6771653543307087
          },
          {
            "duration": 0.09747357291666958,
            "durationTicks": 68,
            "midi": 47,
            "name": "B2",
            "ticks": 45694,
            "time": 64.91918613020833,
            "velocity": 0.7716535433070866
          },
          {
            "duration": 0.08313922395834084,
            "durationTicks": 58,
            "midi": 47,
            "name": "B2",
            "ticks": 45884,
            "time": 65.19153876041666,
            "velocity": 0.7637795275590551
          },
          {
            "duration": 0.0946067031249953,
            "durationTicks": 66,
            "midi": 40,
            "name": "E2",
            "ticks": 45886,
            "time": 65.19440563020834,
            "velocity": 0.6850393700787402
          },
          {
            "duration": 0.12900914062500135,
            "durationTicks": 90,
            "midi": 59,
            "name": "B3",
            "ticks": 46076,
            "time": 65.46675826041667,
            "velocity": 0.7086614173228346
          },
          {
            "duration": 0.09173983333332103,
            "durationTicks": 64,
            "midi": 47,
            "name": "B2",
            "ticks": 46078,
            "time": 65.46962513020834,
            "velocity": 0.7952755905511811
          },
          {
            "duration": 0.0860060937500009,
            "durationTicks": 60,
            "midi": 54,
            "name": "F#3",
            "ticks": 46078,
            "time": 65.46962513020834,
            "velocity": 0.7716535433070866
          },
          {
            "duration": 0.06880487499999788,
            "durationTicks": 48,
            "midi": 54,
            "name": "F#3",
            "ticks": 46268,
            "time": 65.74197776041666,
            "velocity": 0.7480314960629921
          },
          {
            "duration": 0.06307113541666354,
            "durationTicks": 44,
            "midi": 47,
            "name": "B2",
            "ticks": 46270,
            "time": 65.74484463020833,
            "velocity": 0.7401574803149606
          },
          {
            "duration": 0.06020426562500347,
            "durationTicks": 42,
            "midi": 47,
            "name": "B2",
            "ticks": 46364,
            "time": 65.87958751041666,
            "velocity": 0.7480314960629921
          },
          {
            "duration": 0.06307113541666354,
            "durationTicks": 44,
            "midi": 54,
            "name": "F#3",
            "ticks": 46366,
            "time": 65.88245438020833,
            "velocity": 0.7637795275590551
          },
          {
            "duration": 0.10034044270834386,
            "durationTicks": 70,
            "midi": 54,
            "name": "F#3",
            "ticks": 46458,
            "time": 66.01433039062499,
            "velocity": 0.7322834645669292
          },
          {
            "duration": 0.10320731249998971,
            "durationTicks": 72,
            "midi": 47,
            "name": "B2",
            "ticks": 46462,
            "time": 66.02006413020834,
            "velocity": 0.8031496062992126
          },
          {
            "duration": 0.08887296354166097,
            "durationTicks": 62,
            "midi": 54,
            "name": "F#3",
            "ticks": 46650,
            "time": 66.289549890625,
            "velocity": 0.7401574803149606
          },
          {
            "duration": 0.08887296354167518,
            "durationTicks": 62,
            "midi": 47,
            "name": "B2",
            "ticks": 46652,
            "time": 66.29241676041666,
            "velocity": 0.7401574803149606
          },
          {
            "duration": 0.13187601041666142,
            "durationTicks": 92,
            "midi": 59,
            "name": "B3",
            "ticks": 46654,
            "time": 66.29528363020833,
            "velocity": 0.7007874015748031
          },
          {
            "duration": 0.08027235416665235,
            "durationTicks": 56,
            "midi": 54,
            "name": "F#3",
            "ticks": 46842,
            "time": 66.564769390625,
            "velocity": 0.7322834645669292
          },
          {
            "duration": 0.09747357291665537,
            "durationTicks": 68,
            "midi": 47,
            "name": "B2",
            "ticks": 46846,
            "time": 66.57050313020834,
            "velocity": 0.7637795275590551
          },
          {
            "duration": 0.09460670312500952,
            "durationTicks": 66,
            "midi": 54,
            "name": "F#3",
            "ticks": 47034,
            "time": 66.839988890625,
            "velocity": 0.7795275590551181
          },
          {
            "duration": 0.11180792187499833,
            "durationTicks": 78,
            "midi": 47,
            "name": "B2",
            "ticks": 47038,
            "time": 66.84572263020833,
            "velocity": 0.8031496062992126
          },
          {
            "duration": 0.10034044270832965,
            "durationTicks": 70,
            "midi": 59,
            "name": "B3",
            "ticks": 47038,
            "time": 66.84572263020833,
            "velocity": 0.7007874015748031
          },
          {
            "duration": 0.12040853124999273,
            "durationTicks": 84,
            "midi": 59,
            "name": "B3",
            "ticks": 47226,
            "time": 67.115208390625,
            "velocity": 0.7007874015748031
          },
          {
            "duration": 0.12327540104166701,
            "durationTicks": 86,
            "midi": 47,
            "name": "B2",
            "ticks": 47228,
            "time": 67.11807526041666,
            "velocity": 0.8031496062992126
          },
          {
            "duration": 0.11180792187499833,
            "durationTicks": 78,
            "midi": 54,
            "name": "F#3",
            "ticks": 47230,
            "time": 67.12094213020833,
            "velocity": 0.7795275590551181
          },
          {
            "duration": 0.11754166145833267,
            "durationTicks": 82,
            "midi": 52,
            "name": "E3",
            "ticks": 47420,
            "time": 67.39329476041667,
            "velocity": 0.7401574803149606
          },
          {
            "duration": 0.09173983333332103,
            "durationTicks": 64,
            "midi": 45,
            "name": "A2",
            "ticks": 47422,
            "time": 67.39616163020834,
            "velocity": 0.7322834645669292
          },
          {
            "duration": 0.0946067031249953,
            "durationTicks": 66,
            "midi": 45,
            "name": "A2",
            "ticks": 47610,
            "time": 67.665647390625,
            "velocity": 0.7637795275590551
          },
          {
            "duration": 0.09460670312500952,
            "durationTicks": 66,
            "midi": 52,
            "name": "E3",
            "ticks": 47612,
            "time": 67.66851426041666,
            "velocity": 0.7637795275590551
          },
          {
            "duration": 0.12900914062500135,
            "durationTicks": 90,
            "midi": 57,
            "name": "A3",
            "ticks": 47614,
            "time": 67.67138113020833,
            "velocity": 0.7086614173228346
          },
          {
            "duration": 0.07740548437499228,
            "durationTicks": 54,
            "midi": 52,
            "name": "E3",
            "ticks": 47804,
            "time": 67.94373376041666,
            "velocity": 0.7244094488188977
          },
          {
            "duration": 0.07167174479165794,
            "durationTicks": 50,
            "midi": 45,
            "name": "A2",
            "ticks": 47806,
            "time": 67.94660063020834,
            "velocity": 0.6692913385826772
          },
          {
            "duration": 0.0774054843750065,
            "durationTicks": 54,
            "midi": 45,
            "name": "A2",
            "ticks": 47902,
            "time": 68.08421038020833,
            "velocity": 0.7165354330708661
          },
          {
            "duration": 0.09173983333333524,
            "durationTicks": 64,
            "midi": 52,
            "name": "E3",
            "ticks": 47902,
            "time": 68.08421038020833,
            "velocity": 0.6850393700787402
          },
          {
            "duration": 0.07740548437499228,
            "durationTicks": 54,
            "midi": 52,
            "name": "E3",
            "ticks": 47996,
            "time": 68.21895326041667,
            "velocity": 0.7244094488188977
          },
          {
            "duration": 0.08887296354167518,
            "durationTicks": 62,
            "midi": 45,
            "name": "A2",
            "ticks": 47998,
            "time": 68.22182013020833,
            "velocity": 0.6850393700787402
          },
          {
            "duration": 0.0946067031249953,
            "durationTicks": 66,
            "midi": 52,
            "name": "E3",
            "ticks": 48188,
            "time": 68.49417276041666,
            "velocity": 0.7244094488188977
          },
          {
            "duration": 0.09173983333332103,
            "durationTicks": 64,
            "midi": 45,
            "name": "A2",
            "ticks": 48190,
            "time": 68.49703963020833,
            "velocity": 0.7322834645669292
          },
          {
            "duration": 0.13474288020832148,
            "durationTicks": 94,
            "midi": 57,
            "name": "A3",
            "ticks": 48190,
            "time": 68.49703963020833,
            "velocity": 0.7086614173228346
          },
          {
            "duration": 0.11180792187501254,
            "durationTicks": 78,
            "midi": 45,
            "name": "A2",
            "ticks": 48378,
            "time": 68.76652539062499,
            "velocity": 0.7086614173228346
          },
          {
            "duration": 0.10034044270832965,
            "durationTicks": 70,
            "midi": 52,
            "name": "E3",
            "ticks": 48380,
            "time": 68.76939226041667,
            "velocity": 0.7480314960629921
          },
          {
            "duration": 0.08887296354166097,
            "durationTicks": 62,
            "midi": 45,
            "name": "A2",
            "ticks": 48570,
            "time": 69.041744890625,
            "velocity": 0.7244094488188977
          },
          {
            "duration": 0.08887296354166097,
            "durationTicks": 62,
            "midi": 52,
            "name": "E3",
            "ticks": 48570,
            "time": 69.041744890625,
            "velocity": 0.7244094488188977
          },
          {
            "duration": 0.10034044270832965,
            "durationTicks": 70,
            "midi": 57,
            "name": "A3",
            "ticks": 48570,
            "time": 69.041744890625,
            "velocity": 0.7165354330708661
          },
          {
            "duration": 0.10894105208332405,
            "durationTicks": 76,
            "midi": 52,
            "name": "E3",
            "ticks": 48762,
            "time": 69.316964390625,
            "velocity": 0.7480314960629921
          },
          {
            "duration": 0.12040853124999273,
            "durationTicks": 84,
            "midi": 45,
            "name": "A2",
            "ticks": 48764,
            "time": 69.31983126041666,
            "velocity": 0.7165354330708661
          },
          {
            "duration": 0.12900914062500135,
            "durationTicks": 90,
            "midi": 57,
            "name": "A3",
            "ticks": 48764,
            "time": 69.31983126041666,
            "velocity": 0.7165354330708661
          },
          {
            "duration": 0.08313922395834084,
            "durationTicks": 58,
            "midi": 52,
            "name": "E3",
            "ticks": 48954,
            "time": 69.592183890625,
            "velocity": 0.7086614173228346
          },
          {
            "duration": 0.09173983333333524,
            "durationTicks": 64,
            "midi": 45,
            "name": "A2",
            "ticks": 48958,
            "time": 69.59791763020833,
            "velocity": 0.6850393700787402
          },
          {
            "duration": 0.08887296354167518,
            "durationTicks": 62,
            "midi": 40,
            "name": "E2",
            "ticks": 49148,
            "time": 69.87027026041666,
            "velocity": 0.7322834645669292
          },
          {
            "duration": 0.08887296354167518,
            "durationTicks": 62,
            "midi": 47,
            "name": "B2",
            "ticks": 49148,
            "time": 69.87027026041666,
            "velocity": 0.8031496062992126
          },
          {
            "duration": 0.1146747916666726,
            "durationTicks": 80,
            "midi": 52,
            "name": "E3",
            "ticks": 49148,
            "time": 69.87027026041666,
            "velocity": 0.7086614173228346
          },
          {
            "duration": 0.08027235416666656,
            "durationTicks": 56,
            "midi": 40,
            "name": "E2",
            "ticks": 49340,
            "time": 70.14548976041667,
            "velocity": 0.7165354330708661
          },
          {
            "duration": 0.06880487499999788,
            "durationTicks": 48,
            "midi": 47,
            "name": "B2",
            "ticks": 49340,
            "time": 70.14548976041667,
            "velocity": 0.7716535433070866
          },
          {
            "duration": 0.08027235416666656,
            "durationTicks": 56,
            "midi": 40,
            "name": "E2",
            "ticks": 49434,
            "time": 70.280232640625,
            "velocity": 0.7007874015748031
          },
          {
            "duration": 0.08887296354166097,
            "durationTicks": 62,
            "midi": 47,
            "name": "B2",
            "ticks": 49438,
            "time": 70.28596638020834,
            "velocity": 0.7480314960629921
          },
          {
            "duration": 0.10034044270832965,
            "durationTicks": 70,
            "midi": 40,
            "name": "E2",
            "ticks": 49530,
            "time": 70.417842390625,
            "velocity": 0.7322834645669292
          },
          {
            "duration": 0.08313922395834084,
            "durationTicks": 58,
            "midi": 47,
            "name": "B2",
            "ticks": 49530,
            "time": 70.417842390625,
            "velocity": 0.7795275590551181
          },
          {
            "duration": 0.0946067031249953,
            "durationTicks": 66,
            "midi": 40,
            "name": "E2",
            "ticks": 49722,
            "time": 70.693061890625,
            "velocity": 0.7401574803149606
          },
          {
            "duration": 0.11754166145833267,
            "durationTicks": 82,
            "midi": 52,
            "name": "E3",
            "ticks": 49722,
            "time": 70.693061890625,
            "velocity": 0.7165354330708661
          },
          {
            "duration": 0.0860060937500009,
            "durationTicks": 60,
            "midi": 47,
            "name": "B2",
            "ticks": 49724,
            "time": 70.69592876041666,
            "velocity": 0.7952755905511811
          },
          {
            "duration": 0.09747357291666958,
            "durationTicks": 68,
            "midi": 47,
            "name": "B2",
            "ticks": 49914,
            "time": 70.968281390625,
            "velocity": 0.7874015748031497
          },
          {
            "duration": 0.11754166145834688,
            "durationTicks": 82,
            "midi": 40,
            "name": "E2",
            "ticks": 49916,
            "time": 70.97114826041665,
            "velocity": 0.7165354330708661
          },
          {
            "duration": 0.0946067031249953,
            "durationTicks": 66,
            "midi": 47,
            "name": "B2",
            "ticks": 50108,
            "time": 71.24636776041666,
            "velocity": 0.7874015748031497
          },
          {
            "duration": 0.10320731250000392,
            "durationTicks": 72,
            "midi": 52,
            "name": "E3",
            "ticks": 50108,
            "time": 71.24636776041666,
            "velocity": 0.7086614173228346
          },
          {
            "duration": 0.10320731250000392,
            "durationTicks": 72,
            "midi": 40,
            "name": "E2",
            "ticks": 50110,
            "time": 71.24923463020833,
            "velocity": 0.7322834645669292
          },
          {
            "duration": 0.13187601041667563,
            "durationTicks": 92,
            "midi": 40,
            "name": "E2",
            "ticks": 50298,
            "time": 71.51872039062499,
            "velocity": 0.6456692913385826
          },
          {
            "duration": 0.10320731250000392,
            "durationTicks": 72,
            "midi": 47,
            "name": "B2",
            "ticks": 50298,
            "time": 71.51872039062499,
            "velocity": 0.7795275590551181
          },
          {
            "duration": 0.12040853124999273,
            "durationTicks": 84,
            "midi": 52,
            "name": "E3",
            "ticks": 50300,
            "time": 71.52158726041667,
            "velocity": 0.7086614173228346
          },
          {
            "duration": 0.0946067031249953,
            "durationTicks": 66,
            "midi": 47,
            "name": "B2",
            "ticks": 50490,
            "time": 71.793939890625,
            "velocity": 0.7874015748031497
          },
          {
            "duration": 0.10607418229166399,
            "durationTicks": 74,
            "midi": 40,
            "name": "E2",
            "ticks": 50494,
            "time": 71.79967363020833,
            "velocity": 0.7480314960629921
          },
          {
            "duration": 0.14047661979165582,
            "durationTicks": 98,
            "midi": 40,
            "name": "E2",
            "ticks": 50686,
            "time": 72.07489313020834,
            "velocity": 0.7637795275590551
          },
          {
            "duration": 0.13187601041666142,
            "durationTicks": 92,
            "midi": 47,
            "name": "B2",
            "ticks": 50686,
            "time": 72.07489313020834,
            "velocity": 0.8110236220472441
          },
          {
            "duration": 0.12040853124999273,
            "durationTicks": 84,
            "midi": 52,
            "name": "E3",
            "ticks": 50686,
            "time": 72.07489313020834,
            "velocity": 0.7086614173228346
          },
          {
            "duration": 0.09747357291668379,
            "durationTicks": 68,
            "midi": 40,
            "name": "E2",
            "ticks": 52218,
            "time": 74.27091539062499,
            "velocity": 0.7480314960629921
          },
          {
            "duration": 0.08887296354167518,
            "durationTicks": 62,
            "midi": 47,
            "name": "B2",
            "ticks": 52222,
            "time": 74.27664913020833,
            "velocity": 0.7795275590551181
          },
          {
            "duration": 0.14621035937500437,
            "durationTicks": 102,
            "midi": 52,
            "name": "E3",
            "ticks": 52222,
            "time": 74.27664913020833,
            "velocity": 0.7086614173228346
          },
          {
            "duration": 0.0860060937500009,
            "durationTicks": 60,
            "midi": 40,
            "name": "E2",
            "ticks": 52410,
            "time": 74.546134890625,
            "velocity": 0.6850393700787402
          },
          {
            "duration": 0.06880487499999788,
            "durationTicks": 48,
            "midi": 47,
            "name": "B2",
            "ticks": 52414,
            "time": 74.55186863020833,
            "velocity": 0.7480314960629921
          },
          {
            "duration": 0.09173983333333524,
            "durationTicks": 64,
            "midi": 47,
            "name": "B2",
            "ticks": 52508,
            "time": 74.68661151041667,
            "velocity": 0.7716535433070866
          },
          {
            "duration": 0.08027235416666656,
            "durationTicks": 56,
            "midi": 40,
            "name": "E2",
            "ticks": 52510,
            "time": 74.68947838020833,
            "velocity": 0.7244094488188977
          },
          {
            "duration": 0.10894105208333826,
            "durationTicks": 76,
            "midi": 40,
            "name": "E2",
            "ticks": 52604,
            "time": 74.82422126041666,
            "velocity": 0.6850393700787402
          },
          {
            "duration": 0.09173983333334945,
            "durationTicks": 64,
            "midi": 47,
            "name": "B2",
            "ticks": 52606,
            "time": 74.82708813020832,
            "velocity": 0.7480314960629921
          },
          {
            "duration": 0.08887296354167518,
            "durationTicks": 62,
            "midi": 40,
            "name": "E2",
            "ticks": 52794,
            "time": 75.096573890625,
            "velocity": 0.7244094488188977
          },
          {
            "duration": 0.08313922395832662,
            "durationTicks": 58,
            "midi": 47,
            "name": "B2",
            "ticks": 52794,
            "time": 75.096573890625,
            "velocity": 0.7637795275590551
          },
          {
            "duration": 0.1232754010416528,
            "durationTicks": 86,
            "midi": 52,
            "name": "E3",
            "ticks": 52796,
            "time": 75.09944076041667,
            "velocity": 0.7086614173228346
          },
          {
            "duration": 0.11754166145831846,
            "durationTicks": 82,
            "midi": 40,
            "name": "E2",
            "ticks": 52986,
            "time": 75.371793390625,
            "velocity": 0.6850393700787402
          },
          {
            "duration": 0.09173983333332103,
            "durationTicks": 64,
            "midi": 47,
            "name": "B2",
            "ticks": 52986,
            "time": 75.371793390625,
            "velocity": 0.7874015748031497
          },
          {
            "duration": 0.0860060937500009,
            "durationTicks": 60,
            "midi": 47,
            "name": "B2",
            "ticks": 53178,
            "time": 75.64701289062499,
            "velocity": 0.7637795275590551
          },
          {
            "duration": 0.09460670312500952,
            "durationTicks": 66,
            "midi": 40,
            "name": "E2",
            "ticks": 53180,
            "time": 75.64987976041667,
            "velocity": 0.7086614173228346
          },
          {
            "duration": 0.10607418229166399,
            "durationTicks": 74,
            "midi": 52,
            "name": "E3",
            "ticks": 53180,
            "time": 75.64987976041667,
            "velocity": 0.7007874015748031
          },
          {
            "duration": 0.10894105208332405,
            "durationTicks": 76,
            "midi": 40,
            "name": "E2",
            "ticks": 53370,
            "time": 75.922232390625,
            "velocity": 0.6692913385826772
          },
          {
            "duration": 0.09173983333332103,
            "durationTicks": 64,
            "midi": 47,
            "name": "B2",
            "ticks": 53370,
            "time": 75.922232390625,
            "velocity": 0.7716535433070866
          },
          {
            "duration": 0.13187601041667563,
            "durationTicks": 92,
            "midi": 52,
            "name": "E3",
            "ticks": 53370,
            "time": 75.922232390625,
            "velocity": 0.7086614173228346
          },
          {
            "duration": 0.08027235416666656,
            "durationTicks": 56,
            "midi": 47,
            "name": "B2",
            "ticks": 53562,
            "time": 76.197451890625,
            "velocity": 0.7716535433070866
          },
          {
            "duration": 0.08887296354167518,
            "durationTicks": 62,
            "midi": 40,
            "name": "E2",
            "ticks": 53566,
            "time": 76.20318563020832,
            "velocity": 0.7165354330708661
          },
          {
            "duration": 0.10894105208333826,
            "durationTicks": 76,
            "midi": 40,
            "name": "E2",
            "ticks": 53758,
            "time": 76.47840513020833,
            "velocity": 0.6850393700787402
          },
          {
            "duration": 0.09173983333333524,
            "durationTicks": 64,
            "midi": 47,
            "name": "B2",
            "ticks": 53758,
            "time": 76.47840513020833,
            "velocity": 0.7795275590551181
          },
          {
            "duration": 0.14047661979167003,
            "durationTicks": 98,
            "midi": 52,
            "name": "E3",
            "ticks": 53758,
            "time": 76.47840513020833,
            "velocity": 0.7086614173228346
          },
          {
            "duration": 0.07453861458331801,
            "durationTicks": 52,
            "midi": 40,
            "name": "E2",
            "ticks": 53946,
            "time": 76.747890890625,
            "velocity": 0.6850393700787402
          },
          {
            "duration": 0.07167174479167215,
            "durationTicks": 50,
            "midi": 47,
            "name": "B2",
            "ticks": 53946,
            "time": 76.747890890625,
            "velocity": 0.7007874015748031
          },
          {
            "duration": 0.08313922395832662,
            "durationTicks": 58,
            "midi": 47,
            "name": "B2",
            "ticks": 54042,
            "time": 76.885500640625,
            "velocity": 0.7244094488188977
          },
          {
            "duration": 0.11754166145833267,
            "durationTicks": 82,
            "midi": 40,
            "name": "E2",
            "ticks": 54046,
            "time": 76.89123438020833,
            "velocity": 0.6692913385826772
          },
          {
            "duration": 0.0860060937500009,
            "durationTicks": 60,
            "midi": 40,
            "name": "E2",
            "ticks": 54142,
            "time": 77.02884413020833,
            "velocity": 0.6692913385826772
          },
          {
            "duration": 0.07740548437499228,
            "durationTicks": 54,
            "midi": 47,
            "name": "B2",
            "ticks": 54142,
            "time": 77.02884413020833,
            "velocity": 0.7716535433070866
          },
          {
            "duration": 0.12614227083332707,
            "durationTicks": 88,
            "midi": 52,
            "name": "E3",
            "ticks": 54330,
            "time": 77.298329890625,
            "velocity": 0.7007874015748031
          },
          {
            "duration": 0.10894105208333826,
            "durationTicks": 76,
            "midi": 40,
            "name": "E2",
            "ticks": 54334,
            "time": 77.30406363020833,
            "velocity": 0.6850393700787402
          },
          {
            "duration": 0.09173983333333524,
            "durationTicks": 64,
            "midi": 47,
            "name": "B2",
            "ticks": 54334,
            "time": 77.30406363020833,
            "velocity": 0.7716535433070866
          },
          {
            "duration": 0.09173983333333524,
            "durationTicks": 64,
            "midi": 40,
            "name": "E2",
            "ticks": 54524,
            "time": 77.57641626041666,
            "velocity": 0.7322834645669292
          },
          {
            "duration": 0.08027235416666656,
            "durationTicks": 56,
            "midi": 47,
            "name": "B2",
            "ticks": 54526,
            "time": 77.57928313020832,
            "velocity": 0.7637795275590551
          },
          {
            "duration": 0.11754166145833267,
            "durationTicks": 82,
            "midi": 40,
            "name": "E2",
            "ticks": 54714,
            "time": 77.848768890625,
            "velocity": 0.6377952755905512
          },
          {
            "duration": 0.08887296354167518,
            "durationTicks": 62,
            "midi": 47,
            "name": "B2",
            "ticks": 54714,
            "time": 77.848768890625,
            "velocity": 0.7716535433070866
          },
          {
            "duration": 0.10034044270834386,
            "durationTicks": 70,
            "midi": 52,
            "name": "E3",
            "ticks": 54718,
            "time": 77.85450263020833,
            "velocity": 0.7007874015748031
          },
          {
            "duration": 0.12900914062500135,
            "durationTicks": 90,
            "midi": 52,
            "name": "E3",
            "ticks": 54906,
            "time": 78.123988390625,
            "velocity": 0.7007874015748031
          },
          {
            "duration": 0.09747357291665537,
            "durationTicks": 68,
            "midi": 40,
            "name": "E2",
            "ticks": 54908,
            "time": 78.12685526041668,
            "velocity": 0.7401574803149606
          },
          {
            "duration": 0.0860060937500009,
            "durationTicks": 60,
            "midi": 47,
            "name": "B2",
            "ticks": 54908,
            "time": 78.12685526041668,
            "velocity": 0.7716535433070866
          },
          {
            "duration": 0.12327540104168122,
            "durationTicks": 86,
            "midi": 40,
            "name": "E2",
            "ticks": 55098,
            "time": 78.399207890625,
            "velocity": 0.6850393700787402
          },
          {
            "duration": 0.10034044270834386,
            "durationTicks": 70,
            "midi": 47,
            "name": "B2",
            "ticks": 55102,
            "time": 78.40494163020833,
            "velocity": 0.7952755905511811
          },
          {
            "duration": 0.0860060937500009,
            "durationTicks": 60,
            "midi": 47,
            "name": "B2",
            "ticks": 55290,
            "time": 78.674427390625,
            "velocity": 0.7795275590551181
          },
          {
            "duration": 0.09173983333332103,
            "durationTicks": 64,
            "midi": 40,
            "name": "E2",
            "ticks": 55292,
            "time": 78.67729426041667,
            "velocity": 0.7480314960629921
          },
          {
            "duration": 0.14907722916666444,
            "durationTicks": 104,
            "midi": 52,
            "name": "E3",
            "ticks": 55294,
            "time": 78.68016113020833,
            "velocity": 0.7007874015748031
          },
          {
            "duration": 0.08313922395832662,
            "durationTicks": 58,
            "midi": 47,
            "name": "B2",
            "ticks": 55484,
            "time": 78.95251376041666,
            "velocity": 0.7480314960629921
          },
          {
            "duration": 0.08887296354167518,
            "durationTicks": 62,
            "midi": 40,
            "name": "E2",
            "ticks": 55486,
            "time": 78.95538063020832,
            "velocity": 0.6850393700787402
          },
          {
            "duration": 0.0774054843750065,
            "durationTicks": 54,
            "midi": 40,
            "name": "E2",
            "ticks": 55582,
            "time": 79.09299038020832,
            "velocity": 0.7244094488188977
          },
          {
            "duration": 0.08887296354167518,
            "durationTicks": 62,
            "midi": 47,
            "name": "B2",
            "ticks": 55582,
            "time": 79.09299038020832,
            "velocity": 0.7401574803149606
          },
          {
            "duration": 0.10607418229164978,
            "durationTicks": 74,
            "midi": 40,
            "name": "E2",
            "ticks": 55676,
            "time": 79.22773326041667,
            "velocity": 0.6850393700787402
          },
          {
            "duration": 0.08313922395832662,
            "durationTicks": 58,
            "midi": 47,
            "name": "B2",
            "ticks": 55676,
            "time": 79.22773326041667,
            "velocity": 0.7165354330708661
          },
          {
            "duration": 0.13474288020832148,
            "durationTicks": 94,
            "midi": 52,
            "name": "E3",
            "ticks": 55866,
            "time": 79.500085890625,
            "velocity": 0.7086614173228346
          },
          {
            "duration": 0.08887296354164675,
            "durationTicks": 62,
            "midi": 40,
            "name": "E2",
            "ticks": 55868,
            "time": 79.50295276041668,
            "velocity": 0.7322834645669292
          },
          {
            "duration": 0.0860060937500009,
            "durationTicks": 60,
            "midi": 47,
            "name": "B2",
            "ticks": 55868,
            "time": 79.50295276041668,
            "velocity": 0.7322834645669292
          },
          {
            "duration": 0.11754166145833267,
            "durationTicks": 82,
            "midi": 40,
            "name": "E2",
            "ticks": 56060,
            "time": 79.77817226041667,
            "velocity": 0.7165354330708661
          },
          {
            "duration": 0.09460670312500952,
            "durationTicks": 66,
            "midi": 47,
            "name": "B2",
            "ticks": 56060,
            "time": 79.77817226041667,
            "velocity": 0.7716535433070866
          },
          {
            "duration": 0.10894105208332405,
            "durationTicks": 76,
            "midi": 52,
            "name": "E3",
            "ticks": 56250,
            "time": 80.050524890625,
            "velocity": 0.7007874015748031
          },
          {
            "duration": 0.0860060937500009,
            "durationTicks": 60,
            "midi": 47,
            "name": "B2",
            "ticks": 56252,
            "time": 80.05339176041667,
            "velocity": 0.7637795275590551
          },
          {
            "duration": 0.0946067031249953,
            "durationTicks": 66,
            "midi": 40,
            "name": "E2",
            "ticks": 56254,
            "time": 80.05625863020833,
            "velocity": 0.7165354330708661
          },
          {
            "duration": 0.10034044270832965,
            "durationTicks": 70,
            "midi": 47,
            "name": "B2",
            "ticks": 56444,
            "time": 80.32861126041666,
            "velocity": 0.7795275590551181
          },
          {
            "duration": 0.11754166145834688,
            "durationTicks": 82,
            "midi": 40,
            "name": "E2",
            "ticks": 56446,
            "time": 80.33147813020832,
            "velocity": 0.7244094488188977
          },
          {
            "duration": 0.12040853125000694,
            "durationTicks": 84,
            "midi": 52,
            "name": "E3",
            "ticks": 56446,
            "time": 80.33147813020832,
            "velocity": 0.7086614173228346
          },
          {
            "duration": 0.0860060937500009,
            "durationTicks": 60,
            "midi": 47,
            "name": "B2",
            "ticks": 56636,
            "time": 80.60383076041667,
            "velocity": 0.7795275590551181
          },
          {
            "duration": 0.09173983333333524,
            "durationTicks": 64,
            "midi": 40,
            "name": "E2",
            "ticks": 56638,
            "time": 80.60669763020833,
            "velocity": 0.7244094488188977
          },
          {
            "duration": 0.11754166145831846,
            "durationTicks": 82,
            "midi": 40,
            "name": "E2",
            "ticks": 56828,
            "time": 80.87905026041668,
            "velocity": 0.7165354330708661
          },
          {
            "duration": 0.08887296354164675,
            "durationTicks": 62,
            "midi": 47,
            "name": "B2",
            "ticks": 56828,
            "time": 80.87905026041668,
            "velocity": 0.7637795275590551
          },
          {
            "duration": 0.14621035937499016,
            "durationTicks": 102,
            "midi": 52,
            "name": "E3",
            "ticks": 56828,
            "time": 80.87905026041668,
            "velocity": 0.7086614173228346
          },
          {
            "duration": 0.06593800520833781,
            "durationTicks": 46,
            "midi": 47,
            "name": "B2",
            "ticks": 57018,
            "time": 81.151402890625,
            "velocity": 0.7086614173228346
          },
          {
            "duration": 0.0573373958333292,
            "durationTicks": 40,
            "midi": 40,
            "name": "E2",
            "ticks": 57020,
            "time": 81.15426976041667,
            "velocity": 0.6220472440944882
          },
          {
            "duration": 0.08027235416666656,
            "durationTicks": 56,
            "midi": 47,
            "name": "B2",
            "ticks": 57116,
            "time": 81.29187951041666,
            "velocity": 0.7322834645669292
          },
          {
            "duration": 0.12327540104168122,
            "durationTicks": 86,
            "midi": 40,
            "name": "E2",
            "ticks": 57118,
            "time": 81.29474638020832,
            "velocity": 0.6771653543307087
          },
          {
            "duration": 0.10320731250000392,
            "durationTicks": 72,
            "midi": 40,
            "name": "E2",
            "ticks": 57210,
            "time": 81.426622390625,
            "velocity": 0.6850393700787402
          },
          {
            "duration": 0.0774054843750065,
            "durationTicks": 54,
            "midi": 47,
            "name": "B2",
            "ticks": 57214,
            "time": 81.43235613020832,
            "velocity": 0.7480314960629921
          },
          {
            "duration": 0.09747357291665537,
            "durationTicks": 68,
            "midi": 47,
            "name": "B2",
            "ticks": 57404,
            "time": 81.70470876041666,
            "velocity": 0.7795275590551181
          },
          {
            "duration": 0.13760975000000997,
            "durationTicks": 96,
            "midi": 52,
            "name": "E3",
            "ticks": 57404,
            "time": 81.70470876041666,
            "velocity": 0.7086614173228346
          },
          {
            "duration": 0.11180792187499833,
            "durationTicks": 78,
            "midi": 40,
            "name": "E2",
            "ticks": 57406,
            "time": 81.70757563020832,
            "velocity": 0.7165354330708661
          },
          {
            "duration": 0.0860060937500009,
            "durationTicks": 60,
            "midi": 40,
            "name": "E2",
            "ticks": 57596,
            "time": 81.97992826041667,
            "velocity": 0.7322834645669292
          },
          {
            "duration": 0.0860060937500009,
            "durationTicks": 60,
            "midi": 47,
            "name": "B2",
            "ticks": 57596,
            "time": 81.97992826041667,
            "velocity": 0.7795275590551181
          },
          {
            "duration": 0.10607418229166399,
            "durationTicks": 74,
            "midi": 52,
            "name": "E3",
            "ticks": 57786,
            "time": 82.252280890625,
            "velocity": 0.7165354330708661
          },
          {
            "duration": 0.11180792187499833,
            "durationTicks": 78,
            "midi": 40,
            "name": "E2",
            "ticks": 57788,
            "time": 82.25514776041668,
            "velocity": 0.6850393700787402
          },
          {
            "duration": 0.0946067031249953,
            "durationTicks": 66,
            "midi": 47,
            "name": "B2",
            "ticks": 57788,
            "time": 82.25514776041668,
            "velocity": 0.7795275590551181
          },
          {
            "duration": 0.08313922395832662,
            "durationTicks": 58,
            "midi": 40,
            "name": "E2",
            "ticks": 57980,
            "time": 82.53036726041667,
            "velocity": 0.7244094488188977
          },
          {
            "duration": 0.0860060937500009,
            "durationTicks": 60,
            "midi": 47,
            "name": "B2",
            "ticks": 57980,
            "time": 82.53036726041667,
            "velocity": 0.7952755905511811
          },
          {
            "duration": 0.12614227083334129,
            "durationTicks": 88,
            "midi": 52,
            "name": "E3",
            "ticks": 57982,
            "time": 82.53323413020833,
            "velocity": 0.7165354330708661
          },
          {
            "duration": 0.11180792187501254,
            "durationTicks": 78,
            "midi": 40,
            "name": "E2",
            "ticks": 58174,
            "time": 82.80845363020832,
            "velocity": 0.6850393700787402
          },
          {
            "duration": 0.1060741822916782,
            "durationTicks": 74,
            "midi": 47,
            "name": "B2",
            "ticks": 58174,
            "time": 82.80845363020832,
            "velocity": 0.7795275590551181
          },
          {
            "duration": 0.09173983333333524,
            "durationTicks": 64,
            "midi": 45,
            "name": "A2",
            "ticks": 58364,
            "time": 83.08080626041667,
            "velocity": 0.7007874015748031
          },
          {
            "duration": 0.0860060937500009,
            "durationTicks": 60,
            "midi": 52,
            "name": "E3",
            "ticks": 58364,
            "time": 83.08080626041667,
            "velocity": 0.6220472440944882
          },
          {
            "duration": 0.14047661979167003,
            "durationTicks": 98,
            "midi": 57,
            "name": "A3",
            "ticks": 58366,
            "time": 83.08367313020833,
            "velocity": 0.7086614173228346
          },
          {
            "duration": 0.07740548437499228,
            "durationTicks": 54,
            "midi": 52,
            "name": "E3",
            "ticks": 58556,
            "time": 83.35602576041667,
            "velocity": 0.6850393700787402
          },
          {
            "duration": 0.08313922395834084,
            "durationTicks": 58,
            "midi": 45,
            "name": "A2",
            "ticks": 58558,
            "time": 83.35889263020833,
            "velocity": 0.6299212598425197
          },
          {
            "duration": 0.09747357291665537,
            "durationTicks": 68,
            "midi": 52,
            "name": "E3",
            "ticks": 58652,
            "time": 83.49363551041667,
            "velocity": 0.6299212598425197
          },
          {
            "duration": 0.09173983333334945,
            "durationTicks": 64,
            "midi": 45,
            "name": "A2",
            "ticks": 58654,
            "time": 83.49650238020833,
            "velocity": 0.6850393700787402
          },
          {
            "duration": 0.0946067031249953,
            "durationTicks": 66,
            "midi": 52,
            "name": "E3",
            "ticks": 58746,
            "time": 83.628378390625,
            "velocity": 0.6850393700787402
          },
          {
            "duration": 0.10607418229164978,
            "durationTicks": 74,
            "midi": 45,
            "name": "A2",
            "ticks": 58748,
            "time": 83.63124526041668,
            "velocity": 0.7086614173228346
          },
          {
            "duration": 0.09173983333333524,
            "durationTicks": 64,
            "midi": 45,
            "name": "A2",
            "ticks": 58938,
            "time": 83.903597890625,
            "velocity": 0.7007874015748031
          },
          {
            "duration": 0.12900914062500135,
            "durationTicks": 90,
            "midi": 57,
            "name": "A3",
            "ticks": 58940,
            "time": 83.90646476041667,
            "velocity": 0.7007874015748031
          },
          {
            "duration": 0.09747357291666958,
            "durationTicks": 68,
            "midi": 52,
            "name": "E3",
            "ticks": 58942,
            "time": 83.90933163020833,
            "velocity": 0.7165354330708661
          },
          {
            "duration": 0.11180792187499833,
            "durationTicks": 78,
            "midi": 45,
            "name": "A2",
            "ticks": 59132,
            "time": 84.18168426041667,
            "velocity": 0.7007874015748031
          },
          {
            "duration": 0.10320731250000392,
            "durationTicks": 72,
            "midi": 52,
            "name": "E3",
            "ticks": 59134,
            "time": 84.18455113020832,
            "velocity": 0.7480314960629921
          },
          {
            "duration": 0.0946067031249953,
            "durationTicks": 66,
            "midi": 52,
            "name": "E3",
            "ticks": 59322,
            "time": 84.454036890625,
            "velocity": 0.7401574803149606
          },
          {
            "duration": 0.10320731249998971,
            "durationTicks": 72,
            "midi": 57,
            "name": "A3",
            "ticks": 59322,
            "time": 84.454036890625,
            "velocity": 0.6929133858267716
          },
          {
            "duration": 0.08887296354166097,
            "durationTicks": 62,
            "midi": 45,
            "name": "A2",
            "ticks": 59324,
            "time": 84.45690376041667,
            "velocity": 0.7086614173228346
          },
          {
            "duration": 0.12040853124999273,
            "durationTicks": 84,
            "midi": 57,
            "name": "A3",
            "ticks": 59516,
            "time": 84.73212326041667,
            "velocity": 0.6929133858267716
          },
          {
            "duration": 0.11180792187499833,
            "durationTicks": 78,
            "midi": 45,
            "name": "A2",
            "ticks": 59518,
            "time": 84.73499013020833,
            "velocity": 0.6850393700787402
          },
          {
            "duration": 0.10320731249998971,
            "durationTicks": 72,
            "midi": 52,
            "name": "E3",
            "ticks": 59518,
            "time": 84.73499013020833,
            "velocity": 0.7401574803149606
          },
          {
            "duration": 0.08027235416666656,
            "durationTicks": 56,
            "midi": 52,
            "name": "E3",
            "ticks": 59706,
            "time": 85.004475890625,
            "velocity": 0.7244094488188977
          },
          {
            "duration": 0.08027235416668077,
            "durationTicks": 56,
            "midi": 45,
            "name": "A2",
            "ticks": 59710,
            "time": 85.01020963020832,
            "velocity": 0.7086614173228346
          },
          {
            "duration": 0.10320731250000392,
            "durationTicks": 72,
            "midi": 52,
            "name": "E3",
            "ticks": 59898,
            "time": 85.279695390625,
            "velocity": 0.7322834645669292
          },
          {
            "duration": 0.10034044270832965,
            "durationTicks": 70,
            "midi": 45,
            "name": "A2",
            "ticks": 59900,
            "time": 85.28256226041667,
            "velocity": 0.7007874015748031
          },
          {
            "duration": 0.1347428802083357,
            "durationTicks": 94,
            "midi": 57,
            "name": "A3",
            "ticks": 59902,
            "time": 85.28542913020833,
            "velocity": 0.6929133858267716
          },
          {
            "duration": 0.08027235416666656,
            "durationTicks": 56,
            "midi": 52,
            "name": "E3",
            "ticks": 60090,
            "time": 85.554914890625,
            "velocity": 0.6535433070866141
          },
          {
            "duration": 0.05733739583334341,
            "durationTicks": 40,
            "midi": 45,
            "name": "A2",
            "ticks": 60094,
            "time": 85.56064863020832,
            "velocity": 0.6220472440944882
          },
          {
            "duration": 0.09747357291666958,
            "durationTicks": 68,
            "midi": 45,
            "name": "A2",
            "ticks": 60186,
            "time": 85.692524640625,
            "velocity": 0.6850393700787402
          },
          {
            "duration": 0.10034044270832965,
            "durationTicks": 70,
            "midi": 52,
            "name": "E3",
            "ticks": 60188,
            "time": 85.69539151041667,
            "velocity": 0.6850393700787402
          },
          {
            "duration": 0.0860060937500009,
            "durationTicks": 60,
            "midi": 45,
            "name": "A2",
            "ticks": 60282,
            "time": 85.83013439062499,
            "velocity": 0.7322834645669292
          },
          {
            "duration": 0.08887296354166097,
            "durationTicks": 62,
            "midi": 52,
            "name": "E3",
            "ticks": 60284,
            "time": 85.83300126041667,
            "velocity": 0.7007874015748031
          },
          {
            "duration": 0.09747357291666958,
            "durationTicks": 68,
            "midi": 52,
            "name": "E3",
            "ticks": 60474,
            "time": 86.105353890625,
            "velocity": 0.7165354330708661
          },
          {
            "duration": 0.12040853125000694,
            "durationTicks": 84,
            "midi": 57,
            "name": "A3",
            "ticks": 60474,
            "time": 86.105353890625,
            "velocity": 0.7007874015748031
          },
          {
            "duration": 0.09747357291665537,
            "durationTicks": 68,
            "midi": 45,
            "name": "A2",
            "ticks": 60476,
            "time": 86.10822076041667,
            "velocity": 0.6456692913385826
          },
          {
            "duration": 0.08313922395832662,
            "durationTicks": 58,
            "midi": 52,
            "name": "E3",
            "ticks": 60666,
            "time": 86.380573390625,
            "velocity": 0.7244094488188977
          },
          {
            "duration": 0.06880487499999788,
            "durationTicks": 48,
            "midi": 45,
            "name": "A2",
            "ticks": 60668,
            "time": 86.38344026041668,
            "velocity": 0.6692913385826772
          },
          {
            "duration": 0.1060741822916782,
            "durationTicks": 74,
            "midi": 45,
            "name": "A2",
            "ticks": 60858,
            "time": 86.655792890625,
            "velocity": 0.6850393700787402
          },
          {
            "duration": 0.10034044270832965,
            "durationTicks": 70,
            "midi": 52,
            "name": "E3",
            "ticks": 60858,
            "time": 86.655792890625,
            "velocity": 0.7244094488188977
          },
          {
            "duration": 0.0946067031249953,
            "durationTicks": 66,
            "midi": 57,
            "name": "A3",
            "ticks": 60862,
            "time": 86.66152663020833,
            "velocity": 0.7007874015748031
          },
          {
            "duration": 0.07453861458334643,
            "durationTicks": 52,
            "midi": 45,
            "name": "A2",
            "ticks": 61054,
            "time": 86.93674613020832,
            "velocity": 0.6377952755905512
          },
          {
            "duration": 0.0860060937500009,
            "durationTicks": 60,
            "midi": 52,
            "name": "E3",
            "ticks": 61054,
            "time": 86.93674613020832,
            "velocity": 0.7322834645669292
          },
          {
            "duration": 0.12327540104168122,
            "durationTicks": 86,
            "midi": 57,
            "name": "A3",
            "ticks": 61054,
            "time": 86.93674613020832,
            "velocity": 0.7007874015748031
          },
          {
            "duration": 0.09747357291665537,
            "durationTicks": 68,
            "midi": 45,
            "name": "A2",
            "ticks": 61244,
            "time": 87.20909876041667,
            "velocity": 0.7401574803149606
          },
          {
            "duration": 0.08887296354167518,
            "durationTicks": 62,
            "midi": 52,
            "name": "E3",
            "ticks": 61246,
            "time": 87.21196563020833,
            "velocity": 0.7401574803149606
          },
          {
            "duration": 0.08313922395832662,
            "durationTicks": 58,
            "midi": 47,
            "name": "B2",
            "ticks": 61434,
            "time": 87.481451390625,
            "velocity": 0.7637795275590551
          },
          {
            "duration": 0.0860060937500009,
            "durationTicks": 60,
            "midi": 40,
            "name": "E2",
            "ticks": 61438,
            "time": 87.48718513020833,
            "velocity": 0.7165354330708661
          },
          {
            "duration": 0.13760974999999576,
            "durationTicks": 96,
            "midi": 52,
            "name": "E3",
            "ticks": 61438,
            "time": 87.48718513020833,
            "velocity": 0.7007874015748031
          },
          {
            "duration": 0.08027235416666656,
            "durationTicks": 56,
            "midi": 40,
            "name": "E2",
            "ticks": 61626,
            "time": 87.756670890625,
            "velocity": 0.6692913385826772
          },
          {
            "duration": 0.05447052604165492,
            "durationTicks": 38,
            "midi": 47,
            "name": "B2",
            "ticks": 61628,
            "time": 87.75953776041668,
            "velocity": 0.7244094488188977
          },
          {
            "duration": 0.0860060937500009,
            "durationTicks": 60,
            "midi": 47,
            "name": "B2",
            "ticks": 61724,
            "time": 87.89714751041667,
            "velocity": 0.7322834645669292
          },
          {
            "duration": 0.08027235416666656,
            "durationTicks": 56,
            "midi": 40,
            "name": "E2",
            "ticks": 61726,
            "time": 87.90001438020833,
            "velocity": 0.6850393700787402
          },
          {
            "duration": 0.10894105208333826,
            "durationTicks": 76,
            "midi": 40,
            "name": "E2",
            "ticks": 61818,
            "time": 88.031890390625,
            "velocity": 0.7086614173228346
          },
          {
            "duration": 0.07740548437499228,
            "durationTicks": 54,
            "midi": 47,
            "name": "B2",
            "ticks": 61822,
            "time": 88.03762413020833,
            "velocity": 0.7401574803149606
          },
          {
            "duration": 0.08313922395832662,
            "durationTicks": 58,
            "midi": 40,
            "name": "E2",
            "ticks": 62012,
            "time": 88.30997676041667,
            "velocity": 0.7244094488188977
          },
          {
            "duration": 0.1318760104166472,
            "durationTicks": 92,
            "midi": 52,
            "name": "E3",
            "ticks": 62012,
            "time": 88.30997676041667,
            "velocity": 0.7165354330708661
          },
          {
            "duration": 0.0860060937500009,
            "durationTicks": 60,
            "midi": 47,
            "name": "B2",
            "ticks": 62014,
            "time": 88.31284363020832,
            "velocity": 0.7716535433070866
          },
          {
            "duration": 0.09173983333333524,
            "durationTicks": 64,
            "midi": 47,
            "name": "B2",
            "ticks": 62202,
            "time": 88.58232939062499,
            "velocity": 0.7637795275590551
          },
          {
            "duration": 0.10894105208333826,
            "durationTicks": 76,
            "midi": 40,
            "name": "E2",
            "ticks": 62206,
            "time": 88.58806313020833,
            "velocity": 0.6850393700787402
          },
          {
            "duration": 0.0860060937500009,
            "durationTicks": 60,
            "midi": 40,
            "name": "E2",
            "ticks": 62394,
            "time": 88.857548890625,
            "velocity": 0.7007874015748031
          },
          {
            "duration": 0.11180792187499833,
            "durationTicks": 78,
            "midi": 52,
            "name": "E3",
            "ticks": 62396,
            "time": 88.86041576041667,
            "velocity": 0.6929133858267716
          },
          {
            "duration": 0.08887296354166097,
            "durationTicks": 62,
            "midi": 47,
            "name": "B2",
            "ticks": 62398,
            "time": 88.86328263020833,
            "velocity": 0.7795275590551181
          },
          {
            "duration": 0.13474288020832148,
            "durationTicks": 94,
            "midi": 52,
            "name": "E3",
            "ticks": 62586,
            "time": 89.132768390625,
            "velocity": 0.7165354330708661
          },
          {
            "duration": 0.10607418229166399,
            "durationTicks": 74,
            "midi": 40,
            "name": "E2",
            "ticks": 62588,
            "time": 89.13563526041666,
            "velocity": 0.6850393700787402
          },
          {
            "duration": 0.09460670312500952,
            "durationTicks": 66,
            "midi": 47,
            "name": "B2",
            "ticks": 62588,
            "time": 89.13563526041666,
            "velocity": 0.7716535433070866
          },
          {
            "duration": 0.08313922395832662,
            "durationTicks": 58,
            "midi": 40,
            "name": "E2",
            "ticks": 62778,
            "time": 89.407987890625,
            "velocity": 0.7086614173228346
          },
          {
            "duration": 0.08313922395832662,
            "durationTicks": 58,
            "midi": 47,
            "name": "B2",
            "ticks": 62778,
            "time": 89.407987890625,
            "velocity": 0.7637795275590551
          },
          {
            "duration": 0.08313922395832662,
            "durationTicks": 58,
            "midi": 47,
            "name": "B2",
            "ticks": 62970,
            "time": 89.683207390625,
            "velocity": 0.7795275590551181
          },
          {
            "duration": 0.0860060937500009,
            "durationTicks": 60,
            "midi": 40,
            "name": "E2",
            "ticks": 62972,
            "time": 89.68607426041667,
            "velocity": 0.7086614173228346
          },
          {
            "duration": 0.15194409895835292,
            "durationTicks": 106,
            "midi": 52,
            "name": "E3",
            "ticks": 62974,
            "time": 89.68894113020832,
            "velocity": 0.7007874015748031
          },
          {
            "duration": 0.07453861458333222,
            "durationTicks": 52,
            "midi": 47,
            "name": "B2",
            "ticks": 63164,
            "time": 89.96129376041667,
            "velocity": 0.7401574803149606
          },
          {
            "duration": 0.0774054843750065,
            "durationTicks": 54,
            "midi": 40,
            "name": "E2",
            "ticks": 63166,
            "time": 89.96416063020833,
            "velocity": 0.6535433070866141
          },
          {
            "duration": 0.07740548437499228,
            "durationTicks": 54,
            "midi": 40,
            "name": "E2",
            "ticks": 63258,
            "time": 90.096036640625,
            "velocity": 0.6850393700787402
          },
          {
            "duration": 0.08887296354167518,
            "durationTicks": 62,
            "midi": 47,
            "name": "B2",
            "ticks": 63258,
            "time": 90.096036640625,
            "velocity": 0.7480314960629921
          },
          {
            "duration": 0.1146747916666584,
            "durationTicks": 80,
            "midi": 40,
            "name": "E2",
            "ticks": 63356,
            "time": 90.23651326041667,
            "velocity": 0.6771653543307087
          },
          {
            "duration": 0.0860060937500009,
            "durationTicks": 60,
            "midi": 47,
            "name": "B2",
            "ticks": 63358,
            "time": 90.23938013020833,
            "velocity": 0.7716535433070866
          },
          {
            "duration": 0.08027235416666656,
            "durationTicks": 56,
            "midi": 47,
            "name": "B2",
            "ticks": 63546,
            "time": 90.508865890625,
            "velocity": 0.7637795275590551
          },
          {
            "duration": 0.0860060937500009,
            "durationTicks": 60,
            "midi": 40,
            "name": "E2",
            "ticks": 63550,
            "time": 90.51459963020832,
            "velocity": 0.6850393700787402
          },
          {
            "duration": 0.13187601041667563,
            "durationTicks": 92,
            "midi": 52,
            "name": "E3",
            "ticks": 63550,
            "time": 90.51459963020832,
            "velocity": 0.7007874015748031
          },
          {
            "duration": 0.10894105208333826,
            "durationTicks": 76,
            "midi": 40,
            "name": "E2",
            "ticks": 63742,
            "time": 90.78981913020833,
            "velocity": 0.6614173228346457
          },
          {
            "duration": 0.09173983333333524,
            "durationTicks": 64,
            "midi": 47,
            "name": "B2",
            "ticks": 63742,
            "time": 90.78981913020833,
            "velocity": 0.7716535433070866
          },
          {
            "duration": 0.09173983333332103,
            "durationTicks": 64,
            "midi": 40,
            "name": "E2",
            "ticks": 63930,
            "time": 91.059304890625,
            "velocity": 0.7165354330708661
          },
          {
            "duration": 0.08027235416666656,
            "durationTicks": 56,
            "midi": 47,
            "name": "B2",
            "ticks": 63930,
            "time": 91.059304890625,
            "velocity": 0.7480314960629921
          },
          {
            "duration": 0.10034044270832965,
            "durationTicks": 70,
            "midi": 52,
            "name": "E3",
            "ticks": 63930,
            "time": 91.059304890625,
            "velocity": 0.7007874015748031
          },
          {
            "duration": 0.12040853125000694,
            "durationTicks": 84,
            "midi": 52,
            "name": "E3",
            "ticks": 64122,
            "time": 91.33452439062499,
            "velocity": 0.7007874015748031
          },
          {
            "duration": 0.1146747916666726,
            "durationTicks": 80,
            "midi": 40,
            "name": "E2",
            "ticks": 64126,
            "time": 91.34025813020833,
            "velocity": 0.6771653543307087
          },
          {
            "duration": 0.09747357291666958,
            "durationTicks": 68,
            "midi": 47,
            "name": "B2",
            "ticks": 64126,
            "time": 91.34025813020833,
            "velocity": 0.7716535433070866
          },
          {
            "duration": 0.08313922395832662,
            "durationTicks": 58,
            "midi": 47,
            "name": "B2",
            "ticks": 64316,
            "time": 91.61261076041667,
            "velocity": 0.7637795275590551
          },
          {
            "duration": 0.0946067031249953,
            "durationTicks": 66,
            "midi": 40,
            "name": "E2",
            "ticks": 64318,
            "time": 91.61547763020833,
            "velocity": 0.6850393700787402
          },
          {
            "duration": 0.09173983333333524,
            "durationTicks": 64,
            "midi": 47,
            "name": "B2",
            "ticks": 64508,
            "time": 91.88783026041666,
            "velocity": 0.7952755905511811
          },
          {
            "duration": 0.0860060937500009,
            "durationTicks": 60,
            "midi": 54,
            "name": "F#3",
            "ticks": 64508,
            "time": 91.88783026041666,
            "velocity": 0.7716535433070866
          },
          {
            "duration": 0.12900914062500135,
            "durationTicks": 90,
            "midi": 59,
            "name": "B3",
            "ticks": 64508,
            "time": 91.88783026041666,
            "velocity": 0.7086614173228346
          },
          {
            "duration": 0.06880487499999788,
            "durationTicks": 48,
            "midi": 54,
            "name": "F#3",
            "ticks": 64700,
            "time": 92.16304976041667,
            "velocity": 0.7480314960629921
          },
          {
            "duration": 0.06307113541666354,
            "durationTicks": 44,
            "midi": 47,
            "name": "B2",
            "ticks": 64702,
            "time": 92.16591663020833,
            "velocity": 0.7401574803149606
          },
          {
            "duration": 0.06020426562498926,
            "durationTicks": 42,
            "midi": 47,
            "name": "B2",
            "ticks": 64794,
            "time": 92.297792640625,
            "velocity": 0.7480314960629921
          },
          {
            "duration": 0.06307113541667775,
            "durationTicks": 44,
            "midi": 54,
            "name": "F#3",
            "ticks": 64798,
            "time": 92.30352638020833,
            "velocity": 0.7637795275590551
          },
          {
            "duration": 0.10320731249998971,
            "durationTicks": 72,
            "midi": 47,
            "name": "B2",
            "ticks": 64892,
            "time": 92.43826926041667,
            "velocity": 0.8031496062992126
          },
          {
            "duration": 0.10034044270832965,
            "durationTicks": 70,
            "midi": 54,
            "name": "F#3",
            "ticks": 64892,
            "time": 92.43826926041667,
            "velocity": 0.7322834645669292
          },
          {
            "duration": 0.08887296354167518,
            "durationTicks": 62,
            "midi": 47,
            "name": "B2",
            "ticks": 65082,
            "time": 92.71062189062499,
            "velocity": 0.7401574803149606
          },
          {
            "duration": 0.08887296354167518,
            "durationTicks": 62,
            "midi": 54,
            "name": "F#3",
            "ticks": 65082,
            "time": 92.71062189062499,
            "velocity": 0.7401574803149606
          },
          {
            "duration": 0.13187601041667563,
            "durationTicks": 92,
            "midi": 59,
            "name": "B3",
            "ticks": 65082,
            "time": 92.71062189062499,
            "velocity": 0.7007874015748031
          },
          {
            "duration": 0.08027235416666656,
            "durationTicks": 56,
            "midi": 54,
            "name": "F#3",
            "ticks": 65274,
            "time": 92.985841390625,
            "velocity": 0.7322834645669292
          },
          {
            "duration": 0.09747357291665537,
            "durationTicks": 68,
            "midi": 47,
            "name": "B2",
            "ticks": 65276,
            "time": 92.98870826041667,
            "velocity": 0.7637795275590551
          },
          {
            "duration": 0.10034044270832965,
            "durationTicks": 70,
            "midi": 59,
            "name": "B3",
            "ticks": 65466,
            "time": 93.261060890625,
            "velocity": 0.7007874015748031
          },
          {
            "duration": 0.11180792187501254,
            "durationTicks": 78,
            "midi": 47,
            "name": "B2",
            "ticks": 65468,
            "time": 93.26392776041666,
            "velocity": 0.8031496062992126
          },
          {
            "duration": 0.09460670312500952,
            "durationTicks": 66,
            "midi": 54,
            "name": "F#3",
            "ticks": 65468,
            "time": 93.26392776041666,
            "velocity": 0.7795275590551181
          },
          {
            "duration": 0.1232754010416528,
            "durationTicks": 86,
            "midi": 47,
            "name": "B2",
            "ticks": 65660,
            "time": 93.53914726041667,
            "velocity": 0.8031496062992126
          },
          {
            "duration": 0.12040853125000694,
            "durationTicks": 84,
            "midi": 59,
            "name": "B3",
            "ticks": 65660,
            "time": 93.53914726041667,
            "velocity": 0.7007874015748031
          },
          {
            "duration": 0.11180792187499833,
            "durationTicks": 78,
            "midi": 54,
            "name": "F#3",
            "ticks": 65662,
            "time": 93.54201413020833,
            "velocity": 0.7795275590551181
          },
          {
            "duration": 0.11754166145833267,
            "durationTicks": 82,
            "midi": 52,
            "name": "E3",
            "ticks": 65850,
            "time": 93.811499890625,
            "velocity": 0.7401574803149606
          },
          {
            "duration": 0.09173983333334945,
            "durationTicks": 64,
            "midi": 45,
            "name": "A2",
            "ticks": 65854,
            "time": 93.81723363020832,
            "velocity": 0.7322834645669292
          },
          {
            "duration": 0.09460670312500952,
            "durationTicks": 66,
            "midi": 52,
            "name": "E3",
            "ticks": 66044,
            "time": 94.08958626041667,
            "velocity": 0.7637795275590551
          },
          {
            "duration": 0.0946067031249953,
            "durationTicks": 66,
            "midi": 45,
            "name": "A2",
            "ticks": 66046,
            "time": 94.09245313020833,
            "velocity": 0.7637795275590551
          },
          {
            "duration": 0.12900914062500135,
            "durationTicks": 90,
            "midi": 57,
            "name": "A3",
            "ticks": 66046,
            "time": 94.09245313020833,
            "velocity": 0.7086614173228346
          },
          {
            "duration": 0.07167174479167215,
            "durationTicks": 50,
            "midi": 45,
            "name": "A2",
            "ticks": 66234,
            "time": 94.361938890625,
            "velocity": 0.6692913385826772
          },
          {
            "duration": 0.07740548437499228,
            "durationTicks": 54,
            "midi": 52,
            "name": "E3",
            "ticks": 66238,
            "time": 94.36767263020833,
            "velocity": 0.7244094488188977
          },
          {
            "duration": 0.09173983333333524,
            "durationTicks": 64,
            "midi": 52,
            "name": "E3",
            "ticks": 66332,
            "time": 94.50241551041667,
            "velocity": 0.6850393700787402
          },
          {
            "duration": 0.07740548437499228,
            "durationTicks": 54,
            "midi": 45,
            "name": "A2",
            "ticks": 66334,
            "time": 94.50528238020833,
            "velocity": 0.7165354330708661
          },
          {
            "duration": 0.08887296354166097,
            "durationTicks": 62,
            "midi": 45,
            "name": "A2",
            "ticks": 66426,
            "time": 94.637158390625,
            "velocity": 0.6850393700787402
          },
          {
            "duration": 0.0774054843750065,
            "durationTicks": 54,
            "midi": 52,
            "name": "E3",
            "ticks": 66428,
            "time": 94.64002526041666,
            "velocity": 0.7244094488188977
          },
          {
            "duration": 0.09460670312500952,
            "durationTicks": 66,
            "midi": 52,
            "name": "E3",
            "ticks": 66618,
            "time": 94.912377890625,
            "velocity": 0.7244094488188977
          },
          {
            "duration": 0.09173983333333524,
            "durationTicks": 64,
            "midi": 45,
            "name": "A2",
            "ticks": 66622,
            "time": 94.91811163020833,
            "velocity": 0.7322834645669292
          },
          {
            "duration": 0.1347428802083357,
            "durationTicks": 94,
            "midi": 57,
            "name": "A3",
            "ticks": 66622,
            "time": 94.91811163020833,
            "velocity": 0.7086614173228346
          },
          {
            "duration": 0.10034044270832965,
            "durationTicks": 70,
            "midi": 52,
            "name": "E3",
            "ticks": 66810,
            "time": 95.187597390625,
            "velocity": 0.7480314960629921
          },
          {
            "duration": 0.11180792187499833,
            "durationTicks": 78,
            "midi": 45,
            "name": "A2",
            "ticks": 66812,
            "time": 95.19046426041668,
            "velocity": 0.7086614173228346
          },
          {
            "duration": 0.08887296354166097,
            "durationTicks": 62,
            "midi": 45,
            "name": "A2",
            "ticks": 67004,
            "time": 95.46568376041667,
            "velocity": 0.7244094488188977
          },
          {
            "duration": 0.10034044270832965,
            "durationTicks": 70,
            "midi": 57,
            "name": "A3",
            "ticks": 67004,
            "time": 95.46568376041667,
            "velocity": 0.7165354330708661
          },
          {
            "duration": 0.08887296354167518,
            "durationTicks": 62,
            "midi": 52,
            "name": "E3",
            "ticks": 67006,
            "time": 95.46855063020833,
            "velocity": 0.7244094488188977
          },
          {
            "duration": 0.12900914062500135,
            "durationTicks": 90,
            "midi": 57,
            "name": "A3",
            "ticks": 67196,
            "time": 95.74090326041667,
            "velocity": 0.7165354330708661
          },
          {
            "duration": 0.12040853124999273,
            "durationTicks": 84,
            "midi": 45,
            "name": "A2",
            "ticks": 67198,
            "time": 95.74377013020833,
            "velocity": 0.7165354330708661
          },
          {
            "duration": 0.10894105208333826,
            "durationTicks": 76,
            "midi": 52,
            "name": "E3",
            "ticks": 67198,
            "time": 95.74377013020833,
            "velocity": 0.7480314960629921
          },
          {
            "duration": 0.09173983333333524,
            "durationTicks": 64,
            "midi": 45,
            "name": "A2",
            "ticks": 67388,
            "time": 96.01612276041666,
            "velocity": 0.6850393700787402
          },
          {
            "duration": 0.08313922395834084,
            "durationTicks": 58,
            "midi": 52,
            "name": "E3",
            "ticks": 67390,
            "time": 96.01898963020832,
            "velocity": 0.7086614173228346
          },
          {
            "duration": 0.08887296354166097,
            "durationTicks": 62,
            "midi": 40,
            "name": "E2",
            "ticks": 67580,
            "time": 96.29134226041667,
            "velocity": 0.7322834645669292
          },
          {
            "duration": 0.08887296354167518,
            "durationTicks": 62,
            "midi": 47,
            "name": "B2",
            "ticks": 67582,
            "time": 96.29420913020833,
            "velocity": 0.8031496062992126
          },
          {
            "duration": 0.1146747916666726,
            "durationTicks": 80,
            "midi": 52,
            "name": "E3",
            "ticks": 67582,
            "time": 96.29420913020833,
            "velocity": 0.7086614173228346
          },
          {
            "duration": 0.08027235416668077,
            "durationTicks": 56,
            "midi": 40,
            "name": "E2",
            "ticks": 67774,
            "time": 96.56942863020832,
            "velocity": 0.7165354330708661
          },
          {
            "duration": 0.06880487500001209,
            "durationTicks": 48,
            "midi": 47,
            "name": "B2",
            "ticks": 67774,
            "time": 96.56942863020832,
            "velocity": 0.7716535433070866
          },
          {
            "duration": 0.08027235416666656,
            "durationTicks": 56,
            "midi": 40,
            "name": "E2",
            "ticks": 67866,
            "time": 96.701304640625,
            "velocity": 0.7007874015748031
          },
          {
            "duration": 0.08887296354166097,
            "durationTicks": 62,
            "midi": 47,
            "name": "B2",
            "ticks": 67868,
            "time": 96.70417151041667,
            "velocity": 0.7480314960629921
          },
          {
            "duration": 0.10034044270832965,
            "durationTicks": 70,
            "midi": 40,
            "name": "E2",
            "ticks": 67962,
            "time": 96.83891439062499,
            "velocity": 0.7322834645669292
          },
          {
            "duration": 0.08313922395834084,
            "durationTicks": 58,
            "midi": 47,
            "name": "B2",
            "ticks": 67966,
            "time": 96.84464813020833,
            "velocity": 0.7795275590551181
          },
          {
            "duration": 0.0860060937500009,
            "durationTicks": 60,
            "midi": 47,
            "name": "B2",
            "ticks": 68156,
            "time": 97.11700076041667,
            "velocity": 0.7952755905511811
          },
          {
            "duration": 0.0946067031249953,
            "durationTicks": 66,
            "midi": 40,
            "name": "E2",
            "ticks": 68158,
            "time": 97.11986763020833,
            "velocity": 0.7401574803149606
          },
          {
            "duration": 0.11754166145833267,
            "durationTicks": 82,
            "midi": 52,
            "name": "E3",
            "ticks": 68158,
            "time": 97.11986763020833,
            "velocity": 0.7165354330708661
          },
          {
            "duration": 0.09747357291665537,
            "durationTicks": 68,
            "midi": 47,
            "name": "B2",
            "ticks": 68348,
            "time": 97.39222026041666,
            "velocity": 0.7874015748031497
          },
          {
            "duration": 0.11754166145834688,
            "durationTicks": 82,
            "midi": 40,
            "name": "E2",
            "ticks": 68350,
            "time": 97.39508713020832,
            "velocity": 0.7165354330708661
          },
          {
            "duration": 0.10320731250000392,
            "durationTicks": 72,
            "midi": 40,
            "name": "E2",
            "ticks": 68538,
            "time": 97.664572890625,
            "velocity": 0.7322834645669292
          },
          {
            "duration": 0.10320731250000392,
            "durationTicks": 72,
            "midi": 52,
            "name": "E3",
            "ticks": 68538,
            "time": 97.664572890625,
            "velocity": 0.7086614173228346
          },
          {
            "duration": 0.0946067031249953,
            "durationTicks": 66,
            "midi": 47,
            "name": "B2",
            "ticks": 68540,
            "time": 97.66743976041667,
            "velocity": 0.7874015748031497
          },
          {
            "duration": 0.13187601041667563,
            "durationTicks": 92,
            "midi": 40,
            "name": "E2",
            "ticks": 68730,
            "time": 97.939792390625,
            "velocity": 0.6456692913385826
          },
          {
            "duration": 0.10320731250000392,
            "durationTicks": 72,
            "midi": 47,
            "name": "B2",
            "ticks": 68730,
            "time": 97.939792390625,
            "velocity": 0.7795275590551181
          },
          {
            "duration": 0.12040853124999273,
            "durationTicks": 84,
            "midi": 52,
            "name": "E3",
            "ticks": 68732,
            "time": 97.94265926041668,
            "velocity": 0.7086614173228346
          },
          {
            "duration": 0.09460670312500952,
            "durationTicks": 66,
            "midi": 47,
            "name": "B2",
            "ticks": 68922,
            "time": 98.215011890625,
            "velocity": 0.7874015748031497
          },
          {
            "duration": 0.10607418229166399,
            "durationTicks": 74,
            "midi": 40,
            "name": "E2",
            "ticks": 68924,
            "time": 98.21787876041667,
            "velocity": 0.7480314960629921
          },
          {
            "duration": 0.08887296354167518,
            "durationTicks": 62,
            "midi": 40,
            "name": "E2",
            "ticks": 69114,
            "time": 98.490231390625,
            "velocity": 0.7322834645669292
          },
          {
            "duration": 0.1146747916666726,
            "durationTicks": 80,
            "midi": 52,
            "name": "E3",
            "ticks": 69114,
            "time": 98.490231390625,
            "velocity": 0.7086614173228346
          },
          {
            "duration": 0.08887296354166097,
            "durationTicks": 62,
            "midi": 47,
            "name": "B2",
            "ticks": 69118,
            "time": 98.49596513020833,
            "velocity": 0.8031496062992126
          },
          {
            "duration": 0.06880487499999788,
            "durationTicks": 48,
            "midi": 47,
            "name": "B2",
            "ticks": 69306,
            "time": 98.765450890625,
            "velocity": 0.7716535433070866
          },
          {
            "duration": 0.08027235416666656,
            "durationTicks": 56,
            "midi": 40,
            "name": "E2",
            "ticks": 69308,
            "time": 98.76831776041666,
            "velocity": 0.7165354330708661
          },
          {
            "duration": 0.08027235416666656,
            "durationTicks": 56,
            "midi": 40,
            "name": "E2",
            "ticks": 69402,
            "time": 98.903060640625,
            "velocity": 0.7007874015748031
          },
          {
            "duration": 0.08887296354167518,
            "durationTicks": 62,
            "midi": 47,
            "name": "B2",
            "ticks": 69406,
            "time": 98.90879438020832,
            "velocity": 0.7480314960629921
          },
          {
            "duration": 0.10034044270832965,
            "durationTicks": 70,
            "midi": 40,
            "name": "E2",
            "ticks": 69500,
            "time": 99.04353726041667,
            "velocity": 0.7322834645669292
          },
          {
            "duration": 0.08313922395832662,
            "durationTicks": 58,
            "midi": 47,
            "name": "B2",
            "ticks": 69500,
            "time": 99.04353726041667,
            "velocity": 0.7795275590551181
          },
          {
            "duration": 0.0860060937500009,
            "durationTicks": 60,
            "midi": 47,
            "name": "B2",
            "ticks": 69690,
            "time": 99.315889890625,
            "velocity": 0.7952755905511811
          },
          {
            "duration": 0.11754166145831846,
            "durationTicks": 82,
            "midi": 52,
            "name": "E3",
            "ticks": 69690,
            "time": 99.315889890625,
            "velocity": 0.7165354330708661
          },
          {
            "duration": 0.0946067031249953,
            "durationTicks": 66,
            "midi": 40,
            "name": "E2",
            "ticks": 69692,
            "time": 99.31875676041668,
            "velocity": 0.7401574803149606
          },
          {
            "duration": 0.11754166145833267,
            "durationTicks": 82,
            "midi": 40,
            "name": "E2",
            "ticks": 69882,
            "time": 99.591109390625,
            "velocity": 0.7165354330708661
          },
          {
            "duration": 0.09747357291666958,
            "durationTicks": 68,
            "midi": 47,
            "name": "B2",
            "ticks": 69886,
            "time": 99.59684313020833,
            "velocity": 0.7874015748031497
          },
          {
            "duration": 0.10320731250000392,
            "durationTicks": 72,
            "midi": 40,
            "name": "E2",
            "ticks": 70074,
            "time": 99.866328890625,
            "velocity": 0.7322834645669292
          },
          {
            "duration": 0.0946067031249953,
            "durationTicks": 66,
            "midi": 47,
            "name": "B2",
            "ticks": 70076,
            "time": 99.86919576041667,
            "velocity": 0.7874015748031497
          },
          {
            "duration": 0.10320731250000392,
            "durationTicks": 72,
            "midi": 52,
            "name": "E3",
            "ticks": 70076,
            "time": 99.86919576041667,
            "velocity": 0.7086614173228346
          },
          {
            "duration": 0.10320731250000392,
            "durationTicks": 72,
            "midi": 47,
            "name": "B2",
            "ticks": 70268,
            "time": 100.14441526041666,
            "velocity": 0.7795275590551181
          },
          {
            "duration": 0.13187601041667563,
            "durationTicks": 92,
            "midi": 40,
            "name": "E2",
            "ticks": 70270,
            "time": 100.14728213020832,
            "velocity": 0.6456692913385826
          },
          {
            "duration": 0.12040853125000694,
            "durationTicks": 84,
            "midi": 52,
            "name": "E3",
            "ticks": 70270,
            "time": 100.14728213020832,
            "velocity": 0.7086614173228346
          },
          {
            "duration": 0.10607418229164978,
            "durationTicks": 74,
            "midi": 40,
            "name": "E2",
            "ticks": 70460,
            "time": 100.41963476041667,
            "velocity": 0.7480314960629921
          },
          {
            "duration": 0.0946067031249953,
            "durationTicks": 66,
            "midi": 47,
            "name": "B2",
            "ticks": 70462,
            "time": 100.42250163020833,
            "velocity": 0.7874015748031497
          },
          {
            "duration": 0.08887296354168939,
            "durationTicks": 62,
            "midi": 47,
            "name": "B2",
            "ticks": 90618,
            "time": 129.314815390625,
            "velocity": 0.7795275590551181
          },
          {
            "duration": 0.14621035937500437,
            "durationTicks": 102,
            "midi": 52,
            "name": "E3",
            "ticks": 90618,
            "time": 129.314815390625,
            "velocity": 0.7086614173228346
          },
          {
            "duration": 0.09747357291664116,
            "durationTicks": 68,
            "midi": 40,
            "name": "E2",
            "ticks": 90620,
            "time": 129.3176822604167,
            "velocity": 0.7480314960629921
          },
          {
            "duration": 0.06880487499998367,
            "durationTicks": 48,
            "midi": 47,
            "name": "B2",
            "ticks": 90810,
            "time": 129.59003489062502,
            "velocity": 0.7480314960629921
          },
          {
            "duration": 0.0860060937500009,
            "durationTicks": 60,
            "midi": 40,
            "name": "E2",
            "ticks": 90812,
            "time": 129.59290176041668,
            "velocity": 0.6850393700787402
          },
          {
            "duration": 0.09173983333334945,
            "durationTicks": 64,
            "midi": 47,
            "name": "B2",
            "ticks": 90906,
            "time": 129.727644640625,
            "velocity": 0.7716535433070866
          },
          {
            "duration": 0.08027235416665235,
            "durationTicks": 56,
            "midi": 40,
            "name": "E2",
            "ticks": 90910,
            "time": 129.73337838020834,
            "velocity": 0.7244094488188977
          },
          {
            "duration": 0.10894105208333826,
            "durationTicks": 76,
            "midi": 40,
            "name": "E2",
            "ticks": 91006,
            "time": 129.87098813020833,
            "velocity": 0.6850393700787402
          },
          {
            "duration": 0.09173983333334945,
            "durationTicks": 64,
            "midi": 47,
            "name": "B2",
            "ticks": 91006,
            "time": 129.87098813020833,
            "velocity": 0.7480314960629921
          },
          {
            "duration": 0.08313922395831241,
            "durationTicks": 58,
            "midi": 47,
            "name": "B2",
            "ticks": 91194,
            "time": 130.140473890625,
            "velocity": 0.7637795275590551
          },
          {
            "duration": 0.08887296354166097,
            "durationTicks": 62,
            "midi": 40,
            "name": "E2",
            "ticks": 91196,
            "time": 130.14334076041666,
            "velocity": 0.7244094488188977
          },
          {
            "duration": 0.12327540104166701,
            "durationTicks": 86,
            "midi": 52,
            "name": "E3",
            "ticks": 91196,
            "time": 130.14334076041666,
            "velocity": 0.7086614173228346
          },
          {
            "duration": 0.09173983333332103,
            "durationTicks": 64,
            "midi": 47,
            "name": "B2",
            "ticks": 91388,
            "time": 130.41856026041668,
            "velocity": 0.7874015748031497
          },
          {
            "duration": 0.11754166145834688,
            "durationTicks": 82,
            "midi": 40,
            "name": "E2",
            "ticks": 91390,
            "time": 130.42142713020831,
            "velocity": 0.6850393700787402
          },
          {
            "duration": 0.09460670312500952,
            "durationTicks": 66,
            "midi": 40,
            "name": "E2",
            "ticks": 91578,
            "time": 130.690912890625,
            "velocity": 0.7086614173228346
          },
          {
            "duration": 0.10607418229164978,
            "durationTicks": 74,
            "midi": 52,
            "name": "E3",
            "ticks": 91580,
            "time": 130.69377976041667,
            "velocity": 0.7007874015748031
          },
          {
            "duration": 0.0860060937500009,
            "durationTicks": 60,
            "midi": 47,
            "name": "B2",
            "ticks": 91582,
            "time": 130.69664663020833,
            "velocity": 0.7637795275590551
          },
          {
            "duration": 0.10894105208330984,
            "durationTicks": 76,
            "midi": 40,
            "name": "E2",
            "ticks": 91770,
            "time": 130.966132390625,
            "velocity": 0.6692913385826772
          },
          {
            "duration": 0.09173983333332103,
            "durationTicks": 64,
            "midi": 47,
            "name": "B2",
            "ticks": 91772,
            "time": 130.96899926041667,
            "velocity": 0.7716535433070866
          },
          {
            "duration": 0.1318760104166472,
            "durationTicks": 92,
            "midi": 52,
            "name": "E3",
            "ticks": 91772,
            "time": 130.96899926041667,
            "velocity": 0.7086614173228346
          },
          {
            "duration": 0.08887296354166097,
            "durationTicks": 62,
            "midi": 40,
            "name": "E2",
            "ticks": 91962,
            "time": 131.241351890625,
            "velocity": 0.7165354330708661
          },
          {
            "duration": 0.08027235416668077,
            "durationTicks": 56,
            "midi": 47,
            "name": "B2",
            "ticks": 91962,
            "time": 131.241351890625,
            "velocity": 0.7716535433070866
          },
          {
            "duration": 0.10894105208330984,
            "durationTicks": 76,
            "midi": 40,
            "name": "E2",
            "ticks": 92156,
            "time": 131.51943826041668,
            "velocity": 0.6850393700787402
          },
          {
            "duration": 0.09173983333332103,
            "durationTicks": 64,
            "midi": 47,
            "name": "B2",
            "ticks": 92156,
            "time": 131.51943826041668,
            "velocity": 0.7795275590551181
          },
          {
            "duration": 0.14047661979165582,
            "durationTicks": 98,
            "midi": 52,
            "name": "E3",
            "ticks": 92158,
            "time": 131.52230513020834,
            "velocity": 0.7086614173228346
          },
          {
            "duration": 0.07453861458333222,
            "durationTicks": 52,
            "midi": 40,
            "name": "E2",
            "ticks": 92350,
            "time": 131.79752463020833,
            "velocity": 0.6850393700787402
          },
          {
            "duration": 0.07167174479167215,
            "durationTicks": 50,
            "midi": 47,
            "name": "B2",
            "ticks": 92350,
            "time": 131.79752463020833,
            "velocity": 0.7007874015748031
          },
          {
            "duration": 0.08313922395834084,
            "durationTicks": 58,
            "midi": 47,
            "name": "B2",
            "ticks": 92444,
            "time": 131.93226751041666,
            "velocity": 0.7244094488188977
          },
          {
            "duration": 0.11754166145834688,
            "durationTicks": 82,
            "midi": 40,
            "name": "E2",
            "ticks": 92446,
            "time": 131.93513438020832,
            "velocity": 0.6692913385826772
          },
          {
            "duration": 0.0774054843750207,
            "durationTicks": 54,
            "midi": 47,
            "name": "B2",
            "ticks": 92540,
            "time": 132.06987726041666,
            "velocity": 0.7716535433070866
          },
          {
            "duration": 0.0860060937500009,
            "durationTicks": 60,
            "midi": 40,
            "name": "E2",
            "ticks": 92542,
            "time": 132.07274413020832,
            "velocity": 0.6692913385826772
          },
          {
            "duration": 0.09173983333332103,
            "durationTicks": 64,
            "midi": 47,
            "name": "B2",
            "ticks": 92730,
            "time": 132.342229890625,
            "velocity": 0.7716535433070866
          },
          {
            "duration": 0.12614227083332707,
            "durationTicks": 88,
            "midi": 52,
            "name": "E3",
            "ticks": 92732,
            "time": 132.34509676041668,
            "velocity": 0.7007874015748031
          },
          {
            "duration": 0.10894105208333826,
            "durationTicks": 76,
            "midi": 40,
            "name": "E2",
            "ticks": 92734,
            "time": 132.34796363020834,
            "velocity": 0.6850393700787402
          },
          {
            "duration": 0.09173983333334945,
            "durationTicks": 64,
            "midi": 40,
            "name": "E2",
            "ticks": 92926,
            "time": 132.62318313020833,
            "velocity": 0.7322834645669292
          },
          {
            "duration": 0.08027235416668077,
            "durationTicks": 56,
            "midi": 47,
            "name": "B2",
            "ticks": 92926,
            "time": 132.62318313020833,
            "velocity": 0.7637795275590551
          },
          {
            "duration": 0.11754166145831846,
            "durationTicks": 82,
            "midi": 40,
            "name": "E2",
            "ticks": 93114,
            "time": 132.892668890625,
            "velocity": 0.6377952755905512
          },
          {
            "duration": 0.08887296354166097,
            "durationTicks": 62,
            "midi": 47,
            "name": "B2",
            "ticks": 93116,
            "time": 132.89553576041666,
            "velocity": 0.7716535433070866
          },
          {
            "duration": 0.10034044270835807,
            "durationTicks": 70,
            "midi": 52,
            "name": "E3",
            "ticks": 93118,
            "time": 132.89840263020832,
            "velocity": 0.7007874015748031
          },
          {
            "duration": 0.097473572916698,
            "durationTicks": 68,
            "midi": 40,
            "name": "E2",
            "ticks": 93310,
            "time": 133.17362213020832,
            "velocity": 0.7401574803149606
          },
          {
            "duration": 0.0860060937500009,
            "durationTicks": 60,
            "midi": 47,
            "name": "B2",
            "ticks": 93310,
            "time": 133.17362213020832,
            "velocity": 0.7716535433070866
          },
          {
            "duration": 0.12900914062501556,
            "durationTicks": 90,
            "midi": 52,
            "name": "E3",
            "ticks": 93310,
            "time": 133.17362213020832,
            "velocity": 0.7007874015748031
          },
          {
            "duration": 0.12327540104163859,
            "durationTicks": 86,
            "midi": 40,
            "name": "E2",
            "ticks": 93500,
            "time": 133.44597476041668,
            "velocity": 0.6850393700787402
          },
          {
            "duration": 0.10034044270832965,
            "durationTicks": 70,
            "midi": 47,
            "name": "B2",
            "ticks": 93502,
            "time": 133.44884163020834,
            "velocity": 0.7952755905511811
          },
          {
            "duration": 0.09173983333332103,
            "durationTicks": 64,
            "midi": 40,
            "name": "E2",
            "ticks": 93690,
            "time": 133.718327390625,
            "velocity": 0.7480314960629921
          },
          {
            "duration": 0.14907722916666444,
            "durationTicks": 104,
            "midi": 52,
            "name": "E3",
            "ticks": 93690,
            "time": 133.718327390625,
            "velocity": 0.7007874015748031
          },
          {
            "duration": 0.0860060937500009,
            "durationTicks": 60,
            "midi": 47,
            "name": "B2",
            "ticks": 93694,
            "time": 133.72406113020833,
            "velocity": 0.7795275590551181
          },
          {
            "duration": 0.08887296354166097,
            "durationTicks": 62,
            "midi": 40,
            "name": "E2",
            "ticks": 93882,
            "time": 133.993546890625,
            "velocity": 0.6850393700787402
          },
          {
            "duration": 0.08313922395834084,
            "durationTicks": 58,
            "midi": 47,
            "name": "B2",
            "ticks": 93886,
            "time": 133.99928063020832,
            "velocity": 0.7480314960629921
          },
          {
            "duration": 0.0774054843750207,
            "durationTicks": 54,
            "midi": 40,
            "name": "E2",
            "ticks": 93982,
            "time": 134.1368903802083,
            "velocity": 0.7244094488188977
          },
          {
            "duration": 0.08887296354168939,
            "durationTicks": 62,
            "midi": 47,
            "name": "B2",
            "ticks": 93982,
            "time": 134.1368903802083,
            "velocity": 0.7401574803149606
          },
          {
            "duration": 0.08313922395831241,
            "durationTicks": 58,
            "midi": 47,
            "name": "B2",
            "ticks": 94076,
            "time": 134.27163326041668,
            "velocity": 0.7165354330708661
          },
          {
            "duration": 0.10607418229164978,
            "durationTicks": 74,
            "midi": 40,
            "name": "E2",
            "ticks": 94078,
            "time": 134.27450013020834,
            "velocity": 0.6850393700787402
          },
          {
            "duration": 0.0860060937500009,
            "durationTicks": 60,
            "midi": 47,
            "name": "B2",
            "ticks": 94266,
            "time": 134.543985890625,
            "velocity": 0.7322834645669292
          },
          {
            "duration": 0.08887296354166097,
            "durationTicks": 62,
            "midi": 40,
            "name": "E2",
            "ticks": 94268,
            "time": 134.54685276041667,
            "velocity": 0.7322834645669292
          },
          {
            "duration": 0.1347428802083357,
            "durationTicks": 94,
            "midi": 52,
            "name": "E3",
            "ticks": 94270,
            "time": 134.54971963020833,
            "velocity": 0.7086614173228346
          },
          {
            "duration": 0.09460670312500952,
            "durationTicks": 66,
            "midi": 47,
            "name": "B2",
            "ticks": 94458,
            "time": 134.819205390625,
            "velocity": 0.7716535433070866
          },
          {
            "duration": 0.11754166145834688,
            "durationTicks": 82,
            "midi": 40,
            "name": "E2",
            "ticks": 94462,
            "time": 134.82493913020832,
            "velocity": 0.7165354330708661
          },
          {
            "duration": 0.10894105208333826,
            "durationTicks": 76,
            "midi": 52,
            "name": "E3",
            "ticks": 94650,
            "time": 135.094424890625,
            "velocity": 0.7007874015748031
          },
          {
            "duration": 0.0946067031249811,
            "durationTicks": 66,
            "midi": 40,
            "name": "E2",
            "ticks": 94652,
            "time": 135.09729176041668,
            "velocity": 0.7165354330708661
          },
          {
            "duration": 0.0860060937500009,
            "durationTicks": 60,
            "midi": 47,
            "name": "B2",
            "ticks": 94652,
            "time": 135.09729176041668,
            "velocity": 0.7637795275590551
          },
          {
            "duration": 0.11754166145831846,
            "durationTicks": 82,
            "midi": 40,
            "name": "E2",
            "ticks": 94842,
            "time": 135.369644390625,
            "velocity": 0.7244094488188977
          },
          {
            "duration": 0.10034044270832965,
            "durationTicks": 70,
            "midi": 47,
            "name": "B2",
            "ticks": 94844,
            "time": 135.37251126041667,
            "velocity": 0.7795275590551181
          },
          {
            "duration": 0.12040853125000694,
            "durationTicks": 84,
            "midi": 52,
            "name": "E3",
            "ticks": 94846,
            "time": 135.37537813020833,
            "velocity": 0.7086614173228346
          },
          {
            "duration": 0.09173983333332103,
            "durationTicks": 64,
            "midi": 40,
            "name": "E2",
            "ticks": 95034,
            "time": 135.644863890625,
            "velocity": 0.7244094488188977
          },
          {
            "duration": 0.0860060937500009,
            "durationTicks": 60,
            "midi": 47,
            "name": "B2",
            "ticks": 95038,
            "time": 135.65059763020832,
            "velocity": 0.7795275590551181
          },
          {
            "duration": 0.14621035937497595,
            "durationTicks": 102,
            "midi": 52,
            "name": "E3",
            "ticks": 95228,
            "time": 135.92295026041668,
            "velocity": 0.7086614173228346
          },
          {
            "duration": 0.11754166145834688,
            "durationTicks": 82,
            "midi": 40,
            "name": "E2",
            "ticks": 95230,
            "time": 135.92581713020832,
            "velocity": 0.7165354330708661
          },
          {
            "duration": 0.08887296354168939,
            "durationTicks": 62,
            "midi": 47,
            "name": "B2",
            "ticks": 95230,
            "time": 135.92581713020832,
            "velocity": 0.7637795275590551
          },
          {
            "duration": 0.05733739583334341,
            "durationTicks": 40,
            "midi": 40,
            "name": "E2",
            "ticks": 95418,
            "time": 136.195302890625,
            "velocity": 0.6220472440944882
          },
          {
            "duration": 0.0659380052083236,
            "durationTicks": 46,
            "midi": 47,
            "name": "B2",
            "ticks": 95422,
            "time": 136.20103663020834,
            "velocity": 0.7086614173228346
          },
          {
            "duration": 0.08027235416665235,
            "durationTicks": 56,
            "midi": 47,
            "name": "B2",
            "ticks": 95516,
            "time": 136.33577951041667,
            "velocity": 0.7322834645669292
          },
          {
            "duration": 0.12327540104166701,
            "durationTicks": 86,
            "midi": 40,
            "name": "E2",
            "ticks": 95518,
            "time": 136.33864638020833,
            "velocity": 0.6771653543307087
          },
          {
            "duration": 0.07740548437499228,
            "durationTicks": 54,
            "midi": 47,
            "name": "B2",
            "ticks": 95610,
            "time": 136.470522390625,
            "velocity": 0.7480314960629921
          },
          {
            "duration": 0.10320731249998971,
            "durationTicks": 72,
            "midi": 40,
            "name": "E2",
            "ticks": 95614,
            "time": 136.47625613020833,
            "velocity": 0.6850393700787402
          },
          {
            "duration": 0.09747357291666958,
            "durationTicks": 68,
            "midi": 47,
            "name": "B2",
            "ticks": 95802,
            "time": 136.745741890625,
            "velocity": 0.7795275590551181
          },
          {
            "duration": 0.11180792187502675,
            "durationTicks": 78,
            "midi": 40,
            "name": "E2",
            "ticks": 95804,
            "time": 136.74860876041666,
            "velocity": 0.7165354330708661
          },
          {
            "duration": 0.13760974999999576,
            "durationTicks": 96,
            "midi": 52,
            "name": "E3",
            "ticks": 95806,
            "time": 136.75147563020832,
            "velocity": 0.7086614173228346
          },
          {
            "duration": 0.0860060937500009,
            "durationTicks": 60,
            "midi": 40,
            "name": "E2",
            "ticks": 95998,
            "time": 137.02669513020834,
            "velocity": 0.7322834645669292
          },
          {
            "duration": 0.0860060937500009,
            "durationTicks": 60,
            "midi": 47,
            "name": "B2",
            "ticks": 95998,
            "time": 137.02669513020834,
            "velocity": 0.7795275590551181
          },
          {
            "duration": 0.11180792187499833,
            "durationTicks": 78,
            "midi": 40,
            "name": "E2",
            "ticks": 96188,
            "time": 137.29904776041667,
            "velocity": 0.6850393700787402
          },
          {
            "duration": 0.09460670312500952,
            "durationTicks": 66,
            "midi": 47,
            "name": "B2",
            "ticks": 96190,
            "time": 137.30191463020833,
            "velocity": 0.7795275590551181
          },
          {
            "duration": 0.1060741822916782,
            "durationTicks": 74,
            "midi": 52,
            "name": "E3",
            "ticks": 96190,
            "time": 137.30191463020833,
            "velocity": 0.7165354330708661
          },
          {
            "duration": 0.08313922395831241,
            "durationTicks": 58,
            "midi": 40,
            "name": "E2",
            "ticks": 96378,
            "time": 137.571400390625,
            "velocity": 0.7244094488188977
          },
          {
            "duration": 0.12614227083332707,
            "durationTicks": 88,
            "midi": 52,
            "name": "E3",
            "ticks": 96380,
            "time": 137.57426726041666,
            "velocity": 0.7165354330708661
          },
          {
            "duration": 0.0860060937500009,
            "durationTicks": 60,
            "midi": 47,
            "name": "B2",
            "ticks": 96382,
            "time": 137.57713413020832,
            "velocity": 0.7952755905511811
          },
          {
            "duration": 0.1060741822916782,
            "durationTicks": 74,
            "midi": 47,
            "name": "B2",
            "ticks": 96570,
            "time": 137.846619890625,
            "velocity": 0.7795275590551181
          },
          {
            "duration": 0.11180792187499833,
            "durationTicks": 78,
            "midi": 40,
            "name": "E2",
            "ticks": 96572,
            "time": 137.84948676041668,
            "velocity": 0.6850393700787402
          },
          {
            "duration": 0.08600609374997248,
            "durationTicks": 60,
            "midi": 52,
            "name": "E3",
            "ticks": 96762,
            "time": 138.121839390625,
            "velocity": 0.6220472440944882
          },
          {
            "duration": 0.09173983333332103,
            "durationTicks": 64,
            "midi": 45,
            "name": "A2",
            "ticks": 96764,
            "time": 138.12470626041667,
            "velocity": 0.7007874015748031
          },
          {
            "duration": 0.14047661979165582,
            "durationTicks": 98,
            "midi": 57,
            "name": "A3",
            "ticks": 96764,
            "time": 138.12470626041667,
            "velocity": 0.7086614173228346
          },
          {
            "duration": 0.07740548437499228,
            "durationTicks": 54,
            "midi": 52,
            "name": "E3",
            "ticks": 96954,
            "time": 138.397058890625,
            "velocity": 0.6850393700787402
          },
          {
            "duration": 0.08313922395834084,
            "durationTicks": 58,
            "midi": 45,
            "name": "A2",
            "ticks": 96958,
            "time": 138.40279263020832,
            "velocity": 0.6299212598425197
          },
          {
            "duration": 0.09173983333334945,
            "durationTicks": 64,
            "midi": 45,
            "name": "A2",
            "ticks": 97052,
            "time": 138.53753551041666,
            "velocity": 0.6850393700787402
          },
          {
            "duration": 0.09747357291666958,
            "durationTicks": 68,
            "midi": 52,
            "name": "E3",
            "ticks": 97052,
            "time": 138.53753551041666,
            "velocity": 0.6299212598425197
          },
          {
            "duration": 0.1060741822916782,
            "durationTicks": 74,
            "midi": 45,
            "name": "A2",
            "ticks": 97146,
            "time": 138.672278390625,
            "velocity": 0.7086614173228346
          },
          {
            "duration": 0.0946067031249811,
            "durationTicks": 66,
            "midi": 52,
            "name": "E3",
            "ticks": 97148,
            "time": 138.67514526041668,
            "velocity": 0.6850393700787402
          },
          {
            "duration": 0.09747357291664116,
            "durationTicks": 68,
            "midi": 52,
            "name": "E3",
            "ticks": 97340,
            "time": 138.95036476041668,
            "velocity": 0.7165354330708661
          },
          {
            "duration": 0.12900914062498714,
            "durationTicks": 90,
            "midi": 57,
            "name": "A3",
            "ticks": 97340,
            "time": 138.95036476041668,
            "velocity": 0.7007874015748031
          },
          {
            "duration": 0.09173983333332103,
            "durationTicks": 64,
            "midi": 45,
            "name": "A2",
            "ticks": 97342,
            "time": 138.95323163020834,
            "velocity": 0.7007874015748031
          },
          {
            "duration": 0.11180792187499833,
            "durationTicks": 78,
            "midi": 45,
            "name": "A2",
            "ticks": 97530,
            "time": 139.222717390625,
            "velocity": 0.7007874015748031
          },
          {
            "duration": 0.10320731249998971,
            "durationTicks": 72,
            "midi": 52,
            "name": "E3",
            "ticks": 97532,
            "time": 139.22558426041667,
            "velocity": 0.7480314960629921
          },
          {
            "duration": 0.08887296354166097,
            "durationTicks": 62,
            "midi": 45,
            "name": "A2",
            "ticks": 97724,
            "time": 139.50080376041666,
            "velocity": 0.7086614173228346
          },
          {
            "duration": 0.09460670312500952,
            "durationTicks": 66,
            "midi": 52,
            "name": "E3",
            "ticks": 97724,
            "time": 139.50080376041666,
            "velocity": 0.7401574803149606
          },
          {
            "duration": 0.10320731250001813,
            "durationTicks": 72,
            "midi": 57,
            "name": "A3",
            "ticks": 97726,
            "time": 139.50367063020832,
            "velocity": 0.6929133858267716
          },
          {
            "duration": 0.10320731250001813,
            "durationTicks": 72,
            "midi": 52,
            "name": "E3",
            "ticks": 97914,
            "time": 139.773156390625,
            "velocity": 0.7401574803149606
          },
          {
            "duration": 0.11180792187499833,
            "durationTicks": 78,
            "midi": 45,
            "name": "A2",
            "ticks": 97916,
            "time": 139.77602326041668,
            "velocity": 0.6850393700787402
          },
          {
            "duration": 0.12040853124997852,
            "durationTicks": 84,
            "midi": 57,
            "name": "A3",
            "ticks": 97916,
            "time": 139.77602326041668,
            "velocity": 0.6929133858267716
          },
          {
            "duration": 0.08027235416665235,
            "durationTicks": 56,
            "midi": 52,
            "name": "E3",
            "ticks": 98108,
            "time": 140.05124276041667,
            "velocity": 0.7244094488188977
          },
          {
            "duration": 0.08027235416668077,
            "durationTicks": 56,
            "midi": 45,
            "name": "A2",
            "ticks": 98110,
            "time": 140.05410963020833,
            "velocity": 0.7086614173228346
          },
          {
            "duration": 0.10034044270835807,
            "durationTicks": 70,
            "midi": 45,
            "name": "A2",
            "ticks": 98302,
            "time": 140.32932913020832,
            "velocity": 0.7007874015748031
          },
          {
            "duration": 0.10320731250001813,
            "durationTicks": 72,
            "midi": 52,
            "name": "E3",
            "ticks": 98302,
            "time": 140.32932913020832,
            "velocity": 0.7322834645669292
          },
          {
            "duration": 0.1347428802083357,
            "durationTicks": 94,
            "midi": 57,
            "name": "A3",
            "ticks": 98302,
            "time": 140.32932913020832,
            "velocity": 0.6929133858267716
          },
          {
            "duration": 0.08027235416668077,
            "durationTicks": 56,
            "midi": 52,
            "name": "E3",
            "ticks": 98490,
            "time": 140.598814890625,
            "velocity": 0.6535433070866141
          },
          {
            "duration": 0.05733739583337183,
            "durationTicks": 40,
            "midi": 45,
            "name": "A2",
            "ticks": 98494,
            "time": 140.6045486302083,
            "velocity": 0.6220472440944882
          },
          {
            "duration": 0.09747357291666958,
            "durationTicks": 68,
            "midi": 45,
            "name": "A2",
            "ticks": 98586,
            "time": 140.736424640625,
            "velocity": 0.6850393700787402
          },
          {
            "duration": 0.10034044270832965,
            "durationTicks": 70,
            "midi": 52,
            "name": "E3",
            "ticks": 98590,
            "time": 140.74215838020834,
            "velocity": 0.6850393700787402
          },
          {
            "duration": 0.08887296354166097,
            "durationTicks": 62,
            "midi": 52,
            "name": "E3",
            "ticks": 98682,
            "time": 140.874034390625,
            "velocity": 0.7007874015748031
          },
          {
            "duration": 0.0860060937500009,
            "durationTicks": 60,
            "midi": 45,
            "name": "A2",
            "ticks": 98684,
            "time": 140.87690126041667,
            "velocity": 0.7322834645669292
          },
          {
            "duration": 0.12040853125000694,
            "durationTicks": 84,
            "midi": 57,
            "name": "A3",
            "ticks": 98874,
            "time": 141.149253890625,
            "velocity": 0.7007874015748031
          },
          {
            "duration": 0.09747357291666958,
            "durationTicks": 68,
            "midi": 52,
            "name": "E3",
            "ticks": 98876,
            "time": 141.15212076041666,
            "velocity": 0.7165354330708661
          },
          {
            "duration": 0.09747357291666958,
            "durationTicks": 68,
            "midi": 45,
            "name": "A2",
            "ticks": 98878,
            "time": 141.15498763020832,
            "velocity": 0.6456692913385826
          },
          {
            "duration": 0.08313922395834084,
            "durationTicks": 58,
            "midi": 52,
            "name": "E3",
            "ticks": 99066,
            "time": 141.424473390625,
            "velocity": 0.7244094488188977
          },
          {
            "duration": 0.06880487500001209,
            "durationTicks": 48,
            "midi": 45,
            "name": "A2",
            "ticks": 99070,
            "time": 141.43020713020832,
            "velocity": 0.6692913385826772
          },
          {
            "duration": 0.10607418229164978,
            "durationTicks": 74,
            "midi": 45,
            "name": "A2",
            "ticks": 99260,
            "time": 141.70255976041668,
            "velocity": 0.6850393700787402
          },
          {
            "duration": 0.0946067031249811,
            "durationTicks": 66,
            "midi": 57,
            "name": "A3",
            "ticks": 99260,
            "time": 141.70255976041668,
            "velocity": 0.7007874015748031
          },
          {
            "duration": 0.10034044270832965,
            "durationTicks": 70,
            "midi": 52,
            "name": "E3",
            "ticks": 99262,
            "time": 141.70542663020834,
            "velocity": 0.7244094488188977
          },
          {
            "duration": 0.0860060937500009,
            "durationTicks": 60,
            "midi": 52,
            "name": "E3",
            "ticks": 99450,
            "time": 141.974912390625,
            "velocity": 0.7322834645669292
          },
          {
            "duration": 0.12327540104166701,
            "durationTicks": 86,
            "midi": 57,
            "name": "A3",
            "ticks": 99450,
            "time": 141.974912390625,
            "velocity": 0.7007874015748031
          },
          {
            "duration": 0.07453861458333222,
            "durationTicks": 52,
            "midi": 45,
            "name": "A2",
            "ticks": 99454,
            "time": 141.98064613020833,
            "velocity": 0.6377952755905512
          },
          {
            "duration": 0.08887296354166097,
            "durationTicks": 62,
            "midi": 52,
            "name": "E3",
            "ticks": 99642,
            "time": 142.250131890625,
            "velocity": 0.7401574803149606
          },
          {
            "duration": 0.09747357291666958,
            "durationTicks": 68,
            "midi": 45,
            "name": "A2",
            "ticks": 99646,
            "time": 142.25586563020832,
            "velocity": 0.7401574803149606
          },
          {
            "duration": 0.08600609374997248,
            "durationTicks": 60,
            "midi": 40,
            "name": "E2",
            "ticks": 99836,
            "time": 142.52821826041668,
            "velocity": 0.7165354330708661
          },
          {
            "duration": 0.13760974999996733,
            "durationTicks": 96,
            "midi": 52,
            "name": "E3",
            "ticks": 99836,
            "time": 142.52821826041668,
            "velocity": 0.7007874015748031
          },
          {
            "duration": 0.08313922395831241,
            "durationTicks": 58,
            "midi": 47,
            "name": "B2",
            "ticks": 99838,
            "time": 142.53108513020834,
            "velocity": 0.7637795275590551
          },
          {
            "duration": 0.08027235416668077,
            "durationTicks": 56,
            "midi": 40,
            "name": "E2",
            "ticks": 100030,
            "time": 142.80630463020833,
            "velocity": 0.6692913385826772
          },
          {
            "duration": 0.05447052604165492,
            "durationTicks": 38,
            "midi": 47,
            "name": "B2",
            "ticks": 100030,
            "time": 142.80630463020833,
            "velocity": 0.7244094488188977
          },
          {
            "duration": 0.08027235416665235,
            "durationTicks": 56,
            "midi": 40,
            "name": "E2",
            "ticks": 100122,
            "time": 142.938180640625,
            "velocity": 0.6850393700787402
          },
          {
            "duration": 0.0860060937500009,
            "durationTicks": 60,
            "midi": 47,
            "name": "B2",
            "ticks": 100122,
            "time": 142.938180640625,
            "velocity": 0.7322834645669292
          },
          {
            "duration": 0.10894105208330984,
            "durationTicks": 76,
            "midi": 40,
            "name": "E2",
            "ticks": 100222,
            "time": 143.08152413020835,
            "velocity": 0.7086614173228346
          },
          {
            "duration": 0.07740548437499228,
            "durationTicks": 54,
            "midi": 47,
            "name": "B2",
            "ticks": 100222,
            "time": 143.08152413020835,
            "velocity": 0.7401574803149606
          },
          {
            "duration": 0.08313922395834084,
            "durationTicks": 58,
            "midi": 40,
            "name": "E2",
            "ticks": 100410,
            "time": 143.351009890625,
            "velocity": 0.7244094488188977
          },
          {
            "duration": 0.0860060937500009,
            "durationTicks": 60,
            "midi": 47,
            "name": "B2",
            "ticks": 100412,
            "time": 143.35387676041665,
            "velocity": 0.7716535433070866
          },
          {
            "duration": 0.1318760104166472,
            "durationTicks": 92,
            "midi": 52,
            "name": "E3",
            "ticks": 100414,
            "time": 143.35674363020834,
            "velocity": 0.7165354330708661
          },
          {
            "duration": 0.10894105208336669,
            "durationTicks": 76,
            "midi": 40,
            "name": "E2",
            "ticks": 100604,
            "time": 143.62909626041665,
            "velocity": 0.6850393700787402
          },
          {
            "duration": 0.09173983333334945,
            "durationTicks": 64,
            "midi": 47,
            "name": "B2",
            "ticks": 100604,
            "time": 143.62909626041665,
            "velocity": 0.7637795275590551
          },
          {
            "duration": 0.0860060937500009,
            "durationTicks": 60,
            "midi": 40,
            "name": "E2",
            "ticks": 100794,
            "time": 143.901448890625,
            "velocity": 0.7007874015748031
          },
          {
            "duration": 0.08887296354166097,
            "durationTicks": 62,
            "midi": 47,
            "name": "B2",
            "ticks": 100794,
            "time": 143.901448890625,
            "velocity": 0.7795275590551181
          },
          {
            "duration": 0.11180792187499833,
            "durationTicks": 78,
            "midi": 52,
            "name": "E3",
            "ticks": 100796,
            "time": 143.90431576041667,
            "velocity": 0.6929133858267716
          },
          {
            "duration": 0.09460670312500952,
            "durationTicks": 66,
            "midi": 47,
            "name": "B2",
            "ticks": 100986,
            "time": 144.176668390625,
            "velocity": 0.7716535433070866
          },
          {
            "duration": 0.10607418229164978,
            "durationTicks": 74,
            "midi": 40,
            "name": "E2",
            "ticks": 100990,
            "time": 144.18240213020835,
            "velocity": 0.6850393700787402
          },
          {
            "duration": 0.13474288020830727,
            "durationTicks": 94,
            "midi": 52,
            "name": "E3",
            "ticks": 100990,
            "time": 144.18240213020835,
            "velocity": 0.7165354330708661
          },
          {
            "duration": 0.08313922395834084,
            "durationTicks": 58,
            "midi": 47,
            "name": "B2",
            "ticks": 101178,
            "time": 144.451887890625,
            "velocity": 0.7637795275590551
          },
          {
            "duration": 0.08313922395834084,
            "durationTicks": 58,
            "midi": 40,
            "name": "E2",
            "ticks": 101180,
            "time": 144.45475476041665,
            "velocity": 0.7086614173228346
          },
          {
            "duration": 0.0860060937500009,
            "durationTicks": 60,
            "midi": 40,
            "name": "E2",
            "ticks": 101370,
            "time": 144.727107390625,
            "velocity": 0.7086614173228346
          },
          {
            "duration": 0.08313922395834084,
            "durationTicks": 58,
            "midi": 47,
            "name": "B2",
            "ticks": 101372,
            "time": 144.72997426041667,
            "velocity": 0.7795275590551181
          },
          {
            "duration": 0.15194409895829608,
            "durationTicks": 106,
            "midi": 52,
            "name": "E3",
            "ticks": 101374,
            "time": 144.73284113020836,
            "velocity": 0.7007874015748031
          },
          {
            "duration": 0.07453861458333222,
            "durationTicks": 52,
            "midi": 47,
            "name": "B2",
            "ticks": 101562,
            "time": 145.002326890625,
            "velocity": 0.7401574803149606
          },
          {
            "duration": 0.07740548437499228,
            "durationTicks": 54,
            "midi": 40,
            "name": "E2",
            "ticks": 101566,
            "time": 145.00806063020835,
            "velocity": 0.6535433070866141
          },
          {
            "duration": 0.07740548437499228,
            "durationTicks": 54,
            "midi": 40,
            "name": "E2",
            "ticks": 101660,
            "time": 145.14280351041666,
            "velocity": 0.6850393700787402
          },
          {
            "duration": 0.08887296354166097,
            "durationTicks": 62,
            "midi": 47,
            "name": "B2",
            "ticks": 101662,
            "time": 145.14567038020834,
            "velocity": 0.7480314960629921
          },
          {
            "duration": 0.0860060937500009,
            "durationTicks": 60,
            "midi": 47,
            "name": "B2",
            "ticks": 101754,
            "time": 145.277546390625,
            "velocity": 0.7716535433070866
          },
          {
            "duration": 0.1146747916666584,
            "durationTicks": 80,
            "midi": 40,
            "name": "E2",
            "ticks": 101758,
            "time": 145.28328013020834,
            "velocity": 0.6771653543307087
          },
          {
            "duration": 0.08027235416665235,
            "durationTicks": 56,
            "midi": 47,
            "name": "B2",
            "ticks": 101946,
            "time": 145.552765890625,
            "velocity": 0.7637795275590551
          },
          {
            "duration": 0.13187601041670405,
            "durationTicks": 92,
            "midi": 52,
            "name": "E3",
            "ticks": 101948,
            "time": 145.55563276041664,
            "velocity": 0.7007874015748031
          },
          {
            "duration": 0.0860060937500009,
            "durationTicks": 60,
            "midi": 40,
            "name": "E2",
            "ticks": 101950,
            "time": 145.55849963020833,
            "velocity": 0.6850393700787402
          },
          {
            "duration": 0.09173983333334945,
            "durationTicks": 64,
            "midi": 47,
            "name": "B2",
            "ticks": 102140,
            "time": 145.83085226041666,
            "velocity": 0.7716535433070866
          },
          {
            "duration": 0.10894105208330984,
            "durationTicks": 76,
            "midi": 40,
            "name": "E2",
            "ticks": 102142,
            "time": 145.83371913020835,
            "velocity": 0.6614173228346457
          },
          {
            "duration": 0.10034044270835807,
            "durationTicks": 70,
            "midi": 52,
            "name": "E3",
            "ticks": 102330,
            "time": 146.103204890625,
            "velocity": 0.7007874015748031
          },
          {
            "duration": 0.08027235416668077,
            "durationTicks": 56,
            "midi": 47,
            "name": "B2",
            "ticks": 102332,
            "time": 146.10607176041665,
            "velocity": 0.7480314960629921
          },
          {
            "duration": 0.09173983333332103,
            "durationTicks": 64,
            "midi": 40,
            "name": "E2",
            "ticks": 102334,
            "time": 146.10893863020834,
            "velocity": 0.7165354330708661
          },
          {
            "duration": 0.12040853125000694,
            "durationTicks": 84,
            "midi": 52,
            "name": "E3",
            "ticks": 102522,
            "time": 146.37842439062499,
            "velocity": 0.7007874015748031
          },
          {
            "duration": 0.097473572916698,
            "durationTicks": 68,
            "midi": 47,
            "name": "B2",
            "ticks": 102524,
            "time": 146.38129126041665,
            "velocity": 0.7716535433070866
          },
          {
            "duration": 0.1146747916666584,
            "durationTicks": 80,
            "midi": 40,
            "name": "E2",
            "ticks": 102526,
            "time": 146.38415813020833,
            "velocity": 0.6771653543307087
          },
          {
            "duration": 0.0946067031249811,
            "durationTicks": 66,
            "midi": 40,
            "name": "E2",
            "ticks": 102714,
            "time": 146.653643890625,
            "velocity": 0.6850393700787402
          },
          {
            "duration": 0.08313922395831241,
            "durationTicks": 58,
            "midi": 47,
            "name": "B2",
            "ticks": 102718,
            "time": 146.65937763020835,
            "velocity": 0.7637795275590551
          },
          {
            "duration": 0.12900914062501556,
            "durationTicks": 90,
            "midi": 59,
            "name": "B3",
            "ticks": 102906,
            "time": 146.928863390625,
            "velocity": 0.7086614173228346
          },
          {
            "duration": 0.09173983333334945,
            "durationTicks": 64,
            "midi": 47,
            "name": "B2",
            "ticks": 102908,
            "time": 146.93173026041666,
            "velocity": 0.7952755905511811
          },
          {
            "duration": 0.0860060937500009,
            "durationTicks": 60,
            "midi": 54,
            "name": "F#3",
            "ticks": 102910,
            "time": 146.93459713020835,
            "velocity": 0.7716535433070866
          },
          {
            "duration": 0.06307113541669196,
            "durationTicks": 44,
            "midi": 47,
            "name": "B2",
            "ticks": 103100,
            "time": 147.20694976041665,
            "velocity": 0.7401574803149606
          },
          {
            "duration": 0.06880487500001209,
            "durationTicks": 48,
            "midi": 54,
            "name": "F#3",
            "ticks": 103100,
            "time": 147.20694976041665,
            "velocity": 0.7480314960629921
          },
          {
            "duration": 0.06307113541669196,
            "durationTicks": 44,
            "midi": 54,
            "name": "F#3",
            "ticks": 103196,
            "time": 147.34455951041664,
            "velocity": 0.7637795275590551
          },
          {
            "duration": 0.06020426562500347,
            "durationTicks": 42,
            "midi": 47,
            "name": "B2",
            "ticks": 103198,
            "time": 147.34742638020833,
            "velocity": 0.7480314960629921
          },
          {
            "duration": 0.10320731249998971,
            "durationTicks": 72,
            "midi": 47,
            "name": "B2",
            "ticks": 103290,
            "time": 147.479302390625,
            "velocity": 0.8031496062992126
          },
          {
            "duration": 0.10034044270830123,
            "durationTicks": 70,
            "midi": 54,
            "name": "F#3",
            "ticks": 103294,
            "time": 147.48503613020836,
            "velocity": 0.7322834645669292
          },
          {
            "duration": 0.1318760104166472,
            "durationTicks": 92,
            "midi": 59,
            "name": "B3",
            "ticks": 103482,
            "time": 147.754521890625,
            "velocity": 0.7007874015748031
          },
          {
            "duration": 0.08887296354166097,
            "durationTicks": 62,
            "midi": 47,
            "name": "B2",
            "ticks": 103486,
            "time": 147.76025563020835,
            "velocity": 0.7401574803149606
          },
          {
            "duration": 0.08887296354166097,
            "durationTicks": 62,
            "midi": 54,
            "name": "F#3",
            "ticks": 103486,
            "time": 147.76025563020835,
            "velocity": 0.7401574803149606
          },
          {
            "duration": 0.08027235416665235,
            "durationTicks": 56,
            "midi": 54,
            "name": "F#3",
            "ticks": 103674,
            "time": 148.029741390625,
            "velocity": 0.7322834645669292
          },
          {
            "duration": 0.09747357291666958,
            "durationTicks": 68,
            "midi": 47,
            "name": "B2",
            "ticks": 103678,
            "time": 148.03547513020834,
            "velocity": 0.7637795275590551
          },
          {
            "duration": 0.10034044270835807,
            "durationTicks": 70,
            "midi": 59,
            "name": "B3",
            "ticks": 103868,
            "time": 148.30782776041664,
            "velocity": 0.7007874015748031
          },
          {
            "duration": 0.11180792187499833,
            "durationTicks": 78,
            "midi": 47,
            "name": "B2",
            "ticks": 103870,
            "time": 148.31069463020833,
            "velocity": 0.8031496062992126
          },
          {
            "duration": 0.09460670312500952,
            "durationTicks": 66,
            "midi": 54,
            "name": "F#3",
            "ticks": 103870,
            "time": 148.31069463020833,
            "velocity": 0.7795275590551181
          },
          {
            "duration": 0.11180792187499833,
            "durationTicks": 78,
            "midi": 54,
            "name": "F#3",
            "ticks": 104058,
            "time": 148.580180390625,
            "velocity": 0.7795275590551181
          },
          {
            "duration": 0.12040853125000694,
            "durationTicks": 84,
            "midi": 59,
            "name": "B3",
            "ticks": 104058,
            "time": 148.580180390625,
            "velocity": 0.7007874015748031
          },
          {
            "duration": 0.12327540104163859,
            "durationTicks": 86,
            "midi": 47,
            "name": "B2",
            "ticks": 104062,
            "time": 148.58591413020835,
            "velocity": 0.8031496062992126
          },
          {
            "duration": 0.09173983333334945,
            "durationTicks": 64,
            "midi": 45,
            "name": "A2",
            "ticks": 104250,
            "time": 148.855399890625,
            "velocity": 0.7322834645669292
          },
          {
            "duration": 0.11754166145831846,
            "durationTicks": 82,
            "midi": 52,
            "name": "E3",
            "ticks": 104254,
            "time": 148.86113363020834,
            "velocity": 0.7401574803149606
          },
          {
            "duration": 0.09460670312500952,
            "durationTicks": 66,
            "midi": 45,
            "name": "A2",
            "ticks": 104442,
            "time": 149.130619390625,
            "velocity": 0.7637795275590551
          },
          {
            "duration": 0.09460670312500952,
            "durationTicks": 66,
            "midi": 52,
            "name": "E3",
            "ticks": 104446,
            "time": 149.13635313020833,
            "velocity": 0.7637795275590551
          },
          {
            "duration": 0.12900914062501556,
            "durationTicks": 90,
            "midi": 57,
            "name": "A3",
            "ticks": 104446,
            "time": 149.13635313020833,
            "velocity": 0.7086614173228346
          },
          {
            "duration": 0.07167174479164373,
            "durationTicks": 50,
            "midi": 45,
            "name": "A2",
            "ticks": 104634,
            "time": 149.405838890625,
            "velocity": 0.6692913385826772
          },
          {
            "duration": 0.07740548437499228,
            "durationTicks": 54,
            "midi": 52,
            "name": "E3",
            "ticks": 104636,
            "time": 149.40870576041667,
            "velocity": 0.7244094488188977
          },
          {
            "duration": 0.09173983333334945,
            "durationTicks": 64,
            "midi": 52,
            "name": "E3",
            "ticks": 104732,
            "time": 149.54631551041666,
            "velocity": 0.6850393700787402
          },
          {
            "duration": 0.07740548437499228,
            "durationTicks": 54,
            "midi": 45,
            "name": "A2",
            "ticks": 104734,
            "time": 149.54918238020835,
            "velocity": 0.7165354330708661
          },
          {
            "duration": 0.07740548437499228,
            "durationTicks": 54,
            "midi": 52,
            "name": "E3",
            "ticks": 104826,
            "time": 149.681058390625,
            "velocity": 0.7244094488188977
          },
          {
            "duration": 0.08887296354168939,
            "durationTicks": 62,
            "midi": 45,
            "name": "A2",
            "ticks": 104828,
            "time": 149.68392526041666,
            "velocity": 0.6850393700787402
          },
          {
            "duration": 0.1347428802083641,
            "durationTicks": 94,
            "midi": 57,
            "name": "A3",
            "ticks": 105018,
            "time": 149.956277890625,
            "velocity": 0.7086614173228346
          },
          {
            "duration": 0.09173983333334945,
            "durationTicks": 64,
            "midi": 45,
            "name": "A2",
            "ticks": 105020,
            "time": 149.95914476041665,
            "velocity": 0.7322834645669292
          },
          {
            "duration": 0.09460670312500952,
            "durationTicks": 66,
            "midi": 52,
            "name": "E3",
            "ticks": 105022,
            "time": 149.96201163020834,
            "velocity": 0.7244094488188977
          },
          {
            "duration": 0.10034044270832965,
            "durationTicks": 70,
            "midi": 52,
            "name": "E3",
            "ticks": 105210,
            "time": 150.231497390625,
            "velocity": 0.7480314960629921
          },
          {
            "duration": 0.11180792187499833,
            "durationTicks": 78,
            "midi": 45,
            "name": "A2",
            "ticks": 105214,
            "time": 150.23723113020836,
            "velocity": 0.7086614173228346
          },
          {
            "duration": 0.10034044270832965,
            "durationTicks": 70,
            "midi": 57,
            "name": "A3",
            "ticks": 105402,
            "time": 150.506716890625,
            "velocity": 0.7165354330708661
          },
          {
            "duration": 0.08887296354168939,
            "durationTicks": 62,
            "midi": 45,
            "name": "A2",
            "ticks": 105404,
            "time": 150.50958376041666,
            "velocity": 0.7244094488188977
          },
          {
            "duration": 0.08887296354166097,
            "durationTicks": 62,
            "midi": 52,
            "name": "E3",
            "ticks": 105406,
            "time": 150.51245063020835,
            "velocity": 0.7244094488188977
          },
          {
            "duration": 0.12040853125000694,
            "durationTicks": 84,
            "midi": 45,
            "name": "A2",
            "ticks": 105596,
            "time": 150.78480326041665,
            "velocity": 0.7165354330708661
          },
          {
            "duration": 0.10894105208333826,
            "durationTicks": 76,
            "midi": 52,
            "name": "E3",
            "ticks": 105596,
            "time": 150.78480326041665,
            "velocity": 0.7480314960629921
          },
          {
            "duration": 0.12900914062501556,
            "durationTicks": 90,
            "midi": 57,
            "name": "A3",
            "ticks": 105598,
            "time": 150.78767013020834,
            "velocity": 0.7165354330708661
          },
          {
            "duration": 0.09173983333332103,
            "durationTicks": 64,
            "midi": 45,
            "name": "A2",
            "ticks": 105786,
            "time": 151.057155890625,
            "velocity": 0.6850393700787402
          },
          {
            "duration": 0.08313922395834084,
            "durationTicks": 58,
            "midi": 52,
            "name": "E3",
            "ticks": 105786,
            "time": 151.057155890625,
            "velocity": 0.7086614173228346
          },
          {
            "duration": 0.08887296354168939,
            "durationTicks": 62,
            "midi": 40,
            "name": "E2",
            "ticks": 105980,
            "time": 151.33524226041666,
            "velocity": 0.7322834645669292
          },
          {
            "duration": 0.08887296354168939,
            "durationTicks": 62,
            "midi": 47,
            "name": "B2",
            "ticks": 105980,
            "time": 151.33524226041666,
            "velocity": 0.8031496062992126
          },
          {
            "duration": 0.1146747916666584,
            "durationTicks": 80,
            "midi": 52,
            "name": "E3",
            "ticks": 105982,
            "time": 151.33810913020835,
            "velocity": 0.7086614173228346
          },
          {
            "duration": 0.06880487500001209,
            "durationTicks": 48,
            "midi": 47,
            "name": "B2",
            "ticks": 106170,
            "time": 151.607594890625,
            "velocity": 0.7716535433070866
          },
          {
            "duration": 0.08027235416668077,
            "durationTicks": 56,
            "midi": 40,
            "name": "E2",
            "ticks": 106172,
            "time": 151.61046176041665,
            "velocity": 0.7165354330708661
          },
          {
            "duration": 0.08027235416665235,
            "durationTicks": 56,
            "midi": 40,
            "name": "E2",
            "ticks": 106266,
            "time": 151.745204640625,
            "velocity": 0.7007874015748031
          },
          {
            "duration": 0.08887296354166097,
            "durationTicks": 62,
            "midi": 47,
            "name": "B2",
            "ticks": 106266,
            "time": 151.745204640625,
            "velocity": 0.7480314960629921
          },
          {
            "duration": 0.10034044270835807,
            "durationTicks": 70,
            "midi": 40,
            "name": "E2",
            "ticks": 106364,
            "time": 151.88568126041665,
            "velocity": 0.7322834645669292
          },
          {
            "duration": 0.08313922395834084,
            "durationTicks": 58,
            "midi": 47,
            "name": "B2",
            "ticks": 106364,
            "time": 151.88568126041665,
            "velocity": 0.7795275590551181
          },
          {
            "duration": 0.0860060937500009,
            "durationTicks": 60,
            "midi": 47,
            "name": "B2",
            "ticks": 106554,
            "time": 152.158033890625,
            "velocity": 0.7952755905511811
          },
          {
            "duration": 0.11754166145834688,
            "durationTicks": 82,
            "midi": 52,
            "name": "E3",
            "ticks": 106554,
            "time": 152.158033890625,
            "velocity": 0.7165354330708661
          },
          {
            "duration": 0.0946067031249811,
            "durationTicks": 66,
            "midi": 40,
            "name": "E2",
            "ticks": 106556,
            "time": 152.16090076041667,
            "velocity": 0.7401574803149606
          },
          {
            "duration": 0.09747357291666958,
            "durationTicks": 68,
            "midi": 47,
            "name": "B2",
            "ticks": 106746,
            "time": 152.433253390625,
            "velocity": 0.7874015748031497
          },
          {
            "duration": 0.11754166145831846,
            "durationTicks": 82,
            "midi": 40,
            "name": "E2",
            "ticks": 106750,
            "time": 152.43898713020835,
            "velocity": 0.7165354330708661
          },
          {
            "duration": 0.10320731250001813,
            "durationTicks": 72,
            "midi": 40,
            "name": "E2",
            "ticks": 106942,
            "time": 152.71420663020834,
            "velocity": 0.7322834645669292
          },
          {
            "duration": 0.09460670312500952,
            "durationTicks": 66,
            "midi": 47,
            "name": "B2",
            "ticks": 106942,
            "time": 152.71420663020834,
            "velocity": 0.7874015748031497
          },
          {
            "duration": 0.10320731250001813,
            "durationTicks": 72,
            "midi": 52,
            "name": "E3",
            "ticks": 106942,
            "time": 152.71420663020834,
            "velocity": 0.7086614173228346
          },
          {
            "duration": 0.1318760104166472,
            "durationTicks": 92,
            "midi": 40,
            "name": "E2",
            "ticks": 107130,
            "time": 152.983692390625,
            "velocity": 0.6456692913385826
          },
          {
            "duration": 0.10320731249998971,
            "durationTicks": 72,
            "midi": 47,
            "name": "B2",
            "ticks": 107130,
            "time": 152.983692390625,
            "velocity": 0.7795275590551181
          },
          {
            "duration": 0.12040853125000694,
            "durationTicks": 84,
            "midi": 52,
            "name": "E3",
            "ticks": 107134,
            "time": 152.98942613020833,
            "velocity": 0.7086614173228346
          },
          {
            "duration": 0.09460670312500952,
            "durationTicks": 66,
            "midi": 47,
            "name": "B2",
            "ticks": 107322,
            "time": 153.258911890625,
            "velocity": 0.7874015748031497
          },
          {
            "duration": 0.1060741822916782,
            "durationTicks": 74,
            "midi": 40,
            "name": "E2",
            "ticks": 107324,
            "time": 153.26177876041666,
            "velocity": 0.7480314960629921
          },
          {
            "duration": 0.08887296354168939,
            "durationTicks": 62,
            "midi": 40,
            "name": "E2",
            "ticks": 107516,
            "time": 153.53699826041665,
            "velocity": 0.7322834645669292
          },
          {
            "duration": 0.08887296354168939,
            "durationTicks": 62,
            "midi": 47,
            "name": "B2",
            "ticks": 107516,
            "time": 153.53699826041665,
            "velocity": 0.8031496062992126
          },
          {
            "duration": 0.11467479166668682,
            "durationTicks": 80,
            "midi": 52,
            "name": "E3",
            "ticks": 107516,
            "time": 153.53699826041665,
            "velocity": 0.7086614173228346
          },
          {
            "duration": 0.07740548437499228,
            "durationTicks": 54,
            "midi": 40,
            "name": "E2",
            "ticks": 133626,
            "time": 190.963983390625,
            "velocity": 0.7716535433070866
          },
          {
            "duration": 0.08027235416668077,
            "durationTicks": 56,
            "midi": 47,
            "name": "B2",
            "ticks": 133628,
            "time": 190.96685026041666,
            "velocity": 0.8031496062992126
          },
          {
            "duration": 0.09747357291666958,
            "durationTicks": 68,
            "midi": 52,
            "name": "E3",
            "ticks": 133628,
            "time": 190.96685026041666,
            "velocity": 0.7007874015748031
          },
          {
            "duration": 0.06880487500001209,
            "durationTicks": 48,
            "midi": 40,
            "name": "E2",
            "ticks": 133818,
            "time": 191.239202890625,
            "velocity": 0.7165354330708661
          },
          {
            "duration": 0.07740548437499228,
            "durationTicks": 54,
            "midi": 47,
            "name": "B2",
            "ticks": 133822,
            "time": 191.24493663020834,
            "velocity": 0.7401574803149606
          },
          {
            "duration": 0.09747357291666958,
            "durationTicks": 68,
            "midi": 40,
            "name": "E2",
            "ticks": 133918,
            "time": 191.38254638020834,
            "velocity": 0.6535433070866141
          },
          {
            "duration": 0.0745386145833038,
            "durationTicks": 52,
            "midi": 47,
            "name": "B2",
            "ticks": 133918,
            "time": 191.38254638020834,
            "velocity": 0.7007874015748031
          },
          {
            "duration": 0.07453861458336064,
            "durationTicks": 52,
            "midi": 47,
            "name": "B2",
            "ticks": 134010,
            "time": 191.514422390625,
            "velocity": 0.7086614173228346
          },
          {
            "duration": 0.08027235416670919,
            "durationTicks": 56,
            "midi": 40,
            "name": "E2",
            "ticks": 134012,
            "time": 191.51728926041665,
            "velocity": 0.6220472440944882
          },
          {
            "duration": 0.11754166145829004,
            "durationTicks": 82,
            "midi": 40,
            "name": "E2",
            "ticks": 134206,
            "time": 191.79537563020835,
            "velocity": 0.6850393700787402
          },
          {
            "duration": 0.10034044270830123,
            "durationTicks": 70,
            "midi": 47,
            "name": "B2",
            "ticks": 134206,
            "time": 191.79537563020835,
            "velocity": 0.7874015748031497
          },
          {
            "duration": 0.12900914062498714,
            "durationTicks": 90,
            "midi": 52,
            "name": "E3",
            "ticks": 134206,
            "time": 191.79537563020835,
            "velocity": 0.6850393700787402
          },
          {
            "duration": 0.08313922395834084,
            "durationTicks": 58,
            "midi": 47,
            "name": "B2",
            "ticks": 134396,
            "time": 192.06772826041666,
            "velocity": 0.7874015748031497
          },
          {
            "duration": 0.09747357291664116,
            "durationTicks": 68,
            "midi": 40,
            "name": "E2",
            "ticks": 134398,
            "time": 192.07059513020835,
            "velocity": 0.7401574803149606
          },
          {
            "duration": 0.11754166145834688,
            "durationTicks": 82,
            "midi": 40,
            "name": "E2",
            "ticks": 134586,
            "time": 192.340080890625,
            "velocity": 0.6850393700787402
          },
          {
            "duration": 0.12327540104166701,
            "durationTicks": 86,
            "midi": 52,
            "name": "E3",
            "ticks": 134586,
            "time": 192.340080890625,
            "velocity": 0.6929133858267716
          },
          {
            "duration": 0.09460670312500952,
            "durationTicks": 66,
            "midi": 47,
            "name": "B2",
            "ticks": 134588,
            "time": 192.34294776041665,
            "velocity": 0.7874015748031497
          },
          {
            "duration": 0.08887296354166097,
            "durationTicks": 62,
            "midi": 47,
            "name": "B2",
            "ticks": 134778,
            "time": 192.615300390625,
            "velocity": 0.7874015748031497
          },
          {
            "duration": 0.14907722916666444,
            "durationTicks": 104,
            "midi": 52,
            "name": "E3",
            "ticks": 134780,
            "time": 192.61816726041667,
            "velocity": 0.6850393700787402
          },
          {
            "duration": 0.09173983333329261,
            "durationTicks": 64,
            "midi": 40,
            "name": "E2",
            "ticks": 134782,
            "time": 192.62103413020836,
            "velocity": 0.7480314960629921
          },
          {
            "duration": 0.12327540104166701,
            "durationTicks": 86,
            "midi": 40,
            "name": "E2",
            "ticks": 134970,
            "time": 192.890519890625,
            "velocity": 0.7007874015748031
          },
          {
            "duration": 0.0946067031249811,
            "durationTicks": 66,
            "midi": 47,
            "name": "B2",
            "ticks": 134974,
            "time": 192.89625363020835,
            "velocity": 0.7874015748031497
          },
          {
            "duration": 0.0860060937500009,
            "durationTicks": 60,
            "midi": 47,
            "name": "B2",
            "ticks": 135162,
            "time": 193.165739390625,
            "velocity": 0.7952755905511811
          },
          {
            "duration": 0.09747357291666958,
            "durationTicks": 68,
            "midi": 40,
            "name": "E2",
            "ticks": 135166,
            "time": 193.17147313020834,
            "velocity": 0.7401574803149606
          },
          {
            "duration": 0.1318760104166472,
            "durationTicks": 92,
            "midi": 52,
            "name": "E3",
            "ticks": 135166,
            "time": 193.17147313020834,
            "velocity": 0.6929133858267716
          },
          {
            "duration": 0.07167174479167215,
            "durationTicks": 50,
            "midi": 40,
            "name": "E2",
            "ticks": 135358,
            "time": 193.44669263020833,
            "velocity": 0.6771653543307087
          },
          {
            "duration": 0.07453861458333222,
            "durationTicks": 52,
            "midi": 47,
            "name": "B2",
            "ticks": 135358,
            "time": 193.44669263020833,
            "velocity": 0.7637795275590551
          },
          {
            "duration": 0.09747357291664116,
            "durationTicks": 68,
            "midi": 40,
            "name": "E2",
            "ticks": 135450,
            "time": 193.578568640625,
            "velocity": 0.6535433070866141
          },
          {
            "duration": 0.07740548437499228,
            "durationTicks": 54,
            "midi": 47,
            "name": "B2",
            "ticks": 135454,
            "time": 193.58430238020836,
            "velocity": 0.7322834645669292
          },
          {
            "duration": 0.08313922395834084,
            "durationTicks": 58,
            "midi": 40,
            "name": "E2",
            "ticks": 135548,
            "time": 193.71904526041666,
            "velocity": 0.6850393700787402
          },
          {
            "duration": 0.07167174479167215,
            "durationTicks": 50,
            "midi": 47,
            "name": "B2",
            "ticks": 135548,
            "time": 193.71904526041666,
            "velocity": 0.7637795275590551
          },
          {
            "duration": 0.11180792187499833,
            "durationTicks": 78,
            "midi": 40,
            "name": "E2",
            "ticks": 135740,
            "time": 193.99426476041666,
            "velocity": 0.6850393700787402
          },
          {
            "duration": 0.08313922395834084,
            "durationTicks": 58,
            "midi": 47,
            "name": "B2",
            "ticks": 135740,
            "time": 193.99426476041666,
            "velocity": 0.7716535433070866
          },
          {
            "duration": 0.13187601041667563,
            "durationTicks": 92,
            "midi": 52,
            "name": "E3",
            "ticks": 135740,
            "time": 193.99426476041666,
            "velocity": 0.7007874015748031
          },
          {
            "duration": 0.08313922395834084,
            "durationTicks": 58,
            "midi": 47,
            "name": "B2",
            "ticks": 135932,
            "time": 194.26948426041665,
            "velocity": 0.7716535433070866
          },
          {
            "duration": 0.09460670312500952,
            "durationTicks": 66,
            "midi": 40,
            "name": "E2",
            "ticks": 135934,
            "time": 194.27235113020834,
            "velocity": 0.7007874015748031
          },
          {
            "duration": 0.09173983333334945,
            "durationTicks": 64,
            "midi": 47,
            "name": "B2",
            "ticks": 136122,
            "time": 194.541836890625,
            "velocity": 0.7795275590551181
          },
          {
            "duration": 0.10894105208333826,
            "durationTicks": 76,
            "midi": 52,
            "name": "E3",
            "ticks": 136122,
            "time": 194.541836890625,
            "velocity": 0.6929133858267716
          },
          {
            "duration": 0.11467479166668682,
            "durationTicks": 80,
            "midi": 40,
            "name": "E2",
            "ticks": 136124,
            "time": 194.54470376041667,
            "velocity": 0.6850393700787402
          },
          {
            "duration": 0.1433434895833443,
            "durationTicks": 100,
            "midi": 52,
            "name": "E3",
            "ticks": 136314,
            "time": 194.817056390625,
            "velocity": 0.7007874015748031
          },
          {
            "duration": 0.097473572916698,
            "durationTicks": 68,
            "midi": 40,
            "name": "E2",
            "ticks": 136316,
            "time": 194.81992326041666,
            "velocity": 0.7401574803149606
          },
          {
            "duration": 0.09173983333334945,
            "durationTicks": 64,
            "midi": 47,
            "name": "B2",
            "ticks": 136316,
            "time": 194.81992326041666,
            "velocity": 0.7874015748031497
          },
          {
            "duration": 0.12040853125000694,
            "durationTicks": 84,
            "midi": 40,
            "name": "E2",
            "ticks": 136506,
            "time": 195.092275890625,
            "velocity": 0.6771653543307087
          },
          {
            "duration": 0.09173983333334945,
            "durationTicks": 64,
            "midi": 47,
            "name": "B2",
            "ticks": 136508,
            "time": 195.09514276041665,
            "velocity": 0.7874015748031497
          },
          {
            "duration": 0.08887296354166097,
            "durationTicks": 62,
            "midi": 47,
            "name": "B2",
            "ticks": 136698,
            "time": 195.367495390625,
            "velocity": 0.7795275590551181
          },
          {
            "duration": 0.09747357291664116,
            "durationTicks": 68,
            "midi": 40,
            "name": "E2",
            "ticks": 136702,
            "time": 195.37322913020836,
            "velocity": 0.7480314960629921
          },
          {
            "duration": 0.14621035937497595,
            "durationTicks": 102,
            "midi": 52,
            "name": "E3",
            "ticks": 136702,
            "time": 195.37322913020836,
            "velocity": 0.7086614173228346
          },
          {
            "duration": 0.0860060937500009,
            "durationTicks": 60,
            "midi": 40,
            "name": "E2",
            "ticks": 136890,
            "time": 195.642714890625,
            "velocity": 0.6850393700787402
          },
          {
            "duration": 0.06880487499998367,
            "durationTicks": 48,
            "midi": 47,
            "name": "B2",
            "ticks": 136894,
            "time": 195.64844863020835,
            "velocity": 0.7480314960629921
          },
          {
            "duration": 0.08027235416665235,
            "durationTicks": 56,
            "midi": 40,
            "name": "E2",
            "ticks": 136990,
            "time": 195.78605838020835,
            "velocity": 0.7244094488188977
          },
          {
            "duration": 0.09173983333332103,
            "durationTicks": 64,
            "midi": 47,
            "name": "B2",
            "ticks": 136990,
            "time": 195.78605838020835,
            "velocity": 0.7716535433070866
          },
          {
            "duration": 0.09173983333334945,
            "durationTicks": 64,
            "midi": 47,
            "name": "B2",
            "ticks": 137084,
            "time": 195.92080126041665,
            "velocity": 0.7480314960629921
          },
          {
            "duration": 0.10894105208330984,
            "durationTicks": 76,
            "midi": 40,
            "name": "E2",
            "ticks": 137086,
            "time": 195.92366813020834,
            "velocity": 0.6850393700787402
          },
          {
            "duration": 0.12327540104163859,
            "durationTicks": 86,
            "midi": 52,
            "name": "E3",
            "ticks": 137274,
            "time": 196.193153890625,
            "velocity": 0.7086614173228346
          },
          {
            "duration": 0.08313922395836926,
            "durationTicks": 58,
            "midi": 47,
            "name": "B2",
            "ticks": 137276,
            "time": 196.19602076041664,
            "velocity": 0.7637795275590551
          },
          {
            "duration": 0.08887296354166097,
            "durationTicks": 62,
            "midi": 40,
            "name": "E2",
            "ticks": 137278,
            "time": 196.19888763020833,
            "velocity": 0.7244094488188977
          },
          {
            "duration": 0.11754166145834688,
            "durationTicks": 82,
            "midi": 40,
            "name": "E2",
            "ticks": 137466,
            "time": 196.468373390625,
            "velocity": 0.6850393700787402
          },
          {
            "duration": 0.09173983333329261,
            "durationTicks": 64,
            "midi": 47,
            "name": "B2",
            "ticks": 137470,
            "time": 196.47410713020835,
            "velocity": 0.7874015748031497
          },
          {
            "duration": 0.09460670312500952,
            "durationTicks": 66,
            "midi": 40,
            "name": "E2",
            "ticks": 137662,
            "time": 196.74932663020834,
            "velocity": 0.7086614173228346
          },
          {
            "duration": 0.0860060937500009,
            "durationTicks": 60,
            "midi": 47,
            "name": "B2",
            "ticks": 137662,
            "time": 196.74932663020834,
            "velocity": 0.7637795275590551
          },
          {
            "duration": 0.10607418229164978,
            "durationTicks": 74,
            "midi": 52,
            "name": "E3",
            "ticks": 137662,
            "time": 196.74932663020834,
            "velocity": 0.7007874015748031
          },
          {
            "duration": 0.13187601041667563,
            "durationTicks": 92,
            "midi": 52,
            "name": "E3",
            "ticks": 137850,
            "time": 197.018812390625,
            "velocity": 0.7086614173228346
          },
          {
            "duration": 0.10894105208336669,
            "durationTicks": 76,
            "midi": 40,
            "name": "E2",
            "ticks": 137852,
            "time": 197.02167926041665,
            "velocity": 0.6692913385826772
          },
          {
            "duration": 0.09173983333334945,
            "durationTicks": 64,
            "midi": 47,
            "name": "B2",
            "ticks": 137852,
            "time": 197.02167926041665,
            "velocity": 0.7716535433070866
          },
          {
            "duration": 0.08027235416665235,
            "durationTicks": 56,
            "midi": 47,
            "name": "B2",
            "ticks": 138042,
            "time": 197.294031890625,
            "velocity": 0.7716535433070866
          },
          {
            "duration": 0.08887296354168939,
            "durationTicks": 62,
            "midi": 40,
            "name": "E2",
            "ticks": 138044,
            "time": 197.29689876041667,
            "velocity": 0.7165354330708661
          },
          {
            "duration": 0.09173983333334945,
            "durationTicks": 64,
            "midi": 47,
            "name": "B2",
            "ticks": 138234,
            "time": 197.569251390625,
            "velocity": 0.7795275590551181
          },
          {
            "duration": 0.10894105208333826,
            "durationTicks": 76,
            "midi": 40,
            "name": "E2",
            "ticks": 138236,
            "time": 197.57211826041666,
            "velocity": 0.6850393700787402
          },
          {
            "duration": 0.14047661979168424,
            "durationTicks": 98,
            "midi": 52,
            "name": "E3",
            "ticks": 138236,
            "time": 197.57211826041666,
            "velocity": 0.7086614173228346
          },
          {
            "duration": 0.07453861458336064,
            "durationTicks": 52,
            "midi": 40,
            "name": "E2",
            "ticks": 138426,
            "time": 197.844470890625,
            "velocity": 0.6850393700787402
          },
          {
            "duration": 0.07167174479167215,
            "durationTicks": 50,
            "midi": 47,
            "name": "B2",
            "ticks": 138430,
            "time": 197.85020463020834,
            "velocity": 0.7007874015748031
          },
          {
            "duration": 0.11754166145834688,
            "durationTicks": 82,
            "midi": 40,
            "name": "E2",
            "ticks": 138524,
            "time": 197.98494751041665,
            "velocity": 0.6692913385826772
          },
          {
            "duration": 0.08313922395834084,
            "durationTicks": 58,
            "midi": 47,
            "name": "B2",
            "ticks": 138524,
            "time": 197.98494751041665,
            "velocity": 0.7244094488188977
          },
          {
            "duration": 0.0860060937500009,
            "durationTicks": 60,
            "midi": 40,
            "name": "E2",
            "ticks": 138618,
            "time": 198.119690390625,
            "velocity": 0.6692913385826772
          },
          {
            "duration": 0.07740548437499228,
            "durationTicks": 54,
            "midi": 47,
            "name": "B2",
            "ticks": 138620,
            "time": 198.12255726041667,
            "velocity": 0.7716535433070866
          },
          {
            "duration": 0.12614227083332707,
            "durationTicks": 88,
            "midi": 52,
            "name": "E3",
            "ticks": 138812,
            "time": 198.39777676041666,
            "velocity": 0.7007874015748031
          },
          {
            "duration": 0.10894105208330984,
            "durationTicks": 76,
            "midi": 40,
            "name": "E2",
            "ticks": 138814,
            "time": 198.40064363020835,
            "velocity": 0.6850393700787402
          },
          {
            "duration": 0.09173983333329261,
            "durationTicks": 64,
            "midi": 47,
            "name": "B2",
            "ticks": 138814,
            "time": 198.40064363020835,
            "velocity": 0.7716535433070866
          },
          {
            "duration": 0.09173983333334945,
            "durationTicks": 64,
            "midi": 40,
            "name": "E2",
            "ticks": 139004,
            "time": 198.67299626041665,
            "velocity": 0.7322834645669292
          },
          {
            "duration": 0.08027235416665235,
            "durationTicks": 56,
            "midi": 47,
            "name": "B2",
            "ticks": 139006,
            "time": 198.67586313020834,
            "velocity": 0.7637795275590551
          },
          {
            "duration": 0.10034044270835807,
            "durationTicks": 70,
            "midi": 52,
            "name": "E3",
            "ticks": 139196,
            "time": 198.94821576041664,
            "velocity": 0.7007874015748031
          },
          {
            "duration": 0.11754166145831846,
            "durationTicks": 82,
            "midi": 40,
            "name": "E2",
            "ticks": 139198,
            "time": 198.95108263020833,
            "velocity": 0.6377952755905512
          },
          {
            "duration": 0.08887296354166097,
            "durationTicks": 62,
            "midi": 47,
            "name": "B2",
            "ticks": 139198,
            "time": 198.95108263020833,
            "velocity": 0.7716535433070866
          },
          {
            "duration": 0.0860060937500009,
            "durationTicks": 60,
            "midi": 47,
            "name": "B2",
            "ticks": 139386,
            "time": 199.220568390625,
            "velocity": 0.7716535433070866
          },
          {
            "duration": 0.09747357291664116,
            "durationTicks": 68,
            "midi": 40,
            "name": "E2",
            "ticks": 139390,
            "time": 199.22630213020835,
            "velocity": 0.7401574803149606
          },
          {
            "duration": 0.12900914062498714,
            "durationTicks": 90,
            "midi": 52,
            "name": "E3",
            "ticks": 139390,
            "time": 199.22630213020835,
            "velocity": 0.7007874015748031
          },
          {
            "duration": 0.10034044270835807,
            "durationTicks": 70,
            "midi": 47,
            "name": "B2",
            "ticks": 139578,
            "time": 199.495787890625,
            "velocity": 0.7952755905511811
          },
          {
            "duration": 0.12327540104166701,
            "durationTicks": 86,
            "midi": 40,
            "name": "E2",
            "ticks": 139582,
            "time": 199.50152163020834,
            "velocity": 0.6850393700787402
          },
          {
            "duration": 0.14047661979165582,
            "durationTicks": 98,
            "midi": 57,
            "name": "A3",
            "ticks": 139770,
            "time": 199.771007390625,
            "velocity": 0.7086614173228346
          },
          {
            "duration": 0.0860060937500009,
            "durationTicks": 60,
            "midi": 52,
            "name": "E3",
            "ticks": 139772,
            "time": 199.77387426041665,
            "velocity": 0.6220472440944882
          },
          {
            "duration": 0.09173983333332103,
            "durationTicks": 64,
            "midi": 45,
            "name": "A2",
            "ticks": 139774,
            "time": 199.77674113020834,
            "velocity": 0.7007874015748031
          },
          {
            "duration": 0.07740548437499228,
            "durationTicks": 54,
            "midi": 52,
            "name": "E3",
            "ticks": 139964,
            "time": 200.04909376041667,
            "velocity": 0.6850393700787402
          },
          {
            "duration": 0.08313922395831241,
            "durationTicks": 58,
            "midi": 45,
            "name": "A2",
            "ticks": 139966,
            "time": 200.05196063020836,
            "velocity": 0.6299212598425197
          },
          {
            "duration": 0.09173983333334945,
            "durationTicks": 64,
            "midi": 45,
            "name": "A2",
            "ticks": 140060,
            "time": 200.18670351041666,
            "velocity": 0.6850393700787402
          },
          {
            "duration": 0.09747357291664116,
            "durationTicks": 68,
            "midi": 52,
            "name": "E3",
            "ticks": 140062,
            "time": 200.18957038020835,
            "velocity": 0.6299212598425197
          },
          {
            "duration": 0.1060741822916782,
            "durationTicks": 74,
            "midi": 45,
            "name": "A2",
            "ticks": 140156,
            "time": 200.32431326041666,
            "velocity": 0.7086614173228346
          },
          {
            "duration": 0.09460670312500952,
            "durationTicks": 66,
            "midi": 52,
            "name": "E3",
            "ticks": 140156,
            "time": 200.32431326041666,
            "velocity": 0.6850393700787402
          },
          {
            "duration": 0.09173983333334945,
            "durationTicks": 64,
            "midi": 45,
            "name": "A2",
            "ticks": 140346,
            "time": 200.596665890625,
            "velocity": 0.7007874015748031
          },
          {
            "duration": 0.097473572916698,
            "durationTicks": 68,
            "midi": 52,
            "name": "E3",
            "ticks": 140348,
            "time": 200.59953276041665,
            "velocity": 0.7165354330708661
          },
          {
            "duration": 0.12900914062501556,
            "durationTicks": 90,
            "midi": 57,
            "name": "A3",
            "ticks": 140348,
            "time": 200.59953276041665,
            "velocity": 0.7007874015748031
          },
          {
            "duration": 0.10320731249998971,
            "durationTicks": 72,
            "midi": 52,
            "name": "E3",
            "ticks": 140538,
            "time": 200.871885390625,
            "velocity": 0.7480314960629921
          },
          {
            "duration": 0.11180792187499833,
            "durationTicks": 78,
            "midi": 45,
            "name": "A2",
            "ticks": 140540,
            "time": 200.87475226041667,
            "velocity": 0.7007874015748031
          },
          {
            "duration": 0.09460670312500952,
            "durationTicks": 66,
            "midi": 52,
            "name": "E3",
            "ticks": 140730,
            "time": 201.147104890625,
            "velocity": 0.7401574803149606
          },
          {
            "duration": 0.08887296354168939,
            "durationTicks": 62,
            "midi": 45,
            "name": "A2",
            "ticks": 140732,
            "time": 201.14997176041666,
            "velocity": 0.7086614173228346
          },
          {
            "duration": 0.10320731249998971,
            "durationTicks": 72,
            "midi": 57,
            "name": "A3",
            "ticks": 140732,
            "time": 201.14997176041666,
            "velocity": 0.6929133858267716
          },
          {
            "duration": 0.10320731250001813,
            "durationTicks": 72,
            "midi": 52,
            "name": "E3",
            "ticks": 140922,
            "time": 201.422324390625,
            "velocity": 0.7401574803149606
          },
          {
            "duration": 0.11180792187499833,
            "durationTicks": 78,
            "midi": 45,
            "name": "A2",
            "ticks": 140924,
            "time": 201.42519126041665,
            "velocity": 0.6850393700787402
          },
          {
            "duration": 0.12040853125000694,
            "durationTicks": 84,
            "midi": 57,
            "name": "A3",
            "ticks": 140926,
            "time": 201.42805813020834,
            "velocity": 0.6929133858267716
          },
          {
            "duration": 0.08027235416665235,
            "durationTicks": 56,
            "midi": 52,
            "name": "E3",
            "ticks": 141114,
            "time": 201.697543890625,
            "velocity": 0.7244094488188977
          },
          {
            "duration": 0.08027235416668077,
            "durationTicks": 56,
            "midi": 45,
            "name": "A2",
            "ticks": 141118,
            "time": 201.70327763020833,
            "velocity": 0.7086614173228346
          },
          {
            "duration": 0.10320731249998971,
            "durationTicks": 72,
            "midi": 52,
            "name": "E3",
            "ticks": 141308,
            "time": 201.97563026041666,
            "velocity": 0.7322834645669292
          },
          {
            "duration": 0.10034044270830123,
            "durationTicks": 70,
            "midi": 45,
            "name": "A2",
            "ticks": 141310,
            "time": 201.97849713020835,
            "velocity": 0.7007874015748031
          },
          {
            "duration": 0.13474288020830727,
            "durationTicks": 94,
            "midi": 57,
            "name": "A3",
            "ticks": 141310,
            "time": 201.97849713020835,
            "velocity": 0.6929133858267716
          },
          {
            "duration": 0.08027235416665235,
            "durationTicks": 56,
            "midi": 52,
            "name": "E3",
            "ticks": 141498,
            "time": 202.247982890625,
            "velocity": 0.6535433070866141
          },
          {
            "duration": 0.05733739583334341,
            "durationTicks": 40,
            "midi": 45,
            "name": "A2",
            "ticks": 141500,
            "time": 202.25084976041666,
            "velocity": 0.6220472440944882
          },
          {
            "duration": 0.097473572916698,
            "durationTicks": 68,
            "midi": 45,
            "name": "A2",
            "ticks": 141596,
            "time": 202.38845951041665,
            "velocity": 0.6850393700787402
          },
          {
            "duration": 0.10034044270835807,
            "durationTicks": 70,
            "midi": 52,
            "name": "E3",
            "ticks": 141596,
            "time": 202.38845951041665,
            "velocity": 0.6850393700787402
          },
          {
            "duration": 0.0860060937500009,
            "durationTicks": 60,
            "midi": 45,
            "name": "A2",
            "ticks": 141692,
            "time": 202.52606926041665,
            "velocity": 0.7322834645669292
          },
          {
            "duration": 0.08887296354166097,
            "durationTicks": 62,
            "midi": 52,
            "name": "E3",
            "ticks": 141694,
            "time": 202.52893613020834,
            "velocity": 0.7007874015748031
          },
          {
            "duration": 0.09747357291666958,
            "durationTicks": 68,
            "midi": 45,
            "name": "A2",
            "ticks": 141884,
            "time": 202.80128876041667,
            "velocity": 0.6456692913385826
          },
          {
            "duration": 0.09747357291666958,
            "durationTicks": 68,
            "midi": 52,
            "name": "E3",
            "ticks": 141884,
            "time": 202.80128876041667,
            "velocity": 0.7165354330708661
          },
          {
            "duration": 0.12040853124997852,
            "durationTicks": 84,
            "midi": 57,
            "name": "A3",
            "ticks": 141884,
            "time": 202.80128876041667,
            "velocity": 0.7007874015748031
          },
          {
            "duration": 0.08313922395834084,
            "durationTicks": 58,
            "midi": 52,
            "name": "E3",
            "ticks": 142076,
            "time": 203.07650826041666,
            "velocity": 0.7244094488188977
          },
          {
            "duration": 0.06880487499998367,
            "durationTicks": 48,
            "midi": 45,
            "name": "A2",
            "ticks": 142078,
            "time": 203.07937513020835,
            "velocity": 0.6692913385826772
          },
          {
            "duration": 0.10034044270835807,
            "durationTicks": 70,
            "midi": 52,
            "name": "E3",
            "ticks": 142268,
            "time": 203.35172776041665,
            "velocity": 0.7244094488188977
          },
          {
            "duration": 0.09460670312500952,
            "durationTicks": 66,
            "midi": 57,
            "name": "A3",
            "ticks": 142268,
            "time": 203.35172776041665,
            "velocity": 0.7007874015748031
          },
          {
            "duration": 0.10607418229164978,
            "durationTicks": 74,
            "midi": 45,
            "name": "A2",
            "ticks": 142270,
            "time": 203.35459463020834,
            "velocity": 0.6850393700787402
          },
          {
            "duration": 0.12327540104166701,
            "durationTicks": 86,
            "midi": 57,
            "name": "A3",
            "ticks": 142460,
            "time": 203.62694726041667,
            "velocity": 0.7007874015748031
          },
          {
            "duration": 0.07453861458333222,
            "durationTicks": 52,
            "midi": 45,
            "name": "A2",
            "ticks": 142462,
            "time": 203.62981413020833,
            "velocity": 0.6377952755905512
          },
          {
            "duration": 0.0860060937500009,
            "durationTicks": 60,
            "midi": 52,
            "name": "E3",
            "ticks": 142462,
            "time": 203.62981413020833,
            "velocity": 0.7322834645669292
          },
          {
            "duration": 0.09747357291666958,
            "durationTicks": 68,
            "midi": 45,
            "name": "A2",
            "ticks": 142652,
            "time": 203.90216676041666,
            "velocity": 0.7401574803149606
          },
          {
            "duration": 0.08887296354166097,
            "durationTicks": 62,
            "midi": 52,
            "name": "E3",
            "ticks": 142654,
            "time": 203.90503363020835,
            "velocity": 0.7401574803149606
          },
          {
            "duration": 0.0860060937500009,
            "durationTicks": 60,
            "midi": 40,
            "name": "E2",
            "ticks": 142842,
            "time": 204.174519390625,
            "velocity": 0.7165354330708661
          },
          {
            "duration": 0.08313922395831241,
            "durationTicks": 58,
            "midi": 47,
            "name": "B2",
            "ticks": 142846,
            "time": 204.18025313020834,
            "velocity": 0.7637795275590551
          },
          {
            "duration": 0.13760974999999576,
            "durationTicks": 96,
            "midi": 52,
            "name": "E3",
            "ticks": 142846,
            "time": 204.18025313020834,
            "velocity": 0.7007874015748031
          },
          {
            "duration": 0.08027235416668077,
            "durationTicks": 56,
            "midi": 40,
            "name": "E2",
            "ticks": 143038,
            "time": 204.45547263020833,
            "velocity": 0.6692913385826772
          },
          {
            "duration": 0.05447052604165492,
            "durationTicks": 38,
            "midi": 47,
            "name": "B2",
            "ticks": 143038,
            "time": 204.45547263020833,
            "velocity": 0.7244094488188977
          },
          {
            "duration": 0.08027235416668077,
            "durationTicks": 56,
            "midi": 40,
            "name": "E2",
            "ticks": 143132,
            "time": 204.59021551041667,
            "velocity": 0.6850393700787402
          },
          {
            "duration": 0.0860060937500009,
            "durationTicks": 60,
            "midi": 47,
            "name": "B2",
            "ticks": 143132,
            "time": 204.59021551041667,
            "velocity": 0.7322834645669292
          },
          {
            "duration": 0.10894105208330984,
            "durationTicks": 76,
            "midi": 40,
            "name": "E2",
            "ticks": 143230,
            "time": 204.73069213020835,
            "velocity": 0.7086614173228346
          },
          {
            "duration": 0.07740548437499228,
            "durationTicks": 54,
            "midi": 47,
            "name": "B2",
            "ticks": 143230,
            "time": 204.73069213020835,
            "velocity": 0.7401574803149606
          },
          {
            "duration": 0.08313922395834084,
            "durationTicks": 58,
            "midi": 40,
            "name": "E2",
            "ticks": 143420,
            "time": 205.00304476041666,
            "velocity": 0.7244094488188977
          },
          {
            "duration": 0.0860060937500009,
            "durationTicks": 60,
            "midi": 47,
            "name": "B2",
            "ticks": 143422,
            "time": 205.00591163020835,
            "velocity": 0.7716535433070866
          },
          {
            "duration": 0.1318760104166472,
            "durationTicks": 92,
            "midi": 52,
            "name": "E3",
            "ticks": 143422,
            "time": 205.00591163020835,
            "velocity": 0.7165354330708661
          },
          {
            "duration": 0.09173983333334945,
            "durationTicks": 64,
            "midi": 47,
            "name": "B2",
            "ticks": 143610,
            "time": 205.275397390625,
            "velocity": 0.7637795275590551
          },
          {
            "duration": 0.10894105208333826,
            "durationTicks": 76,
            "midi": 40,
            "name": "E2",
            "ticks": 143612,
            "time": 205.27826426041665,
            "velocity": 0.6850393700787402
          },
          {
            "duration": 0.0860060937500009,
            "durationTicks": 60,
            "midi": 40,
            "name": "E2",
            "ticks": 143802,
            "time": 205.550616890625,
            "velocity": 0.7007874015748031
          },
          {
            "duration": 0.11180792187499833,
            "durationTicks": 78,
            "midi": 52,
            "name": "E3",
            "ticks": 143804,
            "time": 205.55348376041667,
            "velocity": 0.6929133858267716
          },
          {
            "duration": 0.08887296354163254,
            "durationTicks": 62,
            "midi": 47,
            "name": "B2",
            "ticks": 143806,
            "time": 205.55635063020836,
            "velocity": 0.7795275590551181
          },
          {
            "duration": 0.1347428802083357,
            "durationTicks": 94,
            "midi": 52,
            "name": "E3",
            "ticks": 143996,
            "time": 205.82870326041666,
            "velocity": 0.7165354330708661
          },
          {
            "duration": 0.10607418229164978,
            "durationTicks": 74,
            "midi": 40,
            "name": "E2",
            "ticks": 143998,
            "time": 205.83157013020835,
            "velocity": 0.6850393700787402
          },
          {
            "duration": 0.09460670312500952,
            "durationTicks": 66,
            "midi": 47,
            "name": "B2",
            "ticks": 143998,
            "time": 205.83157013020835,
            "velocity": 0.7716535433070866
          },
          {
            "duration": 0.08313922395834084,
            "durationTicks": 58,
            "midi": 40,
            "name": "E2",
            "ticks": 144186,
            "time": 206.101055890625,
            "velocity": 0.7086614173228346
          },
          {
            "duration": 0.08313922395831241,
            "durationTicks": 58,
            "midi": 47,
            "name": "B2",
            "ticks": 144190,
            "time": 206.10678963020834,
            "velocity": 0.7637795275590551
          },
          {
            "duration": 0.0860060937500009,
            "durationTicks": 60,
            "midi": 40,
            "name": "E2",
            "ticks": 144378,
            "time": 206.376275390625,
            "velocity": 0.7086614173228346
          },
          {
            "duration": 0.08313922395834084,
            "durationTicks": 58,
            "midi": 47,
            "name": "B2",
            "ticks": 144378,
            "time": 206.376275390625,
            "velocity": 0.7795275590551181
          },
          {
            "duration": 0.15194409895835292,
            "durationTicks": 106,
            "midi": 52,
            "name": "E3",
            "ticks": 144380,
            "time": 206.37914226041664,
            "velocity": 0.7007874015748031
          },
          {
            "duration": 0.07740548437499228,
            "durationTicks": 54,
            "midi": 40,
            "name": "E2",
            "ticks": 144572,
            "time": 206.65436176041666,
            "velocity": 0.6535433070866141
          },
          {
            "duration": 0.07453861458333222,
            "durationTicks": 52,
            "midi": 47,
            "name": "B2",
            "ticks": 144572,
            "time": 206.65436176041666,
            "velocity": 0.7401574803149606
          },
          {
            "duration": 0.08887296354166097,
            "durationTicks": 62,
            "midi": 47,
            "name": "B2",
            "ticks": 144666,
            "time": 206.789104640625,
            "velocity": 0.7480314960629921
          },
          {
            "duration": 0.07740548437499228,
            "durationTicks": 54,
            "midi": 40,
            "name": "E2",
            "ticks": 144668,
            "time": 206.79197151041666,
            "velocity": 0.6850393700787402
          },
          {
            "duration": 0.0860060937500009,
            "durationTicks": 60,
            "midi": 47,
            "name": "B2",
            "ticks": 144762,
            "time": 206.926714390625,
            "velocity": 0.7716535433070866
          },
          {
            "duration": 0.11467479166668682,
            "durationTicks": 80,
            "midi": 40,
            "name": "E2",
            "ticks": 144764,
            "time": 206.92958126041665,
            "velocity": 0.6771653543307087
          },
          {
            "duration": 0.1318760104166472,
            "durationTicks": 92,
            "midi": 52,
            "name": "E3",
            "ticks": 144954,
            "time": 207.201933890625,
            "velocity": 0.7007874015748031
          },
          {
            "duration": 0.08027235416670919,
            "durationTicks": 56,
            "midi": 47,
            "name": "B2",
            "ticks": 144956,
            "time": 207.20480076041665,
            "velocity": 0.7637795275590551
          },
          {
            "duration": 0.0860060937500009,
            "durationTicks": 60,
            "midi": 40,
            "name": "E2",
            "ticks": 144958,
            "time": 207.20766763020833,
            "velocity": 0.6850393700787402
          },
          {
            "duration": 0.09173983333334945,
            "durationTicks": 64,
            "midi": 47,
            "name": "B2",
            "ticks": 145146,
            "time": 207.477153390625,
            "velocity": 0.7716535433070866
          },
          {
            "duration": 0.10894105208333826,
            "durationTicks": 76,
            "midi": 40,
            "name": "E2",
            "ticks": 145148,
            "time": 207.48002026041667,
            "velocity": 0.6614173228346457
          },
          {
            "duration": 0.09173983333334945,
            "durationTicks": 64,
            "midi": 40,
            "name": "E2",
            "ticks": 145338,
            "time": 207.752372890625,
            "velocity": 0.7165354330708661
          },
          {
            "duration": 0.10034044270835807,
            "durationTicks": 70,
            "midi": 52,
            "name": "E3",
            "ticks": 145338,
            "time": 207.752372890625,
            "velocity": 0.7007874015748031
          },
          {
            "duration": 0.08027235416668077,
            "durationTicks": 56,
            "midi": 47,
            "name": "B2",
            "ticks": 145340,
            "time": 207.75523976041666,
            "velocity": 0.7480314960629921
          },
          {
            "duration": 0.1146747916666584,
            "durationTicks": 80,
            "midi": 40,
            "name": "E2",
            "ticks": 145530,
            "time": 208.027592390625,
            "velocity": 0.6771653543307087
          },
          {
            "duration": 0.12040853125000694,
            "durationTicks": 84,
            "midi": 52,
            "name": "E3",
            "ticks": 145530,
            "time": 208.027592390625,
            "velocity": 0.7007874015748031
          },
          {
            "duration": 0.097473572916698,
            "durationTicks": 68,
            "midi": 47,
            "name": "B2",
            "ticks": 145532,
            "time": 208.03045926041665,
            "velocity": 0.7716535433070866
          },
          {
            "duration": 0.0946067031249811,
            "durationTicks": 66,
            "midi": 40,
            "name": "E2",
            "ticks": 145722,
            "time": 208.302811890625,
            "velocity": 0.6850393700787402
          },
          {
            "duration": 0.08313922395834084,
            "durationTicks": 58,
            "midi": 47,
            "name": "B2",
            "ticks": 145722,
            "time": 208.302811890625,
            "velocity": 0.7637795275590551
          },
          {
            "duration": 0.12900914062498714,
            "durationTicks": 90,
            "midi": 59,
            "name": "B3",
            "ticks": 145916,
            "time": 208.58089826041666,
            "velocity": 0.7086614173228346
          },
          {
            "duration": 0.09173983333332103,
            "durationTicks": 64,
            "midi": 47,
            "name": "B2",
            "ticks": 145918,
            "time": 208.58376513020835,
            "velocity": 0.7952755905511811
          },
          {
            "duration": 0.0860060937500009,
            "durationTicks": 60,
            "midi": 54,
            "name": "F#3",
            "ticks": 145918,
            "time": 208.58376513020835,
            "velocity": 0.7716535433070866
          },
          {
            "duration": 0.06307113541669196,
            "durationTicks": 44,
            "midi": 47,
            "name": "B2",
            "ticks": 146108,
            "time": 208.85611776041665,
            "velocity": 0.7401574803149606
          },
          {
            "duration": 0.06880487500001209,
            "durationTicks": 48,
            "midi": 54,
            "name": "F#3",
            "ticks": 146110,
            "time": 208.85898463020834,
            "velocity": 0.7480314960629921
          },
          {
            "duration": 0.06307113541666354,
            "durationTicks": 44,
            "midi": 54,
            "name": "F#3",
            "ticks": 146202,
            "time": 208.990860640625,
            "velocity": 0.7637795275590551
          },
          {
            "duration": 0.06020426562500347,
            "durationTicks": 42,
            "midi": 47,
            "name": "B2",
            "ticks": 146204,
            "time": 208.99372751041665,
            "velocity": 0.7480314960629921
          },
          {
            "duration": 0.10320731250001813,
            "durationTicks": 72,
            "midi": 47,
            "name": "B2",
            "ticks": 146302,
            "time": 209.13420413020833,
            "velocity": 0.8031496062992126
          },
          {
            "duration": 0.10034044270832965,
            "durationTicks": 70,
            "midi": 54,
            "name": "F#3",
            "ticks": 146302,
            "time": 209.13420413020833,
            "velocity": 0.7322834645669292
          },
          {
            "duration": 0.08887296354166097,
            "durationTicks": 62,
            "midi": 54,
            "name": "F#3",
            "ticks": 146490,
            "time": 209.403689890625,
            "velocity": 0.7401574803149606
          },
          {
            "duration": 0.08887296354168939,
            "durationTicks": 62,
            "midi": 47,
            "name": "B2",
            "ticks": 146492,
            "time": 209.40655676041666,
            "velocity": 0.7401574803149606
          },
          {
            "duration": 0.13187601041667563,
            "durationTicks": 92,
            "midi": 59,
            "name": "B3",
            "ticks": 146492,
            "time": 209.40655676041666,
            "velocity": 0.7007874015748031
          },
          {
            "duration": 0.09747357291666958,
            "durationTicks": 68,
            "midi": 47,
            "name": "B2",
            "ticks": 146682,
            "time": 209.678909390625,
            "velocity": 0.7637795275590551
          },
          {
            "duration": 0.08027235416665235,
            "durationTicks": 56,
            "midi": 54,
            "name": "F#3",
            "ticks": 146682,
            "time": 209.678909390625,
            "velocity": 0.7322834645669292
          },
          {
            "duration": 0.0946067031249811,
            "durationTicks": 66,
            "midi": 54,
            "name": "F#3",
            "ticks": 146874,
            "time": 209.95412889062501,
            "velocity": 0.7795275590551181
          },
          {
            "duration": 0.11180792187499833,
            "durationTicks": 78,
            "midi": 47,
            "name": "B2",
            "ticks": 146876,
            "time": 209.95699576041665,
            "velocity": 0.8031496062992126
          },
          {
            "duration": 0.10034044270835807,
            "durationTicks": 70,
            "midi": 59,
            "name": "B3",
            "ticks": 146876,
            "time": 209.95699576041665,
            "velocity": 0.7007874015748031
          },
          {
            "duration": 0.12327540104166701,
            "durationTicks": 86,
            "midi": 47,
            "name": "B2",
            "ticks": 147068,
            "time": 210.23221526041667,
            "velocity": 0.8031496062992126
          },
          {
            "duration": 0.11180792187499833,
            "durationTicks": 78,
            "midi": 54,
            "name": "F#3",
            "ticks": 147070,
            "time": 210.23508213020835,
            "velocity": 0.7795275590551181
          },
          {
            "duration": 0.12040853124997852,
            "durationTicks": 84,
            "midi": 59,
            "name": "B3",
            "ticks": 147070,
            "time": 210.23508213020835,
            "velocity": 0.7007874015748031
          },
          {
            "duration": 0.11754166145834688,
            "durationTicks": 82,
            "midi": 52,
            "name": "E3",
            "ticks": 147258,
            "time": 210.504567890625,
            "velocity": 0.7401574803149606
          },
          {
            "duration": 0.09173983333332103,
            "durationTicks": 64,
            "midi": 45,
            "name": "A2",
            "ticks": 147262,
            "time": 210.51030163020835,
            "velocity": 0.7322834645669292
          },
          {
            "duration": 0.09460670312500952,
            "durationTicks": 66,
            "midi": 52,
            "name": "E3",
            "ticks": 147450,
            "time": 210.779787390625,
            "velocity": 0.7637795275590551
          },
          {
            "duration": 0.12900914062501556,
            "durationTicks": 90,
            "midi": 57,
            "name": "A3",
            "ticks": 147450,
            "time": 210.779787390625,
            "velocity": 0.7086614173228346
          },
          {
            "duration": 0.09460670312500952,
            "durationTicks": 66,
            "midi": 45,
            "name": "A2",
            "ticks": 147454,
            "time": 210.78552113020834,
            "velocity": 0.7637795275590551
          },
          {
            "duration": 0.07167174479164373,
            "durationTicks": 50,
            "midi": 45,
            "name": "A2",
            "ticks": 147642,
            "time": 211.055006890625,
            "velocity": 0.6692913385826772
          },
          {
            "duration": 0.07740548437499228,
            "durationTicks": 54,
            "midi": 52,
            "name": "E3",
            "ticks": 147646,
            "time": 211.06074063020836,
            "velocity": 0.7244094488188977
          },
          {
            "duration": 0.07740548437499228,
            "durationTicks": 54,
            "midi": 45,
            "name": "A2",
            "ticks": 147738,
            "time": 211.192616640625,
            "velocity": 0.7165354330708661
          },
          {
            "duration": 0.09173983333334945,
            "durationTicks": 64,
            "midi": 52,
            "name": "E3",
            "ticks": 147740,
            "time": 211.19548351041666,
            "velocity": 0.6850393700787402
          },
          {
            "duration": 0.08887296354166097,
            "durationTicks": 62,
            "midi": 45,
            "name": "A2",
            "ticks": 147834,
            "time": 211.330226390625,
            "velocity": 0.6850393700787402
          },
          {
            "duration": 0.07740548437499228,
            "durationTicks": 54,
            "midi": 52,
            "name": "E3",
            "ticks": 147838,
            "time": 211.33596013020835,
            "velocity": 0.7244094488188977
          },
          {
            "duration": 0.09173983333334945,
            "durationTicks": 64,
            "midi": 45,
            "name": "A2",
            "ticks": 148026,
            "time": 211.605445890625,
            "velocity": 0.7322834645669292
          },
          {
            "duration": 0.1347428802083641,
            "durationTicks": 94,
            "midi": 57,
            "name": "A3",
            "ticks": 148026,
            "time": 211.605445890625,
            "velocity": 0.7086614173228346
          },
          {
            "duration": 0.09460670312500952,
            "durationTicks": 66,
            "midi": 52,
            "name": "E3",
            "ticks": 148028,
            "time": 211.60831276041665,
            "velocity": 0.7244094488188977
          },
          {
            "duration": 0.10034044270835807,
            "durationTicks": 70,
            "midi": 52,
            "name": "E3",
            "ticks": 148220,
            "time": 211.88353226041664,
            "velocity": 0.7480314960629921
          },
          {
            "duration": 0.11180792187499833,
            "durationTicks": 78,
            "midi": 45,
            "name": "A2",
            "ticks": 148222,
            "time": 211.88639913020833,
            "velocity": 0.7086614173228346
          },
          {
            "duration": 0.08887296354166097,
            "durationTicks": 62,
            "midi": 45,
            "name": "A2",
            "ticks": 148410,
            "time": 212.155884890625,
            "velocity": 0.7244094488188977
          },
          {
            "duration": 0.08887296354166097,
            "durationTicks": 62,
            "midi": 52,
            "name": "E3",
            "ticks": 148410,
            "time": 212.155884890625,
            "velocity": 0.7244094488188977
          },
          {
            "duration": 0.10034044270830123,
            "durationTicks": 70,
            "midi": 57,
            "name": "A3",
            "ticks": 148414,
            "time": 212.16161863020835,
            "velocity": 0.7165354330708661
          },
          {
            "duration": 0.12900914062501556,
            "durationTicks": 90,
            "midi": 57,
            "name": "A3",
            "ticks": 148602,
            "time": 212.431104390625,
            "velocity": 0.7165354330708661
          },
          {
            "duration": 0.12040853125000694,
            "durationTicks": 84,
            "midi": 45,
            "name": "A2",
            "ticks": 148606,
            "time": 212.43683813020834,
            "velocity": 0.7165354330708661
          },
          {
            "duration": 0.10894105208330984,
            "durationTicks": 76,
            "midi": 52,
            "name": "E3",
            "ticks": 148606,
            "time": 212.43683813020834,
            "velocity": 0.7480314960629921
          },
          {
            "duration": 0.09173983333332103,
            "durationTicks": 64,
            "midi": 45,
            "name": "A2",
            "ticks": 148798,
            "time": 212.71205763020834,
            "velocity": 0.6850393700787402
          },
          {
            "duration": 0.08313922395831241,
            "durationTicks": 58,
            "midi": 52,
            "name": "E3",
            "ticks": 148798,
            "time": 212.71205763020834,
            "velocity": 0.7086614173228346
          },
          {
            "duration": 0.08887296354166097,
            "durationTicks": 62,
            "midi": 40,
            "name": "E2",
            "ticks": 148986,
            "time": 212.981543390625,
            "velocity": 0.7322834645669292
          },
          {
            "duration": 0.1146747916666584,
            "durationTicks": 80,
            "midi": 52,
            "name": "E3",
            "ticks": 148986,
            "time": 212.981543390625,
            "velocity": 0.7086614173228346
          },
          {
            "duration": 0.08887296354163254,
            "durationTicks": 62,
            "midi": 47,
            "name": "B2",
            "ticks": 148990,
            "time": 212.98727713020835,
            "velocity": 0.8031496062992126
          },
          {
            "duration": 0.08027235416665235,
            "durationTicks": 56,
            "midi": 40,
            "name": "E2",
            "ticks": 149178,
            "time": 213.256762890625,
            "velocity": 0.7165354330708661
          },
          {
            "duration": 0.06880487500001209,
            "durationTicks": 48,
            "midi": 47,
            "name": "B2",
            "ticks": 149180,
            "time": 213.25962976041666,
            "velocity": 0.7716535433070866
          },
          {
            "duration": 0.08027235416665235,
            "durationTicks": 56,
            "midi": 40,
            "name": "E2",
            "ticks": 149278,
            "time": 213.40010638020834,
            "velocity": 0.7007874015748031
          },
          {
            "duration": 0.08887296354166097,
            "durationTicks": 62,
            "midi": 47,
            "name": "B2",
            "ticks": 149278,
            "time": 213.40010638020834,
            "velocity": 0.7480314960629921
          },
          {
            "duration": 0.08313922395836926,
            "durationTicks": 58,
            "midi": 47,
            "name": "B2",
            "ticks": 149370,
            "time": 213.531982390625,
            "velocity": 0.7795275590551181
          },
          {
            "duration": 0.10034044270832965,
            "durationTicks": 70,
            "midi": 40,
            "name": "E2",
            "ticks": 149374,
            "time": 213.53771613020834,
            "velocity": 0.7322834645669292
          },
          {
            "duration": 0.0860060937500009,
            "durationTicks": 60,
            "midi": 47,
            "name": "B2",
            "ticks": 149564,
            "time": 213.81006876041667,
            "velocity": 0.7952755905511811
          },
          {
            "duration": 0.0946067031249811,
            "durationTicks": 66,
            "midi": 40,
            "name": "E2",
            "ticks": 149566,
            "time": 213.81293563020836,
            "velocity": 0.7401574803149606
          },
          {
            "duration": 0.11754166145829004,
            "durationTicks": 82,
            "midi": 52,
            "name": "E3",
            "ticks": 149566,
            "time": 213.81293563020836,
            "velocity": 0.7165354330708661
          },
          {
            "duration": 0.09747357291666958,
            "durationTicks": 68,
            "midi": 47,
            "name": "B2",
            "ticks": 149756,
            "time": 214.08528826041666,
            "velocity": 0.7874015748031497
          },
          {
            "duration": 0.11754166145831846,
            "durationTicks": 82,
            "midi": 40,
            "name": "E2",
            "ticks": 149758,
            "time": 214.08815513020835,
            "velocity": 0.7165354330708661
          },
          {
            "duration": 0.10320731250001813,
            "durationTicks": 72,
            "midi": 52,
            "name": "E3",
            "ticks": 149946,
            "time": 214.357640890625,
            "velocity": 0.7086614173228346
          },
          {
            "duration": 0.09460670312500952,
            "durationTicks": 66,
            "midi": 47,
            "name": "B2",
            "ticks": 149948,
            "time": 214.36050776041665,
            "velocity": 0.7874015748031497
          },
          {
            "duration": 0.10320731249998971,
            "durationTicks": 72,
            "midi": 40,
            "name": "E2",
            "ticks": 149950,
            "time": 214.36337463020834,
            "velocity": 0.7322834645669292
          },
          {
            "duration": 0.1318760104166472,
            "durationTicks": 92,
            "midi": 40,
            "name": "E2",
            "ticks": 150138,
            "time": 214.632860390625,
            "velocity": 0.6456692913385826
          },
          {
            "duration": 0.10320731249998971,
            "durationTicks": 72,
            "midi": 47,
            "name": "B2",
            "ticks": 150138,
            "time": 214.632860390625,
            "velocity": 0.7795275590551181
          },
          {
            "duration": 0.12040853124997852,
            "durationTicks": 84,
            "midi": 52,
            "name": "E3",
            "ticks": 150138,
            "time": 214.632860390625,
            "velocity": 0.7086614173228346
          },
          {
            "duration": 0.09460670312500952,
            "durationTicks": 66,
            "midi": 47,
            "name": "B2",
            "ticks": 150330,
            "time": 214.908079890625,
            "velocity": 0.7874015748031497
          },
          {
            "duration": 0.10607418229164978,
            "durationTicks": 74,
            "midi": 40,
            "name": "E2",
            "ticks": 150334,
            "time": 214.91381363020835,
            "velocity": 0.7480314960629921
          },
          {
            "duration": 0.08887296354166097,
            "durationTicks": 62,
            "midi": 47,
            "name": "B2",
            "ticks": 150522,
            "time": 215.183299390625,
            "velocity": 0.8031496062992126
          },
          {
            "duration": 0.1146747916666584,
            "durationTicks": 80,
            "midi": 52,
            "name": "E3",
            "ticks": 150522,
            "time": 215.183299390625,
            "velocity": 0.7086614173228346
          },
          {
            "duration": 0.08887296354168939,
            "durationTicks": 62,
            "midi": 40,
            "name": "E2",
            "ticks": 150524,
            "time": 215.18616626041666,
            "velocity": 0.7322834645669292
          },
          {
            "duration": 0.08027235416668077,
            "durationTicks": 56,
            "midi": 40,
            "name": "E2",
            "ticks": 150714,
            "time": 215.458518890625,
            "velocity": 0.7165354330708661
          },
          {
            "duration": 0.06880487500001209,
            "durationTicks": 48,
            "midi": 47,
            "name": "B2",
            "ticks": 150718,
            "time": 215.46425263020834,
            "velocity": 0.7716535433070866
          },
          {
            "duration": 0.08027235416668077,
            "durationTicks": 56,
            "midi": 40,
            "name": "E2",
            "ticks": 150814,
            "time": 215.60186238020833,
            "velocity": 0.7007874015748031
          },
          {
            "duration": 0.08887296354166097,
            "durationTicks": 62,
            "midi": 47,
            "name": "B2",
            "ticks": 150814,
            "time": 215.60186238020833,
            "velocity": 0.7480314960629921
          },
          {
            "duration": 0.08313922395834084,
            "durationTicks": 58,
            "midi": 47,
            "name": "B2",
            "ticks": 150906,
            "time": 215.733738390625,
            "velocity": 0.7795275590551181
          },
          {
            "duration": 0.10034044270832965,
            "durationTicks": 70,
            "midi": 40,
            "name": "E2",
            "ticks": 150908,
            "time": 215.73660526041667,
            "velocity": 0.7322834645669292
          },
          {
            "duration": 0.11754166145834688,
            "durationTicks": 82,
            "midi": 52,
            "name": "E3",
            "ticks": 151098,
            "time": 216.008957890625,
            "velocity": 0.7165354330708661
          },
          {
            "duration": 0.09460670312500952,
            "durationTicks": 66,
            "midi": 40,
            "name": "E2",
            "ticks": 151102,
            "time": 216.01469163020835,
            "velocity": 0.7401574803149606
          },
          {
            "duration": 0.0860060937500009,
            "durationTicks": 60,
            "midi": 47,
            "name": "B2",
            "ticks": 151102,
            "time": 216.01469163020835,
            "velocity": 0.7952755905511811
          },
          {
            "duration": 0.097473572916698,
            "durationTicks": 68,
            "midi": 47,
            "name": "B2",
            "ticks": 151292,
            "time": 216.28704426041665,
            "velocity": 0.7874015748031497
          },
          {
            "duration": 0.11754166145831846,
            "durationTicks": 82,
            "midi": 40,
            "name": "E2",
            "ticks": 151294,
            "time": 216.28991113020834,
            "velocity": 0.7165354330708661
          },
          {
            "duration": 0.0946067031249811,
            "durationTicks": 66,
            "midi": 47,
            "name": "B2",
            "ticks": 151482,
            "time": 216.559396890625,
            "velocity": 0.7874015748031497
          },
          {
            "duration": 0.10320731249998971,
            "durationTicks": 72,
            "midi": 52,
            "name": "E3",
            "ticks": 151482,
            "time": 216.559396890625,
            "velocity": 0.7086614173228346
          },
          {
            "duration": 0.10320731249998971,
            "durationTicks": 72,
            "midi": 40,
            "name": "E2",
            "ticks": 151486,
            "time": 216.56513063020836,
            "velocity": 0.7322834645669292
          },
          {
            "duration": 0.1318760104166472,
            "durationTicks": 92,
            "midi": 40,
            "name": "E2",
            "ticks": 151674,
            "time": 216.834616390625,
            "velocity": 0.6456692913385826
          },
          {
            "duration": 0.10320731249998971,
            "durationTicks": 72,
            "midi": 47,
            "name": "B2",
            "ticks": 151676,
            "time": 216.83748326041666,
            "velocity": 0.7795275590551181
          },
          {
            "duration": 0.12040853125000694,
            "durationTicks": 84,
            "midi": 52,
            "name": "E3",
            "ticks": 151676,
            "time": 216.83748326041666,
            "velocity": 0.7086614173228346
          },
          {
            "duration": 0.1060741822916782,
            "durationTicks": 74,
            "midi": 40,
            "name": "E2",
            "ticks": 151866,
            "time": 217.109835890625,
            "velocity": 0.7480314960629921
          },
          {
            "duration": 0.09460670312500952,
            "durationTicks": 66,
            "midi": 47,
            "name": "B2",
            "ticks": 151866,
            "time": 217.109835890625,
            "velocity": 0.7874015748031497
          },
          {
            "duration": 0.09173983333334945,
            "durationTicks": 64,
            "midi": 47,
            "name": "B2",
            "ticks": 152060,
            "time": 217.38792226041664,
            "velocity": 0.7952755905511811
          },
          {
            "duration": 0.0860060937500009,
            "durationTicks": 60,
            "midi": 54,
            "name": "F#3",
            "ticks": 152060,
            "time": 217.38792226041664,
            "velocity": 0.7716535433070866
          },
          {
            "duration": 0.12900914062501556,
            "durationTicks": 90,
            "midi": 59,
            "name": "B3",
            "ticks": 152062,
            "time": 217.39078913020833,
            "velocity": 0.7086614173228346
          },
          {
            "duration": 0.06307113541669196,
            "durationTicks": 44,
            "midi": 47,
            "name": "B2",
            "ticks": 152252,
            "time": 217.66314176041666,
            "velocity": 0.7401574803149606
          },
          {
            "duration": 0.06880487499998367,
            "durationTicks": 48,
            "midi": 54,
            "name": "F#3",
            "ticks": 152254,
            "time": 217.66600863020835,
            "velocity": 0.7480314960629921
          },
          {
            "duration": 0.06020426562500347,
            "durationTicks": 42,
            "midi": 47,
            "name": "B2",
            "ticks": 152350,
            "time": 217.80361838020835,
            "velocity": 0.7480314960629921
          },
          {
            "duration": 0.06307113541666354,
            "durationTicks": 44,
            "midi": 54,
            "name": "F#3",
            "ticks": 152350,
            "time": 217.80361838020835,
            "velocity": 0.7637795275590551
          },
          {
            "duration": 0.10320731249998971,
            "durationTicks": 72,
            "midi": 47,
            "name": "B2",
            "ticks": 152444,
            "time": 217.93836126041666,
            "velocity": 0.8031496062992126
          },
          {
            "duration": 0.10034044270830123,
            "durationTicks": 70,
            "midi": 54,
            "name": "F#3",
            "ticks": 152446,
            "time": 217.94122813020834,
            "velocity": 0.7322834645669292
          },
          {
            "duration": 0.08887296354168939,
            "durationTicks": 62,
            "midi": 54,
            "name": "F#3",
            "ticks": 152636,
            "time": 218.21358076041665,
            "velocity": 0.7401574803149606
          },
          {
            "duration": 0.08887296354166097,
            "durationTicks": 62,
            "midi": 47,
            "name": "B2",
            "ticks": 152638,
            "time": 218.21644763020834,
            "velocity": 0.7401574803149606
          },
          {
            "duration": 0.13187601041667563,
            "durationTicks": 92,
            "midi": 59,
            "name": "B3",
            "ticks": 152638,
            "time": 218.21644763020834,
            "velocity": 0.7007874015748031
          },
          {
            "duration": 0.09747357291666958,
            "durationTicks": 68,
            "midi": 47,
            "name": "B2",
            "ticks": 152828,
            "time": 218.48880026041667,
            "velocity": 0.7637795275590551
          },
          {
            "duration": 0.08027235416668077,
            "durationTicks": 56,
            "midi": 54,
            "name": "F#3",
            "ticks": 152828,
            "time": 218.48880026041667,
            "velocity": 0.7322834645669292
          },
          {
            "duration": 0.10034044270835807,
            "durationTicks": 70,
            "midi": 59,
            "name": "B3",
            "ticks": 153018,
            "time": 218.761152890625,
            "velocity": 0.7007874015748031
          },
          {
            "duration": 0.09460670312500952,
            "durationTicks": 66,
            "midi": 54,
            "name": "F#3",
            "ticks": 153020,
            "time": 218.76401976041666,
            "velocity": 0.7795275590551181
          },
          {
            "duration": 0.11180792187499833,
            "durationTicks": 78,
            "midi": 47,
            "name": "B2",
            "ticks": 153022,
            "time": 218.76688663020835,
            "velocity": 0.8031496062992126
          },
          {
            "duration": 0.12327540104169543,
            "durationTicks": 86,
            "midi": 47,
            "name": "B2",
            "ticks": 153212,
            "time": 219.03923926041665,
            "velocity": 0.8031496062992126
          },
          {
            "duration": 0.11180792187499833,
            "durationTicks": 78,
            "midi": 54,
            "name": "F#3",
            "ticks": 153212,
            "time": 219.03923926041665,
            "velocity": 0.7795275590551181
          },
          {
            "duration": 0.12040853125000694,
            "durationTicks": 84,
            "midi": 59,
            "name": "B3",
            "ticks": 153214,
            "time": 219.04210613020834,
            "velocity": 0.7007874015748031
          },
          {
            "duration": 0.09173983333332103,
            "durationTicks": 64,
            "midi": 45,
            "name": "A2",
            "ticks": 153402,
            "time": 219.311591890625,
            "velocity": 0.7322834645669292
          },
          {
            "duration": 0.11754166145834688,
            "durationTicks": 82,
            "midi": 52,
            "name": "E3",
            "ticks": 153402,
            "time": 219.311591890625,
            "velocity": 0.7401574803149606
          },
          {
            "duration": 0.09460670312500952,
            "durationTicks": 66,
            "midi": 45,
            "name": "A2",
            "ticks": 153594,
            "time": 219.586811390625,
            "velocity": 0.7637795275590551
          },
          {
            "duration": 0.09460670312500952,
            "durationTicks": 66,
            "midi": 52,
            "name": "E3",
            "ticks": 153594,
            "time": 219.586811390625,
            "velocity": 0.7637795275590551
          },
          {
            "duration": 0.12900914062498714,
            "durationTicks": 90,
            "midi": 57,
            "name": "A3",
            "ticks": 153598,
            "time": 219.59254513020835,
            "velocity": 0.7086614173228346
          },
          {
            "duration": 0.0774054843750207,
            "durationTicks": 54,
            "midi": 52,
            "name": "E3",
            "ticks": 153786,
            "time": 219.862030890625,
            "velocity": 0.7244094488188977
          },
          {
            "duration": 0.07167174479167215,
            "durationTicks": 50,
            "midi": 45,
            "name": "A2",
            "ticks": 153790,
            "time": 219.86776463020834,
            "velocity": 0.6692913385826772
          },
          {
            "duration": 0.0774054843750207,
            "durationTicks": 54,
            "midi": 45,
            "name": "A2",
            "ticks": 153884,
            "time": 220.00250751041665,
            "velocity": 0.7165354330708661
          },
          {
            "duration": 0.09173983333334945,
            "durationTicks": 64,
            "midi": 52,
            "name": "E3",
            "ticks": 153884,
            "time": 220.00250751041665,
            "velocity": 0.6850393700787402
          },
          {
            "duration": 0.07740548437499228,
            "durationTicks": 54,
            "midi": 52,
            "name": "E3",
            "ticks": 153978,
            "time": 220.137250390625,
            "velocity": 0.7244094488188977
          },
          {
            "duration": 0.08887296354166097,
            "durationTicks": 62,
            "midi": 45,
            "name": "A2",
            "ticks": 153982,
            "time": 220.14298413020833,
            "velocity": 0.6850393700787402
          },
          {
            "duration": 0.09460670312500952,
            "durationTicks": 66,
            "midi": 52,
            "name": "E3",
            "ticks": 154170,
            "time": 220.412469890625,
            "velocity": 0.7244094488188977
          },
          {
            "duration": 0.1347428802083357,
            "durationTicks": 94,
            "midi": 57,
            "name": "A3",
            "ticks": 154170,
            "time": 220.412469890625,
            "velocity": 0.7086614173228346
          },
          {
            "duration": 0.09173983333329261,
            "durationTicks": 64,
            "midi": 45,
            "name": "A2",
            "ticks": 154174,
            "time": 220.41820363020835,
            "velocity": 0.7322834645669292
          },
          {
            "duration": 0.11180792187499833,
            "durationTicks": 78,
            "midi": 45,
            "name": "A2",
            "ticks": 154362,
            "time": 220.687689390625,
            "velocity": 0.7086614173228346
          },
          {
            "duration": 0.10034044270830123,
            "durationTicks": 70,
            "midi": 52,
            "name": "E3",
            "ticks": 154366,
            "time": 220.69342313020834,
            "velocity": 0.7480314960629921
          },
          {
            "duration": 0.08887296354166097,
            "durationTicks": 62,
            "midi": 52,
            "name": "E3",
            "ticks": 154554,
            "time": 220.962908890625,
            "velocity": 0.7244094488188977
          },
          {
            "duration": 0.08887296354168939,
            "durationTicks": 62,
            "midi": 45,
            "name": "A2",
            "ticks": 154556,
            "time": 220.96577576041665,
            "velocity": 0.7244094488188977
          },
          {
            "duration": 0.10034044270835807,
            "durationTicks": 70,
            "midi": 57,
            "name": "A3",
            "ticks": 154556,
            "time": 220.96577576041665,
            "velocity": 0.7165354330708661
          },
          {
            "duration": 0.10894105208333826,
            "durationTicks": 76,
            "midi": 52,
            "name": "E3",
            "ticks": 154746,
            "time": 221.238128390625,
            "velocity": 0.7480314960629921
          },
          {
            "duration": 0.12900914062498714,
            "durationTicks": 90,
            "midi": 57,
            "name": "A3",
            "ticks": 154746,
            "time": 221.238128390625,
            "velocity": 0.7165354330708661
          },
          {
            "duration": 0.12040853124997852,
            "durationTicks": 84,
            "midi": 45,
            "name": "A2",
            "ticks": 154750,
            "time": 221.24386213020836,
            "velocity": 0.7165354330708661
          },
          {
            "duration": 0.09173983333334945,
            "durationTicks": 64,
            "midi": 45,
            "name": "A2",
            "ticks": 154940,
            "time": 221.51621476041666,
            "velocity": 0.6850393700787402
          },
          {
            "duration": 0.08313922395831241,
            "durationTicks": 58,
            "midi": 52,
            "name": "E3",
            "ticks": 154942,
            "time": 221.51908163020835,
            "velocity": 0.7086614173228346
          },
          {
            "duration": 0.08887296354166097,
            "durationTicks": 62,
            "midi": 47,
            "name": "B2",
            "ticks": 155130,
            "time": 221.788567390625,
            "velocity": 0.8031496062992126
          },
          {
            "duration": 0.11467479166668682,
            "durationTicks": 80,
            "midi": 52,
            "name": "E3",
            "ticks": 155132,
            "time": 221.79143426041665,
            "velocity": 0.7086614173228346
          },
          {
            "duration": 0.08887296354166097,
            "durationTicks": 62,
            "midi": 40,
            "name": "E2",
            "ticks": 155134,
            "time": 221.79430113020834,
            "velocity": 0.7322834645669292
          },
          {
            "duration": 0.06880487499998367,
            "durationTicks": 48,
            "midi": 47,
            "name": "B2",
            "ticks": 155324,
            "time": 222.06665376041667,
            "velocity": 0.7716535433070866
          },
          {
            "duration": 0.08027235416668077,
            "durationTicks": 56,
            "midi": 40,
            "name": "E2",
            "ticks": 155326,
            "time": 222.06952063020833,
            "velocity": 0.7165354330708661
          },
          {
            "duration": 0.08887296354168939,
            "durationTicks": 62,
            "midi": 47,
            "name": "B2",
            "ticks": 155420,
            "time": 222.20426351041667,
            "velocity": 0.7480314960629921
          },
          {
            "duration": 0.08027235416665235,
            "durationTicks": 56,
            "midi": 40,
            "name": "E2",
            "ticks": 155422,
            "time": 222.20713038020835,
            "velocity": 0.7007874015748031
          },
          {
            "duration": 0.08313922395834084,
            "durationTicks": 58,
            "midi": 47,
            "name": "B2",
            "ticks": 155516,
            "time": 222.34187326041666,
            "velocity": 0.7795275590551181
          },
          {
            "duration": 0.10034044270830123,
            "durationTicks": 70,
            "midi": 40,
            "name": "E2",
            "ticks": 155518,
            "time": 222.34474013020835,
            "velocity": 0.7322834645669292
          },
          {
            "duration": 0.11754166145834688,
            "durationTicks": 82,
            "midi": 52,
            "name": "E3",
            "ticks": 155708,
            "time": 222.61709276041665,
            "velocity": 0.7165354330708661
          },
          {
            "duration": 0.09460670312500952,
            "durationTicks": 66,
            "midi": 40,
            "name": "E2",
            "ticks": 155710,
            "time": 222.61995963020834,
            "velocity": 0.7401574803149606
          },
          {
            "duration": 0.0860060937500009,
            "durationTicks": 60,
            "midi": 47,
            "name": "B2",
            "ticks": 155710,
            "time": 222.61995963020834,
            "velocity": 0.7952755905511811
          },
          {
            "duration": 0.09747357291664116,
            "durationTicks": 68,
            "midi": 47,
            "name": "B2",
            "ticks": 155898,
            "time": 222.889445390625,
            "velocity": 0.7874015748031497
          },
          {
            "duration": 0.11754166145834688,
            "durationTicks": 82,
            "midi": 40,
            "name": "E2",
            "ticks": 155900,
            "time": 222.89231226041665,
            "velocity": 0.7165354330708661
          },
          {
            "duration": 0.10320731249998971,
            "durationTicks": 72,
            "midi": 40,
            "name": "E2",
            "ticks": 156090,
            "time": 223.164664890625,
            "velocity": 0.7322834645669292
          },
          {
            "duration": 0.10320731249998971,
            "durationTicks": 72,
            "midi": 52,
            "name": "E3",
            "ticks": 156090,
            "time": 223.164664890625,
            "velocity": 0.7086614173228346
          },
          {
            "duration": 0.0946067031249811,
            "durationTicks": 66,
            "midi": 47,
            "name": "B2",
            "ticks": 156092,
            "time": 223.16753176041667,
            "velocity": 0.7874015748031497
          },
          {
            "duration": 0.12040853125000694,
            "durationTicks": 84,
            "midi": 52,
            "name": "E3",
            "ticks": 156282,
            "time": 223.439884390625,
            "velocity": 0.7086614173228346
          },
          {
            "duration": 0.13187601041667563,
            "durationTicks": 92,
            "midi": 40,
            "name": "E2",
            "ticks": 156284,
            "time": 223.44275126041666,
            "velocity": 0.6456692913385826
          },
          {
            "duration": 0.10320731249998971,
            "durationTicks": 72,
            "midi": 47,
            "name": "B2",
            "ticks": 156284,
            "time": 223.44275126041666,
            "velocity": 0.7795275590551181
          },
          {
            "duration": 0.1060741822916782,
            "durationTicks": 74,
            "midi": 40,
            "name": "E2",
            "ticks": 156474,
            "time": 223.715103890625,
            "velocity": 0.7480314960629921
          },
          {
            "duration": 0.09460670312500952,
            "durationTicks": 66,
            "midi": 47,
            "name": "B2",
            "ticks": 156474,
            "time": 223.715103890625,
            "velocity": 0.7874015748031497
          },
          {
            "duration": 0.14047661979165582,
            "durationTicks": 98,
            "midi": 40,
            "name": "E2",
            "ticks": 156666,
            "time": 223.990323390625,
            "velocity": 0.7637795275590551
          },
          {
            "duration": 0.13187601041667563,
            "durationTicks": 92,
            "midi": 47,
            "name": "B2",
            "ticks": 156668,
            "time": 223.99319026041667,
            "velocity": 0.8110236220472441
          },
          {
            "duration": 0.12040853124997852,
            "durationTicks": 84,
            "midi": 52,
            "name": "E3",
            "ticks": 156670,
            "time": 223.99605713020836,
            "velocity": 0.7086614173228346
          },
          {
            "duration": 0.07740548437499228,
            "durationTicks": 54,
            "midi": 40,
            "name": "E2",
            "ticks": 158202,
            "time": 226.192079390625,
            "velocity": 0.7716535433070866
          },
          {
            "duration": 0.08027235416665235,
            "durationTicks": 56,
            "midi": 47,
            "name": "B2",
            "ticks": 158202,
            "time": 226.192079390625,
            "velocity": 0.8031496062992126
          },
          {
            "duration": 0.097473572916698,
            "durationTicks": 68,
            "midi": 52,
            "name": "E3",
            "ticks": 158204,
            "time": 226.19494626041666,
            "velocity": 0.7007874015748031
          },
          {
            "duration": 0.06880487500001209,
            "durationTicks": 48,
            "midi": 40,
            "name": "E2",
            "ticks": 158396,
            "time": 226.47016576041665,
            "velocity": 0.7165354330708661
          },
          {
            "duration": 0.0774054843750207,
            "durationTicks": 54,
            "midi": 47,
            "name": "B2",
            "ticks": 158398,
            "time": 226.47303263020834,
            "velocity": 0.7401574803149606
          },
          {
            "duration": 0.07453861458333222,
            "durationTicks": 52,
            "midi": 47,
            "name": "B2",
            "ticks": 158490,
            "time": 226.604908640625,
            "velocity": 0.7007874015748031
          },
          {
            "duration": 0.097473572916698,
            "durationTicks": 68,
            "midi": 40,
            "name": "E2",
            "ticks": 158492,
            "time": 226.60777551041664,
            "velocity": 0.6535433070866141
          },
          {
            "duration": 0.07453861458333222,
            "durationTicks": 52,
            "midi": 47,
            "name": "B2",
            "ticks": 158586,
            "time": 226.742518390625,
            "velocity": 0.7086614173228346
          },
          {
            "duration": 0.08027235416665235,
            "durationTicks": 56,
            "midi": 40,
            "name": "E2",
            "ticks": 158590,
            "time": 226.74825213020836,
            "velocity": 0.6220472440944882
          },
          {
            "duration": 0.11754166145834688,
            "durationTicks": 82,
            "midi": 40,
            "name": "E2",
            "ticks": 158780,
            "time": 227.02060476041666,
            "velocity": 0.6850393700787402
          },
          {
            "duration": 0.10034044270830123,
            "durationTicks": 70,
            "midi": 47,
            "name": "B2",
            "ticks": 158782,
            "time": 227.02347163020835,
            "velocity": 0.7874015748031497
          },
          {
            "duration": 0.12900914062498714,
            "durationTicks": 90,
            "midi": 52,
            "name": "E3",
            "ticks": 158782,
            "time": 227.02347163020835,
            "velocity": 0.6850393700787402
          },
          {
            "duration": 0.09747357291666958,
            "durationTicks": 68,
            "midi": 40,
            "name": "E2",
            "ticks": 158970,
            "time": 227.292957390625,
            "velocity": 0.7401574803149606
          },
          {
            "duration": 0.08313922395834084,
            "durationTicks": 58,
            "midi": 47,
            "name": "B2",
            "ticks": 158970,
            "time": 227.292957390625,
            "velocity": 0.7874015748031497
          },
          {
            "duration": 0.11754166145831846,
            "durationTicks": 82,
            "midi": 40,
            "name": "E2",
            "ticks": 159166,
            "time": 227.57391063020833,
            "velocity": 0.6850393700787402
          },
          {
            "duration": 0.09460670312500952,
            "durationTicks": 66,
            "midi": 47,
            "name": "B2",
            "ticks": 159166,
            "time": 227.57391063020833,
            "velocity": 0.7874015748031497
          },
          {
            "duration": 0.12327540104166701,
            "durationTicks": 86,
            "midi": 52,
            "name": "E3",
            "ticks": 159166,
            "time": 227.57391063020833,
            "velocity": 0.6929133858267716
          },
          {
            "duration": 0.14907722916666444,
            "durationTicks": 104,
            "midi": 52,
            "name": "E3",
            "ticks": 159354,
            "time": 227.843396390625,
            "velocity": 0.6850393700787402
          },
          {
            "duration": 0.09173983333329261,
            "durationTicks": 64,
            "midi": 40,
            "name": "E2",
            "ticks": 159358,
            "time": 227.84913013020835,
            "velocity": 0.7480314960629921
          },
          {
            "duration": 0.08887296354166097,
            "durationTicks": 62,
            "midi": 47,
            "name": "B2",
            "ticks": 159358,
            "time": 227.84913013020835,
            "velocity": 0.7874015748031497
          },
          {
            "duration": 0.12327540104166701,
            "durationTicks": 86,
            "midi": 40,
            "name": "E2",
            "ticks": 159550,
            "time": 228.12434963020834,
            "velocity": 0.7007874015748031
          },
          {
            "duration": 0.09460670312500952,
            "durationTicks": 66,
            "midi": 47,
            "name": "B2",
            "ticks": 159550,
            "time": 228.12434963020834,
            "velocity": 0.7874015748031497
          },
          {
            "duration": 0.097473572916698,
            "durationTicks": 68,
            "midi": 40,
            "name": "E2",
            "ticks": 159740,
            "time": 228.39670226041665,
            "velocity": 0.7401574803149606
          },
          {
            "duration": 0.0860060937500009,
            "durationTicks": 60,
            "midi": 47,
            "name": "B2",
            "ticks": 159740,
            "time": 228.39670226041665,
            "velocity": 0.7952755905511811
          },
          {
            "duration": 0.13187601041670405,
            "durationTicks": 92,
            "midi": 52,
            "name": "E3",
            "ticks": 159740,
            "time": 228.39670226041665,
            "velocity": 0.6929133858267716
          },
          {
            "duration": 0.07167174479167215,
            "durationTicks": 50,
            "midi": 40,
            "name": "E2",
            "ticks": 159932,
            "time": 228.67192176041667,
            "velocity": 0.6771653543307087
          },
          {
            "duration": 0.07453861458333222,
            "durationTicks": 52,
            "midi": 47,
            "name": "B2",
            "ticks": 159932,
            "time": 228.67192176041667,
            "velocity": 0.7637795275590551
          },
          {
            "duration": 0.09747357291666958,
            "durationTicks": 68,
            "midi": 40,
            "name": "E2",
            "ticks": 160028,
            "time": 228.80953151041666,
            "velocity": 0.6535433070866141
          },
          {
            "duration": 0.07740548437499228,
            "durationTicks": 54,
            "midi": 47,
            "name": "B2",
            "ticks": 160030,
            "time": 228.81239838020835,
            "velocity": 0.7322834645669292
          },
          {
            "duration": 0.07167174479167215,
            "durationTicks": 50,
            "midi": 47,
            "name": "B2",
            "ticks": 160122,
            "time": 228.944274390625,
            "velocity": 0.7637795275590551
          },
          {
            "duration": 0.08313922395831241,
            "durationTicks": 58,
            "midi": 40,
            "name": "E2",
            "ticks": 160126,
            "time": 228.95000813020835,
            "velocity": 0.6850393700787402
          },
          {
            "duration": 0.11180792187499833,
            "durationTicks": 78,
            "midi": 40,
            "name": "E2",
            "ticks": 160314,
            "time": 229.219493890625,
            "velocity": 0.6850393700787402
          },
          {
            "duration": 0.08313922395834084,
            "durationTicks": 58,
            "midi": 47,
            "name": "B2",
            "ticks": 160316,
            "time": 229.22236076041665,
            "velocity": 0.7716535433070866
          },
          {
            "duration": 0.13187601041670405,
            "durationTicks": 92,
            "midi": 52,
            "name": "E3",
            "ticks": 160316,
            "time": 229.22236076041665,
            "velocity": 0.7007874015748031
          },
          {
            "duration": 0.08313922395834084,
            "durationTicks": 58,
            "midi": 47,
            "name": "B2",
            "ticks": 160506,
            "time": 229.494713390625,
            "velocity": 0.7716535433070866
          },
          {
            "duration": 0.0946067031249811,
            "durationTicks": 66,
            "midi": 40,
            "name": "E2",
            "ticks": 160510,
            "time": 229.50044713020836,
            "velocity": 0.7007874015748031
          },
          {
            "duration": 0.09173983333334945,
            "durationTicks": 64,
            "midi": 47,
            "name": "B2",
            "ticks": 160698,
            "time": 229.769932890625,
            "velocity": 0.7795275590551181
          },
          {
            "duration": 0.10894105208333826,
            "durationTicks": 76,
            "midi": 52,
            "name": "E3",
            "ticks": 160700,
            "time": 229.77279976041666,
            "velocity": 0.6929133858267716
          },
          {
            "duration": 0.1146747916666584,
            "durationTicks": 80,
            "midi": 40,
            "name": "E2",
            "ticks": 160702,
            "time": 229.77566663020835,
            "velocity": 0.6850393700787402
          },
          {
            "duration": 0.09747357291666958,
            "durationTicks": 68,
            "midi": 40,
            "name": "E2",
            "ticks": 160890,
            "time": 230.045152390625,
            "velocity": 0.7401574803149606
          },
          {
            "duration": 0.09173983333334945,
            "durationTicks": 64,
            "midi": 47,
            "name": "B2",
            "ticks": 160892,
            "time": 230.04801926041665,
            "velocity": 0.7874015748031497
          },
          {
            "duration": 0.1433434895833159,
            "durationTicks": 100,
            "midi": 52,
            "name": "E3",
            "ticks": 160894,
            "time": 230.05088613020834,
            "velocity": 0.7007874015748031
          },
          {
            "duration": 0.12040853125000694,
            "durationTicks": 84,
            "midi": 40,
            "name": "E2",
            "ticks": 161086,
            "time": 230.32610563020833,
            "velocity": 0.6771653543307087
          },
          {
            "duration": 0.09173983333332103,
            "durationTicks": 64,
            "midi": 47,
            "name": "B2",
            "ticks": 161086,
            "time": 230.32610563020833,
            "velocity": 0.7874015748031497
          },
          {
            "duration": 0.09747357291664116,
            "durationTicks": 68,
            "midi": 40,
            "name": "E2",
            "ticks": 161274,
            "time": 230.595591390625,
            "velocity": 0.7480314960629921
          },
          {
            "duration": 0.08887296354168939,
            "durationTicks": 62,
            "midi": 47,
            "name": "B2",
            "ticks": 161276,
            "time": 230.59845826041666,
            "velocity": 0.7795275590551181
          },
          {
            "duration": 0.14621035937500437,
            "durationTicks": 102,
            "midi": 52,
            "name": "E3",
            "ticks": 161278,
            "time": 230.60132513020835,
            "velocity": 0.7086614173228346
          },
          {
            "duration": 0.0860060937500009,
            "durationTicks": 60,
            "midi": 40,
            "name": "E2",
            "ticks": 161468,
            "time": 230.87367776041665,
            "velocity": 0.6850393700787402
          },
          {
            "duration": 0.06880487500001209,
            "durationTicks": 48,
            "midi": 47,
            "name": "B2",
            "ticks": 161468,
            "time": 230.87367776041665,
            "velocity": 0.7480314960629921
          },
          {
            "duration": 0.08027235416668077,
            "durationTicks": 56,
            "midi": 40,
            "name": "E2",
            "ticks": 161562,
            "time": 231.008420640625,
            "velocity": 0.7244094488188977
          },
          {
            "duration": 0.09173983333334945,
            "durationTicks": 64,
            "midi": 47,
            "name": "B2",
            "ticks": 161564,
            "time": 231.01128751041665,
            "velocity": 0.7716535433070866
          },
          {
            "duration": 0.10894105208333826,
            "durationTicks": 76,
            "midi": 40,
            "name": "E2",
            "ticks": 161658,
            "time": 231.14603039062501,
            "velocity": 0.6850393700787402
          },
          {
            "duration": 0.09173983333332103,
            "durationTicks": 64,
            "midi": 47,
            "name": "B2",
            "ticks": 161658,
            "time": 231.14603039062501,
            "velocity": 0.7480314960629921
          },
          {
            "duration": 0.08313922395834084,
            "durationTicks": 58,
            "midi": 47,
            "name": "B2",
            "ticks": 161852,
            "time": 231.42411676041667,
            "velocity": 0.7637795275590551
          },
          {
            "duration": 0.08887296354163254,
            "durationTicks": 62,
            "midi": 40,
            "name": "E2",
            "ticks": 161854,
            "time": 231.42698363020835,
            "velocity": 0.7244094488188977
          },
          {
            "duration": 0.12327540104163859,
            "durationTicks": 86,
            "midi": 52,
            "name": "E3",
            "ticks": 161854,
            "time": 231.42698363020835,
            "velocity": 0.7086614173228346
          },
          {
            "duration": 0.11754166145831846,
            "durationTicks": 82,
            "midi": 40,
            "name": "E2",
            "ticks": 162046,
            "time": 231.70220313020835,
            "velocity": 0.6850393700787402
          },
          {
            "duration": 0.09173983333332103,
            "durationTicks": 64,
            "midi": 47,
            "name": "B2",
            "ticks": 162046,
            "time": 231.70220313020835,
            "velocity": 0.7874015748031497
          },
          {
            "duration": 0.0860060937500009,
            "durationTicks": 60,
            "midi": 47,
            "name": "B2",
            "ticks": 162236,
            "time": 231.97455576041665,
            "velocity": 0.7637795275590551
          },
          {
            "duration": 0.09460670312500952,
            "durationTicks": 66,
            "midi": 40,
            "name": "E2",
            "ticks": 162238,
            "time": 231.97742263020834,
            "velocity": 0.7086614173228346
          },
          {
            "duration": 0.10607418229164978,
            "durationTicks": 74,
            "midi": 52,
            "name": "E3",
            "ticks": 162238,
            "time": 231.97742263020834,
            "velocity": 0.7007874015748031
          },
          {
            "duration": 0.09173983333332103,
            "durationTicks": 64,
            "midi": 47,
            "name": "B2",
            "ticks": 162428,
            "time": 232.24977526041667,
            "velocity": 0.7716535433070866
          },
          {
            "duration": 0.13187601041667563,
            "durationTicks": 92,
            "midi": 52,
            "name": "E3",
            "ticks": 162428,
            "time": 232.24977526041667,
            "velocity": 0.7086614173228346
          },
          {
            "duration": 0.10894105208330984,
            "durationTicks": 76,
            "midi": 40,
            "name": "E2",
            "ticks": 162430,
            "time": 232.25264213020836,
            "velocity": 0.6692913385826772
          },
          {
            "duration": 0.08887296354166097,
            "durationTicks": 62,
            "midi": 40,
            "name": "E2",
            "ticks": 162618,
            "time": 232.522127890625,
            "velocity": 0.7165354330708661
          },
          {
            "duration": 0.08027235416665235,
            "durationTicks": 56,
            "midi": 47,
            "name": "B2",
            "ticks": 162622,
            "time": 232.52786163020835,
            "velocity": 0.7716535433070866
          },
          {
            "duration": 0.10894105208333826,
            "durationTicks": 76,
            "midi": 40,
            "name": "E2",
            "ticks": 162812,
            "time": 232.80021426041665,
            "velocity": 0.6850393700787402
          },
          {
            "duration": 0.09173983333334945,
            "durationTicks": 64,
            "midi": 47,
            "name": "B2",
            "ticks": 162812,
            "time": 232.80021426041665,
            "velocity": 0.7795275590551181
          },
          {
            "duration": 0.14047661979168424,
            "durationTicks": 98,
            "midi": 52,
            "name": "E3",
            "ticks": 162812,
            "time": 232.80021426041665,
            "velocity": 0.7086614173228346
          },
          {
            "duration": 0.07453861458336064,
            "durationTicks": 52,
            "midi": 40,
            "name": "E2",
            "ticks": 163004,
            "time": 233.07543376041664,
            "velocity": 0.6850393700787402
          },
          {
            "duration": 0.07167174479167215,
            "durationTicks": 50,
            "midi": 47,
            "name": "B2",
            "ticks": 163006,
            "time": 233.07830063020833,
            "velocity": 0.7007874015748031
          },
          {
            "duration": 0.08313922395834084,
            "durationTicks": 58,
            "midi": 47,
            "name": "B2",
            "ticks": 163098,
            "time": 233.210176640625,
            "velocity": 0.7244094488188977
          },
          {
            "duration": 0.11754166145834688,
            "durationTicks": 82,
            "midi": 40,
            "name": "E2",
            "ticks": 163100,
            "time": 233.21304351041667,
            "velocity": 0.6692913385826772
          },
          {
            "duration": 0.0860060937500009,
            "durationTicks": 60,
            "midi": 40,
            "name": "E2",
            "ticks": 163196,
            "time": 233.35065326041666,
            "velocity": 0.6692913385826772
          },
          {
            "duration": 0.07740548437499228,
            "durationTicks": 54,
            "midi": 47,
            "name": "B2",
            "ticks": 163198,
            "time": 233.35352013020835,
            "velocity": 0.7716535433070866
          },
          {
            "duration": 0.09173983333334945,
            "durationTicks": 64,
            "midi": 47,
            "name": "B2",
            "ticks": 163386,
            "time": 233.623005890625,
            "velocity": 0.7716535433070866
          },
          {
            "duration": 0.1261422708333555,
            "durationTicks": 88,
            "midi": 52,
            "name": "E3",
            "ticks": 163386,
            "time": 233.623005890625,
            "velocity": 0.7007874015748031
          },
          {
            "duration": 0.10894105208330984,
            "durationTicks": 76,
            "midi": 40,
            "name": "E2",
            "ticks": 163390,
            "time": 233.62873963020834,
            "velocity": 0.6850393700787402
          },
          {
            "duration": 0.08027235416665235,
            "durationTicks": 56,
            "midi": 47,
            "name": "B2",
            "ticks": 163578,
            "time": 233.89822539062502,
            "velocity": 0.7637795275590551
          },
          {
            "duration": 0.09173983333332103,
            "durationTicks": 64,
            "midi": 40,
            "name": "E2",
            "ticks": 163582,
            "time": 233.90395913020834,
            "velocity": 0.7322834645669292
          },
          {
            "duration": 0.08887296354166097,
            "durationTicks": 62,
            "midi": 47,
            "name": "B2",
            "ticks": 163770,
            "time": 234.173444890625,
            "velocity": 0.7716535433070866
          },
          {
            "duration": 0.10034044270832965,
            "durationTicks": 70,
            "midi": 52,
            "name": "E3",
            "ticks": 163770,
            "time": 234.173444890625,
            "velocity": 0.7007874015748031
          },
          {
            "duration": 0.11754166145834688,
            "durationTicks": 82,
            "midi": 40,
            "name": "E2",
            "ticks": 163772,
            "time": 234.17631176041667,
            "velocity": 0.6377952755905512
          },
          {
            "duration": 0.0860060937500009,
            "durationTicks": 60,
            "midi": 47,
            "name": "B2",
            "ticks": 163964,
            "time": 234.45153126041666,
            "velocity": 0.7716535433070866
          },
          {
            "duration": 0.12900914062498714,
            "durationTicks": 90,
            "midi": 52,
            "name": "E3",
            "ticks": 163964,
            "time": 234.45153126041666,
            "velocity": 0.7007874015748031
          },
          {
            "duration": 0.09747357291664116,
            "durationTicks": 68,
            "midi": 40,
            "name": "E2",
            "ticks": 163966,
            "time": 234.45439813020835,
            "velocity": 0.7401574803149606
          },
          {
            "duration": 0.12327540104166701,
            "durationTicks": 86,
            "midi": 40,
            "name": "E2",
            "ticks": 164154,
            "time": 234.723883890625,
            "velocity": 0.6850393700787402
          },
          {
            "duration": 0.10034044270835807,
            "durationTicks": 70,
            "midi": 47,
            "name": "B2",
            "ticks": 164156,
            "time": 234.72675076041665,
            "velocity": 0.7952755905511811
          },
          {
            "duration": 0.07740548437499228,
            "durationTicks": 54,
            "midi": 40,
            "name": "E2",
            "ticks": 164346,
            "time": 234.999103390625,
            "velocity": 0.7716535433070866
          },
          {
            "duration": 0.08027235416665235,
            "durationTicks": 56,
            "midi": 47,
            "name": "B2",
            "ticks": 164350,
            "time": 235.00483713020836,
            "velocity": 0.8031496062992126
          },
          {
            "duration": 0.09747357291664116,
            "durationTicks": 68,
            "midi": 52,
            "name": "E3",
            "ticks": 164350,
            "time": 235.00483713020836,
            "velocity": 0.7007874015748031
          },
          {
            "duration": 0.06880487499998367,
            "durationTicks": 48,
            "midi": 40,
            "name": "E2",
            "ticks": 164540,
            "time": 235.27718976041666,
            "velocity": 0.7165354330708661
          },
          {
            "duration": 0.07740548437499228,
            "durationTicks": 54,
            "midi": 47,
            "name": "B2",
            "ticks": 164542,
            "time": 235.28005663020835,
            "velocity": 0.7401574803149606
          },
          {
            "duration": 0.097473572916698,
            "durationTicks": 68,
            "midi": 40,
            "name": "E2",
            "ticks": 164636,
            "time": 235.41479951041666,
            "velocity": 0.6535433070866141
          },
          {
            "duration": 0.07453861458333222,
            "durationTicks": 52,
            "midi": 47,
            "name": "B2",
            "ticks": 164636,
            "time": 235.41479951041666,
            "velocity": 0.7007874015748031
          },
          {
            "duration": 0.08027235416668077,
            "durationTicks": 56,
            "midi": 40,
            "name": "E2",
            "ticks": 164732,
            "time": 235.55240926041665,
            "velocity": 0.6220472440944882
          },
          {
            "duration": 0.07453861458336064,
            "durationTicks": 52,
            "midi": 47,
            "name": "B2",
            "ticks": 164732,
            "time": 235.55240926041665,
            "velocity": 0.7086614173228346
          },
          {
            "duration": 0.10034044270835807,
            "durationTicks": 70,
            "midi": 47,
            "name": "B2",
            "ticks": 164924,
            "time": 235.82762876041664,
            "velocity": 0.7874015748031497
          },
          {
            "duration": 0.12900914062501556,
            "durationTicks": 90,
            "midi": 52,
            "name": "E3",
            "ticks": 164924,
            "time": 235.82762876041664,
            "velocity": 0.6850393700787402
          },
          {
            "duration": 0.11754166145831846,
            "durationTicks": 82,
            "midi": 40,
            "name": "E2",
            "ticks": 164926,
            "time": 235.83049563020833,
            "velocity": 0.6850393700787402
          },
          {
            "duration": 0.09747357291664116,
            "durationTicks": 68,
            "midi": 40,
            "name": "E2",
            "ticks": 165114,
            "time": 236.099981390625,
            "velocity": 0.7401574803149606
          },
          {
            "duration": 0.08313922395834084,
            "durationTicks": 58,
            "midi": 47,
            "name": "B2",
            "ticks": 165114,
            "time": 236.099981390625,
            "velocity": 0.7874015748031497
          },
          {
            "duration": 0.11754166145834688,
            "durationTicks": 82,
            "midi": 40,
            "name": "E2",
            "ticks": 165306,
            "time": 236.375200890625,
            "velocity": 0.6850393700787402
          },
          {
            "duration": 0.09460670312500952,
            "durationTicks": 66,
            "midi": 47,
            "name": "B2",
            "ticks": 165310,
            "time": 236.38093463020834,
            "velocity": 0.7874015748031497
          },
          {
            "duration": 0.12327540104166701,
            "durationTicks": 86,
            "midi": 52,
            "name": "E3",
            "ticks": 165310,
            "time": 236.38093463020834,
            "velocity": 0.6929133858267716
          },
          {
            "duration": 0.14907722916663602,
            "durationTicks": 104,
            "midi": 52,
            "name": "E3",
            "ticks": 165498,
            "time": 236.65042039062502,
            "velocity": 0.6850393700787402
          },
          {
            "duration": 0.08887296354168939,
            "durationTicks": 62,
            "midi": 47,
            "name": "B2",
            "ticks": 165500,
            "time": 236.65328726041665,
            "velocity": 0.7874015748031497
          },
          {
            "duration": 0.09173983333332103,
            "durationTicks": 64,
            "midi": 40,
            "name": "E2",
            "ticks": 165502,
            "time": 236.65615413020834,
            "velocity": 0.7480314960629921
          },
          {
            "duration": 0.0946067031249811,
            "durationTicks": 66,
            "midi": 47,
            "name": "B2",
            "ticks": 165690,
            "time": 236.925639890625,
            "velocity": 0.7874015748031497
          },
          {
            "duration": 0.12327540104163859,
            "durationTicks": 86,
            "midi": 40,
            "name": "E2",
            "ticks": 165694,
            "time": 236.93137363020836,
            "velocity": 0.7007874015748031
          },
          {
            "duration": 0.07740548437499228,
            "durationTicks": 54,
            "midi": 40,
            "name": "E2",
            "ticks": 165884,
            "time": 237.20372626041666,
            "velocity": 0.7716535433070866
          },
          {
            "duration": 0.08027235416665235,
            "durationTicks": 56,
            "midi": 47,
            "name": "B2",
            "ticks": 165886,
            "time": 237.20659313020835,
            "velocity": 0.8031496062992126
          },
          {
            "duration": 0.09747357291664116,
            "durationTicks": 68,
            "midi": 52,
            "name": "E3",
            "ticks": 165886,
            "time": 237.20659313020835,
            "velocity": 0.7007874015748031
          },
          {
            "duration": 0.0774054843750207,
            "durationTicks": 54,
            "midi": 47,
            "name": "B2",
            "ticks": 166074,
            "time": 237.476078890625,
            "velocity": 0.7401574803149606
          },
          {
            "duration": 0.06880487500001209,
            "durationTicks": 48,
            "midi": 40,
            "name": "E2",
            "ticks": 166076,
            "time": 237.47894576041665,
            "velocity": 0.7165354330708661
          },
          {
            "duration": 0.097473572916698,
            "durationTicks": 68,
            "midi": 40,
            "name": "E2",
            "ticks": 166172,
            "time": 237.61655551041665,
            "velocity": 0.6535433070866141
          },
          {
            "duration": 0.07453861458333222,
            "durationTicks": 52,
            "midi": 47,
            "name": "B2",
            "ticks": 166174,
            "time": 237.61942238020833,
            "velocity": 0.7007874015748031
          },
          {
            "duration": 0.08027235416668077,
            "durationTicks": 56,
            "midi": 40,
            "name": "E2",
            "ticks": 166268,
            "time": 237.75416526041667,
            "velocity": 0.6220472440944882
          },
          {
            "duration": 0.07453861458333222,
            "durationTicks": 52,
            "midi": 47,
            "name": "B2",
            "ticks": 166268,
            "time": 237.75416526041667,
            "velocity": 0.7086614173228346
          },
          {
            "duration": 0.12900914062498714,
            "durationTicks": 90,
            "midi": 52,
            "name": "E3",
            "ticks": 166458,
            "time": 238.026517890625,
            "velocity": 0.6850393700787402
          },
          {
            "duration": 0.11754166145834688,
            "durationTicks": 82,
            "midi": 40,
            "name": "E2",
            "ticks": 166460,
            "time": 238.02938476041666,
            "velocity": 0.6850393700787402
          },
          {
            "duration": 0.10034044270832965,
            "durationTicks": 70,
            "midi": 47,
            "name": "B2",
            "ticks": 166460,
            "time": 238.02938476041666,
            "velocity": 0.7874015748031497
          },
          {
            "duration": 0.09747357291666958,
            "durationTicks": 68,
            "midi": 40,
            "name": "E2",
            "ticks": 166650,
            "time": 238.301737390625,
            "velocity": 0.7401574803149606
          },
          {
            "duration": 0.08313922395834084,
            "durationTicks": 58,
            "midi": 47,
            "name": "B2",
            "ticks": 166652,
            "time": 238.30460426041665,
            "velocity": 0.7874015748031497
          },
          {
            "duration": 0.11754166145834688,
            "durationTicks": 82,
            "midi": 40,
            "name": "E2",
            "ticks": 166844,
            "time": 238.57982376041664,
            "velocity": 0.6850393700787402
          },
          {
            "duration": 0.09460670312500952,
            "durationTicks": 66,
            "midi": 47,
            "name": "B2",
            "ticks": 166846,
            "time": 238.58269063020833,
            "velocity": 0.7874015748031497
          },
          {
            "duration": 0.12327540104166701,
            "durationTicks": 86,
            "midi": 52,
            "name": "E3",
            "ticks": 166846,
            "time": 238.58269063020833,
            "velocity": 0.6929133858267716
          },
          {
            "duration": 0.08887296354166097,
            "durationTicks": 62,
            "midi": 47,
            "name": "B2",
            "ticks": 167034,
            "time": 238.852176390625,
            "velocity": 0.7874015748031497
          },
          {
            "duration": 0.09173983333334945,
            "durationTicks": 64,
            "midi": 40,
            "name": "E2",
            "ticks": 167036,
            "time": 238.85504326041666,
            "velocity": 0.7480314960629921
          },
          {
            "duration": 0.14907722916663602,
            "durationTicks": 104,
            "midi": 52,
            "name": "E3",
            "ticks": 167038,
            "time": 238.85791013020835,
            "velocity": 0.6850393700787402
          },
          {
            "duration": 0.09460670312500952,
            "durationTicks": 66,
            "midi": 47,
            "name": "B2",
            "ticks": 167226,
            "time": 239.127395890625,
            "velocity": 0.7874015748031497
          },
          {
            "duration": 0.12327540104166701,
            "durationTicks": 86,
            "midi": 40,
            "name": "E2",
            "ticks": 167230,
            "time": 239.13312963020834,
            "velocity": 0.7007874015748031
          },
          {
            "duration": 0.0774054843750207,
            "durationTicks": 54,
            "midi": 40,
            "name": "E2",
            "ticks": 167418,
            "time": 239.402615390625,
            "velocity": 0.7716535433070866
          },
          {
            "duration": 0.09747357291666958,
            "durationTicks": 68,
            "midi": 52,
            "name": "E3",
            "ticks": 167418,
            "time": 239.402615390625,
            "velocity": 0.7007874015748031
          },
          {
            "duration": 0.08027235416670919,
            "durationTicks": 56,
            "midi": 47,
            "name": "B2",
            "ticks": 167420,
            "time": 239.40548226041665,
            "velocity": 0.8031496062992126
          }
        ],
        "endOfTrackTicks": 167678
      },
      {
        "channel": 14,
        "controlChanges": {},
        "pitchBends": [],
        "instrument": {
          "family": "piano",
          "number": 0,
          "name": "acoustic grand piano"
        },
        "name": "",
        "notes": [
          {
            "duration": 0.2924207187499803,
            "durationTicks": 204,
            "midi": 47,
            "name": "B2",
            "ticks": 121340,
            "time": 173.35280226041667,
            "velocity": 0.7007874015748031
          },
          {
            "duration": 0.3153556770833461,
            "durationTicks": 220,
            "midi": 59,
            "name": "B3",
            "ticks": 121532,
            "time": 173.62802176041666,
            "velocity": 0.6850393700787402
          },
          {
            "duration": 0.2952875885416688,
            "durationTicks": 206,
            "midi": 47,
            "name": "B2",
            "ticks": 121722,
            "time": 173.900374390625,
            "velocity": 0.7244094488188977
          },
          {
            "duration": 0.2752194999999915,
            "durationTicks": 192,
            "midi": 59,
            "name": "B3",
            "ticks": 121916,
            "time": 174.17846076041667,
            "velocity": 0.6692913385826772
          },
          {
            "duration": 0.3440243750000036,
            "durationTicks": 240,
            "midi": 47,
            "name": "B2",
            "ticks": 122110,
            "time": 174.45654713020835,
            "velocity": 0.7244094488188977
          },
          {
            "duration": 0.27235263020835987,
            "durationTicks": 190,
            "midi": 59,
            "name": "B3",
            "ticks": 122300,
            "time": 174.72889976041665,
            "velocity": 0.6692913385826772
          },
          {
            "duration": 0.3268231562500148,
            "durationTicks": 228,
            "midi": 47,
            "name": "B2",
            "ticks": 122492,
            "time": 175.00411926041664,
            "velocity": 0.7244094488188977
          },
          {
            "duration": 0.25228454166665415,
            "durationTicks": 176,
            "midi": 59,
            "name": "B3",
            "ticks": 122686,
            "time": 175.28220563020835,
            "velocity": 0.6850393700787402
          },
          {
            "duration": 0.3583587239583039,
            "durationTicks": 250,
            "midi": 45,
            "name": "A2",
            "ticks": 122878,
            "time": 175.55742513020834,
            "velocity": 0.6614173228346457
          },
          {
            "duration": 0.30102132812501736,
            "durationTicks": 210,
            "midi": 57,
            "name": "A3",
            "ticks": 123068,
            "time": 175.82977776041665,
            "velocity": 0.6614173228346457
          },
          {
            "duration": 0.42429672916668437,
            "durationTicks": 296,
            "midi": 45,
            "name": "A2",
            "ticks": 123260,
            "time": 176.10499726041667,
            "velocity": 0.6535433070866141
          },
          {
            "duration": 0.28955384895832026,
            "durationTicks": 202,
            "midi": 57,
            "name": "A3",
            "ticks": 123454,
            "time": 176.38308363020835,
            "velocity": 0.6692913385826772
          },
          {
            "duration": 0.39562803124999846,
            "durationTicks": 276,
            "midi": 45,
            "name": "A2",
            "ticks": 123644,
            "time": 176.65543626041665,
            "velocity": 0.6456692913385826
          },
          {
            "duration": 0.2924207187499803,
            "durationTicks": 204,
            "midi": 57,
            "name": "A3",
            "ticks": 123836,
            "time": 176.93065576041667,
            "velocity": 0.6614173228346457
          },
          {
            "duration": 0.41569611979164733,
            "durationTicks": 290,
            "midi": 45,
            "name": "A2",
            "ticks": 124026,
            "time": 177.203008390625,
            "velocity": 0.6535433070866141
          },
          {
            "duration": 0.24941767187499408,
            "durationTicks": 174,
            "midi": 57,
            "name": "A3",
            "ticks": 124220,
            "time": 177.48109476041665,
            "velocity": 0.6614173228346457
          },
          {
            "duration": 0.11754166145831846,
            "durationTicks": 82,
            "midi": 52,
            "name": "E3",
            "ticks": 125950,
            "time": 179.96093713020835,
            "velocity": 0.7007874015748031
          },
          {
            "duration": 0.14907722916666444,
            "durationTicks": 104,
            "midi": 52,
            "name": "E3",
            "ticks": 126142,
            "time": 180.23615663020834,
            "velocity": 0.7086614173228346
          },
          {
            "duration": 0.12614227083332707,
            "durationTicks": 88,
            "midi": 56,
            "name": "G#3",
            "ticks": 126330,
            "time": 180.505642390625,
            "velocity": 0.6929133858267716
          },
          {
            "duration": 0.14047661979168424,
            "durationTicks": 98,
            "midi": 56,
            "name": "G#3",
            "ticks": 126524,
            "time": 180.78372876041666,
            "velocity": 0.7007874015748031
          },
          {
            "duration": 0.12327540104169543,
            "durationTicks": 86,
            "midi": 62,
            "name": "D4",
            "ticks": 126716,
            "time": 181.05894826041666,
            "velocity": 0.7086614173228346
          },
          {
            "duration": 0.14047661979165582,
            "durationTicks": 98,
            "midi": 62,
            "name": "D4",
            "ticks": 126906,
            "time": 181.331300890625,
            "velocity": 0.7244094488188977
          },
          {
            "duration": 0.25228454166665415,
            "durationTicks": 176,
            "midi": 56,
            "name": "G#3",
            "ticks": 127102,
            "time": 181.61225413020836,
            "velocity": 0.7086614173228346
          },
          {
            "duration": 0.23221645312500527,
            "durationTicks": 162,
            "midi": 57,
            "name": "A3",
            "ticks": 127294,
            "time": 181.88747363020835,
            "velocity": 0.6771653543307087
          },
          {
            "duration": 0.29242071875000875,
            "durationTicks": 204,
            "midi": 47,
            "name": "B2",
            "ticks": 127486,
            "time": 182.16269313020834,
            "velocity": 0.7007874015748031
          },
          {
            "duration": 0.3153556770833177,
            "durationTicks": 220,
            "midi": 59,
            "name": "B3",
            "ticks": 127678,
            "time": 182.43791263020833,
            "velocity": 0.6850393700787402
          },
          {
            "duration": 0.2952875885416404,
            "durationTicks": 206,
            "midi": 47,
            "name": "B2",
            "ticks": 127870,
            "time": 182.71313213020835,
            "velocity": 0.7244094488188977
          },
          {
            "duration": 0.2752194999999915,
            "durationTicks": 192,
            "midi": 59,
            "name": "B3",
            "ticks": 128060,
            "time": 182.98548476041665,
            "velocity": 0.6692913385826772
          },
          {
            "duration": 0.3440243750000036,
            "durationTicks": 240,
            "midi": 47,
            "name": "B2",
            "ticks": 128252,
            "time": 183.26070426041665,
            "velocity": 0.7244094488188977
          },
          {
            "duration": 0.27235263020833145,
            "durationTicks": 190,
            "midi": 59,
            "name": "B3",
            "ticks": 128444,
            "time": 183.53592376041667,
            "velocity": 0.6692913385826772
          },
          {
            "duration": 0.32682315624998637,
            "durationTicks": 228,
            "midi": 47,
            "name": "B2",
            "ticks": 128636,
            "time": 183.81114326041666,
            "velocity": 0.7244094488188977
          },
          {
            "duration": 0.25228454166668257,
            "durationTicks": 176,
            "midi": 59,
            "name": "B3",
            "ticks": 128828,
            "time": 184.08636276041665,
            "velocity": 0.6850393700787402
          },
          {
            "duration": 0.35835872395833235,
            "durationTicks": 250,
            "midi": 45,
            "name": "A2",
            "ticks": 129020,
            "time": 184.36158226041667,
            "velocity": 0.6614173228346457
          },
          {
            "duration": 0.30102132812498894,
            "durationTicks": 210,
            "midi": 57,
            "name": "A3",
            "ticks": 129210,
            "time": 184.633934890625,
            "velocity": 0.6614173228346457
          },
          {
            "duration": 0.42429672916668437,
            "durationTicks": 296,
            "midi": 45,
            "name": "A2",
            "ticks": 129404,
            "time": 184.91202126041665,
            "velocity": 0.6535433070866141
          },
          {
            "duration": 0.28955384895832026,
            "durationTicks": 202,
            "midi": 57,
            "name": "A3",
            "ticks": 129594,
            "time": 185.184373890625,
            "velocity": 0.6692913385826772
          },
          {
            "duration": 0.39562803124999846,
            "durationTicks": 276,
            "midi": 45,
            "name": "A2",
            "ticks": 129788,
            "time": 185.46246026041666,
            "velocity": 0.6456692913385826
          },
          {
            "duration": 0.29242071875000875,
            "durationTicks": 204,
            "midi": 57,
            "name": "A3",
            "ticks": 129982,
            "time": 185.74054663020834,
            "velocity": 0.6614173228346457
          },
          {
            "duration": 0.4156961197917042,
            "durationTicks": 290,
            "midi": 45,
            "name": "A2",
            "ticks": 130172,
            "time": 186.01289926041665,
            "velocity": 0.6535433070866141
          },
          {
            "duration": 0.24941767187499408,
            "durationTicks": 174,
            "midi": 57,
            "name": "A3",
            "ticks": 130364,
            "time": 186.28811876041667,
            "velocity": 0.6614173228346457
          },
          {
            "duration": 0.08027235416665235,
            "durationTicks": 56,
            "midi": 52,
            "name": "E3",
            "ticks": 130558,
            "time": 186.56620513020835,
            "velocity": 0.6062992125984252
          },
          {
            "duration": 0.09460670312500952,
            "durationTicks": 66,
            "midi": 52,
            "name": "E3",
            "ticks": 130748,
            "time": 186.83855776041665,
            "velocity": 0.6141732283464567
          },
          {
            "duration": 0.0860060937500009,
            "durationTicks": 60,
            "midi": 52,
            "name": "E3",
            "ticks": 130846,
            "time": 186.97903438020833,
            "velocity": 0.5748031496062992
          },
          {
            "duration": 0.18347966666664206,
            "durationTicks": 128,
            "midi": 59,
            "name": "B3",
            "ticks": 130938,
            "time": 187.110910390625,
            "velocity": 0.5905511811023622
          },
          {
            "duration": 0.19494714583331074,
            "durationTicks": 136,
            "midi": 52,
            "name": "E3",
            "ticks": 130942,
            "time": 187.11664413020836,
            "velocity": 0.5748031496062992
          },
          {
            "duration": 0.18634653645833055,
            "durationTicks": 130,
            "midi": 52,
            "name": "E3",
            "ticks": 131130,
            "time": 187.386129890625,
            "velocity": 0.5826771653543307
          },
          {
            "duration": 0.20354775520831936,
            "durationTicks": 142,
            "midi": 59,
            "name": "B3",
            "ticks": 131134,
            "time": 187.39186363020835,
            "velocity": 0.5984251968503937
          },
          {
            "duration": 0.2006808854166593,
            "durationTicks": 140,
            "midi": 52,
            "name": "E3",
            "ticks": 131326,
            "time": 187.66708313020834,
            "velocity": 0.5826771653543307
          },
          {
            "duration": 0.18347966666664206,
            "durationTicks": 128,
            "midi": 52,
            "name": "E3",
            "ticks": 131514,
            "time": 187.936568890625,
            "velocity": 0.5905511811023622
          },
          {
            "duration": 0.19208027604165068,
            "durationTicks": 134,
            "midi": 59,
            "name": "B3",
            "ticks": 131514,
            "time": 187.936568890625,
            "velocity": 0.6141732283464567
          },
          {
            "duration": 0.2952875885416404,
            "durationTicks": 206,
            "midi": 59,
            "name": "B3",
            "ticks": 131706,
            "time": 188.211788390625,
            "velocity": 0.5748031496062992
          },
          {
            "duration": 0.180612796874982,
            "durationTicks": 126,
            "midi": 52,
            "name": "E3",
            "ticks": 131710,
            "time": 188.21752213020835,
            "velocity": 0.5826771653543307
          },
          {
            "duration": 0.17774592708335035,
            "durationTicks": 124,
            "midi": 52,
            "name": "E3",
            "ticks": 131898,
            "time": 188.487007890625,
            "velocity": 0.5984251968503937
          },
          {
            "duration": 0.23221645312497685,
            "durationTicks": 162,
            "midi": 52,
            "name": "E3",
            "ticks": 132090,
            "time": 188.76222739062501,
            "velocity": 0.6141732283464567
          },
          {
            "duration": 0.29242071875000875,
            "durationTicks": 204,
            "midi": 47,
            "name": "B2",
            "ticks": 145916,
            "time": 208.58089826041666,
            "velocity": 0.7007874015748031
          },
          {
            "duration": 0.3153556770833461,
            "durationTicks": 220,
            "midi": 59,
            "name": "B3",
            "ticks": 146106,
            "time": 208.853250890625,
            "velocity": 0.6850393700787402
          },
          {
            "duration": 0.29528758854169723,
            "durationTicks": 206,
            "midi": 47,
            "name": "B2",
            "ticks": 146300,
            "time": 209.13133726041664,
            "velocity": 0.7244094488188977
          },
          {
            "duration": 0.2752194999999915,
            "durationTicks": 192,
            "midi": 59,
            "name": "B3",
            "ticks": 146494,
            "time": 209.40942363020835,
            "velocity": 0.6692913385826772
          },
          {
            "duration": 0.3440243750000036,
            "durationTicks": 240,
            "midi": 47,
            "name": "B2",
            "ticks": 146686,
            "time": 209.68464313020834,
            "velocity": 0.7244094488188977
          },
          {
            "duration": 0.27235263020833145,
            "durationTicks": 190,
            "midi": 59,
            "name": "B3",
            "ticks": 146878,
            "time": 209.95986263020833,
            "velocity": 0.6692913385826772
          },
          {
            "duration": 0.32682315624998637,
            "durationTicks": 228,
            "midi": 47,
            "name": "B2",
            "ticks": 147070,
            "time": 210.23508213020835,
            "velocity": 0.7244094488188977
          },
          {
            "duration": 0.25228454166665415,
            "durationTicks": 176,
            "midi": 59,
            "name": "B3",
            "ticks": 147262,
            "time": 210.51030163020835,
            "velocity": 0.6850393700787402
          },
          {
            "duration": 0.35835872395833235,
            "durationTicks": 250,
            "midi": 45,
            "name": "A2",
            "ticks": 147454,
            "time": 210.78552113020834,
            "velocity": 0.6614173228346457
          },
          {
            "duration": 0.30102132812498894,
            "durationTicks": 210,
            "midi": 57,
            "name": "A3",
            "ticks": 147642,
            "time": 211.055006890625,
            "velocity": 0.6614173228346457
          },
          {
            "duration": 0.42429672916665595,
            "durationTicks": 296,
            "midi": 45,
            "name": "A2",
            "ticks": 147834,
            "time": 211.330226390625,
            "velocity": 0.6535433070866141
          },
          {
            "duration": 0.28955384895832026,
            "durationTicks": 202,
            "midi": 57,
            "name": "A3",
            "ticks": 148030,
            "time": 211.61117963020834,
            "velocity": 0.6692913385826772
          },
          {
            "duration": 0.39562803124999846,
            "durationTicks": 276,
            "midi": 45,
            "name": "A2",
            "ticks": 148222,
            "time": 211.88639913020833,
            "velocity": 0.6456692913385826
          },
          {
            "duration": 0.2924207187499803,
            "durationTicks": 204,
            "midi": 57,
            "name": "A3",
            "ticks": 148414,
            "time": 212.16161863020835,
            "velocity": 0.6614173228346457
          },
          {
            "duration": 0.41569611979167576,
            "durationTicks": 290,
            "midi": 45,
            "name": "A2",
            "ticks": 148604,
            "time": 212.43397126041666,
            "velocity": 0.6535433070866141
          },
          {
            "duration": 0.2494176718750225,
            "durationTicks": 174,
            "midi": 57,
            "name": "A3",
            "ticks": 148796,
            "time": 212.70919076041665,
            "velocity": 0.6614173228346457
          },
          {
            "duration": 0.11754166145834688,
            "durationTicks": 82,
            "midi": 52,
            "name": "E3",
            "ticks": 150522,
            "time": 215.183299390625,
            "velocity": 0.7007874015748031
          },
          {
            "duration": 0.14907722916666444,
            "durationTicks": 104,
            "midi": 52,
            "name": "E3",
            "ticks": 150714,
            "time": 215.458518890625,
            "velocity": 0.7086614173228346
          },
          {
            "duration": 0.12614227083332707,
            "durationTicks": 88,
            "midi": 56,
            "name": "G#3",
            "ticks": 150906,
            "time": 215.733738390625,
            "velocity": 0.6929133858267716
          },
          {
            "duration": 0.14047661979168424,
            "durationTicks": 98,
            "midi": 56,
            "name": "G#3",
            "ticks": 151100,
            "time": 216.01182476041666,
            "velocity": 0.7007874015748031
          },
          {
            "duration": 0.12327540104166701,
            "durationTicks": 86,
            "midi": 62,
            "name": "D4",
            "ticks": 151294,
            "time": 216.28991113020834,
            "velocity": 0.7086614173228346
          },
          {
            "duration": 0.14047661979168424,
            "durationTicks": 98,
            "midi": 62,
            "name": "D4",
            "ticks": 151484,
            "time": 216.56226376041667,
            "velocity": 0.7244094488188977
          },
          {
            "duration": 0.25228454166665415,
            "durationTicks": 176,
            "midi": 56,
            "name": "G#3",
            "ticks": 151674,
            "time": 216.834616390625,
            "velocity": 0.7086614173228346
          },
          {
            "duration": 0.23221645312500527,
            "durationTicks": 162,
            "midi": 57,
            "name": "A3",
            "ticks": 151866,
            "time": 217.109835890625,
            "velocity": 0.6771653543307087
          },
          {
            "duration": 0.29242071875000875,
            "durationTicks": 204,
            "midi": 47,
            "name": "B2",
            "ticks": 152060,
            "time": 217.38792226041664,
            "velocity": 0.7007874015748031
          },
          {
            "duration": 0.3153556770833461,
            "durationTicks": 220,
            "midi": 59,
            "name": "B3",
            "ticks": 152250,
            "time": 217.660274890625,
            "velocity": 0.6850393700787402
          },
          {
            "duration": 0.2952875885416688,
            "durationTicks": 206,
            "midi": 47,
            "name": "B2",
            "ticks": 152442,
            "time": 217.935494390625,
            "velocity": 0.7244094488188977
          },
          {
            "duration": 0.27521950000001993,
            "durationTicks": 192,
            "midi": 59,
            "name": "B3",
            "ticks": 152636,
            "time": 218.21358076041665,
            "velocity": 0.6692913385826772
          },
          {
            "duration": 0.3440243750000036,
            "durationTicks": 240,
            "midi": 47,
            "name": "B2",
            "ticks": 152826,
            "time": 218.485933390625,
            "velocity": 0.7244094488188977
          },
          {
            "duration": 0.272352630208303,
            "durationTicks": 190,
            "midi": 59,
            "name": "B3",
            "ticks": 153022,
            "time": 218.76688663020835,
            "velocity": 0.6692913385826772
          },
          {
            "duration": 0.3268231562500148,
            "durationTicks": 228,
            "midi": 47,
            "name": "B2",
            "ticks": 153214,
            "time": 219.04210613020834,
            "velocity": 0.7244094488188977
          },
          {
            "duration": 0.25228454166665415,
            "durationTicks": 176,
            "midi": 59,
            "name": "B3",
            "ticks": 153402,
            "time": 219.311591890625,
            "velocity": 0.6850393700787402
          },
          {
            "duration": 0.3583587239583039,
            "durationTicks": 250,
            "midi": 45,
            "name": "A2",
            "ticks": 153598,
            "time": 219.59254513020835,
            "velocity": 0.6614173228346457
          },
          {
            "duration": 0.30102132812501736,
            "durationTicks": 210,
            "midi": 57,
            "name": "A3",
            "ticks": 153786,
            "time": 219.862030890625,
            "velocity": 0.6614173228346457
          },
          {
            "duration": 0.42429672916665595,
            "durationTicks": 296,
            "midi": 45,
            "name": "A2",
            "ticks": 153982,
            "time": 220.14298413020833,
            "velocity": 0.6535433070866141
          },
          {
            "duration": 0.28955384895829184,
            "durationTicks": 202,
            "midi": 57,
            "name": "A3",
            "ticks": 154174,
            "time": 220.41820363020835,
            "velocity": 0.6692913385826772
          },
          {
            "duration": 0.39562803124999846,
            "durationTicks": 276,
            "midi": 45,
            "name": "A2",
            "ticks": 154364,
            "time": 220.69055626041666,
            "velocity": 0.6456692913385826
          },
          {
            "duration": 0.29242071875000875,
            "durationTicks": 204,
            "midi": 57,
            "name": "A3",
            "ticks": 154558,
            "time": 220.96864263020834,
            "velocity": 0.6614173228346457
          },
          {
            "duration": 0.41569611979164733,
            "durationTicks": 290,
            "midi": 45,
            "name": "A2",
            "ticks": 154750,
            "time": 221.24386213020836,
            "velocity": 0.6535433070866141
          },
          {
            "duration": 0.24941767187499408,
            "durationTicks": 174,
            "midi": 57,
            "name": "A3",
            "ticks": 154940,
            "time": 221.51621476041666,
            "velocity": 0.6614173228346457
          },
          {
            "duration": 0.08027235416668077,
            "durationTicks": 56,
            "midi": 52,
            "name": "E3",
            "ticks": 155130,
            "time": 221.788567390625,
            "velocity": 0.6062992125984252
          },
          {
            "duration": 0.0946067031249811,
            "durationTicks": 66,
            "midi": 52,
            "name": "E3",
            "ticks": 155322,
            "time": 222.063786890625,
            "velocity": 0.6141732283464567
          },
          {
            "duration": 0.0860060937500009,
            "durationTicks": 60,
            "midi": 52,
            "name": "E3",
            "ticks": 155420,
            "time": 222.20426351041667,
            "velocity": 0.5748031496062992
          },
          {
            "duration": 0.19494714583333916,
            "durationTicks": 136,
            "midi": 52,
            "name": "E3",
            "ticks": 155514,
            "time": 222.339006390625,
            "velocity": 0.5748031496062992
          },
          {
            "duration": 0.18347966666664206,
            "durationTicks": 128,
            "midi": 59,
            "name": "B3",
            "ticks": 155518,
            "time": 222.34474013020835,
            "velocity": 0.5905511811023622
          },
          {
            "duration": 0.20354775520834778,
            "durationTicks": 142,
            "midi": 59,
            "name": "B3",
            "ticks": 155706,
            "time": 222.614225890625,
            "velocity": 0.5984251968503937
          },
          {
            "duration": 0.18634653645830213,
            "durationTicks": 130,
            "midi": 52,
            "name": "E3",
            "ticks": 155710,
            "time": 222.61995963020834,
            "velocity": 0.5826771653543307
          },
          {
            "duration": 0.2006808854166593,
            "durationTicks": 140,
            "midi": 52,
            "name": "E3",
            "ticks": 155902,
            "time": 222.89517913020833,
            "velocity": 0.5826771653543307
          },
          {
            "duration": 0.18347966666664206,
            "durationTicks": 128,
            "midi": 52,
            "name": "E3",
            "ticks": 156094,
            "time": 223.17039863020835,
            "velocity": 0.5905511811023622
          },
          {
            "duration": 0.19208027604165068,
            "durationTicks": 134,
            "midi": 59,
            "name": "B3",
            "ticks": 156094,
            "time": 223.17039863020835,
            "velocity": 0.6141732283464567
          },
          {
            "duration": 0.18061279687501042,
            "durationTicks": 126,
            "midi": 52,
            "name": "E3",
            "ticks": 156284,
            "time": 223.44275126041666,
            "velocity": 0.5826771653543307
          },
          {
            "duration": 0.2952875885416688,
            "durationTicks": 206,
            "midi": 59,
            "name": "B3",
            "ticks": 156286,
            "time": 223.44561813020835,
            "velocity": 0.5748031496062992
          },
          {
            "duration": 0.17774592708335035,
            "durationTicks": 124,
            "midi": 52,
            "name": "E3",
            "ticks": 156474,
            "time": 223.715103890625,
            "velocity": 0.5984251968503937
          },
          {
            "duration": 0.23221645312500527,
            "durationTicks": 162,
            "midi": 52,
            "name": "E3",
            "ticks": 156666,
            "time": 223.990323390625,
            "velocity": 0.6141732283464567
          }
        ],
        "endOfTrackTicks": 157020
      },
      {
        "channel": 15,
        "controlChanges": {},
        "pitchBends": [],
        "instrument": {
          "family": "piano",
          "number": 0,
          "name": "acoustic grand piano"
        },
        "name": "",
        "notes": [
          {
            "duration": 2.198889130208329,
            "durationTicks": 1534,
            "midi": 54,
            "name": "F#3",
            "ticks": 70652,
            "time": 100.69485426041668,
            "velocity": 0.7165354330708661
          },
          {
            "duration": 2.198889130208329,
            "durationTicks": 1534,
            "midi": 59,
            "name": "B3",
            "ticks": 70652,
            "time": 100.69485426041668,
            "velocity": 0.7165354330708661
          },
          {
            "duration": 2.198889130208329,
            "durationTicks": 1534,
            "midi": 63,
            "name": "D#4",
            "ticks": 70652,
            "time": 100.69485426041668,
            "velocity": 0.7165354330708661
          },
          {
            "duration": 2.198889130208329,
            "durationTicks": 1534,
            "midi": 57,
            "name": "A3",
            "ticks": 72188,
            "time": 102.89661026041667,
            "velocity": 0.7165354330708661
          },
          {
            "duration": 2.198889130208329,
            "durationTicks": 1534,
            "midi": 61,
            "name": "C#4",
            "ticks": 72188,
            "time": 102.89661026041667,
            "velocity": 0.7165354330708661
          },
          {
            "duration": 2.198889130208329,
            "durationTicks": 1534,
            "midi": 64,
            "name": "E4",
            "ticks": 72188,
            "time": 102.89661026041667,
            "velocity": 0.7165354330708661
          },
          {
            "duration": 2.198889130208329,
            "durationTicks": 1534,
            "midi": 54,
            "name": "F#3",
            "ticks": 73724,
            "time": 105.09836626041667,
            "velocity": 0.7165354330708661
          },
          {
            "duration": 2.198889130208329,
            "durationTicks": 1534,
            "midi": 59,
            "name": "B3",
            "ticks": 73724,
            "time": 105.09836626041667,
            "velocity": 0.7165354330708661
          },
          {
            "duration": 2.198889130208329,
            "durationTicks": 1534,
            "midi": 63,
            "name": "D#4",
            "ticks": 73724,
            "time": 105.09836626041667,
            "velocity": 0.7165354330708661
          },
          {
            "duration": 2.1444186041666597,
            "durationTicks": 1496,
            "midi": 57,
            "name": "A3",
            "ticks": 75260,
            "time": 107.30012226041667,
            "velocity": 0.7165354330708661
          },
          {
            "duration": 2.1788210416666516,
            "durationTicks": 1520,
            "midi": 61,
            "name": "C#4",
            "ticks": 75260,
            "time": 107.30012226041667,
            "velocity": 0.7165354330708661
          },
          {
            "duration": 2.1444186041666597,
            "durationTicks": 1496,
            "midi": 64,
            "name": "E4",
            "ticks": 75260,
            "time": 107.30012226041667,
            "velocity": 0.7165354330708661
          },
          {
            "duration": 2.198889130208329,
            "durationTicks": 1534,
            "midi": 61,
            "name": "C#4",
            "ticks": 76796,
            "time": 109.50187826041667,
            "velocity": 0.7165354330708661
          },
          {
            "duration": 2.198889130208329,
            "durationTicks": 1534,
            "midi": 64,
            "name": "E4",
            "ticks": 76796,
            "time": 109.50187826041667,
            "velocity": 0.7165354330708661
          },
          {
            "duration": 2.198889130208329,
            "durationTicks": 1534,
            "midi": 68,
            "name": "G#4",
            "ticks": 76796,
            "time": 109.50187826041667,
            "velocity": 0.7165354330708661
          },
          {
            "duration": 1.0980111302083202,
            "durationTicks": 766,
            "midi": 59,
            "name": "B3",
            "ticks": 78332,
            "time": 111.70363426041668,
            "velocity": 0.7165354330708661
          },
          {
            "duration": 2.1988891302083147,
            "durationTicks": 1534,
            "midi": 61,
            "name": "C#4",
            "ticks": 78332,
            "time": 111.70363426041668,
            "velocity": 0.7165354330708661
          },
          {
            "duration": 2.1988891302083147,
            "durationTicks": 1534,
            "midi": 66,
            "name": "F#4",
            "ticks": 78332,
            "time": 111.70363426041668,
            "velocity": 0.7165354330708661
          },
          {
            "duration": 1.0980111302083202,
            "durationTicks": 766,
            "midi": 58,
            "name": "A#3",
            "ticks": 79100,
            "time": 112.80451226041667,
            "velocity": 0.7165354330708661
          },
          {
            "duration": 1.0980111302083344,
            "durationTicks": 766,
            "midi": 61,
            "name": "C#4",
            "ticks": 79868,
            "time": 113.90539026041667,
            "velocity": 0.7165354330708661
          },
          {
            "duration": 1.0980111302083344,
            "durationTicks": 766,
            "midi": 64,
            "name": "E4",
            "ticks": 79868,
            "time": 113.90539026041667,
            "velocity": 0.7165354330708661
          },
          {
            "duration": 1.0980111302083344,
            "durationTicks": 766,
            "midi": 69,
            "name": "A4",
            "ticks": 79868,
            "time": 113.90539026041667,
            "velocity": 0.7165354330708661
          },
          {
            "duration": 1.0980111302083202,
            "durationTicks": 766,
            "midi": 63,
            "name": "D#4",
            "ticks": 80636,
            "time": 115.00626826041668,
            "velocity": 0.7165354330708661
          },
          {
            "duration": 1.0980111302083202,
            "durationTicks": 766,
            "midi": 66,
            "name": "F#4",
            "ticks": 80636,
            "time": 115.00626826041668,
            "velocity": 0.7165354330708661
          },
          {
            "duration": 1.0980111302083202,
            "durationTicks": 766,
            "midi": 71,
            "name": "B4",
            "ticks": 80636,
            "time": 115.00626826041668,
            "velocity": 0.7165354330708661
          },
          {
            "duration": 1.6484501302083316,
            "durationTicks": 1150,
            "midi": 64,
            "name": "E4",
            "ticks": 81404,
            "time": 116.10714626041667,
            "velocity": 0.7165354330708661
          },
          {
            "duration": 1.6484501302083316,
            "durationTicks": 1150,
            "midi": 68,
            "name": "G#4",
            "ticks": 81404,
            "time": 116.10714626041667,
            "velocity": 0.7165354330708661
          },
          {
            "duration": 1.6484501302083316,
            "durationTicks": 1150,
            "midi": 73,
            "name": "C#5",
            "ticks": 81404,
            "time": 116.10714626041667,
            "velocity": 0.7165354330708661
          },
          {
            "duration": 0.547572130208323,
            "durationTicks": 382,
            "midi": 63,
            "name": "D#4",
            "ticks": 82556,
            "time": 117.75846326041668,
            "velocity": 0.7165354330708661
          },
          {
            "duration": 0.547572130208323,
            "durationTicks": 382,
            "midi": 66,
            "name": "F#4",
            "ticks": 82556,
            "time": 117.75846326041668,
            "velocity": 0.7165354330708661
          },
          {
            "duration": 0.547572130208323,
            "durationTicks": 382,
            "midi": 71,
            "name": "B4",
            "ticks": 82556,
            "time": 117.75846326041668,
            "velocity": 0.7165354330708661
          },
          {
            "duration": 1.0980111302083202,
            "durationTicks": 766,
            "midi": 61,
            "name": "C#4",
            "ticks": 82940,
            "time": 118.30890226041667,
            "velocity": 0.7165354330708661
          },
          {
            "duration": 1.0980111302083202,
            "durationTicks": 766,
            "midi": 64,
            "name": "E4",
            "ticks": 82940,
            "time": 118.30890226041667,
            "velocity": 0.7165354330708661
          },
          {
            "duration": 1.0980111302083202,
            "durationTicks": 766,
            "midi": 69,
            "name": "A4",
            "ticks": 82940,
            "time": 118.30890226041667,
            "velocity": 0.7165354330708661
          },
          {
            "duration": 1.0980111302083344,
            "durationTicks": 766,
            "midi": 63,
            "name": "D#4",
            "ticks": 83708,
            "time": 119.40978026041667,
            "velocity": 0.7165354330708661
          },
          {
            "duration": 1.0980111302083344,
            "durationTicks": 766,
            "midi": 66,
            "name": "F#4",
            "ticks": 83708,
            "time": 119.40978026041667,
            "velocity": 0.7165354330708661
          },
          {
            "duration": 1.0980111302083344,
            "durationTicks": 766,
            "midi": 71,
            "name": "B4",
            "ticks": 83708,
            "time": 119.40978026041667,
            "velocity": 0.7165354330708661
          },
          {
            "duration": 1.6484501302083174,
            "durationTicks": 1150,
            "midi": 64,
            "name": "E4",
            "ticks": 84476,
            "time": 120.51065826041668,
            "velocity": 0.7165354330708661
          },
          {
            "duration": 1.6484501302083174,
            "durationTicks": 1150,
            "midi": 68,
            "name": "G#4",
            "ticks": 84476,
            "time": 120.51065826041668,
            "velocity": 0.7165354330708661
          },
          {
            "duration": 1.6484501302083174,
            "durationTicks": 1150,
            "midi": 73,
            "name": "C#5",
            "ticks": 84476,
            "time": 120.51065826041668,
            "velocity": 0.7165354330708661
          },
          {
            "duration": 0.5475721302083372,
            "durationTicks": 382,
            "midi": 63,
            "name": "D#4",
            "ticks": 85628,
            "time": 122.16197526041667,
            "velocity": 0.7165354330708661
          },
          {
            "duration": 0.5475721302083372,
            "durationTicks": 382,
            "midi": 66,
            "name": "F#4",
            "ticks": 85628,
            "time": 122.16197526041667,
            "velocity": 0.7165354330708661
          },
          {
            "duration": 0.5475721302083372,
            "durationTicks": 382,
            "midi": 71,
            "name": "B4",
            "ticks": 85628,
            "time": 122.16197526041667,
            "velocity": 0.7165354330708661
          },
          {
            "duration": 1.0980111302083344,
            "durationTicks": 766,
            "midi": 61,
            "name": "C#4",
            "ticks": 86012,
            "time": 122.71241426041667,
            "velocity": 0.7165354330708661
          },
          {
            "duration": 1.0980111302083344,
            "durationTicks": 766,
            "midi": 64,
            "name": "E4",
            "ticks": 86012,
            "time": 122.71241426041667,
            "velocity": 0.7165354330708661
          },
          {
            "duration": 1.0980111302083344,
            "durationTicks": 766,
            "midi": 69,
            "name": "A4",
            "ticks": 86012,
            "time": 122.71241426041667,
            "velocity": 0.7165354330708661
          },
          {
            "duration": 1.0980111302083202,
            "durationTicks": 766,
            "midi": 63,
            "name": "D#4",
            "ticks": 86780,
            "time": 123.81329226041667,
            "velocity": 0.7165354330708661
          },
          {
            "duration": 1.0980111302083202,
            "durationTicks": 766,
            "midi": 66,
            "name": "F#4",
            "ticks": 86780,
            "time": 123.81329226041667,
            "velocity": 0.7165354330708661
          },
          {
            "duration": 1.0980111302083202,
            "durationTicks": 766,
            "midi": 71,
            "name": "B4",
            "ticks": 86780,
            "time": 123.81329226041667,
            "velocity": 0.7165354330708661
          },
          {
            "duration": 2.413904364583331,
            "durationTicks": 1684,
            "midi": 68,
            "name": "G#4",
            "ticks": 87548,
            "time": 124.91417026041667,
            "velocity": 0.7165354330708661
          },
          {
            "duration": 2.4053037552083367,
            "durationTicks": 1678,
            "midi": 71,
            "name": "B4",
            "ticks": 87548,
            "time": 124.91417026041667,
            "velocity": 0.7165354330708661
          },
          {
            "duration": 2.42537184375,
            "durationTicks": 1692,
            "midi": 76,
            "name": "E5",
            "ticks": 87548,
            "time": 124.91417026041667,
            "velocity": 0.7165354330708661
          }
        ],
        "endOfTrackTicks": 89432
      },
      {
        "channel": 0,
        "controlChanges": {},
        "pitchBends": [],
        "instrument": {
          "family": "piano",
          "number": 0,
          "name": "acoustic grand piano"
        },
        "name": "",
        "notes": [],
        "endOfTrackTicks": 6144
      },
      {
        "channel": 0,
        "controlChanges": {},
        "pitchBends": [],
        "instrument": {
          "family": "piano",
          "number": 0,
          "name": "acoustic grand piano"
        },
        "name": "",
        "notes": [],
        "endOfTrackTicks": 2025
      }
    ]
  }