{
    "header": {
      "keySignatures": [
        {
          "key": "F#",
          "scale": "major",
          "ticks": 0
        }
      ],
      "meta": [],
      "name": "童话-光良",
      "ppq": 480,
      "tempos": [
        {
          "bpm": 67.99999546666697,
          "ticks": 0
        }
      ],
      "timeSignatures": [
        {
          "ticks": 0,
          "timeSignature": [
            2,
            4
          ],
          "measures": 0
        }
      ]
    },
    "tracks": [
      {
        "channel": 0,
        "controlChanges": {},
        "pitchBends": [],
        "instrument": {
          "family": "piano",
          "number": 0,
          "name": "acoustic grand piano"
        },
        "name": "Tong Hua",
        "notes": [],
        "endOfTrackTicks": 32640
      },
      {
        "channel": 0,
        "controlChanges": {},
        "pitchBends": [],
        "instrument": {
          "family": "piano",
          "number": 0,
          "name": "acoustic grand piano"
        },
        "name": "Tong Hua",
        "notes": [],
        "endOfTrackTicks": 32640
      },
      {
        "channel": 1,
        "controlChanges": {
          "7": [
            {
              "number": 7,
              "ticks": 0,
              "time": 0,
              "value": 0.9448818897637795
            }
          ],
          "10": [
            {
              "number": 10,
              "ticks": 0,
              "time": 0,
              "value": 0.5905511811023622
            }
          ]
        },
        "pitchBends": [],
        "instrument": {
          "family": "chromatic percussion",
          "number": 10,
          "name": "music box"
        },
        "name": "",
        "notes": [
          {
            "duration": 0.44117649999999997,
            "durationTicks": 240,
            "midi": 73,
            "name": "C#5",
            "ticks": 240,
            "time": 0.44117649999999997,
            "velocity": 0.7874015748031497
          },
          {
            "duration": 0.44117649999999986,
            "durationTicks": 240,
            "midi": 85,
            "name": "C#6",
            "ticks": 480,
            "time": 0.8823529999999999,
            "velocity": 0.7874015748031497
          },
          {
            "duration": 0.4411765000000001,
            "durationTicks": 240,
            "midi": 83,
            "name": "B5",
            "ticks": 720,
            "time": 1.3235294999999998,
            "velocity": 0.7874015748031497
          },
          {
            "duration": 0.8823529999999997,
            "durationTicks": 480,
            "midi": 82,
            "name": "A#5",
            "ticks": 960,
            "time": 1.7647059999999999,
            "velocity": 0.7874015748031497
          },
          {
            "duration": 0.4411765000000001,
            "durationTicks": 240,
            "midi": 82,
            "name": "A#5",
            "ticks": 1440,
            "time": 2.6470589999999996,
            "velocity": 0.7874015748031497
          },
          {
            "duration": 0.22058825000000004,
            "durationTicks": 120,
            "midi": 83,
            "name": "B5",
            "ticks": 1680,
            "time": 3.0882354999999997,
            "velocity": 0.7874015748031497
          },
          {
            "duration": 1.1029412500000002,
            "durationTicks": 600,
            "midi": 82,
            "name": "A#5",
            "ticks": 1800,
            "time": 3.3088237499999997,
            "velocity": 0.7874015748031497
          },
          {
            "duration": 0.4411765000000001,
            "durationTicks": 240,
            "midi": 82,
            "name": "A#5",
            "ticks": 2400,
            "time": 4.411765,
            "velocity": 0.7874015748031497
          },
          {
            "duration": 0.4411764999999992,
            "durationTicks": 240,
            "midi": 83,
            "name": "B5",
            "ticks": 2640,
            "time": 4.8529415,
            "velocity": 0.7874015748031497
          },
          {
            "duration": 0.4411765000000001,
            "durationTicks": 240,
            "midi": 82,
            "name": "A#5",
            "ticks": 2880,
            "time": 5.294117999999999,
            "velocity": 0.7874015748031497
          },
          {
            "duration": 0.4411765000000001,
            "durationTicks": 240,
            "midi": 83,
            "name": "B5",
            "ticks": 3120,
            "time": 5.735294499999999,
            "velocity": 0.7874015748031497
          },
          {
            "duration": 0.4411765000000001,
            "durationTicks": 240,
            "midi": 82,
            "name": "A#5",
            "ticks": 3360,
            "time": 6.176470999999999,
            "velocity": 0.7874015748031497
          },
          {
            "duration": 0.22058825000000049,
            "durationTicks": 120,
            "midi": 80,
            "name": "G#5",
            "ticks": 3600,
            "time": 6.6176474999999995,
            "velocity": 0.7874015748031497
          },
          {
            "duration": 0.4411764999999992,
            "durationTicks": 240,
            "midi": 78,
            "name": "F#5",
            "ticks": 3720,
            "time": 6.83823575,
            "velocity": 0.7874015748031497
          },
          {
            "duration": 0.4411765000000001,
            "durationTicks": 240,
            "midi": 78,
            "name": "F#5",
            "ticks": 4080,
            "time": 7.5000005,
            "velocity": 0.7874015748031497
          },
          {
            "duration": 0.4411764999999992,
            "durationTicks": 240,
            "midi": 82,
            "name": "A#5",
            "ticks": 4320,
            "time": 7.941177,
            "velocity": 0.7874015748031497
          },
          {
            "duration": 0.44117650000000097,
            "durationTicks": 240,
            "midi": 85,
            "name": "C#6",
            "ticks": 4560,
            "time": 8.382353499999999,
            "velocity": 0.7874015748031497
          },
          {
            "duration": 0.8823530000000002,
            "durationTicks": 480,
            "midi": 87,
            "name": "D#6",
            "ticks": 4800,
            "time": 8.82353,
            "velocity": 0.7874015748031497
          },
          {
            "duration": 0.4411764999999992,
            "durationTicks": 240,
            "midi": 87,
            "name": "D#6",
            "ticks": 5280,
            "time": 9.705883,
            "velocity": 0.7874015748031497
          },
          {
            "duration": 0.22058825000000049,
            "durationTicks": 120,
            "midi": 87,
            "name": "D#6",
            "ticks": 5520,
            "time": 10.1470595,
            "velocity": 0.7874015748031497
          },
          {
            "duration": 0.6617647499999997,
            "durationTicks": 360,
            "midi": 85,
            "name": "C#6",
            "ticks": 5640,
            "time": 10.36764775,
            "velocity": 0.7874015748031497
          },
          {
            "duration": 0.4411764999999992,
            "durationTicks": 240,
            "midi": 80,
            "name": "G#5",
            "ticks": 6000,
            "time": 11.0294125,
            "velocity": 0.7874015748031497
          },
          {
            "duration": 0.44117650000000097,
            "durationTicks": 240,
            "midi": 80,
            "name": "G#5",
            "ticks": 6240,
            "time": 11.470588999999999,
            "velocity": 0.7874015748031497
          },
          {
            "duration": 0.22058825000000049,
            "durationTicks": 120,
            "midi": 83,
            "name": "B5",
            "ticks": 6480,
            "time": 11.9117655,
            "velocity": 0.7874015748031497
          },
          {
            "duration": 2.2058824999999995,
            "durationTicks": 1200,
            "midi": 82,
            "name": "A#5",
            "ticks": 6600,
            "time": 12.13235375,
            "velocity": 0.7874015748031497
          },
          {
            "duration": 0.44117650000000097,
            "durationTicks": 240,
            "midi": 78,
            "name": "F#5",
            "ticks": 7920,
            "time": 14.558824499999998,
            "velocity": 0.7874015748031497
          },
          {
            "duration": 0.4411764999999992,
            "durationTicks": 240,
            "midi": 82,
            "name": "A#5",
            "ticks": 8160,
            "time": 15.000001,
            "velocity": 0.7874015748031497
          },
          {
            "duration": 0.44117650000000097,
            "durationTicks": 240,
            "midi": 85,
            "name": "C#6",
            "ticks": 8400,
            "time": 15.441177499999998,
            "velocity": 0.7874015748031497
          },
          {
            "duration": 0.8823529999999984,
            "durationTicks": 480,
            "midi": 87,
            "name": "D#6",
            "ticks": 8640,
            "time": 15.882354,
            "velocity": 0.7874015748031497
          },
          {
            "duration": 0.44117650000000097,
            "durationTicks": 240,
            "midi": 87,
            "name": "D#6",
            "ticks": 9120,
            "time": 16.764706999999998,
            "velocity": 0.7874015748031497
          },
          {
            "duration": 0.2205882499999987,
            "durationTicks": 120,
            "midi": 87,
            "name": "D#6",
            "ticks": 9360,
            "time": 17.2058835,
            "velocity": 0.7874015748031497
          },
          {
            "duration": 0.6617647499999997,
            "durationTicks": 360,
            "midi": 85,
            "name": "C#6",
            "ticks": 9480,
            "time": 17.426471749999997,
            "velocity": 0.7874015748031497
          },
          {
            "duration": 0.44117650000000097,
            "durationTicks": 240,
            "midi": 80,
            "name": "G#5",
            "ticks": 9840,
            "time": 18.088236499999997,
            "velocity": 0.7874015748031497
          },
          {
            "duration": 0.44117650000000097,
            "durationTicks": 240,
            "midi": 80,
            "name": "G#5",
            "ticks": 10080,
            "time": 18.529412999999998,
            "velocity": 0.7874015748031497
          },
          {
            "duration": 0.44117650000000097,
            "durationTicks": 240,
            "midi": 83,
            "name": "B5",
            "ticks": 10320,
            "time": 18.9705895,
            "velocity": 0.7874015748031497
          },
          {
            "duration": 0.4411764999999974,
            "durationTicks": 240,
            "midi": 82,
            "name": "A#5",
            "ticks": 10560,
            "time": 19.411766,
            "velocity": 0.7874015748031497
          },
          {
            "duration": 0.44117650000000097,
            "durationTicks": 240,
            "midi": 83,
            "name": "B5",
            "ticks": 10800,
            "time": 19.852942499999997,
            "velocity": 0.7874015748031497
          },
          {
            "duration": 0.44117650000000097,
            "durationTicks": 240,
            "midi": 82,
            "name": "A#5",
            "ticks": 11040,
            "time": 20.294119,
            "velocity": 0.7874015748031497
          },
          {
            "duration": 0.2205882499999987,
            "durationTicks": 120,
            "midi": 80,
            "name": "G#5",
            "ticks": 11280,
            "time": 20.7352955,
            "velocity": 0.7874015748031497
          },
          {
            "duration": 1.1029412500000007,
            "durationTicks": 600,
            "midi": 78,
            "name": "F#5",
            "ticks": 11400,
            "time": 20.955883749999998,
            "velocity": 0.7874015748031497
          },
          {
            "duration": 0.44117650000000097,
            "durationTicks": 240,
            "midi": 80,
            "name": "G#5",
            "ticks": 12000,
            "time": 22.058825,
            "velocity": 0.7874015748031497
          },
          {
            "duration": 0.4411764999999974,
            "durationTicks": 240,
            "midi": 82,
            "name": "A#5",
            "ticks": 12240,
            "time": 22.5000015,
            "velocity": 0.7874015748031497
          },
          {
            "duration": 0.8823530000000019,
            "durationTicks": 480,
            "midi": 75,
            "name": "D#5",
            "ticks": 12480,
            "time": 22.941177999999997,
            "velocity": 0.7874015748031497
          },
          {
            "duration": 0.44117650000000097,
            "durationTicks": 240,
            "midi": 75,
            "name": "D#5",
            "ticks": 12960,
            "time": 23.823531,
            "velocity": 0.7874015748031497
          },
          {
            "duration": 0.4411764999999974,
            "durationTicks": 240,
            "midi": 78,
            "name": "F#5",
            "ticks": 13200,
            "time": 24.2647075,
            "velocity": 0.7874015748031497
          },
          {
            "duration": 0.8823530000000019,
            "durationTicks": 480,
            "midi": 78,
            "name": "F#5",
            "ticks": 13440,
            "time": 24.705883999999998,
            "velocity": 0.7874015748031497
          },
          {
            "duration": 0.8823529999999984,
            "durationTicks": 480,
            "midi": 77,
            "name": "F5",
            "ticks": 13920,
            "time": 25.588237,
            "velocity": 0.7874015748031497
          },
          {
            "duration": 1.985294249999999,
            "durationTicks": 1080,
            "midi": 78,
            "name": "F#5",
            "ticks": 14400,
            "time": 26.470589999999998,
            "velocity": 0.7874015748031497
          },
          {
            "duration": 0.4411764999999974,
            "durationTicks": 240,
            "midi": 73,
            "name": "C#5",
            "ticks": 15600,
            "time": 28.6764725,
            "velocity": 0.7874015748031497
          },
          {
            "duration": 0.44117650000000097,
            "durationTicks": 240,
            "midi": 85,
            "name": "C#6",
            "ticks": 15840,
            "time": 29.117648999999997,
            "velocity": 0.7874015748031497
          },
          {
            "duration": 0.44117650000000097,
            "durationTicks": 240,
            "midi": 83,
            "name": "B5",
            "ticks": 16080,
            "time": 29.558825499999998,
            "velocity": 0.7874015748031497
          },
          {
            "duration": 0.8823529999999984,
            "durationTicks": 480,
            "midi": 82,
            "name": "A#5",
            "ticks": 16320,
            "time": 30.000002,
            "velocity": 0.7874015748031497
          },
          {
            "duration": 0.44117650000000097,
            "durationTicks": 240,
            "midi": 82,
            "name": "A#5",
            "ticks": 16800,
            "time": 30.882354999999997,
            "velocity": 0.7874015748031497
          },
          {
            "duration": 0.2205882499999987,
            "durationTicks": 120,
            "midi": 83,
            "name": "B5",
            "ticks": 17040,
            "time": 31.323531499999998,
            "velocity": 0.7874015748031497
          },
          {
            "duration": 1.1029412500000042,
            "durationTicks": 600,
            "midi": 82,
            "name": "A#5",
            "ticks": 17160,
            "time": 31.544119749999997,
            "velocity": 0.7874015748031497
          },
          {
            "duration": 0.4411764999999974,
            "durationTicks": 240,
            "midi": 82,
            "name": "A#5",
            "ticks": 17760,
            "time": 32.647061,
            "velocity": 0.7874015748031497
          },
          {
            "duration": 0.4411764999999974,
            "durationTicks": 240,
            "midi": 83,
            "name": "B5",
            "ticks": 18000,
            "time": 33.0882375,
            "velocity": 0.7874015748031497
          },
          {
            "duration": 0.4411765000000045,
            "durationTicks": 240,
            "midi": 82,
            "name": "A#5",
            "ticks": 18240,
            "time": 33.529413999999996,
            "velocity": 0.7874015748031497
          },
          {
            "duration": 0.4411764999999974,
            "durationTicks": 240,
            "midi": 83,
            "name": "B5",
            "ticks": 18480,
            "time": 33.9705905,
            "velocity": 0.7874015748031497
          },
          {
            "duration": 0.4411764999999974,
            "durationTicks": 240,
            "midi": 82,
            "name": "A#5",
            "ticks": 18720,
            "time": 34.411767,
            "velocity": 0.7874015748031497
          },
          {
            "duration": 0.22058825000000581,
            "durationTicks": 120,
            "midi": 80,
            "name": "G#5",
            "ticks": 18960,
            "time": 34.852943499999995,
            "velocity": 0.7874015748031497
          },
          {
            "duration": 0.4411764999999974,
            "durationTicks": 240,
            "midi": 78,
            "name": "F#5",
            "ticks": 19080,
            "time": 35.07353175,
            "velocity": 0.7874015748031497
          },
          {
            "duration": 0.4411764999999974,
            "durationTicks": 240,
            "midi": 78,
            "name": "F#5",
            "ticks": 19440,
            "time": 35.7352965,
            "velocity": 0.7874015748031497
          },
          {
            "duration": 0.4411765000000045,
            "durationTicks": 240,
            "midi": 82,
            "name": "A#5",
            "ticks": 19680,
            "time": 36.176472999999994,
            "velocity": 0.7874015748031497
          },
          {
            "duration": 0.4411764999999974,
            "durationTicks": 240,
            "midi": 85,
            "name": "C#6",
            "ticks": 19920,
            "time": 36.6176495,
            "velocity": 0.7874015748031497
          },
          {
            "duration": 0.8823530000000019,
            "durationTicks": 480,
            "midi": 87,
            "name": "D#6",
            "ticks": 20160,
            "time": 37.058825999999996,
            "velocity": 0.7874015748031497
          },
          {
            "duration": 0.4411764999999974,
            "durationTicks": 240,
            "midi": 87,
            "name": "D#6",
            "ticks": 20640,
            "time": 37.941179,
            "velocity": 0.7874015748031497
          },
          {
            "duration": 0.2205882499999987,
            "durationTicks": 120,
            "midi": 87,
            "name": "D#6",
            "ticks": 20880,
            "time": 38.382355499999996,
            "velocity": 0.7874015748031497
          },
          {
            "duration": 0.6617647500000032,
            "durationTicks": 360,
            "midi": 85,
            "name": "C#6",
            "ticks": 21000,
            "time": 38.602943749999994,
            "velocity": 0.7874015748031497
          },
          {
            "duration": 0.4411764999999974,
            "durationTicks": 240,
            "midi": 80,
            "name": "G#5",
            "ticks": 21360,
            "time": 39.2647085,
            "velocity": 0.7874015748031497
          },
          {
            "duration": 0.4411765000000045,
            "durationTicks": 240,
            "midi": 80,
            "name": "G#5",
            "ticks": 21600,
            "time": 39.705884999999995,
            "velocity": 0.7874015748031497
          },
          {
            "duration": 0.2205882499999987,
            "durationTicks": 120,
            "midi": 83,
            "name": "B5",
            "ticks": 21840,
            "time": 40.1470615,
            "velocity": 0.7874015748031497
          },
          {
            "duration": 2.2058825000000013,
            "durationTicks": 1200,
            "midi": 82,
            "name": "A#5",
            "ticks": 21960,
            "time": 40.36764975,
            "velocity": 0.7874015748031497
          },
          {
            "duration": 0.4411764999999974,
            "durationTicks": 240,
            "midi": 78,
            "name": "F#5",
            "ticks": 23280,
            "time": 42.7941205,
            "velocity": 0.7874015748031497
          },
          {
            "duration": 0.4411765000000045,
            "durationTicks": 240,
            "midi": 82,
            "name": "A#5",
            "ticks": 23520,
            "time": 43.235296999999996,
            "velocity": 0.7874015748031497
          },
          {
            "duration": 0.4411764999999974,
            "durationTicks": 240,
            "midi": 85,
            "name": "C#6",
            "ticks": 23760,
            "time": 43.6764735,
            "velocity": 0.7874015748031497
          },
          {
            "duration": 0.8823530000000019,
            "durationTicks": 480,
            "midi": 87,
            "name": "D#6",
            "ticks": 24000,
            "time": 44.11765,
            "velocity": 0.7874015748031497
          },
          {
            "duration": 0.4411764999999974,
            "durationTicks": 240,
            "midi": 87,
            "name": "D#6",
            "ticks": 24480,
            "time": 45.000003,
            "velocity": 0.7874015748031497
          },
          {
            "duration": 0.2205882499999987,
            "durationTicks": 120,
            "midi": 87,
            "name": "D#6",
            "ticks": 24720,
            "time": 45.4411795,
            "velocity": 0.7874015748031497
          },
          {
            "duration": 0.6617647500000032,
            "durationTicks": 360,
            "midi": 85,
            "name": "C#6",
            "ticks": 24840,
            "time": 45.661767749999996,
            "velocity": 0.7874015748031497
          },
          {
            "duration": 0.4411764999999974,
            "durationTicks": 240,
            "midi": 80,
            "name": "G#5",
            "ticks": 25200,
            "time": 46.3235325,
            "velocity": 0.7874015748031497
          },
          {
            "duration": 0.4411764999999974,
            "durationTicks": 240,
            "midi": 80,
            "name": "G#5",
            "ticks": 25440,
            "time": 46.764708999999996,
            "velocity": 0.7874015748031497
          },
          {
            "duration": 0.4411765000000045,
            "durationTicks": 240,
            "midi": 83,
            "name": "B5",
            "ticks": 25680,
            "time": 47.205885499999994,
            "velocity": 0.7874015748031497
          },
          {
            "duration": 0.4411764999999974,
            "durationTicks": 240,
            "midi": 82,
            "name": "A#5",
            "ticks": 25920,
            "time": 47.647062,
            "velocity": 0.7874015748031497
          },
          {
            "duration": 0.4411765000000045,
            "durationTicks": 240,
            "midi": 83,
            "name": "B5",
            "ticks": 26160,
            "time": 48.088238499999996,
            "velocity": 0.7874015748031497
          },
          {
            "duration": 0.4411764999999974,
            "durationTicks": 240,
            "midi": 82,
            "name": "A#5",
            "ticks": 26400,
            "time": 48.529415,
            "velocity": 0.7874015748031497
          },
          {
            "duration": 0.2205882499999987,
            "durationTicks": 120,
            "midi": 80,
            "name": "G#5",
            "ticks": 26640,
            "time": 48.9705915,
            "velocity": 0.7874015748031497
          },
          {
            "duration": 1.1029412500000007,
            "durationTicks": 600,
            "midi": 78,
            "name": "F#5",
            "ticks": 26760,
            "time": 49.191179749999996,
            "velocity": 0.7874015748031497
          },
          {
            "duration": 0.4411764999999974,
            "durationTicks": 240,
            "midi": 80,
            "name": "G#5",
            "ticks": 27360,
            "time": 50.294121,
            "velocity": 0.7874015748031497
          },
          {
            "duration": 0.4411765000000045,
            "durationTicks": 240,
            "midi": 82,
            "name": "A#5",
            "ticks": 27600,
            "time": 50.735297499999994,
            "velocity": 0.7874015748031497
          },
          {
            "duration": 0.8823529999999948,
            "durationTicks": 480,
            "midi": 75,
            "name": "D#5",
            "ticks": 27840,
            "time": 51.176474,
            "velocity": 0.7874015748031497
          },
          {
            "duration": 0.4411765000000045,
            "durationTicks": 240,
            "midi": 75,
            "name": "D#5",
            "ticks": 28320,
            "time": 52.058826999999994,
            "velocity": 0.7874015748031497
          },
          {
            "duration": 0.4411764999999974,
            "durationTicks": 240,
            "midi": 78,
            "name": "F#5",
            "ticks": 28560,
            "time": 52.5000035,
            "velocity": 0.7874015748031497
          },
          {
            "duration": 0.8823530000000019,
            "durationTicks": 480,
            "midi": 78,
            "name": "F#5",
            "ticks": 28800,
            "time": 52.941179999999996,
            "velocity": 0.7874015748031497
          },
          {
            "duration": 0.8823530000000019,
            "durationTicks": 480,
            "midi": 77,
            "name": "F5",
            "ticks": 29280,
            "time": 53.823533,
            "velocity": 0.7874015748031497
          },
          {
            "duration": 1.9852942499999955,
            "durationTicks": 1080,
            "midi": 78,
            "name": "F#5",
            "ticks": 29760,
            "time": 54.705886,
            "velocity": 0.7874015748031497
          }
        ]
      },
      {
        "channel": 0,
        "controlChanges": {},
        "pitchBends": [],
        "instrument": {
          "family": "piano",
          "number": 0,
          "name": "acoustic grand piano"
        },
        "name": "Tong Hua",
        "notes": [],
        "endOfTrackTicks": 32640
      },
      {
        "channel": 2,
        "controlChanges": {
          "7": [
            {
              "number": 7,
              "ticks": 0,
              "time": 0,
              "value": 0.7874015748031497
            }
          ],
          "10": [
            {
              "number": 10,
              "ticks": 0,
              "time": 0,
              "value": 0.5039370078740157
            }
          ]
        },
        "pitchBends": [],
        "instrument": {
          "family": "chromatic percussion",
          "number": 10,
          "name": "music box"
        },
        "name": "",
        "notes": [
          {
            "duration": 1.7647059999999999,
            "durationTicks": 960,
            "midi": 66,
            "name": "F#4",
            "ticks": 960,
            "time": 1.7647059999999999,
            "velocity": 0.7874015748031497
          },
          {
            "duration": 1.7647059999999994,
            "durationTicks": 960,
            "midi": 65,
            "name": "F4",
            "ticks": 1920,
            "time": 3.5294119999999998,
            "velocity": 0.7874015748031497
          },
          {
            "duration": 1.7647060000000003,
            "durationTicks": 960,
            "midi": 63,
            "name": "D#4",
            "ticks": 2880,
            "time": 5.294117999999999,
            "velocity": 0.7874015748031497
          },
          {
            "duration": 1.3235294999999994,
            "durationTicks": 720,
            "midi": 61,
            "name": "C#4",
            "ticks": 3840,
            "time": 7.0588239999999995,
            "velocity": 0.7874015748031497
          },
          {
            "duration": 0.44117650000000097,
            "durationTicks": 240,
            "midi": 61,
            "name": "C#4",
            "ticks": 4560,
            "time": 8.382353499999999,
            "velocity": 0.7874015748031497
          },
          {
            "duration": 1.7647059999999986,
            "durationTicks": 960,
            "midi": 71,
            "name": "B4",
            "ticks": 4800,
            "time": 8.82353,
            "velocity": 0.7874015748031497
          },
          {
            "duration": 1.7647060000000003,
            "durationTicks": 960,
            "midi": 61,
            "name": "C#4",
            "ticks": 5760,
            "time": 10.588235999999998,
            "velocity": 0.7874015748031497
          },
          {
            "duration": 1.7647060000000003,
            "durationTicks": 960,
            "midi": 66,
            "name": "F#4",
            "ticks": 6720,
            "time": 12.352941999999999,
            "velocity": 0.7874015748031497
          },
          {
            "duration": 1.7647060000000003,
            "durationTicks": 960,
            "midi": 66,
            "name": "F#4",
            "ticks": 7680,
            "time": 14.117647999999999,
            "velocity": 0.7874015748031497
          },
          {
            "duration": 1.7647060000000003,
            "durationTicks": 960,
            "midi": 71,
            "name": "B4",
            "ticks": 8640,
            "time": 15.882354,
            "velocity": 0.7874015748031497
          },
          {
            "duration": 1.7647060000000003,
            "durationTicks": 960,
            "midi": 61,
            "name": "C#4",
            "ticks": 9600,
            "time": 17.64706,
            "velocity": 0.7874015748031497
          },
          {
            "duration": 0.8823529999999984,
            "durationTicks": 480,
            "midi": 66,
            "name": "F#4",
            "ticks": 10560,
            "time": 19.411766,
            "velocity": 0.7874015748031497
          },
          {
            "duration": 0.8823529999999984,
            "durationTicks": 480,
            "midi": 65,
            "name": "F4",
            "ticks": 11040,
            "time": 20.294119,
            "velocity": 0.7874015748031497
          },
          {
            "duration": 0.8823530000000019,
            "durationTicks": 480,
            "midi": 63,
            "name": "D#4",
            "ticks": 11520,
            "time": 21.176471999999997,
            "velocity": 0.7874015748031497
          },
          {
            "duration": 0.8823529999999984,
            "durationTicks": 480,
            "midi": 61,
            "name": "C#4",
            "ticks": 12000,
            "time": 22.058825,
            "velocity": 0.7874015748031497
          },
          {
            "duration": 1.7647060000000003,
            "durationTicks": 960,
            "midi": 71,
            "name": "B4",
            "ticks": 12480,
            "time": 22.941177999999997,
            "velocity": 0.7874015748031497
          },
          {
            "duration": 1.7647060000000003,
            "durationTicks": 960,
            "midi": 61,
            "name": "C#4",
            "ticks": 13440,
            "time": 24.705883999999998,
            "velocity": 0.7874015748031497
          },
          {
            "duration": 1.7647060000000003,
            "durationTicks": 960,
            "midi": 66,
            "name": "F#4",
            "ticks": 14400,
            "time": 26.470589999999998,
            "velocity": 0.7874015748031497
          },
          {
            "duration": 0.8823529999999984,
            "durationTicks": 480,
            "midi": 61,
            "name": "C#4",
            "ticks": 15360,
            "time": 28.235295999999998,
            "velocity": 0.7874015748031497
          },
          {
            "duration": 0.8823530000000019,
            "durationTicks": 480,
            "midi": 61,
            "name": "C#4",
            "ticks": 15840,
            "time": 29.117648999999997,
            "velocity": 0.7874015748031497
          },
          {
            "duration": 1.7647060000000003,
            "durationTicks": 960,
            "midi": 66,
            "name": "F#4",
            "ticks": 16320,
            "time": 30.000002,
            "velocity": 0.7874015748031497
          },
          {
            "duration": 1.7647059999999968,
            "durationTicks": 960,
            "midi": 65,
            "name": "F4",
            "ticks": 17280,
            "time": 31.764708,
            "velocity": 0.7874015748031497
          },
          {
            "duration": 1.7647060000000039,
            "durationTicks": 960,
            "midi": 63,
            "name": "D#4",
            "ticks": 18240,
            "time": 33.529413999999996,
            "velocity": 0.7874015748031497
          },
          {
            "duration": 1.3235294999999994,
            "durationTicks": 720,
            "midi": 61,
            "name": "C#4",
            "ticks": 19200,
            "time": 35.29412,
            "velocity": 0.7874015748031497
          },
          {
            "duration": 0.4411764999999974,
            "durationTicks": 240,
            "midi": 61,
            "name": "C#4",
            "ticks": 19920,
            "time": 36.6176495,
            "velocity": 0.7874015748031497
          },
          {
            "duration": 1.7647060000000039,
            "durationTicks": 960,
            "midi": 71,
            "name": "B4",
            "ticks": 20160,
            "time": 37.058825999999996,
            "velocity": 0.7874015748031497
          },
          {
            "duration": 1.7647059999999968,
            "durationTicks": 960,
            "midi": 61,
            "name": "C#4",
            "ticks": 21120,
            "time": 38.823532,
            "velocity": 0.7874015748031497
          },
          {
            "duration": 1.7647059999999968,
            "durationTicks": 960,
            "midi": 66,
            "name": "F#4",
            "ticks": 22080,
            "time": 40.588238,
            "velocity": 0.7874015748031497
          },
          {
            "duration": 1.7647060000000039,
            "durationTicks": 960,
            "midi": 66,
            "name": "F#4",
            "ticks": 23040,
            "time": 42.352943999999994,
            "velocity": 0.7874015748031497
          },
          {
            "duration": 1.7647059999999968,
            "durationTicks": 960,
            "midi": 71,
            "name": "B4",
            "ticks": 24000,
            "time": 44.11765,
            "velocity": 0.7874015748031497
          },
          {
            "duration": 1.7647060000000039,
            "durationTicks": 960,
            "midi": 61,
            "name": "C#4",
            "ticks": 24960,
            "time": 45.882355999999994,
            "velocity": 0.7874015748031497
          },
          {
            "duration": 0.8823530000000019,
            "durationTicks": 480,
            "midi": 66,
            "name": "F#4",
            "ticks": 25920,
            "time": 47.647062,
            "velocity": 0.7874015748031497
          },
          {
            "duration": 0.8823529999999948,
            "durationTicks": 480,
            "midi": 65,
            "name": "F4",
            "ticks": 26400,
            "time": 48.529415,
            "velocity": 0.7874015748031497
          },
          {
            "duration": 0.8823530000000019,
            "durationTicks": 480,
            "midi": 63,
            "name": "D#4",
            "ticks": 26880,
            "time": 49.411767999999995,
            "velocity": 0.7874015748031497
          },
          {
            "duration": 0.8823530000000019,
            "durationTicks": 480,
            "midi": 61,
            "name": "C#4",
            "ticks": 27360,
            "time": 50.294121,
            "velocity": 0.7874015748031497
          },
          {
            "duration": 1.7647059999999968,
            "durationTicks": 960,
            "midi": 71,
            "name": "B4",
            "ticks": 27840,
            "time": 51.176474,
            "velocity": 0.7874015748031497
          },
          {
            "duration": 1.7647060000000039,
            "durationTicks": 960,
            "midi": 61,
            "name": "C#4",
            "ticks": 28800,
            "time": 52.941179999999996,
            "velocity": 0.7874015748031497
          },
          {
            "duration": 1.7647059999999968,
            "durationTicks": 960,
            "midi": 66,
            "name": "F#4",
            "ticks": 29760,
            "time": 54.705886,
            "velocity": 0.7874015748031497
          }
        ]
      },
      {
        "channel": 0,
        "controlChanges": {},
        "pitchBends": [],
        "instrument": {
          "family": "piano",
          "number": 0,
          "name": "acoustic grand piano"
        },
        "name": "Tong Hua",
        "notes": [],
        "endOfTrackTicks": 32640
      },
      {
        "channel": 3,
        "controlChanges": {
          "7": [
            {
              "number": 7,
              "ticks": 0,
              "time": 0,
              "value": 0.6299212598425197
            }
          ],
          "10": [
            {
              "number": 10,
              "ticks": 0,
              "time": 0,
              "value": 0.3543307086614173
            }
          ]
        },
        "pitchBends": [],
        "instrument": {
          "family": "chromatic percussion",
          "number": 10,
          "name": "music box"
        },
        "name": "",
        "notes": [
          {
            "duration": 0.44117649999999997,
            "durationTicks": 240,
            "midi": 73,
            "name": "C#5",
            "ticks": 0,
            "time": 0,
            "velocity": 0.7874015748031497
          },
          {
            "duration": 0.44117649999999964,
            "durationTicks": 240,
            "midi": 73,
            "name": "C#5",
            "ticks": 1200,
            "time": 2.2058825,
            "velocity": 0.7874015748031497
          },
          {
            "duration": 0.4411765000000001,
            "durationTicks": 240,
            "midi": 68,
            "name": "G#4",
            "ticks": 1440,
            "time": 2.6470589999999996,
            "velocity": 0.7874015748031497
          },
          {
            "duration": 0.4411765000000001,
            "durationTicks": 240,
            "midi": 73,
            "name": "C#5",
            "ticks": 1680,
            "time": 3.0882354999999997,
            "velocity": 0.7874015748031497
          },
          {
            "duration": 0.4411765000000001,
            "durationTicks": 240,
            "midi": 73,
            "name": "C#5",
            "ticks": 2160,
            "time": 3.9705885,
            "velocity": 0.7874015748031497
          },
          {
            "duration": 0.4411765000000001,
            "durationTicks": 240,
            "midi": 68,
            "name": "G#4",
            "ticks": 2400,
            "time": 4.411765,
            "velocity": 0.7874015748031497
          },
          {
            "duration": 0.4411764999999992,
            "durationTicks": 240,
            "midi": 73,
            "name": "C#5",
            "ticks": 2640,
            "time": 4.8529415,
            "velocity": 0.7874015748031497
          },
          {
            "duration": 0.4411765000000001,
            "durationTicks": 240,
            "midi": 73,
            "name": "C#5",
            "ticks": 3120,
            "time": 5.735294499999999,
            "velocity": 0.7874015748031497
          },
          {
            "duration": 0.4411765000000001,
            "durationTicks": 240,
            "midi": 70,
            "name": "A#4",
            "ticks": 3360,
            "time": 6.176470999999999,
            "velocity": 0.7874015748031497
          },
          {
            "duration": 0.4411765000000001,
            "durationTicks": 240,
            "midi": 73,
            "name": "C#5",
            "ticks": 3600,
            "time": 6.6176474999999995,
            "velocity": 0.7874015748031497
          },
          {
            "duration": 0.4411765000000001,
            "durationTicks": 240,
            "midi": 73,
            "name": "C#5",
            "ticks": 4080,
            "time": 7.5000005,
            "velocity": 0.7874015748031497
          },
          {
            "duration": 0.4411764999999992,
            "durationTicks": 240,
            "midi": 70,
            "name": "A#4",
            "ticks": 4320,
            "time": 7.941177,
            "velocity": 0.7874015748031497
          },
          {
            "duration": 0.44117650000000097,
            "durationTicks": 240,
            "midi": 73,
            "name": "C#5",
            "ticks": 4560,
            "time": 8.382353499999999,
            "velocity": 0.7874015748031497
          },
          {
            "duration": 0.44117650000000097,
            "durationTicks": 240,
            "midi": 71,
            "name": "B4",
            "ticks": 5040,
            "time": 9.264706499999999,
            "velocity": 0.7874015748031497
          },
          {
            "duration": 0.4411764999999992,
            "durationTicks": 240,
            "midi": 66,
            "name": "F#4",
            "ticks": 5280,
            "time": 9.705883,
            "velocity": 0.7874015748031497
          },
          {
            "duration": 0.4411764999999992,
            "durationTicks": 240,
            "midi": 71,
            "name": "B4",
            "ticks": 5520,
            "time": 10.1470595,
            "velocity": 0.7874015748031497
          },
          {
            "duration": 0.4411764999999992,
            "durationTicks": 240,
            "midi": 73,
            "name": "C#5",
            "ticks": 6000,
            "time": 11.0294125,
            "velocity": 0.7874015748031497
          },
          {
            "duration": 0.44117650000000097,
            "durationTicks": 240,
            "midi": 68,
            "name": "G#4",
            "ticks": 6240,
            "time": 11.470588999999999,
            "velocity": 0.7874015748031497
          },
          {
            "duration": 0.4411764999999992,
            "durationTicks": 240,
            "midi": 73,
            "name": "C#5",
            "ticks": 6480,
            "time": 11.9117655,
            "velocity": 0.7874015748031497
          },
          {
            "duration": 0.4411764999999992,
            "durationTicks": 240,
            "midi": 70,
            "name": "A#4",
            "ticks": 6960,
            "time": 12.7941185,
            "velocity": 0.7874015748031497
          },
          {
            "duration": 0.44117650000000097,
            "durationTicks": 240,
            "midi": 68,
            "name": "G#4",
            "ticks": 7200,
            "time": 13.235294999999999,
            "velocity": 0.7874015748031497
          },
          {
            "duration": 0.4411764999999992,
            "durationTicks": 240,
            "midi": 73,
            "name": "C#5",
            "ticks": 7440,
            "time": 13.6764715,
            "velocity": 0.7874015748031497
          },
          {
            "duration": 0.44117650000000097,
            "durationTicks": 240,
            "midi": 68,
            "name": "G#4",
            "ticks": 7920,
            "time": 14.558824499999998,
            "velocity": 0.7874015748031497
          },
          {
            "duration": 0.4411764999999992,
            "durationTicks": 240,
            "midi": 73,
            "name": "C#5",
            "ticks": 8160,
            "time": 15.000001,
            "velocity": 0.7874015748031497
          },
          {
            "duration": 0.44117650000000097,
            "durationTicks": 240,
            "midi": 70,
            "name": "A#4",
            "ticks": 8400,
            "time": 15.441177499999998,
            "velocity": 0.7874015748031497
          },
          {
            "duration": 0.4411764999999974,
            "durationTicks": 240,
            "midi": 71,
            "name": "B4",
            "ticks": 8880,
            "time": 16.3235305,
            "velocity": 0.7874015748031497
          },
          {
            "duration": 0.44117650000000097,
            "durationTicks": 240,
            "midi": 66,
            "name": "F#4",
            "ticks": 9120,
            "time": 16.764706999999998,
            "velocity": 0.7874015748031497
          },
          {
            "duration": 0.44117650000000097,
            "durationTicks": 240,
            "midi": 71,
            "name": "B4",
            "ticks": 9360,
            "time": 17.2058835,
            "velocity": 0.7874015748031497
          },
          {
            "duration": 0.44117650000000097,
            "durationTicks": 240,
            "midi": 73,
            "name": "C#5",
            "ticks": 9840,
            "time": 18.088236499999997,
            "velocity": 0.7874015748031497
          },
          {
            "duration": 0.44117650000000097,
            "durationTicks": 240,
            "midi": 68,
            "name": "G#4",
            "ticks": 10080,
            "time": 18.529412999999998,
            "velocity": 0.7874015748031497
          },
          {
            "duration": 0.44117650000000097,
            "durationTicks": 240,
            "midi": 73,
            "name": "C#5",
            "ticks": 10320,
            "time": 18.9705895,
            "velocity": 0.7874015748031497
          },
          {
            "duration": 0.44117650000000097,
            "durationTicks": 240,
            "midi": 73,
            "name": "C#5",
            "ticks": 10800,
            "time": 19.852942499999997,
            "velocity": 0.7874015748031497
          },
          {
            "duration": 0.4411764999999974,
            "durationTicks": 240,
            "midi": 73,
            "name": "C#5",
            "ticks": 11280,
            "time": 20.7352955,
            "velocity": 0.7874015748031497
          },
          {
            "duration": 0.44117650000000097,
            "durationTicks": 240,
            "midi": 73,
            "name": "C#5",
            "ticks": 11760,
            "time": 21.617648499999998,
            "velocity": 0.7874015748031497
          },
          {
            "duration": 0.4411764999999974,
            "durationTicks": 240,
            "midi": 73,
            "name": "C#5",
            "ticks": 12240,
            "time": 22.5000015,
            "velocity": 0.7874015748031497
          },
          {
            "duration": 0.44117650000000097,
            "durationTicks": 240,
            "midi": 71,
            "name": "B4",
            "ticks": 12720,
            "time": 23.382354499999998,
            "velocity": 0.7874015748031497
          },
          {
            "duration": 0.44117650000000097,
            "durationTicks": 240,
            "midi": 66,
            "name": "F#4",
            "ticks": 12960,
            "time": 23.823531,
            "velocity": 0.7874015748031497
          },
          {
            "duration": 0.4411764999999974,
            "durationTicks": 240,
            "midi": 71,
            "name": "B4",
            "ticks": 13200,
            "time": 24.2647075,
            "velocity": 0.7874015748031497
          },
          {
            "duration": 0.44117650000000097,
            "durationTicks": 240,
            "midi": 73,
            "name": "C#5",
            "ticks": 13680,
            "time": 25.1470605,
            "velocity": 0.7874015748031497
          },
          {
            "duration": 0.4411764999999974,
            "durationTicks": 240,
            "midi": 68,
            "name": "G#4",
            "ticks": 13920,
            "time": 25.588237,
            "velocity": 0.7874015748031497
          },
          {
            "duration": 0.44117650000000097,
            "durationTicks": 240,
            "midi": 73,
            "name": "C#5",
            "ticks": 14160,
            "time": 26.029413499999997,
            "velocity": 0.7874015748031497
          },
          {
            "duration": 0.44117650000000097,
            "durationTicks": 240,
            "midi": 70,
            "name": "A#4",
            "ticks": 14640,
            "time": 26.9117665,
            "velocity": 0.7874015748031497
          },
          {
            "duration": 0.4411764999999974,
            "durationTicks": 240,
            "midi": 68,
            "name": "G#4",
            "ticks": 14880,
            "time": 27.352943,
            "velocity": 0.7874015748031497
          },
          {
            "duration": 0.44117650000000097,
            "durationTicks": 240,
            "midi": 73,
            "name": "C#5",
            "ticks": 15120,
            "time": 27.794119499999997,
            "velocity": 0.7874015748031497
          },
          {
            "duration": 0.8823529999999984,
            "durationTicks": 480,
            "midi": 68,
            "name": "G#4",
            "ticks": 15360,
            "time": 28.235295999999998,
            "velocity": 0.7874015748031497
          },
          {
            "duration": 0.44117650000000097,
            "durationTicks": 240,
            "midi": 73,
            "name": "C#5",
            "ticks": 15840,
            "time": 29.117648999999997,
            "velocity": 0.7874015748031497
          },
          {
            "duration": 0.44117650000000097,
            "durationTicks": 240,
            "midi": 68,
            "name": "G#4",
            "ticks": 16080,
            "time": 29.558825499999998,
            "velocity": 0.7874015748031497
          },
          {
            "duration": 0.4411764999999974,
            "durationTicks": 240,
            "midi": 73,
            "name": "C#5",
            "ticks": 16560,
            "time": 30.4411785,
            "velocity": 0.7874015748031497
          },
          {
            "duration": 0.44117650000000097,
            "durationTicks": 240,
            "midi": 68,
            "name": "G#4",
            "ticks": 16800,
            "time": 30.882354999999997,
            "velocity": 0.7874015748031497
          },
          {
            "duration": 0.44117650000000097,
            "durationTicks": 240,
            "midi": 73,
            "name": "C#5",
            "ticks": 17040,
            "time": 31.323531499999998,
            "velocity": 0.7874015748031497
          },
          {
            "duration": 0.4411765000000045,
            "durationTicks": 240,
            "midi": 73,
            "name": "C#5",
            "ticks": 17520,
            "time": 32.205884499999996,
            "velocity": 0.7874015748031497
          },
          {
            "duration": 0.4411764999999974,
            "durationTicks": 240,
            "midi": 68,
            "name": "G#4",
            "ticks": 17760,
            "time": 32.647061,
            "velocity": 0.7874015748031497
          },
          {
            "duration": 0.4411764999999974,
            "durationTicks": 240,
            "midi": 73,
            "name": "C#5",
            "ticks": 18000,
            "time": 33.0882375,
            "velocity": 0.7874015748031497
          },
          {
            "duration": 0.4411764999999974,
            "durationTicks": 240,
            "midi": 73,
            "name": "C#5",
            "ticks": 18480,
            "time": 33.9705905,
            "velocity": 0.7874015748031497
          },
          {
            "duration": 0.4411764999999974,
            "durationTicks": 240,
            "midi": 70,
            "name": "A#4",
            "ticks": 18720,
            "time": 34.411767,
            "velocity": 0.7874015748031497
          },
          {
            "duration": 0.4411765000000045,
            "durationTicks": 240,
            "midi": 73,
            "name": "C#5",
            "ticks": 18960,
            "time": 34.852943499999995,
            "velocity": 0.7874015748031497
          },
          {
            "duration": 0.4411764999999974,
            "durationTicks": 240,
            "midi": 73,
            "name": "C#5",
            "ticks": 19440,
            "time": 35.7352965,
            "velocity": 0.7874015748031497
          },
          {
            "duration": 0.4411765000000045,
            "durationTicks": 240,
            "midi": 70,
            "name": "A#4",
            "ticks": 19680,
            "time": 36.176472999999994,
            "velocity": 0.7874015748031497
          },
          {
            "duration": 0.4411764999999974,
            "durationTicks": 240,
            "midi": 73,
            "name": "C#5",
            "ticks": 19920,
            "time": 36.6176495,
            "velocity": 0.7874015748031497
          },
          {
            "duration": 0.4411764999999974,
            "durationTicks": 240,
            "midi": 71,
            "name": "B4",
            "ticks": 20400,
            "time": 37.5000025,
            "velocity": 0.7874015748031497
          },
          {
            "duration": 0.4411764999999974,
            "durationTicks": 240,
            "midi": 66,
            "name": "F#4",
            "ticks": 20640,
            "time": 37.941179,
            "velocity": 0.7874015748031497
          },
          {
            "duration": 0.4411765000000045,
            "durationTicks": 240,
            "midi": 71,
            "name": "B4",
            "ticks": 20880,
            "time": 38.382355499999996,
            "velocity": 0.7874015748031497
          },
          {
            "duration": 0.4411764999999974,
            "durationTicks": 240,
            "midi": 73,
            "name": "C#5",
            "ticks": 21360,
            "time": 39.2647085,
            "velocity": 0.7874015748031497
          },
          {
            "duration": 0.4411765000000045,
            "durationTicks": 240,
            "midi": 68,
            "name": "G#4",
            "ticks": 21600,
            "time": 39.705884999999995,
            "velocity": 0.7874015748031497
          },
          {
            "duration": 0.4411764999999974,
            "durationTicks": 240,
            "midi": 73,
            "name": "C#5",
            "ticks": 21840,
            "time": 40.1470615,
            "velocity": 0.7874015748031497
          },
          {
            "duration": 0.4411765000000045,
            "durationTicks": 240,
            "midi": 70,
            "name": "A#4",
            "ticks": 22320,
            "time": 41.029414499999994,
            "velocity": 0.7874015748031497
          },
          {
            "duration": 0.4411764999999974,
            "durationTicks": 240,
            "midi": 68,
            "name": "G#4",
            "ticks": 22560,
            "time": 41.470591,
            "velocity": 0.7874015748031497
          },
          {
            "duration": 0.4411764999999974,
            "durationTicks": 240,
            "midi": 73,
            "name": "C#5",
            "ticks": 22800,
            "time": 41.911767499999996,
            "velocity": 0.7874015748031497
          },
          {
            "duration": 0.4411764999999974,
            "durationTicks": 240,
            "midi": 68,
            "name": "G#4",
            "ticks": 23280,
            "time": 42.7941205,
            "velocity": 0.7874015748031497
          },
          {
            "duration": 0.4411765000000045,
            "durationTicks": 240,
            "midi": 73,
            "name": "C#5",
            "ticks": 23520,
            "time": 43.235296999999996,
            "velocity": 0.7874015748031497
          },
          {
            "duration": 0.4411764999999974,
            "durationTicks": 240,
            "midi": 70,
            "name": "A#4",
            "ticks": 23760,
            "time": 43.6764735,
            "velocity": 0.7874015748031497
          },
          {
            "duration": 0.4411765000000045,
            "durationTicks": 240,
            "midi": 71,
            "name": "B4",
            "ticks": 24240,
            "time": 44.558826499999995,
            "velocity": 0.7874015748031497
          },
          {
            "duration": 0.4411764999999974,
            "durationTicks": 240,
            "midi": 66,
            "name": "F#4",
            "ticks": 24480,
            "time": 45.000003,
            "velocity": 0.7874015748031497
          },
          {
            "duration": 0.4411764999999974,
            "durationTicks": 240,
            "midi": 71,
            "name": "B4",
            "ticks": 24720,
            "time": 45.4411795,
            "velocity": 0.7874015748031497
          },
          {
            "duration": 0.4411764999999974,
            "durationTicks": 240,
            "midi": 73,
            "name": "C#5",
            "ticks": 25200,
            "time": 46.3235325,
            "velocity": 0.7874015748031497
          },
          {
            "duration": 0.4411764999999974,
            "durationTicks": 240,
            "midi": 68,
            "name": "G#4",
            "ticks": 25440,
            "time": 46.764708999999996,
            "velocity": 0.7874015748031497
          },
          {
            "duration": 0.4411765000000045,
            "durationTicks": 240,
            "midi": 73,
            "name": "C#5",
            "ticks": 25680,
            "time": 47.205885499999994,
            "velocity": 0.7874015748031497
          },
          {
            "duration": 0.4411765000000045,
            "durationTicks": 240,
            "midi": 73,
            "name": "C#5",
            "ticks": 26160,
            "time": 48.088238499999996,
            "velocity": 0.7874015748031497
          },
          {
            "duration": 0.4411764999999974,
            "durationTicks": 240,
            "midi": 73,
            "name": "C#5",
            "ticks": 26640,
            "time": 48.9705915,
            "velocity": 0.7874015748031497
          },
          {
            "duration": 0.4411764999999974,
            "durationTicks": 240,
            "midi": 73,
            "name": "C#5",
            "ticks": 27120,
            "time": 49.8529445,
            "velocity": 0.7874015748031497
          },
          {
            "duration": 0.4411765000000045,
            "durationTicks": 240,
            "midi": 73,
            "name": "C#5",
            "ticks": 27600,
            "time": 50.735297499999994,
            "velocity": 0.7874015748031497
          },
          {
            "duration": 0.4411764999999974,
            "durationTicks": 240,
            "midi": 71,
            "name": "B4",
            "ticks": 28080,
            "time": 51.617650499999996,
            "velocity": 0.7874015748031497
          },
          {
            "duration": 0.4411765000000045,
            "durationTicks": 240,
            "midi": 66,
            "name": "F#4",
            "ticks": 28320,
            "time": 52.058826999999994,
            "velocity": 0.7874015748031497
          },
          {
            "duration": 0.4411764999999974,
            "durationTicks": 240,
            "midi": 71,
            "name": "B4",
            "ticks": 28560,
            "time": 52.5000035,
            "velocity": 0.7874015748031497
          },
          {
            "duration": 0.4411765000000045,
            "durationTicks": 240,
            "midi": 73,
            "name": "C#5",
            "ticks": 29040,
            "time": 53.38235649999999,
            "velocity": 0.7874015748031497
          },
          {
            "duration": 0.4411764999999974,
            "durationTicks": 240,
            "midi": 68,
            "name": "G#4",
            "ticks": 29280,
            "time": 53.823533,
            "velocity": 0.7874015748031497
          },
          {
            "duration": 0.4411765000000045,
            "durationTicks": 240,
            "midi": 73,
            "name": "C#5",
            "ticks": 29520,
            "time": 54.264709499999995,
            "velocity": 0.7874015748031497
          },
          {
            "duration": 0.4411764999999974,
            "durationTicks": 240,
            "midi": 70,
            "name": "A#4",
            "ticks": 30000,
            "time": 55.1470625,
            "velocity": 0.7874015748031497
          },
          {
            "duration": 0.4411765000000045,
            "durationTicks": 240,
            "midi": 68,
            "name": "G#4",
            "ticks": 30240,
            "time": 55.588238999999994,
            "velocity": 0.7874015748031497
          },
          {
            "duration": 0.4411764999999974,
            "durationTicks": 240,
            "midi": 73,
            "name": "C#5",
            "ticks": 30480,
            "time": 56.0294155,
            "velocity": 0.7874015748031497
          },
          {
            "duration": 1.7647059999999968,
            "durationTicks": 960,
            "midi": 78,
            "name": "F#5",
            "ticks": 30720,
            "time": 56.470591999999996,
            "velocity": 0.7874015748031497
          }
        ]
      }
    ]
  }