{
  "header": {
    "keySignatures": [
      {
        "key": "C",
        "scale": "major",
        "ticks": 0
      }
    ],
    "meta": [],
    "name": "",
    "ppq": 480,
    "tempos": [
      {
        "bpm": 138.00019320027047,
        "ticks": 0
      }
    ],
    "timeSignatures": [
      {
        "ticks": 0,
        "timeSignature": [
          4,
          4
        ],
        "measures": 0
      }
    ]
  },
  "tracks": [
    {
      "channel": 0,
      "controlChanges": {},
      "pitchBends": [],
      "instrument": {
        "family": "piano",
        "number": 0,
        "name": "acoustic grand piano"
      },
      "name": "Viva La Vida",
      "notes": [],
      "endOfTrackTicks": 240
    },
    {
      "channel": 0,
      "controlChanges": {
        "0": [
          {
            "number": 0,
            "ticks": 481,
            "time": 0.4356877958333334,
            "value": 0
          }
        ],
        "32": [
          {
            "number": 32,
            "ticks": 482,
            "time": 0.43659359166666667,
            "value": 0
          }
        ]
      },
      "pitchBends": [],
      "instrument": {
        "family": "piano",
        "number": 0,
        "name": "acoustic grand piano"
      },
      "name": "Piano 3",
      "notes": [],
      "endOfTrackTicks": 32574
    },
    {
      "channel": 0,
      "controlChanges": {
        "6": [
          {
            "number": 6,
            "ticks": 586,
            "time": 0.5307963583333334,
            "value": 0.015748031496062992
          }
        ],
        "7": [
          {
            "number": 7,
            "ticks": 484,
            "time": 0.43840518333333334,
            "value": 0.8661417322834646
          }
        ],
        "10": [
          {
            "number": 10,
            "ticks": 485,
            "time": 0.4393109791666667,
            "value": 0.5039370078740157
          }
        ],
        "11": [
          {
            "number": 11,
            "ticks": 486,
            "time": 0.440216775,
            "value": 1
          }
        ],
        "64": [
          {
            "number": 64,
            "ticks": 1986,
            "time": 1.7989105250000001,
            "value": 1
          },
          {
            "number": 64,
            "ticks": 3522,
            "time": 3.190212925,
            "value": 0
          },
          {
            "number": 64,
            "ticks": 3728,
            "time": 3.3768068666666666,
            "value": 1
          },
          {
            "number": 64,
            "ticks": 5703,
            "time": 5.1657536375,
            "value": 0
          },
          {
            "number": 64,
            "ticks": 5936,
            "time": 5.376804066666667,
            "value": 1
          },
          {
            "number": 64,
            "ticks": 7359,
            "time": 6.6657515375,
            "value": 0
          },
          {
            "number": 64,
            "ticks": 7563,
            "time": 6.8505338875,
            "value": 1
          },
          {
            "number": 64,
            "ticks": 9534,
            "time": 8.635857475,
            "value": 0
          },
          {
            "number": 64,
            "ticks": 9666,
            "time": 8.755422525,
            "value": 1
          },
          {
            "number": 64,
            "ticks": 11202,
            "time": 10.146724925,
            "value": 0
          },
          {
            "number": 64,
            "ticks": 11408,
            "time": 10.333318866666666,
            "value": 1
          },
          {
            "number": 64,
            "ticks": 13383,
            "time": 12.1222656375,
            "value": 0
          },
          {
            "number": 64,
            "ticks": 13616,
            "time": 12.333316066666667,
            "value": 1
          },
          {
            "number": 64,
            "ticks": 15039,
            "time": 13.6222635375,
            "value": 0
          },
          {
            "number": 64,
            "ticks": 15243,
            "time": 13.807045887500001,
            "value": 1
          },
          {
            "number": 64,
            "ticks": 17214,
            "time": 15.592369474999998,
            "value": 0
          },
          {
            "number": 64,
            "ticks": 17346,
            "time": 15.711934525000002,
            "value": 1
          },
          {
            "number": 64,
            "ticks": 18882,
            "time": 17.103236925,
            "value": 0
          },
          {
            "number": 64,
            "ticks": 19088,
            "time": 17.289830866666666,
            "value": 1
          },
          {
            "number": 64,
            "ticks": 21063,
            "time": 19.0787776375,
            "value": 0
          },
          {
            "number": 64,
            "ticks": 21296,
            "time": 19.28982806666667,
            "value": 1
          },
          {
            "number": 64,
            "ticks": 22719,
            "time": 20.5787755375,
            "value": 0
          },
          {
            "number": 64,
            "ticks": 22923,
            "time": 20.7635578875,
            "value": 1
          },
          {
            "number": 64,
            "ticks": 24894,
            "time": 22.548881474999998,
            "value": 0
          },
          {
            "number": 64,
            "ticks": 25026,
            "time": 22.668446525,
            "value": 1
          },
          {
            "number": 64,
            "ticks": 26562,
            "time": 24.059748925,
            "value": 0
          },
          {
            "number": 64,
            "ticks": 26768,
            "time": 24.246342866666666,
            "value": 1
          },
          {
            "number": 64,
            "ticks": 28743,
            "time": 26.0352896375,
            "value": 0
          },
          {
            "number": 64,
            "ticks": 28976,
            "time": 26.24634006666667,
            "value": 1
          },
          {
            "number": 64,
            "ticks": 30399,
            "time": 27.5352875375,
            "value": 0
          },
          {
            "number": 64,
            "ticks": 30603,
            "time": 27.7200698875,
            "value": 1
          },
          {
            "number": 64,
            "ticks": 32574,
            "time": 29.505393474999998,
            "value": 0
          }
        ],
        "91": [
          {
            "number": 91,
            "ticks": 487,
            "time": 0.44112257083333334,
            "value": 0.4330708661417323
          }
        ],
        "93": [
          {
            "number": 93,
            "ticks": 488,
            "time": 0.4420283666666666,
            "value": 0.7559055118110236
          }
        ],
        "100": [
          {
            "number": 100,
            "ticks": 582,
            "time": 0.5271731749999999,
            "value": 0
          },
          {
            "number": 100,
            "ticks": 594,
            "time": 0.538042725,
            "value": 1
          }
        ],
        "101": [
          {
            "number": 101,
            "ticks": 578,
            "time": 0.5235499916666666,
            "value": 0
          },
          {
            "number": 101,
            "ticks": 590,
            "time": 0.5344195416666667,
            "value": 1
          }
        ]
      },
      "pitchBends": [],
      "instrument": {
        "family": "piano",
        "number": 2,
        "name": "electric grand piano"
      },
      "name": "",
      "notes": [
        {
          "duration": 0.1838765541666667,
          "durationTicks": 203,
          "midi": 49,
          "name": "C#3",
          "ticks": 1920,
          "time": 1.739128,
          "velocity": 0.7007874015748031
        },
        {
          "duration": 0.18659394166666643,
          "durationTicks": 206,
          "midi": 56,
          "name": "G#3",
          "ticks": 1920,
          "time": 1.739128,
          "velocity": 0.6377952755905512
        },
        {
          "duration": 0.18749973750000026,
          "durationTicks": 207,
          "midi": 61,
          "name": "C#4",
          "ticks": 1920,
          "time": 1.739128,
          "velocity": 0.7322834645669292
        },
        {
          "duration": 0.109601295833333,
          "durationTicks": 121,
          "midi": 49,
          "name": "C#3",
          "ticks": 2400,
          "time": 2.1739100000000002,
          "velocity": 0.6929133858267716
        },
        {
          "duration": 0.11050709166666639,
          "durationTicks": 122,
          "midi": 56,
          "name": "G#3",
          "ticks": 2400,
          "time": 2.1739100000000002,
          "velocity": 0.6299212598425197
        },
        {
          "duration": 0.12590562083333312,
          "durationTicks": 139,
          "midi": 61,
          "name": "C#4",
          "ticks": 2400,
          "time": 2.1739100000000002,
          "velocity": 0.7165354330708661
        },
        {
          "duration": 0.17481859583333348,
          "durationTicks": 193,
          "midi": 49,
          "name": "C#3",
          "ticks": 2880,
          "time": 2.608692,
          "velocity": 0.6929133858267716
        },
        {
          "duration": 0.1277172124999999,
          "durationTicks": 141,
          "midi": 56,
          "name": "G#3",
          "ticks": 2880,
          "time": 2.608692,
          "velocity": 0.6535433070866141
        },
        {
          "duration": 0.14311574166666663,
          "durationTicks": 158,
          "midi": 61,
          "name": "C#4",
          "ticks": 2880,
          "time": 2.608692,
          "velocity": 0.7165354330708661
        },
        {
          "duration": 0.08695640000000049,
          "durationTicks": 96,
          "midi": 49,
          "name": "C#3",
          "ticks": 3360,
          "time": 3.043474,
          "velocity": 0.6535433070866141
        },
        {
          "duration": 0.12681141666666695,
          "durationTicks": 140,
          "midi": 56,
          "name": "G#3",
          "ticks": 3360,
          "time": 3.043474,
          "velocity": 0.5984251968503937
        },
        {
          "duration": 0.11050709166666683,
          "durationTicks": 122,
          "midi": 61,
          "name": "C#4",
          "ticks": 3360,
          "time": 3.043474,
          "velocity": 0.6850393700787402
        },
        {
          "duration": 0.22916634583333373,
          "durationTicks": 253,
          "midi": 51,
          "name": "D#3",
          "ticks": 3600,
          "time": 3.260865,
          "velocity": 0.7165354330708661
        },
        {
          "duration": 0.23641271249999996,
          "durationTicks": 261,
          "midi": 56,
          "name": "G#3",
          "ticks": 3600,
          "time": 3.260865,
          "velocity": 0.6141732283464567
        },
        {
          "duration": 0.2173910000000001,
          "durationTicks": 240,
          "midi": 61,
          "name": "C#4",
          "ticks": 3600,
          "time": 3.260865,
          "velocity": 0.5905511811023622
        },
        {
          "duration": 0.1141302749999995,
          "durationTicks": 126,
          "midi": 51,
          "name": "D#3",
          "ticks": 4080,
          "time": 3.695647,
          "velocity": 0.7007874015748031
        },
        {
          "duration": 0.12047084583333323,
          "durationTicks": 133,
          "midi": 56,
          "name": "G#3",
          "ticks": 4080,
          "time": 3.695647,
          "velocity": 0.6535433070866141
        },
        {
          "duration": 0.1376809666666663,
          "durationTicks": 152,
          "midi": 61,
          "name": "C#4",
          "ticks": 4080,
          "time": 3.695647,
          "velocity": 0.7322834645669292
        },
        {
          "duration": 0.08967378749999977,
          "durationTicks": 99,
          "midi": 51,
          "name": "D#3",
          "ticks": 4560,
          "time": 4.130429,
          "velocity": 0.6850393700787402
        },
        {
          "duration": 0.0905795833333336,
          "durationTicks": 100,
          "midi": 56,
          "name": "G#3",
          "ticks": 4560,
          "time": 4.130429,
          "velocity": 0.6141732283464567
        },
        {
          "duration": 0.096920154166666,
          "durationTicks": 107,
          "midi": 61,
          "name": "C#4",
          "ticks": 4560,
          "time": 4.130429,
          "velocity": 0.6850393700787402
        },
        {
          "duration": 0.10869549999999961,
          "durationTicks": 120,
          "midi": 51,
          "name": "D#3",
          "ticks": 4800,
          "time": 4.3478200000000005,
          "velocity": 0.6141732283464567
        },
        {
          "duration": 0.12952880416666623,
          "durationTicks": 143,
          "midi": 56,
          "name": "G#3",
          "ticks": 4800,
          "time": 4.3478200000000005,
          "velocity": 0.5354330708661418
        },
        {
          "duration": 0.12952880416666623,
          "durationTicks": 143,
          "midi": 61,
          "name": "C#4",
          "ticks": 4800,
          "time": 4.3478200000000005,
          "velocity": 0.5905511811023622
        },
        {
          "duration": 0.09420276666666716,
          "durationTicks": 104,
          "midi": 51,
          "name": "D#3",
          "ticks": 5280,
          "time": 4.782602,
          "velocity": 0.6929133858267716
        },
        {
          "duration": 0.09601435833333394,
          "durationTicks": 106,
          "midi": 56,
          "name": "G#3",
          "ticks": 5280,
          "time": 4.782602,
          "velocity": 0.6535433070866141
        },
        {
          "duration": 0.16847802499999975,
          "durationTicks": 186,
          "midi": 61,
          "name": "C#4",
          "ticks": 5280,
          "time": 4.782602,
          "velocity": 0.7165354330708661
        },
        {
          "duration": 0.18931132916666638,
          "durationTicks": 209,
          "midi": 51,
          "name": "D#3",
          "ticks": 5760,
          "time": 5.217384,
          "velocity": 0.6614173228346457
        },
        {
          "duration": 0.20652144999999944,
          "durationTicks": 228,
          "midi": 56,
          "name": "G#3",
          "ticks": 5760,
          "time": 5.217384,
          "velocity": 0.6141732283464567
        },
        {
          "duration": 0.19746349166666732,
          "durationTicks": 218,
          "midi": 60,
          "name": "C4",
          "ticks": 5760,
          "time": 5.217384,
          "velocity": 0.8110236220472441
        },
        {
          "duration": 0.15036210833333286,
          "durationTicks": 166,
          "midi": 51,
          "name": "D#3",
          "ticks": 6240,
          "time": 5.652166,
          "velocity": 0.6614173228346457
        },
        {
          "duration": 0.17753598333333276,
          "durationTicks": 196,
          "midi": 56,
          "name": "G#3",
          "ticks": 6240,
          "time": 5.652166,
          "velocity": 0.5905511811023622
        },
        {
          "duration": 0.18206496249999926,
          "durationTicks": 201,
          "midi": 60,
          "name": "C4",
          "ticks": 6240,
          "time": 5.652166,
          "velocity": 0.7244094488188977
        },
        {
          "duration": 0.1467389250000002,
          "durationTicks": 162,
          "midi": 51,
          "name": "D#3",
          "ticks": 6720,
          "time": 6.086948,
          "velocity": 0.7007874015748031
        },
        {
          "duration": 0.17028961666666742,
          "durationTicks": 188,
          "midi": 56,
          "name": "G#3",
          "ticks": 6720,
          "time": 6.086948,
          "velocity": 0.6141732283464567
        },
        {
          "duration": 0.18659394166666754,
          "durationTicks": 206,
          "midi": 60,
          "name": "C4",
          "ticks": 6720,
          "time": 6.086948,
          "velocity": 0.7480314960629921
        },
        {
          "duration": 0.14402153750000046,
          "durationTicks": 159,
          "midi": 51,
          "name": "D#3",
          "ticks": 7200,
          "time": 6.52173,
          "velocity": 0.6614173228346457
        },
        {
          "duration": 0.14855051666666697,
          "durationTicks": 164,
          "midi": 56,
          "name": "G#3",
          "ticks": 7200,
          "time": 6.52173,
          "velocity": 0.5826771653543307
        },
        {
          "duration": 0.16032586250000058,
          "durationTicks": 177,
          "midi": 60,
          "name": "C4",
          "ticks": 7200,
          "time": 6.52173,
          "velocity": 0.7086614173228346
        },
        {
          "duration": 0.20018087916666705,
          "durationTicks": 221,
          "midi": 53,
          "name": "F3",
          "ticks": 7440,
          "time": 6.739121,
          "velocity": 0.7086614173228346
        },
        {
          "duration": 0.24818805833333357,
          "durationTicks": 274,
          "midi": 56,
          "name": "G#3",
          "ticks": 7440,
          "time": 6.739121,
          "velocity": 0.6614173228346457
        },
        {
          "duration": 0.22373157083333428,
          "durationTicks": 247,
          "midi": 60,
          "name": "C4",
          "ticks": 7440,
          "time": 6.739121,
          "velocity": 0.7322834645669292
        },
        {
          "duration": 0.11775345833333262,
          "durationTicks": 130,
          "midi": 53,
          "name": "F3",
          "ticks": 7920,
          "time": 7.173903,
          "velocity": 0.7322834645669292
        },
        {
          "duration": 0.105978112499999,
          "durationTicks": 117,
          "midi": 56,
          "name": "G#3",
          "ticks": 7920,
          "time": 7.173903,
          "velocity": 0.6220472440944882
        },
        {
          "duration": 0.13677517083333424,
          "durationTicks": 151,
          "midi": 60,
          "name": "C4",
          "ticks": 7920,
          "time": 7.173903,
          "velocity": 0.7244094488188977
        },
        {
          "duration": 0.06702889166666548,
          "durationTicks": 74,
          "midi": 53,
          "name": "F3",
          "ticks": 8400,
          "time": 7.608685,
          "velocity": 0.6535433070866141
        },
        {
          "duration": 0.08967378749999977,
          "durationTicks": 99,
          "midi": 56,
          "name": "G#3",
          "ticks": 8400,
          "time": 7.608685,
          "velocity": 0.6141732283464567
        },
        {
          "duration": 0.09057958333333271,
          "durationTicks": 100,
          "midi": 60,
          "name": "C4",
          "ticks": 8400,
          "time": 7.608685,
          "velocity": 0.7244094488188977
        },
        {
          "duration": 0.10326072500000016,
          "durationTicks": 114,
          "midi": 53,
          "name": "F3",
          "ticks": 8640,
          "time": 7.8260760000000005,
          "velocity": 0.7244094488188977
        },
        {
          "duration": 0.12228243749999912,
          "durationTicks": 135,
          "midi": 56,
          "name": "G#3",
          "ticks": 8640,
          "time": 7.8260760000000005,
          "velocity": 0.5590551181102362
        },
        {
          "duration": 0.12047084583333323,
          "durationTicks": 133,
          "midi": 60,
          "name": "C4",
          "ticks": 8640,
          "time": 7.8260760000000005,
          "velocity": 0.6929133858267716
        },
        {
          "duration": 0.11141288750000022,
          "durationTicks": 123,
          "midi": 53,
          "name": "F3",
          "ticks": 9120,
          "time": 8.260858,
          "velocity": 0.7086614173228346
        },
        {
          "duration": 0.1286230083333333,
          "durationTicks": 142,
          "midi": 56,
          "name": "G#3",
          "ticks": 9120,
          "time": 8.260858,
          "velocity": 0.6377952755905512
        },
        {
          "duration": 0.13496357916666568,
          "durationTicks": 149,
          "midi": 60,
          "name": "C4",
          "ticks": 9120,
          "time": 8.260858,
          "velocity": 0.7086614173228346
        },
        {
          "duration": 0.18387655416666604,
          "durationTicks": 203,
          "midi": 49,
          "name": "C#3",
          "ticks": 9600,
          "time": 8.695640000000001,
          "velocity": 0.7007874015748031
        },
        {
          "duration": 0.18659394166666665,
          "durationTicks": 206,
          "midi": 56,
          "name": "G#3",
          "ticks": 9600,
          "time": 8.695640000000001,
          "velocity": 0.6377952755905512
        },
        {
          "duration": 0.18749973749999782,
          "durationTicks": 207,
          "midi": 61,
          "name": "C#4",
          "ticks": 9600,
          "time": 8.695640000000001,
          "velocity": 0.7322834645669292
        },
        {
          "duration": 0.10960129583333433,
          "durationTicks": 121,
          "midi": 49,
          "name": "C#3",
          "ticks": 10080,
          "time": 9.130422,
          "velocity": 0.6929133858267716
        },
        {
          "duration": 0.11050709166666728,
          "durationTicks": 122,
          "midi": 56,
          "name": "G#3",
          "ticks": 10080,
          "time": 9.130422,
          "velocity": 0.6299212598425197
        },
        {
          "duration": 0.12590562083333445,
          "durationTicks": 139,
          "midi": 61,
          "name": "C#4",
          "ticks": 10080,
          "time": 9.130422,
          "velocity": 0.7165354330708661
        },
        {
          "duration": 0.17481859583333303,
          "durationTicks": 193,
          "midi": 49,
          "name": "C#3",
          "ticks": 10560,
          "time": 9.565204,
          "velocity": 0.6929133858267716
        },
        {
          "duration": 0.12771721250000034,
          "durationTicks": 141,
          "midi": 56,
          "name": "G#3",
          "ticks": 10560,
          "time": 9.565204,
          "velocity": 0.6535433070866141
        },
        {
          "duration": 0.14311574166666752,
          "durationTicks": 158,
          "midi": 61,
          "name": "C#4",
          "ticks": 10560,
          "time": 9.565204,
          "velocity": 0.7165354330708661
        },
        {
          "duration": 0.08695640000000004,
          "durationTicks": 96,
          "midi": 49,
          "name": "C#3",
          "ticks": 11040,
          "time": 9.999986,
          "velocity": 0.6535433070866141
        },
        {
          "duration": 0.1268114166666674,
          "durationTicks": 140,
          "midi": 56,
          "name": "G#3",
          "ticks": 11040,
          "time": 9.999986,
          "velocity": 0.5984251968503937
        },
        {
          "duration": 0.11050709166666728,
          "durationTicks": 122,
          "midi": 61,
          "name": "C#4",
          "ticks": 11040,
          "time": 9.999986,
          "velocity": 0.6850393700787402
        },
        {
          "duration": 0.22916634583333284,
          "durationTicks": 253,
          "midi": 51,
          "name": "D#3",
          "ticks": 11280,
          "time": 10.217377,
          "velocity": 0.7165354330708661
        },
        {
          "duration": 0.23641271249999818,
          "durationTicks": 261,
          "midi": 56,
          "name": "G#3",
          "ticks": 11280,
          "time": 10.217377,
          "velocity": 0.6141732283464567
        },
        {
          "duration": 0.21739099999999922,
          "durationTicks": 240,
          "midi": 61,
          "name": "C#4",
          "ticks": 11280,
          "time": 10.217377,
          "velocity": 0.5905511811023622
        },
        {
          "duration": 0.11413027500000084,
          "durationTicks": 126,
          "midi": 51,
          "name": "D#3",
          "ticks": 11760,
          "time": 10.652159,
          "velocity": 0.7007874015748031
        },
        {
          "duration": 0.120470845833335,
          "durationTicks": 133,
          "midi": 56,
          "name": "G#3",
          "ticks": 11760,
          "time": 10.652159,
          "velocity": 0.6535433070866141
        },
        {
          "duration": 0.13768096666666807,
          "durationTicks": 152,
          "midi": 61,
          "name": "C#4",
          "ticks": 11760,
          "time": 10.652159,
          "velocity": 0.7322834645669292
        },
        {
          "duration": 0.08967378750000066,
          "durationTicks": 99,
          "midi": 51,
          "name": "D#3",
          "ticks": 12240,
          "time": 11.086941,
          "velocity": 0.6850393700787402
        },
        {
          "duration": 0.0905795833333336,
          "durationTicks": 100,
          "midi": 56,
          "name": "G#3",
          "ticks": 12240,
          "time": 11.086941,
          "velocity": 0.6141732283464567
        },
        {
          "duration": 0.09692015416666777,
          "durationTicks": 107,
          "midi": 61,
          "name": "C#4",
          "ticks": 12240,
          "time": 11.086941,
          "velocity": 0.6850393700787402
        },
        {
          "duration": 0.10869549999999961,
          "durationTicks": 120,
          "midi": 51,
          "name": "D#3",
          "ticks": 12480,
          "time": 11.304332,
          "velocity": 0.6141732283464567
        },
        {
          "duration": 0.12952880416666623,
          "durationTicks": 143,
          "midi": 56,
          "name": "G#3",
          "ticks": 12480,
          "time": 11.304332,
          "velocity": 0.5354330708661418
        },
        {
          "duration": 0.12952880416666623,
          "durationTicks": 143,
          "midi": 61,
          "name": "C#4",
          "ticks": 12480,
          "time": 11.304332,
          "velocity": 0.5905511811023622
        },
        {
          "duration": 0.09420276666666538,
          "durationTicks": 104,
          "midi": 51,
          "name": "D#3",
          "ticks": 12960,
          "time": 11.739114,
          "velocity": 0.6929133858267716
        },
        {
          "duration": 0.09601435833333305,
          "durationTicks": 106,
          "midi": 56,
          "name": "G#3",
          "ticks": 12960,
          "time": 11.739114,
          "velocity": 0.6535433070866141
        },
        {
          "duration": 0.16847802499999887,
          "durationTicks": 186,
          "midi": 61,
          "name": "C#4",
          "ticks": 12960,
          "time": 11.739114,
          "velocity": 0.7165354330708661
        },
        {
          "duration": 0.18931132916666726,
          "durationTicks": 209,
          "midi": 51,
          "name": "D#3",
          "ticks": 13440,
          "time": 12.173896,
          "velocity": 0.6614173228346457
        },
        {
          "duration": 0.2065214500000021,
          "durationTicks": 228,
          "midi": 56,
          "name": "G#3",
          "ticks": 13440,
          "time": 12.173896,
          "velocity": 0.6141732283464567
        },
        {
          "duration": 0.19746349166666732,
          "durationTicks": 218,
          "midi": 60,
          "name": "C4",
          "ticks": 13440,
          "time": 12.173896,
          "velocity": 0.8110236220472441
        },
        {
          "duration": 0.15036210833333463,
          "durationTicks": 166,
          "midi": 51,
          "name": "D#3",
          "ticks": 13920,
          "time": 12.608678,
          "velocity": 0.6614173228346457
        },
        {
          "duration": 0.17753598333333542,
          "durationTicks": 196,
          "midi": 56,
          "name": "G#3",
          "ticks": 13920,
          "time": 12.608678,
          "velocity": 0.5905511811023622
        },
        {
          "duration": 0.18206496250000015,
          "durationTicks": 201,
          "midi": 60,
          "name": "C4",
          "ticks": 13920,
          "time": 12.608678,
          "velocity": 0.7244094488188977
        },
        {
          "duration": 0.1467389249999993,
          "durationTicks": 162,
          "midi": 51,
          "name": "D#3",
          "ticks": 14400,
          "time": 13.04346,
          "velocity": 0.7007874015748031
        },
        {
          "duration": 0.17028961666666653,
          "durationTicks": 188,
          "midi": 56,
          "name": "G#3",
          "ticks": 14400,
          "time": 13.04346,
          "velocity": 0.6141732283464567
        },
        {
          "duration": 0.18659394166666665,
          "durationTicks": 206,
          "midi": 60,
          "name": "C4",
          "ticks": 14400,
          "time": 13.04346,
          "velocity": 0.7480314960629921
        },
        {
          "duration": 0.14402153750000046,
          "durationTicks": 159,
          "midi": 51,
          "name": "D#3",
          "ticks": 14880,
          "time": 13.478242,
          "velocity": 0.6614173228346457
        },
        {
          "duration": 0.14855051666666697,
          "durationTicks": 164,
          "midi": 56,
          "name": "G#3",
          "ticks": 14880,
          "time": 13.478242,
          "velocity": 0.5826771653543307
        },
        {
          "duration": 0.1603258624999988,
          "durationTicks": 177,
          "midi": 60,
          "name": "C4",
          "ticks": 14880,
          "time": 13.478242,
          "velocity": 0.7086614173228346
        },
        {
          "duration": 0.20018087916666616,
          "durationTicks": 221,
          "midi": 53,
          "name": "F3",
          "ticks": 15120,
          "time": 13.695633,
          "velocity": 0.7086614173228346
        },
        {
          "duration": 0.2481880583333318,
          "durationTicks": 274,
          "midi": 56,
          "name": "G#3",
          "ticks": 15120,
          "time": 13.695633,
          "velocity": 0.6614173228346457
        },
        {
          "duration": 0.2237315708333334,
          "durationTicks": 247,
          "midi": 60,
          "name": "C4",
          "ticks": 15120,
          "time": 13.695633,
          "velocity": 0.7322834645669292
        },
        {
          "duration": 0.1177534583333344,
          "durationTicks": 130,
          "midi": 53,
          "name": "F3",
          "ticks": 15600,
          "time": 14.130415,
          "velocity": 0.7322834645669292
        },
        {
          "duration": 0.10597811250000078,
          "durationTicks": 117,
          "midi": 56,
          "name": "G#3",
          "ticks": 15600,
          "time": 14.130415,
          "velocity": 0.6220472440944882
        },
        {
          "duration": 0.13677517083333335,
          "durationTicks": 151,
          "midi": 60,
          "name": "C4",
          "ticks": 15600,
          "time": 14.130415,
          "velocity": 0.7244094488188977
        },
        {
          "duration": 0.06702889166666814,
          "durationTicks": 74,
          "midi": 53,
          "name": "F3",
          "ticks": 16080,
          "time": 14.565197,
          "velocity": 0.6535433070866141
        },
        {
          "duration": 0.08967378749999888,
          "durationTicks": 99,
          "midi": 56,
          "name": "G#3",
          "ticks": 16080,
          "time": 14.565197,
          "velocity": 0.6141732283464567
        },
        {
          "duration": 0.09057958333333538,
          "durationTicks": 100,
          "midi": 60,
          "name": "C4",
          "ticks": 16080,
          "time": 14.565197,
          "velocity": 0.7244094488188977
        },
        {
          "duration": 0.10326072499999839,
          "durationTicks": 114,
          "midi": 53,
          "name": "F3",
          "ticks": 16320,
          "time": 14.782588,
          "velocity": 0.7244094488188977
        },
        {
          "duration": 0.12228243749999912,
          "durationTicks": 135,
          "midi": 56,
          "name": "G#3",
          "ticks": 16320,
          "time": 14.782588,
          "velocity": 0.5590551181102362
        },
        {
          "duration": 0.12047084583333145,
          "durationTicks": 133,
          "midi": 60,
          "name": "C4",
          "ticks": 16320,
          "time": 14.782588,
          "velocity": 0.6929133858267716
        },
        {
          "duration": 0.11141288750000022,
          "durationTicks": 123,
          "midi": 53,
          "name": "F3",
          "ticks": 16800,
          "time": 15.21737,
          "velocity": 0.7086614173228346
        },
        {
          "duration": 0.1286230083333333,
          "durationTicks": 142,
          "midi": 56,
          "name": "G#3",
          "ticks": 16800,
          "time": 15.21737,
          "velocity": 0.6377952755905512
        },
        {
          "duration": 0.13496357916666746,
          "durationTicks": 149,
          "midi": 60,
          "name": "C4",
          "ticks": 16800,
          "time": 15.21737,
          "velocity": 0.7086614173228346
        },
        {
          "duration": 0.18387655416666604,
          "durationTicks": 203,
          "midi": 49,
          "name": "C#3",
          "ticks": 17280,
          "time": 15.652152000000001,
          "velocity": 0.7007874015748031
        },
        {
          "duration": 0.18659394166666665,
          "durationTicks": 206,
          "midi": 56,
          "name": "G#3",
          "ticks": 17280,
          "time": 15.652152000000001,
          "velocity": 0.6377952755905512
        },
        {
          "duration": 0.18749973749999782,
          "durationTicks": 207,
          "midi": 61,
          "name": "C#4",
          "ticks": 17280,
          "time": 15.652152000000001,
          "velocity": 0.7322834645669292
        },
        {
          "duration": 0.10960129583333256,
          "durationTicks": 121,
          "midi": 49,
          "name": "C#3",
          "ticks": 17760,
          "time": 16.086934,
          "velocity": 0.6929133858267716
        },
        {
          "duration": 0.11050709166666906,
          "durationTicks": 122,
          "midi": 56,
          "name": "G#3",
          "ticks": 17760,
          "time": 16.086934,
          "velocity": 0.6299212598425197
        },
        {
          "duration": 0.12590562083333268,
          "durationTicks": 139,
          "midi": 61,
          "name": "C#4",
          "ticks": 17760,
          "time": 16.086934,
          "velocity": 0.7165354330708661
        },
        {
          "duration": 0.17481859583332948,
          "durationTicks": 193,
          "midi": 49,
          "name": "C#3",
          "ticks": 18240,
          "time": 16.521716,
          "velocity": 0.6929133858267716
        },
        {
          "duration": 0.12771721249999857,
          "durationTicks": 141,
          "midi": 56,
          "name": "G#3",
          "ticks": 18240,
          "time": 16.521716,
          "velocity": 0.6535433070866141
        },
        {
          "duration": 0.14311574166666574,
          "durationTicks": 158,
          "midi": 61,
          "name": "C#4",
          "ticks": 18240,
          "time": 16.521716,
          "velocity": 0.7165354330708661
        },
        {
          "duration": 0.08695640000000182,
          "durationTicks": 96,
          "midi": 49,
          "name": "C#3",
          "ticks": 18720,
          "time": 16.956498,
          "velocity": 0.6535433070866141
        },
        {
          "duration": 0.12681141666666562,
          "durationTicks": 140,
          "midi": 56,
          "name": "G#3",
          "ticks": 18720,
          "time": 16.956498,
          "velocity": 0.5984251968503937
        },
        {
          "duration": 0.11050709166666906,
          "durationTicks": 122,
          "midi": 61,
          "name": "C#4",
          "ticks": 18720,
          "time": 16.956498,
          "velocity": 0.6850393700787402
        },
        {
          "duration": 0.22916634583333462,
          "durationTicks": 253,
          "midi": 51,
          "name": "D#3",
          "ticks": 18960,
          "time": 17.173889,
          "velocity": 0.7165354330708661
        },
        {
          "duration": 0.23641271250000173,
          "durationTicks": 261,
          "midi": 56,
          "name": "G#3",
          "ticks": 18960,
          "time": 17.173889,
          "velocity": 0.6141732283464567
        },
        {
          "duration": 0.21739100000000278,
          "durationTicks": 240,
          "midi": 61,
          "name": "C#4",
          "ticks": 18960,
          "time": 17.173889,
          "velocity": 0.5905511811023622
        },
        {
          "duration": 0.11413027500000084,
          "durationTicks": 126,
          "midi": 51,
          "name": "D#3",
          "ticks": 19440,
          "time": 17.608671,
          "velocity": 0.7007874015748031
        },
        {
          "duration": 0.12047084583333145,
          "durationTicks": 133,
          "midi": 56,
          "name": "G#3",
          "ticks": 19440,
          "time": 17.608671,
          "velocity": 0.6535433070866141
        },
        {
          "duration": 0.13768096666666807,
          "durationTicks": 152,
          "midi": 61,
          "name": "C#4",
          "ticks": 19440,
          "time": 17.608671,
          "velocity": 0.7322834645669292
        },
        {
          "duration": 0.08967378750000066,
          "durationTicks": 99,
          "midi": 51,
          "name": "D#3",
          "ticks": 19920,
          "time": 18.043453,
          "velocity": 0.6850393700787402
        },
        {
          "duration": 0.0905795833333336,
          "durationTicks": 100,
          "midi": 56,
          "name": "G#3",
          "ticks": 19920,
          "time": 18.043453,
          "velocity": 0.6141732283464567
        },
        {
          "duration": 0.09692015416666777,
          "durationTicks": 107,
          "midi": 61,
          "name": "C#4",
          "ticks": 19920,
          "time": 18.043453,
          "velocity": 0.6850393700787402
        },
        {
          "duration": 0.10869549999999961,
          "durationTicks": 120,
          "midi": 51,
          "name": "D#3",
          "ticks": 20160,
          "time": 18.260844,
          "velocity": 0.6141732283464567
        },
        {
          "duration": 0.129528804166668,
          "durationTicks": 143,
          "midi": 56,
          "name": "G#3",
          "ticks": 20160,
          "time": 18.260844,
          "velocity": 0.5354330708661418
        },
        {
          "duration": 0.129528804166668,
          "durationTicks": 143,
          "midi": 61,
          "name": "C#4",
          "ticks": 20160,
          "time": 18.260844,
          "velocity": 0.5905511811023622
        },
        {
          "duration": 0.09420276666666538,
          "durationTicks": 104,
          "midi": 51,
          "name": "D#3",
          "ticks": 20640,
          "time": 18.695626,
          "velocity": 0.6929133858267716
        },
        {
          "duration": 0.09601435833333127,
          "durationTicks": 106,
          "midi": 56,
          "name": "G#3",
          "ticks": 20640,
          "time": 18.695626,
          "velocity": 0.6535433070866141
        },
        {
          "duration": 0.16847802499999887,
          "durationTicks": 186,
          "midi": 61,
          "name": "C#4",
          "ticks": 20640,
          "time": 18.695626,
          "velocity": 0.7165354330708661
        },
        {
          "duration": 0.18931132916666726,
          "durationTicks": 209,
          "midi": 51,
          "name": "D#3",
          "ticks": 21120,
          "time": 19.130408,
          "velocity": 0.6614173228346457
        },
        {
          "duration": 0.20652145000000033,
          "durationTicks": 228,
          "midi": 56,
          "name": "G#3",
          "ticks": 21120,
          "time": 19.130408,
          "velocity": 0.6141732283464567
        },
        {
          "duration": 0.19746349166666732,
          "durationTicks": 218,
          "midi": 60,
          "name": "C4",
          "ticks": 21120,
          "time": 19.130408,
          "velocity": 0.8110236220472441
        },
        {
          "duration": 0.15036210833333286,
          "durationTicks": 166,
          "midi": 51,
          "name": "D#3",
          "ticks": 21600,
          "time": 19.56519,
          "velocity": 0.6614173228346457
        },
        {
          "duration": 0.17753598333333187,
          "durationTicks": 196,
          "midi": 56,
          "name": "G#3",
          "ticks": 21600,
          "time": 19.56519,
          "velocity": 0.5905511811023622
        },
        {
          "duration": 0.18206496250000015,
          "durationTicks": 201,
          "midi": 60,
          "name": "C4",
          "ticks": 21600,
          "time": 19.56519,
          "velocity": 0.7244094488188977
        },
        {
          "duration": 0.14673892500000107,
          "durationTicks": 162,
          "midi": 51,
          "name": "D#3",
          "ticks": 22080,
          "time": 19.999972,
          "velocity": 0.7007874015748031
        },
        {
          "duration": 0.1702896166666683,
          "durationTicks": 188,
          "midi": 56,
          "name": "G#3",
          "ticks": 22080,
          "time": 19.999972,
          "velocity": 0.6141732283464567
        },
        {
          "duration": 0.18659394166666843,
          "durationTicks": 206,
          "midi": 60,
          "name": "C4",
          "ticks": 22080,
          "time": 19.999972,
          "velocity": 0.7480314960629921
        },
        {
          "duration": 0.1440215374999987,
          "durationTicks": 159,
          "midi": 51,
          "name": "D#3",
          "ticks": 22560,
          "time": 20.434754,
          "velocity": 0.6614173228346457
        },
        {
          "duration": 0.14855051666666697,
          "durationTicks": 164,
          "midi": 56,
          "name": "G#3",
          "ticks": 22560,
          "time": 20.434754,
          "velocity": 0.5826771653543307
        },
        {
          "duration": 0.1603258624999988,
          "durationTicks": 177,
          "midi": 60,
          "name": "C4",
          "ticks": 22560,
          "time": 20.434754,
          "velocity": 0.7086614173228346
        },
        {
          "duration": 0.20018087916666616,
          "durationTicks": 221,
          "midi": 53,
          "name": "F3",
          "ticks": 22800,
          "time": 20.652145,
          "velocity": 0.7086614173228346
        },
        {
          "duration": 0.24818805833333357,
          "durationTicks": 274,
          "midi": 56,
          "name": "G#3",
          "ticks": 22800,
          "time": 20.652145,
          "velocity": 0.6614173228346457
        },
        {
          "duration": 0.2237315708333334,
          "durationTicks": 247,
          "midi": 60,
          "name": "C4",
          "ticks": 22800,
          "time": 20.652145,
          "velocity": 0.7322834645669292
        },
        {
          "duration": 0.11775345833333617,
          "durationTicks": 130,
          "midi": 53,
          "name": "F3",
          "ticks": 23280,
          "time": 21.086927,
          "velocity": 0.7322834645669292
        },
        {
          "duration": 0.10597811250000078,
          "durationTicks": 117,
          "midi": 56,
          "name": "G#3",
          "ticks": 23280,
          "time": 21.086927,
          "velocity": 0.6220472440944882
        },
        {
          "duration": 0.13677517083333157,
          "durationTicks": 151,
          "midi": 60,
          "name": "C4",
          "ticks": 23280,
          "time": 21.086927,
          "velocity": 0.7244094488188977
        },
        {
          "duration": 0.06702889166666637,
          "durationTicks": 74,
          "midi": 53,
          "name": "F3",
          "ticks": 23760,
          "time": 21.521709,
          "velocity": 0.6535433070866141
        },
        {
          "duration": 0.0896737874999971,
          "durationTicks": 99,
          "midi": 56,
          "name": "G#3",
          "ticks": 23760,
          "time": 21.521709,
          "velocity": 0.6141732283464567
        },
        {
          "duration": 0.0905795833333336,
          "durationTicks": 100,
          "midi": 60,
          "name": "C4",
          "ticks": 23760,
          "time": 21.521709,
          "velocity": 0.7244094488188977
        },
        {
          "duration": 0.10326072499999839,
          "durationTicks": 114,
          "midi": 53,
          "name": "F3",
          "ticks": 24000,
          "time": 21.7391,
          "velocity": 0.7244094488188977
        },
        {
          "duration": 0.1222824375000009,
          "durationTicks": 135,
          "midi": 56,
          "name": "G#3",
          "ticks": 24000,
          "time": 21.7391,
          "velocity": 0.5590551181102362
        },
        {
          "duration": 0.12047084583333145,
          "durationTicks": 133,
          "midi": 60,
          "name": "C4",
          "ticks": 24000,
          "time": 21.7391,
          "velocity": 0.6929133858267716
        },
        {
          "duration": 0.111412887500002,
          "durationTicks": 123,
          "midi": 53,
          "name": "F3",
          "ticks": 24480,
          "time": 22.173882,
          "velocity": 0.7086614173228346
        },
        {
          "duration": 0.12862300833333506,
          "durationTicks": 142,
          "midi": 56,
          "name": "G#3",
          "ticks": 24480,
          "time": 22.173882,
          "velocity": 0.6377952755905512
        },
        {
          "duration": 0.13496357916666923,
          "durationTicks": 149,
          "midi": 60,
          "name": "C4",
          "ticks": 24480,
          "time": 22.173882,
          "velocity": 0.7086614173228346
        },
        {
          "duration": 0.18387655416666604,
          "durationTicks": 203,
          "midi": 49,
          "name": "C#3",
          "ticks": 24960,
          "time": 22.608664,
          "velocity": 0.7007874015748031
        },
        {
          "duration": 0.18659394166666488,
          "durationTicks": 206,
          "midi": 56,
          "name": "G#3",
          "ticks": 24960,
          "time": 22.608664,
          "velocity": 0.6377952755905512
        },
        {
          "duration": 0.18749973749999782,
          "durationTicks": 207,
          "midi": 61,
          "name": "C#4",
          "ticks": 24960,
          "time": 22.608664,
          "velocity": 0.7322834645669292
        },
        {
          "duration": 0.10960129583333256,
          "durationTicks": 121,
          "midi": 49,
          "name": "C#3",
          "ticks": 25440,
          "time": 23.043446,
          "velocity": 0.6929133858267716
        },
        {
          "duration": 0.11050709166666906,
          "durationTicks": 122,
          "midi": 56,
          "name": "G#3",
          "ticks": 25440,
          "time": 23.043446,
          "velocity": 0.6299212598425197
        },
        {
          "duration": 0.12590562083333268,
          "durationTicks": 139,
          "midi": 61,
          "name": "C#4",
          "ticks": 25440,
          "time": 23.043446,
          "velocity": 0.7165354330708661
        },
        {
          "duration": 0.17481859583332948,
          "durationTicks": 193,
          "midi": 49,
          "name": "C#3",
          "ticks": 25920,
          "time": 23.478228,
          "velocity": 0.6929133858267716
        },
        {
          "duration": 0.12771721249999857,
          "durationTicks": 141,
          "midi": 56,
          "name": "G#3",
          "ticks": 25920,
          "time": 23.478228,
          "velocity": 0.6535433070866141
        },
        {
          "duration": 0.14311574166666574,
          "durationTicks": 158,
          "midi": 61,
          "name": "C#4",
          "ticks": 25920,
          "time": 23.478228,
          "velocity": 0.7165354330708661
        },
        {
          "duration": 0.08695640000000182,
          "durationTicks": 96,
          "midi": 49,
          "name": "C#3",
          "ticks": 26400,
          "time": 23.91301,
          "velocity": 0.6535433070866141
        },
        {
          "duration": 0.12681141666666562,
          "durationTicks": 140,
          "midi": 56,
          "name": "G#3",
          "ticks": 26400,
          "time": 23.91301,
          "velocity": 0.5984251968503937
        },
        {
          "duration": 0.11050709166666906,
          "durationTicks": 122,
          "midi": 61,
          "name": "C#4",
          "ticks": 26400,
          "time": 23.91301,
          "velocity": 0.6850393700787402
        },
        {
          "duration": 0.22916634583333462,
          "durationTicks": 253,
          "midi": 51,
          "name": "D#3",
          "ticks": 26640,
          "time": 24.130401,
          "velocity": 0.7165354330708661
        },
        {
          "duration": 0.23641271250000173,
          "durationTicks": 261,
          "midi": 56,
          "name": "G#3",
          "ticks": 26640,
          "time": 24.130401,
          "velocity": 0.6141732283464567
        },
        {
          "duration": 0.21739099999999922,
          "durationTicks": 240,
          "midi": 61,
          "name": "C#4",
          "ticks": 26640,
          "time": 24.130401,
          "velocity": 0.5905511811023622
        },
        {
          "duration": 0.11413027500000084,
          "durationTicks": 126,
          "midi": 51,
          "name": "D#3",
          "ticks": 27120,
          "time": 24.565183,
          "velocity": 0.7007874015748031
        },
        {
          "duration": 0.12047084583333145,
          "durationTicks": 133,
          "midi": 56,
          "name": "G#3",
          "ticks": 27120,
          "time": 24.565183,
          "velocity": 0.6535433070866141
        },
        {
          "duration": 0.13768096666666807,
          "durationTicks": 152,
          "midi": 61,
          "name": "C#4",
          "ticks": 27120,
          "time": 24.565183,
          "velocity": 0.7322834645669292
        },
        {
          "duration": 0.08967378750000066,
          "durationTicks": 99,
          "midi": 51,
          "name": "D#3",
          "ticks": 27600,
          "time": 24.999965,
          "velocity": 0.6850393700787402
        },
        {
          "duration": 0.0905795833333336,
          "durationTicks": 100,
          "midi": 56,
          "name": "G#3",
          "ticks": 27600,
          "time": 24.999965,
          "velocity": 0.6141732283464567
        },
        {
          "duration": 0.09692015416666777,
          "durationTicks": 107,
          "midi": 61,
          "name": "C#4",
          "ticks": 27600,
          "time": 24.999965,
          "velocity": 0.6850393700787402
        },
        {
          "duration": 0.10869549999999961,
          "durationTicks": 120,
          "midi": 51,
          "name": "D#3",
          "ticks": 27840,
          "time": 25.217356,
          "velocity": 0.6141732283464567
        },
        {
          "duration": 0.129528804166668,
          "durationTicks": 143,
          "midi": 56,
          "name": "G#3",
          "ticks": 27840,
          "time": 25.217356,
          "velocity": 0.5354330708661418
        },
        {
          "duration": 0.129528804166668,
          "durationTicks": 143,
          "midi": 61,
          "name": "C#4",
          "ticks": 27840,
          "time": 25.217356,
          "velocity": 0.5905511811023622
        },
        {
          "duration": 0.09420276666666538,
          "durationTicks": 104,
          "midi": 51,
          "name": "D#3",
          "ticks": 28320,
          "time": 25.652138,
          "velocity": 0.6929133858267716
        },
        {
          "duration": 0.09601435833333127,
          "durationTicks": 106,
          "midi": 56,
          "name": "G#3",
          "ticks": 28320,
          "time": 25.652138,
          "velocity": 0.6535433070866141
        },
        {
          "duration": 0.16847802499999887,
          "durationTicks": 186,
          "midi": 61,
          "name": "C#4",
          "ticks": 28320,
          "time": 25.652138,
          "velocity": 0.7165354330708661
        },
        {
          "duration": 0.18931132916666726,
          "durationTicks": 209,
          "midi": 51,
          "name": "D#3",
          "ticks": 28800,
          "time": 26.08692,
          "velocity": 0.6614173228346457
        },
        {
          "duration": 0.20652145000000033,
          "durationTicks": 228,
          "midi": 56,
          "name": "G#3",
          "ticks": 28800,
          "time": 26.08692,
          "velocity": 0.6141732283464567
        },
        {
          "duration": 0.19746349166666732,
          "durationTicks": 218,
          "midi": 60,
          "name": "C4",
          "ticks": 28800,
          "time": 26.08692,
          "velocity": 0.8110236220472441
        },
        {
          "duration": 0.15036210833333286,
          "durationTicks": 166,
          "midi": 51,
          "name": "D#3",
          "ticks": 29280,
          "time": 26.521702,
          "velocity": 0.6614173228346457
        },
        {
          "duration": 0.17753598333333187,
          "durationTicks": 196,
          "midi": 56,
          "name": "G#3",
          "ticks": 29280,
          "time": 26.521702,
          "velocity": 0.5905511811023622
        },
        {
          "duration": 0.18206496250000015,
          "durationTicks": 201,
          "midi": 60,
          "name": "C4",
          "ticks": 29280,
          "time": 26.521702,
          "velocity": 0.7244094488188977
        },
        {
          "duration": 0.14673892500000107,
          "durationTicks": 162,
          "midi": 51,
          "name": "D#3",
          "ticks": 29760,
          "time": 26.956484,
          "velocity": 0.7007874015748031
        },
        {
          "duration": 0.1702896166666683,
          "durationTicks": 188,
          "midi": 56,
          "name": "G#3",
          "ticks": 29760,
          "time": 26.956484,
          "velocity": 0.6141732283464567
        },
        {
          "duration": 0.18659394166666843,
          "durationTicks": 206,
          "midi": 60,
          "name": "C4",
          "ticks": 29760,
          "time": 26.956484,
          "velocity": 0.7480314960629921
        },
        {
          "duration": 0.1440215374999987,
          "durationTicks": 159,
          "midi": 51,
          "name": "D#3",
          "ticks": 30240,
          "time": 27.391266,
          "velocity": 0.6614173228346457
        },
        {
          "duration": 0.14855051666666697,
          "durationTicks": 164,
          "midi": 56,
          "name": "G#3",
          "ticks": 30240,
          "time": 27.391266,
          "velocity": 0.5826771653543307
        },
        {
          "duration": 0.1603258624999988,
          "durationTicks": 177,
          "midi": 60,
          "name": "C4",
          "ticks": 30240,
          "time": 27.391266,
          "velocity": 0.7086614173228346
        },
        {
          "duration": 0.20018087916666616,
          "durationTicks": 221,
          "midi": 53,
          "name": "F3",
          "ticks": 30480,
          "time": 27.608657,
          "velocity": 0.7086614173228346
        },
        {
          "duration": 0.24818805833333712,
          "durationTicks": 274,
          "midi": 56,
          "name": "G#3",
          "ticks": 30480,
          "time": 27.608657,
          "velocity": 0.6614173228346457
        },
        {
          "duration": 0.2237315708333334,
          "durationTicks": 247,
          "midi": 60,
          "name": "C4",
          "ticks": 30480,
          "time": 27.608657,
          "velocity": 0.7322834645669292
        },
        {
          "duration": 0.11775345833333262,
          "durationTicks": 130,
          "midi": 53,
          "name": "F3",
          "ticks": 30960,
          "time": 28.043439,
          "velocity": 0.7322834645669292
        },
        {
          "duration": 0.10597811250000433,
          "durationTicks": 117,
          "midi": 56,
          "name": "G#3",
          "ticks": 30960,
          "time": 28.043439,
          "velocity": 0.6220472440944882
        },
        {
          "duration": 0.13677517083333157,
          "durationTicks": 151,
          "midi": 60,
          "name": "C4",
          "ticks": 30960,
          "time": 28.043439,
          "velocity": 0.7244094488188977
        },
        {
          "duration": 0.06702889166666637,
          "durationTicks": 74,
          "midi": 53,
          "name": "F3",
          "ticks": 31440,
          "time": 28.478221,
          "velocity": 0.6535433070866141
        },
        {
          "duration": 0.0896737874999971,
          "durationTicks": 99,
          "midi": 56,
          "name": "G#3",
          "ticks": 31440,
          "time": 28.478221,
          "velocity": 0.6141732283464567
        },
        {
          "duration": 0.09057958333333005,
          "durationTicks": 100,
          "midi": 60,
          "name": "C4",
          "ticks": 31440,
          "time": 28.478221,
          "velocity": 0.7244094488188977
        },
        {
          "duration": 0.10326072499999839,
          "durationTicks": 114,
          "midi": 53,
          "name": "F3",
          "ticks": 31680,
          "time": 28.695612,
          "velocity": 0.7244094488188977
        },
        {
          "duration": 0.1222824375000009,
          "durationTicks": 135,
          "midi": 56,
          "name": "G#3",
          "ticks": 31680,
          "time": 28.695612,
          "velocity": 0.5590551181102362
        },
        {
          "duration": 0.120470845833335,
          "durationTicks": 133,
          "midi": 60,
          "name": "C4",
          "ticks": 31680,
          "time": 28.695612,
          "velocity": 0.6929133858267716
        },
        {
          "duration": 0.11141288749999845,
          "durationTicks": 123,
          "midi": 53,
          "name": "F3",
          "ticks": 32160,
          "time": 29.130394,
          "velocity": 0.7086614173228346
        },
        {
          "duration": 0.12862300833333506,
          "durationTicks": 142,
          "midi": 56,
          "name": "G#3",
          "ticks": 32160,
          "time": 29.130394,
          "velocity": 0.6377952755905512
        },
        {
          "duration": 0.13496357916666923,
          "durationTicks": 149,
          "midi": 60,
          "name": "C4",
          "ticks": 32160,
          "time": 29.130394,
          "velocity": 0.7086614173228346
        }
      ]
    },
    {
      "channel": 0,
      "controlChanges": {
        "0": [
          {
            "number": 0,
            "ticks": 489,
            "time": 0.4429341625,
            "value": 0
          }
        ],
        "32": [
          {
            "number": 32,
            "ticks": 490,
            "time": 0.4438399583333333,
            "value": 0
          }
        ]
      },
      "pitchBends": [],
      "instrument": {
        "family": "piano",
        "number": 0,
        "name": "acoustic grand piano"
      },
      "name": "Fingered Bass",
      "notes": [],
      "endOfTrackTicks": 32636
    },
    {
      "channel": 1,
      "controlChanges": {
        "6": [
          {
            "number": 6,
            "ticks": 510,
            "time": 0.461955875,
            "value": 0.015748031496062992
          }
        ],
        "7": [
          {
            "number": 7,
            "ticks": 492,
            "time": 0.44565154999999995,
            "value": 0.9133858267716536
          }
        ],
        "10": [
          {
            "number": 10,
            "ticks": 493,
            "time": 0.44655734583333334,
            "value": 0.5039370078740157
          }
        ],
        "11": [
          {
            "number": 11,
            "ticks": 494,
            "time": 0.4474631416666666,
            "value": 1
          }
        ],
        "91": [
          {
            "number": 91,
            "ticks": 495,
            "time": 0.4483689375,
            "value": 0.4330708661417323
          }
        ],
        "93": [
          {
            "number": 93,
            "ticks": 496,
            "time": 0.4492747333333334,
            "value": 0
          }
        ],
        "100": [
          {
            "number": 100,
            "ticks": 506,
            "time": 0.4583326916666667,
            "value": 0
          },
          {
            "number": 100,
            "ticks": 518,
            "time": 0.46920224166666663,
            "value": 1
          }
        ],
        "101": [
          {
            "number": 101,
            "ticks": 502,
            "time": 0.45470950833333335,
            "value": 0
          },
          {
            "number": 101,
            "ticks": 514,
            "time": 0.4655790583333333,
            "value": 1
          }
        ]
      },
      "pitchBends": [],
      "instrument": {
        "family": "bass",
        "number": 33,
        "name": "electric bass (finger)"
      },
      "name": "",
      "notes": [
        {
          "duration": 0.43115881666666667,
          "durationTicks": 476,
          "midi": 37,
          "name": "C#2",
          "ticks": 1920,
          "time": 1.739128,
          "velocity": 0.8661417322834646
        },
        {
          "duration": 0.4311588166666662,
          "durationTicks": 476,
          "midi": 37,
          "name": "C#2",
          "ticks": 2400,
          "time": 2.1739100000000002,
          "velocity": 0.5511811023622047
        },
        {
          "duration": 0.43115881666666667,
          "durationTicks": 476,
          "midi": 37,
          "name": "C#2",
          "ticks": 2880,
          "time": 2.608692,
          "velocity": 0.8031496062992126
        },
        {
          "duration": 0.21376781666666655,
          "durationTicks": 236,
          "midi": 37,
          "name": "C#2",
          "ticks": 3360,
          "time": 3.043474,
          "velocity": 0.8346456692913385
        },
        {
          "duration": 0.4311588166666671,
          "durationTicks": 476,
          "midi": 27,
          "name": "D#1",
          "ticks": 3600,
          "time": 3.260865,
          "velocity": 0.8188976377952756
        },
        {
          "duration": 0.21376781666666655,
          "durationTicks": 236,
          "midi": 27,
          "name": "D#1",
          "ticks": 4080,
          "time": 3.695647,
          "velocity": 0.7795275590551181
        },
        {
          "duration": 0.21376781666666655,
          "durationTicks": 236,
          "midi": 27,
          "name": "D#1",
          "ticks": 4320,
          "time": 3.9130380000000002,
          "velocity": 0.8110236220472441
        },
        {
          "duration": 0.21376781666666655,
          "durationTicks": 236,
          "midi": 27,
          "name": "D#1",
          "ticks": 4560,
          "time": 4.130429,
          "velocity": 0.8267716535433071
        },
        {
          "duration": 0.43115881666666667,
          "durationTicks": 476,
          "midi": 27,
          "name": "D#1",
          "ticks": 4800,
          "time": 4.3478200000000005,
          "velocity": 0.8110236220472441
        },
        {
          "duration": 0.43115881666666667,
          "durationTicks": 476,
          "midi": 27,
          "name": "D#1",
          "ticks": 5280,
          "time": 4.782602,
          "velocity": 0.7795275590551181
        },
        {
          "duration": 0.43115881666666667,
          "durationTicks": 476,
          "midi": 32,
          "name": "G#1",
          "ticks": 5760,
          "time": 5.217384,
          "velocity": 0.8188976377952756
        },
        {
          "duration": 0.43115881666666667,
          "durationTicks": 476,
          "midi": 32,
          "name": "G#1",
          "ticks": 6240,
          "time": 5.652166,
          "velocity": 0.7952755905511811
        },
        {
          "duration": 0.43115881666666755,
          "durationTicks": 476,
          "midi": 32,
          "name": "G#1",
          "ticks": 6720,
          "time": 6.086948,
          "velocity": 0.7795275590551181
        },
        {
          "duration": 0.21376781666666744,
          "durationTicks": 236,
          "midi": 32,
          "name": "G#1",
          "ticks": 7200,
          "time": 6.52173,
          "velocity": 0.7559055118110236
        },
        {
          "duration": 0.43115881666666667,
          "durationTicks": 476,
          "midi": 29,
          "name": "F1",
          "ticks": 7440,
          "time": 6.739121,
          "velocity": 0.8976377952755905
        },
        {
          "duration": 0.21376781666666655,
          "durationTicks": 236,
          "midi": 29,
          "name": "F1",
          "ticks": 7920,
          "time": 7.173903,
          "velocity": 0.8110236220472441
        },
        {
          "duration": 0.21376781666666655,
          "durationTicks": 236,
          "midi": 29,
          "name": "F1",
          "ticks": 8160,
          "time": 7.391294,
          "velocity": 0.8110236220472441
        },
        {
          "duration": 0.21376781666666655,
          "durationTicks": 236,
          "midi": 29,
          "name": "F1",
          "ticks": 8400,
          "time": 7.608685,
          "velocity": 0.8110236220472441
        },
        {
          "duration": 0.21376781666666567,
          "durationTicks": 236,
          "midi": 29,
          "name": "F1",
          "ticks": 8640,
          "time": 7.8260760000000005,
          "velocity": 0.8031496062992126
        },
        {
          "duration": 0.21376781666666744,
          "durationTicks": 236,
          "midi": 29,
          "name": "F1",
          "ticks": 8880,
          "time": 8.043467,
          "velocity": 0.8346456692913385
        },
        {
          "duration": 0.21376781666666567,
          "durationTicks": 236,
          "midi": 29,
          "name": "F1",
          "ticks": 9120,
          "time": 8.260858,
          "velocity": 0.84251968503937
        },
        {
          "duration": 0.21376781666666744,
          "durationTicks": 236,
          "midi": 29,
          "name": "F1",
          "ticks": 9360,
          "time": 8.478249,
          "velocity": 0.8267716535433071
        },
        {
          "duration": 0.43115881666666667,
          "durationTicks": 476,
          "midi": 37,
          "name": "C#2",
          "ticks": 9600,
          "time": 8.695640000000001,
          "velocity": 0.8267716535433071
        },
        {
          "duration": 0.43115881666666667,
          "durationTicks": 476,
          "midi": 37,
          "name": "C#2",
          "ticks": 10080,
          "time": 9.130422,
          "velocity": 0.6535433070866141
        },
        {
          "duration": 0.43115881666666667,
          "durationTicks": 476,
          "midi": 37,
          "name": "C#2",
          "ticks": 10560,
          "time": 9.565204,
          "velocity": 0.6299212598425197
        },
        {
          "duration": 0.21376781666666744,
          "durationTicks": 236,
          "midi": 37,
          "name": "C#2",
          "ticks": 11040,
          "time": 9.999986,
          "velocity": 0.8740157480314961
        },
        {
          "duration": 0.43115881666666667,
          "durationTicks": 476,
          "midi": 27,
          "name": "D#1",
          "ticks": 11280,
          "time": 10.217377,
          "velocity": 0.8188976377952756
        },
        {
          "duration": 0.21376781666666744,
          "durationTicks": 236,
          "midi": 27,
          "name": "D#1",
          "ticks": 11760,
          "time": 10.652159,
          "velocity": 0.7322834645669292
        },
        {
          "duration": 0.21376781666666744,
          "durationTicks": 236,
          "midi": 27,
          "name": "D#1",
          "ticks": 12000,
          "time": 10.86955,
          "velocity": 0.7637795275590551
        },
        {
          "duration": 0.21376781666666744,
          "durationTicks": 236,
          "midi": 27,
          "name": "D#1",
          "ticks": 12240,
          "time": 11.086941,
          "velocity": 0.7401574803149606
        },
        {
          "duration": 0.43115881666666667,
          "durationTicks": 476,
          "midi": 27,
          "name": "D#1",
          "ticks": 12480,
          "time": 11.304332,
          "velocity": 0.7637795275590551
        },
        {
          "duration": 0.43115881666666667,
          "durationTicks": 476,
          "midi": 27,
          "name": "D#1",
          "ticks": 12960,
          "time": 11.739114,
          "velocity": 0.7086614173228346
        },
        {
          "duration": 0.43115881666666844,
          "durationTicks": 476,
          "midi": 32,
          "name": "G#1",
          "ticks": 13440,
          "time": 12.173896,
          "velocity": 0.8267716535433071
        },
        {
          "duration": 0.43115881666666667,
          "durationTicks": 476,
          "midi": 32,
          "name": "G#1",
          "ticks": 13920,
          "time": 12.608678,
          "velocity": 0.7480314960629921
        },
        {
          "duration": 0.43115881666666667,
          "durationTicks": 476,
          "midi": 32,
          "name": "G#1",
          "ticks": 14400,
          "time": 13.04346,
          "velocity": 0.7086614173228346
        },
        {
          "duration": 0.21376781666666744,
          "durationTicks": 236,
          "midi": 32,
          "name": "G#1",
          "ticks": 14880,
          "time": 13.478242,
          "velocity": 0.8188976377952756
        },
        {
          "duration": 0.43115881666666667,
          "durationTicks": 476,
          "midi": 29,
          "name": "F1",
          "ticks": 15120,
          "time": 13.695633,
          "velocity": 0.8503937007874016
        },
        {
          "duration": 0.21376781666666744,
          "durationTicks": 236,
          "midi": 29,
          "name": "F1",
          "ticks": 15600,
          "time": 14.130415,
          "velocity": 0.7795275590551181
        },
        {
          "duration": 0.21376781666666744,
          "durationTicks": 236,
          "midi": 29,
          "name": "F1",
          "ticks": 15840,
          "time": 14.347806,
          "velocity": 0.7952755905511811
        },
        {
          "duration": 0.21376781666666744,
          "durationTicks": 236,
          "midi": 29,
          "name": "F1",
          "ticks": 16080,
          "time": 14.565197,
          "velocity": 0.8110236220472441
        },
        {
          "duration": 0.21376781666666567,
          "durationTicks": 236,
          "midi": 29,
          "name": "F1",
          "ticks": 16320,
          "time": 14.782588,
          "velocity": 0.8661417322834646
        },
        {
          "duration": 0.21376781666666744,
          "durationTicks": 236,
          "midi": 29,
          "name": "F1",
          "ticks": 16560,
          "time": 14.999979,
          "velocity": 0.8976377952755905
        },
        {
          "duration": 0.21376781666666567,
          "durationTicks": 236,
          "midi": 29,
          "name": "F1",
          "ticks": 16800,
          "time": 15.21737,
          "velocity": 0.84251968503937
        },
        {
          "duration": 0.21376781666666744,
          "durationTicks": 236,
          "midi": 29,
          "name": "F1",
          "ticks": 17040,
          "time": 15.434761,
          "velocity": 0.8267716535433071
        },
        {
          "duration": 0.43115881666666667,
          "durationTicks": 476,
          "midi": 37,
          "name": "C#2",
          "ticks": 17280,
          "time": 15.652152000000001,
          "velocity": 0.8661417322834646
        },
        {
          "duration": 0.43115881666666667,
          "durationTicks": 476,
          "midi": 37,
          "name": "C#2",
          "ticks": 17760,
          "time": 16.086934,
          "velocity": 0.7244094488188977
        },
        {
          "duration": 0.2137678166666639,
          "durationTicks": 236,
          "midi": 37,
          "name": "C#2",
          "ticks": 18240,
          "time": 16.521716,
          "velocity": 0.8267716535433071
        },
        {
          "duration": 0.21376781666666744,
          "durationTicks": 236,
          "midi": 37,
          "name": "C#2",
          "ticks": 18480,
          "time": 16.739107,
          "velocity": 0.8188976377952756
        },
        {
          "duration": 0.21376781666666744,
          "durationTicks": 236,
          "midi": 37,
          "name": "C#2",
          "ticks": 18720,
          "time": 16.956498,
          "velocity": 0.8110236220472441
        },
        {
          "duration": 0.43115881666666667,
          "durationTicks": 476,
          "midi": 39,
          "name": "D#2",
          "ticks": 18960,
          "time": 17.173889,
          "velocity": 0.7480314960629921
        },
        {
          "duration": 0.21376781666666744,
          "durationTicks": 236,
          "midi": 39,
          "name": "D#2",
          "ticks": 19440,
          "time": 17.608671,
          "velocity": 0.7480314960629921
        },
        {
          "duration": 0.21376781666666744,
          "durationTicks": 236,
          "midi": 39,
          "name": "D#2",
          "ticks": 19680,
          "time": 17.826062,
          "velocity": 0.8267716535433071
        },
        {
          "duration": 0.21376781666666744,
          "durationTicks": 236,
          "midi": 39,
          "name": "D#2",
          "ticks": 19920,
          "time": 18.043453,
          "velocity": 0.8267716535433071
        },
        {
          "duration": 0.43115881666666667,
          "durationTicks": 476,
          "midi": 39,
          "name": "D#2",
          "ticks": 20160,
          "time": 18.260844,
          "velocity": 0.8661417322834646
        },
        {
          "duration": 0.43115881666666667,
          "durationTicks": 476,
          "midi": 34,
          "name": "A#1",
          "ticks": 20640,
          "time": 18.695626,
          "velocity": 0.7007874015748031
        },
        {
          "duration": 0.43115881666666667,
          "durationTicks": 476,
          "midi": 36,
          "name": "C2",
          "ticks": 21120,
          "time": 19.130408,
          "velocity": 0.905511811023622
        },
        {
          "duration": 0.21376781666666744,
          "durationTicks": 236,
          "midi": 36,
          "name": "C2",
          "ticks": 21600,
          "time": 19.56519,
          "velocity": 0.7480314960629921
        },
        {
          "duration": 0.21376781666666744,
          "durationTicks": 236,
          "midi": 36,
          "name": "C2",
          "ticks": 21840,
          "time": 19.782581,
          "velocity": 0.7637795275590551
        },
        {
          "duration": 0.21376781666666744,
          "durationTicks": 236,
          "midi": 36,
          "name": "C2",
          "ticks": 22080,
          "time": 19.999972,
          "velocity": 0.8661417322834646
        },
        {
          "duration": 0.21376781666666744,
          "durationTicks": 236,
          "midi": 36,
          "name": "C2",
          "ticks": 22320,
          "time": 20.217363,
          "velocity": 0.7244094488188977
        },
        {
          "duration": 0.2137678166666639,
          "durationTicks": 236,
          "midi": 36,
          "name": "C2",
          "ticks": 22560,
          "time": 20.434754,
          "velocity": 0.8740157480314961
        },
        {
          "duration": 0.43115881666666667,
          "durationTicks": 476,
          "midi": 41,
          "name": "F2",
          "ticks": 22800,
          "time": 20.652145,
          "velocity": 0.8346456692913385
        },
        {
          "duration": 0.21376781666666744,
          "durationTicks": 236,
          "midi": 41,
          "name": "F2",
          "ticks": 23280,
          "time": 21.086927,
          "velocity": 0.6929133858267716
        },
        {
          "duration": 0.21376781666666744,
          "durationTicks": 236,
          "midi": 41,
          "name": "F2",
          "ticks": 23520,
          "time": 21.304318,
          "velocity": 0.8503937007874016
        },
        {
          "duration": 0.2137678166666639,
          "durationTicks": 236,
          "midi": 41,
          "name": "F2",
          "ticks": 23760,
          "time": 21.521709,
          "velocity": 0.8031496062992126
        },
        {
          "duration": 0.43115881666666667,
          "durationTicks": 476,
          "midi": 41,
          "name": "F2",
          "ticks": 24000,
          "time": 21.7391,
          "velocity": 0.889763779527559
        },
        {
          "duration": 0.43115881666666667,
          "durationTicks": 476,
          "midi": 41,
          "name": "F2",
          "ticks": 24480,
          "time": 22.173882,
          "velocity": 0.6535433070866141
        },
        {
          "duration": 0.43115881666666667,
          "durationTicks": 476,
          "midi": 37,
          "name": "C#2",
          "ticks": 24960,
          "time": 22.608664,
          "velocity": 0.7480314960629921
        },
        {
          "duration": 0.43115881666666667,
          "durationTicks": 476,
          "midi": 37,
          "name": "C#2",
          "ticks": 25440,
          "time": 23.043446,
          "velocity": 0.6535433070866141
        },
        {
          "duration": 0.2137678166666639,
          "durationTicks": 236,
          "midi": 37,
          "name": "C#2",
          "ticks": 25920,
          "time": 23.478228,
          "velocity": 0.84251968503937
        },
        {
          "duration": 0.21376781666666744,
          "durationTicks": 236,
          "midi": 37,
          "name": "C#2",
          "ticks": 26160,
          "time": 23.695619,
          "velocity": 0.7795275590551181
        },
        {
          "duration": 0.21376781666666744,
          "durationTicks": 236,
          "midi": 37,
          "name": "C#2",
          "ticks": 26400,
          "time": 23.91301,
          "velocity": 0.84251968503937
        },
        {
          "duration": 0.43115881666666667,
          "durationTicks": 476,
          "midi": 27,
          "name": "D#1",
          "ticks": 26640,
          "time": 24.130401,
          "velocity": 0.8188976377952756
        },
        {
          "duration": 0.21376781666666744,
          "durationTicks": 236,
          "midi": 27,
          "name": "D#1",
          "ticks": 27120,
          "time": 24.565183,
          "velocity": 0.6220472440944882
        },
        {
          "duration": 0.21376781666666744,
          "durationTicks": 236,
          "midi": 27,
          "name": "D#1",
          "ticks": 27360,
          "time": 24.782574,
          "velocity": 0.7637795275590551
        },
        {
          "duration": 0.21376781666666744,
          "durationTicks": 236,
          "midi": 27,
          "name": "D#1",
          "ticks": 27600,
          "time": 24.999965,
          "velocity": 0.6929133858267716
        },
        {
          "duration": 0.43115881666666667,
          "durationTicks": 476,
          "midi": 27,
          "name": "D#1",
          "ticks": 27840,
          "time": 25.217356,
          "velocity": 0.7322834645669292
        },
        {
          "duration": 0.43115881666666667,
          "durationTicks": 476,
          "midi": 27,
          "name": "D#1",
          "ticks": 28320,
          "time": 25.652138,
          "velocity": 0.5590551181102362
        },
        {
          "duration": 0.43115881666666667,
          "durationTicks": 476,
          "midi": 32,
          "name": "G#1",
          "ticks": 28800,
          "time": 26.08692,
          "velocity": 0.8267716535433071
        },
        {
          "duration": 0.43115881666666667,
          "durationTicks": 476,
          "midi": 32,
          "name": "G#1",
          "ticks": 29280,
          "time": 26.521702,
          "velocity": 0.7795275590551181
        },
        {
          "duration": 0.21376781666666744,
          "durationTicks": 236,
          "midi": 32,
          "name": "G#1",
          "ticks": 29760,
          "time": 26.956484,
          "velocity": 0.7322834645669292
        },
        {
          "duration": 0.21376781666666744,
          "durationTicks": 236,
          "midi": 32,
          "name": "G#1",
          "ticks": 30000,
          "time": 27.173875,
          "velocity": 0.7795275590551181
        },
        {
          "duration": 0.2137678166666639,
          "durationTicks": 236,
          "midi": 32,
          "name": "G#1",
          "ticks": 30240,
          "time": 27.391266,
          "velocity": 0.7165354330708661
        },
        {
          "duration": 0.4311588166666631,
          "durationTicks": 476,
          "midi": 29,
          "name": "F1",
          "ticks": 30480,
          "time": 27.608657,
          "velocity": 0.8582677165354331
        },
        {
          "duration": 0.2137678166666639,
          "durationTicks": 236,
          "midi": 29,
          "name": "F1",
          "ticks": 30960,
          "time": 28.043439,
          "velocity": 0.7480314960629921
        },
        {
          "duration": 0.2137678166666639,
          "durationTicks": 236,
          "midi": 29,
          "name": "F1",
          "ticks": 31200,
          "time": 28.26083,
          "velocity": 0.7480314960629921
        },
        {
          "duration": 0.2137678166666639,
          "durationTicks": 236,
          "midi": 29,
          "name": "F1",
          "ticks": 31440,
          "time": 28.478221,
          "velocity": 0.8110236220472441
        },
        {
          "duration": 0.4311588166666631,
          "durationTicks": 476,
          "midi": 29,
          "name": "F1",
          "ticks": 31680,
          "time": 28.695612,
          "velocity": 0.7401574803149606
        },
        {
          "duration": 0.43115881666666667,
          "durationTicks": 476,
          "midi": 29,
          "name": "F1",
          "ticks": 32160,
          "time": 29.130394,
          "velocity": 0.7716535433070866
        }
      ]
    },
    {
      "channel": 0,
      "controlChanges": {
        "0": [
          {
            "number": 0,
            "ticks": 529,
            "time": 0.4791659958333333,
            "value": 0
          }
        ],
        "32": [
          {
            "number": 32,
            "ticks": 530,
            "time": 0.4800717916666667,
            "value": 0
          }
        ]
      },
      "pitchBends": [],
      "instrument": {
        "family": "piano",
        "number": 0,
        "name": "acoustic grand piano"
      },
      "name": "Clean Guitar",
      "notes": [],
      "endOfTrackTicks": 32636
    },
    {
      "channel": 2,
      "controlChanges": {
        "6": [
          {
            "number": 6,
            "ticks": 651,
            "time": 0.5896730875,
            "value": 0.015748031496062992
          }
        ],
        "7": [
          {
            "number": 7,
            "ticks": 532,
            "time": 0.48188338333333336,
            "value": 0.8661417322834646
          }
        ],
        "10": [
          {
            "number": 10,
            "ticks": 533,
            "time": 0.48278917916666664,
            "value": 0.5039370078740157
          }
        ],
        "11": [
          {
            "number": 11,
            "ticks": 534,
            "time": 0.483694975,
            "value": 1
          }
        ],
        "91": [
          {
            "number": 91,
            "ticks": 535,
            "time": 0.4846007708333333,
            "value": 0.4330708661417323
          }
        ],
        "93": [
          {
            "number": 93,
            "ticks": 536,
            "time": 0.4855065666666667,
            "value": 0
          }
        ],
        "100": [
          {
            "number": 100,
            "ticks": 647,
            "time": 0.5860499041666667,
            "value": 0
          },
          {
            "number": 100,
            "ticks": 659,
            "time": 0.5969194541666666,
            "value": 1
          }
        ],
        "101": [
          {
            "number": 101,
            "ticks": 643,
            "time": 0.5824267208333334,
            "value": 0
          },
          {
            "number": 101,
            "ticks": 655,
            "time": 0.5932962708333333,
            "value": 1
          }
        ]
      },
      "pitchBends": [],
      "instrument": {
        "family": "guitar",
        "number": 27,
        "name": "electric guitar (clean)"
      },
      "name": "",
      "notes": [
        {
          "duration": 0.43115881666666667,
          "durationTicks": 476,
          "midi": 49,
          "name": "C#3",
          "ticks": 1920,
          "time": 1.739128,
          "velocity": 0.8346456692913385
        },
        {
          "duration": 0.43115881666666667,
          "durationTicks": 476,
          "midi": 56,
          "name": "G#3",
          "ticks": 1920,
          "time": 1.739128,
          "velocity": 0.8267716535433071
        },
        {
          "duration": 0.43115881666666667,
          "durationTicks": 476,
          "midi": 61,
          "name": "C#4",
          "ticks": 1920,
          "time": 1.739128,
          "velocity": 0.8188976377952756
        },
        {
          "duration": 0.4311588166666662,
          "durationTicks": 476,
          "midi": 49,
          "name": "C#3",
          "ticks": 2400,
          "time": 2.1739100000000002,
          "velocity": 0.6535433070866141
        },
        {
          "duration": 0.4311588166666662,
          "durationTicks": 476,
          "midi": 56,
          "name": "G#3",
          "ticks": 2400,
          "time": 2.1739100000000002,
          "velocity": 0.7401574803149606
        },
        {
          "duration": 0.4311588166666662,
          "durationTicks": 476,
          "midi": 61,
          "name": "C#4",
          "ticks": 2400,
          "time": 2.1739100000000002,
          "velocity": 0.7165354330708661
        },
        {
          "duration": 0.21376781666666655,
          "durationTicks": 236,
          "midi": 49,
          "name": "C#3",
          "ticks": 2880,
          "time": 2.608692,
          "velocity": 0.6141732283464567
        },
        {
          "duration": 0.21376781666666655,
          "durationTicks": 236,
          "midi": 56,
          "name": "G#3",
          "ticks": 2880,
          "time": 2.608692,
          "velocity": 0.7165354330708661
        },
        {
          "duration": 0.21376781666666655,
          "durationTicks": 236,
          "midi": 61,
          "name": "C#4",
          "ticks": 2880,
          "time": 2.608692,
          "velocity": 0.6535433070866141
        },
        {
          "duration": 0.21376781666666655,
          "durationTicks": 236,
          "midi": 49,
          "name": "C#3",
          "ticks": 3120,
          "time": 2.826083,
          "velocity": 0.7480314960629921
        },
        {
          "duration": 0.21376781666666655,
          "durationTicks": 236,
          "midi": 56,
          "name": "G#3",
          "ticks": 3120,
          "time": 2.826083,
          "velocity": 0.8110236220472441
        },
        {
          "duration": 0.21376781666666655,
          "durationTicks": 236,
          "midi": 61,
          "name": "C#4",
          "ticks": 3120,
          "time": 2.826083,
          "velocity": 0.7480314960629921
        },
        {
          "duration": 0.21376781666666655,
          "durationTicks": 236,
          "midi": 49,
          "name": "C#3",
          "ticks": 3360,
          "time": 3.043474,
          "velocity": 0.7007874015748031
        },
        {
          "duration": 0.21376781666666655,
          "durationTicks": 236,
          "midi": 56,
          "name": "G#3",
          "ticks": 3360,
          "time": 3.043474,
          "velocity": 0.7480314960629921
        },
        {
          "duration": 0.21376781666666655,
          "durationTicks": 236,
          "midi": 61,
          "name": "C#4",
          "ticks": 3360,
          "time": 3.043474,
          "velocity": 0.7874015748031497
        },
        {
          "duration": 0.4311588166666671,
          "durationTicks": 476,
          "midi": 51,
          "name": "D#3",
          "ticks": 3600,
          "time": 3.260865,
          "velocity": 0.8031496062992126
        },
        {
          "duration": 0.4311588166666671,
          "durationTicks": 476,
          "midi": 58,
          "name": "A#3",
          "ticks": 3600,
          "time": 3.260865,
          "velocity": 0.8267716535433071
        },
        {
          "duration": 0.4311588166666671,
          "durationTicks": 476,
          "midi": 61,
          "name": "C#4",
          "ticks": 3600,
          "time": 3.260865,
          "velocity": 0.49606299212598426
        },
        {
          "duration": 0.4311588166666671,
          "durationTicks": 476,
          "midi": 63,
          "name": "D#4",
          "ticks": 3600,
          "time": 3.260865,
          "velocity": 0.8582677165354331
        },
        {
          "duration": 0.21376781666666655,
          "durationTicks": 236,
          "midi": 51,
          "name": "D#3",
          "ticks": 4080,
          "time": 3.695647,
          "velocity": 0.6929133858267716
        },
        {
          "duration": 0.21376781666666655,
          "durationTicks": 236,
          "midi": 58,
          "name": "A#3",
          "ticks": 4080,
          "time": 3.695647,
          "velocity": 0.6614173228346457
        },
        {
          "duration": 0.21376781666666655,
          "durationTicks": 236,
          "midi": 63,
          "name": "D#4",
          "ticks": 4080,
          "time": 3.695647,
          "velocity": 0.6771653543307087
        },
        {
          "duration": 0.21376781666666655,
          "durationTicks": 236,
          "midi": 51,
          "name": "D#3",
          "ticks": 4320,
          "time": 3.9130380000000002,
          "velocity": 0.7165354330708661
        },
        {
          "duration": 0.21376781666666655,
          "durationTicks": 236,
          "midi": 58,
          "name": "A#3",
          "ticks": 4320,
          "time": 3.9130380000000002,
          "velocity": 0.7165354330708661
        },
        {
          "duration": 0.21376781666666655,
          "durationTicks": 236,
          "midi": 63,
          "name": "D#4",
          "ticks": 4320,
          "time": 3.9130380000000002,
          "velocity": 0.7322834645669292
        },
        {
          "duration": 0.21376781666666655,
          "durationTicks": 236,
          "midi": 51,
          "name": "D#3",
          "ticks": 4560,
          "time": 4.130429,
          "velocity": 0.7480314960629921
        },
        {
          "duration": 0.21376781666666655,
          "durationTicks": 236,
          "midi": 58,
          "name": "A#3",
          "ticks": 4560,
          "time": 4.130429,
          "velocity": 0.7165354330708661
        },
        {
          "duration": 0.21376781666666655,
          "durationTicks": 236,
          "midi": 63,
          "name": "D#4",
          "ticks": 4560,
          "time": 4.130429,
          "velocity": 0.7401574803149606
        },
        {
          "duration": 0.43115881666666667,
          "durationTicks": 476,
          "midi": 51,
          "name": "D#3",
          "ticks": 4800,
          "time": 4.3478200000000005,
          "velocity": 0.6692913385826772
        },
        {
          "duration": 0.43115881666666667,
          "durationTicks": 476,
          "midi": 58,
          "name": "A#3",
          "ticks": 4800,
          "time": 4.3478200000000005,
          "velocity": 0.7007874015748031
        },
        {
          "duration": 0.43115881666666667,
          "durationTicks": 476,
          "midi": 63,
          "name": "D#4",
          "ticks": 4800,
          "time": 4.3478200000000005,
          "velocity": 0.7322834645669292
        },
        {
          "duration": 0.43115881666666667,
          "durationTicks": 476,
          "midi": 51,
          "name": "D#3",
          "ticks": 5280,
          "time": 4.782602,
          "velocity": 0.7795275590551181
        },
        {
          "duration": 0.43115881666666667,
          "durationTicks": 476,
          "midi": 58,
          "name": "A#3",
          "ticks": 5280,
          "time": 4.782602,
          "velocity": 0.84251968503937
        },
        {
          "duration": 0.43115881666666667,
          "durationTicks": 476,
          "midi": 63,
          "name": "D#4",
          "ticks": 5280,
          "time": 4.782602,
          "velocity": 0.8267716535433071
        },
        {
          "duration": 0.43115881666666667,
          "durationTicks": 476,
          "midi": 44,
          "name": "G#2",
          "ticks": 5760,
          "time": 5.217384,
          "velocity": 0.7637795275590551
        },
        {
          "duration": 0.43115881666666667,
          "durationTicks": 476,
          "midi": 51,
          "name": "D#3",
          "ticks": 5760,
          "time": 5.217384,
          "velocity": 0.7480314960629921
        },
        {
          "duration": 0.43115881666666667,
          "durationTicks": 476,
          "midi": 56,
          "name": "G#3",
          "ticks": 5760,
          "time": 5.217384,
          "velocity": 0.7795275590551181
        },
        {
          "duration": 0.43115881666666667,
          "durationTicks": 476,
          "midi": 44,
          "name": "G#2",
          "ticks": 6240,
          "time": 5.652166,
          "velocity": 0.7244094488188977
        },
        {
          "duration": 0.43115881666666667,
          "durationTicks": 476,
          "midi": 51,
          "name": "D#3",
          "ticks": 6240,
          "time": 5.652166,
          "velocity": 0.84251968503937
        },
        {
          "duration": 0.43115881666666667,
          "durationTicks": 476,
          "midi": 56,
          "name": "G#3",
          "ticks": 6240,
          "time": 5.652166,
          "velocity": 0.6220472440944882
        },
        {
          "duration": 0.21376781666666744,
          "durationTicks": 236,
          "midi": 44,
          "name": "G#2",
          "ticks": 6720,
          "time": 6.086948,
          "velocity": 0.6614173228346457
        },
        {
          "duration": 0.21376781666666744,
          "durationTicks": 236,
          "midi": 51,
          "name": "D#3",
          "ticks": 6720,
          "time": 6.086948,
          "velocity": 0.7007874015748031
        },
        {
          "duration": 0.21376781666666744,
          "durationTicks": 236,
          "midi": 56,
          "name": "G#3",
          "ticks": 6720,
          "time": 6.086948,
          "velocity": 0.5984251968503937
        },
        {
          "duration": 0.21376781666666744,
          "durationTicks": 236,
          "midi": 44,
          "name": "G#2",
          "ticks": 6960,
          "time": 6.304339,
          "velocity": 0.7480314960629921
        },
        {
          "duration": 0.21376781666666744,
          "durationTicks": 236,
          "midi": 51,
          "name": "D#3",
          "ticks": 6960,
          "time": 6.304339,
          "velocity": 0.6614173228346457
        },
        {
          "duration": 0.21376781666666744,
          "durationTicks": 236,
          "midi": 56,
          "name": "G#3",
          "ticks": 6960,
          "time": 6.304339,
          "velocity": 0.7874015748031497
        },
        {
          "duration": 0.21376781666666744,
          "durationTicks": 236,
          "midi": 44,
          "name": "G#2",
          "ticks": 7200,
          "time": 6.52173,
          "velocity": 0.7322834645669292
        },
        {
          "duration": 0.21376781666666744,
          "durationTicks": 236,
          "midi": 51,
          "name": "D#3",
          "ticks": 7200,
          "time": 6.52173,
          "velocity": 0.7322834645669292
        },
        {
          "duration": 0.21376781666666744,
          "durationTicks": 236,
          "midi": 56,
          "name": "G#3",
          "ticks": 7200,
          "time": 6.52173,
          "velocity": 0.6692913385826772
        },
        {
          "duration": 0.43115881666666667,
          "durationTicks": 476,
          "midi": 53,
          "name": "F3",
          "ticks": 7440,
          "time": 6.739121,
          "velocity": 0.8661417322834646
        },
        {
          "duration": 0.43115881666666667,
          "durationTicks": 476,
          "midi": 60,
          "name": "C4",
          "ticks": 7440,
          "time": 6.739121,
          "velocity": 0.7952755905511811
        },
        {
          "duration": 0.43115881666666667,
          "durationTicks": 476,
          "midi": 65,
          "name": "F4",
          "ticks": 7440,
          "time": 6.739121,
          "velocity": 0.8582677165354331
        },
        {
          "duration": 0.21376781666666655,
          "durationTicks": 236,
          "midi": 53,
          "name": "F3",
          "ticks": 7920,
          "time": 7.173903,
          "velocity": 0.8582677165354331
        },
        {
          "duration": 0.21376781666666655,
          "durationTicks": 236,
          "midi": 60,
          "name": "C4",
          "ticks": 7920,
          "time": 7.173903,
          "velocity": 0.6929133858267716
        },
        {
          "duration": 0.21376781666666655,
          "durationTicks": 236,
          "midi": 65,
          "name": "F4",
          "ticks": 7920,
          "time": 7.173903,
          "velocity": 0.7874015748031497
        },
        {
          "duration": 0.21376781666666655,
          "durationTicks": 236,
          "midi": 53,
          "name": "F3",
          "ticks": 8160,
          "time": 7.391294,
          "velocity": 0.8267716535433071
        },
        {
          "duration": 0.21376781666666655,
          "durationTicks": 236,
          "midi": 60,
          "name": "C4",
          "ticks": 8160,
          "time": 7.391294,
          "velocity": 0.8818897637795275
        },
        {
          "duration": 0.21376781666666655,
          "durationTicks": 236,
          "midi": 65,
          "name": "F4",
          "ticks": 8160,
          "time": 7.391294,
          "velocity": 0.84251968503937
        },
        {
          "duration": 0.21376781666666655,
          "durationTicks": 236,
          "midi": 53,
          "name": "F3",
          "ticks": 8400,
          "time": 7.608685,
          "velocity": 0.8188976377952756
        },
        {
          "duration": 0.21376781666666655,
          "durationTicks": 236,
          "midi": 60,
          "name": "C4",
          "ticks": 8400,
          "time": 7.608685,
          "velocity": 0.8661417322834646
        },
        {
          "duration": 0.21376781666666655,
          "durationTicks": 236,
          "midi": 65,
          "name": "F4",
          "ticks": 8400,
          "time": 7.608685,
          "velocity": 0.8267716535433071
        },
        {
          "duration": 0.43115881666666667,
          "durationTicks": 476,
          "midi": 53,
          "name": "F3",
          "ticks": 8640,
          "time": 7.8260760000000005,
          "velocity": 0.8110236220472441
        },
        {
          "duration": 0.43115881666666667,
          "durationTicks": 476,
          "midi": 60,
          "name": "C4",
          "ticks": 8640,
          "time": 7.8260760000000005,
          "velocity": 0.8582677165354331
        },
        {
          "duration": 0.43115881666666667,
          "durationTicks": 476,
          "midi": 65,
          "name": "F4",
          "ticks": 8640,
          "time": 7.8260760000000005,
          "velocity": 0.7795275590551181
        },
        {
          "duration": 0.43115881666666667,
          "durationTicks": 476,
          "midi": 53,
          "name": "F3",
          "ticks": 9120,
          "time": 8.260858,
          "velocity": 0.7795275590551181
        },
        {
          "duration": 0.43115881666666667,
          "durationTicks": 476,
          "midi": 60,
          "name": "C4",
          "ticks": 9120,
          "time": 8.260858,
          "velocity": 0.7322834645669292
        },
        {
          "duration": 0.43115881666666667,
          "durationTicks": 476,
          "midi": 65,
          "name": "F4",
          "ticks": 9120,
          "time": 8.260858,
          "velocity": 0.7952755905511811
        },
        {
          "duration": 0.43115881666666667,
          "durationTicks": 476,
          "midi": 49,
          "name": "C#3",
          "ticks": 9600,
          "time": 8.695640000000001,
          "velocity": 0.8346456692913385
        },
        {
          "duration": 0.43115881666666667,
          "durationTicks": 476,
          "midi": 56,
          "name": "G#3",
          "ticks": 9600,
          "time": 8.695640000000001,
          "velocity": 0.8267716535433071
        },
        {
          "duration": 0.43115881666666667,
          "durationTicks": 476,
          "midi": 61,
          "name": "C#4",
          "ticks": 9600,
          "time": 8.695640000000001,
          "velocity": 0.8188976377952756
        },
        {
          "duration": 0.43115881666666667,
          "durationTicks": 476,
          "midi": 49,
          "name": "C#3",
          "ticks": 10080,
          "time": 9.130422,
          "velocity": 0.6535433070866141
        },
        {
          "duration": 0.43115881666666667,
          "durationTicks": 476,
          "midi": 56,
          "name": "G#3",
          "ticks": 10080,
          "time": 9.130422,
          "velocity": 0.7401574803149606
        },
        {
          "duration": 0.43115881666666667,
          "durationTicks": 476,
          "midi": 61,
          "name": "C#4",
          "ticks": 10080,
          "time": 9.130422,
          "velocity": 0.7165354330708661
        },
        {
          "duration": 0.21376781666666744,
          "durationTicks": 236,
          "midi": 49,
          "name": "C#3",
          "ticks": 10560,
          "time": 9.565204,
          "velocity": 0.6141732283464567
        },
        {
          "duration": 0.21376781666666744,
          "durationTicks": 236,
          "midi": 56,
          "name": "G#3",
          "ticks": 10560,
          "time": 9.565204,
          "velocity": 0.7165354330708661
        },
        {
          "duration": 0.21376781666666744,
          "durationTicks": 236,
          "midi": 61,
          "name": "C#4",
          "ticks": 10560,
          "time": 9.565204,
          "velocity": 0.6535433070866141
        },
        {
          "duration": 0.21376781666666567,
          "durationTicks": 236,
          "midi": 49,
          "name": "C#3",
          "ticks": 10800,
          "time": 9.782595,
          "velocity": 0.7480314960629921
        },
        {
          "duration": 0.21376781666666567,
          "durationTicks": 236,
          "midi": 56,
          "name": "G#3",
          "ticks": 10800,
          "time": 9.782595,
          "velocity": 0.8110236220472441
        },
        {
          "duration": 0.21376781666666567,
          "durationTicks": 236,
          "midi": 61,
          "name": "C#4",
          "ticks": 10800,
          "time": 9.782595,
          "velocity": 0.7480314960629921
        },
        {
          "duration": 0.21376781666666744,
          "durationTicks": 236,
          "midi": 49,
          "name": "C#3",
          "ticks": 11040,
          "time": 9.999986,
          "velocity": 0.7007874015748031
        },
        {
          "duration": 0.21376781666666744,
          "durationTicks": 236,
          "midi": 56,
          "name": "G#3",
          "ticks": 11040,
          "time": 9.999986,
          "velocity": 0.7480314960629921
        },
        {
          "duration": 0.21376781666666744,
          "durationTicks": 236,
          "midi": 61,
          "name": "C#4",
          "ticks": 11040,
          "time": 9.999986,
          "velocity": 0.7874015748031497
        },
        {
          "duration": 0.43115881666666667,
          "durationTicks": 476,
          "midi": 51,
          "name": "D#3",
          "ticks": 11280,
          "time": 10.217377,
          "velocity": 0.8031496062992126
        },
        {
          "duration": 0.43115881666666667,
          "durationTicks": 476,
          "midi": 58,
          "name": "A#3",
          "ticks": 11280,
          "time": 10.217377,
          "velocity": 0.8267716535433071
        },
        {
          "duration": 0.43115881666666667,
          "durationTicks": 476,
          "midi": 61,
          "name": "C#4",
          "ticks": 11280,
          "time": 10.217377,
          "velocity": 0.49606299212598426
        },
        {
          "duration": 0.43115881666666667,
          "durationTicks": 476,
          "midi": 63,
          "name": "D#4",
          "ticks": 11280,
          "time": 10.217377,
          "velocity": 0.8582677165354331
        },
        {
          "duration": 0.21376781666666744,
          "durationTicks": 236,
          "midi": 51,
          "name": "D#3",
          "ticks": 11760,
          "time": 10.652159,
          "velocity": 0.6929133858267716
        },
        {
          "duration": 0.21376781666666744,
          "durationTicks": 236,
          "midi": 58,
          "name": "A#3",
          "ticks": 11760,
          "time": 10.652159,
          "velocity": 0.6614173228346457
        },
        {
          "duration": 0.21376781666666744,
          "durationTicks": 236,
          "midi": 63,
          "name": "D#4",
          "ticks": 11760,
          "time": 10.652159,
          "velocity": 0.6771653543307087
        },
        {
          "duration": 0.21376781666666744,
          "durationTicks": 236,
          "midi": 51,
          "name": "D#3",
          "ticks": 12000,
          "time": 10.86955,
          "velocity": 0.7165354330708661
        },
        {
          "duration": 0.21376781666666744,
          "durationTicks": 236,
          "midi": 58,
          "name": "A#3",
          "ticks": 12000,
          "time": 10.86955,
          "velocity": 0.7165354330708661
        },
        {
          "duration": 0.21376781666666744,
          "durationTicks": 236,
          "midi": 63,
          "name": "D#4",
          "ticks": 12000,
          "time": 10.86955,
          "velocity": 0.7322834645669292
        },
        {
          "duration": 0.21376781666666744,
          "durationTicks": 236,
          "midi": 51,
          "name": "D#3",
          "ticks": 12240,
          "time": 11.086941,
          "velocity": 0.7480314960629921
        },
        {
          "duration": 0.21376781666666744,
          "durationTicks": 236,
          "midi": 58,
          "name": "A#3",
          "ticks": 12240,
          "time": 11.086941,
          "velocity": 0.7165354330708661
        },
        {
          "duration": 0.21376781666666744,
          "durationTicks": 236,
          "midi": 63,
          "name": "D#4",
          "ticks": 12240,
          "time": 11.086941,
          "velocity": 0.7401574803149606
        },
        {
          "duration": 0.43115881666666667,
          "durationTicks": 476,
          "midi": 51,
          "name": "D#3",
          "ticks": 12480,
          "time": 11.304332,
          "velocity": 0.6692913385826772
        },
        {
          "duration": 0.43115881666666667,
          "durationTicks": 476,
          "midi": 58,
          "name": "A#3",
          "ticks": 12480,
          "time": 11.304332,
          "velocity": 0.7007874015748031
        },
        {
          "duration": 0.43115881666666667,
          "durationTicks": 476,
          "midi": 63,
          "name": "D#4",
          "ticks": 12480,
          "time": 11.304332,
          "velocity": 0.7322834645669292
        },
        {
          "duration": 0.43115881666666667,
          "durationTicks": 476,
          "midi": 51,
          "name": "D#3",
          "ticks": 12960,
          "time": 11.739114,
          "velocity": 0.7795275590551181
        },
        {
          "duration": 0.43115881666666667,
          "durationTicks": 476,
          "midi": 58,
          "name": "A#3",
          "ticks": 12960,
          "time": 11.739114,
          "velocity": 0.84251968503937
        },
        {
          "duration": 0.43115881666666667,
          "durationTicks": 476,
          "midi": 63,
          "name": "D#4",
          "ticks": 12960,
          "time": 11.739114,
          "velocity": 0.8267716535433071
        },
        {
          "duration": 0.43115881666666844,
          "durationTicks": 476,
          "midi": 44,
          "name": "G#2",
          "ticks": 13440,
          "time": 12.173896,
          "velocity": 0.7637795275590551
        },
        {
          "duration": 0.43115881666666844,
          "durationTicks": 476,
          "midi": 51,
          "name": "D#3",
          "ticks": 13440,
          "time": 12.173896,
          "velocity": 0.7480314960629921
        },
        {
          "duration": 0.43115881666666844,
          "durationTicks": 476,
          "midi": 56,
          "name": "G#3",
          "ticks": 13440,
          "time": 12.173896,
          "velocity": 0.7795275590551181
        },
        {
          "duration": 0.43115881666666667,
          "durationTicks": 476,
          "midi": 44,
          "name": "G#2",
          "ticks": 13920,
          "time": 12.608678,
          "velocity": 0.7244094488188977
        },
        {
          "duration": 0.43115881666666667,
          "durationTicks": 476,
          "midi": 51,
          "name": "D#3",
          "ticks": 13920,
          "time": 12.608678,
          "velocity": 0.84251968503937
        },
        {
          "duration": 0.43115881666666667,
          "durationTicks": 476,
          "midi": 56,
          "name": "G#3",
          "ticks": 13920,
          "time": 12.608678,
          "velocity": 0.6220472440944882
        },
        {
          "duration": 0.21376781666666744,
          "durationTicks": 236,
          "midi": 44,
          "name": "G#2",
          "ticks": 14400,
          "time": 13.04346,
          "velocity": 0.6614173228346457
        },
        {
          "duration": 0.21376781666666744,
          "durationTicks": 236,
          "midi": 51,
          "name": "D#3",
          "ticks": 14400,
          "time": 13.04346,
          "velocity": 0.7007874015748031
        },
        {
          "duration": 0.21376781666666744,
          "durationTicks": 236,
          "midi": 56,
          "name": "G#3",
          "ticks": 14400,
          "time": 13.04346,
          "velocity": 0.5984251968503937
        },
        {
          "duration": 0.21376781666666567,
          "durationTicks": 236,
          "midi": 44,
          "name": "G#2",
          "ticks": 14640,
          "time": 13.260851,
          "velocity": 0.7480314960629921
        },
        {
          "duration": 0.21376781666666567,
          "durationTicks": 236,
          "midi": 51,
          "name": "D#3",
          "ticks": 14640,
          "time": 13.260851,
          "velocity": 0.6614173228346457
        },
        {
          "duration": 0.21376781666666567,
          "durationTicks": 236,
          "midi": 56,
          "name": "G#3",
          "ticks": 14640,
          "time": 13.260851,
          "velocity": 0.7874015748031497
        },
        {
          "duration": 0.21376781666666744,
          "durationTicks": 236,
          "midi": 44,
          "name": "G#2",
          "ticks": 14880,
          "time": 13.478242,
          "velocity": 0.7322834645669292
        },
        {
          "duration": 0.21376781666666744,
          "durationTicks": 236,
          "midi": 51,
          "name": "D#3",
          "ticks": 14880,
          "time": 13.478242,
          "velocity": 0.7322834645669292
        },
        {
          "duration": 0.21376781666666744,
          "durationTicks": 236,
          "midi": 56,
          "name": "G#3",
          "ticks": 14880,
          "time": 13.478242,
          "velocity": 0.6692913385826772
        },
        {
          "duration": 0.43115881666666667,
          "durationTicks": 476,
          "midi": 53,
          "name": "F3",
          "ticks": 15120,
          "time": 13.695633,
          "velocity": 0.8661417322834646
        },
        {
          "duration": 0.43115881666666667,
          "durationTicks": 476,
          "midi": 60,
          "name": "C4",
          "ticks": 15120,
          "time": 13.695633,
          "velocity": 0.7952755905511811
        },
        {
          "duration": 0.43115881666666667,
          "durationTicks": 476,
          "midi": 65,
          "name": "F4",
          "ticks": 15120,
          "time": 13.695633,
          "velocity": 0.8582677165354331
        },
        {
          "duration": 0.21376781666666744,
          "durationTicks": 236,
          "midi": 53,
          "name": "F3",
          "ticks": 15600,
          "time": 14.130415,
          "velocity": 0.8582677165354331
        },
        {
          "duration": 0.21376781666666744,
          "durationTicks": 236,
          "midi": 60,
          "name": "C4",
          "ticks": 15600,
          "time": 14.130415,
          "velocity": 0.6929133858267716
        },
        {
          "duration": 0.21376781666666744,
          "durationTicks": 236,
          "midi": 65,
          "name": "F4",
          "ticks": 15600,
          "time": 14.130415,
          "velocity": 0.7874015748031497
        },
        {
          "duration": 0.21376781666666744,
          "durationTicks": 236,
          "midi": 53,
          "name": "F3",
          "ticks": 15840,
          "time": 14.347806,
          "velocity": 0.8267716535433071
        },
        {
          "duration": 0.21376781666666744,
          "durationTicks": 236,
          "midi": 60,
          "name": "C4",
          "ticks": 15840,
          "time": 14.347806,
          "velocity": 0.8818897637795275
        },
        {
          "duration": 0.21376781666666744,
          "durationTicks": 236,
          "midi": 65,
          "name": "F4",
          "ticks": 15840,
          "time": 14.347806,
          "velocity": 0.84251968503937
        },
        {
          "duration": 0.21376781666666744,
          "durationTicks": 236,
          "midi": 53,
          "name": "F3",
          "ticks": 16080,
          "time": 14.565197,
          "velocity": 0.8188976377952756
        },
        {
          "duration": 0.21376781666666744,
          "durationTicks": 236,
          "midi": 60,
          "name": "C4",
          "ticks": 16080,
          "time": 14.565197,
          "velocity": 0.8661417322834646
        },
        {
          "duration": 0.21376781666666744,
          "durationTicks": 236,
          "midi": 65,
          "name": "F4",
          "ticks": 16080,
          "time": 14.565197,
          "velocity": 0.8267716535433071
        },
        {
          "duration": 0.43115881666666667,
          "durationTicks": 476,
          "midi": 53,
          "name": "F3",
          "ticks": 16320,
          "time": 14.782588,
          "velocity": 0.8110236220472441
        },
        {
          "duration": 0.43115881666666667,
          "durationTicks": 476,
          "midi": 60,
          "name": "C4",
          "ticks": 16320,
          "time": 14.782588,
          "velocity": 0.8582677165354331
        },
        {
          "duration": 0.43115881666666667,
          "durationTicks": 476,
          "midi": 65,
          "name": "F4",
          "ticks": 16320,
          "time": 14.782588,
          "velocity": 0.7795275590551181
        },
        {
          "duration": 0.43115881666666667,
          "durationTicks": 476,
          "midi": 53,
          "name": "F3",
          "ticks": 16800,
          "time": 15.21737,
          "velocity": 0.7795275590551181
        },
        {
          "duration": 0.43115881666666667,
          "durationTicks": 476,
          "midi": 60,
          "name": "C4",
          "ticks": 16800,
          "time": 15.21737,
          "velocity": 0.7322834645669292
        },
        {
          "duration": 0.43115881666666667,
          "durationTicks": 476,
          "midi": 65,
          "name": "F4",
          "ticks": 16800,
          "time": 15.21737,
          "velocity": 0.7952755905511811
        },
        {
          "duration": 0.43115881666666667,
          "durationTicks": 476,
          "midi": 49,
          "name": "C#3",
          "ticks": 17280,
          "time": 15.652152000000001,
          "velocity": 0.8346456692913385
        },
        {
          "duration": 0.43115881666666667,
          "durationTicks": 476,
          "midi": 56,
          "name": "G#3",
          "ticks": 17280,
          "time": 15.652152000000001,
          "velocity": 0.8267716535433071
        },
        {
          "duration": 0.43115881666666667,
          "durationTicks": 476,
          "midi": 61,
          "name": "C#4",
          "ticks": 17280,
          "time": 15.652152000000001,
          "velocity": 0.8188976377952756
        },
        {
          "duration": 0.43115881666666667,
          "durationTicks": 476,
          "midi": 49,
          "name": "C#3",
          "ticks": 17760,
          "time": 16.086934,
          "velocity": 0.6535433070866141
        },
        {
          "duration": 0.43115881666666667,
          "durationTicks": 476,
          "midi": 56,
          "name": "G#3",
          "ticks": 17760,
          "time": 16.086934,
          "velocity": 0.7401574803149606
        },
        {
          "duration": 0.43115881666666667,
          "durationTicks": 476,
          "midi": 61,
          "name": "C#4",
          "ticks": 17760,
          "time": 16.086934,
          "velocity": 0.7165354330708661
        },
        {
          "duration": 0.2137678166666639,
          "durationTicks": 236,
          "midi": 49,
          "name": "C#3",
          "ticks": 18240,
          "time": 16.521716,
          "velocity": 0.6141732283464567
        },
        {
          "duration": 0.2137678166666639,
          "durationTicks": 236,
          "midi": 56,
          "name": "G#3",
          "ticks": 18240,
          "time": 16.521716,
          "velocity": 0.7165354330708661
        },
        {
          "duration": 0.2137678166666639,
          "durationTicks": 236,
          "midi": 61,
          "name": "C#4",
          "ticks": 18240,
          "time": 16.521716,
          "velocity": 0.6535433070866141
        },
        {
          "duration": 0.21376781666666744,
          "durationTicks": 236,
          "midi": 49,
          "name": "C#3",
          "ticks": 18480,
          "time": 16.739107,
          "velocity": 0.7480314960629921
        },
        {
          "duration": 0.21376781666666744,
          "durationTicks": 236,
          "midi": 56,
          "name": "G#3",
          "ticks": 18480,
          "time": 16.739107,
          "velocity": 0.8110236220472441
        },
        {
          "duration": 0.21376781666666744,
          "durationTicks": 236,
          "midi": 61,
          "name": "C#4",
          "ticks": 18480,
          "time": 16.739107,
          "velocity": 0.7480314960629921
        },
        {
          "duration": 0.21376781666666744,
          "durationTicks": 236,
          "midi": 49,
          "name": "C#3",
          "ticks": 18720,
          "time": 16.956498,
          "velocity": 0.7007874015748031
        },
        {
          "duration": 0.21376781666666744,
          "durationTicks": 236,
          "midi": 56,
          "name": "G#3",
          "ticks": 18720,
          "time": 16.956498,
          "velocity": 0.7480314960629921
        },
        {
          "duration": 0.21376781666666744,
          "durationTicks": 236,
          "midi": 61,
          "name": "C#4",
          "ticks": 18720,
          "time": 16.956498,
          "velocity": 0.7874015748031497
        },
        {
          "duration": 0.43115881666666667,
          "durationTicks": 476,
          "midi": 51,
          "name": "D#3",
          "ticks": 18960,
          "time": 17.173889,
          "velocity": 0.8031496062992126
        },
        {
          "duration": 0.43115881666666667,
          "durationTicks": 476,
          "midi": 58,
          "name": "A#3",
          "ticks": 18960,
          "time": 17.173889,
          "velocity": 0.8267716535433071
        },
        {
          "duration": 0.43115881666666667,
          "durationTicks": 476,
          "midi": 61,
          "name": "C#4",
          "ticks": 18960,
          "time": 17.173889,
          "velocity": 0.49606299212598426
        },
        {
          "duration": 0.43115881666666667,
          "durationTicks": 476,
          "midi": 63,
          "name": "D#4",
          "ticks": 18960,
          "time": 17.173889,
          "velocity": 0.8582677165354331
        },
        {
          "duration": 0.21376781666666744,
          "durationTicks": 236,
          "midi": 51,
          "name": "D#3",
          "ticks": 19440,
          "time": 17.608671,
          "velocity": 0.6929133858267716
        },
        {
          "duration": 0.21376781666666744,
          "durationTicks": 236,
          "midi": 58,
          "name": "A#3",
          "ticks": 19440,
          "time": 17.608671,
          "velocity": 0.6614173228346457
        },
        {
          "duration": 0.21376781666666744,
          "durationTicks": 236,
          "midi": 63,
          "name": "D#4",
          "ticks": 19440,
          "time": 17.608671,
          "velocity": 0.6771653543307087
        },
        {
          "duration": 0.21376781666666744,
          "durationTicks": 236,
          "midi": 51,
          "name": "D#3",
          "ticks": 19680,
          "time": 17.826062,
          "velocity": 0.7165354330708661
        },
        {
          "duration": 0.21376781666666744,
          "durationTicks": 236,
          "midi": 58,
          "name": "A#3",
          "ticks": 19680,
          "time": 17.826062,
          "velocity": 0.7165354330708661
        },
        {
          "duration": 0.21376781666666744,
          "durationTicks": 236,
          "midi": 63,
          "name": "D#4",
          "ticks": 19680,
          "time": 17.826062,
          "velocity": 0.7322834645669292
        },
        {
          "duration": 0.21376781666666744,
          "durationTicks": 236,
          "midi": 51,
          "name": "D#3",
          "ticks": 19920,
          "time": 18.043453,
          "velocity": 0.7480314960629921
        },
        {
          "duration": 0.21376781666666744,
          "durationTicks": 236,
          "midi": 58,
          "name": "A#3",
          "ticks": 19920,
          "time": 18.043453,
          "velocity": 0.7165354330708661
        },
        {
          "duration": 0.21376781666666744,
          "durationTicks": 236,
          "midi": 63,
          "name": "D#4",
          "ticks": 19920,
          "time": 18.043453,
          "velocity": 0.7401574803149606
        },
        {
          "duration": 0.43115881666666667,
          "durationTicks": 476,
          "midi": 51,
          "name": "D#3",
          "ticks": 20160,
          "time": 18.260844,
          "velocity": 0.6692913385826772
        },
        {
          "duration": 0.43115881666666667,
          "durationTicks": 476,
          "midi": 58,
          "name": "A#3",
          "ticks": 20160,
          "time": 18.260844,
          "velocity": 0.7007874015748031
        },
        {
          "duration": 0.43115881666666667,
          "durationTicks": 476,
          "midi": 63,
          "name": "D#4",
          "ticks": 20160,
          "time": 18.260844,
          "velocity": 0.7322834645669292
        },
        {
          "duration": 0.43115881666666667,
          "durationTicks": 476,
          "midi": 51,
          "name": "D#3",
          "ticks": 20640,
          "time": 18.695626,
          "velocity": 0.7795275590551181
        },
        {
          "duration": 0.43115881666666667,
          "durationTicks": 476,
          "midi": 58,
          "name": "A#3",
          "ticks": 20640,
          "time": 18.695626,
          "velocity": 0.84251968503937
        },
        {
          "duration": 0.43115881666666667,
          "durationTicks": 476,
          "midi": 63,
          "name": "D#4",
          "ticks": 20640,
          "time": 18.695626,
          "velocity": 0.8267716535433071
        },
        {
          "duration": 0.43115881666666667,
          "durationTicks": 476,
          "midi": 44,
          "name": "G#2",
          "ticks": 21120,
          "time": 19.130408,
          "velocity": 0.7637795275590551
        },
        {
          "duration": 0.43115881666666667,
          "durationTicks": 476,
          "midi": 51,
          "name": "D#3",
          "ticks": 21120,
          "time": 19.130408,
          "velocity": 0.7480314960629921
        },
        {
          "duration": 0.43115881666666667,
          "durationTicks": 476,
          "midi": 56,
          "name": "G#3",
          "ticks": 21120,
          "time": 19.130408,
          "velocity": 0.7795275590551181
        },
        {
          "duration": 0.43115881666666667,
          "durationTicks": 476,
          "midi": 44,
          "name": "G#2",
          "ticks": 21600,
          "time": 19.56519,
          "velocity": 0.7244094488188977
        },
        {
          "duration": 0.43115881666666667,
          "durationTicks": 476,
          "midi": 51,
          "name": "D#3",
          "ticks": 21600,
          "time": 19.56519,
          "velocity": 0.84251968503937
        },
        {
          "duration": 0.43115881666666667,
          "durationTicks": 476,
          "midi": 56,
          "name": "G#3",
          "ticks": 21600,
          "time": 19.56519,
          "velocity": 0.6220472440944882
        },
        {
          "duration": 0.21376781666666744,
          "durationTicks": 236,
          "midi": 44,
          "name": "G#2",
          "ticks": 22080,
          "time": 19.999972,
          "velocity": 0.6614173228346457
        },
        {
          "duration": 0.21376781666666744,
          "durationTicks": 236,
          "midi": 51,
          "name": "D#3",
          "ticks": 22080,
          "time": 19.999972,
          "velocity": 0.7007874015748031
        },
        {
          "duration": 0.21376781666666744,
          "durationTicks": 236,
          "midi": 56,
          "name": "G#3",
          "ticks": 22080,
          "time": 19.999972,
          "velocity": 0.5984251968503937
        },
        {
          "duration": 0.21376781666666744,
          "durationTicks": 236,
          "midi": 44,
          "name": "G#2",
          "ticks": 22320,
          "time": 20.217363,
          "velocity": 0.7480314960629921
        },
        {
          "duration": 0.21376781666666744,
          "durationTicks": 236,
          "midi": 51,
          "name": "D#3",
          "ticks": 22320,
          "time": 20.217363,
          "velocity": 0.6614173228346457
        },
        {
          "duration": 0.21376781666666744,
          "durationTicks": 236,
          "midi": 56,
          "name": "G#3",
          "ticks": 22320,
          "time": 20.217363,
          "velocity": 0.7874015748031497
        },
        {
          "duration": 0.2137678166666639,
          "durationTicks": 236,
          "midi": 44,
          "name": "G#2",
          "ticks": 22560,
          "time": 20.434754,
          "velocity": 0.7322834645669292
        },
        {
          "duration": 0.2137678166666639,
          "durationTicks": 236,
          "midi": 51,
          "name": "D#3",
          "ticks": 22560,
          "time": 20.434754,
          "velocity": 0.7322834645669292
        },
        {
          "duration": 0.2137678166666639,
          "durationTicks": 236,
          "midi": 56,
          "name": "G#3",
          "ticks": 22560,
          "time": 20.434754,
          "velocity": 0.6692913385826772
        },
        {
          "duration": 0.43115881666666667,
          "durationTicks": 476,
          "midi": 53,
          "name": "F3",
          "ticks": 22800,
          "time": 20.652145,
          "velocity": 0.8661417322834646
        },
        {
          "duration": 0.43115881666666667,
          "durationTicks": 476,
          "midi": 60,
          "name": "C4",
          "ticks": 22800,
          "time": 20.652145,
          "velocity": 0.7952755905511811
        },
        {
          "duration": 0.43115881666666667,
          "durationTicks": 476,
          "midi": 65,
          "name": "F4",
          "ticks": 22800,
          "time": 20.652145,
          "velocity": 0.8582677165354331
        },
        {
          "duration": 0.21376781666666744,
          "durationTicks": 236,
          "midi": 53,
          "name": "F3",
          "ticks": 23280,
          "time": 21.086927,
          "velocity": 0.8582677165354331
        },
        {
          "duration": 0.21376781666666744,
          "durationTicks": 236,
          "midi": 60,
          "name": "C4",
          "ticks": 23280,
          "time": 21.086927,
          "velocity": 0.6929133858267716
        },
        {
          "duration": 0.21376781666666744,
          "durationTicks": 236,
          "midi": 65,
          "name": "F4",
          "ticks": 23280,
          "time": 21.086927,
          "velocity": 0.7874015748031497
        },
        {
          "duration": 0.21376781666666744,
          "durationTicks": 236,
          "midi": 53,
          "name": "F3",
          "ticks": 23520,
          "time": 21.304318,
          "velocity": 0.8267716535433071
        },
        {
          "duration": 0.21376781666666744,
          "durationTicks": 236,
          "midi": 60,
          "name": "C4",
          "ticks": 23520,
          "time": 21.304318,
          "velocity": 0.8818897637795275
        },
        {
          "duration": 0.21376781666666744,
          "durationTicks": 236,
          "midi": 65,
          "name": "F4",
          "ticks": 23520,
          "time": 21.304318,
          "velocity": 0.84251968503937
        },
        {
          "duration": 0.2137678166666639,
          "durationTicks": 236,
          "midi": 53,
          "name": "F3",
          "ticks": 23760,
          "time": 21.521709,
          "velocity": 0.8188976377952756
        },
        {
          "duration": 0.2137678166666639,
          "durationTicks": 236,
          "midi": 60,
          "name": "C4",
          "ticks": 23760,
          "time": 21.521709,
          "velocity": 0.8661417322834646
        },
        {
          "duration": 0.2137678166666639,
          "durationTicks": 236,
          "midi": 65,
          "name": "F4",
          "ticks": 23760,
          "time": 21.521709,
          "velocity": 0.8267716535433071
        },
        {
          "duration": 0.43115881666666667,
          "durationTicks": 476,
          "midi": 53,
          "name": "F3",
          "ticks": 24000,
          "time": 21.7391,
          "velocity": 0.8110236220472441
        },
        {
          "duration": 0.43115881666666667,
          "durationTicks": 476,
          "midi": 60,
          "name": "C4",
          "ticks": 24000,
          "time": 21.7391,
          "velocity": 0.8582677165354331
        },
        {
          "duration": 0.43115881666666667,
          "durationTicks": 476,
          "midi": 65,
          "name": "F4",
          "ticks": 24000,
          "time": 21.7391,
          "velocity": 0.7795275590551181
        },
        {
          "duration": 0.43115881666666667,
          "durationTicks": 476,
          "midi": 53,
          "name": "F3",
          "ticks": 24480,
          "time": 22.173882,
          "velocity": 0.7795275590551181
        },
        {
          "duration": 0.43115881666666667,
          "durationTicks": 476,
          "midi": 60,
          "name": "C4",
          "ticks": 24480,
          "time": 22.173882,
          "velocity": 0.7322834645669292
        },
        {
          "duration": 0.43115881666666667,
          "durationTicks": 476,
          "midi": 65,
          "name": "F4",
          "ticks": 24480,
          "time": 22.173882,
          "velocity": 0.7952755905511811
        },
        {
          "duration": 0.43115881666666667,
          "durationTicks": 476,
          "midi": 49,
          "name": "C#3",
          "ticks": 24960,
          "time": 22.608664,
          "velocity": 0.8346456692913385
        },
        {
          "duration": 0.43115881666666667,
          "durationTicks": 476,
          "midi": 56,
          "name": "G#3",
          "ticks": 24960,
          "time": 22.608664,
          "velocity": 0.8267716535433071
        },
        {
          "duration": 0.43115881666666667,
          "durationTicks": 476,
          "midi": 61,
          "name": "C#4",
          "ticks": 24960,
          "time": 22.608664,
          "velocity": 0.8188976377952756
        },
        {
          "duration": 0.43115881666666667,
          "durationTicks": 476,
          "midi": 49,
          "name": "C#3",
          "ticks": 25440,
          "time": 23.043446,
          "velocity": 0.6535433070866141
        },
        {
          "duration": 0.43115881666666667,
          "durationTicks": 476,
          "midi": 56,
          "name": "G#3",
          "ticks": 25440,
          "time": 23.043446,
          "velocity": 0.7401574803149606
        },
        {
          "duration": 0.43115881666666667,
          "durationTicks": 476,
          "midi": 61,
          "name": "C#4",
          "ticks": 25440,
          "time": 23.043446,
          "velocity": 0.7165354330708661
        },
        {
          "duration": 0.2137678166666639,
          "durationTicks": 236,
          "midi": 49,
          "name": "C#3",
          "ticks": 25920,
          "time": 23.478228,
          "velocity": 0.6141732283464567
        },
        {
          "duration": 0.2137678166666639,
          "durationTicks": 236,
          "midi": 56,
          "name": "G#3",
          "ticks": 25920,
          "time": 23.478228,
          "velocity": 0.7165354330708661
        },
        {
          "duration": 0.2137678166666639,
          "durationTicks": 236,
          "midi": 61,
          "name": "C#4",
          "ticks": 25920,
          "time": 23.478228,
          "velocity": 0.6535433070866141
        },
        {
          "duration": 0.21376781666666744,
          "durationTicks": 236,
          "midi": 49,
          "name": "C#3",
          "ticks": 26160,
          "time": 23.695619,
          "velocity": 0.7480314960629921
        },
        {
          "duration": 0.21376781666666744,
          "durationTicks": 236,
          "midi": 56,
          "name": "G#3",
          "ticks": 26160,
          "time": 23.695619,
          "velocity": 0.8110236220472441
        },
        {
          "duration": 0.21376781666666744,
          "durationTicks": 236,
          "midi": 61,
          "name": "C#4",
          "ticks": 26160,
          "time": 23.695619,
          "velocity": 0.7480314960629921
        },
        {
          "duration": 0.21376781666666744,
          "durationTicks": 236,
          "midi": 49,
          "name": "C#3",
          "ticks": 26400,
          "time": 23.91301,
          "velocity": 0.7007874015748031
        },
        {
          "duration": 0.21376781666666744,
          "durationTicks": 236,
          "midi": 56,
          "name": "G#3",
          "ticks": 26400,
          "time": 23.91301,
          "velocity": 0.7480314960629921
        },
        {
          "duration": 0.21376781666666744,
          "durationTicks": 236,
          "midi": 61,
          "name": "C#4",
          "ticks": 26400,
          "time": 23.91301,
          "velocity": 0.7874015748031497
        },
        {
          "duration": 0.43115881666666667,
          "durationTicks": 476,
          "midi": 51,
          "name": "D#3",
          "ticks": 26640,
          "time": 24.130401,
          "velocity": 0.8031496062992126
        },
        {
          "duration": 0.43115881666666667,
          "durationTicks": 476,
          "midi": 58,
          "name": "A#3",
          "ticks": 26640,
          "time": 24.130401,
          "velocity": 0.8267716535433071
        },
        {
          "duration": 0.43115881666666667,
          "durationTicks": 476,
          "midi": 61,
          "name": "C#4",
          "ticks": 26640,
          "time": 24.130401,
          "velocity": 0.49606299212598426
        },
        {
          "duration": 0.43115881666666667,
          "durationTicks": 476,
          "midi": 63,
          "name": "D#4",
          "ticks": 26640,
          "time": 24.130401,
          "velocity": 0.8582677165354331
        },
        {
          "duration": 0.21376781666666744,
          "durationTicks": 236,
          "midi": 51,
          "name": "D#3",
          "ticks": 27120,
          "time": 24.565183,
          "velocity": 0.6929133858267716
        },
        {
          "duration": 0.21376781666666744,
          "durationTicks": 236,
          "midi": 58,
          "name": "A#3",
          "ticks": 27120,
          "time": 24.565183,
          "velocity": 0.6614173228346457
        },
        {
          "duration": 0.21376781666666744,
          "durationTicks": 236,
          "midi": 63,
          "name": "D#4",
          "ticks": 27120,
          "time": 24.565183,
          "velocity": 0.6771653543307087
        },
        {
          "duration": 0.21376781666666744,
          "durationTicks": 236,
          "midi": 51,
          "name": "D#3",
          "ticks": 27360,
          "time": 24.782574,
          "velocity": 0.7165354330708661
        },
        {
          "duration": 0.21376781666666744,
          "durationTicks": 236,
          "midi": 58,
          "name": "A#3",
          "ticks": 27360,
          "time": 24.782574,
          "velocity": 0.7165354330708661
        },
        {
          "duration": 0.21376781666666744,
          "durationTicks": 236,
          "midi": 63,
          "name": "D#4",
          "ticks": 27360,
          "time": 24.782574,
          "velocity": 0.7322834645669292
        },
        {
          "duration": 0.21376781666666744,
          "durationTicks": 236,
          "midi": 51,
          "name": "D#3",
          "ticks": 27600,
          "time": 24.999965,
          "velocity": 0.7480314960629921
        },
        {
          "duration": 0.21376781666666744,
          "durationTicks": 236,
          "midi": 58,
          "name": "A#3",
          "ticks": 27600,
          "time": 24.999965,
          "velocity": 0.7165354330708661
        },
        {
          "duration": 0.21376781666666744,
          "durationTicks": 236,
          "midi": 63,
          "name": "D#4",
          "ticks": 27600,
          "time": 24.999965,
          "velocity": 0.7401574803149606
        },
        {
          "duration": 0.43115881666666667,
          "durationTicks": 476,
          "midi": 51,
          "name": "D#3",
          "ticks": 27840,
          "time": 25.217356,
          "velocity": 0.6692913385826772
        },
        {
          "duration": 0.43115881666666667,
          "durationTicks": 476,
          "midi": 58,
          "name": "A#3",
          "ticks": 27840,
          "time": 25.217356,
          "velocity": 0.7007874015748031
        },
        {
          "duration": 0.43115881666666667,
          "durationTicks": 476,
          "midi": 63,
          "name": "D#4",
          "ticks": 27840,
          "time": 25.217356,
          "velocity": 0.7322834645669292
        },
        {
          "duration": 0.43115881666666667,
          "durationTicks": 476,
          "midi": 51,
          "name": "D#3",
          "ticks": 28320,
          "time": 25.652138,
          "velocity": 0.7795275590551181
        },
        {
          "duration": 0.43115881666666667,
          "durationTicks": 476,
          "midi": 58,
          "name": "A#3",
          "ticks": 28320,
          "time": 25.652138,
          "velocity": 0.84251968503937
        },
        {
          "duration": 0.43115881666666667,
          "durationTicks": 476,
          "midi": 63,
          "name": "D#4",
          "ticks": 28320,
          "time": 25.652138,
          "velocity": 0.8267716535433071
        },
        {
          "duration": 0.43115881666666667,
          "durationTicks": 476,
          "midi": 44,
          "name": "G#2",
          "ticks": 28800,
          "time": 26.08692,
          "velocity": 0.7637795275590551
        },
        {
          "duration": 0.43115881666666667,
          "durationTicks": 476,
          "midi": 51,
          "name": "D#3",
          "ticks": 28800,
          "time": 26.08692,
          "velocity": 0.7480314960629921
        },
        {
          "duration": 0.43115881666666667,
          "durationTicks": 476,
          "midi": 56,
          "name": "G#3",
          "ticks": 28800,
          "time": 26.08692,
          "velocity": 0.7795275590551181
        },
        {
          "duration": 0.43115881666666667,
          "durationTicks": 476,
          "midi": 44,
          "name": "G#2",
          "ticks": 29280,
          "time": 26.521702,
          "velocity": 0.7244094488188977
        },
        {
          "duration": 0.43115881666666667,
          "durationTicks": 476,
          "midi": 51,
          "name": "D#3",
          "ticks": 29280,
          "time": 26.521702,
          "velocity": 0.84251968503937
        },
        {
          "duration": 0.43115881666666667,
          "durationTicks": 476,
          "midi": 56,
          "name": "G#3",
          "ticks": 29280,
          "time": 26.521702,
          "velocity": 0.6220472440944882
        },
        {
          "duration": 0.21376781666666744,
          "durationTicks": 236,
          "midi": 44,
          "name": "G#2",
          "ticks": 29760,
          "time": 26.956484,
          "velocity": 0.6614173228346457
        },
        {
          "duration": 0.21376781666666744,
          "durationTicks": 236,
          "midi": 51,
          "name": "D#3",
          "ticks": 29760,
          "time": 26.956484,
          "velocity": 0.7007874015748031
        },
        {
          "duration": 0.21376781666666744,
          "durationTicks": 236,
          "midi": 56,
          "name": "G#3",
          "ticks": 29760,
          "time": 26.956484,
          "velocity": 0.5984251968503937
        },
        {
          "duration": 0.21376781666666744,
          "durationTicks": 236,
          "midi": 44,
          "name": "G#2",
          "ticks": 30000,
          "time": 27.173875,
          "velocity": 0.7480314960629921
        },
        {
          "duration": 0.21376781666666744,
          "durationTicks": 236,
          "midi": 51,
          "name": "D#3",
          "ticks": 30000,
          "time": 27.173875,
          "velocity": 0.6614173228346457
        },
        {
          "duration": 0.21376781666666744,
          "durationTicks": 236,
          "midi": 56,
          "name": "G#3",
          "ticks": 30000,
          "time": 27.173875,
          "velocity": 0.7874015748031497
        },
        {
          "duration": 0.2137678166666639,
          "durationTicks": 236,
          "midi": 44,
          "name": "G#2",
          "ticks": 30240,
          "time": 27.391266,
          "velocity": 0.7322834645669292
        },
        {
          "duration": 0.2137678166666639,
          "durationTicks": 236,
          "midi": 51,
          "name": "D#3",
          "ticks": 30240,
          "time": 27.391266,
          "velocity": 0.7322834645669292
        },
        {
          "duration": 0.2137678166666639,
          "durationTicks": 236,
          "midi": 56,
          "name": "G#3",
          "ticks": 30240,
          "time": 27.391266,
          "velocity": 0.6692913385826772
        },
        {
          "duration": 0.4311588166666631,
          "durationTicks": 476,
          "midi": 53,
          "name": "F3",
          "ticks": 30480,
          "time": 27.608657,
          "velocity": 0.8661417322834646
        },
        {
          "duration": 0.4311588166666631,
          "durationTicks": 476,
          "midi": 60,
          "name": "C4",
          "ticks": 30480,
          "time": 27.608657,
          "velocity": 0.7952755905511811
        },
        {
          "duration": 0.4311588166666631,
          "durationTicks": 476,
          "midi": 65,
          "name": "F4",
          "ticks": 30480,
          "time": 27.608657,
          "velocity": 0.8582677165354331
        },
        {
          "duration": 0.2137678166666639,
          "durationTicks": 236,
          "midi": 53,
          "name": "F3",
          "ticks": 30960,
          "time": 28.043439,
          "velocity": 0.8582677165354331
        },
        {
          "duration": 0.2137678166666639,
          "durationTicks": 236,
          "midi": 60,
          "name": "C4",
          "ticks": 30960,
          "time": 28.043439,
          "velocity": 0.6929133858267716
        },
        {
          "duration": 0.2137678166666639,
          "durationTicks": 236,
          "midi": 65,
          "name": "F4",
          "ticks": 30960,
          "time": 28.043439,
          "velocity": 0.7874015748031497
        },
        {
          "duration": 0.2137678166666639,
          "durationTicks": 236,
          "midi": 53,
          "name": "F3",
          "ticks": 31200,
          "time": 28.26083,
          "velocity": 0.8267716535433071
        },
        {
          "duration": 0.2137678166666639,
          "durationTicks": 236,
          "midi": 60,
          "name": "C4",
          "ticks": 31200,
          "time": 28.26083,
          "velocity": 0.8818897637795275
        },
        {
          "duration": 0.2137678166666639,
          "durationTicks": 236,
          "midi": 65,
          "name": "F4",
          "ticks": 31200,
          "time": 28.26083,
          "velocity": 0.84251968503937
        },
        {
          "duration": 0.2137678166666639,
          "durationTicks": 236,
          "midi": 53,
          "name": "F3",
          "ticks": 31440,
          "time": 28.478221,
          "velocity": 0.8188976377952756
        },
        {
          "duration": 0.2137678166666639,
          "durationTicks": 236,
          "midi": 60,
          "name": "C4",
          "ticks": 31440,
          "time": 28.478221,
          "velocity": 0.8661417322834646
        },
        {
          "duration": 0.2137678166666639,
          "durationTicks": 236,
          "midi": 65,
          "name": "F4",
          "ticks": 31440,
          "time": 28.478221,
          "velocity": 0.8267716535433071
        },
        {
          "duration": 0.4311588166666631,
          "durationTicks": 476,
          "midi": 53,
          "name": "F3",
          "ticks": 31680,
          "time": 28.695612,
          "velocity": 0.8110236220472441
        },
        {
          "duration": 0.4311588166666631,
          "durationTicks": 476,
          "midi": 60,
          "name": "C4",
          "ticks": 31680,
          "time": 28.695612,
          "velocity": 0.8582677165354331
        },
        {
          "duration": 0.4311588166666631,
          "durationTicks": 476,
          "midi": 65,
          "name": "F4",
          "ticks": 31680,
          "time": 28.695612,
          "velocity": 0.7795275590551181
        },
        {
          "duration": 0.43115881666666667,
          "durationTicks": 476,
          "midi": 53,
          "name": "F3",
          "ticks": 32160,
          "time": 29.130394,
          "velocity": 0.7795275590551181
        },
        {
          "duration": 0.43115881666666667,
          "durationTicks": 476,
          "midi": 60,
          "name": "C4",
          "ticks": 32160,
          "time": 29.130394,
          "velocity": 0.7322834645669292
        },
        {
          "duration": 0.43115881666666667,
          "durationTicks": 476,
          "midi": 65,
          "name": "F4",
          "ticks": 32160,
          "time": 29.130394,
          "velocity": 0.7952755905511811
        }
      ]
    },
    {
      "channel": 0,
      "controlChanges": {
        "0": [
          {
            "number": 0,
            "ticks": 505,
            "time": 0.4574268958333333,
            "value": 0
          }
        ],
        "32": [
          {
            "number": 32,
            "ticks": 506,
            "time": 0.4583326916666667,
            "value": 0
          }
        ]
      },
      "pitchBends": [],
      "instrument": {
        "family": "piano",
        "number": 0,
        "name": "acoustic grand piano"
      },
      "name": "Vocal Guide",
      "notes": [],
      "endOfTrackTicks": 31794
    },
    {
      "channel": 3,
      "controlChanges": {
        "1": [
          {
            "number": 1,
            "ticks": 3936,
            "time": 3.5652123999999996,
            "value": 0.10236220472440945
          },
          {
            "number": 1,
            "ticks": 3966,
            "time": 3.5923862749999995,
            "value": 0.2755905511811024
          },
          {
            "number": 1,
            "ticks": 4026,
            "time": 3.6467340249999998,
            "value": 0.6929133858267716
          },
          {
            "number": 1,
            "ticks": 4057,
            "time": 3.674813695833333,
            "value": 0.8582677165354331
          },
          {
            "number": 1,
            "ticks": 4088,
            "time": 3.7028933666666672,
            "value": 0.9606299212598425
          },
          {
            "number": 1,
            "ticks": 4118,
            "time": 3.730067241666667,
            "value": 1
          },
          {
            "number": 1,
            "ticks": 4149,
            "time": 3.7581469125000004,
            "value": 0.9921259842519685
          },
          {
            "number": 1,
            "ticks": 4179,
            "time": 3.7853207875000003,
            "value": 0.9212598425196851
          },
          {
            "number": 1,
            "ticks": 4209,
            "time": 3.8124946625000002,
            "value": 0.8031496062992126
          },
          {
            "number": 1,
            "ticks": 4239,
            "time": 3.8396685375,
            "value": 0.6535433070866141
          },
          {
            "number": 1,
            "ticks": 4273,
            "time": 3.8704655958333336,
            "value": 0.44881889763779526
          },
          {
            "number": 1,
            "ticks": 4307,
            "time": 3.9012626541666666,
            "value": 0.2125984251968504
          },
          {
            "number": 1,
            "ticks": 4338,
            "time": 3.929342325,
            "value": 0.06299212598425197
          },
          {
            "number": 1,
            "ticks": 4369,
            "time": 3.957421995833333,
            "value": 0
          },
          {
            "number": 1,
            "ticks": 7508,
            "time": 6.800715116666667,
            "value": 0.047244094488188976
          },
          {
            "number": 1,
            "ticks": 7539,
            "time": 6.828794787500001,
            "value": 0.2440944881889764
          },
          {
            "number": 1,
            "ticks": 7569,
            "time": 6.8559686625000005,
            "value": 0.44881889763779526
          },
          {
            "number": 1,
            "ticks": 7630,
            "time": 6.911222208333333,
            "value": 0.8031496062992126
          },
          {
            "number": 1,
            "ticks": 7661,
            "time": 6.939301879166667,
            "value": 0.9212598425196851
          },
          {
            "number": 1,
            "ticks": 7721,
            "time": 6.993649629166667,
            "value": 1
          },
          {
            "number": 1,
            "ticks": 7780,
            "time": 7.047091583333333,
            "value": 0.984251968503937
          },
          {
            "number": 1,
            "ticks": 7811,
            "time": 7.0751712541666665,
            "value": 0.9133858267716536
          },
          {
            "number": 1,
            "ticks": 7841,
            "time": 7.102345129166667,
            "value": 0.8031496062992126
          },
          {
            "number": 1,
            "ticks": 7901,
            "time": 7.156692879166667,
            "value": 0.5511811023622047
          },
          {
            "number": 1,
            "ticks": 7932,
            "time": 7.184772549999999,
            "value": 0.41732283464566927
          },
          {
            "number": 1,
            "ticks": 7963,
            "time": 7.212852220833334,
            "value": 0.28346456692913385
          },
          {
            "number": 1,
            "ticks": 7994,
            "time": 7.240931891666666,
            "value": 0.13385826771653545
          },
          {
            "number": 1,
            "ticks": 8054,
            "time": 7.295279641666666,
            "value": 0
          },
          {
            "number": 1,
            "ticks": 19961,
            "time": 18.080590629166668,
            "value": 0.047244094488188976
          },
          {
            "number": 1,
            "ticks": 19991,
            "time": 18.107764504166667,
            "value": 0.1732283464566929
          },
          {
            "number": 1,
            "ticks": 20022,
            "time": 18.135844175,
            "value": 0.33070866141732286
          },
          {
            "number": 1,
            "ticks": 20052,
            "time": 18.163018049999998,
            "value": 0.48031496062992124
          },
          {
            "number": 1,
            "ticks": 20082,
            "time": 18.190191925,
            "value": 0.6220472440944882
          },
          {
            "number": 1,
            "ticks": 20113,
            "time": 18.218271595833333,
            "value": 0.7480314960629921
          },
          {
            "number": 1,
            "ticks": 20143,
            "time": 18.24544547083333,
            "value": 0.8582677165354331
          },
          {
            "number": 1,
            "ticks": 20204,
            "time": 18.300699016666666,
            "value": 0.9921259842519685
          },
          {
            "number": 1,
            "ticks": 20235,
            "time": 18.3287786875,
            "value": 1
          },
          {
            "number": 1,
            "ticks": 20546,
            "time": 18.61048119166667,
            "value": 0.952755905511811
          },
          {
            "number": 1,
            "ticks": 20577,
            "time": 18.6385608625,
            "value": 0.8818897637795275
          },
          {
            "number": 1,
            "ticks": 20607,
            "time": 18.6657347375,
            "value": 0.7795275590551181
          },
          {
            "number": 1,
            "ticks": 20638,
            "time": 18.69381440833333,
            "value": 0.6692913385826772
          },
          {
            "number": 1,
            "ticks": 20669,
            "time": 18.721894079166667,
            "value": 0.5354330708661418
          },
          {
            "number": 1,
            "ticks": 20730,
            "time": 18.777147625,
            "value": 0.2283464566929134
          },
          {
            "number": 1,
            "ticks": 20761,
            "time": 18.805227295833333,
            "value": 0.09448818897637795
          },
          {
            "number": 1,
            "ticks": 20791,
            "time": 18.832401170833332,
            "value": 0.007874015748031496
          },
          {
            "number": 1,
            "ticks": 20822,
            "time": 18.860480841666668,
            "value": 0
          },
          {
            "number": 1,
            "ticks": 24959,
            "time": 22.607758204166668,
            "value": 0.06299212598425197
          },
          {
            "number": 1,
            "ticks": 24990,
            "time": 22.635837875,
            "value": 0.14173228346456693
          },
          {
            "number": 1,
            "ticks": 25050,
            "time": 22.690185625,
            "value": 0.33070866141732286
          },
          {
            "number": 1,
            "ticks": 25081,
            "time": 22.718265295833334,
            "value": 0.4251968503937008
          },
          {
            "number": 1,
            "ticks": 25141,
            "time": 22.77261304583333,
            "value": 0.5669291338582677
          },
          {
            "number": 1,
            "ticks": 25172,
            "time": 22.800692716666667,
            "value": 0.6220472440944882
          },
          {
            "number": 1,
            "ticks": 25203,
            "time": 22.8287723875,
            "value": 0.6850393700787402
          },
          {
            "number": 1,
            "ticks": 25233,
            "time": 22.8559462625,
            "value": 0.7401574803149606
          },
          {
            "number": 1,
            "ticks": 25263,
            "time": 22.8831201375,
            "value": 0.7952755905511811
          },
          {
            "number": 1,
            "ticks": 25293,
            "time": 22.9102940125,
            "value": 0.8346456692913385
          },
          {
            "number": 1,
            "ticks": 25324,
            "time": 22.93837368333333,
            "value": 0.8818897637795275
          },
          {
            "number": 1,
            "ticks": 25355,
            "time": 22.966453354166667,
            "value": 0.9212598425196851
          },
          {
            "number": 1,
            "ticks": 25386,
            "time": 22.994533025000003,
            "value": 0.952755905511811
          },
          {
            "number": 1,
            "ticks": 25416,
            "time": 23.0217069,
            "value": 0.984251968503937
          },
          {
            "number": 1,
            "ticks": 25447,
            "time": 23.049786570833334,
            "value": 1
          },
          {
            "number": 1,
            "ticks": 25788,
            "time": 23.35866295,
            "value": 0.9291338582677166
          },
          {
            "number": 1,
            "ticks": 25819,
            "time": 23.386742620833335,
            "value": 0.8818897637795275
          },
          {
            "number": 1,
            "ticks": 25850,
            "time": 23.414822291666667,
            "value": 0.8267716535433071
          },
          {
            "number": 1,
            "ticks": 25880,
            "time": 23.441996166666666,
            "value": 0.7637795275590551
          },
          {
            "number": 1,
            "ticks": 25910,
            "time": 23.469170041666665,
            "value": 0.6929133858267716
          },
          {
            "number": 1,
            "ticks": 25940,
            "time": 23.496343916666667,
            "value": 0.6062992125984252
          },
          {
            "number": 1,
            "ticks": 26001,
            "time": 23.551597462500002,
            "value": 0.3858267716535433
          },
          {
            "number": 1,
            "ticks": 26032,
            "time": 23.579677133333334,
            "value": 0.23622047244094488
          },
          {
            "number": 1,
            "ticks": 26063,
            "time": 23.607756804166666,
            "value": 0.07874015748031496
          },
          {
            "number": 1,
            "ticks": 26093,
            "time": 23.634930679166665,
            "value": 0
          },
          {
            "number": 1,
            "ticks": 26835,
            "time": 24.3070311875,
            "value": 0.11023622047244094
          },
          {
            "number": 1,
            "ticks": 26866,
            "time": 24.335110858333334,
            "value": 0.23622047244094488
          },
          {
            "number": 1,
            "ticks": 26896,
            "time": 24.362284733333333,
            "value": 0.3543307086614173
          },
          {
            "number": 1,
            "ticks": 26956,
            "time": 24.416632483333334,
            "value": 0.5669291338582677
          },
          {
            "number": 1,
            "ticks": 26987,
            "time": 24.44471215416667,
            "value": 0.6614173228346457
          },
          {
            "number": 1,
            "ticks": 27017,
            "time": 24.47188602916667,
            "value": 0.7480314960629921
          },
          {
            "number": 1,
            "ticks": 27048,
            "time": 24.4999657,
            "value": 0.8188976377952756
          },
          {
            "number": 1,
            "ticks": 27078,
            "time": 24.527139575,
            "value": 0.8740157480314961
          },
          {
            "number": 1,
            "ticks": 27109,
            "time": 24.55521924583333,
            "value": 0.9133858267716536
          },
          {
            "number": 1,
            "ticks": 27139,
            "time": 24.582393120833334,
            "value": 0.937007874015748
          },
          {
            "number": 1,
            "ticks": 27170,
            "time": 24.610472791666666,
            "value": 0.9448818897637795
          },
          {
            "number": 1,
            "ticks": 27201,
            "time": 24.6385524625,
            "value": 0.952755905511811
          },
          {
            "number": 1,
            "ticks": 27456,
            "time": 24.869530400000002,
            "value": 0.9448818897637795
          },
          {
            "number": 1,
            "ticks": 27486,
            "time": 24.896704275,
            "value": 0.9212598425196851
          },
          {
            "number": 1,
            "ticks": 27517,
            "time": 24.924783945833333,
            "value": 0.905511811023622
          },
          {
            "number": 1,
            "ticks": 27548,
            "time": 24.952863616666665,
            "value": 0.8818897637795275
          },
          {
            "number": 1,
            "ticks": 27608,
            "time": 25.007211366666667,
            "value": 0.8188976377952756
          },
          {
            "number": 1,
            "ticks": 27640,
            "time": 25.036196833333335,
            "value": 0.7795275590551181
          },
          {
            "number": 1,
            "ticks": 27670,
            "time": 25.063370708333334,
            "value": 0.7401574803149606
          },
          {
            "number": 1,
            "ticks": 27731,
            "time": 25.11862425416667,
            "value": 0.6299212598425197
          },
          {
            "number": 1,
            "ticks": 27762,
            "time": 25.146703925,
            "value": 0.5748031496062992
          },
          {
            "number": 1,
            "ticks": 27793,
            "time": 25.174783595833333,
            "value": 0.5118110236220472
          },
          {
            "number": 1,
            "ticks": 27823,
            "time": 25.20195747083333,
            "value": 0.4409448818897638
          },
          {
            "number": 1,
            "ticks": 27883,
            "time": 25.256305220833333,
            "value": 0.29133858267716534
          },
          {
            "number": 1,
            "ticks": 27914,
            "time": 25.28438489166667,
            "value": 0.1968503937007874
          },
          {
            "number": 1,
            "ticks": 27945,
            "time": 25.3124645625,
            "value": 0.10236220472440945
          },
          {
            "number": 1,
            "ticks": 28006,
            "time": 25.36771810833333,
            "value": 0
          },
          {
            "number": 1,
            "ticks": 30596,
            "time": 27.71372931666667,
            "value": 0.05511811023622047
          },
          {
            "number": 1,
            "ticks": 30626,
            "time": 27.740903191666668,
            "value": 0.1732283464566929
          },
          {
            "number": 1,
            "ticks": 30657,
            "time": 27.7689828625,
            "value": 0.2992125984251969
          },
          {
            "number": 1,
            "ticks": 30687,
            "time": 27.7961567375,
            "value": 0.4251968503937008
          },
          {
            "number": 1,
            "ticks": 30717,
            "time": 27.823330612499998,
            "value": 0.5275590551181102
          },
          {
            "number": 1,
            "ticks": 30748,
            "time": 27.851410283333337,
            "value": 0.6220472440944882
          },
          {
            "number": 1,
            "ticks": 30809,
            "time": 27.906663829166668,
            "value": 0.7637795275590551
          },
          {
            "number": 1,
            "ticks": 30839,
            "time": 27.933837704166667,
            "value": 0.8188976377952756
          },
          {
            "number": 1,
            "ticks": 30870,
            "time": 27.961917375,
            "value": 0.8503937007874016
          },
          {
            "number": 1,
            "ticks": 30900,
            "time": 27.98909125,
            "value": 0.8818897637795275
          },
          {
            "number": 1,
            "ticks": 30931,
            "time": 28.017170920833333,
            "value": 0.905511811023622
          },
          {
            "number": 1,
            "ticks": 30961,
            "time": 28.044344795833332,
            "value": 0.9212598425196851
          },
          {
            "number": 1,
            "ticks": 30992,
            "time": 28.072424466666664,
            "value": 0.937007874015748
          },
          {
            "number": 1,
            "ticks": 31051,
            "time": 28.125866420833333,
            "value": 0.9448818897637795
          },
          {
            "number": 1,
            "ticks": 31334,
            "time": 28.382206641666667,
            "value": 0.9291338582677166
          },
          {
            "number": 1,
            "ticks": 31365,
            "time": 28.4102863125,
            "value": 0.9133858267716536
          },
          {
            "number": 1,
            "ticks": 31395,
            "time": 28.4374601875,
            "value": 0.905511811023622
          },
          {
            "number": 1,
            "ticks": 31426,
            "time": 28.465539858333333,
            "value": 0.889763779527559
          },
          {
            "number": 1,
            "ticks": 31457,
            "time": 28.493619529166665,
            "value": 0.8661417322834646
          },
          {
            "number": 1,
            "ticks": 31488,
            "time": 28.521699199999997,
            "value": 0.8503937007874016
          },
          {
            "number": 1,
            "ticks": 31518,
            "time": 28.548873074999996,
            "value": 0.8267716535433071
          },
          {
            "number": 1,
            "ticks": 31578,
            "time": 28.603220824999998,
            "value": 0.7637795275590551
          },
          {
            "number": 1,
            "ticks": 31609,
            "time": 28.631300495833337,
            "value": 0.7165354330708661
          },
          {
            "number": 1,
            "ticks": 31639,
            "time": 28.658474370833336,
            "value": 0.6377952755905512
          },
          {
            "number": 1,
            "ticks": 31670,
            "time": 28.686554041666668,
            "value": 0.5354330708661418
          },
          {
            "number": 1,
            "ticks": 31700,
            "time": 28.71372791666667,
            "value": 0.3858267716535433
          },
          {
            "number": 1,
            "ticks": 31731,
            "time": 28.741807587500002,
            "value": 0.1889763779527559
          },
          {
            "number": 1,
            "ticks": 31762,
            "time": 28.769887258333334,
            "value": 0.05511811023622047
          },
          {
            "number": 1,
            "ticks": 31794,
            "time": 28.798872725,
            "value": 0
          }
        ],
        "6": [
          {
            "number": 6,
            "ticks": 641,
            "time": 0.5806151291666667,
            "value": 0.015748031496062992
          }
        ],
        "7": [
          {
            "number": 7,
            "ticks": 508,
            "time": 0.46014428333333335,
            "value": 0.8661417322834646
          }
        ],
        "10": [
          {
            "number": 10,
            "ticks": 509,
            "time": 0.4610500791666666,
            "value": 0.5039370078740157
          }
        ],
        "11": [
          {
            "number": 11,
            "ticks": 510,
            "time": 0.461955875,
            "value": 1
          }
        ],
        "91": [
          {
            "number": 91,
            "ticks": 510,
            "time": 0.461955875,
            "value": 0.4330708661417323
          }
        ],
        "93": [
          {
            "number": 93,
            "ticks": 512,
            "time": 0.4637674666666667,
            "value": 0
          }
        ],
        "100": [
          {
            "number": 100,
            "ticks": 637,
            "time": 0.5769919458333334,
            "value": 0
          },
          {
            "number": 100,
            "ticks": 649,
            "time": 0.5878614958333334,
            "value": 1
          }
        ],
        "101": [
          {
            "number": 101,
            "ticks": 633,
            "time": 0.5733687625,
            "value": 0
          },
          {
            "number": 101,
            "ticks": 645,
            "time": 0.5842383125,
            "value": 1
          }
        ]
      },
      "pitchBends": [],
      "instrument": {
        "family": "reed",
        "number": 66,
        "name": "tenor sax"
      },
      "name": "",
      "notes": [
        {
          "duration": 0.31974592916666644,
          "durationTicks": 353,
          "midi": 65,
          "name": "F4",
          "ticks": 1920,
          "time": 1.739128,
          "velocity": 0.905511811023622
        },
        {
          "duration": 0.29800682916666643,
          "durationTicks": 329,
          "midi": 65,
          "name": "F4",
          "ticks": 2400,
          "time": 2.1739100000000002,
          "velocity": 0.7637795275590551
        },
        {
          "duration": 0.253622833333333,
          "durationTicks": 280,
          "midi": 65,
          "name": "F4",
          "ticks": 2880,
          "time": 2.608692,
          "velocity": 0.84251968503937
        },
        {
          "duration": 0.2599634041666663,
          "durationTicks": 287,
          "midi": 63,
          "name": "D#4",
          "ticks": 3120,
          "time": 2.826083,
          "velocity": 0.7795275590551181
        },
        {
          "duration": 0.23007214166666712,
          "durationTicks": 254,
          "midi": 65,
          "name": "F4",
          "ticks": 3360,
          "time": 3.043474,
          "velocity": 0.84251968503937
        },
        {
          "duration": 0.668477325,
          "durationTicks": 738,
          "midi": 63,
          "name": "D#4",
          "ticks": 3600,
          "time": 3.260865,
          "velocity": 0.8188976377952756
        },
        {
          "duration": 0.23097793749999962,
          "durationTicks": 255,
          "midi": 58,
          "name": "A#3",
          "ticks": 4320,
          "time": 3.9130380000000002,
          "velocity": 0.6692913385826772
        },
        {
          "duration": 0.4927529333333327,
          "durationTicks": 544,
          "midi": 60,
          "name": "C4",
          "ticks": 4560,
          "time": 4.130429,
          "velocity": 0.8346456692913385
        },
        {
          "duration": 0.20289826666666677,
          "durationTicks": 224,
          "midi": 61,
          "name": "C#4",
          "ticks": 5040,
          "time": 4.565211,
          "velocity": 0.7795275590551181
        },
        {
          "duration": 0.3124995625000002,
          "durationTicks": 345,
          "midi": 63,
          "name": "D#4",
          "ticks": 5760,
          "time": 5.217384,
          "velocity": 0.8661417322834646
        },
        {
          "duration": 0.2980068291666669,
          "durationTicks": 329,
          "midi": 63,
          "name": "D#4",
          "ticks": 6240,
          "time": 5.652166,
          "velocity": 0.7795275590551181
        },
        {
          "duration": 0.2146736125000004,
          "durationTicks": 237,
          "midi": 63,
          "name": "D#4",
          "ticks": 6720,
          "time": 6.086948,
          "velocity": 0.6929133858267716
        },
        {
          "duration": 0.2173910000000001,
          "durationTicks": 240,
          "midi": 60,
          "name": "C4",
          "ticks": 6960,
          "time": 6.304339,
          "velocity": 0.8267716535433071
        },
        {
          "duration": 0.24365907916666707,
          "durationTicks": 269,
          "midi": 63,
          "name": "D#4",
          "ticks": 7200,
          "time": 6.52173,
          "velocity": 0.8110236220472441
        },
        {
          "duration": 0.654890387500001,
          "durationTicks": 723,
          "midi": 60,
          "name": "C4",
          "ticks": 7440,
          "time": 6.739121,
          "velocity": 0.8110236220472441
        },
        {
          "duration": 0.23641271249999907,
          "durationTicks": 261,
          "midi": 53,
          "name": "F3",
          "ticks": 8160,
          "time": 7.391294,
          "velocity": 0.8110236220472441
        },
        {
          "duration": 0.4719196291666661,
          "durationTicks": 521,
          "midi": 55,
          "name": "G3",
          "ticks": 8400,
          "time": 7.608685,
          "velocity": 0.8267716535433071
        },
        {
          "duration": 0.1539852916666682,
          "durationTicks": 170,
          "midi": 56,
          "name": "G#3",
          "ticks": 8880,
          "time": 8.043467,
          "velocity": 0.8031496062992126
        },
        {
          "duration": 0.3432966208333319,
          "durationTicks": 379,
          "midi": 65,
          "name": "F4",
          "ticks": 9600,
          "time": 8.695640000000001,
          "velocity": 0.8976377952755905
        },
        {
          "duration": 0.29076046249999976,
          "durationTicks": 321,
          "midi": 65,
          "name": "F4",
          "ticks": 10080,
          "time": 9.130422,
          "velocity": 0.8031496062992126
        },
        {
          "duration": 0.24999964999999946,
          "durationTicks": 276,
          "midi": 65,
          "name": "F4",
          "ticks": 10560,
          "time": 9.565204,
          "velocity": 0.8110236220472441
        },
        {
          "duration": 0.24728226250000063,
          "durationTicks": 273,
          "midi": 63,
          "name": "D#4",
          "ticks": 10800,
          "time": 9.782595,
          "velocity": 0.7795275590551181
        },
        {
          "duration": 0.23369532500000112,
          "durationTicks": 258,
          "midi": 65,
          "name": "F4",
          "ticks": 11040,
          "time": 9.999986,
          "velocity": 0.8503937007874016
        },
        {
          "duration": 0.6168469624999986,
          "durationTicks": 681,
          "midi": 63,
          "name": "D#4",
          "ticks": 11280,
          "time": 10.217377,
          "velocity": 0.8110236220472441
        },
        {
          "duration": 0.27264454583333375,
          "durationTicks": 301,
          "midi": 58,
          "name": "A#3",
          "ticks": 12000,
          "time": 10.86955,
          "velocity": 0.7007874015748031
        },
        {
          "duration": 0.5018108916666666,
          "durationTicks": 554,
          "midi": 60,
          "name": "C4",
          "ticks": 12240,
          "time": 11.086941,
          "velocity": 0.84251968503937
        },
        {
          "duration": 0.16394904583333414,
          "durationTicks": 181,
          "midi": 61,
          "name": "C#4",
          "ticks": 12720,
          "time": 11.521723,
          "velocity": 0.7480314960629921
        },
        {
          "duration": 0.2418474874999994,
          "durationTicks": 267,
          "midi": 51,
          "name": "D#3",
          "ticks": 13200,
          "time": 11.956505,
          "velocity": 0.7007874015748031
        },
        {
          "duration": 0.19202871666666788,
          "durationTicks": 212,
          "midi": 63,
          "name": "D#4",
          "ticks": 13440,
          "time": 12.173896,
          "velocity": 0.7952755905511811
        },
        {
          "duration": 0.2626807916666678,
          "durationTicks": 290,
          "midi": 60,
          "name": "C4",
          "ticks": 13680,
          "time": 12.391287,
          "velocity": 0.7874015748031497
        },
        {
          "duration": 0.3188401333333353,
          "durationTicks": 352,
          "midi": 63,
          "name": "D#4",
          "ticks": 13920,
          "time": 12.608678,
          "velocity": 0.7952755905511811
        },
        {
          "duration": 0.2219199791666675,
          "durationTicks": 245,
          "midi": 63,
          "name": "D#4",
          "ticks": 14400,
          "time": 13.04346,
          "velocity": 0.6220472440944882
        },
        {
          "duration": 0.22101418333333278,
          "durationTicks": 244,
          "midi": 60,
          "name": "C4",
          "ticks": 14640,
          "time": 13.260851,
          "velocity": 0.8346456692913385
        },
        {
          "duration": 0.24094169166666646,
          "durationTicks": 266,
          "midi": 63,
          "name": "D#4",
          "ticks": 14880,
          "time": 13.478242,
          "velocity": 0.7952755905511811
        },
        {
          "duration": 0.4230066541666666,
          "durationTicks": 467,
          "midi": 60,
          "name": "C4",
          "ticks": 15120,
          "time": 13.695633,
          "velocity": 0.8031496062992126
        },
        {
          "duration": 0.42028926666666777,
          "durationTicks": 464,
          "midi": 53,
          "name": "F3",
          "ticks": 15600,
          "time": 14.130415,
          "velocity": 0.7795275590551181
        },
        {
          "duration": 0.5172094208333338,
          "durationTicks": 571,
          "midi": 55,
          "name": "G3",
          "ticks": 16080,
          "time": 14.565197,
          "velocity": 0.8031496062992126
        },
        {
          "duration": 0.20289826666666855,
          "durationTicks": 224,
          "midi": 56,
          "name": "G#3",
          "ticks": 16560,
          "time": 14.999979,
          "velocity": 0.7874015748031497
        },
        {
          "duration": 0.31521694999999994,
          "durationTicks": 348,
          "midi": 65,
          "name": "F4",
          "ticks": 17280,
          "time": 15.652152000000001,
          "velocity": 0.905511811023622
        },
        {
          "duration": 0.350542987499999,
          "durationTicks": 387,
          "midi": 65,
          "name": "F4",
          "ticks": 17760,
          "time": 16.086934,
          "velocity": 0.7874015748031497
        },
        {
          "duration": 0.2346011208333323,
          "durationTicks": 259,
          "midi": 65,
          "name": "F4",
          "ticks": 18240,
          "time": 16.521716,
          "velocity": 0.7480314960629921
        },
        {
          "duration": 0.22644895833333223,
          "durationTicks": 250,
          "midi": 63,
          "name": "D#4",
          "ticks": 18480,
          "time": 16.739107,
          "velocity": 0.7874015748031497
        },
        {
          "duration": 0.2509054458333324,
          "durationTicks": 277,
          "midi": 65,
          "name": "F4",
          "ticks": 18720,
          "time": 16.956498,
          "velocity": 0.8661417322834646
        },
        {
          "duration": 0.34691980416666723,
          "durationTicks": 383,
          "midi": 67,
          "name": "G4",
          "ticks": 18960,
          "time": 17.173889,
          "velocity": 0.8818897637795275
        },
        {
          "duration": 0.193840308333332,
          "durationTicks": 214,
          "midi": 67,
          "name": "G4",
          "ticks": 19440,
          "time": 17.608671,
          "velocity": 0.8267716535433071
        },
        {
          "duration": 0.7364120125000007,
          "durationTicks": 813,
          "midi": 67,
          "name": "G4",
          "ticks": 19920,
          "time": 18.043453,
          "velocity": 0.8976377952755905
        },
        {
          "duration": 0.31068797083333166,
          "durationTicks": 343,
          "midi": 63,
          "name": "D#4",
          "ticks": 21120,
          "time": 19.130408,
          "velocity": 0.8740157480314961
        },
        {
          "duration": 0.15398529166666464,
          "durationTicks": 170,
          "midi": 63,
          "name": "D#4",
          "ticks": 21600,
          "time": 19.56519,
          "velocity": 0.8110236220472441
        },
        {
          "duration": 0.11231868333333139,
          "durationTicks": 124,
          "midi": 63,
          "name": "D#4",
          "ticks": 21840,
          "time": 19.782581,
          "velocity": 0.7322834645669292
        },
        {
          "duration": 0.3623183333333344,
          "durationTicks": 400,
          "midi": 63,
          "name": "D#4",
          "ticks": 22080,
          "time": 19.999972,
          "velocity": 0.8188976377952756
        },
        {
          "duration": 0.22463736666666634,
          "durationTicks": 248,
          "midi": 63,
          "name": "D#4",
          "ticks": 22560,
          "time": 20.434754,
          "velocity": 0.6456692913385826
        },
        {
          "duration": 0.12409402916666679,
          "durationTicks": 137,
          "midi": 61,
          "name": "C#4",
          "ticks": 22800,
          "time": 20.652145,
          "velocity": 0.7716535433070866
        },
        {
          "duration": 0.22463736666666634,
          "durationTicks": 248,
          "midi": 61,
          "name": "C#4",
          "ticks": 23040,
          "time": 20.869536,
          "velocity": 0.7795275590551181
        },
        {
          "duration": 0.17300700416666714,
          "durationTicks": 191,
          "midi": 60,
          "name": "C4",
          "ticks": 23280,
          "time": 21.086927,
          "velocity": 0.8503937007874016
        },
        {
          "duration": 0.15851427083333292,
          "durationTicks": 175,
          "midi": 60,
          "name": "C4",
          "ticks": 24000,
          "time": 21.7391,
          "velocity": 0.889763779527559
        },
        {
          "duration": 0.16213745416666825,
          "durationTicks": 179,
          "midi": 60,
          "name": "C4",
          "ticks": 24240,
          "time": 21.956491,
          "velocity": 0.8818897637795275
        },
        {
          "duration": 0.14311574166666574,
          "durationTicks": 158,
          "midi": 60,
          "name": "C4",
          "ticks": 24480,
          "time": 22.173882,
          "velocity": 0.8110236220472441
        },
        {
          "duration": 1.3260850999999967,
          "durationTicks": 1464,
          "midi": 60,
          "name": "C4",
          "ticks": 24720,
          "time": 22.391273,
          "velocity": 0.7795275590551181
        },
        {
          "duration": 0.22644895833333223,
          "durationTicks": 250,
          "midi": 61,
          "name": "C#4",
          "ticks": 26160,
          "time": 23.695619,
          "velocity": 0.7716535433070866
        },
        {
          "duration": 0.9320639124999985,
          "durationTicks": 1029,
          "midi": 58,
          "name": "A#3",
          "ticks": 26640,
          "time": 24.130401,
          "velocity": 0.7795275590551181
        },
        {
          "duration": 0.20380406249999794,
          "durationTicks": 225,
          "midi": 58,
          "name": "A#3",
          "ticks": 28320,
          "time": 25.652138,
          "velocity": 0.7795275590551181
        },
        {
          "duration": 0.20923883750000272,
          "durationTicks": 231,
          "midi": 56,
          "name": "G#3",
          "ticks": 28560,
          "time": 25.869529,
          "velocity": 0.7165354330708661
        },
        {
          "duration": 0.1793475750000013,
          "durationTicks": 198,
          "midi": 55,
          "name": "G3",
          "ticks": 28800,
          "time": 26.08692,
          "velocity": 0.8582677165354331
        },
        {
          "duration": 0.5398543166666698,
          "durationTicks": 596,
          "midi": 55,
          "name": "G3",
          "ticks": 29040,
          "time": 26.304311,
          "velocity": 0.8740157480314961
        },
        {
          "duration": 0.4592384874999986,
          "durationTicks": 507,
          "midi": 60,
          "name": "C4",
          "ticks": 29760,
          "time": 26.956484,
          "velocity": 0.8267716535433071
        },
        {
          "duration": 0.2527170374999983,
          "durationTicks": 279,
          "midi": 55,
          "name": "G3",
          "ticks": 30240,
          "time": 27.391266,
          "velocity": 0.7795275590551181
        },
        {
          "duration": 1.183875154166664,
          "durationTicks": 1307,
          "midi": 56,
          "name": "G#3",
          "ticks": 30480,
          "time": 27.608657,
          "velocity": 0.7401574803149606
        }
      ]
    },
    {
      "channel": 0,
      "controlChanges": {
        "0": [
          {
            "number": 0,
            "ticks": 529,
            "time": 0.4791659958333333,
            "value": 0
          }
        ],
        "32": [
          {
            "number": 32,
            "ticks": 530,
            "time": 0.4800717916666667,
            "value": 0
          }
        ]
      },
      "pitchBends": [],
      "instrument": {
        "family": "piano",
        "number": 0,
        "name": "acoustic grand piano"
      },
      "name": "Strings (Low)",
      "notes": [],
      "endOfTrackTicks": 32614
    },
    {
      "channel": 4,
      "controlChanges": {
        "6": [
          {
            "number": 6,
            "ticks": 651,
            "time": 0.5896730875,
            "value": 0.015748031496062992
          }
        ],
        "7": [
          {
            "number": 7,
            "ticks": 532,
            "time": 0.48188338333333336,
            "value": 0.7874015748031497
          },
          {
            "number": 7,
            "ticks": 28230,
            "time": 25.570616375,
            "value": 0.7874015748031497
          },
          {
            "number": 7,
            "ticks": 30795,
            "time": 27.8939826875,
            "value": 0.7874015748031497
          },
          {
            "number": 7,
            "ticks": 30796,
            "time": 27.894888483333332,
            "value": 0.7795275590551181
          },
          {
            "number": 7,
            "ticks": 30870,
            "time": 27.961917375,
            "value": 0.7716535433070866
          },
          {
            "number": 7,
            "ticks": 30923,
            "time": 28.009924554166666,
            "value": 0.7637795275590551
          },
          {
            "number": 7,
            "ticks": 30976,
            "time": 28.057931733333334,
            "value": 0.7559055118110236
          },
          {
            "number": 7,
            "ticks": 31013,
            "time": 28.091446179166667,
            "value": 0.7480314960629921
          },
          {
            "number": 7,
            "ticks": 31030,
            "time": 28.10684470833333,
            "value": 0.7401574803149606
          },
          {
            "number": 7,
            "ticks": 31030,
            "time": 28.10684470833333,
            "value": 0.7322834645669292
          },
          {
            "number": 7,
            "ticks": 31070,
            "time": 28.14307654166667,
            "value": 0.7244094488188977
          },
          {
            "number": 7,
            "ticks": 31121,
            "time": 28.189272129166664,
            "value": 0.7165354330708661
          },
          {
            "number": 7,
            "ticks": 31146,
            "time": 28.211917025,
            "value": 0.7086614173228346
          },
          {
            "number": 7,
            "ticks": 31146,
            "time": 28.211917025,
            "value": 0.7007874015748031
          },
          {
            "number": 7,
            "ticks": 31171,
            "time": 28.234561920833332,
            "value": 0.6929133858267716
          },
          {
            "number": 7,
            "ticks": 31196,
            "time": 28.257206816666663,
            "value": 0.6850393700787402
          },
          {
            "number": 7,
            "ticks": 31256,
            "time": 28.311554566666665,
            "value": 0.6771653543307087
          },
          {
            "number": 7,
            "ticks": 31284,
            "time": 28.336916849999998,
            "value": 0.6692913385826772
          },
          {
            "number": 7,
            "ticks": 31311,
            "time": 28.3613733375,
            "value": 0.6614173228346457
          },
          {
            "number": 7,
            "ticks": 31436,
            "time": 28.474597816666662,
            "value": 0.6535433070866141
          },
          {
            "number": 7,
            "ticks": 31456,
            "time": 28.492713733333332,
            "value": 0.6456692913385826
          },
          {
            "number": 7,
            "ticks": 31476,
            "time": 28.51082965,
            "value": 0.6377952755905512
          },
          {
            "number": 7,
            "ticks": 31570,
            "time": 28.59597445833333,
            "value": 0.6299212598425197
          },
          {
            "number": 7,
            "ticks": 31597,
            "time": 28.620430945833334,
            "value": 0.6220472440944882
          },
          {
            "number": 7,
            "ticks": 31623,
            "time": 28.643981637499998,
            "value": 0.6141732283464567
          },
          {
            "number": 7,
            "ticks": 31643,
            "time": 28.662097554166667,
            "value": 0.6062992125984252
          },
          {
            "number": 7,
            "ticks": 31670,
            "time": 28.686554041666668,
            "value": 0.5984251968503937
          },
          {
            "number": 7,
            "ticks": 31696,
            "time": 28.71010473333333,
            "value": 0.5905511811023622
          },
          {
            "number": 7,
            "ticks": 31750,
            "time": 28.75901770833333,
            "value": 0.5826771653543307
          },
          {
            "number": 7,
            "ticks": 31777,
            "time": 28.783474195833335,
            "value": 0.5748031496062992
          },
          {
            "number": 7,
            "ticks": 31803,
            "time": 28.8070248875,
            "value": 0.5669291338582677
          },
          {
            "number": 7,
            "ticks": 31843,
            "time": 28.843256720833335,
            "value": 0.5590551181102362
          },
          {
            "number": 7,
            "ticks": 31873,
            "time": 28.870430595833334,
            "value": 0.5511811023622047
          },
          {
            "number": 7,
            "ticks": 31903,
            "time": 28.897604470833336,
            "value": 0.5433070866141733
          },
          {
            "number": 7,
            "ticks": 31930,
            "time": 28.922060958333333,
            "value": 0.5354330708661418
          },
          {
            "number": 7,
            "ticks": 31950,
            "time": 28.940176875,
            "value": 0.5275590551181102
          },
          {
            "number": 7,
            "ticks": 31970,
            "time": 28.95829279166667,
            "value": 0.5196850393700787
          },
          {
            "number": 7,
            "ticks": 32010,
            "time": 28.994524625,
            "value": 0.5118110236220472
          },
          {
            "number": 7,
            "ticks": 32027,
            "time": 29.009923154166664,
            "value": 0.5039370078740157
          },
          {
            "number": 7,
            "ticks": 32043,
            "time": 29.0244158875,
            "value": 0.49606299212598426
          },
          {
            "number": 7,
            "ticks": 32083,
            "time": 29.060647720833334,
            "value": 0.4881889763779528
          },
          {
            "number": 7,
            "ticks": 32091,
            "time": 29.0678940875,
            "value": 0.48031496062992124
          },
          {
            "number": 7,
            "ticks": 32098,
            "time": 29.074234658333335,
            "value": 0.47244094488188976
          },
          {
            "number": 7,
            "ticks": 32103,
            "time": 29.078763637499996,
            "value": 0.4645669291338583
          },
          {
            "number": 7,
            "ticks": 32123,
            "time": 29.096879554166666,
            "value": 0.4566929133858268
          },
          {
            "number": 7,
            "ticks": 32143,
            "time": 29.114995470833335,
            "value": 0.44881889763779526
          },
          {
            "number": 7,
            "ticks": 32250,
            "time": 29.211915625,
            "value": 0.4409448818897638
          },
          {
            "number": 7,
            "ticks": 32456,
            "time": 29.398509566666664,
            "value": 0.4409448818897638
          },
          {
            "number": 7,
            "ticks": 32464,
            "time": 29.405755933333335,
            "value": 0.44881889763779526
          },
          {
            "number": 7,
            "ticks": 32471,
            "time": 29.412096504166662,
            "value": 0.4566929133858268
          },
          {
            "number": 7,
            "ticks": 32479,
            "time": 29.419342870833336,
            "value": 0.47244094488188976
          },
          {
            "number": 7,
            "ticks": 32486,
            "time": 29.425683441666663,
            "value": 0.48031496062992124
          },
          {
            "number": 7,
            "ticks": 32494,
            "time": 29.432929808333338,
            "value": 0.4881889763779528
          },
          {
            "number": 7,
            "ticks": 32501,
            "time": 29.439270379166665,
            "value": 0.5039370078740157
          },
          {
            "number": 7,
            "ticks": 32509,
            "time": 29.446516745833335,
            "value": 0.5118110236220472
          },
          {
            "number": 7,
            "ticks": 32516,
            "time": 29.452857316666663,
            "value": 0.5275590551181102
          },
          {
            "number": 7,
            "ticks": 32524,
            "time": 29.460103683333337,
            "value": 0.5354330708661418
          },
          {
            "number": 7,
            "ticks": 32531,
            "time": 29.466444254166664,
            "value": 0.5433070866141733
          },
          {
            "number": 7,
            "ticks": 32539,
            "time": 29.473690620833338,
            "value": 0.5590551181102362
          },
          {
            "number": 7,
            "ticks": 32546,
            "time": 29.480031191666665,
            "value": 0.5669291338582677
          },
          {
            "number": 7,
            "ticks": 32554,
            "time": 29.487277558333336,
            "value": 0.5748031496062992
          },
          {
            "number": 7,
            "ticks": 32561,
            "time": 29.493618129166663,
            "value": 0.5905511811023622
          },
          {
            "number": 7,
            "ticks": 32569,
            "time": 29.500864495833337,
            "value": 0.5984251968503937
          },
          {
            "number": 7,
            "ticks": 32576,
            "time": 29.507205066666664,
            "value": 0.6141732283464567
          },
          {
            "number": 7,
            "ticks": 32584,
            "time": 29.514451433333335,
            "value": 0.6220472440944882
          },
          {
            "number": 7,
            "ticks": 32591,
            "time": 29.520792004166665,
            "value": 0.6299212598425197
          },
          {
            "number": 7,
            "ticks": 32599,
            "time": 29.528038370833336,
            "value": 0.6456692913385826
          },
          {
            "number": 7,
            "ticks": 32606,
            "time": 29.534378941666663,
            "value": 0.6535433070866141
          },
          {
            "number": 7,
            "ticks": 32614,
            "time": 29.541625308333337,
            "value": 0.6614173228346457
          }
        ],
        "10": [
          {
            "number": 10,
            "ticks": 533,
            "time": 0.48278917916666664,
            "value": 0.5039370078740157
          }
        ],
        "11": [
          {
            "number": 11,
            "ticks": 534,
            "time": 0.483694975,
            "value": 1
          }
        ],
        "64": [
          {
            "number": 64,
            "ticks": 2681,
            "time": 2.4284386291666666,
            "value": 1
          },
          {
            "number": 64,
            "ticks": 3523,
            "time": 3.1911187208333334,
            "value": 0
          },
          {
            "number": 64,
            "ticks": 3954,
            "time": 3.581516725,
            "value": 1
          },
          {
            "number": 64,
            "ticks": 5637,
            "time": 5.1059711125,
            "value": 0
          },
          {
            "number": 64,
            "ticks": 6237,
            "time": 5.6494486125000005,
            "value": 1
          },
          {
            "number": 64,
            "ticks": 7361,
            "time": 6.667563129166667,
            "value": 0
          },
          {
            "number": 64,
            "ticks": 7934,
            "time": 7.186584141666666,
            "value": 1
          },
          {
            "number": 64,
            "ticks": 9505,
            "time": 8.609589395833332,
            "value": 0
          },
          {
            "number": 64,
            "ticks": 10137,
            "time": 9.182052362499999,
            "value": 1
          },
          {
            "number": 64,
            "ticks": 11177,
            "time": 10.124080029166667,
            "value": 0
          },
          {
            "number": 64,
            "ticks": 11777,
            "time": 10.667557529166666,
            "value": 1
          },
          {
            "number": 64,
            "ticks": 13405,
            "time": 12.142193145833334,
            "value": 0
          },
          {
            "number": 64,
            "ticks": 13895,
            "time": 12.586033104166667,
            "value": 1
          },
          {
            "number": 64,
            "ticks": 15047,
            "time": 13.629509904166667,
            "value": 0
          },
          {
            "number": 64,
            "ticks": 15650,
            "time": 14.175704791666666,
            "value": 1
          },
          {
            "number": 64,
            "ticks": 17222,
            "time": 15.599615841666669,
            "value": 0
          },
          {
            "number": 64,
            "ticks": 17793,
            "time": 16.1168252625,
            "value": 1
          },
          {
            "number": 64,
            "ticks": 18924,
            "time": 17.14128035,
            "value": 0
          },
          {
            "number": 64,
            "ticks": 19518,
            "time": 17.679323075,
            "value": 1
          },
          {
            "number": 64,
            "ticks": 21118,
            "time": 19.128596408333333,
            "value": 0
          },
          {
            "number": 64,
            "ticks": 21774,
            "time": 19.722798474999998,
            "value": 1
          },
          {
            "number": 64,
            "ticks": 22762,
            "time": 20.617724758333335,
            "value": 0
          },
          {
            "number": 64,
            "ticks": 23357,
            "time": 21.156673279166668,
            "value": 1
          },
          {
            "number": 64,
            "ticks": 24963,
            "time": 22.6113813875,
            "value": 0
          },
          {
            "number": 64,
            "ticks": 25445,
            "time": 23.047974979166664,
            "value": 1
          },
          {
            "number": 64,
            "ticks": 26575,
            "time": 24.071524270833333,
            "value": 0
          },
          {
            "number": 64,
            "ticks": 27195,
            "time": 24.6331176875,
            "value": 1
          },
          {
            "number": 64,
            "ticks": 28772,
            "time": 26.06155771666667,
            "value": 0
          },
          {
            "number": 64,
            "ticks": 29391,
            "time": 26.6222453375,
            "value": 1
          },
          {
            "number": 64,
            "ticks": 30431,
            "time": 27.564273004166665,
            "value": 0
          },
          {
            "number": 64,
            "ticks": 30974,
            "time": 28.056120141666668,
            "value": 1
          },
          {
            "number": 64,
            "ticks": 32412,
            "time": 29.358654550000004,
            "value": 0
          }
        ],
        "91": [
          {
            "number": 91,
            "ticks": 535,
            "time": 0.4846007708333333,
            "value": 0.4330708661417323
          }
        ],
        "93": [
          {
            "number": 93,
            "ticks": 536,
            "time": 0.4855065666666667,
            "value": 0
          }
        ],
        "100": [
          {
            "number": 100,
            "ticks": 647,
            "time": 0.5860499041666667,
            "value": 0
          },
          {
            "number": 100,
            "ticks": 659,
            "time": 0.5969194541666666,
            "value": 1
          }
        ],
        "101": [
          {
            "number": 101,
            "ticks": 643,
            "time": 0.5824267208333334,
            "value": 0
          },
          {
            "number": 101,
            "ticks": 655,
            "time": 0.5932962708333333,
            "value": 1
          }
        ]
      },
      "pitchBends": [],
      "instrument": {
        "family": "ensemble",
        "number": 48,
        "name": "string ensemble 1"
      },
      "name": "",
      "notes": [
        {
          "duration": 1.4909399416666664,
          "durationTicks": 1646,
          "midi": 37,
          "name": "C#2",
          "ticks": 1920,
          "time": 1.739128,
          "velocity": 0.7322834645669292
        },
        {
          "duration": 1.5172080208333334,
          "durationTicks": 1675,
          "midi": 49,
          "name": "C#3",
          "ticks": 1920,
          "time": 1.739128,
          "velocity": 0.7480314960629921
        },
        {
          "duration": 26.977317304166665,
          "durationTicks": 29783,
          "midi": 56,
          "name": "G#3",
          "ticks": 1920,
          "time": 1.739128,
          "velocity": 0.7480314960629921
        },
        {
          "duration": 1.9365914916666673,
          "durationTicks": 2138,
          "midi": 39,
          "name": "D#2",
          "ticks": 3600,
          "time": 3.260865,
          "velocity": 0.7795275590551181
        },
        {
          "duration": 3.488219754166667,
          "durationTicks": 3851,
          "midi": 51,
          "name": "D#3",
          "ticks": 3600,
          "time": 3.260865,
          "velocity": 0.7401574803149606
        },
        {
          "duration": 1.5489108749999998,
          "durationTicks": 1710,
          "midi": 44,
          "name": "G#2",
          "ticks": 5760,
          "time": 5.217384,
          "velocity": 0.7795275590551181
        },
        {
          "duration": 1.994562424999999,
          "durationTicks": 2202,
          "midi": 41,
          "name": "F2",
          "ticks": 7440,
          "time": 6.739121,
          "velocity": 0.7952755905511811
        },
        {
          "duration": 1.9710117333333335,
          "durationTicks": 2176,
          "midi": 53,
          "name": "F3",
          "ticks": 7440,
          "time": 6.739121,
          "velocity": 0.7401574803149606
        },
        {
          "duration": 1.4719182291666666,
          "durationTicks": 1625,
          "midi": 37,
          "name": "C#2",
          "ticks": 9600,
          "time": 8.695640000000001,
          "velocity": 0.7322834645669292
        },
        {
          "duration": 1.4999978999999986,
          "durationTicks": 1656,
          "midi": 49,
          "name": "C#3",
          "ticks": 9600,
          "time": 8.695640000000001,
          "velocity": 0.7165354330708661
        },
        {
          "duration": 2.0072435666666664,
          "durationTicks": 2216,
          "midi": 39,
          "name": "D#2",
          "ticks": 11280,
          "time": 10.217377,
          "velocity": 0.7322834645669292
        },
        {
          "duration": 3.529886362499999,
          "durationTicks": 3897,
          "midi": 51,
          "name": "D#3",
          "ticks": 11280,
          "time": 10.217377,
          "velocity": 0.7165354330708661
        },
        {
          "duration": 1.5407587125000006,
          "durationTicks": 1701,
          "midi": 44,
          "name": "G#2",
          "ticks": 13440,
          "time": 12.173896,
          "velocity": 0.8188976377952756
        },
        {
          "duration": 1.9628595708333325,
          "durationTicks": 2167,
          "midi": 41,
          "name": "F2",
          "ticks": 15120,
          "time": 13.695633,
          "velocity": 0.7874015748031497
        },
        {
          "duration": 1.9864102624999997,
          "durationTicks": 2193,
          "midi": 53,
          "name": "F3",
          "ticks": 15120,
          "time": 13.695633,
          "velocity": 0.7637795275590551
        },
        {
          "duration": 1.5289833666666652,
          "durationTicks": 1688,
          "midi": 37,
          "name": "C#2",
          "ticks": 17280,
          "time": 15.652152000000001,
          "velocity": 0.7480314960629921
        },
        {
          "duration": 1.5117732458333322,
          "durationTicks": 1669,
          "midi": 49,
          "name": "C#3",
          "ticks": 17280,
          "time": 15.652152000000001,
          "velocity": 0.7401574803149606
        },
        {
          "duration": 2.027171075000002,
          "durationTicks": 2238,
          "midi": 39,
          "name": "D#2",
          "ticks": 18960,
          "time": 17.173889,
          "velocity": 0.7322834645669292
        },
        {
          "duration": 3.4809733875000006,
          "durationTicks": 3843,
          "midi": 51,
          "name": "D#3",
          "ticks": 18960,
          "time": 17.173889,
          "velocity": 0.6850393700787402
        },
        {
          "duration": 1.4927515333333332,
          "durationTicks": 1648,
          "midi": 44,
          "name": "G#2",
          "ticks": 21120,
          "time": 19.130408,
          "velocity": 0.8267716535433071
        },
        {
          "duration": 1.9900334458333333,
          "durationTicks": 2197,
          "midi": 41,
          "name": "F2",
          "ticks": 22800,
          "time": 20.652145,
          "velocity": 0.7480314960629921
        },
        {
          "duration": 2.000902995833332,
          "durationTicks": 2209,
          "midi": 53,
          "name": "F3",
          "ticks": 22800,
          "time": 20.652145,
          "velocity": 0.6456692913385826
        },
        {
          "duration": 1.4565197000000012,
          "durationTicks": 1608,
          "midi": 37,
          "name": "C#2",
          "ticks": 24960,
          "time": 22.608664,
          "velocity": 0.7637795275590551
        },
        {
          "duration": 1.4719182291666648,
          "durationTicks": 1625,
          "midi": 49,
          "name": "C#3",
          "ticks": 24960,
          "time": 22.608664,
          "velocity": 0.7165354330708661
        },
        {
          "duration": 1.9864102625000015,
          "durationTicks": 2193,
          "midi": 39,
          "name": "D#2",
          "ticks": 26640,
          "time": 24.130401,
          "velocity": 0.7322834645669292
        },
        {
          "duration": 3.5153936291666668,
          "durationTicks": 3881,
          "midi": 51,
          "name": "D#3",
          "ticks": 26640,
          "time": 24.130401,
          "velocity": 0.6850393700787402
        },
        {
          "duration": 1.5434760999999995,
          "durationTicks": 1704,
          "midi": 44,
          "name": "G#2",
          "ticks": 28800,
          "time": 26.08692,
          "velocity": 0.7795275590551181
        },
        {
          "duration": 1.126810016666667,
          "durationTicks": 1244,
          "midi": 41,
          "name": "F2",
          "ticks": 30480,
          "time": 27.608657,
          "velocity": 0.7086614173228346
        },
        {
          "duration": 1.0733680624999984,
          "durationTicks": 1185,
          "midi": 53,
          "name": "F3",
          "ticks": 30480,
          "time": 27.608657,
          "velocity": 0.7007874015748031
        }
      ]
    },
    {
      "channel": 0,
      "controlChanges": {
        "0": [
          {
            "number": 0,
            "ticks": 529,
            "time": 0.4791659958333333,
            "value": 0
          }
        ],
        "7": [
          {
            "number": 7,
            "ticks": 0,
            "time": 0,
            "value": 0.7874015748031497
          }
        ],
        "32": [
          {
            "number": 32,
            "ticks": 530,
            "time": 0.4800717916666667,
            "value": 0
          }
        ]
      },
      "pitchBends": [],
      "instrument": {
        "family": "piano",
        "number": 0,
        "name": "acoustic grand piano"
      },
      "name": "Strings (High)",
      "notes": [],
      "endOfTrackTicks": 32614
    },
    {
      "channel": 5,
      "controlChanges": {
        "6": [
          {
            "number": 6,
            "ticks": 651,
            "time": 0.5896730875,
            "value": 0.015748031496062992
          }
        ],
        "7": [
          {
            "number": 7,
            "ticks": 532,
            "time": 0.48188338333333336,
            "value": 0.7874015748031497
          },
          {
            "number": 7,
            "ticks": 28230,
            "time": 25.570616375,
            "value": 0.7874015748031497
          },
          {
            "number": 7,
            "ticks": 30795,
            "time": 27.8939826875,
            "value": 0.7874015748031497
          },
          {
            "number": 7,
            "ticks": 30796,
            "time": 27.894888483333332,
            "value": 0.7795275590551181
          },
          {
            "number": 7,
            "ticks": 30870,
            "time": 27.961917375,
            "value": 0.7716535433070866
          },
          {
            "number": 7,
            "ticks": 30923,
            "time": 28.009924554166666,
            "value": 0.7637795275590551
          },
          {
            "number": 7,
            "ticks": 30976,
            "time": 28.057931733333334,
            "value": 0.7559055118110236
          },
          {
            "number": 7,
            "ticks": 31013,
            "time": 28.091446179166667,
            "value": 0.7480314960629921
          },
          {
            "number": 7,
            "ticks": 31030,
            "time": 28.10684470833333,
            "value": 0.7401574803149606
          },
          {
            "number": 7,
            "ticks": 31030,
            "time": 28.10684470833333,
            "value": 0.7322834645669292
          },
          {
            "number": 7,
            "ticks": 31070,
            "time": 28.14307654166667,
            "value": 0.7244094488188977
          },
          {
            "number": 7,
            "ticks": 31121,
            "time": 28.189272129166664,
            "value": 0.7165354330708661
          },
          {
            "number": 7,
            "ticks": 31146,
            "time": 28.211917025,
            "value": 0.7086614173228346
          },
          {
            "number": 7,
            "ticks": 31146,
            "time": 28.211917025,
            "value": 0.7007874015748031
          },
          {
            "number": 7,
            "ticks": 31171,
            "time": 28.234561920833332,
            "value": 0.6929133858267716
          },
          {
            "number": 7,
            "ticks": 31196,
            "time": 28.257206816666663,
            "value": 0.6850393700787402
          },
          {
            "number": 7,
            "ticks": 31256,
            "time": 28.311554566666665,
            "value": 0.6771653543307087
          },
          {
            "number": 7,
            "ticks": 31284,
            "time": 28.336916849999998,
            "value": 0.6692913385826772
          },
          {
            "number": 7,
            "ticks": 31311,
            "time": 28.3613733375,
            "value": 0.6614173228346457
          },
          {
            "number": 7,
            "ticks": 31436,
            "time": 28.474597816666662,
            "value": 0.6535433070866141
          },
          {
            "number": 7,
            "ticks": 31456,
            "time": 28.492713733333332,
            "value": 0.6456692913385826
          },
          {
            "number": 7,
            "ticks": 31476,
            "time": 28.51082965,
            "value": 0.6377952755905512
          },
          {
            "number": 7,
            "ticks": 31570,
            "time": 28.59597445833333,
            "value": 0.6299212598425197
          },
          {
            "number": 7,
            "ticks": 31597,
            "time": 28.620430945833334,
            "value": 0.6220472440944882
          },
          {
            "number": 7,
            "ticks": 31623,
            "time": 28.643981637499998,
            "value": 0.6141732283464567
          },
          {
            "number": 7,
            "ticks": 31643,
            "time": 28.662097554166667,
            "value": 0.6062992125984252
          },
          {
            "number": 7,
            "ticks": 31670,
            "time": 28.686554041666668,
            "value": 0.5984251968503937
          },
          {
            "number": 7,
            "ticks": 31696,
            "time": 28.71010473333333,
            "value": 0.5905511811023622
          },
          {
            "number": 7,
            "ticks": 31750,
            "time": 28.75901770833333,
            "value": 0.5826771653543307
          },
          {
            "number": 7,
            "ticks": 31777,
            "time": 28.783474195833335,
            "value": 0.5748031496062992
          },
          {
            "number": 7,
            "ticks": 31803,
            "time": 28.8070248875,
            "value": 0.5669291338582677
          },
          {
            "number": 7,
            "ticks": 31843,
            "time": 28.843256720833335,
            "value": 0.5590551181102362
          },
          {
            "number": 7,
            "ticks": 31873,
            "time": 28.870430595833334,
            "value": 0.5511811023622047
          },
          {
            "number": 7,
            "ticks": 31903,
            "time": 28.897604470833336,
            "value": 0.5433070866141733
          },
          {
            "number": 7,
            "ticks": 31930,
            "time": 28.922060958333333,
            "value": 0.5354330708661418
          },
          {
            "number": 7,
            "ticks": 31950,
            "time": 28.940176875,
            "value": 0.5275590551181102
          },
          {
            "number": 7,
            "ticks": 31970,
            "time": 28.95829279166667,
            "value": 0.5196850393700787
          },
          {
            "number": 7,
            "ticks": 32010,
            "time": 28.994524625,
            "value": 0.5118110236220472
          },
          {
            "number": 7,
            "ticks": 32027,
            "time": 29.009923154166664,
            "value": 0.5039370078740157
          },
          {
            "number": 7,
            "ticks": 32043,
            "time": 29.0244158875,
            "value": 0.49606299212598426
          },
          {
            "number": 7,
            "ticks": 32083,
            "time": 29.060647720833334,
            "value": 0.4881889763779528
          },
          {
            "number": 7,
            "ticks": 32091,
            "time": 29.0678940875,
            "value": 0.48031496062992124
          },
          {
            "number": 7,
            "ticks": 32098,
            "time": 29.074234658333335,
            "value": 0.47244094488188976
          },
          {
            "number": 7,
            "ticks": 32103,
            "time": 29.078763637499996,
            "value": 0.4645669291338583
          },
          {
            "number": 7,
            "ticks": 32123,
            "time": 29.096879554166666,
            "value": 0.4566929133858268
          },
          {
            "number": 7,
            "ticks": 32143,
            "time": 29.114995470833335,
            "value": 0.44881889763779526
          },
          {
            "number": 7,
            "ticks": 32250,
            "time": 29.211915625,
            "value": 0.4409448818897638
          },
          {
            "number": 7,
            "ticks": 32456,
            "time": 29.398509566666664,
            "value": 0.4409448818897638
          },
          {
            "number": 7,
            "ticks": 32464,
            "time": 29.405755933333335,
            "value": 0.44881889763779526
          },
          {
            "number": 7,
            "ticks": 32471,
            "time": 29.412096504166662,
            "value": 0.4566929133858268
          },
          {
            "number": 7,
            "ticks": 32479,
            "time": 29.419342870833336,
            "value": 0.47244094488188976
          },
          {
            "number": 7,
            "ticks": 32486,
            "time": 29.425683441666663,
            "value": 0.48031496062992124
          },
          {
            "number": 7,
            "ticks": 32494,
            "time": 29.432929808333338,
            "value": 0.4881889763779528
          },
          {
            "number": 7,
            "ticks": 32501,
            "time": 29.439270379166665,
            "value": 0.5039370078740157
          },
          {
            "number": 7,
            "ticks": 32509,
            "time": 29.446516745833335,
            "value": 0.5118110236220472
          },
          {
            "number": 7,
            "ticks": 32516,
            "time": 29.452857316666663,
            "value": 0.5275590551181102
          },
          {
            "number": 7,
            "ticks": 32524,
            "time": 29.460103683333337,
            "value": 0.5354330708661418
          },
          {
            "number": 7,
            "ticks": 32531,
            "time": 29.466444254166664,
            "value": 0.5433070866141733
          },
          {
            "number": 7,
            "ticks": 32539,
            "time": 29.473690620833338,
            "value": 0.5590551181102362
          },
          {
            "number": 7,
            "ticks": 32546,
            "time": 29.480031191666665,
            "value": 0.5669291338582677
          },
          {
            "number": 7,
            "ticks": 32554,
            "time": 29.487277558333336,
            "value": 0.5748031496062992
          },
          {
            "number": 7,
            "ticks": 32561,
            "time": 29.493618129166663,
            "value": 0.5905511811023622
          },
          {
            "number": 7,
            "ticks": 32569,
            "time": 29.500864495833337,
            "value": 0.5984251968503937
          },
          {
            "number": 7,
            "ticks": 32576,
            "time": 29.507205066666664,
            "value": 0.6141732283464567
          },
          {
            "number": 7,
            "ticks": 32584,
            "time": 29.514451433333335,
            "value": 0.6220472440944882
          },
          {
            "number": 7,
            "ticks": 32591,
            "time": 29.520792004166665,
            "value": 0.6299212598425197
          },
          {
            "number": 7,
            "ticks": 32599,
            "time": 29.528038370833336,
            "value": 0.6456692913385826
          },
          {
            "number": 7,
            "ticks": 32606,
            "time": 29.534378941666663,
            "value": 0.6535433070866141
          },
          {
            "number": 7,
            "ticks": 32614,
            "time": 29.541625308333337,
            "value": 0.6614173228346457
          }
        ],
        "10": [
          {
            "number": 10,
            "ticks": 533,
            "time": 0.48278917916666664,
            "value": 0.5039370078740157
          }
        ],
        "11": [
          {
            "number": 11,
            "ticks": 534,
            "time": 0.483694975,
            "value": 1
          }
        ],
        "64": [
          {
            "number": 64,
            "ticks": 2523,
            "time": 2.2853228875,
            "value": 1
          },
          {
            "number": 64,
            "ticks": 3650,
            "time": 3.3061547916666667,
            "value": 0
          },
          {
            "number": 64,
            "ticks": 3989,
            "time": 3.6132195791666666,
            "value": 1
          },
          {
            "number": 64,
            "ticks": 5733,
            "time": 5.1929275125,
            "value": 0
          },
          {
            "number": 64,
            "ticks": 6246,
            "time": 5.657600775,
            "value": 1
          },
          {
            "number": 64,
            "ticks": 7459,
            "time": 6.756331120833333,
            "value": 0
          },
          {
            "number": 64,
            "ticks": 7941,
            "time": 7.1929247125,
            "value": 1
          },
          {
            "number": 64,
            "ticks": 9571,
            "time": 8.669371920833335,
            "value": 0
          },
          {
            "number": 64,
            "ticks": 9974,
            "time": 9.034407641666666,
            "value": 1
          },
          {
            "number": 64,
            "ticks": 11275,
            "time": 10.212848020833333,
            "value": 0
          },
          {
            "number": 64,
            "ticks": 11673,
            "time": 10.573354762500001,
            "value": 1
          },
          {
            "number": 64,
            "ticks": 13446,
            "time": 12.179330775,
            "value": 0
          },
          {
            "number": 64,
            "ticks": 13787,
            "time": 12.488207154166666,
            "value": 1
          },
          {
            "number": 64,
            "ticks": 15088,
            "time": 13.666647533333334,
            "value": 0
          },
          {
            "number": 64,
            "ticks": 15427,
            "time": 13.973712320833334,
            "value": 1
          },
          {
            "number": 64,
            "ticks": 17316,
            "time": 15.684760650000001,
            "value": 0
          },
          {
            "number": 64,
            "ticks": 17738,
            "time": 16.067006491666668,
            "value": 1
          },
          {
            "number": 64,
            "ticks": 18958,
            "time": 17.172077408333333,
            "value": 0
          },
          {
            "number": 64,
            "ticks": 19326,
            "time": 17.505410275000003,
            "value": 1
          },
          {
            "number": 64,
            "ticks": 21132,
            "time": 19.141277549999998,
            "value": 0
          },
          {
            "number": 64,
            "ticks": 21726,
            "time": 19.679320275000002,
            "value": 1
          },
          {
            "number": 64,
            "ticks": 22776,
            "time": 20.630405900000003,
            "value": 0
          },
          {
            "number": 64,
            "ticks": 23453,
            "time": 21.243629679166666,
            "value": 1
          },
          {
            "number": 64,
            "ticks": 24950,
            "time": 22.599606041666664,
            "value": 0
          },
          {
            "number": 64,
            "ticks": 25488,
            "time": 23.086924200000002,
            "value": 1
          },
          {
            "number": 64,
            "ticks": 26652,
            "time": 24.141270549999998,
            "value": 0
          },
          {
            "number": 64,
            "ticks": 27159,
            "time": 24.6005090375,
            "value": 1
          },
          {
            "number": 64,
            "ticks": 28766,
            "time": 26.05612294166667,
            "value": 0
          },
          {
            "number": 64,
            "ticks": 29310,
            "time": 26.548875875,
            "value": 1
          },
          {
            "number": 64,
            "ticks": 30475,
            "time": 27.604128020833336,
            "value": 0
          },
          {
            "number": 64,
            "ticks": 30814,
            "time": 27.911192808333336,
            "value": 1
          },
          {
            "number": 64,
            "ticks": 32254,
            "time": 29.215538808333335,
            "value": 0
          }
        ],
        "91": [
          {
            "number": 91,
            "ticks": 535,
            "time": 0.4846007708333333,
            "value": 0.4330708661417323
          }
        ],
        "93": [
          {
            "number": 93,
            "ticks": 536,
            "time": 0.4855065666666667,
            "value": 0
          }
        ],
        "100": [
          {
            "number": 100,
            "ticks": 647,
            "time": 0.5860499041666667,
            "value": 0
          },
          {
            "number": 100,
            "ticks": 659,
            "time": 0.5969194541666666,
            "value": 1
          }
        ],
        "101": [
          {
            "number": 101,
            "ticks": 643,
            "time": 0.5824267208333334,
            "value": 0
          },
          {
            "number": 101,
            "ticks": 655,
            "time": 0.5932962708333333,
            "value": 1
          }
        ]
      },
      "pitchBends": [],
      "instrument": {
        "family": "ensemble",
        "number": 48,
        "name": "string ensemble 1"
      },
      "name": "",
      "notes": [
        {
          "duration": 1.5317007541666663,
          "durationTicks": 1691,
          "midi": 68,
          "name": "G#4",
          "ticks": 1920,
          "time": 1.739128,
          "velocity": 0.6692913385826772
        },
        {
          "duration": 1.5452876916666667,
          "durationTicks": 1706,
          "midi": 72,
          "name": "C5",
          "ticks": 1920,
          "time": 1.739128,
          "velocity": 0.7322834645669292
        },
        {
          "duration": 1.9628595708333334,
          "durationTicks": 2167,
          "midi": 70,
          "name": "A#4",
          "ticks": 3600,
          "time": 3.260865,
          "velocity": 0.6377952755905512
        },
        {
          "duration": 1.9284393291666673,
          "durationTicks": 2129,
          "midi": 73,
          "name": "C#5",
          "ticks": 3600,
          "time": 3.260865,
          "velocity": 0.6614173228346457
        },
        {
          "duration": 1.5199254083333331,
          "durationTicks": 1678,
          "midi": 72,
          "name": "C5",
          "ticks": 5760,
          "time": 5.217384,
          "velocity": 0.7322834645669292
        },
        {
          "duration": 1.5788021374999994,
          "durationTicks": 1743,
          "midi": 75,
          "name": "D#5",
          "ticks": 5760,
          "time": 5.217384,
          "velocity": 0.6377952755905512
        },
        {
          "duration": 1.721917879166667,
          "durationTicks": 1901,
          "midi": 67,
          "name": "G4",
          "ticks": 7440,
          "time": 6.739121,
          "velocity": 0.7086614173228346
        },
        {
          "duration": 1.9465552458333333,
          "durationTicks": 2149,
          "midi": 70,
          "name": "A#4",
          "ticks": 7440,
          "time": 6.739121,
          "velocity": 0.5826771653543307
        },
        {
          "duration": 1.503621083333332,
          "durationTicks": 1660,
          "midi": 68,
          "name": "G#4",
          "ticks": 9600,
          "time": 8.695640000000001,
          "velocity": 0.6850393700787402
        },
        {
          "duration": 1.5307949583333311,
          "durationTicks": 1690,
          "midi": 72,
          "name": "C5",
          "ticks": 9600,
          "time": 8.695640000000001,
          "velocity": 0.7874015748031497
        },
        {
          "duration": 1.994562424999998,
          "durationTicks": 2202,
          "midi": 70,
          "name": "A#4",
          "ticks": 11280,
          "time": 10.217377,
          "velocity": 0.6141732283464567
        },
        {
          "duration": 1.9782580999999997,
          "durationTicks": 2184,
          "midi": 73,
          "name": "C#5",
          "ticks": 11280,
          "time": 10.217377,
          "velocity": 0.6929133858267716
        },
        {
          "duration": 1.475541412500002,
          "durationTicks": 1629,
          "midi": 72,
          "name": "C5",
          "ticks": 13440,
          "time": 12.173896,
          "velocity": 0.7322834645669292
        },
        {
          "duration": 1.4538023125000006,
          "durationTicks": 1605,
          "midi": 75,
          "name": "D#5",
          "ticks": 13440,
          "time": 12.173896,
          "velocity": 0.6614173228346457
        },
        {
          "duration": 0.6730063041666661,
          "durationTicks": 743,
          "midi": 67,
          "name": "G4",
          "ticks": 15120,
          "time": 13.695633,
          "velocity": 0.7480314960629921
        },
        {
          "duration": 0.7961945374999981,
          "durationTicks": 879,
          "midi": 70,
          "name": "A#4",
          "ticks": 15120,
          "time": 13.695633,
          "velocity": 0.5590551181102362
        },
        {
          "duration": 1.5072442666666674,
          "durationTicks": 1664,
          "midi": 68,
          "name": "G#4",
          "ticks": 17280,
          "time": 15.652152000000001,
          "velocity": 0.7165354330708661
        },
        {
          "duration": 1.5027152874999992,
          "durationTicks": 1659,
          "midi": 80,
          "name": "G#5",
          "ticks": 17280,
          "time": 15.652152000000001,
          "velocity": 0.7007874015748031
        },
        {
          "duration": 1.5117732458333322,
          "durationTicks": 1669,
          "midi": 84,
          "name": "C6",
          "ticks": 17280,
          "time": 15.652152000000001,
          "velocity": 0.7480314960629921
        },
        {
          "duration": 2.0226420958333335,
          "durationTicks": 2233,
          "midi": 70,
          "name": "A#4",
          "ticks": 18960,
          "time": 17.173889,
          "velocity": 0.6850393700787402
        },
        {
          "duration": 2.0072435666666664,
          "durationTicks": 2216,
          "midi": 82,
          "name": "A#5",
          "ticks": 18960,
          "time": 17.173889,
          "velocity": 0.6220472440944882
        },
        {
          "duration": 2.0226420958333335,
          "durationTicks": 2233,
          "midi": 85,
          "name": "C#6",
          "ticks": 18960,
          "time": 17.173889,
          "velocity": 0.6535433070866141
        },
        {
          "duration": 1.5081500625000004,
          "durationTicks": 1665,
          "midi": 72,
          "name": "C5",
          "ticks": 21120,
          "time": 19.130408,
          "velocity": 0.7401574803149606
        },
        {
          "duration": 1.4719182291666648,
          "durationTicks": 1625,
          "midi": 84,
          "name": "C6",
          "ticks": 21120,
          "time": 19.130408,
          "velocity": 0.6220472440944882
        },
        {
          "duration": 1.5036210833333357,
          "durationTicks": 1660,
          "midi": 87,
          "name": "D#6",
          "ticks": 21120,
          "time": 19.130408,
          "velocity": 0.6220472440944882
        },
        {
          "duration": 1.9864102625000015,
          "durationTicks": 2193,
          "midi": 67,
          "name": "G4",
          "ticks": 22800,
          "time": 20.652145,
          "velocity": 0.7244094488188977
        },
        {
          "duration": 1.9456494500000012,
          "durationTicks": 2148,
          "midi": 79,
          "name": "G5",
          "ticks": 22800,
          "time": 20.652145,
          "velocity": 0.6771653543307087
        },
        {
          "duration": 1.975540712499999,
          "durationTicks": 2181,
          "midi": 82,
          "name": "A#5",
          "ticks": 22800,
          "time": 20.652145,
          "velocity": 0.5905511811023622
        },
        {
          "duration": 1.4999979000000003,
          "durationTicks": 1656,
          "midi": 68,
          "name": "G#4",
          "ticks": 24960,
          "time": 22.608664,
          "velocity": 0.6850393700787402
        },
        {
          "duration": 1.4990921041666638,
          "durationTicks": 1655,
          "midi": 80,
          "name": "G#5",
          "ticks": 24960,
          "time": 22.608664,
          "velocity": 0.5826771653543307
        },
        {
          "duration": 1.4746356166666637,
          "durationTicks": 1628,
          "midi": 84,
          "name": "C6",
          "ticks": 24960,
          "time": 22.608664,
          "velocity": 0.6456692913385826
        },
        {
          "duration": 1.7074251458333336,
          "durationTicks": 1885,
          "midi": 67,
          "name": "G4",
          "ticks": 26640,
          "time": 24.130401,
          "velocity": 0.7007874015748031
        },
        {
          "duration": 1.5869543000000021,
          "durationTicks": 1752,
          "midi": 79,
          "name": "G5",
          "ticks": 26640,
          "time": 24.130401,
          "velocity": 0.6535433070866141
        },
        {
          "duration": 1.605976012500001,
          "durationTicks": 1773,
          "midi": 82,
          "name": "A#5",
          "ticks": 26640,
          "time": 24.130401,
          "velocity": 0.5433070866141733
        },
        {
          "duration": 1.5226427958333346,
          "durationTicks": 1681,
          "midi": 67,
          "name": "G4",
          "ticks": 28800,
          "time": 26.08692,
          "velocity": 0.7952755905511811
        },
        {
          "duration": 1.4710124333333354,
          "durationTicks": 1624,
          "midi": 79,
          "name": "G5",
          "ticks": 28800,
          "time": 26.08692,
          "velocity": 0.7086614173228346
        },
        {
          "duration": 1.5099616541666698,
          "durationTicks": 1667,
          "midi": 82,
          "name": "A#5",
          "ticks": 28800,
          "time": 26.08692,
          "velocity": 0.5905511811023622
        },
        {
          "duration": 0.7726438458333327,
          "durationTicks": 853,
          "midi": 68,
          "name": "G#4",
          "ticks": 30480,
          "time": 27.608657,
          "velocity": 0.6220472440944882
        },
        {
          "duration": 0.7146729124999993,
          "durationTicks": 789,
          "midi": 80,
          "name": "G#5",
          "ticks": 30480,
          "time": 27.608657,
          "velocity": 0.6141732283464567
        },
        {
          "duration": 0.674817895833332,
          "durationTicks": 745,
          "midi": 84,
          "name": "C6",
          "ticks": 30480,
          "time": 27.608657,
          "velocity": 0.5984251968503937
        }
      ]
    },
    {
      "channel": 0,
      "controlChanges": {
        "0": [
          {
            "number": 0,
            "ticks": 529,
            "time": 0.4791659958333333,
            "value": 0
          }
        ],
        "32": [
          {
            "number": 32,
            "ticks": 530,
            "time": 0.4800717916666667,
            "value": 0
          }
        ]
      },
      "pitchBends": [],
      "instrument": {
        "family": "piano",
        "number": 0,
        "name": "acoustic grand piano"
      },
      "name": "Tubular Bell",
      "notes": [],
      "endOfTrackTicks": 31318
    },
    {
      "channel": 6,
      "controlChanges": {
        "6": [
          {
            "number": 6,
            "ticks": 651,
            "time": 0.5896730875,
            "value": 0.015748031496062992
          }
        ],
        "7": [
          {
            "number": 7,
            "ticks": 532,
            "time": 0.48188338333333336,
            "value": 0.8661417322834646
          }
        ],
        "10": [
          {
            "number": 10,
            "ticks": 533,
            "time": 0.48278917916666664,
            "value": 0.5039370078740157
          }
        ],
        "11": [
          {
            "number": 11,
            "ticks": 534,
            "time": 0.483694975,
            "value": 1
          }
        ],
        "91": [
          {
            "number": 91,
            "ticks": 535,
            "time": 0.4846007708333333,
            "value": 0.4330708661417323
          }
        ],
        "93": [
          {
            "number": 93,
            "ticks": 536,
            "time": 0.4855065666666667,
            "value": 0
          }
        ],
        "100": [
          {
            "number": 100,
            "ticks": 647,
            "time": 0.5860499041666667,
            "value": 0
          },
          {
            "number": 100,
            "ticks": 659,
            "time": 0.5969194541666666,
            "value": 1
          }
        ],
        "101": [
          {
            "number": 101,
            "ticks": 643,
            "time": 0.5824267208333334,
            "value": 0
          },
          {
            "number": 101,
            "ticks": 655,
            "time": 0.5932962708333333,
            "value": 1
          }
        ]
      },
      "pitchBends": [],
      "instrument": {
        "family": "chromatic percussion",
        "number": 14,
        "name": "tubular bells"
      },
      "name": "",
      "notes": [
        {
          "duration": 0.10597811249999989,
          "durationTicks": 117,
          "midi": 68,
          "name": "G#4",
          "ticks": 2400,
          "time": 2.1739100000000002,
          "velocity": 0.8740157480314961
        },
        {
          "duration": 0.09963754166666705,
          "durationTicks": 110,
          "midi": 68,
          "name": "G#4",
          "ticks": 3360,
          "time": 3.043474,
          "velocity": 0.8740157480314961
        },
        {
          "duration": 0.11322447916666611,
          "durationTicks": 125,
          "midi": 68,
          "name": "G#4",
          "ticks": 4320,
          "time": 3.9130380000000002,
          "velocity": 0.905511811023622
        },
        {
          "duration": 0.12318823333333384,
          "durationTicks": 136,
          "midi": 68,
          "name": "G#4",
          "ticks": 5280,
          "time": 4.782602,
          "velocity": 0.8976377952755905
        },
        {
          "duration": 0.11050709166666639,
          "durationTicks": 122,
          "midi": 68,
          "name": "G#4",
          "ticks": 6240,
          "time": 5.652166,
          "velocity": 0.889763779527559
        },
        {
          "duration": 0.10960129583333345,
          "durationTicks": 121,
          "midi": 68,
          "name": "G#4",
          "ticks": 7200,
          "time": 6.52173,
          "velocity": 0.8740157480314961
        },
        {
          "duration": 0.12137664166666529,
          "durationTicks": 134,
          "midi": 68,
          "name": "G#4",
          "ticks": 8160,
          "time": 7.391294,
          "velocity": 0.84251968503937
        },
        {
          "duration": 0.11775345833333262,
          "durationTicks": 130,
          "midi": 68,
          "name": "G#4",
          "ticks": 9120,
          "time": 8.260858,
          "velocity": 0.8661417322834646
        },
        {
          "duration": 0.12047084583333323,
          "durationTicks": 133,
          "midi": 68,
          "name": "G#4",
          "ticks": 10080,
          "time": 9.130422,
          "velocity": 0.8740157480314961
        },
        {
          "duration": 0.11594186666666673,
          "durationTicks": 128,
          "midi": 68,
          "name": "G#4",
          "ticks": 11040,
          "time": 9.999986,
          "velocity": 0.8740157480314961
        },
        {
          "duration": 0.10326072500000016,
          "durationTicks": 114,
          "midi": 68,
          "name": "G#4",
          "ticks": 12000,
          "time": 10.86955,
          "velocity": 0.889763779527559
        },
        {
          "duration": 0.10416652083333133,
          "durationTicks": 115,
          "midi": 68,
          "name": "G#4",
          "ticks": 12960,
          "time": 11.739114,
          "velocity": 0.8740157480314961
        },
        {
          "duration": 0.10960129583333433,
          "durationTicks": 121,
          "midi": 68,
          "name": "G#4",
          "ticks": 13920,
          "time": 12.608678,
          "velocity": 0.889763779527559
        },
        {
          "duration": 0.105978112499999,
          "durationTicks": 117,
          "midi": 68,
          "name": "G#4",
          "ticks": 14880,
          "time": 13.478242,
          "velocity": 0.8740157480314961
        },
        {
          "duration": 0.11050709166666728,
          "durationTicks": 122,
          "midi": 68,
          "name": "G#4",
          "ticks": 15840,
          "time": 14.347806,
          "velocity": 0.8740157480314961
        },
        {
          "duration": 0.11050709166666728,
          "durationTicks": 122,
          "midi": 68,
          "name": "G#4",
          "ticks": 16800,
          "time": 15.21737,
          "velocity": 0.889763779527559
        },
        {
          "duration": 0.11956504999999851,
          "durationTicks": 132,
          "midi": 68,
          "name": "G#4",
          "ticks": 17760,
          "time": 16.086934,
          "velocity": 0.8976377952755905
        },
        {
          "duration": 0.12499982499999973,
          "durationTicks": 138,
          "midi": 68,
          "name": "G#4",
          "ticks": 18720,
          "time": 16.956498,
          "velocity": 0.905511811023622
        },
        {
          "duration": 0.12137664166666795,
          "durationTicks": 134,
          "midi": 68,
          "name": "G#4",
          "ticks": 19680,
          "time": 17.826062,
          "velocity": 0.8976377952755905
        },
        {
          "duration": 0.12590562083333268,
          "durationTicks": 139,
          "midi": 68,
          "name": "G#4",
          "ticks": 20640,
          "time": 18.695626,
          "velocity": 0.8976377952755905
        },
        {
          "duration": 0.11413027500000084,
          "durationTicks": 126,
          "midi": 68,
          "name": "G#4",
          "ticks": 21600,
          "time": 19.56519,
          "velocity": 0.8503937007874016
        },
        {
          "duration": 0.10507231666666428,
          "durationTicks": 116,
          "midi": 68,
          "name": "G#4",
          "ticks": 22560,
          "time": 20.434754,
          "velocity": 0.889763779527559
        },
        {
          "duration": 0.11050709166666906,
          "durationTicks": 122,
          "midi": 68,
          "name": "G#4",
          "ticks": 23520,
          "time": 21.304318,
          "velocity": 0.8740157480314961
        },
        {
          "duration": 0.11503607083333378,
          "durationTicks": 127,
          "midi": 68,
          "name": "G#4",
          "ticks": 24480,
          "time": 22.173882,
          "velocity": 0.8976377952755905
        },
        {
          "duration": 0.11231868333333495,
          "durationTicks": 124,
          "midi": 68,
          "name": "G#4",
          "ticks": 25440,
          "time": 23.043446,
          "velocity": 0.9133858267716536
        },
        {
          "duration": 0.11503607083333378,
          "durationTicks": 127,
          "midi": 68,
          "name": "G#4",
          "ticks": 26400,
          "time": 23.91301,
          "velocity": 0.889763779527559
        },
        {
          "duration": 0.10688390833333017,
          "durationTicks": 118,
          "midi": 68,
          "name": "G#4",
          "ticks": 27360,
          "time": 24.782574,
          "velocity": 0.889763779527559
        },
        {
          "duration": 0.10235492916666544,
          "durationTicks": 113,
          "midi": 68,
          "name": "G#4",
          "ticks": 28320,
          "time": 25.652138,
          "velocity": 0.8661417322834646
        },
        {
          "duration": 0.09963754166666305,
          "durationTicks": 110,
          "midi": 68,
          "name": "G#4",
          "ticks": 29280,
          "time": 26.521702,
          "velocity": 0.8976377952755905
        },
        {
          "duration": 0.09782595000000072,
          "durationTicks": 108,
          "midi": 68,
          "name": "G#4",
          "ticks": 30240,
          "time": 27.391266,
          "velocity": 0.8503937007874016
        },
        {
          "duration": 0.10688390833333727,
          "durationTicks": 118,
          "midi": 68,
          "name": "G#4",
          "ticks": 31200,
          "time": 28.26083,
          "velocity": 0.84251968503937
        }
      ]
    },
    {
      "channel": 0,
      "controlChanges": {
        "0": [
          {
            "number": 0,
            "ticks": 529,
            "time": 0.4791659958333333,
            "value": 0
          }
        ],
        "32": [
          {
            "number": 32,
            "ticks": 530,
            "time": 0.4800717916666667,
            "value": 0
          }
        ]
      },
      "pitchBends": [],
      "instrument": {
        "family": "piano",
        "number": 0,
        "name": "acoustic grand piano"
      },
      "name": "Timpani",
      "notes": [],
      "endOfTrackTicks": 17399
    },
    {
      "channel": 7,
      "controlChanges": {
        "6": [
          {
            "number": 6,
            "ticks": 651,
            "time": 0.5896730875,
            "value": 0.015748031496062992
          }
        ],
        "7": [
          {
            "number": 7,
            "ticks": 532,
            "time": 0.48188338333333336,
            "value": 0.8661417322834646
          }
        ],
        "10": [
          {
            "number": 10,
            "ticks": 533,
            "time": 0.48278917916666664,
            "value": 0.5039370078740157
          }
        ],
        "11": [
          {
            "number": 11,
            "ticks": 534,
            "time": 0.483694975,
            "value": 1
          }
        ],
        "91": [
          {
            "number": 91,
            "ticks": 535,
            "time": 0.4846007708333333,
            "value": 0.4330708661417323
          }
        ],
        "93": [
          {
            "number": 93,
            "ticks": 536,
            "time": 0.4855065666666667,
            "value": 0
          }
        ],
        "100": [
          {
            "number": 100,
            "ticks": 647,
            "time": 0.5860499041666667,
            "value": 0
          },
          {
            "number": 100,
            "ticks": 659,
            "time": 0.5969194541666666,
            "value": 1
          }
        ],
        "101": [
          {
            "number": 101,
            "ticks": 643,
            "time": 0.5824267208333334,
            "value": 0
          },
          {
            "number": 101,
            "ticks": 655,
            "time": 0.5932962708333333,
            "value": 1
          }
        ]
      },
      "pitchBends": [],
      "instrument": {
        "family": "strings",
        "number": 47,
        "name": "timpani"
      },
      "name": "",
      "notes": [
        {
          "duration": 0.11413027500000017,
          "durationTicks": 126,
          "midi": 44,
          "name": "G#2",
          "ticks": 1920,
          "time": 1.739128,
          "velocity": 0.905511811023622
        },
        {
          "duration": 0.04891297500000036,
          "durationTicks": 54,
          "midi": 44,
          "name": "G#2",
          "ticks": 9360,
          "time": 8.478249,
          "velocity": 0.5905511811023622
        },
        {
          "duration": 0.06521730000000048,
          "durationTicks": 72,
          "midi": 44,
          "name": "G#2",
          "ticks": 9480,
          "time": 8.5869445,
          "velocity": 0.7322834645669292
        },
        {
          "duration": 0.10778970416666489,
          "durationTicks": 119,
          "midi": 44,
          "name": "G#2",
          "ticks": 9600,
          "time": 8.695640000000001,
          "velocity": 0.8976377952755905
        },
        {
          "duration": 0.04891297499999858,
          "durationTicks": 54,
          "midi": 44,
          "name": "G#2",
          "ticks": 17040,
          "time": 15.434761,
          "velocity": 0.5905511811023622
        },
        {
          "duration": 0.06521730000000048,
          "durationTicks": 72,
          "midi": 44,
          "name": "G#2",
          "ticks": 17160,
          "time": 15.5434565,
          "velocity": 0.7322834645669292
        },
        {
          "duration": 0.10778970416666667,
          "durationTicks": 119,
          "midi": 44,
          "name": "G#2",
          "ticks": 17280,
          "time": 15.652152000000001,
          "velocity": 0.8976377952755905
        }
      ]
    },
    {
      "channel": 0,
      "controlChanges": {
        "0": [
          {
            "number": 0,
            "ticks": 529,
            "time": 0.4791659958333333,
            "value": 0
          }
        ],
        "32": [
          {
            "number": 32,
            "ticks": 530,
            "time": 0.4800717916666667,
            "value": 0
          }
        ]
      },
      "pitchBends": [],
      "instrument": {
        "family": "piano",
        "number": 0,
        "name": "acoustic grand piano"
      },
      "name": "Organ 2",
      "notes": [],
      "endOfTrackTicks": 32503
    },
    {
      "channel": 8,
      "controlChanges": {
        "6": [
          {
            "number": 6,
            "ticks": 651,
            "time": 0.5896730875,
            "value": 0.015748031496062992
          }
        ],
        "7": [
          {
            "number": 7,
            "ticks": 532,
            "time": 0.48188338333333336,
            "value": 0.8661417322834646
          },
          {
            "number": 7,
            "ticks": 17703,
            "time": 16.0353036375,
            "value": 0.8661417322834646
          },
          {
            "number": 7,
            "ticks": 17975,
            "time": 16.281680104166664,
            "value": 0.8661417322834646
          },
          {
            "number": 7,
            "ticks": 17976,
            "time": 16.2825859,
            "value": 0.8582677165354331
          },
          {
            "number": 7,
            "ticks": 18143,
            "time": 16.433853804166667,
            "value": 0.8503937007874016
          },
          {
            "number": 7,
            "ticks": 18218,
            "time": 16.501788491666666,
            "value": 0.84251968503937
          },
          {
            "number": 7,
            "ticks": 18292,
            "time": 16.568817383333332,
            "value": 0.8346456692913385
          },
          {
            "number": 7,
            "ticks": 18449,
            "time": 16.71102732916667,
            "value": 0.8267716535433071
          },
          {
            "number": 7,
            "ticks": 18481,
            "time": 16.740012795833334,
            "value": 0.8188976377952756
          },
          {
            "number": 7,
            "ticks": 18511,
            "time": 16.767186670833333,
            "value": 0.8110236220472441
          },
          {
            "number": 7,
            "ticks": 18690,
            "time": 16.929324125,
            "value": 0.8031496062992126
          },
          {
            "number": 7,
            "ticks": 18720,
            "time": 16.956498,
            "value": 0.7952755905511811
          },
          {
            "number": 7,
            "ticks": 18750,
            "time": 16.983671875,
            "value": 0.7874015748031497
          },
          {
            "number": 7,
            "ticks": 18896,
            "time": 17.115918066666666,
            "value": 0.7795275590551181
          },
          {
            "number": 7,
            "ticks": 18924,
            "time": 17.14128035,
            "value": 0.7716535433070866
          },
          {
            "number": 7,
            "ticks": 18951,
            "time": 17.165736837500003,
            "value": 0.7637795275590551
          },
          {
            "number": 7,
            "ticks": 19116,
            "time": 17.315193150000002,
            "value": 0.7559055118110236
          },
          {
            "number": 7,
            "ticks": 19134,
            "time": 17.331497475,
            "value": 0.7480314960629921
          },
          {
            "number": 7,
            "ticks": 19150,
            "time": 17.345990208333333,
            "value": 0.7401574803149606
          },
          {
            "number": 7,
            "ticks": 19191,
            "time": 17.383127837500002,
            "value": 0.7322834645669292
          }
        ],
        "10": [
          {
            "number": 10,
            "ticks": 533,
            "time": 0.48278917916666664,
            "value": 0.5039370078740157
          }
        ],
        "11": [
          {
            "number": 11,
            "ticks": 534,
            "time": 0.483694975,
            "value": 1
          }
        ],
        "64": [
          {
            "number": 64,
            "ticks": 2615,
            "time": 2.368656104166667,
            "value": 1
          },
          {
            "number": 64,
            "ticks": 3579,
            "time": 3.2418432875,
            "value": 0
          },
          {
            "number": 64,
            "ticks": 4143,
            "time": 3.7527121374999997,
            "value": 1
          },
          {
            "number": 64,
            "ticks": 5751,
            "time": 5.2092318375,
            "value": 0
          },
          {
            "number": 64,
            "ticks": 6430,
            "time": 5.824267208333334,
            "value": 1
          },
          {
            "number": 64,
            "ticks": 7425,
            "time": 6.7255340625,
            "value": 0
          },
          {
            "number": 64,
            "ticks": 7906,
            "time": 7.1612218583333345,
            "value": 1
          },
          {
            "number": 64,
            "ticks": 9602,
            "time": 8.697451591666667,
            "value": 0
          },
          {
            "number": 64,
            "ticks": 10295,
            "time": 9.325168104166668,
            "value": 1
          },
          {
            "number": 64,
            "ticks": 11259,
            "time": 10.1983552875,
            "value": 0
          },
          {
            "number": 64,
            "ticks": 11823,
            "time": 10.709224137500001,
            "value": 1
          },
          {
            "number": 64,
            "ticks": 13431,
            "time": 12.165743837499999,
            "value": 0
          },
          {
            "number": 64,
            "ticks": 14110,
            "time": 12.780779208333334,
            "value": 1
          },
          {
            "number": 64,
            "ticks": 15105,
            "time": 13.6820460625,
            "value": 0
          },
          {
            "number": 64,
            "ticks": 15586,
            "time": 14.117733858333333,
            "value": 1
          },
          {
            "number": 64,
            "ticks": 17282,
            "time": 15.653963591666669,
            "value": 0
          },
          {
            "number": 64,
            "ticks": 17975,
            "time": 16.281680104166664,
            "value": 1
          },
          {
            "number": 64,
            "ticks": 18939,
            "time": 17.1548672875,
            "value": 0
          },
          {
            "number": 64,
            "ticks": 19503,
            "time": 17.6657361375,
            "value": 1
          },
          {
            "number": 64,
            "ticks": 21111,
            "time": 19.122255837500003,
            "value": 0
          },
          {
            "number": 64,
            "ticks": 21790,
            "time": 19.737291208333335,
            "value": 1
          },
          {
            "number": 64,
            "ticks": 22785,
            "time": 20.6385580625,
            "value": 0
          },
          {
            "number": 64,
            "ticks": 23266,
            "time": 21.07424585833333,
            "value": 1
          },
          {
            "number": 64,
            "ticks": 24962,
            "time": 22.610475591666667,
            "value": 0
          },
          {
            "number": 64,
            "ticks": 25655,
            "time": 23.238192104166664,
            "value": 1
          },
          {
            "number": 64,
            "ticks": 26619,
            "time": 24.1113792875,
            "value": 0
          },
          {
            "number": 64,
            "ticks": 27183,
            "time": 24.6222481375,
            "value": 1
          },
          {
            "number": 64,
            "ticks": 28791,
            "time": 26.078767837500003,
            "value": 0
          },
          {
            "number": 64,
            "ticks": 29470,
            "time": 26.693803208333335,
            "value": 1
          },
          {
            "number": 64,
            "ticks": 30465,
            "time": 27.5950700625,
            "value": 0
          },
          {
            "number": 64,
            "ticks": 30946,
            "time": 28.03075785833333,
            "value": 1
          },
          {
            "number": 64,
            "ticks": 32056,
            "time": 29.036191233333334,
            "value": 1
          },
          {
            "number": 64,
            "ticks": 32089,
            "time": 29.066082495833335,
            "value": 0
          },
          {
            "number": 64,
            "ticks": 32119,
            "time": 29.093256370833338,
            "value": 1
          },
          {
            "number": 64,
            "ticks": 32181,
            "time": 29.1494157125,
            "value": 0
          },
          {
            "number": 64,
            "ticks": 32410,
            "time": 29.35684295833333,
            "value": 1
          },
          {
            "number": 64,
            "ticks": 32503,
            "time": 29.441081970833334,
            "value": 0
          }
        ],
        "91": [
          {
            "number": 91,
            "ticks": 535,
            "time": 0.4846007708333333,
            "value": 0.4330708661417323
          }
        ],
        "93": [
          {
            "number": 93,
            "ticks": 536,
            "time": 0.4855065666666667,
            "value": 0
          }
        ],
        "100": [
          {
            "number": 100,
            "ticks": 647,
            "time": 0.5860499041666667,
            "value": 0
          },
          {
            "number": 100,
            "ticks": 659,
            "time": 0.5969194541666666,
            "value": 1
          }
        ],
        "101": [
          {
            "number": 101,
            "ticks": 643,
            "time": 0.5824267208333334,
            "value": 0
          },
          {
            "number": 101,
            "ticks": 655,
            "time": 0.5932962708333333,
            "value": 1
          }
        ]
      },
      "pitchBends": [],
      "instrument": {
        "family": "organ",
        "number": 17,
        "name": "percussive organ"
      },
      "name": "",
      "notes": [
        {
          "duration": 1.5172080208333334,
          "durationTicks": 1675,
          "midi": 61,
          "name": "C#4",
          "ticks": 1920,
          "time": 1.739128,
          "velocity": 0.7401574803149606
        },
        {
          "duration": 1.2672083708333335,
          "durationTicks": 1399,
          "midi": 73,
          "name": "C#5",
          "ticks": 1920,
          "time": 1.739128,
          "velocity": 0.6535433070866141
        },
        {
          "duration": 1.1702882166666666,
          "durationTicks": 1292,
          "midi": 77,
          "name": "F5",
          "ticks": 1920,
          "time": 1.739128,
          "velocity": 0.7244094488188977
        },
        {
          "duration": 6.4184692750000005,
          "durationTicks": 7086,
          "midi": 80,
          "name": "G#5",
          "ticks": 1920,
          "time": 1.739128,
          "velocity": 0.7480314960629921
        },
        {
          "duration": 2.001808791666667,
          "durationTicks": 2210,
          "midi": 63,
          "name": "D#4",
          "ticks": 3600,
          "time": 3.260865,
          "velocity": 0.6535433070866141
        },
        {
          "duration": 1.6539831916666667,
          "durationTicks": 1826,
          "midi": 68,
          "name": "G#4",
          "ticks": 3600,
          "time": 3.260865,
          "velocity": 0.6141732283464567
        },
        {
          "duration": 3.226444758333333,
          "durationTicks": 3562,
          "midi": 75,
          "name": "D#5",
          "ticks": 3600,
          "time": 3.260865,
          "velocity": 0.5826771653543307
        },
        {
          "duration": 3.460140083333334,
          "durationTicks": 3820,
          "midi": 79,
          "name": "G5",
          "ticks": 3600,
          "time": 3.260865,
          "velocity": 0.7401574803149606
        },
        {
          "duration": 1.2192011916666665,
          "durationTicks": 1346,
          "midi": 60,
          "name": "C4",
          "ticks": 5760,
          "time": 5.217384,
          "velocity": 0.7086614173228346
        },
        {
          "duration": 2.877713362499999,
          "durationTicks": 3177,
          "midi": 72,
          "name": "C5",
          "ticks": 5760,
          "time": 5.217384,
          "velocity": 0.6220472440944882
        },
        {
          "duration": 1.3849618291666657,
          "durationTicks": 1529,
          "midi": 65,
          "name": "F4",
          "ticks": 7440,
          "time": 6.739121,
          "velocity": 0.6062992125984252
        },
        {
          "duration": 1.3831502374999998,
          "durationTicks": 1527,
          "midi": 68,
          "name": "G#4",
          "ticks": 7440,
          "time": 6.739121,
          "velocity": 0.5275590551181102
        },
        {
          "duration": 1.3686575041666673,
          "durationTicks": 1511,
          "midi": 77,
          "name": "F5",
          "ticks": 7440,
          "time": 6.739121,
          "velocity": 0.6535433070866141
        },
        {
          "duration": 1.5172080208333316,
          "durationTicks": 1675,
          "midi": 61,
          "name": "C#4",
          "ticks": 9600,
          "time": 8.695640000000001,
          "velocity": 0.7401574803149606
        },
        {
          "duration": 1.2672083708333322,
          "durationTicks": 1399,
          "midi": 73,
          "name": "C#5",
          "ticks": 9600,
          "time": 8.695640000000001,
          "velocity": 0.6535433070866141
        },
        {
          "duration": 1.1702882166666662,
          "durationTicks": 1292,
          "midi": 77,
          "name": "F5",
          "ticks": 9600,
          "time": 8.695640000000001,
          "velocity": 0.7244094488188977
        },
        {
          "duration": 6.418469275,
          "durationTicks": 7086,
          "midi": 80,
          "name": "G#5",
          "ticks": 9600,
          "time": 8.695640000000001,
          "velocity": 0.7480314960629921
        },
        {
          "duration": 2.001808791666667,
          "durationTicks": 2210,
          "midi": 63,
          "name": "D#4",
          "ticks": 11280,
          "time": 10.217377,
          "velocity": 0.6535433070866141
        },
        {
          "duration": 1.6539831916666667,
          "durationTicks": 1826,
          "midi": 68,
          "name": "G#4",
          "ticks": 11280,
          "time": 10.217377,
          "velocity": 0.6141732283464567
        },
        {
          "duration": 3.226444758333333,
          "durationTicks": 3562,
          "midi": 75,
          "name": "D#5",
          "ticks": 11280,
          "time": 10.217377,
          "velocity": 0.5826771653543307
        },
        {
          "duration": 3.4601400833333322,
          "durationTicks": 3820,
          "midi": 79,
          "name": "G5",
          "ticks": 11280,
          "time": 10.217377,
          "velocity": 0.7401574803149606
        },
        {
          "duration": 1.2192011916666683,
          "durationTicks": 1346,
          "midi": 60,
          "name": "C4",
          "ticks": 13440,
          "time": 12.173896,
          "velocity": 0.7086614173228346
        },
        {
          "duration": 2.8777133624999998,
          "durationTicks": 3177,
          "midi": 72,
          "name": "C5",
          "ticks": 13440,
          "time": 12.173896,
          "velocity": 0.6220472440944882
        },
        {
          "duration": 1.3849618291666665,
          "durationTicks": 1529,
          "midi": 65,
          "name": "F4",
          "ticks": 15120,
          "time": 13.695633,
          "velocity": 0.6062992125984252
        },
        {
          "duration": 1.3831502374999989,
          "durationTicks": 1527,
          "midi": 68,
          "name": "G#4",
          "ticks": 15120,
          "time": 13.695633,
          "velocity": 0.5275590551181102
        },
        {
          "duration": 1.3686575041666664,
          "durationTicks": 1511,
          "midi": 77,
          "name": "F5",
          "ticks": 15120,
          "time": 13.695633,
          "velocity": 0.6535433070866141
        },
        {
          "duration": 1.5172080208333334,
          "durationTicks": 1675,
          "midi": 61,
          "name": "C#4",
          "ticks": 17280,
          "time": 15.652152000000001,
          "velocity": 0.7401574803149606
        },
        {
          "duration": 1.267208370833334,
          "durationTicks": 1399,
          "midi": 73,
          "name": "C#5",
          "ticks": 17280,
          "time": 15.652152000000001,
          "velocity": 0.6535433070866141
        },
        {
          "duration": 1.1702882166666662,
          "durationTicks": 1292,
          "midi": 77,
          "name": "F5",
          "ticks": 17280,
          "time": 15.652152000000001,
          "velocity": 0.7244094488188977
        },
        {
          "duration": 6.418469275,
          "durationTicks": 7086,
          "midi": 80,
          "name": "G#5",
          "ticks": 17280,
          "time": 15.652152000000001,
          "velocity": 0.7480314960629921
        },
        {
          "duration": 2.001808791666665,
          "durationTicks": 2210,
          "midi": 63,
          "name": "D#4",
          "ticks": 18960,
          "time": 17.173889,
          "velocity": 0.6535433070866141
        },
        {
          "duration": 1.6539831916666685,
          "durationTicks": 1826,
          "midi": 68,
          "name": "G#4",
          "ticks": 18960,
          "time": 17.173889,
          "velocity": 0.6141732283464567
        },
        {
          "duration": 3.2264447583333364,
          "durationTicks": 3562,
          "midi": 75,
          "name": "D#5",
          "ticks": 18960,
          "time": 17.173889,
          "velocity": 0.5826771653543307
        },
        {
          "duration": 3.460140083333336,
          "durationTicks": 3820,
          "midi": 79,
          "name": "G5",
          "ticks": 18960,
          "time": 17.173889,
          "velocity": 0.7401574803149606
        },
        {
          "duration": 1.2192011916666665,
          "durationTicks": 1346,
          "midi": 60,
          "name": "C4",
          "ticks": 21120,
          "time": 19.130408,
          "velocity": 0.7086614173228346
        },
        {
          "duration": 2.8777133624999998,
          "durationTicks": 3177,
          "midi": 72,
          "name": "C5",
          "ticks": 21120,
          "time": 19.130408,
          "velocity": 0.6220472440944882
        },
        {
          "duration": 1.3849618291666665,
          "durationTicks": 1529,
          "midi": 65,
          "name": "F4",
          "ticks": 22800,
          "time": 20.652145,
          "velocity": 0.6062992125984252
        },
        {
          "duration": 1.383150237499997,
          "durationTicks": 1527,
          "midi": 68,
          "name": "G#4",
          "ticks": 22800,
          "time": 20.652145,
          "velocity": 0.5275590551181102
        },
        {
          "duration": 1.3686575041666664,
          "durationTicks": 1511,
          "midi": 77,
          "name": "F5",
          "ticks": 22800,
          "time": 20.652145,
          "velocity": 0.6535433070866141
        },
        {
          "duration": 1.5172080208333334,
          "durationTicks": 1675,
          "midi": 61,
          "name": "C#4",
          "ticks": 24960,
          "time": 22.608664,
          "velocity": 0.7401574803149606
        },
        {
          "duration": 1.267208370833334,
          "durationTicks": 1399,
          "midi": 73,
          "name": "C#5",
          "ticks": 24960,
          "time": 22.608664,
          "velocity": 0.6535433070866141
        },
        {
          "duration": 1.1702882166666662,
          "durationTicks": 1292,
          "midi": 77,
          "name": "F5",
          "ticks": 24960,
          "time": 22.608664,
          "velocity": 0.7244094488188977
        },
        {
          "duration": 6.418469275,
          "durationTicks": 7086,
          "midi": 80,
          "name": "G#5",
          "ticks": 24960,
          "time": 22.608664,
          "velocity": 0.7480314960629921
        },
        {
          "duration": 2.001808791666665,
          "durationTicks": 2210,
          "midi": 63,
          "name": "D#4",
          "ticks": 26640,
          "time": 24.130401,
          "velocity": 0.6535433070866141
        },
        {
          "duration": 1.6539831916666685,
          "durationTicks": 1826,
          "midi": 68,
          "name": "G#4",
          "ticks": 26640,
          "time": 24.130401,
          "velocity": 0.6141732283464567
        },
        {
          "duration": 3.2264447583333364,
          "durationTicks": 3562,
          "midi": 75,
          "name": "D#5",
          "ticks": 26640,
          "time": 24.130401,
          "velocity": 0.5826771653543307
        },
        {
          "duration": 3.460140083333336,
          "durationTicks": 3820,
          "midi": 79,
          "name": "G5",
          "ticks": 26640,
          "time": 24.130401,
          "velocity": 0.7401574803149606
        },
        {
          "duration": 1.2192011916666665,
          "durationTicks": 1346,
          "midi": 60,
          "name": "C4",
          "ticks": 28800,
          "time": 26.08692,
          "velocity": 0.7086614173228346
        },
        {
          "duration": 2.8777133625000033,
          "durationTicks": 3177,
          "midi": 72,
          "name": "C5",
          "ticks": 28800,
          "time": 26.08692,
          "velocity": 0.6220472440944882
        },
        {
          "duration": 1.3849618291666665,
          "durationTicks": 1529,
          "midi": 65,
          "name": "F4",
          "ticks": 30480,
          "time": 27.608657,
          "velocity": 0.6062992125984252
        },
        {
          "duration": 1.3831502375000007,
          "durationTicks": 1527,
          "midi": 68,
          "name": "G#4",
          "ticks": 30480,
          "time": 27.608657,
          "velocity": 0.5275590551181102
        },
        {
          "duration": 1.3686575041666629,
          "durationTicks": 1511,
          "midi": 77,
          "name": "F5",
          "ticks": 30480,
          "time": 27.608657,
          "velocity": 0.6535433070866141
        }
      ]
    },
    {
      "channel": 9,
      "controlChanges": {
        "0": [
          {
            "number": 0,
            "ticks": 553,
            "time": 0.5009050958333333,
            "value": 0
          }
        ],
        "7": [
          {
            "number": 7,
            "ticks": 556,
            "time": 0.5036224833333334,
            "value": 1
          }
        ],
        "10": [
          {
            "number": 10,
            "ticks": 557,
            "time": 0.5045282791666666,
            "value": 0.5039370078740157
          }
        ],
        "11": [
          {
            "number": 11,
            "ticks": 558,
            "time": 0.505434075,
            "value": 1
          }
        ],
        "32": [
          {
            "number": 32,
            "ticks": 554,
            "time": 0.5018108916666666,
            "value": 0
          }
        ],
        "91": [
          {
            "number": 91,
            "ticks": 559,
            "time": 0.5063398708333333,
            "value": 0.36220472440944884
          }
        ],
        "93": [
          {
            "number": 93,
            "ticks": 560,
            "time": 0.5072456666666667,
            "value": 0
          }
        ]
      },
      "pitchBends": [],
      "instrument": {
        "family": "drums",
        "number": 0,
        "name": "standard kit"
      },
      "name": "Drums",
      "notes": [
        {
          "duration": 0.009057958333333227,
          "durationTicks": 10,
          "midi": 49,
          "name": "C#3",
          "ticks": 1917,
          "time": 1.7364106125,
          "velocity": 0.6850393700787402
        },
        {
          "duration": 0.009057958333333227,
          "durationTicks": 10,
          "midi": 36,
          "name": "C2",
          "ticks": 1920,
          "time": 1.739128,
          "velocity": 0.905511811023622
        },
        {
          "duration": 0.009057958333333005,
          "durationTicks": 10,
          "midi": 36,
          "name": "C2",
          "ticks": 2400,
          "time": 2.1739100000000002,
          "velocity": 0.9133858267716536
        },
        {
          "duration": 0.009057958333333005,
          "durationTicks": 10,
          "midi": 36,
          "name": "C2",
          "ticks": 2880,
          "time": 2.608692,
          "velocity": 0.9133858267716536
        },
        {
          "duration": 0.009057958333333449,
          "durationTicks": 10,
          "midi": 36,
          "name": "C2",
          "ticks": 3360,
          "time": 3.043474,
          "velocity": 0.9133858267716536
        },
        {
          "duration": 0.009057958333333449,
          "durationTicks": 10,
          "midi": 36,
          "name": "C2",
          "ticks": 3840,
          "time": 3.478256,
          "velocity": 0.8740157480314961
        },
        {
          "duration": 0.009057958333333449,
          "durationTicks": 10,
          "midi": 36,
          "name": "C2",
          "ticks": 4320,
          "time": 3.9130380000000002,
          "velocity": 0.889763779527559
        },
        {
          "duration": 0.009057958333333005,
          "durationTicks": 10,
          "midi": 36,
          "name": "C2",
          "ticks": 4800,
          "time": 4.3478200000000005,
          "velocity": 0.9133858267716536
        },
        {
          "duration": 0.009057958333333893,
          "durationTicks": 10,
          "midi": 36,
          "name": "C2",
          "ticks": 5280,
          "time": 4.782602,
          "velocity": 0.905511811023622
        },
        {
          "duration": 0.009057958333333893,
          "durationTicks": 10,
          "midi": 36,
          "name": "C2",
          "ticks": 5760,
          "time": 5.217384,
          "velocity": 0.905511811023622
        },
        {
          "duration": 0.009057958333333005,
          "durationTicks": 10,
          "midi": 36,
          "name": "C2",
          "ticks": 6240,
          "time": 5.652166,
          "velocity": 0.9133858267716536
        },
        {
          "duration": 0.009057958333333893,
          "durationTicks": 10,
          "midi": 36,
          "name": "C2",
          "ticks": 6720,
          "time": 6.086948,
          "velocity": 0.9133858267716536
        },
        {
          "duration": 0.009057958333333893,
          "durationTicks": 10,
          "midi": 36,
          "name": "C2",
          "ticks": 7200,
          "time": 6.52173,
          "velocity": 0.9133858267716536
        },
        {
          "duration": 0.009057958333333005,
          "durationTicks": 10,
          "midi": 36,
          "name": "C2",
          "ticks": 7680,
          "time": 6.956512,
          "velocity": 0.8740157480314961
        },
        {
          "duration": 0.009057958333333005,
          "durationTicks": 10,
          "midi": 36,
          "name": "C2",
          "ticks": 8160,
          "time": 7.391294,
          "velocity": 0.889763779527559
        },
        {
          "duration": 0.009057958333332117,
          "durationTicks": 10,
          "midi": 36,
          "name": "C2",
          "ticks": 8640,
          "time": 7.8260760000000005,
          "velocity": 0.9133858267716536
        },
        {
          "duration": 0.009057958333333005,
          "durationTicks": 10,
          "midi": 36,
          "name": "C2",
          "ticks": 9120,
          "time": 8.260858,
          "velocity": 0.905511811023622
        },
        {
          "duration": 0.009057958333331229,
          "durationTicks": 10,
          "midi": 36,
          "name": "C2",
          "ticks": 9600,
          "time": 8.695640000000001,
          "velocity": 0.905511811023622
        },
        {
          "duration": 0.009057958333333005,
          "durationTicks": 10,
          "midi": 36,
          "name": "C2",
          "ticks": 10080,
          "time": 9.130422,
          "velocity": 0.9133858267716536
        },
        {
          "duration": 0.009057958333333005,
          "durationTicks": 10,
          "midi": 36,
          "name": "C2",
          "ticks": 10560,
          "time": 9.565204,
          "velocity": 0.9133858267716536
        },
        {
          "duration": 0.009057958333333005,
          "durationTicks": 10,
          "midi": 36,
          "name": "C2",
          "ticks": 11040,
          "time": 9.999986,
          "velocity": 0.9133858267716536
        },
        {
          "duration": 0.009057958333333005,
          "durationTicks": 10,
          "midi": 36,
          "name": "C2",
          "ticks": 11520,
          "time": 10.434768,
          "velocity": 0.8740157480314961
        },
        {
          "duration": 0.009057958333333005,
          "durationTicks": 10,
          "midi": 36,
          "name": "C2",
          "ticks": 12000,
          "time": 10.86955,
          "velocity": 0.889763779527559
        },
        {
          "duration": 0.009057958333333005,
          "durationTicks": 10,
          "midi": 36,
          "name": "C2",
          "ticks": 12480,
          "time": 11.304332,
          "velocity": 0.9133858267716536
        },
        {
          "duration": 0.009057958333333005,
          "durationTicks": 10,
          "midi": 36,
          "name": "C2",
          "ticks": 12960,
          "time": 11.739114,
          "velocity": 0.905511811023622
        },
        {
          "duration": 0.009057958333333005,
          "durationTicks": 10,
          "midi": 36,
          "name": "C2",
          "ticks": 13440,
          "time": 12.173896,
          "velocity": 0.905511811023622
        },
        {
          "duration": 0.009057958333333005,
          "durationTicks": 10,
          "midi": 36,
          "name": "C2",
          "ticks": 13920,
          "time": 12.608678,
          "velocity": 0.9133858267716536
        },
        {
          "duration": 0.009057958333333005,
          "durationTicks": 10,
          "midi": 36,
          "name": "C2",
          "ticks": 14400,
          "time": 13.04346,
          "velocity": 0.9133858267716536
        },
        {
          "duration": 0.009057958333333005,
          "durationTicks": 10,
          "midi": 36,
          "name": "C2",
          "ticks": 14880,
          "time": 13.478242,
          "velocity": 0.9133858267716536
        },
        {
          "duration": 0.009057958333334781,
          "durationTicks": 10,
          "midi": 36,
          "name": "C2",
          "ticks": 15360,
          "time": 13.913024,
          "velocity": 0.8740157480314961
        },
        {
          "duration": 0.009057958333334781,
          "durationTicks": 10,
          "midi": 36,
          "name": "C2",
          "ticks": 15840,
          "time": 14.347806,
          "velocity": 0.889763779527559
        },
        {
          "duration": 0.009057958333334781,
          "durationTicks": 10,
          "midi": 36,
          "name": "C2",
          "ticks": 16320,
          "time": 14.782588,
          "velocity": 0.9133858267716536
        },
        {
          "duration": 0.009057958333333005,
          "durationTicks": 10,
          "midi": 36,
          "name": "C2",
          "ticks": 16800,
          "time": 15.21737,
          "velocity": 0.905511811023622
        },
        {
          "duration": 0.009057958333333005,
          "durationTicks": 10,
          "midi": 36,
          "name": "C2",
          "ticks": 17280,
          "time": 15.652152000000001,
          "velocity": 0.905511811023622
        },
        {
          "duration": 0.009057958333333005,
          "durationTicks": 10,
          "midi": 49,
          "name": "C#3",
          "ticks": 17280,
          "time": 15.652152000000001,
          "velocity": 0.6850393700787402
        },
        {
          "duration": 0.009057958333336558,
          "durationTicks": 10,
          "midi": 36,
          "name": "C2",
          "ticks": 17760,
          "time": 16.086934,
          "velocity": 0.9133858267716536
        },
        {
          "duration": 0.009057958333333005,
          "durationTicks": 10,
          "midi": 36,
          "name": "C2",
          "ticks": 18240,
          "time": 16.521716,
          "velocity": 0.9133858267716536
        },
        {
          "duration": 0.009057958333333005,
          "durationTicks": 10,
          "midi": 36,
          "name": "C2",
          "ticks": 18720,
          "time": 16.956498,
          "velocity": 0.9133858267716536
        },
        {
          "duration": 0.009057958333333005,
          "durationTicks": 10,
          "midi": 36,
          "name": "C2",
          "ticks": 19200,
          "time": 17.391280000000002,
          "velocity": 0.8740157480314961
        },
        {
          "duration": 0.009057958333333005,
          "durationTicks": 10,
          "midi": 36,
          "name": "C2",
          "ticks": 19680,
          "time": 17.826062,
          "velocity": 0.889763779527559
        },
        {
          "duration": 0.009057958333336558,
          "durationTicks": 10,
          "midi": 36,
          "name": "C2",
          "ticks": 20160,
          "time": 18.260844,
          "velocity": 0.9133858267716536
        },
        {
          "duration": 0.009057958333333005,
          "durationTicks": 10,
          "midi": 36,
          "name": "C2",
          "ticks": 20640,
          "time": 18.695626,
          "velocity": 0.905511811023622
        },
        {
          "duration": 0.009057958333336558,
          "durationTicks": 10,
          "midi": 36,
          "name": "C2",
          "ticks": 21120,
          "time": 19.130408,
          "velocity": 0.905511811023622
        },
        {
          "duration": 0.009057958333333005,
          "durationTicks": 10,
          "midi": 36,
          "name": "C2",
          "ticks": 21600,
          "time": 19.56519,
          "velocity": 0.9133858267716536
        },
        {
          "duration": 0.009057958333336558,
          "durationTicks": 10,
          "midi": 36,
          "name": "C2",
          "ticks": 22080,
          "time": 19.999972,
          "velocity": 0.9133858267716536
        },
        {
          "duration": 0.009057958333333005,
          "durationTicks": 10,
          "midi": 36,
          "name": "C2",
          "ticks": 22560,
          "time": 20.434754,
          "velocity": 0.9133858267716536
        },
        {
          "duration": 0.009057958333333005,
          "durationTicks": 10,
          "midi": 36,
          "name": "C2",
          "ticks": 23040,
          "time": 20.869536,
          "velocity": 0.8740157480314961
        },
        {
          "duration": 0.009057958333336558,
          "durationTicks": 10,
          "midi": 36,
          "name": "C2",
          "ticks": 23520,
          "time": 21.304318,
          "velocity": 0.889763779527559
        },
        {
          "duration": 0.009057958333333005,
          "durationTicks": 10,
          "midi": 36,
          "name": "C2",
          "ticks": 24000,
          "time": 21.7391,
          "velocity": 0.9133858267716536
        },
        {
          "duration": 0.009057958333336558,
          "durationTicks": 10,
          "midi": 36,
          "name": "C2",
          "ticks": 24480,
          "time": 22.173882,
          "velocity": 0.905511811023622
        },
        {
          "duration": 0.009057958333333005,
          "durationTicks": 10,
          "midi": 36,
          "name": "C2",
          "ticks": 24960,
          "time": 22.608664,
          "velocity": 0.905511811023622
        },
        {
          "duration": 0.009057958333336558,
          "durationTicks": 10,
          "midi": 36,
          "name": "C2",
          "ticks": 25440,
          "time": 23.043446,
          "velocity": 0.9133858267716536
        },
        {
          "duration": 0.009057958333333005,
          "durationTicks": 10,
          "midi": 36,
          "name": "C2",
          "ticks": 25920,
          "time": 23.478228,
          "velocity": 0.9133858267716536
        },
        {
          "duration": 0.009057958333333005,
          "durationTicks": 10,
          "midi": 36,
          "name": "C2",
          "ticks": 26400,
          "time": 23.91301,
          "velocity": 0.9133858267716536
        },
        {
          "duration": 0.009057958333336558,
          "durationTicks": 10,
          "midi": 36,
          "name": "C2",
          "ticks": 26880,
          "time": 24.347792,
          "velocity": 0.8740157480314961
        },
        {
          "duration": 0.009057958333333005,
          "durationTicks": 10,
          "midi": 36,
          "name": "C2",
          "ticks": 27360,
          "time": 24.782574,
          "velocity": 0.889763779527559
        },
        {
          "duration": 0.009057958333336558,
          "durationTicks": 10,
          "midi": 36,
          "name": "C2",
          "ticks": 27840,
          "time": 25.217356,
          "velocity": 0.9133858267716536
        },
        {
          "duration": 0.009057958333333005,
          "durationTicks": 10,
          "midi": 36,
          "name": "C2",
          "ticks": 28320,
          "time": 25.652138,
          "velocity": 0.905511811023622
        },
        {
          "duration": 0.009057958333336558,
          "durationTicks": 10,
          "midi": 36,
          "name": "C2",
          "ticks": 28800,
          "time": 26.08692,
          "velocity": 0.905511811023622
        },
        {
          "duration": 0.009057958333333005,
          "durationTicks": 10,
          "midi": 36,
          "name": "C2",
          "ticks": 29280,
          "time": 26.521702,
          "velocity": 0.9133858267716536
        },
        {
          "duration": 0.009057958333336558,
          "durationTicks": 10,
          "midi": 36,
          "name": "C2",
          "ticks": 29760,
          "time": 26.956484,
          "velocity": 0.9133858267716536
        },
        {
          "duration": 0.009057958333333005,
          "durationTicks": 10,
          "midi": 36,
          "name": "C2",
          "ticks": 30240,
          "time": 27.391266,
          "velocity": 0.9133858267716536
        },
        {
          "duration": 0.009057958333333005,
          "durationTicks": 10,
          "midi": 36,
          "name": "C2",
          "ticks": 30720,
          "time": 27.826048,
          "velocity": 0.8740157480314961
        },
        {
          "duration": 0.009057958333333005,
          "durationTicks": 10,
          "midi": 36,
          "name": "C2",
          "ticks": 31200,
          "time": 28.26083,
          "velocity": 0.889763779527559
        },
        {
          "duration": 0.009057958333329452,
          "durationTicks": 10,
          "midi": 36,
          "name": "C2",
          "ticks": 31680,
          "time": 28.695612,
          "velocity": 0.9133858267716536
        },
        {
          "duration": 0.009057958333333005,
          "durationTicks": 10,
          "midi": 36,
          "name": "C2",
          "ticks": 32160,
          "time": 29.130394,
          "velocity": 0.905511811023622
        }
      ],
      "endOfTrackTicks": 32170
    }
  ]
}