{
  "header": {
    "keySignatures": [
      {
        "key": "C",
        "scale": "major",
        "ticks": 0
      }
    ],
    "meta": [
      {
        "text": "First Head",
        "ticks": 0,
        "type": "marker"
      },
      {
        "text": "Guitar Solo",
        "ticks": 112320,
        "type": "marker"
      },
      {
        "text": "Piano Solo",
        "ticks": 224640,
        "type": "marker"
      },
      {
        "text": "Last Head",
        "ticks": 336960,
        "type": "marker"
      }
    ],
    "name": "",
    "ppq": 480,
    "tempos": [
      {
        "bpm": 160,
        "ticks": 0
      }
    ],
    "timeSignatures": [
      {
        "ticks": 0,
        "timeSignature": [
          3,
          4
        ],
        "measures": 0
      }
    ]
  },
  "tracks": [
    {
      "channel": 0,
      "controlChanges": {},
      "pitchBends": [],
      "instrument": {
        "family": "piano",
        "number": 0,
        "name": "acoustic grand piano"
      },
      "name": "Abercrombie (gtr)",
      "notes": [],
      "endOfTrackTicks": 446400
    },
    {
      "channel": 4,
      "controlChanges": {
        "7": [
          {
            "number": 7,
            "ticks": 0,
            "time": 0,
            "value": 0.8267716535433071
          }
        ],
        "91": [
          {
            "number": 91,
            "ticks": 0,
            "time": 0,
            "value": 1
          }
        ],
        "93": [
          {
            "number": 93,
            "ticks": 0,
            "time": 0,
            "value": 0.7086614173228346
          }
        ]
      },
      "pitchBends": [],
      "instrument": {
        "family": "guitar",
        "number": 26,
        "name": "electric guitar (jazz)"
      },
      "name": "",
      "notes": [
        {
          "duration": 1.09921875,
          "durationTicks": 1407,
          "midi": 72,
          "name": "C5",
          "ticks": 0,
          "time": 0,
          "velocity": 0.4094488188976378
        },
        {
          "duration": 1.1257812500000002,
          "durationTicks": 1441,
          "midi": 65,
          "name": "F4",
          "ticks": 1440,
          "time": 1.125,
          "velocity": 0.4094488188976378
        },
        {
          "duration": 1.1070312499999995,
          "durationTicks": 1417,
          "midi": 70,
          "name": "A#4",
          "ticks": 2880,
          "time": 2.25,
          "velocity": 0.4409448818897638
        },
        {
          "duration": 1.1148437500000004,
          "durationTicks": 1427,
          "midi": 64,
          "name": "E4",
          "ticks": 4320,
          "time": 3.375,
          "velocity": 0.4409448818897638
        },
        {
          "duration": 2.8804687499999995,
          "durationTicks": 3687,
          "midi": 69,
          "name": "A4",
          "ticks": 5760,
          "time": 4.5,
          "velocity": 0.3779527559055118
        },
        {
          "duration": 0.24296875000000018,
          "durationTicks": 311,
          "midi": 67,
          "name": "G4",
          "ticks": 9480,
          "time": 7.40625,
          "velocity": 0.3779527559055118
        },
        {
          "duration": 0.2624999999999993,
          "durationTicks": 336,
          "midi": 65,
          "name": "F4",
          "ticks": 9720,
          "time": 7.59375,
          "velocity": 0.5039370078740157
        },
        {
          "duration": 0.40000000000000036,
          "durationTicks": 512,
          "midi": 64,
          "name": "E4",
          "ticks": 10080,
          "time": 7.875,
          "velocity": 0.47244094488188976
        },
        {
          "duration": 0.4718750000000007,
          "durationTicks": 604,
          "midi": 65,
          "name": "F4",
          "ticks": 10560,
          "time": 8.25,
          "velocity": 0.47244094488188976
        },
        {
          "duration": 0.265625,
          "durationTicks": 340,
          "midi": 67,
          "name": "G4",
          "ticks": 11160,
          "time": 8.71875,
          "velocity": 0.47244094488188976
        },
        {
          "duration": 0.8273437500000007,
          "durationTicks": 1059,
          "midi": 69,
          "name": "A4",
          "ticks": 11520,
          "time": 9,
          "velocity": 0.4094488188976378
        },
        {
          "duration": 0.2554687499999986,
          "durationTicks": 327,
          "midi": 67,
          "name": "G4",
          "ticks": 12600,
          "time": 9.84375,
          "velocity": 0.47244094488188976
        },
        {
          "duration": 0.8953124999999993,
          "durationTicks": 1146,
          "midi": 65,
          "name": "F4",
          "ticks": 12960,
          "time": 10.125,
          "velocity": 0.4094488188976378
        },
        {
          "duration": 0.1015625,
          "durationTicks": 130,
          "midi": 67,
          "name": "G4",
          "ticks": 14040,
          "time": 10.96875,
          "velocity": 0.31496062992125984
        },
        {
          "duration": 0.1453124999999993,
          "durationTicks": 186,
          "midi": 69,
          "name": "A4",
          "ticks": 14160,
          "time": 11.0625,
          "velocity": 0.47244094488188976
        },
        {
          "duration": 0.609375,
          "durationTicks": 780,
          "midi": 70,
          "name": "A#4",
          "ticks": 14400,
          "time": 11.25,
          "velocity": 0.47244094488188976
        },
        {
          "duration": 0.48828125,
          "durationTicks": 625,
          "midi": 69,
          "name": "A4",
          "ticks": 15240,
          "time": 11.90625,
          "velocity": 0.47244094488188976
        },
        {
          "duration": 0.6179687499999993,
          "durationTicks": 791,
          "midi": 67,
          "name": "G4",
          "ticks": 15840,
          "time": 12.375,
          "velocity": 0.3779527559055118
        },
        {
          "duration": 0.22265625,
          "durationTicks": 285,
          "midi": 69,
          "name": "A4",
          "ticks": 16680,
          "time": 13.03125,
          "velocity": 0.4094488188976378
        },
        {
          "duration": 0.21875,
          "durationTicks": 280,
          "midi": 70,
          "name": "A#4",
          "ticks": 16920,
          "time": 13.21875,
          "velocity": 0.5039370078740157
        },
        {
          "duration": 0.5835937499999986,
          "durationTicks": 747,
          "midi": 72,
          "name": "C5",
          "ticks": 17280,
          "time": 13.5,
          "velocity": 0.4409448818897638
        },
        {
          "duration": 3.417187499999997,
          "durationTicks": 4374,
          "midi": 72,
          "name": "C5",
          "ticks": 18000,
          "time": 14.0625,
          "velocity": 0.2440944881889764
        },
        {
          "duration": 0.06406249999999858,
          "durationTicks": 82,
          "midi": 69,
          "name": "A4",
          "ticks": 22680,
          "time": 17.71875,
          "velocity": 0.2204724409448819
        },
        {
          "duration": 0.11406249999999929,
          "durationTicks": 146,
          "midi": 70,
          "name": "A#4",
          "ticks": 22800,
          "time": 17.8125,
          "velocity": 0.5748031496062992
        },
        {
          "duration": 1.1257812499999993,
          "durationTicks": 1441,
          "midi": 72,
          "name": "C5",
          "ticks": 23040,
          "time": 18,
          "velocity": 0.47244094488188976
        },
        {
          "duration": 1.1117187499999979,
          "durationTicks": 1423,
          "midi": 65,
          "name": "F4",
          "ticks": 24480,
          "time": 19.125,
          "velocity": 0.3779527559055118
        },
        {
          "duration": 1.1242187500000007,
          "durationTicks": 1439,
          "midi": 70,
          "name": "A#4",
          "ticks": 25920,
          "time": 20.25,
          "velocity": 0.47244094488188976
        },
        {
          "duration": 1.0687500000000014,
          "durationTicks": 1368,
          "midi": 64,
          "name": "E4",
          "ticks": 27360,
          "time": 21.375,
          "velocity": 0.31496062992125984
        },
        {
          "duration": 2.880468750000002,
          "durationTicks": 3687,
          "midi": 69,
          "name": "A4",
          "ticks": 28800,
          "time": 22.5,
          "velocity": 0.3779527559055118
        },
        {
          "duration": 0.23671874999999787,
          "durationTicks": 303,
          "midi": 67,
          "name": "G4",
          "ticks": 32520,
          "time": 25.40625,
          "velocity": 0.4409448818897638
        },
        {
          "duration": 0.2101562500000007,
          "durationTicks": 269,
          "midi": 65,
          "name": "F4",
          "ticks": 32880,
          "time": 25.6875,
          "velocity": 0.5039370078740157
        },
        {
          "duration": 0.3921874999999986,
          "durationTicks": 502,
          "midi": 64,
          "name": "E4",
          "ticks": 33120,
          "time": 25.875,
          "velocity": 0.4094488188976378
        },
        {
          "duration": 0.39609375000000213,
          "durationTicks": 507,
          "midi": 65,
          "name": "F4",
          "ticks": 33600,
          "time": 26.25,
          "velocity": 0.3779527559055118
        },
        {
          "duration": 0.3406249999999993,
          "durationTicks": 436,
          "midi": 67,
          "name": "G4",
          "ticks": 34080,
          "time": 26.625,
          "velocity": 0.3779527559055118
        },
        {
          "duration": 0.6296874999999957,
          "durationTicks": 806,
          "midi": 69,
          "name": "A4",
          "ticks": 34560,
          "time": 27,
          "velocity": 0.4094488188976378
        },
        {
          "duration": 0.51953125,
          "durationTicks": 665,
          "midi": 67,
          "name": "G4",
          "ticks": 35400,
          "time": 27.65625,
          "velocity": 0.4409448818897638
        },
        {
          "duration": 0.9054687500000043,
          "durationTicks": 1159,
          "midi": 65,
          "name": "F4",
          "ticks": 36000,
          "time": 28.125,
          "velocity": 0.4094488188976378
        },
        {
          "duration": 0.11093749999999858,
          "durationTicks": 142,
          "midi": 67,
          "name": "G4",
          "ticks": 37200,
          "time": 29.0625,
          "velocity": 0.28346456692913385
        },
        {
          "duration": 0.1398437500000007,
          "durationTicks": 179,
          "midi": 69,
          "name": "A4",
          "ticks": 37320,
          "time": 29.15625,
          "velocity": 0.47244094488188976
        },
        {
          "duration": 0.8734375000000014,
          "durationTicks": 1118,
          "midi": 71,
          "name": "B4",
          "ticks": 37560,
          "time": 29.34375,
          "velocity": 0.5748031496062992
        },
        {
          "duration": 0.19140625,
          "durationTicks": 245,
          "midi": 69,
          "name": "A4",
          "ticks": 38640,
          "time": 30.1875,
          "velocity": 0.3779527559055118
        },
        {
          "duration": 0.61328125,
          "durationTicks": 785,
          "midi": 68,
          "name": "G#4",
          "ticks": 38880,
          "time": 30.375,
          "velocity": 0.47244094488188976
        },
        {
          "duration": 0.2421875,
          "durationTicks": 310,
          "midi": 69,
          "name": "A4",
          "ticks": 39720,
          "time": 31.03125,
          "velocity": 0.3779527559055118
        },
        {
          "duration": 0.2351562499999993,
          "durationTicks": 301,
          "midi": 71,
          "name": "B4",
          "ticks": 39960,
          "time": 31.21875,
          "velocity": 0.5748031496062992
        },
        {
          "duration": 2.940624999999997,
          "durationTicks": 3764,
          "midi": 73,
          "name": "C#5",
          "ticks": 40320,
          "time": 31.5,
          "velocity": 0.4094488188976378
        },
        {
          "duration": 0.4742187499999986,
          "durationTicks": 607,
          "midi": 73,
          "name": "C#5",
          "ticks": 45480,
          "time": 35.53125,
          "velocity": 0.5748031496062992
        },
        {
          "duration": 1.9585937499999986,
          "durationTicks": 2507,
          "midi": 74,
          "name": "D5",
          "ticks": 46080,
          "time": 36,
          "velocity": 0.5748031496062992
        },
        {
          "duration": 0.2789062500000057,
          "durationTicks": 357,
          "midi": 72,
          "name": "C5",
          "ticks": 48600,
          "time": 37.96875,
          "velocity": 0.5039370078740157
        },
        {
          "duration": 0.5843750000000014,
          "durationTicks": 748,
          "midi": 74,
          "name": "D5",
          "ticks": 48960,
          "time": 38.25,
          "velocity": 0.3779527559055118
        },
        {
          "duration": 1.3312499999999972,
          "durationTicks": 1704,
          "midi": 74,
          "name": "D5",
          "ticks": 49800,
          "time": 38.90625,
          "velocity": 0.3779527559055118
        },
        {
          "duration": 0.26093750000000426,
          "durationTicks": 334,
          "midi": 72,
          "name": "C5",
          "ticks": 51480,
          "time": 40.21875,
          "velocity": 0.47244094488188976
        },
        {
          "duration": 0.5789062500000028,
          "durationTicks": 741,
          "midi": 74,
          "name": "D5",
          "ticks": 51840,
          "time": 40.5,
          "velocity": 0.6456692913385826
        },
        {
          "duration": 0.22734375000000284,
          "durationTicks": 291,
          "midi": 72,
          "name": "C5",
          "ticks": 52560,
          "time": 41.0625,
          "velocity": 0.5039370078740157
        },
        {
          "duration": 0.30859375,
          "durationTicks": 395,
          "midi": 70,
          "name": "A#4",
          "ticks": 52920,
          "time": 41.34375,
          "velocity": 0.5748031496062992
        },
        {
          "duration": 0.7906249999999986,
          "durationTicks": 1012,
          "midi": 69,
          "name": "A4",
          "ticks": 53280,
          "time": 41.625,
          "velocity": 0.47244094488188976
        },
        {
          "duration": 0.26250000000000284,
          "durationTicks": 336,
          "midi": 67,
          "name": "G4",
          "ticks": 54360,
          "time": 42.46875,
          "velocity": 0.3464566929133858
        },
        {
          "duration": 0.6195312500000014,
          "durationTicks": 793,
          "midi": 69,
          "name": "A4",
          "ticks": 54720,
          "time": 42.75,
          "velocity": 0.3779527559055118
        },
        {
          "duration": 0.7484375000000014,
          "durationTicks": 958,
          "midi": 65,
          "name": "F4",
          "ticks": 55560,
          "time": 43.40625,
          "velocity": 0.25196850393700787
        },
        {
          "duration": 0.25468749999999574,
          "durationTicks": 326,
          "midi": 74,
          "name": "D5",
          "ticks": 56520,
          "time": 44.15625,
          "velocity": 0.5748031496062992
        },
        {
          "duration": 0.2671875000000057,
          "durationTicks": 342,
          "midi": 72,
          "name": "C5",
          "ticks": 56880,
          "time": 44.4375,
          "velocity": 0.4409448818897638
        },
        {
          "duration": 0.3070312499999943,
          "durationTicks": 393,
          "midi": 70,
          "name": "A#4",
          "ticks": 57240,
          "time": 44.71875,
          "velocity": 0.4094488188976378
        },
        {
          "duration": 1.1109375000000057,
          "durationTicks": 1422,
          "midi": 69,
          "name": "A4",
          "ticks": 57600,
          "time": 45,
          "velocity": 0.3779527559055118
        },
        {
          "duration": 0.8226562499999943,
          "durationTicks": 1053,
          "midi": 67,
          "name": "G4",
          "ticks": 59040,
          "time": 46.125,
          "velocity": 0.47244094488188976
        },
        {
          "duration": 0.10703124999999858,
          "durationTicks": 137,
          "midi": 69,
          "name": "A4",
          "ticks": 60120,
          "time": 46.96875,
          "velocity": 0.16535433070866143
        },
        {
          "duration": 0.14375000000000426,
          "durationTicks": 184,
          "midi": 67,
          "name": "G4",
          "ticks": 60360,
          "time": 47.15625,
          "velocity": 0.5039370078740157
        },
        {
          "duration": 0.3648437499999986,
          "durationTicks": 467,
          "midi": 65,
          "name": "F4",
          "ticks": 60480,
          "time": 47.25,
          "velocity": 0.5748031496062992
        },
        {
          "duration": 0.35468750000000426,
          "durationTicks": 454,
          "midi": 69,
          "name": "A4",
          "ticks": 60960,
          "time": 47.625,
          "velocity": 0.47244094488188976
        },
        {
          "duration": 0.35078124999999716,
          "durationTicks": 449,
          "midi": 72,
          "name": "C5",
          "ticks": 61440,
          "time": 48,
          "velocity": 0.5039370078740157
        },
        {
          "duration": 0.5914062499999915,
          "durationTicks": 757,
          "midi": 76,
          "name": "E5",
          "ticks": 61920,
          "time": 48.375,
          "velocity": 0.5039370078740157
        },
        {
          "duration": 0.22812499999999147,
          "durationTicks": 292,
          "midi": 77,
          "name": "F5",
          "ticks": 62640,
          "time": 48.9375,
          "velocity": 0.5039370078740157
        },
        {
          "duration": 0.24531249999999716,
          "durationTicks": 314,
          "midi": 76,
          "name": "E5",
          "ticks": 63000,
          "time": 49.21875,
          "velocity": 0.3464566929133858
        },
        {
          "duration": 2.016406250000003,
          "durationTicks": 2581,
          "midi": 72,
          "name": "C5",
          "ticks": 63360,
          "time": 49.5,
          "velocity": 0.2047244094488189
        },
        {
          "duration": 0.9046874999999943,
          "durationTicks": 1158,
          "midi": 72,
          "name": "C5",
          "ticks": 69120,
          "time": 54,
          "velocity": 0.5748031496062992
        },
        {
          "duration": 0.07578124999999147,
          "durationTicks": 97,
          "midi": 69,
          "name": "A4",
          "ticks": 70320,
          "time": 54.9375,
          "velocity": 0.1968503937007874
        },
        {
          "duration": 0.12656250000000568,
          "durationTicks": 162,
          "midi": 67,
          "name": "G4",
          "ticks": 70440,
          "time": 55.03125,
          "velocity": 0.4409448818897638
        },
        {
          "duration": 0.8500000000000085,
          "durationTicks": 1088,
          "midi": 65,
          "name": "F4",
          "ticks": 70560,
          "time": 55.125,
          "velocity": 0.5748031496062992
        },
        {
          "duration": 0.10078125000000426,
          "durationTicks": 129,
          "midi": 67,
          "name": "G4",
          "ticks": 71640,
          "time": 55.96875,
          "velocity": 0.3464566929133858
        },
        {
          "duration": 0.15390624999999858,
          "durationTicks": 197,
          "midi": 69,
          "name": "A4",
          "ticks": 71880,
          "time": 56.15625,
          "velocity": 0.4094488188976378
        },
        {
          "duration": 0.77734375,
          "durationTicks": 995,
          "midi": 70,
          "name": "A#4",
          "ticks": 72120,
          "time": 56.34375,
          "velocity": 0.5748031496062992
        },
        {
          "duration": 0.11171875000000853,
          "durationTicks": 143,
          "midi": 67,
          "name": "G4",
          "ticks": 73080,
          "time": 57.09375,
          "velocity": 0.25196850393700787
        },
        {
          "duration": 0.13984374999999716,
          "durationTicks": 179,
          "midi": 65,
          "name": "F4",
          "ticks": 73200,
          "time": 57.1875,
          "velocity": 0.4409448818897638
        },
        {
          "duration": 0.8718749999999957,
          "durationTicks": 1116,
          "midi": 64,
          "name": "E4",
          "ticks": 73440,
          "time": 57.375,
          "velocity": 0.5039370078740157
        },
        {
          "duration": 0.12031249999999716,
          "durationTicks": 154,
          "midi": 65,
          "name": "F4",
          "ticks": 74520,
          "time": 58.21875,
          "velocity": 0.3779527559055118
        },
        {
          "duration": 0.11406250000000284,
          "durationTicks": 146,
          "midi": 67,
          "name": "G4",
          "ticks": 74760,
          "time": 58.40625,
          "velocity": 0.4409448818897638
        },
        {
          "duration": 0.5562499999999915,
          "durationTicks": 712,
          "midi": 69,
          "name": "A4",
          "ticks": 74880,
          "time": 58.5,
          "velocity": 0.47244094488188976
        },
        {
          "duration": 2.25390625,
          "durationTicks": 2885,
          "midi": 69,
          "name": "A4",
          "ticks": 75720,
          "time": 59.15625,
          "velocity": 0.4094488188976378
        },
        {
          "duration": 0.24453125000000142,
          "durationTicks": 313,
          "midi": 67,
          "name": "G4",
          "ticks": 78600,
          "time": 61.40625,
          "velocity": 0.5039370078740157
        },
        {
          "duration": 0.26640625000000284,
          "durationTicks": 341,
          "midi": 65,
          "name": "F4",
          "ticks": 78840,
          "time": 61.59375,
          "velocity": 0.4409448818897638
        },
        {
          "duration": 0.41328124999999716,
          "durationTicks": 529,
          "midi": 64,
          "name": "E4",
          "ticks": 79200,
          "time": 61.875,
          "velocity": 0.4409448818897638
        },
        {
          "duration": 0.3765624999999986,
          "durationTicks": 482,
          "midi": 65,
          "name": "F4",
          "ticks": 79680,
          "time": 62.25,
          "velocity": 0.4409448818897638
        },
        {
          "duration": 0.37890625,
          "durationTicks": 485,
          "midi": 67,
          "name": "G4",
          "ticks": 80160,
          "time": 62.625,
          "velocity": 0.4409448818897638
        },
        {
          "duration": 0.8125,
          "durationTicks": 1040,
          "midi": 69,
          "name": "A4",
          "ticks": 80640,
          "time": 63,
          "velocity": 0.4409448818897638
        },
        {
          "duration": 0.09375,
          "durationTicks": 120,
          "midi": 67,
          "name": "G4",
          "ticks": 81720,
          "time": 63.84375,
          "velocity": 0.12598425196850394
        },
        {
          "duration": 0.12968750000000284,
          "durationTicks": 166,
          "midi": 69,
          "name": "A4",
          "ticks": 81840,
          "time": 63.9375,
          "velocity": 0.4409448818897638
        },
        {
          "duration": 0.8703124999999972,
          "durationTicks": 1114,
          "midi": 65,
          "name": "F4",
          "ticks": 82080,
          "time": 64.125,
          "velocity": 0.5748031496062992
        },
        {
          "duration": 0.10468749999999716,
          "durationTicks": 134,
          "midi": 67,
          "name": "G4",
          "ticks": 83160,
          "time": 64.96875,
          "velocity": 0.3464566929133858
        },
        {
          "duration": 0.1484375,
          "durationTicks": 190,
          "midi": 69,
          "name": "A4",
          "ticks": 83280,
          "time": 65.0625,
          "velocity": 0.5039370078740157
        },
        {
          "duration": 0.56640625,
          "durationTicks": 725,
          "midi": 70,
          "name": "A#4",
          "ticks": 83520,
          "time": 65.25,
          "velocity": 0.5039370078740157
        },
        {
          "duration": 0.20390624999998863,
          "durationTicks": 261,
          "midi": 69,
          "name": "A4",
          "ticks": 84240,
          "time": 65.8125,
          "velocity": 0.47244094488188976
        },
        {
          "duration": 0.29765624999998863,
          "durationTicks": 381,
          "midi": 67,
          "name": "G4",
          "ticks": 84600,
          "time": 66.09375,
          "velocity": 0.4094488188976378
        },
        {
          "duration": 0.53515625,
          "durationTicks": 685,
          "midi": 69,
          "name": "A4",
          "ticks": 84960,
          "time": 66.375,
          "velocity": 0.5748031496062992
        },
        {
          "duration": 0.26249999999998863,
          "durationTicks": 336,
          "midi": 70,
          "name": "A#4",
          "ticks": 85680,
          "time": 66.9375,
          "velocity": 0.5748031496062992
        },
        {
          "duration": 0.25390625,
          "durationTicks": 325,
          "midi": 72,
          "name": "C5",
          "ticks": 86040,
          "time": 67.21875,
          "velocity": 0.47244094488188976
        },
        {
          "duration": 0.06328124999998863,
          "durationTicks": 81,
          "midi": 73,
          "name": "C#5",
          "ticks": 86400,
          "time": 67.5,
          "velocity": 0.3779527559055118
        },
        {
          "duration": 0.4859374999999915,
          "durationTicks": 622,
          "midi": 74,
          "name": "D5",
          "ticks": 86520,
          "time": 67.59375,
          "velocity": 0.5748031496062992
        },
        {
          "duration": 0.05390625000001137,
          "durationTicks": 69,
          "midi": 73,
          "name": "C#5",
          "ticks": 87240,
          "time": 68.15625,
          "velocity": 0.2125984251968504
        },
        {
          "duration": 1.6000000000000085,
          "durationTicks": 2048,
          "midi": 74,
          "name": "D5",
          "ticks": 87240,
          "time": 68.15625,
          "velocity": 0.5039370078740157
        },
        {
          "duration": 0.0054687499999914735,
          "durationTicks": 7,
          "midi": 75,
          "name": "D#5",
          "ticks": 90000,
          "time": 70.3125,
          "velocity": 0.12598425196850394
        },
        {
          "duration": 0.29609374999999716,
          "durationTicks": 379,
          "midi": 76,
          "name": "E5",
          "ticks": 90000,
          "time": 70.3125,
          "velocity": 0.5039370078740157
        },
        {
          "duration": 0.22890625000000853,
          "durationTicks": 293,
          "midi": 74,
          "name": "D5",
          "ticks": 90480,
          "time": 70.6875,
          "velocity": 0.5748031496062992
        },
        {
          "duration": 0.76953125,
          "durationTicks": 985,
          "midi": 76,
          "name": "E5",
          "ticks": 90840,
          "time": 70.96875,
          "velocity": 0.5748031496062992
        },
        {
          "duration": 0.09687499999999716,
          "durationTicks": 124,
          "midi": 74,
          "name": "D5",
          "ticks": 91800,
          "time": 71.71875,
          "velocity": 0.3779527559055118
        },
        {
          "duration": 0.17421874999999432,
          "durationTicks": 223,
          "midi": 76,
          "name": "E5",
          "ticks": 91920,
          "time": 71.8125,
          "velocity": 0.5748031496062992
        },
        {
          "duration": 0.5492187499999943,
          "durationTicks": 703,
          "midi": 72,
          "name": "C5",
          "ticks": 92280,
          "time": 72.09375,
          "velocity": 0.47244094488188976
        },
        {
          "duration": 2.1499999999999915,
          "durationTicks": 2752,
          "midi": 72,
          "name": "C5",
          "ticks": 93000,
          "time": 72.65625,
          "velocity": 0.4094488188976378
        },
        {
          "duration": 0.23125000000000284,
          "durationTicks": 296,
          "midi": 72,
          "name": "C5",
          "ticks": 95880,
          "time": 74.90625,
          "velocity": 0.47244094488188976
        },
        {
          "duration": 0.27265624999999716,
          "durationTicks": 349,
          "midi": 70,
          "name": "A#4",
          "ticks": 96240,
          "time": 75.1875,
          "velocity": 0.4409448818897638
        },
        {
          "duration": 0.29609374999999716,
          "durationTicks": 379,
          "midi": 72,
          "name": "C5",
          "ticks": 96600,
          "time": 75.46875,
          "velocity": 0.4409448818897638
        },
        {
          "duration": 0.2953124999999943,
          "durationTicks": 378,
          "midi": 70,
          "name": "A#4",
          "ticks": 97080,
          "time": 75.84375,
          "velocity": 0.47244094488188976
        },
        {
          "duration": 0.28984375000000284,
          "durationTicks": 371,
          "midi": 72,
          "name": "C5",
          "ticks": 97560,
          "time": 76.21875,
          "velocity": 0.4409448818897638
        },
        {
          "duration": 0.07421875,
          "durationTicks": 95,
          "midi": 68,
          "name": "G#4",
          "ticks": 97920,
          "time": 76.5,
          "velocity": 0.3779527559055118
        },
        {
          "duration": 0.5437499999999886,
          "durationTicks": 696,
          "midi": 69,
          "name": "A4",
          "ticks": 98040,
          "time": 76.59375,
          "velocity": 0.5039370078740157
        },
        {
          "duration": 0.9968750000000028,
          "durationTicks": 1276,
          "midi": 69,
          "name": "A4",
          "ticks": 98760,
          "time": 77.15625,
          "velocity": 0.4409448818897638
        },
        {
          "duration": 0.26171875,
          "durationTicks": 335,
          "midi": 67,
          "name": "G4",
          "ticks": 100080,
          "time": 78.1875,
          "velocity": 0.5039370078740157
        },
        {
          "duration": 0.25,
          "durationTicks": 320,
          "midi": 65,
          "name": "F4",
          "ticks": 100440,
          "time": 78.46875,
          "velocity": 0.28346456692913385
        },
        {
          "duration": 0.5609374999999943,
          "durationTicks": 718,
          "midi": 67,
          "name": "G4",
          "ticks": 100920,
          "time": 78.84375,
          "velocity": 0.5039370078740157
        },
        {
          "duration": 0.22812499999999147,
          "durationTicks": 292,
          "midi": 65,
          "name": "F4",
          "ticks": 101640,
          "time": 79.40625,
          "velocity": 0.25196850393700787
        },
        {
          "duration": 0.21406249999999716,
          "durationTicks": 274,
          "midi": 67,
          "name": "G4",
          "ticks": 102000,
          "time": 79.6875,
          "velocity": 0.5748031496062992
        },
        {
          "duration": 0.3031249999999943,
          "durationTicks": 388,
          "midi": 65,
          "name": "F4",
          "ticks": 102360,
          "time": 79.96875,
          "velocity": 0.23622047244094488
        },
        {
          "duration": 0.5328124999999915,
          "durationTicks": 682,
          "midi": 67,
          "name": "G4",
          "ticks": 102840,
          "time": 80.34375,
          "velocity": 0.5039370078740157
        },
        {
          "duration": 0.11250000000001137,
          "durationTicks": 144,
          "midi": 65,
          "name": "F4",
          "ticks": 103560,
          "time": 80.90625,
          "velocity": 0.25196850393700787
        },
        {
          "duration": 0.92578125,
          "durationTicks": 1185,
          "midi": 74,
          "name": "D5",
          "ticks": 103680,
          "time": 81,
          "velocity": 0.5748031496062992
        },
        {
          "duration": 0.04296875,
          "durationTicks": 55,
          "midi": 67,
          "name": "G4",
          "ticks": 104880,
          "time": 81.9375,
          "velocity": 0.3464566929133858
        },
        {
          "duration": 0.06718750000000284,
          "durationTicks": 86,
          "midi": 65,
          "name": "F4",
          "ticks": 105000,
          "time": 82.03125,
          "velocity": 0.5748031496062992
        },
        {
          "duration": 0.96875,
          "durationTicks": 1240,
          "midi": 64,
          "name": "E4",
          "ticks": 105120,
          "time": 82.125,
          "velocity": 0.4409448818897638
        },
        {
          "duration": 0.11093749999999147,
          "durationTicks": 142,
          "midi": 60,
          "name": "C4",
          "ticks": 106440,
          "time": 83.15625,
          "velocity": 0.28346456692913385
        },
        {
          "duration": 0.057031249999994316,
          "durationTicks": 73,
          "midi": 65,
          "name": "F4",
          "ticks": 106680,
          "time": 83.34375,
          "velocity": 0.4409448818897638
        },
        {
          "duration": 0.07656250000000853,
          "durationTicks": 98,
          "midi": 67,
          "name": "G4",
          "ticks": 106680,
          "time": 83.34375,
          "velocity": 0.4409448818897638
        },
        {
          "duration": 1.6046874999999972,
          "durationTicks": 2054,
          "midi": 65,
          "name": "F4",
          "ticks": 106800,
          "time": 83.4375,
          "velocity": 0.31496062992125984
        },
        {
          "duration": 0.07890625000000284,
          "durationTicks": 101,
          "midi": 67,
          "name": "G4",
          "ticks": 113160,
          "time": 88.40625,
          "velocity": 0.5748031496062992
        },
        {
          "duration": 0.5210937499999915,
          "durationTicks": 667,
          "midi": 72,
          "name": "C5",
          "ticks": 113160,
          "time": 88.40625,
          "velocity": 0.5748031496062992
        },
        {
          "duration": 0.2265625,
          "durationTicks": 290,
          "midi": 69,
          "name": "A4",
          "ticks": 113280,
          "time": 88.5,
          "velocity": 0.33858267716535434
        },
        {
          "duration": 0.14609374999999147,
          "durationTicks": 187,
          "midi": 67,
          "name": "G4",
          "ticks": 113640,
          "time": 88.78125,
          "velocity": 0.3937007874015748
        },
        {
          "duration": 0.16562500000000568,
          "durationTicks": 212,
          "midi": 65,
          "name": "F4",
          "ticks": 113760,
          "time": 88.875,
          "velocity": 0.36220472440944884
        },
        {
          "duration": 0.16718749999999716,
          "durationTicks": 214,
          "midi": 64,
          "name": "E4",
          "ticks": 114000,
          "time": 89.0625,
          "velocity": 0.3937007874015748
        },
        {
          "duration": 0.2710937500000057,
          "durationTicks": 347,
          "midi": 65,
          "name": "F4",
          "ticks": 114240,
          "time": 89.25,
          "velocity": 0.4251968503937008
        },
        {
          "duration": 0.23359374999999716,
          "durationTicks": 299,
          "midi": 67,
          "name": "G4",
          "ticks": 114600,
          "time": 89.53125,
          "velocity": 0.5118110236220472
        },
        {
          "duration": 0.23984374999999147,
          "durationTicks": 307,
          "midi": 69,
          "name": "A4",
          "ticks": 114840,
          "time": 89.71875,
          "velocity": 0.5118110236220472
        },
        {
          "duration": 0.22421875000000568,
          "durationTicks": 287,
          "midi": 69,
          "name": "A4",
          "ticks": 115200,
          "time": 90,
          "velocity": 0.4251968503937008
        },
        {
          "duration": 0.22578124999999716,
          "durationTicks": 289,
          "midi": 70,
          "name": "A#4",
          "ticks": 115560,
          "time": 90.28125,
          "velocity": 0.44881889763779526
        },
        {
          "duration": 0.20703125,
          "durationTicks": 265,
          "midi": 62,
          "name": "D4",
          "ticks": 115920,
          "time": 90.5625,
          "velocity": 0.33858267716535434
        },
        {
          "duration": 0.08671874999998863,
          "durationTicks": 111,
          "midi": 68,
          "name": "G#4",
          "ticks": 116160,
          "time": 90.75,
          "velocity": 0.3937007874015748
        },
        {
          "duration": 0.2554687500000057,
          "durationTicks": 327,
          "midi": 69,
          "name": "A4",
          "ticks": 116280,
          "time": 90.84375,
          "velocity": 0.44881889763779526
        },
        {
          "duration": 0.8445312500000028,
          "durationTicks": 1081,
          "midi": 68,
          "name": "G#4",
          "ticks": 116640,
          "time": 91.125,
          "velocity": 0.36220472440944884
        },
        {
          "duration": 0.057031249999994316,
          "durationTicks": 73,
          "midi": 64,
          "name": "E4",
          "ticks": 117720,
          "time": 91.96875,
          "velocity": 0.25196850393700787
        },
        {
          "duration": 0.07187500000000568,
          "durationTicks": 92,
          "midi": 68,
          "name": "G#4",
          "ticks": 117840,
          "time": 92.0625,
          "velocity": 0.5118110236220472
        },
        {
          "duration": 0.15937500000001137,
          "durationTicks": 204,
          "midi": 69,
          "name": "A4",
          "ticks": 117960,
          "time": 92.15625,
          "velocity": 0.5118110236220472
        },
        {
          "duration": 0.22812499999999147,
          "durationTicks": 292,
          "midi": 71,
          "name": "B4",
          "ticks": 118200,
          "time": 92.34375,
          "velocity": 0.44881889763779526
        },
        {
          "duration": 0.23515625000000284,
          "durationTicks": 301,
          "midi": 71,
          "name": "B4",
          "ticks": 118560,
          "time": 92.625,
          "velocity": 0.4251968503937008
        },
        {
          "duration": 1.3375000000000057,
          "durationTicks": 1712,
          "midi": 64,
          "name": "E4",
          "ticks": 118920,
          "time": 92.90625,
          "velocity": 0.2204724409448819
        },
        {
          "duration": 0.06328124999998863,
          "durationTicks": 81,
          "midi": 65,
          "name": "F4",
          "ticks": 120600,
          "time": 94.21875,
          "velocity": 0.44881889763779526
        },
        {
          "duration": 0.19453125000001137,
          "durationTicks": 249,
          "midi": 66,
          "name": "F#4",
          "ticks": 120720,
          "time": 94.3125,
          "velocity": 0.5118110236220472
        },
        {
          "duration": 0.6117187499999943,
          "durationTicks": 783,
          "midi": 69,
          "name": "A4",
          "ticks": 120960,
          "time": 94.5,
          "velocity": 0.5118110236220472
        },
        {
          "duration": 0.46796874999999716,
          "durationTicks": 599,
          "midi": 62,
          "name": "D4",
          "ticks": 121800,
          "time": 95.15625,
          "velocity": 0.36220472440944884
        },
        {
          "duration": 0.5765625000000085,
          "durationTicks": 738,
          "midi": 74,
          "name": "D5",
          "ticks": 122400,
          "time": 95.625,
          "velocity": 0.5118110236220472
        },
        {
          "duration": 0.5335937499999943,
          "durationTicks": 683,
          "midi": 69,
          "name": "A4",
          "ticks": 123120,
          "time": 96.1875,
          "velocity": 0.5118110236220472
        },
        {
          "duration": 0.29765624999998863,
          "durationTicks": 381,
          "midi": 72,
          "name": "C5",
          "ticks": 123840,
          "time": 96.75,
          "velocity": 0.5748031496062992
        },
        {
          "duration": 0.22109374999999432,
          "durationTicks": 283,
          "midi": 72,
          "name": "C5",
          "ticks": 124320,
          "time": 97.125,
          "velocity": 0.5118110236220472
        },
        {
          "duration": 0.23749999999999716,
          "durationTicks": 304,
          "midi": 69,
          "name": "A4",
          "ticks": 124680,
          "time": 97.40625,
          "velocity": 0.44881889763779526
        },
        {
          "duration": 0.22578124999999716,
          "durationTicks": 289,
          "midi": 67,
          "name": "G4",
          "ticks": 125040,
          "time": 97.6875,
          "velocity": 0.4251968503937008
        },
        {
          "duration": 0.7718749999999943,
          "durationTicks": 988,
          "midi": 65,
          "name": "F4",
          "ticks": 125400,
          "time": 97.96875,
          "velocity": 0.28346456692913385
        },
        {
          "duration": 0.06953124999998295,
          "durationTicks": 89,
          "midi": 72,
          "name": "C5",
          "ticks": 126360,
          "time": 98.71875,
          "velocity": 0.5748031496062992
        },
        {
          "duration": 0.30937499999998863,
          "durationTicks": 396,
          "midi": 74,
          "name": "D5",
          "ticks": 126480,
          "time": 98.8125,
          "velocity": 0.5748031496062992
        },
        {
          "duration": 0.5242187500000028,
          "durationTicks": 671,
          "midi": 72,
          "name": "C5",
          "ticks": 126840,
          "time": 99.09375,
          "velocity": 0.5118110236220472
        },
        {
          "duration": 0.19687499999999147,
          "durationTicks": 252,
          "midi": 70,
          "name": "A#4",
          "ticks": 127560,
          "time": 99.65625,
          "velocity": 0.44881889763779526
        },
        {
          "duration": 0.13046875000000568,
          "durationTicks": 167,
          "midi": 69,
          "name": "A4",
          "ticks": 127800,
          "time": 99.84375,
          "velocity": 0.33858267716535434
        },
        {
          "duration": 0.09218749999999432,
          "durationTicks": 118,
          "midi": 67,
          "name": "G4",
          "ticks": 127920,
          "time": 99.9375,
          "velocity": 0.4251968503937008
        },
        {
          "duration": 0.15312500000001705,
          "durationTicks": 196,
          "midi": 65,
          "name": "F4",
          "ticks": 128040,
          "time": 100.03125,
          "velocity": 0.2125984251968504
        },
        {
          "duration": 0.5234375,
          "durationTicks": 670,
          "midi": 64,
          "name": "E4",
          "ticks": 128280,
          "time": 100.21875,
          "velocity": 0.30708661417322836
        },
        {
          "duration": 0.06562500000001137,
          "durationTicks": 84,
          "midi": 74,
          "name": "D5",
          "ticks": 129000,
          "time": 100.78125,
          "velocity": 0.5748031496062992
        },
        {
          "duration": 0.21171875000001705,
          "durationTicks": 271,
          "midi": 76,
          "name": "E5",
          "ticks": 129000,
          "time": 100.78125,
          "velocity": 0.5748031496062992
        },
        {
          "duration": 0.20937499999999432,
          "durationTicks": 268,
          "midi": 74,
          "name": "D5",
          "ticks": 129360,
          "time": 101.0625,
          "velocity": 0.5748031496062992
        },
        {
          "duration": 3.3515625,
          "durationTicks": 4290,
          "midi": 72,
          "name": "C5",
          "ticks": 129600,
          "time": 101.25,
          "velocity": 0.5118110236220472
        },
        {
          "duration": 0.20468750000000568,
          "durationTicks": 262,
          "midi": 76,
          "name": "E5",
          "ticks": 134400,
          "time": 105,
          "velocity": 0.6377952755905512
        },
        {
          "duration": 0.04765625000001705,
          "durationTicks": 61,
          "midi": 77,
          "name": "F5",
          "ticks": 134640,
          "time": 105.1875,
          "velocity": 0.36220472440944884
        },
        {
          "duration": 0.046875,
          "durationTicks": 60,
          "midi": 76,
          "name": "E5",
          "ticks": 134760,
          "time": 105.28125,
          "velocity": 0.44881889763779526
        },
        {
          "duration": 0.22968750000001137,
          "durationTicks": 294,
          "midi": 72,
          "name": "C5",
          "ticks": 134880,
          "time": 105.375,
          "velocity": 0.36220472440944884
        },
        {
          "duration": 0.18671874999998295,
          "durationTicks": 239,
          "midi": 69,
          "name": "A4",
          "ticks": 135240,
          "time": 105.65625,
          "velocity": 0.5118110236220472
        },
        {
          "duration": 0.25312500000001137,
          "durationTicks": 324,
          "midi": 67,
          "name": "G4",
          "ticks": 135480,
          "time": 105.84375,
          "velocity": 0.4251968503937008
        },
        {
          "duration": 0.17265625000000284,
          "durationTicks": 221,
          "midi": 69,
          "name": "A4",
          "ticks": 135840,
          "time": 106.125,
          "velocity": 0.5118110236220472
        },
        {
          "duration": 0.16484375000001705,
          "durationTicks": 211,
          "midi": 67,
          "name": "G4",
          "ticks": 136200,
          "time": 106.40625,
          "velocity": 0.5748031496062992
        },
        {
          "duration": 0.16562500000000568,
          "durationTicks": 212,
          "midi": 65,
          "name": "F4",
          "ticks": 136440,
          "time": 106.59375,
          "velocity": 0.4251968503937008
        },
        {
          "duration": 0.17656250000001705,
          "durationTicks": 226,
          "midi": 64,
          "name": "E4",
          "ticks": 136680,
          "time": 106.78125,
          "velocity": 0.36220472440944884
        },
        {
          "duration": 0.12343749999999432,
          "durationTicks": 158,
          "midi": 65,
          "name": "F4",
          "ticks": 136920,
          "time": 106.96875,
          "velocity": 0.25196850393700787
        },
        {
          "duration": 0.13125000000000853,
          "durationTicks": 168,
          "midi": 69,
          "name": "A4",
          "ticks": 137160,
          "time": 107.15625,
          "velocity": 0.5118110236220472
        },
        {
          "duration": 0.16874999999998863,
          "durationTicks": 216,
          "midi": 73,
          "name": "C#5",
          "ticks": 137400,
          "time": 107.34375,
          "velocity": 0.33858267716535434
        },
        {
          "duration": 0.15625,
          "durationTicks": 200,
          "midi": 76,
          "name": "E5",
          "ticks": 137640,
          "time": 107.53125,
          "velocity": 0.5118110236220472
        },
        {
          "duration": 0.12578125000000284,
          "durationTicks": 161,
          "midi": 74,
          "name": "D5",
          "ticks": 137880,
          "time": 107.71875,
          "velocity": 0.25196850393700787
        },
        {
          "duration": 0.13750000000000284,
          "durationTicks": 176,
          "midi": 76,
          "name": "E5",
          "ticks": 138120,
          "time": 107.90625,
          "velocity": 0.44881889763779526
        },
        {
          "duration": 0.16171874999999147,
          "durationTicks": 207,
          "midi": 77,
          "name": "F5",
          "ticks": 138360,
          "time": 108.09375,
          "velocity": 0.44881889763779526
        },
        {
          "duration": 0.14531249999998863,
          "durationTicks": 186,
          "midi": 77,
          "name": "F5",
          "ticks": 138600,
          "time": 108.28125,
          "velocity": 0.5748031496062992
        },
        {
          "duration": 0.16093750000000284,
          "durationTicks": 206,
          "midi": 74,
          "name": "D5",
          "ticks": 138840,
          "time": 108.46875,
          "velocity": 0.30708661417322836
        },
        {
          "duration": 0.13125000000000853,
          "durationTicks": 168,
          "midi": 74,
          "name": "D5",
          "ticks": 139080,
          "time": 108.65625,
          "velocity": 0.5118110236220472
        },
        {
          "duration": 0.16015625,
          "durationTicks": 205,
          "midi": 70,
          "name": "A#4",
          "ticks": 139320,
          "time": 108.84375,
          "velocity": 0.3937007874015748
        },
        {
          "duration": 0.16796875,
          "durationTicks": 215,
          "midi": 70,
          "name": "A#4",
          "ticks": 139560,
          "time": 109.03125,
          "velocity": 0.4251968503937008
        },
        {
          "duration": 0.19453125000001137,
          "durationTicks": 249,
          "midi": 71,
          "name": "B4",
          "ticks": 139800,
          "time": 109.21875,
          "velocity": 0.4251968503937008
        },
        {
          "duration": 0.16640625000000853,
          "durationTicks": 213,
          "midi": 71,
          "name": "B4",
          "ticks": 140040,
          "time": 109.40625,
          "velocity": 0.5118110236220472
        },
        {
          "duration": 0.16015625,
          "durationTicks": 205,
          "midi": 68,
          "name": "G#4",
          "ticks": 140280,
          "time": 109.59375,
          "velocity": 0.2204724409448819
        },
        {
          "duration": 0.14999999999999147,
          "durationTicks": 192,
          "midi": 68,
          "name": "G#4",
          "ticks": 140520,
          "time": 109.78125,
          "velocity": 0.4251968503937008
        },
        {
          "duration": 0.17343749999999147,
          "durationTicks": 222,
          "midi": 71,
          "name": "B4",
          "ticks": 140760,
          "time": 109.96875,
          "velocity": 0.44881889763779526
        },
        {
          "duration": 0.12031249999999716,
          "durationTicks": 154,
          "midi": 74,
          "name": "D5",
          "ticks": 141000,
          "time": 110.15625,
          "velocity": 0.5748031496062992
        },
        {
          "duration": 0.07343749999999716,
          "durationTicks": 94,
          "midi": 72,
          "name": "C5",
          "ticks": 141240,
          "time": 110.34375,
          "velocity": 0.5118110236220472
        },
        {
          "duration": 0.24062499999999432,
          "durationTicks": 308,
          "midi": 73,
          "name": "C#5",
          "ticks": 141360,
          "time": 110.4375,
          "velocity": 0.44881889763779526
        },
        {
          "duration": 0.20859374999999147,
          "durationTicks": 267,
          "midi": 76,
          "name": "E5",
          "ticks": 141720,
          "time": 110.71875,
          "velocity": 0.5118110236220472
        },
        {
          "duration": 0.16874999999998863,
          "durationTicks": 216,
          "midi": 73,
          "name": "C#5",
          "ticks": 141960,
          "time": 110.90625,
          "velocity": 0.44881889763779526
        },
        {
          "duration": 0.11093750000000568,
          "durationTicks": 142,
          "midi": 71,
          "name": "B4",
          "ticks": 142200,
          "time": 111.09375,
          "velocity": 0.44881889763779526
        },
        {
          "duration": 0.12734374999999432,
          "durationTicks": 163,
          "midi": 69,
          "name": "A4",
          "ticks": 142320,
          "time": 111.1875,
          "velocity": 0.30708661417322836
        },
        {
          "duration": 0.6382812500000057,
          "durationTicks": 817,
          "midi": 74,
          "name": "D5",
          "ticks": 142560,
          "time": 111.375,
          "velocity": 0.5118110236220472
        },
        {
          "duration": 0.09609375000000853,
          "durationTicks": 123,
          "midi": 69,
          "name": "A4",
          "ticks": 143400,
          "time": 112.03125,
          "velocity": 0.25196850393700787
        },
        {
          "duration": 0.1796875,
          "durationTicks": 230,
          "midi": 74,
          "name": "D5",
          "ticks": 143520,
          "time": 112.125,
          "velocity": 0.5118110236220472
        },
        {
          "duration": 0.14765625000001137,
          "durationTicks": 189,
          "midi": 72,
          "name": "C5",
          "ticks": 143880,
          "time": 112.40625,
          "velocity": 0.5118110236220472
        },
        {
          "duration": 0.21562499999998863,
          "durationTicks": 276,
          "midi": 71,
          "name": "B4",
          "ticks": 144120,
          "time": 112.59375,
          "velocity": 0.28346456692913385
        },
        {
          "duration": 0.04999999999999716,
          "durationTicks": 64,
          "midi": 72,
          "name": "C5",
          "ticks": 144360,
          "time": 112.78125,
          "velocity": 0.3937007874015748
        },
        {
          "duration": 0.052343750000005684,
          "durationTicks": 67,
          "midi": 71,
          "name": "B4",
          "ticks": 144480,
          "time": 112.875,
          "velocity": 0.33858267716535434
        },
        {
          "duration": 0.20781250000000284,
          "durationTicks": 266,
          "midi": 67,
          "name": "G4",
          "ticks": 144600,
          "time": 112.96875,
          "velocity": 0.33858267716535434
        },
        {
          "duration": 0.14921875000000284,
          "durationTicks": 191,
          "midi": 62,
          "name": "D4",
          "ticks": 144840,
          "time": 113.15625,
          "velocity": 0.5748031496062992
        },
        {
          "duration": 0.20703125,
          "durationTicks": 265,
          "midi": 60,
          "name": "C4",
          "ticks": 145080,
          "time": 113.34375,
          "velocity": 0.36220472440944884
        },
        {
          "duration": 0.3179687500000057,
          "durationTicks": 407,
          "midi": 62,
          "name": "D4",
          "ticks": 145320,
          "time": 113.53125,
          "velocity": 0.44881889763779526
        },
        {
          "duration": 0.11875000000000568,
          "durationTicks": 152,
          "midi": 60,
          "name": "C4",
          "ticks": 145800,
          "time": 113.90625,
          "velocity": 0.2204724409448819
        },
        {
          "duration": 0.17578125,
          "durationTicks": 225,
          "midi": 62,
          "name": "D4",
          "ticks": 145920,
          "time": 114,
          "velocity": 0.5118110236220472
        },
        {
          "duration": 0.12109375,
          "durationTicks": 155,
          "midi": 63,
          "name": "D#4",
          "ticks": 146280,
          "time": 114.28125,
          "velocity": 0.3937007874015748
        },
        {
          "duration": 0.18359375,
          "durationTicks": 235,
          "midi": 64,
          "name": "E4",
          "ticks": 146400,
          "time": 114.375,
          "velocity": 0.28346456692913385
        },
        {
          "duration": 0.13984374999998295,
          "durationTicks": 179,
          "midi": 67,
          "name": "G4",
          "ticks": 146760,
          "time": 114.65625,
          "velocity": 0.5748031496062992
        },
        {
          "duration": 0.33671875000000284,
          "durationTicks": 431,
          "midi": 60,
          "name": "C4",
          "ticks": 146880,
          "time": 114.75,
          "velocity": 0.2047244094488189
        },
        {
          "duration": 0.25390625,
          "durationTicks": 325,
          "midi": 67,
          "name": "G4",
          "ticks": 147360,
          "time": 115.125,
          "velocity": 0.5118110236220472
        },
        {
          "duration": 0.109375,
          "durationTicks": 140,
          "midi": 60,
          "name": "C4",
          "ticks": 147720,
          "time": 115.40625,
          "velocity": 0.1968503937007874
        },
        {
          "duration": 0.24765625000000568,
          "durationTicks": 317,
          "midi": 69,
          "name": "A4",
          "ticks": 147840,
          "time": 115.5,
          "velocity": 0.5118110236220472
        },
        {
          "duration": 0.14374999999999716,
          "durationTicks": 184,
          "midi": 60,
          "name": "C4",
          "ticks": 148200,
          "time": 115.78125,
          "velocity": 0.2125984251968504
        },
        {
          "duration": 0.5757812500000057,
          "durationTicks": 737,
          "midi": 65,
          "name": "F4",
          "ticks": 148320,
          "time": 115.875,
          "velocity": 0.36220472440944884
        },
        {
          "duration": 0.0234375,
          "durationTicks": 30,
          "midi": 60,
          "name": "C4",
          "ticks": 149160,
          "time": 116.53125,
          "velocity": 0.11023622047244094
        },
        {
          "duration": 0.22109374999999432,
          "durationTicks": 283,
          "midi": 67,
          "name": "G4",
          "ticks": 149160,
          "time": 116.53125,
          "velocity": 0.36220472440944884
        },
        {
          "duration": 0.14609375000000568,
          "durationTicks": 187,
          "midi": 69,
          "name": "A4",
          "ticks": 149520,
          "time": 116.8125,
          "velocity": 0.5118110236220472
        },
        {
          "duration": 0.05937500000001705,
          "durationTicks": 76,
          "midi": 70,
          "name": "A#4",
          "ticks": 149760,
          "time": 117,
          "velocity": 0.4251968503937008
        },
        {
          "duration": 0.3257812499999915,
          "durationTicks": 417,
          "midi": 71,
          "name": "B4",
          "ticks": 149880,
          "time": 117.09375,
          "velocity": 0.5748031496062992
        },
        {
          "duration": 0.17578125,
          "durationTicks": 225,
          "midi": 62,
          "name": "D4",
          "ticks": 150360,
          "time": 117.46875,
          "velocity": 0.36220472440944884
        },
        {
          "duration": 0.15781250000000568,
          "durationTicks": 202,
          "midi": 66,
          "name": "F#4",
          "ticks": 150600,
          "time": 117.65625,
          "velocity": 0.5118110236220472
        },
        {
          "duration": 0.16328124999998295,
          "durationTicks": 209,
          "midi": 71,
          "name": "B4",
          "ticks": 150840,
          "time": 117.84375,
          "velocity": 0.4251968503937008
        },
        {
          "duration": 0.13203124999999716,
          "durationTicks": 169,
          "midi": 67,
          "name": "G4",
          "ticks": 151080,
          "time": 118.03125,
          "velocity": 0.44881889763779526
        },
        {
          "duration": 0.17578125,
          "durationTicks": 225,
          "midi": 68,
          "name": "G#4",
          "ticks": 151320,
          "time": 118.21875,
          "velocity": 0.16535433070866143
        },
        {
          "duration": 0.36015625000000284,
          "durationTicks": 461,
          "midi": 76,
          "name": "E5",
          "ticks": 151560,
          "time": 118.40625,
          "velocity": 0.5118110236220472
        },
        {
          "duration": 0.056249999999991473,
          "durationTicks": 72,
          "midi": 68,
          "name": "G#4",
          "ticks": 152040,
          "time": 118.78125,
          "velocity": 0.18110236220472442
        },
        {
          "duration": 0.17890624999999716,
          "durationTicks": 229,
          "midi": 74,
          "name": "D5",
          "ticks": 152160,
          "time": 118.875,
          "velocity": 0.44881889763779526
        },
        {
          "duration": 0.1328125,
          "durationTicks": 170,
          "midi": 76,
          "name": "E5",
          "ticks": 152400,
          "time": 119.0625,
          "velocity": 0.44881889763779526
        },
        {
          "duration": 0.0546875,
          "durationTicks": 70,
          "midi": 71,
          "name": "B4",
          "ticks": 152640,
          "time": 119.25,
          "velocity": 0.44881889763779526
        },
        {
          "duration": 0.2953125000000085,
          "durationTicks": 378,
          "midi": 76,
          "name": "E5",
          "ticks": 152640,
          "time": 119.25,
          "velocity": 0.44881889763779526
        },
        {
          "duration": 0.25390625,
          "durationTicks": 325,
          "midi": 73,
          "name": "C#5",
          "ticks": 152760,
          "time": 119.34375,
          "velocity": 0.5118110236220472
        },
        {
          "duration": 0.20859374999999147,
          "durationTicks": 267,
          "midi": 71,
          "name": "B4",
          "ticks": 153120,
          "time": 119.625,
          "velocity": 0.3937007874015748
        },
        {
          "duration": 0.234375,
          "durationTicks": 300,
          "midi": 76,
          "name": "E5",
          "ticks": 153120,
          "time": 119.625,
          "velocity": 0.3937007874015748
        },
        {
          "duration": 0.33984375,
          "durationTicks": 435,
          "midi": 69,
          "name": "A4",
          "ticks": 153480,
          "time": 119.90625,
          "velocity": 0.30708661417322836
        },
        {
          "duration": 0.053124999999994316,
          "durationTicks": 68,
          "midi": 73,
          "name": "C#5",
          "ticks": 154320,
          "time": 120.5625,
          "velocity": 0.5748031496062992
        },
        {
          "duration": 0.06562500000001137,
          "durationTicks": 84,
          "midi": 73,
          "name": "C#5",
          "ticks": 154440,
          "time": 120.65625,
          "velocity": 0.33858267716535434
        },
        {
          "duration": 0.09453125000001705,
          "durationTicks": 121,
          "midi": 74,
          "name": "D5",
          "ticks": 154440,
          "time": 120.65625,
          "velocity": 0.36220472440944884
        },
        {
          "duration": 0.27265624999999716,
          "durationTicks": 349,
          "midi": 71,
          "name": "B4",
          "ticks": 154560,
          "time": 120.75,
          "velocity": 0.28346456692913385
        },
        {
          "duration": 0.06328124999998863,
          "durationTicks": 81,
          "midi": 66,
          "name": "F#4",
          "ticks": 154920,
          "time": 121.03125,
          "velocity": 0.11023622047244094
        },
        {
          "duration": 0.17343749999999147,
          "durationTicks": 222,
          "midi": 74,
          "name": "D5",
          "ticks": 155040,
          "time": 121.125,
          "velocity": 0.5748031496062992
        },
        {
          "duration": 0.14374999999999716,
          "durationTicks": 184,
          "midi": 72,
          "name": "C5",
          "ticks": 155400,
          "time": 121.40625,
          "velocity": 0.5748031496062992
        },
        {
          "duration": 0.19687499999999147,
          "durationTicks": 252,
          "midi": 73,
          "name": "C#5",
          "ticks": 155640,
          "time": 121.59375,
          "velocity": 0.30708661417322836
        },
        {
          "duration": 0.7523437500000085,
          "durationTicks": 963,
          "midi": 76,
          "name": "E5",
          "ticks": 155880,
          "time": 121.78125,
          "velocity": 0.4251968503937008
        },
        {
          "duration": 0.29296875,
          "durationTicks": 375,
          "midi": 77,
          "name": "F5",
          "ticks": 158400,
          "time": 123.75,
          "velocity": 0.6377952755905512
        },
        {
          "duration": 0.16484375000001705,
          "durationTicks": 211,
          "midi": 74,
          "name": "D5",
          "ticks": 159000,
          "time": 124.21875,
          "velocity": 0.5118110236220472
        },
        {
          "duration": 0.14374999999999716,
          "durationTicks": 184,
          "midi": 70,
          "name": "A#4",
          "ticks": 159240,
          "time": 124.40625,
          "velocity": 0.5748031496062992
        },
        {
          "duration": 0.16796875,
          "durationTicks": 215,
          "midi": 69,
          "name": "A4",
          "ticks": 159480,
          "time": 124.59375,
          "velocity": 0.44881889763779526
        },
        {
          "duration": 0.16328124999998295,
          "durationTicks": 209,
          "midi": 67,
          "name": "G4",
          "ticks": 159720,
          "time": 124.78125,
          "velocity": 0.4251968503937008
        },
        {
          "duration": 0.16249999999999432,
          "durationTicks": 208,
          "midi": 65,
          "name": "F4",
          "ticks": 159960,
          "time": 124.96875,
          "velocity": 0.25196850393700787
        },
        {
          "duration": 0.14921875000000284,
          "durationTicks": 191,
          "midi": 63,
          "name": "D#4",
          "ticks": 160200,
          "time": 125.15625,
          "velocity": 0.28346456692913385
        },
        {
          "duration": 0.16562500000000568,
          "durationTicks": 212,
          "midi": 64,
          "name": "E4",
          "ticks": 160440,
          "time": 125.34375,
          "velocity": 0.25196850393700787
        },
        {
          "duration": 0.17343749999999147,
          "durationTicks": 222,
          "midi": 76,
          "name": "E5",
          "ticks": 160680,
          "time": 125.53125,
          "velocity": 0.5118110236220472
        },
        {
          "duration": 0.15234375,
          "durationTicks": 195,
          "midi": 74,
          "name": "D5",
          "ticks": 160920,
          "time": 125.71875,
          "velocity": 0.5118110236220472
        },
        {
          "duration": 0.203125,
          "durationTicks": 260,
          "midi": 76,
          "name": "E5",
          "ticks": 161160,
          "time": 125.90625,
          "velocity": 0.5118110236220472
        },
        {
          "duration": 0.21250000000000568,
          "durationTicks": 272,
          "midi": 72,
          "name": "C5",
          "ticks": 161520,
          "time": 126.1875,
          "velocity": 0.44881889763779526
        },
        {
          "duration": 1.14453125,
          "durationTicks": 1465,
          "midi": 72,
          "name": "C5",
          "ticks": 161760,
          "time": 126.375,
          "velocity": 0.3937007874015748
        },
        {
          "duration": 0.05078125,
          "durationTicks": 65,
          "midi": 65,
          "name": "F4",
          "ticks": 163320,
          "time": 127.59375,
          "velocity": 0.44881889763779526
        },
        {
          "duration": 0.20078125000000568,
          "durationTicks": 257,
          "midi": 66,
          "name": "F#4",
          "ticks": 163440,
          "time": 127.6875,
          "velocity": 0.5118110236220472
        },
        {
          "duration": 0.17812500000002274,
          "durationTicks": 228,
          "midi": 74,
          "name": "D5",
          "ticks": 163800,
          "time": 127.96875,
          "velocity": 0.7086614173228346
        },
        {
          "duration": 0.17343749999997726,
          "durationTicks": 222,
          "midi": 72,
          "name": "C5",
          "ticks": 164040,
          "time": 128.15625,
          "velocity": 0.5748031496062992
        },
        {
          "duration": 0.21718749999999432,
          "durationTicks": 278,
          "midi": 72,
          "name": "C5",
          "ticks": 164280,
          "time": 128.34375,
          "velocity": 0.44881889763779526
        },
        {
          "duration": 0.2710937500000057,
          "durationTicks": 347,
          "midi": 74,
          "name": "D5",
          "ticks": 164640,
          "time": 128.625,
          "velocity": 0.44881889763779526
        },
        {
          "duration": 1.3156250000000114,
          "durationTicks": 1684,
          "midi": 70,
          "name": "A#4",
          "ticks": 165000,
          "time": 128.90625,
          "velocity": 0.33858267716535434
        },
        {
          "duration": 0.10234374999998863,
          "durationTicks": 131,
          "midi": 69,
          "name": "A4",
          "ticks": 166680,
          "time": 130.21875,
          "velocity": 0.44881889763779526
        },
        {
          "duration": 0.11015624999998863,
          "durationTicks": 141,
          "midi": 67,
          "name": "G4",
          "ticks": 166920,
          "time": 130.40625,
          "velocity": 0.5118110236220472
        },
        {
          "duration": 0.30078125,
          "durationTicks": 385,
          "midi": 67,
          "name": "G4",
          "ticks": 167040,
          "time": 130.5,
          "velocity": 0.5118110236220472
        },
        {
          "duration": 0.27421874999998863,
          "durationTicks": 351,
          "midi": 69,
          "name": "A4",
          "ticks": 167520,
          "time": 130.875,
          "velocity": 0.44881889763779526
        },
        {
          "duration": 1.346874999999983,
          "durationTicks": 1724,
          "midi": 65,
          "name": "F4",
          "ticks": 167880,
          "time": 131.15625,
          "velocity": 0.33858267716535434
        },
        {
          "duration": 0.08906250000001137,
          "durationTicks": 114,
          "midi": 67,
          "name": "G4",
          "ticks": 169560,
          "time": 132.46875,
          "velocity": 0.36220472440944884
        },
        {
          "duration": 0.19218749999998863,
          "durationTicks": 246,
          "midi": 69,
          "name": "A4",
          "ticks": 169680,
          "time": 132.5625,
          "velocity": 0.6377952755905512
        },
        {
          "duration": 0.23671875000002274,
          "durationTicks": 303,
          "midi": 69,
          "name": "A4",
          "ticks": 170040,
          "time": 132.84375,
          "velocity": 0.5118110236220472
        },
        {
          "duration": 0.23203124999997726,
          "durationTicks": 297,
          "midi": 70,
          "name": "A#4",
          "ticks": 170400,
          "time": 133.125,
          "velocity": 0.5118110236220472
        },
        {
          "duration": 0.14687499999999432,
          "durationTicks": 188,
          "midi": 69,
          "name": "A4",
          "ticks": 170760,
          "time": 133.40625,
          "velocity": 0.5748031496062992
        },
        {
          "duration": 0.19062500000001137,
          "durationTicks": 244,
          "midi": 65,
          "name": "F4",
          "ticks": 171000,
          "time": 133.59375,
          "velocity": 0.36220472440944884
        },
        {
          "duration": 0.17499999999998295,
          "durationTicks": 224,
          "midi": 62,
          "name": "D4",
          "ticks": 171240,
          "time": 133.78125,
          "velocity": 0.5118110236220472
        },
        {
          "duration": 0.16093749999998863,
          "durationTicks": 206,
          "midi": 60,
          "name": "C4",
          "ticks": 171480,
          "time": 133.96875,
          "velocity": 0.2204724409448819
        },
        {
          "duration": 0.15859374999999432,
          "durationTicks": 203,
          "midi": 61,
          "name": "C#4",
          "ticks": 171720,
          "time": 134.15625,
          "velocity": 0.25196850393700787
        },
        {
          "duration": 0.25,
          "durationTicks": 320,
          "midi": 69,
          "name": "A4",
          "ticks": 171960,
          "time": 134.34375,
          "velocity": 0.5118110236220472
        },
        {
          "duration": 0.08203125,
          "durationTicks": 105,
          "midi": 61,
          "name": "C#4",
          "ticks": 172200,
          "time": 134.53125,
          "velocity": 0.1889763779527559
        },
        {
          "duration": 0.1875,
          "durationTicks": 240,
          "midi": 67,
          "name": "G4",
          "ticks": 172320,
          "time": 134.625,
          "velocity": 0.44881889763779526
        },
        {
          "duration": 0.17812500000002274,
          "durationTicks": 228,
          "midi": 65,
          "name": "F4",
          "ticks": 172680,
          "time": 134.90625,
          "velocity": 0.5748031496062992
        },
        {
          "duration": 0.20078125000000568,
          "durationTicks": 257,
          "midi": 64,
          "name": "E4",
          "ticks": 172920,
          "time": 135.09375,
          "velocity": 0.1889763779527559
        },
        {
          "duration": 0.15625,
          "durationTicks": 200,
          "midi": 65,
          "name": "F4",
          "ticks": 173160,
          "time": 135.28125,
          "velocity": 0.4251968503937008
        },
        {
          "duration": 0.19609374999998863,
          "durationTicks": 251,
          "midi": 69,
          "name": "A4",
          "ticks": 173400,
          "time": 135.46875,
          "velocity": 0.33858267716535434
        },
        {
          "duration": 0.15781250000000568,
          "durationTicks": 202,
          "midi": 73,
          "name": "C#5",
          "ticks": 173640,
          "time": 135.65625,
          "velocity": 0.5748031496062992
        },
        {
          "duration": 0.15937500000001137,
          "durationTicks": 204,
          "midi": 76,
          "name": "E5",
          "ticks": 173880,
          "time": 135.84375,
          "velocity": 0.3937007874015748
        },
        {
          "duration": 0.11875000000000568,
          "durationTicks": 152,
          "midi": 73,
          "name": "C#5",
          "ticks": 174120,
          "time": 136.03125,
          "velocity": 0.30708661417322836
        },
        {
          "duration": 0.2562499999999943,
          "durationTicks": 328,
          "midi": 74,
          "name": "D5",
          "ticks": 174360,
          "time": 136.21875,
          "velocity": 0.4251968503937008
        },
        {
          "duration": 0.20859374999997726,
          "durationTicks": 267,
          "midi": 74,
          "name": "D5",
          "ticks": 174720,
          "time": 136.5,
          "velocity": 0.44881889763779526
        },
        {
          "duration": 0.16093749999998863,
          "durationTicks": 206,
          "midi": 76,
          "name": "E5",
          "ticks": 175080,
          "time": 136.78125,
          "velocity": 0.5118110236220472
        },
        {
          "duration": 0.18203124999999432,
          "durationTicks": 233,
          "midi": 74,
          "name": "D5",
          "ticks": 175320,
          "time": 136.96875,
          "velocity": 0.25196850393700787
        },
        {
          "duration": 0.14609375000000568,
          "durationTicks": 187,
          "midi": 76,
          "name": "E5",
          "ticks": 175560,
          "time": 137.15625,
          "velocity": 0.5118110236220472
        },
        {
          "duration": 0.23203124999997726,
          "durationTicks": 297,
          "midi": 72,
          "name": "C5",
          "ticks": 175800,
          "time": 137.34375,
          "velocity": 0.36220472440944884
        },
        {
          "duration": 0.21640625000000568,
          "durationTicks": 277,
          "midi": 72,
          "name": "C5",
          "ticks": 176160,
          "time": 137.625,
          "velocity": 0.44881889763779526
        },
        {
          "duration": 0.15078124999999432,
          "durationTicks": 193,
          "midi": 71,
          "name": "B4",
          "ticks": 176520,
          "time": 137.90625,
          "velocity": 0.5748031496062992
        },
        {
          "duration": 0.16953125000000568,
          "durationTicks": 217,
          "midi": 69,
          "name": "A4",
          "ticks": 176760,
          "time": 138.09375,
          "velocity": 0.2125984251968504
        },
        {
          "duration": 0.47343749999998863,
          "durationTicks": 606,
          "midi": 71,
          "name": "B4",
          "ticks": 177000,
          "time": 138.28125,
          "velocity": 0.5118110236220472
        },
        {
          "duration": 0.203125,
          "durationTicks": 260,
          "midi": 72,
          "name": "C5",
          "ticks": 177600,
          "time": 138.75,
          "velocity": 0.5748031496062992
        },
        {
          "duration": 0.39765624999998295,
          "durationTicks": 509,
          "midi": 68,
          "name": "G#4",
          "ticks": 177960,
          "time": 139.03125,
          "velocity": 0.5118110236220472
        },
        {
          "duration": 0.16953125000000568,
          "durationTicks": 217,
          "midi": 70,
          "name": "A#4",
          "ticks": 178920,
          "time": 139.78125,
          "velocity": 0.5748031496062992
        },
        {
          "duration": 0.04609374999998295,
          "durationTicks": 59,
          "midi": 69,
          "name": "A4",
          "ticks": 179160,
          "time": 139.96875,
          "velocity": 0.25196850393700787
        },
        {
          "duration": 0.04296875,
          "durationTicks": 55,
          "midi": 69,
          "name": "A4",
          "ticks": 179280,
          "time": 140.0625,
          "velocity": 0.36220472440944884
        },
        {
          "duration": 0.05937500000001705,
          "durationTicks": 76,
          "midi": 70,
          "name": "A#4",
          "ticks": 179280,
          "time": 140.0625,
          "velocity": 0.44881889763779526
        },
        {
          "duration": 0.13984374999998295,
          "durationTicks": 179,
          "midi": 67,
          "name": "G4",
          "ticks": 179400,
          "time": 140.15625,
          "velocity": 0.44881889763779526
        },
        {
          "duration": 0.15859374999999432,
          "durationTicks": 203,
          "midi": 62,
          "name": "D4",
          "ticks": 179640,
          "time": 140.34375,
          "velocity": 0.3937007874015748
        },
        {
          "duration": 0.14921874999998863,
          "durationTicks": 191,
          "midi": 60,
          "name": "C4",
          "ticks": 179880,
          "time": 140.53125,
          "velocity": 0.5118110236220472
        },
        {
          "duration": 0.15156249999998295,
          "durationTicks": 194,
          "midi": 58,
          "name": "A#3",
          "ticks": 180120,
          "time": 140.71875,
          "velocity": 0.14173228346456693
        },
        {
          "duration": 0.14218750000000568,
          "durationTicks": 182,
          "midi": 61,
          "name": "C#4",
          "ticks": 180360,
          "time": 140.90625,
          "velocity": 0.3937007874015748
        },
        {
          "duration": 0.17734375000000568,
          "durationTicks": 227,
          "midi": 63,
          "name": "D#4",
          "ticks": 180600,
          "time": 141.09375,
          "velocity": 0.4251968503937008
        },
        {
          "duration": 0.18437499999998863,
          "durationTicks": 236,
          "midi": 66,
          "name": "F#4",
          "ticks": 180840,
          "time": 141.28125,
          "velocity": 0.4251968503937008
        },
        {
          "duration": 0.18203124999999432,
          "durationTicks": 233,
          "midi": 68,
          "name": "G#4",
          "ticks": 181080,
          "time": 141.46875,
          "velocity": 0.36220472440944884
        },
        {
          "duration": 0.15781250000000568,
          "durationTicks": 202,
          "midi": 70,
          "name": "A#4",
          "ticks": 181320,
          "time": 141.65625,
          "velocity": 0.44881889763779526
        },
        {
          "duration": 0.09296874999998295,
          "durationTicks": 119,
          "midi": 68,
          "name": "G#4",
          "ticks": 181560,
          "time": 141.84375,
          "velocity": 0.30708661417322836
        },
        {
          "duration": 0.19609374999998863,
          "durationTicks": 251,
          "midi": 69,
          "name": "A4",
          "ticks": 181680,
          "time": 141.9375,
          "velocity": 0.4251968503937008
        },
        {
          "duration": 0.22421875000000568,
          "durationTicks": 287,
          "midi": 69,
          "name": "A4",
          "ticks": 181920,
          "time": 142.125,
          "velocity": 0.36220472440944884
        },
        {
          "duration": 0.26874999999998295,
          "durationTicks": 344,
          "midi": 65,
          "name": "F4",
          "ticks": 182280,
          "time": 142.40625,
          "velocity": 0.5118110236220472
        },
        {
          "duration": 0.078125,
          "durationTicks": 100,
          "midi": 64,
          "name": "E4",
          "ticks": 182640,
          "time": 142.6875,
          "velocity": 0.30708661417322836
        },
        {
          "duration": 0.09218749999999432,
          "durationTicks": 118,
          "midi": 65,
          "name": "F4",
          "ticks": 182760,
          "time": 142.78125,
          "velocity": 0.3937007874015748
        },
        {
          "duration": 0.16640625000002274,
          "durationTicks": 213,
          "midi": 69,
          "name": "A4",
          "ticks": 183000,
          "time": 142.96875,
          "velocity": 0.30708661417322836
        },
        {
          "duration": 0.13906249999999432,
          "durationTicks": 178,
          "midi": 73,
          "name": "C#5",
          "ticks": 183240,
          "time": 143.15625,
          "velocity": 0.6377952755905512
        },
        {
          "duration": 0.17343749999997726,
          "durationTicks": 222,
          "midi": 76,
          "name": "E5",
          "ticks": 183480,
          "time": 143.34375,
          "velocity": 0.4251968503937008
        },
        {
          "duration": 0.13125000000002274,
          "durationTicks": 168,
          "midi": 73,
          "name": "C#5",
          "ticks": 183720,
          "time": 143.53125,
          "velocity": 0.44881889763779526
        },
        {
          "duration": 0.16640625000002274,
          "durationTicks": 213,
          "midi": 74,
          "name": "D5",
          "ticks": 183960,
          "time": 143.71875,
          "velocity": 0.36220472440944884
        },
        {
          "duration": 0.16874999999998863,
          "durationTicks": 216,
          "midi": 76,
          "name": "E5",
          "ticks": 184200,
          "time": 143.90625,
          "velocity": 0.4251968503937008
        },
        {
          "duration": 0.16953125000000568,
          "durationTicks": 217,
          "midi": 77,
          "name": "F5",
          "ticks": 184440,
          "time": 144.09375,
          "velocity": 0.3937007874015748
        },
        {
          "duration": 0.16249999999999432,
          "durationTicks": 208,
          "midi": 77,
          "name": "F5",
          "ticks": 184680,
          "time": 144.28125,
          "velocity": 0.5748031496062992
        },
        {
          "duration": 0.04296875,
          "durationTicks": 55,
          "midi": 72,
          "name": "C5",
          "ticks": 184920,
          "time": 144.46875,
          "velocity": 0.11023622047244094
        },
        {
          "duration": 0.14765625000001137,
          "durationTicks": 189,
          "midi": 74,
          "name": "D5",
          "ticks": 184920,
          "time": 144.46875,
          "velocity": 0.11023622047244094
        },
        {
          "duration": 0.11796875000001705,
          "durationTicks": 151,
          "midi": 74,
          "name": "D5",
          "ticks": 185160,
          "time": 144.65625,
          "velocity": 0.44881889763779526
        },
        {
          "duration": 0.15390625000000568,
          "durationTicks": 197,
          "midi": 70,
          "name": "A#4",
          "ticks": 185400,
          "time": 144.84375,
          "velocity": 0.1889763779527559
        },
        {
          "duration": 0.11484374999997726,
          "durationTicks": 147,
          "midi": 70,
          "name": "A#4",
          "ticks": 185640,
          "time": 145.03125,
          "velocity": 0.36220472440944884
        },
        {
          "duration": 0.18046874999998863,
          "durationTicks": 231,
          "midi": 74,
          "name": "D5",
          "ticks": 185760,
          "time": 145.125,
          "velocity": 0.3937007874015748
        },
        {
          "duration": 0.08437500000002274,
          "durationTicks": 108,
          "midi": 74,
          "name": "D5",
          "ticks": 186120,
          "time": 145.40625,
          "velocity": 0.44881889763779526
        },
        {
          "duration": 0.36562500000002274,
          "durationTicks": 468,
          "midi": 76,
          "name": "E5",
          "ticks": 186240,
          "time": 145.5,
          "velocity": 0.44881889763779526
        },
        {
          "duration": 0.20078125000000568,
          "durationTicks": 257,
          "midi": 74,
          "name": "D5",
          "ticks": 186720,
          "time": 145.875,
          "velocity": 0.5118110236220472
        },
        {
          "duration": 0.16484375000001705,
          "durationTicks": 211,
          "midi": 76,
          "name": "E5",
          "ticks": 187080,
          "time": 146.15625,
          "velocity": 0.5118110236220472
        },
        {
          "duration": 0.07968749999997726,
          "durationTicks": 102,
          "midi": 72,
          "name": "C5",
          "ticks": 187320,
          "time": 146.34375,
          "velocity": 0.5118110236220472
        },
        {
          "duration": 0.20703125,
          "durationTicks": 265,
          "midi": 73,
          "name": "C#5",
          "ticks": 187440,
          "time": 146.4375,
          "velocity": 0.5118110236220472
        },
        {
          "duration": 0.234375,
          "durationTicks": 300,
          "midi": 74,
          "name": "D5",
          "ticks": 187680,
          "time": 146.625,
          "velocity": 0.5118110236220472
        },
        {
          "duration": 0.19843749999998295,
          "durationTicks": 254,
          "midi": 73,
          "name": "C#5",
          "ticks": 188040,
          "time": 146.90625,
          "velocity": 0.6377952755905512
        },
        {
          "duration": 0.859375,
          "durationTicks": 1100,
          "midi": 69,
          "name": "A4",
          "ticks": 188400,
          "time": 147.1875,
          "velocity": 0.4251968503937008
        },
        {
          "duration": 0.6007812500000114,
          "durationTicks": 769,
          "midi": 69,
          "name": "A4",
          "ticks": 188760,
          "time": 147.46875,
          "velocity": 0.4251968503937008
        },
        {
          "duration": 0.19765624999999432,
          "durationTicks": 253,
          "midi": 74,
          "name": "D5",
          "ticks": 189480,
          "time": 148.03125,
          "velocity": 0.5748031496062992
        },
        {
          "duration": 0.19453125000001137,
          "durationTicks": 249,
          "midi": 72,
          "name": "C5",
          "ticks": 189840,
          "time": 148.3125,
          "velocity": 0.44881889763779526
        },
        {
          "duration": 0.07109375000001705,
          "durationTicks": 91,
          "midi": 70,
          "name": "A#4",
          "ticks": 190080,
          "time": 148.5,
          "velocity": 0.5118110236220472
        },
        {
          "duration": 0.29062499999997726,
          "durationTicks": 372,
          "midi": 71,
          "name": "B4",
          "ticks": 190200,
          "time": 148.59375,
          "velocity": 0.44881889763779526
        },
        {
          "duration": 0.22812500000000568,
          "durationTicks": 292,
          "midi": 74,
          "name": "D5",
          "ticks": 190560,
          "time": 148.875,
          "velocity": 0.5748031496062992
        },
        {
          "duration": 0.052343750000005684,
          "durationTicks": 67,
          "midi": 70,
          "name": "A#4",
          "ticks": 190920,
          "time": 149.15625,
          "velocity": 0.5118110236220472
        },
        {
          "duration": 0.15312500000001705,
          "durationTicks": 196,
          "midi": 71,
          "name": "B4",
          "ticks": 191040,
          "time": 149.25,
          "velocity": 0.5118110236220472
        },
        {
          "duration": 0.10625000000001705,
          "durationTicks": 136,
          "midi": 69,
          "name": "A4",
          "ticks": 191280,
          "time": 149.4375,
          "velocity": 0.44881889763779526
        },
        {
          "duration": 0.1171875,
          "durationTicks": 150,
          "midi": 67,
          "name": "G4",
          "ticks": 191400,
          "time": 149.53125,
          "velocity": 0.16535433070866143
        },
        {
          "duration": 0.22187499999998295,
          "durationTicks": 284,
          "midi": 70,
          "name": "A#4",
          "ticks": 191520,
          "time": 149.625,
          "velocity": 0.5748031496062992
        },
        {
          "duration": 0.11484374999997726,
          "durationTicks": 147,
          "midi": 67,
          "name": "G4",
          "ticks": 191880,
          "time": 149.90625,
          "velocity": 0.28346456692913385
        },
        {
          "duration": 0.25390625,
          "durationTicks": 325,
          "midi": 70,
          "name": "A#4",
          "ticks": 192000,
          "time": 150,
          "velocity": 0.5748031496062992
        },
        {
          "duration": 0.10468749999998295,
          "durationTicks": 134,
          "midi": 67,
          "name": "G4",
          "ticks": 192360,
          "time": 150.28125,
          "velocity": 0.2125984251968504
        },
        {
          "duration": 0.20234375000001137,
          "durationTicks": 259,
          "midi": 70,
          "name": "A#4",
          "ticks": 192480,
          "time": 150.375,
          "velocity": 0.5118110236220472
        },
        {
          "duration": 0.13515624999999432,
          "durationTicks": 173,
          "midi": 72,
          "name": "C5",
          "ticks": 192840,
          "time": 150.65625,
          "velocity": 0.5118110236220472
        },
        {
          "duration": 0.05937500000001705,
          "durationTicks": 76,
          "midi": 68,
          "name": "G#4",
          "ticks": 193080,
          "time": 150.84375,
          "velocity": 0.36220472440944884
        },
        {
          "duration": 0.1484375,
          "durationTicks": 190,
          "midi": 69,
          "name": "A4",
          "ticks": 193080,
          "time": 150.84375,
          "velocity": 0.3937007874015748
        },
        {
          "duration": 0.14531249999998863,
          "durationTicks": 186,
          "midi": 70,
          "name": "A#4",
          "ticks": 193320,
          "time": 151.03125,
          "velocity": 0.5748031496062992
        },
        {
          "duration": 0.1484375,
          "durationTicks": 190,
          "midi": 69,
          "name": "A4",
          "ticks": 193560,
          "time": 151.21875,
          "velocity": 0.30708661417322836
        },
        {
          "duration": 0.13906249999999432,
          "durationTicks": 178,
          "midi": 65,
          "name": "F4",
          "ticks": 193800,
          "time": 151.40625,
          "velocity": 0.44881889763779526
        },
        {
          "duration": 0.21250000000000568,
          "durationTicks": 272,
          "midi": 62,
          "name": "D4",
          "ticks": 193920,
          "time": 151.5,
          "velocity": 0.2047244094488189
        },
        {
          "duration": 0.08203125,
          "durationTicks": 105,
          "midi": 60,
          "name": "C4",
          "ticks": 194280,
          "time": 151.78125,
          "velocity": 0.11023622047244094
        },
        {
          "duration": 0.20546874999999432,
          "durationTicks": 263,
          "midi": 62,
          "name": "D4",
          "ticks": 194400,
          "time": 151.875,
          "velocity": 0.30708661417322836
        },
        {
          "duration": 0.12187499999998863,
          "durationTicks": 156,
          "midi": 65,
          "name": "F4",
          "ticks": 194760,
          "time": 152.15625,
          "velocity": 0.5118110236220472
        },
        {
          "duration": 0.08750000000000568,
          "durationTicks": 112,
          "midi": 62,
          "name": "D4",
          "ticks": 195240,
          "time": 152.53125,
          "velocity": 0.1968503937007874
        },
        {
          "duration": 0.18593749999999432,
          "durationTicks": 238,
          "midi": 65,
          "name": "F4",
          "ticks": 195360,
          "time": 152.625,
          "velocity": 0.3937007874015748
        },
        {
          "duration": 0.15390625000000568,
          "durationTicks": 197,
          "midi": 67,
          "name": "G4",
          "ticks": 195720,
          "time": 152.90625,
          "velocity": 0.5118110236220472
        },
        {
          "duration": 0.08984375,
          "durationTicks": 115,
          "midi": 62,
          "name": "D4",
          "ticks": 196200,
          "time": 153.28125,
          "velocity": 0.2047244094488189
        },
        {
          "duration": 0.20625000000001137,
          "durationTicks": 264,
          "midi": 65,
          "name": "F4",
          "ticks": 196320,
          "time": 153.375,
          "velocity": 0.4251968503937008
        },
        {
          "duration": 0.13906249999999432,
          "durationTicks": 178,
          "midi": 67,
          "name": "G4",
          "ticks": 196680,
          "time": 153.65625,
          "velocity": 0.5118110236220472
        },
        {
          "duration": 0.16874999999998863,
          "durationTicks": 216,
          "midi": 70,
          "name": "A#4",
          "ticks": 196920,
          "time": 153.84375,
          "velocity": 0.44881889763779526
        },
        {
          "duration": 0.08203125,
          "durationTicks": 105,
          "midi": 65,
          "name": "F4",
          "ticks": 197280,
          "time": 154.125,
          "velocity": 0.44881889763779526
        },
        {
          "duration": 0.32343750000001137,
          "durationTicks": 414,
          "midi": 70,
          "name": "A#4",
          "ticks": 197280,
          "time": 154.125,
          "velocity": 0.5118110236220472
        },
        {
          "duration": 0.2796874999999943,
          "durationTicks": 358,
          "midi": 67,
          "name": "G4",
          "ticks": 197400,
          "time": 154.21875,
          "velocity": 0.3937007874015748
        },
        {
          "duration": 0.22421875000000568,
          "durationTicks": 287,
          "midi": 65,
          "name": "F4",
          "ticks": 197760,
          "time": 154.5,
          "velocity": 0.44881889763779526
        },
        {
          "duration": 0.22968750000001137,
          "durationTicks": 294,
          "midi": 70,
          "name": "A#4",
          "ticks": 197760,
          "time": 154.5,
          "velocity": 0.4251968503937008
        },
        {
          "duration": 0.22890624999999432,
          "durationTicks": 293,
          "midi": 63,
          "name": "D#4",
          "ticks": 198120,
          "time": 154.78125,
          "velocity": 0.4251968503937008
        },
        {
          "duration": 0.2640624999999943,
          "durationTicks": 338,
          "midi": 62,
          "name": "D4",
          "ticks": 198360,
          "time": 154.96875,
          "velocity": 0.5118110236220472
        },
        {
          "duration": 0.2515625000000057,
          "durationTicks": 322,
          "midi": 60,
          "name": "C4",
          "ticks": 198720,
          "time": 155.25,
          "velocity": 0.4251968503937008
        },
        {
          "duration": 0.24609375,
          "durationTicks": 315,
          "midi": 59,
          "name": "B3",
          "ticks": 199080,
          "time": 155.53125,
          "velocity": 0.36220472440944884
        },
        {
          "duration": 0.23906249999998863,
          "durationTicks": 306,
          "midi": 62,
          "name": "D4",
          "ticks": 199440,
          "time": 155.8125,
          "velocity": 0.3937007874015748
        },
        {
          "duration": 0.1875,
          "durationTicks": 240,
          "midi": 67,
          "name": "G4",
          "ticks": 199680,
          "time": 156,
          "velocity": 0.44881889763779526
        },
        {
          "duration": 0.07265625000002274,
          "durationTicks": 93,
          "midi": 65,
          "name": "F4",
          "ticks": 200040,
          "time": 156.28125,
          "velocity": 0.4251968503937008
        },
        {
          "duration": 0.38437499999997726,
          "durationTicks": 492,
          "midi": 66,
          "name": "F#4",
          "ticks": 200160,
          "time": 156.375,
          "velocity": 0.36220472440944884
        },
        {
          "duration": 0.2984375000000057,
          "durationTicks": 382,
          "midi": 74,
          "name": "D5",
          "ticks": 200640,
          "time": 156.75,
          "velocity": 0.6377952755905512
        },
        {
          "duration": 0.02812499999998863,
          "durationTicks": 36,
          "midi": 66,
          "name": "F#4",
          "ticks": 201000,
          "time": 157.03125,
          "velocity": 0.2204724409448819
        },
        {
          "duration": 0.19296875000000568,
          "durationTicks": 247,
          "midi": 73,
          "name": "C#5",
          "ticks": 201120,
          "time": 157.125,
          "velocity": 0.5118110236220472
        },
        {
          "duration": 0.14531249999998863,
          "durationTicks": 186,
          "midi": 74,
          "name": "D5",
          "ticks": 201480,
          "time": 157.40625,
          "velocity": 0.6377952755905512
        },
        {
          "duration": 0.15859374999999432,
          "durationTicks": 203,
          "midi": 73,
          "name": "C#5",
          "ticks": 201720,
          "time": 157.59375,
          "velocity": 0.33858267716535434
        },
        {
          "duration": 0.14765625000001137,
          "durationTicks": 189,
          "midi": 74,
          "name": "D5",
          "ticks": 201960,
          "time": 157.78125,
          "velocity": 0.5748031496062992
        },
        {
          "duration": 0.16796875,
          "durationTicks": 215,
          "midi": 73,
          "name": "C#5",
          "ticks": 202200,
          "time": 157.96875,
          "velocity": 0.25196850393700787
        },
        {
          "duration": 0.15546875000001137,
          "durationTicks": 199,
          "midi": 71,
          "name": "B4",
          "ticks": 202440,
          "time": 158.15625,
          "velocity": 0.4251968503937008
        },
        {
          "duration": 0.14375000000001137,
          "durationTicks": 184,
          "midi": 66,
          "name": "F#4",
          "ticks": 202680,
          "time": 158.34375,
          "velocity": 0.14173228346456693
        },
        {
          "duration": 0.11875000000000568,
          "durationTicks": 152,
          "midi": 67,
          "name": "G4",
          "ticks": 202920,
          "time": 158.53125,
          "velocity": 0.3937007874015748
        },
        {
          "duration": 0.20078125000000568,
          "durationTicks": 257,
          "midi": 68,
          "name": "G#4",
          "ticks": 203160,
          "time": 158.71875,
          "velocity": 0.36220472440944884
        },
        {
          "duration": 0.41484374999998863,
          "durationTicks": 531,
          "midi": 76,
          "name": "E5",
          "ticks": 203400,
          "time": 158.90625,
          "velocity": 0.5118110236220472
        },
        {
          "duration": 0.10625000000001705,
          "durationTicks": 136,
          "midi": 76,
          "name": "E5",
          "ticks": 204000,
          "time": 159.375,
          "velocity": 0.5118110236220472
        },
        {
          "duration": 0.05390625000001137,
          "durationTicks": 69,
          "midi": 75,
          "name": "D#5",
          "ticks": 204120,
          "time": 159.46875,
          "velocity": 0.33858267716535434
        },
        {
          "duration": 0.07187500000000568,
          "durationTicks": 92,
          "midi": 74,
          "name": "D5",
          "ticks": 204240,
          "time": 159.5625,
          "velocity": 0.33858267716535434
        },
        {
          "duration": 0.07109375000001705,
          "durationTicks": 91,
          "midi": 73,
          "name": "C#5",
          "ticks": 204360,
          "time": 159.65625,
          "velocity": 0.33858267716535434
        },
        {
          "duration": 0.07968749999997726,
          "durationTicks": 102,
          "midi": 72,
          "name": "C5",
          "ticks": 204480,
          "time": 159.75,
          "velocity": 0.28346456692913385
        },
        {
          "duration": 0.03984374999998863,
          "durationTicks": 51,
          "midi": 71,
          "name": "B4",
          "ticks": 204600,
          "time": 159.84375,
          "velocity": 0.1889763779527559
        },
        {
          "duration": 0.11171874999999432,
          "durationTicks": 143,
          "midi": 74,
          "name": "D5",
          "ticks": 204720,
          "time": 159.9375,
          "velocity": 0.5118110236220472
        },
        {
          "duration": 0.02656250000001137,
          "durationTicks": 34,
          "midi": 71,
          "name": "B4",
          "ticks": 204840,
          "time": 160.03125,
          "velocity": 0.11023622047244094
        },
        {
          "duration": 0.10625000000001705,
          "durationTicks": 136,
          "midi": 72,
          "name": "C5",
          "ticks": 204960,
          "time": 160.125,
          "velocity": 0.5748031496062992
        },
        {
          "duration": 0.08906250000001137,
          "durationTicks": 114,
          "midi": 74,
          "name": "D5",
          "ticks": 206280,
          "time": 161.15625,
          "velocity": 0.7086614173228346
        },
        {
          "duration": 0.09218749999999432,
          "durationTicks": 118,
          "midi": 72,
          "name": "C5",
          "ticks": 206400,
          "time": 161.25,
          "velocity": 0.5118110236220472
        },
        {
          "duration": 0.0859375,
          "durationTicks": 110,
          "midi": 71,
          "name": "B4",
          "ticks": 206520,
          "time": 161.34375,
          "velocity": 0.44881889763779526
        },
        {
          "duration": 0.12734374999999432,
          "durationTicks": 163,
          "midi": 69,
          "name": "A4",
          "ticks": 206760,
          "time": 161.53125,
          "velocity": 0.4251968503937008
        },
        {
          "duration": 0.12187499999998863,
          "durationTicks": 156,
          "midi": 64,
          "name": "E4",
          "ticks": 206880,
          "time": 161.625,
          "velocity": 0.3937007874015748
        },
        {
          "duration": 0.140625,
          "durationTicks": 180,
          "midi": 62,
          "name": "D4",
          "ticks": 207120,
          "time": 161.8125,
          "velocity": 0.4251968503937008
        },
        {
          "duration": 0.12578124999998863,
          "durationTicks": 161,
          "midi": 60,
          "name": "C4",
          "ticks": 207240,
          "time": 161.90625,
          "velocity": 0.4251968503937008
        },
        {
          "duration": 0.5828124999999886,
          "durationTicks": 746,
          "midi": 62,
          "name": "D4",
          "ticks": 207360,
          "time": 162,
          "velocity": 0.5118110236220472
        },
        {
          "duration": 0.11875000000000568,
          "durationTicks": 152,
          "midi": 63,
          "name": "D#4",
          "ticks": 208200,
          "time": 162.65625,
          "velocity": 0.5118110236220472
        },
        {
          "duration": 0.08671874999998863,
          "durationTicks": 111,
          "midi": 62,
          "name": "D4",
          "ticks": 208440,
          "time": 162.84375,
          "velocity": 0.25196850393700787
        },
        {
          "duration": 0.09062499999998863,
          "durationTicks": 116,
          "midi": 58,
          "name": "A#3",
          "ticks": 208560,
          "time": 162.9375,
          "velocity": 0.36220472440944884
        },
        {
          "duration": 0.10859375000001137,
          "durationTicks": 139,
          "midi": 55,
          "name": "G3",
          "ticks": 208680,
          "time": 163.03125,
          "velocity": 0.28346456692913385
        },
        {
          "duration": 0.18359375,
          "durationTicks": 235,
          "midi": 53,
          "name": "F3",
          "ticks": 208920,
          "time": 163.21875,
          "velocity": 0.30708661417322836
        },
        {
          "duration": 0.13203125000001137,
          "durationTicks": 169,
          "midi": 55,
          "name": "G3",
          "ticks": 209160,
          "time": 163.40625,
          "velocity": 0.33858267716535434
        },
        {
          "duration": 0.203125,
          "durationTicks": 260,
          "midi": 58,
          "name": "A#3",
          "ticks": 209400,
          "time": 163.59375,
          "velocity": 0.33858267716535434
        },
        {
          "duration": 0.15703124999998863,
          "durationTicks": 201,
          "midi": 62,
          "name": "D4",
          "ticks": 209640,
          "time": 163.78125,
          "velocity": 0.5118110236220472
        },
        {
          "duration": 0.1875,
          "durationTicks": 240,
          "midi": 65,
          "name": "F4",
          "ticks": 209880,
          "time": 163.96875,
          "velocity": 0.4251968503937008
        },
        {
          "duration": 0.11953125000002274,
          "durationTicks": 153,
          "midi": 63,
          "name": "D#4",
          "ticks": 210120,
          "time": 164.15625,
          "velocity": 0.3937007874015748
        },
        {
          "duration": 0.16093749999998863,
          "durationTicks": 206,
          "midi": 64,
          "name": "E4",
          "ticks": 210360,
          "time": 164.34375,
          "velocity": 0.2204724409448819
        },
        {
          "duration": 0.16796875,
          "durationTicks": 215,
          "midi": 69,
          "name": "A4",
          "ticks": 210600,
          "time": 164.53125,
          "velocity": 0.5118110236220472
        },
        {
          "duration": 0.11484374999997726,
          "durationTicks": 147,
          "midi": 64,
          "name": "E4",
          "ticks": 211080,
          "time": 164.90625,
          "velocity": 0.30708661417322836
        },
        {
          "duration": 0.13671875,
          "durationTicks": 175,
          "midi": 69,
          "name": "A4",
          "ticks": 211200,
          "time": 165,
          "velocity": 0.4251968503937008
        },
        {
          "duration": 0.17734375000000568,
          "durationTicks": 227,
          "midi": 70,
          "name": "A#4",
          "ticks": 211440,
          "time": 165.1875,
          "velocity": 0.5118110236220472
        },
        {
          "duration": 0.8492187500000057,
          "durationTicks": 1087,
          "midi": 71,
          "name": "B4",
          "ticks": 211800,
          "time": 165.46875,
          "velocity": 0.3937007874015748
        },
        {
          "duration": 0.18984375000002274,
          "durationTicks": 243,
          "midi": 72,
          "name": "C5",
          "ticks": 213480,
          "time": 166.78125,
          "velocity": 0.5748031496062992
        },
        {
          "duration": 0.20937499999999432,
          "durationTicks": 268,
          "midi": 71,
          "name": "B4",
          "ticks": 213720,
          "time": 166.96875,
          "velocity": 0.3937007874015748
        },
        {
          "duration": 0.17890625000001137,
          "durationTicks": 229,
          "midi": 70,
          "name": "A#4",
          "ticks": 214080,
          "time": 167.25,
          "velocity": 0.5118110236220472
        },
        {
          "duration": 0.09609375000002274,
          "durationTicks": 123,
          "midi": 68,
          "name": "G#4",
          "ticks": 214440,
          "time": 167.53125,
          "velocity": 0.5118110236220472
        },
        {
          "duration": 0.07890624999998863,
          "durationTicks": 101,
          "midi": 67,
          "name": "G4",
          "ticks": 214560,
          "time": 167.625,
          "velocity": 0.33858267716535434
        },
        {
          "duration": 0.15234375,
          "durationTicks": 195,
          "midi": 65,
          "name": "F4",
          "ticks": 214680,
          "time": 167.71875,
          "velocity": 0.4251968503937008
        },
        {
          "duration": 0.11406249999998863,
          "durationTicks": 146,
          "midi": 64,
          "name": "E4",
          "ticks": 214920,
          "time": 167.90625,
          "velocity": 0.5118110236220472
        },
        {
          "duration": 0.15390625000000568,
          "durationTicks": 197,
          "midi": 62,
          "name": "D4",
          "ticks": 215160,
          "time": 168.09375,
          "velocity": 0.36220472440944884
        },
        {
          "duration": 0.12968750000001705,
          "durationTicks": 166,
          "midi": 61,
          "name": "C#4",
          "ticks": 215400,
          "time": 168.28125,
          "velocity": 0.5118110236220472
        },
        {
          "duration": 0.17890625000001137,
          "durationTicks": 229,
          "midi": 59,
          "name": "B3",
          "ticks": 215640,
          "time": 168.46875,
          "velocity": 0.28346456692913385
        },
        {
          "duration": 0.15937500000001137,
          "durationTicks": 204,
          "midi": 58,
          "name": "A#3",
          "ticks": 215880,
          "time": 168.65625,
          "velocity": 0.33858267716535434
        },
        {
          "duration": 0.26484375000001137,
          "durationTicks": 339,
          "midi": 57,
          "name": "A3",
          "ticks": 216120,
          "time": 168.84375,
          "velocity": 0.30708661417322836
        },
        {
          "duration": 0.20781249999998863,
          "durationTicks": 266,
          "midi": 57,
          "name": "A3",
          "ticks": 216480,
          "time": 169.125,
          "velocity": 0.33858267716535434
        },
        {
          "duration": 0.1171875,
          "durationTicks": 150,
          "midi": 58,
          "name": "A#3",
          "ticks": 216840,
          "time": 169.40625,
          "velocity": 0.5118110236220472
        },
        {
          "duration": 0.17890625000001137,
          "durationTicks": 229,
          "midi": 60,
          "name": "C4",
          "ticks": 217080,
          "time": 169.59375,
          "velocity": 0.36220472440944884
        },
        {
          "duration": 0.11484374999997726,
          "durationTicks": 147,
          "midi": 62,
          "name": "D4",
          "ticks": 217320,
          "time": 169.78125,
          "velocity": 0.5118110236220472
        },
        {
          "duration": 0.06796874999997726,
          "durationTicks": 87,
          "midi": 63,
          "name": "D#4",
          "ticks": 217560,
          "time": 169.96875,
          "velocity": 0.44881889763779526
        },
        {
          "duration": 0.18281250000001137,
          "durationTicks": 234,
          "midi": 64,
          "name": "E4",
          "ticks": 217680,
          "time": 170.0625,
          "velocity": 0.44881889763779526
        },
        {
          "duration": 0.18828125000001705,
          "durationTicks": 241,
          "midi": 67,
          "name": "G4",
          "ticks": 218040,
          "time": 170.34375,
          "velocity": 0.36220472440944884
        },
        {
          "duration": 0.11875000000000568,
          "durationTicks": 152,
          "midi": 72,
          "name": "C5",
          "ticks": 218400,
          "time": 170.625,
          "velocity": 0.4251968503937008
        },
        {
          "duration": 0.14375000000001137,
          "durationTicks": 184,
          "midi": 70,
          "name": "A#4",
          "ticks": 218760,
          "time": 170.90625,
          "velocity": 0.33858267716535434
        },
        {
          "duration": 0.5539062500000114,
          "durationTicks": 709,
          "midi": 69,
          "name": "A4",
          "ticks": 219000,
          "time": 171.09375,
          "velocity": 0.30708661417322836
        },
        {
          "duration": 0.46484375,
          "durationTicks": 595,
          "midi": 65,
          "name": "F4",
          "ticks": 219720,
          "time": 171.65625,
          "velocity": 0.3937007874015748
        },
        {
          "duration": 2.3703125000000114,
          "durationTicks": 3034,
          "midi": 60,
          "name": "C4",
          "ticks": 220320,
          "time": 172.125,
          "velocity": 0.1968503937007874
        },
        {
          "duration": 1.0992187499999773,
          "durationTicks": 1407,
          "midi": 72,
          "name": "C5",
          "ticks": 336960,
          "time": 263.25,
          "velocity": 0.4094488188976378
        },
        {
          "duration": 1.1257812499999886,
          "durationTicks": 1441,
          "midi": 65,
          "name": "F4",
          "ticks": 338400,
          "time": 264.375,
          "velocity": 0.4094488188976378
        },
        {
          "duration": 1.1070312499999773,
          "durationTicks": 1417,
          "midi": 70,
          "name": "A#4",
          "ticks": 339840,
          "time": 265.5,
          "velocity": 0.4409448818897638
        },
        {
          "duration": 1.114843750000034,
          "durationTicks": 1427,
          "midi": 64,
          "name": "E4",
          "ticks": 341280,
          "time": 266.625,
          "velocity": 0.4409448818897638
        },
        {
          "duration": 2.8804687499999773,
          "durationTicks": 3687,
          "midi": 69,
          "name": "A4",
          "ticks": 342720,
          "time": 267.75,
          "velocity": 0.3779527559055118
        },
        {
          "duration": 0.24296874999998863,
          "durationTicks": 311,
          "midi": 67,
          "name": "G4",
          "ticks": 346440,
          "time": 270.65625,
          "velocity": 0.3779527559055118
        },
        {
          "duration": 0.2625000000000455,
          "durationTicks": 336,
          "midi": 65,
          "name": "F4",
          "ticks": 346680,
          "time": 270.84375,
          "velocity": 0.5039370078740157
        },
        {
          "duration": 0.4000000000000341,
          "durationTicks": 512,
          "midi": 64,
          "name": "E4",
          "ticks": 347040,
          "time": 271.125,
          "velocity": 0.47244094488188976
        },
        {
          "duration": 0.47187500000001137,
          "durationTicks": 604,
          "midi": 65,
          "name": "F4",
          "ticks": 347520,
          "time": 271.5,
          "velocity": 0.47244094488188976
        },
        {
          "duration": 0.265625,
          "durationTicks": 340,
          "midi": 67,
          "name": "G4",
          "ticks": 348120,
          "time": 271.96875,
          "velocity": 0.47244094488188976
        },
        {
          "duration": 0.8273437499999545,
          "durationTicks": 1059,
          "midi": 69,
          "name": "A4",
          "ticks": 348480,
          "time": 272.25,
          "velocity": 0.4094488188976378
        },
        {
          "duration": 0.25546874999997726,
          "durationTicks": 327,
          "midi": 67,
          "name": "G4",
          "ticks": 349560,
          "time": 273.09375,
          "velocity": 0.47244094488188976
        },
        {
          "duration": 0.8953125000000455,
          "durationTicks": 1146,
          "midi": 65,
          "name": "F4",
          "ticks": 349920,
          "time": 273.375,
          "velocity": 0.4094488188976378
        },
        {
          "duration": 0.1015625,
          "durationTicks": 130,
          "midi": 67,
          "name": "G4",
          "ticks": 351000,
          "time": 274.21875,
          "velocity": 0.31496062992125984
        },
        {
          "duration": 0.14531250000004547,
          "durationTicks": 186,
          "midi": 69,
          "name": "A4",
          "ticks": 351120,
          "time": 274.3125,
          "velocity": 0.47244094488188976
        },
        {
          "duration": 0.609375,
          "durationTicks": 780,
          "midi": 70,
          "name": "A#4",
          "ticks": 351360,
          "time": 274.5,
          "velocity": 0.47244094488188976
        },
        {
          "duration": 0.48828125,
          "durationTicks": 625,
          "midi": 69,
          "name": "A4",
          "ticks": 352200,
          "time": 275.15625,
          "velocity": 0.47244094488188976
        },
        {
          "duration": 0.6179687499999886,
          "durationTicks": 791,
          "midi": 67,
          "name": "G4",
          "ticks": 352800,
          "time": 275.625,
          "velocity": 0.3779527559055118
        },
        {
          "duration": 0.22265625,
          "durationTicks": 285,
          "midi": 69,
          "name": "A4",
          "ticks": 353640,
          "time": 276.28125,
          "velocity": 0.4094488188976378
        },
        {
          "duration": 0.21875,
          "durationTicks": 280,
          "midi": 70,
          "name": "A#4",
          "ticks": 353880,
          "time": 276.46875,
          "velocity": 0.5039370078740157
        },
        {
          "duration": 0.5835937499999773,
          "durationTicks": 747,
          "midi": 72,
          "name": "C5",
          "ticks": 354240,
          "time": 276.75,
          "velocity": 0.4409448818897638
        },
        {
          "duration": 3.4171874999999545,
          "durationTicks": 4374,
          "midi": 72,
          "name": "C5",
          "ticks": 354960,
          "time": 277.3125,
          "velocity": 0.2440944881889764
        },
        {
          "duration": 0.06406249999997726,
          "durationTicks": 82,
          "midi": 69,
          "name": "A4",
          "ticks": 359640,
          "time": 280.96875,
          "velocity": 0.2204724409448819
        },
        {
          "duration": 0.11406249999998863,
          "durationTicks": 146,
          "midi": 70,
          "name": "A#4",
          "ticks": 359760,
          "time": 281.0625,
          "velocity": 0.5748031496062992
        },
        {
          "duration": 1.1257812499999886,
          "durationTicks": 1441,
          "midi": 72,
          "name": "C5",
          "ticks": 360000,
          "time": 281.25,
          "velocity": 0.47244094488188976
        },
        {
          "duration": 1.111718749999966,
          "durationTicks": 1423,
          "midi": 65,
          "name": "F4",
          "ticks": 361440,
          "time": 282.375,
          "velocity": 0.3779527559055118
        },
        {
          "duration": 1.1242187500000114,
          "durationTicks": 1439,
          "midi": 70,
          "name": "A#4",
          "ticks": 362880,
          "time": 283.5,
          "velocity": 0.47244094488188976
        },
        {
          "duration": 1.0687500000000227,
          "durationTicks": 1368,
          "midi": 64,
          "name": "E4",
          "ticks": 364320,
          "time": 284.625,
          "velocity": 0.31496062992125984
        },
        {
          "duration": 2.8804687499999773,
          "durationTicks": 3687,
          "midi": 69,
          "name": "A4",
          "ticks": 365760,
          "time": 285.75,
          "velocity": 0.3779527559055118
        },
        {
          "duration": 0.23671875000002274,
          "durationTicks": 303,
          "midi": 67,
          "name": "G4",
          "ticks": 369480,
          "time": 288.65625,
          "velocity": 0.4409448818897638
        },
        {
          "duration": 0.21015625000001137,
          "durationTicks": 269,
          "midi": 65,
          "name": "F4",
          "ticks": 369840,
          "time": 288.9375,
          "velocity": 0.5039370078740157
        },
        {
          "duration": 0.39218749999997726,
          "durationTicks": 502,
          "midi": 64,
          "name": "E4",
          "ticks": 370080,
          "time": 289.125,
          "velocity": 0.4094488188976378
        },
        {
          "duration": 0.39609374999997726,
          "durationTicks": 507,
          "midi": 65,
          "name": "F4",
          "ticks": 370560,
          "time": 289.5,
          "velocity": 0.3779527559055118
        },
        {
          "duration": 0.34062499999998863,
          "durationTicks": 436,
          "midi": 67,
          "name": "G4",
          "ticks": 371040,
          "time": 289.875,
          "velocity": 0.3779527559055118
        },
        {
          "duration": 0.6296874999999886,
          "durationTicks": 806,
          "midi": 69,
          "name": "A4",
          "ticks": 371520,
          "time": 290.25,
          "velocity": 0.4094488188976378
        },
        {
          "duration": 0.51953125,
          "durationTicks": 665,
          "midi": 67,
          "name": "G4",
          "ticks": 372360,
          "time": 290.90625,
          "velocity": 0.4409448818897638
        },
        {
          "duration": 0.9054687500000114,
          "durationTicks": 1159,
          "midi": 65,
          "name": "F4",
          "ticks": 372960,
          "time": 291.375,
          "velocity": 0.4094488188976378
        },
        {
          "duration": 0.11093749999997726,
          "durationTicks": 142,
          "midi": 67,
          "name": "G4",
          "ticks": 374160,
          "time": 292.3125,
          "velocity": 0.28346456692913385
        },
        {
          "duration": 0.13984375000001137,
          "durationTicks": 179,
          "midi": 69,
          "name": "A4",
          "ticks": 374280,
          "time": 292.40625,
          "velocity": 0.47244094488188976
        },
        {
          "duration": 0.8734375000000227,
          "durationTicks": 1118,
          "midi": 71,
          "name": "B4",
          "ticks": 374520,
          "time": 292.59375,
          "velocity": 0.5748031496062992
        },
        {
          "duration": 0.19140625,
          "durationTicks": 245,
          "midi": 69,
          "name": "A4",
          "ticks": 375600,
          "time": 293.4375,
          "velocity": 0.3779527559055118
        },
        {
          "duration": 0.61328125,
          "durationTicks": 785,
          "midi": 68,
          "name": "G#4",
          "ticks": 375840,
          "time": 293.625,
          "velocity": 0.47244094488188976
        },
        {
          "duration": 0.2421875,
          "durationTicks": 310,
          "midi": 69,
          "name": "A4",
          "ticks": 376680,
          "time": 294.28125,
          "velocity": 0.3779527559055118
        },
        {
          "duration": 0.23515624999998863,
          "durationTicks": 301,
          "midi": 71,
          "name": "B4",
          "ticks": 376920,
          "time": 294.46875,
          "velocity": 0.5748031496062992
        },
        {
          "duration": 2.9406250000000114,
          "durationTicks": 3764,
          "midi": 73,
          "name": "C#5",
          "ticks": 377280,
          "time": 294.75,
          "velocity": 0.4094488188976378
        },
        {
          "duration": 0.47421874999997726,
          "durationTicks": 607,
          "midi": 73,
          "name": "C#5",
          "ticks": 382440,
          "time": 298.78125,
          "velocity": 0.5748031496062992
        },
        {
          "duration": 1.958593750000034,
          "durationTicks": 2507,
          "midi": 74,
          "name": "D5",
          "ticks": 383040,
          "time": 299.25,
          "velocity": 0.5748031496062992
        },
        {
          "duration": 0.27890624999997726,
          "durationTicks": 357,
          "midi": 72,
          "name": "C5",
          "ticks": 385560,
          "time": 301.21875,
          "velocity": 0.5039370078740157
        },
        {
          "duration": 0.5843749999999659,
          "durationTicks": 748,
          "midi": 74,
          "name": "D5",
          "ticks": 385920,
          "time": 301.5,
          "velocity": 0.3779527559055118
        },
        {
          "duration": 1.3312499999999545,
          "durationTicks": 1704,
          "midi": 74,
          "name": "D5",
          "ticks": 386760,
          "time": 302.15625,
          "velocity": 0.3779527559055118
        },
        {
          "duration": 0.26093750000001137,
          "durationTicks": 334,
          "midi": 72,
          "name": "C5",
          "ticks": 388440,
          "time": 303.46875,
          "velocity": 0.47244094488188976
        },
        {
          "duration": 0.5789062500000455,
          "durationTicks": 741,
          "midi": 74,
          "name": "D5",
          "ticks": 388800,
          "time": 303.75,
          "velocity": 0.6456692913385826
        },
        {
          "duration": 0.22734375000004547,
          "durationTicks": 291,
          "midi": 72,
          "name": "C5",
          "ticks": 389520,
          "time": 304.3125,
          "velocity": 0.5039370078740157
        },
        {
          "duration": 0.30859375,
          "durationTicks": 395,
          "midi": 70,
          "name": "A#4",
          "ticks": 389880,
          "time": 304.59375,
          "velocity": 0.5748031496062992
        },
        {
          "duration": 0.7906249999999773,
          "durationTicks": 1012,
          "midi": 69,
          "name": "A4",
          "ticks": 390240,
          "time": 304.875,
          "velocity": 0.47244094488188976
        },
        {
          "duration": 0.2625000000000455,
          "durationTicks": 336,
          "midi": 67,
          "name": "G4",
          "ticks": 391320,
          "time": 305.71875,
          "velocity": 0.3464566929133858
        },
        {
          "duration": 0.6195312499999659,
          "durationTicks": 793,
          "midi": 69,
          "name": "A4",
          "ticks": 391680,
          "time": 306,
          "velocity": 0.3779527559055118
        },
        {
          "duration": 0.7484374999999659,
          "durationTicks": 958,
          "midi": 65,
          "name": "F4",
          "ticks": 392520,
          "time": 306.65625,
          "velocity": 0.25196850393700787
        },
        {
          "duration": 0.25468749999998863,
          "durationTicks": 326,
          "midi": 74,
          "name": "D5",
          "ticks": 393480,
          "time": 307.40625,
          "velocity": 0.5748031496062992
        },
        {
          "duration": 0.26718749999997726,
          "durationTicks": 342,
          "midi": 72,
          "name": "C5",
          "ticks": 393840,
          "time": 307.6875,
          "velocity": 0.4409448818897638
        },
        {
          "duration": 0.30703125000002274,
          "durationTicks": 393,
          "midi": 70,
          "name": "A#4",
          "ticks": 394200,
          "time": 307.96875,
          "velocity": 0.4094488188976378
        },
        {
          "duration": 1.1109374999999773,
          "durationTicks": 1422,
          "midi": 69,
          "name": "A4",
          "ticks": 394560,
          "time": 308.25,
          "velocity": 0.3779527559055118
        },
        {
          "duration": 0.8226562500000227,
          "durationTicks": 1053,
          "midi": 67,
          "name": "G4",
          "ticks": 396000,
          "time": 309.375,
          "velocity": 0.47244094488188976
        },
        {
          "duration": 0.1070312500000341,
          "durationTicks": 137,
          "midi": 69,
          "name": "A4",
          "ticks": 397080,
          "time": 310.21875,
          "velocity": 0.16535433070866143
        },
        {
          "duration": 0.14375000000001137,
          "durationTicks": 184,
          "midi": 67,
          "name": "G4",
          "ticks": 397320,
          "time": 310.40625,
          "velocity": 0.5039370078740157
        },
        {
          "duration": 0.3648437500000341,
          "durationTicks": 467,
          "midi": 65,
          "name": "F4",
          "ticks": 397440,
          "time": 310.5,
          "velocity": 0.5748031496062992
        },
        {
          "duration": 0.35468750000001137,
          "durationTicks": 454,
          "midi": 69,
          "name": "A4",
          "ticks": 397920,
          "time": 310.875,
          "velocity": 0.47244094488188976
        },
        {
          "duration": 0.35078125000001137,
          "durationTicks": 449,
          "midi": 72,
          "name": "C5",
          "ticks": 398400,
          "time": 311.25,
          "velocity": 0.5039370078740157
        },
        {
          "duration": 0.5914062499999773,
          "durationTicks": 757,
          "midi": 76,
          "name": "E5",
          "ticks": 398880,
          "time": 311.625,
          "velocity": 0.5039370078740157
        },
        {
          "duration": 0.22812499999997726,
          "durationTicks": 292,
          "midi": 77,
          "name": "F5",
          "ticks": 399600,
          "time": 312.1875,
          "velocity": 0.5039370078740157
        },
        {
          "duration": 0.24531250000001137,
          "durationTicks": 314,
          "midi": 76,
          "name": "E5",
          "ticks": 399960,
          "time": 312.46875,
          "velocity": 0.3464566929133858
        },
        {
          "duration": 2.0164062499999886,
          "durationTicks": 2581,
          "midi": 72,
          "name": "C5",
          "ticks": 400320,
          "time": 312.75,
          "velocity": 0.2047244094488189
        },
        {
          "duration": 0.9046875000000227,
          "durationTicks": 1158,
          "midi": 72,
          "name": "C5",
          "ticks": 406080,
          "time": 317.25,
          "velocity": 0.5748031496062992
        },
        {
          "duration": 0.07578124999997726,
          "durationTicks": 97,
          "midi": 69,
          "name": "A4",
          "ticks": 407280,
          "time": 318.1875,
          "velocity": 0.1968503937007874
        },
        {
          "duration": 0.12656249999997726,
          "durationTicks": 162,
          "midi": 67,
          "name": "G4",
          "ticks": 407400,
          "time": 318.28125,
          "velocity": 0.4409448818897638
        },
        {
          "duration": 0.8500000000000227,
          "durationTicks": 1088,
          "midi": 65,
          "name": "F4",
          "ticks": 407520,
          "time": 318.375,
          "velocity": 0.5748031496062992
        },
        {
          "duration": 0.10078124999995453,
          "durationTicks": 129,
          "midi": 67,
          "name": "G4",
          "ticks": 408600,
          "time": 319.21875,
          "velocity": 0.3464566929133858
        },
        {
          "duration": 0.1539062500000341,
          "durationTicks": 197,
          "midi": 69,
          "name": "A4",
          "ticks": 408840,
          "time": 319.40625,
          "velocity": 0.4094488188976378
        },
        {
          "duration": 0.77734375,
          "durationTicks": 995,
          "midi": 70,
          "name": "A#4",
          "ticks": 409080,
          "time": 319.59375,
          "velocity": 0.5748031496062992
        },
        {
          "duration": 0.11171875000002274,
          "durationTicks": 143,
          "midi": 67,
          "name": "G4",
          "ticks": 410040,
          "time": 320.34375,
          "velocity": 0.25196850393700787
        },
        {
          "duration": 0.13984375000001137,
          "durationTicks": 179,
          "midi": 65,
          "name": "F4",
          "ticks": 410160,
          "time": 320.4375,
          "velocity": 0.4409448818897638
        },
        {
          "duration": 0.8718750000000455,
          "durationTicks": 1116,
          "midi": 64,
          "name": "E4",
          "ticks": 410400,
          "time": 320.625,
          "velocity": 0.5039370078740157
        },
        {
          "duration": 0.12031250000001137,
          "durationTicks": 154,
          "midi": 65,
          "name": "F4",
          "ticks": 411480,
          "time": 321.46875,
          "velocity": 0.3779527559055118
        },
        {
          "duration": 0.11406249999998863,
          "durationTicks": 146,
          "midi": 67,
          "name": "G4",
          "ticks": 411720,
          "time": 321.65625,
          "velocity": 0.4409448818897638
        },
        {
          "duration": 0.5562499999999773,
          "durationTicks": 712,
          "midi": 69,
          "name": "A4",
          "ticks": 411840,
          "time": 321.75,
          "velocity": 0.47244094488188976
        },
        {
          "duration": 2.25390625,
          "durationTicks": 2885,
          "midi": 69,
          "name": "A4",
          "ticks": 412680,
          "time": 322.40625,
          "velocity": 0.4094488188976378
        },
        {
          "duration": 0.2445312499999659,
          "durationTicks": 313,
          "midi": 67,
          "name": "G4",
          "ticks": 415560,
          "time": 324.65625,
          "velocity": 0.5039370078740157
        },
        {
          "duration": 0.26640624999998863,
          "durationTicks": 341,
          "midi": 65,
          "name": "F4",
          "ticks": 415800,
          "time": 324.84375,
          "velocity": 0.4409448818897638
        },
        {
          "duration": 0.41328125000001137,
          "durationTicks": 529,
          "midi": 64,
          "name": "E4",
          "ticks": 416160,
          "time": 325.125,
          "velocity": 0.4409448818897638
        },
        {
          "duration": 0.3765625000000341,
          "durationTicks": 482,
          "midi": 65,
          "name": "F4",
          "ticks": 416640,
          "time": 325.5,
          "velocity": 0.4409448818897638
        },
        {
          "duration": 0.37890625,
          "durationTicks": 485,
          "midi": 67,
          "name": "G4",
          "ticks": 417120,
          "time": 325.875,
          "velocity": 0.4409448818897638
        },
        {
          "duration": 0.8125,
          "durationTicks": 1040,
          "midi": 69,
          "name": "A4",
          "ticks": 417600,
          "time": 326.25,
          "velocity": 0.4409448818897638
        },
        {
          "duration": 0.09375,
          "durationTicks": 120,
          "midi": 67,
          "name": "G4",
          "ticks": 418680,
          "time": 327.09375,
          "velocity": 0.12598425196850394
        },
        {
          "duration": 0.12968749999998863,
          "durationTicks": 166,
          "midi": 69,
          "name": "A4",
          "ticks": 418800,
          "time": 327.1875,
          "velocity": 0.4409448818897638
        },
        {
          "duration": 0.8703125000000114,
          "durationTicks": 1114,
          "midi": 65,
          "name": "F4",
          "ticks": 419040,
          "time": 327.375,
          "velocity": 0.5748031496062992
        },
        {
          "duration": 0.10468750000001137,
          "durationTicks": 134,
          "midi": 67,
          "name": "G4",
          "ticks": 420120,
          "time": 328.21875,
          "velocity": 0.3464566929133858
        },
        {
          "duration": 0.1484375,
          "durationTicks": 190,
          "midi": 69,
          "name": "A4",
          "ticks": 420240,
          "time": 328.3125,
          "velocity": 0.5039370078740157
        },
        {
          "duration": 0.56640625,
          "durationTicks": 725,
          "midi": 70,
          "name": "A#4",
          "ticks": 420480,
          "time": 328.5,
          "velocity": 0.5039370078740157
        },
        {
          "duration": 0.20390625000004547,
          "durationTicks": 261,
          "midi": 69,
          "name": "A4",
          "ticks": 421200,
          "time": 329.0625,
          "velocity": 0.47244094488188976
        },
        {
          "duration": 0.2976562500000455,
          "durationTicks": 381,
          "midi": 67,
          "name": "G4",
          "ticks": 421560,
          "time": 329.34375,
          "velocity": 0.4094488188976378
        },
        {
          "duration": 0.53515625,
          "durationTicks": 685,
          "midi": 69,
          "name": "A4",
          "ticks": 421920,
          "time": 329.625,
          "velocity": 0.5748031496062992
        },
        {
          "duration": 0.2625000000000455,
          "durationTicks": 336,
          "midi": 70,
          "name": "A#4",
          "ticks": 422640,
          "time": 330.1875,
          "velocity": 0.5748031496062992
        },
        {
          "duration": 0.25390625,
          "durationTicks": 325,
          "midi": 72,
          "name": "C5",
          "ticks": 423000,
          "time": 330.46875,
          "velocity": 0.47244094488188976
        },
        {
          "duration": 0.06328125000004547,
          "durationTicks": 81,
          "midi": 73,
          "name": "C#5",
          "ticks": 423360,
          "time": 330.75,
          "velocity": 0.3779527559055118
        },
        {
          "duration": 0.48593749999997726,
          "durationTicks": 622,
          "midi": 74,
          "name": "D5",
          "ticks": 423480,
          "time": 330.84375,
          "velocity": 0.5748031496062992
        },
        {
          "duration": 0.053906249999954525,
          "durationTicks": 69,
          "midi": 73,
          "name": "C#5",
          "ticks": 424200,
          "time": 331.40625,
          "velocity": 0.2125984251968504
        },
        {
          "duration": 1.6000000000000227,
          "durationTicks": 2048,
          "midi": 74,
          "name": "D5",
          "ticks": 424200,
          "time": 331.40625,
          "velocity": 0.5039370078740157
        },
        {
          "duration": 0.005468749999977263,
          "durationTicks": 7,
          "midi": 75,
          "name": "D#5",
          "ticks": 426960,
          "time": 333.5625,
          "velocity": 0.12598425196850394
        },
        {
          "duration": 0.29609375000001137,
          "durationTicks": 379,
          "midi": 76,
          "name": "E5",
          "ticks": 426960,
          "time": 333.5625,
          "velocity": 0.5039370078740157
        },
        {
          "duration": 0.22890625000002274,
          "durationTicks": 293,
          "midi": 74,
          "name": "D5",
          "ticks": 427440,
          "time": 333.9375,
          "velocity": 0.5748031496062992
        },
        {
          "duration": 0.76953125,
          "durationTicks": 985,
          "midi": 76,
          "name": "E5",
          "ticks": 427800,
          "time": 334.21875,
          "velocity": 0.5748031496062992
        },
        {
          "duration": 0.09687500000001137,
          "durationTicks": 124,
          "midi": 74,
          "name": "D5",
          "ticks": 428760,
          "time": 334.96875,
          "velocity": 0.3779527559055118
        },
        {
          "duration": 0.1742187499999659,
          "durationTicks": 223,
          "midi": 76,
          "name": "E5",
          "ticks": 428880,
          "time": 335.0625,
          "velocity": 0.5748031496062992
        },
        {
          "duration": 0.5492187499999659,
          "durationTicks": 703,
          "midi": 72,
          "name": "C5",
          "ticks": 429240,
          "time": 335.34375,
          "velocity": 0.47244094488188976
        },
        {
          "duration": 2.1499999999999773,
          "durationTicks": 2752,
          "midi": 72,
          "name": "C5",
          "ticks": 429960,
          "time": 335.90625,
          "velocity": 0.4094488188976378
        },
        {
          "duration": 0.23124999999998863,
          "durationTicks": 296,
          "midi": 72,
          "name": "C5",
          "ticks": 432840,
          "time": 338.15625,
          "velocity": 0.47244094488188976
        },
        {
          "duration": 0.27265625000001137,
          "durationTicks": 349,
          "midi": 70,
          "name": "A#4",
          "ticks": 433200,
          "time": 338.4375,
          "velocity": 0.4409448818897638
        },
        {
          "duration": 0.29609375000001137,
          "durationTicks": 379,
          "midi": 72,
          "name": "C5",
          "ticks": 433560,
          "time": 338.71875,
          "velocity": 0.4409448818897638
        },
        {
          "duration": 0.29531250000002274,
          "durationTicks": 378,
          "midi": 70,
          "name": "A#4",
          "ticks": 434040,
          "time": 339.09375,
          "velocity": 0.47244094488188976
        },
        {
          "duration": 0.28984374999998863,
          "durationTicks": 371,
          "midi": 72,
          "name": "C5",
          "ticks": 434520,
          "time": 339.46875,
          "velocity": 0.4409448818897638
        },
        {
          "duration": 0.07421875,
          "durationTicks": 95,
          "midi": 68,
          "name": "G#4",
          "ticks": 434880,
          "time": 339.75,
          "velocity": 0.3779527559055118
        },
        {
          "duration": 0.5437500000000455,
          "durationTicks": 696,
          "midi": 69,
          "name": "A4",
          "ticks": 435000,
          "time": 339.84375,
          "velocity": 0.5039370078740157
        },
        {
          "duration": 0.9968749999999886,
          "durationTicks": 1276,
          "midi": 69,
          "name": "A4",
          "ticks": 435720,
          "time": 340.40625,
          "velocity": 0.4409448818897638
        },
        {
          "duration": 0.26171875,
          "durationTicks": 335,
          "midi": 67,
          "name": "G4",
          "ticks": 437040,
          "time": 341.4375,
          "velocity": 0.5039370078740157
        },
        {
          "duration": 0.25,
          "durationTicks": 320,
          "midi": 65,
          "name": "F4",
          "ticks": 437400,
          "time": 341.71875,
          "velocity": 0.28346456692913385
        },
        {
          "duration": 0.5609374999999659,
          "durationTicks": 718,
          "midi": 67,
          "name": "G4",
          "ticks": 437880,
          "time": 342.09375,
          "velocity": 0.5039370078740157
        },
        {
          "duration": 0.22812499999997726,
          "durationTicks": 292,
          "midi": 65,
          "name": "F4",
          "ticks": 438600,
          "time": 342.65625,
          "velocity": 0.25196850393700787
        },
        {
          "duration": 0.21406250000001137,
          "durationTicks": 274,
          "midi": 67,
          "name": "G4",
          "ticks": 438960,
          "time": 342.9375,
          "velocity": 0.5748031496062992
        },
        {
          "duration": 0.3031249999999659,
          "durationTicks": 388,
          "midi": 65,
          "name": "F4",
          "ticks": 439320,
          "time": 343.21875,
          "velocity": 0.23622047244094488
        },
        {
          "duration": 0.5328124999999773,
          "durationTicks": 682,
          "midi": 67,
          "name": "G4",
          "ticks": 439800,
          "time": 343.59375,
          "velocity": 0.5039370078740157
        },
        {
          "duration": 0.11249999999995453,
          "durationTicks": 144,
          "midi": 65,
          "name": "F4",
          "ticks": 440520,
          "time": 344.15625,
          "velocity": 0.25196850393700787
        },
        {
          "duration": 0.92578125,
          "durationTicks": 1185,
          "midi": 74,
          "name": "D5",
          "ticks": 440640,
          "time": 344.25,
          "velocity": 0.5748031496062992
        },
        {
          "duration": 0.04296875,
          "durationTicks": 55,
          "midi": 67,
          "name": "G4",
          "ticks": 441840,
          "time": 345.1875,
          "velocity": 0.3464566929133858
        },
        {
          "duration": 0.06718749999998863,
          "durationTicks": 86,
          "midi": 65,
          "name": "F4",
          "ticks": 441960,
          "time": 345.28125,
          "velocity": 0.5748031496062992
        },
        {
          "duration": 0.96875,
          "durationTicks": 1240,
          "midi": 64,
          "name": "E4",
          "ticks": 442080,
          "time": 345.375,
          "velocity": 0.4409448818897638
        },
        {
          "duration": 0.11093749999997726,
          "durationTicks": 142,
          "midi": 60,
          "name": "C4",
          "ticks": 443400,
          "time": 346.40625,
          "velocity": 0.28346456692913385
        },
        {
          "duration": 0.057031249999965894,
          "durationTicks": 73,
          "midi": 65,
          "name": "F4",
          "ticks": 443640,
          "time": 346.59375,
          "velocity": 0.4409448818897638
        },
        {
          "duration": 0.07656250000002274,
          "durationTicks": 98,
          "midi": 67,
          "name": "G4",
          "ticks": 443640,
          "time": 346.59375,
          "velocity": 0.4409448818897638
        },
        {
          "duration": 1.6046875000000114,
          "durationTicks": 2054,
          "midi": 65,
          "name": "F4",
          "ticks": 443760,
          "time": 346.6875,
          "velocity": 0.31496062992125984
        }
      ]
    },
    {
      "channel": 0,
      "controlChanges": {
        "64": [
          {
            "number": 64,
            "ticks": 607,
            "time": 0.47421875,
            "value": 1
          },
          {
            "number": 64,
            "ticks": 1525,
            "time": 1.19140625,
            "value": 0
          },
          {
            "number": 64,
            "ticks": 1761,
            "time": 1.3757812500000002,
            "value": 1
          },
          {
            "number": 64,
            "ticks": 2847,
            "time": 2.2242187500000004,
            "value": 0
          },
          {
            "number": 64,
            "ticks": 3626,
            "time": 2.8328124999999997,
            "value": 1
          },
          {
            "number": 64,
            "ticks": 4511,
            "time": 3.52421875,
            "value": 0
          },
          {
            "number": 64,
            "ticks": 4917,
            "time": 3.8414062500000004,
            "value": 1
          },
          {
            "number": 64,
            "ticks": 5902,
            "time": 4.6109374999999995,
            "value": 0
          },
          {
            "number": 64,
            "ticks": 6172,
            "time": 4.8218749999999995,
            "value": 1
          },
          {
            "number": 64,
            "ticks": 7325,
            "time": 5.72265625,
            "value": 0
          },
          {
            "number": 64,
            "ticks": 7562,
            "time": 5.9078125,
            "value": 1
          },
          {
            "number": 64,
            "ticks": 8717,
            "time": 6.81015625,
            "value": 0
          },
          {
            "number": 64,
            "ticks": 9021,
            "time": 7.047656249999999,
            "value": 1
          },
          {
            "number": 64,
            "ticks": 10341,
            "time": 8.07890625,
            "value": 0
          },
          {
            "number": 64,
            "ticks": 10513,
            "time": 8.21328125,
            "value": 1
          },
          {
            "number": 64,
            "ticks": 11670,
            "time": 9.1171875,
            "value": 0
          },
          {
            "number": 64,
            "ticks": 11974,
            "time": 9.3546875,
            "value": 1
          },
          {
            "number": 64,
            "ticks": 13529,
            "time": 10.569531249999999,
            "value": 0
          },
          {
            "number": 64,
            "ticks": 13802,
            "time": 10.7828125,
            "value": 1
          },
          {
            "number": 64,
            "ticks": 14550,
            "time": 11.3671875,
            "value": 0
          },
          {
            "number": 64,
            "ticks": 14921,
            "time": 11.65703125,
            "value": 1
          },
          {
            "number": 64,
            "ticks": 15975,
            "time": 12.48046875,
            "value": 0
          },
          {
            "number": 64,
            "ticks": 16724,
            "time": 13.065625,
            "value": 1
          },
          {
            "number": 64,
            "ticks": 17405,
            "time": 13.59765625,
            "value": 0
          },
          {
            "number": 64,
            "ticks": 17675,
            "time": 13.80859375,
            "value": 1
          },
          {
            "number": 64,
            "ticks": 19167,
            "time": 14.974218749999999,
            "value": 0
          },
          {
            "number": 64,
            "ticks": 19370,
            "time": 15.1328125,
            "value": 1
          },
          {
            "number": 64,
            "ticks": 20559,
            "time": 16.061718749999997,
            "value": 0
          },
          {
            "number": 64,
            "ticks": 20727,
            "time": 16.19296875,
            "value": 1
          },
          {
            "number": 64,
            "ticks": 22085,
            "time": 17.25390625,
            "value": 0
          },
          {
            "number": 64,
            "ticks": 22288,
            "time": 17.412499999999998,
            "value": 1
          },
          {
            "number": 64,
            "ticks": 23206,
            "time": 18.1296875,
            "value": 0
          },
          {
            "number": 64,
            "ticks": 23477,
            "time": 18.341406250000002,
            "value": 1
          },
          {
            "number": 64,
            "ticks": 25306,
            "time": 19.7703125,
            "value": 0
          },
          {
            "number": 64,
            "ticks": 25443,
            "time": 19.87734375,
            "value": 1
          },
          {
            "number": 64,
            "ticks": 26155,
            "time": 20.43359375,
            "value": 0
          },
          {
            "number": 64,
            "ticks": 26765,
            "time": 20.91015625,
            "value": 1
          },
          {
            "number": 64,
            "ticks": 28086,
            "time": 21.942187500000003,
            "value": 0
          },
          {
            "number": 64,
            "ticks": 28257,
            "time": 22.07578125,
            "value": 1
          },
          {
            "number": 64,
            "ticks": 28936,
            "time": 22.60625,
            "value": 0
          },
          {
            "number": 64,
            "ticks": 29612,
            "time": 23.134375000000002,
            "value": 1
          },
          {
            "number": 64,
            "ticks": 31071,
            "time": 24.274218750000003,
            "value": 0
          },
          {
            "number": 64,
            "ticks": 31207,
            "time": 24.38046875,
            "value": 1
          },
          {
            "number": 64,
            "ticks": 31820,
            "time": 24.859375,
            "value": 0
          },
          {
            "number": 64,
            "ticks": 32158,
            "time": 25.1234375,
            "value": 1
          },
          {
            "number": 64,
            "ticks": 33142,
            "time": 25.8921875,
            "value": 0
          },
          {
            "number": 64,
            "ticks": 33244,
            "time": 25.971875000000004,
            "value": 1
          },
          {
            "number": 64,
            "ticks": 34672,
            "time": 27.0875,
            "value": 0
          },
          {
            "number": 64,
            "ticks": 35112,
            "time": 27.431250000000002,
            "value": 1
          },
          {
            "number": 64,
            "ticks": 36128,
            "time": 28.225,
            "value": 0
          },
          {
            "number": 64,
            "ticks": 36671,
            "time": 28.649218749999996,
            "value": 1
          },
          {
            "number": 64,
            "ticks": 37644,
            "time": 29.409374999999997,
            "value": 1
          },
          {
            "number": 64,
            "ticks": 38796,
            "time": 30.309375000000003,
            "value": 0
          },
          {
            "number": 64,
            "ticks": 39272,
            "time": 30.68125,
            "value": 1
          },
          {
            "number": 64,
            "ticks": 40423,
            "time": 31.58046875,
            "value": 0
          },
          {
            "number": 64,
            "ticks": 40997,
            "time": 32.02890625,
            "value": 1
          },
          {
            "number": 64,
            "ticks": 41884,
            "time": 32.721875000000004,
            "value": 0
          },
          {
            "number": 64,
            "ticks": 42120,
            "time": 32.90625,
            "value": 1
          },
          {
            "number": 64,
            "ticks": 43242,
            "time": 33.782812500000006,
            "value": 0
          },
          {
            "number": 64,
            "ticks": 43513,
            "time": 33.99453125,
            "value": 1
          },
          {
            "number": 64,
            "ticks": 44703,
            "time": 34.924218749999994,
            "value": 0
          },
          {
            "number": 64,
            "ticks": 44973,
            "time": 35.135156249999994,
            "value": 1
          },
          {
            "number": 64,
            "ticks": 45754,
            "time": 35.745312500000004,
            "value": 0
          },
          {
            "number": 64,
            "ticks": 52828,
            "time": 41.271875,
            "value": 1
          },
          {
            "number": 64,
            "ticks": 53374,
            "time": 41.698437500000004,
            "value": 0
          },
          {
            "number": 64,
            "ticks": 53611,
            "time": 41.88359375,
            "value": 1
          },
          {
            "number": 64,
            "ticks": 54660,
            "time": 42.703125,
            "value": 0
          },
          {
            "number": 64,
            "ticks": 54798,
            "time": 42.810937499999994,
            "value": 1
          },
          {
            "number": 64,
            "ticks": 55411,
            "time": 43.28984375,
            "value": 0
          },
          {
            "number": 64,
            "ticks": 55516,
            "time": 43.371875,
            "value": 1
          },
          {
            "number": 64,
            "ticks": 56093,
            "time": 43.82265625,
            "value": 0
          },
          {
            "number": 64,
            "ticks": 56265,
            "time": 43.95703125,
            "value": 1
          },
          {
            "number": 64,
            "ticks": 56882,
            "time": 44.4390625,
            "value": 0
          },
          {
            "number": 64,
            "ticks": 57014,
            "time": 44.5421875,
            "value": 1
          },
          {
            "number": 64,
            "ticks": 57593,
            "time": 44.99453125,
            "value": 0
          },
          {
            "number": 64,
            "ticks": 57898,
            "time": 45.2328125,
            "value": 1
          },
          {
            "number": 64,
            "ticks": 59115,
            "time": 46.18359375,
            "value": 0
          },
          {
            "number": 64,
            "ticks": 59655,
            "time": 46.60546875,
            "value": 1
          },
          {
            "number": 64,
            "ticks": 60576,
            "time": 47.325,
            "value": 0
          },
          {
            "number": 64,
            "ticks": 60846,
            "time": 47.5359375,
            "value": 1
          },
          {
            "number": 64,
            "ticks": 62001,
            "time": 48.438281249999996,
            "value": 0
          },
          {
            "number": 64,
            "ticks": 62237,
            "time": 48.62265625,
            "value": 1
          },
          {
            "number": 64,
            "ticks": 63929,
            "time": 49.94453125,
            "value": 0
          },
          {
            "number": 64,
            "ticks": 64134,
            "time": 50.104687500000004,
            "value": 1
          },
          {
            "number": 64,
            "ticks": 65558,
            "time": 51.21718750000001,
            "value": 0
          },
          {
            "number": 64,
            "ticks": 65729,
            "time": 51.35078125,
            "value": 1
          },
          {
            "number": 64,
            "ticks": 66375,
            "time": 51.85546875,
            "value": 0
          },
          {
            "number": 64,
            "ticks": 67053,
            "time": 52.385156249999994,
            "value": 1
          },
          {
            "number": 64,
            "ticks": 67799,
            "time": 52.96796875,
            "value": 0
          },
          {
            "number": 64,
            "ticks": 69298,
            "time": 54.1390625,
            "value": 1
          },
          {
            "number": 64,
            "ticks": 70911,
            "time": 55.399218749999996,
            "value": 1
          },
          {
            "number": 64,
            "ticks": 71692,
            "time": 56.00937499999999,
            "value": 0
          },
          {
            "number": 64,
            "ticks": 72575,
            "time": 56.69921875,
            "value": 1
          },
          {
            "number": 64,
            "ticks": 73527,
            "time": 57.442968750000006,
            "value": 0
          },
          {
            "number": 64,
            "ticks": 73866,
            "time": 57.707812499999996,
            "value": 1
          },
          {
            "number": 64,
            "ticks": 74850,
            "time": 58.4765625,
            "value": 0
          },
          {
            "number": 64,
            "ticks": 75494,
            "time": 58.9796875,
            "value": 1
          },
          {
            "number": 64,
            "ticks": 77017,
            "time": 60.16953124999999,
            "value": 0
          },
          {
            "number": 64,
            "ticks": 77256,
            "time": 60.356249999999996,
            "value": 1
          },
          {
            "number": 64,
            "ticks": 77869,
            "time": 60.83515625,
            "value": 0
          },
          {
            "number": 64,
            "ticks": 78274,
            "time": 61.1515625,
            "value": 1
          },
          {
            "number": 64,
            "ticks": 79327,
            "time": 61.97421874999999,
            "value": 0
          },
          {
            "number": 64,
            "ticks": 79598,
            "time": 62.18593750000001,
            "value": 1
          },
          {
            "number": 64,
            "ticks": 80445,
            "time": 62.84765625,
            "value": 0
          },
          {
            "number": 64,
            "ticks": 81567,
            "time": 63.724218750000006,
            "value": 1
          },
          {
            "number": 64,
            "ticks": 82147,
            "time": 64.17734374999999,
            "value": 0
          },
          {
            "number": 64,
            "ticks": 82518,
            "time": 64.4671875,
            "value": 1
          },
          {
            "number": 64,
            "ticks": 84209,
            "time": 65.78828125,
            "value": 0
          },
          {
            "number": 64,
            "ticks": 84415,
            "time": 65.94921875,
            "value": 1
          },
          {
            "number": 64,
            "ticks": 85028,
            "time": 66.42812500000001,
            "value": 0
          },
          {
            "number": 64,
            "ticks": 85299,
            "time": 66.63984375000001,
            "value": 1
          },
          {
            "number": 64,
            "ticks": 87125,
            "time": 68.06640625,
            "value": 0
          },
          {
            "number": 64,
            "ticks": 87231,
            "time": 68.14921874999999,
            "value": 1
          },
          {
            "number": 64,
            "ticks": 88682,
            "time": 69.2828125,
            "value": 0
          },
          {
            "number": 64,
            "ticks": 88805,
            "time": 69.37890625,
            "value": 1
          },
          {
            "number": 64,
            "ticks": 89458,
            "time": 69.8890625,
            "value": 0
          },
          {
            "number": 64,
            "ticks": 89795,
            "time": 70.15234375,
            "value": 1
          },
          {
            "number": 64,
            "ticks": 91386,
            "time": 71.39531249999999,
            "value": 0
          },
          {
            "number": 64,
            "ticks": 91558,
            "time": 71.5296875,
            "value": 1
          },
          {
            "number": 64,
            "ticks": 92170,
            "time": 72.0078125,
            "value": 0
          },
          {
            "number": 64,
            "ticks": 92342,
            "time": 72.1421875,
            "value": 1
          },
          {
            "number": 64,
            "ticks": 93021,
            "time": 72.67265624999999,
            "value": 0
          },
          {
            "number": 64,
            "ticks": 93190,
            "time": 72.8046875,
            "value": 1
          },
          {
            "number": 64,
            "ticks": 93631,
            "time": 73.14921875,
            "value": 0
          },
          {
            "number": 64,
            "ticks": 93803,
            "time": 73.28359375000001,
            "value": 1
          },
          {
            "number": 64,
            "ticks": 94415,
            "time": 73.76171875,
            "value": 0
          },
          {
            "number": 64,
            "ticks": 94518,
            "time": 73.8421875,
            "value": 1
          },
          {
            "number": 64,
            "ticks": 95100,
            "time": 74.296875,
            "value": 0
          },
          {
            "number": 64,
            "ticks": 95539,
            "time": 74.63984375,
            "value": 1
          },
          {
            "number": 64,
            "ticks": 96723,
            "time": 75.56484375,
            "value": 0
          },
          {
            "number": 64,
            "ticks": 97367,
            "time": 76.06796875,
            "value": 1
          },
          {
            "number": 64,
            "ticks": 97980,
            "time": 76.546875,
            "value": 0
          },
          {
            "number": 64,
            "ticks": 98285,
            "time": 76.78515625,
            "value": 1
          },
          {
            "number": 64,
            "ticks": 99334,
            "time": 77.6046875,
            "value": 0
          },
          {
            "number": 64,
            "ticks": 100180,
            "time": 78.265625,
            "value": 1
          },
          {
            "number": 64,
            "ticks": 100827,
            "time": 78.77109375,
            "value": 0
          },
          {
            "number": 64,
            "ticks": 104157,
            "time": 81.37265625,
            "value": 1
          },
          {
            "number": 64,
            "ticks": 105073,
            "time": 82.08828125,
            "value": 0
          },
          {
            "number": 64,
            "ticks": 105929,
            "time": 82.75703125,
            "value": 1
          },
          {
            "number": 64,
            "ticks": 106602,
            "time": 83.2828125,
            "value": 0
          },
          {
            "number": 64,
            "ticks": 106940,
            "time": 83.546875,
            "value": 1
          },
          {
            "number": 64,
            "ticks": 108733,
            "time": 84.94765625,
            "value": 0
          },
          {
            "number": 64,
            "ticks": 108905,
            "time": 85.08203125,
            "value": 1
          },
          {
            "number": 64,
            "ticks": 109788,
            "time": 85.771875,
            "value": 0
          },
          {
            "number": 64,
            "ticks": 110092,
            "time": 86.00937499999999,
            "value": 1
          },
          {
            "number": 64,
            "ticks": 110741,
            "time": 86.51640625,
            "value": 0
          },
          {
            "number": 64,
            "ticks": 111043,
            "time": 86.75234375,
            "value": 1
          },
          {
            "number": 64,
            "ticks": 111621,
            "time": 87.20390624999999,
            "value": 0
          },
          {
            "number": 64,
            "ticks": 111826,
            "time": 87.3640625,
            "value": 1
          },
          {
            "number": 64,
            "ticks": 112974,
            "time": 88.26093750000001,
            "value": 1
          },
          {
            "number": 64,
            "ticks": 113855,
            "time": 88.94921875,
            "value": 0
          },
          {
            "number": 64,
            "ticks": 117404,
            "time": 91.721875,
            "value": 1
          },
          {
            "number": 64,
            "ticks": 118185,
            "time": 92.33203125,
            "value": 0
          },
          {
            "number": 64,
            "ticks": 118794,
            "time": 92.80781250000001,
            "value": 1
          },
          {
            "number": 64,
            "ticks": 120013,
            "time": 93.76015625,
            "value": 0
          },
          {
            "number": 64,
            "ticks": 121467,
            "time": 94.89609375,
            "value": 1
          },
          {
            "number": 64,
            "ticks": 122652,
            "time": 95.821875,
            "value": 0
          },
          {
            "number": 64,
            "ticks": 124309,
            "time": 97.11640625,
            "value": 1
          },
          {
            "number": 64,
            "ticks": 125359,
            "time": 97.93671875,
            "value": 0
          },
          {
            "number": 64,
            "ticks": 126069,
            "time": 98.49140625000001,
            "value": 1
          },
          {
            "number": 64,
            "ticks": 126885,
            "time": 99.12890625,
            "value": 0
          },
          {
            "number": 64,
            "ticks": 127292,
            "time": 99.446875,
            "value": 1
          },
          {
            "number": 64,
            "ticks": 129593,
            "time": 101.24453125,
            "value": 0
          },
          {
            "number": 64,
            "ticks": 129967,
            "time": 101.53671875,
            "value": 1
          },
          {
            "number": 64,
            "ticks": 131156,
            "time": 102.465625,
            "value": 0
          },
          {
            "number": 64,
            "ticks": 131460,
            "time": 102.703125,
            "value": 1
          },
          {
            "number": 64,
            "ticks": 132550,
            "time": 103.5546875,
            "value": 0
          },
          {
            "number": 64,
            "ticks": 132751,
            "time": 103.71171875000002,
            "value": 1
          },
          {
            "number": 64,
            "ticks": 133295,
            "time": 104.13671875,
            "value": 0
          },
          {
            "number": 64,
            "ticks": 133467,
            "time": 104.27109374999999,
            "value": 1
          },
          {
            "number": 64,
            "ticks": 133979,
            "time": 104.67109374999998,
            "value": 0
          },
          {
            "number": 64,
            "ticks": 134181,
            "time": 104.82890624999999,
            "value": 1
          },
          {
            "number": 64,
            "ticks": 134725,
            "time": 105.25390625,
            "value": 0
          },
          {
            "number": 64,
            "ticks": 134895,
            "time": 105.38671875,
            "value": 1
          },
          {
            "number": 64,
            "ticks": 135405,
            "time": 105.78515625,
            "value": 0
          },
          {
            "number": 64,
            "ticks": 135946,
            "time": 106.20781250000002,
            "value": 1
          },
          {
            "number": 64,
            "ticks": 136993,
            "time": 107.02578125,
            "value": 0
          },
          {
            "number": 64,
            "ticks": 138861,
            "time": 108.48515624999999,
            "value": 1
          },
          {
            "number": 64,
            "ticks": 139742,
            "time": 109.1734375,
            "value": 0
          },
          {
            "number": 64,
            "ticks": 140729,
            "time": 109.94453124999998,
            "value": 1
          },
          {
            "number": 64,
            "ticks": 140967,
            "time": 110.13046874999999,
            "value": 0
          },
          {
            "number": 64,
            "ticks": 141714,
            "time": 110.71406250000001,
            "value": 1
          },
          {
            "number": 64,
            "ticks": 142323,
            "time": 111.18984375000001,
            "value": 0
          },
          {
            "number": 64,
            "ticks": 143406,
            "time": 112.03593749999999,
            "value": 1
          },
          {
            "number": 64,
            "ticks": 144053,
            "time": 112.54140625,
            "value": 0
          },
          {
            "number": 64,
            "ticks": 144559,
            "time": 112.93671875,
            "value": 1
          },
          {
            "number": 64,
            "ticks": 145511,
            "time": 113.68046875,
            "value": 0
          },
          {
            "number": 64,
            "ticks": 145882,
            "time": 113.9703125,
            "value": 1
          },
          {
            "number": 64,
            "ticks": 147037,
            "time": 114.87265625,
            "value": 0
          },
          {
            "number": 64,
            "ticks": 147476,
            "time": 115.215625,
            "value": 1
          },
          {
            "number": 64,
            "ticks": 148361,
            "time": 115.90703125,
            "value": 0
          },
          {
            "number": 64,
            "ticks": 148800,
            "time": 116.25,
            "value": 1
          },
          {
            "number": 64,
            "ticks": 149411,
            "time": 116.72734375,
            "value": 0
          },
          {
            "number": 64,
            "ticks": 150596,
            "time": 117.653125,
            "value": 1
          },
          {
            "number": 64,
            "ticks": 151243,
            "time": 118.15859375,
            "value": 0
          },
          {
            "number": 64,
            "ticks": 151513,
            "time": 118.36953125,
            "value": 1
          },
          {
            "number": 64,
            "ticks": 152358,
            "time": 119.02968750000001,
            "value": 0
          },
          {
            "number": 64,
            "ticks": 153549,
            "time": 119.96015625000001,
            "value": 1
          },
          {
            "number": 64,
            "ticks": 154127,
            "time": 120.41171875,
            "value": 0
          },
          {
            "number": 64,
            "ticks": 154467,
            "time": 120.67734374999999,
            "value": 1
          },
          {
            "number": 64,
            "ticks": 154874,
            "time": 120.99531249999998,
            "value": 0
          },
          {
            "number": 64,
            "ticks": 155012,
            "time": 121.103125,
            "value": 1
          },
          {
            "number": 64,
            "ticks": 155591,
            "time": 121.55546875,
            "value": 0
          },
          {
            "number": 64,
            "ticks": 155761,
            "time": 121.68828125000002,
            "value": 1
          },
          {
            "number": 64,
            "ticks": 157360,
            "time": 122.9375,
            "value": 0
          },
          {
            "number": 64,
            "ticks": 160463,
            "time": 125.36171875,
            "value": 1
          },
          {
            "number": 64,
            "ticks": 161344,
            "time": 126.05,
            "value": 0
          },
          {
            "number": 64,
            "ticks": 162626,
            "time": 127.0515625,
            "value": 1
          },
          {
            "number": 64,
            "ticks": 163521,
            "time": 127.75078124999999,
            "value": 0
          },
          {
            "number": 64,
            "ticks": 163690,
            "time": 127.8828125,
            "value": 1
          },
          {
            "number": 64,
            "ticks": 164166,
            "time": 128.2546875,
            "value": 0
          },
          {
            "number": 64,
            "ticks": 164676,
            "time": 128.653125,
            "value": 1
          },
          {
            "number": 64,
            "ticks": 165695,
            "time": 129.44921875,
            "value": 0
          },
          {
            "number": 64,
            "ticks": 166034,
            "time": 129.71406249999998,
            "value": 1
          },
          {
            "number": 64,
            "ticks": 166444,
            "time": 130.034375,
            "value": 0
          },
          {
            "number": 64,
            "ticks": 166546,
            "time": 130.11406250000002,
            "value": 1
          },
          {
            "number": 64,
            "ticks": 167126,
            "time": 130.5671875,
            "value": 0
          },
          {
            "number": 64,
            "ticks": 167464,
            "time": 130.83125,
            "value": 1
          },
          {
            "number": 64,
            "ticks": 168379,
            "time": 131.54609375,
            "value": 0
          },
          {
            "number": 64,
            "ticks": 170251,
            "time": 133.00859375000002,
            "value": 1
          },
          {
            "number": 64,
            "ticks": 171537,
            "time": 134.01328124999998,
            "value": 0
          },
          {
            "number": 64,
            "ticks": 172214,
            "time": 134.54218749999998,
            "value": 1
          },
          {
            "number": 64,
            "ticks": 172792,
            "time": 134.99375,
            "value": 0
          },
          {
            "number": 64,
            "ticks": 172963,
            "time": 135.12734375,
            "value": 1
          },
          {
            "number": 64,
            "ticks": 173677,
            "time": 135.68515625,
            "value": 0
          },
          {
            "number": 64,
            "ticks": 174223,
            "time": 136.11171875,
            "value": 1
          },
          {
            "number": 64,
            "ticks": 174493,
            "time": 136.32265625,
            "value": 0
          },
          {
            "number": 64,
            "ticks": 179376,
            "time": 140.1375,
            "value": 1
          },
          {
            "number": 64,
            "ticks": 180730,
            "time": 141.1953125,
            "value": 0
          },
          {
            "number": 64,
            "ticks": 180902,
            "time": 141.3296875,
            "value": 1
          },
          {
            "number": 64,
            "ticks": 181483,
            "time": 141.78359375,
            "value": 0
          },
          {
            "number": 64,
            "ticks": 181753,
            "time": 141.99453125,
            "value": 1
          },
          {
            "number": 64,
            "ticks": 182941,
            "time": 142.92265625000002,
            "value": 0
          },
          {
            "number": 64,
            "ticks": 183245,
            "time": 143.16015625,
            "value": 1
          },
          {
            "number": 64,
            "ticks": 184806,
            "time": 144.3796875,
            "value": 0
          },
          {
            "number": 64,
            "ticks": 185043,
            "time": 144.56484375000002,
            "value": 1
          },
          {
            "number": 64,
            "ticks": 186463,
            "time": 145.67421875,
            "value": 0
          },
          {
            "number": 64,
            "ticks": 186637,
            "time": 145.81015625,
            "value": 1
          },
          {
            "number": 64,
            "ticks": 187317,
            "time": 146.34140624999998,
            "value": 0
          },
          {
            "number": 64,
            "ticks": 187588,
            "time": 146.553125,
            "value": 1
          },
          {
            "number": 64,
            "ticks": 188674,
            "time": 147.4015625,
            "value": 0
          },
          {
            "number": 64,
            "ticks": 188775,
            "time": 147.48046875,
            "value": 1
          },
          {
            "number": 64,
            "ticks": 188913,
            "time": 147.58828125000002,
            "value": 0
          },
          {
            "number": 64,
            "ticks": 190546,
            "time": 148.86406250000002,
            "value": 1
          },
          {
            "number": 64,
            "ticks": 191797,
            "time": 149.84140625,
            "value": 0
          },
          {
            "number": 64,
            "ticks": 191968,
            "time": 149.975,
            "value": 1
          },
          {
            "number": 64,
            "ticks": 192988,
            "time": 150.771875,
            "value": 0
          },
          {
            "number": 64,
            "ticks": 195300,
            "time": 152.578125,
            "value": 1
          },
          {
            "number": 64,
            "ticks": 196484,
            "time": 153.50312499999998,
            "value": 0
          },
          {
            "number": 64,
            "ticks": 196723,
            "time": 153.68984375,
            "value": 1
          },
          {
            "number": 64,
            "ticks": 197372,
            "time": 154.196875,
            "value": 0
          },
          {
            "number": 64,
            "ticks": 197778,
            "time": 154.51406250000002,
            "value": 1
          },
          {
            "number": 64,
            "ticks": 198831,
            "time": 155.33671875,
            "value": 0
          },
          {
            "number": 64,
            "ticks": 199203,
            "time": 155.62734375000002,
            "value": 1
          },
          {
            "number": 64,
            "ticks": 200526,
            "time": 156.6609375,
            "value": 0
          },
          {
            "number": 64,
            "ticks": 200729,
            "time": 156.81953124999998,
            "value": 1
          },
          {
            "number": 64,
            "ticks": 201647,
            "time": 157.53671875,
            "value": 0
          },
          {
            "number": 64,
            "ticks": 202087,
            "time": 157.88046875,
            "value": 1
          },
          {
            "number": 64,
            "ticks": 203677,
            "time": 159.12265625,
            "value": 0
          },
          {
            "number": 64,
            "ticks": 203850,
            "time": 159.2578125,
            "value": 1
          },
          {
            "number": 64,
            "ticks": 204463,
            "time": 159.73671875,
            "value": 0
          },
          {
            "number": 64,
            "ticks": 204634,
            "time": 159.8703125,
            "value": 1
          },
          {
            "number": 64,
            "ticks": 205887,
            "time": 160.84921874999998,
            "value": 0
          },
          {
            "number": 64,
            "ticks": 206092,
            "time": 161.009375,
            "value": 1
          },
          {
            "number": 64,
            "ticks": 206667,
            "time": 161.45859374999998,
            "value": 0
          },
          {
            "number": 64,
            "ticks": 206805,
            "time": 161.56640625,
            "value": 1
          },
          {
            "number": 64,
            "ticks": 207385,
            "time": 162.01953125,
            "value": 0
          },
          {
            "number": 64,
            "ticks": 207521,
            "time": 162.12578125,
            "value": 1
          },
          {
            "number": 64,
            "ticks": 208740,
            "time": 163.078125,
            "value": 0
          },
          {
            "number": 64,
            "ticks": 209454,
            "time": 163.6359375,
            "value": 1
          },
          {
            "number": 64,
            "ticks": 210201,
            "time": 164.21953125,
            "value": 0
          },
          {
            "number": 64,
            "ticks": 212542,
            "time": 166.0484375,
            "value": 1
          },
          {
            "number": 64,
            "ticks": 213119,
            "time": 166.49921874999998,
            "value": 0
          },
          {
            "number": 64,
            "ticks": 213561,
            "time": 166.84453125,
            "value": 1
          },
          {
            "number": 64,
            "ticks": 214544,
            "time": 167.61249999999998,
            "value": 0
          },
          {
            "number": 64,
            "ticks": 215606,
            "time": 168.4421875,
            "value": 1
          },
          {
            "number": 64,
            "ticks": 216086,
            "time": 168.8171875,
            "value": 0
          },
          {
            "number": 64,
            "ticks": 216560,
            "time": 169.1875,
            "value": 1
          },
          {
            "number": 64,
            "ticks": 217546,
            "time": 169.95781250000002,
            "value": 0
          },
          {
            "number": 64,
            "ticks": 220662,
            "time": 172.39218749999998,
            "value": 1
          },
          {
            "number": 64,
            "ticks": 221781,
            "time": 173.26640625,
            "value": 0
          },
          {
            "number": 64,
            "ticks": 222019,
            "time": 173.45234375,
            "value": 1
          },
          {
            "number": 64,
            "ticks": 222527,
            "time": 173.84921875,
            "value": 0
          },
          {
            "number": 64,
            "ticks": 222631,
            "time": 173.93046875000002,
            "value": 1
          },
          {
            "number": 64,
            "ticks": 223309,
            "time": 174.46015625,
            "value": 0
          },
          {
            "number": 64,
            "ticks": 231244,
            "time": 180.659375,
            "value": 1
          },
          {
            "number": 64,
            "ticks": 231889,
            "time": 181.16328125,
            "value": 0
          },
          {
            "number": 64,
            "ticks": 232294,
            "time": 181.4796875,
            "value": 1
          },
          {
            "number": 64,
            "ticks": 233210,
            "time": 182.1953125,
            "value": 0
          },
          {
            "number": 64,
            "ticks": 233516,
            "time": 182.434375,
            "value": 1
          },
          {
            "number": 64,
            "ticks": 234061,
            "time": 182.86015625000002,
            "value": 0
          },
          {
            "number": 64,
            "ticks": 234233,
            "time": 182.99453125,
            "value": 1
          },
          {
            "number": 64,
            "ticks": 234710,
            "time": 183.3671875,
            "value": 0
          },
          {
            "number": 64,
            "ticks": 238368,
            "time": 186.22500000000002,
            "value": 1
          },
          {
            "number": 64,
            "ticks": 238809,
            "time": 186.56953125,
            "value": 0
          },
          {
            "number": 64,
            "ticks": 254261,
            "time": 198.64140625,
            "value": 1
          },
          {
            "number": 64,
            "ticks": 254737,
            "time": 199.01328125,
            "value": 0
          },
          {
            "number": 64,
            "ticks": 255717,
            "time": 199.77890624999998,
            "value": 1
          },
          {
            "number": 64,
            "ticks": 256363,
            "time": 200.28359374999997,
            "value": 0
          },
          {
            "number": 64,
            "ticks": 257211,
            "time": 200.94609375000002,
            "value": 1
          },
          {
            "number": 64,
            "ticks": 257719,
            "time": 201.34296875,
            "value": 0
          },
          {
            "number": 64,
            "ticks": 259489,
            "time": 202.72578125,
            "value": 1
          },
          {
            "number": 64,
            "ticks": 260033,
            "time": 203.15078125,
            "value": 0
          },
          {
            "number": 64,
            "ticks": 260171,
            "time": 203.25859375,
            "value": 1
          },
          {
            "number": 64,
            "ticks": 260579,
            "time": 203.57734375,
            "value": 0
          },
          {
            "number": 64,
            "ticks": 260750,
            "time": 203.7109375,
            "value": 1
          },
          {
            "number": 64,
            "ticks": 261393,
            "time": 204.21328125000002,
            "value": 0
          },
          {
            "number": 64,
            "ticks": 261566,
            "time": 204.3484375,
            "value": 1
          },
          {
            "number": 64,
            "ticks": 262043,
            "time": 204.72109375,
            "value": 0
          },
          {
            "number": 64,
            "ticks": 263116,
            "time": 205.559375,
            "value": 1
          },
          {
            "number": 64,
            "ticks": 263489,
            "time": 205.85078125,
            "value": 0
          },
          {
            "number": 64,
            "ticks": 263830,
            "time": 206.1171875,
            "value": 1
          },
          {
            "number": 64,
            "ticks": 264812,
            "time": 206.88437500000003,
            "value": 0
          },
          {
            "number": 64,
            "ticks": 265119,
            "time": 207.12421874999998,
            "value": 1
          },
          {
            "number": 64,
            "ticks": 265459,
            "time": 207.38984375,
            "value": 0
          },
          {
            "number": 64,
            "ticks": 274763,
            "time": 214.65859375,
            "value": 1
          },
          {
            "number": 64,
            "ticks": 274901,
            "time": 214.76640625,
            "value": 0
          },
          {
            "number": 64,
            "ticks": 302133,
            "time": 236.04140625000002,
            "value": 1
          },
          {
            "number": 64,
            "ticks": 302406,
            "time": 236.25468750000002,
            "value": 0
          },
          {
            "number": 64,
            "ticks": 302880,
            "time": 236.625,
            "value": 1
          },
          {
            "number": 64,
            "ticks": 303489,
            "time": 237.10078124999998,
            "value": 0
          },
          {
            "number": 64,
            "ticks": 303998,
            "time": 237.4984375,
            "value": 1
          },
          {
            "number": 64,
            "ticks": 304204,
            "time": 237.659375,
            "value": 0
          },
          {
            "number": 64,
            "ticks": 304476,
            "time": 237.87187500000002,
            "value": 1
          },
          {
            "number": 64,
            "ticks": 305021,
            "time": 238.29765625,
            "value": 0
          },
          {
            "number": 64,
            "ticks": 305294,
            "time": 238.5109375,
            "value": 1
          },
          {
            "number": 64,
            "ticks": 305905,
            "time": 238.98828125,
            "value": 0
          },
          {
            "number": 64,
            "ticks": 306279,
            "time": 239.28046874999998,
            "value": 1
          },
          {
            "number": 64,
            "ticks": 306450,
            "time": 239.4140625,
            "value": 0
          },
          {
            "number": 64,
            "ticks": 306790,
            "time": 239.6796875,
            "value": 1
          },
          {
            "number": 64,
            "ticks": 307368,
            "time": 240.13125000000002,
            "value": 0
          },
          {
            "number": 64,
            "ticks": 307675,
            "time": 240.37109375,
            "value": 1
          },
          {
            "number": 64,
            "ticks": 307981,
            "time": 240.61015625,
            "value": 0
          },
          {
            "number": 64,
            "ticks": 312682,
            "time": 244.2828125,
            "value": 1
          },
          {
            "number": 64,
            "ticks": 313261,
            "time": 244.73515625,
            "value": 0
          },
          {
            "number": 64,
            "ticks": 313399,
            "time": 244.84296875,
            "value": 1
          },
          {
            "number": 64,
            "ticks": 314049,
            "time": 245.35078124999998,
            "value": 0
          },
          {
            "number": 64,
            "ticks": 314254,
            "time": 245.5109375,
            "value": 1
          },
          {
            "number": 64,
            "ticks": 314799,
            "time": 245.93671874999998,
            "value": 0
          },
          {
            "number": 64,
            "ticks": 315307,
            "time": 246.33359375,
            "value": 1
          },
          {
            "number": 64,
            "ticks": 315957,
            "time": 246.84140624999998,
            "value": 0
          },
          {
            "number": 64,
            "ticks": 330790,
            "time": 258.4296875,
            "value": 1
          },
          {
            "number": 64,
            "ticks": 331198,
            "time": 258.74843749999997,
            "value": 0
          },
          {
            "number": 64,
            "ticks": 331876,
            "time": 259.278125,
            "value": 1
          },
          {
            "number": 64,
            "ticks": 332926,
            "time": 260.0984375,
            "value": 0
          },
          {
            "number": 64,
            "ticks": 333266,
            "time": 260.3640625,
            "value": 1
          },
          {
            "number": 64,
            "ticks": 334556,
            "time": 261.371875,
            "value": 0
          },
          {
            "number": 64,
            "ticks": 334996,
            "time": 261.715625,
            "value": 1
          },
          {
            "number": 64,
            "ticks": 335233,
            "time": 261.90078124999997,
            "value": 0
          },
          {
            "number": 64,
            "ticks": 335743,
            "time": 262.29921874999997,
            "value": 1
          },
          {
            "number": 64,
            "ticks": 336931,
            "time": 263.22734375,
            "value": 0
          },
          {
            "number": 64,
            "ticks": 336983,
            "time": 263.26796875,
            "value": 0
          },
          {
            "number": 64,
            "ticks": 337356,
            "time": 263.55937500000005,
            "value": 1
          },
          {
            "number": 64,
            "ticks": 338711,
            "time": 264.61796875,
            "value": 0
          },
          {
            "number": 64,
            "ticks": 338949,
            "time": 264.80390624999995,
            "value": 1
          },
          {
            "number": 64,
            "ticks": 340237,
            "time": 265.81015625,
            "value": 0
          },
          {
            "number": 64,
            "ticks": 340509,
            "time": 266.02265624999995,
            "value": 1
          },
          {
            "number": 64,
            "ticks": 341697,
            "time": 266.95078125,
            "value": 0
          },
          {
            "number": 64,
            "ticks": 341866,
            "time": 267.0828125,
            "value": 1
          },
          {
            "number": 64,
            "ticks": 342679,
            "time": 267.71796875,
            "value": 0
          },
          {
            "number": 64,
            "ticks": 343389,
            "time": 268.27265624999995,
            "value": 1
          },
          {
            "number": 64,
            "ticks": 344307,
            "time": 268.98984375,
            "value": 0
          },
          {
            "number": 64,
            "ticks": 344678,
            "time": 269.2796875,
            "value": 1
          },
          {
            "number": 64,
            "ticks": 345761,
            "time": 270.12578125,
            "value": 0
          },
          {
            "number": 64,
            "ticks": 347418,
            "time": 271.4203125,
            "value": 1
          },
          {
            "number": 64,
            "ticks": 348974,
            "time": 272.6359375,
            "value": 0
          },
          {
            "number": 64,
            "ticks": 349146,
            "time": 272.77031250000005,
            "value": 1
          },
          {
            "number": 64,
            "ticks": 350062,
            "time": 273.4859375,
            "value": 0
          },
          {
            "number": 64,
            "ticks": 350299,
            "time": 273.67109375,
            "value": 1
          },
          {
            "number": 64,
            "ticks": 351452,
            "time": 274.57187500000003,
            "value": 0
          },
          {
            "number": 64,
            "ticks": 351723,
            "time": 274.78359375,
            "value": 1
          },
          {
            "number": 64,
            "ticks": 352740,
            "time": 275.578125,
            "value": 0
          },
          {
            "number": 64,
            "ticks": 352877,
            "time": 275.68515625000003,
            "value": 1
          },
          {
            "number": 64,
            "ticks": 354167,
            "time": 276.69296875000003,
            "value": 0
          },
          {
            "number": 64,
            "ticks": 355114,
            "time": 277.4328125,
            "value": 1
          },
          {
            "number": 64,
            "ticks": 356398,
            "time": 278.43593749999997,
            "value": 0
          },
          {
            "number": 64,
            "ticks": 356570,
            "time": 278.5703125,
            "value": 1
          },
          {
            "number": 64,
            "ticks": 357148,
            "time": 279.02187499999997,
            "value": 0
          },
          {
            "number": 64,
            "ticks": 357252,
            "time": 279.103125,
            "value": 1
          },
          {
            "number": 64,
            "ticks": 358002,
            "time": 279.6890625,
            "value": 0
          },
          {
            "number": 64,
            "ticks": 358138,
            "time": 279.79531249999997,
            "value": 1
          },
          {
            "number": 64,
            "ticks": 358684,
            "time": 280.221875,
            "value": 0
          },
          {
            "number": 64,
            "ticks": 358787,
            "time": 280.30234375000003,
            "value": 1
          },
          {
            "number": 64,
            "ticks": 359435,
            "time": 280.80859375,
            "value": 0
          },
          {
            "number": 64,
            "ticks": 359570,
            "time": 280.9140625,
            "value": 1
          },
          {
            "number": 64,
            "ticks": 360251,
            "time": 281.44609375,
            "value": 0
          },
          {
            "number": 64,
            "ticks": 360521,
            "time": 281.65703125,
            "value": 1
          },
          {
            "number": 64,
            "ticks": 361942,
            "time": 282.7671875,
            "value": 0
          },
          {
            "number": 64,
            "ticks": 362248,
            "time": 283.00624999999997,
            "value": 1
          },
          {
            "number": 64,
            "ticks": 363064,
            "time": 283.64375,
            "value": 0
          },
          {
            "number": 64,
            "ticks": 363267,
            "time": 283.80234375,
            "value": 1
          },
          {
            "number": 64,
            "ticks": 364689,
            "time": 284.91328124999995,
            "value": 0
          },
          {
            "number": 64,
            "ticks": 364859,
            "time": 285.04609375,
            "value": 1
          },
          {
            "number": 64,
            "ticks": 365878,
            "time": 285.84218749999997,
            "value": 0
          },
          {
            "number": 64,
            "ticks": 366217,
            "time": 286.10703125,
            "value": 1
          },
          {
            "number": 64,
            "ticks": 367302,
            "time": 286.9546875,
            "value": 0
          },
          {
            "number": 64,
            "ticks": 367605,
            "time": 287.19140625,
            "value": 1
          },
          {
            "number": 64,
            "ticks": 368792,
            "time": 288.11875000000003,
            "value": 0
          },
          {
            "number": 64,
            "ticks": 369063,
            "time": 288.33046875,
            "value": 1
          },
          {
            "number": 64,
            "ticks": 370081,
            "time": 289.12578125,
            "value": 0
          },
          {
            "number": 64,
            "ticks": 370218,
            "time": 289.2328125,
            "value": 1
          },
          {
            "number": 64,
            "ticks": 371645,
            "time": 290.34765625,
            "value": 0
          },
          {
            "number": 64,
            "ticks": 371950,
            "time": 290.5859375,
            "value": 1
          },
          {
            "number": 64,
            "ticks": 372999,
            "time": 291.40546874999995,
            "value": 0
          },
          {
            "number": 64,
            "ticks": 373742,
            "time": 291.98593750000003,
            "value": 1
          },
          {
            "number": 64,
            "ticks": 374460,
            "time": 292.546875,
            "value": 0
          },
          {
            "number": 64,
            "ticks": 374764,
            "time": 292.784375,
            "value": 1
          },
          {
            "number": 64,
            "ticks": 375917,
            "time": 293.68515625000003,
            "value": 0
          },
          {
            "number": 64,
            "ticks": 376121,
            "time": 293.84453125,
            "value": 1
          },
          {
            "number": 64,
            "ticks": 377374,
            "time": 294.8234375,
            "value": 0
          },
          {
            "number": 64,
            "ticks": 377645,
            "time": 295.03515625,
            "value": 1
          },
          {
            "number": 64,
            "ticks": 378797,
            "time": 295.93515625000003,
            "value": 0
          },
          {
            "number": 64,
            "ticks": 381066,
            "time": 297.70781250000005,
            "value": 1
          },
          {
            "number": 64,
            "ticks": 382152,
            "time": 298.55625,
            "value": 0
          },
          {
            "number": 64,
            "ticks": 382287,
            "time": 298.66171875,
            "value": 1
          },
          {
            "number": 64,
            "ticks": 383071,
            "time": 299.27421875,
            "value": 0
          },
          {
            "number": 64,
            "ticks": 384196,
            "time": 300.153125,
            "value": 1
          },
          {
            "number": 64,
            "ticks": 385354,
            "time": 301.0578125,
            "value": 0
          },
          {
            "number": 64,
            "ticks": 385455,
            "time": 301.13671875,
            "value": 1
          },
          {
            "number": 64,
            "ticks": 386034,
            "time": 301.58906249999995,
            "value": 0
          },
          {
            "number": 64,
            "ticks": 386303,
            "time": 301.79921875,
            "value": 1
          },
          {
            "number": 64,
            "ticks": 386982,
            "time": 302.3296875,
            "value": 0
          },
          {
            "number": 64,
            "ticks": 387221,
            "time": 302.51640625,
            "value": 1
          },
          {
            "number": 64,
            "ticks": 388136,
            "time": 303.23125,
            "value": 0
          },
          {
            "number": 64,
            "ticks": 388307,
            "time": 303.36484375000003,
            "value": 1
          },
          {
            "number": 64,
            "ticks": 388854,
            "time": 303.79218749999995,
            "value": 0
          },
          {
            "number": 64,
            "ticks": 389157,
            "time": 304.02890625,
            "value": 1
          },
          {
            "number": 64,
            "ticks": 390005,
            "time": 304.69140625,
            "value": 0
          },
          {
            "number": 64,
            "ticks": 390717,
            "time": 305.24765625,
            "value": 1
          },
          {
            "number": 64,
            "ticks": 391738,
            "time": 306.04531249999997,
            "value": 0
          },
          {
            "number": 64,
            "ticks": 392109,
            "time": 306.33515624999995,
            "value": 1
          },
          {
            "number": 64,
            "ticks": 393126,
            "time": 307.12968750000005,
            "value": 0
          },
          {
            "number": 64,
            "ticks": 393298,
            "time": 307.26406249999997,
            "value": 1
          },
          {
            "number": 64,
            "ticks": 393908,
            "time": 307.740625,
            "value": 0
          },
          {
            "number": 64,
            "ticks": 394011,
            "time": 307.82109375000005,
            "value": 1
          },
          {
            "number": 64,
            "ticks": 394624,
            "time": 308.3,
            "value": 0
          },
          {
            "number": 64,
            "ticks": 395064,
            "time": 308.64374999999995,
            "value": 1
          },
          {
            "number": 64,
            "ticks": 395843,
            "time": 309.25234375,
            "value": 0
          },
          {
            "number": 64,
            "ticks": 396864,
            "time": 310.04999999999995,
            "value": 1
          },
          {
            "number": 64,
            "ticks": 397511,
            "time": 310.55546875,
            "value": 0
          },
          {
            "number": 64,
            "ticks": 397816,
            "time": 310.79375,
            "value": 1
          },
          {
            "number": 64,
            "ticks": 399203,
            "time": 311.87734375,
            "value": 0
          },
          {
            "number": 64,
            "ticks": 399443,
            "time": 312.06484375,
            "value": 1
          },
          {
            "number": 64,
            "ticks": 400325,
            "time": 312.75390625,
            "value": 0
          },
          {
            "number": 64,
            "ticks": 400564,
            "time": 312.940625,
            "value": 1
          },
          {
            "number": 64,
            "ticks": 402122,
            "time": 314.15781250000003,
            "value": 0
          },
          {
            "number": 64,
            "ticks": 402327,
            "time": 314.31796875,
            "value": 1
          },
          {
            "number": 64,
            "ticks": 403917,
            "time": 315.56015625,
            "value": 0
          },
          {
            "number": 64,
            "ticks": 404090,
            "time": 315.6953125,
            "value": 1
          },
          {
            "number": 64,
            "ticks": 404769,
            "time": 316.22578124999995,
            "value": 0
          },
          {
            "number": 64,
            "ticks": 405245,
            "time": 316.59765625,
            "value": 1
          },
          {
            "number": 64,
            "ticks": 406300,
            "time": 317.421875,
            "value": 0
          },
          {
            "number": 64,
            "ticks": 406604,
            "time": 317.659375,
            "value": 1
          },
          {
            "number": 64,
            "ticks": 407755,
            "time": 318.55859375,
            "value": 0
          },
          {
            "number": 64,
            "ticks": 408298,
            "time": 318.98281249999997,
            "value": 1
          },
          {
            "number": 64,
            "ticks": 409010,
            "time": 319.5390625,
            "value": 0
          },
          {
            "number": 64,
            "ticks": 409281,
            "time": 319.75078125000005,
            "value": 1
          },
          {
            "number": 64,
            "ticks": 410399,
            "time": 320.62421875,
            "value": 0
          },
          {
            "number": 64,
            "ticks": 410604,
            "time": 320.78437499999995,
            "value": 1
          },
          {
            "number": 64,
            "ticks": 411893,
            "time": 321.79140625,
            "value": 0
          },
          {
            "number": 64,
            "ticks": 412164,
            "time": 322.00312499999995,
            "value": 1
          },
          {
            "number": 64,
            "ticks": 413385,
            "time": 322.95703125,
            "value": 0
          },
          {
            "number": 64,
            "ticks": 413553,
            "time": 323.08828125,
            "value": 1
          },
          {
            "number": 64,
            "ticks": 414842,
            "time": 324.09531250000003,
            "value": 0
          },
          {
            "number": 64,
            "ticks": 415113,
            "time": 324.30703125,
            "value": 1
          },
          {
            "number": 64,
            "ticks": 416162,
            "time": 325.12656250000003,
            "value": 0
          },
          {
            "number": 64,
            "ticks": 416367,
            "time": 325.28671875,
            "value": 1
          },
          {
            "number": 64,
            "ticks": 417451,
            "time": 326.13359375,
            "value": 0
          },
          {
            "number": 64,
            "ticks": 418296,
            "time": 326.79375000000005,
            "value": 1
          },
          {
            "number": 64,
            "ticks": 419148,
            "time": 327.459375,
            "value": 0
          },
          {
            "number": 64,
            "ticks": 419418,
            "time": 327.6703125,
            "value": 1
          },
          {
            "number": 64,
            "ticks": 420501,
            "time": 328.51640625000005,
            "value": 0
          },
          {
            "number": 64,
            "ticks": 421177,
            "time": 329.04453125,
            "value": 1
          },
          {
            "number": 64,
            "ticks": 421962,
            "time": 329.6578125,
            "value": 0
          },
          {
            "number": 64,
            "ticks": 422267,
            "time": 329.89609375000003,
            "value": 1
          },
          {
            "number": 64,
            "ticks": 423079,
            "time": 330.53046875,
            "value": 0
          },
          {
            "number": 64,
            "ticks": 423519,
            "time": 330.87421874999995,
            "value": 1
          },
          {
            "number": 64,
            "ticks": 423898,
            "time": 331.17031249999997,
            "value": 0
          },
          {
            "number": 64,
            "ticks": 424168,
            "time": 331.38124999999997,
            "value": 1
          },
          {
            "number": 64,
            "ticks": 425560,
            "time": 332.46875,
            "value": 0
          },
          {
            "number": 64,
            "ticks": 425664,
            "time": 332.54999999999995,
            "value": 1
          },
          {
            "number": 64,
            "ticks": 426379,
            "time": 333.10859375,
            "value": 0
          },
          {
            "number": 64,
            "ticks": 426649,
            "time": 333.31953125,
            "value": 1
          },
          {
            "number": 64,
            "ticks": 428309,
            "time": 334.61640625,
            "value": 0
          },
          {
            "number": 64,
            "ticks": 428444,
            "time": 334.721875,
            "value": 1
          },
          {
            "number": 64,
            "ticks": 429161,
            "time": 335.28203125,
            "value": 0
          },
          {
            "number": 64,
            "ticks": 429431,
            "time": 335.49296875,
            "value": 1
          },
          {
            "number": 64,
            "ticks": 429976,
            "time": 335.91875,
            "value": 0
          },
          {
            "number": 64,
            "ticks": 430078,
            "time": 335.99843749999997,
            "value": 1
          },
          {
            "number": 64,
            "ticks": 430553,
            "time": 336.36953125,
            "value": 0
          },
          {
            "number": 64,
            "ticks": 431401,
            "time": 337.03203125,
            "value": 1
          },
          {
            "number": 64,
            "ticks": 432048,
            "time": 337.5375,
            "value": 0
          },
          {
            "number": 64,
            "ticks": 432522,
            "time": 337.9078125,
            "value": 1
          },
          {
            "number": 64,
            "ticks": 433673,
            "time": 338.80703125,
            "value": 0
          },
          {
            "number": 64,
            "ticks": 434247,
            "time": 339.25546875,
            "value": 1
          },
          {
            "number": 64,
            "ticks": 434930,
            "time": 339.7890625,
            "value": 0
          },
          {
            "number": 64,
            "ticks": 435268,
            "time": 340.05312499999997,
            "value": 1
          },
          {
            "number": 64,
            "ticks": 435709,
            "time": 340.39765625,
            "value": 0
          },
          {
            "number": 64,
            "ticks": 436560,
            "time": 341.0625,
            "value": 1
          },
          {
            "number": 64,
            "ticks": 437171,
            "time": 341.53984375,
            "value": 0
          },
          {
            "number": 64,
            "ticks": 437986,
            "time": 342.1765625,
            "value": 1
          },
          {
            "number": 64,
            "ticks": 439069,
            "time": 343.02265625,
            "value": 0
          },
          {
            "number": 64,
            "ticks": 439880,
            "time": 343.65625,
            "value": 1
          },
          {
            "number": 64,
            "ticks": 440667,
            "time": 344.27109375,
            "value": 0
          },
          {
            "number": 64,
            "ticks": 440937,
            "time": 344.48203125,
            "value": 1
          },
          {
            "number": 64,
            "ticks": 442124,
            "time": 345.409375,
            "value": 0
          },
          {
            "number": 64,
            "ticks": 442429,
            "time": 345.64765625,
            "value": 1
          },
          {
            "number": 64,
            "ticks": 443276,
            "time": 346.309375,
            "value": 0
          }
        ]
      },
      "pitchBends": [],
      "instrument": {
        "family": "piano",
        "number": 0,
        "name": "acoustic grand piano"
      },
      "name": "Benny  (pno)",
      "notes": [
        {
          "duration": 0.6117187500000001,
          "durationTicks": 783,
          "midi": 53,
          "name": "F3",
          "ticks": 0,
          "time": 0,
          "velocity": 0.28346456692913385
        },
        {
          "duration": 0.57890625,
          "durationTicks": 741,
          "midi": 57,
          "name": "A3",
          "ticks": 0,
          "time": 0,
          "velocity": 0.3937007874015748
        },
        {
          "duration": 0.6070312499999999,
          "durationTicks": 777,
          "midi": 60,
          "name": "C4",
          "ticks": 0,
          "time": 0,
          "velocity": 0.28346456692913385
        },
        {
          "duration": 0.59921875,
          "durationTicks": 767,
          "midi": 64,
          "name": "E4",
          "ticks": 0,
          "time": 0,
          "velocity": 0.25196850393700787
        },
        {
          "duration": 0.66328125,
          "durationTicks": 849,
          "midi": 72,
          "name": "C5",
          "ticks": 0,
          "time": 0,
          "velocity": 0.3543307086614173
        },
        {
          "duration": 0.6296875,
          "durationTicks": 806,
          "midi": 76,
          "name": "E5",
          "ticks": 0,
          "time": 0,
          "velocity": 0.36220472440944884
        },
        {
          "duration": 0.6539062499999999,
          "durationTicks": 837,
          "midi": 81,
          "name": "A5",
          "ticks": 0,
          "time": 0,
          "velocity": 0.4094488188976378
        },
        {
          "duration": 0.61484375,
          "durationTicks": 787,
          "midi": 84,
          "name": "C6",
          "ticks": 0,
          "time": 0,
          "velocity": 0.36220472440944884
        },
        {
          "duration": 0.5460937499999998,
          "durationTicks": 699,
          "midi": 50,
          "name": "D3",
          "ticks": 1440,
          "time": 1.125,
          "velocity": 0.18110236220472442
        },
        {
          "duration": 0.5421875000000003,
          "durationTicks": 694,
          "midi": 57,
          "name": "A3",
          "ticks": 1440,
          "time": 1.125,
          "velocity": 0.1968503937007874
        },
        {
          "duration": 0.5679687499999999,
          "durationTicks": 727,
          "midi": 60,
          "name": "C4",
          "ticks": 1440,
          "time": 1.125,
          "velocity": 0.14960629921259844
        },
        {
          "duration": 0.40937500000000004,
          "durationTicks": 524,
          "midi": 69,
          "name": "A4",
          "ticks": 1440,
          "time": 1.125,
          "velocity": 0.2283464566929134
        },
        {
          "duration": 0.4203125000000001,
          "durationTicks": 538,
          "midi": 72,
          "name": "C5",
          "ticks": 1440,
          "time": 1.125,
          "velocity": 0.31496062992125984
        },
        {
          "duration": 0.46640625000000013,
          "durationTicks": 597,
          "midi": 77,
          "name": "F5",
          "ticks": 1440,
          "time": 1.125,
          "velocity": 0.3228346456692913
        },
        {
          "duration": 0.12968750000000018,
          "durationTicks": 166,
          "midi": 79,
          "name": "G5",
          "ticks": 2640,
          "time": 2.0625,
          "velocity": 0.07086614173228346
        },
        {
          "duration": 0.17578125,
          "durationTicks": 225,
          "midi": 80,
          "name": "G#5",
          "ticks": 2760,
          "time": 2.15625,
          "velocity": 0.14173228346456693
        },
        {
          "duration": 0.12109375,
          "durationTicks": 155,
          "midi": 81,
          "name": "A5",
          "ticks": 2760,
          "time": 2.15625,
          "velocity": 0.3228346456692913
        },
        {
          "duration": 0.8328125000000002,
          "durationTicks": 1066,
          "midi": 82,
          "name": "A#5",
          "ticks": 2880,
          "time": 2.25,
          "velocity": 0.48031496062992124
        },
        {
          "duration": 0.4835937499999998,
          "durationTicks": 619,
          "midi": 53,
          "name": "F3",
          "ticks": 3360,
          "time": 2.625,
          "velocity": 0.18110236220472442
        },
        {
          "duration": 0.5078125,
          "durationTicks": 650,
          "midi": 58,
          "name": "A#3",
          "ticks": 3360,
          "time": 2.625,
          "velocity": 0.25984251968503935
        },
        {
          "duration": 0.5,
          "durationTicks": 640,
          "midi": 62,
          "name": "D4",
          "ticks": 3360,
          "time": 2.625,
          "velocity": 0.33070866141732286
        },
        {
          "duration": 0.5398437500000002,
          "durationTicks": 691,
          "midi": 70,
          "name": "A#4",
          "ticks": 3360,
          "time": 2.625,
          "velocity": 0.29133858267716534
        },
        {
          "duration": 0.14374999999999982,
          "durationTicks": 184,
          "midi": 74,
          "name": "D5",
          "ticks": 3840,
          "time": 3,
          "velocity": 0.4330708661417323
        },
        {
          "duration": 0.6304687500000004,
          "durationTicks": 807,
          "midi": 56,
          "name": "G#3",
          "ticks": 4320,
          "time": 3.375,
          "velocity": 0.06299212598425197
        },
        {
          "duration": 0.625,
          "durationTicks": 800,
          "midi": 62,
          "name": "D4",
          "ticks": 4320,
          "time": 3.375,
          "velocity": 0.15748031496062992
        },
        {
          "duration": 0.6468749999999996,
          "durationTicks": 828,
          "midi": 65,
          "name": "F4",
          "ticks": 4320,
          "time": 3.375,
          "velocity": 0.41732283464566927
        },
        {
          "duration": 0.6335937500000002,
          "durationTicks": 811,
          "midi": 68,
          "name": "G#4",
          "ticks": 4320,
          "time": 3.375,
          "velocity": 0.2047244094488189
        },
        {
          "duration": 0.6124999999999998,
          "durationTicks": 784,
          "midi": 71,
          "name": "B4",
          "ticks": 4320,
          "time": 3.375,
          "velocity": 0.07874015748031496
        },
        {
          "duration": 0.6937499999999996,
          "durationTicks": 888,
          "midi": 76,
          "name": "E5",
          "ticks": 4320,
          "time": 3.375,
          "velocity": 0.36220472440944884
        },
        {
          "duration": 0.037499999999999645,
          "durationTicks": 48,
          "midi": 72,
          "name": "C5",
          "ticks": 4440,
          "time": 3.46875,
          "velocity": 0.14960629921259844
        },
        {
          "duration": 0.68359375,
          "durationTicks": 875,
          "midi": 49,
          "name": "C#3",
          "ticks": 5760,
          "time": 4.5,
          "velocity": 0.12598425196850394
        },
        {
          "duration": 0.6453125000000002,
          "durationTicks": 826,
          "midi": 61,
          "name": "C#4",
          "ticks": 5760,
          "time": 4.5,
          "velocity": 0.15748031496062992
        },
        {
          "duration": 0.6414062500000002,
          "durationTicks": 821,
          "midi": 67,
          "name": "G4",
          "ticks": 5760,
          "time": 4.5,
          "velocity": 0.18110236220472442
        },
        {
          "duration": 0.6640625,
          "durationTicks": 850,
          "midi": 73,
          "name": "C#5",
          "ticks": 5760,
          "time": 4.5,
          "velocity": 0.28346456692913385
        },
        {
          "duration": 0.6312499999999996,
          "durationTicks": 808,
          "midi": 78,
          "name": "F#5",
          "ticks": 5760,
          "time": 4.5,
          "velocity": 0.28346456692913385
        },
        {
          "duration": 0.6820312499999996,
          "durationTicks": 873,
          "midi": 81,
          "name": "A5",
          "ticks": 5760,
          "time": 4.5,
          "velocity": 0.2204724409448819
        },
        {
          "duration": 0.6632812500000007,
          "durationTicks": 849,
          "midi": 48,
          "name": "C3",
          "ticks": 7200,
          "time": 5.625,
          "velocity": 0.12598425196850394
        },
        {
          "duration": 0.6859374999999996,
          "durationTicks": 878,
          "midi": 60,
          "name": "C4",
          "ticks": 7200,
          "time": 5.625,
          "velocity": 0.1732283464566929
        },
        {
          "duration": 0.69921875,
          "durationTicks": 895,
          "midi": 69,
          "name": "A4",
          "ticks": 7200,
          "time": 5.625,
          "velocity": 0.18110236220472442
        },
        {
          "duration": 0.6609374999999993,
          "durationTicks": 846,
          "midi": 72,
          "name": "C5",
          "ticks": 7200,
          "time": 5.625,
          "velocity": 0.2992125984251969
        },
        {
          "duration": 0.6429687499999996,
          "durationTicks": 823,
          "midi": 78,
          "name": "F#5",
          "ticks": 7200,
          "time": 5.625,
          "velocity": 0.2440944881889764
        },
        {
          "duration": 0.6140624999999993,
          "durationTicks": 786,
          "midi": 81,
          "name": "A5",
          "ticks": 7200,
          "time": 5.625,
          "velocity": 0.1889763779527559
        },
        {
          "duration": 0.5882812500000005,
          "durationTicks": 753,
          "midi": 47,
          "name": "B2",
          "ticks": 8640,
          "time": 6.75,
          "velocity": 0.2047244094488189
        },
        {
          "duration": 0.6000000000000005,
          "durationTicks": 768,
          "midi": 59,
          "name": "B3",
          "ticks": 8640,
          "time": 6.75,
          "velocity": 0.2204724409448819
        },
        {
          "duration": 0.6773437499999995,
          "durationTicks": 867,
          "midi": 67,
          "name": "G4",
          "ticks": 8640,
          "time": 6.75,
          "velocity": 0.16535433070866143
        },
        {
          "duration": 0.6570312500000011,
          "durationTicks": 841,
          "midi": 71,
          "name": "B4",
          "ticks": 8640,
          "time": 6.75,
          "velocity": 0.23622047244094488
        },
        {
          "duration": 0.6554687499999989,
          "durationTicks": 839,
          "midi": 74,
          "name": "D5",
          "ticks": 8640,
          "time": 6.75,
          "velocity": 0.28346456692913385
        },
        {
          "duration": 0.6039062499999996,
          "durationTicks": 773,
          "midi": 79,
          "name": "G5",
          "ticks": 8640,
          "time": 6.75,
          "velocity": 0.2204724409448819
        },
        {
          "duration": 0.4945312500000014,
          "durationTicks": 633,
          "midi": 52,
          "name": "E3",
          "ticks": 10440,
          "time": 8.15625,
          "velocity": 0.06299212598425197
        },
        {
          "duration": 0.5492187499999996,
          "durationTicks": 703,
          "midi": 58,
          "name": "A#3",
          "ticks": 10440,
          "time": 8.15625,
          "velocity": 0.14960629921259844
        },
        {
          "duration": 0.5328125000000004,
          "durationTicks": 682,
          "midi": 62,
          "name": "D4",
          "ticks": 10440,
          "time": 8.15625,
          "velocity": 0.07874015748031496
        },
        {
          "duration": 0.1171875,
          "durationTicks": 150,
          "midi": 64,
          "name": "E4",
          "ticks": 10440,
          "time": 8.15625,
          "velocity": 0.09448818897637795
        },
        {
          "duration": 0.140625,
          "durationTicks": 180,
          "midi": 70,
          "name": "A#4",
          "ticks": 10440,
          "time": 8.15625,
          "velocity": 0.18110236220472442
        },
        {
          "duration": 0.16328124999999893,
          "durationTicks": 209,
          "midi": 73,
          "name": "C#5",
          "ticks": 10440,
          "time": 8.15625,
          "velocity": 0.16535433070866143
        },
        {
          "duration": 0.12734374999999964,
          "durationTicks": 163,
          "midi": 76,
          "name": "E5",
          "ticks": 10440,
          "time": 8.15625,
          "velocity": 0.1732283464566929
        },
        {
          "duration": 0.11093750000000036,
          "durationTicks": 142,
          "midi": 65,
          "name": "F4",
          "ticks": 10800,
          "time": 8.4375,
          "velocity": 0.4094488188976378
        },
        {
          "duration": 0.12187499999999929,
          "durationTicks": 156,
          "midi": 77,
          "name": "F5",
          "ticks": 10800,
          "time": 8.4375,
          "velocity": 0.5275590551181102
        },
        {
          "duration": 0.10078125000000071,
          "durationTicks": 129,
          "midi": 67,
          "name": "G4",
          "ticks": 11160,
          "time": 8.71875,
          "velocity": 0.48031496062992124
        },
        {
          "duration": 0.125,
          "durationTicks": 160,
          "midi": 79,
          "name": "G5",
          "ticks": 11160,
          "time": 8.71875,
          "velocity": 0.5590551181102362
        },
        {
          "duration": 0.64453125,
          "durationTicks": 825,
          "midi": 57,
          "name": "A3",
          "ticks": 11520,
          "time": 9,
          "velocity": 0.28346456692913385
        },
        {
          "duration": 0.7257812499999989,
          "durationTicks": 929,
          "midi": 63,
          "name": "D#4",
          "ticks": 11520,
          "time": 9,
          "velocity": 0.2125984251968504
        },
        {
          "duration": 0.7953124999999996,
          "durationTicks": 1018,
          "midi": 69,
          "name": "A4",
          "ticks": 11520,
          "time": 9,
          "velocity": 0.2283464566929134
        },
        {
          "duration": 0.7898437499999993,
          "durationTicks": 1011,
          "midi": 74,
          "name": "D5",
          "ticks": 11520,
          "time": 9,
          "velocity": 0.3543307086614173
        },
        {
          "duration": 0.7648437500000007,
          "durationTicks": 979,
          "midi": 81,
          "name": "A5",
          "ticks": 11520,
          "time": 9,
          "velocity": 0.4566929133858268
        },
        {
          "duration": 0.15468750000000142,
          "durationTicks": 198,
          "midi": 57,
          "name": "A3",
          "ticks": 13800,
          "time": 10.78125,
          "velocity": 0.41732283464566927
        },
        {
          "duration": 0.13906249999999964,
          "durationTicks": 178,
          "midi": 62,
          "name": "D4",
          "ticks": 13800,
          "time": 10.78125,
          "velocity": 0.36220472440944884
        },
        {
          "duration": 0.14453125,
          "durationTicks": 185,
          "midi": 67,
          "name": "G4",
          "ticks": 13800,
          "time": 10.78125,
          "velocity": 0.41732283464566927
        },
        {
          "duration": 0.14687499999999964,
          "durationTicks": 188,
          "midi": 72,
          "name": "C5",
          "ticks": 13800,
          "time": 10.78125,
          "velocity": 0.44881889763779526
        },
        {
          "duration": 0.171875,
          "durationTicks": 220,
          "midi": 77,
          "name": "F5",
          "ticks": 13800,
          "time": 10.78125,
          "velocity": 0.48031496062992124
        },
        {
          "duration": 0.6539062499999986,
          "durationTicks": 837,
          "midi": 53,
          "name": "F3",
          "ticks": 14400,
          "time": 11.25,
          "velocity": 0.1889763779527559
        },
        {
          "duration": 0.6226562500000004,
          "durationTicks": 797,
          "midi": 58,
          "name": "A#3",
          "ticks": 14400,
          "time": 11.25,
          "velocity": 0.18110236220472442
        },
        {
          "duration": 0.5992187500000004,
          "durationTicks": 767,
          "midi": 62,
          "name": "D4",
          "ticks": 14400,
          "time": 11.25,
          "velocity": 0.1968503937007874
        },
        {
          "duration": 0.6031250000000004,
          "durationTicks": 772,
          "midi": 70,
          "name": "A#4",
          "ticks": 14400,
          "time": 11.25,
          "velocity": 0.1968503937007874
        },
        {
          "duration": 0.6015625,
          "durationTicks": 770,
          "midi": 74,
          "name": "D5",
          "ticks": 14400,
          "time": 11.25,
          "velocity": 0.3700787401574803
        },
        {
          "duration": 0.6046875000000007,
          "durationTicks": 774,
          "midi": 82,
          "name": "A#5",
          "ticks": 14400,
          "time": 11.25,
          "velocity": 0.33858267716535434
        },
        {
          "duration": 0.12031250000000071,
          "durationTicks": 154,
          "midi": 52,
          "name": "E3",
          "ticks": 15840,
          "time": 12.375,
          "velocity": 0.18110236220472442
        },
        {
          "duration": 0.13359375000000107,
          "durationTicks": 171,
          "midi": 58,
          "name": "A#3",
          "ticks": 15840,
          "time": 12.375,
          "velocity": 0.14960629921259844
        },
        {
          "duration": 0.13828124999999858,
          "durationTicks": 177,
          "midi": 62,
          "name": "D4",
          "ticks": 15840,
          "time": 12.375,
          "velocity": 0.1732283464566929
        },
        {
          "duration": 0.12421874999999893,
          "durationTicks": 159,
          "midi": 67,
          "name": "G4",
          "ticks": 15840,
          "time": 12.375,
          "velocity": 0.1732283464566929
        },
        {
          "duration": 0.13437500000000036,
          "durationTicks": 172,
          "midi": 74,
          "name": "D5",
          "ticks": 15840,
          "time": 12.375,
          "velocity": 0.2677165354330709
        },
        {
          "duration": 0.1257812499999993,
          "durationTicks": 161,
          "midi": 79,
          "name": "G5",
          "ticks": 15840,
          "time": 12.375,
          "velocity": 0.1889763779527559
        },
        {
          "duration": 0.43828125000000107,
          "durationTicks": 561,
          "midi": 52,
          "name": "E3",
          "ticks": 16320,
          "time": 12.75,
          "velocity": 0.1732283464566929
        },
        {
          "duration": 0.4781249999999986,
          "durationTicks": 612,
          "midi": 58,
          "name": "A#3",
          "ticks": 16320,
          "time": 12.75,
          "velocity": 0.09448818897637795
        },
        {
          "duration": 0.4890624999999993,
          "durationTicks": 626,
          "midi": 62,
          "name": "D4",
          "ticks": 16320,
          "time": 12.75,
          "velocity": 0.09448818897637795
        },
        {
          "duration": 0.15859374999999964,
          "durationTicks": 203,
          "midi": 69,
          "name": "A4",
          "ticks": 16320,
          "time": 12.75,
          "velocity": 0.1732283464566929
        },
        {
          "duration": 0.15078124999999787,
          "durationTicks": 193,
          "midi": 81,
          "name": "A5",
          "ticks": 16440,
          "time": 12.84375,
          "velocity": 0.031496062992125984
        },
        {
          "duration": 0.16875000000000107,
          "durationTicks": 216,
          "midi": 70,
          "name": "A#4",
          "ticks": 16800,
          "time": 13.125,
          "velocity": 0.13385826771653545
        },
        {
          "duration": 0.2585937499999993,
          "durationTicks": 331,
          "midi": 82,
          "name": "A#5",
          "ticks": 16800,
          "time": 13.125,
          "velocity": 0.18110236220472442
        },
        {
          "duration": 0.7734375,
          "durationTicks": 990,
          "midi": 55,
          "name": "G3",
          "ticks": 17280,
          "time": 13.5,
          "velocity": 0.08661417322834646
        },
        {
          "duration": 0.7492187500000007,
          "durationTicks": 959,
          "midi": 59,
          "name": "B3",
          "ticks": 17280,
          "time": 13.5,
          "velocity": 0.11023622047244094
        },
        {
          "duration": 0.7414062500000007,
          "durationTicks": 949,
          "midi": 60,
          "name": "C4",
          "ticks": 17280,
          "time": 13.5,
          "velocity": 0.11811023622047244
        },
        {
          "duration": 0.7523437500000014,
          "durationTicks": 963,
          "midi": 64,
          "name": "E4",
          "ticks": 17280,
          "time": 13.5,
          "velocity": 0.05511811023622047
        },
        {
          "duration": 0.77734375,
          "durationTicks": 995,
          "midi": 72,
          "name": "C5",
          "ticks": 17280,
          "time": 13.5,
          "velocity": 0.18110236220472442
        },
        {
          "duration": 0.8179687499999986,
          "durationTicks": 1047,
          "midi": 84,
          "name": "C6",
          "ticks": 17280,
          "time": 13.5,
          "velocity": 0.2677165354330709
        },
        {
          "duration": 0.5406250000000021,
          "durationTicks": 692,
          "midi": 54,
          "name": "F#3",
          "ticks": 19080,
          "time": 14.90625,
          "velocity": 0.18110236220472442
        },
        {
          "duration": 0.5296875000000014,
          "durationTicks": 678,
          "midi": 60,
          "name": "C4",
          "ticks": 19080,
          "time": 14.90625,
          "velocity": 0.2440944881889764
        },
        {
          "duration": 0.546875,
          "durationTicks": 700,
          "midi": 63,
          "name": "D#4",
          "ticks": 19080,
          "time": 14.90625,
          "velocity": 0.16535433070866143
        },
        {
          "duration": 0.65234375,
          "durationTicks": 835,
          "midi": 72,
          "name": "C5",
          "ticks": 19080,
          "time": 14.90625,
          "velocity": 0.3543307086614173
        },
        {
          "duration": 0.6125000000000007,
          "durationTicks": 784,
          "midi": 75,
          "name": "D#5",
          "ticks": 19080,
          "time": 14.90625,
          "velocity": 0.3228346456692913
        },
        {
          "duration": 0.6812500000000021,
          "durationTicks": 872,
          "midi": 80,
          "name": "G#5",
          "ticks": 19080,
          "time": 14.90625,
          "velocity": 0.3228346456692913
        },
        {
          "duration": 0.2335937500000007,
          "durationTicks": 299,
          "midi": 84,
          "name": "C6",
          "ticks": 20160,
          "time": 15.75,
          "velocity": 0.4330708661417323
        },
        {
          "duration": 0.6257812500000028,
          "durationTicks": 801,
          "midi": 53,
          "name": "F3",
          "ticks": 20520,
          "time": 16.03125,
          "velocity": 0.1732283464566929
        },
        {
          "duration": 0.6539062499999986,
          "durationTicks": 837,
          "midi": 57,
          "name": "A3",
          "ticks": 20520,
          "time": 16.03125,
          "velocity": 0.3228346456692913
        },
        {
          "duration": 0.6546874999999979,
          "durationTicks": 838,
          "midi": 58,
          "name": "A#3",
          "ticks": 20520,
          "time": 16.03125,
          "velocity": 0.1889763779527559
        },
        {
          "duration": 0.6484375,
          "durationTicks": 830,
          "midi": 62,
          "name": "D4",
          "ticks": 20520,
          "time": 16.03125,
          "velocity": 0.25984251968503935
        },
        {
          "duration": 0.5437500000000028,
          "durationTicks": 696,
          "midi": 74,
          "name": "D5",
          "ticks": 20520,
          "time": 16.03125,
          "velocity": 0.25984251968503935
        },
        {
          "duration": 0.53125,
          "durationTicks": 680,
          "midi": 77,
          "name": "F5",
          "ticks": 20520,
          "time": 16.03125,
          "velocity": 0.3543307086614173
        },
        {
          "duration": 0.45859375000000213,
          "durationTicks": 587,
          "midi": 81,
          "name": "A5",
          "ticks": 20520,
          "time": 16.03125,
          "velocity": 0.4015748031496063
        },
        {
          "duration": 0.16171874999999858,
          "durationTicks": 207,
          "midi": 84,
          "name": "C6",
          "ticks": 21360,
          "time": 16.6875,
          "velocity": 0.33070866141732286
        },
        {
          "duration": 0.625,
          "durationTicks": 800,
          "midi": 85,
          "name": "C#6",
          "ticks": 21720,
          "time": 16.96875,
          "velocity": 0.3543307086614173
        },
        {
          "duration": 0.4984375000000014,
          "durationTicks": 638,
          "midi": 52,
          "name": "E3",
          "ticks": 22080,
          "time": 17.25,
          "velocity": 0.25984251968503935
        },
        {
          "duration": 0.53515625,
          "durationTicks": 685,
          "midi": 58,
          "name": "A#3",
          "ticks": 22080,
          "time": 17.25,
          "velocity": 0.2204724409448819
        },
        {
          "duration": 0.5773437500000007,
          "durationTicks": 739,
          "midi": 63,
          "name": "D#4",
          "ticks": 22080,
          "time": 17.25,
          "velocity": 0.2047244094488189
        },
        {
          "duration": 0.6109375000000021,
          "durationTicks": 782,
          "midi": 76,
          "name": "E5",
          "ticks": 22080,
          "time": 17.25,
          "velocity": 0.33858267716535434
        },
        {
          "duration": 0.6875,
          "durationTicks": 880,
          "midi": 80,
          "name": "G#5",
          "ticks": 22080,
          "time": 17.25,
          "velocity": 0.36220472440944884
        },
        {
          "duration": 0.2351562499999993,
          "durationTicks": 301,
          "midi": 82,
          "name": "A#5",
          "ticks": 22800,
          "time": 17.8125,
          "velocity": 0.14173228346456693
        },
        {
          "duration": 0.19687499999999858,
          "durationTicks": 252,
          "midi": 83,
          "name": "B5",
          "ticks": 22920,
          "time": 17.90625,
          "velocity": 0.29133858267716534
        },
        {
          "duration": 0.7203124999999986,
          "durationTicks": 922,
          "midi": 53,
          "name": "F3",
          "ticks": 23160,
          "time": 18.09375,
          "velocity": 0.25984251968503935
        },
        {
          "duration": 0.6875,
          "durationTicks": 880,
          "midi": 57,
          "name": "A3",
          "ticks": 23160,
          "time": 18.09375,
          "velocity": 0.1968503937007874
        },
        {
          "duration": 0.68359375,
          "durationTicks": 875,
          "midi": 60,
          "name": "C4",
          "ticks": 23160,
          "time": 18.09375,
          "velocity": 0.16535433070866143
        },
        {
          "duration": 0.69921875,
          "durationTicks": 895,
          "midi": 64,
          "name": "E4",
          "ticks": 23160,
          "time": 18.09375,
          "velocity": 0.11023622047244094
        },
        {
          "duration": 1.45703125,
          "durationTicks": 1865,
          "midi": 84,
          "name": "C6",
          "ticks": 23160,
          "time": 18.09375,
          "velocity": 0.41732283464566927
        },
        {
          "duration": 0.6242187500000007,
          "durationTicks": 799,
          "midi": 72,
          "name": "C5",
          "ticks": 23520,
          "time": 18.375,
          "velocity": 0.3228346456692913
        },
        {
          "duration": 0.3953124999999993,
          "durationTicks": 506,
          "midi": 77,
          "name": "F5",
          "ticks": 24480,
          "time": 19.125,
          "velocity": 0.33070866141732286
        },
        {
          "duration": 0.4015625000000007,
          "durationTicks": 514,
          "midi": 72,
          "name": "C5",
          "ticks": 24840,
          "time": 19.40625,
          "velocity": 0.07086614173228346
        },
        {
          "duration": 0.2960937500000007,
          "durationTicks": 379,
          "midi": 50,
          "name": "D3",
          "ticks": 25200,
          "time": 19.6875,
          "velocity": 0.2677165354330709
        },
        {
          "duration": 0.2906249999999986,
          "durationTicks": 372,
          "midi": 53,
          "name": "F3",
          "ticks": 25200,
          "time": 19.6875,
          "velocity": 0.2283464566929134
        },
        {
          "duration": 0.32656249999999787,
          "durationTicks": 418,
          "midi": 57,
          "name": "A3",
          "ticks": 25200,
          "time": 19.6875,
          "velocity": 0.16535433070866143
        },
        {
          "duration": 0.3374999999999986,
          "durationTicks": 432,
          "midi": 60,
          "name": "C4",
          "ticks": 25200,
          "time": 19.6875,
          "velocity": 0.14960629921259844
        },
        {
          "duration": 0.5804687500000014,
          "durationTicks": 743,
          "midi": 84,
          "name": "C6",
          "ticks": 25200,
          "time": 19.6875,
          "velocity": 0.5196850393700787
        },
        {
          "duration": 0.3367187499999993,
          "durationTicks": 431,
          "midi": 72,
          "name": "C5",
          "ticks": 25560,
          "time": 19.96875,
          "velocity": 0.4094488188976378
        },
        {
          "duration": 0.9093749999999972,
          "durationTicks": 1164,
          "midi": 82,
          "name": "A#5",
          "ticks": 25920,
          "time": 20.25,
          "velocity": 0.2677165354330709
        },
        {
          "duration": 0.4164062500000014,
          "durationTicks": 533,
          "midi": 53,
          "name": "F3",
          "ticks": 26640,
          "time": 20.8125,
          "velocity": 0.1732283464566929
        },
        {
          "duration": 0.4140625,
          "durationTicks": 530,
          "midi": 57,
          "name": "A3",
          "ticks": 26640,
          "time": 20.8125,
          "velocity": 0.1968503937007874
        },
        {
          "duration": 0.4226562499999993,
          "durationTicks": 541,
          "midi": 58,
          "name": "A#3",
          "ticks": 26640,
          "time": 20.8125,
          "velocity": 0.14960629921259844
        },
        {
          "duration": 0.4140625,
          "durationTicks": 530,
          "midi": 62,
          "name": "D4",
          "ticks": 26640,
          "time": 20.8125,
          "velocity": 0.14960629921259844
        },
        {
          "duration": 0.39374999999999716,
          "durationTicks": 504,
          "midi": 70,
          "name": "A#4",
          "ticks": 26640,
          "time": 20.8125,
          "velocity": 0.2755905511811024
        },
        {
          "duration": 0.6499999999999986,
          "durationTicks": 832,
          "midi": 65,
          "name": "F4",
          "ticks": 27720,
          "time": 21.65625,
          "velocity": 0.4094488188976378
        },
        {
          "duration": 0.16015625,
          "durationTicks": 205,
          "midi": 56,
          "name": "G#3",
          "ticks": 28080,
          "time": 21.9375,
          "velocity": 0.29133858267716534
        },
        {
          "duration": 0.16640625000000142,
          "durationTicks": 213,
          "midi": 62,
          "name": "D4",
          "ticks": 28080,
          "time": 21.9375,
          "velocity": 0.2992125984251969
        },
        {
          "duration": 0.2734375,
          "durationTicks": 350,
          "midi": 68,
          "name": "G#4",
          "ticks": 28080,
          "time": 21.9375,
          "velocity": 0.47244094488188976
        },
        {
          "duration": 0.2554687499999986,
          "durationTicks": 327,
          "midi": 71,
          "name": "B4",
          "ticks": 28080,
          "time": 21.9375,
          "velocity": 0.4881889763779528
        },
        {
          "duration": 0.23281249999999787,
          "durationTicks": 298,
          "midi": 76,
          "name": "E5",
          "ticks": 28080,
          "time": 21.9375,
          "velocity": 0.5039370078740157
        },
        {
          "duration": 0.07421875,
          "durationTicks": 95,
          "midi": 74,
          "name": "D5",
          "ticks": 28440,
          "time": 22.21875,
          "velocity": 0.44881889763779526
        },
        {
          "duration": 0.84765625,
          "durationTicks": 1085,
          "midi": 81,
          "name": "A5",
          "ticks": 28800,
          "time": 22.5,
          "velocity": 0.4094488188976378
        },
        {
          "duration": 0.19218750000000284,
          "durationTicks": 246,
          "midi": 49,
          "name": "C#3",
          "ticks": 29640,
          "time": 23.15625,
          "velocity": 0.28346456692913385
        },
        {
          "duration": 0.1789062500000007,
          "durationTicks": 229,
          "midi": 61,
          "name": "C#4",
          "ticks": 29640,
          "time": 23.15625,
          "velocity": 0.2125984251968504
        },
        {
          "duration": 0.22031249999999858,
          "durationTicks": 282,
          "midi": 67,
          "name": "G4",
          "ticks": 29640,
          "time": 23.15625,
          "velocity": 0.33070866141732286
        },
        {
          "duration": 0.23203124999999858,
          "durationTicks": 297,
          "midi": 73,
          "name": "C#5",
          "ticks": 29640,
          "time": 23.15625,
          "velocity": 0.3700787401574803
        },
        {
          "duration": 0.16875000000000284,
          "durationTicks": 216,
          "midi": 78,
          "name": "F#5",
          "ticks": 29640,
          "time": 23.15625,
          "velocity": 0.33858267716535434
        },
        {
          "duration": 0.22890625000000142,
          "durationTicks": 293,
          "midi": 48,
          "name": "C3",
          "ticks": 31080,
          "time": 24.28125,
          "velocity": 0.15748031496062992
        },
        {
          "duration": 0.20234375000000426,
          "durationTicks": 259,
          "midi": 60,
          "name": "C4",
          "ticks": 31080,
          "time": 24.28125,
          "velocity": 0.18110236220472442
        },
        {
          "duration": 0.25078125000000284,
          "durationTicks": 321,
          "midi": 66,
          "name": "F#4",
          "ticks": 31080,
          "time": 24.28125,
          "velocity": 0.29133858267716534
        },
        {
          "duration": 0.24140624999999716,
          "durationTicks": 309,
          "midi": 72,
          "name": "C5",
          "ticks": 31080,
          "time": 24.28125,
          "velocity": 0.4330708661417323
        },
        {
          "duration": 0.23750000000000426,
          "durationTicks": 304,
          "midi": 74,
          "name": "D5",
          "ticks": 31080,
          "time": 24.28125,
          "velocity": 0.4330708661417323
        },
        {
          "duration": 0.6007812500000043,
          "durationTicks": 769,
          "midi": 47,
          "name": "B2",
          "ticks": 31680,
          "time": 24.75,
          "velocity": 0.09448818897637795
        },
        {
          "duration": 0.6492187500000028,
          "durationTicks": 831,
          "midi": 59,
          "name": "B3",
          "ticks": 31680,
          "time": 24.75,
          "velocity": 0.16535433070866143
        },
        {
          "duration": 0.7453124999999972,
          "durationTicks": 954,
          "midi": 65,
          "name": "F4",
          "ticks": 31680,
          "time": 24.75,
          "velocity": 0.12598425196850394
        },
        {
          "duration": 0.7242187500000021,
          "durationTicks": 927,
          "midi": 71,
          "name": "B4",
          "ticks": 31680,
          "time": 24.75,
          "velocity": 0.3543307086614173
        },
        {
          "duration": 0.7109375,
          "durationTicks": 910,
          "midi": 74,
          "name": "D5",
          "ticks": 31680,
          "time": 24.75,
          "velocity": 0.4409448818897638
        },
        {
          "duration": 0.6953125,
          "durationTicks": 890,
          "midi": 79,
          "name": "G5",
          "ticks": 31680,
          "time": 24.75,
          "velocity": 0.2204724409448819
        },
        {
          "duration": 0.7164062499999986,
          "durationTicks": 917,
          "midi": 52,
          "name": "E3",
          "ticks": 33120,
          "time": 25.875,
          "velocity": 0.2677165354330709
        },
        {
          "duration": 0.7265625,
          "durationTicks": 930,
          "midi": 58,
          "name": "A#3",
          "ticks": 33120,
          "time": 25.875,
          "velocity": 0.1732283464566929
        },
        {
          "duration": 0.1796875,
          "durationTicks": 230,
          "midi": 64,
          "name": "E4",
          "ticks": 33120,
          "time": 25.875,
          "velocity": 0.2283464566929134
        },
        {
          "duration": 0.2101562500000007,
          "durationTicks": 269,
          "midi": 70,
          "name": "A#4",
          "ticks": 33120,
          "time": 25.875,
          "velocity": 0.2677165354330709
        },
        {
          "duration": 0.2117187499999993,
          "durationTicks": 271,
          "midi": 73,
          "name": "C#5",
          "ticks": 33120,
          "time": 25.875,
          "velocity": 0.36220472440944884
        },
        {
          "duration": 0.19062500000000426,
          "durationTicks": 244,
          "midi": 76,
          "name": "E5",
          "ticks": 33120,
          "time": 25.875,
          "velocity": 0.33858267716535434
        },
        {
          "duration": 0.19687500000000213,
          "durationTicks": 252,
          "midi": 65,
          "name": "F4",
          "ticks": 33600,
          "time": 26.25,
          "velocity": 0.1889763779527559
        },
        {
          "duration": 0.18281249999999716,
          "durationTicks": 234,
          "midi": 77,
          "name": "F5",
          "ticks": 33600,
          "time": 26.25,
          "velocity": 0.28346456692913385
        },
        {
          "duration": 0.06640625,
          "durationTicks": 85,
          "midi": 62,
          "name": "D4",
          "ticks": 33960,
          "time": 26.53125,
          "velocity": 0.31496062992125984
        },
        {
          "duration": 0.11328125,
          "durationTicks": 145,
          "midi": 67,
          "name": "G4",
          "ticks": 34200,
          "time": 26.71875,
          "velocity": 0.4094488188976378
        },
        {
          "duration": 0.16015625,
          "durationTicks": 205,
          "midi": 79,
          "name": "G5",
          "ticks": 34200,
          "time": 26.71875,
          "velocity": 0.49606299212598426
        },
        {
          "duration": 0.7562500000000014,
          "durationTicks": 968,
          "midi": 57,
          "name": "A3",
          "ticks": 34560,
          "time": 27,
          "velocity": 0.31496062992125984
        },
        {
          "duration": 0.7578125,
          "durationTicks": 970,
          "midi": 62,
          "name": "D4",
          "ticks": 34560,
          "time": 27,
          "velocity": 0.25984251968503935
        },
        {
          "duration": 0.7398437499999986,
          "durationTicks": 947,
          "midi": 67,
          "name": "G4",
          "ticks": 34560,
          "time": 27,
          "velocity": 0.2204724409448819
        },
        {
          "duration": 0.7992187499999979,
          "durationTicks": 1023,
          "midi": 69,
          "name": "A4",
          "ticks": 34560,
          "time": 27,
          "velocity": 0.36220472440944884
        },
        {
          "duration": 0.8046875,
          "durationTicks": 1030,
          "midi": 74,
          "name": "D5",
          "ticks": 34560,
          "time": 27,
          "velocity": 0.33070866141732286
        },
        {
          "duration": 0.8171874999999957,
          "durationTicks": 1046,
          "midi": 77,
          "name": "F5",
          "ticks": 34560,
          "time": 27,
          "velocity": 0.3543307086614173
        },
        {
          "duration": 0.74609375,
          "durationTicks": 955,
          "midi": 81,
          "name": "A5",
          "ticks": 34560,
          "time": 27,
          "velocity": 0.41732283464566927
        },
        {
          "duration": 0.5445312499999986,
          "durationTicks": 697,
          "midi": 57,
          "name": "A3",
          "ticks": 36240,
          "time": 28.3125,
          "velocity": 0.4409448818897638
        },
        {
          "duration": 0.5445312499999986,
          "durationTicks": 697,
          "midi": 62,
          "name": "D4",
          "ticks": 36240,
          "time": 28.3125,
          "velocity": 0.36220472440944884
        },
        {
          "duration": 0.4921875,
          "durationTicks": 630,
          "midi": 67,
          "name": "G4",
          "ticks": 36240,
          "time": 28.3125,
          "velocity": 0.25984251968503935
        },
        {
          "duration": 0.5406249999999986,
          "durationTicks": 692,
          "midi": 69,
          "name": "A4",
          "ticks": 36240,
          "time": 28.3125,
          "velocity": 0.4015748031496063
        },
        {
          "duration": 0.5062499999999979,
          "durationTicks": 648,
          "midi": 72,
          "name": "C5",
          "ticks": 36240,
          "time": 28.3125,
          "velocity": 0.47244094488188976
        },
        {
          "duration": 0.5007812499999957,
          "durationTicks": 641,
          "midi": 77,
          "name": "F5",
          "ticks": 36240,
          "time": 28.3125,
          "velocity": 0.47244094488188976
        },
        {
          "duration": 0.8031250000000014,
          "durationTicks": 1028,
          "midi": 57,
          "name": "A3",
          "ticks": 37440,
          "time": 29.25,
          "velocity": 0.4330708661417323
        },
        {
          "duration": 0.7710937500000021,
          "durationTicks": 987,
          "midi": 61,
          "name": "C#4",
          "ticks": 37440,
          "time": 29.25,
          "velocity": 0.2755905511811024
        },
        {
          "duration": 0.6617187499999986,
          "durationTicks": 847,
          "midi": 62,
          "name": "D4",
          "ticks": 37440,
          "time": 29.25,
          "velocity": 0.49606299212598426
        },
        {
          "duration": 0.66796875,
          "durationTicks": 855,
          "midi": 62,
          "name": "D4",
          "ticks": 37440,
          "time": 29.25,
          "velocity": 0.3779527559055118
        },
        {
          "duration": 0.6164062499999972,
          "durationTicks": 789,
          "midi": 66,
          "name": "F#4",
          "ticks": 37440,
          "time": 29.25,
          "velocity": 0.44881889763779526
        },
        {
          "duration": 0.6226562499999986,
          "durationTicks": 797,
          "midi": 66,
          "name": "F#4",
          "ticks": 37440,
          "time": 29.25,
          "velocity": 0.2047244094488189
        },
        {
          "duration": 0.4578124999999993,
          "durationTicks": 586,
          "midi": 71,
          "name": "B4",
          "ticks": 37440,
          "time": 29.25,
          "velocity": 0.5433070866141733
        },
        {
          "duration": 0.4632812500000014,
          "durationTicks": 593,
          "midi": 71,
          "name": "B4",
          "ticks": 37440,
          "time": 29.25,
          "velocity": 0.4330708661417323
        },
        {
          "duration": 0.4164062500000014,
          "durationTicks": 533,
          "midi": 83,
          "name": "B5",
          "ticks": 37440,
          "time": 29.25,
          "velocity": 0.4881889763779528
        },
        {
          "duration": 0.13203125000000426,
          "durationTicks": 169,
          "midi": 69,
          "name": "A4",
          "ticks": 38400,
          "time": 30,
          "velocity": 0.1732283464566929
        },
        {
          "duration": 0.13203125000000426,
          "durationTicks": 169,
          "midi": 81,
          "name": "A5",
          "ticks": 38400,
          "time": 30,
          "velocity": 0.1732283464566929
        },
        {
          "duration": 0.7742187499999993,
          "durationTicks": 991,
          "midi": 56,
          "name": "G#3",
          "ticks": 38880,
          "time": 30.375,
          "velocity": 0.2677165354330709
        },
        {
          "duration": 0.7296875000000043,
          "durationTicks": 934,
          "midi": 62,
          "name": "D4",
          "ticks": 38880,
          "time": 30.375,
          "velocity": 0.36220472440944884
        },
        {
          "duration": 0.7234374999999957,
          "durationTicks": 926,
          "midi": 66,
          "name": "F#4",
          "ticks": 38880,
          "time": 30.375,
          "velocity": 0.2047244094488189
        },
        {
          "duration": 0.76953125,
          "durationTicks": 985,
          "midi": 68,
          "name": "G#4",
          "ticks": 38880,
          "time": 30.375,
          "velocity": 0.3937007874015748
        },
        {
          "duration": 0.73828125,
          "durationTicks": 945,
          "midi": 80,
          "name": "G#5",
          "ticks": 38880,
          "time": 30.375,
          "velocity": 0.4409448818897638
        },
        {
          "duration": 0.14218749999999858,
          "durationTicks": 182,
          "midi": 45,
          "name": "A2",
          "ticks": 41160,
          "time": 32.15625,
          "velocity": 0.25984251968503935
        },
        {
          "duration": 0.18671874999999716,
          "durationTicks": 239,
          "midi": 56,
          "name": "G#3",
          "ticks": 41160,
          "time": 32.15625,
          "velocity": 0.2440944881889764
        },
        {
          "duration": 0.23750000000000426,
          "durationTicks": 304,
          "midi": 64,
          "name": "E4",
          "ticks": 41160,
          "time": 32.15625,
          "velocity": 0.3228346456692913
        },
        {
          "duration": 0.21875,
          "durationTicks": 280,
          "midi": 68,
          "name": "G#4",
          "ticks": 41160,
          "time": 32.15625,
          "velocity": 0.33070866141732286
        },
        {
          "duration": 0.203125,
          "durationTicks": 260,
          "midi": 73,
          "name": "C#5",
          "ticks": 41160,
          "time": 32.15625,
          "velocity": 0.36220472440944884
        },
        {
          "duration": 0.18437499999999574,
          "durationTicks": 236,
          "midi": 76,
          "name": "E5",
          "ticks": 41160,
          "time": 32.15625,
          "velocity": 0.2677165354330709
        },
        {
          "duration": 0.15390624999999858,
          "durationTicks": 197,
          "midi": 76,
          "name": "E5",
          "ticks": 41520,
          "time": 32.4375,
          "velocity": 0.41732283464566927
        },
        {
          "duration": 0.5570312500000014,
          "durationTicks": 713,
          "midi": 57,
          "name": "A3",
          "ticks": 41880,
          "time": 32.71875,
          "velocity": 0.16535433070866143
        },
        {
          "duration": 0.5414062499999943,
          "durationTicks": 693,
          "midi": 61,
          "name": "C#4",
          "ticks": 41880,
          "time": 32.71875,
          "velocity": 0.07086614173228346
        },
        {
          "duration": 0.5523437499999986,
          "durationTicks": 707,
          "midi": 62,
          "name": "D4",
          "ticks": 41880,
          "time": 32.71875,
          "velocity": 0.1732283464566929
        },
        {
          "duration": 0.5218750000000014,
          "durationTicks": 668,
          "midi": 66,
          "name": "F#4",
          "ticks": 41880,
          "time": 32.71875,
          "velocity": 0.1889763779527559
        },
        {
          "duration": 0.42265625000000284,
          "durationTicks": 541,
          "midi": 69,
          "name": "A4",
          "ticks": 41880,
          "time": 32.71875,
          "velocity": 0.25196850393700787
        },
        {
          "duration": 0.4140625,
          "durationTicks": 530,
          "midi": 73,
          "name": "C#5",
          "ticks": 41880,
          "time": 32.71875,
          "velocity": 0.36220472440944884
        },
        {
          "duration": 0.12890625,
          "durationTicks": 165,
          "midi": 73,
          "name": "C#5",
          "ticks": 42600,
          "time": 33.28125,
          "velocity": 0.36220472440944884
        },
        {
          "duration": 0.09531249999999858,
          "durationTicks": 122,
          "midi": 73,
          "name": "C#5",
          "ticks": 42960,
          "time": 33.5625,
          "velocity": 0.4094488188976378
        },
        {
          "duration": 0.734375,
          "durationTicks": 940,
          "midi": 45,
          "name": "A2",
          "ticks": 43200,
          "time": 33.75,
          "velocity": 0.14960629921259844
        },
        {
          "duration": 0.6945312500000043,
          "durationTicks": 889,
          "midi": 49,
          "name": "C#3",
          "ticks": 43200,
          "time": 33.75,
          "velocity": 0.12598425196850394
        },
        {
          "duration": 0.7351562499999957,
          "durationTicks": 941,
          "midi": 52,
          "name": "E3",
          "ticks": 43200,
          "time": 33.75,
          "velocity": 0.2755905511811024
        },
        {
          "duration": 0.7429687500000028,
          "durationTicks": 951,
          "midi": 56,
          "name": "G#3",
          "ticks": 43200,
          "time": 33.75,
          "velocity": 0.16535433070866143
        },
        {
          "duration": 0.375,
          "durationTicks": 480,
          "midi": 61,
          "name": "C#4",
          "ticks": 43200,
          "time": 33.75,
          "velocity": 0.28346456692913385
        },
        {
          "duration": 0.28515625,
          "durationTicks": 365,
          "midi": 68,
          "name": "G#4",
          "ticks": 43200,
          "time": 33.75,
          "velocity": 0.3228346456692913
        },
        {
          "duration": 0.109375,
          "durationTicks": 140,
          "midi": 68,
          "name": "G#4",
          "ticks": 44040,
          "time": 34.40625,
          "velocity": 0.4330708661417323
        },
        {
          "duration": 0.08281250000000284,
          "durationTicks": 106,
          "midi": 68,
          "name": "G#4",
          "ticks": 44400,
          "time": 34.6875,
          "velocity": 0.3228346456692913
        },
        {
          "duration": 0.4242187499999943,
          "durationTicks": 543,
          "midi": 45,
          "name": "A2",
          "ticks": 44640,
          "time": 34.875,
          "velocity": 0.09448818897637795
        },
        {
          "duration": 0.4195312500000057,
          "durationTicks": 537,
          "midi": 49,
          "name": "C#3",
          "ticks": 44640,
          "time": 34.875,
          "velocity": 0.16535433070866143
        },
        {
          "duration": 0.4046875000000014,
          "durationTicks": 518,
          "midi": 52,
          "name": "E3",
          "ticks": 44640,
          "time": 34.875,
          "velocity": 0.29133858267716534
        },
        {
          "duration": 0.40937499999999716,
          "durationTicks": 524,
          "midi": 56,
          "name": "G#3",
          "ticks": 44640,
          "time": 34.875,
          "velocity": 0.12598425196850394
        },
        {
          "duration": 0.42890624999999716,
          "durationTicks": 549,
          "midi": 59,
          "name": "B3",
          "ticks": 44640,
          "time": 34.875,
          "velocity": 0.2204724409448819
        },
        {
          "duration": 0.4546875000000057,
          "durationTicks": 582,
          "midi": 61,
          "name": "C#4",
          "ticks": 44640,
          "time": 34.875,
          "velocity": 0.25984251968503935
        },
        {
          "duration": 0.4742187499999986,
          "durationTicks": 607,
          "midi": 64,
          "name": "E4",
          "ticks": 44640,
          "time": 34.875,
          "velocity": 0.25196850393700787
        },
        {
          "duration": 0.11406249999999574,
          "durationTicks": 146,
          "midi": 53,
          "name": "F3",
          "ticks": 46560,
          "time": 36.375,
          "velocity": 0.1732283464566929
        },
        {
          "duration": 0.11874999999999858,
          "durationTicks": 152,
          "midi": 57,
          "name": "A3",
          "ticks": 46560,
          "time": 36.375,
          "velocity": 0.1889763779527559
        },
        {
          "duration": 0.12421874999999716,
          "durationTicks": 159,
          "midi": 58,
          "name": "A#3",
          "ticks": 46560,
          "time": 36.375,
          "velocity": 0.13385826771653545
        },
        {
          "duration": 0.12031250000000426,
          "durationTicks": 154,
          "midi": 62,
          "name": "D4",
          "ticks": 46560,
          "time": 36.375,
          "velocity": 0.14960629921259844
        },
        {
          "duration": 0.1171875,
          "durationTicks": 150,
          "midi": 74,
          "name": "D5",
          "ticks": 46560,
          "time": 36.375,
          "velocity": 0.11811023622047244
        },
        {
          "duration": 0.12421874999999716,
          "durationTicks": 159,
          "midi": 81,
          "name": "A5",
          "ticks": 46560,
          "time": 36.375,
          "velocity": 0.16535433070866143
        },
        {
          "duration": 0.14140625000000284,
          "durationTicks": 181,
          "midi": 86,
          "name": "D6",
          "ticks": 46560,
          "time": 36.375,
          "velocity": 0.18110236220472442
        },
        {
          "duration": 0.265625,
          "durationTicks": 340,
          "midi": 53,
          "name": "F3",
          "ticks": 47040,
          "time": 36.75,
          "velocity": 0.16535433070866143
        },
        {
          "duration": 0.26874999999999716,
          "durationTicks": 344,
          "midi": 57,
          "name": "A3",
          "ticks": 47040,
          "time": 36.75,
          "velocity": 0.2440944881889764
        },
        {
          "duration": 0.26250000000000284,
          "durationTicks": 336,
          "midi": 58,
          "name": "A#3",
          "ticks": 47040,
          "time": 36.75,
          "velocity": 0.1889763779527559
        },
        {
          "duration": 0.25390625,
          "durationTicks": 325,
          "midi": 62,
          "name": "D4",
          "ticks": 47040,
          "time": 36.75,
          "velocity": 0.14960629921259844
        },
        {
          "duration": 0.22578125000000426,
          "durationTicks": 289,
          "midi": 74,
          "name": "D5",
          "ticks": 47040,
          "time": 36.75,
          "velocity": 0.1732283464566929
        },
        {
          "duration": 0.234375,
          "durationTicks": 300,
          "midi": 81,
          "name": "A5",
          "ticks": 47040,
          "time": 36.75,
          "velocity": 0.25196850393700787
        },
        {
          "duration": 0.25078125000000284,
          "durationTicks": 321,
          "midi": 86,
          "name": "D6",
          "ticks": 47040,
          "time": 36.75,
          "velocity": 0.1732283464566929
        },
        {
          "duration": 0.14765624999999716,
          "durationTicks": 189,
          "midi": 52,
          "name": "E3",
          "ticks": 48000,
          "time": 37.5,
          "velocity": 0.1732283464566929
        },
        {
          "duration": 0.13906250000000142,
          "durationTicks": 178,
          "midi": 58,
          "name": "A#3",
          "ticks": 48000,
          "time": 37.5,
          "velocity": 0.12598425196850394
        },
        {
          "duration": 0.12890625,
          "durationTicks": 165,
          "midi": 62,
          "name": "D4",
          "ticks": 48000,
          "time": 37.5,
          "velocity": 0.11811023622047244
        },
        {
          "duration": 0.15390624999999858,
          "durationTicks": 197,
          "midi": 74,
          "name": "D5",
          "ticks": 48000,
          "time": 37.5,
          "velocity": 0.14960629921259844
        },
        {
          "duration": 0.15546875000000426,
          "durationTicks": 199,
          "midi": 81,
          "name": "A5",
          "ticks": 48000,
          "time": 37.5,
          "velocity": 0.1732283464566929
        },
        {
          "duration": 0.15781249999999858,
          "durationTicks": 202,
          "midi": 86,
          "name": "D6",
          "ticks": 48000,
          "time": 37.5,
          "velocity": 0.2204724409448819
        },
        {
          "duration": 0.19375000000000142,
          "durationTicks": 248,
          "midi": 52,
          "name": "E3",
          "ticks": 48480,
          "time": 37.875,
          "velocity": 0.1732283464566929
        },
        {
          "duration": 0.20468749999999858,
          "durationTicks": 262,
          "midi": 58,
          "name": "A#3",
          "ticks": 48480,
          "time": 37.875,
          "velocity": 0.18110236220472442
        },
        {
          "duration": 0.22499999999999432,
          "durationTicks": 288,
          "midi": 62,
          "name": "D4",
          "ticks": 48480,
          "time": 37.875,
          "velocity": 0.1889763779527559
        },
        {
          "duration": 0.21171875000000284,
          "durationTicks": 271,
          "midi": 74,
          "name": "D5",
          "ticks": 48480,
          "time": 37.875,
          "velocity": 0.23622047244094488
        },
        {
          "duration": 0.2109375,
          "durationTicks": 270,
          "midi": 81,
          "name": "A5",
          "ticks": 48480,
          "time": 37.875,
          "velocity": 0.2283464566929134
        },
        {
          "duration": 0.21484375,
          "durationTicks": 275,
          "midi": 86,
          "name": "D6",
          "ticks": 48480,
          "time": 37.875,
          "velocity": 0.31496062992125984
        },
        {
          "duration": 0.15781249999999858,
          "durationTicks": 202,
          "midi": 55,
          "name": "G3",
          "ticks": 49440,
          "time": 38.625,
          "velocity": 0.2125984251968504
        },
        {
          "duration": 0.13515625000000142,
          "durationTicks": 173,
          "midi": 59,
          "name": "B3",
          "ticks": 49440,
          "time": 38.625,
          "velocity": 0.1968503937007874
        },
        {
          "duration": 0.1328125,
          "durationTicks": 170,
          "midi": 60,
          "name": "C4",
          "ticks": 49440,
          "time": 38.625,
          "velocity": 0.1968503937007874
        },
        {
          "duration": 0.14531250000000284,
          "durationTicks": 186,
          "midi": 64,
          "name": "E4",
          "ticks": 49440,
          "time": 38.625,
          "velocity": 0.14173228346456693
        },
        {
          "duration": 0.171875,
          "durationTicks": 220,
          "midi": 74,
          "name": "D5",
          "ticks": 49440,
          "time": 38.625,
          "velocity": 0.16535433070866143
        },
        {
          "duration": 0.15859375000000142,
          "durationTicks": 203,
          "midi": 83,
          "name": "B5",
          "ticks": 49440,
          "time": 38.625,
          "velocity": 0.2992125984251969
        },
        {
          "duration": 0.18593750000000142,
          "durationTicks": 238,
          "midi": 86,
          "name": "D6",
          "ticks": 49440,
          "time": 38.625,
          "velocity": 0.2047244094488189
        },
        {
          "duration": 0.22499999999999432,
          "durationTicks": 288,
          "midi": 55,
          "name": "G3",
          "ticks": 49920,
          "time": 39,
          "velocity": 0.1968503937007874
        },
        {
          "duration": 0.20546875000000142,
          "durationTicks": 263,
          "midi": 59,
          "name": "B3",
          "ticks": 49920,
          "time": 39,
          "velocity": 0.2204724409448819
        },
        {
          "duration": 0.19609374999999574,
          "durationTicks": 251,
          "midi": 60,
          "name": "C4",
          "ticks": 49920,
          "time": 39,
          "velocity": 0.2677165354330709
        },
        {
          "duration": 0.21406250000000426,
          "durationTicks": 274,
          "midi": 64,
          "name": "E4",
          "ticks": 49920,
          "time": 39,
          "velocity": 0.14960629921259844
        },
        {
          "duration": 0.20624999999999716,
          "durationTicks": 264,
          "midi": 74,
          "name": "D5",
          "ticks": 49920,
          "time": 39,
          "velocity": 0.1732283464566929
        },
        {
          "duration": 0.18828125000000284,
          "durationTicks": 241,
          "midi": 83,
          "name": "B5",
          "ticks": 49920,
          "time": 39,
          "velocity": 0.36220472440944884
        },
        {
          "duration": 0.21640624999999858,
          "durationTicks": 277,
          "midi": 86,
          "name": "D6",
          "ticks": 49920,
          "time": 39,
          "velocity": 0.2204724409448819
        },
        {
          "duration": 0.15390624999999858,
          "durationTicks": 197,
          "midi": 50,
          "name": "D3",
          "ticks": 50880,
          "time": 39.75,
          "velocity": 0.2047244094488189
        },
        {
          "duration": 0.14453125,
          "durationTicks": 185,
          "midi": 54,
          "name": "F#3",
          "ticks": 50880,
          "time": 39.75,
          "velocity": 0.1968503937007874
        },
        {
          "duration": 0.14687500000000142,
          "durationTicks": 188,
          "midi": 60,
          "name": "C4",
          "ticks": 50880,
          "time": 39.75,
          "velocity": 0.2204724409448819
        },
        {
          "duration": 0.16093749999999574,
          "durationTicks": 206,
          "midi": 74,
          "name": "D5",
          "ticks": 50880,
          "time": 39.75,
          "velocity": 0.2047244094488189
        },
        {
          "duration": 0.15468749999999432,
          "durationTicks": 198,
          "midi": 81,
          "name": "A5",
          "ticks": 50880,
          "time": 39.75,
          "velocity": 0.2677165354330709
        },
        {
          "duration": 0.16875000000000284,
          "durationTicks": 216,
          "midi": 86,
          "name": "D6",
          "ticks": 50880,
          "time": 39.75,
          "velocity": 0.25196850393700787
        },
        {
          "duration": 0.14531250000000284,
          "durationTicks": 186,
          "midi": 50,
          "name": "D3",
          "ticks": 51360,
          "time": 40.125,
          "velocity": 0.1732283464566929
        },
        {
          "duration": 0.20078124999999858,
          "durationTicks": 257,
          "midi": 54,
          "name": "F#3",
          "ticks": 51360,
          "time": 40.125,
          "velocity": 0.1889763779527559
        },
        {
          "duration": 0.21484375,
          "durationTicks": 275,
          "midi": 60,
          "name": "C4",
          "ticks": 51360,
          "time": 40.125,
          "velocity": 0.18110236220472442
        },
        {
          "duration": 0.20390625000000284,
          "durationTicks": 261,
          "midi": 74,
          "name": "D5",
          "ticks": 51360,
          "time": 40.125,
          "velocity": 0.16535433070866143
        },
        {
          "duration": 0.20000000000000284,
          "durationTicks": 256,
          "midi": 81,
          "name": "A5",
          "ticks": 51360,
          "time": 40.125,
          "velocity": 0.31496062992125984
        },
        {
          "duration": 0.21406250000000426,
          "durationTicks": 274,
          "midi": 86,
          "name": "D6",
          "ticks": 51360,
          "time": 40.125,
          "velocity": 0.1732283464566929
        },
        {
          "duration": 0.2265625,
          "durationTicks": 290,
          "midi": 53,
          "name": "F3",
          "ticks": 52680,
          "time": 41.15625,
          "velocity": 0.33858267716535434
        },
        {
          "duration": 0.2515624999999986,
          "durationTicks": 322,
          "midi": 58,
          "name": "A#3",
          "ticks": 52680,
          "time": 41.15625,
          "velocity": 0.36220472440944884
        },
        {
          "duration": 0.27031250000000284,
          "durationTicks": 346,
          "midi": 62,
          "name": "D4",
          "ticks": 52680,
          "time": 41.15625,
          "velocity": 0.3779527559055118
        },
        {
          "duration": 0.2789062500000057,
          "durationTicks": 357,
          "midi": 74,
          "name": "D5",
          "ticks": 52680,
          "time": 41.15625,
          "velocity": 0.4881889763779528
        },
        {
          "duration": 0.21718750000000142,
          "durationTicks": 278,
          "midi": 80,
          "name": "G#5",
          "ticks": 52680,
          "time": 41.15625,
          "velocity": 0.5354330708661418
        },
        {
          "duration": 0.21562500000000284,
          "durationTicks": 276,
          "midi": 86,
          "name": "D6",
          "ticks": 52680,
          "time": 41.15625,
          "velocity": 0.49606299212598426
        },
        {
          "duration": 0.08749999999999858,
          "durationTicks": 112,
          "midi": 81,
          "name": "A5",
          "ticks": 52920,
          "time": 41.34375,
          "velocity": 0.2992125984251969
        },
        {
          "duration": 0.6742187500000014,
          "durationTicks": 863,
          "midi": 55,
          "name": "G3",
          "ticks": 53280,
          "time": 41.625,
          "velocity": 0.1889763779527559
        },
        {
          "duration": 0.6664062500000014,
          "durationTicks": 853,
          "midi": 61,
          "name": "C#4",
          "ticks": 53280,
          "time": 41.625,
          "velocity": 0.15748031496062992
        },
        {
          "duration": 0.6585937499999943,
          "durationTicks": 843,
          "midi": 65,
          "name": "F4",
          "ticks": 53280,
          "time": 41.625,
          "velocity": 0.2047244094488189
        },
        {
          "duration": 0.6976562500000014,
          "durationTicks": 893,
          "midi": 70,
          "name": "A#4",
          "ticks": 53280,
          "time": 41.625,
          "velocity": 0.4409448818897638
        },
        {
          "duration": 0.7445312500000014,
          "durationTicks": 953,
          "midi": 75,
          "name": "D#5",
          "ticks": 53280,
          "time": 41.625,
          "velocity": 0.36220472440944884
        },
        {
          "duration": 0.7164062499999986,
          "durationTicks": 917,
          "midi": 81,
          "name": "A5",
          "ticks": 53280,
          "time": 41.625,
          "velocity": 0.3937007874015748
        },
        {
          "duration": 0.42656250000000284,
          "durationTicks": 546,
          "midi": 53,
          "name": "F3",
          "ticks": 54600,
          "time": 42.65625,
          "velocity": 0.2440944881889764
        },
        {
          "duration": 0.42890624999999716,
          "durationTicks": 549,
          "midi": 57,
          "name": "A3",
          "ticks": 54600,
          "time": 42.65625,
          "velocity": 0.2047244094488189
        },
        {
          "duration": 0.44453124999999716,
          "durationTicks": 569,
          "midi": 60,
          "name": "C4",
          "ticks": 54600,
          "time": 42.65625,
          "velocity": 0.2125984251968504
        },
        {
          "duration": 0.4359374999999943,
          "durationTicks": 558,
          "midi": 64,
          "name": "E4",
          "ticks": 54600,
          "time": 42.65625,
          "velocity": 0.16535433070866143
        },
        {
          "duration": 0.40703124999999574,
          "durationTicks": 521,
          "midi": 69,
          "name": "A4",
          "ticks": 54600,
          "time": 42.65625,
          "velocity": 0.2440944881889764
        },
        {
          "duration": 0.3382812500000014,
          "durationTicks": 433,
          "midi": 74,
          "name": "D5",
          "ticks": 54600,
          "time": 42.65625,
          "velocity": 0.2992125984251969
        },
        {
          "duration": 0.27421875000000284,
          "durationTicks": 351,
          "midi": 77,
          "name": "F5",
          "ticks": 54600,
          "time": 42.65625,
          "velocity": 0.25984251968503935
        },
        {
          "duration": 0.20781249999999574,
          "durationTicks": 266,
          "midi": 79,
          "name": "G5",
          "ticks": 55080,
          "time": 43.03125,
          "velocity": 0.5196850393700787
        },
        {
          "duration": 0.2109375,
          "durationTicks": 270,
          "midi": 53,
          "name": "F3",
          "ticks": 55440,
          "time": 43.3125,
          "velocity": 0.31496062992125984
        },
        {
          "duration": 0.23203125000000568,
          "durationTicks": 297,
          "midi": 57,
          "name": "A3",
          "ticks": 55440,
          "time": 43.3125,
          "velocity": 0.36220472440944884
        },
        {
          "duration": 0.2906250000000057,
          "durationTicks": 372,
          "midi": 60,
          "name": "C4",
          "ticks": 55440,
          "time": 43.3125,
          "velocity": 0.4015748031496063
        },
        {
          "duration": 0.24375000000000568,
          "durationTicks": 312,
          "midi": 64,
          "name": "E4",
          "ticks": 55440,
          "time": 43.3125,
          "velocity": 0.41732283464566927
        },
        {
          "duration": 0.2945312499999986,
          "durationTicks": 377,
          "midi": 69,
          "name": "A4",
          "ticks": 55440,
          "time": 43.3125,
          "velocity": 0.4409448818897638
        },
        {
          "duration": 0.24765624999999858,
          "durationTicks": 317,
          "midi": 77,
          "name": "F5",
          "ticks": 55440,
          "time": 43.3125,
          "velocity": 0.5039370078740157
        },
        {
          "duration": 0.07109375000000284,
          "durationTicks": 91,
          "midi": 74,
          "name": "D5",
          "ticks": 55800,
          "time": 43.59375,
          "velocity": 0.5039370078740157
        },
        {
          "duration": 0.3882812499999986,
          "durationTicks": 497,
          "midi": 58,
          "name": "A#3",
          "ticks": 56160,
          "time": 43.875,
          "velocity": 0.3700787401574803
        },
        {
          "duration": 0.3882812499999986,
          "durationTicks": 497,
          "midi": 63,
          "name": "D#4",
          "ticks": 56160,
          "time": 43.875,
          "velocity": 0.36220472440944884
        },
        {
          "duration": 0.36796875000000284,
          "durationTicks": 471,
          "midi": 67,
          "name": "G4",
          "ticks": 56160,
          "time": 43.875,
          "velocity": 0.5275590551181102
        },
        {
          "duration": 0.3515625,
          "durationTicks": 450,
          "midi": 70,
          "name": "A#4",
          "ticks": 56160,
          "time": 43.875,
          "velocity": 0.5354330708661418
        },
        {
          "duration": 0.25078125000000284,
          "durationTicks": 321,
          "midi": 77,
          "name": "F5",
          "ticks": 56160,
          "time": 43.875,
          "velocity": 0.47244094488188976
        },
        {
          "duration": 0.13749999999999574,
          "durationTicks": 176,
          "midi": 75,
          "name": "D#5",
          "ticks": 56520,
          "time": 44.15625,
          "velocity": 0.48031496062992124
        },
        {
          "duration": 0.24375000000000568,
          "durationTicks": 312,
          "midi": 57,
          "name": "A3",
          "ticks": 56880,
          "time": 44.4375,
          "velocity": 0.4409448818897638
        },
        {
          "duration": 0.30078125,
          "durationTicks": 385,
          "midi": 63,
          "name": "D#4",
          "ticks": 56880,
          "time": 44.4375,
          "velocity": 0.28346456692913385
        },
        {
          "duration": 0.34687499999999716,
          "durationTicks": 444,
          "midi": 66,
          "name": "F#4",
          "ticks": 56880,
          "time": 44.4375,
          "velocity": 0.33070866141732286
        },
        {
          "duration": 0.29765625000000284,
          "durationTicks": 381,
          "midi": 69,
          "name": "A4",
          "ticks": 56880,
          "time": 44.4375,
          "velocity": 0.5039370078740157
        },
        {
          "duration": 0.30937500000000284,
          "durationTicks": 396,
          "midi": 74,
          "name": "D5",
          "ticks": 56880,
          "time": 44.4375,
          "velocity": 0.5196850393700787
        },
        {
          "duration": 0.2749999999999986,
          "durationTicks": 352,
          "midi": 72,
          "name": "C5",
          "ticks": 57240,
          "time": 44.71875,
          "velocity": 0.4566929133858268
        },
        {
          "duration": 0.5,
          "durationTicks": 640,
          "midi": 57,
          "name": "A3",
          "ticks": 57600,
          "time": 45,
          "velocity": 0.2047244094488189
        },
        {
          "duration": 0.4820312499999986,
          "durationTicks": 617,
          "midi": 62,
          "name": "D4",
          "ticks": 57600,
          "time": 45,
          "velocity": 0.16535433070866143
        },
        {
          "duration": 0.5835937500000057,
          "durationTicks": 747,
          "midi": 65,
          "name": "F4",
          "ticks": 57600,
          "time": 45,
          "velocity": 0.36220472440944884
        },
        {
          "duration": 0.5562499999999986,
          "durationTicks": 712,
          "midi": 69,
          "name": "A4",
          "ticks": 57600,
          "time": 45,
          "velocity": 0.36220472440944884
        },
        {
          "duration": 0.16562499999999858,
          "durationTicks": 212,
          "midi": 45,
          "name": "A2",
          "ticks": 59880,
          "time": 46.78125,
          "velocity": 0.25196850393700787
        },
        {
          "duration": 0.18281249999999716,
          "durationTicks": 234,
          "midi": 49,
          "name": "C#3",
          "ticks": 59880,
          "time": 46.78125,
          "velocity": 0.2677165354330709
        },
        {
          "duration": 0.21328124999999432,
          "durationTicks": 273,
          "midi": 55,
          "name": "G3",
          "ticks": 59880,
          "time": 46.78125,
          "velocity": 0.33858267716535434
        },
        {
          "duration": 0.4078125000000057,
          "durationTicks": 522,
          "midi": 58,
          "name": "A#3",
          "ticks": 59880,
          "time": 46.78125,
          "velocity": 0.4409448818897638
        },
        {
          "duration": 0.40937499999999716,
          "durationTicks": 524,
          "midi": 63,
          "name": "D#4",
          "ticks": 59880,
          "time": 46.78125,
          "velocity": 0.4566929133858268
        },
        {
          "duration": 0.37031249999999716,
          "durationTicks": 474,
          "midi": 67,
          "name": "G4",
          "ticks": 59880,
          "time": 46.78125,
          "velocity": 0.5039370078740157
        },
        {
          "duration": 0.4320312500000014,
          "durationTicks": 553,
          "midi": 50,
          "name": "D3",
          "ticks": 60600,
          "time": 47.34375,
          "velocity": 0.2125984251968504
        },
        {
          "duration": 0.4710937499999943,
          "durationTicks": 603,
          "midi": 53,
          "name": "F3",
          "ticks": 60600,
          "time": 47.34375,
          "velocity": 0.1968503937007874
        },
        {
          "duration": 0.44609375000000284,
          "durationTicks": 571,
          "midi": 57,
          "name": "A3",
          "ticks": 60600,
          "time": 47.34375,
          "velocity": 0.25196850393700787
        },
        {
          "duration": 0.5023437500000014,
          "durationTicks": 643,
          "midi": 62,
          "name": "D4",
          "ticks": 60600,
          "time": 47.34375,
          "velocity": 0.3543307086614173
        },
        {
          "duration": 0.5210937499999986,
          "durationTicks": 667,
          "midi": 65,
          "name": "F4",
          "ticks": 60600,
          "time": 47.34375,
          "velocity": 0.33858267716535434
        },
        {
          "duration": 0.4593749999999943,
          "durationTicks": 588,
          "midi": 52,
          "name": "E3",
          "ticks": 61920,
          "time": 48.375,
          "velocity": 0.23622047244094488
        },
        {
          "duration": 0.47343749999999574,
          "durationTicks": 606,
          "midi": 56,
          "name": "G#3",
          "ticks": 61920,
          "time": 48.375,
          "velocity": 0.16535433070866143
        },
        {
          "duration": 0.46796874999999716,
          "durationTicks": 599,
          "midi": 62,
          "name": "D4",
          "ticks": 61920,
          "time": 48.375,
          "velocity": 0.16535433070866143
        },
        {
          "duration": 0.45234375000000426,
          "durationTicks": 579,
          "midi": 65,
          "name": "F4",
          "ticks": 61920,
          "time": 48.375,
          "velocity": 0.2755905511811024
        },
        {
          "duration": 0.46406250000000426,
          "durationTicks": 594,
          "midi": 68,
          "name": "G#4",
          "ticks": 61920,
          "time": 48.375,
          "velocity": 0.31496062992125984
        },
        {
          "duration": 0.46015624999999716,
          "durationTicks": 589,
          "midi": 71,
          "name": "B4",
          "ticks": 61920,
          "time": 48.375,
          "velocity": 0.4015748031496063
        },
        {
          "duration": 0.5054687499999986,
          "durationTicks": 647,
          "midi": 76,
          "name": "E5",
          "ticks": 61920,
          "time": 48.375,
          "velocity": 0.31496062992125984
        },
        {
          "duration": 0.46875,
          "durationTicks": 600,
          "midi": 72,
          "name": "C5",
          "ticks": 63600,
          "time": 49.6875,
          "velocity": 0.2204724409448819
        },
        {
          "duration": 0.32890625000000284,
          "durationTicks": 421,
          "midi": 55,
          "name": "G3",
          "ticks": 64080,
          "time": 50.0625,
          "velocity": 0.15748031496062992
        },
        {
          "duration": 0.34296874999999716,
          "durationTicks": 439,
          "midi": 59,
          "name": "B3",
          "ticks": 64080,
          "time": 50.0625,
          "velocity": 0.18110236220472442
        },
        {
          "duration": 0.3671875,
          "durationTicks": 470,
          "midi": 60,
          "name": "C4",
          "ticks": 64080,
          "time": 50.0625,
          "velocity": 0.1732283464566929
        },
        {
          "duration": 0.36249999999999716,
          "durationTicks": 464,
          "midi": 64,
          "name": "E4",
          "ticks": 64080,
          "time": 50.0625,
          "velocity": 0.08661417322834646
        },
        {
          "duration": 0.2734375,
          "durationTicks": 350,
          "midi": 84,
          "name": "C6",
          "ticks": 64080,
          "time": 50.0625,
          "velocity": 0.33858267716535434
        },
        {
          "duration": 0.31640625,
          "durationTicks": 405,
          "midi": 72,
          "name": "C5",
          "ticks": 64440,
          "time": 50.34375,
          "velocity": 0.2440944881889764
        },
        {
          "duration": 0.34453124999999574,
          "durationTicks": 441,
          "midi": 84,
          "name": "C6",
          "ticks": 64800,
          "time": 50.625,
          "velocity": 0.3543307086614173
        },
        {
          "duration": 0.4124999999999943,
          "durationTicks": 528,
          "midi": 72,
          "name": "C5",
          "ticks": 65160,
          "time": 50.90625,
          "velocity": 0.2755905511811024
        },
        {
          "duration": 0.3453124999999915,
          "durationTicks": 442,
          "midi": 54,
          "name": "F#3",
          "ticks": 65520,
          "time": 51.1875,
          "velocity": 0.1732283464566929
        },
        {
          "duration": 0.35234375000000284,
          "durationTicks": 451,
          "midi": 58,
          "name": "A#3",
          "ticks": 65520,
          "time": 51.1875,
          "velocity": 0.1889763779527559
        },
        {
          "duration": 0.3765624999999986,
          "durationTicks": 482,
          "midi": 60,
          "name": "C4",
          "ticks": 65520,
          "time": 51.1875,
          "velocity": 0.2283464566929134
        },
        {
          "duration": 0.34375,
          "durationTicks": 440,
          "midi": 65,
          "name": "F4",
          "ticks": 65520,
          "time": 51.1875,
          "velocity": 0.1732283464566929
        },
        {
          "duration": 0.3492187500000057,
          "durationTicks": 447,
          "midi": 84,
          "name": "C6",
          "ticks": 65520,
          "time": 51.1875,
          "velocity": 0.3543307086614173
        },
        {
          "duration": 0.921875,
          "durationTicks": 1180,
          "midi": 72,
          "name": "C5",
          "ticks": 65880,
          "time": 51.46875,
          "velocity": 0.28346456692913385
        },
        {
          "duration": 0.7984374999999986,
          "durationTicks": 1022,
          "midi": 53,
          "name": "F3",
          "ticks": 66240,
          "time": 51.75,
          "velocity": 0.14173228346456693
        },
        {
          "duration": 0.8312499999999972,
          "durationTicks": 1064,
          "midi": 57,
          "name": "A3",
          "ticks": 66240,
          "time": 51.75,
          "velocity": 0.10236220472440945
        },
        {
          "duration": 0.8515625,
          "durationTicks": 1090,
          "midi": 58,
          "name": "A#3",
          "ticks": 66240,
          "time": 51.75,
          "velocity": 0.03937007874015748
        },
        {
          "duration": 0.87109375,
          "durationTicks": 1115,
          "midi": 62,
          "name": "D4",
          "ticks": 66240,
          "time": 51.75,
          "velocity": 0.2283464566929134
        },
        {
          "duration": 0.34453124999999574,
          "durationTicks": 441,
          "midi": 84,
          "name": "C6",
          "ticks": 66240,
          "time": 51.75,
          "velocity": 0.3937007874015748
        },
        {
          "duration": 0.2632812499999915,
          "durationTicks": 337,
          "midi": 82,
          "name": "A#5",
          "ticks": 66600,
          "time": 52.03125,
          "velocity": 0.2992125984251969
        },
        {
          "duration": 0.23749999999999716,
          "durationTicks": 304,
          "midi": 81,
          "name": "A5",
          "ticks": 67080,
          "time": 52.40625,
          "velocity": 0.29133858267716534
        },
        {
          "duration": 0.26953125,
          "durationTicks": 345,
          "midi": 79,
          "name": "G5",
          "ticks": 67320,
          "time": 52.59375,
          "velocity": 0.4330708661417323
        },
        {
          "duration": 0.12578125000000284,
          "durationTicks": 161,
          "midi": 80,
          "name": "G#5",
          "ticks": 67680,
          "time": 52.875,
          "velocity": 0.2992125984251969
        },
        {
          "duration": 0.17031250000000853,
          "durationTicks": 218,
          "midi": 81,
          "name": "A5",
          "ticks": 67800,
          "time": 52.96875,
          "velocity": 0.31496062992125984
        },
        {
          "duration": 0.053125000000008527,
          "durationTicks": 68,
          "midi": 52,
          "name": "E3",
          "ticks": 67920,
          "time": 53.0625,
          "velocity": 0.031496062992125984
        },
        {
          "duration": 0.08281250000000284,
          "durationTicks": 106,
          "midi": 58,
          "name": "A#3",
          "ticks": 67920,
          "time": 53.0625,
          "velocity": 0.03937007874015748
        },
        {
          "duration": 0.12890625,
          "durationTicks": 165,
          "midi": 80,
          "name": "G#5",
          "ticks": 67920,
          "time": 53.0625,
          "velocity": 0.25196850393700787
        },
        {
          "duration": 0.234375,
          "durationTicks": 300,
          "midi": 76,
          "name": "E5",
          "ticks": 68040,
          "time": 53.15625,
          "velocity": 0.2047244094488189
        },
        {
          "duration": 0.09531249999999858,
          "durationTicks": 122,
          "midi": 52,
          "name": "E3",
          "ticks": 68400,
          "time": 53.4375,
          "velocity": 0.1968503937007874
        },
        {
          "duration": 0.13046874999999858,
          "durationTicks": 167,
          "midi": 58,
          "name": "A#3",
          "ticks": 68400,
          "time": 53.4375,
          "velocity": 0.13385826771653545
        },
        {
          "duration": 0.11953124999999432,
          "durationTicks": 153,
          "midi": 63,
          "name": "D#4",
          "ticks": 68400,
          "time": 53.4375,
          "velocity": 0.07874015748031496
        },
        {
          "duration": 0.2890625,
          "durationTicks": 370,
          "midi": 75,
          "name": "D#5",
          "ticks": 68400,
          "time": 53.4375,
          "velocity": 0.1968503937007874
        },
        {
          "duration": 0.3187499999999943,
          "durationTicks": 408,
          "midi": 73,
          "name": "C#5",
          "ticks": 68760,
          "time": 53.71875,
          "velocity": 0.2204724409448819
        },
        {
          "duration": 0.6953125,
          "durationTicks": 890,
          "midi": 53,
          "name": "F3",
          "ticks": 69000,
          "time": 53.90625,
          "velocity": 0.18110236220472442
        },
        {
          "duration": 0.69140625,
          "durationTicks": 885,
          "midi": 57,
          "name": "A3",
          "ticks": 69000,
          "time": 53.90625,
          "velocity": 0.25984251968503935
        },
        {
          "duration": 0.6851562499999915,
          "durationTicks": 877,
          "midi": 60,
          "name": "C4",
          "ticks": 69000,
          "time": 53.90625,
          "velocity": 0.25196850393700787
        },
        {
          "duration": 0.6437499999999972,
          "durationTicks": 824,
          "midi": 64,
          "name": "E4",
          "ticks": 69000,
          "time": 53.90625,
          "velocity": 0.14960629921259844
        },
        {
          "duration": 0.6750000000000043,
          "durationTicks": 864,
          "midi": 72,
          "name": "C5",
          "ticks": 69000,
          "time": 53.90625,
          "velocity": 0.2125984251968504
        },
        {
          "duration": 0.62890625,
          "durationTicks": 805,
          "midi": 50,
          "name": "D3",
          "ticks": 70560,
          "time": 55.125,
          "velocity": 0.14960629921259844
        },
        {
          "duration": 0.6382812499999915,
          "durationTicks": 817,
          "midi": 57,
          "name": "A3",
          "ticks": 70560,
          "time": 55.125,
          "velocity": 0.12598425196850394
        },
        {
          "duration": 0.3734375000000014,
          "durationTicks": 478,
          "midi": 72,
          "name": "C5",
          "ticks": 70560,
          "time": 55.125,
          "velocity": 0.2125984251968504
        },
        {
          "duration": 0.4078125000000057,
          "durationTicks": 522,
          "midi": 77,
          "name": "F5",
          "ticks": 70560,
          "time": 55.125,
          "velocity": 0.2047244094488189
        },
        {
          "duration": 0.20781250000000284,
          "durationTicks": 266,
          "midi": 79,
          "name": "G5",
          "ticks": 71400,
          "time": 55.78125,
          "velocity": 0.25984251968503935
        },
        {
          "duration": 0.22109375000000142,
          "durationTicks": 283,
          "midi": 80,
          "name": "G#5",
          "ticks": 71640,
          "time": 55.96875,
          "velocity": 0.12598425196850394
        },
        {
          "duration": 0.11171875000000853,
          "durationTicks": 143,
          "midi": 81,
          "name": "A5",
          "ticks": 71760,
          "time": 56.0625,
          "velocity": 0.2204724409448819
        },
        {
          "duration": 0.11250000000000426,
          "durationTicks": 144,
          "midi": 84,
          "name": "C6",
          "ticks": 71880,
          "time": 56.15625,
          "velocity": 0.44881889763779526
        },
        {
          "duration": 0.7874999999999943,
          "durationTicks": 1008,
          "midi": 53,
          "name": "F3",
          "ticks": 72120,
          "time": 56.34375,
          "velocity": 0.047244094488188976
        },
        {
          "duration": 0.7703125000000028,
          "durationTicks": 986,
          "midi": 57,
          "name": "A3",
          "ticks": 72120,
          "time": 56.34375,
          "velocity": 0.16535433070866143
        },
        {
          "duration": 0.8125,
          "durationTicks": 1040,
          "midi": 58,
          "name": "A#3",
          "ticks": 72120,
          "time": 56.34375,
          "velocity": 0.11811023622047244
        },
        {
          "duration": 0.8078124999999972,
          "durationTicks": 1034,
          "midi": 62,
          "name": "D4",
          "ticks": 72120,
          "time": 56.34375,
          "velocity": 0.10236220472440945
        },
        {
          "duration": 0.6648437500000028,
          "durationTicks": 851,
          "midi": 82,
          "name": "A#5",
          "ticks": 72120,
          "time": 56.34375,
          "velocity": 0.4094488188976378
        },
        {
          "duration": 0.17031250000000853,
          "durationTicks": 218,
          "midi": 70,
          "name": "A#4",
          "ticks": 72840,
          "time": 56.90625,
          "velocity": 0.3228346456692913
        },
        {
          "duration": 0.5726562500000014,
          "durationTicks": 733,
          "midi": 56,
          "name": "G#3",
          "ticks": 73440,
          "time": 57.375,
          "velocity": 0.2125984251968504
        },
        {
          "duration": 0.5460937500000043,
          "durationTicks": 699,
          "midi": 62,
          "name": "D4",
          "ticks": 73440,
          "time": 57.375,
          "velocity": 0.2125984251968504
        },
        {
          "duration": 0.4765625,
          "durationTicks": 610,
          "midi": 65,
          "name": "F4",
          "ticks": 73440,
          "time": 57.375,
          "velocity": 0.2992125984251969
        },
        {
          "duration": 0.4921875,
          "durationTicks": 630,
          "midi": 68,
          "name": "G#4",
          "ticks": 73440,
          "time": 57.375,
          "velocity": 0.2204724409448819
        },
        {
          "duration": 0.48828125,
          "durationTicks": 625,
          "midi": 71,
          "name": "B4",
          "ticks": 73440,
          "time": 57.375,
          "velocity": 0.3543307086614173
        },
        {
          "duration": 0.54296875,
          "durationTicks": 695,
          "midi": 76,
          "name": "E5",
          "ticks": 73440,
          "time": 57.375,
          "velocity": 0.3779527559055118
        },
        {
          "duration": 0.11796875000000284,
          "durationTicks": 151,
          "midi": 78,
          "name": "F#5",
          "ticks": 74520,
          "time": 58.21875,
          "velocity": 0.15748031496062992
        },
        {
          "duration": 0.09921874999999147,
          "durationTicks": 127,
          "midi": 79,
          "name": "G5",
          "ticks": 74640,
          "time": 58.3125,
          "velocity": 0.29133858267716534
        },
        {
          "duration": 0.17265625000000284,
          "durationTicks": 221,
          "midi": 80,
          "name": "G#5",
          "ticks": 74640,
          "time": 58.3125,
          "velocity": 0.3700787401574803
        },
        {
          "duration": 0.75390625,
          "durationTicks": 965,
          "midi": 81,
          "name": "A5",
          "ticks": 74880,
          "time": 58.5,
          "velocity": 0.44881889763779526
        },
        {
          "duration": 0.5281250000000028,
          "durationTicks": 676,
          "midi": 49,
          "name": "C#3",
          "ticks": 75240,
          "time": 58.78125,
          "velocity": 0.2204724409448819
        },
        {
          "duration": 0.4859374999999915,
          "durationTicks": 622,
          "midi": 61,
          "name": "C#4",
          "ticks": 75240,
          "time": 58.78125,
          "velocity": 0.2204724409448819
        },
        {
          "duration": 0.5437499999999957,
          "durationTicks": 696,
          "midi": 67,
          "name": "G4",
          "ticks": 75240,
          "time": 58.78125,
          "velocity": 0.33858267716535434
        },
        {
          "duration": 0.5531249999999943,
          "durationTicks": 708,
          "midi": 73,
          "name": "C#5",
          "ticks": 75240,
          "time": 58.78125,
          "velocity": 0.4094488188976378
        },
        {
          "duration": 0.5132812500000057,
          "durationTicks": 657,
          "midi": 78,
          "name": "F#5",
          "ticks": 75240,
          "time": 58.78125,
          "velocity": 0.33858267716535434
        },
        {
          "duration": 0.22187499999999716,
          "durationTicks": 284,
          "midi": 48,
          "name": "C3",
          "ticks": 77160,
          "time": 60.28125,
          "velocity": 0.1968503937007874
        },
        {
          "duration": 0.1953125,
          "durationTicks": 250,
          "midi": 60,
          "name": "C4",
          "ticks": 77160,
          "time": 60.28125,
          "velocity": 0.1889763779527559
        },
        {
          "duration": 0.22578124999999716,
          "durationTicks": 289,
          "midi": 66,
          "name": "F#4",
          "ticks": 77160,
          "time": 60.28125,
          "velocity": 0.31496062992125984
        },
        {
          "duration": 0.24453125000000142,
          "durationTicks": 313,
          "midi": 72,
          "name": "C5",
          "ticks": 77160,
          "time": 60.28125,
          "velocity": 0.4330708661417323
        },
        {
          "duration": 0.2749999999999915,
          "durationTicks": 352,
          "midi": 74,
          "name": "D5",
          "ticks": 77160,
          "time": 60.28125,
          "velocity": 0.47244094488188976
        },
        {
          "duration": 0.6437499999999972,
          "durationTicks": 824,
          "midi": 47,
          "name": "B2",
          "ticks": 77760,
          "time": 60.75,
          "velocity": 0.047244094488188976
        },
        {
          "duration": 0.6570312500000028,
          "durationTicks": 841,
          "midi": 59,
          "name": "B3",
          "ticks": 77760,
          "time": 60.75,
          "velocity": 0.13385826771653545
        },
        {
          "duration": 0.6781250000000014,
          "durationTicks": 868,
          "midi": 65,
          "name": "F4",
          "ticks": 77760,
          "time": 60.75,
          "velocity": 0.15748031496062992
        },
        {
          "duration": 0.66015625,
          "durationTicks": 845,
          "midi": 71,
          "name": "B4",
          "ticks": 77760,
          "time": 60.75,
          "velocity": 0.3543307086614173
        },
        {
          "duration": 0.6609374999999957,
          "durationTicks": 846,
          "midi": 76,
          "name": "E5",
          "ticks": 77760,
          "time": 60.75,
          "velocity": 0.4015748031496063
        },
        {
          "duration": 0.62890625,
          "durationTicks": 805,
          "midi": 79,
          "name": "G5",
          "ticks": 77760,
          "time": 60.75,
          "velocity": 0.2047244094488189
        },
        {
          "duration": 0.49296875000000284,
          "durationTicks": 631,
          "midi": 48,
          "name": "C3",
          "ticks": 79200,
          "time": 61.875,
          "velocity": 0.11811023622047244
        },
        {
          "duration": 0.49296875000000284,
          "durationTicks": 631,
          "midi": 52,
          "name": "E3",
          "ticks": 79200,
          "time": 61.875,
          "velocity": 0.29133858267716534
        },
        {
          "duration": 0.5375000000000014,
          "durationTicks": 688,
          "midi": 58,
          "name": "A#3",
          "ticks": 79200,
          "time": 61.875,
          "velocity": 0.1732283464566929
        },
        {
          "duration": 0.5078125,
          "durationTicks": 650,
          "midi": 61,
          "name": "C#4",
          "ticks": 79200,
          "time": 61.875,
          "velocity": 0.2440944881889764
        },
        {
          "duration": 0.5289062499999986,
          "durationTicks": 677,
          "midi": 64,
          "name": "E4",
          "ticks": 79200,
          "time": 61.875,
          "velocity": 0.3543307086614173
        },
        {
          "duration": 0.5390625,
          "durationTicks": 690,
          "midi": 67,
          "name": "G4",
          "ticks": 79200,
          "time": 61.875,
          "velocity": 0.3937007874015748
        },
        {
          "duration": 0.09296874999999716,
          "durationTicks": 119,
          "midi": 57,
          "name": "A3",
          "ticks": 81000,
          "time": 63.28125,
          "velocity": 0.3779527559055118
        },
        {
          "duration": 0.08203125,
          "durationTicks": 105,
          "midi": 62,
          "name": "D4",
          "ticks": 81000,
          "time": 63.28125,
          "velocity": 0.3228346456692913
        },
        {
          "duration": 0.09765625,
          "durationTicks": 125,
          "midi": 67,
          "name": "G4",
          "ticks": 81000,
          "time": 63.28125,
          "velocity": 0.2755905511811024
        },
        {
          "duration": 0.08906250000000426,
          "durationTicks": 114,
          "midi": 72,
          "name": "C5",
          "ticks": 81000,
          "time": 63.28125,
          "velocity": 0.3543307086614173
        },
        {
          "duration": 0.08046875000000142,
          "durationTicks": 103,
          "midi": 77,
          "name": "F5",
          "ticks": 81000,
          "time": 63.28125,
          "velocity": 0.3543307086614173
        },
        {
          "duration": 0.08515624999999716,
          "durationTicks": 109,
          "midi": 81,
          "name": "A5",
          "ticks": 81000,
          "time": 63.28125,
          "velocity": 0.41732283464566927
        },
        {
          "duration": 0.19375000000000853,
          "durationTicks": 248,
          "midi": 55,
          "name": "G3",
          "ticks": 81480,
          "time": 63.65625,
          "velocity": 0.2204724409448819
        },
        {
          "duration": 0.21640624999999147,
          "durationTicks": 277,
          "midi": 60,
          "name": "C4",
          "ticks": 81480,
          "time": 63.65625,
          "velocity": 0.2047244094488189
        },
        {
          "duration": 0.203125,
          "durationTicks": 260,
          "midi": 65,
          "name": "F4",
          "ticks": 81480,
          "time": 63.65625,
          "velocity": 0.1732283464566929
        },
        {
          "duration": 0.22499999999999432,
          "durationTicks": 288,
          "midi": 69,
          "name": "A4",
          "ticks": 81480,
          "time": 63.65625,
          "velocity": 0.2440944881889764
        },
        {
          "duration": 0.18359375,
          "durationTicks": 235,
          "midi": 72,
          "name": "C5",
          "ticks": 81480,
          "time": 63.65625,
          "velocity": 0.33070866141732286
        },
        {
          "duration": 0.21718750000000853,
          "durationTicks": 278,
          "midi": 77,
          "name": "F5",
          "ticks": 81480,
          "time": 63.65625,
          "velocity": 0.28346456692913385
        },
        {
          "duration": 0.7726562499999972,
          "durationTicks": 989,
          "midi": 57,
          "name": "A3",
          "ticks": 82080,
          "time": 64.125,
          "velocity": 0.2125984251968504
        },
        {
          "duration": 0.7328125000000085,
          "durationTicks": 938,
          "midi": 62,
          "name": "D4",
          "ticks": 82080,
          "time": 64.125,
          "velocity": 0.14173228346456693
        },
        {
          "duration": 0.8039062500000114,
          "durationTicks": 1029,
          "midi": 67,
          "name": "G4",
          "ticks": 82080,
          "time": 64.125,
          "velocity": 0.2283464566929134
        },
        {
          "duration": 0.83203125,
          "durationTicks": 1065,
          "midi": 69,
          "name": "A4",
          "ticks": 82080,
          "time": 64.125,
          "velocity": 0.31496062992125984
        },
        {
          "duration": 0.8445312500000028,
          "durationTicks": 1081,
          "midi": 72,
          "name": "C5",
          "ticks": 82080,
          "time": 64.125,
          "velocity": 0.33858267716535434
        },
        {
          "duration": 0.1875,
          "durationTicks": 240,
          "midi": 57,
          "name": "A3",
          "ticks": 84360,
          "time": 65.90625,
          "velocity": 0.2755905511811024
        },
        {
          "duration": 0.19687500000000568,
          "durationTicks": 252,
          "midi": 62,
          "name": "D4",
          "ticks": 84360,
          "time": 65.90625,
          "velocity": 0.2677165354330709
        },
        {
          "duration": 0.21406249999999716,
          "durationTicks": 274,
          "midi": 67,
          "name": "G4",
          "ticks": 84360,
          "time": 65.90625,
          "velocity": 0.2204724409448819
        },
        {
          "duration": 0.21406249999999716,
          "durationTicks": 274,
          "midi": 70,
          "name": "A#4",
          "ticks": 84360,
          "time": 65.90625,
          "velocity": 0.33858267716535434
        },
        {
          "duration": 0.21484375,
          "durationTicks": 275,
          "midi": 77,
          "name": "F5",
          "ticks": 84360,
          "time": 65.90625,
          "velocity": 0.48031496062992124
        },
        {
          "duration": 0.27421874999998863,
          "durationTicks": 351,
          "midi": 82,
          "name": "A#5",
          "ticks": 84360,
          "time": 65.90625,
          "velocity": 0.44881889763779526
        },
        {
          "duration": 0.5960937499999943,
          "durationTicks": 763,
          "midi": 55,
          "name": "G3",
          "ticks": 84960,
          "time": 66.375,
          "velocity": 0.28346456692913385
        },
        {
          "duration": 0.6148437499999915,
          "durationTicks": 787,
          "midi": 60,
          "name": "C4",
          "ticks": 84960,
          "time": 66.375,
          "velocity": 0.23622047244094488
        },
        {
          "duration": 0.6570312500000028,
          "durationTicks": 841,
          "midi": 61,
          "name": "C#4",
          "ticks": 84960,
          "time": 66.375,
          "velocity": 0.25984251968503935
        },
        {
          "duration": 0.6156250000000085,
          "durationTicks": 788,
          "midi": 65,
          "name": "F4",
          "ticks": 84960,
          "time": 66.375,
          "velocity": 0.2677165354330709
        },
        {
          "duration": 0.5999999999999943,
          "durationTicks": 768,
          "midi": 72,
          "name": "C5",
          "ticks": 84960,
          "time": 66.375,
          "velocity": 0.4409448818897638
        },
        {
          "duration": 0.6140624999999886,
          "durationTicks": 786,
          "midi": 77,
          "name": "F5",
          "ticks": 84960,
          "time": 66.375,
          "velocity": 0.48031496062992124
        },
        {
          "duration": 0.6546874999999943,
          "durationTicks": 838,
          "midi": 81,
          "name": "A5",
          "ticks": 84960,
          "time": 66.375,
          "velocity": 0.5039370078740157
        },
        {
          "duration": 0.18671874999999716,
          "durationTicks": 239,
          "midi": 55,
          "name": "G3",
          "ticks": 87240,
          "time": 68.15625,
          "velocity": 0.2125984251968504
        },
        {
          "duration": 0.18281250000001137,
          "durationTicks": 234,
          "midi": 59,
          "name": "B3",
          "ticks": 87240,
          "time": 68.15625,
          "velocity": 0.2125984251968504
        },
        {
          "duration": 0.19140625,
          "durationTicks": 245,
          "midi": 60,
          "name": "C4",
          "ticks": 87240,
          "time": 68.15625,
          "velocity": 0.1889763779527559
        },
        {
          "duration": 0.19765624999999432,
          "durationTicks": 253,
          "midi": 64,
          "name": "E4",
          "ticks": 87240,
          "time": 68.15625,
          "velocity": 0.14960629921259844
        },
        {
          "duration": 0.2109375,
          "durationTicks": 270,
          "midi": 74,
          "name": "D5",
          "ticks": 87240,
          "time": 68.15625,
          "velocity": 0.2047244094488189
        },
        {
          "duration": 0.21406249999999716,
          "durationTicks": 274,
          "midi": 79,
          "name": "G5",
          "ticks": 87240,
          "time": 68.15625,
          "velocity": 0.36220472440944884
        },
        {
          "duration": 0.22578124999999716,
          "durationTicks": 289,
          "midi": 83,
          "name": "B5",
          "ticks": 87240,
          "time": 68.15625,
          "velocity": 0.36220472440944884
        },
        {
          "duration": 0.24687500000000284,
          "durationTicks": 316,
          "midi": 86,
          "name": "D6",
          "ticks": 87240,
          "time": 68.15625,
          "velocity": 0.2992125984251969
        },
        {
          "duration": 0.21171875000000284,
          "durationTicks": 271,
          "midi": 55,
          "name": "G3",
          "ticks": 87840,
          "time": 68.625,
          "velocity": 0.3543307086614173
        },
        {
          "duration": 0.22265625,
          "durationTicks": 285,
          "midi": 59,
          "name": "B3",
          "ticks": 87840,
          "time": 68.625,
          "velocity": 0.3937007874015748
        },
        {
          "duration": 0.22812499999999147,
          "durationTicks": 292,
          "midi": 60,
          "name": "C4",
          "ticks": 87840,
          "time": 68.625,
          "velocity": 0.36220472440944884
        },
        {
          "duration": 0.22890625000000853,
          "durationTicks": 293,
          "midi": 64,
          "name": "E4",
          "ticks": 87840,
          "time": 68.625,
          "velocity": 0.1968503937007874
        },
        {
          "duration": 0.23906249999998863,
          "durationTicks": 306,
          "midi": 74,
          "name": "D5",
          "ticks": 87840,
          "time": 68.625,
          "velocity": 0.3543307086614173
        },
        {
          "duration": 0.22734374999998863,
          "durationTicks": 291,
          "midi": 79,
          "name": "G5",
          "ticks": 87840,
          "time": 68.625,
          "velocity": 0.4330708661417323
        },
        {
          "duration": 0.22734374999998863,
          "durationTicks": 291,
          "midi": 83,
          "name": "B5",
          "ticks": 87840,
          "time": 68.625,
          "velocity": 0.4566929133858268
        },
        {
          "duration": 0.22578124999999716,
          "durationTicks": 289,
          "midi": 86,
          "name": "D6",
          "ticks": 87840,
          "time": 68.625,
          "velocity": 0.4330708661417323
        },
        {
          "duration": 0.11953124999999432,
          "durationTicks": 153,
          "midi": 55,
          "name": "G3",
          "ticks": 88200,
          "time": 68.90625,
          "velocity": 0.2125984251968504
        },
        {
          "duration": 0.12187499999998863,
          "durationTicks": 156,
          "midi": 59,
          "name": "B3",
          "ticks": 88200,
          "time": 68.90625,
          "velocity": 0.2204724409448819
        },
        {
          "duration": 0.12812499999999716,
          "durationTicks": 164,
          "midi": 60,
          "name": "C4",
          "ticks": 88200,
          "time": 68.90625,
          "velocity": 0.2047244094488189
        },
        {
          "duration": 0.11640624999999716,
          "durationTicks": 149,
          "midi": 64,
          "name": "E4",
          "ticks": 88200,
          "time": 68.90625,
          "velocity": 0.2047244094488189
        },
        {
          "duration": 0.13203124999999716,
          "durationTicks": 169,
          "midi": 74,
          "name": "D5",
          "ticks": 88200,
          "time": 68.90625,
          "velocity": 0.18110236220472442
        },
        {
          "duration": 0.16328124999999716,
          "durationTicks": 209,
          "midi": 79,
          "name": "G5",
          "ticks": 88200,
          "time": 68.90625,
          "velocity": 0.36220472440944884
        },
        {
          "duration": 0.16953124999999147,
          "durationTicks": 217,
          "midi": 83,
          "name": "B5",
          "ticks": 88200,
          "time": 68.90625,
          "velocity": 0.4330708661417323
        },
        {
          "duration": 0.19687500000000568,
          "durationTicks": 252,
          "midi": 86,
          "name": "D6",
          "ticks": 88200,
          "time": 68.90625,
          "velocity": 0.36220472440944884
        },
        {
          "duration": 0.19218749999998863,
          "durationTicks": 246,
          "midi": 55,
          "name": "G3",
          "ticks": 88680,
          "time": 69.28125,
          "velocity": 0.3779527559055118
        },
        {
          "duration": 0.1953125,
          "durationTicks": 250,
          "midi": 59,
          "name": "B3",
          "ticks": 88680,
          "time": 69.28125,
          "velocity": 0.3543307086614173
        },
        {
          "duration": 0.20078125000000568,
          "durationTicks": 257,
          "midi": 60,
          "name": "C4",
          "ticks": 88680,
          "time": 69.28125,
          "velocity": 0.3228346456692913
        },
        {
          "duration": 0.23203125000000568,
          "durationTicks": 297,
          "midi": 64,
          "name": "E4",
          "ticks": 88680,
          "time": 69.28125,
          "velocity": 0.36220472440944884
        },
        {
          "duration": 0.18906250000000568,
          "durationTicks": 242,
          "midi": 74,
          "name": "D5",
          "ticks": 88680,
          "time": 69.28125,
          "velocity": 0.44881889763779526
        },
        {
          "duration": 0.23593750000000568,
          "durationTicks": 302,
          "midi": 79,
          "name": "G5",
          "ticks": 88680,
          "time": 69.28125,
          "velocity": 0.5039370078740157
        },
        {
          "duration": 0.24921874999999716,
          "durationTicks": 319,
          "midi": 83,
          "name": "B5",
          "ticks": 88680,
          "time": 69.28125,
          "velocity": 0.5039370078740157
        },
        {
          "duration": 0.27656250000001137,
          "durationTicks": 354,
          "midi": 86,
          "name": "D6",
          "ticks": 88680,
          "time": 69.28125,
          "velocity": 0.5590551181102362
        },
        {
          "duration": 1.0484374999999915,
          "durationTicks": 1342,
          "midi": 57,
          "name": "A3",
          "ticks": 89280,
          "time": 69.75,
          "velocity": 0.33070866141732286
        },
        {
          "duration": 1.0226562499999972,
          "durationTicks": 1309,
          "midi": 61,
          "name": "C#4",
          "ticks": 89280,
          "time": 69.75,
          "velocity": 0.2677165354330709
        },
        {
          "duration": 1.0226562499999972,
          "durationTicks": 1309,
          "midi": 62,
          "name": "D4",
          "ticks": 89280,
          "time": 69.75,
          "velocity": 0.3700787401574803
        },
        {
          "duration": 1.01953125,
          "durationTicks": 1305,
          "midi": 66,
          "name": "F#4",
          "ticks": 89280,
          "time": 69.75,
          "velocity": 0.2677165354330709
        },
        {
          "duration": 1.0164062500000028,
          "durationTicks": 1301,
          "midi": 76,
          "name": "E5",
          "ticks": 89280,
          "time": 69.75,
          "velocity": 0.4409448818897638
        },
        {
          "duration": 1.0445312500000057,
          "durationTicks": 1337,
          "midi": 81,
          "name": "A5",
          "ticks": 89280,
          "time": 69.75,
          "velocity": 0.5039370078740157
        },
        {
          "duration": 0.03515625,
          "durationTicks": 45,
          "midi": 83,
          "name": "B5",
          "ticks": 89280,
          "time": 69.75,
          "velocity": 0.4409448818897638
        },
        {
          "duration": 1.0523437500000057,
          "durationTicks": 1347,
          "midi": 88,
          "name": "E6",
          "ticks": 89280,
          "time": 69.75,
          "velocity": 0.5039370078740157
        },
        {
          "duration": 0.22343750000000284,
          "durationTicks": 286,
          "midi": 56,
          "name": "G#3",
          "ticks": 91440,
          "time": 71.4375,
          "velocity": 0.4015748031496063
        },
        {
          "duration": 0.15625,
          "durationTicks": 200,
          "midi": 62,
          "name": "D4",
          "ticks": 91440,
          "time": 71.4375,
          "velocity": 0.4566929133858268
        },
        {
          "duration": 0.16718749999999716,
          "durationTicks": 214,
          "midi": 66,
          "name": "F#4",
          "ticks": 91440,
          "time": 71.4375,
          "velocity": 0.2204724409448819
        },
        {
          "duration": 0.18359375,
          "durationTicks": 235,
          "midi": 77,
          "name": "F5",
          "ticks": 91440,
          "time": 71.4375,
          "velocity": 0.44881889763779526
        },
        {
          "duration": 0.25468750000000284,
          "durationTicks": 326,
          "midi": 80,
          "name": "G#5",
          "ticks": 91440,
          "time": 71.4375,
          "velocity": 0.4409448818897638
        },
        {
          "duration": 0.16718749999999716,
          "durationTicks": 214,
          "midi": 83,
          "name": "B5",
          "ticks": 91440,
          "time": 71.4375,
          "velocity": 0.4881889763779528
        },
        {
          "duration": 0.18359375,
          "durationTicks": 235,
          "midi": 88,
          "name": "E6",
          "ticks": 91440,
          "time": 71.4375,
          "velocity": 0.5196850393700787
        },
        {
          "duration": 0.49140624999999716,
          "durationTicks": 629,
          "midi": 55,
          "name": "G3",
          "ticks": 92160,
          "time": 72,
          "velocity": 0.1889763779527559
        },
        {
          "duration": 0.6499999999999915,
          "durationTicks": 832,
          "midi": 59,
          "name": "B3",
          "ticks": 92160,
          "time": 72,
          "velocity": 0.3228346456692913
        },
        {
          "duration": 1.4601562500000114,
          "durationTicks": 1869,
          "midi": 60,
          "name": "C4",
          "ticks": 92160,
          "time": 72,
          "velocity": 0.29133858267716534
        },
        {
          "duration": 1.484375,
          "durationTicks": 1900,
          "midi": 64,
          "name": "E4",
          "ticks": 92160,
          "time": 72,
          "velocity": 0.2755905511811024
        },
        {
          "duration": 1.5,
          "durationTicks": 1920,
          "midi": 72,
          "name": "C5",
          "ticks": 92160,
          "time": 72,
          "velocity": 0.33070866141732286
        },
        {
          "duration": 0.5968749999999972,
          "durationTicks": 764,
          "midi": 81,
          "name": "A5",
          "ticks": 92160,
          "time": 72,
          "velocity": 0.4015748031496063
        },
        {
          "duration": 0.5554687499999886,
          "durationTicks": 711,
          "midi": 84,
          "name": "C6",
          "ticks": 92160,
          "time": 72,
          "velocity": 0.3779527559055118
        },
        {
          "duration": 0.453125,
          "durationTicks": 580,
          "midi": 56,
          "name": "G#3",
          "ticks": 93000,
          "time": 72.65625,
          "velocity": 0.2047244094488189
        },
        {
          "duration": 0.7414062499999972,
          "durationTicks": 949,
          "midi": 80,
          "name": "G#5",
          "ticks": 93000,
          "time": 72.65625,
          "velocity": 0.33858267716535434
        },
        {
          "duration": 0.46484375,
          "durationTicks": 595,
          "midi": 83,
          "name": "B5",
          "ticks": 93000,
          "time": 72.65625,
          "velocity": 0.44881889763779526
        },
        {
          "duration": 0.2679687499999943,
          "durationTicks": 343,
          "midi": 57,
          "name": "A3",
          "ticks": 93600,
          "time": 73.125,
          "velocity": 0.03937007874015748
        },
        {
          "duration": 0.2796874999999943,
          "durationTicks": 358,
          "midi": 81,
          "name": "A5",
          "ticks": 93600,
          "time": 73.125,
          "velocity": 0.3228346456692913
        },
        {
          "duration": 0.3031249999999943,
          "durationTicks": 388,
          "midi": 84,
          "name": "C6",
          "ticks": 93600,
          "time": 73.125,
          "velocity": 0.2440944881889764
        },
        {
          "duration": 0.19765624999999432,
          "durationTicks": 253,
          "midi": 55,
          "name": "G3",
          "ticks": 94320,
          "time": 73.6875,
          "velocity": 0.1732283464566929
        },
        {
          "duration": 0.19687500000000568,
          "durationTicks": 252,
          "midi": 59,
          "name": "B3",
          "ticks": 94320,
          "time": 73.6875,
          "velocity": 0.1889763779527559
        },
        {
          "duration": 0.24062500000000853,
          "durationTicks": 308,
          "midi": 60,
          "name": "C4",
          "ticks": 94320,
          "time": 73.6875,
          "velocity": 0.12598425196850394
        },
        {
          "duration": 0.19609375000000284,
          "durationTicks": 251,
          "midi": 64,
          "name": "E4",
          "ticks": 94320,
          "time": 73.6875,
          "velocity": 0.16535433070866143
        },
        {
          "duration": 0.22265625,
          "durationTicks": 285,
          "midi": 71,
          "name": "B4",
          "ticks": 94320,
          "time": 73.6875,
          "velocity": 0.2755905511811024
        },
        {
          "duration": 0.24765625000000568,
          "durationTicks": 317,
          "midi": 72,
          "name": "C5",
          "ticks": 94320,
          "time": 73.6875,
          "velocity": 0.2283464566929134
        },
        {
          "duration": 0.1484375,
          "durationTicks": 190,
          "midi": 76,
          "name": "E5",
          "ticks": 94320,
          "time": 73.6875,
          "velocity": 0.2677165354330709
        },
        {
          "duration": 0.13359374999998863,
          "durationTicks": 171,
          "midi": 75,
          "name": "D#5",
          "ticks": 94680,
          "time": 73.96875,
          "velocity": 0.2047244094488189
        },
        {
          "duration": 0.7476562500000057,
          "durationTicks": 957,
          "midi": 57,
          "name": "A3",
          "ticks": 95040,
          "time": 74.25,
          "velocity": 0.23622047244094488
        },
        {
          "duration": 0.6625000000000085,
          "durationTicks": 848,
          "midi": 62,
          "name": "D4",
          "ticks": 95040,
          "time": 74.25,
          "velocity": 0.2047244094488189
        },
        {
          "duration": 0.6937499999999943,
          "durationTicks": 888,
          "midi": 69,
          "name": "A4",
          "ticks": 95040,
          "time": 74.25,
          "velocity": 0.1732283464566929
        },
        {
          "duration": 0.6531250000000028,
          "durationTicks": 836,
          "midi": 72,
          "name": "C5",
          "ticks": 95040,
          "time": 74.25,
          "velocity": 0.2204724409448819
        },
        {
          "duration": 0.6593749999999972,
          "durationTicks": 844,
          "midi": 74,
          "name": "D5",
          "ticks": 95040,
          "time": 74.25,
          "velocity": 0.28346456692913385
        },
        {
          "duration": 0.19765624999999432,
          "durationTicks": 253,
          "midi": 55,
          "name": "G3",
          "ticks": 97320,
          "time": 76.03125,
          "velocity": 0.36220472440944884
        },
        {
          "duration": 0.21250000000000568,
          "durationTicks": 272,
          "midi": 61,
          "name": "C#4",
          "ticks": 97320,
          "time": 76.03125,
          "velocity": 0.41732283464566927
        },
        {
          "duration": 0.3226562500000085,
          "durationTicks": 413,
          "midi": 65,
          "name": "F4",
          "ticks": 97320,
          "time": 76.03125,
          "velocity": 0.5039370078740157
        },
        {
          "duration": 0.3453124999999915,
          "durationTicks": 442,
          "midi": 69,
          "name": "A4",
          "ticks": 97320,
          "time": 76.03125,
          "velocity": 0.5354330708661418
        },
        {
          "duration": 0.31640625,
          "durationTicks": 405,
          "midi": 72,
          "name": "C5",
          "ticks": 97320,
          "time": 76.03125,
          "velocity": 0.5039370078740157
        },
        {
          "duration": 0.17656250000000284,
          "durationTicks": 226,
          "midi": 70,
          "name": "A#4",
          "ticks": 97680,
          "time": 76.3125,
          "velocity": 0.36220472440944884
        },
        {
          "duration": 0.5,
          "durationTicks": 640,
          "midi": 55,
          "name": "G3",
          "ticks": 98040,
          "time": 76.59375,
          "velocity": 0.13385826771653545
        },
        {
          "duration": 0.5406250000000057,
          "durationTicks": 692,
          "midi": 59,
          "name": "B3",
          "ticks": 98040,
          "time": 76.59375,
          "velocity": 0.1889763779527559
        },
        {
          "duration": 0.4976562499999915,
          "durationTicks": 637,
          "midi": 60,
          "name": "C4",
          "ticks": 98040,
          "time": 76.59375,
          "velocity": 0.2204724409448819
        },
        {
          "duration": 0.5953125000000057,
          "durationTicks": 762,
          "midi": 64,
          "name": "E4",
          "ticks": 98040,
          "time": 76.59375,
          "velocity": 0.28346456692913385
        },
        {
          "duration": 0.6171875,
          "durationTicks": 790,
          "midi": 69,
          "name": "A4",
          "ticks": 98040,
          "time": 76.59375,
          "velocity": 0.33858267716535434
        },
        {
          "duration": 0.18984374999999432,
          "durationTicks": 243,
          "midi": 44,
          "name": "G#2",
          "ticks": 100200,
          "time": 78.28125,
          "velocity": 0.31496062992125984
        },
        {
          "duration": 0.20234374999999716,
          "durationTicks": 259,
          "midi": 53,
          "name": "F3",
          "ticks": 100200,
          "time": 78.28125,
          "velocity": 0.2047244094488189
        },
        {
          "duration": 0.22812499999999147,
          "durationTicks": 292,
          "midi": 59,
          "name": "B3",
          "ticks": 100200,
          "time": 78.28125,
          "velocity": 0.33858267716535434
        },
        {
          "duration": 0.19375000000000853,
          "durationTicks": 248,
          "midi": 62,
          "name": "D4",
          "ticks": 100200,
          "time": 78.28125,
          "velocity": 0.4330708661417323
        },
        {
          "duration": 0.21250000000000568,
          "durationTicks": 272,
          "midi": 67,
          "name": "G4",
          "ticks": 100200,
          "time": 78.28125,
          "velocity": 0.4330708661417323
        },
        {
          "duration": 0.11484375000000568,
          "durationTicks": 147,
          "midi": 45,
          "name": "A2",
          "ticks": 100800,
          "time": 78.75,
          "velocity": 0.2047244094488189
        },
        {
          "duration": 0.11796875000000284,
          "durationTicks": 151,
          "midi": 52,
          "name": "E3",
          "ticks": 100800,
          "time": 78.75,
          "velocity": 0.2992125984251969
        },
        {
          "duration": 0.09531250000000568,
          "durationTicks": 122,
          "midi": 55,
          "name": "G3",
          "ticks": 100800,
          "time": 78.75,
          "velocity": 0.2125984251968504
        },
        {
          "duration": 0.125,
          "durationTicks": 160,
          "midi": 59,
          "name": "B3",
          "ticks": 100800,
          "time": 78.75,
          "velocity": 0.2125984251968504
        },
        {
          "duration": 0.12109375,
          "durationTicks": 155,
          "midi": 60,
          "name": "C4",
          "ticks": 100800,
          "time": 78.75,
          "velocity": 0.2677165354330709
        },
        {
          "duration": 0.125,
          "durationTicks": 160,
          "midi": 64,
          "name": "E4",
          "ticks": 100800,
          "time": 78.75,
          "velocity": 0.25196850393700787
        },
        {
          "duration": 0.19453125000001137,
          "durationTicks": 249,
          "midi": 45,
          "name": "A2",
          "ticks": 101640,
          "time": 79.40625,
          "velocity": 0.36220472440944884
        },
        {
          "duration": 0.16953124999999147,
          "durationTicks": 217,
          "midi": 52,
          "name": "E3",
          "ticks": 101640,
          "time": 79.40625,
          "velocity": 0.3543307086614173
        },
        {
          "duration": 0.14453125,
          "durationTicks": 185,
          "midi": 55,
          "name": "G3",
          "ticks": 101640,
          "time": 79.40625,
          "velocity": 0.2755905511811024
        },
        {
          "duration": 0.16328124999999716,
          "durationTicks": 209,
          "midi": 59,
          "name": "B3",
          "ticks": 101640,
          "time": 79.40625,
          "velocity": 0.36220472440944884
        },
        {
          "duration": 0.16953124999999147,
          "durationTicks": 217,
          "midi": 60,
          "name": "C4",
          "ticks": 101640,
          "time": 79.40625,
          "velocity": 0.3228346456692913
        },
        {
          "duration": 0.14531249999998863,
          "durationTicks": 186,
          "midi": 64,
          "name": "E4",
          "ticks": 101640,
          "time": 79.40625,
          "velocity": 0.3700787401574803
        },
        {
          "duration": 0.20234374999999716,
          "durationTicks": 259,
          "midi": 44,
          "name": "G#2",
          "ticks": 102240,
          "time": 79.875,
          "velocity": 0.2755905511811024
        },
        {
          "duration": 0.17499999999999716,
          "durationTicks": 224,
          "midi": 53,
          "name": "F3",
          "ticks": 102240,
          "time": 79.875,
          "velocity": 0.23622047244094488
        },
        {
          "duration": 0.21875,
          "durationTicks": 280,
          "midi": 56,
          "name": "G#3",
          "ticks": 102240,
          "time": 79.875,
          "velocity": 0.2125984251968504
        },
        {
          "duration": 0.16484375000000284,
          "durationTicks": 211,
          "midi": 59,
          "name": "B3",
          "ticks": 102240,
          "time": 79.875,
          "velocity": 0.2283464566929134
        },
        {
          "duration": 0.17421874999999432,
          "durationTicks": 223,
          "midi": 62,
          "name": "D4",
          "ticks": 102240,
          "time": 79.875,
          "velocity": 0.4094488188976378
        },
        {
          "duration": 0.13046875000000568,
          "durationTicks": 167,
          "midi": 44,
          "name": "G#2",
          "ticks": 102960,
          "time": 80.4375,
          "velocity": 0.2204724409448819
        },
        {
          "duration": 0.14765625000001137,
          "durationTicks": 189,
          "midi": 53,
          "name": "F3",
          "ticks": 102960,
          "time": 80.4375,
          "velocity": 0.1889763779527559
        },
        {
          "duration": 0.13671875,
          "durationTicks": 175,
          "midi": 56,
          "name": "G#3",
          "ticks": 102960,
          "time": 80.4375,
          "velocity": 0.18110236220472442
        },
        {
          "duration": 0.1484375,
          "durationTicks": 190,
          "midi": 59,
          "name": "B3",
          "ticks": 102960,
          "time": 80.4375,
          "velocity": 0.3228346456692913
        },
        {
          "duration": 0.15859375000000853,
          "durationTicks": 203,
          "midi": 62,
          "name": "D4",
          "ticks": 102960,
          "time": 80.4375,
          "velocity": 0.3779527559055118
        },
        {
          "duration": 0.8937499999999972,
          "durationTicks": 1144,
          "midi": 53,
          "name": "F3",
          "ticks": 103680,
          "time": 81,
          "velocity": 0.31496062992125984
        },
        {
          "duration": 0.83984375,
          "durationTicks": 1075,
          "midi": 57,
          "name": "A3",
          "ticks": 103680,
          "time": 81,
          "velocity": 0.28346456692913385
        },
        {
          "duration": 0.8570312500000057,
          "durationTicks": 1097,
          "midi": 58,
          "name": "A#3",
          "ticks": 103680,
          "time": 81,
          "velocity": 0.1889763779527559
        },
        {
          "duration": 0.8468749999999972,
          "durationTicks": 1084,
          "midi": 62,
          "name": "D4",
          "ticks": 103680,
          "time": 81,
          "velocity": 0.2440944881889764
        },
        {
          "duration": 0.8601562499999886,
          "durationTicks": 1101,
          "midi": 65,
          "name": "F4",
          "ticks": 103680,
          "time": 81,
          "velocity": 0.4015748031496063
        },
        {
          "duration": 0.86328125,
          "durationTicks": 1105,
          "midi": 69,
          "name": "A4",
          "ticks": 103680,
          "time": 81,
          "velocity": 0.4330708661417323
        },
        {
          "duration": 0.8898437499999972,
          "durationTicks": 1139,
          "midi": 70,
          "name": "A#4",
          "ticks": 103680,
          "time": 81,
          "velocity": 0.33070866141732286
        },
        {
          "duration": 0.84765625,
          "durationTicks": 1085,
          "midi": 74,
          "name": "D5",
          "ticks": 103680,
          "time": 81,
          "velocity": 0.4094488188976378
        },
        {
          "duration": 0.16953124999999147,
          "durationTicks": 217,
          "midi": 52,
          "name": "E3",
          "ticks": 105840,
          "time": 82.6875,
          "velocity": 0.3543307086614173
        },
        {
          "duration": 0.19609375000000284,
          "durationTicks": 251,
          "midi": 58,
          "name": "A#3",
          "ticks": 105840,
          "time": 82.6875,
          "velocity": 0.2125984251968504
        },
        {
          "duration": 0.21015624999999716,
          "durationTicks": 269,
          "midi": 62,
          "name": "D4",
          "ticks": 105840,
          "time": 82.6875,
          "velocity": 0.3228346456692913
        },
        {
          "duration": 0.18515625000000568,
          "durationTicks": 237,
          "midi": 67,
          "name": "G4",
          "ticks": 105840,
          "time": 82.6875,
          "velocity": 0.4015748031496063
        },
        {
          "duration": 0.21328124999999432,
          "durationTicks": 273,
          "midi": 70,
          "name": "A#4",
          "ticks": 105840,
          "time": 82.6875,
          "velocity": 0.3700787401574803
        },
        {
          "duration": 0.19062499999999716,
          "durationTicks": 244,
          "midi": 73,
          "name": "C#5",
          "ticks": 105840,
          "time": 82.6875,
          "velocity": 0.4015748031496063
        },
        {
          "duration": 0.17265625000000284,
          "durationTicks": 221,
          "midi": 76,
          "name": "E5",
          "ticks": 105840,
          "time": 82.6875,
          "velocity": 0.41732283464566927
        },
        {
          "duration": 0.7054687499999943,
          "durationTicks": 903,
          "midi": 57,
          "name": "A3",
          "ticks": 106560,
          "time": 83.25,
          "velocity": 0.2440944881889764
        },
        {
          "duration": 0.6929687500000057,
          "durationTicks": 887,
          "midi": 62,
          "name": "D4",
          "ticks": 106560,
          "time": 83.25,
          "velocity": 0.18110236220472442
        },
        {
          "duration": 0.69140625,
          "durationTicks": 885,
          "midi": 67,
          "name": "G4",
          "ticks": 106560,
          "time": 83.25,
          "velocity": 0.18110236220472442
        },
        {
          "duration": 0.7007812500000057,
          "durationTicks": 897,
          "midi": 69,
          "name": "A4",
          "ticks": 106560,
          "time": 83.25,
          "velocity": 0.25984251968503935
        },
        {
          "duration": 0.7195312499999886,
          "durationTicks": 921,
          "midi": 72,
          "name": "C5",
          "ticks": 106560,
          "time": 83.25,
          "velocity": 0.2677165354330709
        },
        {
          "duration": 0.6789062499999972,
          "durationTicks": 869,
          "midi": 77,
          "name": "F5",
          "ticks": 106560,
          "time": 83.25,
          "velocity": 0.28346456692913385
        },
        {
          "duration": 0.5242187500000028,
          "durationTicks": 671,
          "midi": 58,
          "name": "A#3",
          "ticks": 108720,
          "time": 84.9375,
          "velocity": 0.14173228346456693
        },
        {
          "duration": 0.4984375000000085,
          "durationTicks": 638,
          "midi": 63,
          "name": "D#4",
          "ticks": 108720,
          "time": 84.9375,
          "velocity": 0.2047244094488189
        },
        {
          "duration": 0.5218750000000085,
          "durationTicks": 668,
          "midi": 68,
          "name": "G#4",
          "ticks": 108720,
          "time": 84.9375,
          "velocity": 0.1968503937007874
        },
        {
          "duration": 0.5203124999999886,
          "durationTicks": 666,
          "midi": 73,
          "name": "C#5",
          "ticks": 108720,
          "time": 84.9375,
          "velocity": 0.2125984251968504
        },
        {
          "duration": 0.4859374999999915,
          "durationTicks": 622,
          "midi": 78,
          "name": "F#5",
          "ticks": 108720,
          "time": 84.9375,
          "velocity": 0.2047244094488189
        },
        {
          "duration": 0.5492187499999943,
          "durationTicks": 703,
          "midi": 82,
          "name": "A#5",
          "ticks": 108720,
          "time": 84.9375,
          "velocity": 0.2992125984251969
        },
        {
          "duration": 0.5015625000000057,
          "durationTicks": 642,
          "midi": 57,
          "name": "A3",
          "ticks": 109680,
          "time": 85.6875,
          "velocity": 0.14960629921259844
        },
        {
          "duration": 0.5015625000000057,
          "durationTicks": 642,
          "midi": 62,
          "name": "D4",
          "ticks": 109680,
          "time": 85.6875,
          "velocity": 0.18110236220472442
        },
        {
          "duration": 0.5374999999999943,
          "durationTicks": 688,
          "midi": 67,
          "name": "G4",
          "ticks": 109680,
          "time": 85.6875,
          "velocity": 0.18110236220472442
        },
        {
          "duration": 0.5023437499999943,
          "durationTicks": 643,
          "midi": 72,
          "name": "C5",
          "ticks": 109680,
          "time": 85.6875,
          "velocity": 0.1968503937007874
        },
        {
          "duration": 0.47734375000000284,
          "durationTicks": 611,
          "midi": 77,
          "name": "F5",
          "ticks": 109680,
          "time": 85.6875,
          "velocity": 0.25196850393700787
        },
        {
          "duration": 0.4710937499999943,
          "durationTicks": 603,
          "midi": 81,
          "name": "A5",
          "ticks": 109680,
          "time": 85.6875,
          "velocity": 0.3228346456692913
        },
        {
          "duration": 0.31328125000000284,
          "durationTicks": 401,
          "midi": 56,
          "name": "G#3",
          "ticks": 110760,
          "time": 86.53125,
          "velocity": 0.1889763779527559
        },
        {
          "duration": 0.32421875,
          "durationTicks": 415,
          "midi": 61,
          "name": "C#4",
          "ticks": 110760,
          "time": 86.53125,
          "velocity": 0.2047244094488189
        },
        {
          "duration": 0.3359375,
          "durationTicks": 430,
          "midi": 66,
          "name": "F#4",
          "ticks": 110760,
          "time": 86.53125,
          "velocity": 0.1889763779527559
        },
        {
          "duration": 0.38984374999999716,
          "durationTicks": 499,
          "midi": 68,
          "name": "G#4",
          "ticks": 110760,
          "time": 86.53125,
          "velocity": 0.33858267716535434
        },
        {
          "duration": 0.3851562499999943,
          "durationTicks": 493,
          "midi": 73,
          "name": "C#5",
          "ticks": 110760,
          "time": 86.53125,
          "velocity": 0.23622047244094488
        },
        {
          "duration": 0.41328124999999716,
          "durationTicks": 529,
          "midi": 77,
          "name": "F5",
          "ticks": 110760,
          "time": 86.53125,
          "velocity": 0.4409448818897638
        },
        {
          "duration": 0.2757812500000085,
          "durationTicks": 353,
          "midi": 52,
          "name": "E3",
          "ticks": 111600,
          "time": 87.1875,
          "velocity": 0.4015748031496063
        },
        {
          "duration": 0.2828125000000057,
          "durationTicks": 362,
          "midi": 58,
          "name": "A#3",
          "ticks": 111600,
          "time": 87.1875,
          "velocity": 0.25196850393700787
        },
        {
          "duration": 0.30937499999998863,
          "durationTicks": 396,
          "midi": 63,
          "name": "D#4",
          "ticks": 111600,
          "time": 87.1875,
          "velocity": 0.14960629921259844
        },
        {
          "duration": 0.28984375000000284,
          "durationTicks": 371,
          "midi": 68,
          "name": "G#4",
          "ticks": 111600,
          "time": 87.1875,
          "velocity": 0.33070866141732286
        },
        {
          "duration": 0.23906249999998863,
          "durationTicks": 306,
          "midi": 72,
          "name": "C5",
          "ticks": 111600,
          "time": 87.1875,
          "velocity": 0.41732283464566927
        },
        {
          "duration": 0.4124999999999943,
          "durationTicks": 528,
          "midi": 75,
          "name": "D#5",
          "ticks": 111600,
          "time": 87.1875,
          "velocity": 0.3543307086614173
        },
        {
          "duration": 1.1226562500000057,
          "durationTicks": 1437,
          "midi": 57,
          "name": "A3",
          "ticks": 112320,
          "time": 87.75,
          "velocity": 0.3937007874015748
        },
        {
          "duration": 1.1171875,
          "durationTicks": 1430,
          "midi": 62,
          "name": "D4",
          "ticks": 112320,
          "time": 87.75,
          "velocity": 0.25984251968503935
        },
        {
          "duration": 0.7453125000000114,
          "durationTicks": 954,
          "midi": 64,
          "name": "E4",
          "ticks": 112320,
          "time": 87.75,
          "velocity": 0.14960629921259844
        },
        {
          "duration": 1.1328125,
          "durationTicks": 1450,
          "midi": 67,
          "name": "G4",
          "ticks": 112320,
          "time": 87.75,
          "velocity": 0.33070866141732286
        },
        {
          "duration": 1.14453125,
          "durationTicks": 1465,
          "midi": 72,
          "name": "C5",
          "ticks": 112320,
          "time": 87.75,
          "velocity": 0.4330708661417323
        },
        {
          "duration": 1.14453125,
          "durationTicks": 1465,
          "midi": 76,
          "name": "E5",
          "ticks": 112320,
          "time": 87.75,
          "velocity": 0.41732283464566927
        },
        {
          "duration": 0.5492187499999943,
          "durationTicks": 703,
          "midi": 56,
          "name": "G#3",
          "ticks": 117000,
          "time": 91.40625,
          "velocity": 0.1889763779527559
        },
        {
          "duration": 0.5906249999999886,
          "durationTicks": 756,
          "midi": 65,
          "name": "F4",
          "ticks": 117000,
          "time": 91.40625,
          "velocity": 0.18110236220472442
        },
        {
          "duration": 0.53125,
          "durationTicks": 680,
          "midi": 68,
          "name": "G#4",
          "ticks": 117000,
          "time": 91.40625,
          "velocity": 0.18110236220472442
        },
        {
          "duration": 0.4859374999999915,
          "durationTicks": 622,
          "midi": 62,
          "name": "D4",
          "ticks": 117120,
          "time": 91.5,
          "velocity": 0.18110236220472442
        },
        {
          "duration": 0.48750000000001137,
          "durationTicks": 624,
          "midi": 71,
          "name": "B4",
          "ticks": 117120,
          "time": 91.5,
          "velocity": 0.33858267716535434
        },
        {
          "duration": 0.46562500000000284,
          "durationTicks": 596,
          "midi": 76,
          "name": "E5",
          "ticks": 117120,
          "time": 91.5,
          "velocity": 0.4330708661417323
        },
        {
          "duration": 0.84375,
          "durationTicks": 1080,
          "midi": 49,
          "name": "C#3",
          "ticks": 118080,
          "time": 92.25,
          "velocity": 0.2047244094488189
        },
        {
          "duration": 0.84375,
          "durationTicks": 1080,
          "midi": 61,
          "name": "C#4",
          "ticks": 118080,
          "time": 92.25,
          "velocity": 0.12598425196850394
        },
        {
          "duration": 0.8609374999999915,
          "durationTicks": 1102,
          "midi": 67,
          "name": "G4",
          "ticks": 118080,
          "time": 92.25,
          "velocity": 0.047244094488188976
        },
        {
          "duration": 0.8546874999999972,
          "durationTicks": 1094,
          "midi": 73,
          "name": "C#5",
          "ticks": 118080,
          "time": 92.25,
          "velocity": 0.1732283464566929
        },
        {
          "duration": 0.86328125,
          "durationTicks": 1105,
          "midi": 78,
          "name": "F#5",
          "ticks": 118080,
          "time": 92.25,
          "velocity": 0.25984251968503935
        },
        {
          "duration": 0.8601562499999886,
          "durationTicks": 1101,
          "midi": 81,
          "name": "A5",
          "ticks": 118080,
          "time": 92.25,
          "velocity": 0.1889763779527559
        },
        {
          "duration": 0.7312499999999886,
          "durationTicks": 936,
          "midi": 47,
          "name": "B2",
          "ticks": 120960,
          "time": 94.5,
          "velocity": 0.1889763779527559
        },
        {
          "duration": 0.7289062499999943,
          "durationTicks": 933,
          "midi": 59,
          "name": "B3",
          "ticks": 120960,
          "time": 94.5,
          "velocity": 0.16535433070866143
        },
        {
          "duration": 0.7171874999999943,
          "durationTicks": 918,
          "midi": 62,
          "name": "D4",
          "ticks": 120960,
          "time": 94.5,
          "velocity": 0.25984251968503935
        },
        {
          "duration": 0.7359375000000057,
          "durationTicks": 942,
          "midi": 64,
          "name": "E4",
          "ticks": 120960,
          "time": 94.5,
          "velocity": 0.1968503937007874
        },
        {
          "duration": 0.7367187499999943,
          "durationTicks": 943,
          "midi": 67,
          "name": "G4",
          "ticks": 120960,
          "time": 94.5,
          "velocity": 0.2204724409448819
        },
        {
          "duration": 0.19062499999999716,
          "durationTicks": 244,
          "midi": 79,
          "name": "G5",
          "ticks": 123600,
          "time": 96.5625,
          "velocity": 0.2755905511811024
        },
        {
          "duration": 0.6531250000000028,
          "durationTicks": 836,
          "midi": 53,
          "name": "F3",
          "ticks": 123840,
          "time": 96.75,
          "velocity": 0.18110236220472442
        },
        {
          "duration": 0.6414062500000028,
          "durationTicks": 821,
          "midi": 57,
          "name": "A3",
          "ticks": 123840,
          "time": 96.75,
          "velocity": 0.2047244094488189
        },
        {
          "duration": 0.6273437499999943,
          "durationTicks": 803,
          "midi": 62,
          "name": "D4",
          "ticks": 123840,
          "time": 96.75,
          "velocity": 0.2125984251968504
        },
        {
          "duration": 0.6640625,
          "durationTicks": 850,
          "midi": 69,
          "name": "A4",
          "ticks": 123840,
          "time": 96.75,
          "velocity": 0.4094488188976378
        },
        {
          "duration": 0.6968750000000057,
          "durationTicks": 892,
          "midi": 77,
          "name": "F5",
          "ticks": 123840,
          "time": 96.75,
          "velocity": 0.4409448818897638
        },
        {
          "duration": 0.6398437500000114,
          "durationTicks": 819,
          "midi": 81,
          "name": "A5",
          "ticks": 123840,
          "time": 96.75,
          "velocity": 0.44881889763779526
        },
        {
          "duration": 0.21015624999998295,
          "durationTicks": 269,
          "midi": 57,
          "name": "A3",
          "ticks": 126120,
          "time": 98.53125,
          "velocity": 0.2755905511811024
        },
        {
          "duration": 0.20000000000001705,
          "durationTicks": 256,
          "midi": 62,
          "name": "D4",
          "ticks": 126120,
          "time": 98.53125,
          "velocity": 0.18110236220472442
        },
        {
          "duration": 0.16328124999998295,
          "durationTicks": 209,
          "midi": 69,
          "name": "A4",
          "ticks": 126120,
          "time": 98.53125,
          "velocity": 0.2992125984251969
        },
        {
          "duration": 0.15156249999998295,
          "durationTicks": 194,
          "midi": 72,
          "name": "C5",
          "ticks": 126120,
          "time": 98.53125,
          "velocity": 0.33858267716535434
        },
        {
          "duration": 0.18906250000000568,
          "durationTicks": 242,
          "midi": 77,
          "name": "F5",
          "ticks": 126120,
          "time": 98.53125,
          "velocity": 0.4015748031496063
        },
        {
          "duration": 0.8851562499999943,
          "durationTicks": 1133,
          "midi": 53,
          "name": "F3",
          "ticks": 126720,
          "time": 99,
          "velocity": 0.14173228346456693
        },
        {
          "duration": 0.8234374999999972,
          "durationTicks": 1054,
          "midi": 58,
          "name": "A#3",
          "ticks": 126720,
          "time": 99,
          "velocity": 0.13385826771653545
        },
        {
          "duration": 0.8257812500000057,
          "durationTicks": 1057,
          "midi": 62,
          "name": "D4",
          "ticks": 126720,
          "time": 99,
          "velocity": 0.14960629921259844
        },
        {
          "duration": 0.8140625000000057,
          "durationTicks": 1042,
          "midi": 70,
          "name": "A#4",
          "ticks": 126720,
          "time": 99,
          "velocity": 0.10236220472440945
        },
        {
          "duration": 0.7593749999999915,
          "durationTicks": 972,
          "midi": 77,
          "name": "F5",
          "ticks": 126720,
          "time": 99,
          "velocity": 0.2992125984251969
        },
        {
          "duration": 0.7210937499999943,
          "durationTicks": 923,
          "midi": 82,
          "name": "A#5",
          "ticks": 126840,
          "time": 99.09375,
          "velocity": 0.25984251968503935
        },
        {
          "duration": 0.14687499999999432,
          "durationTicks": 188,
          "midi": 81,
          "name": "A5",
          "ticks": 129360,
          "time": 101.0625,
          "velocity": 0.1732283464566929
        },
        {
          "duration": 0.21171875000001705,
          "durationTicks": 271,
          "midi": 82,
          "name": "A#5",
          "ticks": 129480,
          "time": 101.15625,
          "velocity": 0.1889763779527559
        },
        {
          "duration": 0.14374999999999716,
          "durationTicks": 184,
          "midi": 83,
          "name": "B5",
          "ticks": 129480,
          "time": 101.15625,
          "velocity": 0.28346456692913385
        },
        {
          "duration": 0.6875,
          "durationTicks": 880,
          "midi": 55,
          "name": "G3",
          "ticks": 129600,
          "time": 101.25,
          "velocity": 0.1732283464566929
        },
        {
          "duration": 0.7124999999999915,
          "durationTicks": 912,
          "midi": 59,
          "name": "B3",
          "ticks": 129600,
          "time": 101.25,
          "velocity": 0.1968503937007874
        },
        {
          "duration": 0.71484375,
          "durationTicks": 915,
          "midi": 60,
          "name": "C4",
          "ticks": 129600,
          "time": 101.25,
          "velocity": 0.18110236220472442
        },
        {
          "duration": 0.7242187499999915,
          "durationTicks": 927,
          "midi": 64,
          "name": "E4",
          "ticks": 129600,
          "time": 101.25,
          "velocity": 0.13385826771653545
        },
        {
          "duration": 0.6484375,
          "durationTicks": 830,
          "midi": 84,
          "name": "C6",
          "ticks": 129600,
          "time": 101.25,
          "velocity": 0.4566929133858268
        },
        {
          "duration": 1.2234374999999886,
          "durationTicks": 1566,
          "midi": 72,
          "name": "C5",
          "ticks": 130440,
          "time": 101.90625,
          "velocity": 0.2204724409448819
        },
        {
          "duration": 0.27812500000000284,
          "durationTicks": 356,
          "midi": 84,
          "name": "C6",
          "ticks": 130680,
          "time": 102.09375,
          "velocity": 0.4094488188976378
        },
        {
          "duration": 0.6546874999999943,
          "durationTicks": 838,
          "midi": 54,
          "name": "F#3",
          "ticks": 131040,
          "time": 102.375,
          "velocity": 0.25196850393700787
        },
        {
          "duration": 0.62890625,
          "durationTicks": 805,
          "midi": 60,
          "name": "C4",
          "ticks": 131040,
          "time": 102.375,
          "velocity": 0.16535433070866143
        },
        {
          "duration": 0.640625,
          "durationTicks": 820,
          "midi": 65,
          "name": "F4",
          "ticks": 131040,
          "time": 102.375,
          "velocity": 0.2047244094488189
        },
        {
          "duration": 0.6929687500000057,
          "durationTicks": 887,
          "midi": 75,
          "name": "D#5",
          "ticks": 131040,
          "time": 102.375,
          "velocity": 0.25984251968503935
        },
        {
          "duration": 0.70703125,
          "durationTicks": 905,
          "midi": 80,
          "name": "G#5",
          "ticks": 131040,
          "time": 102.375,
          "velocity": 0.33858267716535434
        },
        {
          "duration": 0.26953125,
          "durationTicks": 345,
          "midi": 81,
          "name": "A5",
          "ticks": 131760,
          "time": 102.9375,
          "velocity": 0.2204724409448819
        },
        {
          "duration": 0.09921875000000568,
          "durationTicks": 127,
          "midi": 84,
          "name": "C6",
          "ticks": 132120,
          "time": 103.21875,
          "velocity": 0.4566929133858268
        },
        {
          "duration": 0.2421875,
          "durationTicks": 310,
          "midi": 53,
          "name": "F3",
          "ticks": 132480,
          "time": 103.5,
          "velocity": 0.2047244094488189
        },
        {
          "duration": 0.24374999999999147,
          "durationTicks": 312,
          "midi": 57,
          "name": "A3",
          "ticks": 132480,
          "time": 103.5,
          "velocity": 0.2283464566929134
        },
        {
          "duration": 0.25,
          "durationTicks": 320,
          "midi": 58,
          "name": "A#3",
          "ticks": 132480,
          "time": 103.5,
          "velocity": 0.18110236220472442
        },
        {
          "duration": 0.24765625000000568,
          "durationTicks": 317,
          "midi": 62,
          "name": "D4",
          "ticks": 132480,
          "time": 103.5,
          "velocity": 0.1968503937007874
        },
        {
          "duration": 0.18437500000000284,
          "durationTicks": 236,
          "midi": 74,
          "name": "D5",
          "ticks": 132480,
          "time": 103.5,
          "velocity": 0.2677165354330709
        },
        {
          "duration": 0.17656250000001705,
          "durationTicks": 226,
          "midi": 77,
          "name": "F5",
          "ticks": 132480,
          "time": 103.5,
          "velocity": 0.2992125984251969
        },
        {
          "duration": 0.15859374999999432,
          "durationTicks": 203,
          "midi": 81,
          "name": "A5",
          "ticks": 132480,
          "time": 103.5,
          "velocity": 0.36220472440944884
        },
        {
          "duration": 0.23593750000000568,
          "durationTicks": 302,
          "midi": 53,
          "name": "F3",
          "ticks": 133320,
          "time": 104.15625,
          "velocity": 0.16535433070866143
        },
        {
          "duration": 0.23984375000000568,
          "durationTicks": 307,
          "midi": 57,
          "name": "A3",
          "ticks": 133320,
          "time": 104.15625,
          "velocity": 0.2204724409448819
        },
        {
          "duration": 0.24140625000001137,
          "durationTicks": 309,
          "midi": 58,
          "name": "A#3",
          "ticks": 133320,
          "time": 104.15625,
          "velocity": 0.16535433070866143
        },
        {
          "duration": 0.24374999999999147,
          "durationTicks": 312,
          "midi": 62,
          "name": "D4",
          "ticks": 133320,
          "time": 104.15625,
          "velocity": 0.14173228346456693
        },
        {
          "duration": 0.21718749999999432,
          "durationTicks": 278,
          "midi": 70,
          "name": "A#4",
          "ticks": 133320,
          "time": 104.15625,
          "velocity": 0.1889763779527559
        },
        {
          "duration": 0.18359375,
          "durationTicks": 235,
          "midi": 74,
          "name": "D5",
          "ticks": 133320,
          "time": 104.15625,
          "velocity": 0.29133858267716534
        },
        {
          "duration": 0.17499999999998295,
          "durationTicks": 224,
          "midi": 77,
          "name": "F5",
          "ticks": 133320,
          "time": 104.15625,
          "velocity": 0.33858267716535434
        },
        {
          "duration": 0.3453125000000057,
          "durationTicks": 442,
          "midi": 52,
          "name": "E3",
          "ticks": 133920,
          "time": 104.625,
          "velocity": 0.1732283464566929
        },
        {
          "duration": 0.32734374999998295,
          "durationTicks": 419,
          "midi": 58,
          "name": "A#3",
          "ticks": 133920,
          "time": 104.625,
          "velocity": 0.1968503937007874
        },
        {
          "duration": 0.31640625,
          "durationTicks": 405,
          "midi": 65,
          "name": "F4",
          "ticks": 133920,
          "time": 104.625,
          "velocity": 0.2283464566929134
        },
        {
          "duration": 0.3046875,
          "durationTicks": 390,
          "midi": 69,
          "name": "A4",
          "ticks": 133920,
          "time": 104.625,
          "velocity": 0.28346456692913385
        },
        {
          "duration": 0.32734374999998295,
          "durationTicks": 419,
          "midi": 72,
          "name": "C5",
          "ticks": 133920,
          "time": 104.625,
          "velocity": 0.36220472440944884
        },
        {
          "duration": 0.2578125,
          "durationTicks": 330,
          "midi": 52,
          "name": "E3",
          "ticks": 134640,
          "time": 105.1875,
          "velocity": 0.2283464566929134
        },
        {
          "duration": 0.32500000000000284,
          "durationTicks": 416,
          "midi": 58,
          "name": "A#3",
          "ticks": 134640,
          "time": 105.1875,
          "velocity": 0.3228346456692913
        },
        {
          "duration": 0.3453125000000057,
          "durationTicks": 442,
          "midi": 63,
          "name": "D#4",
          "ticks": 134640,
          "time": 105.1875,
          "velocity": 0.3937007874015748
        },
        {
          "duration": 0.4468750000000057,
          "durationTicks": 572,
          "midi": 68,
          "name": "G#4",
          "ticks": 134640,
          "time": 105.1875,
          "velocity": 0.44881889763779526
        },
        {
          "duration": 0.7765624999999972,
          "durationTicks": 994,
          "midi": 53,
          "name": "F3",
          "ticks": 135360,
          "time": 105.75,
          "velocity": 0.18110236220472442
        },
        {
          "duration": 0.7648437499999972,
          "durationTicks": 979,
          "midi": 57,
          "name": "A3",
          "ticks": 135360,
          "time": 105.75,
          "velocity": 0.1889763779527559
        },
        {
          "duration": 0.7867187500000057,
          "durationTicks": 1007,
          "midi": 64,
          "name": "E4",
          "ticks": 135360,
          "time": 105.75,
          "velocity": 0.25196850393700787
        },
        {
          "duration": 0.8507812500000114,
          "durationTicks": 1089,
          "midi": 69,
          "name": "A4",
          "ticks": 135360,
          "time": 105.75,
          "velocity": 0.3228346456692913
        },
        {
          "duration": 0.07968749999999147,
          "durationTicks": 102,
          "midi": 53,
          "name": "F3",
          "ticks": 137640,
          "time": 107.53125,
          "velocity": 0.29133858267716534
        },
        {
          "duration": 0.08203125,
          "durationTicks": 105,
          "midi": 57,
          "name": "A3",
          "ticks": 137640,
          "time": 107.53125,
          "velocity": 0.3543307086614173
        },
        {
          "duration": 0.08437500000000853,
          "durationTicks": 108,
          "midi": 60,
          "name": "C4",
          "ticks": 137640,
          "time": 107.53125,
          "velocity": 0.25984251968503935
        },
        {
          "duration": 0.0859375,
          "durationTicks": 110,
          "midi": 64,
          "name": "E4",
          "ticks": 137640,
          "time": 107.53125,
          "velocity": 0.2440944881889764
        },
        {
          "duration": 0.11015624999998863,
          "durationTicks": 141,
          "midi": 69,
          "name": "A4",
          "ticks": 137640,
          "time": 107.53125,
          "velocity": 0.2755905511811024
        },
        {
          "duration": 0.08828124999999432,
          "durationTicks": 113,
          "midi": 72,
          "name": "C5",
          "ticks": 137640,
          "time": 107.53125,
          "velocity": 0.31496062992125984
        },
        {
          "duration": 0.10781250000000853,
          "durationTicks": 138,
          "midi": 77,
          "name": "F5",
          "ticks": 137640,
          "time": 107.53125,
          "velocity": 0.33070866141732286
        },
        {
          "duration": 0.8937499999999972,
          "durationTicks": 1144,
          "midi": 53,
          "name": "F3",
          "ticks": 138240,
          "time": 108,
          "velocity": 0.18110236220472442
        },
        {
          "duration": 0.914843750000017,
          "durationTicks": 1171,
          "midi": 57,
          "name": "A3",
          "ticks": 138240,
          "time": 108,
          "velocity": 0.2204724409448819
        },
        {
          "duration": 0.9476562499999943,
          "durationTicks": 1213,
          "midi": 58,
          "name": "A#3",
          "ticks": 138240,
          "time": 108,
          "velocity": 0.1732283464566929
        },
        {
          "duration": 0.9007812499999943,
          "durationTicks": 1153,
          "midi": 62,
          "name": "D4",
          "ticks": 138240,
          "time": 108,
          "velocity": 0.15748031496062992
        },
        {
          "duration": 0.9070312499999886,
          "durationTicks": 1161,
          "midi": 70,
          "name": "A#4",
          "ticks": 138240,
          "time": 108,
          "velocity": 0.31496062992125984
        },
        {
          "duration": 0.8539062499999943,
          "durationTicks": 1093,
          "midi": 77,
          "name": "F5",
          "ticks": 138240,
          "time": 108,
          "velocity": 0.41732283464566927
        },
        {
          "duration": 0.8843750000000057,
          "durationTicks": 1132,
          "midi": 82,
          "name": "A#5",
          "ticks": 138240,
          "time": 108,
          "velocity": 0.4330708661417323
        },
        {
          "duration": 0.12343749999999432,
          "durationTicks": 158,
          "midi": 56,
          "name": "G#3",
          "ticks": 140160,
          "time": 109.5,
          "velocity": 0.1889763779527559
        },
        {
          "duration": 0.11562499999999432,
          "durationTicks": 148,
          "midi": 62,
          "name": "D4",
          "ticks": 140160,
          "time": 109.5,
          "velocity": 0.15748031496062992
        },
        {
          "duration": 0.13515624999999432,
          "durationTicks": 173,
          "midi": 68,
          "name": "G#4",
          "ticks": 140160,
          "time": 109.5,
          "velocity": 0.2125984251968504
        },
        {
          "duration": 0.14374999999999716,
          "durationTicks": 184,
          "midi": 71,
          "name": "B4",
          "ticks": 140160,
          "time": 109.5,
          "velocity": 0.2283464566929134
        },
        {
          "duration": 0.13984374999998295,
          "durationTicks": 179,
          "midi": 76,
          "name": "E5",
          "ticks": 140160,
          "time": 109.5,
          "velocity": 0.23622047244094488
        },
        {
          "duration": 0.2109375,
          "durationTicks": 270,
          "midi": 56,
          "name": "G#3",
          "ticks": 140520,
          "time": 109.78125,
          "velocity": 0.3543307086614173
        },
        {
          "duration": 0.17890624999999716,
          "durationTicks": 229,
          "midi": 62,
          "name": "D4",
          "ticks": 140520,
          "time": 109.78125,
          "velocity": 0.2992125984251969
        },
        {
          "duration": 0.3648437500000057,
          "durationTicks": 467,
          "midi": 68,
          "name": "G#4",
          "ticks": 140520,
          "time": 109.78125,
          "velocity": 0.4881889763779528
        },
        {
          "duration": 0.18906250000000568,
          "durationTicks": 242,
          "midi": 71,
          "name": "B4",
          "ticks": 140520,
          "time": 109.78125,
          "velocity": 0.4881889763779528
        },
        {
          "duration": 0.12968750000001705,
          "durationTicks": 166,
          "midi": 76,
          "name": "E5",
          "ticks": 140520,
          "time": 109.78125,
          "velocity": 0.5196850393700787
        },
        {
          "duration": 0.19453125000001137,
          "durationTicks": 249,
          "midi": 74,
          "name": "D5",
          "ticks": 140880,
          "time": 110.0625,
          "velocity": 0.11023622047244094
        },
        {
          "duration": 0.7671875000000057,
          "durationTicks": 982,
          "midi": 49,
          "name": "C#3",
          "ticks": 141240,
          "time": 110.34375,
          "velocity": 0.2755905511811024
        },
        {
          "duration": 0.7054687500000085,
          "durationTicks": 903,
          "midi": 61,
          "name": "C#4",
          "ticks": 141240,
          "time": 110.34375,
          "velocity": 0.2440944881889764
        },
        {
          "duration": 0.6648437500000028,
          "durationTicks": 851,
          "midi": 64,
          "name": "E4",
          "ticks": 141240,
          "time": 110.34375,
          "velocity": 0.25984251968503935
        },
        {
          "duration": 0.6796875,
          "durationTicks": 870,
          "midi": 67,
          "name": "G4",
          "ticks": 141240,
          "time": 110.34375,
          "velocity": 0.33070866141732286
        },
        {
          "duration": 0.7351562500000028,
          "durationTicks": 941,
          "midi": 73,
          "name": "C#5",
          "ticks": 141240,
          "time": 110.34375,
          "velocity": 0.4330708661417323
        },
        {
          "duration": 0.22734374999998863,
          "durationTicks": 291,
          "midi": 48,
          "name": "C3",
          "ticks": 143400,
          "time": 112.03125,
          "velocity": 0.2047244094488189
        },
        {
          "duration": 0.18359375,
          "durationTicks": 235,
          "midi": 60,
          "name": "C4",
          "ticks": 143400,
          "time": 112.03125,
          "velocity": 0.23622047244094488
        },
        {
          "duration": 0.21718749999999432,
          "durationTicks": 278,
          "midi": 66,
          "name": "F#4",
          "ticks": 143400,
          "time": 112.03125,
          "velocity": 0.33070866141732286
        },
        {
          "duration": 0.19140625,
          "durationTicks": 245,
          "midi": 69,
          "name": "A4",
          "ticks": 143400,
          "time": 112.03125,
          "velocity": 0.4881889763779528
        },
        {
          "duration": 0.18203124999999432,
          "durationTicks": 233,
          "midi": 74,
          "name": "D5",
          "ticks": 143400,
          "time": 112.03125,
          "velocity": 0.5433070866141733
        },
        {
          "duration": 0.5843749999999943,
          "durationTicks": 748,
          "midi": 47,
          "name": "B2",
          "ticks": 144000,
          "time": 112.5,
          "velocity": 0.16535433070866143
        },
        {
          "duration": 0.6531250000000028,
          "durationTicks": 836,
          "midi": 59,
          "name": "B3",
          "ticks": 144000,
          "time": 112.5,
          "velocity": 0.18110236220472442
        },
        {
          "duration": 0.6148437500000057,
          "durationTicks": 787,
          "midi": 62,
          "name": "D4",
          "ticks": 144000,
          "time": 112.5,
          "velocity": 0.25984251968503935
        },
        {
          "duration": 0.64453125,
          "durationTicks": 825,
          "midi": 65,
          "name": "F4",
          "ticks": 144000,
          "time": 112.5,
          "velocity": 0.25984251968503935
        },
        {
          "duration": 0.6898437499999943,
          "durationTicks": 883,
          "midi": 71,
          "name": "B4",
          "ticks": 144000,
          "time": 112.5,
          "velocity": 0.3700787401574803
        },
        {
          "duration": 0.45703125,
          "durationTicks": 585,
          "midi": 52,
          "name": "E3",
          "ticks": 145440,
          "time": 113.625,
          "velocity": 0.12598425196850394
        },
        {
          "duration": 0.4515624999999943,
          "durationTicks": 578,
          "midi": 58,
          "name": "A#3",
          "ticks": 145440,
          "time": 113.625,
          "velocity": 0.14960629921259844
        },
        {
          "duration": 0.4742187500000057,
          "durationTicks": 607,
          "midi": 62,
          "name": "D4",
          "ticks": 145440,
          "time": 113.625,
          "velocity": 0.10236220472440945
        },
        {
          "duration": 0.45234375000001137,
          "durationTicks": 579,
          "midi": 67,
          "name": "G4",
          "ticks": 145440,
          "time": 113.625,
          "velocity": 0.16535433070866143
        },
        {
          "duration": 0.41093750000001705,
          "durationTicks": 526,
          "midi": 70,
          "name": "A#4",
          "ticks": 145440,
          "time": 113.625,
          "velocity": 0.2125984251968504
        },
        {
          "duration": 0.3960937499999915,
          "durationTicks": 507,
          "midi": 73,
          "name": "C#5",
          "ticks": 145440,
          "time": 113.625,
          "velocity": 0.29133858267716534
        },
        {
          "duration": 0.42109374999998295,
          "durationTicks": 539,
          "midi": 76,
          "name": "E5",
          "ticks": 145440,
          "time": 113.625,
          "velocity": 0.1732283464566929
        },
        {
          "duration": 0.11875000000000568,
          "durationTicks": 152,
          "midi": 77,
          "name": "F5",
          "ticks": 146640,
          "time": 114.5625,
          "velocity": 0.4330708661417323
        },
        {
          "duration": 0.6984375000000114,
          "durationTicks": 894,
          "midi": 57,
          "name": "A3",
          "ticks": 147000,
          "time": 114.84375,
          "velocity": 0.4094488188976378
        },
        {
          "duration": 0.667187499999983,
          "durationTicks": 854,
          "midi": 62,
          "name": "D4",
          "ticks": 147000,
          "time": 114.84375,
          "velocity": 0.3700787401574803
        },
        {
          "duration": 0.6546874999999943,
          "durationTicks": 838,
          "midi": 67,
          "name": "G4",
          "ticks": 147000,
          "time": 114.84375,
          "velocity": 0.28346456692913385
        },
        {
          "duration": 0.6609374999999886,
          "durationTicks": 846,
          "midi": 69,
          "name": "A4",
          "ticks": 147000,
          "time": 114.84375,
          "velocity": 0.4881889763779528
        },
        {
          "duration": 0.6843749999999886,
          "durationTicks": 876,
          "midi": 74,
          "name": "D5",
          "ticks": 147000,
          "time": 114.84375,
          "velocity": 0.5039370078740157
        },
        {
          "duration": 0.6015625,
          "durationTicks": 770,
          "midi": 81,
          "name": "A5",
          "ticks": 147000,
          "time": 114.84375,
          "velocity": 0.5196850393700787
        },
        {
          "duration": 0.10234375000000284,
          "durationTicks": 131,
          "midi": 77,
          "name": "F5",
          "ticks": 147720,
          "time": 115.40625,
          "velocity": 0.25984251968503935
        },
        {
          "duration": 0.6062500000000028,
          "durationTicks": 776,
          "midi": 57,
          "name": "A3",
          "ticks": 148320,
          "time": 115.875,
          "velocity": 0.14960629921259844
        },
        {
          "duration": 0.6031250000000057,
          "durationTicks": 772,
          "midi": 62,
          "name": "D4",
          "ticks": 148320,
          "time": 115.875,
          "velocity": 0.15748031496062992
        },
        {
          "duration": 0.5640625000000057,
          "durationTicks": 722,
          "midi": 67,
          "name": "G4",
          "ticks": 148320,
          "time": 115.875,
          "velocity": 0.09448818897637795
        },
        {
          "duration": 0.59765625,
          "durationTicks": 765,
          "midi": 69,
          "name": "A4",
          "ticks": 148320,
          "time": 115.875,
          "velocity": 0.25984251968503935
        },
        {
          "duration": 0.6226562500000057,
          "durationTicks": 797,
          "midi": 72,
          "name": "C5",
          "ticks": 148320,
          "time": 115.875,
          "velocity": 0.28346456692913385
        },
        {
          "duration": 0.11953125000000853,
          "durationTicks": 153,
          "midi": 57,
          "name": "A3",
          "ticks": 150600,
          "time": 117.65625,
          "velocity": 0.47244094488188976
        },
        {
          "duration": 0.12343749999999432,
          "durationTicks": 158,
          "midi": 61,
          "name": "C#4",
          "ticks": 150600,
          "time": 117.65625,
          "velocity": 0.25984251968503935
        },
        {
          "duration": 0.11953125000000853,
          "durationTicks": 153,
          "midi": 62,
          "name": "D4",
          "ticks": 150600,
          "time": 117.65625,
          "velocity": 0.47244094488188976
        },
        {
          "duration": 0.12187499999998863,
          "durationTicks": 156,
          "midi": 66,
          "name": "F#4",
          "ticks": 150600,
          "time": 117.65625,
          "velocity": 0.2755905511811024
        },
        {
          "duration": 0.17343749999999147,
          "durationTicks": 222,
          "midi": 71,
          "name": "B4",
          "ticks": 150600,
          "time": 117.65625,
          "velocity": 0.5433070866141733
        },
        {
          "duration": 0.1640625,
          "durationTicks": 210,
          "midi": 78,
          "name": "F#5",
          "ticks": 150600,
          "time": 117.65625,
          "velocity": 0.6220472440944882
        },
        {
          "duration": 0.14687499999999432,
          "durationTicks": 188,
          "midi": 83,
          "name": "B5",
          "ticks": 150600,
          "time": 117.65625,
          "velocity": 0.5275590551181102
        },
        {
          "duration": 0.596874999999983,
          "durationTicks": 764,
          "midi": 56,
          "name": "G#3",
          "ticks": 151200,
          "time": 118.125,
          "velocity": 0.2992125984251969
        },
        {
          "duration": 0.5640625000000057,
          "durationTicks": 722,
          "midi": 62,
          "name": "D4",
          "ticks": 151200,
          "time": 118.125,
          "velocity": 0.41732283464566927
        },
        {
          "duration": 0.58203125,
          "durationTicks": 745,
          "midi": 66,
          "name": "F#4",
          "ticks": 151200,
          "time": 118.125,
          "velocity": 0.28346456692913385
        },
        {
          "duration": 0.6195312499999943,
          "durationTicks": 793,
          "midi": 68,
          "name": "G#4",
          "ticks": 151200,
          "time": 118.125,
          "velocity": 0.4015748031496063
        },
        {
          "duration": 0.59765625,
          "durationTicks": 765,
          "midi": 80,
          "name": "G#5",
          "ticks": 151200,
          "time": 118.125,
          "velocity": 0.4566929133858268
        },
        {
          "duration": 0.07968749999999147,
          "durationTicks": 102,
          "midi": 59,
          "name": "B3",
          "ticks": 152880,
          "time": 119.4375,
          "velocity": 0.25196850393700787
        },
        {
          "duration": 0.09609375000000853,
          "durationTicks": 123,
          "midi": 64,
          "name": "E4",
          "ticks": 152880,
          "time": 119.4375,
          "velocity": 0.1889763779527559
        },
        {
          "duration": 0.07578125000000568,
          "durationTicks": 97,
          "midi": 71,
          "name": "B4",
          "ticks": 152880,
          "time": 119.4375,
          "velocity": 0.3700787401574803
        },
        {
          "duration": 0.07578125000000568,
          "durationTicks": 97,
          "midi": 76,
          "name": "E5",
          "ticks": 152880,
          "time": 119.4375,
          "velocity": 0.44881889763779526
        },
        {
          "duration": 0.11328125,
          "durationTicks": 145,
          "midi": 80,
          "name": "G#5",
          "ticks": 152880,
          "time": 119.4375,
          "velocity": 0.3779527559055118
        },
        {
          "duration": 0.19218749999998863,
          "durationTicks": 246,
          "midi": 57,
          "name": "A3",
          "ticks": 153360,
          "time": 119.8125,
          "velocity": 0.2047244094488189
        },
        {
          "duration": 0.19374999999999432,
          "durationTicks": 248,
          "midi": 59,
          "name": "B3",
          "ticks": 153360,
          "time": 119.8125,
          "velocity": 0.29133858267716534
        },
        {
          "duration": 0.20859374999999147,
          "durationTicks": 267,
          "midi": 64,
          "name": "E4",
          "ticks": 153360,
          "time": 119.8125,
          "velocity": 0.25984251968503935
        },
        {
          "duration": 0.2632812500000057,
          "durationTicks": 337,
          "midi": 68,
          "name": "G#4",
          "ticks": 153360,
          "time": 119.8125,
          "velocity": 0.6220472440944882
        },
        {
          "duration": 0.2906249999999915,
          "durationTicks": 372,
          "midi": 73,
          "name": "C#5",
          "ticks": 153360,
          "time": 119.8125,
          "velocity": 0.5275590551181102
        },
        {
          "duration": 0.3218750000000057,
          "durationTicks": 412,
          "midi": 76,
          "name": "E5",
          "ticks": 153360,
          "time": 119.8125,
          "velocity": 0.6220472440944882
        },
        {
          "duration": 0.19453125000001137,
          "durationTicks": 249,
          "midi": 74,
          "name": "D5",
          "ticks": 153840,
          "time": 120.1875,
          "velocity": 0.4409448818897638
        },
        {
          "duration": 0.3531250000000057,
          "durationTicks": 452,
          "midi": 57,
          "name": "A3",
          "ticks": 154080,
          "time": 120.375,
          "velocity": 0.14960629921259844
        },
        {
          "duration": 0.33906249999998295,
          "durationTicks": 434,
          "midi": 61,
          "name": "C#4",
          "ticks": 154080,
          "time": 120.375,
          "velocity": 0.2125984251968504
        },
        {
          "duration": 0.33984375,
          "durationTicks": 435,
          "midi": 62,
          "name": "D4",
          "ticks": 154080,
          "time": 120.375,
          "velocity": 0.25984251968503935
        },
        {
          "duration": 0.3203125,
          "durationTicks": 410,
          "midi": 66,
          "name": "F#4",
          "ticks": 154080,
          "time": 120.375,
          "velocity": 0.3543307086614173
        },
        {
          "duration": 0.2867187500000057,
          "durationTicks": 367,
          "midi": 73,
          "name": "C#5",
          "ticks": 154080,
          "time": 120.375,
          "velocity": 0.4330708661417323
        },
        {
          "duration": 0.12578125000000284,
          "durationTicks": 161,
          "midi": 57,
          "name": "A3",
          "ticks": 154920,
          "time": 121.03125,
          "velocity": 0.16535433070866143
        },
        {
          "duration": 0.12968750000001705,
          "durationTicks": 166,
          "midi": 61,
          "name": "C#4",
          "ticks": 154920,
          "time": 121.03125,
          "velocity": 0.1889763779527559
        },
        {
          "duration": 0.11015624999998863,
          "durationTicks": 141,
          "midi": 62,
          "name": "D4",
          "ticks": 154920,
          "time": 121.03125,
          "velocity": 0.2440944881889764
        },
        {
          "duration": 0.15859374999999432,
          "durationTicks": 203,
          "midi": 66,
          "name": "F#4",
          "ticks": 154920,
          "time": 121.03125,
          "velocity": 0.25984251968503935
        },
        {
          "duration": 0.140625,
          "durationTicks": 180,
          "midi": 69,
          "name": "A4",
          "ticks": 154920,
          "time": 121.03125,
          "velocity": 0.29133858267716534
        },
        {
          "duration": 0.3359375,
          "durationTicks": 430,
          "midi": 45,
          "name": "A2",
          "ticks": 155520,
          "time": 121.5,
          "velocity": 0.1968503937007874
        },
        {
          "duration": 0.3695312499999943,
          "durationTicks": 473,
          "midi": 56,
          "name": "G#3",
          "ticks": 155520,
          "time": 121.5,
          "velocity": 0.2125984251968504
        },
        {
          "duration": 0.38984374999999716,
          "durationTicks": 499,
          "midi": 59,
          "name": "B3",
          "ticks": 155520,
          "time": 121.5,
          "velocity": 0.18110236220472442
        },
        {
          "duration": 0.4203124999999943,
          "durationTicks": 538,
          "midi": 61,
          "name": "C#4",
          "ticks": 155520,
          "time": 121.5,
          "velocity": 0.1732283464566929
        },
        {
          "duration": 0.41875000000000284,
          "durationTicks": 536,
          "midi": 64,
          "name": "E4",
          "ticks": 155520,
          "time": 121.5,
          "velocity": 0.33070866141732286
        },
        {
          "duration": 0.4429687499999915,
          "durationTicks": 567,
          "midi": 68,
          "name": "G#4",
          "ticks": 155520,
          "time": 121.5,
          "velocity": 0.2204724409448819
        },
        {
          "duration": 0.10781250000000853,
          "durationTicks": 138,
          "midi": 56,
          "name": "G#3",
          "ticks": 156960,
          "time": 122.625,
          "velocity": 0.15748031496062992
        },
        {
          "duration": 0.09765625,
          "durationTicks": 125,
          "midi": 59,
          "name": "B3",
          "ticks": 156960,
          "time": 122.625,
          "velocity": 0.1889763779527559
        },
        {
          "duration": 0.09140624999999147,
          "durationTicks": 117,
          "midi": 64,
          "name": "E4",
          "ticks": 156960,
          "time": 122.625,
          "velocity": 0.07874015748031496
        },
        {
          "duration": 0.12421875000001137,
          "durationTicks": 159,
          "midi": 73,
          "name": "C#5",
          "ticks": 156960,
          "time": 122.625,
          "velocity": 0.05511811023622047
        },
        {
          "duration": 0.125,
          "durationTicks": 160,
          "midi": 80,
          "name": "G#5",
          "ticks": 156960,
          "time": 122.625,
          "velocity": 0.13385826771653545
        },
        {
          "duration": 0.12265625000000568,
          "durationTicks": 157,
          "midi": 85,
          "name": "C#6",
          "ticks": 156960,
          "time": 122.625,
          "velocity": 0.047244094488188976
        },
        {
          "duration": 0.10859374999999716,
          "durationTicks": 139,
          "midi": 56,
          "name": "G#3",
          "ticks": 157200,
          "time": 122.8125,
          "velocity": 0.2677165354330709
        },
        {
          "duration": 0.09453125000001705,
          "durationTicks": 121,
          "midi": 59,
          "name": "B3",
          "ticks": 157200,
          "time": 122.8125,
          "velocity": 0.4330708661417323
        },
        {
          "duration": 0.09453125000001705,
          "durationTicks": 121,
          "midi": 64,
          "name": "E4",
          "ticks": 157200,
          "time": 122.8125,
          "velocity": 0.31496062992125984
        },
        {
          "duration": 0.09843749999998863,
          "durationTicks": 126,
          "midi": 73,
          "name": "C#5",
          "ticks": 157200,
          "time": 122.8125,
          "velocity": 0.4409448818897638
        },
        {
          "duration": 0.10390624999999432,
          "durationTicks": 133,
          "midi": 80,
          "name": "G#5",
          "ticks": 157200,
          "time": 122.8125,
          "velocity": 0.4409448818897638
        },
        {
          "duration": 0.11953125000000853,
          "durationTicks": 153,
          "midi": 85,
          "name": "C#6",
          "ticks": 157200,
          "time": 122.8125,
          "velocity": 0.48031496062992124
        },
        {
          "duration": 0.15859374999999432,
          "durationTicks": 203,
          "midi": 56,
          "name": "G#3",
          "ticks": 157680,
          "time": 123.1875,
          "velocity": 0.5196850393700787
        },
        {
          "duration": 0.15781250000000568,
          "durationTicks": 202,
          "midi": 59,
          "name": "B3",
          "ticks": 157680,
          "time": 123.1875,
          "velocity": 0.5196850393700787
        },
        {
          "duration": 0.1640625,
          "durationTicks": 210,
          "midi": 64,
          "name": "E4",
          "ticks": 157680,
          "time": 123.1875,
          "velocity": 0.4881889763779528
        },
        {
          "duration": 0.3687500000000057,
          "durationTicks": 472,
          "midi": 73,
          "name": "C#5",
          "ticks": 157680,
          "time": 123.1875,
          "velocity": 0.6220472440944882
        },
        {
          "duration": 0.17499999999998295,
          "durationTicks": 224,
          "midi": 80,
          "name": "G#5",
          "ticks": 157680,
          "time": 123.1875,
          "velocity": 0.5748031496062992
        },
        {
          "duration": 0.35859375000001137,
          "durationTicks": 459,
          "midi": 85,
          "name": "C#6",
          "ticks": 157680,
          "time": 123.1875,
          "velocity": 0.6456692913385826
        },
        {
          "duration": 0.10625000000001705,
          "durationTicks": 136,
          "midi": 56,
          "name": "G#3",
          "ticks": 157920,
          "time": 123.375,
          "velocity": 0.2125984251968504
        },
        {
          "duration": 0.08515624999999716,
          "durationTicks": 109,
          "midi": 59,
          "name": "B3",
          "ticks": 157920,
          "time": 123.375,
          "velocity": 0.3228346456692913
        },
        {
          "duration": 0.07968749999999147,
          "durationTicks": 102,
          "midi": 64,
          "name": "E4",
          "ticks": 157920,
          "time": 123.375,
          "velocity": 0.18110236220472442
        },
        {
          "duration": 0.13125000000000853,
          "durationTicks": 168,
          "midi": 80,
          "name": "G#5",
          "ticks": 157920,
          "time": 123.375,
          "velocity": 0.2047244094488189
        },
        {
          "duration": 0.23203124999999147,
          "durationTicks": 297,
          "midi": 53,
          "name": "F3",
          "ticks": 158280,
          "time": 123.65625,
          "velocity": 0.36220472440944884
        },
        {
          "duration": 0.22343750000001705,
          "durationTicks": 286,
          "midi": 58,
          "name": "A#3",
          "ticks": 158280,
          "time": 123.65625,
          "velocity": 0.4409448818897638
        },
        {
          "duration": 0.22109374999999432,
          "durationTicks": 283,
          "midi": 62,
          "name": "D4",
          "ticks": 158280,
          "time": 123.65625,
          "velocity": 0.4330708661417323
        },
        {
          "duration": 0.2679687499999943,
          "durationTicks": 343,
          "midi": 74,
          "name": "D5",
          "ticks": 158280,
          "time": 123.65625,
          "velocity": 0.5275590551181102
        },
        {
          "duration": 0.24296875000000284,
          "durationTicks": 311,
          "midi": 80,
          "name": "G#5",
          "ticks": 158280,
          "time": 123.65625,
          "velocity": 0.5590551181102362
        },
        {
          "duration": 0.22265625,
          "durationTicks": 285,
          "midi": 86,
          "name": "D6",
          "ticks": 158280,
          "time": 123.65625,
          "velocity": 0.5984251968503937
        },
        {
          "duration": 0.07734375000001137,
          "durationTicks": 99,
          "midi": 81,
          "name": "A5",
          "ticks": 158520,
          "time": 123.84375,
          "velocity": 0.23622047244094488
        },
        {
          "duration": 0.12968750000001705,
          "durationTicks": 166,
          "midi": 53,
          "name": "F3",
          "ticks": 159120,
          "time": 124.3125,
          "velocity": 0.3700787401574803
        },
        {
          "duration": 0.13515624999999432,
          "durationTicks": 173,
          "midi": 57,
          "name": "A3",
          "ticks": 159120,
          "time": 124.3125,
          "velocity": 0.41732283464566927
        },
        {
          "duration": 0.13671875,
          "durationTicks": 175,
          "midi": 58,
          "name": "A#3",
          "ticks": 159120,
          "time": 124.3125,
          "velocity": 0.31496062992125984
        },
        {
          "duration": 0.13046875000000568,
          "durationTicks": 167,
          "midi": 62,
          "name": "D4",
          "ticks": 159120,
          "time": 124.3125,
          "velocity": 0.4330708661417323
        },
        {
          "duration": 0.14531249999998863,
          "durationTicks": 186,
          "midi": 69,
          "name": "A4",
          "ticks": 159120,
          "time": 124.3125,
          "velocity": 0.44881889763779526
        },
        {
          "duration": 0.17265625000000284,
          "durationTicks": 221,
          "midi": 74,
          "name": "D5",
          "ticks": 159120,
          "time": 124.3125,
          "velocity": 0.5039370078740157
        },
        {
          "duration": 0.1875,
          "durationTicks": 240,
          "midi": 77,
          "name": "F5",
          "ticks": 159120,
          "time": 124.3125,
          "velocity": 0.49606299212598426
        },
        {
          "duration": 0.19453125000001137,
          "durationTicks": 249,
          "midi": 81,
          "name": "A5",
          "ticks": 159120,
          "time": 124.3125,
          "velocity": 0.5196850393700787
        },
        {
          "duration": 0.8046875,
          "durationTicks": 1030,
          "midi": 52,
          "name": "E3",
          "ticks": 159840,
          "time": 124.875,
          "velocity": 0.33070866141732286
        },
        {
          "duration": 0.8718749999999886,
          "durationTicks": 1116,
          "midi": 58,
          "name": "A#3",
          "ticks": 159840,
          "time": 124.875,
          "velocity": 0.3228346456692913
        },
        {
          "duration": 0.856250000000017,
          "durationTicks": 1096,
          "midi": 62,
          "name": "D4",
          "ticks": 159840,
          "time": 124.875,
          "velocity": 0.4094488188976378
        },
        {
          "duration": 0.8234374999999972,
          "durationTicks": 1054,
          "midi": 74,
          "name": "D5",
          "ticks": 159840,
          "time": 124.875,
          "velocity": 0.44881889763779526
        },
        {
          "duration": 0.22421875000000568,
          "durationTicks": 287,
          "midi": 80,
          "name": "G#5",
          "ticks": 159840,
          "time": 124.875,
          "velocity": 0.4409448818897638
        },
        {
          "duration": 0.8585937499999972,
          "durationTicks": 1099,
          "midi": 86,
          "name": "D6",
          "ticks": 159840,
          "time": 124.875,
          "velocity": 0.5039370078740157
        },
        {
          "duration": 0.6656249999999915,
          "durationTicks": 852,
          "midi": 81,
          "name": "A5",
          "ticks": 160080,
          "time": 125.0625,
          "velocity": 0.33070866141732286
        },
        {
          "duration": 0.14296875000000853,
          "durationTicks": 183,
          "midi": 59,
          "name": "B3",
          "ticks": 162600,
          "time": 127.03125,
          "velocity": 0.18110236220472442
        },
        {
          "duration": 0.1484375,
          "durationTicks": 190,
          "midi": 60,
          "name": "C4",
          "ticks": 162600,
          "time": 127.03125,
          "velocity": 0.1732283464566929
        },
        {
          "duration": 0.15234375,
          "durationTicks": 195,
          "midi": 64,
          "name": "E4",
          "ticks": 162600,
          "time": 127.03125,
          "velocity": 0.11811023622047244
        },
        {
          "duration": 0.21406249999999716,
          "durationTicks": 274,
          "midi": 72,
          "name": "C5",
          "ticks": 162600,
          "time": 127.03125,
          "velocity": 0.18110236220472442
        },
        {
          "duration": 0.2109375,
          "durationTicks": 270,
          "midi": 81,
          "name": "A5",
          "ticks": 162600,
          "time": 127.03125,
          "velocity": 0.23622047244094488
        },
        {
          "duration": 0.20078125000000568,
          "durationTicks": 257,
          "midi": 84,
          "name": "C6",
          "ticks": 162600,
          "time": 127.03125,
          "velocity": 0.1968503937007874
        },
        {
          "duration": 0.12968750000001705,
          "durationTicks": 166,
          "midi": 55,
          "name": "G3",
          "ticks": 162720,
          "time": 127.125,
          "velocity": 0.13385826771653545
        },
        {
          "duration": 0.12265625000000568,
          "durationTicks": 157,
          "midi": 55,
          "name": "G3",
          "ticks": 163080,
          "time": 127.40625,
          "velocity": 0.4015748031496063
        },
        {
          "duration": 0.12890625,
          "durationTicks": 165,
          "midi": 59,
          "name": "B3",
          "ticks": 163080,
          "time": 127.40625,
          "velocity": 0.4094488188976378
        },
        {
          "duration": 0.13906249999999432,
          "durationTicks": 178,
          "midi": 60,
          "name": "C4",
          "ticks": 163080,
          "time": 127.40625,
          "velocity": 0.3543307086614173
        },
        {
          "duration": 0.14609375000000568,
          "durationTicks": 187,
          "midi": 64,
          "name": "E4",
          "ticks": 163080,
          "time": 127.40625,
          "velocity": 0.3543307086614173
        },
        {
          "duration": 0.11328125,
          "durationTicks": 145,
          "midi": 72,
          "name": "C5",
          "ticks": 163080,
          "time": 127.40625,
          "velocity": 0.5275590551181102
        },
        {
          "duration": 0.171875,
          "durationTicks": 220,
          "midi": 81,
          "name": "A5",
          "ticks": 163080,
          "time": 127.40625,
          "velocity": 0.5354330708661418
        },
        {
          "duration": 0.16953125000000568,
          "durationTicks": 217,
          "midi": 84,
          "name": "C6",
          "ticks": 163080,
          "time": 127.40625,
          "velocity": 0.5196850393700787
        },
        {
          "duration": 0.24921875000001137,
          "durationTicks": 319,
          "midi": 54,
          "name": "F#3",
          "ticks": 163560,
          "time": 127.78125,
          "velocity": 0.2677165354330709
        },
        {
          "duration": 0.23828125,
          "durationTicks": 305,
          "midi": 60,
          "name": "C4",
          "ticks": 163560,
          "time": 127.78125,
          "velocity": 0.28346456692913385
        },
        {
          "duration": 0.22500000000002274,
          "durationTicks": 288,
          "midi": 65,
          "name": "F4",
          "ticks": 163560,
          "time": 127.78125,
          "velocity": 0.3543307086614173
        },
        {
          "duration": 0.31640625,
          "durationTicks": 405,
          "midi": 75,
          "name": "D#5",
          "ticks": 163560,
          "time": 127.78125,
          "velocity": 0.23622047244094488
        },
        {
          "duration": 0.2562499999999943,
          "durationTicks": 328,
          "midi": 80,
          "name": "G#5",
          "ticks": 163560,
          "time": 127.78125,
          "velocity": 0.3543307086614173
        },
        {
          "duration": 0.21796875000001137,
          "durationTicks": 279,
          "midi": 81,
          "name": "A5",
          "ticks": 163920,
          "time": 128.0625,
          "velocity": 0.33858267716535434
        },
        {
          "duration": 0.64453125,
          "durationTicks": 825,
          "midi": 53,
          "name": "F3",
          "ticks": 164160,
          "time": 128.25,
          "velocity": 0.1732283464566929
        },
        {
          "duration": 0.6617187500000057,
          "durationTicks": 847,
          "midi": 57,
          "name": "A3",
          "ticks": 164160,
          "time": 128.25,
          "velocity": 0.2677165354330709
        },
        {
          "duration": 0.6648437499999886,
          "durationTicks": 851,
          "midi": 58,
          "name": "A#3",
          "ticks": 164160,
          "time": 128.25,
          "velocity": 0.1889763779527559
        },
        {
          "duration": 0.6765624999999886,
          "durationTicks": 866,
          "midi": 62,
          "name": "D4",
          "ticks": 164160,
          "time": 128.25,
          "velocity": 0.33070866141732286
        },
        {
          "duration": 0.6734375000000057,
          "durationTicks": 862,
          "midi": 74,
          "name": "D5",
          "ticks": 164160,
          "time": 128.25,
          "velocity": 0.2047244094488189
        },
        {
          "duration": 0.65234375,
          "durationTicks": 835,
          "midi": 79,
          "name": "G5",
          "ticks": 164160,
          "time": 128.25,
          "velocity": 0.25984251968503935
        },
        {
          "duration": 0.6460937500000057,
          "durationTicks": 827,
          "midi": 82,
          "name": "A#5",
          "ticks": 164160,
          "time": 128.25,
          "velocity": 0.2125984251968504
        },
        {
          "duration": 0.5546875,
          "durationTicks": 710,
          "midi": 55,
          "name": "G3",
          "ticks": 165480,
          "time": 129.28125,
          "velocity": 0.28346456692913385
        },
        {
          "duration": 0.578125,
          "durationTicks": 740,
          "midi": 70,
          "name": "A#4",
          "ticks": 165480,
          "time": 129.28125,
          "velocity": 0.33858267716535434
        },
        {
          "duration": 0.5124999999999886,
          "durationTicks": 656,
          "midi": 61,
          "name": "C#4",
          "ticks": 165600,
          "time": 129.375,
          "velocity": 0.23622047244094488
        },
        {
          "duration": 0.4749999999999943,
          "durationTicks": 608,
          "midi": 65,
          "name": "F4",
          "ticks": 165600,
          "time": 129.375,
          "velocity": 0.29133858267716534
        },
        {
          "duration": 0.5296875000000227,
          "durationTicks": 678,
          "midi": 73,
          "name": "C#5",
          "ticks": 165600,
          "time": 129.375,
          "velocity": 0.4409448818897638
        },
        {
          "duration": 0.5374999999999943,
          "durationTicks": 688,
          "midi": 78,
          "name": "F#5",
          "ticks": 165600,
          "time": 129.375,
          "velocity": 0.4566929133858268
        },
        {
          "duration": 0.5226562500000114,
          "durationTicks": 669,
          "midi": 81,
          "name": "A5",
          "ticks": 165600,
          "time": 129.375,
          "velocity": 0.5039370078740157
        },
        {
          "duration": 0.24843750000002274,
          "durationTicks": 318,
          "midi": 55,
          "name": "G3",
          "ticks": 166440,
          "time": 130.03125,
          "velocity": 0.1889763779527559
        },
        {
          "duration": 0.2867187500000057,
          "durationTicks": 367,
          "midi": 61,
          "name": "C#4",
          "ticks": 166440,
          "time": 130.03125,
          "velocity": 0.2047244094488189
        },
        {
          "duration": 0.2578125,
          "durationTicks": 330,
          "midi": 65,
          "name": "F4",
          "ticks": 166440,
          "time": 130.03125,
          "velocity": 0.1889763779527559
        },
        {
          "duration": 0.33984375,
          "durationTicks": 435,
          "midi": 70,
          "name": "A#4",
          "ticks": 166440,
          "time": 130.03125,
          "velocity": 0.2440944881889764
        },
        {
          "duration": 0.35234375000001705,
          "durationTicks": 451,
          "midi": 73,
          "name": "C#5",
          "ticks": 166440,
          "time": 130.03125,
          "velocity": 0.3543307086614173
        },
        {
          "duration": 0.43671875000001137,
          "durationTicks": 559,
          "midi": 79,
          "name": "G5",
          "ticks": 166440,
          "time": 130.03125,
          "velocity": 0.29133858267716534
        },
        {
          "duration": 0.6171875,
          "durationTicks": 790,
          "midi": 53,
          "name": "F3",
          "ticks": 167040,
          "time": 130.5,
          "velocity": 0.14960629921259844
        },
        {
          "duration": 0.620312499999983,
          "durationTicks": 794,
          "midi": 57,
          "name": "A3",
          "ticks": 167040,
          "time": 130.5,
          "velocity": 0.25196850393700787
        },
        {
          "duration": 0.58203125,
          "durationTicks": 745,
          "midi": 60,
          "name": "C4",
          "ticks": 167040,
          "time": 130.5,
          "velocity": 0.1889763779527559
        },
        {
          "duration": 0.63671875,
          "durationTicks": 815,
          "midi": 64,
          "name": "E4",
          "ticks": 167040,
          "time": 130.5,
          "velocity": 0.1889763779527559
        },
        {
          "duration": 0.620312499999983,
          "durationTicks": 794,
          "midi": 69,
          "name": "A4",
          "ticks": 167040,
          "time": 130.5,
          "velocity": 0.047244094488188976
        },
        {
          "duration": 0.620312499999983,
          "durationTicks": 794,
          "midi": 74,
          "name": "D5",
          "ticks": 167040,
          "time": 130.5,
          "velocity": 0.1732283464566929
        },
        {
          "duration": 0.5929687500000114,
          "durationTicks": 759,
          "midi": 77,
          "name": "F5",
          "ticks": 167040,
          "time": 130.5,
          "velocity": 0.2755905511811024
        },
        {
          "duration": 0.14687499999999432,
          "durationTicks": 188,
          "midi": 58,
          "name": "A#3",
          "ticks": 168480,
          "time": 131.625,
          "velocity": 0.2125984251968504
        },
        {
          "duration": 0.15078124999999432,
          "durationTicks": 193,
          "midi": 63,
          "name": "D#4",
          "ticks": 168480,
          "time": 131.625,
          "velocity": 0.1732283464566929
        },
        {
          "duration": 0.21171875000001705,
          "durationTicks": 271,
          "midi": 67,
          "name": "G4",
          "ticks": 168480,
          "time": 131.625,
          "velocity": 0.18110236220472442
        },
        {
          "duration": 0.21015624999998295,
          "durationTicks": 269,
          "midi": 70,
          "name": "A#4",
          "ticks": 168480,
          "time": 131.625,
          "velocity": 0.18110236220472442
        },
        {
          "duration": 0.18671874999998295,
          "durationTicks": 239,
          "midi": 74,
          "name": "D5",
          "ticks": 168480,
          "time": 131.625,
          "velocity": 0.3700787401574803
        },
        {
          "duration": 0.19062500000001137,
          "durationTicks": 244,
          "midi": 77,
          "name": "F5",
          "ticks": 168480,
          "time": 131.625,
          "velocity": 0.2283464566929134
        },
        {
          "duration": 0.11484374999997726,
          "durationTicks": 147,
          "midi": 58,
          "name": "A#3",
          "ticks": 169320,
          "time": 132.28125,
          "velocity": 0.4409448818897638
        },
        {
          "duration": 0.109375,
          "durationTicks": 140,
          "midi": 63,
          "name": "D#4",
          "ticks": 169320,
          "time": 132.28125,
          "velocity": 0.4094488188976378
        },
        {
          "duration": 0.12031250000001137,
          "durationTicks": 154,
          "midi": 67,
          "name": "G4",
          "ticks": 169320,
          "time": 132.28125,
          "velocity": 0.5354330708661418
        },
        {
          "duration": 0.17109375000001137,
          "durationTicks": 219,
          "midi": 70,
          "name": "A#4",
          "ticks": 169320,
          "time": 132.28125,
          "velocity": 0.5433070866141733
        },
        {
          "duration": 0.17656250000001705,
          "durationTicks": 226,
          "midi": 74,
          "name": "D5",
          "ticks": 169320,
          "time": 132.28125,
          "velocity": 0.5433070866141733
        },
        {
          "duration": 0.08906250000001137,
          "durationTicks": 114,
          "midi": 57,
          "name": "A3",
          "ticks": 169680,
          "time": 132.5625,
          "velocity": 0.29133858267716534
        },
        {
          "duration": 0.16562500000000568,
          "durationTicks": 212,
          "midi": 63,
          "name": "D#4",
          "ticks": 169680,
          "time": 132.5625,
          "velocity": 0.18110236220472442
        },
        {
          "duration": 0.15546875000001137,
          "durationTicks": 199,
          "midi": 66,
          "name": "F#4",
          "ticks": 169680,
          "time": 132.5625,
          "velocity": 0.047244094488188976
        },
        {
          "duration": 1.0242187499999886,
          "durationTicks": 1311,
          "midi": 69,
          "name": "A4",
          "ticks": 169680,
          "time": 132.5625,
          "velocity": 0.15748031496062992
        },
        {
          "duration": 1.0218750000000227,
          "durationTicks": 1308,
          "midi": 72,
          "name": "C5",
          "ticks": 169680,
          "time": 132.5625,
          "velocity": 0.2283464566929134
        },
        {
          "duration": 0.797656250000017,
          "durationTicks": 1021,
          "midi": 57,
          "name": "A3",
          "ticks": 169920,
          "time": 132.75,
          "velocity": 0.31496062992125984
        },
        {
          "duration": 0.7570312500000114,
          "durationTicks": 969,
          "midi": 62,
          "name": "D4",
          "ticks": 169920,
          "time": 132.75,
          "velocity": 0.2677165354330709
        },
        {
          "duration": 0.85546875,
          "durationTicks": 1095,
          "midi": 65,
          "name": "F4",
          "ticks": 169920,
          "time": 132.75,
          "velocity": 0.33070866141732286
        },
        {
          "duration": 0.30546875000001705,
          "durationTicks": 391,
          "midi": 45,
          "name": "A2",
          "ticks": 172200,
          "time": 134.53125,
          "velocity": 0.33070866141732286
        },
        {
          "duration": 0.20390624999998863,
          "durationTicks": 261,
          "midi": 49,
          "name": "C#3",
          "ticks": 172200,
          "time": 134.53125,
          "velocity": 0.28346456692913385
        },
        {
          "duration": 0.29609375000001137,
          "durationTicks": 379,
          "midi": 55,
          "name": "G3",
          "ticks": 172200,
          "time": 134.53125,
          "velocity": 0.33070866141732286
        },
        {
          "duration": 0.3695312499999943,
          "durationTicks": 473,
          "midi": 58,
          "name": "A#3",
          "ticks": 172200,
          "time": 134.53125,
          "velocity": 0.5433070866141733
        },
        {
          "duration": 0.3648437500000057,
          "durationTicks": 467,
          "midi": 63,
          "name": "D#4",
          "ticks": 172200,
          "time": 134.53125,
          "velocity": 0.6614173228346457
        },
        {
          "duration": 0.40937499999998295,
          "durationTicks": 524,
          "midi": 67,
          "name": "G4",
          "ticks": 172200,
          "time": 134.53125,
          "velocity": 0.5354330708661418
        },
        {
          "duration": 0.17031249999999432,
          "durationTicks": 218,
          "midi": 50,
          "name": "D3",
          "ticks": 172800,
          "time": 135,
          "velocity": 0.36220472440944884
        },
        {
          "duration": 0.19374999999999432,
          "durationTicks": 248,
          "midi": 53,
          "name": "F3",
          "ticks": 172800,
          "time": 135,
          "velocity": 0.3543307086614173
        },
        {
          "duration": 0.16953125000000568,
          "durationTicks": 217,
          "midi": 57,
          "name": "A3",
          "ticks": 172800,
          "time": 135,
          "velocity": 0.4094488188976378
        },
        {
          "duration": 0.20156250000002274,
          "durationTicks": 258,
          "midi": 62,
          "name": "D4",
          "ticks": 172800,
          "time": 135,
          "velocity": 0.4330708661417323
        },
        {
          "duration": 0.22578125000001137,
          "durationTicks": 289,
          "midi": 65,
          "name": "F4",
          "ticks": 172800,
          "time": 135,
          "velocity": 0.4330708661417323
        },
        {
          "duration": 0.078125,
          "durationTicks": 100,
          "midi": 50,
          "name": "D3",
          "ticks": 173640,
          "time": 135.65625,
          "velocity": 0.25984251968503935
        },
        {
          "duration": 0.07968749999997726,
          "durationTicks": 102,
          "midi": 53,
          "name": "F3",
          "ticks": 173640,
          "time": 135.65625,
          "velocity": 0.2125984251968504
        },
        {
          "duration": 0.06796874999997726,
          "durationTicks": 87,
          "midi": 57,
          "name": "A3",
          "ticks": 173640,
          "time": 135.65625,
          "velocity": 0.14960629921259844
        },
        {
          "duration": 0.08124999999998295,
          "durationTicks": 104,
          "midi": 60,
          "name": "C4",
          "ticks": 173640,
          "time": 135.65625,
          "velocity": 0.18110236220472442
        },
        {
          "duration": 0.09999999999999432,
          "durationTicks": 128,
          "midi": 65,
          "name": "F4",
          "ticks": 173640,
          "time": 135.65625,
          "velocity": 0.33070866141732286
        },
        {
          "duration": 0.08671874999998863,
          "durationTicks": 111,
          "midi": 69,
          "name": "A4",
          "ticks": 173640,
          "time": 135.65625,
          "velocity": 0.25984251968503935
        },
        {
          "duration": 0.1015625,
          "durationTicks": 130,
          "midi": 72,
          "name": "C5",
          "ticks": 173640,
          "time": 135.65625,
          "velocity": 0.33070866141732286
        },
        {
          "duration": 0.12968750000001705,
          "durationTicks": 166,
          "midi": 76,
          "name": "E5",
          "ticks": 173640,
          "time": 135.65625,
          "velocity": 0.41732283464566927
        },
        {
          "duration": 0.07734375000001137,
          "durationTicks": 99,
          "midi": 52,
          "name": "E3",
          "ticks": 174600,
          "time": 136.40625,
          "velocity": 0.25196850393700787
        },
        {
          "duration": 0.0859375,
          "durationTicks": 110,
          "midi": 56,
          "name": "G#3",
          "ticks": 174600,
          "time": 136.40625,
          "velocity": 0.2125984251968504
        },
        {
          "duration": 0.08750000000000568,
          "durationTicks": 112,
          "midi": 62,
          "name": "D4",
          "ticks": 174600,
          "time": 136.40625,
          "velocity": 0.2755905511811024
        },
        {
          "duration": 0.10703125000000568,
          "durationTicks": 137,
          "midi": 67,
          "name": "G4",
          "ticks": 174600,
          "time": 136.40625,
          "velocity": 0.31496062992125984
        },
        {
          "duration": 0.07265625000002274,
          "durationTicks": 93,
          "midi": 72,
          "name": "C5",
          "ticks": 174600,
          "time": 136.40625,
          "velocity": 0.4015748031496063
        },
        {
          "duration": 0.06484374999999432,
          "durationTicks": 83,
          "midi": 76,
          "name": "E5",
          "ticks": 174600,
          "time": 136.40625,
          "velocity": 0.36220472440944884
        },
        {
          "duration": 0.08750000000000568,
          "durationTicks": 112,
          "midi": 79,
          "name": "G5",
          "ticks": 174600,
          "time": 136.40625,
          "velocity": 0.4094488188976378
        },
        {
          "duration": 0.06171875000001137,
          "durationTicks": 79,
          "midi": 52,
          "name": "E3",
          "ticks": 175080,
          "time": 136.78125,
          "velocity": 0.2440944881889764
        },
        {
          "duration": 0.09218749999999432,
          "durationTicks": 118,
          "midi": 56,
          "name": "G#3",
          "ticks": 175080,
          "time": 136.78125,
          "velocity": 0.1968503937007874
        },
        {
          "duration": 0.08046874999999432,
          "durationTicks": 103,
          "midi": 62,
          "name": "D4",
          "ticks": 175080,
          "time": 136.78125,
          "velocity": 0.1732283464566929
        },
        {
          "duration": 0.1015625,
          "durationTicks": 130,
          "midi": 65,
          "name": "F4",
          "ticks": 175080,
          "time": 136.78125,
          "velocity": 0.3543307086614173
        },
        {
          "duration": 0.11875000000000568,
          "durationTicks": 152,
          "midi": 68,
          "name": "G#4",
          "ticks": 175080,
          "time": 136.78125,
          "velocity": 0.41732283464566927
        },
        {
          "duration": 0.07968749999997726,
          "durationTicks": 102,
          "midi": 71,
          "name": "B4",
          "ticks": 175080,
          "time": 136.78125,
          "velocity": 0.2992125984251969
        },
        {
          "duration": 0.09999999999999432,
          "durationTicks": 128,
          "midi": 76,
          "name": "E5",
          "ticks": 175080,
          "time": 136.78125,
          "velocity": 0.4409448818897638
        },
        {
          "duration": 0.09296874999998295,
          "durationTicks": 119,
          "midi": 55,
          "name": "G3",
          "ticks": 175560,
          "time": 137.15625,
          "velocity": 0.2677165354330709
        },
        {
          "duration": 0.09765625,
          "durationTicks": 125,
          "midi": 59,
          "name": "B3",
          "ticks": 175560,
          "time": 137.15625,
          "velocity": 0.2204724409448819
        },
        {
          "duration": 0.09218749999999432,
          "durationTicks": 118,
          "midi": 60,
          "name": "C4",
          "ticks": 175560,
          "time": 137.15625,
          "velocity": 0.23622047244094488
        },
        {
          "duration": 0.06796874999997726,
          "durationTicks": 87,
          "midi": 64,
          "name": "E4",
          "ticks": 175560,
          "time": 137.15625,
          "velocity": 0.2440944881889764
        },
        {
          "duration": 0.07343750000001137,
          "durationTicks": 94,
          "midi": 67,
          "name": "G4",
          "ticks": 175560,
          "time": 137.15625,
          "velocity": 0.2677165354330709
        },
        {
          "duration": 0.08671874999998863,
          "durationTicks": 111,
          "midi": 69,
          "name": "A4",
          "ticks": 175560,
          "time": 137.15625,
          "velocity": 0.18110236220472442
        },
        {
          "duration": 0.09296874999998295,
          "durationTicks": 119,
          "midi": 72,
          "name": "C5",
          "ticks": 175560,
          "time": 137.15625,
          "velocity": 0.33070866141732286
        },
        {
          "duration": 0.05937500000001705,
          "durationTicks": 76,
          "midi": 55,
          "name": "G3",
          "ticks": 176040,
          "time": 137.53125,
          "velocity": 0.14173228346456693
        },
        {
          "duration": 0.078125,
          "durationTicks": 100,
          "midi": 59,
          "name": "B3",
          "ticks": 176040,
          "time": 137.53125,
          "velocity": 0.16535433070866143
        },
        {
          "duration": 0.08515625000001137,
          "durationTicks": 109,
          "midi": 60,
          "name": "C4",
          "ticks": 176040,
          "time": 137.53125,
          "velocity": 0.1732283464566929
        },
        {
          "duration": 0.08203125,
          "durationTicks": 105,
          "midi": 64,
          "name": "E4",
          "ticks": 176040,
          "time": 137.53125,
          "velocity": 0.1732283464566929
        },
        {
          "duration": 0.08671874999998863,
          "durationTicks": 111,
          "midi": 71,
          "name": "B4",
          "ticks": 176040,
          "time": 137.53125,
          "velocity": 0.3543307086614173
        },
        {
          "duration": 0.08203125,
          "durationTicks": 105,
          "midi": 76,
          "name": "E5",
          "ticks": 176040,
          "time": 137.53125,
          "velocity": 0.3937007874015748
        },
        {
          "duration": 0.07656249999999432,
          "durationTicks": 98,
          "midi": 83,
          "name": "B5",
          "ticks": 176040,
          "time": 137.53125,
          "velocity": 0.4094488188976378
        },
        {
          "duration": 0.08984375,
          "durationTicks": 115,
          "midi": 55,
          "name": "G3",
          "ticks": 176520,
          "time": 137.90625,
          "velocity": 0.23622047244094488
        },
        {
          "duration": 0.08203125,
          "durationTicks": 105,
          "midi": 59,
          "name": "B3",
          "ticks": 176520,
          "time": 137.90625,
          "velocity": 0.1889763779527559
        },
        {
          "duration": 0.08515625000001137,
          "durationTicks": 109,
          "midi": 60,
          "name": "C4",
          "ticks": 176520,
          "time": 137.90625,
          "velocity": 0.1889763779527559
        },
        {
          "duration": 0.07734375000001137,
          "durationTicks": 99,
          "midi": 64,
          "name": "E4",
          "ticks": 176520,
          "time": 137.90625,
          "velocity": 0.1732283464566929
        },
        {
          "duration": 0.0703125,
          "durationTicks": 90,
          "midi": 76,
          "name": "E5",
          "ticks": 176520,
          "time": 137.90625,
          "velocity": 0.25196850393700787
        },
        {
          "duration": 0.08046874999999432,
          "durationTicks": 103,
          "midi": 83,
          "name": "B5",
          "ticks": 176520,
          "time": 137.90625,
          "velocity": 0.28346456692913385
        },
        {
          "duration": 0.08906250000001137,
          "durationTicks": 114,
          "midi": 88,
          "name": "E6",
          "ticks": 176520,
          "time": 137.90625,
          "velocity": 0.4330708661417323
        },
        {
          "duration": 0.078125,
          "durationTicks": 100,
          "midi": 54,
          "name": "F#3",
          "ticks": 177000,
          "time": 138.28125,
          "velocity": 0.23622047244094488
        },
        {
          "duration": 0.1171875,
          "durationTicks": 150,
          "midi": 58,
          "name": "A#3",
          "ticks": 177000,
          "time": 138.28125,
          "velocity": 0.25196850393700787
        },
        {
          "duration": 0.09999999999999432,
          "durationTicks": 128,
          "midi": 60,
          "name": "C4",
          "ticks": 177000,
          "time": 138.28125,
          "velocity": 0.25196850393700787
        },
        {
          "duration": 0.10703125000000568,
          "durationTicks": 137,
          "midi": 65,
          "name": "F4",
          "ticks": 177000,
          "time": 138.28125,
          "velocity": 0.2440944881889764
        },
        {
          "duration": 0.08437500000002274,
          "durationTicks": 108,
          "midi": 77,
          "name": "F5",
          "ticks": 177000,
          "time": 138.28125,
          "velocity": 0.2677165354330709
        },
        {
          "duration": 0.09296874999998295,
          "durationTicks": 119,
          "midi": 84,
          "name": "C6",
          "ticks": 177000,
          "time": 138.28125,
          "velocity": 0.33858267716535434
        },
        {
          "duration": 0.109375,
          "durationTicks": 140,
          "midi": 89,
          "name": "F6",
          "ticks": 177000,
          "time": 138.28125,
          "velocity": 0.36220472440944884
        },
        {
          "duration": 0.06874999999999432,
          "durationTicks": 88,
          "midi": 54,
          "name": "F#3",
          "ticks": 177480,
          "time": 138.65625,
          "velocity": 0.2204724409448819
        },
        {
          "duration": 0.07734375000001137,
          "durationTicks": 99,
          "midi": 58,
          "name": "A#3",
          "ticks": 177480,
          "time": 138.65625,
          "velocity": 0.2047244094488189
        },
        {
          "duration": 0.08437500000002274,
          "durationTicks": 108,
          "midi": 60,
          "name": "C4",
          "ticks": 177480,
          "time": 138.65625,
          "velocity": 0.1968503937007874
        },
        {
          "duration": 0.07734375000001137,
          "durationTicks": 99,
          "midi": 65,
          "name": "F4",
          "ticks": 177480,
          "time": 138.65625,
          "velocity": 0.1968503937007874
        },
        {
          "duration": 0.08671874999998863,
          "durationTicks": 111,
          "midi": 80,
          "name": "G#5",
          "ticks": 177480,
          "time": 138.65625,
          "velocity": 0.3543307086614173
        },
        {
          "duration": 0.09062499999998863,
          "durationTicks": 116,
          "midi": 92,
          "name": "G#6",
          "ticks": 177480,
          "time": 138.65625,
          "velocity": 0.41732283464566927
        },
        {
          "duration": 0.08124999999998295,
          "durationTicks": 104,
          "midi": 54,
          "name": "F#3",
          "ticks": 177960,
          "time": 139.03125,
          "velocity": 0.23622047244094488
        },
        {
          "duration": 0.09453125000001705,
          "durationTicks": 121,
          "midi": 58,
          "name": "A#3",
          "ticks": 177960,
          "time": 139.03125,
          "velocity": 0.25196850393700787
        },
        {
          "duration": 0.09531250000000568,
          "durationTicks": 122,
          "midi": 60,
          "name": "C4",
          "ticks": 177960,
          "time": 139.03125,
          "velocity": 0.1889763779527559
        },
        {
          "duration": 0.08906250000001137,
          "durationTicks": 114,
          "midi": 65,
          "name": "F4",
          "ticks": 177960,
          "time": 139.03125,
          "velocity": 0.2047244094488189
        },
        {
          "duration": 0.07968749999997726,
          "durationTicks": 102,
          "midi": 81,
          "name": "A5",
          "ticks": 177960,
          "time": 139.03125,
          "velocity": 0.3228346456692913
        },
        {
          "duration": 0.06640625,
          "durationTicks": 85,
          "midi": 86,
          "name": "D6",
          "ticks": 177960,
          "time": 139.03125,
          "velocity": 0.33070866141732286
        },
        {
          "duration": 0.078125,
          "durationTicks": 100,
          "midi": 89,
          "name": "F6",
          "ticks": 177960,
          "time": 139.03125,
          "velocity": 0.33070866141732286
        },
        {
          "duration": 0.10781250000002274,
          "durationTicks": 138,
          "midi": 93,
          "name": "A6",
          "ticks": 177960,
          "time": 139.03125,
          "velocity": 0.33070866141732286
        },
        {
          "duration": 1.1414062499999886,
          "durationTicks": 1461,
          "midi": 53,
          "name": "F3",
          "ticks": 178560,
          "time": 139.5,
          "velocity": 0.1968503937007874
        },
        {
          "duration": 1.17578125,
          "durationTicks": 1505,
          "midi": 57,
          "name": "A3",
          "ticks": 178560,
          "time": 139.5,
          "velocity": 0.31496062992125984
        },
        {
          "duration": 1.1773437500000057,
          "durationTicks": 1507,
          "midi": 58,
          "name": "A#3",
          "ticks": 178560,
          "time": 139.5,
          "velocity": 0.2125984251968504
        },
        {
          "duration": 1.147656249999983,
          "durationTicks": 1469,
          "midi": 62,
          "name": "D4",
          "ticks": 178560,
          "time": 139.5,
          "velocity": 0.2125984251968504
        },
        {
          "duration": 1.1695312499999773,
          "durationTicks": 1497,
          "midi": 84,
          "name": "C6",
          "ticks": 178560,
          "time": 139.5,
          "velocity": 0.33070866141732286
        },
        {
          "duration": 1.1625000000000227,
          "durationTicks": 1488,
          "midi": 89,
          "name": "F6",
          "ticks": 178560,
          "time": 139.5,
          "velocity": 0.4094488188976378
        },
        {
          "duration": 1.1234374999999943,
          "durationTicks": 1438,
          "midi": 96,
          "name": "C7",
          "ticks": 178560,
          "time": 139.5,
          "velocity": 0.4409448818897638
        },
        {
          "duration": 0.26718749999997726,
          "durationTicks": 342,
          "midi": 52,
          "name": "E3",
          "ticks": 180840,
          "time": 141.28125,
          "velocity": 0.49606299212598426
        },
        {
          "duration": 0.3218750000000057,
          "durationTicks": 412,
          "midi": 58,
          "name": "A#3",
          "ticks": 180840,
          "time": 141.28125,
          "velocity": 0.4566929133858268
        },
        {
          "duration": 0.33203125,
          "durationTicks": 425,
          "midi": 63,
          "name": "D#4",
          "ticks": 180840,
          "time": 141.28125,
          "velocity": 0.36220472440944884
        },
        {
          "duration": 0.37265624999997726,
          "durationTicks": 477,
          "midi": 80,
          "name": "G#5",
          "ticks": 180840,
          "time": 141.28125,
          "velocity": 0.4330708661417323
        },
        {
          "duration": 0.39765624999998295,
          "durationTicks": 509,
          "midi": 87,
          "name": "D#6",
          "ticks": 180840,
          "time": 141.28125,
          "velocity": 0.5275590551181102
        },
        {
          "duration": 0.359375,
          "durationTicks": 460,
          "midi": 92,
          "name": "G#6",
          "ticks": 180840,
          "time": 141.28125,
          "velocity": 0.5275590551181102
        },
        {
          "duration": 0.7164062500000057,
          "durationTicks": 917,
          "midi": 53,
          "name": "F3",
          "ticks": 181440,
          "time": 141.75,
          "velocity": 0.41732283464566927
        },
        {
          "duration": 0.6851562500000057,
          "durationTicks": 877,
          "midi": 57,
          "name": "A3",
          "ticks": 181440,
          "time": 141.75,
          "velocity": 0.41732283464566927
        },
        {
          "duration": 0.66796875,
          "durationTicks": 855,
          "midi": 60,
          "name": "C4",
          "ticks": 181440,
          "time": 141.75,
          "velocity": 0.3779527559055118
        },
        {
          "duration": 0.667187499999983,
          "durationTicks": 854,
          "midi": 64,
          "name": "E4",
          "ticks": 181440,
          "time": 141.75,
          "velocity": 0.3228346456692913
        },
        {
          "duration": 0.71875,
          "durationTicks": 920,
          "midi": 81,
          "name": "A5",
          "ticks": 181440,
          "time": 141.75,
          "velocity": 0.4881889763779528
        },
        {
          "duration": 0.7132812499999943,
          "durationTicks": 913,
          "midi": 88,
          "name": "E6",
          "ticks": 181440,
          "time": 141.75,
          "velocity": 0.4881889763779528
        },
        {
          "duration": 0.7054687500000227,
          "durationTicks": 903,
          "midi": 93,
          "name": "A6",
          "ticks": 181440,
          "time": 141.75,
          "velocity": 0.4881889763779528
        },
        {
          "duration": 0.503124999999983,
          "durationTicks": 644,
          "midi": 50,
          "name": "D3",
          "ticks": 182880,
          "time": 142.875,
          "velocity": 0.3228346456692913
        },
        {
          "duration": 0.514843749999983,
          "durationTicks": 659,
          "midi": 53,
          "name": "F3",
          "ticks": 182880,
          "time": 142.875,
          "velocity": 0.2440944881889764
        },
        {
          "duration": 0.5687499999999943,
          "durationTicks": 728,
          "midi": 57,
          "name": "A3",
          "ticks": 182880,
          "time": 142.875,
          "velocity": 0.2125984251968504
        },
        {
          "duration": 0.5804687499999943,
          "durationTicks": 743,
          "midi": 60,
          "name": "C4",
          "ticks": 182880,
          "time": 142.875,
          "velocity": 0.29133858267716534
        },
        {
          "duration": 0.5374999999999943,
          "durationTicks": 688,
          "midi": 77,
          "name": "F5",
          "ticks": 182880,
          "time": 142.875,
          "velocity": 0.4409448818897638
        },
        {
          "duration": 0.5875000000000057,
          "durationTicks": 752,
          "midi": 84,
          "name": "C6",
          "ticks": 182880,
          "time": 142.875,
          "velocity": 0.4881889763779528
        },
        {
          "duration": 0.6125000000000114,
          "durationTicks": 784,
          "midi": 89,
          "name": "F6",
          "ticks": 182880,
          "time": 142.875,
          "velocity": 0.49606299212598426
        },
        {
          "duration": 0.06484374999999432,
          "durationTicks": 83,
          "midi": 90,
          "name": "F#6",
          "ticks": 183840,
          "time": 143.625,
          "velocity": 0.15748031496062992
        },
        {
          "duration": 0.47109375000002274,
          "durationTicks": 603,
          "midi": 53,
          "name": "F3",
          "ticks": 184680,
          "time": 144.28125,
          "velocity": 0.2047244094488189
        },
        {
          "duration": 0.47187500000001137,
          "durationTicks": 604,
          "midi": 57,
          "name": "A3",
          "ticks": 184680,
          "time": 144.28125,
          "velocity": 0.31496062992125984
        },
        {
          "duration": 0.515625,
          "durationTicks": 660,
          "midi": 58,
          "name": "A#3",
          "ticks": 184680,
          "time": 144.28125,
          "velocity": 0.1889763779527559
        },
        {
          "duration": 0.4749999999999943,
          "durationTicks": 608,
          "midi": 62,
          "name": "D4",
          "ticks": 184680,
          "time": 144.28125,
          "velocity": 0.2125984251968504
        },
        {
          "duration": 0.10390624999999432,
          "durationTicks": 133,
          "midi": 92,
          "name": "G#6",
          "ticks": 184680,
          "time": 144.28125,
          "velocity": 0.31496062992125984
        },
        {
          "duration": 0.09921875000000568,
          "durationTicks": 127,
          "midi": 93,
          "name": "A6",
          "ticks": 184680,
          "time": 144.28125,
          "velocity": 0.5039370078740157
        },
        {
          "duration": 0.41874999999998863,
          "durationTicks": 536,
          "midi": 94,
          "name": "A#6",
          "ticks": 184800,
          "time": 144.375,
          "velocity": 0.44881889763779526
        },
        {
          "duration": 0.16562500000000568,
          "durationTicks": 212,
          "midi": 52,
          "name": "E3",
          "ticks": 186600,
          "time": 145.78125,
          "velocity": 0.31496062992125984
        },
        {
          "duration": 0.19609374999998863,
          "durationTicks": 251,
          "midi": 56,
          "name": "G#3",
          "ticks": 186600,
          "time": 145.78125,
          "velocity": 0.2755905511811024
        },
        {
          "duration": 0.1328125,
          "durationTicks": 170,
          "midi": 62,
          "name": "D4",
          "ticks": 186600,
          "time": 145.78125,
          "velocity": 0.2125984251968504
        },
        {
          "duration": 0.16562500000000568,
          "durationTicks": 212,
          "midi": 65,
          "name": "F4",
          "ticks": 186600,
          "time": 145.78125,
          "velocity": 0.4015748031496063
        },
        {
          "duration": 0.17265624999998863,
          "durationTicks": 221,
          "midi": 68,
          "name": "G#4",
          "ticks": 186600,
          "time": 145.78125,
          "velocity": 0.41732283464566927
        },
        {
          "duration": 0.16328124999998295,
          "durationTicks": 209,
          "midi": 71,
          "name": "B4",
          "ticks": 186600,
          "time": 145.78125,
          "velocity": 0.4409448818897638
        },
        {
          "duration": 0.21562499999998863,
          "durationTicks": 276,
          "midi": 76,
          "name": "E5",
          "ticks": 186600,
          "time": 145.78125,
          "velocity": 0.47244094488188976
        },
        {
          "duration": 0.7015624999999943,
          "durationTicks": 898,
          "midi": 49,
          "name": "C#3",
          "ticks": 187200,
          "time": 146.25,
          "velocity": 0.23622047244094488
        },
        {
          "duration": 0.6195312499999943,
          "durationTicks": 793,
          "midi": 61,
          "name": "C#4",
          "ticks": 187200,
          "time": 146.25,
          "velocity": 0.12598425196850394
        },
        {
          "duration": 0.6765624999999886,
          "durationTicks": 866,
          "midi": 67,
          "name": "G4",
          "ticks": 187200,
          "time": 146.25,
          "velocity": 0.2755905511811024
        },
        {
          "duration": 0.6624999999999943,
          "durationTicks": 848,
          "midi": 73,
          "name": "C#5",
          "ticks": 187200,
          "time": 146.25,
          "velocity": 0.3700787401574803
        },
        {
          "duration": 0.6359375000000114,
          "durationTicks": 814,
          "midi": 78,
          "name": "F#5",
          "ticks": 187200,
          "time": 146.25,
          "velocity": 0.33070866141732286
        },
        {
          "duration": 0.6265625000000057,
          "durationTicks": 802,
          "midi": 81,
          "name": "A5",
          "ticks": 187200,
          "time": 146.25,
          "velocity": 0.41732283464566927
        },
        {
          "duration": 0.13984374999998295,
          "durationTicks": 179,
          "midi": 48,
          "name": "C3",
          "ticks": 188640,
          "time": 147.375,
          "velocity": 0.29133858267716534
        },
        {
          "duration": 0.16718750000001137,
          "durationTicks": 214,
          "midi": 60,
          "name": "C4",
          "ticks": 188640,
          "time": 147.375,
          "velocity": 0.4330708661417323
        },
        {
          "duration": 0.14296875000002274,
          "durationTicks": 183,
          "midi": 64,
          "name": "E4",
          "ticks": 188640,
          "time": 147.375,
          "velocity": 0.41732283464566927
        },
        {
          "duration": 0.15078124999999432,
          "durationTicks": 193,
          "midi": 66,
          "name": "F#4",
          "ticks": 188640,
          "time": 147.375,
          "velocity": 0.31496062992125984
        },
        {
          "duration": 0.16718750000001137,
          "durationTicks": 214,
          "midi": 69,
          "name": "A4",
          "ticks": 188640,
          "time": 147.375,
          "velocity": 0.44881889763779526
        },
        {
          "duration": 0.12421875000001137,
          "durationTicks": 159,
          "midi": 48,
          "name": "C3",
          "ticks": 189000,
          "time": 147.65625,
          "velocity": 0.25984251968503935
        },
        {
          "duration": 0.12109375,
          "durationTicks": 155,
          "midi": 60,
          "name": "C4",
          "ticks": 189000,
          "time": 147.65625,
          "velocity": 0.23622047244094488
        },
        {
          "duration": 0.10234374999998863,
          "durationTicks": 131,
          "midi": 64,
          "name": "E4",
          "ticks": 189000,
          "time": 147.65625,
          "velocity": 0.25984251968503935
        },
        {
          "duration": 0.09999999999999432,
          "durationTicks": 128,
          "midi": 66,
          "name": "F#4",
          "ticks": 189000,
          "time": 147.65625,
          "velocity": 0.2125984251968504
        },
        {
          "duration": 0.109375,
          "durationTicks": 140,
          "midi": 69,
          "name": "A4",
          "ticks": 189000,
          "time": 147.65625,
          "velocity": 0.2125984251968504
        },
        {
          "duration": 0.20937499999999432,
          "durationTicks": 268,
          "midi": 48,
          "name": "C3",
          "ticks": 189480,
          "time": 148.03125,
          "velocity": 0.1968503937007874
        },
        {
          "duration": 0.25,
          "durationTicks": 320,
          "midi": 60,
          "name": "C4",
          "ticks": 189480,
          "time": 148.03125,
          "velocity": 0.33070866141732286
        },
        {
          "duration": 0.23515625000001705,
          "durationTicks": 301,
          "midi": 64,
          "name": "E4",
          "ticks": 189480,
          "time": 148.03125,
          "velocity": 0.33858267716535434
        },
        {
          "duration": 0.23515625000001705,
          "durationTicks": 301,
          "midi": 66,
          "name": "F#4",
          "ticks": 189480,
          "time": 148.03125,
          "velocity": 0.33070866141732286
        },
        {
          "duration": 0.24921875000001137,
          "durationTicks": 319,
          "midi": 69,
          "name": "A4",
          "ticks": 189480,
          "time": 148.03125,
          "velocity": 0.29133858267716534
        },
        {
          "duration": 0.14375000000001137,
          "durationTicks": 184,
          "midi": 67,
          "name": "G4",
          "ticks": 189720,
          "time": 148.21875,
          "velocity": 0.4330708661417323
        },
        {
          "duration": 0.5531250000000227,
          "durationTicks": 708,
          "midi": 59,
          "name": "B3",
          "ticks": 190080,
          "time": 148.5,
          "velocity": 0.3700787401574803
        },
        {
          "duration": 0.6070312499999773,
          "durationTicks": 777,
          "midi": 62,
          "name": "D4",
          "ticks": 190080,
          "time": 148.5,
          "velocity": 0.4094488188976378
        },
        {
          "duration": 0.6257812499999886,
          "durationTicks": 801,
          "midi": 65,
          "name": "F4",
          "ticks": 190080,
          "time": 148.5,
          "velocity": 0.41732283464566927
        },
        {
          "duration": 0.6359375000000114,
          "durationTicks": 814,
          "midi": 67,
          "name": "G4",
          "ticks": 190080,
          "time": 148.5,
          "velocity": 0.41732283464566927
        },
        {
          "duration": 0.5070312500000114,
          "durationTicks": 649,
          "midi": 47,
          "name": "B2",
          "ticks": 190200,
          "time": 148.59375,
          "velocity": 0.2204724409448819
        },
        {
          "duration": 0.31718750000001705,
          "durationTicks": 406,
          "midi": 52,
          "name": "E3",
          "ticks": 191880,
          "time": 149.90625,
          "velocity": 0.1732283464566929
        },
        {
          "duration": 0.31640625,
          "durationTicks": 405,
          "midi": 58,
          "name": "A#3",
          "ticks": 191880,
          "time": 149.90625,
          "velocity": 0.1732283464566929
        },
        {
          "duration": 0.11406249999998863,
          "durationTicks": 146,
          "midi": 64,
          "name": "E4",
          "ticks": 191880,
          "time": 149.90625,
          "velocity": 0.1968503937007874
        },
        {
          "duration": 0.13046875000000568,
          "durationTicks": 167,
          "midi": 70,
          "name": "A#4",
          "ticks": 191880,
          "time": 149.90625,
          "velocity": 0.25984251968503935
        },
        {
          "duration": 0.14453125,
          "durationTicks": 185,
          "midi": 73,
          "name": "C#5",
          "ticks": 191880,
          "time": 149.90625,
          "velocity": 0.2204724409448819
        },
        {
          "duration": 0.11093750000000568,
          "durationTicks": 142,
          "midi": 76,
          "name": "E5",
          "ticks": 191880,
          "time": 149.90625,
          "velocity": 0.18110236220472442
        },
        {
          "duration": 0.08750000000000568,
          "durationTicks": 112,
          "midi": 65,
          "name": "F4",
          "ticks": 192360,
          "time": 150.28125,
          "velocity": 0.44881889763779526
        },
        {
          "duration": 0.10703125000000568,
          "durationTicks": 137,
          "midi": 77,
          "name": "F5",
          "ticks": 192360,
          "time": 150.28125,
          "velocity": 0.5275590551181102
        },
        {
          "duration": 0.0546875,
          "durationTicks": 70,
          "midi": 67,
          "name": "G4",
          "ticks": 192720,
          "time": 150.5625,
          "velocity": 0.36220472440944884
        },
        {
          "duration": 0.057031249999994316,
          "durationTicks": 73,
          "midi": 79,
          "name": "G5",
          "ticks": 192720,
          "time": 150.5625,
          "velocity": 0.5196850393700787
        },
        {
          "duration": 0.10546875,
          "durationTicks": 135,
          "midi": 57,
          "name": "A3",
          "ticks": 192960,
          "time": 150.75,
          "velocity": 0.4566929133858268
        },
        {
          "duration": 0.09453125000001705,
          "durationTicks": 121,
          "midi": 62,
          "name": "D4",
          "ticks": 192960,
          "time": 150.75,
          "velocity": 0.4881889763779528
        },
        {
          "duration": 0.10390624999999432,
          "durationTicks": 133,
          "midi": 67,
          "name": "G4",
          "ticks": 192960,
          "time": 150.75,
          "velocity": 0.48031496062992124
        },
        {
          "duration": 0.08359375000000568,
          "durationTicks": 107,
          "midi": 69,
          "name": "A4",
          "ticks": 192960,
          "time": 150.75,
          "velocity": 0.6220472440944882
        },
        {
          "duration": 0.11015624999998863,
          "durationTicks": 141,
          "midi": 77,
          "name": "F5",
          "ticks": 192960,
          "time": 150.75,
          "velocity": 0.6456692913385826
        },
        {
          "duration": 0.03593750000001705,
          "durationTicks": 46,
          "midi": 80,
          "name": "G#5",
          "ticks": 192960,
          "time": 150.75,
          "velocity": 0.4015748031496063
        },
        {
          "duration": 0.125,
          "durationTicks": 160,
          "midi": 81,
          "name": "A5",
          "ticks": 192960,
          "time": 150.75,
          "velocity": 0.6220472440944882
        },
        {
          "duration": 0.11406249999998863,
          "durationTicks": 146,
          "midi": 57,
          "name": "A3",
          "ticks": 193800,
          "time": 151.40625,
          "velocity": 0.4330708661417323
        },
        {
          "duration": 0.10078125000001137,
          "durationTicks": 129,
          "midi": 62,
          "name": "D4",
          "ticks": 193800,
          "time": 151.40625,
          "velocity": 0.4330708661417323
        },
        {
          "duration": 0.10468749999998295,
          "durationTicks": 134,
          "midi": 67,
          "name": "G4",
          "ticks": 193800,
          "time": 151.40625,
          "velocity": 0.41732283464566927
        },
        {
          "duration": 0.1484375,
          "durationTicks": 190,
          "midi": 72,
          "name": "C5",
          "ticks": 193800,
          "time": 151.40625,
          "velocity": 0.5196850393700787
        },
        {
          "duration": 0.12734374999999432,
          "durationTicks": 163,
          "midi": 77,
          "name": "F5",
          "ticks": 193800,
          "time": 151.40625,
          "velocity": 0.5433070866141733
        },
        {
          "duration": 0.1484375,
          "durationTicks": 190,
          "midi": 81,
          "name": "A5",
          "ticks": 193800,
          "time": 151.40625,
          "velocity": 0.5039370078740157
        },
        {
          "duration": 0.13828124999997726,
          "durationTicks": 177,
          "midi": 84,
          "name": "C6",
          "ticks": 193800,
          "time": 151.40625,
          "velocity": 0.5275590551181102
        },
        {
          "duration": 0.15937500000001137,
          "durationTicks": 204,
          "midi": 57,
          "name": "A3",
          "ticks": 195240,
          "time": 152.53125,
          "velocity": 0.4881889763779528
        },
        {
          "duration": 0.18359375,
          "durationTicks": 235,
          "midi": 62,
          "name": "D4",
          "ticks": 195240,
          "time": 152.53125,
          "velocity": 0.3700787401574803
        },
        {
          "duration": 0.18593749999999432,
          "durationTicks": 238,
          "midi": 69,
          "name": "A4",
          "ticks": 195240,
          "time": 152.53125,
          "velocity": 0.44881889763779526
        },
        {
          "duration": 0.171875,
          "durationTicks": 220,
          "midi": 72,
          "name": "C5",
          "ticks": 195240,
          "time": 152.53125,
          "velocity": 0.5039370078740157
        },
        {
          "duration": 0.19687499999997726,
          "durationTicks": 252,
          "midi": 77,
          "name": "F5",
          "ticks": 195240,
          "time": 152.53125,
          "velocity": 0.5196850393700787
        },
        {
          "duration": 0.20156250000002274,
          "durationTicks": 258,
          "midi": 57,
          "name": "A3",
          "ticks": 196680,
          "time": 153.65625,
          "velocity": 0.41732283464566927
        },
        {
          "duration": 0.19140625,
          "durationTicks": 245,
          "midi": 62,
          "name": "D4",
          "ticks": 196680,
          "time": 153.65625,
          "velocity": 0.4094488188976378
        },
        {
          "duration": 0.19765624999999432,
          "durationTicks": 253,
          "midi": 67,
          "name": "G4",
          "ticks": 196680,
          "time": 153.65625,
          "velocity": 0.33070866141732286
        },
        {
          "duration": 0.1796875,
          "durationTicks": 230,
          "midi": 70,
          "name": "A#4",
          "ticks": 196680,
          "time": 153.65625,
          "velocity": 0.5196850393700787
        },
        {
          "duration": 0.16562500000000568,
          "durationTicks": 212,
          "midi": 74,
          "name": "D5",
          "ticks": 196680,
          "time": 153.65625,
          "velocity": 0.5433070866141733
        },
        {
          "duration": 0.17109375000001137,
          "durationTicks": 219,
          "midi": 77,
          "name": "F5",
          "ticks": 196680,
          "time": 153.65625,
          "velocity": 0.5039370078740157
        },
        {
          "duration": 0.22187499999998295,
          "durationTicks": 284,
          "midi": 82,
          "name": "A#5",
          "ticks": 196680,
          "time": 153.65625,
          "velocity": 0.5039370078740157
        },
        {
          "duration": 0.5843749999999943,
          "durationTicks": 748,
          "midi": 55,
          "name": "G3",
          "ticks": 197280,
          "time": 154.125,
          "velocity": 0.4015748031496063
        },
        {
          "duration": 0.5953124999999773,
          "durationTicks": 762,
          "midi": 61,
          "name": "C#4",
          "ticks": 197280,
          "time": 154.125,
          "velocity": 0.31496062992125984
        },
        {
          "duration": 0.58203125,
          "durationTicks": 745,
          "midi": 65,
          "name": "F4",
          "ticks": 197280,
          "time": 154.125,
          "velocity": 0.3543307086614173
        },
        {
          "duration": 0.5460937500000114,
          "durationTicks": 699,
          "midi": 72,
          "name": "C5",
          "ticks": 197280,
          "time": 154.125,
          "velocity": 0.4094488188976378
        },
        {
          "duration": 0.5671874999999886,
          "durationTicks": 726,
          "midi": 77,
          "name": "F5",
          "ticks": 197280,
          "time": 154.125,
          "velocity": 0.49606299212598426
        },
        {
          "duration": 0.5921874999999943,
          "durationTicks": 758,
          "midi": 81,
          "name": "A5",
          "ticks": 197280,
          "time": 154.125,
          "velocity": 0.5196850393700787
        },
        {
          "duration": 0.5304687500000114,
          "durationTicks": 679,
          "midi": 84,
          "name": "C6",
          "ticks": 197280,
          "time": 154.125,
          "velocity": 0.44881889763779526
        },
        {
          "duration": 0.739062500000017,
          "durationTicks": 946,
          "midi": 55,
          "name": "G3",
          "ticks": 198600,
          "time": 155.15625,
          "velocity": 0.18110236220472442
        },
        {
          "duration": 0.6828125000000114,
          "durationTicks": 874,
          "midi": 59,
          "name": "B3",
          "ticks": 198600,
          "time": 155.15625,
          "velocity": 0.23622047244094488
        },
        {
          "duration": 0.8828125,
          "durationTicks": 1130,
          "midi": 74,
          "name": "D5",
          "ticks": 198600,
          "time": 155.15625,
          "velocity": 0.33070866141732286
        },
        {
          "duration": 0.8359375,
          "durationTicks": 1070,
          "midi": 79,
          "name": "G5",
          "ticks": 198600,
          "time": 155.15625,
          "velocity": 0.28346456692913385
        },
        {
          "duration": 0.6632812500000114,
          "durationTicks": 849,
          "midi": 60,
          "name": "C4",
          "ticks": 198720,
          "time": 155.25,
          "velocity": 0.2047244094488189
        },
        {
          "duration": 0.6515625000000114,
          "durationTicks": 834,
          "midi": 64,
          "name": "E4",
          "ticks": 198720,
          "time": 155.25,
          "velocity": 0.2992125984251969
        },
        {
          "duration": 0.784374999999983,
          "durationTicks": 1004,
          "midi": 83,
          "name": "B5",
          "ticks": 198720,
          "time": 155.25,
          "velocity": 0.3779527559055118
        },
        {
          "duration": 0.7515625000000057,
          "durationTicks": 962,
          "midi": 86,
          "name": "D6",
          "ticks": 198720,
          "time": 155.25,
          "velocity": 0.5196850393700787
        },
        {
          "duration": 0.34921874999997726,
          "durationTicks": 447,
          "midi": 50,
          "name": "D3",
          "ticks": 200400,
          "time": 156.5625,
          "velocity": 0.33070866141732286
        },
        {
          "duration": 0.35468750000001137,
          "durationTicks": 454,
          "midi": 55,
          "name": "G3",
          "ticks": 200400,
          "time": 156.5625,
          "velocity": 0.11811023622047244
        },
        {
          "duration": 0.41250000000002274,
          "durationTicks": 528,
          "midi": 60,
          "name": "C4",
          "ticks": 200400,
          "time": 156.5625,
          "velocity": 0.2047244094488189
        },
        {
          "duration": 0.4156250000000057,
          "durationTicks": 532,
          "midi": 74,
          "name": "D5",
          "ticks": 200400,
          "time": 156.5625,
          "velocity": 0.3543307086614173
        },
        {
          "duration": 0.4351562500000057,
          "durationTicks": 557,
          "midi": 79,
          "name": "G5",
          "ticks": 200400,
          "time": 156.5625,
          "velocity": 0.33858267716535434
        },
        {
          "duration": 0.44765625000002274,
          "durationTicks": 573,
          "midi": 83,
          "name": "B5",
          "ticks": 200400,
          "time": 156.5625,
          "velocity": 0.4015748031496063
        },
        {
          "duration": 0.13749999999998863,
          "durationTicks": 176,
          "midi": 86,
          "name": "D6",
          "ticks": 200880,
          "time": 156.9375,
          "velocity": 0.4015748031496063
        },
        {
          "duration": 0.878124999999983,
          "durationTicks": 1124,
          "midi": 57,
          "name": "A3",
          "ticks": 201600,
          "time": 157.5,
          "velocity": 0.2677165354330709
        },
        {
          "duration": 0.8976562500000114,
          "durationTicks": 1149,
          "midi": 61,
          "name": "C#4",
          "ticks": 201600,
          "time": 157.5,
          "velocity": 0.2125984251968504
        },
        {
          "duration": 0.8757812499999886,
          "durationTicks": 1121,
          "midi": 62,
          "name": "D4",
          "ticks": 201600,
          "time": 157.5,
          "velocity": 0.3543307086614173
        },
        {
          "duration": 0.854687499999983,
          "durationTicks": 1094,
          "midi": 66,
          "name": "F#4",
          "ticks": 201600,
          "time": 157.5,
          "velocity": 0.1732283464566929
        },
        {
          "duration": 0.9859375000000057,
          "durationTicks": 1262,
          "midi": 76,
          "name": "E5",
          "ticks": 201600,
          "time": 157.5,
          "velocity": 0.36220472440944884
        },
        {
          "duration": 0.96875,
          "durationTicks": 1240,
          "midi": 81,
          "name": "A5",
          "ticks": 201600,
          "time": 157.5,
          "velocity": 0.36220472440944884
        },
        {
          "duration": 0.9375,
          "durationTicks": 1200,
          "midi": 85,
          "name": "C#6",
          "ticks": 201600,
          "time": 157.5,
          "velocity": 0.31496062992125984
        },
        {
          "duration": 0.9453125,
          "durationTicks": 1210,
          "midi": 88,
          "name": "E6",
          "ticks": 201600,
          "time": 157.5,
          "velocity": 0.33858267716535434
        },
        {
          "duration": 0.17734375000000568,
          "durationTicks": 227,
          "midi": 56,
          "name": "G#3",
          "ticks": 203880,
          "time": 159.28125,
          "velocity": 0.25196850393700787
        },
        {
          "duration": 0.13046875000000568,
          "durationTicks": 167,
          "midi": 59,
          "name": "B3",
          "ticks": 203880,
          "time": 159.28125,
          "velocity": 0.31496062992125984
        },
        {
          "duration": 0.15781250000000568,
          "durationTicks": 202,
          "midi": 62,
          "name": "D4",
          "ticks": 203880,
          "time": 159.28125,
          "velocity": 0.33858267716535434
        },
        {
          "duration": 0.16171874999997726,
          "durationTicks": 207,
          "midi": 64,
          "name": "E4",
          "ticks": 203880,
          "time": 159.28125,
          "velocity": 0.2204724409448819
        },
        {
          "duration": 0.22031249999997726,
          "durationTicks": 282,
          "midi": 74,
          "name": "D5",
          "ticks": 203880,
          "time": 159.28125,
          "velocity": 0.47244094488188976
        },
        {
          "duration": 0.23281249999999432,
          "durationTicks": 298,
          "midi": 80,
          "name": "G#5",
          "ticks": 203880,
          "time": 159.28125,
          "velocity": 0.4094488188976378
        },
        {
          "duration": 0.16874999999998863,
          "durationTicks": 216,
          "midi": 83,
          "name": "B5",
          "ticks": 203880,
          "time": 159.28125,
          "velocity": 0.49606299212598426
        },
        {
          "duration": 0.18203124999999432,
          "durationTicks": 233,
          "midi": 86,
          "name": "D6",
          "ticks": 203880,
          "time": 159.28125,
          "velocity": 0.5275590551181102
        },
        {
          "duration": 0.29765624999998863,
          "durationTicks": 381,
          "midi": 55,
          "name": "G3",
          "ticks": 204480,
          "time": 159.75,
          "velocity": 0.23622047244094488
        },
        {
          "duration": 0.25703124999998295,
          "durationTicks": 329,
          "midi": 59,
          "name": "B3",
          "ticks": 204480,
          "time": 159.75,
          "velocity": 0.2755905511811024
        },
        {
          "duration": 0.27812499999998863,
          "durationTicks": 356,
          "midi": 60,
          "name": "C4",
          "ticks": 204480,
          "time": 159.75,
          "velocity": 0.23622047244094488
        },
        {
          "duration": 0.28437500000001137,
          "durationTicks": 364,
          "midi": 64,
          "name": "E4",
          "ticks": 204480,
          "time": 159.75,
          "velocity": 0.25984251968503935
        },
        {
          "duration": 0.38359374999998863,
          "durationTicks": 491,
          "midi": 72,
          "name": "C5",
          "ticks": 204480,
          "time": 159.75,
          "velocity": 0.2755905511811024
        },
        {
          "duration": 0.3031249999999943,
          "durationTicks": 388,
          "midi": 81,
          "name": "A5",
          "ticks": 204480,
          "time": 159.75,
          "velocity": 0.3937007874015748
        },
        {
          "duration": 0.34218750000002274,
          "durationTicks": 438,
          "midi": 84,
          "name": "C6",
          "ticks": 204480,
          "time": 159.75,
          "velocity": 0.3543307086614173
        },
        {
          "duration": 0.2890625,
          "durationTicks": 370,
          "midi": 53,
          "name": "F3",
          "ticks": 205560,
          "time": 160.59375,
          "velocity": 0.1968503937007874
        },
        {
          "duration": 0.3335937500000057,
          "durationTicks": 427,
          "midi": 77,
          "name": "F5",
          "ticks": 205560,
          "time": 160.59375,
          "velocity": 0.14173228346456693
        },
        {
          "duration": 0.23750000000001137,
          "durationTicks": 304,
          "midi": 54,
          "name": "F#3",
          "ticks": 205920,
          "time": 160.875,
          "velocity": 0.2992125984251969
        },
        {
          "duration": 0.37031250000001137,
          "durationTicks": 474,
          "midi": 78,
          "name": "F#5",
          "ticks": 205920,
          "time": 160.875,
          "velocity": 0.44881889763779526
        },
        {
          "duration": 0.10859375000001137,
          "durationTicks": 139,
          "midi": 45,
          "name": "A2",
          "ticks": 206640,
          "time": 161.4375,
          "velocity": 0.2677165354330709
        },
        {
          "duration": 0.14296875000002274,
          "durationTicks": 183,
          "midi": 52,
          "name": "E3",
          "ticks": 206640,
          "time": 161.4375,
          "velocity": 0.3228346456692913
        },
        {
          "duration": 0.15546875000001137,
          "durationTicks": 199,
          "midi": 55,
          "name": "G3",
          "ticks": 206640,
          "time": 161.4375,
          "velocity": 0.2755905511811024
        },
        {
          "duration": 0.25,
          "durationTicks": 320,
          "midi": 72,
          "name": "C5",
          "ticks": 206640,
          "time": 161.4375,
          "velocity": 0.3700787401574803
        },
        {
          "duration": 0.25390625,
          "durationTicks": 325,
          "midi": 76,
          "name": "E5",
          "ticks": 206640,
          "time": 161.4375,
          "velocity": 0.47244094488188976
        },
        {
          "duration": 0.28593749999998863,
          "durationTicks": 366,
          "midi": 79,
          "name": "G5",
          "ticks": 206640,
          "time": 161.4375,
          "velocity": 0.4409448818897638
        },
        {
          "duration": 0.6171875,
          "durationTicks": 790,
          "midi": 53,
          "name": "F3",
          "ticks": 207360,
          "time": 162,
          "velocity": 0.18110236220472442
        },
        {
          "duration": 0.6390624999999943,
          "durationTicks": 818,
          "midi": 57,
          "name": "A3",
          "ticks": 207360,
          "time": 162,
          "velocity": 0.41732283464566927
        },
        {
          "duration": 0.6578125000000057,
          "durationTicks": 842,
          "midi": 58,
          "name": "A#3",
          "ticks": 207360,
          "time": 162,
          "velocity": 0.29133858267716534
        },
        {
          "duration": 0.6585937500000227,
          "durationTicks": 843,
          "midi": 62,
          "name": "D4",
          "ticks": 207360,
          "time": 162,
          "velocity": 0.4094488188976378
        },
        {
          "duration": 0.39765624999998295,
          "durationTicks": 509,
          "midi": 72,
          "name": "C5",
          "ticks": 207360,
          "time": 162,
          "velocity": 0.41732283464566927
        },
        {
          "duration": 0.34921874999997726,
          "durationTicks": 447,
          "midi": 77,
          "name": "F5",
          "ticks": 207360,
          "time": 162,
          "velocity": 0.5039370078740157
        },
        {
          "duration": 0.35546875,
          "durationTicks": 455,
          "midi": 81,
          "name": "A5",
          "ticks": 207360,
          "time": 162,
          "velocity": 0.5275590551181102
        },
        {
          "duration": 0.14921874999998863,
          "durationTicks": 191,
          "midi": 55,
          "name": "G3",
          "ticks": 208800,
          "time": 163.125,
          "velocity": 0.28346456692913385
        },
        {
          "duration": 0.13046875000000568,
          "durationTicks": 167,
          "midi": 61,
          "name": "C#4",
          "ticks": 208800,
          "time": 163.125,
          "velocity": 0.2283464566929134
        },
        {
          "duration": 0.14609375000000568,
          "durationTicks": 187,
          "midi": 65,
          "name": "F4",
          "ticks": 208800,
          "time": 163.125,
          "velocity": 0.3779527559055118
        },
        {
          "duration": 0.14218750000000568,
          "durationTicks": 182,
          "midi": 69,
          "name": "A4",
          "ticks": 208800,
          "time": 163.125,
          "velocity": 0.4094488188976378
        },
        {
          "duration": 0.15234375,
          "durationTicks": 195,
          "midi": 72,
          "name": "C5",
          "ticks": 208800,
          "time": 163.125,
          "velocity": 0.4409448818897638
        },
        {
          "duration": 0.2874999999999943,
          "durationTicks": 368,
          "midi": 55,
          "name": "G3",
          "ticks": 209280,
          "time": 163.5,
          "velocity": 0.44881889763779526
        },
        {
          "duration": 0.35078124999998295,
          "durationTicks": 449,
          "midi": 61,
          "name": "C#4",
          "ticks": 209280,
          "time": 163.5,
          "velocity": 0.3937007874015748
        },
        {
          "duration": 0.40703124999998863,
          "durationTicks": 521,
          "midi": 65,
          "name": "F4",
          "ticks": 209280,
          "time": 163.5,
          "velocity": 0.5039370078740157
        },
        {
          "duration": 0.43046874999998863,
          "durationTicks": 551,
          "midi": 70,
          "name": "A#4",
          "ticks": 209280,
          "time": 163.5,
          "velocity": 0.49606299212598426
        },
        {
          "duration": 0.11875000000000568,
          "durationTicks": 152,
          "midi": 55,
          "name": "G3",
          "ticks": 210240,
          "time": 164.25,
          "velocity": 0.2204724409448819
        },
        {
          "duration": 0.09999999999999432,
          "durationTicks": 128,
          "midi": 59,
          "name": "B3",
          "ticks": 210240,
          "time": 164.25,
          "velocity": 0.2755905511811024
        },
        {
          "duration": 0.10312499999997726,
          "durationTicks": 132,
          "midi": 60,
          "name": "C4",
          "ticks": 210240,
          "time": 164.25,
          "velocity": 0.25196850393700787
        },
        {
          "duration": 0.16249999999999432,
          "durationTicks": 208,
          "midi": 64,
          "name": "E4",
          "ticks": 210240,
          "time": 164.25,
          "velocity": 0.2755905511811024
        },
        {
          "duration": 0.14609375000000568,
          "durationTicks": 187,
          "midi": 69,
          "name": "A4",
          "ticks": 210240,
          "time": 164.25,
          "velocity": 0.4094488188976378
        },
        {
          "duration": 0.15156249999998295,
          "durationTicks": 194,
          "midi": 55,
          "name": "G3",
          "ticks": 211080,
          "time": 164.90625,
          "velocity": 0.2125984251968504
        },
        {
          "duration": 0.11562499999999432,
          "durationTicks": 148,
          "midi": 59,
          "name": "B3",
          "ticks": 211080,
          "time": 164.90625,
          "velocity": 0.25984251968503935
        },
        {
          "duration": 0.11875000000000568,
          "durationTicks": 152,
          "midi": 60,
          "name": "C4",
          "ticks": 211080,
          "time": 164.90625,
          "velocity": 0.33858267716535434
        },
        {
          "duration": 0.14531249999998863,
          "durationTicks": 186,
          "midi": 64,
          "name": "E4",
          "ticks": 211080,
          "time": 164.90625,
          "velocity": 0.25984251968503935
        },
        {
          "duration": 0.12656249999997726,
          "durationTicks": 162,
          "midi": 69,
          "name": "A4",
          "ticks": 211080,
          "time": 164.90625,
          "velocity": 0.4015748031496063
        },
        {
          "duration": 0.12578124999998863,
          "durationTicks": 161,
          "midi": 56,
          "name": "G#3",
          "ticks": 212520,
          "time": 166.03125,
          "velocity": 0.3779527559055118
        },
        {
          "duration": 0.10546875,
          "durationTicks": 135,
          "midi": 59,
          "name": "B3",
          "ticks": 212520,
          "time": 166.03125,
          "velocity": 0.4330708661417323
        },
        {
          "duration": 0.21640625000000568,
          "durationTicks": 277,
          "midi": 62,
          "name": "D4",
          "ticks": 212520,
          "time": 166.03125,
          "velocity": 0.4881889763779528
        },
        {
          "duration": 0.23046875,
          "durationTicks": 295,
          "midi": 67,
          "name": "G4",
          "ticks": 212520,
          "time": 166.03125,
          "velocity": 0.4330708661417323
        },
        {
          "duration": 0.07578125000000568,
          "durationTicks": 97,
          "midi": 65,
          "name": "F4",
          "ticks": 212880,
          "time": 166.3125,
          "velocity": 0.3937007874015748
        },
        {
          "duration": 0.4140625,
          "durationTicks": 530,
          "midi": 45,
          "name": "A2",
          "ticks": 213120,
          "time": 166.5,
          "velocity": 0.3543307086614173
        },
        {
          "duration": 0.43828124999998863,
          "durationTicks": 561,
          "midi": 55,
          "name": "G3",
          "ticks": 213120,
          "time": 166.5,
          "velocity": 0.2125984251968504
        },
        {
          "duration": 0.40625,
          "durationTicks": 520,
          "midi": 59,
          "name": "B3",
          "ticks": 213120,
          "time": 166.5,
          "velocity": 0.41732283464566927
        },
        {
          "duration": 0.4507812500000057,
          "durationTicks": 577,
          "midi": 60,
          "name": "C4",
          "ticks": 213120,
          "time": 166.5,
          "velocity": 0.31496062992125984
        },
        {
          "duration": 0.48515624999998863,
          "durationTicks": 621,
          "midi": 64,
          "name": "E4",
          "ticks": 213120,
          "time": 166.5,
          "velocity": 0.4409448818897638
        },
        {
          "duration": 0.4976562500000057,
          "durationTicks": 637,
          "midi": 67,
          "name": "G4",
          "ticks": 213120,
          "time": 166.5,
          "velocity": 0.28346456692913385
        },
        {
          "duration": 0.15468750000002274,
          "durationTicks": 198,
          "midi": 56,
          "name": "G#3",
          "ticks": 214560,
          "time": 167.625,
          "velocity": 0.10236220472440945
        },
        {
          "duration": 0.16874999999998863,
          "durationTicks": 216,
          "midi": 59,
          "name": "B3",
          "ticks": 214560,
          "time": 167.625,
          "velocity": 0.1889763779527559
        },
        {
          "duration": 0.171875,
          "durationTicks": 220,
          "midi": 62,
          "name": "D4",
          "ticks": 214560,
          "time": 167.625,
          "velocity": 0.1889763779527559
        },
        {
          "duration": 0.19140625,
          "durationTicks": 245,
          "midi": 65,
          "name": "F4",
          "ticks": 214560,
          "time": 167.625,
          "velocity": 0.07874015748031496
        },
        {
          "duration": 0.15703124999998863,
          "durationTicks": 201,
          "midi": 71,
          "name": "B4",
          "ticks": 214560,
          "time": 167.625,
          "velocity": 0.11811023622047244
        },
        {
          "duration": 0.140625,
          "durationTicks": 180,
          "midi": 74,
          "name": "D5",
          "ticks": 214560,
          "time": 167.625,
          "velocity": 0.1889763779527559
        },
        {
          "duration": 0.16640625000002274,
          "durationTicks": 213,
          "midi": 77,
          "name": "F5",
          "ticks": 214560,
          "time": 167.625,
          "velocity": 0.16535433070866143
        },
        {
          "duration": 0.1953125,
          "durationTicks": 250,
          "midi": 56,
          "name": "G#3",
          "ticks": 215040,
          "time": 168,
          "velocity": 0.16535433070866143
        },
        {
          "duration": 0.21171875000001705,
          "durationTicks": 271,
          "midi": 59,
          "name": "B3",
          "ticks": 215040,
          "time": 168,
          "velocity": 0.25984251968503935
        },
        {
          "duration": 0.20937499999999432,
          "durationTicks": 268,
          "midi": 62,
          "name": "D4",
          "ticks": 215040,
          "time": 168,
          "velocity": 0.25196850393700787
        },
        {
          "duration": 0.2265625,
          "durationTicks": 290,
          "midi": 65,
          "name": "F4",
          "ticks": 215040,
          "time": 168,
          "velocity": 0.14173228346456693
        },
        {
          "duration": 0.23281249999999432,
          "durationTicks": 298,
          "midi": 71,
          "name": "B4",
          "ticks": 215040,
          "time": 168,
          "velocity": 0.1732283464566929
        },
        {
          "duration": 0.23046875,
          "durationTicks": 295,
          "midi": 74,
          "name": "D5",
          "ticks": 215040,
          "time": 168,
          "velocity": 0.23622047244094488
        },
        {
          "duration": 0.23515625000001705,
          "durationTicks": 301,
          "midi": 77,
          "name": "F5",
          "ticks": 215040,
          "time": 168,
          "velocity": 0.2047244094488189
        },
        {
          "duration": 0.13437500000000568,
          "durationTicks": 172,
          "midi": 56,
          "name": "G#3",
          "ticks": 215520,
          "time": 168.375,
          "velocity": 0.1889763779527559
        },
        {
          "duration": 0.12031250000001137,
          "durationTicks": 154,
          "midi": 59,
          "name": "B3",
          "ticks": 215520,
          "time": 168.375,
          "velocity": 0.23622047244094488
        },
        {
          "duration": 0.09765625,
          "durationTicks": 125,
          "midi": 62,
          "name": "D4",
          "ticks": 215520,
          "time": 168.375,
          "velocity": 0.3543307086614173
        },
        {
          "duration": 0.11562499999999432,
          "durationTicks": 148,
          "midi": 65,
          "name": "F4",
          "ticks": 215520,
          "time": 168.375,
          "velocity": 0.2047244094488189
        },
        {
          "duration": 0.125,
          "durationTicks": 160,
          "midi": 71,
          "name": "B4",
          "ticks": 215520,
          "time": 168.375,
          "velocity": 0.3700787401574803
        },
        {
          "duration": 0.14296875000002274,
          "durationTicks": 183,
          "midi": 74,
          "name": "D5",
          "ticks": 215520,
          "time": 168.375,
          "velocity": 0.36220472440944884
        },
        {
          "duration": 0.16796875,
          "durationTicks": 215,
          "midi": 77,
          "name": "F5",
          "ticks": 215520,
          "time": 168.375,
          "velocity": 0.4015748031496063
        },
        {
          "duration": 0.7687500000000114,
          "durationTicks": 984,
          "midi": 53,
          "name": "F3",
          "ticks": 216000,
          "time": 168.75,
          "velocity": 0.2047244094488189
        },
        {
          "duration": 0.7765625000000114,
          "durationTicks": 994,
          "midi": 57,
          "name": "A3",
          "ticks": 216000,
          "time": 168.75,
          "velocity": 0.33858267716535434
        },
        {
          "duration": 0.7945312499999773,
          "durationTicks": 1017,
          "midi": 58,
          "name": "A#3",
          "ticks": 216000,
          "time": 168.75,
          "velocity": 0.36220472440944884
        },
        {
          "duration": 0.7648437500000114,
          "durationTicks": 979,
          "midi": 62,
          "name": "D4",
          "ticks": 216000,
          "time": 168.75,
          "velocity": 0.4094488188976378
        },
        {
          "duration": 0.784374999999983,
          "durationTicks": 1004,
          "midi": 74,
          "name": "D5",
          "ticks": 216000,
          "time": 168.75,
          "velocity": 0.48031496062992124
        },
        {
          "duration": 0.2265625,
          "durationTicks": 290,
          "midi": 80,
          "name": "G#5",
          "ticks": 216000,
          "time": 168.75,
          "velocity": 0.6456692913385826
        },
        {
          "duration": 0.7171875000000227,
          "durationTicks": 918,
          "midi": 86,
          "name": "D6",
          "ticks": 216000,
          "time": 168.75,
          "velocity": 0.5984251968503937
        },
        {
          "duration": 0.546875,
          "durationTicks": 700,
          "midi": 81,
          "name": "A5",
          "ticks": 216240,
          "time": 168.9375,
          "velocity": 0.09448818897637795
        },
        {
          "duration": 0.5687499999999943,
          "durationTicks": 728,
          "midi": 52,
          "name": "E3",
          "ticks": 217440,
          "time": 169.875,
          "velocity": 0.2047244094488189
        },
        {
          "duration": 0.5812500000000114,
          "durationTicks": 744,
          "midi": 58,
          "name": "A#3",
          "ticks": 217440,
          "time": 169.875,
          "velocity": 0.15748031496062992
        },
        {
          "duration": 0.6007812500000114,
          "durationTicks": 769,
          "midi": 62,
          "name": "D4",
          "ticks": 217440,
          "time": 169.875,
          "velocity": 0.2204724409448819
        },
        {
          "duration": 0.5875000000000057,
          "durationTicks": 752,
          "midi": 67,
          "name": "G4",
          "ticks": 217440,
          "time": 169.875,
          "velocity": 0.1889763779527559
        },
        {
          "duration": 0.5945312499999886,
          "durationTicks": 761,
          "midi": 70,
          "name": "A#4",
          "ticks": 217440,
          "time": 169.875,
          "velocity": 0.1889763779527559
        },
        {
          "duration": 0.6273437499999943,
          "durationTicks": 803,
          "midi": 73,
          "name": "C#5",
          "ticks": 217440,
          "time": 169.875,
          "velocity": 0.2755905511811024
        },
        {
          "duration": 0.6171875,
          "durationTicks": 790,
          "midi": 76,
          "name": "E5",
          "ticks": 217440,
          "time": 169.875,
          "velocity": 0.3543307086614173
        },
        {
          "duration": 0.11171874999999432,
          "durationTicks": 143,
          "midi": 72,
          "name": "C5",
          "ticks": 220200,
          "time": 172.03125,
          "velocity": 0.3543307086614173
        },
        {
          "duration": 0.4164062499999943,
          "durationTicks": 533,
          "midi": 53,
          "name": "F3",
          "ticks": 220320,
          "time": 172.125,
          "velocity": 0.25984251968503935
        },
        {
          "duration": 0.37265624999997726,
          "durationTicks": 477,
          "midi": 57,
          "name": "A3",
          "ticks": 220320,
          "time": 172.125,
          "velocity": 0.33858267716535434
        },
        {
          "duration": 0.37421874999998295,
          "durationTicks": 479,
          "midi": 58,
          "name": "A#3",
          "ticks": 220320,
          "time": 172.125,
          "velocity": 0.2125984251968504
        },
        {
          "duration": 0.41718750000001137,
          "durationTicks": 534,
          "midi": 62,
          "name": "D4",
          "ticks": 220320,
          "time": 172.125,
          "velocity": 0.44881889763779526
        },
        {
          "duration": 0.31718750000001705,
          "durationTicks": 406,
          "midi": 65,
          "name": "F4",
          "ticks": 220320,
          "time": 172.125,
          "velocity": 0.47244094488188976
        },
        {
          "duration": 0.29531250000002274,
          "durationTicks": 378,
          "midi": 69,
          "name": "A4",
          "ticks": 220320,
          "time": 172.125,
          "velocity": 0.47244094488188976
        },
        {
          "duration": 0.40156250000001137,
          "durationTicks": 514,
          "midi": 53,
          "name": "F3",
          "ticks": 221760,
          "time": 173.25,
          "velocity": 0.1889763779527559
        },
        {
          "duration": 0.39765624999998295,
          "durationTicks": 509,
          "midi": 57,
          "name": "A3",
          "ticks": 221760,
          "time": 173.25,
          "velocity": 0.1732283464566929
        },
        {
          "duration": 0.41874999999998863,
          "durationTicks": 536,
          "midi": 58,
          "name": "A#3",
          "ticks": 221760,
          "time": 173.25,
          "velocity": 0.16535433070866143
        },
        {
          "duration": 0.38593749999998295,
          "durationTicks": 494,
          "midi": 62,
          "name": "D4",
          "ticks": 221760,
          "time": 173.25,
          "velocity": 0.33070866141732286
        },
        {
          "duration": 0.37031250000001137,
          "durationTicks": 474,
          "midi": 65,
          "name": "F4",
          "ticks": 221760,
          "time": 173.25,
          "velocity": 0.33858267716535434
        },
        {
          "duration": 0.4820312500000057,
          "durationTicks": 617,
          "midi": 53,
          "name": "F3",
          "ticks": 222600,
          "time": 173.90625,
          "velocity": 0.2047244094488189
        },
        {
          "duration": 0.48515624999998863,
          "durationTicks": 621,
          "midi": 57,
          "name": "A3",
          "ticks": 222600,
          "time": 173.90625,
          "velocity": 0.1968503937007874
        },
        {
          "duration": 0.4156250000000057,
          "durationTicks": 532,
          "midi": 58,
          "name": "A#3",
          "ticks": 222600,
          "time": 173.90625,
          "velocity": 0.2755905511811024
        },
        {
          "duration": 0.4398437499999943,
          "durationTicks": 563,
          "midi": 62,
          "name": "D4",
          "ticks": 222600,
          "time": 173.90625,
          "velocity": 0.4881889763779528
        },
        {
          "duration": 0.10546875,
          "durationTicks": 135,
          "midi": 60,
          "name": "C4",
          "ticks": 223440,
          "time": 174.5625,
          "velocity": 0.2204724409448819
        },
        {
          "duration": 0.12109375,
          "durationTicks": 155,
          "midi": 61,
          "name": "C#4",
          "ticks": 223560,
          "time": 174.65625,
          "velocity": 0.25196850393700787
        },
        {
          "duration": 0.09531250000000568,
          "durationTicks": 122,
          "midi": 63,
          "name": "D#4",
          "ticks": 223680,
          "time": 174.75,
          "velocity": 0.33070866141732286
        },
        {
          "duration": 0.08984375,
          "durationTicks": 115,
          "midi": 64,
          "name": "E4",
          "ticks": 223800,
          "time": 174.84375,
          "velocity": 0.3937007874015748
        },
        {
          "duration": 0.12890625,
          "durationTicks": 165,
          "midi": 66,
          "name": "F#4",
          "ticks": 223920,
          "time": 174.9375,
          "velocity": 0.4094488188976378
        },
        {
          "duration": 0.11015624999998863,
          "durationTicks": 141,
          "midi": 68,
          "name": "G#4",
          "ticks": 224040,
          "time": 175.03125,
          "velocity": 0.28346456692913385
        },
        {
          "duration": 0.04609374999998295,
          "durationTicks": 59,
          "midi": 70,
          "name": "A#4",
          "ticks": 224160,
          "time": 175.125,
          "velocity": 0.33070866141732286
        },
        {
          "duration": 0.10390624999999432,
          "durationTicks": 133,
          "midi": 72,
          "name": "C5",
          "ticks": 224280,
          "time": 175.21875,
          "velocity": 0.36220472440944884
        },
        {
          "duration": 0.10312499999997726,
          "durationTicks": 132,
          "midi": 73,
          "name": "C#5",
          "ticks": 224400,
          "time": 175.3125,
          "velocity": 0.4881889763779528
        },
        {
          "duration": 0.09375,
          "durationTicks": 120,
          "midi": 75,
          "name": "D#5",
          "ticks": 224520,
          "time": 175.40625,
          "velocity": 0.4330708661417323
        },
        {
          "duration": 1.3812499999999943,
          "durationTicks": 1768,
          "midi": 72,
          "name": "C5",
          "ticks": 224640,
          "time": 175.5,
          "velocity": 0.4330708661417323
        },
        {
          "duration": 0.8234375000000114,
          "durationTicks": 1054,
          "midi": 53,
          "name": "F3",
          "ticks": 225480,
          "time": 176.15625,
          "velocity": 0.1968503937007874
        },
        {
          "duration": 0.828125,
          "durationTicks": 1060,
          "midi": 57,
          "name": "A3",
          "ticks": 225480,
          "time": 176.15625,
          "velocity": 0.2204724409448819
        },
        {
          "duration": 0.85546875,
          "durationTicks": 1095,
          "midi": 60,
          "name": "C4",
          "ticks": 225480,
          "time": 176.15625,
          "velocity": 0.1732283464566929
        },
        {
          "duration": 0.8617187499999943,
          "durationTicks": 1103,
          "midi": 64,
          "name": "E4",
          "ticks": 225480,
          "time": 176.15625,
          "velocity": 0.11811023622047244
        },
        {
          "duration": 0.3882812500000057,
          "durationTicks": 497,
          "midi": 76,
          "name": "E5",
          "ticks": 226440,
          "time": 176.90625,
          "velocity": 0.7480314960629921
        },
        {
          "duration": 0.45703125,
          "durationTicks": 585,
          "midi": 53,
          "name": "F3",
          "ticks": 226920,
          "time": 177.28125,
          "velocity": 0.11023622047244094
        },
        {
          "duration": 0.4390625000000057,
          "durationTicks": 562,
          "midi": 57,
          "name": "A3",
          "ticks": 226920,
          "time": 177.28125,
          "velocity": 0.15748031496062992
        },
        {
          "duration": 0.4820312500000057,
          "durationTicks": 617,
          "midi": 60,
          "name": "C4",
          "ticks": 226920,
          "time": 177.28125,
          "velocity": 0.08661417322834646
        },
        {
          "duration": 0.47187500000001137,
          "durationTicks": 604,
          "midi": 64,
          "name": "E4",
          "ticks": 226920,
          "time": 177.28125,
          "velocity": 0.10236220472440945
        },
        {
          "duration": 0.3968749999999943,
          "durationTicks": 508,
          "midi": 74,
          "name": "D5",
          "ticks": 226920,
          "time": 177.28125,
          "velocity": 0.41732283464566927
        },
        {
          "duration": 0.07499999999998863,
          "durationTicks": 96,
          "midi": 72,
          "name": "C5",
          "ticks": 227520,
          "time": 177.75,
          "velocity": 0.16535433070866143
        },
        {
          "duration": 0.38359374999998863,
          "durationTicks": 491,
          "midi": 76,
          "name": "E5",
          "ticks": 227640,
          "time": 177.84375,
          "velocity": 0.49606299212598426
        },
        {
          "duration": 0.8289062499999886,
          "durationTicks": 1061,
          "midi": 53,
          "name": "F3",
          "ticks": 228000,
          "time": 178.125,
          "velocity": 0.06299212598425197
        },
        {
          "duration": 0.8289062499999886,
          "durationTicks": 1061,
          "midi": 57,
          "name": "A3",
          "ticks": 228000,
          "time": 178.125,
          "velocity": 0.08661417322834646
        },
        {
          "duration": 0.8375000000000057,
          "durationTicks": 1072,
          "midi": 58,
          "name": "A#3",
          "ticks": 228000,
          "time": 178.125,
          "velocity": 0.05511811023622047
        },
        {
          "duration": 0.8234375000000114,
          "durationTicks": 1054,
          "midi": 62,
          "name": "D4",
          "ticks": 228000,
          "time": 178.125,
          "velocity": 0.03937007874015748
        },
        {
          "duration": 0.38359374999998863,
          "durationTicks": 491,
          "midi": 74,
          "name": "D5",
          "ticks": 228000,
          "time": 178.125,
          "velocity": 0.2755905511811024
        },
        {
          "duration": 0.23281249999999432,
          "durationTicks": 298,
          "midi": 70,
          "name": "A#4",
          "ticks": 228480,
          "time": 178.5,
          "velocity": 0.4094488188976378
        },
        {
          "duration": 0.06953124999998295,
          "durationTicks": 89,
          "midi": 69,
          "name": "A4",
          "ticks": 228840,
          "time": 178.78125,
          "velocity": 0.2125984251968504
        },
        {
          "duration": 0.33203125,
          "durationTicks": 425,
          "midi": 68,
          "name": "G#4",
          "ticks": 228960,
          "time": 178.875,
          "velocity": 0.25196850393700787
        },
        {
          "duration": 0.5359374999999886,
          "durationTicks": 686,
          "midi": 76,
          "name": "E5",
          "ticks": 229320,
          "time": 179.15625,
          "velocity": 0.5748031496062992
        },
        {
          "duration": 0.09531250000000568,
          "durationTicks": 122,
          "midi": 56,
          "name": "G#3",
          "ticks": 229800,
          "time": 179.53125,
          "velocity": 0.33858267716535434
        },
        {
          "duration": 0.07890624999998863,
          "durationTicks": 101,
          "midi": 62,
          "name": "D4",
          "ticks": 229800,
          "time": 179.53125,
          "velocity": 0.2440944881889764
        },
        {
          "duration": 0.09765625,
          "durationTicks": 125,
          "midi": 74,
          "name": "D5",
          "ticks": 230280,
          "time": 179.90625,
          "velocity": 0.49606299212598426
        },
        {
          "duration": 0.8000000000000114,
          "durationTicks": 1024,
          "midi": 64,
          "name": "E4",
          "ticks": 230400,
          "time": 180,
          "velocity": 0.2677165354330709
        },
        {
          "duration": 0.760937499999983,
          "durationTicks": 974,
          "midi": 67,
          "name": "G4",
          "ticks": 230400,
          "time": 180,
          "velocity": 0.41732283464566927
        },
        {
          "duration": 0.7570312500000114,
          "durationTicks": 969,
          "midi": 73,
          "name": "C#5",
          "ticks": 230400,
          "time": 180,
          "velocity": 0.3779527559055118
        },
        {
          "duration": 0.16249999999999432,
          "durationTicks": 208,
          "midi": 49,
          "name": "C#3",
          "ticks": 231120,
          "time": 180.5625,
          "velocity": 0.2755905511811024
        },
        {
          "duration": 0.12031250000001137,
          "durationTicks": 154,
          "midi": 61,
          "name": "C#4",
          "ticks": 231120,
          "time": 180.5625,
          "velocity": 0.18110236220472442
        },
        {
          "duration": 0.702343749999983,
          "durationTicks": 899,
          "midi": 48,
          "name": "C3",
          "ticks": 231840,
          "time": 181.125,
          "velocity": 0.15748031496062992
        },
        {
          "duration": 0.25078124999998863,
          "durationTicks": 321,
          "midi": 60,
          "name": "C4",
          "ticks": 232200,
          "time": 181.40625,
          "velocity": 0.3937007874015748
        },
        {
          "duration": 0.31171875000001137,
          "durationTicks": 399,
          "midi": 67,
          "name": "G4",
          "ticks": 232680,
          "time": 181.78125,
          "velocity": 0.6614173228346457
        },
        {
          "duration": 0.25468749999998863,
          "durationTicks": 326,
          "midi": 71,
          "name": "B4",
          "ticks": 232680,
          "time": 181.78125,
          "velocity": 0.6614173228346457
        },
        {
          "duration": 0.1328125,
          "durationTicks": 170,
          "midi": 69,
          "name": "A4",
          "ticks": 233040,
          "time": 182.0625,
          "velocity": 0.5039370078740157
        },
        {
          "duration": 0.3828125,
          "durationTicks": 490,
          "midi": 53,
          "name": "F3",
          "ticks": 233280,
          "time": 182.25,
          "velocity": 0.15748031496062992
        },
        {
          "duration": 0.38437499999997726,
          "durationTicks": 492,
          "midi": 57,
          "name": "A3",
          "ticks": 233280,
          "time": 182.25,
          "velocity": 0.2283464566929134
        },
        {
          "duration": 0.37812500000001137,
          "durationTicks": 484,
          "midi": 59,
          "name": "B3",
          "ticks": 233280,
          "time": 182.25,
          "velocity": 0.1968503937007874
        },
        {
          "duration": 0.2945312500000057,
          "durationTicks": 377,
          "midi": 65,
          "name": "F4",
          "ticks": 233280,
          "time": 182.25,
          "velocity": 0.4094488188976378
        },
        {
          "duration": 0.3031249999999943,
          "durationTicks": 388,
          "midi": 69,
          "name": "A4",
          "ticks": 233280,
          "time": 182.25,
          "velocity": 0.4094488188976378
        },
        {
          "duration": 0.1484375,
          "durationTicks": 190,
          "midi": 64,
          "name": "E4",
          "ticks": 233640,
          "time": 182.53125,
          "velocity": 0.2992125984251969
        },
        {
          "duration": 0.08828124999999432,
          "durationTicks": 113,
          "midi": 67,
          "name": "G4",
          "ticks": 233640,
          "time": 182.53125,
          "velocity": 0.36220472440944884
        },
        {
          "duration": 0.203125,
          "durationTicks": 260,
          "midi": 53,
          "name": "F3",
          "ticks": 234000,
          "time": 182.8125,
          "velocity": 0.14960629921259844
        },
        {
          "duration": 0.21796875000001137,
          "durationTicks": 279,
          "midi": 57,
          "name": "A3",
          "ticks": 234000,
          "time": 182.8125,
          "velocity": 0.11811023622047244
        },
        {
          "duration": 0.21953124999998863,
          "durationTicks": 281,
          "midi": 59,
          "name": "B3",
          "ticks": 234000,
          "time": 182.8125,
          "velocity": 0.15748031496062992
        },
        {
          "duration": 0.25078124999998863,
          "durationTicks": 321,
          "midi": 62,
          "name": "D4",
          "ticks": 234000,
          "time": 182.8125,
          "velocity": 0.4566929133858268
        },
        {
          "duration": 0.36406250000001705,
          "durationTicks": 466,
          "midi": 65,
          "name": "F4",
          "ticks": 234000,
          "time": 182.8125,
          "velocity": 0.4330708661417323
        },
        {
          "duration": 0.19843749999998295,
          "durationTicks": 254,
          "midi": 60,
          "name": "C4",
          "ticks": 234360,
          "time": 183.09375,
          "velocity": 0.4330708661417323
        },
        {
          "duration": 0.16874999999998863,
          "durationTicks": 216,
          "midi": 64,
          "name": "E4",
          "ticks": 234360,
          "time": 183.09375,
          "velocity": 0.41732283464566927
        },
        {
          "duration": 1.03515625,
          "durationTicks": 1325,
          "midi": 52,
          "name": "E3",
          "ticks": 234720,
          "time": 183.375,
          "velocity": 0.18110236220472442
        },
        {
          "duration": 1.0749999999999886,
          "durationTicks": 1376,
          "midi": 56,
          "name": "G#3",
          "ticks": 234720,
          "time": 183.375,
          "velocity": 0.15748031496062992
        },
        {
          "duration": 1.0804687500000227,
          "durationTicks": 1383,
          "midi": 58,
          "name": "A#3",
          "ticks": 234720,
          "time": 183.375,
          "velocity": 0.1968503937007874
        },
        {
          "duration": 0.30156249999998863,
          "durationTicks": 386,
          "midi": 61,
          "name": "C#4",
          "ticks": 234720,
          "time": 183.375,
          "velocity": 0.3228346456692913
        },
        {
          "duration": 0.34687500000001137,
          "durationTicks": 444,
          "midi": 60,
          "name": "C4",
          "ticks": 235080,
          "time": 183.65625,
          "velocity": 0.29133858267716534
        },
        {
          "duration": 0.35468750000001137,
          "durationTicks": 454,
          "midi": 61,
          "name": "C#4",
          "ticks": 235560,
          "time": 184.03125,
          "velocity": 0.3228346456692913
        },
        {
          "duration": 0.12968750000001705,
          "durationTicks": 166,
          "midi": 60,
          "name": "C4",
          "ticks": 236040,
          "time": 184.40625,
          "velocity": 0.1889763779527559
        },
        {
          "duration": 0.34296875000001137,
          "durationTicks": 439,
          "midi": 69,
          "name": "A4",
          "ticks": 236160,
          "time": 184.5,
          "velocity": 0.4881889763779528
        },
        {
          "duration": 0.3109374999999943,
          "durationTicks": 398,
          "midi": 60,
          "name": "C4",
          "ticks": 236640,
          "time": 184.875,
          "velocity": 0.2204724409448819
        },
        {
          "duration": 1.0093750000000057,
          "durationTicks": 1292,
          "midi": 62,
          "name": "D4",
          "ticks": 237000,
          "time": 185.15625,
          "velocity": 0.25984251968503935
        },
        {
          "duration": 0.07187500000000568,
          "durationTicks": 92,
          "midi": 51,
          "name": "D#3",
          "ticks": 237480,
          "time": 185.53125,
          "velocity": 0.18110236220472442
        },
        {
          "duration": 0.05937500000001705,
          "durationTicks": 76,
          "midi": 55,
          "name": "G3",
          "ticks": 237480,
          "time": 185.53125,
          "velocity": 0.1889763779527559
        },
        {
          "duration": 0.053124999999994316,
          "durationTicks": 68,
          "midi": 57,
          "name": "A3",
          "ticks": 237480,
          "time": 185.53125,
          "velocity": 0.1968503937007874
        },
        {
          "duration": 0.7671875000000057,
          "durationTicks": 982,
          "midi": 53,
          "name": "F3",
          "ticks": 237960,
          "time": 185.90625,
          "velocity": 0.25196850393700787
        },
        {
          "duration": 0.7710937499999773,
          "durationTicks": 987,
          "midi": 57,
          "name": "A3",
          "ticks": 237960,
          "time": 185.90625,
          "velocity": 0.2204724409448819
        },
        {
          "duration": 0.7804687500000114,
          "durationTicks": 999,
          "midi": 58,
          "name": "A#3",
          "ticks": 237960,
          "time": 185.90625,
          "velocity": 0.14173228346456693
        },
        {
          "duration": 0.10859375000001137,
          "durationTicks": 139,
          "midi": 62,
          "name": "D4",
          "ticks": 238920,
          "time": 186.65625,
          "velocity": 0.25984251968503935
        },
        {
          "duration": 0.12812499999998295,
          "durationTicks": 164,
          "midi": 65,
          "name": "F4",
          "ticks": 239040,
          "time": 186.75,
          "velocity": 0.14173228346456693
        },
        {
          "duration": 0.12343749999999432,
          "durationTicks": 158,
          "midi": 69,
          "name": "A4",
          "ticks": 239160,
          "time": 186.84375,
          "velocity": 0.3543307086614173
        },
        {
          "duration": 0.10546875,
          "durationTicks": 135,
          "midi": 72,
          "name": "C5",
          "ticks": 239400,
          "time": 187.03125,
          "velocity": 0.6614173228346457
        },
        {
          "duration": 0.24062499999999432,
          "durationTicks": 308,
          "midi": 69,
          "name": "A4",
          "ticks": 239520,
          "time": 187.125,
          "velocity": 0.3779527559055118
        },
        {
          "duration": 0.0546875,
          "durationTicks": 70,
          "midi": 53,
          "name": "F3",
          "ticks": 239880,
          "time": 187.40625,
          "velocity": 0.3228346456692913
        },
        {
          "duration": 0.053124999999994316,
          "durationTicks": 68,
          "midi": 57,
          "name": "A3",
          "ticks": 239880,
          "time": 187.40625,
          "velocity": 0.2047244094488189
        },
        {
          "duration": 0.05000000000001137,
          "durationTicks": 64,
          "midi": 58,
          "name": "A#3",
          "ticks": 239880,
          "time": 187.40625,
          "velocity": 0.15748031496062992
        },
        {
          "duration": 0.053124999999994316,
          "durationTicks": 68,
          "midi": 62,
          "name": "D4",
          "ticks": 239880,
          "time": 187.40625,
          "velocity": 0.28346456692913385
        },
        {
          "duration": 0.12812499999998295,
          "durationTicks": 164,
          "midi": 70,
          "name": "A#4",
          "ticks": 239880,
          "time": 187.40625,
          "velocity": 0.41732283464566927
        },
        {
          "duration": 0.2523437499999943,
          "durationTicks": 323,
          "midi": 74,
          "name": "D5",
          "ticks": 240120,
          "time": 187.59375,
          "velocity": 0.4094488188976378
        },
        {
          "duration": 1.2140625000000114,
          "durationTicks": 1554,
          "midi": 52,
          "name": "E3",
          "ticks": 240360,
          "time": 187.78125,
          "velocity": 0.41732283464566927
        },
        {
          "duration": 1.2046874999999773,
          "durationTicks": 1542,
          "midi": 57,
          "name": "A3",
          "ticks": 240360,
          "time": 187.78125,
          "velocity": 0.4409448818897638
        },
        {
          "duration": 1.2515624999999773,
          "durationTicks": 1602,
          "midi": 58,
          "name": "A#3",
          "ticks": 240360,
          "time": 187.78125,
          "velocity": 0.41732283464566927
        },
        {
          "duration": 1.2515624999999773,
          "durationTicks": 1602,
          "midi": 62,
          "name": "D4",
          "ticks": 240360,
          "time": 187.78125,
          "velocity": 0.41732283464566927
        },
        {
          "duration": 0.08515625000001137,
          "durationTicks": 109,
          "midi": 77,
          "name": "F5",
          "ticks": 240360,
          "time": 187.78125,
          "velocity": 0.4881889763779528
        },
        {
          "duration": 0.06874999999999432,
          "durationTicks": 88,
          "midi": 80,
          "name": "G#5",
          "ticks": 240600,
          "time": 187.96875,
          "velocity": 0.25196850393700787
        },
        {
          "duration": 0.09765625,
          "durationTicks": 125,
          "midi": 81,
          "name": "A5",
          "ticks": 240720,
          "time": 188.0625,
          "velocity": 0.4094488188976378
        },
        {
          "duration": 0.13984374999998295,
          "durationTicks": 179,
          "midi": 86,
          "name": "D6",
          "ticks": 240840,
          "time": 188.15625,
          "velocity": 0.7165354330708661
        },
        {
          "duration": 0.10078125000001137,
          "durationTicks": 129,
          "midi": 80,
          "name": "G#5",
          "ticks": 240960,
          "time": 188.25,
          "velocity": 0.25196850393700787
        },
        {
          "duration": 0.09531250000000568,
          "durationTicks": 122,
          "midi": 81,
          "name": "A5",
          "ticks": 241200,
          "time": 188.4375,
          "velocity": 0.3228346456692913
        },
        {
          "duration": 0.10546875,
          "durationTicks": 135,
          "midi": 86,
          "name": "D6",
          "ticks": 241320,
          "time": 188.53125,
          "velocity": 0.6614173228346457
        },
        {
          "duration": 0.20937499999999432,
          "durationTicks": 268,
          "midi": 84,
          "name": "C6",
          "ticks": 241560,
          "time": 188.71875,
          "velocity": 0.4330708661417323
        },
        {
          "duration": 0.14140625000001705,
          "durationTicks": 181,
          "midi": 72,
          "name": "C5",
          "ticks": 241800,
          "time": 188.90625,
          "velocity": 0.4094488188976378
        },
        {
          "duration": 0.265625,
          "durationTicks": 340,
          "midi": 72,
          "name": "C5",
          "ticks": 242160,
          "time": 189.1875,
          "velocity": 0.2204724409448819
        },
        {
          "duration": 0.28593749999998863,
          "durationTicks": 366,
          "midi": 74,
          "name": "D5",
          "ticks": 242520,
          "time": 189.46875,
          "velocity": 0.25984251968503935
        },
        {
          "duration": 0.54296875,
          "durationTicks": 695,
          "midi": 72,
          "name": "C5",
          "ticks": 242880,
          "time": 189.75,
          "velocity": 0.2204724409448819
        },
        {
          "duration": 0.060156250000005684,
          "durationTicks": 77,
          "midi": 59,
          "name": "B3",
          "ticks": 243240,
          "time": 190.03125,
          "velocity": 0.1889763779527559
        },
        {
          "duration": 0.060156250000005684,
          "durationTicks": 77,
          "midi": 60,
          "name": "C4",
          "ticks": 243240,
          "time": 190.03125,
          "velocity": 0.14960629921259844
        },
        {
          "duration": 0.09296874999998295,
          "durationTicks": 119,
          "midi": 64,
          "name": "E4",
          "ticks": 243240,
          "time": 190.03125,
          "velocity": 0.18110236220472442
        },
        {
          "duration": 0.06640625,
          "durationTicks": 85,
          "midi": 72,
          "name": "C5",
          "ticks": 243720,
          "time": 190.40625,
          "velocity": 0.2204724409448819
        },
        {
          "duration": 0.11484374999997726,
          "durationTicks": 147,
          "midi": 80,
          "name": "G#5",
          "ticks": 243840,
          "time": 190.5,
          "velocity": 0.2125984251968504
        },
        {
          "duration": 0.06796874999997726,
          "durationTicks": 87,
          "midi": 81,
          "name": "A5",
          "ticks": 244080,
          "time": 190.6875,
          "velocity": 0.33070866141732286
        },
        {
          "duration": 0.20156250000002274,
          "durationTicks": 258,
          "midi": 54,
          "name": "F#3",
          "ticks": 244200,
          "time": 190.78125,
          "velocity": 0.12598425196850394
        },
        {
          "duration": 0.20078125000000568,
          "durationTicks": 257,
          "midi": 60,
          "name": "C4",
          "ticks": 244200,
          "time": 190.78125,
          "velocity": 0.18110236220472442
        },
        {
          "duration": 0.17499999999998295,
          "durationTicks": 224,
          "midi": 65,
          "name": "F4",
          "ticks": 244200,
          "time": 190.78125,
          "velocity": 0.1968503937007874
        },
        {
          "duration": 0.11093750000000568,
          "durationTicks": 142,
          "midi": 84,
          "name": "C6",
          "ticks": 244200,
          "time": 190.78125,
          "velocity": 0.6220472440944882
        },
        {
          "duration": 0.13593750000001137,
          "durationTicks": 174,
          "midi": 82,
          "name": "A#5",
          "ticks": 244440,
          "time": 190.96875,
          "velocity": 0.5590551181102362
        },
        {
          "duration": 0.5374999999999943,
          "durationTicks": 688,
          "midi": 53,
          "name": "F3",
          "ticks": 244680,
          "time": 191.15625,
          "velocity": 0.31496062992125984
        },
        {
          "duration": 0.5671874999999886,
          "durationTicks": 726,
          "midi": 57,
          "name": "A3",
          "ticks": 244680,
          "time": 191.15625,
          "velocity": 0.3700787401574803
        },
        {
          "duration": 0.59375,
          "durationTicks": 760,
          "midi": 58,
          "name": "A#3",
          "ticks": 244680,
          "time": 191.15625,
          "velocity": 0.25196850393700787
        },
        {
          "duration": 0.5906249999999886,
          "durationTicks": 756,
          "midi": 62,
          "name": "D4",
          "ticks": 244680,
          "time": 191.15625,
          "velocity": 0.2677165354330709
        },
        {
          "duration": 0.1015625,
          "durationTicks": 130,
          "midi": 80,
          "name": "G#5",
          "ticks": 244680,
          "time": 191.15625,
          "velocity": 0.7165354330708661
        },
        {
          "duration": 0.10859375000001137,
          "durationTicks": 139,
          "midi": 82,
          "name": "A#5",
          "ticks": 244680,
          "time": 191.15625,
          "velocity": 0.4015748031496063
        },
        {
          "duration": 0.11796875000001705,
          "durationTicks": 151,
          "midi": 84,
          "name": "C6",
          "ticks": 244680,
          "time": 191.15625,
          "velocity": 0.5984251968503937
        },
        {
          "duration": 0.09453125000001705,
          "durationTicks": 121,
          "midi": 81,
          "name": "A5",
          "ticks": 244800,
          "time": 191.25,
          "velocity": 0.41732283464566927
        },
        {
          "duration": 0.16015625,
          "durationTicks": 205,
          "midi": 77,
          "name": "F5",
          "ticks": 244920,
          "time": 191.34375,
          "velocity": 0.1968503937007874
        },
        {
          "duration": 0.08437500000002274,
          "durationTicks": 108,
          "midi": 72,
          "name": "C5",
          "ticks": 245160,
          "time": 191.53125,
          "velocity": 0.33070866141732286
        },
        {
          "duration": 0.24374999999997726,
          "durationTicks": 312,
          "midi": 71,
          "name": "B4",
          "ticks": 245280,
          "time": 191.625,
          "velocity": 0.5275590551181102
        },
        {
          "duration": 0.21171875000001705,
          "durationTicks": 271,
          "midi": 77,
          "name": "F5",
          "ticks": 245280,
          "time": 191.625,
          "velocity": 0.5275590551181102
        },
        {
          "duration": 0.05390625000001137,
          "durationTicks": 69,
          "midi": 53,
          "name": "F3",
          "ticks": 245640,
          "time": 191.90625,
          "velocity": 0.15748031496062992
        },
        {
          "duration": 0.046875,
          "durationTicks": 60,
          "midi": 57,
          "name": "A3",
          "ticks": 245640,
          "time": 191.90625,
          "velocity": 0.11023622047244094
        },
        {
          "duration": 0.05781249999998295,
          "durationTicks": 74,
          "midi": 58,
          "name": "A#3",
          "ticks": 245640,
          "time": 191.90625,
          "velocity": 0.07874015748031496
        },
        {
          "duration": 0.20859374999997726,
          "durationTicks": 267,
          "midi": 70,
          "name": "A#4",
          "ticks": 245760,
          "time": 192,
          "velocity": 0.5354330708661418
        },
        {
          "duration": 0.5617187500000114,
          "durationTicks": 719,
          "midi": 52,
          "name": "E3",
          "ticks": 246120,
          "time": 192.28125,
          "velocity": 0.2755905511811024
        },
        {
          "duration": 0.5773437500000114,
          "durationTicks": 739,
          "midi": 58,
          "name": "A#3",
          "ticks": 246120,
          "time": 192.28125,
          "velocity": 0.25196850393700787
        },
        {
          "duration": 0.19843750000001137,
          "durationTicks": 254,
          "midi": 62,
          "name": "D4",
          "ticks": 246120,
          "time": 192.28125,
          "velocity": 0.2677165354330709
        },
        {
          "duration": 0.11406249999998863,
          "durationTicks": 146,
          "midi": 68,
          "name": "G#4",
          "ticks": 246120,
          "time": 192.28125,
          "velocity": 0.6456692913385826
        },
        {
          "duration": 0.13828124999997726,
          "durationTicks": 177,
          "midi": 69,
          "name": "A4",
          "ticks": 246240,
          "time": 192.375,
          "velocity": 0.33070866141732286
        },
        {
          "duration": 0.18281249999998295,
          "durationTicks": 234,
          "midi": 65,
          "name": "F4",
          "ticks": 246360,
          "time": 192.46875,
          "velocity": 0.31496062992125984
        },
        {
          "duration": 0.25390625,
          "durationTicks": 325,
          "midi": 64,
          "name": "E4",
          "ticks": 246720,
          "time": 192.75,
          "velocity": 0.3543307086614173
        },
        {
          "duration": 0.041406249999994316,
          "durationTicks": 53,
          "midi": 58,
          "name": "A#3",
          "ticks": 247080,
          "time": 193.03125,
          "velocity": 0.1968503937007874
        },
        {
          "duration": 0.14609375000000568,
          "durationTicks": 187,
          "midi": 67,
          "name": "G4",
          "ticks": 247080,
          "time": 193.03125,
          "velocity": 0.6456692913385826
        },
        {
          "duration": 0.06796874999997726,
          "durationTicks": 87,
          "midi": 66,
          "name": "F#4",
          "ticks": 247200,
          "time": 193.125,
          "velocity": 0.5196850393700787
        },
        {
          "duration": 0.06718749999998863,
          "durationTicks": 86,
          "midi": 67,
          "name": "G4",
          "ticks": 247320,
          "time": 193.21875,
          "velocity": 0.12598425196850394
        },
        {
          "duration": 0.12343749999999432,
          "durationTicks": 158,
          "midi": 66,
          "name": "F#4",
          "ticks": 247440,
          "time": 193.3125,
          "velocity": 0.13385826771653545
        },
        {
          "duration": 0.1039062499999659,
          "durationTicks": 133,
          "midi": 64,
          "name": "E4",
          "ticks": 247560,
          "time": 193.40625,
          "velocity": 0.1732283464566929
        },
        {
          "duration": 0.2242187500000341,
          "durationTicks": 287,
          "midi": 65,
          "name": "F4",
          "ticks": 247680,
          "time": 193.5,
          "velocity": 0.28346456692913385
        },
        {
          "duration": 0.6109375000000341,
          "durationTicks": 782,
          "midi": 53,
          "name": "F3",
          "ticks": 248040,
          "time": 193.78125,
          "velocity": 0.2755905511811024
        },
        {
          "duration": 0.6460937500000341,
          "durationTicks": 827,
          "midi": 57,
          "name": "A3",
          "ticks": 248040,
          "time": 193.78125,
          "velocity": 0.2440944881889764
        },
        {
          "duration": 0.6585937500000227,
          "durationTicks": 843,
          "midi": 60,
          "name": "C4",
          "ticks": 248040,
          "time": 193.78125,
          "velocity": 0.1732283464566929
        },
        {
          "duration": 0.28515625,
          "durationTicks": 365,
          "midi": 65,
          "name": "F4",
          "ticks": 248520,
          "time": 194.15625,
          "velocity": 0.2992125984251969
        },
        {
          "duration": 0.1890625000000341,
          "durationTicks": 242,
          "midi": 67,
          "name": "G4",
          "ticks": 248880,
          "time": 194.4375,
          "velocity": 0.6456692913385826
        },
        {
          "duration": 0.26250000000001705,
          "durationTicks": 336,
          "midi": 67,
          "name": "G4",
          "ticks": 249480,
          "time": 194.90625,
          "velocity": 0.36220472440944884
        },
        {
          "duration": 0.25390625,
          "durationTicks": 325,
          "midi": 69,
          "name": "A4",
          "ticks": 249840,
          "time": 195.1875,
          "velocity": 0.6614173228346457
        },
        {
          "duration": 0.53515625,
          "durationTicks": 685,
          "midi": 53,
          "name": "F3",
          "ticks": 250440,
          "time": 195.65625,
          "velocity": 0.1889763779527559
        },
        {
          "duration": 0.5242187499999886,
          "durationTicks": 671,
          "midi": 57,
          "name": "A3",
          "ticks": 250440,
          "time": 195.65625,
          "velocity": 0.18110236220472442
        },
        {
          "duration": 0.5281249999999886,
          "durationTicks": 676,
          "midi": 58,
          "name": "A#3",
          "ticks": 250440,
          "time": 195.65625,
          "velocity": 0.11811023622047244
        },
        {
          "duration": 0.5078125,
          "durationTicks": 650,
          "midi": 62,
          "name": "D4",
          "ticks": 250440,
          "time": 195.65625,
          "velocity": 0.06299212598425197
        },
        {
          "duration": 0.33671874999998863,
          "durationTicks": 431,
          "midi": 69,
          "name": "A4",
          "ticks": 250680,
          "time": 195.84375,
          "velocity": 0.44881889763779526
        },
        {
          "duration": 0.16796875,
          "durationTicks": 215,
          "midi": 70,
          "name": "A#4",
          "ticks": 251040,
          "time": 196.125,
          "velocity": 0.6850393700787402
        },
        {
          "duration": 0.42109375000001137,
          "durationTicks": 539,
          "midi": 53,
          "name": "F3",
          "ticks": 251400,
          "time": 196.40625,
          "velocity": 0.1889763779527559
        },
        {
          "duration": 0.40312500000001705,
          "durationTicks": 516,
          "midi": 57,
          "name": "A3",
          "ticks": 251400,
          "time": 196.40625,
          "velocity": 0.1732283464566929
        },
        {
          "duration": 0.41953124999997726,
          "durationTicks": 537,
          "midi": 58,
          "name": "A#3",
          "ticks": 251400,
          "time": 196.40625,
          "velocity": 0.12598425196850394
        },
        {
          "duration": 0.41796875,
          "durationTicks": 535,
          "midi": 62,
          "name": "D4",
          "ticks": 251400,
          "time": 196.40625,
          "velocity": 0.1968503937007874
        },
        {
          "duration": 0.26875000000001137,
          "durationTicks": 344,
          "midi": 69,
          "name": "A4",
          "ticks": 251640,
          "time": 196.59375,
          "velocity": 0.5275590551181102
        },
        {
          "duration": 0.19609374999998863,
          "durationTicks": 251,
          "midi": 68,
          "name": "G#4",
          "ticks": 252120,
          "time": 196.96875,
          "velocity": 0.3228346456692913
        },
        {
          "duration": 0.5656250000000114,
          "durationTicks": 724,
          "midi": 76,
          "name": "E5",
          "ticks": 252360,
          "time": 197.15625,
          "velocity": 0.6614173228346457
        },
        {
          "duration": 0.11640625000001137,
          "durationTicks": 149,
          "midi": 56,
          "name": "G#3",
          "ticks": 252840,
          "time": 197.53125,
          "velocity": 0.29133858267716534
        },
        {
          "duration": 0.08515625000001137,
          "durationTicks": 109,
          "midi": 59,
          "name": "B3",
          "ticks": 252840,
          "time": 197.53125,
          "velocity": 0.12598425196850394
        },
        {
          "duration": 0.10781250000002274,
          "durationTicks": 138,
          "midi": 62,
          "name": "D4",
          "ticks": 252840,
          "time": 197.53125,
          "velocity": 0.2755905511811024
        },
        {
          "duration": 0.13593749999998295,
          "durationTicks": 174,
          "midi": 74,
          "name": "D5",
          "ticks": 253320,
          "time": 197.90625,
          "velocity": 0.48031496062992124
        },
        {
          "duration": 0.6781249999999659,
          "durationTicks": 868,
          "midi": 73,
          "name": "C#5",
          "ticks": 253440,
          "time": 198,
          "velocity": 0.2677165354330709
        },
        {
          "duration": 0.5171875000000341,
          "durationTicks": 662,
          "midi": 64,
          "name": "E4",
          "ticks": 253800,
          "time": 198.28125,
          "velocity": 0.2125984251968504
        },
        {
          "duration": 0.5046874999999886,
          "durationTicks": 646,
          "midi": 67,
          "name": "G4",
          "ticks": 253800,
          "time": 198.28125,
          "velocity": 0.33858267716535434
        },
        {
          "duration": 0.3851562499999659,
          "durationTicks": 493,
          "midi": 49,
          "name": "C#3",
          "ticks": 254160,
          "time": 198.5625,
          "velocity": 0.18110236220472442
        },
        {
          "duration": 0.3296875000000341,
          "durationTicks": 422,
          "midi": 61,
          "name": "C#4",
          "ticks": 254160,
          "time": 198.5625,
          "velocity": 0.1968503937007874
        },
        {
          "duration": 0.9617187499999886,
          "durationTicks": 1231,
          "midi": 66,
          "name": "F#4",
          "ticks": 254760,
          "time": 199.03125,
          "velocity": 0.5196850393700787
        },
        {
          "duration": 0.6414062499999886,
          "durationTicks": 821,
          "midi": 62,
          "name": "D4",
          "ticks": 255240,
          "time": 199.40625,
          "velocity": 0.6220472440944882
        },
        {
          "duration": 0.569531249999983,
          "durationTicks": 729,
          "midi": 74,
          "name": "D5",
          "ticks": 255240,
          "time": 199.40625,
          "velocity": 0.5354330708661418
        },
        {
          "duration": 0.38593750000001137,
          "durationTicks": 494,
          "midi": 48,
          "name": "C3",
          "ticks": 255720,
          "time": 199.78125,
          "velocity": 0.4094488188976378
        },
        {
          "duration": 0.3499999999999659,
          "durationTicks": 448,
          "midi": 60,
          "name": "C4",
          "ticks": 255720,
          "time": 199.78125,
          "velocity": 0.3543307086614173
        },
        {
          "duration": 0.14531250000001705,
          "durationTicks": 186,
          "midi": 72,
          "name": "C5",
          "ticks": 256200,
          "time": 200.15625,
          "velocity": 0.5039370078740157
        },
        {
          "duration": 0.56640625,
          "durationTicks": 725,
          "midi": 71,
          "name": "B4",
          "ticks": 256440,
          "time": 200.34375,
          "velocity": 0.49606299212598426
        },
        {
          "duration": 0.11484374999997726,
          "durationTicks": 147,
          "midi": 47,
          "name": "B2",
          "ticks": 257160,
          "time": 200.90625,
          "velocity": 0.3700787401574803
        },
        {
          "duration": 0.14375000000001137,
          "durationTicks": 184,
          "midi": 59,
          "name": "B3",
          "ticks": 257160,
          "time": 200.90625,
          "velocity": 0.33070866141732286
        },
        {
          "duration": 0.3359375,
          "durationTicks": 430,
          "midi": 62,
          "name": "D4",
          "ticks": 257160,
          "time": 200.90625,
          "velocity": 0.5433070866141733
        },
        {
          "duration": 0.36796875000001705,
          "durationTicks": 471,
          "midi": 65,
          "name": "F4",
          "ticks": 257160,
          "time": 200.90625,
          "velocity": 0.5275590551181102
        },
        {
          "duration": 0.07578125000000568,
          "durationTicks": 97,
          "midi": 67,
          "name": "G4",
          "ticks": 257640,
          "time": 201.28125,
          "velocity": 0.29133858267716534
        },
        {
          "duration": 0.36640625000001137,
          "durationTicks": 469,
          "midi": 48,
          "name": "C3",
          "ticks": 257760,
          "time": 201.375,
          "velocity": 0.2047244094488189
        },
        {
          "duration": 0.39531249999998863,
          "durationTicks": 506,
          "midi": 52,
          "name": "E3",
          "ticks": 257760,
          "time": 201.375,
          "velocity": 0.4330708661417323
        },
        {
          "duration": 0.35625000000001705,
          "durationTicks": 456,
          "midi": 58,
          "name": "A#3",
          "ticks": 257760,
          "time": 201.375,
          "velocity": 0.3543307086614173
        },
        {
          "duration": 0.2125000000000341,
          "durationTicks": 272,
          "midi": 61,
          "name": "C#4",
          "ticks": 257760,
          "time": 201.375,
          "velocity": 0.44881889763779526
        },
        {
          "duration": 0.24843750000002274,
          "durationTicks": 318,
          "midi": 64,
          "name": "E4",
          "ticks": 257760,
          "time": 201.375,
          "velocity": 0.44881889763779526
        },
        {
          "duration": 0.33125000000001137,
          "durationTicks": 424,
          "midi": 62,
          "name": "D4",
          "ticks": 258240,
          "time": 201.75,
          "velocity": 0.47244094488188976
        },
        {
          "duration": 0.32421875,
          "durationTicks": 415,
          "midi": 65,
          "name": "F4",
          "ticks": 258240,
          "time": 201.75,
          "velocity": 0.5196850393700787
        },
        {
          "duration": 0.053124999999994316,
          "durationTicks": 68,
          "midi": 48,
          "name": "C3",
          "ticks": 258600,
          "time": 202.03125,
          "velocity": 0.13385826771653545
        },
        {
          "duration": 0.07343750000001137,
          "durationTicks": 94,
          "midi": 52,
          "name": "E3",
          "ticks": 258600,
          "time": 202.03125,
          "velocity": 0.28346456692913385
        },
        {
          "duration": 0.0953125000000341,
          "durationTicks": 122,
          "midi": 58,
          "name": "A#3",
          "ticks": 258600,
          "time": 202.03125,
          "velocity": 0.14960629921259844
        },
        {
          "duration": 0.2562499999999659,
          "durationTicks": 328,
          "midi": 64,
          "name": "E4",
          "ticks": 258720,
          "time": 202.125,
          "velocity": 0.48031496062992124
        },
        {
          "duration": 0.2828125000000341,
          "durationTicks": 362,
          "midi": 67,
          "name": "G4",
          "ticks": 258720,
          "time": 202.125,
          "velocity": 0.4330708661417323
        },
        {
          "duration": 0.11328125,
          "durationTicks": 145,
          "midi": 60,
          "name": "C4",
          "ticks": 259080,
          "time": 202.40625,
          "velocity": 0.33858267716535434
        },
        {
          "duration": 0.3499999999999659,
          "durationTicks": 448,
          "midi": 63,
          "name": "D#4",
          "ticks": 259200,
          "time": 202.5,
          "velocity": 0.33858267716535434
        },
        {
          "duration": 0.375,
          "durationTicks": 480,
          "midi": 69,
          "name": "A4",
          "ticks": 259200,
          "time": 202.5,
          "velocity": 0.3700787401574803
        },
        {
          "duration": 0.06796874999997726,
          "durationTicks": 87,
          "midi": 41,
          "name": "F2",
          "ticks": 259560,
          "time": 202.78125,
          "velocity": 0.31496062992125984
        },
        {
          "duration": 0.0718750000000341,
          "durationTicks": 92,
          "midi": 51,
          "name": "D#3",
          "ticks": 259560,
          "time": 202.78125,
          "velocity": 0.28346456692913385
        },
        {
          "duration": 0.16718750000001137,
          "durationTicks": 214,
          "midi": 51,
          "name": "D#3",
          "ticks": 260040,
          "time": 203.15625,
          "velocity": 0.36220472440944884
        },
        {
          "duration": 0.1304687500000341,
          "durationTicks": 167,
          "midi": 57,
          "name": "A3",
          "ticks": 260040,
          "time": 203.15625,
          "velocity": 0.4094488188976378
        },
        {
          "duration": 0.16718750000001137,
          "durationTicks": 214,
          "midi": 62,
          "name": "D4",
          "ticks": 260040,
          "time": 203.15625,
          "velocity": 0.41732283464566927
        },
        {
          "duration": 0.2242187500000341,
          "durationTicks": 287,
          "midi": 67,
          "name": "G4",
          "ticks": 260040,
          "time": 203.15625,
          "velocity": 0.4881889763779528
        },
        {
          "duration": 0.2992187499999943,
          "durationTicks": 383,
          "midi": 72,
          "name": "C5",
          "ticks": 260040,
          "time": 203.15625,
          "velocity": 0.5039370078740157
        },
        {
          "duration": 0.35468750000001137,
          "durationTicks": 454,
          "midi": 77,
          "name": "F5",
          "ticks": 260040,
          "time": 203.15625,
          "velocity": 0.5275590551181102
        },
        {
          "duration": 0.2640624999999943,
          "durationTicks": 338,
          "midi": 53,
          "name": "F3",
          "ticks": 260640,
          "time": 203.625,
          "velocity": 0.2440944881889764
        },
        {
          "duration": 0.23828125,
          "durationTicks": 305,
          "midi": 57,
          "name": "A3",
          "ticks": 260640,
          "time": 203.625,
          "velocity": 0.29133858267716534
        },
        {
          "duration": 0.25078125000001705,
          "durationTicks": 321,
          "midi": 62,
          "name": "D4",
          "ticks": 260640,
          "time": 203.625,
          "velocity": 0.2204724409448819
        },
        {
          "duration": 0.54296875,
          "durationTicks": 695,
          "midi": 69,
          "name": "A4",
          "ticks": 260640,
          "time": 203.625,
          "velocity": 0.29133858267716534
        },
        {
          "duration": 0.7398437500000341,
          "durationTicks": 947,
          "midi": 74,
          "name": "D5",
          "ticks": 260640,
          "time": 203.625,
          "velocity": 0.3543307086614173
        },
        {
          "duration": 0.10859375000001137,
          "durationTicks": 139,
          "midi": 57,
          "name": "A3",
          "ticks": 261480,
          "time": 204.28125,
          "velocity": 0.1889763779527559
        },
        {
          "duration": 0.13515624999999432,
          "durationTicks": 173,
          "midi": 62,
          "name": "D4",
          "ticks": 261480,
          "time": 204.28125,
          "velocity": 0.1732283464566929
        },
        {
          "duration": 0.09296875000001137,
          "durationTicks": 119,
          "midi": 67,
          "name": "G4",
          "ticks": 261480,
          "time": 204.28125,
          "velocity": 0.13385826771653545
        },
        {
          "duration": 0.2874999999999943,
          "durationTicks": 368,
          "midi": 72,
          "name": "C5",
          "ticks": 261480,
          "time": 204.28125,
          "velocity": 0.2677165354330709
        },
        {
          "duration": 0.9140625,
          "durationTicks": 1170,
          "midi": 57,
          "name": "A3",
          "ticks": 261960,
          "time": 204.65625,
          "velocity": 0.4094488188976378
        },
        {
          "duration": 0.9437499999999943,
          "durationTicks": 1208,
          "midi": 61,
          "name": "C#4",
          "ticks": 261960,
          "time": 204.65625,
          "velocity": 0.3228346456692913
        },
        {
          "duration": 0.918750000000017,
          "durationTicks": 1176,
          "midi": 62,
          "name": "D4",
          "ticks": 261960,
          "time": 204.65625,
          "velocity": 0.4409448818897638
        },
        {
          "duration": 0.94140625,
          "durationTicks": 1205,
          "midi": 66,
          "name": "F#4",
          "ticks": 261960,
          "time": 204.65625,
          "velocity": 0.25196850393700787
        },
        {
          "duration": 0.18671875000001137,
          "durationTicks": 239,
          "midi": 57,
          "name": "A3",
          "ticks": 262920,
          "time": 205.40625,
          "velocity": 0.4409448818897638
        },
        {
          "duration": 0.21171874999998863,
          "durationTicks": 271,
          "midi": 61,
          "name": "C#4",
          "ticks": 262920,
          "time": 205.40625,
          "velocity": 0.3779527559055118
        },
        {
          "duration": 0.19218750000001705,
          "durationTicks": 246,
          "midi": 62,
          "name": "D4",
          "ticks": 262920,
          "time": 205.40625,
          "velocity": 0.5433070866141733
        },
        {
          "duration": 0.22343749999998863,
          "durationTicks": 286,
          "midi": 66,
          "name": "F#4",
          "ticks": 262920,
          "time": 205.40625,
          "velocity": 0.4881889763779528
        },
        {
          "duration": 0.22968749999998295,
          "durationTicks": 294,
          "midi": 69,
          "name": "A4",
          "ticks": 262920,
          "time": 205.40625,
          "velocity": 0.5196850393700787
        },
        {
          "duration": 0.26875000000001137,
          "durationTicks": 344,
          "midi": 71,
          "name": "B4",
          "ticks": 262920,
          "time": 205.40625,
          "velocity": 0.5039370078740157
        },
        {
          "duration": 0.4906249999999659,
          "durationTicks": 628,
          "midi": 56,
          "name": "G#3",
          "ticks": 263520,
          "time": 205.875,
          "velocity": 0.4330708661417323
        },
        {
          "duration": 0.45625000000001137,
          "durationTicks": 584,
          "midi": 59,
          "name": "B3",
          "ticks": 263520,
          "time": 205.875,
          "velocity": 0.48031496062992124
        },
        {
          "duration": 0.5101562499999943,
          "durationTicks": 653,
          "midi": 64,
          "name": "E4",
          "ticks": 263520,
          "time": 205.875,
          "velocity": 0.5275590551181102
        },
        {
          "duration": 0.44765625000002274,
          "durationTicks": 573,
          "midi": 68,
          "name": "G#4",
          "ticks": 263520,
          "time": 205.875,
          "velocity": 0.5196850393700787
        },
        {
          "duration": 0.32890624999998863,
          "durationTicks": 421,
          "midi": 69,
          "name": "A4",
          "ticks": 264000,
          "time": 206.25,
          "velocity": 0.4566929133858268
        },
        {
          "duration": 0.27265625000001137,
          "durationTicks": 349,
          "midi": 71,
          "name": "B4",
          "ticks": 264480,
          "time": 206.625,
          "velocity": 0.5039370078740157
        },
        {
          "duration": 0.7953124999999659,
          "durationTicks": 1018,
          "midi": 56,
          "name": "G#3",
          "ticks": 264960,
          "time": 207,
          "velocity": 0.3543307086614173
        },
        {
          "duration": 0.7914062499999943,
          "durationTicks": 1013,
          "midi": 59,
          "name": "B3",
          "ticks": 264960,
          "time": 207,
          "velocity": 0.3700787401574803
        },
        {
          "duration": 0.8078125000000114,
          "durationTicks": 1034,
          "midi": 64,
          "name": "E4",
          "ticks": 264960,
          "time": 207,
          "velocity": 0.3779527559055118
        },
        {
          "duration": 0.15234375,
          "durationTicks": 195,
          "midi": 68,
          "name": "G#4",
          "ticks": 264960,
          "time": 207,
          "velocity": 0.4881889763779528
        },
        {
          "duration": 0.1890625000000341,
          "durationTicks": 242,
          "midi": 73,
          "name": "C#5",
          "ticks": 264960,
          "time": 207,
          "velocity": 0.5275590551181102
        },
        {
          "duration": 0.06640625,
          "durationTicks": 85,
          "midi": 73,
          "name": "C#5",
          "ticks": 265680,
          "time": 207.5625,
          "velocity": 0.31496062992125984
        },
        {
          "duration": 0.06562499999998295,
          "durationTicks": 84,
          "midi": 85,
          "name": "C#6",
          "ticks": 265680,
          "time": 207.5625,
          "velocity": 0.4330708661417323
        },
        {
          "duration": 0.14687499999999432,
          "durationTicks": 188,
          "midi": 73,
          "name": "C#5",
          "ticks": 265920,
          "time": 207.75,
          "velocity": 0.33858267716535434
        },
        {
          "duration": 0.12421874999998295,
          "durationTicks": 159,
          "midi": 85,
          "name": "C#6",
          "ticks": 265920,
          "time": 207.75,
          "velocity": 0.41732283464566927
        },
        {
          "duration": 0.06171875000001137,
          "durationTicks": 79,
          "midi": 80,
          "name": "G#5",
          "ticks": 266040,
          "time": 207.84375,
          "velocity": 0.16535433070866143
        },
        {
          "duration": 0.09999999999999432,
          "durationTicks": 128,
          "midi": 76,
          "name": "E5",
          "ticks": 266160,
          "time": 207.9375,
          "velocity": 0.2992125984251969
        },
        {
          "duration": 0.8492187500000057,
          "durationTicks": 1087,
          "midi": 57,
          "name": "A3",
          "ticks": 266280,
          "time": 208.03125,
          "velocity": 0.4094488188976378
        },
        {
          "duration": 0.8999999999999773,
          "durationTicks": 1152,
          "midi": 61,
          "name": "C#4",
          "ticks": 266280,
          "time": 208.03125,
          "velocity": 0.25196850393700787
        },
        {
          "duration": 0.8773437499999659,
          "durationTicks": 1123,
          "midi": 62,
          "name": "D4",
          "ticks": 266280,
          "time": 208.03125,
          "velocity": 0.4330708661417323
        },
        {
          "duration": 0.8664062500000114,
          "durationTicks": 1109,
          "midi": 66,
          "name": "F#4",
          "ticks": 266280,
          "time": 208.03125,
          "velocity": 0.2204724409448819
        },
        {
          "duration": 0.08515625000001137,
          "durationTicks": 109,
          "midi": 73,
          "name": "C#5",
          "ticks": 266400,
          "time": 208.125,
          "velocity": 0.49606299212598426
        },
        {
          "duration": 0.08125000000001137,
          "durationTicks": 104,
          "midi": 85,
          "name": "C#6",
          "ticks": 266400,
          "time": 208.125,
          "velocity": 0.5196850393700787
        },
        {
          "duration": 0.13125000000002274,
          "durationTicks": 168,
          "midi": 73,
          "name": "C#5",
          "ticks": 266640,
          "time": 208.3125,
          "velocity": 0.33858267716535434
        },
        {
          "duration": 0.11953125000002274,
          "durationTicks": 153,
          "midi": 85,
          "name": "C#6",
          "ticks": 266640,
          "time": 208.3125,
          "velocity": 0.3937007874015748
        },
        {
          "duration": 0.0921874999999659,
          "durationTicks": 118,
          "midi": 80,
          "name": "G#5",
          "ticks": 266760,
          "time": 208.40625,
          "velocity": 0.25984251968503935
        },
        {
          "duration": 0.08906249999998295,
          "durationTicks": 114,
          "midi": 76,
          "name": "E5",
          "ticks": 266880,
          "time": 208.5,
          "velocity": 0.36220472440944884
        },
        {
          "duration": 0.07109374999998863,
          "durationTicks": 91,
          "midi": 71,
          "name": "B4",
          "ticks": 267120,
          "time": 208.6875,
          "velocity": 0.5196850393700787
        },
        {
          "duration": 0.07656249999999432,
          "durationTicks": 98,
          "midi": 83,
          "name": "B5",
          "ticks": 267120,
          "time": 208.6875,
          "velocity": 0.48031496062992124
        },
        {
          "duration": 0.13437500000000568,
          "durationTicks": 172,
          "midi": 71,
          "name": "B4",
          "ticks": 267360,
          "time": 208.875,
          "velocity": 0.49606299212598426
        },
        {
          "duration": 0.13984375000001137,
          "durationTicks": 179,
          "midi": 83,
          "name": "B5",
          "ticks": 267360,
          "time": 208.875,
          "velocity": 0.4566929133858268
        },
        {
          "duration": 0.12890625,
          "durationTicks": 165,
          "midi": 80,
          "name": "G#5",
          "ticks": 267480,
          "time": 208.96875,
          "velocity": 0.3543307086614173
        },
        {
          "duration": 0.09687500000001137,
          "durationTicks": 124,
          "midi": 76,
          "name": "E5",
          "ticks": 267600,
          "time": 209.0625,
          "velocity": 0.3543307086614173
        },
        {
          "duration": 0.5124999999999886,
          "durationTicks": 656,
          "midi": 56,
          "name": "G#3",
          "ticks": 267720,
          "time": 209.15625,
          "velocity": 0.33858267716535434
        },
        {
          "duration": 0.49609375,
          "durationTicks": 635,
          "midi": 59,
          "name": "B3",
          "ticks": 267720,
          "time": 209.15625,
          "velocity": 0.2677165354330709
        },
        {
          "duration": 0.515625,
          "durationTicks": 660,
          "midi": 64,
          "name": "E4",
          "ticks": 267720,
          "time": 209.15625,
          "velocity": 0.3779527559055118
        },
        {
          "duration": 0.0804687499999659,
          "durationTicks": 103,
          "midi": 73,
          "name": "C#5",
          "ticks": 267840,
          "time": 209.25,
          "velocity": 0.5196850393700787
        },
        {
          "duration": 0.0804687499999659,
          "durationTicks": 103,
          "midi": 85,
          "name": "C#6",
          "ticks": 267840,
          "time": 209.25,
          "velocity": 0.5275590551181102
        },
        {
          "duration": 0.17343749999997726,
          "durationTicks": 222,
          "midi": 73,
          "name": "C#5",
          "ticks": 268200,
          "time": 209.53125,
          "velocity": 0.5196850393700787
        },
        {
          "duration": 0.14921874999998863,
          "durationTicks": 191,
          "midi": 85,
          "name": "C#6",
          "ticks": 268200,
          "time": 209.53125,
          "velocity": 0.5354330708661418
        },
        {
          "duration": 0.15234375,
          "durationTicks": 195,
          "midi": 80,
          "name": "G#5",
          "ticks": 268320,
          "time": 209.625,
          "velocity": 0.3543307086614173
        },
        {
          "duration": 0.1539062500000341,
          "durationTicks": 197,
          "midi": 76,
          "name": "E5",
          "ticks": 268440,
          "time": 209.71875,
          "velocity": 0.3700787401574803
        },
        {
          "duration": 0.1039062499999659,
          "durationTicks": 133,
          "midi": 71,
          "name": "B4",
          "ticks": 268680,
          "time": 209.90625,
          "velocity": 0.6614173228346457
        },
        {
          "duration": 0.10546875,
          "durationTicks": 135,
          "midi": 83,
          "name": "B5",
          "ticks": 268680,
          "time": 209.90625,
          "velocity": 0.5354330708661418
        },
        {
          "duration": 0.16093749999998863,
          "durationTicks": 206,
          "midi": 71,
          "name": "B4",
          "ticks": 268920,
          "time": 210.09375,
          "velocity": 0.44881889763779526
        },
        {
          "duration": 0.17500000000001137,
          "durationTicks": 224,
          "midi": 83,
          "name": "B5",
          "ticks": 268920,
          "time": 210.09375,
          "velocity": 0.4881889763779528
        },
        {
          "duration": 0.1273437499999659,
          "durationTicks": 163,
          "midi": 80,
          "name": "G#5",
          "ticks": 269040,
          "time": 210.1875,
          "velocity": 0.2755905511811024
        },
        {
          "duration": 0.03984375000001705,
          "durationTicks": 51,
          "midi": 56,
          "name": "G#3",
          "ticks": 269160,
          "time": 210.28125,
          "velocity": 0.11023622047244094
        },
        {
          "duration": 0.05390624999998295,
          "durationTicks": 69,
          "midi": 64,
          "name": "E4",
          "ticks": 269160,
          "time": 210.28125,
          "velocity": 0.3228346456692913
        },
        {
          "duration": 0.04296875,
          "durationTicks": 55,
          "midi": 75,
          "name": "D#5",
          "ticks": 269160,
          "time": 210.28125,
          "velocity": 0.14960629921259844
        },
        {
          "duration": 0.20859374999997726,
          "durationTicks": 267,
          "midi": 76,
          "name": "E5",
          "ticks": 269160,
          "time": 210.28125,
          "velocity": 0.4409448818897638
        },
        {
          "duration": 0.26953125,
          "durationTicks": 345,
          "midi": 73,
          "name": "C#5",
          "ticks": 269280,
          "time": 210.375,
          "velocity": 0.5354330708661418
        },
        {
          "duration": 0.25,
          "durationTicks": 320,
          "midi": 85,
          "name": "C#6",
          "ticks": 269280,
          "time": 210.375,
          "velocity": 0.6456692913385826
        },
        {
          "duration": 0.03984375000001705,
          "durationTicks": 51,
          "midi": 56,
          "name": "G#3",
          "ticks": 269640,
          "time": 210.65625,
          "velocity": 0.2125984251968504
        },
        {
          "duration": 0.06484374999999432,
          "durationTicks": 83,
          "midi": 59,
          "name": "B3",
          "ticks": 269640,
          "time": 210.65625,
          "velocity": 0.41732283464566927
        },
        {
          "duration": 0.048437500000034106,
          "durationTicks": 62,
          "midi": 64,
          "name": "E4",
          "ticks": 269640,
          "time": 210.65625,
          "velocity": 0.31496062992125984
        },
        {
          "duration": 0.07890624999998863,
          "durationTicks": 101,
          "midi": 80,
          "name": "G#5",
          "ticks": 269640,
          "time": 210.65625,
          "velocity": 0.33070866141732286
        },
        {
          "duration": 0.19140625,
          "durationTicks": 245,
          "midi": 73,
          "name": "C#5",
          "ticks": 269760,
          "time": 210.75,
          "velocity": 0.6220472440944882
        },
        {
          "duration": 0.025781250000022737,
          "durationTicks": 33,
          "midi": 80,
          "name": "G#5",
          "ticks": 269760,
          "time": 210.75,
          "velocity": 0.3543307086614173
        },
        {
          "duration": 0.18046875000001705,
          "durationTicks": 231,
          "midi": 85,
          "name": "C#6",
          "ticks": 269760,
          "time": 210.75,
          "velocity": 0.5590551181102362
        },
        {
          "duration": 0.05078125,
          "durationTicks": 65,
          "midi": 74,
          "name": "D5",
          "ticks": 270000,
          "time": 210.9375,
          "velocity": 0.4015748031496063
        },
        {
          "duration": 0.11406249999998863,
          "durationTicks": 146,
          "midi": 86,
          "name": "D6",
          "ticks": 270000,
          "time": 210.9375,
          "velocity": 0.4330708661417323
        },
        {
          "duration": 0.08750000000000568,
          "durationTicks": 112,
          "midi": 56,
          "name": "G#3",
          "ticks": 270120,
          "time": 211.03125,
          "velocity": 0.3700787401574803
        },
        {
          "duration": 0.07578125000000568,
          "durationTicks": 97,
          "midi": 59,
          "name": "B3",
          "ticks": 270120,
          "time": 211.03125,
          "velocity": 0.36220472440944884
        },
        {
          "duration": 0.08203125,
          "durationTicks": 105,
          "midi": 64,
          "name": "E4",
          "ticks": 270120,
          "time": 211.03125,
          "velocity": 0.3543307086614173
        },
        {
          "duration": 0.21562500000001705,
          "durationTicks": 276,
          "midi": 74,
          "name": "D5",
          "ticks": 270240,
          "time": 211.125,
          "velocity": 0.41732283464566927
        },
        {
          "duration": 0.028125000000017053,
          "durationTicks": 36,
          "midi": 84,
          "name": "C6",
          "ticks": 270240,
          "time": 211.125,
          "velocity": 0.5039370078740157
        },
        {
          "duration": 0.21015625000001137,
          "durationTicks": 269,
          "midi": 86,
          "name": "D6",
          "ticks": 270240,
          "time": 211.125,
          "velocity": 0.41732283464566927
        },
        {
          "duration": 1.2984374999999773,
          "durationTicks": 1662,
          "midi": 53,
          "name": "F3",
          "ticks": 270480,
          "time": 211.3125,
          "velocity": 0.3779527559055118
        },
        {
          "duration": 1.2593750000000057,
          "durationTicks": 1612,
          "midi": 57,
          "name": "A3",
          "ticks": 270480,
          "time": 211.3125,
          "velocity": 0.3779527559055118
        },
        {
          "duration": 1.296875,
          "durationTicks": 1660,
          "midi": 58,
          "name": "A#3",
          "ticks": 270480,
          "time": 211.3125,
          "velocity": 0.4094488188976378
        },
        {
          "duration": 1.2593750000000057,
          "durationTicks": 1612,
          "midi": 62,
          "name": "D4",
          "ticks": 270480,
          "time": 211.3125,
          "velocity": 0.41732283464566927
        },
        {
          "duration": 0.1421875000000341,
          "durationTicks": 182,
          "midi": 80,
          "name": "G#5",
          "ticks": 270480,
          "time": 211.3125,
          "velocity": 0.5354330708661418
        },
        {
          "duration": 0.1015625,
          "durationTicks": 130,
          "midi": 81,
          "name": "A5",
          "ticks": 270720,
          "time": 211.5,
          "velocity": 0.2755905511811024
        },
        {
          "duration": 0.17656249999998863,
          "durationTicks": 226,
          "midi": 77,
          "name": "F5",
          "ticks": 270840,
          "time": 211.59375,
          "velocity": 0.2992125984251969
        },
        {
          "duration": 0.18671875000001137,
          "durationTicks": 239,
          "midi": 72,
          "name": "C5",
          "ticks": 271200,
          "time": 211.875,
          "velocity": 0.5196850393700787
        },
        {
          "duration": 0.13359375000001705,
          "durationTicks": 171,
          "midi": 70,
          "name": "A#4",
          "ticks": 271560,
          "time": 212.15625,
          "velocity": 0.6456692913385826
        },
        {
          "duration": 0.13515624999999432,
          "durationTicks": 173,
          "midi": 72,
          "name": "C5",
          "ticks": 271680,
          "time": 212.25,
          "velocity": 0.4409448818897638
        },
        {
          "duration": 0.1304687500000341,
          "durationTicks": 167,
          "midi": 70,
          "name": "A#4",
          "ticks": 271800,
          "time": 212.34375,
          "velocity": 0.33070866141732286
        },
        {
          "duration": 0.12343749999999432,
          "durationTicks": 158,
          "midi": 69,
          "name": "A4",
          "ticks": 271920,
          "time": 212.4375,
          "velocity": 0.3543307086614173
        },
        {
          "duration": 0.24609375,
          "durationTicks": 315,
          "midi": 70,
          "name": "A#4",
          "ticks": 272160,
          "time": 212.625,
          "velocity": 0.6456692913385826
        },
        {
          "duration": 0.10624999999998863,
          "durationTicks": 136,
          "midi": 74,
          "name": "D5",
          "ticks": 272520,
          "time": 212.90625,
          "velocity": 0.5433070866141733
        },
        {
          "duration": 0.46406249999998295,
          "durationTicks": 594,
          "midi": 72,
          "name": "C5",
          "ticks": 272640,
          "time": 213,
          "velocity": 0.4566929133858268
        },
        {
          "duration": 0.08125000000001137,
          "durationTicks": 104,
          "midi": 52,
          "name": "E3",
          "ticks": 273000,
          "time": 213.28125,
          "velocity": 0.41732283464566927
        },
        {
          "duration": 0.08906249999998295,
          "durationTicks": 114,
          "midi": 58,
          "name": "A#3",
          "ticks": 273000,
          "time": 213.28125,
          "velocity": 0.47244094488188976
        },
        {
          "duration": 0.0921874999999659,
          "durationTicks": 118,
          "midi": 62,
          "name": "D4",
          "ticks": 273000,
          "time": 213.28125,
          "velocity": 0.4094488188976378
        },
        {
          "duration": 0.49296874999998863,
          "durationTicks": 631,
          "midi": 55,
          "name": "G3",
          "ticks": 273480,
          "time": 213.65625,
          "velocity": 0.3228346456692913
        },
        {
          "duration": 0.4921875,
          "durationTicks": 630,
          "midi": 59,
          "name": "B3",
          "ticks": 273480,
          "time": 213.65625,
          "velocity": 0.2125984251968504
        },
        {
          "duration": 0.4906249999999659,
          "durationTicks": 628,
          "midi": 60,
          "name": "C4",
          "ticks": 273480,
          "time": 213.65625,
          "velocity": 0.2125984251968504
        },
        {
          "duration": 0.48359375000001137,
          "durationTicks": 619,
          "midi": 64,
          "name": "E4",
          "ticks": 273480,
          "time": 213.65625,
          "velocity": 0.31496062992125984
        },
        {
          "duration": 0.09062499999998863,
          "durationTicks": 116,
          "midi": 74,
          "name": "D5",
          "ticks": 273720,
          "time": 213.84375,
          "velocity": 0.5354330708661418
        },
        {
          "duration": 0.09687500000001137,
          "durationTicks": 124,
          "midi": 86,
          "name": "D6",
          "ticks": 273720,
          "time": 213.84375,
          "velocity": 0.5275590551181102
        },
        {
          "duration": 0.12265625000000568,
          "durationTicks": 157,
          "midi": 74,
          "name": "D5",
          "ticks": 273960,
          "time": 214.03125,
          "velocity": 0.4330708661417323
        },
        {
          "duration": 0.09687500000001137,
          "durationTicks": 124,
          "midi": 86,
          "name": "D6",
          "ticks": 273960,
          "time": 214.03125,
          "velocity": 0.5275590551181102
        },
        {
          "duration": 0.08906249999998295,
          "durationTicks": 114,
          "midi": 83,
          "name": "B5",
          "ticks": 274080,
          "time": 214.125,
          "velocity": 0.4330708661417323
        },
        {
          "duration": 0.05546874999998863,
          "durationTicks": 71,
          "midi": 79,
          "name": "G5",
          "ticks": 274200,
          "time": 214.21875,
          "velocity": 0.44881889763779526
        },
        {
          "duration": 0.32890624999998863,
          "durationTicks": 421,
          "midi": 55,
          "name": "G3",
          "ticks": 274320,
          "time": 214.3125,
          "velocity": 0.3779527559055118
        },
        {
          "duration": 0.3218750000000057,
          "durationTicks": 412,
          "midi": 59,
          "name": "B3",
          "ticks": 274320,
          "time": 214.3125,
          "velocity": 0.33858267716535434
        },
        {
          "duration": 0.33046875000002274,
          "durationTicks": 423,
          "midi": 60,
          "name": "C4",
          "ticks": 274320,
          "time": 214.3125,
          "velocity": 0.3543307086614173
        },
        {
          "duration": 0.31640625,
          "durationTicks": 405,
          "midi": 64,
          "name": "E4",
          "ticks": 274320,
          "time": 214.3125,
          "velocity": 0.36220472440944884
        },
        {
          "duration": 0.08203125,
          "durationTicks": 105,
          "midi": 74,
          "name": "D5",
          "ticks": 274320,
          "time": 214.3125,
          "velocity": 0.4566929133858268
        },
        {
          "duration": 0.07421875,
          "durationTicks": 95,
          "midi": 86,
          "name": "D6",
          "ticks": 274320,
          "time": 214.3125,
          "velocity": 0.5433070866141733
        },
        {
          "duration": 0.21562500000001705,
          "durationTicks": 276,
          "midi": 74,
          "name": "D5",
          "ticks": 274560,
          "time": 214.5,
          "velocity": 0.3779527559055118
        },
        {
          "duration": 0.17031249999999432,
          "durationTicks": 218,
          "midi": 86,
          "name": "D6",
          "ticks": 274560,
          "time": 214.5,
          "velocity": 0.3700787401574803
        },
        {
          "duration": 0.13125000000002274,
          "durationTicks": 168,
          "midi": 83,
          "name": "B5",
          "ticks": 274680,
          "time": 214.59375,
          "velocity": 0.4015748031496063
        },
        {
          "duration": 0.07890624999998863,
          "durationTicks": 101,
          "midi": 79,
          "name": "G5",
          "ticks": 274800,
          "time": 214.6875,
          "velocity": 0.4015748031496063
        },
        {
          "duration": 1.0570312500000227,
          "durationTicks": 1353,
          "midi": 54,
          "name": "F#3",
          "ticks": 274920,
          "time": 214.78125,
          "velocity": 0.41732283464566927
        },
        {
          "duration": 0.9632812500000227,
          "durationTicks": 1233,
          "midi": 60,
          "name": "C4",
          "ticks": 274920,
          "time": 214.78125,
          "velocity": 0.4566929133858268
        },
        {
          "duration": 0.546875,
          "durationTicks": 700,
          "midi": 65,
          "name": "F4",
          "ticks": 274920,
          "time": 214.78125,
          "velocity": 0.33070866141732286
        },
        {
          "duration": 0.0703125,
          "durationTicks": 90,
          "midi": 88,
          "name": "E6",
          "ticks": 275040,
          "time": 214.875,
          "velocity": 0.5354330708661418
        },
        {
          "duration": 0.11249999999998295,
          "durationTicks": 144,
          "midi": 89,
          "name": "F6",
          "ticks": 275040,
          "time": 214.875,
          "velocity": 0.5275590551181102
        },
        {
          "duration": 0.11484374999997726,
          "durationTicks": 147,
          "midi": 86,
          "name": "D6",
          "ticks": 275160,
          "time": 214.96875,
          "velocity": 0.44881889763779526
        },
        {
          "duration": 0.05859375,
          "durationTicks": 75,
          "midi": 82,
          "name": "A#5",
          "ticks": 275280,
          "time": 215.0625,
          "velocity": 0.2992125984251969
        },
        {
          "duration": 0.05000000000001137,
          "durationTicks": 64,
          "midi": 77,
          "name": "F5",
          "ticks": 275400,
          "time": 215.15625,
          "velocity": 0.4094488188976378
        },
        {
          "duration": 0.12031250000001137,
          "durationTicks": 154,
          "midi": 74,
          "name": "D5",
          "ticks": 275520,
          "time": 215.25,
          "velocity": 0.49606299212598426
        },
        {
          "duration": 0.021874999999965894,
          "durationTicks": 28,
          "midi": 75,
          "name": "D#5",
          "ticks": 275520,
          "time": 215.25,
          "velocity": 0.3700787401574803
        },
        {
          "duration": 0.07265625000002274,
          "durationTicks": 93,
          "midi": 70,
          "name": "A#4",
          "ticks": 275640,
          "time": 215.34375,
          "velocity": 0.2440944881889764
        },
        {
          "duration": 0.028906250000005684,
          "durationTicks": 37,
          "midi": 76,
          "name": "E5",
          "ticks": 275760,
          "time": 215.4375,
          "velocity": 0.4409448818897638
        },
        {
          "duration": 0.13437500000000568,
          "durationTicks": 172,
          "midi": 77,
          "name": "F5",
          "ticks": 275760,
          "time": 215.4375,
          "velocity": 0.5039370078740157
        },
        {
          "duration": 0.11171874999999432,
          "durationTicks": 143,
          "midi": 74,
          "name": "D5",
          "ticks": 275880,
          "time": 215.53125,
          "velocity": 0.4409448818897638
        },
        {
          "duration": 0.10312499999997726,
          "durationTicks": 132,
          "midi": 70,
          "name": "A#4",
          "ticks": 276000,
          "time": 215.625,
          "velocity": 0.4330708661417323
        },
        {
          "duration": 0.10546875,
          "durationTicks": 135,
          "midi": 65,
          "name": "F4",
          "ticks": 276120,
          "time": 215.71875,
          "velocity": 0.4015748031496063
        },
        {
          "duration": 0.0804687499999659,
          "durationTicks": 103,
          "midi": 69,
          "name": "A4",
          "ticks": 276240,
          "time": 215.8125,
          "velocity": 0.4330708661417323
        },
        {
          "duration": 0.09453124999998863,
          "durationTicks": 121,
          "midi": 72,
          "name": "C5",
          "ticks": 276360,
          "time": 215.90625,
          "velocity": 0.6614173228346457
        },
        {
          "duration": 0.14765624999998295,
          "durationTicks": 189,
          "midi": 70,
          "name": "A#4",
          "ticks": 276480,
          "time": 216,
          "velocity": 0.7165354330708661
        },
        {
          "duration": 0.66796875,
          "durationTicks": 855,
          "midi": 53,
          "name": "F3",
          "ticks": 276840,
          "time": 216.28125,
          "velocity": 0.4330708661417323
        },
        {
          "duration": 0.6312499999999659,
          "durationTicks": 808,
          "midi": 57,
          "name": "A3",
          "ticks": 276840,
          "time": 216.28125,
          "velocity": 0.4330708661417323
        },
        {
          "duration": 0.6703125000000227,
          "durationTicks": 858,
          "midi": 58,
          "name": "A#3",
          "ticks": 276840,
          "time": 216.28125,
          "velocity": 0.36220472440944884
        },
        {
          "duration": 0.6765624999999886,
          "durationTicks": 866,
          "midi": 62,
          "name": "D4",
          "ticks": 276840,
          "time": 216.28125,
          "velocity": 0.41732283464566927
        },
        {
          "duration": 0.12109375,
          "durationTicks": 155,
          "midi": 66,
          "name": "F#4",
          "ticks": 277200,
          "time": 216.5625,
          "velocity": 0.7480314960629921
        },
        {
          "duration": 0.12968749999998863,
          "durationTicks": 166,
          "midi": 67,
          "name": "G4",
          "ticks": 277440,
          "time": 216.75,
          "velocity": 0.33070866141732286
        },
        {
          "duration": 0.036718750000034106,
          "durationTicks": 47,
          "midi": 67,
          "name": "G4",
          "ticks": 277680,
          "time": 216.9375,
          "velocity": 0.5275590551181102
        },
        {
          "duration": 0.15156250000001137,
          "durationTicks": 194,
          "midi": 69,
          "name": "A4",
          "ticks": 277680,
          "time": 216.9375,
          "velocity": 0.6850393700787402
        },
        {
          "duration": 0.16875000000001705,
          "durationTicks": 216,
          "midi": 70,
          "name": "A#4",
          "ticks": 277920,
          "time": 217.125,
          "velocity": 0.5196850393700787
        },
        {
          "duration": 0.46562499999998863,
          "durationTicks": 596,
          "midi": 55,
          "name": "G3",
          "ticks": 278280,
          "time": 217.40625,
          "velocity": 0.36220472440944884
        },
        {
          "duration": 0.48906249999998863,
          "durationTicks": 626,
          "midi": 61,
          "name": "C#4",
          "ticks": 278280,
          "time": 217.40625,
          "velocity": 0.4094488188976378
        },
        {
          "duration": 0.46875,
          "durationTicks": 600,
          "midi": 65,
          "name": "F4",
          "ticks": 278280,
          "time": 217.40625,
          "velocity": 0.2047244094488189
        },
        {
          "duration": 0.14453125,
          "durationTicks": 185,
          "midi": 72,
          "name": "C5",
          "ticks": 278280,
          "time": 217.40625,
          "velocity": 0.49606299212598426
        },
        {
          "duration": 0.14296875000002274,
          "durationTicks": 183,
          "midi": 73,
          "name": "C#5",
          "ticks": 278400,
          "time": 217.5,
          "velocity": 0.33858267716535434
        },
        {
          "duration": 0.16328125000001137,
          "durationTicks": 209,
          "midi": 77,
          "name": "F5",
          "ticks": 278520,
          "time": 217.59375,
          "velocity": 0.4330708661417323
        },
        {
          "duration": 0.19453124999998295,
          "durationTicks": 249,
          "midi": 81,
          "name": "A5",
          "ticks": 278640,
          "time": 217.6875,
          "velocity": 0.7165354330708661
        },
        {
          "duration": 0.140625,
          "durationTicks": 180,
          "midi": 75,
          "name": "D#5",
          "ticks": 278880,
          "time": 217.875,
          "velocity": 0.2440944881889764
        },
        {
          "duration": 0.12421874999998295,
          "durationTicks": 159,
          "midi": 76,
          "name": "E5",
          "ticks": 279000,
          "time": 217.96875,
          "velocity": 0.4330708661417323
        },
        {
          "duration": 0.49140625000001137,
          "durationTicks": 629,
          "midi": 53,
          "name": "F3",
          "ticks": 279240,
          "time": 218.15625,
          "velocity": 0.3779527559055118
        },
        {
          "duration": 0.4921875,
          "durationTicks": 630,
          "midi": 57,
          "name": "A3",
          "ticks": 279240,
          "time": 218.15625,
          "velocity": 0.4409448818897638
        },
        {
          "duration": 0.5101562499999943,
          "durationTicks": 653,
          "midi": 60,
          "name": "C4",
          "ticks": 279240,
          "time": 218.15625,
          "velocity": 0.4330708661417323
        },
        {
          "duration": 0.4976562500000057,
          "durationTicks": 637,
          "midi": 64,
          "name": "E4",
          "ticks": 279240,
          "time": 218.15625,
          "velocity": 0.33858267716535434
        },
        {
          "duration": 0.11171874999999432,
          "durationTicks": 143,
          "midi": 79,
          "name": "G5",
          "ticks": 279240,
          "time": 218.15625,
          "velocity": 0.7165354330708661
        },
        {
          "duration": 0.25,
          "durationTicks": 320,
          "midi": 77,
          "name": "F5",
          "ticks": 279480,
          "time": 218.34375,
          "velocity": 0.14960629921259844
        },
        {
          "duration": 0.07968749999997726,
          "durationTicks": 102,
          "midi": 79,
          "name": "G5",
          "ticks": 279720,
          "time": 218.53125,
          "velocity": 0.6220472440944882
        },
        {
          "duration": 0.17656249999998863,
          "durationTicks": 226,
          "midi": 81,
          "name": "A5",
          "ticks": 279960,
          "time": 218.71875,
          "velocity": 0.047244094488188976
        },
        {
          "duration": 0.0546875,
          "durationTicks": 70,
          "midi": 53,
          "name": "F3",
          "ticks": 280200,
          "time": 218.90625,
          "velocity": 0.36220472440944884
        },
        {
          "duration": 0.053124999999994316,
          "durationTicks": 68,
          "midi": 57,
          "name": "A3",
          "ticks": 280200,
          "time": 218.90625,
          "velocity": 0.41732283464566927
        },
        {
          "duration": 0.06562499999998295,
          "durationTicks": 84,
          "midi": 60,
          "name": "C4",
          "ticks": 280200,
          "time": 218.90625,
          "velocity": 0.44881889763779526
        },
        {
          "duration": 0.08203125,
          "durationTicks": 105,
          "midi": 64,
          "name": "E4",
          "ticks": 280200,
          "time": 218.90625,
          "velocity": 0.3937007874015748
        },
        {
          "duration": 0.16171874999997726,
          "durationTicks": 207,
          "midi": 86,
          "name": "D6",
          "ticks": 280200,
          "time": 218.90625,
          "velocity": 0.5039370078740157
        },
        {
          "duration": 0.18359375,
          "durationTicks": 235,
          "midi": 89,
          "name": "F6",
          "ticks": 280440,
          "time": 219.09375,
          "velocity": 0.4330708661417323
        },
        {
          "duration": 0.7578125,
          "durationTicks": 970,
          "midi": 58,
          "name": "A#3",
          "ticks": 280680,
          "time": 219.28125,
          "velocity": 0.48031496062992124
        },
        {
          "duration": 0.765625,
          "durationTicks": 980,
          "midi": 62,
          "name": "D4",
          "ticks": 280680,
          "time": 219.28125,
          "velocity": 0.5039370078740157
        },
        {
          "duration": 0.768749999999983,
          "durationTicks": 984,
          "midi": 63,
          "name": "D#4",
          "ticks": 280680,
          "time": 219.28125,
          "velocity": 0.4330708661417323
        },
        {
          "duration": 0.7210937499999943,
          "durationTicks": 923,
          "midi": 67,
          "name": "G4",
          "ticks": 280680,
          "time": 219.28125,
          "velocity": 0.4409448818897638
        },
        {
          "duration": 0.10312499999997726,
          "durationTicks": 132,
          "midi": 81,
          "name": "A5",
          "ticks": 280680,
          "time": 219.28125,
          "velocity": 0.6850393700787402
        },
        {
          "duration": 0.10546875,
          "durationTicks": 135,
          "midi": 93,
          "name": "A6",
          "ticks": 280680,
          "time": 219.28125,
          "velocity": 0.6614173228346457
        },
        {
          "duration": 0.125,
          "durationTicks": 160,
          "midi": 77,
          "name": "F5",
          "ticks": 280920,
          "time": 219.46875,
          "velocity": 0.4566929133858268
        },
        {
          "duration": 0.12343749999999432,
          "durationTicks": 158,
          "midi": 79,
          "name": "G5",
          "ticks": 280920,
          "time": 219.46875,
          "velocity": 0.4330708661417323
        },
        {
          "duration": 0.16796875,
          "durationTicks": 215,
          "midi": 89,
          "name": "F6",
          "ticks": 280920,
          "time": 219.46875,
          "velocity": 0.49606299212598426
        },
        {
          "duration": 0.0703125,
          "durationTicks": 90,
          "midi": 85,
          "name": "C#6",
          "ticks": 281160,
          "time": 219.65625,
          "velocity": 0.6456692913385826
        },
        {
          "duration": 0.15937499999998295,
          "durationTicks": 204,
          "midi": 86,
          "name": "D6",
          "ticks": 281400,
          "time": 219.84375,
          "velocity": 0.2204724409448819
        },
        {
          "duration": 0.12578124999998863,
          "durationTicks": 161,
          "midi": 85,
          "name": "C#6",
          "ticks": 281640,
          "time": 220.03125,
          "velocity": 0.7480314960629921
        },
        {
          "duration": 0.12890625,
          "durationTicks": 165,
          "midi": 84,
          "name": "C6",
          "ticks": 281880,
          "time": 220.21875,
          "velocity": 0.4409448818897638
        },
        {
          "duration": 0.11249999999998295,
          "durationTicks": 144,
          "midi": 82,
          "name": "A#5",
          "ticks": 282120,
          "time": 220.40625,
          "velocity": 0.5039370078740157
        },
        {
          "duration": 0.58203125,
          "durationTicks": 745,
          "midi": 81,
          "name": "A5",
          "ticks": 282360,
          "time": 220.59375,
          "velocity": 0.5196850393700787
        },
        {
          "duration": 0.4921875,
          "durationTicks": 630,
          "midi": 57,
          "name": "A3",
          "ticks": 283080,
          "time": 221.15625,
          "velocity": 0.36220472440944884
        },
        {
          "duration": 0.45937500000002274,
          "durationTicks": 588,
          "midi": 62,
          "name": "D4",
          "ticks": 283080,
          "time": 221.15625,
          "velocity": 0.49606299212598426
        },
        {
          "duration": 0.4703125000000341,
          "durationTicks": 602,
          "midi": 67,
          "name": "G4",
          "ticks": 283080,
          "time": 221.15625,
          "velocity": 0.4566929133858268
        },
        {
          "duration": 0.36093749999997726,
          "durationTicks": 462,
          "midi": 77,
          "name": "F5",
          "ticks": 283080,
          "time": 221.15625,
          "velocity": 0.6850393700787402
        },
        {
          "duration": 0.06718749999998863,
          "durationTicks": 86,
          "midi": 74,
          "name": "D5",
          "ticks": 283560,
          "time": 221.53125,
          "velocity": 0.25984251968503935
        },
        {
          "duration": 0.24531250000001137,
          "durationTicks": 314,
          "midi": 82,
          "name": "A#5",
          "ticks": 283680,
          "time": 221.625,
          "velocity": 0.7795275590551181
        },
        {
          "duration": 0.9078125000000057,
          "durationTicks": 1162,
          "midi": 55,
          "name": "G3",
          "ticks": 284040,
          "time": 221.90625,
          "velocity": 0.4015748031496063
        },
        {
          "duration": 0.9054687500000114,
          "durationTicks": 1159,
          "midi": 61,
          "name": "C#4",
          "ticks": 284040,
          "time": 221.90625,
          "velocity": 0.31496062992125984
        },
        {
          "duration": 0.8671875,
          "durationTicks": 1110,
          "midi": 65,
          "name": "F4",
          "ticks": 284040,
          "time": 221.90625,
          "velocity": 0.3228346456692913
        },
        {
          "duration": 0.1156249999999659,
          "durationTicks": 148,
          "midi": 80,
          "name": "G#5",
          "ticks": 284040,
          "time": 221.90625,
          "velocity": 0.7480314960629921
        },
        {
          "duration": 0.26718749999997726,
          "durationTicks": 342,
          "midi": 81,
          "name": "A5",
          "ticks": 284160,
          "time": 222,
          "velocity": 0.25984251968503935
        },
        {
          "duration": 0.35078125000001137,
          "durationTicks": 449,
          "midi": 76,
          "name": "E5",
          "ticks": 284520,
          "time": 222.28125,
          "velocity": 0.5039370078740157
        },
        {
          "duration": 0.109375,
          "durationTicks": 140,
          "midi": 79,
          "name": "G5",
          "ticks": 285000,
          "time": 222.65625,
          "velocity": 0.8740157480314961
        },
        {
          "duration": 0.08281249999998863,
          "durationTicks": 106,
          "midi": 77,
          "name": "F5",
          "ticks": 285120,
          "time": 222.75,
          "velocity": 0.5354330708661418
        },
        {
          "duration": 0.11953125000002274,
          "durationTicks": 153,
          "midi": 79,
          "name": "G5",
          "ticks": 285240,
          "time": 222.84375,
          "velocity": 0.4015748031496063
        },
        {
          "duration": 0.08828124999999432,
          "durationTicks": 113,
          "midi": 77,
          "name": "F5",
          "ticks": 285360,
          "time": 222.9375,
          "velocity": 0.3700787401574803
        },
        {
          "duration": 0.08671875000001705,
          "durationTicks": 111,
          "midi": 76,
          "name": "E5",
          "ticks": 285480,
          "time": 223.03125,
          "velocity": 0.4330708661417323
        },
        {
          "duration": 0.22968749999998295,
          "durationTicks": 294,
          "midi": 72,
          "name": "C5",
          "ticks": 285600,
          "time": 223.125,
          "velocity": 0.4409448818897638
        },
        {
          "duration": 0.6539062499999773,
          "durationTicks": 837,
          "midi": 53,
          "name": "F3",
          "ticks": 285840,
          "time": 223.3125,
          "velocity": 0.25984251968503935
        },
        {
          "duration": 0.6203125000000114,
          "durationTicks": 794,
          "midi": 57,
          "name": "A3",
          "ticks": 285840,
          "time": 223.3125,
          "velocity": 0.31496062992125984
        },
        {
          "duration": 0.6437500000000114,
          "durationTicks": 824,
          "midi": 60,
          "name": "C4",
          "ticks": 285840,
          "time": 223.3125,
          "velocity": 0.1889763779527559
        },
        {
          "duration": 0.6484375,
          "durationTicks": 830,
          "midi": 64,
          "name": "E4",
          "ticks": 285840,
          "time": 223.3125,
          "velocity": 0.1889763779527559
        },
        {
          "duration": 0.17031249999999432,
          "durationTicks": 218,
          "midi": 69,
          "name": "A4",
          "ticks": 285960,
          "time": 223.40625,
          "velocity": 0.3543307086614173
        },
        {
          "duration": 0.08750000000000568,
          "durationTicks": 112,
          "midi": 69,
          "name": "A4",
          "ticks": 286320,
          "time": 223.6875,
          "velocity": 0.5590551181102362
        },
        {
          "duration": 0.1796875,
          "durationTicks": 230,
          "midi": 67,
          "name": "G4",
          "ticks": 286440,
          "time": 223.78125,
          "velocity": 0.36220472440944884
        },
        {
          "duration": 0.078125,
          "durationTicks": 100,
          "midi": 68,
          "name": "G#4",
          "ticks": 286560,
          "time": 223.875,
          "velocity": 0.3543307086614173
        },
        {
          "duration": 0.13593749999998295,
          "durationTicks": 174,
          "midi": 76,
          "name": "E5",
          "ticks": 286680,
          "time": 223.96875,
          "velocity": 0.5275590551181102
        },
        {
          "duration": 0.11953125000002274,
          "durationTicks": 153,
          "midi": 70,
          "name": "A#4",
          "ticks": 286920,
          "time": 224.15625,
          "velocity": 0.41732283464566927
        },
        {
          "duration": 0.10468750000001137,
          "durationTicks": 134,
          "midi": 71,
          "name": "B4",
          "ticks": 287040,
          "time": 224.25,
          "velocity": 0.44881889763779526
        },
        {
          "duration": 0.49140625000001137,
          "durationTicks": 629,
          "midi": 74,
          "name": "D5",
          "ticks": 287160,
          "time": 224.34375,
          "velocity": 0.6614173228346457
        },
        {
          "duration": 0.13593749999998295,
          "durationTicks": 174,
          "midi": 52,
          "name": "E3",
          "ticks": 287520,
          "time": 224.625,
          "velocity": 0.23622047244094488
        },
        {
          "duration": 0.15156250000001137,
          "durationTicks": 194,
          "midi": 56,
          "name": "G#3",
          "ticks": 287520,
          "time": 224.625,
          "velocity": 0.2755905511811024
        },
        {
          "duration": 0.17812500000002274,
          "durationTicks": 228,
          "midi": 62,
          "name": "D4",
          "ticks": 287520,
          "time": 224.625,
          "velocity": 0.2047244094488189
        },
        {
          "duration": 0.11093750000000568,
          "durationTicks": 142,
          "midi": 71,
          "name": "B4",
          "ticks": 287880,
          "time": 224.90625,
          "velocity": 0.5039370078740157
        },
        {
          "duration": 0.06328125000001705,
          "durationTicks": 81,
          "midi": 72,
          "name": "C5",
          "ticks": 287880,
          "time": 224.90625,
          "velocity": 0.2440944881889764
        },
        {
          "duration": 0.10312499999997726,
          "durationTicks": 132,
          "midi": 71,
          "name": "B4",
          "ticks": 288000,
          "time": 225,
          "velocity": 0.33070866141732286
        },
        {
          "duration": 0.8937500000000114,
          "durationTicks": 1144,
          "midi": 72,
          "name": "C5",
          "ticks": 288120,
          "time": 225.09375,
          "velocity": 0.5196850393700787
        },
        {
          "duration": 0.8960937500000057,
          "durationTicks": 1147,
          "midi": 55,
          "name": "G3",
          "ticks": 288840,
          "time": 225.65625,
          "velocity": 0.1968503937007874
        },
        {
          "duration": 0.8890624999999659,
          "durationTicks": 1138,
          "midi": 59,
          "name": "B3",
          "ticks": 288840,
          "time": 225.65625,
          "velocity": 0.2204724409448819
        },
        {
          "duration": 0.8890624999999659,
          "durationTicks": 1138,
          "midi": 60,
          "name": "C4",
          "ticks": 288840,
          "time": 225.65625,
          "velocity": 0.2047244094488189
        },
        {
          "duration": 0.8914062499999886,
          "durationTicks": 1141,
          "midi": 64,
          "name": "E4",
          "ticks": 288840,
          "time": 225.65625,
          "velocity": 0.18110236220472442
        },
        {
          "duration": 0.18125000000000568,
          "durationTicks": 232,
          "midi": 69,
          "name": "A4",
          "ticks": 289320,
          "time": 226.03125,
          "velocity": 0.4094488188976378
        },
        {
          "duration": 0.12578124999998863,
          "durationTicks": 161,
          "midi": 72,
          "name": "C5",
          "ticks": 289560,
          "time": 226.21875,
          "velocity": 0.5984251968503937
        },
        {
          "duration": 0.14140624999998863,
          "durationTicks": 181,
          "midi": 74,
          "name": "D5",
          "ticks": 289680,
          "time": 226.3125,
          "velocity": 0.33858267716535434
        },
        {
          "duration": 0.15468750000002274,
          "durationTicks": 198,
          "midi": 72,
          "name": "C5",
          "ticks": 289800,
          "time": 226.40625,
          "velocity": 0.3543307086614173
        },
        {
          "duration": 0.28437500000001137,
          "durationTicks": 364,
          "midi": 69,
          "name": "A4",
          "ticks": 289920,
          "time": 226.5,
          "velocity": 0.3779527559055118
        },
        {
          "duration": 0.37421875000001137,
          "durationTicks": 479,
          "midi": 70,
          "name": "A#4",
          "ticks": 290280,
          "time": 226.78125,
          "velocity": 0.7165354330708661
        },
        {
          "duration": 0.17656249999998863,
          "durationTicks": 226,
          "midi": 69,
          "name": "A4",
          "ticks": 290760,
          "time": 227.15625,
          "velocity": 0.3543307086614173
        },
        {
          "duration": 0.930468750000017,
          "durationTicks": 1191,
          "midi": 70,
          "name": "A#4",
          "ticks": 290880,
          "time": 227.25,
          "velocity": 0.6614173228346457
        },
        {
          "duration": 1.16015625,
          "durationTicks": 1485,
          "midi": 53,
          "name": "F3",
          "ticks": 291720,
          "time": 227.90625,
          "velocity": 0.1968503937007874
        },
        {
          "duration": 1.150000000000034,
          "durationTicks": 1472,
          "midi": 57,
          "name": "A3",
          "ticks": 291720,
          "time": 227.90625,
          "velocity": 0.2992125984251969
        },
        {
          "duration": 1.2015624999999943,
          "durationTicks": 1538,
          "midi": 58,
          "name": "A#3",
          "ticks": 291720,
          "time": 227.90625,
          "velocity": 0.2047244094488189
        },
        {
          "duration": 1.211718750000017,
          "durationTicks": 1551,
          "midi": 62,
          "name": "D4",
          "ticks": 291720,
          "time": 227.90625,
          "velocity": 0.2047244094488189
        },
        {
          "duration": 0.11249999999998295,
          "durationTicks": 144,
          "midi": 67,
          "name": "G4",
          "ticks": 292200,
          "time": 228.28125,
          "velocity": 0.2992125984251969
        },
        {
          "duration": 0.16015625,
          "durationTicks": 205,
          "midi": 69,
          "name": "A4",
          "ticks": 292320,
          "time": 228.375,
          "velocity": 0.4094488188976378
        },
        {
          "duration": 0.09921875000000568,
          "durationTicks": 127,
          "midi": 70,
          "name": "A#4",
          "ticks": 292560,
          "time": 228.5625,
          "velocity": 0.4881889763779528
        },
        {
          "duration": 0.13671875,
          "durationTicks": 175,
          "midi": 72,
          "name": "C5",
          "ticks": 292680,
          "time": 228.65625,
          "velocity": 0.33070866141732286
        },
        {
          "duration": 0.21015625000001137,
          "durationTicks": 269,
          "midi": 74,
          "name": "D5",
          "ticks": 292800,
          "time": 228.75,
          "velocity": 0.5354330708661418
        },
        {
          "duration": 0.16718750000001137,
          "durationTicks": 214,
          "midi": 77,
          "name": "F5",
          "ticks": 292920,
          "time": 228.84375,
          "velocity": 0.5039370078740157
        },
        {
          "duration": 0.1171875,
          "durationTicks": 150,
          "midi": 81,
          "name": "A5",
          "ticks": 293160,
          "time": 229.03125,
          "velocity": 0.5984251968503937
        },
        {
          "duration": 0.14687499999999432,
          "durationTicks": 188,
          "midi": 80,
          "name": "G#5",
          "ticks": 293280,
          "time": 229.125,
          "velocity": 0.5196850393700787
        },
        {
          "duration": 0.10234374999998863,
          "durationTicks": 131,
          "midi": 81,
          "name": "A5",
          "ticks": 293520,
          "time": 229.3125,
          "velocity": 0.5354330708661418
        },
        {
          "duration": 0.12031250000001137,
          "durationTicks": 154,
          "midi": 86,
          "name": "D6",
          "ticks": 293640,
          "time": 229.40625,
          "velocity": 0.5748031496062992
        },
        {
          "duration": 0.1156249999999659,
          "durationTicks": 148,
          "midi": 84,
          "name": "C6",
          "ticks": 293760,
          "time": 229.5,
          "velocity": 0.5354330708661418
        },
        {
          "duration": 0.12890625,
          "durationTicks": 165,
          "midi": 81,
          "name": "A5",
          "ticks": 294000,
          "time": 229.6875,
          "velocity": 0.49606299212598426
        },
        {
          "duration": 0.1171875,
          "durationTicks": 150,
          "midi": 76,
          "name": "E5",
          "ticks": 294120,
          "time": 229.78125,
          "velocity": 0.44881889763779526
        },
        {
          "duration": 0.1390624999999659,
          "durationTicks": 178,
          "midi": 74,
          "name": "D5",
          "ticks": 294360,
          "time": 229.96875,
          "velocity": 0.3937007874015748
        },
        {
          "duration": 0.09296875000001137,
          "durationTicks": 119,
          "midi": 72,
          "name": "C5",
          "ticks": 294480,
          "time": 230.0625,
          "velocity": 0.33070866141732286
        },
        {
          "duration": 0.15234375,
          "durationTicks": 195,
          "midi": 79,
          "name": "G5",
          "ticks": 294600,
          "time": 230.15625,
          "velocity": 0.5984251968503937
        },
        {
          "duration": 0.14765624999998295,
          "durationTicks": 189,
          "midi": 76,
          "name": "E5",
          "ticks": 294720,
          "time": 230.25,
          "velocity": 0.4566929133858268
        },
        {
          "duration": 0.14375000000001137,
          "durationTicks": 184,
          "midi": 72,
          "name": "C5",
          "ticks": 294960,
          "time": 230.4375,
          "velocity": 0.18110236220472442
        },
        {
          "duration": 0.08203125,
          "durationTicks": 105,
          "midi": 74,
          "name": "D5",
          "ticks": 294960,
          "time": 230.4375,
          "velocity": 0.2677165354330709
        },
        {
          "duration": 0.10781250000002274,
          "durationTicks": 138,
          "midi": 69,
          "name": "A4",
          "ticks": 295080,
          "time": 230.53125,
          "velocity": 0.25984251968503935
        },
        {
          "duration": 0.17890625000001137,
          "durationTicks": 229,
          "midi": 76,
          "name": "E5",
          "ticks": 295200,
          "time": 230.625,
          "velocity": 0.5748031496062992
        },
        {
          "duration": 0.18515624999997726,
          "durationTicks": 237,
          "midi": 72,
          "name": "C5",
          "ticks": 295440,
          "time": 230.8125,
          "velocity": 0.4330708661417323
        },
        {
          "duration": 0.13593749999998295,
          "durationTicks": 174,
          "midi": 69,
          "name": "A4",
          "ticks": 295560,
          "time": 230.90625,
          "velocity": 0.4015748031496063
        },
        {
          "duration": 0.11171874999999432,
          "durationTicks": 143,
          "midi": 65,
          "name": "F4",
          "ticks": 295800,
          "time": 231.09375,
          "velocity": 0.33858267716535434
        },
        {
          "duration": 0.16484374999998863,
          "durationTicks": 211,
          "midi": 72,
          "name": "C5",
          "ticks": 295920,
          "time": 231.1875,
          "velocity": 0.5748031496062992
        },
        {
          "duration": 0.1640625,
          "durationTicks": 210,
          "midi": 69,
          "name": "A4",
          "ticks": 296040,
          "time": 231.28125,
          "velocity": 0.4330708661417323
        },
        {
          "duration": 0.140625,
          "durationTicks": 180,
          "midi": 65,
          "name": "F4",
          "ticks": 296280,
          "time": 231.46875,
          "velocity": 0.4094488188976378
        },
        {
          "duration": 0.09999999999999432,
          "durationTicks": 128,
          "midi": 62,
          "name": "D4",
          "ticks": 296520,
          "time": 231.65625,
          "velocity": 0.2755905511811024
        },
        {
          "duration": 0.5835937499999773,
          "durationTicks": 747,
          "midi": 69,
          "name": "A4",
          "ticks": 296640,
          "time": 231.75,
          "velocity": 0.5748031496062992
        },
        {
          "duration": 0.6335937499999886,
          "durationTicks": 811,
          "midi": 53,
          "name": "F3",
          "ticks": 297360,
          "time": 232.3125,
          "velocity": 0.1732283464566929
        },
        {
          "duration": 0.616406249999983,
          "durationTicks": 789,
          "midi": 57,
          "name": "A3",
          "ticks": 297360,
          "time": 232.3125,
          "velocity": 0.29133858267716534
        },
        {
          "duration": 0.6898437499999659,
          "durationTicks": 883,
          "midi": 58,
          "name": "A#3",
          "ticks": 297360,
          "time": 232.3125,
          "velocity": 0.2125984251968504
        },
        {
          "duration": 0.3765625000000341,
          "durationTicks": 482,
          "midi": 65,
          "name": "F4",
          "ticks": 297360,
          "time": 232.3125,
          "velocity": 0.6850393700787402
        },
        {
          "duration": 0.05390624999998295,
          "durationTicks": 69,
          "midi": 62,
          "name": "D4",
          "ticks": 297960,
          "time": 232.78125,
          "velocity": 0.18110236220472442
        },
        {
          "duration": 0.22968749999998295,
          "durationTicks": 294,
          "midi": 64,
          "name": "E4",
          "ticks": 298080,
          "time": 232.875,
          "velocity": 0.5354330708661418
        },
        {
          "duration": 0.09375,
          "durationTicks": 120,
          "midi": 68,
          "name": "G#4",
          "ticks": 298440,
          "time": 233.15625,
          "velocity": 0.5196850393700787
        },
        {
          "duration": 0.17812500000002274,
          "durationTicks": 228,
          "midi": 72,
          "name": "C5",
          "ticks": 298560,
          "time": 233.25,
          "velocity": 0.4330708661417323
        },
        {
          "duration": 0.06093750000002274,
          "durationTicks": 78,
          "midi": 52,
          "name": "E3",
          "ticks": 298920,
          "time": 233.53125,
          "velocity": 0.33070866141732286
        },
        {
          "duration": 0.08203125,
          "durationTicks": 105,
          "midi": 56,
          "name": "G#3",
          "ticks": 298920,
          "time": 233.53125,
          "velocity": 0.29133858267716534
        },
        {
          "duration": 0.0625,
          "durationTicks": 80,
          "midi": 62,
          "name": "D4",
          "ticks": 298920,
          "time": 233.53125,
          "velocity": 0.33070866141732286
        },
        {
          "duration": 0.13125000000002274,
          "durationTicks": 168,
          "midi": 76,
          "name": "E5",
          "ticks": 298920,
          "time": 233.53125,
          "velocity": 0.48031496062992124
        },
        {
          "duration": 0.23203124999997726,
          "durationTicks": 297,
          "midi": 80,
          "name": "G#5",
          "ticks": 299040,
          "time": 233.625,
          "velocity": 0.33858267716535434
        },
        {
          "duration": 0.11328125,
          "durationTicks": 145,
          "midi": 84,
          "name": "C6",
          "ticks": 299400,
          "time": 233.90625,
          "velocity": 0.5748031496062992
        },
        {
          "duration": 0.32421875,
          "durationTicks": 415,
          "midi": 73,
          "name": "C#5",
          "ticks": 299520,
          "time": 234,
          "velocity": 0.5196850393700787
        },
        {
          "duration": 0.31640625,
          "durationTicks": 405,
          "midi": 85,
          "name": "C#6",
          "ticks": 299520,
          "time": 234,
          "velocity": 0.5984251968503937
        },
        {
          "duration": 0.3148437499999659,
          "durationTicks": 403,
          "midi": 49,
          "name": "C#3",
          "ticks": 300360,
          "time": 234.65625,
          "velocity": 0.3543307086614173
        },
        {
          "duration": 0.25390625,
          "durationTicks": 325,
          "midi": 61,
          "name": "C#4",
          "ticks": 300360,
          "time": 234.65625,
          "velocity": 0.2755905511811024
        },
        {
          "duration": 0.2679687499999659,
          "durationTicks": 343,
          "midi": 67,
          "name": "G4",
          "ticks": 300360,
          "time": 234.65625,
          "velocity": 0.4566929133858268
        },
        {
          "duration": 0.26171875,
          "durationTicks": 335,
          "midi": 73,
          "name": "C#5",
          "ticks": 300360,
          "time": 234.65625,
          "velocity": 0.5196850393700787
        },
        {
          "duration": 0.24843750000002274,
          "durationTicks": 318,
          "midi": 78,
          "name": "F#5",
          "ticks": 300360,
          "time": 234.65625,
          "velocity": 0.4566929133858268
        },
        {
          "duration": 0.24531250000001137,
          "durationTicks": 314,
          "midi": 81,
          "name": "A5",
          "ticks": 300360,
          "time": 234.65625,
          "velocity": 0.49606299212598426
        },
        {
          "duration": 0.3851562499999659,
          "durationTicks": 493,
          "midi": 48,
          "name": "C3",
          "ticks": 300960,
          "time": 235.125,
          "velocity": 0.25196850393700787
        },
        {
          "duration": 0.34453125000001705,
          "durationTicks": 441,
          "midi": 60,
          "name": "C4",
          "ticks": 300960,
          "time": 235.125,
          "velocity": 0.25196850393700787
        },
        {
          "duration": 0.3359375,
          "durationTicks": 430,
          "midi": 66,
          "name": "F#4",
          "ticks": 300960,
          "time": 235.125,
          "velocity": 0.2125984251968504
        },
        {
          "duration": 0.3062500000000341,
          "durationTicks": 392,
          "midi": 72,
          "name": "C5",
          "ticks": 300960,
          "time": 235.125,
          "velocity": 0.4881889763779528
        },
        {
          "duration": 0.2874999999999943,
          "durationTicks": 368,
          "midi": 78,
          "name": "F#5",
          "ticks": 300960,
          "time": 235.125,
          "velocity": 0.41732283464566927
        },
        {
          "duration": 0.3031249999999659,
          "durationTicks": 388,
          "midi": 48,
          "name": "C3",
          "ticks": 301680,
          "time": 235.6875,
          "velocity": 0.2204724409448819
        },
        {
          "duration": 0.32109375000001705,
          "durationTicks": 411,
          "midi": 60,
          "name": "C4",
          "ticks": 301680,
          "time": 235.6875,
          "velocity": 0.36220472440944884
        },
        {
          "duration": 0.31406249999997726,
          "durationTicks": 402,
          "midi": 64,
          "name": "E4",
          "ticks": 301680,
          "time": 235.6875,
          "velocity": 0.3228346456692913
        },
        {
          "duration": 0.46875,
          "durationTicks": 600,
          "midi": 66,
          "name": "F#4",
          "ticks": 301680,
          "time": 235.6875,
          "velocity": 0.2283464566929134
        },
        {
          "duration": 0.43671875000001137,
          "durationTicks": 559,
          "midi": 69,
          "name": "A4",
          "ticks": 301680,
          "time": 235.6875,
          "velocity": 0.3700787401574803
        },
        {
          "duration": 0.567187500000017,
          "durationTicks": 726,
          "midi": 47,
          "name": "B2",
          "ticks": 302400,
          "time": 236.25,
          "velocity": 0.13385826771653545
        },
        {
          "duration": 0.578125,
          "durationTicks": 740,
          "midi": 59,
          "name": "B3",
          "ticks": 302400,
          "time": 236.25,
          "velocity": 0.2047244094488189
        },
        {
          "duration": 0.5968750000000114,
          "durationTicks": 764,
          "midi": 62,
          "name": "D4",
          "ticks": 302400,
          "time": 236.25,
          "velocity": 0.2283464566929134
        },
        {
          "duration": 0.628124999999983,
          "durationTicks": 804,
          "midi": 67,
          "name": "G4",
          "ticks": 302400,
          "time": 236.25,
          "velocity": 0.2755905511811024
        },
        {
          "duration": 0.2265625,
          "durationTicks": 290,
          "midi": 48,
          "name": "C3",
          "ticks": 303840,
          "time": 237.375,
          "velocity": 0.18110236220472442
        },
        {
          "duration": 0.20546874999999432,
          "durationTicks": 263,
          "midi": 52,
          "name": "E3",
          "ticks": 303840,
          "time": 237.375,
          "velocity": 0.31496062992125984
        },
        {
          "duration": 0.22343749999998863,
          "durationTicks": 286,
          "midi": 58,
          "name": "A#3",
          "ticks": 303840,
          "time": 237.375,
          "velocity": 0.15748031496062992
        },
        {
          "duration": 0.2210937499999659,
          "durationTicks": 283,
          "midi": 61,
          "name": "C#4",
          "ticks": 303840,
          "time": 237.375,
          "velocity": 0.1732283464566929
        },
        {
          "duration": 0.29765625000001705,
          "durationTicks": 381,
          "midi": 64,
          "name": "E4",
          "ticks": 303840,
          "time": 237.375,
          "velocity": 0.28346456692913385
        },
        {
          "duration": 0.33749999999997726,
          "durationTicks": 432,
          "midi": 48,
          "name": "C3",
          "ticks": 304320,
          "time": 237.75,
          "velocity": 0.25984251968503935
        },
        {
          "duration": 0.3382812499999659,
          "durationTicks": 433,
          "midi": 52,
          "name": "E3",
          "ticks": 304320,
          "time": 237.75,
          "velocity": 0.4409448818897638
        },
        {
          "duration": 0.3968749999999659,
          "durationTicks": 508,
          "midi": 58,
          "name": "A#3",
          "ticks": 304320,
          "time": 237.75,
          "velocity": 0.31496062992125984
        },
        {
          "duration": 0.43359375,
          "durationTicks": 555,
          "midi": 62,
          "name": "D4",
          "ticks": 304320,
          "time": 237.75,
          "velocity": 0.41732283464566927
        },
        {
          "duration": 0.33906250000001137,
          "durationTicks": 434,
          "midi": 65,
          "name": "F4",
          "ticks": 304320,
          "time": 237.75,
          "velocity": 0.44881889763779526
        },
        {
          "duration": 0.16718750000001137,
          "durationTicks": 214,
          "midi": 64,
          "name": "E4",
          "ticks": 304800,
          "time": 238.125,
          "velocity": 0.5039370078740157
        },
        {
          "duration": 0.35546875,
          "durationTicks": 455,
          "midi": 67,
          "name": "G4",
          "ticks": 304800,
          "time": 238.125,
          "velocity": 0.4881889763779528
        },
        {
          "duration": 0.0953125000000341,
          "durationTicks": 122,
          "midi": 51,
          "name": "D#3",
          "ticks": 305160,
          "time": 238.40625,
          "velocity": 0.3543307086614173
        },
        {
          "duration": 0.1039062499999659,
          "durationTicks": 133,
          "midi": 57,
          "name": "A3",
          "ticks": 305160,
          "time": 238.40625,
          "velocity": 0.3228346456692913
        },
        {
          "duration": 0.1421875000000341,
          "durationTicks": 182,
          "midi": 62,
          "name": "D4",
          "ticks": 305160,
          "time": 238.40625,
          "velocity": 0.4881889763779528
        },
        {
          "duration": 0.16953125000000568,
          "durationTicks": 217,
          "midi": 63,
          "name": "D#4",
          "ticks": 305160,
          "time": 238.40625,
          "velocity": 0.44881889763779526
        },
        {
          "duration": 0.19687499999997726,
          "durationTicks": 252,
          "midi": 69,
          "name": "A4",
          "ticks": 305160,
          "time": 238.40625,
          "velocity": 0.44881889763779526
        },
        {
          "duration": 0.23984375000000568,
          "durationTicks": 307,
          "midi": 58,
          "name": "A#3",
          "ticks": 306000,
          "time": 239.0625,
          "velocity": 0.36220472440944884
        },
        {
          "duration": 0.2984375000000057,
          "durationTicks": 382,
          "midi": 63,
          "name": "D#4",
          "ticks": 306000,
          "time": 239.0625,
          "velocity": 0.33070866141732286
        },
        {
          "duration": 0.2710937500000341,
          "durationTicks": 347,
          "midi": 67,
          "name": "G4",
          "ticks": 306000,
          "time": 239.0625,
          "velocity": 0.5196850393700787
        },
        {
          "duration": 0.19296875000000568,
          "durationTicks": 247,
          "midi": 72,
          "name": "C5",
          "ticks": 306000,
          "time": 239.0625,
          "velocity": 0.5590551181102362
        },
        {
          "duration": 0.37812500000001137,
          "durationTicks": 484,
          "midi": 77,
          "name": "F5",
          "ticks": 306000,
          "time": 239.0625,
          "velocity": 0.5984251968503937
        },
        {
          "duration": 0.20546874999999432,
          "durationTicks": 263,
          "midi": 57,
          "name": "A3",
          "ticks": 306600,
          "time": 239.53125,
          "velocity": 0.3543307086614173
        },
        {
          "duration": 0.22578125000001137,
          "durationTicks": 289,
          "midi": 62,
          "name": "D4",
          "ticks": 306600,
          "time": 239.53125,
          "velocity": 0.33858267716535434
        },
        {
          "duration": 0.21328125000002274,
          "durationTicks": 273,
          "midi": 65,
          "name": "F4",
          "ticks": 306600,
          "time": 239.53125,
          "velocity": 0.4094488188976378
        },
        {
          "duration": 0.24296874999998863,
          "durationTicks": 311,
          "midi": 69,
          "name": "A4",
          "ticks": 306600,
          "time": 239.53125,
          "velocity": 0.49606299212598426
        },
        {
          "duration": 0.2796874999999659,
          "durationTicks": 358,
          "midi": 74,
          "name": "D5",
          "ticks": 306600,
          "time": 239.53125,
          "velocity": 0.5196850393700787
        },
        {
          "duration": 0.5632812499999886,
          "durationTicks": 721,
          "midi": 57,
          "name": "A3",
          "ticks": 307440,
          "time": 240.1875,
          "velocity": 0.4409448818897638
        },
        {
          "duration": 0.5625,
          "durationTicks": 720,
          "midi": 62,
          "name": "D4",
          "ticks": 307440,
          "time": 240.1875,
          "velocity": 0.47244094488188976
        },
        {
          "duration": 0.5648437500000227,
          "durationTicks": 723,
          "midi": 67,
          "name": "G4",
          "ticks": 307440,
          "time": 240.1875,
          "velocity": 0.4330708661417323
        },
        {
          "duration": 0.21640625000000568,
          "durationTicks": 277,
          "midi": 72,
          "name": "C5",
          "ticks": 307440,
          "time": 240.1875,
          "velocity": 0.49606299212598426
        },
        {
          "duration": 0.24687499999998863,
          "durationTicks": 316,
          "midi": 77,
          "name": "F5",
          "ticks": 307440,
          "time": 240.1875,
          "velocity": 0.5275590551181102
        },
        {
          "duration": 0.27421875000001705,
          "durationTicks": 351,
          "midi": 81,
          "name": "A5",
          "ticks": 307440,
          "time": 240.1875,
          "velocity": 0.5039370078740157
        },
        {
          "duration": 0.28828124999998295,
          "durationTicks": 369,
          "midi": 82,
          "name": "A#5",
          "ticks": 308160,
          "time": 240.75,
          "velocity": 0.6850393700787402
        },
        {
          "duration": 0.5328125000000057,
          "durationTicks": 682,
          "midi": 57,
          "name": "A3",
          "ticks": 308520,
          "time": 241.03125,
          "velocity": 0.11811023622047244
        },
        {
          "duration": 0.5328125000000057,
          "durationTicks": 682,
          "midi": 62,
          "name": "D4",
          "ticks": 308520,
          "time": 241.03125,
          "velocity": 0.25196850393700787
        },
        {
          "duration": 0.5296875000000227,
          "durationTicks": 678,
          "midi": 67,
          "name": "G4",
          "ticks": 308520,
          "time": 241.03125,
          "velocity": 0.13385826771653545
        },
        {
          "duration": 0.20546874999999432,
          "durationTicks": 263,
          "midi": 81,
          "name": "A5",
          "ticks": 308640,
          "time": 241.125,
          "velocity": 0.5748031496062992
        },
        {
          "duration": 0.12265625000000568,
          "durationTicks": 157,
          "midi": 82,
          "name": "A#5",
          "ticks": 308880,
          "time": 241.3125,
          "velocity": 0.5196850393700787
        },
        {
          "duration": 0.21640625000000568,
          "durationTicks": 277,
          "midi": 81,
          "name": "A5",
          "ticks": 309000,
          "time": 241.40625,
          "velocity": 0.4881889763779528
        },
        {
          "duration": 0.2640624999999943,
          "durationTicks": 338,
          "midi": 79,
          "name": "G5",
          "ticks": 309120,
          "time": 241.5,
          "velocity": 0.28346456692913385
        },
        {
          "duration": 0.48515625000001705,
          "durationTicks": 621,
          "midi": 55,
          "name": "G3",
          "ticks": 309360,
          "time": 241.6875,
          "velocity": 0.36220472440944884
        },
        {
          "duration": 0.5070312500000114,
          "durationTicks": 649,
          "midi": 60,
          "name": "C4",
          "ticks": 309360,
          "time": 241.6875,
          "velocity": 0.3543307086614173
        },
        {
          "duration": 0.5062500000000227,
          "durationTicks": 648,
          "midi": 61,
          "name": "C#4",
          "ticks": 309360,
          "time": 241.6875,
          "velocity": 0.2204724409448819
        },
        {
          "duration": 0.515625,
          "durationTicks": 660,
          "midi": 65,
          "name": "F4",
          "ticks": 309360,
          "time": 241.6875,
          "velocity": 0.25984251968503935
        },
        {
          "duration": 0.15859374999999432,
          "durationTicks": 203,
          "midi": 81,
          "name": "A5",
          "ticks": 309360,
          "time": 241.6875,
          "velocity": 0.5984251968503937
        },
        {
          "duration": 0.14609375000000568,
          "durationTicks": 187,
          "midi": 82,
          "name": "A#5",
          "ticks": 309720,
          "time": 241.96875,
          "velocity": 0.18110236220472442
        },
        {
          "duration": 0.14453125,
          "durationTicks": 185,
          "midi": 86,
          "name": "D6",
          "ticks": 309960,
          "time": 242.15625,
          "velocity": 0.6614173228346457
        },
        {
          "duration": 0.2523437499999943,
          "durationTicks": 323,
          "midi": 84,
          "name": "C6",
          "ticks": 310080,
          "time": 242.25,
          "velocity": 0.4094488188976378
        },
        {
          "duration": 0.06093750000002274,
          "durationTicks": 78,
          "midi": 55,
          "name": "G3",
          "ticks": 310320,
          "time": 242.4375,
          "velocity": 0.2204724409448819
        },
        {
          "duration": 0.08125000000001137,
          "durationTicks": 104,
          "midi": 60,
          "name": "C4",
          "ticks": 310320,
          "time": 242.4375,
          "velocity": 0.28346456692913385
        },
        {
          "duration": 0.08125000000001137,
          "durationTicks": 104,
          "midi": 61,
          "name": "C#4",
          "ticks": 310320,
          "time": 242.4375,
          "velocity": 0.18110236220472442
        },
        {
          "duration": 0.06562499999998295,
          "durationTicks": 84,
          "midi": 65,
          "name": "F4",
          "ticks": 310320,
          "time": 242.4375,
          "velocity": 0.2047244094488189
        },
        {
          "duration": 0.16328125000001137,
          "durationTicks": 209,
          "midi": 82,
          "name": "A#5",
          "ticks": 310320,
          "time": 242.4375,
          "velocity": 0.5433070866141733
        },
        {
          "duration": 0.2109375,
          "durationTicks": 270,
          "midi": 81,
          "name": "A5",
          "ticks": 310560,
          "time": 242.625,
          "velocity": 0.4330708661417323
        },
        {
          "duration": 0.5648437500000227,
          "durationTicks": 723,
          "midi": 55,
          "name": "G3",
          "ticks": 310800,
          "time": 242.8125,
          "velocity": 0.2992125984251969
        },
        {
          "duration": 0.5249999999999773,
          "durationTicks": 672,
          "midi": 59,
          "name": "B3",
          "ticks": 310800,
          "time": 242.8125,
          "velocity": 0.3700787401574803
        },
        {
          "duration": 0.5484374999999773,
          "durationTicks": 702,
          "midi": 60,
          "name": "C4",
          "ticks": 310800,
          "time": 242.8125,
          "velocity": 0.33858267716535434
        },
        {
          "duration": 0.5492187499999659,
          "durationTicks": 703,
          "midi": 64,
          "name": "E4",
          "ticks": 310800,
          "time": 242.8125,
          "velocity": 0.25196850393700787
        },
        {
          "duration": 0.060156250000034106,
          "durationTicks": 77,
          "midi": 79,
          "name": "G5",
          "ticks": 310800,
          "time": 242.8125,
          "velocity": 0.1889763779527559
        },
        {
          "duration": 0.41484375000001705,
          "durationTicks": 531,
          "midi": 55,
          "name": "G3",
          "ticks": 311040,
          "time": 243,
          "velocity": 0.44881889763779526
        },
        {
          "duration": 0.3671875,
          "durationTicks": 470,
          "midi": 59,
          "name": "B3",
          "ticks": 311040,
          "time": 243,
          "velocity": 0.4094488188976378
        },
        {
          "duration": 0.38906250000002274,
          "durationTicks": 498,
          "midi": 60,
          "name": "C4",
          "ticks": 311040,
          "time": 243,
          "velocity": 0.3937007874015748
        },
        {
          "duration": 0.38906250000002274,
          "durationTicks": 498,
          "midi": 64,
          "name": "E4",
          "ticks": 311040,
          "time": 243,
          "velocity": 0.4330708661417323
        },
        {
          "duration": 0.14531250000001705,
          "durationTicks": 186,
          "midi": 73,
          "name": "C#5",
          "ticks": 311040,
          "time": 243,
          "velocity": 0.6850393700787402
        },
        {
          "duration": 0.03437500000001137,
          "durationTicks": 44,
          "midi": 81,
          "name": "A5",
          "ticks": 311040,
          "time": 243,
          "velocity": 0.4881889763779528
        },
        {
          "duration": 0.17656249999998863,
          "durationTicks": 226,
          "midi": 85,
          "name": "C#6",
          "ticks": 311040,
          "time": 243,
          "velocity": 0.6850393700787402
        },
        {
          "duration": 0.12109375,
          "durationTicks": 155,
          "midi": 74,
          "name": "D5",
          "ticks": 311280,
          "time": 243.1875,
          "velocity": 0.3543307086614173
        },
        {
          "duration": 0.11093750000000568,
          "durationTicks": 142,
          "midi": 86,
          "name": "D6",
          "ticks": 311400,
          "time": 243.28125,
          "velocity": 0.4330708661417323
        },
        {
          "duration": 0.11171874999999432,
          "durationTicks": 143,
          "midi": 74,
          "name": "D5",
          "ticks": 311520,
          "time": 243.375,
          "velocity": 0.33070866141732286
        },
        {
          "duration": 0.1070312500000341,
          "durationTicks": 137,
          "midi": 86,
          "name": "D6",
          "ticks": 311640,
          "time": 243.46875,
          "velocity": 0.47244094488188976
        },
        {
          "duration": 0.09687500000001137,
          "durationTicks": 124,
          "midi": 74,
          "name": "D5",
          "ticks": 311760,
          "time": 243.5625,
          "velocity": 0.3543307086614173
        },
        {
          "duration": 0.2109375,
          "durationTicks": 270,
          "midi": 55,
          "name": "G3",
          "ticks": 311880,
          "time": 243.65625,
          "velocity": 0.48031496062992124
        },
        {
          "duration": 0.171875,
          "durationTicks": 220,
          "midi": 59,
          "name": "B3",
          "ticks": 311880,
          "time": 243.65625,
          "velocity": 0.47244094488188976
        },
        {
          "duration": 0.1773437500000341,
          "durationTicks": 227,
          "midi": 60,
          "name": "C4",
          "ticks": 311880,
          "time": 243.65625,
          "velocity": 0.4409448818897638
        },
        {
          "duration": 0.17031249999999432,
          "durationTicks": 218,
          "midi": 64,
          "name": "E4",
          "ticks": 311880,
          "time": 243.65625,
          "velocity": 0.44881889763779526
        },
        {
          "duration": 0.11328125,
          "durationTicks": 145,
          "midi": 86,
          "name": "D6",
          "ticks": 311880,
          "time": 243.65625,
          "velocity": 0.3779527559055118
        },
        {
          "duration": 0.09453124999998863,
          "durationTicks": 121,
          "midi": 74,
          "name": "D5",
          "ticks": 312120,
          "time": 243.84375,
          "velocity": 0.3228346456692913
        },
        {
          "duration": 0.11953125000002274,
          "durationTicks": 153,
          "midi": 86,
          "name": "D6",
          "ticks": 312240,
          "time": 243.9375,
          "velocity": 0.41732283464566927
        },
        {
          "duration": 0.0687499999999659,
          "durationTicks": 88,
          "midi": 74,
          "name": "D5",
          "ticks": 312360,
          "time": 244.03125,
          "velocity": 0.2125984251968504
        },
        {
          "duration": 0.09921875000000568,
          "durationTicks": 127,
          "midi": 86,
          "name": "D6",
          "ticks": 312480,
          "time": 244.125,
          "velocity": 0.49606299212598426
        },
        {
          "duration": 0.35078125000001137,
          "durationTicks": 449,
          "midi": 50,
          "name": "D3",
          "ticks": 312600,
          "time": 244.21875,
          "velocity": 0.5275590551181102
        },
        {
          "duration": 0.38749999999998863,
          "durationTicks": 496,
          "midi": 55,
          "name": "G3",
          "ticks": 312600,
          "time": 244.21875,
          "velocity": 0.5039370078740157
        },
        {
          "duration": 0.3765625000000341,
          "durationTicks": 482,
          "midi": 60,
          "name": "C4",
          "ticks": 312600,
          "time": 244.21875,
          "velocity": 0.5039370078740157
        },
        {
          "duration": 0.09687500000001137,
          "durationTicks": 124,
          "midi": 74,
          "name": "D5",
          "ticks": 312600,
          "time": 244.21875,
          "velocity": 0.3700787401574803
        },
        {
          "duration": 0.1039062499999659,
          "durationTicks": 133,
          "midi": 86,
          "name": "D6",
          "ticks": 312720,
          "time": 244.3125,
          "velocity": 0.5039370078740157
        },
        {
          "duration": 0.11249999999998295,
          "durationTicks": 144,
          "midi": 74,
          "name": "D5",
          "ticks": 312840,
          "time": 244.40625,
          "velocity": 0.3700787401574803
        },
        {
          "duration": 0.12187500000001705,
          "durationTicks": 156,
          "midi": 86,
          "name": "D6",
          "ticks": 312960,
          "time": 244.5,
          "velocity": 0.4330708661417323
        },
        {
          "duration": 0.10078124999998295,
          "durationTicks": 129,
          "midi": 74,
          "name": "D5",
          "ticks": 313080,
          "time": 244.59375,
          "velocity": 0.3700787401574803
        },
        {
          "duration": 0.10781250000002274,
          "durationTicks": 138,
          "midi": 86,
          "name": "D6",
          "ticks": 313200,
          "time": 244.6875,
          "velocity": 0.4094488188976378
        },
        {
          "duration": 0.1390624999999659,
          "durationTicks": 178,
          "midi": 52,
          "name": "E3",
          "ticks": 313320,
          "time": 244.78125,
          "velocity": 0.5354330708661418
        },
        {
          "duration": 0.12421874999998295,
          "durationTicks": 159,
          "midi": 57,
          "name": "A3",
          "ticks": 313320,
          "time": 244.78125,
          "velocity": 0.5039370078740157
        },
        {
          "duration": 0.17656249999998863,
          "durationTicks": 226,
          "midi": 62,
          "name": "D4",
          "ticks": 313320,
          "time": 244.78125,
          "velocity": 0.4881889763779528
        },
        {
          "duration": 0.09375,
          "durationTicks": 120,
          "midi": 74,
          "name": "D5",
          "ticks": 313320,
          "time": 244.78125,
          "velocity": 0.4330708661417323
        },
        {
          "duration": 0.09375,
          "durationTicks": 120,
          "midi": 86,
          "name": "D6",
          "ticks": 313440,
          "time": 244.875,
          "velocity": 0.49606299212598426
        },
        {
          "duration": 0.17656249999998863,
          "durationTicks": 226,
          "midi": 74,
          "name": "D5",
          "ticks": 313560,
          "time": 244.96875,
          "velocity": 0.4094488188976378
        },
        {
          "duration": 0.11406249999998863,
          "durationTicks": 146,
          "midi": 86,
          "name": "D6",
          "ticks": 313680,
          "time": 245.0625,
          "velocity": 0.4409448818897638
        },
        {
          "duration": 0.46015625000001137,
          "durationTicks": 589,
          "midi": 57,
          "name": "A3",
          "ticks": 313920,
          "time": 245.25,
          "velocity": 0.4566929133858268
        },
        {
          "duration": 0.45390624999998863,
          "durationTicks": 581,
          "midi": 61,
          "name": "C#4",
          "ticks": 313920,
          "time": 245.25,
          "velocity": 0.36220472440944884
        },
        {
          "duration": 0.4820312500000341,
          "durationTicks": 617,
          "midi": 62,
          "name": "D4",
          "ticks": 313920,
          "time": 245.25,
          "velocity": 0.5196850393700787
        },
        {
          "duration": 0.46406249999998295,
          "durationTicks": 594,
          "midi": 66,
          "name": "F#4",
          "ticks": 313920,
          "time": 245.25,
          "velocity": 0.4409448818897638
        },
        {
          "duration": 0.16796875,
          "durationTicks": 215,
          "midi": 75,
          "name": "D#5",
          "ticks": 313920,
          "time": 245.25,
          "velocity": 0.7165354330708661
        },
        {
          "duration": 0.140625,
          "durationTicks": 180,
          "midi": 87,
          "name": "D#6",
          "ticks": 313920,
          "time": 245.25,
          "velocity": 0.5984251968503937
        },
        {
          "duration": 0.7492187500000114,
          "durationTicks": 959,
          "midi": 76,
          "name": "E5",
          "ticks": 314160,
          "time": 245.4375,
          "velocity": 0.5039370078740157
        },
        {
          "duration": 0.43828125000001705,
          "durationTicks": 561,
          "midi": 88,
          "name": "E6",
          "ticks": 314160,
          "time": 245.4375,
          "velocity": 0.3937007874015748
        },
        {
          "duration": 0.6031250000000057,
          "durationTicks": 772,
          "midi": 57,
          "name": "A3",
          "ticks": 314760,
          "time": 245.90625,
          "velocity": 0.47244094488188976
        },
        {
          "duration": 0.59765625,
          "durationTicks": 765,
          "midi": 61,
          "name": "C#4",
          "ticks": 314760,
          "time": 245.90625,
          "velocity": 0.4094488188976378
        },
        {
          "duration": 0.5749999999999886,
          "durationTicks": 736,
          "midi": 62,
          "name": "D4",
          "ticks": 314760,
          "time": 245.90625,
          "velocity": 0.5196850393700787
        },
        {
          "duration": 0.5875000000000341,
          "durationTicks": 752,
          "midi": 66,
          "name": "F#4",
          "ticks": 314760,
          "time": 245.90625,
          "velocity": 0.4330708661417323
        },
        {
          "duration": 0.22031249999997726,
          "durationTicks": 282,
          "midi": 85,
          "name": "C#6",
          "ticks": 314760,
          "time": 245.90625,
          "velocity": 0.7165354330708661
        },
        {
          "duration": 0.23984375000000568,
          "durationTicks": 307,
          "midi": 81,
          "name": "A5",
          "ticks": 315000,
          "time": 246.09375,
          "velocity": 0.28346456692913385
        },
        {
          "duration": 0.18515624999997726,
          "durationTicks": 237,
          "midi": 85,
          "name": "C#6",
          "ticks": 315240,
          "time": 246.28125,
          "velocity": 0.5984251968503937
        },
        {
          "duration": 0.14999999999997726,
          "durationTicks": 192,
          "midi": 76,
          "name": "E5",
          "ticks": 315600,
          "time": 246.5625,
          "velocity": 0.6220472440944882
        },
        {
          "duration": 0.15625,
          "durationTicks": 200,
          "midi": 88,
          "name": "E6",
          "ticks": 315600,
          "time": 246.5625,
          "velocity": 0.5433070866141733
        },
        {
          "duration": 0.5398437499999886,
          "durationTicks": 691,
          "midi": 56,
          "name": "G#3",
          "ticks": 315840,
          "time": 246.75,
          "velocity": 0.4566929133858268
        },
        {
          "duration": 0.4906249999999659,
          "durationTicks": 628,
          "midi": 60,
          "name": "C4",
          "ticks": 315840,
          "time": 246.75,
          "velocity": 0.48031496062992124
        },
        {
          "duration": 0.5218749999999943,
          "durationTicks": 668,
          "midi": 61,
          "name": "C#4",
          "ticks": 315840,
          "time": 246.75,
          "velocity": 0.4094488188976378
        },
        {
          "duration": 0.5078125,
          "durationTicks": 650,
          "midi": 65,
          "name": "F4",
          "ticks": 315840,
          "time": 246.75,
          "velocity": 0.4094488188976378
        },
        {
          "duration": 0.18359375,
          "durationTicks": 235,
          "midi": 77,
          "name": "F5",
          "ticks": 315840,
          "time": 246.75,
          "velocity": 0.47244094488188976
        },
        {
          "duration": 0.16796875,
          "durationTicks": 215,
          "midi": 89,
          "name": "F6",
          "ticks": 315840,
          "time": 246.75,
          "velocity": 0.6456692913385826
        },
        {
          "duration": 0.22031249999997726,
          "durationTicks": 282,
          "midi": 73,
          "name": "C#5",
          "ticks": 316200,
          "time": 247.03125,
          "velocity": 0.5354330708661418
        },
        {
          "duration": 0.21015625000001137,
          "durationTicks": 269,
          "midi": 85,
          "name": "C#6",
          "ticks": 316200,
          "time": 247.03125,
          "velocity": 0.49606299212598426
        },
        {
          "duration": 0.44609374999998863,
          "durationTicks": 571,
          "midi": 72,
          "name": "C5",
          "ticks": 316560,
          "time": 247.3125,
          "velocity": 0.4094488188976378
        },
        {
          "duration": 0.12890625,
          "durationTicks": 165,
          "midi": 84,
          "name": "C6",
          "ticks": 316560,
          "time": 247.3125,
          "velocity": 0.49606299212598426
        },
        {
          "duration": 1.45703125,
          "durationTicks": 1865,
          "midi": 55,
          "name": "G3",
          "ticks": 316800,
          "time": 247.5,
          "velocity": 0.4015748031496063
        },
        {
          "duration": 1.4445312500000114,
          "durationTicks": 1849,
          "midi": 59,
          "name": "B3",
          "ticks": 316800,
          "time": 247.5,
          "velocity": 0.47244094488188976
        },
        {
          "duration": 1.457812500000017,
          "durationTicks": 1866,
          "midi": 60,
          "name": "C4",
          "ticks": 316800,
          "time": 247.5,
          "velocity": 0.4094488188976378
        },
        {
          "duration": 1.4453125,
          "durationTicks": 1850,
          "midi": 64,
          "name": "E4",
          "ticks": 316800,
          "time": 247.5,
          "velocity": 0.3543307086614173
        },
        {
          "duration": 0.2914062499999659,
          "durationTicks": 373,
          "midi": 83,
          "name": "B5",
          "ticks": 316800,
          "time": 247.5,
          "velocity": 0.5039370078740157
        },
        {
          "duration": 0.22031249999997726,
          "durationTicks": 282,
          "midi": 80,
          "name": "G#5",
          "ticks": 317280,
          "time": 247.875,
          "velocity": 0.2992125984251969
        },
        {
          "duration": 0.23906250000001705,
          "durationTicks": 306,
          "midi": 83,
          "name": "B5",
          "ticks": 317640,
          "time": 248.15625,
          "velocity": 0.6614173228346457
        },
        {
          "duration": 0.10234374999998863,
          "durationTicks": 131,
          "midi": 81,
          "name": "A5",
          "ticks": 318120,
          "time": 248.53125,
          "velocity": 0.6850393700787402
        },
        {
          "duration": 0.04453124999997726,
          "durationTicks": 57,
          "midi": 76,
          "name": "E5",
          "ticks": 318240,
          "time": 248.625,
          "velocity": 0.16535433070866143
        },
        {
          "duration": 0.08671875000001705,
          "durationTicks": 111,
          "midi": 81,
          "name": "A5",
          "ticks": 318360,
          "time": 248.71875,
          "velocity": 0.3543307086614173
        },
        {
          "duration": 0.06406250000000568,
          "durationTicks": 82,
          "midi": 76,
          "name": "E5",
          "ticks": 318480,
          "time": 248.8125,
          "velocity": 0.33858267716535434
        },
        {
          "duration": 0.08671875000001705,
          "durationTicks": 111,
          "midi": 72,
          "name": "C5",
          "ticks": 318600,
          "time": 248.90625,
          "velocity": 0.3937007874015748
        },
        {
          "duration": 0.26250000000001705,
          "durationTicks": 336,
          "midi": 71,
          "name": "B4",
          "ticks": 318720,
          "time": 249,
          "velocity": 0.14960629921259844
        },
        {
          "duration": 0.02656250000001137,
          "durationTicks": 34,
          "midi": 64,
          "name": "E4",
          "ticks": 319080,
          "time": 249.28125,
          "velocity": 0.09448818897637795
        },
        {
          "duration": 0.06796874999997726,
          "durationTicks": 87,
          "midi": 69,
          "name": "A4",
          "ticks": 319080,
          "time": 249.28125,
          "velocity": 0.13385826771653545
        },
        {
          "duration": 0.2242187500000341,
          "durationTicks": 287,
          "midi": 74,
          "name": "D5",
          "ticks": 319200,
          "time": 249.375,
          "velocity": 0.6850393700787402
        },
        {
          "duration": 1.024218750000017,
          "durationTicks": 1311,
          "midi": 53,
          "name": "F3",
          "ticks": 319560,
          "time": 249.65625,
          "velocity": 0.2992125984251969
        },
        {
          "duration": 1.0289062499999773,
          "durationTicks": 1317,
          "midi": 57,
          "name": "A3",
          "ticks": 319560,
          "time": 249.65625,
          "velocity": 0.2204724409448819
        },
        {
          "duration": 1.0601562500000057,
          "durationTicks": 1357,
          "midi": 58,
          "name": "A#3",
          "ticks": 319560,
          "time": 249.65625,
          "velocity": 0.1889763779527559
        },
        {
          "duration": 1.073437499999983,
          "durationTicks": 1374,
          "midi": 62,
          "name": "D4",
          "ticks": 319560,
          "time": 249.65625,
          "velocity": 0.23622047244094488
        },
        {
          "duration": 0.10312499999997726,
          "durationTicks": 132,
          "midi": 72,
          "name": "C5",
          "ticks": 319560,
          "time": 249.65625,
          "velocity": 0.6614173228346457
        },
        {
          "duration": 0.10234374999998863,
          "durationTicks": 131,
          "midi": 69,
          "name": "A4",
          "ticks": 319680,
          "time": 249.75,
          "velocity": 0.4094488188976378
        },
        {
          "duration": 0.09609375000002274,
          "durationTicks": 123,
          "midi": 70,
          "name": "A#4",
          "ticks": 319920,
          "time": 249.9375,
          "velocity": 0.25984251968503935
        },
        {
          "duration": 0.15703125000001705,
          "durationTicks": 201,
          "midi": 74,
          "name": "D5",
          "ticks": 320040,
          "time": 250.03125,
          "velocity": 0.4566929133858268
        },
        {
          "duration": 0.15703125000001705,
          "durationTicks": 201,
          "midi": 77,
          "name": "F5",
          "ticks": 320280,
          "time": 250.21875,
          "velocity": 0.5590551181102362
        },
        {
          "duration": 0.23671875000002274,
          "durationTicks": 303,
          "midi": 81,
          "name": "A5",
          "ticks": 320520,
          "time": 250.40625,
          "velocity": 0.6614173228346457
        },
        {
          "duration": 0.10078124999998295,
          "durationTicks": 129,
          "midi": 82,
          "name": "A#5",
          "ticks": 320880,
          "time": 250.6875,
          "velocity": 0.5196850393700787
        },
        {
          "duration": 0.10546875,
          "durationTicks": 135,
          "midi": 81,
          "name": "A5",
          "ticks": 321000,
          "time": 250.78125,
          "velocity": 0.5039370078740157
        },
        {
          "duration": 0.2476562500000341,
          "durationTicks": 317,
          "midi": 84,
          "name": "C6",
          "ticks": 321240,
          "time": 250.96875,
          "velocity": 0.6614173228346457
        },
        {
          "duration": 0.44765625000002274,
          "durationTicks": 573,
          "midi": 77,
          "name": "F5",
          "ticks": 321600,
          "time": 251.25,
          "velocity": 0.29133858267716534
        },
        {
          "duration": 0.12812500000001137,
          "durationTicks": 164,
          "midi": 55,
          "name": "G3",
          "ticks": 321960,
          "time": 251.53125,
          "velocity": 0.2125984251968504
        },
        {
          "duration": 0.16015625,
          "durationTicks": 205,
          "midi": 61,
          "name": "C#4",
          "ticks": 321960,
          "time": 251.53125,
          "velocity": 0.2047244094488189
        },
        {
          "duration": 0.1273437499999659,
          "durationTicks": 163,
          "midi": 65,
          "name": "F4",
          "ticks": 321960,
          "time": 251.53125,
          "velocity": 0.25984251968503935
        },
        {
          "duration": 0.13593749999998295,
          "durationTicks": 174,
          "midi": 77,
          "name": "F5",
          "ticks": 322320,
          "time": 251.8125,
          "velocity": 0.2125984251968504
        },
        {
          "duration": 0.45000000000001705,
          "durationTicks": 576,
          "midi": 55,
          "name": "G3",
          "ticks": 322560,
          "time": 252,
          "velocity": 0.1889763779527559
        },
        {
          "duration": 0.4515624999999943,
          "durationTicks": 578,
          "midi": 59,
          "name": "B3",
          "ticks": 322560,
          "time": 252,
          "velocity": 0.29133858267716534
        },
        {
          "duration": 0.44921875,
          "durationTicks": 575,
          "midi": 60,
          "name": "C4",
          "ticks": 322560,
          "time": 252,
          "velocity": 0.2992125984251969
        },
        {
          "duration": 0.4554687499999659,
          "durationTicks": 583,
          "midi": 64,
          "name": "E4",
          "ticks": 322560,
          "time": 252,
          "velocity": 0.2047244094488189
        },
        {
          "duration": 0.27890624999997726,
          "durationTicks": 357,
          "midi": 84,
          "name": "C6",
          "ticks": 322560,
          "time": 252,
          "velocity": 0.47244094488188976
        },
        {
          "duration": 0.39609374999997726,
          "durationTicks": 507,
          "midi": 76,
          "name": "E5",
          "ticks": 322920,
          "time": 252.28125,
          "velocity": 0.3937007874015748
        },
        {
          "duration": 0.4765625,
          "durationTicks": 610,
          "midi": 55,
          "name": "G3",
          "ticks": 323400,
          "time": 252.65625,
          "velocity": 0.2125984251968504
        },
        {
          "duration": 0.4085937499999659,
          "durationTicks": 523,
          "midi": 59,
          "name": "B3",
          "ticks": 323400,
          "time": 252.65625,
          "velocity": 0.1889763779527559
        },
        {
          "duration": 0.4453125,
          "durationTicks": 570,
          "midi": 60,
          "name": "C4",
          "ticks": 323400,
          "time": 252.65625,
          "velocity": 0.1889763779527559
        },
        {
          "duration": 0.46406249999998295,
          "durationTicks": 594,
          "midi": 64,
          "name": "E4",
          "ticks": 323400,
          "time": 252.65625,
          "velocity": 0.13385826771653545
        },
        {
          "duration": 0.15312499999998863,
          "durationTicks": 196,
          "midi": 76,
          "name": "E5",
          "ticks": 323760,
          "time": 252.9375,
          "velocity": 0.4330708661417323
        },
        {
          "duration": 0.1039062499999659,
          "durationTicks": 133,
          "midi": 82,
          "name": "A#5",
          "ticks": 324000,
          "time": 253.125,
          "velocity": 0.5275590551181102
        },
        {
          "duration": 0.22031249999997726,
          "durationTicks": 282,
          "midi": 83,
          "name": "B5",
          "ticks": 324120,
          "time": 253.21875,
          "velocity": 0.3779527559055118
        },
        {
          "duration": 0.40703124999998863,
          "durationTicks": 521,
          "midi": 74,
          "name": "D5",
          "ticks": 324360,
          "time": 253.40625,
          "velocity": 0.4094488188976378
        },
        {
          "duration": 0.1890625000000341,
          "durationTicks": 242,
          "midi": 56,
          "name": "G#3",
          "ticks": 324720,
          "time": 253.6875,
          "velocity": 0.1889763779527559
        },
        {
          "duration": 0.17500000000001137,
          "durationTicks": 224,
          "midi": 59,
          "name": "B3",
          "ticks": 324720,
          "time": 253.6875,
          "velocity": 0.28346456692913385
        },
        {
          "duration": 0.16328125000001137,
          "durationTicks": 209,
          "midi": 62,
          "name": "D4",
          "ticks": 324720,
          "time": 253.6875,
          "velocity": 0.31496062992125984
        },
        {
          "duration": 0.17031249999999432,
          "durationTicks": 218,
          "midi": 65,
          "name": "F4",
          "ticks": 324720,
          "time": 253.6875,
          "velocity": 0.2677165354330709
        },
        {
          "duration": 0.1171875,
          "durationTicks": 150,
          "midi": 74,
          "name": "D5",
          "ticks": 325200,
          "time": 254.0625,
          "velocity": 0.4094488188976378
        },
        {
          "duration": 0.23124999999998863,
          "durationTicks": 296,
          "midi": 72,
          "name": "C5",
          "ticks": 325440,
          "time": 254.25,
          "velocity": 0.4330708661417323
        },
        {
          "duration": 0.9406250000000114,
          "durationTicks": 1204,
          "midi": 55,
          "name": "G3",
          "ticks": 325800,
          "time": 254.53125,
          "velocity": 0.2047244094488189
        },
        {
          "duration": 0.8531249999999773,
          "durationTicks": 1092,
          "midi": 59,
          "name": "B3",
          "ticks": 325800,
          "time": 254.53125,
          "velocity": 0.12598425196850394
        },
        {
          "duration": 0.8937500000000114,
          "durationTicks": 1144,
          "midi": 60,
          "name": "C4",
          "ticks": 325800,
          "time": 254.53125,
          "velocity": 0.08661417322834646
        },
        {
          "duration": 0.8679687499999886,
          "durationTicks": 1111,
          "midi": 64,
          "name": "E4",
          "ticks": 325800,
          "time": 254.53125,
          "velocity": 0.047244094488188976
        },
        {
          "duration": 0.1656250000000341,
          "durationTicks": 212,
          "midi": 72,
          "name": "C5",
          "ticks": 325920,
          "time": 254.625,
          "velocity": 0.6220472440944882
        },
        {
          "duration": 0.18437499999998863,
          "durationTicks": 236,
          "midi": 72,
          "name": "C5",
          "ticks": 326160,
          "time": 254.8125,
          "velocity": 0.23622047244094488
        },
        {
          "duration": 0.31171874999998295,
          "durationTicks": 399,
          "midi": 71,
          "name": "B4",
          "ticks": 326400,
          "time": 255,
          "velocity": 0.33858267716535434
        },
        {
          "duration": 0.09140624999997726,
          "durationTicks": 117,
          "midi": 72,
          "name": "C5",
          "ticks": 326760,
          "time": 255.28125,
          "velocity": 0.6220472440944882
        },
        {
          "duration": 0.11406249999998863,
          "durationTicks": 146,
          "midi": 69,
          "name": "A4",
          "ticks": 327240,
          "time": 255.65625,
          "velocity": 0.3779527559055118
        },
        {
          "duration": 0.15625,
          "durationTicks": 200,
          "midi": 70,
          "name": "A#4",
          "ticks": 327360,
          "time": 255.75,
          "velocity": 0.6614173228346457
        },
        {
          "duration": 0.10000000000002274,
          "durationTicks": 128,
          "midi": 72,
          "name": "C5",
          "ticks": 327600,
          "time": 255.9375,
          "velocity": 0.25196850393700787
        },
        {
          "duration": 0.125,
          "durationTicks": 160,
          "midi": 70,
          "name": "A#4",
          "ticks": 327720,
          "time": 256.03125,
          "velocity": 0.33070866141732286
        },
        {
          "duration": 0.2914062499999659,
          "durationTicks": 373,
          "midi": 69,
          "name": "A4",
          "ticks": 327840,
          "time": 256.125,
          "velocity": 0.4015748031496063
        },
        {
          "duration": 0.0859375,
          "durationTicks": 110,
          "midi": 70,
          "name": "A#4",
          "ticks": 328200,
          "time": 256.40625,
          "velocity": 0.6850393700787402
        },
        {
          "duration": 0.7914062500000227,
          "durationTicks": 1013,
          "midi": 53,
          "name": "F3",
          "ticks": 329040,
          "time": 257.0625,
          "velocity": 0.33858267716535434
        },
        {
          "duration": 0.7492187500000114,
          "durationTicks": 959,
          "midi": 57,
          "name": "A3",
          "ticks": 329040,
          "time": 257.0625,
          "velocity": 0.36220472440944884
        },
        {
          "duration": 0.78125,
          "durationTicks": 1000,
          "midi": 58,
          "name": "A#3",
          "ticks": 329040,
          "time": 257.0625,
          "velocity": 0.25984251968503935
        },
        {
          "duration": 0.7507812499999886,
          "durationTicks": 961,
          "midi": 62,
          "name": "D4",
          "ticks": 329040,
          "time": 257.0625,
          "velocity": 0.23622047244094488
        },
        {
          "duration": 0.46249999999997726,
          "durationTicks": 592,
          "midi": 72,
          "name": "C5",
          "ticks": 329040,
          "time": 257.0625,
          "velocity": 0.6850393700787402
        },
        {
          "duration": 0.60546875,
          "durationTicks": 775,
          "midi": 64,
          "name": "E4",
          "ticks": 329640,
          "time": 257.53125,
          "velocity": 0.47244094488188976
        },
        {
          "duration": 0.28359375000002274,
          "durationTicks": 363,
          "midi": 52,
          "name": "E3",
          "ticks": 330480,
          "time": 258.1875,
          "velocity": 0.2755905511811024
        },
        {
          "duration": 0.32890624999998863,
          "durationTicks": 421,
          "midi": 56,
          "name": "G#3",
          "ticks": 330480,
          "time": 258.1875,
          "velocity": 0.2047244094488189
        },
        {
          "duration": 0.33671874999998863,
          "durationTicks": 431,
          "midi": 58,
          "name": "A#3",
          "ticks": 330480,
          "time": 258.1875,
          "velocity": 0.2992125984251969
        },
        {
          "duration": 0.37812500000001137,
          "durationTicks": 484,
          "midi": 61,
          "name": "C#4",
          "ticks": 330480,
          "time": 258.1875,
          "velocity": 0.3700787401574803
        },
        {
          "duration": 1.091406250000034,
          "durationTicks": 1397,
          "midi": 67,
          "name": "G4",
          "ticks": 330480,
          "time": 258.1875,
          "velocity": 0.3700787401574803
        },
        {
          "duration": 0.6273437500000227,
          "durationTicks": 803,
          "midi": 53,
          "name": "F3",
          "ticks": 331200,
          "time": 258.75,
          "velocity": 0.13385826771653545
        },
        {
          "duration": 0.6070312499999773,
          "durationTicks": 777,
          "midi": 57,
          "name": "A3",
          "ticks": 331200,
          "time": 258.75,
          "velocity": 0.18110236220472442
        },
        {
          "duration": 0.57421875,
          "durationTicks": 735,
          "midi": 60,
          "name": "C4",
          "ticks": 331200,
          "time": 258.75,
          "velocity": 0.2125984251968504
        },
        {
          "duration": 0.6070312499999773,
          "durationTicks": 777,
          "midi": 64,
          "name": "E4",
          "ticks": 331200,
          "time": 258.75,
          "velocity": 0.31496062992125984
        },
        {
          "duration": 0.578125,
          "durationTicks": 740,
          "midi": 65,
          "name": "F4",
          "ticks": 331200,
          "time": 258.75,
          "velocity": 0.36220472440944884
        },
        {
          "duration": 0.2999999999999545,
          "durationTicks": 384,
          "midi": 76,
          "name": "E5",
          "ticks": 332640,
          "time": 259.875,
          "velocity": 0.4094488188976378
        },
        {
          "duration": 0.25468749999998863,
          "durationTicks": 326,
          "midi": 64,
          "name": "E4",
          "ticks": 333000,
          "time": 260.15625,
          "velocity": 0.16535433070866143
        },
        {
          "duration": 0.26171875,
          "durationTicks": 335,
          "midi": 65,
          "name": "F4",
          "ticks": 333000,
          "time": 260.15625,
          "velocity": 0.1968503937007874
        },
        {
          "duration": 0.22734375000004547,
          "durationTicks": 291,
          "midi": 69,
          "name": "A4",
          "ticks": 333000,
          "time": 260.15625,
          "velocity": 0.2755905511811024
        },
        {
          "duration": 0.19062500000001137,
          "durationTicks": 244,
          "midi": 72,
          "name": "C5",
          "ticks": 333000,
          "time": 260.15625,
          "velocity": 0.2992125984251969
        },
        {
          "duration": 0.265625,
          "durationTicks": 340,
          "midi": 72,
          "name": "C5",
          "ticks": 333480,
          "time": 260.53125,
          "velocity": 0.3700787401574803
        },
        {
          "duration": 0.09609375000002274,
          "durationTicks": 123,
          "midi": 69,
          "name": "A4",
          "ticks": 333720,
          "time": 260.71875,
          "velocity": 0.36220472440944884
        },
        {
          "duration": 0.08437500000002274,
          "durationTicks": 108,
          "midi": 65,
          "name": "F4",
          "ticks": 333840,
          "time": 260.8125,
          "velocity": 0.14960629921259844
        },
        {
          "duration": 0.24140624999995453,
          "durationTicks": 309,
          "midi": 69,
          "name": "A4",
          "ticks": 334080,
          "time": 261,
          "velocity": 0.36220472440944884
        },
        {
          "duration": 0.41250000000002274,
          "durationTicks": 528,
          "midi": 57,
          "name": "A3",
          "ticks": 334440,
          "time": 261.28125,
          "velocity": 0.1732283464566929
        },
        {
          "duration": 0.3499999999999659,
          "durationTicks": 448,
          "midi": 58,
          "name": "A#3",
          "ticks": 334440,
          "time": 261.28125,
          "velocity": 0.1732283464566929
        },
        {
          "duration": 0.33749999999997726,
          "durationTicks": 432,
          "midi": 62,
          "name": "D4",
          "ticks": 334440,
          "time": 261.28125,
          "velocity": 0.31496062992125984
        },
        {
          "duration": 0.3265624999999659,
          "durationTicks": 418,
          "midi": 65,
          "name": "F4",
          "ticks": 334440,
          "time": 261.28125,
          "velocity": 0.2992125984251969
        },
        {
          "duration": 0.19296874999997726,
          "durationTicks": 247,
          "midi": 72,
          "name": "C5",
          "ticks": 335280,
          "time": 261.9375,
          "velocity": 0.4094488188976378
        },
        {
          "duration": 0.7249999999999659,
          "durationTicks": 928,
          "midi": 52,
          "name": "E3",
          "ticks": 335520,
          "time": 262.125,
          "velocity": 0.25196850393700787
        },
        {
          "duration": 0.7468749999999886,
          "durationTicks": 956,
          "midi": 56,
          "name": "G#3",
          "ticks": 335520,
          "time": 262.125,
          "velocity": 0.2125984251968504
        },
        {
          "duration": 0.7796875000000227,
          "durationTicks": 998,
          "midi": 58,
          "name": "A#3",
          "ticks": 335520,
          "time": 262.125,
          "velocity": 0.1889763779527559
        },
        {
          "duration": 0.23828125,
          "durationTicks": 305,
          "midi": 63,
          "name": "D#4",
          "ticks": 335520,
          "time": 262.125,
          "velocity": 0.2047244094488189
        },
        {
          "duration": 0.33046875000002274,
          "durationTicks": 423,
          "midi": 68,
          "name": "G#4",
          "ticks": 335520,
          "time": 262.125,
          "velocity": 0.33858267716535434
        },
        {
          "duration": 0.28515625,
          "durationTicks": 365,
          "midi": 75,
          "name": "D#5",
          "ticks": 335880,
          "time": 262.40625,
          "velocity": 0.2992125984251969
        },
        {
          "duration": 0.28515625,
          "durationTicks": 365,
          "midi": 64,
          "name": "E4",
          "ticks": 336240,
          "time": 262.6875,
          "velocity": 0.2204724409448819
        },
        {
          "duration": 0.31875000000002274,
          "durationTicks": 408,
          "midi": 68,
          "name": "G#4",
          "ticks": 336240,
          "time": 262.6875,
          "velocity": 0.31496062992125984
        },
        {
          "duration": 0.1796875,
          "durationTicks": 230,
          "midi": 73,
          "name": "C#5",
          "ticks": 336240,
          "time": 262.6875,
          "velocity": 0.44881889763779526
        },
        {
          "duration": 0.25703125000001137,
          "durationTicks": 329,
          "midi": 71,
          "name": "B4",
          "ticks": 336600,
          "time": 262.96875,
          "velocity": 0.4409448818897638
        },
        {
          "duration": 0.5609374999999659,
          "durationTicks": 718,
          "midi": 53,
          "name": "F3",
          "ticks": 336960,
          "time": 263.25,
          "velocity": 0.18110236220472442
        },
        {
          "duration": 0.5601562499999773,
          "durationTicks": 717,
          "midi": 57,
          "name": "A3",
          "ticks": 336960,
          "time": 263.25,
          "velocity": 0.2125984251968504
        },
        {
          "duration": 0.5453125000000227,
          "durationTicks": 698,
          "midi": 60,
          "name": "C4",
          "ticks": 336960,
          "time": 263.25,
          "velocity": 0.16535433070866143
        },
        {
          "duration": 0.5406250000000341,
          "durationTicks": 692,
          "midi": 64,
          "name": "E4",
          "ticks": 336960,
          "time": 263.25,
          "velocity": 0.23622047244094488
        },
        {
          "duration": 0.5492187499999659,
          "durationTicks": 703,
          "midi": 64,
          "name": "E4",
          "ticks": 336960,
          "time": 263.25,
          "velocity": 0.2755905511811024
        },
        {
          "duration": 0.5812499999999545,
          "durationTicks": 744,
          "midi": 69,
          "name": "A4",
          "ticks": 336960,
          "time": 263.25,
          "velocity": 0.25196850393700787
        },
        {
          "duration": 0.5882812500000227,
          "durationTicks": 753,
          "midi": 69,
          "name": "A4",
          "ticks": 336960,
          "time": 263.25,
          "velocity": 0.3779527559055118
        },
        {
          "duration": 0.5843749999999659,
          "durationTicks": 748,
          "midi": 72,
          "name": "C5",
          "ticks": 336960,
          "time": 263.25,
          "velocity": 0.31496062992125984
        },
        {
          "duration": 0.7445312500000227,
          "durationTicks": 953,
          "midi": 77,
          "name": "F5",
          "ticks": 338400,
          "time": 264.375,
          "velocity": 0.25196850393700787
        },
        {
          "duration": 0.37812500000001137,
          "durationTicks": 484,
          "midi": 50,
          "name": "D3",
          "ticks": 338760,
          "time": 264.65625,
          "velocity": 0.2047244094488189
        },
        {
          "duration": 0.3820312499999545,
          "durationTicks": 489,
          "midi": 57,
          "name": "A3",
          "ticks": 338760,
          "time": 264.65625,
          "velocity": 0.11811023622047244
        },
        {
          "duration": 0.40468750000002274,
          "durationTicks": 518,
          "midi": 60,
          "name": "C4",
          "ticks": 338760,
          "time": 264.65625,
          "velocity": 0.11023622047244094
        },
        {
          "duration": 0.39453125,
          "durationTicks": 505,
          "midi": 65,
          "name": "F4",
          "ticks": 338760,
          "time": 264.65625,
          "velocity": 0.2125984251968504
        },
        {
          "duration": 0.41874999999998863,
          "durationTicks": 536,
          "midi": 72,
          "name": "C5",
          "ticks": 338760,
          "time": 264.65625,
          "velocity": 0.2677165354330709
        },
        {
          "duration": 0.6929687500000341,
          "durationTicks": 887,
          "midi": 82,
          "name": "A#5",
          "ticks": 339840,
          "time": 265.5,
          "velocity": 0.1732283464566929
        },
        {
          "duration": 0.4851562500000455,
          "durationTicks": 621,
          "midi": 53,
          "name": "F3",
          "ticks": 340200,
          "time": 265.78125,
          "velocity": 0.13385826771653545
        },
        {
          "duration": 0.47421874999997726,
          "durationTicks": 607,
          "midi": 57,
          "name": "A3",
          "ticks": 340200,
          "time": 265.78125,
          "velocity": 0.14173228346456693
        },
        {
          "duration": 0.47734374999998863,
          "durationTicks": 611,
          "midi": 58,
          "name": "A#3",
          "ticks": 340200,
          "time": 265.78125,
          "velocity": 0.09448818897637795
        },
        {
          "duration": 0.4523437499999545,
          "durationTicks": 579,
          "midi": 62,
          "name": "D4",
          "ticks": 340200,
          "time": 265.78125,
          "velocity": 0.12598425196850394
        },
        {
          "duration": 0.45625000000001137,
          "durationTicks": 584,
          "midi": 70,
          "name": "A#4",
          "ticks": 340200,
          "time": 265.78125,
          "velocity": 0.1732283464566929
        },
        {
          "duration": 0.4265625000000455,
          "durationTicks": 546,
          "midi": 77,
          "name": "F5",
          "ticks": 340200,
          "time": 265.78125,
          "velocity": 0.3543307086614173
        },
        {
          "duration": 0.5812499999999545,
          "durationTicks": 744,
          "midi": 76,
          "name": "E5",
          "ticks": 341280,
          "time": 266.625,
          "velocity": 0.3543307086614173
        },
        {
          "duration": 0.33671874999998863,
          "durationTicks": 431,
          "midi": 52,
          "name": "E3",
          "ticks": 341640,
          "time": 266.90625,
          "velocity": 0.2677165354330709
        },
        {
          "duration": 0.3515625,
          "durationTicks": 450,
          "midi": 56,
          "name": "G#3",
          "ticks": 341640,
          "time": 266.90625,
          "velocity": 0.16535433070866143
        },
        {
          "duration": 0.29609375000001137,
          "durationTicks": 379,
          "midi": 62,
          "name": "D4",
          "ticks": 341640,
          "time": 266.90625,
          "velocity": 0.1968503937007874
        },
        {
          "duration": 0.35078125000001137,
          "durationTicks": 449,
          "midi": 65,
          "name": "F4",
          "ticks": 341640,
          "time": 266.90625,
          "velocity": 0.2125984251968504
        },
        {
          "duration": 0.35234374999998863,
          "durationTicks": 451,
          "midi": 68,
          "name": "G#4",
          "ticks": 341640,
          "time": 266.90625,
          "velocity": 0.1968503937007874
        },
        {
          "duration": 0.35078125000001137,
          "durationTicks": 449,
          "midi": 71,
          "name": "B4",
          "ticks": 341640,
          "time": 266.90625,
          "velocity": 0.28346456692913385
        },
        {
          "duration": 0.19375000000002274,
          "durationTicks": 248,
          "midi": 49,
          "name": "C#3",
          "ticks": 343440,
          "time": 268.3125,
          "velocity": 0.18110236220472442
        },
        {
          "duration": 0.17343749999997726,
          "durationTicks": 222,
          "midi": 55,
          "name": "G3",
          "ticks": 343440,
          "time": 268.3125,
          "velocity": 0.2047244094488189
        },
        {
          "duration": 0.21406250000001137,
          "durationTicks": 274,
          "midi": 61,
          "name": "C#4",
          "ticks": 343440,
          "time": 268.3125,
          "velocity": 0.33858267716535434
        },
        {
          "duration": 0.19375000000002274,
          "durationTicks": 248,
          "midi": 66,
          "name": "F#4",
          "ticks": 343440,
          "time": 268.3125,
          "velocity": 0.2992125984251969
        },
        {
          "duration": 0.24843750000002274,
          "durationTicks": 318,
          "midi": 69,
          "name": "A4",
          "ticks": 343440,
          "time": 268.3125,
          "velocity": 0.28346456692913385
        },
        {
          "duration": 0.9445312499999545,
          "durationTicks": 1209,
          "midi": 48,
          "name": "C3",
          "ticks": 344160,
          "time": 268.875,
          "velocity": 0.08661417322834646
        },
        {
          "duration": 0.95703125,
          "durationTicks": 1225,
          "midi": 57,
          "name": "A3",
          "ticks": 344160,
          "time": 268.875,
          "velocity": 0.2677165354330709
        },
        {
          "duration": 1.0132812499999773,
          "durationTicks": 1297,
          "midi": 60,
          "name": "C4",
          "ticks": 344160,
          "time": 268.875,
          "velocity": 0.2992125984251969
        },
        {
          "duration": 1.0054687499999773,
          "durationTicks": 1287,
          "midi": 66,
          "name": "F#4",
          "ticks": 344160,
          "time": 268.875,
          "velocity": 0.3228346456692913
        },
        {
          "duration": 0.5226562499999545,
          "durationTicks": 669,
          "midi": 48,
          "name": "C3",
          "ticks": 347040,
          "time": 271.125,
          "velocity": 0.18110236220472442
        },
        {
          "duration": 0.5148437500000114,
          "durationTicks": 659,
          "midi": 52,
          "name": "E3",
          "ticks": 347040,
          "time": 271.125,
          "velocity": 0.2125984251968504
        },
        {
          "duration": 0.5007812499999886,
          "durationTicks": 641,
          "midi": 58,
          "name": "A#3",
          "ticks": 347040,
          "time": 271.125,
          "velocity": 0.16535433070866143
        },
        {
          "duration": 0.5289062500000341,
          "durationTicks": 677,
          "midi": 61,
          "name": "C#4",
          "ticks": 347040,
          "time": 271.125,
          "velocity": 0.25984251968503935
        },
        {
          "duration": 0.53125,
          "durationTicks": 680,
          "midi": 64,
          "name": "E4",
          "ticks": 347040,
          "time": 271.125,
          "velocity": 0.3228346456692913
        },
        {
          "duration": 0.30781250000001137,
          "durationTicks": 394,
          "midi": 57,
          "name": "A3",
          "ticks": 348960,
          "time": 272.625,
          "velocity": 0.33858267716535434
        },
        {
          "duration": 0.3265624999999659,
          "durationTicks": 418,
          "midi": 63,
          "name": "D#4",
          "ticks": 348960,
          "time": 272.625,
          "velocity": 0.1889763779527559
        },
        {
          "duration": 0.29374999999998863,
          "durationTicks": 376,
          "midi": 67,
          "name": "G4",
          "ticks": 348960,
          "time": 272.625,
          "velocity": 0.2204724409448819
        },
        {
          "duration": 0.34531249999997726,
          "durationTicks": 442,
          "midi": 72,
          "name": "C5",
          "ticks": 348960,
          "time": 272.625,
          "velocity": 0.33858267716535434
        },
        {
          "duration": 0.37421875000001137,
          "durationTicks": 479,
          "midi": 77,
          "name": "F5",
          "ticks": 348960,
          "time": 272.625,
          "velocity": 0.3228346456692913
        },
        {
          "duration": 0.47968750000001137,
          "durationTicks": 614,
          "midi": 81,
          "name": "A5",
          "ticks": 348960,
          "time": 272.625,
          "velocity": 0.29133858267716534
        },
        {
          "duration": 0.6195312499999659,
          "durationTicks": 793,
          "midi": 57,
          "name": "A3",
          "ticks": 349920,
          "time": 273.375,
          "velocity": 0.2204724409448819
        },
        {
          "duration": 0.58203125,
          "durationTicks": 745,
          "midi": 62,
          "name": "D4",
          "ticks": 349920,
          "time": 273.375,
          "velocity": 0.1968503937007874
        },
        {
          "duration": 0.5625,
          "durationTicks": 720,
          "midi": 67,
          "name": "G4",
          "ticks": 349920,
          "time": 273.375,
          "velocity": 0.18110236220472442
        },
        {
          "duration": 0.6820312500000227,
          "durationTicks": 873,
          "midi": 72,
          "name": "C5",
          "ticks": 349920,
          "time": 273.375,
          "velocity": 0.2992125984251969
        },
        {
          "duration": 0.7039062499999886,
          "durationTicks": 901,
          "midi": 77,
          "name": "F5",
          "ticks": 349920,
          "time": 273.375,
          "velocity": 0.3228346456692913
        },
        {
          "duration": 0.7062500000000114,
          "durationTicks": 904,
          "midi": 53,
          "name": "F3",
          "ticks": 351240,
          "time": 274.40625,
          "velocity": 0.15748031496062992
        },
        {
          "duration": 0.6375000000000455,
          "durationTicks": 816,
          "midi": 57,
          "name": "A3",
          "ticks": 351240,
          "time": 274.40625,
          "velocity": 0.2204724409448819
        },
        {
          "duration": 0.6671875000000114,
          "durationTicks": 854,
          "midi": 58,
          "name": "A#3",
          "ticks": 351240,
          "time": 274.40625,
          "velocity": 0.18110236220472442
        },
        {
          "duration": 0.578125,
          "durationTicks": 740,
          "midi": 62,
          "name": "D4",
          "ticks": 351240,
          "time": 274.40625,
          "velocity": 0.33070866141732286
        },
        {
          "duration": 0.6546874999999659,
          "durationTicks": 838,
          "midi": 70,
          "name": "A#4",
          "ticks": 351240,
          "time": 274.40625,
          "velocity": 0.18110236220472442
        },
        {
          "duration": 0.5749999999999886,
          "durationTicks": 736,
          "midi": 77,
          "name": "F5",
          "ticks": 351240,
          "time": 274.40625,
          "velocity": 0.4015748031496063
        },
        {
          "duration": 0.5500000000000114,
          "durationTicks": 704,
          "midi": 82,
          "name": "A#5",
          "ticks": 351240,
          "time": 274.40625,
          "velocity": 0.48031496062992124
        },
        {
          "duration": 0.8109375000000227,
          "durationTicks": 1038,
          "midi": 52,
          "name": "E3",
          "ticks": 352680,
          "time": 275.53125,
          "velocity": 0.2283464566929134
        },
        {
          "duration": 0.8359375,
          "durationTicks": 1070,
          "midi": 58,
          "name": "A#3",
          "ticks": 352680,
          "time": 275.53125,
          "velocity": 0.1732283464566929
        },
        {
          "duration": 0.8132812500000455,
          "durationTicks": 1041,
          "midi": 62,
          "name": "D4",
          "ticks": 352680,
          "time": 275.53125,
          "velocity": 0.2047244094488189
        },
        {
          "duration": 0.17265624999998863,
          "durationTicks": 221,
          "midi": 67,
          "name": "G4",
          "ticks": 352800,
          "time": 275.625,
          "velocity": 0.15748031496062992
        },
        {
          "duration": 0.19609374999998863,
          "durationTicks": 251,
          "midi": 74,
          "name": "D5",
          "ticks": 352800,
          "time": 275.625,
          "velocity": 0.2677165354330709
        },
        {
          "duration": 0.1875,
          "durationTicks": 240,
          "midi": 79,
          "name": "G5",
          "ticks": 352800,
          "time": 275.625,
          "velocity": 0.1732283464566929
        },
        {
          "duration": 0.15546875000001137,
          "durationTicks": 199,
          "midi": 69,
          "name": "A4",
          "ticks": 353280,
          "time": 276,
          "velocity": 0.18110236220472442
        },
        {
          "duration": 0.21171874999998863,
          "durationTicks": 271,
          "midi": 81,
          "name": "A5",
          "ticks": 353280,
          "time": 276,
          "velocity": 0.33070866141732286
        },
        {
          "duration": 0.15859375000002274,
          "durationTicks": 203,
          "midi": 70,
          "name": "A#4",
          "ticks": 353880,
          "time": 276.46875,
          "velocity": 0.1732283464566929
        },
        {
          "duration": 0.32421875,
          "durationTicks": 415,
          "midi": 82,
          "name": "A#5",
          "ticks": 353880,
          "time": 276.46875,
          "velocity": 0.18110236220472442
        },
        {
          "duration": 1.1085937499999545,
          "durationTicks": 1419,
          "midi": 72,
          "name": "C5",
          "ticks": 354240,
          "time": 276.75,
          "velocity": 0.1889763779527559
        },
        {
          "duration": 1.1007812500000114,
          "durationTicks": 1409,
          "midi": 84,
          "name": "C6",
          "ticks": 354240,
          "time": 276.75,
          "velocity": 0.23622047244094488
        },
        {
          "duration": 0.21640624999997726,
          "durationTicks": 277,
          "midi": 54,
          "name": "F#3",
          "ticks": 356400,
          "time": 278.4375,
          "velocity": 0.12598425196850394
        },
        {
          "duration": 0.19843750000001137,
          "durationTicks": 254,
          "midi": 65,
          "name": "F4",
          "ticks": 356400,
          "time": 278.4375,
          "velocity": 0.14173228346456693
        },
        {
          "duration": 0.2679687499999659,
          "durationTicks": 343,
          "midi": 75,
          "name": "D#5",
          "ticks": 356400,
          "time": 278.4375,
          "velocity": 0.29133858267716534
        },
        {
          "duration": 0.38749999999998863,
          "durationTicks": 496,
          "midi": 80,
          "name": "G#5",
          "ticks": 356400,
          "time": 278.4375,
          "velocity": 0.3543307086614173
        },
        {
          "duration": 0.18828124999998863,
          "durationTicks": 241,
          "midi": 60,
          "name": "C4",
          "ticks": 356520,
          "time": 278.53125,
          "velocity": 0.1968503937007874
        },
        {
          "duration": 0.2093749999999659,
          "durationTicks": 268,
          "midi": 81,
          "name": "A5",
          "ticks": 356760,
          "time": 278.71875,
          "velocity": 0.41732283464566927
        },
        {
          "duration": 0.30156249999998863,
          "durationTicks": 386,
          "midi": 53,
          "name": "F3",
          "ticks": 357120,
          "time": 279,
          "velocity": 0.23622047244094488
        },
        {
          "duration": 0.2976562500000455,
          "durationTicks": 381,
          "midi": 57,
          "name": "A3",
          "ticks": 357120,
          "time": 279,
          "velocity": 0.2440944881889764
        },
        {
          "duration": 0.30859375,
          "durationTicks": 395,
          "midi": 58,
          "name": "A#3",
          "ticks": 357120,
          "time": 279,
          "velocity": 0.1732283464566929
        },
        {
          "duration": 0.3125,
          "durationTicks": 400,
          "midi": 62,
          "name": "D4",
          "ticks": 357120,
          "time": 279,
          "velocity": 0.1889763779527559
        },
        {
          "duration": 0.35703124999997726,
          "durationTicks": 457,
          "midi": 74,
          "name": "D5",
          "ticks": 357120,
          "time": 279,
          "velocity": 0.2283464566929134
        },
        {
          "duration": 0.35234374999998863,
          "durationTicks": 451,
          "midi": 77,
          "name": "F5",
          "ticks": 357120,
          "time": 279,
          "velocity": 0.33070866141732286
        },
        {
          "duration": 0.39218749999997726,
          "durationTicks": 502,
          "midi": 81,
          "name": "A5",
          "ticks": 357120,
          "time": 279,
          "velocity": 0.1889763779527559
        },
        {
          "duration": 0.3703124999999545,
          "durationTicks": 474,
          "midi": 84,
          "name": "C6",
          "ticks": 357120,
          "time": 279,
          "velocity": 0.18110236220472442
        },
        {
          "duration": 0.25468749999998863,
          "durationTicks": 326,
          "midi": 53,
          "name": "F3",
          "ticks": 357960,
          "time": 279.65625,
          "velocity": 0.14960629921259844
        },
        {
          "duration": 0.25468749999998863,
          "durationTicks": 326,
          "midi": 57,
          "name": "A3",
          "ticks": 357960,
          "time": 279.65625,
          "velocity": 0.25984251968503935
        },
        {
          "duration": 0.2578125,
          "durationTicks": 330,
          "midi": 58,
          "name": "A#3",
          "ticks": 357960,
          "time": 279.65625,
          "velocity": 0.18110236220472442
        },
        {
          "duration": 0.2531249999999545,
          "durationTicks": 324,
          "midi": 62,
          "name": "D4",
          "ticks": 357960,
          "time": 279.65625,
          "velocity": 0.1889763779527559
        },
        {
          "duration": 0.2742187500000455,
          "durationTicks": 351,
          "midi": 74,
          "name": "D5",
          "ticks": 357960,
          "time": 279.65625,
          "velocity": 0.2125984251968504
        },
        {
          "duration": 0.24843750000002274,
          "durationTicks": 318,
          "midi": 77,
          "name": "F5",
          "ticks": 357960,
          "time": 279.65625,
          "velocity": 0.33858267716535434
        },
        {
          "duration": 0.24921875000001137,
          "durationTicks": 319,
          "midi": 81,
          "name": "A5",
          "ticks": 357960,
          "time": 279.65625,
          "velocity": 0.3779527559055118
        },
        {
          "duration": 0.23359375000001137,
          "durationTicks": 299,
          "midi": 84,
          "name": "C6",
          "ticks": 357960,
          "time": 279.65625,
          "velocity": 0.2047244094488189
        },
        {
          "duration": 0.26718749999997726,
          "durationTicks": 342,
          "midi": 52,
          "name": "E3",
          "ticks": 358680,
          "time": 280.21875,
          "velocity": 0.12598425196850394
        },
        {
          "duration": 0.30390625000001137,
          "durationTicks": 389,
          "midi": 58,
          "name": "A#3",
          "ticks": 358680,
          "time": 280.21875,
          "velocity": 0.07086614173228346
        },
        {
          "duration": 0.2742187500000455,
          "durationTicks": 351,
          "midi": 62,
          "name": "D4",
          "ticks": 358680,
          "time": 280.21875,
          "velocity": 0.07874015748031496
        },
        {
          "duration": 0.23124999999998863,
          "durationTicks": 296,
          "midi": 70,
          "name": "A#4",
          "ticks": 358680,
          "time": 280.21875,
          "velocity": 0.10236220472440945
        },
        {
          "duration": 0.234375,
          "durationTicks": 300,
          "midi": 74,
          "name": "D5",
          "ticks": 358680,
          "time": 280.21875,
          "velocity": 0.36220472440944884
        },
        {
          "duration": 0.21796874999995453,
          "durationTicks": 279,
          "midi": 77,
          "name": "F5",
          "ticks": 358680,
          "time": 280.21875,
          "velocity": 0.2755905511811024
        },
        {
          "duration": 0.22031249999997726,
          "durationTicks": 282,
          "midi": 81,
          "name": "A5",
          "ticks": 358680,
          "time": 280.21875,
          "velocity": 0.25196850393700787
        },
        {
          "duration": 0.24843750000002274,
          "durationTicks": 318,
          "midi": 52,
          "name": "E3",
          "ticks": 359400,
          "time": 280.78125,
          "velocity": 0.1889763779527559
        },
        {
          "duration": 0.2796874999999659,
          "durationTicks": 358,
          "midi": 58,
          "name": "A#3",
          "ticks": 359400,
          "time": 280.78125,
          "velocity": 0.18110236220472442
        },
        {
          "duration": 0.29843749999997726,
          "durationTicks": 382,
          "midi": 63,
          "name": "D#4",
          "ticks": 359400,
          "time": 280.78125,
          "velocity": 0.10236220472440945
        },
        {
          "duration": 0.28359375000002274,
          "durationTicks": 363,
          "midi": 67,
          "name": "G4",
          "ticks": 359400,
          "time": 280.78125,
          "velocity": 0.2204724409448819
        },
        {
          "duration": 0.3203125,
          "durationTicks": 410,
          "midi": 70,
          "name": "A#4",
          "ticks": 359400,
          "time": 280.78125,
          "velocity": 0.2125984251968504
        },
        {
          "duration": 0.26406250000002274,
          "durationTicks": 338,
          "midi": 76,
          "name": "E5",
          "ticks": 359400,
          "time": 280.78125,
          "velocity": 0.3779527559055118
        },
        {
          "duration": 0.7351562499999886,
          "durationTicks": 941,
          "midi": 64,
          "name": "E4",
          "ticks": 360000,
          "time": 281.25,
          "velocity": 0.15748031496062992
        },
        {
          "duration": 0.69140625,
          "durationTicks": 885,
          "midi": 69,
          "name": "A4",
          "ticks": 360000,
          "time": 281.25,
          "velocity": 0.1889763779527559
        },
        {
          "duration": 0.6499999999999773,
          "durationTicks": 832,
          "midi": 72,
          "name": "C5",
          "ticks": 360000,
          "time": 281.25,
          "velocity": 0.2047244094488189
        },
        {
          "duration": 0.6851562499999773,
          "durationTicks": 877,
          "midi": 53,
          "name": "F3",
          "ticks": 360120,
          "time": 281.34375,
          "velocity": 0.18110236220472442
        },
        {
          "duration": 0.62890625,
          "durationTicks": 805,
          "midi": 57,
          "name": "A3",
          "ticks": 360120,
          "time": 281.34375,
          "velocity": 0.16535433070866143
        },
        {
          "duration": 0.6140625000000455,
          "durationTicks": 786,
          "midi": 62,
          "name": "D4",
          "ticks": 360120,
          "time": 281.34375,
          "velocity": 0.11811023622047244
        },
        {
          "duration": 0.13749999999998863,
          "durationTicks": 176,
          "midi": 50,
          "name": "D3",
          "ticks": 362160,
          "time": 282.9375,
          "velocity": 0.2047244094488189
        },
        {
          "duration": 0.13828124999997726,
          "durationTicks": 177,
          "midi": 53,
          "name": "F3",
          "ticks": 362160,
          "time": 282.9375,
          "velocity": 0.15748031496062992
        },
        {
          "duration": 0.33125000000001137,
          "durationTicks": 424,
          "midi": 57,
          "name": "A3",
          "ticks": 362160,
          "time": 282.9375,
          "velocity": 0.25984251968503935
        },
        {
          "duration": 0.34765625,
          "durationTicks": 445,
          "midi": 60,
          "name": "C4",
          "ticks": 362160,
          "time": 282.9375,
          "velocity": 0.33858267716535434
        },
        {
          "duration": 0.29921875000002274,
          "durationTicks": 383,
          "midi": 62,
          "name": "D4",
          "ticks": 362160,
          "time": 282.9375,
          "velocity": 0.36220472440944884
        },
        {
          "duration": 0.27734375,
          "durationTicks": 355,
          "midi": 64,
          "name": "E4",
          "ticks": 362520,
          "time": 283.21875,
          "velocity": 0.4409448818897638
        },
        {
          "duration": 0.75390625,
          "durationTicks": 965,
          "midi": 53,
          "name": "F3",
          "ticks": 362880,
          "time": 283.5,
          "velocity": 0.1732283464566929
        },
        {
          "duration": 0.7554687499999773,
          "durationTicks": 967,
          "midi": 57,
          "name": "A3",
          "ticks": 362880,
          "time": 283.5,
          "velocity": 0.2047244094488189
        },
        {
          "duration": 0.7593749999999773,
          "durationTicks": 972,
          "midi": 58,
          "name": "A#3",
          "ticks": 362880,
          "time": 283.5,
          "velocity": 0.1889763779527559
        },
        {
          "duration": 0.33203125,
          "durationTicks": 425,
          "midi": 62,
          "name": "D4",
          "ticks": 362880,
          "time": 283.5,
          "velocity": 0.2125984251968504
        },
        {
          "duration": 0.38046874999997726,
          "durationTicks": 487,
          "midi": 65,
          "name": "F4",
          "ticks": 362880,
          "time": 283.5,
          "velocity": 0.3228346456692913
        },
        {
          "duration": 0.5101562500000227,
          "durationTicks": 653,
          "midi": 56,
          "name": "G#3",
          "ticks": 364560,
          "time": 284.8125,
          "velocity": 0.047244094488188976
        },
        {
          "duration": 0.2976562500000455,
          "durationTicks": 381,
          "midi": 65,
          "name": "F4",
          "ticks": 364560,
          "time": 284.8125,
          "velocity": 0.1968503937007874
        },
        {
          "duration": 0.41328125000001137,
          "durationTicks": 529,
          "midi": 68,
          "name": "G#4",
          "ticks": 364560,
          "time": 284.8125,
          "velocity": 0.23622047244094488
        },
        {
          "duration": 0.45625000000001137,
          "durationTicks": 584,
          "midi": 52,
          "name": "E3",
          "ticks": 364680,
          "time": 284.90625,
          "velocity": 0.08661417322834646
        },
        {
          "duration": 0.4523437499999545,
          "durationTicks": 579,
          "midi": 62,
          "name": "D4",
          "ticks": 364680,
          "time": 284.90625,
          "velocity": 0.12598425196850394
        },
        {
          "duration": 0.20546875000002274,
          "durationTicks": 263,
          "midi": 71,
          "name": "B4",
          "ticks": 364800,
          "time": 285,
          "velocity": 0.41732283464566927
        },
        {
          "duration": 0.09375,
          "durationTicks": 120,
          "midi": 72,
          "name": "C5",
          "ticks": 365040,
          "time": 285.1875,
          "velocity": 0.44881889763779526
        },
        {
          "duration": 0.19687499999997726,
          "durationTicks": 252,
          "midi": 74,
          "name": "D5",
          "ticks": 365280,
          "time": 285.375,
          "velocity": 0.3937007874015748
        },
        {
          "duration": 0.9351562499999773,
          "durationTicks": 1197,
          "midi": 73,
          "name": "C#5",
          "ticks": 365520,
          "time": 285.5625,
          "velocity": 0.2992125984251969
        },
        {
          "duration": 0.61328125,
          "durationTicks": 785,
          "midi": 49,
          "name": "C#3",
          "ticks": 365880,
          "time": 285.84375,
          "velocity": 0.11023622047244094
        },
        {
          "duration": 0.5992187500000341,
          "durationTicks": 767,
          "midi": 61,
          "name": "C#4",
          "ticks": 365880,
          "time": 285.84375,
          "velocity": 0.08661417322834646
        },
        {
          "duration": 0.5945312499999886,
          "durationTicks": 761,
          "midi": 81,
          "name": "A5",
          "ticks": 365880,
          "time": 285.84375,
          "velocity": 0.3700787401574803
        },
        {
          "duration": 0.6695312500000341,
          "durationTicks": 857,
          "midi": 60,
          "name": "C4",
          "ticks": 367200,
          "time": 286.875,
          "velocity": 0.1968503937007874
        },
        {
          "duration": 0.6804687499999886,
          "durationTicks": 871,
          "midi": 69,
          "name": "A4",
          "ticks": 367200,
          "time": 286.875,
          "velocity": 0.2047244094488189
        },
        {
          "duration": 0.6875,
          "durationTicks": 880,
          "midi": 72,
          "name": "C5",
          "ticks": 367200,
          "time": 286.875,
          "velocity": 0.23622047244094488
        },
        {
          "duration": 0.6414062499999886,
          "durationTicks": 821,
          "midi": 78,
          "name": "F#5",
          "ticks": 367200,
          "time": 286.875,
          "velocity": 0.2283464566929134
        },
        {
          "duration": 0.7195312500000455,
          "durationTicks": 921,
          "midi": 48,
          "name": "C3",
          "ticks": 367320,
          "time": 286.96875,
          "velocity": 0.18110236220472442
        },
        {
          "duration": 0.5296875000000227,
          "durationTicks": 678,
          "midi": 47,
          "name": "B2",
          "ticks": 368760,
          "time": 288.09375,
          "velocity": 0.11023622047244094
        },
        {
          "duration": 0.5023437499999659,
          "durationTicks": 643,
          "midi": 59,
          "name": "B3",
          "ticks": 368760,
          "time": 288.09375,
          "velocity": 0.14173228346456693
        },
        {
          "duration": 0.5843749999999659,
          "durationTicks": 748,
          "midi": 67,
          "name": "G4",
          "ticks": 368760,
          "time": 288.09375,
          "velocity": 0.16535433070866143
        },
        {
          "duration": 0.5718749999999773,
          "durationTicks": 732,
          "midi": 71,
          "name": "B4",
          "ticks": 368760,
          "time": 288.09375,
          "velocity": 0.25984251968503935
        },
        {
          "duration": 0.56640625,
          "durationTicks": 725,
          "midi": 74,
          "name": "D5",
          "ticks": 368760,
          "time": 288.09375,
          "velocity": 0.31496062992125984
        },
        {
          "duration": 0.5257812499999659,
          "durationTicks": 673,
          "midi": 79,
          "name": "G5",
          "ticks": 368760,
          "time": 288.09375,
          "velocity": 0.14173228346456693
        },
        {
          "duration": 0.57421875,
          "durationTicks": 735,
          "midi": 48,
          "name": "C3",
          "ticks": 370080,
          "time": 289.125,
          "velocity": 0.18110236220472442
        },
        {
          "duration": 0.5578124999999545,
          "durationTicks": 714,
          "midi": 52,
          "name": "E3",
          "ticks": 370080,
          "time": 289.125,
          "velocity": 0.31496062992125984
        },
        {
          "duration": 0.6257812500000455,
          "durationTicks": 801,
          "midi": 58,
          "name": "A#3",
          "ticks": 370080,
          "time": 289.125,
          "velocity": 0.18110236220472442
        },
        {
          "duration": 0.23750000000001137,
          "durationTicks": 304,
          "midi": 64,
          "name": "E4",
          "ticks": 370080,
          "time": 289.125,
          "velocity": 0.14173228346456693
        },
        {
          "duration": 0.2578125,
          "durationTicks": 330,
          "midi": 70,
          "name": "A#4",
          "ticks": 370080,
          "time": 289.125,
          "velocity": 0.2125984251968504
        },
        {
          "duration": 0.2742187500000455,
          "durationTicks": 351,
          "midi": 73,
          "name": "C#5",
          "ticks": 370080,
          "time": 289.125,
          "velocity": 0.2204724409448819
        },
        {
          "duration": 0.2265625,
          "durationTicks": 290,
          "midi": 76,
          "name": "E5",
          "ticks": 370080,
          "time": 289.125,
          "velocity": 0.12598425196850394
        },
        {
          "duration": 0.1273437499999659,
          "durationTicks": 163,
          "midi": 65,
          "name": "F4",
          "ticks": 370800,
          "time": 289.6875,
          "velocity": 0.2047244094488189
        },
        {
          "duration": 0.16640625000002274,
          "durationTicks": 213,
          "midi": 77,
          "name": "F5",
          "ticks": 370800,
          "time": 289.6875,
          "velocity": 0.31496062992125984
        },
        {
          "duration": 0.09921874999997726,
          "durationTicks": 127,
          "midi": 67,
          "name": "G4",
          "ticks": 371160,
          "time": 289.96875,
          "velocity": 0.4330708661417323
        },
        {
          "duration": 0.13828124999997726,
          "durationTicks": 177,
          "midi": 79,
          "name": "G5",
          "ticks": 371160,
          "time": 289.96875,
          "velocity": 0.5590551181102362
        },
        {
          "duration": 0.6617187499999773,
          "durationTicks": 847,
          "midi": 57,
          "name": "A3",
          "ticks": 371520,
          "time": 290.25,
          "velocity": 0.28346456692913385
        },
        {
          "duration": 0.6656249999999773,
          "durationTicks": 852,
          "midi": 62,
          "name": "D4",
          "ticks": 371520,
          "time": 290.25,
          "velocity": 0.25984251968503935
        },
        {
          "duration": 0.6578125000000341,
          "durationTicks": 842,
          "midi": 67,
          "name": "G4",
          "ticks": 371520,
          "time": 290.25,
          "velocity": 0.2047244094488189
        },
        {
          "duration": 0.6351562500000227,
          "durationTicks": 813,
          "midi": 69,
          "name": "A4",
          "ticks": 371520,
          "time": 290.25,
          "velocity": 0.2755905511811024
        },
        {
          "duration": 0.04062499999997726,
          "durationTicks": 52,
          "midi": 71,
          "name": "B4",
          "ticks": 371520,
          "time": 290.25,
          "velocity": 0.2204724409448819
        },
        {
          "duration": 0.6976562500000227,
          "durationTicks": 893,
          "midi": 77,
          "name": "F5",
          "ticks": 371520,
          "time": 290.25,
          "velocity": 0.44881889763779526
        },
        {
          "duration": 0.7289062500000227,
          "durationTicks": 933,
          "midi": 81,
          "name": "A5",
          "ticks": 371520,
          "time": 290.25,
          "velocity": 0.44881889763779526
        },
        {
          "duration": 0.1507812499999659,
          "durationTicks": 193,
          "midi": 57,
          "name": "A3",
          "ticks": 373680,
          "time": 291.9375,
          "velocity": 0.41732283464566927
        },
        {
          "duration": 0.15546875000001137,
          "durationTicks": 199,
          "midi": 62,
          "name": "D4",
          "ticks": 373680,
          "time": 291.9375,
          "velocity": 0.3779527559055118
        },
        {
          "duration": 0.13984375000001137,
          "durationTicks": 179,
          "midi": 67,
          "name": "G4",
          "ticks": 373680,
          "time": 291.9375,
          "velocity": 0.2440944881889764
        },
        {
          "duration": 0.21484375,
          "durationTicks": 275,
          "midi": 72,
          "name": "C5",
          "ticks": 373680,
          "time": 291.9375,
          "velocity": 0.44881889763779526
        },
        {
          "duration": 0.21406250000001137,
          "durationTicks": 274,
          "midi": 77,
          "name": "F5",
          "ticks": 373680,
          "time": 291.9375,
          "velocity": 0.4881889763779528
        },
        {
          "duration": 0.7164062500000341,
          "durationTicks": 917,
          "midi": 57,
          "name": "A3",
          "ticks": 374280,
          "time": 292.40625,
          "velocity": 0.4330708661417323
        },
        {
          "duration": 0.7171875000000227,
          "durationTicks": 918,
          "midi": 61,
          "name": "C#4",
          "ticks": 374280,
          "time": 292.40625,
          "velocity": 0.25984251968503935
        },
        {
          "duration": 0.7046875000000341,
          "durationTicks": 902,
          "midi": 62,
          "name": "D4",
          "ticks": 374280,
          "time": 292.40625,
          "velocity": 0.4330708661417323
        },
        {
          "duration": 0.70703125,
          "durationTicks": 905,
          "midi": 66,
          "name": "F#4",
          "ticks": 374280,
          "time": 292.40625,
          "velocity": 0.25984251968503935
        },
        {
          "duration": 0.7515625000000341,
          "durationTicks": 962,
          "midi": 71,
          "name": "B4",
          "ticks": 374280,
          "time": 292.40625,
          "velocity": 0.49606299212598426
        },
        {
          "duration": 0.7398437500000341,
          "durationTicks": 947,
          "midi": 78,
          "name": "F#5",
          "ticks": 374280,
          "time": 292.40625,
          "velocity": 0.4566929133858268
        },
        {
          "duration": 0.6859375000000227,
          "durationTicks": 878,
          "midi": 83,
          "name": "B5",
          "ticks": 374280,
          "time": 292.40625,
          "velocity": 0.5039370078740157
        },
        {
          "duration": 0.49843750000002274,
          "durationTicks": 638,
          "midi": 56,
          "name": "G#3",
          "ticks": 375720,
          "time": 293.53125,
          "velocity": 0.2125984251968504
        },
        {
          "duration": 0.5617187500000114,
          "durationTicks": 719,
          "midi": 62,
          "name": "D4",
          "ticks": 375840,
          "time": 293.625,
          "velocity": 0.25196850393700787
        },
        {
          "duration": 0.49453125000002274,
          "durationTicks": 633,
          "midi": 66,
          "name": "F#4",
          "ticks": 375840,
          "time": 293.625,
          "velocity": 0.08661417322834646
        },
        {
          "duration": 0.47187500000001137,
          "durationTicks": 604,
          "midi": 68,
          "name": "G#4",
          "ticks": 375840,
          "time": 293.625,
          "velocity": 0.2440944881889764
        },
        {
          "duration": 0.5249999999999773,
          "durationTicks": 672,
          "midi": 80,
          "name": "G#5",
          "ticks": 375840,
          "time": 293.625,
          "velocity": 0.28346456692913385
        },
        {
          "duration": 0.7046875000000341,
          "durationTicks": 902,
          "midi": 56,
          "name": "G#3",
          "ticks": 377280,
          "time": 294.75,
          "velocity": 0.08661417322834646
        },
        {
          "duration": 0.7023437500000114,
          "durationTicks": 899,
          "midi": 59,
          "name": "B3",
          "ticks": 377280,
          "time": 294.75,
          "velocity": 0.1889763779527559
        },
        {
          "duration": 0.71875,
          "durationTicks": 920,
          "midi": 64,
          "name": "E4",
          "ticks": 377280,
          "time": 294.75,
          "velocity": 0.08661417322834646
        },
        {
          "duration": 0.6351562500000227,
          "durationTicks": 813,
          "midi": 73,
          "name": "C#5",
          "ticks": 377280,
          "time": 294.75,
          "velocity": 0.2992125984251969
        },
        {
          "duration": 0.546875,
          "durationTicks": 700,
          "midi": 85,
          "name": "C#6",
          "ticks": 377280,
          "time": 294.75,
          "velocity": 0.3700787401574803
        },
        {
          "duration": 0.31953125000001137,
          "durationTicks": 409,
          "midi": 78,
          "name": "F#5",
          "ticks": 378120,
          "time": 295.40625,
          "velocity": 0.4330708661417323
        },
        {
          "duration": 0.23359375000001137,
          "durationTicks": 299,
          "midi": 81,
          "name": "A5",
          "ticks": 378720,
          "time": 295.875,
          "velocity": 0.2992125984251969
        },
        {
          "duration": 0.16640625000002274,
          "durationTicks": 213,
          "midi": 78,
          "name": "F#5",
          "ticks": 379200,
          "time": 296.25,
          "velocity": 0.5275590551181102
        },
        {
          "duration": 0.14531250000004547,
          "durationTicks": 186,
          "midi": 76,
          "name": "E5",
          "ticks": 379560,
          "time": 296.53125,
          "velocity": 0.3937007874015748
        },
        {
          "duration": 0.18046875000004547,
          "durationTicks": 231,
          "midi": 74,
          "name": "D5",
          "ticks": 379800,
          "time": 296.71875,
          "velocity": 0.31496062992125984
        },
        {
          "duration": 0.14140624999998863,
          "durationTicks": 181,
          "midi": 73,
          "name": "C#5",
          "ticks": 380040,
          "time": 296.90625,
          "velocity": 0.4330708661417323
        },
        {
          "duration": 0.33906250000001137,
          "durationTicks": 434,
          "midi": 68,
          "name": "G#4",
          "ticks": 380280,
          "time": 297.09375,
          "velocity": 0.05511811023622047
        },
        {
          "duration": 0.5492187499999659,
          "durationTicks": 703,
          "midi": 71,
          "name": "B4",
          "ticks": 380640,
          "time": 297.375,
          "velocity": 0.1968503937007874
        },
        {
          "duration": 0.26406250000002274,
          "durationTicks": 338,
          "midi": 56,
          "name": "G#3",
          "ticks": 381000,
          "time": 297.65625,
          "velocity": 0.15748031496062992
        },
        {
          "duration": 0.25546874999997726,
          "durationTicks": 327,
          "midi": 59,
          "name": "B3",
          "ticks": 381000,
          "time": 297.65625,
          "velocity": 0.15748031496062992
        },
        {
          "duration": 0.31875000000002274,
          "durationTicks": 408,
          "midi": 64,
          "name": "E4",
          "ticks": 381000,
          "time": 297.65625,
          "velocity": 0.1968503937007874
        },
        {
          "duration": 0.28750000000002274,
          "durationTicks": 368,
          "midi": 68,
          "name": "G#4",
          "ticks": 381000,
          "time": 297.65625,
          "velocity": 0.13385826771653545
        },
        {
          "duration": 0.12031250000001137,
          "durationTicks": 154,
          "midi": 64,
          "name": "E4",
          "ticks": 381720,
          "time": 298.21875,
          "velocity": 0.2204724409448819
        },
        {
          "duration": 0.4820312500000341,
          "durationTicks": 617,
          "midi": 68,
          "name": "G#4",
          "ticks": 381720,
          "time": 298.21875,
          "velocity": 0.4566929133858268
        },
        {
          "duration": 0.35546875,
          "durationTicks": 455,
          "midi": 56,
          "name": "G#3",
          "ticks": 382080,
          "time": 298.5,
          "velocity": 0.2755905511811024
        },
        {
          "duration": 0.2999999999999545,
          "durationTicks": 384,
          "midi": 59,
          "name": "B3",
          "ticks": 382080,
          "time": 298.5,
          "velocity": 0.2677165354330709
        },
        {
          "duration": 0.28359375000002274,
          "durationTicks": 363,
          "midi": 71,
          "name": "B4",
          "ticks": 382080,
          "time": 298.5,
          "velocity": 0.47244094488188976
        },
        {
          "duration": 0.15546875000001137,
          "durationTicks": 199,
          "midi": 72,
          "name": "C5",
          "ticks": 382440,
          "time": 298.78125,
          "velocity": 0.5196850393700787
        },
        {
          "duration": 0.18124999999997726,
          "durationTicks": 232,
          "midi": 73,
          "name": "C#5",
          "ticks": 382680,
          "time": 298.96875,
          "velocity": 0.6614173228346457
        },
        {
          "duration": 0.11171875000002274,
          "durationTicks": 143,
          "midi": 53,
          "name": "F3",
          "ticks": 383040,
          "time": 299.25,
          "velocity": 0.36220472440944884
        },
        {
          "duration": 0.12031250000001137,
          "durationTicks": 154,
          "midi": 57,
          "name": "A3",
          "ticks": 383040,
          "time": 299.25,
          "velocity": 0.33858267716535434
        },
        {
          "duration": 0.11328125,
          "durationTicks": 145,
          "midi": 58,
          "name": "A#3",
          "ticks": 383040,
          "time": 299.25,
          "velocity": 0.3228346456692913
        },
        {
          "duration": 0.08906249999995453,
          "durationTicks": 114,
          "midi": 62,
          "name": "D4",
          "ticks": 383040,
          "time": 299.25,
          "velocity": 0.3228346456692913
        },
        {
          "duration": 0.12343750000002274,
          "durationTicks": 158,
          "midi": 65,
          "name": "F4",
          "ticks": 383040,
          "time": 299.25,
          "velocity": 0.49606299212598426
        },
        {
          "duration": 0.1421875000000341,
          "durationTicks": 182,
          "midi": 69,
          "name": "A4",
          "ticks": 383040,
          "time": 299.25,
          "velocity": 0.5196850393700787
        },
        {
          "duration": 0.15859375000002274,
          "durationTicks": 203,
          "midi": 70,
          "name": "A#4",
          "ticks": 383040,
          "time": 299.25,
          "velocity": 0.4881889763779528
        },
        {
          "duration": 0.16171874999997726,
          "durationTicks": 207,
          "midi": 74,
          "name": "D5",
          "ticks": 383040,
          "time": 299.25,
          "velocity": 0.5196850393700787
        },
        {
          "duration": 0.63671875,
          "durationTicks": 815,
          "midi": 53,
          "name": "F3",
          "ticks": 383880,
          "time": 299.90625,
          "velocity": 0.3937007874015748
        },
        {
          "duration": 0.6328125,
          "durationTicks": 810,
          "midi": 57,
          "name": "A3",
          "ticks": 383880,
          "time": 299.90625,
          "velocity": 0.4330708661417323
        },
        {
          "duration": 0.6476562500000114,
          "durationTicks": 829,
          "midi": 58,
          "name": "A#3",
          "ticks": 383880,
          "time": 299.90625,
          "velocity": 0.33070866141732286
        },
        {
          "duration": 0.671875,
          "durationTicks": 860,
          "midi": 62,
          "name": "D4",
          "ticks": 383880,
          "time": 299.90625,
          "velocity": 0.3700787401574803
        },
        {
          "duration": 0.16171874999997726,
          "durationTicks": 207,
          "midi": 73,
          "name": "C#5",
          "ticks": 383880,
          "time": 299.90625,
          "velocity": 0.6456692913385826
        },
        {
          "duration": 0.25468749999998863,
          "durationTicks": 326,
          "midi": 82,
          "name": "A#5",
          "ticks": 383880,
          "time": 299.90625,
          "velocity": 0.3779527559055118
        },
        {
          "duration": 0.19062500000001137,
          "durationTicks": 244,
          "midi": 85,
          "name": "C#6",
          "ticks": 383880,
          "time": 299.90625,
          "velocity": 0.6456692913385826
        },
        {
          "duration": 0.11953125000002274,
          "durationTicks": 153,
          "midi": 74,
          "name": "D5",
          "ticks": 384120,
          "time": 300.09375,
          "velocity": 0.2755905511811024
        },
        {
          "duration": 0.06562499999995453,
          "durationTicks": 84,
          "midi": 86,
          "name": "D6",
          "ticks": 384240,
          "time": 300.1875,
          "velocity": 0.25984251968503935
        },
        {
          "duration": 0.07734374999995453,
          "durationTicks": 99,
          "midi": 74,
          "name": "D5",
          "ticks": 384360,
          "time": 300.28125,
          "velocity": 0.09448818897637795
        },
        {
          "duration": 0.06718749999998863,
          "durationTicks": 86,
          "midi": 86,
          "name": "D6",
          "ticks": 384480,
          "time": 300.375,
          "velocity": 0.1732283464566929
        },
        {
          "duration": 0.09296875000001137,
          "durationTicks": 119,
          "midi": 74,
          "name": "D5",
          "ticks": 384600,
          "time": 300.46875,
          "velocity": 0.14173228346456693
        },
        {
          "duration": 0.07109374999998863,
          "durationTicks": 91,
          "midi": 86,
          "name": "D6",
          "ticks": 384840,
          "time": 300.65625,
          "velocity": 0.047244094488188976
        },
        {
          "duration": 0.08984375,
          "durationTicks": 115,
          "midi": 86,
          "name": "D6",
          "ticks": 385080,
          "time": 300.84375,
          "velocity": 0.16535433070866143
        },
        {
          "duration": 0.078125,
          "durationTicks": 100,
          "midi": 74,
          "name": "D5",
          "ticks": 385200,
          "time": 300.9375,
          "velocity": 0.07086614173228346
        },
        {
          "duration": 0.3617187499999659,
          "durationTicks": 463,
          "midi": 52,
          "name": "E3",
          "ticks": 385320,
          "time": 301.03125,
          "velocity": 0.2047244094488189
        },
        {
          "duration": 0.39609374999997726,
          "durationTicks": 507,
          "midi": 58,
          "name": "A#3",
          "ticks": 385320,
          "time": 301.03125,
          "velocity": 0.18110236220472442
        },
        {
          "duration": 0.43124999999997726,
          "durationTicks": 552,
          "midi": 62,
          "name": "D4",
          "ticks": 385320,
          "time": 301.03125,
          "velocity": 0.18110236220472442
        },
        {
          "duration": 0.5562499999999773,
          "durationTicks": 712,
          "midi": 86,
          "name": "D6",
          "ticks": 385320,
          "time": 301.03125,
          "velocity": 0.15748031496062992
        },
        {
          "duration": 0.07890624999998863,
          "durationTicks": 101,
          "midi": 74,
          "name": "D5",
          "ticks": 385800,
          "time": 301.40625,
          "velocity": 0.07086614173228346
        },
        {
          "duration": 0.11640625000001137,
          "durationTicks": 149,
          "midi": 84,
          "name": "C6",
          "ticks": 385920,
          "time": 301.5,
          "velocity": 0.2204724409448819
        },
        {
          "duration": 1.2335937500000114,
          "durationTicks": 1579,
          "midi": 55,
          "name": "G3",
          "ticks": 386040,
          "time": 301.59375,
          "velocity": 0.3228346456692913
        },
        {
          "duration": 1.22265625,
          "durationTicks": 1565,
          "midi": 59,
          "name": "B3",
          "ticks": 386040,
          "time": 301.59375,
          "velocity": 0.3779527559055118
        },
        {
          "duration": 1.2429687499999886,
          "durationTicks": 1591,
          "midi": 60,
          "name": "C4",
          "ticks": 386040,
          "time": 301.59375,
          "velocity": 0.31496062992125984
        },
        {
          "duration": 1.2414062500000114,
          "durationTicks": 1589,
          "midi": 64,
          "name": "E4",
          "ticks": 386040,
          "time": 301.59375,
          "velocity": 0.2992125984251969
        },
        {
          "duration": 0.390625,
          "durationTicks": 500,
          "midi": 74,
          "name": "D5",
          "ticks": 386040,
          "time": 301.59375,
          "velocity": 0.6220472440944882
        },
        {
          "duration": 0.2476562500000341,
          "durationTicks": 317,
          "midi": 82,
          "name": "A#5",
          "ticks": 386040,
          "time": 301.59375,
          "velocity": 0.6220472440944882
        },
        {
          "duration": 0.015625,
          "durationTicks": 20,
          "midi": 86,
          "name": "D6",
          "ticks": 386040,
          "time": 301.59375,
          "velocity": 0.4881889763779528
        },
        {
          "duration": 0.29843749999997726,
          "durationTicks": 382,
          "midi": 83,
          "name": "B5",
          "ticks": 386280,
          "time": 301.78125,
          "velocity": 0.16535433070866143
        },
        {
          "duration": 0.13437499999997726,
          "durationTicks": 172,
          "midi": 86,
          "name": "D6",
          "ticks": 386760,
          "time": 302.15625,
          "velocity": 0.14960629921259844
        },
        {
          "duration": 0.08203125,
          "durationTicks": 105,
          "midi": 74,
          "name": "D5",
          "ticks": 386880,
          "time": 302.25,
          "velocity": 0.07874015748031496
        },
        {
          "duration": 0.13671875,
          "durationTicks": 175,
          "midi": 86,
          "name": "D6",
          "ticks": 387000,
          "time": 302.34375,
          "velocity": 0.12598425196850394
        },
        {
          "duration": 0.12578124999998863,
          "durationTicks": 161,
          "midi": 86,
          "name": "D6",
          "ticks": 387240,
          "time": 302.53125,
          "velocity": 0.07874015748031496
        },
        {
          "duration": 0.13984375000001137,
          "durationTicks": 179,
          "midi": 54,
          "name": "F#3",
          "ticks": 388200,
          "time": 303.28125,
          "velocity": 0.28346456692913385
        },
        {
          "duration": 0.18671875000001137,
          "durationTicks": 239,
          "midi": 60,
          "name": "C4",
          "ticks": 388200,
          "time": 303.28125,
          "velocity": 0.25984251968503935
        },
        {
          "duration": 0.14999999999997726,
          "durationTicks": 192,
          "midi": 65,
          "name": "F4",
          "ticks": 388200,
          "time": 303.28125,
          "velocity": 0.2677165354330709
        },
        {
          "duration": 0.29218750000001137,
          "durationTicks": 374,
          "midi": 75,
          "name": "D#5",
          "ticks": 388200,
          "time": 303.28125,
          "velocity": 0.3543307086614173
        },
        {
          "duration": 0.2242187500000341,
          "durationTicks": 287,
          "midi": 80,
          "name": "G#5",
          "ticks": 388200,
          "time": 303.28125,
          "velocity": 0.41732283464566927
        },
        {
          "duration": 0.19921875,
          "durationTicks": 255,
          "midi": 81,
          "name": "A5",
          "ticks": 388440,
          "time": 303.46875,
          "velocity": 0.4015748031496063
        },
        {
          "duration": 0.6257812500000455,
          "durationTicks": 801,
          "midi": 53,
          "name": "F3",
          "ticks": 388800,
          "time": 303.75,
          "velocity": 0.2125984251968504
        },
        {
          "duration": 0.6484375,
          "durationTicks": 830,
          "midi": 57,
          "name": "A3",
          "ticks": 388800,
          "time": 303.75,
          "velocity": 0.31496062992125984
        },
        {
          "duration": 0.6632812499999545,
          "durationTicks": 849,
          "midi": 58,
          "name": "A#3",
          "ticks": 388800,
          "time": 303.75,
          "velocity": 0.1889763779527559
        },
        {
          "duration": 0.6476562500000114,
          "durationTicks": 829,
          "midi": 62,
          "name": "D4",
          "ticks": 388800,
          "time": 303.75,
          "velocity": 0.2677165354330709
        },
        {
          "duration": 0.7039062499999886,
          "durationTicks": 901,
          "midi": 74,
          "name": "D5",
          "ticks": 388800,
          "time": 303.75,
          "velocity": 0.2204724409448819
        },
        {
          "duration": 0.6851562499999773,
          "durationTicks": 877,
          "midi": 79,
          "name": "G5",
          "ticks": 388800,
          "time": 303.75,
          "velocity": 0.2204724409448819
        },
        {
          "duration": 0.6781249999999659,
          "durationTicks": 868,
          "midi": 82,
          "name": "A#5",
          "ticks": 388800,
          "time": 303.75,
          "velocity": 0.25196850393700787
        },
        {
          "duration": 0.3359375,
          "durationTicks": 430,
          "midi": 55,
          "name": "G3",
          "ticks": 390600,
          "time": 305.15625,
          "velocity": 0.28346456692913385
        },
        {
          "duration": 0.35078125000001137,
          "durationTicks": 449,
          "midi": 61,
          "name": "C#4",
          "ticks": 390600,
          "time": 305.15625,
          "velocity": 0.16535433070866143
        },
        {
          "duration": 0.31718749999998863,
          "durationTicks": 406,
          "midi": 66,
          "name": "F#4",
          "ticks": 390600,
          "time": 305.15625,
          "velocity": 0.11811023622047244
        },
        {
          "duration": 0.3414062500000341,
          "durationTicks": 437,
          "midi": 70,
          "name": "A#4",
          "ticks": 390600,
          "time": 305.15625,
          "velocity": 0.1889763779527559
        },
        {
          "duration": 0.4585937500000341,
          "durationTicks": 587,
          "midi": 75,
          "name": "D#5",
          "ticks": 390600,
          "time": 305.15625,
          "velocity": 0.31496062992125984
        },
        {
          "duration": 0.2890625,
          "durationTicks": 370,
          "midi": 81,
          "name": "A5",
          "ticks": 390600,
          "time": 305.15625,
          "velocity": 0.33070866141732286
        },
        {
          "duration": 0.20781249999998863,
          "durationTicks": 266,
          "midi": 79,
          "name": "G5",
          "ticks": 391080,
          "time": 305.53125,
          "velocity": 0.2204724409448819
        },
        {
          "duration": 0.2476562500000341,
          "durationTicks": 317,
          "midi": 77,
          "name": "F5",
          "ticks": 391320,
          "time": 305.71875,
          "velocity": 0.33070866141732286
        },
        {
          "duration": 0.5625,
          "durationTicks": 720,
          "midi": 53,
          "name": "F3",
          "ticks": 391680,
          "time": 306,
          "velocity": 0.11811023622047244
        },
        {
          "duration": 0.5703125,
          "durationTicks": 730,
          "midi": 57,
          "name": "A3",
          "ticks": 391680,
          "time": 306,
          "velocity": 0.2047244094488189
        },
        {
          "duration": 0.5914062499999773,
          "durationTicks": 757,
          "midi": 60,
          "name": "C4",
          "ticks": 391680,
          "time": 306,
          "velocity": 0.1732283464566929
        },
        {
          "duration": 0.5882812500000227,
          "durationTicks": 753,
          "midi": 64,
          "name": "E4",
          "ticks": 391680,
          "time": 306,
          "velocity": 0.07874015748031496
        },
        {
          "duration": 0.58203125,
          "durationTicks": 745,
          "midi": 69,
          "name": "A4",
          "ticks": 391680,
          "time": 306,
          "velocity": 0.1968503937007874
        },
        {
          "duration": 0.5539062500000114,
          "durationTicks": 709,
          "midi": 76,
          "name": "E5",
          "ticks": 391680,
          "time": 306,
          "velocity": 0.3543307086614173
        },
        {
          "duration": 0.21328125000002274,
          "durationTicks": 273,
          "midi": 77,
          "name": "F5",
          "ticks": 392760,
          "time": 306.84375,
          "velocity": 0.3937007874015748
        },
        {
          "duration": 0.18124999999997726,
          "durationTicks": 232,
          "midi": 57,
          "name": "A3",
          "ticks": 393120,
          "time": 307.125,
          "velocity": 0.2204724409448819
        },
        {
          "duration": 0.1875,
          "durationTicks": 240,
          "midi": 63,
          "name": "D#4",
          "ticks": 393120,
          "time": 307.125,
          "velocity": 0.16535433070866143
        },
        {
          "duration": 0.18203125000002274,
          "durationTicks": 233,
          "midi": 67,
          "name": "G4",
          "ticks": 393120,
          "time": 307.125,
          "velocity": 0.2125984251968504
        },
        {
          "duration": 0.17812500000002274,
          "durationTicks": 228,
          "midi": 70,
          "name": "A#4",
          "ticks": 393120,
          "time": 307.125,
          "velocity": 0.2047244094488189
        },
        {
          "duration": 0.1507812499999659,
          "durationTicks": 193,
          "midi": 74,
          "name": "D5",
          "ticks": 393120,
          "time": 307.125,
          "velocity": 0.41732283464566927
        },
        {
          "duration": 0.10546875,
          "durationTicks": 135,
          "midi": 57,
          "name": "A3",
          "ticks": 393840,
          "time": 307.6875,
          "velocity": 0.2440944881889764
        },
        {
          "duration": 0.10312499999997726,
          "durationTicks": 132,
          "midi": 62,
          "name": "D4",
          "ticks": 393840,
          "time": 307.6875,
          "velocity": 0.2125984251968504
        },
        {
          "duration": 0.17109374999995453,
          "durationTicks": 219,
          "midi": 63,
          "name": "D#4",
          "ticks": 393840,
          "time": 307.6875,
          "velocity": 0.1889763779527559
        },
        {
          "duration": 0.17031250000002274,
          "durationTicks": 218,
          "midi": 66,
          "name": "F#4",
          "ticks": 393840,
          "time": 307.6875,
          "velocity": 0.2440944881889764
        },
        {
          "duration": 0.16796875,
          "durationTicks": 215,
          "midi": 69,
          "name": "A4",
          "ticks": 393840,
          "time": 307.6875,
          "velocity": 0.2755905511811024
        },
        {
          "duration": 0.6000000000000227,
          "durationTicks": 768,
          "midi": 50,
          "name": "D3",
          "ticks": 394560,
          "time": 308.25,
          "velocity": 0.18110236220472442
        },
        {
          "duration": 0.6007812500000114,
          "durationTicks": 769,
          "midi": 55,
          "name": "G3",
          "ticks": 394560,
          "time": 308.25,
          "velocity": 0.05511811023622047
        },
        {
          "duration": 0.5625,
          "durationTicks": 720,
          "midi": 60,
          "name": "C4",
          "ticks": 394560,
          "time": 308.25,
          "velocity": 0.13385826771653545
        },
        {
          "duration": 0.6000000000000227,
          "durationTicks": 768,
          "midi": 65,
          "name": "F4",
          "ticks": 394560,
          "time": 308.25,
          "velocity": 0.1968503937007874
        },
        {
          "duration": 0.6343750000000341,
          "durationTicks": 812,
          "midi": 69,
          "name": "A4",
          "ticks": 394560,
          "time": 308.25,
          "velocity": 0.23622047244094488
        },
        {
          "duration": 0.6359375000000114,
          "durationTicks": 814,
          "midi": 72,
          "name": "C5",
          "ticks": 394560,
          "time": 308.25,
          "velocity": 0.1889763779527559
        },
        {
          "duration": 0.0703125,
          "durationTicks": 90,
          "midi": 55,
          "name": "G3",
          "ticks": 396360,
          "time": 309.65625,
          "velocity": 0.3700787401574803
        },
        {
          "duration": 0.0703125,
          "durationTicks": 90,
          "midi": 61,
          "name": "C#4",
          "ticks": 396360,
          "time": 309.65625,
          "velocity": 0.2755905511811024
        },
        {
          "duration": 0.08281249999998863,
          "durationTicks": 106,
          "midi": 66,
          "name": "F#4",
          "ticks": 396360,
          "time": 309.65625,
          "velocity": 0.2125984251968504
        },
        {
          "duration": 0.09453124999998863,
          "durationTicks": 121,
          "midi": 70,
          "name": "A#4",
          "ticks": 396360,
          "time": 309.65625,
          "velocity": 0.2125984251968504
        },
        {
          "duration": 0.10468750000001137,
          "durationTicks": 134,
          "midi": 75,
          "name": "D#5",
          "ticks": 396360,
          "time": 309.65625,
          "velocity": 0.2755905511811024
        },
        {
          "duration": 0.07656250000002274,
          "durationTicks": 98,
          "midi": 79,
          "name": "G5",
          "ticks": 396360,
          "time": 309.65625,
          "velocity": 0.36220472440944884
        },
        {
          "duration": 0.14375000000001137,
          "durationTicks": 184,
          "midi": 55,
          "name": "G3",
          "ticks": 396840,
          "time": 310.03125,
          "velocity": 0.28346456692913385
        },
        {
          "duration": 0.15156250000001137,
          "durationTicks": 194,
          "midi": 61,
          "name": "C#4",
          "ticks": 396840,
          "time": 310.03125,
          "velocity": 0.1889763779527559
        },
        {
          "duration": 0.1624999999999659,
          "durationTicks": 208,
          "midi": 66,
          "name": "F#4",
          "ticks": 396840,
          "time": 310.03125,
          "velocity": 0.1732283464566929
        },
        {
          "duration": 0.17265624999998863,
          "durationTicks": 221,
          "midi": 72,
          "name": "C5",
          "ticks": 396840,
          "time": 310.03125,
          "velocity": 0.25984251968503935
        },
        {
          "duration": 0.19375000000002274,
          "durationTicks": 248,
          "midi": 77,
          "name": "F5",
          "ticks": 396840,
          "time": 310.03125,
          "velocity": 0.36220472440944884
        },
        {
          "duration": 0.22812499999997726,
          "durationTicks": 292,
          "midi": 81,
          "name": "A5",
          "ticks": 396840,
          "time": 310.03125,
          "velocity": 0.2677165354330709
        },
        {
          "duration": 0.5179687500000227,
          "durationTicks": 663,
          "midi": 53,
          "name": "F3",
          "ticks": 397440,
          "time": 310.5,
          "velocity": 0.1732283464566929
        },
        {
          "duration": 0.5242187499999886,
          "durationTicks": 671,
          "midi": 57,
          "name": "A3",
          "ticks": 397440,
          "time": 310.5,
          "velocity": 0.15748031496062992
        },
        {
          "duration": 0.5234375,
          "durationTicks": 670,
          "midi": 60,
          "name": "C4",
          "ticks": 397440,
          "time": 310.5,
          "velocity": 0.14173228346456693
        },
        {
          "duration": 0.515625,
          "durationTicks": 660,
          "midi": 64,
          "name": "E4",
          "ticks": 397440,
          "time": 310.5,
          "velocity": 0.09448818897637795
        },
        {
          "duration": 0.5734375000000114,
          "durationTicks": 734,
          "midi": 69,
          "name": "A4",
          "ticks": 397440,
          "time": 310.5,
          "velocity": 0.14960629921259844
        },
        {
          "duration": 0.5453125000000227,
          "durationTicks": 698,
          "midi": 74,
          "name": "D5",
          "ticks": 397440,
          "time": 310.5,
          "velocity": 0.1889763779527559
        },
        {
          "duration": 0.5187500000000114,
          "durationTicks": 664,
          "midi": 77,
          "name": "F5",
          "ticks": 397440,
          "time": 310.5,
          "velocity": 0.25984251968503935
        },
        {
          "duration": 0.30156249999998863,
          "durationTicks": 386,
          "midi": 56,
          "name": "G#3",
          "ticks": 399360,
          "time": 312,
          "velocity": 0.2125984251968504
        },
        {
          "duration": 0.3203125,
          "durationTicks": 410,
          "midi": 62,
          "name": "D4",
          "ticks": 399360,
          "time": 312,
          "velocity": 0.2125984251968504
        },
        {
          "duration": 0.33359374999997726,
          "durationTicks": 427,
          "midi": 65,
          "name": "F4",
          "ticks": 399360,
          "time": 312,
          "velocity": 0.3700787401574803
        },
        {
          "duration": 0.3468749999999545,
          "durationTicks": 444,
          "midi": 68,
          "name": "G#4",
          "ticks": 399360,
          "time": 312,
          "velocity": 0.36220472440944884
        },
        {
          "duration": 0.31406249999997726,
          "durationTicks": 402,
          "midi": 71,
          "name": "B4",
          "ticks": 399360,
          "time": 312,
          "velocity": 0.4566929133858268
        },
        {
          "duration": 0.3062500000000341,
          "durationTicks": 392,
          "midi": 76,
          "name": "E5",
          "ticks": 399360,
          "time": 312,
          "velocity": 0.4409448818897638
        },
        {
          "duration": 0.13828124999997726,
          "durationTicks": 177,
          "midi": 74,
          "name": "D5",
          "ticks": 400080,
          "time": 312.5625,
          "velocity": 0.4330708661417323
        },
        {
          "duration": 0.6023437500000455,
          "durationTicks": 771,
          "midi": 55,
          "name": "G3",
          "ticks": 400320,
          "time": 312.75,
          "velocity": 0.16535433070866143
        },
        {
          "duration": 0.59375,
          "durationTicks": 760,
          "midi": 59,
          "name": "B3",
          "ticks": 400320,
          "time": 312.75,
          "velocity": 0.13385826771653545
        },
        {
          "duration": 0.6117187500000227,
          "durationTicks": 783,
          "midi": 60,
          "name": "C4",
          "ticks": 400320,
          "time": 312.75,
          "velocity": 0.13385826771653545
        },
        {
          "duration": 0.21015625000001137,
          "durationTicks": 269,
          "midi": 64,
          "name": "E4",
          "ticks": 400320,
          "time": 312.75,
          "velocity": 0.16535433070866143
        },
        {
          "duration": 0.24609375,
          "durationTicks": 315,
          "midi": 69,
          "name": "A4",
          "ticks": 400320,
          "time": 312.75,
          "velocity": 0.2047244094488189
        },
        {
          "duration": 0.25156249999997726,
          "durationTicks": 322,
          "midi": 72,
          "name": "C5",
          "ticks": 400320,
          "time": 312.75,
          "velocity": 0.18110236220472442
        },
        {
          "duration": 0.9664062499999773,
          "durationTicks": 1237,
          "midi": 72,
          "name": "C5",
          "ticks": 401520,
          "time": 313.6875,
          "velocity": 0.18110236220472442
        },
        {
          "duration": 0.39218749999997726,
          "durationTicks": 502,
          "midi": 84,
          "name": "C6",
          "ticks": 401760,
          "time": 313.875,
          "velocity": 0.44881889763779526
        },
        {
          "duration": 0.46640624999997726,
          "durationTicks": 597,
          "midi": 54,
          "name": "F#3",
          "ticks": 402120,
          "time": 314.15625,
          "velocity": 0.16535433070866143
        },
        {
          "duration": 0.47812499999997726,
          "durationTicks": 612,
          "midi": 60,
          "name": "C4",
          "ticks": 402120,
          "time": 314.15625,
          "velocity": 0.15748031496062992
        },
        {
          "duration": 0.4351562500000341,
          "durationTicks": 557,
          "midi": 65,
          "name": "F4",
          "ticks": 402120,
          "time": 314.15625,
          "velocity": 0.14173228346456693
        },
        {
          "duration": 0.4117187500000341,
          "durationTicks": 527,
          "midi": 75,
          "name": "D#5",
          "ticks": 402120,
          "time": 314.15625,
          "velocity": 0.18110236220472442
        },
        {
          "duration": 0.4351562500000341,
          "durationTicks": 557,
          "midi": 80,
          "name": "G#5",
          "ticks": 402120,
          "time": 314.15625,
          "velocity": 0.3228346456692913
        },
        {
          "duration": 0.31875000000002274,
          "durationTicks": 408,
          "midi": 81,
          "name": "A5",
          "ticks": 403560,
          "time": 315.28125,
          "velocity": 0.36220472440944884
        },
        {
          "duration": 0.2578125,
          "durationTicks": 330,
          "midi": 53,
          "name": "F3",
          "ticks": 403920,
          "time": 315.5625,
          "velocity": 0.15748031496062992
        },
        {
          "duration": 0.26953125,
          "durationTicks": 345,
          "midi": 57,
          "name": "A3",
          "ticks": 403920,
          "time": 315.5625,
          "velocity": 0.1968503937007874
        },
        {
          "duration": 0.2765624999999545,
          "durationTicks": 354,
          "midi": 58,
          "name": "A#3",
          "ticks": 403920,
          "time": 315.5625,
          "velocity": 0.14960629921259844
        },
        {
          "duration": 0.2625000000000455,
          "durationTicks": 336,
          "midi": 62,
          "name": "D4",
          "ticks": 403920,
          "time": 315.5625,
          "velocity": 0.11023622047244094
        },
        {
          "duration": 0.28984374999998863,
          "durationTicks": 371,
          "midi": 70,
          "name": "A#4",
          "ticks": 403920,
          "time": 315.5625,
          "velocity": 0.2047244094488189
        },
        {
          "duration": 0.19609374999998863,
          "durationTicks": 251,
          "midi": 74,
          "name": "D5",
          "ticks": 403920,
          "time": 315.5625,
          "velocity": 0.33070866141732286
        },
        {
          "duration": 0.1875,
          "durationTicks": 240,
          "midi": 77,
          "name": "F5",
          "ticks": 403920,
          "time": 315.5625,
          "velocity": 0.31496062992125984
        },
        {
          "duration": 0.4085937499999659,
          "durationTicks": 523,
          "midi": 80,
          "name": "G#5",
          "ticks": 404640,
          "time": 316.125,
          "velocity": 0.2440944881889764
        },
        {
          "duration": 0.5328124999999773,
          "durationTicks": 682,
          "midi": 52,
          "name": "E3",
          "ticks": 405000,
          "time": 316.40625,
          "velocity": 0.25196850393700787
        },
        {
          "duration": 0.5265625000000114,
          "durationTicks": 674,
          "midi": 58,
          "name": "A#3",
          "ticks": 405000,
          "time": 316.40625,
          "velocity": 0.1732283464566929
        },
        {
          "duration": 0.5335937500000227,
          "durationTicks": 683,
          "midi": 63,
          "name": "D#4",
          "ticks": 405000,
          "time": 316.40625,
          "velocity": 0.047244094488188976
        },
        {
          "duration": 0.43046874999998863,
          "durationTicks": 551,
          "midi": 68,
          "name": "G#4",
          "ticks": 405000,
          "time": 316.40625,
          "velocity": 0.16535433070866143
        },
        {
          "duration": 0.46796875000001137,
          "durationTicks": 599,
          "midi": 72,
          "name": "C5",
          "ticks": 405000,
          "time": 316.40625,
          "velocity": 0.36220472440944884
        },
        {
          "duration": 0.49453125000002274,
          "durationTicks": 633,
          "midi": 75,
          "name": "D#5",
          "ticks": 405000,
          "time": 316.40625,
          "velocity": 0.25196850393700787
        },
        {
          "duration": 0.21328125000002274,
          "durationTicks": 273,
          "midi": 80,
          "name": "G#5",
          "ticks": 405480,
          "time": 316.78125,
          "velocity": 0.1889763779527559
        },
        {
          "duration": 0.1796875,
          "durationTicks": 230,
          "midi": 68,
          "name": "G#4",
          "ticks": 405840,
          "time": 317.0625,
          "velocity": 0.2283464566929134
        },
        {
          "duration": 0.6531249999999886,
          "durationTicks": 836,
          "midi": 53,
          "name": "F3",
          "ticks": 406200,
          "time": 317.34375,
          "velocity": 0.1732283464566929
        },
        {
          "duration": 0.6421874999999773,
          "durationTicks": 822,
          "midi": 57,
          "name": "A3",
          "ticks": 406200,
          "time": 317.34375,
          "velocity": 0.14173228346456693
        },
        {
          "duration": 0.6281249999999545,
          "durationTicks": 804,
          "midi": 60,
          "name": "C4",
          "ticks": 406200,
          "time": 317.34375,
          "velocity": 0.047244094488188976
        },
        {
          "duration": 0.6312499999999659,
          "durationTicks": 808,
          "midi": 64,
          "name": "E4",
          "ticks": 406200,
          "time": 317.34375,
          "velocity": 0.07086614173228346
        },
        {
          "duration": 0.6312499999999659,
          "durationTicks": 808,
          "midi": 69,
          "name": "A4",
          "ticks": 406200,
          "time": 317.34375,
          "velocity": 0.10236220472440945
        },
        {
          "duration": 0.6499999999999773,
          "durationTicks": 832,
          "midi": 72,
          "name": "C5",
          "ticks": 406200,
          "time": 317.34375,
          "velocity": 0.1889763779527559
        },
        {
          "duration": 0.6335937499999886,
          "durationTicks": 811,
          "midi": 76,
          "name": "E5",
          "ticks": 406200,
          "time": 317.34375,
          "velocity": 0.3543307086614173
        },
        {
          "duration": 0.6335937499999886,
          "durationTicks": 811,
          "midi": 81,
          "name": "A5",
          "ticks": 406200,
          "time": 317.34375,
          "velocity": 0.1889763779527559
        },
        {
          "duration": 0.46796875000001137,
          "durationTicks": 599,
          "midi": 65,
          "name": "F4",
          "ticks": 407520,
          "time": 318.375,
          "velocity": 0.18110236220472442
        },
        {
          "duration": 0.4171874999999545,
          "durationTicks": 534,
          "midi": 69,
          "name": "A4",
          "ticks": 408000,
          "time": 318.75,
          "velocity": 0.3543307086614173
        },
        {
          "duration": 0.3531250000000341,
          "durationTicks": 452,
          "midi": 72,
          "name": "C5",
          "ticks": 408480,
          "time": 319.125,
          "velocity": 0.36220472440944884
        },
        {
          "duration": 0.7046875000000341,
          "durationTicks": 902,
          "midi": 53,
          "name": "F3",
          "ticks": 408960,
          "time": 319.5,
          "velocity": 0.11811023622047244
        },
        {
          "duration": 0.6742187500000227,
          "durationTicks": 863,
          "midi": 57,
          "name": "A3",
          "ticks": 408960,
          "time": 319.5,
          "velocity": 0.11811023622047244
        },
        {
          "duration": 0.68359375,
          "durationTicks": 875,
          "midi": 58,
          "name": "A#3",
          "ticks": 408960,
          "time": 319.5,
          "velocity": 0.07874015748031496
        },
        {
          "duration": 0.6953125,
          "durationTicks": 890,
          "midi": 62,
          "name": "D4",
          "ticks": 408960,
          "time": 319.5,
          "velocity": 0.047244094488188976
        },
        {
          "duration": 0.6617187499999773,
          "durationTicks": 847,
          "midi": 70,
          "name": "A#4",
          "ticks": 408960,
          "time": 319.5,
          "velocity": 0.25196850393700787
        },
        {
          "duration": 0.39921874999998863,
          "durationTicks": 511,
          "midi": 74,
          "name": "D5",
          "ticks": 409440,
          "time": 319.875,
          "velocity": 0.3937007874015748
        },
        {
          "duration": 0.34296875000001137,
          "durationTicks": 439,
          "midi": 77,
          "name": "F5",
          "ticks": 409920,
          "time": 320.25,
          "velocity": 0.41732283464566927
        },
        {
          "duration": 0.6531249999999886,
          "durationTicks": 836,
          "midi": 52,
          "name": "E3",
          "ticks": 410400,
          "time": 320.625,
          "velocity": 0.16535433070866143
        },
        {
          "duration": 0.6695312500000341,
          "durationTicks": 857,
          "midi": 56,
          "name": "G#3",
          "ticks": 410400,
          "time": 320.625,
          "velocity": 0.10236220472440945
        },
        {
          "duration": 0.6593750000000114,
          "durationTicks": 844,
          "midi": 62,
          "name": "D4",
          "ticks": 410400,
          "time": 320.625,
          "velocity": 0.11811023622047244
        },
        {
          "duration": 0.6773437499999773,
          "durationTicks": 867,
          "midi": 76,
          "name": "E5",
          "ticks": 410400,
          "time": 320.625,
          "velocity": 0.2992125984251969
        },
        {
          "duration": 0.36406249999998863,
          "durationTicks": 466,
          "midi": 80,
          "name": "G#5",
          "ticks": 410880,
          "time": 321,
          "velocity": 0.2440944881889764
        },
        {
          "duration": 0.33906250000001137,
          "durationTicks": 434,
          "midi": 86,
          "name": "D6",
          "ticks": 411360,
          "time": 321.375,
          "velocity": 0.18110236220472442
        },
        {
          "duration": 0.7406250000000227,
          "durationTicks": 948,
          "midi": 49,
          "name": "C#3",
          "ticks": 411840,
          "time": 321.75,
          "velocity": 0.14960629921259844
        },
        {
          "duration": 0.6937500000000227,
          "durationTicks": 888,
          "midi": 61,
          "name": "C#4",
          "ticks": 411840,
          "time": 321.75,
          "velocity": 0.15748031496062992
        },
        {
          "duration": 0.04921875000002274,
          "durationTicks": 63,
          "midi": 74,
          "name": "D5",
          "ticks": 411840,
          "time": 321.75,
          "velocity": 0.14960629921259844
        },
        {
          "duration": 0.5124999999999886,
          "durationTicks": 656,
          "midi": 76,
          "name": "E5",
          "ticks": 411840,
          "time": 321.75,
          "velocity": 0.1732283464566929
        },
        {
          "duration": 0.7007812499999773,
          "durationTicks": 897,
          "midi": 85,
          "name": "C#6",
          "ticks": 411840,
          "time": 321.75,
          "velocity": 0.2204724409448819
        },
        {
          "duration": 0.421875,
          "durationTicks": 540,
          "midi": 79,
          "name": "G5",
          "ticks": 412320,
          "time": 322.125,
          "velocity": 0.1889763779527559
        },
        {
          "duration": 0.4500000000000455,
          "durationTicks": 576,
          "midi": 76,
          "name": "E5",
          "ticks": 412800,
          "time": 322.5,
          "velocity": 0.25196850393700787
        },
        {
          "duration": 0.6234375000000227,
          "durationTicks": 798,
          "midi": 48,
          "name": "C3",
          "ticks": 413280,
          "time": 322.875,
          "velocity": 0.11023622047244094
        },
        {
          "duration": 0.6304687499999773,
          "durationTicks": 807,
          "midi": 60,
          "name": "C4",
          "ticks": 413280,
          "time": 322.875,
          "velocity": 0.14173228346456693
        },
        {
          "duration": 0.85546875,
          "durationTicks": 1095,
          "midi": 78,
          "name": "F#5",
          "ticks": 413280,
          "time": 322.875,
          "velocity": 0.31496062992125984
        },
        {
          "duration": 0.28359375000002274,
          "durationTicks": 363,
          "midi": 86,
          "name": "D6",
          "ticks": 413760,
          "time": 323.25,
          "velocity": 0.4015748031496063
        },
        {
          "duration": 0.16093749999998863,
          "durationTicks": 206,
          "midi": 84,
          "name": "C6",
          "ticks": 414240,
          "time": 323.625,
          "velocity": 0.3700787401574803
        },
        {
          "duration": 0.5749999999999886,
          "durationTicks": 736,
          "midi": 74,
          "name": "D5",
          "ticks": 414720,
          "time": 324,
          "velocity": 0.1968503937007874
        },
        {
          "duration": 0.5835937499999773,
          "durationTicks": 747,
          "midi": 77,
          "name": "F5",
          "ticks": 414720,
          "time": 324,
          "velocity": 0.14173228346456693
        },
        {
          "duration": 0.5414062500000227,
          "durationTicks": 693,
          "midi": 83,
          "name": "B5",
          "ticks": 414720,
          "time": 324,
          "velocity": 0.10236220472440945
        },
        {
          "duration": 0.47265625,
          "durationTicks": 605,
          "midi": 47,
          "name": "B2",
          "ticks": 414840,
          "time": 324.09375,
          "velocity": 0.031496062992125984
        },
        {
          "duration": 0.4874999999999545,
          "durationTicks": 624,
          "midi": 59,
          "name": "B3",
          "ticks": 414840,
          "time": 324.09375,
          "velocity": 0.03937007874015748
        },
        {
          "duration": 0.484375,
          "durationTicks": 620,
          "midi": 48,
          "name": "C3",
          "ticks": 416160,
          "time": 325.125,
          "velocity": 0.11811023622047244
        },
        {
          "duration": 0.4757812499999545,
          "durationTicks": 609,
          "midi": 52,
          "name": "E3",
          "ticks": 416160,
          "time": 325.125,
          "velocity": 0.23622047244094488
        },
        {
          "duration": 0.5296875000000227,
          "durationTicks": 678,
          "midi": 58,
          "name": "A#3",
          "ticks": 416160,
          "time": 325.125,
          "velocity": 0.1732283464566929
        },
        {
          "duration": 0.42812500000002274,
          "durationTicks": 548,
          "midi": 70,
          "name": "A#4",
          "ticks": 416160,
          "time": 325.125,
          "velocity": 0.2440944881889764
        },
        {
          "duration": 0.71484375,
          "durationTicks": 915,
          "midi": 73,
          "name": "C#5",
          "ticks": 416160,
          "time": 325.125,
          "velocity": 0.33858267716535434
        },
        {
          "duration": 0.43593750000002274,
          "durationTicks": 558,
          "midi": 76,
          "name": "E5",
          "ticks": 416160,
          "time": 325.125,
          "velocity": 0.4094488188976378
        },
        {
          "duration": 0.19296874999997726,
          "durationTicks": 247,
          "midi": 77,
          "name": "F5",
          "ticks": 416760,
          "time": 325.59375,
          "velocity": 0.16535433070866143
        },
        {
          "duration": 0.11640625000001137,
          "durationTicks": 149,
          "midi": 57,
          "name": "A3",
          "ticks": 418440,
          "time": 326.90625,
          "velocity": 0.41732283464566927
        },
        {
          "duration": 0.16015625,
          "durationTicks": 205,
          "midi": 63,
          "name": "D#4",
          "ticks": 418440,
          "time": 326.90625,
          "velocity": 0.25984251968503935
        },
        {
          "duration": 0.22500000000002274,
          "durationTicks": 288,
          "midi": 69,
          "name": "A4",
          "ticks": 418440,
          "time": 326.90625,
          "velocity": 0.33070866141732286
        },
        {
          "duration": 0.18281249999995453,
          "durationTicks": 234,
          "midi": 74,
          "name": "D5",
          "ticks": 418440,
          "time": 326.90625,
          "velocity": 0.4094488188976378
        },
        {
          "duration": 0.16640625000002274,
          "durationTicks": 213,
          "midi": 77,
          "name": "F5",
          "ticks": 418440,
          "time": 326.90625,
          "velocity": 0.4094488188976378
        },
        {
          "duration": 0.1507812499999659,
          "durationTicks": 193,
          "midi": 81,
          "name": "A5",
          "ticks": 418440,
          "time": 326.90625,
          "velocity": 0.41732283464566927
        },
        {
          "duration": 0.6828125000000114,
          "durationTicks": 874,
          "midi": 57,
          "name": "A3",
          "ticks": 419040,
          "time": 327.375,
          "velocity": 0.1889763779527559
        },
        {
          "duration": 0.6351562500000227,
          "durationTicks": 813,
          "midi": 62,
          "name": "D4",
          "ticks": 419040,
          "time": 327.375,
          "velocity": 0.2125984251968504
        },
        {
          "duration": 0.7218749999999545,
          "durationTicks": 924,
          "midi": 69,
          "name": "A4",
          "ticks": 419040,
          "time": 327.375,
          "velocity": 0.2677165354330709
        },
        {
          "duration": 0.7328125000000227,
          "durationTicks": 938,
          "midi": 72,
          "name": "C5",
          "ticks": 419040,
          "time": 327.375,
          "velocity": 0.25196850393700787
        },
        {
          "duration": 0.7203124999999773,
          "durationTicks": 922,
          "midi": 77,
          "name": "F5",
          "ticks": 419040,
          "time": 327.375,
          "velocity": 0.33070866141732286
        },
        {
          "duration": 0.17109374999995453,
          "durationTicks": 219,
          "midi": 57,
          "name": "A3",
          "ticks": 421200,
          "time": 329.0625,
          "velocity": 0.3543307086614173
        },
        {
          "duration": 0.13437499999997726,
          "durationTicks": 172,
          "midi": 62,
          "name": "D4",
          "ticks": 421200,
          "time": 329.0625,
          "velocity": 0.3779527559055118
        },
        {
          "duration": 0.1328125,
          "durationTicks": 170,
          "midi": 67,
          "name": "G4",
          "ticks": 421200,
          "time": 329.0625,
          "velocity": 0.2440944881889764
        },
        {
          "duration": 0.19453124999995453,
          "durationTicks": 249,
          "midi": 70,
          "name": "A#4",
          "ticks": 421200,
          "time": 329.0625,
          "velocity": 0.4409448818897638
        },
        {
          "duration": 0.17109374999995453,
          "durationTicks": 219,
          "midi": 77,
          "name": "F5",
          "ticks": 421200,
          "time": 329.0625,
          "velocity": 0.5039370078740157
        },
        {
          "duration": 0.19921875,
          "durationTicks": 255,
          "midi": 82,
          "name": "A#5",
          "ticks": 421200,
          "time": 329.0625,
          "velocity": 0.49606299212598426
        },
        {
          "duration": 0.6078124999999659,
          "durationTicks": 778,
          "midi": 55,
          "name": "G3",
          "ticks": 421800,
          "time": 329.53125,
          "velocity": 0.25196850393700787
        },
        {
          "duration": 0.5828124999999886,
          "durationTicks": 746,
          "midi": 69,
          "name": "A4",
          "ticks": 421800,
          "time": 329.53125,
          "velocity": 0.36220472440944884
        },
        {
          "duration": 0.6023437500000455,
          "durationTicks": 771,
          "midi": 77,
          "name": "F5",
          "ticks": 421800,
          "time": 329.53125,
          "velocity": 0.4409448818897638
        },
        {
          "duration": 0.5812499999999545,
          "durationTicks": 744,
          "midi": 81,
          "name": "A5",
          "ticks": 421800,
          "time": 329.53125,
          "velocity": 0.4015748031496063
        },
        {
          "duration": 0.6226562500000341,
          "durationTicks": 797,
          "midi": 61,
          "name": "C#4",
          "ticks": 421920,
          "time": 329.625,
          "velocity": 0.2204724409448819
        },
        {
          "duration": 0.5953124999999773,
          "durationTicks": 762,
          "midi": 65,
          "name": "F4",
          "ticks": 421920,
          "time": 329.625,
          "velocity": 0.18110236220472442
        },
        {
          "duration": 0.08984375,
          "durationTicks": 115,
          "midi": 55,
          "name": "G3",
          "ticks": 423720,
          "time": 331.03125,
          "velocity": 0.15748031496062992
        },
        {
          "duration": 0.07500000000004547,
          "durationTicks": 96,
          "midi": 59,
          "name": "B3",
          "ticks": 423720,
          "time": 331.03125,
          "velocity": 0.15748031496062992
        },
        {
          "duration": 0.08125000000001137,
          "durationTicks": 104,
          "midi": 60,
          "name": "C4",
          "ticks": 423720,
          "time": 331.03125,
          "velocity": 0.15748031496062992
        },
        {
          "duration": 0.08281249999998863,
          "durationTicks": 106,
          "midi": 64,
          "name": "E4",
          "ticks": 423720,
          "time": 331.03125,
          "velocity": 0.047244094488188976
        },
        {
          "duration": 0.11640625000001137,
          "durationTicks": 149,
          "midi": 74,
          "name": "D5",
          "ticks": 423720,
          "time": 331.03125,
          "velocity": 0.14960629921259844
        },
        {
          "duration": 0.11015625000004547,
          "durationTicks": 141,
          "midi": 79,
          "name": "G5",
          "ticks": 423720,
          "time": 331.03125,
          "velocity": 0.2125984251968504
        },
        {
          "duration": 0.12109375,
          "durationTicks": 155,
          "midi": 83,
          "name": "B5",
          "ticks": 423720,
          "time": 331.03125,
          "velocity": 0.2125984251968504
        },
        {
          "duration": 0.125,
          "durationTicks": 160,
          "midi": 86,
          "name": "D6",
          "ticks": 423720,
          "time": 331.03125,
          "velocity": 0.08661417322834646
        },
        {
          "duration": 0.234375,
          "durationTicks": 300,
          "midi": 55,
          "name": "G3",
          "ticks": 424200,
          "time": 331.40625,
          "velocity": 0.3228346456692913
        },
        {
          "duration": 0.2093749999999659,
          "durationTicks": 268,
          "midi": 59,
          "name": "B3",
          "ticks": 424200,
          "time": 331.40625,
          "velocity": 0.29133858267716534
        },
        {
          "duration": 0.21562500000004547,
          "durationTicks": 276,
          "midi": 60,
          "name": "C4",
          "ticks": 424200,
          "time": 331.40625,
          "velocity": 0.28346456692913385
        },
        {
          "duration": 0.21953124999998863,
          "durationTicks": 281,
          "midi": 64,
          "name": "E4",
          "ticks": 424200,
          "time": 331.40625,
          "velocity": 0.2283464566929134
        },
        {
          "duration": 0.2445312499999659,
          "durationTicks": 313,
          "midi": 74,
          "name": "D5",
          "ticks": 424200,
          "time": 331.40625,
          "velocity": 0.4330708661417323
        },
        {
          "duration": 0.24140624999995453,
          "durationTicks": 309,
          "midi": 79,
          "name": "G5",
          "ticks": 424200,
          "time": 331.40625,
          "velocity": 0.4330708661417323
        },
        {
          "duration": 0.2421875,
          "durationTicks": 310,
          "midi": 83,
          "name": "B5",
          "ticks": 424200,
          "time": 331.40625,
          "velocity": 0.44881889763779526
        },
        {
          "duration": 0.23828125,
          "durationTicks": 305,
          "midi": 86,
          "name": "D6",
          "ticks": 424200,
          "time": 331.40625,
          "velocity": 0.5196850393700787
        },
        {
          "duration": 0.0953125000000341,
          "durationTicks": 122,
          "midi": 50,
          "name": "D3",
          "ticks": 425640,
          "time": 332.53125,
          "velocity": 0.36220472440944884
        },
        {
          "duration": 0.11171875000002274,
          "durationTicks": 143,
          "midi": 55,
          "name": "G3",
          "ticks": 425640,
          "time": 332.53125,
          "velocity": 0.2755905511811024
        },
        {
          "duration": 0.140625,
          "durationTicks": 180,
          "midi": 60,
          "name": "C4",
          "ticks": 425640,
          "time": 332.53125,
          "velocity": 0.25984251968503935
        },
        {
          "duration": 0.16171874999997726,
          "durationTicks": 207,
          "midi": 74,
          "name": "D5",
          "ticks": 425640,
          "time": 332.53125,
          "velocity": 0.36220472440944884
        },
        {
          "duration": 0.13828124999997726,
          "durationTicks": 177,
          "midi": 79,
          "name": "G5",
          "ticks": 425640,
          "time": 332.53125,
          "velocity": 0.4330708661417323
        },
        {
          "duration": 0.13125000000002274,
          "durationTicks": 168,
          "midi": 83,
          "name": "B5",
          "ticks": 425640,
          "time": 332.53125,
          "velocity": 0.47244094488188976
        },
        {
          "duration": 0.11171875000002274,
          "durationTicks": 143,
          "midi": 86,
          "name": "D6",
          "ticks": 425640,
          "time": 332.53125,
          "velocity": 0.41732283464566927
        },
        {
          "duration": 0.6070312499999773,
          "durationTicks": 777,
          "midi": 57,
          "name": "A3",
          "ticks": 426240,
          "time": 333,
          "velocity": 0.3779527559055118
        },
        {
          "duration": 0.5968750000000114,
          "durationTicks": 764,
          "midi": 61,
          "name": "C#4",
          "ticks": 426240,
          "time": 333,
          "velocity": 0.2992125984251969
        },
        {
          "duration": 0.5710937499999886,
          "durationTicks": 731,
          "midi": 62,
          "name": "D4",
          "ticks": 426240,
          "time": 333,
          "velocity": 0.33858267716535434
        },
        {
          "duration": 0.6328125,
          "durationTicks": 810,
          "midi": 69,
          "name": "A4",
          "ticks": 426240,
          "time": 333,
          "velocity": 0.47244094488188976
        },
        {
          "duration": 0.6234375000000227,
          "durationTicks": 798,
          "midi": 73,
          "name": "C#5",
          "ticks": 426240,
          "time": 333,
          "velocity": 0.47244094488188976
        },
        {
          "duration": 0.5992187500000341,
          "durationTicks": 767,
          "midi": 76,
          "name": "E5",
          "ticks": 426240,
          "time": 333,
          "velocity": 0.5196850393700787
        },
        {
          "duration": 1.00390625,
          "durationTicks": 1285,
          "midi": 65,
          "name": "F4",
          "ticks": 427440,
          "time": 333.9375,
          "velocity": 0.1732283464566929
        },
        {
          "duration": 0.7687499999999545,
          "durationTicks": 984,
          "midi": 68,
          "name": "G#4",
          "ticks": 427680,
          "time": 334.125,
          "velocity": 0.3700787401574803
        },
        {
          "duration": 0.36953125000002274,
          "durationTicks": 473,
          "midi": 76,
          "name": "E5",
          "ticks": 428040,
          "time": 334.40625,
          "velocity": 0.5196850393700787
        },
        {
          "duration": 0.2125000000000341,
          "durationTicks": 272,
          "midi": 56,
          "name": "G#3",
          "ticks": 428400,
          "time": 334.6875,
          "velocity": 0.2204724409448819
        },
        {
          "duration": 0.2882812499999545,
          "durationTicks": 369,
          "midi": 62,
          "name": "D4",
          "ticks": 428400,
          "time": 334.6875,
          "velocity": 0.2204724409448819
        },
        {
          "duration": 0.19218750000004547,
          "durationTicks": 246,
          "midi": 74,
          "name": "D5",
          "ticks": 428520,
          "time": 334.78125,
          "velocity": 0.33858267716535434
        },
        {
          "duration": 0.22578125000001137,
          "durationTicks": 289,
          "midi": 71,
          "name": "B4",
          "ticks": 428760,
          "time": 334.96875,
          "velocity": 0.29133858267716534
        },
        {
          "duration": 0.39921874999998863,
          "durationTicks": 511,
          "midi": 55,
          "name": "G3",
          "ticks": 429120,
          "time": 335.25,
          "velocity": 0.16535433070866143
        },
        {
          "duration": 0.39218749999997726,
          "durationTicks": 502,
          "midi": 59,
          "name": "B3",
          "ticks": 429120,
          "time": 335.25,
          "velocity": 0.15748031496062992
        },
        {
          "duration": 0.3765625000000341,
          "durationTicks": 482,
          "midi": 60,
          "name": "C4",
          "ticks": 429120,
          "time": 335.25,
          "velocity": 0.14960629921259844
        },
        {
          "duration": 0.44453125000001137,
          "durationTicks": 569,
          "midi": 64,
          "name": "E4",
          "ticks": 429120,
          "time": 335.25,
          "velocity": 0.047244094488188976
        },
        {
          "duration": 0.46562499999998863,
          "durationTicks": 596,
          "midi": 69,
          "name": "A4",
          "ticks": 429120,
          "time": 335.25,
          "velocity": 0.1732283464566929
        },
        {
          "duration": 0.45156250000002274,
          "durationTicks": 578,
          "midi": 72,
          "name": "C5",
          "ticks": 429120,
          "time": 335.25,
          "velocity": 0.14960629921259844
        },
        {
          "duration": 0.32421875,
          "durationTicks": 415,
          "midi": 59,
          "name": "B3",
          "ticks": 429840,
          "time": 335.8125,
          "velocity": 0.2047244094488189
        },
        {
          "duration": 0.3351562499999545,
          "durationTicks": 429,
          "midi": 60,
          "name": "C4",
          "ticks": 429840,
          "time": 335.8125,
          "velocity": 0.28346456692913385
        },
        {
          "duration": 0.30703125000002274,
          "durationTicks": 393,
          "midi": 71,
          "name": "B4",
          "ticks": 429840,
          "time": 335.8125,
          "velocity": 0.4409448818897638
        },
        {
          "duration": 0.33671874999998863,
          "durationTicks": 431,
          "midi": 72,
          "name": "C5",
          "ticks": 429840,
          "time": 335.8125,
          "velocity": 0.4409448818897638
        },
        {
          "duration": 0.6078124999999659,
          "durationTicks": 778,
          "midi": 56,
          "name": "G#3",
          "ticks": 430200,
          "time": 336.09375,
          "velocity": 0.16535433070866143
        },
        {
          "duration": 0.31718749999998863,
          "durationTicks": 406,
          "midi": 68,
          "name": "G#4",
          "ticks": 430200,
          "time": 336.09375,
          "velocity": 0.36220472440944884
        },
        {
          "duration": 0.35468750000001137,
          "durationTicks": 454,
          "midi": 71,
          "name": "B4",
          "ticks": 430560,
          "time": 336.375,
          "velocity": 0.33070866141732286
        },
        {
          "duration": 0.3351562499999545,
          "durationTicks": 429,
          "midi": 69,
          "name": "A4",
          "ticks": 430920,
          "time": 336.65625,
          "velocity": 0.3543307086614173
        },
        {
          "duration": 0.16875000000004547,
          "durationTicks": 216,
          "midi": 55,
          "name": "G3",
          "ticks": 431400,
          "time": 337.03125,
          "velocity": 0.2125984251968504
        },
        {
          "duration": 0.11328125,
          "durationTicks": 145,
          "midi": 59,
          "name": "B3",
          "ticks": 431400,
          "time": 337.03125,
          "velocity": 0.2125984251968504
        },
        {
          "duration": 0.38437499999997726,
          "durationTicks": 492,
          "midi": 60,
          "name": "C4",
          "ticks": 431400,
          "time": 337.03125,
          "velocity": 0.1732283464566929
        },
        {
          "duration": 0.14999999999997726,
          "durationTicks": 192,
          "midi": 64,
          "name": "E4",
          "ticks": 431400,
          "time": 337.03125,
          "velocity": 0.2047244094488189
        },
        {
          "duration": 0.1656250000000341,
          "durationTicks": 212,
          "midi": 63,
          "name": "D#4",
          "ticks": 431760,
          "time": 337.3125,
          "velocity": 0.2755905511811024
        },
        {
          "duration": 0.6710937500000114,
          "durationTicks": 859,
          "midi": 53,
          "name": "F3",
          "ticks": 432000,
          "time": 337.5,
          "velocity": 0.2047244094488189
        },
        {
          "duration": 0.6609375000000455,
          "durationTicks": 846,
          "midi": 57,
          "name": "A3",
          "ticks": 432000,
          "time": 337.5,
          "velocity": 0.14173228346456693
        },
        {
          "duration": 0.6882812499999886,
          "durationTicks": 881,
          "midi": 58,
          "name": "A#3",
          "ticks": 432000,
          "time": 337.5,
          "velocity": 0.10236220472440945
        },
        {
          "duration": 0.5906250000000455,
          "durationTicks": 756,
          "midi": 60,
          "name": "C4",
          "ticks": 432000,
          "time": 337.5,
          "velocity": 0.09448818897637795
        },
        {
          "duration": 0.6187499999999773,
          "durationTicks": 792,
          "midi": 62,
          "name": "D4",
          "ticks": 432000,
          "time": 337.5,
          "velocity": 0.23622047244094488
        },
        {
          "duration": 0.12421874999995453,
          "durationTicks": 159,
          "midi": 51,
          "name": "D#3",
          "ticks": 434280,
          "time": 339.28125,
          "velocity": 0.2755905511811024
        },
        {
          "duration": 0.11249999999995453,
          "durationTicks": 144,
          "midi": 60,
          "name": "C4",
          "ticks": 434280,
          "time": 339.28125,
          "velocity": 0.25984251968503935
        },
        {
          "duration": 0.20234375000001137,
          "durationTicks": 259,
          "midi": 61,
          "name": "C#4",
          "ticks": 434280,
          "time": 339.28125,
          "velocity": 0.36220472440944884
        },
        {
          "duration": 0.19062500000001137,
          "durationTicks": 244,
          "midi": 65,
          "name": "F4",
          "ticks": 434280,
          "time": 339.28125,
          "velocity": 0.4330708661417323
        },
        {
          "duration": 0.16328125000001137,
          "durationTicks": 209,
          "midi": 69,
          "name": "A4",
          "ticks": 434280,
          "time": 339.28125,
          "velocity": 0.4566929133858268
        },
        {
          "duration": 0.1976562499999659,
          "durationTicks": 253,
          "midi": 72,
          "name": "C5",
          "ticks": 434280,
          "time": 339.28125,
          "velocity": 0.4330708661417323
        },
        {
          "duration": 0.40703124999998863,
          "durationTicks": 521,
          "midi": 55,
          "name": "G3",
          "ticks": 434880,
          "time": 339.75,
          "velocity": 0.15748031496062992
        },
        {
          "duration": 0.40703124999998863,
          "durationTicks": 521,
          "midi": 59,
          "name": "B3",
          "ticks": 434880,
          "time": 339.75,
          "velocity": 0.14960629921259844
        },
        {
          "duration": 0.47421874999997726,
          "durationTicks": 607,
          "midi": 60,
          "name": "C4",
          "ticks": 434880,
          "time": 339.75,
          "velocity": 0.1968503937007874
        },
        {
          "duration": 0.45625000000001137,
          "durationTicks": 584,
          "midi": 64,
          "name": "E4",
          "ticks": 434880,
          "time": 339.75,
          "velocity": 0.1889763779527559
        },
        {
          "duration": 0.43437499999998863,
          "durationTicks": 556,
          "midi": 69,
          "name": "A4",
          "ticks": 434880,
          "time": 339.75,
          "velocity": 0.2755905511811024
        },
        {
          "duration": 0.09140624999997726,
          "durationTicks": 117,
          "midi": 55,
          "name": "G3",
          "ticks": 435720,
          "time": 340.40625,
          "velocity": 0.29133858267716534
        },
        {
          "duration": 0.06406249999997726,
          "durationTicks": 82,
          "midi": 59,
          "name": "B3",
          "ticks": 435720,
          "time": 340.40625,
          "velocity": 0.1889763779527559
        },
        {
          "duration": 0.11328125,
          "durationTicks": 145,
          "midi": 60,
          "name": "C4",
          "ticks": 435720,
          "time": 340.40625,
          "velocity": 0.28346456692913385
        },
        {
          "duration": 0.0835937500000341,
          "durationTicks": 107,
          "midi": 64,
          "name": "E4",
          "ticks": 435720,
          "time": 340.40625,
          "velocity": 0.3228346456692913
        },
        {
          "duration": 0.0859375,
          "durationTicks": 110,
          "midi": 69,
          "name": "A4",
          "ticks": 435720,
          "time": 340.40625,
          "velocity": 0.31496062992125984
        },
        {
          "duration": 0.34843749999998863,
          "durationTicks": 446,
          "midi": 56,
          "name": "G#3",
          "ticks": 436320,
          "time": 340.875,
          "velocity": 0.15748031496062992
        },
        {
          "duration": 0.3617187499999659,
          "durationTicks": 463,
          "midi": 59,
          "name": "B3",
          "ticks": 436320,
          "time": 340.875,
          "velocity": 0.2047244094488189
        },
        {
          "duration": 0.36406249999998863,
          "durationTicks": 466,
          "midi": 62,
          "name": "D4",
          "ticks": 436320,
          "time": 340.875,
          "velocity": 0.2204724409448819
        },
        {
          "duration": 0.37578124999998863,
          "durationTicks": 481,
          "midi": 67,
          "name": "G4",
          "ticks": 436320,
          "time": 340.875,
          "velocity": 0.2047244094488189
        },
        {
          "duration": 0.0859375,
          "durationTicks": 110,
          "midi": 56,
          "name": "G#3",
          "ticks": 437160,
          "time": 341.53125,
          "velocity": 0.25984251968503935
        },
        {
          "duration": 0.1156249999999659,
          "durationTicks": 148,
          "midi": 59,
          "name": "B3",
          "ticks": 437160,
          "time": 341.53125,
          "velocity": 0.25984251968503935
        },
        {
          "duration": 0.1070312500000341,
          "durationTicks": 137,
          "midi": 62,
          "name": "D4",
          "ticks": 437160,
          "time": 341.53125,
          "velocity": 0.28346456692913385
        },
        {
          "duration": 0.12343750000002274,
          "durationTicks": 158,
          "midi": 67,
          "name": "G4",
          "ticks": 437160,
          "time": 341.53125,
          "velocity": 0.25196850393700787
        },
        {
          "duration": 0.32421875,
          "durationTicks": 415,
          "midi": 45,
          "name": "A2",
          "ticks": 437760,
          "time": 342,
          "velocity": 0.09448818897637795
        },
        {
          "duration": 0.35703124999997726,
          "durationTicks": 457,
          "midi": 52,
          "name": "E3",
          "ticks": 437760,
          "time": 342,
          "velocity": 0.07086614173228346
        },
        {
          "duration": 0.35390625000002274,
          "durationTicks": 453,
          "midi": 55,
          "name": "G3",
          "ticks": 437760,
          "time": 342,
          "velocity": 0.07874015748031496
        },
        {
          "duration": 0.31875000000002274,
          "durationTicks": 408,
          "midi": 59,
          "name": "B3",
          "ticks": 437760,
          "time": 342,
          "velocity": 0.2125984251968504
        },
        {
          "duration": 0.3828125,
          "durationTicks": 490,
          "midi": 60,
          "name": "C4",
          "ticks": 437760,
          "time": 342,
          "velocity": 0.15748031496062992
        },
        {
          "duration": 0.4000000000000341,
          "durationTicks": 512,
          "midi": 64,
          "name": "E4",
          "ticks": 437760,
          "time": 342,
          "velocity": 0.16535433070866143
        },
        {
          "duration": 0.1187500000000341,
          "durationTicks": 152,
          "midi": 56,
          "name": "G#3",
          "ticks": 439920,
          "time": 343.6875,
          "velocity": 0.18110236220472442
        },
        {
          "duration": 0.08125000000001137,
          "durationTicks": 104,
          "midi": 62,
          "name": "D4",
          "ticks": 439920,
          "time": 343.6875,
          "velocity": 0.25984251968503935
        },
        {
          "duration": 0.1015625,
          "durationTicks": 130,
          "midi": 65,
          "name": "F4",
          "ticks": 439920,
          "time": 343.6875,
          "velocity": 0.14173228346456693
        },
        {
          "duration": 0.1187500000000341,
          "durationTicks": 152,
          "midi": 71,
          "name": "B4",
          "ticks": 439920,
          "time": 343.6875,
          "velocity": 0.2677165354330709
        },
        {
          "duration": 0.1187500000000341,
          "durationTicks": 152,
          "midi": 74,
          "name": "D5",
          "ticks": 439920,
          "time": 343.6875,
          "velocity": 0.31496062992125984
        },
        {
          "duration": 0.1304687500000341,
          "durationTicks": 167,
          "midi": 77,
          "name": "F5",
          "ticks": 439920,
          "time": 343.6875,
          "velocity": 0.28346456692913385
        },
        {
          "duration": 0.53125,
          "durationTicks": 680,
          "midi": 57,
          "name": "A3",
          "ticks": 440520,
          "time": 344.15625,
          "velocity": 0.1889763779527559
        },
        {
          "duration": 0.5374999999999659,
          "durationTicks": 688,
          "midi": 58,
          "name": "A#3",
          "ticks": 440520,
          "time": 344.15625,
          "velocity": 0.13385826771653545
        },
        {
          "duration": 0.5124999999999886,
          "durationTicks": 656,
          "midi": 62,
          "name": "D4",
          "ticks": 440520,
          "time": 344.15625,
          "velocity": 0.11811023622047244
        },
        {
          "duration": 0.5609374999999659,
          "durationTicks": 718,
          "midi": 74,
          "name": "D5",
          "ticks": 440520,
          "time": 344.15625,
          "velocity": 0.1968503937007874
        },
        {
          "duration": 0.5070312500000114,
          "durationTicks": 649,
          "midi": 81,
          "name": "A5",
          "ticks": 440520,
          "time": 344.15625,
          "velocity": 0.2047244094488189
        },
        {
          "duration": 0.5054687500000341,
          "durationTicks": 647,
          "midi": 82,
          "name": "A#5",
          "ticks": 440520,
          "time": 344.15625,
          "velocity": 0.25984251968503935
        },
        {
          "duration": 0.4874999999999545,
          "durationTicks": 624,
          "midi": 86,
          "name": "D6",
          "ticks": 440520,
          "time": 344.15625,
          "velocity": 0.29133858267716534
        },
        {
          "duration": 0.54296875,
          "durationTicks": 695,
          "midi": 53,
          "name": "F3",
          "ticks": 440640,
          "time": 344.25,
          "velocity": 0.15748031496062992
        },
        {
          "duration": 0.56640625,
          "durationTicks": 725,
          "midi": 52,
          "name": "E3",
          "ticks": 442080,
          "time": 345.375,
          "velocity": 0.2755905511811024
        },
        {
          "duration": 0.5484374999999773,
          "durationTicks": 702,
          "midi": 58,
          "name": "A#3",
          "ticks": 442080,
          "time": 345.375,
          "velocity": 0.09448818897637795
        },
        {
          "duration": 0.515625,
          "durationTicks": 660,
          "midi": 62,
          "name": "D4",
          "ticks": 442080,
          "time": 345.375,
          "velocity": 0.13385826771653545
        },
        {
          "duration": 0.5187500000000114,
          "durationTicks": 664,
          "midi": 70,
          "name": "A#4",
          "ticks": 442080,
          "time": 345.375,
          "velocity": 0.2440944881889764
        },
        {
          "duration": 0.5421875000000114,
          "durationTicks": 694,
          "midi": 73,
          "name": "C#5",
          "ticks": 442080,
          "time": 345.375,
          "velocity": 0.25196850393700787
        },
        {
          "duration": 0.5476562499999886,
          "durationTicks": 701,
          "midi": 76,
          "name": "E5",
          "ticks": 442080,
          "time": 345.375,
          "velocity": 0.23622047244094488
        },
        {
          "duration": 1.2703125000000455,
          "durationTicks": 1626,
          "midi": 53,
          "name": "F3",
          "ticks": 443520,
          "time": 346.5,
          "velocity": 0.03937007874015748
        },
        {
          "duration": 1.2914062500000227,
          "durationTicks": 1653,
          "midi": 57,
          "name": "A3",
          "ticks": 443520,
          "time": 346.5,
          "velocity": 0.2125984251968504
        },
        {
          "duration": 1.2882812500000114,
          "durationTicks": 1649,
          "midi": 62,
          "name": "D4",
          "ticks": 443520,
          "time": 346.5,
          "velocity": 0.2125984251968504
        },
        {
          "duration": 1.2062500000000114,
          "durationTicks": 1544,
          "midi": 67,
          "name": "G4",
          "ticks": 443520,
          "time": 346.5,
          "velocity": 0.14173228346456693
        },
        {
          "duration": 1.2164062499999773,
          "durationTicks": 1557,
          "midi": 72,
          "name": "C5",
          "ticks": 443520,
          "time": 346.5,
          "velocity": 0.2125984251968504
        },
        {
          "duration": 1.240624999999966,
          "durationTicks": 1588,
          "midi": 76,
          "name": "E5",
          "ticks": 443520,
          "time": 346.5,
          "velocity": 0.18110236220472442
        },
        {
          "duration": 0.15703125000004547,
          "durationTicks": 201,
          "midi": 58,
          "name": "A#3",
          "ticks": 445800,
          "time": 348.28125,
          "velocity": 0.2047244094488189
        },
        {
          "duration": 0.1624999999999659,
          "durationTicks": 208,
          "midi": 63,
          "name": "D#4",
          "ticks": 445800,
          "time": 348.28125,
          "velocity": 0.16535433070866143
        },
        {
          "duration": 0.20859374999997726,
          "durationTicks": 267,
          "midi": 68,
          "name": "G#4",
          "ticks": 445800,
          "time": 348.28125,
          "velocity": 0.2204724409448819
        },
        {
          "duration": 0.2265625,
          "durationTicks": 290,
          "midi": 73,
          "name": "C#5",
          "ticks": 445800,
          "time": 348.28125,
          "velocity": 0.2440944881889764
        },
        {
          "duration": 0.2265625,
          "durationTicks": 290,
          "midi": 77,
          "name": "F5",
          "ticks": 445800,
          "time": 348.28125,
          "velocity": 0.3779527559055118
        },
        {
          "duration": 0.26093750000001137,
          "durationTicks": 334,
          "midi": 58,
          "name": "A#3",
          "ticks": 446160,
          "time": 348.5625,
          "velocity": 0.2677165354330709
        },
        {
          "duration": 0.26093750000001137,
          "durationTicks": 334,
          "midi": 63,
          "name": "D#4",
          "ticks": 446160,
          "time": 348.5625,
          "velocity": 0.2283464566929134
        },
        {
          "duration": 0.21640624999997726,
          "durationTicks": 277,
          "midi": 68,
          "name": "G#4",
          "ticks": 446160,
          "time": 348.5625,
          "velocity": 0.2677165354330709
        },
        {
          "duration": 0.26328124999997726,
          "durationTicks": 337,
          "midi": 73,
          "name": "C#5",
          "ticks": 446160,
          "time": 348.5625,
          "velocity": 0.4094488188976378
        },
        {
          "duration": 0.23828125,
          "durationTicks": 305,
          "midi": 77,
          "name": "F5",
          "ticks": 446160,
          "time": 348.5625,
          "velocity": 0.4094488188976378
        },
        {
          "duration": 3.9679687499999545,
          "durationTicks": 5079,
          "midi": 53,
          "name": "F3",
          "ticks": 446520,
          "time": 348.84375,
          "velocity": 0.09448818897637795
        },
        {
          "duration": 3.96875,
          "durationTicks": 5080,
          "midi": 57,
          "name": "A3",
          "ticks": 446520,
          "time": 348.84375,
          "velocity": 0.18110236220472442
        },
        {
          "duration": 3.9328124999999545,
          "durationTicks": 5034,
          "midi": 62,
          "name": "D4",
          "ticks": 446520,
          "time": 348.84375,
          "velocity": 0.1889763779527559
        },
        {
          "duration": 3.9656250000000455,
          "durationTicks": 5076,
          "midi": 67,
          "name": "G4",
          "ticks": 446520,
          "time": 348.84375,
          "velocity": 0.33858267716535434
        },
        {
          "duration": 3.962500000000034,
          "durationTicks": 5072,
          "midi": 72,
          "name": "C5",
          "ticks": 446520,
          "time": 348.84375,
          "velocity": 0.3937007874015748
        },
        {
          "duration": 4.041406249999966,
          "durationTicks": 5173,
          "midi": 76,
          "name": "E5",
          "ticks": 446520,
          "time": 348.84375,
          "velocity": 0.18110236220472442
        },
        {
          "duration": 4.018750000000011,
          "durationTicks": 5144,
          "midi": 79,
          "name": "G5",
          "ticks": 446520,
          "time": 348.84375,
          "velocity": 0.047244094488188976
        }
      ],
      "endOfTrackTicks": 452160
    },
    {
      "channel": 0,
      "controlChanges": {},
      "pitchBends": [],
      "instrument": {
        "family": "piano",
        "number": 0,
        "name": "acoustic grand piano"
      },
      "name": "Johnson (bass)",
      "notes": [],
      "endOfTrackTicks": 450720
    },
    {
      "channel": 1,
      "controlChanges": {
        "7": [
          {
            "number": 7,
            "ticks": 0,
            "time": 0,
            "value": 0.8661417322834646
          }
        ],
        "10": [
          {
            "number": 10,
            "ticks": 0,
            "time": 0,
            "value": 0.5039370078740157
          }
        ],
        "64": [
          {
            "number": 64,
            "ticks": 219852,
            "time": 171.75937499999998,
            "value": 1
          },
          {
            "number": 64,
            "ticks": 220429,
            "time": 172.21015625,
            "value": 0
          },
          {
            "number": 64,
            "ticks": 221342,
            "time": 172.9234375,
            "value": 1
          },
          {
            "number": 64,
            "ticks": 221682,
            "time": 173.18906249999998,
            "value": 0
          }
        ],
        "91": [
          {
            "number": 91,
            "ticks": 0,
            "time": 0,
            "value": 0.31496062992125984
          }
        ],
        "93": [
          {
            "number": 93,
            "ticks": 0,
            "time": 0,
            "value": 0.15748031496062992
          }
        ]
      },
      "pitchBends": [],
      "instrument": {
        "family": "bass",
        "number": 32,
        "name": "acoustic bass"
      },
      "name": "",
      "notes": [
        {
          "duration": 0.8742187499999999,
          "durationTicks": 1119,
          "midi": 53,
          "name": "F3",
          "ticks": 0,
          "time": 0,
          "velocity": 0.4251968503937008
        },
        {
          "duration": 0.08203125,
          "durationTicks": 105,
          "midi": 52,
          "name": "E3",
          "ticks": 1080,
          "time": 0.84375,
          "velocity": 0.33858267716535434
        },
        {
          "duration": 0.10703125000000013,
          "durationTicks": 137,
          "midi": 51,
          "name": "D#3",
          "ticks": 1200,
          "time": 0.9375,
          "velocity": 0.4251968503937008
        },
        {
          "duration": 0.6046874999999998,
          "durationTicks": 774,
          "midi": 50,
          "name": "D3",
          "ticks": 1440,
          "time": 1.125,
          "velocity": 0.5118110236220472
        },
        {
          "duration": 0.5031249999999998,
          "durationTicks": 644,
          "midi": 44,
          "name": "G#2",
          "ticks": 2160,
          "time": 1.6875,
          "velocity": 0.44881889763779526
        },
        {
          "duration": 0.5984375000000002,
          "durationTicks": 766,
          "midi": 43,
          "name": "G2",
          "ticks": 2880,
          "time": 2.25,
          "velocity": 0.3937007874015748
        },
        {
          "duration": 0.2898437500000002,
          "durationTicks": 371,
          "midi": 42,
          "name": "F#2",
          "ticks": 3600,
          "time": 2.8125,
          "velocity": 0.44881889763779526
        },
        {
          "duration": 0.26171875,
          "durationTicks": 335,
          "midi": 41,
          "name": "F2",
          "ticks": 3960,
          "time": 3.09375,
          "velocity": 0.4251968503937008
        },
        {
          "duration": 1.0867187500000002,
          "durationTicks": 1391,
          "midi": 40,
          "name": "E2",
          "ticks": 4320,
          "time": 3.375,
          "velocity": 0.44881889763779526
        },
        {
          "duration": 1.1203125000000007,
          "durationTicks": 1434,
          "midi": 49,
          "name": "C#3",
          "ticks": 5760,
          "time": 4.5,
          "velocity": 0.5118110236220472
        },
        {
          "duration": 1.1039062500000005,
          "durationTicks": 1413,
          "midi": 48,
          "name": "C3",
          "ticks": 7200,
          "time": 5.625,
          "velocity": 0.44881889763779526
        },
        {
          "duration": 0.9265625000000011,
          "durationTicks": 1186,
          "midi": 47,
          "name": "B2",
          "ticks": 8640,
          "time": 6.75,
          "velocity": 0.44881889763779526
        },
        {
          "duration": 0.11093750000000036,
          "durationTicks": 142,
          "midi": 47,
          "name": "B2",
          "ticks": 9960,
          "time": 7.78125,
          "velocity": 0.33858267716535434
        },
        {
          "duration": 0.5914062500000004,
          "durationTicks": 757,
          "midi": 48,
          "name": "C3",
          "ticks": 10080,
          "time": 7.875,
          "velocity": 0.5118110236220472
        },
        {
          "duration": 0.5007812499999993,
          "durationTicks": 641,
          "midi": 40,
          "name": "E2",
          "ticks": 10920,
          "time": 8.53125,
          "velocity": 0.44881889763779526
        },
        {
          "duration": 0.6062499999999993,
          "durationTicks": 776,
          "midi": 41,
          "name": "F2",
          "ticks": 11520,
          "time": 9,
          "velocity": 0.44881889763779526
        },
        {
          "duration": 0.24687500000000107,
          "durationTicks": 316,
          "midi": 48,
          "name": "C3",
          "ticks": 12360,
          "time": 9.65625,
          "velocity": 0.44881889763779526
        },
        {
          "duration": 0.2390624999999993,
          "durationTicks": 306,
          "midi": 47,
          "name": "B2",
          "ticks": 12600,
          "time": 9.84375,
          "velocity": 0.44881889763779526
        },
        {
          "duration": 0.8453125000000004,
          "durationTicks": 1082,
          "midi": 46,
          "name": "A#2",
          "ticks": 12960,
          "time": 10.125,
          "velocity": 0.4251968503937008
        },
        {
          "duration": 0.12109375,
          "durationTicks": 155,
          "midi": 45,
          "name": "A2",
          "ticks": 14040,
          "time": 10.96875,
          "velocity": 0.2047244094488189
        },
        {
          "duration": 0.12343749999999964,
          "durationTicks": 158,
          "midi": 44,
          "name": "G#2",
          "ticks": 14160,
          "time": 11.0625,
          "velocity": 0.44881889763779526
        },
        {
          "duration": 0.6023437499999993,
          "durationTicks": 771,
          "midi": 43,
          "name": "G2",
          "ticks": 14400,
          "time": 11.25,
          "velocity": 0.5118110236220472
        },
        {
          "duration": 0.5,
          "durationTicks": 640,
          "midi": 37,
          "name": "C#2",
          "ticks": 15120,
          "time": 11.8125,
          "velocity": 0.5118110236220472
        },
        {
          "duration": 0.6156249999999996,
          "durationTicks": 788,
          "midi": 36,
          "name": "C2",
          "ticks": 15840,
          "time": 12.375,
          "velocity": 0.44881889763779526
        },
        {
          "duration": 0.5171875000000021,
          "durationTicks": 662,
          "midi": 46,
          "name": "A#2",
          "ticks": 16680,
          "time": 13.03125,
          "velocity": 0.5748031496062992
        },
        {
          "duration": 0.5882812500000014,
          "durationTicks": 753,
          "midi": 45,
          "name": "A2",
          "ticks": 17280,
          "time": 13.5,
          "velocity": 0.5118110236220472
        },
        {
          "duration": 0.4796875000000007,
          "durationTicks": 614,
          "midi": 39,
          "name": "D#2",
          "ticks": 18120,
          "time": 14.15625,
          "velocity": 0.5748031496062992
        },
        {
          "duration": 0.3742187500000007,
          "durationTicks": 479,
          "midi": 38,
          "name": "D2",
          "ticks": 18720,
          "time": 14.625,
          "velocity": 0.44881889763779526
        },
        {
          "duration": 0.3609374999999986,
          "durationTicks": 462,
          "midi": 45,
          "name": "A2",
          "ticks": 19200,
          "time": 15,
          "velocity": 0.5118110236220472
        },
        {
          "duration": 0.3718749999999993,
          "durationTicks": 476,
          "midi": 44,
          "name": "G#2",
          "ticks": 19680,
          "time": 15.375,
          "velocity": 0.5118110236220472
        },
        {
          "duration": 0.37343749999999787,
          "durationTicks": 478,
          "midi": 43,
          "name": "G2",
          "ticks": 20160,
          "time": 15.75,
          "velocity": 0.44881889763779526
        },
        {
          "duration": 0.10312499999999858,
          "durationTicks": 132,
          "midi": 50,
          "name": "D3",
          "ticks": 21000,
          "time": 16.40625,
          "velocity": 0.6377952755905512
        },
        {
          "duration": 0.3406249999999993,
          "durationTicks": 436,
          "midi": 49,
          "name": "C#3",
          "ticks": 21120,
          "time": 16.5,
          "velocity": 0.3937007874015748
        },
        {
          "duration": 0.5679687499999986,
          "durationTicks": 727,
          "midi": 48,
          "name": "C3",
          "ticks": 21600,
          "time": 16.875,
          "velocity": 0.44881889763779526
        },
        {
          "duration": 0.4929687499999993,
          "durationTicks": 631,
          "midi": 40,
          "name": "E2",
          "ticks": 22320,
          "time": 17.4375,
          "velocity": 0.4251968503937008
        },
        {
          "duration": 0.6164062499999972,
          "durationTicks": 789,
          "midi": 41,
          "name": "F2",
          "ticks": 22920,
          "time": 17.90625,
          "velocity": 0.44881889763779526
        },
        {
          "duration": 0.22500000000000142,
          "durationTicks": 288,
          "midi": 48,
          "name": "C3",
          "ticks": 23760,
          "time": 18.5625,
          "velocity": 0.5748031496062992
        },
        {
          "duration": 0.23203124999999858,
          "durationTicks": 297,
          "midi": 49,
          "name": "C#3",
          "ticks": 24120,
          "time": 18.84375,
          "velocity": 0.5118110236220472
        },
        {
          "duration": 0.5859375,
          "durationTicks": 750,
          "midi": 50,
          "name": "D3",
          "ticks": 24480,
          "time": 19.125,
          "velocity": 0.44881889763779526
        },
        {
          "duration": 0.2312499999999993,
          "durationTicks": 296,
          "midi": 57,
          "name": "A3",
          "ticks": 25200,
          "time": 19.6875,
          "velocity": 0.44881889763779526
        },
        {
          "duration": 0.2492187500000007,
          "durationTicks": 319,
          "midi": 56,
          "name": "G#3",
          "ticks": 25560,
          "time": 19.96875,
          "velocity": 0.3937007874015748
        },
        {
          "duration": 0.9898437499999986,
          "durationTicks": 1267,
          "midi": 55,
          "name": "G3",
          "ticks": 25920,
          "time": 20.25,
          "velocity": 0.4251968503937008
        },
        {
          "duration": 0.11796874999999929,
          "durationTicks": 151,
          "midi": 51,
          "name": "D#3",
          "ticks": 27240,
          "time": 21.28125,
          "velocity": 0.4251968503937008
        },
        {
          "duration": 0.8742187499999972,
          "durationTicks": 1119,
          "midi": 52,
          "name": "E3",
          "ticks": 27360,
          "time": 21.375,
          "velocity": 0.3937007874015748
        },
        {
          "duration": 0.10468750000000071,
          "durationTicks": 134,
          "midi": 51,
          "name": "D#3",
          "ticks": 28440,
          "time": 22.21875,
          "velocity": 0.36220472440944884
        },
        {
          "duration": 0.12421874999999716,
          "durationTicks": 159,
          "midi": 50,
          "name": "D3",
          "ticks": 28680,
          "time": 22.40625,
          "velocity": 0.4251968503937008
        },
        {
          "duration": 1.11328125,
          "durationTicks": 1425,
          "midi": 49,
          "name": "C#3",
          "ticks": 28800,
          "time": 22.5,
          "velocity": 0.44881889763779526
        },
        {
          "duration": 1.1039062499999979,
          "durationTicks": 1413,
          "midi": 48,
          "name": "C3",
          "ticks": 30240,
          "time": 23.625,
          "velocity": 0.3937007874015748
        },
        {
          "duration": 0.57421875,
          "durationTicks": 735,
          "midi": 47,
          "name": "B2",
          "ticks": 31680,
          "time": 24.75,
          "velocity": 0.44881889763779526
        },
        {
          "duration": 0.5187500000000043,
          "durationTicks": 664,
          "midi": 47,
          "name": "B2",
          "ticks": 32400,
          "time": 25.3125,
          "velocity": 0.44881889763779526
        },
        {
          "duration": 1.1390624999999979,
          "durationTicks": 1458,
          "midi": 48,
          "name": "C3",
          "ticks": 33120,
          "time": 25.875,
          "velocity": 0.44881889763779526
        },
        {
          "duration": 1.1140624999999993,
          "durationTicks": 1426,
          "midi": 41,
          "name": "F2",
          "ticks": 34560,
          "time": 27,
          "velocity": 0.3937007874015748
        },
        {
          "duration": 1.12890625,
          "durationTicks": 1445,
          "midi": 46,
          "name": "A#2",
          "ticks": 36000,
          "time": 28.125,
          "velocity": 0.5118110236220472
        },
        {
          "duration": 0.5749999999999993,
          "durationTicks": 736,
          "midi": 47,
          "name": "B2",
          "ticks": 37440,
          "time": 29.25,
          "velocity": 0.44881889763779526
        },
        {
          "duration": 0.5304687500000043,
          "durationTicks": 679,
          "midi": 47,
          "name": "B2",
          "ticks": 38280,
          "time": 29.90625,
          "velocity": 0.44881889763779526
        },
        {
          "duration": 1.0960937500000014,
          "durationTicks": 1403,
          "midi": 40,
          "name": "E2",
          "ticks": 38880,
          "time": 30.375,
          "velocity": 0.5118110236220472
        },
        {
          "duration": 1.0882812500000014,
          "durationTicks": 1393,
          "midi": 37,
          "name": "C#2",
          "ticks": 40320,
          "time": 31.5,
          "velocity": 0.3937007874015748
        },
        {
          "duration": 1.1937500000000014,
          "durationTicks": 1528,
          "midi": 47,
          "name": "B2",
          "ticks": 41760,
          "time": 32.625,
          "velocity": 0.5748031496062992
        },
        {
          "duration": 1.0828125000000028,
          "durationTicks": 1386,
          "midi": 45,
          "name": "A2",
          "ticks": 43200,
          "time": 33.75,
          "velocity": 0.4251968503937008
        },
        {
          "duration": 1.1171875,
          "durationTicks": 1430,
          "midi": 44,
          "name": "G#2",
          "ticks": 44640,
          "time": 34.875,
          "velocity": 0.44881889763779526
        },
        {
          "duration": 0.9835937499999972,
          "durationTicks": 1259,
          "midi": 43,
          "name": "G2",
          "ticks": 46080,
          "time": 36,
          "velocity": 0.44881889763779526
        },
        {
          "duration": 0.12734375000000142,
          "durationTicks": 163,
          "midi": 50,
          "name": "D3",
          "ticks": 47400,
          "time": 37.03125,
          "velocity": 0.5748031496062992
        },
        {
          "duration": 0.8562500000000028,
          "durationTicks": 1096,
          "midi": 48,
          "name": "C3",
          "ticks": 47520,
          "time": 37.125,
          "velocity": 0.5748031496062992
        },
        {
          "duration": 0.07343750000000426,
          "durationTicks": 94,
          "midi": 47,
          "name": "B2",
          "ticks": 48600,
          "time": 37.96875,
          "velocity": 0.36220472440944884
        },
        {
          "duration": 0.11796875000000284,
          "durationTicks": 151,
          "midi": 46,
          "name": "A#2",
          "ticks": 48720,
          "time": 38.0625,
          "velocity": 0.4251968503937008
        },
        {
          "duration": 0.6273437500000014,
          "durationTicks": 803,
          "midi": 45,
          "name": "A2",
          "ticks": 48960,
          "time": 38.25,
          "velocity": 0.5118110236220472
        },
        {
          "duration": 0.48359375000000426,
          "durationTicks": 619,
          "midi": 39,
          "name": "D#2",
          "ticks": 49800,
          "time": 38.90625,
          "velocity": 0.5748031496062992
        },
        {
          "duration": 0.37031249999999716,
          "durationTicks": 474,
          "midi": 38,
          "name": "D2",
          "ticks": 50400,
          "time": 39.375,
          "velocity": 0.44881889763779526
        },
        {
          "duration": 0.37187499999999574,
          "durationTicks": 476,
          "midi": 45,
          "name": "A2",
          "ticks": 50880,
          "time": 39.75,
          "velocity": 0.5118110236220472
        },
        {
          "duration": 0.35078124999999716,
          "durationTicks": 449,
          "midi": 44,
          "name": "G#2",
          "ticks": 51360,
          "time": 40.125,
          "velocity": 0.5118110236220472
        },
        {
          "duration": 0.9749999999999943,
          "durationTicks": 1248,
          "midi": 43,
          "name": "G2",
          "ticks": 51840,
          "time": 40.5,
          "velocity": 0.44881889763779526
        },
        {
          "duration": 0.10703124999999858,
          "durationTicks": 137,
          "midi": 44,
          "name": "G#2",
          "ticks": 53160,
          "time": 41.53125,
          "velocity": 0.33858267716535434
        },
        {
          "duration": 0.6734374999999986,
          "durationTicks": 862,
          "midi": 45,
          "name": "A2",
          "ticks": 53280,
          "time": 41.625,
          "velocity": 0.5748031496062992
        },
        {
          "duration": 0.5054687499999986,
          "durationTicks": 647,
          "midi": 51,
          "name": "D#3",
          "ticks": 54120,
          "time": 42.28125,
          "velocity": 0.5118110236220472
        },
        {
          "duration": 1.0929687500000043,
          "durationTicks": 1399,
          "midi": 50,
          "name": "D3",
          "ticks": 54720,
          "time": 42.75,
          "velocity": 0.5118110236220472
        },
        {
          "duration": 0.9601562499999972,
          "durationTicks": 1229,
          "midi": 41,
          "name": "F2",
          "ticks": 56160,
          "time": 43.875,
          "velocity": 0.44881889763779526
        },
        {
          "duration": 0.11562500000000142,
          "durationTicks": 148,
          "midi": 41,
          "name": "F2",
          "ticks": 57480,
          "time": 44.90625,
          "velocity": 0.3937007874015748
        },
        {
          "duration": 0.5882812499999943,
          "durationTicks": 753,
          "midi": 46,
          "name": "A#2",
          "ticks": 57600,
          "time": 45,
          "velocity": 0.5118110236220472
        },
        {
          "duration": 0.2906250000000057,
          "durationTicks": 372,
          "midi": 53,
          "name": "F3",
          "ticks": 58320,
          "time": 45.5625,
          "velocity": 0.5118110236220472
        },
        {
          "duration": 0.25312499999999716,
          "durationTicks": 324,
          "midi": 46,
          "name": "A#2",
          "ticks": 58680,
          "time": 45.84375,
          "velocity": 0.3937007874015748
        },
        {
          "duration": 0.5906250000000028,
          "durationTicks": 756,
          "midi": 45,
          "name": "A2",
          "ticks": 59040,
          "time": 46.125,
          "velocity": 0.44881889763779526
        },
        {
          "duration": 0.26093750000000426,
          "durationTicks": 334,
          "midi": 52,
          "name": "E3",
          "ticks": 59760,
          "time": 46.6875,
          "velocity": 0.5118110236220472
        },
        {
          "duration": 0.22968749999999716,
          "durationTicks": 294,
          "midi": 45,
          "name": "A2",
          "ticks": 60120,
          "time": 46.96875,
          "velocity": 0.36220472440944884
        },
        {
          "duration": 0.5953125000000057,
          "durationTicks": 762,
          "midi": 50,
          "name": "D3",
          "ticks": 60480,
          "time": 47.25,
          "velocity": 0.44881889763779526
        },
        {
          "duration": 0.4867187500000085,
          "durationTicks": 623,
          "midi": 38,
          "name": "D2",
          "ticks": 61200,
          "time": 47.8125,
          "velocity": 0.44881889763779526
        },
        {
          "duration": 0.6179687500000028,
          "durationTicks": 791,
          "midi": 40,
          "name": "E2",
          "ticks": 61800,
          "time": 48.28125,
          "velocity": 0.44881889763779526
        },
        {
          "duration": 0.5164062500000028,
          "durationTicks": 661,
          "midi": 52,
          "name": "E3",
          "ticks": 62640,
          "time": 48.9375,
          "velocity": 0.5118110236220472
        },
        {
          "duration": 1.11328125,
          "durationTicks": 1425,
          "midi": 45,
          "name": "A2",
          "ticks": 63360,
          "time": 49.5,
          "velocity": 0.5118110236220472
        },
        {
          "duration": 1.0968750000000043,
          "durationTicks": 1404,
          "midi": 44,
          "name": "G#2",
          "ticks": 64800,
          "time": 50.625,
          "velocity": 0.44881889763779526
        },
        {
          "duration": 0.5765624999999943,
          "durationTicks": 738,
          "midi": 43,
          "name": "G2",
          "ticks": 66240,
          "time": 51.75,
          "velocity": 0.44881889763779526
        },
        {
          "duration": 0.5257812500000014,
          "durationTicks": 673,
          "midi": 43,
          "name": "G2",
          "ticks": 66960,
          "time": 52.3125,
          "velocity": 0.44881889763779526
        },
        {
          "duration": 0.59765625,
          "durationTicks": 765,
          "midi": 42,
          "name": "F#2",
          "ticks": 67680,
          "time": 52.875,
          "velocity": 0.5118110236220472
        },
        {
          "duration": 0.46015624999999716,
          "durationTicks": 589,
          "midi": 42,
          "name": "F#2",
          "ticks": 68520,
          "time": 53.53125,
          "velocity": 0.44881889763779526
        },
        {
          "duration": 0.41875000000000284,
          "durationTicks": 536,
          "midi": 41,
          "name": "F2",
          "ticks": 69120,
          "time": 54,
          "velocity": 0.44881889763779526
        },
        {
          "duration": 0.3570312499999915,
          "durationTicks": 457,
          "midi": 52,
          "name": "E3",
          "ticks": 69600,
          "time": 54.375,
          "velocity": 0.5118110236220472
        },
        {
          "duration": 0.3656249999999943,
          "durationTicks": 468,
          "midi": 51,
          "name": "D#3",
          "ticks": 70080,
          "time": 54.75,
          "velocity": 0.5118110236220472
        },
        {
          "duration": 0.6031249999999915,
          "durationTicks": 772,
          "midi": 50,
          "name": "D3",
          "ticks": 70560,
          "time": 55.125,
          "velocity": 0.5118110236220472
        },
        {
          "duration": 0.4750000000000085,
          "durationTicks": 608,
          "midi": 44,
          "name": "G#2",
          "ticks": 71280,
          "time": 55.6875,
          "velocity": 0.5118110236220472
        },
        {
          "duration": 0.6117187499999943,
          "durationTicks": 783,
          "midi": 43,
          "name": "G2",
          "ticks": 72000,
          "time": 56.25,
          "velocity": 0.3937007874015748
        },
        {
          "duration": 0.23281250000000142,
          "durationTicks": 298,
          "midi": 55,
          "name": "G3",
          "ticks": 72840,
          "time": 56.90625,
          "velocity": 0.44881889763779526
        },
        {
          "duration": 0.10000000000000853,
          "durationTicks": 128,
          "midi": 54,
          "name": "F#3",
          "ticks": 73080,
          "time": 57.09375,
          "velocity": 0.33858267716535434
        },
        {
          "duration": 0.09609374999999432,
          "durationTicks": 123,
          "midi": 53,
          "name": "F3",
          "ticks": 73200,
          "time": 57.1875,
          "velocity": 0.4251968503937008
        },
        {
          "duration": 0.55859375,
          "durationTicks": 715,
          "midi": 52,
          "name": "E3",
          "ticks": 73440,
          "time": 57.375,
          "velocity": 0.44881889763779526
        },
        {
          "duration": 0.23281250000000142,
          "durationTicks": 298,
          "midi": 52,
          "name": "E3",
          "ticks": 74160,
          "time": 57.9375,
          "velocity": 0.4251968503937008
        },
        {
          "duration": 0.10000000000000853,
          "durationTicks": 128,
          "midi": 51,
          "name": "D#3",
          "ticks": 74520,
          "time": 58.21875,
          "velocity": 0.2125984251968504
        },
        {
          "duration": 0.11562500000000142,
          "durationTicks": 148,
          "midi": 50,
          "name": "D3",
          "ticks": 74640,
          "time": 58.3125,
          "velocity": 0.4251968503937008
        },
        {
          "duration": 0.6351562499999943,
          "durationTicks": 813,
          "midi": 49,
          "name": "C#3",
          "ticks": 74880,
          "time": 58.5,
          "velocity": 0.5118110236220472
        },
        {
          "duration": 0.47265625,
          "durationTicks": 605,
          "midi": 49,
          "name": "C#3",
          "ticks": 75720,
          "time": 59.15625,
          "velocity": 0.5748031496062992
        },
        {
          "duration": 0.9265625000000028,
          "durationTicks": 1186,
          "midi": 48,
          "name": "C3",
          "ticks": 76320,
          "time": 59.625,
          "velocity": 0.5118110236220472
        },
        {
          "duration": 0.12187499999999574,
          "durationTicks": 156,
          "midi": 48,
          "name": "C3",
          "ticks": 77520,
          "time": 60.5625,
          "velocity": 0.30708661417322836
        },
        {
          "duration": 0.5929687500000043,
          "durationTicks": 759,
          "midi": 47,
          "name": "B2",
          "ticks": 77760,
          "time": 60.75,
          "velocity": 0.4251968503937008
        },
        {
          "duration": 0.48359374999999716,
          "durationTicks": 619,
          "midi": 47,
          "name": "B2",
          "ticks": 78600,
          "time": 61.40625,
          "velocity": 0.44881889763779526
        },
        {
          "duration": 0.6117187499999943,
          "durationTicks": 783,
          "midi": 48,
          "name": "C3",
          "ticks": 79200,
          "time": 61.875,
          "velocity": 0.44881889763779526
        },
        {
          "duration": 0.48125000000000284,
          "durationTicks": 616,
          "midi": 40,
          "name": "E2",
          "ticks": 80040,
          "time": 62.53125,
          "velocity": 0.5118110236220472
        },
        {
          "duration": 0.6179687500000028,
          "durationTicks": 791,
          "midi": 41,
          "name": "F2",
          "ticks": 80640,
          "time": 63,
          "velocity": 0.5118110236220472
        },
        {
          "duration": 0.5023437499999943,
          "durationTicks": 643,
          "midi": 45,
          "name": "A2",
          "ticks": 81480,
          "time": 63.65625,
          "velocity": 0.44881889763779526
        },
        {
          "duration": 1.0914062500000057,
          "durationTicks": 1397,
          "midi": 46,
          "name": "A#2",
          "ticks": 82080,
          "time": 64.125,
          "velocity": 0.4251968503937008
        },
        {
          "duration": 0.6085937499999972,
          "durationTicks": 779,
          "midi": 46,
          "name": "A#2",
          "ticks": 83520,
          "time": 65.25,
          "velocity": 0.4251968503937008
        },
        {
          "duration": 0.5382812499999972,
          "durationTicks": 689,
          "midi": 50,
          "name": "D3",
          "ticks": 84240,
          "time": 65.8125,
          "velocity": 0.5118110236220472
        },
        {
          "duration": 0.5515625000000028,
          "durationTicks": 706,
          "midi": 51,
          "name": "D#3",
          "ticks": 84960,
          "time": 66.375,
          "velocity": 0.5118110236220472
        },
        {
          "duration": 0.5,
          "durationTicks": 640,
          "midi": 51,
          "name": "D#3",
          "ticks": 85680,
          "time": 66.9375,
          "velocity": 0.3937007874015748
        },
        {
          "duration": 0.58984375,
          "durationTicks": 755,
          "midi": 45,
          "name": "A2",
          "ticks": 86400,
          "time": 67.5,
          "velocity": 0.44881889763779526
        },
        {
          "duration": 0.5023437499999943,
          "durationTicks": 643,
          "midi": 45,
          "name": "A2",
          "ticks": 87240,
          "time": 68.15625,
          "velocity": 0.44881889763779526
        },
        {
          "duration": 0.5921875000000085,
          "durationTicks": 758,
          "midi": 50,
          "name": "D3",
          "ticks": 87840,
          "time": 68.625,
          "velocity": 0.5118110236220472
        },
        {
          "duration": 0.23749999999999716,
          "durationTicks": 304,
          "midi": 49,
          "name": "C#3",
          "ticks": 88680,
          "time": 69.28125,
          "velocity": 0.4251968503937008
        },
        {
          "duration": 0.23515625000000284,
          "durationTicks": 301,
          "midi": 48,
          "name": "C3",
          "ticks": 88920,
          "time": 69.46875,
          "velocity": 0.3937007874015748
        },
        {
          "duration": 0.5812500000000114,
          "durationTicks": 744,
          "midi": 47,
          "name": "B2",
          "ticks": 89280,
          "time": 69.75,
          "velocity": 0.5118110236220472
        },
        {
          "duration": 0.48828125,
          "durationTicks": 625,
          "midi": 47,
          "name": "B2",
          "ticks": 90000,
          "time": 70.3125,
          "velocity": 0.5118110236220472
        },
        {
          "duration": 0.41796875,
          "durationTicks": 535,
          "midi": 40,
          "name": "E2",
          "ticks": 90720,
          "time": 70.875,
          "velocity": 0.44881889763779526
        },
        {
          "duration": 0.36640624999999716,
          "durationTicks": 469,
          "midi": 47,
          "name": "B2",
          "ticks": 91200,
          "time": 71.25,
          "velocity": 0.5118110236220472
        },
        {
          "duration": 0.3804687499999915,
          "durationTicks": 487,
          "midi": 46,
          "name": "A#2",
          "ticks": 91680,
          "time": 71.625,
          "velocity": 0.44881889763779526
        },
        {
          "duration": 1.7359375000000057,
          "durationTicks": 2222,
          "midi": 45,
          "name": "A2",
          "ticks": 92160,
          "time": 72,
          "velocity": 0.5118110236220472
        },
        {
          "duration": 0.12187499999998863,
          "durationTicks": 156,
          "midi": 52,
          "name": "E3",
          "ticks": 94440,
          "time": 73.78125,
          "velocity": 0.6377952755905512
        },
        {
          "duration": 0.359375,
          "durationTicks": 460,
          "midi": 57,
          "name": "A3",
          "ticks": 94560,
          "time": 73.875,
          "velocity": 0.4251968503937008
        },
        {
          "duration": 0.6039062500000085,
          "durationTicks": 773,
          "midi": 58,
          "name": "A#3",
          "ticks": 95040,
          "time": 74.25,
          "velocity": 0.3937007874015748
        },
        {
          "duration": 0.4632812500000085,
          "durationTicks": 593,
          "midi": 53,
          "name": "F3",
          "ticks": 95880,
          "time": 74.90625,
          "velocity": 0.5748031496062992
        },
        {
          "duration": 0.6007812499999972,
          "durationTicks": 769,
          "midi": 51,
          "name": "D#3",
          "ticks": 96480,
          "time": 75.375,
          "velocity": 0.5118110236220472
        },
        {
          "duration": 0.5085937499999886,
          "durationTicks": 651,
          "midi": 39,
          "name": "D#2",
          "ticks": 97200,
          "time": 75.9375,
          "velocity": 0.44881889763779526
        },
        {
          "duration": 0.6031249999999915,
          "durationTicks": 772,
          "midi": 45,
          "name": "A2",
          "ticks": 97920,
          "time": 76.5,
          "velocity": 0.5118110236220472
        },
        {
          "duration": 0.4632812500000085,
          "durationTicks": 593,
          "midi": 45,
          "name": "A2",
          "ticks": 98760,
          "time": 77.15625,
          "velocity": 0.44881889763779526
        },
        {
          "duration": 0.6109375000000057,
          "durationTicks": 782,
          "midi": 44,
          "name": "G#2",
          "ticks": 99360,
          "time": 77.625,
          "velocity": 0.5118110236220472
        },
        {
          "duration": 0.5546875,
          "durationTicks": 710,
          "midi": 56,
          "name": "G#3",
          "ticks": 100200,
          "time": 78.28125,
          "velocity": 0.5118110236220472
        },
        {
          "duration": 0.5593750000000028,
          "durationTicks": 716,
          "midi": 57,
          "name": "A3",
          "ticks": 100920,
          "time": 78.84375,
          "velocity": 0.44881889763779526
        },
        {
          "duration": 0.5164062500000028,
          "durationTicks": 661,
          "midi": 45,
          "name": "A2",
          "ticks": 101640,
          "time": 79.40625,
          "velocity": 0.44881889763779526
        },
        {
          "duration": 0.5843749999999943,
          "durationTicks": 748,
          "midi": 44,
          "name": "G#2",
          "ticks": 102240,
          "time": 79.875,
          "velocity": 0.5118110236220472
        },
        {
          "duration": 0.5023437499999943,
          "durationTicks": 643,
          "midi": 44,
          "name": "G#2",
          "ticks": 103080,
          "time": 80.53125,
          "velocity": 0.44881889763779526
        },
        {
          "duration": 0.890625,
          "durationTicks": 1140,
          "midi": 43,
          "name": "G2",
          "ticks": 103680,
          "time": 81,
          "velocity": 0.4251968503937008
        },
        {
          "duration": 0.10390624999999432,
          "durationTicks": 133,
          "midi": 46,
          "name": "A#2",
          "ticks": 104760,
          "time": 81.84375,
          "velocity": 0.28346456692913385
        },
        {
          "duration": 0.13984374999999716,
          "durationTicks": 179,
          "midi": 47,
          "name": "B2",
          "ticks": 104880,
          "time": 81.9375,
          "velocity": 0.44881889763779526
        },
        {
          "duration": 0.6195312499999943,
          "durationTicks": 793,
          "midi": 48,
          "name": "C3",
          "ticks": 105120,
          "time": 82.125,
          "velocity": 0.5118110236220472
        },
        {
          "duration": 0.5101562500000085,
          "durationTicks": 653,
          "midi": 48,
          "name": "C3",
          "ticks": 105960,
          "time": 82.78125,
          "velocity": 0.36220472440944884
        },
        {
          "duration": 2.0929687500000114,
          "durationTicks": 2679,
          "midi": 41,
          "name": "F2",
          "ticks": 106560,
          "time": 83.25,
          "velocity": 0.4251968503937008
        },
        {
          "duration": 0.10859374999999716,
          "durationTicks": 139,
          "midi": 48,
          "name": "C3",
          "ticks": 109320,
          "time": 85.40625,
          "velocity": 0.2204724409448819
        },
        {
          "duration": 0.23593750000000568,
          "durationTicks": 302,
          "midi": 53,
          "name": "F3",
          "ticks": 109440,
          "time": 85.5,
          "velocity": 0.4251968503937008
        },
        {
          "duration": 0.04765625000000284,
          "durationTicks": 61,
          "midi": 53,
          "name": "F3",
          "ticks": 109800,
          "time": 85.78125,
          "velocity": 0.44881889763779526
        },
        {
          "duration": 0.02734375,
          "durationTicks": 35,
          "midi": 48,
          "name": "C3",
          "ticks": 110760,
          "time": 86.53125,
          "velocity": 0.1889763779527559
        },
        {
          "duration": 0.5882812499999943,
          "durationTicks": 753,
          "midi": 53,
          "name": "F3",
          "ticks": 110880,
          "time": 86.625,
          "velocity": 0.5118110236220472
        },
        {
          "duration": 0.3734374999999943,
          "durationTicks": 478,
          "midi": 53,
          "name": "F3",
          "ticks": 111720,
          "time": 87.28125,
          "velocity": 0.44881889763779526
        },
        {
          "duration": 0.39375000000001137,
          "durationTicks": 504,
          "midi": 53,
          "name": "F3",
          "ticks": 112320,
          "time": 87.75,
          "velocity": 0.6377952755905512
        },
        {
          "duration": 0.3671875,
          "durationTicks": 470,
          "midi": 45,
          "name": "A2",
          "ticks": 112800,
          "time": 88.125,
          "velocity": 0.44881889763779526
        },
        {
          "duration": 0.3453124999999915,
          "durationTicks": 442,
          "midi": 48,
          "name": "C3",
          "ticks": 113280,
          "time": 88.5,
          "velocity": 0.5748031496062992
        },
        {
          "duration": 0.35468749999999716,
          "durationTicks": 454,
          "midi": 50,
          "name": "D3",
          "ticks": 113760,
          "time": 88.875,
          "velocity": 0.5748031496062992
        },
        {
          "duration": 0.3765625000000057,
          "durationTicks": 482,
          "midi": 38,
          "name": "D2",
          "ticks": 114240,
          "time": 89.25,
          "velocity": 0.44881889763779526
        },
        {
          "duration": 0.3851562499999943,
          "durationTicks": 493,
          "midi": 41,
          "name": "F2",
          "ticks": 114720,
          "time": 89.625,
          "velocity": 0.44881889763779526
        },
        {
          "duration": 0.35468749999999716,
          "durationTicks": 454,
          "midi": 43,
          "name": "G2",
          "ticks": 115200,
          "time": 90,
          "velocity": 0.5748031496062992
        },
        {
          "duration": 0.35468749999999716,
          "durationTicks": 454,
          "midi": 46,
          "name": "A#2",
          "ticks": 115680,
          "time": 90.375,
          "velocity": 0.5118110236220472
        },
        {
          "duration": 0.37187500000000284,
          "durationTicks": 476,
          "midi": 50,
          "name": "D3",
          "ticks": 116160,
          "time": 90.75,
          "velocity": 0.5118110236220472
        },
        {
          "duration": 0.3695312500000085,
          "durationTicks": 473,
          "midi": 52,
          "name": "E3",
          "ticks": 116640,
          "time": 91.125,
          "velocity": 0.6377952755905512
        },
        {
          "duration": 0.3656249999999943,
          "durationTicks": 468,
          "midi": 44,
          "name": "G#2",
          "ticks": 117120,
          "time": 91.5,
          "velocity": 0.5748031496062992
        },
        {
          "duration": 0.3515625,
          "durationTicks": 450,
          "midi": 52,
          "name": "E3",
          "ticks": 117600,
          "time": 91.875,
          "velocity": 0.6377952755905512
        },
        {
          "duration": 0.38203125000001137,
          "durationTicks": 489,
          "midi": 49,
          "name": "C#3",
          "ticks": 118080,
          "time": 92.25,
          "velocity": 0.5748031496062992
        },
        {
          "duration": 0.3695312500000085,
          "durationTicks": 473,
          "midi": 37,
          "name": "C#2",
          "ticks": 118560,
          "time": 92.625,
          "velocity": 0.5118110236220472
        },
        {
          "duration": 0.38750000000000284,
          "durationTicks": 496,
          "midi": 49,
          "name": "C#3",
          "ticks": 119040,
          "time": 93,
          "velocity": 0.5118110236220472
        },
        {
          "duration": 0.33671875000000284,
          "durationTicks": 431,
          "midi": 48,
          "name": "C3",
          "ticks": 119520,
          "time": 93.375,
          "velocity": 0.5118110236220472
        },
        {
          "duration": 0.23515625000000284,
          "durationTicks": 301,
          "midi": 60,
          "name": "C4",
          "ticks": 120000,
          "time": 93.75,
          "velocity": 0.5748031496062992
        },
        {
          "duration": 0.08124999999999716,
          "durationTicks": 104,
          "midi": 48,
          "name": "C3",
          "ticks": 120360,
          "time": 94.03125,
          "velocity": 0.2204724409448819
        },
        {
          "duration": 0.22499999999999432,
          "durationTicks": 288,
          "midi": 60,
          "name": "C4",
          "ticks": 120480,
          "time": 94.125,
          "velocity": 0.5118110236220472
        },
        {
          "duration": 0.11093749999999147,
          "durationTicks": 142,
          "midi": 58,
          "name": "A#3",
          "ticks": 120840,
          "time": 94.40625,
          "velocity": 0.5118110236220472
        },
        {
          "duration": 0.37031250000001137,
          "durationTicks": 474,
          "midi": 59,
          "name": "B3",
          "ticks": 120960,
          "time": 94.5,
          "velocity": 0.44881889763779526
        },
        {
          "duration": 0.24843749999999432,
          "durationTicks": 318,
          "midi": 47,
          "name": "B2",
          "ticks": 121440,
          "time": 94.875,
          "velocity": 0.3937007874015748
        },
        {
          "duration": 0.21875,
          "durationTicks": 280,
          "midi": 59,
          "name": "B3",
          "ticks": 121800,
          "time": 95.15625,
          "velocity": 0.5118110236220472
        },
        {
          "duration": 0.23125000000000284,
          "durationTicks": 296,
          "midi": 47,
          "name": "B2",
          "ticks": 122040,
          "time": 95.34375,
          "velocity": 0.44881889763779526
        },
        {
          "duration": 0.34843750000000284,
          "durationTicks": 446,
          "midi": 48,
          "name": "C3",
          "ticks": 122400,
          "time": 95.625,
          "velocity": 0.44881889763779526
        },
        {
          "duration": 0.36249999999998295,
          "durationTicks": 464,
          "midi": 36,
          "name": "C2",
          "ticks": 122880,
          "time": 96,
          "velocity": 0.44881889763779526
        },
        {
          "duration": 0.37890625,
          "durationTicks": 485,
          "midi": 39,
          "name": "D#2",
          "ticks": 123360,
          "time": 96.375,
          "velocity": 0.5748031496062992
        },
        {
          "duration": 0.3734374999999943,
          "durationTicks": 478,
          "midi": 41,
          "name": "F2",
          "ticks": 123840,
          "time": 96.75,
          "velocity": 0.5748031496062992
        },
        {
          "duration": 0.3499999999999943,
          "durationTicks": 448,
          "midi": 48,
          "name": "C3",
          "ticks": 124320,
          "time": 97.125,
          "velocity": 0.5748031496062992
        },
        {
          "duration": 0.3687500000000057,
          "durationTicks": 472,
          "midi": 41,
          "name": "F2",
          "ticks": 124800,
          "time": 97.5,
          "velocity": 0.44881889763779526
        },
        {
          "duration": 0.3656250000000085,
          "durationTicks": 468,
          "midi": 46,
          "name": "A#2",
          "ticks": 125280,
          "time": 97.875,
          "velocity": 0.5118110236220472
        },
        {
          "duration": 0.3460937499999943,
          "durationTicks": 443,
          "midi": 58,
          "name": "A#3",
          "ticks": 125760,
          "time": 98.25,
          "velocity": 0.5118110236220472
        },
        {
          "duration": 0.35624999999998863,
          "durationTicks": 456,
          "midi": 57,
          "name": "A3",
          "ticks": 126240,
          "time": 98.625,
          "velocity": 0.44881889763779526
        },
        {
          "duration": 0.3960937499999915,
          "durationTicks": 507,
          "midi": 55,
          "name": "G3",
          "ticks": 126720,
          "time": 99,
          "velocity": 0.5118110236220472
        },
        {
          "duration": 0.35546875,
          "durationTicks": 455,
          "midi": 43,
          "name": "G2",
          "ticks": 127200,
          "time": 99.375,
          "velocity": 0.44881889763779526
        },
        {
          "duration": 0.3882812500000057,
          "durationTicks": 497,
          "midi": 50,
          "name": "D3",
          "ticks": 127680,
          "time": 99.75,
          "velocity": 0.5118110236220472
        },
        {
          "duration": 0.3921875000000057,
          "durationTicks": 502,
          "midi": 48,
          "name": "C3",
          "ticks": 128160,
          "time": 100.125,
          "velocity": 0.44881889763779526
        },
        {
          "duration": 0.34765625,
          "durationTicks": 445,
          "midi": 47,
          "name": "B2",
          "ticks": 128640,
          "time": 100.5,
          "velocity": 0.4251968503937008
        },
        {
          "duration": 0.35859375000001137,
          "durationTicks": 459,
          "midi": 46,
          "name": "A#2",
          "ticks": 129120,
          "time": 100.875,
          "velocity": 0.5118110236220472
        },
        {
          "duration": 0.3515625,
          "durationTicks": 450,
          "midi": 45,
          "name": "A2",
          "ticks": 129600,
          "time": 101.25,
          "velocity": 0.5118110236220472
        },
        {
          "duration": 0.36249999999998295,
          "durationTicks": 464,
          "midi": 45,
          "name": "A2",
          "ticks": 130080,
          "time": 101.625,
          "velocity": 0.5118110236220472
        },
        {
          "duration": 0.38359375000000284,
          "durationTicks": 491,
          "midi": 39,
          "name": "D#2",
          "ticks": 130560,
          "time": 102,
          "velocity": 0.5748031496062992
        },
        {
          "duration": 0.38984374999999716,
          "durationTicks": 499,
          "midi": 38,
          "name": "D2",
          "ticks": 131040,
          "time": 102.375,
          "velocity": 0.44881889763779526
        },
        {
          "duration": 0.3804687500000057,
          "durationTicks": 487,
          "midi": 50,
          "name": "D3",
          "ticks": 131520,
          "time": 102.75,
          "velocity": 0.5748031496062992
        },
        {
          "duration": 0.3765625000000057,
          "durationTicks": 482,
          "midi": 44,
          "name": "G#2",
          "ticks": 132000,
          "time": 103.125,
          "velocity": 0.44881889763779526
        },
        {
          "duration": 0.234375,
          "durationTicks": 300,
          "midi": 43,
          "name": "G2",
          "ticks": 132480,
          "time": 103.5,
          "velocity": 0.3937007874015748
        },
        {
          "duration": 0.10390624999999432,
          "durationTicks": 133,
          "midi": 46,
          "name": "A#2",
          "ticks": 132840,
          "time": 103.78125,
          "velocity": 0.44881889763779526
        },
        {
          "duration": 0.25312500000001137,
          "durationTicks": 324,
          "midi": 50,
          "name": "D3",
          "ticks": 132960,
          "time": 103.875,
          "velocity": 0.6377952755905512
        },
        {
          "duration": 0.10234375000000284,
          "durationTicks": 131,
          "midi": 43,
          "name": "G2",
          "ticks": 133320,
          "time": 104.15625,
          "velocity": 0.36220472440944884
        },
        {
          "duration": 0.34765625,
          "durationTicks": 445,
          "midi": 49,
          "name": "C#3",
          "ticks": 133440,
          "time": 104.25,
          "velocity": 0.5118110236220472
        },
        {
          "duration": 0.26093749999999716,
          "durationTicks": 334,
          "midi": 48,
          "name": "C3",
          "ticks": 133920,
          "time": 104.625,
          "velocity": 0.36220472440944884
        },
        {
          "duration": 0.4781249999999915,
          "durationTicks": 612,
          "midi": 40,
          "name": "E2",
          "ticks": 134280,
          "time": 104.90625,
          "velocity": 0.3937007874015748
        },
        {
          "duration": 0.34765625,
          "durationTicks": 445,
          "midi": 43,
          "name": "G2",
          "ticks": 134880,
          "time": 105.375,
          "velocity": 0.5118110236220472
        },
        {
          "duration": 0.3656250000000085,
          "durationTicks": 468,
          "midi": 41,
          "name": "F2",
          "ticks": 135360,
          "time": 105.75,
          "velocity": 0.3937007874015748
        },
        {
          "duration": 0.23515625000001705,
          "durationTicks": 301,
          "midi": 48,
          "name": "C3",
          "ticks": 135840,
          "time": 106.125,
          "velocity": 0.6377952755905512
        },
        {
          "duration": 0.07890625000000284,
          "durationTicks": 101,
          "midi": 41,
          "name": "F2",
          "ticks": 136200,
          "time": 106.40625,
          "velocity": 0.5118110236220472
        },
        {
          "duration": 0.34062500000001705,
          "durationTicks": 436,
          "midi": 49,
          "name": "C#3",
          "ticks": 136320,
          "time": 106.5,
          "velocity": 0.5118110236220472
        },
        {
          "duration": 0.19921875,
          "durationTicks": 255,
          "midi": 50,
          "name": "D3",
          "ticks": 136800,
          "time": 106.875,
          "velocity": 0.30708661417322836
        },
        {
          "duration": 0.11562499999999432,
          "durationTicks": 148,
          "midi": 45,
          "name": "A2",
          "ticks": 137160,
          "time": 107.15625,
          "velocity": 0.6377952755905512
        },
        {
          "duration": 0.3492187499999915,
          "durationTicks": 447,
          "midi": 38,
          "name": "D2",
          "ticks": 137280,
          "time": 107.25,
          "velocity": 0.4251968503937008
        },
        {
          "duration": 0.19765624999999432,
          "durationTicks": 253,
          "midi": 50,
          "name": "D3",
          "ticks": 137760,
          "time": 107.625,
          "velocity": 0.4251968503937008
        },
        {
          "duration": 0.13046875000000568,
          "durationTicks": 167,
          "midi": 44,
          "name": "G#2",
          "ticks": 138120,
          "time": 107.90625,
          "velocity": 0.7086614173228346
        },
        {
          "duration": 0.20859374999999147,
          "durationTicks": 267,
          "midi": 43,
          "name": "G2",
          "ticks": 138240,
          "time": 108,
          "velocity": 0.30708661417322836
        },
        {
          "duration": 0.12187499999998863,
          "durationTicks": 156,
          "midi": 55,
          "name": "G3",
          "ticks": 138600,
          "time": 108.28125,
          "velocity": 0.5118110236220472
        },
        {
          "duration": 0.3374999999999915,
          "durationTicks": 432,
          "midi": 43,
          "name": "G2",
          "ticks": 138720,
          "time": 108.375,
          "velocity": 0.33858267716535434
        },
        {
          "duration": 0.21718749999999432,
          "durationTicks": 278,
          "midi": 50,
          "name": "D3",
          "ticks": 139200,
          "time": 108.75,
          "velocity": 0.44881889763779526
        },
        {
          "duration": 0.12656249999999147,
          "durationTicks": 162,
          "midi": 51,
          "name": "D#3",
          "ticks": 139560,
          "time": 109.03125,
          "velocity": 0.44881889763779526
        },
        {
          "duration": 0.38359375000000284,
          "durationTicks": 491,
          "midi": 52,
          "name": "E3",
          "ticks": 139680,
          "time": 109.125,
          "velocity": 0.2204724409448819
        },
        {
          "duration": 0.28203125000001705,
          "durationTicks": 361,
          "midi": 40,
          "name": "E2",
          "ticks": 140160,
          "time": 109.5,
          "velocity": 0.4251968503937008
        },
        {
          "duration": 0.18515624999999147,
          "durationTicks": 237,
          "midi": 52,
          "name": "E3",
          "ticks": 140520,
          "time": 109.78125,
          "velocity": 0.5118110236220472
        },
        {
          "duration": 0.18593749999999432,
          "durationTicks": 238,
          "midi": 50,
          "name": "D3",
          "ticks": 140760,
          "time": 109.96875,
          "velocity": 0.5118110236220472
        },
        {
          "duration": 0.39453125,
          "durationTicks": 505,
          "midi": 49,
          "name": "C#3",
          "ticks": 141120,
          "time": 110.25,
          "velocity": 0.5118110236220472
        },
        {
          "duration": 0.37421874999998295,
          "durationTicks": 479,
          "midi": 37,
          "name": "C#2",
          "ticks": 141600,
          "time": 110.625,
          "velocity": 0.6377952755905512
        },
        {
          "duration": 0.33203125,
          "durationTicks": 425,
          "midi": 49,
          "name": "C#3",
          "ticks": 142080,
          "time": 111,
          "velocity": 0.5118110236220472
        },
        {
          "duration": 0.38203125000001137,
          "durationTicks": 489,
          "midi": 48,
          "name": "C3",
          "ticks": 142560,
          "time": 111.375,
          "velocity": 0.4251968503937008
        },
        {
          "duration": 0.24531249999998295,
          "durationTicks": 314,
          "midi": 36,
          "name": "C2",
          "ticks": 143040,
          "time": 111.75,
          "velocity": 0.4251968503937008
        },
        {
          "duration": 0.3515625,
          "durationTicks": 450,
          "midi": 48,
          "name": "C3",
          "ticks": 143400,
          "time": 112.03125,
          "velocity": 0.5118110236220472
        },
        {
          "duration": 0.1171875,
          "durationTicks": 150,
          "midi": 46,
          "name": "A#2",
          "ticks": 143880,
          "time": 112.40625,
          "velocity": 0.44881889763779526
        },
        {
          "duration": 0.30937499999998863,
          "durationTicks": 396,
          "midi": 47,
          "name": "B2",
          "ticks": 144000,
          "time": 112.5,
          "velocity": 0.5118110236220472
        },
        {
          "duration": 0.35859375000001137,
          "durationTicks": 459,
          "midi": 47,
          "name": "B2",
          "ticks": 144480,
          "time": 112.875,
          "velocity": 0.5118110236220472
        },
        {
          "duration": 0.33984375,
          "durationTicks": 435,
          "midi": 47,
          "name": "B2",
          "ticks": 144960,
          "time": 113.25,
          "velocity": 0.44881889763779526
        },
        {
          "duration": 0.38593749999998295,
          "durationTicks": 494,
          "midi": 48,
          "name": "C3",
          "ticks": 145440,
          "time": 113.625,
          "velocity": 0.4251968503937008
        },
        {
          "duration": 0.3695312499999943,
          "durationTicks": 473,
          "midi": 40,
          "name": "E2",
          "ticks": 145920,
          "time": 114,
          "velocity": 0.5118110236220472
        },
        {
          "duration": 0.35078124999998295,
          "durationTicks": 449,
          "midi": 43,
          "name": "G2",
          "ticks": 146400,
          "time": 114.375,
          "velocity": 0.5118110236220472
        },
        {
          "duration": 0.37578125000001705,
          "durationTicks": 481,
          "midi": 41,
          "name": "F2",
          "ticks": 146880,
          "time": 114.75,
          "velocity": 0.44881889763779526
        },
        {
          "duration": 0.24374999999999147,
          "durationTicks": 312,
          "midi": 53,
          "name": "F3",
          "ticks": 147360,
          "time": 115.125,
          "velocity": 0.5748031496062992
        },
        {
          "duration": 0.10625000000001705,
          "durationTicks": 136,
          "midi": 41,
          "name": "F2",
          "ticks": 147720,
          "time": 115.40625,
          "velocity": 0.36220472440944884
        },
        {
          "duration": 0.3374999999999915,
          "durationTicks": 432,
          "midi": 45,
          "name": "A2",
          "ticks": 147840,
          "time": 115.5,
          "velocity": 0.6377952755905512
        },
        {
          "duration": 0.22109374999999432,
          "durationTicks": 283,
          "midi": 46,
          "name": "A#2",
          "ticks": 148320,
          "time": 115.875,
          "velocity": 0.4251968503937008
        },
        {
          "duration": 0.22187499999998295,
          "durationTicks": 284,
          "midi": 46,
          "name": "A#2",
          "ticks": 148320,
          "time": 115.875,
          "velocity": 0.44881889763779526
        },
        {
          "duration": 0.09453125000001705,
          "durationTicks": 121,
          "midi": 58,
          "name": "A#3",
          "ticks": 148680,
          "time": 116.15625,
          "velocity": 0.6377952755905512
        },
        {
          "duration": 0.3765625000000057,
          "durationTicks": 482,
          "midi": 50,
          "name": "D3",
          "ticks": 148800,
          "time": 116.25,
          "velocity": 0.5118110236220472
        },
        {
          "duration": 0.38984374999999716,
          "durationTicks": 499,
          "midi": 53,
          "name": "F3",
          "ticks": 149280,
          "time": 116.625,
          "velocity": 0.5118110236220472
        },
        {
          "duration": 0.3648437500000057,
          "durationTicks": 467,
          "midi": 59,
          "name": "B3",
          "ticks": 149760,
          "time": 117,
          "velocity": 0.44881889763779526
        },
        {
          "duration": 0.0546875,
          "durationTicks": 70,
          "midi": 57,
          "name": "A3",
          "ticks": 149880,
          "time": 117.09375,
          "velocity": 0.11023622047244094
        },
        {
          "duration": 0.35859375000001137,
          "durationTicks": 459,
          "midi": 47,
          "name": "B2",
          "ticks": 150240,
          "time": 117.375,
          "velocity": 0.5118110236220472
        },
        {
          "duration": 0.22421875000000568,
          "durationTicks": 287,
          "midi": 50,
          "name": "D3",
          "ticks": 150720,
          "time": 117.75,
          "velocity": 0.4251968503937008
        },
        {
          "duration": 0.11953125000000853,
          "durationTicks": 153,
          "midi": 51,
          "name": "D#3",
          "ticks": 151080,
          "time": 118.03125,
          "velocity": 0.6377952755905512
        },
        {
          "duration": 0.35546875,
          "durationTicks": 455,
          "midi": 52,
          "name": "E3",
          "ticks": 151200,
          "time": 118.125,
          "velocity": 0.44881889763779526
        },
        {
          "duration": 0.35546875,
          "durationTicks": 455,
          "midi": 44,
          "name": "G#2",
          "ticks": 151680,
          "time": 118.5,
          "velocity": 0.5118110236220472
        },
        {
          "duration": 0.3531250000000057,
          "durationTicks": 452,
          "midi": 52,
          "name": "E3",
          "ticks": 152160,
          "time": 118.875,
          "velocity": 0.5748031496062992
        },
        {
          "duration": 0.37578125000001705,
          "durationTicks": 481,
          "midi": 49,
          "name": "C#3",
          "ticks": 152640,
          "time": 119.25,
          "velocity": 0.4251968503937008
        },
        {
          "duration": 0.3695312499999943,
          "durationTicks": 473,
          "midi": 61,
          "name": "C#4",
          "ticks": 153120,
          "time": 119.625,
          "velocity": 0.5118110236220472
        },
        {
          "duration": 0.34296874999999716,
          "durationTicks": 439,
          "midi": 49,
          "name": "C#3",
          "ticks": 153600,
          "time": 120,
          "velocity": 0.5748031496062992
        },
        {
          "duration": 0.39453125,
          "durationTicks": 505,
          "midi": 47,
          "name": "B2",
          "ticks": 154080,
          "time": 120.375,
          "velocity": 0.44881889763779526
        },
        {
          "duration": 0.38203125000001137,
          "durationTicks": 489,
          "midi": 59,
          "name": "B3",
          "ticks": 154560,
          "time": 120.75,
          "velocity": 0.44881889763779526
        },
        {
          "duration": 0.3609374999999915,
          "durationTicks": 462,
          "midi": 47,
          "name": "B2",
          "ticks": 155040,
          "time": 121.125,
          "velocity": 0.5118110236220472
        },
        {
          "duration": 0.3984375,
          "durationTicks": 510,
          "midi": 45,
          "name": "A2",
          "ticks": 155520,
          "time": 121.5,
          "velocity": 0.44881889763779526
        },
        {
          "duration": 0.3890625000000085,
          "durationTicks": 498,
          "midi": 57,
          "name": "A3",
          "ticks": 156000,
          "time": 121.875,
          "velocity": 0.5118110236220472
        },
        {
          "duration": 0.24062499999999432,
          "durationTicks": 308,
          "midi": 45,
          "name": "A2",
          "ticks": 156480,
          "time": 122.25,
          "velocity": 0.36220472440944884
        },
        {
          "duration": 0.109375,
          "durationTicks": 140,
          "midi": 57,
          "name": "A3",
          "ticks": 156840,
          "time": 122.53125,
          "velocity": 0.5118110236220472
        },
        {
          "duration": 0.22187499999998295,
          "durationTicks": 284,
          "midi": 56,
          "name": "G#3",
          "ticks": 156960,
          "time": 122.625,
          "velocity": 0.4251968503937008
        },
        {
          "duration": 0.12109375,
          "durationTicks": 155,
          "midi": 51,
          "name": "D#3",
          "ticks": 157320,
          "time": 122.90625,
          "velocity": 0.5748031496062992
        },
        {
          "duration": 0.3578124999999943,
          "durationTicks": 458,
          "midi": 44,
          "name": "G#2",
          "ticks": 157440,
          "time": 123,
          "velocity": 0.5118110236220472
        },
        {
          "duration": 0.203125,
          "durationTicks": 260,
          "midi": 56,
          "name": "G#3",
          "ticks": 157920,
          "time": 123.375,
          "velocity": 0.5118110236220472
        },
        {
          "duration": 0.12187499999998863,
          "durationTicks": 156,
          "midi": 44,
          "name": "G#2",
          "ticks": 158280,
          "time": 123.65625,
          "velocity": 0.44881889763779526
        },
        {
          "duration": 0.2578125,
          "durationTicks": 330,
          "midi": 43,
          "name": "G2",
          "ticks": 158400,
          "time": 123.75,
          "velocity": 0.5118110236220472
        },
        {
          "duration": 0.10546875,
          "durationTicks": 135,
          "midi": 55,
          "name": "G3",
          "ticks": 158760,
          "time": 124.03125,
          "velocity": 0.5748031496062992
        },
        {
          "duration": 0.3421875000000085,
          "durationTicks": 438,
          "midi": 43,
          "name": "G2",
          "ticks": 158880,
          "time": 124.125,
          "velocity": 0.4251968503937008
        },
        {
          "duration": 0.21796875000001137,
          "durationTicks": 279,
          "midi": 50,
          "name": "D3",
          "ticks": 159360,
          "time": 124.5,
          "velocity": 0.6377952755905512
        },
        {
          "duration": 0.10703125000000568,
          "durationTicks": 137,
          "midi": 49,
          "name": "C#3",
          "ticks": 159720,
          "time": 124.78125,
          "velocity": 0.5118110236220472
        },
        {
          "duration": 0.23203124999999147,
          "durationTicks": 297,
          "midi": 48,
          "name": "C3",
          "ticks": 159840,
          "time": 124.875,
          "velocity": 0.44881889763779526
        },
        {
          "duration": 0.11640624999998295,
          "durationTicks": 149,
          "midi": 40,
          "name": "E2",
          "ticks": 160200,
          "time": 125.15625,
          "velocity": 0.4251968503937008
        },
        {
          "duration": 0.35624999999998863,
          "durationTicks": 456,
          "midi": 43,
          "name": "G2",
          "ticks": 160320,
          "time": 125.25,
          "velocity": 0.5748031496062992
        },
        {
          "duration": 0.35468749999999716,
          "durationTicks": 454,
          "midi": 44,
          "name": "G#2",
          "ticks": 160800,
          "time": 125.625,
          "velocity": 0.5118110236220472
        },
        {
          "duration": 0.3570312500000057,
          "durationTicks": 457,
          "midi": 45,
          "name": "A2",
          "ticks": 161280,
          "time": 126,
          "velocity": 0.44881889763779526
        },
        {
          "duration": 0.20468750000000568,
          "durationTicks": 262,
          "midi": 52,
          "name": "E3",
          "ticks": 161760,
          "time": 126.375,
          "velocity": 0.5748031496062992
        },
        {
          "duration": 0.09453125000001705,
          "durationTicks": 121,
          "midi": 45,
          "name": "A2",
          "ticks": 162120,
          "time": 126.65625,
          "velocity": 0.18110236220472442
        },
        {
          "duration": 0.23281249999999432,
          "durationTicks": 298,
          "midi": 51,
          "name": "D#3",
          "ticks": 162240,
          "time": 126.75,
          "velocity": 0.5118110236220472
        },
        {
          "duration": 0.09531250000000568,
          "durationTicks": 122,
          "midi": 45,
          "name": "A2",
          "ticks": 162600,
          "time": 127.03125,
          "velocity": 0.1889763779527559
        },
        {
          "duration": 0.234375,
          "durationTicks": 300,
          "midi": 50,
          "name": "D3",
          "ticks": 162720,
          "time": 127.125,
          "velocity": 0.28346456692913385
        },
        {
          "duration": 0.11953125000000853,
          "durationTicks": 153,
          "midi": 45,
          "name": "A2",
          "ticks": 163080,
          "time": 127.40625,
          "velocity": 0.5118110236220472
        },
        {
          "duration": 0.3531250000000057,
          "durationTicks": 452,
          "midi": 38,
          "name": "D2",
          "ticks": 163200,
          "time": 127.5,
          "velocity": 0.3937007874015748
        },
        {
          "duration": 0.24609375,
          "durationTicks": 315,
          "midi": 45,
          "name": "A2",
          "ticks": 163680,
          "time": 127.875,
          "velocity": 0.5118110236220472
        },
        {
          "duration": 0.11953125000002274,
          "durationTicks": 153,
          "midi": 44,
          "name": "G#2",
          "ticks": 164040,
          "time": 128.15625,
          "velocity": 0.36220472440944884
        },
        {
          "duration": 0.35624999999998863,
          "durationTicks": 456,
          "midi": 43,
          "name": "G2",
          "ticks": 164160,
          "time": 128.25,
          "velocity": 0.30708661417322836
        },
        {
          "duration": 0.3671875,
          "durationTicks": 470,
          "midi": 46,
          "name": "A#2",
          "ticks": 164640,
          "time": 128.625,
          "velocity": 0.5118110236220472
        },
        {
          "duration": 0.3578124999999943,
          "durationTicks": 458,
          "midi": 50,
          "name": "D3",
          "ticks": 165120,
          "time": 129,
          "velocity": 0.5118110236220472
        },
        {
          "duration": 0.36640625000001137,
          "durationTicks": 469,
          "midi": 49,
          "name": "C#3",
          "ticks": 165600,
          "time": 129.375,
          "velocity": 0.44881889763779526
        },
        {
          "duration": 0.359375,
          "durationTicks": 460,
          "midi": 52,
          "name": "E3",
          "ticks": 166080,
          "time": 129.75,
          "velocity": 0.5118110236220472
        },
        {
          "duration": 0.3687500000000057,
          "durationTicks": 472,
          "midi": 57,
          "name": "A3",
          "ticks": 166560,
          "time": 130.125,
          "velocity": 0.44881889763779526
        },
        {
          "duration": 0.36406250000001705,
          "durationTicks": 466,
          "midi": 50,
          "name": "D3",
          "ticks": 167040,
          "time": 130.5,
          "velocity": 0.44881889763779526
        },
        {
          "duration": 0.36093749999997726,
          "durationTicks": 462,
          "midi": 53,
          "name": "F3",
          "ticks": 167520,
          "time": 130.875,
          "velocity": 0.4251968503937008
        },
        {
          "duration": 0.23593750000000568,
          "durationTicks": 302,
          "midi": 57,
          "name": "A3",
          "ticks": 168000,
          "time": 131.25,
          "velocity": 0.5118110236220472
        },
        {
          "duration": 0.1015625,
          "durationTicks": 130,
          "midi": 52,
          "name": "E3",
          "ticks": 168360,
          "time": 131.53125,
          "velocity": 0.28346456692913385
        },
        {
          "duration": 0.23124999999998863,
          "durationTicks": 296,
          "midi": 53,
          "name": "F3",
          "ticks": 168480,
          "time": 131.625,
          "velocity": 0.5748031496062992
        },
        {
          "duration": 0.12578124999998863,
          "durationTicks": 161,
          "midi": 48,
          "name": "C3",
          "ticks": 168840,
          "time": 131.90625,
          "velocity": 0.44881889763779526
        },
        {
          "duration": 0.24531249999998295,
          "durationTicks": 314,
          "midi": 45,
          "name": "A2",
          "ticks": 168960,
          "time": 132,
          "velocity": 0.3937007874015748
        },
        {
          "duration": 0.13593750000001137,
          "durationTicks": 174,
          "midi": 48,
          "name": "C3",
          "ticks": 169320,
          "time": 132.28125,
          "velocity": 0.5118110236220472
        },
        {
          "duration": 0.34218750000002274,
          "durationTicks": 438,
          "midi": 47,
          "name": "B2",
          "ticks": 169440,
          "time": 132.375,
          "velocity": 0.5118110236220472
        },
        {
          "duration": 0.35468750000001137,
          "durationTicks": 454,
          "midi": 46,
          "name": "A#2",
          "ticks": 169920,
          "time": 132.75,
          "velocity": 0.4251968503937008
        },
        {
          "duration": 0.36562500000002274,
          "durationTicks": 468,
          "midi": 38,
          "name": "D2",
          "ticks": 170400,
          "time": 133.125,
          "velocity": 0.44881889763779526
        },
        {
          "duration": 0.24765625000000568,
          "durationTicks": 317,
          "midi": 46,
          "name": "A#2",
          "ticks": 170880,
          "time": 133.5,
          "velocity": 0.5118110236220472
        },
        {
          "duration": 0.125,
          "durationTicks": 160,
          "midi": 44,
          "name": "G#2",
          "ticks": 171240,
          "time": 133.78125,
          "velocity": 0.30708661417322836
        },
        {
          "duration": 0.02734375,
          "durationTicks": 35,
          "midi": 43,
          "name": "G2",
          "ticks": 171360,
          "time": 133.875,
          "velocity": 0.11023622047244094
        },
        {
          "duration": 0.3460937499999943,
          "durationTicks": 443,
          "midi": 45,
          "name": "A2",
          "ticks": 171360,
          "time": 133.875,
          "velocity": 0.1968503937007874
        },
        {
          "duration": 0.35390625000002274,
          "durationTicks": 453,
          "midi": 57,
          "name": "A3",
          "ticks": 171840,
          "time": 134.25,
          "velocity": 0.5748031496062992
        },
        {
          "duration": 0.3617187499999943,
          "durationTicks": 463,
          "midi": 49,
          "name": "C#3",
          "ticks": 172320,
          "time": 134.625,
          "velocity": 0.44881889763779526
        },
        {
          "duration": 0.37812500000001137,
          "durationTicks": 484,
          "midi": 50,
          "name": "D3",
          "ticks": 172800,
          "time": 135,
          "velocity": 0.4251968503937008
        },
        {
          "duration": 0.359375,
          "durationTicks": 460,
          "midi": 45,
          "name": "A2",
          "ticks": 173280,
          "time": 135.375,
          "velocity": 0.4251968503937008
        },
        {
          "duration": 0.37421874999998295,
          "durationTicks": 479,
          "midi": 38,
          "name": "D2",
          "ticks": 173760,
          "time": 135.75,
          "velocity": 0.44881889763779526
        },
        {
          "duration": 0.37812500000001137,
          "durationTicks": 484,
          "midi": 40,
          "name": "E2",
          "ticks": 174240,
          "time": 136.125,
          "velocity": 0.4251968503937008
        },
        {
          "duration": 0.35234375000001705,
          "durationTicks": 451,
          "midi": 52,
          "name": "E3",
          "ticks": 174720,
          "time": 136.5,
          "velocity": 0.6377952755905512
        },
        {
          "duration": 0.35624999999998863,
          "durationTicks": 456,
          "midi": 44,
          "name": "G#2",
          "ticks": 175200,
          "time": 136.875,
          "velocity": 0.3937007874015748
        },
        {
          "duration": 0.34843749999998863,
          "durationTicks": 446,
          "midi": 45,
          "name": "A2",
          "ticks": 175680,
          "time": 137.25,
          "velocity": 0.3937007874015748
        },
        {
          "duration": 0.4039062500000057,
          "durationTicks": 517,
          "midi": 48,
          "name": "C3",
          "ticks": 176160,
          "time": 137.625,
          "velocity": 0.44881889763779526
        },
        {
          "duration": 0.3617187499999943,
          "durationTicks": 463,
          "midi": 50,
          "name": "D3",
          "ticks": 176640,
          "time": 138,
          "velocity": 0.44881889763779526
        },
        {
          "duration": 0.37890625,
          "durationTicks": 485,
          "midi": 51,
          "name": "D#3",
          "ticks": 177120,
          "time": 138.375,
          "velocity": 0.5118110236220472
        },
        {
          "duration": 0.34062500000001705,
          "durationTicks": 436,
          "midi": 44,
          "name": "G#2",
          "ticks": 177600,
          "time": 138.75,
          "velocity": 0.33858267716535434
        },
        {
          "duration": 0.35624999999998863,
          "durationTicks": 456,
          "midi": 51,
          "name": "D#3",
          "ticks": 178080,
          "time": 139.125,
          "velocity": 0.44881889763779526
        },
        {
          "duration": 0.2593750000000057,
          "durationTicks": 332,
          "midi": 55,
          "name": "G3",
          "ticks": 178560,
          "time": 139.5,
          "velocity": 0.44881889763779526
        },
        {
          "duration": 0.12343749999999432,
          "durationTicks": 158,
          "midi": 50,
          "name": "D3",
          "ticks": 178920,
          "time": 139.78125,
          "velocity": 0.44881889763779526
        },
        {
          "duration": 0.34687500000001137,
          "durationTicks": 444,
          "midi": 43,
          "name": "G2",
          "ticks": 179040,
          "time": 139.875,
          "velocity": 0.4251968503937008
        },
        {
          "duration": 0.37265624999997726,
          "durationTicks": 477,
          "midi": 50,
          "name": "D3",
          "ticks": 179520,
          "time": 140.25,
          "velocity": 0.44881889763779526
        },
        {
          "duration": 0.375,
          "durationTicks": 480,
          "midi": 42,
          "name": "F#2",
          "ticks": 180000,
          "time": 140.625,
          "velocity": 0.3937007874015748
        },
        {
          "duration": 0.24609375,
          "durationTicks": 315,
          "midi": 49,
          "name": "C#3",
          "ticks": 180480,
          "time": 141,
          "velocity": 0.36220472440944884
        },
        {
          "duration": 0.20390624999998863,
          "durationTicks": 261,
          "midi": 54,
          "name": "F#3",
          "ticks": 180840,
          "time": 141.28125,
          "velocity": 0.44881889763779526
        },
        {
          "duration": 0.24921875000001137,
          "durationTicks": 319,
          "midi": 49,
          "name": "C#3",
          "ticks": 181080,
          "time": 141.46875,
          "velocity": 0.36220472440944884
        },
        {
          "duration": 0.37734375000002274,
          "durationTicks": 483,
          "midi": 53,
          "name": "F3",
          "ticks": 181440,
          "time": 141.75,
          "velocity": 0.3937007874015748
        },
        {
          "duration": 0.37031250000001137,
          "durationTicks": 474,
          "midi": 48,
          "name": "C3",
          "ticks": 181920,
          "time": 142.125,
          "velocity": 0.44881889763779526
        },
        {
          "duration": 0.2593750000000057,
          "durationTicks": 332,
          "midi": 41,
          "name": "F2",
          "ticks": 182400,
          "time": 142.5,
          "velocity": 0.44881889763779526
        },
        {
          "duration": 0.13046875000000568,
          "durationTicks": 167,
          "midi": 40,
          "name": "E2",
          "ticks": 182760,
          "time": 142.78125,
          "velocity": 0.36220472440944884
        },
        {
          "duration": 0.21015624999998295,
          "durationTicks": 269,
          "midi": 38,
          "name": "D2",
          "ticks": 182880,
          "time": 142.875,
          "velocity": 0.3937007874015748
        },
        {
          "duration": 0.12187499999998863,
          "durationTicks": 156,
          "midi": 50,
          "name": "D3",
          "ticks": 183240,
          "time": 143.15625,
          "velocity": 0.6377952755905512
        },
        {
          "duration": 0.36249999999998295,
          "durationTicks": 464,
          "midi": 38,
          "name": "D2",
          "ticks": 183360,
          "time": 143.25,
          "velocity": 0.36220472440944884
        },
        {
          "duration": 0.20468750000000568,
          "durationTicks": 262,
          "midi": 41,
          "name": "F2",
          "ticks": 183840,
          "time": 143.625,
          "velocity": 0.28346456692913385
        },
        {
          "duration": 0.13437500000000568,
          "durationTicks": 172,
          "midi": 42,
          "name": "F#2",
          "ticks": 184200,
          "time": 143.90625,
          "velocity": 0.5748031496062992
        },
        {
          "duration": 0.234375,
          "durationTicks": 300,
          "midi": 43,
          "name": "G2",
          "ticks": 184320,
          "time": 144,
          "velocity": 0.16535433070866143
        },
        {
          "duration": 0.36015624999998863,
          "durationTicks": 461,
          "midi": 55,
          "name": "G3",
          "ticks": 184680,
          "time": 144.28125,
          "velocity": 0.5748031496062992
        },
        {
          "duration": 0.21640625000000568,
          "durationTicks": 277,
          "midi": 43,
          "name": "G2",
          "ticks": 185160,
          "time": 144.65625,
          "velocity": 0.36220472440944884
        },
        {
          "duration": 0.08750000000000568,
          "durationTicks": 112,
          "midi": 50,
          "name": "D3",
          "ticks": 185400,
          "time": 144.84375,
          "velocity": 0.28346456692913385
        },
        {
          "duration": 0.09921875000000568,
          "durationTicks": 127,
          "midi": 51,
          "name": "D#3",
          "ticks": 185640,
          "time": 145.03125,
          "velocity": 0.36220472440944884
        },
        {
          "duration": 0.36640625000001137,
          "durationTicks": 469,
          "midi": 52,
          "name": "E3",
          "ticks": 185760,
          "time": 145.125,
          "velocity": 0.5118110236220472
        },
        {
          "duration": 0.20078125000000568,
          "durationTicks": 257,
          "midi": 40,
          "name": "E2",
          "ticks": 186240,
          "time": 145.5,
          "velocity": 0.3937007874015748
        },
        {
          "duration": 0.234375,
          "durationTicks": 300,
          "midi": 40,
          "name": "E2",
          "ticks": 186600,
          "time": 145.78125,
          "velocity": 0.5118110236220472
        },
        {
          "duration": 0.27734375,
          "durationTicks": 355,
          "midi": 38,
          "name": "D2",
          "ticks": 186840,
          "time": 145.96875,
          "velocity": 0.4251968503937008
        },
        {
          "duration": 0.40703124999998863,
          "durationTicks": 521,
          "midi": 37,
          "name": "C#2",
          "ticks": 187200,
          "time": 146.25,
          "velocity": 0.5748031496062992
        },
        {
          "duration": 0.35546875,
          "durationTicks": 455,
          "midi": 49,
          "name": "C#3",
          "ticks": 187680,
          "time": 146.625,
          "velocity": 0.5118110236220472
        },
        {
          "duration": 0.3578124999999943,
          "durationTicks": 458,
          "midi": 37,
          "name": "C#2",
          "ticks": 188160,
          "time": 147,
          "velocity": 0.36220472440944884
        },
        {
          "duration": 0.35624999999998863,
          "durationTicks": 456,
          "midi": 48,
          "name": "C3",
          "ticks": 188640,
          "time": 147.375,
          "velocity": 0.5118110236220472
        },
        {
          "duration": 0.3765625000000057,
          "durationTicks": 482,
          "midi": 36,
          "name": "C2",
          "ticks": 189120,
          "time": 147.75,
          "velocity": 0.36220472440944884
        },
        {
          "duration": 0.35234375000001705,
          "durationTicks": 451,
          "midi": 48,
          "name": "C3",
          "ticks": 189600,
          "time": 148.125,
          "velocity": 0.5118110236220472
        },
        {
          "duration": 0.35546875,
          "durationTicks": 455,
          "midi": 47,
          "name": "B2",
          "ticks": 190080,
          "time": 148.5,
          "velocity": 0.2204724409448819
        },
        {
          "duration": 0.37031250000001137,
          "durationTicks": 474,
          "midi": 55,
          "name": "G3",
          "ticks": 190560,
          "time": 148.875,
          "velocity": 0.5748031496062992
        },
        {
          "duration": 0.3570312500000057,
          "durationTicks": 457,
          "midi": 47,
          "name": "B2",
          "ticks": 191040,
          "time": 149.25,
          "velocity": 0.33858267716535434
        },
        {
          "duration": 0.21406250000001137,
          "durationTicks": 274,
          "midi": 48,
          "name": "C3",
          "ticks": 191520,
          "time": 149.625,
          "velocity": 0.2125984251968504
        },
        {
          "duration": 0.33515625000001137,
          "durationTicks": 429,
          "midi": 60,
          "name": "C4",
          "ticks": 191880,
          "time": 149.90625,
          "velocity": 0.5748031496062992
        },
        {
          "duration": 0.10546875,
          "durationTicks": 135,
          "midi": 48,
          "name": "C3",
          "ticks": 192360,
          "time": 150.28125,
          "velocity": 0.30708661417322836
        },
        {
          "duration": 0.22421875000000568,
          "durationTicks": 287,
          "midi": 52,
          "name": "E3",
          "ticks": 192480,
          "time": 150.375,
          "velocity": 0.4251968503937008
        },
        {
          "duration": 0.09453125000001705,
          "durationTicks": 121,
          "midi": 48,
          "name": "C3",
          "ticks": 192840,
          "time": 150.65625,
          "velocity": 0.2204724409448819
        },
        {
          "duration": 0.21875,
          "durationTicks": 280,
          "midi": 53,
          "name": "F3",
          "ticks": 192960,
          "time": 150.75,
          "velocity": 0.4251968503937008
        },
        {
          "duration": 0.12421875000001137,
          "durationTicks": 159,
          "midi": 48,
          "name": "C3",
          "ticks": 193320,
          "time": 151.03125,
          "velocity": 0.5118110236220472
        },
        {
          "duration": 0.3414062500000057,
          "durationTicks": 437,
          "midi": 45,
          "name": "A2",
          "ticks": 193440,
          "time": 151.125,
          "velocity": 0.3937007874015748
        },
        {
          "duration": 0.25,
          "durationTicks": 320,
          "midi": 48,
          "name": "C3",
          "ticks": 193920,
          "time": 151.5,
          "velocity": 0.5118110236220472
        },
        {
          "duration": 0.10390624999999432,
          "durationTicks": 133,
          "midi": 47,
          "name": "B2",
          "ticks": 194280,
          "time": 151.78125,
          "velocity": 0.30708661417322836
        },
        {
          "duration": 0.35624999999998863,
          "durationTicks": 456,
          "midi": 46,
          "name": "A#2",
          "ticks": 194400,
          "time": 151.875,
          "velocity": 0.2125984251968504
        },
        {
          "duration": 0.36562500000002274,
          "durationTicks": 468,
          "midi": 53,
          "name": "F3",
          "ticks": 194880,
          "time": 152.25,
          "velocity": 0.5748031496062992
        },
        {
          "duration": 0.578125,
          "durationTicks": 740,
          "midi": 58,
          "name": "A#3",
          "ticks": 195360,
          "time": 152.625,
          "velocity": 0.4251968503937008
        },
        {
          "duration": 0.11406249999998863,
          "durationTicks": 146,
          "midi": 53,
          "name": "F3",
          "ticks": 196200,
          "time": 153.28125,
          "velocity": 0.5748031496062992
        },
        {
          "duration": 0.23203124999997726,
          "durationTicks": 297,
          "midi": 46,
          "name": "A#2",
          "ticks": 196320,
          "time": 153.375,
          "velocity": 0.3937007874015748
        },
        {
          "duration": 0.11562499999999432,
          "durationTicks": 148,
          "midi": 58,
          "name": "A#3",
          "ticks": 196680,
          "time": 153.65625,
          "velocity": 0.5118110236220472
        },
        {
          "duration": 0.06562500000001137,
          "durationTicks": 84,
          "midi": 48,
          "name": "C3",
          "ticks": 196800,
          "time": 153.75,
          "velocity": 0.11023622047244094
        },
        {
          "duration": 0.36249999999998295,
          "durationTicks": 464,
          "midi": 50,
          "name": "D3",
          "ticks": 196800,
          "time": 153.75,
          "velocity": 0.28346456692913385
        },
        {
          "duration": 0.3695312499999943,
          "durationTicks": 473,
          "midi": 51,
          "name": "D#3",
          "ticks": 197280,
          "time": 154.125,
          "velocity": 0.36220472440944884
        },
        {
          "duration": 0.35078124999998295,
          "durationTicks": 449,
          "midi": 43,
          "name": "G2",
          "ticks": 197760,
          "time": 154.5,
          "velocity": 0.4251968503937008
        },
        {
          "duration": 0.24140625000001137,
          "durationTicks": 309,
          "midi": 51,
          "name": "D#3",
          "ticks": 198240,
          "time": 154.875,
          "velocity": 0.5118110236220472
        },
        {
          "duration": 0.12343749999999432,
          "durationTicks": 158,
          "midi": 44,
          "name": "G#2",
          "ticks": 198600,
          "time": 155.15625,
          "velocity": 0.33858267716535434
        },
        {
          "duration": 0.4000000000000057,
          "durationTicks": 512,
          "midi": 45,
          "name": "A2",
          "ticks": 198720,
          "time": 155.25,
          "velocity": 0.5118110236220472
        },
        {
          "duration": 0.22343750000001705,
          "durationTicks": 286,
          "midi": 57,
          "name": "A3",
          "ticks": 199200,
          "time": 155.625,
          "velocity": 0.5748031496062992
        },
        {
          "duration": 0.11640624999998295,
          "durationTicks": 149,
          "midi": 45,
          "name": "A2",
          "ticks": 199560,
          "time": 155.90625,
          "velocity": 0.30708661417322836
        },
        {
          "duration": 0.35234375000001705,
          "durationTicks": 451,
          "midi": 49,
          "name": "C#3",
          "ticks": 199680,
          "time": 156,
          "velocity": 0.5118110236220472
        },
        {
          "duration": 0.35468750000001137,
          "durationTicks": 454,
          "midi": 50,
          "name": "D3",
          "ticks": 200160,
          "time": 156.375,
          "velocity": 0.3937007874015748
        },
        {
          "duration": 0.3695312499999943,
          "durationTicks": 473,
          "midi": 45,
          "name": "A2",
          "ticks": 200640,
          "time": 156.75,
          "velocity": 0.44881889763779526
        },
        {
          "duration": 0.375,
          "durationTicks": 480,
          "midi": 38,
          "name": "D2",
          "ticks": 201120,
          "time": 157.125,
          "velocity": 0.3937007874015748
        },
        {
          "duration": 0.62109375,
          "durationTicks": 795,
          "midi": 47,
          "name": "B2",
          "ticks": 201600,
          "time": 157.5,
          "velocity": 0.5118110236220472
        },
        {
          "duration": 0.22187499999998295,
          "durationTicks": 284,
          "midi": 42,
          "name": "F#2",
          "ticks": 202440,
          "time": 158.15625,
          "velocity": 0.5118110236220472
        },
        {
          "duration": 0.24609375,
          "durationTicks": 315,
          "midi": 41,
          "name": "F2",
          "ticks": 202680,
          "time": 158.34375,
          "velocity": 0.4251968503937008
        },
        {
          "duration": 0.37265624999997726,
          "durationTicks": 477,
          "midi": 40,
          "name": "E2",
          "ticks": 203040,
          "time": 158.625,
          "velocity": 0.3937007874015748
        },
        {
          "duration": 0.24531249999998295,
          "durationTicks": 314,
          "midi": 52,
          "name": "E3",
          "ticks": 203520,
          "time": 159,
          "velocity": 0.5118110236220472
        },
        {
          "duration": 0.11484374999997726,
          "durationTicks": 147,
          "midi": 40,
          "name": "E2",
          "ticks": 203880,
          "time": 159.28125,
          "velocity": 0.33858267716535434
        },
        {
          "duration": 0.3734374999999943,
          "durationTicks": 478,
          "midi": 44,
          "name": "G#2",
          "ticks": 204000,
          "time": 159.375,
          "velocity": 0.5748031496062992
        },
        {
          "duration": 0.24921875000001137,
          "durationTicks": 319,
          "midi": 45,
          "name": "A2",
          "ticks": 204480,
          "time": 159.75,
          "velocity": 0.4251968503937008
        },
        {
          "duration": 0.09609375000002274,
          "durationTicks": 123,
          "midi": 57,
          "name": "A3",
          "ticks": 204840,
          "time": 160.03125,
          "velocity": 0.5748031496062992
        },
        {
          "duration": 0.375,
          "durationTicks": 480,
          "midi": 48,
          "name": "C3",
          "ticks": 204960,
          "time": 160.125,
          "velocity": 0.33858267716535434
        },
        {
          "duration": 0.3515625,
          "durationTicks": 450,
          "midi": 50,
          "name": "D3",
          "ticks": 205440,
          "time": 160.5,
          "velocity": 0.3937007874015748
        },
        {
          "duration": 0.38203125000001137,
          "durationTicks": 489,
          "midi": 51,
          "name": "D#3",
          "ticks": 205920,
          "time": 160.875,
          "velocity": 0.4251968503937008
        },
        {
          "duration": 0.3648437500000057,
          "durationTicks": 467,
          "midi": 52,
          "name": "E3",
          "ticks": 206400,
          "time": 161.25,
          "velocity": 0.3937007874015748
        },
        {
          "duration": 0.33906249999998295,
          "durationTicks": 434,
          "midi": 57,
          "name": "A3",
          "ticks": 206880,
          "time": 161.625,
          "velocity": 0.44881889763779526
        },
        {
          "duration": 0.09531250000000568,
          "durationTicks": 122,
          "midi": 58,
          "name": "A#3",
          "ticks": 207360,
          "time": 162,
          "velocity": 0.2125984251968504
        },
        {
          "duration": 0.0703125,
          "durationTicks": 90,
          "midi": 55,
          "name": "G3",
          "ticks": 207480,
          "time": 162.09375,
          "velocity": 0.28346456692913385
        },
        {
          "duration": 0.09843749999998863,
          "durationTicks": 126,
          "midi": 53,
          "name": "F3",
          "ticks": 207720,
          "time": 162.28125,
          "velocity": 0.5118110236220472
        },
        {
          "duration": 0.36328125,
          "durationTicks": 465,
          "midi": 50,
          "name": "D3",
          "ticks": 207840,
          "time": 162.375,
          "velocity": 0.5748031496062992
        },
        {
          "duration": 0.22187499999998295,
          "durationTicks": 284,
          "midi": 53,
          "name": "F3",
          "ticks": 208320,
          "time": 162.75,
          "velocity": 0.5118110236220472
        },
        {
          "duration": 0.12968750000001705,
          "durationTicks": 166,
          "midi": 50,
          "name": "D3",
          "ticks": 208680,
          "time": 163.03125,
          "velocity": 0.2125984251968504
        },
        {
          "duration": 0.22187499999998295,
          "durationTicks": 284,
          "midi": 51,
          "name": "D#3",
          "ticks": 208800,
          "time": 163.125,
          "velocity": 0.2204724409448819
        },
        {
          "duration": 0.14375000000001137,
          "durationTicks": 184,
          "midi": 46,
          "name": "A#2",
          "ticks": 209160,
          "time": 163.40625,
          "velocity": 0.5748031496062992
        },
        {
          "duration": 0.33515625000001137,
          "durationTicks": 429,
          "midi": 43,
          "name": "G2",
          "ticks": 209280,
          "time": 163.5,
          "velocity": 0.18110236220472442
        },
        {
          "duration": 0.04765625000001705,
          "durationTicks": 61,
          "midi": 45,
          "name": "A2",
          "ticks": 209280,
          "time": 163.5,
          "velocity": 0.1732283464566929
        },
        {
          "duration": 0.25546874999997726,
          "durationTicks": 327,
          "midi": 46,
          "name": "A#2",
          "ticks": 209760,
          "time": 163.875,
          "velocity": 0.5748031496062992
        },
        {
          "duration": 0.13437500000000568,
          "durationTicks": 172,
          "midi": 44,
          "name": "G#2",
          "ticks": 210120,
          "time": 164.15625,
          "velocity": 0.30708661417322836
        },
        {
          "duration": 0.35624999999998863,
          "durationTicks": 456,
          "midi": 45,
          "name": "A2",
          "ticks": 210240,
          "time": 164.25,
          "velocity": 0.33858267716535434
        },
        {
          "duration": 0.33671874999998863,
          "durationTicks": 431,
          "midi": 57,
          "name": "A3",
          "ticks": 210720,
          "time": 164.625,
          "velocity": 0.5118110236220472
        },
        {
          "duration": 0.36015624999998863,
          "durationTicks": 461,
          "midi": 45,
          "name": "A2",
          "ticks": 211200,
          "time": 165,
          "velocity": 0.4251968503937008
        },
        {
          "duration": 0.359375,
          "durationTicks": 460,
          "midi": 44,
          "name": "G#2",
          "ticks": 211680,
          "time": 165.375,
          "velocity": 0.33858267716535434
        },
        {
          "duration": 0.6046875000000114,
          "durationTicks": 774,
          "midi": 56,
          "name": "G#3",
          "ticks": 212160,
          "time": 165.75,
          "velocity": 0.5118110236220472
        },
        {
          "duration": 0.12109375,
          "durationTicks": 155,
          "midi": 58,
          "name": "A#3",
          "ticks": 213000,
          "time": 166.40625,
          "velocity": 0.5118110236220472
        },
        {
          "duration": 0.21171875000001705,
          "durationTicks": 271,
          "midi": 57,
          "name": "A3",
          "ticks": 213120,
          "time": 166.5,
          "velocity": 0.2204724409448819
        },
        {
          "duration": 0.12968750000001705,
          "durationTicks": 166,
          "midi": 52,
          "name": "E3",
          "ticks": 213480,
          "time": 166.78125,
          "velocity": 0.5118110236220472
        },
        {
          "duration": 0.35859375000001137,
          "durationTicks": 459,
          "midi": 45,
          "name": "A2",
          "ticks": 213600,
          "time": 166.875,
          "velocity": 0.36220472440944884
        },
        {
          "duration": 0.23124999999998863,
          "durationTicks": 296,
          "midi": 52,
          "name": "E3",
          "ticks": 214080,
          "time": 167.25,
          "velocity": 0.44881889763779526
        },
        {
          "duration": 0.12265625000000568,
          "durationTicks": 157,
          "midi": 45,
          "name": "A2",
          "ticks": 214440,
          "time": 167.53125,
          "velocity": 0.36220472440944884
        },
        {
          "duration": 0.24374999999997726,
          "durationTicks": 312,
          "midi": 44,
          "name": "G#2",
          "ticks": 214560,
          "time": 167.625,
          "velocity": 0.3937007874015748
        },
        {
          "duration": 0.22500000000002274,
          "durationTicks": 288,
          "midi": 47,
          "name": "B2",
          "ticks": 214920,
          "time": 167.90625,
          "velocity": 0.36220472440944884
        },
        {
          "duration": 0.25312500000001137,
          "durationTicks": 324,
          "midi": 50,
          "name": "D3",
          "ticks": 215160,
          "time": 168.09375,
          "velocity": 0.3937007874015748
        },
        {
          "duration": 0.21953124999998863,
          "durationTicks": 281,
          "midi": 53,
          "name": "F3",
          "ticks": 215520,
          "time": 168.375,
          "velocity": 0.44881889763779526
        },
        {
          "duration": 0.10625000000001705,
          "durationTicks": 136,
          "midi": 54,
          "name": "F#3",
          "ticks": 215880,
          "time": 168.65625,
          "velocity": 0.4251968503937008
        },
        {
          "duration": 0.22578125000001137,
          "durationTicks": 289,
          "midi": 55,
          "name": "G3",
          "ticks": 216000,
          "time": 168.75,
          "velocity": 0.3937007874015748
        },
        {
          "duration": 0.12578124999998863,
          "durationTicks": 161,
          "midi": 50,
          "name": "D3",
          "ticks": 216360,
          "time": 169.03125,
          "velocity": 0.5118110236220472
        },
        {
          "duration": 0.3671875,
          "durationTicks": 470,
          "midi": 46,
          "name": "A#2",
          "ticks": 216480,
          "time": 169.125,
          "velocity": 0.36220472440944884
        },
        {
          "duration": 0.21796875000001137,
          "durationTicks": 279,
          "midi": 50,
          "name": "D3",
          "ticks": 216960,
          "time": 169.5,
          "velocity": 0.5118110236220472
        },
        {
          "duration": 0.10703125000000568,
          "durationTicks": 137,
          "midi": 46,
          "name": "A#2",
          "ticks": 217320,
          "time": 169.78125,
          "velocity": 0.2125984251968504
        },
        {
          "duration": 0.34062500000001705,
          "durationTicks": 436,
          "midi": 48,
          "name": "C3",
          "ticks": 217440,
          "time": 169.875,
          "velocity": 0.44881889763779526
        },
        {
          "duration": 0.38437499999997726,
          "durationTicks": 492,
          "midi": 36,
          "name": "C2",
          "ticks": 217920,
          "time": 170.25,
          "velocity": 0.4251968503937008
        },
        {
          "duration": 0.38593749999998295,
          "durationTicks": 494,
          "midi": 40,
          "name": "E2",
          "ticks": 218400,
          "time": 170.625,
          "velocity": 0.4251968503937008
        },
        {
          "duration": 0.77734375,
          "durationTicks": 995,
          "midi": 48,
          "name": "C3",
          "ticks": 218880,
          "time": 171,
          "velocity": 0.7795275590551181
        },
        {
          "duration": 0.07265625000002274,
          "durationTicks": 93,
          "midi": 36,
          "name": "C2",
          "ticks": 219240,
          "time": 171.28125,
          "velocity": 0.33070866141732286
        },
        {
          "duration": 0.14765625000001137,
          "durationTicks": 189,
          "midi": 36,
          "name": "C2",
          "ticks": 219840,
          "time": 171.75,
          "velocity": 0.2125984251968504
        },
        {
          "duration": 0.06171875000001137,
          "durationTicks": 79,
          "midi": 36,
          "name": "C2",
          "ticks": 220200,
          "time": 172.03125,
          "velocity": 0.1968503937007874
        },
        {
          "duration": 0.9515625000000227,
          "durationTicks": 1218,
          "midi": 48,
          "name": "C3",
          "ticks": 220320,
          "time": 172.125,
          "velocity": 0.7795275590551181
        },
        {
          "duration": 0.045312499999994316,
          "durationTicks": 58,
          "midi": 36,
          "name": "C2",
          "ticks": 220800,
          "time": 172.5,
          "velocity": 0.2125984251968504
        },
        {
          "duration": 0.08437500000002274,
          "durationTicks": 108,
          "midi": 36,
          "name": "C2",
          "ticks": 221280,
          "time": 172.875,
          "velocity": 0.3543307086614173
        },
        {
          "duration": 0.040625000000005684,
          "durationTicks": 52,
          "midi": 36,
          "name": "C2",
          "ticks": 221640,
          "time": 173.15625,
          "velocity": 0.25196850393700787
        },
        {
          "duration": 0.875,
          "durationTicks": 1120,
          "midi": 48,
          "name": "C3",
          "ticks": 221880,
          "time": 173.34375,
          "velocity": 0.6850393700787402
        },
        {
          "duration": 0.052343750000005684,
          "durationTicks": 67,
          "midi": 36,
          "name": "C2",
          "ticks": 222240,
          "time": 173.625,
          "velocity": 0.33858267716535434
        },
        {
          "duration": 0.5179687500000227,
          "durationTicks": 663,
          "midi": 36,
          "name": "C2",
          "ticks": 222600,
          "time": 173.90625,
          "velocity": 0.4330708661417323
        },
        {
          "duration": 0.6796875,
          "durationTicks": 870,
          "midi": 48,
          "name": "C3",
          "ticks": 223200,
          "time": 174.375,
          "velocity": 0.6220472440944882
        },
        {
          "duration": 0.0546875,
          "durationTicks": 70,
          "midi": 36,
          "name": "C2",
          "ticks": 223560,
          "time": 174.65625,
          "velocity": 0.2047244094488189
        },
        {
          "duration": 0.375,
          "durationTicks": 480,
          "midi": 36,
          "name": "C2",
          "ticks": 224040,
          "time": 175.03125,
          "velocity": 0.33070866141732286
        },
        {
          "duration": 0.39375000000001137,
          "durationTicks": 504,
          "midi": 53,
          "name": "F3",
          "ticks": 224640,
          "time": 175.5,
          "velocity": 0.6377952755905512
        },
        {
          "duration": 0.3671875,
          "durationTicks": 470,
          "midi": 45,
          "name": "A2",
          "ticks": 225120,
          "time": 175.875,
          "velocity": 0.44881889763779526
        },
        {
          "duration": 0.3453125000000057,
          "durationTicks": 442,
          "midi": 48,
          "name": "C3",
          "ticks": 225600,
          "time": 176.25,
          "velocity": 0.5748031496062992
        },
        {
          "duration": 0.35468750000001137,
          "durationTicks": 454,
          "midi": 50,
          "name": "D3",
          "ticks": 226080,
          "time": 176.625,
          "velocity": 0.5748031496062992
        },
        {
          "duration": 0.3765625000000057,
          "durationTicks": 482,
          "midi": 38,
          "name": "D2",
          "ticks": 226560,
          "time": 177,
          "velocity": 0.44881889763779526
        },
        {
          "duration": 0.3851562499999943,
          "durationTicks": 493,
          "midi": 41,
          "name": "F2",
          "ticks": 227040,
          "time": 177.375,
          "velocity": 0.44881889763779526
        },
        {
          "duration": 0.35468750000001137,
          "durationTicks": 454,
          "midi": 43,
          "name": "G2",
          "ticks": 227520,
          "time": 177.75,
          "velocity": 0.5748031496062992
        },
        {
          "duration": 0.35468750000001137,
          "durationTicks": 454,
          "midi": 46,
          "name": "A#2",
          "ticks": 228000,
          "time": 178.125,
          "velocity": 0.5118110236220472
        },
        {
          "duration": 0.37187499999998863,
          "durationTicks": 476,
          "midi": 50,
          "name": "D3",
          "ticks": 228480,
          "time": 178.5,
          "velocity": 0.5118110236220472
        },
        {
          "duration": 0.3695312499999943,
          "durationTicks": 473,
          "midi": 52,
          "name": "E3",
          "ticks": 228960,
          "time": 178.875,
          "velocity": 0.6377952755905512
        },
        {
          "duration": 0.36562500000002274,
          "durationTicks": 468,
          "midi": 44,
          "name": "G#2",
          "ticks": 229440,
          "time": 179.25,
          "velocity": 0.5748031496062992
        },
        {
          "duration": 0.3515625,
          "durationTicks": 450,
          "midi": 52,
          "name": "E3",
          "ticks": 229920,
          "time": 179.625,
          "velocity": 0.6377952755905512
        },
        {
          "duration": 0.38203125000001137,
          "durationTicks": 489,
          "midi": 49,
          "name": "C#3",
          "ticks": 230400,
          "time": 180,
          "velocity": 0.5748031496062992
        },
        {
          "duration": 0.3695312499999943,
          "durationTicks": 473,
          "midi": 37,
          "name": "C#2",
          "ticks": 230880,
          "time": 180.375,
          "velocity": 0.5118110236220472
        },
        {
          "duration": 0.38750000000001705,
          "durationTicks": 496,
          "midi": 49,
          "name": "C#3",
          "ticks": 231360,
          "time": 180.75,
          "velocity": 0.5118110236220472
        },
        {
          "duration": 0.33671874999998863,
          "durationTicks": 431,
          "midi": 48,
          "name": "C3",
          "ticks": 231840,
          "time": 181.125,
          "velocity": 0.5118110236220472
        },
        {
          "duration": 0.23515625000001705,
          "durationTicks": 301,
          "midi": 60,
          "name": "C4",
          "ticks": 232320,
          "time": 181.5,
          "velocity": 0.5748031496062992
        },
        {
          "duration": 0.08124999999998295,
          "durationTicks": 104,
          "midi": 48,
          "name": "C3",
          "ticks": 232680,
          "time": 181.78125,
          "velocity": 0.2204724409448819
        },
        {
          "duration": 0.22500000000002274,
          "durationTicks": 288,
          "midi": 60,
          "name": "C4",
          "ticks": 232800,
          "time": 181.875,
          "velocity": 0.5118110236220472
        },
        {
          "duration": 0.11093750000000568,
          "durationTicks": 142,
          "midi": 58,
          "name": "A#3",
          "ticks": 233160,
          "time": 182.15625,
          "velocity": 0.5118110236220472
        },
        {
          "duration": 0.37031250000001137,
          "durationTicks": 474,
          "midi": 59,
          "name": "B3",
          "ticks": 233280,
          "time": 182.25,
          "velocity": 0.44881889763779526
        },
        {
          "duration": 0.24843750000002274,
          "durationTicks": 318,
          "midi": 47,
          "name": "B2",
          "ticks": 233760,
          "time": 182.625,
          "velocity": 0.3937007874015748
        },
        {
          "duration": 0.21875,
          "durationTicks": 280,
          "midi": 59,
          "name": "B3",
          "ticks": 234120,
          "time": 182.90625,
          "velocity": 0.5118110236220472
        },
        {
          "duration": 0.23124999999998863,
          "durationTicks": 296,
          "midi": 47,
          "name": "B2",
          "ticks": 234360,
          "time": 183.09375,
          "velocity": 0.44881889763779526
        },
        {
          "duration": 0.34843749999998863,
          "durationTicks": 446,
          "midi": 48,
          "name": "C3",
          "ticks": 234720,
          "time": 183.375,
          "velocity": 0.44881889763779526
        },
        {
          "duration": 0.36249999999998295,
          "durationTicks": 464,
          "midi": 36,
          "name": "C2",
          "ticks": 235200,
          "time": 183.75,
          "velocity": 0.44881889763779526
        },
        {
          "duration": 0.37890625,
          "durationTicks": 485,
          "midi": 39,
          "name": "D#2",
          "ticks": 235680,
          "time": 184.125,
          "velocity": 0.5748031496062992
        },
        {
          "duration": 0.3734374999999943,
          "durationTicks": 478,
          "midi": 41,
          "name": "F2",
          "ticks": 236160,
          "time": 184.5,
          "velocity": 0.5748031496062992
        },
        {
          "duration": 0.3499999999999943,
          "durationTicks": 448,
          "midi": 48,
          "name": "C3",
          "ticks": 236640,
          "time": 184.875,
          "velocity": 0.5748031496062992
        },
        {
          "duration": 0.3687500000000057,
          "durationTicks": 472,
          "midi": 41,
          "name": "F2",
          "ticks": 237120,
          "time": 185.25,
          "velocity": 0.44881889763779526
        },
        {
          "duration": 0.36562500000002274,
          "durationTicks": 468,
          "midi": 46,
          "name": "A#2",
          "ticks": 237600,
          "time": 185.625,
          "velocity": 0.5118110236220472
        },
        {
          "duration": 0.3460937499999943,
          "durationTicks": 443,
          "midi": 58,
          "name": "A#3",
          "ticks": 238080,
          "time": 186,
          "velocity": 0.5118110236220472
        },
        {
          "duration": 0.35624999999998863,
          "durationTicks": 456,
          "midi": 57,
          "name": "A3",
          "ticks": 238560,
          "time": 186.375,
          "velocity": 0.44881889763779526
        },
        {
          "duration": 0.39609374999997726,
          "durationTicks": 507,
          "midi": 55,
          "name": "G3",
          "ticks": 239040,
          "time": 186.75,
          "velocity": 0.5118110236220472
        },
        {
          "duration": 0.35546875,
          "durationTicks": 455,
          "midi": 43,
          "name": "G2",
          "ticks": 239520,
          "time": 187.125,
          "velocity": 0.44881889763779526
        },
        {
          "duration": 0.3882812500000057,
          "durationTicks": 497,
          "midi": 50,
          "name": "D3",
          "ticks": 240000,
          "time": 187.5,
          "velocity": 0.5118110236220472
        },
        {
          "duration": 0.3921875000000057,
          "durationTicks": 502,
          "midi": 48,
          "name": "C3",
          "ticks": 240480,
          "time": 187.875,
          "velocity": 0.44881889763779526
        },
        {
          "duration": 0.34765625,
          "durationTicks": 445,
          "midi": 47,
          "name": "B2",
          "ticks": 240960,
          "time": 188.25,
          "velocity": 0.4251968503937008
        },
        {
          "duration": 0.35859375000001137,
          "durationTicks": 459,
          "midi": 46,
          "name": "A#2",
          "ticks": 241440,
          "time": 188.625,
          "velocity": 0.5118110236220472
        },
        {
          "duration": 0.3515625,
          "durationTicks": 450,
          "midi": 45,
          "name": "A2",
          "ticks": 241920,
          "time": 189,
          "velocity": 0.5118110236220472
        },
        {
          "duration": 0.36249999999998295,
          "durationTicks": 464,
          "midi": 45,
          "name": "A2",
          "ticks": 242400,
          "time": 189.375,
          "velocity": 0.5118110236220472
        },
        {
          "duration": 0.38359374999998863,
          "durationTicks": 491,
          "midi": 39,
          "name": "D#2",
          "ticks": 242880,
          "time": 189.75,
          "velocity": 0.5748031496062992
        },
        {
          "duration": 0.38984375000001137,
          "durationTicks": 499,
          "midi": 38,
          "name": "D2",
          "ticks": 243360,
          "time": 190.125,
          "velocity": 0.44881889763779526
        },
        {
          "duration": 0.3804687500000057,
          "durationTicks": 487,
          "midi": 50,
          "name": "D3",
          "ticks": 243840,
          "time": 190.5,
          "velocity": 0.5748031496062992
        },
        {
          "duration": 0.3765625000000057,
          "durationTicks": 482,
          "midi": 44,
          "name": "G#2",
          "ticks": 244320,
          "time": 190.875,
          "velocity": 0.44881889763779526
        },
        {
          "duration": 0.234375,
          "durationTicks": 300,
          "midi": 43,
          "name": "G2",
          "ticks": 244800,
          "time": 191.25,
          "velocity": 0.3937007874015748
        },
        {
          "duration": 0.10390624999999432,
          "durationTicks": 133,
          "midi": 46,
          "name": "A#2",
          "ticks": 245160,
          "time": 191.53125,
          "velocity": 0.44881889763779526
        },
        {
          "duration": 0.25312500000001137,
          "durationTicks": 324,
          "midi": 50,
          "name": "D3",
          "ticks": 245280,
          "time": 191.625,
          "velocity": 0.6377952755905512
        },
        {
          "duration": 0.10234374999998863,
          "durationTicks": 131,
          "midi": 43,
          "name": "G2",
          "ticks": 245640,
          "time": 191.90625,
          "velocity": 0.36220472440944884
        },
        {
          "duration": 0.34765625,
          "durationTicks": 445,
          "midi": 49,
          "name": "C#3",
          "ticks": 245760,
          "time": 192,
          "velocity": 0.5118110236220472
        },
        {
          "duration": 0.26093750000001137,
          "durationTicks": 334,
          "midi": 48,
          "name": "C3",
          "ticks": 246240,
          "time": 192.375,
          "velocity": 0.36220472440944884
        },
        {
          "duration": 0.47812499999997726,
          "durationTicks": 612,
          "midi": 40,
          "name": "E2",
          "ticks": 246600,
          "time": 192.65625,
          "velocity": 0.3937007874015748
        },
        {
          "duration": 0.34765625,
          "durationTicks": 445,
          "midi": 43,
          "name": "G2",
          "ticks": 247200,
          "time": 193.125,
          "velocity": 0.5118110236220472
        },
        {
          "duration": 0.36562500000002274,
          "durationTicks": 468,
          "midi": 41,
          "name": "F2",
          "ticks": 247680,
          "time": 193.5,
          "velocity": 0.3937007874015748
        },
        {
          "duration": 0.23515624999998863,
          "durationTicks": 301,
          "midi": 48,
          "name": "C3",
          "ticks": 248160,
          "time": 193.875,
          "velocity": 0.6377952755905512
        },
        {
          "duration": 0.07890624999998863,
          "durationTicks": 101,
          "midi": 41,
          "name": "F2",
          "ticks": 248520,
          "time": 194.15625,
          "velocity": 0.5118110236220472
        },
        {
          "duration": 0.34062499999998863,
          "durationTicks": 436,
          "midi": 49,
          "name": "C#3",
          "ticks": 248640,
          "time": 194.25,
          "velocity": 0.5118110236220472
        },
        {
          "duration": 0.19921875,
          "durationTicks": 255,
          "midi": 50,
          "name": "D3",
          "ticks": 249120,
          "time": 194.625,
          "velocity": 0.30708661417322836
        },
        {
          "duration": 0.1156249999999659,
          "durationTicks": 148,
          "midi": 45,
          "name": "A2",
          "ticks": 249480,
          "time": 194.90625,
          "velocity": 0.6377952755905512
        },
        {
          "duration": 0.34921874999997726,
          "durationTicks": 447,
          "midi": 38,
          "name": "D2",
          "ticks": 249600,
          "time": 195,
          "velocity": 0.4251968503937008
        },
        {
          "duration": 0.1976562499999659,
          "durationTicks": 253,
          "midi": 50,
          "name": "D3",
          "ticks": 250080,
          "time": 195.375,
          "velocity": 0.4251968503937008
        },
        {
          "duration": 0.1304687500000341,
          "durationTicks": 167,
          "midi": 44,
          "name": "G#2",
          "ticks": 250440,
          "time": 195.65625,
          "velocity": 0.7086614173228346
        },
        {
          "duration": 0.20859374999997726,
          "durationTicks": 267,
          "midi": 43,
          "name": "G2",
          "ticks": 250560,
          "time": 195.75,
          "velocity": 0.30708661417322836
        },
        {
          "duration": 0.12187500000001705,
          "durationTicks": 156,
          "midi": 55,
          "name": "G3",
          "ticks": 250920,
          "time": 196.03125,
          "velocity": 0.5118110236220472
        },
        {
          "duration": 0.33749999999997726,
          "durationTicks": 432,
          "midi": 43,
          "name": "G2",
          "ticks": 251040,
          "time": 196.125,
          "velocity": 0.33858267716535434
        },
        {
          "duration": 0.21718749999999432,
          "durationTicks": 278,
          "midi": 50,
          "name": "D3",
          "ticks": 251520,
          "time": 196.5,
          "velocity": 0.44881889763779526
        },
        {
          "duration": 0.12656249999997726,
          "durationTicks": 162,
          "midi": 51,
          "name": "D#3",
          "ticks": 251880,
          "time": 196.78125,
          "velocity": 0.44881889763779526
        },
        {
          "duration": 0.38359374999998863,
          "durationTicks": 491,
          "midi": 52,
          "name": "E3",
          "ticks": 252000,
          "time": 196.875,
          "velocity": 0.2204724409448819
        },
        {
          "duration": 0.28203124999998863,
          "durationTicks": 361,
          "midi": 40,
          "name": "E2",
          "ticks": 252480,
          "time": 197.25,
          "velocity": 0.4251968503937008
        },
        {
          "duration": 0.18515624999997726,
          "durationTicks": 237,
          "midi": 52,
          "name": "E3",
          "ticks": 252840,
          "time": 197.53125,
          "velocity": 0.5118110236220472
        },
        {
          "duration": 0.1859374999999659,
          "durationTicks": 238,
          "midi": 50,
          "name": "D3",
          "ticks": 253080,
          "time": 197.71875,
          "velocity": 0.5118110236220472
        },
        {
          "duration": 0.39453125,
          "durationTicks": 505,
          "midi": 49,
          "name": "C#3",
          "ticks": 253440,
          "time": 198,
          "velocity": 0.5118110236220472
        },
        {
          "duration": 0.37421875000001137,
          "durationTicks": 479,
          "midi": 37,
          "name": "C#2",
          "ticks": 253920,
          "time": 198.375,
          "velocity": 0.6377952755905512
        },
        {
          "duration": 0.33203125,
          "durationTicks": 425,
          "midi": 49,
          "name": "C#3",
          "ticks": 254400,
          "time": 198.75,
          "velocity": 0.5118110236220472
        },
        {
          "duration": 0.38203124999998295,
          "durationTicks": 489,
          "midi": 48,
          "name": "C3",
          "ticks": 254880,
          "time": 199.125,
          "velocity": 0.4251968503937008
        },
        {
          "duration": 0.24531250000001137,
          "durationTicks": 314,
          "midi": 36,
          "name": "C2",
          "ticks": 255360,
          "time": 199.5,
          "velocity": 0.4251968503937008
        },
        {
          "duration": 0.3515625,
          "durationTicks": 450,
          "midi": 48,
          "name": "C3",
          "ticks": 255720,
          "time": 199.78125,
          "velocity": 0.5118110236220472
        },
        {
          "duration": 0.1171875,
          "durationTicks": 150,
          "midi": 46,
          "name": "A#2",
          "ticks": 256200,
          "time": 200.15625,
          "velocity": 0.44881889763779526
        },
        {
          "duration": 0.30937500000001705,
          "durationTicks": 396,
          "midi": 47,
          "name": "B2",
          "ticks": 256320,
          "time": 200.25,
          "velocity": 0.5118110236220472
        },
        {
          "duration": 0.35859374999998295,
          "durationTicks": 459,
          "midi": 47,
          "name": "B2",
          "ticks": 256800,
          "time": 200.625,
          "velocity": 0.5118110236220472
        },
        {
          "duration": 0.33984375,
          "durationTicks": 435,
          "midi": 47,
          "name": "B2",
          "ticks": 257280,
          "time": 201,
          "velocity": 0.44881889763779526
        },
        {
          "duration": 0.38593750000001137,
          "durationTicks": 494,
          "midi": 48,
          "name": "C3",
          "ticks": 257760,
          "time": 201.375,
          "velocity": 0.4251968503937008
        },
        {
          "duration": 0.3695312499999943,
          "durationTicks": 473,
          "midi": 40,
          "name": "E2",
          "ticks": 258240,
          "time": 201.75,
          "velocity": 0.5118110236220472
        },
        {
          "duration": 0.35078125000001137,
          "durationTicks": 449,
          "midi": 43,
          "name": "G2",
          "ticks": 258720,
          "time": 202.125,
          "velocity": 0.5118110236220472
        },
        {
          "duration": 0.37578124999998863,
          "durationTicks": 481,
          "midi": 41,
          "name": "F2",
          "ticks": 259200,
          "time": 202.5,
          "velocity": 0.44881889763779526
        },
        {
          "duration": 0.24374999999997726,
          "durationTicks": 312,
          "midi": 53,
          "name": "F3",
          "ticks": 259680,
          "time": 202.875,
          "velocity": 0.5748031496062992
        },
        {
          "duration": 0.10624999999998863,
          "durationTicks": 136,
          "midi": 41,
          "name": "F2",
          "ticks": 260040,
          "time": 203.15625,
          "velocity": 0.36220472440944884
        },
        {
          "duration": 0.33749999999997726,
          "durationTicks": 432,
          "midi": 45,
          "name": "A2",
          "ticks": 260160,
          "time": 203.25,
          "velocity": 0.6377952755905512
        },
        {
          "duration": 0.2210937499999659,
          "durationTicks": 283,
          "midi": 46,
          "name": "A#2",
          "ticks": 260640,
          "time": 203.625,
          "velocity": 0.4251968503937008
        },
        {
          "duration": 0.22187500000001137,
          "durationTicks": 284,
          "midi": 46,
          "name": "A#2",
          "ticks": 260640,
          "time": 203.625,
          "velocity": 0.44881889763779526
        },
        {
          "duration": 0.09453124999998863,
          "durationTicks": 121,
          "midi": 58,
          "name": "A#3",
          "ticks": 261000,
          "time": 203.90625,
          "velocity": 0.6377952755905512
        },
        {
          "duration": 0.3765625000000341,
          "durationTicks": 482,
          "midi": 50,
          "name": "D3",
          "ticks": 261120,
          "time": 204,
          "velocity": 0.5118110236220472
        },
        {
          "duration": 0.38984375000001137,
          "durationTicks": 499,
          "midi": 53,
          "name": "F3",
          "ticks": 261600,
          "time": 204.375,
          "velocity": 0.5118110236220472
        },
        {
          "duration": 0.3648437500000341,
          "durationTicks": 467,
          "midi": 59,
          "name": "B3",
          "ticks": 262080,
          "time": 204.75,
          "velocity": 0.44881889763779526
        },
        {
          "duration": 0.0546875,
          "durationTicks": 70,
          "midi": 57,
          "name": "A3",
          "ticks": 262200,
          "time": 204.84375,
          "velocity": 0.11023622047244094
        },
        {
          "duration": 0.35859374999998295,
          "durationTicks": 459,
          "midi": 47,
          "name": "B2",
          "ticks": 262560,
          "time": 205.125,
          "velocity": 0.5118110236220472
        },
        {
          "duration": 0.2242187500000341,
          "durationTicks": 287,
          "midi": 50,
          "name": "D3",
          "ticks": 263040,
          "time": 205.5,
          "velocity": 0.4251968503937008
        },
        {
          "duration": 0.11953125000002274,
          "durationTicks": 153,
          "midi": 51,
          "name": "D#3",
          "ticks": 263400,
          "time": 205.78125,
          "velocity": 0.6377952755905512
        },
        {
          "duration": 0.35546875,
          "durationTicks": 455,
          "midi": 52,
          "name": "E3",
          "ticks": 263520,
          "time": 205.875,
          "velocity": 0.44881889763779526
        },
        {
          "duration": 0.35546875,
          "durationTicks": 455,
          "midi": 44,
          "name": "G#2",
          "ticks": 264000,
          "time": 206.25,
          "velocity": 0.5118110236220472
        },
        {
          "duration": 0.3531250000000341,
          "durationTicks": 452,
          "midi": 52,
          "name": "E3",
          "ticks": 264480,
          "time": 206.625,
          "velocity": 0.5748031496062992
        },
        {
          "duration": 0.37578124999998863,
          "durationTicks": 481,
          "midi": 49,
          "name": "C#3",
          "ticks": 264960,
          "time": 207,
          "velocity": 0.4251968503937008
        },
        {
          "duration": 0.3695312499999943,
          "durationTicks": 473,
          "midi": 61,
          "name": "C#4",
          "ticks": 265440,
          "time": 207.375,
          "velocity": 0.5118110236220472
        },
        {
          "duration": 0.34296875000001137,
          "durationTicks": 439,
          "midi": 49,
          "name": "C#3",
          "ticks": 265920,
          "time": 207.75,
          "velocity": 0.5748031496062992
        },
        {
          "duration": 0.39453125,
          "durationTicks": 505,
          "midi": 47,
          "name": "B2",
          "ticks": 266400,
          "time": 208.125,
          "velocity": 0.44881889763779526
        },
        {
          "duration": 0.38203124999998295,
          "durationTicks": 489,
          "midi": 59,
          "name": "B3",
          "ticks": 266880,
          "time": 208.5,
          "velocity": 0.44881889763779526
        },
        {
          "duration": 0.36093749999997726,
          "durationTicks": 462,
          "midi": 47,
          "name": "B2",
          "ticks": 267360,
          "time": 208.875,
          "velocity": 0.5118110236220472
        },
        {
          "duration": 0.3984375,
          "durationTicks": 510,
          "midi": 45,
          "name": "A2",
          "ticks": 267840,
          "time": 209.25,
          "velocity": 0.44881889763779526
        },
        {
          "duration": 0.38906250000002274,
          "durationTicks": 498,
          "midi": 57,
          "name": "A3",
          "ticks": 268320,
          "time": 209.625,
          "velocity": 0.5118110236220472
        },
        {
          "duration": 0.24062499999999432,
          "durationTicks": 308,
          "midi": 45,
          "name": "A2",
          "ticks": 268800,
          "time": 210,
          "velocity": 0.36220472440944884
        },
        {
          "duration": 0.109375,
          "durationTicks": 140,
          "midi": 57,
          "name": "A3",
          "ticks": 269160,
          "time": 210.28125,
          "velocity": 0.5118110236220472
        },
        {
          "duration": 0.22187500000001137,
          "durationTicks": 284,
          "midi": 56,
          "name": "G#3",
          "ticks": 269280,
          "time": 210.375,
          "velocity": 0.4251968503937008
        },
        {
          "duration": 0.12109375,
          "durationTicks": 155,
          "midi": 51,
          "name": "D#3",
          "ticks": 269640,
          "time": 210.65625,
          "velocity": 0.5748031496062992
        },
        {
          "duration": 0.3578124999999943,
          "durationTicks": 458,
          "midi": 44,
          "name": "G#2",
          "ticks": 269760,
          "time": 210.75,
          "velocity": 0.5118110236220472
        },
        {
          "duration": 0.203125,
          "durationTicks": 260,
          "midi": 56,
          "name": "G#3",
          "ticks": 270240,
          "time": 211.125,
          "velocity": 0.5118110236220472
        },
        {
          "duration": 0.12187500000001705,
          "durationTicks": 156,
          "midi": 44,
          "name": "G#2",
          "ticks": 270600,
          "time": 211.40625,
          "velocity": 0.44881889763779526
        },
        {
          "duration": 0.2578125,
          "durationTicks": 330,
          "midi": 43,
          "name": "G2",
          "ticks": 270720,
          "time": 211.5,
          "velocity": 0.5118110236220472
        },
        {
          "duration": 0.10546875,
          "durationTicks": 135,
          "midi": 55,
          "name": "G3",
          "ticks": 271080,
          "time": 211.78125,
          "velocity": 0.5748031496062992
        },
        {
          "duration": 0.34218750000002274,
          "durationTicks": 438,
          "midi": 43,
          "name": "G2",
          "ticks": 271200,
          "time": 211.875,
          "velocity": 0.4251968503937008
        },
        {
          "duration": 0.21796874999998295,
          "durationTicks": 279,
          "midi": 50,
          "name": "D3",
          "ticks": 271680,
          "time": 212.25,
          "velocity": 0.6377952755905512
        },
        {
          "duration": 0.1070312500000341,
          "durationTicks": 137,
          "midi": 49,
          "name": "C#3",
          "ticks": 272040,
          "time": 212.53125,
          "velocity": 0.5118110236220472
        },
        {
          "duration": 0.23203124999997726,
          "durationTicks": 297,
          "midi": 48,
          "name": "C3",
          "ticks": 272160,
          "time": 212.625,
          "velocity": 0.44881889763779526
        },
        {
          "duration": 0.11640625000001137,
          "durationTicks": 149,
          "midi": 40,
          "name": "E2",
          "ticks": 272520,
          "time": 212.90625,
          "velocity": 0.4251968503937008
        },
        {
          "duration": 0.35625000000001705,
          "durationTicks": 456,
          "midi": 43,
          "name": "G2",
          "ticks": 272640,
          "time": 213,
          "velocity": 0.5748031496062992
        },
        {
          "duration": 0.35468750000001137,
          "durationTicks": 454,
          "midi": 44,
          "name": "G#2",
          "ticks": 273120,
          "time": 213.375,
          "velocity": 0.5118110236220472
        },
        {
          "duration": 0.3570312500000057,
          "durationTicks": 457,
          "midi": 45,
          "name": "A2",
          "ticks": 273600,
          "time": 213.75,
          "velocity": 0.44881889763779526
        },
        {
          "duration": 0.20468750000000568,
          "durationTicks": 262,
          "midi": 52,
          "name": "E3",
          "ticks": 274080,
          "time": 214.125,
          "velocity": 0.5748031496062992
        },
        {
          "duration": 0.09453124999998863,
          "durationTicks": 121,
          "midi": 45,
          "name": "A2",
          "ticks": 274440,
          "time": 214.40625,
          "velocity": 0.18110236220472442
        },
        {
          "duration": 0.2328124999999659,
          "durationTicks": 298,
          "midi": 51,
          "name": "D#3",
          "ticks": 274560,
          "time": 214.5,
          "velocity": 0.5118110236220472
        },
        {
          "duration": 0.0953125000000341,
          "durationTicks": 122,
          "midi": 45,
          "name": "A2",
          "ticks": 274920,
          "time": 214.78125,
          "velocity": 0.1889763779527559
        },
        {
          "duration": 0.234375,
          "durationTicks": 300,
          "midi": 50,
          "name": "D3",
          "ticks": 275040,
          "time": 214.875,
          "velocity": 0.28346456692913385
        },
        {
          "duration": 0.11953125000002274,
          "durationTicks": 153,
          "midi": 45,
          "name": "A2",
          "ticks": 275400,
          "time": 215.15625,
          "velocity": 0.5118110236220472
        },
        {
          "duration": 0.3531250000000341,
          "durationTicks": 452,
          "midi": 38,
          "name": "D2",
          "ticks": 275520,
          "time": 215.25,
          "velocity": 0.3937007874015748
        },
        {
          "duration": 0.24609375,
          "durationTicks": 315,
          "midi": 45,
          "name": "A2",
          "ticks": 276000,
          "time": 215.625,
          "velocity": 0.5118110236220472
        },
        {
          "duration": 0.11953125000002274,
          "durationTicks": 153,
          "midi": 44,
          "name": "G#2",
          "ticks": 276360,
          "time": 215.90625,
          "velocity": 0.36220472440944884
        },
        {
          "duration": 0.35625000000001705,
          "durationTicks": 456,
          "midi": 43,
          "name": "G2",
          "ticks": 276480,
          "time": 216,
          "velocity": 0.30708661417322836
        },
        {
          "duration": 0.3671875,
          "durationTicks": 470,
          "midi": 46,
          "name": "A#2",
          "ticks": 276960,
          "time": 216.375,
          "velocity": 0.5118110236220472
        },
        {
          "duration": 0.3578124999999943,
          "durationTicks": 458,
          "midi": 50,
          "name": "D3",
          "ticks": 277440,
          "time": 216.75,
          "velocity": 0.5118110236220472
        },
        {
          "duration": 0.36640625000001137,
          "durationTicks": 469,
          "midi": 49,
          "name": "C#3",
          "ticks": 277920,
          "time": 217.125,
          "velocity": 0.44881889763779526
        },
        {
          "duration": 0.359375,
          "durationTicks": 460,
          "midi": 52,
          "name": "E3",
          "ticks": 278400,
          "time": 217.5,
          "velocity": 0.5118110236220472
        },
        {
          "duration": 0.3687500000000057,
          "durationTicks": 472,
          "midi": 57,
          "name": "A3",
          "ticks": 278880,
          "time": 217.875,
          "velocity": 0.44881889763779526
        },
        {
          "duration": 0.36406249999998863,
          "durationTicks": 466,
          "midi": 50,
          "name": "D3",
          "ticks": 279360,
          "time": 218.25,
          "velocity": 0.44881889763779526
        },
        {
          "duration": 0.36093749999997726,
          "durationTicks": 462,
          "midi": 53,
          "name": "F3",
          "ticks": 279840,
          "time": 218.625,
          "velocity": 0.4251968503937008
        },
        {
          "duration": 0.2359375000000341,
          "durationTicks": 302,
          "midi": 57,
          "name": "A3",
          "ticks": 280320,
          "time": 219,
          "velocity": 0.5118110236220472
        },
        {
          "duration": 0.1015625,
          "durationTicks": 130,
          "midi": 52,
          "name": "E3",
          "ticks": 280680,
          "time": 219.28125,
          "velocity": 0.28346456692913385
        },
        {
          "duration": 0.23124999999998863,
          "durationTicks": 296,
          "midi": 53,
          "name": "F3",
          "ticks": 280800,
          "time": 219.375,
          "velocity": 0.5748031496062992
        },
        {
          "duration": 0.12578124999998863,
          "durationTicks": 161,
          "midi": 48,
          "name": "C3",
          "ticks": 281160,
          "time": 219.65625,
          "velocity": 0.44881889763779526
        },
        {
          "duration": 0.24531250000001137,
          "durationTicks": 314,
          "midi": 45,
          "name": "A2",
          "ticks": 281280,
          "time": 219.75,
          "velocity": 0.3937007874015748
        },
        {
          "duration": 0.13593749999998295,
          "durationTicks": 174,
          "midi": 48,
          "name": "C3",
          "ticks": 281640,
          "time": 220.03125,
          "velocity": 0.5118110236220472
        },
        {
          "duration": 0.34218750000002274,
          "durationTicks": 438,
          "midi": 47,
          "name": "B2",
          "ticks": 281760,
          "time": 220.125,
          "velocity": 0.5118110236220472
        },
        {
          "duration": 0.35468750000001137,
          "durationTicks": 454,
          "midi": 46,
          "name": "A#2",
          "ticks": 282240,
          "time": 220.5,
          "velocity": 0.4251968503937008
        },
        {
          "duration": 0.36562500000002274,
          "durationTicks": 468,
          "midi": 38,
          "name": "D2",
          "ticks": 282720,
          "time": 220.875,
          "velocity": 0.44881889763779526
        },
        {
          "duration": 0.2476562500000341,
          "durationTicks": 317,
          "midi": 46,
          "name": "A#2",
          "ticks": 283200,
          "time": 221.25,
          "velocity": 0.5118110236220472
        },
        {
          "duration": 0.125,
          "durationTicks": 160,
          "midi": 44,
          "name": "G#2",
          "ticks": 283560,
          "time": 221.53125,
          "velocity": 0.30708661417322836
        },
        {
          "duration": 0.02734375,
          "durationTicks": 35,
          "midi": 43,
          "name": "G2",
          "ticks": 283680,
          "time": 221.625,
          "velocity": 0.11023622047244094
        },
        {
          "duration": 0.3460937499999943,
          "durationTicks": 443,
          "midi": 45,
          "name": "A2",
          "ticks": 283680,
          "time": 221.625,
          "velocity": 0.1968503937007874
        },
        {
          "duration": 0.35390625000002274,
          "durationTicks": 453,
          "midi": 57,
          "name": "A3",
          "ticks": 284160,
          "time": 222,
          "velocity": 0.5748031496062992
        },
        {
          "duration": 0.3617187499999659,
          "durationTicks": 463,
          "midi": 49,
          "name": "C#3",
          "ticks": 284640,
          "time": 222.375,
          "velocity": 0.44881889763779526
        },
        {
          "duration": 0.37812500000001137,
          "durationTicks": 484,
          "midi": 50,
          "name": "D3",
          "ticks": 285120,
          "time": 222.75,
          "velocity": 0.4251968503937008
        },
        {
          "duration": 0.359375,
          "durationTicks": 460,
          "midi": 45,
          "name": "A2",
          "ticks": 285600,
          "time": 223.125,
          "velocity": 0.4251968503937008
        },
        {
          "duration": 0.37421875000001137,
          "durationTicks": 479,
          "midi": 38,
          "name": "D2",
          "ticks": 286080,
          "time": 223.5,
          "velocity": 0.44881889763779526
        },
        {
          "duration": 0.37812500000001137,
          "durationTicks": 484,
          "midi": 40,
          "name": "E2",
          "ticks": 286560,
          "time": 223.875,
          "velocity": 0.4251968503937008
        },
        {
          "duration": 0.35234374999998863,
          "durationTicks": 451,
          "midi": 52,
          "name": "E3",
          "ticks": 287040,
          "time": 224.25,
          "velocity": 0.6377952755905512
        },
        {
          "duration": 0.35625000000001705,
          "durationTicks": 456,
          "midi": 44,
          "name": "G#2",
          "ticks": 287520,
          "time": 224.625,
          "velocity": 0.3937007874015748
        },
        {
          "duration": 0.34843749999998863,
          "durationTicks": 446,
          "midi": 45,
          "name": "A2",
          "ticks": 288000,
          "time": 225,
          "velocity": 0.3937007874015748
        },
        {
          "duration": 0.4039062500000057,
          "durationTicks": 517,
          "midi": 48,
          "name": "C3",
          "ticks": 288480,
          "time": 225.375,
          "velocity": 0.44881889763779526
        },
        {
          "duration": 0.3617187499999659,
          "durationTicks": 463,
          "midi": 50,
          "name": "D3",
          "ticks": 288960,
          "time": 225.75,
          "velocity": 0.44881889763779526
        },
        {
          "duration": 0.37890625,
          "durationTicks": 485,
          "midi": 51,
          "name": "D#3",
          "ticks": 289440,
          "time": 226.125,
          "velocity": 0.5118110236220472
        },
        {
          "duration": 0.34062499999998863,
          "durationTicks": 436,
          "midi": 44,
          "name": "G#2",
          "ticks": 289920,
          "time": 226.5,
          "velocity": 0.33858267716535434
        },
        {
          "duration": 0.35625000000001705,
          "durationTicks": 456,
          "midi": 51,
          "name": "D#3",
          "ticks": 290400,
          "time": 226.875,
          "velocity": 0.44881889763779526
        },
        {
          "duration": 0.2593750000000341,
          "durationTicks": 332,
          "midi": 55,
          "name": "G3",
          "ticks": 290880,
          "time": 227.25,
          "velocity": 0.44881889763779526
        },
        {
          "duration": 0.12343749999999432,
          "durationTicks": 158,
          "midi": 50,
          "name": "D3",
          "ticks": 291240,
          "time": 227.53125,
          "velocity": 0.44881889763779526
        },
        {
          "duration": 0.34687499999998295,
          "durationTicks": 444,
          "midi": 43,
          "name": "G2",
          "ticks": 291360,
          "time": 227.625,
          "velocity": 0.4251968503937008
        },
        {
          "duration": 0.37265624999997726,
          "durationTicks": 477,
          "midi": 50,
          "name": "D3",
          "ticks": 291840,
          "time": 228,
          "velocity": 0.44881889763779526
        },
        {
          "duration": 0.375,
          "durationTicks": 480,
          "midi": 42,
          "name": "F#2",
          "ticks": 292320,
          "time": 228.375,
          "velocity": 0.3937007874015748
        },
        {
          "duration": 0.24609375,
          "durationTicks": 315,
          "midi": 49,
          "name": "C#3",
          "ticks": 292800,
          "time": 228.75,
          "velocity": 0.36220472440944884
        },
        {
          "duration": 0.20390625000001705,
          "durationTicks": 261,
          "midi": 54,
          "name": "F#3",
          "ticks": 293160,
          "time": 229.03125,
          "velocity": 0.44881889763779526
        },
        {
          "duration": 0.24921875000001137,
          "durationTicks": 319,
          "midi": 49,
          "name": "C#3",
          "ticks": 293400,
          "time": 229.21875,
          "velocity": 0.36220472440944884
        },
        {
          "duration": 0.37734375000002274,
          "durationTicks": 483,
          "midi": 53,
          "name": "F3",
          "ticks": 293760,
          "time": 229.5,
          "velocity": 0.3937007874015748
        },
        {
          "duration": 0.37031249999998295,
          "durationTicks": 474,
          "midi": 48,
          "name": "C3",
          "ticks": 294240,
          "time": 229.875,
          "velocity": 0.44881889763779526
        },
        {
          "duration": 0.2593750000000341,
          "durationTicks": 332,
          "midi": 41,
          "name": "F2",
          "ticks": 294720,
          "time": 230.25,
          "velocity": 0.44881889763779526
        },
        {
          "duration": 0.1304687500000341,
          "durationTicks": 167,
          "midi": 40,
          "name": "E2",
          "ticks": 295080,
          "time": 230.53125,
          "velocity": 0.36220472440944884
        },
        {
          "duration": 0.21015625000001137,
          "durationTicks": 269,
          "midi": 38,
          "name": "D2",
          "ticks": 295200,
          "time": 230.625,
          "velocity": 0.3937007874015748
        },
        {
          "duration": 0.12187500000001705,
          "durationTicks": 156,
          "midi": 50,
          "name": "D3",
          "ticks": 295560,
          "time": 230.90625,
          "velocity": 0.6377952755905512
        },
        {
          "duration": 0.36250000000001137,
          "durationTicks": 464,
          "midi": 38,
          "name": "D2",
          "ticks": 295680,
          "time": 231,
          "velocity": 0.36220472440944884
        },
        {
          "duration": 0.20468750000000568,
          "durationTicks": 262,
          "midi": 41,
          "name": "F2",
          "ticks": 296160,
          "time": 231.375,
          "velocity": 0.28346456692913385
        },
        {
          "duration": 0.13437500000000568,
          "durationTicks": 172,
          "midi": 42,
          "name": "F#2",
          "ticks": 296520,
          "time": 231.65625,
          "velocity": 0.5748031496062992
        },
        {
          "duration": 0.234375,
          "durationTicks": 300,
          "midi": 43,
          "name": "G2",
          "ticks": 296640,
          "time": 231.75,
          "velocity": 0.16535433070866143
        },
        {
          "duration": 0.36015624999998863,
          "durationTicks": 461,
          "midi": 55,
          "name": "G3",
          "ticks": 297000,
          "time": 232.03125,
          "velocity": 0.5748031496062992
        },
        {
          "duration": 0.21640625000000568,
          "durationTicks": 277,
          "midi": 43,
          "name": "G2",
          "ticks": 297480,
          "time": 232.40625,
          "velocity": 0.36220472440944884
        },
        {
          "duration": 0.08750000000000568,
          "durationTicks": 112,
          "midi": 50,
          "name": "D3",
          "ticks": 297720,
          "time": 232.59375,
          "velocity": 0.28346456692913385
        },
        {
          "duration": 0.09921875000000568,
          "durationTicks": 127,
          "midi": 51,
          "name": "D#3",
          "ticks": 297960,
          "time": 232.78125,
          "velocity": 0.36220472440944884
        },
        {
          "duration": 0.36640625000001137,
          "durationTicks": 469,
          "midi": 52,
          "name": "E3",
          "ticks": 298080,
          "time": 232.875,
          "velocity": 0.5118110236220472
        },
        {
          "duration": 0.2007812500000341,
          "durationTicks": 257,
          "midi": 40,
          "name": "E2",
          "ticks": 298560,
          "time": 233.25,
          "velocity": 0.3937007874015748
        },
        {
          "duration": 0.234375,
          "durationTicks": 300,
          "midi": 40,
          "name": "E2",
          "ticks": 298920,
          "time": 233.53125,
          "velocity": 0.5118110236220472
        },
        {
          "duration": 0.27734375,
          "durationTicks": 355,
          "midi": 38,
          "name": "D2",
          "ticks": 299160,
          "time": 233.71875,
          "velocity": 0.4251968503937008
        },
        {
          "duration": 0.40703124999998863,
          "durationTicks": 521,
          "midi": 37,
          "name": "C#2",
          "ticks": 299520,
          "time": 234,
          "velocity": 0.5748031496062992
        },
        {
          "duration": 0.35546875,
          "durationTicks": 455,
          "midi": 49,
          "name": "C#3",
          "ticks": 300000,
          "time": 234.375,
          "velocity": 0.5118110236220472
        },
        {
          "duration": 0.3578124999999943,
          "durationTicks": 458,
          "midi": 37,
          "name": "C#2",
          "ticks": 300480,
          "time": 234.75,
          "velocity": 0.36220472440944884
        },
        {
          "duration": 0.35625000000001705,
          "durationTicks": 456,
          "midi": 48,
          "name": "C3",
          "ticks": 300960,
          "time": 235.125,
          "velocity": 0.5118110236220472
        },
        {
          "duration": 0.3765625000000341,
          "durationTicks": 482,
          "midi": 36,
          "name": "C2",
          "ticks": 301440,
          "time": 235.5,
          "velocity": 0.36220472440944884
        },
        {
          "duration": 0.35234374999998863,
          "durationTicks": 451,
          "midi": 48,
          "name": "C3",
          "ticks": 301920,
          "time": 235.875,
          "velocity": 0.5118110236220472
        },
        {
          "duration": 0.35546875,
          "durationTicks": 455,
          "midi": 47,
          "name": "B2",
          "ticks": 302400,
          "time": 236.25,
          "velocity": 0.2204724409448819
        },
        {
          "duration": 0.37031249999998295,
          "durationTicks": 474,
          "midi": 55,
          "name": "G3",
          "ticks": 302880,
          "time": 236.625,
          "velocity": 0.5748031496062992
        },
        {
          "duration": 0.3570312500000057,
          "durationTicks": 457,
          "midi": 47,
          "name": "B2",
          "ticks": 303360,
          "time": 237,
          "velocity": 0.33858267716535434
        },
        {
          "duration": 0.21406250000001137,
          "durationTicks": 274,
          "midi": 48,
          "name": "C3",
          "ticks": 303840,
          "time": 237.375,
          "velocity": 0.2125984251968504
        },
        {
          "duration": 0.33515624999998295,
          "durationTicks": 429,
          "midi": 60,
          "name": "C4",
          "ticks": 304200,
          "time": 237.65625,
          "velocity": 0.5748031496062992
        },
        {
          "duration": 0.10546875,
          "durationTicks": 135,
          "midi": 48,
          "name": "C3",
          "ticks": 304680,
          "time": 238.03125,
          "velocity": 0.30708661417322836
        },
        {
          "duration": 0.2242187500000341,
          "durationTicks": 287,
          "midi": 52,
          "name": "E3",
          "ticks": 304800,
          "time": 238.125,
          "velocity": 0.4251968503937008
        },
        {
          "duration": 0.09453124999998863,
          "durationTicks": 121,
          "midi": 48,
          "name": "C3",
          "ticks": 305160,
          "time": 238.40625,
          "velocity": 0.2204724409448819
        },
        {
          "duration": 0.21875,
          "durationTicks": 280,
          "midi": 53,
          "name": "F3",
          "ticks": 305280,
          "time": 238.5,
          "velocity": 0.4251968503937008
        },
        {
          "duration": 0.12421874999998295,
          "durationTicks": 159,
          "midi": 48,
          "name": "C3",
          "ticks": 305640,
          "time": 238.78125,
          "velocity": 0.5118110236220472
        },
        {
          "duration": 0.3414062500000341,
          "durationTicks": 437,
          "midi": 45,
          "name": "A2",
          "ticks": 305760,
          "time": 238.875,
          "velocity": 0.3937007874015748
        },
        {
          "duration": 0.25,
          "durationTicks": 320,
          "midi": 48,
          "name": "C3",
          "ticks": 306240,
          "time": 239.25,
          "velocity": 0.5118110236220472
        },
        {
          "duration": 0.1039062499999659,
          "durationTicks": 133,
          "midi": 47,
          "name": "B2",
          "ticks": 306600,
          "time": 239.53125,
          "velocity": 0.30708661417322836
        },
        {
          "duration": 0.35625000000001705,
          "durationTicks": 456,
          "midi": 46,
          "name": "A#2",
          "ticks": 306720,
          "time": 239.625,
          "velocity": 0.2125984251968504
        },
        {
          "duration": 0.36562500000002274,
          "durationTicks": 468,
          "midi": 53,
          "name": "F3",
          "ticks": 307200,
          "time": 240,
          "velocity": 0.5748031496062992
        },
        {
          "duration": 0.578125,
          "durationTicks": 740,
          "midi": 58,
          "name": "A#3",
          "ticks": 307680,
          "time": 240.375,
          "velocity": 0.4251968503937008
        },
        {
          "duration": 0.11406249999998863,
          "durationTicks": 146,
          "midi": 53,
          "name": "F3",
          "ticks": 308520,
          "time": 241.03125,
          "velocity": 0.5748031496062992
        },
        {
          "duration": 0.23203124999997726,
          "durationTicks": 297,
          "midi": 46,
          "name": "A#2",
          "ticks": 308640,
          "time": 241.125,
          "velocity": 0.3937007874015748
        },
        {
          "duration": 0.1156249999999659,
          "durationTicks": 148,
          "midi": 58,
          "name": "A#3",
          "ticks": 309000,
          "time": 241.40625,
          "velocity": 0.5118110236220472
        },
        {
          "duration": 0.06562499999998295,
          "durationTicks": 84,
          "midi": 48,
          "name": "C3",
          "ticks": 309120,
          "time": 241.5,
          "velocity": 0.11023622047244094
        },
        {
          "duration": 0.36250000000001137,
          "durationTicks": 464,
          "midi": 50,
          "name": "D3",
          "ticks": 309120,
          "time": 241.5,
          "velocity": 0.28346456692913385
        },
        {
          "duration": 0.3695312499999943,
          "durationTicks": 473,
          "midi": 51,
          "name": "D#3",
          "ticks": 309600,
          "time": 241.875,
          "velocity": 0.36220472440944884
        },
        {
          "duration": 0.35078125000001137,
          "durationTicks": 449,
          "midi": 43,
          "name": "G2",
          "ticks": 310080,
          "time": 242.25,
          "velocity": 0.4251968503937008
        },
        {
          "duration": 0.24140624999998295,
          "durationTicks": 309,
          "midi": 51,
          "name": "D#3",
          "ticks": 310560,
          "time": 242.625,
          "velocity": 0.5118110236220472
        },
        {
          "duration": 0.12343749999999432,
          "durationTicks": 158,
          "midi": 44,
          "name": "G#2",
          "ticks": 310920,
          "time": 242.90625,
          "velocity": 0.33858267716535434
        },
        {
          "duration": 0.4000000000000341,
          "durationTicks": 512,
          "midi": 45,
          "name": "A2",
          "ticks": 311040,
          "time": 243,
          "velocity": 0.5118110236220472
        },
        {
          "duration": 0.22343749999998863,
          "durationTicks": 286,
          "midi": 57,
          "name": "A3",
          "ticks": 311520,
          "time": 243.375,
          "velocity": 0.5748031496062992
        },
        {
          "duration": 0.11640625000001137,
          "durationTicks": 149,
          "midi": 45,
          "name": "A2",
          "ticks": 311880,
          "time": 243.65625,
          "velocity": 0.30708661417322836
        },
        {
          "duration": 0.35234374999998863,
          "durationTicks": 451,
          "midi": 49,
          "name": "C#3",
          "ticks": 312000,
          "time": 243.75,
          "velocity": 0.5118110236220472
        },
        {
          "duration": 0.35468750000001137,
          "durationTicks": 454,
          "midi": 50,
          "name": "D3",
          "ticks": 312480,
          "time": 244.125,
          "velocity": 0.3937007874015748
        },
        {
          "duration": 0.3695312499999943,
          "durationTicks": 473,
          "midi": 45,
          "name": "A2",
          "ticks": 312960,
          "time": 244.5,
          "velocity": 0.44881889763779526
        },
        {
          "duration": 0.375,
          "durationTicks": 480,
          "midi": 38,
          "name": "D2",
          "ticks": 313440,
          "time": 244.875,
          "velocity": 0.3937007874015748
        },
        {
          "duration": 0.62109375,
          "durationTicks": 795,
          "midi": 47,
          "name": "B2",
          "ticks": 313920,
          "time": 245.25,
          "velocity": 0.5118110236220472
        },
        {
          "duration": 0.22187500000001137,
          "durationTicks": 284,
          "midi": 42,
          "name": "F#2",
          "ticks": 314760,
          "time": 245.90625,
          "velocity": 0.5118110236220472
        },
        {
          "duration": 0.24609375,
          "durationTicks": 315,
          "midi": 41,
          "name": "F2",
          "ticks": 315000,
          "time": 246.09375,
          "velocity": 0.4251968503937008
        },
        {
          "duration": 0.37265624999997726,
          "durationTicks": 477,
          "midi": 40,
          "name": "E2",
          "ticks": 315360,
          "time": 246.375,
          "velocity": 0.3937007874015748
        },
        {
          "duration": 0.24531250000001137,
          "durationTicks": 314,
          "midi": 52,
          "name": "E3",
          "ticks": 315840,
          "time": 246.75,
          "velocity": 0.5118110236220472
        },
        {
          "duration": 0.11484374999997726,
          "durationTicks": 147,
          "midi": 40,
          "name": "E2",
          "ticks": 316200,
          "time": 247.03125,
          "velocity": 0.33858267716535434
        },
        {
          "duration": 0.3734374999999659,
          "durationTicks": 478,
          "midi": 44,
          "name": "G#2",
          "ticks": 316320,
          "time": 247.125,
          "velocity": 0.5748031496062992
        },
        {
          "duration": 0.24921875000001137,
          "durationTicks": 319,
          "midi": 45,
          "name": "A2",
          "ticks": 316800,
          "time": 247.5,
          "velocity": 0.4251968503937008
        },
        {
          "duration": 0.09609375000002274,
          "durationTicks": 123,
          "midi": 57,
          "name": "A3",
          "ticks": 317160,
          "time": 247.78125,
          "velocity": 0.5748031496062992
        },
        {
          "duration": 0.375,
          "durationTicks": 480,
          "midi": 48,
          "name": "C3",
          "ticks": 317280,
          "time": 247.875,
          "velocity": 0.33858267716535434
        },
        {
          "duration": 0.3515625,
          "durationTicks": 450,
          "midi": 50,
          "name": "D3",
          "ticks": 317760,
          "time": 248.25,
          "velocity": 0.3937007874015748
        },
        {
          "duration": 0.38203124999998295,
          "durationTicks": 489,
          "midi": 51,
          "name": "D#3",
          "ticks": 318240,
          "time": 248.625,
          "velocity": 0.4251968503937008
        },
        {
          "duration": 0.3648437500000341,
          "durationTicks": 467,
          "midi": 52,
          "name": "E3",
          "ticks": 318720,
          "time": 249,
          "velocity": 0.3937007874015748
        },
        {
          "duration": 0.33906250000001137,
          "durationTicks": 434,
          "midi": 57,
          "name": "A3",
          "ticks": 319200,
          "time": 249.375,
          "velocity": 0.44881889763779526
        },
        {
          "duration": 0.0953125000000341,
          "durationTicks": 122,
          "midi": 58,
          "name": "A#3",
          "ticks": 319680,
          "time": 249.75,
          "velocity": 0.2125984251968504
        },
        {
          "duration": 0.0703125,
          "durationTicks": 90,
          "midi": 55,
          "name": "G3",
          "ticks": 319800,
          "time": 249.84375,
          "velocity": 0.28346456692913385
        },
        {
          "duration": 0.09843750000001705,
          "durationTicks": 126,
          "midi": 53,
          "name": "F3",
          "ticks": 320040,
          "time": 250.03125,
          "velocity": 0.5118110236220472
        },
        {
          "duration": 0.36328125,
          "durationTicks": 465,
          "midi": 50,
          "name": "D3",
          "ticks": 320160,
          "time": 250.125,
          "velocity": 0.5748031496062992
        },
        {
          "duration": 0.22187500000001137,
          "durationTicks": 284,
          "midi": 53,
          "name": "F3",
          "ticks": 320640,
          "time": 250.5,
          "velocity": 0.5118110236220472
        },
        {
          "duration": 0.12968749999998863,
          "durationTicks": 166,
          "midi": 50,
          "name": "D3",
          "ticks": 321000,
          "time": 250.78125,
          "velocity": 0.2125984251968504
        },
        {
          "duration": 0.22187500000001137,
          "durationTicks": 284,
          "midi": 51,
          "name": "D#3",
          "ticks": 321120,
          "time": 250.875,
          "velocity": 0.2204724409448819
        },
        {
          "duration": 0.14375000000001137,
          "durationTicks": 184,
          "midi": 46,
          "name": "A#2",
          "ticks": 321480,
          "time": 251.15625,
          "velocity": 0.5748031496062992
        },
        {
          "duration": 0.33515624999998295,
          "durationTicks": 429,
          "midi": 43,
          "name": "G2",
          "ticks": 321600,
          "time": 251.25,
          "velocity": 0.18110236220472442
        },
        {
          "duration": 0.04765624999998863,
          "durationTicks": 61,
          "midi": 45,
          "name": "A2",
          "ticks": 321600,
          "time": 251.25,
          "velocity": 0.1732283464566929
        },
        {
          "duration": 0.25546874999997726,
          "durationTicks": 327,
          "midi": 46,
          "name": "A#2",
          "ticks": 322080,
          "time": 251.625,
          "velocity": 0.5748031496062992
        },
        {
          "duration": 0.13437500000000568,
          "durationTicks": 172,
          "midi": 44,
          "name": "G#2",
          "ticks": 322440,
          "time": 251.90625,
          "velocity": 0.30708661417322836
        },
        {
          "duration": 0.35625000000001705,
          "durationTicks": 456,
          "midi": 45,
          "name": "A2",
          "ticks": 322560,
          "time": 252,
          "velocity": 0.33858267716535434
        },
        {
          "duration": 0.33671874999998863,
          "durationTicks": 431,
          "midi": 57,
          "name": "A3",
          "ticks": 323040,
          "time": 252.375,
          "velocity": 0.5118110236220472
        },
        {
          "duration": 0.36015624999998863,
          "durationTicks": 461,
          "midi": 45,
          "name": "A2",
          "ticks": 323520,
          "time": 252.75,
          "velocity": 0.4251968503937008
        },
        {
          "duration": 0.359375,
          "durationTicks": 460,
          "midi": 44,
          "name": "G#2",
          "ticks": 324000,
          "time": 253.125,
          "velocity": 0.33858267716535434
        },
        {
          "duration": 0.604687499999983,
          "durationTicks": 774,
          "midi": 56,
          "name": "G#3",
          "ticks": 324480,
          "time": 253.5,
          "velocity": 0.5118110236220472
        },
        {
          "duration": 0.12109375,
          "durationTicks": 155,
          "midi": 58,
          "name": "A#3",
          "ticks": 325320,
          "time": 254.15625,
          "velocity": 0.5118110236220472
        },
        {
          "duration": 0.21171874999998863,
          "durationTicks": 271,
          "midi": 57,
          "name": "A3",
          "ticks": 325440,
          "time": 254.25,
          "velocity": 0.2204724409448819
        },
        {
          "duration": 0.12968749999998863,
          "durationTicks": 166,
          "midi": 52,
          "name": "E3",
          "ticks": 325800,
          "time": 254.53125,
          "velocity": 0.5118110236220472
        },
        {
          "duration": 0.35859374999998295,
          "durationTicks": 459,
          "midi": 45,
          "name": "A2",
          "ticks": 325920,
          "time": 254.625,
          "velocity": 0.36220472440944884
        },
        {
          "duration": 0.23124999999998863,
          "durationTicks": 296,
          "midi": 52,
          "name": "E3",
          "ticks": 326400,
          "time": 255,
          "velocity": 0.44881889763779526
        },
        {
          "duration": 0.12265625000000568,
          "durationTicks": 157,
          "midi": 45,
          "name": "A2",
          "ticks": 326760,
          "time": 255.28125,
          "velocity": 0.36220472440944884
        },
        {
          "duration": 0.24374999999997726,
          "durationTicks": 312,
          "midi": 44,
          "name": "G#2",
          "ticks": 326880,
          "time": 255.375,
          "velocity": 0.3937007874015748
        },
        {
          "duration": 0.22500000000002274,
          "durationTicks": 288,
          "midi": 47,
          "name": "B2",
          "ticks": 327240,
          "time": 255.65625,
          "velocity": 0.36220472440944884
        },
        {
          "duration": 0.2531249999999545,
          "durationTicks": 324,
          "midi": 50,
          "name": "D3",
          "ticks": 327480,
          "time": 255.84375,
          "velocity": 0.3937007874015748
        },
        {
          "duration": 0.21953124999998863,
          "durationTicks": 281,
          "midi": 53,
          "name": "F3",
          "ticks": 327840,
          "time": 256.125,
          "velocity": 0.44881889763779526
        },
        {
          "duration": 0.10624999999998863,
          "durationTicks": 136,
          "midi": 54,
          "name": "F#3",
          "ticks": 328200,
          "time": 256.40625,
          "velocity": 0.4251968503937008
        },
        {
          "duration": 0.22578125000001137,
          "durationTicks": 289,
          "midi": 55,
          "name": "G3",
          "ticks": 328320,
          "time": 256.5,
          "velocity": 0.3937007874015748
        },
        {
          "duration": 0.12578124999998863,
          "durationTicks": 161,
          "midi": 50,
          "name": "D3",
          "ticks": 328680,
          "time": 256.78125,
          "velocity": 0.5118110236220472
        },
        {
          "duration": 0.3671875,
          "durationTicks": 470,
          "midi": 46,
          "name": "A#2",
          "ticks": 328800,
          "time": 256.875,
          "velocity": 0.36220472440944884
        },
        {
          "duration": 0.21796874999995453,
          "durationTicks": 279,
          "midi": 50,
          "name": "D3",
          "ticks": 329280,
          "time": 257.25,
          "velocity": 0.5118110236220472
        },
        {
          "duration": 0.1070312500000341,
          "durationTicks": 137,
          "midi": 46,
          "name": "A#2",
          "ticks": 329640,
          "time": 257.53125,
          "velocity": 0.2125984251968504
        },
        {
          "duration": 0.34062499999998863,
          "durationTicks": 436,
          "midi": 48,
          "name": "C3",
          "ticks": 329760,
          "time": 257.625,
          "velocity": 0.44881889763779526
        },
        {
          "duration": 0.38437499999997726,
          "durationTicks": 492,
          "midi": 36,
          "name": "C2",
          "ticks": 330240,
          "time": 258,
          "velocity": 0.4251968503937008
        },
        {
          "duration": 0.38593750000001137,
          "durationTicks": 494,
          "midi": 40,
          "name": "E2",
          "ticks": 330720,
          "time": 258.375,
          "velocity": 0.4251968503937008
        },
        {
          "duration": 0.5718749999999773,
          "durationTicks": 732,
          "midi": 41,
          "name": "F2",
          "ticks": 331200,
          "time": 258.75,
          "velocity": 0.5118110236220472
        },
        {
          "duration": 0.49843750000002274,
          "durationTicks": 638,
          "midi": 48,
          "name": "C3",
          "ticks": 332040,
          "time": 259.40625,
          "velocity": 0.5118110236220472
        },
        {
          "duration": 0.6070312499999773,
          "durationTicks": 777,
          "midi": 53,
          "name": "F3",
          "ticks": 332640,
          "time": 259.875,
          "velocity": 0.5118110236220472
        },
        {
          "duration": 0.4789062499999659,
          "durationTicks": 613,
          "midi": 40,
          "name": "E2",
          "ticks": 333480,
          "time": 260.53125,
          "velocity": 0.5118110236220472
        },
        {
          "duration": 0.6031249999999773,
          "durationTicks": 772,
          "midi": 41,
          "name": "F2",
          "ticks": 334080,
          "time": 261,
          "velocity": 0.3937007874015748
        },
        {
          "duration": 0.5046874999999886,
          "durationTicks": 646,
          "midi": 45,
          "name": "A2",
          "ticks": 334920,
          "time": 261.65625,
          "velocity": 0.5118110236220472
        },
        {
          "duration": 0.6398437499999545,
          "durationTicks": 819,
          "midi": 43,
          "name": "G2",
          "ticks": 335520,
          "time": 262.125,
          "velocity": 0.44881889763779526
        },
        {
          "duration": 0.4703125000000341,
          "durationTicks": 602,
          "midi": 36,
          "name": "C2",
          "ticks": 336360,
          "time": 262.78125,
          "velocity": 0.5748031496062992
        },
        {
          "duration": 0.8742187499999545,
          "durationTicks": 1119,
          "midi": 53,
          "name": "F3",
          "ticks": 336960,
          "time": 263.25,
          "velocity": 0.4251968503937008
        },
        {
          "duration": 0.08203125,
          "durationTicks": 105,
          "midi": 52,
          "name": "E3",
          "ticks": 338040,
          "time": 264.09375,
          "velocity": 0.33858267716535434
        },
        {
          "duration": 0.1070312500000341,
          "durationTicks": 137,
          "midi": 51,
          "name": "D#3",
          "ticks": 338160,
          "time": 264.1875,
          "velocity": 0.4251968503937008
        },
        {
          "duration": 0.6046874999999545,
          "durationTicks": 774,
          "midi": 50,
          "name": "D3",
          "ticks": 338400,
          "time": 264.375,
          "velocity": 0.5118110236220472
        },
        {
          "duration": 0.5031250000000114,
          "durationTicks": 644,
          "midi": 44,
          "name": "G#2",
          "ticks": 339120,
          "time": 264.9375,
          "velocity": 0.44881889763779526
        },
        {
          "duration": 0.5984374999999886,
          "durationTicks": 766,
          "midi": 43,
          "name": "G2",
          "ticks": 339840,
          "time": 265.5,
          "velocity": 0.3937007874015748
        },
        {
          "duration": 0.28984374999998863,
          "durationTicks": 371,
          "midi": 42,
          "name": "F#2",
          "ticks": 340560,
          "time": 266.0625,
          "velocity": 0.44881889763779526
        },
        {
          "duration": 0.26171875,
          "durationTicks": 335,
          "midi": 41,
          "name": "F2",
          "ticks": 340920,
          "time": 266.34375,
          "velocity": 0.4251968503937008
        },
        {
          "duration": 1.0867187499999886,
          "durationTicks": 1391,
          "midi": 40,
          "name": "E2",
          "ticks": 341280,
          "time": 266.625,
          "velocity": 0.44881889763779526
        },
        {
          "duration": 1.1203124999999545,
          "durationTicks": 1434,
          "midi": 49,
          "name": "C#3",
          "ticks": 342720,
          "time": 267.75,
          "velocity": 0.5118110236220472
        },
        {
          "duration": 1.1039062500000227,
          "durationTicks": 1413,
          "midi": 48,
          "name": "C3",
          "ticks": 344160,
          "time": 268.875,
          "velocity": 0.44881889763779526
        },
        {
          "duration": 0.9265624999999886,
          "durationTicks": 1186,
          "midi": 47,
          "name": "B2",
          "ticks": 345600,
          "time": 270,
          "velocity": 0.44881889763779526
        },
        {
          "duration": 0.11093749999997726,
          "durationTicks": 142,
          "midi": 47,
          "name": "B2",
          "ticks": 346920,
          "time": 271.03125,
          "velocity": 0.33858267716535434
        },
        {
          "duration": 0.5914062499999773,
          "durationTicks": 757,
          "midi": 48,
          "name": "C3",
          "ticks": 347040,
          "time": 271.125,
          "velocity": 0.5118110236220472
        },
        {
          "duration": 0.5007812499999886,
          "durationTicks": 641,
          "midi": 40,
          "name": "E2",
          "ticks": 347880,
          "time": 271.78125,
          "velocity": 0.44881889763779526
        },
        {
          "duration": 0.6062499999999886,
          "durationTicks": 776,
          "midi": 41,
          "name": "F2",
          "ticks": 348480,
          "time": 272.25,
          "velocity": 0.44881889763779526
        },
        {
          "duration": 0.24687499999998863,
          "durationTicks": 316,
          "midi": 48,
          "name": "C3",
          "ticks": 349320,
          "time": 272.90625,
          "velocity": 0.44881889763779526
        },
        {
          "duration": 0.23906250000004547,
          "durationTicks": 306,
          "midi": 47,
          "name": "B2",
          "ticks": 349560,
          "time": 273.09375,
          "velocity": 0.44881889763779526
        },
        {
          "duration": 0.8453125000000341,
          "durationTicks": 1082,
          "midi": 46,
          "name": "A#2",
          "ticks": 349920,
          "time": 273.375,
          "velocity": 0.4251968503937008
        },
        {
          "duration": 0.12109375,
          "durationTicks": 155,
          "midi": 45,
          "name": "A2",
          "ticks": 351000,
          "time": 274.21875,
          "velocity": 0.2047244094488189
        },
        {
          "duration": 0.12343750000002274,
          "durationTicks": 158,
          "midi": 44,
          "name": "G#2",
          "ticks": 351120,
          "time": 274.3125,
          "velocity": 0.44881889763779526
        },
        {
          "duration": 0.6023437500000455,
          "durationTicks": 771,
          "midi": 43,
          "name": "G2",
          "ticks": 351360,
          "time": 274.5,
          "velocity": 0.5118110236220472
        },
        {
          "duration": 0.5,
          "durationTicks": 640,
          "midi": 37,
          "name": "C#2",
          "ticks": 352080,
          "time": 275.0625,
          "velocity": 0.5118110236220472
        },
        {
          "duration": 0.6156250000000227,
          "durationTicks": 788,
          "midi": 36,
          "name": "C2",
          "ticks": 352800,
          "time": 275.625,
          "velocity": 0.44881889763779526
        },
        {
          "duration": 0.5171875000000341,
          "durationTicks": 662,
          "midi": 46,
          "name": "A#2",
          "ticks": 353640,
          "time": 276.28125,
          "velocity": 0.5748031496062992
        },
        {
          "duration": 0.5882812500000227,
          "durationTicks": 753,
          "midi": 45,
          "name": "A2",
          "ticks": 354240,
          "time": 276.75,
          "velocity": 0.5118110236220472
        },
        {
          "duration": 0.47968750000001137,
          "durationTicks": 614,
          "midi": 39,
          "name": "D#2",
          "ticks": 355080,
          "time": 277.40625,
          "velocity": 0.5748031496062992
        },
        {
          "duration": 0.37421875000001137,
          "durationTicks": 479,
          "midi": 38,
          "name": "D2",
          "ticks": 355680,
          "time": 277.875,
          "velocity": 0.44881889763779526
        },
        {
          "duration": 0.36093749999997726,
          "durationTicks": 462,
          "midi": 45,
          "name": "A2",
          "ticks": 356160,
          "time": 278.25,
          "velocity": 0.5118110236220472
        },
        {
          "duration": 0.37187499999998863,
          "durationTicks": 476,
          "midi": 44,
          "name": "G#2",
          "ticks": 356640,
          "time": 278.625,
          "velocity": 0.5118110236220472
        },
        {
          "duration": 0.3734374999999659,
          "durationTicks": 478,
          "midi": 43,
          "name": "G2",
          "ticks": 357120,
          "time": 279,
          "velocity": 0.44881889763779526
        },
        {
          "duration": 0.10312499999997726,
          "durationTicks": 132,
          "midi": 50,
          "name": "D3",
          "ticks": 357960,
          "time": 279.65625,
          "velocity": 0.6377952755905512
        },
        {
          "duration": 0.34062499999998863,
          "durationTicks": 436,
          "midi": 49,
          "name": "C#3",
          "ticks": 358080,
          "time": 279.75,
          "velocity": 0.3937007874015748
        },
        {
          "duration": 0.5679687499999773,
          "durationTicks": 727,
          "midi": 48,
          "name": "C3",
          "ticks": 358560,
          "time": 280.125,
          "velocity": 0.44881889763779526
        },
        {
          "duration": 0.49296874999998863,
          "durationTicks": 631,
          "midi": 40,
          "name": "E2",
          "ticks": 359280,
          "time": 280.6875,
          "velocity": 0.4251968503937008
        },
        {
          "duration": 0.6164062499999545,
          "durationTicks": 789,
          "midi": 41,
          "name": "F2",
          "ticks": 359880,
          "time": 281.15625,
          "velocity": 0.44881889763779526
        },
        {
          "duration": 0.22500000000002274,
          "durationTicks": 288,
          "midi": 48,
          "name": "C3",
          "ticks": 360720,
          "time": 281.8125,
          "velocity": 0.5748031496062992
        },
        {
          "duration": 0.23203124999997726,
          "durationTicks": 297,
          "midi": 49,
          "name": "C#3",
          "ticks": 361080,
          "time": 282.09375,
          "velocity": 0.5118110236220472
        },
        {
          "duration": 0.5859375,
          "durationTicks": 750,
          "midi": 50,
          "name": "D3",
          "ticks": 361440,
          "time": 282.375,
          "velocity": 0.44881889763779526
        },
        {
          "duration": 0.23124999999998863,
          "durationTicks": 296,
          "midi": 57,
          "name": "A3",
          "ticks": 362160,
          "time": 282.9375,
          "velocity": 0.44881889763779526
        },
        {
          "duration": 0.24921875000001137,
          "durationTicks": 319,
          "midi": 56,
          "name": "G#3",
          "ticks": 362520,
          "time": 283.21875,
          "velocity": 0.3937007874015748
        },
        {
          "duration": 0.9898437499999773,
          "durationTicks": 1267,
          "midi": 55,
          "name": "G3",
          "ticks": 362880,
          "time": 283.5,
          "velocity": 0.4251968503937008
        },
        {
          "duration": 0.11796874999998863,
          "durationTicks": 151,
          "midi": 51,
          "name": "D#3",
          "ticks": 364200,
          "time": 284.53125,
          "velocity": 0.4251968503937008
        },
        {
          "duration": 0.8742187499999545,
          "durationTicks": 1119,
          "midi": 52,
          "name": "E3",
          "ticks": 364320,
          "time": 284.625,
          "velocity": 0.3937007874015748
        },
        {
          "duration": 0.10468750000001137,
          "durationTicks": 134,
          "midi": 51,
          "name": "D#3",
          "ticks": 365400,
          "time": 285.46875,
          "velocity": 0.36220472440944884
        },
        {
          "duration": 0.12421874999995453,
          "durationTicks": 159,
          "midi": 50,
          "name": "D3",
          "ticks": 365640,
          "time": 285.65625,
          "velocity": 0.4251968503937008
        },
        {
          "duration": 1.11328125,
          "durationTicks": 1425,
          "midi": 49,
          "name": "C#3",
          "ticks": 365760,
          "time": 285.75,
          "velocity": 0.44881889763779526
        },
        {
          "duration": 1.1039062500000227,
          "durationTicks": 1413,
          "midi": 48,
          "name": "C3",
          "ticks": 367200,
          "time": 286.875,
          "velocity": 0.3937007874015748
        },
        {
          "duration": 0.57421875,
          "durationTicks": 735,
          "midi": 47,
          "name": "B2",
          "ticks": 368640,
          "time": 288,
          "velocity": 0.44881889763779526
        },
        {
          "duration": 0.5187500000000114,
          "durationTicks": 664,
          "midi": 47,
          "name": "B2",
          "ticks": 369360,
          "time": 288.5625,
          "velocity": 0.44881889763779526
        },
        {
          "duration": 1.1390625000000227,
          "durationTicks": 1458,
          "midi": 48,
          "name": "C3",
          "ticks": 370080,
          "time": 289.125,
          "velocity": 0.44881889763779526
        },
        {
          "duration": 1.1140624999999886,
          "durationTicks": 1426,
          "midi": 41,
          "name": "F2",
          "ticks": 371520,
          "time": 290.25,
          "velocity": 0.3937007874015748
        },
        {
          "duration": 1.12890625,
          "durationTicks": 1445,
          "midi": 46,
          "name": "A#2",
          "ticks": 372960,
          "time": 291.375,
          "velocity": 0.5118110236220472
        },
        {
          "duration": 0.5749999999999886,
          "durationTicks": 736,
          "midi": 47,
          "name": "B2",
          "ticks": 374400,
          "time": 292.5,
          "velocity": 0.44881889763779526
        },
        {
          "duration": 0.5304687500000114,
          "durationTicks": 679,
          "midi": 47,
          "name": "B2",
          "ticks": 375240,
          "time": 293.15625,
          "velocity": 0.44881889763779526
        },
        {
          "duration": 1.0960937500000227,
          "durationTicks": 1403,
          "midi": 40,
          "name": "E2",
          "ticks": 375840,
          "time": 293.625,
          "velocity": 0.5118110236220472
        },
        {
          "duration": 1.088281249999966,
          "durationTicks": 1393,
          "midi": 37,
          "name": "C#2",
          "ticks": 377280,
          "time": 294.75,
          "velocity": 0.3937007874015748
        },
        {
          "duration": 1.193749999999966,
          "durationTicks": 1528,
          "midi": 47,
          "name": "B2",
          "ticks": 378720,
          "time": 295.875,
          "velocity": 0.5748031496062992
        },
        {
          "duration": 1.0828125000000455,
          "durationTicks": 1386,
          "midi": 45,
          "name": "A2",
          "ticks": 380160,
          "time": 297,
          "velocity": 0.4251968503937008
        },
        {
          "duration": 1.1171875,
          "durationTicks": 1430,
          "midi": 44,
          "name": "G#2",
          "ticks": 381600,
          "time": 298.125,
          "velocity": 0.44881889763779526
        },
        {
          "duration": 0.9835937500000114,
          "durationTicks": 1259,
          "midi": 43,
          "name": "G2",
          "ticks": 383040,
          "time": 299.25,
          "velocity": 0.44881889763779526
        },
        {
          "duration": 0.1273437499999659,
          "durationTicks": 163,
          "midi": 50,
          "name": "D3",
          "ticks": 384360,
          "time": 300.28125,
          "velocity": 0.5748031496062992
        },
        {
          "duration": 0.8562499999999886,
          "durationTicks": 1096,
          "midi": 48,
          "name": "C3",
          "ticks": 384480,
          "time": 300.375,
          "velocity": 0.5748031496062992
        },
        {
          "duration": 0.07343750000001137,
          "durationTicks": 94,
          "midi": 47,
          "name": "B2",
          "ticks": 385560,
          "time": 301.21875,
          "velocity": 0.36220472440944884
        },
        {
          "duration": 0.11796874999998863,
          "durationTicks": 151,
          "midi": 46,
          "name": "A#2",
          "ticks": 385680,
          "time": 301.3125,
          "velocity": 0.4251968503937008
        },
        {
          "duration": 0.6273437500000227,
          "durationTicks": 803,
          "midi": 45,
          "name": "A2",
          "ticks": 385920,
          "time": 301.5,
          "velocity": 0.5118110236220472
        },
        {
          "duration": 0.48359375000001137,
          "durationTicks": 619,
          "midi": 39,
          "name": "D#2",
          "ticks": 386760,
          "time": 302.15625,
          "velocity": 0.5748031496062992
        },
        {
          "duration": 0.3703124999999545,
          "durationTicks": 474,
          "midi": 38,
          "name": "D2",
          "ticks": 387360,
          "time": 302.625,
          "velocity": 0.44881889763779526
        },
        {
          "duration": 0.37187499999998863,
          "durationTicks": 476,
          "midi": 45,
          "name": "A2",
          "ticks": 387840,
          "time": 303,
          "velocity": 0.5118110236220472
        },
        {
          "duration": 0.35078125000001137,
          "durationTicks": 449,
          "midi": 44,
          "name": "G#2",
          "ticks": 388320,
          "time": 303.375,
          "velocity": 0.5118110236220472
        },
        {
          "duration": 0.9750000000000227,
          "durationTicks": 1248,
          "midi": 43,
          "name": "G2",
          "ticks": 388800,
          "time": 303.75,
          "velocity": 0.44881889763779526
        },
        {
          "duration": 0.1070312500000341,
          "durationTicks": 137,
          "midi": 44,
          "name": "G#2",
          "ticks": 390120,
          "time": 304.78125,
          "velocity": 0.33858267716535434
        },
        {
          "duration": 0.6734374999999773,
          "durationTicks": 862,
          "midi": 45,
          "name": "A2",
          "ticks": 390240,
          "time": 304.875,
          "velocity": 0.5748031496062992
        },
        {
          "duration": 0.5054687500000341,
          "durationTicks": 647,
          "midi": 51,
          "name": "D#3",
          "ticks": 391080,
          "time": 305.53125,
          "velocity": 0.5118110236220472
        },
        {
          "duration": 1.0929687500000114,
          "durationTicks": 1399,
          "midi": 50,
          "name": "D3",
          "ticks": 391680,
          "time": 306,
          "velocity": 0.5118110236220472
        },
        {
          "duration": 0.9601562500000114,
          "durationTicks": 1229,
          "midi": 41,
          "name": "F2",
          "ticks": 393120,
          "time": 307.125,
          "velocity": 0.44881889763779526
        },
        {
          "duration": 0.1156249999999659,
          "durationTicks": 148,
          "midi": 41,
          "name": "F2",
          "ticks": 394440,
          "time": 308.15625,
          "velocity": 0.3937007874015748
        },
        {
          "duration": 0.5882812500000227,
          "durationTicks": 753,
          "midi": 46,
          "name": "A#2",
          "ticks": 394560,
          "time": 308.25,
          "velocity": 0.5118110236220472
        },
        {
          "duration": 0.29062499999997726,
          "durationTicks": 372,
          "midi": 53,
          "name": "F3",
          "ticks": 395280,
          "time": 308.8125,
          "velocity": 0.5118110236220472
        },
        {
          "duration": 0.2531249999999545,
          "durationTicks": 324,
          "midi": 46,
          "name": "A#2",
          "ticks": 395640,
          "time": 309.09375,
          "velocity": 0.3937007874015748
        },
        {
          "duration": 0.5906250000000455,
          "durationTicks": 756,
          "midi": 45,
          "name": "A2",
          "ticks": 396000,
          "time": 309.375,
          "velocity": 0.44881889763779526
        },
        {
          "duration": 0.26093750000001137,
          "durationTicks": 334,
          "midi": 52,
          "name": "E3",
          "ticks": 396720,
          "time": 309.9375,
          "velocity": 0.5118110236220472
        },
        {
          "duration": 0.22968749999995453,
          "durationTicks": 294,
          "midi": 45,
          "name": "A2",
          "ticks": 397080,
          "time": 310.21875,
          "velocity": 0.36220472440944884
        },
        {
          "duration": 0.5953124999999773,
          "durationTicks": 762,
          "midi": 50,
          "name": "D3",
          "ticks": 397440,
          "time": 310.5,
          "velocity": 0.44881889763779526
        },
        {
          "duration": 0.48671875000002274,
          "durationTicks": 623,
          "midi": 38,
          "name": "D2",
          "ticks": 398160,
          "time": 311.0625,
          "velocity": 0.44881889763779526
        },
        {
          "duration": 0.6179687499999886,
          "durationTicks": 791,
          "midi": 40,
          "name": "E2",
          "ticks": 398760,
          "time": 311.53125,
          "velocity": 0.44881889763779526
        },
        {
          "duration": 0.5164062499999886,
          "durationTicks": 661,
          "midi": 52,
          "name": "E3",
          "ticks": 399600,
          "time": 312.1875,
          "velocity": 0.5118110236220472
        },
        {
          "duration": 1.11328125,
          "durationTicks": 1425,
          "midi": 45,
          "name": "A2",
          "ticks": 400320,
          "time": 312.75,
          "velocity": 0.5118110236220472
        },
        {
          "duration": 1.0968749999999545,
          "durationTicks": 1404,
          "midi": 44,
          "name": "G#2",
          "ticks": 401760,
          "time": 313.875,
          "velocity": 0.44881889763779526
        },
        {
          "duration": 0.5765625000000227,
          "durationTicks": 738,
          "midi": 43,
          "name": "G2",
          "ticks": 403200,
          "time": 315,
          "velocity": 0.44881889763779526
        },
        {
          "duration": 0.5257812499999659,
          "durationTicks": 673,
          "midi": 43,
          "name": "G2",
          "ticks": 403920,
          "time": 315.5625,
          "velocity": 0.44881889763779526
        },
        {
          "duration": 0.59765625,
          "durationTicks": 765,
          "midi": 42,
          "name": "F#2",
          "ticks": 404640,
          "time": 316.125,
          "velocity": 0.5118110236220472
        },
        {
          "duration": 0.46015625000001137,
          "durationTicks": 589,
          "midi": 42,
          "name": "F#2",
          "ticks": 405480,
          "time": 316.78125,
          "velocity": 0.44881889763779526
        },
        {
          "duration": 0.41874999999998863,
          "durationTicks": 536,
          "midi": 41,
          "name": "F2",
          "ticks": 406080,
          "time": 317.25,
          "velocity": 0.44881889763779526
        },
        {
          "duration": 0.35703124999997726,
          "durationTicks": 457,
          "midi": 52,
          "name": "E3",
          "ticks": 406560,
          "time": 317.625,
          "velocity": 0.5118110236220472
        },
        {
          "duration": 0.36562500000002274,
          "durationTicks": 468,
          "midi": 51,
          "name": "D#3",
          "ticks": 407040,
          "time": 318,
          "velocity": 0.5118110236220472
        },
        {
          "duration": 0.6031249999999773,
          "durationTicks": 772,
          "midi": 50,
          "name": "D3",
          "ticks": 407520,
          "time": 318.375,
          "velocity": 0.5118110236220472
        },
        {
          "duration": 0.47500000000002274,
          "durationTicks": 608,
          "midi": 44,
          "name": "G#2",
          "ticks": 408240,
          "time": 318.9375,
          "velocity": 0.5118110236220472
        },
        {
          "duration": 0.6117187500000227,
          "durationTicks": 783,
          "midi": 43,
          "name": "G2",
          "ticks": 408960,
          "time": 319.5,
          "velocity": 0.3937007874015748
        },
        {
          "duration": 0.2328124999999659,
          "durationTicks": 298,
          "midi": 55,
          "name": "G3",
          "ticks": 409800,
          "time": 320.15625,
          "velocity": 0.44881889763779526
        },
        {
          "duration": 0.10000000000002274,
          "durationTicks": 128,
          "midi": 54,
          "name": "F#3",
          "ticks": 410040,
          "time": 320.34375,
          "velocity": 0.33858267716535434
        },
        {
          "duration": 0.09609375000002274,
          "durationTicks": 123,
          "midi": 53,
          "name": "F3",
          "ticks": 410160,
          "time": 320.4375,
          "velocity": 0.4251968503937008
        },
        {
          "duration": 0.55859375,
          "durationTicks": 715,
          "midi": 52,
          "name": "E3",
          "ticks": 410400,
          "time": 320.625,
          "velocity": 0.44881889763779526
        },
        {
          "duration": 0.2328124999999659,
          "durationTicks": 298,
          "midi": 52,
          "name": "E3",
          "ticks": 411120,
          "time": 321.1875,
          "velocity": 0.4251968503937008
        },
        {
          "duration": 0.10000000000002274,
          "durationTicks": 128,
          "midi": 51,
          "name": "D#3",
          "ticks": 411480,
          "time": 321.46875,
          "velocity": 0.2125984251968504
        },
        {
          "duration": 0.1156249999999659,
          "durationTicks": 148,
          "midi": 50,
          "name": "D3",
          "ticks": 411600,
          "time": 321.5625,
          "velocity": 0.4251968503937008
        },
        {
          "duration": 0.6351562500000227,
          "durationTicks": 813,
          "midi": 49,
          "name": "C#3",
          "ticks": 411840,
          "time": 321.75,
          "velocity": 0.5118110236220472
        },
        {
          "duration": 0.47265625,
          "durationTicks": 605,
          "midi": 49,
          "name": "C#3",
          "ticks": 412680,
          "time": 322.40625,
          "velocity": 0.5748031496062992
        },
        {
          "duration": 0.9265624999999886,
          "durationTicks": 1186,
          "midi": 48,
          "name": "C3",
          "ticks": 413280,
          "time": 322.875,
          "velocity": 0.5118110236220472
        },
        {
          "duration": 0.12187500000004547,
          "durationTicks": 156,
          "midi": 48,
          "name": "C3",
          "ticks": 414480,
          "time": 323.8125,
          "velocity": 0.30708661417322836
        },
        {
          "duration": 0.5929687499999545,
          "durationTicks": 759,
          "midi": 47,
          "name": "B2",
          "ticks": 414720,
          "time": 324,
          "velocity": 0.4251968503937008
        },
        {
          "duration": 0.48359375000001137,
          "durationTicks": 619,
          "midi": 47,
          "name": "B2",
          "ticks": 415560,
          "time": 324.65625,
          "velocity": 0.44881889763779526
        },
        {
          "duration": 0.6117187500000227,
          "durationTicks": 783,
          "midi": 48,
          "name": "C3",
          "ticks": 416160,
          "time": 325.125,
          "velocity": 0.44881889763779526
        },
        {
          "duration": 0.48124999999998863,
          "durationTicks": 616,
          "midi": 40,
          "name": "E2",
          "ticks": 417000,
          "time": 325.78125,
          "velocity": 0.5118110236220472
        },
        {
          "duration": 0.6179687499999886,
          "durationTicks": 791,
          "midi": 41,
          "name": "F2",
          "ticks": 417600,
          "time": 326.25,
          "velocity": 0.5118110236220472
        },
        {
          "duration": 0.5023437499999659,
          "durationTicks": 643,
          "midi": 45,
          "name": "A2",
          "ticks": 418440,
          "time": 326.90625,
          "velocity": 0.44881889763779526
        },
        {
          "duration": 1.091406250000034,
          "durationTicks": 1397,
          "midi": 46,
          "name": "A#2",
          "ticks": 419040,
          "time": 327.375,
          "velocity": 0.4251968503937008
        },
        {
          "duration": 0.6085937500000114,
          "durationTicks": 779,
          "midi": 46,
          "name": "A#2",
          "ticks": 420480,
          "time": 328.5,
          "velocity": 0.4251968503937008
        },
        {
          "duration": 0.5382812500000114,
          "durationTicks": 689,
          "midi": 50,
          "name": "D3",
          "ticks": 421200,
          "time": 329.0625,
          "velocity": 0.5118110236220472
        },
        {
          "duration": 0.5515624999999886,
          "durationTicks": 706,
          "midi": 51,
          "name": "D#3",
          "ticks": 421920,
          "time": 329.625,
          "velocity": 0.5118110236220472
        },
        {
          "duration": 0.5,
          "durationTicks": 640,
          "midi": 51,
          "name": "D#3",
          "ticks": 422640,
          "time": 330.1875,
          "velocity": 0.3937007874015748
        },
        {
          "duration": 0.58984375,
          "durationTicks": 755,
          "midi": 45,
          "name": "A2",
          "ticks": 423360,
          "time": 330.75,
          "velocity": 0.44881889763779526
        },
        {
          "duration": 0.5023437499999659,
          "durationTicks": 643,
          "midi": 45,
          "name": "A2",
          "ticks": 424200,
          "time": 331.40625,
          "velocity": 0.44881889763779526
        },
        {
          "duration": 0.5921875000000227,
          "durationTicks": 758,
          "midi": 50,
          "name": "D3",
          "ticks": 424800,
          "time": 331.875,
          "velocity": 0.5118110236220472
        },
        {
          "duration": 0.23750000000001137,
          "durationTicks": 304,
          "midi": 49,
          "name": "C#3",
          "ticks": 425640,
          "time": 332.53125,
          "velocity": 0.4251968503937008
        },
        {
          "duration": 0.23515624999998863,
          "durationTicks": 301,
          "midi": 48,
          "name": "C3",
          "ticks": 425880,
          "time": 332.71875,
          "velocity": 0.3937007874015748
        },
        {
          "duration": 0.5812499999999545,
          "durationTicks": 744,
          "midi": 47,
          "name": "B2",
          "ticks": 426240,
          "time": 333,
          "velocity": 0.5118110236220472
        },
        {
          "duration": 0.48828125,
          "durationTicks": 625,
          "midi": 47,
          "name": "B2",
          "ticks": 426960,
          "time": 333.5625,
          "velocity": 0.5118110236220472
        },
        {
          "duration": 0.41796875,
          "durationTicks": 535,
          "midi": 40,
          "name": "E2",
          "ticks": 427680,
          "time": 334.125,
          "velocity": 0.44881889763779526
        },
        {
          "duration": 0.36640625000001137,
          "durationTicks": 469,
          "midi": 47,
          "name": "B2",
          "ticks": 428160,
          "time": 334.5,
          "velocity": 0.5118110236220472
        },
        {
          "duration": 0.38046874999997726,
          "durationTicks": 487,
          "midi": 46,
          "name": "A#2",
          "ticks": 428640,
          "time": 334.875,
          "velocity": 0.44881889763779526
        },
        {
          "duration": 1.735937500000034,
          "durationTicks": 2222,
          "midi": 45,
          "name": "A2",
          "ticks": 429120,
          "time": 335.25,
          "velocity": 0.5118110236220472
        },
        {
          "duration": 0.12187500000004547,
          "durationTicks": 156,
          "midi": 52,
          "name": "E3",
          "ticks": 431400,
          "time": 337.03125,
          "velocity": 0.6377952755905512
        },
        {
          "duration": 0.359375,
          "durationTicks": 460,
          "midi": 57,
          "name": "A3",
          "ticks": 431520,
          "time": 337.125,
          "velocity": 0.4251968503937008
        },
        {
          "duration": 0.6039062500000227,
          "durationTicks": 773,
          "midi": 58,
          "name": "A#3",
          "ticks": 432000,
          "time": 337.5,
          "velocity": 0.3937007874015748
        },
        {
          "duration": 0.46328125000002274,
          "durationTicks": 593,
          "midi": 53,
          "name": "F3",
          "ticks": 432840,
          "time": 338.15625,
          "velocity": 0.5748031496062992
        },
        {
          "duration": 0.6007812500000114,
          "durationTicks": 769,
          "midi": 51,
          "name": "D#3",
          "ticks": 433440,
          "time": 338.625,
          "velocity": 0.5118110236220472
        },
        {
          "duration": 0.5085937500000455,
          "durationTicks": 651,
          "midi": 39,
          "name": "D#2",
          "ticks": 434160,
          "time": 339.1875,
          "velocity": 0.44881889763779526
        },
        {
          "duration": 0.6031249999999773,
          "durationTicks": 772,
          "midi": 45,
          "name": "A2",
          "ticks": 434880,
          "time": 339.75,
          "velocity": 0.5118110236220472
        },
        {
          "duration": 0.46328125000002274,
          "durationTicks": 593,
          "midi": 45,
          "name": "A2",
          "ticks": 435720,
          "time": 340.40625,
          "velocity": 0.44881889763779526
        },
        {
          "duration": 0.6109375000000341,
          "durationTicks": 782,
          "midi": 44,
          "name": "G#2",
          "ticks": 436320,
          "time": 340.875,
          "velocity": 0.5118110236220472
        },
        {
          "duration": 0.5546875,
          "durationTicks": 710,
          "midi": 56,
          "name": "G#3",
          "ticks": 437160,
          "time": 341.53125,
          "velocity": 0.5118110236220472
        },
        {
          "duration": 0.5593749999999886,
          "durationTicks": 716,
          "midi": 57,
          "name": "A3",
          "ticks": 437880,
          "time": 342.09375,
          "velocity": 0.44881889763779526
        },
        {
          "duration": 0.5164062499999886,
          "durationTicks": 661,
          "midi": 45,
          "name": "A2",
          "ticks": 438600,
          "time": 342.65625,
          "velocity": 0.44881889763779526
        },
        {
          "duration": 0.5843749999999659,
          "durationTicks": 748,
          "midi": 44,
          "name": "G#2",
          "ticks": 439200,
          "time": 343.125,
          "velocity": 0.5118110236220472
        },
        {
          "duration": 0.5023437499999659,
          "durationTicks": 643,
          "midi": 44,
          "name": "G#2",
          "ticks": 440040,
          "time": 343.78125,
          "velocity": 0.44881889763779526
        },
        {
          "duration": 0.890625,
          "durationTicks": 1140,
          "midi": 43,
          "name": "G2",
          "ticks": 440640,
          "time": 344.25,
          "velocity": 0.4251968503937008
        },
        {
          "duration": 0.1039062499999659,
          "durationTicks": 133,
          "midi": 46,
          "name": "A#2",
          "ticks": 441720,
          "time": 345.09375,
          "velocity": 0.28346456692913385
        },
        {
          "duration": 0.13984375000001137,
          "durationTicks": 179,
          "midi": 47,
          "name": "B2",
          "ticks": 441840,
          "time": 345.1875,
          "velocity": 0.44881889763779526
        },
        {
          "duration": 0.6195312499999659,
          "durationTicks": 793,
          "midi": 48,
          "name": "C3",
          "ticks": 442080,
          "time": 345.375,
          "velocity": 0.5118110236220472
        },
        {
          "duration": 0.5101562500000227,
          "durationTicks": 653,
          "midi": 48,
          "name": "C3",
          "ticks": 442920,
          "time": 346.03125,
          "velocity": 0.36220472440944884
        },
        {
          "duration": 4.7179687499999545,
          "durationTicks": 6039,
          "midi": 41,
          "name": "F2",
          "ticks": 443520,
          "time": 346.5,
          "velocity": 0.4251968503937008
        }
      ]
    },
    {
      "channel": 0,
      "controlChanges": {},
      "pitchBends": [],
      "instrument": {
        "family": "piano",
        "number": 0,
        "name": "acoustic grand piano"
      },
      "name": "Erskine (drums)",
      "notes": [],
      "endOfTrackTicks": 447840
    },
    {
      "channel": 9,
      "controlChanges": {
        "7": [
          {
            "number": 7,
            "ticks": 0,
            "time": 0,
            "value": 0.8661417322834646
          }
        ]
      },
      "pitchBends": [],
      "instrument": {
        "family": "drums",
        "number": 32,
        "name": "jazz kit"
      },
      "name": "",
      "notes": [
        {
          "duration": 0.07109375,
          "durationTicks": 91,
          "midi": 51,
          "name": "D#3",
          "ticks": 0,
          "time": 0,
          "velocity": 0.3464566929133858
        },
        {
          "duration": 0.07109375000000007,
          "durationTicks": 91,
          "midi": 51,
          "name": "D#3",
          "ticks": 720,
          "time": 0.5625,
          "velocity": 0.3700787401574803
        },
        {
          "duration": 0.0703125,
          "durationTicks": 90,
          "midi": 51,
          "name": "D#3",
          "ticks": 1440,
          "time": 1.125,
          "velocity": 0.4015748031496063
        },
        {
          "duration": 0.022656250000000044,
          "durationTicks": 29,
          "midi": 44,
          "name": "G#2",
          "ticks": 1920,
          "time": 1.5,
          "velocity": 0.4330708661417323
        },
        {
          "duration": 0.0703125,
          "durationTicks": 90,
          "midi": 51,
          "name": "D#3",
          "ticks": 2280,
          "time": 1.78125,
          "velocity": 0.3700787401574803
        },
        {
          "duration": 0.07187499999999991,
          "durationTicks": 92,
          "midi": 51,
          "name": "D#3",
          "ticks": 2880,
          "time": 2.25,
          "velocity": 0.4015748031496063
        },
        {
          "duration": 0.07109375000000018,
          "durationTicks": 91,
          "midi": 51,
          "name": "D#3",
          "ticks": 3720,
          "time": 2.90625,
          "velocity": 0.3779527559055118
        },
        {
          "duration": 0.07265624999999964,
          "durationTicks": 93,
          "midi": 51,
          "name": "D#3",
          "ticks": 4200,
          "time": 3.28125,
          "velocity": 0.3858267716535433
        },
        {
          "duration": 0.07109375000000018,
          "durationTicks": 91,
          "midi": 51,
          "name": "D#3",
          "ticks": 4320,
          "time": 3.375,
          "velocity": 0.4015748031496063
        },
        {
          "duration": 0.024218750000000178,
          "durationTicks": 31,
          "midi": 44,
          "name": "G#2",
          "ticks": 4800,
          "time": 3.75,
          "velocity": 0.4330708661417323
        },
        {
          "duration": 0.07187499999999991,
          "durationTicks": 92,
          "midi": 51,
          "name": "D#3",
          "ticks": 4800,
          "time": 3.75,
          "velocity": 0.3464566929133858
        },
        {
          "duration": 0.07187500000000036,
          "durationTicks": 92,
          "midi": 51,
          "name": "D#3",
          "ticks": 5280,
          "time": 4.125,
          "velocity": 0.36220472440944884
        },
        {
          "duration": 0.07109375000000018,
          "durationTicks": 91,
          "midi": 51,
          "name": "D#3",
          "ticks": 5760,
          "time": 4.5,
          "velocity": 0.36220472440944884
        },
        {
          "duration": 0.06874999999999964,
          "durationTicks": 88,
          "midi": 51,
          "name": "D#3",
          "ticks": 6600,
          "time": 5.15625,
          "velocity": 0.3858267716535433
        },
        {
          "duration": 0.07109375000000018,
          "durationTicks": 91,
          "midi": 46,
          "name": "A#2",
          "ticks": 7080,
          "time": 5.53125,
          "velocity": 0.1889763779527559
        },
        {
          "duration": 0.07109375000000018,
          "durationTicks": 91,
          "midi": 46,
          "name": "A#2",
          "ticks": 7200,
          "time": 5.625,
          "velocity": 0.25984251968503935
        },
        {
          "duration": 0.07187500000000036,
          "durationTicks": 92,
          "midi": 51,
          "name": "D#3",
          "ticks": 8040,
          "time": 6.28125,
          "velocity": 0.3779527559055118
        },
        {
          "duration": 0.07109375000000107,
          "durationTicks": 91,
          "midi": 51,
          "name": "D#3",
          "ticks": 8520,
          "time": 6.65625,
          "velocity": 0.36220472440944884
        },
        {
          "duration": 0.07109375000000107,
          "durationTicks": 91,
          "midi": 51,
          "name": "D#3",
          "ticks": 8640,
          "time": 6.75,
          "velocity": 0.3779527559055118
        },
        {
          "duration": 0.07187500000000036,
          "durationTicks": 92,
          "midi": 51,
          "name": "D#3",
          "ticks": 9480,
          "time": 7.40625,
          "velocity": 0.41732283464566927
        },
        {
          "duration": 0.07109375000000107,
          "durationTicks": 91,
          "midi": 51,
          "name": "D#3",
          "ticks": 9720,
          "time": 7.59375,
          "velocity": 0.4015748031496063
        },
        {
          "duration": 0.07187500000000036,
          "durationTicks": 92,
          "midi": 46,
          "name": "A#2",
          "ticks": 10080,
          "time": 7.875,
          "velocity": 0.25196850393700787
        },
        {
          "duration": 0.07187500000000036,
          "durationTicks": 92,
          "midi": 51,
          "name": "D#3",
          "ticks": 10560,
          "time": 8.25,
          "velocity": 0.44881889763779526
        },
        {
          "duration": 0.07109375000000107,
          "durationTicks": 91,
          "midi": 46,
          "name": "A#2",
          "ticks": 11040,
          "time": 8.625,
          "velocity": 0.2440944881889764
        },
        {
          "duration": 0.06953124999999893,
          "durationTicks": 89,
          "midi": 46,
          "name": "A#2",
          "ticks": 11520,
          "time": 9,
          "velocity": 0.3464566929133858
        },
        {
          "duration": 0.07109375000000107,
          "durationTicks": 91,
          "midi": 51,
          "name": "D#3",
          "ticks": 12360,
          "time": 9.65625,
          "velocity": 0.3779527559055118
        },
        {
          "duration": 0.07187500000000036,
          "durationTicks": 92,
          "midi": 46,
          "name": "A#2",
          "ticks": 12720,
          "time": 9.9375,
          "velocity": 0.2204724409448819
        },
        {
          "duration": 0.07109375000000107,
          "durationTicks": 91,
          "midi": 51,
          "name": "D#3",
          "ticks": 12960,
          "time": 10.125,
          "velocity": 0.44881889763779526
        },
        {
          "duration": 0.024218750000001066,
          "durationTicks": 31,
          "midi": 44,
          "name": "G#2",
          "ticks": 13440,
          "time": 10.5,
          "velocity": 0.4330708661417323
        },
        {
          "duration": 0.07109375000000107,
          "durationTicks": 91,
          "midi": 51,
          "name": "D#3",
          "ticks": 13800,
          "time": 10.78125,
          "velocity": 0.3858267716535433
        },
        {
          "duration": 0.07109375000000107,
          "durationTicks": 91,
          "midi": 51,
          "name": "D#3",
          "ticks": 14280,
          "time": 11.15625,
          "velocity": 0.4015748031496063
        },
        {
          "duration": 0.07109375000000107,
          "durationTicks": 91,
          "midi": 51,
          "name": "D#3",
          "ticks": 14400,
          "time": 11.25,
          "velocity": 0.3858267716535433
        },
        {
          "duration": 0.025000000000000355,
          "durationTicks": 32,
          "midi": 44,
          "name": "G#2",
          "ticks": 14880,
          "time": 11.625,
          "velocity": 0.4330708661417323
        },
        {
          "duration": 0.07265625000000142,
          "durationTicks": 93,
          "midi": 51,
          "name": "D#3",
          "ticks": 15240,
          "time": 11.90625,
          "velocity": 0.4094488188976378
        },
        {
          "duration": 0.06953125000000071,
          "durationTicks": 89,
          "midi": 46,
          "name": "A#2",
          "ticks": 15720,
          "time": 12.28125,
          "velocity": 0.23622047244094488
        },
        {
          "duration": 0.07265625000000142,
          "durationTicks": 93,
          "midi": 51,
          "name": "D#3",
          "ticks": 15840,
          "time": 12.375,
          "velocity": 0.4330708661417323
        },
        {
          "duration": 0.07187500000000213,
          "durationTicks": 92,
          "midi": 46,
          "name": "A#2",
          "ticks": 16320,
          "time": 12.75,
          "velocity": 0.2440944881889764
        },
        {
          "duration": 0.07109374999999929,
          "durationTicks": 91,
          "midi": 46,
          "name": "A#2",
          "ticks": 16800,
          "time": 13.125,
          "velocity": 0.2992125984251969
        },
        {
          "duration": 0.07265625000000142,
          "durationTicks": 93,
          "midi": 55,
          "name": "G3",
          "ticks": 17280,
          "time": 13.5,
          "velocity": 0.3228346456692913
        },
        {
          "duration": 0.07109374999999929,
          "durationTicks": 91,
          "midi": 46,
          "name": "A#2",
          "ticks": 18120,
          "time": 14.15625,
          "velocity": 0.2440944881889764
        },
        {
          "duration": 0.07109374999999929,
          "durationTicks": 91,
          "midi": 51,
          "name": "D#3",
          "ticks": 18600,
          "time": 14.53125,
          "velocity": 0.3858267716535433
        },
        {
          "duration": 0.07109374999999929,
          "durationTicks": 91,
          "midi": 51,
          "name": "D#3",
          "ticks": 18720,
          "time": 14.625,
          "velocity": 0.4015748031496063
        },
        {
          "duration": 0.07109374999999929,
          "durationTicks": 91,
          "midi": 51,
          "name": "D#3",
          "ticks": 19200,
          "time": 15,
          "velocity": 0.4094488188976378
        },
        {
          "duration": 0.02421874999999929,
          "durationTicks": 31,
          "midi": 44,
          "name": "G#2",
          "ticks": 19680,
          "time": 15.375,
          "velocity": 0.4330708661417323
        },
        {
          "duration": 0.07109374999999929,
          "durationTicks": 91,
          "midi": 46,
          "name": "A#2",
          "ticks": 19800,
          "time": 15.46875,
          "velocity": 0.2125984251968504
        },
        {
          "duration": 0.07109374999999929,
          "durationTicks": 91,
          "midi": 51,
          "name": "D#3",
          "ticks": 20040,
          "time": 15.65625,
          "velocity": 0.3779527559055118
        },
        {
          "duration": 0.07109374999999929,
          "durationTicks": 91,
          "midi": 51,
          "name": "D#3",
          "ticks": 20160,
          "time": 15.75,
          "velocity": 0.4094488188976378
        },
        {
          "duration": 0.02265625000000071,
          "durationTicks": 29,
          "midi": 44,
          "name": "G#2",
          "ticks": 20640,
          "time": 16.125,
          "velocity": 0.4330708661417323
        },
        {
          "duration": 0.07187500000000213,
          "durationTicks": 92,
          "midi": 46,
          "name": "A#2",
          "ticks": 20880,
          "time": 16.3125,
          "velocity": 0.2125984251968504
        },
        {
          "duration": 0.07109374999999929,
          "durationTicks": 91,
          "midi": 51,
          "name": "D#3",
          "ticks": 21000,
          "time": 16.40625,
          "velocity": 0.3858267716535433
        },
        {
          "duration": 0.07109374999999929,
          "durationTicks": 91,
          "midi": 51,
          "name": "D#3",
          "ticks": 21120,
          "time": 16.5,
          "velocity": 0.4094488188976378
        },
        {
          "duration": 0.07187500000000213,
          "durationTicks": 92,
          "midi": 46,
          "name": "A#2",
          "ticks": 21960,
          "time": 17.15625,
          "velocity": 0.1889763779527559
        },
        {
          "duration": 0.07109374999999929,
          "durationTicks": 91,
          "midi": 46,
          "name": "A#2",
          "ticks": 22080,
          "time": 17.25,
          "velocity": 0.3228346456692913
        },
        {
          "duration": 0.07109374999999929,
          "durationTicks": 91,
          "midi": 51,
          "name": "D#3",
          "ticks": 22560,
          "time": 17.625,
          "velocity": 0.4251968503937008
        },
        {
          "duration": 0.07109374999999929,
          "durationTicks": 91,
          "midi": 55,
          "name": "G3",
          "ticks": 23040,
          "time": 18,
          "velocity": 0.2755905511811024
        },
        {
          "duration": 0.07109374999999929,
          "durationTicks": 91,
          "midi": 51,
          "name": "D#3",
          "ticks": 23880,
          "time": 18.65625,
          "velocity": 0.3858267716535433
        },
        {
          "duration": 0.07109374999999929,
          "durationTicks": 91,
          "midi": 51,
          "name": "D#3",
          "ticks": 24480,
          "time": 19.125,
          "velocity": 0.4094488188976378
        },
        {
          "duration": 0.0703125,
          "durationTicks": 90,
          "midi": 51,
          "name": "D#3",
          "ticks": 25320,
          "time": 19.78125,
          "velocity": 0.3700787401574803
        },
        {
          "duration": 0.07109374999999929,
          "durationTicks": 91,
          "midi": 51,
          "name": "D#3",
          "ticks": 25680,
          "time": 20.0625,
          "velocity": 0.3779527559055118
        },
        {
          "duration": 0.07109374999999929,
          "durationTicks": 91,
          "midi": 51,
          "name": "D#3",
          "ticks": 25920,
          "time": 20.25,
          "velocity": 0.3779527559055118
        },
        {
          "duration": 0.02421874999999929,
          "durationTicks": 31,
          "midi": 44,
          "name": "G#2",
          "ticks": 26400,
          "time": 20.625,
          "velocity": 0.4330708661417323
        },
        {
          "duration": 0.0703125,
          "durationTicks": 90,
          "midi": 51,
          "name": "D#3",
          "ticks": 26760,
          "time": 20.90625,
          "velocity": 0.3858267716535433
        },
        {
          "duration": 0.07187500000000213,
          "durationTicks": 92,
          "midi": 51,
          "name": "D#3",
          "ticks": 27240,
          "time": 21.28125,
          "velocity": 0.3779527559055118
        },
        {
          "duration": 0.07187500000000213,
          "durationTicks": 92,
          "midi": 51,
          "name": "D#3",
          "ticks": 27360,
          "time": 21.375,
          "velocity": 0.3700787401574803
        },
        {
          "duration": 0.07109374999999929,
          "durationTicks": 91,
          "midi": 51,
          "name": "D#3",
          "ticks": 27840,
          "time": 21.75,
          "velocity": 0.3543307086614173
        },
        {
          "duration": 0.07187500000000213,
          "durationTicks": 92,
          "midi": 46,
          "name": "A#2",
          "ticks": 28680,
          "time": 22.40625,
          "velocity": 0.2125984251968504
        },
        {
          "duration": 0.07187500000000213,
          "durationTicks": 92,
          "midi": 51,
          "name": "D#3",
          "ticks": 28800,
          "time": 22.5,
          "velocity": 0.4015748031496063
        },
        {
          "duration": 0.06953125000000071,
          "durationTicks": 89,
          "midi": 51,
          "name": "D#3",
          "ticks": 29640,
          "time": 23.15625,
          "velocity": 0.36220472440944884
        },
        {
          "duration": 0.07187500000000213,
          "durationTicks": 92,
          "midi": 51,
          "name": "D#3",
          "ticks": 30120,
          "time": 23.53125,
          "velocity": 0.3464566929133858
        },
        {
          "duration": 0.07109374999999929,
          "durationTicks": 91,
          "midi": 51,
          "name": "D#3",
          "ticks": 30240,
          "time": 23.625,
          "velocity": 0.3700787401574803
        },
        {
          "duration": 0.02265625000000071,
          "durationTicks": 29,
          "midi": 44,
          "name": "G#2",
          "ticks": 30720,
          "time": 24,
          "velocity": 0.4330708661417323
        },
        {
          "duration": 0.07265624999999787,
          "durationTicks": 93,
          "midi": 51,
          "name": "D#3",
          "ticks": 30720,
          "time": 24,
          "velocity": 0.3700787401574803
        },
        {
          "duration": 0.07109374999999929,
          "durationTicks": 91,
          "midi": 51,
          "name": "D#3",
          "ticks": 31680,
          "time": 24.75,
          "velocity": 0.3779527559055118
        },
        {
          "duration": 0.02499999999999858,
          "durationTicks": 32,
          "midi": 44,
          "name": "G#2",
          "ticks": 32160,
          "time": 25.125,
          "velocity": 0.4330708661417323
        },
        {
          "duration": 0.07109374999999929,
          "durationTicks": 91,
          "midi": 51,
          "name": "D#3",
          "ticks": 32520,
          "time": 25.40625,
          "velocity": 0.4015748031496063
        },
        {
          "duration": 0.07109374999999929,
          "durationTicks": 91,
          "midi": 46,
          "name": "A#2",
          "ticks": 32760,
          "time": 25.59375,
          "velocity": 0.2125984251968504
        },
        {
          "duration": 0.07265624999999787,
          "durationTicks": 93,
          "midi": 51,
          "name": "D#3",
          "ticks": 33120,
          "time": 25.875,
          "velocity": 0.4251968503937008
        },
        {
          "duration": 0.0234375,
          "durationTicks": 30,
          "midi": 44,
          "name": "G#2",
          "ticks": 33480,
          "time": 26.15625,
          "velocity": 0.4330708661417323
        },
        {
          "duration": 0.07109374999999929,
          "durationTicks": 91,
          "midi": 46,
          "name": "A#2",
          "ticks": 33840,
          "time": 26.4375,
          "velocity": 0.2125984251968504
        },
        {
          "duration": 0.07109374999999929,
          "durationTicks": 91,
          "midi": 51,
          "name": "D#3",
          "ticks": 34200,
          "time": 26.71875,
          "velocity": 0.3937007874015748
        },
        {
          "duration": 0.07109374999999929,
          "durationTicks": 91,
          "midi": 55,
          "name": "G3",
          "ticks": 34560,
          "time": 27,
          "velocity": 0.31496062992125984
        },
        {
          "duration": 0.02187500000000142,
          "durationTicks": 28,
          "midi": 44,
          "name": "G#2",
          "ticks": 35040,
          "time": 27.375,
          "velocity": 0.4330708661417323
        },
        {
          "duration": 0.07109374999999929,
          "durationTicks": 91,
          "midi": 51,
          "name": "D#3",
          "ticks": 35400,
          "time": 27.65625,
          "velocity": 0.41732283464566927
        },
        {
          "duration": 0.0703125,
          "durationTicks": 90,
          "midi": 46,
          "name": "A#2",
          "ticks": 35880,
          "time": 28.03125,
          "velocity": 0.33858267716535434
        },
        {
          "duration": 0.07109374999999929,
          "durationTicks": 91,
          "midi": 46,
          "name": "A#2",
          "ticks": 36000,
          "time": 28.125,
          "velocity": 0.3228346456692913
        },
        {
          "duration": 0.07187499999999858,
          "durationTicks": 92,
          "midi": 51,
          "name": "D#3",
          "ticks": 36480,
          "time": 28.5,
          "velocity": 0.3858267716535433
        },
        {
          "duration": 0.07109374999999929,
          "durationTicks": 91,
          "midi": 46,
          "name": "A#2",
          "ticks": 37200,
          "time": 29.0625,
          "velocity": 0.2440944881889764
        },
        {
          "duration": 0.07109374999999929,
          "durationTicks": 91,
          "midi": 46,
          "name": "A#2",
          "ticks": 37320,
          "time": 29.15625,
          "velocity": 0.36220472440944884
        },
        {
          "duration": 0.07187499999999858,
          "durationTicks": 92,
          "midi": 46,
          "name": "A#2",
          "ticks": 37440,
          "time": 29.25,
          "velocity": 0.3464566929133858
        },
        {
          "duration": 0.07109374999999929,
          "durationTicks": 91,
          "midi": 51,
          "name": "D#3",
          "ticks": 37920,
          "time": 29.625,
          "velocity": 0.31496062992125984
        },
        {
          "duration": 0.07109374999999929,
          "durationTicks": 91,
          "midi": 51,
          "name": "D#3",
          "ticks": 38280,
          "time": 29.90625,
          "velocity": 0.4015748031496063
        },
        {
          "duration": 0.07109374999999929,
          "durationTicks": 91,
          "midi": 46,
          "name": "A#2",
          "ticks": 38640,
          "time": 30.1875,
          "velocity": 0.1968503937007874
        },
        {
          "duration": 0.07109374999999929,
          "durationTicks": 91,
          "midi": 51,
          "name": "D#3",
          "ticks": 38880,
          "time": 30.375,
          "velocity": 0.4409448818897638
        },
        {
          "duration": 0.02265625000000071,
          "durationTicks": 29,
          "midi": 44,
          "name": "G#2",
          "ticks": 39360,
          "time": 30.75,
          "velocity": 0.4330708661417323
        },
        {
          "duration": 0.07187499999999858,
          "durationTicks": 92,
          "midi": 51,
          "name": "D#3",
          "ticks": 39720,
          "time": 31.03125,
          "velocity": 0.4409448818897638
        },
        {
          "duration": 0.07187499999999858,
          "durationTicks": 92,
          "midi": 55,
          "name": "G3",
          "ticks": 40080,
          "time": 31.3125,
          "velocity": 0.13385826771653545
        },
        {
          "duration": 0.07187499999999858,
          "durationTicks": 92,
          "midi": 46,
          "name": "A#2",
          "ticks": 40320,
          "time": 31.5,
          "velocity": 0.4094488188976378
        },
        {
          "duration": 0.07265624999999787,
          "durationTicks": 93,
          "midi": 51,
          "name": "D#3",
          "ticks": 40800,
          "time": 31.875,
          "velocity": 0.33858267716535434
        },
        {
          "duration": 0.07109375000000284,
          "durationTicks": 91,
          "midi": 51,
          "name": "D#3",
          "ticks": 41280,
          "time": 32.25,
          "velocity": 0.4015748031496063
        },
        {
          "duration": 0.02499999999999858,
          "durationTicks": 32,
          "midi": 44,
          "name": "G#2",
          "ticks": 41760,
          "time": 32.625,
          "velocity": 0.4330708661417323
        },
        {
          "duration": 0.0703125,
          "durationTicks": 90,
          "midi": 51,
          "name": "D#3",
          "ticks": 42120,
          "time": 32.90625,
          "velocity": 0.4015748031496063
        },
        {
          "duration": 0.07109375000000284,
          "durationTicks": 91,
          "midi": 51,
          "name": "D#3",
          "ticks": 42720,
          "time": 33.375,
          "velocity": 0.44881889763779526
        },
        {
          "duration": 0.07187499999999858,
          "durationTicks": 92,
          "midi": 46,
          "name": "A#2",
          "ticks": 42960,
          "time": 33.5625,
          "velocity": 0.23622047244094488
        },
        {
          "duration": 0.06875000000000142,
          "durationTicks": 88,
          "midi": 46,
          "name": "A#2",
          "ticks": 43200,
          "time": 33.75,
          "velocity": 0.3228346456692913
        },
        {
          "duration": 0.024218750000002842,
          "durationTicks": 31,
          "midi": 44,
          "name": "G#2",
          "ticks": 43680,
          "time": 34.125,
          "velocity": 0.4330708661417323
        },
        {
          "duration": 0.07109375000000284,
          "durationTicks": 91,
          "midi": 51,
          "name": "D#3",
          "ticks": 44040,
          "time": 34.40625,
          "velocity": 0.3779527559055118
        },
        {
          "duration": 0.07109375000000284,
          "durationTicks": 91,
          "midi": 46,
          "name": "A#2",
          "ticks": 44400,
          "time": 34.6875,
          "velocity": 0.23622047244094488
        },
        {
          "duration": 0.07109375000000284,
          "durationTicks": 91,
          "midi": 51,
          "name": "D#3",
          "ticks": 44640,
          "time": 34.875,
          "velocity": 0.48031496062992124
        },
        {
          "duration": 0.0234375,
          "durationTicks": 30,
          "midi": 44,
          "name": "G#2",
          "ticks": 45120,
          "time": 35.25,
          "velocity": 0.4330708661417323
        },
        {
          "duration": 0.07109375000000284,
          "durationTicks": 91,
          "midi": 46,
          "name": "A#2",
          "ticks": 45480,
          "time": 35.53125,
          "velocity": 0.2440944881889764
        },
        {
          "duration": 0.07109375000000284,
          "durationTicks": 91,
          "midi": 51,
          "name": "D#3",
          "ticks": 45480,
          "time": 35.53125,
          "velocity": 0.47244094488188976
        },
        {
          "duration": 0.07109375000000284,
          "durationTicks": 91,
          "midi": 46,
          "name": "A#2",
          "ticks": 45960,
          "time": 35.90625,
          "velocity": 0.23622047244094488
        },
        {
          "duration": 0.07265624999999432,
          "durationTicks": 93,
          "midi": 35,
          "name": "B1",
          "ticks": 46080,
          "time": 36,
          "velocity": 0.3543307086614173
        },
        {
          "duration": 0.07187499999999858,
          "durationTicks": 92,
          "midi": 46,
          "name": "A#2",
          "ticks": 46080,
          "time": 36,
          "velocity": 0.3937007874015748
        },
        {
          "duration": 0.07187499999999858,
          "durationTicks": 92,
          "midi": 51,
          "name": "D#3",
          "ticks": 46560,
          "time": 36.375,
          "velocity": 0.36220472440944884
        },
        {
          "duration": 0.07109375000000284,
          "durationTicks": 91,
          "midi": 51,
          "name": "D#3",
          "ticks": 47040,
          "time": 36.75,
          "velocity": 0.3700787401574803
        },
        {
          "duration": 0.07187499999999858,
          "durationTicks": 92,
          "midi": 51,
          "name": "D#3",
          "ticks": 48000,
          "time": 37.5,
          "velocity": 0.36220472440944884
        },
        {
          "duration": 0.06953124999999716,
          "durationTicks": 89,
          "midi": 51,
          "name": "D#3",
          "ticks": 48480,
          "time": 37.875,
          "velocity": 0.3858267716535433
        },
        {
          "duration": 0.07187499999999858,
          "durationTicks": 92,
          "midi": 51,
          "name": "D#3",
          "ticks": 49440,
          "time": 38.625,
          "velocity": 0.3779527559055118
        },
        {
          "duration": 0.07265624999999432,
          "durationTicks": 93,
          "midi": 51,
          "name": "D#3",
          "ticks": 49920,
          "time": 39,
          "velocity": 0.3858267716535433
        },
        {
          "duration": 0.07109375000000284,
          "durationTicks": 91,
          "midi": 51,
          "name": "D#3",
          "ticks": 50880,
          "time": 39.75,
          "velocity": 0.3700787401574803
        },
        {
          "duration": 0.07187499999999858,
          "durationTicks": 92,
          "midi": 51,
          "name": "D#3",
          "ticks": 51360,
          "time": 40.125,
          "velocity": 0.3779527559055118
        },
        {
          "duration": 0.07187499999999858,
          "durationTicks": 92,
          "midi": 51,
          "name": "D#3",
          "ticks": 52320,
          "time": 40.875,
          "velocity": 0.3700787401574803
        },
        {
          "duration": 0.07109375000000284,
          "durationTicks": 91,
          "midi": 51,
          "name": "D#3",
          "ticks": 52800,
          "time": 41.25,
          "velocity": 0.3700787401574803
        },
        {
          "duration": 0.0703125,
          "durationTicks": 90,
          "midi": 51,
          "name": "D#3",
          "ticks": 53760,
          "time": 42,
          "velocity": 0.3779527559055118
        },
        {
          "duration": 0.07109375000000284,
          "durationTicks": 91,
          "midi": 51,
          "name": "D#3",
          "ticks": 54240,
          "time": 42.375,
          "velocity": 0.3779527559055118
        },
        {
          "duration": 0.07187499999999858,
          "durationTicks": 92,
          "midi": 51,
          "name": "D#3",
          "ticks": 55200,
          "time": 43.125,
          "velocity": 0.3700787401574803
        },
        {
          "duration": 0.07187499999999858,
          "durationTicks": 92,
          "midi": 51,
          "name": "D#3",
          "ticks": 55680,
          "time": 43.5,
          "velocity": 0.3700787401574803
        },
        {
          "duration": 0.07187499999999858,
          "durationTicks": 92,
          "midi": 51,
          "name": "D#3",
          "ticks": 56160,
          "time": 43.875,
          "velocity": 0.3700787401574803
        },
        {
          "duration": 0.06875000000000142,
          "durationTicks": 88,
          "midi": 46,
          "name": "A#2",
          "ticks": 56520,
          "time": 44.15625,
          "velocity": 0.1889763779527559
        },
        {
          "duration": 0.07187499999999858,
          "durationTicks": 92,
          "midi": 51,
          "name": "D#3",
          "ticks": 56880,
          "time": 44.4375,
          "velocity": 0.4094488188976378
        },
        {
          "duration": 0.07187499999999858,
          "durationTicks": 92,
          "midi": 46,
          "name": "A#2",
          "ticks": 57240,
          "time": 44.71875,
          "velocity": 0.1889763779527559
        },
        {
          "duration": 0.06875000000000142,
          "durationTicks": 88,
          "midi": 46,
          "name": "A#2",
          "ticks": 57600,
          "time": 45,
          "velocity": 0.2992125984251969
        },
        {
          "duration": 0.07109375000000284,
          "durationTicks": 91,
          "midi": 51,
          "name": "D#3",
          "ticks": 58080,
          "time": 45.375,
          "velocity": 0.33070866141732286
        },
        {
          "duration": 0.07109375000000284,
          "durationTicks": 91,
          "midi": 51,
          "name": "D#3",
          "ticks": 58440,
          "time": 45.65625,
          "velocity": 0.3937007874015748
        },
        {
          "duration": 0.07109375000000284,
          "durationTicks": 91,
          "midi": 51,
          "name": "D#3",
          "ticks": 58800,
          "time": 45.9375,
          "velocity": 0.3543307086614173
        },
        {
          "duration": 0.07187499999999858,
          "durationTicks": 92,
          "midi": 51,
          "name": "D#3",
          "ticks": 59040,
          "time": 46.125,
          "velocity": 0.44881889763779526
        },
        {
          "duration": 0.07109375000000284,
          "durationTicks": 91,
          "midi": 51,
          "name": "D#3",
          "ticks": 59520,
          "time": 46.5,
          "velocity": 0.31496062992125984
        },
        {
          "duration": 0.07109375000000284,
          "durationTicks": 91,
          "midi": 51,
          "name": "D#3",
          "ticks": 59880,
          "time": 46.78125,
          "velocity": 0.4251968503937008
        },
        {
          "duration": 0.06953124999999716,
          "durationTicks": 89,
          "midi": 46,
          "name": "A#2",
          "ticks": 60360,
          "time": 47.15625,
          "velocity": 0.2125984251968504
        },
        {
          "duration": 0.07109375000000284,
          "durationTicks": 91,
          "midi": 51,
          "name": "D#3",
          "ticks": 60480,
          "time": 47.25,
          "velocity": 0.4094488188976378
        },
        {
          "duration": 0.07109375000000284,
          "durationTicks": 91,
          "midi": 51,
          "name": "D#3",
          "ticks": 60960,
          "time": 47.625,
          "velocity": 0.3464566929133858
        },
        {
          "duration": 0.07265624999999432,
          "durationTicks": 93,
          "midi": 51,
          "name": "D#3",
          "ticks": 61440,
          "time": 48,
          "velocity": 0.4251968503937008
        },
        {
          "duration": 0.07187499999999858,
          "durationTicks": 92,
          "midi": 51,
          "name": "D#3",
          "ticks": 62160,
          "time": 48.5625,
          "velocity": 0.31496062992125984
        },
        {
          "duration": 0.06953124999999716,
          "durationTicks": 89,
          "midi": 51,
          "name": "D#3",
          "ticks": 62400,
          "time": 48.75,
          "velocity": 0.4015748031496063
        },
        {
          "duration": 0.07187499999999858,
          "durationTicks": 92,
          "midi": 51,
          "name": "D#3",
          "ticks": 62880,
          "time": 49.125,
          "velocity": 0.4251968503937008
        },
        {
          "duration": 0.06953124999999716,
          "durationTicks": 89,
          "midi": 51,
          "name": "D#3",
          "ticks": 63360,
          "time": 49.5,
          "velocity": 0.4094488188976378
        },
        {
          "duration": 0.07265624999999432,
          "durationTicks": 93,
          "midi": 51,
          "name": "D#3",
          "ticks": 63840,
          "time": 49.875,
          "velocity": 0.31496062992125984
        },
        {
          "duration": 0.07265624999999432,
          "durationTicks": 93,
          "midi": 51,
          "name": "D#3",
          "ticks": 64200,
          "time": 50.15625,
          "velocity": 0.41732283464566927
        },
        {
          "duration": 0.07187499999999858,
          "durationTicks": 92,
          "midi": 51,
          "name": "D#3",
          "ticks": 64800,
          "time": 50.625,
          "velocity": 0.31496062992125984
        },
        {
          "duration": 0.07187499999999858,
          "durationTicks": 92,
          "midi": 51,
          "name": "D#3",
          "ticks": 65160,
          "time": 50.90625,
          "velocity": 0.44881889763779526
        },
        {
          "duration": 0.06875000000000142,
          "durationTicks": 88,
          "midi": 51,
          "name": "D#3",
          "ticks": 66120,
          "time": 51.65625,
          "velocity": 0.33070866141732286
        },
        {
          "duration": 0.07109375000000284,
          "durationTicks": 91,
          "midi": 51,
          "name": "D#3",
          "ticks": 66600,
          "time": 52.03125,
          "velocity": 0.36220472440944884
        },
        {
          "duration": 0.0703125,
          "durationTicks": 90,
          "midi": 51,
          "name": "D#3",
          "ticks": 66720,
          "time": 52.125,
          "velocity": 0.36220472440944884
        },
        {
          "duration": 0.07109375000000284,
          "durationTicks": 91,
          "midi": 51,
          "name": "D#3",
          "ticks": 67200,
          "time": 52.5,
          "velocity": 0.33070866141732286
        },
        {
          "duration": 0.07187499999999858,
          "durationTicks": 92,
          "midi": 51,
          "name": "D#3",
          "ticks": 67680,
          "time": 52.875,
          "velocity": 0.3464566929133858
        },
        {
          "duration": 0.07187499999999858,
          "durationTicks": 92,
          "midi": 51,
          "name": "D#3",
          "ticks": 68160,
          "time": 53.25,
          "velocity": 0.33858267716535434
        },
        {
          "duration": 0.07109375000000284,
          "durationTicks": 91,
          "midi": 46,
          "name": "A#2",
          "ticks": 68880,
          "time": 53.8125,
          "velocity": 0.1889763779527559
        },
        {
          "duration": 0.07109375000000284,
          "durationTicks": 91,
          "midi": 46,
          "name": "A#2",
          "ticks": 69000,
          "time": 53.90625,
          "velocity": 0.25984251968503935
        },
        {
          "duration": 0.07109375000000284,
          "durationTicks": 91,
          "midi": 46,
          "name": "A#2",
          "ticks": 69120,
          "time": 54,
          "velocity": 0.30708661417322836
        },
        {
          "duration": 0.07187499999999858,
          "durationTicks": 92,
          "midi": 51,
          "name": "D#3",
          "ticks": 69960,
          "time": 54.65625,
          "velocity": 0.3464566929133858
        },
        {
          "duration": 0.07109375000000284,
          "durationTicks": 91,
          "midi": 51,
          "name": "D#3",
          "ticks": 70680,
          "time": 55.21875,
          "velocity": 0.4330708661417323
        },
        {
          "duration": 0.07109375000000284,
          "durationTicks": 91,
          "midi": 51,
          "name": "D#3",
          "ticks": 71400,
          "time": 55.78125,
          "velocity": 0.3700787401574803
        },
        {
          "duration": 0.07109375000000284,
          "durationTicks": 91,
          "midi": 51,
          "name": "D#3",
          "ticks": 72000,
          "time": 56.25,
          "velocity": 0.4015748031496063
        },
        {
          "duration": 0.07109375000000284,
          "durationTicks": 91,
          "midi": 51,
          "name": "D#3",
          "ticks": 72840,
          "time": 56.90625,
          "velocity": 0.3700787401574803
        },
        {
          "duration": 0.07109375000000284,
          "durationTicks": 91,
          "midi": 51,
          "name": "D#3",
          "ticks": 73440,
          "time": 57.375,
          "velocity": 0.4251968503937008
        },
        {
          "duration": 0.07109375000000284,
          "durationTicks": 91,
          "midi": 51,
          "name": "D#3",
          "ticks": 74280,
          "time": 58.03125,
          "velocity": 0.3779527559055118
        },
        {
          "duration": 0.06953124999999716,
          "durationTicks": 89,
          "midi": 46,
          "name": "A#2",
          "ticks": 74880,
          "time": 58.5,
          "velocity": 0.2755905511811024
        },
        {
          "duration": 0.07109375000000284,
          "durationTicks": 91,
          "midi": 51,
          "name": "D#3",
          "ticks": 75360,
          "time": 58.875,
          "velocity": 0.31496062992125984
        },
        {
          "duration": 0.07109375000000284,
          "durationTicks": 91,
          "midi": 51,
          "name": "D#3",
          "ticks": 75840,
          "time": 59.25,
          "velocity": 0.4015748031496063
        },
        {
          "duration": 0.07109375000000284,
          "durationTicks": 91,
          "midi": 51,
          "name": "D#3",
          "ticks": 76800,
          "time": 60,
          "velocity": 0.3464566929133858
        },
        {
          "duration": 0.07187499999999858,
          "durationTicks": 92,
          "midi": 51,
          "name": "D#3",
          "ticks": 77280,
          "time": 60.375,
          "velocity": 0.3858267716535433
        },
        {
          "duration": 0.07109375000000284,
          "durationTicks": 91,
          "midi": 51,
          "name": "D#3",
          "ticks": 78120,
          "time": 61.03125,
          "velocity": 0.36220472440944884
        },
        {
          "duration": 0.024218750000002842,
          "durationTicks": 31,
          "midi": 44,
          "name": "G#2",
          "ticks": 78600,
          "time": 61.40625,
          "velocity": 0.4330708661417323
        },
        {
          "duration": 0.07109375000000284,
          "durationTicks": 91,
          "midi": 51,
          "name": "D#3",
          "ticks": 78720,
          "time": 61.5,
          "velocity": 0.4251968503937008
        },
        {
          "duration": 0.06875000000000142,
          "durationTicks": 88,
          "midi": 51,
          "name": "D#3",
          "ticks": 79200,
          "time": 61.875,
          "velocity": 0.31496062992125984
        },
        {
          "duration": 0.07265624999999432,
          "durationTicks": 93,
          "midi": 51,
          "name": "D#3",
          "ticks": 79560,
          "time": 62.15625,
          "velocity": 0.3543307086614173
        },
        {
          "duration": 0.07109375000000284,
          "durationTicks": 91,
          "midi": 51,
          "name": "D#3",
          "ticks": 79680,
          "time": 62.25,
          "velocity": 0.3700787401574803
        },
        {
          "duration": 0.02187500000000142,
          "durationTicks": 28,
          "midi": 44,
          "name": "G#2",
          "ticks": 80040,
          "time": 62.53125,
          "velocity": 0.4330708661417323
        },
        {
          "duration": 0.07109375000000284,
          "durationTicks": 91,
          "midi": 51,
          "name": "D#3",
          "ticks": 80160,
          "time": 62.625,
          "velocity": 0.4015748031496063
        },
        {
          "duration": 0.07187499999999858,
          "durationTicks": 92,
          "midi": 51,
          "name": "D#3",
          "ticks": 80640,
          "time": 63,
          "velocity": 0.4251968503937008
        },
        {
          "duration": 0.022656249999997158,
          "durationTicks": 29,
          "midi": 44,
          "name": "G#2",
          "ticks": 81120,
          "time": 63.375,
          "velocity": 0.4330708661417323
        },
        {
          "duration": 0.07187499999999858,
          "durationTicks": 92,
          "midi": 51,
          "name": "D#3",
          "ticks": 81480,
          "time": 63.65625,
          "velocity": 0.3937007874015748
        },
        {
          "duration": 0.07109375000000284,
          "durationTicks": 91,
          "midi": 40,
          "name": "E2",
          "ticks": 81840,
          "time": 63.9375,
          "velocity": 0.25984251968503935
        },
        {
          "duration": 0.07187500000000568,
          "durationTicks": 92,
          "midi": 51,
          "name": "D#3",
          "ticks": 82080,
          "time": 64.125,
          "velocity": 0.4015748031496063
        },
        {
          "duration": 0.025000000000005684,
          "durationTicks": 32,
          "midi": 44,
          "name": "G#2",
          "ticks": 82560,
          "time": 64.5,
          "velocity": 0.4330708661417323
        },
        {
          "duration": 0.07265624999999432,
          "durationTicks": 93,
          "midi": 40,
          "name": "E2",
          "ticks": 82920,
          "time": 64.78125,
          "velocity": 0.1968503937007874
        },
        {
          "duration": 0.07265624999999432,
          "durationTicks": 93,
          "midi": 51,
          "name": "D#3",
          "ticks": 82920,
          "time": 64.78125,
          "velocity": 0.4015748031496063
        },
        {
          "duration": 0.07109375000000284,
          "durationTicks": 91,
          "midi": 40,
          "name": "E2",
          "ticks": 83400,
          "time": 65.15625,
          "velocity": 0.28346456692913385
        },
        {
          "duration": 0.07265624999999432,
          "durationTicks": 93,
          "midi": 51,
          "name": "D#3",
          "ticks": 83520,
          "time": 65.25,
          "velocity": 0.4566929133858268
        },
        {
          "duration": 0.07187500000000568,
          "durationTicks": 92,
          "midi": 51,
          "name": "D#3",
          "ticks": 84000,
          "time": 65.625,
          "velocity": 0.4251968503937008
        },
        {
          "duration": 0.0234375,
          "durationTicks": 30,
          "midi": 44,
          "name": "G#2",
          "ticks": 84480,
          "time": 66,
          "velocity": 0.4330708661417323
        },
        {
          "duration": 0.07109375000000284,
          "durationTicks": 91,
          "midi": 40,
          "name": "E2",
          "ticks": 84840,
          "time": 66.28125,
          "velocity": 0.28346456692913385
        },
        {
          "duration": 0.07109375000000284,
          "durationTicks": 91,
          "midi": 51,
          "name": "D#3",
          "ticks": 84840,
          "time": 66.28125,
          "velocity": 0.4094488188976378
        },
        {
          "duration": 0.07109375000000284,
          "durationTicks": 91,
          "midi": 51,
          "name": "D#3",
          "ticks": 84960,
          "time": 66.375,
          "velocity": 0.4251968503937008
        },
        {
          "duration": 0.07187500000000568,
          "durationTicks": 92,
          "midi": 40,
          "name": "E2",
          "ticks": 85320,
          "time": 66.65625,
          "velocity": 0.14173228346456693
        },
        {
          "duration": 0.07109375000000284,
          "durationTicks": 91,
          "midi": 51,
          "name": "D#3",
          "ticks": 85440,
          "time": 66.75,
          "velocity": 0.3700787401574803
        },
        {
          "duration": 0.07109375000000284,
          "durationTicks": 91,
          "midi": 35,
          "name": "B1",
          "ticks": 85800,
          "time": 67.03125,
          "velocity": 0.31496062992125984
        },
        {
          "duration": 0.06953124999999716,
          "durationTicks": 89,
          "midi": 46,
          "name": "A#2",
          "ticks": 85800,
          "time": 67.03125,
          "velocity": 0.3543307086614173
        },
        {
          "duration": 0.07187500000000568,
          "durationTicks": 92,
          "midi": 40,
          "name": "E2",
          "ticks": 86040,
          "time": 67.21875,
          "velocity": 0.2125984251968504
        },
        {
          "duration": 0.07109375000000284,
          "durationTicks": 91,
          "midi": 35,
          "name": "B1",
          "ticks": 86400,
          "time": 67.5,
          "velocity": 0.3779527559055118
        },
        {
          "duration": 0.07187500000000568,
          "durationTicks": 92,
          "midi": 46,
          "name": "A#2",
          "ticks": 86400,
          "time": 67.5,
          "velocity": 0.3858267716535433
        },
        {
          "duration": 0.07265624999999432,
          "durationTicks": 93,
          "midi": 40,
          "name": "E2",
          "ticks": 87240,
          "time": 68.15625,
          "velocity": 0.09448818897637795
        },
        {
          "duration": 0.07187500000000568,
          "durationTicks": 92,
          "midi": 51,
          "name": "D#3",
          "ticks": 87240,
          "time": 68.15625,
          "velocity": 0.36220472440944884
        },
        {
          "duration": 0.07265624999999432,
          "durationTicks": 93,
          "midi": 51,
          "name": "D#3",
          "ticks": 87360,
          "time": 68.25,
          "velocity": 0.3700787401574803
        },
        {
          "duration": 0.021874999999994316,
          "durationTicks": 28,
          "midi": 44,
          "name": "G#2",
          "ticks": 87720,
          "time": 68.53125,
          "velocity": 0.4330708661417323
        },
        {
          "duration": 0.07109375000000284,
          "durationTicks": 91,
          "midi": 40,
          "name": "E2",
          "ticks": 87840,
          "time": 68.625,
          "velocity": 0.4330708661417323
        },
        {
          "duration": 0.07109375000000284,
          "durationTicks": 91,
          "midi": 51,
          "name": "D#3",
          "ticks": 87840,
          "time": 68.625,
          "velocity": 0.5118110236220472
        },
        {
          "duration": 0.07187500000000568,
          "durationTicks": 92,
          "midi": 51,
          "name": "D#3",
          "ticks": 88320,
          "time": 69,
          "velocity": 0.3937007874015748
        },
        {
          "duration": 0.07187500000000568,
          "durationTicks": 92,
          "midi": 35,
          "name": "B1",
          "ticks": 88680,
          "time": 69.28125,
          "velocity": 0.3228346456692913
        },
        {
          "duration": 0.07187500000000568,
          "durationTicks": 92,
          "midi": 46,
          "name": "A#2",
          "ticks": 88680,
          "time": 69.28125,
          "velocity": 0.2755905511811024
        },
        {
          "duration": 0.07187500000000568,
          "durationTicks": 92,
          "midi": 40,
          "name": "E2",
          "ticks": 89160,
          "time": 69.65625,
          "velocity": 0.16535433070866143
        },
        {
          "duration": 0.06874999999999432,
          "durationTicks": 88,
          "midi": 35,
          "name": "B1",
          "ticks": 89400,
          "time": 69.84375,
          "velocity": 0.4015748031496063
        },
        {
          "duration": 0.07109375000000284,
          "durationTicks": 91,
          "midi": 46,
          "name": "A#2",
          "ticks": 89400,
          "time": 69.84375,
          "velocity": 0.3464566929133858
        },
        {
          "duration": 0.07109375000000284,
          "durationTicks": 91,
          "midi": 51,
          "name": "D#3",
          "ticks": 89760,
          "time": 70.125,
          "velocity": 0.3228346456692913
        },
        {
          "duration": 0.07265624999999432,
          "durationTicks": 93,
          "midi": 40,
          "name": "E2",
          "ticks": 90120,
          "time": 70.40625,
          "velocity": 0.44881889763779526
        },
        {
          "duration": 0.07109375000000284,
          "durationTicks": 91,
          "midi": 51,
          "name": "D#3",
          "ticks": 90480,
          "time": 70.6875,
          "velocity": 0.47244094488188976
        },
        {
          "duration": 0.07109375000000284,
          "durationTicks": 91,
          "midi": 40,
          "name": "E2",
          "ticks": 90720,
          "time": 70.875,
          "velocity": 0.5039370078740157
        },
        {
          "duration": 0.07265624999999432,
          "durationTicks": 93,
          "midi": 51,
          "name": "D#3",
          "ticks": 91200,
          "time": 71.25,
          "velocity": 0.4094488188976378
        },
        {
          "duration": 0.07109375000000284,
          "durationTicks": 91,
          "midi": 46,
          "name": "A#2",
          "ticks": 91560,
          "time": 71.53125,
          "velocity": 0.25984251968503935
        },
        {
          "duration": 0.07187500000000568,
          "durationTicks": 92,
          "midi": 46,
          "name": "A#2",
          "ticks": 91920,
          "time": 71.8125,
          "velocity": 0.2755905511811024
        },
        {
          "duration": 0.06874999999999432,
          "durationTicks": 88,
          "midi": 46,
          "name": "A#2",
          "ticks": 92040,
          "time": 71.90625,
          "velocity": 0.33070866141732286
        },
        {
          "duration": 0.06874999999999432,
          "durationTicks": 88,
          "midi": 35,
          "name": "B1",
          "ticks": 92160,
          "time": 72,
          "velocity": 0.4094488188976378
        },
        {
          "duration": 0.07109375000000284,
          "durationTicks": 91,
          "midi": 55,
          "name": "G3",
          "ticks": 92160,
          "time": 72,
          "velocity": 0.4645669291338583
        },
        {
          "duration": 0.07109375000000284,
          "durationTicks": 91,
          "midi": 51,
          "name": "D#3",
          "ticks": 92640,
          "time": 72.375,
          "velocity": 0.33858267716535434
        },
        {
          "duration": 0.0703125,
          "durationTicks": 90,
          "midi": 51,
          "name": "D#3",
          "ticks": 93000,
          "time": 72.65625,
          "velocity": 0.36220472440944884
        },
        {
          "duration": 0.07187500000000568,
          "durationTicks": 92,
          "midi": 51,
          "name": "D#3",
          "ticks": 93120,
          "time": 72.75,
          "velocity": 0.36220472440944884
        },
        {
          "duration": 0.022656249999997158,
          "durationTicks": 29,
          "midi": 44,
          "name": "G#2",
          "ticks": 93480,
          "time": 73.03125,
          "velocity": 0.4330708661417323
        },
        {
          "duration": 0.07187500000000568,
          "durationTicks": 92,
          "midi": 51,
          "name": "D#3",
          "ticks": 93600,
          "time": 73.125,
          "velocity": 0.49606299212598426
        },
        {
          "duration": 0.07187500000000568,
          "durationTicks": 92,
          "midi": 51,
          "name": "D#3",
          "ticks": 94080,
          "time": 73.5,
          "velocity": 0.3228346456692913
        },
        {
          "duration": 0.07109375000000284,
          "durationTicks": 91,
          "midi": 51,
          "name": "D#3",
          "ticks": 94440,
          "time": 73.78125,
          "velocity": 0.4094488188976378
        },
        {
          "duration": 0.07109375000000284,
          "durationTicks": 91,
          "midi": 51,
          "name": "D#3",
          "ticks": 94680,
          "time": 73.96875,
          "velocity": 0.31496062992125984
        },
        {
          "duration": 0.07187500000000568,
          "durationTicks": 92,
          "midi": 51,
          "name": "D#3",
          "ticks": 95040,
          "time": 74.25,
          "velocity": 0.48031496062992124
        },
        {
          "duration": 0.025000000000005684,
          "durationTicks": 32,
          "midi": 44,
          "name": "G#2",
          "ticks": 95520,
          "time": 74.625,
          "velocity": 0.4330708661417323
        },
        {
          "duration": 0.07187500000000568,
          "durationTicks": 92,
          "midi": 51,
          "name": "D#3",
          "ticks": 95880,
          "time": 74.90625,
          "velocity": 0.3779527559055118
        },
        {
          "duration": 0.07109375000000284,
          "durationTicks": 91,
          "midi": 51,
          "name": "D#3",
          "ticks": 96000,
          "time": 75,
          "velocity": 0.4015748031496063
        },
        {
          "duration": 0.07109375000000284,
          "durationTicks": 91,
          "midi": 40,
          "name": "E2",
          "ticks": 96240,
          "time": 75.1875,
          "velocity": 0.06299212598425197
        },
        {
          "duration": 0.07187500000000568,
          "durationTicks": 92,
          "midi": 51,
          "name": "D#3",
          "ticks": 96480,
          "time": 75.375,
          "velocity": 0.44881889763779526
        },
        {
          "duration": 0.07109375000000284,
          "durationTicks": 91,
          "midi": 51,
          "name": "D#3",
          "ticks": 96960,
          "time": 75.75,
          "velocity": 0.3779527559055118
        },
        {
          "duration": 0.06874999999999432,
          "durationTicks": 88,
          "midi": 51,
          "name": "D#3",
          "ticks": 97440,
          "time": 76.125,
          "velocity": 0.4330708661417323
        },
        {
          "duration": 0.07187500000000568,
          "durationTicks": 92,
          "midi": 51,
          "name": "D#3",
          "ticks": 97920,
          "time": 76.5,
          "velocity": 0.4566929133858268
        },
        {
          "duration": 0.022656249999997158,
          "durationTicks": 29,
          "midi": 44,
          "name": "G#2",
          "ticks": 98400,
          "time": 76.875,
          "velocity": 0.4330708661417323
        },
        {
          "duration": 0.07265624999999432,
          "durationTicks": 93,
          "midi": 51,
          "name": "D#3",
          "ticks": 98400,
          "time": 76.875,
          "velocity": 0.36220472440944884
        },
        {
          "duration": 0.07109375000000284,
          "durationTicks": 91,
          "midi": 40,
          "name": "E2",
          "ticks": 98760,
          "time": 77.15625,
          "velocity": 0.16535433070866143
        },
        {
          "duration": 0.07109375000000284,
          "durationTicks": 91,
          "midi": 51,
          "name": "D#3",
          "ticks": 98760,
          "time": 77.15625,
          "velocity": 0.4330708661417323
        },
        {
          "duration": 0.07109375000000284,
          "durationTicks": 91,
          "midi": 40,
          "name": "E2",
          "ticks": 99360,
          "time": 77.625,
          "velocity": 0.2283464566929134
        },
        {
          "duration": 0.07109375000000284,
          "durationTicks": 91,
          "midi": 51,
          "name": "D#3",
          "ticks": 99360,
          "time": 77.625,
          "velocity": 0.4566929133858268
        },
        {
          "duration": 0.022656249999997158,
          "durationTicks": 29,
          "midi": 44,
          "name": "G#2",
          "ticks": 99840,
          "time": 78,
          "velocity": 0.4330708661417323
        },
        {
          "duration": 0.07109375000000284,
          "durationTicks": 91,
          "midi": 51,
          "name": "D#3",
          "ticks": 99840,
          "time": 78,
          "velocity": 0.31496062992125984
        },
        {
          "duration": 0.07187500000000568,
          "durationTicks": 92,
          "midi": 40,
          "name": "E2",
          "ticks": 100200,
          "time": 78.28125,
          "velocity": 0.28346456692913385
        },
        {
          "duration": 0.06953124999999716,
          "durationTicks": 89,
          "midi": 51,
          "name": "D#3",
          "ticks": 100200,
          "time": 78.28125,
          "velocity": 0.4645669291338583
        },
        {
          "duration": 0.07109375000000284,
          "durationTicks": 91,
          "midi": 40,
          "name": "E2",
          "ticks": 100680,
          "time": 78.65625,
          "velocity": 0.16535433070866143
        },
        {
          "duration": 0.07109375000000284,
          "durationTicks": 91,
          "midi": 51,
          "name": "D#3",
          "ticks": 100800,
          "time": 78.75,
          "velocity": 0.44881889763779526
        },
        {
          "duration": 0.07187500000000568,
          "durationTicks": 92,
          "midi": 40,
          "name": "E2",
          "ticks": 101160,
          "time": 79.03125,
          "velocity": 0.06299212598425197
        },
        {
          "duration": 0.024218750000002842,
          "durationTicks": 31,
          "midi": 44,
          "name": "G#2",
          "ticks": 101280,
          "time": 79.125,
          "velocity": 0.4330708661417323
        },
        {
          "duration": 0.06953124999999716,
          "durationTicks": 89,
          "midi": 51,
          "name": "D#3",
          "ticks": 101280,
          "time": 79.125,
          "velocity": 0.3937007874015748
        },
        {
          "duration": 0.07265624999999432,
          "durationTicks": 93,
          "midi": 40,
          "name": "E2",
          "ticks": 101640,
          "time": 79.40625,
          "velocity": 0.18110236220472442
        },
        {
          "duration": 0.06953124999999716,
          "durationTicks": 89,
          "midi": 51,
          "name": "D#3",
          "ticks": 101640,
          "time": 79.40625,
          "velocity": 0.44881889763779526
        },
        {
          "duration": 0.07265624999999432,
          "durationTicks": 93,
          "midi": 51,
          "name": "D#3",
          "ticks": 101760,
          "time": 79.5,
          "velocity": 0.4015748031496063
        },
        {
          "duration": 0.07187500000000568,
          "durationTicks": 92,
          "midi": 40,
          "name": "E2",
          "ticks": 102240,
          "time": 79.875,
          "velocity": 0.33070866141732286
        },
        {
          "duration": 0.07265624999999432,
          "durationTicks": 93,
          "midi": 51,
          "name": "D#3",
          "ticks": 102240,
          "time": 79.875,
          "velocity": 0.48031496062992124
        },
        {
          "duration": 0.07187500000000568,
          "durationTicks": 92,
          "midi": 40,
          "name": "E2",
          "ticks": 102720,
          "time": 80.25,
          "velocity": 0.4645669291338583
        },
        {
          "duration": 0.07187500000000568,
          "durationTicks": 92,
          "midi": 51,
          "name": "D#3",
          "ticks": 102720,
          "time": 80.25,
          "velocity": 0.4566929133858268
        },
        {
          "duration": 0.07109375000000284,
          "durationTicks": 91,
          "midi": 40,
          "name": "E2",
          "ticks": 103200,
          "time": 80.625,
          "velocity": 0.48031496062992124
        },
        {
          "duration": 0.07109375000000284,
          "durationTicks": 91,
          "midi": 51,
          "name": "D#3",
          "ticks": 103200,
          "time": 80.625,
          "velocity": 0.47244094488188976
        },
        {
          "duration": 0.06874999999999432,
          "durationTicks": 88,
          "midi": 35,
          "name": "B1",
          "ticks": 103680,
          "time": 81,
          "velocity": 0.4330708661417323
        },
        {
          "duration": 0.07187500000000568,
          "durationTicks": 92,
          "midi": 46,
          "name": "A#2",
          "ticks": 103680,
          "time": 81,
          "velocity": 0.3937007874015748
        },
        {
          "duration": 0.07187500000000568,
          "durationTicks": 92,
          "midi": 51,
          "name": "D#3",
          "ticks": 104160,
          "time": 81.375,
          "velocity": 0.3228346456692913
        },
        {
          "duration": 0.07109375000000284,
          "durationTicks": 91,
          "midi": 51,
          "name": "D#3",
          "ticks": 104400,
          "time": 81.5625,
          "velocity": 0.36220472440944884
        },
        {
          "duration": 0.07109375000000284,
          "durationTicks": 91,
          "midi": 51,
          "name": "D#3",
          "ticks": 104640,
          "time": 81.75,
          "velocity": 0.3779527559055118
        },
        {
          "duration": 0.07109375000000284,
          "durationTicks": 91,
          "midi": 40,
          "name": "E2",
          "ticks": 104760,
          "time": 81.84375,
          "velocity": 0.06299212598425197
        },
        {
          "duration": 0.022656249999997158,
          "durationTicks": 29,
          "midi": 44,
          "name": "G#2",
          "ticks": 105000,
          "time": 82.03125,
          "velocity": 0.4330708661417323
        },
        {
          "duration": 0.07187500000000568,
          "durationTicks": 92,
          "midi": 40,
          "name": "E2",
          "ticks": 105120,
          "time": 82.125,
          "velocity": 0.4881889763779528
        },
        {
          "duration": 0.07109375000000284,
          "durationTicks": 91,
          "midi": 46,
          "name": "A#2",
          "ticks": 105120,
          "time": 82.125,
          "velocity": 0.3937007874015748
        },
        {
          "duration": 0.07109375000000284,
          "durationTicks": 91,
          "midi": 51,
          "name": "D#3",
          "ticks": 105600,
          "time": 82.5,
          "velocity": 0.3779527559055118
        },
        {
          "duration": 0.07109375000000284,
          "durationTicks": 91,
          "midi": 40,
          "name": "E2",
          "ticks": 105960,
          "time": 82.78125,
          "velocity": 0.14173228346456693
        },
        {
          "duration": 0.07109375000000284,
          "durationTicks": 91,
          "midi": 51,
          "name": "D#3",
          "ticks": 105960,
          "time": 82.78125,
          "velocity": 0.4094488188976378
        },
        {
          "duration": 0.07265624999999432,
          "durationTicks": 93,
          "midi": 51,
          "name": "D#3",
          "ticks": 106080,
          "time": 82.875,
          "velocity": 0.3858267716535433
        },
        {
          "duration": 0.07109375000000284,
          "durationTicks": 91,
          "midi": 40,
          "name": "E2",
          "ticks": 106200,
          "time": 82.96875,
          "velocity": 0.16535433070866143
        },
        {
          "duration": 0.07187500000000568,
          "durationTicks": 92,
          "midi": 40,
          "name": "E2",
          "ticks": 106320,
          "time": 83.0625,
          "velocity": 0.36220472440944884
        },
        {
          "duration": 0.07109375000000284,
          "durationTicks": 91,
          "midi": 35,
          "name": "B1",
          "ticks": 106560,
          "time": 83.25,
          "velocity": 0.31496062992125984
        },
        {
          "duration": 0.06562500000001137,
          "durationTicks": 84,
          "midi": 46,
          "name": "A#2",
          "ticks": 106560,
          "time": 83.25,
          "velocity": 0.4015748031496063
        },
        {
          "duration": 0.07187500000000568,
          "durationTicks": 92,
          "midi": 51,
          "name": "D#3",
          "ticks": 107400,
          "time": 83.90625,
          "velocity": 0.3858267716535433
        },
        {
          "duration": 0.07109375000000284,
          "durationTicks": 91,
          "midi": 51,
          "name": "D#3",
          "ticks": 108240,
          "time": 84.5625,
          "velocity": 0.4330708661417323
        },
        {
          "duration": 0.07109375000000284,
          "durationTicks": 91,
          "midi": 51,
          "name": "D#3",
          "ticks": 109320,
          "time": 85.40625,
          "velocity": 0.3464566929133858
        },
        {
          "duration": 0.07265624999999432,
          "durationTicks": 93,
          "midi": 51,
          "name": "D#3",
          "ticks": 109440,
          "time": 85.5,
          "velocity": 0.4015748031496063
        },
        {
          "duration": 0.07187500000000568,
          "durationTicks": 92,
          "midi": 51,
          "name": "D#3",
          "ticks": 110280,
          "time": 86.15625,
          "velocity": 0.3937007874015748
        },
        {
          "duration": 0.06953124999999716,
          "durationTicks": 89,
          "midi": 46,
          "name": "A#2",
          "ticks": 111360,
          "time": 87,
          "velocity": 0.2125984251968504
        },
        {
          "duration": 0.07265624999999432,
          "durationTicks": 93,
          "midi": 46,
          "name": "A#2",
          "ticks": 111480,
          "time": 87.09375,
          "velocity": 0.2755905511811024
        },
        {
          "duration": 0.0703125,
          "durationTicks": 90,
          "midi": 46,
          "name": "A#2",
          "ticks": 111600,
          "time": 87.1875,
          "velocity": 0.47244094488188976
        },
        {
          "duration": 0.07109375000000284,
          "durationTicks": 91,
          "midi": 46,
          "name": "A#2",
          "ticks": 111840,
          "time": 87.375,
          "velocity": 0.47244094488188976
        },
        {
          "duration": 0.07187500000000568,
          "durationTicks": 92,
          "midi": 35,
          "name": "B1",
          "ticks": 112320,
          "time": 87.75,
          "velocity": 0.44881889763779526
        },
        {
          "duration": 0.06953124999999716,
          "durationTicks": 89,
          "midi": 55,
          "name": "G3",
          "ticks": 112320,
          "time": 87.75,
          "velocity": 0.6377952755905512
        },
        {
          "duration": 0.0234375,
          "durationTicks": 30,
          "midi": 44,
          "name": "G#2",
          "ticks": 112800,
          "time": 88.125,
          "velocity": 0.4330708661417323
        },
        {
          "duration": 0.07109375000000284,
          "durationTicks": 91,
          "midi": 51,
          "name": "D#3",
          "ticks": 112800,
          "time": 88.125,
          "velocity": 0.4251968503937008
        },
        {
          "duration": 0.025000000000005684,
          "durationTicks": 32,
          "midi": 44,
          "name": "G#2",
          "ticks": 113280,
          "time": 88.5,
          "velocity": 0.4330708661417323
        },
        {
          "duration": 0.07265624999999432,
          "durationTicks": 93,
          "midi": 51,
          "name": "D#3",
          "ticks": 113280,
          "time": 88.5,
          "velocity": 0.4094488188976378
        },
        {
          "duration": 0.022656249999997158,
          "durationTicks": 29,
          "midi": 44,
          "name": "G#2",
          "ticks": 113760,
          "time": 88.875,
          "velocity": 0.4330708661417323
        },
        {
          "duration": 0.0703125,
          "durationTicks": 90,
          "midi": 51,
          "name": "D#3",
          "ticks": 113760,
          "time": 88.875,
          "velocity": 0.3858267716535433
        },
        {
          "duration": 0.0234375,
          "durationTicks": 30,
          "midi": 44,
          "name": "G#2",
          "ticks": 114240,
          "time": 89.25,
          "velocity": 0.4330708661417323
        },
        {
          "duration": 0.07109375000000284,
          "durationTicks": 91,
          "midi": 51,
          "name": "D#3",
          "ticks": 114240,
          "time": 89.25,
          "velocity": 0.4251968503937008
        },
        {
          "duration": 0.022656249999997158,
          "durationTicks": 29,
          "midi": 44,
          "name": "G#2",
          "ticks": 114720,
          "time": 89.625,
          "velocity": 0.4330708661417323
        },
        {
          "duration": 0.07109375000000284,
          "durationTicks": 91,
          "midi": 51,
          "name": "D#3",
          "ticks": 114720,
          "time": 89.625,
          "velocity": 0.4094488188976378
        },
        {
          "duration": 0.022656249999997158,
          "durationTicks": 29,
          "midi": 44,
          "name": "G#2",
          "ticks": 115200,
          "time": 90,
          "velocity": 0.4330708661417323
        },
        {
          "duration": 0.07187500000000568,
          "durationTicks": 92,
          "midi": 51,
          "name": "D#3",
          "ticks": 115200,
          "time": 90,
          "velocity": 0.4251968503937008
        },
        {
          "duration": 0.021874999999994316,
          "durationTicks": 28,
          "midi": 44,
          "name": "G#2",
          "ticks": 115680,
          "time": 90.375,
          "velocity": 0.4330708661417323
        },
        {
          "duration": 0.07187500000000568,
          "durationTicks": 92,
          "midi": 51,
          "name": "D#3",
          "ticks": 115680,
          "time": 90.375,
          "velocity": 0.41732283464566927
        },
        {
          "duration": 0.022656249999997158,
          "durationTicks": 29,
          "midi": 44,
          "name": "G#2",
          "ticks": 116160,
          "time": 90.75,
          "velocity": 0.4330708661417323
        },
        {
          "duration": 0.07109375000000284,
          "durationTicks": 91,
          "midi": 51,
          "name": "D#3",
          "ticks": 116160,
          "time": 90.75,
          "velocity": 0.4251968503937008
        },
        {
          "duration": 0.024218750000002842,
          "durationTicks": 31,
          "midi": 44,
          "name": "G#2",
          "ticks": 116640,
          "time": 91.125,
          "velocity": 0.4330708661417323
        },
        {
          "duration": 0.07109375000000284,
          "durationTicks": 91,
          "midi": 51,
          "name": "D#3",
          "ticks": 116640,
          "time": 91.125,
          "velocity": 0.4094488188976378
        },
        {
          "duration": 0.025000000000005684,
          "durationTicks": 32,
          "midi": 44,
          "name": "G#2",
          "ticks": 117120,
          "time": 91.5,
          "velocity": 0.4330708661417323
        },
        {
          "duration": 0.07109375000000284,
          "durationTicks": 91,
          "midi": 51,
          "name": "D#3",
          "ticks": 117120,
          "time": 91.5,
          "velocity": 0.41732283464566927
        },
        {
          "duration": 0.024218750000002842,
          "durationTicks": 31,
          "midi": 44,
          "name": "G#2",
          "ticks": 117600,
          "time": 91.875,
          "velocity": 0.4330708661417323
        },
        {
          "duration": 0.0703125,
          "durationTicks": 90,
          "midi": 51,
          "name": "D#3",
          "ticks": 117600,
          "time": 91.875,
          "velocity": 0.4094488188976378
        },
        {
          "duration": 0.025000000000005684,
          "durationTicks": 32,
          "midi": 44,
          "name": "G#2",
          "ticks": 118080,
          "time": 92.25,
          "velocity": 0.4330708661417323
        },
        {
          "duration": 0.06953124999999716,
          "durationTicks": 89,
          "midi": 51,
          "name": "D#3",
          "ticks": 118080,
          "time": 92.25,
          "velocity": 0.3937007874015748
        },
        {
          "duration": 0.022656249999997158,
          "durationTicks": 29,
          "midi": 44,
          "name": "G#2",
          "ticks": 118560,
          "time": 92.625,
          "velocity": 0.4330708661417323
        },
        {
          "duration": 0.07109375000000284,
          "durationTicks": 91,
          "midi": 51,
          "name": "D#3",
          "ticks": 118560,
          "time": 92.625,
          "velocity": 0.4094488188976378
        },
        {
          "duration": 0.0234375,
          "durationTicks": 30,
          "midi": 44,
          "name": "G#2",
          "ticks": 119040,
          "time": 93,
          "velocity": 0.4330708661417323
        },
        {
          "duration": 0.07187500000000568,
          "durationTicks": 92,
          "midi": 51,
          "name": "D#3",
          "ticks": 119040,
          "time": 93,
          "velocity": 0.4094488188976378
        },
        {
          "duration": 0.022656249999997158,
          "durationTicks": 29,
          "midi": 44,
          "name": "G#2",
          "ticks": 119520,
          "time": 93.375,
          "velocity": 0.4330708661417323
        },
        {
          "duration": 0.07109375000000284,
          "durationTicks": 91,
          "midi": 51,
          "name": "D#3",
          "ticks": 119520,
          "time": 93.375,
          "velocity": 0.4094488188976378
        },
        {
          "duration": 0.022656249999997158,
          "durationTicks": 29,
          "midi": 44,
          "name": "G#2",
          "ticks": 120000,
          "time": 93.75,
          "velocity": 0.4330708661417323
        },
        {
          "duration": 0.07109375000000284,
          "durationTicks": 91,
          "midi": 51,
          "name": "D#3",
          "ticks": 120000,
          "time": 93.75,
          "velocity": 0.4251968503937008
        },
        {
          "duration": 0.022656249999997158,
          "durationTicks": 29,
          "midi": 44,
          "name": "G#2",
          "ticks": 120480,
          "time": 94.125,
          "velocity": 0.4330708661417323
        },
        {
          "duration": 0.07109375000000284,
          "durationTicks": 91,
          "midi": 51,
          "name": "D#3",
          "ticks": 120480,
          "time": 94.125,
          "velocity": 0.4251968503937008
        },
        {
          "duration": 0.0234375,
          "durationTicks": 30,
          "midi": 44,
          "name": "G#2",
          "ticks": 120960,
          "time": 94.5,
          "velocity": 0.4330708661417323
        },
        {
          "duration": 0.07109375000000284,
          "durationTicks": 91,
          "midi": 51,
          "name": "D#3",
          "ticks": 120960,
          "time": 94.5,
          "velocity": 0.4330708661417323
        },
        {
          "duration": 0.0234375,
          "durationTicks": 30,
          "midi": 44,
          "name": "G#2",
          "ticks": 121440,
          "time": 94.875,
          "velocity": 0.4330708661417323
        },
        {
          "duration": 0.07187500000000568,
          "durationTicks": 92,
          "midi": 51,
          "name": "D#3",
          "ticks": 121440,
          "time": 94.875,
          "velocity": 0.4251968503937008
        },
        {
          "duration": 0.024218750000002842,
          "durationTicks": 31,
          "midi": 44,
          "name": "G#2",
          "ticks": 121920,
          "time": 95.25,
          "velocity": 0.4330708661417323
        },
        {
          "duration": 0.07109375000000284,
          "durationTicks": 91,
          "midi": 51,
          "name": "D#3",
          "ticks": 121920,
          "time": 95.25,
          "velocity": 0.4251968503937008
        },
        {
          "duration": 0.025000000000005684,
          "durationTicks": 32,
          "midi": 44,
          "name": "G#2",
          "ticks": 122400,
          "time": 95.625,
          "velocity": 0.4330708661417323
        },
        {
          "duration": 0.07109375000000284,
          "durationTicks": 91,
          "midi": 51,
          "name": "D#3",
          "ticks": 122400,
          "time": 95.625,
          "velocity": 0.4330708661417323
        },
        {
          "duration": 0.022656249999982947,
          "durationTicks": 29,
          "midi": 44,
          "name": "G#2",
          "ticks": 122880,
          "time": 96,
          "velocity": 0.4330708661417323
        },
        {
          "duration": 0.07109375000001705,
          "durationTicks": 91,
          "midi": 51,
          "name": "D#3",
          "ticks": 122880,
          "time": 96,
          "velocity": 0.4330708661417323
        },
        {
          "duration": 0.0234375,
          "durationTicks": 30,
          "midi": 44,
          "name": "G#2",
          "ticks": 123360,
          "time": 96.375,
          "velocity": 0.4330708661417323
        },
        {
          "duration": 0.07187500000000568,
          "durationTicks": 92,
          "midi": 51,
          "name": "D#3",
          "ticks": 123360,
          "time": 96.375,
          "velocity": 0.4094488188976378
        },
        {
          "duration": 0.07109375000001705,
          "durationTicks": 91,
          "midi": 55,
          "name": "G3",
          "ticks": 123720,
          "time": 96.65625,
          "velocity": 0.33858267716535434
        },
        {
          "duration": 0.022656249999982947,
          "durationTicks": 29,
          "midi": 44,
          "name": "G#2",
          "ticks": 123840,
          "time": 96.75,
          "velocity": 0.4330708661417323
        },
        {
          "duration": 0.07109375000001705,
          "durationTicks": 91,
          "midi": 51,
          "name": "D#3",
          "ticks": 123840,
          "time": 96.75,
          "velocity": 0.4251968503937008
        },
        {
          "duration": 0.024218750000017053,
          "durationTicks": 31,
          "midi": 44,
          "name": "G#2",
          "ticks": 124320,
          "time": 97.125,
          "velocity": 0.4330708661417323
        },
        {
          "duration": 0.07109375000001705,
          "durationTicks": 91,
          "midi": 51,
          "name": "D#3",
          "ticks": 124320,
          "time": 97.125,
          "velocity": 0.44881889763779526
        },
        {
          "duration": 0.021874999999994316,
          "durationTicks": 28,
          "midi": 44,
          "name": "G#2",
          "ticks": 124800,
          "time": 97.5,
          "velocity": 0.4330708661417323
        },
        {
          "duration": 0.07109375000001705,
          "durationTicks": 91,
          "midi": 51,
          "name": "D#3",
          "ticks": 124800,
          "time": 97.5,
          "velocity": 0.4409448818897638
        },
        {
          "duration": 0.0234375,
          "durationTicks": 30,
          "midi": 44,
          "name": "G#2",
          "ticks": 125280,
          "time": 97.875,
          "velocity": 0.4330708661417323
        },
        {
          "duration": 0.07109375000001705,
          "durationTicks": 91,
          "midi": 51,
          "name": "D#3",
          "ticks": 125280,
          "time": 97.875,
          "velocity": 0.4330708661417323
        },
        {
          "duration": 0.021874999999994316,
          "durationTicks": 28,
          "midi": 44,
          "name": "G#2",
          "ticks": 125760,
          "time": 98.25,
          "velocity": 0.4330708661417323
        },
        {
          "duration": 0.07109375000001705,
          "durationTicks": 91,
          "midi": 51,
          "name": "D#3",
          "ticks": 125760,
          "time": 98.25,
          "velocity": 0.44881889763779526
        },
        {
          "duration": 0.022656249999982947,
          "durationTicks": 29,
          "midi": 44,
          "name": "G#2",
          "ticks": 126240,
          "time": 98.625,
          "velocity": 0.4330708661417323
        },
        {
          "duration": 0.07109375000001705,
          "durationTicks": 91,
          "midi": 51,
          "name": "D#3",
          "ticks": 126240,
          "time": 98.625,
          "velocity": 0.4566929133858268
        },
        {
          "duration": 0.021093749999991473,
          "durationTicks": 27,
          "midi": 44,
          "name": "G#2",
          "ticks": 126720,
          "time": 99,
          "velocity": 0.4330708661417323
        },
        {
          "duration": 0.07187500000000568,
          "durationTicks": 92,
          "midi": 51,
          "name": "D#3",
          "ticks": 126720,
          "time": 99,
          "velocity": 0.4409448818897638
        },
        {
          "duration": 0.022656249999982947,
          "durationTicks": 29,
          "midi": 44,
          "name": "G#2",
          "ticks": 127200,
          "time": 99.375,
          "velocity": 0.4330708661417323
        },
        {
          "duration": 0.06953124999998295,
          "durationTicks": 89,
          "midi": 51,
          "name": "D#3",
          "ticks": 127200,
          "time": 99.375,
          "velocity": 0.4330708661417323
        },
        {
          "duration": 0.022656249999982947,
          "durationTicks": 29,
          "midi": 44,
          "name": "G#2",
          "ticks": 127680,
          "time": 99.75,
          "velocity": 0.4330708661417323
        },
        {
          "duration": 0.07109375000001705,
          "durationTicks": 91,
          "midi": 51,
          "name": "D#3",
          "ticks": 127680,
          "time": 99.75,
          "velocity": 0.4330708661417323
        },
        {
          "duration": 0.022656249999982947,
          "durationTicks": 29,
          "midi": 44,
          "name": "G#2",
          "ticks": 128160,
          "time": 100.125,
          "velocity": 0.4330708661417323
        },
        {
          "duration": 0.07109375000001705,
          "durationTicks": 91,
          "midi": 51,
          "name": "D#3",
          "ticks": 128160,
          "time": 100.125,
          "velocity": 0.4251968503937008
        },
        {
          "duration": 0.024218750000017053,
          "durationTicks": 31,
          "midi": 44,
          "name": "G#2",
          "ticks": 128640,
          "time": 100.5,
          "velocity": 0.4330708661417323
        },
        {
          "duration": 0.07187500000000568,
          "durationTicks": 92,
          "midi": 51,
          "name": "D#3",
          "ticks": 128640,
          "time": 100.5,
          "velocity": 0.41732283464566927
        },
        {
          "duration": 0.022656249999982947,
          "durationTicks": 29,
          "midi": 44,
          "name": "G#2",
          "ticks": 129120,
          "time": 100.875,
          "velocity": 0.4330708661417323
        },
        {
          "duration": 0.07187500000000568,
          "durationTicks": 92,
          "midi": 51,
          "name": "D#3",
          "ticks": 129120,
          "time": 100.875,
          "velocity": 0.4251968503937008
        },
        {
          "duration": 0.07187500000000568,
          "durationTicks": 92,
          "midi": 40,
          "name": "E2",
          "ticks": 129480,
          "time": 101.15625,
          "velocity": 0.5039370078740157
        },
        {
          "duration": 0.07187500000000568,
          "durationTicks": 92,
          "midi": 51,
          "name": "D#3",
          "ticks": 129480,
          "time": 101.15625,
          "velocity": 0.4881889763779528
        },
        {
          "duration": 0.0234375,
          "durationTicks": 30,
          "midi": 44,
          "name": "G#2",
          "ticks": 130080,
          "time": 101.625,
          "velocity": 0.4330708661417323
        },
        {
          "duration": 0.07265625000000853,
          "durationTicks": 93,
          "midi": 51,
          "name": "D#3",
          "ticks": 130080,
          "time": 101.625,
          "velocity": 0.4330708661417323
        },
        {
          "duration": 0.024218750000017053,
          "durationTicks": 31,
          "midi": 44,
          "name": "G#2",
          "ticks": 130560,
          "time": 102,
          "velocity": 0.4330708661417323
        },
        {
          "duration": 0.07109375000001705,
          "durationTicks": 91,
          "midi": 51,
          "name": "D#3",
          "ticks": 130560,
          "time": 102,
          "velocity": 0.4094488188976378
        },
        {
          "duration": 0.024218750000017053,
          "durationTicks": 31,
          "midi": 44,
          "name": "G#2",
          "ticks": 131040,
          "time": 102.375,
          "velocity": 0.4330708661417323
        },
        {
          "duration": 0.07109375000001705,
          "durationTicks": 91,
          "midi": 51,
          "name": "D#3",
          "ticks": 131040,
          "time": 102.375,
          "velocity": 0.41732283464566927
        },
        {
          "duration": 0.022656249999982947,
          "durationTicks": 29,
          "midi": 44,
          "name": "G#2",
          "ticks": 131520,
          "time": 102.75,
          "velocity": 0.4330708661417323
        },
        {
          "duration": 0.07109375000001705,
          "durationTicks": 91,
          "midi": 51,
          "name": "D#3",
          "ticks": 131520,
          "time": 102.75,
          "velocity": 0.4251968503937008
        },
        {
          "duration": 0.0234375,
          "durationTicks": 30,
          "midi": 44,
          "name": "G#2",
          "ticks": 132000,
          "time": 103.125,
          "velocity": 0.4330708661417323
        },
        {
          "duration": 0.07109375000001705,
          "durationTicks": 91,
          "midi": 51,
          "name": "D#3",
          "ticks": 132000,
          "time": 103.125,
          "velocity": 0.4330708661417323
        },
        {
          "duration": 0.022656249999982947,
          "durationTicks": 29,
          "midi": 44,
          "name": "G#2",
          "ticks": 132480,
          "time": 103.5,
          "velocity": 0.4330708661417323
        },
        {
          "duration": 0.07265625000000853,
          "durationTicks": 93,
          "midi": 51,
          "name": "D#3",
          "ticks": 132480,
          "time": 103.5,
          "velocity": 0.4409448818897638
        },
        {
          "duration": 0.024218750000017053,
          "durationTicks": 31,
          "midi": 44,
          "name": "G#2",
          "ticks": 132960,
          "time": 103.875,
          "velocity": 0.4330708661417323
        },
        {
          "duration": 0.07109375000001705,
          "durationTicks": 91,
          "midi": 51,
          "name": "D#3",
          "ticks": 132960,
          "time": 103.875,
          "velocity": 0.44881889763779526
        },
        {
          "duration": 0.022656249999982947,
          "durationTicks": 29,
          "midi": 44,
          "name": "G#2",
          "ticks": 133440,
          "time": 104.25,
          "velocity": 0.4330708661417323
        },
        {
          "duration": 0.07109375000001705,
          "durationTicks": 91,
          "midi": 51,
          "name": "D#3",
          "ticks": 133440,
          "time": 104.25,
          "velocity": 0.4409448818897638
        },
        {
          "duration": 0.025000000000005684,
          "durationTicks": 32,
          "midi": 44,
          "name": "G#2",
          "ticks": 133920,
          "time": 104.625,
          "velocity": 0.4330708661417323
        },
        {
          "duration": 0.07109375000001705,
          "durationTicks": 91,
          "midi": 51,
          "name": "D#3",
          "ticks": 133920,
          "time": 104.625,
          "velocity": 0.44881889763779526
        },
        {
          "duration": 0.024218750000017053,
          "durationTicks": 31,
          "midi": 44,
          "name": "G#2",
          "ticks": 134400,
          "time": 105,
          "velocity": 0.4330708661417323
        },
        {
          "duration": 0.07187500000000568,
          "durationTicks": 92,
          "midi": 51,
          "name": "D#3",
          "ticks": 134400,
          "time": 105,
          "velocity": 0.4409448818897638
        },
        {
          "duration": 0.07109375000001705,
          "durationTicks": 91,
          "midi": 40,
          "name": "E2",
          "ticks": 134760,
          "time": 105.28125,
          "velocity": 0.09448818897637795
        },
        {
          "duration": 0.022656249999982947,
          "durationTicks": 29,
          "midi": 44,
          "name": "G#2",
          "ticks": 134880,
          "time": 105.375,
          "velocity": 0.4330708661417323
        },
        {
          "duration": 0.07109375000001705,
          "durationTicks": 91,
          "midi": 51,
          "name": "D#3",
          "ticks": 134880,
          "time": 105.375,
          "velocity": 0.4330708661417323
        },
        {
          "duration": 0.07109375000001705,
          "durationTicks": 91,
          "midi": 40,
          "name": "E2",
          "ticks": 135240,
          "time": 105.65625,
          "velocity": 0.41732283464566927
        },
        {
          "duration": 0.07109375000001705,
          "durationTicks": 91,
          "midi": 51,
          "name": "D#3",
          "ticks": 135240,
          "time": 105.65625,
          "velocity": 0.47244094488188976
        },
        {
          "duration": 0.07187500000000568,
          "durationTicks": 92,
          "midi": 40,
          "name": "E2",
          "ticks": 135720,
          "time": 106.03125,
          "velocity": 0.16535433070866143
        },
        {
          "duration": 0.025000000000005684,
          "durationTicks": 32,
          "midi": 44,
          "name": "G#2",
          "ticks": 135840,
          "time": 106.125,
          "velocity": 0.4330708661417323
        },
        {
          "duration": 0.07187500000000568,
          "durationTicks": 92,
          "midi": 51,
          "name": "D#3",
          "ticks": 135840,
          "time": 106.125,
          "velocity": 0.4645669291338583
        },
        {
          "duration": 0.07109375000001705,
          "durationTicks": 91,
          "midi": 40,
          "name": "E2",
          "ticks": 136200,
          "time": 106.40625,
          "velocity": 0.2283464566929134
        },
        {
          "duration": 0.07265625000000853,
          "durationTicks": 93,
          "midi": 51,
          "name": "D#3",
          "ticks": 136200,
          "time": 106.40625,
          "velocity": 0.4566929133858268
        },
        {
          "duration": 0.022656249999982947,
          "durationTicks": 29,
          "midi": 44,
          "name": "G#2",
          "ticks": 136320,
          "time": 106.5,
          "velocity": 0.4330708661417323
        },
        {
          "duration": 0.07109375000001705,
          "durationTicks": 91,
          "midi": 40,
          "name": "E2",
          "ticks": 136680,
          "time": 106.78125,
          "velocity": 0.2992125984251969
        },
        {
          "duration": 0.07109375000001705,
          "durationTicks": 91,
          "midi": 51,
          "name": "D#3",
          "ticks": 136680,
          "time": 106.78125,
          "velocity": 0.44881889763779526
        },
        {
          "duration": 0.07109375000001705,
          "durationTicks": 91,
          "midi": 51,
          "name": "D#3",
          "ticks": 136800,
          "time": 106.875,
          "velocity": 0.4015748031496063
        },
        {
          "duration": 0.024218750000017053,
          "durationTicks": 31,
          "midi": 44,
          "name": "G#2",
          "ticks": 137280,
          "time": 107.25,
          "velocity": 0.4330708661417323
        },
        {
          "duration": 0.0703125,
          "durationTicks": 90,
          "midi": 51,
          "name": "D#3",
          "ticks": 137280,
          "time": 107.25,
          "velocity": 0.4409448818897638
        },
        {
          "duration": 0.025000000000005684,
          "durationTicks": 32,
          "midi": 44,
          "name": "G#2",
          "ticks": 137760,
          "time": 107.625,
          "velocity": 0.4330708661417323
        },
        {
          "duration": 0.07187500000000568,
          "durationTicks": 92,
          "midi": 51,
          "name": "D#3",
          "ticks": 137760,
          "time": 107.625,
          "velocity": 0.44881889763779526
        },
        {
          "duration": 0.021874999999994316,
          "durationTicks": 28,
          "midi": 44,
          "name": "G#2",
          "ticks": 138240,
          "time": 108,
          "velocity": 0.4330708661417323
        },
        {
          "duration": 0.07265625000000853,
          "durationTicks": 93,
          "midi": 51,
          "name": "D#3",
          "ticks": 138240,
          "time": 108,
          "velocity": 0.4566929133858268
        },
        {
          "duration": 0.022656249999982947,
          "durationTicks": 29,
          "midi": 44,
          "name": "G#2",
          "ticks": 138720,
          "time": 108.375,
          "velocity": 0.4330708661417323
        },
        {
          "duration": 0.07109375000001705,
          "durationTicks": 91,
          "midi": 51,
          "name": "D#3",
          "ticks": 138720,
          "time": 108.375,
          "velocity": 0.44881889763779526
        },
        {
          "duration": 0.024218750000017053,
          "durationTicks": 31,
          "midi": 44,
          "name": "G#2",
          "ticks": 139200,
          "time": 108.75,
          "velocity": 0.4330708661417323
        },
        {
          "duration": 0.06953124999998295,
          "durationTicks": 89,
          "midi": 51,
          "name": "D#3",
          "ticks": 139200,
          "time": 108.75,
          "velocity": 0.4566929133858268
        },
        {
          "duration": 0.0234375,
          "durationTicks": 30,
          "midi": 44,
          "name": "G#2",
          "ticks": 139680,
          "time": 109.125,
          "velocity": 0.4330708661417323
        },
        {
          "duration": 0.07187500000000568,
          "durationTicks": 92,
          "midi": 51,
          "name": "D#3",
          "ticks": 139680,
          "time": 109.125,
          "velocity": 0.4645669291338583
        },
        {
          "duration": 0.07109375000001705,
          "durationTicks": 91,
          "midi": 40,
          "name": "E2",
          "ticks": 140040,
          "time": 109.40625,
          "velocity": 0.16535433070866143
        },
        {
          "duration": 0.07109375000001705,
          "durationTicks": 91,
          "midi": 51,
          "name": "D#3",
          "ticks": 140040,
          "time": 109.40625,
          "velocity": 0.4566929133858268
        },
        {
          "duration": 0.021874999999994316,
          "durationTicks": 28,
          "midi": 44,
          "name": "G#2",
          "ticks": 140160,
          "time": 109.5,
          "velocity": 0.4330708661417323
        },
        {
          "duration": 0.07109375000001705,
          "durationTicks": 91,
          "midi": 40,
          "name": "E2",
          "ticks": 140520,
          "time": 109.78125,
          "velocity": 0.2677165354330709
        },
        {
          "duration": 0.06953124999998295,
          "durationTicks": 89,
          "midi": 51,
          "name": "D#3",
          "ticks": 140520,
          "time": 109.78125,
          "velocity": 0.48031496062992124
        },
        {
          "duration": 0.024218750000017053,
          "durationTicks": 31,
          "midi": 44,
          "name": "G#2",
          "ticks": 140640,
          "time": 109.875,
          "velocity": 0.4330708661417323
        },
        {
          "duration": 0.06874999999999432,
          "durationTicks": 88,
          "midi": 51,
          "name": "D#3",
          "ticks": 140640,
          "time": 109.875,
          "velocity": 0.4330708661417323
        },
        {
          "duration": 0.07109375000001705,
          "durationTicks": 91,
          "midi": 40,
          "name": "E2",
          "ticks": 141000,
          "time": 110.15625,
          "velocity": 0.16535433070866143
        },
        {
          "duration": 0.025000000000005684,
          "durationTicks": 32,
          "midi": 44,
          "name": "G#2",
          "ticks": 141120,
          "time": 110.25,
          "velocity": 0.4330708661417323
        },
        {
          "duration": 0.07109375000001705,
          "durationTicks": 91,
          "midi": 51,
          "name": "D#3",
          "ticks": 141120,
          "time": 110.25,
          "velocity": 0.48031496062992124
        },
        {
          "duration": 0.021874999999994316,
          "durationTicks": 28,
          "midi": 44,
          "name": "G#2",
          "ticks": 141600,
          "time": 110.625,
          "velocity": 0.4330708661417323
        },
        {
          "duration": 0.07109375000001705,
          "durationTicks": 91,
          "midi": 51,
          "name": "D#3",
          "ticks": 141600,
          "time": 110.625,
          "velocity": 0.4566929133858268
        },
        {
          "duration": 0.0234375,
          "durationTicks": 30,
          "midi": 44,
          "name": "G#2",
          "ticks": 142080,
          "time": 111,
          "velocity": 0.4330708661417323
        },
        {
          "duration": 0.07265625000000853,
          "durationTicks": 93,
          "midi": 51,
          "name": "D#3",
          "ticks": 142080,
          "time": 111,
          "velocity": 0.47244094488188976
        },
        {
          "duration": 0.0234375,
          "durationTicks": 30,
          "midi": 44,
          "name": "G#2",
          "ticks": 142560,
          "time": 111.375,
          "velocity": 0.4330708661417323
        },
        {
          "duration": 0.07109375000001705,
          "durationTicks": 91,
          "midi": 51,
          "name": "D#3",
          "ticks": 142560,
          "time": 111.375,
          "velocity": 0.47244094488188976
        },
        {
          "duration": 0.022656249999982947,
          "durationTicks": 29,
          "midi": 44,
          "name": "G#2",
          "ticks": 143040,
          "time": 111.75,
          "velocity": 0.4330708661417323
        },
        {
          "duration": 0.07109375000001705,
          "durationTicks": 91,
          "midi": 51,
          "name": "D#3",
          "ticks": 143040,
          "time": 111.75,
          "velocity": 0.4566929133858268
        },
        {
          "duration": 0.021874999999994316,
          "durationTicks": 28,
          "midi": 44,
          "name": "G#2",
          "ticks": 143520,
          "time": 112.125,
          "velocity": 0.4330708661417323
        },
        {
          "duration": 0.07187500000000568,
          "durationTicks": 92,
          "midi": 51,
          "name": "D#3",
          "ticks": 143520,
          "time": 112.125,
          "velocity": 0.48031496062992124
        },
        {
          "duration": 0.021874999999994316,
          "durationTicks": 28,
          "midi": 44,
          "name": "G#2",
          "ticks": 144000,
          "time": 112.5,
          "velocity": 0.4330708661417323
        },
        {
          "duration": 0.07187500000000568,
          "durationTicks": 92,
          "midi": 51,
          "name": "D#3",
          "ticks": 144000,
          "time": 112.5,
          "velocity": 0.47244094488188976
        },
        {
          "duration": 0.025000000000005684,
          "durationTicks": 32,
          "midi": 44,
          "name": "G#2",
          "ticks": 144480,
          "time": 112.875,
          "velocity": 0.4330708661417323
        },
        {
          "duration": 0.06953124999998295,
          "durationTicks": 89,
          "midi": 51,
          "name": "D#3",
          "ticks": 144480,
          "time": 112.875,
          "velocity": 0.4645669291338583
        },
        {
          "duration": 0.024218750000017053,
          "durationTicks": 31,
          "midi": 44,
          "name": "G#2",
          "ticks": 144960,
          "time": 113.25,
          "velocity": 0.4330708661417323
        },
        {
          "duration": 0.07187500000000568,
          "durationTicks": 92,
          "midi": 51,
          "name": "D#3",
          "ticks": 144960,
          "time": 113.25,
          "velocity": 0.47244094488188976
        },
        {
          "duration": 0.022656249999982947,
          "durationTicks": 29,
          "midi": 44,
          "name": "G#2",
          "ticks": 145440,
          "time": 113.625,
          "velocity": 0.4330708661417323
        },
        {
          "duration": 0.07109375000001705,
          "durationTicks": 91,
          "midi": 51,
          "name": "D#3",
          "ticks": 145440,
          "time": 113.625,
          "velocity": 0.47244094488188976
        },
        {
          "duration": 0.021874999999994316,
          "durationTicks": 28,
          "midi": 44,
          "name": "G#2",
          "ticks": 145920,
          "time": 114,
          "velocity": 0.4330708661417323
        },
        {
          "duration": 0.07265625000000853,
          "durationTicks": 93,
          "midi": 51,
          "name": "D#3",
          "ticks": 145920,
          "time": 114,
          "velocity": 0.48031496062992124
        },
        {
          "duration": 0.07109375000001705,
          "durationTicks": 91,
          "midi": 51,
          "name": "D#3",
          "ticks": 146400,
          "time": 114.375,
          "velocity": 0.48031496062992124
        },
        {
          "duration": 0.07109375000001705,
          "durationTicks": 91,
          "midi": 40,
          "name": "E2",
          "ticks": 146760,
          "time": 114.65625,
          "velocity": 0.4881889763779528
        },
        {
          "duration": 0.06874999999999432,
          "durationTicks": 88,
          "midi": 46,
          "name": "A#2",
          "ticks": 146760,
          "time": 114.65625,
          "velocity": 0.4409448818897638
        },
        {
          "duration": 0.024218750000017053,
          "durationTicks": 31,
          "midi": 44,
          "name": "G#2",
          "ticks": 147360,
          "time": 115.125,
          "velocity": 0.4330708661417323
        },
        {
          "duration": 0.07109375000001705,
          "durationTicks": 91,
          "midi": 51,
          "name": "D#3",
          "ticks": 147360,
          "time": 115.125,
          "velocity": 0.49606299212598426
        },
        {
          "duration": 0.025000000000005684,
          "durationTicks": 32,
          "midi": 44,
          "name": "G#2",
          "ticks": 147840,
          "time": 115.5,
          "velocity": 0.4330708661417323
        },
        {
          "duration": 0.07109375000001705,
          "durationTicks": 91,
          "midi": 51,
          "name": "D#3",
          "ticks": 147840,
          "time": 115.5,
          "velocity": 0.4566929133858268
        },
        {
          "duration": 0.022656249999982947,
          "durationTicks": 29,
          "midi": 44,
          "name": "G#2",
          "ticks": 148320,
          "time": 115.875,
          "velocity": 0.4330708661417323
        },
        {
          "duration": 0.07109375000001705,
          "durationTicks": 91,
          "midi": 51,
          "name": "D#3",
          "ticks": 148320,
          "time": 115.875,
          "velocity": 0.4409448818897638
        },
        {
          "duration": 0.024218750000017053,
          "durationTicks": 31,
          "midi": 44,
          "name": "G#2",
          "ticks": 148800,
          "time": 116.25,
          "velocity": 0.4330708661417323
        },
        {
          "duration": 0.07109375000001705,
          "durationTicks": 91,
          "midi": 51,
          "name": "D#3",
          "ticks": 148800,
          "time": 116.25,
          "velocity": 0.4409448818897638
        },
        {
          "duration": 0.0234375,
          "durationTicks": 30,
          "midi": 44,
          "name": "G#2",
          "ticks": 149280,
          "time": 116.625,
          "velocity": 0.4330708661417323
        },
        {
          "duration": 0.07187500000000568,
          "durationTicks": 92,
          "midi": 51,
          "name": "D#3",
          "ticks": 149280,
          "time": 116.625,
          "velocity": 0.44881889763779526
        },
        {
          "duration": 0.0234375,
          "durationTicks": 30,
          "midi": 44,
          "name": "G#2",
          "ticks": 149760,
          "time": 117,
          "velocity": 0.4330708661417323
        },
        {
          "duration": 0.07265625000000853,
          "durationTicks": 93,
          "midi": 51,
          "name": "D#3",
          "ticks": 149760,
          "time": 117,
          "velocity": 0.4330708661417323
        },
        {
          "duration": 0.025000000000005684,
          "durationTicks": 32,
          "midi": 44,
          "name": "G#2",
          "ticks": 150240,
          "time": 117.375,
          "velocity": 0.4330708661417323
        },
        {
          "duration": 0.07109375000001705,
          "durationTicks": 91,
          "midi": 51,
          "name": "D#3",
          "ticks": 150240,
          "time": 117.375,
          "velocity": 0.44881889763779526
        },
        {
          "duration": 0.022656249999982947,
          "durationTicks": 29,
          "midi": 44,
          "name": "G#2",
          "ticks": 150720,
          "time": 117.75,
          "velocity": 0.4330708661417323
        },
        {
          "duration": 0.07187500000000568,
          "durationTicks": 92,
          "midi": 51,
          "name": "D#3",
          "ticks": 150720,
          "time": 117.75,
          "velocity": 0.4409448818897638
        },
        {
          "duration": 0.0234375,
          "durationTicks": 30,
          "midi": 44,
          "name": "G#2",
          "ticks": 151200,
          "time": 118.125,
          "velocity": 0.4330708661417323
        },
        {
          "duration": 0.07187500000000568,
          "durationTicks": 92,
          "midi": 51,
          "name": "D#3",
          "ticks": 151200,
          "time": 118.125,
          "velocity": 0.4566929133858268
        },
        {
          "duration": 0.021874999999994316,
          "durationTicks": 28,
          "midi": 44,
          "name": "G#2",
          "ticks": 151680,
          "time": 118.5,
          "velocity": 0.4330708661417323
        },
        {
          "duration": 0.07187500000000568,
          "durationTicks": 92,
          "midi": 51,
          "name": "D#3",
          "ticks": 151680,
          "time": 118.5,
          "velocity": 0.4566929133858268
        },
        {
          "duration": 0.024218750000017053,
          "durationTicks": 31,
          "midi": 44,
          "name": "G#2",
          "ticks": 152160,
          "time": 118.875,
          "velocity": 0.4330708661417323
        },
        {
          "duration": 0.07109375000001705,
          "durationTicks": 91,
          "midi": 51,
          "name": "D#3",
          "ticks": 152160,
          "time": 118.875,
          "velocity": 0.4566929133858268
        },
        {
          "duration": 0.024218750000017053,
          "durationTicks": 31,
          "midi": 44,
          "name": "G#2",
          "ticks": 152640,
          "time": 119.25,
          "velocity": 0.4330708661417323
        },
        {
          "duration": 0.07109375000001705,
          "durationTicks": 91,
          "midi": 51,
          "name": "D#3",
          "ticks": 152640,
          "time": 119.25,
          "velocity": 0.4566929133858268
        },
        {
          "duration": 0.022656249999982947,
          "durationTicks": 29,
          "midi": 44,
          "name": "G#2",
          "ticks": 153120,
          "time": 119.625,
          "velocity": 0.4330708661417323
        },
        {
          "duration": 0.07265625000000853,
          "durationTicks": 93,
          "midi": 51,
          "name": "D#3",
          "ticks": 153120,
          "time": 119.625,
          "velocity": 0.4566929133858268
        },
        {
          "duration": 0.07109375000001705,
          "durationTicks": 91,
          "midi": 40,
          "name": "E2",
          "ticks": 153480,
          "time": 119.90625,
          "velocity": 0.2283464566929134
        },
        {
          "duration": 0.06874999999999432,
          "durationTicks": 88,
          "midi": 51,
          "name": "D#3",
          "ticks": 153480,
          "time": 119.90625,
          "velocity": 0.4645669291338583
        },
        {
          "duration": 0.0234375,
          "durationTicks": 30,
          "midi": 44,
          "name": "G#2",
          "ticks": 153600,
          "time": 120,
          "velocity": 0.4330708661417323
        },
        {
          "duration": 0.07109375000001705,
          "durationTicks": 91,
          "midi": 40,
          "name": "E2",
          "ticks": 153960,
          "time": 120.28125,
          "velocity": 0.2283464566929134
        },
        {
          "duration": 0.07109375000001705,
          "durationTicks": 91,
          "midi": 51,
          "name": "D#3",
          "ticks": 153960,
          "time": 120.28125,
          "velocity": 0.47244094488188976
        },
        {
          "duration": 0.025000000000005684,
          "durationTicks": 32,
          "midi": 44,
          "name": "G#2",
          "ticks": 154080,
          "time": 120.375,
          "velocity": 0.4330708661417323
        },
        {
          "duration": 0.07109375000001705,
          "durationTicks": 91,
          "midi": 51,
          "name": "D#3",
          "ticks": 154080,
          "time": 120.375,
          "velocity": 0.4409448818897638
        },
        {
          "duration": 0.025000000000005684,
          "durationTicks": 32,
          "midi": 44,
          "name": "G#2",
          "ticks": 154560,
          "time": 120.75,
          "velocity": 0.4330708661417323
        },
        {
          "duration": 0.07109375000001705,
          "durationTicks": 91,
          "midi": 51,
          "name": "D#3",
          "ticks": 154560,
          "time": 120.75,
          "velocity": 0.47244094488188976
        },
        {
          "duration": 0.024218750000017053,
          "durationTicks": 31,
          "midi": 44,
          "name": "G#2",
          "ticks": 155040,
          "time": 121.125,
          "velocity": 0.4330708661417323
        },
        {
          "duration": 0.07265625000000853,
          "durationTicks": 93,
          "midi": 51,
          "name": "D#3",
          "ticks": 155040,
          "time": 121.125,
          "velocity": 0.49606299212598426
        },
        {
          "duration": 0.022656249999982947,
          "durationTicks": 29,
          "midi": 44,
          "name": "G#2",
          "ticks": 155520,
          "time": 121.5,
          "velocity": 0.4330708661417323
        },
        {
          "duration": 0.07109375000001705,
          "durationTicks": 91,
          "midi": 51,
          "name": "D#3",
          "ticks": 155520,
          "time": 121.5,
          "velocity": 0.47244094488188976
        },
        {
          "duration": 0.022656249999982947,
          "durationTicks": 29,
          "midi": 44,
          "name": "G#2",
          "ticks": 156000,
          "time": 121.875,
          "velocity": 0.4330708661417323
        },
        {
          "duration": 0.07187500000000568,
          "durationTicks": 92,
          "midi": 51,
          "name": "D#3",
          "ticks": 156000,
          "time": 121.875,
          "velocity": 0.4881889763779528
        },
        {
          "duration": 0.07265625000000853,
          "durationTicks": 93,
          "midi": 40,
          "name": "E2",
          "ticks": 156360,
          "time": 122.15625,
          "velocity": 0.5196850393700787
        },
        {
          "duration": 0.07187500000000568,
          "durationTicks": 92,
          "midi": 51,
          "name": "D#3",
          "ticks": 156360,
          "time": 122.15625,
          "velocity": 0.47244094488188976
        },
        {
          "duration": 0.07109375000001705,
          "durationTicks": 91,
          "midi": 51,
          "name": "D#3",
          "ticks": 156480,
          "time": 122.25,
          "velocity": 0.4251968503937008
        },
        {
          "duration": 0.07109375000001705,
          "durationTicks": 91,
          "midi": 40,
          "name": "E2",
          "ticks": 156720,
          "time": 122.4375,
          "velocity": 0.2283464566929134
        },
        {
          "duration": 0.07109375000001705,
          "durationTicks": 91,
          "midi": 40,
          "name": "E2",
          "ticks": 156840,
          "time": 122.53125,
          "velocity": 0.5039370078740157
        },
        {
          "duration": 0.07187500000000568,
          "durationTicks": 92,
          "midi": 51,
          "name": "D#3",
          "ticks": 156960,
          "time": 122.625,
          "velocity": 0.48031496062992124
        },
        {
          "duration": 0.07187500000000568,
          "durationTicks": 92,
          "midi": 40,
          "name": "E2",
          "ticks": 157080,
          "time": 122.71875,
          "velocity": 0.09448818897637795
        },
        {
          "duration": 0.07109375000001705,
          "durationTicks": 91,
          "midi": 35,
          "name": "B1",
          "ticks": 157320,
          "time": 122.90625,
          "velocity": 0.49606299212598426
        },
        {
          "duration": 0.07109375000001705,
          "durationTicks": 91,
          "midi": 46,
          "name": "A#2",
          "ticks": 157320,
          "time": 122.90625,
          "velocity": 0.4409448818897638
        },
        {
          "duration": 0.07109375000001705,
          "durationTicks": 91,
          "midi": 40,
          "name": "E2",
          "ticks": 157440,
          "time": 123,
          "velocity": 0.11023622047244094
        },
        {
          "duration": 0.07187500000000568,
          "durationTicks": 92,
          "midi": 40,
          "name": "E2",
          "ticks": 157560,
          "time": 123.09375,
          "velocity": 0.3779527559055118
        },
        {
          "duration": 0.07187500000000568,
          "durationTicks": 92,
          "midi": 35,
          "name": "B1",
          "ticks": 157800,
          "time": 123.28125,
          "velocity": 0.5354330708661418
        },
        {
          "duration": 0.07187500000000568,
          "durationTicks": 92,
          "midi": 46,
          "name": "A#2",
          "ticks": 157800,
          "time": 123.28125,
          "velocity": 0.47244094488188976
        },
        {
          "duration": 0.07109375000001705,
          "durationTicks": 91,
          "midi": 40,
          "name": "E2",
          "ticks": 157920,
          "time": 123.375,
          "velocity": 0.07874015748031496
        },
        {
          "duration": 0.07187500000000568,
          "durationTicks": 92,
          "midi": 40,
          "name": "E2",
          "ticks": 158040,
          "time": 123.46875,
          "velocity": 0.41732283464566927
        },
        {
          "duration": 0.0703125,
          "durationTicks": 90,
          "midi": 35,
          "name": "B1",
          "ticks": 158280,
          "time": 123.65625,
          "velocity": 0.3543307086614173
        },
        {
          "duration": 0.07265625000000853,
          "durationTicks": 93,
          "midi": 35,
          "name": "B1",
          "ticks": 158400,
          "time": 123.75,
          "velocity": 0.7007874015748031
        },
        {
          "duration": 0.07265625000000853,
          "durationTicks": 93,
          "midi": 55,
          "name": "G3",
          "ticks": 158400,
          "time": 123.75,
          "velocity": 0.7086614173228346
        },
        {
          "duration": 0.07109375000001705,
          "durationTicks": 91,
          "midi": 51,
          "name": "D#3",
          "ticks": 158880,
          "time": 124.125,
          "velocity": 0.4251968503937008
        },
        {
          "duration": 0.07109375000001705,
          "durationTicks": 91,
          "midi": 40,
          "name": "E2",
          "ticks": 159240,
          "time": 124.40625,
          "velocity": 0.11023622047244094
        },
        {
          "duration": 0.06874999999999432,
          "durationTicks": 88,
          "midi": 51,
          "name": "D#3",
          "ticks": 159240,
          "time": 124.40625,
          "velocity": 0.4330708661417323
        },
        {
          "duration": 0.07187500000000568,
          "durationTicks": 92,
          "midi": 51,
          "name": "D#3",
          "ticks": 159360,
          "time": 124.5,
          "velocity": 0.3858267716535433
        },
        {
          "duration": 0.07265625000000853,
          "durationTicks": 93,
          "midi": 35,
          "name": "B1",
          "ticks": 159720,
          "time": 124.78125,
          "velocity": 0.31496062992125984
        },
        {
          "duration": 0.07187500000000568,
          "durationTicks": 92,
          "midi": 40,
          "name": "E2",
          "ticks": 159840,
          "time": 124.875,
          "velocity": 0.7086614173228346
        },
        {
          "duration": 0.07187500000000568,
          "durationTicks": 92,
          "midi": 46,
          "name": "A#2",
          "ticks": 159840,
          "time": 124.875,
          "velocity": 0.49606299212598426
        },
        {
          "duration": 0.07265625000000853,
          "durationTicks": 93,
          "midi": 40,
          "name": "E2",
          "ticks": 160200,
          "time": 125.15625,
          "velocity": 0.11023622047244094
        },
        {
          "duration": 0.07187500000000568,
          "durationTicks": 92,
          "midi": 51,
          "name": "D#3",
          "ticks": 160320,
          "time": 125.25,
          "velocity": 0.4566929133858268
        },
        {
          "duration": 0.07109375000001705,
          "durationTicks": 91,
          "midi": 35,
          "name": "B1",
          "ticks": 160680,
          "time": 125.53125,
          "velocity": 0.3700787401574803
        },
        {
          "duration": 0.07187500000000568,
          "durationTicks": 92,
          "midi": 51,
          "name": "D#3",
          "ticks": 160680,
          "time": 125.53125,
          "velocity": 0.4409448818897638
        },
        {
          "duration": 0.07109375000001705,
          "durationTicks": 91,
          "midi": 51,
          "name": "D#3",
          "ticks": 160800,
          "time": 125.625,
          "velocity": 0.4094488188976378
        },
        {
          "duration": 0.07109375000001705,
          "durationTicks": 91,
          "midi": 40,
          "name": "E2",
          "ticks": 161160,
          "time": 125.90625,
          "velocity": 0.16535433070866143
        },
        {
          "duration": 0.07187500000000568,
          "durationTicks": 92,
          "midi": 40,
          "name": "E2",
          "ticks": 161160,
          "time": 125.90625,
          "velocity": 0.3858267716535433
        },
        {
          "duration": 0.06953124999998295,
          "durationTicks": 89,
          "midi": 35,
          "name": "B1",
          "ticks": 161280,
          "time": 126,
          "velocity": 0.5984251968503937
        },
        {
          "duration": 0.07109375000001705,
          "durationTicks": 91,
          "midi": 51,
          "name": "D#3",
          "ticks": 161280,
          "time": 126,
          "velocity": 0.5118110236220472
        },
        {
          "duration": 0.0703125,
          "durationTicks": 90,
          "midi": 40,
          "name": "E2",
          "ticks": 161640,
          "time": 126.28125,
          "velocity": 0.11023622047244094
        },
        {
          "duration": 0.07109375000001705,
          "durationTicks": 91,
          "midi": 51,
          "name": "D#3",
          "ticks": 161760,
          "time": 126.375,
          "velocity": 0.47244094488188976
        },
        {
          "duration": 0.07265625000000853,
          "durationTicks": 93,
          "midi": 40,
          "name": "E2",
          "ticks": 162120,
          "time": 126.65625,
          "velocity": 0.18110236220472442
        },
        {
          "duration": 0.07187500000000568,
          "durationTicks": 92,
          "midi": 51,
          "name": "D#3",
          "ticks": 162120,
          "time": 126.65625,
          "velocity": 0.4330708661417323
        },
        {
          "duration": 0.07265625000000853,
          "durationTicks": 93,
          "midi": 51,
          "name": "D#3",
          "ticks": 162240,
          "time": 126.75,
          "velocity": 0.4251968503937008
        },
        {
          "duration": 0.021874999999994316,
          "durationTicks": 28,
          "midi": 44,
          "name": "G#2",
          "ticks": 162600,
          "time": 127.03125,
          "velocity": 0.4330708661417323
        },
        {
          "duration": 0.07187500000000568,
          "durationTicks": 92,
          "midi": 40,
          "name": "E2",
          "ticks": 162720,
          "time": 127.125,
          "velocity": 0.6850393700787402
        },
        {
          "duration": 0.07265625000000853,
          "durationTicks": 93,
          "midi": 51,
          "name": "D#3",
          "ticks": 162720,
          "time": 127.125,
          "velocity": 0.5590551181102362
        },
        {
          "duration": 0.07187500000000568,
          "durationTicks": 92,
          "midi": 40,
          "name": "E2",
          "ticks": 163080,
          "time": 127.40625,
          "velocity": 0.14173228346456693
        },
        {
          "duration": 0.07109375000001705,
          "durationTicks": 91,
          "midi": 51,
          "name": "D#3",
          "ticks": 163200,
          "time": 127.5,
          "velocity": 0.44881889763779526
        },
        {
          "duration": 0.0703125,
          "durationTicks": 90,
          "midi": 35,
          "name": "B1",
          "ticks": 163560,
          "time": 127.78125,
          "velocity": 0.44881889763779526
        },
        {
          "duration": 0.07187500000000568,
          "durationTicks": 92,
          "midi": 51,
          "name": "D#3",
          "ticks": 163560,
          "time": 127.78125,
          "velocity": 0.48031496062992124
        },
        {
          "duration": 0.07109375000001705,
          "durationTicks": 91,
          "midi": 51,
          "name": "D#3",
          "ticks": 163680,
          "time": 127.875,
          "velocity": 0.4251968503937008
        },
        {
          "duration": 0.07187500000000568,
          "durationTicks": 92,
          "midi": 40,
          "name": "E2",
          "ticks": 164040,
          "time": 128.15625,
          "velocity": 0.14173228346456693
        },
        {
          "duration": 0.07187500000000568,
          "durationTicks": 92,
          "midi": 35,
          "name": "B1",
          "ticks": 164160,
          "time": 128.25,
          "velocity": 0.48031496062992124
        },
        {
          "duration": 0.07109375000001705,
          "durationTicks": 91,
          "midi": 51,
          "name": "D#3",
          "ticks": 164160,
          "time": 128.25,
          "velocity": 0.5433070866141733
        },
        {
          "duration": 0.07109375000001705,
          "durationTicks": 91,
          "midi": 40,
          "name": "E2",
          "ticks": 164520,
          "time": 128.53125,
          "velocity": 0.06299212598425197
        },
        {
          "duration": 0.025000000000005684,
          "durationTicks": 32,
          "midi": 44,
          "name": "G#2",
          "ticks": 164640,
          "time": 128.625,
          "velocity": 0.4330708661417323
        },
        {
          "duration": 0.07265625000002274,
          "durationTicks": 93,
          "midi": 51,
          "name": "D#3",
          "ticks": 164640,
          "time": 128.625,
          "velocity": 0.44881889763779526
        },
        {
          "duration": 0.07109375000001705,
          "durationTicks": 91,
          "midi": 40,
          "name": "E2",
          "ticks": 165000,
          "time": 128.90625,
          "velocity": 0.31496062992125984
        },
        {
          "duration": 0.07109375000001705,
          "durationTicks": 91,
          "midi": 51,
          "name": "D#3",
          "ticks": 165000,
          "time": 128.90625,
          "velocity": 0.4566929133858268
        },
        {
          "duration": 0.022656249999982947,
          "durationTicks": 29,
          "midi": 44,
          "name": "G#2",
          "ticks": 165120,
          "time": 129,
          "velocity": 0.4330708661417323
        },
        {
          "duration": 0.07109375000001705,
          "durationTicks": 91,
          "midi": 51,
          "name": "D#3",
          "ticks": 165120,
          "time": 129,
          "velocity": 0.4251968503937008
        },
        {
          "duration": 0.07109375000001705,
          "durationTicks": 91,
          "midi": 40,
          "name": "E2",
          "ticks": 165480,
          "time": 129.28125,
          "velocity": 0.11023622047244094
        },
        {
          "duration": 0.022656249999982947,
          "durationTicks": 29,
          "midi": 44,
          "name": "G#2",
          "ticks": 165600,
          "time": 129.375,
          "velocity": 0.4330708661417323
        },
        {
          "duration": 0.07109375000001705,
          "durationTicks": 91,
          "midi": 51,
          "name": "D#3",
          "ticks": 165600,
          "time": 129.375,
          "velocity": 0.5118110236220472
        },
        {
          "duration": 0.07265625000002274,
          "durationTicks": 93,
          "midi": 40,
          "name": "E2",
          "ticks": 165960,
          "time": 129.65625,
          "velocity": 0.06299212598425197
        },
        {
          "duration": 0.022656249999982947,
          "durationTicks": 29,
          "midi": 44,
          "name": "G#2",
          "ticks": 166080,
          "time": 129.75,
          "velocity": 0.4330708661417323
        },
        {
          "duration": 0.06953124999998295,
          "durationTicks": 89,
          "midi": 51,
          "name": "D#3",
          "ticks": 166080,
          "time": 129.75,
          "velocity": 0.5118110236220472
        },
        {
          "duration": 0.07187500000000568,
          "durationTicks": 92,
          "midi": 40,
          "name": "E2",
          "ticks": 166440,
          "time": 130.03125,
          "velocity": 0.15748031496062992
        },
        {
          "duration": 0.06874999999999432,
          "durationTicks": 88,
          "midi": 51,
          "name": "D#3",
          "ticks": 166440,
          "time": 130.03125,
          "velocity": 0.4566929133858268
        },
        {
          "duration": 0.021874999999994316,
          "durationTicks": 28,
          "midi": 44,
          "name": "G#2",
          "ticks": 166560,
          "time": 130.125,
          "velocity": 0.4330708661417323
        },
        {
          "duration": 0.07187500000000568,
          "durationTicks": 92,
          "midi": 51,
          "name": "D#3",
          "ticks": 166560,
          "time": 130.125,
          "velocity": 0.31496062992125984
        },
        {
          "duration": 0.07109375000001705,
          "durationTicks": 91,
          "midi": 40,
          "name": "E2",
          "ticks": 166920,
          "time": 130.40625,
          "velocity": 0.36220472440944884
        },
        {
          "duration": 0.07109375000001705,
          "durationTicks": 91,
          "midi": 51,
          "name": "D#3",
          "ticks": 166920,
          "time": 130.40625,
          "velocity": 0.4881889763779528
        },
        {
          "duration": 0.0234375,
          "durationTicks": 30,
          "midi": 44,
          "name": "G#2",
          "ticks": 167040,
          "time": 130.5,
          "velocity": 0.4330708661417323
        },
        {
          "duration": 0.07109375000001705,
          "durationTicks": 91,
          "midi": 51,
          "name": "D#3",
          "ticks": 167040,
          "time": 130.5,
          "velocity": 0.44881889763779526
        },
        {
          "duration": 0.07265625000002274,
          "durationTicks": 93,
          "midi": 40,
          "name": "E2",
          "ticks": 167400,
          "time": 130.78125,
          "velocity": 0.06299212598425197
        },
        {
          "duration": 0.022656249999982947,
          "durationTicks": 29,
          "midi": 44,
          "name": "G#2",
          "ticks": 167520,
          "time": 130.875,
          "velocity": 0.4330708661417323
        },
        {
          "duration": 0.07187500000000568,
          "durationTicks": 92,
          "midi": 51,
          "name": "D#3",
          "ticks": 167520,
          "time": 130.875,
          "velocity": 0.4566929133858268
        },
        {
          "duration": 0.07265625000002274,
          "durationTicks": 93,
          "midi": 40,
          "name": "E2",
          "ticks": 167880,
          "time": 131.15625,
          "velocity": 0.2992125984251969
        },
        {
          "duration": 0.07187500000000568,
          "durationTicks": 92,
          "midi": 51,
          "name": "D#3",
          "ticks": 167880,
          "time": 131.15625,
          "velocity": 0.5196850393700787
        },
        {
          "duration": 0.0234375,
          "durationTicks": 30,
          "midi": 44,
          "name": "G#2",
          "ticks": 168000,
          "time": 131.25,
          "velocity": 0.4330708661417323
        },
        {
          "duration": 0.07109375000001705,
          "durationTicks": 91,
          "midi": 40,
          "name": "E2",
          "ticks": 168360,
          "time": 131.53125,
          "velocity": 0.33070866141732286
        },
        {
          "duration": 0.07109375000001705,
          "durationTicks": 91,
          "midi": 51,
          "name": "D#3",
          "ticks": 168480,
          "time": 131.625,
          "velocity": 0.5118110236220472
        },
        {
          "duration": 0.07109375000001705,
          "durationTicks": 91,
          "midi": 35,
          "name": "B1",
          "ticks": 168840,
          "time": 131.90625,
          "velocity": 0.4409448818897638
        },
        {
          "duration": 0.07109375000001705,
          "durationTicks": 91,
          "midi": 46,
          "name": "A#2",
          "ticks": 168840,
          "time": 131.90625,
          "velocity": 0.4409448818897638
        },
        {
          "duration": 0.07187500000000568,
          "durationTicks": 92,
          "midi": 35,
          "name": "B1",
          "ticks": 169080,
          "time": 132.09375,
          "velocity": 0.4409448818897638
        },
        {
          "duration": 0.07109375000001705,
          "durationTicks": 91,
          "midi": 46,
          "name": "A#2",
          "ticks": 169080,
          "time": 132.09375,
          "velocity": 0.41732283464566927
        },
        {
          "duration": 0.0703125,
          "durationTicks": 90,
          "midi": 35,
          "name": "B1",
          "ticks": 169440,
          "time": 132.375,
          "velocity": 0.4566929133858268
        },
        {
          "duration": 0.07187500000000568,
          "durationTicks": 92,
          "midi": 46,
          "name": "A#2",
          "ticks": 169440,
          "time": 132.375,
          "velocity": 0.4251968503937008
        },
        {
          "duration": 0.07187500000000568,
          "durationTicks": 92,
          "midi": 40,
          "name": "E2",
          "ticks": 169800,
          "time": 132.65625,
          "velocity": 0.06299212598425197
        },
        {
          "duration": 0.07187500000000568,
          "durationTicks": 92,
          "midi": 35,
          "name": "B1",
          "ticks": 169920,
          "time": 132.75,
          "velocity": 0.4881889763779528
        },
        {
          "duration": 0.07187500000000568,
          "durationTicks": 92,
          "midi": 55,
          "name": "G3",
          "ticks": 169920,
          "time": 132.75,
          "velocity": 0.6771653543307087
        },
        {
          "duration": 0.024218750000017053,
          "durationTicks": 31,
          "midi": 44,
          "name": "G#2",
          "ticks": 170400,
          "time": 133.125,
          "velocity": 0.4330708661417323
        },
        {
          "duration": 0.07343750000001137,
          "durationTicks": 94,
          "midi": 51,
          "name": "D#3",
          "ticks": 170400,
          "time": 133.125,
          "velocity": 0.49606299212598426
        },
        {
          "duration": 0.07109375000001705,
          "durationTicks": 91,
          "midi": 40,
          "name": "E2",
          "ticks": 170760,
          "time": 133.40625,
          "velocity": 0.33070866141732286
        },
        {
          "duration": 0.06953124999998295,
          "durationTicks": 89,
          "midi": 51,
          "name": "D#3",
          "ticks": 170760,
          "time": 133.40625,
          "velocity": 0.4645669291338583
        },
        {
          "duration": 0.024218750000017053,
          "durationTicks": 31,
          "midi": 44,
          "name": "G#2",
          "ticks": 170880,
          "time": 133.5,
          "velocity": 0.4330708661417323
        },
        {
          "duration": 0.06874999999999432,
          "durationTicks": 88,
          "midi": 51,
          "name": "D#3",
          "ticks": 170880,
          "time": 133.5,
          "velocity": 0.4251968503937008
        },
        {
          "duration": 0.07187500000000568,
          "durationTicks": 92,
          "midi": 40,
          "name": "E2",
          "ticks": 171240,
          "time": 133.78125,
          "velocity": 0.06299212598425197
        },
        {
          "duration": 0.0234375,
          "durationTicks": 30,
          "midi": 44,
          "name": "G#2",
          "ticks": 171360,
          "time": 133.875,
          "velocity": 0.4330708661417323
        },
        {
          "duration": 0.07109375000001705,
          "durationTicks": 91,
          "midi": 51,
          "name": "D#3",
          "ticks": 171360,
          "time": 133.875,
          "velocity": 0.49606299212598426
        },
        {
          "duration": 0.07109375000001705,
          "durationTicks": 91,
          "midi": 40,
          "name": "E2",
          "ticks": 171720,
          "time": 134.15625,
          "velocity": 0.06299212598425197
        },
        {
          "duration": 0.021874999999994316,
          "durationTicks": 28,
          "midi": 44,
          "name": "G#2",
          "ticks": 171840,
          "time": 134.25,
          "velocity": 0.4330708661417323
        },
        {
          "duration": 0.06953124999998295,
          "durationTicks": 89,
          "midi": 51,
          "name": "D#3",
          "ticks": 171840,
          "time": 134.25,
          "velocity": 0.49606299212598426
        },
        {
          "duration": 0.06953124999998295,
          "durationTicks": 89,
          "midi": 40,
          "name": "E2",
          "ticks": 172200,
          "time": 134.53125,
          "velocity": 0.16535433070866143
        },
        {
          "duration": 0.06953124999998295,
          "durationTicks": 89,
          "midi": 51,
          "name": "D#3",
          "ticks": 172200,
          "time": 134.53125,
          "velocity": 0.48031496062992124
        },
        {
          "duration": 0.0234375,
          "durationTicks": 30,
          "midi": 44,
          "name": "G#2",
          "ticks": 172320,
          "time": 134.625,
          "velocity": 0.4330708661417323
        },
        {
          "duration": 0.07109375000001705,
          "durationTicks": 91,
          "midi": 51,
          "name": "D#3",
          "ticks": 172320,
          "time": 134.625,
          "velocity": 0.4330708661417323
        },
        {
          "duration": 0.07187500000000568,
          "durationTicks": 92,
          "midi": 40,
          "name": "E2",
          "ticks": 172680,
          "time": 134.90625,
          "velocity": 0.06299212598425197
        },
        {
          "duration": 0.022656249999982947,
          "durationTicks": 29,
          "midi": 44,
          "name": "G#2",
          "ticks": 172800,
          "time": 135,
          "velocity": 0.4330708661417323
        },
        {
          "duration": 0.07109375000001705,
          "durationTicks": 91,
          "midi": 51,
          "name": "D#3",
          "ticks": 172800,
          "time": 135,
          "velocity": 0.5118110236220472
        },
        {
          "duration": 0.025000000000005684,
          "durationTicks": 32,
          "midi": 44,
          "name": "G#2",
          "ticks": 173280,
          "time": 135.375,
          "velocity": 0.4330708661417323
        },
        {
          "duration": 0.06953124999998295,
          "durationTicks": 89,
          "midi": 51,
          "name": "D#3",
          "ticks": 173280,
          "time": 135.375,
          "velocity": 0.5039370078740157
        },
        {
          "duration": 0.021874999999994316,
          "durationTicks": 28,
          "midi": 44,
          "name": "G#2",
          "ticks": 173760,
          "time": 135.75,
          "velocity": 0.4330708661417323
        },
        {
          "duration": 0.07187500000000568,
          "durationTicks": 92,
          "midi": 51,
          "name": "D#3",
          "ticks": 173760,
          "time": 135.75,
          "velocity": 0.5118110236220472
        },
        {
          "duration": 0.021874999999994316,
          "durationTicks": 28,
          "midi": 44,
          "name": "G#2",
          "ticks": 174240,
          "time": 136.125,
          "velocity": 0.4330708661417323
        },
        {
          "duration": 0.07187500000000568,
          "durationTicks": 92,
          "midi": 51,
          "name": "D#3",
          "ticks": 174240,
          "time": 136.125,
          "velocity": 0.49606299212598426
        },
        {
          "duration": 0.025000000000005684,
          "durationTicks": 32,
          "midi": 44,
          "name": "G#2",
          "ticks": 174720,
          "time": 136.5,
          "velocity": 0.4330708661417323
        },
        {
          "duration": 0.07187500000000568,
          "durationTicks": 92,
          "midi": 51,
          "name": "D#3",
          "ticks": 174720,
          "time": 136.5,
          "velocity": 0.5118110236220472
        },
        {
          "duration": 0.07109375000001705,
          "durationTicks": 91,
          "midi": 40,
          "name": "E2",
          "ticks": 175080,
          "time": 136.78125,
          "velocity": 0.06299212598425197
        },
        {
          "duration": 0.022656249999982947,
          "durationTicks": 29,
          "midi": 44,
          "name": "G#2",
          "ticks": 175200,
          "time": 136.875,
          "velocity": 0.4330708661417323
        },
        {
          "duration": 0.07109375000001705,
          "durationTicks": 91,
          "midi": 51,
          "name": "D#3",
          "ticks": 175200,
          "time": 136.875,
          "velocity": 0.4881889763779528
        },
        {
          "duration": 0.07187500000000568,
          "durationTicks": 92,
          "midi": 40,
          "name": "E2",
          "ticks": 175560,
          "time": 137.15625,
          "velocity": 0.44881889763779526
        },
        {
          "duration": 0.07265625000002274,
          "durationTicks": 93,
          "midi": 51,
          "name": "D#3",
          "ticks": 175560,
          "time": 137.15625,
          "velocity": 0.5275590551181102
        },
        {
          "duration": 0.07187500000000568,
          "durationTicks": 92,
          "midi": 40,
          "name": "E2",
          "ticks": 176040,
          "time": 137.53125,
          "velocity": 0.06299212598425197
        },
        {
          "duration": 0.021874999999994316,
          "durationTicks": 28,
          "midi": 44,
          "name": "G#2",
          "ticks": 176160,
          "time": 137.625,
          "velocity": 0.4330708661417323
        },
        {
          "duration": 0.07265625000002274,
          "durationTicks": 93,
          "midi": 51,
          "name": "D#3",
          "ticks": 176160,
          "time": 137.625,
          "velocity": 0.5118110236220472
        },
        {
          "duration": 0.07109375000001705,
          "durationTicks": 91,
          "midi": 40,
          "name": "E2",
          "ticks": 176520,
          "time": 137.90625,
          "velocity": 0.1968503937007874
        },
        {
          "duration": 0.07187500000000568,
          "durationTicks": 92,
          "midi": 51,
          "name": "D#3",
          "ticks": 176520,
          "time": 137.90625,
          "velocity": 0.47244094488188976
        },
        {
          "duration": 0.025000000000005684,
          "durationTicks": 32,
          "midi": 44,
          "name": "G#2",
          "ticks": 176640,
          "time": 138,
          "velocity": 0.4330708661417323
        },
        {
          "duration": 0.07187500000000568,
          "durationTicks": 92,
          "midi": 51,
          "name": "D#3",
          "ticks": 176640,
          "time": 138,
          "velocity": 0.4015748031496063
        },
        {
          "duration": 0.07109375000001705,
          "durationTicks": 91,
          "midi": 40,
          "name": "E2",
          "ticks": 177000,
          "time": 138.28125,
          "velocity": 0.1968503937007874
        },
        {
          "duration": 0.0703125,
          "durationTicks": 90,
          "midi": 51,
          "name": "D#3",
          "ticks": 177000,
          "time": 138.28125,
          "velocity": 0.4566929133858268
        },
        {
          "duration": 0.025000000000005684,
          "durationTicks": 32,
          "midi": 44,
          "name": "G#2",
          "ticks": 177120,
          "time": 138.375,
          "velocity": 0.4330708661417323
        },
        {
          "duration": 0.07109375000001705,
          "durationTicks": 91,
          "midi": 51,
          "name": "D#3",
          "ticks": 177120,
          "time": 138.375,
          "velocity": 0.4330708661417323
        },
        {
          "duration": 0.07187500000000568,
          "durationTicks": 92,
          "midi": 40,
          "name": "E2",
          "ticks": 177480,
          "time": 138.65625,
          "velocity": 0.06299212598425197
        },
        {
          "duration": 0.022656249999982947,
          "durationTicks": 29,
          "midi": 44,
          "name": "G#2",
          "ticks": 177600,
          "time": 138.75,
          "velocity": 0.4330708661417323
        },
        {
          "duration": 0.07187500000000568,
          "durationTicks": 92,
          "midi": 51,
          "name": "D#3",
          "ticks": 177600,
          "time": 138.75,
          "velocity": 0.5196850393700787
        },
        {
          "duration": 0.025000000000005684,
          "durationTicks": 32,
          "midi": 44,
          "name": "G#2",
          "ticks": 178080,
          "time": 139.125,
          "velocity": 0.4330708661417323
        },
        {
          "duration": 0.07109375000001705,
          "durationTicks": 91,
          "midi": 51,
          "name": "D#3",
          "ticks": 178080,
          "time": 139.125,
          "velocity": 0.5196850393700787
        },
        {
          "duration": 0.024218750000017053,
          "durationTicks": 31,
          "midi": 44,
          "name": "G#2",
          "ticks": 178560,
          "time": 139.5,
          "velocity": 0.4330708661417323
        },
        {
          "duration": 0.07187500000000568,
          "durationTicks": 92,
          "midi": 51,
          "name": "D#3",
          "ticks": 178560,
          "time": 139.5,
          "velocity": 0.5118110236220472
        },
        {
          "duration": 0.07265625000002274,
          "durationTicks": 93,
          "midi": 40,
          "name": "E2",
          "ticks": 178920,
          "time": 139.78125,
          "velocity": 0.06299212598425197
        },
        {
          "duration": 0.022656249999982947,
          "durationTicks": 29,
          "midi": 44,
          "name": "G#2",
          "ticks": 179040,
          "time": 139.875,
          "velocity": 0.4330708661417323
        },
        {
          "duration": 0.07109375000001705,
          "durationTicks": 91,
          "midi": 51,
          "name": "D#3",
          "ticks": 179040,
          "time": 139.875,
          "velocity": 0.5118110236220472
        },
        {
          "duration": 0.0234375,
          "durationTicks": 30,
          "midi": 44,
          "name": "G#2",
          "ticks": 179520,
          "time": 140.25,
          "velocity": 0.4330708661417323
        },
        {
          "duration": 0.07187500000000568,
          "durationTicks": 92,
          "midi": 51,
          "name": "D#3",
          "ticks": 179520,
          "time": 140.25,
          "velocity": 0.5196850393700787
        },
        {
          "duration": 0.07109375000001705,
          "durationTicks": 91,
          "midi": 40,
          "name": "E2",
          "ticks": 179880,
          "time": 140.53125,
          "velocity": 0.06299212598425197
        },
        {
          "duration": 0.0234375,
          "durationTicks": 30,
          "midi": 44,
          "name": "G#2",
          "ticks": 180000,
          "time": 140.625,
          "velocity": 0.4330708661417323
        },
        {
          "duration": 0.07109375000001705,
          "durationTicks": 91,
          "midi": 51,
          "name": "D#3",
          "ticks": 180000,
          "time": 140.625,
          "velocity": 0.5118110236220472
        },
        {
          "duration": 0.07109375000001705,
          "durationTicks": 91,
          "midi": 40,
          "name": "E2",
          "ticks": 180360,
          "time": 140.90625,
          "velocity": 0.06299212598425197
        },
        {
          "duration": 0.022656249999982947,
          "durationTicks": 29,
          "midi": 44,
          "name": "G#2",
          "ticks": 180480,
          "time": 141,
          "velocity": 0.4330708661417323
        },
        {
          "duration": 0.06953124999998295,
          "durationTicks": 89,
          "midi": 51,
          "name": "D#3",
          "ticks": 180480,
          "time": 141,
          "velocity": 0.5118110236220472
        },
        {
          "duration": 0.07265625000002274,
          "durationTicks": 93,
          "midi": 40,
          "name": "E2",
          "ticks": 180840,
          "time": 141.28125,
          "velocity": 0.2677165354330709
        },
        {
          "duration": 0.07109375000001705,
          "durationTicks": 91,
          "midi": 51,
          "name": "D#3",
          "ticks": 180960,
          "time": 141.375,
          "velocity": 0.5275590551181102
        },
        {
          "duration": 0.07109375000001705,
          "durationTicks": 91,
          "midi": 46,
          "name": "A#2",
          "ticks": 181320,
          "time": 141.65625,
          "velocity": 0.2755905511811024
        },
        {
          "duration": 0.07343750000001137,
          "durationTicks": 94,
          "midi": 35,
          "name": "B1",
          "ticks": 181440,
          "time": 141.75,
          "velocity": 0.3937007874015748
        },
        {
          "duration": 0.07109375000001705,
          "durationTicks": 91,
          "midi": 55,
          "name": "G3",
          "ticks": 181440,
          "time": 141.75,
          "velocity": 0.5354330708661418
        },
        {
          "duration": 0.022656249999982947,
          "durationTicks": 29,
          "midi": 44,
          "name": "G#2",
          "ticks": 181920,
          "time": 142.125,
          "velocity": 0.4330708661417323
        },
        {
          "duration": 0.07109375000001705,
          "durationTicks": 91,
          "midi": 51,
          "name": "D#3",
          "ticks": 181920,
          "time": 142.125,
          "velocity": 0.48031496062992124
        },
        {
          "duration": 0.07109375000001705,
          "durationTicks": 91,
          "midi": 40,
          "name": "E2",
          "ticks": 182280,
          "time": 142.40625,
          "velocity": 0.25984251968503935
        },
        {
          "duration": 0.07109375000001705,
          "durationTicks": 91,
          "midi": 51,
          "name": "D#3",
          "ticks": 182280,
          "time": 142.40625,
          "velocity": 0.47244094488188976
        },
        {
          "duration": 0.022656249999982947,
          "durationTicks": 29,
          "midi": 44,
          "name": "G#2",
          "ticks": 182400,
          "time": 142.5,
          "velocity": 0.4330708661417323
        },
        {
          "duration": 0.07109375000001705,
          "durationTicks": 91,
          "midi": 51,
          "name": "D#3",
          "ticks": 182400,
          "time": 142.5,
          "velocity": 0.3700787401574803
        },
        {
          "duration": 0.07187500000000568,
          "durationTicks": 92,
          "midi": 40,
          "name": "E2",
          "ticks": 182760,
          "time": 142.78125,
          "velocity": 0.3858267716535433
        },
        {
          "duration": 0.07187500000000568,
          "durationTicks": 92,
          "midi": 51,
          "name": "D#3",
          "ticks": 182760,
          "time": 142.78125,
          "velocity": 0.48031496062992124
        },
        {
          "duration": 0.022656249999982947,
          "durationTicks": 29,
          "midi": 44,
          "name": "G#2",
          "ticks": 182880,
          "time": 142.875,
          "velocity": 0.4330708661417323
        },
        {
          "duration": 0.07187500000000568,
          "durationTicks": 92,
          "midi": 51,
          "name": "D#3",
          "ticks": 182880,
          "time": 142.875,
          "velocity": 0.3858267716535433
        },
        {
          "duration": 0.07109375000001705,
          "durationTicks": 91,
          "midi": 40,
          "name": "E2",
          "ticks": 183240,
          "time": 143.15625,
          "velocity": 0.06299212598425197
        },
        {
          "duration": 0.021874999999994316,
          "durationTicks": 28,
          "midi": 44,
          "name": "G#2",
          "ticks": 183360,
          "time": 143.25,
          "velocity": 0.4330708661417323
        },
        {
          "duration": 0.07187500000000568,
          "durationTicks": 92,
          "midi": 51,
          "name": "D#3",
          "ticks": 183360,
          "time": 143.25,
          "velocity": 0.5275590551181102
        },
        {
          "duration": 0.025000000000005684,
          "durationTicks": 32,
          "midi": 44,
          "name": "G#2",
          "ticks": 183840,
          "time": 143.625,
          "velocity": 0.4330708661417323
        },
        {
          "duration": 0.07187500000000568,
          "durationTicks": 92,
          "midi": 51,
          "name": "D#3",
          "ticks": 183840,
          "time": 143.625,
          "velocity": 0.5118110236220472
        },
        {
          "duration": 0.022656249999982947,
          "durationTicks": 29,
          "midi": 44,
          "name": "G#2",
          "ticks": 184320,
          "time": 144,
          "velocity": 0.4330708661417323
        },
        {
          "duration": 0.07109375000001705,
          "durationTicks": 91,
          "midi": 51,
          "name": "D#3",
          "ticks": 184320,
          "time": 144,
          "velocity": 0.5118110236220472
        },
        {
          "duration": 0.022656249999982947,
          "durationTicks": 29,
          "midi": 44,
          "name": "G#2",
          "ticks": 184800,
          "time": 144.375,
          "velocity": 0.4330708661417323
        },
        {
          "duration": 0.07187500000000568,
          "durationTicks": 92,
          "midi": 51,
          "name": "D#3",
          "ticks": 184800,
          "time": 144.375,
          "velocity": 0.5118110236220472
        },
        {
          "duration": 0.07265625000002274,
          "durationTicks": 93,
          "midi": 40,
          "name": "E2",
          "ticks": 185160,
          "time": 144.65625,
          "velocity": 0.2125984251968504
        },
        {
          "duration": 0.07187500000000568,
          "durationTicks": 92,
          "midi": 51,
          "name": "D#3",
          "ticks": 185160,
          "time": 144.65625,
          "velocity": 0.5196850393700787
        },
        {
          "duration": 0.021874999999994316,
          "durationTicks": 28,
          "midi": 44,
          "name": "G#2",
          "ticks": 185280,
          "time": 144.75,
          "velocity": 0.4330708661417323
        },
        {
          "duration": 0.07109375000001705,
          "durationTicks": 91,
          "midi": 40,
          "name": "E2",
          "ticks": 185640,
          "time": 145.03125,
          "velocity": 0.36220472440944884
        },
        {
          "duration": 0.07109375000001705,
          "durationTicks": 91,
          "midi": 51,
          "name": "D#3",
          "ticks": 185640,
          "time": 145.03125,
          "velocity": 0.47244094488188976
        },
        {
          "duration": 0.025781250000022737,
          "durationTicks": 33,
          "midi": 44,
          "name": "G#2",
          "ticks": 185760,
          "time": 145.125,
          "velocity": 0.4330708661417323
        },
        {
          "duration": 0.07109375000001705,
          "durationTicks": 91,
          "midi": 51,
          "name": "D#3",
          "ticks": 185760,
          "time": 145.125,
          "velocity": 0.4645669291338583
        },
        {
          "duration": 0.07187500000000568,
          "durationTicks": 92,
          "midi": 40,
          "name": "E2",
          "ticks": 186120,
          "time": 145.40625,
          "velocity": 0.25984251968503935
        },
        {
          "duration": 0.07109375000001705,
          "durationTicks": 91,
          "midi": 51,
          "name": "D#3",
          "ticks": 186240,
          "time": 145.5,
          "velocity": 0.5196850393700787
        },
        {
          "duration": 0.07109375000001705,
          "durationTicks": 91,
          "midi": 40,
          "name": "E2",
          "ticks": 186360,
          "time": 145.59375,
          "velocity": 0.06299212598425197
        },
        {
          "duration": 0.06953124999998295,
          "durationTicks": 89,
          "midi": 35,
          "name": "B1",
          "ticks": 186600,
          "time": 145.78125,
          "velocity": 0.41732283464566927
        },
        {
          "duration": 0.07109375000001705,
          "durationTicks": 91,
          "midi": 46,
          "name": "A#2",
          "ticks": 186600,
          "time": 145.78125,
          "velocity": 0.4015748031496063
        },
        {
          "duration": 0.07109375000001705,
          "durationTicks": 91,
          "midi": 40,
          "name": "E2",
          "ticks": 186720,
          "time": 145.875,
          "velocity": 0.09448818897637795
        },
        {
          "duration": 0.07265625000002274,
          "durationTicks": 93,
          "midi": 40,
          "name": "E2",
          "ticks": 186840,
          "time": 145.96875,
          "velocity": 0.48031496062992124
        },
        {
          "duration": 0.07109375000001705,
          "durationTicks": 91,
          "midi": 35,
          "name": "B1",
          "ticks": 186960,
          "time": 146.0625,
          "velocity": 0.31496062992125984
        },
        {
          "duration": 0.06953124999998295,
          "durationTicks": 89,
          "midi": 35,
          "name": "B1",
          "ticks": 187200,
          "time": 146.25,
          "velocity": 0.4566929133858268
        },
        {
          "duration": 0.07187500000000568,
          "durationTicks": 92,
          "midi": 46,
          "name": "A#2",
          "ticks": 187200,
          "time": 146.25,
          "velocity": 0.4566929133858268
        },
        {
          "duration": 0.07109375000001705,
          "durationTicks": 91,
          "midi": 40,
          "name": "E2",
          "ticks": 187320,
          "time": 146.34375,
          "velocity": 0.09448818897637795
        },
        {
          "duration": 0.07109375000001705,
          "durationTicks": 91,
          "midi": 40,
          "name": "E2",
          "ticks": 187440,
          "time": 146.4375,
          "velocity": 0.5196850393700787
        },
        {
          "duration": 0.025000000000005684,
          "durationTicks": 32,
          "midi": 44,
          "name": "G#2",
          "ticks": 187680,
          "time": 146.625,
          "velocity": 0.4330708661417323
        },
        {
          "duration": 0.07109375000001705,
          "durationTicks": 91,
          "midi": 51,
          "name": "D#3",
          "ticks": 187680,
          "time": 146.625,
          "velocity": 0.47244094488188976
        },
        {
          "duration": 0.07109375000001705,
          "durationTicks": 91,
          "midi": 40,
          "name": "E2",
          "ticks": 187800,
          "time": 146.71875,
          "velocity": 0.2283464566929134
        },
        {
          "duration": 0.07109375000001705,
          "durationTicks": 91,
          "midi": 35,
          "name": "B1",
          "ticks": 188040,
          "time": 146.90625,
          "velocity": 0.49606299212598426
        },
        {
          "duration": 0.07187500000000568,
          "durationTicks": 92,
          "midi": 46,
          "name": "A#2",
          "ticks": 188040,
          "time": 146.90625,
          "velocity": 0.4330708661417323
        },
        {
          "duration": 0.07109375000001705,
          "durationTicks": 91,
          "midi": 40,
          "name": "E2",
          "ticks": 188160,
          "time": 147,
          "velocity": 0.07874015748031496
        },
        {
          "duration": 0.07187500000000568,
          "durationTicks": 92,
          "midi": 40,
          "name": "E2",
          "ticks": 188280,
          "time": 147.09375,
          "velocity": 0.28346456692913385
        },
        {
          "duration": 0.07187500000000568,
          "durationTicks": 92,
          "midi": 35,
          "name": "B1",
          "ticks": 188520,
          "time": 147.28125,
          "velocity": 0.3543307086614173
        },
        {
          "duration": 0.07187500000000568,
          "durationTicks": 92,
          "midi": 35,
          "name": "B1",
          "ticks": 188640,
          "time": 147.375,
          "velocity": 0.5433070866141733
        },
        {
          "duration": 0.07187500000000568,
          "durationTicks": 92,
          "midi": 46,
          "name": "A#2",
          "ticks": 188640,
          "time": 147.375,
          "velocity": 0.4645669291338583
        },
        {
          "duration": 0.022656249999982947,
          "durationTicks": 29,
          "midi": 44,
          "name": "G#2",
          "ticks": 189120,
          "time": 147.75,
          "velocity": 0.4330708661417323
        },
        {
          "duration": 0.07109375000001705,
          "durationTicks": 91,
          "midi": 51,
          "name": "D#3",
          "ticks": 189120,
          "time": 147.75,
          "velocity": 0.47244094488188976
        },
        {
          "duration": 0.0703125,
          "durationTicks": 90,
          "midi": 40,
          "name": "E2",
          "ticks": 189480,
          "time": 148.03125,
          "velocity": 0.5196850393700787
        },
        {
          "duration": 0.07187500000000568,
          "durationTicks": 92,
          "midi": 51,
          "name": "D#3",
          "ticks": 189480,
          "time": 148.03125,
          "velocity": 0.47244094488188976
        },
        {
          "duration": 0.07187500000000568,
          "durationTicks": 92,
          "midi": 51,
          "name": "D#3",
          "ticks": 189600,
          "time": 148.125,
          "velocity": 0.4015748031496063
        },
        {
          "duration": 0.07187500000000568,
          "durationTicks": 92,
          "midi": 40,
          "name": "E2",
          "ticks": 189840,
          "time": 148.3125,
          "velocity": 0.2440944881889764
        },
        {
          "duration": 0.07109375000001705,
          "durationTicks": 91,
          "midi": 40,
          "name": "E2",
          "ticks": 189960,
          "time": 148.40625,
          "velocity": 0.31496062992125984
        },
        {
          "duration": 0.07265625000002274,
          "durationTicks": 93,
          "midi": 40,
          "name": "E2",
          "ticks": 190080,
          "time": 148.5,
          "velocity": 0.6535433070866141
        },
        {
          "duration": 0.07109375000001705,
          "durationTicks": 91,
          "midi": 35,
          "name": "B1",
          "ticks": 190440,
          "time": 148.78125,
          "velocity": 0.33858267716535434
        },
        {
          "duration": 0.07109375000001705,
          "durationTicks": 91,
          "midi": 35,
          "name": "B1",
          "ticks": 190560,
          "time": 148.875,
          "velocity": 0.5590551181102362
        },
        {
          "duration": 0.07187500000000568,
          "durationTicks": 92,
          "midi": 46,
          "name": "A#2",
          "ticks": 190560,
          "time": 148.875,
          "velocity": 0.48031496062992124
        },
        {
          "duration": 0.07109375000001705,
          "durationTicks": 91,
          "midi": 40,
          "name": "E2",
          "ticks": 190920,
          "time": 149.15625,
          "velocity": 0.5826771653543307
        },
        {
          "duration": 0.021093749999977263,
          "durationTicks": 27,
          "midi": 44,
          "name": "G#2",
          "ticks": 191040,
          "time": 149.25,
          "velocity": 0.4330708661417323
        },
        {
          "duration": 0.07343750000001137,
          "durationTicks": 94,
          "midi": 51,
          "name": "D#3",
          "ticks": 191040,
          "time": 149.25,
          "velocity": 0.4330708661417323
        },
        {
          "duration": 0.07109375000001705,
          "durationTicks": 91,
          "midi": 35,
          "name": "B1",
          "ticks": 191400,
          "time": 149.53125,
          "velocity": 0.33070866141732286
        },
        {
          "duration": 0.07187500000000568,
          "durationTicks": 92,
          "midi": 40,
          "name": "E2",
          "ticks": 191520,
          "time": 149.625,
          "velocity": 0.7244094488188977
        },
        {
          "duration": 0.07187500000000568,
          "durationTicks": 92,
          "midi": 51,
          "name": "D#3",
          "ticks": 191520,
          "time": 149.625,
          "velocity": 0.5354330708661418
        },
        {
          "duration": 0.07265625000002274,
          "durationTicks": 93,
          "midi": 35,
          "name": "B1",
          "ticks": 191880,
          "time": 149.90625,
          "velocity": 0.5669291338582677
        },
        {
          "duration": 0.07109375000001705,
          "durationTicks": 91,
          "midi": 46,
          "name": "A#2",
          "ticks": 191880,
          "time": 149.90625,
          "velocity": 0.48031496062992124
        },
        {
          "duration": 0.07187500000000568,
          "durationTicks": 92,
          "midi": 40,
          "name": "E2",
          "ticks": 192000,
          "time": 150,
          "velocity": 0.09448818897637795
        },
        {
          "duration": 0.07187500000000568,
          "durationTicks": 92,
          "midi": 40,
          "name": "E2",
          "ticks": 192120,
          "time": 150.09375,
          "velocity": 0.18110236220472442
        },
        {
          "duration": 0.07187500000000568,
          "durationTicks": 92,
          "midi": 35,
          "name": "B1",
          "ticks": 192360,
          "time": 150.28125,
          "velocity": 0.5354330708661418
        },
        {
          "duration": 0.07109375000001705,
          "durationTicks": 91,
          "midi": 46,
          "name": "A#2",
          "ticks": 192360,
          "time": 150.28125,
          "velocity": 0.48031496062992124
        },
        {
          "duration": 0.07187500000000568,
          "durationTicks": 92,
          "midi": 40,
          "name": "E2",
          "ticks": 192480,
          "time": 150.375,
          "velocity": 0.11023622047244094
        },
        {
          "duration": 0.07109375000001705,
          "durationTicks": 91,
          "midi": 40,
          "name": "E2",
          "ticks": 192720,
          "time": 150.5625,
          "velocity": 0.2992125984251969
        },
        {
          "duration": 0.07109375000001705,
          "durationTicks": 91,
          "midi": 35,
          "name": "B1",
          "ticks": 192840,
          "time": 150.65625,
          "velocity": 0.3858267716535433
        },
        {
          "duration": 0.07109375000001705,
          "durationTicks": 91,
          "midi": 35,
          "name": "B1",
          "ticks": 192960,
          "time": 150.75,
          "velocity": 0.6377952755905512
        },
        {
          "duration": 0.07109375000001705,
          "durationTicks": 91,
          "midi": 55,
          "name": "G3",
          "ticks": 192960,
          "time": 150.75,
          "velocity": 0.6614173228346457
        },
        {
          "duration": 0.025000000000005684,
          "durationTicks": 32,
          "midi": 44,
          "name": "G#2",
          "ticks": 193440,
          "time": 151.125,
          "velocity": 0.4330708661417323
        },
        {
          "duration": 0.07109375000001705,
          "durationTicks": 91,
          "midi": 51,
          "name": "D#3",
          "ticks": 193440,
          "time": 151.125,
          "velocity": 0.4645669291338583
        },
        {
          "duration": 0.07187500000000568,
          "durationTicks": 92,
          "midi": 40,
          "name": "E2",
          "ticks": 193800,
          "time": 151.40625,
          "velocity": 0.4015748031496063
        },
        {
          "duration": 0.07187500000000568,
          "durationTicks": 92,
          "midi": 51,
          "name": "D#3",
          "ticks": 193800,
          "time": 151.40625,
          "velocity": 0.47244094488188976
        },
        {
          "duration": 0.025000000000005684,
          "durationTicks": 32,
          "midi": 44,
          "name": "G#2",
          "ticks": 193920,
          "time": 151.5,
          "velocity": 0.4330708661417323
        },
        {
          "duration": 0.07265625000002274,
          "durationTicks": 93,
          "midi": 51,
          "name": "D#3",
          "ticks": 193920,
          "time": 151.5,
          "velocity": 0.4094488188976378
        },
        {
          "duration": 0.07109375000001705,
          "durationTicks": 91,
          "midi": 40,
          "name": "E2",
          "ticks": 194280,
          "time": 151.78125,
          "velocity": 0.11023622047244094
        },
        {
          "duration": 0.022656249999982947,
          "durationTicks": 29,
          "midi": 44,
          "name": "G#2",
          "ticks": 194400,
          "time": 151.875,
          "velocity": 0.4330708661417323
        },
        {
          "duration": 0.07265625000002274,
          "durationTicks": 93,
          "midi": 51,
          "name": "D#3",
          "ticks": 194400,
          "time": 151.875,
          "velocity": 0.5039370078740157
        },
        {
          "duration": 0.07109375000001705,
          "durationTicks": 91,
          "midi": 40,
          "name": "E2",
          "ticks": 194760,
          "time": 152.15625,
          "velocity": 0.06299212598425197
        },
        {
          "duration": 0.0234375,
          "durationTicks": 30,
          "midi": 44,
          "name": "G#2",
          "ticks": 194880,
          "time": 152.25,
          "velocity": 0.4330708661417323
        },
        {
          "duration": 0.07109375000001705,
          "durationTicks": 91,
          "midi": 51,
          "name": "D#3",
          "ticks": 194880,
          "time": 152.25,
          "velocity": 0.5196850393700787
        },
        {
          "duration": 0.07109375000001705,
          "durationTicks": 91,
          "midi": 40,
          "name": "E2",
          "ticks": 195240,
          "time": 152.53125,
          "velocity": 0.2992125984251969
        },
        {
          "duration": 0.07109375000001705,
          "durationTicks": 91,
          "midi": 51,
          "name": "D#3",
          "ticks": 195240,
          "time": 152.53125,
          "velocity": 0.4881889763779528
        },
        {
          "duration": 0.022656249999982947,
          "durationTicks": 29,
          "midi": 44,
          "name": "G#2",
          "ticks": 195360,
          "time": 152.625,
          "velocity": 0.4330708661417323
        },
        {
          "duration": 0.07109375000001705,
          "durationTicks": 91,
          "midi": 51,
          "name": "D#3",
          "ticks": 195360,
          "time": 152.625,
          "velocity": 0.4330708661417323
        },
        {
          "duration": 0.07265625000002274,
          "durationTicks": 93,
          "midi": 40,
          "name": "E2",
          "ticks": 195720,
          "time": 152.90625,
          "velocity": 0.16535433070866143
        },
        {
          "duration": 0.07109375000001705,
          "durationTicks": 91,
          "midi": 51,
          "name": "D#3",
          "ticks": 195840,
          "time": 153,
          "velocity": 0.5039370078740157
        },
        {
          "duration": 0.06953124999998295,
          "durationTicks": 89,
          "midi": 40,
          "name": "E2",
          "ticks": 196200,
          "time": 153.28125,
          "velocity": 0.06299212598425197
        },
        {
          "duration": 0.021874999999994316,
          "durationTicks": 28,
          "midi": 44,
          "name": "G#2",
          "ticks": 196320,
          "time": 153.375,
          "velocity": 0.4330708661417323
        },
        {
          "duration": 0.07265625000002274,
          "durationTicks": 93,
          "midi": 51,
          "name": "D#3",
          "ticks": 196320,
          "time": 153.375,
          "velocity": 0.5118110236220472
        },
        {
          "duration": 0.0703125,
          "durationTicks": 90,
          "midi": 40,
          "name": "E2",
          "ticks": 196680,
          "time": 153.65625,
          "velocity": 0.36220472440944884
        },
        {
          "duration": 0.07109375000001705,
          "durationTicks": 91,
          "midi": 51,
          "name": "D#3",
          "ticks": 196680,
          "time": 153.65625,
          "velocity": 0.4881889763779528
        },
        {
          "duration": 0.022656249999982947,
          "durationTicks": 29,
          "midi": 44,
          "name": "G#2",
          "ticks": 196800,
          "time": 153.75,
          "velocity": 0.4330708661417323
        },
        {
          "duration": 0.07187500000000568,
          "durationTicks": 92,
          "midi": 51,
          "name": "D#3",
          "ticks": 196800,
          "time": 153.75,
          "velocity": 0.3858267716535433
        },
        {
          "duration": 0.07109375000001705,
          "durationTicks": 91,
          "midi": 40,
          "name": "E2",
          "ticks": 197160,
          "time": 154.03125,
          "velocity": 0.14173228346456693
        },
        {
          "duration": 0.07187500000000568,
          "durationTicks": 92,
          "midi": 51,
          "name": "D#3",
          "ticks": 197280,
          "time": 154.125,
          "velocity": 0.5196850393700787
        },
        {
          "duration": 0.07187500000000568,
          "durationTicks": 92,
          "midi": 40,
          "name": "E2",
          "ticks": 197640,
          "time": 154.40625,
          "velocity": 0.06299212598425197
        },
        {
          "duration": 0.022656249999982947,
          "durationTicks": 29,
          "midi": 44,
          "name": "G#2",
          "ticks": 197760,
          "time": 154.5,
          "velocity": 0.4330708661417323
        },
        {
          "duration": 0.07187500000000568,
          "durationTicks": 92,
          "midi": 51,
          "name": "D#3",
          "ticks": 197760,
          "time": 154.5,
          "velocity": 0.5196850393700787
        },
        {
          "duration": 0.07109375000001705,
          "durationTicks": 91,
          "midi": 40,
          "name": "E2",
          "ticks": 198120,
          "time": 154.78125,
          "velocity": 0.33070866141732286
        },
        {
          "duration": 0.07187500000000568,
          "durationTicks": 92,
          "midi": 51,
          "name": "D#3",
          "ticks": 198120,
          "time": 154.78125,
          "velocity": 0.47244094488188976
        },
        {
          "duration": 0.0234375,
          "durationTicks": 30,
          "midi": 44,
          "name": "G#2",
          "ticks": 198240,
          "time": 154.875,
          "velocity": 0.4330708661417323
        },
        {
          "duration": 0.07109375000001705,
          "durationTicks": 91,
          "midi": 51,
          "name": "D#3",
          "ticks": 198240,
          "time": 154.875,
          "velocity": 0.4015748031496063
        },
        {
          "duration": 0.07109375000001705,
          "durationTicks": 91,
          "midi": 40,
          "name": "E2",
          "ticks": 198600,
          "time": 155.15625,
          "velocity": 0.2283464566929134
        },
        {
          "duration": 0.07109375000001705,
          "durationTicks": 91,
          "midi": 51,
          "name": "D#3",
          "ticks": 198720,
          "time": 155.25,
          "velocity": 0.5354330708661418
        },
        {
          "duration": 0.07109375000001705,
          "durationTicks": 91,
          "midi": 40,
          "name": "E2",
          "ticks": 199080,
          "time": 155.53125,
          "velocity": 0.06299212598425197
        },
        {
          "duration": 0.024218750000017053,
          "durationTicks": 31,
          "midi": 44,
          "name": "G#2",
          "ticks": 199200,
          "time": 155.625,
          "velocity": 0.4330708661417323
        },
        {
          "duration": 0.07187500000000568,
          "durationTicks": 92,
          "midi": 51,
          "name": "D#3",
          "ticks": 199200,
          "time": 155.625,
          "velocity": 0.49606299212598426
        },
        {
          "duration": 0.07265625000002274,
          "durationTicks": 93,
          "midi": 40,
          "name": "E2",
          "ticks": 199560,
          "time": 155.90625,
          "velocity": 0.25984251968503935
        },
        {
          "duration": 0.0703125,
          "durationTicks": 90,
          "midi": 51,
          "name": "D#3",
          "ticks": 199560,
          "time": 155.90625,
          "velocity": 0.49606299212598426
        },
        {
          "duration": 0.022656249999982947,
          "durationTicks": 29,
          "midi": 44,
          "name": "G#2",
          "ticks": 199680,
          "time": 156,
          "velocity": 0.4330708661417323
        },
        {
          "duration": 0.07109375000001705,
          "durationTicks": 91,
          "midi": 40,
          "name": "E2",
          "ticks": 200040,
          "time": 156.28125,
          "velocity": 0.33070866141732286
        },
        {
          "duration": 0.07109375000001705,
          "durationTicks": 91,
          "midi": 51,
          "name": "D#3",
          "ticks": 200040,
          "time": 156.28125,
          "velocity": 0.49606299212598426
        },
        {
          "duration": 0.06874999999999432,
          "durationTicks": 88,
          "midi": 51,
          "name": "D#3",
          "ticks": 200160,
          "time": 156.375,
          "velocity": 0.4409448818897638
        },
        {
          "duration": 0.07109375000001705,
          "durationTicks": 91,
          "midi": 40,
          "name": "E2",
          "ticks": 200520,
          "time": 156.65625,
          "velocity": 0.2283464566929134
        },
        {
          "duration": 0.025000000000005684,
          "durationTicks": 32,
          "midi": 44,
          "name": "G#2",
          "ticks": 200640,
          "time": 156.75,
          "velocity": 0.4330708661417323
        },
        {
          "duration": 0.07109375000001705,
          "durationTicks": 91,
          "midi": 51,
          "name": "D#3",
          "ticks": 200640,
          "time": 156.75,
          "velocity": 0.5196850393700787
        },
        {
          "duration": 0.07187500000000568,
          "durationTicks": 92,
          "midi": 40,
          "name": "E2",
          "ticks": 201000,
          "time": 157.03125,
          "velocity": 0.3858267716535433
        },
        {
          "duration": 0.07187500000000568,
          "durationTicks": 92,
          "midi": 51,
          "name": "D#3",
          "ticks": 201000,
          "time": 157.03125,
          "velocity": 0.5118110236220472
        },
        {
          "duration": 0.07109375000001705,
          "durationTicks": 91,
          "midi": 51,
          "name": "D#3",
          "ticks": 201120,
          "time": 157.125,
          "velocity": 0.4015748031496063
        },
        {
          "duration": 0.07187500000000568,
          "durationTicks": 92,
          "midi": 40,
          "name": "E2",
          "ticks": 201480,
          "time": 157.40625,
          "velocity": 0.1968503937007874
        },
        {
          "duration": 0.022656249999982947,
          "durationTicks": 29,
          "midi": 44,
          "name": "G#2",
          "ticks": 201600,
          "time": 157.5,
          "velocity": 0.4330708661417323
        },
        {
          "duration": 0.07109375000001705,
          "durationTicks": 91,
          "midi": 51,
          "name": "D#3",
          "ticks": 201600,
          "time": 157.5,
          "velocity": 0.5275590551181102
        },
        {
          "duration": 0.07187500000000568,
          "durationTicks": 92,
          "midi": 40,
          "name": "E2",
          "ticks": 201960,
          "time": 157.78125,
          "velocity": 0.28346456692913385
        },
        {
          "duration": 0.07109375000001705,
          "durationTicks": 91,
          "midi": 51,
          "name": "D#3",
          "ticks": 201960,
          "time": 157.78125,
          "velocity": 0.49606299212598426
        },
        {
          "duration": 0.07109375000001705,
          "durationTicks": 91,
          "midi": 40,
          "name": "E2",
          "ticks": 202440,
          "time": 158.15625,
          "velocity": 0.2992125984251969
        },
        {
          "duration": 0.07187500000000568,
          "durationTicks": 92,
          "midi": 51,
          "name": "D#3",
          "ticks": 202440,
          "time": 158.15625,
          "velocity": 0.5118110236220472
        },
        {
          "duration": 0.07109375000001705,
          "durationTicks": 91,
          "midi": 51,
          "name": "D#3",
          "ticks": 202560,
          "time": 158.25,
          "velocity": 0.4409448818897638
        },
        {
          "duration": 0.07187500000000568,
          "durationTicks": 92,
          "midi": 40,
          "name": "E2",
          "ticks": 202920,
          "time": 158.53125,
          "velocity": 0.3858267716535433
        },
        {
          "duration": 0.024218750000017053,
          "durationTicks": 31,
          "midi": 44,
          "name": "G#2",
          "ticks": 203040,
          "time": 158.625,
          "velocity": 0.4330708661417323
        },
        {
          "duration": 0.07187500000000568,
          "durationTicks": 92,
          "midi": 51,
          "name": "D#3",
          "ticks": 203040,
          "time": 158.625,
          "velocity": 0.48031496062992124
        },
        {
          "duration": 0.07109375000001705,
          "durationTicks": 91,
          "midi": 40,
          "name": "E2",
          "ticks": 203160,
          "time": 158.71875,
          "velocity": 0.07874015748031496
        },
        {
          "duration": 0.07109375000001705,
          "durationTicks": 91,
          "midi": 35,
          "name": "B1",
          "ticks": 203400,
          "time": 158.90625,
          "velocity": 0.41732283464566927
        },
        {
          "duration": 0.07109375000001705,
          "durationTicks": 91,
          "midi": 46,
          "name": "A#2",
          "ticks": 203400,
          "time": 158.90625,
          "velocity": 0.44881889763779526
        },
        {
          "duration": 0.07187500000000568,
          "durationTicks": 92,
          "midi": 40,
          "name": "E2",
          "ticks": 203520,
          "time": 159,
          "velocity": 0.14173228346456693
        },
        {
          "duration": 0.07109375000001705,
          "durationTicks": 91,
          "midi": 40,
          "name": "E2",
          "ticks": 203640,
          "time": 159.09375,
          "velocity": 0.48031496062992124
        },
        {
          "duration": 0.07187500000000568,
          "durationTicks": 92,
          "midi": 35,
          "name": "B1",
          "ticks": 203880,
          "time": 159.28125,
          "velocity": 0.5118110236220472
        },
        {
          "duration": 0.07109375000001705,
          "durationTicks": 91,
          "midi": 46,
          "name": "A#2",
          "ticks": 203880,
          "time": 159.28125,
          "velocity": 0.47244094488188976
        },
        {
          "duration": 0.07109375000001705,
          "durationTicks": 91,
          "midi": 40,
          "name": "E2",
          "ticks": 204000,
          "time": 159.375,
          "velocity": 0.09448818897637795
        },
        {
          "duration": 0.07265625000002274,
          "durationTicks": 93,
          "midi": 40,
          "name": "E2",
          "ticks": 204120,
          "time": 159.46875,
          "velocity": 0.5039370078740157
        },
        {
          "duration": 0.07187500000000568,
          "durationTicks": 92,
          "midi": 35,
          "name": "B1",
          "ticks": 204240,
          "time": 159.5625,
          "velocity": 0.3464566929133858
        },
        {
          "duration": 0.07109375000001705,
          "durationTicks": 91,
          "midi": 35,
          "name": "B1",
          "ticks": 204480,
          "time": 159.75,
          "velocity": 0.6535433070866141
        },
        {
          "duration": 0.07109375000001705,
          "durationTicks": 91,
          "midi": 55,
          "name": "G3",
          "ticks": 204480,
          "time": 159.75,
          "velocity": 0.18110236220472442
        },
        {
          "duration": 0.025000000000005684,
          "durationTicks": 32,
          "midi": 44,
          "name": "G#2",
          "ticks": 204960,
          "time": 160.125,
          "velocity": 0.4330708661417323
        },
        {
          "duration": 0.07187500000000568,
          "durationTicks": 92,
          "midi": 51,
          "name": "D#3",
          "ticks": 204960,
          "time": 160.125,
          "velocity": 0.3700787401574803
        },
        {
          "duration": 0.07187500000000568,
          "durationTicks": 92,
          "midi": 40,
          "name": "E2",
          "ticks": 205320,
          "time": 160.40625,
          "velocity": 0.2992125984251969
        },
        {
          "duration": 0.07187500000000568,
          "durationTicks": 92,
          "midi": 51,
          "name": "D#3",
          "ticks": 205320,
          "time": 160.40625,
          "velocity": 0.44881889763779526
        },
        {
          "duration": 0.07265625000002274,
          "durationTicks": 93,
          "midi": 51,
          "name": "D#3",
          "ticks": 205440,
          "time": 160.5,
          "velocity": 0.41732283464566927
        },
        {
          "duration": 0.06874999999999432,
          "durationTicks": 88,
          "midi": 35,
          "name": "B1",
          "ticks": 205800,
          "time": 160.78125,
          "velocity": 0.3543307086614173
        },
        {
          "duration": 0.07187500000000568,
          "durationTicks": 92,
          "midi": 40,
          "name": "E2",
          "ticks": 205920,
          "time": 160.875,
          "velocity": 0.6377952755905512
        },
        {
          "duration": 0.07109375000001705,
          "durationTicks": 91,
          "midi": 55,
          "name": "G3",
          "ticks": 205920,
          "time": 160.875,
          "velocity": 0.7637795275590551
        },
        {
          "duration": 0.07187500000000568,
          "durationTicks": 92,
          "midi": 51,
          "name": "D#3",
          "ticks": 206400,
          "time": 161.25,
          "velocity": 0.3464566929133858
        },
        {
          "duration": 0.0703125,
          "durationTicks": 90,
          "midi": 40,
          "name": "E2",
          "ticks": 206760,
          "time": 161.53125,
          "velocity": 0.33070866141732286
        },
        {
          "duration": 0.07187500000000568,
          "durationTicks": 92,
          "midi": 51,
          "name": "D#3",
          "ticks": 206760,
          "time": 161.53125,
          "velocity": 0.33858267716535434
        },
        {
          "duration": 0.07109375000001705,
          "durationTicks": 91,
          "midi": 51,
          "name": "D#3",
          "ticks": 206880,
          "time": 161.625,
          "velocity": 0.33070866141732286
        },
        {
          "duration": 0.0703125,
          "durationTicks": 90,
          "midi": 40,
          "name": "E2",
          "ticks": 207240,
          "time": 161.90625,
          "velocity": 0.36220472440944884
        },
        {
          "duration": 0.07187500000000568,
          "durationTicks": 92,
          "midi": 51,
          "name": "D#3",
          "ticks": 207360,
          "time": 162,
          "velocity": 0.48031496062992124
        },
        {
          "duration": 0.07109375000001705,
          "durationTicks": 91,
          "midi": 46,
          "name": "A#2",
          "ticks": 207600,
          "time": 162.1875,
          "velocity": 0.25984251968503935
        },
        {
          "duration": 0.07109375000001705,
          "durationTicks": 91,
          "midi": 35,
          "name": "B1",
          "ticks": 207720,
          "time": 162.28125,
          "velocity": 0.31496062992125984
        },
        {
          "duration": 0.07109375000001705,
          "durationTicks": 91,
          "midi": 46,
          "name": "A#2",
          "ticks": 207720,
          "time": 162.28125,
          "velocity": 0.4330708661417323
        },
        {
          "duration": 0.07109375000001705,
          "durationTicks": 91,
          "midi": 35,
          "name": "B1",
          "ticks": 207840,
          "time": 162.375,
          "velocity": 0.6062992125984252
        },
        {
          "duration": 0.07109375000001705,
          "durationTicks": 91,
          "midi": 46,
          "name": "A#2",
          "ticks": 207840,
          "time": 162.375,
          "velocity": 0.41732283464566927
        },
        {
          "duration": 0.07109375000001705,
          "durationTicks": 91,
          "midi": 51,
          "name": "D#3",
          "ticks": 208320,
          "time": 162.75,
          "velocity": 0.49606299212598426
        },
        {
          "duration": 0.07109375000001705,
          "durationTicks": 91,
          "midi": 40,
          "name": "E2",
          "ticks": 208680,
          "time": 163.03125,
          "velocity": 0.3858267716535433
        },
        {
          "duration": 0.07187500000000568,
          "durationTicks": 92,
          "midi": 51,
          "name": "D#3",
          "ticks": 208680,
          "time": 163.03125,
          "velocity": 0.5039370078740157
        },
        {
          "duration": 0.07109375000001705,
          "durationTicks": 91,
          "midi": 51,
          "name": "D#3",
          "ticks": 208800,
          "time": 163.125,
          "velocity": 0.4409448818897638
        },
        {
          "duration": 0.07187500000000568,
          "durationTicks": 92,
          "midi": 40,
          "name": "E2",
          "ticks": 209160,
          "time": 163.40625,
          "velocity": 0.4645669291338583
        },
        {
          "duration": 0.07187500000000568,
          "durationTicks": 92,
          "midi": 51,
          "name": "D#3",
          "ticks": 209160,
          "time": 163.40625,
          "velocity": 0.49606299212598426
        },
        {
          "duration": 0.07265625000002274,
          "durationTicks": 93,
          "midi": 51,
          "name": "D#3",
          "ticks": 209280,
          "time": 163.5,
          "velocity": 0.4566929133858268
        },
        {
          "duration": 0.07109375000001705,
          "durationTicks": 91,
          "midi": 40,
          "name": "E2",
          "ticks": 209640,
          "time": 163.78125,
          "velocity": 0.1968503937007874
        },
        {
          "duration": 0.025781250000022737,
          "durationTicks": 33,
          "midi": 44,
          "name": "G#2",
          "ticks": 209760,
          "time": 163.875,
          "velocity": 0.4330708661417323
        },
        {
          "duration": 0.07265625000002274,
          "durationTicks": 93,
          "midi": 51,
          "name": "D#3",
          "ticks": 209760,
          "time": 163.875,
          "velocity": 0.5118110236220472
        },
        {
          "duration": 0.07187500000000568,
          "durationTicks": 92,
          "midi": 40,
          "name": "E2",
          "ticks": 210120,
          "time": 164.15625,
          "velocity": 0.48031496062992124
        },
        {
          "duration": 0.07109375000001705,
          "durationTicks": 91,
          "midi": 51,
          "name": "D#3",
          "ticks": 210120,
          "time": 164.15625,
          "velocity": 0.5118110236220472
        },
        {
          "duration": 0.07109375000001705,
          "durationTicks": 91,
          "midi": 40,
          "name": "E2",
          "ticks": 210600,
          "time": 164.53125,
          "velocity": 0.16535433070866143
        },
        {
          "duration": 0.024218750000017053,
          "durationTicks": 31,
          "midi": 44,
          "name": "G#2",
          "ticks": 210720,
          "time": 164.625,
          "velocity": 0.4330708661417323
        },
        {
          "duration": 0.07109375000001705,
          "durationTicks": 91,
          "midi": 51,
          "name": "D#3",
          "ticks": 210720,
          "time": 164.625,
          "velocity": 0.49606299212598426
        },
        {
          "duration": 0.07187500000000568,
          "durationTicks": 92,
          "midi": 40,
          "name": "E2",
          "ticks": 211080,
          "time": 164.90625,
          "velocity": 0.2992125984251969
        },
        {
          "duration": 0.07109375000001705,
          "durationTicks": 91,
          "midi": 51,
          "name": "D#3",
          "ticks": 211080,
          "time": 164.90625,
          "velocity": 0.44881889763779526
        },
        {
          "duration": 0.021874999999994316,
          "durationTicks": 28,
          "midi": 44,
          "name": "G#2",
          "ticks": 211200,
          "time": 165,
          "velocity": 0.4330708661417323
        },
        {
          "duration": 0.07265625000002274,
          "durationTicks": 93,
          "midi": 51,
          "name": "D#3",
          "ticks": 211200,
          "time": 165,
          "velocity": 0.41732283464566927
        },
        {
          "duration": 0.07109375000001705,
          "durationTicks": 91,
          "midi": 40,
          "name": "E2",
          "ticks": 211560,
          "time": 165.28125,
          "velocity": 0.06299212598425197
        },
        {
          "duration": 0.07109375000001705,
          "durationTicks": 91,
          "midi": 51,
          "name": "D#3",
          "ticks": 211680,
          "time": 165.375,
          "velocity": 0.5039370078740157
        },
        {
          "duration": 0.07265625000002274,
          "durationTicks": 93,
          "midi": 40,
          "name": "E2",
          "ticks": 212040,
          "time": 165.65625,
          "velocity": 0.06299212598425197
        },
        {
          "duration": 0.022656249999982947,
          "durationTicks": 29,
          "midi": 44,
          "name": "G#2",
          "ticks": 212160,
          "time": 165.75,
          "velocity": 0.4330708661417323
        },
        {
          "duration": 0.07109375000001705,
          "durationTicks": 91,
          "midi": 51,
          "name": "D#3",
          "ticks": 212160,
          "time": 165.75,
          "velocity": 0.49606299212598426
        },
        {
          "duration": 0.07187500000000568,
          "durationTicks": 92,
          "midi": 40,
          "name": "E2",
          "ticks": 212520,
          "time": 166.03125,
          "velocity": 0.28346456692913385
        },
        {
          "duration": 0.07187500000000568,
          "durationTicks": 92,
          "midi": 51,
          "name": "D#3",
          "ticks": 212520,
          "time": 166.03125,
          "velocity": 0.48031496062992124
        },
        {
          "duration": 0.024218750000017053,
          "durationTicks": 31,
          "midi": 44,
          "name": "G#2",
          "ticks": 212640,
          "time": 166.125,
          "velocity": 0.4330708661417323
        },
        {
          "duration": 0.07187500000000568,
          "durationTicks": 92,
          "midi": 51,
          "name": "D#3",
          "ticks": 212640,
          "time": 166.125,
          "velocity": 0.4330708661417323
        },
        {
          "duration": 0.07265625000002274,
          "durationTicks": 93,
          "midi": 40,
          "name": "E2",
          "ticks": 213000,
          "time": 166.40625,
          "velocity": 0.06299212598425197
        },
        {
          "duration": 0.07187500000000568,
          "durationTicks": 92,
          "midi": 51,
          "name": "D#3",
          "ticks": 213120,
          "time": 166.5,
          "velocity": 0.5196850393700787
        },
        {
          "duration": 0.07109375000001705,
          "durationTicks": 91,
          "midi": 40,
          "name": "E2",
          "ticks": 213480,
          "time": 166.78125,
          "velocity": 0.06299212598425197
        },
        {
          "duration": 0.022656249999982947,
          "durationTicks": 29,
          "midi": 44,
          "name": "G#2",
          "ticks": 213600,
          "time": 166.875,
          "velocity": 0.4330708661417323
        },
        {
          "duration": 0.07109375000001705,
          "durationTicks": 91,
          "midi": 51,
          "name": "D#3",
          "ticks": 213600,
          "time": 166.875,
          "velocity": 0.48031496062992124
        },
        {
          "duration": 0.07265625000002274,
          "durationTicks": 93,
          "midi": 40,
          "name": "E2",
          "ticks": 213960,
          "time": 167.15625,
          "velocity": 0.33070866141732286
        },
        {
          "duration": 0.07265625000002274,
          "durationTicks": 93,
          "midi": 51,
          "name": "D#3",
          "ticks": 213960,
          "time": 167.15625,
          "velocity": 0.47244094488188976
        },
        {
          "duration": 0.025000000000005684,
          "durationTicks": 32,
          "midi": 44,
          "name": "G#2",
          "ticks": 214080,
          "time": 167.25,
          "velocity": 0.4330708661417323
        },
        {
          "duration": 0.07109375000001705,
          "durationTicks": 91,
          "midi": 51,
          "name": "D#3",
          "ticks": 214080,
          "time": 167.25,
          "velocity": 0.4330708661417323
        },
        {
          "duration": 0.07265625000002274,
          "durationTicks": 93,
          "midi": 40,
          "name": "E2",
          "ticks": 214440,
          "time": 167.53125,
          "velocity": 0.16535433070866143
        },
        {
          "duration": 0.07187500000000568,
          "durationTicks": 92,
          "midi": 51,
          "name": "D#3",
          "ticks": 214560,
          "time": 167.625,
          "velocity": 0.4566929133858268
        },
        {
          "duration": 0.07109375000001705,
          "durationTicks": 91,
          "midi": 40,
          "name": "E2",
          "ticks": 214800,
          "time": 167.8125,
          "velocity": 0.11023622047244094
        },
        {
          "duration": 0.07109375000001705,
          "durationTicks": 91,
          "midi": 35,
          "name": "B1",
          "ticks": 214920,
          "time": 167.90625,
          "velocity": 0.4566929133858268
        },
        {
          "duration": 0.07109375000001705,
          "durationTicks": 91,
          "midi": 46,
          "name": "A#2",
          "ticks": 214920,
          "time": 167.90625,
          "velocity": 0.4330708661417323
        },
        {
          "duration": 0.07187500000000568,
          "durationTicks": 92,
          "midi": 40,
          "name": "E2",
          "ticks": 215040,
          "time": 168,
          "velocity": 0.06299212598425197
        },
        {
          "duration": 0.07265625000002274,
          "durationTicks": 93,
          "midi": 40,
          "name": "E2",
          "ticks": 215160,
          "time": 168.09375,
          "velocity": 0.2283464566929134
        },
        {
          "duration": 0.07187500000000568,
          "durationTicks": 92,
          "midi": 35,
          "name": "B1",
          "ticks": 215400,
          "time": 168.28125,
          "velocity": 0.3858267716535433
        },
        {
          "duration": 0.07109375000001705,
          "durationTicks": 91,
          "midi": 46,
          "name": "A#2",
          "ticks": 215400,
          "time": 168.28125,
          "velocity": 0.41732283464566927
        },
        {
          "duration": 0.06953124999998295,
          "durationTicks": 89,
          "midi": 40,
          "name": "E2",
          "ticks": 215520,
          "time": 168.375,
          "velocity": 0.06299212598425197
        },
        {
          "duration": 0.07187500000000568,
          "durationTicks": 92,
          "midi": 40,
          "name": "E2",
          "ticks": 215760,
          "time": 168.5625,
          "velocity": 0.36220472440944884
        },
        {
          "duration": 0.07109375000001705,
          "durationTicks": 91,
          "midi": 35,
          "name": "B1",
          "ticks": 215880,
          "time": 168.65625,
          "velocity": 0.3464566929133858
        },
        {
          "duration": 0.07187500000000568,
          "durationTicks": 92,
          "midi": 35,
          "name": "B1",
          "ticks": 216000,
          "time": 168.75,
          "velocity": 0.6141732283464567
        },
        {
          "duration": 0.07187500000000568,
          "durationTicks": 92,
          "midi": 46,
          "name": "A#2",
          "ticks": 216000,
          "time": 168.75,
          "velocity": 0.3858267716535433
        },
        {
          "duration": 0.07109375000001705,
          "durationTicks": 91,
          "midi": 40,
          "name": "E2",
          "ticks": 216120,
          "time": 168.84375,
          "velocity": 0.11023622047244094
        },
        {
          "duration": 0.07265625000002274,
          "durationTicks": 93,
          "midi": 40,
          "name": "E2",
          "ticks": 216360,
          "time": 169.03125,
          "velocity": 0.48031496062992124
        },
        {
          "duration": 0.07109375000001705,
          "durationTicks": 91,
          "midi": 51,
          "name": "D#3",
          "ticks": 216480,
          "time": 169.125,
          "velocity": 0.4094488188976378
        },
        {
          "duration": 0.07109375000001705,
          "durationTicks": 91,
          "midi": 40,
          "name": "E2",
          "ticks": 216600,
          "time": 169.21875,
          "velocity": 0.2283464566929134
        },
        {
          "duration": 0.07109375000001705,
          "durationTicks": 91,
          "midi": 51,
          "name": "D#3",
          "ticks": 216840,
          "time": 169.40625,
          "velocity": 0.4330708661417323
        },
        {
          "duration": 0.0703125,
          "durationTicks": 90,
          "midi": 51,
          "name": "D#3",
          "ticks": 216960,
          "time": 169.5,
          "velocity": 0.41732283464566927
        },
        {
          "duration": 0.07187500000000568,
          "durationTicks": 92,
          "midi": 40,
          "name": "E2",
          "ticks": 217080,
          "time": 169.59375,
          "velocity": 0.14173228346456693
        },
        {
          "duration": 0.07187500000000568,
          "durationTicks": 92,
          "midi": 35,
          "name": "B1",
          "ticks": 217320,
          "time": 169.78125,
          "velocity": 0.3228346456692913
        },
        {
          "duration": 0.07265625000002274,
          "durationTicks": 93,
          "midi": 40,
          "name": "E2",
          "ticks": 217440,
          "time": 169.875,
          "velocity": 0.7874015748031497
        },
        {
          "duration": 0.07187500000000568,
          "durationTicks": 92,
          "midi": 51,
          "name": "D#3",
          "ticks": 217440,
          "time": 169.875,
          "velocity": 0.5590551181102362
        },
        {
          "duration": 0.07187500000000568,
          "durationTicks": 92,
          "midi": 40,
          "name": "E2",
          "ticks": 217800,
          "time": 170.15625,
          "velocity": 0.16535433070866143
        },
        {
          "duration": 0.07109375000001705,
          "durationTicks": 91,
          "midi": 51,
          "name": "D#3",
          "ticks": 217920,
          "time": 170.25,
          "velocity": 0.4566929133858268
        },
        {
          "duration": 0.07109375000001705,
          "durationTicks": 91,
          "midi": 40,
          "name": "E2",
          "ticks": 218160,
          "time": 170.4375,
          "velocity": 0.2440944881889764
        },
        {
          "duration": 0.07187500000000568,
          "durationTicks": 92,
          "midi": 35,
          "name": "B1",
          "ticks": 218280,
          "time": 170.53125,
          "velocity": 0.4330708661417323
        },
        {
          "duration": 0.07187500000000568,
          "durationTicks": 92,
          "midi": 51,
          "name": "D#3",
          "ticks": 218280,
          "time": 170.53125,
          "velocity": 0.4645669291338583
        },
        {
          "duration": 0.07187500000000568,
          "durationTicks": 92,
          "midi": 51,
          "name": "D#3",
          "ticks": 218400,
          "time": 170.625,
          "velocity": 0.44881889763779526
        },
        {
          "duration": 0.07187500000000568,
          "durationTicks": 92,
          "midi": 40,
          "name": "E2",
          "ticks": 218520,
          "time": 170.71875,
          "velocity": 0.2992125984251969
        },
        {
          "duration": 0.07187500000000568,
          "durationTicks": 92,
          "midi": 40,
          "name": "E2",
          "ticks": 218640,
          "time": 170.8125,
          "velocity": 0.44881889763779526
        },
        {
          "duration": 0.07265625000002274,
          "durationTicks": 93,
          "midi": 35,
          "name": "B1",
          "ticks": 218760,
          "time": 170.90625,
          "velocity": 0.33858267716535434
        },
        {
          "duration": 0.07265625000002274,
          "durationTicks": 93,
          "midi": 35,
          "name": "B1",
          "ticks": 218880,
          "time": 171,
          "velocity": 0.6377952755905512
        },
        {
          "duration": 0.07109375000001705,
          "durationTicks": 91,
          "midi": 55,
          "name": "G3",
          "ticks": 218880,
          "time": 171,
          "velocity": 0.6377952755905512
        },
        {
          "duration": 0.07187500000000568,
          "durationTicks": 92,
          "midi": 40,
          "name": "E2",
          "ticks": 219720,
          "time": 171.65625,
          "velocity": 0.1968503937007874
        },
        {
          "duration": 0.07109375000001705,
          "durationTicks": 91,
          "midi": 51,
          "name": "D#3",
          "ticks": 219720,
          "time": 171.65625,
          "velocity": 0.4094488188976378
        },
        {
          "duration": 0.07187500000000568,
          "durationTicks": 92,
          "midi": 51,
          "name": "D#3",
          "ticks": 219840,
          "time": 171.75,
          "velocity": 0.4094488188976378
        },
        {
          "duration": 0.07187500000000568,
          "durationTicks": 92,
          "midi": 40,
          "name": "E2",
          "ticks": 220320,
          "time": 172.125,
          "velocity": 0.44881889763779526
        },
        {
          "duration": 0.07265625000002274,
          "durationTicks": 93,
          "midi": 46,
          "name": "A#2",
          "ticks": 220320,
          "time": 172.125,
          "velocity": 0.4645669291338583
        },
        {
          "duration": 0.07109375000001705,
          "durationTicks": 91,
          "midi": 40,
          "name": "E2",
          "ticks": 221160,
          "time": 172.78125,
          "velocity": 0.3858267716535433
        },
        {
          "duration": 0.07187500000000568,
          "durationTicks": 92,
          "midi": 46,
          "name": "A#2",
          "ticks": 221160,
          "time": 172.78125,
          "velocity": 0.4409448818897638
        },
        {
          "duration": 0.07109375000001705,
          "durationTicks": 91,
          "midi": 40,
          "name": "E2",
          "ticks": 221760,
          "time": 173.25,
          "velocity": 0.41732283464566927
        },
        {
          "duration": 0.07187500000000568,
          "durationTicks": 92,
          "midi": 46,
          "name": "A#2",
          "ticks": 221760,
          "time": 173.25,
          "velocity": 0.3543307086614173
        },
        {
          "duration": 0.07187500000000568,
          "durationTicks": 92,
          "midi": 46,
          "name": "A#2",
          "ticks": 222480,
          "time": 173.8125,
          "velocity": 0.33070866141732286
        },
        {
          "duration": 0.06953124999998295,
          "durationTicks": 89,
          "midi": 46,
          "name": "A#2",
          "ticks": 222840,
          "time": 174.09375,
          "velocity": 0.2755905511811024
        },
        {
          "duration": 0.06874999999999432,
          "durationTicks": 88,
          "midi": 46,
          "name": "A#2",
          "ticks": 223200,
          "time": 174.375,
          "velocity": 0.4251968503937008
        },
        {
          "duration": 0.07109375000001705,
          "durationTicks": 91,
          "midi": 40,
          "name": "E2",
          "ticks": 224040,
          "time": 175.03125,
          "velocity": 0.4645669291338583
        },
        {
          "duration": 0.07109375000001705,
          "durationTicks": 91,
          "midi": 51,
          "name": "D#3",
          "ticks": 224040,
          "time": 175.03125,
          "velocity": 0.49606299212598426
        },
        {
          "duration": 0.07109375000001705,
          "durationTicks": 91,
          "midi": 46,
          "name": "A#2",
          "ticks": 224400,
          "time": 175.3125,
          "velocity": 0.25196850393700787
        },
        {
          "duration": 0.07109375000001705,
          "durationTicks": 91,
          "midi": 46,
          "name": "A#2",
          "ticks": 224520,
          "time": 175.40625,
          "velocity": 0.31496062992125984
        },
        {
          "duration": 0.07109375000001705,
          "durationTicks": 91,
          "midi": 35,
          "name": "B1",
          "ticks": 224640,
          "time": 175.5,
          "velocity": 0.36220472440944884
        },
        {
          "duration": 0.06953124999998295,
          "durationTicks": 89,
          "midi": 46,
          "name": "A#2",
          "ticks": 224640,
          "time": 175.5,
          "velocity": 0.2755905511811024
        },
        {
          "duration": 0.07187500000000568,
          "durationTicks": 92,
          "midi": 59,
          "name": "B3",
          "ticks": 225120,
          "time": 175.875,
          "velocity": 0.3700787401574803
        },
        {
          "duration": 0.024218750000017053,
          "durationTicks": 31,
          "midi": 44,
          "name": "G#2",
          "ticks": 225600,
          "time": 176.25,
          "velocity": 0.4330708661417323
        },
        {
          "duration": 0.07109375000001705,
          "durationTicks": 91,
          "midi": 59,
          "name": "B3",
          "ticks": 225600,
          "time": 176.25,
          "velocity": 0.3937007874015748
        },
        {
          "duration": 0.021874999999994316,
          "durationTicks": 28,
          "midi": 44,
          "name": "G#2",
          "ticks": 226080,
          "time": 176.625,
          "velocity": 0.4330708661417323
        },
        {
          "duration": 0.06874999999999432,
          "durationTicks": 88,
          "midi": 59,
          "name": "B3",
          "ticks": 226080,
          "time": 176.625,
          "velocity": 0.3858267716535433
        },
        {
          "duration": 0.025000000000005684,
          "durationTicks": 32,
          "midi": 44,
          "name": "G#2",
          "ticks": 226560,
          "time": 177,
          "velocity": 0.4330708661417323
        },
        {
          "duration": 0.06874999999999432,
          "durationTicks": 88,
          "midi": 59,
          "name": "B3",
          "ticks": 226560,
          "time": 177,
          "velocity": 0.3858267716535433
        },
        {
          "duration": 0.025000000000005684,
          "durationTicks": 32,
          "midi": 44,
          "name": "G#2",
          "ticks": 227040,
          "time": 177.375,
          "velocity": 0.4330708661417323
        },
        {
          "duration": 0.07187500000000568,
          "durationTicks": 92,
          "midi": 59,
          "name": "B3",
          "ticks": 227040,
          "time": 177.375,
          "velocity": 0.3858267716535433
        },
        {
          "duration": 0.021874999999994316,
          "durationTicks": 28,
          "midi": 44,
          "name": "G#2",
          "ticks": 227520,
          "time": 177.75,
          "velocity": 0.4330708661417323
        },
        {
          "duration": 0.07187500000000568,
          "durationTicks": 92,
          "midi": 59,
          "name": "B3",
          "ticks": 227520,
          "time": 177.75,
          "velocity": 0.4015748031496063
        },
        {
          "duration": 0.025781250000022737,
          "durationTicks": 33,
          "midi": 44,
          "name": "G#2",
          "ticks": 228000,
          "time": 178.125,
          "velocity": 0.4330708661417323
        },
        {
          "duration": 0.0703125,
          "durationTicks": 90,
          "midi": 59,
          "name": "B3",
          "ticks": 228000,
          "time": 178.125,
          "velocity": 0.3858267716535433
        },
        {
          "duration": 0.0234375,
          "durationTicks": 30,
          "midi": 44,
          "name": "G#2",
          "ticks": 228480,
          "time": 178.5,
          "velocity": 0.4330708661417323
        },
        {
          "duration": 0.07109375000001705,
          "durationTicks": 91,
          "midi": 59,
          "name": "B3",
          "ticks": 228480,
          "time": 178.5,
          "velocity": 0.3858267716535433
        },
        {
          "duration": 0.025000000000005684,
          "durationTicks": 32,
          "midi": 44,
          "name": "G#2",
          "ticks": 228960,
          "time": 178.875,
          "velocity": 0.4330708661417323
        },
        {
          "duration": 0.07187500000000568,
          "durationTicks": 92,
          "midi": 59,
          "name": "B3",
          "ticks": 228960,
          "time": 178.875,
          "velocity": 0.3858267716535433
        },
        {
          "duration": 0.025000000000005684,
          "durationTicks": 32,
          "midi": 44,
          "name": "G#2",
          "ticks": 229440,
          "time": 179.25,
          "velocity": 0.4330708661417323
        },
        {
          "duration": 0.07109375000001705,
          "durationTicks": 91,
          "midi": 59,
          "name": "B3",
          "ticks": 229440,
          "time": 179.25,
          "velocity": 0.3858267716535433
        },
        {
          "duration": 0.022656249999982947,
          "durationTicks": 29,
          "midi": 44,
          "name": "G#2",
          "ticks": 229920,
          "time": 179.625,
          "velocity": 0.4330708661417323
        },
        {
          "duration": 0.07187500000000568,
          "durationTicks": 92,
          "midi": 59,
          "name": "B3",
          "ticks": 229920,
          "time": 179.625,
          "velocity": 0.3700787401574803
        },
        {
          "duration": 0.02656250000001137,
          "durationTicks": 34,
          "midi": 44,
          "name": "G#2",
          "ticks": 230400,
          "time": 180,
          "velocity": 0.4330708661417323
        },
        {
          "duration": 0.07109375000001705,
          "durationTicks": 91,
          "midi": 59,
          "name": "B3",
          "ticks": 230400,
          "time": 180,
          "velocity": 0.3858267716535433
        },
        {
          "duration": 0.021093749999977263,
          "durationTicks": 27,
          "midi": 44,
          "name": "G#2",
          "ticks": 230880,
          "time": 180.375,
          "velocity": 0.4330708661417323
        },
        {
          "duration": 0.0703125,
          "durationTicks": 90,
          "midi": 59,
          "name": "B3",
          "ticks": 230880,
          "time": 180.375,
          "velocity": 0.3779527559055118
        },
        {
          "duration": 0.024218750000017053,
          "durationTicks": 31,
          "midi": 44,
          "name": "G#2",
          "ticks": 231360,
          "time": 180.75,
          "velocity": 0.4330708661417323
        },
        {
          "duration": 0.07187500000000568,
          "durationTicks": 92,
          "midi": 59,
          "name": "B3",
          "ticks": 231360,
          "time": 180.75,
          "velocity": 0.3858267716535433
        },
        {
          "duration": 0.024218750000017053,
          "durationTicks": 31,
          "midi": 44,
          "name": "G#2",
          "ticks": 231840,
          "time": 181.125,
          "velocity": 0.4330708661417323
        },
        {
          "duration": 0.07109375000001705,
          "durationTicks": 91,
          "midi": 59,
          "name": "B3",
          "ticks": 231840,
          "time": 181.125,
          "velocity": 0.3858267716535433
        },
        {
          "duration": 0.022656249999982947,
          "durationTicks": 29,
          "midi": 44,
          "name": "G#2",
          "ticks": 232320,
          "time": 181.5,
          "velocity": 0.4330708661417323
        },
        {
          "duration": 0.07109375000001705,
          "durationTicks": 91,
          "midi": 59,
          "name": "B3",
          "ticks": 232320,
          "time": 181.5,
          "velocity": 0.3858267716535433
        },
        {
          "duration": 0.0234375,
          "durationTicks": 30,
          "midi": 44,
          "name": "G#2",
          "ticks": 232800,
          "time": 181.875,
          "velocity": 0.4330708661417323
        },
        {
          "duration": 0.07265625000002274,
          "durationTicks": 93,
          "midi": 59,
          "name": "B3",
          "ticks": 232800,
          "time": 181.875,
          "velocity": 0.3858267716535433
        },
        {
          "duration": 0.025000000000005684,
          "durationTicks": 32,
          "midi": 44,
          "name": "G#2",
          "ticks": 233280,
          "time": 182.25,
          "velocity": 0.4330708661417323
        },
        {
          "duration": 0.07109375000001705,
          "durationTicks": 91,
          "midi": 59,
          "name": "B3",
          "ticks": 233280,
          "time": 182.25,
          "velocity": 0.3858267716535433
        },
        {
          "duration": 0.024218750000017053,
          "durationTicks": 31,
          "midi": 44,
          "name": "G#2",
          "ticks": 233760,
          "time": 182.625,
          "velocity": 0.4330708661417323
        },
        {
          "duration": 0.07109375000001705,
          "durationTicks": 91,
          "midi": 59,
          "name": "B3",
          "ticks": 233760,
          "time": 182.625,
          "velocity": 0.3937007874015748
        },
        {
          "duration": 0.0234375,
          "durationTicks": 30,
          "midi": 44,
          "name": "G#2",
          "ticks": 234240,
          "time": 183,
          "velocity": 0.4330708661417323
        },
        {
          "duration": 0.07109375000001705,
          "durationTicks": 91,
          "midi": 59,
          "name": "B3",
          "ticks": 234240,
          "time": 183,
          "velocity": 0.3700787401574803
        },
        {
          "duration": 0.022656249999982947,
          "durationTicks": 29,
          "midi": 44,
          "name": "G#2",
          "ticks": 234720,
          "time": 183.375,
          "velocity": 0.4330708661417323
        },
        {
          "duration": 0.07187500000000568,
          "durationTicks": 92,
          "midi": 59,
          "name": "B3",
          "ticks": 234720,
          "time": 183.375,
          "velocity": 0.3858267716535433
        },
        {
          "duration": 0.024218750000017053,
          "durationTicks": 31,
          "midi": 44,
          "name": "G#2",
          "ticks": 235200,
          "time": 183.75,
          "velocity": 0.4330708661417323
        },
        {
          "duration": 0.07109375000001705,
          "durationTicks": 91,
          "midi": 59,
          "name": "B3",
          "ticks": 235200,
          "time": 183.75,
          "velocity": 0.3937007874015748
        },
        {
          "duration": 0.024218750000017053,
          "durationTicks": 31,
          "midi": 44,
          "name": "G#2",
          "ticks": 235680,
          "time": 184.125,
          "velocity": 0.4330708661417323
        },
        {
          "duration": 0.07187500000000568,
          "durationTicks": 92,
          "midi": 59,
          "name": "B3",
          "ticks": 235680,
          "time": 184.125,
          "velocity": 0.4015748031496063
        },
        {
          "duration": 0.07187500000000568,
          "durationTicks": 92,
          "midi": 40,
          "name": "E2",
          "ticks": 236040,
          "time": 184.40625,
          "velocity": 0.41732283464566927
        },
        {
          "duration": 0.07187500000000568,
          "durationTicks": 92,
          "midi": 59,
          "name": "B3",
          "ticks": 236040,
          "time": 184.40625,
          "velocity": 0.47244094488188976
        },
        {
          "duration": 0.0234375,
          "durationTicks": 30,
          "midi": 44,
          "name": "G#2",
          "ticks": 236640,
          "time": 184.875,
          "velocity": 0.4330708661417323
        },
        {
          "duration": 0.07265625000002274,
          "durationTicks": 93,
          "midi": 59,
          "name": "B3",
          "ticks": 236640,
          "time": 184.875,
          "velocity": 0.4409448818897638
        },
        {
          "duration": 0.025000000000005684,
          "durationTicks": 32,
          "midi": 44,
          "name": "G#2",
          "ticks": 237120,
          "time": 185.25,
          "velocity": 0.4330708661417323
        },
        {
          "duration": 0.06953124999998295,
          "durationTicks": 89,
          "midi": 59,
          "name": "B3",
          "ticks": 237120,
          "time": 185.25,
          "velocity": 0.4094488188976378
        },
        {
          "duration": 0.024218750000017053,
          "durationTicks": 31,
          "midi": 44,
          "name": "G#2",
          "ticks": 237600,
          "time": 185.625,
          "velocity": 0.4330708661417323
        },
        {
          "duration": 0.07109375000001705,
          "durationTicks": 91,
          "midi": 59,
          "name": "B3",
          "ticks": 237600,
          "time": 185.625,
          "velocity": 0.4251968503937008
        },
        {
          "duration": 0.024218750000017053,
          "durationTicks": 31,
          "midi": 44,
          "name": "G#2",
          "ticks": 238080,
          "time": 186,
          "velocity": 0.4330708661417323
        },
        {
          "duration": 0.07187500000000568,
          "durationTicks": 92,
          "midi": 59,
          "name": "B3",
          "ticks": 238080,
          "time": 186,
          "velocity": 0.4094488188976378
        },
        {
          "duration": 0.022656249999982947,
          "durationTicks": 29,
          "midi": 44,
          "name": "G#2",
          "ticks": 238560,
          "time": 186.375,
          "velocity": 0.4330708661417323
        },
        {
          "duration": 0.07109375000001705,
          "durationTicks": 91,
          "midi": 59,
          "name": "B3",
          "ticks": 238560,
          "time": 186.375,
          "velocity": 0.41732283464566927
        },
        {
          "duration": 0.025000000000005684,
          "durationTicks": 32,
          "midi": 44,
          "name": "G#2",
          "ticks": 239040,
          "time": 186.75,
          "velocity": 0.4330708661417323
        },
        {
          "duration": 0.07109375000001705,
          "durationTicks": 91,
          "midi": 59,
          "name": "B3",
          "ticks": 239040,
          "time": 186.75,
          "velocity": 0.4015748031496063
        },
        {
          "duration": 0.022656249999982947,
          "durationTicks": 29,
          "midi": 44,
          "name": "G#2",
          "ticks": 239520,
          "time": 187.125,
          "velocity": 0.4330708661417323
        },
        {
          "duration": 0.07109375000001705,
          "durationTicks": 91,
          "midi": 59,
          "name": "B3",
          "ticks": 239520,
          "time": 187.125,
          "velocity": 0.4015748031496063
        },
        {
          "duration": 0.022656249999982947,
          "durationTicks": 29,
          "midi": 44,
          "name": "G#2",
          "ticks": 240000,
          "time": 187.5,
          "velocity": 0.4330708661417323
        },
        {
          "duration": 0.07187500000000568,
          "durationTicks": 92,
          "midi": 59,
          "name": "B3",
          "ticks": 240000,
          "time": 187.5,
          "velocity": 0.4015748031496063
        },
        {
          "duration": 0.021874999999994316,
          "durationTicks": 28,
          "midi": 44,
          "name": "G#2",
          "ticks": 240480,
          "time": 187.875,
          "velocity": 0.4330708661417323
        },
        {
          "duration": 0.07187500000000568,
          "durationTicks": 92,
          "midi": 59,
          "name": "B3",
          "ticks": 240480,
          "time": 187.875,
          "velocity": 0.4015748031496063
        },
        {
          "duration": 0.025000000000005684,
          "durationTicks": 32,
          "midi": 44,
          "name": "G#2",
          "ticks": 240960,
          "time": 188.25,
          "velocity": 0.4330708661417323
        },
        {
          "duration": 0.07109375000001705,
          "durationTicks": 91,
          "midi": 59,
          "name": "B3",
          "ticks": 240960,
          "time": 188.25,
          "velocity": 0.4330708661417323
        },
        {
          "duration": 0.022656249999982947,
          "durationTicks": 29,
          "midi": 44,
          "name": "G#2",
          "ticks": 241440,
          "time": 188.625,
          "velocity": 0.4330708661417323
        },
        {
          "duration": 0.07109375000001705,
          "durationTicks": 91,
          "midi": 59,
          "name": "B3",
          "ticks": 241440,
          "time": 188.625,
          "velocity": 0.4251968503937008
        },
        {
          "duration": 0.0703125,
          "durationTicks": 90,
          "midi": 46,
          "name": "A#2",
          "ticks": 241800,
          "time": 188.90625,
          "velocity": 0.30708661417322836
        },
        {
          "duration": 0.022656249999982947,
          "durationTicks": 29,
          "midi": 44,
          "name": "G#2",
          "ticks": 241920,
          "time": 189,
          "velocity": 0.4330708661417323
        },
        {
          "duration": 0.07109375000001705,
          "durationTicks": 91,
          "midi": 59,
          "name": "B3",
          "ticks": 241920,
          "time": 189,
          "velocity": 0.4015748031496063
        },
        {
          "duration": 0.021874999999994316,
          "durationTicks": 28,
          "midi": 44,
          "name": "G#2",
          "ticks": 242400,
          "time": 189.375,
          "velocity": 0.4330708661417323
        },
        {
          "duration": 0.07187500000000568,
          "durationTicks": 92,
          "midi": 59,
          "name": "B3",
          "ticks": 242400,
          "time": 189.375,
          "velocity": 0.4094488188976378
        },
        {
          "duration": 0.022656249999982947,
          "durationTicks": 29,
          "midi": 44,
          "name": "G#2",
          "ticks": 242880,
          "time": 189.75,
          "velocity": 0.4330708661417323
        },
        {
          "duration": 0.07109375000001705,
          "durationTicks": 91,
          "midi": 59,
          "name": "B3",
          "ticks": 242880,
          "time": 189.75,
          "velocity": 0.4015748031496063
        },
        {
          "duration": 0.022656249999982947,
          "durationTicks": 29,
          "midi": 44,
          "name": "G#2",
          "ticks": 243360,
          "time": 190.125,
          "velocity": 0.4330708661417323
        },
        {
          "duration": 0.06874999999999432,
          "durationTicks": 88,
          "midi": 59,
          "name": "B3",
          "ticks": 243360,
          "time": 190.125,
          "velocity": 0.4094488188976378
        },
        {
          "duration": 0.022656249999982947,
          "durationTicks": 29,
          "midi": 44,
          "name": "G#2",
          "ticks": 243840,
          "time": 190.5,
          "velocity": 0.4330708661417323
        },
        {
          "duration": 0.07109375000001705,
          "durationTicks": 91,
          "midi": 59,
          "name": "B3",
          "ticks": 243840,
          "time": 190.5,
          "velocity": 0.4094488188976378
        },
        {
          "duration": 0.022656249999982947,
          "durationTicks": 29,
          "midi": 44,
          "name": "G#2",
          "ticks": 244320,
          "time": 190.875,
          "velocity": 0.4330708661417323
        },
        {
          "duration": 0.07187500000000568,
          "durationTicks": 92,
          "midi": 59,
          "name": "B3",
          "ticks": 244320,
          "time": 190.875,
          "velocity": 0.4330708661417323
        },
        {
          "duration": 0.06874999999999432,
          "durationTicks": 88,
          "midi": 46,
          "name": "A#2",
          "ticks": 244680,
          "time": 191.15625,
          "velocity": 0.4566929133858268
        },
        {
          "duration": 0.07109375000001705,
          "durationTicks": 91,
          "midi": 59,
          "name": "B3",
          "ticks": 244800,
          "time": 191.25,
          "velocity": 0.4015748031496063
        },
        {
          "duration": 0.07109375000001705,
          "durationTicks": 91,
          "midi": 59,
          "name": "B3",
          "ticks": 245280,
          "time": 191.625,
          "velocity": 0.3858267716535433
        },
        {
          "duration": 0.0718750000000341,
          "durationTicks": 92,
          "midi": 59,
          "name": "B3",
          "ticks": 245760,
          "time": 192,
          "velocity": 0.41732283464566927
        },
        {
          "duration": 0.0687499999999659,
          "durationTicks": 88,
          "midi": 59,
          "name": "B3",
          "ticks": 246240,
          "time": 192.375,
          "velocity": 0.4330708661417323
        },
        {
          "duration": 0.06953125000001137,
          "durationTicks": 89,
          "midi": 46,
          "name": "A#2",
          "ticks": 246600,
          "time": 192.65625,
          "velocity": 0.4015748031496063
        },
        {
          "duration": 0.0718750000000341,
          "durationTicks": 92,
          "midi": 59,
          "name": "B3",
          "ticks": 246720,
          "time": 192.75,
          "velocity": 0.4251968503937008
        },
        {
          "duration": 0.06953125000001137,
          "durationTicks": 89,
          "midi": 59,
          "name": "B3",
          "ticks": 247200,
          "time": 193.125,
          "velocity": 0.4251968503937008
        },
        {
          "duration": 0.07109374999998863,
          "durationTicks": 91,
          "midi": 55,
          "name": "G3",
          "ticks": 247560,
          "time": 193.40625,
          "velocity": 0.5118110236220472
        },
        {
          "duration": 0.0718750000000341,
          "durationTicks": 92,
          "midi": 59,
          "name": "B3",
          "ticks": 247680,
          "time": 193.5,
          "velocity": 0.3858267716535433
        },
        {
          "duration": 0.025000000000034106,
          "durationTicks": 32,
          "midi": 44,
          "name": "G#2",
          "ticks": 248160,
          "time": 193.875,
          "velocity": 0.4330708661417323
        },
        {
          "duration": 0.07109374999998863,
          "durationTicks": 91,
          "midi": 59,
          "name": "B3",
          "ticks": 248160,
          "time": 193.875,
          "velocity": 0.4251968503937008
        },
        {
          "duration": 0.025000000000034106,
          "durationTicks": 32,
          "midi": 44,
          "name": "G#2",
          "ticks": 248640,
          "time": 194.25,
          "velocity": 0.4330708661417323
        },
        {
          "duration": 0.07109374999998863,
          "durationTicks": 91,
          "midi": 59,
          "name": "B3",
          "ticks": 248640,
          "time": 194.25,
          "velocity": 0.4409448818897638
        },
        {
          "duration": 0.0234375,
          "durationTicks": 30,
          "midi": 44,
          "name": "G#2",
          "ticks": 249120,
          "time": 194.625,
          "velocity": 0.4330708661417323
        },
        {
          "duration": 0.06953125000001137,
          "durationTicks": 89,
          "midi": 59,
          "name": "B3",
          "ticks": 249120,
          "time": 194.625,
          "velocity": 0.4251968503937008
        },
        {
          "duration": 0.0234375,
          "durationTicks": 30,
          "midi": 44,
          "name": "G#2",
          "ticks": 249600,
          "time": 195,
          "velocity": 0.4330708661417323
        },
        {
          "duration": 0.07109374999998863,
          "durationTicks": 91,
          "midi": 59,
          "name": "B3",
          "ticks": 249600,
          "time": 195,
          "velocity": 0.4251968503937008
        },
        {
          "duration": 0.02265625000001137,
          "durationTicks": 29,
          "midi": 44,
          "name": "G#2",
          "ticks": 250080,
          "time": 195.375,
          "velocity": 0.4330708661417323
        },
        {
          "duration": 0.0718750000000341,
          "durationTicks": 92,
          "midi": 59,
          "name": "B3",
          "ticks": 250080,
          "time": 195.375,
          "velocity": 0.4251968503937008
        },
        {
          "duration": 0.02265625000001137,
          "durationTicks": 29,
          "midi": 44,
          "name": "G#2",
          "ticks": 250560,
          "time": 195.75,
          "velocity": 0.4330708661417323
        },
        {
          "duration": 0.07109374999998863,
          "durationTicks": 91,
          "midi": 59,
          "name": "B3",
          "ticks": 250560,
          "time": 195.75,
          "velocity": 0.41732283464566927
        },
        {
          "duration": 0.02265625000001137,
          "durationTicks": 29,
          "midi": 44,
          "name": "G#2",
          "ticks": 251040,
          "time": 196.125,
          "velocity": 0.4330708661417323
        },
        {
          "duration": 0.0718750000000341,
          "durationTicks": 92,
          "midi": 59,
          "name": "B3",
          "ticks": 251040,
          "time": 196.125,
          "velocity": 0.4094488188976378
        },
        {
          "duration": 0.021874999999965894,
          "durationTicks": 28,
          "midi": 44,
          "name": "G#2",
          "ticks": 251520,
          "time": 196.5,
          "velocity": 0.4330708661417323
        },
        {
          "duration": 0.07109374999998863,
          "durationTicks": 91,
          "midi": 59,
          "name": "B3",
          "ticks": 251520,
          "time": 196.5,
          "velocity": 0.4330708661417323
        },
        {
          "duration": 0.02265625000001137,
          "durationTicks": 29,
          "midi": 44,
          "name": "G#2",
          "ticks": 252000,
          "time": 196.875,
          "velocity": 0.4330708661417323
        },
        {
          "duration": 0.07109374999998863,
          "durationTicks": 91,
          "midi": 59,
          "name": "B3",
          "ticks": 252000,
          "time": 196.875,
          "velocity": 0.4251968503937008
        },
        {
          "duration": 0.025000000000034106,
          "durationTicks": 32,
          "midi": 44,
          "name": "G#2",
          "ticks": 252480,
          "time": 197.25,
          "velocity": 0.4330708661417323
        },
        {
          "duration": 0.07109374999998863,
          "durationTicks": 91,
          "midi": 59,
          "name": "B3",
          "ticks": 252480,
          "time": 197.25,
          "velocity": 0.4251968503937008
        },
        {
          "duration": 0.02265625000001137,
          "durationTicks": 29,
          "midi": 44,
          "name": "G#2",
          "ticks": 252960,
          "time": 197.625,
          "velocity": 0.4330708661417323
        },
        {
          "duration": 0.0703125,
          "durationTicks": 90,
          "midi": 59,
          "name": "B3",
          "ticks": 252960,
          "time": 197.625,
          "velocity": 0.4251968503937008
        },
        {
          "duration": 0.0234375,
          "durationTicks": 30,
          "midi": 44,
          "name": "G#2",
          "ticks": 253440,
          "time": 198,
          "velocity": 0.4330708661417323
        },
        {
          "duration": 0.07109374999998863,
          "durationTicks": 91,
          "midi": 59,
          "name": "B3",
          "ticks": 253440,
          "time": 198,
          "velocity": 0.4251968503937008
        },
        {
          "duration": 0.02265625000001137,
          "durationTicks": 29,
          "midi": 44,
          "name": "G#2",
          "ticks": 253920,
          "time": 198.375,
          "velocity": 0.4330708661417323
        },
        {
          "duration": 0.07265625000002274,
          "durationTicks": 93,
          "midi": 59,
          "name": "B3",
          "ticks": 253920,
          "time": 198.375,
          "velocity": 0.4330708661417323
        },
        {
          "duration": 0.0234375,
          "durationTicks": 30,
          "midi": 44,
          "name": "G#2",
          "ticks": 254400,
          "time": 198.75,
          "velocity": 0.4330708661417323
        },
        {
          "duration": 0.07109374999998863,
          "durationTicks": 91,
          "midi": 59,
          "name": "B3",
          "ticks": 254400,
          "time": 198.75,
          "velocity": 0.4251968503937008
        },
        {
          "duration": 0.0234375,
          "durationTicks": 30,
          "midi": 44,
          "name": "G#2",
          "ticks": 254880,
          "time": 199.125,
          "velocity": 0.4330708661417323
        },
        {
          "duration": 0.07109374999998863,
          "durationTicks": 91,
          "midi": 59,
          "name": "B3",
          "ticks": 254880,
          "time": 199.125,
          "velocity": 0.4251968503937008
        },
        {
          "duration": 0.02656250000001137,
          "durationTicks": 34,
          "midi": 44,
          "name": "G#2",
          "ticks": 255360,
          "time": 199.5,
          "velocity": 0.4330708661417323
        },
        {
          "duration": 0.07109374999998863,
          "durationTicks": 91,
          "midi": 59,
          "name": "B3",
          "ticks": 255360,
          "time": 199.5,
          "velocity": 0.41732283464566927
        },
        {
          "duration": 0.021874999999965894,
          "durationTicks": 28,
          "midi": 44,
          "name": "G#2",
          "ticks": 255840,
          "time": 199.875,
          "velocity": 0.4330708661417323
        },
        {
          "duration": 0.07421875,
          "durationTicks": 95,
          "midi": 59,
          "name": "B3",
          "ticks": 255840,
          "time": 199.875,
          "velocity": 0.4251968503937008
        },
        {
          "duration": 0.025000000000034106,
          "durationTicks": 32,
          "midi": 44,
          "name": "G#2",
          "ticks": 256320,
          "time": 200.25,
          "velocity": 0.4330708661417323
        },
        {
          "duration": 0.07109374999998863,
          "durationTicks": 91,
          "midi": 59,
          "name": "B3",
          "ticks": 256320,
          "time": 200.25,
          "velocity": 0.4015748031496063
        },
        {
          "duration": 0.02265625000001137,
          "durationTicks": 29,
          "midi": 44,
          "name": "G#2",
          "ticks": 256800,
          "time": 200.625,
          "velocity": 0.4330708661417323
        },
        {
          "duration": 0.07109374999998863,
          "durationTicks": 91,
          "midi": 59,
          "name": "B3",
          "ticks": 256800,
          "time": 200.625,
          "velocity": 0.4015748031496063
        },
        {
          "duration": 0.025000000000034106,
          "durationTicks": 32,
          "midi": 44,
          "name": "G#2",
          "ticks": 257280,
          "time": 201,
          "velocity": 0.4330708661417323
        },
        {
          "duration": 0.07109374999998863,
          "durationTicks": 91,
          "midi": 59,
          "name": "B3",
          "ticks": 257280,
          "time": 201,
          "velocity": 0.4251968503937008
        },
        {
          "duration": 0.0234375,
          "durationTicks": 30,
          "midi": 44,
          "name": "G#2",
          "ticks": 257760,
          "time": 201.375,
          "velocity": 0.4330708661417323
        },
        {
          "duration": 0.07265625000002274,
          "durationTicks": 93,
          "midi": 59,
          "name": "B3",
          "ticks": 257760,
          "time": 201.375,
          "velocity": 0.4566929133858268
        },
        {
          "duration": 0.025000000000034106,
          "durationTicks": 32,
          "midi": 44,
          "name": "G#2",
          "ticks": 258240,
          "time": 201.75,
          "velocity": 0.4330708661417323
        },
        {
          "duration": 0.07109374999998863,
          "durationTicks": 91,
          "midi": 59,
          "name": "B3",
          "ticks": 258240,
          "time": 201.75,
          "velocity": 0.4409448818897638
        },
        {
          "duration": 0.07109374999998863,
          "durationTicks": 91,
          "midi": 59,
          "name": "B3",
          "ticks": 258720,
          "time": 202.125,
          "velocity": 0.4251968503937008
        },
        {
          "duration": 0.06953125000001137,
          "durationTicks": 89,
          "midi": 40,
          "name": "E2",
          "ticks": 259080,
          "time": 202.40625,
          "velocity": 0.6535433070866141
        },
        {
          "duration": 0.0687499999999659,
          "durationTicks": 88,
          "midi": 46,
          "name": "A#2",
          "ticks": 259080,
          "time": 202.40625,
          "velocity": 0.47244094488188976
        },
        {
          "duration": 0.0718750000000341,
          "durationTicks": 92,
          "midi": 59,
          "name": "B3",
          "ticks": 259680,
          "time": 202.875,
          "velocity": 0.44881889763779526
        },
        {
          "duration": 0.0718750000000341,
          "durationTicks": 92,
          "midi": 59,
          "name": "B3",
          "ticks": 260160,
          "time": 203.25,
          "velocity": 0.44881889763779526
        },
        {
          "duration": 0.07109374999998863,
          "durationTicks": 91,
          "midi": 59,
          "name": "B3",
          "ticks": 260640,
          "time": 203.625,
          "velocity": 0.41732283464566927
        },
        {
          "duration": 0.07109374999998863,
          "durationTicks": 91,
          "midi": 35,
          "name": "B1",
          "ticks": 261000,
          "time": 203.90625,
          "velocity": 0.31496062992125984
        },
        {
          "duration": 0.0718750000000341,
          "durationTicks": 92,
          "midi": 35,
          "name": "B1",
          "ticks": 261120,
          "time": 204,
          "velocity": 0.5196850393700787
        },
        {
          "duration": 0.0718750000000341,
          "durationTicks": 92,
          "midi": 55,
          "name": "G3",
          "ticks": 261120,
          "time": 204,
          "velocity": 0.5826771653543307
        },
        {
          "duration": 0.0718750000000341,
          "durationTicks": 92,
          "midi": 59,
          "name": "B3",
          "ticks": 261120,
          "time": 204,
          "velocity": 0.5118110236220472
        },
        {
          "duration": 0.07265625000002274,
          "durationTicks": 93,
          "midi": 59,
          "name": "B3",
          "ticks": 261600,
          "time": 204.375,
          "velocity": 0.4251968503937008
        },
        {
          "duration": 0.07109374999998863,
          "durationTicks": 91,
          "midi": 59,
          "name": "B3",
          "ticks": 262080,
          "time": 204.75,
          "velocity": 0.4566929133858268
        },
        {
          "duration": 0.025000000000034106,
          "durationTicks": 32,
          "midi": 44,
          "name": "G#2",
          "ticks": 262560,
          "time": 205.125,
          "velocity": 0.4330708661417323
        },
        {
          "duration": 0.07109374999998863,
          "durationTicks": 91,
          "midi": 59,
          "name": "B3",
          "ticks": 262560,
          "time": 205.125,
          "velocity": 0.4566929133858268
        },
        {
          "duration": 0.021874999999965894,
          "durationTicks": 28,
          "midi": 44,
          "name": "G#2",
          "ticks": 263040,
          "time": 205.5,
          "velocity": 0.4330708661417323
        },
        {
          "duration": 0.07265625000002274,
          "durationTicks": 93,
          "midi": 59,
          "name": "B3",
          "ticks": 263040,
          "time": 205.5,
          "velocity": 0.47244094488188976
        },
        {
          "duration": 0.0718750000000341,
          "durationTicks": 92,
          "midi": 40,
          "name": "E2",
          "ticks": 263520,
          "time": 205.875,
          "velocity": 0.5196850393700787
        },
        {
          "duration": 0.07109374999998863,
          "durationTicks": 91,
          "midi": 59,
          "name": "B3",
          "ticks": 263520,
          "time": 205.875,
          "velocity": 0.5039370078740157
        },
        {
          "duration": 0.07109374999998863,
          "durationTicks": 91,
          "midi": 59,
          "name": "B3",
          "ticks": 264000,
          "time": 206.25,
          "velocity": 0.3858267716535433
        },
        {
          "duration": 0.07265625000002274,
          "durationTicks": 93,
          "midi": 35,
          "name": "B1",
          "ticks": 264360,
          "time": 206.53125,
          "velocity": 0.3858267716535433
        },
        {
          "duration": 0.0718750000000341,
          "durationTicks": 92,
          "midi": 59,
          "name": "B3",
          "ticks": 264360,
          "time": 206.53125,
          "velocity": 0.5196850393700787
        },
        {
          "duration": 0.07109374999998863,
          "durationTicks": 91,
          "midi": 40,
          "name": "E2",
          "ticks": 264840,
          "time": 206.90625,
          "velocity": 0.16535433070866143
        },
        {
          "duration": 0.07265625000002274,
          "durationTicks": 93,
          "midi": 35,
          "name": "B1",
          "ticks": 264960,
          "time": 207,
          "velocity": 0.4251968503937008
        },
        {
          "duration": 0.0718750000000341,
          "durationTicks": 92,
          "midi": 59,
          "name": "B3",
          "ticks": 264960,
          "time": 207,
          "velocity": 0.5196850393700787
        },
        {
          "duration": 0.021874999999965894,
          "durationTicks": 28,
          "midi": 44,
          "name": "G#2",
          "ticks": 265440,
          "time": 207.375,
          "velocity": 0.4330708661417323
        },
        {
          "duration": 0.0718750000000341,
          "durationTicks": 92,
          "midi": 59,
          "name": "B3",
          "ticks": 265440,
          "time": 207.375,
          "velocity": 0.4566929133858268
        },
        {
          "duration": 0.025000000000034106,
          "durationTicks": 32,
          "midi": 44,
          "name": "G#2",
          "ticks": 265920,
          "time": 207.75,
          "velocity": 0.4330708661417323
        },
        {
          "duration": 0.07109374999998863,
          "durationTicks": 91,
          "midi": 59,
          "name": "B3",
          "ticks": 265920,
          "time": 207.75,
          "velocity": 0.4330708661417323
        },
        {
          "duration": 0.025000000000034106,
          "durationTicks": 32,
          "midi": 44,
          "name": "G#2",
          "ticks": 266400,
          "time": 208.125,
          "velocity": 0.4330708661417323
        },
        {
          "duration": 0.07109374999998863,
          "durationTicks": 91,
          "midi": 59,
          "name": "B3",
          "ticks": 266400,
          "time": 208.125,
          "velocity": 0.48031496062992124
        },
        {
          "duration": 0.021874999999965894,
          "durationTicks": 28,
          "midi": 44,
          "name": "G#2",
          "ticks": 266880,
          "time": 208.5,
          "velocity": 0.4330708661417323
        },
        {
          "duration": 0.07265625000002274,
          "durationTicks": 93,
          "midi": 59,
          "name": "B3",
          "ticks": 266880,
          "time": 208.5,
          "velocity": 0.4645669291338583
        },
        {
          "duration": 0.025000000000034106,
          "durationTicks": 32,
          "midi": 44,
          "name": "G#2",
          "ticks": 267360,
          "time": 208.875,
          "velocity": 0.4330708661417323
        },
        {
          "duration": 0.07109374999998863,
          "durationTicks": 91,
          "midi": 59,
          "name": "B3",
          "ticks": 267360,
          "time": 208.875,
          "velocity": 0.47244094488188976
        },
        {
          "duration": 0.02265625000001137,
          "durationTicks": 29,
          "midi": 44,
          "name": "G#2",
          "ticks": 267840,
          "time": 209.25,
          "velocity": 0.4330708661417323
        },
        {
          "duration": 0.07109374999998863,
          "durationTicks": 91,
          "midi": 59,
          "name": "B3",
          "ticks": 267840,
          "time": 209.25,
          "velocity": 0.47244094488188976
        },
        {
          "duration": 0.025000000000034106,
          "durationTicks": 32,
          "midi": 44,
          "name": "G#2",
          "ticks": 268320,
          "time": 209.625,
          "velocity": 0.4330708661417323
        },
        {
          "duration": 0.0718750000000341,
          "durationTicks": 92,
          "midi": 59,
          "name": "B3",
          "ticks": 268320,
          "time": 209.625,
          "velocity": 0.48031496062992124
        },
        {
          "duration": 0.0234375,
          "durationTicks": 30,
          "midi": 44,
          "name": "G#2",
          "ticks": 268800,
          "time": 210,
          "velocity": 0.4330708661417323
        },
        {
          "duration": 0.0718750000000341,
          "durationTicks": 92,
          "midi": 59,
          "name": "B3",
          "ticks": 268800,
          "time": 210,
          "velocity": 0.49606299212598426
        },
        {
          "duration": 0.07109374999998863,
          "durationTicks": 91,
          "midi": 40,
          "name": "E2",
          "ticks": 269160,
          "time": 210.28125,
          "velocity": 0.44881889763779526
        },
        {
          "duration": 0.0718750000000341,
          "durationTicks": 92,
          "midi": 59,
          "name": "B3",
          "ticks": 269160,
          "time": 210.28125,
          "velocity": 0.5196850393700787
        },
        {
          "duration": 0.07109374999998863,
          "durationTicks": 91,
          "midi": 59,
          "name": "B3",
          "ticks": 269280,
          "time": 210.375,
          "velocity": 0.4094488188976378
        },
        {
          "duration": 0.07109374999998863,
          "durationTicks": 91,
          "midi": 40,
          "name": "E2",
          "ticks": 269640,
          "time": 210.65625,
          "velocity": 0.06299212598425197
        },
        {
          "duration": 0.0718750000000341,
          "durationTicks": 92,
          "midi": 59,
          "name": "B3",
          "ticks": 269760,
          "time": 210.75,
          "velocity": 0.5196850393700787
        },
        {
          "duration": 0.07109374999998863,
          "durationTicks": 91,
          "midi": 35,
          "name": "B1",
          "ticks": 270120,
          "time": 211.03125,
          "velocity": 0.3700787401574803
        },
        {
          "duration": 0.0718750000000341,
          "durationTicks": 92,
          "midi": 59,
          "name": "B3",
          "ticks": 270120,
          "time": 211.03125,
          "velocity": 0.5118110236220472
        },
        {
          "duration": 0.07265625000002274,
          "durationTicks": 93,
          "midi": 59,
          "name": "B3",
          "ticks": 270240,
          "time": 211.125,
          "velocity": 0.44881889763779526
        },
        {
          "duration": 0.0718750000000341,
          "durationTicks": 92,
          "midi": 40,
          "name": "E2",
          "ticks": 270360,
          "time": 211.21875,
          "velocity": 0.28346456692913385
        },
        {
          "duration": 0.0687499999999659,
          "durationTicks": 88,
          "midi": 35,
          "name": "B1",
          "ticks": 270480,
          "time": 211.3125,
          "velocity": 0.3464566929133858
        },
        {
          "duration": 0.07109374999998863,
          "durationTicks": 91,
          "midi": 35,
          "name": "B1",
          "ticks": 270720,
          "time": 211.5,
          "velocity": 0.5826771653543307
        },
        {
          "duration": 0.07109374999998863,
          "durationTicks": 91,
          "midi": 46,
          "name": "A#2",
          "ticks": 270720,
          "time": 211.5,
          "velocity": 0.4645669291338583
        },
        {
          "duration": 0.07109374999998863,
          "durationTicks": 91,
          "midi": 59,
          "name": "B3",
          "ticks": 271200,
          "time": 211.875,
          "velocity": 0.4881889763779528
        },
        {
          "duration": 0.07109374999998863,
          "durationTicks": 91,
          "midi": 40,
          "name": "E2",
          "ticks": 271560,
          "time": 212.15625,
          "velocity": 0.11023622047244094
        },
        {
          "duration": 0.0703125,
          "durationTicks": 90,
          "midi": 59,
          "name": "B3",
          "ticks": 271560,
          "time": 212.15625,
          "velocity": 0.47244094488188976
        },
        {
          "duration": 0.07109374999998863,
          "durationTicks": 91,
          "midi": 59,
          "name": "B3",
          "ticks": 271680,
          "time": 212.25,
          "velocity": 0.4330708661417323
        },
        {
          "duration": 0.07265625000002274,
          "durationTicks": 93,
          "midi": 35,
          "name": "B1",
          "ticks": 272040,
          "time": 212.53125,
          "velocity": 0.31496062992125984
        },
        {
          "duration": 0.07265625000002274,
          "durationTicks": 93,
          "midi": 40,
          "name": "E2",
          "ticks": 272160,
          "time": 212.625,
          "velocity": 0.4881889763779528
        },
        {
          "duration": 0.0718750000000341,
          "durationTicks": 92,
          "midi": 59,
          "name": "B3",
          "ticks": 272160,
          "time": 212.625,
          "velocity": 0.5669291338582677
        },
        {
          "duration": 0.07109374999998863,
          "durationTicks": 91,
          "midi": 40,
          "name": "E2",
          "ticks": 272520,
          "time": 212.90625,
          "velocity": 0.06299212598425197
        },
        {
          "duration": 0.021874999999965894,
          "durationTicks": 28,
          "midi": 44,
          "name": "G#2",
          "ticks": 272640,
          "time": 213,
          "velocity": 0.4330708661417323
        },
        {
          "duration": 0.07109374999998863,
          "durationTicks": 91,
          "midi": 59,
          "name": "B3",
          "ticks": 272640,
          "time": 213,
          "velocity": 0.5511811023622047
        },
        {
          "duration": 0.0687499999999659,
          "durationTicks": 88,
          "midi": 40,
          "name": "E2",
          "ticks": 273000,
          "time": 213.28125,
          "velocity": 0.2283464566929134
        },
        {
          "duration": 0.0718750000000341,
          "durationTicks": 92,
          "midi": 59,
          "name": "B3",
          "ticks": 273000,
          "time": 213.28125,
          "velocity": 0.49606299212598426
        },
        {
          "duration": 0.021874999999965894,
          "durationTicks": 28,
          "midi": 44,
          "name": "G#2",
          "ticks": 273120,
          "time": 213.375,
          "velocity": 0.4330708661417323
        },
        {
          "duration": 0.06953125000001137,
          "durationTicks": 89,
          "midi": 59,
          "name": "B3",
          "ticks": 273120,
          "time": 213.375,
          "velocity": 0.3858267716535433
        },
        {
          "duration": 0.07265625000002274,
          "durationTicks": 93,
          "midi": 40,
          "name": "E2",
          "ticks": 273480,
          "time": 213.65625,
          "velocity": 0.5354330708661418
        },
        {
          "duration": 0.0718750000000341,
          "durationTicks": 92,
          "midi": 59,
          "name": "B3",
          "ticks": 273480,
          "time": 213.65625,
          "velocity": 0.5196850393700787
        },
        {
          "duration": 0.07109374999998863,
          "durationTicks": 91,
          "midi": 59,
          "name": "B3",
          "ticks": 273600,
          "time": 213.75,
          "velocity": 0.4251968503937008
        },
        {
          "duration": 0.0718750000000341,
          "durationTicks": 92,
          "midi": 40,
          "name": "E2",
          "ticks": 273960,
          "time": 214.03125,
          "velocity": 0.06299212598425197
        },
        {
          "duration": 0.025000000000034106,
          "durationTicks": 32,
          "midi": 44,
          "name": "G#2",
          "ticks": 274080,
          "time": 214.125,
          "velocity": 0.4330708661417323
        },
        {
          "duration": 0.0718750000000341,
          "durationTicks": 92,
          "midi": 59,
          "name": "B3",
          "ticks": 274080,
          "time": 214.125,
          "velocity": 0.5196850393700787
        },
        {
          "duration": 0.07109374999998863,
          "durationTicks": 91,
          "midi": 59,
          "name": "B3",
          "ticks": 274440,
          "time": 214.40625,
          "velocity": 0.4566929133858268
        },
        {
          "duration": 0.025000000000034106,
          "durationTicks": 32,
          "midi": 44,
          "name": "G#2",
          "ticks": 274560,
          "time": 214.5,
          "velocity": 0.4330708661417323
        },
        {
          "duration": 0.07109374999998863,
          "durationTicks": 91,
          "midi": 59,
          "name": "B3",
          "ticks": 274560,
          "time": 214.5,
          "velocity": 0.4881889763779528
        },
        {
          "duration": 0.07109374999998863,
          "durationTicks": 91,
          "midi": 40,
          "name": "E2",
          "ticks": 274920,
          "time": 214.78125,
          "velocity": 0.11023622047244094
        },
        {
          "duration": 0.07109374999998863,
          "durationTicks": 91,
          "midi": 59,
          "name": "B3",
          "ticks": 275040,
          "time": 214.875,
          "velocity": 0.5196850393700787
        },
        {
          "duration": 0.07265625000002274,
          "durationTicks": 93,
          "midi": 40,
          "name": "E2",
          "ticks": 275400,
          "time": 215.15625,
          "velocity": 0.06299212598425197
        },
        {
          "duration": 0.025000000000034106,
          "durationTicks": 32,
          "midi": 44,
          "name": "G#2",
          "ticks": 275520,
          "time": 215.25,
          "velocity": 0.4330708661417323
        },
        {
          "duration": 0.07109374999998863,
          "durationTicks": 91,
          "midi": 59,
          "name": "B3",
          "ticks": 275520,
          "time": 215.25,
          "velocity": 0.49606299212598426
        },
        {
          "duration": 0.0718750000000341,
          "durationTicks": 92,
          "midi": 40,
          "name": "E2",
          "ticks": 275880,
          "time": 215.53125,
          "velocity": 0.2440944881889764
        },
        {
          "duration": 0.0718750000000341,
          "durationTicks": 92,
          "midi": 59,
          "name": "B3",
          "ticks": 275880,
          "time": 215.53125,
          "velocity": 0.4409448818897638
        },
        {
          "duration": 0.02421874999998863,
          "durationTicks": 31,
          "midi": 44,
          "name": "G#2",
          "ticks": 276000,
          "time": 215.625,
          "velocity": 0.4330708661417323
        },
        {
          "duration": 0.0718750000000341,
          "durationTicks": 92,
          "midi": 59,
          "name": "B3",
          "ticks": 276000,
          "time": 215.625,
          "velocity": 0.3937007874015748
        },
        {
          "duration": 0.07109374999998863,
          "durationTicks": 91,
          "midi": 40,
          "name": "E2",
          "ticks": 276360,
          "time": 215.90625,
          "velocity": 0.33070866141732286
        },
        {
          "duration": 0.0718750000000341,
          "durationTicks": 92,
          "midi": 59,
          "name": "B3",
          "ticks": 276360,
          "time": 215.90625,
          "velocity": 0.44881889763779526
        },
        {
          "duration": 0.07109374999998863,
          "durationTicks": 91,
          "midi": 59,
          "name": "B3",
          "ticks": 276480,
          "time": 216,
          "velocity": 0.4015748031496063
        },
        {
          "duration": 0.07109374999998863,
          "durationTicks": 91,
          "midi": 40,
          "name": "E2",
          "ticks": 276840,
          "time": 216.28125,
          "velocity": 0.06299212598425197
        },
        {
          "duration": 0.0234375,
          "durationTicks": 30,
          "midi": 44,
          "name": "G#2",
          "ticks": 276960,
          "time": 216.375,
          "velocity": 0.4330708661417323
        },
        {
          "duration": 0.07109374999998863,
          "durationTicks": 91,
          "midi": 59,
          "name": "B3",
          "ticks": 276960,
          "time": 216.375,
          "velocity": 0.5118110236220472
        },
        {
          "duration": 0.0687499999999659,
          "durationTicks": 88,
          "midi": 40,
          "name": "E2",
          "ticks": 277320,
          "time": 216.65625,
          "velocity": 0.2283464566929134
        },
        {
          "duration": 0.0718750000000341,
          "durationTicks": 92,
          "midi": 59,
          "name": "B3",
          "ticks": 277320,
          "time": 216.65625,
          "velocity": 0.4881889763779528
        },
        {
          "duration": 0.02265625000001137,
          "durationTicks": 29,
          "midi": 44,
          "name": "G#2",
          "ticks": 277440,
          "time": 216.75,
          "velocity": 0.4330708661417323
        },
        {
          "duration": 0.07109374999998863,
          "durationTicks": 91,
          "midi": 59,
          "name": "B3",
          "ticks": 277440,
          "time": 216.75,
          "velocity": 0.47244094488188976
        },
        {
          "duration": 0.0718750000000341,
          "durationTicks": 92,
          "midi": 40,
          "name": "E2",
          "ticks": 277800,
          "time": 217.03125,
          "velocity": 0.06299212598425197
        },
        {
          "duration": 0.07109374999998863,
          "durationTicks": 91,
          "midi": 59,
          "name": "B3",
          "ticks": 277920,
          "time": 217.125,
          "velocity": 0.5196850393700787
        },
        {
          "duration": 0.07109374999998863,
          "durationTicks": 91,
          "midi": 40,
          "name": "E2",
          "ticks": 278280,
          "time": 217.40625,
          "velocity": 0.06299212598425197
        },
        {
          "duration": 0.02421874999998863,
          "durationTicks": 31,
          "midi": 44,
          "name": "G#2",
          "ticks": 278400,
          "time": 217.5,
          "velocity": 0.4330708661417323
        },
        {
          "duration": 0.07265625000002274,
          "durationTicks": 93,
          "midi": 59,
          "name": "B3",
          "ticks": 278400,
          "time": 217.5,
          "velocity": 0.5118110236220472
        },
        {
          "duration": 0.0687499999999659,
          "durationTicks": 88,
          "midi": 40,
          "name": "E2",
          "ticks": 278760,
          "time": 217.78125,
          "velocity": 0.28346456692913385
        },
        {
          "duration": 0.0718750000000341,
          "durationTicks": 92,
          "midi": 59,
          "name": "B3",
          "ticks": 278760,
          "time": 217.78125,
          "velocity": 0.4881889763779528
        },
        {
          "duration": 0.025000000000034106,
          "durationTicks": 32,
          "midi": 44,
          "name": "G#2",
          "ticks": 278880,
          "time": 217.875,
          "velocity": 0.4330708661417323
        },
        {
          "duration": 0.07265625000002274,
          "durationTicks": 93,
          "midi": 59,
          "name": "B3",
          "ticks": 278880,
          "time": 217.875,
          "velocity": 0.44881889763779526
        },
        {
          "duration": 0.0718750000000341,
          "durationTicks": 92,
          "midi": 59,
          "name": "B3",
          "ticks": 279360,
          "time": 218.25,
          "velocity": 0.5118110236220472
        },
        {
          "duration": 0.025000000000034106,
          "durationTicks": 32,
          "midi": 44,
          "name": "G#2",
          "ticks": 279840,
          "time": 218.625,
          "velocity": 0.4330708661417323
        },
        {
          "duration": 0.07265625000002274,
          "durationTicks": 93,
          "midi": 59,
          "name": "B3",
          "ticks": 279840,
          "time": 218.625,
          "velocity": 0.5118110236220472
        },
        {
          "duration": 0.07265625000002274,
          "durationTicks": 93,
          "midi": 40,
          "name": "E2",
          "ticks": 280200,
          "time": 218.90625,
          "velocity": 0.2283464566929134
        },
        {
          "duration": 0.0718750000000341,
          "durationTicks": 92,
          "midi": 59,
          "name": "B3",
          "ticks": 280200,
          "time": 218.90625,
          "velocity": 0.5118110236220472
        },
        {
          "duration": 0.02265625000001137,
          "durationTicks": 29,
          "midi": 44,
          "name": "G#2",
          "ticks": 280320,
          "time": 219,
          "velocity": 0.4330708661417323
        },
        {
          "duration": 0.0718750000000341,
          "durationTicks": 92,
          "midi": 59,
          "name": "B3",
          "ticks": 280320,
          "time": 219,
          "velocity": 0.4566929133858268
        },
        {
          "duration": 0.07109374999998863,
          "durationTicks": 91,
          "midi": 40,
          "name": "E2",
          "ticks": 280680,
          "time": 219.28125,
          "velocity": 0.06299212598425197
        },
        {
          "duration": 0.0718750000000341,
          "durationTicks": 92,
          "midi": 59,
          "name": "B3",
          "ticks": 280800,
          "time": 219.375,
          "velocity": 0.5433070866141733
        },
        {
          "duration": 0.07265625000002274,
          "durationTicks": 93,
          "midi": 40,
          "name": "E2",
          "ticks": 281160,
          "time": 219.65625,
          "velocity": 0.06299212598425197
        },
        {
          "duration": 0.0234375,
          "durationTicks": 30,
          "midi": 44,
          "name": "G#2",
          "ticks": 281280,
          "time": 219.75,
          "velocity": 0.4330708661417323
        },
        {
          "duration": 0.07109374999998863,
          "durationTicks": 91,
          "midi": 59,
          "name": "B3",
          "ticks": 281280,
          "time": 219.75,
          "velocity": 0.5039370078740157
        },
        {
          "duration": 0.07109374999998863,
          "durationTicks": 91,
          "midi": 40,
          "name": "E2",
          "ticks": 281640,
          "time": 220.03125,
          "velocity": 0.41732283464566927
        },
        {
          "duration": 0.0718750000000341,
          "durationTicks": 92,
          "midi": 59,
          "name": "B3",
          "ticks": 281640,
          "time": 220.03125,
          "velocity": 0.49606299212598426
        },
        {
          "duration": 0.0718750000000341,
          "durationTicks": 92,
          "midi": 59,
          "name": "B3",
          "ticks": 281760,
          "time": 220.125,
          "velocity": 0.4330708661417323
        },
        {
          "duration": 0.0718750000000341,
          "durationTicks": 92,
          "midi": 40,
          "name": "E2",
          "ticks": 282000,
          "time": 220.3125,
          "velocity": 0.06299212598425197
        },
        {
          "duration": 0.07109374999998863,
          "durationTicks": 91,
          "midi": 40,
          "name": "E2",
          "ticks": 282120,
          "time": 220.40625,
          "velocity": 0.33070866141732286
        },
        {
          "duration": 0.0718750000000341,
          "durationTicks": 92,
          "midi": 59,
          "name": "B3",
          "ticks": 282240,
          "time": 220.5,
          "velocity": 0.41732283464566927
        },
        {
          "duration": 0.07109374999998863,
          "durationTicks": 91,
          "midi": 40,
          "name": "E2",
          "ticks": 282360,
          "time": 220.59375,
          "velocity": 0.06299212598425197
        },
        {
          "duration": 0.0718750000000341,
          "durationTicks": 92,
          "midi": 35,
          "name": "B1",
          "ticks": 282600,
          "time": 220.78125,
          "velocity": 0.31496062992125984
        },
        {
          "duration": 0.07109374999998863,
          "durationTicks": 91,
          "midi": 59,
          "name": "B3",
          "ticks": 282600,
          "time": 220.78125,
          "velocity": 0.4566929133858268
        },
        {
          "duration": 0.06953125000001137,
          "durationTicks": 89,
          "midi": 35,
          "name": "B1",
          "ticks": 282720,
          "time": 220.875,
          "velocity": 0.3858267716535433
        },
        {
          "duration": 0.0718750000000341,
          "durationTicks": 92,
          "midi": 59,
          "name": "B3",
          "ticks": 282720,
          "time": 220.875,
          "velocity": 0.5196850393700787
        },
        {
          "duration": 0.07265625000002274,
          "durationTicks": 93,
          "midi": 40,
          "name": "E2",
          "ticks": 283080,
          "time": 221.15625,
          "velocity": 0.2125984251968504
        },
        {
          "duration": 0.07109374999998863,
          "durationTicks": 91,
          "midi": 59,
          "name": "B3",
          "ticks": 283200,
          "time": 221.25,
          "velocity": 0.4881889763779528
        },
        {
          "duration": 0.07109374999998863,
          "durationTicks": 91,
          "midi": 59,
          "name": "B3",
          "ticks": 283680,
          "time": 221.625,
          "velocity": 0.5354330708661418
        },
        {
          "duration": 0.0234375,
          "durationTicks": 30,
          "midi": 44,
          "name": "G#2",
          "ticks": 284160,
          "time": 222,
          "velocity": 0.4330708661417323
        },
        {
          "duration": 0.07109374999998863,
          "durationTicks": 91,
          "midi": 59,
          "name": "B3",
          "ticks": 284160,
          "time": 222,
          "velocity": 0.49606299212598426
        },
        {
          "duration": 0.0718750000000341,
          "durationTicks": 92,
          "midi": 40,
          "name": "E2",
          "ticks": 284520,
          "time": 222.28125,
          "velocity": 0.1968503937007874
        },
        {
          "duration": 0.07109374999998863,
          "durationTicks": 91,
          "midi": 59,
          "name": "B3",
          "ticks": 284520,
          "time": 222.28125,
          "velocity": 0.5118110236220472
        },
        {
          "duration": 0.07109374999998863,
          "durationTicks": 91,
          "midi": 40,
          "name": "E2",
          "ticks": 285000,
          "time": 222.65625,
          "velocity": 0.5354330708661418
        },
        {
          "duration": 0.0703125,
          "durationTicks": 90,
          "midi": 59,
          "name": "B3",
          "ticks": 285000,
          "time": 222.65625,
          "velocity": 0.5748031496062992
        },
        {
          "duration": 0.0718750000000341,
          "durationTicks": 92,
          "midi": 40,
          "name": "E2",
          "ticks": 285480,
          "time": 223.03125,
          "velocity": 0.06299212598425197
        },
        {
          "duration": 0.02421874999998863,
          "durationTicks": 31,
          "midi": 44,
          "name": "G#2",
          "ticks": 285600,
          "time": 223.125,
          "velocity": 0.4330708661417323
        },
        {
          "duration": 0.07109374999998863,
          "durationTicks": 91,
          "midi": 59,
          "name": "B3",
          "ticks": 285600,
          "time": 223.125,
          "velocity": 0.49606299212598426
        },
        {
          "duration": 0.07265625000002274,
          "durationTicks": 93,
          "midi": 40,
          "name": "E2",
          "ticks": 285960,
          "time": 223.40625,
          "velocity": 0.25984251968503935
        },
        {
          "duration": 0.0703125,
          "durationTicks": 90,
          "midi": 59,
          "name": "B3",
          "ticks": 285960,
          "time": 223.40625,
          "velocity": 0.49606299212598426
        },
        {
          "duration": 0.02265625000001137,
          "durationTicks": 29,
          "midi": 44,
          "name": "G#2",
          "ticks": 286080,
          "time": 223.5,
          "velocity": 0.4330708661417323
        },
        {
          "duration": 0.0718750000000341,
          "durationTicks": 92,
          "midi": 59,
          "name": "B3",
          "ticks": 286080,
          "time": 223.5,
          "velocity": 0.4566929133858268
        },
        {
          "duration": 0.0718750000000341,
          "durationTicks": 92,
          "midi": 40,
          "name": "E2",
          "ticks": 286440,
          "time": 223.78125,
          "velocity": 0.07874015748031496
        },
        {
          "duration": 0.07109374999998863,
          "durationTicks": 91,
          "midi": 59,
          "name": "B3",
          "ticks": 286560,
          "time": 223.875,
          "velocity": 0.5196850393700787
        },
        {
          "duration": 0.07265625000002274,
          "durationTicks": 93,
          "midi": 40,
          "name": "E2",
          "ticks": 286920,
          "time": 224.15625,
          "velocity": 0.06299212598425197
        },
        {
          "duration": 0.0234375,
          "durationTicks": 30,
          "midi": 44,
          "name": "G#2",
          "ticks": 287040,
          "time": 224.25,
          "velocity": 0.4330708661417323
        },
        {
          "duration": 0.07109374999998863,
          "durationTicks": 91,
          "midi": 59,
          "name": "B3",
          "ticks": 287040,
          "time": 224.25,
          "velocity": 0.5118110236220472
        },
        {
          "duration": 0.0718750000000341,
          "durationTicks": 92,
          "midi": 40,
          "name": "E2",
          "ticks": 287400,
          "time": 224.53125,
          "velocity": 0.33070866141732286
        },
        {
          "duration": 0.07265625000002274,
          "durationTicks": 93,
          "midi": 59,
          "name": "B3",
          "ticks": 287400,
          "time": 224.53125,
          "velocity": 0.5039370078740157
        },
        {
          "duration": 0.02265625000001137,
          "durationTicks": 29,
          "midi": 44,
          "name": "G#2",
          "ticks": 287520,
          "time": 224.625,
          "velocity": 0.4330708661417323
        },
        {
          "duration": 0.0718750000000341,
          "durationTicks": 92,
          "midi": 59,
          "name": "B3",
          "ticks": 287520,
          "time": 224.625,
          "velocity": 0.44881889763779526
        },
        {
          "duration": 0.07109374999998863,
          "durationTicks": 91,
          "midi": 40,
          "name": "E2",
          "ticks": 287880,
          "time": 224.90625,
          "velocity": 0.06299212598425197
        },
        {
          "duration": 0.07109374999998863,
          "durationTicks": 91,
          "midi": 59,
          "name": "B3",
          "ticks": 288000,
          "time": 225,
          "velocity": 0.5275590551181102
        },
        {
          "duration": 0.07109374999998863,
          "durationTicks": 91,
          "midi": 40,
          "name": "E2",
          "ticks": 288360,
          "time": 225.28125,
          "velocity": 0.06299212598425197
        },
        {
          "duration": 0.025000000000034106,
          "durationTicks": 32,
          "midi": 44,
          "name": "G#2",
          "ticks": 288480,
          "time": 225.375,
          "velocity": 0.4330708661417323
        },
        {
          "duration": 0.07109374999998863,
          "durationTicks": 91,
          "midi": 59,
          "name": "B3",
          "ticks": 288480,
          "time": 225.375,
          "velocity": 0.49606299212598426
        },
        {
          "duration": 0.07109374999998863,
          "durationTicks": 91,
          "midi": 40,
          "name": "E2",
          "ticks": 288840,
          "time": 225.65625,
          "velocity": 0.2992125984251969
        },
        {
          "duration": 0.07109374999998863,
          "durationTicks": 91,
          "midi": 59,
          "name": "B3",
          "ticks": 288840,
          "time": 225.65625,
          "velocity": 0.5118110236220472
        },
        {
          "duration": 0.02265625000001137,
          "durationTicks": 29,
          "midi": 44,
          "name": "G#2",
          "ticks": 288960,
          "time": 225.75,
          "velocity": 0.4330708661417323
        },
        {
          "duration": 0.0718750000000341,
          "durationTicks": 92,
          "midi": 59,
          "name": "B3",
          "ticks": 288960,
          "time": 225.75,
          "velocity": 0.4409448818897638
        },
        {
          "duration": 0.07109374999998863,
          "durationTicks": 91,
          "midi": 40,
          "name": "E2",
          "ticks": 289320,
          "time": 226.03125,
          "velocity": 0.14173228346456693
        },
        {
          "duration": 0.0718750000000341,
          "durationTicks": 92,
          "midi": 59,
          "name": "B3",
          "ticks": 289440,
          "time": 226.125,
          "velocity": 0.49606299212598426
        },
        {
          "duration": 0.06953125000001137,
          "durationTicks": 89,
          "midi": 40,
          "name": "E2",
          "ticks": 289800,
          "time": 226.40625,
          "velocity": 0.16535433070866143
        },
        {
          "duration": 0.06953125000001137,
          "durationTicks": 89,
          "midi": 59,
          "name": "B3",
          "ticks": 289800,
          "time": 226.40625,
          "velocity": 0.5118110236220472
        },
        {
          "duration": 0.07109374999998863,
          "durationTicks": 91,
          "midi": 59,
          "name": "B3",
          "ticks": 289920,
          "time": 226.5,
          "velocity": 0.4566929133858268
        },
        {
          "duration": 0.0718750000000341,
          "durationTicks": 92,
          "midi": 40,
          "name": "E2",
          "ticks": 290280,
          "time": 226.78125,
          "velocity": 0.2283464566929134
        },
        {
          "duration": 0.07109374999998863,
          "durationTicks": 91,
          "midi": 59,
          "name": "B3",
          "ticks": 290280,
          "time": 226.78125,
          "velocity": 0.48031496062992124
        },
        {
          "duration": 0.07109374999998863,
          "durationTicks": 91,
          "midi": 59,
          "name": "B3",
          "ticks": 290400,
          "time": 226.875,
          "velocity": 0.44881889763779526
        },
        {
          "duration": 0.07265625000002274,
          "durationTicks": 93,
          "midi": 40,
          "name": "E2",
          "ticks": 290760,
          "time": 227.15625,
          "velocity": 0.11023622047244094
        },
        {
          "duration": 0.07109374999998863,
          "durationTicks": 91,
          "midi": 59,
          "name": "B3",
          "ticks": 290880,
          "time": 227.25,
          "velocity": 0.49606299212598426
        },
        {
          "duration": 0.07109374999998863,
          "durationTicks": 91,
          "midi": 40,
          "name": "E2",
          "ticks": 291240,
          "time": 227.53125,
          "velocity": 0.2992125984251969
        },
        {
          "duration": 0.0718750000000341,
          "durationTicks": 92,
          "midi": 59,
          "name": "B3",
          "ticks": 291240,
          "time": 227.53125,
          "velocity": 0.48031496062992124
        },
        {
          "duration": 0.07265625000002274,
          "durationTicks": 93,
          "midi": 59,
          "name": "B3",
          "ticks": 291360,
          "time": 227.625,
          "velocity": 0.4251968503937008
        },
        {
          "duration": 0.0718750000000341,
          "durationTicks": 92,
          "midi": 35,
          "name": "B1",
          "ticks": 291720,
          "time": 227.90625,
          "velocity": 0.31496062992125984
        },
        {
          "duration": 0.06953125000001137,
          "durationTicks": 89,
          "midi": 40,
          "name": "E2",
          "ticks": 291840,
          "time": 228,
          "velocity": 0.44881889763779526
        },
        {
          "duration": 0.07109374999998863,
          "durationTicks": 91,
          "midi": 59,
          "name": "B3",
          "ticks": 291840,
          "time": 228,
          "velocity": 0.5118110236220472
        },
        {
          "duration": 0.0703125,
          "durationTicks": 90,
          "midi": 40,
          "name": "E2",
          "ticks": 291960,
          "time": 228.09375,
          "velocity": 0.25984251968503935
        },
        {
          "duration": 0.07109374999998863,
          "durationTicks": 91,
          "midi": 35,
          "name": "B1",
          "ticks": 292200,
          "time": 228.28125,
          "velocity": 0.3543307086614173
        },
        {
          "duration": 0.07109374999998863,
          "durationTicks": 91,
          "midi": 59,
          "name": "B3",
          "ticks": 292200,
          "time": 228.28125,
          "velocity": 0.5275590551181102
        },
        {
          "duration": 0.06953125000001137,
          "durationTicks": 89,
          "midi": 40,
          "name": "E2",
          "ticks": 292320,
          "time": 228.375,
          "velocity": 0.06299212598425197
        },
        {
          "duration": 0.07109374999998863,
          "durationTicks": 91,
          "midi": 40,
          "name": "E2",
          "ticks": 292440,
          "time": 228.46875,
          "velocity": 0.15748031496062992
        },
        {
          "duration": 0.07265625000002274,
          "durationTicks": 93,
          "midi": 35,
          "name": "B1",
          "ticks": 292680,
          "time": 228.65625,
          "velocity": 0.41732283464566927
        },
        {
          "duration": 0.07265625000002274,
          "durationTicks": 93,
          "midi": 59,
          "name": "B3",
          "ticks": 292680,
          "time": 228.65625,
          "velocity": 0.4881889763779528
        },
        {
          "duration": 0.07109374999998863,
          "durationTicks": 91,
          "midi": 40,
          "name": "E2",
          "ticks": 292800,
          "time": 228.75,
          "velocity": 0.06299212598425197
        },
        {
          "duration": 0.07109374999998863,
          "durationTicks": 91,
          "midi": 40,
          "name": "E2",
          "ticks": 292920,
          "time": 228.84375,
          "velocity": 0.16535433070866143
        },
        {
          "duration": 0.0718750000000341,
          "durationTicks": 92,
          "midi": 35,
          "name": "B1",
          "ticks": 293160,
          "time": 229.03125,
          "velocity": 0.5039370078740157
        },
        {
          "duration": 0.07109374999998863,
          "durationTicks": 91,
          "midi": 46,
          "name": "A#2",
          "ticks": 293160,
          "time": 229.03125,
          "velocity": 0.4094488188976378
        },
        {
          "duration": 0.0718750000000341,
          "durationTicks": 92,
          "midi": 40,
          "name": "E2",
          "ticks": 293280,
          "time": 229.125,
          "velocity": 0.06299212598425197
        },
        {
          "duration": 0.07265625000002274,
          "durationTicks": 93,
          "midi": 40,
          "name": "E2",
          "ticks": 293400,
          "time": 229.21875,
          "velocity": 0.2677165354330709
        },
        {
          "duration": 0.0718750000000341,
          "durationTicks": 92,
          "midi": 35,
          "name": "B1",
          "ticks": 293640,
          "time": 229.40625,
          "velocity": 0.3543307086614173
        },
        {
          "duration": 0.07109374999998863,
          "durationTicks": 91,
          "midi": 35,
          "name": "B1",
          "ticks": 293760,
          "time": 229.5,
          "velocity": 0.6141732283464567
        },
        {
          "duration": 0.0687499999999659,
          "durationTicks": 88,
          "midi": 55,
          "name": "G3",
          "ticks": 293760,
          "time": 229.5,
          "velocity": 0.4645669291338583
        },
        {
          "duration": 0.07109374999998863,
          "durationTicks": 91,
          "midi": 40,
          "name": "E2",
          "ticks": 293880,
          "time": 229.59375,
          "velocity": 0.09448818897637795
        },
        {
          "duration": 0.0718750000000341,
          "durationTicks": 92,
          "midi": 40,
          "name": "E2",
          "ticks": 294120,
          "time": 229.78125,
          "velocity": 0.36220472440944884
        },
        {
          "duration": 0.07109374999998863,
          "durationTicks": 91,
          "midi": 59,
          "name": "B3",
          "ticks": 294240,
          "time": 229.875,
          "velocity": 0.44881889763779526
        },
        {
          "duration": 0.0687499999999659,
          "durationTicks": 88,
          "midi": 40,
          "name": "E2",
          "ticks": 294360,
          "time": 229.96875,
          "velocity": 0.2677165354330709
        },
        {
          "duration": 0.0718750000000341,
          "durationTicks": 92,
          "midi": 35,
          "name": "B1",
          "ticks": 294600,
          "time": 230.15625,
          "velocity": 0.6614173228346457
        },
        {
          "duration": 0.0718750000000341,
          "durationTicks": 92,
          "midi": 46,
          "name": "A#2",
          "ticks": 294600,
          "time": 230.15625,
          "velocity": 0.41732283464566927
        },
        {
          "duration": 0.07109374999998863,
          "durationTicks": 91,
          "midi": 40,
          "name": "E2",
          "ticks": 294720,
          "time": 230.25,
          "velocity": 0.06299212598425197
        },
        {
          "duration": 0.07109374999998863,
          "durationTicks": 91,
          "midi": 40,
          "name": "E2",
          "ticks": 294960,
          "time": 230.4375,
          "velocity": 0.14173228346456693
        },
        {
          "duration": 0.07109374999998863,
          "durationTicks": 91,
          "midi": 35,
          "name": "B1",
          "ticks": 295080,
          "time": 230.53125,
          "velocity": 0.4330708661417323
        },
        {
          "duration": 0.0718750000000341,
          "durationTicks": 92,
          "midi": 46,
          "name": "A#2",
          "ticks": 295200,
          "time": 230.625,
          "velocity": 0.28346456692913385
        },
        {
          "duration": 0.0718750000000341,
          "durationTicks": 92,
          "midi": 40,
          "name": "E2",
          "ticks": 295320,
          "time": 230.71875,
          "velocity": 0.3779527559055118
        },
        {
          "duration": 0.07109374999998863,
          "durationTicks": 91,
          "midi": 35,
          "name": "B1",
          "ticks": 295560,
          "time": 230.90625,
          "velocity": 0.3228346456692913
        },
        {
          "duration": 0.0718750000000341,
          "durationTicks": 92,
          "midi": 35,
          "name": "B1",
          "ticks": 295680,
          "time": 231,
          "velocity": 0.7716535433070866
        },
        {
          "duration": 0.07109374999998863,
          "durationTicks": 91,
          "midi": 55,
          "name": "G3",
          "ticks": 295680,
          "time": 231,
          "velocity": 0.7401574803149606
        },
        {
          "duration": 0.07109374999998863,
          "durationTicks": 91,
          "midi": 59,
          "name": "B3",
          "ticks": 296160,
          "time": 231.375,
          "velocity": 0.4015748031496063
        },
        {
          "duration": 0.07265625000002274,
          "durationTicks": 93,
          "midi": 40,
          "name": "E2",
          "ticks": 296520,
          "time": 231.65625,
          "velocity": 0.6535433070866141
        },
        {
          "duration": 0.07265625000002274,
          "durationTicks": 93,
          "midi": 59,
          "name": "B3",
          "ticks": 296520,
          "time": 231.65625,
          "velocity": 0.5669291338582677
        },
        {
          "duration": 0.0718750000000341,
          "durationTicks": 92,
          "midi": 40,
          "name": "E2",
          "ticks": 297000,
          "time": 232.03125,
          "velocity": 0.06299212598425197
        },
        {
          "duration": 0.02265625000001137,
          "durationTicks": 29,
          "midi": 44,
          "name": "G#2",
          "ticks": 297120,
          "time": 232.125,
          "velocity": 0.4330708661417323
        },
        {
          "duration": 0.0718750000000341,
          "durationTicks": 92,
          "midi": 59,
          "name": "B3",
          "ticks": 297120,
          "time": 232.125,
          "velocity": 0.4566929133858268
        },
        {
          "duration": 0.07109374999998863,
          "durationTicks": 91,
          "midi": 40,
          "name": "E2",
          "ticks": 297480,
          "time": 232.40625,
          "velocity": 0.2283464566929134
        },
        {
          "duration": 0.0718750000000341,
          "durationTicks": 92,
          "midi": 59,
          "name": "B3",
          "ticks": 297480,
          "time": 232.40625,
          "velocity": 0.4566929133858268
        },
        {
          "duration": 0.025000000000034106,
          "durationTicks": 32,
          "midi": 44,
          "name": "G#2",
          "ticks": 297600,
          "time": 232.5,
          "velocity": 0.4330708661417323
        },
        {
          "duration": 0.07109374999998863,
          "durationTicks": 91,
          "midi": 59,
          "name": "B3",
          "ticks": 297600,
          "time": 232.5,
          "velocity": 0.44881889763779526
        },
        {
          "duration": 0.0718750000000341,
          "durationTicks": 92,
          "midi": 40,
          "name": "E2",
          "ticks": 297960,
          "time": 232.78125,
          "velocity": 0.11023622047244094
        },
        {
          "duration": 0.07109374999998863,
          "durationTicks": 91,
          "midi": 59,
          "name": "B3",
          "ticks": 298080,
          "time": 232.875,
          "velocity": 0.5590551181102362
        },
        {
          "duration": 0.0687499999999659,
          "durationTicks": 88,
          "midi": 40,
          "name": "E2",
          "ticks": 298440,
          "time": 233.15625,
          "velocity": 0.06299212598425197
        },
        {
          "duration": 0.021874999999965894,
          "durationTicks": 28,
          "midi": 44,
          "name": "G#2",
          "ticks": 298560,
          "time": 233.25,
          "velocity": 0.4330708661417323
        },
        {
          "duration": 0.0703125,
          "durationTicks": 90,
          "midi": 59,
          "name": "B3",
          "ticks": 298560,
          "time": 233.25,
          "velocity": 0.48031496062992124
        },
        {
          "duration": 0.07109374999998863,
          "durationTicks": 91,
          "midi": 40,
          "name": "E2",
          "ticks": 298920,
          "time": 233.53125,
          "velocity": 0.41732283464566927
        },
        {
          "duration": 0.0718750000000341,
          "durationTicks": 92,
          "midi": 59,
          "name": "B3",
          "ticks": 298920,
          "time": 233.53125,
          "velocity": 0.48031496062992124
        },
        {
          "duration": 0.0718750000000341,
          "durationTicks": 92,
          "midi": 59,
          "name": "B3",
          "ticks": 299040,
          "time": 233.625,
          "velocity": 0.4881889763779528
        },
        {
          "duration": 0.07265625000002274,
          "durationTicks": 93,
          "midi": 46,
          "name": "A#2",
          "ticks": 299400,
          "time": 233.90625,
          "velocity": 0.4094488188976378
        },
        {
          "duration": 0.07109374999998863,
          "durationTicks": 91,
          "midi": 59,
          "name": "B3",
          "ticks": 299520,
          "time": 234,
          "velocity": 0.5118110236220472
        },
        {
          "duration": 0.02421874999998863,
          "durationTicks": 31,
          "midi": 44,
          "name": "G#2",
          "ticks": 300000,
          "time": 234.375,
          "velocity": 0.4330708661417323
        },
        {
          "duration": 0.07109374999998863,
          "durationTicks": 91,
          "midi": 59,
          "name": "B3",
          "ticks": 300000,
          "time": 234.375,
          "velocity": 0.5039370078740157
        },
        {
          "duration": 0.07109374999998863,
          "durationTicks": 91,
          "midi": 40,
          "name": "E2",
          "ticks": 300360,
          "time": 234.65625,
          "velocity": 0.44881889763779526
        },
        {
          "duration": 0.07109374999998863,
          "durationTicks": 91,
          "midi": 59,
          "name": "B3",
          "ticks": 300360,
          "time": 234.65625,
          "velocity": 0.47244094488188976
        },
        {
          "duration": 0.07109374999998863,
          "durationTicks": 91,
          "midi": 59,
          "name": "B3",
          "ticks": 300480,
          "time": 234.75,
          "velocity": 0.44881889763779526
        },
        {
          "duration": 0.07109374999998863,
          "durationTicks": 91,
          "midi": 40,
          "name": "E2",
          "ticks": 300840,
          "time": 235.03125,
          "velocity": 0.07874015748031496
        },
        {
          "duration": 0.07109374999998863,
          "durationTicks": 91,
          "midi": 59,
          "name": "B3",
          "ticks": 300960,
          "time": 235.125,
          "velocity": 0.5511811023622047
        },
        {
          "duration": 0.07109374999998863,
          "durationTicks": 91,
          "midi": 40,
          "name": "E2",
          "ticks": 301320,
          "time": 235.40625,
          "velocity": 0.11023622047244094
        },
        {
          "duration": 0.02421874999998863,
          "durationTicks": 31,
          "midi": 44,
          "name": "G#2",
          "ticks": 301440,
          "time": 235.5,
          "velocity": 0.4330708661417323
        },
        {
          "duration": 0.06953125000001137,
          "durationTicks": 89,
          "midi": 59,
          "name": "B3",
          "ticks": 301440,
          "time": 235.5,
          "velocity": 0.5196850393700787
        },
        {
          "duration": 0.07265625000002274,
          "durationTicks": 93,
          "midi": 40,
          "name": "E2",
          "ticks": 301800,
          "time": 235.78125,
          "velocity": 0.3858267716535433
        },
        {
          "duration": 0.0718750000000341,
          "durationTicks": 92,
          "midi": 59,
          "name": "B3",
          "ticks": 301800,
          "time": 235.78125,
          "velocity": 0.49606299212598426
        },
        {
          "duration": 0.0718750000000341,
          "durationTicks": 92,
          "midi": 59,
          "name": "B3",
          "ticks": 301920,
          "time": 235.875,
          "velocity": 0.47244094488188976
        },
        {
          "duration": 0.07265625000002274,
          "durationTicks": 93,
          "midi": 40,
          "name": "E2",
          "ticks": 302280,
          "time": 236.15625,
          "velocity": 0.06299212598425197
        },
        {
          "duration": 0.07421875,
          "durationTicks": 95,
          "midi": 59,
          "name": "B3",
          "ticks": 302400,
          "time": 236.25,
          "velocity": 0.5354330708661418
        },
        {
          "duration": 0.021874999999965894,
          "durationTicks": 28,
          "midi": 44,
          "name": "G#2",
          "ticks": 302880,
          "time": 236.625,
          "velocity": 0.4330708661417323
        },
        {
          "duration": 0.0718750000000341,
          "durationTicks": 92,
          "midi": 59,
          "name": "B3",
          "ticks": 302880,
          "time": 236.625,
          "velocity": 0.5196850393700787
        },
        {
          "duration": 0.07109374999998863,
          "durationTicks": 91,
          "midi": 40,
          "name": "E2",
          "ticks": 303240,
          "time": 236.90625,
          "velocity": 0.1968503937007874
        },
        {
          "duration": 0.07109374999998863,
          "durationTicks": 91,
          "midi": 59,
          "name": "B3",
          "ticks": 303240,
          "time": 236.90625,
          "velocity": 0.5196850393700787
        },
        {
          "duration": 0.07109374999998863,
          "durationTicks": 91,
          "midi": 59,
          "name": "B3",
          "ticks": 303360,
          "time": 237,
          "velocity": 0.4645669291338583
        },
        {
          "duration": 0.07109374999998863,
          "durationTicks": 91,
          "midi": 40,
          "name": "E2",
          "ticks": 303720,
          "time": 237.28125,
          "velocity": 0.11023622047244094
        },
        {
          "duration": 0.0718750000000341,
          "durationTicks": 92,
          "midi": 59,
          "name": "B3",
          "ticks": 303840,
          "time": 237.375,
          "velocity": 0.5118110236220472
        },
        {
          "duration": 0.07265625000002274,
          "durationTicks": 93,
          "midi": 40,
          "name": "E2",
          "ticks": 303960,
          "time": 237.46875,
          "velocity": 0.1968503937007874
        },
        {
          "duration": 0.0718750000000341,
          "durationTicks": 92,
          "midi": 40,
          "name": "E2",
          "ticks": 304080,
          "time": 237.5625,
          "velocity": 0.4015748031496063
        },
        {
          "duration": 0.07265625000002274,
          "durationTicks": 93,
          "midi": 35,
          "name": "B1",
          "ticks": 304200,
          "time": 237.65625,
          "velocity": 0.3700787401574803
        },
        {
          "duration": 0.07109374999998863,
          "durationTicks": 91,
          "midi": 35,
          "name": "B1",
          "ticks": 304320,
          "time": 237.75,
          "velocity": 0.5196850393700787
        },
        {
          "duration": 0.0718750000000341,
          "durationTicks": 92,
          "midi": 46,
          "name": "A#2",
          "ticks": 304320,
          "time": 237.75,
          "velocity": 0.3700787401574803
        },
        {
          "duration": 0.0718750000000341,
          "durationTicks": 92,
          "midi": 40,
          "name": "E2",
          "ticks": 304440,
          "time": 237.84375,
          "velocity": 0.14173228346456693
        },
        {
          "duration": 0.07109374999998863,
          "durationTicks": 91,
          "midi": 40,
          "name": "E2",
          "ticks": 304560,
          "time": 237.9375,
          "velocity": 0.2677165354330709
        },
        {
          "duration": 0.0718750000000341,
          "durationTicks": 92,
          "midi": 59,
          "name": "B3",
          "ticks": 304680,
          "time": 238.03125,
          "velocity": 0.44881889763779526
        },
        {
          "duration": 0.0718750000000341,
          "durationTicks": 92,
          "midi": 59,
          "name": "B3",
          "ticks": 304800,
          "time": 238.125,
          "velocity": 0.4330708661417323
        },
        {
          "duration": 0.07109374999998863,
          "durationTicks": 91,
          "midi": 40,
          "name": "E2",
          "ticks": 304920,
          "time": 238.21875,
          "velocity": 0.11023622047244094
        },
        {
          "duration": 0.07109374999998863,
          "durationTicks": 91,
          "midi": 40,
          "name": "E2",
          "ticks": 305040,
          "time": 238.3125,
          "velocity": 0.2283464566929134
        },
        {
          "duration": 0.0718750000000341,
          "durationTicks": 92,
          "midi": 35,
          "name": "B1",
          "ticks": 305160,
          "time": 238.40625,
          "velocity": 0.5039370078740157
        },
        {
          "duration": 0.07109374999998863,
          "durationTicks": 91,
          "midi": 59,
          "name": "B3",
          "ticks": 305160,
          "time": 238.40625,
          "velocity": 0.5354330708661418
        },
        {
          "duration": 0.07109374999998863,
          "durationTicks": 91,
          "midi": 40,
          "name": "E2",
          "ticks": 305280,
          "time": 238.5,
          "velocity": 0.8110236220472441
        },
        {
          "duration": 0.07265625000002274,
          "durationTicks": 93,
          "midi": 59,
          "name": "B3",
          "ticks": 305760,
          "time": 238.875,
          "velocity": 0.48031496062992124
        },
        {
          "duration": 0.06953125000001137,
          "durationTicks": 89,
          "midi": 40,
          "name": "E2",
          "ticks": 306120,
          "time": 239.15625,
          "velocity": 0.3858267716535433
        },
        {
          "duration": 0.07109374999998863,
          "durationTicks": 91,
          "midi": 59,
          "name": "B3",
          "ticks": 306120,
          "time": 239.15625,
          "velocity": 0.49606299212598426
        },
        {
          "duration": 0.0703125,
          "durationTicks": 90,
          "midi": 59,
          "name": "B3",
          "ticks": 306240,
          "time": 239.25,
          "velocity": 0.4251968503937008
        },
        {
          "duration": 0.07109374999998863,
          "durationTicks": 91,
          "midi": 40,
          "name": "E2",
          "ticks": 306600,
          "time": 239.53125,
          "velocity": 0.2677165354330709
        },
        {
          "duration": 0.07109374999998863,
          "durationTicks": 91,
          "midi": 59,
          "name": "B3",
          "ticks": 306720,
          "time": 239.625,
          "velocity": 0.5196850393700787
        },
        {
          "duration": 0.0718750000000341,
          "durationTicks": 92,
          "midi": 40,
          "name": "E2",
          "ticks": 306840,
          "time": 239.71875,
          "velocity": 0.06299212598425197
        },
        {
          "duration": 0.0703125,
          "durationTicks": 90,
          "midi": 35,
          "name": "B1",
          "ticks": 307080,
          "time": 239.90625,
          "velocity": 0.3779527559055118
        },
        {
          "duration": 0.0718750000000341,
          "durationTicks": 92,
          "midi": 46,
          "name": "A#2",
          "ticks": 307080,
          "time": 239.90625,
          "velocity": 0.4409448818897638
        },
        {
          "duration": 0.06953125000001137,
          "durationTicks": 89,
          "midi": 40,
          "name": "E2",
          "ticks": 307200,
          "time": 240,
          "velocity": 0.11023622047244094
        },
        {
          "duration": 0.07109374999998863,
          "durationTicks": 91,
          "midi": 40,
          "name": "E2",
          "ticks": 307440,
          "time": 240.1875,
          "velocity": 0.28346456692913385
        },
        {
          "duration": 0.07109374999998863,
          "durationTicks": 91,
          "midi": 59,
          "name": "B3",
          "ticks": 307560,
          "time": 240.28125,
          "velocity": 0.5433070866141733
        },
        {
          "duration": 0.0718750000000341,
          "durationTicks": 92,
          "midi": 40,
          "name": "E2",
          "ticks": 307680,
          "time": 240.375,
          "velocity": 0.1968503937007874
        },
        {
          "duration": 0.07109374999998863,
          "durationTicks": 91,
          "midi": 40,
          "name": "E2",
          "ticks": 307800,
          "time": 240.46875,
          "velocity": 0.1968503937007874
        },
        {
          "duration": 0.0703125,
          "durationTicks": 90,
          "midi": 35,
          "name": "B1",
          "ticks": 307920,
          "time": 240.5625,
          "velocity": 0.4015748031496063
        },
        {
          "duration": 0.07109374999998863,
          "durationTicks": 91,
          "midi": 46,
          "name": "A#2",
          "ticks": 307920,
          "time": 240.5625,
          "velocity": 0.4566929133858268
        },
        {
          "duration": 0.0718750000000341,
          "durationTicks": 92,
          "midi": 40,
          "name": "E2",
          "ticks": 308160,
          "time": 240.75,
          "velocity": 0.07874015748031496
        },
        {
          "duration": 0.0718750000000341,
          "durationTicks": 92,
          "midi": 40,
          "name": "E2",
          "ticks": 308280,
          "time": 240.84375,
          "velocity": 0.2283464566929134
        },
        {
          "duration": 0.07109374999998863,
          "durationTicks": 91,
          "midi": 35,
          "name": "B1",
          "ticks": 308400,
          "time": 240.9375,
          "velocity": 0.3543307086614173
        },
        {
          "duration": 0.0718750000000341,
          "durationTicks": 92,
          "midi": 35,
          "name": "B1",
          "ticks": 308640,
          "time": 241.125,
          "velocity": 0.5669291338582677
        },
        {
          "duration": 0.07109374999998863,
          "durationTicks": 91,
          "midi": 46,
          "name": "A#2",
          "ticks": 308640,
          "time": 241.125,
          "velocity": 0.44881889763779526
        },
        {
          "duration": 0.07109374999998863,
          "durationTicks": 91,
          "midi": 40,
          "name": "E2",
          "ticks": 308760,
          "time": 241.21875,
          "velocity": 0.14173228346456693
        },
        {
          "duration": 0.07265625000002274,
          "durationTicks": 93,
          "midi": 40,
          "name": "E2",
          "ticks": 308880,
          "time": 241.3125,
          "velocity": 0.1968503937007874
        },
        {
          "duration": 0.07109374999998863,
          "durationTicks": 91,
          "midi": 59,
          "name": "B3",
          "ticks": 309120,
          "time": 241.5,
          "velocity": 0.4881889763779528
        },
        {
          "duration": 0.07109374999998863,
          "durationTicks": 91,
          "midi": 40,
          "name": "E2",
          "ticks": 309240,
          "time": 241.59375,
          "velocity": 0.7874015748031497
        },
        {
          "duration": 0.07109374999998863,
          "durationTicks": 91,
          "midi": 59,
          "name": "B3",
          "ticks": 309480,
          "time": 241.78125,
          "velocity": 0.4330708661417323
        },
        {
          "duration": 0.07265625000002274,
          "durationTicks": 93,
          "midi": 40,
          "name": "E2",
          "ticks": 309600,
          "time": 241.875,
          "velocity": 0.12598425196850394
        },
        {
          "duration": 0.07109374999998863,
          "durationTicks": 91,
          "midi": 40,
          "name": "E2",
          "ticks": 309720,
          "time": 241.96875,
          "velocity": 0.16535433070866143
        },
        {
          "duration": 0.07109374999998863,
          "durationTicks": 91,
          "midi": 35,
          "name": "B1",
          "ticks": 309960,
          "time": 242.15625,
          "velocity": 0.3937007874015748
        },
        {
          "duration": 0.07109374999998863,
          "durationTicks": 91,
          "midi": 46,
          "name": "A#2",
          "ticks": 309960,
          "time": 242.15625,
          "velocity": 0.4409448818897638
        },
        {
          "duration": 0.07109374999998863,
          "durationTicks": 91,
          "midi": 40,
          "name": "E2",
          "ticks": 310080,
          "time": 242.25,
          "velocity": 0.1968503937007874
        },
        {
          "duration": 0.0703125,
          "durationTicks": 90,
          "midi": 40,
          "name": "E2",
          "ticks": 310200,
          "time": 242.34375,
          "velocity": 0.33070866141732286
        },
        {
          "duration": 0.07109374999998863,
          "durationTicks": 91,
          "midi": 35,
          "name": "B1",
          "ticks": 310440,
          "time": 242.53125,
          "velocity": 0.5196850393700787
        },
        {
          "duration": 0.07109374999998863,
          "durationTicks": 91,
          "midi": 46,
          "name": "A#2",
          "ticks": 310440,
          "time": 242.53125,
          "velocity": 0.4566929133858268
        },
        {
          "duration": 0.06953125000001137,
          "durationTicks": 89,
          "midi": 40,
          "name": "E2",
          "ticks": 310560,
          "time": 242.625,
          "velocity": 0.12598425196850394
        },
        {
          "duration": 0.0718750000000341,
          "durationTicks": 92,
          "midi": 40,
          "name": "E2",
          "ticks": 310680,
          "time": 242.71875,
          "velocity": 0.28346456692913385
        },
        {
          "duration": 0.0718750000000341,
          "durationTicks": 92,
          "midi": 35,
          "name": "B1",
          "ticks": 310920,
          "time": 242.90625,
          "velocity": 0.3464566929133858
        },
        {
          "duration": 0.0718750000000341,
          "durationTicks": 92,
          "midi": 35,
          "name": "B1",
          "ticks": 311040,
          "time": 243,
          "velocity": 0.7559055118110236
        },
        {
          "duration": 0.0718750000000341,
          "durationTicks": 92,
          "midi": 55,
          "name": "G3",
          "ticks": 311040,
          "time": 243,
          "velocity": 0.6299212598425197
        },
        {
          "duration": 0.0718750000000341,
          "durationTicks": 92,
          "midi": 59,
          "name": "B3",
          "ticks": 311520,
          "time": 243.375,
          "velocity": 0.4645669291338583
        },
        {
          "duration": 0.0718750000000341,
          "durationTicks": 92,
          "midi": 40,
          "name": "E2",
          "ticks": 311880,
          "time": 243.65625,
          "velocity": 0.28346456692913385
        },
        {
          "duration": 0.07109374999998863,
          "durationTicks": 91,
          "midi": 59,
          "name": "B3",
          "ticks": 311880,
          "time": 243.65625,
          "velocity": 0.4566929133858268
        },
        {
          "duration": 0.07109374999998863,
          "durationTicks": 91,
          "midi": 59,
          "name": "B3",
          "ticks": 312000,
          "time": 243.75,
          "velocity": 0.4015748031496063
        },
        {
          "duration": 0.07109374999998863,
          "durationTicks": 91,
          "midi": 35,
          "name": "B1",
          "ticks": 312360,
          "time": 244.03125,
          "velocity": 0.33858267716535434
        },
        {
          "duration": 0.07109374999998863,
          "durationTicks": 91,
          "midi": 40,
          "name": "E2",
          "ticks": 312480,
          "time": 244.125,
          "velocity": 0.6850393700787402
        },
        {
          "duration": 0.07109374999998863,
          "durationTicks": 91,
          "midi": 46,
          "name": "A#2",
          "ticks": 312480,
          "time": 244.125,
          "velocity": 0.48031496062992124
        },
        {
          "duration": 0.07109374999998863,
          "durationTicks": 91,
          "midi": 40,
          "name": "E2",
          "ticks": 312840,
          "time": 244.40625,
          "velocity": 0.06299212598425197
        },
        {
          "duration": 0.0687499999999659,
          "durationTicks": 88,
          "midi": 59,
          "name": "B3",
          "ticks": 312960,
          "time": 244.5,
          "velocity": 0.49606299212598426
        },
        {
          "duration": 0.0718750000000341,
          "durationTicks": 92,
          "midi": 59,
          "name": "B3",
          "ticks": 313320,
          "time": 244.78125,
          "velocity": 0.4251968503937008
        },
        {
          "duration": 0.0718750000000341,
          "durationTicks": 92,
          "midi": 59,
          "name": "B3",
          "ticks": 313440,
          "time": 244.875,
          "velocity": 0.44881889763779526
        },
        {
          "duration": 0.07109374999998863,
          "durationTicks": 91,
          "midi": 59,
          "name": "B3",
          "ticks": 313920,
          "time": 245.25,
          "velocity": 0.5118110236220472
        },
        {
          "duration": 0.07109374999998863,
          "durationTicks": 91,
          "midi": 40,
          "name": "E2",
          "ticks": 314040,
          "time": 245.34375,
          "velocity": 0.07874015748031496
        },
        {
          "duration": 0.07109374999998863,
          "durationTicks": 91,
          "midi": 40,
          "name": "E2",
          "ticks": 314160,
          "time": 245.4375,
          "velocity": 0.09448818897637795
        },
        {
          "duration": 0.0687499999999659,
          "durationTicks": 88,
          "midi": 35,
          "name": "B1",
          "ticks": 314280,
          "time": 245.53125,
          "velocity": 0.33858267716535434
        },
        {
          "duration": 0.07109374999998863,
          "durationTicks": 91,
          "midi": 35,
          "name": "B1",
          "ticks": 314400,
          "time": 245.625,
          "velocity": 0.5984251968503937
        },
        {
          "duration": 0.07109374999998863,
          "durationTicks": 91,
          "midi": 46,
          "name": "A#2",
          "ticks": 314400,
          "time": 245.625,
          "velocity": 0.4566929133858268
        },
        {
          "duration": 0.07109374999998863,
          "durationTicks": 91,
          "midi": 59,
          "name": "B3",
          "ticks": 314880,
          "time": 246,
          "velocity": 0.47244094488188976
        },
        {
          "duration": 0.0718750000000341,
          "durationTicks": 92,
          "midi": 35,
          "name": "B1",
          "ticks": 315240,
          "time": 246.28125,
          "velocity": 0.31496062992125984
        },
        {
          "duration": 0.0718750000000341,
          "durationTicks": 92,
          "midi": 40,
          "name": "E2",
          "ticks": 315360,
          "time": 246.375,
          "velocity": 0.6535433070866141
        },
        {
          "duration": 0.0718750000000341,
          "durationTicks": 92,
          "midi": 59,
          "name": "B3",
          "ticks": 315360,
          "time": 246.375,
          "velocity": 0.5590551181102362
        },
        {
          "duration": 0.07109374999998863,
          "durationTicks": 91,
          "midi": 40,
          "name": "E2",
          "ticks": 315720,
          "time": 246.65625,
          "velocity": 0.14173228346456693
        },
        {
          "duration": 0.07109374999998863,
          "durationTicks": 91,
          "midi": 59,
          "name": "B3",
          "ticks": 315840,
          "time": 246.75,
          "velocity": 0.5118110236220472
        },
        {
          "duration": 0.07109374999998863,
          "durationTicks": 91,
          "midi": 35,
          "name": "B1",
          "ticks": 316200,
          "time": 247.03125,
          "velocity": 0.4330708661417323
        },
        {
          "duration": 0.07109374999998863,
          "durationTicks": 91,
          "midi": 46,
          "name": "A#2",
          "ticks": 316200,
          "time": 247.03125,
          "velocity": 0.3543307086614173
        },
        {
          "duration": 0.07109374999998863,
          "durationTicks": 91,
          "midi": 59,
          "name": "B3",
          "ticks": 316320,
          "time": 247.125,
          "velocity": 0.4015748031496063
        },
        {
          "duration": 0.07109374999998863,
          "durationTicks": 91,
          "midi": 35,
          "name": "B1",
          "ticks": 316800,
          "time": 247.5,
          "velocity": 0.6220472440944882
        },
        {
          "duration": 0.07109374999998863,
          "durationTicks": 91,
          "midi": 55,
          "name": "G3",
          "ticks": 316800,
          "time": 247.5,
          "velocity": 0.7322834645669292
        },
        {
          "duration": 0.07265625000002274,
          "durationTicks": 93,
          "midi": 59,
          "name": "B3",
          "ticks": 317280,
          "time": 247.875,
          "velocity": 0.4094488188976378
        },
        {
          "duration": 0.07109374999998863,
          "durationTicks": 91,
          "midi": 59,
          "name": "B3",
          "ticks": 317760,
          "time": 248.25,
          "velocity": 0.4409448818897638
        },
        {
          "duration": 0.07109374999998863,
          "durationTicks": 91,
          "midi": 59,
          "name": "B3",
          "ticks": 318240,
          "time": 248.625,
          "velocity": 0.41732283464566927
        },
        {
          "duration": 0.02265625000001137,
          "durationTicks": 29,
          "midi": 44,
          "name": "G#2",
          "ticks": 318720,
          "time": 249,
          "velocity": 0.4330708661417323
        },
        {
          "duration": 0.0718750000000341,
          "durationTicks": 92,
          "midi": 59,
          "name": "B3",
          "ticks": 318720,
          "time": 249,
          "velocity": 0.4251968503937008
        },
        {
          "duration": 0.02265625000001137,
          "durationTicks": 29,
          "midi": 44,
          "name": "G#2",
          "ticks": 319200,
          "time": 249.375,
          "velocity": 0.4330708661417323
        },
        {
          "duration": 0.07109374999998863,
          "durationTicks": 91,
          "midi": 59,
          "name": "B3",
          "ticks": 319200,
          "time": 249.375,
          "velocity": 0.4251968503937008
        },
        {
          "duration": 0.02421874999998863,
          "durationTicks": 31,
          "midi": 44,
          "name": "G#2",
          "ticks": 319680,
          "time": 249.75,
          "velocity": 0.4330708661417323
        },
        {
          "duration": 0.07109374999998863,
          "durationTicks": 91,
          "midi": 59,
          "name": "B3",
          "ticks": 319680,
          "time": 249.75,
          "velocity": 0.4330708661417323
        },
        {
          "duration": 0.02421874999998863,
          "durationTicks": 31,
          "midi": 44,
          "name": "G#2",
          "ticks": 320160,
          "time": 250.125,
          "velocity": 0.4330708661417323
        },
        {
          "duration": 0.0718750000000341,
          "durationTicks": 92,
          "midi": 59,
          "name": "B3",
          "ticks": 320160,
          "time": 250.125,
          "velocity": 0.44881889763779526
        },
        {
          "duration": 0.0234375,
          "durationTicks": 30,
          "midi": 44,
          "name": "G#2",
          "ticks": 320640,
          "time": 250.5,
          "velocity": 0.4330708661417323
        },
        {
          "duration": 0.0718750000000341,
          "durationTicks": 92,
          "midi": 59,
          "name": "B3",
          "ticks": 320640,
          "time": 250.5,
          "velocity": 0.4566929133858268
        },
        {
          "duration": 0.021874999999965894,
          "durationTicks": 28,
          "midi": 44,
          "name": "G#2",
          "ticks": 321120,
          "time": 250.875,
          "velocity": 0.4330708661417323
        },
        {
          "duration": 0.0703125,
          "durationTicks": 90,
          "midi": 59,
          "name": "B3",
          "ticks": 321120,
          "time": 250.875,
          "velocity": 0.47244094488188976
        },
        {
          "duration": 0.025000000000034106,
          "durationTicks": 32,
          "midi": 44,
          "name": "G#2",
          "ticks": 321600,
          "time": 251.25,
          "velocity": 0.4330708661417323
        },
        {
          "duration": 0.07109374999998863,
          "durationTicks": 91,
          "midi": 59,
          "name": "B3",
          "ticks": 321600,
          "time": 251.25,
          "velocity": 0.4645669291338583
        },
        {
          "duration": 0.02265625000001137,
          "durationTicks": 29,
          "midi": 44,
          "name": "G#2",
          "ticks": 322080,
          "time": 251.625,
          "velocity": 0.4330708661417323
        },
        {
          "duration": 0.0687499999999659,
          "durationTicks": 88,
          "midi": 59,
          "name": "B3",
          "ticks": 322080,
          "time": 251.625,
          "velocity": 0.5118110236220472
        },
        {
          "duration": 0.07109374999998863,
          "durationTicks": 91,
          "midi": 40,
          "name": "E2",
          "ticks": 322440,
          "time": 251.90625,
          "velocity": 0.7086614173228346
        },
        {
          "duration": 0.07109374999998863,
          "durationTicks": 91,
          "midi": 46,
          "name": "A#2",
          "ticks": 322440,
          "time": 251.90625,
          "velocity": 0.49606299212598426
        },
        {
          "duration": 0.07109374999998863,
          "durationTicks": 91,
          "midi": 40,
          "name": "E2",
          "ticks": 322800,
          "time": 252.1875,
          "velocity": 0.06299212598425197
        },
        {
          "duration": 0.021874999999965894,
          "durationTicks": 28,
          "midi": 44,
          "name": "G#2",
          "ticks": 323040,
          "time": 252.375,
          "velocity": 0.4330708661417323
        },
        {
          "duration": 0.0718750000000341,
          "durationTicks": 92,
          "midi": 59,
          "name": "B3",
          "ticks": 323040,
          "time": 252.375,
          "velocity": 0.49606299212598426
        },
        {
          "duration": 0.06953125000001137,
          "durationTicks": 89,
          "midi": 40,
          "name": "E2",
          "ticks": 323400,
          "time": 252.65625,
          "velocity": 0.16535433070866143
        },
        {
          "duration": 0.0718750000000341,
          "durationTicks": 92,
          "midi": 59,
          "name": "B3",
          "ticks": 323400,
          "time": 252.65625,
          "velocity": 0.4330708661417323
        },
        {
          "duration": 0.07109374999998863,
          "durationTicks": 91,
          "midi": 59,
          "name": "B3",
          "ticks": 323520,
          "time": 252.75,
          "velocity": 0.4251968503937008
        },
        {
          "duration": 0.07109374999998863,
          "durationTicks": 91,
          "midi": 40,
          "name": "E2",
          "ticks": 323880,
          "time": 253.03125,
          "velocity": 0.25984251968503935
        },
        {
          "duration": 0.07265625000002274,
          "durationTicks": 93,
          "midi": 59,
          "name": "B3",
          "ticks": 323880,
          "time": 253.03125,
          "velocity": 0.47244094488188976
        },
        {
          "duration": 0.07109374999998863,
          "durationTicks": 91,
          "midi": 59,
          "name": "B3",
          "ticks": 324000,
          "time": 253.125,
          "velocity": 0.4566929133858268
        },
        {
          "duration": 0.07109374999998863,
          "durationTicks": 91,
          "midi": 40,
          "name": "E2",
          "ticks": 324360,
          "time": 253.40625,
          "velocity": 0.06299212598425197
        },
        {
          "duration": 0.021874999999965894,
          "durationTicks": 28,
          "midi": 44,
          "name": "G#2",
          "ticks": 324480,
          "time": 253.5,
          "velocity": 0.4330708661417323
        },
        {
          "duration": 0.0718750000000341,
          "durationTicks": 92,
          "midi": 59,
          "name": "B3",
          "ticks": 324480,
          "time": 253.5,
          "velocity": 0.5118110236220472
        },
        {
          "duration": 0.07109374999998863,
          "durationTicks": 91,
          "midi": 40,
          "name": "E2",
          "ticks": 324840,
          "time": 253.78125,
          "velocity": 0.1968503937007874
        },
        {
          "duration": 0.0718750000000341,
          "durationTicks": 92,
          "midi": 59,
          "name": "B3",
          "ticks": 324840,
          "time": 253.78125,
          "velocity": 0.47244094488188976
        },
        {
          "duration": 0.0718750000000341,
          "durationTicks": 92,
          "midi": 59,
          "name": "B3",
          "ticks": 324960,
          "time": 253.875,
          "velocity": 0.4094488188976378
        },
        {
          "duration": 0.07109374999998863,
          "durationTicks": 91,
          "midi": 40,
          "name": "E2",
          "ticks": 325320,
          "time": 254.15625,
          "velocity": 0.06299212598425197
        },
        {
          "duration": 0.021874999999965894,
          "durationTicks": 28,
          "midi": 44,
          "name": "G#2",
          "ticks": 325440,
          "time": 254.25,
          "velocity": 0.4330708661417323
        },
        {
          "duration": 0.0718750000000341,
          "durationTicks": 92,
          "midi": 59,
          "name": "B3",
          "ticks": 325440,
          "time": 254.25,
          "velocity": 0.44881889763779526
        },
        {
          "duration": 0.07109374999998863,
          "durationTicks": 91,
          "midi": 40,
          "name": "E2",
          "ticks": 325800,
          "time": 254.53125,
          "velocity": 0.16535433070866143
        },
        {
          "duration": 0.0718750000000341,
          "durationTicks": 92,
          "midi": 59,
          "name": "B3",
          "ticks": 325800,
          "time": 254.53125,
          "velocity": 0.4409448818897638
        },
        {
          "duration": 0.07109374999998863,
          "durationTicks": 91,
          "midi": 59,
          "name": "B3",
          "ticks": 325920,
          "time": 254.625,
          "velocity": 0.4094488188976378
        },
        {
          "duration": 0.0718750000000341,
          "durationTicks": 92,
          "midi": 40,
          "name": "E2",
          "ticks": 326160,
          "time": 254.8125,
          "velocity": 0.16535433070866143
        },
        {
          "duration": 0.025000000000034106,
          "durationTicks": 32,
          "midi": 44,
          "name": "G#2",
          "ticks": 326280,
          "time": 254.90625,
          "velocity": 0.4330708661417323
        },
        {
          "duration": 0.07109374999998863,
          "durationTicks": 91,
          "midi": 40,
          "name": "E2",
          "ticks": 326400,
          "time": 255,
          "velocity": 0.2440944881889764
        },
        {
          "duration": 0.07109374999998863,
          "durationTicks": 91,
          "midi": 59,
          "name": "B3",
          "ticks": 326400,
          "time": 255,
          "velocity": 0.44881889763779526
        },
        {
          "duration": 0.0234375,
          "durationTicks": 30,
          "midi": 44,
          "name": "G#2",
          "ticks": 326520,
          "time": 255.09375,
          "velocity": 0.4330708661417323
        },
        {
          "duration": 0.07109374999998863,
          "durationTicks": 91,
          "midi": 40,
          "name": "E2",
          "ticks": 326760,
          "time": 255.28125,
          "velocity": 0.4645669291338583
        },
        {
          "duration": 0.07109374999998863,
          "durationTicks": 91,
          "midi": 59,
          "name": "B3",
          "ticks": 326760,
          "time": 255.28125,
          "velocity": 0.49606299212598426
        },
        {
          "duration": 0.0718750000000341,
          "durationTicks": 92,
          "midi": 40,
          "name": "E2",
          "ticks": 327000,
          "time": 255.46875,
          "velocity": 0.06299212598425197
        },
        {
          "duration": 0.07109374999998863,
          "durationTicks": 91,
          "midi": 40,
          "name": "E2",
          "ticks": 327120,
          "time": 255.5625,
          "velocity": 0.33070866141732286
        },
        {
          "duration": 0.07109374999998863,
          "durationTicks": 91,
          "midi": 59,
          "name": "B3",
          "ticks": 327360,
          "time": 255.75,
          "velocity": 0.4330708661417323
        },
        {
          "duration": 0.0718750000000341,
          "durationTicks": 92,
          "midi": 40,
          "name": "E2",
          "ticks": 327480,
          "time": 255.84375,
          "velocity": 0.11023622047244094
        },
        {
          "duration": 0.07265625000002274,
          "durationTicks": 93,
          "midi": 35,
          "name": "B1",
          "ticks": 327600,
          "time": 255.9375,
          "velocity": 0.3700787401574803
        },
        {
          "duration": 0.07265625000002274,
          "durationTicks": 93,
          "midi": 59,
          "name": "B3",
          "ticks": 327600,
          "time": 255.9375,
          "velocity": 0.47244094488188976
        },
        {
          "duration": 0.07109374999998863,
          "durationTicks": 91,
          "midi": 59,
          "name": "B3",
          "ticks": 327840,
          "time": 256.125,
          "velocity": 0.4409448818897638
        },
        {
          "duration": 0.07109374999998863,
          "durationTicks": 91,
          "midi": 40,
          "name": "E2",
          "ticks": 327960,
          "time": 256.21875,
          "velocity": 0.14173228346456693
        },
        {
          "duration": 0.07109374999998863,
          "durationTicks": 91,
          "midi": 35,
          "name": "B1",
          "ticks": 328080,
          "time": 256.3125,
          "velocity": 0.3464566929133858
        },
        {
          "duration": 0.0703125,
          "durationTicks": 90,
          "midi": 35,
          "name": "B1",
          "ticks": 328320,
          "time": 256.5,
          "velocity": 0.4566929133858268
        },
        {
          "duration": 0.07265625000002274,
          "durationTicks": 93,
          "midi": 59,
          "name": "B3",
          "ticks": 328320,
          "time": 256.5,
          "velocity": 0.47244094488188976
        },
        {
          "duration": 0.0718750000000341,
          "durationTicks": 92,
          "midi": 40,
          "name": "E2",
          "ticks": 328440,
          "time": 256.59375,
          "velocity": 0.07874015748031496
        },
        {
          "duration": 0.0718750000000341,
          "durationTicks": 92,
          "midi": 40,
          "name": "E2",
          "ticks": 328560,
          "time": 256.6875,
          "velocity": 0.44881889763779526
        },
        {
          "duration": 0.07109374999998863,
          "durationTicks": 91,
          "midi": 59,
          "name": "B3",
          "ticks": 328800,
          "time": 256.875,
          "velocity": 0.4094488188976378
        },
        {
          "duration": 0.07109374999998863,
          "durationTicks": 91,
          "midi": 40,
          "name": "E2",
          "ticks": 328920,
          "time": 256.96875,
          "velocity": 0.06299212598425197
        },
        {
          "duration": 0.0718750000000341,
          "durationTicks": 92,
          "midi": 35,
          "name": "B1",
          "ticks": 329040,
          "time": 257.0625,
          "velocity": 0.3700787401574803
        },
        {
          "duration": 0.0703125,
          "durationTicks": 90,
          "midi": 59,
          "name": "B3",
          "ticks": 329040,
          "time": 257.0625,
          "velocity": 0.4881889763779528
        },
        {
          "duration": 0.07109374999998863,
          "durationTicks": 91,
          "midi": 40,
          "name": "E2",
          "ticks": 329280,
          "time": 257.25,
          "velocity": 0.06299212598425197
        },
        {
          "duration": 0.0718750000000341,
          "durationTicks": 92,
          "midi": 35,
          "name": "B1",
          "ticks": 329400,
          "time": 257.34375,
          "velocity": 0.31496062992125984
        },
        {
          "duration": 0.07109374999998863,
          "durationTicks": 91,
          "midi": 59,
          "name": "B3",
          "ticks": 329400,
          "time": 257.34375,
          "velocity": 0.47244094488188976
        },
        {
          "duration": 0.0718750000000341,
          "durationTicks": 92,
          "midi": 40,
          "name": "E2",
          "ticks": 329520,
          "time": 257.4375,
          "velocity": 0.06299212598425197
        },
        {
          "duration": 0.07109374999998863,
          "durationTicks": 91,
          "midi": 35,
          "name": "B1",
          "ticks": 329760,
          "time": 257.625,
          "velocity": 0.5039370078740157
        },
        {
          "duration": 0.07109374999998863,
          "durationTicks": 91,
          "midi": 59,
          "name": "B3",
          "ticks": 329760,
          "time": 257.625,
          "velocity": 0.5039370078740157
        },
        {
          "duration": 0.0718750000000341,
          "durationTicks": 92,
          "midi": 40,
          "name": "E2",
          "ticks": 330120,
          "time": 257.90625,
          "velocity": 0.06299212598425197
        },
        {
          "duration": 0.02265625000001137,
          "durationTicks": 29,
          "midi": 44,
          "name": "G#2",
          "ticks": 330240,
          "time": 258,
          "velocity": 0.4330708661417323
        },
        {
          "duration": 0.07109374999998863,
          "durationTicks": 91,
          "midi": 59,
          "name": "B3",
          "ticks": 330240,
          "time": 258,
          "velocity": 0.4409448818897638
        },
        {
          "duration": 0.0687499999999659,
          "durationTicks": 88,
          "midi": 40,
          "name": "E2",
          "ticks": 330600,
          "time": 258.28125,
          "velocity": 0.2283464566929134
        },
        {
          "duration": 0.0703125,
          "durationTicks": 90,
          "midi": 59,
          "name": "B3",
          "ticks": 330600,
          "time": 258.28125,
          "velocity": 0.49606299212598426
        },
        {
          "duration": 0.07265625000002274,
          "durationTicks": 93,
          "midi": 40,
          "name": "E2",
          "ticks": 330840,
          "time": 258.46875,
          "velocity": 0.2677165354330709
        },
        {
          "duration": 0.07265625000002274,
          "durationTicks": 93,
          "midi": 59,
          "name": "B3",
          "ticks": 330840,
          "time": 258.46875,
          "velocity": 0.5039370078740157
        },
        {
          "duration": 0.07109374999998863,
          "durationTicks": 91,
          "midi": 40,
          "name": "E2",
          "ticks": 331200,
          "time": 258.75,
          "velocity": 0.5196850393700787
        },
        {
          "duration": 0.07109374999998863,
          "durationTicks": 91,
          "midi": 59,
          "name": "B3",
          "ticks": 331200,
          "time": 258.75,
          "velocity": 0.5354330708661418
        },
        {
          "duration": 0.0718750000000341,
          "durationTicks": 92,
          "midi": 59,
          "name": "B3",
          "ticks": 331680,
          "time": 259.125,
          "velocity": 0.4251968503937008
        },
        {
          "duration": 0.07109374999998863,
          "durationTicks": 91,
          "midi": 40,
          "name": "E2",
          "ticks": 332040,
          "time": 259.40625,
          "velocity": 0.36220472440944884
        },
        {
          "duration": 0.07109374999998863,
          "durationTicks": 91,
          "midi": 59,
          "name": "B3",
          "ticks": 332040,
          "time": 259.40625,
          "velocity": 0.5118110236220472
        },
        {
          "duration": 0.07109374999998863,
          "durationTicks": 91,
          "midi": 40,
          "name": "E2",
          "ticks": 332640,
          "time": 259.875,
          "velocity": 0.3779527559055118
        },
        {
          "duration": 0.07109374999998863,
          "durationTicks": 91,
          "midi": 59,
          "name": "B3",
          "ticks": 332640,
          "time": 259.875,
          "velocity": 0.49606299212598426
        },
        {
          "duration": 0.07109374999998863,
          "durationTicks": 91,
          "midi": 35,
          "name": "B1",
          "ticks": 333480,
          "time": 260.53125,
          "velocity": 0.3700787401574803
        },
        {
          "duration": 0.0718750000000341,
          "durationTicks": 92,
          "midi": 59,
          "name": "B3",
          "ticks": 333480,
          "time": 260.53125,
          "velocity": 0.4881889763779528
        },
        {
          "duration": 0.07109374999998863,
          "durationTicks": 91,
          "midi": 46,
          "name": "A#2",
          "ticks": 333840,
          "time": 260.8125,
          "velocity": 0.2125984251968504
        },
        {
          "duration": 0.06953125000001137,
          "durationTicks": 89,
          "midi": 46,
          "name": "A#2",
          "ticks": 333960,
          "time": 260.90625,
          "velocity": 0.3543307086614173
        },
        {
          "duration": 0.0703125,
          "durationTicks": 90,
          "midi": 46,
          "name": "A#2",
          "ticks": 334080,
          "time": 261,
          "velocity": 0.4094488188976378
        },
        {
          "duration": 0.07109374999998863,
          "durationTicks": 91,
          "midi": 59,
          "name": "B3",
          "ticks": 334560,
          "time": 261.375,
          "velocity": 0.4094488188976378
        },
        {
          "duration": 0.0703125,
          "durationTicks": 90,
          "midi": 40,
          "name": "E2",
          "ticks": 334920,
          "time": 261.65625,
          "velocity": 0.36220472440944884
        },
        {
          "duration": 0.0718750000000341,
          "durationTicks": 92,
          "midi": 46,
          "name": "A#2",
          "ticks": 335160,
          "time": 261.84375,
          "velocity": 0.3543307086614173
        },
        {
          "duration": 0.07265625000002274,
          "durationTicks": 93,
          "midi": 46,
          "name": "A#2",
          "ticks": 335520,
          "time": 262.125,
          "velocity": 0.3228346456692913
        },
        {
          "duration": 0.0718750000000341,
          "durationTicks": 92,
          "midi": 59,
          "name": "B3",
          "ticks": 336000,
          "time": 262.5,
          "velocity": 0.3779527559055118
        },
        {
          "duration": 0.07109374999998863,
          "durationTicks": 91,
          "midi": 46,
          "name": "A#2",
          "ticks": 336360,
          "time": 262.78125,
          "velocity": 0.2125984251968504
        },
        {
          "duration": 0.07109374999998863,
          "durationTicks": 91,
          "midi": 46,
          "name": "A#2",
          "ticks": 336720,
          "time": 263.0625,
          "velocity": 0.2755905511811024
        },
        {
          "duration": 0.07109374999998863,
          "durationTicks": 91,
          "midi": 46,
          "name": "A#2",
          "ticks": 336960,
          "time": 263.25,
          "velocity": 0.31496062992125984
        },
        {
          "duration": 0.0718750000000341,
          "durationTicks": 92,
          "midi": 51,
          "name": "D#3",
          "ticks": 337440,
          "time": 263.625,
          "velocity": 0.33858267716535434
        },
        {
          "duration": 0.07109374999998863,
          "durationTicks": 91,
          "midi": 51,
          "name": "D#3",
          "ticks": 337920,
          "time": 264,
          "velocity": 0.3700787401574803
        },
        {
          "duration": 0.0703125,
          "durationTicks": 90,
          "midi": 51,
          "name": "D#3",
          "ticks": 338880,
          "time": 264.75,
          "velocity": 0.3937007874015748
        },
        {
          "duration": 0.07109374999998863,
          "durationTicks": 91,
          "midi": 51,
          "name": "D#3",
          "ticks": 339360,
          "time": 265.125,
          "velocity": 0.4015748031496063
        },
        {
          "duration": 0.0687499999999659,
          "durationTicks": 88,
          "midi": 51,
          "name": "D#3",
          "ticks": 339840,
          "time": 265.5,
          "velocity": 0.3779527559055118
        },
        {
          "duration": 0.07109374999998863,
          "durationTicks": 91,
          "midi": 40,
          "name": "E2",
          "ticks": 340680,
          "time": 266.15625,
          "velocity": 0.16535433070866143
        },
        {
          "duration": 0.07109374999998863,
          "durationTicks": 91,
          "midi": 51,
          "name": "D#3",
          "ticks": 340680,
          "time": 266.15625,
          "velocity": 0.41732283464566927
        },
        {
          "duration": 0.07109374999998863,
          "durationTicks": 91,
          "midi": 51,
          "name": "D#3",
          "ticks": 341280,
          "time": 266.625,
          "velocity": 0.4094488188976378
        },
        {
          "duration": 0.025000000000034106,
          "durationTicks": 32,
          "midi": 44,
          "name": "G#2",
          "ticks": 341760,
          "time": 267,
          "velocity": 0.4330708661417323
        },
        {
          "duration": 0.07109374999998863,
          "durationTicks": 91,
          "midi": 40,
          "name": "E2",
          "ticks": 342000,
          "time": 267.1875,
          "velocity": 0.25984251968503935
        },
        {
          "duration": 0.0718750000000341,
          "durationTicks": 92,
          "midi": 51,
          "name": "D#3",
          "ticks": 342000,
          "time": 267.1875,
          "velocity": 0.4094488188976378
        },
        {
          "duration": 0.07265625000002274,
          "durationTicks": 93,
          "midi": 40,
          "name": "E2",
          "ticks": 342480,
          "time": 267.5625,
          "velocity": 0.06299212598425197
        },
        {
          "duration": 0.07109374999998863,
          "durationTicks": 91,
          "midi": 51,
          "name": "D#3",
          "ticks": 342720,
          "time": 267.75,
          "velocity": 0.4330708661417323
        },
        {
          "duration": 0.0234375,
          "durationTicks": 30,
          "midi": 44,
          "name": "G#2",
          "ticks": 343200,
          "time": 268.125,
          "velocity": 0.4330708661417323
        },
        {
          "duration": 0.07265625000002274,
          "durationTicks": 93,
          "midi": 40,
          "name": "E2",
          "ticks": 343560,
          "time": 268.40625,
          "velocity": 0.16535433070866143
        },
        {
          "duration": 0.0718750000000341,
          "durationTicks": 92,
          "midi": 51,
          "name": "D#3",
          "ticks": 343560,
          "time": 268.40625,
          "velocity": 0.4015748031496063
        },
        {
          "duration": 0.06953125000001137,
          "durationTicks": 89,
          "midi": 40,
          "name": "E2",
          "ticks": 344040,
          "time": 268.78125,
          "velocity": 0.11023622047244094
        },
        {
          "duration": 0.07109374999998863,
          "durationTicks": 91,
          "midi": 51,
          "name": "D#3",
          "ticks": 344040,
          "time": 268.78125,
          "velocity": 0.4094488188976378
        },
        {
          "duration": 0.0703125,
          "durationTicks": 90,
          "midi": 51,
          "name": "D#3",
          "ticks": 344160,
          "time": 268.875,
          "velocity": 0.3858267716535433
        },
        {
          "duration": 0.02265625000001137,
          "durationTicks": 29,
          "midi": 44,
          "name": "G#2",
          "ticks": 344640,
          "time": 269.25,
          "velocity": 0.4330708661417323
        },
        {
          "duration": 0.07109374999998863,
          "durationTicks": 91,
          "midi": 51,
          "name": "D#3",
          "ticks": 344640,
          "time": 269.25,
          "velocity": 0.4251968503937008
        },
        {
          "duration": 0.06953125000001137,
          "durationTicks": 89,
          "midi": 40,
          "name": "E2",
          "ticks": 345480,
          "time": 269.90625,
          "velocity": 0.11023622047244094
        },
        {
          "duration": 0.0718750000000341,
          "durationTicks": 92,
          "midi": 51,
          "name": "D#3",
          "ticks": 345480,
          "time": 269.90625,
          "velocity": 0.4330708661417323
        },
        {
          "duration": 0.07109374999998863,
          "durationTicks": 91,
          "midi": 51,
          "name": "D#3",
          "ticks": 345600,
          "time": 270,
          "velocity": 0.3858267716535433
        },
        {
          "duration": 0.025000000000034106,
          "durationTicks": 32,
          "midi": 44,
          "name": "G#2",
          "ticks": 346080,
          "time": 270.375,
          "velocity": 0.4330708661417323
        },
        {
          "duration": 0.0718750000000341,
          "durationTicks": 92,
          "midi": 40,
          "name": "E2",
          "ticks": 346440,
          "time": 270.65625,
          "velocity": 0.14173228346456693
        },
        {
          "duration": 0.07109374999998863,
          "durationTicks": 91,
          "midi": 51,
          "name": "D#3",
          "ticks": 346440,
          "time": 270.65625,
          "velocity": 0.4409448818897638
        },
        {
          "duration": 0.07109374999998863,
          "durationTicks": 91,
          "midi": 51,
          "name": "D#3",
          "ticks": 346800,
          "time": 270.9375,
          "velocity": 0.4330708661417323
        },
        {
          "duration": 0.0718750000000341,
          "durationTicks": 92,
          "midi": 51,
          "name": "D#3",
          "ticks": 347160,
          "time": 271.21875,
          "velocity": 0.4566929133858268
        },
        {
          "duration": 0.02265625000001137,
          "durationTicks": 29,
          "midi": 44,
          "name": "G#2",
          "ticks": 347520,
          "time": 271.5,
          "velocity": 0.4330708661417323
        },
        {
          "duration": 0.07109374999998863,
          "durationTicks": 91,
          "midi": 40,
          "name": "E2",
          "ticks": 347880,
          "time": 271.78125,
          "velocity": 0.1968503937007874
        },
        {
          "duration": 0.07109374999998863,
          "durationTicks": 91,
          "midi": 51,
          "name": "D#3",
          "ticks": 347880,
          "time": 271.78125,
          "velocity": 0.4251968503937008
        },
        {
          "duration": 0.06953125000001137,
          "durationTicks": 89,
          "midi": 51,
          "name": "D#3",
          "ticks": 348240,
          "time": 272.0625,
          "velocity": 0.4251968503937008
        },
        {
          "duration": 0.0718750000000341,
          "durationTicks": 92,
          "midi": 51,
          "name": "D#3",
          "ticks": 348600,
          "time": 272.34375,
          "velocity": 0.44881889763779526
        },
        {
          "duration": 0.02265625000001137,
          "durationTicks": 29,
          "midi": 44,
          "name": "G#2",
          "ticks": 348960,
          "time": 272.625,
          "velocity": 0.4330708661417323
        },
        {
          "duration": 0.07109374999998863,
          "durationTicks": 91,
          "midi": 40,
          "name": "E2",
          "ticks": 349320,
          "time": 272.90625,
          "velocity": 0.14173228346456693
        },
        {
          "duration": 0.07109374999998863,
          "durationTicks": 91,
          "midi": 51,
          "name": "D#3",
          "ticks": 349320,
          "time": 272.90625,
          "velocity": 0.4330708661417323
        },
        {
          "duration": 0.07109374999998863,
          "durationTicks": 91,
          "midi": 51,
          "name": "D#3",
          "ticks": 349440,
          "time": 273,
          "velocity": 0.3937007874015748
        },
        {
          "duration": 0.07265625000002274,
          "durationTicks": 93,
          "midi": 40,
          "name": "E2",
          "ticks": 349800,
          "time": 273.28125,
          "velocity": 0.06299212598425197
        },
        {
          "duration": 0.0718750000000341,
          "durationTicks": 92,
          "midi": 51,
          "name": "D#3",
          "ticks": 349920,
          "time": 273.375,
          "velocity": 0.44881889763779526
        },
        {
          "duration": 0.021874999999965894,
          "durationTicks": 28,
          "midi": 44,
          "name": "G#2",
          "ticks": 350400,
          "time": 273.75,
          "velocity": 0.4330708661417323
        },
        {
          "duration": 0.07265625000002274,
          "durationTicks": 93,
          "midi": 40,
          "name": "E2",
          "ticks": 350760,
          "time": 274.03125,
          "velocity": 0.25984251968503935
        },
        {
          "duration": 0.07109374999998863,
          "durationTicks": 91,
          "midi": 51,
          "name": "D#3",
          "ticks": 350760,
          "time": 274.03125,
          "velocity": 0.4330708661417323
        },
        {
          "duration": 0.06953125000001137,
          "durationTicks": 89,
          "midi": 46,
          "name": "A#2",
          "ticks": 351120,
          "time": 274.3125,
          "velocity": 0.2047244094488189
        },
        {
          "duration": 0.07109374999998863,
          "durationTicks": 91,
          "midi": 46,
          "name": "A#2",
          "ticks": 351240,
          "time": 274.40625,
          "velocity": 0.3228346456692913
        },
        {
          "duration": 0.0718750000000341,
          "durationTicks": 92,
          "midi": 46,
          "name": "A#2",
          "ticks": 351360,
          "time": 274.5,
          "velocity": 0.3228346456692913
        },
        {
          "duration": 0.06796874999997726,
          "durationTicks": 87,
          "midi": 40,
          "name": "E2",
          "ticks": 352200,
          "time": 275.15625,
          "velocity": 0.25984251968503935
        },
        {
          "duration": 0.07109374999998863,
          "durationTicks": 91,
          "midi": 51,
          "name": "D#3",
          "ticks": 352200,
          "time": 275.15625,
          "velocity": 0.4015748031496063
        },
        {
          "duration": 0.0718750000000341,
          "durationTicks": 92,
          "midi": 51,
          "name": "D#3",
          "ticks": 352800,
          "time": 275.625,
          "velocity": 0.44881889763779526
        },
        {
          "duration": 0.021874999999965894,
          "durationTicks": 28,
          "midi": 44,
          "name": "G#2",
          "ticks": 353280,
          "time": 276,
          "velocity": 0.4330708661417323
        },
        {
          "duration": 0.0718750000000341,
          "durationTicks": 92,
          "midi": 51,
          "name": "D#3",
          "ticks": 353640,
          "time": 276.28125,
          "velocity": 0.44881889763779526
        },
        {
          "duration": 0.0718750000000341,
          "durationTicks": 92,
          "midi": 40,
          "name": "E2",
          "ticks": 354000,
          "time": 276.5625,
          "velocity": 0.16535433070866143
        },
        {
          "duration": 0.07109374999998863,
          "durationTicks": 91,
          "midi": 46,
          "name": "A#2",
          "ticks": 354240,
          "time": 276.75,
          "velocity": 0.33858267716535434
        },
        {
          "duration": 0.07109374999998863,
          "durationTicks": 91,
          "midi": 51,
          "name": "D#3",
          "ticks": 354720,
          "time": 277.125,
          "velocity": 0.3228346456692913
        },
        {
          "duration": 0.0703125,
          "durationTicks": 90,
          "midi": 40,
          "name": "E2",
          "ticks": 355080,
          "time": 277.40625,
          "velocity": 0.11023622047244094
        },
        {
          "duration": 0.07265625000002274,
          "durationTicks": 93,
          "midi": 51,
          "name": "D#3",
          "ticks": 355080,
          "time": 277.40625,
          "velocity": 0.4015748031496063
        },
        {
          "duration": 0.025000000000034106,
          "durationTicks": 32,
          "midi": 44,
          "name": "G#2",
          "ticks": 355560,
          "time": 277.78125,
          "velocity": 0.4330708661417323
        },
        {
          "duration": 0.0718750000000341,
          "durationTicks": 92,
          "midi": 40,
          "name": "E2",
          "ticks": 355680,
          "time": 277.875,
          "velocity": 0.4015748031496063
        },
        {
          "duration": 0.0718750000000341,
          "durationTicks": 92,
          "midi": 51,
          "name": "D#3",
          "ticks": 355680,
          "time": 277.875,
          "velocity": 0.4881889763779528
        },
        {
          "duration": 0.07109374999998863,
          "durationTicks": 91,
          "midi": 51,
          "name": "D#3",
          "ticks": 356160,
          "time": 278.25,
          "velocity": 0.3700787401574803
        },
        {
          "duration": 0.0703125,
          "durationTicks": 90,
          "midi": 40,
          "name": "E2",
          "ticks": 356520,
          "time": 278.53125,
          "velocity": 0.12598425196850394
        },
        {
          "duration": 0.0718750000000341,
          "durationTicks": 92,
          "midi": 51,
          "name": "D#3",
          "ticks": 356520,
          "time": 278.53125,
          "velocity": 0.4094488188976378
        },
        {
          "duration": 0.0718750000000341,
          "durationTicks": 92,
          "midi": 40,
          "name": "E2",
          "ticks": 357000,
          "time": 278.90625,
          "velocity": 0.15748031496062992
        },
        {
          "duration": 0.0687499999999659,
          "durationTicks": 88,
          "midi": 51,
          "name": "D#3",
          "ticks": 357000,
          "time": 278.90625,
          "velocity": 0.4251968503937008
        },
        {
          "duration": 0.0718750000000341,
          "durationTicks": 92,
          "midi": 51,
          "name": "D#3",
          "ticks": 357120,
          "time": 279,
          "velocity": 0.3937007874015748
        },
        {
          "duration": 0.07109374999998863,
          "durationTicks": 91,
          "midi": 40,
          "name": "E2",
          "ticks": 357480,
          "time": 279.28125,
          "velocity": 0.06299212598425197
        },
        {
          "duration": 0.07265625000002274,
          "durationTicks": 93,
          "midi": 51,
          "name": "D#3",
          "ticks": 357600,
          "time": 279.375,
          "velocity": 0.4251968503937008
        },
        {
          "duration": 0.0718750000000341,
          "durationTicks": 92,
          "midi": 51,
          "name": "D#3",
          "ticks": 358080,
          "time": 279.75,
          "velocity": 0.4409448818897638
        },
        {
          "duration": 0.02265625000001137,
          "durationTicks": 29,
          "midi": 44,
          "name": "G#2",
          "ticks": 358560,
          "time": 280.125,
          "velocity": 0.4330708661417323
        },
        {
          "duration": 0.07109374999998863,
          "durationTicks": 91,
          "midi": 40,
          "name": "E2",
          "ticks": 358800,
          "time": 280.3125,
          "velocity": 0.07874015748031496
        },
        {
          "duration": 0.0718750000000341,
          "durationTicks": 92,
          "midi": 51,
          "name": "D#3",
          "ticks": 358920,
          "time": 280.40625,
          "velocity": 0.4251968503937008
        },
        {
          "duration": 0.0687499999999659,
          "durationTicks": 88,
          "midi": 51,
          "name": "D#3",
          "ticks": 359040,
          "time": 280.5,
          "velocity": 0.4566929133858268
        },
        {
          "duration": 0.0234375,
          "durationTicks": 30,
          "midi": 44,
          "name": "G#2",
          "ticks": 359520,
          "time": 280.875,
          "velocity": 0.4330708661417323
        },
        {
          "duration": 0.07109374999998863,
          "durationTicks": 91,
          "midi": 46,
          "name": "A#2",
          "ticks": 359640,
          "time": 280.96875,
          "velocity": 0.2047244094488189
        },
        {
          "duration": 0.07109374999998863,
          "durationTicks": 91,
          "midi": 46,
          "name": "A#2",
          "ticks": 359880,
          "time": 281.15625,
          "velocity": 0.28346456692913385
        },
        {
          "duration": 0.07265625000002274,
          "durationTicks": 93,
          "midi": 46,
          "name": "A#2",
          "ticks": 360000,
          "time": 281.25,
          "velocity": 0.36220472440944884
        },
        {
          "duration": 0.07265625000002274,
          "durationTicks": 93,
          "midi": 51,
          "name": "D#3",
          "ticks": 360480,
          "time": 281.625,
          "velocity": 0.33858267716535434
        },
        {
          "duration": 0.0718750000000341,
          "durationTicks": 92,
          "midi": 51,
          "name": "D#3",
          "ticks": 360960,
          "time": 282,
          "velocity": 0.36220472440944884
        },
        {
          "duration": 0.021093749999977263,
          "durationTicks": 27,
          "midi": 44,
          "name": "G#2",
          "ticks": 361440,
          "time": 282.375,
          "velocity": 0.4330708661417323
        },
        {
          "duration": 0.0718750000000341,
          "durationTicks": 92,
          "midi": 51,
          "name": "D#3",
          "ticks": 361920,
          "time": 282.75,
          "velocity": 0.4094488188976378
        },
        {
          "duration": 0.0718750000000341,
          "durationTicks": 92,
          "midi": 51,
          "name": "D#3",
          "ticks": 362400,
          "time": 283.125,
          "velocity": 0.4330708661417323
        },
        {
          "duration": 0.0718750000000341,
          "durationTicks": 92,
          "midi": 51,
          "name": "D#3",
          "ticks": 362880,
          "time": 283.5,
          "velocity": 0.4330708661417323
        },
        {
          "duration": 0.02265625000001137,
          "durationTicks": 29,
          "midi": 44,
          "name": "G#2",
          "ticks": 363360,
          "time": 283.875,
          "velocity": 0.4330708661417323
        },
        {
          "duration": 0.0718750000000341,
          "durationTicks": 92,
          "midi": 51,
          "name": "D#3",
          "ticks": 363840,
          "time": 284.25,
          "velocity": 0.41732283464566927
        },
        {
          "duration": 0.07109374999998863,
          "durationTicks": 91,
          "midi": 51,
          "name": "D#3",
          "ticks": 364320,
          "time": 284.625,
          "velocity": 0.41732283464566927
        },
        {
          "duration": 0.0718750000000341,
          "durationTicks": 92,
          "midi": 51,
          "name": "D#3",
          "ticks": 364800,
          "time": 285,
          "velocity": 0.4409448818897638
        },
        {
          "duration": 0.021874999999965894,
          "durationTicks": 28,
          "midi": 44,
          "name": "G#2",
          "ticks": 365280,
          "time": 285.375,
          "velocity": 0.4330708661417323
        },
        {
          "duration": 0.07109374999998863,
          "durationTicks": 91,
          "midi": 40,
          "name": "E2",
          "ticks": 365640,
          "time": 285.65625,
          "velocity": 0.14173228346456693
        },
        {
          "duration": 0.07109374999998863,
          "durationTicks": 91,
          "midi": 51,
          "name": "D#3",
          "ticks": 365760,
          "time": 285.75,
          "velocity": 0.4015748031496063
        },
        {
          "duration": 0.02421874999998863,
          "durationTicks": 31,
          "midi": 44,
          "name": "G#2",
          "ticks": 366240,
          "time": 286.125,
          "velocity": 0.4330708661417323
        },
        {
          "duration": 0.0718750000000341,
          "durationTicks": 92,
          "midi": 40,
          "name": "E2",
          "ticks": 366600,
          "time": 286.40625,
          "velocity": 0.16535433070866143
        },
        {
          "duration": 0.0718750000000341,
          "durationTicks": 92,
          "midi": 51,
          "name": "D#3",
          "ticks": 366600,
          "time": 286.40625,
          "velocity": 0.4330708661417323
        },
        {
          "duration": 0.0718750000000341,
          "durationTicks": 92,
          "midi": 51,
          "name": "D#3",
          "ticks": 367200,
          "time": 286.875,
          "velocity": 0.4409448818897638
        },
        {
          "duration": 0.0234375,
          "durationTicks": 30,
          "midi": 44,
          "name": "G#2",
          "ticks": 367680,
          "time": 287.25,
          "velocity": 0.4330708661417323
        },
        {
          "duration": 0.0718750000000341,
          "durationTicks": 92,
          "midi": 40,
          "name": "E2",
          "ticks": 368040,
          "time": 287.53125,
          "velocity": 0.11023622047244094
        },
        {
          "duration": 0.07109374999998863,
          "durationTicks": 91,
          "midi": 51,
          "name": "D#3",
          "ticks": 368040,
          "time": 287.53125,
          "velocity": 0.4330708661417323
        },
        {
          "duration": 0.0718750000000341,
          "durationTicks": 92,
          "midi": 51,
          "name": "D#3",
          "ticks": 368160,
          "time": 287.625,
          "velocity": 0.3858267716535433
        },
        {
          "duration": 0.07109374999998863,
          "durationTicks": 91,
          "midi": 51,
          "name": "D#3",
          "ticks": 368640,
          "time": 288,
          "velocity": 0.4330708661417323
        },
        {
          "duration": 0.02421874999998863,
          "durationTicks": 31,
          "midi": 44,
          "name": "G#2",
          "ticks": 369120,
          "time": 288.375,
          "velocity": 0.4330708661417323
        },
        {
          "duration": 0.07109374999998863,
          "durationTicks": 91,
          "midi": 40,
          "name": "E2",
          "ticks": 369480,
          "time": 288.65625,
          "velocity": 0.06299212598425197
        },
        {
          "duration": 0.07109374999998863,
          "durationTicks": 91,
          "midi": 51,
          "name": "D#3",
          "ticks": 369480,
          "time": 288.65625,
          "velocity": 0.4330708661417323
        },
        {
          "duration": 0.0718750000000341,
          "durationTicks": 92,
          "midi": 51,
          "name": "D#3",
          "ticks": 369840,
          "time": 288.9375,
          "velocity": 0.33858267716535434
        },
        {
          "duration": 0.07265625000002274,
          "durationTicks": 93,
          "midi": 51,
          "name": "D#3",
          "ticks": 370080,
          "time": 289.125,
          "velocity": 0.47244094488188976
        },
        {
          "duration": 0.025000000000034106,
          "durationTicks": 32,
          "midi": 44,
          "name": "G#2",
          "ticks": 370560,
          "time": 289.5,
          "velocity": 0.4330708661417323
        },
        {
          "duration": 0.07109374999998863,
          "durationTicks": 91,
          "midi": 40,
          "name": "E2",
          "ticks": 370920,
          "time": 289.78125,
          "velocity": 0.07874015748031496
        },
        {
          "duration": 0.0718750000000341,
          "durationTicks": 92,
          "midi": 51,
          "name": "D#3",
          "ticks": 370920,
          "time": 289.78125,
          "velocity": 0.4015748031496063
        },
        {
          "duration": 0.0718750000000341,
          "durationTicks": 92,
          "midi": 51,
          "name": "D#3",
          "ticks": 371160,
          "time": 289.96875,
          "velocity": 0.31496062992125984
        },
        {
          "duration": 0.07109374999998863,
          "durationTicks": 91,
          "midi": 51,
          "name": "D#3",
          "ticks": 371520,
          "time": 290.25,
          "velocity": 0.47244094488188976
        },
        {
          "duration": 0.0234375,
          "durationTicks": 30,
          "midi": 44,
          "name": "G#2",
          "ticks": 372000,
          "time": 290.625,
          "velocity": 0.4330708661417323
        },
        {
          "duration": 0.0718750000000341,
          "durationTicks": 92,
          "midi": 40,
          "name": "E2",
          "ticks": 372360,
          "time": 290.90625,
          "velocity": 0.07874015748031496
        },
        {
          "duration": 0.06953125000001137,
          "durationTicks": 89,
          "midi": 51,
          "name": "D#3",
          "ticks": 372360,
          "time": 290.90625,
          "velocity": 0.41732283464566927
        },
        {
          "duration": 0.07265625000002274,
          "durationTicks": 93,
          "midi": 51,
          "name": "D#3",
          "ticks": 372480,
          "time": 291,
          "velocity": 0.4015748031496063
        },
        {
          "duration": 0.0718750000000341,
          "durationTicks": 92,
          "midi": 40,
          "name": "E2",
          "ticks": 372840,
          "time": 291.28125,
          "velocity": 0.06299212598425197
        },
        {
          "duration": 0.0718750000000341,
          "durationTicks": 92,
          "midi": 51,
          "name": "D#3",
          "ticks": 372960,
          "time": 291.375,
          "velocity": 0.4566929133858268
        },
        {
          "duration": 0.025000000000034106,
          "durationTicks": 32,
          "midi": 44,
          "name": "G#2",
          "ticks": 373440,
          "time": 291.75,
          "velocity": 0.4330708661417323
        },
        {
          "duration": 0.0718750000000341,
          "durationTicks": 92,
          "midi": 51,
          "name": "D#3",
          "ticks": 373440,
          "time": 291.75,
          "velocity": 0.3858267716535433
        },
        {
          "duration": 0.07109374999998863,
          "durationTicks": 91,
          "midi": 40,
          "name": "E2",
          "ticks": 373920,
          "time": 292.125,
          "velocity": 0.06299212598425197
        },
        {
          "duration": 0.07109374999998863,
          "durationTicks": 91,
          "midi": 51,
          "name": "D#3",
          "ticks": 373920,
          "time": 292.125,
          "velocity": 0.4251968503937008
        },
        {
          "duration": 0.07109374999998863,
          "durationTicks": 91,
          "midi": 40,
          "name": "E2",
          "ticks": 374400,
          "time": 292.5,
          "velocity": 0.16535433070866143
        },
        {
          "duration": 0.0718750000000341,
          "durationTicks": 92,
          "midi": 51,
          "name": "D#3",
          "ticks": 374400,
          "time": 292.5,
          "velocity": 0.48031496062992124
        },
        {
          "duration": 0.0234375,
          "durationTicks": 30,
          "midi": 44,
          "name": "G#2",
          "ticks": 374880,
          "time": 292.875,
          "velocity": 0.4330708661417323
        },
        {
          "duration": 0.07109374999998863,
          "durationTicks": 91,
          "midi": 40,
          "name": "E2",
          "ticks": 375240,
          "time": 293.15625,
          "velocity": 0.2283464566929134
        },
        {
          "duration": 0.07109374999998863,
          "durationTicks": 91,
          "midi": 51,
          "name": "D#3",
          "ticks": 375240,
          "time": 293.15625,
          "velocity": 0.44881889763779526
        },
        {
          "duration": 0.07109374999998863,
          "durationTicks": 91,
          "midi": 40,
          "name": "E2",
          "ticks": 375840,
          "time": 293.625,
          "velocity": 0.31496062992125984
        },
        {
          "duration": 0.07109374999998863,
          "durationTicks": 91,
          "midi": 51,
          "name": "D#3",
          "ticks": 375840,
          "time": 293.625,
          "velocity": 0.48031496062992124
        },
        {
          "duration": 0.02265625000001137,
          "durationTicks": 29,
          "midi": 44,
          "name": "G#2",
          "ticks": 376320,
          "time": 294,
          "velocity": 0.4330708661417323
        },
        {
          "duration": 0.07109374999998863,
          "durationTicks": 91,
          "midi": 40,
          "name": "E2",
          "ticks": 376680,
          "time": 294.28125,
          "velocity": 0.3779527559055118
        },
        {
          "duration": 0.07109374999998863,
          "durationTicks": 91,
          "midi": 51,
          "name": "D#3",
          "ticks": 376680,
          "time": 294.28125,
          "velocity": 0.4645669291338583
        },
        {
          "duration": 0.06953125000001137,
          "durationTicks": 89,
          "midi": 46,
          "name": "A#2",
          "ticks": 377280,
          "time": 294.75,
          "velocity": 0.2204724409448819
        },
        {
          "duration": 0.0718750000000341,
          "durationTicks": 92,
          "midi": 46,
          "name": "A#2",
          "ticks": 377280,
          "time": 294.75,
          "velocity": 0.3228346456692913
        },
        {
          "duration": 0.02265625000001137,
          "durationTicks": 29,
          "midi": 44,
          "name": "G#2",
          "ticks": 377760,
          "time": 295.125,
          "velocity": 0.4330708661417323
        },
        {
          "duration": 0.06953125000001137,
          "durationTicks": 89,
          "midi": 40,
          "name": "E2",
          "ticks": 378120,
          "time": 295.40625,
          "velocity": 0.1968503937007874
        },
        {
          "duration": 0.06953125000001137,
          "durationTicks": 89,
          "midi": 51,
          "name": "D#3",
          "ticks": 378120,
          "time": 295.40625,
          "velocity": 0.3858267716535433
        },
        {
          "duration": 0.02265625000001137,
          "durationTicks": 29,
          "midi": 44,
          "name": "G#2",
          "ticks": 378600,
          "time": 295.78125,
          "velocity": 0.4330708661417323
        },
        {
          "duration": 0.07109374999998863,
          "durationTicks": 91,
          "midi": 40,
          "name": "E2",
          "ticks": 378720,
          "time": 295.875,
          "velocity": 0.5039370078740157
        },
        {
          "duration": 0.07109374999998863,
          "durationTicks": 91,
          "midi": 51,
          "name": "D#3",
          "ticks": 378720,
          "time": 295.875,
          "velocity": 0.5118110236220472
        },
        {
          "duration": 0.07109374999998863,
          "durationTicks": 91,
          "midi": 51,
          "name": "D#3",
          "ticks": 379200,
          "time": 296.25,
          "velocity": 0.33858267716535434
        },
        {
          "duration": 0.07109374999998863,
          "durationTicks": 91,
          "midi": 40,
          "name": "E2",
          "ticks": 379560,
          "time": 296.53125,
          "velocity": 0.2125984251968504
        },
        {
          "duration": 0.0718750000000341,
          "durationTicks": 92,
          "midi": 51,
          "name": "D#3",
          "ticks": 379560,
          "time": 296.53125,
          "velocity": 0.4015748031496063
        },
        {
          "duration": 0.07109374999998863,
          "durationTicks": 91,
          "midi": 51,
          "name": "D#3",
          "ticks": 379680,
          "time": 296.625,
          "velocity": 0.3937007874015748
        },
        {
          "duration": 0.07109374999998863,
          "durationTicks": 91,
          "midi": 40,
          "name": "E2",
          "ticks": 380040,
          "time": 296.90625,
          "velocity": 0.06299212598425197
        },
        {
          "duration": 0.07109374999998863,
          "durationTicks": 91,
          "midi": 35,
          "name": "B1",
          "ticks": 380160,
          "time": 297,
          "velocity": 0.3700787401574803
        },
        {
          "duration": 0.07109374999998863,
          "durationTicks": 91,
          "midi": 46,
          "name": "A#2",
          "ticks": 380160,
          "time": 297,
          "velocity": 0.3700787401574803
        },
        {
          "duration": 0.0718750000000341,
          "durationTicks": 92,
          "midi": 51,
          "name": "D#3",
          "ticks": 380640,
          "time": 297.375,
          "velocity": 0.4015748031496063
        },
        {
          "duration": 0.07109374999998863,
          "durationTicks": 91,
          "midi": 40,
          "name": "E2",
          "ticks": 381000,
          "time": 297.65625,
          "velocity": 0.3779527559055118
        },
        {
          "duration": 0.06953125000001137,
          "durationTicks": 89,
          "midi": 51,
          "name": "D#3",
          "ticks": 381000,
          "time": 297.65625,
          "velocity": 0.4251968503937008
        },
        {
          "duration": 0.06953125000001137,
          "durationTicks": 89,
          "midi": 51,
          "name": "D#3",
          "ticks": 381120,
          "time": 297.75,
          "velocity": 0.3464566929133858
        },
        {
          "duration": 0.07109374999998863,
          "durationTicks": 91,
          "midi": 40,
          "name": "E2",
          "ticks": 381480,
          "time": 298.03125,
          "velocity": 0.5354330708661418
        },
        {
          "duration": 0.07109374999998863,
          "durationTicks": 91,
          "midi": 51,
          "name": "D#3",
          "ticks": 381600,
          "time": 298.125,
          "velocity": 0.33858267716535434
        },
        {
          "duration": 0.07265625000002274,
          "durationTicks": 93,
          "midi": 40,
          "name": "E2",
          "ticks": 381960,
          "time": 298.40625,
          "velocity": 0.25984251968503935
        },
        {
          "duration": 0.0718750000000341,
          "durationTicks": 92,
          "midi": 40,
          "name": "E2",
          "ticks": 382080,
          "time": 298.5,
          "velocity": 0.06299212598425197
        },
        {
          "duration": 0.07109374999998863,
          "durationTicks": 91,
          "midi": 40,
          "name": "E2",
          "ticks": 382200,
          "time": 298.59375,
          "velocity": 0.15748031496062992
        },
        {
          "duration": 0.07109374999998863,
          "durationTicks": 91,
          "midi": 40,
          "name": "E2",
          "ticks": 382440,
          "time": 298.78125,
          "velocity": 0.6062992125984252
        },
        {
          "duration": 0.07265625000002274,
          "durationTicks": 93,
          "midi": 40,
          "name": "E2",
          "ticks": 382560,
          "time": 298.875,
          "velocity": 0.6850393700787402
        },
        {
          "duration": 0.07109374999998863,
          "durationTicks": 91,
          "midi": 35,
          "name": "B1",
          "ticks": 382920,
          "time": 299.15625,
          "velocity": 0.31496062992125984
        },
        {
          "duration": 0.07109374999998863,
          "durationTicks": 91,
          "midi": 35,
          "name": "B1",
          "ticks": 383040,
          "time": 299.25,
          "velocity": 0.47244094488188976
        },
        {
          "duration": 0.07109374999998863,
          "durationTicks": 91,
          "midi": 55,
          "name": "G3",
          "ticks": 383040,
          "time": 299.25,
          "velocity": 0.6141732283464567
        },
        {
          "duration": 0.025781250000022737,
          "durationTicks": 33,
          "midi": 44,
          "name": "G#2",
          "ticks": 383520,
          "time": 299.625,
          "velocity": 0.4330708661417323
        },
        {
          "duration": 0.0718750000000341,
          "durationTicks": 92,
          "midi": 51,
          "name": "D#3",
          "ticks": 383520,
          "time": 299.625,
          "velocity": 0.3700787401574803
        },
        {
          "duration": 0.0687499999999659,
          "durationTicks": 88,
          "midi": 40,
          "name": "E2",
          "ticks": 383880,
          "time": 299.90625,
          "velocity": 0.06299212598425197
        },
        {
          "duration": 0.02265625000001137,
          "durationTicks": 29,
          "midi": 44,
          "name": "G#2",
          "ticks": 384000,
          "time": 300,
          "velocity": 0.4330708661417323
        },
        {
          "duration": 0.07109374999998863,
          "durationTicks": 91,
          "midi": 51,
          "name": "D#3",
          "ticks": 384000,
          "time": 300,
          "velocity": 0.3700787401574803
        },
        {
          "duration": 0.0718750000000341,
          "durationTicks": 92,
          "midi": 51,
          "name": "D#3",
          "ticks": 384480,
          "time": 300.375,
          "velocity": 0.33858267716535434
        },
        {
          "duration": 0.02421874999998863,
          "durationTicks": 31,
          "midi": 44,
          "name": "G#2",
          "ticks": 384960,
          "time": 300.75,
          "velocity": 0.4330708661417323
        },
        {
          "duration": 0.07109374999998863,
          "durationTicks": 91,
          "midi": 51,
          "name": "D#3",
          "ticks": 384960,
          "time": 300.75,
          "velocity": 0.36220472440944884
        },
        {
          "duration": 0.07109374999998863,
          "durationTicks": 91,
          "midi": 40,
          "name": "E2",
          "ticks": 385320,
          "time": 301.03125,
          "velocity": 0.06299212598425197
        },
        {
          "duration": 0.0234375,
          "durationTicks": 30,
          "midi": 44,
          "name": "G#2",
          "ticks": 385440,
          "time": 301.125,
          "velocity": 0.4330708661417323
        },
        {
          "duration": 0.06953125000001137,
          "durationTicks": 89,
          "midi": 51,
          "name": "D#3",
          "ticks": 385440,
          "time": 301.125,
          "velocity": 0.3779527559055118
        },
        {
          "duration": 0.0718750000000341,
          "durationTicks": 92,
          "midi": 51,
          "name": "D#3",
          "ticks": 385920,
          "time": 301.5,
          "velocity": 0.3858267716535433
        },
        {
          "duration": 0.0234375,
          "durationTicks": 30,
          "midi": 44,
          "name": "G#2",
          "ticks": 386400,
          "time": 301.875,
          "velocity": 0.4330708661417323
        },
        {
          "duration": 0.06953125000001137,
          "durationTicks": 89,
          "midi": 51,
          "name": "D#3",
          "ticks": 386400,
          "time": 301.875,
          "velocity": 0.4015748031496063
        },
        {
          "duration": 0.07109374999998863,
          "durationTicks": 91,
          "midi": 40,
          "name": "E2",
          "ticks": 386760,
          "time": 302.15625,
          "velocity": 0.15748031496062992
        },
        {
          "duration": 0.07109374999998863,
          "durationTicks": 91,
          "midi": 51,
          "name": "D#3",
          "ticks": 386760,
          "time": 302.15625,
          "velocity": 0.41732283464566927
        },
        {
          "duration": 0.0234375,
          "durationTicks": 30,
          "midi": 44,
          "name": "G#2",
          "ticks": 386880,
          "time": 302.25,
          "velocity": 0.4330708661417323
        },
        {
          "duration": 0.07109374999998863,
          "durationTicks": 91,
          "midi": 40,
          "name": "E2",
          "ticks": 387240,
          "time": 302.53125,
          "velocity": 0.14173228346456693
        },
        {
          "duration": 0.07109374999998863,
          "durationTicks": 91,
          "midi": 51,
          "name": "D#3",
          "ticks": 387240,
          "time": 302.53125,
          "velocity": 0.3700787401574803
        },
        {
          "duration": 0.07109374999998863,
          "durationTicks": 91,
          "midi": 51,
          "name": "D#3",
          "ticks": 387360,
          "time": 302.625,
          "velocity": 0.3937007874015748
        },
        {
          "duration": 0.0718750000000341,
          "durationTicks": 92,
          "midi": 40,
          "name": "E2",
          "ticks": 387720,
          "time": 302.90625,
          "velocity": 0.06299212598425197
        },
        {
          "duration": 0.02265625000001137,
          "durationTicks": 29,
          "midi": 44,
          "name": "G#2",
          "ticks": 387840,
          "time": 303,
          "velocity": 0.4330708661417323
        },
        {
          "duration": 0.0718750000000341,
          "durationTicks": 92,
          "midi": 51,
          "name": "D#3",
          "ticks": 387840,
          "time": 303,
          "velocity": 0.3858267716535433
        },
        {
          "duration": 0.07109374999998863,
          "durationTicks": 91,
          "midi": 40,
          "name": "E2",
          "ticks": 388200,
          "time": 303.28125,
          "velocity": 0.16535433070866143
        },
        {
          "duration": 0.06953125000001137,
          "durationTicks": 89,
          "midi": 51,
          "name": "D#3",
          "ticks": 388200,
          "time": 303.28125,
          "velocity": 0.4251968503937008
        },
        {
          "duration": 0.0718750000000341,
          "durationTicks": 92,
          "midi": 40,
          "name": "E2",
          "ticks": 388680,
          "time": 303.65625,
          "velocity": 0.1968503937007874
        },
        {
          "duration": 0.07109374999998863,
          "durationTicks": 91,
          "midi": 51,
          "name": "D#3",
          "ticks": 388680,
          "time": 303.65625,
          "velocity": 0.3858267716535433
        },
        {
          "duration": 0.07109374999998863,
          "durationTicks": 91,
          "midi": 51,
          "name": "D#3",
          "ticks": 388800,
          "time": 303.75,
          "velocity": 0.3937007874015748
        },
        {
          "duration": 0.0234375,
          "durationTicks": 30,
          "midi": 44,
          "name": "G#2",
          "ticks": 389280,
          "time": 304.125,
          "velocity": 0.4330708661417323
        },
        {
          "duration": 0.07109374999998863,
          "durationTicks": 91,
          "midi": 51,
          "name": "D#3",
          "ticks": 389280,
          "time": 304.125,
          "velocity": 0.3937007874015748
        },
        {
          "duration": 0.0718750000000341,
          "durationTicks": 92,
          "midi": 40,
          "name": "E2",
          "ticks": 389640,
          "time": 304.40625,
          "velocity": 0.06299212598425197
        },
        {
          "duration": 0.07109374999998863,
          "durationTicks": 91,
          "midi": 51,
          "name": "D#3",
          "ticks": 389640,
          "time": 304.40625,
          "velocity": 0.4094488188976378
        },
        {
          "duration": 0.021874999999965894,
          "durationTicks": 28,
          "midi": 44,
          "name": "G#2",
          "ticks": 389760,
          "time": 304.5,
          "velocity": 0.4330708661417323
        },
        {
          "duration": 0.07109374999998863,
          "durationTicks": 91,
          "midi": 51,
          "name": "D#3",
          "ticks": 389760,
          "time": 304.5,
          "velocity": 0.3700787401574803
        },
        {
          "duration": 0.0718750000000341,
          "durationTicks": 92,
          "midi": 51,
          "name": "D#3",
          "ticks": 390240,
          "time": 304.875,
          "velocity": 0.4330708661417323
        },
        {
          "duration": 0.02265625000001137,
          "durationTicks": 29,
          "midi": 44,
          "name": "G#2",
          "ticks": 390720,
          "time": 305.25,
          "velocity": 0.4330708661417323
        },
        {
          "duration": 0.07109374999998863,
          "durationTicks": 91,
          "midi": 51,
          "name": "D#3",
          "ticks": 390720,
          "time": 305.25,
          "velocity": 0.4251968503937008
        },
        {
          "duration": 0.07265625000002274,
          "durationTicks": 93,
          "midi": 40,
          "name": "E2",
          "ticks": 391080,
          "time": 305.53125,
          "velocity": 0.1968503937007874
        },
        {
          "duration": 0.07109374999998863,
          "durationTicks": 91,
          "midi": 51,
          "name": "D#3",
          "ticks": 391080,
          "time": 305.53125,
          "velocity": 0.4094488188976378
        },
        {
          "duration": 0.0234375,
          "durationTicks": 30,
          "midi": 44,
          "name": "G#2",
          "ticks": 391200,
          "time": 305.625,
          "velocity": 0.4330708661417323
        },
        {
          "duration": 0.0718750000000341,
          "durationTicks": 92,
          "midi": 51,
          "name": "D#3",
          "ticks": 391200,
          "time": 305.625,
          "velocity": 0.4015748031496063
        },
        {
          "duration": 0.0703125,
          "durationTicks": 90,
          "midi": 51,
          "name": "D#3",
          "ticks": 391680,
          "time": 306,
          "velocity": 0.44881889763779526
        },
        {
          "duration": 0.02421874999998863,
          "durationTicks": 31,
          "midi": 44,
          "name": "G#2",
          "ticks": 392160,
          "time": 306.375,
          "velocity": 0.4330708661417323
        },
        {
          "duration": 0.07265625000002274,
          "durationTicks": 93,
          "midi": 51,
          "name": "D#3",
          "ticks": 392160,
          "time": 306.375,
          "velocity": 0.41732283464566927
        },
        {
          "duration": 0.07109374999998863,
          "durationTicks": 91,
          "midi": 40,
          "name": "E2",
          "ticks": 392520,
          "time": 306.65625,
          "velocity": 0.25984251968503935
        },
        {
          "duration": 0.07109374999998863,
          "durationTicks": 91,
          "midi": 51,
          "name": "D#3",
          "ticks": 392520,
          "time": 306.65625,
          "velocity": 0.4015748031496063
        },
        {
          "duration": 0.07109374999998863,
          "durationTicks": 91,
          "midi": 51,
          "name": "D#3",
          "ticks": 392640,
          "time": 306.75,
          "velocity": 0.4094488188976378
        },
        {
          "duration": 0.07109374999998863,
          "durationTicks": 91,
          "midi": 40,
          "name": "E2",
          "ticks": 392880,
          "time": 306.9375,
          "velocity": 0.09448818897637795
        },
        {
          "duration": 0.07109374999998863,
          "durationTicks": 91,
          "midi": 40,
          "name": "E2",
          "ticks": 393000,
          "time": 307.03125,
          "velocity": 0.25984251968503935
        },
        {
          "duration": 0.0718750000000341,
          "durationTicks": 92,
          "midi": 35,
          "name": "B1",
          "ticks": 393120,
          "time": 307.125,
          "velocity": 0.31496062992125984
        },
        {
          "duration": 0.07109374999998863,
          "durationTicks": 91,
          "midi": 46,
          "name": "A#2",
          "ticks": 393120,
          "time": 307.125,
          "velocity": 0.3700787401574803
        },
        {
          "duration": 0.07265625000002274,
          "durationTicks": 93,
          "midi": 51,
          "name": "D#3",
          "ticks": 393600,
          "time": 307.5,
          "velocity": 0.4251968503937008
        },
        {
          "duration": 0.06953125000001137,
          "durationTicks": 89,
          "midi": 35,
          "name": "B1",
          "ticks": 393960,
          "time": 307.78125,
          "velocity": 0.3228346456692913
        },
        {
          "duration": 0.07109374999998863,
          "durationTicks": 91,
          "midi": 46,
          "name": "A#2",
          "ticks": 393960,
          "time": 307.78125,
          "velocity": 0.3700787401574803
        },
        {
          "duration": 0.07109374999998863,
          "durationTicks": 91,
          "midi": 40,
          "name": "E2",
          "ticks": 394440,
          "time": 308.15625,
          "velocity": 0.2992125984251969
        },
        {
          "duration": 0.0687499999999659,
          "durationTicks": 88,
          "midi": 35,
          "name": "B1",
          "ticks": 394560,
          "time": 308.25,
          "velocity": 0.33858267716535434
        },
        {
          "duration": 0.07109374999998863,
          "durationTicks": 91,
          "midi": 55,
          "name": "G3",
          "ticks": 394560,
          "time": 308.25,
          "velocity": 0.3464566929133858
        },
        {
          "duration": 0.0718750000000341,
          "durationTicks": 92,
          "midi": 51,
          "name": "D#3",
          "ticks": 395040,
          "time": 308.625,
          "velocity": 0.4015748031496063
        },
        {
          "duration": 0.0718750000000341,
          "durationTicks": 92,
          "midi": 40,
          "name": "E2",
          "ticks": 395400,
          "time": 308.90625,
          "velocity": 0.11023622047244094
        },
        {
          "duration": 0.07109374999998863,
          "durationTicks": 91,
          "midi": 51,
          "name": "D#3",
          "ticks": 395400,
          "time": 308.90625,
          "velocity": 0.3858267716535433
        },
        {
          "duration": 0.0718750000000341,
          "durationTicks": 92,
          "midi": 51,
          "name": "D#3",
          "ticks": 395520,
          "time": 309,
          "velocity": 0.3779527559055118
        },
        {
          "duration": 0.025000000000034106,
          "durationTicks": 32,
          "midi": 44,
          "name": "G#2",
          "ticks": 395880,
          "time": 309.28125,
          "velocity": 0.4330708661417323
        },
        {
          "duration": 0.07109374999998863,
          "durationTicks": 91,
          "midi": 40,
          "name": "E2",
          "ticks": 396000,
          "time": 309.375,
          "velocity": 0.41732283464566927
        },
        {
          "duration": 0.07109374999998863,
          "durationTicks": 91,
          "midi": 51,
          "name": "D#3",
          "ticks": 396000,
          "time": 309.375,
          "velocity": 0.5118110236220472
        },
        {
          "duration": 0.0687499999999659,
          "durationTicks": 88,
          "midi": 40,
          "name": "E2",
          "ticks": 396360,
          "time": 309.65625,
          "velocity": 0.06299212598425197
        },
        {
          "duration": 0.07109374999998863,
          "durationTicks": 91,
          "midi": 51,
          "name": "D#3",
          "ticks": 396480,
          "time": 309.75,
          "velocity": 0.4251968503937008
        },
        {
          "duration": 0.07109374999998863,
          "durationTicks": 91,
          "midi": 40,
          "name": "E2",
          "ticks": 396840,
          "time": 310.03125,
          "velocity": 0.2440944881889764
        },
        {
          "duration": 0.0718750000000341,
          "durationTicks": 92,
          "midi": 51,
          "name": "D#3",
          "ticks": 396840,
          "time": 310.03125,
          "velocity": 0.4094488188976378
        },
        {
          "duration": 0.0718750000000341,
          "durationTicks": 92,
          "midi": 51,
          "name": "D#3",
          "ticks": 396960,
          "time": 310.125,
          "velocity": 0.4015748031496063
        },
        {
          "duration": 0.07109374999998863,
          "durationTicks": 91,
          "midi": 40,
          "name": "E2",
          "ticks": 397080,
          "time": 310.21875,
          "velocity": 0.06299212598425197
        },
        {
          "duration": 0.0718750000000341,
          "durationTicks": 92,
          "midi": 40,
          "name": "E2",
          "ticks": 397200,
          "time": 310.3125,
          "velocity": 0.28346456692913385
        },
        {
          "duration": 0.0718750000000341,
          "durationTicks": 92,
          "midi": 35,
          "name": "B1",
          "ticks": 397440,
          "time": 310.5,
          "velocity": 0.31496062992125984
        },
        {
          "duration": 0.07109374999998863,
          "durationTicks": 91,
          "midi": 51,
          "name": "D#3",
          "ticks": 397440,
          "time": 310.5,
          "velocity": 0.4645669291338583
        },
        {
          "duration": 0.07109374999998863,
          "durationTicks": 91,
          "midi": 35,
          "name": "B1",
          "ticks": 397920,
          "time": 310.875,
          "velocity": 0.31496062992125984
        },
        {
          "duration": 0.07109374999998863,
          "durationTicks": 91,
          "midi": 51,
          "name": "D#3",
          "ticks": 397920,
          "time": 310.875,
          "velocity": 0.4409448818897638
        },
        {
          "duration": 0.07109374999998863,
          "durationTicks": 91,
          "midi": 35,
          "name": "B1",
          "ticks": 398400,
          "time": 311.25,
          "velocity": 0.3700787401574803
        },
        {
          "duration": 0.07109374999998863,
          "durationTicks": 91,
          "midi": 51,
          "name": "D#3",
          "ticks": 398400,
          "time": 311.25,
          "velocity": 0.4645669291338583
        },
        {
          "duration": 0.07109374999998863,
          "durationTicks": 91,
          "midi": 40,
          "name": "E2",
          "ticks": 398880,
          "time": 311.625,
          "velocity": 0.5039370078740157
        },
        {
          "duration": 0.06953125000001137,
          "durationTicks": 89,
          "midi": 51,
          "name": "D#3",
          "ticks": 398880,
          "time": 311.625,
          "velocity": 0.47244094488188976
        },
        {
          "duration": 0.0234375,
          "durationTicks": 30,
          "midi": 44,
          "name": "G#2",
          "ticks": 399360,
          "time": 312,
          "velocity": 0.4330708661417323
        },
        {
          "duration": 0.0718750000000341,
          "durationTicks": 92,
          "midi": 51,
          "name": "D#3",
          "ticks": 399360,
          "time": 312,
          "velocity": 0.4251968503937008
        },
        {
          "duration": 0.07109374999998863,
          "durationTicks": 91,
          "midi": 40,
          "name": "E2",
          "ticks": 399720,
          "time": 312.28125,
          "velocity": 0.36220472440944884
        },
        {
          "duration": 0.0718750000000341,
          "durationTicks": 92,
          "midi": 51,
          "name": "D#3",
          "ticks": 399720,
          "time": 312.28125,
          "velocity": 0.47244094488188976
        },
        {
          "duration": 0.0718750000000341,
          "durationTicks": 92,
          "midi": 40,
          "name": "E2",
          "ticks": 400080,
          "time": 312.5625,
          "velocity": 0.06299212598425197
        },
        {
          "duration": 0.07109374999998863,
          "durationTicks": 91,
          "midi": 40,
          "name": "E2",
          "ticks": 400200,
          "time": 312.65625,
          "velocity": 0.28346456692913385
        },
        {
          "duration": 0.07109374999998863,
          "durationTicks": 91,
          "midi": 35,
          "name": "B1",
          "ticks": 400320,
          "time": 312.75,
          "velocity": 0.3858267716535433
        },
        {
          "duration": 0.07109374999998863,
          "durationTicks": 91,
          "midi": 46,
          "name": "A#2",
          "ticks": 400320,
          "time": 312.75,
          "velocity": 0.4251968503937008
        },
        {
          "duration": 0.0718750000000341,
          "durationTicks": 92,
          "midi": 51,
          "name": "D#3",
          "ticks": 400800,
          "time": 313.125,
          "velocity": 0.3700787401574803
        },
        {
          "duration": 0.06953125000001137,
          "durationTicks": 89,
          "midi": 40,
          "name": "E2",
          "ticks": 401160,
          "time": 313.40625,
          "velocity": 0.06299212598425197
        },
        {
          "duration": 0.0718750000000341,
          "durationTicks": 92,
          "midi": 51,
          "name": "D#3",
          "ticks": 401160,
          "time": 313.40625,
          "velocity": 0.3700787401574803
        },
        {
          "duration": 0.07109374999998863,
          "durationTicks": 91,
          "midi": 51,
          "name": "D#3",
          "ticks": 401280,
          "time": 313.5,
          "velocity": 0.33858267716535434
        },
        {
          "duration": 0.0234375,
          "durationTicks": 30,
          "midi": 44,
          "name": "G#2",
          "ticks": 401640,
          "time": 313.78125,
          "velocity": 0.4330708661417323
        },
        {
          "duration": 0.07109374999998863,
          "durationTicks": 91,
          "midi": 40,
          "name": "E2",
          "ticks": 401760,
          "time": 313.875,
          "velocity": 0.5354330708661418
        },
        {
          "duration": 0.07109374999998863,
          "durationTicks": 91,
          "midi": 51,
          "name": "D#3",
          "ticks": 401760,
          "time": 313.875,
          "velocity": 0.5118110236220472
        },
        {
          "duration": 0.06953125000001137,
          "durationTicks": 89,
          "midi": 51,
          "name": "D#3",
          "ticks": 402240,
          "time": 314.25,
          "velocity": 0.36220472440944884
        },
        {
          "duration": 0.07109374999998863,
          "durationTicks": 91,
          "midi": 51,
          "name": "D#3",
          "ticks": 402720,
          "time": 314.625,
          "velocity": 0.4094488188976378
        },
        {
          "duration": 0.07265625000002274,
          "durationTicks": 93,
          "midi": 51,
          "name": "D#3",
          "ticks": 403200,
          "time": 315,
          "velocity": 0.3779527559055118
        },
        {
          "duration": 0.0718750000000341,
          "durationTicks": 92,
          "midi": 46,
          "name": "A#2",
          "ticks": 403320,
          "time": 315.09375,
          "velocity": 0.1968503937007874
        },
        {
          "duration": 0.07109374999998863,
          "durationTicks": 91,
          "midi": 46,
          "name": "A#2",
          "ticks": 403440,
          "time": 315.1875,
          "velocity": 0.25984251968503935
        },
        {
          "duration": 0.0687499999999659,
          "durationTicks": 88,
          "midi": 46,
          "name": "A#2",
          "ticks": 403560,
          "time": 315.28125,
          "velocity": 0.3464566929133858
        },
        {
          "duration": 0.07109374999998863,
          "durationTicks": 91,
          "midi": 46,
          "name": "A#2",
          "ticks": 403680,
          "time": 315.375,
          "velocity": 0.41732283464566927
        },
        {
          "duration": 0.0718750000000341,
          "durationTicks": 92,
          "midi": 46,
          "name": "A#2",
          "ticks": 404640,
          "time": 316.125,
          "velocity": 0.33070866141732286
        },
        {
          "duration": 0.07265625000002274,
          "durationTicks": 93,
          "midi": 46,
          "name": "A#2",
          "ticks": 405480,
          "time": 316.78125,
          "velocity": 0.23622047244094488
        },
        {
          "duration": 0.07109374999998863,
          "durationTicks": 91,
          "midi": 55,
          "name": "G3",
          "ticks": 406080,
          "time": 317.25,
          "velocity": 0.2755905511811024
        },
        {
          "duration": 0.0703125,
          "durationTicks": 90,
          "midi": 51,
          "name": "D#3",
          "ticks": 406560,
          "time": 317.625,
          "velocity": 0.31496062992125984
        },
        {
          "duration": 0.07265625000002274,
          "durationTicks": 93,
          "midi": 51,
          "name": "D#3",
          "ticks": 407040,
          "time": 318,
          "velocity": 0.3464566929133858
        },
        {
          "duration": 0.07109374999998863,
          "durationTicks": 91,
          "midi": 51,
          "name": "D#3",
          "ticks": 407520,
          "time": 318.375,
          "velocity": 0.3779527559055118
        },
        {
          "duration": 0.02421874999998863,
          "durationTicks": 31,
          "midi": 44,
          "name": "G#2",
          "ticks": 408000,
          "time": 318.75,
          "velocity": 0.4330708661417323
        },
        {
          "duration": 0.0718750000000341,
          "durationTicks": 92,
          "midi": 51,
          "name": "D#3",
          "ticks": 408360,
          "time": 319.03125,
          "velocity": 0.3858267716535433
        },
        {
          "duration": 0.07109374999998863,
          "durationTicks": 91,
          "midi": 51,
          "name": "D#3",
          "ticks": 408840,
          "time": 319.40625,
          "velocity": 0.3858267716535433
        },
        {
          "duration": 0.07109374999998863,
          "durationTicks": 91,
          "midi": 51,
          "name": "D#3",
          "ticks": 408960,
          "time": 319.5,
          "velocity": 0.3779527559055118
        },
        {
          "duration": 0.02265625000001137,
          "durationTicks": 29,
          "midi": 44,
          "name": "G#2",
          "ticks": 409440,
          "time": 319.875,
          "velocity": 0.4330708661417323
        },
        {
          "duration": 0.07109374999998863,
          "durationTicks": 91,
          "midi": 40,
          "name": "E2",
          "ticks": 409800,
          "time": 320.15625,
          "velocity": 0.14173228346456693
        },
        {
          "duration": 0.07109374999998863,
          "durationTicks": 91,
          "midi": 51,
          "name": "D#3",
          "ticks": 409800,
          "time": 320.15625,
          "velocity": 0.4330708661417323
        },
        {
          "duration": 0.07109374999998863,
          "durationTicks": 91,
          "midi": 40,
          "name": "E2",
          "ticks": 410280,
          "time": 320.53125,
          "velocity": 0.06299212598425197
        },
        {
          "duration": 0.07109374999998863,
          "durationTicks": 91,
          "midi": 51,
          "name": "D#3",
          "ticks": 410280,
          "time": 320.53125,
          "velocity": 0.3700787401574803
        },
        {
          "duration": 0.07109374999998863,
          "durationTicks": 91,
          "midi": 51,
          "name": "D#3",
          "ticks": 410400,
          "time": 320.625,
          "velocity": 0.4251968503937008
        },
        {
          "duration": 0.07109374999998863,
          "durationTicks": 91,
          "midi": 40,
          "name": "E2",
          "ticks": 410760,
          "time": 320.90625,
          "velocity": 0.07874015748031496
        },
        {
          "duration": 0.025000000000034106,
          "durationTicks": 32,
          "midi": 44,
          "name": "G#2",
          "ticks": 410880,
          "time": 321,
          "velocity": 0.4330708661417323
        },
        {
          "duration": 0.0718750000000341,
          "durationTicks": 92,
          "midi": 51,
          "name": "D#3",
          "ticks": 410880,
          "time": 321,
          "velocity": 0.3700787401574803
        },
        {
          "duration": 0.06953125000001137,
          "durationTicks": 89,
          "midi": 40,
          "name": "E2",
          "ticks": 411240,
          "time": 321.28125,
          "velocity": 0.25984251968503935
        },
        {
          "duration": 0.0703125,
          "durationTicks": 90,
          "midi": 51,
          "name": "D#3",
          "ticks": 411240,
          "time": 321.28125,
          "velocity": 0.4409448818897638
        },
        {
          "duration": 0.06953125000001137,
          "durationTicks": 89,
          "midi": 40,
          "name": "E2",
          "ticks": 411600,
          "time": 321.5625,
          "velocity": 0.09448818897637795
        },
        {
          "duration": 0.07109374999998863,
          "durationTicks": 91,
          "midi": 40,
          "name": "E2",
          "ticks": 411720,
          "time": 321.65625,
          "velocity": 0.2992125984251969
        },
        {
          "duration": 0.07265625000002274,
          "durationTicks": 93,
          "midi": 35,
          "name": "B1",
          "ticks": 411840,
          "time": 321.75,
          "velocity": 0.3228346456692913
        },
        {
          "duration": 0.07265625000002274,
          "durationTicks": 93,
          "midi": 51,
          "name": "D#3",
          "ticks": 411840,
          "time": 321.75,
          "velocity": 0.4566929133858268
        },
        {
          "duration": 0.02265625000001137,
          "durationTicks": 29,
          "midi": 44,
          "name": "G#2",
          "ticks": 412320,
          "time": 322.125,
          "velocity": 0.4330708661417323
        },
        {
          "duration": 0.07109374999998863,
          "durationTicks": 91,
          "midi": 51,
          "name": "D#3",
          "ticks": 412320,
          "time": 322.125,
          "velocity": 0.4015748031496063
        },
        {
          "duration": 0.07109374999998863,
          "durationTicks": 91,
          "midi": 40,
          "name": "E2",
          "ticks": 412680,
          "time": 322.40625,
          "velocity": 0.16535433070866143
        },
        {
          "duration": 0.0718750000000341,
          "durationTicks": 92,
          "midi": 51,
          "name": "D#3",
          "ticks": 412680,
          "time": 322.40625,
          "velocity": 0.3858267716535433
        },
        {
          "duration": 0.07109374999998863,
          "durationTicks": 91,
          "midi": 51,
          "name": "D#3",
          "ticks": 412800,
          "time": 322.5,
          "velocity": 0.3779527559055118
        },
        {
          "duration": 0.02265625000001137,
          "durationTicks": 29,
          "midi": 44,
          "name": "G#2",
          "ticks": 413160,
          "time": 322.78125,
          "velocity": 0.4330708661417323
        },
        {
          "duration": 0.07109374999998863,
          "durationTicks": 91,
          "midi": 40,
          "name": "E2",
          "ticks": 413280,
          "time": 322.875,
          "velocity": 0.3779527559055118
        },
        {
          "duration": 0.07109374999998863,
          "durationTicks": 91,
          "midi": 51,
          "name": "D#3",
          "ticks": 413280,
          "time": 322.875,
          "velocity": 0.47244094488188976
        },
        {
          "duration": 0.07109374999998863,
          "durationTicks": 91,
          "midi": 51,
          "name": "D#3",
          "ticks": 413760,
          "time": 323.25,
          "velocity": 0.3464566929133858
        },
        {
          "duration": 0.0687499999999659,
          "durationTicks": 88,
          "midi": 40,
          "name": "E2",
          "ticks": 414120,
          "time": 323.53125,
          "velocity": 0.2125984251968504
        },
        {
          "duration": 0.06953125000001137,
          "durationTicks": 89,
          "midi": 51,
          "name": "D#3",
          "ticks": 414120,
          "time": 323.53125,
          "velocity": 0.4015748031496063
        },
        {
          "duration": 0.06953125000001137,
          "durationTicks": 89,
          "midi": 40,
          "name": "E2",
          "ticks": 414600,
          "time": 323.90625,
          "velocity": 0.16535433070866143
        },
        {
          "duration": 0.07109374999998863,
          "durationTicks": 91,
          "midi": 51,
          "name": "D#3",
          "ticks": 414600,
          "time": 323.90625,
          "velocity": 0.3937007874015748
        },
        {
          "duration": 0.07109374999998863,
          "durationTicks": 91,
          "midi": 51,
          "name": "D#3",
          "ticks": 414720,
          "time": 324,
          "velocity": 0.41732283464566927
        },
        {
          "duration": 0.0234375,
          "durationTicks": 30,
          "midi": 44,
          "name": "G#2",
          "ticks": 415200,
          "time": 324.375,
          "velocity": 0.4330708661417323
        },
        {
          "duration": 0.07109374999998863,
          "durationTicks": 91,
          "midi": 51,
          "name": "D#3",
          "ticks": 415200,
          "time": 324.375,
          "velocity": 0.4094488188976378
        },
        {
          "duration": 0.07109374999998863,
          "durationTicks": 91,
          "midi": 51,
          "name": "D#3",
          "ticks": 415680,
          "time": 324.75,
          "velocity": 0.4330708661417323
        },
        {
          "duration": 0.0718750000000341,
          "durationTicks": 92,
          "midi": 51,
          "name": "D#3",
          "ticks": 416160,
          "time": 325.125,
          "velocity": 0.4330708661417323
        },
        {
          "duration": 0.02265625000001137,
          "durationTicks": 29,
          "midi": 44,
          "name": "G#2",
          "ticks": 416640,
          "time": 325.5,
          "velocity": 0.4330708661417323
        },
        {
          "duration": 0.07109374999998863,
          "durationTicks": 91,
          "midi": 51,
          "name": "D#3",
          "ticks": 416640,
          "time": 325.5,
          "velocity": 0.4094488188976378
        },
        {
          "duration": 0.0718750000000341,
          "durationTicks": 92,
          "midi": 40,
          "name": "E2",
          "ticks": 417000,
          "time": 325.78125,
          "velocity": 0.16535433070866143
        },
        {
          "duration": 0.07265625000002274,
          "durationTicks": 93,
          "midi": 51,
          "name": "D#3",
          "ticks": 417000,
          "time": 325.78125,
          "velocity": 0.4094488188976378
        },
        {
          "duration": 0.07109374999998863,
          "durationTicks": 91,
          "midi": 51,
          "name": "D#3",
          "ticks": 417120,
          "time": 325.875,
          "velocity": 0.3858267716535433
        },
        {
          "duration": 0.0718750000000341,
          "durationTicks": 92,
          "midi": 40,
          "name": "E2",
          "ticks": 417480,
          "time": 326.15625,
          "velocity": 0.15748031496062992
        },
        {
          "duration": 0.0718750000000341,
          "durationTicks": 92,
          "midi": 35,
          "name": "B1",
          "ticks": 417600,
          "time": 326.25,
          "velocity": 0.31496062992125984
        },
        {
          "duration": 0.07109374999998863,
          "durationTicks": 91,
          "midi": 51,
          "name": "D#3",
          "ticks": 417600,
          "time": 326.25,
          "velocity": 0.4566929133858268
        },
        {
          "duration": 0.0718750000000341,
          "durationTicks": 92,
          "midi": 40,
          "name": "E2",
          "ticks": 417960,
          "time": 326.53125,
          "velocity": 0.06299212598425197
        },
        {
          "duration": 0.02265625000001137,
          "durationTicks": 29,
          "midi": 44,
          "name": "G#2",
          "ticks": 418080,
          "time": 326.625,
          "velocity": 0.4330708661417323
        },
        {
          "duration": 0.07265625000002274,
          "durationTicks": 93,
          "midi": 51,
          "name": "D#3",
          "ticks": 418080,
          "time": 326.625,
          "velocity": 0.4330708661417323
        },
        {
          "duration": 0.07109374999998863,
          "durationTicks": 91,
          "midi": 40,
          "name": "E2",
          "ticks": 418440,
          "time": 326.90625,
          "velocity": 0.14173228346456693
        },
        {
          "duration": 0.07109374999998863,
          "durationTicks": 91,
          "midi": 51,
          "name": "D#3",
          "ticks": 418440,
          "time": 326.90625,
          "velocity": 0.3937007874015748
        },
        {
          "duration": 0.07109374999998863,
          "durationTicks": 91,
          "midi": 51,
          "name": "D#3",
          "ticks": 418560,
          "time": 327,
          "velocity": 0.3779527559055118
        },
        {
          "duration": 0.025000000000034106,
          "durationTicks": 32,
          "midi": 44,
          "name": "G#2",
          "ticks": 418920,
          "time": 327.28125,
          "velocity": 0.4330708661417323
        },
        {
          "duration": 0.07109374999998863,
          "durationTicks": 91,
          "midi": 40,
          "name": "E2",
          "ticks": 419040,
          "time": 327.375,
          "velocity": 0.44881889763779526
        },
        {
          "duration": 0.07109374999998863,
          "durationTicks": 91,
          "midi": 51,
          "name": "D#3",
          "ticks": 419040,
          "time": 327.375,
          "velocity": 0.47244094488188976
        },
        {
          "duration": 0.0718750000000341,
          "durationTicks": 92,
          "midi": 51,
          "name": "D#3",
          "ticks": 419520,
          "time": 327.75,
          "velocity": 0.41732283464566927
        },
        {
          "duration": 0.07109374999998863,
          "durationTicks": 91,
          "midi": 40,
          "name": "E2",
          "ticks": 419880,
          "time": 328.03125,
          "velocity": 0.12598425196850394
        },
        {
          "duration": 0.07109374999998863,
          "durationTicks": 91,
          "midi": 51,
          "name": "D#3",
          "ticks": 419880,
          "time": 328.03125,
          "velocity": 0.4015748031496063
        },
        {
          "duration": 0.07109374999998863,
          "durationTicks": 91,
          "midi": 51,
          "name": "D#3",
          "ticks": 420000,
          "time": 328.125,
          "velocity": 0.4015748031496063
        },
        {
          "duration": 0.07265625000002274,
          "durationTicks": 93,
          "midi": 40,
          "name": "E2",
          "ticks": 420120,
          "time": 328.21875,
          "velocity": 0.06299212598425197
        },
        {
          "duration": 0.07265625000002274,
          "durationTicks": 93,
          "midi": 40,
          "name": "E2",
          "ticks": 420240,
          "time": 328.3125,
          "velocity": 0.41732283464566927
        },
        {
          "duration": 0.0718750000000341,
          "durationTicks": 92,
          "midi": 35,
          "name": "B1",
          "ticks": 420480,
          "time": 328.5,
          "velocity": 0.3228346456692913
        },
        {
          "duration": 0.07109374999998863,
          "durationTicks": 91,
          "midi": 51,
          "name": "D#3",
          "ticks": 420480,
          "time": 328.5,
          "velocity": 0.47244094488188976
        },
        {
          "duration": 0.07109374999998863,
          "durationTicks": 91,
          "midi": 40,
          "name": "E2",
          "ticks": 420720,
          "time": 328.6875,
          "velocity": 0.06299212598425197
        },
        {
          "duration": 0.07109374999998863,
          "durationTicks": 91,
          "midi": 51,
          "name": "D#3",
          "ticks": 420960,
          "time": 328.875,
          "velocity": 0.4094488188976378
        },
        {
          "duration": 0.0718750000000341,
          "durationTicks": 92,
          "midi": 40,
          "name": "E2",
          "ticks": 421320,
          "time": 329.15625,
          "velocity": 0.06299212598425197
        },
        {
          "duration": 0.07265625000002274,
          "durationTicks": 93,
          "midi": 51,
          "name": "D#3",
          "ticks": 421320,
          "time": 329.15625,
          "velocity": 0.4094488188976378
        },
        {
          "duration": 0.0718750000000341,
          "durationTicks": 92,
          "midi": 51,
          "name": "D#3",
          "ticks": 421440,
          "time": 329.25,
          "velocity": 0.3858267716535433
        },
        {
          "duration": 0.07109374999998863,
          "durationTicks": 91,
          "midi": 40,
          "name": "E2",
          "ticks": 421680,
          "time": 329.4375,
          "velocity": 0.06299212598425197
        },
        {
          "duration": 0.025000000000034106,
          "durationTicks": 32,
          "midi": 44,
          "name": "G#2",
          "ticks": 421800,
          "time": 329.53125,
          "velocity": 0.4330708661417323
        },
        {
          "duration": 0.07109374999998863,
          "durationTicks": 91,
          "midi": 40,
          "name": "E2",
          "ticks": 421920,
          "time": 329.625,
          "velocity": 0.5669291338582677
        },
        {
          "duration": 0.07109374999998863,
          "durationTicks": 91,
          "midi": 51,
          "name": "D#3",
          "ticks": 421920,
          "time": 329.625,
          "velocity": 0.5118110236220472
        },
        {
          "duration": 0.0687499999999659,
          "durationTicks": 88,
          "midi": 51,
          "name": "D#3",
          "ticks": 422400,
          "time": 330,
          "velocity": 0.3858267716535433
        },
        {
          "duration": 0.0718750000000341,
          "durationTicks": 92,
          "midi": 35,
          "name": "B1",
          "ticks": 422760,
          "time": 330.28125,
          "velocity": 0.31496062992125984
        },
        {
          "duration": 0.0718750000000341,
          "durationTicks": 92,
          "midi": 51,
          "name": "D#3",
          "ticks": 422760,
          "time": 330.28125,
          "velocity": 0.4881889763779528
        },
        {
          "duration": 0.07109374999998863,
          "durationTicks": 91,
          "midi": 40,
          "name": "E2",
          "ticks": 423120,
          "time": 330.5625,
          "velocity": 0.36220472440944884
        },
        {
          "duration": 0.07109374999998863,
          "durationTicks": 91,
          "midi": 35,
          "name": "B1",
          "ticks": 423360,
          "time": 330.75,
          "velocity": 0.41732283464566927
        },
        {
          "duration": 0.0718750000000341,
          "durationTicks": 92,
          "midi": 46,
          "name": "A#2",
          "ticks": 423360,
          "time": 330.75,
          "velocity": 0.41732283464566927
        },
        {
          "duration": 0.07265625000002274,
          "durationTicks": 93,
          "midi": 51,
          "name": "D#3",
          "ticks": 423840,
          "time": 331.125,
          "velocity": 0.3858267716535433
        },
        {
          "duration": 0.07109374999998863,
          "durationTicks": 91,
          "midi": 40,
          "name": "E2",
          "ticks": 424200,
          "time": 331.40625,
          "velocity": 0.12598425196850394
        },
        {
          "duration": 0.07109374999998863,
          "durationTicks": 91,
          "midi": 51,
          "name": "D#3",
          "ticks": 424200,
          "time": 331.40625,
          "velocity": 0.3858267716535433
        },
        {
          "duration": 0.07109374999998863,
          "durationTicks": 91,
          "midi": 51,
          "name": "D#3",
          "ticks": 424320,
          "time": 331.5,
          "velocity": 0.3858267716535433
        },
        {
          "duration": 0.021874999999965894,
          "durationTicks": 28,
          "midi": 44,
          "name": "G#2",
          "ticks": 424680,
          "time": 331.78125,
          "velocity": 0.4330708661417323
        },
        {
          "duration": 0.07109374999998863,
          "durationTicks": 91,
          "midi": 40,
          "name": "E2",
          "ticks": 424800,
          "time": 331.875,
          "velocity": 0.5905511811023622
        },
        {
          "duration": 0.0718750000000341,
          "durationTicks": 92,
          "midi": 51,
          "name": "D#3",
          "ticks": 424800,
          "time": 331.875,
          "velocity": 0.5118110236220472
        },
        {
          "duration": 0.07265625000002274,
          "durationTicks": 93,
          "midi": 40,
          "name": "E2",
          "ticks": 425160,
          "time": 332.15625,
          "velocity": 0.06299212598425197
        },
        {
          "duration": 0.07109374999998863,
          "durationTicks": 91,
          "midi": 51,
          "name": "D#3",
          "ticks": 425280,
          "time": 332.25,
          "velocity": 0.3937007874015748
        },
        {
          "duration": 0.07109374999998863,
          "durationTicks": 91,
          "midi": 40,
          "name": "E2",
          "ticks": 425640,
          "time": 332.53125,
          "velocity": 0.16535433070866143
        },
        {
          "duration": 0.07109374999998863,
          "durationTicks": 91,
          "midi": 51,
          "name": "D#3",
          "ticks": 425640,
          "time": 332.53125,
          "velocity": 0.4094488188976378
        },
        {
          "duration": 0.06953125000001137,
          "durationTicks": 89,
          "midi": 51,
          "name": "D#3",
          "ticks": 425760,
          "time": 332.625,
          "velocity": 0.4015748031496063
        },
        {
          "duration": 0.0718750000000341,
          "durationTicks": 92,
          "midi": 40,
          "name": "E2",
          "ticks": 426000,
          "time": 332.8125,
          "velocity": 0.14173228346456693
        },
        {
          "duration": 0.07109374999998863,
          "durationTicks": 91,
          "midi": 40,
          "name": "E2",
          "ticks": 426120,
          "time": 332.90625,
          "velocity": 0.25984251968503935
        },
        {
          "duration": 0.07109374999998863,
          "durationTicks": 91,
          "midi": 51,
          "name": "D#3",
          "ticks": 426240,
          "time": 333,
          "velocity": 0.4566929133858268
        },
        {
          "duration": 0.0718750000000341,
          "durationTicks": 92,
          "midi": 35,
          "name": "B1",
          "ticks": 426480,
          "time": 333.1875,
          "velocity": 0.31496062992125984
        },
        {
          "duration": 0.0718750000000341,
          "durationTicks": 92,
          "midi": 51,
          "name": "D#3",
          "ticks": 426600,
          "time": 333.28125,
          "velocity": 0.4251968503937008
        },
        {
          "duration": 0.07109374999998863,
          "durationTicks": 91,
          "midi": 51,
          "name": "D#3",
          "ticks": 426720,
          "time": 333.375,
          "velocity": 0.4251968503937008
        },
        {
          "duration": 0.07109374999998863,
          "durationTicks": 91,
          "midi": 40,
          "name": "E2",
          "ticks": 427080,
          "time": 333.65625,
          "velocity": 0.14173228346456693
        },
        {
          "duration": 0.0718750000000341,
          "durationTicks": 92,
          "midi": 51,
          "name": "D#3",
          "ticks": 427200,
          "time": 333.75,
          "velocity": 0.3464566929133858
        },
        {
          "duration": 0.07109374999998863,
          "durationTicks": 91,
          "midi": 40,
          "name": "E2",
          "ticks": 427320,
          "time": 333.84375,
          "velocity": 0.11023622047244094
        },
        {
          "duration": 0.02265625000001137,
          "durationTicks": 29,
          "midi": 44,
          "name": "G#2",
          "ticks": 427440,
          "time": 333.9375,
          "velocity": 0.4330708661417323
        },
        {
          "duration": 0.07109374999998863,
          "durationTicks": 91,
          "midi": 40,
          "name": "E2",
          "ticks": 427680,
          "time": 334.125,
          "velocity": 0.5905511811023622
        },
        {
          "duration": 0.0718750000000341,
          "durationTicks": 92,
          "midi": 51,
          "name": "D#3",
          "ticks": 427680,
          "time": 334.125,
          "velocity": 0.5275590551181102
        },
        {
          "duration": 0.0718750000000341,
          "durationTicks": 92,
          "midi": 51,
          "name": "D#3",
          "ticks": 428160,
          "time": 334.5,
          "velocity": 0.4094488188976378
        },
        {
          "duration": 0.07109374999998863,
          "durationTicks": 91,
          "midi": 40,
          "name": "E2",
          "ticks": 428400,
          "time": 334.6875,
          "velocity": 0.36220472440944884
        },
        {
          "duration": 0.0718750000000341,
          "durationTicks": 92,
          "midi": 51,
          "name": "D#3",
          "ticks": 428400,
          "time": 334.6875,
          "velocity": 0.4409448818897638
        },
        {
          "duration": 0.07109374999998863,
          "durationTicks": 91,
          "midi": 46,
          "name": "A#2",
          "ticks": 428760,
          "time": 334.96875,
          "velocity": 0.2992125984251969
        },
        {
          "duration": 0.07109374999998863,
          "durationTicks": 91,
          "midi": 46,
          "name": "A#2",
          "ticks": 429120,
          "time": 335.25,
          "velocity": 0.44881889763779526
        },
        {
          "duration": 0.07109374999998863,
          "durationTicks": 91,
          "midi": 51,
          "name": "D#3",
          "ticks": 429600,
          "time": 335.625,
          "velocity": 0.3464566929133858
        },
        {
          "duration": 0.07109374999998863,
          "durationTicks": 91,
          "midi": 51,
          "name": "D#3",
          "ticks": 429960,
          "time": 335.90625,
          "velocity": 0.3700787401574803
        },
        {
          "duration": 0.07109374999998863,
          "durationTicks": 91,
          "midi": 51,
          "name": "D#3",
          "ticks": 430080,
          "time": 336,
          "velocity": 0.3700787401574803
        },
        {
          "duration": 0.02265625000001137,
          "durationTicks": 29,
          "midi": 44,
          "name": "G#2",
          "ticks": 430440,
          "time": 336.28125,
          "velocity": 0.4330708661417323
        },
        {
          "duration": 0.07109374999998863,
          "durationTicks": 91,
          "midi": 40,
          "name": "E2",
          "ticks": 430560,
          "time": 336.375,
          "velocity": 0.5669291338582677
        },
        {
          "duration": 0.07109374999998863,
          "durationTicks": 91,
          "midi": 51,
          "name": "D#3",
          "ticks": 430560,
          "time": 336.375,
          "velocity": 0.5275590551181102
        },
        {
          "duration": 0.0703125,
          "durationTicks": 90,
          "midi": 51,
          "name": "D#3",
          "ticks": 431040,
          "time": 336.75,
          "velocity": 0.4251968503937008
        },
        {
          "duration": 0.07265625000002274,
          "durationTicks": 93,
          "midi": 40,
          "name": "E2",
          "ticks": 431280,
          "time": 336.9375,
          "velocity": 0.25984251968503935
        },
        {
          "duration": 0.06953125000001137,
          "durationTicks": 89,
          "midi": 46,
          "name": "A#2",
          "ticks": 431640,
          "time": 337.21875,
          "velocity": 0.3937007874015748
        },
        {
          "duration": 0.07109374999998863,
          "durationTicks": 91,
          "midi": 46,
          "name": "A#2",
          "ticks": 432000,
          "time": 337.5,
          "velocity": 0.33858267716535434
        },
        {
          "duration": 0.07109374999998863,
          "durationTicks": 91,
          "midi": 51,
          "name": "D#3",
          "ticks": 432480,
          "time": 337.875,
          "velocity": 0.4015748031496063
        },
        {
          "duration": 0.07265625000002274,
          "durationTicks": 93,
          "midi": 40,
          "name": "E2",
          "ticks": 432840,
          "time": 338.15625,
          "velocity": 0.2677165354330709
        },
        {
          "duration": 0.07109374999998863,
          "durationTicks": 91,
          "midi": 51,
          "name": "D#3",
          "ticks": 432960,
          "time": 338.25,
          "velocity": 0.3700787401574803
        },
        {
          "duration": 0.02265625000001137,
          "durationTicks": 29,
          "midi": 44,
          "name": "G#2",
          "ticks": 433320,
          "time": 338.53125,
          "velocity": 0.4330708661417323
        },
        {
          "duration": 0.07109374999998863,
          "durationTicks": 91,
          "midi": 40,
          "name": "E2",
          "ticks": 433440,
          "time": 338.625,
          "velocity": 0.48031496062992124
        },
        {
          "duration": 0.0687499999999659,
          "durationTicks": 88,
          "midi": 51,
          "name": "D#3",
          "ticks": 433440,
          "time": 338.625,
          "velocity": 0.5118110236220472
        },
        {
          "duration": 0.0718750000000341,
          "durationTicks": 92,
          "midi": 51,
          "name": "D#3",
          "ticks": 433920,
          "time": 339,
          "velocity": 0.3858267716535433
        },
        {
          "duration": 0.0718750000000341,
          "durationTicks": 92,
          "midi": 40,
          "name": "E2",
          "ticks": 434280,
          "time": 339.28125,
          "velocity": 0.33070866141732286
        },
        {
          "duration": 0.0703125,
          "durationTicks": 90,
          "midi": 51,
          "name": "D#3",
          "ticks": 434280,
          "time": 339.28125,
          "velocity": 0.4566929133858268
        },
        {
          "duration": 0.07109374999998863,
          "durationTicks": 91,
          "midi": 46,
          "name": "A#2",
          "ticks": 434640,
          "time": 339.5625,
          "velocity": 0.2204724409448819
        },
        {
          "duration": 0.07265625000002274,
          "durationTicks": 93,
          "midi": 46,
          "name": "A#2",
          "ticks": 434760,
          "time": 339.65625,
          "velocity": 0.3464566929133858
        },
        {
          "duration": 0.0718750000000341,
          "durationTicks": 92,
          "midi": 46,
          "name": "A#2",
          "ticks": 434880,
          "time": 339.75,
          "velocity": 0.3700787401574803
        },
        {
          "duration": 0.07109374999998863,
          "durationTicks": 91,
          "midi": 51,
          "name": "D#3",
          "ticks": 435360,
          "time": 340.125,
          "velocity": 0.36220472440944884
        },
        {
          "duration": 0.06953125000001137,
          "durationTicks": 89,
          "midi": 51,
          "name": "D#3",
          "ticks": 435720,
          "time": 340.40625,
          "velocity": 0.3779527559055118
        },
        {
          "duration": 0.07109374999998863,
          "durationTicks": 91,
          "midi": 51,
          "name": "D#3",
          "ticks": 435840,
          "time": 340.5,
          "velocity": 0.3779527559055118
        },
        {
          "duration": 0.025000000000034106,
          "durationTicks": 32,
          "midi": 44,
          "name": "G#2",
          "ticks": 436200,
          "time": 340.78125,
          "velocity": 0.4330708661417323
        },
        {
          "duration": 0.07109374999998863,
          "durationTicks": 91,
          "midi": 51,
          "name": "D#3",
          "ticks": 436320,
          "time": 340.875,
          "velocity": 0.4881889763779528
        },
        {
          "duration": 0.07265625000002274,
          "durationTicks": 93,
          "midi": 51,
          "name": "D#3",
          "ticks": 436800,
          "time": 341.25,
          "velocity": 0.3858267716535433
        },
        {
          "duration": 0.07109374999998863,
          "durationTicks": 91,
          "midi": 40,
          "name": "E2",
          "ticks": 437160,
          "time": 341.53125,
          "velocity": 0.06299212598425197
        },
        {
          "duration": 0.07109374999998863,
          "durationTicks": 91,
          "midi": 51,
          "name": "D#3",
          "ticks": 437160,
          "time": 341.53125,
          "velocity": 0.4094488188976378
        },
        {
          "duration": 0.07109374999998863,
          "durationTicks": 91,
          "midi": 51,
          "name": "D#3",
          "ticks": 437280,
          "time": 341.625,
          "velocity": 0.4015748031496063
        },
        {
          "duration": 0.021874999999965894,
          "durationTicks": 28,
          "midi": 44,
          "name": "G#2",
          "ticks": 437520,
          "time": 341.8125,
          "velocity": 0.4330708661417323
        },
        {
          "duration": 0.06953125000001137,
          "durationTicks": 89,
          "midi": 51,
          "name": "D#3",
          "ticks": 437760,
          "time": 342,
          "velocity": 0.47244094488188976
        },
        {
          "duration": 0.07109374999998863,
          "durationTicks": 91,
          "midi": 51,
          "name": "D#3",
          "ticks": 438240,
          "time": 342.375,
          "velocity": 0.4015748031496063
        },
        {
          "duration": 0.07109374999998863,
          "durationTicks": 91,
          "midi": 40,
          "name": "E2",
          "ticks": 438600,
          "time": 342.65625,
          "velocity": 0.14173228346456693
        },
        {
          "duration": 0.0718750000000341,
          "durationTicks": 92,
          "midi": 51,
          "name": "D#3",
          "ticks": 438600,
          "time": 342.65625,
          "velocity": 0.4015748031496063
        },
        {
          "duration": 0.0718750000000341,
          "durationTicks": 92,
          "midi": 51,
          "name": "D#3",
          "ticks": 438720,
          "time": 342.75,
          "velocity": 0.3700787401574803
        },
        {
          "duration": 0.02265625000001137,
          "durationTicks": 29,
          "midi": 44,
          "name": "G#2",
          "ticks": 439080,
          "time": 343.03125,
          "velocity": 0.4330708661417323
        },
        {
          "duration": 0.07109374999998863,
          "durationTicks": 91,
          "midi": 51,
          "name": "D#3",
          "ticks": 439200,
          "time": 343.125,
          "velocity": 0.47244094488188976
        },
        {
          "duration": 0.07109374999998863,
          "durationTicks": 91,
          "midi": 40,
          "name": "E2",
          "ticks": 439560,
          "time": 343.40625,
          "velocity": 0.06299212598425197
        },
        {
          "duration": 0.07109374999998863,
          "durationTicks": 91,
          "midi": 51,
          "name": "D#3",
          "ticks": 439680,
          "time": 343.5,
          "velocity": 0.4094488188976378
        },
        {
          "duration": 0.02421874999998863,
          "durationTicks": 31,
          "midi": 44,
          "name": "G#2",
          "ticks": 439920,
          "time": 343.6875,
          "velocity": 0.4330708661417323
        },
        {
          "duration": 0.07109374999998863,
          "durationTicks": 91,
          "midi": 51,
          "name": "D#3",
          "ticks": 439920,
          "time": 343.6875,
          "velocity": 0.4094488188976378
        },
        {
          "duration": 0.07109374999998863,
          "durationTicks": 91,
          "midi": 51,
          "name": "D#3",
          "ticks": 440160,
          "time": 343.875,
          "velocity": 0.3700787401574803
        },
        {
          "duration": 0.07109374999998863,
          "durationTicks": 91,
          "midi": 40,
          "name": "E2",
          "ticks": 440520,
          "time": 344.15625,
          "velocity": 0.07874015748031496
        },
        {
          "duration": 0.0718750000000341,
          "durationTicks": 92,
          "midi": 51,
          "name": "D#3",
          "ticks": 440640,
          "time": 344.25,
          "velocity": 0.4094488188976378
        },
        {
          "duration": 0.02265625000001137,
          "durationTicks": 29,
          "midi": 44,
          "name": "G#2",
          "ticks": 440880,
          "time": 344.4375,
          "velocity": 0.4330708661417323
        },
        {
          "duration": 0.07109374999998863,
          "durationTicks": 91,
          "midi": 51,
          "name": "D#3",
          "ticks": 441000,
          "time": 344.53125,
          "velocity": 0.3858267716535433
        },
        {
          "duration": 0.0703125,
          "durationTicks": 90,
          "midi": 51,
          "name": "D#3",
          "ticks": 441120,
          "time": 344.625,
          "velocity": 0.3858267716535433
        },
        {
          "duration": 0.02265625000001137,
          "durationTicks": 29,
          "midi": 44,
          "name": "G#2",
          "ticks": 441240,
          "time": 344.71875,
          "velocity": 0.4330708661417323
        },
        {
          "duration": 0.06953125000001137,
          "durationTicks": 89,
          "midi": 40,
          "name": "E2",
          "ticks": 441480,
          "time": 344.90625,
          "velocity": 0.14173228346456693
        },
        {
          "duration": 0.0718750000000341,
          "durationTicks": 92,
          "midi": 51,
          "name": "D#3",
          "ticks": 441600,
          "time": 345,
          "velocity": 0.4015748031496063
        },
        {
          "duration": 0.02265625000001137,
          "durationTicks": 29,
          "midi": 44,
          "name": "G#2",
          "ticks": 441840,
          "time": 345.1875,
          "velocity": 0.4330708661417323
        },
        {
          "duration": 0.07109374999998863,
          "durationTicks": 91,
          "midi": 51,
          "name": "D#3",
          "ticks": 441960,
          "time": 345.28125,
          "velocity": 0.4015748031496063
        },
        {
          "duration": 0.0687499999999659,
          "durationTicks": 88,
          "midi": 51,
          "name": "D#3",
          "ticks": 442080,
          "time": 345.375,
          "velocity": 0.3779527559055118
        },
        {
          "duration": 0.07109374999998863,
          "durationTicks": 91,
          "midi": 40,
          "name": "E2",
          "ticks": 442440,
          "time": 345.65625,
          "velocity": 0.06299212598425197
        },
        {
          "duration": 0.0718750000000341,
          "durationTicks": 92,
          "midi": 51,
          "name": "D#3",
          "ticks": 442560,
          "time": 345.75,
          "velocity": 0.4251968503937008
        },
        {
          "duration": 0.06953125000001137,
          "durationTicks": 89,
          "midi": 40,
          "name": "E2",
          "ticks": 442920,
          "time": 346.03125,
          "velocity": 0.3779527559055118
        },
        {
          "duration": 0.07109374999998863,
          "durationTicks": 91,
          "midi": 51,
          "name": "D#3",
          "ticks": 442920,
          "time": 346.03125,
          "velocity": 0.4251968503937008
        },
        {
          "duration": 0.07109374999998863,
          "durationTicks": 91,
          "midi": 51,
          "name": "D#3",
          "ticks": 443040,
          "time": 346.125,
          "velocity": 0.3464566929133858
        },
        {
          "duration": 0.06953125000001137,
          "durationTicks": 89,
          "midi": 46,
          "name": "A#2",
          "ticks": 443160,
          "time": 346.21875,
          "velocity": 0.2125984251968504
        },
        {
          "duration": 0.0687499999999659,
          "durationTicks": 88,
          "midi": 46,
          "name": "A#2",
          "ticks": 443280,
          "time": 346.3125,
          "velocity": 0.2755905511811024
        },
        {
          "duration": 0.07109374999998863,
          "durationTicks": 91,
          "midi": 46,
          "name": "A#2",
          "ticks": 443400,
          "time": 346.40625,
          "velocity": 0.33858267716535434
        },
        {
          "duration": 0.07109374999998863,
          "durationTicks": 91,
          "midi": 46,
          "name": "A#2",
          "ticks": 443520,
          "time": 346.5,
          "velocity": 0.4015748031496063
        },
        {
          "duration": 0.0718750000000341,
          "durationTicks": 92,
          "midi": 46,
          "name": "A#2",
          "ticks": 444480,
          "time": 347.25,
          "velocity": 0.1968503937007874
        },
        {
          "duration": 0.07265625000002274,
          "durationTicks": 93,
          "midi": 46,
          "name": "A#2",
          "ticks": 444600,
          "time": 347.34375,
          "velocity": 0.23622047244094488
        },
        {
          "duration": 0.07109374999998863,
          "durationTicks": 91,
          "midi": 46,
          "name": "A#2",
          "ticks": 444720,
          "time": 347.4375,
          "velocity": 0.25196850393700787
        },
        {
          "duration": 0.06953125000001137,
          "durationTicks": 89,
          "midi": 46,
          "name": "A#2",
          "ticks": 444840,
          "time": 347.53125,
          "velocity": 0.4094488188976378
        },
        {
          "duration": 0.0718750000000341,
          "durationTicks": 92,
          "midi": 46,
          "name": "A#2",
          "ticks": 444960,
          "time": 347.625,
          "velocity": 0.41732283464566927
        },
        {
          "duration": 0.0718750000000341,
          "durationTicks": 92,
          "midi": 46,
          "name": "A#2",
          "ticks": 445800,
          "time": 348.28125,
          "velocity": 0.3228346456692913
        },
        {
          "duration": 0.0718750000000341,
          "durationTicks": 92,
          "midi": 46,
          "name": "A#2",
          "ticks": 446160,
          "time": 348.5625,
          "velocity": 0.2125984251968504
        },
        {
          "duration": 0.0703125,
          "durationTicks": 90,
          "midi": 55,
          "name": "G3",
          "ticks": 446520,
          "time": 348.84375,
          "velocity": 0.2755905511811024
        }
      ]
    }
  ]
}