{
  "header": {
    "keySignatures": [
      {
        "key": "C",
        "scale": "major",
        "ticks": 0
      }
    ],
    "meta": [
      {
        "text": "#AUT#Anne Wallace",
        "ticks": 0,
        "type": "text"
      }
    ],
    "name": "",
    "ppq": 192,
    "tempos": [
      {
        "bpm": 140.00014000014,
        "ticks": 0
      }
    ],
    "timeSignatures": [
      {
        "ticks": 0,
        "timeSignature": [
          4,
          4
        ],
        "measures": 0
      }
    ]
  },
  "tracks": [
    {
      "channel": 1,
      "controlChanges": {
        "7": [
          {
            "number": 7,
            "ticks": 0,
            "time": 0,
            "value": 1
          }
        ],
        "10": [
          {
            "number": 10,
            "ticks": 0,
            "time": 0,
            "value": 0.5039370078740157
          }
        ],
        "91": [
          {
            "number": 91,
            "ticks": 0,
            "time": 0,
            "value": 0.13385826771653545
          }
        ]
      },
      "pitchBends": [],
      "instrument": {
        "family": "bass",
        "number": 35,
        "name": "fretless bass"
      },
      "name": "Bass Guitar     ",
      "notes": [
        {
          "duration": 0.285714,
          "durationTicks": 128,
          "midi": 37,
          "name": "C#2",
          "ticks": 0,
          "time": 0,
          "velocity": 1
        },
        {
          "duration": 0.285714,
          "durationTicks": 128,
          "midi": 32,
          "name": "G#1",
          "ticks": 384,
          "time": 0.8571420000000001,
          "velocity": 1
        },
        {
          "duration": 0.4285709999999998,
          "durationTicks": 192,
          "midi": 37,
          "name": "C#2",
          "ticks": 768,
          "time": 1.7142840000000001,
          "velocity": 1
        },
        {
          "duration": 0.42857100000000026,
          "durationTicks": 192,
          "midi": 32,
          "name": "G#1",
          "ticks": 1152,
          "time": 2.571426,
          "velocity": 1
        },
        {
          "duration": 0.4285709999999998,
          "durationTicks": 192,
          "midi": 30,
          "name": "F#1",
          "ticks": 1536,
          "time": 3.4285680000000003,
          "velocity": 1
        },
        {
          "duration": 0.4285710000000007,
          "durationTicks": 192,
          "midi": 32,
          "name": "G#1",
          "ticks": 1920,
          "time": 4.28571,
          "velocity": 1
        },
        {
          "duration": 0.2857139999999996,
          "durationTicks": 128,
          "midi": 37,
          "name": "C#2",
          "ticks": 2304,
          "time": 5.142852,
          "velocity": 1
        },
        {
          "duration": 0.2857139999999996,
          "durationTicks": 128,
          "midi": 32,
          "name": "G#1",
          "ticks": 2496,
          "time": 5.571423,
          "velocity": 1
        },
        {
          "duration": 0.2857139999999996,
          "durationTicks": 128,
          "midi": 37,
          "name": "C#2",
          "ticks": 2688,
          "time": 5.999994000000001,
          "velocity": 1
        },
        {
          "duration": 0.4285709999999998,
          "durationTicks": 192,
          "midi": 37,
          "name": "C#2",
          "ticks": 3072,
          "time": 6.857136000000001,
          "velocity": 1
        },
        {
          "duration": 0.4285709999999998,
          "durationTicks": 192,
          "midi": 32,
          "name": "G#1",
          "ticks": 3456,
          "time": 7.714278,
          "velocity": 1
        },
        {
          "duration": 0.4285710000000016,
          "durationTicks": 192,
          "midi": 37,
          "name": "C#2",
          "ticks": 3840,
          "time": 8.57142,
          "velocity": 1
        },
        {
          "duration": 0.4285709999999998,
          "durationTicks": 192,
          "midi": 32,
          "name": "G#1",
          "ticks": 4224,
          "time": 9.428562000000001,
          "velocity": 1
        },
        {
          "duration": 0.4285709999999998,
          "durationTicks": 192,
          "midi": 37,
          "name": "C#2",
          "ticks": 4608,
          "time": 10.285704,
          "velocity": 1
        },
        {
          "duration": 0.4285709999999998,
          "durationTicks": 192,
          "midi": 32,
          "name": "G#1",
          "ticks": 4992,
          "time": 11.142846,
          "velocity": 1
        },
        {
          "duration": 0.4285709999999998,
          "durationTicks": 192,
          "midi": 37,
          "name": "C#2",
          "ticks": 5376,
          "time": 11.999988000000002,
          "velocity": 1
        },
        {
          "duration": 0.4285709999999998,
          "durationTicks": 192,
          "midi": 32,
          "name": "G#1",
          "ticks": 5760,
          "time": 12.857130000000002,
          "velocity": 1
        },
        {
          "duration": 0.4285709999999998,
          "durationTicks": 192,
          "midi": 37,
          "name": "C#2",
          "ticks": 6144,
          "time": 13.714272000000001,
          "velocity": 1
        },
        {
          "duration": 0.4285709999999998,
          "durationTicks": 192,
          "midi": 32,
          "name": "G#1",
          "ticks": 6528,
          "time": 14.571414,
          "velocity": 1
        },
        {
          "duration": 0.4285710000000016,
          "durationTicks": 192,
          "midi": 32,
          "name": "G#1",
          "ticks": 6912,
          "time": 15.428556,
          "velocity": 1
        },
        {
          "duration": 0.4285710000000016,
          "durationTicks": 192,
          "midi": 39,
          "name": "D#2",
          "ticks": 7296,
          "time": 16.285698,
          "velocity": 1
        },
        {
          "duration": 0.4285710000000016,
          "durationTicks": 192,
          "midi": 32,
          "name": "G#1",
          "ticks": 7680,
          "time": 17.14284,
          "velocity": 1
        },
        {
          "duration": 0.42857099999999804,
          "durationTicks": 192,
          "midi": 39,
          "name": "D#2",
          "ticks": 8064,
          "time": 17.999982000000003,
          "velocity": 1
        },
        {
          "duration": 0.42857099999999804,
          "durationTicks": 192,
          "midi": 32,
          "name": "G#1",
          "ticks": 8448,
          "time": 18.857124000000002,
          "velocity": 1
        },
        {
          "duration": 0.42857099999999804,
          "durationTicks": 192,
          "midi": 39,
          "name": "D#2",
          "ticks": 8832,
          "time": 19.714266000000002,
          "velocity": 1
        },
        {
          "duration": 0.2857139999999987,
          "durationTicks": 128,
          "midi": 32,
          "name": "G#1",
          "ticks": 9216,
          "time": 20.571408,
          "velocity": 1
        },
        {
          "duration": 0.2857139999999987,
          "durationTicks": 128,
          "midi": 34,
          "name": "A#1",
          "ticks": 9408,
          "time": 20.999979000000003,
          "velocity": 1
        },
        {
          "duration": 0.2857139999999987,
          "durationTicks": 128,
          "midi": 35,
          "name": "B1",
          "ticks": 9600,
          "time": 21.42855,
          "velocity": 1
        },
        {
          "duration": 0.2857139999999987,
          "durationTicks": 128,
          "midi": 36,
          "name": "C2",
          "ticks": 9792,
          "time": 21.857121000000003,
          "velocity": 1
        },
        {
          "duration": 0.4285710000000016,
          "durationTicks": 192,
          "midi": 37,
          "name": "C#2",
          "ticks": 9984,
          "time": 22.285692,
          "velocity": 1
        },
        {
          "duration": 0.42857099999999804,
          "durationTicks": 192,
          "midi": 37,
          "name": "C#2",
          "ticks": 10752,
          "time": 23.999976000000004,
          "velocity": 1
        },
        {
          "duration": 0.42857099999999804,
          "durationTicks": 192,
          "midi": 32,
          "name": "G#1",
          "ticks": 11136,
          "time": 24.857118000000003,
          "velocity": 1
        },
        {
          "duration": 0.42857099999999804,
          "durationTicks": 192,
          "midi": 37,
          "name": "C#2",
          "ticks": 11520,
          "time": 25.714260000000003,
          "velocity": 1
        },
        {
          "duration": 0.42857099999999804,
          "durationTicks": 192,
          "midi": 32,
          "name": "G#1",
          "ticks": 11904,
          "time": 26.571402000000003,
          "velocity": 1
        },
        {
          "duration": 0.4285710000000016,
          "durationTicks": 192,
          "midi": 37,
          "name": "C#2",
          "ticks": 12288,
          "time": 27.428544000000002,
          "velocity": 1
        },
        {
          "duration": 0.4285710000000016,
          "durationTicks": 192,
          "midi": 32,
          "name": "G#1",
          "ticks": 12672,
          "time": 28.285686000000002,
          "velocity": 1
        },
        {
          "duration": 0.4285710000000016,
          "durationTicks": 192,
          "midi": 30,
          "name": "F#1",
          "ticks": 13056,
          "time": 29.142828,
          "velocity": 1
        },
        {
          "duration": 0.4285710000000016,
          "durationTicks": 192,
          "midi": 37,
          "name": "C#2",
          "ticks": 13440,
          "time": 29.99997,
          "velocity": 1
        },
        {
          "duration": 0.4285710000000016,
          "durationTicks": 192,
          "midi": 30,
          "name": "F#1",
          "ticks": 13824,
          "time": 30.857112,
          "velocity": 1
        },
        {
          "duration": 0.5714279999999974,
          "durationTicks": 256,
          "midi": 33,
          "name": "A1",
          "ticks": 14208,
          "time": 31.714254000000004,
          "velocity": 1
        },
        {
          "duration": 0.5714279999999974,
          "durationTicks": 256,
          "midi": 32,
          "name": "G#1",
          "ticks": 14592,
          "time": 32.571396,
          "velocity": 1
        },
        {
          "duration": 0.8571419999999961,
          "durationTicks": 384,
          "midi": 34,
          "name": "A#1",
          "ticks": 14976,
          "time": 33.428538,
          "velocity": 1
        },
        {
          "duration": 0.5714280000000045,
          "durationTicks": 256,
          "midi": 39,
          "name": "D#2",
          "ticks": 15360,
          "time": 34.28568,
          "velocity": 1
        },
        {
          "duration": 0.7142850000000038,
          "durationTicks": 320,
          "midi": 32,
          "name": "G#1",
          "ticks": 15744,
          "time": 35.142822,
          "velocity": 1
        },
        {
          "duration": 0.42857099999999804,
          "durationTicks": 192,
          "midi": 37,
          "name": "C#2",
          "ticks": 16128,
          "time": 35.999964000000006,
          "velocity": 1
        },
        {
          "duration": 0.42857099999999804,
          "durationTicks": 192,
          "midi": 32,
          "name": "G#1",
          "ticks": 16320,
          "time": 36.428535000000004,
          "velocity": 1
        },
        {
          "duration": 0.14285699999999935,
          "durationTicks": 64,
          "midi": 37,
          "name": "C#2",
          "ticks": 16512,
          "time": 36.857106,
          "velocity": 1
        },
        {
          "duration": 0.14285700000000645,
          "durationTicks": 64,
          "midi": 32,
          "name": "G#1",
          "ticks": 16576,
          "time": 36.999963,
          "velocity": 1
        },
        {
          "duration": 0.14285699999999224,
          "durationTicks": 64,
          "midi": 37,
          "name": "C#2",
          "ticks": 16640,
          "time": 37.14282000000001,
          "velocity": 1
        },
        {
          "duration": 0.14285699999999935,
          "durationTicks": 64,
          "midi": 41,
          "name": "F2",
          "ticks": 16704,
          "time": 37.285677,
          "velocity": 1
        },
        {
          "duration": 0.14285700000000645,
          "durationTicks": 64,
          "midi": 37,
          "name": "C#2",
          "ticks": 16768,
          "time": 37.428534,
          "velocity": 1
        },
        {
          "duration": 0.14285699999999935,
          "durationTicks": 64,
          "midi": 32,
          "name": "G#1",
          "ticks": 16832,
          "time": 37.571391000000006,
          "velocity": 1
        },
        {
          "duration": 0.2857139999999987,
          "durationTicks": 128,
          "midi": 34,
          "name": "A#1",
          "ticks": 16896,
          "time": 37.714248000000005,
          "velocity": 1
        },
        {
          "duration": 0.2857140000000058,
          "durationTicks": 128,
          "midi": 34,
          "name": "A#1",
          "ticks": 17088,
          "time": 38.142819,
          "velocity": 1
        },
        {
          "duration": 0.2857140000000058,
          "durationTicks": 128,
          "midi": 34,
          "name": "A#1",
          "ticks": 17280,
          "time": 38.57139,
          "velocity": 1
        },
        {
          "duration": 0.2857139999999987,
          "durationTicks": 128,
          "midi": 34,
          "name": "A#1",
          "ticks": 17472,
          "time": 38.999961000000006,
          "velocity": 1
        },
        {
          "duration": 0.2857139999999987,
          "durationTicks": 128,
          "midi": 34,
          "name": "A#1",
          "ticks": 17664,
          "time": 39.428532000000004,
          "velocity": 1
        },
        {
          "duration": 0.2857140000000058,
          "durationTicks": 128,
          "midi": 34,
          "name": "A#1",
          "ticks": 17856,
          "time": 39.857103,
          "velocity": 1
        },
        {
          "duration": 0.2857140000000058,
          "durationTicks": 128,
          "midi": 34,
          "name": "A#1",
          "ticks": 18048,
          "time": 40.285674,
          "velocity": 1
        },
        {
          "duration": 0.2857139999999987,
          "durationTicks": 128,
          "midi": 34,
          "name": "A#1",
          "ticks": 18240,
          "time": 40.714245000000005,
          "velocity": 1
        },
        {
          "duration": 0.2857139999999987,
          "durationTicks": 128,
          "midi": 32,
          "name": "G#1",
          "ticks": 18432,
          "time": 41.142816,
          "velocity": 1
        },
        {
          "duration": 0.2857140000000058,
          "durationTicks": 128,
          "midi": 32,
          "name": "G#1",
          "ticks": 18624,
          "time": 41.571387,
          "velocity": 1
        },
        {
          "duration": 0.2857139999999987,
          "durationTicks": 128,
          "midi": 32,
          "name": "G#1",
          "ticks": 18816,
          "time": 41.99995800000001,
          "velocity": 1
        },
        {
          "duration": 0.2857139999999987,
          "durationTicks": 128,
          "midi": 32,
          "name": "G#1",
          "ticks": 19008,
          "time": 42.428529000000005,
          "velocity": 1
        },
        {
          "duration": 0.2857140000000058,
          "durationTicks": 128,
          "midi": 34,
          "name": "A#1",
          "ticks": 19200,
          "time": 42.8571,
          "velocity": 1
        },
        {
          "duration": 0.2857140000000058,
          "durationTicks": 128,
          "midi": 34,
          "name": "A#1",
          "ticks": 19392,
          "time": 43.285671,
          "velocity": 1
        },
        {
          "duration": 0.2857139999999987,
          "durationTicks": 128,
          "midi": 34,
          "name": "A#1",
          "ticks": 19584,
          "time": 43.714242000000006,
          "velocity": 1
        },
        {
          "duration": 0.14285699999999935,
          "durationTicks": 64,
          "midi": 34,
          "name": "A#1",
          "ticks": 19776,
          "time": 44.142813000000004,
          "velocity": 1
        },
        {
          "duration": 0.14285699999999935,
          "durationTicks": 64,
          "midi": 29,
          "name": "F1",
          "ticks": 19904,
          "time": 44.428527,
          "velocity": 1
        },
        {
          "duration": 0.2857140000000058,
          "durationTicks": 128,
          "midi": 34,
          "name": "A#1",
          "ticks": 19968,
          "time": 44.571384,
          "velocity": 1
        },
        {
          "duration": 0.2857139999999987,
          "durationTicks": 128,
          "midi": 34,
          "name": "A#1",
          "ticks": 20160,
          "time": 44.99995500000001,
          "velocity": 1
        },
        {
          "duration": 0.2857139999999987,
          "durationTicks": 128,
          "midi": 34,
          "name": "A#1",
          "ticks": 20352,
          "time": 45.428526000000005,
          "velocity": 1
        },
        {
          "duration": 0.2857140000000058,
          "durationTicks": 128,
          "midi": 34,
          "name": "A#1",
          "ticks": 20544,
          "time": 45.857097,
          "velocity": 1
        },
        {
          "duration": 0.2857140000000058,
          "durationTicks": 128,
          "midi": 34,
          "name": "A#1",
          "ticks": 20736,
          "time": 46.285668,
          "velocity": 1
        },
        {
          "duration": 0.2857139999999987,
          "durationTicks": 128,
          "midi": 34,
          "name": "A#1",
          "ticks": 20928,
          "time": 46.714239000000006,
          "velocity": 1
        },
        {
          "duration": 0.2857139999999987,
          "durationTicks": 128,
          "midi": 34,
          "name": "A#1",
          "ticks": 21120,
          "time": 47.142810000000004,
          "velocity": 1
        },
        {
          "duration": 0.2857140000000058,
          "durationTicks": 128,
          "midi": 34,
          "name": "A#1",
          "ticks": 21312,
          "time": 47.571381,
          "velocity": 1
        },
        {
          "duration": 3.4285679999999985,
          "durationTicks": 1536,
          "midi": 29,
          "name": "F1",
          "ticks": 21504,
          "time": 47.99995200000001,
          "velocity": 1
        },
        {
          "duration": 0.2857139999999987,
          "durationTicks": 128,
          "midi": 34,
          "name": "A#1",
          "ticks": 23040,
          "time": 51.428520000000006,
          "velocity": 1
        },
        {
          "duration": 0.2857140000000058,
          "durationTicks": 128,
          "midi": 34,
          "name": "A#1",
          "ticks": 23232,
          "time": 51.857091000000004,
          "velocity": 1
        },
        {
          "duration": 0.2857140000000058,
          "durationTicks": 128,
          "midi": 34,
          "name": "A#1",
          "ticks": 23424,
          "time": 52.285662,
          "velocity": 1
        },
        {
          "duration": 0.2857139999999987,
          "durationTicks": 128,
          "midi": 34,
          "name": "A#1",
          "ticks": 23616,
          "time": 52.71423300000001,
          "velocity": 1
        },
        {
          "duration": 0.14285699999999935,
          "durationTicks": 64,
          "midi": 29,
          "name": "F1",
          "ticks": 23744,
          "time": 52.999947000000006,
          "velocity": 1
        },
        {
          "duration": 0.2857139999999987,
          "durationTicks": 128,
          "midi": 34,
          "name": "A#1",
          "ticks": 23808,
          "time": 53.142804000000005,
          "velocity": 1
        },
        {
          "duration": 0.2857140000000058,
          "durationTicks": 128,
          "midi": 34,
          "name": "A#1",
          "ticks": 24000,
          "time": 53.571375,
          "velocity": 1
        },
        {
          "duration": 0.2857140000000058,
          "durationTicks": 128,
          "midi": 34,
          "name": "A#1",
          "ticks": 24192,
          "time": 53.999946,
          "velocity": 1
        },
        {
          "duration": 0.2857139999999987,
          "durationTicks": 128,
          "midi": 34,
          "name": "A#1",
          "ticks": 24384,
          "time": 54.42851700000001,
          "velocity": 1
        },
        {
          "duration": 0.2857139999999987,
          "durationTicks": 128,
          "midi": 27,
          "name": "D#1",
          "ticks": 24576,
          "time": 54.857088000000005,
          "velocity": 1
        },
        {
          "duration": 0.2857139999999987,
          "durationTicks": 128,
          "midi": 27,
          "name": "D#1",
          "ticks": 24768,
          "time": 55.285659,
          "velocity": 1
        },
        {
          "duration": 0.2857139999999916,
          "durationTicks": 128,
          "midi": 27,
          "name": "D#1",
          "ticks": 24960,
          "time": 55.71423000000001,
          "velocity": 1
        },
        {
          "duration": 0.2857139999999916,
          "durationTicks": 128,
          "midi": 27,
          "name": "D#1",
          "ticks": 25152,
          "time": 56.142801000000006,
          "velocity": 1
        },
        {
          "duration": 0.2857139999999987,
          "durationTicks": 128,
          "midi": 27,
          "name": "D#1",
          "ticks": 25344,
          "time": 56.571372000000004,
          "velocity": 1
        },
        {
          "duration": 0.2857139999999987,
          "durationTicks": 128,
          "midi": 27,
          "name": "D#1",
          "ticks": 25536,
          "time": 56.999943,
          "velocity": 1
        },
        {
          "duration": 0.2857139999999916,
          "durationTicks": 128,
          "midi": 27,
          "name": "D#1",
          "ticks": 25728,
          "time": 57.42851400000001,
          "velocity": 1
        },
        {
          "duration": 0.2857139999999987,
          "durationTicks": 128,
          "midi": 29,
          "name": "F1",
          "ticks": 25920,
          "time": 57.857085000000005,
          "velocity": 1
        },
        {
          "duration": 0.2857139999999987,
          "durationTicks": 128,
          "midi": 30,
          "name": "F#1",
          "ticks": 26112,
          "time": 58.285656,
          "velocity": 1
        },
        {
          "duration": 0.2857139999999916,
          "durationTicks": 128,
          "midi": 30,
          "name": "F#1",
          "ticks": 26304,
          "time": 58.71422700000001,
          "velocity": 1
        },
        {
          "duration": 0.2857139999999916,
          "durationTicks": 128,
          "midi": 30,
          "name": "F#1",
          "ticks": 26496,
          "time": 59.142798000000006,
          "velocity": 1
        },
        {
          "duration": 0.2857139999999987,
          "durationTicks": 128,
          "midi": 30,
          "name": "F#1",
          "ticks": 26688,
          "time": 59.571369000000004,
          "velocity": 1
        },
        {
          "duration": 0.2857139999999987,
          "durationTicks": 128,
          "midi": 32,
          "name": "G#1",
          "ticks": 26880,
          "time": 59.99994,
          "velocity": 1
        },
        {
          "duration": 0.2857139999999916,
          "durationTicks": 128,
          "midi": 32,
          "name": "G#1",
          "ticks": 27072,
          "time": 60.42851100000001,
          "velocity": 1
        },
        {
          "duration": 0.2857139999999987,
          "durationTicks": 128,
          "midi": 32,
          "name": "G#1",
          "ticks": 27264,
          "time": 60.857082000000005,
          "velocity": 1
        },
        {
          "duration": 0.2857139999999987,
          "durationTicks": 128,
          "midi": 32,
          "name": "G#1",
          "ticks": 27456,
          "time": 61.285653,
          "velocity": 1
        },
        {
          "duration": 0.2857139999999987,
          "durationTicks": 128,
          "midi": 37,
          "name": "C#2",
          "ticks": 27648,
          "time": 61.714224,
          "velocity": 1
        },
        {
          "duration": 0.2857139999999916,
          "durationTicks": 128,
          "midi": 37,
          "name": "C#2",
          "ticks": 27840,
          "time": 62.14279500000001,
          "velocity": 1
        },
        {
          "duration": 0.2857139999999987,
          "durationTicks": 128,
          "midi": 37,
          "name": "C#2",
          "ticks": 28032,
          "time": 62.571366000000005,
          "velocity": 1
        },
        {
          "duration": 0.2857139999999987,
          "durationTicks": 128,
          "midi": 37,
          "name": "C#2",
          "ticks": 28224,
          "time": 62.999937,
          "velocity": 1
        },
        {
          "duration": 0.2857139999999916,
          "durationTicks": 128,
          "midi": 32,
          "name": "G#1",
          "ticks": 28416,
          "time": 63.42850800000001,
          "velocity": 1
        },
        {
          "duration": 0.2857139999999987,
          "durationTicks": 128,
          "midi": 32,
          "name": "G#1",
          "ticks": 28800,
          "time": 64.28565,
          "velocity": 1
        },
        {
          "duration": 0.42857099999999093,
          "durationTicks": 192,
          "midi": 32,
          "name": "G#1",
          "ticks": 28992,
          "time": 64.71422100000001,
          "velocity": 1
        },
        {
          "duration": 0.3035711250000048,
          "durationTicks": 136,
          "midi": 32,
          "name": "G#1",
          "ticks": 29376,
          "time": 65.571363,
          "velocity": 1
        },
        {
          "duration": 0.12499987500000032,
          "durationTicks": 56,
          "midi": 36,
          "name": "C2",
          "ticks": 29504,
          "time": 65.857077,
          "velocity": 1
        },
        {
          "duration": 0.24999975000000063,
          "durationTicks": 112,
          "midi": 39,
          "name": "D#2",
          "ticks": 29568,
          "time": 65.99993400000001,
          "velocity": 1
        },
        {
          "duration": 0.5357137500000135,
          "durationTicks": 240,
          "midi": 42,
          "name": "F#2",
          "ticks": 29696,
          "time": 66.285648,
          "velocity": 1
        },
        {
          "duration": 0.42857100000000514,
          "durationTicks": 192,
          "midi": 37,
          "name": "C#2",
          "ticks": 29952,
          "time": 66.857076,
          "velocity": 1
        },
        {
          "duration": 0.42857100000000514,
          "durationTicks": 192,
          "midi": 32,
          "name": "G#1",
          "ticks": 30336,
          "time": 67.714218,
          "velocity": 1
        },
        {
          "duration": 0.42857100000000514,
          "durationTicks": 192,
          "midi": 37,
          "name": "C#2",
          "ticks": 30720,
          "time": 68.57136,
          "velocity": 1
        },
        {
          "duration": 0.42857099999999093,
          "durationTicks": 192,
          "midi": 32,
          "name": "G#1",
          "ticks": 31104,
          "time": 69.42850200000001,
          "velocity": 1
        },
        {
          "duration": 0.42857100000000514,
          "durationTicks": 192,
          "midi": 37,
          "name": "C#2",
          "ticks": 31488,
          "time": 70.285644,
          "velocity": 1
        },
        {
          "duration": 0.42857100000000514,
          "durationTicks": 192,
          "midi": 32,
          "name": "G#1",
          "ticks": 31872,
          "time": 71.142786,
          "velocity": 1
        },
        {
          "duration": 0.42857099999999093,
          "durationTicks": 192,
          "midi": 32,
          "name": "G#1",
          "ticks": 32256,
          "time": 71.99992800000001,
          "velocity": 1
        },
        {
          "duration": 0.42857100000000514,
          "durationTicks": 192,
          "midi": 39,
          "name": "D#2",
          "ticks": 32640,
          "time": 72.85707000000001,
          "velocity": 1
        },
        {
          "duration": 0.42857100000000514,
          "durationTicks": 192,
          "midi": 32,
          "name": "G#1",
          "ticks": 33024,
          "time": 73.714212,
          "velocity": 1
        },
        {
          "duration": 0.42857100000000514,
          "durationTicks": 192,
          "midi": 39,
          "name": "D#2",
          "ticks": 33408,
          "time": 74.571354,
          "velocity": 1
        },
        {
          "duration": 0.42857099999999093,
          "durationTicks": 192,
          "midi": 32,
          "name": "G#1",
          "ticks": 33792,
          "time": 75.42849600000001,
          "velocity": 1
        },
        {
          "duration": 0.42857100000000514,
          "durationTicks": 192,
          "midi": 39,
          "name": "D#2",
          "ticks": 34176,
          "time": 76.285638,
          "velocity": 1
        },
        {
          "duration": 0.2857139999999987,
          "durationTicks": 128,
          "midi": 32,
          "name": "G#1",
          "ticks": 34560,
          "time": 77.14278,
          "velocity": 1
        },
        {
          "duration": 0.2857139999999987,
          "durationTicks": 128,
          "midi": 34,
          "name": "A#1",
          "ticks": 34752,
          "time": 77.571351,
          "velocity": 1
        },
        {
          "duration": 0.2857139999999845,
          "durationTicks": 128,
          "midi": 35,
          "name": "B1",
          "ticks": 34944,
          "time": 77.99992200000001,
          "velocity": 1
        },
        {
          "duration": 0.2857139999999987,
          "durationTicks": 128,
          "midi": 36,
          "name": "C2",
          "ticks": 35136,
          "time": 78.428493,
          "velocity": 1
        },
        {
          "duration": 0.42857100000000514,
          "durationTicks": 192,
          "midi": 37,
          "name": "C#2",
          "ticks": 35328,
          "time": 78.85706400000001,
          "velocity": 1
        },
        {
          "duration": 0.42857100000000514,
          "durationTicks": 192,
          "midi": 37,
          "name": "C#2",
          "ticks": 36096,
          "time": 80.571348,
          "velocity": 1
        },
        {
          "duration": 0.42857099999999093,
          "durationTicks": 192,
          "midi": 32,
          "name": "G#1",
          "ticks": 36480,
          "time": 81.42849000000001,
          "velocity": 1
        },
        {
          "duration": 0.42857100000000514,
          "durationTicks": 192,
          "midi": 37,
          "name": "C#2",
          "ticks": 36864,
          "time": 82.285632,
          "velocity": 1
        },
        {
          "duration": 0.42857100000000514,
          "durationTicks": 192,
          "midi": 32,
          "name": "G#1",
          "ticks": 37248,
          "time": 83.142774,
          "velocity": 1
        },
        {
          "duration": 0.42857099999999093,
          "durationTicks": 192,
          "midi": 37,
          "name": "C#2",
          "ticks": 37632,
          "time": 83.99991600000001,
          "velocity": 1
        },
        {
          "duration": 0.42857099999999093,
          "durationTicks": 192,
          "midi": 32,
          "name": "G#1",
          "ticks": 38016,
          "time": 84.85705800000001,
          "velocity": 1
        },
        {
          "duration": 0.42857100000000514,
          "durationTicks": 192,
          "midi": 30,
          "name": "F#1",
          "ticks": 38400,
          "time": 85.7142,
          "velocity": 1
        },
        {
          "duration": 0.42857100000000514,
          "durationTicks": 192,
          "midi": 37,
          "name": "C#2",
          "ticks": 38784,
          "time": 86.571342,
          "velocity": 1
        },
        {
          "duration": 0.42857099999999093,
          "durationTicks": 192,
          "midi": 30,
          "name": "F#1",
          "ticks": 39168,
          "time": 87.42848400000001,
          "velocity": 1
        },
        {
          "duration": 0.5714279999999974,
          "durationTicks": 256,
          "midi": 33,
          "name": "A1",
          "ticks": 39552,
          "time": 88.28562600000001,
          "velocity": 1
        },
        {
          "duration": 0.5714280000000116,
          "durationTicks": 256,
          "midi": 32,
          "name": "G#1",
          "ticks": 39936,
          "time": 89.142768,
          "velocity": 1
        },
        {
          "duration": 0.8571419999999961,
          "durationTicks": 384,
          "midi": 34,
          "name": "A#1",
          "ticks": 40320,
          "time": 89.99991000000001,
          "velocity": 1
        },
        {
          "duration": 0.5714279999999974,
          "durationTicks": 256,
          "midi": 39,
          "name": "D#2",
          "ticks": 40704,
          "time": 90.85705200000001,
          "velocity": 1
        },
        {
          "duration": 0.7142850000000038,
          "durationTicks": 320,
          "midi": 32,
          "name": "G#1",
          "ticks": 41088,
          "time": 91.714194,
          "velocity": 1
        },
        {
          "duration": 0.42857100000000514,
          "durationTicks": 192,
          "midi": 37,
          "name": "C#2",
          "ticks": 41472,
          "time": 92.571336,
          "velocity": 1
        },
        {
          "duration": 0.42857100000000514,
          "durationTicks": 192,
          "midi": 32,
          "name": "G#1",
          "ticks": 41664,
          "time": 92.99990700000001,
          "velocity": 1
        },
        {
          "duration": 0.14285699999999224,
          "durationTicks": 64,
          "midi": 37,
          "name": "C#2",
          "ticks": 41856,
          "time": 93.42847800000001,
          "velocity": 1
        },
        {
          "duration": 0.14285699999999224,
          "durationTicks": 64,
          "midi": 32,
          "name": "G#1",
          "ticks": 41920,
          "time": 93.571335,
          "velocity": 1
        },
        {
          "duration": 0.14285700000000645,
          "durationTicks": 64,
          "midi": 37,
          "name": "C#2",
          "ticks": 41984,
          "time": 93.714192,
          "velocity": 1
        },
        {
          "duration": 0.14285700000000645,
          "durationTicks": 64,
          "midi": 41,
          "name": "F2",
          "ticks": 42048,
          "time": 93.857049,
          "velocity": 1
        },
        {
          "duration": 0.14285699999999224,
          "durationTicks": 64,
          "midi": 37,
          "name": "C#2",
          "ticks": 42112,
          "time": 93.99990600000001,
          "velocity": 1
        },
        {
          "duration": 0.14285700000000645,
          "durationTicks": 64,
          "midi": 32,
          "name": "G#1",
          "ticks": 42176,
          "time": 94.142763,
          "velocity": 1
        },
        {
          "duration": 0.2857139999999987,
          "durationTicks": 128,
          "midi": 34,
          "name": "A#1",
          "ticks": 42240,
          "time": 94.28562000000001,
          "velocity": 1
        },
        {
          "duration": 0.2857139999999845,
          "durationTicks": 128,
          "midi": 34,
          "name": "A#1",
          "ticks": 42432,
          "time": 94.71419100000001,
          "velocity": 1
        },
        {
          "duration": 0.2857139999999987,
          "durationTicks": 128,
          "midi": 34,
          "name": "A#1",
          "ticks": 42624,
          "time": 95.142762,
          "velocity": 1
        },
        {
          "duration": 0.2857139999999987,
          "durationTicks": 128,
          "midi": 34,
          "name": "A#1",
          "ticks": 42816,
          "time": 95.57133300000001,
          "velocity": 1
        },
        {
          "duration": 0.2857139999999845,
          "durationTicks": 128,
          "midi": 34,
          "name": "A#1",
          "ticks": 43008,
          "time": 95.99990400000002,
          "velocity": 1
        },
        {
          "duration": 0.2857139999999987,
          "durationTicks": 128,
          "midi": 34,
          "name": "A#1",
          "ticks": 43200,
          "time": 96.428475,
          "velocity": 1
        },
        {
          "duration": 0.2857139999999987,
          "durationTicks": 128,
          "midi": 34,
          "name": "A#1",
          "ticks": 43392,
          "time": 96.85704600000001,
          "velocity": 1
        },
        {
          "duration": 0.2857139999999987,
          "durationTicks": 128,
          "midi": 34,
          "name": "A#1",
          "ticks": 43584,
          "time": 97.285617,
          "velocity": 1
        },
        {
          "duration": 0.2857139999999987,
          "durationTicks": 128,
          "midi": 32,
          "name": "G#1",
          "ticks": 43776,
          "time": 97.71418800000001,
          "velocity": 1
        },
        {
          "duration": 0.2857139999999987,
          "durationTicks": 128,
          "midi": 32,
          "name": "G#1",
          "ticks": 43968,
          "time": 98.14275900000001,
          "velocity": 1
        },
        {
          "duration": 0.2857139999999987,
          "durationTicks": 128,
          "midi": 32,
          "name": "G#1",
          "ticks": 44160,
          "time": 98.57133,
          "velocity": 1
        },
        {
          "duration": 0.2857139999999987,
          "durationTicks": 128,
          "midi": 32,
          "name": "G#1",
          "ticks": 44352,
          "time": 98.99990100000001,
          "velocity": 1
        },
        {
          "duration": 0.2857139999999845,
          "durationTicks": 128,
          "midi": 34,
          "name": "A#1",
          "ticks": 44544,
          "time": 99.42847200000001,
          "velocity": 1
        },
        {
          "duration": 0.2857139999999987,
          "durationTicks": 128,
          "midi": 34,
          "name": "A#1",
          "ticks": 44736,
          "time": 99.857043,
          "velocity": 1
        },
        {
          "duration": 0.2857139999999987,
          "durationTicks": 128,
          "midi": 34,
          "name": "A#1",
          "ticks": 44928,
          "time": 100.28561400000001,
          "velocity": 1
        },
        {
          "duration": 0.14285699999999224,
          "durationTicks": 64,
          "midi": 34,
          "name": "A#1",
          "ticks": 45120,
          "time": 100.71418500000001,
          "velocity": 1
        },
        {
          "duration": 0.14285700000000645,
          "durationTicks": 64,
          "midi": 29,
          "name": "F1",
          "ticks": 45248,
          "time": 100.999899,
          "velocity": 1
        },
        {
          "duration": 0.2857139999999987,
          "durationTicks": 128,
          "midi": 34,
          "name": "A#1",
          "ticks": 45312,
          "time": 101.142756,
          "velocity": 1
        },
        {
          "duration": 0.2857139999999987,
          "durationTicks": 128,
          "midi": 34,
          "name": "A#1",
          "ticks": 45504,
          "time": 101.57132700000001,
          "velocity": 1
        },
        {
          "duration": 0.2857139999999987,
          "durationTicks": 128,
          "midi": 34,
          "name": "A#1",
          "ticks": 45696,
          "time": 101.999898,
          "velocity": 1
        },
        {
          "duration": 0.2857139999999987,
          "durationTicks": 128,
          "midi": 34,
          "name": "A#1",
          "ticks": 45888,
          "time": 102.428469,
          "velocity": 1
        },
        {
          "duration": 0.2857139999999987,
          "durationTicks": 128,
          "midi": 34,
          "name": "A#1",
          "ticks": 46080,
          "time": 102.85704000000001,
          "velocity": 1
        },
        {
          "duration": 0.2857139999999987,
          "durationTicks": 128,
          "midi": 34,
          "name": "A#1",
          "ticks": 46272,
          "time": 103.285611,
          "velocity": 1
        },
        {
          "duration": 0.2857139999999987,
          "durationTicks": 128,
          "midi": 34,
          "name": "A#1",
          "ticks": 46464,
          "time": 103.71418200000001,
          "velocity": 1
        },
        {
          "duration": 0.2857139999999845,
          "durationTicks": 128,
          "midi": 34,
          "name": "A#1",
          "ticks": 46656,
          "time": 104.14275300000001,
          "velocity": 1
        },
        {
          "duration": 3.4285679999999985,
          "durationTicks": 1536,
          "midi": 29,
          "name": "F1",
          "ticks": 46848,
          "time": 104.571324,
          "velocity": 1
        },
        {
          "duration": 0.2857139999999987,
          "durationTicks": 128,
          "midi": 34,
          "name": "A#1",
          "ticks": 48384,
          "time": 107.999892,
          "velocity": 1
        },
        {
          "duration": 0.2857139999999987,
          "durationTicks": 128,
          "midi": 34,
          "name": "A#1",
          "ticks": 48576,
          "time": 108.42846300000001,
          "velocity": 1
        },
        {
          "duration": 0.2857139999999987,
          "durationTicks": 128,
          "midi": 34,
          "name": "A#1",
          "ticks": 48768,
          "time": 108.85703400000001,
          "velocity": 1
        },
        {
          "duration": 0.2857139999999987,
          "durationTicks": 128,
          "midi": 34,
          "name": "A#1",
          "ticks": 48960,
          "time": 109.285605,
          "velocity": 1
        },
        {
          "duration": 0.14285700000000645,
          "durationTicks": 64,
          "midi": 29,
          "name": "F1",
          "ticks": 49088,
          "time": 109.571319,
          "velocity": 1
        },
        {
          "duration": 0.2857140000000129,
          "durationTicks": 128,
          "midi": 34,
          "name": "A#1",
          "ticks": 49152,
          "time": 109.71417600000001,
          "velocity": 1
        },
        {
          "duration": 0.2857139999999987,
          "durationTicks": 128,
          "midi": 34,
          "name": "A#1",
          "ticks": 49344,
          "time": 110.14274700000001,
          "velocity": 1
        },
        {
          "duration": 0.2857140000000129,
          "durationTicks": 128,
          "midi": 34,
          "name": "A#1",
          "ticks": 49536,
          "time": 110.571318,
          "velocity": 1
        },
        {
          "duration": 0.2857140000000129,
          "durationTicks": 128,
          "midi": 34,
          "name": "A#1",
          "ticks": 49728,
          "time": 110.99988900000001,
          "velocity": 1
        },
        {
          "duration": 0.2857139999999987,
          "durationTicks": 128,
          "midi": 27,
          "name": "D#1",
          "ticks": 49920,
          "time": 111.42846000000002,
          "velocity": 1
        },
        {
          "duration": 0.2857140000000129,
          "durationTicks": 128,
          "midi": 27,
          "name": "D#1",
          "ticks": 50112,
          "time": 111.857031,
          "velocity": 1
        },
        {
          "duration": 0.2857140000000129,
          "durationTicks": 128,
          "midi": 27,
          "name": "D#1",
          "ticks": 50304,
          "time": 112.28560200000001,
          "velocity": 1
        },
        {
          "duration": 0.2857140000000129,
          "durationTicks": 128,
          "midi": 27,
          "name": "D#1",
          "ticks": 50496,
          "time": 112.714173,
          "velocity": 1
        },
        {
          "duration": 0.2857140000000129,
          "durationTicks": 128,
          "midi": 27,
          "name": "D#1",
          "ticks": 50688,
          "time": 113.14274400000001,
          "velocity": 1
        },
        {
          "duration": 0.2857139999999987,
          "durationTicks": 128,
          "midi": 27,
          "name": "D#1",
          "ticks": 50880,
          "time": 113.57131500000001,
          "velocity": 1
        },
        {
          "duration": 0.2857140000000129,
          "durationTicks": 128,
          "midi": 27,
          "name": "D#1",
          "ticks": 51072,
          "time": 113.999886,
          "velocity": 1
        },
        {
          "duration": 0.2857140000000129,
          "durationTicks": 128,
          "midi": 29,
          "name": "F1",
          "ticks": 51264,
          "time": 114.42845700000001,
          "velocity": 1
        },
        {
          "duration": 0.2857139999999987,
          "durationTicks": 128,
          "midi": 30,
          "name": "F#1",
          "ticks": 51456,
          "time": 114.85702800000001,
          "velocity": 1
        },
        {
          "duration": 0.2857140000000129,
          "durationTicks": 128,
          "midi": 30,
          "name": "F#1",
          "ticks": 51648,
          "time": 115.285599,
          "velocity": 1
        },
        {
          "duration": 0.2857140000000129,
          "durationTicks": 128,
          "midi": 30,
          "name": "F#1",
          "ticks": 51840,
          "time": 115.71417000000001,
          "velocity": 1
        },
        {
          "duration": 0.2857139999999987,
          "durationTicks": 128,
          "midi": 30,
          "name": "F#1",
          "ticks": 52032,
          "time": 116.14274100000002,
          "velocity": 1
        },
        {
          "duration": 0.2857140000000129,
          "durationTicks": 128,
          "midi": 32,
          "name": "G#1",
          "ticks": 52224,
          "time": 116.571312,
          "velocity": 1
        },
        {
          "duration": 0.2857140000000129,
          "durationTicks": 128,
          "midi": 32,
          "name": "G#1",
          "ticks": 52416,
          "time": 116.99988300000001,
          "velocity": 1
        },
        {
          "duration": 0.2857139999999987,
          "durationTicks": 128,
          "midi": 32,
          "name": "G#1",
          "ticks": 52608,
          "time": 117.42845400000002,
          "velocity": 1
        },
        {
          "duration": 0.2857140000000129,
          "durationTicks": 128,
          "midi": 32,
          "name": "G#1",
          "ticks": 52800,
          "time": 117.85702500000001,
          "velocity": 1
        },
        {
          "duration": 0.2857139999999987,
          "durationTicks": 128,
          "midi": 37,
          "name": "C#2",
          "ticks": 52992,
          "time": 118.28559600000001,
          "velocity": 1
        },
        {
          "duration": 0.2857140000000129,
          "durationTicks": 128,
          "midi": 37,
          "name": "C#2",
          "ticks": 53184,
          "time": 118.714167,
          "velocity": 1
        },
        {
          "duration": 0.2857140000000129,
          "durationTicks": 128,
          "midi": 37,
          "name": "C#2",
          "ticks": 53376,
          "time": 119.14273800000001,
          "velocity": 1
        },
        {
          "duration": 0.2857139999999987,
          "durationTicks": 128,
          "midi": 37,
          "name": "C#2",
          "ticks": 53568,
          "time": 119.57130900000001,
          "velocity": 1
        },
        {
          "duration": 0.2857140000000129,
          "durationTicks": 128,
          "midi": 32,
          "name": "G#1",
          "ticks": 53760,
          "time": 119.99988,
          "velocity": 1
        },
        {
          "duration": 0.2857139999999987,
          "durationTicks": 128,
          "midi": 32,
          "name": "G#1",
          "ticks": 54144,
          "time": 120.85702200000001,
          "velocity": 1
        },
        {
          "duration": 0.42857100000000514,
          "durationTicks": 192,
          "midi": 32,
          "name": "G#1",
          "ticks": 54336,
          "time": 121.285593,
          "velocity": 1
        },
        {
          "duration": 0.3035711249999906,
          "durationTicks": 136,
          "midi": 32,
          "name": "G#1",
          "ticks": 54720,
          "time": 122.14273500000002,
          "velocity": 1
        },
        {
          "duration": 0.1249998749999861,
          "durationTicks": 56,
          "midi": 36,
          "name": "C2",
          "ticks": 54848,
          "time": 122.42844900000001,
          "velocity": 1
        },
        {
          "duration": 0.24999975000000063,
          "durationTicks": 112,
          "midi": 39,
          "name": "D#2",
          "ticks": 54912,
          "time": 122.571306,
          "velocity": 1
        },
        {
          "duration": 0.5357137499999993,
          "durationTicks": 240,
          "midi": 42,
          "name": "F#2",
          "ticks": 55040,
          "time": 122.85702000000002,
          "velocity": 1
        },
        {
          "duration": 0.42857100000000514,
          "durationTicks": 192,
          "midi": 37,
          "name": "C#2",
          "ticks": 55296,
          "time": 123.428448,
          "velocity": 1
        },
        {
          "duration": 0.42857099999999093,
          "durationTicks": 192,
          "midi": 32,
          "name": "G#1",
          "ticks": 55680,
          "time": 124.28559000000001,
          "velocity": 1
        },
        {
          "duration": 0.42857100000000514,
          "durationTicks": 192,
          "midi": 37,
          "name": "C#2",
          "ticks": 56064,
          "time": 125.14273200000001,
          "velocity": 1
        },
        {
          "duration": 0.42857100000000514,
          "durationTicks": 192,
          "midi": 32,
          "name": "G#1",
          "ticks": 56448,
          "time": 125.999874,
          "velocity": 1
        },
        {
          "duration": 0.42857099999999093,
          "durationTicks": 192,
          "midi": 37,
          "name": "C#2",
          "ticks": 56832,
          "time": 126.85701600000002,
          "velocity": 1
        },
        {
          "duration": 0.42857099999999093,
          "durationTicks": 192,
          "midi": 32,
          "name": "G#1",
          "ticks": 57216,
          "time": 127.71415800000001,
          "velocity": 1
        },
        {
          "duration": 0.42857100000000514,
          "durationTicks": 192,
          "midi": 32,
          "name": "G#1",
          "ticks": 57600,
          "time": 128.5713,
          "velocity": 1
        },
        {
          "duration": 0.42857100000000514,
          "durationTicks": 192,
          "midi": 39,
          "name": "D#2",
          "ticks": 57984,
          "time": 129.42844200000002,
          "velocity": 1
        },
        {
          "duration": 0.42857100000000514,
          "durationTicks": 192,
          "midi": 32,
          "name": "G#1",
          "ticks": 58368,
          "time": 130.285584,
          "velocity": 1
        },
        {
          "duration": 0.42857100000000514,
          "durationTicks": 192,
          "midi": 39,
          "name": "D#2",
          "ticks": 58752,
          "time": 131.142726,
          "velocity": 1
        },
        {
          "duration": 0.4285709999999767,
          "durationTicks": 192,
          "midi": 32,
          "name": "G#1",
          "ticks": 59136,
          "time": 131.99986800000002,
          "velocity": 1
        },
        {
          "duration": 0.42857100000000514,
          "durationTicks": 192,
          "midi": 39,
          "name": "D#2",
          "ticks": 59520,
          "time": 132.85701,
          "velocity": 1
        },
        {
          "duration": 0.2857140000000129,
          "durationTicks": 128,
          "midi": 32,
          "name": "G#1",
          "ticks": 59904,
          "time": 133.714152,
          "velocity": 1
        },
        {
          "duration": 0.2857140000000129,
          "durationTicks": 128,
          "midi": 34,
          "name": "A#1",
          "ticks": 60096,
          "time": 134.14272300000002,
          "velocity": 1
        },
        {
          "duration": 0.2857139999999845,
          "durationTicks": 128,
          "midi": 35,
          "name": "B1",
          "ticks": 60288,
          "time": 134.57129400000002,
          "velocity": 1
        },
        {
          "duration": 0.2857140000000129,
          "durationTicks": 128,
          "midi": 36,
          "name": "C2",
          "ticks": 60480,
          "time": 134.999865,
          "velocity": 1
        },
        {
          "duration": 0.42857100000000514,
          "durationTicks": 192,
          "midi": 37,
          "name": "C#2",
          "ticks": 60672,
          "time": 135.428436,
          "velocity": 1
        },
        {
          "duration": 0.42857100000000514,
          "durationTicks": 192,
          "midi": 37,
          "name": "C#2",
          "ticks": 61440,
          "time": 137.14272,
          "velocity": 1
        },
        {
          "duration": 0.42857100000000514,
          "durationTicks": 192,
          "midi": 32,
          "name": "G#1",
          "ticks": 61824,
          "time": 137.999862,
          "velocity": 1
        },
        {
          "duration": 0.42857100000000514,
          "durationTicks": 192,
          "midi": 37,
          "name": "C#2",
          "ticks": 62208,
          "time": 138.85700400000002,
          "velocity": 1
        },
        {
          "duration": 0.42857100000000514,
          "durationTicks": 192,
          "midi": 32,
          "name": "G#1",
          "ticks": 62592,
          "time": 139.714146,
          "velocity": 1
        },
        {
          "duration": 0.42857100000000514,
          "durationTicks": 192,
          "midi": 37,
          "name": "C#2",
          "ticks": 62976,
          "time": 140.571288,
          "velocity": 1
        },
        {
          "duration": 0.42857100000000514,
          "durationTicks": 192,
          "midi": 32,
          "name": "G#1",
          "ticks": 63360,
          "time": 141.42843000000002,
          "velocity": 1
        },
        {
          "duration": 0.42857100000000514,
          "durationTicks": 192,
          "midi": 30,
          "name": "F#1",
          "ticks": 63744,
          "time": 142.285572,
          "velocity": 1
        },
        {
          "duration": 0.42857100000000514,
          "durationTicks": 192,
          "midi": 37,
          "name": "C#2",
          "ticks": 64128,
          "time": 143.142714,
          "velocity": 1
        },
        {
          "duration": 0.4285709999999767,
          "durationTicks": 192,
          "midi": 30,
          "name": "F#1",
          "ticks": 64512,
          "time": 143.99985600000002,
          "velocity": 1
        },
        {
          "duration": 0.5714279999999974,
          "durationTicks": 256,
          "midi": 33,
          "name": "A1",
          "ticks": 64896,
          "time": 144.856998,
          "velocity": 1
        },
        {
          "duration": 0.5714279999999974,
          "durationTicks": 256,
          "midi": 32,
          "name": "G#1",
          "ticks": 65280,
          "time": 145.71414000000001,
          "velocity": 1
        },
        {
          "duration": 0.8571419999999819,
          "durationTicks": 384,
          "midi": 34,
          "name": "A#1",
          "ticks": 65664,
          "time": 146.57128200000002,
          "velocity": 1
        },
        {
          "duration": 0.5714279999999974,
          "durationTicks": 256,
          "midi": 39,
          "name": "D#2",
          "ticks": 66048,
          "time": 147.428424,
          "velocity": 1
        },
        {
          "duration": 0.7142849999999896,
          "durationTicks": 320,
          "midi": 32,
          "name": "G#1",
          "ticks": 66432,
          "time": 148.28556600000002,
          "velocity": 1
        },
        {
          "duration": 0.42857100000000514,
          "durationTicks": 192,
          "midi": 37,
          "name": "C#2",
          "ticks": 66816,
          "time": 149.142708,
          "velocity": 1
        },
        {
          "duration": 0.42857100000000514,
          "durationTicks": 192,
          "midi": 32,
          "name": "G#1",
          "ticks": 67008,
          "time": 149.571279,
          "velocity": 1
        },
        {
          "duration": 0.42857100000000514,
          "durationTicks": 192,
          "midi": 37,
          "name": "C#2",
          "ticks": 67200,
          "time": 149.99985,
          "velocity": 1
        },
        {
          "duration": 0.2857140000000129,
          "durationTicks": 128,
          "midi": 37,
          "name": "C#2",
          "ticks": 67584,
          "time": 150.85699200000002,
          "velocity": 1
        },
        {
          "duration": 0.2857140000000129,
          "durationTicks": 128,
          "midi": 32,
          "name": "G#1",
          "ticks": 67968,
          "time": 151.714134,
          "velocity": 1
        },
        {
          "duration": 0.42857100000000514,
          "durationTicks": 192,
          "midi": 37,
          "name": "C#2",
          "ticks": 68352,
          "time": 152.571276,
          "velocity": 1
        },
        {
          "duration": 0.4285709999999767,
          "durationTicks": 192,
          "midi": 32,
          "name": "G#1",
          "ticks": 68736,
          "time": 153.42841800000002,
          "velocity": 1
        },
        {
          "duration": 0.42857100000000514,
          "durationTicks": 192,
          "midi": 30,
          "name": "F#1",
          "ticks": 69120,
          "time": 154.28556,
          "velocity": 1
        },
        {
          "duration": 0.42857100000000514,
          "durationTicks": 192,
          "midi": 32,
          "name": "G#1",
          "ticks": 69504,
          "time": 155.142702,
          "velocity": 1
        },
        {
          "duration": 0.2857139999999845,
          "durationTicks": 128,
          "midi": 37,
          "name": "C#2",
          "ticks": 69888,
          "time": 155.99984400000002,
          "velocity": 1
        },
        {
          "duration": 0.2857140000000129,
          "durationTicks": 128,
          "midi": 32,
          "name": "G#1",
          "ticks": 70080,
          "time": 156.428415,
          "velocity": 1
        },
        {
          "duration": 0.2857140000000129,
          "durationTicks": 128,
          "midi": 37,
          "name": "C#2",
          "ticks": 70272,
          "time": 156.856986,
          "velocity": 1
        }
      ],
      "endOfTrackTicks": 70400
    },
    {
      "channel": 2,
      "controlChanges": {
        "7": [
          {
            "number": 7,
            "ticks": 0,
            "time": 0,
            "value": 0.8740157480314961
          },
          {
            "number": 7,
            "ticks": 3248,
            "time": 7.249992750000001,
            "value": 0.8661417322834646
          },
          {
            "number": 7,
            "ticks": 3288,
            "time": 7.339278375000001,
            "value": 0.8582677165354331
          },
          {
            "number": 7,
            "ticks": 3376,
            "time": 7.53570675,
            "value": 0.84251968503937
          },
          {
            "number": 7,
            "ticks": 3416,
            "time": 7.6249923750000015,
            "value": 0.8346456692913385
          },
          {
            "number": 7,
            "ticks": 3504,
            "time": 7.821420750000001,
            "value": 0.8188976377952756
          },
          {
            "number": 7,
            "ticks": 3560,
            "time": 7.946420625000001,
            "value": 0.8110236220472441
          },
          {
            "number": 7,
            "ticks": 3600,
            "time": 8.03570625,
            "value": 0.8031496062992126
          },
          {
            "number": 7,
            "ticks": 3664,
            "time": 8.17856325,
            "value": 0.7952755905511811
          },
          {
            "number": 7,
            "ticks": 3712,
            "time": 8.285706,
            "value": 0.7795275590551181
          },
          {
            "number": 7,
            "ticks": 3768,
            "time": 8.410705875000001,
            "value": 0.7716535433070866
          },
          {
            "number": 7,
            "ticks": 3808,
            "time": 8.4999915,
            "value": 0.7637795275590551
          },
          {
            "number": 7,
            "ticks": 3856,
            "time": 8.60713425,
            "value": 0.7559055118110236
          },
          {
            "number": 7,
            "ticks": 3912,
            "time": 8.732134125,
            "value": 0.7401574803149606
          },
          {
            "number": 7,
            "ticks": 3952,
            "time": 8.82141975,
            "value": 0.7322834645669292
          },
          {
            "number": 7,
            "ticks": 4008,
            "time": 8.946419625,
            "value": 0.7244094488188977
          },
          {
            "number": 7,
            "ticks": 4040,
            "time": 9.017848125,
            "value": 0.7165354330708661
          },
          {
            "number": 7,
            "ticks": 4096,
            "time": 9.142848,
            "value": 0.7086614173228346
          },
          {
            "number": 7,
            "ticks": 4152,
            "time": 9.267847875000001,
            "value": 0.7007874015748031
          },
          {
            "number": 7,
            "ticks": 4208,
            "time": 9.392847750000001,
            "value": 0.6929133858267716
          },
          {
            "number": 7,
            "ticks": 4256,
            "time": 9.499990500000001,
            "value": 0.6771653543307087
          },
          {
            "number": 7,
            "ticks": 4328,
            "time": 9.660704625000001,
            "value": 0.6692913385826772
          },
          {
            "number": 7,
            "ticks": 4408,
            "time": 9.839275875,
            "value": 0.6614173228346457
          },
          {
            "number": 7,
            "ticks": 5152,
            "time": 11.4999885,
            "value": 0.6692913385826772
          },
          {
            "number": 7,
            "ticks": 5208,
            "time": 11.624988375000001,
            "value": 0.6771653543307087
          },
          {
            "number": 7,
            "ticks": 5272,
            "time": 11.767845375,
            "value": 0.6850393700787402
          },
          {
            "number": 7,
            "ticks": 5304,
            "time": 11.839273875000002,
            "value": 0.6929133858267716
          },
          {
            "number": 7,
            "ticks": 5440,
            "time": 12.142845000000001,
            "value": 0.7086614173228346
          },
          {
            "number": 7,
            "ticks": 5520,
            "time": 12.32141625,
            "value": 0.7165354330708661
          },
          {
            "number": 7,
            "ticks": 5568,
            "time": 12.428559000000002,
            "value": 0.7322834645669292
          },
          {
            "number": 7,
            "ticks": 5592,
            "time": 12.482130375,
            "value": 0.7401574803149606
          },
          {
            "number": 7,
            "ticks": 5672,
            "time": 12.660701625000002,
            "value": 0.7480314960629921
          },
          {
            "number": 7,
            "ticks": 5712,
            "time": 12.74998725,
            "value": 0.7559055118110236
          },
          {
            "number": 7,
            "ticks": 5960,
            "time": 13.303558125000002,
            "value": 0.7716535433070866
          },
          {
            "number": 7,
            "ticks": 6256,
            "time": 13.964271750000002,
            "value": 0.7637795275590551
          },
          {
            "number": 7,
            "ticks": 6288,
            "time": 14.035700250000001,
            "value": 0.7559055118110236
          },
          {
            "number": 7,
            "ticks": 6360,
            "time": 14.196414375000002,
            "value": 0.7401574803149606
          },
          {
            "number": 7,
            "ticks": 6448,
            "time": 14.392842750000002,
            "value": 0.7322834645669292
          },
          {
            "number": 7,
            "ticks": 6504,
            "time": 14.517842625000002,
            "value": 0.7244094488188977
          },
          {
            "number": 7,
            "ticks": 27544,
            "time": 61.48208137500001,
            "value": 0.7401574803149606
          },
          {
            "number": 7,
            "ticks": 27680,
            "time": 61.7856525,
            "value": 0.7716535433070866
          },
          {
            "number": 7,
            "ticks": 27680,
            "time": 61.7856525,
            "value": 0.7480314960629921
          },
          {
            "number": 7,
            "ticks": 27688,
            "time": 61.80350962500001,
            "value": 0.8740157480314961
          },
          {
            "number": 7,
            "ticks": 27704,
            "time": 61.839223875,
            "value": 1
          },
          {
            "number": 7,
            "ticks": 28552,
            "time": 63.73207912500001,
            "value": 0.8976377952755905
          },
          {
            "number": 7,
            "ticks": 28568,
            "time": 63.767793375000004,
            "value": 0.6929133858267716
          },
          {
            "number": 7,
            "ticks": 28576,
            "time": 63.78565050000001,
            "value": 0.5669291338582677
          },
          {
            "number": 7,
            "ticks": 28584,
            "time": 63.803507625,
            "value": 0.5354330708661418
          },
          {
            "number": 7,
            "ticks": 28624,
            "time": 63.89279325000001,
            "value": 0.7165354330708661
          },
          {
            "number": 7,
            "ticks": 28664,
            "time": 63.982078875,
            "value": 0.7322834645669292
          },
          {
            "number": 7,
            "ticks": 28680,
            "time": 64.01779312500001,
            "value": 0.8110236220472441
          },
          {
            "number": 7,
            "ticks": 28688,
            "time": 64.03565025,
            "value": 0.8818897637795275
          },
          {
            "number": 7,
            "ticks": 28696,
            "time": 64.05350737500001,
            "value": 0.984251968503937
          },
          {
            "number": 7,
            "ticks": 28712,
            "time": 64.08922162500001,
            "value": 1
          },
          {
            "number": 7,
            "ticks": 29384,
            "time": 65.589220125,
            "value": 0.8740157480314961
          },
          {
            "number": 7,
            "ticks": 29392,
            "time": 65.60707725,
            "value": 0.7952755905511811
          },
          {
            "number": 7,
            "ticks": 29424,
            "time": 65.67850575,
            "value": 0.8740157480314961
          },
          {
            "number": 7,
            "ticks": 29432,
            "time": 65.696362875,
            "value": 1
          },
          {
            "number": 7,
            "ticks": 29912,
            "time": 66.767790375,
            "value": 0.9606299212598425
          },
          {
            "number": 7,
            "ticks": 29920,
            "time": 66.78564750000001,
            "value": 0.8110236220472441
          },
          {
            "number": 7,
            "ticks": 29928,
            "time": 66.803504625,
            "value": 0.7322834645669292
          },
          {
            "number": 7,
            "ticks": 32944,
            "time": 73.53564075000001,
            "value": 0.5275590551181102
          },
          {
            "number": 7,
            "ticks": 32968,
            "time": 73.589212125,
            "value": 0.5354330708661418
          },
          {
            "number": 7,
            "ticks": 32976,
            "time": 73.60706925000001,
            "value": 0.5669291338582677
          },
          {
            "number": 7,
            "ticks": 32992,
            "time": 73.64278350000001,
            "value": 0.5905511811023622
          },
          {
            "number": 7,
            "ticks": 33000,
            "time": 73.660640625,
            "value": 0.6062992125984252
          },
          {
            "number": 7,
            "ticks": 33016,
            "time": 73.69635487500001,
            "value": 0.6299212598425197
          },
          {
            "number": 7,
            "ticks": 33024,
            "time": 73.714212,
            "value": 0.6377952755905512
          },
          {
            "number": 7,
            "ticks": 33040,
            "time": 73.74992625000002,
            "value": 0.6456692913385826
          },
          {
            "number": 7,
            "ticks": 33048,
            "time": 73.76778337500001,
            "value": 0.6535433070866141
          },
          {
            "number": 7,
            "ticks": 33056,
            "time": 73.7856405,
            "value": 0.6692913385826772
          },
          {
            "number": 7,
            "ticks": 33080,
            "time": 73.839211875,
            "value": 0.6771653543307087
          },
          {
            "number": 7,
            "ticks": 33144,
            "time": 73.98206887500001,
            "value": 0.6850393700787402
          },
          {
            "number": 7,
            "ticks": 33184,
            "time": 74.07135450000001,
            "value": 0.6929133858267716
          },
          {
            "number": 7,
            "ticks": 35256,
            "time": 78.69634987500001,
            "value": 0.7322834645669292
          },
          {
            "number": 7,
            "ticks": 35288,
            "time": 78.767778375,
            "value": 0.7559055118110236
          },
          {
            "number": 7,
            "ticks": 35296,
            "time": 78.78563550000001,
            "value": 0.7795275590551181
          },
          {
            "number": 7,
            "ticks": 35312,
            "time": 78.82134975,
            "value": 0.8582677165354331
          },
          {
            "number": 7,
            "ticks": 35320,
            "time": 78.83920687500002,
            "value": 0.8740157480314961
          },
          {
            "number": 7,
            "ticks": 35328,
            "time": 78.85706400000001,
            "value": 0.8818897637795275
          },
          {
            "number": 7,
            "ticks": 35344,
            "time": 78.89277825,
            "value": 0.889763779527559
          },
          {
            "number": 7,
            "ticks": 35352,
            "time": 78.91063537500001,
            "value": 0.8976377952755905
          },
          {
            "number": 7,
            "ticks": 36016,
            "time": 80.39277675000001,
            "value": 0.8740157480314961
          },
          {
            "number": 7,
            "ticks": 36024,
            "time": 80.410633875,
            "value": 0.8661417322834646
          },
          {
            "number": 7,
            "ticks": 36040,
            "time": 80.44634812500001,
            "value": 0.8582677165354331
          },
          {
            "number": 7,
            "ticks": 36048,
            "time": 80.46420525,
            "value": 0.84251968503937
          },
          {
            "number": 7,
            "ticks": 36064,
            "time": 80.4999195,
            "value": 0.8346456692913385
          },
          {
            "number": 7,
            "ticks": 36072,
            "time": 80.51777662500001,
            "value": 0.8110236220472441
          },
          {
            "number": 7,
            "ticks": 36088,
            "time": 80.55349087500001,
            "value": 0.8031496062992126
          },
          {
            "number": 7,
            "ticks": 36104,
            "time": 80.589205125,
            "value": 0.7952755905511811
          },
          {
            "number": 7,
            "ticks": 36280,
            "time": 80.98206187500001,
            "value": 0.7795275590551181
          },
          {
            "number": 7,
            "ticks": 36304,
            "time": 81.03563325000002,
            "value": 0.7716535433070866
          },
          {
            "number": 7,
            "ticks": 36352,
            "time": 81.14277600000001,
            "value": 0.7637795275590551
          },
          {
            "number": 7,
            "ticks": 36400,
            "time": 81.24991875,
            "value": 0.7559055118110236
          },
          {
            "number": 7,
            "ticks": 36448,
            "time": 81.35706150000001,
            "value": 0.7401574803149606
          },
          {
            "number": 7,
            "ticks": 48208,
            "time": 107.60703525000001,
            "value": 0.7559055118110236
          },
          {
            "number": 7,
            "ticks": 48304,
            "time": 107.82132075000001,
            "value": 0.7716535433070866
          },
          {
            "number": 7,
            "ticks": 48312,
            "time": 107.839177875,
            "value": 0.7795275590551181
          },
          {
            "number": 7,
            "ticks": 48328,
            "time": 107.87489212500002,
            "value": 0.8110236220472441
          },
          {
            "number": 7,
            "ticks": 48360,
            "time": 107.94632062500001,
            "value": 0.8188976377952756
          },
          {
            "number": 7,
            "ticks": 48368,
            "time": 107.96417775,
            "value": 0.8267716535433071
          },
          {
            "number": 7,
            "ticks": 48376,
            "time": 107.98203487500001,
            "value": 0.8346456692913385
          },
          {
            "number": 7,
            "ticks": 48392,
            "time": 108.01774912500001,
            "value": 0.84251968503937
          },
          {
            "number": 7,
            "ticks": 48592,
            "time": 108.46417725000002,
            "value": 0.8346456692913385
          },
          {
            "number": 7,
            "ticks": 48616,
            "time": 108.51774862500001,
            "value": 0.8188976377952756
          },
          {
            "number": 7,
            "ticks": 48648,
            "time": 108.589177125,
            "value": 0.8110236220472441
          },
          {
            "number": 7,
            "ticks": 48688,
            "time": 108.67846275000001,
            "value": 0.8031496062992126
          },
          {
            "number": 7,
            "ticks": 48736,
            "time": 108.78560550000002,
            "value": 0.7952755905511811
          },
          {
            "number": 7,
            "ticks": 48760,
            "time": 108.839176875,
            "value": 0.7795275590551181
          },
          {
            "number": 7,
            "ticks": 48784,
            "time": 108.89274825000001,
            "value": 0.7716535433070866
          },
          {
            "number": 7,
            "ticks": 48816,
            "time": 108.96417675000001,
            "value": 0.7637795275590551
          },
          {
            "number": 7,
            "ticks": 48840,
            "time": 109.01774812500001,
            "value": 0.7559055118110236
          },
          {
            "number": 7,
            "ticks": 48856,
            "time": 109.05346237500001,
            "value": 0.7401574803149606
          },
          {
            "number": 7,
            "ticks": 48888,
            "time": 109.124890875,
            "value": 0.7322834645669292
          },
          {
            "number": 7,
            "ticks": 48920,
            "time": 109.196319375,
            "value": 0.7244094488188977
          },
          {
            "number": 7,
            "ticks": 48960,
            "time": 109.285605,
            "value": 0.7165354330708661
          },
          {
            "number": 7,
            "ticks": 48984,
            "time": 109.33917637500001,
            "value": 0.7086614173228346
          },
          {
            "number": 7,
            "ticks": 49072,
            "time": 109.53560475000002,
            "value": 0.7007874015748031
          },
          {
            "number": 7,
            "ticks": 49112,
            "time": 109.624890375,
            "value": 0.6929133858267716
          },
          {
            "number": 7,
            "ticks": 49136,
            "time": 109.67846175000001,
            "value": 0.6771653543307087
          },
          {
            "number": 7,
            "ticks": 49168,
            "time": 109.74989025,
            "value": 0.6692913385826772
          },
          {
            "number": 7,
            "ticks": 49232,
            "time": 109.89274725000001,
            "value": 0.6614173228346457
          },
          {
            "number": 7,
            "ticks": 49296,
            "time": 110.03560425,
            "value": 0.6535433070866141
          },
          {
            "number": 7,
            "ticks": 49336,
            "time": 110.12488987500001,
            "value": 0.6377952755905512
          },
          {
            "number": 7,
            "ticks": 49352,
            "time": 110.16060412500002,
            "value": 0.6299212598425197
          },
          {
            "number": 7,
            "ticks": 49416,
            "time": 110.30346112500001,
            "value": 0.6220472440944882
          },
          {
            "number": 7,
            "ticks": 49480,
            "time": 110.446318125,
            "value": 0.6141732283464567
          },
          {
            "number": 7,
            "ticks": 49520,
            "time": 110.53560375000002,
            "value": 0.6062992125984252
          },
          {
            "number": 7,
            "ticks": 49552,
            "time": 110.60703225,
            "value": 0.5984251968503937
          },
          {
            "number": 7,
            "ticks": 49608,
            "time": 110.732032125,
            "value": 0.5905511811023622
          },
          {
            "number": 7,
            "ticks": 49856,
            "time": 111.28560300000002,
            "value": 0.6062992125984252
          },
          {
            "number": 7,
            "ticks": 49872,
            "time": 111.32131725,
            "value": 0.6299212598425197
          },
          {
            "number": 7,
            "ticks": 49896,
            "time": 111.37488862500001,
            "value": 0.6377952755905512
          },
          {
            "number": 7,
            "ticks": 49912,
            "time": 111.410602875,
            "value": 0.6456692913385826
          },
          {
            "number": 7,
            "ticks": 49920,
            "time": 111.42846000000002,
            "value": 0.6692913385826772
          },
          {
            "number": 7,
            "ticks": 49928,
            "time": 111.44631712500002,
            "value": 0.6771653543307087
          },
          {
            "number": 7,
            "ticks": 49944,
            "time": 111.482031375,
            "value": 0.6850393700787402
          },
          {
            "number": 7,
            "ticks": 49960,
            "time": 111.517745625,
            "value": 0.6929133858267716
          },
          {
            "number": 7,
            "ticks": 49976,
            "time": 111.55345987500002,
            "value": 0.7086614173228346
          },
          {
            "number": 7,
            "ticks": 49984,
            "time": 111.57131700000001,
            "value": 0.7165354330708661
          },
          {
            "number": 7,
            "ticks": 50032,
            "time": 111.67845975,
            "value": 0.7322834645669292
          },
          {
            "number": 7,
            "ticks": 50080,
            "time": 111.7856025,
            "value": 0.7401574803149606
          },
          {
            "number": 7,
            "ticks": 50088,
            "time": 111.803459625,
            "value": 0.7480314960629921
          },
          {
            "number": 7,
            "ticks": 50112,
            "time": 111.857031,
            "value": 0.7559055118110236
          },
          {
            "number": 7,
            "ticks": 50192,
            "time": 112.03560225000001,
            "value": 0.7716535433070866
          },
          {
            "number": 7,
            "ticks": 50240,
            "time": 112.14274500000002,
            "value": 0.7795275590551181
          },
          {
            "number": 7,
            "ticks": 50280,
            "time": 112.23203062500001,
            "value": 0.7874015748031497
          },
          {
            "number": 7,
            "ticks": 50336,
            "time": 112.35703050000002,
            "value": 0.7952755905511811
          },
          {
            "number": 7,
            "ticks": 50376,
            "time": 112.44631612500001,
            "value": 0.8110236220472441
          },
          {
            "number": 7,
            "ticks": 50440,
            "time": 112.589173125,
            "value": 0.8188976377952756
          },
          {
            "number": 7,
            "ticks": 50512,
            "time": 112.74988725,
            "value": 0.8267716535433071
          },
          {
            "number": 7,
            "ticks": 54824,
            "time": 122.37487762500002,
            "value": 0.7795275590551181
          },
          {
            "number": 7,
            "ticks": 54896,
            "time": 122.53559175000002,
            "value": 0.7874015748031497
          },
          {
            "number": 7,
            "ticks": 54904,
            "time": 122.553448875,
            "value": 0.8110236220472441
          },
          {
            "number": 7,
            "ticks": 54920,
            "time": 122.58916312500001,
            "value": 0.8188976377952756
          },
          {
            "number": 7,
            "ticks": 54936,
            "time": 122.62487737500001,
            "value": 0.8267716535433071
          },
          {
            "number": 7,
            "ticks": 54960,
            "time": 122.67844875000002,
            "value": 0.84251968503937
          },
          {
            "number": 7,
            "ticks": 54984,
            "time": 122.732020125,
            "value": 0.8503937007874016
          },
          {
            "number": 7,
            "ticks": 55032,
            "time": 122.83916287500001,
            "value": 0.8582677165354331
          },
          {
            "number": 7,
            "ticks": 55040,
            "time": 122.85702000000002,
            "value": 0.8818897637795275
          },
          {
            "number": 7,
            "ticks": 55056,
            "time": 122.89273425,
            "value": 0.889763779527559
          },
          {
            "number": 7,
            "ticks": 55064,
            "time": 122.91059137500002,
            "value": 0.8976377952755905
          },
          {
            "number": 7,
            "ticks": 55088,
            "time": 122.96416275000001,
            "value": 0.9133858267716536
          },
          {
            "number": 7,
            "ticks": 55216,
            "time": 123.24987675,
            "value": 0.8818897637795275
          },
          {
            "number": 7,
            "ticks": 55224,
            "time": 123.267733875,
            "value": 0.7559055118110236
          },
          {
            "number": 7,
            "ticks": 55240,
            "time": 123.303448125,
            "value": 0.6535433070866141
          },
          {
            "number": 7,
            "ticks": 55248,
            "time": 123.32130525000001,
            "value": 0.6377952755905512
          },
          {
            "number": 7,
            "ticks": 55256,
            "time": 123.33916237500002,
            "value": 0.6299212598425197
          },
          {
            "number": 7,
            "ticks": 67312,
            "time": 150.24984975,
            "value": 0.6377952755905512
          },
          {
            "number": 7,
            "ticks": 67360,
            "time": 150.35699250000002,
            "value": 0.6456692913385826
          },
          {
            "number": 7,
            "ticks": 67368,
            "time": 150.37484962500002,
            "value": 0.6692913385826772
          },
          {
            "number": 7,
            "ticks": 67384,
            "time": 150.410563875,
            "value": 0.6929133858267716
          },
          {
            "number": 7,
            "ticks": 67392,
            "time": 150.42842100000001,
            "value": 0.7165354330708661
          },
          {
            "number": 7,
            "ticks": 67400,
            "time": 150.44627812500002,
            "value": 0.7401574803149606
          },
          {
            "number": 7,
            "ticks": 67416,
            "time": 150.481992375,
            "value": 0.7716535433070866
          },
          {
            "number": 7,
            "ticks": 67424,
            "time": 150.4998495,
            "value": 0.7952755905511811
          },
          {
            "number": 7,
            "ticks": 67440,
            "time": 150.53556375000002,
            "value": 0.8110236220472441
          },
          {
            "number": 7,
            "ticks": 67472,
            "time": 150.60699225000002,
            "value": 0.8188976377952756
          },
          {
            "number": 7,
            "ticks": 67520,
            "time": 150.71413500000003,
            "value": 0.8267716535433071
          },
          {
            "number": 7,
            "ticks": 67536,
            "time": 150.74984925,
            "value": 0.8346456692913385
          },
          {
            "number": 7,
            "ticks": 67552,
            "time": 150.7855635,
            "value": 0.84251968503937
          },
          {
            "number": 7,
            "ticks": 67560,
            "time": 150.803420625,
            "value": 0.8503937007874016
          },
          {
            "number": 7,
            "ticks": 67576,
            "time": 150.839134875,
            "value": 0.8582677165354331
          },
          {
            "number": 7,
            "ticks": 67584,
            "time": 150.85699200000002,
            "value": 0.8740157480314961
          },
          {
            "number": 7,
            "ticks": 67592,
            "time": 150.87484912500003,
            "value": 0.8976377952755905
          },
          {
            "number": 7,
            "ticks": 67616,
            "time": 150.92842050000002,
            "value": 0.9133858267716536
          }
        ],
        "10": [
          {
            "number": 10,
            "ticks": 0,
            "time": 0,
            "value": 0.2204724409448819
          }
        ],
        "91": [
          {
            "number": 91,
            "ticks": 0,
            "time": 0,
            "value": 0.10236220472440945
          }
        ]
      },
      "pitchBends": [],
      "instrument": {
        "family": "reed",
        "number": 71,
        "name": "clarinet"
      },
      "name": "Clarinets       ",
      "notes": [
        {
          "duration": 0.285714,
          "durationTicks": 128,
          "midi": 53,
          "name": "F3",
          "ticks": 0,
          "time": 0,
          "velocity": 1
        },
        {
          "duration": 0.142857,
          "durationTicks": 64,
          "midi": 52,
          "name": "E3",
          "ticks": 128,
          "time": 0.285714,
          "velocity": 1
        },
        {
          "duration": 0.285714,
          "durationTicks": 128,
          "midi": 53,
          "name": "F3",
          "ticks": 192,
          "time": 0.42857100000000004,
          "velocity": 1
        },
        {
          "duration": 0.571428,
          "durationTicks": 256,
          "midi": 56,
          "name": "G#3",
          "ticks": 320,
          "time": 0.7142850000000001,
          "velocity": 1
        },
        {
          "duration": 0.42857100000000004,
          "durationTicks": 192,
          "midi": 53,
          "name": "F3",
          "ticks": 576,
          "time": 1.285713,
          "velocity": 1
        },
        {
          "duration": 0.28571400000000025,
          "durationTicks": 128,
          "midi": 56,
          "name": "G#3",
          "ticks": 768,
          "time": 1.7142840000000001,
          "velocity": 1
        },
        {
          "duration": 0.28571400000000025,
          "durationTicks": 128,
          "midi": 53,
          "name": "F3",
          "ticks": 768,
          "time": 1.7142840000000001,
          "velocity": 0.8818897637795275
        },
        {
          "duration": 0.14285699999999957,
          "durationTicks": 64,
          "midi": 58,
          "name": "A#3",
          "ticks": 896,
          "time": 1.9999980000000004,
          "velocity": 1
        },
        {
          "duration": 0.14285699999999957,
          "durationTicks": 64,
          "midi": 52,
          "name": "E3",
          "ticks": 896,
          "time": 1.9999980000000004,
          "velocity": 0.8818897637795275
        },
        {
          "duration": 0.28571400000000047,
          "durationTicks": 128,
          "midi": 56,
          "name": "G#3",
          "ticks": 960,
          "time": 2.142855,
          "velocity": 1
        },
        {
          "duration": 0.28571400000000047,
          "durationTicks": 128,
          "midi": 53,
          "name": "F3",
          "ticks": 960,
          "time": 2.142855,
          "velocity": 0.8818897637795275
        },
        {
          "duration": 0.4285709999999998,
          "durationTicks": 192,
          "midi": 61,
          "name": "C#4",
          "ticks": 1088,
          "time": 2.4285690000000004,
          "velocity": 1
        },
        {
          "duration": 0.571428,
          "durationTicks": 256,
          "midi": 56,
          "name": "G#3",
          "ticks": 1088,
          "time": 2.4285690000000004,
          "velocity": 0.8818897637795275
        },
        {
          "duration": 0.14285700000000023,
          "durationTicks": 64,
          "midi": 60,
          "name": "C4",
          "ticks": 1280,
          "time": 2.8571400000000002,
          "velocity": 1
        },
        {
          "duration": 0.285714,
          "durationTicks": 128,
          "midi": 61,
          "name": "C#4",
          "ticks": 1344,
          "time": 2.9999970000000005,
          "velocity": 1
        },
        {
          "duration": 0.4285709999999998,
          "durationTicks": 192,
          "midi": 53,
          "name": "F3",
          "ticks": 1344,
          "time": 2.9999970000000005,
          "velocity": 0.8818897637795275
        },
        {
          "duration": 0.1428569999999998,
          "durationTicks": 64,
          "midi": 63,
          "name": "D#4",
          "ticks": 1472,
          "time": 3.2857110000000005,
          "velocity": 1
        },
        {
          "duration": 0.2857139999999996,
          "durationTicks": 128,
          "midi": 65,
          "name": "F4",
          "ticks": 1536,
          "time": 3.4285680000000003,
          "velocity": 1
        },
        {
          "duration": 0.2857139999999996,
          "durationTicks": 128,
          "midi": 58,
          "name": "A#3",
          "ticks": 1536,
          "time": 3.4285680000000003,
          "velocity": 0.8818897637795275
        },
        {
          "duration": 0.14285700000000023,
          "durationTicks": 64,
          "midi": 63,
          "name": "D#4",
          "ticks": 1664,
          "time": 3.714282,
          "velocity": 1
        },
        {
          "duration": 0.2857139999999996,
          "durationTicks": 128,
          "midi": 61,
          "name": "C#4",
          "ticks": 1728,
          "time": 3.857139,
          "velocity": 1
        },
        {
          "duration": 0.14285700000000068,
          "durationTicks": 64,
          "midi": 58,
          "name": "A#3",
          "ticks": 1728,
          "time": 3.857139,
          "velocity": 0.8818897637795275
        },
        {
          "duration": 0.14285700000000023,
          "durationTicks": 64,
          "midi": 58,
          "name": "A#3",
          "ticks": 1856,
          "time": 4.142853,
          "velocity": 1
        },
        {
          "duration": 0.14285700000000023,
          "durationTicks": 64,
          "midi": 58,
          "name": "A#3",
          "ticks": 1856,
          "time": 4.142853,
          "velocity": 0.8818897637795275
        },
        {
          "duration": 0.28571400000000047,
          "durationTicks": 128,
          "midi": 61,
          "name": "C#4",
          "ticks": 1920,
          "time": 4.28571,
          "velocity": 1
        },
        {
          "duration": 0.28571400000000047,
          "durationTicks": 128,
          "midi": 56,
          "name": "G#3",
          "ticks": 1920,
          "time": 4.28571,
          "velocity": 0.8818897637795275
        },
        {
          "duration": 0.4285709999999998,
          "durationTicks": 192,
          "midi": 63,
          "name": "D#4",
          "ticks": 2048,
          "time": 4.571424,
          "velocity": 1
        },
        {
          "duration": 0.4285709999999998,
          "durationTicks": 192,
          "midi": 54,
          "name": "F#3",
          "ticks": 2048,
          "time": 4.571424,
          "velocity": 0.8818897637795275
        },
        {
          "duration": 1.142856000000001,
          "durationTicks": 512,
          "midi": 61,
          "name": "C#4",
          "ticks": 2240,
          "time": 4.999995,
          "velocity": 1
        },
        {
          "duration": 1.2857130000000003,
          "durationTicks": 576,
          "midi": 53,
          "name": "F3",
          "ticks": 2240,
          "time": 4.999995,
          "velocity": 0.8818897637795275
        },
        {
          "duration": 3.142854,
          "durationTicks": 1408,
          "midi": 56,
          "name": "G#3",
          "ticks": 3072,
          "time": 6.857136000000001,
          "velocity": 1
        },
        {
          "duration": 3.142854,
          "durationTicks": 1408,
          "midi": 53,
          "name": "F3",
          "ticks": 3072,
          "time": 6.857136000000001,
          "velocity": 0.8818897637795275
        },
        {
          "duration": 4.999995,
          "durationTicks": 2240,
          "midi": 65,
          "name": "F4",
          "ticks": 4608,
          "time": 10.285704,
          "velocity": 0.6535433070866141
        },
        {
          "duration": 4.999995,
          "durationTicks": 2240,
          "midi": 61,
          "name": "C#4",
          "ticks": 4608,
          "time": 10.285704,
          "velocity": 0.6535433070866141
        },
        {
          "duration": 0.28571400000000047,
          "durationTicks": 128,
          "midi": 60,
          "name": "C4",
          "ticks": 6912,
          "time": 15.428556,
          "velocity": 0.6535433070866141
        },
        {
          "duration": 0.28571400000000047,
          "durationTicks": 128,
          "midi": 63,
          "name": "D#4",
          "ticks": 6912,
          "time": 15.428556,
          "velocity": 0.6535433070866141
        },
        {
          "duration": 0.1785712499999974,
          "durationTicks": 80,
          "midi": 68,
          "name": "G#4",
          "ticks": 7104,
          "time": 15.857127000000002,
          "velocity": 1
        },
        {
          "duration": 0.12499987500000032,
          "durationTicks": 56,
          "midi": 70,
          "name": "A#4",
          "ticks": 7232,
          "time": 16.142841,
          "velocity": 1
        },
        {
          "duration": 0.26785687499999966,
          "durationTicks": 120,
          "midi": 72,
          "name": "C5",
          "ticks": 7296,
          "time": 16.285698,
          "velocity": 1
        },
        {
          "duration": 0.08928562500000226,
          "durationTicks": 40,
          "midi": 70,
          "name": "A#4",
          "ticks": 7424,
          "time": 16.571412,
          "velocity": 1
        },
        {
          "duration": 0.33928537499999933,
          "durationTicks": 152,
          "midi": 68,
          "name": "G#4",
          "ticks": 7488,
          "time": 16.714269,
          "velocity": 1
        },
        {
          "duration": 0.28571400000000224,
          "durationTicks": 128,
          "midi": 60,
          "name": "C4",
          "ticks": 7680,
          "time": 17.14284,
          "velocity": 0.6535433070866141
        },
        {
          "duration": 0.28571400000000224,
          "durationTicks": 128,
          "midi": 63,
          "name": "D#4",
          "ticks": 7680,
          "time": 17.14284,
          "velocity": 0.6535433070866141
        },
        {
          "duration": 0.2857139999999987,
          "durationTicks": 128,
          "midi": 63,
          "name": "D#4",
          "ticks": 7872,
          "time": 17.571411,
          "velocity": 0.6535433070866141
        },
        {
          "duration": 0.2857139999999987,
          "durationTicks": 128,
          "midi": 60,
          "name": "C4",
          "ticks": 7872,
          "time": 17.571411,
          "velocity": 0.6535433070866141
        },
        {
          "duration": 0.2857139999999987,
          "durationTicks": 128,
          "midi": 60,
          "name": "C4",
          "ticks": 8064,
          "time": 17.999982000000003,
          "velocity": 0.6535433070866141
        },
        {
          "duration": 0.2857139999999987,
          "durationTicks": 128,
          "midi": 63,
          "name": "D#4",
          "ticks": 8064,
          "time": 17.999982000000003,
          "velocity": 0.6535433070866141
        },
        {
          "duration": 0.2857139999999987,
          "durationTicks": 128,
          "midi": 60,
          "name": "C4",
          "ticks": 8256,
          "time": 18.428553,
          "velocity": 0.6535433070866141
        },
        {
          "duration": 0.2857139999999987,
          "durationTicks": 128,
          "midi": 63,
          "name": "D#4",
          "ticks": 8256,
          "time": 18.428553,
          "velocity": 0.6535433070866141
        },
        {
          "duration": 0.2857139999999987,
          "durationTicks": 128,
          "midi": 63,
          "name": "D#4",
          "ticks": 8448,
          "time": 18.857124000000002,
          "velocity": 0.6535433070866141
        },
        {
          "duration": 0.2857139999999987,
          "durationTicks": 128,
          "midi": 60,
          "name": "C4",
          "ticks": 8448,
          "time": 18.857124000000002,
          "velocity": 0.6535433070866141
        },
        {
          "duration": 0.2857139999999987,
          "durationTicks": 128,
          "midi": 60,
          "name": "C4",
          "ticks": 8640,
          "time": 19.285695,
          "velocity": 0.6535433070866141
        },
        {
          "duration": 0.2857139999999987,
          "durationTicks": 128,
          "midi": 63,
          "name": "D#4",
          "ticks": 8640,
          "time": 19.285695,
          "velocity": 0.6535433070866141
        },
        {
          "duration": 0.2857139999999987,
          "durationTicks": 128,
          "midi": 60,
          "name": "C4",
          "ticks": 8832,
          "time": 19.714266000000002,
          "velocity": 0.6535433070866141
        },
        {
          "duration": 0.2857139999999987,
          "durationTicks": 128,
          "midi": 63,
          "name": "D#4",
          "ticks": 8832,
          "time": 19.714266000000002,
          "velocity": 0.6535433070866141
        },
        {
          "duration": 0.28571400000000224,
          "durationTicks": 128,
          "midi": 63,
          "name": "D#4",
          "ticks": 9024,
          "time": 20.142837,
          "velocity": 0.6535433070866141
        },
        {
          "duration": 0.28571400000000224,
          "durationTicks": 128,
          "midi": 60,
          "name": "C4",
          "ticks": 9024,
          "time": 20.142837,
          "velocity": 0.6535433070866141
        },
        {
          "duration": 0.2857139999999987,
          "durationTicks": 128,
          "midi": 63,
          "name": "D#4",
          "ticks": 9216,
          "time": 20.571408,
          "velocity": 0.6535433070866141
        },
        {
          "duration": 0.14285699999999935,
          "durationTicks": 64,
          "midi": 60,
          "name": "C4",
          "ticks": 9216,
          "time": 20.571408,
          "velocity": 0.6535433070866141
        },
        {
          "duration": 3.571424999999998,
          "durationTicks": 1600,
          "midi": 61,
          "name": "C#4",
          "ticks": 10752,
          "time": 23.999976000000004,
          "velocity": 0.6535433070866141
        },
        {
          "duration": 5.142851999999998,
          "durationTicks": 2304,
          "midi": 65,
          "name": "F4",
          "ticks": 10752,
          "time": 23.999976000000004,
          "velocity": 0.6535433070866141
        },
        {
          "duration": 1.7142839999999993,
          "durationTicks": 768,
          "midi": 68,
          "name": "G#4",
          "ticks": 12288,
          "time": 27.428544000000002,
          "velocity": 0.6535433070866141
        },
        {
          "duration": 1.7142839999999993,
          "durationTicks": 768,
          "midi": 63,
          "name": "D#4",
          "ticks": 13056,
          "time": 29.142828,
          "velocity": 0.6535433070866141
        },
        {
          "duration": 1.5714270000000035,
          "durationTicks": 704,
          "midi": 66,
          "name": "F#4",
          "ticks": 13056,
          "time": 29.142828,
          "velocity": 0.6535433070866141
        },
        {
          "duration": 0.28571400000000224,
          "durationTicks": 128,
          "midi": 66,
          "name": "F#4",
          "ticks": 13824,
          "time": 30.857112,
          "velocity": 0.6535433070866141
        },
        {
          "duration": 0.28571400000000224,
          "durationTicks": 128,
          "midi": 70,
          "name": "A#4",
          "ticks": 13824,
          "time": 30.857112,
          "velocity": 0.6535433070866141
        },
        {
          "duration": 0.28571400000000224,
          "durationTicks": 128,
          "midi": 70,
          "name": "A#4",
          "ticks": 14016,
          "time": 31.285683000000002,
          "velocity": 0.6535433070866141
        },
        {
          "duration": 0.28571400000000224,
          "durationTicks": 128,
          "midi": 66,
          "name": "F#4",
          "ticks": 14016,
          "time": 31.285683000000002,
          "velocity": 0.6535433070866141
        },
        {
          "duration": 0.28571400000000224,
          "durationTicks": 128,
          "midi": 66,
          "name": "F#4",
          "ticks": 14208,
          "time": 31.714254000000004,
          "velocity": 0.6535433070866141
        },
        {
          "duration": 0.28571400000000224,
          "durationTicks": 128,
          "midi": 69,
          "name": "A4",
          "ticks": 14208,
          "time": 31.714254000000004,
          "velocity": 0.6535433070866141
        },
        {
          "duration": 0.2857140000000058,
          "durationTicks": 128,
          "midi": 66,
          "name": "F#4",
          "ticks": 14400,
          "time": 32.142825,
          "velocity": 0.6535433070866141
        },
        {
          "duration": 0.2857140000000058,
          "durationTicks": 128,
          "midi": 69,
          "name": "A4",
          "ticks": 14400,
          "time": 32.142825,
          "velocity": 0.6535433070866141
        },
        {
          "duration": 0.2857140000000058,
          "durationTicks": 128,
          "midi": 68,
          "name": "G#4",
          "ticks": 14592,
          "time": 32.571396,
          "velocity": 0.6535433070866141
        },
        {
          "duration": 0.2857140000000058,
          "durationTicks": 128,
          "midi": 65,
          "name": "F4",
          "ticks": 14592,
          "time": 32.571396,
          "velocity": 0.6535433070866141
        },
        {
          "duration": 0.2857139999999987,
          "durationTicks": 128,
          "midi": 65,
          "name": "F4",
          "ticks": 14784,
          "time": 32.999967000000005,
          "velocity": 0.6535433070866141
        },
        {
          "duration": 0.2857139999999987,
          "durationTicks": 128,
          "midi": 68,
          "name": "G#4",
          "ticks": 14784,
          "time": 32.999967000000005,
          "velocity": 0.6535433070866141
        },
        {
          "duration": 0.2857139999999987,
          "durationTicks": 128,
          "midi": 65,
          "name": "F4",
          "ticks": 14976,
          "time": 33.428538,
          "velocity": 0.6535433070866141
        },
        {
          "duration": 0.2857139999999987,
          "durationTicks": 128,
          "midi": 70,
          "name": "A#4",
          "ticks": 14976,
          "time": 33.428538,
          "velocity": 0.6535433070866141
        },
        {
          "duration": 0.2857140000000058,
          "durationTicks": 128,
          "midi": 65,
          "name": "F4",
          "ticks": 15168,
          "time": 33.857109,
          "velocity": 0.6535433070866141
        },
        {
          "duration": 0.2857140000000058,
          "durationTicks": 128,
          "midi": 70,
          "name": "A#4",
          "ticks": 15168,
          "time": 33.857109,
          "velocity": 0.6535433070866141
        },
        {
          "duration": 0.2857140000000058,
          "durationTicks": 128,
          "midi": 70,
          "name": "A#4",
          "ticks": 15360,
          "time": 34.28568,
          "velocity": 0.6535433070866141
        },
        {
          "duration": 0.2857140000000058,
          "durationTicks": 128,
          "midi": 66,
          "name": "F#4",
          "ticks": 15360,
          "time": 34.28568,
          "velocity": 0.6535433070866141
        },
        {
          "duration": 0.2857139999999987,
          "durationTicks": 128,
          "midi": 70,
          "name": "A#4",
          "ticks": 15552,
          "time": 34.714251000000004,
          "velocity": 0.6535433070866141
        },
        {
          "duration": 0.2857139999999987,
          "durationTicks": 128,
          "midi": 66,
          "name": "F#4",
          "ticks": 15552,
          "time": 34.714251000000004,
          "velocity": 0.6535433070866141
        },
        {
          "duration": 0.2857140000000058,
          "durationTicks": 128,
          "midi": 65,
          "name": "F4",
          "ticks": 15744,
          "time": 35.142822,
          "velocity": 0.6535433070866141
        },
        {
          "duration": 0.2857140000000058,
          "durationTicks": 128,
          "midi": 68,
          "name": "G#4",
          "ticks": 15744,
          "time": 35.142822,
          "velocity": 0.6535433070866141
        },
        {
          "duration": 0.2857140000000058,
          "durationTicks": 128,
          "midi": 68,
          "name": "G#4",
          "ticks": 15936,
          "time": 35.571393,
          "velocity": 0.6535433070866141
        },
        {
          "duration": 0.2857140000000058,
          "durationTicks": 128,
          "midi": 65,
          "name": "F4",
          "ticks": 15936,
          "time": 35.571393,
          "velocity": 0.6535433070866141
        },
        {
          "duration": 0.2857139999999987,
          "durationTicks": 128,
          "midi": 65,
          "name": "F4",
          "ticks": 16128,
          "time": 35.999964000000006,
          "velocity": 0.6535433070866141
        },
        {
          "duration": 0.2857139999999987,
          "durationTicks": 128,
          "midi": 61,
          "name": "C#4",
          "ticks": 16128,
          "time": 35.999964000000006,
          "velocity": 0.6535433070866141
        },
        {
          "duration": 0.2857139999999987,
          "durationTicks": 128,
          "midi": 65,
          "name": "F4",
          "ticks": 16320,
          "time": 36.428535000000004,
          "velocity": 0.6535433070866141
        },
        {
          "duration": 0.2857139999999987,
          "durationTicks": 128,
          "midi": 61,
          "name": "C#4",
          "ticks": 16320,
          "time": 36.428535000000004,
          "velocity": 0.6535433070866141
        },
        {
          "duration": 0.2857140000000058,
          "durationTicks": 128,
          "midi": 61,
          "name": "C#4",
          "ticks": 16512,
          "time": 36.857106,
          "velocity": 0.6535433070866141
        },
        {
          "duration": 0.2857140000000058,
          "durationTicks": 128,
          "midi": 65,
          "name": "F4",
          "ticks": 16512,
          "time": 36.857106,
          "velocity": 0.6535433070866141
        },
        {
          "duration": 0.8749991250000022,
          "durationTicks": 392,
          "midi": 73,
          "name": "C#5",
          "ticks": 16896,
          "time": 37.714248000000005,
          "velocity": 0.6771653543307087
        },
        {
          "duration": 0.8571420000000032,
          "durationTicks": 384,
          "midi": 72,
          "name": "C5",
          "ticks": 17280,
          "time": 38.57139,
          "velocity": 0.6771653543307087
        },
        {
          "duration": 1.7321411249999983,
          "durationTicks": 776,
          "midi": 70,
          "name": "A#4",
          "ticks": 17664,
          "time": 39.428532000000004,
          "velocity": 0.6771653543307087
        },
        {
          "duration": 0.410713874999999,
          "durationTicks": 184,
          "midi": 72,
          "name": "C5",
          "ticks": 18048,
          "time": 40.285674,
          "velocity": 1
        },
        {
          "duration": 0.4821423749999951,
          "durationTicks": 216,
          "midi": 70,
          "name": "A#4",
          "ticks": 18240,
          "time": 40.714245000000005,
          "velocity": 1
        },
        {
          "duration": 1.7142839999999993,
          "durationTicks": 768,
          "midi": 68,
          "name": "G#4",
          "ticks": 18432,
          "time": 41.142816,
          "velocity": 0.6771653543307087
        },
        {
          "duration": 1.7142839999999993,
          "durationTicks": 768,
          "midi": 68,
          "name": "G#4",
          "ticks": 18432,
          "time": 41.142816,
          "velocity": 1
        },
        {
          "duration": 1.3928557500000025,
          "durationTicks": 624,
          "midi": 70,
          "name": "A#4",
          "ticks": 19200,
          "time": 42.8571,
          "velocity": 0.6771653543307087
        },
        {
          "duration": 1.6964268750000002,
          "durationTicks": 760,
          "midi": 70,
          "name": "A#4",
          "ticks": 19200,
          "time": 42.8571,
          "velocity": 1
        },
        {
          "duration": 0.8571419999999961,
          "durationTicks": 384,
          "midi": 82,
          "name": "A#5",
          "ticks": 23040,
          "time": 51.428520000000006,
          "velocity": 0.8267716535433071
        },
        {
          "duration": 1.660712624999995,
          "durationTicks": 744,
          "midi": 85,
          "name": "C#6",
          "ticks": 23040,
          "time": 51.428520000000006,
          "velocity": 0.889763779527559
        },
        {
          "duration": 0.8214277500000051,
          "durationTicks": 368,
          "midi": 80,
          "name": "G#5",
          "ticks": 23424,
          "time": 52.285662,
          "velocity": 0.6771653543307087
        },
        {
          "duration": 0.8749991250000022,
          "durationTicks": 392,
          "midi": 77,
          "name": "F5",
          "ticks": 23808,
          "time": 53.142804000000005,
          "velocity": 0.6771653543307087
        },
        {
          "duration": 2.6071402500000076,
          "durationTicks": 1168,
          "midi": 75,
          "name": "D#5",
          "ticks": 24192,
          "time": 53.999946,
          "velocity": 0.5118110236220472
        },
        {
          "duration": 3.4285679999999985,
          "durationTicks": 1536,
          "midi": 70,
          "name": "A#4",
          "ticks": 25344,
          "time": 56.571372000000004,
          "velocity": 0.33858267716535434
        },
        {
          "duration": 1.7678553750000034,
          "durationTicks": 792,
          "midi": 44,
          "name": "G#2",
          "ticks": 26880,
          "time": 59.99994,
          "velocity": 0.33858267716535434
        },
        {
          "duration": 1.6607126250000022,
          "durationTicks": 744,
          "midi": 68,
          "name": "G#4",
          "ticks": 26880,
          "time": 59.99994,
          "velocity": 0.33858267716535434
        },
        {
          "duration": 0.14285700000000645,
          "durationTicks": 64,
          "midi": 65,
          "name": "F4",
          "ticks": 27776,
          "time": 61.999938,
          "velocity": 0.6771653543307087
        },
        {
          "duration": 0.16071412499999838,
          "durationTicks": 72,
          "midi": 53,
          "name": "F3",
          "ticks": 27776,
          "time": 61.999938,
          "velocity": 1
        },
        {
          "duration": 0.24999975000000063,
          "durationTicks": 112,
          "midi": 66,
          "name": "F#4",
          "ticks": 27840,
          "time": 62.14279500000001,
          "velocity": 0.6771653543307087
        },
        {
          "duration": 0.3035711250000048,
          "durationTicks": 136,
          "midi": 54,
          "name": "F#3",
          "ticks": 27840,
          "time": 62.14279500000001,
          "velocity": 1
        },
        {
          "duration": 0.10714275000000129,
          "durationTicks": 48,
          "midi": 68,
          "name": "G#4",
          "ticks": 27968,
          "time": 62.428509,
          "velocity": 0.6771653543307087
        },
        {
          "duration": 0.16071412500000548,
          "durationTicks": 72,
          "midi": 56,
          "name": "G#3",
          "ticks": 27968,
          "time": 62.428509,
          "velocity": 1
        },
        {
          "duration": 0.24999975000000774,
          "durationTicks": 112,
          "midi": 66,
          "name": "F#4",
          "ticks": 28032,
          "time": 62.571366000000005,
          "velocity": 0.6771653543307087
        },
        {
          "duration": 0.2857139999999987,
          "durationTicks": 128,
          "midi": 54,
          "name": "F#3",
          "ticks": 28032,
          "time": 62.571366000000005,
          "velocity": 1
        },
        {
          "duration": 0.12499987500000742,
          "durationTicks": 56,
          "midi": 65,
          "name": "F4",
          "ticks": 28160,
          "time": 62.85708,
          "velocity": 0.6771653543307087
        },
        {
          "duration": 0.2321426250000087,
          "durationTicks": 104,
          "midi": 53,
          "name": "F3",
          "ticks": 28160,
          "time": 62.85708,
          "velocity": 1
        },
        {
          "duration": 0.26785687499999966,
          "durationTicks": 120,
          "midi": 63,
          "name": "D#4",
          "ticks": 28224,
          "time": 62.999937,
          "velocity": 0.6771653543307087
        },
        {
          "duration": 0.32142825000000386,
          "durationTicks": 144,
          "midi": 51,
          "name": "D#3",
          "ticks": 28224,
          "time": 62.999937,
          "velocity": 1
        },
        {
          "duration": 0.19642837500000354,
          "durationTicks": 88,
          "midi": 61,
          "name": "C#4",
          "ticks": 28352,
          "time": 63.285651,
          "velocity": 0.6771653543307087
        },
        {
          "duration": 0.19642837500000354,
          "durationTicks": 88,
          "midi": 49,
          "name": "C#3",
          "ticks": 28352,
          "time": 63.285651,
          "velocity": 1
        },
        {
          "duration": 0.410713874999999,
          "durationTicks": 184,
          "midi": 56,
          "name": "G#3",
          "ticks": 28416,
          "time": 63.42850800000001,
          "velocity": 0.6771653543307087
        },
        {
          "duration": 0.42857099999999804,
          "durationTicks": 192,
          "midi": 44,
          "name": "G#2",
          "ticks": 28416,
          "time": 63.42850800000001,
          "velocity": 1
        },
        {
          "duration": 0.26785687500000677,
          "durationTicks": 120,
          "midi": 56,
          "name": "G#3",
          "ticks": 28800,
          "time": 64.28565,
          "velocity": 0.6771653543307087
        },
        {
          "duration": 0.26785687500000677,
          "durationTicks": 120,
          "midi": 44,
          "name": "G#2",
          "ticks": 28800,
          "time": 64.28565,
          "velocity": 1
        },
        {
          "duration": 0.3035711250000048,
          "durationTicks": 136,
          "midi": 56,
          "name": "G#3",
          "ticks": 28992,
          "time": 64.71422100000001,
          "velocity": 0.6771653543307087
        },
        {
          "duration": 0.410713874999999,
          "durationTicks": 184,
          "midi": 44,
          "name": "G#2",
          "ticks": 28992,
          "time": 64.71422100000001,
          "velocity": 1
        },
        {
          "duration": 0.2857139999999987,
          "durationTicks": 128,
          "midi": 56,
          "name": "G#3",
          "ticks": 29376,
          "time": 65.571363,
          "velocity": 1
        },
        {
          "duration": 0.2857139999999987,
          "durationTicks": 128,
          "midi": 44,
          "name": "G#2",
          "ticks": 29376,
          "time": 65.571363,
          "velocity": 1
        },
        {
          "duration": 0.1785712500000045,
          "durationTicks": 80,
          "midi": 60,
          "name": "C4",
          "ticks": 29504,
          "time": 65.857077,
          "velocity": 1
        },
        {
          "duration": 0.14285700000000645,
          "durationTicks": 64,
          "midi": 48,
          "name": "C3",
          "ticks": 29504,
          "time": 65.857077,
          "velocity": 1
        },
        {
          "duration": 0.24999975000000063,
          "durationTicks": 112,
          "midi": 63,
          "name": "D#4",
          "ticks": 29568,
          "time": 65.99993400000001,
          "velocity": 1
        },
        {
          "duration": 0.26785687499999256,
          "durationTicks": 120,
          "midi": 51,
          "name": "D#3",
          "ticks": 29568,
          "time": 65.99993400000001,
          "velocity": 1
        },
        {
          "duration": 0.4642852500000174,
          "durationTicks": 208,
          "midi": 66,
          "name": "F#4",
          "ticks": 29696,
          "time": 66.285648,
          "velocity": 1
        },
        {
          "duration": 0.48214237500000934,
          "durationTicks": 216,
          "midi": 54,
          "name": "F#3",
          "ticks": 29696,
          "time": 66.285648,
          "velocity": 1
        },
        {
          "duration": 4.999994999999998,
          "durationTicks": 2240,
          "midi": 65,
          "name": "F4",
          "ticks": 29952,
          "time": 66.857076,
          "velocity": 0.6535433070866141
        },
        {
          "duration": 4.999994999999998,
          "durationTicks": 2240,
          "midi": 61,
          "name": "C#4",
          "ticks": 29952,
          "time": 66.857076,
          "velocity": 0.6535433070866141
        },
        {
          "duration": 0.2857139999999845,
          "durationTicks": 128,
          "midi": 60,
          "name": "C4",
          "ticks": 32256,
          "time": 71.99992800000001,
          "velocity": 0.6535433070866141
        },
        {
          "duration": 0.2857139999999845,
          "durationTicks": 128,
          "midi": 63,
          "name": "D#4",
          "ticks": 32256,
          "time": 71.99992800000001,
          "velocity": 0.6535433070866141
        },
        {
          "duration": 0.1785712500000045,
          "durationTicks": 80,
          "midi": 68,
          "name": "G#4",
          "ticks": 32448,
          "time": 72.428499,
          "velocity": 1
        },
        {
          "duration": 0.12499987500001453,
          "durationTicks": 56,
          "midi": 70,
          "name": "A#4",
          "ticks": 32576,
          "time": 72.714213,
          "velocity": 1
        },
        {
          "duration": 0.26785687499999256,
          "durationTicks": 120,
          "midi": 72,
          "name": "C5",
          "ticks": 32640,
          "time": 72.85707000000001,
          "velocity": 1
        },
        {
          "duration": 0.08928562500000226,
          "durationTicks": 40,
          "midi": 70,
          "name": "A#4",
          "ticks": 32768,
          "time": 73.142784,
          "velocity": 1
        },
        {
          "duration": 0.3392853749999887,
          "durationTicks": 152,
          "midi": 68,
          "name": "G#4",
          "ticks": 32832,
          "time": 73.28564100000001,
          "velocity": 1
        },
        {
          "duration": 0.2857139999999987,
          "durationTicks": 128,
          "midi": 60,
          "name": "C4",
          "ticks": 33024,
          "time": 73.714212,
          "velocity": 0.6535433070866141
        },
        {
          "duration": 0.2857139999999987,
          "durationTicks": 128,
          "midi": 63,
          "name": "D#4",
          "ticks": 33024,
          "time": 73.714212,
          "velocity": 0.6535433070866141
        },
        {
          "duration": 0.2857139999999987,
          "durationTicks": 128,
          "midi": 63,
          "name": "D#4",
          "ticks": 33216,
          "time": 74.14278300000001,
          "velocity": 0.6535433070866141
        },
        {
          "duration": 0.2857139999999987,
          "durationTicks": 128,
          "midi": 60,
          "name": "C4",
          "ticks": 33216,
          "time": 74.14278300000001,
          "velocity": 0.6535433070866141
        },
        {
          "duration": 0.2857139999999987,
          "durationTicks": 128,
          "midi": 60,
          "name": "C4",
          "ticks": 33408,
          "time": 74.571354,
          "velocity": 0.6535433070866141
        },
        {
          "duration": 0.2857139999999987,
          "durationTicks": 128,
          "midi": 63,
          "name": "D#4",
          "ticks": 33408,
          "time": 74.571354,
          "velocity": 0.6535433070866141
        },
        {
          "duration": 0.2857139999999987,
          "durationTicks": 128,
          "midi": 60,
          "name": "C4",
          "ticks": 33600,
          "time": 74.999925,
          "velocity": 0.6535433070866141
        },
        {
          "duration": 0.2857139999999987,
          "durationTicks": 128,
          "midi": 63,
          "name": "D#4",
          "ticks": 33600,
          "time": 74.999925,
          "velocity": 0.6535433070866141
        },
        {
          "duration": 0.2857139999999987,
          "durationTicks": 128,
          "midi": 63,
          "name": "D#4",
          "ticks": 33792,
          "time": 75.42849600000001,
          "velocity": 0.6535433070866141
        },
        {
          "duration": 0.2857139999999987,
          "durationTicks": 128,
          "midi": 60,
          "name": "C4",
          "ticks": 33792,
          "time": 75.42849600000001,
          "velocity": 0.6535433070866141
        },
        {
          "duration": 0.2857139999999987,
          "durationTicks": 128,
          "midi": 60,
          "name": "C4",
          "ticks": 33984,
          "time": 75.857067,
          "velocity": 0.6535433070866141
        },
        {
          "duration": 0.2857139999999987,
          "durationTicks": 128,
          "midi": 63,
          "name": "D#4",
          "ticks": 33984,
          "time": 75.857067,
          "velocity": 0.6535433070866141
        },
        {
          "duration": 0.2857139999999987,
          "durationTicks": 128,
          "midi": 60,
          "name": "C4",
          "ticks": 34176,
          "time": 76.285638,
          "velocity": 0.6535433070866141
        },
        {
          "duration": 0.2857139999999987,
          "durationTicks": 128,
          "midi": 63,
          "name": "D#4",
          "ticks": 34176,
          "time": 76.285638,
          "velocity": 0.6535433070866141
        },
        {
          "duration": 0.2857139999999845,
          "durationTicks": 128,
          "midi": 63,
          "name": "D#4",
          "ticks": 34368,
          "time": 76.71420900000001,
          "velocity": 0.6535433070866141
        },
        {
          "duration": 0.2857139999999845,
          "durationTicks": 128,
          "midi": 60,
          "name": "C4",
          "ticks": 34368,
          "time": 76.71420900000001,
          "velocity": 0.6535433070866141
        },
        {
          "duration": 0.2857139999999987,
          "durationTicks": 128,
          "midi": 63,
          "name": "D#4",
          "ticks": 34560,
          "time": 77.14278,
          "velocity": 0.6535433070866141
        },
        {
          "duration": 0.14285700000000645,
          "durationTicks": 64,
          "midi": 60,
          "name": "C4",
          "ticks": 34560,
          "time": 77.14278,
          "velocity": 0.6535433070866141
        },
        {
          "duration": 0.12499987500000032,
          "durationTicks": 56,
          "midi": 73,
          "name": "C#5",
          "ticks": 35328,
          "time": 78.85706400000001,
          "velocity": 1
        },
        {
          "duration": 0.08928562500000226,
          "durationTicks": 40,
          "midi": 68,
          "name": "G#4",
          "ticks": 35456,
          "time": 79.142778,
          "velocity": 1
        },
        {
          "duration": 0.14285699999999224,
          "durationTicks": 64,
          "midi": 70,
          "name": "A#4",
          "ticks": 35520,
          "time": 79.28563500000001,
          "velocity": 1
        },
        {
          "duration": 0.10714275000000839,
          "durationTicks": 48,
          "midi": 65,
          "name": "F4",
          "ticks": 35584,
          "time": 79.428492,
          "velocity": 1
        },
        {
          "duration": 0.767856375000008,
          "durationTicks": 344,
          "midi": 68,
          "name": "G#4",
          "ticks": 35648,
          "time": 79.571349,
          "velocity": 1
        },
        {
          "duration": 3.571425000000005,
          "durationTicks": 1600,
          "midi": 61,
          "name": "C#4",
          "ticks": 36096,
          "time": 80.571348,
          "velocity": 0.6535433070866141
        },
        {
          "duration": 5.142852000000005,
          "durationTicks": 2304,
          "midi": 65,
          "name": "F4",
          "ticks": 36096,
          "time": 80.571348,
          "velocity": 0.6535433070866141
        },
        {
          "duration": 1.7142839999999921,
          "durationTicks": 768,
          "midi": 68,
          "name": "G#4",
          "ticks": 37632,
          "time": 83.99991600000001,
          "velocity": 0.6535433070866141
        },
        {
          "duration": 1.7142840000000064,
          "durationTicks": 768,
          "midi": 63,
          "name": "D#4",
          "ticks": 38400,
          "time": 85.7142,
          "velocity": 0.6535433070866141
        },
        {
          "duration": 1.571427,
          "durationTicks": 704,
          "midi": 66,
          "name": "F#4",
          "ticks": 38400,
          "time": 85.7142,
          "velocity": 0.6535433070866141
        },
        {
          "duration": 0.2857139999999845,
          "durationTicks": 128,
          "midi": 66,
          "name": "F#4",
          "ticks": 39168,
          "time": 87.42848400000001,
          "velocity": 0.6535433070866141
        },
        {
          "duration": 0.2857139999999845,
          "durationTicks": 128,
          "midi": 70,
          "name": "A#4",
          "ticks": 39168,
          "time": 87.42848400000001,
          "velocity": 0.6535433070866141
        },
        {
          "duration": 0.2857139999999987,
          "durationTicks": 128,
          "midi": 70,
          "name": "A#4",
          "ticks": 39360,
          "time": 87.857055,
          "velocity": 0.6535433070866141
        },
        {
          "duration": 0.2857139999999987,
          "durationTicks": 128,
          "midi": 66,
          "name": "F#4",
          "ticks": 39360,
          "time": 87.857055,
          "velocity": 0.6535433070866141
        },
        {
          "duration": 0.2857139999999987,
          "durationTicks": 128,
          "midi": 66,
          "name": "F#4",
          "ticks": 39552,
          "time": 88.28562600000001,
          "velocity": 0.6535433070866141
        },
        {
          "duration": 0.2857139999999987,
          "durationTicks": 128,
          "midi": 69,
          "name": "A4",
          "ticks": 39552,
          "time": 88.28562600000001,
          "velocity": 0.6535433070866141
        },
        {
          "duration": 0.2857139999999845,
          "durationTicks": 128,
          "midi": 66,
          "name": "F#4",
          "ticks": 39744,
          "time": 88.71419700000001,
          "velocity": 0.6535433070866141
        },
        {
          "duration": 0.2857139999999845,
          "durationTicks": 128,
          "midi": 69,
          "name": "A4",
          "ticks": 39744,
          "time": 88.71419700000001,
          "velocity": 0.6535433070866141
        },
        {
          "duration": 0.2857139999999987,
          "durationTicks": 128,
          "midi": 68,
          "name": "G#4",
          "ticks": 39936,
          "time": 89.142768,
          "velocity": 0.6535433070866141
        },
        {
          "duration": 0.2857139999999987,
          "durationTicks": 128,
          "midi": 65,
          "name": "F4",
          "ticks": 39936,
          "time": 89.142768,
          "velocity": 0.6535433070866141
        },
        {
          "duration": 0.2857139999999987,
          "durationTicks": 128,
          "midi": 65,
          "name": "F4",
          "ticks": 40128,
          "time": 89.57133900000001,
          "velocity": 0.6535433070866141
        },
        {
          "duration": 0.2857139999999987,
          "durationTicks": 128,
          "midi": 68,
          "name": "G#4",
          "ticks": 40128,
          "time": 89.57133900000001,
          "velocity": 0.6535433070866141
        },
        {
          "duration": 0.2857139999999845,
          "durationTicks": 128,
          "midi": 65,
          "name": "F4",
          "ticks": 40320,
          "time": 89.99991000000001,
          "velocity": 0.6535433070866141
        },
        {
          "duration": 0.2857139999999845,
          "durationTicks": 128,
          "midi": 70,
          "name": "A#4",
          "ticks": 40320,
          "time": 89.99991000000001,
          "velocity": 0.6535433070866141
        },
        {
          "duration": 0.2857139999999987,
          "durationTicks": 128,
          "midi": 65,
          "name": "F4",
          "ticks": 40512,
          "time": 90.428481,
          "velocity": 0.6535433070866141
        },
        {
          "duration": 0.2857139999999987,
          "durationTicks": 128,
          "midi": 70,
          "name": "A#4",
          "ticks": 40512,
          "time": 90.428481,
          "velocity": 0.6535433070866141
        },
        {
          "duration": 0.2857139999999987,
          "durationTicks": 128,
          "midi": 70,
          "name": "A#4",
          "ticks": 40704,
          "time": 90.85705200000001,
          "velocity": 0.6535433070866141
        },
        {
          "duration": 0.2857139999999987,
          "durationTicks": 128,
          "midi": 66,
          "name": "F#4",
          "ticks": 40704,
          "time": 90.85705200000001,
          "velocity": 0.6535433070866141
        },
        {
          "duration": 0.2857139999999987,
          "durationTicks": 128,
          "midi": 70,
          "name": "A#4",
          "ticks": 40896,
          "time": 91.285623,
          "velocity": 0.6535433070866141
        },
        {
          "duration": 0.2857139999999987,
          "durationTicks": 128,
          "midi": 66,
          "name": "F#4",
          "ticks": 40896,
          "time": 91.285623,
          "velocity": 0.6535433070866141
        },
        {
          "duration": 0.2857139999999987,
          "durationTicks": 128,
          "midi": 65,
          "name": "F4",
          "ticks": 41088,
          "time": 91.714194,
          "velocity": 0.6535433070866141
        },
        {
          "duration": 0.2857139999999987,
          "durationTicks": 128,
          "midi": 68,
          "name": "G#4",
          "ticks": 41088,
          "time": 91.714194,
          "velocity": 0.6535433070866141
        },
        {
          "duration": 0.2857139999999987,
          "durationTicks": 128,
          "midi": 68,
          "name": "G#4",
          "ticks": 41280,
          "time": 92.14276500000001,
          "velocity": 0.6535433070866141
        },
        {
          "duration": 0.2857139999999987,
          "durationTicks": 128,
          "midi": 65,
          "name": "F4",
          "ticks": 41280,
          "time": 92.14276500000001,
          "velocity": 0.6535433070866141
        },
        {
          "duration": 0.2857139999999987,
          "durationTicks": 128,
          "midi": 65,
          "name": "F4",
          "ticks": 41472,
          "time": 92.571336,
          "velocity": 0.6535433070866141
        },
        {
          "duration": 0.2857139999999987,
          "durationTicks": 128,
          "midi": 61,
          "name": "C#4",
          "ticks": 41472,
          "time": 92.571336,
          "velocity": 0.6535433070866141
        },
        {
          "duration": 0.2857139999999987,
          "durationTicks": 128,
          "midi": 65,
          "name": "F4",
          "ticks": 41664,
          "time": 92.99990700000001,
          "velocity": 0.6535433070866141
        },
        {
          "duration": 0.2857139999999987,
          "durationTicks": 128,
          "midi": 61,
          "name": "C#4",
          "ticks": 41664,
          "time": 92.99990700000001,
          "velocity": 0.6535433070866141
        },
        {
          "duration": 0.2857139999999845,
          "durationTicks": 128,
          "midi": 61,
          "name": "C#4",
          "ticks": 41856,
          "time": 93.42847800000001,
          "velocity": 0.6535433070866141
        },
        {
          "duration": 0.2857139999999845,
          "durationTicks": 128,
          "midi": 65,
          "name": "F4",
          "ticks": 41856,
          "time": 93.42847800000001,
          "velocity": 0.6535433070866141
        },
        {
          "duration": 0.8749991250000022,
          "durationTicks": 392,
          "midi": 73,
          "name": "C#5",
          "ticks": 42240,
          "time": 94.28562000000001,
          "velocity": 0.6771653543307087
        },
        {
          "duration": 0.8571420000000103,
          "durationTicks": 384,
          "midi": 72,
          "name": "C5",
          "ticks": 42624,
          "time": 95.142762,
          "velocity": 0.6771653543307087
        },
        {
          "duration": 1.732141124999984,
          "durationTicks": 776,
          "midi": 70,
          "name": "A#4",
          "ticks": 43008,
          "time": 95.99990400000002,
          "velocity": 0.6771653543307087
        },
        {
          "duration": 0.410713874999999,
          "durationTicks": 184,
          "midi": 72,
          "name": "C5",
          "ticks": 43392,
          "time": 96.85704600000001,
          "velocity": 1
        },
        {
          "duration": 0.48214237500000934,
          "durationTicks": 216,
          "midi": 70,
          "name": "A#4",
          "ticks": 43584,
          "time": 97.285617,
          "velocity": 1
        },
        {
          "duration": 1.7142840000000064,
          "durationTicks": 768,
          "midi": 68,
          "name": "G#4",
          "ticks": 43776,
          "time": 97.71418800000001,
          "velocity": 0.6771653543307087
        },
        {
          "duration": 1.7142840000000064,
          "durationTicks": 768,
          "midi": 68,
          "name": "G#4",
          "ticks": 43776,
          "time": 97.71418800000001,
          "velocity": 1
        },
        {
          "duration": 1.3928557499999954,
          "durationTicks": 624,
          "midi": 70,
          "name": "A#4",
          "ticks": 44544,
          "time": 99.42847200000001,
          "velocity": 0.6771653543307087
        },
        {
          "duration": 1.6964268750000002,
          "durationTicks": 760,
          "midi": 70,
          "name": "A#4",
          "ticks": 44544,
          "time": 99.42847200000001,
          "velocity": 1
        },
        {
          "duration": 0.8571420000000103,
          "durationTicks": 384,
          "midi": 82,
          "name": "A#5",
          "ticks": 48384,
          "time": 107.999892,
          "velocity": 0.8267716535433071
        },
        {
          "duration": 1.6607126250000022,
          "durationTicks": 744,
          "midi": 85,
          "name": "C#6",
          "ticks": 48384,
          "time": 107.999892,
          "velocity": 0.889763779527559
        },
        {
          "duration": 0.821427749999998,
          "durationTicks": 368,
          "midi": 80,
          "name": "G#5",
          "ticks": 48768,
          "time": 108.85703400000001,
          "velocity": 0.6771653543307087
        },
        {
          "duration": 0.8749991250000022,
          "durationTicks": 392,
          "midi": 77,
          "name": "F5",
          "ticks": 49152,
          "time": 109.71417600000001,
          "velocity": 0.6771653543307087
        },
        {
          "duration": 2.6071402500000005,
          "durationTicks": 1168,
          "midi": 75,
          "name": "D#5",
          "ticks": 49536,
          "time": 110.571318,
          "velocity": 0.5118110236220472
        },
        {
          "duration": 3.4285679999999985,
          "durationTicks": 1536,
          "midi": 70,
          "name": "A#4",
          "ticks": 50688,
          "time": 113.14274400000001,
          "velocity": 0.33858267716535434
        },
        {
          "duration": 1.7678553750000106,
          "durationTicks": 792,
          "midi": 44,
          "name": "G#2",
          "ticks": 52224,
          "time": 116.571312,
          "velocity": 0.33858267716535434
        },
        {
          "duration": 1.6607126250000022,
          "durationTicks": 744,
          "midi": 68,
          "name": "G#4",
          "ticks": 52224,
          "time": 116.571312,
          "velocity": 0.33858267716535434
        },
        {
          "duration": 0.14285699999999224,
          "durationTicks": 64,
          "midi": 65,
          "name": "F4",
          "ticks": 53120,
          "time": 118.57131000000001,
          "velocity": 0.6771653543307087
        },
        {
          "duration": 0.1607141250000126,
          "durationTicks": 72,
          "midi": 53,
          "name": "F3",
          "ticks": 53120,
          "time": 118.57131000000001,
          "velocity": 1
        },
        {
          "duration": 0.24999975000000063,
          "durationTicks": 112,
          "midi": 66,
          "name": "F#4",
          "ticks": 53184,
          "time": 118.714167,
          "velocity": 0.6771653543307087
        },
        {
          "duration": 0.3035711250000048,
          "durationTicks": 136,
          "midi": 54,
          "name": "F#3",
          "ticks": 53184,
          "time": 118.714167,
          "velocity": 1
        },
        {
          "duration": 0.10714275000000839,
          "durationTicks": 48,
          "midi": 68,
          "name": "G#4",
          "ticks": 53312,
          "time": 118.99988100000002,
          "velocity": 0.6771653543307087
        },
        {
          "duration": 0.16071412499999838,
          "durationTicks": 72,
          "midi": 56,
          "name": "G#3",
          "ticks": 53312,
          "time": 118.99988100000002,
          "velocity": 1
        },
        {
          "duration": 0.24999974999998642,
          "durationTicks": 112,
          "midi": 66,
          "name": "F#4",
          "ticks": 53376,
          "time": 119.14273800000001,
          "velocity": 0.6771653543307087
        },
        {
          "duration": 0.2857140000000129,
          "durationTicks": 128,
          "midi": 54,
          "name": "F#3",
          "ticks": 53376,
          "time": 119.14273800000001,
          "velocity": 1
        },
        {
          "duration": 0.1249998749999861,
          "durationTicks": 56,
          "midi": 65,
          "name": "F4",
          "ticks": 53504,
          "time": 119.42845200000002,
          "velocity": 0.6771653543307087
        },
        {
          "duration": 0.23214262499998028,
          "durationTicks": 104,
          "midi": 53,
          "name": "F3",
          "ticks": 53504,
          "time": 119.42845200000002,
          "velocity": 1
        },
        {
          "duration": 0.26785687499999256,
          "durationTicks": 120,
          "midi": 63,
          "name": "D#4",
          "ticks": 53568,
          "time": 119.57130900000001,
          "velocity": 0.6771653543307087
        },
        {
          "duration": 0.32142824999999675,
          "durationTicks": 144,
          "midi": 51,
          "name": "D#3",
          "ticks": 53568,
          "time": 119.57130900000001,
          "velocity": 1
        },
        {
          "duration": 0.19642837499999644,
          "durationTicks": 88,
          "midi": 61,
          "name": "C#4",
          "ticks": 53696,
          "time": 119.85702300000001,
          "velocity": 0.6771653543307087
        },
        {
          "duration": 0.19642837499999644,
          "durationTicks": 88,
          "midi": 49,
          "name": "C#3",
          "ticks": 53696,
          "time": 119.85702300000001,
          "velocity": 1
        },
        {
          "duration": 0.410713874999999,
          "durationTicks": 184,
          "midi": 56,
          "name": "G#3",
          "ticks": 53760,
          "time": 119.99988,
          "velocity": 0.6771653543307087
        },
        {
          "duration": 0.42857100000000514,
          "durationTicks": 192,
          "midi": 44,
          "name": "G#2",
          "ticks": 53760,
          "time": 119.99988,
          "velocity": 1
        },
        {
          "duration": 0.26785687499999256,
          "durationTicks": 120,
          "midi": 56,
          "name": "G#3",
          "ticks": 54144,
          "time": 120.85702200000001,
          "velocity": 0.6771653543307087
        },
        {
          "duration": 0.26785687499999256,
          "durationTicks": 120,
          "midi": 44,
          "name": "G#2",
          "ticks": 54144,
          "time": 120.85702200000001,
          "velocity": 1
        },
        {
          "duration": 0.3035711249999906,
          "durationTicks": 136,
          "midi": 56,
          "name": "G#3",
          "ticks": 54336,
          "time": 121.285593,
          "velocity": 0.6771653543307087
        },
        {
          "duration": 0.410713874999999,
          "durationTicks": 184,
          "midi": 44,
          "name": "G#2",
          "ticks": 54336,
          "time": 121.285593,
          "velocity": 1
        },
        {
          "duration": 0.2857139999999987,
          "durationTicks": 128,
          "midi": 56,
          "name": "G#3",
          "ticks": 54720,
          "time": 122.14273500000002,
          "velocity": 1
        },
        {
          "duration": 0.2857139999999987,
          "durationTicks": 128,
          "midi": 44,
          "name": "G#2",
          "ticks": 54720,
          "time": 122.14273500000002,
          "velocity": 1
        },
        {
          "duration": 0.1785712499999903,
          "durationTicks": 80,
          "midi": 60,
          "name": "C4",
          "ticks": 54848,
          "time": 122.42844900000001,
          "velocity": 1
        },
        {
          "duration": 0.14285699999999224,
          "durationTicks": 64,
          "midi": 48,
          "name": "C3",
          "ticks": 54848,
          "time": 122.42844900000001,
          "velocity": 1
        },
        {
          "duration": 0.24999975000000063,
          "durationTicks": 112,
          "midi": 63,
          "name": "D#4",
          "ticks": 54912,
          "time": 122.571306,
          "velocity": 1
        },
        {
          "duration": 0.26785687500000677,
          "durationTicks": 120,
          "midi": 51,
          "name": "D#3",
          "ticks": 54912,
          "time": 122.571306,
          "velocity": 1
        },
        {
          "duration": 0.464285249999989,
          "durationTicks": 208,
          "midi": 66,
          "name": "F#4",
          "ticks": 55040,
          "time": 122.85702000000002,
          "velocity": 1
        },
        {
          "duration": 0.4821423749999951,
          "durationTicks": 216,
          "midi": 54,
          "name": "F#3",
          "ticks": 55040,
          "time": 122.85702000000002,
          "velocity": 1
        },
        {
          "duration": 4.999995000000013,
          "durationTicks": 2240,
          "midi": 65,
          "name": "F4",
          "ticks": 55296,
          "time": 123.428448,
          "velocity": 0.6535433070866141
        },
        {
          "duration": 4.999995000000013,
          "durationTicks": 2240,
          "midi": 61,
          "name": "C#4",
          "ticks": 55296,
          "time": 123.428448,
          "velocity": 0.6535433070866141
        },
        {
          "duration": 0.3035711250000048,
          "durationTicks": 136,
          "midi": 68,
          "name": "G#4",
          "ticks": 55296,
          "time": 123.428448,
          "velocity": 0.6850393700787402
        },
        {
          "duration": 0.16071412499999838,
          "durationTicks": 72,
          "midi": 67,
          "name": "G4",
          "ticks": 55424,
          "time": 123.71416200000002,
          "velocity": 0.6850393700787402
        },
        {
          "duration": 0.3035711249999906,
          "durationTicks": 136,
          "midi": 68,
          "name": "G#4",
          "ticks": 55488,
          "time": 123.85701900000001,
          "velocity": 0.6850393700787402
        },
        {
          "duration": 0.5714279999999832,
          "durationTicks": 256,
          "midi": 73,
          "name": "C#5",
          "ticks": 55616,
          "time": 124.14273300000002,
          "velocity": 0.6850393700787402
        },
        {
          "duration": 0.410713874999999,
          "durationTicks": 184,
          "midi": 68,
          "name": "G#4",
          "ticks": 55872,
          "time": 124.714161,
          "velocity": 0.6850393700787402
        },
        {
          "duration": 0.24999974999998642,
          "durationTicks": 112,
          "midi": 73,
          "name": "C#5",
          "ticks": 56064,
          "time": 125.14273200000001,
          "velocity": 0.6850393700787402
        },
        {
          "duration": 0.1249998749999861,
          "durationTicks": 56,
          "midi": 75,
          "name": "D#5",
          "ticks": 56192,
          "time": 125.42844600000002,
          "velocity": 0.6850393700787402
        },
        {
          "duration": 0.2321426250000087,
          "durationTicks": 104,
          "midi": 73,
          "name": "C#5",
          "ticks": 56256,
          "time": 125.57130300000001,
          "velocity": 0.6850393700787402
        },
        {
          "duration": 0.8035706250000061,
          "durationTicks": 360,
          "midi": 77,
          "name": "F5",
          "ticks": 56384,
          "time": 125.85701700000001,
          "velocity": 0.6850393700787402
        },
        {
          "duration": 0.26785687499999256,
          "durationTicks": 120,
          "midi": 77,
          "name": "F5",
          "ticks": 56832,
          "time": 126.85701600000002,
          "velocity": 0.6850393700787402
        },
        {
          "duration": 0.5535708749999912,
          "durationTicks": 248,
          "midi": 80,
          "name": "G#5",
          "ticks": 56960,
          "time": 127.14273000000001,
          "velocity": 0.6850393700787402
        },
        {
          "duration": 0.44642812499999707,
          "durationTicks": 200,
          "midi": 77,
          "name": "F5",
          "ticks": 57216,
          "time": 127.71415800000001,
          "velocity": 0.6850393700787402
        },
        {
          "duration": 0.23214262500002292,
          "durationTicks": 104,
          "midi": 73,
          "name": "C#5",
          "ticks": 57408,
          "time": 128.142729,
          "velocity": 0.6850393700787402
        },
        {
          "duration": 0.5178566250000074,
          "durationTicks": 232,
          "midi": 78,
          "name": "F#5",
          "ticks": 57536,
          "time": 128.42844300000002,
          "velocity": 0.6850393700787402
        },
        {
          "duration": 0.2857140000000129,
          "durationTicks": 128,
          "midi": 60,
          "name": "C4",
          "ticks": 57600,
          "time": 128.5713,
          "velocity": 0.6535433070866141
        },
        {
          "duration": 0.2857140000000129,
          "durationTicks": 128,
          "midi": 63,
          "name": "D#4",
          "ticks": 57600,
          "time": 128.5713,
          "velocity": 0.6535433070866141
        },
        {
          "duration": 0.1785712500000045,
          "durationTicks": 80,
          "midi": 68,
          "name": "G#4",
          "ticks": 57792,
          "time": 128.999871,
          "velocity": 1
        },
        {
          "duration": 0.1249998749999861,
          "durationTicks": 56,
          "midi": 70,
          "name": "A#4",
          "ticks": 57920,
          "time": 129.28558500000003,
          "velocity": 1
        },
        {
          "duration": 0.26785687499997834,
          "durationTicks": 120,
          "midi": 72,
          "name": "C5",
          "ticks": 57984,
          "time": 129.42844200000002,
          "velocity": 1
        },
        {
          "duration": 0.08928562499997383,
          "durationTicks": 40,
          "midi": 70,
          "name": "A#4",
          "ticks": 58112,
          "time": 129.71415600000003,
          "velocity": 1
        },
        {
          "duration": 0.3392853750000029,
          "durationTicks": 152,
          "midi": 68,
          "name": "G#4",
          "ticks": 58176,
          "time": 129.85701300000002,
          "velocity": 1
        },
        {
          "duration": 0.2857140000000129,
          "durationTicks": 128,
          "midi": 60,
          "name": "C4",
          "ticks": 58368,
          "time": 130.285584,
          "velocity": 0.6535433070866141
        },
        {
          "duration": 0.2857140000000129,
          "durationTicks": 128,
          "midi": 63,
          "name": "D#4",
          "ticks": 58368,
          "time": 130.285584,
          "velocity": 0.6535433070866141
        },
        {
          "duration": 0.12499987500001453,
          "durationTicks": 56,
          "midi": 80,
          "name": "G#5",
          "ticks": 58368,
          "time": 130.285584,
          "velocity": 0.6850393700787402
        },
        {
          "duration": 0.08928562500000226,
          "durationTicks": 40,
          "midi": 80,
          "name": "G#5",
          "ticks": 58496,
          "time": 130.571298,
          "velocity": 0.6850393700787402
        },
        {
          "duration": 0.2857140000000129,
          "durationTicks": 128,
          "midi": 63,
          "name": "D#4",
          "ticks": 58560,
          "time": 130.714155,
          "velocity": 0.6535433070866141
        },
        {
          "duration": 0.2857140000000129,
          "durationTicks": 128,
          "midi": 60,
          "name": "C4",
          "ticks": 58560,
          "time": 130.714155,
          "velocity": 0.6535433070866141
        },
        {
          "duration": 0.21428550000001678,
          "durationTicks": 96,
          "midi": 82,
          "name": "A#5",
          "ticks": 58560,
          "time": 130.714155,
          "velocity": 0.6850393700787402
        },
        {
          "duration": 0.10714275000000839,
          "durationTicks": 48,
          "midi": 84,
          "name": "C6",
          "ticks": 58688,
          "time": 130.99986900000002,
          "velocity": 0.6850393700787402
        },
        {
          "duration": 0.2857140000000129,
          "durationTicks": 128,
          "midi": 60,
          "name": "C4",
          "ticks": 58752,
          "time": 131.142726,
          "velocity": 0.6535433070866141
        },
        {
          "duration": 0.2857140000000129,
          "durationTicks": 128,
          "midi": 63,
          "name": "D#4",
          "ticks": 58752,
          "time": 131.142726,
          "velocity": 0.6535433070866141
        },
        {
          "duration": 0.16071412499999838,
          "durationTicks": 72,
          "midi": 80,
          "name": "G#5",
          "ticks": 58752,
          "time": 131.142726,
          "velocity": 0.6850393700787402
        },
        {
          "duration": 0.08928562499997383,
          "durationTicks": 40,
          "midi": 80,
          "name": "G#5",
          "ticks": 58880,
          "time": 131.42844000000002,
          "velocity": 0.6850393700787402
        },
        {
          "duration": 0.2857140000000129,
          "durationTicks": 128,
          "midi": 60,
          "name": "C4",
          "ticks": 58944,
          "time": 131.57129700000002,
          "velocity": 0.6535433070866141
        },
        {
          "duration": 0.2857140000000129,
          "durationTicks": 128,
          "midi": 63,
          "name": "D#4",
          "ticks": 58944,
          "time": 131.57129700000002,
          "velocity": 0.6535433070866141
        },
        {
          "duration": 0.2857140000000129,
          "durationTicks": 128,
          "midi": 82,
          "name": "A#5",
          "ticks": 58944,
          "time": 131.57129700000002,
          "velocity": 0.6850393700787402
        },
        {
          "duration": 0.19642837499998222,
          "durationTicks": 88,
          "midi": 84,
          "name": "C6",
          "ticks": 59072,
          "time": 131.85701100000003,
          "velocity": 0.6850393700787402
        },
        {
          "duration": 0.2857139999999845,
          "durationTicks": 128,
          "midi": 63,
          "name": "D#4",
          "ticks": 59136,
          "time": 131.99986800000002,
          "velocity": 0.6535433070866141
        },
        {
          "duration": 0.2857139999999845,
          "durationTicks": 128,
          "midi": 60,
          "name": "C4",
          "ticks": 59136,
          "time": 131.99986800000002,
          "velocity": 0.6535433070866141
        },
        {
          "duration": 0.4285709999999767,
          "durationTicks": 192,
          "midi": 80,
          "name": "G#5",
          "ticks": 59136,
          "time": 131.99986800000002,
          "velocity": 0.6850393700787402
        },
        {
          "duration": 0.2857140000000129,
          "durationTicks": 128,
          "midi": 60,
          "name": "C4",
          "ticks": 59328,
          "time": 132.428439,
          "velocity": 0.6535433070866141
        },
        {
          "duration": 0.2857140000000129,
          "durationTicks": 128,
          "midi": 63,
          "name": "D#4",
          "ticks": 59328,
          "time": 132.428439,
          "velocity": 0.6535433070866141
        },
        {
          "duration": 0.24999975000000063,
          "durationTicks": 112,
          "midi": 79,
          "name": "G5",
          "ticks": 59328,
          "time": 132.428439,
          "velocity": 0.6850393700787402
        },
        {
          "duration": 0.5714279999999974,
          "durationTicks": 256,
          "midi": 78,
          "name": "F#5",
          "ticks": 59456,
          "time": 132.714153,
          "velocity": 0.6850393700787402
        },
        {
          "duration": 0.2857140000000129,
          "durationTicks": 128,
          "midi": 60,
          "name": "C4",
          "ticks": 59520,
          "time": 132.85701,
          "velocity": 0.6535433070866141
        },
        {
          "duration": 0.2857140000000129,
          "durationTicks": 128,
          "midi": 63,
          "name": "D#4",
          "ticks": 59520,
          "time": 132.85701,
          "velocity": 0.6535433070866141
        },
        {
          "duration": 0.2857140000000129,
          "durationTicks": 128,
          "midi": 63,
          "name": "D#4",
          "ticks": 59712,
          "time": 133.285581,
          "velocity": 0.6535433070866141
        },
        {
          "duration": 0.2857140000000129,
          "durationTicks": 128,
          "midi": 60,
          "name": "C4",
          "ticks": 59712,
          "time": 133.285581,
          "velocity": 0.6535433070866141
        },
        {
          "duration": 0.2857140000000129,
          "durationTicks": 128,
          "midi": 63,
          "name": "D#4",
          "ticks": 59904,
          "time": 133.714152,
          "velocity": 0.6535433070866141
        },
        {
          "duration": 0.14285699999999224,
          "durationTicks": 64,
          "midi": 60,
          "name": "C4",
          "ticks": 59904,
          "time": 133.714152,
          "velocity": 0.6535433070866141
        },
        {
          "duration": 0.32142824999999675,
          "durationTicks": 144,
          "midi": 80,
          "name": "G#5",
          "ticks": 59904,
          "time": 133.714152,
          "velocity": 0.6850393700787402
        },
        {
          "duration": 0.26785687500000677,
          "durationTicks": 120,
          "midi": 82,
          "name": "A#5",
          "ticks": 60096,
          "time": 134.14272300000002,
          "velocity": 0.6850393700787402
        },
        {
          "duration": 0.19642837499998222,
          "durationTicks": 88,
          "midi": 83,
          "name": "B5",
          "ticks": 60288,
          "time": 134.57129400000002,
          "velocity": 0.6850393700787402
        },
        {
          "duration": 0.24999975000000063,
          "durationTicks": 112,
          "midi": 84,
          "name": "C6",
          "ticks": 60480,
          "time": 134.999865,
          "velocity": 0.6850393700787402
        },
        {
          "duration": 0.2857140000000129,
          "durationTicks": 128,
          "midi": 80,
          "name": "G#5",
          "ticks": 60672,
          "time": 135.428436,
          "velocity": 0.6850393700787402
        },
        {
          "duration": 0.16071412499999838,
          "durationTicks": 72,
          "midi": 79,
          "name": "G5",
          "ticks": 60800,
          "time": 135.71415000000002,
          "velocity": 0.6850393700787402
        },
        {
          "duration": 0.21428549999998836,
          "durationTicks": 96,
          "midi": 78,
          "name": "F#5",
          "ticks": 60864,
          "time": 135.857007,
          "velocity": 0.6850393700787402
        },
        {
          "duration": 0.6249993749999874,
          "durationTicks": 280,
          "midi": 77,
          "name": "F5",
          "ticks": 60992,
          "time": 136.14272100000002,
          "velocity": 0.6850393700787402
        },
        {
          "duration": 3.571425000000005,
          "durationTicks": 1600,
          "midi": 61,
          "name": "C#4",
          "ticks": 61440,
          "time": 137.14272,
          "velocity": 0.6535433070866141
        },
        {
          "duration": 5.142852000000005,
          "durationTicks": 2304,
          "midi": 65,
          "name": "F4",
          "ticks": 61440,
          "time": 137.14272,
          "velocity": 0.6535433070866141
        },
        {
          "duration": 0.30357112500001904,
          "durationTicks": 136,
          "midi": 68,
          "name": "G#4",
          "ticks": 61440,
          "time": 137.14272,
          "velocity": 0.6850393700787402
        },
        {
          "duration": 0.14285699999999224,
          "durationTicks": 64,
          "midi": 67,
          "name": "G4",
          "ticks": 61568,
          "time": 137.428434,
          "velocity": 0.6850393700787402
        },
        {
          "duration": 0.26785687500000677,
          "durationTicks": 120,
          "midi": 68,
          "name": "G#4",
          "ticks": 61632,
          "time": 137.571291,
          "velocity": 0.6850393700787402
        },
        {
          "duration": 0.5714279999999974,
          "durationTicks": 256,
          "midi": 73,
          "name": "C#5",
          "ticks": 61760,
          "time": 137.85700500000002,
          "velocity": 0.6850393700787402
        },
        {
          "duration": 0.3571424999999806,
          "durationTicks": 160,
          "midi": 68,
          "name": "G#4",
          "ticks": 62016,
          "time": 138.428433,
          "velocity": 0.6850393700787402
        },
        {
          "duration": 0.26785687500000677,
          "durationTicks": 120,
          "midi": 73,
          "name": "C#5",
          "ticks": 62208,
          "time": 138.85700400000002,
          "velocity": 0.6850393700787402
        },
        {
          "duration": 0.1249998749999861,
          "durationTicks": 56,
          "midi": 75,
          "name": "D#5",
          "ticks": 62336,
          "time": 139.14271800000003,
          "velocity": 0.6850393700787402
        },
        {
          "duration": 0.21428549999998836,
          "durationTicks": 96,
          "midi": 73,
          "name": "C#5",
          "ticks": 62400,
          "time": 139.28557500000002,
          "velocity": 0.6850393700787402
        },
        {
          "duration": 0.9642847500000187,
          "durationTicks": 432,
          "midi": 77,
          "name": "F5",
          "ticks": 62528,
          "time": 139.571289,
          "velocity": 0.6850393700787402
        },
        {
          "duration": 1.7142839999999921,
          "durationTicks": 768,
          "midi": 68,
          "name": "G#4",
          "ticks": 62976,
          "time": 140.571288,
          "velocity": 0.6535433070866141
        },
        {
          "duration": 0.3035711249999906,
          "durationTicks": 136,
          "midi": 80,
          "name": "G#5",
          "ticks": 63104,
          "time": 140.85700200000002,
          "velocity": 0.6850393700787402
        },
        {
          "duration": 0.16071412499999838,
          "durationTicks": 72,
          "midi": 80,
          "name": "G#5",
          "ticks": 63296,
          "time": 141.28557300000003,
          "velocity": 0.6850393700787402
        },
        {
          "duration": 0.42857100000000514,
          "durationTicks": 192,
          "midi": 78,
          "name": "F#5",
          "ticks": 63360,
          "time": 141.42843000000002,
          "velocity": 0.6850393700787402
        },
        {
          "duration": 0.2321426249999945,
          "durationTicks": 104,
          "midi": 77,
          "name": "F5",
          "ticks": 63552,
          "time": 141.85700100000003,
          "velocity": 0.6850393700787402
        },
        {
          "duration": 1.6607126250000022,
          "durationTicks": 744,
          "midi": 78,
          "name": "F#5",
          "ticks": 63680,
          "time": 142.142715,
          "velocity": 0.6850393700787402
        },
        {
          "duration": 1.7142840000000206,
          "durationTicks": 768,
          "midi": 63,
          "name": "D#4",
          "ticks": 63744,
          "time": 142.285572,
          "velocity": 0.6535433070866141
        },
        {
          "duration": 1.5714270000000283,
          "durationTicks": 704,
          "midi": 66,
          "name": "F#4",
          "ticks": 63744,
          "time": 142.285572,
          "velocity": 0.6535433070866141
        },
        {
          "duration": 0.2857139999999845,
          "durationTicks": 128,
          "midi": 66,
          "name": "F#4",
          "ticks": 64512,
          "time": 143.99985600000002,
          "velocity": 0.6535433070866141
        },
        {
          "duration": 0.2857139999999845,
          "durationTicks": 128,
          "midi": 70,
          "name": "A#4",
          "ticks": 64512,
          "time": 143.99985600000002,
          "velocity": 0.6535433070866141
        },
        {
          "duration": 0.26785687499997834,
          "durationTicks": 120,
          "midi": 82,
          "name": "A#5",
          "ticks": 64512,
          "time": 143.99985600000002,
          "velocity": 0.6850393700787402
        },
        {
          "duration": 0.2857140000000129,
          "durationTicks": 128,
          "midi": 70,
          "name": "A#4",
          "ticks": 64704,
          "time": 144.428427,
          "velocity": 0.6535433070866141
        },
        {
          "duration": 0.2857140000000129,
          "durationTicks": 128,
          "midi": 66,
          "name": "F#4",
          "ticks": 64704,
          "time": 144.428427,
          "velocity": 0.6535433070866141
        },
        {
          "duration": 0.23214262500002292,
          "durationTicks": 104,
          "midi": 82,
          "name": "A#5",
          "ticks": 64704,
          "time": 144.428427,
          "velocity": 0.6850393700787402
        },
        {
          "duration": 0.3392853750000029,
          "durationTicks": 152,
          "midi": 81,
          "name": "A5",
          "ticks": 64832,
          "time": 144.714141,
          "velocity": 0.6850393700787402
        },
        {
          "duration": 0.2857140000000129,
          "durationTicks": 128,
          "midi": 66,
          "name": "F#4",
          "ticks": 64896,
          "time": 144.856998,
          "velocity": 0.6535433070866141
        },
        {
          "duration": 0.2857140000000129,
          "durationTicks": 128,
          "midi": 69,
          "name": "A4",
          "ticks": 64896,
          "time": 144.856998,
          "velocity": 0.6535433070866141
        },
        {
          "duration": 0.49999949999997284,
          "durationTicks": 224,
          "midi": 81,
          "name": "A5",
          "ticks": 65024,
          "time": 145.14271200000002,
          "velocity": 0.6850393700787402
        },
        {
          "duration": 0.2857140000000129,
          "durationTicks": 128,
          "midi": 66,
          "name": "F#4",
          "ticks": 65088,
          "time": 145.285569,
          "velocity": 0.6535433070866141
        },
        {
          "duration": 0.2857140000000129,
          "durationTicks": 128,
          "midi": 69,
          "name": "A4",
          "ticks": 65088,
          "time": 145.285569,
          "velocity": 0.6535433070866141
        },
        {
          "duration": 0.2857140000000129,
          "durationTicks": 128,
          "midi": 68,
          "name": "G#4",
          "ticks": 65280,
          "time": 145.71414000000001,
          "velocity": 0.6535433070866141
        },
        {
          "duration": 0.2857140000000129,
          "durationTicks": 128,
          "midi": 65,
          "name": "F4",
          "ticks": 65280,
          "time": 145.71414000000001,
          "velocity": 0.6535433070866141
        },
        {
          "duration": 0.19642837499998222,
          "durationTicks": 88,
          "midi": 80,
          "name": "G#5",
          "ticks": 65280,
          "time": 145.71414000000001,
          "velocity": 0.6850393700787402
        },
        {
          "duration": 0.2857140000000129,
          "durationTicks": 128,
          "midi": 65,
          "name": "F4",
          "ticks": 65472,
          "time": 146.14271100000002,
          "velocity": 0.6535433070866141
        },
        {
          "duration": 0.2857140000000129,
          "durationTicks": 128,
          "midi": 68,
          "name": "G#4",
          "ticks": 65472,
          "time": 146.14271100000002,
          "velocity": 0.6535433070866141
        },
        {
          "duration": 0.2499997499999722,
          "durationTicks": 112,
          "midi": 80,
          "name": "G#5",
          "ticks": 65472,
          "time": 146.14271100000002,
          "velocity": 0.6850393700787402
        },
        {
          "duration": 0.33928537499997447,
          "durationTicks": 152,
          "midi": 82,
          "name": "A#5",
          "ticks": 65600,
          "time": 146.42842500000003,
          "velocity": 0.6850393700787402
        },
        {
          "duration": 0.2857139999999845,
          "durationTicks": 128,
          "midi": 65,
          "name": "F4",
          "ticks": 65664,
          "time": 146.57128200000002,
          "velocity": 0.6535433070866141
        },
        {
          "duration": 0.2857139999999845,
          "durationTicks": 128,
          "midi": 70,
          "name": "A#4",
          "ticks": 65664,
          "time": 146.57128200000002,
          "velocity": 0.6535433070866141
        },
        {
          "duration": 0.49999950000000126,
          "durationTicks": 224,
          "midi": 82,
          "name": "A#5",
          "ticks": 65792,
          "time": 146.856996,
          "velocity": 0.6850393700787402
        },
        {
          "duration": 0.2857140000000129,
          "durationTicks": 128,
          "midi": 65,
          "name": "F4",
          "ticks": 65856,
          "time": 146.999853,
          "velocity": 0.6535433070866141
        },
        {
          "duration": 0.2857140000000129,
          "durationTicks": 128,
          "midi": 70,
          "name": "A#4",
          "ticks": 65856,
          "time": 146.999853,
          "velocity": 0.6535433070866141
        },
        {
          "duration": 0.2857140000000129,
          "durationTicks": 128,
          "midi": 70,
          "name": "A#4",
          "ticks": 66048,
          "time": 147.428424,
          "velocity": 0.6535433070866141
        },
        {
          "duration": 0.2857140000000129,
          "durationTicks": 128,
          "midi": 66,
          "name": "F#4",
          "ticks": 66048,
          "time": 147.428424,
          "velocity": 0.6535433070866141
        },
        {
          "duration": 0.21428550000001678,
          "durationTicks": 96,
          "midi": 82,
          "name": "A#5",
          "ticks": 66048,
          "time": 147.428424,
          "velocity": 0.6850393700787402
        },
        {
          "duration": 0.44642812499998286,
          "durationTicks": 200,
          "midi": 82,
          "name": "A#5",
          "ticks": 66176,
          "time": 147.71413800000002,
          "velocity": 0.6850393700787402
        },
        {
          "duration": 0.2857140000000129,
          "durationTicks": 128,
          "midi": 70,
          "name": "A#4",
          "ticks": 66240,
          "time": 147.856995,
          "velocity": 0.6535433070866141
        },
        {
          "duration": 0.2857140000000129,
          "durationTicks": 128,
          "midi": 66,
          "name": "F#4",
          "ticks": 66240,
          "time": 147.856995,
          "velocity": 0.6535433070866141
        },
        {
          "duration": 0.2857140000000129,
          "durationTicks": 128,
          "midi": 65,
          "name": "F4",
          "ticks": 66432,
          "time": 148.28556600000002,
          "velocity": 0.6535433070866141
        },
        {
          "duration": 0.2857140000000129,
          "durationTicks": 128,
          "midi": 68,
          "name": "G#4",
          "ticks": 66432,
          "time": 148.28556600000002,
          "velocity": 0.6535433070866141
        },
        {
          "duration": 0.19642837499998222,
          "durationTicks": 88,
          "midi": 80,
          "name": "G#5",
          "ticks": 66432,
          "time": 148.28556600000002,
          "velocity": 0.6850393700787402
        },
        {
          "duration": 0.3571424999999806,
          "durationTicks": 160,
          "midi": 80,
          "name": "G#5",
          "ticks": 66560,
          "time": 148.57128000000003,
          "velocity": 0.6850393700787402
        },
        {
          "duration": 0.2857139999999845,
          "durationTicks": 128,
          "midi": 68,
          "name": "G#4",
          "ticks": 66624,
          "time": 148.71413700000002,
          "velocity": 0.6535433070866141
        },
        {
          "duration": 0.2857139999999845,
          "durationTicks": 128,
          "midi": 65,
          "name": "F4",
          "ticks": 66624,
          "time": 148.71413700000002,
          "velocity": 0.6535433070866141
        },
        {
          "duration": 0.9642847500000187,
          "durationTicks": 432,
          "midi": 77,
          "name": "F5",
          "ticks": 66752,
          "time": 148.999851,
          "velocity": 0.6850393700787402
        },
        {
          "duration": 0.2857140000000129,
          "durationTicks": 128,
          "midi": 65,
          "name": "F4",
          "ticks": 66816,
          "time": 149.142708,
          "velocity": 0.6535433070866141
        },
        {
          "duration": 0.2857140000000129,
          "durationTicks": 128,
          "midi": 61,
          "name": "C#4",
          "ticks": 66816,
          "time": 149.142708,
          "velocity": 0.6535433070866141
        },
        {
          "duration": 0.2857140000000129,
          "durationTicks": 128,
          "midi": 65,
          "name": "F4",
          "ticks": 67008,
          "time": 149.571279,
          "velocity": 0.6535433070866141
        },
        {
          "duration": 0.2857140000000129,
          "durationTicks": 128,
          "midi": 61,
          "name": "C#4",
          "ticks": 67008,
          "time": 149.571279,
          "velocity": 0.6535433070866141
        },
        {
          "duration": 0.2857140000000129,
          "durationTicks": 128,
          "midi": 61,
          "name": "C#4",
          "ticks": 67200,
          "time": 149.99985,
          "velocity": 0.6535433070866141
        },
        {
          "duration": 0.2857140000000129,
          "durationTicks": 128,
          "midi": 65,
          "name": "F4",
          "ticks": 67200,
          "time": 149.99985,
          "velocity": 0.6535433070866141
        },
        {
          "duration": 0.2857140000000129,
          "durationTicks": 128,
          "midi": 53,
          "name": "F3",
          "ticks": 67584,
          "time": 150.85699200000002,
          "velocity": 1
        },
        {
          "duration": 0.14285699999999224,
          "durationTicks": 64,
          "midi": 52,
          "name": "E3",
          "ticks": 67712,
          "time": 151.14270600000003,
          "velocity": 1
        },
        {
          "duration": 0.2857139999999845,
          "durationTicks": 128,
          "midi": 53,
          "name": "F3",
          "ticks": 67776,
          "time": 151.28556300000002,
          "velocity": 1
        },
        {
          "duration": 0.5714279999999974,
          "durationTicks": 256,
          "midi": 56,
          "name": "G#3",
          "ticks": 67904,
          "time": 151.571277,
          "velocity": 1
        },
        {
          "duration": 0.42857100000000514,
          "durationTicks": 192,
          "midi": 53,
          "name": "F3",
          "ticks": 68160,
          "time": 152.142705,
          "velocity": 1
        },
        {
          "duration": 0.2857140000000129,
          "durationTicks": 128,
          "midi": 56,
          "name": "G#3",
          "ticks": 68352,
          "time": 152.571276,
          "velocity": 1
        },
        {
          "duration": 0.2857140000000129,
          "durationTicks": 128,
          "midi": 53,
          "name": "F3",
          "ticks": 68352,
          "time": 152.571276,
          "velocity": 0.8818897637795275
        },
        {
          "duration": 0.14285699999999224,
          "durationTicks": 64,
          "midi": 58,
          "name": "A#3",
          "ticks": 68480,
          "time": 152.85699000000002,
          "velocity": 1
        },
        {
          "duration": 0.14285699999999224,
          "durationTicks": 64,
          "midi": 52,
          "name": "E3",
          "ticks": 68480,
          "time": 152.85699000000002,
          "velocity": 0.8818897637795275
        },
        {
          "duration": 0.2857140000000129,
          "durationTicks": 128,
          "midi": 56,
          "name": "G#3",
          "ticks": 68544,
          "time": 152.99984700000002,
          "velocity": 1
        },
        {
          "duration": 0.2857140000000129,
          "durationTicks": 128,
          "midi": 53,
          "name": "F3",
          "ticks": 68544,
          "time": 152.99984700000002,
          "velocity": 0.8818897637795275
        },
        {
          "duration": 0.42857100000000514,
          "durationTicks": 192,
          "midi": 61,
          "name": "C#4",
          "ticks": 68672,
          "time": 153.28556100000003,
          "velocity": 1
        },
        {
          "duration": 0.571427999999969,
          "durationTicks": 256,
          "midi": 56,
          "name": "G#3",
          "ticks": 68672,
          "time": 153.28556100000003,
          "velocity": 0.8818897637795275
        },
        {
          "duration": 0.14285699999996382,
          "durationTicks": 64,
          "midi": 60,
          "name": "C4",
          "ticks": 68864,
          "time": 153.71413200000003,
          "velocity": 1
        },
        {
          "duration": 0.2857140000000129,
          "durationTicks": 128,
          "midi": 61,
          "name": "C#4",
          "ticks": 68928,
          "time": 153.856989,
          "velocity": 1
        },
        {
          "duration": 0.42857100000000514,
          "durationTicks": 192,
          "midi": 53,
          "name": "F3",
          "ticks": 68928,
          "time": 153.856989,
          "velocity": 0.8818897637795275
        },
        {
          "duration": 0.14285699999999224,
          "durationTicks": 64,
          "midi": 63,
          "name": "D#4",
          "ticks": 69056,
          "time": 154.142703,
          "velocity": 1
        },
        {
          "duration": 0.2857140000000129,
          "durationTicks": 128,
          "midi": 65,
          "name": "F4",
          "ticks": 69120,
          "time": 154.28556,
          "velocity": 1
        },
        {
          "duration": 0.2857140000000129,
          "durationTicks": 128,
          "midi": 58,
          "name": "A#3",
          "ticks": 69120,
          "time": 154.28556,
          "velocity": 0.8818897637795275
        },
        {
          "duration": 0.14285699999999224,
          "durationTicks": 64,
          "midi": 63,
          "name": "D#4",
          "ticks": 69248,
          "time": 154.57127400000002,
          "velocity": 1
        },
        {
          "duration": 0.2857140000000129,
          "durationTicks": 128,
          "midi": 61,
          "name": "C#4",
          "ticks": 69312,
          "time": 154.714131,
          "velocity": 1
        },
        {
          "duration": 0.14285699999999224,
          "durationTicks": 64,
          "midi": 58,
          "name": "A#3",
          "ticks": 69312,
          "time": 154.714131,
          "velocity": 0.8818897637795275
        },
        {
          "duration": 0.14285699999999224,
          "durationTicks": 64,
          "midi": 58,
          "name": "A#3",
          "ticks": 69440,
          "time": 154.99984500000002,
          "velocity": 1
        },
        {
          "duration": 0.14285699999999224,
          "durationTicks": 64,
          "midi": 58,
          "name": "A#3",
          "ticks": 69440,
          "time": 154.99984500000002,
          "velocity": 0.8818897637795275
        },
        {
          "duration": 0.2857140000000129,
          "durationTicks": 128,
          "midi": 61,
          "name": "C#4",
          "ticks": 69504,
          "time": 155.142702,
          "velocity": 1
        },
        {
          "duration": 0.2857140000000129,
          "durationTicks": 128,
          "midi": 56,
          "name": "G#3",
          "ticks": 69504,
          "time": 155.142702,
          "velocity": 0.8818897637795275
        },
        {
          "duration": 0.42857100000000514,
          "durationTicks": 192,
          "midi": 63,
          "name": "D#4",
          "ticks": 69632,
          "time": 155.42841600000003,
          "velocity": 1
        },
        {
          "duration": 0.42857100000000514,
          "durationTicks": 192,
          "midi": 54,
          "name": "F#3",
          "ticks": 69632,
          "time": 155.42841600000003,
          "velocity": 0.8818897637795275
        },
        {
          "duration": 1.1428559999999663,
          "durationTicks": 512,
          "midi": 61,
          "name": "C#4",
          "ticks": 69824,
          "time": 155.85698700000003,
          "velocity": 1
        },
        {
          "duration": 1.285712999999987,
          "durationTicks": 576,
          "midi": 53,
          "name": "F3",
          "ticks": 69824,
          "time": 155.85698700000003,
          "velocity": 0.8818897637795275
        }
      ],
      "endOfTrackTicks": 70400
    },
    {
      "channel": 3,
      "controlChanges": {
        "7": [
          {
            "number": 7,
            "ticks": 0,
            "time": 0,
            "value": 1
          },
          {
            "number": 7,
            "ticks": 58600,
            "time": 130.803440625,
            "value": 0.984251968503937
          },
          {
            "number": 7,
            "ticks": 58680,
            "time": 130.982011875,
            "value": 0.9921259842519685
          },
          {
            "number": 7,
            "ticks": 58688,
            "time": 130.99986900000002,
            "value": 1
          }
        ],
        "10": [
          {
            "number": 10,
            "ticks": 0,
            "time": 0,
            "value": 0.5039370078740157
          }
        ],
        "91": [
          {
            "number": 91,
            "ticks": 0,
            "time": 0,
            "value": 0.13385826771653545
          }
        ]
      },
      "pitchBends": [],
      "instrument": {
        "family": "pipe",
        "number": 74,
        "name": "recorder"
      },
      "name": "Piano           ",
      "notes": [
        {
          "duration": 0.3035711249999995,
          "durationTicks": 136,
          "midi": 65,
          "name": "F4",
          "ticks": 4608,
          "time": 10.285704,
          "velocity": 1
        },
        {
          "duration": 0.17857124999999918,
          "durationTicks": 80,
          "midi": 64,
          "name": "E4",
          "ticks": 4736,
          "time": 10.571418000000001,
          "velocity": 1
        },
        {
          "duration": 0.26785687499999966,
          "durationTicks": 120,
          "midi": 65,
          "name": "F4",
          "ticks": 4800,
          "time": 10.714275,
          "velocity": 1
        },
        {
          "duration": 0.5535708750000001,
          "durationTicks": 248,
          "midi": 68,
          "name": "G#4",
          "ticks": 4928,
          "time": 10.999989000000001,
          "velocity": 1
        },
        {
          "duration": 0.4107138750000008,
          "durationTicks": 184,
          "midi": 65,
          "name": "F4",
          "ticks": 5184,
          "time": 11.571417,
          "velocity": 1
        },
        {
          "duration": 0.28571400000000047,
          "durationTicks": 128,
          "midi": 68,
          "name": "G#4",
          "ticks": 5376,
          "time": 11.999988000000002,
          "velocity": 1
        },
        {
          "duration": 0.16071412499999838,
          "durationTicks": 72,
          "midi": 70,
          "name": "A#4",
          "ticks": 5504,
          "time": 12.285702000000002,
          "velocity": 1
        },
        {
          "duration": 0.23214262499999982,
          "durationTicks": 104,
          "midi": 68,
          "name": "G#4",
          "ticks": 5568,
          "time": 12.428559000000002,
          "velocity": 1
        },
        {
          "duration": 0.607142249999999,
          "durationTicks": 272,
          "midi": 73,
          "name": "C#5",
          "ticks": 5696,
          "time": 12.714273000000002,
          "velocity": 1
        },
        {
          "duration": 0.23214262499999982,
          "durationTicks": 104,
          "midi": 73,
          "name": "C#5",
          "ticks": 6144,
          "time": 13.714272000000001,
          "velocity": 1
        },
        {
          "duration": 0.5178566250000021,
          "durationTicks": 232,
          "midi": 77,
          "name": "F5",
          "ticks": 6272,
          "time": 13.999986,
          "velocity": 1
        },
        {
          "duration": 0.3571425000000019,
          "durationTicks": 160,
          "midi": 73,
          "name": "C#5",
          "ticks": 6528,
          "time": 14.571414,
          "velocity": 1
        },
        {
          "duration": 0.17857124999999918,
          "durationTicks": 80,
          "midi": 70,
          "name": "A#4",
          "ticks": 6720,
          "time": 14.999985,
          "velocity": 1
        },
        {
          "duration": 1.4107128750000015,
          "durationTicks": 632,
          "midi": 75,
          "name": "D#5",
          "ticks": 6848,
          "time": 15.285699000000001,
          "velocity": 1
        },
        {
          "duration": 0.21428550000000257,
          "durationTicks": 96,
          "midi": 72,
          "name": "C5",
          "ticks": 7680,
          "time": 17.14284,
          "velocity": 1
        },
        {
          "duration": 0.10714274999999773,
          "durationTicks": 48,
          "midi": 72,
          "name": "C5",
          "ticks": 7808,
          "time": 17.428554000000002,
          "velocity": 1
        },
        {
          "duration": 0.21428549999999902,
          "durationTicks": 96,
          "midi": 73,
          "name": "C#5",
          "ticks": 7872,
          "time": 17.571411,
          "velocity": 1
        },
        {
          "duration": 0.07142850000000323,
          "durationTicks": 32,
          "midi": 75,
          "name": "D#5",
          "ticks": 8000,
          "time": 17.857125,
          "velocity": 1
        },
        {
          "duration": 0.196428375,
          "durationTicks": 88,
          "midi": 72,
          "name": "C5",
          "ticks": 8064,
          "time": 17.999982000000003,
          "velocity": 1
        },
        {
          "duration": 0.07142849999999967,
          "durationTicks": 32,
          "midi": 72,
          "name": "C5",
          "ticks": 8192,
          "time": 18.285696,
          "velocity": 1
        },
        {
          "duration": 0.196428375,
          "durationTicks": 88,
          "midi": 73,
          "name": "C#5",
          "ticks": 8256,
          "time": 18.428553,
          "velocity": 1
        },
        {
          "duration": 0.07142850000000323,
          "durationTicks": 32,
          "midi": 75,
          "name": "D#5",
          "ticks": 8384,
          "time": 18.714267,
          "velocity": 1
        },
        {
          "duration": 0.3571425000000019,
          "durationTicks": 160,
          "midi": 72,
          "name": "C5",
          "ticks": 8448,
          "time": 18.857124000000002,
          "velocity": 1
        },
        {
          "duration": 0.19642837500000354,
          "durationTicks": 88,
          "midi": 71,
          "name": "B4",
          "ticks": 8640,
          "time": 19.285695,
          "velocity": 1
        },
        {
          "duration": 0.6249993750000016,
          "durationTicks": 280,
          "midi": 70,
          "name": "A#4",
          "ticks": 8768,
          "time": 19.571409,
          "velocity": 1
        },
        {
          "duration": 0.2857139999999987,
          "durationTicks": 128,
          "midi": 72,
          "name": "C5",
          "ticks": 9216,
          "time": 20.571408,
          "velocity": 1
        },
        {
          "duration": 0.32142824999999675,
          "durationTicks": 144,
          "midi": 73,
          "name": "C#5",
          "ticks": 9408,
          "time": 20.999979000000003,
          "velocity": 1
        },
        {
          "duration": 0.24999975000000063,
          "durationTicks": 112,
          "midi": 74,
          "name": "D5",
          "ticks": 9600,
          "time": 21.42855,
          "velocity": 1
        },
        {
          "duration": 0.3035711250000013,
          "durationTicks": 136,
          "midi": 75,
          "name": "D#5",
          "ticks": 9792,
          "time": 21.857121000000003,
          "velocity": 1
        },
        {
          "duration": 0.19642837500000354,
          "durationTicks": 88,
          "midi": 77,
          "name": "F5",
          "ticks": 9984,
          "time": 22.285692,
          "velocity": 1
        },
        {
          "duration": 0.10714275000000129,
          "durationTicks": 48,
          "midi": 76,
          "name": "E5",
          "ticks": 10112,
          "time": 22.571406,
          "velocity": 1
        },
        {
          "duration": 0.1785712499999974,
          "durationTicks": 80,
          "midi": 75,
          "name": "D#5",
          "ticks": 10176,
          "time": 22.714263000000003,
          "velocity": 1
        },
        {
          "duration": 0.5535708750000019,
          "durationTicks": 248,
          "midi": 73,
          "name": "C#5",
          "ticks": 10304,
          "time": 22.999977,
          "velocity": 1
        },
        {
          "duration": 0.26785687499999966,
          "durationTicks": 120,
          "midi": 65,
          "name": "F4",
          "ticks": 10752,
          "time": 23.999976000000004,
          "velocity": 1
        },
        {
          "duration": 0.14285699999999935,
          "durationTicks": 64,
          "midi": 64,
          "name": "E4",
          "ticks": 10880,
          "time": 24.285690000000002,
          "velocity": 1
        },
        {
          "duration": 0.26785687499999966,
          "durationTicks": 120,
          "midi": 65,
          "name": "F4",
          "ticks": 10944,
          "time": 24.428547000000002,
          "velocity": 1
        },
        {
          "duration": 0.5535708750000019,
          "durationTicks": 248,
          "midi": 68,
          "name": "G#4",
          "ticks": 11072,
          "time": 24.714261,
          "velocity": 1
        },
        {
          "duration": 0.4285710000000016,
          "durationTicks": 192,
          "midi": 65,
          "name": "F4",
          "ticks": 11328,
          "time": 25.285689,
          "velocity": 1
        },
        {
          "duration": 0.24999975000000063,
          "durationTicks": 112,
          "midi": 68,
          "name": "G#4",
          "ticks": 11520,
          "time": 25.714260000000003,
          "velocity": 1
        },
        {
          "duration": 0.12499987500000032,
          "durationTicks": 56,
          "midi": 70,
          "name": "A#4",
          "ticks": 11648,
          "time": 25.999974,
          "velocity": 1
        },
        {
          "duration": 0.2321426250000016,
          "durationTicks": 104,
          "midi": 68,
          "name": "G#4",
          "ticks": 11712,
          "time": 26.142831,
          "velocity": 1
        },
        {
          "duration": 0.5714280000000009,
          "durationTicks": 256,
          "midi": 73,
          "name": "C#5",
          "ticks": 11840,
          "time": 26.428545,
          "velocity": 1
        },
        {
          "duration": 0.19642837499999644,
          "durationTicks": 88,
          "midi": 77,
          "name": "F5",
          "ticks": 12288,
          "time": 27.428544000000002,
          "velocity": 1
        },
        {
          "duration": 0.49999949999999416,
          "durationTicks": 224,
          "midi": 77,
          "name": "F5",
          "ticks": 12416,
          "time": 27.714258000000005,
          "velocity": 1
        },
        {
          "duration": 0.35714249999999836,
          "durationTicks": 160,
          "midi": 75,
          "name": "D#5",
          "ticks": 12672,
          "time": 28.285686000000002,
          "velocity": 1
        },
        {
          "duration": 0.2321426250000016,
          "durationTicks": 104,
          "midi": 70,
          "name": "A#4",
          "ticks": 12864,
          "time": 28.714257000000003,
          "velocity": 1
        },
        {
          "duration": 0.9642847499999974,
          "durationTicks": 432,
          "midi": 73,
          "name": "C#5",
          "ticks": 12992,
          "time": 28.999971000000006,
          "velocity": 1
        },
        {
          "duration": 0.1785712500000045,
          "durationTicks": 80,
          "midi": 73,
          "name": "C#5",
          "ticks": 13824,
          "time": 30.857112,
          "velocity": 1
        },
        {
          "duration": 0.05357137500000064,
          "durationTicks": 24,
          "midi": 70,
          "name": "A#4",
          "ticks": 13952,
          "time": 31.142826000000003,
          "velocity": 1
        },
        {
          "duration": 0.2321426250000016,
          "durationTicks": 104,
          "midi": 73,
          "name": "C#5",
          "ticks": 14016,
          "time": 31.285683000000002,
          "velocity": 1
        },
        {
          "duration": 0.3035711249999977,
          "durationTicks": 136,
          "midi": 76,
          "name": "E5",
          "ticks": 14144,
          "time": 31.571397000000005,
          "velocity": 1
        },
        {
          "duration": 0.4464281249999935,
          "durationTicks": 200,
          "midi": 75,
          "name": "D#5",
          "ticks": 14336,
          "time": 31.999968000000006,
          "velocity": 1
        },
        {
          "duration": 0.19642837500000354,
          "durationTicks": 88,
          "midi": 73,
          "name": "C#5",
          "ticks": 14592,
          "time": 32.571396,
          "velocity": 1
        },
        {
          "duration": 0.07142849999999612,
          "durationTicks": 32,
          "midi": 73,
          "name": "C#5",
          "ticks": 14720,
          "time": 32.857110000000006,
          "velocity": 1
        },
        {
          "duration": 0.19642837499999644,
          "durationTicks": 88,
          "midi": 75,
          "name": "D#5",
          "ticks": 14784,
          "time": 32.999967000000005,
          "velocity": 1
        },
        {
          "duration": 0.32142825000000386,
          "durationTicks": 144,
          "midi": 72,
          "name": "C5",
          "ticks": 14912,
          "time": 33.285681000000004,
          "velocity": 1
        },
        {
          "duration": 0.44642812499999707,
          "durationTicks": 200,
          "midi": 70,
          "name": "A#4",
          "ticks": 15104,
          "time": 33.714252,
          "velocity": 1
        },
        {
          "duration": 0.19642837500000354,
          "durationTicks": 88,
          "midi": 77,
          "name": "F5",
          "ticks": 15360,
          "time": 34.28568,
          "velocity": 1
        },
        {
          "duration": 0.48214237500000223,
          "durationTicks": 216,
          "midi": 77,
          "name": "F5",
          "ticks": 15488,
          "time": 34.571394000000005,
          "velocity": 1
        },
        {
          "duration": 0.19642837499999644,
          "durationTicks": 88,
          "midi": 77,
          "name": "F5",
          "ticks": 15744,
          "time": 35.142822,
          "velocity": 1
        },
        {
          "duration": 0.3571424999999948,
          "durationTicks": 160,
          "midi": 77,
          "name": "F5",
          "ticks": 15872,
          "time": 35.42853600000001,
          "velocity": 1
        },
        {
          "duration": 1.0535703749999996,
          "durationTicks": 472,
          "midi": 73,
          "name": "C#5",
          "ticks": 16064,
          "time": 35.857107000000006,
          "velocity": 1
        },
        {
          "duration": 0.7321421250000029,
          "durationTicks": 328,
          "midi": 70,
          "name": "A#4",
          "ticks": 19968,
          "time": 44.571384,
          "velocity": 1
        },
        {
          "duration": 0.6428565000000006,
          "durationTicks": 288,
          "midi": 72,
          "name": "C5",
          "ticks": 20352,
          "time": 45.428526000000005,
          "velocity": 1
        },
        {
          "duration": 0.5714279999999974,
          "durationTicks": 256,
          "midi": 73,
          "name": "C#5",
          "ticks": 20736,
          "time": 46.285668,
          "velocity": 1
        },
        {
          "duration": 0.5892851249999964,
          "durationTicks": 264,
          "midi": 80,
          "name": "G#5",
          "ticks": 21120,
          "time": 47.142810000000004,
          "velocity": 1
        },
        {
          "duration": 3.4821393749999956,
          "durationTicks": 1560,
          "midi": 77,
          "name": "F5",
          "ticks": 21504,
          "time": 47.99995200000001,
          "velocity": 1
        },
        {
          "duration": 0.821427749999998,
          "durationTicks": 368,
          "midi": 77,
          "name": "F5",
          "ticks": 23808,
          "time": 53.142804000000005,
          "velocity": 1
        },
        {
          "duration": 0.37499962500000095,
          "durationTicks": 168,
          "midi": 75,
          "name": "D#5",
          "ticks": 24192,
          "time": 53.999946,
          "velocity": 1
        },
        {
          "duration": 0.3392853750000029,
          "durationTicks": 152,
          "midi": 73,
          "name": "C#5",
          "ticks": 24384,
          "time": 54.42851700000001,
          "velocity": 1
        },
        {
          "duration": 0.6607136249999925,
          "durationTicks": 296,
          "midi": 75,
          "name": "D#5",
          "ticks": 24576,
          "time": 54.857088000000005,
          "velocity": 1
        },
        {
          "duration": 0.37499962499999384,
          "durationTicks": 168,
          "midi": 75,
          "name": "D#5",
          "ticks": 24960,
          "time": 55.71423000000001,
          "velocity": 1
        },
        {
          "duration": 1.6428555000000031,
          "durationTicks": 736,
          "midi": 70,
          "name": "A#4",
          "ticks": 25152,
          "time": 56.142801000000006,
          "velocity": 1
        },
        {
          "duration": 0.7857135000000071,
          "durationTicks": 352,
          "midi": 73,
          "name": "C#5",
          "ticks": 26112,
          "time": 58.285656,
          "velocity": 1
        },
        {
          "duration": 0.821427749999998,
          "durationTicks": 368,
          "midi": 70,
          "name": "A#4",
          "ticks": 26496,
          "time": 59.142798000000006,
          "velocity": 1
        },
        {
          "duration": 0.7678563750000009,
          "durationTicks": 344,
          "midi": 68,
          "name": "G#4",
          "ticks": 26880,
          "time": 59.99994,
          "velocity": 1
        },
        {
          "duration": 0.7499992500000019,
          "durationTicks": 336,
          "midi": 70,
          "name": "A#4",
          "ticks": 27264,
          "time": 60.857082000000005,
          "velocity": 1
        },
        {
          "duration": 1.2857130000000012,
          "durationTicks": 576,
          "midi": 73,
          "name": "C#5",
          "ticks": 27648,
          "time": 61.714224,
          "velocity": 1
        },
        {
          "duration": 0.3035711250000048,
          "durationTicks": 136,
          "midi": 65,
          "name": "F4",
          "ticks": 29952,
          "time": 66.857076,
          "velocity": 1
        },
        {
          "duration": 0.1785712500000045,
          "durationTicks": 80,
          "midi": 64,
          "name": "E4",
          "ticks": 30080,
          "time": 67.14279,
          "velocity": 1
        },
        {
          "duration": 0.26785687499999256,
          "durationTicks": 120,
          "midi": 65,
          "name": "F4",
          "ticks": 30144,
          "time": 67.28564700000001,
          "velocity": 1
        },
        {
          "duration": 0.5535708750000197,
          "durationTicks": 248,
          "midi": 68,
          "name": "G#4",
          "ticks": 30272,
          "time": 67.571361,
          "velocity": 1
        },
        {
          "duration": 0.410713874999999,
          "durationTicks": 184,
          "midi": 65,
          "name": "F4",
          "ticks": 30528,
          "time": 68.14278900000001,
          "velocity": 1
        },
        {
          "duration": 0.2857139999999987,
          "durationTicks": 128,
          "midi": 68,
          "name": "G#4",
          "ticks": 30720,
          "time": 68.57136,
          "velocity": 1
        },
        {
          "duration": 0.16071412499999838,
          "durationTicks": 72,
          "midi": 70,
          "name": "A#4",
          "ticks": 30848,
          "time": 68.857074,
          "velocity": 1
        },
        {
          "duration": 0.2321426249999945,
          "durationTicks": 104,
          "midi": 68,
          "name": "G#4",
          "ticks": 30912,
          "time": 68.999931,
          "velocity": 1
        },
        {
          "duration": 0.6071422500000097,
          "durationTicks": 272,
          "midi": 73,
          "name": "C#5",
          "ticks": 31040,
          "time": 69.285645,
          "velocity": 1
        },
        {
          "duration": 0.2321426249999945,
          "durationTicks": 104,
          "midi": 73,
          "name": "C#5",
          "ticks": 31488,
          "time": 70.285644,
          "velocity": 1
        },
        {
          "duration": 0.5178566250000074,
          "durationTicks": 232,
          "midi": 77,
          "name": "F5",
          "ticks": 31616,
          "time": 70.571358,
          "velocity": 1
        },
        {
          "duration": 0.357142500000009,
          "durationTicks": 160,
          "midi": 73,
          "name": "C#5",
          "ticks": 31872,
          "time": 71.142786,
          "velocity": 1
        },
        {
          "duration": 0.1785712499999903,
          "durationTicks": 80,
          "midi": 70,
          "name": "A#4",
          "ticks": 32064,
          "time": 71.571357,
          "velocity": 1
        },
        {
          "duration": 1.4107128750000015,
          "durationTicks": 632,
          "midi": 75,
          "name": "D#5",
          "ticks": 32192,
          "time": 71.857071,
          "velocity": 1
        },
        {
          "duration": 0.21428550000000257,
          "durationTicks": 96,
          "midi": 72,
          "name": "C5",
          "ticks": 33024,
          "time": 73.714212,
          "velocity": 1
        },
        {
          "duration": 0.10714274999999418,
          "durationTicks": 48,
          "midi": 72,
          "name": "C5",
          "ticks": 33152,
          "time": 73.999926,
          "velocity": 1
        },
        {
          "duration": 0.21428550000000257,
          "durationTicks": 96,
          "midi": 73,
          "name": "C#5",
          "ticks": 33216,
          "time": 74.14278300000001,
          "velocity": 1
        },
        {
          "duration": 0.07142849999999612,
          "durationTicks": 32,
          "midi": 75,
          "name": "D#5",
          "ticks": 33344,
          "time": 74.42849700000001,
          "velocity": 1
        },
        {
          "duration": 0.19642837500001065,
          "durationTicks": 88,
          "midi": 72,
          "name": "C5",
          "ticks": 33408,
          "time": 74.571354,
          "velocity": 1
        },
        {
          "duration": 0.07142850000001033,
          "durationTicks": 32,
          "midi": 72,
          "name": "C5",
          "ticks": 33536,
          "time": 74.857068,
          "velocity": 1
        },
        {
          "duration": 0.19642837500001065,
          "durationTicks": 88,
          "midi": 73,
          "name": "C#5",
          "ticks": 33600,
          "time": 74.999925,
          "velocity": 1
        },
        {
          "duration": 0.07142850000001033,
          "durationTicks": 32,
          "midi": 75,
          "name": "D#5",
          "ticks": 33728,
          "time": 75.285639,
          "velocity": 1
        },
        {
          "duration": 0.3571424999999948,
          "durationTicks": 160,
          "midi": 72,
          "name": "C5",
          "ticks": 33792,
          "time": 75.42849600000001,
          "velocity": 1
        },
        {
          "duration": 0.19642837500001065,
          "durationTicks": 88,
          "midi": 71,
          "name": "B4",
          "ticks": 33984,
          "time": 75.857067,
          "velocity": 1
        },
        {
          "duration": 0.6249993750000016,
          "durationTicks": 280,
          "midi": 70,
          "name": "A#4",
          "ticks": 34112,
          "time": 76.142781,
          "velocity": 1
        },
        {
          "duration": 0.2857139999999987,
          "durationTicks": 128,
          "midi": 72,
          "name": "C5",
          "ticks": 34560,
          "time": 77.14278,
          "velocity": 1
        },
        {
          "duration": 0.32142824999999675,
          "durationTicks": 144,
          "midi": 73,
          "name": "C#5",
          "ticks": 34752,
          "time": 77.571351,
          "velocity": 1
        },
        {
          "duration": 0.24999975000000063,
          "durationTicks": 112,
          "midi": 74,
          "name": "D5",
          "ticks": 34944,
          "time": 77.99992200000001,
          "velocity": 1
        },
        {
          "duration": 0.3035711250000048,
          "durationTicks": 136,
          "midi": 75,
          "name": "D#5",
          "ticks": 35136,
          "time": 78.428493,
          "velocity": 1
        },
        {
          "duration": 0.19642837499999644,
          "durationTicks": 88,
          "midi": 77,
          "name": "F5",
          "ticks": 35328,
          "time": 78.85706400000001,
          "velocity": 1
        },
        {
          "duration": 0.10714274999999418,
          "durationTicks": 48,
          "midi": 76,
          "name": "E5",
          "ticks": 35456,
          "time": 79.142778,
          "velocity": 1
        },
        {
          "duration": 0.1785712499999903,
          "durationTicks": 80,
          "midi": 75,
          "name": "D#5",
          "ticks": 35520,
          "time": 79.28563500000001,
          "velocity": 1
        },
        {
          "duration": 0.5535708750000197,
          "durationTicks": 248,
          "midi": 73,
          "name": "C#5",
          "ticks": 35648,
          "time": 79.571349,
          "velocity": 1
        },
        {
          "duration": 0.26785687500000677,
          "durationTicks": 120,
          "midi": 65,
          "name": "F4",
          "ticks": 36096,
          "time": 80.571348,
          "velocity": 1
        },
        {
          "duration": 0.14285700000000645,
          "durationTicks": 64,
          "midi": 64,
          "name": "E4",
          "ticks": 36224,
          "time": 80.857062,
          "velocity": 1
        },
        {
          "duration": 0.26785687500000677,
          "durationTicks": 120,
          "midi": 65,
          "name": "F4",
          "ticks": 36288,
          "time": 80.999919,
          "velocity": 1
        },
        {
          "duration": 0.5535708750000055,
          "durationTicks": 248,
          "midi": 68,
          "name": "G#4",
          "ticks": 36416,
          "time": 81.285633,
          "velocity": 1
        },
        {
          "duration": 0.42857100000000514,
          "durationTicks": 192,
          "midi": 65,
          "name": "F4",
          "ticks": 36672,
          "time": 81.857061,
          "velocity": 1
        },
        {
          "duration": 0.24999975000000063,
          "durationTicks": 112,
          "midi": 68,
          "name": "G#4",
          "ticks": 36864,
          "time": 82.285632,
          "velocity": 1
        },
        {
          "duration": 0.12499987500000032,
          "durationTicks": 56,
          "midi": 70,
          "name": "A#4",
          "ticks": 36992,
          "time": 82.571346,
          "velocity": 1
        },
        {
          "duration": 0.2321426249999945,
          "durationTicks": 104,
          "midi": 68,
          "name": "G#4",
          "ticks": 37056,
          "time": 82.71420300000001,
          "velocity": 1
        },
        {
          "duration": 0.5714280000000116,
          "durationTicks": 256,
          "midi": 73,
          "name": "C#5",
          "ticks": 37184,
          "time": 82.999917,
          "velocity": 1
        },
        {
          "duration": 0.19642837499999644,
          "durationTicks": 88,
          "midi": 77,
          "name": "F5",
          "ticks": 37632,
          "time": 83.99991600000001,
          "velocity": 1
        },
        {
          "duration": 0.4999995000000155,
          "durationTicks": 224,
          "midi": 77,
          "name": "F5",
          "ticks": 37760,
          "time": 84.28563,
          "velocity": 1
        },
        {
          "duration": 0.3571424999999948,
          "durationTicks": 160,
          "midi": 75,
          "name": "D#5",
          "ticks": 38016,
          "time": 84.85705800000001,
          "velocity": 1
        },
        {
          "duration": 0.2321426250000087,
          "durationTicks": 104,
          "midi": 70,
          "name": "A#4",
          "ticks": 38208,
          "time": 85.285629,
          "velocity": 1
        },
        {
          "duration": 0.9642847500000045,
          "durationTicks": 432,
          "midi": 73,
          "name": "C#5",
          "ticks": 38336,
          "time": 85.571343,
          "velocity": 1
        },
        {
          "duration": 0.1785712499999903,
          "durationTicks": 80,
          "midi": 73,
          "name": "C#5",
          "ticks": 39168,
          "time": 87.42848400000001,
          "velocity": 1
        },
        {
          "duration": 0.053571375000004195,
          "durationTicks": 24,
          "midi": 70,
          "name": "A#4",
          "ticks": 39296,
          "time": 87.714198,
          "velocity": 1
        },
        {
          "duration": 0.2321426249999945,
          "durationTicks": 104,
          "midi": 73,
          "name": "C#5",
          "ticks": 39360,
          "time": 87.857055,
          "velocity": 1
        },
        {
          "duration": 0.3035711250000048,
          "durationTicks": 136,
          "midi": 76,
          "name": "E5",
          "ticks": 39488,
          "time": 88.142769,
          "velocity": 1
        },
        {
          "duration": 0.4464281250000113,
          "durationTicks": 200,
          "midi": 75,
          "name": "D#5",
          "ticks": 39680,
          "time": 88.57134,
          "velocity": 1
        },
        {
          "duration": 0.19642837500001065,
          "durationTicks": 88,
          "midi": 73,
          "name": "C#5",
          "ticks": 39936,
          "time": 89.142768,
          "velocity": 1
        },
        {
          "duration": 0.07142850000001033,
          "durationTicks": 32,
          "midi": 73,
          "name": "C#5",
          "ticks": 40064,
          "time": 89.428482,
          "velocity": 1
        },
        {
          "duration": 0.19642837499999644,
          "durationTicks": 88,
          "midi": 75,
          "name": "D#5",
          "ticks": 40128,
          "time": 89.57133900000001,
          "velocity": 1
        },
        {
          "duration": 0.32142824999999675,
          "durationTicks": 144,
          "midi": 72,
          "name": "C5",
          "ticks": 40256,
          "time": 89.85705300000001,
          "velocity": 1
        },
        {
          "duration": 0.4464281250000113,
          "durationTicks": 200,
          "midi": 70,
          "name": "A#4",
          "ticks": 40448,
          "time": 90.285624,
          "velocity": 1
        },
        {
          "duration": 0.19642837499999644,
          "durationTicks": 88,
          "midi": 77,
          "name": "F5",
          "ticks": 40704,
          "time": 90.85705200000001,
          "velocity": 1
        },
        {
          "duration": 0.4821423749999951,
          "durationTicks": 216,
          "midi": 77,
          "name": "F5",
          "ticks": 40832,
          "time": 91.14276600000001,
          "velocity": 1
        },
        {
          "duration": 0.19642837500001065,
          "durationTicks": 88,
          "midi": 77,
          "name": "F5",
          "ticks": 41088,
          "time": 91.714194,
          "velocity": 1
        },
        {
          "duration": 0.357142500000009,
          "durationTicks": 160,
          "midi": 77,
          "name": "F5",
          "ticks": 41216,
          "time": 91.999908,
          "velocity": 1
        },
        {
          "duration": 1.0535703749999925,
          "durationTicks": 472,
          "midi": 73,
          "name": "C#5",
          "ticks": 41408,
          "time": 92.42847900000001,
          "velocity": 1
        },
        {
          "duration": 0.3035711250000048,
          "durationTicks": 136,
          "midi": 73,
          "name": "C#5",
          "ticks": 42240,
          "time": 94.28562000000001,
          "velocity": 1
        },
        {
          "duration": 0.12499987500000032,
          "durationTicks": 56,
          "midi": 70,
          "name": "A#4",
          "ticks": 42368,
          "time": 94.57133400000001,
          "velocity": 1
        },
        {
          "duration": 0.3035711250000048,
          "durationTicks": 136,
          "midi": 73,
          "name": "C#5",
          "ticks": 42432,
          "time": 94.71419100000001,
          "velocity": 1
        },
        {
          "duration": 0.12499987500001453,
          "durationTicks": 56,
          "midi": 70,
          "name": "A#4",
          "ticks": 42560,
          "time": 94.999905,
          "velocity": 1
        },
        {
          "duration": 0.3035711250000048,
          "durationTicks": 136,
          "midi": 73,
          "name": "C#5",
          "ticks": 42624,
          "time": 95.142762,
          "velocity": 1
        },
        {
          "duration": 0.14285700000000645,
          "durationTicks": 64,
          "midi": 70,
          "name": "A#4",
          "ticks": 42752,
          "time": 95.428476,
          "velocity": 1
        },
        {
          "duration": 0.32142824999999675,
          "durationTicks": 144,
          "midi": 73,
          "name": "C#5",
          "ticks": 42816,
          "time": 95.57133300000001,
          "velocity": 1
        },
        {
          "duration": 0.14285700000000645,
          "durationTicks": 64,
          "midi": 70,
          "name": "A#4",
          "ticks": 42944,
          "time": 95.85704700000001,
          "velocity": 1
        },
        {
          "duration": 0.32142824999999675,
          "durationTicks": 144,
          "midi": 73,
          "name": "C#5",
          "ticks": 43008,
          "time": 95.99990400000002,
          "velocity": 1
        },
        {
          "duration": 0.12499987500001453,
          "durationTicks": 56,
          "midi": 70,
          "name": "A#4",
          "ticks": 43136,
          "time": 96.285618,
          "velocity": 1
        },
        {
          "duration": 0.3392853750000029,
          "durationTicks": 152,
          "midi": 73,
          "name": "C#5",
          "ticks": 43200,
          "time": 96.428475,
          "velocity": 1
        },
        {
          "duration": 0.12499987500000032,
          "durationTicks": 56,
          "midi": 70,
          "name": "A#4",
          "ticks": 43328,
          "time": 96.714189,
          "velocity": 1
        },
        {
          "duration": 0.39285674999999287,
          "durationTicks": 176,
          "midi": 73,
          "name": "C#5",
          "ticks": 43392,
          "time": 96.85704600000001,
          "velocity": 1
        },
        {
          "duration": 0.2857139999999987,
          "durationTicks": 128,
          "midi": 66,
          "name": "F#4",
          "ticks": 43584,
          "time": 97.285617,
          "velocity": 1
        },
        {
          "duration": 0.4107138750000132,
          "durationTicks": 184,
          "midi": 68,
          "name": "G#4",
          "ticks": 43712,
          "time": 97.571331,
          "velocity": 1
        },
        {
          "duration": 0.1249998749999861,
          "durationTicks": 56,
          "midi": 68,
          "name": "G#4",
          "ticks": 43968,
          "time": 98.14275900000001,
          "velocity": 1
        },
        {
          "duration": 0.12499987500000032,
          "durationTicks": 56,
          "midi": 68,
          "name": "G#4",
          "ticks": 44096,
          "time": 98.42847300000001,
          "velocity": 1
        },
        {
          "duration": 0.3035711250000048,
          "durationTicks": 136,
          "midi": 68,
          "name": "G#4",
          "ticks": 44160,
          "time": 98.57133,
          "velocity": 1
        },
        {
          "duration": 0.4999995000000155,
          "durationTicks": 224,
          "midi": 70,
          "name": "A#4",
          "ticks": 44288,
          "time": 98.857044,
          "velocity": 1
        },
        {
          "duration": 0.8392848750000041,
          "durationTicks": 376,
          "midi": 65,
          "name": "F4",
          "ticks": 44544,
          "time": 99.42847200000001,
          "velocity": 1
        },
        {
          "duration": 0.7678563749999938,
          "durationTicks": 344,
          "midi": 70,
          "name": "A#4",
          "ticks": 45312,
          "time": 101.142756,
          "velocity": 1
        },
        {
          "duration": 0.6607136249999996,
          "durationTicks": 296,
          "midi": 72,
          "name": "C5",
          "ticks": 45696,
          "time": 101.999898,
          "velocity": 1
        },
        {
          "duration": 0.6249993750000016,
          "durationTicks": 280,
          "midi": 73,
          "name": "C#5",
          "ticks": 46080,
          "time": 102.85704000000001,
          "velocity": 1
        },
        {
          "duration": 0.6785707500000058,
          "durationTicks": 304,
          "midi": 80,
          "name": "G#5",
          "ticks": 46464,
          "time": 103.71418200000001,
          "velocity": 1
        },
        {
          "duration": 1.571427,
          "durationTicks": 704,
          "midi": 77,
          "name": "F5",
          "ticks": 46848,
          "time": 104.571324,
          "velocity": 1
        },
        {
          "duration": 0.7857134999999857,
          "durationTicks": 352,
          "midi": 77,
          "name": "F5",
          "ticks": 49152,
          "time": 109.71417600000001,
          "velocity": 1
        },
        {
          "duration": 0.3928567500000071,
          "durationTicks": 176,
          "midi": 75,
          "name": "D#5",
          "ticks": 49536,
          "time": 110.571318,
          "velocity": 1
        },
        {
          "duration": 0.3928567500000071,
          "durationTicks": 176,
          "midi": 73,
          "name": "C#5",
          "ticks": 49728,
          "time": 110.99988900000001,
          "velocity": 1
        },
        {
          "duration": 0.6428564999999935,
          "durationTicks": 288,
          "midi": 75,
          "name": "D#5",
          "ticks": 49920,
          "time": 111.42846000000002,
          "velocity": 1
        },
        {
          "duration": 0.3928567500000071,
          "durationTicks": 176,
          "midi": 75,
          "name": "D#5",
          "ticks": 50304,
          "time": 112.28560200000001,
          "velocity": 1
        },
        {
          "duration": 1.3392843750000054,
          "durationTicks": 600,
          "midi": 70,
          "name": "A#4",
          "ticks": 50496,
          "time": 112.714173,
          "velocity": 1
        },
        {
          "duration": 0.821427749999998,
          "durationTicks": 368,
          "midi": 73,
          "name": "C#5",
          "ticks": 51456,
          "time": 114.85702800000001,
          "velocity": 1
        },
        {
          "duration": 0.8214277500000122,
          "durationTicks": 368,
          "midi": 70,
          "name": "A#4",
          "ticks": 51840,
          "time": 115.71417000000001,
          "velocity": 1
        },
        {
          "duration": 0.7499992500000019,
          "durationTicks": 336,
          "midi": 68,
          "name": "G#4",
          "ticks": 52224,
          "time": 116.571312,
          "velocity": 1
        },
        {
          "duration": 0.7321421249999815,
          "durationTicks": 328,
          "midi": 70,
          "name": "A#4",
          "ticks": 52608,
          "time": 117.42845400000002,
          "velocity": 1
        },
        {
          "duration": 0.9642847500000045,
          "durationTicks": 432,
          "midi": 73,
          "name": "C#5",
          "ticks": 52992,
          "time": 118.28559600000001,
          "velocity": 1
        },
        {
          "duration": 0.3035711250000048,
          "durationTicks": 136,
          "midi": 65,
          "name": "F4",
          "ticks": 55296,
          "time": 123.428448,
          "velocity": 1
        },
        {
          "duration": 0.16071412499999838,
          "durationTicks": 72,
          "midi": 64,
          "name": "E4",
          "ticks": 55424,
          "time": 123.71416200000002,
          "velocity": 1
        },
        {
          "duration": 0.3035711249999906,
          "durationTicks": 136,
          "midi": 65,
          "name": "F4",
          "ticks": 55488,
          "time": 123.85701900000001,
          "velocity": 1
        },
        {
          "duration": 0.5714279999999832,
          "durationTicks": 256,
          "midi": 68,
          "name": "G#4",
          "ticks": 55616,
          "time": 124.14273300000002,
          "velocity": 1
        },
        {
          "duration": 0.410713874999999,
          "durationTicks": 184,
          "midi": 65,
          "name": "F4",
          "ticks": 55872,
          "time": 124.714161,
          "velocity": 1
        },
        {
          "duration": 0.24999974999998642,
          "durationTicks": 112,
          "midi": 68,
          "name": "G#4",
          "ticks": 56064,
          "time": 125.14273200000001,
          "velocity": 1
        },
        {
          "duration": 0.1249998749999861,
          "durationTicks": 56,
          "midi": 70,
          "name": "A#4",
          "ticks": 56192,
          "time": 125.42844600000002,
          "velocity": 1
        },
        {
          "duration": 0.2321426250000087,
          "durationTicks": 104,
          "midi": 68,
          "name": "G#4",
          "ticks": 56256,
          "time": 125.57130300000001,
          "velocity": 1
        },
        {
          "duration": 0.8035706250000061,
          "durationTicks": 360,
          "midi": 73,
          "name": "C#5",
          "ticks": 56384,
          "time": 125.85701700000001,
          "velocity": 1
        },
        {
          "duration": 0.26785687499999256,
          "durationTicks": 120,
          "midi": 73,
          "name": "C#5",
          "ticks": 56832,
          "time": 126.85701600000002,
          "velocity": 1
        },
        {
          "duration": 0.5535708749999912,
          "durationTicks": 248,
          "midi": 77,
          "name": "F5",
          "ticks": 56960,
          "time": 127.14273000000001,
          "velocity": 1
        },
        {
          "duration": 0.44642812499999707,
          "durationTicks": 200,
          "midi": 73,
          "name": "C#5",
          "ticks": 57216,
          "time": 127.71415800000001,
          "velocity": 1
        },
        {
          "duration": 0.23214262500002292,
          "durationTicks": 104,
          "midi": 70,
          "name": "A#4",
          "ticks": 57408,
          "time": 128.142729,
          "velocity": 1
        },
        {
          "duration": 0.5178566250000074,
          "durationTicks": 232,
          "midi": 75,
          "name": "D#5",
          "ticks": 57536,
          "time": 128.42844300000002,
          "velocity": 1
        },
        {
          "duration": 0.12499987500001453,
          "durationTicks": 56,
          "midi": 72,
          "name": "C5",
          "ticks": 58368,
          "time": 130.285584,
          "velocity": 1
        },
        {
          "duration": 0.08928562500000226,
          "durationTicks": 40,
          "midi": 72,
          "name": "C5",
          "ticks": 58496,
          "time": 130.571298,
          "velocity": 1
        },
        {
          "duration": 0.21428550000001678,
          "durationTicks": 96,
          "midi": 73,
          "name": "C#5",
          "ticks": 58560,
          "time": 130.714155,
          "velocity": 1
        },
        {
          "duration": 0.10714275000000839,
          "durationTicks": 48,
          "midi": 75,
          "name": "D#5",
          "ticks": 58688,
          "time": 130.99986900000002,
          "velocity": 1
        },
        {
          "duration": 0.16071412499999838,
          "durationTicks": 72,
          "midi": 72,
          "name": "C5",
          "ticks": 58752,
          "time": 131.142726,
          "velocity": 1
        },
        {
          "duration": 0.08928562499997383,
          "durationTicks": 40,
          "midi": 72,
          "name": "C5",
          "ticks": 58880,
          "time": 131.42844000000002,
          "velocity": 1
        },
        {
          "duration": 0.2857140000000129,
          "durationTicks": 128,
          "midi": 73,
          "name": "C#5",
          "ticks": 58944,
          "time": 131.57129700000002,
          "velocity": 1
        },
        {
          "duration": 0.19642837499998222,
          "durationTicks": 88,
          "midi": 75,
          "name": "D#5",
          "ticks": 59072,
          "time": 131.85701100000003,
          "velocity": 1
        },
        {
          "duration": 0.4285709999999767,
          "durationTicks": 192,
          "midi": 72,
          "name": "C5",
          "ticks": 59136,
          "time": 131.99986800000002,
          "velocity": 1
        },
        {
          "duration": 0.24999975000000063,
          "durationTicks": 112,
          "midi": 71,
          "name": "B4",
          "ticks": 59328,
          "time": 132.428439,
          "velocity": 1
        },
        {
          "duration": 0.5714279999999974,
          "durationTicks": 256,
          "midi": 70,
          "name": "A#4",
          "ticks": 59456,
          "time": 132.714153,
          "velocity": 1
        },
        {
          "duration": 0.32142824999999675,
          "durationTicks": 144,
          "midi": 72,
          "name": "C5",
          "ticks": 59904,
          "time": 133.714152,
          "velocity": 1
        },
        {
          "duration": 0.26785687500000677,
          "durationTicks": 120,
          "midi": 73,
          "name": "C#5",
          "ticks": 60096,
          "time": 134.14272300000002,
          "velocity": 1
        },
        {
          "duration": 0.19642837499998222,
          "durationTicks": 88,
          "midi": 74,
          "name": "D5",
          "ticks": 60288,
          "time": 134.57129400000002,
          "velocity": 1
        },
        {
          "duration": 0.24999975000000063,
          "durationTicks": 112,
          "midi": 75,
          "name": "D#5",
          "ticks": 60480,
          "time": 134.999865,
          "velocity": 1
        },
        {
          "duration": 0.2857140000000129,
          "durationTicks": 128,
          "midi": 77,
          "name": "F5",
          "ticks": 60672,
          "time": 135.428436,
          "velocity": 1
        },
        {
          "duration": 0.16071412499999838,
          "durationTicks": 72,
          "midi": 76,
          "name": "E5",
          "ticks": 60800,
          "time": 135.71415000000002,
          "velocity": 1
        },
        {
          "duration": 0.21428549999998836,
          "durationTicks": 96,
          "midi": 75,
          "name": "D#5",
          "ticks": 60864,
          "time": 135.857007,
          "velocity": 1
        },
        {
          "duration": 0.6249993749999874,
          "durationTicks": 280,
          "midi": 73,
          "name": "C#5",
          "ticks": 60992,
          "time": 136.14272100000002,
          "velocity": 1
        },
        {
          "duration": 0.30357112500001904,
          "durationTicks": 136,
          "midi": 65,
          "name": "F4",
          "ticks": 61440,
          "time": 137.14272,
          "velocity": 1
        },
        {
          "duration": 0.14285699999999224,
          "durationTicks": 64,
          "midi": 64,
          "name": "E4",
          "ticks": 61568,
          "time": 137.428434,
          "velocity": 1
        },
        {
          "duration": 0.26785687500000677,
          "durationTicks": 120,
          "midi": 65,
          "name": "F4",
          "ticks": 61632,
          "time": 137.571291,
          "velocity": 1
        },
        {
          "duration": 0.5714279999999974,
          "durationTicks": 256,
          "midi": 68,
          "name": "G#4",
          "ticks": 61760,
          "time": 137.85700500000002,
          "velocity": 1
        },
        {
          "duration": 0.3571424999999806,
          "durationTicks": 160,
          "midi": 65,
          "name": "F4",
          "ticks": 62016,
          "time": 138.428433,
          "velocity": 1
        },
        {
          "duration": 0.26785687500000677,
          "durationTicks": 120,
          "midi": 68,
          "name": "G#4",
          "ticks": 62208,
          "time": 138.85700400000002,
          "velocity": 1
        },
        {
          "duration": 0.1249998749999861,
          "durationTicks": 56,
          "midi": 70,
          "name": "A#4",
          "ticks": 62336,
          "time": 139.14271800000003,
          "velocity": 1
        },
        {
          "duration": 0.21428549999998836,
          "durationTicks": 96,
          "midi": 68,
          "name": "G#4",
          "ticks": 62400,
          "time": 139.28557500000002,
          "velocity": 1
        },
        {
          "duration": 0.9642847500000187,
          "durationTicks": 432,
          "midi": 73,
          "name": "C#5",
          "ticks": 62528,
          "time": 139.571289,
          "velocity": 1
        },
        {
          "duration": 0.3035711249999906,
          "durationTicks": 136,
          "midi": 77,
          "name": "F5",
          "ticks": 63104,
          "time": 140.85700200000002,
          "velocity": 1
        },
        {
          "duration": 0.16071412499999838,
          "durationTicks": 72,
          "midi": 77,
          "name": "F5",
          "ticks": 63296,
          "time": 141.28557300000003,
          "velocity": 1
        },
        {
          "duration": 0.42857100000000514,
          "durationTicks": 192,
          "midi": 75,
          "name": "D#5",
          "ticks": 63360,
          "time": 141.42843000000002,
          "velocity": 1
        },
        {
          "duration": 0.2321426249999945,
          "durationTicks": 104,
          "midi": 70,
          "name": "A#4",
          "ticks": 63552,
          "time": 141.85700100000003,
          "velocity": 1
        },
        {
          "duration": 1.6607126250000022,
          "durationTicks": 744,
          "midi": 73,
          "name": "C#5",
          "ticks": 63680,
          "time": 142.142715,
          "velocity": 1
        },
        {
          "duration": 0.26785687499997834,
          "durationTicks": 120,
          "midi": 73,
          "name": "C#5",
          "ticks": 64512,
          "time": 143.99985600000002,
          "velocity": 1
        },
        {
          "duration": 0.1607141250000268,
          "durationTicks": 72,
          "midi": 70,
          "name": "A#4",
          "ticks": 64640,
          "time": 144.28557,
          "velocity": 1
        },
        {
          "duration": 0.23214262500002292,
          "durationTicks": 104,
          "midi": 73,
          "name": "C#5",
          "ticks": 64704,
          "time": 144.428427,
          "velocity": 1
        },
        {
          "duration": 0.3392853750000029,
          "durationTicks": 152,
          "midi": 76,
          "name": "E5",
          "ticks": 64832,
          "time": 144.714141,
          "velocity": 1
        },
        {
          "duration": 0.49999949999997284,
          "durationTicks": 224,
          "midi": 75,
          "name": "D#5",
          "ticks": 65024,
          "time": 145.14271200000002,
          "velocity": 1
        },
        {
          "duration": 0.19642837499998222,
          "durationTicks": 88,
          "midi": 73,
          "name": "C#5",
          "ticks": 65280,
          "time": 145.71414000000001,
          "velocity": 1
        },
        {
          "duration": 0.1249998749999861,
          "durationTicks": 56,
          "midi": 73,
          "name": "C#5",
          "ticks": 65408,
          "time": 145.99985400000003,
          "velocity": 1
        },
        {
          "duration": 0.2499997499999722,
          "durationTicks": 112,
          "midi": 75,
          "name": "D#5",
          "ticks": 65472,
          "time": 146.14271100000002,
          "velocity": 1
        },
        {
          "duration": 0.33928537499997447,
          "durationTicks": 152,
          "midi": 72,
          "name": "C5",
          "ticks": 65600,
          "time": 146.42842500000003,
          "velocity": 1
        },
        {
          "duration": 0.49999950000000126,
          "durationTicks": 224,
          "midi": 70,
          "name": "A#4",
          "ticks": 65792,
          "time": 146.856996,
          "velocity": 1
        },
        {
          "duration": 0.21428550000001678,
          "durationTicks": 96,
          "midi": 77,
          "name": "F5",
          "ticks": 66048,
          "time": 147.428424,
          "velocity": 1
        },
        {
          "duration": 0.44642812499998286,
          "durationTicks": 200,
          "midi": 77,
          "name": "F5",
          "ticks": 66176,
          "time": 147.71413800000002,
          "velocity": 1
        },
        {
          "duration": 0.19642837499998222,
          "durationTicks": 88,
          "midi": 77,
          "name": "F5",
          "ticks": 66432,
          "time": 148.28556600000002,
          "velocity": 1
        },
        {
          "duration": 0.3571424999999806,
          "durationTicks": 160,
          "midi": 77,
          "name": "F5",
          "ticks": 66560,
          "time": 148.57128000000003,
          "velocity": 1
        },
        {
          "duration": 0.9642847500000187,
          "durationTicks": 432,
          "midi": 73,
          "name": "C#5",
          "ticks": 66752,
          "time": 148.999851,
          "velocity": 1
        }
      ],
      "endOfTrackTicks": 67184
    },
    {
      "channel": 4,
      "controlChanges": {
        "7": [
          {
            "number": 7,
            "ticks": 0,
            "time": 0,
            "value": 1
          }
        ],
        "10": [
          {
            "number": 10,
            "ticks": 0,
            "time": 0,
            "value": 0.5039370078740157
          }
        ],
        "91": [
          {
            "number": 91,
            "ticks": 0,
            "time": 0,
            "value": 1
          }
        ]
      },
      "pitchBends": [],
      "instrument": {
        "family": "chromatic percussion",
        "number": 14,
        "name": "tubular bells"
      },
      "name": "Bells           ",
      "notes": [
        {
          "duration": 0.12499987499999321,
          "durationTicks": 56,
          "midi": 66,
          "name": "F#4",
          "ticks": 25728,
          "time": 57.42851400000001,
          "velocity": 0.8661417322834646
        },
        {
          "duration": 0.16071412499999838,
          "durationTicks": 72,
          "midi": 68,
          "name": "G#4",
          "ticks": 25920,
          "time": 57.857085000000005,
          "velocity": 0.8661417322834646
        },
        {
          "duration": 0.12499987500000032,
          "durationTicks": 56,
          "midi": 70,
          "name": "A#4",
          "ticks": 26112,
          "time": 58.285656,
          "velocity": 0.8661417322834646
        },
        {
          "duration": 0.12499987500000032,
          "durationTicks": 56,
          "midi": 68,
          "name": "G#4",
          "ticks": 26880,
          "time": 59.99994,
          "velocity": 0.8661417322834646
        },
        {
          "duration": 0.14285700000000645,
          "durationTicks": 64,
          "midi": 68,
          "name": "G#4",
          "ticks": 28608,
          "time": 63.857079000000006,
          "velocity": 1
        },
        {
          "duration": 0.24999975000001484,
          "durationTicks": 112,
          "midi": 68,
          "name": "G#4",
          "ticks": 29184,
          "time": 65.142792,
          "velocity": 1
        },
        {
          "duration": 0.12499987500001453,
          "durationTicks": 56,
          "midi": 66,
          "name": "F#4",
          "ticks": 51072,
          "time": 113.999886,
          "velocity": 0.8661417322834646
        },
        {
          "duration": 0.16071412499999838,
          "durationTicks": 72,
          "midi": 68,
          "name": "G#4",
          "ticks": 51264,
          "time": 114.42845700000001,
          "velocity": 0.8661417322834646
        },
        {
          "duration": 0.12499987500000032,
          "durationTicks": 56,
          "midi": 70,
          "name": "A#4",
          "ticks": 51456,
          "time": 114.85702800000001,
          "velocity": 0.8661417322834646
        },
        {
          "duration": 0.12499987500001453,
          "durationTicks": 56,
          "midi": 68,
          "name": "G#4",
          "ticks": 52224,
          "time": 116.571312,
          "velocity": 0.8661417322834646
        },
        {
          "duration": 0.14285699999999224,
          "durationTicks": 64,
          "midi": 68,
          "name": "G#4",
          "ticks": 53952,
          "time": 120.42845100000001,
          "velocity": 1
        },
        {
          "duration": 0.24999974999998642,
          "durationTicks": 112,
          "midi": 68,
          "name": "G#4",
          "ticks": 54528,
          "time": 121.71416400000001,
          "velocity": 1
        }
      ],
      "endOfTrackTicks": 54640
    },
    {
      "channel": 5,
      "controlChanges": {
        "7": [
          {
            "number": 7,
            "ticks": 0,
            "time": 0,
            "value": 0.7559055118110236
          },
          {
            "number": 7,
            "ticks": 7912,
            "time": 17.660696625000003,
            "value": 0.7795275590551181
          },
          {
            "number": 7,
            "ticks": 7984,
            "time": 17.821410750000002,
            "value": 0.7874015748031497
          },
          {
            "number": 7,
            "ticks": 8008,
            "time": 17.874982125000002,
            "value": 0.7952755905511811
          },
          {
            "number": 7,
            "ticks": 8128,
            "time": 18.142839000000002,
            "value": 0.8110236220472441
          },
          {
            "number": 7,
            "ticks": 8608,
            "time": 19.214266500000004,
            "value": 0.8188976377952756
          },
          {
            "number": 7,
            "ticks": 8744,
            "time": 19.517837625000002,
            "value": 0.8267716535433071
          },
          {
            "number": 7,
            "ticks": 8784,
            "time": 19.60712325,
            "value": 0.8346456692913385
          },
          {
            "number": 7,
            "ticks": 8920,
            "time": 19.910694375000002,
            "value": 0.84251968503937
          },
          {
            "number": 7,
            "ticks": 16760,
            "time": 37.41067687500001,
            "value": 0.8582677165354331
          },
          {
            "number": 7,
            "ticks": 16816,
            "time": 37.53567675,
            "value": 0.84251968503937
          },
          {
            "number": 7,
            "ticks": 16872,
            "time": 37.660676625,
            "value": 0.8346456692913385
          },
          {
            "number": 7,
            "ticks": 16904,
            "time": 37.732105125000004,
            "value": 0.8188976377952756
          },
          {
            "number": 7,
            "ticks": 17104,
            "time": 38.17853325,
            "value": 0.8110236220472441
          },
          {
            "number": 7,
            "ticks": 17192,
            "time": 38.374961625000005,
            "value": 0.8031496062992126
          },
          {
            "number": 7,
            "ticks": 17248,
            "time": 38.4999615,
            "value": 0.7952755905511811
          },
          {
            "number": 7,
            "ticks": 17288,
            "time": 38.58924712500001,
            "value": 0.7795275590551181
          },
          {
            "number": 7,
            "ticks": 17376,
            "time": 38.7856755,
            "value": 0.7716535433070866
          },
          {
            "number": 7,
            "ticks": 17536,
            "time": 39.142818,
            "value": 0.7637795275590551
          },
          {
            "number": 7,
            "ticks": 17592,
            "time": 39.267817875000006,
            "value": 0.7559055118110236
          },
          {
            "number": 7,
            "ticks": 17920,
            "time": 39.99996,
            "value": 0.7401574803149606
          },
          {
            "number": 7,
            "ticks": 33712,
            "time": 75.24992475,
            "value": 0.7559055118110236
          },
          {
            "number": 7,
            "ticks": 33832,
            "time": 75.51778162500001,
            "value": 0.7716535433070866
          },
          {
            "number": 7,
            "ticks": 33928,
            "time": 75.73206712500001,
            "value": 0.7795275590551181
          },
          {
            "number": 7,
            "ticks": 33992,
            "time": 75.874924125,
            "value": 0.7874015748031497
          },
          {
            "number": 7,
            "ticks": 34112,
            "time": 76.142781,
            "value": 0.7952755905511811
          },
          {
            "number": 7,
            "ticks": 34152,
            "time": 76.232066625,
            "value": 0.8110236220472441
          },
          {
            "number": 7,
            "ticks": 34240,
            "time": 76.42849500000001,
            "value": 0.8188976377952756
          },
          {
            "number": 7,
            "ticks": 42808,
            "time": 95.55347587500002,
            "value": 0.8110236220472441
          },
          {
            "number": 7,
            "ticks": 43024,
            "time": 96.03561825000001,
            "value": 0.8031496062992126
          },
          {
            "number": 7,
            "ticks": 43032,
            "time": 96.053475375,
            "value": 0.7952755905511811
          },
          {
            "number": 7,
            "ticks": 43128,
            "time": 96.26776087500001,
            "value": 0.7795275590551181
          },
          {
            "number": 7,
            "ticks": 43136,
            "time": 96.285618,
            "value": 0.7716535433070866
          },
          {
            "number": 7,
            "ticks": 43168,
            "time": 96.35704650000001,
            "value": 0.7637795275590551
          },
          {
            "number": 7,
            "ticks": 69720,
            "time": 155.624844375,
            "value": 0.7559055118110236
          },
          {
            "number": 7,
            "ticks": 69760,
            "time": 155.71413,
            "value": 0.7716535433070866
          },
          {
            "number": 7,
            "ticks": 69768,
            "time": 155.73198712500002,
            "value": 0.7795275590551181
          },
          {
            "number": 7,
            "ticks": 69792,
            "time": 155.7855585,
            "value": 0.7874015748031497
          },
          {
            "number": 7,
            "ticks": 69808,
            "time": 155.82127275,
            "value": 0.7952755905511811
          },
          {
            "number": 7,
            "ticks": 69832,
            "time": 155.874844125,
            "value": 0.8188976377952756
          },
          {
            "number": 7,
            "ticks": 69848,
            "time": 155.91055837500002,
            "value": 0.8267716535433071
          },
          {
            "number": 7,
            "ticks": 69856,
            "time": 155.9284155,
            "value": 0.8346456692913385
          },
          {
            "number": 7,
            "ticks": 69864,
            "time": 155.946272625,
            "value": 0.84251968503937
          },
          {
            "number": 7,
            "ticks": 69880,
            "time": 155.98198687500002,
            "value": 0.8503937007874016
          },
          {
            "number": 7,
            "ticks": 69888,
            "time": 155.99984400000002,
            "value": 0.8740157480314961
          },
          {
            "number": 7,
            "ticks": 69904,
            "time": 156.03555825,
            "value": 0.8818897637795275
          },
          {
            "number": 7,
            "ticks": 69912,
            "time": 156.05341537500001,
            "value": 0.889763779527559
          },
          {
            "number": 7,
            "ticks": 69928,
            "time": 156.089129625,
            "value": 0.8976377952755905
          },
          {
            "number": 7,
            "ticks": 69936,
            "time": 156.10698675,
            "value": 0.9133858267716536
          },
          {
            "number": 7,
            "ticks": 69944,
            "time": 156.124843875,
            "value": 0.9212598425196851
          },
          {
            "number": 7,
            "ticks": 69960,
            "time": 156.16055812500002,
            "value": 0.9291338582677166
          },
          {
            "number": 7,
            "ticks": 69968,
            "time": 156.17841525000003,
            "value": 0.937007874015748
          },
          {
            "number": 7,
            "ticks": 69976,
            "time": 156.196272375,
            "value": 0.9448818897637795
          }
        ],
        "10": [
          {
            "number": 10,
            "ticks": 0,
            "time": 0,
            "value": 0.7007874015748031
          }
        ],
        "91": [
          {
            "number": 91,
            "ticks": 0,
            "time": 0,
            "value": 0.12598425196850394
          }
        ]
      },
      "pitchBends": [],
      "instrument": {
        "family": "piano",
        "number": 1,
        "name": "bright acoustic piano"
      },
      "name": "Piano 2         ",
      "notes": [
        {
          "duration": 0.3214282500000003,
          "durationTicks": 144,
          "midi": 72,
          "name": "C5",
          "ticks": 7680,
          "time": 17.14284,
          "velocity": 0.8110236220472441
        },
        {
          "duration": 0.3214282500000003,
          "durationTicks": 144,
          "midi": 68,
          "name": "G#4",
          "ticks": 7680,
          "time": 17.14284,
          "velocity": 0.8110236220472441
        },
        {
          "duration": 0.3214282500000003,
          "durationTicks": 144,
          "midi": 72,
          "name": "C5",
          "ticks": 7872,
          "time": 17.571411,
          "velocity": 0.8110236220472441
        },
        {
          "duration": 0.3035711250000013,
          "durationTicks": 136,
          "midi": 68,
          "name": "G#4",
          "ticks": 7872,
          "time": 17.571411,
          "velocity": 0.8110236220472441
        },
        {
          "duration": 0.26785687499999966,
          "durationTicks": 120,
          "midi": 72,
          "name": "C5",
          "ticks": 8064,
          "time": 17.999982000000003,
          "velocity": 0.8110236220472441
        },
        {
          "duration": 0.26785687499999966,
          "durationTicks": 120,
          "midi": 68,
          "name": "G#4",
          "ticks": 8064,
          "time": 17.999982000000003,
          "velocity": 0.8110236220472441
        },
        {
          "duration": 0.2857139999999987,
          "durationTicks": 128,
          "midi": 72,
          "name": "C5",
          "ticks": 8256,
          "time": 18.428553,
          "velocity": 0.8110236220472441
        },
        {
          "duration": 0.26785687499999966,
          "durationTicks": 120,
          "midi": 68,
          "name": "G#4",
          "ticks": 8256,
          "time": 18.428553,
          "velocity": 0.8110236220472441
        },
        {
          "duration": 0.26785687499999966,
          "durationTicks": 120,
          "midi": 72,
          "name": "C5",
          "ticks": 8448,
          "time": 18.857124000000002,
          "velocity": 0.8110236220472441
        },
        {
          "duration": 0.26785687499999966,
          "durationTicks": 120,
          "midi": 68,
          "name": "G#4",
          "ticks": 8448,
          "time": 18.857124000000002,
          "velocity": 0.8110236220472441
        },
        {
          "duration": 0.26785687499999966,
          "durationTicks": 120,
          "midi": 72,
          "name": "C5",
          "ticks": 8640,
          "time": 19.285695,
          "velocity": 0.8110236220472441
        },
        {
          "duration": 0.24999975000000063,
          "durationTicks": 112,
          "midi": 68,
          "name": "G#4",
          "ticks": 8640,
          "time": 19.285695,
          "velocity": 0.8110236220472441
        },
        {
          "duration": 0.26785687499999966,
          "durationTicks": 120,
          "midi": 72,
          "name": "C5",
          "ticks": 8832,
          "time": 19.714266000000002,
          "velocity": 0.8110236220472441
        },
        {
          "duration": 0.24999975000000063,
          "durationTicks": 112,
          "midi": 68,
          "name": "G#4",
          "ticks": 8832,
          "time": 19.714266000000002,
          "velocity": 0.8110236220472441
        },
        {
          "duration": 0.28571400000000224,
          "durationTicks": 128,
          "midi": 72,
          "name": "C5",
          "ticks": 9024,
          "time": 20.142837,
          "velocity": 0.8110236220472441
        },
        {
          "duration": 0.2678568750000032,
          "durationTicks": 120,
          "midi": 68,
          "name": "G#4",
          "ticks": 9024,
          "time": 20.142837,
          "velocity": 0.8110236220472441
        },
        {
          "duration": 0.24999975000000063,
          "durationTicks": 112,
          "midi": 72,
          "name": "C5",
          "ticks": 9216,
          "time": 20.571408,
          "velocity": 0.8110236220472441
        },
        {
          "duration": 0.24999975000000063,
          "durationTicks": 112,
          "midi": 68,
          "name": "G#4",
          "ticks": 9216,
          "time": 20.571408,
          "velocity": 0.8110236220472441
        },
        {
          "duration": 0.3392853750000029,
          "durationTicks": 152,
          "midi": 61,
          "name": "C#4",
          "ticks": 16896,
          "time": 37.714248000000005,
          "velocity": 1
        },
        {
          "duration": 0.6249993749999945,
          "durationTicks": 280,
          "midi": 46,
          "name": "A#2",
          "ticks": 16896,
          "time": 37.714248000000005,
          "velocity": 1
        },
        {
          "duration": 0.3392853750000029,
          "durationTicks": 152,
          "midi": 65,
          "name": "F4",
          "ticks": 16896,
          "time": 37.714248000000005,
          "velocity": 1
        },
        {
          "duration": 0.3392853750000029,
          "durationTicks": 152,
          "midi": 58,
          "name": "A#3",
          "ticks": 16896,
          "time": 37.714248000000005,
          "velocity": 1
        },
        {
          "duration": 0.3392853750000029,
          "durationTicks": 152,
          "midi": 61,
          "name": "C#4",
          "ticks": 17088,
          "time": 38.142819,
          "velocity": 1
        },
        {
          "duration": 0.3571424999999948,
          "durationTicks": 160,
          "midi": 58,
          "name": "A#3",
          "ticks": 17088,
          "time": 38.142819,
          "velocity": 1
        },
        {
          "duration": 0.3571424999999948,
          "durationTicks": 160,
          "midi": 65,
          "name": "F4",
          "ticks": 17088,
          "time": 38.142819,
          "velocity": 1
        },
        {
          "duration": 0.7678563749999938,
          "durationTicks": 344,
          "midi": 46,
          "name": "A#2",
          "ticks": 17216,
          "time": 38.42853300000001,
          "velocity": 1
        },
        {
          "duration": 0.32142825000000386,
          "durationTicks": 144,
          "midi": 61,
          "name": "C#4",
          "ticks": 17280,
          "time": 38.57139,
          "velocity": 1
        },
        {
          "duration": 0.32142825000000386,
          "durationTicks": 144,
          "midi": 58,
          "name": "A#3",
          "ticks": 17280,
          "time": 38.57139,
          "velocity": 1
        },
        {
          "duration": 0.32142825000000386,
          "durationTicks": 144,
          "midi": 65,
          "name": "F4",
          "ticks": 17280,
          "time": 38.57139,
          "velocity": 1
        },
        {
          "duration": 0.32142824999999675,
          "durationTicks": 144,
          "midi": 65,
          "name": "F4",
          "ticks": 17472,
          "time": 38.999961000000006,
          "velocity": 1
        },
        {
          "duration": 0.3392853749999958,
          "durationTicks": 152,
          "midi": 61,
          "name": "C#4",
          "ticks": 17472,
          "time": 38.999961000000006,
          "velocity": 1
        },
        {
          "duration": 0.3392853749999958,
          "durationTicks": 152,
          "midi": 58,
          "name": "A#3",
          "ticks": 17472,
          "time": 38.999961000000006,
          "velocity": 1
        },
        {
          "duration": 1.160713125000001,
          "durationTicks": 520,
          "midi": 46,
          "name": "A#2",
          "ticks": 17600,
          "time": 39.285675000000005,
          "velocity": 1
        },
        {
          "duration": 0.32142824999999675,
          "durationTicks": 144,
          "midi": 61,
          "name": "C#4",
          "ticks": 17664,
          "time": 39.428532000000004,
          "velocity": 1
        },
        {
          "duration": 0.3035711249999977,
          "durationTicks": 136,
          "midi": 65,
          "name": "F4",
          "ticks": 17664,
          "time": 39.428532000000004,
          "velocity": 1
        },
        {
          "duration": 0.3035711249999977,
          "durationTicks": 136,
          "midi": 58,
          "name": "A#3",
          "ticks": 17664,
          "time": 39.428532000000004,
          "velocity": 1
        },
        {
          "duration": 0.3035711249999977,
          "durationTicks": 136,
          "midi": 65,
          "name": "F4",
          "ticks": 17856,
          "time": 39.857103,
          "velocity": 1
        },
        {
          "duration": 0.3035711249999977,
          "durationTicks": 136,
          "midi": 61,
          "name": "C#4",
          "ticks": 17856,
          "time": 39.857103,
          "velocity": 1
        },
        {
          "duration": 0.32142825000000386,
          "durationTicks": 144,
          "midi": 58,
          "name": "A#3",
          "ticks": 17856,
          "time": 39.857103,
          "velocity": 1
        },
        {
          "duration": 0.32142825000000386,
          "durationTicks": 144,
          "midi": 61,
          "name": "C#4",
          "ticks": 18048,
          "time": 40.285674,
          "velocity": 1
        },
        {
          "duration": 0.3035711249999977,
          "durationTicks": 136,
          "midi": 58,
          "name": "A#3",
          "ticks": 18048,
          "time": 40.285674,
          "velocity": 1
        },
        {
          "duration": 0.3035711249999977,
          "durationTicks": 136,
          "midi": 65,
          "name": "F4",
          "ticks": 18048,
          "time": 40.285674,
          "velocity": 1
        },
        {
          "duration": 0.3392853749999958,
          "durationTicks": 152,
          "midi": 46,
          "name": "A#2",
          "ticks": 18176,
          "time": 40.571388000000006,
          "velocity": 1
        },
        {
          "duration": 0.07142850000000323,
          "durationTicks": 32,
          "midi": 61,
          "name": "C#4",
          "ticks": 18240,
          "time": 40.714245000000005,
          "velocity": 1
        },
        {
          "duration": 0.07142850000000323,
          "durationTicks": 32,
          "midi": 65,
          "name": "F4",
          "ticks": 18240,
          "time": 40.714245000000005,
          "velocity": 1
        },
        {
          "duration": 0.07142850000000323,
          "durationTicks": 32,
          "midi": 58,
          "name": "A#3",
          "ticks": 18240,
          "time": 40.714245000000005,
          "velocity": 1
        },
        {
          "duration": 0.1785712499999974,
          "durationTicks": 80,
          "midi": 61,
          "name": "C#4",
          "ticks": 18304,
          "time": 40.857102000000005,
          "velocity": 1
        },
        {
          "duration": 0.16071412499999838,
          "durationTicks": 72,
          "midi": 65,
          "name": "F4",
          "ticks": 18304,
          "time": 40.857102000000005,
          "velocity": 1
        },
        {
          "duration": 0.1785712499999974,
          "durationTicks": 80,
          "midi": 58,
          "name": "A#3",
          "ticks": 18304,
          "time": 40.857102000000005,
          "velocity": 1
        },
        {
          "duration": 1.160713125000001,
          "durationTicks": 520,
          "midi": 44,
          "name": "G#2",
          "ticks": 18368,
          "time": 40.999959000000004,
          "velocity": 1
        },
        {
          "duration": 0.3035711249999977,
          "durationTicks": 136,
          "midi": 60,
          "name": "C4",
          "ticks": 18432,
          "time": 41.142816,
          "velocity": 1
        },
        {
          "duration": 0.3035711249999977,
          "durationTicks": 136,
          "midi": 56,
          "name": "G#3",
          "ticks": 18432,
          "time": 41.142816,
          "velocity": 1
        },
        {
          "duration": 0.2857139999999987,
          "durationTicks": 128,
          "midi": 63,
          "name": "D#4",
          "ticks": 18432,
          "time": 41.142816,
          "velocity": 1
        },
        {
          "duration": 0.3035711249999977,
          "durationTicks": 136,
          "midi": 63,
          "name": "D#4",
          "ticks": 18624,
          "time": 41.571387,
          "velocity": 1
        },
        {
          "duration": 0.3035711249999977,
          "durationTicks": 136,
          "midi": 56,
          "name": "G#3",
          "ticks": 18624,
          "time": 41.571387,
          "velocity": 1
        },
        {
          "duration": 0.3035711249999977,
          "durationTicks": 136,
          "midi": 60,
          "name": "C4",
          "ticks": 18624,
          "time": 41.571387,
          "velocity": 1
        },
        {
          "duration": 0.3035711249999977,
          "durationTicks": 136,
          "midi": 56,
          "name": "G#3",
          "ticks": 18816,
          "time": 41.99995800000001,
          "velocity": 1
        },
        {
          "duration": 0.3035711249999977,
          "durationTicks": 136,
          "midi": 63,
          "name": "D#4",
          "ticks": 18816,
          "time": 41.99995800000001,
          "velocity": 1
        },
        {
          "duration": 0.3035711249999977,
          "durationTicks": 136,
          "midi": 60,
          "name": "C4",
          "ticks": 18816,
          "time": 41.99995800000001,
          "velocity": 1
        },
        {
          "duration": 0.24999975000000063,
          "durationTicks": 112,
          "midi": 44,
          "name": "G#2",
          "ticks": 18944,
          "time": 42.285672000000005,
          "velocity": 1
        },
        {
          "duration": 0.3035711249999977,
          "durationTicks": 136,
          "midi": 60,
          "name": "C4",
          "ticks": 19008,
          "time": 42.428529000000005,
          "velocity": 1
        },
        {
          "duration": 0.3035711249999977,
          "durationTicks": 136,
          "midi": 56,
          "name": "G#3",
          "ticks": 19008,
          "time": 42.428529000000005,
          "velocity": 1
        },
        {
          "duration": 0.32142824999999675,
          "durationTicks": 144,
          "midi": 63,
          "name": "D#4",
          "ticks": 19008,
          "time": 42.428529000000005,
          "velocity": 1
        },
        {
          "duration": 0.1785712499999974,
          "durationTicks": 80,
          "midi": 44,
          "name": "G#2",
          "ticks": 19136,
          "time": 42.714243,
          "velocity": 1
        },
        {
          "duration": 0.2857140000000058,
          "durationTicks": 128,
          "midi": 58,
          "name": "A#3",
          "ticks": 19200,
          "time": 42.8571,
          "velocity": 1
        },
        {
          "duration": 0.3035711249999977,
          "durationTicks": 136,
          "midi": 65,
          "name": "F4",
          "ticks": 19200,
          "time": 42.8571,
          "velocity": 1
        },
        {
          "duration": 1.0178561250000016,
          "durationTicks": 456,
          "midi": 46,
          "name": "A#2",
          "ticks": 19200,
          "time": 42.8571,
          "velocity": 1
        },
        {
          "duration": 0.3035711249999977,
          "durationTicks": 136,
          "midi": 61,
          "name": "C#4",
          "ticks": 19200,
          "time": 42.8571,
          "velocity": 1
        },
        {
          "duration": 0.3035711249999977,
          "durationTicks": 136,
          "midi": 65,
          "name": "F4",
          "ticks": 19392,
          "time": 43.285671,
          "velocity": 1
        },
        {
          "duration": 0.3035711249999977,
          "durationTicks": 136,
          "midi": 61,
          "name": "C#4",
          "ticks": 19392,
          "time": 43.285671,
          "velocity": 1
        },
        {
          "duration": 0.3035711249999977,
          "durationTicks": 136,
          "midi": 58,
          "name": "A#3",
          "ticks": 19392,
          "time": 43.285671,
          "velocity": 1
        },
        {
          "duration": 0.3035711249999977,
          "durationTicks": 136,
          "midi": 58,
          "name": "A#3",
          "ticks": 19584,
          "time": 43.714242000000006,
          "velocity": 1
        },
        {
          "duration": 0.32142824999999675,
          "durationTicks": 144,
          "midi": 65,
          "name": "F4",
          "ticks": 19584,
          "time": 43.714242000000006,
          "velocity": 1
        },
        {
          "duration": 0.32142824999999675,
          "durationTicks": 144,
          "midi": 61,
          "name": "C#4",
          "ticks": 19584,
          "time": 43.714242000000006,
          "velocity": 1
        },
        {
          "duration": 0.24999975000000063,
          "durationTicks": 112,
          "midi": 46,
          "name": "A#2",
          "ticks": 19712,
          "time": 43.999956000000005,
          "velocity": 1
        },
        {
          "duration": 0.32142824999999675,
          "durationTicks": 144,
          "midi": 61,
          "name": "C#4",
          "ticks": 19776,
          "time": 44.142813000000004,
          "velocity": 1
        },
        {
          "duration": 0.32142824999999675,
          "durationTicks": 144,
          "midi": 65,
          "name": "F4",
          "ticks": 19776,
          "time": 44.142813000000004,
          "velocity": 1
        },
        {
          "duration": 0.3035711249999977,
          "durationTicks": 136,
          "midi": 58,
          "name": "A#3",
          "ticks": 19776,
          "time": 44.142813000000004,
          "velocity": 1
        },
        {
          "duration": 1.6428555000000031,
          "durationTicks": 736,
          "midi": 46,
          "name": "A#2",
          "ticks": 19904,
          "time": 44.428527,
          "velocity": 1
        },
        {
          "duration": 0.3571425000000019,
          "durationTicks": 160,
          "midi": 61,
          "name": "C#4",
          "ticks": 19968,
          "time": 44.571384,
          "velocity": 1
        },
        {
          "duration": 0.3392853750000029,
          "durationTicks": 152,
          "midi": 65,
          "name": "F4",
          "ticks": 19968,
          "time": 44.571384,
          "velocity": 1
        },
        {
          "duration": 0.3571425000000019,
          "durationTicks": 160,
          "midi": 58,
          "name": "A#3",
          "ticks": 19968,
          "time": 44.571384,
          "velocity": 1
        },
        {
          "duration": 0.3392853749999958,
          "durationTicks": 152,
          "midi": 61,
          "name": "C#4",
          "ticks": 20160,
          "time": 44.99995500000001,
          "velocity": 1
        },
        {
          "duration": 0.32142824999999675,
          "durationTicks": 144,
          "midi": 58,
          "name": "A#3",
          "ticks": 20160,
          "time": 44.99995500000001,
          "velocity": 1
        },
        {
          "duration": 0.32142824999999675,
          "durationTicks": 144,
          "midi": 65,
          "name": "F4",
          "ticks": 20160,
          "time": 44.99995500000001,
          "velocity": 1
        },
        {
          "duration": 0.3571424999999948,
          "durationTicks": 160,
          "midi": 61,
          "name": "C#4",
          "ticks": 20352,
          "time": 45.428526000000005,
          "velocity": 1
        },
        {
          "duration": 0.3392853750000029,
          "durationTicks": 152,
          "midi": 58,
          "name": "A#3",
          "ticks": 20352,
          "time": 45.428526000000005,
          "velocity": 1
        },
        {
          "duration": 0.32142824999999675,
          "durationTicks": 144,
          "midi": 65,
          "name": "F4",
          "ticks": 20352,
          "time": 45.428526000000005,
          "velocity": 1
        },
        {
          "duration": 0.32142825000000386,
          "durationTicks": 144,
          "midi": 61,
          "name": "C#4",
          "ticks": 20544,
          "time": 45.857097,
          "velocity": 1
        },
        {
          "duration": 0.32142825000000386,
          "durationTicks": 144,
          "midi": 58,
          "name": "A#3",
          "ticks": 20544,
          "time": 45.857097,
          "velocity": 1
        },
        {
          "duration": 0.32142825000000386,
          "durationTicks": 144,
          "midi": 65,
          "name": "F4",
          "ticks": 20544,
          "time": 45.857097,
          "velocity": 1
        },
        {
          "duration": 1.5714269999999928,
          "durationTicks": 704,
          "midi": 46,
          "name": "A#2",
          "ticks": 20672,
          "time": 46.14281100000001,
          "velocity": 1
        },
        {
          "duration": 0.3392853750000029,
          "durationTicks": 152,
          "midi": 61,
          "name": "C#4",
          "ticks": 20736,
          "time": 46.285668,
          "velocity": 1
        },
        {
          "duration": 0.3392853750000029,
          "durationTicks": 152,
          "midi": 58,
          "name": "A#3",
          "ticks": 20736,
          "time": 46.285668,
          "velocity": 1
        },
        {
          "duration": 0.32142825000000386,
          "durationTicks": 144,
          "midi": 65,
          "name": "F4",
          "ticks": 20736,
          "time": 46.285668,
          "velocity": 1
        },
        {
          "duration": 0.32142824999999675,
          "durationTicks": 144,
          "midi": 61,
          "name": "C#4",
          "ticks": 20928,
          "time": 46.714239000000006,
          "velocity": 1
        },
        {
          "duration": 0.32142824999999675,
          "durationTicks": 144,
          "midi": 58,
          "name": "A#3",
          "ticks": 20928,
          "time": 46.714239000000006,
          "velocity": 1
        },
        {
          "duration": 0.3035711249999977,
          "durationTicks": 136,
          "midi": 65,
          "name": "F4",
          "ticks": 20928,
          "time": 46.714239000000006,
          "velocity": 1
        },
        {
          "duration": 0.3035711249999977,
          "durationTicks": 136,
          "midi": 61,
          "name": "C#4",
          "ticks": 21120,
          "time": 47.142810000000004,
          "velocity": 1
        },
        {
          "duration": 0.2857139999999987,
          "durationTicks": 128,
          "midi": 65,
          "name": "F4",
          "ticks": 21120,
          "time": 47.142810000000004,
          "velocity": 1
        },
        {
          "duration": 0.3035711249999977,
          "durationTicks": 136,
          "midi": 58,
          "name": "A#3",
          "ticks": 21120,
          "time": 47.142810000000004,
          "velocity": 1
        },
        {
          "duration": 0.26785687499999966,
          "durationTicks": 120,
          "midi": 61,
          "name": "C#4",
          "ticks": 21312,
          "time": 47.571381,
          "velocity": 1
        },
        {
          "duration": 0.24999975000000063,
          "durationTicks": 112,
          "midi": 58,
          "name": "A#3",
          "ticks": 21312,
          "time": 47.571381,
          "velocity": 1
        },
        {
          "duration": 0.26785687499999966,
          "durationTicks": 120,
          "midi": 65,
          "name": "F4",
          "ticks": 21312,
          "time": 47.571381,
          "velocity": 1
        },
        {
          "duration": 0.12499987499999321,
          "durationTicks": 56,
          "midi": 46,
          "name": "A#2",
          "ticks": 21440,
          "time": 47.85709500000001,
          "velocity": 1
        },
        {
          "duration": 1.249998749999996,
          "durationTicks": 560,
          "midi": 41,
          "name": "F2",
          "ticks": 21504,
          "time": 47.99995200000001,
          "velocity": 1
        },
        {
          "duration": 1.660712624999995,
          "durationTicks": 744,
          "midi": 72,
          "name": "C5",
          "ticks": 21504,
          "time": 47.99995200000001,
          "velocity": 1
        },
        {
          "duration": 1.660712624999995,
          "durationTicks": 744,
          "midi": 65,
          "name": "F4",
          "ticks": 21504,
          "time": 47.99995200000001,
          "velocity": 1
        },
        {
          "duration": 1.6785697500000012,
          "durationTicks": 752,
          "midi": 69,
          "name": "A4",
          "ticks": 21504,
          "time": 47.99995200000001,
          "velocity": 1
        },
        {
          "duration": 2.089283625,
          "durationTicks": 936,
          "midi": 41,
          "name": "F2",
          "ticks": 22080,
          "time": 49.285665,
          "velocity": 1
        },
        {
          "duration": 0.14285699999999224,
          "durationTicks": 64,
          "midi": 69,
          "name": "A4",
          "ticks": 22272,
          "time": 49.71423600000001,
          "velocity": 1
        },
        {
          "duration": 0.14285699999999224,
          "durationTicks": 64,
          "midi": 65,
          "name": "F4",
          "ticks": 22272,
          "time": 49.71423600000001,
          "velocity": 1
        },
        {
          "duration": 0.14285699999999224,
          "durationTicks": 64,
          "midi": 72,
          "name": "C5",
          "ticks": 22272,
          "time": 49.71423600000001,
          "velocity": 1
        },
        {
          "duration": 0.03571424999999806,
          "durationTicks": 16,
          "midi": 72,
          "name": "C5",
          "ticks": 22400,
          "time": 49.999950000000005,
          "velocity": 1
        },
        {
          "duration": 0.053571375000004195,
          "durationTicks": 24,
          "midi": 69,
          "name": "A4",
          "ticks": 22400,
          "time": 49.999950000000005,
          "velocity": 1
        },
        {
          "duration": 0.03571424999999806,
          "durationTicks": 16,
          "midi": 65,
          "name": "F4",
          "ticks": 22400,
          "time": 49.999950000000005,
          "velocity": 1
        },
        {
          "duration": 0.10714275000000129,
          "durationTicks": 48,
          "midi": 72,
          "name": "C5",
          "ticks": 22464,
          "time": 50.142807000000005,
          "velocity": 1
        },
        {
          "duration": 0.10714275000000129,
          "durationTicks": 48,
          "midi": 69,
          "name": "A4",
          "ticks": 22464,
          "time": 50.142807000000005,
          "velocity": 1
        },
        {
          "duration": 0.08928562499999515,
          "durationTicks": 40,
          "midi": 65,
          "name": "F4",
          "ticks": 22464,
          "time": 50.142807000000005,
          "velocity": 1
        },
        {
          "duration": 0.03571424999999806,
          "durationTicks": 16,
          "midi": 72,
          "name": "C5",
          "ticks": 22592,
          "time": 50.428521,
          "velocity": 1
        },
        {
          "duration": 0.03571424999999806,
          "durationTicks": 16,
          "midi": 69,
          "name": "A4",
          "ticks": 22592,
          "time": 50.428521,
          "velocity": 1
        },
        {
          "duration": 0.01785712499999903,
          "durationTicks": 8,
          "midi": 65,
          "name": "F4",
          "ticks": 22592,
          "time": 50.428521,
          "velocity": 1
        },
        {
          "duration": 0.3035711249999977,
          "durationTicks": 136,
          "midi": 72,
          "name": "C5",
          "ticks": 22656,
          "time": 50.571378,
          "velocity": 1
        },
        {
          "duration": 0.32142825000000386,
          "durationTicks": 144,
          "midi": 69,
          "name": "A4",
          "ticks": 22656,
          "time": 50.571378,
          "velocity": 1
        },
        {
          "duration": 0.3035711249999977,
          "durationTicks": 136,
          "midi": 65,
          "name": "F4",
          "ticks": 22656,
          "time": 50.571378,
          "velocity": 1
        },
        {
          "duration": 0.3392853750000029,
          "durationTicks": 152,
          "midi": 65,
          "name": "F4",
          "ticks": 22848,
          "time": 50.999949,
          "velocity": 1
        },
        {
          "duration": 0.3571425000000019,
          "durationTicks": 160,
          "midi": 72,
          "name": "C5",
          "ticks": 22848,
          "time": 50.999949,
          "velocity": 1
        },
        {
          "duration": 0.3392853750000029,
          "durationTicks": 152,
          "midi": 69,
          "name": "A4",
          "ticks": 22848,
          "time": 50.999949,
          "velocity": 1
        },
        {
          "duration": 0.32142824999999675,
          "durationTicks": 144,
          "midi": 72,
          "name": "C5",
          "ticks": 33024,
          "time": 73.714212,
          "velocity": 0.8110236220472441
        },
        {
          "duration": 0.32142824999999675,
          "durationTicks": 144,
          "midi": 68,
          "name": "G#4",
          "ticks": 33024,
          "time": 73.714212,
          "velocity": 0.8110236220472441
        },
        {
          "duration": 0.32142824999999675,
          "durationTicks": 144,
          "midi": 72,
          "name": "C5",
          "ticks": 33216,
          "time": 74.14278300000001,
          "velocity": 0.8110236220472441
        },
        {
          "duration": 0.3035711250000048,
          "durationTicks": 136,
          "midi": 68,
          "name": "G#4",
          "ticks": 33216,
          "time": 74.14278300000001,
          "velocity": 0.8110236220472441
        },
        {
          "duration": 0.26785687500000677,
          "durationTicks": 120,
          "midi": 72,
          "name": "C5",
          "ticks": 33408,
          "time": 74.571354,
          "velocity": 0.8110236220472441
        },
        {
          "duration": 0.26785687500000677,
          "durationTicks": 120,
          "midi": 68,
          "name": "G#4",
          "ticks": 33408,
          "time": 74.571354,
          "velocity": 0.8110236220472441
        },
        {
          "duration": 0.2857139999999987,
          "durationTicks": 128,
          "midi": 72,
          "name": "C5",
          "ticks": 33600,
          "time": 74.999925,
          "velocity": 0.8110236220472441
        },
        {
          "duration": 0.26785687500000677,
          "durationTicks": 120,
          "midi": 68,
          "name": "G#4",
          "ticks": 33600,
          "time": 74.999925,
          "velocity": 0.8110236220472441
        },
        {
          "duration": 0.26785687499999256,
          "durationTicks": 120,
          "midi": 72,
          "name": "C5",
          "ticks": 33792,
          "time": 75.42849600000001,
          "velocity": 0.8110236220472441
        },
        {
          "duration": 0.26785687499999256,
          "durationTicks": 120,
          "midi": 68,
          "name": "G#4",
          "ticks": 33792,
          "time": 75.42849600000001,
          "velocity": 0.8110236220472441
        },
        {
          "duration": 0.26785687500000677,
          "durationTicks": 120,
          "midi": 72,
          "name": "C5",
          "ticks": 33984,
          "time": 75.857067,
          "velocity": 0.8110236220472441
        },
        {
          "duration": 0.24999975000001484,
          "durationTicks": 112,
          "midi": 68,
          "name": "G#4",
          "ticks": 33984,
          "time": 75.857067,
          "velocity": 0.8110236220472441
        },
        {
          "duration": 0.26785687500000677,
          "durationTicks": 120,
          "midi": 72,
          "name": "C5",
          "ticks": 34176,
          "time": 76.285638,
          "velocity": 0.8110236220472441
        },
        {
          "duration": 0.24999975000000063,
          "durationTicks": 112,
          "midi": 68,
          "name": "G#4",
          "ticks": 34176,
          "time": 76.285638,
          "velocity": 0.8110236220472441
        },
        {
          "duration": 0.2857139999999845,
          "durationTicks": 128,
          "midi": 72,
          "name": "C5",
          "ticks": 34368,
          "time": 76.71420900000001,
          "velocity": 0.8110236220472441
        },
        {
          "duration": 0.26785687499999256,
          "durationTicks": 120,
          "midi": 68,
          "name": "G#4",
          "ticks": 34368,
          "time": 76.71420900000001,
          "velocity": 0.8110236220472441
        },
        {
          "duration": 0.24999975000001484,
          "durationTicks": 112,
          "midi": 72,
          "name": "C5",
          "ticks": 34560,
          "time": 77.14278,
          "velocity": 0.8110236220472441
        },
        {
          "duration": 0.24999975000001484,
          "durationTicks": 112,
          "midi": 68,
          "name": "G#4",
          "ticks": 34560,
          "time": 77.14278,
          "velocity": 0.8110236220472441
        },
        {
          "duration": 0.3392853749999887,
          "durationTicks": 152,
          "midi": 61,
          "name": "C#4",
          "ticks": 42240,
          "time": 94.28562000000001,
          "velocity": 1
        },
        {
          "duration": 0.6249993750000016,
          "durationTicks": 280,
          "midi": 46,
          "name": "A#2",
          "ticks": 42240,
          "time": 94.28562000000001,
          "velocity": 1
        },
        {
          "duration": 0.3392853749999887,
          "durationTicks": 152,
          "midi": 65,
          "name": "F4",
          "ticks": 42240,
          "time": 94.28562000000001,
          "velocity": 1
        },
        {
          "duration": 0.3392853749999887,
          "durationTicks": 152,
          "midi": 58,
          "name": "A#3",
          "ticks": 42240,
          "time": 94.28562000000001,
          "velocity": 1
        },
        {
          "duration": 0.3392853749999887,
          "durationTicks": 152,
          "midi": 61,
          "name": "C#4",
          "ticks": 42432,
          "time": 94.71419100000001,
          "velocity": 1
        },
        {
          "duration": 0.3571424999999948,
          "durationTicks": 160,
          "midi": 58,
          "name": "A#3",
          "ticks": 42432,
          "time": 94.71419100000001,
          "velocity": 1
        },
        {
          "duration": 0.3571424999999948,
          "durationTicks": 160,
          "midi": 65,
          "name": "F4",
          "ticks": 42432,
          "time": 94.71419100000001,
          "velocity": 1
        },
        {
          "duration": 0.767856375000008,
          "durationTicks": 344,
          "midi": 46,
          "name": "A#2",
          "ticks": 42560,
          "time": 94.999905,
          "velocity": 1
        },
        {
          "duration": 0.32142824999999675,
          "durationTicks": 144,
          "midi": 61,
          "name": "C#4",
          "ticks": 42624,
          "time": 95.142762,
          "velocity": 1
        },
        {
          "duration": 0.32142824999999675,
          "durationTicks": 144,
          "midi": 58,
          "name": "A#3",
          "ticks": 42624,
          "time": 95.142762,
          "velocity": 1
        },
        {
          "duration": 0.32142824999999675,
          "durationTicks": 144,
          "midi": 65,
          "name": "F4",
          "ticks": 42624,
          "time": 95.142762,
          "velocity": 1
        },
        {
          "duration": 0.32142824999999675,
          "durationTicks": 144,
          "midi": 65,
          "name": "F4",
          "ticks": 42816,
          "time": 95.57133300000001,
          "velocity": 1
        },
        {
          "duration": 0.3392853749999887,
          "durationTicks": 152,
          "midi": 61,
          "name": "C#4",
          "ticks": 42816,
          "time": 95.57133300000001,
          "velocity": 1
        },
        {
          "duration": 0.3392853749999887,
          "durationTicks": 152,
          "midi": 58,
          "name": "A#3",
          "ticks": 42816,
          "time": 95.57133300000001,
          "velocity": 1
        },
        {
          "duration": 1.160713125000001,
          "durationTicks": 520,
          "midi": 46,
          "name": "A#2",
          "ticks": 42944,
          "time": 95.85704700000001,
          "velocity": 1
        },
        {
          "duration": 0.32142824999999675,
          "durationTicks": 144,
          "midi": 61,
          "name": "C#4",
          "ticks": 43008,
          "time": 95.99990400000002,
          "velocity": 1
        },
        {
          "duration": 0.3035711249999906,
          "durationTicks": 136,
          "midi": 65,
          "name": "F4",
          "ticks": 43008,
          "time": 95.99990400000002,
          "velocity": 1
        },
        {
          "duration": 0.3035711249999906,
          "durationTicks": 136,
          "midi": 58,
          "name": "A#3",
          "ticks": 43008,
          "time": 95.99990400000002,
          "velocity": 1
        },
        {
          "duration": 0.3035711250000048,
          "durationTicks": 136,
          "midi": 65,
          "name": "F4",
          "ticks": 43200,
          "time": 96.428475,
          "velocity": 1
        },
        {
          "duration": 0.3035711250000048,
          "durationTicks": 136,
          "midi": 61,
          "name": "C#4",
          "ticks": 43200,
          "time": 96.428475,
          "velocity": 1
        },
        {
          "duration": 0.32142824999999675,
          "durationTicks": 144,
          "midi": 58,
          "name": "A#3",
          "ticks": 43200,
          "time": 96.428475,
          "velocity": 1
        },
        {
          "duration": 0.32142824999999675,
          "durationTicks": 144,
          "midi": 61,
          "name": "C#4",
          "ticks": 43392,
          "time": 96.85704600000001,
          "velocity": 1
        },
        {
          "duration": 0.3035711250000048,
          "durationTicks": 136,
          "midi": 58,
          "name": "A#3",
          "ticks": 43392,
          "time": 96.85704600000001,
          "velocity": 1
        },
        {
          "duration": 0.3035711250000048,
          "durationTicks": 136,
          "midi": 65,
          "name": "F4",
          "ticks": 43392,
          "time": 96.85704600000001,
          "velocity": 1
        },
        {
          "duration": 0.3392853750000029,
          "durationTicks": 152,
          "midi": 46,
          "name": "A#2",
          "ticks": 43520,
          "time": 97.14276000000001,
          "velocity": 1
        },
        {
          "duration": 0.07142849999999612,
          "durationTicks": 32,
          "midi": 61,
          "name": "C#4",
          "ticks": 43584,
          "time": 97.285617,
          "velocity": 1
        },
        {
          "duration": 0.07142849999999612,
          "durationTicks": 32,
          "midi": 65,
          "name": "F4",
          "ticks": 43584,
          "time": 97.285617,
          "velocity": 1
        },
        {
          "duration": 0.07142849999999612,
          "durationTicks": 32,
          "midi": 58,
          "name": "A#3",
          "ticks": 43584,
          "time": 97.285617,
          "velocity": 1
        },
        {
          "duration": 0.1785712500000045,
          "durationTicks": 80,
          "midi": 61,
          "name": "C#4",
          "ticks": 43648,
          "time": 97.42847400000001,
          "velocity": 1
        },
        {
          "duration": 0.16071412499999838,
          "durationTicks": 72,
          "midi": 65,
          "name": "F4",
          "ticks": 43648,
          "time": 97.42847400000001,
          "velocity": 1
        },
        {
          "duration": 0.1785712500000045,
          "durationTicks": 80,
          "midi": 58,
          "name": "A#3",
          "ticks": 43648,
          "time": 97.42847400000001,
          "velocity": 1
        },
        {
          "duration": 1.160713125000001,
          "durationTicks": 520,
          "midi": 44,
          "name": "G#2",
          "ticks": 43712,
          "time": 97.571331,
          "velocity": 1
        },
        {
          "duration": 0.3035711250000048,
          "durationTicks": 136,
          "midi": 60,
          "name": "C4",
          "ticks": 43776,
          "time": 97.71418800000001,
          "velocity": 1
        },
        {
          "duration": 0.3035711250000048,
          "durationTicks": 136,
          "midi": 56,
          "name": "G#3",
          "ticks": 43776,
          "time": 97.71418800000001,
          "velocity": 1
        },
        {
          "duration": 0.2857139999999987,
          "durationTicks": 128,
          "midi": 63,
          "name": "D#4",
          "ticks": 43776,
          "time": 97.71418800000001,
          "velocity": 1
        },
        {
          "duration": 0.3035711250000048,
          "durationTicks": 136,
          "midi": 63,
          "name": "D#4",
          "ticks": 43968,
          "time": 98.14275900000001,
          "velocity": 1
        },
        {
          "duration": 0.3035711250000048,
          "durationTicks": 136,
          "midi": 56,
          "name": "G#3",
          "ticks": 43968,
          "time": 98.14275900000001,
          "velocity": 1
        },
        {
          "duration": 0.3035711250000048,
          "durationTicks": 136,
          "midi": 60,
          "name": "C4",
          "ticks": 43968,
          "time": 98.14275900000001,
          "velocity": 1
        },
        {
          "duration": 0.3035711250000048,
          "durationTicks": 136,
          "midi": 56,
          "name": "G#3",
          "ticks": 44160,
          "time": 98.57133,
          "velocity": 1
        },
        {
          "duration": 0.3035711250000048,
          "durationTicks": 136,
          "midi": 63,
          "name": "D#4",
          "ticks": 44160,
          "time": 98.57133,
          "velocity": 1
        },
        {
          "duration": 0.3035711250000048,
          "durationTicks": 136,
          "midi": 60,
          "name": "C4",
          "ticks": 44160,
          "time": 98.57133,
          "velocity": 1
        },
        {
          "duration": 0.24999975000000063,
          "durationTicks": 112,
          "midi": 44,
          "name": "G#2",
          "ticks": 44288,
          "time": 98.857044,
          "velocity": 1
        },
        {
          "duration": 0.3035711250000048,
          "durationTicks": 136,
          "midi": 60,
          "name": "C4",
          "ticks": 44352,
          "time": 98.99990100000001,
          "velocity": 1
        },
        {
          "duration": 0.3035711250000048,
          "durationTicks": 136,
          "midi": 56,
          "name": "G#3",
          "ticks": 44352,
          "time": 98.99990100000001,
          "velocity": 1
        },
        {
          "duration": 0.32142824999999675,
          "durationTicks": 144,
          "midi": 63,
          "name": "D#4",
          "ticks": 44352,
          "time": 98.99990100000001,
          "velocity": 1
        },
        {
          "duration": 0.1785712500000045,
          "durationTicks": 80,
          "midi": 44,
          "name": "G#2",
          "ticks": 44480,
          "time": 99.285615,
          "velocity": 1
        },
        {
          "duration": 0.2857139999999845,
          "durationTicks": 128,
          "midi": 58,
          "name": "A#3",
          "ticks": 44544,
          "time": 99.42847200000001,
          "velocity": 1
        },
        {
          "duration": 0.3035711250000048,
          "durationTicks": 136,
          "midi": 65,
          "name": "F4",
          "ticks": 44544,
          "time": 99.42847200000001,
          "velocity": 1
        },
        {
          "duration": 1.0178561249999944,
          "durationTicks": 456,
          "midi": 46,
          "name": "A#2",
          "ticks": 44544,
          "time": 99.42847200000001,
          "velocity": 1
        },
        {
          "duration": 0.3035711250000048,
          "durationTicks": 136,
          "midi": 61,
          "name": "C#4",
          "ticks": 44544,
          "time": 99.42847200000001,
          "velocity": 1
        },
        {
          "duration": 0.3035711250000048,
          "durationTicks": 136,
          "midi": 65,
          "name": "F4",
          "ticks": 44736,
          "time": 99.857043,
          "velocity": 1
        },
        {
          "duration": 0.3035711250000048,
          "durationTicks": 136,
          "midi": 61,
          "name": "C#4",
          "ticks": 44736,
          "time": 99.857043,
          "velocity": 1
        },
        {
          "duration": 0.3035711250000048,
          "durationTicks": 136,
          "midi": 58,
          "name": "A#3",
          "ticks": 44736,
          "time": 99.857043,
          "velocity": 1
        },
        {
          "duration": 0.3035711250000048,
          "durationTicks": 136,
          "midi": 58,
          "name": "A#3",
          "ticks": 44928,
          "time": 100.28561400000001,
          "velocity": 1
        },
        {
          "duration": 0.32142824999999675,
          "durationTicks": 144,
          "midi": 65,
          "name": "F4",
          "ticks": 44928,
          "time": 100.28561400000001,
          "velocity": 1
        },
        {
          "duration": 0.32142824999999675,
          "durationTicks": 144,
          "midi": 61,
          "name": "C#4",
          "ticks": 44928,
          "time": 100.28561400000001,
          "velocity": 1
        },
        {
          "duration": 0.24999975000000063,
          "durationTicks": 112,
          "midi": 46,
          "name": "A#2",
          "ticks": 45056,
          "time": 100.57132800000001,
          "velocity": 1
        },
        {
          "duration": 0.32142824999999675,
          "durationTicks": 144,
          "midi": 61,
          "name": "C#4",
          "ticks": 45120,
          "time": 100.71418500000001,
          "velocity": 1
        },
        {
          "duration": 0.32142824999999675,
          "durationTicks": 144,
          "midi": 65,
          "name": "F4",
          "ticks": 45120,
          "time": 100.71418500000001,
          "velocity": 1
        },
        {
          "duration": 0.3035711249999906,
          "durationTicks": 136,
          "midi": 58,
          "name": "A#3",
          "ticks": 45120,
          "time": 100.71418500000001,
          "velocity": 1
        },
        {
          "duration": 1.6428555000000102,
          "durationTicks": 736,
          "midi": 46,
          "name": "A#2",
          "ticks": 45248,
          "time": 100.999899,
          "velocity": 1
        },
        {
          "duration": 0.357142500000009,
          "durationTicks": 160,
          "midi": 61,
          "name": "C#4",
          "ticks": 45312,
          "time": 101.142756,
          "velocity": 1
        },
        {
          "duration": 0.3392853750000029,
          "durationTicks": 152,
          "midi": 65,
          "name": "F4",
          "ticks": 45312,
          "time": 101.142756,
          "velocity": 1
        },
        {
          "duration": 0.357142500000009,
          "durationTicks": 160,
          "midi": 58,
          "name": "A#3",
          "ticks": 45312,
          "time": 101.142756,
          "velocity": 1
        },
        {
          "duration": 0.3392853749999887,
          "durationTicks": 152,
          "midi": 61,
          "name": "C#4",
          "ticks": 45504,
          "time": 101.57132700000001,
          "velocity": 1
        },
        {
          "duration": 0.32142824999999675,
          "durationTicks": 144,
          "midi": 58,
          "name": "A#3",
          "ticks": 45504,
          "time": 101.57132700000001,
          "velocity": 1
        },
        {
          "duration": 0.32142824999999675,
          "durationTicks": 144,
          "midi": 65,
          "name": "F4",
          "ticks": 45504,
          "time": 101.57132700000001,
          "velocity": 1
        },
        {
          "duration": 0.357142500000009,
          "durationTicks": 160,
          "midi": 61,
          "name": "C#4",
          "ticks": 45696,
          "time": 101.999898,
          "velocity": 1
        },
        {
          "duration": 0.3392853750000029,
          "durationTicks": 152,
          "midi": 58,
          "name": "A#3",
          "ticks": 45696,
          "time": 101.999898,
          "velocity": 1
        },
        {
          "duration": 0.32142825000001096,
          "durationTicks": 144,
          "midi": 65,
          "name": "F4",
          "ticks": 45696,
          "time": 101.999898,
          "velocity": 1
        },
        {
          "duration": 0.32142824999999675,
          "durationTicks": 144,
          "midi": 61,
          "name": "C#4",
          "ticks": 45888,
          "time": 102.428469,
          "velocity": 1
        },
        {
          "duration": 0.32142824999999675,
          "durationTicks": 144,
          "midi": 58,
          "name": "A#3",
          "ticks": 45888,
          "time": 102.428469,
          "velocity": 1
        },
        {
          "duration": 0.32142824999999675,
          "durationTicks": 144,
          "midi": 65,
          "name": "F4",
          "ticks": 45888,
          "time": 102.428469,
          "velocity": 1
        },
        {
          "duration": 1.5714270000000141,
          "durationTicks": 704,
          "midi": 46,
          "name": "A#2",
          "ticks": 46016,
          "time": 102.714183,
          "velocity": 1
        },
        {
          "duration": 0.3392853749999887,
          "durationTicks": 152,
          "midi": 61,
          "name": "C#4",
          "ticks": 46080,
          "time": 102.85704000000001,
          "velocity": 1
        },
        {
          "duration": 0.3392853749999887,
          "durationTicks": 152,
          "midi": 58,
          "name": "A#3",
          "ticks": 46080,
          "time": 102.85704000000001,
          "velocity": 1
        },
        {
          "duration": 0.32142824999999675,
          "durationTicks": 144,
          "midi": 65,
          "name": "F4",
          "ticks": 46080,
          "time": 102.85704000000001,
          "velocity": 1
        },
        {
          "duration": 0.32142825000001096,
          "durationTicks": 144,
          "midi": 61,
          "name": "C#4",
          "ticks": 46272,
          "time": 103.285611,
          "velocity": 1
        },
        {
          "duration": 0.32142825000001096,
          "durationTicks": 144,
          "midi": 58,
          "name": "A#3",
          "ticks": 46272,
          "time": 103.285611,
          "velocity": 1
        },
        {
          "duration": 0.3035711250000048,
          "durationTicks": 136,
          "midi": 65,
          "name": "F4",
          "ticks": 46272,
          "time": 103.285611,
          "velocity": 1
        },
        {
          "duration": 0.3035711250000048,
          "durationTicks": 136,
          "midi": 61,
          "name": "C#4",
          "ticks": 46464,
          "time": 103.71418200000001,
          "velocity": 1
        },
        {
          "duration": 0.2857139999999987,
          "durationTicks": 128,
          "midi": 65,
          "name": "F4",
          "ticks": 46464,
          "time": 103.71418200000001,
          "velocity": 1
        },
        {
          "duration": 0.3035711250000048,
          "durationTicks": 136,
          "midi": 58,
          "name": "A#3",
          "ticks": 46464,
          "time": 103.71418200000001,
          "velocity": 1
        },
        {
          "duration": 0.26785687499999256,
          "durationTicks": 120,
          "midi": 61,
          "name": "C#4",
          "ticks": 46656,
          "time": 104.14275300000001,
          "velocity": 1
        },
        {
          "duration": 0.24999975000000063,
          "durationTicks": 112,
          "midi": 58,
          "name": "A#3",
          "ticks": 46656,
          "time": 104.14275300000001,
          "velocity": 1
        },
        {
          "duration": 0.26785687499999256,
          "durationTicks": 120,
          "midi": 65,
          "name": "F4",
          "ticks": 46656,
          "time": 104.14275300000001,
          "velocity": 1
        },
        {
          "duration": 0.12499987500001453,
          "durationTicks": 56,
          "midi": 46,
          "name": "A#2",
          "ticks": 46784,
          "time": 104.428467,
          "velocity": 1
        },
        {
          "duration": 1.2499987500000032,
          "durationTicks": 560,
          "midi": 41,
          "name": "F2",
          "ticks": 46848,
          "time": 104.571324,
          "velocity": 1
        },
        {
          "duration": 1.6607126250000022,
          "durationTicks": 744,
          "midi": 72,
          "name": "C5",
          "ticks": 46848,
          "time": 104.571324,
          "velocity": 1
        },
        {
          "duration": 1.6607126250000022,
          "durationTicks": 744,
          "midi": 65,
          "name": "F4",
          "ticks": 46848,
          "time": 104.571324,
          "velocity": 1
        },
        {
          "duration": 1.678569749999994,
          "durationTicks": 752,
          "midi": 69,
          "name": "A4",
          "ticks": 46848,
          "time": 104.571324,
          "velocity": 1
        },
        {
          "duration": 2.0892836250000073,
          "durationTicks": 936,
          "midi": 41,
          "name": "F2",
          "ticks": 47424,
          "time": 105.857037,
          "velocity": 1
        },
        {
          "duration": 0.14285700000000645,
          "durationTicks": 64,
          "midi": 69,
          "name": "A4",
          "ticks": 47616,
          "time": 106.28560800000001,
          "velocity": 1
        },
        {
          "duration": 0.14285700000000645,
          "durationTicks": 64,
          "midi": 65,
          "name": "F4",
          "ticks": 47616,
          "time": 106.28560800000001,
          "velocity": 1
        },
        {
          "duration": 0.14285700000000645,
          "durationTicks": 64,
          "midi": 72,
          "name": "C5",
          "ticks": 47616,
          "time": 106.28560800000001,
          "velocity": 1
        },
        {
          "duration": 0.03571424999999806,
          "durationTicks": 16,
          "midi": 72,
          "name": "C5",
          "ticks": 47744,
          "time": 106.57132200000001,
          "velocity": 1
        },
        {
          "duration": 0.053571374999989985,
          "durationTicks": 24,
          "midi": 69,
          "name": "A4",
          "ticks": 47744,
          "time": 106.57132200000001,
          "velocity": 1
        },
        {
          "duration": 0.03571424999999806,
          "durationTicks": 16,
          "midi": 65,
          "name": "F4",
          "ticks": 47744,
          "time": 106.57132200000001,
          "velocity": 1
        },
        {
          "duration": 0.10714274999999418,
          "durationTicks": 48,
          "midi": 72,
          "name": "C5",
          "ticks": 47808,
          "time": 106.71417900000002,
          "velocity": 1
        },
        {
          "duration": 0.10714274999999418,
          "durationTicks": 48,
          "midi": 69,
          "name": "A4",
          "ticks": 47808,
          "time": 106.71417900000002,
          "velocity": 1
        },
        {
          "duration": 0.08928562500000226,
          "durationTicks": 40,
          "midi": 65,
          "name": "F4",
          "ticks": 47808,
          "time": 106.71417900000002,
          "velocity": 1
        },
        {
          "duration": 0.03571425000001227,
          "durationTicks": 16,
          "midi": 72,
          "name": "C5",
          "ticks": 47936,
          "time": 106.999893,
          "velocity": 1
        },
        {
          "duration": 0.03571425000001227,
          "durationTicks": 16,
          "midi": 69,
          "name": "A4",
          "ticks": 47936,
          "time": 106.999893,
          "velocity": 1
        },
        {
          "duration": 0.017857125000006135,
          "durationTicks": 8,
          "midi": 65,
          "name": "F4",
          "ticks": 47936,
          "time": 106.999893,
          "velocity": 1
        },
        {
          "duration": 0.3035711250000048,
          "durationTicks": 136,
          "midi": 72,
          "name": "C5",
          "ticks": 48000,
          "time": 107.14275,
          "velocity": 1
        },
        {
          "duration": 0.32142824999999675,
          "durationTicks": 144,
          "midi": 69,
          "name": "A4",
          "ticks": 48000,
          "time": 107.14275,
          "velocity": 1
        },
        {
          "duration": 0.3035711250000048,
          "durationTicks": 136,
          "midi": 65,
          "name": "F4",
          "ticks": 48000,
          "time": 107.14275,
          "velocity": 1
        },
        {
          "duration": 0.3392853749999887,
          "durationTicks": 152,
          "midi": 65,
          "name": "F4",
          "ticks": 48192,
          "time": 107.57132100000001,
          "velocity": 1
        },
        {
          "duration": 0.3571424999999948,
          "durationTicks": 160,
          "midi": 72,
          "name": "C5",
          "ticks": 48192,
          "time": 107.57132100000001,
          "velocity": 1
        },
        {
          "duration": 0.3392853749999887,
          "durationTicks": 152,
          "midi": 69,
          "name": "A4",
          "ticks": 48192,
          "time": 107.57132100000001,
          "velocity": 1
        },
        {
          "duration": 0.32142824999999675,
          "durationTicks": 144,
          "midi": 72,
          "name": "C5",
          "ticks": 58368,
          "time": 130.285584,
          "velocity": 0.47244094488188976
        },
        {
          "duration": 0.32142824999999675,
          "durationTicks": 144,
          "midi": 68,
          "name": "G#4",
          "ticks": 58368,
          "time": 130.285584,
          "velocity": 0.8110236220472441
        },
        {
          "duration": 0.32142824999999675,
          "durationTicks": 144,
          "midi": 72,
          "name": "C5",
          "ticks": 58560,
          "time": 130.714155,
          "velocity": 0.8110236220472441
        },
        {
          "duration": 0.3035711249999906,
          "durationTicks": 136,
          "midi": 68,
          "name": "G#4",
          "ticks": 58560,
          "time": 130.714155,
          "velocity": 0.8110236220472441
        },
        {
          "duration": 0.26785687500000677,
          "durationTicks": 120,
          "midi": 72,
          "name": "C5",
          "ticks": 58752,
          "time": 131.142726,
          "velocity": 0.8110236220472441
        },
        {
          "duration": 0.26785687500000677,
          "durationTicks": 120,
          "midi": 68,
          "name": "G#4",
          "ticks": 58752,
          "time": 131.142726,
          "velocity": 0.8110236220472441
        },
        {
          "duration": 0.2857140000000129,
          "durationTicks": 128,
          "midi": 72,
          "name": "C5",
          "ticks": 58944,
          "time": 131.57129700000002,
          "velocity": 0.8110236220472441
        },
        {
          "duration": 0.26785687500000677,
          "durationTicks": 120,
          "midi": 68,
          "name": "G#4",
          "ticks": 58944,
          "time": 131.57129700000002,
          "velocity": 0.8110236220472441
        },
        {
          "duration": 0.26785687499997834,
          "durationTicks": 120,
          "midi": 72,
          "name": "C5",
          "ticks": 59136,
          "time": 131.99986800000002,
          "velocity": 0.8110236220472441
        },
        {
          "duration": 0.26785687499997834,
          "durationTicks": 120,
          "midi": 68,
          "name": "G#4",
          "ticks": 59136,
          "time": 131.99986800000002,
          "velocity": 0.8110236220472441
        },
        {
          "duration": 0.26785687500000677,
          "durationTicks": 120,
          "midi": 72,
          "name": "C5",
          "ticks": 59328,
          "time": 132.428439,
          "velocity": 0.8110236220472441
        },
        {
          "duration": 0.24999975000000063,
          "durationTicks": 112,
          "midi": 68,
          "name": "G#4",
          "ticks": 59328,
          "time": 132.428439,
          "velocity": 0.8110236220472441
        },
        {
          "duration": 0.26785687500000677,
          "durationTicks": 120,
          "midi": 72,
          "name": "C5",
          "ticks": 59520,
          "time": 132.85701,
          "velocity": 0.8110236220472441
        },
        {
          "duration": 0.24999975000000063,
          "durationTicks": 112,
          "midi": 68,
          "name": "G#4",
          "ticks": 59520,
          "time": 132.85701,
          "velocity": 0.8110236220472441
        },
        {
          "duration": 0.2857140000000129,
          "durationTicks": 128,
          "midi": 72,
          "name": "C5",
          "ticks": 59712,
          "time": 133.285581,
          "velocity": 0.8110236220472441
        },
        {
          "duration": 0.26785687500000677,
          "durationTicks": 120,
          "midi": 68,
          "name": "G#4",
          "ticks": 59712,
          "time": 133.285581,
          "velocity": 0.8110236220472441
        },
        {
          "duration": 0.24999975000000063,
          "durationTicks": 112,
          "midi": 72,
          "name": "C5",
          "ticks": 59904,
          "time": 133.714152,
          "velocity": 0.8110236220472441
        },
        {
          "duration": 0.24999975000000063,
          "durationTicks": 112,
          "midi": 68,
          "name": "G#4",
          "ticks": 59904,
          "time": 133.714152,
          "velocity": 0.8110236220472441
        },
        {
          "duration": 0.08928562500000226,
          "durationTicks": 40,
          "midi": 61,
          "name": "C#4",
          "ticks": 70016,
          "time": 156.285558,
          "velocity": 1
        },
        {
          "duration": 0.16071412499999838,
          "durationTicks": 72,
          "midi": 56,
          "name": "G#3",
          "ticks": 70080,
          "time": 156.428415,
          "velocity": 1
        },
        {
          "duration": 0.16071412499999838,
          "durationTicks": 72,
          "midi": 60,
          "name": "C4",
          "ticks": 70080,
          "time": 156.428415,
          "velocity": 1
        },
        {
          "duration": 0.17857125000003293,
          "durationTicks": 80,
          "midi": 63,
          "name": "D#4",
          "ticks": 70080,
          "time": 156.428415,
          "velocity": 1
        },
        {
          "duration": 0.26785687500000677,
          "durationTicks": 120,
          "midi": 68,
          "name": "G#4",
          "ticks": 70272,
          "time": 156.856986,
          "velocity": 1
        },
        {
          "duration": 0.23214262500002292,
          "durationTicks": 104,
          "midi": 65,
          "name": "F4",
          "ticks": 70272,
          "time": 156.856986,
          "velocity": 1
        },
        {
          "duration": 0.24999975000000063,
          "durationTicks": 112,
          "midi": 61,
          "name": "C#4",
          "ticks": 70272,
          "time": 156.856986,
          "velocity": 1
        }
      ],
      "endOfTrackTicks": 70392
    },
    {
      "channel": 6,
      "controlChanges": {
        "7": [
          {
            "number": 7,
            "ticks": 0,
            "time": 0,
            "value": 0.9763779527559056
          },
          {
            "number": 7,
            "ticks": 20704,
            "time": 46.214239500000005,
            "value": 0.968503937007874
          },
          {
            "number": 7,
            "ticks": 20792,
            "time": 46.41066787500001,
            "value": 0.9606299212598425
          },
          {
            "number": 7,
            "ticks": 20808,
            "time": 46.44638212500001,
            "value": 0.937007874015748
          },
          {
            "number": 7,
            "ticks": 20824,
            "time": 46.482096375000005,
            "value": 0.9212598425196851
          },
          {
            "number": 7,
            "ticks": 20848,
            "time": 46.53566775,
            "value": 0.9133858267716536
          },
          {
            "number": 7,
            "ticks": 20872,
            "time": 46.589239125,
            "value": 0.905511811023622
          },
          {
            "number": 7,
            "ticks": 20904,
            "time": 46.660667625,
            "value": 0.8976377952755905
          },
          {
            "number": 7,
            "ticks": 20952,
            "time": 46.767810375,
            "value": 0.8818897637795275
          },
          {
            "number": 7,
            "ticks": 21000,
            "time": 46.874953125000005,
            "value": 0.8740157480314961
          },
          {
            "number": 7,
            "ticks": 21040,
            "time": 46.96423875,
            "value": 0.8661417322834646
          },
          {
            "number": 7,
            "ticks": 21192,
            "time": 47.303524125,
            "value": 0.8582677165354331
          },
          {
            "number": 7,
            "ticks": 21264,
            "time": 47.46423825,
            "value": 0.84251968503937
          },
          {
            "number": 7,
            "ticks": 21360,
            "time": 47.678523750000004,
            "value": 0.8346456692913385
          },
          {
            "number": 7,
            "ticks": 21392,
            "time": 47.74995225000001,
            "value": 0.8188976377952756
          },
          {
            "number": 7,
            "ticks": 21440,
            "time": 47.85709500000001,
            "value": 0.8110236220472441
          },
          {
            "number": 7,
            "ticks": 23256,
            "time": 51.910662375,
            "value": 0.8031496062992126
          },
          {
            "number": 7,
            "ticks": 23264,
            "time": 51.92851950000001,
            "value": 0.7795275590551181
          },
          {
            "number": 7,
            "ticks": 23280,
            "time": 51.964233750000005,
            "value": 0.7716535433070866
          },
          {
            "number": 7,
            "ticks": 23320,
            "time": 52.053519375,
            "value": 0.7637795275590551
          },
          {
            "number": 7,
            "ticks": 23352,
            "time": 52.124947875000004,
            "value": 0.7559055118110236
          },
          {
            "number": 7,
            "ticks": 23376,
            "time": 52.17851925,
            "value": 0.7401574803149606
          },
          {
            "number": 7,
            "ticks": 23400,
            "time": 52.232090625000005,
            "value": 0.7322834645669292
          },
          {
            "number": 7,
            "ticks": 23432,
            "time": 52.30351912500001,
            "value": 0.7244094488188977
          },
          {
            "number": 7,
            "ticks": 23472,
            "time": 52.39280475,
            "value": 0.7165354330708661
          },
          {
            "number": 7,
            "ticks": 23496,
            "time": 52.44637612500001,
            "value": 0.7086614173228346
          },
          {
            "number": 7,
            "ticks": 23512,
            "time": 52.482090375000006,
            "value": 0.7007874015748031
          },
          {
            "number": 7,
            "ticks": 23552,
            "time": 52.57137600000001,
            "value": 0.6929133858267716
          },
          {
            "number": 7,
            "ticks": 23576,
            "time": 52.624947375000005,
            "value": 0.6771653543307087
          },
          {
            "number": 7,
            "ticks": 23592,
            "time": 52.660661625,
            "value": 0.6692913385826772
          },
          {
            "number": 7,
            "ticks": 23608,
            "time": 52.696375875,
            "value": 0.6614173228346457
          },
          {
            "number": 7,
            "ticks": 23616,
            "time": 52.71423300000001,
            "value": 0.6535433070866141
          },
          {
            "number": 7,
            "ticks": 23640,
            "time": 52.767804375000004,
            "value": 0.6377952755905512
          },
          {
            "number": 7,
            "ticks": 23648,
            "time": 52.7856615,
            "value": 0.6299212598425197
          },
          {
            "number": 7,
            "ticks": 23672,
            "time": 52.83923287500001,
            "value": 0.6220472440944882
          },
          {
            "number": 7,
            "ticks": 23704,
            "time": 52.910661375000004,
            "value": 0.6141732283464567
          },
          {
            "number": 7,
            "ticks": 23720,
            "time": 52.94637562500001,
            "value": 0.6062992125984252
          },
          {
            "number": 7,
            "ticks": 23744,
            "time": 52.999947000000006,
            "value": 0.5984251968503937
          },
          {
            "number": 7,
            "ticks": 23760,
            "time": 53.035661250000004,
            "value": 0.5905511811023622
          },
          {
            "number": 7,
            "ticks": 23776,
            "time": 53.0713755,
            "value": 0.5748031496062992
          },
          {
            "number": 7,
            "ticks": 23808,
            "time": 53.142804000000005,
            "value": 0.5669291338582677
          },
          {
            "number": 7,
            "ticks": 23832,
            "time": 53.196375375,
            "value": 0.5590551181102362
          },
          {
            "number": 7,
            "ticks": 23840,
            "time": 53.21423250000001,
            "value": 0.5511811023622047
          },
          {
            "number": 7,
            "ticks": 23856,
            "time": 53.24994675000001,
            "value": 0.5354330708661418
          },
          {
            "number": 7,
            "ticks": 23880,
            "time": 53.303518125000004,
            "value": 0.5275590551181102
          },
          {
            "number": 7,
            "ticks": 23904,
            "time": 53.35708950000001,
            "value": 0.5196850393700787
          },
          {
            "number": 7,
            "ticks": 23920,
            "time": 53.392803750000006,
            "value": 0.5118110236220472
          },
          {
            "number": 7,
            "ticks": 23944,
            "time": 53.446375125,
            "value": 0.5039370078740157
          },
          {
            "number": 7,
            "ticks": 23976,
            "time": 53.517803625000006,
            "value": 0.49606299212598426
          },
          {
            "number": 7,
            "ticks": 23984,
            "time": 53.535660750000005,
            "value": 0.4881889763779528
          },
          {
            "number": 7,
            "ticks": 24008,
            "time": 53.58923212500001,
            "value": 0.47244094488188976
          },
          {
            "number": 7,
            "ticks": 24024,
            "time": 53.62494637500001,
            "value": 0.4645669291338583
          },
          {
            "number": 7,
            "ticks": 24056,
            "time": 53.696374875000004,
            "value": 0.4566929133858268
          },
          {
            "number": 7,
            "ticks": 24064,
            "time": 53.714232,
            "value": 0.44881889763779526
          },
          {
            "number": 7,
            "ticks": 24072,
            "time": 53.732089125,
            "value": 0.4330708661417323
          },
          {
            "number": 7,
            "ticks": 24104,
            "time": 53.803517625000005,
            "value": 0.4251968503937008
          },
          {
            "number": 7,
            "ticks": 24136,
            "time": 53.874946125,
            "value": 0.41732283464566927
          },
          {
            "number": 7,
            "ticks": 24152,
            "time": 53.910660375000006,
            "value": 0.4094488188976378
          },
          {
            "number": 7,
            "ticks": 24176,
            "time": 53.96423175,
            "value": 0.3937007874015748
          },
          {
            "number": 7,
            "ticks": 24208,
            "time": 54.03566025,
            "value": 0.3858267716535433
          },
          {
            "number": 7,
            "ticks": 24224,
            "time": 54.071374500000005,
            "value": 0.3700787401574803
          },
          {
            "number": 7,
            "ticks": 24248,
            "time": 54.12494587500001,
            "value": 0.36220472440944884
          },
          {
            "number": 7,
            "ticks": 24264,
            "time": 54.16066012500001,
            "value": 0.3543307086614173
          },
          {
            "number": 7,
            "ticks": 24296,
            "time": 54.23208862500001,
            "value": 0.3464566929133858
          },
          {
            "number": 7,
            "ticks": 24328,
            "time": 54.303517125,
            "value": 0.33070866141732286
          },
          {
            "number": 7,
            "ticks": 24496,
            "time": 54.67851675,
            "value": 0.36220472440944884
          },
          {
            "number": 7,
            "ticks": 24504,
            "time": 54.696373875000006,
            "value": 0.4645669291338583
          },
          {
            "number": 7,
            "ticks": 24520,
            "time": 54.732088125000004,
            "value": 0.47244094488188976
          },
          {
            "number": 7,
            "ticks": 24600,
            "time": 54.910659375,
            "value": 0.5039370078740157
          },
          {
            "number": 7,
            "ticks": 24608,
            "time": 54.9285165,
            "value": 0.5118110236220472
          },
          {
            "number": 7,
            "ticks": 24616,
            "time": 54.94637362500001,
            "value": 0.5354330708661418
          },
          {
            "number": 7,
            "ticks": 24632,
            "time": 54.982087875,
            "value": 0.5433070866141733
          },
          {
            "number": 7,
            "ticks": 24640,
            "time": 54.99994500000001,
            "value": 0.5511811023622047
          },
          {
            "number": 7,
            "ticks": 24656,
            "time": 55.03565925,
            "value": 0.5669291338582677
          },
          {
            "number": 7,
            "ticks": 24664,
            "time": 55.05351637500001,
            "value": 0.6377952755905512
          },
          {
            "number": 7,
            "ticks": 24680,
            "time": 55.089230625,
            "value": 0.6692913385826772
          },
          {
            "number": 7,
            "ticks": 24688,
            "time": 55.107087750000005,
            "value": 0.6929133858267716
          },
          {
            "number": 7,
            "ticks": 24696,
            "time": 55.124944875000004,
            "value": 0.7086614173228346
          },
          {
            "number": 7,
            "ticks": 24712,
            "time": 55.16065912500001,
            "value": 0.7322834645669292
          },
          {
            "number": 7,
            "ticks": 24720,
            "time": 55.17851625,
            "value": 0.7401574803149606
          },
          {
            "number": 7,
            "ticks": 24736,
            "time": 55.214230500000006,
            "value": 0.7716535433070866
          },
          {
            "number": 7,
            "ticks": 24744,
            "time": 55.232087625000005,
            "value": 0.7795275590551181
          },
          {
            "number": 7,
            "ticks": 24760,
            "time": 55.26780187500001,
            "value": 0.7874015748031497
          },
          {
            "number": 7,
            "ticks": 24768,
            "time": 55.285659,
            "value": 0.7952755905511811
          },
          {
            "number": 7,
            "ticks": 24776,
            "time": 55.303516125,
            "value": 0.8110236220472441
          },
          {
            "number": 7,
            "ticks": 24792,
            "time": 55.33923037500001,
            "value": 0.8188976377952756
          },
          {
            "number": 7,
            "ticks": 24808,
            "time": 55.37494462500001,
            "value": 0.8267716535433071
          },
          {
            "number": 7,
            "ticks": 24816,
            "time": 55.392801750000004,
            "value": 0.8346456692913385
          },
          {
            "number": 7,
            "ticks": 24824,
            "time": 55.410658875,
            "value": 0.8582677165354331
          },
          {
            "number": 7,
            "ticks": 24840,
            "time": 55.44637312500001,
            "value": 0.8740157480314961
          },
          {
            "number": 7,
            "ticks": 24848,
            "time": 55.46423025,
            "value": 0.8818897637795275
          },
          {
            "number": 7,
            "ticks": 24864,
            "time": 55.499944500000005,
            "value": 0.889763779527559
          },
          {
            "number": 7,
            "ticks": 24872,
            "time": 55.517801625,
            "value": 0.8976377952755905
          },
          {
            "number": 7,
            "ticks": 24896,
            "time": 55.571373,
            "value": 0.9133858267716536
          },
          {
            "number": 7,
            "ticks": 24944,
            "time": 55.67851575,
            "value": 0.9212598425196851
          },
          {
            "number": 7,
            "ticks": 24960,
            "time": 55.71423000000001,
            "value": 0.9291338582677166
          },
          {
            "number": 7,
            "ticks": 24984,
            "time": 55.767801375000005,
            "value": 0.937007874015748
          },
          {
            "number": 7,
            "ticks": 25016,
            "time": 55.839229875,
            "value": 0.9448818897637795
          },
          {
            "number": 7,
            "ticks": 52832,
            "time": 117.92845350000002,
            "value": 0.937007874015748
          },
          {
            "number": 7,
            "ticks": 52912,
            "time": 118.10702475000001,
            "value": 0.9448818897637795
          },
          {
            "number": 7,
            "ticks": 52920,
            "time": 118.12488187500001,
            "value": 0.9763779527559056
          },
          {
            "number": 7,
            "ticks": 52936,
            "time": 118.160596125,
            "value": 0.984251968503937
          },
          {
            "number": 7,
            "ticks": 52944,
            "time": 118.17845325,
            "value": 0.9921259842519685
          }
        ],
        "10": [
          {
            "number": 10,
            "ticks": 0,
            "time": 0,
            "value": 0.3779527559055118
          }
        ],
        "91": [
          {
            "number": 91,
            "ticks": 0,
            "time": 0,
            "value": 0.12598425196850394
          }
        ]
      },
      "pitchBends": [],
      "instrument": {
        "family": "ensemble",
        "number": 52,
        "name": "choir aahs"
      },
      "name": "Choir           ",
      "notes": [
        {
          "duration": 0.8571419999999961,
          "durationTicks": 384,
          "midi": 77,
          "name": "F5",
          "ticks": 17664,
          "time": 39.428532000000004,
          "velocity": 1
        },
        {
          "duration": 0.839284874999997,
          "durationTicks": 376,
          "midi": 65,
          "name": "F4",
          "ticks": 17664,
          "time": 39.428532000000004,
          "velocity": 0.5354330708661418
        },
        {
          "duration": 0.42857100000000514,
          "durationTicks": 192,
          "midi": 75,
          "name": "D#5",
          "ticks": 18048,
          "time": 40.285674,
          "velocity": 1
        },
        {
          "duration": 0.42857100000000514,
          "durationTicks": 192,
          "midi": 63,
          "name": "D#4",
          "ticks": 18048,
          "time": 40.285674,
          "velocity": 0.5354330708661418
        },
        {
          "duration": 0.4642852499999961,
          "durationTicks": 208,
          "midi": 73,
          "name": "C#5",
          "ticks": 18240,
          "time": 40.714245000000005,
          "velocity": 1
        },
        {
          "duration": 0.4642852499999961,
          "durationTicks": 208,
          "midi": 61,
          "name": "C#4",
          "ticks": 18240,
          "time": 40.714245000000005,
          "velocity": 0.5354330708661418
        },
        {
          "duration": 0.4464281250000042,
          "durationTicks": 200,
          "midi": 72,
          "name": "C5",
          "ticks": 18432,
          "time": 41.142816,
          "velocity": 1
        },
        {
          "duration": 0.4464281250000042,
          "durationTicks": 200,
          "midi": 60,
          "name": "C4",
          "ticks": 18432,
          "time": 41.142816,
          "velocity": 0.5354330708661418
        },
        {
          "duration": 0.42857100000000514,
          "durationTicks": 192,
          "midi": 68,
          "name": "G#4",
          "ticks": 18624,
          "time": 41.571387,
          "velocity": 1
        },
        {
          "duration": 0.48214237500000223,
          "durationTicks": 216,
          "midi": 56,
          "name": "G#3",
          "ticks": 18624,
          "time": 41.571387,
          "velocity": 0.5354330708661418
        },
        {
          "duration": 0.49999950000000126,
          "durationTicks": 224,
          "midi": 70,
          "name": "A#4",
          "ticks": 18816,
          "time": 41.99995800000001,
          "velocity": 1
        },
        {
          "duration": 0.49999949999999416,
          "durationTicks": 224,
          "midi": 58,
          "name": "A#3",
          "ticks": 18824,
          "time": 42.017815125000006,
          "velocity": 0.5354330708661418
        },
        {
          "duration": 0.48214237500000223,
          "durationTicks": 216,
          "midi": 72,
          "name": "C5",
          "ticks": 19016,
          "time": 42.446386125000004,
          "velocity": 1
        },
        {
          "duration": 0.4107138750000061,
          "durationTicks": 184,
          "midi": 60,
          "name": "C4",
          "ticks": 19024,
          "time": 42.46424325,
          "velocity": 0.5354330708661418
        },
        {
          "duration": 1.6785697500000012,
          "durationTicks": 752,
          "midi": 73,
          "name": "C#5",
          "ticks": 19200,
          "time": 42.8571,
          "velocity": 1
        },
        {
          "duration": 1.6607126250000022,
          "durationTicks": 744,
          "midi": 61,
          "name": "C#4",
          "ticks": 19200,
          "time": 42.8571,
          "velocity": 0.5354330708661418
        },
        {
          "duration": 0.4107138750000061,
          "durationTicks": 184,
          "midi": 70,
          "name": "A#4",
          "ticks": 20728,
          "time": 46.267810875,
          "velocity": 1
        },
        {
          "duration": 0.4464281250000042,
          "durationTicks": 200,
          "midi": 72,
          "name": "C5",
          "ticks": 20920,
          "time": 46.696381875,
          "velocity": 1
        },
        {
          "duration": 0.42857099999999804,
          "durationTicks": 192,
          "midi": 73,
          "name": "C#5",
          "ticks": 21120,
          "time": 47.142810000000004,
          "velocity": 1
        },
        {
          "duration": 0.4464281250000042,
          "durationTicks": 200,
          "midi": 70,
          "name": "A#4",
          "ticks": 21304,
          "time": 47.553523875,
          "velocity": 1
        },
        {
          "duration": 0.39285675,
          "durationTicks": 176,
          "midi": 68,
          "name": "G#4",
          "ticks": 21504,
          "time": 47.99995200000001,
          "velocity": 0.5354330708661418
        },
        {
          "duration": 0.39285674999999287,
          "durationTicks": 176,
          "midi": 72,
          "name": "C5",
          "ticks": 21512,
          "time": 48.01780912500001,
          "velocity": 1
        },
        {
          "duration": 0.42857099999999804,
          "durationTicks": 192,
          "midi": 70,
          "name": "A#4",
          "ticks": 21680,
          "time": 48.39280875000001,
          "velocity": 0.5354330708661418
        },
        {
          "duration": 0.42857099999999804,
          "durationTicks": 192,
          "midi": 73,
          "name": "C#5",
          "ticks": 21696,
          "time": 48.428523000000006,
          "velocity": 1
        },
        {
          "duration": 0.42857099999999804,
          "durationTicks": 192,
          "midi": 68,
          "name": "G#4",
          "ticks": 21880,
          "time": 48.839236875000005,
          "velocity": 0.5354330708661418
        },
        {
          "duration": 0.42857099999999804,
          "durationTicks": 192,
          "midi": 72,
          "name": "C5",
          "ticks": 21888,
          "time": 48.857094000000004,
          "velocity": 1
        },
        {
          "duration": 0.42857100000000514,
          "durationTicks": 192,
          "midi": 75,
          "name": "D#5",
          "ticks": 22080,
          "time": 49.285665,
          "velocity": 1
        },
        {
          "duration": 0.39285674999999287,
          "durationTicks": 176,
          "midi": 72,
          "name": "C5",
          "ticks": 22088,
          "time": 49.30352212500001,
          "velocity": 0.5354330708661418
        },
        {
          "duration": 0.42857099999999804,
          "durationTicks": 192,
          "midi": 72,
          "name": "C5",
          "ticks": 22272,
          "time": 49.71423600000001,
          "velocity": 1
        },
        {
          "duration": 0.37499962499999384,
          "durationTicks": 168,
          "midi": 68,
          "name": "G#4",
          "ticks": 22272,
          "time": 49.71423600000001,
          "velocity": 0.5354330708661418
        },
        {
          "duration": 0.39285674999999287,
          "durationTicks": 176,
          "midi": 70,
          "name": "A#4",
          "ticks": 22448,
          "time": 50.10709275000001,
          "velocity": 0.5354330708661418
        },
        {
          "duration": 0.4464281250000042,
          "durationTicks": 200,
          "midi": 73,
          "name": "C#5",
          "ticks": 22464,
          "time": 50.142807000000005,
          "velocity": 1
        },
        {
          "duration": 0.410713874999999,
          "durationTicks": 184,
          "midi": 68,
          "name": "G#4",
          "ticks": 22640,
          "time": 50.535663750000005,
          "velocity": 0.5354330708661418
        },
        {
          "duration": 0.4464281250000042,
          "durationTicks": 200,
          "midi": 72,
          "name": "C5",
          "ticks": 22656,
          "time": 50.571378,
          "velocity": 1
        },
        {
          "duration": 0.4464281250000042,
          "durationTicks": 200,
          "midi": 75,
          "name": "D#5",
          "ticks": 22840,
          "time": 50.982091875,
          "velocity": 1
        },
        {
          "duration": 0.37499962500000095,
          "durationTicks": 168,
          "midi": 72,
          "name": "C5",
          "ticks": 22848,
          "time": 50.999949,
          "velocity": 0.5354330708661418
        },
        {
          "duration": 2.3571405,
          "durationTicks": 1056,
          "midi": 73,
          "name": "C#5",
          "ticks": 23032,
          "time": 51.410662875,
          "velocity": 0.5354330708661418
        },
        {
          "duration": 2.1964263750000015,
          "durationTicks": 984,
          "midi": 77,
          "name": "F5",
          "ticks": 23040,
          "time": 51.428520000000006,
          "velocity": 1
        },
        {
          "duration": 0.410713874999999,
          "durationTicks": 184,
          "midi": 70,
          "name": "A#4",
          "ticks": 46072,
          "time": 102.839182875,
          "velocity": 1
        },
        {
          "duration": 0.44642812499999707,
          "durationTicks": 200,
          "midi": 72,
          "name": "C5",
          "ticks": 46264,
          "time": 103.26775387500001,
          "velocity": 1
        },
        {
          "duration": 0.42857100000000514,
          "durationTicks": 192,
          "midi": 73,
          "name": "C#5",
          "ticks": 46464,
          "time": 103.71418200000001,
          "velocity": 1
        },
        {
          "duration": 0.44642812499999707,
          "durationTicks": 200,
          "midi": 70,
          "name": "A#4",
          "ticks": 46648,
          "time": 104.124895875,
          "velocity": 1
        },
        {
          "duration": 0.3928567500000071,
          "durationTicks": 176,
          "midi": 68,
          "name": "G#4",
          "ticks": 46848,
          "time": 104.571324,
          "velocity": 0.5354330708661418
        },
        {
          "duration": 0.3928567500000071,
          "durationTicks": 176,
          "midi": 72,
          "name": "C5",
          "ticks": 46856,
          "time": 104.58918112500001,
          "velocity": 1
        },
        {
          "duration": 0.42857099999999093,
          "durationTicks": 192,
          "midi": 70,
          "name": "A#4",
          "ticks": 47024,
          "time": 104.96418075000001,
          "velocity": 0.5354330708661418
        },
        {
          "duration": 0.42857100000000514,
          "durationTicks": 192,
          "midi": 73,
          "name": "C#5",
          "ticks": 47040,
          "time": 104.99989500000001,
          "velocity": 1
        },
        {
          "duration": 0.42857100000000514,
          "durationTicks": 192,
          "midi": 68,
          "name": "G#4",
          "ticks": 47224,
          "time": 105.41060887500001,
          "velocity": 0.5354330708661418
        },
        {
          "duration": 0.42857099999999093,
          "durationTicks": 192,
          "midi": 72,
          "name": "C5",
          "ticks": 47232,
          "time": 105.42846600000001,
          "velocity": 1
        },
        {
          "duration": 0.42857100000000514,
          "durationTicks": 192,
          "midi": 75,
          "name": "D#5",
          "ticks": 47424,
          "time": 105.857037,
          "velocity": 1
        },
        {
          "duration": 0.3928567500000071,
          "durationTicks": 176,
          "midi": 72,
          "name": "C5",
          "ticks": 47432,
          "time": 105.87489412500001,
          "velocity": 0.5354330708661418
        },
        {
          "duration": 0.42857100000000514,
          "durationTicks": 192,
          "midi": 72,
          "name": "C5",
          "ticks": 47616,
          "time": 106.28560800000001,
          "velocity": 1
        },
        {
          "duration": 0.37499962500000095,
          "durationTicks": 168,
          "midi": 68,
          "name": "G#4",
          "ticks": 47616,
          "time": 106.28560800000001,
          "velocity": 0.5354330708661418
        },
        {
          "duration": 0.3928567500000071,
          "durationTicks": 176,
          "midi": 70,
          "name": "A#4",
          "ticks": 47792,
          "time": 106.67846475,
          "velocity": 0.5354330708661418
        },
        {
          "duration": 0.44642812499998286,
          "durationTicks": 200,
          "midi": 73,
          "name": "C#5",
          "ticks": 47808,
          "time": 106.71417900000002,
          "velocity": 1
        },
        {
          "duration": 0.410713874999999,
          "durationTicks": 184,
          "midi": 68,
          "name": "G#4",
          "ticks": 47984,
          "time": 107.10703575000001,
          "velocity": 0.5354330708661418
        },
        {
          "duration": 0.44642812499999707,
          "durationTicks": 200,
          "midi": 72,
          "name": "C5",
          "ticks": 48000,
          "time": 107.14275,
          "velocity": 1
        },
        {
          "duration": 0.44642812499998286,
          "durationTicks": 200,
          "midi": 75,
          "name": "D#5",
          "ticks": 48184,
          "time": 107.55346387500002,
          "velocity": 1
        },
        {
          "duration": 0.37499962500000095,
          "durationTicks": 168,
          "midi": 72,
          "name": "C5",
          "ticks": 48192,
          "time": 107.57132100000001,
          "velocity": 0.5354330708661418
        },
        {
          "duration": 2.3571404999999856,
          "durationTicks": 1056,
          "midi": 73,
          "name": "C#5",
          "ticks": 48376,
          "time": 107.98203487500001,
          "velocity": 0.5354330708661418
        },
        {
          "duration": 2.1964263750000015,
          "durationTicks": 984,
          "midi": 77,
          "name": "F5",
          "ticks": 48384,
          "time": 107.999892,
          "velocity": 1
        }
      ],
      "endOfTrackTicks": 52944
    },
    {
      "channel": 7,
      "controlChanges": {
        "7": [
          {
            "number": 7,
            "ticks": 0,
            "time": 0,
            "value": 1
          }
        ],
        "10": [
          {
            "number": 10,
            "ticks": 0,
            "time": 0,
            "value": 0.8582677165354331
          }
        ],
        "91": [
          {
            "number": 91,
            "ticks": 0,
            "time": 0,
            "value": 0.07874015748031496
          }
        ]
      },
      "pitchBends": [],
      "instrument": {
        "family": "reed",
        "number": 70,
        "name": "bassoon"
      },
      "name": "Bassoon         ",
      "notes": [
        {
          "duration": 0.19642837500000002,
          "durationTicks": 88,
          "midi": 49,
          "name": "C#3",
          "ticks": 0,
          "time": 0,
          "velocity": 1
        },
        {
          "duration": 0.14285700000000012,
          "durationTicks": 64,
          "midi": 44,
          "name": "G#2",
          "ticks": 384,
          "time": 0.8571420000000001,
          "velocity": 1
        },
        {
          "duration": 0.1249998750000001,
          "durationTicks": 56,
          "midi": 49,
          "name": "C#3",
          "ticks": 768,
          "time": 1.7142840000000001,
          "velocity": 1
        },
        {
          "duration": 0.12499987500000032,
          "durationTicks": 56,
          "midi": 44,
          "name": "G#2",
          "ticks": 1152,
          "time": 2.571426,
          "velocity": 1
        },
        {
          "duration": 0.16071412500000015,
          "durationTicks": 72,
          "midi": 46,
          "name": "A#2",
          "ticks": 1536,
          "time": 3.4285680000000003,
          "velocity": 1
        },
        {
          "duration": 0.17857125000000007,
          "durationTicks": 80,
          "midi": 44,
          "name": "G#2",
          "ticks": 1920,
          "time": 4.28571,
          "velocity": 1
        },
        {
          "duration": 0.17857125000000007,
          "durationTicks": 80,
          "midi": 49,
          "name": "C#3",
          "ticks": 2304,
          "time": 5.142852,
          "velocity": 1
        },
        {
          "duration": 0.12499987500000032,
          "durationTicks": 56,
          "midi": 44,
          "name": "G#2",
          "ticks": 2496,
          "time": 5.571423,
          "velocity": 1
        },
        {
          "duration": 0.16071412500000015,
          "durationTicks": 72,
          "midi": 49,
          "name": "C#3",
          "ticks": 2672,
          "time": 5.96427975,
          "velocity": 1
        },
        {
          "duration": 0.14285700000000023,
          "durationTicks": 64,
          "midi": 49,
          "name": "C#3",
          "ticks": 3056,
          "time": 6.821421750000001,
          "velocity": 1
        },
        {
          "duration": 0.1071427500000004,
          "durationTicks": 48,
          "midi": 44,
          "name": "G#2",
          "ticks": 3456,
          "time": 7.714278,
          "velocity": 1
        },
        {
          "duration": 0.10714275000000129,
          "durationTicks": 48,
          "midi": 46,
          "name": "A#2",
          "ticks": 3712,
          "time": 8.285706,
          "velocity": 1
        },
        {
          "duration": 0.14285700000000112,
          "durationTicks": 64,
          "midi": 48,
          "name": "C3",
          "ticks": 3760,
          "time": 8.39284875,
          "velocity": 1
        },
        {
          "duration": 0.0892856249999987,
          "durationTicks": 40,
          "midi": 49,
          "name": "C#3",
          "ticks": 3824,
          "time": 8.535705750000002,
          "velocity": 1
        },
        {
          "duration": 0.12499987499999854,
          "durationTicks": 56,
          "midi": 44,
          "name": "G#2",
          "ticks": 4208,
          "time": 9.392847750000001,
          "velocity": 1
        },
        {
          "duration": 0.19642837499998222,
          "durationTicks": 88,
          "midi": 49,
          "name": "C#3",
          "ticks": 67584,
          "time": 150.85699200000002,
          "velocity": 1
        },
        {
          "duration": 0.14285699999999224,
          "durationTicks": 64,
          "midi": 44,
          "name": "G#2",
          "ticks": 67968,
          "time": 151.714134,
          "velocity": 1
        },
        {
          "duration": 0.12499987500001453,
          "durationTicks": 56,
          "midi": 49,
          "name": "C#3",
          "ticks": 68352,
          "time": 152.571276,
          "velocity": 1
        },
        {
          "duration": 0.1249998749999861,
          "durationTicks": 56,
          "midi": 44,
          "name": "G#2",
          "ticks": 68736,
          "time": 153.42841800000002,
          "velocity": 1
        },
        {
          "duration": 0.16071412499999838,
          "durationTicks": 72,
          "midi": 46,
          "name": "A#2",
          "ticks": 69120,
          "time": 154.28556,
          "velocity": 1
        },
        {
          "duration": 0.1785712500000045,
          "durationTicks": 80,
          "midi": 44,
          "name": "G#2",
          "ticks": 69504,
          "time": 155.142702,
          "velocity": 1
        },
        {
          "duration": 0.1785712500000045,
          "durationTicks": 80,
          "midi": 49,
          "name": "C#3",
          "ticks": 69888,
          "time": 155.99984400000002,
          "velocity": 1
        },
        {
          "duration": 0.12499987500001453,
          "durationTicks": 56,
          "midi": 44,
          "name": "G#2",
          "ticks": 70080,
          "time": 156.428415,
          "velocity": 1
        },
        {
          "duration": 0.16071412499999838,
          "durationTicks": 72,
          "midi": 49,
          "name": "C#3",
          "ticks": 70256,
          "time": 156.82127175000002,
          "velocity": 1
        }
      ],
      "endOfTrackTicks": 70328
    },
    {
      "channel": 9,
      "controlChanges": {
        "7": [
          {
            "number": 7,
            "ticks": 0,
            "time": 0,
            "value": 1
          }
        ],
        "10": [
          {
            "number": 10,
            "ticks": 0,
            "time": 0,
            "value": 0.5039370078740157
          }
        ],
        "91": [
          {
            "number": 91,
            "ticks": 0,
            "time": 0,
            "value": 0.08661417322834646
          }
        ]
      },
      "pitchBends": [],
      "instrument": {
        "family": "drums",
        "number": 0,
        "name": "standard kit"
      },
      "name": "Bass Drum       ",
      "notes": [
        {
          "duration": 0.44642812500000006,
          "durationTicks": 200,
          "midi": 36,
          "name": "C2",
          "ticks": 0,
          "time": 0,
          "velocity": 1
        },
        {
          "duration": 0.42857100000000004,
          "durationTicks": 192,
          "midi": 36,
          "name": "C2",
          "ticks": 384,
          "time": 0.8571420000000001,
          "velocity": 1
        },
        {
          "duration": 0.4285709999999998,
          "durationTicks": 192,
          "midi": 36,
          "name": "C2",
          "ticks": 768,
          "time": 1.7142840000000001,
          "velocity": 1
        },
        {
          "duration": 0.42857100000000026,
          "durationTicks": 192,
          "midi": 36,
          "name": "C2",
          "ticks": 1152,
          "time": 2.571426,
          "velocity": 1
        },
        {
          "duration": 0.4285709999999998,
          "durationTicks": 192,
          "midi": 36,
          "name": "C2",
          "ticks": 1536,
          "time": 3.4285680000000003,
          "velocity": 1
        },
        {
          "duration": 0.4464281250000006,
          "durationTicks": 200,
          "midi": 36,
          "name": "C2",
          "ticks": 1920,
          "time": 4.28571,
          "velocity": 1
        },
        {
          "duration": 0.23214262499999982,
          "durationTicks": 104,
          "midi": 36,
          "name": "C2",
          "ticks": 2304,
          "time": 5.142852,
          "velocity": 1
        },
        {
          "duration": 0.16071412500000015,
          "durationTicks": 72,
          "midi": 36,
          "name": "C2",
          "ticks": 2496,
          "time": 5.571423,
          "velocity": 1
        },
        {
          "duration": 0.12499987499999943,
          "durationTicks": 56,
          "midi": 36,
          "name": "C2",
          "ticks": 2688,
          "time": 5.999994000000001,
          "velocity": 1
        },
        {
          "duration": 0.4464281250000006,
          "durationTicks": 200,
          "midi": 36,
          "name": "C2",
          "ticks": 3072,
          "time": 6.857136000000001,
          "velocity": 1
        },
        {
          "duration": 0.46428524999999965,
          "durationTicks": 208,
          "midi": 36,
          "name": "C2",
          "ticks": 3456,
          "time": 7.714278,
          "velocity": 1
        },
        {
          "duration": 0.4285710000000016,
          "durationTicks": 192,
          "midi": 36,
          "name": "C2",
          "ticks": 3840,
          "time": 8.57142,
          "velocity": 1
        },
        {
          "duration": 0.4285709999999998,
          "durationTicks": 192,
          "midi": 36,
          "name": "C2",
          "ticks": 4224,
          "time": 9.428562000000001,
          "velocity": 1
        },
        {
          "duration": 0.6428565000000006,
          "durationTicks": 288,
          "midi": 36,
          "name": "C2",
          "ticks": 4608,
          "time": 10.285704,
          "velocity": 1
        },
        {
          "duration": 0.5535708750000001,
          "durationTicks": 248,
          "midi": 36,
          "name": "C2",
          "ticks": 4992,
          "time": 11.142846,
          "velocity": 1
        },
        {
          "duration": 0.5178566249999985,
          "durationTicks": 232,
          "midi": 36,
          "name": "C2",
          "ticks": 5376,
          "time": 11.999988000000002,
          "velocity": 1
        },
        {
          "duration": 0.4999994999999995,
          "durationTicks": 224,
          "midi": 36,
          "name": "C2",
          "ticks": 5760,
          "time": 12.857130000000002,
          "velocity": 1
        },
        {
          "duration": 0.5178566250000003,
          "durationTicks": 232,
          "midi": 36,
          "name": "C2",
          "ticks": 6144,
          "time": 13.714272000000001,
          "velocity": 1
        },
        {
          "duration": 0.4642852500000014,
          "durationTicks": 208,
          "midi": 36,
          "name": "C2",
          "ticks": 6528,
          "time": 14.571414,
          "velocity": 1
        },
        {
          "duration": 0.4285710000000016,
          "durationTicks": 192,
          "midi": 36,
          "name": "C2",
          "ticks": 6912,
          "time": 15.428556,
          "velocity": 1
        },
        {
          "duration": 0.39285675,
          "durationTicks": 176,
          "midi": 36,
          "name": "C2",
          "ticks": 7296,
          "time": 16.285698,
          "velocity": 1
        },
        {
          "duration": 0.6249993750000016,
          "durationTicks": 280,
          "midi": 36,
          "name": "C2",
          "ticks": 7680,
          "time": 17.14284,
          "velocity": 1
        },
        {
          "duration": 0.607142249999999,
          "durationTicks": 272,
          "midi": 36,
          "name": "C2",
          "ticks": 8064,
          "time": 17.999982000000003,
          "velocity": 1
        },
        {
          "duration": 0.6964278749999977,
          "durationTicks": 312,
          "midi": 36,
          "name": "C2",
          "ticks": 8448,
          "time": 18.857124000000002,
          "velocity": 1
        },
        {
          "duration": 0.24999975000000063,
          "durationTicks": 112,
          "midi": 36,
          "name": "C2",
          "ticks": 8832,
          "time": 19.714266000000002,
          "velocity": 1
        },
        {
          "duration": 0.24999975000000418,
          "durationTicks": 112,
          "midi": 36,
          "name": "C2",
          "ticks": 9024,
          "time": 20.142837,
          "velocity": 1
        },
        {
          "duration": 0.1785712499999974,
          "durationTicks": 80,
          "midi": 36,
          "name": "C2",
          "ticks": 9216,
          "time": 20.571408,
          "velocity": 1
        },
        {
          "duration": 0.589285125,
          "durationTicks": 264,
          "midi": 36,
          "name": "C2",
          "ticks": 10752,
          "time": 23.999976000000004,
          "velocity": 1
        },
        {
          "duration": 0.624999374999998,
          "durationTicks": 280,
          "midi": 36,
          "name": "C2",
          "ticks": 11136,
          "time": 24.857118000000003,
          "velocity": 1
        },
        {
          "duration": 0.6249993750000016,
          "durationTicks": 280,
          "midi": 36,
          "name": "C2",
          "ticks": 11520,
          "time": 25.714260000000003,
          "velocity": 1
        },
        {
          "duration": 0.607142249999999,
          "durationTicks": 272,
          "midi": 36,
          "name": "C2",
          "ticks": 11904,
          "time": 26.571402000000003,
          "velocity": 1
        },
        {
          "duration": 0.5178566249999967,
          "durationTicks": 232,
          "midi": 36,
          "name": "C2",
          "ticks": 12288,
          "time": 27.428544000000002,
          "velocity": 1
        },
        {
          "duration": 0.6071422500000025,
          "durationTicks": 272,
          "midi": 36,
          "name": "C2",
          "ticks": 12672,
          "time": 28.285686000000002,
          "velocity": 1
        },
        {
          "duration": 0.6071422500000025,
          "durationTicks": 272,
          "midi": 36,
          "name": "C2",
          "ticks": 13056,
          "time": 29.142828,
          "velocity": 1
        },
        {
          "duration": 0.6071422500000025,
          "durationTicks": 272,
          "midi": 36,
          "name": "C2",
          "ticks": 13440,
          "time": 29.99997,
          "velocity": 1
        },
        {
          "duration": 0.5535708750000055,
          "durationTicks": 248,
          "midi": 36,
          "name": "C2",
          "ticks": 13824,
          "time": 30.857112,
          "velocity": 1
        },
        {
          "duration": 0.6071422500000025,
          "durationTicks": 272,
          "midi": 36,
          "name": "C2",
          "ticks": 14208,
          "time": 31.714254000000004,
          "velocity": 1
        },
        {
          "duration": 0.37499962500000095,
          "durationTicks": 168,
          "midi": 36,
          "name": "C2",
          "ticks": 14592,
          "time": 32.571396,
          "velocity": 1
        },
        {
          "duration": 0.10714275000000129,
          "durationTicks": 48,
          "midi": 36,
          "name": "C2",
          "ticks": 14976,
          "time": 33.428538,
          "velocity": 1
        },
        {
          "duration": 0.053571375000004195,
          "durationTicks": 24,
          "midi": 36,
          "name": "C2",
          "ticks": 15360,
          "time": 34.28568,
          "velocity": 1
        },
        {
          "duration": 0.07142850000000323,
          "durationTicks": 32,
          "midi": 36,
          "name": "C2",
          "ticks": 15744,
          "time": 35.142822,
          "velocity": 1
        },
        {
          "duration": 0.07142849999999612,
          "durationTicks": 32,
          "midi": 36,
          "name": "C2",
          "ticks": 16128,
          "time": 35.999964000000006,
          "velocity": 1
        },
        {
          "duration": 0.07142850000000323,
          "durationTicks": 32,
          "midi": 36,
          "name": "C2",
          "ticks": 16320,
          "time": 36.428535000000004,
          "velocity": 1
        },
        {
          "duration": 0.07142850000000323,
          "durationTicks": 32,
          "midi": 36,
          "name": "C2",
          "ticks": 16512,
          "time": 36.857106,
          "velocity": 1
        },
        {
          "duration": 0.07142850000000323,
          "durationTicks": 32,
          "midi": 36,
          "name": "C2",
          "ticks": 16704,
          "time": 37.285677,
          "velocity": 1
        },
        {
          "duration": 0.21428549999999547,
          "durationTicks": 96,
          "midi": 36,
          "name": "C2",
          "ticks": 16896,
          "time": 37.714248000000005,
          "velocity": 1
        },
        {
          "duration": 0.2321426250000016,
          "durationTicks": 104,
          "midi": 36,
          "name": "C2",
          "ticks": 17088,
          "time": 38.142819,
          "velocity": 1
        },
        {
          "duration": 0.26785687499999966,
          "durationTicks": 120,
          "midi": 36,
          "name": "C2",
          "ticks": 17280,
          "time": 38.57139,
          "velocity": 1
        },
        {
          "duration": 0.24999974999999353,
          "durationTicks": 112,
          "midi": 36,
          "name": "C2",
          "ticks": 17472,
          "time": 38.999961000000006,
          "velocity": 1
        },
        {
          "duration": 0.26785687499999966,
          "durationTicks": 120,
          "midi": 36,
          "name": "C2",
          "ticks": 17664,
          "time": 39.428532000000004,
          "velocity": 1
        },
        {
          "duration": 0.24999975000000063,
          "durationTicks": 112,
          "midi": 36,
          "name": "C2",
          "ticks": 17856,
          "time": 39.857103,
          "velocity": 1
        },
        {
          "duration": 0.24999975000000063,
          "durationTicks": 112,
          "midi": 36,
          "name": "C2",
          "ticks": 18048,
          "time": 40.285674,
          "velocity": 1
        },
        {
          "duration": 0.24999974999999353,
          "durationTicks": 112,
          "midi": 36,
          "name": "C2",
          "ticks": 18240,
          "time": 40.714245000000005,
          "velocity": 1
        },
        {
          "duration": 0.24999975000000063,
          "durationTicks": 112,
          "midi": 36,
          "name": "C2",
          "ticks": 18432,
          "time": 41.142816,
          "velocity": 1
        },
        {
          "duration": 0.2321426250000016,
          "durationTicks": 104,
          "midi": 36,
          "name": "C2",
          "ticks": 18624,
          "time": 41.571387,
          "velocity": 1
        },
        {
          "duration": 0.2321426250000016,
          "durationTicks": 104,
          "midi": 36,
          "name": "C2",
          "ticks": 18816,
          "time": 41.99995800000001,
          "velocity": 1
        },
        {
          "duration": 0.26785687499999966,
          "durationTicks": 120,
          "midi": 36,
          "name": "C2",
          "ticks": 19008,
          "time": 42.428529000000005,
          "velocity": 1
        },
        {
          "duration": 0.3035711249999977,
          "durationTicks": 136,
          "midi": 36,
          "name": "C2",
          "ticks": 19200,
          "time": 42.8571,
          "velocity": 1
        },
        {
          "duration": 0.2857140000000058,
          "durationTicks": 128,
          "midi": 36,
          "name": "C2",
          "ticks": 19392,
          "time": 43.285671,
          "velocity": 1
        },
        {
          "duration": 0.2857139999999987,
          "durationTicks": 128,
          "midi": 36,
          "name": "C2",
          "ticks": 19584,
          "time": 43.714242000000006,
          "velocity": 1
        },
        {
          "duration": 0.26785687499999966,
          "durationTicks": 120,
          "midi": 36,
          "name": "C2",
          "ticks": 19776,
          "time": 44.142813000000004,
          "velocity": 1
        },
        {
          "duration": 0.24999975000000063,
          "durationTicks": 112,
          "midi": 36,
          "name": "C2",
          "ticks": 19968,
          "time": 44.571384,
          "velocity": 1
        },
        {
          "duration": 0.21428549999999547,
          "durationTicks": 96,
          "midi": 36,
          "name": "C2",
          "ticks": 20160,
          "time": 44.99995500000001,
          "velocity": 1
        },
        {
          "duration": 0.21428549999999547,
          "durationTicks": 96,
          "midi": 36,
          "name": "C2",
          "ticks": 20352,
          "time": 45.428526000000005,
          "velocity": 1
        },
        {
          "duration": 0.19642837499999644,
          "durationTicks": 88,
          "midi": 36,
          "name": "C2",
          "ticks": 20544,
          "time": 45.857097,
          "velocity": 1
        },
        {
          "duration": 0.21428550000000257,
          "durationTicks": 96,
          "midi": 36,
          "name": "C2",
          "ticks": 20736,
          "time": 46.285668,
          "velocity": 1
        },
        {
          "duration": 0.21428549999999547,
          "durationTicks": 96,
          "midi": 36,
          "name": "C2",
          "ticks": 20928,
          "time": 46.714239000000006,
          "velocity": 1
        },
        {
          "duration": 0.21428550000000257,
          "durationTicks": 96,
          "midi": 36,
          "name": "C2",
          "ticks": 21120,
          "time": 47.142810000000004,
          "velocity": 1
        },
        {
          "duration": 0.26785687499999966,
          "durationTicks": 120,
          "midi": 36,
          "name": "C2",
          "ticks": 21312,
          "time": 47.571381,
          "velocity": 1
        },
        {
          "duration": 0.16071412499999838,
          "durationTicks": 72,
          "midi": 36,
          "name": "C2",
          "ticks": 21504,
          "time": 47.99995200000001,
          "velocity": 1
        },
        {
          "duration": 0.26785687499999966,
          "durationTicks": 120,
          "midi": 36,
          "name": "C2",
          "ticks": 23040,
          "time": 51.428520000000006,
          "velocity": 1
        },
        {
          "duration": 0.21428550000000257,
          "durationTicks": 96,
          "midi": 36,
          "name": "C2",
          "ticks": 23232,
          "time": 51.857091000000004,
          "velocity": 1
        },
        {
          "duration": 0.21428550000000257,
          "durationTicks": 96,
          "midi": 36,
          "name": "C2",
          "ticks": 23424,
          "time": 52.285662,
          "velocity": 1
        },
        {
          "duration": 0.21428549999999547,
          "durationTicks": 96,
          "midi": 36,
          "name": "C2",
          "ticks": 23616,
          "time": 52.71423300000001,
          "velocity": 1
        },
        {
          "duration": 0.2321426250000016,
          "durationTicks": 104,
          "midi": 36,
          "name": "C2",
          "ticks": 23808,
          "time": 53.142804000000005,
          "velocity": 1
        },
        {
          "duration": 0.21428550000000257,
          "durationTicks": 96,
          "midi": 36,
          "name": "C2",
          "ticks": 24000,
          "time": 53.571375,
          "velocity": 1
        },
        {
          "duration": 0.21428550000000257,
          "durationTicks": 96,
          "midi": 36,
          "name": "C2",
          "ticks": 24192,
          "time": 53.999946,
          "velocity": 1
        },
        {
          "duration": 0.2321426250000016,
          "durationTicks": 104,
          "midi": 36,
          "name": "C2",
          "ticks": 24384,
          "time": 54.42851700000001,
          "velocity": 1
        },
        {
          "duration": 0.2321426249999945,
          "durationTicks": 104,
          "midi": 36,
          "name": "C2",
          "ticks": 24576,
          "time": 54.857088000000005,
          "velocity": 1
        },
        {
          "duration": 0.2321426249999945,
          "durationTicks": 104,
          "midi": 36,
          "name": "C2",
          "ticks": 24768,
          "time": 55.285659,
          "velocity": 1
        },
        {
          "duration": 0.21428549999999547,
          "durationTicks": 96,
          "midi": 36,
          "name": "C2",
          "ticks": 24960,
          "time": 55.71423000000001,
          "velocity": 1
        },
        {
          "duration": 0.21428549999999547,
          "durationTicks": 96,
          "midi": 36,
          "name": "C2",
          "ticks": 25152,
          "time": 56.142801000000006,
          "velocity": 1
        },
        {
          "duration": 0.1785712499999974,
          "durationTicks": 80,
          "midi": 36,
          "name": "C2",
          "ticks": 25344,
          "time": 56.571372000000004,
          "velocity": 1
        },
        {
          "duration": 0.21428550000000257,
          "durationTicks": 96,
          "midi": 36,
          "name": "C2",
          "ticks": 25536,
          "time": 56.999943,
          "velocity": 1
        },
        {
          "duration": 0.24999975000000063,
          "durationTicks": 112,
          "midi": 36,
          "name": "C2",
          "ticks": 25728,
          "time": 57.42851400000001,
          "velocity": 1
        },
        {
          "duration": 0.24999975000000063,
          "durationTicks": 112,
          "midi": 36,
          "name": "C2",
          "ticks": 25920,
          "time": 57.857085000000005,
          "velocity": 1
        },
        {
          "duration": 0.2321426249999945,
          "durationTicks": 104,
          "midi": 36,
          "name": "C2",
          "ticks": 26112,
          "time": 58.285656,
          "velocity": 1
        },
        {
          "duration": 0.21428549999999547,
          "durationTicks": 96,
          "midi": 36,
          "name": "C2",
          "ticks": 26304,
          "time": 58.71422700000001,
          "velocity": 1
        },
        {
          "duration": 0.21428549999999547,
          "durationTicks": 96,
          "midi": 36,
          "name": "C2",
          "ticks": 26496,
          "time": 59.142798000000006,
          "velocity": 1
        },
        {
          "duration": 0.19642837500000354,
          "durationTicks": 88,
          "midi": 36,
          "name": "C2",
          "ticks": 26688,
          "time": 59.571369000000004,
          "velocity": 1
        },
        {
          "duration": 0.14285700000000645,
          "durationTicks": 64,
          "midi": 36,
          "name": "C2",
          "ticks": 26880,
          "time": 59.99994,
          "velocity": 1
        },
        {
          "duration": 0.12499987499999321,
          "durationTicks": 56,
          "midi": 36,
          "name": "C2",
          "ticks": 27072,
          "time": 60.42851100000001,
          "velocity": 1
        },
        {
          "duration": 0.12499987499999321,
          "durationTicks": 56,
          "midi": 36,
          "name": "C2",
          "ticks": 27264,
          "time": 60.857082000000005,
          "velocity": 1
        },
        {
          "duration": 0.16071412499999838,
          "durationTicks": 72,
          "midi": 36,
          "name": "C2",
          "ticks": 27456,
          "time": 61.285653,
          "velocity": 1
        },
        {
          "duration": 0.12499987500000032,
          "durationTicks": 56,
          "midi": 36,
          "name": "C2",
          "ticks": 27648,
          "time": 61.714224,
          "velocity": 1
        },
        {
          "duration": 0.12499987499999321,
          "durationTicks": 56,
          "midi": 36,
          "name": "C2",
          "ticks": 27840,
          "time": 62.14279500000001,
          "velocity": 1
        },
        {
          "duration": 0.14285700000000645,
          "durationTicks": 64,
          "midi": 36,
          "name": "C2",
          "ticks": 28032,
          "time": 62.571366000000005,
          "velocity": 1
        },
        {
          "duration": 0.14285700000000645,
          "durationTicks": 64,
          "midi": 36,
          "name": "C2",
          "ticks": 28224,
          "time": 62.999937,
          "velocity": 1
        },
        {
          "duration": 0.10714274999999418,
          "durationTicks": 48,
          "midi": 36,
          "name": "C2",
          "ticks": 28416,
          "time": 63.42850800000001,
          "velocity": 1
        },
        {
          "duration": 0.16071412499999838,
          "durationTicks": 72,
          "midi": 36,
          "name": "C2",
          "ticks": 28800,
          "time": 64.28565,
          "velocity": 1
        },
        {
          "duration": 0.1249998749999861,
          "durationTicks": 56,
          "midi": 36,
          "name": "C2",
          "ticks": 28992,
          "time": 64.71422100000001,
          "velocity": 1
        },
        {
          "duration": 0.6428564999999935,
          "durationTicks": 288,
          "midi": 36,
          "name": "C2",
          "ticks": 29952,
          "time": 66.857076,
          "velocity": 1
        },
        {
          "duration": 0.5535708750000055,
          "durationTicks": 248,
          "midi": 36,
          "name": "C2",
          "ticks": 30336,
          "time": 67.714218,
          "velocity": 1
        },
        {
          "duration": 0.5178566250000074,
          "durationTicks": 232,
          "midi": 36,
          "name": "C2",
          "ticks": 30720,
          "time": 68.57136,
          "velocity": 1
        },
        {
          "duration": 0.49999949999998705,
          "durationTicks": 224,
          "midi": 36,
          "name": "C2",
          "ticks": 31104,
          "time": 69.42850200000001,
          "velocity": 1
        },
        {
          "duration": 0.5178566250000074,
          "durationTicks": 232,
          "midi": 36,
          "name": "C2",
          "ticks": 31488,
          "time": 70.285644,
          "velocity": 1
        },
        {
          "duration": 0.4642852500000032,
          "durationTicks": 208,
          "midi": 36,
          "name": "C2",
          "ticks": 31872,
          "time": 71.142786,
          "velocity": 1
        },
        {
          "duration": 0.42857099999999093,
          "durationTicks": 192,
          "midi": 36,
          "name": "C2",
          "ticks": 32256,
          "time": 71.99992800000001,
          "velocity": 1
        },
        {
          "duration": 0.39285674999999287,
          "durationTicks": 176,
          "midi": 36,
          "name": "C2",
          "ticks": 32640,
          "time": 72.85707000000001,
          "velocity": 1
        },
        {
          "duration": 0.6249993750000016,
          "durationTicks": 280,
          "midi": 36,
          "name": "C2",
          "ticks": 33024,
          "time": 73.714212,
          "velocity": 1
        },
        {
          "duration": 0.6071422500000097,
          "durationTicks": 272,
          "midi": 36,
          "name": "C2",
          "ticks": 33408,
          "time": 74.571354,
          "velocity": 1
        },
        {
          "duration": 0.6964278749999977,
          "durationTicks": 312,
          "midi": 36,
          "name": "C2",
          "ticks": 33792,
          "time": 75.42849600000001,
          "velocity": 1
        },
        {
          "duration": 0.24999975000000063,
          "durationTicks": 112,
          "midi": 36,
          "name": "C2",
          "ticks": 34176,
          "time": 76.285638,
          "velocity": 1
        },
        {
          "duration": 0.24999975000000063,
          "durationTicks": 112,
          "midi": 36,
          "name": "C2",
          "ticks": 34368,
          "time": 76.71420900000001,
          "velocity": 1
        },
        {
          "duration": 0.1785712500000045,
          "durationTicks": 80,
          "midi": 36,
          "name": "C2",
          "ticks": 34560,
          "time": 77.14278,
          "velocity": 1
        },
        {
          "duration": 0.5892851250000035,
          "durationTicks": 264,
          "midi": 36,
          "name": "C2",
          "ticks": 36096,
          "time": 80.571348,
          "velocity": 1
        },
        {
          "duration": 0.6249993750000016,
          "durationTicks": 280,
          "midi": 36,
          "name": "C2",
          "ticks": 36480,
          "time": 81.42849000000001,
          "velocity": 1
        },
        {
          "duration": 0.6249993750000016,
          "durationTicks": 280,
          "midi": 36,
          "name": "C2",
          "ticks": 36864,
          "time": 82.285632,
          "velocity": 1
        },
        {
          "duration": 0.6071422499999954,
          "durationTicks": 272,
          "midi": 36,
          "name": "C2",
          "ticks": 37248,
          "time": 83.142774,
          "velocity": 1
        },
        {
          "duration": 0.5178566249999932,
          "durationTicks": 232,
          "midi": 36,
          "name": "C2",
          "ticks": 37632,
          "time": 83.99991600000001,
          "velocity": 1
        },
        {
          "duration": 0.6071422499999954,
          "durationTicks": 272,
          "midi": 36,
          "name": "C2",
          "ticks": 38016,
          "time": 84.85705800000001,
          "velocity": 1
        },
        {
          "duration": 0.6071422499999954,
          "durationTicks": 272,
          "midi": 36,
          "name": "C2",
          "ticks": 38400,
          "time": 85.7142,
          "velocity": 1
        },
        {
          "duration": 0.6071422499999954,
          "durationTicks": 272,
          "midi": 36,
          "name": "C2",
          "ticks": 38784,
          "time": 86.571342,
          "velocity": 1
        },
        {
          "duration": 0.5535708749999912,
          "durationTicks": 248,
          "midi": 36,
          "name": "C2",
          "ticks": 39168,
          "time": 87.42848400000001,
          "velocity": 1
        },
        {
          "duration": 0.6071422499999954,
          "durationTicks": 272,
          "midi": 36,
          "name": "C2",
          "ticks": 39552,
          "time": 88.28562600000001,
          "velocity": 1
        },
        {
          "duration": 0.37499962500000095,
          "durationTicks": 168,
          "midi": 36,
          "name": "C2",
          "ticks": 39936,
          "time": 89.142768,
          "velocity": 1
        },
        {
          "duration": 0.10714274999999418,
          "durationTicks": 48,
          "midi": 36,
          "name": "C2",
          "ticks": 40320,
          "time": 89.99991000000001,
          "velocity": 1
        },
        {
          "duration": 0.053571375000004195,
          "durationTicks": 24,
          "midi": 36,
          "name": "C2",
          "ticks": 40704,
          "time": 90.85705200000001,
          "velocity": 1
        },
        {
          "duration": 0.07142849999999612,
          "durationTicks": 32,
          "midi": 36,
          "name": "C2",
          "ticks": 41088,
          "time": 91.714194,
          "velocity": 1
        },
        {
          "duration": 0.07142849999999612,
          "durationTicks": 32,
          "midi": 36,
          "name": "C2",
          "ticks": 41472,
          "time": 92.571336,
          "velocity": 1
        },
        {
          "duration": 0.07142849999999612,
          "durationTicks": 32,
          "midi": 36,
          "name": "C2",
          "ticks": 41664,
          "time": 92.99990700000001,
          "velocity": 1
        },
        {
          "duration": 0.07142849999999612,
          "durationTicks": 32,
          "midi": 36,
          "name": "C2",
          "ticks": 41856,
          "time": 93.42847800000001,
          "velocity": 1
        },
        {
          "duration": 0.07142849999999612,
          "durationTicks": 32,
          "midi": 36,
          "name": "C2",
          "ticks": 42048,
          "time": 93.857049,
          "velocity": 1
        },
        {
          "duration": 0.21428550000000257,
          "durationTicks": 96,
          "midi": 36,
          "name": "C2",
          "ticks": 42240,
          "time": 94.28562000000001,
          "velocity": 1
        },
        {
          "duration": 0.2321426249999945,
          "durationTicks": 104,
          "midi": 36,
          "name": "C2",
          "ticks": 42432,
          "time": 94.71419100000001,
          "velocity": 1
        },
        {
          "duration": 0.26785687500000677,
          "durationTicks": 120,
          "midi": 36,
          "name": "C2",
          "ticks": 42624,
          "time": 95.142762,
          "velocity": 1
        },
        {
          "duration": 0.24999975000000063,
          "durationTicks": 112,
          "midi": 36,
          "name": "C2",
          "ticks": 42816,
          "time": 95.57133300000001,
          "velocity": 1
        },
        {
          "duration": 0.26785687499999256,
          "durationTicks": 120,
          "midi": 36,
          "name": "C2",
          "ticks": 43008,
          "time": 95.99990400000002,
          "velocity": 1
        },
        {
          "duration": 0.24999975000000063,
          "durationTicks": 112,
          "midi": 36,
          "name": "C2",
          "ticks": 43200,
          "time": 96.428475,
          "velocity": 1
        },
        {
          "duration": 0.24999975000000063,
          "durationTicks": 112,
          "midi": 36,
          "name": "C2",
          "ticks": 43392,
          "time": 96.85704600000001,
          "velocity": 1
        },
        {
          "duration": 0.24999975000001484,
          "durationTicks": 112,
          "midi": 36,
          "name": "C2",
          "ticks": 43584,
          "time": 97.285617,
          "velocity": 1
        },
        {
          "duration": 0.24999975000000063,
          "durationTicks": 112,
          "midi": 36,
          "name": "C2",
          "ticks": 43776,
          "time": 97.71418800000001,
          "velocity": 1
        },
        {
          "duration": 0.2321426249999945,
          "durationTicks": 104,
          "midi": 36,
          "name": "C2",
          "ticks": 43968,
          "time": 98.14275900000001,
          "velocity": 1
        },
        {
          "duration": 0.2321426249999945,
          "durationTicks": 104,
          "midi": 36,
          "name": "C2",
          "ticks": 44160,
          "time": 98.57133,
          "velocity": 1
        },
        {
          "duration": 0.26785687500000677,
          "durationTicks": 120,
          "midi": 36,
          "name": "C2",
          "ticks": 44352,
          "time": 98.99990100000001,
          "velocity": 1
        },
        {
          "duration": 0.3035711250000048,
          "durationTicks": 136,
          "midi": 36,
          "name": "C2",
          "ticks": 44544,
          "time": 99.42847200000001,
          "velocity": 1
        },
        {
          "duration": 0.2857139999999987,
          "durationTicks": 128,
          "midi": 36,
          "name": "C2",
          "ticks": 44736,
          "time": 99.857043,
          "velocity": 1
        },
        {
          "duration": 0.2857139999999987,
          "durationTicks": 128,
          "midi": 36,
          "name": "C2",
          "ticks": 44928,
          "time": 100.28561400000001,
          "velocity": 1
        },
        {
          "duration": 0.26785687499999256,
          "durationTicks": 120,
          "midi": 36,
          "name": "C2",
          "ticks": 45120,
          "time": 100.71418500000001,
          "velocity": 1
        },
        {
          "duration": 0.24999975000000063,
          "durationTicks": 112,
          "midi": 36,
          "name": "C2",
          "ticks": 45312,
          "time": 101.142756,
          "velocity": 1
        },
        {
          "duration": 0.21428550000000257,
          "durationTicks": 96,
          "midi": 36,
          "name": "C2",
          "ticks": 45504,
          "time": 101.57132700000001,
          "velocity": 1
        },
        {
          "duration": 0.21428550000000257,
          "durationTicks": 96,
          "midi": 36,
          "name": "C2",
          "ticks": 45696,
          "time": 101.999898,
          "velocity": 1
        },
        {
          "duration": 0.19642837500001065,
          "durationTicks": 88,
          "midi": 36,
          "name": "C2",
          "ticks": 45888,
          "time": 102.428469,
          "velocity": 1
        },
        {
          "duration": 0.21428550000000257,
          "durationTicks": 96,
          "midi": 36,
          "name": "C2",
          "ticks": 46080,
          "time": 102.85704000000001,
          "velocity": 1
        },
        {
          "duration": 0.21428550000000257,
          "durationTicks": 96,
          "midi": 36,
          "name": "C2",
          "ticks": 46272,
          "time": 103.285611,
          "velocity": 1
        },
        {
          "duration": 0.21428550000000257,
          "durationTicks": 96,
          "midi": 36,
          "name": "C2",
          "ticks": 46464,
          "time": 103.71418200000001,
          "velocity": 1
        },
        {
          "duration": 0.26785687499999256,
          "durationTicks": 120,
          "midi": 36,
          "name": "C2",
          "ticks": 46656,
          "time": 104.14275300000001,
          "velocity": 1
        },
        {
          "duration": 0.16071412499999838,
          "durationTicks": 72,
          "midi": 36,
          "name": "C2",
          "ticks": 46848,
          "time": 104.571324,
          "velocity": 1
        },
        {
          "duration": 0.26785687500000677,
          "durationTicks": 120,
          "midi": 36,
          "name": "C2",
          "ticks": 48384,
          "time": 107.999892,
          "velocity": 1
        },
        {
          "duration": 0.21428550000000257,
          "durationTicks": 96,
          "midi": 36,
          "name": "C2",
          "ticks": 48576,
          "time": 108.42846300000001,
          "velocity": 1
        },
        {
          "duration": 0.21428550000000257,
          "durationTicks": 96,
          "midi": 36,
          "name": "C2",
          "ticks": 48768,
          "time": 108.85703400000001,
          "velocity": 1
        },
        {
          "duration": 0.21428550000000257,
          "durationTicks": 96,
          "midi": 36,
          "name": "C2",
          "ticks": 48960,
          "time": 109.285605,
          "velocity": 1
        },
        {
          "duration": 0.2321426250000087,
          "durationTicks": 104,
          "midi": 36,
          "name": "C2",
          "ticks": 49152,
          "time": 109.71417600000001,
          "velocity": 1
        },
        {
          "duration": 0.21428549999998836,
          "durationTicks": 96,
          "midi": 36,
          "name": "C2",
          "ticks": 49344,
          "time": 110.14274700000001,
          "velocity": 1
        },
        {
          "duration": 0.21428550000000257,
          "durationTicks": 96,
          "midi": 36,
          "name": "C2",
          "ticks": 49536,
          "time": 110.571318,
          "velocity": 1
        },
        {
          "duration": 0.2321426250000087,
          "durationTicks": 104,
          "midi": 36,
          "name": "C2",
          "ticks": 49728,
          "time": 110.99988900000001,
          "velocity": 1
        },
        {
          "duration": 0.2321426250000087,
          "durationTicks": 104,
          "midi": 36,
          "name": "C2",
          "ticks": 49920,
          "time": 111.42846000000002,
          "velocity": 1
        },
        {
          "duration": 0.2321426250000087,
          "durationTicks": 104,
          "midi": 36,
          "name": "C2",
          "ticks": 50112,
          "time": 111.857031,
          "velocity": 1
        },
        {
          "duration": 0.21428550000000257,
          "durationTicks": 96,
          "midi": 36,
          "name": "C2",
          "ticks": 50304,
          "time": 112.28560200000001,
          "velocity": 1
        },
        {
          "duration": 0.21428550000000257,
          "durationTicks": 96,
          "midi": 36,
          "name": "C2",
          "ticks": 50496,
          "time": 112.714173,
          "velocity": 1
        },
        {
          "duration": 0.1785712500000045,
          "durationTicks": 80,
          "midi": 36,
          "name": "C2",
          "ticks": 50688,
          "time": 113.14274400000001,
          "velocity": 1
        },
        {
          "duration": 0.21428550000000257,
          "durationTicks": 96,
          "midi": 36,
          "name": "C2",
          "ticks": 50880,
          "time": 113.57131500000001,
          "velocity": 1
        },
        {
          "duration": 0.24999975000000063,
          "durationTicks": 112,
          "midi": 36,
          "name": "C2",
          "ticks": 51072,
          "time": 113.999886,
          "velocity": 1
        },
        {
          "duration": 0.24999974999998642,
          "durationTicks": 112,
          "midi": 36,
          "name": "C2",
          "ticks": 51264,
          "time": 114.42845700000001,
          "velocity": 1
        },
        {
          "duration": 0.2321426250000087,
          "durationTicks": 104,
          "midi": 36,
          "name": "C2",
          "ticks": 51456,
          "time": 114.85702800000001,
          "velocity": 1
        },
        {
          "duration": 0.21428550000000257,
          "durationTicks": 96,
          "midi": 36,
          "name": "C2",
          "ticks": 51648,
          "time": 115.285599,
          "velocity": 1
        },
        {
          "duration": 0.21428550000000257,
          "durationTicks": 96,
          "midi": 36,
          "name": "C2",
          "ticks": 51840,
          "time": 115.71417000000001,
          "velocity": 1
        },
        {
          "duration": 0.19642837499998222,
          "durationTicks": 88,
          "midi": 36,
          "name": "C2",
          "ticks": 52032,
          "time": 116.14274100000002,
          "velocity": 1
        },
        {
          "duration": 0.14285699999999224,
          "durationTicks": 64,
          "midi": 36,
          "name": "C2",
          "ticks": 52224,
          "time": 116.571312,
          "velocity": 1
        },
        {
          "duration": 0.12499987500000032,
          "durationTicks": 56,
          "midi": 36,
          "name": "C2",
          "ticks": 52416,
          "time": 116.99988300000001,
          "velocity": 1
        },
        {
          "duration": 0.12499987500000032,
          "durationTicks": 56,
          "midi": 36,
          "name": "C2",
          "ticks": 52608,
          "time": 117.42845400000002,
          "velocity": 1
        },
        {
          "duration": 0.16071412499999838,
          "durationTicks": 72,
          "midi": 36,
          "name": "C2",
          "ticks": 52800,
          "time": 117.85702500000001,
          "velocity": 1
        },
        {
          "duration": 0.12499987500000032,
          "durationTicks": 56,
          "midi": 36,
          "name": "C2",
          "ticks": 52992,
          "time": 118.28559600000001,
          "velocity": 1
        },
        {
          "duration": 0.12499987500001453,
          "durationTicks": 56,
          "midi": 36,
          "name": "C2",
          "ticks": 53184,
          "time": 118.714167,
          "velocity": 1
        },
        {
          "duration": 0.14285699999999224,
          "durationTicks": 64,
          "midi": 36,
          "name": "C2",
          "ticks": 53376,
          "time": 119.14273800000001,
          "velocity": 1
        },
        {
          "duration": 0.14285699999999224,
          "durationTicks": 64,
          "midi": 36,
          "name": "C2",
          "ticks": 53568,
          "time": 119.57130900000001,
          "velocity": 1
        },
        {
          "duration": 0.10714275000000839,
          "durationTicks": 48,
          "midi": 36,
          "name": "C2",
          "ticks": 53760,
          "time": 119.99988,
          "velocity": 1
        },
        {
          "duration": 0.16071412499999838,
          "durationTicks": 72,
          "midi": 36,
          "name": "C2",
          "ticks": 54144,
          "time": 120.85702200000001,
          "velocity": 1
        },
        {
          "duration": 0.12499987500001453,
          "durationTicks": 56,
          "midi": 36,
          "name": "C2",
          "ticks": 54336,
          "time": 121.285593,
          "velocity": 1
        },
        {
          "duration": 0.6428565000000077,
          "durationTicks": 288,
          "midi": 36,
          "name": "C2",
          "ticks": 55296,
          "time": 123.428448,
          "velocity": 1
        },
        {
          "duration": 0.5535708750000055,
          "durationTicks": 248,
          "midi": 36,
          "name": "C2",
          "ticks": 55680,
          "time": 124.28559000000001,
          "velocity": 1
        },
        {
          "duration": 0.5178566249999932,
          "durationTicks": 232,
          "midi": 36,
          "name": "C2",
          "ticks": 56064,
          "time": 125.14273200000001,
          "velocity": 1
        },
        {
          "duration": 0.4999995000000155,
          "durationTicks": 224,
          "midi": 36,
          "name": "C2",
          "ticks": 56448,
          "time": 125.999874,
          "velocity": 1
        },
        {
          "duration": 0.5178566249999932,
          "durationTicks": 232,
          "midi": 36,
          "name": "C2",
          "ticks": 56832,
          "time": 126.85701600000002,
          "velocity": 1
        },
        {
          "duration": 0.4642852500000032,
          "durationTicks": 208,
          "midi": 36,
          "name": "C2",
          "ticks": 57216,
          "time": 127.71415800000001,
          "velocity": 1
        },
        {
          "duration": 0.42857100000000514,
          "durationTicks": 192,
          "midi": 36,
          "name": "C2",
          "ticks": 57600,
          "time": 128.5713,
          "velocity": 1
        },
        {
          "duration": 0.39285674999999287,
          "durationTicks": 176,
          "midi": 36,
          "name": "C2",
          "ticks": 57984,
          "time": 129.42844200000002,
          "velocity": 1
        },
        {
          "duration": 0.6249993750000158,
          "durationTicks": 280,
          "midi": 36,
          "name": "C2",
          "ticks": 58368,
          "time": 130.285584,
          "velocity": 1
        },
        {
          "duration": 0.6071422500000097,
          "durationTicks": 272,
          "midi": 36,
          "name": "C2",
          "ticks": 58752,
          "time": 131.142726,
          "velocity": 1
        },
        {
          "duration": 0.6964278749999835,
          "durationTicks": 312,
          "midi": 36,
          "name": "C2",
          "ticks": 59136,
          "time": 131.99986800000002,
          "velocity": 1
        },
        {
          "duration": 0.24999975000000063,
          "durationTicks": 112,
          "midi": 36,
          "name": "C2",
          "ticks": 59520,
          "time": 132.85701,
          "velocity": 1
        },
        {
          "duration": 0.24999975000000063,
          "durationTicks": 112,
          "midi": 36,
          "name": "C2",
          "ticks": 59712,
          "time": 133.285581,
          "velocity": 1
        },
        {
          "duration": 0.1785712500000045,
          "durationTicks": 80,
          "midi": 36,
          "name": "C2",
          "ticks": 59904,
          "time": 133.714152,
          "velocity": 1
        },
        {
          "duration": 0.5892851250000035,
          "durationTicks": 264,
          "midi": 36,
          "name": "C2",
          "ticks": 61440,
          "time": 137.14272,
          "velocity": 1
        },
        {
          "duration": 0.6249993749999874,
          "durationTicks": 280,
          "midi": 36,
          "name": "C2",
          "ticks": 61824,
          "time": 137.999862,
          "velocity": 1
        },
        {
          "duration": 0.6249993749999874,
          "durationTicks": 280,
          "midi": 36,
          "name": "C2",
          "ticks": 62208,
          "time": 138.85700400000002,
          "velocity": 1
        },
        {
          "duration": 0.6071422500000097,
          "durationTicks": 272,
          "midi": 36,
          "name": "C2",
          "ticks": 62592,
          "time": 139.714146,
          "velocity": 1
        },
        {
          "duration": 0.5178566250000074,
          "durationTicks": 232,
          "midi": 36,
          "name": "C2",
          "ticks": 62976,
          "time": 140.571288,
          "velocity": 1
        },
        {
          "duration": 0.6071422500000097,
          "durationTicks": 272,
          "midi": 36,
          "name": "C2",
          "ticks": 63360,
          "time": 141.42843000000002,
          "velocity": 1
        },
        {
          "duration": 0.6071422500000097,
          "durationTicks": 272,
          "midi": 36,
          "name": "C2",
          "ticks": 63744,
          "time": 142.285572,
          "velocity": 1
        },
        {
          "duration": 0.6071422500000097,
          "durationTicks": 272,
          "midi": 36,
          "name": "C2",
          "ticks": 64128,
          "time": 143.142714,
          "velocity": 1
        },
        {
          "duration": 0.5535708749999912,
          "durationTicks": 248,
          "midi": 36,
          "name": "C2",
          "ticks": 64512,
          "time": 143.99985600000002,
          "velocity": 1
        },
        {
          "duration": 0.6071422500000097,
          "durationTicks": 272,
          "midi": 36,
          "name": "C2",
          "ticks": 64896,
          "time": 144.856998,
          "velocity": 1
        },
        {
          "duration": 0.37499962499998674,
          "durationTicks": 168,
          "midi": 36,
          "name": "C2",
          "ticks": 65280,
          "time": 145.71414000000001,
          "velocity": 1
        },
        {
          "duration": 0.10714274999997997,
          "durationTicks": 48,
          "midi": 36,
          "name": "C2",
          "ticks": 65664,
          "time": 146.57128200000002,
          "velocity": 1
        },
        {
          "duration": 0.053571375000018406,
          "durationTicks": 24,
          "midi": 36,
          "name": "C2",
          "ticks": 66048,
          "time": 147.428424,
          "velocity": 1
        },
        {
          "duration": 0.07142849999999612,
          "durationTicks": 32,
          "midi": 36,
          "name": "C2",
          "ticks": 66432,
          "time": 148.28556600000002,
          "velocity": 1
        },
        {
          "duration": 0.07142850000002454,
          "durationTicks": 32,
          "midi": 36,
          "name": "C2",
          "ticks": 66816,
          "time": 149.142708,
          "velocity": 1
        },
        {
          "duration": 0.07142850000002454,
          "durationTicks": 32,
          "midi": 36,
          "name": "C2",
          "ticks": 67008,
          "time": 149.571279,
          "velocity": 1
        },
        {
          "duration": 0.07142850000002454,
          "durationTicks": 32,
          "midi": 36,
          "name": "C2",
          "ticks": 67200,
          "time": 149.99985,
          "velocity": 1
        },
        {
          "duration": 0.07142849999999612,
          "durationTicks": 32,
          "midi": 36,
          "name": "C2",
          "ticks": 67392,
          "time": 150.42842100000001,
          "velocity": 1
        },
        {
          "duration": 0.4464281250000113,
          "durationTicks": 200,
          "midi": 36,
          "name": "C2",
          "ticks": 67584,
          "time": 150.85699200000002,
          "velocity": 1
        },
        {
          "duration": 0.42857100000000514,
          "durationTicks": 192,
          "midi": 36,
          "name": "C2",
          "ticks": 67968,
          "time": 151.714134,
          "velocity": 1
        },
        {
          "duration": 0.42857100000000514,
          "durationTicks": 192,
          "midi": 36,
          "name": "C2",
          "ticks": 68352,
          "time": 152.571276,
          "velocity": 1
        },
        {
          "duration": 0.4285709999999767,
          "durationTicks": 192,
          "midi": 36,
          "name": "C2",
          "ticks": 68736,
          "time": 153.42841800000002,
          "velocity": 1
        },
        {
          "duration": 0.42857100000000514,
          "durationTicks": 192,
          "midi": 36,
          "name": "C2",
          "ticks": 69120,
          "time": 154.28556,
          "velocity": 1
        },
        {
          "duration": 0.4464281250000113,
          "durationTicks": 200,
          "midi": 36,
          "name": "C2",
          "ticks": 69504,
          "time": 155.142702,
          "velocity": 1
        },
        {
          "duration": 0.2321426249999945,
          "durationTicks": 104,
          "midi": 36,
          "name": "C2",
          "ticks": 69888,
          "time": 155.99984400000002,
          "velocity": 1
        },
        {
          "duration": 0.16071412499999838,
          "durationTicks": 72,
          "midi": 36,
          "name": "C2",
          "ticks": 70080,
          "time": 156.428415,
          "velocity": 1
        },
        {
          "duration": 0.12499987500001453,
          "durationTicks": 56,
          "midi": 36,
          "name": "C2",
          "ticks": 70272,
          "time": 156.856986,
          "velocity": 1
        }
      ],
      "endOfTrackTicks": 70328
    },
    {
      "channel": 9,
      "controlChanges": {
        "7": [
          {
            "number": 7,
            "ticks": 0,
            "time": 0,
            "value": 1
          }
        ],
        "10": [
          {
            "number": 10,
            "ticks": 0,
            "time": 0,
            "value": 0.5039370078740157
          }
        ],
        "91": [
          {
            "number": 91,
            "ticks": 0,
            "time": 0,
            "value": 0.07086614173228346
          }
        ]
      },
      "pitchBends": [],
      "instrument": {
        "family": "drums",
        "number": 0,
        "name": "standard kit"
      },
      "name": "Snare Drum      ",
      "notes": [
        {
          "duration": 0.16071412499999838,
          "durationTicks": 72,
          "midi": 40,
          "name": "E2",
          "ticks": 70016,
          "time": 156.285558,
          "velocity": 1
        },
        {
          "duration": 0.16071412499999838,
          "durationTicks": 72,
          "midi": 38,
          "name": "D2",
          "ticks": 70016,
          "time": 156.285558,
          "velocity": 1
        },
        {
          "duration": 0.24999975000000063,
          "durationTicks": 112,
          "midi": 40,
          "name": "E2",
          "ticks": 70272,
          "time": 156.856986,
          "velocity": 1
        },
        {
          "duration": 0.24999975000000063,
          "durationTicks": 112,
          "midi": 38,
          "name": "D2",
          "ticks": 70272,
          "time": 156.856986,
          "velocity": 1
        }
      ],
      "endOfTrackTicks": 70384
    },
    {
      "channel": 9,
      "controlChanges": {
        "7": [
          {
            "number": 7,
            "ticks": 0,
            "time": 0,
            "value": 1
          }
        ],
        "10": [
          {
            "number": 10,
            "ticks": 0,
            "time": 0,
            "value": 0.5039370078740157
          }
        ],
        "91": [
          {
            "number": 91,
            "ticks": 0,
            "time": 0,
            "value": 0.07874015748031496
          }
        ]
      },
      "pitchBends": [],
      "instrument": {
        "family": "drums",
        "number": 0,
        "name": "standard kit"
      },
      "name": "Hihats          ",
      "notes": [
        {
          "duration": 0.3392853750000011,
          "durationTicks": 152,
          "midi": 42,
          "name": "F#2",
          "ticks": 4608,
          "time": 10.285704,
          "velocity": 1
        },
        {
          "duration": 0.35714250000000014,
          "durationTicks": 160,
          "midi": 42,
          "name": "F#2",
          "ticks": 4800,
          "time": 10.714275,
          "velocity": 1
        },
        {
          "duration": 0.3392853750000011,
          "durationTicks": 152,
          "midi": 42,
          "name": "F#2",
          "ticks": 4992,
          "time": 11.142846,
          "velocity": 1
        },
        {
          "duration": 0.17857125000000096,
          "durationTicks": 80,
          "midi": 42,
          "name": "F#2",
          "ticks": 5184,
          "time": 11.571417,
          "velocity": 1
        },
        {
          "duration": 0.035714249999999836,
          "durationTicks": 16,
          "midi": 42,
          "name": "F#2",
          "ticks": 5312,
          "time": 11.857131,
          "velocity": 1
        },
        {
          "duration": 0.33928537499999933,
          "durationTicks": 152,
          "midi": 42,
          "name": "F#2",
          "ticks": 5376,
          "time": 11.999988000000002,
          "velocity": 1
        },
        {
          "duration": 0.26785687499999966,
          "durationTicks": 120,
          "midi": 42,
          "name": "F#2",
          "ticks": 5568,
          "time": 12.428559000000002,
          "velocity": 1
        },
        {
          "duration": 0.24999974999999885,
          "durationTicks": 112,
          "midi": 42,
          "name": "F#2",
          "ticks": 5760,
          "time": 12.857130000000002,
          "velocity": 1
        },
        {
          "duration": 0.05357137500000064,
          "durationTicks": 24,
          "midi": 42,
          "name": "F#2",
          "ticks": 5952,
          "time": 13.285701000000001,
          "velocity": 1
        },
        {
          "duration": 0.03571425000000161,
          "durationTicks": 16,
          "midi": 42,
          "name": "F#2",
          "ticks": 6016,
          "time": 13.428558,
          "velocity": 1
        },
        {
          "duration": 0.17857125000000096,
          "durationTicks": 80,
          "midi": 42,
          "name": "F#2",
          "ticks": 6016,
          "time": 13.428558,
          "velocity": 1
        },
        {
          "duration": 0.3035711250000013,
          "durationTicks": 136,
          "midi": 42,
          "name": "F#2",
          "ticks": 6144,
          "time": 13.714272000000001,
          "velocity": 1
        },
        {
          "duration": 0.19642837500000176,
          "durationTicks": 88,
          "midi": 42,
          "name": "F#2",
          "ticks": 6336,
          "time": 14.142843000000001,
          "velocity": 1
        },
        {
          "duration": 0.05357137500000064,
          "durationTicks": 24,
          "midi": 42,
          "name": "F#2",
          "ticks": 6464,
          "time": 14.428557,
          "velocity": 1
        },
        {
          "duration": 0.3214282500000003,
          "durationTicks": 144,
          "midi": 42,
          "name": "F#2",
          "ticks": 6528,
          "time": 14.571414,
          "velocity": 1
        },
        {
          "duration": 0.3035711250000013,
          "durationTicks": 136,
          "midi": 42,
          "name": "F#2",
          "ticks": 6720,
          "time": 14.999985,
          "velocity": 1
        },
        {
          "duration": 0.2499997500000024,
          "durationTicks": 112,
          "midi": 42,
          "name": "F#2",
          "ticks": 6912,
          "time": 15.428556,
          "velocity": 1
        },
        {
          "duration": 0.1785712499999974,
          "durationTicks": 80,
          "midi": 42,
          "name": "F#2",
          "ticks": 7104,
          "time": 15.857127000000002,
          "velocity": 1
        },
        {
          "duration": 0.017857125000002583,
          "durationTicks": 8,
          "midi": 42,
          "name": "F#2",
          "ticks": 7232,
          "time": 16.142841,
          "velocity": 1
        },
        {
          "duration": 0.3214282500000003,
          "durationTicks": 144,
          "midi": 42,
          "name": "F#2",
          "ticks": 7296,
          "time": 16.285698,
          "velocity": 1
        },
        {
          "duration": 0.21428549999999902,
          "durationTicks": 96,
          "midi": 42,
          "name": "F#2",
          "ticks": 7488,
          "time": 16.714269,
          "velocity": 1
        },
        {
          "duration": 0.05357137500000064,
          "durationTicks": 24,
          "midi": 42,
          "name": "F#2",
          "ticks": 7616,
          "time": 16.999983,
          "velocity": 1
        },
        {
          "duration": 0.3214282500000003,
          "durationTicks": 144,
          "midi": 42,
          "name": "F#2",
          "ticks": 7680,
          "time": 17.14284,
          "velocity": 1
        },
        {
          "duration": 0.196428375,
          "durationTicks": 88,
          "midi": 42,
          "name": "F#2",
          "ticks": 7872,
          "time": 17.571411,
          "velocity": 1
        },
        {
          "duration": 0.07142850000000323,
          "durationTicks": 32,
          "midi": 42,
          "name": "F#2",
          "ticks": 8000,
          "time": 17.857125,
          "velocity": 1
        },
        {
          "duration": 0.3035711250000013,
          "durationTicks": 136,
          "midi": 42,
          "name": "F#2",
          "ticks": 8064,
          "time": 17.999982000000003,
          "velocity": 1
        },
        {
          "duration": 0.16071412500000193,
          "durationTicks": 72,
          "midi": 42,
          "name": "F#2",
          "ticks": 8256,
          "time": 18.428553,
          "velocity": 1
        },
        {
          "duration": 0.07142850000000323,
          "durationTicks": 32,
          "midi": 42,
          "name": "F#2",
          "ticks": 8384,
          "time": 18.714267,
          "velocity": 1
        },
        {
          "duration": 0.3214282500000003,
          "durationTicks": 144,
          "midi": 42,
          "name": "F#2",
          "ticks": 8448,
          "time": 18.857124000000002,
          "velocity": 1
        },
        {
          "duration": 0.33928537499999933,
          "durationTicks": 152,
          "midi": 42,
          "name": "F#2",
          "ticks": 8640,
          "time": 19.285695,
          "velocity": 1
        },
        {
          "duration": 0.1785712499999974,
          "durationTicks": 80,
          "midi": 42,
          "name": "F#2",
          "ticks": 8832,
          "time": 19.714266000000002,
          "velocity": 1
        },
        {
          "duration": 0.26785687499999966,
          "durationTicks": 120,
          "midi": 42,
          "name": "F#2",
          "ticks": 8960,
          "time": 19.99998,
          "velocity": 1
        },
        {
          "duration": 0.14285699999999935,
          "durationTicks": 64,
          "midi": 42,
          "name": "F#2",
          "ticks": 9088,
          "time": 20.285694000000003,
          "velocity": 1
        },
        {
          "duration": 0.05357137499999709,
          "durationTicks": 24,
          "midi": 42,
          "name": "F#2",
          "ticks": 9152,
          "time": 20.428551000000002,
          "velocity": 1
        },
        {
          "duration": 0.12499987500000032,
          "durationTicks": 56,
          "midi": 42,
          "name": "F#2",
          "ticks": 9152,
          "time": 20.428551000000002,
          "velocity": 1
        },
        {
          "duration": 0.05357137500000064,
          "durationTicks": 24,
          "midi": 42,
          "name": "F#2",
          "ticks": 9216,
          "time": 20.571408,
          "velocity": 1
        },
        {
          "duration": 0.26785687499999966,
          "durationTicks": 120,
          "midi": 42,
          "name": "F#2",
          "ticks": 10752,
          "time": 23.999976000000004,
          "velocity": 1
        },
        {
          "duration": 0.16071412500000193,
          "durationTicks": 72,
          "midi": 42,
          "name": "F#2",
          "ticks": 10944,
          "time": 24.428547000000002,
          "velocity": 1
        },
        {
          "duration": 0.3571425000000019,
          "durationTicks": 160,
          "midi": 42,
          "name": "F#2",
          "ticks": 11072,
          "time": 24.714261,
          "velocity": 1
        },
        {
          "duration": 0.1428570000000029,
          "durationTicks": 64,
          "midi": 42,
          "name": "F#2",
          "ticks": 11328,
          "time": 25.285689,
          "velocity": 1
        },
        {
          "duration": 0.05357137500000064,
          "durationTicks": 24,
          "midi": 42,
          "name": "F#2",
          "ticks": 11456,
          "time": 25.571403,
          "velocity": 1
        },
        {
          "duration": 0.03571425000000161,
          "durationTicks": 16,
          "midi": 42,
          "name": "F#2",
          "ticks": 11520,
          "time": 25.714260000000003,
          "velocity": 1
        },
        {
          "duration": 0.1428570000000029,
          "durationTicks": 64,
          "midi": 42,
          "name": "F#2",
          "ticks": 11712,
          "time": 26.142831,
          "velocity": 1
        },
        {
          "duration": 0.08928562500000226,
          "durationTicks": 40,
          "midi": 42,
          "name": "F#2",
          "ticks": 11840,
          "time": 26.428545,
          "velocity": 1
        },
        {
          "duration": 0.05357137500000064,
          "durationTicks": 24,
          "midi": 42,
          "name": "F#2",
          "ticks": 11904,
          "time": 26.571402000000003,
          "velocity": 1
        },
        {
          "duration": 0.03571425000000161,
          "durationTicks": 16,
          "midi": 42,
          "name": "F#2",
          "ticks": 12032,
          "time": 26.857116,
          "velocity": 1
        },
        {
          "duration": 0.05357137500000064,
          "durationTicks": 24,
          "midi": 42,
          "name": "F#2",
          "ticks": 12096,
          "time": 26.999973,
          "velocity": 1
        },
        {
          "duration": 0.16071412500000193,
          "durationTicks": 72,
          "midi": 42,
          "name": "F#2",
          "ticks": 12096,
          "time": 26.999973,
          "velocity": 1
        },
        {
          "duration": 0.0892856249999987,
          "durationTicks": 40,
          "midi": 42,
          "name": "F#2",
          "ticks": 12224,
          "time": 27.285687000000003,
          "velocity": 1
        },
        {
          "duration": 0.0892856249999987,
          "durationTicks": 40,
          "midi": 42,
          "name": "F#2",
          "ticks": 12288,
          "time": 27.428544000000002,
          "velocity": 1
        },
        {
          "duration": 0.12499987500000032,
          "durationTicks": 56,
          "midi": 42,
          "name": "F#2",
          "ticks": 12480,
          "time": 27.857115000000004,
          "velocity": 1
        },
        {
          "duration": 0.03571424999999451,
          "durationTicks": 16,
          "midi": 42,
          "name": "F#2",
          "ticks": 12608,
          "time": 28.142829000000006,
          "velocity": 1
        },
        {
          "duration": 0.26785687499999966,
          "durationTicks": 120,
          "midi": 42,
          "name": "F#2",
          "ticks": 12672,
          "time": 28.285686000000002,
          "velocity": 1
        },
        {
          "duration": 0.1428569999999958,
          "durationTicks": 64,
          "midi": 42,
          "name": "F#2",
          "ticks": 12864,
          "time": 28.714257000000003,
          "velocity": 1
        },
        {
          "duration": 0.03571424999999806,
          "durationTicks": 16,
          "midi": 42,
          "name": "F#2",
          "ticks": 12992,
          "time": 28.999971000000006,
          "velocity": 1
        },
        {
          "duration": 0.3035711249999977,
          "durationTicks": 136,
          "midi": 42,
          "name": "F#2",
          "ticks": 13056,
          "time": 29.142828,
          "velocity": 1
        },
        {
          "duration": 0.16071412499999838,
          "durationTicks": 72,
          "midi": 42,
          "name": "F#2",
          "ticks": 13248,
          "time": 29.571399000000003,
          "velocity": 1
        },
        {
          "duration": 0.05357137500000064,
          "durationTicks": 24,
          "midi": 42,
          "name": "F#2",
          "ticks": 13376,
          "time": 29.857113000000005,
          "velocity": 1
        },
        {
          "duration": 0.16071412500000193,
          "durationTicks": 72,
          "midi": 42,
          "name": "F#2",
          "ticks": 13440,
          "time": 29.99997,
          "velocity": 1
        },
        {
          "duration": 0.05357137500000064,
          "durationTicks": 24,
          "midi": 42,
          "name": "F#2",
          "ticks": 13568,
          "time": 30.285684000000003,
          "velocity": 1
        },
        {
          "duration": 0.12499987500000032,
          "durationTicks": 56,
          "midi": 42,
          "name": "F#2",
          "ticks": 13632,
          "time": 30.428541000000003,
          "velocity": 1
        },
        {
          "duration": 0.07142849999999612,
          "durationTicks": 32,
          "midi": 42,
          "name": "F#2",
          "ticks": 13760,
          "time": 30.714255000000005,
          "velocity": 1
        },
        {
          "duration": 0.2678568750000032,
          "durationTicks": 120,
          "midi": 42,
          "name": "F#2",
          "ticks": 13824,
          "time": 30.857112,
          "velocity": 1
        },
        {
          "duration": 0.16071412500000193,
          "durationTicks": 72,
          "midi": 42,
          "name": "F#2",
          "ticks": 14016,
          "time": 31.285683000000002,
          "velocity": 1
        },
        {
          "duration": 0.03571424999999806,
          "durationTicks": 16,
          "midi": 42,
          "name": "F#2",
          "ticks": 14144,
          "time": 31.571397000000005,
          "velocity": 1
        },
        {
          "duration": 0.28571400000000224,
          "durationTicks": 128,
          "midi": 42,
          "name": "F#2",
          "ticks": 14208,
          "time": 31.714254000000004,
          "velocity": 1
        },
        {
          "duration": 0.08928562499999515,
          "durationTicks": 40,
          "midi": 42,
          "name": "F#2",
          "ticks": 14400,
          "time": 32.142825,
          "velocity": 1
        },
        {
          "duration": 0.017857124999991925,
          "durationTicks": 8,
          "midi": 42,
          "name": "F#2",
          "ticks": 14528,
          "time": 32.42853900000001,
          "velocity": 1
        },
        {
          "duration": 0.10714275000000129,
          "durationTicks": 48,
          "midi": 42,
          "name": "F#2",
          "ticks": 14592,
          "time": 32.571396,
          "velocity": 1
        },
        {
          "duration": 0.16071412499999838,
          "durationTicks": 72,
          "midi": 42,
          "name": "F#2",
          "ticks": 14656,
          "time": 32.714253,
          "velocity": 1
        },
        {
          "duration": 0.14285699999999224,
          "durationTicks": 64,
          "midi": 42,
          "name": "F#2",
          "ticks": 14784,
          "time": 32.999967000000005,
          "velocity": 1
        },
        {
          "duration": 0.07142849999999612,
          "durationTicks": 32,
          "midi": 42,
          "name": "F#2",
          "ticks": 14912,
          "time": 33.285681000000004,
          "velocity": 1
        },
        {
          "duration": 0.10714275000000129,
          "durationTicks": 48,
          "midi": 42,
          "name": "F#2",
          "ticks": 14976,
          "time": 33.428538,
          "velocity": 1
        },
        {
          "duration": 0.053571375000004195,
          "durationTicks": 24,
          "midi": 42,
          "name": "F#2",
          "ticks": 15104,
          "time": 33.714252,
          "velocity": 1
        },
        {
          "duration": 0.08928562500000226,
          "durationTicks": 40,
          "midi": 42,
          "name": "F#2",
          "ticks": 15168,
          "time": 33.857109,
          "velocity": 1
        },
        {
          "duration": 0.03571424999999806,
          "durationTicks": 16,
          "midi": 42,
          "name": "F#2",
          "ticks": 15296,
          "time": 34.14282300000001,
          "velocity": 1
        },
        {
          "duration": 0.07142850000000323,
          "durationTicks": 32,
          "midi": 42,
          "name": "F#2",
          "ticks": 15360,
          "time": 34.28568,
          "velocity": 1
        },
        {
          "duration": 0.03571424999999806,
          "durationTicks": 16,
          "midi": 42,
          "name": "F#2",
          "ticks": 15488,
          "time": 34.571394000000005,
          "velocity": 1
        },
        {
          "duration": 0.07142850000000323,
          "durationTicks": 32,
          "midi": 42,
          "name": "F#2",
          "ticks": 15552,
          "time": 34.714251000000004,
          "velocity": 1
        },
        {
          "duration": 0.03571424999999806,
          "durationTicks": 16,
          "midi": 42,
          "name": "F#2",
          "ticks": 15680,
          "time": 34.999965,
          "velocity": 1
        },
        {
          "duration": 0.07142850000000323,
          "durationTicks": 32,
          "midi": 42,
          "name": "F#2",
          "ticks": 15744,
          "time": 35.142822,
          "velocity": 1
        },
        {
          "duration": 0.03571424999999806,
          "durationTicks": 16,
          "midi": 42,
          "name": "F#2",
          "ticks": 15872,
          "time": 35.42853600000001,
          "velocity": 1
        },
        {
          "duration": 0.08928562500000226,
          "durationTicks": 40,
          "midi": 42,
          "name": "F#2",
          "ticks": 15936,
          "time": 35.571393,
          "velocity": 1
        },
        {
          "duration": 0.03571424999999806,
          "durationTicks": 16,
          "midi": 42,
          "name": "F#2",
          "ticks": 16064,
          "time": 35.857107000000006,
          "velocity": 1
        },
        {
          "duration": 0.19642837499999644,
          "durationTicks": 88,
          "midi": 42,
          "name": "F#2",
          "ticks": 16128,
          "time": 35.999964000000006,
          "velocity": 1
        },
        {
          "duration": 0.08928562499999515,
          "durationTicks": 40,
          "midi": 42,
          "name": "F#2",
          "ticks": 16320,
          "time": 36.428535000000004,
          "velocity": 1
        },
        {
          "duration": 0.03571424999999806,
          "durationTicks": 16,
          "midi": 42,
          "name": "F#2",
          "ticks": 16448,
          "time": 36.714249,
          "velocity": 1
        },
        {
          "duration": 0.07142850000000323,
          "durationTicks": 32,
          "midi": 42,
          "name": "F#2",
          "ticks": 16512,
          "time": 36.857106,
          "velocity": 1
        },
        {
          "duration": 0.03571424999999806,
          "durationTicks": 16,
          "midi": 42,
          "name": "F#2",
          "ticks": 16640,
          "time": 37.14282000000001,
          "velocity": 1
        },
        {
          "duration": 0.03571424999999806,
          "durationTicks": 16,
          "midi": 42,
          "name": "F#2",
          "ticks": 16704,
          "time": 37.285677,
          "velocity": 1
        },
        {
          "duration": 0.14285699999999935,
          "durationTicks": 64,
          "midi": 44,
          "name": "G#2",
          "ticks": 16704,
          "time": 37.285677,
          "velocity": 1
        },
        {
          "duration": 0.12499987500000742,
          "durationTicks": 56,
          "midi": 42,
          "name": "F#2",
          "ticks": 16768,
          "time": 37.428534,
          "velocity": 1
        },
        {
          "duration": 0.05357137499999709,
          "durationTicks": 24,
          "midi": 42,
          "name": "F#2",
          "ticks": 16896,
          "time": 37.714248000000005,
          "velocity": 1
        },
        {
          "duration": 0.07142850000000323,
          "durationTicks": 32,
          "midi": 42,
          "name": "F#2",
          "ticks": 17088,
          "time": 38.142819,
          "velocity": 1
        },
        {
          "duration": 0.07142849999998901,
          "durationTicks": 32,
          "midi": 42,
          "name": "F#2",
          "ticks": 17216,
          "time": 38.42853300000001,
          "velocity": 1
        },
        {
          "duration": 0.08928562500000226,
          "durationTicks": 40,
          "midi": 42,
          "name": "F#2",
          "ticks": 17280,
          "time": 38.57139,
          "velocity": 1
        },
        {
          "duration": 0.10714274999999418,
          "durationTicks": 48,
          "midi": 42,
          "name": "F#2",
          "ticks": 17472,
          "time": 38.999961000000006,
          "velocity": 1
        },
        {
          "duration": 0.07142849999999612,
          "durationTicks": 32,
          "midi": 42,
          "name": "F#2",
          "ticks": 17600,
          "time": 39.285675000000005,
          "velocity": 1
        },
        {
          "duration": 0.08928562499999515,
          "durationTicks": 40,
          "midi": 42,
          "name": "F#2",
          "ticks": 17664,
          "time": 39.428532000000004,
          "velocity": 1
        },
        {
          "duration": 0.10714275000000129,
          "durationTicks": 48,
          "midi": 42,
          "name": "F#2",
          "ticks": 17856,
          "time": 39.857103,
          "velocity": 1
        },
        {
          "duration": 0.07142849999999612,
          "durationTicks": 32,
          "midi": 42,
          "name": "F#2",
          "ticks": 17984,
          "time": 40.14281700000001,
          "velocity": 1
        },
        {
          "duration": 0.21428550000000257,
          "durationTicks": 96,
          "midi": 42,
          "name": "F#2",
          "ticks": 18048,
          "time": 40.285674,
          "velocity": 1
        },
        {
          "duration": 0.08928562499999515,
          "durationTicks": 40,
          "midi": 42,
          "name": "F#2",
          "ticks": 18240,
          "time": 40.714245000000005,
          "velocity": 1
        },
        {
          "duration": 0.053571375000004195,
          "durationTicks": 24,
          "midi": 42,
          "name": "F#2",
          "ticks": 18368,
          "time": 40.999959000000004,
          "velocity": 1
        },
        {
          "duration": 0.05357137499999709,
          "durationTicks": 24,
          "midi": 42,
          "name": "F#2",
          "ticks": 18432,
          "time": 41.142816,
          "velocity": 1
        },
        {
          "duration": 0.03571424999999806,
          "durationTicks": 16,
          "midi": 42,
          "name": "F#2",
          "ticks": 18624,
          "time": 41.571387,
          "velocity": 1
        },
        {
          "duration": 0.05357137499999709,
          "durationTicks": 24,
          "midi": 42,
          "name": "F#2",
          "ticks": 18752,
          "time": 41.85710100000001,
          "velocity": 1
        },
        {
          "duration": 0.03571424999999806,
          "durationTicks": 16,
          "midi": 42,
          "name": "F#2",
          "ticks": 18816,
          "time": 41.99995800000001,
          "velocity": 1
        },
        {
          "duration": 0.03571424999999806,
          "durationTicks": 16,
          "midi": 42,
          "name": "F#2",
          "ticks": 19008,
          "time": 42.428529000000005,
          "velocity": 1
        },
        {
          "duration": 0.053571375000004195,
          "durationTicks": 24,
          "midi": 42,
          "name": "F#2",
          "ticks": 19136,
          "time": 42.714243,
          "velocity": 1
        },
        {
          "duration": 0.053571375000004195,
          "durationTicks": 24,
          "midi": 42,
          "name": "F#2",
          "ticks": 19200,
          "time": 42.8571,
          "velocity": 1
        },
        {
          "duration": 0.07142850000000323,
          "durationTicks": 32,
          "midi": 42,
          "name": "F#2",
          "ticks": 19392,
          "time": 43.285671,
          "velocity": 1
        },
        {
          "duration": 0.07142849999999612,
          "durationTicks": 32,
          "midi": 42,
          "name": "F#2",
          "ticks": 19520,
          "time": 43.57138500000001,
          "velocity": 1
        },
        {
          "duration": 0.07142850000000323,
          "durationTicks": 32,
          "midi": 42,
          "name": "F#2",
          "ticks": 19584,
          "time": 43.714242000000006,
          "velocity": 1
        },
        {
          "duration": 0.07142850000000323,
          "durationTicks": 32,
          "midi": 42,
          "name": "F#2",
          "ticks": 19776,
          "time": 44.142813000000004,
          "velocity": 1
        },
        {
          "duration": 0.053571375000004195,
          "durationTicks": 24,
          "midi": 42,
          "name": "F#2",
          "ticks": 19904,
          "time": 44.428527,
          "velocity": 1
        },
        {
          "duration": 0.03571424999999806,
          "durationTicks": 16,
          "midi": 42,
          "name": "F#2",
          "ticks": 19968,
          "time": 44.571384,
          "velocity": 1
        },
        {
          "duration": 0.07142849999999612,
          "durationTicks": 32,
          "midi": 42,
          "name": "F#2",
          "ticks": 20160,
          "time": 44.99995500000001,
          "velocity": 1
        },
        {
          "duration": 0.14285700000000645,
          "durationTicks": 64,
          "midi": 42,
          "name": "F#2",
          "ticks": 20224,
          "time": 45.142812,
          "velocity": 1
        },
        {
          "duration": 0.03571424999999806,
          "durationTicks": 16,
          "midi": 42,
          "name": "F#2",
          "ticks": 20352,
          "time": 45.428526000000005,
          "velocity": 1
        },
        {
          "duration": 0.017857125000006135,
          "durationTicks": 8,
          "midi": 42,
          "name": "F#2",
          "ticks": 20544,
          "time": 45.857097,
          "velocity": 1
        },
        {
          "duration": 0.017857125000006135,
          "durationTicks": 8,
          "midi": 42,
          "name": "F#2",
          "ticks": 20544,
          "time": 45.857097,
          "velocity": 1
        },
        {
          "duration": 0.14285700000000645,
          "durationTicks": 64,
          "midi": 42,
          "name": "F#2",
          "ticks": 20608,
          "time": 45.999954,
          "velocity": 1
        },
        {
          "duration": 0.053571375000004195,
          "durationTicks": 24,
          "midi": 42,
          "name": "F#2",
          "ticks": 20736,
          "time": 46.285668,
          "velocity": 1
        },
        {
          "duration": 0.05357137499999709,
          "durationTicks": 24,
          "midi": 42,
          "name": "F#2",
          "ticks": 20928,
          "time": 46.714239000000006,
          "velocity": 1
        },
        {
          "duration": 0.07142849999999612,
          "durationTicks": 32,
          "midi": 42,
          "name": "F#2",
          "ticks": 21056,
          "time": 46.999953000000005,
          "velocity": 1
        },
        {
          "duration": 0.07142850000000323,
          "durationTicks": 32,
          "midi": 42,
          "name": "F#2",
          "ticks": 21120,
          "time": 47.142810000000004,
          "velocity": 1
        },
        {
          "duration": 0.03571424999999806,
          "durationTicks": 16,
          "midi": 42,
          "name": "F#2",
          "ticks": 21312,
          "time": 47.571381,
          "velocity": 1
        },
        {
          "duration": 0.05357137499999709,
          "durationTicks": 24,
          "midi": 42,
          "name": "F#2",
          "ticks": 21440,
          "time": 47.85709500000001,
          "velocity": 1
        },
        {
          "duration": 0.035714249999990955,
          "durationTicks": 16,
          "midi": 44,
          "name": "G#2",
          "ticks": 21504,
          "time": 47.99995200000001,
          "velocity": 1
        },
        {
          "duration": 0.2321426250000016,
          "durationTicks": 104,
          "midi": 42,
          "name": "F#2",
          "ticks": 23040,
          "time": 51.428520000000006,
          "velocity": 1
        },
        {
          "duration": 0.21428550000000257,
          "durationTicks": 96,
          "midi": 42,
          "name": "F#2",
          "ticks": 23232,
          "time": 51.857091000000004,
          "velocity": 1
        },
        {
          "duration": 0.16071412500000548,
          "durationTicks": 72,
          "midi": 42,
          "name": "F#2",
          "ticks": 23424,
          "time": 52.285662,
          "velocity": 1
        },
        {
          "duration": 0.03571424999999806,
          "durationTicks": 16,
          "midi": 42,
          "name": "F#2",
          "ticks": 23616,
          "time": 52.71423300000001,
          "velocity": 1
        },
        {
          "duration": 0.16071412500000548,
          "durationTicks": 72,
          "midi": 42,
          "name": "F#2",
          "ticks": 23680,
          "time": 52.85709,
          "velocity": 1
        },
        {
          "duration": 0.12499987500000032,
          "durationTicks": 56,
          "midi": 42,
          "name": "F#2",
          "ticks": 23808,
          "time": 53.142804000000005,
          "velocity": 1
        },
        {
          "duration": 0.053571375000004195,
          "durationTicks": 24,
          "midi": 42,
          "name": "F#2",
          "ticks": 24000,
          "time": 53.571375,
          "velocity": 1
        },
        {
          "duration": 0.017857125000006135,
          "durationTicks": 8,
          "midi": 42,
          "name": "F#2",
          "ticks": 24192,
          "time": 53.999946,
          "velocity": 1
        },
        {
          "duration": 0.01785712499999903,
          "durationTicks": 8,
          "midi": 42,
          "name": "F#2",
          "ticks": 24384,
          "time": 54.42851700000001,
          "velocity": 1
        },
        {
          "duration": 0.053571375000004195,
          "durationTicks": 24,
          "midi": 42,
          "name": "F#2",
          "ticks": 24512,
          "time": 54.714231000000005,
          "velocity": 1
        },
        {
          "duration": 0.05357137499999709,
          "durationTicks": 24,
          "midi": 42,
          "name": "F#2",
          "ticks": 24576,
          "time": 54.857088000000005,
          "velocity": 1
        },
        {
          "duration": 0.053571375000004195,
          "durationTicks": 24,
          "midi": 42,
          "name": "F#2",
          "ticks": 24768,
          "time": 55.285659,
          "velocity": 1
        },
        {
          "duration": 0.05357137499999709,
          "durationTicks": 24,
          "midi": 42,
          "name": "F#2",
          "ticks": 24960,
          "time": 55.71423000000001,
          "velocity": 1
        },
        {
          "duration": 0.035714250000005165,
          "durationTicks": 16,
          "midi": 42,
          "name": "F#2",
          "ticks": 25152,
          "time": 56.142801000000006,
          "velocity": 1
        },
        {
          "duration": 0.07142850000001033,
          "durationTicks": 32,
          "midi": 42,
          "name": "F#2",
          "ticks": 25280,
          "time": 56.428515,
          "velocity": 1
        },
        {
          "duration": 0.053571375000004195,
          "durationTicks": 24,
          "midi": 42,
          "name": "F#2",
          "ticks": 25344,
          "time": 56.571372000000004,
          "velocity": 1
        },
        {
          "duration": 0.053571375000004195,
          "durationTicks": 24,
          "midi": 42,
          "name": "F#2",
          "ticks": 25536,
          "time": 56.999943,
          "velocity": 1
        },
        {
          "duration": 0.035714250000005165,
          "durationTicks": 16,
          "midi": 42,
          "name": "F#2",
          "ticks": 25728,
          "time": 57.42851400000001,
          "velocity": 1
        },
        {
          "duration": 0.035714250000005165,
          "durationTicks": 16,
          "midi": 42,
          "name": "F#2",
          "ticks": 25920,
          "time": 57.857085000000005,
          "velocity": 1
        },
        {
          "duration": 0.05357137499999709,
          "durationTicks": 24,
          "midi": 42,
          "name": "F#2",
          "ticks": 26048,
          "time": 58.142799000000004,
          "velocity": 1
        },
        {
          "duration": 0.035714250000005165,
          "durationTicks": 16,
          "midi": 42,
          "name": "F#2",
          "ticks": 26112,
          "time": 58.285656,
          "velocity": 1
        },
        {
          "duration": 0.07142849999999612,
          "durationTicks": 32,
          "midi": 42,
          "name": "F#2",
          "ticks": 26304,
          "time": 58.71422700000001,
          "velocity": 1
        },
        {
          "duration": 0.05357137499999709,
          "durationTicks": 24,
          "midi": 42,
          "name": "F#2",
          "ticks": 26496,
          "time": 59.142798000000006,
          "velocity": 1
        },
        {
          "duration": 0.01785712499999903,
          "durationTicks": 8,
          "midi": 42,
          "name": "F#2",
          "ticks": 26688,
          "time": 59.571369000000004,
          "velocity": 1
        },
        {
          "duration": 0.14285699999999224,
          "durationTicks": 64,
          "midi": 42,
          "name": "F#2",
          "ticks": 26752,
          "time": 59.71422600000001,
          "velocity": 1
        },
        {
          "duration": 0.035714250000005165,
          "durationTicks": 16,
          "midi": 42,
          "name": "F#2",
          "ticks": 26880,
          "time": 59.99994,
          "velocity": 1
        },
        {
          "duration": 0.05357137499999709,
          "durationTicks": 24,
          "midi": 42,
          "name": "F#2",
          "ticks": 27072,
          "time": 60.42851100000001,
          "velocity": 1
        },
        {
          "duration": 0.035714250000005165,
          "durationTicks": 16,
          "midi": 42,
          "name": "F#2",
          "ticks": 27264,
          "time": 60.857082000000005,
          "velocity": 1
        },
        {
          "duration": 0.053571375000004195,
          "durationTicks": 24,
          "midi": 42,
          "name": "F#2",
          "ticks": 27456,
          "time": 61.285653,
          "velocity": 1
        },
        {
          "duration": 0.14285699999999224,
          "durationTicks": 64,
          "midi": 42,
          "name": "F#2",
          "ticks": 27520,
          "time": 61.42851000000001,
          "velocity": 1
        },
        {
          "duration": 0.01785712499999903,
          "durationTicks": 8,
          "midi": 42,
          "name": "F#2",
          "ticks": 27648,
          "time": 61.714224,
          "velocity": 1
        },
        {
          "duration": 0.05357137499999709,
          "durationTicks": 24,
          "midi": 42,
          "name": "F#2",
          "ticks": 27840,
          "time": 62.14279500000001,
          "velocity": 1
        },
        {
          "duration": 0.035714250000005165,
          "durationTicks": 16,
          "midi": 42,
          "name": "F#2",
          "ticks": 28032,
          "time": 62.571366000000005,
          "velocity": 1
        },
        {
          "duration": 0.035714250000005165,
          "durationTicks": 16,
          "midi": 42,
          "name": "F#2",
          "ticks": 28224,
          "time": 62.999937,
          "velocity": 1
        },
        {
          "duration": 0.07142849999999612,
          "durationTicks": 32,
          "midi": 42,
          "name": "F#2",
          "ticks": 28416,
          "time": 63.42850800000001,
          "velocity": 1
        },
        {
          "duration": 0.07142849999999612,
          "durationTicks": 32,
          "midi": 42,
          "name": "F#2",
          "ticks": 28800,
          "time": 64.28565,
          "velocity": 1
        },
        {
          "duration": 0.08928562500000226,
          "durationTicks": 40,
          "midi": 42,
          "name": "F#2",
          "ticks": 28992,
          "time": 64.71422100000001,
          "velocity": 1
        },
        {
          "duration": 0.12499987500000032,
          "durationTicks": 56,
          "midi": 42,
          "name": "F#2",
          "ticks": 29376,
          "time": 65.571363,
          "velocity": 1
        },
        {
          "duration": 0.3392853749999887,
          "durationTicks": 152,
          "midi": 42,
          "name": "F#2",
          "ticks": 29952,
          "time": 66.857076,
          "velocity": 1
        },
        {
          "duration": 0.3571424999999948,
          "durationTicks": 160,
          "midi": 42,
          "name": "F#2",
          "ticks": 30144,
          "time": 67.28564700000001,
          "velocity": 1
        },
        {
          "duration": 0.3392853750000029,
          "durationTicks": 152,
          "midi": 42,
          "name": "F#2",
          "ticks": 30336,
          "time": 67.714218,
          "velocity": 1
        },
        {
          "duration": 0.1785712499999903,
          "durationTicks": 80,
          "midi": 42,
          "name": "F#2",
          "ticks": 30528,
          "time": 68.14278900000001,
          "velocity": 1
        },
        {
          "duration": 0.03571424999999806,
          "durationTicks": 16,
          "midi": 42,
          "name": "F#2",
          "ticks": 30656,
          "time": 68.428503,
          "velocity": 1
        },
        {
          "duration": 0.3392853750000029,
          "durationTicks": 152,
          "midi": 42,
          "name": "F#2",
          "ticks": 30720,
          "time": 68.57136,
          "velocity": 1
        },
        {
          "duration": 0.26785687500000677,
          "durationTicks": 120,
          "midi": 42,
          "name": "F#2",
          "ticks": 30912,
          "time": 68.999931,
          "velocity": 1
        },
        {
          "duration": 0.24999975000000063,
          "durationTicks": 112,
          "midi": 42,
          "name": "F#2",
          "ticks": 31104,
          "time": 69.42850200000001,
          "velocity": 1
        },
        {
          "duration": 0.053571375000004195,
          "durationTicks": 24,
          "midi": 42,
          "name": "F#2",
          "ticks": 31296,
          "time": 69.857073,
          "velocity": 1
        },
        {
          "duration": 0.03571424999999806,
          "durationTicks": 16,
          "midi": 42,
          "name": "F#2",
          "ticks": 31360,
          "time": 69.99993,
          "velocity": 1
        },
        {
          "duration": 0.1785712500000045,
          "durationTicks": 80,
          "midi": 42,
          "name": "F#2",
          "ticks": 31360,
          "time": 69.99993,
          "velocity": 1
        },
        {
          "duration": 0.3035711250000048,
          "durationTicks": 136,
          "midi": 42,
          "name": "F#2",
          "ticks": 31488,
          "time": 70.285644,
          "velocity": 1
        },
        {
          "duration": 0.19642837499999644,
          "durationTicks": 88,
          "midi": 42,
          "name": "F#2",
          "ticks": 31680,
          "time": 70.71421500000001,
          "velocity": 1
        },
        {
          "duration": 0.053571374999989985,
          "durationTicks": 24,
          "midi": 42,
          "name": "F#2",
          "ticks": 31808,
          "time": 70.99992900000001,
          "velocity": 1
        },
        {
          "duration": 0.32142825000001096,
          "durationTicks": 144,
          "midi": 42,
          "name": "F#2",
          "ticks": 31872,
          "time": 71.142786,
          "velocity": 1
        },
        {
          "duration": 0.3035711250000048,
          "durationTicks": 136,
          "midi": 42,
          "name": "F#2",
          "ticks": 32064,
          "time": 71.571357,
          "velocity": 1
        },
        {
          "duration": 0.24999975000000063,
          "durationTicks": 112,
          "midi": 42,
          "name": "F#2",
          "ticks": 32256,
          "time": 71.99992800000001,
          "velocity": 1
        },
        {
          "duration": 0.1785712500000045,
          "durationTicks": 80,
          "midi": 42,
          "name": "F#2",
          "ticks": 32448,
          "time": 72.428499,
          "velocity": 1
        },
        {
          "duration": 0.017857125000006135,
          "durationTicks": 8,
          "midi": 42,
          "name": "F#2",
          "ticks": 32576,
          "time": 72.714213,
          "velocity": 1
        },
        {
          "duration": 0.32142824999999675,
          "durationTicks": 144,
          "midi": 42,
          "name": "F#2",
          "ticks": 32640,
          "time": 72.85707000000001,
          "velocity": 1
        },
        {
          "duration": 0.21428549999998836,
          "durationTicks": 96,
          "midi": 42,
          "name": "F#2",
          "ticks": 32832,
          "time": 73.28564100000001,
          "velocity": 1
        },
        {
          "duration": 0.053571375000004195,
          "durationTicks": 24,
          "midi": 42,
          "name": "F#2",
          "ticks": 32960,
          "time": 73.571355,
          "velocity": 1
        },
        {
          "duration": 0.32142824999999675,
          "durationTicks": 144,
          "midi": 42,
          "name": "F#2",
          "ticks": 33024,
          "time": 73.714212,
          "velocity": 1
        },
        {
          "duration": 0.19642837499999644,
          "durationTicks": 88,
          "midi": 42,
          "name": "F#2",
          "ticks": 33216,
          "time": 74.14278300000001,
          "velocity": 1
        },
        {
          "duration": 0.07142849999999612,
          "durationTicks": 32,
          "midi": 42,
          "name": "F#2",
          "ticks": 33344,
          "time": 74.42849700000001,
          "velocity": 1
        },
        {
          "duration": 0.3035711250000048,
          "durationTicks": 136,
          "midi": 42,
          "name": "F#2",
          "ticks": 33408,
          "time": 74.571354,
          "velocity": 1
        },
        {
          "duration": 0.16071412499999838,
          "durationTicks": 72,
          "midi": 42,
          "name": "F#2",
          "ticks": 33600,
          "time": 74.999925,
          "velocity": 1
        },
        {
          "duration": 0.07142850000001033,
          "durationTicks": 32,
          "midi": 42,
          "name": "F#2",
          "ticks": 33728,
          "time": 75.285639,
          "velocity": 1
        },
        {
          "duration": 0.32142824999999675,
          "durationTicks": 144,
          "midi": 42,
          "name": "F#2",
          "ticks": 33792,
          "time": 75.42849600000001,
          "velocity": 1
        },
        {
          "duration": 0.3392853750000029,
          "durationTicks": 152,
          "midi": 42,
          "name": "F#2",
          "ticks": 33984,
          "time": 75.857067,
          "velocity": 1
        },
        {
          "duration": 0.1785712499999903,
          "durationTicks": 80,
          "midi": 42,
          "name": "F#2",
          "ticks": 34176,
          "time": 76.285638,
          "velocity": 1
        },
        {
          "duration": 0.26785687499999256,
          "durationTicks": 120,
          "midi": 42,
          "name": "F#2",
          "ticks": 34304,
          "time": 76.571352,
          "velocity": 1
        },
        {
          "duration": 0.14285699999997803,
          "durationTicks": 64,
          "midi": 42,
          "name": "F#2",
          "ticks": 34432,
          "time": 76.85706600000002,
          "velocity": 1
        },
        {
          "duration": 0.053571375000004195,
          "durationTicks": 24,
          "midi": 42,
          "name": "F#2",
          "ticks": 34496,
          "time": 76.999923,
          "velocity": 1
        },
        {
          "duration": 0.12499987500001453,
          "durationTicks": 56,
          "midi": 42,
          "name": "F#2",
          "ticks": 34496,
          "time": 76.999923,
          "velocity": 1
        },
        {
          "duration": 0.053571375000004195,
          "durationTicks": 24,
          "midi": 42,
          "name": "F#2",
          "ticks": 34560,
          "time": 77.14278,
          "velocity": 1
        },
        {
          "duration": 0.26785687500000677,
          "durationTicks": 120,
          "midi": 42,
          "name": "F#2",
          "ticks": 36096,
          "time": 80.571348,
          "velocity": 1
        },
        {
          "duration": 0.16071412499999838,
          "durationTicks": 72,
          "midi": 42,
          "name": "F#2",
          "ticks": 36288,
          "time": 80.999919,
          "velocity": 1
        },
        {
          "duration": 0.357142500000009,
          "durationTicks": 160,
          "midi": 42,
          "name": "F#2",
          "ticks": 36416,
          "time": 81.285633,
          "velocity": 1
        },
        {
          "duration": 0.14285700000000645,
          "durationTicks": 64,
          "midi": 42,
          "name": "F#2",
          "ticks": 36672,
          "time": 81.857061,
          "velocity": 1
        },
        {
          "duration": 0.053571375000004195,
          "durationTicks": 24,
          "midi": 42,
          "name": "F#2",
          "ticks": 36800,
          "time": 82.142775,
          "velocity": 1
        },
        {
          "duration": 0.03571424999999806,
          "durationTicks": 16,
          "midi": 42,
          "name": "F#2",
          "ticks": 36864,
          "time": 82.285632,
          "velocity": 1
        },
        {
          "duration": 0.14285699999999224,
          "durationTicks": 64,
          "midi": 42,
          "name": "F#2",
          "ticks": 37056,
          "time": 82.71420300000001,
          "velocity": 1
        },
        {
          "duration": 0.08928562500001647,
          "durationTicks": 40,
          "midi": 42,
          "name": "F#2",
          "ticks": 37184,
          "time": 82.999917,
          "velocity": 1
        },
        {
          "duration": 0.053571375000004195,
          "durationTicks": 24,
          "midi": 42,
          "name": "F#2",
          "ticks": 37248,
          "time": 83.142774,
          "velocity": 1
        },
        {
          "duration": 0.03571425000001227,
          "durationTicks": 16,
          "midi": 42,
          "name": "F#2",
          "ticks": 37376,
          "time": 83.428488,
          "velocity": 1
        },
        {
          "duration": 0.053571375000004195,
          "durationTicks": 24,
          "midi": 42,
          "name": "F#2",
          "ticks": 37440,
          "time": 83.57134500000001,
          "velocity": 1
        },
        {
          "duration": 0.16071412499999838,
          "durationTicks": 72,
          "midi": 42,
          "name": "F#2",
          "ticks": 37440,
          "time": 83.57134500000001,
          "velocity": 1
        },
        {
          "duration": 0.08928562500000226,
          "durationTicks": 40,
          "midi": 42,
          "name": "F#2",
          "ticks": 37568,
          "time": 83.857059,
          "velocity": 1
        },
        {
          "duration": 0.08928562500000226,
          "durationTicks": 40,
          "midi": 42,
          "name": "F#2",
          "ticks": 37632,
          "time": 83.99991600000001,
          "velocity": 1
        },
        {
          "duration": 0.12499987500000032,
          "durationTicks": 56,
          "midi": 42,
          "name": "F#2",
          "ticks": 37824,
          "time": 84.428487,
          "velocity": 1
        },
        {
          "duration": 0.03571424999999806,
          "durationTicks": 16,
          "midi": 42,
          "name": "F#2",
          "ticks": 37952,
          "time": 84.714201,
          "velocity": 1
        },
        {
          "duration": 0.26785687499999256,
          "durationTicks": 120,
          "midi": 42,
          "name": "F#2",
          "ticks": 38016,
          "time": 84.85705800000001,
          "velocity": 1
        },
        {
          "duration": 0.14285700000000645,
          "durationTicks": 64,
          "midi": 42,
          "name": "F#2",
          "ticks": 38208,
          "time": 85.285629,
          "velocity": 1
        },
        {
          "duration": 0.03571425000001227,
          "durationTicks": 16,
          "midi": 42,
          "name": "F#2",
          "ticks": 38336,
          "time": 85.571343,
          "velocity": 1
        },
        {
          "duration": 0.3035711250000048,
          "durationTicks": 136,
          "midi": 42,
          "name": "F#2",
          "ticks": 38400,
          "time": 85.7142,
          "velocity": 1
        },
        {
          "duration": 0.16071412499999838,
          "durationTicks": 72,
          "midi": 42,
          "name": "F#2",
          "ticks": 38592,
          "time": 86.14277100000001,
          "velocity": 1
        },
        {
          "duration": 0.053571374999989985,
          "durationTicks": 24,
          "midi": 42,
          "name": "F#2",
          "ticks": 38720,
          "time": 86.42848500000001,
          "velocity": 1
        },
        {
          "duration": 0.1607141250000126,
          "durationTicks": 72,
          "midi": 42,
          "name": "F#2",
          "ticks": 38784,
          "time": 86.571342,
          "velocity": 1
        },
        {
          "duration": 0.053571375000004195,
          "durationTicks": 24,
          "midi": 42,
          "name": "F#2",
          "ticks": 38912,
          "time": 86.857056,
          "velocity": 1
        },
        {
          "duration": 0.12499987500000032,
          "durationTicks": 56,
          "midi": 42,
          "name": "F#2",
          "ticks": 38976,
          "time": 86.999913,
          "velocity": 1
        },
        {
          "duration": 0.07142850000001033,
          "durationTicks": 32,
          "midi": 42,
          "name": "F#2",
          "ticks": 39104,
          "time": 87.285627,
          "velocity": 1
        },
        {
          "duration": 0.26785687499999256,
          "durationTicks": 120,
          "midi": 42,
          "name": "F#2",
          "ticks": 39168,
          "time": 87.42848400000001,
          "velocity": 1
        },
        {
          "duration": 0.16071412499999838,
          "durationTicks": 72,
          "midi": 42,
          "name": "F#2",
          "ticks": 39360,
          "time": 87.857055,
          "velocity": 1
        },
        {
          "duration": 0.03571425000001227,
          "durationTicks": 16,
          "midi": 42,
          "name": "F#2",
          "ticks": 39488,
          "time": 88.142769,
          "velocity": 1
        },
        {
          "duration": 0.2857139999999987,
          "durationTicks": 128,
          "midi": 42,
          "name": "F#2",
          "ticks": 39552,
          "time": 88.28562600000001,
          "velocity": 1
        },
        {
          "duration": 0.08928562500000226,
          "durationTicks": 40,
          "midi": 42,
          "name": "F#2",
          "ticks": 39744,
          "time": 88.71419700000001,
          "velocity": 1
        },
        {
          "duration": 0.017857125000020346,
          "durationTicks": 8,
          "midi": 42,
          "name": "F#2",
          "ticks": 39872,
          "time": 88.999911,
          "velocity": 1
        },
        {
          "duration": 0.10714275000000839,
          "durationTicks": 48,
          "midi": 42,
          "name": "F#2",
          "ticks": 39936,
          "time": 89.142768,
          "velocity": 1
        },
        {
          "duration": 0.16071412499999838,
          "durationTicks": 72,
          "midi": 42,
          "name": "F#2",
          "ticks": 40000,
          "time": 89.28562500000001,
          "velocity": 1
        },
        {
          "duration": 0.14285700000000645,
          "durationTicks": 64,
          "midi": 42,
          "name": "F#2",
          "ticks": 40128,
          "time": 89.57133900000001,
          "velocity": 1
        },
        {
          "duration": 0.07142850000001033,
          "durationTicks": 32,
          "midi": 42,
          "name": "F#2",
          "ticks": 40256,
          "time": 89.85705300000001,
          "velocity": 1
        },
        {
          "duration": 0.10714274999999418,
          "durationTicks": 48,
          "midi": 42,
          "name": "F#2",
          "ticks": 40320,
          "time": 89.99991000000001,
          "velocity": 1
        },
        {
          "duration": 0.053571375000004195,
          "durationTicks": 24,
          "midi": 42,
          "name": "F#2",
          "ticks": 40448,
          "time": 90.285624,
          "velocity": 1
        },
        {
          "duration": 0.08928562500000226,
          "durationTicks": 40,
          "midi": 42,
          "name": "F#2",
          "ticks": 40512,
          "time": 90.428481,
          "velocity": 1
        },
        {
          "duration": 0.03571424999999806,
          "durationTicks": 16,
          "midi": 42,
          "name": "F#2",
          "ticks": 40640,
          "time": 90.714195,
          "velocity": 1
        },
        {
          "duration": 0.07142849999999612,
          "durationTicks": 32,
          "midi": 42,
          "name": "F#2",
          "ticks": 40704,
          "time": 90.85705200000001,
          "velocity": 1
        },
        {
          "duration": 0.03571424999999806,
          "durationTicks": 16,
          "midi": 42,
          "name": "F#2",
          "ticks": 40832,
          "time": 91.14276600000001,
          "velocity": 1
        },
        {
          "duration": 0.07142849999999612,
          "durationTicks": 32,
          "midi": 42,
          "name": "F#2",
          "ticks": 40896,
          "time": 91.285623,
          "velocity": 1
        },
        {
          "duration": 0.03571425000001227,
          "durationTicks": 16,
          "midi": 42,
          "name": "F#2",
          "ticks": 41024,
          "time": 91.571337,
          "velocity": 1
        },
        {
          "duration": 0.07142849999999612,
          "durationTicks": 32,
          "midi": 42,
          "name": "F#2",
          "ticks": 41088,
          "time": 91.714194,
          "velocity": 1
        },
        {
          "duration": 0.03571424999999806,
          "durationTicks": 16,
          "midi": 42,
          "name": "F#2",
          "ticks": 41216,
          "time": 91.999908,
          "velocity": 1
        },
        {
          "duration": 0.08928562500000226,
          "durationTicks": 40,
          "midi": 42,
          "name": "F#2",
          "ticks": 41280,
          "time": 92.14276500000001,
          "velocity": 1
        },
        {
          "duration": 0.03571424999999806,
          "durationTicks": 16,
          "midi": 42,
          "name": "F#2",
          "ticks": 41408,
          "time": 92.42847900000001,
          "velocity": 1
        },
        {
          "duration": 0.19642837500001065,
          "durationTicks": 88,
          "midi": 42,
          "name": "F#2",
          "ticks": 41472,
          "time": 92.571336,
          "velocity": 1
        },
        {
          "duration": 0.08928562500000226,
          "durationTicks": 40,
          "midi": 42,
          "name": "F#2",
          "ticks": 41664,
          "time": 92.99990700000001,
          "velocity": 1
        },
        {
          "duration": 0.03571424999999806,
          "durationTicks": 16,
          "midi": 42,
          "name": "F#2",
          "ticks": 41792,
          "time": 93.285621,
          "velocity": 1
        },
        {
          "duration": 0.07142849999999612,
          "durationTicks": 32,
          "midi": 42,
          "name": "F#2",
          "ticks": 41856,
          "time": 93.42847800000001,
          "velocity": 1
        },
        {
          "duration": 0.03571425000001227,
          "durationTicks": 16,
          "midi": 42,
          "name": "F#2",
          "ticks": 41984,
          "time": 93.714192,
          "velocity": 1
        },
        {
          "duration": 0.03571425000001227,
          "durationTicks": 16,
          "midi": 42,
          "name": "F#2",
          "ticks": 42048,
          "time": 93.857049,
          "velocity": 1
        },
        {
          "duration": 0.14285700000000645,
          "durationTicks": 64,
          "midi": 44,
          "name": "G#2",
          "ticks": 42048,
          "time": 93.857049,
          "velocity": 1
        },
        {
          "duration": 0.12499987500000032,
          "durationTicks": 56,
          "midi": 42,
          "name": "F#2",
          "ticks": 42112,
          "time": 93.99990600000001,
          "velocity": 1
        },
        {
          "duration": 0.053571375000004195,
          "durationTicks": 24,
          "midi": 42,
          "name": "F#2",
          "ticks": 42240,
          "time": 94.28562000000001,
          "velocity": 1
        },
        {
          "duration": 0.07142849999999612,
          "durationTicks": 32,
          "midi": 42,
          "name": "F#2",
          "ticks": 42432,
          "time": 94.71419100000001,
          "velocity": 1
        },
        {
          "duration": 0.07142850000001033,
          "durationTicks": 32,
          "midi": 42,
          "name": "F#2",
          "ticks": 42560,
          "time": 94.999905,
          "velocity": 1
        },
        {
          "duration": 0.08928562500000226,
          "durationTicks": 40,
          "midi": 42,
          "name": "F#2",
          "ticks": 42624,
          "time": 95.142762,
          "velocity": 1
        },
        {
          "duration": 0.10714274999999418,
          "durationTicks": 48,
          "midi": 42,
          "name": "F#2",
          "ticks": 42816,
          "time": 95.57133300000001,
          "velocity": 1
        },
        {
          "duration": 0.07142850000001033,
          "durationTicks": 32,
          "midi": 42,
          "name": "F#2",
          "ticks": 42944,
          "time": 95.85704700000001,
          "velocity": 1
        },
        {
          "duration": 0.08928562500000226,
          "durationTicks": 40,
          "midi": 42,
          "name": "F#2",
          "ticks": 43008,
          "time": 95.99990400000002,
          "velocity": 1
        },
        {
          "duration": 0.10714275000000839,
          "durationTicks": 48,
          "midi": 42,
          "name": "F#2",
          "ticks": 43200,
          "time": 96.428475,
          "velocity": 1
        },
        {
          "duration": 0.07142850000001033,
          "durationTicks": 32,
          "midi": 42,
          "name": "F#2",
          "ticks": 43328,
          "time": 96.714189,
          "velocity": 1
        },
        {
          "duration": 0.21428550000000257,
          "durationTicks": 96,
          "midi": 42,
          "name": "F#2",
          "ticks": 43392,
          "time": 96.85704600000001,
          "velocity": 1
        },
        {
          "duration": 0.08928562500001647,
          "durationTicks": 40,
          "midi": 42,
          "name": "F#2",
          "ticks": 43584,
          "time": 97.285617,
          "velocity": 1
        },
        {
          "duration": 0.053571375000004195,
          "durationTicks": 24,
          "midi": 42,
          "name": "F#2",
          "ticks": 43712,
          "time": 97.571331,
          "velocity": 1
        },
        {
          "duration": 0.053571375000004195,
          "durationTicks": 24,
          "midi": 42,
          "name": "F#2",
          "ticks": 43776,
          "time": 97.71418800000001,
          "velocity": 1
        },
        {
          "duration": 0.03571424999999806,
          "durationTicks": 16,
          "midi": 42,
          "name": "F#2",
          "ticks": 43968,
          "time": 98.14275900000001,
          "velocity": 1
        },
        {
          "duration": 0.053571374999989985,
          "durationTicks": 24,
          "midi": 42,
          "name": "F#2",
          "ticks": 44096,
          "time": 98.42847300000001,
          "velocity": 1
        },
        {
          "duration": 0.03571425000001227,
          "durationTicks": 16,
          "midi": 42,
          "name": "F#2",
          "ticks": 44160,
          "time": 98.57133,
          "velocity": 1
        },
        {
          "duration": 0.03571424999999806,
          "durationTicks": 16,
          "midi": 42,
          "name": "F#2",
          "ticks": 44352,
          "time": 98.99990100000001,
          "velocity": 1
        },
        {
          "duration": 0.053571374999989985,
          "durationTicks": 24,
          "midi": 42,
          "name": "F#2",
          "ticks": 44480,
          "time": 99.285615,
          "velocity": 1
        },
        {
          "duration": 0.053571374999989985,
          "durationTicks": 24,
          "midi": 42,
          "name": "F#2",
          "ticks": 44544,
          "time": 99.42847200000001,
          "velocity": 1
        },
        {
          "duration": 0.07142849999999612,
          "durationTicks": 32,
          "midi": 42,
          "name": "F#2",
          "ticks": 44736,
          "time": 99.857043,
          "velocity": 1
        },
        {
          "duration": 0.07142850000001033,
          "durationTicks": 32,
          "midi": 42,
          "name": "F#2",
          "ticks": 44864,
          "time": 100.142757,
          "velocity": 1
        },
        {
          "duration": 0.07142849999999612,
          "durationTicks": 32,
          "midi": 42,
          "name": "F#2",
          "ticks": 44928,
          "time": 100.28561400000001,
          "velocity": 1
        },
        {
          "duration": 0.07142849999999612,
          "durationTicks": 32,
          "midi": 42,
          "name": "F#2",
          "ticks": 45120,
          "time": 100.71418500000001,
          "velocity": 1
        },
        {
          "duration": 0.053571375000004195,
          "durationTicks": 24,
          "midi": 42,
          "name": "F#2",
          "ticks": 45248,
          "time": 100.999899,
          "velocity": 1
        },
        {
          "duration": 0.03571425000001227,
          "durationTicks": 16,
          "midi": 42,
          "name": "F#2",
          "ticks": 45312,
          "time": 101.142756,
          "velocity": 1
        },
        {
          "duration": 0.07142849999999612,
          "durationTicks": 32,
          "midi": 42,
          "name": "F#2",
          "ticks": 45504,
          "time": 101.57132700000001,
          "velocity": 1
        },
        {
          "duration": 0.14285699999999224,
          "durationTicks": 64,
          "midi": 42,
          "name": "F#2",
          "ticks": 45568,
          "time": 101.71418400000002,
          "velocity": 1
        },
        {
          "duration": 0.03571425000001227,
          "durationTicks": 16,
          "midi": 42,
          "name": "F#2",
          "ticks": 45696,
          "time": 101.999898,
          "velocity": 1
        },
        {
          "duration": 0.017857124999991925,
          "durationTicks": 8,
          "midi": 42,
          "name": "F#2",
          "ticks": 45888,
          "time": 102.428469,
          "velocity": 1
        },
        {
          "duration": 0.017857124999991925,
          "durationTicks": 8,
          "midi": 42,
          "name": "F#2",
          "ticks": 45888,
          "time": 102.428469,
          "velocity": 1
        },
        {
          "duration": 0.14285699999999224,
          "durationTicks": 64,
          "midi": 42,
          "name": "F#2",
          "ticks": 45952,
          "time": 102.57132600000001,
          "velocity": 1
        },
        {
          "duration": 0.053571374999989985,
          "durationTicks": 24,
          "midi": 42,
          "name": "F#2",
          "ticks": 46080,
          "time": 102.85704000000001,
          "velocity": 1
        },
        {
          "duration": 0.053571375000004195,
          "durationTicks": 24,
          "midi": 42,
          "name": "F#2",
          "ticks": 46272,
          "time": 103.285611,
          "velocity": 1
        },
        {
          "duration": 0.07142850000001033,
          "durationTicks": 32,
          "midi": 42,
          "name": "F#2",
          "ticks": 46400,
          "time": 103.571325,
          "velocity": 1
        },
        {
          "duration": 0.07142849999999612,
          "durationTicks": 32,
          "midi": 42,
          "name": "F#2",
          "ticks": 46464,
          "time": 103.71418200000001,
          "velocity": 1
        },
        {
          "duration": 0.03571424999999806,
          "durationTicks": 16,
          "midi": 42,
          "name": "F#2",
          "ticks": 46656,
          "time": 104.14275300000001,
          "velocity": 1
        },
        {
          "duration": 0.053571375000004195,
          "durationTicks": 24,
          "midi": 42,
          "name": "F#2",
          "ticks": 46784,
          "time": 104.428467,
          "velocity": 1
        },
        {
          "duration": 0.03571425000001227,
          "durationTicks": 16,
          "midi": 44,
          "name": "G#2",
          "ticks": 46848,
          "time": 104.571324,
          "velocity": 1
        },
        {
          "duration": 0.2321426250000087,
          "durationTicks": 104,
          "midi": 42,
          "name": "F#2",
          "ticks": 48384,
          "time": 107.999892,
          "velocity": 1
        },
        {
          "duration": 0.21428550000000257,
          "durationTicks": 96,
          "midi": 42,
          "name": "F#2",
          "ticks": 48576,
          "time": 108.42846300000001,
          "velocity": 1
        },
        {
          "duration": 0.16071412499999838,
          "durationTicks": 72,
          "midi": 42,
          "name": "F#2",
          "ticks": 48768,
          "time": 108.85703400000001,
          "velocity": 1
        },
        {
          "duration": 0.03571425000001227,
          "durationTicks": 16,
          "midi": 42,
          "name": "F#2",
          "ticks": 48960,
          "time": 109.285605,
          "velocity": 1
        },
        {
          "duration": 0.16071412499999838,
          "durationTicks": 72,
          "midi": 42,
          "name": "F#2",
          "ticks": 49024,
          "time": 109.42846200000001,
          "velocity": 1
        },
        {
          "duration": 0.12499987500001453,
          "durationTicks": 56,
          "midi": 42,
          "name": "F#2",
          "ticks": 49152,
          "time": 109.71417600000001,
          "velocity": 1
        },
        {
          "duration": 0.053571374999989985,
          "durationTicks": 24,
          "midi": 42,
          "name": "F#2",
          "ticks": 49344,
          "time": 110.14274700000001,
          "velocity": 1
        },
        {
          "duration": 0.017857125000006135,
          "durationTicks": 8,
          "midi": 42,
          "name": "F#2",
          "ticks": 49536,
          "time": 110.571318,
          "velocity": 1
        },
        {
          "duration": 0.017857125000006135,
          "durationTicks": 8,
          "midi": 42,
          "name": "F#2",
          "ticks": 49728,
          "time": 110.99988900000001,
          "velocity": 1
        },
        {
          "duration": 0.053571374999989985,
          "durationTicks": 24,
          "midi": 42,
          "name": "F#2",
          "ticks": 49856,
          "time": 111.28560300000002,
          "velocity": 1
        },
        {
          "duration": 0.053571374999989985,
          "durationTicks": 24,
          "midi": 42,
          "name": "F#2",
          "ticks": 49920,
          "time": 111.42846000000002,
          "velocity": 1
        },
        {
          "duration": 0.053571375000004195,
          "durationTicks": 24,
          "midi": 42,
          "name": "F#2",
          "ticks": 50112,
          "time": 111.857031,
          "velocity": 1
        },
        {
          "duration": 0.053571375000004195,
          "durationTicks": 24,
          "midi": 42,
          "name": "F#2",
          "ticks": 50304,
          "time": 112.28560200000001,
          "velocity": 1
        },
        {
          "duration": 0.03571424999999806,
          "durationTicks": 16,
          "midi": 42,
          "name": "F#2",
          "ticks": 50496,
          "time": 112.714173,
          "velocity": 1
        },
        {
          "duration": 0.07142849999998191,
          "durationTicks": 32,
          "midi": 42,
          "name": "F#2",
          "ticks": 50624,
          "time": 112.99988700000002,
          "velocity": 1
        },
        {
          "duration": 0.053571375000004195,
          "durationTicks": 24,
          "midi": 42,
          "name": "F#2",
          "ticks": 50688,
          "time": 113.14274400000001,
          "velocity": 1
        },
        {
          "duration": 0.053571374999989985,
          "durationTicks": 24,
          "midi": 42,
          "name": "F#2",
          "ticks": 50880,
          "time": 113.57131500000001,
          "velocity": 1
        },
        {
          "duration": 0.03571424999999806,
          "durationTicks": 16,
          "midi": 42,
          "name": "F#2",
          "ticks": 51072,
          "time": 113.999886,
          "velocity": 1
        },
        {
          "duration": 0.03571424999999806,
          "durationTicks": 16,
          "midi": 42,
          "name": "F#2",
          "ticks": 51264,
          "time": 114.42845700000001,
          "velocity": 1
        },
        {
          "duration": 0.053571374999989985,
          "durationTicks": 24,
          "midi": 42,
          "name": "F#2",
          "ticks": 51392,
          "time": 114.71417100000002,
          "velocity": 1
        },
        {
          "duration": 0.03571424999998385,
          "durationTicks": 16,
          "midi": 42,
          "name": "F#2",
          "ticks": 51456,
          "time": 114.85702800000001,
          "velocity": 1
        },
        {
          "duration": 0.07142850000001033,
          "durationTicks": 32,
          "midi": 42,
          "name": "F#2",
          "ticks": 51648,
          "time": 115.285599,
          "velocity": 1
        },
        {
          "duration": 0.053571375000004195,
          "durationTicks": 24,
          "midi": 42,
          "name": "F#2",
          "ticks": 51840,
          "time": 115.71417000000001,
          "velocity": 1
        },
        {
          "duration": 0.017857125000006135,
          "durationTicks": 8,
          "midi": 42,
          "name": "F#2",
          "ticks": 52032,
          "time": 116.14274100000002,
          "velocity": 1
        },
        {
          "duration": 0.14285700000000645,
          "durationTicks": 64,
          "midi": 42,
          "name": "F#2",
          "ticks": 52096,
          "time": 116.28559800000001,
          "velocity": 1
        },
        {
          "duration": 0.03571424999999806,
          "durationTicks": 16,
          "midi": 42,
          "name": "F#2",
          "ticks": 52224,
          "time": 116.571312,
          "velocity": 1
        },
        {
          "duration": 0.053571375000004195,
          "durationTicks": 24,
          "midi": 42,
          "name": "F#2",
          "ticks": 52416,
          "time": 116.99988300000001,
          "velocity": 1
        },
        {
          "duration": 0.03571424999998385,
          "durationTicks": 16,
          "midi": 42,
          "name": "F#2",
          "ticks": 52608,
          "time": 117.42845400000002,
          "velocity": 1
        },
        {
          "duration": 0.053571375000004195,
          "durationTicks": 24,
          "midi": 42,
          "name": "F#2",
          "ticks": 52800,
          "time": 117.85702500000001,
          "velocity": 1
        },
        {
          "duration": 0.14285700000002066,
          "durationTicks": 64,
          "midi": 42,
          "name": "F#2",
          "ticks": 52864,
          "time": 117.999882,
          "velocity": 1
        },
        {
          "duration": 0.017857125000006135,
          "durationTicks": 8,
          "midi": 42,
          "name": "F#2",
          "ticks": 52992,
          "time": 118.28559600000001,
          "velocity": 1
        },
        {
          "duration": 0.053571375000004195,
          "durationTicks": 24,
          "midi": 42,
          "name": "F#2",
          "ticks": 53184,
          "time": 118.714167,
          "velocity": 1
        },
        {
          "duration": 0.03571424999999806,
          "durationTicks": 16,
          "midi": 42,
          "name": "F#2",
          "ticks": 53376,
          "time": 119.14273800000001,
          "velocity": 1
        },
        {
          "duration": 0.03571424999998385,
          "durationTicks": 16,
          "midi": 42,
          "name": "F#2",
          "ticks": 53568,
          "time": 119.57130900000001,
          "velocity": 1
        },
        {
          "duration": 0.07142850000001033,
          "durationTicks": 32,
          "midi": 42,
          "name": "F#2",
          "ticks": 53760,
          "time": 119.99988,
          "velocity": 1
        },
        {
          "duration": 0.07142850000001033,
          "durationTicks": 32,
          "midi": 42,
          "name": "F#2",
          "ticks": 54144,
          "time": 120.85702200000001,
          "velocity": 1
        },
        {
          "duration": 0.08928562500000226,
          "durationTicks": 40,
          "midi": 42,
          "name": "F#2",
          "ticks": 54336,
          "time": 121.285593,
          "velocity": 1
        },
        {
          "duration": 0.12499987500000032,
          "durationTicks": 56,
          "midi": 42,
          "name": "F#2",
          "ticks": 54720,
          "time": 122.14273500000002,
          "velocity": 1
        },
        {
          "duration": 0.3392853750000171,
          "durationTicks": 152,
          "midi": 42,
          "name": "F#2",
          "ticks": 55296,
          "time": 123.428448,
          "velocity": 1
        },
        {
          "duration": 0.3571424999999948,
          "durationTicks": 160,
          "midi": 42,
          "name": "F#2",
          "ticks": 55488,
          "time": 123.85701900000001,
          "velocity": 1
        },
        {
          "duration": 0.3392853750000029,
          "durationTicks": 152,
          "midi": 42,
          "name": "F#2",
          "ticks": 55680,
          "time": 124.28559000000001,
          "velocity": 1
        },
        {
          "duration": 0.17857125000001872,
          "durationTicks": 80,
          "midi": 42,
          "name": "F#2",
          "ticks": 55872,
          "time": 124.714161,
          "velocity": 1
        },
        {
          "duration": 0.03571424999999806,
          "durationTicks": 16,
          "midi": 42,
          "name": "F#2",
          "ticks": 56000,
          "time": 124.99987500000002,
          "velocity": 1
        },
        {
          "duration": 0.3392853750000029,
          "durationTicks": 152,
          "midi": 42,
          "name": "F#2",
          "ticks": 56064,
          "time": 125.14273200000001,
          "velocity": 1
        },
        {
          "duration": 0.26785687499999256,
          "durationTicks": 120,
          "midi": 42,
          "name": "F#2",
          "ticks": 56256,
          "time": 125.57130300000001,
          "velocity": 1
        },
        {
          "duration": 0.24999975000000063,
          "durationTicks": 112,
          "midi": 42,
          "name": "F#2",
          "ticks": 56448,
          "time": 125.999874,
          "velocity": 1
        },
        {
          "duration": 0.053571375000004195,
          "durationTicks": 24,
          "midi": 42,
          "name": "F#2",
          "ticks": 56640,
          "time": 126.42844500000001,
          "velocity": 1
        },
        {
          "duration": 0.03571425000001227,
          "durationTicks": 16,
          "midi": 42,
          "name": "F#2",
          "ticks": 56704,
          "time": 126.571302,
          "velocity": 1
        },
        {
          "duration": 0.1785712500000045,
          "durationTicks": 80,
          "midi": 42,
          "name": "F#2",
          "ticks": 56704,
          "time": 126.571302,
          "velocity": 1
        },
        {
          "duration": 0.3035711249999906,
          "durationTicks": 136,
          "midi": 42,
          "name": "F#2",
          "ticks": 56832,
          "time": 126.85701600000002,
          "velocity": 1
        },
        {
          "duration": 0.19642837499999644,
          "durationTicks": 88,
          "midi": 42,
          "name": "F#2",
          "ticks": 57024,
          "time": 127.285587,
          "velocity": 1
        },
        {
          "duration": 0.053571375000004195,
          "durationTicks": 24,
          "midi": 42,
          "name": "F#2",
          "ticks": 57152,
          "time": 127.57130100000002,
          "velocity": 1
        },
        {
          "duration": 0.32142825000001096,
          "durationTicks": 144,
          "midi": 42,
          "name": "F#2",
          "ticks": 57216,
          "time": 127.71415800000001,
          "velocity": 1
        },
        {
          "duration": 0.3035711249999906,
          "durationTicks": 136,
          "midi": 42,
          "name": "F#2",
          "ticks": 57408,
          "time": 128.142729,
          "velocity": 1
        },
        {
          "duration": 0.24999975000000063,
          "durationTicks": 112,
          "midi": 42,
          "name": "F#2",
          "ticks": 57600,
          "time": 128.5713,
          "velocity": 1
        },
        {
          "duration": 0.1785712500000045,
          "durationTicks": 80,
          "midi": 42,
          "name": "F#2",
          "ticks": 57792,
          "time": 128.999871,
          "velocity": 1
        },
        {
          "duration": 0.017857124999977714,
          "durationTicks": 8,
          "midi": 42,
          "name": "F#2",
          "ticks": 57920,
          "time": 129.28558500000003,
          "velocity": 1
        },
        {
          "duration": 0.32142824999999675,
          "durationTicks": 144,
          "midi": 42,
          "name": "F#2",
          "ticks": 57984,
          "time": 129.42844200000002,
          "velocity": 1
        },
        {
          "duration": 0.21428549999998836,
          "durationTicks": 96,
          "midi": 42,
          "name": "F#2",
          "ticks": 58176,
          "time": 129.85701300000002,
          "velocity": 1
        },
        {
          "duration": 0.053571375000018406,
          "durationTicks": 24,
          "midi": 42,
          "name": "F#2",
          "ticks": 58304,
          "time": 130.142727,
          "velocity": 1
        },
        {
          "duration": 0.32142824999999675,
          "durationTicks": 144,
          "midi": 42,
          "name": "F#2",
          "ticks": 58368,
          "time": 130.285584,
          "velocity": 1
        },
        {
          "duration": 0.19642837500001065,
          "durationTicks": 88,
          "midi": 42,
          "name": "F#2",
          "ticks": 58560,
          "time": 130.714155,
          "velocity": 1
        },
        {
          "duration": 0.07142849999999612,
          "durationTicks": 32,
          "midi": 42,
          "name": "F#2",
          "ticks": 58688,
          "time": 130.99986900000002,
          "velocity": 1
        },
        {
          "duration": 0.3035711249999906,
          "durationTicks": 136,
          "midi": 42,
          "name": "F#2",
          "ticks": 58752,
          "time": 131.142726,
          "velocity": 1
        },
        {
          "duration": 0.16071412499999838,
          "durationTicks": 72,
          "midi": 42,
          "name": "F#2",
          "ticks": 58944,
          "time": 131.57129700000002,
          "velocity": 1
        },
        {
          "duration": 0.0714284999999677,
          "durationTicks": 32,
          "midi": 42,
          "name": "F#2",
          "ticks": 59072,
          "time": 131.85701100000003,
          "velocity": 1
        },
        {
          "duration": 0.32142824999999675,
          "durationTicks": 144,
          "midi": 42,
          "name": "F#2",
          "ticks": 59136,
          "time": 131.99986800000002,
          "velocity": 1
        },
        {
          "duration": 0.3392853750000313,
          "durationTicks": 152,
          "midi": 42,
          "name": "F#2",
          "ticks": 59328,
          "time": 132.428439,
          "velocity": 1
        },
        {
          "duration": 0.1785712500000045,
          "durationTicks": 80,
          "midi": 42,
          "name": "F#2",
          "ticks": 59520,
          "time": 132.85701,
          "velocity": 1
        },
        {
          "duration": 0.26785687500000677,
          "durationTicks": 120,
          "midi": 42,
          "name": "F#2",
          "ticks": 59648,
          "time": 133.14272400000002,
          "velocity": 1
        },
        {
          "duration": 0.14285700000002066,
          "durationTicks": 64,
          "midi": 42,
          "name": "F#2",
          "ticks": 59776,
          "time": 133.428438,
          "velocity": 1
        },
        {
          "duration": 0.053571374999989985,
          "durationTicks": 24,
          "midi": 42,
          "name": "F#2",
          "ticks": 59840,
          "time": 133.57129500000002,
          "velocity": 1
        },
        {
          "duration": 0.1249998749999861,
          "durationTicks": 56,
          "midi": 42,
          "name": "F#2",
          "ticks": 59840,
          "time": 133.57129500000002,
          "velocity": 1
        },
        {
          "duration": 0.053571374999989985,
          "durationTicks": 24,
          "midi": 42,
          "name": "F#2",
          "ticks": 59904,
          "time": 133.714152,
          "velocity": 1
        },
        {
          "duration": 0.26785687500000677,
          "durationTicks": 120,
          "midi": 42,
          "name": "F#2",
          "ticks": 61440,
          "time": 137.14272,
          "velocity": 1
        },
        {
          "duration": 0.16071412499999838,
          "durationTicks": 72,
          "midi": 42,
          "name": "F#2",
          "ticks": 61632,
          "time": 137.571291,
          "velocity": 1
        },
        {
          "duration": 0.357142500000009,
          "durationTicks": 160,
          "midi": 42,
          "name": "F#2",
          "ticks": 61760,
          "time": 137.85700500000002,
          "velocity": 1
        },
        {
          "duration": 0.14285699999999224,
          "durationTicks": 64,
          "midi": 42,
          "name": "F#2",
          "ticks": 62016,
          "time": 138.428433,
          "velocity": 1
        },
        {
          "duration": 0.053571374999989985,
          "durationTicks": 24,
          "midi": 42,
          "name": "F#2",
          "ticks": 62144,
          "time": 138.71414700000003,
          "velocity": 1
        },
        {
          "duration": 0.03571424999998385,
          "durationTicks": 16,
          "midi": 42,
          "name": "F#2",
          "ticks": 62208,
          "time": 138.85700400000002,
          "velocity": 1
        },
        {
          "duration": 0.14285699999999224,
          "durationTicks": 64,
          "midi": 42,
          "name": "F#2",
          "ticks": 62400,
          "time": 139.28557500000002,
          "velocity": 1
        },
        {
          "duration": 0.08928562500000226,
          "durationTicks": 40,
          "midi": 42,
          "name": "F#2",
          "ticks": 62528,
          "time": 139.571289,
          "velocity": 1
        },
        {
          "duration": 0.053571375000018406,
          "durationTicks": 24,
          "midi": 42,
          "name": "F#2",
          "ticks": 62592,
          "time": 139.714146,
          "velocity": 1
        },
        {
          "duration": 0.03571425000001227,
          "durationTicks": 16,
          "midi": 42,
          "name": "F#2",
          "ticks": 62720,
          "time": 139.99986,
          "velocity": 1
        },
        {
          "duration": 0.053571375000018406,
          "durationTicks": 24,
          "midi": 42,
          "name": "F#2",
          "ticks": 62784,
          "time": 140.142717,
          "velocity": 1
        },
        {
          "duration": 0.16071412499999838,
          "durationTicks": 72,
          "midi": 42,
          "name": "F#2",
          "ticks": 62784,
          "time": 140.142717,
          "velocity": 1
        },
        {
          "duration": 0.08928562500000226,
          "durationTicks": 40,
          "midi": 42,
          "name": "F#2",
          "ticks": 62912,
          "time": 140.42843100000002,
          "velocity": 1
        },
        {
          "duration": 0.08928562500000226,
          "durationTicks": 40,
          "midi": 42,
          "name": "F#2",
          "ticks": 62976,
          "time": 140.571288,
          "velocity": 1
        },
        {
          "duration": 0.12499987500001453,
          "durationTicks": 56,
          "midi": 42,
          "name": "F#2",
          "ticks": 63168,
          "time": 140.99985900000001,
          "velocity": 1
        },
        {
          "duration": 0.03571424999998385,
          "durationTicks": 16,
          "midi": 42,
          "name": "F#2",
          "ticks": 63296,
          "time": 141.28557300000003,
          "velocity": 1
        },
        {
          "duration": 0.26785687499997834,
          "durationTicks": 120,
          "midi": 42,
          "name": "F#2",
          "ticks": 63360,
          "time": 141.42843000000002,
          "velocity": 1
        },
        {
          "duration": 0.14285699999999224,
          "durationTicks": 64,
          "midi": 42,
          "name": "F#2",
          "ticks": 63552,
          "time": 141.85700100000003,
          "velocity": 1
        },
        {
          "duration": 0.03571425000001227,
          "durationTicks": 16,
          "midi": 42,
          "name": "F#2",
          "ticks": 63680,
          "time": 142.142715,
          "velocity": 1
        },
        {
          "duration": 0.3035711249999906,
          "durationTicks": 136,
          "midi": 42,
          "name": "F#2",
          "ticks": 63744,
          "time": 142.285572,
          "velocity": 1
        },
        {
          "duration": 0.16071412499999838,
          "durationTicks": 72,
          "midi": 42,
          "name": "F#2",
          "ticks": 63936,
          "time": 142.714143,
          "velocity": 1
        },
        {
          "duration": 0.053571374999989985,
          "durationTicks": 24,
          "midi": 42,
          "name": "F#2",
          "ticks": 64064,
          "time": 142.99985700000002,
          "velocity": 1
        },
        {
          "duration": 0.16071412499999838,
          "durationTicks": 72,
          "midi": 42,
          "name": "F#2",
          "ticks": 64128,
          "time": 143.142714,
          "velocity": 1
        },
        {
          "duration": 0.053571374999989985,
          "durationTicks": 24,
          "midi": 42,
          "name": "F#2",
          "ticks": 64256,
          "time": 143.42842800000003,
          "velocity": 1
        },
        {
          "duration": 0.12499987500001453,
          "durationTicks": 56,
          "midi": 42,
          "name": "F#2",
          "ticks": 64320,
          "time": 143.57128500000002,
          "velocity": 1
        },
        {
          "duration": 0.0714284999999677,
          "durationTicks": 32,
          "midi": 42,
          "name": "F#2",
          "ticks": 64448,
          "time": 143.85699900000003,
          "velocity": 1
        },
        {
          "duration": 0.26785687499997834,
          "durationTicks": 120,
          "midi": 42,
          "name": "F#2",
          "ticks": 64512,
          "time": 143.99985600000002,
          "velocity": 1
        },
        {
          "duration": 0.1607141250000268,
          "durationTicks": 72,
          "midi": 42,
          "name": "F#2",
          "ticks": 64704,
          "time": 144.428427,
          "velocity": 1
        },
        {
          "duration": 0.03571425000001227,
          "durationTicks": 16,
          "midi": 42,
          "name": "F#2",
          "ticks": 64832,
          "time": 144.714141,
          "velocity": 1
        },
        {
          "duration": 0.2857140000000129,
          "durationTicks": 128,
          "midi": 42,
          "name": "F#2",
          "ticks": 64896,
          "time": 144.856998,
          "velocity": 1
        },
        {
          "duration": 0.08928562500000226,
          "durationTicks": 40,
          "midi": 42,
          "name": "F#2",
          "ticks": 65088,
          "time": 145.285569,
          "velocity": 1
        },
        {
          "duration": 0.017857124999977714,
          "durationTicks": 8,
          "midi": 42,
          "name": "F#2",
          "ticks": 65216,
          "time": 145.57128300000002,
          "velocity": 1
        },
        {
          "duration": 0.10714275000000839,
          "durationTicks": 48,
          "midi": 42,
          "name": "F#2",
          "ticks": 65280,
          "time": 145.71414000000001,
          "velocity": 1
        },
        {
          "duration": 0.16071412499999838,
          "durationTicks": 72,
          "midi": 42,
          "name": "F#2",
          "ticks": 65344,
          "time": 145.856997,
          "velocity": 1
        },
        {
          "duration": 0.14285699999999224,
          "durationTicks": 64,
          "midi": 42,
          "name": "F#2",
          "ticks": 65472,
          "time": 146.14271100000002,
          "velocity": 1
        },
        {
          "duration": 0.0714284999999677,
          "durationTicks": 32,
          "midi": 42,
          "name": "F#2",
          "ticks": 65600,
          "time": 146.42842500000003,
          "velocity": 1
        },
        {
          "duration": 0.10714274999997997,
          "durationTicks": 48,
          "midi": 42,
          "name": "F#2",
          "ticks": 65664,
          "time": 146.57128200000002,
          "velocity": 1
        },
        {
          "duration": 0.053571375000018406,
          "durationTicks": 24,
          "midi": 42,
          "name": "F#2",
          "ticks": 65792,
          "time": 146.856996,
          "velocity": 1
        },
        {
          "duration": 0.08928562500000226,
          "durationTicks": 40,
          "midi": 42,
          "name": "F#2",
          "ticks": 65856,
          "time": 146.999853,
          "velocity": 1
        },
        {
          "duration": 0.03571424999998385,
          "durationTicks": 16,
          "midi": 42,
          "name": "F#2",
          "ticks": 65984,
          "time": 147.28556700000001,
          "velocity": 1
        },
        {
          "duration": 0.07142850000002454,
          "durationTicks": 32,
          "midi": 42,
          "name": "F#2",
          "ticks": 66048,
          "time": 147.428424,
          "velocity": 1
        },
        {
          "duration": 0.03571424999998385,
          "durationTicks": 16,
          "midi": 42,
          "name": "F#2",
          "ticks": 66176,
          "time": 147.71413800000002,
          "velocity": 1
        },
        {
          "duration": 0.07142849999999612,
          "durationTicks": 32,
          "midi": 42,
          "name": "F#2",
          "ticks": 66240,
          "time": 147.856995,
          "velocity": 1
        },
        {
          "duration": 0.03571424999998385,
          "durationTicks": 16,
          "midi": 42,
          "name": "F#2",
          "ticks": 66368,
          "time": 148.14270900000002,
          "velocity": 1
        },
        {
          "duration": 0.07142849999999612,
          "durationTicks": 32,
          "midi": 42,
          "name": "F#2",
          "ticks": 66432,
          "time": 148.28556600000002,
          "velocity": 1
        },
        {
          "duration": 0.03571424999998385,
          "durationTicks": 16,
          "midi": 42,
          "name": "F#2",
          "ticks": 66560,
          "time": 148.57128000000003,
          "velocity": 1
        },
        {
          "duration": 0.08928562499997383,
          "durationTicks": 40,
          "midi": 42,
          "name": "F#2",
          "ticks": 66624,
          "time": 148.71413700000002,
          "velocity": 1
        },
        {
          "duration": 0.03571425000001227,
          "durationTicks": 16,
          "midi": 42,
          "name": "F#2",
          "ticks": 66752,
          "time": 148.999851,
          "velocity": 1
        },
        {
          "duration": 0.19642837500001065,
          "durationTicks": 88,
          "midi": 42,
          "name": "F#2",
          "ticks": 66816,
          "time": 149.142708,
          "velocity": 1
        },
        {
          "duration": 0.08928562500000226,
          "durationTicks": 40,
          "midi": 42,
          "name": "F#2",
          "ticks": 67008,
          "time": 149.571279,
          "velocity": 1
        },
        {
          "duration": 0.03571424999998385,
          "durationTicks": 16,
          "midi": 42,
          "name": "F#2",
          "ticks": 67136,
          "time": 149.85699300000002,
          "velocity": 1
        },
        {
          "duration": 0.07142850000002454,
          "durationTicks": 32,
          "midi": 42,
          "name": "F#2",
          "ticks": 67200,
          "time": 149.99985,
          "velocity": 1
        },
        {
          "duration": 0.03571424999998385,
          "durationTicks": 16,
          "midi": 42,
          "name": "F#2",
          "ticks": 67328,
          "time": 150.28556400000002,
          "velocity": 1
        },
        {
          "duration": 0.03571424999998385,
          "durationTicks": 16,
          "midi": 42,
          "name": "F#2",
          "ticks": 67392,
          "time": 150.42842100000001,
          "velocity": 1
        },
        {
          "duration": 0.14285699999999224,
          "durationTicks": 64,
          "midi": 44,
          "name": "G#2",
          "ticks": 67392,
          "time": 150.42842100000001,
          "velocity": 1
        },
        {
          "duration": 0.12499987500001453,
          "durationTicks": 56,
          "midi": 42,
          "name": "F#2",
          "ticks": 67456,
          "time": 150.571278,
          "velocity": 1
        },
        {
          "duration": 0.1785712500000045,
          "durationTicks": 80,
          "midi": 51,
          "name": "D#3",
          "ticks": 70096,
          "time": 156.46412925,
          "velocity": 0.5039370078740157
        },
        {
          "duration": 0.16071412499999838,
          "durationTicks": 72,
          "midi": 48,
          "name": "C3",
          "ticks": 70288,
          "time": 156.89270025000002,
          "velocity": 0.5039370078740157
        }
      ],
      "endOfTrackTicks": 70360
    },
    {
      "channel": 9,
      "controlChanges": {
        "7": [
          {
            "number": 7,
            "ticks": 0,
            "time": 0,
            "value": 1
          }
        ],
        "10": [
          {
            "number": 10,
            "ticks": 0,
            "time": 0,
            "value": 0.5039370078740157
          }
        ],
        "91": [
          {
            "number": 91,
            "ticks": 0,
            "time": 0,
            "value": 0.08661417322834646
          }
        ]
      },
      "pitchBends": [],
      "instrument": {
        "family": "drums",
        "number": 0,
        "name": "standard kit"
      },
      "name": "Hihats          ",
      "notes": [
        {
          "duration": 0.32142825,
          "durationTicks": 144,
          "midi": 44,
          "name": "G#2",
          "ticks": 0,
          "time": 0,
          "velocity": 1
        },
        {
          "duration": 0.3214282500000001,
          "durationTicks": 144,
          "midi": 44,
          "name": "G#2",
          "ticks": 192,
          "time": 0.42857100000000004,
          "velocity": 1
        },
        {
          "duration": 0.3214282500000001,
          "durationTicks": 144,
          "midi": 44,
          "name": "G#2",
          "ticks": 384,
          "time": 0.8571420000000001,
          "velocity": 1
        },
        {
          "duration": 0.285714,
          "durationTicks": 128,
          "midi": 44,
          "name": "G#2",
          "ticks": 576,
          "time": 1.285713,
          "velocity": 1
        },
        {
          "duration": 0.28571400000000025,
          "durationTicks": 128,
          "midi": 44,
          "name": "G#2",
          "ticks": 768,
          "time": 1.7142840000000001,
          "velocity": 1
        },
        {
          "duration": 0.2499997500000002,
          "durationTicks": 112,
          "midi": 44,
          "name": "G#2",
          "ticks": 960,
          "time": 2.142855,
          "velocity": 1
        },
        {
          "duration": 0.24999974999999974,
          "durationTicks": 112,
          "midi": 44,
          "name": "G#2",
          "ticks": 1152,
          "time": 2.571426,
          "velocity": 1
        },
        {
          "duration": 0.24999974999999974,
          "durationTicks": 112,
          "midi": 44,
          "name": "G#2",
          "ticks": 1344,
          "time": 2.9999970000000005,
          "velocity": 1
        },
        {
          "duration": 0.2499997500000002,
          "durationTicks": 112,
          "midi": 44,
          "name": "G#2",
          "ticks": 1536,
          "time": 3.4285680000000003,
          "velocity": 1
        },
        {
          "duration": 0.26785687500000055,
          "durationTicks": 120,
          "midi": 44,
          "name": "G#2",
          "ticks": 1728,
          "time": 3.857139,
          "velocity": 1
        },
        {
          "duration": 0.3035711250000004,
          "durationTicks": 136,
          "midi": 44,
          "name": "G#2",
          "ticks": 1920,
          "time": 4.28571,
          "velocity": 1
        },
        {
          "duration": 0.2857139999999996,
          "durationTicks": 128,
          "midi": 44,
          "name": "G#2",
          "ticks": 2112,
          "time": 4.714281000000001,
          "velocity": 1
        },
        {
          "duration": 0.24999975000000063,
          "durationTicks": 112,
          "midi": 44,
          "name": "G#2",
          "ticks": 2304,
          "time": 5.142852,
          "velocity": 1
        },
        {
          "duration": 0.23214262499999982,
          "durationTicks": 104,
          "midi": 44,
          "name": "G#2",
          "ticks": 2496,
          "time": 5.571423,
          "velocity": 1
        },
        {
          "duration": 0.23214262499999894,
          "durationTicks": 104,
          "midi": 44,
          "name": "G#2",
          "ticks": 2688,
          "time": 5.999994000000001,
          "velocity": 1
        },
        {
          "duration": 0.24999974999999974,
          "durationTicks": 112,
          "midi": 44,
          "name": "G#2",
          "ticks": 3072,
          "time": 6.857136000000001,
          "velocity": 1
        },
        {
          "duration": 0.2321426250000007,
          "durationTicks": 104,
          "midi": 44,
          "name": "G#2",
          "ticks": 3264,
          "time": 7.285707,
          "velocity": 1
        },
        {
          "duration": 0.2142855000000008,
          "durationTicks": 96,
          "midi": 44,
          "name": "G#2",
          "ticks": 3456,
          "time": 7.714278,
          "velocity": 1
        },
        {
          "duration": 0.17857125000000096,
          "durationTicks": 80,
          "midi": 44,
          "name": "G#2",
          "ticks": 3648,
          "time": 8.142849,
          "velocity": 1
        },
        {
          "duration": 0.2142855000000008,
          "durationTicks": 96,
          "midi": 44,
          "name": "G#2",
          "ticks": 3840,
          "time": 8.57142,
          "velocity": 1
        },
        {
          "duration": 0.17857124999999918,
          "durationTicks": 80,
          "midi": 44,
          "name": "G#2",
          "ticks": 4032,
          "time": 8.999991000000001,
          "velocity": 1
        },
        {
          "duration": 0.14285699999999935,
          "durationTicks": 64,
          "midi": 44,
          "name": "G#2",
          "ticks": 4224,
          "time": 9.428562000000001,
          "velocity": 1
        },
        {
          "duration": 0.10714274999999951,
          "durationTicks": 48,
          "midi": 44,
          "name": "G#2",
          "ticks": 4416,
          "time": 9.857133000000001,
          "velocity": 1
        },
        {
          "duration": 0.32142824999999675,
          "durationTicks": 144,
          "midi": 44,
          "name": "G#2",
          "ticks": 67584,
          "time": 150.85699200000002,
          "velocity": 1
        },
        {
          "duration": 0.32142824999999675,
          "durationTicks": 144,
          "midi": 44,
          "name": "G#2",
          "ticks": 67776,
          "time": 151.28556300000002,
          "velocity": 1
        },
        {
          "duration": 0.3214282500000252,
          "durationTicks": 144,
          "midi": 44,
          "name": "G#2",
          "ticks": 67968,
          "time": 151.714134,
          "velocity": 1
        },
        {
          "duration": 0.2857140000000129,
          "durationTicks": 128,
          "midi": 44,
          "name": "G#2",
          "ticks": 68160,
          "time": 152.142705,
          "velocity": 1
        },
        {
          "duration": 0.2857140000000129,
          "durationTicks": 128,
          "midi": 44,
          "name": "G#2",
          "ticks": 68352,
          "time": 152.571276,
          "velocity": 1
        },
        {
          "duration": 0.24999975000000063,
          "durationTicks": 112,
          "midi": 44,
          "name": "G#2",
          "ticks": 68544,
          "time": 152.99984700000002,
          "velocity": 1
        },
        {
          "duration": 0.2499997499999722,
          "durationTicks": 112,
          "midi": 44,
          "name": "G#2",
          "ticks": 68736,
          "time": 153.42841800000002,
          "velocity": 1
        },
        {
          "duration": 0.24999975000000063,
          "durationTicks": 112,
          "midi": 44,
          "name": "G#2",
          "ticks": 68928,
          "time": 153.856989,
          "velocity": 1
        },
        {
          "duration": 0.24999975000000063,
          "durationTicks": 112,
          "midi": 44,
          "name": "G#2",
          "ticks": 69120,
          "time": 154.28556,
          "velocity": 1
        },
        {
          "duration": 0.26785687500000677,
          "durationTicks": 120,
          "midi": 44,
          "name": "G#2",
          "ticks": 69312,
          "time": 154.714131,
          "velocity": 1
        },
        {
          "duration": 0.3035711249999906,
          "durationTicks": 136,
          "midi": 44,
          "name": "G#2",
          "ticks": 69504,
          "time": 155.142702,
          "velocity": 1
        },
        {
          "duration": 0.2857140000000129,
          "durationTicks": 128,
          "midi": 44,
          "name": "G#2",
          "ticks": 69696,
          "time": 155.57127300000002,
          "velocity": 1
        },
        {
          "duration": 0.2499997499999722,
          "durationTicks": 112,
          "midi": 44,
          "name": "G#2",
          "ticks": 69888,
          "time": 155.99984400000002,
          "velocity": 1
        },
        {
          "duration": 0.23214262500002292,
          "durationTicks": 104,
          "midi": 44,
          "name": "G#2",
          "ticks": 70080,
          "time": 156.428415,
          "velocity": 1
        },
        {
          "duration": 0.23214262500002292,
          "durationTicks": 104,
          "midi": 44,
          "name": "G#2",
          "ticks": 70272,
          "time": 156.856986,
          "velocity": 1
        }
      ],
      "endOfTrackTicks": 70376
    },
    {
      "channel": 9,
      "controlChanges": {
        "7": [
          {
            "number": 7,
            "ticks": 0,
            "time": 0,
            "value": 1
          }
        ],
        "10": [
          {
            "number": 10,
            "ticks": 0,
            "time": 0,
            "value": 0.5039370078740157
          }
        ],
        "91": [
          {
            "number": 91,
            "ticks": 0,
            "time": 0,
            "value": 0.07086614173228346
          }
        ]
      },
      "pitchBends": [],
      "instrument": {
        "family": "drums",
        "number": 0,
        "name": "standard kit"
      },
      "name": "Ride Cymbal     ",
      "notes": [
        {
          "duration": 0.21428549999999902,
          "durationTicks": 96,
          "midi": 51,
          "name": "D#3",
          "ticks": 14208,
          "time": 31.714254000000004,
          "velocity": 0.5039370078740157
        },
        {
          "duration": 0.49999950000000126,
          "durationTicks": 224,
          "midi": 51,
          "name": "D#3",
          "ticks": 14400,
          "time": 32.142825,
          "velocity": 0.5039370078740157
        },
        {
          "duration": 0.07142849999999612,
          "durationTicks": 32,
          "midi": 51,
          "name": "D#3",
          "ticks": 14912,
          "time": 33.285681000000004,
          "velocity": 0.5039370078740157
        },
        {
          "duration": 0.01785712499999903,
          "durationTicks": 8,
          "midi": 51,
          "name": "D#3",
          "ticks": 14976,
          "time": 33.428538,
          "velocity": 0.5039370078740157
        },
        {
          "duration": 0.05357137499999709,
          "durationTicks": 24,
          "midi": 51,
          "name": "D#3",
          "ticks": 14976,
          "time": 33.428538,
          "velocity": 0.5039370078740157
        },
        {
          "duration": 0.08928562500000226,
          "durationTicks": 40,
          "midi": 51,
          "name": "D#3",
          "ticks": 15104,
          "time": 33.714252,
          "velocity": 0.5039370078740157
        },
        {
          "duration": 0.12499987500000032,
          "durationTicks": 56,
          "midi": 51,
          "name": "D#3",
          "ticks": 15168,
          "time": 33.857109,
          "velocity": 0.5039370078740157
        },
        {
          "duration": 0.05357137499999709,
          "durationTicks": 24,
          "midi": 51,
          "name": "D#3",
          "ticks": 15296,
          "time": 34.14282300000001,
          "velocity": 0.5039370078740157
        },
        {
          "duration": 0.053571375000004195,
          "durationTicks": 24,
          "midi": 51,
          "name": "D#3",
          "ticks": 15360,
          "time": 34.28568,
          "velocity": 0.5039370078740157
        },
        {
          "duration": 0.05357137499999709,
          "durationTicks": 24,
          "midi": 51,
          "name": "D#3",
          "ticks": 15552,
          "time": 34.714251000000004,
          "velocity": 0.5039370078740157
        },
        {
          "duration": 0.03571424999999806,
          "durationTicks": 16,
          "midi": 51,
          "name": "D#3",
          "ticks": 15680,
          "time": 34.999965,
          "velocity": 0.5039370078740157
        },
        {
          "duration": 0.08928562499999515,
          "durationTicks": 40,
          "midi": 51,
          "name": "D#3",
          "ticks": 15744,
          "time": 35.142822,
          "velocity": 0.5039370078740157
        },
        {
          "duration": 0.08928562500000226,
          "durationTicks": 40,
          "midi": 51,
          "name": "D#3",
          "ticks": 15936,
          "time": 35.571393,
          "velocity": 0.5039370078740157
        },
        {
          "duration": 0.08928562499999515,
          "durationTicks": 40,
          "midi": 51,
          "name": "D#3",
          "ticks": 16064,
          "time": 35.857107000000006,
          "velocity": 0.5039370078740157
        },
        {
          "duration": 0.08928562499999515,
          "durationTicks": 40,
          "midi": 51,
          "name": "D#3",
          "ticks": 16128,
          "time": 35.999964000000006,
          "velocity": 0.5039370078740157
        },
        {
          "duration": 0.035714250000005165,
          "durationTicks": 16,
          "midi": 51,
          "name": "D#3",
          "ticks": 16192,
          "time": 36.142821,
          "velocity": 0.5039370078740157
        },
        {
          "duration": 0.053571375000004195,
          "durationTicks": 24,
          "midi": 51,
          "name": "D#3",
          "ticks": 16256,
          "time": 36.285678000000004,
          "velocity": 0.5039370078740157
        },
        {
          "duration": 0.10714275000000129,
          "durationTicks": 48,
          "midi": 51,
          "name": "D#3",
          "ticks": 16320,
          "time": 36.428535000000004,
          "velocity": 0.5039370078740157
        },
        {
          "duration": 0.07142850000000323,
          "durationTicks": 32,
          "midi": 51,
          "name": "D#3",
          "ticks": 16384,
          "time": 36.571392,
          "velocity": 0.5039370078740157
        },
        {
          "duration": 0.10714275000000129,
          "durationTicks": 48,
          "midi": 51,
          "name": "D#3",
          "ticks": 16448,
          "time": 36.714249,
          "velocity": 0.5039370078740157
        },
        {
          "duration": 0.08928562500000226,
          "durationTicks": 40,
          "midi": 51,
          "name": "D#3",
          "ticks": 16512,
          "time": 36.857106,
          "velocity": 0.5039370078740157
        },
        {
          "duration": 0.2857139999999916,
          "durationTicks": 128,
          "midi": 49,
          "name": "C#3",
          "ticks": 16640,
          "time": 37.14282000000001,
          "velocity": 0.5039370078740157
        },
        {
          "duration": 0,
          "durationTicks": 0,
          "midi": 51,
          "name": "D#3",
          "ticks": 25664,
          "time": 57.285657,
          "velocity": 0.33858267716535434
        },
        {
          "duration": 0.035714249999990955,
          "durationTicks": 16,
          "midi": 51,
          "name": "D#3",
          "ticks": 25672,
          "time": 57.30351412500001,
          "velocity": 0.33858267716535434
        },
        {
          "duration": 0.053571375000004195,
          "durationTicks": 24,
          "midi": 51,
          "name": "D#3",
          "ticks": 25704,
          "time": 57.374942625,
          "velocity": 0.33858267716535434
        },
        {
          "duration": 0.053571375000004195,
          "durationTicks": 24,
          "midi": 51,
          "name": "D#3",
          "ticks": 25736,
          "time": 57.446371125,
          "velocity": 0.33858267716535434
        },
        {
          "duration": 0.035714250000005165,
          "durationTicks": 16,
          "midi": 51,
          "name": "D#3",
          "ticks": 25848,
          "time": 57.69637087500001,
          "velocity": 0.33858267716535434
        },
        {
          "duration": 0.017857125000006135,
          "durationTicks": 8,
          "midi": 51,
          "name": "D#3",
          "ticks": 25880,
          "time": 57.767799375,
          "velocity": 0.33858267716535434
        },
        {
          "duration": 0.07142849999999612,
          "durationTicks": 32,
          "midi": 51,
          "name": "D#3",
          "ticks": 25888,
          "time": 57.78565650000001,
          "velocity": 0.33858267716535434
        },
        {
          "duration": 0.05357137499999709,
          "durationTicks": 24,
          "midi": 51,
          "name": "D#3",
          "ticks": 25928,
          "time": 57.874942125000004,
          "velocity": 0.33858267716535434
        },
        {
          "duration": 0.03571424999999806,
          "durationTicks": 16,
          "midi": 51,
          "name": "D#3",
          "ticks": 26032,
          "time": 58.107084750000006,
          "velocity": 0.33858267716535434
        },
        {
          "duration": 0.035714250000005165,
          "durationTicks": 16,
          "midi": 51,
          "name": "D#3",
          "ticks": 26096,
          "time": 58.24994175,
          "velocity": 0.33858267716535434
        },
        {
          "duration": 0.035714250000005165,
          "durationTicks": 16,
          "midi": 51,
          "name": "D#3",
          "ticks": 27008,
          "time": 60.285654,
          "velocity": 0.33858267716535434
        },
        {
          "duration": 0.01785712500001324,
          "durationTicks": 8,
          "midi": 51,
          "name": "D#3",
          "ticks": 27032,
          "time": 60.339225375,
          "velocity": 0.33858267716535434
        },
        {
          "duration": 0.05357137499999709,
          "durationTicks": 24,
          "midi": 51,
          "name": "D#3",
          "ticks": 27056,
          "time": 60.39279675,
          "velocity": 0.33858267716535434
        },
        {
          "duration": 0.05357137499999709,
          "durationTicks": 24,
          "midi": 51,
          "name": "D#3",
          "ticks": 27088,
          "time": 60.46422525000001,
          "velocity": 0.33858267716535434
        },
        {
          "duration": 0.035714250000005165,
          "durationTicks": 16,
          "midi": 51,
          "name": "D#3",
          "ticks": 27200,
          "time": 60.714225,
          "velocity": 0.33858267716535434
        },
        {
          "duration": 0.017857125000006135,
          "durationTicks": 8,
          "midi": 51,
          "name": "D#3",
          "ticks": 27224,
          "time": 60.767796375,
          "velocity": 0.33858267716535434
        },
        {
          "duration": 0.053571375000004195,
          "durationTicks": 24,
          "midi": 51,
          "name": "D#3",
          "ticks": 27248,
          "time": 60.82136775,
          "velocity": 0.33858267716535434
        },
        {
          "duration": 0.07142850000000323,
          "durationTicks": 32,
          "midi": 51,
          "name": "D#3",
          "ticks": 27272,
          "time": 60.874939125000004,
          "velocity": 0.33858267716535434
        },
        {
          "duration": 0.03571424999999806,
          "durationTicks": 16,
          "midi": 51,
          "name": "D#3",
          "ticks": 27376,
          "time": 61.107081750000006,
          "velocity": 0.33858267716535434
        },
        {
          "duration": 0.017857125000006135,
          "durationTicks": 8,
          "midi": 51,
          "name": "D#3",
          "ticks": 27416,
          "time": 61.196367375,
          "velocity": 0.33858267716535434
        },
        {
          "duration": 0.053571375000004195,
          "durationTicks": 24,
          "midi": 51,
          "name": "D#3",
          "ticks": 27424,
          "time": 61.21422450000001,
          "velocity": 0.33858267716535434
        },
        {
          "duration": 0.053571375000004195,
          "durationTicks": 24,
          "midi": 51,
          "name": "D#3",
          "ticks": 27456,
          "time": 61.285653,
          "velocity": 0.33858267716535434
        },
        {
          "duration": 0.05357137499999709,
          "durationTicks": 24,
          "midi": 51,
          "name": "D#3",
          "ticks": 27584,
          "time": 61.571367,
          "velocity": 0.33858267716535434
        },
        {
          "duration": 0.053571375000004195,
          "durationTicks": 24,
          "midi": 51,
          "name": "D#3",
          "ticks": 27648,
          "time": 61.714224,
          "velocity": 0.33858267716535434
        },
        {
          "duration": 0.07142849999999612,
          "durationTicks": 32,
          "midi": 51,
          "name": "D#3",
          "ticks": 28032,
          "time": 62.571366000000005,
          "velocity": 0.33858267716535434
        },
        {
          "duration": 0.053571375000004195,
          "durationTicks": 24,
          "midi": 51,
          "name": "D#3",
          "ticks": 28224,
          "time": 62.999937,
          "velocity": 0.33858267716535434
        },
        {
          "duration": 0.053571375000004195,
          "durationTicks": 24,
          "midi": 51,
          "name": "D#3",
          "ticks": 28424,
          "time": 63.446365125,
          "velocity": 0.33858267716535434
        },
        {
          "duration": 0.07142849999999612,
          "durationTicks": 32,
          "midi": 51,
          "name": "D#3",
          "ticks": 28816,
          "time": 64.32136425000002,
          "velocity": 0.33858267716535434
        },
        {
          "duration": 0.053571375000004195,
          "durationTicks": 24,
          "midi": 51,
          "name": "D#3",
          "ticks": 29000,
          "time": 64.732078125,
          "velocity": 0.33858267716535434
        },
        {
          "duration": 0.08928562500001647,
          "durationTicks": 40,
          "midi": 51,
          "name": "D#3",
          "ticks": 29696,
          "time": 66.285648,
          "velocity": 0.33858267716535434
        },
        {
          "duration": 0.21428550000000257,
          "durationTicks": 96,
          "midi": 51,
          "name": "D#3",
          "ticks": 39552,
          "time": 88.28562600000001,
          "velocity": 0.5039370078740157
        },
        {
          "duration": 0.49999949999998705,
          "durationTicks": 224,
          "midi": 51,
          "name": "D#3",
          "ticks": 39744,
          "time": 88.71419700000001,
          "velocity": 0.5039370078740157
        },
        {
          "duration": 0.07142850000001033,
          "durationTicks": 32,
          "midi": 51,
          "name": "D#3",
          "ticks": 40256,
          "time": 89.85705300000001,
          "velocity": 0.5039370078740157
        },
        {
          "duration": 0.017857124999991925,
          "durationTicks": 8,
          "midi": 51,
          "name": "D#3",
          "ticks": 40320,
          "time": 89.99991000000001,
          "velocity": 0.5039370078740157
        },
        {
          "duration": 0.053571374999989985,
          "durationTicks": 24,
          "midi": 51,
          "name": "D#3",
          "ticks": 40320,
          "time": 89.99991000000001,
          "velocity": 0.5039370078740157
        },
        {
          "duration": 0.08928562500000226,
          "durationTicks": 40,
          "midi": 51,
          "name": "D#3",
          "ticks": 40448,
          "time": 90.285624,
          "velocity": 0.5039370078740157
        },
        {
          "duration": 0.12499987500000032,
          "durationTicks": 56,
          "midi": 51,
          "name": "D#3",
          "ticks": 40512,
          "time": 90.428481,
          "velocity": 0.5039370078740157
        },
        {
          "duration": 0.053571375000004195,
          "durationTicks": 24,
          "midi": 51,
          "name": "D#3",
          "ticks": 40640,
          "time": 90.714195,
          "velocity": 0.5039370078740157
        },
        {
          "duration": 0.053571375000004195,
          "durationTicks": 24,
          "midi": 51,
          "name": "D#3",
          "ticks": 40704,
          "time": 90.85705200000001,
          "velocity": 0.5039370078740157
        },
        {
          "duration": 0.053571375000004195,
          "durationTicks": 24,
          "midi": 51,
          "name": "D#3",
          "ticks": 40896,
          "time": 91.285623,
          "velocity": 0.5039370078740157
        },
        {
          "duration": 0.03571425000001227,
          "durationTicks": 16,
          "midi": 51,
          "name": "D#3",
          "ticks": 41024,
          "time": 91.571337,
          "velocity": 0.5039370078740157
        },
        {
          "duration": 0.08928562500000226,
          "durationTicks": 40,
          "midi": 51,
          "name": "D#3",
          "ticks": 41088,
          "time": 91.714194,
          "velocity": 0.5039370078740157
        },
        {
          "duration": 0.08928562500000226,
          "durationTicks": 40,
          "midi": 51,
          "name": "D#3",
          "ticks": 41280,
          "time": 92.14276500000001,
          "velocity": 0.5039370078740157
        },
        {
          "duration": 0.08928562500000226,
          "durationTicks": 40,
          "midi": 51,
          "name": "D#3",
          "ticks": 41408,
          "time": 92.42847900000001,
          "velocity": 0.5039370078740157
        },
        {
          "duration": 0.08928562500001647,
          "durationTicks": 40,
          "midi": 51,
          "name": "D#3",
          "ticks": 41472,
          "time": 92.571336,
          "velocity": 0.5039370078740157
        },
        {
          "duration": 0.03571424999999806,
          "durationTicks": 16,
          "midi": 51,
          "name": "D#3",
          "ticks": 41536,
          "time": 92.71419300000001,
          "velocity": 0.5039370078740157
        },
        {
          "duration": 0.053571375000004195,
          "durationTicks": 24,
          "midi": 51,
          "name": "D#3",
          "ticks": 41600,
          "time": 92.85705,
          "velocity": 0.5039370078740157
        },
        {
          "duration": 0.10714274999999418,
          "durationTicks": 48,
          "midi": 51,
          "name": "D#3",
          "ticks": 41664,
          "time": 92.99990700000001,
          "velocity": 0.5039370078740157
        },
        {
          "duration": 0.07142849999999612,
          "durationTicks": 32,
          "midi": 51,
          "name": "D#3",
          "ticks": 41728,
          "time": 93.14276400000001,
          "velocity": 0.5039370078740157
        },
        {
          "duration": 0.10714274999999418,
          "durationTicks": 48,
          "midi": 51,
          "name": "D#3",
          "ticks": 41792,
          "time": 93.285621,
          "velocity": 0.5039370078740157
        },
        {
          "duration": 0.08928562500000226,
          "durationTicks": 40,
          "midi": 51,
          "name": "D#3",
          "ticks": 41856,
          "time": 93.42847800000001,
          "velocity": 0.5039370078740157
        },
        {
          "duration": 0.2857140000000129,
          "durationTicks": 128,
          "midi": 49,
          "name": "C#3",
          "ticks": 41984,
          "time": 93.714192,
          "velocity": 0.5039370078740157
        },
        {
          "duration": 0,
          "durationTicks": 0,
          "midi": 51,
          "name": "D#3",
          "ticks": 51008,
          "time": 113.85702900000001,
          "velocity": 0.33858267716535434
        },
        {
          "duration": 0.03571425000001227,
          "durationTicks": 16,
          "midi": 51,
          "name": "D#3",
          "ticks": 51016,
          "time": 113.874886125,
          "velocity": 0.33858267716535434
        },
        {
          "duration": 0.053571374999989985,
          "durationTicks": 24,
          "midi": 51,
          "name": "D#3",
          "ticks": 51048,
          "time": 113.94631462500001,
          "velocity": 0.33858267716535434
        },
        {
          "duration": 0.053571374999989985,
          "durationTicks": 24,
          "midi": 51,
          "name": "D#3",
          "ticks": 51080,
          "time": 114.01774312500002,
          "velocity": 0.33858267716535434
        },
        {
          "duration": 0.03571424999998385,
          "durationTicks": 16,
          "midi": 51,
          "name": "D#3",
          "ticks": 51192,
          "time": 114.26774287500001,
          "velocity": 0.33858267716535434
        },
        {
          "duration": 0.017857124999977714,
          "durationTicks": 8,
          "midi": 51,
          "name": "D#3",
          "ticks": 51224,
          "time": 114.33917137500002,
          "velocity": 0.33858267716535434
        },
        {
          "duration": 0.07142850000001033,
          "durationTicks": 32,
          "midi": 51,
          "name": "D#3",
          "ticks": 51232,
          "time": 114.3570285,
          "velocity": 0.33858267716535434
        },
        {
          "duration": 0.053571375000004195,
          "durationTicks": 24,
          "midi": 51,
          "name": "D#3",
          "ticks": 51272,
          "time": 114.44631412500001,
          "velocity": 0.33858267716535434
        },
        {
          "duration": 0.03571425000002648,
          "durationTicks": 16,
          "midi": 51,
          "name": "D#3",
          "ticks": 51376,
          "time": 114.67845675,
          "velocity": 0.33858267716535434
        },
        {
          "duration": 0.03571424999999806,
          "durationTicks": 16,
          "midi": 51,
          "name": "D#3",
          "ticks": 51440,
          "time": 114.82131375000002,
          "velocity": 0.33858267716535434
        },
        {
          "duration": 0.03571424999998385,
          "durationTicks": 16,
          "midi": 51,
          "name": "D#3",
          "ticks": 52352,
          "time": 116.85702600000002,
          "velocity": 0.33858267716535434
        },
        {
          "duration": 0.017857124999977714,
          "durationTicks": 8,
          "midi": 51,
          "name": "D#3",
          "ticks": 52376,
          "time": 116.91059737500002,
          "velocity": 0.33858267716535434
        },
        {
          "duration": 0.053571375000004195,
          "durationTicks": 24,
          "midi": 51,
          "name": "D#3",
          "ticks": 52400,
          "time": 116.96416875000001,
          "velocity": 0.33858267716535434
        },
        {
          "duration": 0.053571375000004195,
          "durationTicks": 24,
          "midi": 51,
          "name": "D#3",
          "ticks": 52432,
          "time": 117.03559725,
          "velocity": 0.33858267716535434
        },
        {
          "duration": 0.03571424999998385,
          "durationTicks": 16,
          "midi": 51,
          "name": "D#3",
          "ticks": 52544,
          "time": 117.28559700000002,
          "velocity": 0.33858267716535434
        },
        {
          "duration": 0.017857124999991925,
          "durationTicks": 8,
          "midi": 51,
          "name": "D#3",
          "ticks": 52568,
          "time": 117.33916837500001,
          "velocity": 0.33858267716535434
        },
        {
          "duration": 0.053571375000004195,
          "durationTicks": 24,
          "midi": 51,
          "name": "D#3",
          "ticks": 52592,
          "time": 117.39273975000002,
          "velocity": 0.33858267716535434
        },
        {
          "duration": 0.07142849999998191,
          "durationTicks": 32,
          "midi": 51,
          "name": "D#3",
          "ticks": 52616,
          "time": 117.44631112500002,
          "velocity": 0.33858267716535434
        },
        {
          "duration": 0.03571425000001227,
          "durationTicks": 16,
          "midi": 51,
          "name": "D#3",
          "ticks": 52720,
          "time": 117.67845375,
          "velocity": 0.33858267716535434
        },
        {
          "duration": 0.017857124999977714,
          "durationTicks": 8,
          "midi": 51,
          "name": "D#3",
          "ticks": 52760,
          "time": 117.76773937500002,
          "velocity": 0.33858267716535434
        },
        {
          "duration": 0.053571375000004195,
          "durationTicks": 24,
          "midi": 51,
          "name": "D#3",
          "ticks": 52768,
          "time": 117.7855965,
          "velocity": 0.33858267716535434
        },
        {
          "duration": 0.053571375000004195,
          "durationTicks": 24,
          "midi": 51,
          "name": "D#3",
          "ticks": 52800,
          "time": 117.85702500000001,
          "velocity": 0.33858267716535434
        },
        {
          "duration": 0.053571375000004195,
          "durationTicks": 24,
          "midi": 51,
          "name": "D#3",
          "ticks": 52928,
          "time": 118.14273900000002,
          "velocity": 0.33858267716535434
        },
        {
          "duration": 0.053571375000004195,
          "durationTicks": 24,
          "midi": 51,
          "name": "D#3",
          "ticks": 52992,
          "time": 118.28559600000001,
          "velocity": 0.33858267716535434
        },
        {
          "duration": 0.07142850000001033,
          "durationTicks": 32,
          "midi": 51,
          "name": "D#3",
          "ticks": 53376,
          "time": 119.14273800000001,
          "velocity": 0.33858267716535434
        },
        {
          "duration": 0.053571374999989985,
          "durationTicks": 24,
          "midi": 51,
          "name": "D#3",
          "ticks": 53568,
          "time": 119.57130900000001,
          "velocity": 0.33858267716535434
        },
        {
          "duration": 0.053571374999989985,
          "durationTicks": 24,
          "midi": 51,
          "name": "D#3",
          "ticks": 53768,
          "time": 120.01773712500002,
          "velocity": 0.33858267716535434
        },
        {
          "duration": 0.07142850000001033,
          "durationTicks": 32,
          "midi": 51,
          "name": "D#3",
          "ticks": 54160,
          "time": 120.89273625,
          "velocity": 0.33858267716535434
        },
        {
          "duration": 0.053571375000004195,
          "durationTicks": 24,
          "midi": 51,
          "name": "D#3",
          "ticks": 54344,
          "time": 121.30345012500001,
          "velocity": 0.33858267716535434
        },
        {
          "duration": 0.08928562499998804,
          "durationTicks": 40,
          "midi": 51,
          "name": "D#3",
          "ticks": 55040,
          "time": 122.85702000000002,
          "velocity": 0.33858267716535434
        },
        {
          "duration": 0.21428550000001678,
          "durationTicks": 96,
          "midi": 51,
          "name": "D#3",
          "ticks": 64896,
          "time": 144.856998,
          "velocity": 0.5039370078740157
        },
        {
          "duration": 0.49999950000000126,
          "durationTicks": 224,
          "midi": 51,
          "name": "D#3",
          "ticks": 65088,
          "time": 145.285569,
          "velocity": 0.5039370078740157
        },
        {
          "duration": 0.0714284999999677,
          "durationTicks": 32,
          "midi": 51,
          "name": "D#3",
          "ticks": 65600,
          "time": 146.42842500000003,
          "velocity": 0.5039370078740157
        },
        {
          "duration": 0.017857125000006135,
          "durationTicks": 8,
          "midi": 51,
          "name": "D#3",
          "ticks": 65664,
          "time": 146.57128200000002,
          "velocity": 0.5039370078740157
        },
        {
          "duration": 0.053571374999989985,
          "durationTicks": 24,
          "midi": 51,
          "name": "D#3",
          "ticks": 65664,
          "time": 146.57128200000002,
          "velocity": 0.5039370078740157
        },
        {
          "duration": 0.08928562500000226,
          "durationTicks": 40,
          "midi": 51,
          "name": "D#3",
          "ticks": 65792,
          "time": 146.856996,
          "velocity": 0.5039370078740157
        },
        {
          "duration": 0.12499987500001453,
          "durationTicks": 56,
          "midi": 51,
          "name": "D#3",
          "ticks": 65856,
          "time": 146.999853,
          "velocity": 0.5039370078740157
        },
        {
          "duration": 0.053571375000018406,
          "durationTicks": 24,
          "midi": 51,
          "name": "D#3",
          "ticks": 65984,
          "time": 147.28556700000001,
          "velocity": 0.5039370078740157
        },
        {
          "duration": 0.053571375000018406,
          "durationTicks": 24,
          "midi": 51,
          "name": "D#3",
          "ticks": 66048,
          "time": 147.428424,
          "velocity": 0.5039370078740157
        },
        {
          "duration": 0.053571374999989985,
          "durationTicks": 24,
          "midi": 51,
          "name": "D#3",
          "ticks": 66240,
          "time": 147.856995,
          "velocity": 0.5039370078740157
        },
        {
          "duration": 0.03571424999998385,
          "durationTicks": 16,
          "midi": 51,
          "name": "D#3",
          "ticks": 66368,
          "time": 148.14270900000002,
          "velocity": 0.5039370078740157
        },
        {
          "duration": 0.08928562499997383,
          "durationTicks": 40,
          "midi": 51,
          "name": "D#3",
          "ticks": 66432,
          "time": 148.28556600000002,
          "velocity": 0.5039370078740157
        },
        {
          "duration": 0.08928562499997383,
          "durationTicks": 40,
          "midi": 51,
          "name": "D#3",
          "ticks": 66624,
          "time": 148.71413700000002,
          "velocity": 0.5039370078740157
        },
        {
          "duration": 0.08928562500000226,
          "durationTicks": 40,
          "midi": 51,
          "name": "D#3",
          "ticks": 66752,
          "time": 148.999851,
          "velocity": 0.5039370078740157
        },
        {
          "duration": 0.08928562500000226,
          "durationTicks": 40,
          "midi": 51,
          "name": "D#3",
          "ticks": 66816,
          "time": 149.142708,
          "velocity": 0.5039370078740157
        },
        {
          "duration": 0.03571425000004069,
          "durationTicks": 16,
          "midi": 51,
          "name": "D#3",
          "ticks": 66880,
          "time": 149.285565,
          "velocity": 0.5039370078740157
        },
        {
          "duration": 0.053571375000018406,
          "durationTicks": 24,
          "midi": 51,
          "name": "D#3",
          "ticks": 66944,
          "time": 149.428422,
          "velocity": 0.5039370078740157
        },
        {
          "duration": 0.10714275000000839,
          "durationTicks": 48,
          "midi": 51,
          "name": "D#3",
          "ticks": 67008,
          "time": 149.571279,
          "velocity": 0.5039370078740157
        },
        {
          "duration": 0.07142850000002454,
          "durationTicks": 32,
          "midi": 51,
          "name": "D#3",
          "ticks": 67072,
          "time": 149.714136,
          "velocity": 0.5039370078740157
        },
        {
          "duration": 0.10714275000000839,
          "durationTicks": 48,
          "midi": 51,
          "name": "D#3",
          "ticks": 67136,
          "time": 149.85699300000002,
          "velocity": 0.5039370078740157
        },
        {
          "duration": 0.08928562500000226,
          "durationTicks": 40,
          "midi": 51,
          "name": "D#3",
          "ticks": 67200,
          "time": 149.99985,
          "velocity": 0.5039370078740157
        },
        {
          "duration": 0.2857139999999845,
          "durationTicks": 128,
          "midi": 49,
          "name": "C#3",
          "ticks": 67328,
          "time": 150.28556400000002,
          "velocity": 0.5039370078740157
        }
      ],
      "endOfTrackTicks": 67456
    },
    {
      "channel": 9,
      "controlChanges": {
        "7": [
          {
            "number": 7,
            "ticks": 0,
            "time": 0,
            "value": 1
          }
        ],
        "10": [
          {
            "number": 10,
            "ticks": 0,
            "time": 0,
            "value": 0.5039370078740157
          }
        ],
        "91": [
          {
            "number": 91,
            "ticks": 0,
            "time": 0,
            "value": 0.07874015748031496
          }
        ]
      },
      "pitchBends": [],
      "instrument": {
        "family": "drums",
        "number": 0,
        "name": "standard kit"
      },
      "name": "Sandblock       ",
      "notes": [
        {
          "duration": 0.37499962500000006,
          "durationTicks": 168,
          "midi": 44,
          "name": "G#2",
          "ticks": 192,
          "time": 0.42857100000000004,
          "velocity": 1
        },
        {
          "duration": 0.5535708750000001,
          "durationTicks": 248,
          "midi": 44,
          "name": "G#2",
          "ticks": 576,
          "time": 1.285713,
          "velocity": 1
        },
        {
          "duration": 0.5892851250000004,
          "durationTicks": 264,
          "midi": 44,
          "name": "G#2",
          "ticks": 960,
          "time": 2.142855,
          "velocity": 1
        },
        {
          "duration": 0.6071422499999994,
          "durationTicks": 272,
          "midi": 44,
          "name": "G#2",
          "ticks": 1344,
          "time": 2.9999970000000005,
          "velocity": 1
        },
        {
          "duration": 0.6071422499999999,
          "durationTicks": 272,
          "midi": 44,
          "name": "G#2",
          "ticks": 1728,
          "time": 3.857139,
          "velocity": 1
        },
        {
          "duration": 0.6607136249999996,
          "durationTicks": 296,
          "midi": 44,
          "name": "G#2",
          "ticks": 2112,
          "time": 4.714281000000001,
          "velocity": 1
        },
        {
          "duration": 0.2142854999999999,
          "durationTicks": 96,
          "midi": 44,
          "name": "G#2",
          "ticks": 2496,
          "time": 5.571423,
          "velocity": 1
        },
        {
          "duration": 0.5178566250000003,
          "durationTicks": 232,
          "midi": 44,
          "name": "G#2",
          "ticks": 2688,
          "time": 5.999994000000001,
          "velocity": 1
        },
        {
          "duration": 0.26785687500000055,
          "durationTicks": 120,
          "midi": 44,
          "name": "G#2",
          "ticks": 3264,
          "time": 7.285707,
          "velocity": 1
        },
        {
          "duration": 0.26785687500000144,
          "durationTicks": 120,
          "midi": 44,
          "name": "G#2",
          "ticks": 3648,
          "time": 8.142849,
          "velocity": 1
        },
        {
          "duration": 0.10714274999999951,
          "durationTicks": 48,
          "midi": 44,
          "name": "G#2",
          "ticks": 4032,
          "time": 8.999991000000001,
          "velocity": 1
        },
        {
          "duration": 0.0892856249999987,
          "durationTicks": 40,
          "midi": 44,
          "name": "G#2",
          "ticks": 4416,
          "time": 9.857133000000001,
          "velocity": 1
        },
        {
          "duration": 0.7321421249999993,
          "durationTicks": 328,
          "midi": 44,
          "name": "G#2",
          "ticks": 4800,
          "time": 10.714275,
          "velocity": 1
        },
        {
          "duration": 0.7142850000000021,
          "durationTicks": 320,
          "midi": 44,
          "name": "G#2",
          "ticks": 5184,
          "time": 11.571417,
          "velocity": 1
        },
        {
          "duration": 0.7499992500000001,
          "durationTicks": 336,
          "midi": 44,
          "name": "G#2",
          "ticks": 5568,
          "time": 12.428559000000002,
          "velocity": 1
        },
        {
          "duration": 0.6785707500000004,
          "durationTicks": 304,
          "midi": 44,
          "name": "G#2",
          "ticks": 5952,
          "time": 13.285701000000001,
          "velocity": 1
        },
        {
          "duration": 0.5357137500000011,
          "durationTicks": 240,
          "midi": 44,
          "name": "G#2",
          "ticks": 6336,
          "time": 14.142843000000001,
          "velocity": 1
        },
        {
          "duration": 0.48214237500000046,
          "durationTicks": 216,
          "midi": 44,
          "name": "G#2",
          "ticks": 6720,
          "time": 14.999985,
          "velocity": 1
        },
        {
          "duration": 0.16071412499999838,
          "durationTicks": 72,
          "midi": 44,
          "name": "G#2",
          "ticks": 7104,
          "time": 15.857127000000002,
          "velocity": 1
        },
        {
          "duration": 0.6607136249999996,
          "durationTicks": 296,
          "midi": 44,
          "name": "G#2",
          "ticks": 7488,
          "time": 16.714269,
          "velocity": 1
        },
        {
          "duration": 0.6249993750000016,
          "durationTicks": 280,
          "midi": 44,
          "name": "G#2",
          "ticks": 7872,
          "time": 17.571411,
          "velocity": 1
        },
        {
          "duration": 0.6249993750000016,
          "durationTicks": 280,
          "midi": 44,
          "name": "G#2",
          "ticks": 8256,
          "time": 18.428553,
          "velocity": 1
        },
        {
          "duration": 0.5535708750000019,
          "durationTicks": 248,
          "midi": 44,
          "name": "G#2",
          "ticks": 8640,
          "time": 19.285695,
          "velocity": 1
        },
        {
          "duration": 0.08928562500000226,
          "durationTicks": 40,
          "midi": 44,
          "name": "G#2",
          "ticks": 8960,
          "time": 19.99998,
          "velocity": 1
        },
        {
          "duration": 0.07142849999999967,
          "durationTicks": 32,
          "midi": 44,
          "name": "G#2",
          "ticks": 9024,
          "time": 20.142837,
          "velocity": 1
        },
        {
          "duration": 0.0892856249999987,
          "durationTicks": 40,
          "midi": 44,
          "name": "G#2",
          "ticks": 9088,
          "time": 20.285694000000003,
          "velocity": 1
        },
        {
          "duration": 0.05357137499999709,
          "durationTicks": 24,
          "midi": 44,
          "name": "G#2",
          "ticks": 9152,
          "time": 20.428551000000002,
          "velocity": 1
        },
        {
          "duration": 0.12499987500000032,
          "durationTicks": 56,
          "midi": 44,
          "name": "G#2",
          "ticks": 9216,
          "time": 20.571408,
          "velocity": 1
        },
        {
          "duration": 0.5714280000000009,
          "durationTicks": 256,
          "midi": 44,
          "name": "G#2",
          "ticks": 10944,
          "time": 24.428547000000002,
          "velocity": 1
        },
        {
          "duration": 0.6607136249999996,
          "durationTicks": 296,
          "midi": 44,
          "name": "G#2",
          "ticks": 11328,
          "time": 25.285689,
          "velocity": 1
        },
        {
          "duration": 0.6428565000000006,
          "durationTicks": 288,
          "midi": 44,
          "name": "G#2",
          "ticks": 11712,
          "time": 26.142831,
          "velocity": 1
        },
        {
          "duration": 0.624999374999998,
          "durationTicks": 280,
          "midi": 44,
          "name": "G#2",
          "ticks": 12096,
          "time": 26.999973,
          "velocity": 1
        },
        {
          "duration": 0.5535708750000019,
          "durationTicks": 248,
          "midi": 44,
          "name": "G#2",
          "ticks": 12480,
          "time": 27.857115000000004,
          "velocity": 1
        },
        {
          "duration": 0.5714279999999974,
          "durationTicks": 256,
          "midi": 44,
          "name": "G#2",
          "ticks": 12864,
          "time": 28.714257000000003,
          "velocity": 1
        },
        {
          "duration": 0.4464281250000006,
          "durationTicks": 200,
          "midi": 44,
          "name": "G#2",
          "ticks": 13248,
          "time": 29.571399000000003,
          "velocity": 1
        },
        {
          "duration": 0.4464281250000006,
          "durationTicks": 200,
          "midi": 44,
          "name": "G#2",
          "ticks": 13632,
          "time": 30.428541000000003,
          "velocity": 1
        },
        {
          "duration": 0.410713874999999,
          "durationTicks": 184,
          "midi": 44,
          "name": "G#2",
          "ticks": 14016,
          "time": 31.285683000000002,
          "velocity": 1
        },
        {
          "duration": 0.4642852499999961,
          "durationTicks": 208,
          "midi": 44,
          "name": "G#2",
          "ticks": 14400,
          "time": 32.142825,
          "velocity": 1
        },
        {
          "duration": 0.4642852499999961,
          "durationTicks": 208,
          "midi": 44,
          "name": "G#2",
          "ticks": 14784,
          "time": 32.999967000000005,
          "velocity": 1
        },
        {
          "duration": 0.4464281250000042,
          "durationTicks": 200,
          "midi": 44,
          "name": "G#2",
          "ticks": 15168,
          "time": 33.857109,
          "velocity": 1
        },
        {
          "duration": 0.5178566249999932,
          "durationTicks": 232,
          "midi": 44,
          "name": "G#2",
          "ticks": 15552,
          "time": 34.714251000000004,
          "velocity": 1
        },
        {
          "duration": 0.5892851250000035,
          "durationTicks": 264,
          "midi": 44,
          "name": "G#2",
          "ticks": 15936,
          "time": 35.571393,
          "velocity": 1
        },
        {
          "duration": 0.4464281250000042,
          "durationTicks": 200,
          "midi": 44,
          "name": "G#2",
          "ticks": 16320,
          "time": 36.428535000000004,
          "velocity": 1
        },
        {
          "duration": 0.017857124999991925,
          "durationTicks": 8,
          "midi": 44,
          "name": "G#2",
          "ticks": 16640,
          "time": 37.14282000000001,
          "velocity": 1
        },
        {
          "duration": 0.07142849999999612,
          "durationTicks": 32,
          "midi": 44,
          "name": "G#2",
          "ticks": 16640,
          "time": 37.14282000000001,
          "velocity": 1
        },
        {
          "duration": 0.14285699999999224,
          "durationTicks": 64,
          "midi": 44,
          "name": "G#2",
          "ticks": 16640,
          "time": 37.14282000000001,
          "velocity": 1
        },
        {
          "duration": 0.07142850000000323,
          "durationTicks": 32,
          "midi": 44,
          "name": "G#2",
          "ticks": 16704,
          "time": 37.285677,
          "velocity": 1
        },
        {
          "duration": 0.017857125000006135,
          "durationTicks": 8,
          "midi": 42,
          "name": "F#2",
          "ticks": 16704,
          "time": 37.285677,
          "velocity": 1
        },
        {
          "duration": 0.03571424999999806,
          "durationTicks": 16,
          "midi": 44,
          "name": "G#2",
          "ticks": 16832,
          "time": 37.571391000000006,
          "velocity": 1
        },
        {
          "duration": 0.2857139999999987,
          "durationTicks": 128,
          "midi": 44,
          "name": "G#2",
          "ticks": 16896,
          "time": 37.714248000000005,
          "velocity": 1
        },
        {
          "duration": 0.26785687499999966,
          "durationTicks": 120,
          "midi": 44,
          "name": "G#2",
          "ticks": 17088,
          "time": 38.142819,
          "velocity": 1
        },
        {
          "duration": 0.24999975000000063,
          "durationTicks": 112,
          "midi": 44,
          "name": "G#2",
          "ticks": 17280,
          "time": 38.57139,
          "velocity": 1
        },
        {
          "duration": 0.24999974999999353,
          "durationTicks": 112,
          "midi": 44,
          "name": "G#2",
          "ticks": 17472,
          "time": 38.999961000000006,
          "velocity": 1
        },
        {
          "duration": 0.24999975000000063,
          "durationTicks": 112,
          "midi": 44,
          "name": "G#2",
          "ticks": 17664,
          "time": 39.428532000000004,
          "velocity": 1
        },
        {
          "duration": 0.24999975000000063,
          "durationTicks": 112,
          "midi": 44,
          "name": "G#2",
          "ticks": 17856,
          "time": 39.857103,
          "velocity": 1
        },
        {
          "duration": 0.2321426250000087,
          "durationTicks": 104,
          "midi": 44,
          "name": "G#2",
          "ticks": 18048,
          "time": 40.285674,
          "velocity": 1
        },
        {
          "duration": 0.21428549999999547,
          "durationTicks": 96,
          "midi": 44,
          "name": "G#2",
          "ticks": 18240,
          "time": 40.714245000000005,
          "velocity": 1
        },
        {
          "duration": 0.21428550000000257,
          "durationTicks": 96,
          "midi": 44,
          "name": "G#2",
          "ticks": 18432,
          "time": 41.142816,
          "velocity": 1
        },
        {
          "duration": 0.2321426250000016,
          "durationTicks": 104,
          "midi": 44,
          "name": "G#2",
          "ticks": 18624,
          "time": 41.571387,
          "velocity": 1
        },
        {
          "duration": 0.19642837499999644,
          "durationTicks": 88,
          "midi": 44,
          "name": "G#2",
          "ticks": 18816,
          "time": 41.99995800000001,
          "velocity": 1
        },
        {
          "duration": 0.2321426250000016,
          "durationTicks": 104,
          "midi": 44,
          "name": "G#2",
          "ticks": 19008,
          "time": 42.428529000000005,
          "velocity": 1
        },
        {
          "duration": 0.19642837499999644,
          "durationTicks": 88,
          "midi": 44,
          "name": "G#2",
          "ticks": 19200,
          "time": 42.8571,
          "velocity": 1
        },
        {
          "duration": 0.21428550000000257,
          "durationTicks": 96,
          "midi": 44,
          "name": "G#2",
          "ticks": 19392,
          "time": 43.285671,
          "velocity": 1
        },
        {
          "duration": 0.21428549999999547,
          "durationTicks": 96,
          "midi": 44,
          "name": "G#2",
          "ticks": 19584,
          "time": 43.714242000000006,
          "velocity": 1
        },
        {
          "duration": 0.1785712500000045,
          "durationTicks": 80,
          "midi": 44,
          "name": "G#2",
          "ticks": 19776,
          "time": 44.142813000000004,
          "velocity": 1
        },
        {
          "duration": 0.21428550000000257,
          "durationTicks": 96,
          "midi": 44,
          "name": "G#2",
          "ticks": 19968,
          "time": 44.571384,
          "velocity": 1
        },
        {
          "duration": 0.1785712499999974,
          "durationTicks": 80,
          "midi": 44,
          "name": "G#2",
          "ticks": 20160,
          "time": 44.99995500000001,
          "velocity": 1
        },
        {
          "duration": 0.12499987500000032,
          "durationTicks": 56,
          "midi": 44,
          "name": "G#2",
          "ticks": 20352,
          "time": 45.428526000000005,
          "velocity": 1
        },
        {
          "duration": 0.10714275000000129,
          "durationTicks": 48,
          "midi": 44,
          "name": "G#2",
          "ticks": 20544,
          "time": 45.857097,
          "velocity": 1
        },
        {
          "duration": 0.10714275000000129,
          "durationTicks": 48,
          "midi": 44,
          "name": "G#2",
          "ticks": 20736,
          "time": 46.285668,
          "velocity": 1
        },
        {
          "duration": 0.12499987500000032,
          "durationTicks": 56,
          "midi": 44,
          "name": "G#2",
          "ticks": 20928,
          "time": 46.714239000000006,
          "velocity": 1
        },
        {
          "duration": 0.14285699999999935,
          "durationTicks": 64,
          "midi": 44,
          "name": "G#2",
          "ticks": 21120,
          "time": 47.142810000000004,
          "velocity": 1
        },
        {
          "duration": 0.12499987500000032,
          "durationTicks": 56,
          "midi": 44,
          "name": "G#2",
          "ticks": 21312,
          "time": 47.571381,
          "velocity": 1
        },
        {
          "duration": 0.12499987500000032,
          "durationTicks": 56,
          "midi": 44,
          "name": "G#2",
          "ticks": 21504,
          "time": 47.99995200000001,
          "velocity": 1
        },
        {
          "duration": 0.1785712499999974,
          "durationTicks": 80,
          "midi": 44,
          "name": "G#2",
          "ticks": 23040,
          "time": 51.428520000000006,
          "velocity": 1
        },
        {
          "duration": 0.14285699999999935,
          "durationTicks": 64,
          "midi": 44,
          "name": "G#2",
          "ticks": 23232,
          "time": 51.857091000000004,
          "velocity": 1
        },
        {
          "duration": 0.14285699999999935,
          "durationTicks": 64,
          "midi": 44,
          "name": "G#2",
          "ticks": 23424,
          "time": 52.285662,
          "velocity": 1
        },
        {
          "duration": 0.12499987500000032,
          "durationTicks": 56,
          "midi": 44,
          "name": "G#2",
          "ticks": 23616,
          "time": 52.71423300000001,
          "velocity": 1
        },
        {
          "duration": 0.12499987500000032,
          "durationTicks": 56,
          "midi": 44,
          "name": "G#2",
          "ticks": 23808,
          "time": 53.142804000000005,
          "velocity": 1
        },
        {
          "duration": 0.12499987500000032,
          "durationTicks": 56,
          "midi": 44,
          "name": "G#2",
          "ticks": 24000,
          "time": 53.571375,
          "velocity": 1
        },
        {
          "duration": 0.12499987500000742,
          "durationTicks": 56,
          "midi": 44,
          "name": "G#2",
          "ticks": 24192,
          "time": 53.999946,
          "velocity": 1
        },
        {
          "duration": 0.10714275000000129,
          "durationTicks": 48,
          "midi": 44,
          "name": "G#2",
          "ticks": 24384,
          "time": 54.42851700000001,
          "velocity": 1
        },
        {
          "duration": 0.10714275000000129,
          "durationTicks": 48,
          "midi": 44,
          "name": "G#2",
          "ticks": 24576,
          "time": 54.857088000000005,
          "velocity": 1
        },
        {
          "duration": 0.10714275000000129,
          "durationTicks": 48,
          "midi": 44,
          "name": "G#2",
          "ticks": 24768,
          "time": 55.285659,
          "velocity": 1
        },
        {
          "duration": 0.12499987499999321,
          "durationTicks": 56,
          "midi": 44,
          "name": "G#2",
          "ticks": 24960,
          "time": 55.71423000000001,
          "velocity": 1
        },
        {
          "duration": 0.12499987499999321,
          "durationTicks": 56,
          "midi": 44,
          "name": "G#2",
          "ticks": 25152,
          "time": 56.142801000000006,
          "velocity": 1
        },
        {
          "duration": 0.12499987500000032,
          "durationTicks": 56,
          "midi": 44,
          "name": "G#2",
          "ticks": 25344,
          "time": 56.571372000000004,
          "velocity": 1
        },
        {
          "duration": 0.08928562500000936,
          "durationTicks": 40,
          "midi": 44,
          "name": "G#2",
          "ticks": 25536,
          "time": 56.999943,
          "velocity": 1
        },
        {
          "duration": 0.10714275000000129,
          "durationTicks": 48,
          "midi": 44,
          "name": "G#2",
          "ticks": 25728,
          "time": 57.42851400000001,
          "velocity": 1
        },
        {
          "duration": 0.10714275000000129,
          "durationTicks": 48,
          "midi": 44,
          "name": "G#2",
          "ticks": 25920,
          "time": 57.857085000000005,
          "velocity": 1
        },
        {
          "duration": 0.12499987500000032,
          "durationTicks": 56,
          "midi": 44,
          "name": "G#2",
          "ticks": 26112,
          "time": 58.285656,
          "velocity": 1
        },
        {
          "duration": 0.07142849999999612,
          "durationTicks": 32,
          "midi": 44,
          "name": "G#2",
          "ticks": 26304,
          "time": 58.71422700000001,
          "velocity": 1
        },
        {
          "duration": 0.08928562500000226,
          "durationTicks": 40,
          "midi": 44,
          "name": "G#2",
          "ticks": 26496,
          "time": 59.142798000000006,
          "velocity": 1
        },
        {
          "duration": 0.08928562500000226,
          "durationTicks": 40,
          "midi": 44,
          "name": "G#2",
          "ticks": 26688,
          "time": 59.571369000000004,
          "velocity": 1
        },
        {
          "duration": 0.07142849999999612,
          "durationTicks": 32,
          "midi": 44,
          "name": "G#2",
          "ticks": 26880,
          "time": 59.99994,
          "velocity": 1
        },
        {
          "duration": 0.10714274999999418,
          "durationTicks": 48,
          "midi": 44,
          "name": "G#2",
          "ticks": 27072,
          "time": 60.42851100000001,
          "velocity": 1
        },
        {
          "duration": 0.10714275000000129,
          "durationTicks": 48,
          "midi": 44,
          "name": "G#2",
          "ticks": 27264,
          "time": 60.857082000000005,
          "velocity": 1
        },
        {
          "duration": 0.08928562500000226,
          "durationTicks": 40,
          "midi": 44,
          "name": "G#2",
          "ticks": 27456,
          "time": 61.285653,
          "velocity": 1
        },
        {
          "duration": 0.08928562500000936,
          "durationTicks": 40,
          "midi": 44,
          "name": "G#2",
          "ticks": 27648,
          "time": 61.714224,
          "velocity": 1
        },
        {
          "duration": 0.07142849999999612,
          "durationTicks": 32,
          "midi": 44,
          "name": "G#2",
          "ticks": 27840,
          "time": 62.14279500000001,
          "velocity": 1
        },
        {
          "duration": 0.10714275000000129,
          "durationTicks": 48,
          "midi": 44,
          "name": "G#2",
          "ticks": 28032,
          "time": 62.571366000000005,
          "velocity": 1
        },
        {
          "duration": 0.12499987500000032,
          "durationTicks": 56,
          "midi": 44,
          "name": "G#2",
          "ticks": 28224,
          "time": 62.999937,
          "velocity": 1
        },
        {
          "duration": 0.08928562500000226,
          "durationTicks": 40,
          "midi": 44,
          "name": "G#2",
          "ticks": 28416,
          "time": 63.42850800000001,
          "velocity": 1
        },
        {
          "duration": 0.12499987500000032,
          "durationTicks": 56,
          "midi": 44,
          "name": "G#2",
          "ticks": 28800,
          "time": 64.28565,
          "velocity": 1
        },
        {
          "duration": 0.10714274999999418,
          "durationTicks": 48,
          "midi": 44,
          "name": "G#2",
          "ticks": 28992,
          "time": 64.71422100000001,
          "velocity": 1
        },
        {
          "duration": 0.16071412499999838,
          "durationTicks": 72,
          "midi": 44,
          "name": "G#2",
          "ticks": 29376,
          "time": 65.571363,
          "velocity": 1
        },
        {
          "duration": 0.7321421249999958,
          "durationTicks": 328,
          "midi": 44,
          "name": "G#2",
          "ticks": 30144,
          "time": 67.28564700000001,
          "velocity": 1
        },
        {
          "duration": 0.7142849999999896,
          "durationTicks": 320,
          "midi": 44,
          "name": "G#2",
          "ticks": 30528,
          "time": 68.14278900000001,
          "velocity": 1
        },
        {
          "duration": 0.7499992500000019,
          "durationTicks": 336,
          "midi": 44,
          "name": "G#2",
          "ticks": 30912,
          "time": 68.999931,
          "velocity": 1
        },
        {
          "duration": 0.6785707500000058,
          "durationTicks": 304,
          "midi": 44,
          "name": "G#2",
          "ticks": 31296,
          "time": 69.857073,
          "velocity": 1
        },
        {
          "duration": 0.5357137499999993,
          "durationTicks": 240,
          "midi": 44,
          "name": "G#2",
          "ticks": 31680,
          "time": 70.71421500000001,
          "velocity": 1
        },
        {
          "duration": 0.4821423749999951,
          "durationTicks": 216,
          "midi": 44,
          "name": "G#2",
          "ticks": 32064,
          "time": 71.571357,
          "velocity": 1
        },
        {
          "duration": 0.16071412499999838,
          "durationTicks": 72,
          "midi": 44,
          "name": "G#2",
          "ticks": 32448,
          "time": 72.428499,
          "velocity": 1
        },
        {
          "duration": 0.6607136249999854,
          "durationTicks": 296,
          "midi": 44,
          "name": "G#2",
          "ticks": 32832,
          "time": 73.28564100000001,
          "velocity": 1
        },
        {
          "duration": 0.6249993750000016,
          "durationTicks": 280,
          "midi": 44,
          "name": "G#2",
          "ticks": 33216,
          "time": 74.14278300000001,
          "velocity": 1
        },
        {
          "duration": 0.6249993750000016,
          "durationTicks": 280,
          "midi": 44,
          "name": "G#2",
          "ticks": 33600,
          "time": 74.999925,
          "velocity": 1
        },
        {
          "duration": 0.5535708750000055,
          "durationTicks": 248,
          "midi": 44,
          "name": "G#2",
          "ticks": 33984,
          "time": 75.857067,
          "velocity": 1
        },
        {
          "duration": 0.08928562500000226,
          "durationTicks": 40,
          "midi": 44,
          "name": "G#2",
          "ticks": 34304,
          "time": 76.571352,
          "velocity": 1
        },
        {
          "duration": 0.07142849999999612,
          "durationTicks": 32,
          "midi": 44,
          "name": "G#2",
          "ticks": 34368,
          "time": 76.71420900000001,
          "velocity": 1
        },
        {
          "duration": 0.08928562499998804,
          "durationTicks": 40,
          "midi": 44,
          "name": "G#2",
          "ticks": 34432,
          "time": 76.85706600000002,
          "velocity": 1
        },
        {
          "duration": 0.053571375000004195,
          "durationTicks": 24,
          "midi": 44,
          "name": "G#2",
          "ticks": 34496,
          "time": 76.999923,
          "velocity": 1
        },
        {
          "duration": 0.12499987500000032,
          "durationTicks": 56,
          "midi": 44,
          "name": "G#2",
          "ticks": 34560,
          "time": 77.14278,
          "velocity": 1
        },
        {
          "duration": 0.5714280000000116,
          "durationTicks": 256,
          "midi": 44,
          "name": "G#2",
          "ticks": 36288,
          "time": 80.999919,
          "velocity": 1
        },
        {
          "duration": 0.6607136249999996,
          "durationTicks": 296,
          "midi": 44,
          "name": "G#2",
          "ticks": 36672,
          "time": 81.857061,
          "velocity": 1
        },
        {
          "duration": 0.6428564999999935,
          "durationTicks": 288,
          "midi": 44,
          "name": "G#2",
          "ticks": 37056,
          "time": 82.71420300000001,
          "velocity": 1
        },
        {
          "duration": 0.6249993750000016,
          "durationTicks": 280,
          "midi": 44,
          "name": "G#2",
          "ticks": 37440,
          "time": 83.57134500000001,
          "velocity": 1
        },
        {
          "duration": 0.5535708750000055,
          "durationTicks": 248,
          "midi": 44,
          "name": "G#2",
          "ticks": 37824,
          "time": 84.428487,
          "velocity": 1
        },
        {
          "duration": 0.5714280000000116,
          "durationTicks": 256,
          "midi": 44,
          "name": "G#2",
          "ticks": 38208,
          "time": 85.285629,
          "velocity": 1
        },
        {
          "duration": 0.44642812499999707,
          "durationTicks": 200,
          "midi": 44,
          "name": "G#2",
          "ticks": 38592,
          "time": 86.14277100000001,
          "velocity": 1
        },
        {
          "duration": 0.44642812499999707,
          "durationTicks": 200,
          "midi": 44,
          "name": "G#2",
          "ticks": 38976,
          "time": 86.999913,
          "velocity": 1
        },
        {
          "duration": 0.4107138750000132,
          "durationTicks": 184,
          "midi": 44,
          "name": "G#2",
          "ticks": 39360,
          "time": 87.857055,
          "velocity": 1
        },
        {
          "duration": 0.4642852500000032,
          "durationTicks": 208,
          "midi": 44,
          "name": "G#2",
          "ticks": 39744,
          "time": 88.71419700000001,
          "velocity": 1
        },
        {
          "duration": 0.4642852500000032,
          "durationTicks": 208,
          "midi": 44,
          "name": "G#2",
          "ticks": 40128,
          "time": 89.57133900000001,
          "velocity": 1
        },
        {
          "duration": 0.44642812499999707,
          "durationTicks": 200,
          "midi": 44,
          "name": "G#2",
          "ticks": 40512,
          "time": 90.428481,
          "velocity": 1
        },
        {
          "duration": 0.5178566250000074,
          "durationTicks": 232,
          "midi": 44,
          "name": "G#2",
          "ticks": 40896,
          "time": 91.285623,
          "velocity": 1
        },
        {
          "duration": 0.5892851249999893,
          "durationTicks": 264,
          "midi": 44,
          "name": "G#2",
          "ticks": 41280,
          "time": 92.14276500000001,
          "velocity": 1
        },
        {
          "duration": 0.44642812499999707,
          "durationTicks": 200,
          "midi": 44,
          "name": "G#2",
          "ticks": 41664,
          "time": 92.99990700000001,
          "velocity": 1
        },
        {
          "duration": 0.017857125000020346,
          "durationTicks": 8,
          "midi": 44,
          "name": "G#2",
          "ticks": 41984,
          "time": 93.714192,
          "velocity": 1
        },
        {
          "duration": 0.07142850000001033,
          "durationTicks": 32,
          "midi": 44,
          "name": "G#2",
          "ticks": 41984,
          "time": 93.714192,
          "velocity": 1
        },
        {
          "duration": 0.14285700000000645,
          "durationTicks": 64,
          "midi": 44,
          "name": "G#2",
          "ticks": 41984,
          "time": 93.714192,
          "velocity": 1
        },
        {
          "duration": 0.07142849999999612,
          "durationTicks": 32,
          "midi": 44,
          "name": "G#2",
          "ticks": 42048,
          "time": 93.857049,
          "velocity": 1
        },
        {
          "duration": 0.017857125000006135,
          "durationTicks": 8,
          "midi": 42,
          "name": "F#2",
          "ticks": 42048,
          "time": 93.857049,
          "velocity": 1
        },
        {
          "duration": 0.03571425000001227,
          "durationTicks": 16,
          "midi": 44,
          "name": "G#2",
          "ticks": 42176,
          "time": 94.142763,
          "velocity": 1
        },
        {
          "duration": 0.2857139999999987,
          "durationTicks": 128,
          "midi": 44,
          "name": "G#2",
          "ticks": 42240,
          "time": 94.28562000000001,
          "velocity": 1
        },
        {
          "duration": 0.26785687499999256,
          "durationTicks": 120,
          "midi": 44,
          "name": "G#2",
          "ticks": 42432,
          "time": 94.71419100000001,
          "velocity": 1
        },
        {
          "duration": 0.24999975000000063,
          "durationTicks": 112,
          "midi": 44,
          "name": "G#2",
          "ticks": 42624,
          "time": 95.142762,
          "velocity": 1
        },
        {
          "duration": 0.24999975000000063,
          "durationTicks": 112,
          "midi": 44,
          "name": "G#2",
          "ticks": 42816,
          "time": 95.57133300000001,
          "velocity": 1
        },
        {
          "duration": 0.24999975000000063,
          "durationTicks": 112,
          "midi": 44,
          "name": "G#2",
          "ticks": 43008,
          "time": 95.99990400000002,
          "velocity": 1
        },
        {
          "duration": 0.24999975000000063,
          "durationTicks": 112,
          "midi": 44,
          "name": "G#2",
          "ticks": 43200,
          "time": 96.428475,
          "velocity": 1
        },
        {
          "duration": 0.2321426249999945,
          "durationTicks": 104,
          "midi": 44,
          "name": "G#2",
          "ticks": 43392,
          "time": 96.85704600000001,
          "velocity": 1
        },
        {
          "duration": 0.21428550000000257,
          "durationTicks": 96,
          "midi": 44,
          "name": "G#2",
          "ticks": 43584,
          "time": 97.285617,
          "velocity": 1
        },
        {
          "duration": 0.21428550000000257,
          "durationTicks": 96,
          "midi": 44,
          "name": "G#2",
          "ticks": 43776,
          "time": 97.71418800000001,
          "velocity": 1
        },
        {
          "duration": 0.2321426249999945,
          "durationTicks": 104,
          "midi": 44,
          "name": "G#2",
          "ticks": 43968,
          "time": 98.14275900000001,
          "velocity": 1
        },
        {
          "duration": 0.19642837500001065,
          "durationTicks": 88,
          "midi": 44,
          "name": "G#2",
          "ticks": 44160,
          "time": 98.57133,
          "velocity": 1
        },
        {
          "duration": 0.2321426249999945,
          "durationTicks": 104,
          "midi": 44,
          "name": "G#2",
          "ticks": 44352,
          "time": 98.99990100000001,
          "velocity": 1
        },
        {
          "duration": 0.19642837499999644,
          "durationTicks": 88,
          "midi": 44,
          "name": "G#2",
          "ticks": 44544,
          "time": 99.42847200000001,
          "velocity": 1
        },
        {
          "duration": 0.21428550000000257,
          "durationTicks": 96,
          "midi": 44,
          "name": "G#2",
          "ticks": 44736,
          "time": 99.857043,
          "velocity": 1
        },
        {
          "duration": 0.21428550000000257,
          "durationTicks": 96,
          "midi": 44,
          "name": "G#2",
          "ticks": 44928,
          "time": 100.28561400000001,
          "velocity": 1
        },
        {
          "duration": 0.1785712499999903,
          "durationTicks": 80,
          "midi": 44,
          "name": "G#2",
          "ticks": 45120,
          "time": 100.71418500000001,
          "velocity": 1
        },
        {
          "duration": 0.21428550000000257,
          "durationTicks": 96,
          "midi": 44,
          "name": "G#2",
          "ticks": 45312,
          "time": 101.142756,
          "velocity": 1
        },
        {
          "duration": 0.1785712499999903,
          "durationTicks": 80,
          "midi": 44,
          "name": "G#2",
          "ticks": 45504,
          "time": 101.57132700000001,
          "velocity": 1
        },
        {
          "duration": 0.12499987500000032,
          "durationTicks": 56,
          "midi": 44,
          "name": "G#2",
          "ticks": 45696,
          "time": 101.999898,
          "velocity": 1
        },
        {
          "duration": 0.10714275000000839,
          "durationTicks": 48,
          "midi": 44,
          "name": "G#2",
          "ticks": 45888,
          "time": 102.428469,
          "velocity": 1
        },
        {
          "duration": 0.10714274999999418,
          "durationTicks": 48,
          "midi": 44,
          "name": "G#2",
          "ticks": 46080,
          "time": 102.85704000000001,
          "velocity": 1
        },
        {
          "duration": 0.12499987500000032,
          "durationTicks": 56,
          "midi": 44,
          "name": "G#2",
          "ticks": 46272,
          "time": 103.285611,
          "velocity": 1
        },
        {
          "duration": 0.14285700000000645,
          "durationTicks": 64,
          "midi": 44,
          "name": "G#2",
          "ticks": 46464,
          "time": 103.71418200000001,
          "velocity": 1
        },
        {
          "duration": 0.1249998749999861,
          "durationTicks": 56,
          "midi": 44,
          "name": "G#2",
          "ticks": 46656,
          "time": 104.14275300000001,
          "velocity": 1
        },
        {
          "duration": 0.12499987500000032,
          "durationTicks": 56,
          "midi": 44,
          "name": "G#2",
          "ticks": 46848,
          "time": 104.571324,
          "velocity": 1
        },
        {
          "duration": 0.1785712500000045,
          "durationTicks": 80,
          "midi": 44,
          "name": "G#2",
          "ticks": 48384,
          "time": 107.999892,
          "velocity": 1
        },
        {
          "duration": 0.14285700000000645,
          "durationTicks": 64,
          "midi": 44,
          "name": "G#2",
          "ticks": 48576,
          "time": 108.42846300000001,
          "velocity": 1
        },
        {
          "duration": 0.14285700000000645,
          "durationTicks": 64,
          "midi": 44,
          "name": "G#2",
          "ticks": 48768,
          "time": 108.85703400000001,
          "velocity": 1
        },
        {
          "duration": 0.12499987500000032,
          "durationTicks": 56,
          "midi": 44,
          "name": "G#2",
          "ticks": 48960,
          "time": 109.285605,
          "velocity": 1
        },
        {
          "duration": 0.12499987500001453,
          "durationTicks": 56,
          "midi": 44,
          "name": "G#2",
          "ticks": 49152,
          "time": 109.71417600000001,
          "velocity": 1
        },
        {
          "duration": 0.12499987500000032,
          "durationTicks": 56,
          "midi": 44,
          "name": "G#2",
          "ticks": 49344,
          "time": 110.14274700000001,
          "velocity": 1
        },
        {
          "duration": 0.12499987500001453,
          "durationTicks": 56,
          "midi": 44,
          "name": "G#2",
          "ticks": 49536,
          "time": 110.571318,
          "velocity": 1
        },
        {
          "duration": 0.10714274999999418,
          "durationTicks": 48,
          "midi": 44,
          "name": "G#2",
          "ticks": 49728,
          "time": 110.99988900000001,
          "velocity": 1
        },
        {
          "duration": 0.10714274999999418,
          "durationTicks": 48,
          "midi": 44,
          "name": "G#2",
          "ticks": 49920,
          "time": 111.42846000000002,
          "velocity": 1
        },
        {
          "duration": 0.10714275000000839,
          "durationTicks": 48,
          "midi": 44,
          "name": "G#2",
          "ticks": 50112,
          "time": 111.857031,
          "velocity": 1
        },
        {
          "duration": 0.12499987500000032,
          "durationTicks": 56,
          "midi": 44,
          "name": "G#2",
          "ticks": 50304,
          "time": 112.28560200000001,
          "velocity": 1
        },
        {
          "duration": 0.12499987500001453,
          "durationTicks": 56,
          "midi": 44,
          "name": "G#2",
          "ticks": 50496,
          "time": 112.714173,
          "velocity": 1
        },
        {
          "duration": 0.12499987500001453,
          "durationTicks": 56,
          "midi": 44,
          "name": "G#2",
          "ticks": 50688,
          "time": 113.14274400000001,
          "velocity": 1
        },
        {
          "duration": 0.08928562499998804,
          "durationTicks": 40,
          "midi": 44,
          "name": "G#2",
          "ticks": 50880,
          "time": 113.57131500000001,
          "velocity": 1
        },
        {
          "duration": 0.10714275000000839,
          "durationTicks": 48,
          "midi": 44,
          "name": "G#2",
          "ticks": 51072,
          "time": 113.999886,
          "velocity": 1
        },
        {
          "duration": 0.10714274999999418,
          "durationTicks": 48,
          "midi": 44,
          "name": "G#2",
          "ticks": 51264,
          "time": 114.42845700000001,
          "velocity": 1
        },
        {
          "duration": 0.12499987500000032,
          "durationTicks": 56,
          "midi": 44,
          "name": "G#2",
          "ticks": 51456,
          "time": 114.85702800000001,
          "velocity": 1
        },
        {
          "duration": 0.07142850000001033,
          "durationTicks": 32,
          "midi": 44,
          "name": "G#2",
          "ticks": 51648,
          "time": 115.285599,
          "velocity": 1
        },
        {
          "duration": 0.08928562499998804,
          "durationTicks": 40,
          "midi": 44,
          "name": "G#2",
          "ticks": 51840,
          "time": 115.71417000000001,
          "velocity": 1
        },
        {
          "duration": 0.08928562499998804,
          "durationTicks": 40,
          "midi": 44,
          "name": "G#2",
          "ticks": 52032,
          "time": 116.14274100000002,
          "velocity": 1
        },
        {
          "duration": 0.07142850000001033,
          "durationTicks": 32,
          "midi": 44,
          "name": "G#2",
          "ticks": 52224,
          "time": 116.571312,
          "velocity": 1
        },
        {
          "duration": 0.10714274999999418,
          "durationTicks": 48,
          "midi": 44,
          "name": "G#2",
          "ticks": 52416,
          "time": 116.99988300000001,
          "velocity": 1
        },
        {
          "duration": 0.10714274999999418,
          "durationTicks": 48,
          "midi": 44,
          "name": "G#2",
          "ticks": 52608,
          "time": 117.42845400000002,
          "velocity": 1
        },
        {
          "duration": 0.08928562499998804,
          "durationTicks": 40,
          "midi": 44,
          "name": "G#2",
          "ticks": 52800,
          "time": 117.85702500000001,
          "velocity": 1
        },
        {
          "duration": 0.08928562499998804,
          "durationTicks": 40,
          "midi": 44,
          "name": "G#2",
          "ticks": 52992,
          "time": 118.28559600000001,
          "velocity": 1
        },
        {
          "duration": 0.07142850000001033,
          "durationTicks": 32,
          "midi": 44,
          "name": "G#2",
          "ticks": 53184,
          "time": 118.714167,
          "velocity": 1
        },
        {
          "duration": 0.10714275000000839,
          "durationTicks": 48,
          "midi": 44,
          "name": "G#2",
          "ticks": 53376,
          "time": 119.14273800000001,
          "velocity": 1
        },
        {
          "duration": 0.12499987500000032,
          "durationTicks": 56,
          "midi": 44,
          "name": "G#2",
          "ticks": 53568,
          "time": 119.57130900000001,
          "velocity": 1
        },
        {
          "duration": 0.08928562500000226,
          "durationTicks": 40,
          "midi": 44,
          "name": "G#2",
          "ticks": 53760,
          "time": 119.99988,
          "velocity": 1
        },
        {
          "duration": 0.12499987500000032,
          "durationTicks": 56,
          "midi": 44,
          "name": "G#2",
          "ticks": 54144,
          "time": 120.85702200000001,
          "velocity": 1
        },
        {
          "duration": 0.10714275000000839,
          "durationTicks": 48,
          "midi": 44,
          "name": "G#2",
          "ticks": 54336,
          "time": 121.285593,
          "velocity": 1
        },
        {
          "duration": 0.16071412499999838,
          "durationTicks": 72,
          "midi": 44,
          "name": "G#2",
          "ticks": 54720,
          "time": 122.14273500000002,
          "velocity": 1
        },
        {
          "duration": 0.7321421249999958,
          "durationTicks": 328,
          "midi": 44,
          "name": "G#2",
          "ticks": 55488,
          "time": 123.85701900000001,
          "velocity": 1
        },
        {
          "duration": 0.714285000000018,
          "durationTicks": 320,
          "midi": 44,
          "name": "G#2",
          "ticks": 55872,
          "time": 124.714161,
          "velocity": 1
        },
        {
          "duration": 0.7499992500000019,
          "durationTicks": 336,
          "midi": 44,
          "name": "G#2",
          "ticks": 56256,
          "time": 125.57130300000001,
          "velocity": 1
        },
        {
          "duration": 0.6785707499999916,
          "durationTicks": 304,
          "midi": 44,
          "name": "G#2",
          "ticks": 56640,
          "time": 126.42844500000001,
          "velocity": 1
        },
        {
          "duration": 0.5357137499999993,
          "durationTicks": 240,
          "midi": 44,
          "name": "G#2",
          "ticks": 57024,
          "time": 127.285587,
          "velocity": 1
        },
        {
          "duration": 0.4821423749999951,
          "durationTicks": 216,
          "midi": 44,
          "name": "G#2",
          "ticks": 57408,
          "time": 128.142729,
          "velocity": 1
        },
        {
          "duration": 0.16071412499999838,
          "durationTicks": 72,
          "midi": 44,
          "name": "G#2",
          "ticks": 57792,
          "time": 128.999871,
          "velocity": 1
        },
        {
          "duration": 0.6607136249999996,
          "durationTicks": 296,
          "midi": 44,
          "name": "G#2",
          "ticks": 58176,
          "time": 129.85701300000002,
          "velocity": 1
        },
        {
          "duration": 0.6249993749999874,
          "durationTicks": 280,
          "midi": 44,
          "name": "G#2",
          "ticks": 58560,
          "time": 130.714155,
          "velocity": 1
        },
        {
          "duration": 0.6249993749999874,
          "durationTicks": 280,
          "midi": 44,
          "name": "G#2",
          "ticks": 58944,
          "time": 131.57129700000002,
          "velocity": 1
        },
        {
          "duration": 0.5535708750000197,
          "durationTicks": 248,
          "midi": 44,
          "name": "G#2",
          "ticks": 59328,
          "time": 132.428439,
          "velocity": 1
        },
        {
          "duration": 0.08928562500000226,
          "durationTicks": 40,
          "midi": 44,
          "name": "G#2",
          "ticks": 59648,
          "time": 133.14272400000002,
          "velocity": 1
        },
        {
          "duration": 0.07142850000002454,
          "durationTicks": 32,
          "midi": 44,
          "name": "G#2",
          "ticks": 59712,
          "time": 133.285581,
          "velocity": 1
        },
        {
          "duration": 0.08928562500003068,
          "durationTicks": 40,
          "midi": 44,
          "name": "G#2",
          "ticks": 59776,
          "time": 133.428438,
          "velocity": 1
        },
        {
          "duration": 0.053571374999989985,
          "durationTicks": 24,
          "midi": 44,
          "name": "G#2",
          "ticks": 59840,
          "time": 133.57129500000002,
          "velocity": 1
        },
        {
          "duration": 0.12499987500001453,
          "durationTicks": 56,
          "midi": 44,
          "name": "G#2",
          "ticks": 59904,
          "time": 133.714152,
          "velocity": 1
        },
        {
          "duration": 0.5714279999999974,
          "durationTicks": 256,
          "midi": 44,
          "name": "G#2",
          "ticks": 61632,
          "time": 137.571291,
          "velocity": 1
        },
        {
          "duration": 0.6607136249999996,
          "durationTicks": 296,
          "midi": 44,
          "name": "G#2",
          "ticks": 62016,
          "time": 138.428433,
          "velocity": 1
        },
        {
          "duration": 0.6428564999999935,
          "durationTicks": 288,
          "midi": 44,
          "name": "G#2",
          "ticks": 62400,
          "time": 139.28557500000002,
          "velocity": 1
        },
        {
          "duration": 0.6249993749999874,
          "durationTicks": 280,
          "midi": 44,
          "name": "G#2",
          "ticks": 62784,
          "time": 140.142717,
          "velocity": 1
        },
        {
          "duration": 0.5535708749999912,
          "durationTicks": 248,
          "midi": 44,
          "name": "G#2",
          "ticks": 63168,
          "time": 140.99985900000001,
          "velocity": 1
        },
        {
          "duration": 0.571427999999969,
          "durationTicks": 256,
          "midi": 44,
          "name": "G#2",
          "ticks": 63552,
          "time": 141.85700100000003,
          "velocity": 1
        },
        {
          "duration": 0.4464281250000113,
          "durationTicks": 200,
          "midi": 44,
          "name": "G#2",
          "ticks": 63936,
          "time": 142.714143,
          "velocity": 1
        },
        {
          "duration": 0.4464281250000113,
          "durationTicks": 200,
          "midi": 44,
          "name": "G#2",
          "ticks": 64320,
          "time": 143.57128500000002,
          "velocity": 1
        },
        {
          "duration": 0.410713874999999,
          "durationTicks": 184,
          "midi": 44,
          "name": "G#2",
          "ticks": 64704,
          "time": 144.428427,
          "velocity": 1
        },
        {
          "duration": 0.464285249999989,
          "durationTicks": 208,
          "midi": 44,
          "name": "G#2",
          "ticks": 65088,
          "time": 145.285569,
          "velocity": 1
        },
        {
          "duration": 0.464285249999989,
          "durationTicks": 208,
          "midi": 44,
          "name": "G#2",
          "ticks": 65472,
          "time": 146.14271100000002,
          "velocity": 1
        },
        {
          "duration": 0.4464281250000113,
          "durationTicks": 200,
          "midi": 44,
          "name": "G#2",
          "ticks": 65856,
          "time": 146.999853,
          "velocity": 1
        },
        {
          "duration": 0.517856624999979,
          "durationTicks": 232,
          "midi": 44,
          "name": "G#2",
          "ticks": 66240,
          "time": 147.856995,
          "velocity": 1
        },
        {
          "duration": 0.5892851250000035,
          "durationTicks": 264,
          "midi": 44,
          "name": "G#2",
          "ticks": 66624,
          "time": 148.71413700000002,
          "velocity": 1
        },
        {
          "duration": 0.4464281250000113,
          "durationTicks": 200,
          "midi": 44,
          "name": "G#2",
          "ticks": 67008,
          "time": 149.571279,
          "velocity": 1
        },
        {
          "duration": 0.017857124999977714,
          "durationTicks": 8,
          "midi": 44,
          "name": "G#2",
          "ticks": 67328,
          "time": 150.28556400000002,
          "velocity": 1
        },
        {
          "duration": 0.07142849999999612,
          "durationTicks": 32,
          "midi": 44,
          "name": "G#2",
          "ticks": 67328,
          "time": 150.28556400000002,
          "velocity": 1
        },
        {
          "duration": 0.14285699999999224,
          "durationTicks": 64,
          "midi": 44,
          "name": "G#2",
          "ticks": 67328,
          "time": 150.28556400000002,
          "velocity": 1
        },
        {
          "duration": 0.37499962499998674,
          "durationTicks": 168,
          "midi": 44,
          "name": "G#2",
          "ticks": 67776,
          "time": 151.28556300000002,
          "velocity": 1
        },
        {
          "duration": 0.5535708750000197,
          "durationTicks": 248,
          "midi": 44,
          "name": "G#2",
          "ticks": 68160,
          "time": 152.142705,
          "velocity": 1
        },
        {
          "duration": 0.5892851250000035,
          "durationTicks": 264,
          "midi": 44,
          "name": "G#2",
          "ticks": 68544,
          "time": 152.99984700000002,
          "velocity": 1
        },
        {
          "duration": 0.6071422500000097,
          "durationTicks": 272,
          "midi": 44,
          "name": "G#2",
          "ticks": 68928,
          "time": 153.856989,
          "velocity": 1
        },
        {
          "duration": 0.6071422500000097,
          "durationTicks": 272,
          "midi": 44,
          "name": "G#2",
          "ticks": 69312,
          "time": 154.714131,
          "velocity": 1
        },
        {
          "duration": 0.6607136249999996,
          "durationTicks": 296,
          "midi": 44,
          "name": "G#2",
          "ticks": 69696,
          "time": 155.57127300000002,
          "velocity": 1
        },
        {
          "duration": 0.21428550000001678,
          "durationTicks": 96,
          "midi": 44,
          "name": "G#2",
          "ticks": 70080,
          "time": 156.428415,
          "velocity": 1
        },
        {
          "duration": 0.5178566250000074,
          "durationTicks": 232,
          "midi": 44,
          "name": "G#2",
          "ticks": 70272,
          "time": 156.856986,
          "velocity": 1
        }
      ],
      "endOfTrackTicks": 70504
    }
  ]
}