{
  "header": {
    "keySignatures": [],
    "meta": [],
    "name": "Yellow",
    "ppq": 480,
    "tempos": [
      {
        "bpm": 90.00009000009,
        "ticks": 0
      }
    ],
    "timeSignatures": [
      {
        "ticks": 0,
        "timeSignature": [
          4,
          4
        ],
        "measures": 0
      },
      {
        "ticks": 1920,
        "timeSignature": [
          4,
          4
        ],
        "measures": 1
      }
    ]
  },
  "tracks": [
    {
      "channel": 1,
      "controlChanges": {
        "7": [
          {
            "number": 7,
            "ticks": 512,
            "time": 0.7111103999999999,
            "value": 0.9133858267716536
          }
        ],
        "10": [
          {
            "number": 10,
            "ticks": 512,
            "time": 0.7111103999999999,
            "value": 0.5039370078740157
          }
        ],
        "11": [
          {
            "number": 11,
            "ticks": 512,
            "time": 0.7111103999999999,
            "value": 1
          }
        ],
        "91": [
          {
            "number": 91,
            "ticks": 516,
            "time": 0.71666595,
            "value": 0
          }
        ],
        "93": [
          {
            "number": 93,
            "ticks": 516,
            "time": 0.71666595,
            "value": 0
          }
        ]
      },
      "pitchBends": [],
      "instrument": {
        "family": "bass",
        "number": 33,
        "name": "electric bass (finger)"
      },
      "name": "Yellow",
      "notes": [
        {
          "duration": 0.3194441250000004,
          "durationTicks": 230,
          "midi": 35,
          "name": "B1",
          "ticks": 9600,
          "time": 13.33332,
          "velocity": 0.8818897637795275
        },
        {
          "duration": 0.3194441250000004,
          "durationTicks": 230,
          "midi": 35,
          "name": "B1",
          "ticks": 9840,
          "time": 13.666653,
          "velocity": 0.8818897637795275
        },
        {
          "duration": 0.3194441250000004,
          "durationTicks": 230,
          "midi": 35,
          "name": "B1",
          "ticks": 10080,
          "time": 13.999986,
          "velocity": 0.8818897637795275
        },
        {
          "duration": 0.3194441250000004,
          "durationTicks": 230,
          "midi": 35,
          "name": "B1",
          "ticks": 10320,
          "time": 14.333319,
          "velocity": 0.8818897637795275
        },
        {
          "duration": 0.3194441250000004,
          "durationTicks": 230,
          "midi": 35,
          "name": "B1",
          "ticks": 10560,
          "time": 14.666652,
          "velocity": 0.8818897637795275
        },
        {
          "duration": 0.3194441250000022,
          "durationTicks": 230,
          "midi": 35,
          "name": "B1",
          "ticks": 10800,
          "time": 14.999984999999999,
          "velocity": 0.8818897637795275
        },
        {
          "duration": 0.3194441250000004,
          "durationTicks": 230,
          "midi": 35,
          "name": "B1",
          "ticks": 11040,
          "time": 15.333318,
          "velocity": 0.8818897637795275
        },
        {
          "duration": 0.3194441250000004,
          "durationTicks": 230,
          "midi": 35,
          "name": "B1",
          "ticks": 11280,
          "time": 15.666651,
          "velocity": 0.8818897637795275
        },
        {
          "duration": 0.3194441250000022,
          "durationTicks": 230,
          "midi": 35,
          "name": "B1",
          "ticks": 11520,
          "time": 15.999984,
          "velocity": 0.8818897637795275
        },
        {
          "duration": 0.3194441250000004,
          "durationTicks": 230,
          "midi": 35,
          "name": "B1",
          "ticks": 11760,
          "time": 16.333317,
          "velocity": 0.8818897637795275
        },
        {
          "duration": 0.3194441250000004,
          "durationTicks": 230,
          "midi": 35,
          "name": "B1",
          "ticks": 12000,
          "time": 16.66665,
          "velocity": 0.8818897637795275
        },
        {
          "duration": 0.3194441250000004,
          "durationTicks": 230,
          "midi": 35,
          "name": "B1",
          "ticks": 12240,
          "time": 16.999983,
          "velocity": 0.8818897637795275
        },
        {
          "duration": 0.3194441250000004,
          "durationTicks": 230,
          "midi": 35,
          "name": "B1",
          "ticks": 12480,
          "time": 17.333316,
          "velocity": 0.8818897637795275
        },
        {
          "duration": 0.3194441250000004,
          "durationTicks": 230,
          "midi": 35,
          "name": "B1",
          "ticks": 12720,
          "time": 17.666649,
          "velocity": 0.8818897637795275
        },
        {
          "duration": 0.3194441250000004,
          "durationTicks": 230,
          "midi": 35,
          "name": "B1",
          "ticks": 12960,
          "time": 17.999982,
          "velocity": 0.8818897637795275
        },
        {
          "duration": 0.3194441250000004,
          "durationTicks": 230,
          "midi": 35,
          "name": "B1",
          "ticks": 13200,
          "time": 18.333315,
          "velocity": 0.8818897637795275
        },
        {
          "duration": 0.3194441250000004,
          "durationTicks": 230,
          "midi": 30,
          "name": "F#1",
          "ticks": 13440,
          "time": 18.666648,
          "velocity": 0.8818897637795275
        },
        {
          "duration": 0.3194441250000004,
          "durationTicks": 230,
          "midi": 30,
          "name": "F#1",
          "ticks": 13680,
          "time": 18.999981,
          "velocity": 0.8818897637795275
        },
        {
          "duration": 0.31944412500000396,
          "durationTicks": 230,
          "midi": 30,
          "name": "F#1",
          "ticks": 13920,
          "time": 19.333313999999998,
          "velocity": 0.8818897637795275
        },
        {
          "duration": 0.3194441250000004,
          "durationTicks": 230,
          "midi": 30,
          "name": "F#1",
          "ticks": 14160,
          "time": 19.666647,
          "velocity": 0.8818897637795275
        },
        {
          "duration": 0.3194441250000004,
          "durationTicks": 230,
          "midi": 30,
          "name": "F#1",
          "ticks": 14400,
          "time": 19.99998,
          "velocity": 0.8818897637795275
        },
        {
          "duration": 0.3194441250000004,
          "durationTicks": 230,
          "midi": 30,
          "name": "F#1",
          "ticks": 14640,
          "time": 20.333313,
          "velocity": 0.8818897637795275
        },
        {
          "duration": 0.3194441250000004,
          "durationTicks": 230,
          "midi": 30,
          "name": "F#1",
          "ticks": 14880,
          "time": 20.666646,
          "velocity": 0.8818897637795275
        },
        {
          "duration": 0.3194441250000004,
          "durationTicks": 230,
          "midi": 30,
          "name": "F#1",
          "ticks": 15120,
          "time": 20.999979,
          "velocity": 0.8818897637795275
        },
        {
          "duration": 0.31944412499999686,
          "durationTicks": 230,
          "midi": 30,
          "name": "F#1",
          "ticks": 15360,
          "time": 21.333312,
          "velocity": 0.8818897637795275
        },
        {
          "duration": 0.3194441250000004,
          "durationTicks": 230,
          "midi": 30,
          "name": "F#1",
          "ticks": 15600,
          "time": 21.666645,
          "velocity": 0.8818897637795275
        },
        {
          "duration": 0.3194441250000004,
          "durationTicks": 230,
          "midi": 30,
          "name": "F#1",
          "ticks": 15840,
          "time": 21.999978,
          "velocity": 0.8818897637795275
        },
        {
          "duration": 0.3194441250000004,
          "durationTicks": 230,
          "midi": 30,
          "name": "F#1",
          "ticks": 16080,
          "time": 22.333311,
          "velocity": 0.8818897637795275
        },
        {
          "duration": 0.3194441250000004,
          "durationTicks": 230,
          "midi": 30,
          "name": "F#1",
          "ticks": 16320,
          "time": 22.666643999999998,
          "velocity": 0.8818897637795275
        },
        {
          "duration": 0.3194441250000004,
          "durationTicks": 230,
          "midi": 30,
          "name": "F#1",
          "ticks": 16560,
          "time": 22.999976999999998,
          "velocity": 0.8818897637795275
        },
        {
          "duration": 0.31944412499999686,
          "durationTicks": 230,
          "midi": 30,
          "name": "F#1",
          "ticks": 16800,
          "time": 23.33331,
          "velocity": 0.8818897637795275
        },
        {
          "duration": 0.31944412499999686,
          "durationTicks": 230,
          "midi": 30,
          "name": "F#1",
          "ticks": 17040,
          "time": 23.666643,
          "velocity": 0.8818897637795275
        },
        {
          "duration": 0.31944412499999686,
          "durationTicks": 230,
          "midi": 28,
          "name": "E1",
          "ticks": 17280,
          "time": 23.999976,
          "velocity": 0.8818897637795275
        },
        {
          "duration": 0.31944412499999686,
          "durationTicks": 230,
          "midi": 28,
          "name": "E1",
          "ticks": 17520,
          "time": 24.333309,
          "velocity": 0.8818897637795275
        },
        {
          "duration": 0.31944412499999686,
          "durationTicks": 230,
          "midi": 28,
          "name": "E1",
          "ticks": 17760,
          "time": 24.666642,
          "velocity": 0.8818897637795275
        },
        {
          "duration": 0.31944412499999686,
          "durationTicks": 230,
          "midi": 28,
          "name": "E1",
          "ticks": 18000,
          "time": 24.999975,
          "velocity": 0.8818897637795275
        },
        {
          "duration": 0.3194441250000004,
          "durationTicks": 230,
          "midi": 28,
          "name": "E1",
          "ticks": 18240,
          "time": 25.333308,
          "velocity": 0.8818897637795275
        },
        {
          "duration": 0.3194441250000004,
          "durationTicks": 230,
          "midi": 28,
          "name": "E1",
          "ticks": 18480,
          "time": 25.666641,
          "velocity": 0.8818897637795275
        },
        {
          "duration": 0.3194441250000004,
          "durationTicks": 230,
          "midi": 28,
          "name": "E1",
          "ticks": 18720,
          "time": 25.999973999999998,
          "velocity": 0.8818897637795275
        },
        {
          "duration": 0.3194441250000004,
          "durationTicks": 230,
          "midi": 28,
          "name": "E1",
          "ticks": 18960,
          "time": 26.333306999999998,
          "velocity": 0.8818897637795275
        },
        {
          "duration": 0.31944412499999686,
          "durationTicks": 230,
          "midi": 28,
          "name": "E1",
          "ticks": 19200,
          "time": 26.66664,
          "velocity": 0.8818897637795275
        },
        {
          "duration": 0.31944412499999686,
          "durationTicks": 230,
          "midi": 28,
          "name": "E1",
          "ticks": 19440,
          "time": 26.999973,
          "velocity": 0.8818897637795275
        },
        {
          "duration": 0.31944412499999686,
          "durationTicks": 230,
          "midi": 28,
          "name": "E1",
          "ticks": 19680,
          "time": 27.333306,
          "velocity": 0.8818897637795275
        },
        {
          "duration": 0.31944412499999686,
          "durationTicks": 230,
          "midi": 28,
          "name": "E1",
          "ticks": 19920,
          "time": 27.666639,
          "velocity": 0.8818897637795275
        },
        {
          "duration": 0.31944412499999686,
          "durationTicks": 230,
          "midi": 28,
          "name": "E1",
          "ticks": 20160,
          "time": 27.999972,
          "velocity": 0.8818897637795275
        },
        {
          "duration": 0.31944412499999686,
          "durationTicks": 230,
          "midi": 28,
          "name": "E1",
          "ticks": 20400,
          "time": 28.333305,
          "velocity": 0.8818897637795275
        },
        {
          "duration": 0.31944412499999686,
          "durationTicks": 230,
          "midi": 28,
          "name": "E1",
          "ticks": 20640,
          "time": 28.666638,
          "velocity": 0.8818897637795275
        },
        {
          "duration": 0.3194441250000004,
          "durationTicks": 230,
          "midi": 28,
          "name": "E1",
          "ticks": 20880,
          "time": 28.999971,
          "velocity": 0.8818897637795275
        },
        {
          "duration": 0.3194441250000004,
          "durationTicks": 230,
          "midi": 35,
          "name": "B1",
          "ticks": 21120,
          "time": 29.333304,
          "velocity": 0.8818897637795275
        },
        {
          "duration": 0.3194441250000004,
          "durationTicks": 230,
          "midi": 35,
          "name": "B1",
          "ticks": 21360,
          "time": 29.666636999999998,
          "velocity": 0.8818897637795275
        },
        {
          "duration": 0.3194441250000004,
          "durationTicks": 230,
          "midi": 35,
          "name": "B1",
          "ticks": 21600,
          "time": 29.999969999999998,
          "velocity": 0.8818897637795275
        },
        {
          "duration": 0.31944412499999686,
          "durationTicks": 230,
          "midi": 35,
          "name": "B1",
          "ticks": 21840,
          "time": 30.333303,
          "velocity": 0.8818897637795275
        },
        {
          "duration": 0.31944412499999686,
          "durationTicks": 230,
          "midi": 35,
          "name": "B1",
          "ticks": 22080,
          "time": 30.666636,
          "velocity": 0.8818897637795275
        },
        {
          "duration": 0.31944412499999686,
          "durationTicks": 230,
          "midi": 35,
          "name": "B1",
          "ticks": 22320,
          "time": 30.999969,
          "velocity": 0.8818897637795275
        },
        {
          "duration": 0.31944412499999686,
          "durationTicks": 230,
          "midi": 35,
          "name": "B1",
          "ticks": 22560,
          "time": 31.333302,
          "velocity": 0.8818897637795275
        },
        {
          "duration": 0.31944412499999686,
          "durationTicks": 230,
          "midi": 35,
          "name": "B1",
          "ticks": 22800,
          "time": 31.666635,
          "velocity": 0.8818897637795275
        },
        {
          "duration": 0.3194441250000004,
          "durationTicks": 230,
          "midi": 35,
          "name": "B1",
          "ticks": 23040,
          "time": 31.999968,
          "velocity": 0.8818897637795275
        },
        {
          "duration": 0.31944412499999686,
          "durationTicks": 230,
          "midi": 35,
          "name": "B1",
          "ticks": 23280,
          "time": 32.333301,
          "velocity": 0.8818897637795275
        },
        {
          "duration": 0.31944412499999686,
          "durationTicks": 230,
          "midi": 35,
          "name": "B1",
          "ticks": 23520,
          "time": 32.666634,
          "velocity": 0.8818897637795275
        },
        {
          "duration": 0.31944412499999686,
          "durationTicks": 230,
          "midi": 35,
          "name": "B1",
          "ticks": 23760,
          "time": 32.999967,
          "velocity": 0.8818897637795275
        },
        {
          "duration": 0.31944412499999686,
          "durationTicks": 230,
          "midi": 35,
          "name": "B1",
          "ticks": 24000,
          "time": 33.3333,
          "velocity": 0.8818897637795275
        },
        {
          "duration": 0.31944412499999686,
          "durationTicks": 230,
          "midi": 35,
          "name": "B1",
          "ticks": 24240,
          "time": 33.666633,
          "velocity": 0.8818897637795275
        },
        {
          "duration": 0.31944412499999686,
          "durationTicks": 230,
          "midi": 35,
          "name": "B1",
          "ticks": 24480,
          "time": 33.999966,
          "velocity": 0.8818897637795275
        },
        {
          "duration": 0.31944412500000396,
          "durationTicks": 230,
          "midi": 35,
          "name": "B1",
          "ticks": 24720,
          "time": 34.333299,
          "velocity": 0.8818897637795275
        },
        {
          "duration": 0.31944412499999686,
          "durationTicks": 230,
          "midi": 35,
          "name": "B1",
          "ticks": 24960,
          "time": 34.666632,
          "velocity": 0.8818897637795275
        }
      ],
      "endOfTrackTicks": 27130
    },
    {
      "channel": 2,
      "controlChanges": {
        "7": [
          {
            "number": 7,
            "ticks": 532,
            "time": 0.73888815,
            "value": 0.7874015748031497
          }
        ],
        "10": [
          {
            "number": 10,
            "ticks": 532,
            "time": 0.73888815,
            "value": 0.5039370078740157
          }
        ],
        "11": [
          {
            "number": 11,
            "ticks": 532,
            "time": 0.73888815,
            "value": 1
          }
        ],
        "91": [
          {
            "number": 91,
            "ticks": 536,
            "time": 0.7444437,
            "value": 0.4330708661417323
          }
        ],
        "93": [
          {
            "number": 93,
            "ticks": 536,
            "time": 0.7444437,
            "value": 0
          }
        ]
      },
      "pitchBends": [],
      "instrument": {
        "family": "guitar",
        "number": 30,
        "name": "distortion guitar"
      },
      "name": "",
      "notes": [
        {
          "duration": 0.9861101249999988,
          "durationTicks": 710,
          "midi": 47,
          "name": "B2",
          "ticks": 5760,
          "time": 7.999992,
          "velocity": 0.8346456692913385
        },
        {
          "duration": 0.9861101249999988,
          "durationTicks": 710,
          "midi": 54,
          "name": "F#3",
          "ticks": 5760,
          "time": 7.999992,
          "velocity": 0.8346456692913385
        },
        {
          "duration": 0.9444434999999993,
          "durationTicks": 680,
          "midi": 59,
          "name": "B3",
          "ticks": 5760,
          "time": 7.999992,
          "velocity": 0.8346456692913385
        },
        {
          "duration": 0.9861101249999988,
          "durationTicks": 710,
          "midi": 63,
          "name": "D#4",
          "ticks": 5760,
          "time": 7.999992,
          "velocity": 0.8346456692913385
        },
        {
          "duration": 1.6388872499999998,
          "durationTicks": 1180,
          "midi": 47,
          "name": "B2",
          "ticks": 6480,
          "time": 8.999991,
          "velocity": 0.8346456692913385
        },
        {
          "duration": 1.47222075,
          "durationTicks": 1060,
          "midi": 54,
          "name": "F#3",
          "ticks": 6480,
          "time": 8.999991,
          "velocity": 0.8346456692913385
        },
        {
          "duration": 1.4583318750000007,
          "durationTicks": 1050,
          "midi": 59,
          "name": "B3",
          "ticks": 6480,
          "time": 8.999991,
          "velocity": 0.8346456692913385
        },
        {
          "duration": 1.6249983750000006,
          "durationTicks": 1170,
          "midi": 63,
          "name": "D#4",
          "ticks": 6480,
          "time": 8.999991,
          "velocity": 0.8346456692913385
        },
        {
          "duration": 0.1527776249999988,
          "durationTicks": 110,
          "midi": 54,
          "name": "F#3",
          "ticks": 7560,
          "time": 10.4999895,
          "velocity": 0.8346456692913385
        },
        {
          "duration": 0.1527776249999988,
          "durationTicks": 110,
          "midi": 59,
          "name": "B3",
          "ticks": 7560,
          "time": 10.4999895,
          "velocity": 0.8346456692913385
        },
        {
          "duration": 2.4305531249999994,
          "durationTicks": 1750,
          "midi": 47,
          "name": "B2",
          "ticks": 7680,
          "time": 10.666656,
          "velocity": 0.8346456692913385
        },
        {
          "duration": 2.402775375000001,
          "durationTicks": 1730,
          "midi": 54,
          "name": "F#3",
          "ticks": 7680,
          "time": 10.666656,
          "velocity": 0.8346456692913385
        },
        {
          "duration": 2.4305531249999994,
          "durationTicks": 1750,
          "midi": 59,
          "name": "B3",
          "ticks": 7680,
          "time": 10.666656,
          "velocity": 0.8346456692913385
        },
        {
          "duration": 2.41666425,
          "durationTicks": 1740,
          "midi": 63,
          "name": "D#4",
          "ticks": 7680,
          "time": 10.666656,
          "velocity": 0.8346456692913385
        },
        {
          "duration": 0.15277762500000236,
          "durationTicks": 110,
          "midi": 47,
          "name": "B2",
          "ticks": 9480,
          "time": 13.166653499999999,
          "velocity": 0.8346456692913385
        },
        {
          "duration": 0.15277762500000236,
          "durationTicks": 110,
          "midi": 54,
          "name": "F#3",
          "ticks": 9480,
          "time": 13.166653499999999,
          "velocity": 0.8346456692913385
        },
        {
          "duration": 0.15277762500000236,
          "durationTicks": 110,
          "midi": 59,
          "name": "B3",
          "ticks": 9480,
          "time": 13.166653499999999,
          "velocity": 0.8346456692913385
        },
        {
          "duration": 0.15277762500000236,
          "durationTicks": 110,
          "midi": 63,
          "name": "D#4",
          "ticks": 9480,
          "time": 13.166653499999999,
          "velocity": 0.8346456692913385
        },
        {
          "duration": 0.3194441250000004,
          "durationTicks": 230,
          "midi": 47,
          "name": "B2",
          "ticks": 9600,
          "time": 13.33332,
          "velocity": 0.8346456692913385
        },
        {
          "duration": 0.3194441250000004,
          "durationTicks": 230,
          "midi": 54,
          "name": "F#3",
          "ticks": 9600,
          "time": 13.33332,
          "velocity": 0.8346456692913385
        },
        {
          "duration": 0.3194441250000004,
          "durationTicks": 230,
          "midi": 59,
          "name": "B3",
          "ticks": 9600,
          "time": 13.33332,
          "velocity": 0.8346456692913385
        },
        {
          "duration": 0.3194441250000004,
          "durationTicks": 230,
          "midi": 47,
          "name": "B2",
          "ticks": 9840,
          "time": 13.666653,
          "velocity": 0.8346456692913385
        },
        {
          "duration": 0.3194441250000004,
          "durationTicks": 230,
          "midi": 54,
          "name": "F#3",
          "ticks": 9840,
          "time": 13.666653,
          "velocity": 0.8346456692913385
        },
        {
          "duration": 0.3194441250000004,
          "durationTicks": 230,
          "midi": 59,
          "name": "B3",
          "ticks": 9840,
          "time": 13.666653,
          "velocity": 0.8346456692913385
        },
        {
          "duration": 0.3194441250000004,
          "durationTicks": 230,
          "midi": 47,
          "name": "B2",
          "ticks": 10080,
          "time": 13.999986,
          "velocity": 0.8346456692913385
        },
        {
          "duration": 0.3194441250000004,
          "durationTicks": 230,
          "midi": 54,
          "name": "F#3",
          "ticks": 10080,
          "time": 13.999986,
          "velocity": 0.8346456692913385
        },
        {
          "duration": 0.3194441250000004,
          "durationTicks": 230,
          "midi": 59,
          "name": "B3",
          "ticks": 10080,
          "time": 13.999986,
          "velocity": 0.8346456692913385
        },
        {
          "duration": 0.638888249999999,
          "durationTicks": 460,
          "midi": 47,
          "name": "B2",
          "ticks": 10320,
          "time": 14.333319,
          "velocity": 0.8346456692913385
        },
        {
          "duration": 0.6249993749999998,
          "durationTicks": 450,
          "midi": 54,
          "name": "F#3",
          "ticks": 10320,
          "time": 14.333319,
          "velocity": 0.8346456692913385
        },
        {
          "duration": 0.638888249999999,
          "durationTicks": 460,
          "midi": 59,
          "name": "B3",
          "ticks": 10320,
          "time": 14.333319,
          "velocity": 0.8346456692913385
        },
        {
          "duration": 0.3194441250000022,
          "durationTicks": 230,
          "midi": 47,
          "name": "B2",
          "ticks": 10800,
          "time": 14.999984999999999,
          "velocity": 0.8346456692913385
        },
        {
          "duration": 0.3194441250000022,
          "durationTicks": 230,
          "midi": 54,
          "name": "F#3",
          "ticks": 10800,
          "time": 14.999984999999999,
          "velocity": 0.8346456692913385
        },
        {
          "duration": 0.3194441250000022,
          "durationTicks": 230,
          "midi": 59,
          "name": "B3",
          "ticks": 10800,
          "time": 14.999984999999999,
          "velocity": 0.8346456692913385
        },
        {
          "duration": 0.3194441250000004,
          "durationTicks": 230,
          "midi": 47,
          "name": "B2",
          "ticks": 11040,
          "time": 15.333318,
          "velocity": 0.8346456692913385
        },
        {
          "duration": 0.3194441250000004,
          "durationTicks": 230,
          "midi": 54,
          "name": "F#3",
          "ticks": 11040,
          "time": 15.333318,
          "velocity": 0.8346456692913385
        },
        {
          "duration": 0.3194441250000004,
          "durationTicks": 230,
          "midi": 59,
          "name": "B3",
          "ticks": 11040,
          "time": 15.333318,
          "velocity": 0.8346456692913385
        },
        {
          "duration": 0.3194441250000004,
          "durationTicks": 230,
          "midi": 47,
          "name": "B2",
          "ticks": 11280,
          "time": 15.666651,
          "velocity": 0.8346456692913385
        },
        {
          "duration": 0.3194441250000004,
          "durationTicks": 230,
          "midi": 54,
          "name": "F#3",
          "ticks": 11280,
          "time": 15.666651,
          "velocity": 0.8346456692913385
        },
        {
          "duration": 0.3194441250000004,
          "durationTicks": 230,
          "midi": 59,
          "name": "B3",
          "ticks": 11280,
          "time": 15.666651,
          "velocity": 0.8346456692913385
        },
        {
          "duration": 0.3194441250000022,
          "durationTicks": 230,
          "midi": 47,
          "name": "B2",
          "ticks": 11520,
          "time": 15.999984,
          "velocity": 0.8346456692913385
        },
        {
          "duration": 0.3194441250000022,
          "durationTicks": 230,
          "midi": 54,
          "name": "F#3",
          "ticks": 11520,
          "time": 15.999984,
          "velocity": 0.8346456692913385
        },
        {
          "duration": 0.3194441250000022,
          "durationTicks": 230,
          "midi": 59,
          "name": "B3",
          "ticks": 11520,
          "time": 15.999984,
          "velocity": 0.8346456692913385
        },
        {
          "duration": 0.3194441250000004,
          "durationTicks": 230,
          "midi": 47,
          "name": "B2",
          "ticks": 11760,
          "time": 16.333317,
          "velocity": 0.8346456692913385
        },
        {
          "duration": 0.3194441250000004,
          "durationTicks": 230,
          "midi": 54,
          "name": "F#3",
          "ticks": 11760,
          "time": 16.333317,
          "velocity": 0.8346456692913385
        },
        {
          "duration": 0.3194441250000004,
          "durationTicks": 230,
          "midi": 59,
          "name": "B3",
          "ticks": 11760,
          "time": 16.333317,
          "velocity": 0.8346456692913385
        },
        {
          "duration": 0.3194441250000004,
          "durationTicks": 230,
          "midi": 47,
          "name": "B2",
          "ticks": 12000,
          "time": 16.66665,
          "velocity": 0.8346456692913385
        },
        {
          "duration": 0.3194441250000004,
          "durationTicks": 230,
          "midi": 54,
          "name": "F#3",
          "ticks": 12000,
          "time": 16.66665,
          "velocity": 0.8346456692913385
        },
        {
          "duration": 0.3194441250000004,
          "durationTicks": 230,
          "midi": 59,
          "name": "B3",
          "ticks": 12000,
          "time": 16.66665,
          "velocity": 0.8346456692913385
        },
        {
          "duration": 0.6388882499999973,
          "durationTicks": 460,
          "midi": 47,
          "name": "B2",
          "ticks": 12240,
          "time": 16.999983,
          "velocity": 0.8346456692913385
        },
        {
          "duration": 0.624999374999998,
          "durationTicks": 450,
          "midi": 54,
          "name": "F#3",
          "ticks": 12240,
          "time": 16.999983,
          "velocity": 0.8346456692913385
        },
        {
          "duration": 0.6388882499999973,
          "durationTicks": 460,
          "midi": 59,
          "name": "B3",
          "ticks": 12240,
          "time": 16.999983,
          "velocity": 0.8346456692913385
        },
        {
          "duration": 0.3194441250000004,
          "durationTicks": 230,
          "midi": 47,
          "name": "B2",
          "ticks": 12720,
          "time": 17.666649,
          "velocity": 0.8346456692913385
        },
        {
          "duration": 0.3194441250000004,
          "durationTicks": 230,
          "midi": 54,
          "name": "F#3",
          "ticks": 12720,
          "time": 17.666649,
          "velocity": 0.8346456692913385
        },
        {
          "duration": 0.3194441250000004,
          "durationTicks": 230,
          "midi": 59,
          "name": "B3",
          "ticks": 12720,
          "time": 17.666649,
          "velocity": 0.8346456692913385
        },
        {
          "duration": 0.3194441250000004,
          "durationTicks": 230,
          "midi": 47,
          "name": "B2",
          "ticks": 12960,
          "time": 17.999982,
          "velocity": 0.8346456692913385
        },
        {
          "duration": 0.3194441250000004,
          "durationTicks": 230,
          "midi": 54,
          "name": "F#3",
          "ticks": 12960,
          "time": 17.999982,
          "velocity": 0.8346456692913385
        },
        {
          "duration": 0.3194441250000004,
          "durationTicks": 230,
          "midi": 59,
          "name": "B3",
          "ticks": 12960,
          "time": 17.999982,
          "velocity": 0.8346456692913385
        },
        {
          "duration": 0.3194441250000004,
          "durationTicks": 230,
          "midi": 47,
          "name": "B2",
          "ticks": 13200,
          "time": 18.333315,
          "velocity": 0.8346456692913385
        },
        {
          "duration": 0.3194441250000004,
          "durationTicks": 230,
          "midi": 54,
          "name": "F#3",
          "ticks": 13200,
          "time": 18.333315,
          "velocity": 0.8346456692913385
        },
        {
          "duration": 0.3194441250000004,
          "durationTicks": 230,
          "midi": 59,
          "name": "B3",
          "ticks": 13200,
          "time": 18.333315,
          "velocity": 0.8346456692913385
        },
        {
          "duration": 0.3194441250000004,
          "durationTicks": 230,
          "midi": 42,
          "name": "F#2",
          "ticks": 13440,
          "time": 18.666648,
          "velocity": 0.8346456692913385
        },
        {
          "duration": 0.3194441250000004,
          "durationTicks": 230,
          "midi": 49,
          "name": "C#3",
          "ticks": 13440,
          "time": 18.666648,
          "velocity": 0.8346456692913385
        },
        {
          "duration": 0.3194441250000004,
          "durationTicks": 230,
          "midi": 54,
          "name": "F#3",
          "ticks": 13440,
          "time": 18.666648,
          "velocity": 0.8346456692913385
        },
        {
          "duration": 0.3194441250000004,
          "durationTicks": 230,
          "midi": 42,
          "name": "F#2",
          "ticks": 13680,
          "time": 18.999981,
          "velocity": 0.8346456692913385
        },
        {
          "duration": 0.3194441250000004,
          "durationTicks": 230,
          "midi": 49,
          "name": "C#3",
          "ticks": 13680,
          "time": 18.999981,
          "velocity": 0.8346456692913385
        },
        {
          "duration": 0.3194441250000004,
          "durationTicks": 230,
          "midi": 54,
          "name": "F#3",
          "ticks": 13680,
          "time": 18.999981,
          "velocity": 0.8346456692913385
        },
        {
          "duration": 0.31944412500000396,
          "durationTicks": 230,
          "midi": 42,
          "name": "F#2",
          "ticks": 13920,
          "time": 19.333313999999998,
          "velocity": 0.8346456692913385
        },
        {
          "duration": 0.31944412500000396,
          "durationTicks": 230,
          "midi": 49,
          "name": "C#3",
          "ticks": 13920,
          "time": 19.333313999999998,
          "velocity": 0.8346456692913385
        },
        {
          "duration": 0.31944412500000396,
          "durationTicks": 230,
          "midi": 54,
          "name": "F#3",
          "ticks": 13920,
          "time": 19.333313999999998,
          "velocity": 0.8346456692913385
        },
        {
          "duration": 0.6388882499999973,
          "durationTicks": 460,
          "midi": 42,
          "name": "F#2",
          "ticks": 14160,
          "time": 19.666647,
          "velocity": 0.8346456692913385
        },
        {
          "duration": 0.6388882499999973,
          "durationTicks": 460,
          "midi": 49,
          "name": "C#3",
          "ticks": 14160,
          "time": 19.666647,
          "velocity": 0.8346456692913385
        },
        {
          "duration": 0.6388882499999973,
          "durationTicks": 460,
          "midi": 54,
          "name": "F#3",
          "ticks": 14160,
          "time": 19.666647,
          "velocity": 0.8346456692913385
        },
        {
          "duration": 0.3194441250000004,
          "durationTicks": 230,
          "midi": 42,
          "name": "F#2",
          "ticks": 14640,
          "time": 20.333313,
          "velocity": 0.8346456692913385
        },
        {
          "duration": 0.3194441250000004,
          "durationTicks": 230,
          "midi": 49,
          "name": "C#3",
          "ticks": 14640,
          "time": 20.333313,
          "velocity": 0.8346456692913385
        },
        {
          "duration": 0.3194441250000004,
          "durationTicks": 230,
          "midi": 54,
          "name": "F#3",
          "ticks": 14640,
          "time": 20.333313,
          "velocity": 0.8346456692913385
        },
        {
          "duration": 0.3194441250000004,
          "durationTicks": 230,
          "midi": 42,
          "name": "F#2",
          "ticks": 14880,
          "time": 20.666646,
          "velocity": 0.8346456692913385
        },
        {
          "duration": 0.3194441250000004,
          "durationTicks": 230,
          "midi": 49,
          "name": "C#3",
          "ticks": 14880,
          "time": 20.666646,
          "velocity": 0.8346456692913385
        },
        {
          "duration": 0.3194441250000004,
          "durationTicks": 230,
          "midi": 54,
          "name": "F#3",
          "ticks": 14880,
          "time": 20.666646,
          "velocity": 0.8346456692913385
        },
        {
          "duration": 0.3194441250000004,
          "durationTicks": 230,
          "midi": 42,
          "name": "F#2",
          "ticks": 15120,
          "time": 20.999979,
          "velocity": 0.8346456692913385
        },
        {
          "duration": 0.3194441250000004,
          "durationTicks": 230,
          "midi": 49,
          "name": "C#3",
          "ticks": 15120,
          "time": 20.999979,
          "velocity": 0.8346456692913385
        },
        {
          "duration": 0.3194441250000004,
          "durationTicks": 230,
          "midi": 54,
          "name": "F#3",
          "ticks": 15120,
          "time": 20.999979,
          "velocity": 0.8346456692913385
        },
        {
          "duration": 0.31944412499999686,
          "durationTicks": 230,
          "midi": 42,
          "name": "F#2",
          "ticks": 15360,
          "time": 21.333312,
          "velocity": 0.8346456692913385
        },
        {
          "duration": 0.31944412499999686,
          "durationTicks": 230,
          "midi": 49,
          "name": "C#3",
          "ticks": 15360,
          "time": 21.333312,
          "velocity": 0.8346456692913385
        },
        {
          "duration": 0.31944412499999686,
          "durationTicks": 230,
          "midi": 54,
          "name": "F#3",
          "ticks": 15360,
          "time": 21.333312,
          "velocity": 0.8346456692913385
        },
        {
          "duration": 0.3194441250000004,
          "durationTicks": 230,
          "midi": 42,
          "name": "F#2",
          "ticks": 15600,
          "time": 21.666645,
          "velocity": 0.8346456692913385
        },
        {
          "duration": 0.3194441250000004,
          "durationTicks": 230,
          "midi": 49,
          "name": "C#3",
          "ticks": 15600,
          "time": 21.666645,
          "velocity": 0.8346456692913385
        },
        {
          "duration": 0.3194441250000004,
          "durationTicks": 230,
          "midi": 54,
          "name": "F#3",
          "ticks": 15600,
          "time": 21.666645,
          "velocity": 0.8346456692913385
        },
        {
          "duration": 0.3194441250000004,
          "durationTicks": 230,
          "midi": 42,
          "name": "F#2",
          "ticks": 15840,
          "time": 21.999978,
          "velocity": 0.8346456692913385
        },
        {
          "duration": 0.3194441250000004,
          "durationTicks": 230,
          "midi": 49,
          "name": "C#3",
          "ticks": 15840,
          "time": 21.999978,
          "velocity": 0.8346456692913385
        },
        {
          "duration": 0.3194441250000004,
          "durationTicks": 230,
          "midi": 54,
          "name": "F#3",
          "ticks": 15840,
          "time": 21.999978,
          "velocity": 0.8346456692913385
        },
        {
          "duration": 0.6388882500000008,
          "durationTicks": 460,
          "midi": 42,
          "name": "F#2",
          "ticks": 16080,
          "time": 22.333311,
          "velocity": 0.8346456692913385
        },
        {
          "duration": 0.6388882500000008,
          "durationTicks": 460,
          "midi": 49,
          "name": "C#3",
          "ticks": 16080,
          "time": 22.333311,
          "velocity": 0.8346456692913385
        },
        {
          "duration": 0.6388882500000008,
          "durationTicks": 460,
          "midi": 54,
          "name": "F#3",
          "ticks": 16080,
          "time": 22.333311,
          "velocity": 0.8346456692913385
        },
        {
          "duration": 0.3194441250000004,
          "durationTicks": 230,
          "midi": 42,
          "name": "F#2",
          "ticks": 16560,
          "time": 22.999976999999998,
          "velocity": 0.8346456692913385
        },
        {
          "duration": 0.3194441250000004,
          "durationTicks": 230,
          "midi": 49,
          "name": "C#3",
          "ticks": 16560,
          "time": 22.999976999999998,
          "velocity": 0.8346456692913385
        },
        {
          "duration": 0.3194441250000004,
          "durationTicks": 230,
          "midi": 54,
          "name": "F#3",
          "ticks": 16560,
          "time": 22.999976999999998,
          "velocity": 0.8346456692913385
        },
        {
          "duration": 0.31944412499999686,
          "durationTicks": 230,
          "midi": 42,
          "name": "F#2",
          "ticks": 16800,
          "time": 23.33331,
          "velocity": 0.8346456692913385
        },
        {
          "duration": 0.31944412499999686,
          "durationTicks": 230,
          "midi": 49,
          "name": "C#3",
          "ticks": 16800,
          "time": 23.33331,
          "velocity": 0.8346456692913385
        },
        {
          "duration": 0.31944412499999686,
          "durationTicks": 230,
          "midi": 54,
          "name": "F#3",
          "ticks": 16800,
          "time": 23.33331,
          "velocity": 0.8346456692913385
        },
        {
          "duration": 0.31944412499999686,
          "durationTicks": 230,
          "midi": 42,
          "name": "F#2",
          "ticks": 17040,
          "time": 23.666643,
          "velocity": 0.8346456692913385
        },
        {
          "duration": 0.31944412499999686,
          "durationTicks": 230,
          "midi": 49,
          "name": "C#3",
          "ticks": 17040,
          "time": 23.666643,
          "velocity": 0.8346456692913385
        },
        {
          "duration": 0.31944412499999686,
          "durationTicks": 230,
          "midi": 54,
          "name": "F#3",
          "ticks": 17040,
          "time": 23.666643,
          "velocity": 0.8346456692913385
        },
        {
          "duration": 0.31944412499999686,
          "durationTicks": 230,
          "midi": 40,
          "name": "E2",
          "ticks": 17280,
          "time": 23.999976,
          "velocity": 0.8346456692913385
        },
        {
          "duration": 0.31944412499999686,
          "durationTicks": 230,
          "midi": 47,
          "name": "B2",
          "ticks": 17280,
          "time": 23.999976,
          "velocity": 0.8346456692913385
        },
        {
          "duration": 0.31944412499999686,
          "durationTicks": 230,
          "midi": 52,
          "name": "E3",
          "ticks": 17280,
          "time": 23.999976,
          "velocity": 0.8346456692913385
        },
        {
          "duration": 0.31944412499999686,
          "durationTicks": 230,
          "midi": 40,
          "name": "E2",
          "ticks": 17520,
          "time": 24.333309,
          "velocity": 0.8346456692913385
        },
        {
          "duration": 0.31944412499999686,
          "durationTicks": 230,
          "midi": 47,
          "name": "B2",
          "ticks": 17520,
          "time": 24.333309,
          "velocity": 0.8346456692913385
        },
        {
          "duration": 0.31944412499999686,
          "durationTicks": 230,
          "midi": 52,
          "name": "E3",
          "ticks": 17520,
          "time": 24.333309,
          "velocity": 0.8346456692913385
        },
        {
          "duration": 0.31944412499999686,
          "durationTicks": 230,
          "midi": 40,
          "name": "E2",
          "ticks": 17760,
          "time": 24.666642,
          "velocity": 0.8346456692913385
        },
        {
          "duration": 0.31944412499999686,
          "durationTicks": 230,
          "midi": 47,
          "name": "B2",
          "ticks": 17760,
          "time": 24.666642,
          "velocity": 0.8346456692913385
        },
        {
          "duration": 0.31944412499999686,
          "durationTicks": 230,
          "midi": 52,
          "name": "E3",
          "ticks": 17760,
          "time": 24.666642,
          "velocity": 0.8346456692913385
        },
        {
          "duration": 0.6388882500000008,
          "durationTicks": 460,
          "midi": 40,
          "name": "E2",
          "ticks": 18000,
          "time": 24.999975,
          "velocity": 0.8346456692913385
        },
        {
          "duration": 0.6388882500000008,
          "durationTicks": 460,
          "midi": 47,
          "name": "B2",
          "ticks": 18000,
          "time": 24.999975,
          "velocity": 0.8346456692913385
        },
        {
          "duration": 0.6388882500000008,
          "durationTicks": 460,
          "midi": 52,
          "name": "E3",
          "ticks": 18000,
          "time": 24.999975,
          "velocity": 0.8346456692913385
        },
        {
          "duration": 0.3194441250000004,
          "durationTicks": 230,
          "midi": 40,
          "name": "E2",
          "ticks": 18480,
          "time": 25.666641,
          "velocity": 0.8346456692913385
        },
        {
          "duration": 0.3194441250000004,
          "durationTicks": 230,
          "midi": 47,
          "name": "B2",
          "ticks": 18480,
          "time": 25.666641,
          "velocity": 0.8346456692913385
        },
        {
          "duration": 0.3194441250000004,
          "durationTicks": 230,
          "midi": 52,
          "name": "E3",
          "ticks": 18480,
          "time": 25.666641,
          "velocity": 0.8346456692913385
        },
        {
          "duration": 0.3194441250000004,
          "durationTicks": 230,
          "midi": 40,
          "name": "E2",
          "ticks": 18720,
          "time": 25.999973999999998,
          "velocity": 0.8346456692913385
        },
        {
          "duration": 0.3194441250000004,
          "durationTicks": 230,
          "midi": 47,
          "name": "B2",
          "ticks": 18720,
          "time": 25.999973999999998,
          "velocity": 0.8346456692913385
        },
        {
          "duration": 0.3194441250000004,
          "durationTicks": 230,
          "midi": 52,
          "name": "E3",
          "ticks": 18720,
          "time": 25.999973999999998,
          "velocity": 0.8346456692913385
        },
        {
          "duration": 0.3194441250000004,
          "durationTicks": 230,
          "midi": 40,
          "name": "E2",
          "ticks": 18960,
          "time": 26.333306999999998,
          "velocity": 0.8346456692913385
        },
        {
          "duration": 0.3194441250000004,
          "durationTicks": 230,
          "midi": 47,
          "name": "B2",
          "ticks": 18960,
          "time": 26.333306999999998,
          "velocity": 0.8346456692913385
        },
        {
          "duration": 0.3194441250000004,
          "durationTicks": 230,
          "midi": 52,
          "name": "E3",
          "ticks": 18960,
          "time": 26.333306999999998,
          "velocity": 0.8346456692913385
        },
        {
          "duration": 0.31944412499999686,
          "durationTicks": 230,
          "midi": 40,
          "name": "E2",
          "ticks": 19200,
          "time": 26.66664,
          "velocity": 0.8346456692913385
        },
        {
          "duration": 0.31944412499999686,
          "durationTicks": 230,
          "midi": 47,
          "name": "B2",
          "ticks": 19200,
          "time": 26.66664,
          "velocity": 0.8346456692913385
        },
        {
          "duration": 0.31944412499999686,
          "durationTicks": 230,
          "midi": 52,
          "name": "E3",
          "ticks": 19200,
          "time": 26.66664,
          "velocity": 0.8346456692913385
        },
        {
          "duration": 0.31944412499999686,
          "durationTicks": 230,
          "midi": 40,
          "name": "E2",
          "ticks": 19440,
          "time": 26.999973,
          "velocity": 0.8346456692913385
        },
        {
          "duration": 0.31944412499999686,
          "durationTicks": 230,
          "midi": 47,
          "name": "B2",
          "ticks": 19440,
          "time": 26.999973,
          "velocity": 0.8346456692913385
        },
        {
          "duration": 0.31944412499999686,
          "durationTicks": 230,
          "midi": 52,
          "name": "E3",
          "ticks": 19440,
          "time": 26.999973,
          "velocity": 0.8346456692913385
        },
        {
          "duration": 0.31944412499999686,
          "durationTicks": 230,
          "midi": 40,
          "name": "E2",
          "ticks": 19680,
          "time": 27.333306,
          "velocity": 0.8346456692913385
        },
        {
          "duration": 0.31944412499999686,
          "durationTicks": 230,
          "midi": 47,
          "name": "B2",
          "ticks": 19680,
          "time": 27.333306,
          "velocity": 0.8346456692913385
        },
        {
          "duration": 0.31944412499999686,
          "durationTicks": 230,
          "midi": 52,
          "name": "E3",
          "ticks": 19680,
          "time": 27.333306,
          "velocity": 0.8346456692913385
        },
        {
          "duration": 0.6388882500000008,
          "durationTicks": 460,
          "midi": 40,
          "name": "E2",
          "ticks": 19920,
          "time": 27.666639,
          "velocity": 0.8346456692913385
        },
        {
          "duration": 0.6388882500000008,
          "durationTicks": 460,
          "midi": 47,
          "name": "B2",
          "ticks": 19920,
          "time": 27.666639,
          "velocity": 0.8346456692913385
        },
        {
          "duration": 0.6388882500000008,
          "durationTicks": 460,
          "midi": 52,
          "name": "E3",
          "ticks": 19920,
          "time": 27.666639,
          "velocity": 0.8346456692913385
        },
        {
          "duration": 0.31944412499999686,
          "durationTicks": 230,
          "midi": 40,
          "name": "E2",
          "ticks": 20400,
          "time": 28.333305,
          "velocity": 0.8346456692913385
        },
        {
          "duration": 0.31944412499999686,
          "durationTicks": 230,
          "midi": 47,
          "name": "B2",
          "ticks": 20400,
          "time": 28.333305,
          "velocity": 0.8346456692913385
        },
        {
          "duration": 0.31944412499999686,
          "durationTicks": 230,
          "midi": 52,
          "name": "E3",
          "ticks": 20400,
          "time": 28.333305,
          "velocity": 0.8346456692913385
        },
        {
          "duration": 0.31944412499999686,
          "durationTicks": 230,
          "midi": 40,
          "name": "E2",
          "ticks": 20640,
          "time": 28.666638,
          "velocity": 0.8346456692913385
        },
        {
          "duration": 0.31944412499999686,
          "durationTicks": 230,
          "midi": 47,
          "name": "B2",
          "ticks": 20640,
          "time": 28.666638,
          "velocity": 0.8346456692913385
        },
        {
          "duration": 0.31944412499999686,
          "durationTicks": 230,
          "midi": 52,
          "name": "E3",
          "ticks": 20640,
          "time": 28.666638,
          "velocity": 0.8346456692913385
        },
        {
          "duration": 0.3194441250000004,
          "durationTicks": 230,
          "midi": 40,
          "name": "E2",
          "ticks": 20880,
          "time": 28.999971,
          "velocity": 0.8346456692913385
        },
        {
          "duration": 0.3194441250000004,
          "durationTicks": 230,
          "midi": 47,
          "name": "B2",
          "ticks": 20880,
          "time": 28.999971,
          "velocity": 0.8346456692913385
        },
        {
          "duration": 0.3194441250000004,
          "durationTicks": 230,
          "midi": 52,
          "name": "E3",
          "ticks": 20880,
          "time": 28.999971,
          "velocity": 0.8346456692913385
        },
        {
          "duration": 0.3194441250000004,
          "durationTicks": 230,
          "midi": 47,
          "name": "B2",
          "ticks": 21120,
          "time": 29.333304,
          "velocity": 0.8346456692913385
        },
        {
          "duration": 0.3194441250000004,
          "durationTicks": 230,
          "midi": 54,
          "name": "F#3",
          "ticks": 21120,
          "time": 29.333304,
          "velocity": 0.8346456692913385
        },
        {
          "duration": 0.3194441250000004,
          "durationTicks": 230,
          "midi": 59,
          "name": "B3",
          "ticks": 21120,
          "time": 29.333304,
          "velocity": 0.8346456692913385
        },
        {
          "duration": 0.3194441250000004,
          "durationTicks": 230,
          "midi": 47,
          "name": "B2",
          "ticks": 21360,
          "time": 29.666636999999998,
          "velocity": 0.8346456692913385
        },
        {
          "duration": 0.3194441250000004,
          "durationTicks": 230,
          "midi": 54,
          "name": "F#3",
          "ticks": 21360,
          "time": 29.666636999999998,
          "velocity": 0.8346456692913385
        },
        {
          "duration": 0.3194441250000004,
          "durationTicks": 230,
          "midi": 59,
          "name": "B3",
          "ticks": 21360,
          "time": 29.666636999999998,
          "velocity": 0.8346456692913385
        },
        {
          "duration": 0.3194441250000004,
          "durationTicks": 230,
          "midi": 47,
          "name": "B2",
          "ticks": 21600,
          "time": 29.999969999999998,
          "velocity": 0.8346456692913385
        },
        {
          "duration": 0.3194441250000004,
          "durationTicks": 230,
          "midi": 54,
          "name": "F#3",
          "ticks": 21600,
          "time": 29.999969999999998,
          "velocity": 0.8346456692913385
        },
        {
          "duration": 0.3194441250000004,
          "durationTicks": 230,
          "midi": 59,
          "name": "B3",
          "ticks": 21600,
          "time": 29.999969999999998,
          "velocity": 0.8346456692913385
        },
        {
          "duration": 0.6388882500000008,
          "durationTicks": 460,
          "midi": 47,
          "name": "B2",
          "ticks": 21840,
          "time": 30.333303,
          "velocity": 0.8346456692913385
        },
        {
          "duration": 0.624999374999998,
          "durationTicks": 450,
          "midi": 54,
          "name": "F#3",
          "ticks": 21840,
          "time": 30.333303,
          "velocity": 0.8346456692913385
        },
        {
          "duration": 0.6388882500000008,
          "durationTicks": 460,
          "midi": 59,
          "name": "B3",
          "ticks": 21840,
          "time": 30.333303,
          "velocity": 0.8346456692913385
        },
        {
          "duration": 0.31944412499999686,
          "durationTicks": 230,
          "midi": 47,
          "name": "B2",
          "ticks": 22320,
          "time": 30.999969,
          "velocity": 0.8346456692913385
        },
        {
          "duration": 0.31944412499999686,
          "durationTicks": 230,
          "midi": 54,
          "name": "F#3",
          "ticks": 22320,
          "time": 30.999969,
          "velocity": 0.8346456692913385
        },
        {
          "duration": 0.31944412499999686,
          "durationTicks": 230,
          "midi": 59,
          "name": "B3",
          "ticks": 22320,
          "time": 30.999969,
          "velocity": 0.8346456692913385
        },
        {
          "duration": 0.31944412499999686,
          "durationTicks": 230,
          "midi": 47,
          "name": "B2",
          "ticks": 22560,
          "time": 31.333302,
          "velocity": 0.8346456692913385
        },
        {
          "duration": 0.31944412499999686,
          "durationTicks": 230,
          "midi": 54,
          "name": "F#3",
          "ticks": 22560,
          "time": 31.333302,
          "velocity": 0.8346456692913385
        },
        {
          "duration": 0.31944412499999686,
          "durationTicks": 230,
          "midi": 59,
          "name": "B3",
          "ticks": 22560,
          "time": 31.333302,
          "velocity": 0.8346456692913385
        },
        {
          "duration": 0.31944412499999686,
          "durationTicks": 230,
          "midi": 47,
          "name": "B2",
          "ticks": 22800,
          "time": 31.666635,
          "velocity": 0.8346456692913385
        },
        {
          "duration": 0.31944412499999686,
          "durationTicks": 230,
          "midi": 54,
          "name": "F#3",
          "ticks": 22800,
          "time": 31.666635,
          "velocity": 0.8346456692913385
        },
        {
          "duration": 0.31944412499999686,
          "durationTicks": 230,
          "midi": 59,
          "name": "B3",
          "ticks": 22800,
          "time": 31.666635,
          "velocity": 0.8346456692913385
        },
        {
          "duration": 0.3194441250000004,
          "durationTicks": 230,
          "midi": 47,
          "name": "B2",
          "ticks": 23040,
          "time": 31.999968,
          "velocity": 0.8346456692913385
        },
        {
          "duration": 0.3194441250000004,
          "durationTicks": 230,
          "midi": 54,
          "name": "F#3",
          "ticks": 23040,
          "time": 31.999968,
          "velocity": 0.8346456692913385
        },
        {
          "duration": 0.3194441250000004,
          "durationTicks": 230,
          "midi": 59,
          "name": "B3",
          "ticks": 23040,
          "time": 31.999968,
          "velocity": 0.8346456692913385
        },
        {
          "duration": 0.31944412499999686,
          "durationTicks": 230,
          "midi": 47,
          "name": "B2",
          "ticks": 23280,
          "time": 32.333301,
          "velocity": 0.8346456692913385
        },
        {
          "duration": 0.31944412499999686,
          "durationTicks": 230,
          "midi": 54,
          "name": "F#3",
          "ticks": 23280,
          "time": 32.333301,
          "velocity": 0.8346456692913385
        },
        {
          "duration": 0.31944412499999686,
          "durationTicks": 230,
          "midi": 59,
          "name": "B3",
          "ticks": 23280,
          "time": 32.333301,
          "velocity": 0.8346456692913385
        },
        {
          "duration": 0.31944412499999686,
          "durationTicks": 230,
          "midi": 47,
          "name": "B2",
          "ticks": 23520,
          "time": 32.666634,
          "velocity": 0.8346456692913385
        },
        {
          "duration": 0.31944412499999686,
          "durationTicks": 230,
          "midi": 54,
          "name": "F#3",
          "ticks": 23520,
          "time": 32.666634,
          "velocity": 0.8346456692913385
        },
        {
          "duration": 0.31944412499999686,
          "durationTicks": 230,
          "midi": 59,
          "name": "B3",
          "ticks": 23520,
          "time": 32.666634,
          "velocity": 0.8346456692913385
        },
        {
          "duration": 0.6388882500000008,
          "durationTicks": 460,
          "midi": 47,
          "name": "B2",
          "ticks": 23760,
          "time": 32.999967,
          "velocity": 0.8346456692913385
        },
        {
          "duration": 0.6249993750000016,
          "durationTicks": 450,
          "midi": 54,
          "name": "F#3",
          "ticks": 23760,
          "time": 32.999967,
          "velocity": 0.8346456692913385
        },
        {
          "duration": 0.6388882500000008,
          "durationTicks": 460,
          "midi": 59,
          "name": "B3",
          "ticks": 23760,
          "time": 32.999967,
          "velocity": 0.8346456692913385
        },
        {
          "duration": 0.31944412499999686,
          "durationTicks": 230,
          "midi": 47,
          "name": "B2",
          "ticks": 24240,
          "time": 33.666633,
          "velocity": 0.8346456692913385
        },
        {
          "duration": 0.31944412499999686,
          "durationTicks": 230,
          "midi": 54,
          "name": "F#3",
          "ticks": 24240,
          "time": 33.666633,
          "velocity": 0.8346456692913385
        },
        {
          "duration": 0.31944412499999686,
          "durationTicks": 230,
          "midi": 59,
          "name": "B3",
          "ticks": 24240,
          "time": 33.666633,
          "velocity": 0.8346456692913385
        },
        {
          "duration": 0.31944412499999686,
          "durationTicks": 230,
          "midi": 47,
          "name": "B2",
          "ticks": 24480,
          "time": 33.999966,
          "velocity": 0.8346456692913385
        },
        {
          "duration": 0.31944412499999686,
          "durationTicks": 230,
          "midi": 54,
          "name": "F#3",
          "ticks": 24480,
          "time": 33.999966,
          "velocity": 0.8346456692913385
        },
        {
          "duration": 0.31944412499999686,
          "durationTicks": 230,
          "midi": 59,
          "name": "B3",
          "ticks": 24480,
          "time": 33.999966,
          "velocity": 0.8346456692913385
        },
        {
          "duration": 0.31944412500000396,
          "durationTicks": 230,
          "midi": 47,
          "name": "B2",
          "ticks": 24720,
          "time": 34.333299,
          "velocity": 0.8346456692913385
        },
        {
          "duration": 0.31944412500000396,
          "durationTicks": 230,
          "midi": 54,
          "name": "F#3",
          "ticks": 24720,
          "time": 34.333299,
          "velocity": 0.8346456692913385
        },
        {
          "duration": 0.31944412500000396,
          "durationTicks": 230,
          "midi": 59,
          "name": "B3",
          "ticks": 24720,
          "time": 34.333299,
          "velocity": 0.8346456692913385
        },
        {
          "duration": 0.31944412499999686,
          "durationTicks": 230,
          "midi": 47,
          "name": "B2",
          "ticks": 24960,
          "time": 34.666632,
          "velocity": 0.8346456692913385
        },
        {
          "duration": 0.31944412499999686,
          "durationTicks": 230,
          "midi": 54,
          "name": "F#3",
          "ticks": 24960,
          "time": 34.666632,
          "velocity": 0.8346456692913385
        },
        {
          "duration": 0.31944412499999686,
          "durationTicks": 230,
          "midi": 59,
          "name": "B3",
          "ticks": 24960,
          "time": 34.666632,
          "velocity": 0.8346456692913385
        }
      ]
    },
    {
      "channel": 4,
      "controlChanges": {
        "7": [
          {
            "number": 7,
            "ticks": 572,
            "time": 0.79444365,
            "value": 0.7874015748031497
          }
        ],
        "10": [
          {
            "number": 10,
            "ticks": 572,
            "time": 0.79444365,
            "value": 0.5039370078740157
          }
        ],
        "11": [
          {
            "number": 11,
            "ticks": 572,
            "time": 0.79444365,
            "value": 1
          }
        ],
        "91": [
          {
            "number": 91,
            "ticks": 576,
            "time": 0.7999991999999999,
            "value": 0.4330708661417323
          }
        ],
        "93": [
          {
            "number": 93,
            "ticks": 576,
            "time": 0.7999991999999999,
            "value": 0
          }
        ]
      },
      "pitchBends": [],
      "instrument": {
        "family": "guitar",
        "number": 25,
        "name": "acoustic guitar (steel)"
      },
      "name": "",
      "notes": [
        {
          "duration": 0.30555524999999983,
          "durationTicks": 220,
          "midi": 47,
          "name": "B2",
          "ticks": 1920,
          "time": 2.666664,
          "velocity": 0.8346456692913385
        },
        {
          "duration": 0.31944412499999997,
          "durationTicks": 230,
          "midi": 54,
          "name": "F#3",
          "ticks": 1920,
          "time": 2.666664,
          "velocity": 0.8346456692913385
        },
        {
          "duration": 0.3333330000000001,
          "durationTicks": 240,
          "midi": 47,
          "name": "B2",
          "ticks": 2160,
          "time": 2.999997,
          "velocity": 0.8346456692913385
        },
        {
          "duration": 0.31944412499999997,
          "durationTicks": 230,
          "midi": 54,
          "name": "F#3",
          "ticks": 2160,
          "time": 2.999997,
          "velocity": 0.8346456692913385
        },
        {
          "duration": 0,
          "durationTicks": 0,
          "midi": 47,
          "name": "B2",
          "ticks": 2400,
          "time": 3.33333,
          "velocity": 0.8346456692913385
        },
        {
          "duration": 0.6388882499999995,
          "durationTicks": 460,
          "midi": 54,
          "name": "F#3",
          "ticks": 2400,
          "time": 3.33333,
          "velocity": 0.8346456692913385
        },
        {
          "duration": 0.47222174999999966,
          "durationTicks": 340,
          "midi": 59,
          "name": "B3",
          "ticks": 2400,
          "time": 3.33333,
          "velocity": 0.8346456692913385
        },
        {
          "duration": 0.458332875,
          "durationTicks": 330,
          "midi": 63,
          "name": "D#4",
          "ticks": 2400,
          "time": 3.33333,
          "velocity": 0.8346456692913385
        },
        {
          "duration": 1.3194431250000003,
          "durationTicks": 950,
          "midi": 66,
          "name": "F#4",
          "ticks": 2400,
          "time": 3.33333,
          "velocity": 0.8346456692913385
        },
        {
          "duration": 0.7916658750000001,
          "durationTicks": 570,
          "midi": 59,
          "name": "B3",
          "ticks": 2760,
          "time": 3.8333295,
          "velocity": 0.8346456692913385
        },
        {
          "duration": 0.8055547499999993,
          "durationTicks": 580,
          "midi": 63,
          "name": "D#4",
          "ticks": 2760,
          "time": 3.8333295,
          "velocity": 0.8346456692913385
        },
        {
          "duration": 0.3333330000000001,
          "durationTicks": 240,
          "midi": 47,
          "name": "B2",
          "ticks": 2880,
          "time": 3.999996,
          "velocity": 0.8346456692913385
        },
        {
          "duration": 0.31944412499999997,
          "durationTicks": 230,
          "midi": 54,
          "name": "F#3",
          "ticks": 2880,
          "time": 3.999996,
          "velocity": 0.8346456692913385
        },
        {
          "duration": 0,
          "durationTicks": 0,
          "midi": 47,
          "name": "B2",
          "ticks": 3120,
          "time": 4.333329,
          "velocity": 0.8346456692913385
        },
        {
          "duration": 0.3055552499999994,
          "durationTicks": 220,
          "midi": 54,
          "name": "F#3",
          "ticks": 3120,
          "time": 4.333329,
          "velocity": 0.8346456692913385
        },
        {
          "duration": 0.6388882499999999,
          "durationTicks": 460,
          "midi": 47,
          "name": "B2",
          "ticks": 3360,
          "time": 4.666662,
          "velocity": 0.8346456692913385
        },
        {
          "duration": 0.48611062500000024,
          "durationTicks": 350,
          "midi": 54,
          "name": "F#3",
          "ticks": 3360,
          "time": 4.666662,
          "velocity": 0.8346456692913385
        },
        {
          "duration": 0.48611062500000024,
          "durationTicks": 350,
          "midi": 59,
          "name": "B3",
          "ticks": 3360,
          "time": 4.666662,
          "velocity": 0.8346456692913385
        },
        {
          "duration": 1.291665375,
          "durationTicks": 930,
          "midi": 63,
          "name": "D#4",
          "ticks": 3360,
          "time": 4.666662,
          "velocity": 0.8346456692913385
        },
        {
          "duration": 1.3194431249999994,
          "durationTicks": 950,
          "midi": 66,
          "name": "F#4",
          "ticks": 3360,
          "time": 4.666662,
          "velocity": 0.8346456692913385
        },
        {
          "duration": 0.1527776249999997,
          "durationTicks": 110,
          "midi": 54,
          "name": "F#3",
          "ticks": 3720,
          "time": 5.1666615,
          "velocity": 0.8346456692913385
        },
        {
          "duration": 0.819443624999999,
          "durationTicks": 590,
          "midi": 59,
          "name": "B3",
          "ticks": 3720,
          "time": 5.1666615,
          "velocity": 0.8346456692913385
        },
        {
          "duration": 0.3194441249999995,
          "durationTicks": 230,
          "midi": 47,
          "name": "B2",
          "ticks": 3840,
          "time": 5.333328,
          "velocity": 0.8346456692913385
        },
        {
          "duration": 0.3194441249999995,
          "durationTicks": 230,
          "midi": 54,
          "name": "F#3",
          "ticks": 3840,
          "time": 5.333328,
          "velocity": 0.8346456692913385
        },
        {
          "duration": 0.3055552500000003,
          "durationTicks": 220,
          "midi": 47,
          "name": "B2",
          "ticks": 4080,
          "time": 5.6666609999999995,
          "velocity": 0.8346456692913385
        },
        {
          "duration": 0.3194441249999995,
          "durationTicks": 230,
          "midi": 54,
          "name": "F#3",
          "ticks": 4080,
          "time": 5.6666609999999995,
          "velocity": 0.8346456692913385
        },
        {
          "duration": 0.3055552500000003,
          "durationTicks": 220,
          "midi": 47,
          "name": "B2",
          "ticks": 4320,
          "time": 5.999994,
          "velocity": 0.8346456692913385
        },
        {
          "duration": 0.3055552500000003,
          "durationTicks": 220,
          "midi": 54,
          "name": "F#3",
          "ticks": 4320,
          "time": 5.999994,
          "velocity": 0.8346456692913385
        },
        {
          "duration": 0.3055552500000003,
          "durationTicks": 220,
          "midi": 59,
          "name": "B3",
          "ticks": 4320,
          "time": 5.999994,
          "velocity": 0.8346456692913385
        },
        {
          "duration": 0.3055552500000003,
          "durationTicks": 220,
          "midi": 63,
          "name": "D#4",
          "ticks": 4320,
          "time": 5.999994,
          "velocity": 0.8346456692913385
        },
        {
          "duration": 0.3055552500000003,
          "durationTicks": 220,
          "midi": 66,
          "name": "F#4",
          "ticks": 4320,
          "time": 5.999994,
          "velocity": 0.8346456692913385
        },
        {
          "duration": 0.6249993749999998,
          "durationTicks": 450,
          "midi": 47,
          "name": "B2",
          "ticks": 4560,
          "time": 6.333327,
          "velocity": 0.8346456692913385
        },
        {
          "duration": 0.6388882500000008,
          "durationTicks": 460,
          "midi": 54,
          "name": "F#3",
          "ticks": 4560,
          "time": 6.333327,
          "velocity": 0.8346456692913385
        },
        {
          "duration": 0.9722212500000005,
          "durationTicks": 700,
          "midi": 59,
          "name": "B3",
          "ticks": 4560,
          "time": 6.333327,
          "velocity": 0.8346456692913385
        },
        {
          "duration": 0.9722212500000005,
          "durationTicks": 700,
          "midi": 64,
          "name": "E4",
          "ticks": 4560,
          "time": 6.333327,
          "velocity": 0.8346456692913385
        },
        {
          "duration": 0.9722212500000005,
          "durationTicks": 700,
          "midi": 66,
          "name": "F#4",
          "ticks": 4560,
          "time": 6.333327,
          "velocity": 0.8346456692913385
        },
        {
          "duration": 0.33333299999999966,
          "durationTicks": 240,
          "midi": 47,
          "name": "B2",
          "ticks": 5040,
          "time": 6.999993,
          "velocity": 0.8346456692913385
        },
        {
          "duration": 0.3055552500000003,
          "durationTicks": 220,
          "midi": 54,
          "name": "F#3",
          "ticks": 5040,
          "time": 6.999993,
          "velocity": 0.8346456692913385
        },
        {
          "duration": 0,
          "durationTicks": 0,
          "midi": 47,
          "name": "B2",
          "ticks": 5280,
          "time": 7.333326,
          "velocity": 0.8346456692913385
        },
        {
          "duration": 0.6527771250000001,
          "durationTicks": 470,
          "midi": 54,
          "name": "F#3",
          "ticks": 5280,
          "time": 7.333326,
          "velocity": 0.8346456692913385
        },
        {
          "duration": 0.48611062500000024,
          "durationTicks": 350,
          "midi": 59,
          "name": "B3",
          "ticks": 5280,
          "time": 7.333326,
          "velocity": 0.8346456692913385
        },
        {
          "duration": 0.472221750000001,
          "durationTicks": 340,
          "midi": 64,
          "name": "E4",
          "ticks": 5280,
          "time": 7.333326,
          "velocity": 0.8346456692913385
        },
        {
          "duration": 0.472221750000001,
          "durationTicks": 340,
          "midi": 66,
          "name": "F#4",
          "ticks": 5280,
          "time": 7.333326,
          "velocity": 0.8346456692913385
        },
        {
          "duration": 0.1527776249999997,
          "durationTicks": 110,
          "midi": 59,
          "name": "B3",
          "ticks": 5640,
          "time": 7.8333255,
          "velocity": 0.8346456692913385
        },
        {
          "duration": 0.1527776249999997,
          "durationTicks": 110,
          "midi": 64,
          "name": "E4",
          "ticks": 5640,
          "time": 7.8333255,
          "velocity": 0.8346456692913385
        },
        {
          "duration": 0.1527776249999997,
          "durationTicks": 110,
          "midi": 66,
          "name": "F#4",
          "ticks": 5640,
          "time": 7.8333255,
          "velocity": 0.8346456692913385
        },
        {
          "duration": 0.3055552500000003,
          "durationTicks": 220,
          "midi": 47,
          "name": "B2",
          "ticks": 5760,
          "time": 7.999992,
          "velocity": 0.8346456692913385
        },
        {
          "duration": 0.3194441249999995,
          "durationTicks": 230,
          "midi": 54,
          "name": "F#3",
          "ticks": 5760,
          "time": 7.999992,
          "velocity": 0.8346456692913385
        },
        {
          "duration": 0.33333299999999966,
          "durationTicks": 240,
          "midi": 47,
          "name": "B2",
          "ticks": 6000,
          "time": 8.333325,
          "velocity": 0.8346456692913385
        },
        {
          "duration": 0.31944412499999864,
          "durationTicks": 230,
          "midi": 54,
          "name": "F#3",
          "ticks": 6000,
          "time": 8.333325,
          "velocity": 0.8346456692913385
        },
        {
          "duration": 0,
          "durationTicks": 0,
          "midi": 47,
          "name": "B2",
          "ticks": 6240,
          "time": 8.666658,
          "velocity": 0.8346456692913385
        },
        {
          "duration": 0.6388882500000008,
          "durationTicks": 460,
          "midi": 54,
          "name": "F#3",
          "ticks": 6240,
          "time": 8.666658,
          "velocity": 0.8346456692913385
        },
        {
          "duration": 0.472221750000001,
          "durationTicks": 340,
          "midi": 59,
          "name": "B3",
          "ticks": 6240,
          "time": 8.666658,
          "velocity": 0.8346456692913385
        },
        {
          "duration": 0.458332875,
          "durationTicks": 330,
          "midi": 63,
          "name": "D#4",
          "ticks": 6240,
          "time": 8.666658,
          "velocity": 0.8346456692913385
        },
        {
          "duration": 1.3194431249999994,
          "durationTicks": 950,
          "midi": 66,
          "name": "F#4",
          "ticks": 6240,
          "time": 8.666658,
          "velocity": 0.8346456692913385
        },
        {
          "duration": 0.7916658749999996,
          "durationTicks": 570,
          "midi": 59,
          "name": "B3",
          "ticks": 6600,
          "time": 9.1666575,
          "velocity": 0.8346456692913385
        },
        {
          "duration": 0.8055547500000007,
          "durationTicks": 580,
          "midi": 63,
          "name": "D#4",
          "ticks": 6600,
          "time": 9.1666575,
          "velocity": 0.8346456692913385
        },
        {
          "duration": 0.33333299999999966,
          "durationTicks": 240,
          "midi": 47,
          "name": "B2",
          "ticks": 6720,
          "time": 9.333324,
          "velocity": 0.8346456692913385
        },
        {
          "duration": 0.3194441250000004,
          "durationTicks": 230,
          "midi": 54,
          "name": "F#3",
          "ticks": 6720,
          "time": 9.333324,
          "velocity": 0.8346456692913385
        },
        {
          "duration": 0,
          "durationTicks": 0,
          "midi": 47,
          "name": "B2",
          "ticks": 6960,
          "time": 9.666656999999999,
          "velocity": 0.8346456692913385
        },
        {
          "duration": 0.30555525000000117,
          "durationTicks": 220,
          "midi": 54,
          "name": "F#3",
          "ticks": 6960,
          "time": 9.666656999999999,
          "velocity": 0.8346456692913385
        },
        {
          "duration": 0.638888249999999,
          "durationTicks": 460,
          "midi": 47,
          "name": "B2",
          "ticks": 7200,
          "time": 9.99999,
          "velocity": 0.8346456692913385
        },
        {
          "duration": 0.48611062499999846,
          "durationTicks": 350,
          "midi": 54,
          "name": "F#3",
          "ticks": 7200,
          "time": 9.99999,
          "velocity": 0.8346456692913385
        },
        {
          "duration": 0.48611062499999846,
          "durationTicks": 350,
          "midi": 59,
          "name": "B3",
          "ticks": 7200,
          "time": 9.99999,
          "velocity": 0.8346456692913385
        },
        {
          "duration": 1.2916653749999991,
          "durationTicks": 930,
          "midi": 63,
          "name": "D#4",
          "ticks": 7200,
          "time": 9.99999,
          "velocity": 0.8346456692913385
        },
        {
          "duration": 1.3194431249999994,
          "durationTicks": 950,
          "midi": 66,
          "name": "F#4",
          "ticks": 7200,
          "time": 9.99999,
          "velocity": 0.8346456692913385
        },
        {
          "duration": 0.1527776249999988,
          "durationTicks": 110,
          "midi": 54,
          "name": "F#3",
          "ticks": 7560,
          "time": 10.4999895,
          "velocity": 0.8346456692913385
        },
        {
          "duration": 0.8194436249999999,
          "durationTicks": 590,
          "midi": 59,
          "name": "B3",
          "ticks": 7560,
          "time": 10.4999895,
          "velocity": 0.8346456692913385
        },
        {
          "duration": 0.3194441250000004,
          "durationTicks": 230,
          "midi": 47,
          "name": "B2",
          "ticks": 7680,
          "time": 10.666656,
          "velocity": 0.8346456692913385
        },
        {
          "duration": 0.3194441250000004,
          "durationTicks": 230,
          "midi": 54,
          "name": "F#3",
          "ticks": 7680,
          "time": 10.666656,
          "velocity": 0.8346456692913385
        },
        {
          "duration": 0.3055552499999994,
          "durationTicks": 220,
          "midi": 47,
          "name": "B2",
          "ticks": 7920,
          "time": 10.999989,
          "velocity": 0.8346456692913385
        },
        {
          "duration": 0.3194441250000004,
          "durationTicks": 230,
          "midi": 54,
          "name": "F#3",
          "ticks": 7920,
          "time": 10.999989,
          "velocity": 0.8346456692913385
        },
        {
          "duration": 0.3055552499999994,
          "durationTicks": 220,
          "midi": 47,
          "name": "B2",
          "ticks": 8160,
          "time": 11.333321999999999,
          "velocity": 0.8346456692913385
        },
        {
          "duration": 0.3055552499999994,
          "durationTicks": 220,
          "midi": 54,
          "name": "F#3",
          "ticks": 8160,
          "time": 11.333321999999999,
          "velocity": 0.8346456692913385
        },
        {
          "duration": 0.3055552499999994,
          "durationTicks": 220,
          "midi": 59,
          "name": "B3",
          "ticks": 8160,
          "time": 11.333321999999999,
          "velocity": 0.8346456692913385
        },
        {
          "duration": 0.3055552499999994,
          "durationTicks": 220,
          "midi": 63,
          "name": "D#4",
          "ticks": 8160,
          "time": 11.333321999999999,
          "velocity": 0.8346456692913385
        },
        {
          "duration": 0.3055552499999994,
          "durationTicks": 220,
          "midi": 66,
          "name": "F#4",
          "ticks": 8160,
          "time": 11.333321999999999,
          "velocity": 0.8346456692913385
        },
        {
          "duration": 0.6249993749999998,
          "durationTicks": 450,
          "midi": 47,
          "name": "B2",
          "ticks": 8400,
          "time": 11.666655,
          "velocity": 0.8346456692913385
        },
        {
          "duration": 0.638888249999999,
          "durationTicks": 460,
          "midi": 54,
          "name": "F#3",
          "ticks": 8400,
          "time": 11.666655,
          "velocity": 0.8346456692913385
        },
        {
          "duration": 0.9722212499999987,
          "durationTicks": 700,
          "midi": 59,
          "name": "B3",
          "ticks": 8400,
          "time": 11.666655,
          "velocity": 0.8346456692913385
        },
        {
          "duration": 0.9722212499999987,
          "durationTicks": 700,
          "midi": 64,
          "name": "E4",
          "ticks": 8400,
          "time": 11.666655,
          "velocity": 0.8346456692913385
        },
        {
          "duration": 0.9722212499999987,
          "durationTicks": 700,
          "midi": 66,
          "name": "F#4",
          "ticks": 8400,
          "time": 11.666655,
          "velocity": 0.8346456692913385
        },
        {
          "duration": 0.33333299999999966,
          "durationTicks": 240,
          "midi": 47,
          "name": "B2",
          "ticks": 8880,
          "time": 12.333321,
          "velocity": 0.8346456692913385
        },
        {
          "duration": 0.3055552499999994,
          "durationTicks": 220,
          "midi": 54,
          "name": "F#3",
          "ticks": 8880,
          "time": 12.333321,
          "velocity": 0.8346456692913385
        },
        {
          "duration": 0.638888249999999,
          "durationTicks": 460,
          "midi": 47,
          "name": "B2",
          "ticks": 9120,
          "time": 12.666654,
          "velocity": 0.8346456692913385
        },
        {
          "duration": 0.6527771250000018,
          "durationTicks": 470,
          "midi": 54,
          "name": "F#3",
          "ticks": 9120,
          "time": 12.666654,
          "velocity": 0.8346456692913385
        },
        {
          "duration": 0.48611062500000024,
          "durationTicks": 350,
          "midi": 59,
          "name": "B3",
          "ticks": 9120,
          "time": 12.666654,
          "velocity": 0.8346456692913385
        },
        {
          "duration": 0.4722217499999992,
          "durationTicks": 340,
          "midi": 64,
          "name": "E4",
          "ticks": 9120,
          "time": 12.666654,
          "velocity": 0.8346456692913385
        },
        {
          "duration": 0.4722217499999992,
          "durationTicks": 340,
          "midi": 66,
          "name": "F#4",
          "ticks": 9120,
          "time": 12.666654,
          "velocity": 0.8346456692913385
        },
        {
          "duration": 0.15277762500000236,
          "durationTicks": 110,
          "midi": 59,
          "name": "B3",
          "ticks": 9480,
          "time": 13.166653499999999,
          "velocity": 0.8346456692913385
        },
        {
          "duration": 0.15277762500000236,
          "durationTicks": 110,
          "midi": 64,
          "name": "E4",
          "ticks": 9480,
          "time": 13.166653499999999,
          "velocity": 0.8346456692913385
        },
        {
          "duration": 0.15277762500000236,
          "durationTicks": 110,
          "midi": 66,
          "name": "F#4",
          "ticks": 9480,
          "time": 13.166653499999999,
          "velocity": 0.8346456692913385
        },
        {
          "duration": 0.3055552499999976,
          "durationTicks": 220,
          "midi": 47,
          "name": "B2",
          "ticks": 9600,
          "time": 13.33332,
          "velocity": 0.8346456692913385
        },
        {
          "duration": 0.3194441250000004,
          "durationTicks": 230,
          "midi": 54,
          "name": "F#3",
          "ticks": 9600,
          "time": 13.33332,
          "velocity": 0.8346456692913385
        },
        {
          "duration": 0.33333299999999966,
          "durationTicks": 240,
          "midi": 47,
          "name": "B2",
          "ticks": 9840,
          "time": 13.666653,
          "velocity": 0.8346456692913385
        },
        {
          "duration": 0.3194441250000004,
          "durationTicks": 230,
          "midi": 54,
          "name": "F#3",
          "ticks": 9840,
          "time": 13.666653,
          "velocity": 0.8346456692913385
        },
        {
          "duration": 0,
          "durationTicks": 0,
          "midi": 47,
          "name": "B2",
          "ticks": 10080,
          "time": 13.999986,
          "velocity": 0.8346456692913385
        },
        {
          "duration": 0.638888249999999,
          "durationTicks": 460,
          "midi": 54,
          "name": "F#3",
          "ticks": 10080,
          "time": 13.999986,
          "velocity": 0.8346456692913385
        },
        {
          "duration": 0.4722217499999992,
          "durationTicks": 340,
          "midi": 59,
          "name": "B3",
          "ticks": 10080,
          "time": 13.999986,
          "velocity": 0.8346456692913385
        },
        {
          "duration": 0.458332875,
          "durationTicks": 330,
          "midi": 63,
          "name": "D#4",
          "ticks": 10080,
          "time": 13.999986,
          "velocity": 0.8346456692913385
        },
        {
          "duration": 1.3194431250000012,
          "durationTicks": 950,
          "midi": 66,
          "name": "F#4",
          "ticks": 10080,
          "time": 13.999986,
          "velocity": 0.8346456692913385
        },
        {
          "duration": 0.7916658749999996,
          "durationTicks": 570,
          "midi": 59,
          "name": "B3",
          "ticks": 10440,
          "time": 14.4999855,
          "velocity": 0.8346456692913385
        },
        {
          "duration": 0.8055547499999989,
          "durationTicks": 580,
          "midi": 63,
          "name": "D#4",
          "ticks": 10440,
          "time": 14.4999855,
          "velocity": 0.8346456692913385
        },
        {
          "duration": 0.33333299999999966,
          "durationTicks": 240,
          "midi": 47,
          "name": "B2",
          "ticks": 10560,
          "time": 14.666652,
          "velocity": 0.8346456692913385
        },
        {
          "duration": 0.3194441250000004,
          "durationTicks": 230,
          "midi": 54,
          "name": "F#3",
          "ticks": 10560,
          "time": 14.666652,
          "velocity": 0.8346456692913385
        },
        {
          "duration": 0.29166637500000014,
          "durationTicks": 210,
          "midi": 47,
          "name": "B2",
          "ticks": 10800,
          "time": 14.999984999999999,
          "velocity": 0.8346456692913385
        },
        {
          "duration": 0.3055552499999994,
          "durationTicks": 220,
          "midi": 54,
          "name": "F#3",
          "ticks": 10800,
          "time": 14.999984999999999,
          "velocity": 0.8346456692913385
        },
        {
          "duration": 0.638888249999999,
          "durationTicks": 460,
          "midi": 47,
          "name": "B2",
          "ticks": 11040,
          "time": 15.333318,
          "velocity": 0.8346456692913385
        },
        {
          "duration": 0.48611062500000024,
          "durationTicks": 350,
          "midi": 54,
          "name": "F#3",
          "ticks": 11040,
          "time": 15.333318,
          "velocity": 0.8346456692913385
        },
        {
          "duration": 0.48611062500000024,
          "durationTicks": 350,
          "midi": 59,
          "name": "B3",
          "ticks": 11040,
          "time": 15.333318,
          "velocity": 0.8346456692913385
        },
        {
          "duration": 1.2916653749999991,
          "durationTicks": 930,
          "midi": 63,
          "name": "D#4",
          "ticks": 11040,
          "time": 15.333318,
          "velocity": 0.8346456692913385
        },
        {
          "duration": 1.3194431250000012,
          "durationTicks": 950,
          "midi": 66,
          "name": "F#4",
          "ticks": 11040,
          "time": 15.333318,
          "velocity": 0.8346456692913385
        },
        {
          "duration": 0.15277762500000058,
          "durationTicks": 110,
          "midi": 54,
          "name": "F#3",
          "ticks": 11400,
          "time": 15.8333175,
          "velocity": 0.8346456692913385
        },
        {
          "duration": 0.8194436250000017,
          "durationTicks": 590,
          "midi": 59,
          "name": "B3",
          "ticks": 11400,
          "time": 15.8333175,
          "velocity": 0.8346456692913385
        },
        {
          "duration": 0.3194441250000022,
          "durationTicks": 230,
          "midi": 47,
          "name": "B2",
          "ticks": 11520,
          "time": 15.999984,
          "velocity": 0.8346456692913385
        },
        {
          "duration": 0.3194441250000022,
          "durationTicks": 230,
          "midi": 54,
          "name": "F#3",
          "ticks": 11520,
          "time": 15.999984,
          "velocity": 0.8346456692913385
        },
        {
          "duration": 0.3055552499999976,
          "durationTicks": 220,
          "midi": 47,
          "name": "B2",
          "ticks": 11760,
          "time": 16.333317,
          "velocity": 0.8346456692913385
        },
        {
          "duration": 0.3194441250000004,
          "durationTicks": 230,
          "midi": 54,
          "name": "F#3",
          "ticks": 11760,
          "time": 16.333317,
          "velocity": 0.8346456692913385
        },
        {
          "duration": 0.3055552499999976,
          "durationTicks": 220,
          "midi": 47,
          "name": "B2",
          "ticks": 12000,
          "time": 16.66665,
          "velocity": 0.8346456692913385
        },
        {
          "duration": 0.3055552499999976,
          "durationTicks": 220,
          "midi": 54,
          "name": "F#3",
          "ticks": 12000,
          "time": 16.66665,
          "velocity": 0.8346456692913385
        },
        {
          "duration": 0.3055552499999976,
          "durationTicks": 220,
          "midi": 59,
          "name": "B3",
          "ticks": 12000,
          "time": 16.66665,
          "velocity": 0.8346456692913385
        },
        {
          "duration": 0.3055552499999976,
          "durationTicks": 220,
          "midi": 63,
          "name": "D#4",
          "ticks": 12000,
          "time": 16.66665,
          "velocity": 0.8346456692913385
        },
        {
          "duration": 0.3055552499999976,
          "durationTicks": 220,
          "midi": 66,
          "name": "F#4",
          "ticks": 12000,
          "time": 16.66665,
          "velocity": 0.8346456692913385
        },
        {
          "duration": 0.624999374999998,
          "durationTicks": 450,
          "midi": 47,
          "name": "B2",
          "ticks": 12240,
          "time": 16.999983,
          "velocity": 0.8346456692913385
        },
        {
          "duration": 0.6388882499999973,
          "durationTicks": 460,
          "midi": 54,
          "name": "F#3",
          "ticks": 12240,
          "time": 16.999983,
          "velocity": 0.8346456692913385
        },
        {
          "duration": 0.9722212499999969,
          "durationTicks": 700,
          "midi": 59,
          "name": "B3",
          "ticks": 12240,
          "time": 16.999983,
          "velocity": 0.8346456692913385
        },
        {
          "duration": 0.9722212499999969,
          "durationTicks": 700,
          "midi": 63,
          "name": "D#4",
          "ticks": 12240,
          "time": 16.999983,
          "velocity": 0.8346456692913385
        },
        {
          "duration": 0.9722212499999969,
          "durationTicks": 700,
          "midi": 66,
          "name": "F#4",
          "ticks": 12240,
          "time": 16.999983,
          "velocity": 0.8346456692913385
        },
        {
          "duration": 0.33333299999999966,
          "durationTicks": 240,
          "midi": 47,
          "name": "B2",
          "ticks": 12720,
          "time": 17.666649,
          "velocity": 0.8346456692913385
        },
        {
          "duration": 0.3055552499999976,
          "durationTicks": 220,
          "midi": 54,
          "name": "F#3",
          "ticks": 12720,
          "time": 17.666649,
          "velocity": 0.8346456692913385
        },
        {
          "duration": 0,
          "durationTicks": 0,
          "midi": 47,
          "name": "B2",
          "ticks": 12960,
          "time": 17.999982,
          "velocity": 0.8346456692913385
        },
        {
          "duration": 0.6527771250000001,
          "durationTicks": 470,
          "midi": 54,
          "name": "F#3",
          "ticks": 12960,
          "time": 17.999982,
          "velocity": 0.8346456692913385
        },
        {
          "duration": 0.486110625000002,
          "durationTicks": 350,
          "midi": 59,
          "name": "B3",
          "ticks": 12960,
          "time": 17.999982,
          "velocity": 0.8346456692913385
        },
        {
          "duration": 0.4722217499999992,
          "durationTicks": 340,
          "midi": 63,
          "name": "D#4",
          "ticks": 12960,
          "time": 17.999982,
          "velocity": 0.8346456692913385
        },
        {
          "duration": 0.4722217499999992,
          "durationTicks": 340,
          "midi": 66,
          "name": "F#4",
          "ticks": 12960,
          "time": 17.999982,
          "velocity": 0.8346456692913385
        },
        {
          "duration": 0.1527776249999988,
          "durationTicks": 110,
          "midi": 59,
          "name": "B3",
          "ticks": 13320,
          "time": 18.4999815,
          "velocity": 0.8346456692913385
        },
        {
          "duration": 0.1527776249999988,
          "durationTicks": 110,
          "midi": 63,
          "name": "D#4",
          "ticks": 13320,
          "time": 18.4999815,
          "velocity": 0.8346456692913385
        },
        {
          "duration": 0.1527776249999988,
          "durationTicks": 110,
          "midi": 66,
          "name": "F#4",
          "ticks": 13320,
          "time": 18.4999815,
          "velocity": 0.8346456692913385
        },
        {
          "duration": 0.3194441250000004,
          "durationTicks": 230,
          "midi": 54,
          "name": "F#3",
          "ticks": 13440,
          "time": 18.666648,
          "velocity": 0.8346456692913385
        },
        {
          "duration": 0.3194441250000004,
          "durationTicks": 230,
          "midi": 58,
          "name": "A#3",
          "ticks": 13440,
          "time": 18.666648,
          "velocity": 0.8346456692913385
        },
        {
          "duration": 0.3194441250000004,
          "durationTicks": 230,
          "midi": 61,
          "name": "C#4",
          "ticks": 13440,
          "time": 18.666648,
          "velocity": 0.8346456692913385
        },
        {
          "duration": 0.3194441250000004,
          "durationTicks": 230,
          "midi": 66,
          "name": "F#4",
          "ticks": 13440,
          "time": 18.666648,
          "velocity": 0.8346456692913385
        },
        {
          "duration": 0.3194441250000004,
          "durationTicks": 230,
          "midi": 54,
          "name": "F#3",
          "ticks": 13680,
          "time": 18.999981,
          "velocity": 0.8346456692913385
        },
        {
          "duration": 0.3194441250000004,
          "durationTicks": 230,
          "midi": 58,
          "name": "A#3",
          "ticks": 13680,
          "time": 18.999981,
          "velocity": 0.8346456692913385
        },
        {
          "duration": 0.3194441250000004,
          "durationTicks": 230,
          "midi": 61,
          "name": "C#4",
          "ticks": 13680,
          "time": 18.999981,
          "velocity": 0.8346456692913385
        },
        {
          "duration": 0.3194441250000004,
          "durationTicks": 230,
          "midi": 66,
          "name": "F#4",
          "ticks": 13680,
          "time": 18.999981,
          "velocity": 0.8346456692913385
        },
        {
          "duration": 0.31944412500000396,
          "durationTicks": 230,
          "midi": 54,
          "name": "F#3",
          "ticks": 13920,
          "time": 19.333313999999998,
          "velocity": 0.8346456692913385
        },
        {
          "duration": 0.31944412500000396,
          "durationTicks": 230,
          "midi": 58,
          "name": "A#3",
          "ticks": 13920,
          "time": 19.333313999999998,
          "velocity": 0.8346456692913385
        },
        {
          "duration": 0.31944412500000396,
          "durationTicks": 230,
          "midi": 61,
          "name": "C#4",
          "ticks": 13920,
          "time": 19.333313999999998,
          "velocity": 0.8346456692913385
        },
        {
          "duration": 0.31944412500000396,
          "durationTicks": 230,
          "midi": 66,
          "name": "F#4",
          "ticks": 13920,
          "time": 19.333313999999998,
          "velocity": 0.8346456692913385
        },
        {
          "duration": 0.6527771250000001,
          "durationTicks": 470,
          "midi": 54,
          "name": "F#3",
          "ticks": 14160,
          "time": 19.666647,
          "velocity": 0.8346456692913385
        },
        {
          "duration": 0.6388882499999973,
          "durationTicks": 460,
          "midi": 58,
          "name": "A#3",
          "ticks": 14160,
          "time": 19.666647,
          "velocity": 0.8346456692913385
        },
        {
          "duration": 0.6527771250000001,
          "durationTicks": 470,
          "midi": 61,
          "name": "C#4",
          "ticks": 14160,
          "time": 19.666647,
          "velocity": 0.8346456692913385
        },
        {
          "duration": 0.6666659999999993,
          "durationTicks": 480,
          "midi": 66,
          "name": "F#4",
          "ticks": 14160,
          "time": 19.666647,
          "velocity": 0.8346456692913385
        },
        {
          "duration": 0.3194441250000004,
          "durationTicks": 230,
          "midi": 54,
          "name": "F#3",
          "ticks": 14640,
          "time": 20.333313,
          "velocity": 0.8346456692913385
        },
        {
          "duration": 0.3194441250000004,
          "durationTicks": 230,
          "midi": 58,
          "name": "A#3",
          "ticks": 14640,
          "time": 20.333313,
          "velocity": 0.8346456692913385
        },
        {
          "duration": 0.3194441250000004,
          "durationTicks": 230,
          "midi": 61,
          "name": "C#4",
          "ticks": 14640,
          "time": 20.333313,
          "velocity": 0.8346456692913385
        },
        {
          "duration": 0,
          "durationTicks": 0,
          "midi": 66,
          "name": "F#4",
          "ticks": 14640,
          "time": 20.333313,
          "velocity": 0.8346456692913385
        },
        {
          "duration": 0.48611062499999846,
          "durationTicks": 350,
          "midi": 54,
          "name": "F#3",
          "ticks": 14880,
          "time": 20.666646,
          "velocity": 0.8346456692913385
        },
        {
          "duration": 0.48611062499999846,
          "durationTicks": 350,
          "midi": 58,
          "name": "A#3",
          "ticks": 14880,
          "time": 20.666646,
          "velocity": 0.8346456692913385
        },
        {
          "duration": 0.48611062499999846,
          "durationTicks": 350,
          "midi": 61,
          "name": "C#4",
          "ticks": 14880,
          "time": 20.666646,
          "velocity": 0.8346456692913385
        },
        {
          "duration": 0.48611062499999846,
          "durationTicks": 350,
          "midi": 66,
          "name": "F#4",
          "ticks": 14880,
          "time": 20.666646,
          "velocity": 0.8346456692913385
        },
        {
          "duration": 0.15277762500000236,
          "durationTicks": 110,
          "midi": 54,
          "name": "F#3",
          "ticks": 15240,
          "time": 21.166645499999998,
          "velocity": 0.8346456692913385
        },
        {
          "duration": 0.15277762500000236,
          "durationTicks": 110,
          "midi": 58,
          "name": "A#3",
          "ticks": 15240,
          "time": 21.166645499999998,
          "velocity": 0.8346456692913385
        },
        {
          "duration": 0.15277762500000236,
          "durationTicks": 110,
          "midi": 61,
          "name": "C#4",
          "ticks": 15240,
          "time": 21.166645499999998,
          "velocity": 0.8346456692913385
        },
        {
          "duration": 0.15277762500000236,
          "durationTicks": 110,
          "midi": 66,
          "name": "F#4",
          "ticks": 15240,
          "time": 21.166645499999998,
          "velocity": 0.8346456692913385
        },
        {
          "duration": 0.31944412499999686,
          "durationTicks": 230,
          "midi": 54,
          "name": "F#3",
          "ticks": 15360,
          "time": 21.333312,
          "velocity": 0.8346456692913385
        },
        {
          "duration": 0.31944412499999686,
          "durationTicks": 230,
          "midi": 58,
          "name": "A#3",
          "ticks": 15360,
          "time": 21.333312,
          "velocity": 0.8346456692913385
        },
        {
          "duration": 0.31944412499999686,
          "durationTicks": 230,
          "midi": 61,
          "name": "C#4",
          "ticks": 15360,
          "time": 21.333312,
          "velocity": 0.8346456692913385
        },
        {
          "duration": 0.31944412499999686,
          "durationTicks": 230,
          "midi": 66,
          "name": "F#4",
          "ticks": 15360,
          "time": 21.333312,
          "velocity": 0.8346456692913385
        },
        {
          "duration": 0.3194441250000004,
          "durationTicks": 230,
          "midi": 54,
          "name": "F#3",
          "ticks": 15600,
          "time": 21.666645,
          "velocity": 0.8346456692913385
        },
        {
          "duration": 0.3194441250000004,
          "durationTicks": 230,
          "midi": 58,
          "name": "A#3",
          "ticks": 15600,
          "time": 21.666645,
          "velocity": 0.8346456692913385
        },
        {
          "duration": 0.3194441250000004,
          "durationTicks": 230,
          "midi": 61,
          "name": "C#4",
          "ticks": 15600,
          "time": 21.666645,
          "velocity": 0.8346456692913385
        },
        {
          "duration": 0.3194441250000004,
          "durationTicks": 230,
          "midi": 66,
          "name": "F#4",
          "ticks": 15600,
          "time": 21.666645,
          "velocity": 0.8346456692913385
        },
        {
          "duration": 0.3194441250000004,
          "durationTicks": 230,
          "midi": 54,
          "name": "F#3",
          "ticks": 15840,
          "time": 21.999978,
          "velocity": 0.8346456692913385
        },
        {
          "duration": 0.3194441250000004,
          "durationTicks": 230,
          "midi": 58,
          "name": "A#3",
          "ticks": 15840,
          "time": 21.999978,
          "velocity": 0.8346456692913385
        },
        {
          "duration": 0.3194441250000004,
          "durationTicks": 230,
          "midi": 61,
          "name": "C#4",
          "ticks": 15840,
          "time": 21.999978,
          "velocity": 0.8346456692913385
        },
        {
          "duration": 0.3194441250000004,
          "durationTicks": 230,
          "midi": 66,
          "name": "F#4",
          "ticks": 15840,
          "time": 21.999978,
          "velocity": 0.8346456692913385
        },
        {
          "duration": 0.6527771250000001,
          "durationTicks": 470,
          "midi": 54,
          "name": "F#3",
          "ticks": 16080,
          "time": 22.333311,
          "velocity": 0.8346456692913385
        },
        {
          "duration": 0.6388882500000008,
          "durationTicks": 460,
          "midi": 58,
          "name": "A#3",
          "ticks": 16080,
          "time": 22.333311,
          "velocity": 0.8346456692913385
        },
        {
          "duration": 0.6527771250000001,
          "durationTicks": 470,
          "midi": 61,
          "name": "C#4",
          "ticks": 16080,
          "time": 22.333311,
          "velocity": 0.8346456692913385
        },
        {
          "duration": 0.6666659999999993,
          "durationTicks": 480,
          "midi": 66,
          "name": "F#4",
          "ticks": 16080,
          "time": 22.333311,
          "velocity": 0.8346456692913385
        },
        {
          "duration": 0.3194441250000004,
          "durationTicks": 230,
          "midi": 54,
          "name": "F#3",
          "ticks": 16560,
          "time": 22.999976999999998,
          "velocity": 0.8346456692913385
        },
        {
          "duration": 0.3194441250000004,
          "durationTicks": 230,
          "midi": 58,
          "name": "A#3",
          "ticks": 16560,
          "time": 22.999976999999998,
          "velocity": 0.8346456692913385
        },
        {
          "duration": 0.3194441250000004,
          "durationTicks": 230,
          "midi": 61,
          "name": "C#4",
          "ticks": 16560,
          "time": 22.999976999999998,
          "velocity": 0.8346456692913385
        },
        {
          "duration": 0,
          "durationTicks": 0,
          "midi": 66,
          "name": "F#4",
          "ticks": 16560,
          "time": 22.999976999999998,
          "velocity": 0.8346456692913385
        },
        {
          "duration": 0.48611062499999846,
          "durationTicks": 350,
          "midi": 54,
          "name": "F#3",
          "ticks": 16800,
          "time": 23.33331,
          "velocity": 0.8346456692913385
        },
        {
          "duration": 0.48611062499999846,
          "durationTicks": 350,
          "midi": 58,
          "name": "A#3",
          "ticks": 16800,
          "time": 23.33331,
          "velocity": 0.8346456692913385
        },
        {
          "duration": 0.48611062499999846,
          "durationTicks": 350,
          "midi": 61,
          "name": "C#4",
          "ticks": 16800,
          "time": 23.33331,
          "velocity": 0.8346456692913385
        },
        {
          "duration": 0.48611062499999846,
          "durationTicks": 350,
          "midi": 66,
          "name": "F#4",
          "ticks": 16800,
          "time": 23.33331,
          "velocity": 0.8346456692913385
        },
        {
          "duration": 0.1527776249999988,
          "durationTicks": 110,
          "midi": 54,
          "name": "F#3",
          "ticks": 17160,
          "time": 23.8333095,
          "velocity": 0.8346456692913385
        },
        {
          "duration": 0.1527776249999988,
          "durationTicks": 110,
          "midi": 58,
          "name": "A#3",
          "ticks": 17160,
          "time": 23.8333095,
          "velocity": 0.8346456692913385
        },
        {
          "duration": 0.1527776249999988,
          "durationTicks": 110,
          "midi": 61,
          "name": "C#4",
          "ticks": 17160,
          "time": 23.8333095,
          "velocity": 0.8346456692913385
        },
        {
          "duration": 0.1527776249999988,
          "durationTicks": 110,
          "midi": 66,
          "name": "F#4",
          "ticks": 17160,
          "time": 23.8333095,
          "velocity": 0.8346456692913385
        },
        {
          "duration": 0.31944412499999686,
          "durationTicks": 230,
          "midi": 52,
          "name": "E3",
          "ticks": 17280,
          "time": 23.999976,
          "velocity": 0.8346456692913385
        },
        {
          "duration": 0.31944412499999686,
          "durationTicks": 230,
          "midi": 56,
          "name": "G#3",
          "ticks": 17280,
          "time": 23.999976,
          "velocity": 0.8346456692913385
        },
        {
          "duration": 0.31944412499999686,
          "durationTicks": 230,
          "midi": 64,
          "name": "E4",
          "ticks": 17280,
          "time": 23.999976,
          "velocity": 0.8346456692913385
        },
        {
          "duration": 0.31944412499999686,
          "durationTicks": 230,
          "midi": 68,
          "name": "G#4",
          "ticks": 17280,
          "time": 23.999976,
          "velocity": 0.8346456692913385
        },
        {
          "duration": 0.31944412499999686,
          "durationTicks": 230,
          "midi": 52,
          "name": "E3",
          "ticks": 17520,
          "time": 24.333309,
          "velocity": 0.8346456692913385
        },
        {
          "duration": 0.31944412499999686,
          "durationTicks": 230,
          "midi": 56,
          "name": "G#3",
          "ticks": 17520,
          "time": 24.333309,
          "velocity": 0.8346456692913385
        },
        {
          "duration": 0.31944412499999686,
          "durationTicks": 230,
          "midi": 64,
          "name": "E4",
          "ticks": 17520,
          "time": 24.333309,
          "velocity": 0.8346456692913385
        },
        {
          "duration": 0.31944412499999686,
          "durationTicks": 230,
          "midi": 68,
          "name": "G#4",
          "ticks": 17520,
          "time": 24.333309,
          "velocity": 0.8346456692913385
        },
        {
          "duration": 0.31944412499999686,
          "durationTicks": 230,
          "midi": 52,
          "name": "E3",
          "ticks": 17760,
          "time": 24.666642,
          "velocity": 0.8346456692913385
        },
        {
          "duration": 0.31944412499999686,
          "durationTicks": 230,
          "midi": 56,
          "name": "G#3",
          "ticks": 17760,
          "time": 24.666642,
          "velocity": 0.8346456692913385
        },
        {
          "duration": 0.31944412499999686,
          "durationTicks": 230,
          "midi": 64,
          "name": "E4",
          "ticks": 17760,
          "time": 24.666642,
          "velocity": 0.8346456692913385
        },
        {
          "duration": 0.31944412499999686,
          "durationTicks": 230,
          "midi": 68,
          "name": "G#4",
          "ticks": 17760,
          "time": 24.666642,
          "velocity": 0.8346456692913385
        },
        {
          "duration": 0.6388882500000008,
          "durationTicks": 460,
          "midi": 52,
          "name": "E3",
          "ticks": 18000,
          "time": 24.999975,
          "velocity": 0.8346456692913385
        },
        {
          "duration": 0.6249993750000016,
          "durationTicks": 450,
          "midi": 56,
          "name": "G#3",
          "ticks": 18000,
          "time": 24.999975,
          "velocity": 0.8346456692913385
        },
        {
          "duration": 0.6249993750000016,
          "durationTicks": 450,
          "midi": 64,
          "name": "E4",
          "ticks": 18000,
          "time": 24.999975,
          "velocity": 0.8346456692913385
        },
        {
          "duration": 0.6249993750000016,
          "durationTicks": 450,
          "midi": 68,
          "name": "G#4",
          "ticks": 18000,
          "time": 24.999975,
          "velocity": 0.8346456692913385
        },
        {
          "duration": 0.3194441250000004,
          "durationTicks": 230,
          "midi": 52,
          "name": "E3",
          "ticks": 18480,
          "time": 25.666641,
          "velocity": 0.8346456692913385
        },
        {
          "duration": 0.3194441250000004,
          "durationTicks": 230,
          "midi": 56,
          "name": "G#3",
          "ticks": 18480,
          "time": 25.666641,
          "velocity": 0.8346456692913385
        },
        {
          "duration": 0.3194441250000004,
          "durationTicks": 230,
          "midi": 64,
          "name": "E4",
          "ticks": 18480,
          "time": 25.666641,
          "velocity": 0.8346456692913385
        },
        {
          "duration": 0.3194441250000004,
          "durationTicks": 230,
          "midi": 68,
          "name": "G#4",
          "ticks": 18480,
          "time": 25.666641,
          "velocity": 0.8346456692913385
        },
        {
          "duration": 0.47222175000000277,
          "durationTicks": 340,
          "midi": 52,
          "name": "E3",
          "ticks": 18720,
          "time": 25.999973999999998,
          "velocity": 0.8346456692913385
        },
        {
          "duration": 0.47222175000000277,
          "durationTicks": 340,
          "midi": 56,
          "name": "G#3",
          "ticks": 18720,
          "time": 25.999973999999998,
          "velocity": 0.8346456692913385
        },
        {
          "duration": 0.47222175000000277,
          "durationTicks": 340,
          "midi": 64,
          "name": "E4",
          "ticks": 18720,
          "time": 25.999973999999998,
          "velocity": 0.8346456692913385
        },
        {
          "duration": 0.47222175000000277,
          "durationTicks": 340,
          "midi": 68,
          "name": "G#4",
          "ticks": 18720,
          "time": 25.999973999999998,
          "velocity": 0.8346456692913385
        },
        {
          "duration": 0.1527776249999988,
          "durationTicks": 110,
          "midi": 52,
          "name": "E3",
          "ticks": 19080,
          "time": 26.4999735,
          "velocity": 0.8346456692913385
        },
        {
          "duration": 0.1527776249999988,
          "durationTicks": 110,
          "midi": 56,
          "name": "G#3",
          "ticks": 19080,
          "time": 26.4999735,
          "velocity": 0.8346456692913385
        },
        {
          "duration": 0.1527776249999988,
          "durationTicks": 110,
          "midi": 64,
          "name": "E4",
          "ticks": 19080,
          "time": 26.4999735,
          "velocity": 0.8346456692913385
        },
        {
          "duration": 0.1527776249999988,
          "durationTicks": 110,
          "midi": 68,
          "name": "G#4",
          "ticks": 19080,
          "time": 26.4999735,
          "velocity": 0.8346456692913385
        },
        {
          "duration": 0.31944412499999686,
          "durationTicks": 230,
          "midi": 52,
          "name": "E3",
          "ticks": 19200,
          "time": 26.66664,
          "velocity": 0.8346456692913385
        },
        {
          "duration": 0.31944412499999686,
          "durationTicks": 230,
          "midi": 56,
          "name": "G#3",
          "ticks": 19200,
          "time": 26.66664,
          "velocity": 0.8346456692913385
        },
        {
          "duration": 0.31944412499999686,
          "durationTicks": 230,
          "midi": 64,
          "name": "E4",
          "ticks": 19200,
          "time": 26.66664,
          "velocity": 0.8346456692913385
        },
        {
          "duration": 0.31944412499999686,
          "durationTicks": 230,
          "midi": 68,
          "name": "G#4",
          "ticks": 19200,
          "time": 26.66664,
          "velocity": 0.8346456692913385
        },
        {
          "duration": 0.31944412499999686,
          "durationTicks": 230,
          "midi": 52,
          "name": "E3",
          "ticks": 19440,
          "time": 26.999973,
          "velocity": 0.8346456692913385
        },
        {
          "duration": 0.31944412499999686,
          "durationTicks": 230,
          "midi": 56,
          "name": "G#3",
          "ticks": 19440,
          "time": 26.999973,
          "velocity": 0.8346456692913385
        },
        {
          "duration": 0.31944412499999686,
          "durationTicks": 230,
          "midi": 64,
          "name": "E4",
          "ticks": 19440,
          "time": 26.999973,
          "velocity": 0.8346456692913385
        },
        {
          "duration": 0.31944412499999686,
          "durationTicks": 230,
          "midi": 68,
          "name": "G#4",
          "ticks": 19440,
          "time": 26.999973,
          "velocity": 0.8346456692913385
        },
        {
          "duration": 0.31944412499999686,
          "durationTicks": 230,
          "midi": 52,
          "name": "E3",
          "ticks": 19680,
          "time": 27.333306,
          "velocity": 0.8346456692913385
        },
        {
          "duration": 0.31944412499999686,
          "durationTicks": 230,
          "midi": 56,
          "name": "G#3",
          "ticks": 19680,
          "time": 27.333306,
          "velocity": 0.8346456692913385
        },
        {
          "duration": 0.31944412499999686,
          "durationTicks": 230,
          "midi": 64,
          "name": "E4",
          "ticks": 19680,
          "time": 27.333306,
          "velocity": 0.8346456692913385
        },
        {
          "duration": 0.31944412499999686,
          "durationTicks": 230,
          "midi": 68,
          "name": "G#4",
          "ticks": 19680,
          "time": 27.333306,
          "velocity": 0.8346456692913385
        },
        {
          "duration": 0.6388882500000008,
          "durationTicks": 460,
          "midi": 52,
          "name": "E3",
          "ticks": 19920,
          "time": 27.666639,
          "velocity": 0.8346456692913385
        },
        {
          "duration": 0.624999374999998,
          "durationTicks": 450,
          "midi": 56,
          "name": "G#3",
          "ticks": 19920,
          "time": 27.666639,
          "velocity": 0.8346456692913385
        },
        {
          "duration": 0.624999374999998,
          "durationTicks": 450,
          "midi": 64,
          "name": "E4",
          "ticks": 19920,
          "time": 27.666639,
          "velocity": 0.8346456692913385
        },
        {
          "duration": 0.624999374999998,
          "durationTicks": 450,
          "midi": 68,
          "name": "G#4",
          "ticks": 19920,
          "time": 27.666639,
          "velocity": 0.8346456692913385
        },
        {
          "duration": 0.31944412499999686,
          "durationTicks": 230,
          "midi": 52,
          "name": "E3",
          "ticks": 20400,
          "time": 28.333305,
          "velocity": 0.8346456692913385
        },
        {
          "duration": 0.31944412499999686,
          "durationTicks": 230,
          "midi": 56,
          "name": "G#3",
          "ticks": 20400,
          "time": 28.333305,
          "velocity": 0.8346456692913385
        },
        {
          "duration": 0.31944412499999686,
          "durationTicks": 230,
          "midi": 64,
          "name": "E4",
          "ticks": 20400,
          "time": 28.333305,
          "velocity": 0.8346456692913385
        },
        {
          "duration": 0.31944412499999686,
          "durationTicks": 230,
          "midi": 68,
          "name": "G#4",
          "ticks": 20400,
          "time": 28.333305,
          "velocity": 0.8346456692913385
        },
        {
          "duration": 0.47222175000000277,
          "durationTicks": 340,
          "midi": 52,
          "name": "E3",
          "ticks": 20640,
          "time": 28.666638,
          "velocity": 0.8346456692913385
        },
        {
          "duration": 0.47222175000000277,
          "durationTicks": 340,
          "midi": 56,
          "name": "G#3",
          "ticks": 20640,
          "time": 28.666638,
          "velocity": 0.8346456692913385
        },
        {
          "duration": 0.47222175000000277,
          "durationTicks": 340,
          "midi": 64,
          "name": "E4",
          "ticks": 20640,
          "time": 28.666638,
          "velocity": 0.8346456692913385
        },
        {
          "duration": 0.47222175000000277,
          "durationTicks": 340,
          "midi": 68,
          "name": "G#4",
          "ticks": 20640,
          "time": 28.666638,
          "velocity": 0.8346456692913385
        },
        {
          "duration": 0.1527776249999988,
          "durationTicks": 110,
          "midi": 52,
          "name": "E3",
          "ticks": 21000,
          "time": 29.1666375,
          "velocity": 0.8346456692913385
        },
        {
          "duration": 0.1527776249999988,
          "durationTicks": 110,
          "midi": 56,
          "name": "G#3",
          "ticks": 21000,
          "time": 29.1666375,
          "velocity": 0.8346456692913385
        },
        {
          "duration": 0.1527776249999988,
          "durationTicks": 110,
          "midi": 64,
          "name": "E4",
          "ticks": 21000,
          "time": 29.1666375,
          "velocity": 0.8346456692913385
        },
        {
          "duration": 0.1527776249999988,
          "durationTicks": 110,
          "midi": 68,
          "name": "G#4",
          "ticks": 21000,
          "time": 29.1666375,
          "velocity": 0.8346456692913385
        },
        {
          "duration": 0.30555525000000117,
          "durationTicks": 220,
          "midi": 47,
          "name": "B2",
          "ticks": 21120,
          "time": 29.333304,
          "velocity": 0.8346456692913385
        },
        {
          "duration": 0.3194441250000004,
          "durationTicks": 230,
          "midi": 54,
          "name": "F#3",
          "ticks": 21120,
          "time": 29.333304,
          "velocity": 0.8346456692913385
        },
        {
          "duration": 0.33333299999999966,
          "durationTicks": 240,
          "midi": 47,
          "name": "B2",
          "ticks": 21360,
          "time": 29.666636999999998,
          "velocity": 0.8346456692913385
        },
        {
          "duration": 0.3194441250000004,
          "durationTicks": 230,
          "midi": 54,
          "name": "F#3",
          "ticks": 21360,
          "time": 29.666636999999998,
          "velocity": 0.8346456692913385
        },
        {
          "duration": 0,
          "durationTicks": 0,
          "midi": 47,
          "name": "B2",
          "ticks": 21600,
          "time": 29.999969999999998,
          "velocity": 0.8346456692913385
        },
        {
          "duration": 0.6388882500000044,
          "durationTicks": 460,
          "midi": 54,
          "name": "F#3",
          "ticks": 21600,
          "time": 29.999969999999998,
          "velocity": 0.8346456692913385
        },
        {
          "duration": 0.47222175000000277,
          "durationTicks": 340,
          "midi": 59,
          "name": "B3",
          "ticks": 21600,
          "time": 29.999969999999998,
          "velocity": 0.8346456692913385
        },
        {
          "duration": 0.458332875,
          "durationTicks": 330,
          "midi": 63,
          "name": "D#4",
          "ticks": 21600,
          "time": 29.999969999999998,
          "velocity": 0.8346456692913385
        },
        {
          "duration": 1.3194431249999994,
          "durationTicks": 950,
          "midi": 66,
          "name": "F#4",
          "ticks": 21600,
          "time": 29.999969999999998,
          "velocity": 0.8346456692913385
        },
        {
          "duration": 0.7916658749999996,
          "durationTicks": 570,
          "midi": 59,
          "name": "B3",
          "ticks": 21960,
          "time": 30.4999695,
          "velocity": 0.8346456692913385
        },
        {
          "duration": 0.8055547500000024,
          "durationTicks": 580,
          "midi": 63,
          "name": "D#4",
          "ticks": 21960,
          "time": 30.4999695,
          "velocity": 0.8346456692913385
        },
        {
          "duration": 0.33333299999999966,
          "durationTicks": 240,
          "midi": 47,
          "name": "B2",
          "ticks": 22080,
          "time": 30.666636,
          "velocity": 0.8346456692913385
        },
        {
          "duration": 0.31944412499999686,
          "durationTicks": 230,
          "midi": 54,
          "name": "F#3",
          "ticks": 22080,
          "time": 30.666636,
          "velocity": 0.8346456692913385
        },
        {
          "duration": 0.29166637499999837,
          "durationTicks": 210,
          "midi": 47,
          "name": "B2",
          "ticks": 22320,
          "time": 30.999969,
          "velocity": 0.8346456692913385
        },
        {
          "duration": 0.30555525000000117,
          "durationTicks": 220,
          "midi": 54,
          "name": "F#3",
          "ticks": 22320,
          "time": 30.999969,
          "velocity": 0.8346456692913385
        },
        {
          "duration": 0.6388882500000008,
          "durationTicks": 460,
          "midi": 47,
          "name": "B2",
          "ticks": 22560,
          "time": 31.333302,
          "velocity": 0.8346456692913385
        },
        {
          "duration": 0.48611062499999846,
          "durationTicks": 350,
          "midi": 54,
          "name": "F#3",
          "ticks": 22560,
          "time": 31.333302,
          "velocity": 0.8346456692913385
        },
        {
          "duration": 0.48611062499999846,
          "durationTicks": 350,
          "midi": 59,
          "name": "B3",
          "ticks": 22560,
          "time": 31.333302,
          "velocity": 0.8346456692913385
        },
        {
          "duration": 1.2916653749999973,
          "durationTicks": 930,
          "midi": 63,
          "name": "D#4",
          "ticks": 22560,
          "time": 31.333302,
          "velocity": 0.8346456692913385
        },
        {
          "duration": 1.3194431249999958,
          "durationTicks": 950,
          "midi": 66,
          "name": "F#4",
          "ticks": 22560,
          "time": 31.333302,
          "velocity": 0.8346456692913385
        },
        {
          "duration": 0.1527776249999988,
          "durationTicks": 110,
          "midi": 54,
          "name": "F#3",
          "ticks": 22920,
          "time": 31.833301499999997,
          "velocity": 0.8346456692913385
        },
        {
          "duration": 0.8194436249999981,
          "durationTicks": 590,
          "midi": 59,
          "name": "B3",
          "ticks": 22920,
          "time": 31.833301499999997,
          "velocity": 0.8346456692913385
        },
        {
          "duration": 0.3194441250000004,
          "durationTicks": 230,
          "midi": 47,
          "name": "B2",
          "ticks": 23040,
          "time": 31.999968,
          "velocity": 0.8346456692913385
        },
        {
          "duration": 0.3194441250000004,
          "durationTicks": 230,
          "midi": 54,
          "name": "F#3",
          "ticks": 23040,
          "time": 31.999968,
          "velocity": 0.8346456692913385
        },
        {
          "duration": 0.3055552500000047,
          "durationTicks": 220,
          "midi": 47,
          "name": "B2",
          "ticks": 23280,
          "time": 32.333301,
          "velocity": 0.8346456692913385
        },
        {
          "duration": 0.31944412499999686,
          "durationTicks": 230,
          "midi": 54,
          "name": "F#3",
          "ticks": 23280,
          "time": 32.333301,
          "velocity": 0.8346456692913385
        },
        {
          "duration": 0.3055552499999976,
          "durationTicks": 220,
          "midi": 47,
          "name": "B2",
          "ticks": 23520,
          "time": 32.666634,
          "velocity": 0.8346456692913385
        },
        {
          "duration": 0.3055552499999976,
          "durationTicks": 220,
          "midi": 54,
          "name": "F#3",
          "ticks": 23520,
          "time": 32.666634,
          "velocity": 0.8346456692913385
        },
        {
          "duration": 0.3055552499999976,
          "durationTicks": 220,
          "midi": 59,
          "name": "B3",
          "ticks": 23520,
          "time": 32.666634,
          "velocity": 0.8346456692913385
        },
        {
          "duration": 0.3055552499999976,
          "durationTicks": 220,
          "midi": 63,
          "name": "D#4",
          "ticks": 23520,
          "time": 32.666634,
          "velocity": 0.8346456692913385
        },
        {
          "duration": 0.3055552499999976,
          "durationTicks": 220,
          "midi": 66,
          "name": "F#4",
          "ticks": 23520,
          "time": 32.666634,
          "velocity": 0.8346456692913385
        },
        {
          "duration": 0.6249993750000016,
          "durationTicks": 450,
          "midi": 47,
          "name": "B2",
          "ticks": 23760,
          "time": 32.999967,
          "velocity": 0.8346456692913385
        },
        {
          "duration": 0.6388882500000008,
          "durationTicks": 460,
          "midi": 54,
          "name": "F#3",
          "ticks": 23760,
          "time": 32.999967,
          "velocity": 0.8346456692913385
        },
        {
          "duration": 0.972221250000004,
          "durationTicks": 700,
          "midi": 59,
          "name": "B3",
          "ticks": 23760,
          "time": 32.999967,
          "velocity": 0.8346456692913385
        },
        {
          "duration": 0.972221250000004,
          "durationTicks": 700,
          "midi": 63,
          "name": "D#4",
          "ticks": 23760,
          "time": 32.999967,
          "velocity": 0.8346456692913385
        },
        {
          "duration": 0.972221250000004,
          "durationTicks": 700,
          "midi": 66,
          "name": "F#4",
          "ticks": 23760,
          "time": 32.999967,
          "velocity": 0.8346456692913385
        },
        {
          "duration": 0.3333330000000032,
          "durationTicks": 240,
          "midi": 47,
          "name": "B2",
          "ticks": 24240,
          "time": 33.666633,
          "velocity": 0.8346456692913385
        },
        {
          "duration": 0.3055552500000047,
          "durationTicks": 220,
          "midi": 54,
          "name": "F#3",
          "ticks": 24240,
          "time": 33.666633,
          "velocity": 0.8346456692913385
        },
        {
          "duration": 0,
          "durationTicks": 0,
          "midi": 47,
          "name": "B2",
          "ticks": 24480,
          "time": 33.999966,
          "velocity": 0.8346456692913385
        },
        {
          "duration": 0.6527771250000001,
          "durationTicks": 470,
          "midi": 54,
          "name": "F#3",
          "ticks": 24480,
          "time": 33.999966,
          "velocity": 0.8346456692913385
        },
        {
          "duration": 0.4861106249999949,
          "durationTicks": 350,
          "midi": 59,
          "name": "B3",
          "ticks": 24480,
          "time": 33.999966,
          "velocity": 0.8346456692913385
        },
        {
          "duration": 0.47222175000000277,
          "durationTicks": 340,
          "midi": 63,
          "name": "D#4",
          "ticks": 24480,
          "time": 33.999966,
          "velocity": 0.8346456692913385
        },
        {
          "duration": 0.47222175000000277,
          "durationTicks": 340,
          "midi": 66,
          "name": "F#4",
          "ticks": 24480,
          "time": 33.999966,
          "velocity": 0.8346456692913385
        },
        {
          "duration": 0.1527776249999988,
          "durationTicks": 110,
          "midi": 59,
          "name": "B3",
          "ticks": 24840,
          "time": 34.4999655,
          "velocity": 0.8346456692913385
        },
        {
          "duration": 0.1527776249999988,
          "durationTicks": 110,
          "midi": 63,
          "name": "D#4",
          "ticks": 24840,
          "time": 34.4999655,
          "velocity": 0.8346456692913385
        },
        {
          "duration": 0.1527776249999988,
          "durationTicks": 110,
          "midi": 66,
          "name": "F#4",
          "ticks": 24840,
          "time": 34.4999655,
          "velocity": 0.8346456692913385
        },
        {
          "duration": 0.3055552499999976,
          "durationTicks": 220,
          "midi": 47,
          "name": "B2",
          "ticks": 24960,
          "time": 34.666632,
          "velocity": 0.8346456692913385
        },
        {
          "duration": 0.31944412499999686,
          "durationTicks": 230,
          "midi": 54,
          "name": "F#3",
          "ticks": 24960,
          "time": 34.666632,
          "velocity": 0.8346456692913385
        }
      ]
    },
    {
      "channel": 0,
      "controlChanges": {
        "7": [
          {
            "number": 7,
            "ticks": 592,
            "time": 0.8222214,
            "value": 0.7874015748031497
          }
        ],
        "10": [
          {
            "number": 10,
            "ticks": 592,
            "time": 0.8222214,
            "value": 0.5039370078740157
          }
        ],
        "11": [
          {
            "number": 11,
            "ticks": 592,
            "time": 0.8222214,
            "value": 1
          }
        ],
        "91": [
          {
            "number": 91,
            "ticks": 596,
            "time": 0.82777695,
            "value": 0.4330708661417323
          }
        ],
        "93": [
          {
            "number": 93,
            "ticks": 596,
            "time": 0.82777695,
            "value": 0
          }
        ]
      },
      "pitchBends": [],
      "instrument": {
        "family": "guitar",
        "number": 27,
        "name": "electric guitar (clean)"
      },
      "name": "",
      "notes": []
    },
    {
      "channel": 6,
      "controlChanges": {
        "7": [
          {
            "number": 7,
            "ticks": 612,
            "time": 0.8499991499999999,
            "value": 0.7874015748031497
          }
        ],
        "10": [
          {
            "number": 10,
            "ticks": 612,
            "time": 0.8499991499999999,
            "value": 0.5039370078740157
          }
        ],
        "11": [
          {
            "number": 11,
            "ticks": 612,
            "time": 0.8499991499999999,
            "value": 1
          }
        ],
        "91": [
          {
            "number": 91,
            "ticks": 616,
            "time": 0.8555547,
            "value": 0.4330708661417323
          }
        ],
        "93": [
          {
            "number": 93,
            "ticks": 616,
            "time": 0.8555547,
            "value": 0
          }
        ]
      },
      "pitchBends": [
        {
          "ticks": 15460,
          "time": 21.472200750000003,
          "value": -0.9998779296875
        },
        {
          "ticks": 15580,
          "time": 21.63886725,
          "value": 0
        }
      ],
      "instrument": {
        "family": "guitar",
        "number": 29,
        "name": "overdriven guitar"
      },
      "name": "",
      "notes": [
        {
          "duration": 0.3194441250000004,
          "durationTicks": 230,
          "midi": 66,
          "name": "F#4",
          "ticks": 9600,
          "time": 13.33332,
          "velocity": 0.8346456692913385
        },
        {
          "duration": 0.3194441250000004,
          "durationTicks": 230,
          "midi": 66,
          "name": "F#4",
          "ticks": 9840,
          "time": 13.666653,
          "velocity": 0.8346456692913385
        },
        {
          "duration": 0.3194441250000004,
          "durationTicks": 230,
          "midi": 66,
          "name": "F#4",
          "ticks": 10080,
          "time": 13.999986,
          "velocity": 0.8346456692913385
        },
        {
          "duration": 0.3194441250000004,
          "durationTicks": 230,
          "midi": 66,
          "name": "F#4",
          "ticks": 10320,
          "time": 14.333319,
          "velocity": 0.8346456692913385
        },
        {
          "duration": 0.3194441250000004,
          "durationTicks": 230,
          "midi": 66,
          "name": "F#4",
          "ticks": 10560,
          "time": 14.666652,
          "velocity": 0.8346456692913385
        },
        {
          "duration": 0.3194441250000022,
          "durationTicks": 230,
          "midi": 66,
          "name": "F#4",
          "ticks": 10800,
          "time": 14.999984999999999,
          "velocity": 0.8346456692913385
        },
        {
          "duration": 0.3194441250000004,
          "durationTicks": 230,
          "midi": 66,
          "name": "F#4",
          "ticks": 11040,
          "time": 15.333318,
          "velocity": 0.8346456692913385
        },
        {
          "duration": 0.3194441250000004,
          "durationTicks": 230,
          "midi": 66,
          "name": "F#4",
          "ticks": 11280,
          "time": 15.666651,
          "velocity": 0.8346456692913385
        },
        {
          "duration": 0.3194441250000022,
          "durationTicks": 230,
          "midi": 66,
          "name": "F#4",
          "ticks": 11520,
          "time": 15.999984,
          "velocity": 0.8346456692913385
        },
        {
          "duration": 0.3194441250000004,
          "durationTicks": 230,
          "midi": 64,
          "name": "E4",
          "ticks": 11760,
          "time": 16.333317,
          "velocity": 0.8346456692913385
        },
        {
          "duration": 0.3194441250000004,
          "durationTicks": 230,
          "midi": 64,
          "name": "E4",
          "ticks": 12000,
          "time": 16.66665,
          "velocity": 0.8346456692913385
        },
        {
          "duration": 0.3194441250000004,
          "durationTicks": 230,
          "midi": 64,
          "name": "E4",
          "ticks": 12240,
          "time": 16.999983,
          "velocity": 0.8346456692913385
        },
        {
          "duration": 0.3194441250000004,
          "durationTicks": 230,
          "midi": 64,
          "name": "E4",
          "ticks": 12480,
          "time": 17.333316,
          "velocity": 0.8346456692913385
        },
        {
          "duration": 0.3194441250000004,
          "durationTicks": 230,
          "midi": 64,
          "name": "E4",
          "ticks": 12720,
          "time": 17.666649,
          "velocity": 0.8346456692913385
        },
        {
          "duration": 0.3194441250000004,
          "durationTicks": 230,
          "midi": 64,
          "name": "E4",
          "ticks": 12960,
          "time": 17.999982,
          "velocity": 0.8346456692913385
        },
        {
          "duration": 0.3194441250000004,
          "durationTicks": 230,
          "midi": 64,
          "name": "E4",
          "ticks": 13200,
          "time": 18.333315,
          "velocity": 0.8346456692913385
        },
        {
          "duration": 0.3194441250000004,
          "durationTicks": 230,
          "midi": 70,
          "name": "A#4",
          "ticks": 13440,
          "time": 18.666648,
          "velocity": 0.8346456692913385
        },
        {
          "duration": 0.3194441250000004,
          "durationTicks": 230,
          "midi": 70,
          "name": "A#4",
          "ticks": 13680,
          "time": 18.999981,
          "velocity": 0.8346456692913385
        },
        {
          "duration": 0.31944412500000396,
          "durationTicks": 230,
          "midi": 70,
          "name": "A#4",
          "ticks": 13920,
          "time": 19.333313999999998,
          "velocity": 0.8346456692913385
        },
        {
          "duration": 0.3194441250000004,
          "durationTicks": 230,
          "midi": 70,
          "name": "A#4",
          "ticks": 14160,
          "time": 19.666647,
          "velocity": 0.8346456692913385
        },
        {
          "duration": 0.3194441250000004,
          "durationTicks": 230,
          "midi": 70,
          "name": "A#4",
          "ticks": 14400,
          "time": 19.99998,
          "velocity": 0.8346456692913385
        },
        {
          "duration": 0.3194441250000004,
          "durationTicks": 230,
          "midi": 70,
          "name": "A#4",
          "ticks": 14640,
          "time": 20.333313,
          "velocity": 0.8346456692913385
        },
        {
          "duration": 0.3194441250000004,
          "durationTicks": 230,
          "midi": 70,
          "name": "A#4",
          "ticks": 14880,
          "time": 20.666646,
          "velocity": 0.8346456692913385
        },
        {
          "duration": 0.3194441250000004,
          "durationTicks": 230,
          "midi": 70,
          "name": "A#4",
          "ticks": 15120,
          "time": 20.999979,
          "velocity": 0.8346456692913385
        },
        {
          "duration": 0.31944412499999686,
          "durationTicks": 230,
          "midi": 70,
          "name": "A#4",
          "ticks": 15360,
          "time": 21.333312,
          "velocity": 0.8346456692913385
        },
        {
          "duration": 0.3194441250000004,
          "durationTicks": 230,
          "midi": 68,
          "name": "G#4",
          "ticks": 15600,
          "time": 21.666645,
          "velocity": 0.8346456692913385
        },
        {
          "duration": 0.3194441250000004,
          "durationTicks": 230,
          "midi": 68,
          "name": "G#4",
          "ticks": 15840,
          "time": 21.999978,
          "velocity": 0.8346456692913385
        },
        {
          "duration": 0.3194441250000004,
          "durationTicks": 230,
          "midi": 68,
          "name": "G#4",
          "ticks": 16080,
          "time": 22.333311,
          "velocity": 0.8346456692913385
        },
        {
          "duration": 0.3194441250000004,
          "durationTicks": 230,
          "midi": 68,
          "name": "G#4",
          "ticks": 16320,
          "time": 22.666643999999998,
          "velocity": 0.8346456692913385
        },
        {
          "duration": 0.3194441250000004,
          "durationTicks": 230,
          "midi": 68,
          "name": "G#4",
          "ticks": 16560,
          "time": 22.999976999999998,
          "velocity": 0.8346456692913385
        },
        {
          "duration": 0.31944412499999686,
          "durationTicks": 230,
          "midi": 68,
          "name": "G#4",
          "ticks": 16800,
          "time": 23.33331,
          "velocity": 0.8346456692913385
        },
        {
          "duration": 0.31944412499999686,
          "durationTicks": 230,
          "midi": 68,
          "name": "G#4",
          "ticks": 17040,
          "time": 23.666643,
          "velocity": 0.8346456692913385
        },
        {
          "duration": 0.31944412499999686,
          "durationTicks": 230,
          "midi": 61,
          "name": "C#4",
          "ticks": 17280,
          "time": 23.999976,
          "velocity": 0.8346456692913385
        },
        {
          "duration": 0.31944412499999686,
          "durationTicks": 230,
          "midi": 61,
          "name": "C#4",
          "ticks": 17520,
          "time": 24.333309,
          "velocity": 0.8346456692913385
        },
        {
          "duration": 0.31944412499999686,
          "durationTicks": 230,
          "midi": 61,
          "name": "C#4",
          "ticks": 17760,
          "time": 24.666642,
          "velocity": 0.8346456692913385
        },
        {
          "duration": 0.31944412499999686,
          "durationTicks": 230,
          "midi": 61,
          "name": "C#4",
          "ticks": 18000,
          "time": 24.999975,
          "velocity": 0.8346456692913385
        },
        {
          "duration": 0.3194441250000004,
          "durationTicks": 230,
          "midi": 61,
          "name": "C#4",
          "ticks": 18240,
          "time": 25.333308,
          "velocity": 0.8346456692913385
        },
        {
          "duration": 0.3194441250000004,
          "durationTicks": 230,
          "midi": 61,
          "name": "C#4",
          "ticks": 18480,
          "time": 25.666641,
          "velocity": 0.8346456692913385
        },
        {
          "duration": 0.3194441250000004,
          "durationTicks": 230,
          "midi": 61,
          "name": "C#4",
          "ticks": 18720,
          "time": 25.999973999999998,
          "velocity": 0.8346456692913385
        },
        {
          "duration": 0.3194441250000004,
          "durationTicks": 230,
          "midi": 61,
          "name": "C#4",
          "ticks": 18960,
          "time": 26.333306999999998,
          "velocity": 0.8346456692913385
        },
        {
          "duration": 0.31944412499999686,
          "durationTicks": 230,
          "midi": 61,
          "name": "C#4",
          "ticks": 19200,
          "time": 26.66664,
          "velocity": 0.8346456692913385
        },
        {
          "duration": 0.31944412499999686,
          "durationTicks": 230,
          "midi": 59,
          "name": "B3",
          "ticks": 19440,
          "time": 26.999973,
          "velocity": 0.8346456692913385
        },
        {
          "duration": 0.31944412499999686,
          "durationTicks": 230,
          "midi": 59,
          "name": "B3",
          "ticks": 19680,
          "time": 27.333306,
          "velocity": 0.8346456692913385
        },
        {
          "duration": 0.31944412499999686,
          "durationTicks": 230,
          "midi": 59,
          "name": "B3",
          "ticks": 19920,
          "time": 27.666639,
          "velocity": 0.8346456692913385
        },
        {
          "duration": 0.31944412499999686,
          "durationTicks": 230,
          "midi": 59,
          "name": "B3",
          "ticks": 20160,
          "time": 27.999972,
          "velocity": 0.8346456692913385
        },
        {
          "duration": 0.31944412499999686,
          "durationTicks": 230,
          "midi": 59,
          "name": "B3",
          "ticks": 20400,
          "time": 28.333305,
          "velocity": 0.8346456692913385
        },
        {
          "duration": 0.31944412499999686,
          "durationTicks": 230,
          "midi": 59,
          "name": "B3",
          "ticks": 20640,
          "time": 28.666638,
          "velocity": 0.8346456692913385
        },
        {
          "duration": 0.3194441250000004,
          "durationTicks": 230,
          "midi": 59,
          "name": "B3",
          "ticks": 20880,
          "time": 28.999971,
          "velocity": 0.8346456692913385
        },
        {
          "duration": 0.3194441250000004,
          "durationTicks": 230,
          "midi": 66,
          "name": "F#4",
          "ticks": 21120,
          "time": 29.333304,
          "velocity": 0.8346456692913385
        },
        {
          "duration": 0.3194441250000004,
          "durationTicks": 230,
          "midi": 66,
          "name": "F#4",
          "ticks": 21360,
          "time": 29.666636999999998,
          "velocity": 0.8346456692913385
        },
        {
          "duration": 0.3194441250000004,
          "durationTicks": 230,
          "midi": 66,
          "name": "F#4",
          "ticks": 21600,
          "time": 29.999969999999998,
          "velocity": 0.8346456692913385
        },
        {
          "duration": 0.31944412499999686,
          "durationTicks": 230,
          "midi": 66,
          "name": "F#4",
          "ticks": 21840,
          "time": 30.333303,
          "velocity": 0.8346456692913385
        },
        {
          "duration": 0.31944412499999686,
          "durationTicks": 230,
          "midi": 66,
          "name": "F#4",
          "ticks": 22080,
          "time": 30.666636,
          "velocity": 0.8346456692913385
        },
        {
          "duration": 0.31944412499999686,
          "durationTicks": 230,
          "midi": 66,
          "name": "F#4",
          "ticks": 22320,
          "time": 30.999969,
          "velocity": 0.8346456692913385
        },
        {
          "duration": 0.31944412499999686,
          "durationTicks": 230,
          "midi": 66,
          "name": "F#4",
          "ticks": 22560,
          "time": 31.333302,
          "velocity": 0.8346456692913385
        },
        {
          "duration": 0.31944412499999686,
          "durationTicks": 230,
          "midi": 66,
          "name": "F#4",
          "ticks": 22800,
          "time": 31.666635,
          "velocity": 0.8346456692913385
        },
        {
          "duration": 0.3194441250000004,
          "durationTicks": 230,
          "midi": 66,
          "name": "F#4",
          "ticks": 23040,
          "time": 31.999968,
          "velocity": 0.8346456692913385
        },
        {
          "duration": 0.31944412499999686,
          "durationTicks": 230,
          "midi": 64,
          "name": "E4",
          "ticks": 23280,
          "time": 32.333301,
          "velocity": 0.8346456692913385
        },
        {
          "duration": 0.31944412499999686,
          "durationTicks": 230,
          "midi": 64,
          "name": "E4",
          "ticks": 23520,
          "time": 32.666634,
          "velocity": 0.8346456692913385
        },
        {
          "duration": 0.31944412499999686,
          "durationTicks": 230,
          "midi": 64,
          "name": "E4",
          "ticks": 23760,
          "time": 32.999967,
          "velocity": 0.8346456692913385
        },
        {
          "duration": 0.31944412499999686,
          "durationTicks": 230,
          "midi": 64,
          "name": "E4",
          "ticks": 24000,
          "time": 33.3333,
          "velocity": 0.8346456692913385
        },
        {
          "duration": 0.31944412499999686,
          "durationTicks": 230,
          "midi": 64,
          "name": "E4",
          "ticks": 24240,
          "time": 33.666633,
          "velocity": 0.8346456692913385
        },
        {
          "duration": 0.31944412499999686,
          "durationTicks": 230,
          "midi": 64,
          "name": "E4",
          "ticks": 24480,
          "time": 33.999966,
          "velocity": 0.8346456692913385
        },
        {
          "duration": 0.31944412500000396,
          "durationTicks": 230,
          "midi": 64,
          "name": "E4",
          "ticks": 24720,
          "time": 34.333299,
          "velocity": 0.8346456692913385
        }
      ]
    },
    {
      "channel": 9,
      "controlChanges": {
        "7": [
          {
            "number": 7,
            "ticks": 672,
            "time": 0.9333324,
            "value": 1
          }
        ],
        "11": [
          {
            "number": 11,
            "ticks": 672,
            "time": 0.9333324,
            "value": 1
          }
        ],
        "91": [
          {
            "number": 91,
            "ticks": 676,
            "time": 0.93888795,
            "value": 0.36220472440944884
          }
        ],
        "93": [
          {
            "number": 93,
            "ticks": 676,
            "time": 0.93888795,
            "value": 0
          }
        ]
      },
      "pitchBends": [],
      "instrument": {
        "family": "drums",
        "number": 0,
        "name": "standard kit"
      },
      "name": "",
      "notes": [
        {
          "duration": 0.3194441250000004,
          "durationTicks": 230,
          "midi": 35,
          "name": "B1",
          "ticks": 9600,
          "time": 13.33332,
          "velocity": 0.8346456692913385
        },
        {
          "duration": 0.3194441250000004,
          "durationTicks": 230,
          "midi": 49,
          "name": "C#3",
          "ticks": 9600,
          "time": 13.33332,
          "velocity": 0.8346456692913385
        },
        {
          "duration": 0.3194441250000004,
          "durationTicks": 230,
          "midi": 46,
          "name": "A#2",
          "ticks": 9840,
          "time": 13.666653,
          "velocity": 0.8346456692913385
        },
        {
          "duration": 0.3194441250000004,
          "durationTicks": 230,
          "midi": 40,
          "name": "E2",
          "ticks": 10080,
          "time": 13.999986,
          "velocity": 0.8346456692913385
        },
        {
          "duration": 0.3194441250000004,
          "durationTicks": 230,
          "midi": 46,
          "name": "A#2",
          "ticks": 10080,
          "time": 13.999986,
          "velocity": 0.8346456692913385
        },
        {
          "duration": 0.3194441250000004,
          "durationTicks": 230,
          "midi": 46,
          "name": "A#2",
          "ticks": 10320,
          "time": 14.333319,
          "velocity": 0.8346456692913385
        },
        {
          "duration": 0.3194441250000004,
          "durationTicks": 230,
          "midi": 35,
          "name": "B1",
          "ticks": 10560,
          "time": 14.666652,
          "velocity": 0.8346456692913385
        },
        {
          "duration": 0.3194441250000004,
          "durationTicks": 230,
          "midi": 46,
          "name": "A#2",
          "ticks": 10560,
          "time": 14.666652,
          "velocity": 0.8346456692913385
        },
        {
          "duration": 0.3194441250000022,
          "durationTicks": 230,
          "midi": 35,
          "name": "B1",
          "ticks": 10800,
          "time": 14.999984999999999,
          "velocity": 0.8346456692913385
        },
        {
          "duration": 0.3194441250000022,
          "durationTicks": 230,
          "midi": 46,
          "name": "A#2",
          "ticks": 10800,
          "time": 14.999984999999999,
          "velocity": 0.8346456692913385
        },
        {
          "duration": 0.3194441250000004,
          "durationTicks": 230,
          "midi": 40,
          "name": "E2",
          "ticks": 11040,
          "time": 15.333318,
          "velocity": 0.8346456692913385
        },
        {
          "duration": 0.3194441250000004,
          "durationTicks": 230,
          "midi": 46,
          "name": "A#2",
          "ticks": 11040,
          "time": 15.333318,
          "velocity": 0.8346456692913385
        },
        {
          "duration": 0.3194441250000004,
          "durationTicks": 230,
          "midi": 46,
          "name": "A#2",
          "ticks": 11280,
          "time": 15.666651,
          "velocity": 0.8346456692913385
        },
        {
          "duration": 0.3194441250000022,
          "durationTicks": 230,
          "midi": 35,
          "name": "B1",
          "ticks": 11520,
          "time": 15.999984,
          "velocity": 0.8346456692913385
        },
        {
          "duration": 0.3194441250000022,
          "durationTicks": 230,
          "midi": 46,
          "name": "A#2",
          "ticks": 11520,
          "time": 15.999984,
          "velocity": 0.8346456692913385
        },
        {
          "duration": 0.3194441250000004,
          "durationTicks": 230,
          "midi": 46,
          "name": "A#2",
          "ticks": 11760,
          "time": 16.333317,
          "velocity": 0.8346456692913385
        },
        {
          "duration": 0.3194441250000004,
          "durationTicks": 230,
          "midi": 40,
          "name": "E2",
          "ticks": 12000,
          "time": 16.66665,
          "velocity": 0.8346456692913385
        },
        {
          "duration": 0.3194441250000004,
          "durationTicks": 230,
          "midi": 46,
          "name": "A#2",
          "ticks": 12000,
          "time": 16.66665,
          "velocity": 0.8346456692913385
        },
        {
          "duration": 0.3194441250000004,
          "durationTicks": 230,
          "midi": 46,
          "name": "A#2",
          "ticks": 12240,
          "time": 16.999983,
          "velocity": 0.8346456692913385
        },
        {
          "duration": 0.3194441250000004,
          "durationTicks": 230,
          "midi": 35,
          "name": "B1",
          "ticks": 12480,
          "time": 17.333316,
          "velocity": 0.8346456692913385
        },
        {
          "duration": 0.3194441250000004,
          "durationTicks": 230,
          "midi": 46,
          "name": "A#2",
          "ticks": 12480,
          "time": 17.333316,
          "velocity": 0.8346456692913385
        },
        {
          "duration": 0.3194441250000004,
          "durationTicks": 230,
          "midi": 35,
          "name": "B1",
          "ticks": 12720,
          "time": 17.666649,
          "velocity": 0.8346456692913385
        },
        {
          "duration": 0.3194441250000004,
          "durationTicks": 230,
          "midi": 46,
          "name": "A#2",
          "ticks": 12720,
          "time": 17.666649,
          "velocity": 0.8346456692913385
        },
        {
          "duration": 0.3194441250000004,
          "durationTicks": 230,
          "midi": 40,
          "name": "E2",
          "ticks": 12960,
          "time": 17.999982,
          "velocity": 0.8346456692913385
        },
        {
          "duration": 0.3194441250000004,
          "durationTicks": 230,
          "midi": 46,
          "name": "A#2",
          "ticks": 12960,
          "time": 17.999982,
          "velocity": 0.8346456692913385
        },
        {
          "duration": 0.3194441250000004,
          "durationTicks": 230,
          "midi": 46,
          "name": "A#2",
          "ticks": 13200,
          "time": 18.333315,
          "velocity": 0.8346456692913385
        },
        {
          "duration": 0.3194441250000004,
          "durationTicks": 230,
          "midi": 35,
          "name": "B1",
          "ticks": 13440,
          "time": 18.666648,
          "velocity": 0.8346456692913385
        },
        {
          "duration": 0.3194441250000004,
          "durationTicks": 230,
          "midi": 46,
          "name": "A#2",
          "ticks": 13440,
          "time": 18.666648,
          "velocity": 0.8346456692913385
        },
        {
          "duration": 0.3194441250000004,
          "durationTicks": 230,
          "midi": 46,
          "name": "A#2",
          "ticks": 13680,
          "time": 18.999981,
          "velocity": 0.8346456692913385
        },
        {
          "duration": 0.31944412500000396,
          "durationTicks": 230,
          "midi": 40,
          "name": "E2",
          "ticks": 13920,
          "time": 19.333313999999998,
          "velocity": 0.8346456692913385
        },
        {
          "duration": 0.31944412500000396,
          "durationTicks": 230,
          "midi": 46,
          "name": "A#2",
          "ticks": 13920,
          "time": 19.333313999999998,
          "velocity": 0.8346456692913385
        },
        {
          "duration": 0.3194441250000004,
          "durationTicks": 230,
          "midi": 46,
          "name": "A#2",
          "ticks": 14160,
          "time": 19.666647,
          "velocity": 0.8346456692913385
        },
        {
          "duration": 0.3194441250000004,
          "durationTicks": 230,
          "midi": 35,
          "name": "B1",
          "ticks": 14400,
          "time": 19.99998,
          "velocity": 0.8346456692913385
        },
        {
          "duration": 0.3194441250000004,
          "durationTicks": 230,
          "midi": 46,
          "name": "A#2",
          "ticks": 14400,
          "time": 19.99998,
          "velocity": 0.8346456692913385
        },
        {
          "duration": 0.3194441250000004,
          "durationTicks": 230,
          "midi": 35,
          "name": "B1",
          "ticks": 14640,
          "time": 20.333313,
          "velocity": 0.8346456692913385
        },
        {
          "duration": 0.3194441250000004,
          "durationTicks": 230,
          "midi": 46,
          "name": "A#2",
          "ticks": 14640,
          "time": 20.333313,
          "velocity": 0.8346456692913385
        },
        {
          "duration": 0.3194441250000004,
          "durationTicks": 230,
          "midi": 40,
          "name": "E2",
          "ticks": 14880,
          "time": 20.666646,
          "velocity": 0.8346456692913385
        },
        {
          "duration": 0.3194441250000004,
          "durationTicks": 230,
          "midi": 46,
          "name": "A#2",
          "ticks": 14880,
          "time": 20.666646,
          "velocity": 0.8346456692913385
        },
        {
          "duration": 0.3194441250000004,
          "durationTicks": 230,
          "midi": 46,
          "name": "A#2",
          "ticks": 15120,
          "time": 20.999979,
          "velocity": 0.8346456692913385
        },
        {
          "duration": 0.31944412499999686,
          "durationTicks": 230,
          "midi": 35,
          "name": "B1",
          "ticks": 15360,
          "time": 21.333312,
          "velocity": 0.8346456692913385
        },
        {
          "duration": 0.31944412499999686,
          "durationTicks": 230,
          "midi": 46,
          "name": "A#2",
          "ticks": 15360,
          "time": 21.333312,
          "velocity": 0.8346456692913385
        },
        {
          "duration": 0.3194441250000004,
          "durationTicks": 230,
          "midi": 46,
          "name": "A#2",
          "ticks": 15600,
          "time": 21.666645,
          "velocity": 0.8346456692913385
        },
        {
          "duration": 0.3194441250000004,
          "durationTicks": 230,
          "midi": 40,
          "name": "E2",
          "ticks": 15840,
          "time": 21.999978,
          "velocity": 0.8346456692913385
        },
        {
          "duration": 0.3194441250000004,
          "durationTicks": 230,
          "midi": 46,
          "name": "A#2",
          "ticks": 15840,
          "time": 21.999978,
          "velocity": 0.8346456692913385
        },
        {
          "duration": 0.3194441250000004,
          "durationTicks": 230,
          "midi": 46,
          "name": "A#2",
          "ticks": 16080,
          "time": 22.333311,
          "velocity": 0.8346456692913385
        },
        {
          "duration": 0.3194441250000004,
          "durationTicks": 230,
          "midi": 35,
          "name": "B1",
          "ticks": 16320,
          "time": 22.666643999999998,
          "velocity": 0.8346456692913385
        },
        {
          "duration": 0.3194441250000004,
          "durationTicks": 230,
          "midi": 46,
          "name": "A#2",
          "ticks": 16320,
          "time": 22.666643999999998,
          "velocity": 0.8346456692913385
        },
        {
          "duration": 0.3194441250000004,
          "durationTicks": 230,
          "midi": 35,
          "name": "B1",
          "ticks": 16560,
          "time": 22.999976999999998,
          "velocity": 0.8346456692913385
        },
        {
          "duration": 0.3194441250000004,
          "durationTicks": 230,
          "midi": 46,
          "name": "A#2",
          "ticks": 16560,
          "time": 22.999976999999998,
          "velocity": 0.8346456692913385
        },
        {
          "duration": 0.31944412499999686,
          "durationTicks": 230,
          "midi": 40,
          "name": "E2",
          "ticks": 16800,
          "time": 23.33331,
          "velocity": 0.8346456692913385
        },
        {
          "duration": 0.31944412499999686,
          "durationTicks": 230,
          "midi": 46,
          "name": "A#2",
          "ticks": 16800,
          "time": 23.33331,
          "velocity": 0.8346456692913385
        },
        {
          "duration": 0.31944412499999686,
          "durationTicks": 230,
          "midi": 46,
          "name": "A#2",
          "ticks": 17040,
          "time": 23.666643,
          "velocity": 0.8346456692913385
        },
        {
          "duration": 0.31944412499999686,
          "durationTicks": 230,
          "midi": 35,
          "name": "B1",
          "ticks": 17280,
          "time": 23.999976,
          "velocity": 0.8346456692913385
        },
        {
          "duration": 0.31944412499999686,
          "durationTicks": 230,
          "midi": 49,
          "name": "C#3",
          "ticks": 17280,
          "time": 23.999976,
          "velocity": 0.8346456692913385
        },
        {
          "duration": 0.31944412499999686,
          "durationTicks": 230,
          "midi": 46,
          "name": "A#2",
          "ticks": 17520,
          "time": 24.333309,
          "velocity": 0.8346456692913385
        },
        {
          "duration": 0.31944412499999686,
          "durationTicks": 230,
          "midi": 40,
          "name": "E2",
          "ticks": 17760,
          "time": 24.666642,
          "velocity": 0.8346456692913385
        },
        {
          "duration": 0.31944412499999686,
          "durationTicks": 230,
          "midi": 46,
          "name": "A#2",
          "ticks": 17760,
          "time": 24.666642,
          "velocity": 0.8346456692913385
        },
        {
          "duration": 0.31944412499999686,
          "durationTicks": 230,
          "midi": 46,
          "name": "A#2",
          "ticks": 18000,
          "time": 24.999975,
          "velocity": 0.8346456692913385
        },
        {
          "duration": 0.3194441250000004,
          "durationTicks": 230,
          "midi": 35,
          "name": "B1",
          "ticks": 18240,
          "time": 25.333308,
          "velocity": 0.8346456692913385
        },
        {
          "duration": 0.3194441250000004,
          "durationTicks": 230,
          "midi": 46,
          "name": "A#2",
          "ticks": 18240,
          "time": 25.333308,
          "velocity": 0.8346456692913385
        },
        {
          "duration": 0.3194441250000004,
          "durationTicks": 230,
          "midi": 35,
          "name": "B1",
          "ticks": 18480,
          "time": 25.666641,
          "velocity": 0.8346456692913385
        },
        {
          "duration": 0.3194441250000004,
          "durationTicks": 230,
          "midi": 46,
          "name": "A#2",
          "ticks": 18480,
          "time": 25.666641,
          "velocity": 0.8346456692913385
        },
        {
          "duration": 0.3194441250000004,
          "durationTicks": 230,
          "midi": 40,
          "name": "E2",
          "ticks": 18720,
          "time": 25.999973999999998,
          "velocity": 0.8346456692913385
        },
        {
          "duration": 0.3194441250000004,
          "durationTicks": 230,
          "midi": 46,
          "name": "A#2",
          "ticks": 18720,
          "time": 25.999973999999998,
          "velocity": 0.8346456692913385
        },
        {
          "duration": 0.3194441250000004,
          "durationTicks": 230,
          "midi": 46,
          "name": "A#2",
          "ticks": 18960,
          "time": 26.333306999999998,
          "velocity": 0.8346456692913385
        },
        {
          "duration": 0.31944412499999686,
          "durationTicks": 230,
          "midi": 35,
          "name": "B1",
          "ticks": 19200,
          "time": 26.66664,
          "velocity": 0.8346456692913385
        },
        {
          "duration": 0.31944412499999686,
          "durationTicks": 230,
          "midi": 46,
          "name": "A#2",
          "ticks": 19200,
          "time": 26.66664,
          "velocity": 0.8346456692913385
        },
        {
          "duration": 0.31944412499999686,
          "durationTicks": 230,
          "midi": 46,
          "name": "A#2",
          "ticks": 19440,
          "time": 26.999973,
          "velocity": 0.8346456692913385
        },
        {
          "duration": 0.31944412499999686,
          "durationTicks": 230,
          "midi": 40,
          "name": "E2",
          "ticks": 19680,
          "time": 27.333306,
          "velocity": 0.8346456692913385
        },
        {
          "duration": 0.31944412499999686,
          "durationTicks": 230,
          "midi": 46,
          "name": "A#2",
          "ticks": 19680,
          "time": 27.333306,
          "velocity": 0.8346456692913385
        },
        {
          "duration": 0.31944412499999686,
          "durationTicks": 230,
          "midi": 46,
          "name": "A#2",
          "ticks": 19920,
          "time": 27.666639,
          "velocity": 0.8346456692913385
        },
        {
          "duration": 0.31944412499999686,
          "durationTicks": 230,
          "midi": 35,
          "name": "B1",
          "ticks": 20160,
          "time": 27.999972,
          "velocity": 0.8346456692913385
        },
        {
          "duration": 0.31944412499999686,
          "durationTicks": 230,
          "midi": 46,
          "name": "A#2",
          "ticks": 20160,
          "time": 27.999972,
          "velocity": 0.8346456692913385
        },
        {
          "duration": 0.31944412499999686,
          "durationTicks": 230,
          "midi": 35,
          "name": "B1",
          "ticks": 20400,
          "time": 28.333305,
          "velocity": 0.8346456692913385
        },
        {
          "duration": 0.31944412499999686,
          "durationTicks": 230,
          "midi": 46,
          "name": "A#2",
          "ticks": 20400,
          "time": 28.333305,
          "velocity": 0.8346456692913385
        },
        {
          "duration": 0.31944412499999686,
          "durationTicks": 230,
          "midi": 40,
          "name": "E2",
          "ticks": 20640,
          "time": 28.666638,
          "velocity": 0.8346456692913385
        },
        {
          "duration": 0.31944412499999686,
          "durationTicks": 230,
          "midi": 46,
          "name": "A#2",
          "ticks": 20640,
          "time": 28.666638,
          "velocity": 0.8346456692913385
        },
        {
          "duration": 0.3194441250000004,
          "durationTicks": 230,
          "midi": 46,
          "name": "A#2",
          "ticks": 20880,
          "time": 28.999971,
          "velocity": 0.8346456692913385
        },
        {
          "duration": 0.3194441250000004,
          "durationTicks": 230,
          "midi": 35,
          "name": "B1",
          "ticks": 21120,
          "time": 29.333304,
          "velocity": 0.8346456692913385
        },
        {
          "duration": 0.3194441250000004,
          "durationTicks": 230,
          "midi": 46,
          "name": "A#2",
          "ticks": 21120,
          "time": 29.333304,
          "velocity": 0.8346456692913385
        },
        {
          "duration": 0.3194441250000004,
          "durationTicks": 230,
          "midi": 46,
          "name": "A#2",
          "ticks": 21360,
          "time": 29.666636999999998,
          "velocity": 0.8346456692913385
        },
        {
          "duration": 0.3194441250000004,
          "durationTicks": 230,
          "midi": 40,
          "name": "E2",
          "ticks": 21600,
          "time": 29.999969999999998,
          "velocity": 0.8346456692913385
        },
        {
          "duration": 0.3194441250000004,
          "durationTicks": 230,
          "midi": 46,
          "name": "A#2",
          "ticks": 21600,
          "time": 29.999969999999998,
          "velocity": 0.8346456692913385
        },
        {
          "duration": 0.31944412499999686,
          "durationTicks": 230,
          "midi": 46,
          "name": "A#2",
          "ticks": 21840,
          "time": 30.333303,
          "velocity": 0.8346456692913385
        },
        {
          "duration": 0.31944412499999686,
          "durationTicks": 230,
          "midi": 35,
          "name": "B1",
          "ticks": 22080,
          "time": 30.666636,
          "velocity": 0.8346456692913385
        },
        {
          "duration": 0.31944412499999686,
          "durationTicks": 230,
          "midi": 46,
          "name": "A#2",
          "ticks": 22080,
          "time": 30.666636,
          "velocity": 0.8346456692913385
        },
        {
          "duration": 0.31944412499999686,
          "durationTicks": 230,
          "midi": 35,
          "name": "B1",
          "ticks": 22320,
          "time": 30.999969,
          "velocity": 0.8346456692913385
        },
        {
          "duration": 0.31944412499999686,
          "durationTicks": 230,
          "midi": 46,
          "name": "A#2",
          "ticks": 22320,
          "time": 30.999969,
          "velocity": 0.8346456692913385
        },
        {
          "duration": 0.31944412499999686,
          "durationTicks": 230,
          "midi": 40,
          "name": "E2",
          "ticks": 22560,
          "time": 31.333302,
          "velocity": 0.8346456692913385
        },
        {
          "duration": 0.31944412499999686,
          "durationTicks": 230,
          "midi": 46,
          "name": "A#2",
          "ticks": 22560,
          "time": 31.333302,
          "velocity": 0.8346456692913385
        },
        {
          "duration": 0.31944412499999686,
          "durationTicks": 230,
          "midi": 46,
          "name": "A#2",
          "ticks": 22800,
          "time": 31.666635,
          "velocity": 0.8346456692913385
        },
        {
          "duration": 0.3194441250000004,
          "durationTicks": 230,
          "midi": 35,
          "name": "B1",
          "ticks": 23040,
          "time": 31.999968,
          "velocity": 0.8346456692913385
        },
        {
          "duration": 0.3194441250000004,
          "durationTicks": 230,
          "midi": 46,
          "name": "A#2",
          "ticks": 23040,
          "time": 31.999968,
          "velocity": 0.8346456692913385
        },
        {
          "duration": 0.31944412499999686,
          "durationTicks": 230,
          "midi": 46,
          "name": "A#2",
          "ticks": 23280,
          "time": 32.333301,
          "velocity": 0.8346456692913385
        },
        {
          "duration": 0.31944412499999686,
          "durationTicks": 230,
          "midi": 40,
          "name": "E2",
          "ticks": 23520,
          "time": 32.666634,
          "velocity": 0.8346456692913385
        },
        {
          "duration": 0.31944412499999686,
          "durationTicks": 230,
          "midi": 46,
          "name": "A#2",
          "ticks": 23520,
          "time": 32.666634,
          "velocity": 0.8346456692913385
        },
        {
          "duration": 0.31944412499999686,
          "durationTicks": 230,
          "midi": 46,
          "name": "A#2",
          "ticks": 23760,
          "time": 32.999967,
          "velocity": 0.8346456692913385
        },
        {
          "duration": 0.31944412499999686,
          "durationTicks": 230,
          "midi": 35,
          "name": "B1",
          "ticks": 24000,
          "time": 33.3333,
          "velocity": 0.8346456692913385
        },
        {
          "duration": 0.31944412499999686,
          "durationTicks": 230,
          "midi": 46,
          "name": "A#2",
          "ticks": 24000,
          "time": 33.3333,
          "velocity": 0.8346456692913385
        },
        {
          "duration": 0.31944412499999686,
          "durationTicks": 230,
          "midi": 35,
          "name": "B1",
          "ticks": 24240,
          "time": 33.666633,
          "velocity": 0.8346456692913385
        },
        {
          "duration": 0.31944412499999686,
          "durationTicks": 230,
          "midi": 46,
          "name": "A#2",
          "ticks": 24240,
          "time": 33.666633,
          "velocity": 0.8346456692913385
        },
        {
          "duration": 0.31944412499999686,
          "durationTicks": 230,
          "midi": 40,
          "name": "E2",
          "ticks": 24480,
          "time": 33.999966,
          "velocity": 0.8346456692913385
        },
        {
          "duration": 0.31944412499999686,
          "durationTicks": 230,
          "midi": 46,
          "name": "A#2",
          "ticks": 24480,
          "time": 33.999966,
          "velocity": 0.8346456692913385
        },
        {
          "duration": 0.31944412500000396,
          "durationTicks": 230,
          "midi": 46,
          "name": "A#2",
          "ticks": 24720,
          "time": 34.333299,
          "velocity": 0.8346456692913385
        },
        {
          "duration": 0.31944412499999686,
          "durationTicks": 230,
          "midi": 35,
          "name": "B1",
          "ticks": 24960,
          "time": 34.666632,
          "velocity": 0.8346456692913385
        },
        {
          "duration": 0.31944412499999686,
          "durationTicks": 230,
          "midi": 49,
          "name": "C#3",
          "ticks": 24960,
          "time": 34.666632,
          "velocity": 0.8346456692913385
        }
      ]
    }
  ]
}