{
  "header": {
    "keySignatures": [],
    "meta": [],
    "name": "Yellow",
    "ppq": 192,
    "tempos": [
      {
        "bpm": 88.00002346667293,
        "ticks": 0
      }
    ],
    "timeSignatures": [
      {
        "ticks": 0,
        "timeSignature": [
          4,
          4
        ],
        "measures": 0
      }
    ]
  },
  "tracks": [
    {
      "channel": 9,
      "controlChanges": {
        "7": [
          {
            "number": 7,
            "ticks": 0,
            "time": 0,
            "value": 1
          },
          {
            "number": 7,
            "ticks": 0,
            "time": 0,
            "value": 1
          }
        ],
        "10": [
          {
            "number": 10,
            "ticks": 0,
            "time": 0,
            "value": 0.5039370078740157
          },
          {
            "number": 10,
            "ticks": 0,
            "time": 0,
            "value": 0.5039370078740157
          }
        ]
      },
      "pitchBends": [],
      "instrument": {
        "family": "drums",
        "number": 0,
        "name": "standard kit"
      },
      "name": " ",
      "notes": [
        {
          "duration": 0.33380672916666576,
          "durationTicks": 94,
          "midi": 46,
          "name": "A#2",
          "ticks": 3840,
          "time": 13.636359999999998,
          "velocity": 0.5905511811023622
        },
        {
          "duration": 0.33380672916666576,
          "durationTicks": 94,
          "midi": 49,
          "name": "C#3",
          "ticks": 3840,
          "time": 13.636359999999998,
          "velocity": 0.5905511811023622
        },
        {
          "duration": 0.33380672916666576,
          "durationTicks": 94,
          "midi": 46,
          "name": "A#2",
          "ticks": 3936,
          "time": 13.977268999999998,
          "velocity": 0.5905511811023622
        },
        {
          "duration": 0.33380672916666576,
          "durationTicks": 94,
          "midi": 46,
          "name": "A#2",
          "ticks": 4032,
          "time": 14.318177999999998,
          "velocity": 0.5905511811023622
        },
        {
          "duration": 0.33380672916666576,
          "durationTicks": 94,
          "midi": 46,
          "name": "A#2",
          "ticks": 4128,
          "time": 14.659086999999998,
          "velocity": 0.5905511811023622
        },
        {
          "duration": 0.33380672916666576,
          "durationTicks": 94,
          "midi": 46,
          "name": "A#2",
          "ticks": 4224,
          "time": 14.999995999999998,
          "velocity": 0.5905511811023622
        },
        {
          "duration": 0.33380672916666576,
          "durationTicks": 94,
          "midi": 46,
          "name": "A#2",
          "ticks": 4320,
          "time": 15.340904999999998,
          "velocity": 0.5905511811023622
        },
        {
          "duration": 0.33380672916666576,
          "durationTicks": 94,
          "midi": 46,
          "name": "A#2",
          "ticks": 4416,
          "time": 15.681813999999997,
          "velocity": 0.5905511811023622
        },
        {
          "duration": 0.333806729166664,
          "durationTicks": 94,
          "midi": 46,
          "name": "A#2",
          "ticks": 4512,
          "time": 16.022723,
          "velocity": 0.5905511811023622
        },
        {
          "duration": 0.333806729166664,
          "durationTicks": 94,
          "midi": 46,
          "name": "A#2",
          "ticks": 4608,
          "time": 16.363632,
          "velocity": 0.5905511811023622
        },
        {
          "duration": 0.333806729166664,
          "durationTicks": 94,
          "midi": 46,
          "name": "A#2",
          "ticks": 4704,
          "time": 16.704541,
          "velocity": 0.5905511811023622
        },
        {
          "duration": 0.333806729166664,
          "durationTicks": 94,
          "midi": 46,
          "name": "A#2",
          "ticks": 4800,
          "time": 17.04545,
          "velocity": 0.5905511811023622
        },
        {
          "duration": 0.333806729166664,
          "durationTicks": 94,
          "midi": 46,
          "name": "A#2",
          "ticks": 4896,
          "time": 17.386359,
          "velocity": 0.5905511811023622
        },
        {
          "duration": 0.333806729166664,
          "durationTicks": 94,
          "midi": 46,
          "name": "A#2",
          "ticks": 4992,
          "time": 17.727268,
          "velocity": 0.5905511811023622
        },
        {
          "duration": 0.333806729166664,
          "durationTicks": 94,
          "midi": 46,
          "name": "A#2",
          "ticks": 5088,
          "time": 18.068177,
          "velocity": 0.5905511811023622
        },
        {
          "duration": 0.333806729166664,
          "durationTicks": 94,
          "midi": 46,
          "name": "A#2",
          "ticks": 5184,
          "time": 18.409086,
          "velocity": 0.5905511811023622
        },
        {
          "duration": 0.333806729166664,
          "durationTicks": 94,
          "midi": 46,
          "name": "A#2",
          "ticks": 5280,
          "time": 18.749995,
          "velocity": 0.5905511811023622
        },
        {
          "duration": 0.333806729166664,
          "durationTicks": 94,
          "midi": 46,
          "name": "A#2",
          "ticks": 5376,
          "time": 19.090904,
          "velocity": 0.5905511811023622
        },
        {
          "duration": 0.333806729166664,
          "durationTicks": 94,
          "midi": 46,
          "name": "A#2",
          "ticks": 5472,
          "time": 19.431813,
          "velocity": 0.5905511811023622
        },
        {
          "duration": 0.333806729166664,
          "durationTicks": 94,
          "midi": 46,
          "name": "A#2",
          "ticks": 5568,
          "time": 19.772721999999998,
          "velocity": 0.5905511811023622
        },
        {
          "duration": 0.333806729166664,
          "durationTicks": 94,
          "midi": 46,
          "name": "A#2",
          "ticks": 5664,
          "time": 20.113630999999998,
          "velocity": 0.5905511811023622
        },
        {
          "duration": 0.333806729166664,
          "durationTicks": 94,
          "midi": 46,
          "name": "A#2",
          "ticks": 5760,
          "time": 20.454539999999998,
          "velocity": 0.5905511811023622
        },
        {
          "duration": 0.333806729166664,
          "durationTicks": 94,
          "midi": 46,
          "name": "A#2",
          "ticks": 5856,
          "time": 20.795448999999998,
          "velocity": 0.5905511811023622
        },
        {
          "duration": 0.333806729166664,
          "durationTicks": 94,
          "midi": 46,
          "name": "A#2",
          "ticks": 5952,
          "time": 21.136357999999998,
          "velocity": 0.5905511811023622
        },
        {
          "duration": 0.33380672916666754,
          "durationTicks": 94,
          "midi": 46,
          "name": "A#2",
          "ticks": 6048,
          "time": 21.477266999999998,
          "velocity": 0.5905511811023622
        },
        {
          "duration": 0.33380672916666754,
          "durationTicks": 94,
          "midi": 46,
          "name": "A#2",
          "ticks": 6144,
          "time": 21.818175999999998,
          "velocity": 0.5905511811023622
        },
        {
          "duration": 0.33380672916666754,
          "durationTicks": 94,
          "midi": 46,
          "name": "A#2",
          "ticks": 6240,
          "time": 22.159084999999997,
          "velocity": 0.5905511811023622
        },
        {
          "duration": 0.33380672916666754,
          "durationTicks": 94,
          "midi": 46,
          "name": "A#2",
          "ticks": 6336,
          "time": 22.499993999999997,
          "velocity": 0.5905511811023622
        },
        {
          "duration": 0.33380672916666754,
          "durationTicks": 94,
          "midi": 46,
          "name": "A#2",
          "ticks": 6432,
          "time": 22.840902999999997,
          "velocity": 0.5905511811023622
        },
        {
          "duration": 0.33380672916666754,
          "durationTicks": 94,
          "midi": 46,
          "name": "A#2",
          "ticks": 6528,
          "time": 23.181811999999997,
          "velocity": 0.5905511811023622
        },
        {
          "duration": 0.33380672916666754,
          "durationTicks": 94,
          "midi": 46,
          "name": "A#2",
          "ticks": 6624,
          "time": 23.522720999999997,
          "velocity": 0.5905511811023622
        },
        {
          "duration": 0.33380672916666754,
          "durationTicks": 94,
          "midi": 46,
          "name": "A#2",
          "ticks": 6720,
          "time": 23.863629999999997,
          "velocity": 0.5905511811023622
        },
        {
          "duration": 0.33380672916666754,
          "durationTicks": 94,
          "midi": 46,
          "name": "A#2",
          "ticks": 6816,
          "time": 24.204538999999997,
          "velocity": 0.5905511811023622
        },
        {
          "duration": 0.33380672916666754,
          "durationTicks": 94,
          "midi": 46,
          "name": "A#2",
          "ticks": 6912,
          "time": 24.545447999999997,
          "velocity": 0.5905511811023622
        },
        {
          "duration": 0.33380672916666754,
          "durationTicks": 94,
          "midi": 49,
          "name": "C#3",
          "ticks": 6912,
          "time": 24.545447999999997,
          "velocity": 0.5905511811023622
        },
        {
          "duration": 0.33380672916666754,
          "durationTicks": 94,
          "midi": 46,
          "name": "A#2",
          "ticks": 7008,
          "time": 24.886356999999997,
          "velocity": 0.5905511811023622
        },
        {
          "duration": 0.33380672916666754,
          "durationTicks": 94,
          "midi": 46,
          "name": "A#2",
          "ticks": 7104,
          "time": 25.227265999999997,
          "velocity": 0.5905511811023622
        },
        {
          "duration": 0.33380672916666754,
          "durationTicks": 94,
          "midi": 46,
          "name": "A#2",
          "ticks": 7200,
          "time": 25.568174999999997,
          "velocity": 0.5905511811023622
        },
        {
          "duration": 0.33380672916666754,
          "durationTicks": 94,
          "midi": 46,
          "name": "A#2",
          "ticks": 7296,
          "time": 25.909083999999996,
          "velocity": 0.5905511811023622
        },
        {
          "duration": 0.33380672916666754,
          "durationTicks": 94,
          "midi": 46,
          "name": "A#2",
          "ticks": 7392,
          "time": 26.249992999999996,
          "velocity": 0.5905511811023622
        },
        {
          "duration": 0.33380672916666754,
          "durationTicks": 94,
          "midi": 46,
          "name": "A#2",
          "ticks": 7488,
          "time": 26.590901999999996,
          "velocity": 0.5905511811023622
        },
        {
          "duration": 0.33380672916666754,
          "durationTicks": 94,
          "midi": 46,
          "name": "A#2",
          "ticks": 7584,
          "time": 26.931810999999996,
          "velocity": 0.5905511811023622
        },
        {
          "duration": 0.33380672916666754,
          "durationTicks": 94,
          "midi": 46,
          "name": "A#2",
          "ticks": 7680,
          "time": 27.272719999999996,
          "velocity": 0.5905511811023622
        },
        {
          "duration": 0.33380672916666754,
          "durationTicks": 94,
          "midi": 46,
          "name": "A#2",
          "ticks": 7776,
          "time": 27.613628999999996,
          "velocity": 0.5905511811023622
        },
        {
          "duration": 0.33380672916666754,
          "durationTicks": 94,
          "midi": 46,
          "name": "A#2",
          "ticks": 7872,
          "time": 27.954537999999996,
          "velocity": 0.5905511811023622
        },
        {
          "duration": 0.33380672916666754,
          "durationTicks": 94,
          "midi": 46,
          "name": "A#2",
          "ticks": 7968,
          "time": 28.295446999999996,
          "velocity": 0.5905511811023622
        },
        {
          "duration": 0.3338067291666711,
          "durationTicks": 94,
          "midi": 46,
          "name": "A#2",
          "ticks": 8064,
          "time": 28.636355999999996,
          "velocity": 0.5905511811023622
        },
        {
          "duration": 0.3338067291666711,
          "durationTicks": 94,
          "midi": 46,
          "name": "A#2",
          "ticks": 8160,
          "time": 28.977264999999996,
          "velocity": 0.5905511811023622
        },
        {
          "duration": 0.3338067291666711,
          "durationTicks": 94,
          "midi": 46,
          "name": "A#2",
          "ticks": 8256,
          "time": 29.318173999999996,
          "velocity": 0.5905511811023622
        },
        {
          "duration": 0.3338067291666711,
          "durationTicks": 94,
          "midi": 46,
          "name": "A#2",
          "ticks": 8352,
          "time": 29.659082999999995,
          "velocity": 0.5905511811023622
        },
        {
          "duration": 0.3338067291666711,
          "durationTicks": 94,
          "midi": 46,
          "name": "A#2",
          "ticks": 8448,
          "time": 29.999991999999995,
          "velocity": 0.5905511811023622
        },
        {
          "duration": 0.3338067291666711,
          "durationTicks": 94,
          "midi": 49,
          "name": "C#3",
          "ticks": 8448,
          "time": 29.999991999999995,
          "velocity": 0.5905511811023622
        },
        {
          "duration": 0.3338067291666711,
          "durationTicks": 94,
          "midi": 46,
          "name": "A#2",
          "ticks": 8544,
          "time": 30.340900999999995,
          "velocity": 0.5905511811023622
        },
        {
          "duration": 0.3338067291666711,
          "durationTicks": 94,
          "midi": 46,
          "name": "A#2",
          "ticks": 8640,
          "time": 30.681809999999995,
          "velocity": 0.5905511811023622
        },
        {
          "duration": 0.3338067291666711,
          "durationTicks": 94,
          "midi": 46,
          "name": "A#2",
          "ticks": 8736,
          "time": 31.022718999999995,
          "velocity": 0.5905511811023622
        },
        {
          "duration": 0.3338067291666711,
          "durationTicks": 94,
          "midi": 46,
          "name": "A#2",
          "ticks": 8832,
          "time": 31.363627999999995,
          "velocity": 0.5905511811023622
        },
        {
          "duration": 0.33380672916666754,
          "durationTicks": 94,
          "midi": 46,
          "name": "A#2",
          "ticks": 8928,
          "time": 31.704536999999995,
          "velocity": 0.5905511811023622
        },
        {
          "duration": 0.33380672916666754,
          "durationTicks": 94,
          "midi": 46,
          "name": "A#2",
          "ticks": 9024,
          "time": 32.045446,
          "velocity": 0.5905511811023622
        },
        {
          "duration": 0.33380672916666754,
          "durationTicks": 94,
          "midi": 46,
          "name": "A#2",
          "ticks": 9120,
          "time": 32.386354999999995,
          "velocity": 0.5905511811023622
        },
        {
          "duration": 0.33380672916666754,
          "durationTicks": 94,
          "midi": 46,
          "name": "A#2",
          "ticks": 9216,
          "time": 32.727264,
          "velocity": 0.5905511811023622
        },
        {
          "duration": 0.33380672916666754,
          "durationTicks": 94,
          "midi": 46,
          "name": "A#2",
          "ticks": 9312,
          "time": 33.068172999999994,
          "velocity": 0.5905511811023622
        },
        {
          "duration": 0.33380672916666754,
          "durationTicks": 94,
          "midi": 46,
          "name": "A#2",
          "ticks": 9408,
          "time": 33.409082,
          "velocity": 0.5905511811023622
        },
        {
          "duration": 0.33380672916666754,
          "durationTicks": 94,
          "midi": 46,
          "name": "A#2",
          "ticks": 9504,
          "time": 33.749990999999994,
          "velocity": 0.5905511811023622
        },
        {
          "duration": 0.33380672916666754,
          "durationTicks": 94,
          "midi": 46,
          "name": "A#2",
          "ticks": 9600,
          "time": 34.0909,
          "velocity": 0.5905511811023622
        },
        {
          "duration": 0.33380672916666754,
          "durationTicks": 94,
          "midi": 46,
          "name": "A#2",
          "ticks": 9696,
          "time": 34.431808999999994,
          "velocity": 0.5905511811023622
        },
        {
          "duration": 0.33380672916666754,
          "durationTicks": 94,
          "midi": 46,
          "name": "A#2",
          "ticks": 9792,
          "time": 34.772718,
          "velocity": 0.5905511811023622
        },
        {
          "duration": 0.33380672916666754,
          "durationTicks": 94,
          "midi": 46,
          "name": "A#2",
          "ticks": 9888,
          "time": 35.113626999999994,
          "velocity": 0.5905511811023622
        },
        {
          "duration": 0.5681816666666677,
          "durationTicks": 160,
          "midi": 49,
          "name": "C#3",
          "ticks": 9984,
          "time": 35.454536,
          "velocity": 0.5905511811023622
        },
        {
          "duration": 0.33380672916667464,
          "durationTicks": 94,
          "midi": 46,
          "name": "A#2",
          "ticks": 11424,
          "time": 40.56817099999999,
          "velocity": 0.5905511811023622
        },
        {
          "duration": 0.33380672916666043,
          "durationTicks": 94,
          "midi": 46,
          "name": "A#2",
          "ticks": 12960,
          "time": 46.022715,
          "velocity": 0.5905511811023622
        },
        {
          "duration": 0.33380672916666043,
          "durationTicks": 94,
          "midi": 46,
          "name": "A#2",
          "ticks": 14496,
          "time": 51.477259,
          "velocity": 0.5905511811023622
        },
        {
          "duration": 0.33380672916666043,
          "durationTicks": 94,
          "midi": 46,
          "name": "A#2",
          "ticks": 16032,
          "time": 56.931802999999995,
          "velocity": 0.5905511811023622
        },
        {
          "duration": 0.33380672916666043,
          "durationTicks": 94,
          "midi": 46,
          "name": "A#2",
          "ticks": 17568,
          "time": 62.386346999999994,
          "velocity": 0.5905511811023622
        },
        {
          "duration": 0.3338067291666533,
          "durationTicks": 94,
          "midi": 46,
          "name": "A#2",
          "ticks": 19104,
          "time": 67.840891,
          "velocity": 0.5905511811023622
        },
        {
          "duration": 0.3338067291666533,
          "durationTicks": 94,
          "midi": 46,
          "name": "A#2",
          "ticks": 20640,
          "time": 73.295435,
          "velocity": 0.5905511811023622
        },
        {
          "duration": 0.3338067291666533,
          "durationTicks": 94,
          "midi": 46,
          "name": "A#2",
          "ticks": 22176,
          "time": 78.749979,
          "velocity": 0.5905511811023622
        },
        {
          "duration": 0.3338067291666533,
          "durationTicks": 94,
          "midi": 46,
          "name": "A#2",
          "ticks": 23712,
          "time": 84.204523,
          "velocity": 0.5905511811023622
        },
        {
          "duration": 0.33380672916666754,
          "durationTicks": 94,
          "midi": 46,
          "name": "A#2",
          "ticks": 23808,
          "time": 84.54543199999999,
          "velocity": 0.5905511811023622
        },
        {
          "duration": 0.33380672916666754,
          "durationTicks": 94,
          "midi": 46,
          "name": "A#2",
          "ticks": 23904,
          "time": 84.88634099999999,
          "velocity": 0.5905511811023622
        },
        {
          "duration": 0.33380672916666754,
          "durationTicks": 94,
          "midi": 46,
          "name": "A#2",
          "ticks": 24000,
          "time": 85.22724999999998,
          "velocity": 0.5905511811023622
        },
        {
          "duration": 0.3338067291666533,
          "durationTicks": 94,
          "midi": 46,
          "name": "A#2",
          "ticks": 24096,
          "time": 85.568159,
          "velocity": 0.5905511811023622
        },
        {
          "duration": 0.33380672916666754,
          "durationTicks": 94,
          "midi": 46,
          "name": "A#2",
          "ticks": 24192,
          "time": 85.90906799999999,
          "velocity": 0.5905511811023622
        },
        {
          "duration": 0.33380672916666754,
          "durationTicks": 94,
          "midi": 46,
          "name": "A#2",
          "ticks": 24288,
          "time": 86.24997699999999,
          "velocity": 0.5905511811023622
        },
        {
          "duration": 0.33380672916666754,
          "durationTicks": 94,
          "midi": 46,
          "name": "A#2",
          "ticks": 24384,
          "time": 86.59088599999998,
          "velocity": 0.5905511811023622
        },
        {
          "duration": 0.3338067291666533,
          "durationTicks": 94,
          "midi": 46,
          "name": "A#2",
          "ticks": 24480,
          "time": 86.931795,
          "velocity": 0.5905511811023622
        },
        {
          "duration": 0.33380672916666754,
          "durationTicks": 94,
          "midi": 46,
          "name": "A#2",
          "ticks": 24576,
          "time": 87.27270399999999,
          "velocity": 0.5905511811023622
        },
        {
          "duration": 0.33380672916668175,
          "durationTicks": 94,
          "midi": 46,
          "name": "A#2",
          "ticks": 24672,
          "time": 87.61361299999999,
          "velocity": 0.5905511811023622
        },
        {
          "duration": 0.33380672916666754,
          "durationTicks": 94,
          "midi": 46,
          "name": "A#2",
          "ticks": 24768,
          "time": 87.954522,
          "velocity": 0.5905511811023622
        },
        {
          "duration": 0.33380672916666754,
          "durationTicks": 94,
          "midi": 46,
          "name": "A#2",
          "ticks": 24864,
          "time": 88.295431,
          "velocity": 0.5905511811023622
        },
        {
          "duration": 0.33380672916666754,
          "durationTicks": 94,
          "midi": 46,
          "name": "A#2",
          "ticks": 24960,
          "time": 88.63633999999999,
          "velocity": 0.5905511811023622
        },
        {
          "duration": 0.33380672916668175,
          "durationTicks": 94,
          "midi": 46,
          "name": "A#2",
          "ticks": 25056,
          "time": 88.97724899999999,
          "velocity": 0.5905511811023622
        },
        {
          "duration": 0.33380672916666754,
          "durationTicks": 94,
          "midi": 46,
          "name": "A#2",
          "ticks": 25152,
          "time": 89.318158,
          "velocity": 0.5905511811023622
        },
        {
          "duration": 0.33380672916666754,
          "durationTicks": 94,
          "midi": 46,
          "name": "A#2",
          "ticks": 25248,
          "time": 89.659067,
          "velocity": 0.5905511811023622
        },
        {
          "duration": 0.33380672916666754,
          "durationTicks": 94,
          "midi": 51,
          "name": "D#3",
          "ticks": 25344,
          "time": 89.99997599999999,
          "velocity": 0.5905511811023622
        },
        {
          "duration": 0.33380672916666754,
          "durationTicks": 94,
          "midi": 55,
          "name": "G3",
          "ticks": 25344,
          "time": 89.99997599999999,
          "velocity": 0.5905511811023622
        },
        {
          "duration": 0.33380672916668175,
          "durationTicks": 94,
          "midi": 51,
          "name": "D#3",
          "ticks": 25440,
          "time": 90.34088499999999,
          "velocity": 0.5905511811023622
        },
        {
          "duration": 0.33380672916666754,
          "durationTicks": 94,
          "midi": 51,
          "name": "D#3",
          "ticks": 25536,
          "time": 90.681794,
          "velocity": 0.5905511811023622
        },
        {
          "duration": 0.33380672916666754,
          "durationTicks": 94,
          "midi": 51,
          "name": "D#3",
          "ticks": 25632,
          "time": 91.02270299999999,
          "velocity": 0.5905511811023622
        },
        {
          "duration": 0.33380672916666754,
          "durationTicks": 94,
          "midi": 51,
          "name": "D#3",
          "ticks": 25728,
          "time": 91.36361199999999,
          "velocity": 0.5905511811023622
        },
        {
          "duration": 0.33380672916668175,
          "durationTicks": 94,
          "midi": 51,
          "name": "D#3",
          "ticks": 25824,
          "time": 91.70452099999999,
          "velocity": 0.5905511811023622
        },
        {
          "duration": 0.33380672916666754,
          "durationTicks": 94,
          "midi": 51,
          "name": "D#3",
          "ticks": 25920,
          "time": 92.04543,
          "velocity": 0.5905511811023622
        },
        {
          "duration": 0.33380672916666754,
          "durationTicks": 94,
          "midi": 51,
          "name": "D#3",
          "ticks": 26016,
          "time": 92.38633899999999,
          "velocity": 0.5905511811023622
        },
        {
          "duration": 0.33380672916666754,
          "durationTicks": 94,
          "midi": 51,
          "name": "D#3",
          "ticks": 26112,
          "time": 92.72724799999999,
          "velocity": 0.5905511811023622
        },
        {
          "duration": 0.33380672916668175,
          "durationTicks": 94,
          "midi": 51,
          "name": "D#3",
          "ticks": 26208,
          "time": 93.06815699999999,
          "velocity": 0.5905511811023622
        },
        {
          "duration": 0.33380672916666754,
          "durationTicks": 94,
          "midi": 51,
          "name": "D#3",
          "ticks": 26304,
          "time": 93.409066,
          "velocity": 0.5905511811023622
        },
        {
          "duration": 0.33380672916666754,
          "durationTicks": 94,
          "midi": 51,
          "name": "D#3",
          "ticks": 26400,
          "time": 93.74997499999999,
          "velocity": 0.5905511811023622
        },
        {
          "duration": 0.33380672916666754,
          "durationTicks": 94,
          "midi": 51,
          "name": "D#3",
          "ticks": 26496,
          "time": 94.09088399999999,
          "velocity": 0.5905511811023622
        },
        {
          "duration": 0.33380672916668175,
          "durationTicks": 94,
          "midi": 51,
          "name": "D#3",
          "ticks": 26592,
          "time": 94.43179299999998,
          "velocity": 0.5905511811023622
        },
        {
          "duration": 0.33380672916666754,
          "durationTicks": 94,
          "midi": 51,
          "name": "D#3",
          "ticks": 26688,
          "time": 94.772702,
          "velocity": 0.5905511811023622
        },
        {
          "duration": 0.33380672916666754,
          "durationTicks": 94,
          "midi": 51,
          "name": "D#3",
          "ticks": 26784,
          "time": 95.11361099999999,
          "velocity": 0.5905511811023622
        },
        {
          "duration": 0.33380672916666754,
          "durationTicks": 94,
          "midi": 49,
          "name": "C#3",
          "ticks": 26880,
          "time": 95.45451999999999,
          "velocity": 0.5905511811023622
        },
        {
          "duration": 0.33380672916666754,
          "durationTicks": 94,
          "midi": 51,
          "name": "D#3",
          "ticks": 26880,
          "time": 95.45451999999999,
          "velocity": 0.5905511811023622
        },
        {
          "duration": 0.33380672916668175,
          "durationTicks": 94,
          "midi": 51,
          "name": "D#3",
          "ticks": 26976,
          "time": 95.79542899999998,
          "velocity": 0.5905511811023622
        },
        {
          "duration": 0.33380672916666754,
          "durationTicks": 94,
          "midi": 51,
          "name": "D#3",
          "ticks": 27072,
          "time": 96.136338,
          "velocity": 0.5905511811023622
        },
        {
          "duration": 0.33380672916666754,
          "durationTicks": 94,
          "midi": 51,
          "name": "D#3",
          "ticks": 27168,
          "time": 96.47724699999999,
          "velocity": 0.5905511811023622
        },
        {
          "duration": 0.33380672916668175,
          "durationTicks": 94,
          "midi": 51,
          "name": "D#3",
          "ticks": 27264,
          "time": 96.81815599999999,
          "velocity": 0.5905511811023622
        },
        {
          "duration": 0.33380672916668175,
          "durationTicks": 94,
          "midi": 51,
          "name": "D#3",
          "ticks": 27360,
          "time": 97.15906499999998,
          "velocity": 0.5905511811023622
        },
        {
          "duration": 0.33380672916666754,
          "durationTicks": 94,
          "midi": 51,
          "name": "D#3",
          "ticks": 27456,
          "time": 97.499974,
          "velocity": 0.5905511811023622
        },
        {
          "duration": 0.33380672916666754,
          "durationTicks": 94,
          "midi": 51,
          "name": "D#3",
          "ticks": 27552,
          "time": 97.84088299999999,
          "velocity": 0.5905511811023622
        },
        {
          "duration": 0.33380672916668175,
          "durationTicks": 94,
          "midi": 51,
          "name": "D#3",
          "ticks": 27648,
          "time": 98.18179199999999,
          "velocity": 0.5905511811023622
        },
        {
          "duration": 0.33380672916668175,
          "durationTicks": 94,
          "midi": 51,
          "name": "D#3",
          "ticks": 27744,
          "time": 98.52270099999998,
          "velocity": 0.5905511811023622
        },
        {
          "duration": 0.33380672916666754,
          "durationTicks": 94,
          "midi": 51,
          "name": "D#3",
          "ticks": 27840,
          "time": 98.86361,
          "velocity": 0.5905511811023622
        },
        {
          "duration": 0.33380672916666754,
          "durationTicks": 94,
          "midi": 51,
          "name": "D#3",
          "ticks": 27936,
          "time": 99.20451899999999,
          "velocity": 0.5905511811023622
        },
        {
          "duration": 0.33380672916668175,
          "durationTicks": 94,
          "midi": 51,
          "name": "D#3",
          "ticks": 28032,
          "time": 99.54542799999999,
          "velocity": 0.5905511811023622
        },
        {
          "duration": 0.33380672916668175,
          "durationTicks": 94,
          "midi": 51,
          "name": "D#3",
          "ticks": 28128,
          "time": 99.88633699999998,
          "velocity": 0.5905511811023622
        },
        {
          "duration": 0.33380672916666754,
          "durationTicks": 94,
          "midi": 51,
          "name": "D#3",
          "ticks": 28224,
          "time": 100.227246,
          "velocity": 0.5905511811023622
        },
        {
          "duration": 0.33380672916666754,
          "durationTicks": 94,
          "midi": 51,
          "name": "D#3",
          "ticks": 28320,
          "time": 100.56815499999999,
          "velocity": 0.5905511811023622
        },
        {
          "duration": 0.33380672916668175,
          "durationTicks": 94,
          "midi": 49,
          "name": "C#3",
          "ticks": 28416,
          "time": 100.90906399999999,
          "velocity": 0.5905511811023622
        },
        {
          "duration": 0.33380672916668175,
          "durationTicks": 94,
          "midi": 51,
          "name": "D#3",
          "ticks": 28416,
          "time": 100.90906399999999,
          "velocity": 0.5905511811023622
        },
        {
          "duration": 0.33380672916668175,
          "durationTicks": 94,
          "midi": 51,
          "name": "D#3",
          "ticks": 28512,
          "time": 101.24997299999998,
          "velocity": 0.5905511811023622
        },
        {
          "duration": 0.33380672916666754,
          "durationTicks": 94,
          "midi": 51,
          "name": "D#3",
          "ticks": 28608,
          "time": 101.590882,
          "velocity": 0.5905511811023622
        },
        {
          "duration": 0.33380672916666754,
          "durationTicks": 94,
          "midi": 51,
          "name": "D#3",
          "ticks": 28704,
          "time": 101.93179099999999,
          "velocity": 0.5905511811023622
        },
        {
          "duration": 0.33380672916668175,
          "durationTicks": 94,
          "midi": 51,
          "name": "D#3",
          "ticks": 28800,
          "time": 102.27269999999999,
          "velocity": 0.5905511811023622
        },
        {
          "duration": 0.33380672916668175,
          "durationTicks": 94,
          "midi": 51,
          "name": "D#3",
          "ticks": 28896,
          "time": 102.61360899999998,
          "velocity": 0.5905511811023622
        },
        {
          "duration": 0.33380672916666754,
          "durationTicks": 94,
          "midi": 51,
          "name": "D#3",
          "ticks": 28992,
          "time": 102.954518,
          "velocity": 0.5905511811023622
        },
        {
          "duration": 0.33380672916666754,
          "durationTicks": 94,
          "midi": 51,
          "name": "D#3",
          "ticks": 29088,
          "time": 103.29542699999999,
          "velocity": 0.5905511811023622
        },
        {
          "duration": 0.33380672916668175,
          "durationTicks": 94,
          "midi": 51,
          "name": "D#3",
          "ticks": 29184,
          "time": 103.63633599999999,
          "velocity": 0.5905511811023622
        },
        {
          "duration": 0.33380672916668175,
          "durationTicks": 94,
          "midi": 51,
          "name": "D#3",
          "ticks": 29280,
          "time": 103.97724499999998,
          "velocity": 0.5905511811023622
        },
        {
          "duration": 0.33380672916666754,
          "durationTicks": 94,
          "midi": 51,
          "name": "D#3",
          "ticks": 29376,
          "time": 104.31815399999999,
          "velocity": 0.5905511811023622
        },
        {
          "duration": 0.33380672916666754,
          "durationTicks": 94,
          "midi": 51,
          "name": "D#3",
          "ticks": 29472,
          "time": 104.65906299999999,
          "velocity": 0.5905511811023622
        },
        {
          "duration": 0.33380672916668175,
          "durationTicks": 94,
          "midi": 51,
          "name": "D#3",
          "ticks": 29568,
          "time": 104.99997199999999,
          "velocity": 0.5905511811023622
        },
        {
          "duration": 0.33380672916668175,
          "durationTicks": 94,
          "midi": 51,
          "name": "D#3",
          "ticks": 29664,
          "time": 105.34088099999998,
          "velocity": 0.5905511811023622
        },
        {
          "duration": 0.33380672916666754,
          "durationTicks": 94,
          "midi": 51,
          "name": "D#3",
          "ticks": 29760,
          "time": 105.68178999999999,
          "velocity": 0.5905511811023622
        },
        {
          "duration": 0.33380672916666754,
          "durationTicks": 94,
          "midi": 51,
          "name": "D#3",
          "ticks": 29856,
          "time": 106.02269899999999,
          "velocity": 0.5905511811023622
        },
        {
          "duration": 0.5681816666666748,
          "durationTicks": 160,
          "midi": 49,
          "name": "C#3",
          "ticks": 29952,
          "time": 106.36360799999999,
          "velocity": 0.5905511811023622
        },
        {
          "duration": 0.33380672916668175,
          "durationTicks": 94,
          "midi": 46,
          "name": "A#2",
          "ticks": 31488,
          "time": 111.81815199999998,
          "velocity": 0.5905511811023622
        },
        {
          "duration": 0.33380672916668175,
          "durationTicks": 94,
          "midi": 49,
          "name": "C#3",
          "ticks": 31488,
          "time": 111.81815199999998,
          "velocity": 0.5905511811023622
        },
        {
          "duration": 0.33380672916666754,
          "durationTicks": 94,
          "midi": 46,
          "name": "A#2",
          "ticks": 31584,
          "time": 112.159061,
          "velocity": 0.5905511811023622
        },
        {
          "duration": 0.33380672916666754,
          "durationTicks": 94,
          "midi": 46,
          "name": "A#2",
          "ticks": 31680,
          "time": 112.49996999999999,
          "velocity": 0.5905511811023622
        },
        {
          "duration": 0.33380672916666754,
          "durationTicks": 94,
          "midi": 46,
          "name": "A#2",
          "ticks": 31776,
          "time": 112.84087899999999,
          "velocity": 0.5905511811023622
        },
        {
          "duration": 0.33380672916668175,
          "durationTicks": 94,
          "midi": 46,
          "name": "A#2",
          "ticks": 31872,
          "time": 113.18178799999998,
          "velocity": 0.5905511811023622
        },
        {
          "duration": 0.33380672916666754,
          "durationTicks": 94,
          "midi": 46,
          "name": "A#2",
          "ticks": 31968,
          "time": 113.522697,
          "velocity": 0.5905511811023622
        },
        {
          "duration": 0.33380672916666754,
          "durationTicks": 94,
          "midi": 46,
          "name": "A#2",
          "ticks": 32064,
          "time": 113.86360599999999,
          "velocity": 0.5905511811023622
        },
        {
          "duration": 0.33380672916666754,
          "durationTicks": 94,
          "midi": 46,
          "name": "A#2",
          "ticks": 32160,
          "time": 114.20451499999999,
          "velocity": 0.5905511811023622
        },
        {
          "duration": 0.33380672916668175,
          "durationTicks": 94,
          "midi": 46,
          "name": "A#2",
          "ticks": 32256,
          "time": 114.54542399999998,
          "velocity": 0.5905511811023622
        },
        {
          "duration": 0.33380672916666754,
          "durationTicks": 94,
          "midi": 46,
          "name": "A#2",
          "ticks": 32352,
          "time": 114.886333,
          "velocity": 0.5905511811023622
        },
        {
          "duration": 0.33380672916666754,
          "durationTicks": 94,
          "midi": 46,
          "name": "A#2",
          "ticks": 32448,
          "time": 115.22724199999999,
          "velocity": 0.5905511811023622
        },
        {
          "duration": 0.33380672916666754,
          "durationTicks": 94,
          "midi": 46,
          "name": "A#2",
          "ticks": 32544,
          "time": 115.56815099999999,
          "velocity": 0.5905511811023622
        },
        {
          "duration": 0.33380672916668175,
          "durationTicks": 94,
          "midi": 46,
          "name": "A#2",
          "ticks": 32640,
          "time": 115.90905999999998,
          "velocity": 0.5905511811023622
        },
        {
          "duration": 0.33380672916666754,
          "durationTicks": 94,
          "midi": 46,
          "name": "A#2",
          "ticks": 32736,
          "time": 116.249969,
          "velocity": 0.5905511811023622
        },
        {
          "duration": 0.33380672916666754,
          "durationTicks": 94,
          "midi": 46,
          "name": "A#2",
          "ticks": 32832,
          "time": 116.59087799999999,
          "velocity": 0.5905511811023622
        },
        {
          "duration": 0.33380672916666754,
          "durationTicks": 94,
          "midi": 46,
          "name": "A#2",
          "ticks": 32928,
          "time": 116.93178699999999,
          "velocity": 0.5905511811023622
        },
        {
          "duration": 0.33380672916668175,
          "durationTicks": 94,
          "midi": 46,
          "name": "A#2",
          "ticks": 33024,
          "time": 117.27269599999998,
          "velocity": 0.5905511811023622
        },
        {
          "duration": 0.33380672916668175,
          "durationTicks": 94,
          "midi": 49,
          "name": "C#3",
          "ticks": 33024,
          "time": 117.27269599999998,
          "velocity": 0.5905511811023622
        },
        {
          "duration": 0.33380672916666754,
          "durationTicks": 94,
          "midi": 46,
          "name": "A#2",
          "ticks": 33120,
          "time": 117.61360499999999,
          "velocity": 0.5905511811023622
        },
        {
          "duration": 0.33380672916666754,
          "durationTicks": 94,
          "midi": 46,
          "name": "A#2",
          "ticks": 33216,
          "time": 117.95451399999999,
          "velocity": 0.5905511811023622
        },
        {
          "duration": 0.33380672916666754,
          "durationTicks": 94,
          "midi": 46,
          "name": "A#2",
          "ticks": 33312,
          "time": 118.29542299999999,
          "velocity": 0.5905511811023622
        },
        {
          "duration": 0.33380672916668175,
          "durationTicks": 94,
          "midi": 46,
          "name": "A#2",
          "ticks": 33408,
          "time": 118.63633199999998,
          "velocity": 0.5905511811023622
        },
        {
          "duration": 0.33380672916666754,
          "durationTicks": 94,
          "midi": 46,
          "name": "A#2",
          "ticks": 33504,
          "time": 118.97724099999999,
          "velocity": 0.5905511811023622
        },
        {
          "duration": 0.33380672916666754,
          "durationTicks": 94,
          "midi": 46,
          "name": "A#2",
          "ticks": 33600,
          "time": 119.31814999999999,
          "velocity": 0.5905511811023622
        },
        {
          "duration": 0.33380672916668175,
          "durationTicks": 94,
          "midi": 46,
          "name": "A#2",
          "ticks": 33696,
          "time": 119.65905899999998,
          "velocity": 0.5905511811023622
        },
        {
          "duration": 0.33380672916668175,
          "durationTicks": 94,
          "midi": 46,
          "name": "A#2",
          "ticks": 33792,
          "time": 119.99996799999998,
          "velocity": 0.5905511811023622
        },
        {
          "duration": 0.33380672916666754,
          "durationTicks": 94,
          "midi": 46,
          "name": "A#2",
          "ticks": 33888,
          "time": 120.34087699999999,
          "velocity": 0.5905511811023622
        },
        {
          "duration": 0.33380672916666754,
          "durationTicks": 94,
          "midi": 46,
          "name": "A#2",
          "ticks": 33984,
          "time": 120.68178599999999,
          "velocity": 0.5905511811023622
        },
        {
          "duration": 0.33380672916668175,
          "durationTicks": 94,
          "midi": 46,
          "name": "A#2",
          "ticks": 34080,
          "time": 121.02269499999998,
          "velocity": 0.5905511811023622
        },
        {
          "duration": 0.33380672916668175,
          "durationTicks": 94,
          "midi": 46,
          "name": "A#2",
          "ticks": 34176,
          "time": 121.36360399999998,
          "velocity": 0.5905511811023622
        },
        {
          "duration": 0.33380672916666754,
          "durationTicks": 94,
          "midi": 46,
          "name": "A#2",
          "ticks": 34272,
          "time": 121.70451299999999,
          "velocity": 0.5905511811023622
        },
        {
          "duration": 0.33380672916666754,
          "durationTicks": 94,
          "midi": 46,
          "name": "A#2",
          "ticks": 34368,
          "time": 122.04542199999999,
          "velocity": 0.5905511811023622
        },
        {
          "duration": 0.33380672916668175,
          "durationTicks": 94,
          "midi": 46,
          "name": "A#2",
          "ticks": 34464,
          "time": 122.38633099999998,
          "velocity": 0.5905511811023622
        },
        {
          "duration": 0.33380672916668175,
          "durationTicks": 94,
          "midi": 46,
          "name": "A#2",
          "ticks": 34560,
          "time": 122.72723999999998,
          "velocity": 0.5905511811023622
        },
        {
          "duration": 0.33380672916668175,
          "durationTicks": 94,
          "midi": 49,
          "name": "C#3",
          "ticks": 34560,
          "time": 122.72723999999998,
          "velocity": 0.5905511811023622
        },
        {
          "duration": 0.33380672916666754,
          "durationTicks": 94,
          "midi": 46,
          "name": "A#2",
          "ticks": 34656,
          "time": 123.06814899999999,
          "velocity": 0.5905511811023622
        },
        {
          "duration": 0.33380672916666754,
          "durationTicks": 94,
          "midi": 46,
          "name": "A#2",
          "ticks": 34752,
          "time": 123.40905799999999,
          "velocity": 0.5905511811023622
        },
        {
          "duration": 0.33380672916668175,
          "durationTicks": 94,
          "midi": 46,
          "name": "A#2",
          "ticks": 34848,
          "time": 123.74996699999998,
          "velocity": 0.5905511811023622
        },
        {
          "duration": 0.33380672916668175,
          "durationTicks": 94,
          "midi": 46,
          "name": "A#2",
          "ticks": 34944,
          "time": 124.09087599999998,
          "velocity": 0.5905511811023622
        },
        {
          "duration": 0.33380672916666754,
          "durationTicks": 94,
          "midi": 46,
          "name": "A#2",
          "ticks": 35040,
          "time": 124.43178499999999,
          "velocity": 0.5905511811023622
        },
        {
          "duration": 0.33380672916666754,
          "durationTicks": 94,
          "midi": 46,
          "name": "A#2",
          "ticks": 35136,
          "time": 124.77269399999999,
          "velocity": 0.5905511811023622
        },
        {
          "duration": 0.33380672916668175,
          "durationTicks": 94,
          "midi": 46,
          "name": "A#2",
          "ticks": 35232,
          "time": 125.11360299999998,
          "velocity": 0.5905511811023622
        },
        {
          "duration": 0.33380672916668175,
          "durationTicks": 94,
          "midi": 46,
          "name": "A#2",
          "ticks": 35328,
          "time": 125.45451199999998,
          "velocity": 0.5905511811023622
        },
        {
          "duration": 0.33380672916666754,
          "durationTicks": 94,
          "midi": 46,
          "name": "A#2",
          "ticks": 35424,
          "time": 125.79542099999999,
          "velocity": 0.5905511811023622
        },
        {
          "duration": 0.33380672916666754,
          "durationTicks": 94,
          "midi": 46,
          "name": "A#2",
          "ticks": 35520,
          "time": 126.13632999999999,
          "velocity": 0.5905511811023622
        },
        {
          "duration": 0.33380672916668175,
          "durationTicks": 94,
          "midi": 46,
          "name": "A#2",
          "ticks": 35616,
          "time": 126.47723899999998,
          "velocity": 0.5905511811023622
        },
        {
          "duration": 0.33380672916668175,
          "durationTicks": 94,
          "midi": 46,
          "name": "A#2",
          "ticks": 35712,
          "time": 126.81814799999998,
          "velocity": 0.5905511811023622
        },
        {
          "duration": 0.33380672916666754,
          "durationTicks": 94,
          "midi": 46,
          "name": "A#2",
          "ticks": 35808,
          "time": 127.15905699999999,
          "velocity": 0.5905511811023622
        },
        {
          "duration": 0.33380672916666754,
          "durationTicks": 94,
          "midi": 46,
          "name": "A#2",
          "ticks": 35904,
          "time": 127.49996599999999,
          "velocity": 0.5905511811023622
        },
        {
          "duration": 0.33380672916666754,
          "durationTicks": 94,
          "midi": 46,
          "name": "A#2",
          "ticks": 36000,
          "time": 127.84087499999998,
          "velocity": 0.5905511811023622
        },
        {
          "duration": 0.33380672916666754,
          "durationTicks": 94,
          "midi": 46,
          "name": "A#2",
          "ticks": 36096,
          "time": 128.181784,
          "velocity": 0.5905511811023622
        },
        {
          "duration": 0.33380672916666754,
          "durationTicks": 94,
          "midi": 49,
          "name": "C#3",
          "ticks": 36096,
          "time": 128.181784,
          "velocity": 0.5905511811023622
        },
        {
          "duration": 0.33380672916669596,
          "durationTicks": 94,
          "midi": 46,
          "name": "A#2",
          "ticks": 36192,
          "time": 128.52269299999998,
          "velocity": 0.5905511811023622
        },
        {
          "duration": 0.33380672916666754,
          "durationTicks": 94,
          "midi": 46,
          "name": "A#2",
          "ticks": 36288,
          "time": 128.863602,
          "velocity": 0.5905511811023622
        },
        {
          "duration": 0.33380672916666754,
          "durationTicks": 94,
          "midi": 46,
          "name": "A#2",
          "ticks": 36384,
          "time": 129.204511,
          "velocity": 0.5905511811023622
        },
        {
          "duration": 0.33380672916666754,
          "durationTicks": 94,
          "midi": 46,
          "name": "A#2",
          "ticks": 36480,
          "time": 129.54541999999998,
          "velocity": 0.5905511811023622
        },
        {
          "duration": 0.33380672916666754,
          "durationTicks": 94,
          "midi": 46,
          "name": "A#2",
          "ticks": 36576,
          "time": 129.886329,
          "velocity": 0.5905511811023622
        },
        {
          "duration": 0.33380672916669596,
          "durationTicks": 94,
          "midi": 46,
          "name": "A#2",
          "ticks": 36672,
          "time": 130.22723799999997,
          "velocity": 0.5905511811023622
        },
        {
          "duration": 0.33380672916666754,
          "durationTicks": 94,
          "midi": 46,
          "name": "A#2",
          "ticks": 36768,
          "time": 130.56814699999998,
          "velocity": 0.5905511811023622
        },
        {
          "duration": 0.33380672916666754,
          "durationTicks": 94,
          "midi": 46,
          "name": "A#2",
          "ticks": 36864,
          "time": 130.909056,
          "velocity": 0.5905511811023622
        },
        {
          "duration": 0.33380672916669596,
          "durationTicks": 94,
          "midi": 46,
          "name": "A#2",
          "ticks": 36960,
          "time": 131.24996499999997,
          "velocity": 0.5905511811023622
        },
        {
          "duration": 0.33380672916666754,
          "durationTicks": 94,
          "midi": 46,
          "name": "A#2",
          "ticks": 37056,
          "time": 131.59087399999999,
          "velocity": 0.5905511811023622
        },
        {
          "duration": 0.33380672916666754,
          "durationTicks": 94,
          "midi": 46,
          "name": "A#2",
          "ticks": 37152,
          "time": 131.931783,
          "velocity": 0.5905511811023622
        },
        {
          "duration": 0.33380672916666754,
          "durationTicks": 94,
          "midi": 46,
          "name": "A#2",
          "ticks": 37248,
          "time": 132.27269199999998,
          "velocity": 0.5905511811023622
        },
        {
          "duration": 0.33380672916666754,
          "durationTicks": 94,
          "midi": 46,
          "name": "A#2",
          "ticks": 37344,
          "time": 132.613601,
          "velocity": 0.5905511811023622
        },
        {
          "duration": 0.33380672916666754,
          "durationTicks": 94,
          "midi": 46,
          "name": "A#2",
          "ticks": 37440,
          "time": 132.95451,
          "velocity": 0.5905511811023622
        },
        {
          "duration": 0.33380672916666754,
          "durationTicks": 94,
          "midi": 46,
          "name": "A#2",
          "ticks": 37536,
          "time": 133.29541899999998,
          "velocity": 0.5905511811023622
        },
        {
          "duration": 0.5681816666666748,
          "durationTicks": 160,
          "midi": 49,
          "name": "C#3",
          "ticks": 37632,
          "time": 133.636328,
          "velocity": 0.5905511811023622
        },
        {
          "duration": 0.33380672916666754,
          "durationTicks": 94,
          "midi": 46,
          "name": "A#2",
          "ticks": 39072,
          "time": 138.74996299999998,
          "velocity": 0.5905511811023622
        },
        {
          "duration": 0.33380672916666754,
          "durationTicks": 94,
          "midi": 46,
          "name": "A#2",
          "ticks": 40608,
          "time": 144.20450699999998,
          "velocity": 0.5905511811023622
        },
        {
          "duration": 0.33380672916666754,
          "durationTicks": 94,
          "midi": 46,
          "name": "A#2",
          "ticks": 42144,
          "time": 149.65905099999998,
          "velocity": 0.5905511811023622
        },
        {
          "duration": 0.33380672916666754,
          "durationTicks": 94,
          "midi": 46,
          "name": "A#2",
          "ticks": 43680,
          "time": 155.11359499999998,
          "velocity": 0.5905511811023622
        },
        {
          "duration": 0.33380672916666754,
          "durationTicks": 94,
          "midi": 46,
          "name": "A#2",
          "ticks": 45216,
          "time": 160.56813899999997,
          "velocity": 0.5905511811023622
        },
        {
          "duration": 0.33380672916669596,
          "durationTicks": 94,
          "midi": 46,
          "name": "A#2",
          "ticks": 46752,
          "time": 166.02268299999997,
          "velocity": 0.5905511811023622
        },
        {
          "duration": 0.33380672916666754,
          "durationTicks": 94,
          "midi": 46,
          "name": "A#2",
          "ticks": 46848,
          "time": 166.36359199999998,
          "velocity": 0.5905511811023622
        },
        {
          "duration": 0.33380672916666754,
          "durationTicks": 94,
          "midi": 46,
          "name": "A#2",
          "ticks": 46944,
          "time": 166.704501,
          "velocity": 0.5905511811023622
        },
        {
          "duration": 0.33380672916666754,
          "durationTicks": 94,
          "midi": 46,
          "name": "A#2",
          "ticks": 47040,
          "time": 167.04540999999998,
          "velocity": 0.5905511811023622
        },
        {
          "duration": 0.33380672916666754,
          "durationTicks": 94,
          "midi": 46,
          "name": "A#2",
          "ticks": 47136,
          "time": 167.386319,
          "velocity": 0.5905511811023622
        },
        {
          "duration": 0.33380672916669596,
          "durationTicks": 94,
          "midi": 46,
          "name": "A#2",
          "ticks": 47232,
          "time": 167.72722799999997,
          "velocity": 0.5905511811023622
        },
        {
          "duration": 0.33380672916666754,
          "durationTicks": 94,
          "midi": 46,
          "name": "A#2",
          "ticks": 47328,
          "time": 168.06813699999998,
          "velocity": 0.5905511811023622
        },
        {
          "duration": 0.33380672916666754,
          "durationTicks": 94,
          "midi": 46,
          "name": "A#2",
          "ticks": 47424,
          "time": 168.409046,
          "velocity": 0.5905511811023622
        },
        {
          "duration": 0.33380672916669596,
          "durationTicks": 94,
          "midi": 46,
          "name": "A#2",
          "ticks": 47520,
          "time": 168.74995499999997,
          "velocity": 0.5905511811023622
        },
        {
          "duration": 0.33380672916666754,
          "durationTicks": 94,
          "midi": 46,
          "name": "A#2",
          "ticks": 47616,
          "time": 169.09086399999998,
          "velocity": 0.5905511811023622
        },
        {
          "duration": 0.33380672916666754,
          "durationTicks": 94,
          "midi": 46,
          "name": "A#2",
          "ticks": 47712,
          "time": 169.431773,
          "velocity": 0.5905511811023622
        },
        {
          "duration": 0.33380672916666754,
          "durationTicks": 94,
          "midi": 46,
          "name": "A#2",
          "ticks": 47808,
          "time": 169.77268199999997,
          "velocity": 0.5905511811023622
        },
        {
          "duration": 0.33380672916666754,
          "durationTicks": 94,
          "midi": 46,
          "name": "A#2",
          "ticks": 47904,
          "time": 170.11359099999999,
          "velocity": 0.5905511811023622
        },
        {
          "duration": 0.33380672916669596,
          "durationTicks": 94,
          "midi": 46,
          "name": "A#2",
          "ticks": 48000,
          "time": 170.45449999999997,
          "velocity": 0.5905511811023622
        },
        {
          "duration": 0.33380672916666754,
          "durationTicks": 94,
          "midi": 46,
          "name": "A#2",
          "ticks": 48096,
          "time": 170.79540899999998,
          "velocity": 0.5905511811023622
        },
        {
          "duration": 0.33380672916666754,
          "durationTicks": 94,
          "midi": 46,
          "name": "A#2",
          "ticks": 48192,
          "time": 171.136318,
          "velocity": 0.5905511811023622
        },
        {
          "duration": 0.33380672916669596,
          "durationTicks": 94,
          "midi": 46,
          "name": "A#2",
          "ticks": 48288,
          "time": 171.47722699999997,
          "velocity": 0.5905511811023622
        },
        {
          "duration": 0.33380672916666754,
          "durationTicks": 94,
          "midi": 51,
          "name": "D#3",
          "ticks": 48384,
          "time": 171.81813599999998,
          "velocity": 0.5905511811023622
        },
        {
          "duration": 0.33380672916666754,
          "durationTicks": 94,
          "midi": 54,
          "name": "F#3",
          "ticks": 48384,
          "time": 171.81813599999998,
          "velocity": 0.5905511811023622
        },
        {
          "duration": 0.33380672916666754,
          "durationTicks": 94,
          "midi": 55,
          "name": "G3",
          "ticks": 48384,
          "time": 171.81813599999998,
          "velocity": 0.5905511811023622
        },
        {
          "duration": 0.16335222916666226,
          "durationTicks": 46,
          "midi": 51,
          "name": "D#3",
          "ticks": 48480,
          "time": 172.159045,
          "velocity": 0.5905511811023622
        },
        {
          "duration": 0.16335222916666226,
          "durationTicks": 46,
          "midi": 54,
          "name": "F#3",
          "ticks": 48480,
          "time": 172.159045,
          "velocity": 0.5905511811023622
        },
        {
          "duration": 0.16335222916669068,
          "durationTicks": 46,
          "midi": 54,
          "name": "F#3",
          "ticks": 48528,
          "time": 172.32949949999997,
          "velocity": 0.5905511811023622
        },
        {
          "duration": 0.33380672916666754,
          "durationTicks": 94,
          "midi": 51,
          "name": "D#3",
          "ticks": 48576,
          "time": 172.49995399999997,
          "velocity": 0.5905511811023622
        },
        {
          "duration": 0.33380672916666754,
          "durationTicks": 94,
          "midi": 54,
          "name": "F#3",
          "ticks": 48576,
          "time": 172.49995399999997,
          "velocity": 0.5905511811023622
        },
        {
          "duration": 0.16335222916666226,
          "durationTicks": 46,
          "midi": 51,
          "name": "D#3",
          "ticks": 48672,
          "time": 172.84086299999998,
          "velocity": 0.5905511811023622
        },
        {
          "duration": 0.16335222916666226,
          "durationTicks": 46,
          "midi": 54,
          "name": "F#3",
          "ticks": 48672,
          "time": 172.84086299999998,
          "velocity": 0.5905511811023622
        },
        {
          "duration": 0.16335222916666226,
          "durationTicks": 46,
          "midi": 54,
          "name": "F#3",
          "ticks": 48720,
          "time": 173.0113175,
          "velocity": 0.5905511811023622
        },
        {
          "duration": 0.33380672916669596,
          "durationTicks": 94,
          "midi": 51,
          "name": "D#3",
          "ticks": 48768,
          "time": 173.18177199999997,
          "velocity": 0.5905511811023622
        },
        {
          "duration": 0.33380672916669596,
          "durationTicks": 94,
          "midi": 54,
          "name": "F#3",
          "ticks": 48768,
          "time": 173.18177199999997,
          "velocity": 0.5905511811023622
        },
        {
          "duration": 0.16335222916669068,
          "durationTicks": 46,
          "midi": 51,
          "name": "D#3",
          "ticks": 48864,
          "time": 173.52268099999998,
          "velocity": 0.5905511811023622
        },
        {
          "duration": 0.16335222916669068,
          "durationTicks": 46,
          "midi": 54,
          "name": "F#3",
          "ticks": 48864,
          "time": 173.52268099999998,
          "velocity": 0.5905511811023622
        },
        {
          "duration": 0.16335222916666226,
          "durationTicks": 46,
          "midi": 54,
          "name": "F#3",
          "ticks": 48912,
          "time": 173.69313549999998,
          "velocity": 0.5905511811023622
        },
        {
          "duration": 0.33380672916666754,
          "durationTicks": 94,
          "midi": 51,
          "name": "D#3",
          "ticks": 48960,
          "time": 173.86359,
          "velocity": 0.5905511811023622
        },
        {
          "duration": 0.33380672916666754,
          "durationTicks": 94,
          "midi": 54,
          "name": "F#3",
          "ticks": 48960,
          "time": 173.86359,
          "velocity": 0.5905511811023622
        },
        {
          "duration": 0.16335222916669068,
          "durationTicks": 46,
          "midi": 51,
          "name": "D#3",
          "ticks": 49056,
          "time": 174.20449899999997,
          "velocity": 0.5905511811023622
        },
        {
          "duration": 0.16335222916669068,
          "durationTicks": 46,
          "midi": 54,
          "name": "F#3",
          "ticks": 49056,
          "time": 174.20449899999997,
          "velocity": 0.5905511811023622
        },
        {
          "duration": 0.16335222916669068,
          "durationTicks": 46,
          "midi": 54,
          "name": "F#3",
          "ticks": 49104,
          "time": 174.37495349999998,
          "velocity": 0.5905511811023622
        },
        {
          "duration": 0.33380672916666754,
          "durationTicks": 94,
          "midi": 51,
          "name": "D#3",
          "ticks": 49152,
          "time": 174.54540799999998,
          "velocity": 0.5905511811023622
        },
        {
          "duration": 0.33380672916666754,
          "durationTicks": 94,
          "midi": 54,
          "name": "F#3",
          "ticks": 49152,
          "time": 174.54540799999998,
          "velocity": 0.5905511811023622
        },
        {
          "duration": 0.16335222916663383,
          "durationTicks": 46,
          "midi": 51,
          "name": "D#3",
          "ticks": 49248,
          "time": 174.886317,
          "velocity": 0.5905511811023622
        },
        {
          "duration": 0.16335222916663383,
          "durationTicks": 46,
          "midi": 54,
          "name": "F#3",
          "ticks": 49248,
          "time": 174.886317,
          "velocity": 0.5905511811023622
        },
        {
          "duration": 0.16335222916666226,
          "durationTicks": 46,
          "midi": 54,
          "name": "F#3",
          "ticks": 49296,
          "time": 175.05677149999997,
          "velocity": 0.5905511811023622
        },
        {
          "duration": 0.33380672916666754,
          "durationTicks": 94,
          "midi": 51,
          "name": "D#3",
          "ticks": 49344,
          "time": 175.22722599999997,
          "velocity": 0.5905511811023622
        },
        {
          "duration": 0.33380672916666754,
          "durationTicks": 94,
          "midi": 54,
          "name": "F#3",
          "ticks": 49344,
          "time": 175.22722599999997,
          "velocity": 0.5905511811023622
        },
        {
          "duration": 0.16335222916666226,
          "durationTicks": 46,
          "midi": 51,
          "name": "D#3",
          "ticks": 49440,
          "time": 175.56813499999998,
          "velocity": 0.5905511811023622
        },
        {
          "duration": 0.16335222916666226,
          "durationTicks": 46,
          "midi": 54,
          "name": "F#3",
          "ticks": 49440,
          "time": 175.56813499999998,
          "velocity": 0.5905511811023622
        },
        {
          "duration": 0.16335222916663383,
          "durationTicks": 46,
          "midi": 54,
          "name": "F#3",
          "ticks": 49488,
          "time": 175.7385895,
          "velocity": 0.5905511811023622
        },
        {
          "duration": 0.3338067291666391,
          "durationTicks": 94,
          "midi": 51,
          "name": "D#3",
          "ticks": 49536,
          "time": 175.909044,
          "velocity": 0.5905511811023622
        },
        {
          "duration": 0.3338067291666391,
          "durationTicks": 94,
          "midi": 54,
          "name": "F#3",
          "ticks": 49536,
          "time": 175.909044,
          "velocity": 0.5905511811023622
        },
        {
          "duration": 0.16335222916666226,
          "durationTicks": 46,
          "midi": 51,
          "name": "D#3",
          "ticks": 49632,
          "time": 176.24995299999998,
          "velocity": 0.5905511811023622
        },
        {
          "duration": 0.16335222916666226,
          "durationTicks": 46,
          "midi": 54,
          "name": "F#3",
          "ticks": 49632,
          "time": 176.24995299999998,
          "velocity": 0.5905511811023622
        },
        {
          "duration": 0.16335222916666226,
          "durationTicks": 46,
          "midi": 54,
          "name": "F#3",
          "ticks": 49680,
          "time": 176.42040749999998,
          "velocity": 0.5905511811023622
        },
        {
          "duration": 0.3338067291666391,
          "durationTicks": 94,
          "midi": 51,
          "name": "D#3",
          "ticks": 49728,
          "time": 176.590862,
          "velocity": 0.5905511811023622
        },
        {
          "duration": 0.3338067291666391,
          "durationTicks": 94,
          "midi": 54,
          "name": "F#3",
          "ticks": 49728,
          "time": 176.590862,
          "velocity": 0.5905511811023622
        },
        {
          "duration": 0.16335222916666226,
          "durationTicks": 46,
          "midi": 51,
          "name": "D#3",
          "ticks": 49824,
          "time": 176.93177099999997,
          "velocity": 0.5905511811023622
        },
        {
          "duration": 0.16335222916666226,
          "durationTicks": 46,
          "midi": 54,
          "name": "F#3",
          "ticks": 49824,
          "time": 176.93177099999997,
          "velocity": 0.5905511811023622
        },
        {
          "duration": 0.16335222916666226,
          "durationTicks": 46,
          "midi": 54,
          "name": "F#3",
          "ticks": 49872,
          "time": 177.10222549999997,
          "velocity": 0.5905511811023622
        },
        {
          "duration": 0.33380672916666754,
          "durationTicks": 94,
          "midi": 49,
          "name": "C#3",
          "ticks": 49920,
          "time": 177.27267999999998,
          "velocity": 0.5905511811023622
        },
        {
          "duration": 0.33380672916666754,
          "durationTicks": 94,
          "midi": 51,
          "name": "D#3",
          "ticks": 49920,
          "time": 177.27267999999998,
          "velocity": 0.5905511811023622
        },
        {
          "duration": 0.33380672916666754,
          "durationTicks": 94,
          "midi": 54,
          "name": "F#3",
          "ticks": 49920,
          "time": 177.27267999999998,
          "velocity": 0.5905511811023622
        },
        {
          "duration": 0.16335222916663383,
          "durationTicks": 46,
          "midi": 51,
          "name": "D#3",
          "ticks": 50016,
          "time": 177.613589,
          "velocity": 0.5905511811023622
        },
        {
          "duration": 0.16335222916663383,
          "durationTicks": 46,
          "midi": 54,
          "name": "F#3",
          "ticks": 50016,
          "time": 177.613589,
          "velocity": 0.5905511811023622
        },
        {
          "duration": 0.16335222916666226,
          "durationTicks": 46,
          "midi": 54,
          "name": "F#3",
          "ticks": 50064,
          "time": 177.78404349999997,
          "velocity": 0.5905511811023622
        },
        {
          "duration": 0.33380672916666754,
          "durationTicks": 94,
          "midi": 51,
          "name": "D#3",
          "ticks": 50112,
          "time": 177.95449799999997,
          "velocity": 0.5905511811023622
        },
        {
          "duration": 0.33380672916666754,
          "durationTicks": 94,
          "midi": 54,
          "name": "F#3",
          "ticks": 50112,
          "time": 177.95449799999997,
          "velocity": 0.5905511811023622
        },
        {
          "duration": 0.16335222916666226,
          "durationTicks": 46,
          "midi": 51,
          "name": "D#3",
          "ticks": 50208,
          "time": 178.29540699999998,
          "velocity": 0.5905511811023622
        },
        {
          "duration": 0.16335222916666226,
          "durationTicks": 46,
          "midi": 54,
          "name": "F#3",
          "ticks": 50208,
          "time": 178.29540699999998,
          "velocity": 0.5905511811023622
        },
        {
          "duration": 0.16335222916663383,
          "durationTicks": 46,
          "midi": 54,
          "name": "F#3",
          "ticks": 50256,
          "time": 178.4658615,
          "velocity": 0.5905511811023622
        },
        {
          "duration": 0.3338067291666391,
          "durationTicks": 94,
          "midi": 51,
          "name": "D#3",
          "ticks": 50304,
          "time": 178.636316,
          "velocity": 0.5905511811023622
        },
        {
          "duration": 0.3338067291666391,
          "durationTicks": 94,
          "midi": 54,
          "name": "F#3",
          "ticks": 50304,
          "time": 178.636316,
          "velocity": 0.5905511811023622
        },
        {
          "duration": 0.16335222916666226,
          "durationTicks": 46,
          "midi": 51,
          "name": "D#3",
          "ticks": 50400,
          "time": 178.97722499999998,
          "velocity": 0.5905511811023622
        },
        {
          "duration": 0.16335222916666226,
          "durationTicks": 46,
          "midi": 54,
          "name": "F#3",
          "ticks": 50400,
          "time": 178.97722499999998,
          "velocity": 0.5905511811023622
        },
        {
          "duration": 0.16335222916666226,
          "durationTicks": 46,
          "midi": 54,
          "name": "F#3",
          "ticks": 50448,
          "time": 179.14767949999998,
          "velocity": 0.5905511811023622
        },
        {
          "duration": 0.3338067291666391,
          "durationTicks": 94,
          "midi": 51,
          "name": "D#3",
          "ticks": 50496,
          "time": 179.318134,
          "velocity": 0.5905511811023622
        },
        {
          "duration": 0.3338067291666391,
          "durationTicks": 94,
          "midi": 54,
          "name": "F#3",
          "ticks": 50496,
          "time": 179.318134,
          "velocity": 0.5905511811023622
        },
        {
          "duration": 0.16335222916666226,
          "durationTicks": 46,
          "midi": 51,
          "name": "D#3",
          "ticks": 50592,
          "time": 179.65904299999997,
          "velocity": 0.5905511811023622
        },
        {
          "duration": 0.16335222916666226,
          "durationTicks": 46,
          "midi": 54,
          "name": "F#3",
          "ticks": 50592,
          "time": 179.65904299999997,
          "velocity": 0.5905511811023622
        },
        {
          "duration": 0.16335222916666226,
          "durationTicks": 46,
          "midi": 54,
          "name": "F#3",
          "ticks": 50640,
          "time": 179.82949749999997,
          "velocity": 0.5905511811023622
        },
        {
          "duration": 0.33380672916666754,
          "durationTicks": 94,
          "midi": 51,
          "name": "D#3",
          "ticks": 50688,
          "time": 179.99995199999998,
          "velocity": 0.5905511811023622
        },
        {
          "duration": 0.33380672916666754,
          "durationTicks": 94,
          "midi": 54,
          "name": "F#3",
          "ticks": 50688,
          "time": 179.99995199999998,
          "velocity": 0.5905511811023622
        },
        {
          "duration": 0.16335222916663383,
          "durationTicks": 46,
          "midi": 51,
          "name": "D#3",
          "ticks": 50784,
          "time": 180.340861,
          "velocity": 0.5905511811023622
        },
        {
          "duration": 0.16335222916663383,
          "durationTicks": 46,
          "midi": 54,
          "name": "F#3",
          "ticks": 50784,
          "time": 180.340861,
          "velocity": 0.5905511811023622
        },
        {
          "duration": 0.16335222916666226,
          "durationTicks": 46,
          "midi": 54,
          "name": "F#3",
          "ticks": 50832,
          "time": 180.51131549999997,
          "velocity": 0.5905511811023622
        },
        {
          "duration": 0.33380672916666754,
          "durationTicks": 94,
          "midi": 51,
          "name": "D#3",
          "ticks": 50880,
          "time": 180.68176999999997,
          "velocity": 0.5905511811023622
        },
        {
          "duration": 0.33380672916666754,
          "durationTicks": 94,
          "midi": 54,
          "name": "F#3",
          "ticks": 50880,
          "time": 180.68176999999997,
          "velocity": 0.5905511811023622
        },
        {
          "duration": 0.16335222916666226,
          "durationTicks": 46,
          "midi": 51,
          "name": "D#3",
          "ticks": 50976,
          "time": 181.02267899999998,
          "velocity": 0.5905511811023622
        },
        {
          "duration": 0.16335222916666226,
          "durationTicks": 46,
          "midi": 54,
          "name": "F#3",
          "ticks": 50976,
          "time": 181.02267899999998,
          "velocity": 0.5905511811023622
        },
        {
          "duration": 0.16335222916663383,
          "durationTicks": 46,
          "midi": 54,
          "name": "F#3",
          "ticks": 51024,
          "time": 181.1931335,
          "velocity": 0.5905511811023622
        },
        {
          "duration": 0.3338067291666391,
          "durationTicks": 94,
          "midi": 51,
          "name": "D#3",
          "ticks": 51072,
          "time": 181.363588,
          "velocity": 0.5905511811023622
        },
        {
          "duration": 0.3338067291666391,
          "durationTicks": 94,
          "midi": 54,
          "name": "F#3",
          "ticks": 51072,
          "time": 181.363588,
          "velocity": 0.5905511811023622
        },
        {
          "duration": 0.16335222916666226,
          "durationTicks": 46,
          "midi": 51,
          "name": "D#3",
          "ticks": 51168,
          "time": 181.70449699999998,
          "velocity": 0.5905511811023622
        },
        {
          "duration": 0.16335222916666226,
          "durationTicks": 46,
          "midi": 54,
          "name": "F#3",
          "ticks": 51168,
          "time": 181.70449699999998,
          "velocity": 0.5905511811023622
        },
        {
          "duration": 0.16335222916666226,
          "durationTicks": 46,
          "midi": 54,
          "name": "F#3",
          "ticks": 51216,
          "time": 181.87495149999998,
          "velocity": 0.5905511811023622
        },
        {
          "duration": 0.3338067291666391,
          "durationTicks": 94,
          "midi": 51,
          "name": "D#3",
          "ticks": 51264,
          "time": 182.04540599999999,
          "velocity": 0.5905511811023622
        },
        {
          "duration": 0.3338067291666391,
          "durationTicks": 94,
          "midi": 54,
          "name": "F#3",
          "ticks": 51264,
          "time": 182.04540599999999,
          "velocity": 0.5905511811023622
        },
        {
          "duration": 0.16335222916666226,
          "durationTicks": 46,
          "midi": 51,
          "name": "D#3",
          "ticks": 51360,
          "time": 182.38631499999997,
          "velocity": 0.5905511811023622
        },
        {
          "duration": 0.16335222916666226,
          "durationTicks": 46,
          "midi": 54,
          "name": "F#3",
          "ticks": 51360,
          "time": 182.38631499999997,
          "velocity": 0.5905511811023622
        },
        {
          "duration": 0.16335222916666226,
          "durationTicks": 46,
          "midi": 54,
          "name": "F#3",
          "ticks": 51408,
          "time": 182.55676949999997,
          "velocity": 0.5905511811023622
        },
        {
          "duration": 0.33380672916666754,
          "durationTicks": 94,
          "midi": 49,
          "name": "C#3",
          "ticks": 51456,
          "time": 182.72722399999998,
          "velocity": 0.5905511811023622
        },
        {
          "duration": 0.33380672916666754,
          "durationTicks": 94,
          "midi": 51,
          "name": "D#3",
          "ticks": 51456,
          "time": 182.72722399999998,
          "velocity": 0.5905511811023622
        },
        {
          "duration": 0.33380672916666754,
          "durationTicks": 94,
          "midi": 54,
          "name": "F#3",
          "ticks": 51456,
          "time": 182.72722399999998,
          "velocity": 0.5905511811023622
        },
        {
          "duration": 0.16335222916663383,
          "durationTicks": 46,
          "midi": 51,
          "name": "D#3",
          "ticks": 51552,
          "time": 183.068133,
          "velocity": 0.5905511811023622
        },
        {
          "duration": 0.16335222916663383,
          "durationTicks": 46,
          "midi": 54,
          "name": "F#3",
          "ticks": 51552,
          "time": 183.068133,
          "velocity": 0.5905511811023622
        },
        {
          "duration": 0.16335222916666226,
          "durationTicks": 46,
          "midi": 54,
          "name": "F#3",
          "ticks": 51600,
          "time": 183.23858749999997,
          "velocity": 0.5905511811023622
        },
        {
          "duration": 0.33380672916666754,
          "durationTicks": 94,
          "midi": 51,
          "name": "D#3",
          "ticks": 51648,
          "time": 183.40904199999997,
          "velocity": 0.5905511811023622
        },
        {
          "duration": 0.33380672916666754,
          "durationTicks": 94,
          "midi": 54,
          "name": "F#3",
          "ticks": 51648,
          "time": 183.40904199999997,
          "velocity": 0.5905511811023622
        },
        {
          "duration": 0.16335222916666226,
          "durationTicks": 46,
          "midi": 51,
          "name": "D#3",
          "ticks": 51744,
          "time": 183.74995099999998,
          "velocity": 0.5905511811023622
        },
        {
          "duration": 0.16335222916666226,
          "durationTicks": 46,
          "midi": 54,
          "name": "F#3",
          "ticks": 51744,
          "time": 183.74995099999998,
          "velocity": 0.5905511811023622
        },
        {
          "duration": 0.16335222916663383,
          "durationTicks": 46,
          "midi": 54,
          "name": "F#3",
          "ticks": 51792,
          "time": 183.9204055,
          "velocity": 0.5905511811023622
        },
        {
          "duration": 0.3338067291666391,
          "durationTicks": 94,
          "midi": 51,
          "name": "D#3",
          "ticks": 51840,
          "time": 184.09086,
          "velocity": 0.5905511811023622
        },
        {
          "duration": 0.3338067291666391,
          "durationTicks": 94,
          "midi": 54,
          "name": "F#3",
          "ticks": 51840,
          "time": 184.09086,
          "velocity": 0.5905511811023622
        },
        {
          "duration": 0.16335222916666226,
          "durationTicks": 46,
          "midi": 51,
          "name": "D#3",
          "ticks": 51936,
          "time": 184.43176899999997,
          "velocity": 0.5905511811023622
        },
        {
          "duration": 0.16335222916666226,
          "durationTicks": 46,
          "midi": 54,
          "name": "F#3",
          "ticks": 51936,
          "time": 184.43176899999997,
          "velocity": 0.5905511811023622
        },
        {
          "duration": 0.16335222916666226,
          "durationTicks": 46,
          "midi": 54,
          "name": "F#3",
          "ticks": 51984,
          "time": 184.60222349999998,
          "velocity": 0.5905511811023622
        },
        {
          "duration": 0.3338067291666391,
          "durationTicks": 94,
          "midi": 51,
          "name": "D#3",
          "ticks": 52032,
          "time": 184.77267799999998,
          "velocity": 0.5905511811023622
        },
        {
          "duration": 0.3338067291666391,
          "durationTicks": 94,
          "midi": 54,
          "name": "F#3",
          "ticks": 52032,
          "time": 184.77267799999998,
          "velocity": 0.5905511811023622
        },
        {
          "duration": 0.16335222916666226,
          "durationTicks": 46,
          "midi": 51,
          "name": "D#3",
          "ticks": 52128,
          "time": 185.11358699999997,
          "velocity": 0.5905511811023622
        },
        {
          "duration": 0.16335222916666226,
          "durationTicks": 46,
          "midi": 54,
          "name": "F#3",
          "ticks": 52128,
          "time": 185.11358699999997,
          "velocity": 0.5905511811023622
        },
        {
          "duration": 0.16335222916666226,
          "durationTicks": 46,
          "midi": 54,
          "name": "F#3",
          "ticks": 52176,
          "time": 185.28404149999997,
          "velocity": 0.5905511811023622
        },
        {
          "duration": 0.33380672916666754,
          "durationTicks": 94,
          "midi": 51,
          "name": "D#3",
          "ticks": 52224,
          "time": 185.45449599999998,
          "velocity": 0.5905511811023622
        },
        {
          "duration": 0.33380672916666754,
          "durationTicks": 94,
          "midi": 54,
          "name": "F#3",
          "ticks": 52224,
          "time": 185.45449599999998,
          "velocity": 0.5905511811023622
        },
        {
          "duration": 0.16335222916663383,
          "durationTicks": 46,
          "midi": 51,
          "name": "D#3",
          "ticks": 52320,
          "time": 185.795405,
          "velocity": 0.5905511811023622
        },
        {
          "duration": 0.16335222916663383,
          "durationTicks": 46,
          "midi": 54,
          "name": "F#3",
          "ticks": 52320,
          "time": 185.795405,
          "velocity": 0.5905511811023622
        },
        {
          "duration": 0.16335222916663383,
          "durationTicks": 46,
          "midi": 54,
          "name": "F#3",
          "ticks": 52368,
          "time": 185.9658595,
          "velocity": 0.5905511811023622
        },
        {
          "duration": 0.33380672916666754,
          "durationTicks": 94,
          "midi": 51,
          "name": "D#3",
          "ticks": 52416,
          "time": 186.13631399999997,
          "velocity": 0.5905511811023622
        },
        {
          "duration": 0.33380672916666754,
          "durationTicks": 94,
          "midi": 54,
          "name": "F#3",
          "ticks": 52416,
          "time": 186.13631399999997,
          "velocity": 0.5905511811023622
        },
        {
          "duration": 0.16335222916666226,
          "durationTicks": 46,
          "midi": 51,
          "name": "D#3",
          "ticks": 52512,
          "time": 186.47722299999998,
          "velocity": 0.5905511811023622
        },
        {
          "duration": 0.16335222916666226,
          "durationTicks": 46,
          "midi": 54,
          "name": "F#3",
          "ticks": 52512,
          "time": 186.47722299999998,
          "velocity": 0.5905511811023622
        },
        {
          "duration": 0.16335222916663383,
          "durationTicks": 46,
          "midi": 54,
          "name": "F#3",
          "ticks": 52560,
          "time": 186.6476775,
          "velocity": 0.5905511811023622
        },
        {
          "duration": 0.3338067291666391,
          "durationTicks": 94,
          "midi": 51,
          "name": "D#3",
          "ticks": 52608,
          "time": 186.818132,
          "velocity": 0.5905511811023622
        },
        {
          "duration": 0.3338067291666391,
          "durationTicks": 94,
          "midi": 54,
          "name": "F#3",
          "ticks": 52608,
          "time": 186.818132,
          "velocity": 0.5905511811023622
        },
        {
          "duration": 0.16335222916666226,
          "durationTicks": 46,
          "midi": 51,
          "name": "D#3",
          "ticks": 52704,
          "time": 187.15904099999997,
          "velocity": 0.5905511811023622
        },
        {
          "duration": 0.16335222916666226,
          "durationTicks": 46,
          "midi": 54,
          "name": "F#3",
          "ticks": 52704,
          "time": 187.15904099999997,
          "velocity": 0.5905511811023622
        },
        {
          "duration": 0.16335222916666226,
          "durationTicks": 46,
          "midi": 54,
          "name": "F#3",
          "ticks": 52752,
          "time": 187.32949549999998,
          "velocity": 0.5905511811023622
        },
        {
          "duration": 0.3338067291666391,
          "durationTicks": 94,
          "midi": 51,
          "name": "D#3",
          "ticks": 52800,
          "time": 187.49994999999998,
          "velocity": 0.5905511811023622
        },
        {
          "duration": 0.3338067291666391,
          "durationTicks": 94,
          "midi": 54,
          "name": "F#3",
          "ticks": 52800,
          "time": 187.49994999999998,
          "velocity": 0.5905511811023622
        },
        {
          "duration": 0.16335222916666226,
          "durationTicks": 46,
          "midi": 51,
          "name": "D#3",
          "ticks": 52896,
          "time": 187.84085899999997,
          "velocity": 0.5905511811023622
        },
        {
          "duration": 0.16335222916666226,
          "durationTicks": 46,
          "midi": 54,
          "name": "F#3",
          "ticks": 52896,
          "time": 187.84085899999997,
          "velocity": 0.5905511811023622
        },
        {
          "duration": 0.16335222916666226,
          "durationTicks": 46,
          "midi": 54,
          "name": "F#3",
          "ticks": 52944,
          "time": 188.01131349999997,
          "velocity": 0.5905511811023622
        },
        {
          "duration": 0.5681816666666464,
          "durationTicks": 160,
          "midi": 49,
          "name": "C#3",
          "ticks": 52992,
          "time": 188.18176799999998,
          "velocity": 0.5905511811023622
        },
        {
          "duration": 0.33380672916666754,
          "durationTicks": 94,
          "midi": 46,
          "name": "A#2",
          "ticks": 54528,
          "time": 193.63631199999998,
          "velocity": 0.5905511811023622
        },
        {
          "duration": 0.33380672916666754,
          "durationTicks": 94,
          "midi": 49,
          "name": "C#3",
          "ticks": 54528,
          "time": 193.63631199999998,
          "velocity": 0.5905511811023622
        },
        {
          "duration": 0.3338067291666391,
          "durationTicks": 94,
          "midi": 46,
          "name": "A#2",
          "ticks": 54624,
          "time": 193.977221,
          "velocity": 0.5905511811023622
        },
        {
          "duration": 0.33380672916666754,
          "durationTicks": 94,
          "midi": 46,
          "name": "A#2",
          "ticks": 54720,
          "time": 194.31812999999997,
          "velocity": 0.5905511811023622
        },
        {
          "duration": 0.33380672916666754,
          "durationTicks": 94,
          "midi": 46,
          "name": "A#2",
          "ticks": 54816,
          "time": 194.65903899999998,
          "velocity": 0.5905511811023622
        },
        {
          "duration": 0.3338067291666391,
          "durationTicks": 94,
          "midi": 46,
          "name": "A#2",
          "ticks": 54912,
          "time": 194.999948,
          "velocity": 0.5905511811023622
        },
        {
          "duration": 0.33380672916666754,
          "durationTicks": 94,
          "midi": 46,
          "name": "A#2",
          "ticks": 55008,
          "time": 195.34085699999997,
          "velocity": 0.5905511811023622
        },
        {
          "duration": 0.3338067291666391,
          "durationTicks": 94,
          "midi": 46,
          "name": "A#2",
          "ticks": 55104,
          "time": 195.68176599999998,
          "velocity": 0.5905511811023622
        },
        {
          "duration": 0.33380672916666754,
          "durationTicks": 94,
          "midi": 46,
          "name": "A#2",
          "ticks": 55200,
          "time": 196.02267499999996,
          "velocity": 0.5905511811023622
        },
        {
          "duration": 0.33380672916666754,
          "durationTicks": 94,
          "midi": 46,
          "name": "A#2",
          "ticks": 55296,
          "time": 196.36358399999997,
          "velocity": 0.5905511811023622
        },
        {
          "duration": 0.3338067291666391,
          "durationTicks": 94,
          "midi": 46,
          "name": "A#2",
          "ticks": 55392,
          "time": 196.70449299999999,
          "velocity": 0.5905511811023622
        },
        {
          "duration": 0.33380672916666754,
          "durationTicks": 94,
          "midi": 46,
          "name": "A#2",
          "ticks": 55488,
          "time": 197.04540199999997,
          "velocity": 0.5905511811023622
        },
        {
          "duration": 0.33380672916666754,
          "durationTicks": 94,
          "midi": 46,
          "name": "A#2",
          "ticks": 55584,
          "time": 197.38631099999998,
          "velocity": 0.5905511811023622
        },
        {
          "duration": 0.3338067291666391,
          "durationTicks": 94,
          "midi": 46,
          "name": "A#2",
          "ticks": 55680,
          "time": 197.72722,
          "velocity": 0.5905511811023622
        },
        {
          "duration": 0.33380672916666754,
          "durationTicks": 94,
          "midi": 46,
          "name": "A#2",
          "ticks": 55776,
          "time": 198.06812899999997,
          "velocity": 0.5905511811023622
        },
        {
          "duration": 0.3338067291666391,
          "durationTicks": 94,
          "midi": 46,
          "name": "A#2",
          "ticks": 55872,
          "time": 198.40903799999998,
          "velocity": 0.5905511811023622
        },
        {
          "duration": 0.3338067291666391,
          "durationTicks": 94,
          "midi": 46,
          "name": "A#2",
          "ticks": 55968,
          "time": 198.749947,
          "velocity": 0.5905511811023622
        },
        {
          "duration": 0.33380672916666754,
          "durationTicks": 94,
          "midi": 46,
          "name": "A#2",
          "ticks": 56064,
          "time": 199.09085599999997,
          "velocity": 0.5905511811023622
        },
        {
          "duration": 0.33380672916666754,
          "durationTicks": 94,
          "midi": 49,
          "name": "C#3",
          "ticks": 56064,
          "time": 199.09085599999997,
          "velocity": 0.5905511811023622
        },
        {
          "duration": 0.3338067291666391,
          "durationTicks": 94,
          "midi": 46,
          "name": "A#2",
          "ticks": 56160,
          "time": 199.43176499999998,
          "velocity": 0.5905511811023622
        },
        {
          "duration": 0.33380672916666754,
          "durationTicks": 94,
          "midi": 46,
          "name": "A#2",
          "ticks": 56256,
          "time": 199.77267399999997,
          "velocity": 0.5905511811023622
        },
        {
          "duration": 0.33380672916666754,
          "durationTicks": 94,
          "midi": 46,
          "name": "A#2",
          "ticks": 56352,
          "time": 200.11358299999998,
          "velocity": 0.5905511811023622
        },
        {
          "duration": 0.3338067291666391,
          "durationTicks": 94,
          "midi": 46,
          "name": "A#2",
          "ticks": 56448,
          "time": 200.454492,
          "velocity": 0.5905511811023622
        },
        {
          "duration": 0.33380672916666754,
          "durationTicks": 94,
          "midi": 46,
          "name": "A#2",
          "ticks": 56544,
          "time": 200.79540099999997,
          "velocity": 0.5905511811023622
        },
        {
          "duration": 0.3338067291666391,
          "durationTicks": 94,
          "midi": 46,
          "name": "A#2",
          "ticks": 56640,
          "time": 201.13630999999998,
          "velocity": 0.5905511811023622
        },
        {
          "duration": 0.3338067291666391,
          "durationTicks": 94,
          "midi": 46,
          "name": "A#2",
          "ticks": 56736,
          "time": 201.477219,
          "velocity": 0.5905511811023622
        },
        {
          "duration": 0.33380672916666754,
          "durationTicks": 94,
          "midi": 46,
          "name": "A#2",
          "ticks": 56832,
          "time": 201.81812799999997,
          "velocity": 0.5905511811023622
        },
        {
          "duration": 0.3338067291666391,
          "durationTicks": 94,
          "midi": 46,
          "name": "A#2",
          "ticks": 56928,
          "time": 202.15903699999998,
          "velocity": 0.5905511811023622
        },
        {
          "duration": 0.33380672916666754,
          "durationTicks": 94,
          "midi": 46,
          "name": "A#2",
          "ticks": 57024,
          "time": 202.49994599999997,
          "velocity": 0.5905511811023622
        },
        {
          "duration": 0.33380672916666754,
          "durationTicks": 94,
          "midi": 46,
          "name": "A#2",
          "ticks": 57120,
          "time": 202.84085499999998,
          "velocity": 0.5905511811023622
        },
        {
          "duration": 0.3338067291666391,
          "durationTicks": 94,
          "midi": 46,
          "name": "A#2",
          "ticks": 57216,
          "time": 203.181764,
          "velocity": 0.5905511811023622
        },
        {
          "duration": 0.33380672916666754,
          "durationTicks": 94,
          "midi": 46,
          "name": "A#2",
          "ticks": 57312,
          "time": 203.52267299999997,
          "velocity": 0.5905511811023622
        },
        {
          "duration": 0.3338067291666391,
          "durationTicks": 94,
          "midi": 46,
          "name": "A#2",
          "ticks": 57408,
          "time": 203.86358199999998,
          "velocity": 0.5905511811023622
        },
        {
          "duration": 0.3338067291666391,
          "durationTicks": 94,
          "midi": 46,
          "name": "A#2",
          "ticks": 57504,
          "time": 204.204491,
          "velocity": 0.5905511811023622
        },
        {
          "duration": 0.33380672916666754,
          "durationTicks": 94,
          "midi": 46,
          "name": "A#2",
          "ticks": 57600,
          "time": 204.54539999999997,
          "velocity": 0.5905511811023622
        },
        {
          "duration": 0.33380672916666754,
          "durationTicks": 94,
          "midi": 49,
          "name": "C#3",
          "ticks": 57600,
          "time": 204.54539999999997,
          "velocity": 0.5905511811023622
        },
        {
          "duration": 0.3338067291666391,
          "durationTicks": 94,
          "midi": 46,
          "name": "A#2",
          "ticks": 57696,
          "time": 204.88630899999998,
          "velocity": 0.5905511811023622
        },
        {
          "duration": 0.33380672916666754,
          "durationTicks": 94,
          "midi": 46,
          "name": "A#2",
          "ticks": 57792,
          "time": 205.22721799999997,
          "velocity": 0.5905511811023622
        },
        {
          "duration": 0.33380672916666754,
          "durationTicks": 94,
          "midi": 46,
          "name": "A#2",
          "ticks": 57888,
          "time": 205.56812699999998,
          "velocity": 0.5905511811023622
        },
        {
          "duration": 0.3338067291666391,
          "durationTicks": 94,
          "midi": 46,
          "name": "A#2",
          "ticks": 57984,
          "time": 205.909036,
          "velocity": 0.5905511811023622
        },
        {
          "duration": 0.33380672916666754,
          "durationTicks": 94,
          "midi": 46,
          "name": "A#2",
          "ticks": 58080,
          "time": 206.24994499999997,
          "velocity": 0.5905511811023622
        },
        {
          "duration": 0.3338067291666391,
          "durationTicks": 94,
          "midi": 46,
          "name": "A#2",
          "ticks": 58176,
          "time": 206.59085399999998,
          "velocity": 0.5905511811023622
        },
        {
          "duration": 0.3338067291666391,
          "durationTicks": 94,
          "midi": 46,
          "name": "A#2",
          "ticks": 58272,
          "time": 206.931763,
          "velocity": 0.5905511811023622
        },
        {
          "duration": 0.33380672916666754,
          "durationTicks": 94,
          "midi": 46,
          "name": "A#2",
          "ticks": 58368,
          "time": 207.27267199999997,
          "velocity": 0.5905511811023622
        },
        {
          "duration": 0.3338067291666391,
          "durationTicks": 94,
          "midi": 46,
          "name": "A#2",
          "ticks": 58464,
          "time": 207.61358099999998,
          "velocity": 0.5905511811023622
        },
        {
          "duration": 0.33380672916666754,
          "durationTicks": 94,
          "midi": 46,
          "name": "A#2",
          "ticks": 58560,
          "time": 207.95448999999996,
          "velocity": 0.5905511811023622
        },
        {
          "duration": 0.33380672916666754,
          "durationTicks": 94,
          "midi": 46,
          "name": "A#2",
          "ticks": 58656,
          "time": 208.29539899999997,
          "velocity": 0.5905511811023622
        },
        {
          "duration": 0.3338067291666391,
          "durationTicks": 94,
          "midi": 46,
          "name": "A#2",
          "ticks": 58752,
          "time": 208.63630799999999,
          "velocity": 0.5905511811023622
        },
        {
          "duration": 0.33380672916666754,
          "durationTicks": 94,
          "midi": 46,
          "name": "A#2",
          "ticks": 58848,
          "time": 208.97721699999997,
          "velocity": 0.5905511811023622
        },
        {
          "duration": 0.3338067291666391,
          "durationTicks": 94,
          "midi": 46,
          "name": "A#2",
          "ticks": 58944,
          "time": 209.31812599999998,
          "velocity": 0.5905511811023622
        },
        {
          "duration": 0.3338067291666391,
          "durationTicks": 94,
          "midi": 46,
          "name": "A#2",
          "ticks": 59040,
          "time": 209.659035,
          "velocity": 0.5905511811023622
        },
        {
          "duration": 0.33380672916666754,
          "durationTicks": 94,
          "midi": 46,
          "name": "A#2",
          "ticks": 59136,
          "time": 209.99994399999997,
          "velocity": 0.5905511811023622
        },
        {
          "duration": 0.33380672916666754,
          "durationTicks": 94,
          "midi": 49,
          "name": "C#3",
          "ticks": 59136,
          "time": 209.99994399999997,
          "velocity": 0.5905511811023622
        },
        {
          "duration": 0.3338067291666391,
          "durationTicks": 94,
          "midi": 46,
          "name": "A#2",
          "ticks": 59232,
          "time": 210.34085299999998,
          "velocity": 0.5905511811023622
        },
        {
          "duration": 0.33380672916666754,
          "durationTicks": 94,
          "midi": 46,
          "name": "A#2",
          "ticks": 59328,
          "time": 210.68176199999996,
          "velocity": 0.5905511811023622
        },
        {
          "duration": 0.33380672916666754,
          "durationTicks": 94,
          "midi": 46,
          "name": "A#2",
          "ticks": 59424,
          "time": 211.02267099999997,
          "velocity": 0.5905511811023622
        },
        {
          "duration": 0.3338067291666391,
          "durationTicks": 94,
          "midi": 46,
          "name": "A#2",
          "ticks": 59520,
          "time": 211.36357999999998,
          "velocity": 0.5905511811023622
        },
        {
          "duration": 0.33380672916666754,
          "durationTicks": 94,
          "midi": 46,
          "name": "A#2",
          "ticks": 59616,
          "time": 211.70448899999997,
          "velocity": 0.5905511811023622
        },
        {
          "duration": 0.3338067291666391,
          "durationTicks": 94,
          "midi": 46,
          "name": "A#2",
          "ticks": 59712,
          "time": 212.04539799999998,
          "velocity": 0.5905511811023622
        },
        {
          "duration": 0.3338067291666391,
          "durationTicks": 94,
          "midi": 46,
          "name": "A#2",
          "ticks": 59808,
          "time": 212.386307,
          "velocity": 0.5905511811023622
        },
        {
          "duration": 0.33380672916666754,
          "durationTicks": 94,
          "midi": 46,
          "name": "A#2",
          "ticks": 59904,
          "time": 212.72721599999997,
          "velocity": 0.5905511811023622
        },
        {
          "duration": 0.3338067291666391,
          "durationTicks": 94,
          "midi": 46,
          "name": "A#2",
          "ticks": 60000,
          "time": 213.06812499999998,
          "velocity": 0.5905511811023622
        },
        {
          "duration": 0.33380672916666754,
          "durationTicks": 94,
          "midi": 46,
          "name": "A#2",
          "ticks": 60096,
          "time": 213.40903399999996,
          "velocity": 0.5905511811023622
        },
        {
          "duration": 0.33380672916666754,
          "durationTicks": 94,
          "midi": 46,
          "name": "A#2",
          "ticks": 60192,
          "time": 213.74994299999997,
          "velocity": 0.5905511811023622
        },
        {
          "duration": 0.3338067291666391,
          "durationTicks": 94,
          "midi": 46,
          "name": "A#2",
          "ticks": 60288,
          "time": 214.09085199999998,
          "velocity": 0.5905511811023622
        },
        {
          "duration": 0.33380672916666754,
          "durationTicks": 94,
          "midi": 46,
          "name": "A#2",
          "ticks": 60384,
          "time": 214.43176099999997,
          "velocity": 0.5905511811023622
        },
        {
          "duration": 0.3338067291666391,
          "durationTicks": 94,
          "midi": 46,
          "name": "A#2",
          "ticks": 60480,
          "time": 214.77266999999998,
          "velocity": 0.5905511811023622
        },
        {
          "duration": 0.3338067291666391,
          "durationTicks": 94,
          "midi": 46,
          "name": "A#2",
          "ticks": 60576,
          "time": 215.113579,
          "velocity": 0.5905511811023622
        },
        {
          "duration": 0.33380672916666754,
          "durationTicks": 94,
          "midi": 46,
          "name": "A#2",
          "ticks": 60672,
          "time": 215.45448799999997,
          "velocity": 0.5905511811023622
        },
        {
          "duration": 0.33380672916666754,
          "durationTicks": 94,
          "midi": 49,
          "name": "C#3",
          "ticks": 60672,
          "time": 215.45448799999997,
          "velocity": 0.5905511811023622
        },
        {
          "duration": 0.33380672916666754,
          "durationTicks": 94,
          "midi": 54,
          "name": "F#3",
          "ticks": 60672,
          "time": 215.45448799999997,
          "velocity": 0.5905511811023622
        },
        {
          "duration": 0.16335222916666226,
          "durationTicks": 46,
          "midi": 46,
          "name": "A#2",
          "ticks": 60768,
          "time": 215.79539699999998,
          "velocity": 0.5905511811023622
        },
        {
          "duration": 0.16335222916666226,
          "durationTicks": 46,
          "midi": 54,
          "name": "F#3",
          "ticks": 60768,
          "time": 215.79539699999998,
          "velocity": 0.5905511811023622
        },
        {
          "duration": 0.16335222916663383,
          "durationTicks": 46,
          "midi": 54,
          "name": "F#3",
          "ticks": 60816,
          "time": 215.96585149999999,
          "velocity": 0.5905511811023622
        },
        {
          "duration": 0.33380672916666754,
          "durationTicks": 94,
          "midi": 46,
          "name": "A#2",
          "ticks": 60864,
          "time": 216.13630599999996,
          "velocity": 0.5905511811023622
        },
        {
          "duration": 0.33380672916666754,
          "durationTicks": 94,
          "midi": 54,
          "name": "F#3",
          "ticks": 60864,
          "time": 216.13630599999996,
          "velocity": 0.5905511811023622
        },
        {
          "duration": 0.16335222916666226,
          "durationTicks": 46,
          "midi": 46,
          "name": "A#2",
          "ticks": 60960,
          "time": 216.47721499999997,
          "velocity": 0.5905511811023622
        },
        {
          "duration": 0.16335222916666226,
          "durationTicks": 46,
          "midi": 54,
          "name": "F#3",
          "ticks": 60960,
          "time": 216.47721499999997,
          "velocity": 0.5905511811023622
        },
        {
          "duration": 0.16335222916666226,
          "durationTicks": 46,
          "midi": 54,
          "name": "F#3",
          "ticks": 61008,
          "time": 216.64766949999998,
          "velocity": 0.5905511811023622
        },
        {
          "duration": 0.3338067291666391,
          "durationTicks": 94,
          "midi": 46,
          "name": "A#2",
          "ticks": 61056,
          "time": 216.81812399999998,
          "velocity": 0.5905511811023622
        },
        {
          "duration": 0.3338067291666391,
          "durationTicks": 94,
          "midi": 54,
          "name": "F#3",
          "ticks": 61056,
          "time": 216.81812399999998,
          "velocity": 0.5905511811023622
        },
        {
          "duration": 0.16335222916666226,
          "durationTicks": 46,
          "midi": 46,
          "name": "A#2",
          "ticks": 61152,
          "time": 217.15903299999997,
          "velocity": 0.5905511811023622
        },
        {
          "duration": 0.16335222916666226,
          "durationTicks": 46,
          "midi": 54,
          "name": "F#3",
          "ticks": 61152,
          "time": 217.15903299999997,
          "velocity": 0.5905511811023622
        },
        {
          "duration": 0.16335222916666226,
          "durationTicks": 46,
          "midi": 54,
          "name": "F#3",
          "ticks": 61200,
          "time": 217.32948749999997,
          "velocity": 0.5905511811023622
        },
        {
          "duration": 0.33380672916666754,
          "durationTicks": 94,
          "midi": 46,
          "name": "A#2",
          "ticks": 61248,
          "time": 217.49994199999998,
          "velocity": 0.5905511811023622
        },
        {
          "duration": 0.33380672916666754,
          "durationTicks": 94,
          "midi": 54,
          "name": "F#3",
          "ticks": 61248,
          "time": 217.49994199999998,
          "velocity": 0.5905511811023622
        },
        {
          "duration": 0.16335222916663383,
          "durationTicks": 46,
          "midi": 46,
          "name": "A#2",
          "ticks": 61344,
          "time": 217.840851,
          "velocity": 0.5905511811023622
        },
        {
          "duration": 0.16335222916663383,
          "durationTicks": 46,
          "midi": 54,
          "name": "F#3",
          "ticks": 61344,
          "time": 217.840851,
          "velocity": 0.5905511811023622
        },
        {
          "duration": 0.16335222916666226,
          "durationTicks": 46,
          "midi": 54,
          "name": "F#3",
          "ticks": 61392,
          "time": 218.01130549999996,
          "velocity": 0.5905511811023622
        },
        {
          "duration": 0.33380672916666754,
          "durationTicks": 94,
          "midi": 46,
          "name": "A#2",
          "ticks": 61440,
          "time": 218.18175999999997,
          "velocity": 0.5905511811023622
        },
        {
          "duration": 0.33380672916666754,
          "durationTicks": 94,
          "midi": 54,
          "name": "F#3",
          "ticks": 61440,
          "time": 218.18175999999997,
          "velocity": 0.5905511811023622
        },
        {
          "duration": 0.16335222916666226,
          "durationTicks": 46,
          "midi": 46,
          "name": "A#2",
          "ticks": 61536,
          "time": 218.52266899999998,
          "velocity": 0.5905511811023622
        },
        {
          "duration": 0.16335222916666226,
          "durationTicks": 46,
          "midi": 54,
          "name": "F#3",
          "ticks": 61536,
          "time": 218.52266899999998,
          "velocity": 0.5905511811023622
        },
        {
          "duration": 0.16335222916663383,
          "durationTicks": 46,
          "midi": 54,
          "name": "F#3",
          "ticks": 61584,
          "time": 218.69312349999998,
          "velocity": 0.5905511811023622
        },
        {
          "duration": 0.3338067291666391,
          "durationTicks": 94,
          "midi": 46,
          "name": "A#2",
          "ticks": 61632,
          "time": 218.863578,
          "velocity": 0.5905511811023622
        },
        {
          "duration": 0.3338067291666391,
          "durationTicks": 94,
          "midi": 54,
          "name": "F#3",
          "ticks": 61632,
          "time": 218.863578,
          "velocity": 0.5905511811023622
        },
        {
          "duration": 0.16335222916666226,
          "durationTicks": 46,
          "midi": 46,
          "name": "A#2",
          "ticks": 61728,
          "time": 219.20448699999997,
          "velocity": 0.5905511811023622
        },
        {
          "duration": 0.16335222916666226,
          "durationTicks": 46,
          "midi": 54,
          "name": "F#3",
          "ticks": 61728,
          "time": 219.20448699999997,
          "velocity": 0.5905511811023622
        },
        {
          "duration": 0.16335222916666226,
          "durationTicks": 46,
          "midi": 54,
          "name": "F#3",
          "ticks": 61776,
          "time": 219.37494149999998,
          "velocity": 0.5905511811023622
        },
        {
          "duration": 0.3338067291666391,
          "durationTicks": 94,
          "midi": 46,
          "name": "A#2",
          "ticks": 61824,
          "time": 219.54539599999998,
          "velocity": 0.5905511811023622
        },
        {
          "duration": 0.3338067291666391,
          "durationTicks": 94,
          "midi": 54,
          "name": "F#3",
          "ticks": 61824,
          "time": 219.54539599999998,
          "velocity": 0.5905511811023622
        },
        {
          "duration": 0.16335222916666226,
          "durationTicks": 46,
          "midi": 46,
          "name": "A#2",
          "ticks": 61920,
          "time": 219.88630499999996,
          "velocity": 0.5905511811023622
        },
        {
          "duration": 0.16335222916666226,
          "durationTicks": 46,
          "midi": 54,
          "name": "F#3",
          "ticks": 61920,
          "time": 219.88630499999996,
          "velocity": 0.5905511811023622
        },
        {
          "duration": 0.16335222916666226,
          "durationTicks": 46,
          "midi": 54,
          "name": "F#3",
          "ticks": 61968,
          "time": 220.05675949999997,
          "velocity": 0.5905511811023622
        },
        {
          "duration": 0.33380672916666754,
          "durationTicks": 94,
          "midi": 46,
          "name": "A#2",
          "ticks": 62016,
          "time": 220.22721399999998,
          "velocity": 0.5905511811023622
        },
        {
          "duration": 0.33380672916666754,
          "durationTicks": 94,
          "midi": 54,
          "name": "F#3",
          "ticks": 62016,
          "time": 220.22721399999998,
          "velocity": 0.5905511811023622
        },
        {
          "duration": 0.16335222916663383,
          "durationTicks": 46,
          "midi": 46,
          "name": "A#2",
          "ticks": 62112,
          "time": 220.56812299999999,
          "velocity": 0.5905511811023622
        },
        {
          "duration": 0.16335222916663383,
          "durationTicks": 46,
          "midi": 54,
          "name": "F#3",
          "ticks": 62112,
          "time": 220.56812299999999,
          "velocity": 0.5905511811023622
        },
        {
          "duration": 0.16335222916666226,
          "durationTicks": 46,
          "midi": 54,
          "name": "F#3",
          "ticks": 62160,
          "time": 220.73857749999996,
          "velocity": 0.5905511811023622
        },
        {
          "duration": 0.33380672916666754,
          "durationTicks": 94,
          "midi": 46,
          "name": "A#2",
          "ticks": 62208,
          "time": 220.90903199999997,
          "velocity": 0.5905511811023622
        },
        {
          "duration": 0.33380672916666754,
          "durationTicks": 94,
          "midi": 49,
          "name": "C#3",
          "ticks": 62208,
          "time": 220.90903199999997,
          "velocity": 0.5905511811023622
        },
        {
          "duration": 0.33380672916666754,
          "durationTicks": 94,
          "midi": 54,
          "name": "F#3",
          "ticks": 62208,
          "time": 220.90903199999997,
          "velocity": 0.5905511811023622
        },
        {
          "duration": 0.16335222916666226,
          "durationTicks": 46,
          "midi": 46,
          "name": "A#2",
          "ticks": 62304,
          "time": 221.24994099999998,
          "velocity": 0.5905511811023622
        },
        {
          "duration": 0.16335222916666226,
          "durationTicks": 46,
          "midi": 54,
          "name": "F#3",
          "ticks": 62304,
          "time": 221.24994099999998,
          "velocity": 0.5905511811023622
        },
        {
          "duration": 0.16335222916663383,
          "durationTicks": 46,
          "midi": 54,
          "name": "F#3",
          "ticks": 62352,
          "time": 221.42039549999998,
          "velocity": 0.5905511811023622
        },
        {
          "duration": 0.3338067291666391,
          "durationTicks": 94,
          "midi": 46,
          "name": "A#2",
          "ticks": 62400,
          "time": 221.59085,
          "velocity": 0.5905511811023622
        },
        {
          "duration": 0.3338067291666391,
          "durationTicks": 94,
          "midi": 54,
          "name": "F#3",
          "ticks": 62400,
          "time": 221.59085,
          "velocity": 0.5905511811023622
        },
        {
          "duration": 0.16335222916666226,
          "durationTicks": 46,
          "midi": 46,
          "name": "A#2",
          "ticks": 62496,
          "time": 221.93175899999997,
          "velocity": 0.5905511811023622
        },
        {
          "duration": 0.16335222916666226,
          "durationTicks": 46,
          "midi": 54,
          "name": "F#3",
          "ticks": 62496,
          "time": 221.93175899999997,
          "velocity": 0.5905511811023622
        },
        {
          "duration": 0.16335222916666226,
          "durationTicks": 46,
          "midi": 54,
          "name": "F#3",
          "ticks": 62544,
          "time": 222.10221349999998,
          "velocity": 0.5905511811023622
        },
        {
          "duration": 0.3338067291666391,
          "durationTicks": 94,
          "midi": 46,
          "name": "A#2",
          "ticks": 62592,
          "time": 222.27266799999998,
          "velocity": 0.5905511811023622
        },
        {
          "duration": 0.3338067291666391,
          "durationTicks": 94,
          "midi": 54,
          "name": "F#3",
          "ticks": 62592,
          "time": 222.27266799999998,
          "velocity": 0.5905511811023622
        },
        {
          "duration": 0.16335222916666226,
          "durationTicks": 46,
          "midi": 46,
          "name": "A#2",
          "ticks": 62688,
          "time": 222.61357699999996,
          "velocity": 0.5905511811023622
        },
        {
          "duration": 0.16335222916666226,
          "durationTicks": 46,
          "midi": 54,
          "name": "F#3",
          "ticks": 62688,
          "time": 222.61357699999996,
          "velocity": 0.5905511811023622
        },
        {
          "duration": 0.16335222916666226,
          "durationTicks": 46,
          "midi": 54,
          "name": "F#3",
          "ticks": 62736,
          "time": 222.78403149999997,
          "velocity": 0.5905511811023622
        },
        {
          "duration": 0.33380672916666754,
          "durationTicks": 94,
          "midi": 46,
          "name": "A#2",
          "ticks": 62784,
          "time": 222.95448599999997,
          "velocity": 0.5905511811023622
        },
        {
          "duration": 0.33380672916666754,
          "durationTicks": 94,
          "midi": 54,
          "name": "F#3",
          "ticks": 62784,
          "time": 222.95448599999997,
          "velocity": 0.5905511811023622
        },
        {
          "duration": 0.16335222916663383,
          "durationTicks": 46,
          "midi": 46,
          "name": "A#2",
          "ticks": 62880,
          "time": 223.29539499999998,
          "velocity": 0.5905511811023622
        },
        {
          "duration": 0.16335222916663383,
          "durationTicks": 46,
          "midi": 54,
          "name": "F#3",
          "ticks": 62880,
          "time": 223.29539499999998,
          "velocity": 0.5905511811023622
        },
        {
          "duration": 0.16335222916666226,
          "durationTicks": 46,
          "midi": 54,
          "name": "F#3",
          "ticks": 62928,
          "time": 223.46584949999996,
          "velocity": 0.5905511811023622
        },
        {
          "duration": 0.33380672916666754,
          "durationTicks": 94,
          "midi": 46,
          "name": "A#2",
          "ticks": 62976,
          "time": 223.63630399999997,
          "velocity": 0.5905511811023622
        },
        {
          "duration": 0.33380672916666754,
          "durationTicks": 94,
          "midi": 54,
          "name": "F#3",
          "ticks": 62976,
          "time": 223.63630399999997,
          "velocity": 0.5905511811023622
        },
        {
          "duration": 0.16335222916666226,
          "durationTicks": 46,
          "midi": 46,
          "name": "A#2",
          "ticks": 63072,
          "time": 223.97721299999998,
          "velocity": 0.5905511811023622
        },
        {
          "duration": 0.16335222916666226,
          "durationTicks": 46,
          "midi": 54,
          "name": "F#3",
          "ticks": 63072,
          "time": 223.97721299999998,
          "velocity": 0.5905511811023622
        },
        {
          "duration": 0.16335222916663383,
          "durationTicks": 46,
          "midi": 54,
          "name": "F#3",
          "ticks": 63120,
          "time": 224.14766749999998,
          "velocity": 0.5905511811023622
        },
        {
          "duration": 0.3338067291666391,
          "durationTicks": 94,
          "midi": 46,
          "name": "A#2",
          "ticks": 63168,
          "time": 224.318122,
          "velocity": 0.5905511811023622
        },
        {
          "duration": 0.3338067291666391,
          "durationTicks": 94,
          "midi": 54,
          "name": "F#3",
          "ticks": 63168,
          "time": 224.318122,
          "velocity": 0.5905511811023622
        },
        {
          "duration": 0.16335222916666226,
          "durationTicks": 46,
          "midi": 46,
          "name": "A#2",
          "ticks": 63264,
          "time": 224.65903099999997,
          "velocity": 0.5905511811023622
        },
        {
          "duration": 0.16335222916666226,
          "durationTicks": 46,
          "midi": 54,
          "name": "F#3",
          "ticks": 63264,
          "time": 224.65903099999997,
          "velocity": 0.5905511811023622
        },
        {
          "duration": 0.16335222916666226,
          "durationTicks": 46,
          "midi": 54,
          "name": "F#3",
          "ticks": 63312,
          "time": 224.82948549999998,
          "velocity": 0.5905511811023622
        },
        {
          "duration": 0.3338067291666391,
          "durationTicks": 94,
          "midi": 46,
          "name": "A#2",
          "ticks": 63360,
          "time": 224.99993999999998,
          "velocity": 0.5905511811023622
        },
        {
          "duration": 0.3338067291666391,
          "durationTicks": 94,
          "midi": 54,
          "name": "F#3",
          "ticks": 63360,
          "time": 224.99993999999998,
          "velocity": 0.5905511811023622
        },
        {
          "duration": 0.16335222916666226,
          "durationTicks": 46,
          "midi": 46,
          "name": "A#2",
          "ticks": 63456,
          "time": 225.34084899999996,
          "velocity": 0.5905511811023622
        },
        {
          "duration": 0.16335222916666226,
          "durationTicks": 46,
          "midi": 54,
          "name": "F#3",
          "ticks": 63456,
          "time": 225.34084899999996,
          "velocity": 0.5905511811023622
        },
        {
          "duration": 0.16335222916666226,
          "durationTicks": 46,
          "midi": 54,
          "name": "F#3",
          "ticks": 63504,
          "time": 225.51130349999997,
          "velocity": 0.5905511811023622
        },
        {
          "duration": 0.33380672916666754,
          "durationTicks": 94,
          "midi": 46,
          "name": "A#2",
          "ticks": 63552,
          "time": 225.68175799999997,
          "velocity": 0.5905511811023622
        },
        {
          "duration": 0.33380672916666754,
          "durationTicks": 94,
          "midi": 54,
          "name": "F#3",
          "ticks": 63552,
          "time": 225.68175799999997,
          "velocity": 0.5905511811023622
        },
        {
          "duration": 0.16335222916663383,
          "durationTicks": 46,
          "midi": 46,
          "name": "A#2",
          "ticks": 63648,
          "time": 226.02266699999998,
          "velocity": 0.5905511811023622
        },
        {
          "duration": 0.16335222916663383,
          "durationTicks": 46,
          "midi": 54,
          "name": "F#3",
          "ticks": 63648,
          "time": 226.02266699999998,
          "velocity": 0.5905511811023622
        },
        {
          "duration": 0.16335222916666226,
          "durationTicks": 46,
          "midi": 54,
          "name": "F#3",
          "ticks": 63696,
          "time": 226.19312149999996,
          "velocity": 0.5905511811023622
        },
        {
          "duration": 0.33380672916666754,
          "durationTicks": 94,
          "midi": 46,
          "name": "A#2",
          "ticks": 63744,
          "time": 226.36357599999997,
          "velocity": 0.5905511811023622
        },
        {
          "duration": 0.33380672916666754,
          "durationTicks": 94,
          "midi": 49,
          "name": "C#3",
          "ticks": 63744,
          "time": 226.36357599999997,
          "velocity": 0.5905511811023622
        },
        {
          "duration": 0.33380672916666754,
          "durationTicks": 94,
          "midi": 54,
          "name": "F#3",
          "ticks": 63744,
          "time": 226.36357599999997,
          "velocity": 0.5905511811023622
        },
        {
          "duration": 0.16335222916666226,
          "durationTicks": 46,
          "midi": 46,
          "name": "A#2",
          "ticks": 63840,
          "time": 226.70448499999998,
          "velocity": 0.5905511811023622
        },
        {
          "duration": 0.16335222916666226,
          "durationTicks": 46,
          "midi": 54,
          "name": "F#3",
          "ticks": 63840,
          "time": 226.70448499999998,
          "velocity": 0.5905511811023622
        },
        {
          "duration": 0.16335222916663383,
          "durationTicks": 46,
          "midi": 54,
          "name": "F#3",
          "ticks": 63888,
          "time": 226.87493949999998,
          "velocity": 0.5905511811023622
        },
        {
          "duration": 0.3338067291666391,
          "durationTicks": 94,
          "midi": 46,
          "name": "A#2",
          "ticks": 63936,
          "time": 227.045394,
          "velocity": 0.5905511811023622
        },
        {
          "duration": 0.3338067291666391,
          "durationTicks": 94,
          "midi": 54,
          "name": "F#3",
          "ticks": 63936,
          "time": 227.045394,
          "velocity": 0.5905511811023622
        },
        {
          "duration": 0.16335222916666226,
          "durationTicks": 46,
          "midi": 46,
          "name": "A#2",
          "ticks": 64032,
          "time": 227.38630299999997,
          "velocity": 0.5905511811023622
        },
        {
          "duration": 0.16335222916666226,
          "durationTicks": 46,
          "midi": 54,
          "name": "F#3",
          "ticks": 64032,
          "time": 227.38630299999997,
          "velocity": 0.5905511811023622
        },
        {
          "duration": 0.16335222916666226,
          "durationTicks": 46,
          "midi": 54,
          "name": "F#3",
          "ticks": 64080,
          "time": 227.55675749999997,
          "velocity": 0.5905511811023622
        },
        {
          "duration": 0.3338067291666391,
          "durationTicks": 94,
          "midi": 46,
          "name": "A#2",
          "ticks": 64128,
          "time": 227.72721199999998,
          "velocity": 0.5905511811023622
        },
        {
          "duration": 0.3338067291666391,
          "durationTicks": 94,
          "midi": 54,
          "name": "F#3",
          "ticks": 64128,
          "time": 227.72721199999998,
          "velocity": 0.5905511811023622
        },
        {
          "duration": 0.16335222916666226,
          "durationTicks": 46,
          "midi": 46,
          "name": "A#2",
          "ticks": 64224,
          "time": 228.06812099999996,
          "velocity": 0.5905511811023622
        },
        {
          "duration": 0.16335222916666226,
          "durationTicks": 46,
          "midi": 54,
          "name": "F#3",
          "ticks": 64224,
          "time": 228.06812099999996,
          "velocity": 0.5905511811023622
        },
        {
          "duration": 0.16335222916666226,
          "durationTicks": 46,
          "midi": 54,
          "name": "F#3",
          "ticks": 64272,
          "time": 228.23857549999997,
          "velocity": 0.5905511811023622
        },
        {
          "duration": 0.33380672916666754,
          "durationTicks": 94,
          "midi": 46,
          "name": "A#2",
          "ticks": 64320,
          "time": 228.40902999999997,
          "velocity": 0.5905511811023622
        },
        {
          "duration": 0.33380672916666754,
          "durationTicks": 94,
          "midi": 54,
          "name": "F#3",
          "ticks": 64320,
          "time": 228.40902999999997,
          "velocity": 0.5905511811023622
        },
        {
          "duration": 0.16335222916663383,
          "durationTicks": 46,
          "midi": 46,
          "name": "A#2",
          "ticks": 64416,
          "time": 228.74993899999998,
          "velocity": 0.5905511811023622
        },
        {
          "duration": 0.16335222916663383,
          "durationTicks": 46,
          "midi": 54,
          "name": "F#3",
          "ticks": 64416,
          "time": 228.74993899999998,
          "velocity": 0.5905511811023622
        },
        {
          "duration": 0.16335222916666226,
          "durationTicks": 46,
          "midi": 54,
          "name": "F#3",
          "ticks": 64464,
          "time": 228.92039349999996,
          "velocity": 0.5905511811023622
        },
        {
          "duration": 0.33380672916666754,
          "durationTicks": 94,
          "midi": 46,
          "name": "A#2",
          "ticks": 64512,
          "time": 229.09084799999997,
          "velocity": 0.5905511811023622
        },
        {
          "duration": 0.33380672916666754,
          "durationTicks": 94,
          "midi": 54,
          "name": "F#3",
          "ticks": 64512,
          "time": 229.09084799999997,
          "velocity": 0.5905511811023622
        },
        {
          "duration": 0.16335222916666226,
          "durationTicks": 46,
          "midi": 46,
          "name": "A#2",
          "ticks": 64608,
          "time": 229.43175699999998,
          "velocity": 0.5905511811023622
        },
        {
          "duration": 0.16335222916666226,
          "durationTicks": 46,
          "midi": 54,
          "name": "F#3",
          "ticks": 64608,
          "time": 229.43175699999998,
          "velocity": 0.5905511811023622
        },
        {
          "duration": 0.16335222916663383,
          "durationTicks": 46,
          "midi": 54,
          "name": "F#3",
          "ticks": 64656,
          "time": 229.60221149999998,
          "velocity": 0.5905511811023622
        },
        {
          "duration": 0.3338067291666391,
          "durationTicks": 94,
          "midi": 46,
          "name": "A#2",
          "ticks": 64704,
          "time": 229.772666,
          "velocity": 0.5905511811023622
        },
        {
          "duration": 0.3338067291666391,
          "durationTicks": 94,
          "midi": 54,
          "name": "F#3",
          "ticks": 64704,
          "time": 229.772666,
          "velocity": 0.5905511811023622
        },
        {
          "duration": 0.16335222916666226,
          "durationTicks": 46,
          "midi": 46,
          "name": "A#2",
          "ticks": 64800,
          "time": 230.11357499999997,
          "velocity": 0.5905511811023622
        },
        {
          "duration": 0.16335222916666226,
          "durationTicks": 46,
          "midi": 54,
          "name": "F#3",
          "ticks": 64800,
          "time": 230.11357499999997,
          "velocity": 0.5905511811023622
        },
        {
          "duration": 0.16335222916666226,
          "durationTicks": 46,
          "midi": 54,
          "name": "F#3",
          "ticks": 64848,
          "time": 230.28402949999997,
          "velocity": 0.5905511811023622
        },
        {
          "duration": 0.3338067291666391,
          "durationTicks": 94,
          "midi": 46,
          "name": "A#2",
          "ticks": 64896,
          "time": 230.45448399999998,
          "velocity": 0.5905511811023622
        },
        {
          "duration": 0.3338067291666391,
          "durationTicks": 94,
          "midi": 54,
          "name": "F#3",
          "ticks": 64896,
          "time": 230.45448399999998,
          "velocity": 0.5905511811023622
        },
        {
          "duration": 0.16335222916666226,
          "durationTicks": 46,
          "midi": 46,
          "name": "A#2",
          "ticks": 64992,
          "time": 230.79539299999996,
          "velocity": 0.5905511811023622
        },
        {
          "duration": 0.16335222916666226,
          "durationTicks": 46,
          "midi": 54,
          "name": "F#3",
          "ticks": 64992,
          "time": 230.79539299999996,
          "velocity": 0.5905511811023622
        },
        {
          "duration": 0.16335222916666226,
          "durationTicks": 46,
          "midi": 54,
          "name": "F#3",
          "ticks": 65040,
          "time": 230.96584749999997,
          "velocity": 0.5905511811023622
        },
        {
          "duration": 0.33380672916666754,
          "durationTicks": 94,
          "midi": 46,
          "name": "A#2",
          "ticks": 65088,
          "time": 231.13630199999997,
          "velocity": 0.5905511811023622
        },
        {
          "duration": 0.33380672916666754,
          "durationTicks": 94,
          "midi": 54,
          "name": "F#3",
          "ticks": 65088,
          "time": 231.13630199999997,
          "velocity": 0.5905511811023622
        },
        {
          "duration": 0.16335222916663383,
          "durationTicks": 46,
          "midi": 46,
          "name": "A#2",
          "ticks": 65184,
          "time": 231.47721099999998,
          "velocity": 0.5905511811023622
        },
        {
          "duration": 0.16335222916663383,
          "durationTicks": 46,
          "midi": 54,
          "name": "F#3",
          "ticks": 65184,
          "time": 231.47721099999998,
          "velocity": 0.5905511811023622
        },
        {
          "duration": 0.16335222916663383,
          "durationTicks": 46,
          "midi": 54,
          "name": "F#3",
          "ticks": 65232,
          "time": 231.6476655,
          "velocity": 0.5905511811023622
        },
        {
          "duration": 0.33380672916666754,
          "durationTicks": 94,
          "midi": 46,
          "name": "A#2",
          "ticks": 65280,
          "time": 231.81811999999996,
          "velocity": 0.5905511811023622
        },
        {
          "duration": 0.33380672916666754,
          "durationTicks": 94,
          "midi": 49,
          "name": "C#3",
          "ticks": 65280,
          "time": 231.81811999999996,
          "velocity": 0.5905511811023622
        },
        {
          "duration": 0.33380672916666754,
          "durationTicks": 94,
          "midi": 54,
          "name": "F#3",
          "ticks": 65280,
          "time": 231.81811999999996,
          "velocity": 0.5905511811023622
        },
        {
          "duration": 0.16335222916666226,
          "durationTicks": 46,
          "midi": 46,
          "name": "A#2",
          "ticks": 65376,
          "time": 232.15902899999998,
          "velocity": 0.5905511811023622
        },
        {
          "duration": 0.16335222916666226,
          "durationTicks": 46,
          "midi": 54,
          "name": "F#3",
          "ticks": 65376,
          "time": 232.15902899999998,
          "velocity": 0.5905511811023622
        },
        {
          "duration": 0.16335222916663383,
          "durationTicks": 46,
          "midi": 54,
          "name": "F#3",
          "ticks": 65424,
          "time": 232.32948349999998,
          "velocity": 0.5905511811023622
        },
        {
          "duration": 0.3338067291666391,
          "durationTicks": 94,
          "midi": 46,
          "name": "A#2",
          "ticks": 65472,
          "time": 232.499938,
          "velocity": 0.5905511811023622
        },
        {
          "duration": 0.3338067291666391,
          "durationTicks": 94,
          "midi": 54,
          "name": "F#3",
          "ticks": 65472,
          "time": 232.499938,
          "velocity": 0.5905511811023622
        },
        {
          "duration": 0.16335222916666226,
          "durationTicks": 46,
          "midi": 46,
          "name": "A#2",
          "ticks": 65568,
          "time": 232.84084699999997,
          "velocity": 0.5905511811023622
        },
        {
          "duration": 0.16335222916666226,
          "durationTicks": 46,
          "midi": 54,
          "name": "F#3",
          "ticks": 65568,
          "time": 232.84084699999997,
          "velocity": 0.5905511811023622
        },
        {
          "duration": 0.16335222916666226,
          "durationTicks": 46,
          "midi": 54,
          "name": "F#3",
          "ticks": 65616,
          "time": 233.01130149999997,
          "velocity": 0.5905511811023622
        },
        {
          "duration": 0.3338067291666391,
          "durationTicks": 94,
          "midi": 46,
          "name": "A#2",
          "ticks": 65664,
          "time": 233.18175599999998,
          "velocity": 0.5905511811023622
        },
        {
          "duration": 0.3338067291666391,
          "durationTicks": 94,
          "midi": 54,
          "name": "F#3",
          "ticks": 65664,
          "time": 233.18175599999998,
          "velocity": 0.5905511811023622
        },
        {
          "duration": 0.16335222916666226,
          "durationTicks": 46,
          "midi": 46,
          "name": "A#2",
          "ticks": 65760,
          "time": 233.52266499999996,
          "velocity": 0.5905511811023622
        },
        {
          "duration": 0.16335222916666226,
          "durationTicks": 46,
          "midi": 54,
          "name": "F#3",
          "ticks": 65760,
          "time": 233.52266499999996,
          "velocity": 0.5905511811023622
        },
        {
          "duration": 0.16335222916666226,
          "durationTicks": 46,
          "midi": 54,
          "name": "F#3",
          "ticks": 65808,
          "time": 233.69311949999997,
          "velocity": 0.5905511811023622
        },
        {
          "duration": 0.33380672916666754,
          "durationTicks": 94,
          "midi": 46,
          "name": "A#2",
          "ticks": 65856,
          "time": 233.86357399999997,
          "velocity": 0.5905511811023622
        },
        {
          "duration": 0.33380672916666754,
          "durationTicks": 94,
          "midi": 54,
          "name": "F#3",
          "ticks": 65856,
          "time": 233.86357399999997,
          "velocity": 0.5905511811023622
        },
        {
          "duration": 0.16335222916663383,
          "durationTicks": 46,
          "midi": 46,
          "name": "A#2",
          "ticks": 65952,
          "time": 234.20448299999998,
          "velocity": 0.5905511811023622
        },
        {
          "duration": 0.16335222916663383,
          "durationTicks": 46,
          "midi": 54,
          "name": "F#3",
          "ticks": 65952,
          "time": 234.20448299999998,
          "velocity": 0.5905511811023622
        },
        {
          "duration": 0.16335222916663383,
          "durationTicks": 46,
          "midi": 54,
          "name": "F#3",
          "ticks": 66000,
          "time": 234.3749375,
          "velocity": 0.5905511811023622
        },
        {
          "duration": 0.33380672916666754,
          "durationTicks": 94,
          "midi": 46,
          "name": "A#2",
          "ticks": 66048,
          "time": 234.54539199999996,
          "velocity": 0.5905511811023622
        },
        {
          "duration": 0.33380672916666754,
          "durationTicks": 94,
          "midi": 54,
          "name": "F#3",
          "ticks": 66048,
          "time": 234.54539199999996,
          "velocity": 0.5905511811023622
        },
        {
          "duration": 0.16335222916666226,
          "durationTicks": 46,
          "midi": 46,
          "name": "A#2",
          "ticks": 66144,
          "time": 234.88630099999997,
          "velocity": 0.5905511811023622
        },
        {
          "duration": 0.16335222916666226,
          "durationTicks": 46,
          "midi": 54,
          "name": "F#3",
          "ticks": 66144,
          "time": 234.88630099999997,
          "velocity": 0.5905511811023622
        },
        {
          "duration": 0.16335222916663383,
          "durationTicks": 46,
          "midi": 54,
          "name": "F#3",
          "ticks": 66192,
          "time": 235.05675549999998,
          "velocity": 0.5905511811023622
        },
        {
          "duration": 0.3338067291666391,
          "durationTicks": 94,
          "midi": 46,
          "name": "A#2",
          "ticks": 66240,
          "time": 235.22720999999999,
          "velocity": 0.5905511811023622
        },
        {
          "duration": 0.3338067291666391,
          "durationTicks": 94,
          "midi": 54,
          "name": "F#3",
          "ticks": 66240,
          "time": 235.22720999999999,
          "velocity": 0.5905511811023622
        },
        {
          "duration": 0.16335222916666226,
          "durationTicks": 46,
          "midi": 46,
          "name": "A#2",
          "ticks": 66336,
          "time": 235.56811899999997,
          "velocity": 0.5905511811023622
        },
        {
          "duration": 0.16335222916666226,
          "durationTicks": 46,
          "midi": 54,
          "name": "F#3",
          "ticks": 66336,
          "time": 235.56811899999997,
          "velocity": 0.5905511811023622
        },
        {
          "duration": 0.16335222916666226,
          "durationTicks": 46,
          "midi": 54,
          "name": "F#3",
          "ticks": 66384,
          "time": 235.73857349999997,
          "velocity": 0.5905511811023622
        },
        {
          "duration": 0.3338067291666391,
          "durationTicks": 94,
          "midi": 46,
          "name": "A#2",
          "ticks": 66432,
          "time": 235.90902799999998,
          "velocity": 0.5905511811023622
        },
        {
          "duration": 0.3338067291666391,
          "durationTicks": 94,
          "midi": 54,
          "name": "F#3",
          "ticks": 66432,
          "time": 235.90902799999998,
          "velocity": 0.5905511811023622
        },
        {
          "duration": 0.16335222916666226,
          "durationTicks": 46,
          "midi": 46,
          "name": "A#2",
          "ticks": 66528,
          "time": 236.24993699999996,
          "velocity": 0.5905511811023622
        },
        {
          "duration": 0.16335222916666226,
          "durationTicks": 46,
          "midi": 54,
          "name": "F#3",
          "ticks": 66528,
          "time": 236.24993699999996,
          "velocity": 0.5905511811023622
        },
        {
          "duration": 0.16335222916666226,
          "durationTicks": 46,
          "midi": 54,
          "name": "F#3",
          "ticks": 66576,
          "time": 236.42039149999997,
          "velocity": 0.5905511811023622
        },
        {
          "duration": 0.33380672916666754,
          "durationTicks": 94,
          "midi": 46,
          "name": "A#2",
          "ticks": 66624,
          "time": 236.59084599999997,
          "velocity": 0.5905511811023622
        },
        {
          "duration": 0.33380672916666754,
          "durationTicks": 94,
          "midi": 54,
          "name": "F#3",
          "ticks": 66624,
          "time": 236.59084599999997,
          "velocity": 0.5905511811023622
        },
        {
          "duration": 0.16335222916663383,
          "durationTicks": 46,
          "midi": 46,
          "name": "A#2",
          "ticks": 66720,
          "time": 236.93175499999998,
          "velocity": 0.5905511811023622
        },
        {
          "duration": 0.16335222916663383,
          "durationTicks": 46,
          "midi": 54,
          "name": "F#3",
          "ticks": 66720,
          "time": 236.93175499999998,
          "velocity": 0.5905511811023622
        },
        {
          "duration": 0.16335222916663383,
          "durationTicks": 46,
          "midi": 54,
          "name": "F#3",
          "ticks": 66768,
          "time": 237.1022095,
          "velocity": 0.5905511811023622
        },
        {
          "duration": 0.33380672916666754,
          "durationTicks": 94,
          "midi": 46,
          "name": "A#2",
          "ticks": 66816,
          "time": 237.27266399999996,
          "velocity": 0.5905511811023622
        },
        {
          "duration": 0.33380672916666754,
          "durationTicks": 94,
          "midi": 49,
          "name": "C#3",
          "ticks": 66816,
          "time": 237.27266399999996,
          "velocity": 0.5905511811023622
        },
        {
          "duration": 0.33380672916666754,
          "durationTicks": 94,
          "midi": 54,
          "name": "F#3",
          "ticks": 66816,
          "time": 237.27266399999996,
          "velocity": 0.5905511811023622
        },
        {
          "duration": 0.16335222916666226,
          "durationTicks": 46,
          "midi": 46,
          "name": "A#2",
          "ticks": 66912,
          "time": 237.61357299999997,
          "velocity": 0.5905511811023622
        },
        {
          "duration": 0.16335222916666226,
          "durationTicks": 46,
          "midi": 54,
          "name": "F#3",
          "ticks": 66912,
          "time": 237.61357299999997,
          "velocity": 0.5905511811023622
        },
        {
          "duration": 0.16335222916663383,
          "durationTicks": 46,
          "midi": 54,
          "name": "F#3",
          "ticks": 66960,
          "time": 237.78402749999998,
          "velocity": 0.5905511811023622
        },
        {
          "duration": 0.3338067291666391,
          "durationTicks": 94,
          "midi": 46,
          "name": "A#2",
          "ticks": 67008,
          "time": 237.95448199999998,
          "velocity": 0.5905511811023622
        },
        {
          "duration": 0.3338067291666391,
          "durationTicks": 94,
          "midi": 54,
          "name": "F#3",
          "ticks": 67008,
          "time": 237.95448199999998,
          "velocity": 0.5905511811023622
        },
        {
          "duration": 0.16335222916666226,
          "durationTicks": 46,
          "midi": 46,
          "name": "A#2",
          "ticks": 67104,
          "time": 238.29539099999997,
          "velocity": 0.5905511811023622
        },
        {
          "duration": 0.16335222916666226,
          "durationTicks": 46,
          "midi": 54,
          "name": "F#3",
          "ticks": 67104,
          "time": 238.29539099999997,
          "velocity": 0.5905511811023622
        },
        {
          "duration": 0.16335222916666226,
          "durationTicks": 46,
          "midi": 54,
          "name": "F#3",
          "ticks": 67152,
          "time": 238.46584549999997,
          "velocity": 0.5905511811023622
        },
        {
          "duration": 0.3338067291666391,
          "durationTicks": 94,
          "midi": 46,
          "name": "A#2",
          "ticks": 67200,
          "time": 238.63629999999998,
          "velocity": 0.5905511811023622
        },
        {
          "duration": 0.3338067291666391,
          "durationTicks": 94,
          "midi": 54,
          "name": "F#3",
          "ticks": 67200,
          "time": 238.63629999999998,
          "velocity": 0.5905511811023622
        },
        {
          "duration": 0.16335222916666226,
          "durationTicks": 46,
          "midi": 46,
          "name": "A#2",
          "ticks": 67296,
          "time": 238.97720899999996,
          "velocity": 0.5905511811023622
        },
        {
          "duration": 0.16335222916666226,
          "durationTicks": 46,
          "midi": 54,
          "name": "F#3",
          "ticks": 67296,
          "time": 238.97720899999996,
          "velocity": 0.5905511811023622
        },
        {
          "duration": 0.16335222916666226,
          "durationTicks": 46,
          "midi": 54,
          "name": "F#3",
          "ticks": 67344,
          "time": 239.14766349999996,
          "velocity": 0.5905511811023622
        },
        {
          "duration": 0.33380672916666754,
          "durationTicks": 94,
          "midi": 46,
          "name": "A#2",
          "ticks": 67392,
          "time": 239.31811799999997,
          "velocity": 0.5905511811023622
        },
        {
          "duration": 0.33380672916666754,
          "durationTicks": 94,
          "midi": 54,
          "name": "F#3",
          "ticks": 67392,
          "time": 239.31811799999997,
          "velocity": 0.5905511811023622
        },
        {
          "duration": 0.16335222916663383,
          "durationTicks": 46,
          "midi": 46,
          "name": "A#2",
          "ticks": 67488,
          "time": 239.65902699999998,
          "velocity": 0.5905511811023622
        },
        {
          "duration": 0.16335222916663383,
          "durationTicks": 46,
          "midi": 54,
          "name": "F#3",
          "ticks": 67488,
          "time": 239.65902699999998,
          "velocity": 0.5905511811023622
        },
        {
          "duration": 0.16335222916663383,
          "durationTicks": 46,
          "midi": 54,
          "name": "F#3",
          "ticks": 67536,
          "time": 239.82948149999999,
          "velocity": 0.5905511811023622
        },
        {
          "duration": 0.33380672916666754,
          "durationTicks": 94,
          "midi": 46,
          "name": "A#2",
          "ticks": 67584,
          "time": 239.99993599999996,
          "velocity": 0.5905511811023622
        },
        {
          "duration": 0.33380672916666754,
          "durationTicks": 94,
          "midi": 54,
          "name": "F#3",
          "ticks": 67584,
          "time": 239.99993599999996,
          "velocity": 0.5905511811023622
        },
        {
          "duration": 0.16335222916666226,
          "durationTicks": 46,
          "midi": 46,
          "name": "A#2",
          "ticks": 67680,
          "time": 240.34084499999997,
          "velocity": 0.5905511811023622
        },
        {
          "duration": 0.16335222916666226,
          "durationTicks": 46,
          "midi": 54,
          "name": "F#3",
          "ticks": 67680,
          "time": 240.34084499999997,
          "velocity": 0.5905511811023622
        },
        {
          "duration": 0.16335222916666226,
          "durationTicks": 46,
          "midi": 54,
          "name": "F#3",
          "ticks": 67728,
          "time": 240.51129949999998,
          "velocity": 0.5905511811023622
        },
        {
          "duration": 0.3338067291666391,
          "durationTicks": 94,
          "midi": 46,
          "name": "A#2",
          "ticks": 67776,
          "time": 240.68175399999998,
          "velocity": 0.5905511811023622
        },
        {
          "duration": 0.3338067291666391,
          "durationTicks": 94,
          "midi": 54,
          "name": "F#3",
          "ticks": 67776,
          "time": 240.68175399999998,
          "velocity": 0.5905511811023622
        },
        {
          "duration": 0.16335222916666226,
          "durationTicks": 46,
          "midi": 46,
          "name": "A#2",
          "ticks": 67872,
          "time": 241.02266299999997,
          "velocity": 0.5905511811023622
        },
        {
          "duration": 0.16335222916666226,
          "durationTicks": 46,
          "midi": 54,
          "name": "F#3",
          "ticks": 67872,
          "time": 241.02266299999997,
          "velocity": 0.5905511811023622
        },
        {
          "duration": 0.16335222916666226,
          "durationTicks": 46,
          "midi": 54,
          "name": "F#3",
          "ticks": 67920,
          "time": 241.19311749999997,
          "velocity": 0.5905511811023622
        },
        {
          "duration": 0.3338067291666391,
          "durationTicks": 94,
          "midi": 46,
          "name": "A#2",
          "ticks": 67968,
          "time": 241.36357199999998,
          "velocity": 0.5905511811023622
        },
        {
          "duration": 0.3338067291666391,
          "durationTicks": 94,
          "midi": 54,
          "name": "F#3",
          "ticks": 67968,
          "time": 241.36357199999998,
          "velocity": 0.5905511811023622
        },
        {
          "duration": 0.16335222916663383,
          "durationTicks": 46,
          "midi": 46,
          "name": "A#2",
          "ticks": 68064,
          "time": 241.704481,
          "velocity": 0.5905511811023622
        },
        {
          "duration": 0.16335222916663383,
          "durationTicks": 46,
          "midi": 54,
          "name": "F#3",
          "ticks": 68064,
          "time": 241.704481,
          "velocity": 0.5905511811023622
        },
        {
          "duration": 0.16335222916666226,
          "durationTicks": 46,
          "midi": 54,
          "name": "F#3",
          "ticks": 68112,
          "time": 241.87493549999996,
          "velocity": 0.5905511811023622
        },
        {
          "duration": 0.33380672916666754,
          "durationTicks": 94,
          "midi": 46,
          "name": "A#2",
          "ticks": 68160,
          "time": 242.04538999999997,
          "velocity": 0.5905511811023622
        },
        {
          "duration": 0.33380672916666754,
          "durationTicks": 94,
          "midi": 54,
          "name": "F#3",
          "ticks": 68160,
          "time": 242.04538999999997,
          "velocity": 0.5905511811023622
        },
        {
          "duration": 0.16335222916663383,
          "durationTicks": 46,
          "midi": 46,
          "name": "A#2",
          "ticks": 68256,
          "time": 242.38629899999998,
          "velocity": 0.5905511811023622
        },
        {
          "duration": 0.16335222916663383,
          "durationTicks": 46,
          "midi": 54,
          "name": "F#3",
          "ticks": 68256,
          "time": 242.38629899999998,
          "velocity": 0.5905511811023622
        },
        {
          "duration": 0.16335222916663383,
          "durationTicks": 46,
          "midi": 54,
          "name": "F#3",
          "ticks": 68304,
          "time": 242.55675349999999,
          "velocity": 0.5905511811023622
        },
        {
          "duration": 0.33380672916666754,
          "durationTicks": 94,
          "midi": 46,
          "name": "A#2",
          "ticks": 68352,
          "time": 242.72720799999996,
          "velocity": 0.5905511811023622
        },
        {
          "duration": 0.33380672916666754,
          "durationTicks": 94,
          "midi": 49,
          "name": "C#3",
          "ticks": 68352,
          "time": 242.72720799999996,
          "velocity": 0.5905511811023622
        },
        {
          "duration": 0.33380672916666754,
          "durationTicks": 94,
          "midi": 54,
          "name": "F#3",
          "ticks": 68352,
          "time": 242.72720799999996,
          "velocity": 0.5905511811023622
        },
        {
          "duration": 0.16335222916666226,
          "durationTicks": 46,
          "midi": 46,
          "name": "A#2",
          "ticks": 68448,
          "time": 243.06811699999997,
          "velocity": 0.5905511811023622
        },
        {
          "duration": 0.16335222916666226,
          "durationTicks": 46,
          "midi": 54,
          "name": "F#3",
          "ticks": 68448,
          "time": 243.06811699999997,
          "velocity": 0.5905511811023622
        },
        {
          "duration": 0.16335222916666226,
          "durationTicks": 46,
          "midi": 54,
          "name": "F#3",
          "ticks": 68496,
          "time": 243.23857149999998,
          "velocity": 0.5905511811023622
        },
        {
          "duration": 0.3338067291666391,
          "durationTicks": 94,
          "midi": 46,
          "name": "A#2",
          "ticks": 68544,
          "time": 243.40902599999998,
          "velocity": 0.5905511811023622
        },
        {
          "duration": 0.3338067291666391,
          "durationTicks": 94,
          "midi": 54,
          "name": "F#3",
          "ticks": 68544,
          "time": 243.40902599999998,
          "velocity": 0.5905511811023622
        },
        {
          "duration": 0.16335222916666226,
          "durationTicks": 46,
          "midi": 46,
          "name": "A#2",
          "ticks": 68640,
          "time": 243.74993499999997,
          "velocity": 0.5905511811023622
        },
        {
          "duration": 0.16335222916666226,
          "durationTicks": 46,
          "midi": 54,
          "name": "F#3",
          "ticks": 68640,
          "time": 243.74993499999997,
          "velocity": 0.5905511811023622
        },
        {
          "duration": 0.16335222916666226,
          "durationTicks": 46,
          "midi": 54,
          "name": "F#3",
          "ticks": 68688,
          "time": 243.92038949999997,
          "velocity": 0.5905511811023622
        },
        {
          "duration": 0.3338067291666391,
          "durationTicks": 94,
          "midi": 46,
          "name": "A#2",
          "ticks": 68736,
          "time": 244.09084399999998,
          "velocity": 0.5905511811023622
        },
        {
          "duration": 0.3338067291666391,
          "durationTicks": 94,
          "midi": 54,
          "name": "F#3",
          "ticks": 68736,
          "time": 244.09084399999998,
          "velocity": 0.5905511811023622
        },
        {
          "duration": 0.16335222916663383,
          "durationTicks": 46,
          "midi": 46,
          "name": "A#2",
          "ticks": 68832,
          "time": 244.431753,
          "velocity": 0.5905511811023622
        },
        {
          "duration": 0.16335222916663383,
          "durationTicks": 46,
          "midi": 54,
          "name": "F#3",
          "ticks": 68832,
          "time": 244.431753,
          "velocity": 0.5905511811023622
        },
        {
          "duration": 0.16335222916666226,
          "durationTicks": 46,
          "midi": 54,
          "name": "F#3",
          "ticks": 68880,
          "time": 244.60220749999996,
          "velocity": 0.5905511811023622
        },
        {
          "duration": 0.33380672916666754,
          "durationTicks": 94,
          "midi": 46,
          "name": "A#2",
          "ticks": 68928,
          "time": 244.77266199999997,
          "velocity": 0.5905511811023622
        },
        {
          "duration": 0.33380672916666754,
          "durationTicks": 94,
          "midi": 54,
          "name": "F#3",
          "ticks": 68928,
          "time": 244.77266199999997,
          "velocity": 0.5905511811023622
        },
        {
          "duration": 0.16335222916663383,
          "durationTicks": 46,
          "midi": 46,
          "name": "A#2",
          "ticks": 69024,
          "time": 245.11357099999998,
          "velocity": 0.5905511811023622
        },
        {
          "duration": 0.16335222916663383,
          "durationTicks": 46,
          "midi": 54,
          "name": "F#3",
          "ticks": 69024,
          "time": 245.11357099999998,
          "velocity": 0.5905511811023622
        },
        {
          "duration": 0.16335222916663383,
          "durationTicks": 46,
          "midi": 54,
          "name": "F#3",
          "ticks": 69072,
          "time": 245.28402549999998,
          "velocity": 0.5905511811023622
        },
        {
          "duration": 0.33380672916666754,
          "durationTicks": 94,
          "midi": 46,
          "name": "A#2",
          "ticks": 69120,
          "time": 245.45447999999996,
          "velocity": 0.5905511811023622
        },
        {
          "duration": 0.33380672916666754,
          "durationTicks": 94,
          "midi": 54,
          "name": "F#3",
          "ticks": 69120,
          "time": 245.45447999999996,
          "velocity": 0.5905511811023622
        },
        {
          "duration": 0.16335222916666226,
          "durationTicks": 46,
          "midi": 46,
          "name": "A#2",
          "ticks": 69216,
          "time": 245.79538899999997,
          "velocity": 0.5905511811023622
        },
        {
          "duration": 0.16335222916666226,
          "durationTicks": 46,
          "midi": 54,
          "name": "F#3",
          "ticks": 69216,
          "time": 245.79538899999997,
          "velocity": 0.5905511811023622
        },
        {
          "duration": 0.16335222916666226,
          "durationTicks": 46,
          "midi": 54,
          "name": "F#3",
          "ticks": 69264,
          "time": 245.96584349999998,
          "velocity": 0.5905511811023622
        },
        {
          "duration": 0.3338067291666391,
          "durationTicks": 94,
          "midi": 46,
          "name": "A#2",
          "ticks": 69312,
          "time": 246.13629799999998,
          "velocity": 0.5905511811023622
        },
        {
          "duration": 0.3338067291666391,
          "durationTicks": 94,
          "midi": 54,
          "name": "F#3",
          "ticks": 69312,
          "time": 246.13629799999998,
          "velocity": 0.5905511811023622
        },
        {
          "duration": 0.16335222916666226,
          "durationTicks": 46,
          "midi": 46,
          "name": "A#2",
          "ticks": 69408,
          "time": 246.47720699999996,
          "velocity": 0.5905511811023622
        },
        {
          "duration": 0.16335222916666226,
          "durationTicks": 46,
          "midi": 54,
          "name": "F#3",
          "ticks": 69408,
          "time": 246.47720699999996,
          "velocity": 0.5905511811023622
        },
        {
          "duration": 0.16335222916666226,
          "durationTicks": 46,
          "midi": 54,
          "name": "F#3",
          "ticks": 69456,
          "time": 246.64766149999997,
          "velocity": 0.5905511811023622
        },
        {
          "duration": 0.3338067291666391,
          "durationTicks": 94,
          "midi": 46,
          "name": "A#2",
          "ticks": 69504,
          "time": 246.81811599999997,
          "velocity": 0.5905511811023622
        },
        {
          "duration": 0.3338067291666391,
          "durationTicks": 94,
          "midi": 54,
          "name": "F#3",
          "ticks": 69504,
          "time": 246.81811599999997,
          "velocity": 0.5905511811023622
        },
        {
          "duration": 0.16335222916663383,
          "durationTicks": 46,
          "midi": 46,
          "name": "A#2",
          "ticks": 69600,
          "time": 247.15902499999999,
          "velocity": 0.5905511811023622
        },
        {
          "duration": 0.16335222916663383,
          "durationTicks": 46,
          "midi": 54,
          "name": "F#3",
          "ticks": 69600,
          "time": 247.15902499999999,
          "velocity": 0.5905511811023622
        },
        {
          "duration": 0.16335222916666226,
          "durationTicks": 46,
          "midi": 54,
          "name": "F#3",
          "ticks": 69648,
          "time": 247.32947949999996,
          "velocity": 0.5905511811023622
        },
        {
          "duration": 0.33380672916666754,
          "durationTicks": 94,
          "midi": 46,
          "name": "A#2",
          "ticks": 69696,
          "time": 247.49993399999997,
          "velocity": 0.5905511811023622
        },
        {
          "duration": 0.33380672916666754,
          "durationTicks": 94,
          "midi": 54,
          "name": "F#3",
          "ticks": 69696,
          "time": 247.49993399999997,
          "velocity": 0.5905511811023622
        },
        {
          "duration": 0.16335222916663383,
          "durationTicks": 46,
          "midi": 46,
          "name": "A#2",
          "ticks": 69792,
          "time": 247.84084299999998,
          "velocity": 0.5905511811023622
        },
        {
          "duration": 0.16335222916663383,
          "durationTicks": 46,
          "midi": 54,
          "name": "F#3",
          "ticks": 69792,
          "time": 247.84084299999998,
          "velocity": 0.5905511811023622
        },
        {
          "duration": 0.16335222916663383,
          "durationTicks": 46,
          "midi": 54,
          "name": "F#3",
          "ticks": 69840,
          "time": 248.01129749999998,
          "velocity": 0.5905511811023622
        },
        {
          "duration": 0.5681816666666748,
          "durationTicks": 160,
          "midi": 49,
          "name": "C#3",
          "ticks": 69888,
          "time": 248.18175199999996,
          "velocity": 0.5905511811023622
        }
      ],
      "endOfTrackTicks": 70048
    },
    {
      "channel": 9,
      "controlChanges": {
        "7": [
          {
            "number": 7,
            "ticks": 0,
            "time": 0,
            "value": 1
          },
          {
            "number": 7,
            "ticks": 0,
            "time": 0,
            "value": 1
          }
        ],
        "10": [
          {
            "number": 10,
            "ticks": 0,
            "time": 0,
            "value": 0.5039370078740157
          },
          {
            "number": 10,
            "ticks": 0,
            "time": 0,
            "value": 0.5039370078740157
          }
        ]
      },
      "pitchBends": [],
      "instrument": {
        "family": "drums",
        "number": 0,
        "name": "standard kit"
      },
      "name": "",
      "notes": [
        {
          "duration": 0.5681816666666666,
          "durationTicks": 160,
          "midi": 42,
          "name": "F#2",
          "ticks": 0,
          "time": 0,
          "velocity": 0.8661417322834646
        },
        {
          "duration": 0.5681816666666665,
          "durationTicks": 160,
          "midi": 42,
          "name": "F#2",
          "ticks": 192,
          "time": 0.6818179999999999,
          "velocity": 0.8661417322834646
        },
        {
          "duration": 0.5681816666666668,
          "durationTicks": 160,
          "midi": 42,
          "name": "F#2",
          "ticks": 384,
          "time": 1.3636359999999998,
          "velocity": 0.8661417322834646
        },
        {
          "duration": 0.5681816666666668,
          "durationTicks": 160,
          "midi": 42,
          "name": "F#2",
          "ticks": 576,
          "time": 2.045454,
          "velocity": 0.8661417322834646
        },
        {
          "duration": 0.33380672916666576,
          "durationTicks": 94,
          "midi": 36,
          "name": "C2",
          "ticks": 3840,
          "time": 13.636359999999998,
          "velocity": 0.5905511811023622
        },
        {
          "duration": 0.33380672916666576,
          "durationTicks": 94,
          "midi": 36,
          "name": "C2",
          "ticks": 3936,
          "time": 13.977268999999998,
          "velocity": 0.5905511811023622
        },
        {
          "duration": 0.5681816666666659,
          "durationTicks": 160,
          "midi": 38,
          "name": "D2",
          "ticks": 4032,
          "time": 14.318177999999998,
          "velocity": 0.5905511811023622
        },
        {
          "duration": 0.33380672916666576,
          "durationTicks": 94,
          "midi": 36,
          "name": "C2",
          "ticks": 4224,
          "time": 14.999995999999998,
          "velocity": 0.5905511811023622
        },
        {
          "duration": 0.33380672916666576,
          "durationTicks": 94,
          "midi": 36,
          "name": "C2",
          "ticks": 4320,
          "time": 15.340904999999998,
          "velocity": 0.5905511811023622
        },
        {
          "duration": 0.5681816666666659,
          "durationTicks": 160,
          "midi": 38,
          "name": "D2",
          "ticks": 4416,
          "time": 15.681813999999997,
          "velocity": 0.5905511811023622
        },
        {
          "duration": 0.333806729166664,
          "durationTicks": 94,
          "midi": 36,
          "name": "C2",
          "ticks": 4608,
          "time": 16.363632,
          "velocity": 0.5905511811023622
        },
        {
          "duration": 0.333806729166664,
          "durationTicks": 94,
          "midi": 36,
          "name": "C2",
          "ticks": 4704,
          "time": 16.704541,
          "velocity": 0.5905511811023622
        },
        {
          "duration": 0.5681816666666641,
          "durationTicks": 160,
          "midi": 38,
          "name": "D2",
          "ticks": 4800,
          "time": 17.04545,
          "velocity": 0.5905511811023622
        },
        {
          "duration": 0.333806729166664,
          "durationTicks": 94,
          "midi": 36,
          "name": "C2",
          "ticks": 4992,
          "time": 17.727268,
          "velocity": 0.5905511811023622
        },
        {
          "duration": 0.333806729166664,
          "durationTicks": 94,
          "midi": 36,
          "name": "C2",
          "ticks": 5088,
          "time": 18.068177,
          "velocity": 0.5905511811023622
        },
        {
          "duration": 0.5681816666666641,
          "durationTicks": 160,
          "midi": 38,
          "name": "D2",
          "ticks": 5184,
          "time": 18.409086,
          "velocity": 0.5905511811023622
        },
        {
          "duration": 0.333806729166664,
          "durationTicks": 94,
          "midi": 36,
          "name": "C2",
          "ticks": 5376,
          "time": 19.090904,
          "velocity": 0.5905511811023622
        },
        {
          "duration": 0.333806729166664,
          "durationTicks": 94,
          "midi": 36,
          "name": "C2",
          "ticks": 5472,
          "time": 19.431813,
          "velocity": 0.5905511811023622
        },
        {
          "duration": 0.5681816666666641,
          "durationTicks": 160,
          "midi": 38,
          "name": "D2",
          "ticks": 5568,
          "time": 19.772721999999998,
          "velocity": 0.5905511811023622
        },
        {
          "duration": 0.333806729166664,
          "durationTicks": 94,
          "midi": 36,
          "name": "C2",
          "ticks": 5760,
          "time": 20.454539999999998,
          "velocity": 0.5905511811023622
        },
        {
          "duration": 0.333806729166664,
          "durationTicks": 94,
          "midi": 36,
          "name": "C2",
          "ticks": 5856,
          "time": 20.795448999999998,
          "velocity": 0.5905511811023622
        },
        {
          "duration": 0.5681816666666641,
          "durationTicks": 160,
          "midi": 38,
          "name": "D2",
          "ticks": 5952,
          "time": 21.136357999999998,
          "velocity": 0.5905511811023622
        },
        {
          "duration": 0.33380672916666754,
          "durationTicks": 94,
          "midi": 36,
          "name": "C2",
          "ticks": 6144,
          "time": 21.818175999999998,
          "velocity": 0.5905511811023622
        },
        {
          "duration": 0.33380672916666754,
          "durationTicks": 94,
          "midi": 36,
          "name": "C2",
          "ticks": 6240,
          "time": 22.159084999999997,
          "velocity": 0.5905511811023622
        },
        {
          "duration": 0.5681816666666677,
          "durationTicks": 160,
          "midi": 38,
          "name": "D2",
          "ticks": 6336,
          "time": 22.499993999999997,
          "velocity": 0.5905511811023622
        },
        {
          "duration": 0.33380672916666754,
          "durationTicks": 94,
          "midi": 36,
          "name": "C2",
          "ticks": 6528,
          "time": 23.181811999999997,
          "velocity": 0.5905511811023622
        },
        {
          "duration": 0.33380672916666754,
          "durationTicks": 94,
          "midi": 36,
          "name": "C2",
          "ticks": 6624,
          "time": 23.522720999999997,
          "velocity": 0.5905511811023622
        },
        {
          "duration": 0.5681816666666677,
          "durationTicks": 160,
          "midi": 38,
          "name": "D2",
          "ticks": 6720,
          "time": 23.863629999999997,
          "velocity": 0.5905511811023622
        },
        {
          "duration": 0.33380672916666754,
          "durationTicks": 94,
          "midi": 36,
          "name": "C2",
          "ticks": 6912,
          "time": 24.545447999999997,
          "velocity": 0.5905511811023622
        },
        {
          "duration": 0.33380672916666754,
          "durationTicks": 94,
          "midi": 36,
          "name": "C2",
          "ticks": 7008,
          "time": 24.886356999999997,
          "velocity": 0.5905511811023622
        },
        {
          "duration": 0.5681816666666677,
          "durationTicks": 160,
          "midi": 38,
          "name": "D2",
          "ticks": 7104,
          "time": 25.227265999999997,
          "velocity": 0.5905511811023622
        },
        {
          "duration": 0.33380672916666754,
          "durationTicks": 94,
          "midi": 36,
          "name": "C2",
          "ticks": 7296,
          "time": 25.909083999999996,
          "velocity": 0.5905511811023622
        },
        {
          "duration": 0.33380672916666754,
          "durationTicks": 94,
          "midi": 36,
          "name": "C2",
          "ticks": 7392,
          "time": 26.249992999999996,
          "velocity": 0.5905511811023622
        },
        {
          "duration": 0.5681816666666677,
          "durationTicks": 160,
          "midi": 38,
          "name": "D2",
          "ticks": 7488,
          "time": 26.590901999999996,
          "velocity": 0.5905511811023622
        },
        {
          "duration": 0.33380672916666754,
          "durationTicks": 94,
          "midi": 36,
          "name": "C2",
          "ticks": 7680,
          "time": 27.272719999999996,
          "velocity": 0.5905511811023622
        },
        {
          "duration": 0.33380672916666754,
          "durationTicks": 94,
          "midi": 36,
          "name": "C2",
          "ticks": 7776,
          "time": 27.613628999999996,
          "velocity": 0.5905511811023622
        },
        {
          "duration": 0.5681816666666677,
          "durationTicks": 160,
          "midi": 38,
          "name": "D2",
          "ticks": 7872,
          "time": 27.954537999999996,
          "velocity": 0.5905511811023622
        },
        {
          "duration": 0.3338067291666711,
          "durationTicks": 94,
          "midi": 36,
          "name": "C2",
          "ticks": 8064,
          "time": 28.636355999999996,
          "velocity": 0.5905511811023622
        },
        {
          "duration": 0.3338067291666711,
          "durationTicks": 94,
          "midi": 36,
          "name": "C2",
          "ticks": 8160,
          "time": 28.977264999999996,
          "velocity": 0.5905511811023622
        },
        {
          "duration": 0.5681816666666677,
          "durationTicks": 160,
          "midi": 38,
          "name": "D2",
          "ticks": 8256,
          "time": 29.318173999999996,
          "velocity": 0.5905511811023622
        },
        {
          "duration": 0.3338067291666711,
          "durationTicks": 94,
          "midi": 36,
          "name": "C2",
          "ticks": 8448,
          "time": 29.999991999999995,
          "velocity": 0.5905511811023622
        },
        {
          "duration": 0.3338067291666711,
          "durationTicks": 94,
          "midi": 36,
          "name": "C2",
          "ticks": 8544,
          "time": 30.340900999999995,
          "velocity": 0.5905511811023622
        },
        {
          "duration": 0.5681816666666712,
          "durationTicks": 160,
          "midi": 38,
          "name": "D2",
          "ticks": 8640,
          "time": 30.681809999999995,
          "velocity": 0.5905511811023622
        },
        {
          "duration": 0.3338067291666711,
          "durationTicks": 94,
          "midi": 36,
          "name": "C2",
          "ticks": 8832,
          "time": 31.363627999999995,
          "velocity": 0.5905511811023622
        },
        {
          "duration": 0.33380672916666754,
          "durationTicks": 94,
          "midi": 36,
          "name": "C2",
          "ticks": 8928,
          "time": 31.704536999999995,
          "velocity": 0.5905511811023622
        },
        {
          "duration": 0.5681816666666677,
          "durationTicks": 160,
          "midi": 38,
          "name": "D2",
          "ticks": 9024,
          "time": 32.045446,
          "velocity": 0.5905511811023622
        },
        {
          "duration": 0.33380672916666754,
          "durationTicks": 94,
          "midi": 36,
          "name": "C2",
          "ticks": 9216,
          "time": 32.727264,
          "velocity": 0.5905511811023622
        },
        {
          "duration": 0.33380672916666754,
          "durationTicks": 94,
          "midi": 36,
          "name": "C2",
          "ticks": 9312,
          "time": 33.068172999999994,
          "velocity": 0.5905511811023622
        },
        {
          "duration": 0.5681816666666677,
          "durationTicks": 160,
          "midi": 38,
          "name": "D2",
          "ticks": 9408,
          "time": 33.409082,
          "velocity": 0.5905511811023622
        },
        {
          "duration": 0.33380672916666754,
          "durationTicks": 94,
          "midi": 36,
          "name": "C2",
          "ticks": 9600,
          "time": 34.0909,
          "velocity": 0.5905511811023622
        },
        {
          "duration": 0.33380672916666754,
          "durationTicks": 94,
          "midi": 36,
          "name": "C2",
          "ticks": 9696,
          "time": 34.431808999999994,
          "velocity": 0.5905511811023622
        },
        {
          "duration": 0.5681816666666677,
          "durationTicks": 160,
          "midi": 38,
          "name": "D2",
          "ticks": 9792,
          "time": 34.772718,
          "velocity": 0.5905511811023622
        },
        {
          "duration": 0.33380672916666754,
          "durationTicks": 94,
          "midi": 36,
          "name": "C2",
          "ticks": 9984,
          "time": 35.454536,
          "velocity": 0.5905511811023622
        },
        {
          "duration": 0.33380672916666754,
          "durationTicks": 94,
          "midi": 42,
          "name": "F#2",
          "ticks": 9984,
          "time": 35.454536,
          "velocity": 0.5905511811023622
        },
        {
          "duration": 0.33380672916666754,
          "durationTicks": 94,
          "midi": 36,
          "name": "C2",
          "ticks": 10080,
          "time": 35.795444999999994,
          "velocity": 0.5905511811023622
        },
        {
          "duration": 0.33380672916666754,
          "durationTicks": 94,
          "midi": 42,
          "name": "F#2",
          "ticks": 10080,
          "time": 35.795444999999994,
          "velocity": 0.5905511811023622
        },
        {
          "duration": 0.33380672916666754,
          "durationTicks": 94,
          "midi": 38,
          "name": "D2",
          "ticks": 10176,
          "time": 36.136354,
          "velocity": 0.5905511811023622
        },
        {
          "duration": 0.33380672916666754,
          "durationTicks": 94,
          "midi": 42,
          "name": "F#2",
          "ticks": 10176,
          "time": 36.136354,
          "velocity": 0.5905511811023622
        },
        {
          "duration": 0.33380672916666754,
          "durationTicks": 94,
          "midi": 42,
          "name": "F#2",
          "ticks": 10272,
          "time": 36.477262999999994,
          "velocity": 0.5905511811023622
        },
        {
          "duration": 0.33380672916666754,
          "durationTicks": 94,
          "midi": 36,
          "name": "C2",
          "ticks": 10368,
          "time": 36.818172,
          "velocity": 0.5905511811023622
        },
        {
          "duration": 0.33380672916666754,
          "durationTicks": 94,
          "midi": 42,
          "name": "F#2",
          "ticks": 10368,
          "time": 36.818172,
          "velocity": 0.5905511811023622
        },
        {
          "duration": 0.33380672916666754,
          "durationTicks": 94,
          "midi": 36,
          "name": "C2",
          "ticks": 10464,
          "time": 37.15908099999999,
          "velocity": 0.5905511811023622
        },
        {
          "duration": 0.33380672916666754,
          "durationTicks": 94,
          "midi": 42,
          "name": "F#2",
          "ticks": 10464,
          "time": 37.15908099999999,
          "velocity": 0.5905511811023622
        },
        {
          "duration": 0.33380672916666754,
          "durationTicks": 94,
          "midi": 38,
          "name": "D2",
          "ticks": 10560,
          "time": 37.49999,
          "velocity": 0.5905511811023622
        },
        {
          "duration": 0.33380672916666754,
          "durationTicks": 94,
          "midi": 42,
          "name": "F#2",
          "ticks": 10560,
          "time": 37.49999,
          "velocity": 0.5905511811023622
        },
        {
          "duration": 0.33380672916666754,
          "durationTicks": 94,
          "midi": 42,
          "name": "F#2",
          "ticks": 10656,
          "time": 37.84089899999999,
          "velocity": 0.5905511811023622
        },
        {
          "duration": 0.33380672916666754,
          "durationTicks": 94,
          "midi": 36,
          "name": "C2",
          "ticks": 10752,
          "time": 38.181808,
          "velocity": 0.5905511811023622
        },
        {
          "duration": 0.33380672916666754,
          "durationTicks": 94,
          "midi": 42,
          "name": "F#2",
          "ticks": 10752,
          "time": 38.181808,
          "velocity": 0.5905511811023622
        },
        {
          "duration": 0.33380672916666754,
          "durationTicks": 94,
          "midi": 36,
          "name": "C2",
          "ticks": 10848,
          "time": 38.52271699999999,
          "velocity": 0.5905511811023622
        },
        {
          "duration": 0.33380672916666754,
          "durationTicks": 94,
          "midi": 42,
          "name": "F#2",
          "ticks": 10848,
          "time": 38.52271699999999,
          "velocity": 0.5905511811023622
        },
        {
          "duration": 0.33380672916666754,
          "durationTicks": 94,
          "midi": 38,
          "name": "D2",
          "ticks": 10944,
          "time": 38.863626,
          "velocity": 0.5905511811023622
        },
        {
          "duration": 0.33380672916666754,
          "durationTicks": 94,
          "midi": 42,
          "name": "F#2",
          "ticks": 10944,
          "time": 38.863626,
          "velocity": 0.5905511811023622
        },
        {
          "duration": 0.33380672916666754,
          "durationTicks": 94,
          "midi": 42,
          "name": "F#2",
          "ticks": 11040,
          "time": 39.20453499999999,
          "velocity": 0.5905511811023622
        },
        {
          "duration": 0.33380672916666754,
          "durationTicks": 94,
          "midi": 36,
          "name": "C2",
          "ticks": 11136,
          "time": 39.545443999999996,
          "velocity": 0.5905511811023622
        },
        {
          "duration": 0.33380672916666754,
          "durationTicks": 94,
          "midi": 42,
          "name": "F#2",
          "ticks": 11136,
          "time": 39.545443999999996,
          "velocity": 0.5905511811023622
        },
        {
          "duration": 0.33380672916667464,
          "durationTicks": 94,
          "midi": 36,
          "name": "C2",
          "ticks": 11232,
          "time": 39.88635299999999,
          "velocity": 0.5905511811023622
        },
        {
          "duration": 0.33380672916667464,
          "durationTicks": 94,
          "midi": 42,
          "name": "F#2",
          "ticks": 11232,
          "time": 39.88635299999999,
          "velocity": 0.5905511811023622
        },
        {
          "duration": 0.5681816666666677,
          "durationTicks": 160,
          "midi": 38,
          "name": "D2",
          "ticks": 11328,
          "time": 40.227261999999996,
          "velocity": 0.5905511811023622
        },
        {
          "duration": 0.5681816666666677,
          "durationTicks": 160,
          "midi": 42,
          "name": "F#2",
          "ticks": 11328,
          "time": 40.227261999999996,
          "velocity": 0.5905511811023622
        },
        {
          "duration": 0.33380672916666754,
          "durationTicks": 94,
          "midi": 36,
          "name": "C2",
          "ticks": 11520,
          "time": 40.909079999999996,
          "velocity": 0.5905511811023622
        },
        {
          "duration": 0.33380672916666754,
          "durationTicks": 94,
          "midi": 42,
          "name": "F#2",
          "ticks": 11520,
          "time": 40.909079999999996,
          "velocity": 0.5905511811023622
        },
        {
          "duration": 0.33380672916667464,
          "durationTicks": 94,
          "midi": 36,
          "name": "C2",
          "ticks": 11616,
          "time": 41.24998899999999,
          "velocity": 0.5905511811023622
        },
        {
          "duration": 0.33380672916667464,
          "durationTicks": 94,
          "midi": 42,
          "name": "F#2",
          "ticks": 11616,
          "time": 41.24998899999999,
          "velocity": 0.5905511811023622
        },
        {
          "duration": 0.33380672916666754,
          "durationTicks": 94,
          "midi": 38,
          "name": "D2",
          "ticks": 11712,
          "time": 41.590897999999996,
          "velocity": 0.5905511811023622
        },
        {
          "duration": 0.33380672916666754,
          "durationTicks": 94,
          "midi": 42,
          "name": "F#2",
          "ticks": 11712,
          "time": 41.590897999999996,
          "velocity": 0.5905511811023622
        },
        {
          "duration": 0.33380672916667464,
          "durationTicks": 94,
          "midi": 42,
          "name": "F#2",
          "ticks": 11808,
          "time": 41.93180699999999,
          "velocity": 0.5905511811023622
        },
        {
          "duration": 0.33380672916666754,
          "durationTicks": 94,
          "midi": 36,
          "name": "C2",
          "ticks": 11904,
          "time": 42.272715999999996,
          "velocity": 0.5905511811023622
        },
        {
          "duration": 0.33380672916666754,
          "durationTicks": 94,
          "midi": 42,
          "name": "F#2",
          "ticks": 11904,
          "time": 42.272715999999996,
          "velocity": 0.5905511811023622
        },
        {
          "duration": 0.33380672916667464,
          "durationTicks": 94,
          "midi": 36,
          "name": "C2",
          "ticks": 12000,
          "time": 42.61362499999999,
          "velocity": 0.5905511811023622
        },
        {
          "duration": 0.33380672916667464,
          "durationTicks": 94,
          "midi": 42,
          "name": "F#2",
          "ticks": 12000,
          "time": 42.61362499999999,
          "velocity": 0.5905511811023622
        },
        {
          "duration": 0.33380672916666754,
          "durationTicks": 94,
          "midi": 38,
          "name": "D2",
          "ticks": 12096,
          "time": 42.954533999999995,
          "velocity": 0.5905511811023622
        },
        {
          "duration": 0.33380672916666754,
          "durationTicks": 94,
          "midi": 42,
          "name": "F#2",
          "ticks": 12096,
          "time": 42.954533999999995,
          "velocity": 0.5905511811023622
        },
        {
          "duration": 0.33380672916667464,
          "durationTicks": 94,
          "midi": 42,
          "name": "F#2",
          "ticks": 12192,
          "time": 43.29544299999999,
          "velocity": 0.5905511811023622
        },
        {
          "duration": 0.33380672916666043,
          "durationTicks": 94,
          "midi": 36,
          "name": "C2",
          "ticks": 12288,
          "time": 43.636351999999995,
          "velocity": 0.5905511811023622
        },
        {
          "duration": 0.33380672916666043,
          "durationTicks": 94,
          "midi": 42,
          "name": "F#2",
          "ticks": 12288,
          "time": 43.636351999999995,
          "velocity": 0.5905511811023622
        },
        {
          "duration": 0.33380672916666043,
          "durationTicks": 94,
          "midi": 36,
          "name": "C2",
          "ticks": 12384,
          "time": 43.977261,
          "velocity": 0.5905511811023622
        },
        {
          "duration": 0.33380672916666043,
          "durationTicks": 94,
          "midi": 42,
          "name": "F#2",
          "ticks": 12384,
          "time": 43.977261,
          "velocity": 0.5905511811023622
        },
        {
          "duration": 0.33380672916666043,
          "durationTicks": 94,
          "midi": 38,
          "name": "D2",
          "ticks": 12480,
          "time": 44.318169999999995,
          "velocity": 0.5905511811023622
        },
        {
          "duration": 0.33380672916666043,
          "durationTicks": 94,
          "midi": 42,
          "name": "F#2",
          "ticks": 12480,
          "time": 44.318169999999995,
          "velocity": 0.5905511811023622
        },
        {
          "duration": 0.33380672916666043,
          "durationTicks": 94,
          "midi": 42,
          "name": "F#2",
          "ticks": 12576,
          "time": 44.659079,
          "velocity": 0.5905511811023622
        },
        {
          "duration": 0.33380672916666043,
          "durationTicks": 94,
          "midi": 36,
          "name": "C2",
          "ticks": 12672,
          "time": 44.999987999999995,
          "velocity": 0.5905511811023622
        },
        {
          "duration": 0.33380672916666043,
          "durationTicks": 94,
          "midi": 42,
          "name": "F#2",
          "ticks": 12672,
          "time": 44.999987999999995,
          "velocity": 0.5905511811023622
        },
        {
          "duration": 0.33380672916666043,
          "durationTicks": 94,
          "midi": 36,
          "name": "C2",
          "ticks": 12768,
          "time": 45.340897,
          "velocity": 0.5905511811023622
        },
        {
          "duration": 0.33380672916666043,
          "durationTicks": 94,
          "midi": 42,
          "name": "F#2",
          "ticks": 12768,
          "time": 45.340897,
          "velocity": 0.5905511811023622
        },
        {
          "duration": 0.5681816666666606,
          "durationTicks": 160,
          "midi": 38,
          "name": "D2",
          "ticks": 12864,
          "time": 45.681805999999995,
          "velocity": 0.5905511811023622
        },
        {
          "duration": 0.5681816666666606,
          "durationTicks": 160,
          "midi": 42,
          "name": "F#2",
          "ticks": 12864,
          "time": 45.681805999999995,
          "velocity": 0.5905511811023622
        },
        {
          "duration": 0.33380672916666043,
          "durationTicks": 94,
          "midi": 36,
          "name": "C2",
          "ticks": 13056,
          "time": 46.363623999999994,
          "velocity": 0.5905511811023622
        },
        {
          "duration": 0.33380672916666043,
          "durationTicks": 94,
          "midi": 42,
          "name": "F#2",
          "ticks": 13056,
          "time": 46.363623999999994,
          "velocity": 0.5905511811023622
        },
        {
          "duration": 0.33380672916666043,
          "durationTicks": 94,
          "midi": 36,
          "name": "C2",
          "ticks": 13152,
          "time": 46.704533,
          "velocity": 0.5905511811023622
        },
        {
          "duration": 0.33380672916666043,
          "durationTicks": 94,
          "midi": 42,
          "name": "F#2",
          "ticks": 13152,
          "time": 46.704533,
          "velocity": 0.5905511811023622
        },
        {
          "duration": 0.33380672916666043,
          "durationTicks": 94,
          "midi": 38,
          "name": "D2",
          "ticks": 13248,
          "time": 47.045441999999994,
          "velocity": 0.5905511811023622
        },
        {
          "duration": 0.33380672916666043,
          "durationTicks": 94,
          "midi": 42,
          "name": "F#2",
          "ticks": 13248,
          "time": 47.045441999999994,
          "velocity": 0.5905511811023622
        },
        {
          "duration": 0.33380672916666043,
          "durationTicks": 94,
          "midi": 42,
          "name": "F#2",
          "ticks": 13344,
          "time": 47.386351,
          "velocity": 0.5905511811023622
        },
        {
          "duration": 0.33380672916666754,
          "durationTicks": 94,
          "midi": 36,
          "name": "C2",
          "ticks": 13440,
          "time": 47.727259999999994,
          "velocity": 0.5905511811023622
        },
        {
          "duration": 0.33380672916666754,
          "durationTicks": 94,
          "midi": 42,
          "name": "F#2",
          "ticks": 13440,
          "time": 47.727259999999994,
          "velocity": 0.5905511811023622
        },
        {
          "duration": 0.33380672916666043,
          "durationTicks": 94,
          "midi": 36,
          "name": "C2",
          "ticks": 13536,
          "time": 48.068169,
          "velocity": 0.5905511811023622
        },
        {
          "duration": 0.33380672916666043,
          "durationTicks": 94,
          "midi": 42,
          "name": "F#2",
          "ticks": 13536,
          "time": 48.068169,
          "velocity": 0.5905511811023622
        },
        {
          "duration": 0.33380672916666754,
          "durationTicks": 94,
          "midi": 38,
          "name": "D2",
          "ticks": 13632,
          "time": 48.409077999999994,
          "velocity": 0.5905511811023622
        },
        {
          "duration": 0.33380672916666754,
          "durationTicks": 94,
          "midi": 42,
          "name": "F#2",
          "ticks": 13632,
          "time": 48.409077999999994,
          "velocity": 0.5905511811023622
        },
        {
          "duration": 0.33380672916666043,
          "durationTicks": 94,
          "midi": 42,
          "name": "F#2",
          "ticks": 13728,
          "time": 48.749987,
          "velocity": 0.5905511811023622
        },
        {
          "duration": 0.33380672916666754,
          "durationTicks": 94,
          "midi": 36,
          "name": "C2",
          "ticks": 13824,
          "time": 49.090895999999994,
          "velocity": 0.5905511811023622
        },
        {
          "duration": 0.33380672916666754,
          "durationTicks": 94,
          "midi": 42,
          "name": "F#2",
          "ticks": 13824,
          "time": 49.090895999999994,
          "velocity": 0.5905511811023622
        },
        {
          "duration": 0.33380672916666043,
          "durationTicks": 94,
          "midi": 36,
          "name": "C2",
          "ticks": 13920,
          "time": 49.431805,
          "velocity": 0.5905511811023622
        },
        {
          "duration": 0.33380672916666043,
          "durationTicks": 94,
          "midi": 42,
          "name": "F#2",
          "ticks": 13920,
          "time": 49.431805,
          "velocity": 0.5905511811023622
        },
        {
          "duration": 0.33380672916666754,
          "durationTicks": 94,
          "midi": 38,
          "name": "D2",
          "ticks": 14016,
          "time": 49.77271399999999,
          "velocity": 0.5905511811023622
        },
        {
          "duration": 0.33380672916666754,
          "durationTicks": 94,
          "midi": 42,
          "name": "F#2",
          "ticks": 14016,
          "time": 49.77271399999999,
          "velocity": 0.5905511811023622
        },
        {
          "duration": 0.33380672916666043,
          "durationTicks": 94,
          "midi": 42,
          "name": "F#2",
          "ticks": 14112,
          "time": 50.113623,
          "velocity": 0.5905511811023622
        },
        {
          "duration": 0.33380672916666754,
          "durationTicks": 94,
          "midi": 36,
          "name": "C2",
          "ticks": 14208,
          "time": 50.45453199999999,
          "velocity": 0.5905511811023622
        },
        {
          "duration": 0.33380672916666754,
          "durationTicks": 94,
          "midi": 42,
          "name": "F#2",
          "ticks": 14208,
          "time": 50.45453199999999,
          "velocity": 0.5905511811023622
        },
        {
          "duration": 0.33380672916666043,
          "durationTicks": 94,
          "midi": 36,
          "name": "C2",
          "ticks": 14304,
          "time": 50.795441,
          "velocity": 0.5905511811023622
        },
        {
          "duration": 0.33380672916666043,
          "durationTicks": 94,
          "midi": 42,
          "name": "F#2",
          "ticks": 14304,
          "time": 50.795441,
          "velocity": 0.5905511811023622
        },
        {
          "duration": 0.5681816666666677,
          "durationTicks": 160,
          "midi": 38,
          "name": "D2",
          "ticks": 14400,
          "time": 51.13634999999999,
          "velocity": 0.5905511811023622
        },
        {
          "duration": 0.5681816666666677,
          "durationTicks": 160,
          "midi": 42,
          "name": "F#2",
          "ticks": 14400,
          "time": 51.13634999999999,
          "velocity": 0.5905511811023622
        },
        {
          "duration": 0.33380672916666754,
          "durationTicks": 94,
          "midi": 36,
          "name": "C2",
          "ticks": 14592,
          "time": 51.81816799999999,
          "velocity": 0.5905511811023622
        },
        {
          "duration": 0.33380672916666754,
          "durationTicks": 94,
          "midi": 42,
          "name": "F#2",
          "ticks": 14592,
          "time": 51.81816799999999,
          "velocity": 0.5905511811023622
        },
        {
          "duration": 0.33380672916666043,
          "durationTicks": 94,
          "midi": 36,
          "name": "C2",
          "ticks": 14688,
          "time": 52.159076999999996,
          "velocity": 0.5905511811023622
        },
        {
          "duration": 0.33380672916666043,
          "durationTicks": 94,
          "midi": 42,
          "name": "F#2",
          "ticks": 14688,
          "time": 52.159076999999996,
          "velocity": 0.5905511811023622
        },
        {
          "duration": 0.33380672916666754,
          "durationTicks": 94,
          "midi": 38,
          "name": "D2",
          "ticks": 14784,
          "time": 52.49998599999999,
          "velocity": 0.5905511811023622
        },
        {
          "duration": 0.33380672916666754,
          "durationTicks": 94,
          "midi": 42,
          "name": "F#2",
          "ticks": 14784,
          "time": 52.49998599999999,
          "velocity": 0.5905511811023622
        },
        {
          "duration": 0.33380672916666043,
          "durationTicks": 94,
          "midi": 42,
          "name": "F#2",
          "ticks": 14880,
          "time": 52.840894999999996,
          "velocity": 0.5905511811023622
        },
        {
          "duration": 0.33380672916666754,
          "durationTicks": 94,
          "midi": 36,
          "name": "C2",
          "ticks": 14976,
          "time": 53.18180399999999,
          "velocity": 0.5905511811023622
        },
        {
          "duration": 0.33380672916666754,
          "durationTicks": 94,
          "midi": 42,
          "name": "F#2",
          "ticks": 14976,
          "time": 53.18180399999999,
          "velocity": 0.5905511811023622
        },
        {
          "duration": 0.33380672916666043,
          "durationTicks": 94,
          "midi": 36,
          "name": "C2",
          "ticks": 15072,
          "time": 53.522712999999996,
          "velocity": 0.5905511811023622
        },
        {
          "duration": 0.33380672916666043,
          "durationTicks": 94,
          "midi": 42,
          "name": "F#2",
          "ticks": 15072,
          "time": 53.522712999999996,
          "velocity": 0.5905511811023622
        },
        {
          "duration": 0.33380672916666754,
          "durationTicks": 94,
          "midi": 38,
          "name": "D2",
          "ticks": 15168,
          "time": 53.86362199999999,
          "velocity": 0.5905511811023622
        },
        {
          "duration": 0.33380672916666754,
          "durationTicks": 94,
          "midi": 42,
          "name": "F#2",
          "ticks": 15168,
          "time": 53.86362199999999,
          "velocity": 0.5905511811023622
        },
        {
          "duration": 0.33380672916666043,
          "durationTicks": 94,
          "midi": 42,
          "name": "F#2",
          "ticks": 15264,
          "time": 54.204530999999996,
          "velocity": 0.5905511811023622
        },
        {
          "duration": 0.33380672916666754,
          "durationTicks": 94,
          "midi": 36,
          "name": "C2",
          "ticks": 15360,
          "time": 54.54543999999999,
          "velocity": 0.5905511811023622
        },
        {
          "duration": 0.33380672916666754,
          "durationTicks": 94,
          "midi": 42,
          "name": "F#2",
          "ticks": 15360,
          "time": 54.54543999999999,
          "velocity": 0.5905511811023622
        },
        {
          "duration": 0.33380672916666043,
          "durationTicks": 94,
          "midi": 36,
          "name": "C2",
          "ticks": 15456,
          "time": 54.886348999999996,
          "velocity": 0.5905511811023622
        },
        {
          "duration": 0.33380672916666043,
          "durationTicks": 94,
          "midi": 42,
          "name": "F#2",
          "ticks": 15456,
          "time": 54.886348999999996,
          "velocity": 0.5905511811023622
        },
        {
          "duration": 0.33380672916666754,
          "durationTicks": 94,
          "midi": 38,
          "name": "D2",
          "ticks": 15552,
          "time": 55.22725799999999,
          "velocity": 0.5905511811023622
        },
        {
          "duration": 0.33380672916666754,
          "durationTicks": 94,
          "midi": 42,
          "name": "F#2",
          "ticks": 15552,
          "time": 55.22725799999999,
          "velocity": 0.5905511811023622
        },
        {
          "duration": 0.33380672916666043,
          "durationTicks": 94,
          "midi": 42,
          "name": "F#2",
          "ticks": 15648,
          "time": 55.568166999999995,
          "velocity": 0.5905511811023622
        },
        {
          "duration": 0.33380672916666754,
          "durationTicks": 94,
          "midi": 36,
          "name": "C2",
          "ticks": 15744,
          "time": 55.90907599999999,
          "velocity": 0.5905511811023622
        },
        {
          "duration": 0.33380672916666754,
          "durationTicks": 94,
          "midi": 42,
          "name": "F#2",
          "ticks": 15744,
          "time": 55.90907599999999,
          "velocity": 0.5905511811023622
        },
        {
          "duration": 0.33380672916666043,
          "durationTicks": 94,
          "midi": 36,
          "name": "C2",
          "ticks": 15840,
          "time": 56.249984999999995,
          "velocity": 0.5905511811023622
        },
        {
          "duration": 0.33380672916666043,
          "durationTicks": 94,
          "midi": 42,
          "name": "F#2",
          "ticks": 15840,
          "time": 56.249984999999995,
          "velocity": 0.5905511811023622
        },
        {
          "duration": 0.5681816666666677,
          "durationTicks": 160,
          "midi": 38,
          "name": "D2",
          "ticks": 15936,
          "time": 56.59089399999999,
          "velocity": 0.5905511811023622
        },
        {
          "duration": 0.5681816666666677,
          "durationTicks": 160,
          "midi": 42,
          "name": "F#2",
          "ticks": 15936,
          "time": 56.59089399999999,
          "velocity": 0.5905511811023622
        },
        {
          "duration": 0.33380672916666754,
          "durationTicks": 94,
          "midi": 36,
          "name": "C2",
          "ticks": 16128,
          "time": 57.27271199999999,
          "velocity": 0.5905511811023622
        },
        {
          "duration": 0.33380672916666754,
          "durationTicks": 94,
          "midi": 42,
          "name": "F#2",
          "ticks": 16128,
          "time": 57.27271199999999,
          "velocity": 0.5905511811023622
        },
        {
          "duration": 0.33380672916666043,
          "durationTicks": 94,
          "midi": 36,
          "name": "C2",
          "ticks": 16224,
          "time": 57.613620999999995,
          "velocity": 0.5905511811023622
        },
        {
          "duration": 0.33380672916666043,
          "durationTicks": 94,
          "midi": 42,
          "name": "F#2",
          "ticks": 16224,
          "time": 57.613620999999995,
          "velocity": 0.5905511811023622
        },
        {
          "duration": 0.33380672916666754,
          "durationTicks": 94,
          "midi": 38,
          "name": "D2",
          "ticks": 16320,
          "time": 57.95452999999999,
          "velocity": 0.5905511811023622
        },
        {
          "duration": 0.33380672916666754,
          "durationTicks": 94,
          "midi": 42,
          "name": "F#2",
          "ticks": 16320,
          "time": 57.95452999999999,
          "velocity": 0.5905511811023622
        },
        {
          "duration": 0.33380672916666043,
          "durationTicks": 94,
          "midi": 42,
          "name": "F#2",
          "ticks": 16416,
          "time": 58.295438999999995,
          "velocity": 0.5905511811023622
        },
        {
          "duration": 0.33380672916666754,
          "durationTicks": 94,
          "midi": 36,
          "name": "C2",
          "ticks": 16512,
          "time": 58.63634799999999,
          "velocity": 0.5905511811023622
        },
        {
          "duration": 0.33380672916666754,
          "durationTicks": 94,
          "midi": 42,
          "name": "F#2",
          "ticks": 16512,
          "time": 58.63634799999999,
          "velocity": 0.5905511811023622
        },
        {
          "duration": 0.33380672916666043,
          "durationTicks": 94,
          "midi": 36,
          "name": "C2",
          "ticks": 16608,
          "time": 58.977256999999994,
          "velocity": 0.5905511811023622
        },
        {
          "duration": 0.33380672916666043,
          "durationTicks": 94,
          "midi": 42,
          "name": "F#2",
          "ticks": 16608,
          "time": 58.977256999999994,
          "velocity": 0.5905511811023622
        },
        {
          "duration": 0.33380672916666754,
          "durationTicks": 94,
          "midi": 38,
          "name": "D2",
          "ticks": 16704,
          "time": 59.31816599999999,
          "velocity": 0.5905511811023622
        },
        {
          "duration": 0.33380672916666754,
          "durationTicks": 94,
          "midi": 42,
          "name": "F#2",
          "ticks": 16704,
          "time": 59.31816599999999,
          "velocity": 0.5905511811023622
        },
        {
          "duration": 0.33380672916666043,
          "durationTicks": 94,
          "midi": 42,
          "name": "F#2",
          "ticks": 16800,
          "time": 59.659074999999994,
          "velocity": 0.5905511811023622
        },
        {
          "duration": 0.33380672916666754,
          "durationTicks": 94,
          "midi": 36,
          "name": "C2",
          "ticks": 16896,
          "time": 59.99998399999999,
          "velocity": 0.5905511811023622
        },
        {
          "duration": 0.33380672916666754,
          "durationTicks": 94,
          "midi": 42,
          "name": "F#2",
          "ticks": 16896,
          "time": 59.99998399999999,
          "velocity": 0.5905511811023622
        },
        {
          "duration": 0.33380672916666043,
          "durationTicks": 94,
          "midi": 36,
          "name": "C2",
          "ticks": 16992,
          "time": 60.340892999999994,
          "velocity": 0.5905511811023622
        },
        {
          "duration": 0.33380672916666043,
          "durationTicks": 94,
          "midi": 42,
          "name": "F#2",
          "ticks": 16992,
          "time": 60.340892999999994,
          "velocity": 0.5905511811023622
        },
        {
          "duration": 0.33380672916666754,
          "durationTicks": 94,
          "midi": 38,
          "name": "D2",
          "ticks": 17088,
          "time": 60.68180199999999,
          "velocity": 0.5905511811023622
        },
        {
          "duration": 0.33380672916666754,
          "durationTicks": 94,
          "midi": 42,
          "name": "F#2",
          "ticks": 17088,
          "time": 60.68180199999999,
          "velocity": 0.5905511811023622
        },
        {
          "duration": 0.33380672916666043,
          "durationTicks": 94,
          "midi": 42,
          "name": "F#2",
          "ticks": 17184,
          "time": 61.022710999999994,
          "velocity": 0.5905511811023622
        },
        {
          "duration": 0.33380672916666754,
          "durationTicks": 94,
          "midi": 36,
          "name": "C2",
          "ticks": 17280,
          "time": 61.36361999999999,
          "velocity": 0.5905511811023622
        },
        {
          "duration": 0.33380672916666754,
          "durationTicks": 94,
          "midi": 42,
          "name": "F#2",
          "ticks": 17280,
          "time": 61.36361999999999,
          "velocity": 0.5905511811023622
        },
        {
          "duration": 0.33380672916666043,
          "durationTicks": 94,
          "midi": 36,
          "name": "C2",
          "ticks": 17376,
          "time": 61.704528999999994,
          "velocity": 0.5905511811023622
        },
        {
          "duration": 0.33380672916666043,
          "durationTicks": 94,
          "midi": 42,
          "name": "F#2",
          "ticks": 17376,
          "time": 61.704528999999994,
          "velocity": 0.5905511811023622
        },
        {
          "duration": 0.5681816666666677,
          "durationTicks": 160,
          "midi": 38,
          "name": "D2",
          "ticks": 17472,
          "time": 62.04543799999999,
          "velocity": 0.5905511811023622
        },
        {
          "duration": 0.5681816666666677,
          "durationTicks": 160,
          "midi": 42,
          "name": "F#2",
          "ticks": 17472,
          "time": 62.04543799999999,
          "velocity": 0.5905511811023622
        },
        {
          "duration": 0.33380672916666754,
          "durationTicks": 94,
          "midi": 36,
          "name": "C2",
          "ticks": 17664,
          "time": 62.72725599999999,
          "velocity": 0.5905511811023622
        },
        {
          "duration": 0.33380672916666754,
          "durationTicks": 94,
          "midi": 42,
          "name": "F#2",
          "ticks": 17664,
          "time": 62.72725599999999,
          "velocity": 0.5905511811023622
        },
        {
          "duration": 0.33380672916666043,
          "durationTicks": 94,
          "midi": 36,
          "name": "C2",
          "ticks": 17760,
          "time": 63.06816499999999,
          "velocity": 0.5905511811023622
        },
        {
          "duration": 0.33380672916666043,
          "durationTicks": 94,
          "midi": 42,
          "name": "F#2",
          "ticks": 17760,
          "time": 63.06816499999999,
          "velocity": 0.5905511811023622
        },
        {
          "duration": 0.33380672916666754,
          "durationTicks": 94,
          "midi": 38,
          "name": "D2",
          "ticks": 17856,
          "time": 63.40907399999999,
          "velocity": 0.5905511811023622
        },
        {
          "duration": 0.33380672916666754,
          "durationTicks": 94,
          "midi": 42,
          "name": "F#2",
          "ticks": 17856,
          "time": 63.40907399999999,
          "velocity": 0.5905511811023622
        },
        {
          "duration": 0.33380672916666043,
          "durationTicks": 94,
          "midi": 42,
          "name": "F#2",
          "ticks": 17952,
          "time": 63.74998299999999,
          "velocity": 0.5905511811023622
        },
        {
          "duration": 0.3338067291666533,
          "durationTicks": 94,
          "midi": 36,
          "name": "C2",
          "ticks": 18048,
          "time": 64.090892,
          "velocity": 0.5905511811023622
        },
        {
          "duration": 0.3338067291666533,
          "durationTicks": 94,
          "midi": 42,
          "name": "F#2",
          "ticks": 18048,
          "time": 64.090892,
          "velocity": 0.5905511811023622
        },
        {
          "duration": 0.33380672916666754,
          "durationTicks": 94,
          "midi": 36,
          "name": "C2",
          "ticks": 18144,
          "time": 64.431801,
          "velocity": 0.5905511811023622
        },
        {
          "duration": 0.33380672916666754,
          "durationTicks": 94,
          "midi": 42,
          "name": "F#2",
          "ticks": 18144,
          "time": 64.431801,
          "velocity": 0.5905511811023622
        },
        {
          "duration": 0.33380672916666754,
          "durationTicks": 94,
          "midi": 38,
          "name": "D2",
          "ticks": 18240,
          "time": 64.77270999999999,
          "velocity": 0.5905511811023622
        },
        {
          "duration": 0.33380672916666754,
          "durationTicks": 94,
          "midi": 42,
          "name": "F#2",
          "ticks": 18240,
          "time": 64.77270999999999,
          "velocity": 0.5905511811023622
        },
        {
          "duration": 0.33380672916666754,
          "durationTicks": 94,
          "midi": 42,
          "name": "F#2",
          "ticks": 18336,
          "time": 65.11361899999999,
          "velocity": 0.5905511811023622
        },
        {
          "duration": 0.3338067291666533,
          "durationTicks": 94,
          "midi": 36,
          "name": "C2",
          "ticks": 18432,
          "time": 65.454528,
          "velocity": 0.5905511811023622
        },
        {
          "duration": 0.3338067291666533,
          "durationTicks": 94,
          "midi": 42,
          "name": "F#2",
          "ticks": 18432,
          "time": 65.454528,
          "velocity": 0.5905511811023622
        },
        {
          "duration": 0.33380672916666754,
          "durationTicks": 94,
          "midi": 36,
          "name": "C2",
          "ticks": 18528,
          "time": 65.79543699999999,
          "velocity": 0.5905511811023622
        },
        {
          "duration": 0.33380672916666754,
          "durationTicks": 94,
          "midi": 42,
          "name": "F#2",
          "ticks": 18528,
          "time": 65.79543699999999,
          "velocity": 0.5905511811023622
        },
        {
          "duration": 0.33380672916666754,
          "durationTicks": 94,
          "midi": 38,
          "name": "D2",
          "ticks": 18624,
          "time": 66.13634599999999,
          "velocity": 0.5905511811023622
        },
        {
          "duration": 0.33380672916666754,
          "durationTicks": 94,
          "midi": 42,
          "name": "F#2",
          "ticks": 18624,
          "time": 66.13634599999999,
          "velocity": 0.5905511811023622
        },
        {
          "duration": 0.3338067291666533,
          "durationTicks": 94,
          "midi": 42,
          "name": "F#2",
          "ticks": 18720,
          "time": 66.477255,
          "velocity": 0.5905511811023622
        },
        {
          "duration": 0.3338067291666533,
          "durationTicks": 94,
          "midi": 36,
          "name": "C2",
          "ticks": 18816,
          "time": 66.818164,
          "velocity": 0.5905511811023622
        },
        {
          "duration": 0.3338067291666533,
          "durationTicks": 94,
          "midi": 42,
          "name": "F#2",
          "ticks": 18816,
          "time": 66.818164,
          "velocity": 0.5905511811023622
        },
        {
          "duration": 0.33380672916666754,
          "durationTicks": 94,
          "midi": 36,
          "name": "C2",
          "ticks": 18912,
          "time": 67.15907299999999,
          "velocity": 0.5905511811023622
        },
        {
          "duration": 0.33380672916666754,
          "durationTicks": 94,
          "midi": 42,
          "name": "F#2",
          "ticks": 18912,
          "time": 67.15907299999999,
          "velocity": 0.5905511811023622
        },
        {
          "duration": 0.5681816666666606,
          "durationTicks": 160,
          "midi": 38,
          "name": "D2",
          "ticks": 19008,
          "time": 67.49998199999999,
          "velocity": 0.5905511811023622
        },
        {
          "duration": 0.5681816666666606,
          "durationTicks": 160,
          "midi": 42,
          "name": "F#2",
          "ticks": 19008,
          "time": 67.49998199999999,
          "velocity": 0.5905511811023622
        },
        {
          "duration": 0.3338067291666533,
          "durationTicks": 94,
          "midi": 36,
          "name": "C2",
          "ticks": 19200,
          "time": 68.1818,
          "velocity": 0.5905511811023622
        },
        {
          "duration": 0.3338067291666533,
          "durationTicks": 94,
          "midi": 42,
          "name": "F#2",
          "ticks": 19200,
          "time": 68.1818,
          "velocity": 0.5905511811023622
        },
        {
          "duration": 0.33380672916666754,
          "durationTicks": 94,
          "midi": 36,
          "name": "C2",
          "ticks": 19296,
          "time": 68.52270899999999,
          "velocity": 0.5905511811023622
        },
        {
          "duration": 0.33380672916666754,
          "durationTicks": 94,
          "midi": 42,
          "name": "F#2",
          "ticks": 19296,
          "time": 68.52270899999999,
          "velocity": 0.5905511811023622
        },
        {
          "duration": 0.33380672916666754,
          "durationTicks": 94,
          "midi": 38,
          "name": "D2",
          "ticks": 19392,
          "time": 68.86361799999999,
          "velocity": 0.5905511811023622
        },
        {
          "duration": 0.33380672916666754,
          "durationTicks": 94,
          "midi": 42,
          "name": "F#2",
          "ticks": 19392,
          "time": 68.86361799999999,
          "velocity": 0.5905511811023622
        },
        {
          "duration": 0.3338067291666533,
          "durationTicks": 94,
          "midi": 42,
          "name": "F#2",
          "ticks": 19488,
          "time": 69.204527,
          "velocity": 0.5905511811023622
        },
        {
          "duration": 0.33380672916666754,
          "durationTicks": 94,
          "midi": 36,
          "name": "C2",
          "ticks": 19584,
          "time": 69.545436,
          "velocity": 0.5905511811023622
        },
        {
          "duration": 0.33380672916666754,
          "durationTicks": 94,
          "midi": 42,
          "name": "F#2",
          "ticks": 19584,
          "time": 69.545436,
          "velocity": 0.5905511811023622
        },
        {
          "duration": 0.33380672916666754,
          "durationTicks": 94,
          "midi": 36,
          "name": "C2",
          "ticks": 19680,
          "time": 69.88634499999999,
          "velocity": 0.5905511811023622
        },
        {
          "duration": 0.33380672916666754,
          "durationTicks": 94,
          "midi": 42,
          "name": "F#2",
          "ticks": 19680,
          "time": 69.88634499999999,
          "velocity": 0.5905511811023622
        },
        {
          "duration": 0.33380672916666754,
          "durationTicks": 94,
          "midi": 38,
          "name": "D2",
          "ticks": 19776,
          "time": 70.22725399999999,
          "velocity": 0.5905511811023622
        },
        {
          "duration": 0.33380672916666754,
          "durationTicks": 94,
          "midi": 42,
          "name": "F#2",
          "ticks": 19776,
          "time": 70.22725399999999,
          "velocity": 0.5905511811023622
        },
        {
          "duration": 0.3338067291666533,
          "durationTicks": 94,
          "midi": 42,
          "name": "F#2",
          "ticks": 19872,
          "time": 70.568163,
          "velocity": 0.5905511811023622
        },
        {
          "duration": 0.33380672916666754,
          "durationTicks": 94,
          "midi": 36,
          "name": "C2",
          "ticks": 19968,
          "time": 70.909072,
          "velocity": 0.5905511811023622
        },
        {
          "duration": 0.33380672916666754,
          "durationTicks": 94,
          "midi": 42,
          "name": "F#2",
          "ticks": 19968,
          "time": 70.909072,
          "velocity": 0.5905511811023622
        },
        {
          "duration": 0.33380672916666754,
          "durationTicks": 94,
          "midi": 36,
          "name": "C2",
          "ticks": 20064,
          "time": 71.24998099999999,
          "velocity": 0.5905511811023622
        },
        {
          "duration": 0.33380672916666754,
          "durationTicks": 94,
          "midi": 42,
          "name": "F#2",
          "ticks": 20064,
          "time": 71.24998099999999,
          "velocity": 0.5905511811023622
        },
        {
          "duration": 0.33380672916666754,
          "durationTicks": 94,
          "midi": 38,
          "name": "D2",
          "ticks": 20160,
          "time": 71.59088999999999,
          "velocity": 0.5905511811023622
        },
        {
          "duration": 0.33380672916666754,
          "durationTicks": 94,
          "midi": 42,
          "name": "F#2",
          "ticks": 20160,
          "time": 71.59088999999999,
          "velocity": 0.5905511811023622
        },
        {
          "duration": 0.3338067291666533,
          "durationTicks": 94,
          "midi": 42,
          "name": "F#2",
          "ticks": 20256,
          "time": 71.931799,
          "velocity": 0.5905511811023622
        },
        {
          "duration": 0.33380672916666754,
          "durationTicks": 94,
          "midi": 36,
          "name": "C2",
          "ticks": 20352,
          "time": 72.272708,
          "velocity": 0.5905511811023622
        },
        {
          "duration": 0.33380672916666754,
          "durationTicks": 94,
          "midi": 42,
          "name": "F#2",
          "ticks": 20352,
          "time": 72.272708,
          "velocity": 0.5905511811023622
        },
        {
          "duration": 0.33380672916666754,
          "durationTicks": 94,
          "midi": 36,
          "name": "C2",
          "ticks": 20448,
          "time": 72.61361699999999,
          "velocity": 0.5905511811023622
        },
        {
          "duration": 0.33380672916666754,
          "durationTicks": 94,
          "midi": 42,
          "name": "F#2",
          "ticks": 20448,
          "time": 72.61361699999999,
          "velocity": 0.5905511811023622
        },
        {
          "duration": 0.5681816666666748,
          "durationTicks": 160,
          "midi": 38,
          "name": "D2",
          "ticks": 20544,
          "time": 72.95452599999999,
          "velocity": 0.5905511811023622
        },
        {
          "duration": 0.5681816666666748,
          "durationTicks": 160,
          "midi": 42,
          "name": "F#2",
          "ticks": 20544,
          "time": 72.95452599999999,
          "velocity": 0.5905511811023622
        },
        {
          "duration": 0.33380672916666754,
          "durationTicks": 94,
          "midi": 36,
          "name": "C2",
          "ticks": 20736,
          "time": 73.636344,
          "velocity": 0.5905511811023622
        },
        {
          "duration": 0.33380672916666754,
          "durationTicks": 94,
          "midi": 42,
          "name": "F#2",
          "ticks": 20736,
          "time": 73.636344,
          "velocity": 0.5905511811023622
        },
        {
          "duration": 0.33380672916666754,
          "durationTicks": 94,
          "midi": 36,
          "name": "C2",
          "ticks": 20832,
          "time": 73.97725299999999,
          "velocity": 0.5905511811023622
        },
        {
          "duration": 0.33380672916666754,
          "durationTicks": 94,
          "midi": 42,
          "name": "F#2",
          "ticks": 20832,
          "time": 73.97725299999999,
          "velocity": 0.5905511811023622
        },
        {
          "duration": 0.33380672916666754,
          "durationTicks": 94,
          "midi": 38,
          "name": "D2",
          "ticks": 20928,
          "time": 74.31816199999999,
          "velocity": 0.5905511811023622
        },
        {
          "duration": 0.33380672916666754,
          "durationTicks": 94,
          "midi": 42,
          "name": "F#2",
          "ticks": 20928,
          "time": 74.31816199999999,
          "velocity": 0.5905511811023622
        },
        {
          "duration": 0.3338067291666533,
          "durationTicks": 94,
          "midi": 42,
          "name": "F#2",
          "ticks": 21024,
          "time": 74.659071,
          "velocity": 0.5905511811023622
        },
        {
          "duration": 0.33380672916666754,
          "durationTicks": 94,
          "midi": 36,
          "name": "C2",
          "ticks": 21120,
          "time": 74.99998,
          "velocity": 0.5905511811023622
        },
        {
          "duration": 0.33380672916666754,
          "durationTicks": 94,
          "midi": 42,
          "name": "F#2",
          "ticks": 21120,
          "time": 74.99998,
          "velocity": 0.5905511811023622
        },
        {
          "duration": 0.33380672916666754,
          "durationTicks": 94,
          "midi": 36,
          "name": "C2",
          "ticks": 21216,
          "time": 75.34088899999999,
          "velocity": 0.5905511811023622
        },
        {
          "duration": 0.33380672916666754,
          "durationTicks": 94,
          "midi": 42,
          "name": "F#2",
          "ticks": 21216,
          "time": 75.34088899999999,
          "velocity": 0.5905511811023622
        },
        {
          "duration": 0.33380672916666754,
          "durationTicks": 94,
          "midi": 38,
          "name": "D2",
          "ticks": 21312,
          "time": 75.68179799999999,
          "velocity": 0.5905511811023622
        },
        {
          "duration": 0.33380672916666754,
          "durationTicks": 94,
          "midi": 42,
          "name": "F#2",
          "ticks": 21312,
          "time": 75.68179799999999,
          "velocity": 0.5905511811023622
        },
        {
          "duration": 0.3338067291666533,
          "durationTicks": 94,
          "midi": 42,
          "name": "F#2",
          "ticks": 21408,
          "time": 76.022707,
          "velocity": 0.5905511811023622
        },
        {
          "duration": 0.33380672916666754,
          "durationTicks": 94,
          "midi": 36,
          "name": "C2",
          "ticks": 21504,
          "time": 76.363616,
          "velocity": 0.5905511811023622
        },
        {
          "duration": 0.33380672916666754,
          "durationTicks": 94,
          "midi": 42,
          "name": "F#2",
          "ticks": 21504,
          "time": 76.363616,
          "velocity": 0.5905511811023622
        },
        {
          "duration": 0.33380672916666754,
          "durationTicks": 94,
          "midi": 36,
          "name": "C2",
          "ticks": 21600,
          "time": 76.70452499999999,
          "velocity": 0.5905511811023622
        },
        {
          "duration": 0.33380672916666754,
          "durationTicks": 94,
          "midi": 42,
          "name": "F#2",
          "ticks": 21600,
          "time": 76.70452499999999,
          "velocity": 0.5905511811023622
        },
        {
          "duration": 0.33380672916666754,
          "durationTicks": 94,
          "midi": 38,
          "name": "D2",
          "ticks": 21696,
          "time": 77.04543399999999,
          "velocity": 0.5905511811023622
        },
        {
          "duration": 0.33380672916666754,
          "durationTicks": 94,
          "midi": 42,
          "name": "F#2",
          "ticks": 21696,
          "time": 77.04543399999999,
          "velocity": 0.5905511811023622
        },
        {
          "duration": 0.3338067291666533,
          "durationTicks": 94,
          "midi": 42,
          "name": "F#2",
          "ticks": 21792,
          "time": 77.386343,
          "velocity": 0.5905511811023622
        },
        {
          "duration": 0.33380672916666754,
          "durationTicks": 94,
          "midi": 36,
          "name": "C2",
          "ticks": 21888,
          "time": 77.727252,
          "velocity": 0.5905511811023622
        },
        {
          "duration": 0.33380672916666754,
          "durationTicks": 94,
          "midi": 42,
          "name": "F#2",
          "ticks": 21888,
          "time": 77.727252,
          "velocity": 0.5905511811023622
        },
        {
          "duration": 0.33380672916666754,
          "durationTicks": 94,
          "midi": 36,
          "name": "C2",
          "ticks": 21984,
          "time": 78.06816099999999,
          "velocity": 0.5905511811023622
        },
        {
          "duration": 0.33380672916666754,
          "durationTicks": 94,
          "midi": 42,
          "name": "F#2",
          "ticks": 21984,
          "time": 78.06816099999999,
          "velocity": 0.5905511811023622
        },
        {
          "duration": 0.5681816666666748,
          "durationTicks": 160,
          "midi": 38,
          "name": "D2",
          "ticks": 22080,
          "time": 78.40906999999999,
          "velocity": 0.5905511811023622
        },
        {
          "duration": 0.5681816666666748,
          "durationTicks": 160,
          "midi": 42,
          "name": "F#2",
          "ticks": 22080,
          "time": 78.40906999999999,
          "velocity": 0.5905511811023622
        },
        {
          "duration": 0.33380672916666754,
          "durationTicks": 94,
          "midi": 36,
          "name": "C2",
          "ticks": 22272,
          "time": 79.09088799999999,
          "velocity": 0.5905511811023622
        },
        {
          "duration": 0.33380672916666754,
          "durationTicks": 94,
          "midi": 42,
          "name": "F#2",
          "ticks": 22272,
          "time": 79.09088799999999,
          "velocity": 0.5905511811023622
        },
        {
          "duration": 0.33380672916666754,
          "durationTicks": 94,
          "midi": 36,
          "name": "C2",
          "ticks": 22368,
          "time": 79.43179699999999,
          "velocity": 0.5905511811023622
        },
        {
          "duration": 0.33380672916666754,
          "durationTicks": 94,
          "midi": 42,
          "name": "F#2",
          "ticks": 22368,
          "time": 79.43179699999999,
          "velocity": 0.5905511811023622
        },
        {
          "duration": 0.33380672916666754,
          "durationTicks": 94,
          "midi": 38,
          "name": "D2",
          "ticks": 22464,
          "time": 79.77270599999999,
          "velocity": 0.5905511811023622
        },
        {
          "duration": 0.33380672916666754,
          "durationTicks": 94,
          "midi": 42,
          "name": "F#2",
          "ticks": 22464,
          "time": 79.77270599999999,
          "velocity": 0.5905511811023622
        },
        {
          "duration": 0.3338067291666533,
          "durationTicks": 94,
          "midi": 42,
          "name": "F#2",
          "ticks": 22560,
          "time": 80.113615,
          "velocity": 0.5905511811023622
        },
        {
          "duration": 0.33380672916666754,
          "durationTicks": 94,
          "midi": 36,
          "name": "C2",
          "ticks": 22656,
          "time": 80.45452399999999,
          "velocity": 0.5905511811023622
        },
        {
          "duration": 0.33380672916666754,
          "durationTicks": 94,
          "midi": 42,
          "name": "F#2",
          "ticks": 22656,
          "time": 80.45452399999999,
          "velocity": 0.5905511811023622
        },
        {
          "duration": 0.33380672916666754,
          "durationTicks": 94,
          "midi": 36,
          "name": "C2",
          "ticks": 22752,
          "time": 80.79543299999999,
          "velocity": 0.5905511811023622
        },
        {
          "duration": 0.33380672916666754,
          "durationTicks": 94,
          "midi": 42,
          "name": "F#2",
          "ticks": 22752,
          "time": 80.79543299999999,
          "velocity": 0.5905511811023622
        },
        {
          "duration": 0.33380672916666754,
          "durationTicks": 94,
          "midi": 38,
          "name": "D2",
          "ticks": 22848,
          "time": 81.13634199999998,
          "velocity": 0.5905511811023622
        },
        {
          "duration": 0.33380672916666754,
          "durationTicks": 94,
          "midi": 42,
          "name": "F#2",
          "ticks": 22848,
          "time": 81.13634199999998,
          "velocity": 0.5905511811023622
        },
        {
          "duration": 0.3338067291666533,
          "durationTicks": 94,
          "midi": 42,
          "name": "F#2",
          "ticks": 22944,
          "time": 81.477251,
          "velocity": 0.5905511811023622
        },
        {
          "duration": 0.33380672916666754,
          "durationTicks": 94,
          "midi": 36,
          "name": "C2",
          "ticks": 23040,
          "time": 81.81815999999999,
          "velocity": 0.5905511811023622
        },
        {
          "duration": 0.33380672916666754,
          "durationTicks": 94,
          "midi": 42,
          "name": "F#2",
          "ticks": 23040,
          "time": 81.81815999999999,
          "velocity": 0.5905511811023622
        },
        {
          "duration": 0.33380672916666754,
          "durationTicks": 94,
          "midi": 36,
          "name": "C2",
          "ticks": 23136,
          "time": 82.15906899999999,
          "velocity": 0.5905511811023622
        },
        {
          "duration": 0.33380672916666754,
          "durationTicks": 94,
          "midi": 42,
          "name": "F#2",
          "ticks": 23136,
          "time": 82.15906899999999,
          "velocity": 0.5905511811023622
        },
        {
          "duration": 0.33380672916666754,
          "durationTicks": 94,
          "midi": 38,
          "name": "D2",
          "ticks": 23232,
          "time": 82.49997799999998,
          "velocity": 0.5905511811023622
        },
        {
          "duration": 0.33380672916666754,
          "durationTicks": 94,
          "midi": 42,
          "name": "F#2",
          "ticks": 23232,
          "time": 82.49997799999998,
          "velocity": 0.5905511811023622
        },
        {
          "duration": 0.3338067291666533,
          "durationTicks": 94,
          "midi": 42,
          "name": "F#2",
          "ticks": 23328,
          "time": 82.840887,
          "velocity": 0.5905511811023622
        },
        {
          "duration": 0.33380672916666754,
          "durationTicks": 94,
          "midi": 36,
          "name": "C2",
          "ticks": 23424,
          "time": 83.18179599999999,
          "velocity": 0.5905511811023622
        },
        {
          "duration": 0.33380672916666754,
          "durationTicks": 94,
          "midi": 42,
          "name": "F#2",
          "ticks": 23424,
          "time": 83.18179599999999,
          "velocity": 0.5905511811023622
        },
        {
          "duration": 0.33380672916666754,
          "durationTicks": 94,
          "midi": 36,
          "name": "C2",
          "ticks": 23520,
          "time": 83.52270499999999,
          "velocity": 0.5905511811023622
        },
        {
          "duration": 0.33380672916666754,
          "durationTicks": 94,
          "midi": 42,
          "name": "F#2",
          "ticks": 23520,
          "time": 83.52270499999999,
          "velocity": 0.5905511811023622
        },
        {
          "duration": 0.5681816666666748,
          "durationTicks": 160,
          "midi": 38,
          "name": "D2",
          "ticks": 23616,
          "time": 83.86361399999998,
          "velocity": 0.5905511811023622
        },
        {
          "duration": 0.5681816666666748,
          "durationTicks": 160,
          "midi": 42,
          "name": "F#2",
          "ticks": 23616,
          "time": 83.86361399999998,
          "velocity": 0.5905511811023622
        },
        {
          "duration": 0.33380672916666754,
          "durationTicks": 94,
          "midi": 36,
          "name": "C2",
          "ticks": 23808,
          "time": 84.54543199999999,
          "velocity": 0.5905511811023622
        },
        {
          "duration": 0.33380672916666754,
          "durationTicks": 94,
          "midi": 36,
          "name": "C2",
          "ticks": 23904,
          "time": 84.88634099999999,
          "velocity": 0.5905511811023622
        },
        {
          "duration": 0.5681816666666748,
          "durationTicks": 160,
          "midi": 38,
          "name": "D2",
          "ticks": 24000,
          "time": 85.22724999999998,
          "velocity": 0.5905511811023622
        },
        {
          "duration": 0.33380672916666754,
          "durationTicks": 94,
          "midi": 36,
          "name": "C2",
          "ticks": 24192,
          "time": 85.90906799999999,
          "velocity": 0.5905511811023622
        },
        {
          "duration": 0.33380672916666754,
          "durationTicks": 94,
          "midi": 36,
          "name": "C2",
          "ticks": 24288,
          "time": 86.24997699999999,
          "velocity": 0.5905511811023622
        },
        {
          "duration": 0.5681816666666748,
          "durationTicks": 160,
          "midi": 38,
          "name": "D2",
          "ticks": 24384,
          "time": 86.59088599999998,
          "velocity": 0.5905511811023622
        },
        {
          "duration": 0.33380672916666754,
          "durationTicks": 94,
          "midi": 36,
          "name": "C2",
          "ticks": 24576,
          "time": 87.27270399999999,
          "velocity": 0.5905511811023622
        },
        {
          "duration": 0.33380672916668175,
          "durationTicks": 94,
          "midi": 36,
          "name": "C2",
          "ticks": 24672,
          "time": 87.61361299999999,
          "velocity": 0.5905511811023622
        },
        {
          "duration": 0.5681816666666606,
          "durationTicks": 160,
          "midi": 38,
          "name": "D2",
          "ticks": 24768,
          "time": 87.954522,
          "velocity": 0.5905511811023622
        },
        {
          "duration": 0.33380672916666754,
          "durationTicks": 94,
          "midi": 36,
          "name": "C2",
          "ticks": 24960,
          "time": 88.63633999999999,
          "velocity": 0.5905511811023622
        },
        {
          "duration": 0.33380672916668175,
          "durationTicks": 94,
          "midi": 36,
          "name": "C2",
          "ticks": 25056,
          "time": 88.97724899999999,
          "velocity": 0.5905511811023622
        },
        {
          "duration": 0.5681816666666606,
          "durationTicks": 160,
          "midi": 38,
          "name": "D2",
          "ticks": 25152,
          "time": 89.318158,
          "velocity": 0.5905511811023622
        },
        {
          "duration": 0.5681816666666748,
          "durationTicks": 160,
          "midi": 36,
          "name": "C2",
          "ticks": 25344,
          "time": 89.99997599999999,
          "velocity": 0.5905511811023622
        },
        {
          "duration": 0.33380672916666754,
          "durationTicks": 94,
          "midi": 38,
          "name": "D2",
          "ticks": 25536,
          "time": 90.681794,
          "velocity": 0.5905511811023622
        },
        {
          "duration": 0.33380672916666754,
          "durationTicks": 94,
          "midi": 36,
          "name": "C2",
          "ticks": 25632,
          "time": 91.02270299999999,
          "velocity": 0.5905511811023622
        },
        {
          "duration": 0.33380672916668175,
          "durationTicks": 94,
          "midi": 36,
          "name": "C2",
          "ticks": 25824,
          "time": 91.70452099999999,
          "velocity": 0.5905511811023622
        },
        {
          "duration": 0.5681816666666606,
          "durationTicks": 160,
          "midi": 38,
          "name": "D2",
          "ticks": 25920,
          "time": 92.04543,
          "velocity": 0.5905511811023622
        },
        {
          "duration": 0.5681816666666748,
          "durationTicks": 160,
          "midi": 36,
          "name": "C2",
          "ticks": 26112,
          "time": 92.72724799999999,
          "velocity": 0.5905511811023622
        },
        {
          "duration": 0.33380672916666754,
          "durationTicks": 94,
          "midi": 38,
          "name": "D2",
          "ticks": 26304,
          "time": 93.409066,
          "velocity": 0.5905511811023622
        },
        {
          "duration": 0.33380672916666754,
          "durationTicks": 94,
          "midi": 36,
          "name": "C2",
          "ticks": 26400,
          "time": 93.74997499999999,
          "velocity": 0.5905511811023622
        },
        {
          "duration": 0.33380672916668175,
          "durationTicks": 94,
          "midi": 36,
          "name": "C2",
          "ticks": 26592,
          "time": 94.43179299999998,
          "velocity": 0.5905511811023622
        },
        {
          "duration": 0.5681816666666606,
          "durationTicks": 160,
          "midi": 38,
          "name": "D2",
          "ticks": 26688,
          "time": 94.772702,
          "velocity": 0.5905511811023622
        },
        {
          "duration": 0.5681816666666748,
          "durationTicks": 160,
          "midi": 36,
          "name": "C2",
          "ticks": 26880,
          "time": 95.45451999999999,
          "velocity": 0.5905511811023622
        },
        {
          "duration": 0.33380672916666754,
          "durationTicks": 94,
          "midi": 38,
          "name": "D2",
          "ticks": 27072,
          "time": 96.136338,
          "velocity": 0.5905511811023622
        },
        {
          "duration": 0.33380672916666754,
          "durationTicks": 94,
          "midi": 36,
          "name": "C2",
          "ticks": 27168,
          "time": 96.47724699999999,
          "velocity": 0.5905511811023622
        },
        {
          "duration": 0.33380672916668175,
          "durationTicks": 94,
          "midi": 36,
          "name": "C2",
          "ticks": 27360,
          "time": 97.15906499999998,
          "velocity": 0.5905511811023622
        },
        {
          "duration": 0.5681816666666606,
          "durationTicks": 160,
          "midi": 38,
          "name": "D2",
          "ticks": 27456,
          "time": 97.499974,
          "velocity": 0.5905511811023622
        },
        {
          "duration": 0.5681816666666748,
          "durationTicks": 160,
          "midi": 36,
          "name": "C2",
          "ticks": 27648,
          "time": 98.18179199999999,
          "velocity": 0.5905511811023622
        },
        {
          "duration": 0.33380672916666754,
          "durationTicks": 94,
          "midi": 38,
          "name": "D2",
          "ticks": 27840,
          "time": 98.86361,
          "velocity": 0.5905511811023622
        },
        {
          "duration": 0.33380672916666754,
          "durationTicks": 94,
          "midi": 36,
          "name": "C2",
          "ticks": 27936,
          "time": 99.20451899999999,
          "velocity": 0.5905511811023622
        },
        {
          "duration": 0.33380672916668175,
          "durationTicks": 94,
          "midi": 36,
          "name": "C2",
          "ticks": 28128,
          "time": 99.88633699999998,
          "velocity": 0.5905511811023622
        },
        {
          "duration": 0.5681816666666748,
          "durationTicks": 160,
          "midi": 38,
          "name": "D2",
          "ticks": 28224,
          "time": 100.227246,
          "velocity": 0.5905511811023622
        },
        {
          "duration": 0.5681816666666748,
          "durationTicks": 160,
          "midi": 36,
          "name": "C2",
          "ticks": 28416,
          "time": 100.90906399999999,
          "velocity": 0.5905511811023622
        },
        {
          "duration": 0.33380672916666754,
          "durationTicks": 94,
          "midi": 38,
          "name": "D2",
          "ticks": 28608,
          "time": 101.590882,
          "velocity": 0.5905511811023622
        },
        {
          "duration": 0.33380672916666754,
          "durationTicks": 94,
          "midi": 36,
          "name": "C2",
          "ticks": 28704,
          "time": 101.93179099999999,
          "velocity": 0.5905511811023622
        },
        {
          "duration": 0.33380672916668175,
          "durationTicks": 94,
          "midi": 36,
          "name": "C2",
          "ticks": 28896,
          "time": 102.61360899999998,
          "velocity": 0.5905511811023622
        },
        {
          "duration": 0.5681816666666748,
          "durationTicks": 160,
          "midi": 38,
          "name": "D2",
          "ticks": 28992,
          "time": 102.954518,
          "velocity": 0.5905511811023622
        },
        {
          "duration": 0.5681816666666748,
          "durationTicks": 160,
          "midi": 36,
          "name": "C2",
          "ticks": 29184,
          "time": 103.63633599999999,
          "velocity": 0.5905511811023622
        },
        {
          "duration": 0.33380672916666754,
          "durationTicks": 94,
          "midi": 38,
          "name": "D2",
          "ticks": 29376,
          "time": 104.31815399999999,
          "velocity": 0.5905511811023622
        },
        {
          "duration": 0.33380672916666754,
          "durationTicks": 94,
          "midi": 36,
          "name": "C2",
          "ticks": 29472,
          "time": 104.65906299999999,
          "velocity": 0.5905511811023622
        },
        {
          "duration": 0.33380672916668175,
          "durationTicks": 94,
          "midi": 36,
          "name": "C2",
          "ticks": 29664,
          "time": 105.34088099999998,
          "velocity": 0.5905511811023622
        },
        {
          "duration": 0.5681816666666748,
          "durationTicks": 160,
          "midi": 38,
          "name": "D2",
          "ticks": 29760,
          "time": 105.68178999999999,
          "velocity": 0.5905511811023622
        },
        {
          "duration": 0.5681816666666748,
          "durationTicks": 160,
          "midi": 36,
          "name": "C2",
          "ticks": 29952,
          "time": 106.36360799999999,
          "velocity": 0.5905511811023622
        },
        {
          "duration": 0.33380672916668175,
          "durationTicks": 94,
          "midi": 36,
          "name": "C2",
          "ticks": 31488,
          "time": 111.81815199999998,
          "velocity": 0.5905511811023622
        },
        {
          "duration": 0.33380672916666754,
          "durationTicks": 94,
          "midi": 36,
          "name": "C2",
          "ticks": 31584,
          "time": 112.159061,
          "velocity": 0.5905511811023622
        },
        {
          "duration": 0.5681816666666748,
          "durationTicks": 160,
          "midi": 38,
          "name": "D2",
          "ticks": 31680,
          "time": 112.49996999999999,
          "velocity": 0.5905511811023622
        },
        {
          "duration": 0.33380672916668175,
          "durationTicks": 94,
          "midi": 36,
          "name": "C2",
          "ticks": 31872,
          "time": 113.18178799999998,
          "velocity": 0.5905511811023622
        },
        {
          "duration": 0.33380672916666754,
          "durationTicks": 94,
          "midi": 36,
          "name": "C2",
          "ticks": 31968,
          "time": 113.522697,
          "velocity": 0.5905511811023622
        },
        {
          "duration": 0.5681816666666748,
          "durationTicks": 160,
          "midi": 38,
          "name": "D2",
          "ticks": 32064,
          "time": 113.86360599999999,
          "velocity": 0.5905511811023622
        },
        {
          "duration": 0.33380672916668175,
          "durationTicks": 94,
          "midi": 36,
          "name": "C2",
          "ticks": 32256,
          "time": 114.54542399999998,
          "velocity": 0.5905511811023622
        },
        {
          "duration": 0.33380672916666754,
          "durationTicks": 94,
          "midi": 36,
          "name": "C2",
          "ticks": 32352,
          "time": 114.886333,
          "velocity": 0.5905511811023622
        },
        {
          "duration": 0.5681816666666748,
          "durationTicks": 160,
          "midi": 38,
          "name": "D2",
          "ticks": 32448,
          "time": 115.22724199999999,
          "velocity": 0.5905511811023622
        },
        {
          "duration": 0.33380672916668175,
          "durationTicks": 94,
          "midi": 36,
          "name": "C2",
          "ticks": 32640,
          "time": 115.90905999999998,
          "velocity": 0.5905511811023622
        },
        {
          "duration": 0.33380672916666754,
          "durationTicks": 94,
          "midi": 36,
          "name": "C2",
          "ticks": 32736,
          "time": 116.249969,
          "velocity": 0.5905511811023622
        },
        {
          "duration": 0.5681816666666748,
          "durationTicks": 160,
          "midi": 38,
          "name": "D2",
          "ticks": 32832,
          "time": 116.59087799999999,
          "velocity": 0.5905511811023622
        },
        {
          "duration": 0.33380672916668175,
          "durationTicks": 94,
          "midi": 36,
          "name": "C2",
          "ticks": 33024,
          "time": 117.27269599999998,
          "velocity": 0.5905511811023622
        },
        {
          "duration": 0.33380672916666754,
          "durationTicks": 94,
          "midi": 36,
          "name": "C2",
          "ticks": 33120,
          "time": 117.61360499999999,
          "velocity": 0.5905511811023622
        },
        {
          "duration": 0.5681816666666748,
          "durationTicks": 160,
          "midi": 38,
          "name": "D2",
          "ticks": 33216,
          "time": 117.95451399999999,
          "velocity": 0.5905511811023622
        },
        {
          "duration": 0.33380672916668175,
          "durationTicks": 94,
          "midi": 36,
          "name": "C2",
          "ticks": 33408,
          "time": 118.63633199999998,
          "velocity": 0.5905511811023622
        },
        {
          "duration": 0.33380672916666754,
          "durationTicks": 94,
          "midi": 36,
          "name": "C2",
          "ticks": 33504,
          "time": 118.97724099999999,
          "velocity": 0.5905511811023622
        },
        {
          "duration": 0.5681816666666748,
          "durationTicks": 160,
          "midi": 38,
          "name": "D2",
          "ticks": 33600,
          "time": 119.31814999999999,
          "velocity": 0.5905511811023622
        },
        {
          "duration": 0.33380672916668175,
          "durationTicks": 94,
          "midi": 36,
          "name": "C2",
          "ticks": 33792,
          "time": 119.99996799999998,
          "velocity": 0.5905511811023622
        },
        {
          "duration": 0.33380672916666754,
          "durationTicks": 94,
          "midi": 36,
          "name": "C2",
          "ticks": 33888,
          "time": 120.34087699999999,
          "velocity": 0.5905511811023622
        },
        {
          "duration": 0.5681816666666748,
          "durationTicks": 160,
          "midi": 38,
          "name": "D2",
          "ticks": 33984,
          "time": 120.68178599999999,
          "velocity": 0.5905511811023622
        },
        {
          "duration": 0.33380672916668175,
          "durationTicks": 94,
          "midi": 36,
          "name": "C2",
          "ticks": 34176,
          "time": 121.36360399999998,
          "velocity": 0.5905511811023622
        },
        {
          "duration": 0.33380672916666754,
          "durationTicks": 94,
          "midi": 36,
          "name": "C2",
          "ticks": 34272,
          "time": 121.70451299999999,
          "velocity": 0.5905511811023622
        },
        {
          "duration": 0.5681816666666748,
          "durationTicks": 160,
          "midi": 38,
          "name": "D2",
          "ticks": 34368,
          "time": 122.04542199999999,
          "velocity": 0.5905511811023622
        },
        {
          "duration": 0.33380672916668175,
          "durationTicks": 94,
          "midi": 36,
          "name": "C2",
          "ticks": 34560,
          "time": 122.72723999999998,
          "velocity": 0.5905511811023622
        },
        {
          "duration": 0.33380672916666754,
          "durationTicks": 94,
          "midi": 36,
          "name": "C2",
          "ticks": 34656,
          "time": 123.06814899999999,
          "velocity": 0.5905511811023622
        },
        {
          "duration": 0.5681816666666748,
          "durationTicks": 160,
          "midi": 38,
          "name": "D2",
          "ticks": 34752,
          "time": 123.40905799999999,
          "velocity": 0.5905511811023622
        },
        {
          "duration": 0.33380672916668175,
          "durationTicks": 94,
          "midi": 36,
          "name": "C2",
          "ticks": 34944,
          "time": 124.09087599999998,
          "velocity": 0.5905511811023622
        },
        {
          "duration": 0.33380672916666754,
          "durationTicks": 94,
          "midi": 36,
          "name": "C2",
          "ticks": 35040,
          "time": 124.43178499999999,
          "velocity": 0.5905511811023622
        },
        {
          "duration": 0.5681816666666748,
          "durationTicks": 160,
          "midi": 38,
          "name": "D2",
          "ticks": 35136,
          "time": 124.77269399999999,
          "velocity": 0.5905511811023622
        },
        {
          "duration": 0.33380672916668175,
          "durationTicks": 94,
          "midi": 36,
          "name": "C2",
          "ticks": 35328,
          "time": 125.45451199999998,
          "velocity": 0.5905511811023622
        },
        {
          "duration": 0.33380672916666754,
          "durationTicks": 94,
          "midi": 36,
          "name": "C2",
          "ticks": 35424,
          "time": 125.79542099999999,
          "velocity": 0.5905511811023622
        },
        {
          "duration": 0.5681816666666748,
          "durationTicks": 160,
          "midi": 38,
          "name": "D2",
          "ticks": 35520,
          "time": 126.13632999999999,
          "velocity": 0.5905511811023622
        },
        {
          "duration": 0.33380672916668175,
          "durationTicks": 94,
          "midi": 36,
          "name": "C2",
          "ticks": 35712,
          "time": 126.81814799999998,
          "velocity": 0.5905511811023622
        },
        {
          "duration": 0.33380672916666754,
          "durationTicks": 94,
          "midi": 36,
          "name": "C2",
          "ticks": 35808,
          "time": 127.15905699999999,
          "velocity": 0.5905511811023622
        },
        {
          "duration": 0.5681816666666606,
          "durationTicks": 160,
          "midi": 38,
          "name": "D2",
          "ticks": 35904,
          "time": 127.49996599999999,
          "velocity": 0.5905511811023622
        },
        {
          "duration": 0.33380672916666754,
          "durationTicks": 94,
          "midi": 36,
          "name": "C2",
          "ticks": 36096,
          "time": 128.181784,
          "velocity": 0.5905511811023622
        },
        {
          "duration": 0.33380672916669596,
          "durationTicks": 94,
          "midi": 36,
          "name": "C2",
          "ticks": 36192,
          "time": 128.52269299999998,
          "velocity": 0.5905511811023622
        },
        {
          "duration": 0.5681816666666748,
          "durationTicks": 160,
          "midi": 38,
          "name": "D2",
          "ticks": 36288,
          "time": 128.863602,
          "velocity": 0.5905511811023622
        },
        {
          "duration": 0.33380672916666754,
          "durationTicks": 94,
          "midi": 36,
          "name": "C2",
          "ticks": 36480,
          "time": 129.54541999999998,
          "velocity": 0.5905511811023622
        },
        {
          "duration": 0.33380672916666754,
          "durationTicks": 94,
          "midi": 36,
          "name": "C2",
          "ticks": 36576,
          "time": 129.886329,
          "velocity": 0.5905511811023622
        },
        {
          "duration": 0.5681816666666748,
          "durationTicks": 160,
          "midi": 38,
          "name": "D2",
          "ticks": 36672,
          "time": 130.22723799999997,
          "velocity": 0.5905511811023622
        },
        {
          "duration": 0.33380672916666754,
          "durationTicks": 94,
          "midi": 36,
          "name": "C2",
          "ticks": 36864,
          "time": 130.909056,
          "velocity": 0.5905511811023622
        },
        {
          "duration": 0.33380672916669596,
          "durationTicks": 94,
          "midi": 36,
          "name": "C2",
          "ticks": 36960,
          "time": 131.24996499999997,
          "velocity": 0.5905511811023622
        },
        {
          "duration": 0.5681816666666748,
          "durationTicks": 160,
          "midi": 38,
          "name": "D2",
          "ticks": 37056,
          "time": 131.59087399999999,
          "velocity": 0.5905511811023622
        },
        {
          "duration": 0.33380672916666754,
          "durationTicks": 94,
          "midi": 36,
          "name": "C2",
          "ticks": 37248,
          "time": 132.27269199999998,
          "velocity": 0.5905511811023622
        },
        {
          "duration": 0.33380672916666754,
          "durationTicks": 94,
          "midi": 36,
          "name": "C2",
          "ticks": 37344,
          "time": 132.613601,
          "velocity": 0.5905511811023622
        },
        {
          "duration": 0.5681816666666464,
          "durationTicks": 160,
          "midi": 38,
          "name": "D2",
          "ticks": 37440,
          "time": 132.95451,
          "velocity": 0.5905511811023622
        },
        {
          "duration": 0.33380672916666754,
          "durationTicks": 94,
          "midi": 36,
          "name": "C2",
          "ticks": 37632,
          "time": 133.636328,
          "velocity": 0.5905511811023622
        },
        {
          "duration": 0.33380672916666754,
          "durationTicks": 94,
          "midi": 42,
          "name": "F#2",
          "ticks": 37632,
          "time": 133.636328,
          "velocity": 0.5905511811023622
        },
        {
          "duration": 0.33380672916669596,
          "durationTicks": 94,
          "midi": 36,
          "name": "C2",
          "ticks": 37728,
          "time": 133.97723699999997,
          "velocity": 0.5905511811023622
        },
        {
          "duration": 0.33380672916669596,
          "durationTicks": 94,
          "midi": 42,
          "name": "F#2",
          "ticks": 37728,
          "time": 133.97723699999997,
          "velocity": 0.5905511811023622
        },
        {
          "duration": 0.33380672916666754,
          "durationTicks": 94,
          "midi": 38,
          "name": "D2",
          "ticks": 37824,
          "time": 134.31814599999998,
          "velocity": 0.5905511811023622
        },
        {
          "duration": 0.33380672916666754,
          "durationTicks": 94,
          "midi": 42,
          "name": "F#2",
          "ticks": 37824,
          "time": 134.31814599999998,
          "velocity": 0.5905511811023622
        },
        {
          "duration": 0.33380672916666754,
          "durationTicks": 94,
          "midi": 42,
          "name": "F#2",
          "ticks": 37920,
          "time": 134.659055,
          "velocity": 0.5905511811023622
        },
        {
          "duration": 0.33380672916666754,
          "durationTicks": 94,
          "midi": 36,
          "name": "C2",
          "ticks": 38016,
          "time": 134.99996399999998,
          "velocity": 0.5905511811023622
        },
        {
          "duration": 0.33380672916666754,
          "durationTicks": 94,
          "midi": 42,
          "name": "F#2",
          "ticks": 38016,
          "time": 134.99996399999998,
          "velocity": 0.5905511811023622
        },
        {
          "duration": 0.33380672916666754,
          "durationTicks": 94,
          "midi": 36,
          "name": "C2",
          "ticks": 38112,
          "time": 135.340873,
          "velocity": 0.5905511811023622
        },
        {
          "duration": 0.33380672916666754,
          "durationTicks": 94,
          "midi": 42,
          "name": "F#2",
          "ticks": 38112,
          "time": 135.340873,
          "velocity": 0.5905511811023622
        },
        {
          "duration": 0.33380672916666754,
          "durationTicks": 94,
          "midi": 38,
          "name": "D2",
          "ticks": 38208,
          "time": 135.681782,
          "velocity": 0.5905511811023622
        },
        {
          "duration": 0.33380672916666754,
          "durationTicks": 94,
          "midi": 42,
          "name": "F#2",
          "ticks": 38208,
          "time": 135.681782,
          "velocity": 0.5905511811023622
        },
        {
          "duration": 0.33380672916666754,
          "durationTicks": 94,
          "midi": 42,
          "name": "F#2",
          "ticks": 38304,
          "time": 136.02269099999998,
          "velocity": 0.5905511811023622
        },
        {
          "duration": 0.33380672916666754,
          "durationTicks": 94,
          "midi": 36,
          "name": "C2",
          "ticks": 38400,
          "time": 136.3636,
          "velocity": 0.5905511811023622
        },
        {
          "duration": 0.33380672916666754,
          "durationTicks": 94,
          "midi": 42,
          "name": "F#2",
          "ticks": 38400,
          "time": 136.3636,
          "velocity": 0.5905511811023622
        },
        {
          "duration": 0.33380672916669596,
          "durationTicks": 94,
          "midi": 36,
          "name": "C2",
          "ticks": 38496,
          "time": 136.70450899999997,
          "velocity": 0.5905511811023622
        },
        {
          "duration": 0.33380672916669596,
          "durationTicks": 94,
          "midi": 42,
          "name": "F#2",
          "ticks": 38496,
          "time": 136.70450899999997,
          "velocity": 0.5905511811023622
        },
        {
          "duration": 0.33380672916666754,
          "durationTicks": 94,
          "midi": 38,
          "name": "D2",
          "ticks": 38592,
          "time": 137.04541799999998,
          "velocity": 0.5905511811023622
        },
        {
          "duration": 0.33380672916666754,
          "durationTicks": 94,
          "midi": 42,
          "name": "F#2",
          "ticks": 38592,
          "time": 137.04541799999998,
          "velocity": 0.5905511811023622
        },
        {
          "duration": 0.33380672916666754,
          "durationTicks": 94,
          "midi": 42,
          "name": "F#2",
          "ticks": 38688,
          "time": 137.386327,
          "velocity": 0.5905511811023622
        },
        {
          "duration": 0.33380672916666754,
          "durationTicks": 94,
          "midi": 36,
          "name": "C2",
          "ticks": 38784,
          "time": 137.72723599999998,
          "velocity": 0.5905511811023622
        },
        {
          "duration": 0.33380672916666754,
          "durationTicks": 94,
          "midi": 42,
          "name": "F#2",
          "ticks": 38784,
          "time": 137.72723599999998,
          "velocity": 0.5905511811023622
        },
        {
          "duration": 0.33380672916666754,
          "durationTicks": 94,
          "midi": 36,
          "name": "C2",
          "ticks": 38880,
          "time": 138.068145,
          "velocity": 0.5905511811023622
        },
        {
          "duration": 0.33380672916666754,
          "durationTicks": 94,
          "midi": 42,
          "name": "F#2",
          "ticks": 38880,
          "time": 138.068145,
          "velocity": 0.5905511811023622
        },
        {
          "duration": 0.5681816666666464,
          "durationTicks": 160,
          "midi": 38,
          "name": "D2",
          "ticks": 38976,
          "time": 138.409054,
          "velocity": 0.5905511811023622
        },
        {
          "duration": 0.5681816666666464,
          "durationTicks": 160,
          "midi": 42,
          "name": "F#2",
          "ticks": 38976,
          "time": 138.409054,
          "velocity": 0.5905511811023622
        },
        {
          "duration": 0.33380672916666754,
          "durationTicks": 94,
          "midi": 36,
          "name": "C2",
          "ticks": 39168,
          "time": 139.090872,
          "velocity": 0.5905511811023622
        },
        {
          "duration": 0.33380672916666754,
          "durationTicks": 94,
          "midi": 42,
          "name": "F#2",
          "ticks": 39168,
          "time": 139.090872,
          "velocity": 0.5905511811023622
        },
        {
          "duration": 0.33380672916669596,
          "durationTicks": 94,
          "midi": 36,
          "name": "C2",
          "ticks": 39264,
          "time": 139.43178099999997,
          "velocity": 0.5905511811023622
        },
        {
          "duration": 0.33380672916669596,
          "durationTicks": 94,
          "midi": 42,
          "name": "F#2",
          "ticks": 39264,
          "time": 139.43178099999997,
          "velocity": 0.5905511811023622
        },
        {
          "duration": 0.33380672916666754,
          "durationTicks": 94,
          "midi": 38,
          "name": "D2",
          "ticks": 39360,
          "time": 139.77268999999998,
          "velocity": 0.5905511811023622
        },
        {
          "duration": 0.33380672916666754,
          "durationTicks": 94,
          "midi": 42,
          "name": "F#2",
          "ticks": 39360,
          "time": 139.77268999999998,
          "velocity": 0.5905511811023622
        },
        {
          "duration": 0.33380672916666754,
          "durationTicks": 94,
          "midi": 42,
          "name": "F#2",
          "ticks": 39456,
          "time": 140.113599,
          "velocity": 0.5905511811023622
        },
        {
          "duration": 0.33380672916669596,
          "durationTicks": 94,
          "midi": 36,
          "name": "C2",
          "ticks": 39552,
          "time": 140.45450799999998,
          "velocity": 0.5905511811023622
        },
        {
          "duration": 0.33380672916669596,
          "durationTicks": 94,
          "midi": 42,
          "name": "F#2",
          "ticks": 39552,
          "time": 140.45450799999998,
          "velocity": 0.5905511811023622
        },
        {
          "duration": 0.33380672916666754,
          "durationTicks": 94,
          "midi": 36,
          "name": "C2",
          "ticks": 39648,
          "time": 140.795417,
          "velocity": 0.5905511811023622
        },
        {
          "duration": 0.33380672916666754,
          "durationTicks": 94,
          "midi": 42,
          "name": "F#2",
          "ticks": 39648,
          "time": 140.795417,
          "velocity": 0.5905511811023622
        },
        {
          "duration": 0.33380672916666754,
          "durationTicks": 94,
          "midi": 38,
          "name": "D2",
          "ticks": 39744,
          "time": 141.136326,
          "velocity": 0.5905511811023622
        },
        {
          "duration": 0.33380672916666754,
          "durationTicks": 94,
          "midi": 42,
          "name": "F#2",
          "ticks": 39744,
          "time": 141.136326,
          "velocity": 0.5905511811023622
        },
        {
          "duration": 0.33380672916666754,
          "durationTicks": 94,
          "midi": 42,
          "name": "F#2",
          "ticks": 39840,
          "time": 141.47723499999998,
          "velocity": 0.5905511811023622
        },
        {
          "duration": 0.33380672916666754,
          "durationTicks": 94,
          "midi": 36,
          "name": "C2",
          "ticks": 39936,
          "time": 141.818144,
          "velocity": 0.5905511811023622
        },
        {
          "duration": 0.33380672916666754,
          "durationTicks": 94,
          "midi": 42,
          "name": "F#2",
          "ticks": 39936,
          "time": 141.818144,
          "velocity": 0.5905511811023622
        },
        {
          "duration": 0.33380672916669596,
          "durationTicks": 94,
          "midi": 36,
          "name": "C2",
          "ticks": 40032,
          "time": 142.15905299999997,
          "velocity": 0.5905511811023622
        },
        {
          "duration": 0.33380672916669596,
          "durationTicks": 94,
          "midi": 42,
          "name": "F#2",
          "ticks": 40032,
          "time": 142.15905299999997,
          "velocity": 0.5905511811023622
        },
        {
          "duration": 0.33380672916666754,
          "durationTicks": 94,
          "midi": 38,
          "name": "D2",
          "ticks": 40128,
          "time": 142.49996199999998,
          "velocity": 0.5905511811023622
        },
        {
          "duration": 0.33380672916666754,
          "durationTicks": 94,
          "midi": 42,
          "name": "F#2",
          "ticks": 40128,
          "time": 142.49996199999998,
          "velocity": 0.5905511811023622
        },
        {
          "duration": 0.33380672916666754,
          "durationTicks": 94,
          "midi": 42,
          "name": "F#2",
          "ticks": 40224,
          "time": 142.840871,
          "velocity": 0.5905511811023622
        },
        {
          "duration": 0.33380672916669596,
          "durationTicks": 94,
          "midi": 36,
          "name": "C2",
          "ticks": 40320,
          "time": 143.18177999999997,
          "velocity": 0.5905511811023622
        },
        {
          "duration": 0.33380672916669596,
          "durationTicks": 94,
          "midi": 42,
          "name": "F#2",
          "ticks": 40320,
          "time": 143.18177999999997,
          "velocity": 0.5905511811023622
        },
        {
          "duration": 0.33380672916666754,
          "durationTicks": 94,
          "midi": 36,
          "name": "C2",
          "ticks": 40416,
          "time": 143.52268899999999,
          "velocity": 0.5905511811023622
        },
        {
          "duration": 0.33380672916666754,
          "durationTicks": 94,
          "midi": 42,
          "name": "F#2",
          "ticks": 40416,
          "time": 143.52268899999999,
          "velocity": 0.5905511811023622
        },
        {
          "duration": 0.5681816666666748,
          "durationTicks": 160,
          "midi": 38,
          "name": "D2",
          "ticks": 40512,
          "time": 143.863598,
          "velocity": 0.5905511811023622
        },
        {
          "duration": 0.5681816666666748,
          "durationTicks": 160,
          "midi": 42,
          "name": "F#2",
          "ticks": 40512,
          "time": 143.863598,
          "velocity": 0.5905511811023622
        },
        {
          "duration": 0.33380672916666754,
          "durationTicks": 94,
          "midi": 36,
          "name": "C2",
          "ticks": 40704,
          "time": 144.545416,
          "velocity": 0.5905511811023622
        },
        {
          "duration": 0.33380672916666754,
          "durationTicks": 94,
          "midi": 42,
          "name": "F#2",
          "ticks": 40704,
          "time": 144.545416,
          "velocity": 0.5905511811023622
        },
        {
          "duration": 0.33380672916669596,
          "durationTicks": 94,
          "midi": 36,
          "name": "C2",
          "ticks": 40800,
          "time": 144.88632499999997,
          "velocity": 0.5905511811023622
        },
        {
          "duration": 0.33380672916669596,
          "durationTicks": 94,
          "midi": 42,
          "name": "F#2",
          "ticks": 40800,
          "time": 144.88632499999997,
          "velocity": 0.5905511811023622
        },
        {
          "duration": 0.33380672916666754,
          "durationTicks": 94,
          "midi": 38,
          "name": "D2",
          "ticks": 40896,
          "time": 145.22723399999998,
          "velocity": 0.5905511811023622
        },
        {
          "duration": 0.33380672916666754,
          "durationTicks": 94,
          "midi": 42,
          "name": "F#2",
          "ticks": 40896,
          "time": 145.22723399999998,
          "velocity": 0.5905511811023622
        },
        {
          "duration": 0.33380672916666754,
          "durationTicks": 94,
          "midi": 42,
          "name": "F#2",
          "ticks": 40992,
          "time": 145.568143,
          "velocity": 0.5905511811023622
        },
        {
          "duration": 0.33380672916669596,
          "durationTicks": 94,
          "midi": 36,
          "name": "C2",
          "ticks": 41088,
          "time": 145.90905199999997,
          "velocity": 0.5905511811023622
        },
        {
          "duration": 0.33380672916669596,
          "durationTicks": 94,
          "midi": 42,
          "name": "F#2",
          "ticks": 41088,
          "time": 145.90905199999997,
          "velocity": 0.5905511811023622
        },
        {
          "duration": 0.33380672916666754,
          "durationTicks": 94,
          "midi": 36,
          "name": "C2",
          "ticks": 41184,
          "time": 146.24996099999998,
          "velocity": 0.5905511811023622
        },
        {
          "duration": 0.33380672916666754,
          "durationTicks": 94,
          "midi": 42,
          "name": "F#2",
          "ticks": 41184,
          "time": 146.24996099999998,
          "velocity": 0.5905511811023622
        },
        {
          "duration": 0.33380672916666754,
          "durationTicks": 94,
          "midi": 38,
          "name": "D2",
          "ticks": 41280,
          "time": 146.59087,
          "velocity": 0.5905511811023622
        },
        {
          "duration": 0.33380672916666754,
          "durationTicks": 94,
          "midi": 42,
          "name": "F#2",
          "ticks": 41280,
          "time": 146.59087,
          "velocity": 0.5905511811023622
        },
        {
          "duration": 0.33380672916666754,
          "durationTicks": 94,
          "midi": 42,
          "name": "F#2",
          "ticks": 41376,
          "time": 146.93177899999998,
          "velocity": 0.5905511811023622
        },
        {
          "duration": 0.33380672916666754,
          "durationTicks": 94,
          "midi": 36,
          "name": "C2",
          "ticks": 41472,
          "time": 147.272688,
          "velocity": 0.5905511811023622
        },
        {
          "duration": 0.33380672916666754,
          "durationTicks": 94,
          "midi": 42,
          "name": "F#2",
          "ticks": 41472,
          "time": 147.272688,
          "velocity": 0.5905511811023622
        },
        {
          "duration": 0.33380672916669596,
          "durationTicks": 94,
          "midi": 36,
          "name": "C2",
          "ticks": 41568,
          "time": 147.61359699999997,
          "velocity": 0.5905511811023622
        },
        {
          "duration": 0.33380672916669596,
          "durationTicks": 94,
          "midi": 42,
          "name": "F#2",
          "ticks": 41568,
          "time": 147.61359699999997,
          "velocity": 0.5905511811023622
        },
        {
          "duration": 0.33380672916666754,
          "durationTicks": 94,
          "midi": 38,
          "name": "D2",
          "ticks": 41664,
          "time": 147.95450599999998,
          "velocity": 0.5905511811023622
        },
        {
          "duration": 0.33380672916666754,
          "durationTicks": 94,
          "midi": 42,
          "name": "F#2",
          "ticks": 41664,
          "time": 147.95450599999998,
          "velocity": 0.5905511811023622
        },
        {
          "duration": 0.33380672916666754,
          "durationTicks": 94,
          "midi": 42,
          "name": "F#2",
          "ticks": 41760,
          "time": 148.295415,
          "velocity": 0.5905511811023622
        },
        {
          "duration": 0.33380672916669596,
          "durationTicks": 94,
          "midi": 36,
          "name": "C2",
          "ticks": 41856,
          "time": 148.63632399999997,
          "velocity": 0.5905511811023622
        },
        {
          "duration": 0.33380672916669596,
          "durationTicks": 94,
          "midi": 42,
          "name": "F#2",
          "ticks": 41856,
          "time": 148.63632399999997,
          "velocity": 0.5905511811023622
        },
        {
          "duration": 0.33380672916666754,
          "durationTicks": 94,
          "midi": 36,
          "name": "C2",
          "ticks": 41952,
          "time": 148.97723299999998,
          "velocity": 0.5905511811023622
        },
        {
          "duration": 0.33380672916666754,
          "durationTicks": 94,
          "midi": 42,
          "name": "F#2",
          "ticks": 41952,
          "time": 148.97723299999998,
          "velocity": 0.5905511811023622
        },
        {
          "duration": 0.5681816666666748,
          "durationTicks": 160,
          "midi": 38,
          "name": "D2",
          "ticks": 42048,
          "time": 149.318142,
          "velocity": 0.5905511811023622
        },
        {
          "duration": 0.5681816666666748,
          "durationTicks": 160,
          "midi": 42,
          "name": "F#2",
          "ticks": 42048,
          "time": 149.318142,
          "velocity": 0.5905511811023622
        },
        {
          "duration": 0.33380672916666754,
          "durationTicks": 94,
          "midi": 36,
          "name": "C2",
          "ticks": 42240,
          "time": 149.99996,
          "velocity": 0.5905511811023622
        },
        {
          "duration": 0.33380672916666754,
          "durationTicks": 94,
          "midi": 42,
          "name": "F#2",
          "ticks": 42240,
          "time": 149.99996,
          "velocity": 0.5905511811023622
        },
        {
          "duration": 0.33380672916669596,
          "durationTicks": 94,
          "midi": 36,
          "name": "C2",
          "ticks": 42336,
          "time": 150.34086899999997,
          "velocity": 0.5905511811023622
        },
        {
          "duration": 0.33380672916669596,
          "durationTicks": 94,
          "midi": 42,
          "name": "F#2",
          "ticks": 42336,
          "time": 150.34086899999997,
          "velocity": 0.5905511811023622
        },
        {
          "duration": 0.33380672916666754,
          "durationTicks": 94,
          "midi": 38,
          "name": "D2",
          "ticks": 42432,
          "time": 150.68177799999998,
          "velocity": 0.5905511811023622
        },
        {
          "duration": 0.33380672916666754,
          "durationTicks": 94,
          "midi": 42,
          "name": "F#2",
          "ticks": 42432,
          "time": 150.68177799999998,
          "velocity": 0.5905511811023622
        },
        {
          "duration": 0.33380672916666754,
          "durationTicks": 94,
          "midi": 42,
          "name": "F#2",
          "ticks": 42528,
          "time": 151.022687,
          "velocity": 0.5905511811023622
        },
        {
          "duration": 0.33380672916669596,
          "durationTicks": 94,
          "midi": 36,
          "name": "C2",
          "ticks": 42624,
          "time": 151.36359599999997,
          "velocity": 0.5905511811023622
        },
        {
          "duration": 0.33380672916669596,
          "durationTicks": 94,
          "midi": 42,
          "name": "F#2",
          "ticks": 42624,
          "time": 151.36359599999997,
          "velocity": 0.5905511811023622
        },
        {
          "duration": 0.33380672916666754,
          "durationTicks": 94,
          "midi": 36,
          "name": "C2",
          "ticks": 42720,
          "time": 151.70450499999998,
          "velocity": 0.5905511811023622
        },
        {
          "duration": 0.33380672916666754,
          "durationTicks": 94,
          "midi": 42,
          "name": "F#2",
          "ticks": 42720,
          "time": 151.70450499999998,
          "velocity": 0.5905511811023622
        },
        {
          "duration": 0.33380672916666754,
          "durationTicks": 94,
          "midi": 38,
          "name": "D2",
          "ticks": 42816,
          "time": 152.045414,
          "velocity": 0.5905511811023622
        },
        {
          "duration": 0.33380672916666754,
          "durationTicks": 94,
          "midi": 42,
          "name": "F#2",
          "ticks": 42816,
          "time": 152.045414,
          "velocity": 0.5905511811023622
        },
        {
          "duration": 0.33380672916666754,
          "durationTicks": 94,
          "midi": 42,
          "name": "F#2",
          "ticks": 42912,
          "time": 152.38632299999998,
          "velocity": 0.5905511811023622
        },
        {
          "duration": 0.33380672916666754,
          "durationTicks": 94,
          "midi": 36,
          "name": "C2",
          "ticks": 43008,
          "time": 152.727232,
          "velocity": 0.5905511811023622
        },
        {
          "duration": 0.33380672916666754,
          "durationTicks": 94,
          "midi": 42,
          "name": "F#2",
          "ticks": 43008,
          "time": 152.727232,
          "velocity": 0.5905511811023622
        },
        {
          "duration": 0.33380672916666754,
          "durationTicks": 94,
          "midi": 36,
          "name": "C2",
          "ticks": 43104,
          "time": 153.068141,
          "velocity": 0.5905511811023622
        },
        {
          "duration": 0.33380672916666754,
          "durationTicks": 94,
          "midi": 42,
          "name": "F#2",
          "ticks": 43104,
          "time": 153.068141,
          "velocity": 0.5905511811023622
        },
        {
          "duration": 0.33380672916666754,
          "durationTicks": 94,
          "midi": 38,
          "name": "D2",
          "ticks": 43200,
          "time": 153.40904999999998,
          "velocity": 0.5905511811023622
        },
        {
          "duration": 0.33380672916666754,
          "durationTicks": 94,
          "midi": 42,
          "name": "F#2",
          "ticks": 43200,
          "time": 153.40904999999998,
          "velocity": 0.5905511811023622
        },
        {
          "duration": 0.33380672916666754,
          "durationTicks": 94,
          "midi": 42,
          "name": "F#2",
          "ticks": 43296,
          "time": 153.749959,
          "velocity": 0.5905511811023622
        },
        {
          "duration": 0.33380672916669596,
          "durationTicks": 94,
          "midi": 36,
          "name": "C2",
          "ticks": 43392,
          "time": 154.09086799999997,
          "velocity": 0.5905511811023622
        },
        {
          "duration": 0.33380672916669596,
          "durationTicks": 94,
          "midi": 42,
          "name": "F#2",
          "ticks": 43392,
          "time": 154.09086799999997,
          "velocity": 0.5905511811023622
        },
        {
          "duration": 0.33380672916666754,
          "durationTicks": 94,
          "midi": 36,
          "name": "C2",
          "ticks": 43488,
          "time": 154.43177699999998,
          "velocity": 0.5905511811023622
        },
        {
          "duration": 0.33380672916666754,
          "durationTicks": 94,
          "midi": 42,
          "name": "F#2",
          "ticks": 43488,
          "time": 154.43177699999998,
          "velocity": 0.5905511811023622
        },
        {
          "duration": 0.5681816666666748,
          "durationTicks": 160,
          "midi": 38,
          "name": "D2",
          "ticks": 43584,
          "time": 154.772686,
          "velocity": 0.5905511811023622
        },
        {
          "duration": 0.5681816666666748,
          "durationTicks": 160,
          "midi": 42,
          "name": "F#2",
          "ticks": 43584,
          "time": 154.772686,
          "velocity": 0.5905511811023622
        },
        {
          "duration": 0.33380672916666754,
          "durationTicks": 94,
          "midi": 36,
          "name": "C2",
          "ticks": 43776,
          "time": 155.454504,
          "velocity": 0.5905511811023622
        },
        {
          "duration": 0.33380672916666754,
          "durationTicks": 94,
          "midi": 42,
          "name": "F#2",
          "ticks": 43776,
          "time": 155.454504,
          "velocity": 0.5905511811023622
        },
        {
          "duration": 0.33380672916666754,
          "durationTicks": 94,
          "midi": 36,
          "name": "C2",
          "ticks": 43872,
          "time": 155.795413,
          "velocity": 0.5905511811023622
        },
        {
          "duration": 0.33380672916666754,
          "durationTicks": 94,
          "midi": 42,
          "name": "F#2",
          "ticks": 43872,
          "time": 155.795413,
          "velocity": 0.5905511811023622
        },
        {
          "duration": 0.33380672916666754,
          "durationTicks": 94,
          "midi": 38,
          "name": "D2",
          "ticks": 43968,
          "time": 156.13632199999998,
          "velocity": 0.5905511811023622
        },
        {
          "duration": 0.33380672916666754,
          "durationTicks": 94,
          "midi": 42,
          "name": "F#2",
          "ticks": 43968,
          "time": 156.13632199999998,
          "velocity": 0.5905511811023622
        },
        {
          "duration": 0.33380672916666754,
          "durationTicks": 94,
          "midi": 42,
          "name": "F#2",
          "ticks": 44064,
          "time": 156.477231,
          "velocity": 0.5905511811023622
        },
        {
          "duration": 0.33380672916669596,
          "durationTicks": 94,
          "midi": 36,
          "name": "C2",
          "ticks": 44160,
          "time": 156.81813999999997,
          "velocity": 0.5905511811023622
        },
        {
          "duration": 0.33380672916669596,
          "durationTicks": 94,
          "midi": 42,
          "name": "F#2",
          "ticks": 44160,
          "time": 156.81813999999997,
          "velocity": 0.5905511811023622
        },
        {
          "duration": 0.33380672916666754,
          "durationTicks": 94,
          "midi": 36,
          "name": "C2",
          "ticks": 44256,
          "time": 157.15904899999998,
          "velocity": 0.5905511811023622
        },
        {
          "duration": 0.33380672916666754,
          "durationTicks": 94,
          "midi": 42,
          "name": "F#2",
          "ticks": 44256,
          "time": 157.15904899999998,
          "velocity": 0.5905511811023622
        },
        {
          "duration": 0.33380672916666754,
          "durationTicks": 94,
          "midi": 38,
          "name": "D2",
          "ticks": 44352,
          "time": 157.499958,
          "velocity": 0.5905511811023622
        },
        {
          "duration": 0.33380672916666754,
          "durationTicks": 94,
          "midi": 42,
          "name": "F#2",
          "ticks": 44352,
          "time": 157.499958,
          "velocity": 0.5905511811023622
        },
        {
          "duration": 0.33380672916666754,
          "durationTicks": 94,
          "midi": 42,
          "name": "F#2",
          "ticks": 44448,
          "time": 157.84086699999997,
          "velocity": 0.5905511811023622
        },
        {
          "duration": 0.33380672916666754,
          "durationTicks": 94,
          "midi": 36,
          "name": "C2",
          "ticks": 44544,
          "time": 158.18177599999999,
          "velocity": 0.5905511811023622
        },
        {
          "duration": 0.33380672916666754,
          "durationTicks": 94,
          "midi": 42,
          "name": "F#2",
          "ticks": 44544,
          "time": 158.18177599999999,
          "velocity": 0.5905511811023622
        },
        {
          "duration": 0.33380672916666754,
          "durationTicks": 94,
          "midi": 36,
          "name": "C2",
          "ticks": 44640,
          "time": 158.522685,
          "velocity": 0.5905511811023622
        },
        {
          "duration": 0.33380672916666754,
          "durationTicks": 94,
          "midi": 42,
          "name": "F#2",
          "ticks": 44640,
          "time": 158.522685,
          "velocity": 0.5905511811023622
        },
        {
          "duration": 0.33380672916666754,
          "durationTicks": 94,
          "midi": 38,
          "name": "D2",
          "ticks": 44736,
          "time": 158.86359399999998,
          "velocity": 0.5905511811023622
        },
        {
          "duration": 0.33380672916666754,
          "durationTicks": 94,
          "midi": 42,
          "name": "F#2",
          "ticks": 44736,
          "time": 158.86359399999998,
          "velocity": 0.5905511811023622
        },
        {
          "duration": 0.33380672916666754,
          "durationTicks": 94,
          "midi": 42,
          "name": "F#2",
          "ticks": 44832,
          "time": 159.204503,
          "velocity": 0.5905511811023622
        },
        {
          "duration": 0.33380672916669596,
          "durationTicks": 94,
          "midi": 36,
          "name": "C2",
          "ticks": 44928,
          "time": 159.54541199999997,
          "velocity": 0.5905511811023622
        },
        {
          "duration": 0.33380672916669596,
          "durationTicks": 94,
          "midi": 42,
          "name": "F#2",
          "ticks": 44928,
          "time": 159.54541199999997,
          "velocity": 0.5905511811023622
        },
        {
          "duration": 0.33380672916666754,
          "durationTicks": 94,
          "midi": 36,
          "name": "C2",
          "ticks": 45024,
          "time": 159.88632099999998,
          "velocity": 0.5905511811023622
        },
        {
          "duration": 0.33380672916666754,
          "durationTicks": 94,
          "midi": 42,
          "name": "F#2",
          "ticks": 45024,
          "time": 159.88632099999998,
          "velocity": 0.5905511811023622
        },
        {
          "duration": 0.5681816666666748,
          "durationTicks": 160,
          "midi": 38,
          "name": "D2",
          "ticks": 45120,
          "time": 160.22723,
          "velocity": 0.5905511811023622
        },
        {
          "duration": 0.5681816666666748,
          "durationTicks": 160,
          "midi": 42,
          "name": "F#2",
          "ticks": 45120,
          "time": 160.22723,
          "velocity": 0.5905511811023622
        },
        {
          "duration": 0.33380672916666754,
          "durationTicks": 94,
          "midi": 36,
          "name": "C2",
          "ticks": 45312,
          "time": 160.90904799999998,
          "velocity": 0.5905511811023622
        },
        {
          "duration": 0.33380672916666754,
          "durationTicks": 94,
          "midi": 42,
          "name": "F#2",
          "ticks": 45312,
          "time": 160.90904799999998,
          "velocity": 0.5905511811023622
        },
        {
          "duration": 0.33380672916666754,
          "durationTicks": 94,
          "midi": 36,
          "name": "C2",
          "ticks": 45408,
          "time": 161.249957,
          "velocity": 0.5905511811023622
        },
        {
          "duration": 0.33380672916666754,
          "durationTicks": 94,
          "midi": 42,
          "name": "F#2",
          "ticks": 45408,
          "time": 161.249957,
          "velocity": 0.5905511811023622
        },
        {
          "duration": 0.33380672916666754,
          "durationTicks": 94,
          "midi": 38,
          "name": "D2",
          "ticks": 45504,
          "time": 161.59086599999998,
          "velocity": 0.5905511811023622
        },
        {
          "duration": 0.33380672916666754,
          "durationTicks": 94,
          "midi": 42,
          "name": "F#2",
          "ticks": 45504,
          "time": 161.59086599999998,
          "velocity": 0.5905511811023622
        },
        {
          "duration": 0.33380672916666754,
          "durationTicks": 94,
          "midi": 42,
          "name": "F#2",
          "ticks": 45600,
          "time": 161.931775,
          "velocity": 0.5905511811023622
        },
        {
          "duration": 0.33380672916669596,
          "durationTicks": 94,
          "midi": 36,
          "name": "C2",
          "ticks": 45696,
          "time": 162.27268399999997,
          "velocity": 0.5905511811023622
        },
        {
          "duration": 0.33380672916669596,
          "durationTicks": 94,
          "midi": 42,
          "name": "F#2",
          "ticks": 45696,
          "time": 162.27268399999997,
          "velocity": 0.5905511811023622
        },
        {
          "duration": 0.33380672916666754,
          "durationTicks": 94,
          "midi": 36,
          "name": "C2",
          "ticks": 45792,
          "time": 162.61359299999998,
          "velocity": 0.5905511811023622
        },
        {
          "duration": 0.33380672916666754,
          "durationTicks": 94,
          "midi": 42,
          "name": "F#2",
          "ticks": 45792,
          "time": 162.61359299999998,
          "velocity": 0.5905511811023622
        },
        {
          "duration": 0.33380672916666754,
          "durationTicks": 94,
          "midi": 38,
          "name": "D2",
          "ticks": 45888,
          "time": 162.954502,
          "velocity": 0.5905511811023622
        },
        {
          "duration": 0.33380672916666754,
          "durationTicks": 94,
          "midi": 42,
          "name": "F#2",
          "ticks": 45888,
          "time": 162.954502,
          "velocity": 0.5905511811023622
        },
        {
          "duration": 0.33380672916669596,
          "durationTicks": 94,
          "midi": 42,
          "name": "F#2",
          "ticks": 45984,
          "time": 163.29541099999997,
          "velocity": 0.5905511811023622
        },
        {
          "duration": 0.33380672916666754,
          "durationTicks": 94,
          "midi": 36,
          "name": "C2",
          "ticks": 46080,
          "time": 163.63631999999998,
          "velocity": 0.5905511811023622
        },
        {
          "duration": 0.33380672916666754,
          "durationTicks": 94,
          "midi": 42,
          "name": "F#2",
          "ticks": 46080,
          "time": 163.63631999999998,
          "velocity": 0.5905511811023622
        },
        {
          "duration": 0.33380672916666754,
          "durationTicks": 94,
          "midi": 36,
          "name": "C2",
          "ticks": 46176,
          "time": 163.977229,
          "velocity": 0.5905511811023622
        },
        {
          "duration": 0.33380672916666754,
          "durationTicks": 94,
          "midi": 42,
          "name": "F#2",
          "ticks": 46176,
          "time": 163.977229,
          "velocity": 0.5905511811023622
        },
        {
          "duration": 0.33380672916666754,
          "durationTicks": 94,
          "midi": 38,
          "name": "D2",
          "ticks": 46272,
          "time": 164.31813799999998,
          "velocity": 0.5905511811023622
        },
        {
          "duration": 0.33380672916666754,
          "durationTicks": 94,
          "midi": 42,
          "name": "F#2",
          "ticks": 46272,
          "time": 164.31813799999998,
          "velocity": 0.5905511811023622
        },
        {
          "duration": 0.33380672916666754,
          "durationTicks": 94,
          "midi": 42,
          "name": "F#2",
          "ticks": 46368,
          "time": 164.659047,
          "velocity": 0.5905511811023622
        },
        {
          "duration": 0.33380672916669596,
          "durationTicks": 94,
          "midi": 36,
          "name": "C2",
          "ticks": 46464,
          "time": 164.99995599999997,
          "velocity": 0.5905511811023622
        },
        {
          "duration": 0.33380672916669596,
          "durationTicks": 94,
          "midi": 42,
          "name": "F#2",
          "ticks": 46464,
          "time": 164.99995599999997,
          "velocity": 0.5905511811023622
        },
        {
          "duration": 0.33380672916666754,
          "durationTicks": 94,
          "midi": 36,
          "name": "C2",
          "ticks": 46560,
          "time": 165.34086499999998,
          "velocity": 0.5905511811023622
        },
        {
          "duration": 0.33380672916666754,
          "durationTicks": 94,
          "midi": 42,
          "name": "F#2",
          "ticks": 46560,
          "time": 165.34086499999998,
          "velocity": 0.5905511811023622
        },
        {
          "duration": 0.5681816666666748,
          "durationTicks": 160,
          "midi": 38,
          "name": "D2",
          "ticks": 46656,
          "time": 165.681774,
          "velocity": 0.5905511811023622
        },
        {
          "duration": 0.5681816666666748,
          "durationTicks": 160,
          "midi": 42,
          "name": "F#2",
          "ticks": 46656,
          "time": 165.681774,
          "velocity": 0.5905511811023622
        },
        {
          "duration": 0.33380672916666754,
          "durationTicks": 94,
          "midi": 36,
          "name": "C2",
          "ticks": 46848,
          "time": 166.36359199999998,
          "velocity": 0.5905511811023622
        },
        {
          "duration": 0.33380672916666754,
          "durationTicks": 94,
          "midi": 36,
          "name": "C2",
          "ticks": 46944,
          "time": 166.704501,
          "velocity": 0.5905511811023622
        },
        {
          "duration": 0.5681816666666748,
          "durationTicks": 160,
          "midi": 38,
          "name": "D2",
          "ticks": 47040,
          "time": 167.04540999999998,
          "velocity": 0.5905511811023622
        },
        {
          "duration": 0.33380672916669596,
          "durationTicks": 94,
          "midi": 36,
          "name": "C2",
          "ticks": 47232,
          "time": 167.72722799999997,
          "velocity": 0.5905511811023622
        },
        {
          "duration": 0.33380672916666754,
          "durationTicks": 94,
          "midi": 36,
          "name": "C2",
          "ticks": 47328,
          "time": 168.06813699999998,
          "velocity": 0.5905511811023622
        },
        {
          "duration": 0.5681816666666748,
          "durationTicks": 160,
          "midi": 38,
          "name": "D2",
          "ticks": 47424,
          "time": 168.409046,
          "velocity": 0.5905511811023622
        },
        {
          "duration": 0.33380672916666754,
          "durationTicks": 94,
          "midi": 36,
          "name": "C2",
          "ticks": 47616,
          "time": 169.09086399999998,
          "velocity": 0.5905511811023622
        },
        {
          "duration": 0.33380672916666754,
          "durationTicks": 94,
          "midi": 36,
          "name": "C2",
          "ticks": 47712,
          "time": 169.431773,
          "velocity": 0.5905511811023622
        },
        {
          "duration": 0.5681816666666748,
          "durationTicks": 160,
          "midi": 38,
          "name": "D2",
          "ticks": 47808,
          "time": 169.77268199999997,
          "velocity": 0.5905511811023622
        },
        {
          "duration": 0.33380672916669596,
          "durationTicks": 94,
          "midi": 36,
          "name": "C2",
          "ticks": 48000,
          "time": 170.45449999999997,
          "velocity": 0.5905511811023622
        },
        {
          "duration": 0.33380672916666754,
          "durationTicks": 94,
          "midi": 36,
          "name": "C2",
          "ticks": 48096,
          "time": 170.79540899999998,
          "velocity": 0.5905511811023622
        },
        {
          "duration": 0.5681816666666748,
          "durationTicks": 160,
          "midi": 38,
          "name": "D2",
          "ticks": 48192,
          "time": 171.136318,
          "velocity": 0.5905511811023622
        },
        {
          "duration": 0.5681816666666748,
          "durationTicks": 160,
          "midi": 36,
          "name": "C2",
          "ticks": 48384,
          "time": 171.81813599999998,
          "velocity": 0.5905511811023622
        },
        {
          "duration": 0.33380672916666754,
          "durationTicks": 94,
          "midi": 38,
          "name": "D2",
          "ticks": 48576,
          "time": 172.49995399999997,
          "velocity": 0.5905511811023622
        },
        {
          "duration": 0.33380672916666754,
          "durationTicks": 94,
          "midi": 36,
          "name": "C2",
          "ticks": 48672,
          "time": 172.84086299999998,
          "velocity": 0.5905511811023622
        },
        {
          "duration": 0.33380672916666754,
          "durationTicks": 94,
          "midi": 36,
          "name": "C2",
          "ticks": 48864,
          "time": 173.52268099999998,
          "velocity": 0.5905511811023622
        },
        {
          "duration": 0.5681816666666748,
          "durationTicks": 160,
          "midi": 38,
          "name": "D2",
          "ticks": 48960,
          "time": 173.86359,
          "velocity": 0.5905511811023622
        },
        {
          "duration": 0.5681816666666464,
          "durationTicks": 160,
          "midi": 36,
          "name": "C2",
          "ticks": 49152,
          "time": 174.54540799999998,
          "velocity": 0.5905511811023622
        },
        {
          "duration": 0.33380672916666754,
          "durationTicks": 94,
          "midi": 38,
          "name": "D2",
          "ticks": 49344,
          "time": 175.22722599999997,
          "velocity": 0.5905511811023622
        },
        {
          "duration": 0.3338067291666391,
          "durationTicks": 94,
          "midi": 36,
          "name": "C2",
          "ticks": 49440,
          "time": 175.56813499999998,
          "velocity": 0.5905511811023622
        },
        {
          "duration": 0.33380672916666754,
          "durationTicks": 94,
          "midi": 36,
          "name": "C2",
          "ticks": 49632,
          "time": 176.24995299999998,
          "velocity": 0.5905511811023622
        },
        {
          "duration": 0.5681816666666464,
          "durationTicks": 160,
          "midi": 38,
          "name": "D2",
          "ticks": 49728,
          "time": 176.590862,
          "velocity": 0.5905511811023622
        },
        {
          "duration": 0.5681816666666464,
          "durationTicks": 160,
          "midi": 36,
          "name": "C2",
          "ticks": 49920,
          "time": 177.27267999999998,
          "velocity": 0.5905511811023622
        },
        {
          "duration": 0.33380672916666754,
          "durationTicks": 94,
          "midi": 38,
          "name": "D2",
          "ticks": 50112,
          "time": 177.95449799999997,
          "velocity": 0.5905511811023622
        },
        {
          "duration": 0.3338067291666391,
          "durationTicks": 94,
          "midi": 36,
          "name": "C2",
          "ticks": 50208,
          "time": 178.29540699999998,
          "velocity": 0.5905511811023622
        },
        {
          "duration": 0.33380672916666754,
          "durationTicks": 94,
          "midi": 36,
          "name": "C2",
          "ticks": 50400,
          "time": 178.97722499999998,
          "velocity": 0.5905511811023622
        },
        {
          "duration": 0.5681816666666464,
          "durationTicks": 160,
          "midi": 38,
          "name": "D2",
          "ticks": 50496,
          "time": 179.318134,
          "velocity": 0.5905511811023622
        },
        {
          "duration": 0.5681816666666464,
          "durationTicks": 160,
          "midi": 36,
          "name": "C2",
          "ticks": 50688,
          "time": 179.99995199999998,
          "velocity": 0.5905511811023622
        },
        {
          "duration": 0.33380672916666754,
          "durationTicks": 94,
          "midi": 38,
          "name": "D2",
          "ticks": 50880,
          "time": 180.68176999999997,
          "velocity": 0.5905511811023622
        },
        {
          "duration": 0.3338067291666391,
          "durationTicks": 94,
          "midi": 36,
          "name": "C2",
          "ticks": 50976,
          "time": 181.02267899999998,
          "velocity": 0.5905511811023622
        },
        {
          "duration": 0.33380672916666754,
          "durationTicks": 94,
          "midi": 36,
          "name": "C2",
          "ticks": 51168,
          "time": 181.70449699999998,
          "velocity": 0.5905511811023622
        },
        {
          "duration": 0.5681816666666464,
          "durationTicks": 160,
          "midi": 38,
          "name": "D2",
          "ticks": 51264,
          "time": 182.04540599999999,
          "velocity": 0.5905511811023622
        },
        {
          "duration": 0.5681816666666464,
          "durationTicks": 160,
          "midi": 36,
          "name": "C2",
          "ticks": 51456,
          "time": 182.72722399999998,
          "velocity": 0.5905511811023622
        },
        {
          "duration": 0.33380672916666754,
          "durationTicks": 94,
          "midi": 38,
          "name": "D2",
          "ticks": 51648,
          "time": 183.40904199999997,
          "velocity": 0.5905511811023622
        },
        {
          "duration": 0.3338067291666391,
          "durationTicks": 94,
          "midi": 36,
          "name": "C2",
          "ticks": 51744,
          "time": 183.74995099999998,
          "velocity": 0.5905511811023622
        },
        {
          "duration": 0.33380672916666754,
          "durationTicks": 94,
          "midi": 36,
          "name": "C2",
          "ticks": 51936,
          "time": 184.43176899999997,
          "velocity": 0.5905511811023622
        },
        {
          "duration": 0.5681816666666464,
          "durationTicks": 160,
          "midi": 38,
          "name": "D2",
          "ticks": 52032,
          "time": 184.77267799999998,
          "velocity": 0.5905511811023622
        },
        {
          "duration": 0.5681816666666464,
          "durationTicks": 160,
          "midi": 36,
          "name": "C2",
          "ticks": 52224,
          "time": 185.45449599999998,
          "velocity": 0.5905511811023622
        },
        {
          "duration": 0.33380672916666754,
          "durationTicks": 94,
          "midi": 38,
          "name": "D2",
          "ticks": 52416,
          "time": 186.13631399999997,
          "velocity": 0.5905511811023622
        },
        {
          "duration": 0.3338067291666391,
          "durationTicks": 94,
          "midi": 36,
          "name": "C2",
          "ticks": 52512,
          "time": 186.47722299999998,
          "velocity": 0.5905511811023622
        },
        {
          "duration": 0.33380672916666754,
          "durationTicks": 94,
          "midi": 36,
          "name": "C2",
          "ticks": 52704,
          "time": 187.15904099999997,
          "velocity": 0.5905511811023622
        },
        {
          "duration": 0.5681816666666464,
          "durationTicks": 160,
          "midi": 38,
          "name": "D2",
          "ticks": 52800,
          "time": 187.49994999999998,
          "velocity": 0.5905511811023622
        },
        {
          "duration": 0.5681816666666464,
          "durationTicks": 160,
          "midi": 36,
          "name": "C2",
          "ticks": 52992,
          "time": 188.18176799999998,
          "velocity": 0.5905511811023622
        },
        {
          "duration": 0.33380672916666754,
          "durationTicks": 94,
          "midi": 36,
          "name": "C2",
          "ticks": 54528,
          "time": 193.63631199999998,
          "velocity": 0.5905511811023622
        },
        {
          "duration": 0.3338067291666391,
          "durationTicks": 94,
          "midi": 36,
          "name": "C2",
          "ticks": 54624,
          "time": 193.977221,
          "velocity": 0.5905511811023622
        },
        {
          "duration": 0.5681816666666748,
          "durationTicks": 160,
          "midi": 38,
          "name": "D2",
          "ticks": 54720,
          "time": 194.31812999999997,
          "velocity": 0.5905511811023622
        },
        {
          "duration": 0.3338067291666391,
          "durationTicks": 94,
          "midi": 36,
          "name": "C2",
          "ticks": 54912,
          "time": 194.999948,
          "velocity": 0.5905511811023622
        },
        {
          "duration": 0.33380672916666754,
          "durationTicks": 94,
          "midi": 36,
          "name": "C2",
          "ticks": 55008,
          "time": 195.34085699999997,
          "velocity": 0.5905511811023622
        },
        {
          "duration": 0.5681816666666464,
          "durationTicks": 160,
          "midi": 38,
          "name": "D2",
          "ticks": 55104,
          "time": 195.68176599999998,
          "velocity": 0.5905511811023622
        },
        {
          "duration": 0.33380672916666754,
          "durationTicks": 94,
          "midi": 36,
          "name": "C2",
          "ticks": 55296,
          "time": 196.36358399999997,
          "velocity": 0.5905511811023622
        },
        {
          "duration": 0.3338067291666391,
          "durationTicks": 94,
          "midi": 36,
          "name": "C2",
          "ticks": 55392,
          "time": 196.70449299999999,
          "velocity": 0.5905511811023622
        },
        {
          "duration": 0.5681816666666748,
          "durationTicks": 160,
          "midi": 38,
          "name": "D2",
          "ticks": 55488,
          "time": 197.04540199999997,
          "velocity": 0.5905511811023622
        },
        {
          "duration": 0.3338067291666391,
          "durationTicks": 94,
          "midi": 36,
          "name": "C2",
          "ticks": 55680,
          "time": 197.72722,
          "velocity": 0.5905511811023622
        },
        {
          "duration": 0.33380672916666754,
          "durationTicks": 94,
          "midi": 36,
          "name": "C2",
          "ticks": 55776,
          "time": 198.06812899999997,
          "velocity": 0.5905511811023622
        },
        {
          "duration": 0.5681816666666464,
          "durationTicks": 160,
          "midi": 38,
          "name": "D2",
          "ticks": 55872,
          "time": 198.40903799999998,
          "velocity": 0.5905511811023622
        },
        {
          "duration": 0.33380672916666754,
          "durationTicks": 94,
          "midi": 36,
          "name": "C2",
          "ticks": 56064,
          "time": 199.09085599999997,
          "velocity": 0.5905511811023622
        },
        {
          "duration": 0.3338067291666391,
          "durationTicks": 94,
          "midi": 36,
          "name": "C2",
          "ticks": 56160,
          "time": 199.43176499999998,
          "velocity": 0.5905511811023622
        },
        {
          "duration": 0.5681816666666748,
          "durationTicks": 160,
          "midi": 38,
          "name": "D2",
          "ticks": 56256,
          "time": 199.77267399999997,
          "velocity": 0.5905511811023622
        },
        {
          "duration": 0.3338067291666391,
          "durationTicks": 94,
          "midi": 36,
          "name": "C2",
          "ticks": 56448,
          "time": 200.454492,
          "velocity": 0.5905511811023622
        },
        {
          "duration": 0.33380672916666754,
          "durationTicks": 94,
          "midi": 36,
          "name": "C2",
          "ticks": 56544,
          "time": 200.79540099999997,
          "velocity": 0.5905511811023622
        },
        {
          "duration": 0.5681816666666464,
          "durationTicks": 160,
          "midi": 38,
          "name": "D2",
          "ticks": 56640,
          "time": 201.13630999999998,
          "velocity": 0.5905511811023622
        },
        {
          "duration": 0.33380672916666754,
          "durationTicks": 94,
          "midi": 36,
          "name": "C2",
          "ticks": 56832,
          "time": 201.81812799999997,
          "velocity": 0.5905511811023622
        },
        {
          "duration": 0.3338067291666391,
          "durationTicks": 94,
          "midi": 36,
          "name": "C2",
          "ticks": 56928,
          "time": 202.15903699999998,
          "velocity": 0.5905511811023622
        },
        {
          "duration": 0.5681816666666748,
          "durationTicks": 160,
          "midi": 38,
          "name": "D2",
          "ticks": 57024,
          "time": 202.49994599999997,
          "velocity": 0.5905511811023622
        },
        {
          "duration": 0.3338067291666391,
          "durationTicks": 94,
          "midi": 36,
          "name": "C2",
          "ticks": 57216,
          "time": 203.181764,
          "velocity": 0.5905511811023622
        },
        {
          "duration": 0.33380672916666754,
          "durationTicks": 94,
          "midi": 36,
          "name": "C2",
          "ticks": 57312,
          "time": 203.52267299999997,
          "velocity": 0.5905511811023622
        },
        {
          "duration": 0.5681816666666464,
          "durationTicks": 160,
          "midi": 38,
          "name": "D2",
          "ticks": 57408,
          "time": 203.86358199999998,
          "velocity": 0.5905511811023622
        },
        {
          "duration": 0.33380672916666754,
          "durationTicks": 94,
          "midi": 36,
          "name": "C2",
          "ticks": 57600,
          "time": 204.54539999999997,
          "velocity": 0.5905511811023622
        },
        {
          "duration": 0.3338067291666391,
          "durationTicks": 94,
          "midi": 36,
          "name": "C2",
          "ticks": 57696,
          "time": 204.88630899999998,
          "velocity": 0.5905511811023622
        },
        {
          "duration": 0.5681816666666748,
          "durationTicks": 160,
          "midi": 38,
          "name": "D2",
          "ticks": 57792,
          "time": 205.22721799999997,
          "velocity": 0.5905511811023622
        },
        {
          "duration": 0.3338067291666391,
          "durationTicks": 94,
          "midi": 36,
          "name": "C2",
          "ticks": 57984,
          "time": 205.909036,
          "velocity": 0.5905511811023622
        },
        {
          "duration": 0.33380672916666754,
          "durationTicks": 94,
          "midi": 36,
          "name": "C2",
          "ticks": 58080,
          "time": 206.24994499999997,
          "velocity": 0.5905511811023622
        },
        {
          "duration": 0.5681816666666464,
          "durationTicks": 160,
          "midi": 38,
          "name": "D2",
          "ticks": 58176,
          "time": 206.59085399999998,
          "velocity": 0.5905511811023622
        },
        {
          "duration": 0.33380672916666754,
          "durationTicks": 94,
          "midi": 36,
          "name": "C2",
          "ticks": 58368,
          "time": 207.27267199999997,
          "velocity": 0.5905511811023622
        },
        {
          "duration": 0.3338067291666391,
          "durationTicks": 94,
          "midi": 36,
          "name": "C2",
          "ticks": 58464,
          "time": 207.61358099999998,
          "velocity": 0.5905511811023622
        },
        {
          "duration": 0.5681816666666748,
          "durationTicks": 160,
          "midi": 38,
          "name": "D2",
          "ticks": 58560,
          "time": 207.95448999999996,
          "velocity": 0.5905511811023622
        },
        {
          "duration": 0.3338067291666391,
          "durationTicks": 94,
          "midi": 36,
          "name": "C2",
          "ticks": 58752,
          "time": 208.63630799999999,
          "velocity": 0.5905511811023622
        },
        {
          "duration": 0.33380672916666754,
          "durationTicks": 94,
          "midi": 36,
          "name": "C2",
          "ticks": 58848,
          "time": 208.97721699999997,
          "velocity": 0.5905511811023622
        },
        {
          "duration": 0.5681816666666464,
          "durationTicks": 160,
          "midi": 38,
          "name": "D2",
          "ticks": 58944,
          "time": 209.31812599999998,
          "velocity": 0.5905511811023622
        },
        {
          "duration": 0.33380672916666754,
          "durationTicks": 94,
          "midi": 36,
          "name": "C2",
          "ticks": 59136,
          "time": 209.99994399999997,
          "velocity": 0.5905511811023622
        },
        {
          "duration": 0.3338067291666391,
          "durationTicks": 94,
          "midi": 36,
          "name": "C2",
          "ticks": 59232,
          "time": 210.34085299999998,
          "velocity": 0.5905511811023622
        },
        {
          "duration": 0.5681816666666748,
          "durationTicks": 160,
          "midi": 38,
          "name": "D2",
          "ticks": 59328,
          "time": 210.68176199999996,
          "velocity": 0.5905511811023622
        },
        {
          "duration": 0.3338067291666391,
          "durationTicks": 94,
          "midi": 36,
          "name": "C2",
          "ticks": 59520,
          "time": 211.36357999999998,
          "velocity": 0.5905511811023622
        },
        {
          "duration": 0.33380672916666754,
          "durationTicks": 94,
          "midi": 36,
          "name": "C2",
          "ticks": 59616,
          "time": 211.70448899999997,
          "velocity": 0.5905511811023622
        },
        {
          "duration": 0.5681816666666464,
          "durationTicks": 160,
          "midi": 38,
          "name": "D2",
          "ticks": 59712,
          "time": 212.04539799999998,
          "velocity": 0.5905511811023622
        },
        {
          "duration": 0.33380672916666754,
          "durationTicks": 94,
          "midi": 36,
          "name": "C2",
          "ticks": 59904,
          "time": 212.72721599999997,
          "velocity": 0.5905511811023622
        },
        {
          "duration": 0.3338067291666391,
          "durationTicks": 94,
          "midi": 36,
          "name": "C2",
          "ticks": 60000,
          "time": 213.06812499999998,
          "velocity": 0.5905511811023622
        },
        {
          "duration": 0.5681816666666748,
          "durationTicks": 160,
          "midi": 38,
          "name": "D2",
          "ticks": 60096,
          "time": 213.40903399999996,
          "velocity": 0.5905511811023622
        },
        {
          "duration": 0.3338067291666391,
          "durationTicks": 94,
          "midi": 36,
          "name": "C2",
          "ticks": 60288,
          "time": 214.09085199999998,
          "velocity": 0.5905511811023622
        },
        {
          "duration": 0.33380672916666754,
          "durationTicks": 94,
          "midi": 36,
          "name": "C2",
          "ticks": 60384,
          "time": 214.43176099999997,
          "velocity": 0.5905511811023622
        },
        {
          "duration": 0.5681816666666464,
          "durationTicks": 160,
          "midi": 38,
          "name": "D2",
          "ticks": 60480,
          "time": 214.77266999999998,
          "velocity": 0.5905511811023622
        },
        {
          "duration": 0.33380672916666754,
          "durationTicks": 94,
          "midi": 36,
          "name": "C2",
          "ticks": 60672,
          "time": 215.45448799999997,
          "velocity": 0.5905511811023622
        },
        {
          "duration": 0.3338067291666391,
          "durationTicks": 94,
          "midi": 36,
          "name": "C2",
          "ticks": 60768,
          "time": 215.79539699999998,
          "velocity": 0.5905511811023622
        },
        {
          "duration": 0.5681816666666748,
          "durationTicks": 160,
          "midi": 38,
          "name": "D2",
          "ticks": 60864,
          "time": 216.13630599999996,
          "velocity": 0.5905511811023622
        },
        {
          "duration": 0.3338067291666391,
          "durationTicks": 94,
          "midi": 36,
          "name": "C2",
          "ticks": 61056,
          "time": 216.81812399999998,
          "velocity": 0.5905511811023622
        },
        {
          "duration": 0.33380672916666754,
          "durationTicks": 94,
          "midi": 36,
          "name": "C2",
          "ticks": 61152,
          "time": 217.15903299999997,
          "velocity": 0.5905511811023622
        },
        {
          "duration": 0.5681816666666464,
          "durationTicks": 160,
          "midi": 38,
          "name": "D2",
          "ticks": 61248,
          "time": 217.49994199999998,
          "velocity": 0.5905511811023622
        },
        {
          "duration": 0.33380672916666754,
          "durationTicks": 94,
          "midi": 36,
          "name": "C2",
          "ticks": 61440,
          "time": 218.18175999999997,
          "velocity": 0.5905511811023622
        },
        {
          "duration": 0.3338067291666391,
          "durationTicks": 94,
          "midi": 36,
          "name": "C2",
          "ticks": 61536,
          "time": 218.52266899999998,
          "velocity": 0.5905511811023622
        },
        {
          "duration": 0.5681816666666464,
          "durationTicks": 160,
          "midi": 38,
          "name": "D2",
          "ticks": 61632,
          "time": 218.863578,
          "velocity": 0.5905511811023622
        },
        {
          "duration": 0.3338067291666391,
          "durationTicks": 94,
          "midi": 36,
          "name": "C2",
          "ticks": 61824,
          "time": 219.54539599999998,
          "velocity": 0.5905511811023622
        },
        {
          "duration": 0.33380672916666754,
          "durationTicks": 94,
          "midi": 36,
          "name": "C2",
          "ticks": 61920,
          "time": 219.88630499999996,
          "velocity": 0.5905511811023622
        },
        {
          "duration": 0.5681816666666464,
          "durationTicks": 160,
          "midi": 38,
          "name": "D2",
          "ticks": 62016,
          "time": 220.22721399999998,
          "velocity": 0.5905511811023622
        },
        {
          "duration": 0.33380672916666754,
          "durationTicks": 94,
          "midi": 36,
          "name": "C2",
          "ticks": 62208,
          "time": 220.90903199999997,
          "velocity": 0.5905511811023622
        },
        {
          "duration": 0.3338067291666391,
          "durationTicks": 94,
          "midi": 36,
          "name": "C2",
          "ticks": 62304,
          "time": 221.24994099999998,
          "velocity": 0.5905511811023622
        },
        {
          "duration": 0.5681816666666464,
          "durationTicks": 160,
          "midi": 38,
          "name": "D2",
          "ticks": 62400,
          "time": 221.59085,
          "velocity": 0.5905511811023622
        },
        {
          "duration": 0.3338067291666391,
          "durationTicks": 94,
          "midi": 36,
          "name": "C2",
          "ticks": 62592,
          "time": 222.27266799999998,
          "velocity": 0.5905511811023622
        },
        {
          "duration": 0.33380672916666754,
          "durationTicks": 94,
          "midi": 36,
          "name": "C2",
          "ticks": 62688,
          "time": 222.61357699999996,
          "velocity": 0.5905511811023622
        },
        {
          "duration": 0.5681816666666464,
          "durationTicks": 160,
          "midi": 38,
          "name": "D2",
          "ticks": 62784,
          "time": 222.95448599999997,
          "velocity": 0.5905511811023622
        },
        {
          "duration": 0.33380672916666754,
          "durationTicks": 94,
          "midi": 36,
          "name": "C2",
          "ticks": 62976,
          "time": 223.63630399999997,
          "velocity": 0.5905511811023622
        },
        {
          "duration": 0.3338067291666391,
          "durationTicks": 94,
          "midi": 36,
          "name": "C2",
          "ticks": 63072,
          "time": 223.97721299999998,
          "velocity": 0.5905511811023622
        },
        {
          "duration": 0.5681816666666464,
          "durationTicks": 160,
          "midi": 38,
          "name": "D2",
          "ticks": 63168,
          "time": 224.318122,
          "velocity": 0.5905511811023622
        },
        {
          "duration": 0.3338067291666391,
          "durationTicks": 94,
          "midi": 36,
          "name": "C2",
          "ticks": 63360,
          "time": 224.99993999999998,
          "velocity": 0.5905511811023622
        },
        {
          "duration": 0.33380672916666754,
          "durationTicks": 94,
          "midi": 36,
          "name": "C2",
          "ticks": 63456,
          "time": 225.34084899999996,
          "velocity": 0.5905511811023622
        },
        {
          "duration": 0.5681816666666464,
          "durationTicks": 160,
          "midi": 38,
          "name": "D2",
          "ticks": 63552,
          "time": 225.68175799999997,
          "velocity": 0.5905511811023622
        },
        {
          "duration": 0.33380672916666754,
          "durationTicks": 94,
          "midi": 36,
          "name": "C2",
          "ticks": 63744,
          "time": 226.36357599999997,
          "velocity": 0.5905511811023622
        },
        {
          "duration": 0.3338067291666391,
          "durationTicks": 94,
          "midi": 36,
          "name": "C2",
          "ticks": 63840,
          "time": 226.70448499999998,
          "velocity": 0.5905511811023622
        },
        {
          "duration": 0.5681816666666464,
          "durationTicks": 160,
          "midi": 38,
          "name": "D2",
          "ticks": 63936,
          "time": 227.045394,
          "velocity": 0.5905511811023622
        },
        {
          "duration": 0.3338067291666391,
          "durationTicks": 94,
          "midi": 36,
          "name": "C2",
          "ticks": 64128,
          "time": 227.72721199999998,
          "velocity": 0.5905511811023622
        },
        {
          "duration": 0.33380672916666754,
          "durationTicks": 94,
          "midi": 36,
          "name": "C2",
          "ticks": 64224,
          "time": 228.06812099999996,
          "velocity": 0.5905511811023622
        },
        {
          "duration": 0.5681816666666464,
          "durationTicks": 160,
          "midi": 38,
          "name": "D2",
          "ticks": 64320,
          "time": 228.40902999999997,
          "velocity": 0.5905511811023622
        },
        {
          "duration": 0.33380672916666754,
          "durationTicks": 94,
          "midi": 36,
          "name": "C2",
          "ticks": 64512,
          "time": 229.09084799999997,
          "velocity": 0.5905511811023622
        },
        {
          "duration": 0.3338067291666391,
          "durationTicks": 94,
          "midi": 36,
          "name": "C2",
          "ticks": 64608,
          "time": 229.43175699999998,
          "velocity": 0.5905511811023622
        },
        {
          "duration": 0.5681816666666464,
          "durationTicks": 160,
          "midi": 38,
          "name": "D2",
          "ticks": 64704,
          "time": 229.772666,
          "velocity": 0.5905511811023622
        },
        {
          "duration": 0.3338067291666391,
          "durationTicks": 94,
          "midi": 36,
          "name": "C2",
          "ticks": 64896,
          "time": 230.45448399999998,
          "velocity": 0.5905511811023622
        },
        {
          "duration": 0.33380672916666754,
          "durationTicks": 94,
          "midi": 36,
          "name": "C2",
          "ticks": 64992,
          "time": 230.79539299999996,
          "velocity": 0.5905511811023622
        },
        {
          "duration": 0.5681816666666464,
          "durationTicks": 160,
          "midi": 38,
          "name": "D2",
          "ticks": 65088,
          "time": 231.13630199999997,
          "velocity": 0.5905511811023622
        },
        {
          "duration": 0.33380672916666754,
          "durationTicks": 94,
          "midi": 36,
          "name": "C2",
          "ticks": 65280,
          "time": 231.81811999999996,
          "velocity": 0.5905511811023622
        },
        {
          "duration": 0.3338067291666391,
          "durationTicks": 94,
          "midi": 36,
          "name": "C2",
          "ticks": 65376,
          "time": 232.15902899999998,
          "velocity": 0.5905511811023622
        },
        {
          "duration": 0.5681816666666464,
          "durationTicks": 160,
          "midi": 38,
          "name": "D2",
          "ticks": 65472,
          "time": 232.499938,
          "velocity": 0.5905511811023622
        },
        {
          "duration": 0.3338067291666391,
          "durationTicks": 94,
          "midi": 36,
          "name": "C2",
          "ticks": 65664,
          "time": 233.18175599999998,
          "velocity": 0.5905511811023622
        },
        {
          "duration": 0.33380672916666754,
          "durationTicks": 94,
          "midi": 36,
          "name": "C2",
          "ticks": 65760,
          "time": 233.52266499999996,
          "velocity": 0.5905511811023622
        },
        {
          "duration": 0.5681816666666464,
          "durationTicks": 160,
          "midi": 38,
          "name": "D2",
          "ticks": 65856,
          "time": 233.86357399999997,
          "velocity": 0.5905511811023622
        },
        {
          "duration": 0.33380672916666754,
          "durationTicks": 94,
          "midi": 36,
          "name": "C2",
          "ticks": 66048,
          "time": 234.54539199999996,
          "velocity": 0.5905511811023622
        },
        {
          "duration": 0.3338067291666391,
          "durationTicks": 94,
          "midi": 36,
          "name": "C2",
          "ticks": 66144,
          "time": 234.88630099999997,
          "velocity": 0.5905511811023622
        },
        {
          "duration": 0.5681816666666464,
          "durationTicks": 160,
          "midi": 38,
          "name": "D2",
          "ticks": 66240,
          "time": 235.22720999999999,
          "velocity": 0.5905511811023622
        },
        {
          "duration": 0.3338067291666391,
          "durationTicks": 94,
          "midi": 36,
          "name": "C2",
          "ticks": 66432,
          "time": 235.90902799999998,
          "velocity": 0.5905511811023622
        },
        {
          "duration": 0.33380672916666754,
          "durationTicks": 94,
          "midi": 36,
          "name": "C2",
          "ticks": 66528,
          "time": 236.24993699999996,
          "velocity": 0.5905511811023622
        },
        {
          "duration": 0.5681816666666464,
          "durationTicks": 160,
          "midi": 38,
          "name": "D2",
          "ticks": 66624,
          "time": 236.59084599999997,
          "velocity": 0.5905511811023622
        },
        {
          "duration": 0.33380672916666754,
          "durationTicks": 94,
          "midi": 36,
          "name": "C2",
          "ticks": 66816,
          "time": 237.27266399999996,
          "velocity": 0.5905511811023622
        },
        {
          "duration": 0.3338067291666391,
          "durationTicks": 94,
          "midi": 36,
          "name": "C2",
          "ticks": 66912,
          "time": 237.61357299999997,
          "velocity": 0.5905511811023622
        },
        {
          "duration": 0.5681816666666464,
          "durationTicks": 160,
          "midi": 38,
          "name": "D2",
          "ticks": 67008,
          "time": 237.95448199999998,
          "velocity": 0.5905511811023622
        },
        {
          "duration": 0.3338067291666391,
          "durationTicks": 94,
          "midi": 36,
          "name": "C2",
          "ticks": 67200,
          "time": 238.63629999999998,
          "velocity": 0.5905511811023622
        },
        {
          "duration": 0.33380672916666754,
          "durationTicks": 94,
          "midi": 36,
          "name": "C2",
          "ticks": 67296,
          "time": 238.97720899999996,
          "velocity": 0.5905511811023622
        },
        {
          "duration": 0.5681816666666464,
          "durationTicks": 160,
          "midi": 38,
          "name": "D2",
          "ticks": 67392,
          "time": 239.31811799999997,
          "velocity": 0.5905511811023622
        },
        {
          "duration": 0.33380672916666754,
          "durationTicks": 94,
          "midi": 36,
          "name": "C2",
          "ticks": 67584,
          "time": 239.99993599999996,
          "velocity": 0.5905511811023622
        },
        {
          "duration": 0.33380672916666754,
          "durationTicks": 94,
          "midi": 36,
          "name": "C2",
          "ticks": 67680,
          "time": 240.34084499999997,
          "velocity": 0.5905511811023622
        },
        {
          "duration": 0.5681816666666464,
          "durationTicks": 160,
          "midi": 38,
          "name": "D2",
          "ticks": 67776,
          "time": 240.68175399999998,
          "velocity": 0.5905511811023622
        },
        {
          "duration": 0.3338067291666391,
          "durationTicks": 94,
          "midi": 36,
          "name": "C2",
          "ticks": 67968,
          "time": 241.36357199999998,
          "velocity": 0.5905511811023622
        },
        {
          "duration": 0.3338067291666391,
          "durationTicks": 94,
          "midi": 36,
          "name": "C2",
          "ticks": 68064,
          "time": 241.704481,
          "velocity": 0.5905511811023622
        },
        {
          "duration": 0.5681816666666464,
          "durationTicks": 160,
          "midi": 38,
          "name": "D2",
          "ticks": 68160,
          "time": 242.04538999999997,
          "velocity": 0.5905511811023622
        },
        {
          "duration": 0.33380672916666754,
          "durationTicks": 94,
          "midi": 36,
          "name": "C2",
          "ticks": 68352,
          "time": 242.72720799999996,
          "velocity": 0.5905511811023622
        },
        {
          "duration": 0.33380672916666754,
          "durationTicks": 94,
          "midi": 36,
          "name": "C2",
          "ticks": 68448,
          "time": 243.06811699999997,
          "velocity": 0.5905511811023622
        },
        {
          "duration": 0.5681816666666464,
          "durationTicks": 160,
          "midi": 38,
          "name": "D2",
          "ticks": 68544,
          "time": 243.40902599999998,
          "velocity": 0.5905511811023622
        },
        {
          "duration": 0.3338067291666391,
          "durationTicks": 94,
          "midi": 36,
          "name": "C2",
          "ticks": 68736,
          "time": 244.09084399999998,
          "velocity": 0.5905511811023622
        },
        {
          "duration": 0.3338067291666391,
          "durationTicks": 94,
          "midi": 36,
          "name": "C2",
          "ticks": 68832,
          "time": 244.431753,
          "velocity": 0.5905511811023622
        },
        {
          "duration": 0.5681816666666464,
          "durationTicks": 160,
          "midi": 38,
          "name": "D2",
          "ticks": 68928,
          "time": 244.77266199999997,
          "velocity": 0.5905511811023622
        },
        {
          "duration": 0.33380672916666754,
          "durationTicks": 94,
          "midi": 36,
          "name": "C2",
          "ticks": 69120,
          "time": 245.45447999999996,
          "velocity": 0.5905511811023622
        },
        {
          "duration": 0.33380672916666754,
          "durationTicks": 94,
          "midi": 36,
          "name": "C2",
          "ticks": 69216,
          "time": 245.79538899999997,
          "velocity": 0.5905511811023622
        },
        {
          "duration": 0.5681816666666464,
          "durationTicks": 160,
          "midi": 38,
          "name": "D2",
          "ticks": 69312,
          "time": 246.13629799999998,
          "velocity": 0.5905511811023622
        },
        {
          "duration": 0.3338067291666391,
          "durationTicks": 94,
          "midi": 36,
          "name": "C2",
          "ticks": 69504,
          "time": 246.81811599999997,
          "velocity": 0.5905511811023622
        },
        {
          "duration": 0.3338067291666391,
          "durationTicks": 94,
          "midi": 36,
          "name": "C2",
          "ticks": 69600,
          "time": 247.15902499999999,
          "velocity": 0.5905511811023622
        },
        {
          "duration": 0.5681816666666464,
          "durationTicks": 160,
          "midi": 38,
          "name": "D2",
          "ticks": 69696,
          "time": 247.49993399999997,
          "velocity": 0.5905511811023622
        },
        {
          "duration": 0.5681816666666748,
          "durationTicks": 160,
          "midi": 36,
          "name": "C2",
          "ticks": 69888,
          "time": 248.18175199999996,
          "velocity": 0.5905511811023622
        }
      ],
      "endOfTrackTicks": 70048
    },
    {
      "channel": 1,
      "controlChanges": {
        "7": [
          {
            "number": 7,
            "ticks": 0,
            "time": 0,
            "value": 1
          },
          {
            "number": 7,
            "ticks": 0,
            "time": 0,
            "value": 1
          }
        ],
        "10": [
          {
            "number": 10,
            "ticks": 0,
            "time": 0,
            "value": 0.5039370078740157
          },
          {
            "number": 10,
            "ticks": 0,
            "time": 0,
            "value": 0.5039370078740157
          }
        ]
      },
      "pitchBends": [],
      "instrument": {
        "family": "bass",
        "number": 33,
        "name": "electric bass (finger)"
      },
      "name": "",
      "notes": [
        {
          "duration": 0.33380672916666576,
          "durationTicks": 94,
          "midi": 35,
          "name": "B1",
          "ticks": 3840,
          "time": 13.636359999999998,
          "velocity": 0.5905511811023622
        },
        {
          "duration": 0.33380672916666576,
          "durationTicks": 94,
          "midi": 35,
          "name": "B1",
          "ticks": 3936,
          "time": 13.977268999999998,
          "velocity": 0.5905511811023622
        },
        {
          "duration": 0.33380672916666576,
          "durationTicks": 94,
          "midi": 35,
          "name": "B1",
          "ticks": 4032,
          "time": 14.318177999999998,
          "velocity": 0.5905511811023622
        },
        {
          "duration": 0.33380672916666576,
          "durationTicks": 94,
          "midi": 35,
          "name": "B1",
          "ticks": 4128,
          "time": 14.659086999999998,
          "velocity": 0.5905511811023622
        },
        {
          "duration": 0.33380672916666576,
          "durationTicks": 94,
          "midi": 35,
          "name": "B1",
          "ticks": 4224,
          "time": 14.999995999999998,
          "velocity": 0.5905511811023622
        },
        {
          "duration": 0.33380672916666576,
          "durationTicks": 94,
          "midi": 35,
          "name": "B1",
          "ticks": 4320,
          "time": 15.340904999999998,
          "velocity": 0.5905511811023622
        },
        {
          "duration": 0.33380672916666576,
          "durationTicks": 94,
          "midi": 35,
          "name": "B1",
          "ticks": 4416,
          "time": 15.681813999999997,
          "velocity": 0.5905511811023622
        },
        {
          "duration": 0.333806729166664,
          "durationTicks": 94,
          "midi": 35,
          "name": "B1",
          "ticks": 4512,
          "time": 16.022723,
          "velocity": 0.5905511811023622
        },
        {
          "duration": 0.333806729166664,
          "durationTicks": 94,
          "midi": 35,
          "name": "B1",
          "ticks": 4608,
          "time": 16.363632,
          "velocity": 0.5905511811023622
        },
        {
          "duration": 0.333806729166664,
          "durationTicks": 94,
          "midi": 35,
          "name": "B1",
          "ticks": 4704,
          "time": 16.704541,
          "velocity": 0.5905511811023622
        },
        {
          "duration": 0.333806729166664,
          "durationTicks": 94,
          "midi": 35,
          "name": "B1",
          "ticks": 4800,
          "time": 17.04545,
          "velocity": 0.5905511811023622
        },
        {
          "duration": 0.333806729166664,
          "durationTicks": 94,
          "midi": 35,
          "name": "B1",
          "ticks": 4896,
          "time": 17.386359,
          "velocity": 0.5905511811023622
        },
        {
          "duration": 0.333806729166664,
          "durationTicks": 94,
          "midi": 35,
          "name": "B1",
          "ticks": 4992,
          "time": 17.727268,
          "velocity": 0.5905511811023622
        },
        {
          "duration": 0.333806729166664,
          "durationTicks": 94,
          "midi": 35,
          "name": "B1",
          "ticks": 5088,
          "time": 18.068177,
          "velocity": 0.5905511811023622
        },
        {
          "duration": 0.333806729166664,
          "durationTicks": 94,
          "midi": 35,
          "name": "B1",
          "ticks": 5184,
          "time": 18.409086,
          "velocity": 0.5905511811023622
        },
        {
          "duration": 0.333806729166664,
          "durationTicks": 94,
          "midi": 35,
          "name": "B1",
          "ticks": 5280,
          "time": 18.749995,
          "velocity": 0.5905511811023622
        },
        {
          "duration": 0.333806729166664,
          "durationTicks": 94,
          "midi": 30,
          "name": "F#1",
          "ticks": 5376,
          "time": 19.090904,
          "velocity": 0.5905511811023622
        },
        {
          "duration": 0.333806729166664,
          "durationTicks": 94,
          "midi": 30,
          "name": "F#1",
          "ticks": 5472,
          "time": 19.431813,
          "velocity": 0.5905511811023622
        },
        {
          "duration": 0.333806729166664,
          "durationTicks": 94,
          "midi": 30,
          "name": "F#1",
          "ticks": 5568,
          "time": 19.772721999999998,
          "velocity": 0.5905511811023622
        },
        {
          "duration": 0.333806729166664,
          "durationTicks": 94,
          "midi": 30,
          "name": "F#1",
          "ticks": 5664,
          "time": 20.113630999999998,
          "velocity": 0.5905511811023622
        },
        {
          "duration": 0.333806729166664,
          "durationTicks": 94,
          "midi": 30,
          "name": "F#1",
          "ticks": 5760,
          "time": 20.454539999999998,
          "velocity": 0.5905511811023622
        },
        {
          "duration": 0.333806729166664,
          "durationTicks": 94,
          "midi": 30,
          "name": "F#1",
          "ticks": 5856,
          "time": 20.795448999999998,
          "velocity": 0.5905511811023622
        },
        {
          "duration": 0.333806729166664,
          "durationTicks": 94,
          "midi": 30,
          "name": "F#1",
          "ticks": 5952,
          "time": 21.136357999999998,
          "velocity": 0.5905511811023622
        },
        {
          "duration": 0.33380672916666754,
          "durationTicks": 94,
          "midi": 30,
          "name": "F#1",
          "ticks": 6048,
          "time": 21.477266999999998,
          "velocity": 0.5905511811023622
        },
        {
          "duration": 0.33380672916666754,
          "durationTicks": 94,
          "midi": 30,
          "name": "F#1",
          "ticks": 6144,
          "time": 21.818175999999998,
          "velocity": 0.5905511811023622
        },
        {
          "duration": 0.33380672916666754,
          "durationTicks": 94,
          "midi": 30,
          "name": "F#1",
          "ticks": 6240,
          "time": 22.159084999999997,
          "velocity": 0.5905511811023622
        },
        {
          "duration": 0.33380672916666754,
          "durationTicks": 94,
          "midi": 30,
          "name": "F#1",
          "ticks": 6336,
          "time": 22.499993999999997,
          "velocity": 0.5905511811023622
        },
        {
          "duration": 0.33380672916666754,
          "durationTicks": 94,
          "midi": 30,
          "name": "F#1",
          "ticks": 6432,
          "time": 22.840902999999997,
          "velocity": 0.5905511811023622
        },
        {
          "duration": 0.33380672916666754,
          "durationTicks": 94,
          "midi": 30,
          "name": "F#1",
          "ticks": 6528,
          "time": 23.181811999999997,
          "velocity": 0.5905511811023622
        },
        {
          "duration": 0.33380672916666754,
          "durationTicks": 94,
          "midi": 30,
          "name": "F#1",
          "ticks": 6624,
          "time": 23.522720999999997,
          "velocity": 0.5905511811023622
        },
        {
          "duration": 0.33380672916666754,
          "durationTicks": 94,
          "midi": 30,
          "name": "F#1",
          "ticks": 6720,
          "time": 23.863629999999997,
          "velocity": 0.5905511811023622
        },
        {
          "duration": 0.33380672916666754,
          "durationTicks": 94,
          "midi": 30,
          "name": "F#1",
          "ticks": 6816,
          "time": 24.204538999999997,
          "velocity": 0.5905511811023622
        },
        {
          "duration": 0.33380672916666754,
          "durationTicks": 94,
          "midi": 28,
          "name": "E1",
          "ticks": 6912,
          "time": 24.545447999999997,
          "velocity": 0.5905511811023622
        },
        {
          "duration": 0.33380672916666754,
          "durationTicks": 94,
          "midi": 28,
          "name": "E1",
          "ticks": 7008,
          "time": 24.886356999999997,
          "velocity": 0.5905511811023622
        },
        {
          "duration": 0.33380672916666754,
          "durationTicks": 94,
          "midi": 28,
          "name": "E1",
          "ticks": 7104,
          "time": 25.227265999999997,
          "velocity": 0.5905511811023622
        },
        {
          "duration": 0.33380672916666754,
          "durationTicks": 94,
          "midi": 28,
          "name": "E1",
          "ticks": 7200,
          "time": 25.568174999999997,
          "velocity": 0.5905511811023622
        },
        {
          "duration": 0.33380672916666754,
          "durationTicks": 94,
          "midi": 28,
          "name": "E1",
          "ticks": 7296,
          "time": 25.909083999999996,
          "velocity": 0.5905511811023622
        },
        {
          "duration": 0.33380672916666754,
          "durationTicks": 94,
          "midi": 28,
          "name": "E1",
          "ticks": 7392,
          "time": 26.249992999999996,
          "velocity": 0.5905511811023622
        },
        {
          "duration": 0.33380672916666754,
          "durationTicks": 94,
          "midi": 28,
          "name": "E1",
          "ticks": 7488,
          "time": 26.590901999999996,
          "velocity": 0.5905511811023622
        },
        {
          "duration": 0.33380672916666754,
          "durationTicks": 94,
          "midi": 28,
          "name": "E1",
          "ticks": 7584,
          "time": 26.931810999999996,
          "velocity": 0.5905511811023622
        },
        {
          "duration": 0.33380672916666754,
          "durationTicks": 94,
          "midi": 28,
          "name": "E1",
          "ticks": 7680,
          "time": 27.272719999999996,
          "velocity": 0.5905511811023622
        },
        {
          "duration": 0.33380672916666754,
          "durationTicks": 94,
          "midi": 28,
          "name": "E1",
          "ticks": 7776,
          "time": 27.613628999999996,
          "velocity": 0.5905511811023622
        },
        {
          "duration": 0.33380672916666754,
          "durationTicks": 94,
          "midi": 28,
          "name": "E1",
          "ticks": 7872,
          "time": 27.954537999999996,
          "velocity": 0.5905511811023622
        },
        {
          "duration": 0.33380672916666754,
          "durationTicks": 94,
          "midi": 28,
          "name": "E1",
          "ticks": 7968,
          "time": 28.295446999999996,
          "velocity": 0.5905511811023622
        },
        {
          "duration": 0.3338067291666711,
          "durationTicks": 94,
          "midi": 28,
          "name": "E1",
          "ticks": 8064,
          "time": 28.636355999999996,
          "velocity": 0.5905511811023622
        },
        {
          "duration": 0.3338067291666711,
          "durationTicks": 94,
          "midi": 28,
          "name": "E1",
          "ticks": 8160,
          "time": 28.977264999999996,
          "velocity": 0.5905511811023622
        },
        {
          "duration": 0.3338067291666711,
          "durationTicks": 94,
          "midi": 28,
          "name": "E1",
          "ticks": 8256,
          "time": 29.318173999999996,
          "velocity": 0.5905511811023622
        },
        {
          "duration": 0.3338067291666711,
          "durationTicks": 94,
          "midi": 28,
          "name": "E1",
          "ticks": 8352,
          "time": 29.659082999999995,
          "velocity": 0.5905511811023622
        },
        {
          "duration": 0.3338067291666711,
          "durationTicks": 94,
          "midi": 35,
          "name": "B1",
          "ticks": 8448,
          "time": 29.999991999999995,
          "velocity": 0.5905511811023622
        },
        {
          "duration": 0.3338067291666711,
          "durationTicks": 94,
          "midi": 35,
          "name": "B1",
          "ticks": 8544,
          "time": 30.340900999999995,
          "velocity": 0.5905511811023622
        },
        {
          "duration": 0.3338067291666711,
          "durationTicks": 94,
          "midi": 35,
          "name": "B1",
          "ticks": 8640,
          "time": 30.681809999999995,
          "velocity": 0.5905511811023622
        },
        {
          "duration": 0.3338067291666711,
          "durationTicks": 94,
          "midi": 35,
          "name": "B1",
          "ticks": 8736,
          "time": 31.022718999999995,
          "velocity": 0.5905511811023622
        },
        {
          "duration": 0.3338067291666711,
          "durationTicks": 94,
          "midi": 35,
          "name": "B1",
          "ticks": 8832,
          "time": 31.363627999999995,
          "velocity": 0.5905511811023622
        },
        {
          "duration": 0.33380672916666754,
          "durationTicks": 94,
          "midi": 35,
          "name": "B1",
          "ticks": 8928,
          "time": 31.704536999999995,
          "velocity": 0.5905511811023622
        },
        {
          "duration": 0.33380672916666754,
          "durationTicks": 94,
          "midi": 35,
          "name": "B1",
          "ticks": 9024,
          "time": 32.045446,
          "velocity": 0.5905511811023622
        },
        {
          "duration": 0.33380672916666754,
          "durationTicks": 94,
          "midi": 35,
          "name": "B1",
          "ticks": 9120,
          "time": 32.386354999999995,
          "velocity": 0.5905511811023622
        },
        {
          "duration": 0.33380672916666754,
          "durationTicks": 94,
          "midi": 35,
          "name": "B1",
          "ticks": 9216,
          "time": 32.727264,
          "velocity": 0.5905511811023622
        },
        {
          "duration": 0.33380672916666754,
          "durationTicks": 94,
          "midi": 35,
          "name": "B1",
          "ticks": 9312,
          "time": 33.068172999999994,
          "velocity": 0.5905511811023622
        },
        {
          "duration": 0.33380672916666754,
          "durationTicks": 94,
          "midi": 35,
          "name": "B1",
          "ticks": 9408,
          "time": 33.409082,
          "velocity": 0.5905511811023622
        },
        {
          "duration": 0.33380672916666754,
          "durationTicks": 94,
          "midi": 35,
          "name": "B1",
          "ticks": 9504,
          "time": 33.749990999999994,
          "velocity": 0.5905511811023622
        },
        {
          "duration": 0.33380672916666754,
          "durationTicks": 94,
          "midi": 35,
          "name": "B1",
          "ticks": 9600,
          "time": 34.0909,
          "velocity": 0.5905511811023622
        },
        {
          "duration": 0.33380672916666754,
          "durationTicks": 94,
          "midi": 35,
          "name": "B1",
          "ticks": 9696,
          "time": 34.431808999999994,
          "velocity": 0.5905511811023622
        },
        {
          "duration": 0.33380672916666754,
          "durationTicks": 94,
          "midi": 35,
          "name": "B1",
          "ticks": 9792,
          "time": 34.772718,
          "velocity": 0.5905511811023622
        },
        {
          "duration": 0.33380672916666754,
          "durationTicks": 94,
          "midi": 35,
          "name": "B1",
          "ticks": 9888,
          "time": 35.113626999999994,
          "velocity": 0.5905511811023622
        },
        {
          "duration": 0.33380672916666754,
          "durationTicks": 94,
          "midi": 35,
          "name": "B1",
          "ticks": 9984,
          "time": 35.454536,
          "velocity": 0.5905511811023622
        },
        {
          "duration": 0.33380672916666754,
          "durationTicks": 94,
          "midi": 35,
          "name": "B1",
          "ticks": 10080,
          "time": 35.795444999999994,
          "velocity": 0.5905511811023622
        },
        {
          "duration": 0.33380672916666754,
          "durationTicks": 94,
          "midi": 35,
          "name": "B1",
          "ticks": 10176,
          "time": 36.136354,
          "velocity": 0.5905511811023622
        },
        {
          "duration": 0.33380672916666754,
          "durationTicks": 94,
          "midi": 35,
          "name": "B1",
          "ticks": 10272,
          "time": 36.477262999999994,
          "velocity": 0.5905511811023622
        },
        {
          "duration": 0.33380672916666754,
          "durationTicks": 94,
          "midi": 35,
          "name": "B1",
          "ticks": 10368,
          "time": 36.818172,
          "velocity": 0.5905511811023622
        },
        {
          "duration": 0.33380672916666754,
          "durationTicks": 94,
          "midi": 35,
          "name": "B1",
          "ticks": 10464,
          "time": 37.15908099999999,
          "velocity": 0.5905511811023622
        },
        {
          "duration": 0.33380672916666754,
          "durationTicks": 94,
          "midi": 35,
          "name": "B1",
          "ticks": 10560,
          "time": 37.49999,
          "velocity": 0.5905511811023622
        },
        {
          "duration": 0.33380672916666754,
          "durationTicks": 94,
          "midi": 35,
          "name": "B1",
          "ticks": 10656,
          "time": 37.84089899999999,
          "velocity": 0.5905511811023622
        },
        {
          "duration": 0.33380672916666754,
          "durationTicks": 94,
          "midi": 35,
          "name": "B1",
          "ticks": 10752,
          "time": 38.181808,
          "velocity": 0.5905511811023622
        },
        {
          "duration": 0.33380672916666754,
          "durationTicks": 94,
          "midi": 35,
          "name": "B1",
          "ticks": 10848,
          "time": 38.52271699999999,
          "velocity": 0.5905511811023622
        },
        {
          "duration": 0.33380672916666754,
          "durationTicks": 94,
          "midi": 35,
          "name": "B1",
          "ticks": 10944,
          "time": 38.863626,
          "velocity": 0.5905511811023622
        },
        {
          "duration": 0.33380672916666754,
          "durationTicks": 94,
          "midi": 35,
          "name": "B1",
          "ticks": 11040,
          "time": 39.20453499999999,
          "velocity": 0.5905511811023622
        },
        {
          "duration": 0.33380672916666754,
          "durationTicks": 94,
          "midi": 35,
          "name": "B1",
          "ticks": 11136,
          "time": 39.545443999999996,
          "velocity": 0.5905511811023622
        },
        {
          "duration": 0.33380672916667464,
          "durationTicks": 94,
          "midi": 35,
          "name": "B1",
          "ticks": 11232,
          "time": 39.88635299999999,
          "velocity": 0.5905511811023622
        },
        {
          "duration": 0.33380672916666754,
          "durationTicks": 94,
          "midi": 35,
          "name": "B1",
          "ticks": 11328,
          "time": 40.227261999999996,
          "velocity": 0.5905511811023622
        },
        {
          "duration": 0.33380672916667464,
          "durationTicks": 94,
          "midi": 35,
          "name": "B1",
          "ticks": 11424,
          "time": 40.56817099999999,
          "velocity": 0.5905511811023622
        },
        {
          "duration": 0.33380672916666754,
          "durationTicks": 94,
          "midi": 30,
          "name": "F#1",
          "ticks": 11520,
          "time": 40.909079999999996,
          "velocity": 0.5905511811023622
        },
        {
          "duration": 0.33380672916667464,
          "durationTicks": 94,
          "midi": 30,
          "name": "F#1",
          "ticks": 11616,
          "time": 41.24998899999999,
          "velocity": 0.5905511811023622
        },
        {
          "duration": 0.33380672916666754,
          "durationTicks": 94,
          "midi": 30,
          "name": "F#1",
          "ticks": 11712,
          "time": 41.590897999999996,
          "velocity": 0.5905511811023622
        },
        {
          "duration": 0.33380672916667464,
          "durationTicks": 94,
          "midi": 30,
          "name": "F#1",
          "ticks": 11808,
          "time": 41.93180699999999,
          "velocity": 0.5905511811023622
        },
        {
          "duration": 0.33380672916666754,
          "durationTicks": 94,
          "midi": 30,
          "name": "F#1",
          "ticks": 11904,
          "time": 42.272715999999996,
          "velocity": 0.5905511811023622
        },
        {
          "duration": 0.33380672916667464,
          "durationTicks": 94,
          "midi": 30,
          "name": "F#1",
          "ticks": 12000,
          "time": 42.61362499999999,
          "velocity": 0.5905511811023622
        },
        {
          "duration": 0.33380672916666754,
          "durationTicks": 94,
          "midi": 30,
          "name": "F#1",
          "ticks": 12096,
          "time": 42.954533999999995,
          "velocity": 0.5905511811023622
        },
        {
          "duration": 0.33380672916667464,
          "durationTicks": 94,
          "midi": 30,
          "name": "F#1",
          "ticks": 12192,
          "time": 43.29544299999999,
          "velocity": 0.5905511811023622
        },
        {
          "duration": 0.33380672916666043,
          "durationTicks": 94,
          "midi": 30,
          "name": "F#1",
          "ticks": 12288,
          "time": 43.636351999999995,
          "velocity": 0.5905511811023622
        },
        {
          "duration": 0.33380672916666043,
          "durationTicks": 94,
          "midi": 30,
          "name": "F#1",
          "ticks": 12384,
          "time": 43.977261,
          "velocity": 0.5905511811023622
        },
        {
          "duration": 0.33380672916666043,
          "durationTicks": 94,
          "midi": 30,
          "name": "F#1",
          "ticks": 12480,
          "time": 44.318169999999995,
          "velocity": 0.5905511811023622
        },
        {
          "duration": 0.33380672916666043,
          "durationTicks": 94,
          "midi": 30,
          "name": "F#1",
          "ticks": 12576,
          "time": 44.659079,
          "velocity": 0.5905511811023622
        },
        {
          "duration": 0.33380672916666043,
          "durationTicks": 94,
          "midi": 30,
          "name": "F#1",
          "ticks": 12672,
          "time": 44.999987999999995,
          "velocity": 0.5905511811023622
        },
        {
          "duration": 0.33380672916666043,
          "durationTicks": 94,
          "midi": 30,
          "name": "F#1",
          "ticks": 12768,
          "time": 45.340897,
          "velocity": 0.5905511811023622
        },
        {
          "duration": 0.33380672916666043,
          "durationTicks": 94,
          "midi": 30,
          "name": "F#1",
          "ticks": 12864,
          "time": 45.681805999999995,
          "velocity": 0.5905511811023622
        },
        {
          "duration": 0.33380672916666043,
          "durationTicks": 94,
          "midi": 30,
          "name": "F#1",
          "ticks": 12960,
          "time": 46.022715,
          "velocity": 0.5905511811023622
        },
        {
          "duration": 0.33380672916666043,
          "durationTicks": 94,
          "midi": 28,
          "name": "E1",
          "ticks": 13056,
          "time": 46.363623999999994,
          "velocity": 0.5905511811023622
        },
        {
          "duration": 0.33380672916666043,
          "durationTicks": 94,
          "midi": 28,
          "name": "E1",
          "ticks": 13152,
          "time": 46.704533,
          "velocity": 0.5905511811023622
        },
        {
          "duration": 0.33380672916666043,
          "durationTicks": 94,
          "midi": 28,
          "name": "E1",
          "ticks": 13248,
          "time": 47.045441999999994,
          "velocity": 0.5905511811023622
        },
        {
          "duration": 0.33380672916666043,
          "durationTicks": 94,
          "midi": 28,
          "name": "E1",
          "ticks": 13344,
          "time": 47.386351,
          "velocity": 0.5905511811023622
        },
        {
          "duration": 0.33380672916666754,
          "durationTicks": 94,
          "midi": 28,
          "name": "E1",
          "ticks": 13440,
          "time": 47.727259999999994,
          "velocity": 0.5905511811023622
        },
        {
          "duration": 0.33380672916666043,
          "durationTicks": 94,
          "midi": 28,
          "name": "E1",
          "ticks": 13536,
          "time": 48.068169,
          "velocity": 0.5905511811023622
        },
        {
          "duration": 0.33380672916666754,
          "durationTicks": 94,
          "midi": 28,
          "name": "E1",
          "ticks": 13632,
          "time": 48.409077999999994,
          "velocity": 0.5905511811023622
        },
        {
          "duration": 0.33380672916666043,
          "durationTicks": 94,
          "midi": 28,
          "name": "E1",
          "ticks": 13728,
          "time": 48.749987,
          "velocity": 0.5905511811023622
        },
        {
          "duration": 0.33380672916666754,
          "durationTicks": 94,
          "midi": 28,
          "name": "E1",
          "ticks": 13824,
          "time": 49.090895999999994,
          "velocity": 0.5905511811023622
        },
        {
          "duration": 0.33380672916666043,
          "durationTicks": 94,
          "midi": 28,
          "name": "E1",
          "ticks": 13920,
          "time": 49.431805,
          "velocity": 0.5905511811023622
        },
        {
          "duration": 0.33380672916666754,
          "durationTicks": 94,
          "midi": 28,
          "name": "E1",
          "ticks": 14016,
          "time": 49.77271399999999,
          "velocity": 0.5905511811023622
        },
        {
          "duration": 0.33380672916666043,
          "durationTicks": 94,
          "midi": 28,
          "name": "E1",
          "ticks": 14112,
          "time": 50.113623,
          "velocity": 0.5905511811023622
        },
        {
          "duration": 0.33380672916666754,
          "durationTicks": 94,
          "midi": 28,
          "name": "E1",
          "ticks": 14208,
          "time": 50.45453199999999,
          "velocity": 0.5905511811023622
        },
        {
          "duration": 0.33380672916666043,
          "durationTicks": 94,
          "midi": 28,
          "name": "E1",
          "ticks": 14304,
          "time": 50.795441,
          "velocity": 0.5905511811023622
        },
        {
          "duration": 0.33380672916666754,
          "durationTicks": 94,
          "midi": 28,
          "name": "E1",
          "ticks": 14400,
          "time": 51.13634999999999,
          "velocity": 0.5905511811023622
        },
        {
          "duration": 0.33380672916666043,
          "durationTicks": 94,
          "midi": 28,
          "name": "E1",
          "ticks": 14496,
          "time": 51.477259,
          "velocity": 0.5905511811023622
        },
        {
          "duration": 0.33380672916666754,
          "durationTicks": 94,
          "midi": 35,
          "name": "B1",
          "ticks": 14592,
          "time": 51.81816799999999,
          "velocity": 0.5905511811023622
        },
        {
          "duration": 0.33380672916666043,
          "durationTicks": 94,
          "midi": 35,
          "name": "B1",
          "ticks": 14688,
          "time": 52.159076999999996,
          "velocity": 0.5905511811023622
        },
        {
          "duration": 0.33380672916666754,
          "durationTicks": 94,
          "midi": 35,
          "name": "B1",
          "ticks": 14784,
          "time": 52.49998599999999,
          "velocity": 0.5905511811023622
        },
        {
          "duration": 0.33380672916666043,
          "durationTicks": 94,
          "midi": 35,
          "name": "B1",
          "ticks": 14880,
          "time": 52.840894999999996,
          "velocity": 0.5905511811023622
        },
        {
          "duration": 0.33380672916666754,
          "durationTicks": 94,
          "midi": 35,
          "name": "B1",
          "ticks": 14976,
          "time": 53.18180399999999,
          "velocity": 0.5905511811023622
        },
        {
          "duration": 0.33380672916666043,
          "durationTicks": 94,
          "midi": 35,
          "name": "B1",
          "ticks": 15072,
          "time": 53.522712999999996,
          "velocity": 0.5905511811023622
        },
        {
          "duration": 0.33380672916666754,
          "durationTicks": 94,
          "midi": 35,
          "name": "B1",
          "ticks": 15168,
          "time": 53.86362199999999,
          "velocity": 0.5905511811023622
        },
        {
          "duration": 0.33380672916666043,
          "durationTicks": 94,
          "midi": 35,
          "name": "B1",
          "ticks": 15264,
          "time": 54.204530999999996,
          "velocity": 0.5905511811023622
        },
        {
          "duration": 0.33380672916666754,
          "durationTicks": 94,
          "midi": 35,
          "name": "B1",
          "ticks": 15360,
          "time": 54.54543999999999,
          "velocity": 0.5905511811023622
        },
        {
          "duration": 0.33380672916666043,
          "durationTicks": 94,
          "midi": 35,
          "name": "B1",
          "ticks": 15456,
          "time": 54.886348999999996,
          "velocity": 0.5905511811023622
        },
        {
          "duration": 0.33380672916666754,
          "durationTicks": 94,
          "midi": 35,
          "name": "B1",
          "ticks": 15552,
          "time": 55.22725799999999,
          "velocity": 0.5905511811023622
        },
        {
          "duration": 0.33380672916666043,
          "durationTicks": 94,
          "midi": 35,
          "name": "B1",
          "ticks": 15648,
          "time": 55.568166999999995,
          "velocity": 0.5905511811023622
        },
        {
          "duration": 0.33380672916666754,
          "durationTicks": 94,
          "midi": 35,
          "name": "B1",
          "ticks": 15744,
          "time": 55.90907599999999,
          "velocity": 0.5905511811023622
        },
        {
          "duration": 0.33380672916666043,
          "durationTicks": 94,
          "midi": 35,
          "name": "B1",
          "ticks": 15840,
          "time": 56.249984999999995,
          "velocity": 0.5905511811023622
        },
        {
          "duration": 0.33380672916666754,
          "durationTicks": 94,
          "midi": 35,
          "name": "B1",
          "ticks": 15936,
          "time": 56.59089399999999,
          "velocity": 0.5905511811023622
        },
        {
          "duration": 0.33380672916666043,
          "durationTicks": 94,
          "midi": 35,
          "name": "B1",
          "ticks": 16032,
          "time": 56.931802999999995,
          "velocity": 0.5905511811023622
        },
        {
          "duration": 0.33380672916666754,
          "durationTicks": 94,
          "midi": 30,
          "name": "F#1",
          "ticks": 16128,
          "time": 57.27271199999999,
          "velocity": 0.5905511811023622
        },
        {
          "duration": 0.33380672916666043,
          "durationTicks": 94,
          "midi": 30,
          "name": "F#1",
          "ticks": 16224,
          "time": 57.613620999999995,
          "velocity": 0.5905511811023622
        },
        {
          "duration": 0.33380672916666754,
          "durationTicks": 94,
          "midi": 30,
          "name": "F#1",
          "ticks": 16320,
          "time": 57.95452999999999,
          "velocity": 0.5905511811023622
        },
        {
          "duration": 0.33380672916666043,
          "durationTicks": 94,
          "midi": 30,
          "name": "F#1",
          "ticks": 16416,
          "time": 58.295438999999995,
          "velocity": 0.5905511811023622
        },
        {
          "duration": 0.33380672916666754,
          "durationTicks": 94,
          "midi": 30,
          "name": "F#1",
          "ticks": 16512,
          "time": 58.63634799999999,
          "velocity": 0.5905511811023622
        },
        {
          "duration": 0.33380672916666043,
          "durationTicks": 94,
          "midi": 30,
          "name": "F#1",
          "ticks": 16608,
          "time": 58.977256999999994,
          "velocity": 0.5905511811023622
        },
        {
          "duration": 0.33380672916666754,
          "durationTicks": 94,
          "midi": 30,
          "name": "F#1",
          "ticks": 16704,
          "time": 59.31816599999999,
          "velocity": 0.5905511811023622
        },
        {
          "duration": 0.33380672916666043,
          "durationTicks": 94,
          "midi": 30,
          "name": "F#1",
          "ticks": 16800,
          "time": 59.659074999999994,
          "velocity": 0.5905511811023622
        },
        {
          "duration": 0.33380672916666754,
          "durationTicks": 94,
          "midi": 30,
          "name": "F#1",
          "ticks": 16896,
          "time": 59.99998399999999,
          "velocity": 0.5905511811023622
        },
        {
          "duration": 0.33380672916666043,
          "durationTicks": 94,
          "midi": 30,
          "name": "F#1",
          "ticks": 16992,
          "time": 60.340892999999994,
          "velocity": 0.5905511811023622
        },
        {
          "duration": 0.33380672916666754,
          "durationTicks": 94,
          "midi": 30,
          "name": "F#1",
          "ticks": 17088,
          "time": 60.68180199999999,
          "velocity": 0.5905511811023622
        },
        {
          "duration": 0.33380672916666043,
          "durationTicks": 94,
          "midi": 30,
          "name": "F#1",
          "ticks": 17184,
          "time": 61.022710999999994,
          "velocity": 0.5905511811023622
        },
        {
          "duration": 0.33380672916666754,
          "durationTicks": 94,
          "midi": 30,
          "name": "F#1",
          "ticks": 17280,
          "time": 61.36361999999999,
          "velocity": 0.5905511811023622
        },
        {
          "duration": 0.33380672916666043,
          "durationTicks": 94,
          "midi": 30,
          "name": "F#1",
          "ticks": 17376,
          "time": 61.704528999999994,
          "velocity": 0.5905511811023622
        },
        {
          "duration": 0.33380672916666754,
          "durationTicks": 94,
          "midi": 30,
          "name": "F#1",
          "ticks": 17472,
          "time": 62.04543799999999,
          "velocity": 0.5905511811023622
        },
        {
          "duration": 0.33380672916666043,
          "durationTicks": 94,
          "midi": 30,
          "name": "F#1",
          "ticks": 17568,
          "time": 62.386346999999994,
          "velocity": 0.5905511811023622
        },
        {
          "duration": 0.33380672916666754,
          "durationTicks": 94,
          "midi": 28,
          "name": "E1",
          "ticks": 17664,
          "time": 62.72725599999999,
          "velocity": 0.5905511811023622
        },
        {
          "duration": 0.33380672916666043,
          "durationTicks": 94,
          "midi": 28,
          "name": "E1",
          "ticks": 17760,
          "time": 63.06816499999999,
          "velocity": 0.5905511811023622
        },
        {
          "duration": 0.33380672916666754,
          "durationTicks": 94,
          "midi": 28,
          "name": "E1",
          "ticks": 17856,
          "time": 63.40907399999999,
          "velocity": 0.5905511811023622
        },
        {
          "duration": 0.33380672916666043,
          "durationTicks": 94,
          "midi": 28,
          "name": "E1",
          "ticks": 17952,
          "time": 63.74998299999999,
          "velocity": 0.5905511811023622
        },
        {
          "duration": 0.3338067291666533,
          "durationTicks": 94,
          "midi": 28,
          "name": "E1",
          "ticks": 18048,
          "time": 64.090892,
          "velocity": 0.5905511811023622
        },
        {
          "duration": 0.33380672916666754,
          "durationTicks": 94,
          "midi": 28,
          "name": "E1",
          "ticks": 18144,
          "time": 64.431801,
          "velocity": 0.5905511811023622
        },
        {
          "duration": 0.33380672916666754,
          "durationTicks": 94,
          "midi": 28,
          "name": "E1",
          "ticks": 18240,
          "time": 64.77270999999999,
          "velocity": 0.5905511811023622
        },
        {
          "duration": 0.33380672916666754,
          "durationTicks": 94,
          "midi": 28,
          "name": "E1",
          "ticks": 18336,
          "time": 65.11361899999999,
          "velocity": 0.5905511811023622
        },
        {
          "duration": 0.3338067291666533,
          "durationTicks": 94,
          "midi": 28,
          "name": "E1",
          "ticks": 18432,
          "time": 65.454528,
          "velocity": 0.5905511811023622
        },
        {
          "duration": 0.33380672916666754,
          "durationTicks": 94,
          "midi": 28,
          "name": "E1",
          "ticks": 18528,
          "time": 65.79543699999999,
          "velocity": 0.5905511811023622
        },
        {
          "duration": 0.33380672916666754,
          "durationTicks": 94,
          "midi": 28,
          "name": "E1",
          "ticks": 18624,
          "time": 66.13634599999999,
          "velocity": 0.5905511811023622
        },
        {
          "duration": 0.3338067291666533,
          "durationTicks": 94,
          "midi": 28,
          "name": "E1",
          "ticks": 18720,
          "time": 66.477255,
          "velocity": 0.5905511811023622
        },
        {
          "duration": 0.3338067291666533,
          "durationTicks": 94,
          "midi": 28,
          "name": "E1",
          "ticks": 18816,
          "time": 66.818164,
          "velocity": 0.5905511811023622
        },
        {
          "duration": 0.33380672916666754,
          "durationTicks": 94,
          "midi": 28,
          "name": "E1",
          "ticks": 18912,
          "time": 67.15907299999999,
          "velocity": 0.5905511811023622
        },
        {
          "duration": 0.33380672916666754,
          "durationTicks": 94,
          "midi": 28,
          "name": "E1",
          "ticks": 19008,
          "time": 67.49998199999999,
          "velocity": 0.5905511811023622
        },
        {
          "duration": 0.3338067291666533,
          "durationTicks": 94,
          "midi": 28,
          "name": "E1",
          "ticks": 19104,
          "time": 67.840891,
          "velocity": 0.5905511811023622
        },
        {
          "duration": 0.3338067291666533,
          "durationTicks": 94,
          "midi": 35,
          "name": "B1",
          "ticks": 19200,
          "time": 68.1818,
          "velocity": 0.5905511811023622
        },
        {
          "duration": 0.33380672916666754,
          "durationTicks": 94,
          "midi": 35,
          "name": "B1",
          "ticks": 19296,
          "time": 68.52270899999999,
          "velocity": 0.5905511811023622
        },
        {
          "duration": 0.33380672916666754,
          "durationTicks": 94,
          "midi": 35,
          "name": "B1",
          "ticks": 19392,
          "time": 68.86361799999999,
          "velocity": 0.5905511811023622
        },
        {
          "duration": 0.3338067291666533,
          "durationTicks": 94,
          "midi": 35,
          "name": "B1",
          "ticks": 19488,
          "time": 69.204527,
          "velocity": 0.5905511811023622
        },
        {
          "duration": 0.33380672916666754,
          "durationTicks": 94,
          "midi": 35,
          "name": "B1",
          "ticks": 19584,
          "time": 69.545436,
          "velocity": 0.5905511811023622
        },
        {
          "duration": 0.33380672916666754,
          "durationTicks": 94,
          "midi": 35,
          "name": "B1",
          "ticks": 19680,
          "time": 69.88634499999999,
          "velocity": 0.5905511811023622
        },
        {
          "duration": 0.33380672916666754,
          "durationTicks": 94,
          "midi": 35,
          "name": "B1",
          "ticks": 19776,
          "time": 70.22725399999999,
          "velocity": 0.5905511811023622
        },
        {
          "duration": 0.3338067291666533,
          "durationTicks": 94,
          "midi": 35,
          "name": "B1",
          "ticks": 19872,
          "time": 70.568163,
          "velocity": 0.5905511811023622
        },
        {
          "duration": 0.33380672916666754,
          "durationTicks": 94,
          "midi": 35,
          "name": "B1",
          "ticks": 19968,
          "time": 70.909072,
          "velocity": 0.5905511811023622
        },
        {
          "duration": 0.33380672916666754,
          "durationTicks": 94,
          "midi": 35,
          "name": "B1",
          "ticks": 20064,
          "time": 71.24998099999999,
          "velocity": 0.5905511811023622
        },
        {
          "duration": 0.33380672916666754,
          "durationTicks": 94,
          "midi": 35,
          "name": "B1",
          "ticks": 20160,
          "time": 71.59088999999999,
          "velocity": 0.5905511811023622
        },
        {
          "duration": 0.3338067291666533,
          "durationTicks": 94,
          "midi": 35,
          "name": "B1",
          "ticks": 20256,
          "time": 71.931799,
          "velocity": 0.5905511811023622
        },
        {
          "duration": 0.33380672916666754,
          "durationTicks": 94,
          "midi": 35,
          "name": "B1",
          "ticks": 20352,
          "time": 72.272708,
          "velocity": 0.5905511811023622
        },
        {
          "duration": 0.33380672916666754,
          "durationTicks": 94,
          "midi": 35,
          "name": "B1",
          "ticks": 20448,
          "time": 72.61361699999999,
          "velocity": 0.5905511811023622
        },
        {
          "duration": 0.33380672916666754,
          "durationTicks": 94,
          "midi": 35,
          "name": "B1",
          "ticks": 20544,
          "time": 72.95452599999999,
          "velocity": 0.5905511811023622
        },
        {
          "duration": 0.3338067291666533,
          "durationTicks": 94,
          "midi": 35,
          "name": "B1",
          "ticks": 20640,
          "time": 73.295435,
          "velocity": 0.5905511811023622
        },
        {
          "duration": 0.33380672916666754,
          "durationTicks": 94,
          "midi": 30,
          "name": "F#1",
          "ticks": 20736,
          "time": 73.636344,
          "velocity": 0.5905511811023622
        },
        {
          "duration": 0.33380672916666754,
          "durationTicks": 94,
          "midi": 30,
          "name": "F#1",
          "ticks": 20832,
          "time": 73.97725299999999,
          "velocity": 0.5905511811023622
        },
        {
          "duration": 0.33380672916666754,
          "durationTicks": 94,
          "midi": 30,
          "name": "F#1",
          "ticks": 20928,
          "time": 74.31816199999999,
          "velocity": 0.5905511811023622
        },
        {
          "duration": 0.3338067291666533,
          "durationTicks": 94,
          "midi": 30,
          "name": "F#1",
          "ticks": 21024,
          "time": 74.659071,
          "velocity": 0.5905511811023622
        },
        {
          "duration": 0.33380672916666754,
          "durationTicks": 94,
          "midi": 30,
          "name": "F#1",
          "ticks": 21120,
          "time": 74.99998,
          "velocity": 0.5905511811023622
        },
        {
          "duration": 0.33380672916666754,
          "durationTicks": 94,
          "midi": 30,
          "name": "F#1",
          "ticks": 21216,
          "time": 75.34088899999999,
          "velocity": 0.5905511811023622
        },
        {
          "duration": 0.33380672916666754,
          "durationTicks": 94,
          "midi": 30,
          "name": "F#1",
          "ticks": 21312,
          "time": 75.68179799999999,
          "velocity": 0.5905511811023622
        },
        {
          "duration": 0.3338067291666533,
          "durationTicks": 94,
          "midi": 30,
          "name": "F#1",
          "ticks": 21408,
          "time": 76.022707,
          "velocity": 0.5905511811023622
        },
        {
          "duration": 0.33380672916666754,
          "durationTicks": 94,
          "midi": 30,
          "name": "F#1",
          "ticks": 21504,
          "time": 76.363616,
          "velocity": 0.5905511811023622
        },
        {
          "duration": 0.33380672916666754,
          "durationTicks": 94,
          "midi": 30,
          "name": "F#1",
          "ticks": 21600,
          "time": 76.70452499999999,
          "velocity": 0.5905511811023622
        },
        {
          "duration": 0.33380672916666754,
          "durationTicks": 94,
          "midi": 30,
          "name": "F#1",
          "ticks": 21696,
          "time": 77.04543399999999,
          "velocity": 0.5905511811023622
        },
        {
          "duration": 0.3338067291666533,
          "durationTicks": 94,
          "midi": 30,
          "name": "F#1",
          "ticks": 21792,
          "time": 77.386343,
          "velocity": 0.5905511811023622
        },
        {
          "duration": 0.33380672916666754,
          "durationTicks": 94,
          "midi": 30,
          "name": "F#1",
          "ticks": 21888,
          "time": 77.727252,
          "velocity": 0.5905511811023622
        },
        {
          "duration": 0.33380672916666754,
          "durationTicks": 94,
          "midi": 30,
          "name": "F#1",
          "ticks": 21984,
          "time": 78.06816099999999,
          "velocity": 0.5905511811023622
        },
        {
          "duration": 0.33380672916666754,
          "durationTicks": 94,
          "midi": 30,
          "name": "F#1",
          "ticks": 22080,
          "time": 78.40906999999999,
          "velocity": 0.5905511811023622
        },
        {
          "duration": 0.3338067291666533,
          "durationTicks": 94,
          "midi": 30,
          "name": "F#1",
          "ticks": 22176,
          "time": 78.749979,
          "velocity": 0.5905511811023622
        },
        {
          "duration": 0.33380672916666754,
          "durationTicks": 94,
          "midi": 28,
          "name": "E1",
          "ticks": 22272,
          "time": 79.09088799999999,
          "velocity": 0.5905511811023622
        },
        {
          "duration": 0.33380672916666754,
          "durationTicks": 94,
          "midi": 28,
          "name": "E1",
          "ticks": 22368,
          "time": 79.43179699999999,
          "velocity": 0.5905511811023622
        },
        {
          "duration": 0.33380672916666754,
          "durationTicks": 94,
          "midi": 28,
          "name": "E1",
          "ticks": 22464,
          "time": 79.77270599999999,
          "velocity": 0.5905511811023622
        },
        {
          "duration": 0.3338067291666533,
          "durationTicks": 94,
          "midi": 28,
          "name": "E1",
          "ticks": 22560,
          "time": 80.113615,
          "velocity": 0.5905511811023622
        },
        {
          "duration": 0.33380672916666754,
          "durationTicks": 94,
          "midi": 28,
          "name": "E1",
          "ticks": 22656,
          "time": 80.45452399999999,
          "velocity": 0.5905511811023622
        },
        {
          "duration": 0.33380672916666754,
          "durationTicks": 94,
          "midi": 28,
          "name": "E1",
          "ticks": 22752,
          "time": 80.79543299999999,
          "velocity": 0.5905511811023622
        },
        {
          "duration": 0.33380672916666754,
          "durationTicks": 94,
          "midi": 28,
          "name": "E1",
          "ticks": 22848,
          "time": 81.13634199999998,
          "velocity": 0.5905511811023622
        },
        {
          "duration": 0.3338067291666533,
          "durationTicks": 94,
          "midi": 28,
          "name": "E1",
          "ticks": 22944,
          "time": 81.477251,
          "velocity": 0.5905511811023622
        },
        {
          "duration": 0.33380672916666754,
          "durationTicks": 94,
          "midi": 28,
          "name": "E1",
          "ticks": 23040,
          "time": 81.81815999999999,
          "velocity": 0.5905511811023622
        },
        {
          "duration": 0.33380672916666754,
          "durationTicks": 94,
          "midi": 28,
          "name": "E1",
          "ticks": 23136,
          "time": 82.15906899999999,
          "velocity": 0.5905511811023622
        },
        {
          "duration": 0.33380672916666754,
          "durationTicks": 94,
          "midi": 28,
          "name": "E1",
          "ticks": 23232,
          "time": 82.49997799999998,
          "velocity": 0.5905511811023622
        },
        {
          "duration": 0.3338067291666533,
          "durationTicks": 94,
          "midi": 28,
          "name": "E1",
          "ticks": 23328,
          "time": 82.840887,
          "velocity": 0.5905511811023622
        },
        {
          "duration": 0.33380672916666754,
          "durationTicks": 94,
          "midi": 28,
          "name": "E1",
          "ticks": 23424,
          "time": 83.18179599999999,
          "velocity": 0.5905511811023622
        },
        {
          "duration": 0.33380672916666754,
          "durationTicks": 94,
          "midi": 28,
          "name": "E1",
          "ticks": 23520,
          "time": 83.52270499999999,
          "velocity": 0.5905511811023622
        },
        {
          "duration": 0.33380672916666754,
          "durationTicks": 94,
          "midi": 28,
          "name": "E1",
          "ticks": 23616,
          "time": 83.86361399999998,
          "velocity": 0.5905511811023622
        },
        {
          "duration": 0.3338067291666533,
          "durationTicks": 94,
          "midi": 28,
          "name": "E1",
          "ticks": 23712,
          "time": 84.204523,
          "velocity": 0.5905511811023622
        },
        {
          "duration": 0.33380672916666754,
          "durationTicks": 94,
          "midi": 35,
          "name": "B1",
          "ticks": 23808,
          "time": 84.54543199999999,
          "velocity": 0.5905511811023622
        },
        {
          "duration": 0.33380672916666754,
          "durationTicks": 94,
          "midi": 35,
          "name": "B1",
          "ticks": 23904,
          "time": 84.88634099999999,
          "velocity": 0.5905511811023622
        },
        {
          "duration": 0.33380672916666754,
          "durationTicks": 94,
          "midi": 35,
          "name": "B1",
          "ticks": 24000,
          "time": 85.22724999999998,
          "velocity": 0.5905511811023622
        },
        {
          "duration": 0.3338067291666533,
          "durationTicks": 94,
          "midi": 35,
          "name": "B1",
          "ticks": 24096,
          "time": 85.568159,
          "velocity": 0.5905511811023622
        },
        {
          "duration": 0.33380672916666754,
          "durationTicks": 94,
          "midi": 35,
          "name": "B1",
          "ticks": 24192,
          "time": 85.90906799999999,
          "velocity": 0.5905511811023622
        },
        {
          "duration": 0.33380672916666754,
          "durationTicks": 94,
          "midi": 35,
          "name": "B1",
          "ticks": 24288,
          "time": 86.24997699999999,
          "velocity": 0.5905511811023622
        },
        {
          "duration": 0.33380672916666754,
          "durationTicks": 94,
          "midi": 35,
          "name": "B1",
          "ticks": 24384,
          "time": 86.59088599999998,
          "velocity": 0.5905511811023622
        },
        {
          "duration": 0.3338067291666533,
          "durationTicks": 94,
          "midi": 35,
          "name": "B1",
          "ticks": 24480,
          "time": 86.931795,
          "velocity": 0.5905511811023622
        },
        {
          "duration": 0.33380672916666754,
          "durationTicks": 94,
          "midi": 35,
          "name": "B1",
          "ticks": 24576,
          "time": 87.27270399999999,
          "velocity": 0.5905511811023622
        },
        {
          "duration": 0.33380672916668175,
          "durationTicks": 94,
          "midi": 35,
          "name": "B1",
          "ticks": 24672,
          "time": 87.61361299999999,
          "velocity": 0.5905511811023622
        },
        {
          "duration": 0.33380672916666754,
          "durationTicks": 94,
          "midi": 35,
          "name": "B1",
          "ticks": 24768,
          "time": 87.954522,
          "velocity": 0.5905511811023622
        },
        {
          "duration": 0.33380672916666754,
          "durationTicks": 94,
          "midi": 35,
          "name": "B1",
          "ticks": 24864,
          "time": 88.295431,
          "velocity": 0.5905511811023622
        },
        {
          "duration": 0.33380672916666754,
          "durationTicks": 94,
          "midi": 35,
          "name": "B1",
          "ticks": 24960,
          "time": 88.63633999999999,
          "velocity": 0.5905511811023622
        },
        {
          "duration": 0.33380672916668175,
          "durationTicks": 94,
          "midi": 35,
          "name": "B1",
          "ticks": 25056,
          "time": 88.97724899999999,
          "velocity": 0.5905511811023622
        },
        {
          "duration": 0.33380672916666754,
          "durationTicks": 94,
          "midi": 35,
          "name": "B1",
          "ticks": 25152,
          "time": 89.318158,
          "velocity": 0.5905511811023622
        },
        {
          "duration": 0.33380672916666754,
          "durationTicks": 94,
          "midi": 35,
          "name": "B1",
          "ticks": 25248,
          "time": 89.659067,
          "velocity": 0.5905511811023622
        },
        {
          "duration": 0.33380672916666754,
          "durationTicks": 94,
          "midi": 40,
          "name": "E2",
          "ticks": 25344,
          "time": 89.99997599999999,
          "velocity": 0.5905511811023622
        },
        {
          "duration": 0.33380672916668175,
          "durationTicks": 94,
          "midi": 40,
          "name": "E2",
          "ticks": 25440,
          "time": 90.34088499999999,
          "velocity": 0.5905511811023622
        },
        {
          "duration": 0.33380672916666754,
          "durationTicks": 94,
          "midi": 40,
          "name": "E2",
          "ticks": 25536,
          "time": 90.681794,
          "velocity": 0.5905511811023622
        },
        {
          "duration": 0.6747157291666639,
          "durationTicks": 190,
          "midi": 42,
          "name": "F#2",
          "ticks": 25632,
          "time": 91.02270299999999,
          "velocity": 0.5905511811023622
        },
        {
          "duration": 0.33380672916668175,
          "durationTicks": 94,
          "midi": 44,
          "name": "G#2",
          "ticks": 25824,
          "time": 91.70452099999999,
          "velocity": 0.5905511811023622
        },
        {
          "duration": 0.5681816666666606,
          "durationTicks": 160,
          "midi": 47,
          "name": "B2",
          "ticks": 25920,
          "time": 92.04543,
          "velocity": 0.5905511811023622
        },
        {
          "duration": 0.33380672916666754,
          "durationTicks": 94,
          "midi": 44,
          "name": "G#2",
          "ticks": 26112,
          "time": 92.72724799999999,
          "velocity": 0.5905511811023622
        },
        {
          "duration": 0.33380672916668175,
          "durationTicks": 94,
          "midi": 44,
          "name": "G#2",
          "ticks": 26208,
          "time": 93.06815699999999,
          "velocity": 0.5905511811023622
        },
        {
          "duration": 0.33380672916666754,
          "durationTicks": 94,
          "midi": 44,
          "name": "G#2",
          "ticks": 26304,
          "time": 93.409066,
          "velocity": 0.5905511811023622
        },
        {
          "duration": 0.33380672916666754,
          "durationTicks": 94,
          "midi": 42,
          "name": "F#2",
          "ticks": 26400,
          "time": 93.74997499999999,
          "velocity": 0.5905511811023622
        },
        {
          "duration": 0.33380672916666754,
          "durationTicks": 94,
          "midi": 42,
          "name": "F#2",
          "ticks": 26496,
          "time": 94.09088399999999,
          "velocity": 0.5905511811023622
        },
        {
          "duration": 0.33380672916668175,
          "durationTicks": 94,
          "midi": 42,
          "name": "F#2",
          "ticks": 26592,
          "time": 94.43179299999998,
          "velocity": 0.5905511811023622
        },
        {
          "duration": 0.33380672916666754,
          "durationTicks": 94,
          "midi": 42,
          "name": "F#2",
          "ticks": 26688,
          "time": 94.772702,
          "velocity": 0.5905511811023622
        },
        {
          "duration": 0.33380672916666754,
          "durationTicks": 94,
          "midi": 42,
          "name": "F#2",
          "ticks": 26784,
          "time": 95.11361099999999,
          "velocity": 0.5905511811023622
        },
        {
          "duration": 0.33380672916666754,
          "durationTicks": 94,
          "midi": 40,
          "name": "E2",
          "ticks": 26880,
          "time": 95.45451999999999,
          "velocity": 0.5905511811023622
        },
        {
          "duration": 0.33380672916668175,
          "durationTicks": 94,
          "midi": 40,
          "name": "E2",
          "ticks": 26976,
          "time": 95.79542899999998,
          "velocity": 0.5905511811023622
        },
        {
          "duration": 0.33380672916666754,
          "durationTicks": 94,
          "midi": 40,
          "name": "E2",
          "ticks": 27072,
          "time": 96.136338,
          "velocity": 0.5905511811023622
        },
        {
          "duration": 0.6747157291666781,
          "durationTicks": 190,
          "midi": 42,
          "name": "F#2",
          "ticks": 27168,
          "time": 96.47724699999999,
          "velocity": 0.5905511811023622
        },
        {
          "duration": 0.33380672916668175,
          "durationTicks": 94,
          "midi": 44,
          "name": "G#2",
          "ticks": 27360,
          "time": 97.15906499999998,
          "velocity": 0.5905511811023622
        },
        {
          "duration": 0.5681816666666606,
          "durationTicks": 160,
          "midi": 47,
          "name": "B2",
          "ticks": 27456,
          "time": 97.499974,
          "velocity": 0.5905511811023622
        },
        {
          "duration": 0.33380672916668175,
          "durationTicks": 94,
          "midi": 44,
          "name": "G#2",
          "ticks": 27648,
          "time": 98.18179199999999,
          "velocity": 0.5905511811023622
        },
        {
          "duration": 0.33380672916668175,
          "durationTicks": 94,
          "midi": 44,
          "name": "G#2",
          "ticks": 27744,
          "time": 98.52270099999998,
          "velocity": 0.5905511811023622
        },
        {
          "duration": 0.33380672916666754,
          "durationTicks": 94,
          "midi": 44,
          "name": "G#2",
          "ticks": 27840,
          "time": 98.86361,
          "velocity": 0.5905511811023622
        },
        {
          "duration": 0.33380672916666754,
          "durationTicks": 94,
          "midi": 42,
          "name": "F#2",
          "ticks": 27936,
          "time": 99.20451899999999,
          "velocity": 0.5905511811023622
        },
        {
          "duration": 0.33380672916668175,
          "durationTicks": 94,
          "midi": 42,
          "name": "F#2",
          "ticks": 28032,
          "time": 99.54542799999999,
          "velocity": 0.5905511811023622
        },
        {
          "duration": 0.33380672916668175,
          "durationTicks": 94,
          "midi": 42,
          "name": "F#2",
          "ticks": 28128,
          "time": 99.88633699999998,
          "velocity": 0.5905511811023622
        },
        {
          "duration": 0.33380672916666754,
          "durationTicks": 94,
          "midi": 42,
          "name": "F#2",
          "ticks": 28224,
          "time": 100.227246,
          "velocity": 0.5905511811023622
        },
        {
          "duration": 0.33380672916666754,
          "durationTicks": 94,
          "midi": 42,
          "name": "F#2",
          "ticks": 28320,
          "time": 100.56815499999999,
          "velocity": 0.5905511811023622
        },
        {
          "duration": 0.33380672916668175,
          "durationTicks": 94,
          "midi": 40,
          "name": "E2",
          "ticks": 28416,
          "time": 100.90906399999999,
          "velocity": 0.5905511811023622
        },
        {
          "duration": 0.33380672916668175,
          "durationTicks": 94,
          "midi": 40,
          "name": "E2",
          "ticks": 28512,
          "time": 101.24997299999998,
          "velocity": 0.5905511811023622
        },
        {
          "duration": 0.33380672916666754,
          "durationTicks": 94,
          "midi": 40,
          "name": "E2",
          "ticks": 28608,
          "time": 101.590882,
          "velocity": 0.5905511811023622
        },
        {
          "duration": 0.6747157291666781,
          "durationTicks": 190,
          "midi": 42,
          "name": "F#2",
          "ticks": 28704,
          "time": 101.93179099999999,
          "velocity": 0.5905511811023622
        },
        {
          "duration": 0.33380672916668175,
          "durationTicks": 94,
          "midi": 44,
          "name": "G#2",
          "ticks": 28896,
          "time": 102.61360899999998,
          "velocity": 0.5905511811023622
        },
        {
          "duration": 0.5681816666666748,
          "durationTicks": 160,
          "midi": 47,
          "name": "B2",
          "ticks": 28992,
          "time": 102.954518,
          "velocity": 0.5905511811023622
        },
        {
          "duration": 0.33380672916668175,
          "durationTicks": 94,
          "midi": 44,
          "name": "G#2",
          "ticks": 29184,
          "time": 103.63633599999999,
          "velocity": 0.5905511811023622
        },
        {
          "duration": 0.33380672916668175,
          "durationTicks": 94,
          "midi": 44,
          "name": "G#2",
          "ticks": 29280,
          "time": 103.97724499999998,
          "velocity": 0.5905511811023622
        },
        {
          "duration": 0.33380672916666754,
          "durationTicks": 94,
          "midi": 44,
          "name": "G#2",
          "ticks": 29376,
          "time": 104.31815399999999,
          "velocity": 0.5905511811023622
        },
        {
          "duration": 0.33380672916666754,
          "durationTicks": 94,
          "midi": 42,
          "name": "F#2",
          "ticks": 29472,
          "time": 104.65906299999999,
          "velocity": 0.5905511811023622
        },
        {
          "duration": 0.33380672916668175,
          "durationTicks": 94,
          "midi": 42,
          "name": "F#2",
          "ticks": 29568,
          "time": 104.99997199999999,
          "velocity": 0.5905511811023622
        },
        {
          "duration": 0.33380672916668175,
          "durationTicks": 94,
          "midi": 42,
          "name": "F#2",
          "ticks": 29664,
          "time": 105.34088099999998,
          "velocity": 0.5905511811023622
        },
        {
          "duration": 0.33380672916666754,
          "durationTicks": 94,
          "midi": 42,
          "name": "F#2",
          "ticks": 29760,
          "time": 105.68178999999999,
          "velocity": 0.5905511811023622
        },
        {
          "duration": 0.33380672916666754,
          "durationTicks": 94,
          "midi": 42,
          "name": "F#2",
          "ticks": 29856,
          "time": 106.02269899999999,
          "velocity": 0.5905511811023622
        },
        {
          "duration": 5.284089500000007,
          "durationTicks": 1488,
          "midi": 40,
          "name": "E2",
          "ticks": 29952,
          "time": 106.36360799999999,
          "velocity": 0.5905511811023622
        },
        {
          "duration": 0.33380672916668175,
          "durationTicks": 94,
          "midi": 35,
          "name": "B1",
          "ticks": 31488,
          "time": 111.81815199999998,
          "velocity": 0.5905511811023622
        },
        {
          "duration": 0.33380672916666754,
          "durationTicks": 94,
          "midi": 35,
          "name": "B1",
          "ticks": 31584,
          "time": 112.159061,
          "velocity": 0.5905511811023622
        },
        {
          "duration": 0.33380672916666754,
          "durationTicks": 94,
          "midi": 35,
          "name": "B1",
          "ticks": 31680,
          "time": 112.49996999999999,
          "velocity": 0.5905511811023622
        },
        {
          "duration": 0.33380672916666754,
          "durationTicks": 94,
          "midi": 35,
          "name": "B1",
          "ticks": 31776,
          "time": 112.84087899999999,
          "velocity": 0.5905511811023622
        },
        {
          "duration": 0.33380672916668175,
          "durationTicks": 94,
          "midi": 35,
          "name": "B1",
          "ticks": 31872,
          "time": 113.18178799999998,
          "velocity": 0.5905511811023622
        },
        {
          "duration": 0.33380672916666754,
          "durationTicks": 94,
          "midi": 35,
          "name": "B1",
          "ticks": 31968,
          "time": 113.522697,
          "velocity": 0.5905511811023622
        },
        {
          "duration": 0.33380672916666754,
          "durationTicks": 94,
          "midi": 35,
          "name": "B1",
          "ticks": 32064,
          "time": 113.86360599999999,
          "velocity": 0.5905511811023622
        },
        {
          "duration": 0.33380672916666754,
          "durationTicks": 94,
          "midi": 35,
          "name": "B1",
          "ticks": 32160,
          "time": 114.20451499999999,
          "velocity": 0.5905511811023622
        },
        {
          "duration": 0.33380672916668175,
          "durationTicks": 94,
          "midi": 35,
          "name": "B1",
          "ticks": 32256,
          "time": 114.54542399999998,
          "velocity": 0.5905511811023622
        },
        {
          "duration": 0.33380672916666754,
          "durationTicks": 94,
          "midi": 35,
          "name": "B1",
          "ticks": 32352,
          "time": 114.886333,
          "velocity": 0.5905511811023622
        },
        {
          "duration": 0.33380672916666754,
          "durationTicks": 94,
          "midi": 35,
          "name": "B1",
          "ticks": 32448,
          "time": 115.22724199999999,
          "velocity": 0.5905511811023622
        },
        {
          "duration": 0.33380672916666754,
          "durationTicks": 94,
          "midi": 35,
          "name": "B1",
          "ticks": 32544,
          "time": 115.56815099999999,
          "velocity": 0.5905511811023622
        },
        {
          "duration": 0.33380672916668175,
          "durationTicks": 94,
          "midi": 35,
          "name": "B1",
          "ticks": 32640,
          "time": 115.90905999999998,
          "velocity": 0.5905511811023622
        },
        {
          "duration": 0.33380672916666754,
          "durationTicks": 94,
          "midi": 35,
          "name": "B1",
          "ticks": 32736,
          "time": 116.249969,
          "velocity": 0.5905511811023622
        },
        {
          "duration": 0.33380672916666754,
          "durationTicks": 94,
          "midi": 35,
          "name": "B1",
          "ticks": 32832,
          "time": 116.59087799999999,
          "velocity": 0.5905511811023622
        },
        {
          "duration": 0.33380672916666754,
          "durationTicks": 94,
          "midi": 35,
          "name": "B1",
          "ticks": 32928,
          "time": 116.93178699999999,
          "velocity": 0.5905511811023622
        },
        {
          "duration": 0.33380672916668175,
          "durationTicks": 94,
          "midi": 30,
          "name": "F#1",
          "ticks": 33024,
          "time": 117.27269599999998,
          "velocity": 0.5905511811023622
        },
        {
          "duration": 0.33380672916666754,
          "durationTicks": 94,
          "midi": 30,
          "name": "F#1",
          "ticks": 33120,
          "time": 117.61360499999999,
          "velocity": 0.5905511811023622
        },
        {
          "duration": 0.33380672916666754,
          "durationTicks": 94,
          "midi": 30,
          "name": "F#1",
          "ticks": 33216,
          "time": 117.95451399999999,
          "velocity": 0.5905511811023622
        },
        {
          "duration": 0.33380672916666754,
          "durationTicks": 94,
          "midi": 30,
          "name": "F#1",
          "ticks": 33312,
          "time": 118.29542299999999,
          "velocity": 0.5905511811023622
        },
        {
          "duration": 0.33380672916668175,
          "durationTicks": 94,
          "midi": 30,
          "name": "F#1",
          "ticks": 33408,
          "time": 118.63633199999998,
          "velocity": 0.5905511811023622
        },
        {
          "duration": 0.33380672916666754,
          "durationTicks": 94,
          "midi": 30,
          "name": "F#1",
          "ticks": 33504,
          "time": 118.97724099999999,
          "velocity": 0.5905511811023622
        },
        {
          "duration": 0.33380672916666754,
          "durationTicks": 94,
          "midi": 30,
          "name": "F#1",
          "ticks": 33600,
          "time": 119.31814999999999,
          "velocity": 0.5905511811023622
        },
        {
          "duration": 0.33380672916668175,
          "durationTicks": 94,
          "midi": 30,
          "name": "F#1",
          "ticks": 33696,
          "time": 119.65905899999998,
          "velocity": 0.5905511811023622
        },
        {
          "duration": 0.33380672916668175,
          "durationTicks": 94,
          "midi": 30,
          "name": "F#1",
          "ticks": 33792,
          "time": 119.99996799999998,
          "velocity": 0.5905511811023622
        },
        {
          "duration": 0.33380672916666754,
          "durationTicks": 94,
          "midi": 30,
          "name": "F#1",
          "ticks": 33888,
          "time": 120.34087699999999,
          "velocity": 0.5905511811023622
        },
        {
          "duration": 0.33380672916666754,
          "durationTicks": 94,
          "midi": 30,
          "name": "F#1",
          "ticks": 33984,
          "time": 120.68178599999999,
          "velocity": 0.5905511811023622
        },
        {
          "duration": 0.33380672916668175,
          "durationTicks": 94,
          "midi": 30,
          "name": "F#1",
          "ticks": 34080,
          "time": 121.02269499999998,
          "velocity": 0.5905511811023622
        },
        {
          "duration": 0.33380672916668175,
          "durationTicks": 94,
          "midi": 30,
          "name": "F#1",
          "ticks": 34176,
          "time": 121.36360399999998,
          "velocity": 0.5905511811023622
        },
        {
          "duration": 0.33380672916666754,
          "durationTicks": 94,
          "midi": 30,
          "name": "F#1",
          "ticks": 34272,
          "time": 121.70451299999999,
          "velocity": 0.5905511811023622
        },
        {
          "duration": 0.33380672916666754,
          "durationTicks": 94,
          "midi": 30,
          "name": "F#1",
          "ticks": 34368,
          "time": 122.04542199999999,
          "velocity": 0.5905511811023622
        },
        {
          "duration": 0.33380672916668175,
          "durationTicks": 94,
          "midi": 30,
          "name": "F#1",
          "ticks": 34464,
          "time": 122.38633099999998,
          "velocity": 0.5905511811023622
        },
        {
          "duration": 0.33380672916668175,
          "durationTicks": 94,
          "midi": 28,
          "name": "E1",
          "ticks": 34560,
          "time": 122.72723999999998,
          "velocity": 0.5905511811023622
        },
        {
          "duration": 0.33380672916666754,
          "durationTicks": 94,
          "midi": 28,
          "name": "E1",
          "ticks": 34656,
          "time": 123.06814899999999,
          "velocity": 0.5905511811023622
        },
        {
          "duration": 0.33380672916666754,
          "durationTicks": 94,
          "midi": 28,
          "name": "E1",
          "ticks": 34752,
          "time": 123.40905799999999,
          "velocity": 0.5905511811023622
        },
        {
          "duration": 0.33380672916668175,
          "durationTicks": 94,
          "midi": 28,
          "name": "E1",
          "ticks": 34848,
          "time": 123.74996699999998,
          "velocity": 0.5905511811023622
        },
        {
          "duration": 0.33380672916668175,
          "durationTicks": 94,
          "midi": 28,
          "name": "E1",
          "ticks": 34944,
          "time": 124.09087599999998,
          "velocity": 0.5905511811023622
        },
        {
          "duration": 0.33380672916666754,
          "durationTicks": 94,
          "midi": 28,
          "name": "E1",
          "ticks": 35040,
          "time": 124.43178499999999,
          "velocity": 0.5905511811023622
        },
        {
          "duration": 0.33380672916666754,
          "durationTicks": 94,
          "midi": 28,
          "name": "E1",
          "ticks": 35136,
          "time": 124.77269399999999,
          "velocity": 0.5905511811023622
        },
        {
          "duration": 0.33380672916668175,
          "durationTicks": 94,
          "midi": 28,
          "name": "E1",
          "ticks": 35232,
          "time": 125.11360299999998,
          "velocity": 0.5905511811023622
        },
        {
          "duration": 0.33380672916668175,
          "durationTicks": 94,
          "midi": 28,
          "name": "E1",
          "ticks": 35328,
          "time": 125.45451199999998,
          "velocity": 0.5905511811023622
        },
        {
          "duration": 0.33380672916666754,
          "durationTicks": 94,
          "midi": 28,
          "name": "E1",
          "ticks": 35424,
          "time": 125.79542099999999,
          "velocity": 0.5905511811023622
        },
        {
          "duration": 0.33380672916666754,
          "durationTicks": 94,
          "midi": 28,
          "name": "E1",
          "ticks": 35520,
          "time": 126.13632999999999,
          "velocity": 0.5905511811023622
        },
        {
          "duration": 0.33380672916668175,
          "durationTicks": 94,
          "midi": 28,
          "name": "E1",
          "ticks": 35616,
          "time": 126.47723899999998,
          "velocity": 0.5905511811023622
        },
        {
          "duration": 0.33380672916668175,
          "durationTicks": 94,
          "midi": 28,
          "name": "E1",
          "ticks": 35712,
          "time": 126.81814799999998,
          "velocity": 0.5905511811023622
        },
        {
          "duration": 0.33380672916666754,
          "durationTicks": 94,
          "midi": 28,
          "name": "E1",
          "ticks": 35808,
          "time": 127.15905699999999,
          "velocity": 0.5905511811023622
        },
        {
          "duration": 0.33380672916666754,
          "durationTicks": 94,
          "midi": 28,
          "name": "E1",
          "ticks": 35904,
          "time": 127.49996599999999,
          "velocity": 0.5905511811023622
        },
        {
          "duration": 0.33380672916666754,
          "durationTicks": 94,
          "midi": 28,
          "name": "E1",
          "ticks": 36000,
          "time": 127.84087499999998,
          "velocity": 0.5905511811023622
        },
        {
          "duration": 0.33380672916666754,
          "durationTicks": 94,
          "midi": 35,
          "name": "B1",
          "ticks": 36096,
          "time": 128.181784,
          "velocity": 0.5905511811023622
        },
        {
          "duration": 0.33380672916669596,
          "durationTicks": 94,
          "midi": 35,
          "name": "B1",
          "ticks": 36192,
          "time": 128.52269299999998,
          "velocity": 0.5905511811023622
        },
        {
          "duration": 0.33380672916666754,
          "durationTicks": 94,
          "midi": 35,
          "name": "B1",
          "ticks": 36288,
          "time": 128.863602,
          "velocity": 0.5905511811023622
        },
        {
          "duration": 0.33380672916666754,
          "durationTicks": 94,
          "midi": 35,
          "name": "B1",
          "ticks": 36384,
          "time": 129.204511,
          "velocity": 0.5905511811023622
        },
        {
          "duration": 0.33380672916666754,
          "durationTicks": 94,
          "midi": 35,
          "name": "B1",
          "ticks": 36480,
          "time": 129.54541999999998,
          "velocity": 0.5905511811023622
        },
        {
          "duration": 0.33380672916666754,
          "durationTicks": 94,
          "midi": 35,
          "name": "B1",
          "ticks": 36576,
          "time": 129.886329,
          "velocity": 0.5905511811023622
        },
        {
          "duration": 0.33380672916669596,
          "durationTicks": 94,
          "midi": 35,
          "name": "B1",
          "ticks": 36672,
          "time": 130.22723799999997,
          "velocity": 0.5905511811023622
        },
        {
          "duration": 0.33380672916666754,
          "durationTicks": 94,
          "midi": 35,
          "name": "B1",
          "ticks": 36768,
          "time": 130.56814699999998,
          "velocity": 0.5905511811023622
        },
        {
          "duration": 0.33380672916666754,
          "durationTicks": 94,
          "midi": 35,
          "name": "B1",
          "ticks": 36864,
          "time": 130.909056,
          "velocity": 0.5905511811023622
        },
        {
          "duration": 0.33380672916669596,
          "durationTicks": 94,
          "midi": 35,
          "name": "B1",
          "ticks": 36960,
          "time": 131.24996499999997,
          "velocity": 0.5905511811023622
        },
        {
          "duration": 0.33380672916666754,
          "durationTicks": 94,
          "midi": 35,
          "name": "B1",
          "ticks": 37056,
          "time": 131.59087399999999,
          "velocity": 0.5905511811023622
        },
        {
          "duration": 0.33380672916666754,
          "durationTicks": 94,
          "midi": 35,
          "name": "B1",
          "ticks": 37152,
          "time": 131.931783,
          "velocity": 0.5905511811023622
        },
        {
          "duration": 0.33380672916666754,
          "durationTicks": 94,
          "midi": 35,
          "name": "B1",
          "ticks": 37248,
          "time": 132.27269199999998,
          "velocity": 0.5905511811023622
        },
        {
          "duration": 0.33380672916666754,
          "durationTicks": 94,
          "midi": 35,
          "name": "B1",
          "ticks": 37344,
          "time": 132.613601,
          "velocity": 0.5905511811023622
        },
        {
          "duration": 0.33380672916666754,
          "durationTicks": 94,
          "midi": 35,
          "name": "B1",
          "ticks": 37440,
          "time": 132.95451,
          "velocity": 0.5905511811023622
        },
        {
          "duration": 0.33380672916666754,
          "durationTicks": 94,
          "midi": 35,
          "name": "B1",
          "ticks": 37536,
          "time": 133.29541899999998,
          "velocity": 0.5905511811023622
        },
        {
          "duration": 0.33380672916666754,
          "durationTicks": 94,
          "midi": 35,
          "name": "B1",
          "ticks": 37632,
          "time": 133.636328,
          "velocity": 0.5905511811023622
        },
        {
          "duration": 0.33380672916669596,
          "durationTicks": 94,
          "midi": 35,
          "name": "B1",
          "ticks": 37728,
          "time": 133.97723699999997,
          "velocity": 0.5905511811023622
        },
        {
          "duration": 0.33380672916666754,
          "durationTicks": 94,
          "midi": 35,
          "name": "B1",
          "ticks": 37824,
          "time": 134.31814599999998,
          "velocity": 0.5905511811023622
        },
        {
          "duration": 0.33380672916666754,
          "durationTicks": 94,
          "midi": 35,
          "name": "B1",
          "ticks": 37920,
          "time": 134.659055,
          "velocity": 0.5905511811023622
        },
        {
          "duration": 0.33380672916666754,
          "durationTicks": 94,
          "midi": 35,
          "name": "B1",
          "ticks": 38016,
          "time": 134.99996399999998,
          "velocity": 0.5905511811023622
        },
        {
          "duration": 0.33380672916666754,
          "durationTicks": 94,
          "midi": 35,
          "name": "B1",
          "ticks": 38112,
          "time": 135.340873,
          "velocity": 0.5905511811023622
        },
        {
          "duration": 0.33380672916666754,
          "durationTicks": 94,
          "midi": 35,
          "name": "B1",
          "ticks": 38208,
          "time": 135.681782,
          "velocity": 0.5905511811023622
        },
        {
          "duration": 0.33380672916666754,
          "durationTicks": 94,
          "midi": 35,
          "name": "B1",
          "ticks": 38304,
          "time": 136.02269099999998,
          "velocity": 0.5905511811023622
        },
        {
          "duration": 0.33380672916666754,
          "durationTicks": 94,
          "midi": 35,
          "name": "B1",
          "ticks": 38400,
          "time": 136.3636,
          "velocity": 0.5905511811023622
        },
        {
          "duration": 0.33380672916669596,
          "durationTicks": 94,
          "midi": 35,
          "name": "B1",
          "ticks": 38496,
          "time": 136.70450899999997,
          "velocity": 0.5905511811023622
        },
        {
          "duration": 0.33380672916666754,
          "durationTicks": 94,
          "midi": 35,
          "name": "B1",
          "ticks": 38592,
          "time": 137.04541799999998,
          "velocity": 0.5905511811023622
        },
        {
          "duration": 0.33380672916666754,
          "durationTicks": 94,
          "midi": 35,
          "name": "B1",
          "ticks": 38688,
          "time": 137.386327,
          "velocity": 0.5905511811023622
        },
        {
          "duration": 0.33380672916666754,
          "durationTicks": 94,
          "midi": 35,
          "name": "B1",
          "ticks": 38784,
          "time": 137.72723599999998,
          "velocity": 0.5905511811023622
        },
        {
          "duration": 0.33380672916666754,
          "durationTicks": 94,
          "midi": 35,
          "name": "B1",
          "ticks": 38880,
          "time": 138.068145,
          "velocity": 0.5905511811023622
        },
        {
          "duration": 0.33380672916666754,
          "durationTicks": 94,
          "midi": 35,
          "name": "B1",
          "ticks": 38976,
          "time": 138.409054,
          "velocity": 0.5905511811023622
        },
        {
          "duration": 0.33380672916666754,
          "durationTicks": 94,
          "midi": 35,
          "name": "B1",
          "ticks": 39072,
          "time": 138.74996299999998,
          "velocity": 0.5905511811023622
        },
        {
          "duration": 0.33380672916666754,
          "durationTicks": 94,
          "midi": 30,
          "name": "F#1",
          "ticks": 39168,
          "time": 139.090872,
          "velocity": 0.5905511811023622
        },
        {
          "duration": 0.33380672916669596,
          "durationTicks": 94,
          "midi": 30,
          "name": "F#1",
          "ticks": 39264,
          "time": 139.43178099999997,
          "velocity": 0.5905511811023622
        },
        {
          "duration": 0.33380672916666754,
          "durationTicks": 94,
          "midi": 30,
          "name": "F#1",
          "ticks": 39360,
          "time": 139.77268999999998,
          "velocity": 0.5905511811023622
        },
        {
          "duration": 0.33380672916666754,
          "durationTicks": 94,
          "midi": 30,
          "name": "F#1",
          "ticks": 39456,
          "time": 140.113599,
          "velocity": 0.5905511811023622
        },
        {
          "duration": 0.33380672916669596,
          "durationTicks": 94,
          "midi": 30,
          "name": "F#1",
          "ticks": 39552,
          "time": 140.45450799999998,
          "velocity": 0.5905511811023622
        },
        {
          "duration": 0.33380672916666754,
          "durationTicks": 94,
          "midi": 30,
          "name": "F#1",
          "ticks": 39648,
          "time": 140.795417,
          "velocity": 0.5905511811023622
        },
        {
          "duration": 0.33380672916666754,
          "durationTicks": 94,
          "midi": 30,
          "name": "F#1",
          "ticks": 39744,
          "time": 141.136326,
          "velocity": 0.5905511811023622
        },
        {
          "duration": 0.33380672916666754,
          "durationTicks": 94,
          "midi": 30,
          "name": "F#1",
          "ticks": 39840,
          "time": 141.47723499999998,
          "velocity": 0.5905511811023622
        },
        {
          "duration": 0.33380672916666754,
          "durationTicks": 94,
          "midi": 30,
          "name": "F#1",
          "ticks": 39936,
          "time": 141.818144,
          "velocity": 0.5905511811023622
        },
        {
          "duration": 0.33380672916669596,
          "durationTicks": 94,
          "midi": 30,
          "name": "F#1",
          "ticks": 40032,
          "time": 142.15905299999997,
          "velocity": 0.5905511811023622
        },
        {
          "duration": 0.33380672916666754,
          "durationTicks": 94,
          "midi": 30,
          "name": "F#1",
          "ticks": 40128,
          "time": 142.49996199999998,
          "velocity": 0.5905511811023622
        },
        {
          "duration": 0.33380672916666754,
          "durationTicks": 94,
          "midi": 30,
          "name": "F#1",
          "ticks": 40224,
          "time": 142.840871,
          "velocity": 0.5905511811023622
        },
        {
          "duration": 0.33380672916669596,
          "durationTicks": 94,
          "midi": 30,
          "name": "F#1",
          "ticks": 40320,
          "time": 143.18177999999997,
          "velocity": 0.5905511811023622
        },
        {
          "duration": 0.33380672916666754,
          "durationTicks": 94,
          "midi": 30,
          "name": "F#1",
          "ticks": 40416,
          "time": 143.52268899999999,
          "velocity": 0.5905511811023622
        },
        {
          "duration": 0.33380672916666754,
          "durationTicks": 94,
          "midi": 30,
          "name": "F#1",
          "ticks": 40512,
          "time": 143.863598,
          "velocity": 0.5905511811023622
        },
        {
          "duration": 0.33380672916666754,
          "durationTicks": 94,
          "midi": 30,
          "name": "F#1",
          "ticks": 40608,
          "time": 144.20450699999998,
          "velocity": 0.5905511811023622
        },
        {
          "duration": 0.33380672916666754,
          "durationTicks": 94,
          "midi": 28,
          "name": "E1",
          "ticks": 40704,
          "time": 144.545416,
          "velocity": 0.5905511811023622
        },
        {
          "duration": 0.33380672916669596,
          "durationTicks": 94,
          "midi": 28,
          "name": "E1",
          "ticks": 40800,
          "time": 144.88632499999997,
          "velocity": 0.5905511811023622
        },
        {
          "duration": 0.33380672916666754,
          "durationTicks": 94,
          "midi": 28,
          "name": "E1",
          "ticks": 40896,
          "time": 145.22723399999998,
          "velocity": 0.5905511811023622
        },
        {
          "duration": 0.33380672916666754,
          "durationTicks": 94,
          "midi": 28,
          "name": "E1",
          "ticks": 40992,
          "time": 145.568143,
          "velocity": 0.5905511811023622
        },
        {
          "duration": 0.33380672916669596,
          "durationTicks": 94,
          "midi": 28,
          "name": "E1",
          "ticks": 41088,
          "time": 145.90905199999997,
          "velocity": 0.5905511811023622
        },
        {
          "duration": 0.33380672916666754,
          "durationTicks": 94,
          "midi": 28,
          "name": "E1",
          "ticks": 41184,
          "time": 146.24996099999998,
          "velocity": 0.5905511811023622
        },
        {
          "duration": 0.33380672916666754,
          "durationTicks": 94,
          "midi": 28,
          "name": "E1",
          "ticks": 41280,
          "time": 146.59087,
          "velocity": 0.5905511811023622
        },
        {
          "duration": 0.33380672916666754,
          "durationTicks": 94,
          "midi": 28,
          "name": "E1",
          "ticks": 41376,
          "time": 146.93177899999998,
          "velocity": 0.5905511811023622
        },
        {
          "duration": 0.33380672916666754,
          "durationTicks": 94,
          "midi": 28,
          "name": "E1",
          "ticks": 41472,
          "time": 147.272688,
          "velocity": 0.5905511811023622
        },
        {
          "duration": 0.33380672916669596,
          "durationTicks": 94,
          "midi": 28,
          "name": "E1",
          "ticks": 41568,
          "time": 147.61359699999997,
          "velocity": 0.5905511811023622
        },
        {
          "duration": 0.33380672916666754,
          "durationTicks": 94,
          "midi": 28,
          "name": "E1",
          "ticks": 41664,
          "time": 147.95450599999998,
          "velocity": 0.5905511811023622
        },
        {
          "duration": 0.33380672916666754,
          "durationTicks": 94,
          "midi": 28,
          "name": "E1",
          "ticks": 41760,
          "time": 148.295415,
          "velocity": 0.5905511811023622
        },
        {
          "duration": 0.33380672916669596,
          "durationTicks": 94,
          "midi": 28,
          "name": "E1",
          "ticks": 41856,
          "time": 148.63632399999997,
          "velocity": 0.5905511811023622
        },
        {
          "duration": 0.33380672916666754,
          "durationTicks": 94,
          "midi": 28,
          "name": "E1",
          "ticks": 41952,
          "time": 148.97723299999998,
          "velocity": 0.5905511811023622
        },
        {
          "duration": 0.33380672916666754,
          "durationTicks": 94,
          "midi": 28,
          "name": "E1",
          "ticks": 42048,
          "time": 149.318142,
          "velocity": 0.5905511811023622
        },
        {
          "duration": 0.33380672916666754,
          "durationTicks": 94,
          "midi": 28,
          "name": "E1",
          "ticks": 42144,
          "time": 149.65905099999998,
          "velocity": 0.5905511811023622
        },
        {
          "duration": 0.33380672916666754,
          "durationTicks": 94,
          "midi": 35,
          "name": "B1",
          "ticks": 42240,
          "time": 149.99996,
          "velocity": 0.5905511811023622
        },
        {
          "duration": 0.33380672916669596,
          "durationTicks": 94,
          "midi": 35,
          "name": "B1",
          "ticks": 42336,
          "time": 150.34086899999997,
          "velocity": 0.5905511811023622
        },
        {
          "duration": 0.33380672916666754,
          "durationTicks": 94,
          "midi": 35,
          "name": "B1",
          "ticks": 42432,
          "time": 150.68177799999998,
          "velocity": 0.5905511811023622
        },
        {
          "duration": 0.33380672916666754,
          "durationTicks": 94,
          "midi": 35,
          "name": "B1",
          "ticks": 42528,
          "time": 151.022687,
          "velocity": 0.5905511811023622
        },
        {
          "duration": 0.33380672916669596,
          "durationTicks": 94,
          "midi": 35,
          "name": "B1",
          "ticks": 42624,
          "time": 151.36359599999997,
          "velocity": 0.5905511811023622
        },
        {
          "duration": 0.33380672916666754,
          "durationTicks": 94,
          "midi": 35,
          "name": "B1",
          "ticks": 42720,
          "time": 151.70450499999998,
          "velocity": 0.5905511811023622
        },
        {
          "duration": 0.33380672916666754,
          "durationTicks": 94,
          "midi": 35,
          "name": "B1",
          "ticks": 42816,
          "time": 152.045414,
          "velocity": 0.5905511811023622
        },
        {
          "duration": 0.33380672916666754,
          "durationTicks": 94,
          "midi": 35,
          "name": "B1",
          "ticks": 42912,
          "time": 152.38632299999998,
          "velocity": 0.5905511811023622
        },
        {
          "duration": 0.33380672916666754,
          "durationTicks": 94,
          "midi": 35,
          "name": "B1",
          "ticks": 43008,
          "time": 152.727232,
          "velocity": 0.5905511811023622
        },
        {
          "duration": 0.33380672916666754,
          "durationTicks": 94,
          "midi": 35,
          "name": "B1",
          "ticks": 43104,
          "time": 153.068141,
          "velocity": 0.5905511811023622
        },
        {
          "duration": 0.33380672916666754,
          "durationTicks": 94,
          "midi": 35,
          "name": "B1",
          "ticks": 43200,
          "time": 153.40904999999998,
          "velocity": 0.5905511811023622
        },
        {
          "duration": 0.33380672916666754,
          "durationTicks": 94,
          "midi": 35,
          "name": "B1",
          "ticks": 43296,
          "time": 153.749959,
          "velocity": 0.5905511811023622
        },
        {
          "duration": 0.33380672916669596,
          "durationTicks": 94,
          "midi": 35,
          "name": "B1",
          "ticks": 43392,
          "time": 154.09086799999997,
          "velocity": 0.5905511811023622
        },
        {
          "duration": 0.33380672916666754,
          "durationTicks": 94,
          "midi": 35,
          "name": "B1",
          "ticks": 43488,
          "time": 154.43177699999998,
          "velocity": 0.5905511811023622
        },
        {
          "duration": 0.33380672916666754,
          "durationTicks": 94,
          "midi": 35,
          "name": "B1",
          "ticks": 43584,
          "time": 154.772686,
          "velocity": 0.5905511811023622
        },
        {
          "duration": 0.33380672916666754,
          "durationTicks": 94,
          "midi": 35,
          "name": "B1",
          "ticks": 43680,
          "time": 155.11359499999998,
          "velocity": 0.5905511811023622
        },
        {
          "duration": 0.33380672916666754,
          "durationTicks": 94,
          "midi": 30,
          "name": "F#1",
          "ticks": 43776,
          "time": 155.454504,
          "velocity": 0.5905511811023622
        },
        {
          "duration": 0.33380672916666754,
          "durationTicks": 94,
          "midi": 30,
          "name": "F#1",
          "ticks": 43872,
          "time": 155.795413,
          "velocity": 0.5905511811023622
        },
        {
          "duration": 0.33380672916666754,
          "durationTicks": 94,
          "midi": 30,
          "name": "F#1",
          "ticks": 43968,
          "time": 156.13632199999998,
          "velocity": 0.5905511811023622
        },
        {
          "duration": 0.33380672916666754,
          "durationTicks": 94,
          "midi": 30,
          "name": "F#1",
          "ticks": 44064,
          "time": 156.477231,
          "velocity": 0.5905511811023622
        },
        {
          "duration": 0.33380672916669596,
          "durationTicks": 94,
          "midi": 30,
          "name": "F#1",
          "ticks": 44160,
          "time": 156.81813999999997,
          "velocity": 0.5905511811023622
        },
        {
          "duration": 0.33380672916666754,
          "durationTicks": 94,
          "midi": 30,
          "name": "F#1",
          "ticks": 44256,
          "time": 157.15904899999998,
          "velocity": 0.5905511811023622
        },
        {
          "duration": 0.33380672916666754,
          "durationTicks": 94,
          "midi": 30,
          "name": "F#1",
          "ticks": 44352,
          "time": 157.499958,
          "velocity": 0.5905511811023622
        },
        {
          "duration": 0.33380672916666754,
          "durationTicks": 94,
          "midi": 30,
          "name": "F#1",
          "ticks": 44448,
          "time": 157.84086699999997,
          "velocity": 0.5905511811023622
        },
        {
          "duration": 0.33380672916666754,
          "durationTicks": 94,
          "midi": 30,
          "name": "F#1",
          "ticks": 44544,
          "time": 158.18177599999999,
          "velocity": 0.5905511811023622
        },
        {
          "duration": 0.33380672916666754,
          "durationTicks": 94,
          "midi": 30,
          "name": "F#1",
          "ticks": 44640,
          "time": 158.522685,
          "velocity": 0.5905511811023622
        },
        {
          "duration": 0.33380672916666754,
          "durationTicks": 94,
          "midi": 30,
          "name": "F#1",
          "ticks": 44736,
          "time": 158.86359399999998,
          "velocity": 0.5905511811023622
        },
        {
          "duration": 0.33380672916666754,
          "durationTicks": 94,
          "midi": 30,
          "name": "F#1",
          "ticks": 44832,
          "time": 159.204503,
          "velocity": 0.5905511811023622
        },
        {
          "duration": 0.33380672916669596,
          "durationTicks": 94,
          "midi": 30,
          "name": "F#1",
          "ticks": 44928,
          "time": 159.54541199999997,
          "velocity": 0.5905511811023622
        },
        {
          "duration": 0.33380672916666754,
          "durationTicks": 94,
          "midi": 30,
          "name": "F#1",
          "ticks": 45024,
          "time": 159.88632099999998,
          "velocity": 0.5905511811023622
        },
        {
          "duration": 0.33380672916666754,
          "durationTicks": 94,
          "midi": 30,
          "name": "F#1",
          "ticks": 45120,
          "time": 160.22723,
          "velocity": 0.5905511811023622
        },
        {
          "duration": 0.33380672916666754,
          "durationTicks": 94,
          "midi": 30,
          "name": "F#1",
          "ticks": 45216,
          "time": 160.56813899999997,
          "velocity": 0.5905511811023622
        },
        {
          "duration": 0.33380672916666754,
          "durationTicks": 94,
          "midi": 28,
          "name": "E1",
          "ticks": 45312,
          "time": 160.90904799999998,
          "velocity": 0.5905511811023622
        },
        {
          "duration": 0.33380672916666754,
          "durationTicks": 94,
          "midi": 28,
          "name": "E1",
          "ticks": 45408,
          "time": 161.249957,
          "velocity": 0.5905511811023622
        },
        {
          "duration": 0.33380672916666754,
          "durationTicks": 94,
          "midi": 28,
          "name": "E1",
          "ticks": 45504,
          "time": 161.59086599999998,
          "velocity": 0.5905511811023622
        },
        {
          "duration": 0.33380672916666754,
          "durationTicks": 94,
          "midi": 28,
          "name": "E1",
          "ticks": 45600,
          "time": 161.931775,
          "velocity": 0.5905511811023622
        },
        {
          "duration": 0.33380672916669596,
          "durationTicks": 94,
          "midi": 28,
          "name": "E1",
          "ticks": 45696,
          "time": 162.27268399999997,
          "velocity": 0.5905511811023622
        },
        {
          "duration": 0.33380672916666754,
          "durationTicks": 94,
          "midi": 28,
          "name": "E1",
          "ticks": 45792,
          "time": 162.61359299999998,
          "velocity": 0.5905511811023622
        },
        {
          "duration": 0.33380672916666754,
          "durationTicks": 94,
          "midi": 28,
          "name": "E1",
          "ticks": 45888,
          "time": 162.954502,
          "velocity": 0.5905511811023622
        },
        {
          "duration": 0.33380672916669596,
          "durationTicks": 94,
          "midi": 28,
          "name": "E1",
          "ticks": 45984,
          "time": 163.29541099999997,
          "velocity": 0.5905511811023622
        },
        {
          "duration": 0.33380672916666754,
          "durationTicks": 94,
          "midi": 28,
          "name": "E1",
          "ticks": 46080,
          "time": 163.63631999999998,
          "velocity": 0.5905511811023622
        },
        {
          "duration": 0.33380672916666754,
          "durationTicks": 94,
          "midi": 28,
          "name": "E1",
          "ticks": 46176,
          "time": 163.977229,
          "velocity": 0.5905511811023622
        },
        {
          "duration": 0.33380672916666754,
          "durationTicks": 94,
          "midi": 28,
          "name": "E1",
          "ticks": 46272,
          "time": 164.31813799999998,
          "velocity": 0.5905511811023622
        },
        {
          "duration": 0.33380672916666754,
          "durationTicks": 94,
          "midi": 28,
          "name": "E1",
          "ticks": 46368,
          "time": 164.659047,
          "velocity": 0.5905511811023622
        },
        {
          "duration": 0.33380672916669596,
          "durationTicks": 94,
          "midi": 28,
          "name": "E1",
          "ticks": 46464,
          "time": 164.99995599999997,
          "velocity": 0.5905511811023622
        },
        {
          "duration": 0.33380672916666754,
          "durationTicks": 94,
          "midi": 28,
          "name": "E1",
          "ticks": 46560,
          "time": 165.34086499999998,
          "velocity": 0.5905511811023622
        },
        {
          "duration": 0.33380672916666754,
          "durationTicks": 94,
          "midi": 28,
          "name": "E1",
          "ticks": 46656,
          "time": 165.681774,
          "velocity": 0.5905511811023622
        },
        {
          "duration": 0.33380672916669596,
          "durationTicks": 94,
          "midi": 28,
          "name": "E1",
          "ticks": 46752,
          "time": 166.02268299999997,
          "velocity": 0.5905511811023622
        },
        {
          "duration": 0.33380672916666754,
          "durationTicks": 94,
          "midi": 35,
          "name": "B1",
          "ticks": 46848,
          "time": 166.36359199999998,
          "velocity": 0.5905511811023622
        },
        {
          "duration": 0.33380672916666754,
          "durationTicks": 94,
          "midi": 35,
          "name": "B1",
          "ticks": 46944,
          "time": 166.704501,
          "velocity": 0.5905511811023622
        },
        {
          "duration": 0.33380672916666754,
          "durationTicks": 94,
          "midi": 35,
          "name": "B1",
          "ticks": 47040,
          "time": 167.04540999999998,
          "velocity": 0.5905511811023622
        },
        {
          "duration": 0.33380672916666754,
          "durationTicks": 94,
          "midi": 35,
          "name": "B1",
          "ticks": 47136,
          "time": 167.386319,
          "velocity": 0.5905511811023622
        },
        {
          "duration": 0.33380672916669596,
          "durationTicks": 94,
          "midi": 35,
          "name": "B1",
          "ticks": 47232,
          "time": 167.72722799999997,
          "velocity": 0.5905511811023622
        },
        {
          "duration": 0.33380672916666754,
          "durationTicks": 94,
          "midi": 35,
          "name": "B1",
          "ticks": 47328,
          "time": 168.06813699999998,
          "velocity": 0.5905511811023622
        },
        {
          "duration": 0.33380672916666754,
          "durationTicks": 94,
          "midi": 35,
          "name": "B1",
          "ticks": 47424,
          "time": 168.409046,
          "velocity": 0.5905511811023622
        },
        {
          "duration": 0.33380672916669596,
          "durationTicks": 94,
          "midi": 35,
          "name": "B1",
          "ticks": 47520,
          "time": 168.74995499999997,
          "velocity": 0.5905511811023622
        },
        {
          "duration": 0.33380672916666754,
          "durationTicks": 94,
          "midi": 35,
          "name": "B1",
          "ticks": 47616,
          "time": 169.09086399999998,
          "velocity": 0.5905511811023622
        },
        {
          "duration": 0.33380672916666754,
          "durationTicks": 94,
          "midi": 35,
          "name": "B1",
          "ticks": 47712,
          "time": 169.431773,
          "velocity": 0.5905511811023622
        },
        {
          "duration": 0.33380672916666754,
          "durationTicks": 94,
          "midi": 35,
          "name": "B1",
          "ticks": 47808,
          "time": 169.77268199999997,
          "velocity": 0.5905511811023622
        },
        {
          "duration": 0.33380672916666754,
          "durationTicks": 94,
          "midi": 35,
          "name": "B1",
          "ticks": 47904,
          "time": 170.11359099999999,
          "velocity": 0.5905511811023622
        },
        {
          "duration": 0.33380672916669596,
          "durationTicks": 94,
          "midi": 35,
          "name": "B1",
          "ticks": 48000,
          "time": 170.45449999999997,
          "velocity": 0.5905511811023622
        },
        {
          "duration": 0.33380672916666754,
          "durationTicks": 94,
          "midi": 35,
          "name": "B1",
          "ticks": 48096,
          "time": 170.79540899999998,
          "velocity": 0.5905511811023622
        },
        {
          "duration": 0.33380672916666754,
          "durationTicks": 94,
          "midi": 35,
          "name": "B1",
          "ticks": 48192,
          "time": 171.136318,
          "velocity": 0.5905511811023622
        },
        {
          "duration": 0.33380672916669596,
          "durationTicks": 94,
          "midi": 35,
          "name": "B1",
          "ticks": 48288,
          "time": 171.47722699999997,
          "velocity": 0.5905511811023622
        },
        {
          "duration": 0.33380672916666754,
          "durationTicks": 94,
          "midi": 40,
          "name": "E2",
          "ticks": 48384,
          "time": 171.81813599999998,
          "velocity": 0.5905511811023622
        },
        {
          "duration": 0.33380672916666754,
          "durationTicks": 94,
          "midi": 40,
          "name": "E2",
          "ticks": 48480,
          "time": 172.159045,
          "velocity": 0.5905511811023622
        },
        {
          "duration": 0.33380672916666754,
          "durationTicks": 94,
          "midi": 40,
          "name": "E2",
          "ticks": 48576,
          "time": 172.49995399999997,
          "velocity": 0.5905511811023622
        },
        {
          "duration": 0.6747157291666781,
          "durationTicks": 190,
          "midi": 42,
          "name": "F#2",
          "ticks": 48672,
          "time": 172.84086299999998,
          "velocity": 0.5905511811023622
        },
        {
          "duration": 0.33380672916666754,
          "durationTicks": 94,
          "midi": 44,
          "name": "G#2",
          "ticks": 48864,
          "time": 173.52268099999998,
          "velocity": 0.5905511811023622
        },
        {
          "duration": 0.5681816666666748,
          "durationTicks": 160,
          "midi": 47,
          "name": "B2",
          "ticks": 48960,
          "time": 173.86359,
          "velocity": 0.5905511811023622
        },
        {
          "duration": 0.33380672916666754,
          "durationTicks": 94,
          "midi": 44,
          "name": "G#2",
          "ticks": 49152,
          "time": 174.54540799999998,
          "velocity": 0.5905511811023622
        },
        {
          "duration": 0.3338067291666391,
          "durationTicks": 94,
          "midi": 44,
          "name": "G#2",
          "ticks": 49248,
          "time": 174.886317,
          "velocity": 0.5905511811023622
        },
        {
          "duration": 0.33380672916666754,
          "durationTicks": 94,
          "midi": 44,
          "name": "G#2",
          "ticks": 49344,
          "time": 175.22722599999997,
          "velocity": 0.5905511811023622
        },
        {
          "duration": 0.3338067291666391,
          "durationTicks": 94,
          "midi": 42,
          "name": "F#2",
          "ticks": 49440,
          "time": 175.56813499999998,
          "velocity": 0.5905511811023622
        },
        {
          "duration": 0.3338067291666391,
          "durationTicks": 94,
          "midi": 42,
          "name": "F#2",
          "ticks": 49536,
          "time": 175.909044,
          "velocity": 0.5905511811023622
        },
        {
          "duration": 0.33380672916666754,
          "durationTicks": 94,
          "midi": 42,
          "name": "F#2",
          "ticks": 49632,
          "time": 176.24995299999998,
          "velocity": 0.5905511811023622
        },
        {
          "duration": 0.3338067291666391,
          "durationTicks": 94,
          "midi": 42,
          "name": "F#2",
          "ticks": 49728,
          "time": 176.590862,
          "velocity": 0.5905511811023622
        },
        {
          "duration": 0.33380672916666754,
          "durationTicks": 94,
          "midi": 42,
          "name": "F#2",
          "ticks": 49824,
          "time": 176.93177099999997,
          "velocity": 0.5905511811023622
        },
        {
          "duration": 0.33380672916666754,
          "durationTicks": 94,
          "midi": 40,
          "name": "E2",
          "ticks": 49920,
          "time": 177.27267999999998,
          "velocity": 0.5905511811023622
        },
        {
          "duration": 0.3338067291666391,
          "durationTicks": 94,
          "midi": 40,
          "name": "E2",
          "ticks": 50016,
          "time": 177.613589,
          "velocity": 0.5905511811023622
        },
        {
          "duration": 0.33380672916666754,
          "durationTicks": 94,
          "midi": 40,
          "name": "E2",
          "ticks": 50112,
          "time": 177.95449799999997,
          "velocity": 0.5905511811023622
        },
        {
          "duration": 0.6747157291666497,
          "durationTicks": 190,
          "midi": 42,
          "name": "F#2",
          "ticks": 50208,
          "time": 178.29540699999998,
          "velocity": 0.5905511811023622
        },
        {
          "duration": 0.33380672916666754,
          "durationTicks": 94,
          "midi": 44,
          "name": "G#2",
          "ticks": 50400,
          "time": 178.97722499999998,
          "velocity": 0.5905511811023622
        },
        {
          "duration": 0.5681816666666464,
          "durationTicks": 160,
          "midi": 47,
          "name": "B2",
          "ticks": 50496,
          "time": 179.318134,
          "velocity": 0.5905511811023622
        },
        {
          "duration": 0.33380672916666754,
          "durationTicks": 94,
          "midi": 44,
          "name": "G#2",
          "ticks": 50688,
          "time": 179.99995199999998,
          "velocity": 0.5905511811023622
        },
        {
          "duration": 0.3338067291666391,
          "durationTicks": 94,
          "midi": 44,
          "name": "G#2",
          "ticks": 50784,
          "time": 180.340861,
          "velocity": 0.5905511811023622
        },
        {
          "duration": 0.33380672916666754,
          "durationTicks": 94,
          "midi": 44,
          "name": "G#2",
          "ticks": 50880,
          "time": 180.68176999999997,
          "velocity": 0.5905511811023622
        },
        {
          "duration": 0.3338067291666391,
          "durationTicks": 94,
          "midi": 42,
          "name": "F#2",
          "ticks": 50976,
          "time": 181.02267899999998,
          "velocity": 0.5905511811023622
        },
        {
          "duration": 0.3338067291666391,
          "durationTicks": 94,
          "midi": 42,
          "name": "F#2",
          "ticks": 51072,
          "time": 181.363588,
          "velocity": 0.5905511811023622
        },
        {
          "duration": 0.33380672916666754,
          "durationTicks": 94,
          "midi": 42,
          "name": "F#2",
          "ticks": 51168,
          "time": 181.70449699999998,
          "velocity": 0.5905511811023622
        },
        {
          "duration": 0.3338067291666391,
          "durationTicks": 94,
          "midi": 42,
          "name": "F#2",
          "ticks": 51264,
          "time": 182.04540599999999,
          "velocity": 0.5905511811023622
        },
        {
          "duration": 0.33380672916666754,
          "durationTicks": 94,
          "midi": 42,
          "name": "F#2",
          "ticks": 51360,
          "time": 182.38631499999997,
          "velocity": 0.5905511811023622
        },
        {
          "duration": 0.33380672916666754,
          "durationTicks": 94,
          "midi": 40,
          "name": "E2",
          "ticks": 51456,
          "time": 182.72722399999998,
          "velocity": 0.5905511811023622
        },
        {
          "duration": 0.3338067291666391,
          "durationTicks": 94,
          "midi": 40,
          "name": "E2",
          "ticks": 51552,
          "time": 183.068133,
          "velocity": 0.5905511811023622
        },
        {
          "duration": 0.33380672916666754,
          "durationTicks": 94,
          "midi": 40,
          "name": "E2",
          "ticks": 51648,
          "time": 183.40904199999997,
          "velocity": 0.5905511811023622
        },
        {
          "duration": 0.6747157291666497,
          "durationTicks": 190,
          "midi": 42,
          "name": "F#2",
          "ticks": 51744,
          "time": 183.74995099999998,
          "velocity": 0.5905511811023622
        },
        {
          "duration": 0.33380672916666754,
          "durationTicks": 94,
          "midi": 44,
          "name": "G#2",
          "ticks": 51936,
          "time": 184.43176899999997,
          "velocity": 0.5905511811023622
        },
        {
          "duration": 0.5681816666666464,
          "durationTicks": 160,
          "midi": 47,
          "name": "B2",
          "ticks": 52032,
          "time": 184.77267799999998,
          "velocity": 0.5905511811023622
        },
        {
          "duration": 0.33380672916666754,
          "durationTicks": 94,
          "midi": 44,
          "name": "G#2",
          "ticks": 52224,
          "time": 185.45449599999998,
          "velocity": 0.5905511811023622
        },
        {
          "duration": 0.3338067291666391,
          "durationTicks": 94,
          "midi": 44,
          "name": "G#2",
          "ticks": 52320,
          "time": 185.795405,
          "velocity": 0.5905511811023622
        },
        {
          "duration": 0.33380672916666754,
          "durationTicks": 94,
          "midi": 44,
          "name": "G#2",
          "ticks": 52416,
          "time": 186.13631399999997,
          "velocity": 0.5905511811023622
        },
        {
          "duration": 0.3338067291666391,
          "durationTicks": 94,
          "midi": 42,
          "name": "F#2",
          "ticks": 52512,
          "time": 186.47722299999998,
          "velocity": 0.5905511811023622
        },
        {
          "duration": 0.3338067291666391,
          "durationTicks": 94,
          "midi": 42,
          "name": "F#2",
          "ticks": 52608,
          "time": 186.818132,
          "velocity": 0.5905511811023622
        },
        {
          "duration": 0.33380672916666754,
          "durationTicks": 94,
          "midi": 42,
          "name": "F#2",
          "ticks": 52704,
          "time": 187.15904099999997,
          "velocity": 0.5905511811023622
        },
        {
          "duration": 0.3338067291666391,
          "durationTicks": 94,
          "midi": 42,
          "name": "F#2",
          "ticks": 52800,
          "time": 187.49994999999998,
          "velocity": 0.5905511811023622
        },
        {
          "duration": 0.33380672916666754,
          "durationTicks": 94,
          "midi": 42,
          "name": "F#2",
          "ticks": 52896,
          "time": 187.84085899999997,
          "velocity": 0.5905511811023622
        },
        {
          "duration": 5.284089499999993,
          "durationTicks": 1488,
          "midi": 40,
          "name": "E2",
          "ticks": 52992,
          "time": 188.18176799999998,
          "velocity": 0.5905511811023622
        },
        {
          "duration": 0.33380672916666754,
          "durationTicks": 94,
          "midi": 35,
          "name": "B1",
          "ticks": 54528,
          "time": 193.63631199999998,
          "velocity": 0.5905511811023622
        },
        {
          "duration": 0.3338067291666391,
          "durationTicks": 94,
          "midi": 35,
          "name": "B1",
          "ticks": 54624,
          "time": 193.977221,
          "velocity": 0.5905511811023622
        },
        {
          "duration": 0.33380672916666754,
          "durationTicks": 94,
          "midi": 35,
          "name": "B1",
          "ticks": 54720,
          "time": 194.31812999999997,
          "velocity": 0.5905511811023622
        },
        {
          "duration": 0.33380672916666754,
          "durationTicks": 94,
          "midi": 35,
          "name": "B1",
          "ticks": 54816,
          "time": 194.65903899999998,
          "velocity": 0.5905511811023622
        },
        {
          "duration": 0.3338067291666391,
          "durationTicks": 94,
          "midi": 35,
          "name": "B1",
          "ticks": 54912,
          "time": 194.999948,
          "velocity": 0.5905511811023622
        },
        {
          "duration": 0.33380672916666754,
          "durationTicks": 94,
          "midi": 35,
          "name": "B1",
          "ticks": 55008,
          "time": 195.34085699999997,
          "velocity": 0.5905511811023622
        },
        {
          "duration": 0.3338067291666391,
          "durationTicks": 94,
          "midi": 35,
          "name": "B1",
          "ticks": 55104,
          "time": 195.68176599999998,
          "velocity": 0.5905511811023622
        },
        {
          "duration": 0.33380672916666754,
          "durationTicks": 94,
          "midi": 35,
          "name": "B1",
          "ticks": 55200,
          "time": 196.02267499999996,
          "velocity": 0.5905511811023622
        },
        {
          "duration": 0.33380672916666754,
          "durationTicks": 94,
          "midi": 35,
          "name": "B1",
          "ticks": 55296,
          "time": 196.36358399999997,
          "velocity": 0.5905511811023622
        },
        {
          "duration": 0.3338067291666391,
          "durationTicks": 94,
          "midi": 35,
          "name": "B1",
          "ticks": 55392,
          "time": 196.70449299999999,
          "velocity": 0.5905511811023622
        },
        {
          "duration": 0.33380672916666754,
          "durationTicks": 94,
          "midi": 35,
          "name": "B1",
          "ticks": 55488,
          "time": 197.04540199999997,
          "velocity": 0.5905511811023622
        },
        {
          "duration": 0.33380672916666754,
          "durationTicks": 94,
          "midi": 35,
          "name": "B1",
          "ticks": 55584,
          "time": 197.38631099999998,
          "velocity": 0.5905511811023622
        },
        {
          "duration": 0.3338067291666391,
          "durationTicks": 94,
          "midi": 35,
          "name": "B1",
          "ticks": 55680,
          "time": 197.72722,
          "velocity": 0.5905511811023622
        },
        {
          "duration": 0.33380672916666754,
          "durationTicks": 94,
          "midi": 35,
          "name": "B1",
          "ticks": 55776,
          "time": 198.06812899999997,
          "velocity": 0.5905511811023622
        },
        {
          "duration": 0.3338067291666391,
          "durationTicks": 94,
          "midi": 35,
          "name": "B1",
          "ticks": 55872,
          "time": 198.40903799999998,
          "velocity": 0.5905511811023622
        },
        {
          "duration": 0.3338067291666391,
          "durationTicks": 94,
          "midi": 35,
          "name": "B1",
          "ticks": 55968,
          "time": 198.749947,
          "velocity": 0.5905511811023622
        },
        {
          "duration": 0.33380672916666754,
          "durationTicks": 94,
          "midi": 30,
          "name": "F#1",
          "ticks": 56064,
          "time": 199.09085599999997,
          "velocity": 0.5905511811023622
        },
        {
          "duration": 0.3338067291666391,
          "durationTicks": 94,
          "midi": 30,
          "name": "F#1",
          "ticks": 56160,
          "time": 199.43176499999998,
          "velocity": 0.5905511811023622
        },
        {
          "duration": 0.33380672916666754,
          "durationTicks": 94,
          "midi": 30,
          "name": "F#1",
          "ticks": 56256,
          "time": 199.77267399999997,
          "velocity": 0.5905511811023622
        },
        {
          "duration": 0.33380672916666754,
          "durationTicks": 94,
          "midi": 30,
          "name": "F#1",
          "ticks": 56352,
          "time": 200.11358299999998,
          "velocity": 0.5905511811023622
        },
        {
          "duration": 0.3338067291666391,
          "durationTicks": 94,
          "midi": 30,
          "name": "F#1",
          "ticks": 56448,
          "time": 200.454492,
          "velocity": 0.5905511811023622
        },
        {
          "duration": 0.33380672916666754,
          "durationTicks": 94,
          "midi": 30,
          "name": "F#1",
          "ticks": 56544,
          "time": 200.79540099999997,
          "velocity": 0.5905511811023622
        },
        {
          "duration": 0.3338067291666391,
          "durationTicks": 94,
          "midi": 30,
          "name": "F#1",
          "ticks": 56640,
          "time": 201.13630999999998,
          "velocity": 0.5905511811023622
        },
        {
          "duration": 0.3338067291666391,
          "durationTicks": 94,
          "midi": 30,
          "name": "F#1",
          "ticks": 56736,
          "time": 201.477219,
          "velocity": 0.5905511811023622
        },
        {
          "duration": 0.33380672916666754,
          "durationTicks": 94,
          "midi": 30,
          "name": "F#1",
          "ticks": 56832,
          "time": 201.81812799999997,
          "velocity": 0.5905511811023622
        },
        {
          "duration": 0.3338067291666391,
          "durationTicks": 94,
          "midi": 30,
          "name": "F#1",
          "ticks": 56928,
          "time": 202.15903699999998,
          "velocity": 0.5905511811023622
        },
        {
          "duration": 0.33380672916666754,
          "durationTicks": 94,
          "midi": 30,
          "name": "F#1",
          "ticks": 57024,
          "time": 202.49994599999997,
          "velocity": 0.5905511811023622
        },
        {
          "duration": 0.33380672916666754,
          "durationTicks": 94,
          "midi": 30,
          "name": "F#1",
          "ticks": 57120,
          "time": 202.84085499999998,
          "velocity": 0.5905511811023622
        },
        {
          "duration": 0.3338067291666391,
          "durationTicks": 94,
          "midi": 30,
          "name": "F#1",
          "ticks": 57216,
          "time": 203.181764,
          "velocity": 0.5905511811023622
        },
        {
          "duration": 0.33380672916666754,
          "durationTicks": 94,
          "midi": 30,
          "name": "F#1",
          "ticks": 57312,
          "time": 203.52267299999997,
          "velocity": 0.5905511811023622
        },
        {
          "duration": 0.3338067291666391,
          "durationTicks": 94,
          "midi": 30,
          "name": "F#1",
          "ticks": 57408,
          "time": 203.86358199999998,
          "velocity": 0.5905511811023622
        },
        {
          "duration": 0.3338067291666391,
          "durationTicks": 94,
          "midi": 30,
          "name": "F#1",
          "ticks": 57504,
          "time": 204.204491,
          "velocity": 0.5905511811023622
        },
        {
          "duration": 0.33380672916666754,
          "durationTicks": 94,
          "midi": 28,
          "name": "E1",
          "ticks": 57600,
          "time": 204.54539999999997,
          "velocity": 0.5905511811023622
        },
        {
          "duration": 0.3338067291666391,
          "durationTicks": 94,
          "midi": 28,
          "name": "E1",
          "ticks": 57696,
          "time": 204.88630899999998,
          "velocity": 0.5905511811023622
        },
        {
          "duration": 0.33380672916666754,
          "durationTicks": 94,
          "midi": 28,
          "name": "E1",
          "ticks": 57792,
          "time": 205.22721799999997,
          "velocity": 0.5905511811023622
        },
        {
          "duration": 0.33380672916666754,
          "durationTicks": 94,
          "midi": 28,
          "name": "E1",
          "ticks": 57888,
          "time": 205.56812699999998,
          "velocity": 0.5905511811023622
        },
        {
          "duration": 0.3338067291666391,
          "durationTicks": 94,
          "midi": 28,
          "name": "E1",
          "ticks": 57984,
          "time": 205.909036,
          "velocity": 0.5905511811023622
        },
        {
          "duration": 0.33380672916666754,
          "durationTicks": 94,
          "midi": 28,
          "name": "E1",
          "ticks": 58080,
          "time": 206.24994499999997,
          "velocity": 0.5905511811023622
        },
        {
          "duration": 0.3338067291666391,
          "durationTicks": 94,
          "midi": 28,
          "name": "E1",
          "ticks": 58176,
          "time": 206.59085399999998,
          "velocity": 0.5905511811023622
        },
        {
          "duration": 0.3338067291666391,
          "durationTicks": 94,
          "midi": 28,
          "name": "E1",
          "ticks": 58272,
          "time": 206.931763,
          "velocity": 0.5905511811023622
        },
        {
          "duration": 0.33380672916666754,
          "durationTicks": 94,
          "midi": 28,
          "name": "E1",
          "ticks": 58368,
          "time": 207.27267199999997,
          "velocity": 0.5905511811023622
        },
        {
          "duration": 0.3338067291666391,
          "durationTicks": 94,
          "midi": 28,
          "name": "E1",
          "ticks": 58464,
          "time": 207.61358099999998,
          "velocity": 0.5905511811023622
        },
        {
          "duration": 0.33380672916666754,
          "durationTicks": 94,
          "midi": 28,
          "name": "E1",
          "ticks": 58560,
          "time": 207.95448999999996,
          "velocity": 0.5905511811023622
        },
        {
          "duration": 0.33380672916666754,
          "durationTicks": 94,
          "midi": 28,
          "name": "E1",
          "ticks": 58656,
          "time": 208.29539899999997,
          "velocity": 0.5905511811023622
        },
        {
          "duration": 0.3338067291666391,
          "durationTicks": 94,
          "midi": 28,
          "name": "E1",
          "ticks": 58752,
          "time": 208.63630799999999,
          "velocity": 0.5905511811023622
        },
        {
          "duration": 0.33380672916666754,
          "durationTicks": 94,
          "midi": 28,
          "name": "E1",
          "ticks": 58848,
          "time": 208.97721699999997,
          "velocity": 0.5905511811023622
        },
        {
          "duration": 0.3338067291666391,
          "durationTicks": 94,
          "midi": 28,
          "name": "E1",
          "ticks": 58944,
          "time": 209.31812599999998,
          "velocity": 0.5905511811023622
        },
        {
          "duration": 0.3338067291666391,
          "durationTicks": 94,
          "midi": 28,
          "name": "E1",
          "ticks": 59040,
          "time": 209.659035,
          "velocity": 0.5905511811023622
        },
        {
          "duration": 0.33380672916666754,
          "durationTicks": 94,
          "midi": 35,
          "name": "B1",
          "ticks": 59136,
          "time": 209.99994399999997,
          "velocity": 0.5905511811023622
        },
        {
          "duration": 0.3338067291666391,
          "durationTicks": 94,
          "midi": 35,
          "name": "B1",
          "ticks": 59232,
          "time": 210.34085299999998,
          "velocity": 0.5905511811023622
        },
        {
          "duration": 0.33380672916666754,
          "durationTicks": 94,
          "midi": 35,
          "name": "B1",
          "ticks": 59328,
          "time": 210.68176199999996,
          "velocity": 0.5905511811023622
        },
        {
          "duration": 0.33380672916666754,
          "durationTicks": 94,
          "midi": 35,
          "name": "B1",
          "ticks": 59424,
          "time": 211.02267099999997,
          "velocity": 0.5905511811023622
        },
        {
          "duration": 0.3338067291666391,
          "durationTicks": 94,
          "midi": 35,
          "name": "B1",
          "ticks": 59520,
          "time": 211.36357999999998,
          "velocity": 0.5905511811023622
        },
        {
          "duration": 0.33380672916666754,
          "durationTicks": 94,
          "midi": 35,
          "name": "B1",
          "ticks": 59616,
          "time": 211.70448899999997,
          "velocity": 0.5905511811023622
        },
        {
          "duration": 0.3338067291666391,
          "durationTicks": 94,
          "midi": 35,
          "name": "B1",
          "ticks": 59712,
          "time": 212.04539799999998,
          "velocity": 0.5905511811023622
        },
        {
          "duration": 0.3338067291666391,
          "durationTicks": 94,
          "midi": 35,
          "name": "B1",
          "ticks": 59808,
          "time": 212.386307,
          "velocity": 0.5905511811023622
        },
        {
          "duration": 0.33380672916666754,
          "durationTicks": 94,
          "midi": 35,
          "name": "B1",
          "ticks": 59904,
          "time": 212.72721599999997,
          "velocity": 0.5905511811023622
        },
        {
          "duration": 0.3338067291666391,
          "durationTicks": 94,
          "midi": 35,
          "name": "B1",
          "ticks": 60000,
          "time": 213.06812499999998,
          "velocity": 0.5905511811023622
        },
        {
          "duration": 0.33380672916666754,
          "durationTicks": 94,
          "midi": 35,
          "name": "B1",
          "ticks": 60096,
          "time": 213.40903399999996,
          "velocity": 0.5905511811023622
        },
        {
          "duration": 0.33380672916666754,
          "durationTicks": 94,
          "midi": 35,
          "name": "B1",
          "ticks": 60192,
          "time": 213.74994299999997,
          "velocity": 0.5905511811023622
        },
        {
          "duration": 0.3338067291666391,
          "durationTicks": 94,
          "midi": 35,
          "name": "B1",
          "ticks": 60288,
          "time": 214.09085199999998,
          "velocity": 0.5905511811023622
        },
        {
          "duration": 0.33380672916666754,
          "durationTicks": 94,
          "midi": 35,
          "name": "B1",
          "ticks": 60384,
          "time": 214.43176099999997,
          "velocity": 0.5905511811023622
        },
        {
          "duration": 0.3338067291666391,
          "durationTicks": 94,
          "midi": 35,
          "name": "B1",
          "ticks": 60480,
          "time": 214.77266999999998,
          "velocity": 0.5905511811023622
        },
        {
          "duration": 0.3338067291666391,
          "durationTicks": 94,
          "midi": 35,
          "name": "B1",
          "ticks": 60576,
          "time": 215.113579,
          "velocity": 0.5905511811023622
        },
        {
          "duration": 0.33380672916666754,
          "durationTicks": 94,
          "midi": 35,
          "name": "B1",
          "ticks": 60672,
          "time": 215.45448799999997,
          "velocity": 0.5905511811023622
        },
        {
          "duration": 0.3338067291666391,
          "durationTicks": 94,
          "midi": 35,
          "name": "B1",
          "ticks": 60768,
          "time": 215.79539699999998,
          "velocity": 0.5905511811023622
        },
        {
          "duration": 0.33380672916666754,
          "durationTicks": 94,
          "midi": 35,
          "name": "B1",
          "ticks": 60864,
          "time": 216.13630599999996,
          "velocity": 0.5905511811023622
        },
        {
          "duration": 0.33380672916666754,
          "durationTicks": 94,
          "midi": 35,
          "name": "B1",
          "ticks": 60960,
          "time": 216.47721499999997,
          "velocity": 0.5905511811023622
        },
        {
          "duration": 0.3338067291666391,
          "durationTicks": 94,
          "midi": 35,
          "name": "B1",
          "ticks": 61056,
          "time": 216.81812399999998,
          "velocity": 0.5905511811023622
        },
        {
          "duration": 0.33380672916666754,
          "durationTicks": 94,
          "midi": 35,
          "name": "B1",
          "ticks": 61152,
          "time": 217.15903299999997,
          "velocity": 0.5905511811023622
        },
        {
          "duration": 0.33380672916666754,
          "durationTicks": 94,
          "midi": 35,
          "name": "B1",
          "ticks": 61248,
          "time": 217.49994199999998,
          "velocity": 0.5905511811023622
        },
        {
          "duration": 0.3338067291666391,
          "durationTicks": 94,
          "midi": 35,
          "name": "B1",
          "ticks": 61344,
          "time": 217.840851,
          "velocity": 0.5905511811023622
        },
        {
          "duration": 0.33380672916666754,
          "durationTicks": 94,
          "midi": 35,
          "name": "B1",
          "ticks": 61440,
          "time": 218.18175999999997,
          "velocity": 0.5905511811023622
        },
        {
          "duration": 0.3338067291666391,
          "durationTicks": 94,
          "midi": 35,
          "name": "B1",
          "ticks": 61536,
          "time": 218.52266899999998,
          "velocity": 0.5905511811023622
        },
        {
          "duration": 0.3338067291666391,
          "durationTicks": 94,
          "midi": 35,
          "name": "B1",
          "ticks": 61632,
          "time": 218.863578,
          "velocity": 0.5905511811023622
        },
        {
          "duration": 0.33380672916666754,
          "durationTicks": 94,
          "midi": 35,
          "name": "B1",
          "ticks": 61728,
          "time": 219.20448699999997,
          "velocity": 0.5905511811023622
        },
        {
          "duration": 0.3338067291666391,
          "durationTicks": 94,
          "midi": 35,
          "name": "B1",
          "ticks": 61824,
          "time": 219.54539599999998,
          "velocity": 0.5905511811023622
        },
        {
          "duration": 0.33380672916666754,
          "durationTicks": 94,
          "midi": 35,
          "name": "B1",
          "ticks": 61920,
          "time": 219.88630499999996,
          "velocity": 0.5905511811023622
        },
        {
          "duration": 0.33380672916666754,
          "durationTicks": 94,
          "midi": 35,
          "name": "B1",
          "ticks": 62016,
          "time": 220.22721399999998,
          "velocity": 0.5905511811023622
        },
        {
          "duration": 0.3338067291666391,
          "durationTicks": 94,
          "midi": 35,
          "name": "B1",
          "ticks": 62112,
          "time": 220.56812299999999,
          "velocity": 0.5905511811023622
        },
        {
          "duration": 0.33380672916666754,
          "durationTicks": 94,
          "midi": 30,
          "name": "F#1",
          "ticks": 62208,
          "time": 220.90903199999997,
          "velocity": 0.5905511811023622
        },
        {
          "duration": 0.3338067291666391,
          "durationTicks": 94,
          "midi": 30,
          "name": "F#1",
          "ticks": 62304,
          "time": 221.24994099999998,
          "velocity": 0.5905511811023622
        },
        {
          "duration": 0.3338067291666391,
          "durationTicks": 94,
          "midi": 30,
          "name": "F#1",
          "ticks": 62400,
          "time": 221.59085,
          "velocity": 0.5905511811023622
        },
        {
          "duration": 0.33380672916666754,
          "durationTicks": 94,
          "midi": 30,
          "name": "F#1",
          "ticks": 62496,
          "time": 221.93175899999997,
          "velocity": 0.5905511811023622
        },
        {
          "duration": 0.3338067291666391,
          "durationTicks": 94,
          "midi": 30,
          "name": "F#1",
          "ticks": 62592,
          "time": 222.27266799999998,
          "velocity": 0.5905511811023622
        },
        {
          "duration": 0.33380672916666754,
          "durationTicks": 94,
          "midi": 30,
          "name": "F#1",
          "ticks": 62688,
          "time": 222.61357699999996,
          "velocity": 0.5905511811023622
        },
        {
          "duration": 0.33380672916666754,
          "durationTicks": 94,
          "midi": 30,
          "name": "F#1",
          "ticks": 62784,
          "time": 222.95448599999997,
          "velocity": 0.5905511811023622
        },
        {
          "duration": 0.3338067291666391,
          "durationTicks": 94,
          "midi": 30,
          "name": "F#1",
          "ticks": 62880,
          "time": 223.29539499999998,
          "velocity": 0.5905511811023622
        },
        {
          "duration": 0.33380672916666754,
          "durationTicks": 94,
          "midi": 30,
          "name": "F#1",
          "ticks": 62976,
          "time": 223.63630399999997,
          "velocity": 0.5905511811023622
        },
        {
          "duration": 0.3338067291666391,
          "durationTicks": 94,
          "midi": 30,
          "name": "F#1",
          "ticks": 63072,
          "time": 223.97721299999998,
          "velocity": 0.5905511811023622
        },
        {
          "duration": 0.3338067291666391,
          "durationTicks": 94,
          "midi": 30,
          "name": "F#1",
          "ticks": 63168,
          "time": 224.318122,
          "velocity": 0.5905511811023622
        },
        {
          "duration": 0.33380672916666754,
          "durationTicks": 94,
          "midi": 30,
          "name": "F#1",
          "ticks": 63264,
          "time": 224.65903099999997,
          "velocity": 0.5905511811023622
        },
        {
          "duration": 0.3338067291666391,
          "durationTicks": 94,
          "midi": 30,
          "name": "F#1",
          "ticks": 63360,
          "time": 224.99993999999998,
          "velocity": 0.5905511811023622
        },
        {
          "duration": 0.33380672916666754,
          "durationTicks": 94,
          "midi": 30,
          "name": "F#1",
          "ticks": 63456,
          "time": 225.34084899999996,
          "velocity": 0.5905511811023622
        },
        {
          "duration": 0.33380672916666754,
          "durationTicks": 94,
          "midi": 30,
          "name": "F#1",
          "ticks": 63552,
          "time": 225.68175799999997,
          "velocity": 0.5905511811023622
        },
        {
          "duration": 0.3338067291666391,
          "durationTicks": 94,
          "midi": 30,
          "name": "F#1",
          "ticks": 63648,
          "time": 226.02266699999998,
          "velocity": 0.5905511811023622
        },
        {
          "duration": 0.33380672916666754,
          "durationTicks": 94,
          "midi": 28,
          "name": "E1",
          "ticks": 63744,
          "time": 226.36357599999997,
          "velocity": 0.5905511811023622
        },
        {
          "duration": 0.3338067291666391,
          "durationTicks": 94,
          "midi": 28,
          "name": "E1",
          "ticks": 63840,
          "time": 226.70448499999998,
          "velocity": 0.5905511811023622
        },
        {
          "duration": 0.3338067291666391,
          "durationTicks": 94,
          "midi": 28,
          "name": "E1",
          "ticks": 63936,
          "time": 227.045394,
          "velocity": 0.5905511811023622
        },
        {
          "duration": 0.33380672916666754,
          "durationTicks": 94,
          "midi": 28,
          "name": "E1",
          "ticks": 64032,
          "time": 227.38630299999997,
          "velocity": 0.5905511811023622
        },
        {
          "duration": 0.3338067291666391,
          "durationTicks": 94,
          "midi": 28,
          "name": "E1",
          "ticks": 64128,
          "time": 227.72721199999998,
          "velocity": 0.5905511811023622
        },
        {
          "duration": 0.33380672916666754,
          "durationTicks": 94,
          "midi": 28,
          "name": "E1",
          "ticks": 64224,
          "time": 228.06812099999996,
          "velocity": 0.5905511811023622
        },
        {
          "duration": 0.33380672916666754,
          "durationTicks": 94,
          "midi": 28,
          "name": "E1",
          "ticks": 64320,
          "time": 228.40902999999997,
          "velocity": 0.5905511811023622
        },
        {
          "duration": 0.3338067291666391,
          "durationTicks": 94,
          "midi": 28,
          "name": "E1",
          "ticks": 64416,
          "time": 228.74993899999998,
          "velocity": 0.5905511811023622
        },
        {
          "duration": 0.33380672916666754,
          "durationTicks": 94,
          "midi": 28,
          "name": "E1",
          "ticks": 64512,
          "time": 229.09084799999997,
          "velocity": 0.5905511811023622
        },
        {
          "duration": 0.3338067291666391,
          "durationTicks": 94,
          "midi": 28,
          "name": "E1",
          "ticks": 64608,
          "time": 229.43175699999998,
          "velocity": 0.5905511811023622
        },
        {
          "duration": 0.3338067291666391,
          "durationTicks": 94,
          "midi": 28,
          "name": "E1",
          "ticks": 64704,
          "time": 229.772666,
          "velocity": 0.5905511811023622
        },
        {
          "duration": 0.33380672916666754,
          "durationTicks": 94,
          "midi": 28,
          "name": "E1",
          "ticks": 64800,
          "time": 230.11357499999997,
          "velocity": 0.5905511811023622
        },
        {
          "duration": 0.3338067291666391,
          "durationTicks": 94,
          "midi": 28,
          "name": "E1",
          "ticks": 64896,
          "time": 230.45448399999998,
          "velocity": 0.5905511811023622
        },
        {
          "duration": 0.33380672916666754,
          "durationTicks": 94,
          "midi": 28,
          "name": "E1",
          "ticks": 64992,
          "time": 230.79539299999996,
          "velocity": 0.5905511811023622
        },
        {
          "duration": 0.33380672916666754,
          "durationTicks": 94,
          "midi": 28,
          "name": "E1",
          "ticks": 65088,
          "time": 231.13630199999997,
          "velocity": 0.5905511811023622
        },
        {
          "duration": 0.3338067291666391,
          "durationTicks": 94,
          "midi": 28,
          "name": "E1",
          "ticks": 65184,
          "time": 231.47721099999998,
          "velocity": 0.5905511811023622
        },
        {
          "duration": 0.33380672916666754,
          "durationTicks": 94,
          "midi": 35,
          "name": "B1",
          "ticks": 65280,
          "time": 231.81811999999996,
          "velocity": 0.5905511811023622
        },
        {
          "duration": 0.3338067291666391,
          "durationTicks": 94,
          "midi": 35,
          "name": "B1",
          "ticks": 65376,
          "time": 232.15902899999998,
          "velocity": 0.5905511811023622
        },
        {
          "duration": 0.3338067291666391,
          "durationTicks": 94,
          "midi": 35,
          "name": "B1",
          "ticks": 65472,
          "time": 232.499938,
          "velocity": 0.5905511811023622
        },
        {
          "duration": 0.33380672916666754,
          "durationTicks": 94,
          "midi": 35,
          "name": "B1",
          "ticks": 65568,
          "time": 232.84084699999997,
          "velocity": 0.5905511811023622
        },
        {
          "duration": 0.3338067291666391,
          "durationTicks": 94,
          "midi": 35,
          "name": "B1",
          "ticks": 65664,
          "time": 233.18175599999998,
          "velocity": 0.5905511811023622
        },
        {
          "duration": 0.33380672916666754,
          "durationTicks": 94,
          "midi": 35,
          "name": "B1",
          "ticks": 65760,
          "time": 233.52266499999996,
          "velocity": 0.5905511811023622
        },
        {
          "duration": 0.33380672916666754,
          "durationTicks": 94,
          "midi": 35,
          "name": "B1",
          "ticks": 65856,
          "time": 233.86357399999997,
          "velocity": 0.5905511811023622
        },
        {
          "duration": 0.3338067291666391,
          "durationTicks": 94,
          "midi": 35,
          "name": "B1",
          "ticks": 65952,
          "time": 234.20448299999998,
          "velocity": 0.5905511811023622
        },
        {
          "duration": 0.33380672916666754,
          "durationTicks": 94,
          "midi": 35,
          "name": "B1",
          "ticks": 66048,
          "time": 234.54539199999996,
          "velocity": 0.5905511811023622
        },
        {
          "duration": 0.3338067291666391,
          "durationTicks": 94,
          "midi": 35,
          "name": "B1",
          "ticks": 66144,
          "time": 234.88630099999997,
          "velocity": 0.5905511811023622
        },
        {
          "duration": 0.3338067291666391,
          "durationTicks": 94,
          "midi": 35,
          "name": "B1",
          "ticks": 66240,
          "time": 235.22720999999999,
          "velocity": 0.5905511811023622
        },
        {
          "duration": 0.33380672916666754,
          "durationTicks": 94,
          "midi": 35,
          "name": "B1",
          "ticks": 66336,
          "time": 235.56811899999997,
          "velocity": 0.5905511811023622
        },
        {
          "duration": 0.3338067291666391,
          "durationTicks": 94,
          "midi": 35,
          "name": "B1",
          "ticks": 66432,
          "time": 235.90902799999998,
          "velocity": 0.5905511811023622
        },
        {
          "duration": 0.33380672916666754,
          "durationTicks": 94,
          "midi": 35,
          "name": "B1",
          "ticks": 66528,
          "time": 236.24993699999996,
          "velocity": 0.5905511811023622
        },
        {
          "duration": 0.33380672916666754,
          "durationTicks": 94,
          "midi": 35,
          "name": "B1",
          "ticks": 66624,
          "time": 236.59084599999997,
          "velocity": 0.5905511811023622
        },
        {
          "duration": 0.3338067291666391,
          "durationTicks": 94,
          "midi": 35,
          "name": "B1",
          "ticks": 66720,
          "time": 236.93175499999998,
          "velocity": 0.5905511811023622
        },
        {
          "duration": 0.33380672916666754,
          "durationTicks": 94,
          "midi": 30,
          "name": "F#1",
          "ticks": 66816,
          "time": 237.27266399999996,
          "velocity": 0.5905511811023622
        },
        {
          "duration": 0.3338067291666391,
          "durationTicks": 94,
          "midi": 30,
          "name": "F#1",
          "ticks": 66912,
          "time": 237.61357299999997,
          "velocity": 0.5905511811023622
        },
        {
          "duration": 0.3338067291666391,
          "durationTicks": 94,
          "midi": 30,
          "name": "F#1",
          "ticks": 67008,
          "time": 237.95448199999998,
          "velocity": 0.5905511811023622
        },
        {
          "duration": 0.33380672916666754,
          "durationTicks": 94,
          "midi": 30,
          "name": "F#1",
          "ticks": 67104,
          "time": 238.29539099999997,
          "velocity": 0.5905511811023622
        },
        {
          "duration": 0.3338067291666391,
          "durationTicks": 94,
          "midi": 30,
          "name": "F#1",
          "ticks": 67200,
          "time": 238.63629999999998,
          "velocity": 0.5905511811023622
        },
        {
          "duration": 0.33380672916666754,
          "durationTicks": 94,
          "midi": 30,
          "name": "F#1",
          "ticks": 67296,
          "time": 238.97720899999996,
          "velocity": 0.5905511811023622
        },
        {
          "duration": 0.33380672916666754,
          "durationTicks": 94,
          "midi": 30,
          "name": "F#1",
          "ticks": 67392,
          "time": 239.31811799999997,
          "velocity": 0.5905511811023622
        },
        {
          "duration": 0.3338067291666391,
          "durationTicks": 94,
          "midi": 30,
          "name": "F#1",
          "ticks": 67488,
          "time": 239.65902699999998,
          "velocity": 0.5905511811023622
        },
        {
          "duration": 0.33380672916666754,
          "durationTicks": 94,
          "midi": 30,
          "name": "F#1",
          "ticks": 67584,
          "time": 239.99993599999996,
          "velocity": 0.5905511811023622
        },
        {
          "duration": 0.33380672916666754,
          "durationTicks": 94,
          "midi": 30,
          "name": "F#1",
          "ticks": 67680,
          "time": 240.34084499999997,
          "velocity": 0.5905511811023622
        },
        {
          "duration": 0.3338067291666391,
          "durationTicks": 94,
          "midi": 30,
          "name": "F#1",
          "ticks": 67776,
          "time": 240.68175399999998,
          "velocity": 0.5905511811023622
        },
        {
          "duration": 0.33380672916666754,
          "durationTicks": 94,
          "midi": 30,
          "name": "F#1",
          "ticks": 67872,
          "time": 241.02266299999997,
          "velocity": 0.5905511811023622
        },
        {
          "duration": 0.3338067291666391,
          "durationTicks": 94,
          "midi": 30,
          "name": "F#1",
          "ticks": 67968,
          "time": 241.36357199999998,
          "velocity": 0.5905511811023622
        },
        {
          "duration": 0.3338067291666391,
          "durationTicks": 94,
          "midi": 30,
          "name": "F#1",
          "ticks": 68064,
          "time": 241.704481,
          "velocity": 0.5905511811023622
        },
        {
          "duration": 0.33380672916666754,
          "durationTicks": 94,
          "midi": 30,
          "name": "F#1",
          "ticks": 68160,
          "time": 242.04538999999997,
          "velocity": 0.5905511811023622
        },
        {
          "duration": 0.3338067291666391,
          "durationTicks": 94,
          "midi": 30,
          "name": "F#1",
          "ticks": 68256,
          "time": 242.38629899999998,
          "velocity": 0.5905511811023622
        },
        {
          "duration": 0.33380672916666754,
          "durationTicks": 94,
          "midi": 28,
          "name": "E1",
          "ticks": 68352,
          "time": 242.72720799999996,
          "velocity": 0.5905511811023622
        },
        {
          "duration": 0.33380672916666754,
          "durationTicks": 94,
          "midi": 28,
          "name": "E1",
          "ticks": 68448,
          "time": 243.06811699999997,
          "velocity": 0.5905511811023622
        },
        {
          "duration": 0.3338067291666391,
          "durationTicks": 94,
          "midi": 28,
          "name": "E1",
          "ticks": 68544,
          "time": 243.40902599999998,
          "velocity": 0.5905511811023622
        },
        {
          "duration": 0.33380672916666754,
          "durationTicks": 94,
          "midi": 28,
          "name": "E1",
          "ticks": 68640,
          "time": 243.74993499999997,
          "velocity": 0.5905511811023622
        },
        {
          "duration": 0.3338067291666391,
          "durationTicks": 94,
          "midi": 28,
          "name": "E1",
          "ticks": 68736,
          "time": 244.09084399999998,
          "velocity": 0.5905511811023622
        },
        {
          "duration": 0.3338067291666391,
          "durationTicks": 94,
          "midi": 28,
          "name": "E1",
          "ticks": 68832,
          "time": 244.431753,
          "velocity": 0.5905511811023622
        },
        {
          "duration": 0.33380672916666754,
          "durationTicks": 94,
          "midi": 28,
          "name": "E1",
          "ticks": 68928,
          "time": 244.77266199999997,
          "velocity": 0.5905511811023622
        },
        {
          "duration": 0.3338067291666391,
          "durationTicks": 94,
          "midi": 28,
          "name": "E1",
          "ticks": 69024,
          "time": 245.11357099999998,
          "velocity": 0.5905511811023622
        },
        {
          "duration": 0.33380672916666754,
          "durationTicks": 94,
          "midi": 28,
          "name": "E1",
          "ticks": 69120,
          "time": 245.45447999999996,
          "velocity": 0.5905511811023622
        },
        {
          "duration": 0.33380672916666754,
          "durationTicks": 94,
          "midi": 28,
          "name": "E1",
          "ticks": 69216,
          "time": 245.79538899999997,
          "velocity": 0.5905511811023622
        },
        {
          "duration": 0.3338067291666391,
          "durationTicks": 94,
          "midi": 28,
          "name": "E1",
          "ticks": 69312,
          "time": 246.13629799999998,
          "velocity": 0.5905511811023622
        },
        {
          "duration": 0.33380672916666754,
          "durationTicks": 94,
          "midi": 28,
          "name": "E1",
          "ticks": 69408,
          "time": 246.47720699999996,
          "velocity": 0.5905511811023622
        },
        {
          "duration": 0.3338067291666391,
          "durationTicks": 94,
          "midi": 28,
          "name": "E1",
          "ticks": 69504,
          "time": 246.81811599999997,
          "velocity": 0.5905511811023622
        },
        {
          "duration": 0.3338067291666391,
          "durationTicks": 94,
          "midi": 28,
          "name": "E1",
          "ticks": 69600,
          "time": 247.15902499999999,
          "velocity": 0.5905511811023622
        },
        {
          "duration": 0.33380672916666754,
          "durationTicks": 94,
          "midi": 28,
          "name": "E1",
          "ticks": 69696,
          "time": 247.49993399999997,
          "velocity": 0.5905511811023622
        },
        {
          "duration": 0.3338067291666391,
          "durationTicks": 94,
          "midi": 28,
          "name": "E1",
          "ticks": 69792,
          "time": 247.84084299999998,
          "velocity": 0.5905511811023622
        },
        {
          "duration": 5.284089500000022,
          "durationTicks": 1488,
          "midi": 35,
          "name": "B1",
          "ticks": 69888,
          "time": 248.18175199999996,
          "velocity": 0.5905511811023622
        },
        {
          "duration": 5.284089499999993,
          "durationTicks": 1488,
          "midi": 30,
          "name": "F#1",
          "ticks": 71424,
          "time": 253.63629599999996,
          "velocity": 0.5905511811023622
        },
        {
          "duration": 5.284089499999993,
          "durationTicks": 1488,
          "midi": 28,
          "name": "E1",
          "ticks": 72960,
          "time": 259.09083999999996,
          "velocity": 0.5905511811023622
        }
      ],
      "endOfTrackTicks": 74448
    },
    {
      "channel": 2,
      "controlChanges": {
        "7": [
          {
            "number": 7,
            "ticks": 0,
            "time": 0,
            "value": 1
          },
          {
            "number": 7,
            "ticks": 0,
            "time": 0,
            "value": 1
          }
        ],
        "10": [
          {
            "number": 10,
            "ticks": 0,
            "time": 0,
            "value": 0.5039370078740157
          },
          {
            "number": 10,
            "ticks": 0,
            "time": 0,
            "value": 0.5039370078740157
          }
        ]
      },
      "pitchBends": [],
      "instrument": {
        "family": "guitar",
        "number": 30,
        "name": "distortion guitar"
      },
      "name": " ",
      "notes": [
        {
          "duration": 0.5681816666666659,
          "durationTicks": 160,
          "midi": 66,
          "name": "F#4",
          "ticks": 3840,
          "time": 13.636359999999998,
          "velocity": 0.5905511811023622
        },
        {
          "duration": 0.33380672916666576,
          "durationTicks": 94,
          "midi": 66,
          "name": "F#4",
          "ticks": 4032,
          "time": 14.318177999999998,
          "velocity": 0.5905511811023622
        },
        {
          "duration": 0.33380672916666576,
          "durationTicks": 94,
          "midi": 66,
          "name": "F#4",
          "ticks": 4128,
          "time": 14.659086999999998,
          "velocity": 0.5905511811023622
        },
        {
          "duration": 0.33380672916666576,
          "durationTicks": 94,
          "midi": 66,
          "name": "F#4",
          "ticks": 4224,
          "time": 14.999995999999998,
          "velocity": 0.5905511811023622
        },
        {
          "duration": 0.33380672916666576,
          "durationTicks": 94,
          "midi": 66,
          "name": "F#4",
          "ticks": 4320,
          "time": 15.340904999999998,
          "velocity": 0.5905511811023622
        },
        {
          "duration": 0.33380672916666576,
          "durationTicks": 94,
          "midi": 66,
          "name": "F#4",
          "ticks": 4416,
          "time": 15.681813999999997,
          "velocity": 0.5905511811023622
        },
        {
          "duration": 0.333806729166664,
          "durationTicks": 94,
          "midi": 66,
          "name": "F#4",
          "ticks": 4512,
          "time": 16.022723,
          "velocity": 0.5905511811023622
        },
        {
          "duration": 0.333806729166664,
          "durationTicks": 94,
          "midi": 66,
          "name": "F#4",
          "ticks": 4608,
          "time": 16.363632,
          "velocity": 0.5905511811023622
        },
        {
          "duration": 0.333806729166664,
          "durationTicks": 94,
          "midi": 64,
          "name": "E4",
          "ticks": 4704,
          "time": 16.704541,
          "velocity": 0.5905511811023622
        },
        {
          "duration": 0.333806729166664,
          "durationTicks": 94,
          "midi": 64,
          "name": "E4",
          "ticks": 4800,
          "time": 17.04545,
          "velocity": 0.5905511811023622
        },
        {
          "duration": 0.333806729166664,
          "durationTicks": 94,
          "midi": 64,
          "name": "E4",
          "ticks": 4896,
          "time": 17.386359,
          "velocity": 0.5905511811023622
        },
        {
          "duration": 0.333806729166664,
          "durationTicks": 94,
          "midi": 64,
          "name": "E4",
          "ticks": 4992,
          "time": 17.727268,
          "velocity": 0.5905511811023622
        },
        {
          "duration": 0.333806729166664,
          "durationTicks": 94,
          "midi": 64,
          "name": "E4",
          "ticks": 5088,
          "time": 18.068177,
          "velocity": 0.5905511811023622
        },
        {
          "duration": 0.333806729166664,
          "durationTicks": 94,
          "midi": 64,
          "name": "E4",
          "ticks": 5184,
          "time": 18.409086,
          "velocity": 0.5905511811023622
        },
        {
          "duration": 0.333806729166664,
          "durationTicks": 94,
          "midi": 64,
          "name": "E4",
          "ticks": 5280,
          "time": 18.749995,
          "velocity": 0.5905511811023622
        },
        {
          "duration": 0.333806729166664,
          "durationTicks": 94,
          "midi": 71,
          "name": "B4",
          "ticks": 5376,
          "time": 19.090904,
          "velocity": 0.5905511811023622
        },
        {
          "duration": 0.333806729166664,
          "durationTicks": 94,
          "midi": 70,
          "name": "A#4",
          "ticks": 5472,
          "time": 19.431813,
          "velocity": 0.5905511811023622
        },
        {
          "duration": 0.333806729166664,
          "durationTicks": 94,
          "midi": 70,
          "name": "A#4",
          "ticks": 5568,
          "time": 19.772721999999998,
          "velocity": 0.5905511811023622
        },
        {
          "duration": 0.333806729166664,
          "durationTicks": 94,
          "midi": 70,
          "name": "A#4",
          "ticks": 5664,
          "time": 20.113630999999998,
          "velocity": 0.5905511811023622
        },
        {
          "duration": 0.333806729166664,
          "durationTicks": 94,
          "midi": 70,
          "name": "A#4",
          "ticks": 5760,
          "time": 20.454539999999998,
          "velocity": 0.5905511811023622
        },
        {
          "duration": 0.333806729166664,
          "durationTicks": 94,
          "midi": 70,
          "name": "A#4",
          "ticks": 5856,
          "time": 20.795448999999998,
          "velocity": 0.5905511811023622
        },
        {
          "duration": 0.333806729166664,
          "durationTicks": 94,
          "midi": 70,
          "name": "A#4",
          "ticks": 5952,
          "time": 21.136357999999998,
          "velocity": 0.5905511811023622
        },
        {
          "duration": 0.33380672916666754,
          "durationTicks": 94,
          "midi": 70,
          "name": "A#4",
          "ticks": 6048,
          "time": 21.477266999999998,
          "velocity": 0.5905511811023622
        },
        {
          "duration": 0.33380672916666754,
          "durationTicks": 94,
          "midi": 70,
          "name": "A#4",
          "ticks": 6144,
          "time": 21.818175999999998,
          "velocity": 0.5905511811023622
        },
        {
          "duration": 0.33380672916666754,
          "durationTicks": 94,
          "midi": 68,
          "name": "G#4",
          "ticks": 6240,
          "time": 22.159084999999997,
          "velocity": 0.5905511811023622
        },
        {
          "duration": 0.33380672916666754,
          "durationTicks": 94,
          "midi": 68,
          "name": "G#4",
          "ticks": 6336,
          "time": 22.499993999999997,
          "velocity": 0.5905511811023622
        },
        {
          "duration": 0.33380672916666754,
          "durationTicks": 94,
          "midi": 68,
          "name": "G#4",
          "ticks": 6432,
          "time": 22.840902999999997,
          "velocity": 0.5905511811023622
        },
        {
          "duration": 0.33380672916666754,
          "durationTicks": 94,
          "midi": 68,
          "name": "G#4",
          "ticks": 6528,
          "time": 23.181811999999997,
          "velocity": 0.5905511811023622
        },
        {
          "duration": 0.33380672916666754,
          "durationTicks": 94,
          "midi": 68,
          "name": "G#4",
          "ticks": 6624,
          "time": 23.522720999999997,
          "velocity": 0.5905511811023622
        },
        {
          "duration": 0.33380672916666754,
          "durationTicks": 94,
          "midi": 68,
          "name": "G#4",
          "ticks": 6720,
          "time": 23.863629999999997,
          "velocity": 0.5905511811023622
        },
        {
          "duration": 0.33380672916666754,
          "durationTicks": 94,
          "midi": 68,
          "name": "G#4",
          "ticks": 6816,
          "time": 24.204538999999997,
          "velocity": 0.5905511811023622
        },
        {
          "duration": 0.33380672916666754,
          "durationTicks": 94,
          "midi": 61,
          "name": "C#4",
          "ticks": 6912,
          "time": 24.545447999999997,
          "velocity": 0.5905511811023622
        },
        {
          "duration": 0.33380672916666754,
          "durationTicks": 94,
          "midi": 61,
          "name": "C#4",
          "ticks": 7008,
          "time": 24.886356999999997,
          "velocity": 0.5905511811023622
        },
        {
          "duration": 0.33380672916666754,
          "durationTicks": 94,
          "midi": 61,
          "name": "C#4",
          "ticks": 7104,
          "time": 25.227265999999997,
          "velocity": 0.5905511811023622
        },
        {
          "duration": 0.33380672916666754,
          "durationTicks": 94,
          "midi": 61,
          "name": "C#4",
          "ticks": 7200,
          "time": 25.568174999999997,
          "velocity": 0.5905511811023622
        },
        {
          "duration": 0.33380672916666754,
          "durationTicks": 94,
          "midi": 61,
          "name": "C#4",
          "ticks": 7296,
          "time": 25.909083999999996,
          "velocity": 0.5905511811023622
        },
        {
          "duration": 0.33380672916666754,
          "durationTicks": 94,
          "midi": 61,
          "name": "C#4",
          "ticks": 7392,
          "time": 26.249992999999996,
          "velocity": 0.5905511811023622
        },
        {
          "duration": 0.33380672916666754,
          "durationTicks": 94,
          "midi": 61,
          "name": "C#4",
          "ticks": 7488,
          "time": 26.590901999999996,
          "velocity": 0.5905511811023622
        },
        {
          "duration": 0.33380672916666754,
          "durationTicks": 94,
          "midi": 61,
          "name": "C#4",
          "ticks": 7584,
          "time": 26.931810999999996,
          "velocity": 0.5905511811023622
        },
        {
          "duration": 0.33380672916666754,
          "durationTicks": 94,
          "midi": 61,
          "name": "C#4",
          "ticks": 7680,
          "time": 27.272719999999996,
          "velocity": 0.5905511811023622
        },
        {
          "duration": 0.33380672916666754,
          "durationTicks": 94,
          "midi": 59,
          "name": "B3",
          "ticks": 7776,
          "time": 27.613628999999996,
          "velocity": 0.5905511811023622
        },
        {
          "duration": 0.33380672916666754,
          "durationTicks": 94,
          "midi": 59,
          "name": "B3",
          "ticks": 7872,
          "time": 27.954537999999996,
          "velocity": 0.5905511811023622
        },
        {
          "duration": 0.33380672916666754,
          "durationTicks": 94,
          "midi": 59,
          "name": "B3",
          "ticks": 7968,
          "time": 28.295446999999996,
          "velocity": 0.5905511811023622
        },
        {
          "duration": 0.3338067291666711,
          "durationTicks": 94,
          "midi": 59,
          "name": "B3",
          "ticks": 8064,
          "time": 28.636355999999996,
          "velocity": 0.5905511811023622
        },
        {
          "duration": 0.3338067291666711,
          "durationTicks": 94,
          "midi": 59,
          "name": "B3",
          "ticks": 8160,
          "time": 28.977264999999996,
          "velocity": 0.5905511811023622
        },
        {
          "duration": 0.3338067291666711,
          "durationTicks": 94,
          "midi": 59,
          "name": "B3",
          "ticks": 8256,
          "time": 29.318173999999996,
          "velocity": 0.5905511811023622
        },
        {
          "duration": 0.3338067291666711,
          "durationTicks": 94,
          "midi": 59,
          "name": "B3",
          "ticks": 8352,
          "time": 29.659082999999995,
          "velocity": 0.5905511811023622
        },
        {
          "duration": 0.3338067291666711,
          "durationTicks": 94,
          "midi": 66,
          "name": "F#4",
          "ticks": 8448,
          "time": 29.999991999999995,
          "velocity": 0.5905511811023622
        },
        {
          "duration": 0.3338067291666711,
          "durationTicks": 94,
          "midi": 66,
          "name": "F#4",
          "ticks": 8544,
          "time": 30.340900999999995,
          "velocity": 0.5905511811023622
        },
        {
          "duration": 0.3338067291666711,
          "durationTicks": 94,
          "midi": 66,
          "name": "F#4",
          "ticks": 8640,
          "time": 30.681809999999995,
          "velocity": 0.5905511811023622
        },
        {
          "duration": 0.3338067291666711,
          "durationTicks": 94,
          "midi": 66,
          "name": "F#4",
          "ticks": 8736,
          "time": 31.022718999999995,
          "velocity": 0.5905511811023622
        },
        {
          "duration": 0.3338067291666711,
          "durationTicks": 94,
          "midi": 66,
          "name": "F#4",
          "ticks": 8832,
          "time": 31.363627999999995,
          "velocity": 0.5905511811023622
        },
        {
          "duration": 0.33380672916666754,
          "durationTicks": 94,
          "midi": 66,
          "name": "F#4",
          "ticks": 8928,
          "time": 31.704536999999995,
          "velocity": 0.5905511811023622
        },
        {
          "duration": 0.33380672916666754,
          "durationTicks": 94,
          "midi": 66,
          "name": "F#4",
          "ticks": 9024,
          "time": 32.045446,
          "velocity": 0.5905511811023622
        },
        {
          "duration": 0.33380672916666754,
          "durationTicks": 94,
          "midi": 66,
          "name": "F#4",
          "ticks": 9120,
          "time": 32.386354999999995,
          "velocity": 0.5905511811023622
        },
        {
          "duration": 0.33380672916666754,
          "durationTicks": 94,
          "midi": 66,
          "name": "F#4",
          "ticks": 9216,
          "time": 32.727264,
          "velocity": 0.5905511811023622
        },
        {
          "duration": 0.33380672916666754,
          "durationTicks": 94,
          "midi": 64,
          "name": "E4",
          "ticks": 9312,
          "time": 33.068172999999994,
          "velocity": 0.5905511811023622
        },
        {
          "duration": 0.33380672916666754,
          "durationTicks": 94,
          "midi": 64,
          "name": "E4",
          "ticks": 9408,
          "time": 33.409082,
          "velocity": 0.5905511811023622
        },
        {
          "duration": 0.33380672916666754,
          "durationTicks": 94,
          "midi": 64,
          "name": "E4",
          "ticks": 9504,
          "time": 33.749990999999994,
          "velocity": 0.5905511811023622
        },
        {
          "duration": 0.33380672916666754,
          "durationTicks": 94,
          "midi": 64,
          "name": "E4",
          "ticks": 9600,
          "time": 34.0909,
          "velocity": 0.5905511811023622
        },
        {
          "duration": 0.33380672916666754,
          "durationTicks": 94,
          "midi": 64,
          "name": "E4",
          "ticks": 9696,
          "time": 34.431808999999994,
          "velocity": 0.5905511811023622
        },
        {
          "duration": 0.33380672916666754,
          "durationTicks": 94,
          "midi": 64,
          "name": "E4",
          "ticks": 9792,
          "time": 34.772718,
          "velocity": 0.5905511811023622
        },
        {
          "duration": 0.33380672916666754,
          "durationTicks": 94,
          "midi": 64,
          "name": "E4",
          "ticks": 9888,
          "time": 35.113626999999994,
          "velocity": 0.5905511811023622
        },
        {
          "duration": 2.556817500000001,
          "durationTicks": 720,
          "midi": 63,
          "name": "D#4",
          "ticks": 9984,
          "time": 35.454536,
          "velocity": 0.5905511811023622
        },
        {
          "duration": 0.5681816666666748,
          "durationTicks": 160,
          "midi": 66,
          "name": "F#4",
          "ticks": 31488,
          "time": 111.81815199999998,
          "velocity": 0.5905511811023622
        },
        {
          "duration": 0.33380672916666754,
          "durationTicks": 94,
          "midi": 66,
          "name": "F#4",
          "ticks": 31680,
          "time": 112.49996999999999,
          "velocity": 0.5905511811023622
        },
        {
          "duration": 0.33380672916666754,
          "durationTicks": 94,
          "midi": 66,
          "name": "F#4",
          "ticks": 31776,
          "time": 112.84087899999999,
          "velocity": 0.5905511811023622
        },
        {
          "duration": 0.33380672916668175,
          "durationTicks": 94,
          "midi": 66,
          "name": "F#4",
          "ticks": 31872,
          "time": 113.18178799999998,
          "velocity": 0.5905511811023622
        },
        {
          "duration": 0.33380672916666754,
          "durationTicks": 94,
          "midi": 66,
          "name": "F#4",
          "ticks": 31968,
          "time": 113.522697,
          "velocity": 0.5905511811023622
        },
        {
          "duration": 0.33380672916666754,
          "durationTicks": 94,
          "midi": 66,
          "name": "F#4",
          "ticks": 32064,
          "time": 113.86360599999999,
          "velocity": 0.5905511811023622
        },
        {
          "duration": 0.33380672916666754,
          "durationTicks": 94,
          "midi": 66,
          "name": "F#4",
          "ticks": 32160,
          "time": 114.20451499999999,
          "velocity": 0.5905511811023622
        },
        {
          "duration": 0.33380672916668175,
          "durationTicks": 94,
          "midi": 66,
          "name": "F#4",
          "ticks": 32256,
          "time": 114.54542399999998,
          "velocity": 0.5905511811023622
        },
        {
          "duration": 0.33380672916666754,
          "durationTicks": 94,
          "midi": 64,
          "name": "E4",
          "ticks": 32352,
          "time": 114.886333,
          "velocity": 0.5905511811023622
        },
        {
          "duration": 0.33380672916666754,
          "durationTicks": 94,
          "midi": 64,
          "name": "E4",
          "ticks": 32448,
          "time": 115.22724199999999,
          "velocity": 0.5905511811023622
        },
        {
          "duration": 0.33380672916666754,
          "durationTicks": 94,
          "midi": 64,
          "name": "E4",
          "ticks": 32544,
          "time": 115.56815099999999,
          "velocity": 0.5905511811023622
        },
        {
          "duration": 0.33380672916668175,
          "durationTicks": 94,
          "midi": 64,
          "name": "E4",
          "ticks": 32640,
          "time": 115.90905999999998,
          "velocity": 0.5905511811023622
        },
        {
          "duration": 0.33380672916666754,
          "durationTicks": 94,
          "midi": 64,
          "name": "E4",
          "ticks": 32736,
          "time": 116.249969,
          "velocity": 0.5905511811023622
        },
        {
          "duration": 0.33380672916666754,
          "durationTicks": 94,
          "midi": 64,
          "name": "E4",
          "ticks": 32832,
          "time": 116.59087799999999,
          "velocity": 0.5905511811023622
        },
        {
          "duration": 0.33380672916666754,
          "durationTicks": 94,
          "midi": 64,
          "name": "E4",
          "ticks": 32928,
          "time": 116.93178699999999,
          "velocity": 0.5905511811023622
        },
        {
          "duration": 0.33380672916668175,
          "durationTicks": 94,
          "midi": 71,
          "name": "B4",
          "ticks": 33024,
          "time": 117.27269599999998,
          "velocity": 0.5905511811023622
        },
        {
          "duration": 0.33380672916666754,
          "durationTicks": 94,
          "midi": 70,
          "name": "A#4",
          "ticks": 33120,
          "time": 117.61360499999999,
          "velocity": 0.5905511811023622
        },
        {
          "duration": 0.33380672916666754,
          "durationTicks": 94,
          "midi": 70,
          "name": "A#4",
          "ticks": 33216,
          "time": 117.95451399999999,
          "velocity": 0.5905511811023622
        },
        {
          "duration": 0.33380672916666754,
          "durationTicks": 94,
          "midi": 70,
          "name": "A#4",
          "ticks": 33312,
          "time": 118.29542299999999,
          "velocity": 0.5905511811023622
        },
        {
          "duration": 0.33380672916668175,
          "durationTicks": 94,
          "midi": 70,
          "name": "A#4",
          "ticks": 33408,
          "time": 118.63633199999998,
          "velocity": 0.5905511811023622
        },
        {
          "duration": 0.33380672916666754,
          "durationTicks": 94,
          "midi": 70,
          "name": "A#4",
          "ticks": 33504,
          "time": 118.97724099999999,
          "velocity": 0.5905511811023622
        },
        {
          "duration": 0.33380672916666754,
          "durationTicks": 94,
          "midi": 70,
          "name": "A#4",
          "ticks": 33600,
          "time": 119.31814999999999,
          "velocity": 0.5905511811023622
        },
        {
          "duration": 0.33380672916668175,
          "durationTicks": 94,
          "midi": 70,
          "name": "A#4",
          "ticks": 33696,
          "time": 119.65905899999998,
          "velocity": 0.5905511811023622
        },
        {
          "duration": 0.33380672916668175,
          "durationTicks": 94,
          "midi": 70,
          "name": "A#4",
          "ticks": 33792,
          "time": 119.99996799999998,
          "velocity": 0.5905511811023622
        },
        {
          "duration": 0.33380672916666754,
          "durationTicks": 94,
          "midi": 68,
          "name": "G#4",
          "ticks": 33888,
          "time": 120.34087699999999,
          "velocity": 0.5905511811023622
        },
        {
          "duration": 0.33380672916666754,
          "durationTicks": 94,
          "midi": 68,
          "name": "G#4",
          "ticks": 33984,
          "time": 120.68178599999999,
          "velocity": 0.5905511811023622
        },
        {
          "duration": 0.33380672916668175,
          "durationTicks": 94,
          "midi": 68,
          "name": "G#4",
          "ticks": 34080,
          "time": 121.02269499999998,
          "velocity": 0.5905511811023622
        },
        {
          "duration": 0.33380672916668175,
          "durationTicks": 94,
          "midi": 68,
          "name": "G#4",
          "ticks": 34176,
          "time": 121.36360399999998,
          "velocity": 0.5905511811023622
        },
        {
          "duration": 0.33380672916666754,
          "durationTicks": 94,
          "midi": 68,
          "name": "G#4",
          "ticks": 34272,
          "time": 121.70451299999999,
          "velocity": 0.5905511811023622
        },
        {
          "duration": 0.33380672916666754,
          "durationTicks": 94,
          "midi": 68,
          "name": "G#4",
          "ticks": 34368,
          "time": 122.04542199999999,
          "velocity": 0.5905511811023622
        },
        {
          "duration": 0.33380672916668175,
          "durationTicks": 94,
          "midi": 68,
          "name": "G#4",
          "ticks": 34464,
          "time": 122.38633099999998,
          "velocity": 0.5905511811023622
        },
        {
          "duration": 0.33380672916668175,
          "durationTicks": 94,
          "midi": 61,
          "name": "C#4",
          "ticks": 34560,
          "time": 122.72723999999998,
          "velocity": 0.5905511811023622
        },
        {
          "duration": 0.33380672916666754,
          "durationTicks": 94,
          "midi": 61,
          "name": "C#4",
          "ticks": 34656,
          "time": 123.06814899999999,
          "velocity": 0.5905511811023622
        },
        {
          "duration": 0.33380672916666754,
          "durationTicks": 94,
          "midi": 61,
          "name": "C#4",
          "ticks": 34752,
          "time": 123.40905799999999,
          "velocity": 0.5905511811023622
        },
        {
          "duration": 0.33380672916668175,
          "durationTicks": 94,
          "midi": 61,
          "name": "C#4",
          "ticks": 34848,
          "time": 123.74996699999998,
          "velocity": 0.5905511811023622
        },
        {
          "duration": 0.33380672916668175,
          "durationTicks": 94,
          "midi": 61,
          "name": "C#4",
          "ticks": 34944,
          "time": 124.09087599999998,
          "velocity": 0.5905511811023622
        },
        {
          "duration": 0.33380672916666754,
          "durationTicks": 94,
          "midi": 61,
          "name": "C#4",
          "ticks": 35040,
          "time": 124.43178499999999,
          "velocity": 0.5905511811023622
        },
        {
          "duration": 0.33380672916666754,
          "durationTicks": 94,
          "midi": 61,
          "name": "C#4",
          "ticks": 35136,
          "time": 124.77269399999999,
          "velocity": 0.5905511811023622
        },
        {
          "duration": 0.33380672916668175,
          "durationTicks": 94,
          "midi": 61,
          "name": "C#4",
          "ticks": 35232,
          "time": 125.11360299999998,
          "velocity": 0.5905511811023622
        },
        {
          "duration": 0.33380672916668175,
          "durationTicks": 94,
          "midi": 61,
          "name": "C#4",
          "ticks": 35328,
          "time": 125.45451199999998,
          "velocity": 0.5905511811023622
        },
        {
          "duration": 0.33380672916666754,
          "durationTicks": 94,
          "midi": 59,
          "name": "B3",
          "ticks": 35424,
          "time": 125.79542099999999,
          "velocity": 0.5905511811023622
        },
        {
          "duration": 0.33380672916666754,
          "durationTicks": 94,
          "midi": 59,
          "name": "B3",
          "ticks": 35520,
          "time": 126.13632999999999,
          "velocity": 0.5905511811023622
        },
        {
          "duration": 0.33380672916668175,
          "durationTicks": 94,
          "midi": 59,
          "name": "B3",
          "ticks": 35616,
          "time": 126.47723899999998,
          "velocity": 0.5905511811023622
        },
        {
          "duration": 0.33380672916668175,
          "durationTicks": 94,
          "midi": 59,
          "name": "B3",
          "ticks": 35712,
          "time": 126.81814799999998,
          "velocity": 0.5905511811023622
        },
        {
          "duration": 0.33380672916666754,
          "durationTicks": 94,
          "midi": 59,
          "name": "B3",
          "ticks": 35808,
          "time": 127.15905699999999,
          "velocity": 0.5905511811023622
        },
        {
          "duration": 0.33380672916666754,
          "durationTicks": 94,
          "midi": 59,
          "name": "B3",
          "ticks": 35904,
          "time": 127.49996599999999,
          "velocity": 0.5905511811023622
        },
        {
          "duration": 0.33380672916666754,
          "durationTicks": 94,
          "midi": 59,
          "name": "B3",
          "ticks": 36000,
          "time": 127.84087499999998,
          "velocity": 0.5905511811023622
        },
        {
          "duration": 0.33380672916666754,
          "durationTicks": 94,
          "midi": 66,
          "name": "F#4",
          "ticks": 36096,
          "time": 128.181784,
          "velocity": 0.5905511811023622
        },
        {
          "duration": 0.33380672916669596,
          "durationTicks": 94,
          "midi": 66,
          "name": "F#4",
          "ticks": 36192,
          "time": 128.52269299999998,
          "velocity": 0.5905511811023622
        },
        {
          "duration": 0.33380672916666754,
          "durationTicks": 94,
          "midi": 66,
          "name": "F#4",
          "ticks": 36288,
          "time": 128.863602,
          "velocity": 0.5905511811023622
        },
        {
          "duration": 0.33380672916666754,
          "durationTicks": 94,
          "midi": 66,
          "name": "F#4",
          "ticks": 36384,
          "time": 129.204511,
          "velocity": 0.5905511811023622
        },
        {
          "duration": 0.33380672916666754,
          "durationTicks": 94,
          "midi": 66,
          "name": "F#4",
          "ticks": 36480,
          "time": 129.54541999999998,
          "velocity": 0.5905511811023622
        },
        {
          "duration": 0.33380672916666754,
          "durationTicks": 94,
          "midi": 66,
          "name": "F#4",
          "ticks": 36576,
          "time": 129.886329,
          "velocity": 0.5905511811023622
        },
        {
          "duration": 0.33380672916669596,
          "durationTicks": 94,
          "midi": 66,
          "name": "F#4",
          "ticks": 36672,
          "time": 130.22723799999997,
          "velocity": 0.5905511811023622
        },
        {
          "duration": 0.33380672916666754,
          "durationTicks": 94,
          "midi": 66,
          "name": "F#4",
          "ticks": 36768,
          "time": 130.56814699999998,
          "velocity": 0.5905511811023622
        },
        {
          "duration": 0.33380672916666754,
          "durationTicks": 94,
          "midi": 66,
          "name": "F#4",
          "ticks": 36864,
          "time": 130.909056,
          "velocity": 0.5905511811023622
        },
        {
          "duration": 0.33380672916669596,
          "durationTicks": 94,
          "midi": 64,
          "name": "E4",
          "ticks": 36960,
          "time": 131.24996499999997,
          "velocity": 0.5905511811023622
        },
        {
          "duration": 0.33380672916666754,
          "durationTicks": 94,
          "midi": 64,
          "name": "E4",
          "ticks": 37056,
          "time": 131.59087399999999,
          "velocity": 0.5905511811023622
        },
        {
          "duration": 0.33380672916666754,
          "durationTicks": 94,
          "midi": 64,
          "name": "E4",
          "ticks": 37152,
          "time": 131.931783,
          "velocity": 0.5905511811023622
        },
        {
          "duration": 0.33380672916666754,
          "durationTicks": 94,
          "midi": 64,
          "name": "E4",
          "ticks": 37248,
          "time": 132.27269199999998,
          "velocity": 0.5905511811023622
        },
        {
          "duration": 0.33380672916666754,
          "durationTicks": 94,
          "midi": 64,
          "name": "E4",
          "ticks": 37344,
          "time": 132.613601,
          "velocity": 0.5905511811023622
        },
        {
          "duration": 0.33380672916666754,
          "durationTicks": 94,
          "midi": 64,
          "name": "E4",
          "ticks": 37440,
          "time": 132.95451,
          "velocity": 0.5905511811023622
        },
        {
          "duration": 0.33380672916666754,
          "durationTicks": 94,
          "midi": 64,
          "name": "E4",
          "ticks": 37536,
          "time": 133.29541899999998,
          "velocity": 0.5905511811023622
        },
        {
          "duration": 2.556817499999994,
          "durationTicks": 720,
          "midi": 63,
          "name": "D#4",
          "ticks": 37632,
          "time": 133.636328,
          "velocity": 0.5905511811023622
        },
        {
          "duration": 0.5681816666666464,
          "durationTicks": 160,
          "midi": 66,
          "name": "F#4",
          "ticks": 54528,
          "time": 193.63631199999998,
          "velocity": 0.5905511811023622
        },
        {
          "duration": 0.33380672916666754,
          "durationTicks": 94,
          "midi": 66,
          "name": "F#4",
          "ticks": 54720,
          "time": 194.31812999999997,
          "velocity": 0.5905511811023622
        },
        {
          "duration": 0.33380672916666754,
          "durationTicks": 94,
          "midi": 66,
          "name": "F#4",
          "ticks": 54816,
          "time": 194.65903899999998,
          "velocity": 0.5905511811023622
        },
        {
          "duration": 0.3338067291666391,
          "durationTicks": 94,
          "midi": 66,
          "name": "F#4",
          "ticks": 54912,
          "time": 194.999948,
          "velocity": 0.5905511811023622
        },
        {
          "duration": 0.33380672916666754,
          "durationTicks": 94,
          "midi": 66,
          "name": "F#4",
          "ticks": 55008,
          "time": 195.34085699999997,
          "velocity": 0.5905511811023622
        },
        {
          "duration": 0.3338067291666391,
          "durationTicks": 94,
          "midi": 66,
          "name": "F#4",
          "ticks": 55104,
          "time": 195.68176599999998,
          "velocity": 0.5905511811023622
        },
        {
          "duration": 0.33380672916666754,
          "durationTicks": 94,
          "midi": 66,
          "name": "F#4",
          "ticks": 55200,
          "time": 196.02267499999996,
          "velocity": 0.5905511811023622
        },
        {
          "duration": 0.33380672916666754,
          "durationTicks": 94,
          "midi": 66,
          "name": "F#4",
          "ticks": 55296,
          "time": 196.36358399999997,
          "velocity": 0.5905511811023622
        },
        {
          "duration": 0.3338067291666391,
          "durationTicks": 94,
          "midi": 64,
          "name": "E4",
          "ticks": 55392,
          "time": 196.70449299999999,
          "velocity": 0.5905511811023622
        },
        {
          "duration": 0.33380672916666754,
          "durationTicks": 94,
          "midi": 64,
          "name": "E4",
          "ticks": 55488,
          "time": 197.04540199999997,
          "velocity": 0.5905511811023622
        },
        {
          "duration": 0.33380672916666754,
          "durationTicks": 94,
          "midi": 64,
          "name": "E4",
          "ticks": 55584,
          "time": 197.38631099999998,
          "velocity": 0.5905511811023622
        },
        {
          "duration": 0.3338067291666391,
          "durationTicks": 94,
          "midi": 64,
          "name": "E4",
          "ticks": 55680,
          "time": 197.72722,
          "velocity": 0.5905511811023622
        },
        {
          "duration": 0.33380672916666754,
          "durationTicks": 94,
          "midi": 64,
          "name": "E4",
          "ticks": 55776,
          "time": 198.06812899999997,
          "velocity": 0.5905511811023622
        },
        {
          "duration": 0.3338067291666391,
          "durationTicks": 94,
          "midi": 64,
          "name": "E4",
          "ticks": 55872,
          "time": 198.40903799999998,
          "velocity": 0.5905511811023622
        },
        {
          "duration": 0.3338067291666391,
          "durationTicks": 94,
          "midi": 64,
          "name": "E4",
          "ticks": 55968,
          "time": 198.749947,
          "velocity": 0.5905511811023622
        },
        {
          "duration": 0.33380672916666754,
          "durationTicks": 94,
          "midi": 71,
          "name": "B4",
          "ticks": 56064,
          "time": 199.09085599999997,
          "velocity": 0.5905511811023622
        },
        {
          "duration": 0.3338067291666391,
          "durationTicks": 94,
          "midi": 70,
          "name": "A#4",
          "ticks": 56160,
          "time": 199.43176499999998,
          "velocity": 0.5905511811023622
        },
        {
          "duration": 0.33380672916666754,
          "durationTicks": 94,
          "midi": 70,
          "name": "A#4",
          "ticks": 56256,
          "time": 199.77267399999997,
          "velocity": 0.5905511811023622
        },
        {
          "duration": 0.33380672916666754,
          "durationTicks": 94,
          "midi": 70,
          "name": "A#4",
          "ticks": 56352,
          "time": 200.11358299999998,
          "velocity": 0.5905511811023622
        },
        {
          "duration": 0.3338067291666391,
          "durationTicks": 94,
          "midi": 70,
          "name": "A#4",
          "ticks": 56448,
          "time": 200.454492,
          "velocity": 0.5905511811023622
        },
        {
          "duration": 0.33380672916666754,
          "durationTicks": 94,
          "midi": 70,
          "name": "A#4",
          "ticks": 56544,
          "time": 200.79540099999997,
          "velocity": 0.5905511811023622
        },
        {
          "duration": 0.3338067291666391,
          "durationTicks": 94,
          "midi": 70,
          "name": "A#4",
          "ticks": 56640,
          "time": 201.13630999999998,
          "velocity": 0.5905511811023622
        },
        {
          "duration": 0.3338067291666391,
          "durationTicks": 94,
          "midi": 70,
          "name": "A#4",
          "ticks": 56736,
          "time": 201.477219,
          "velocity": 0.5905511811023622
        },
        {
          "duration": 0.33380672916666754,
          "durationTicks": 94,
          "midi": 70,
          "name": "A#4",
          "ticks": 56832,
          "time": 201.81812799999997,
          "velocity": 0.5905511811023622
        },
        {
          "duration": 0.3338067291666391,
          "durationTicks": 94,
          "midi": 68,
          "name": "G#4",
          "ticks": 56928,
          "time": 202.15903699999998,
          "velocity": 0.5905511811023622
        },
        {
          "duration": 0.33380672916666754,
          "durationTicks": 94,
          "midi": 68,
          "name": "G#4",
          "ticks": 57024,
          "time": 202.49994599999997,
          "velocity": 0.5905511811023622
        },
        {
          "duration": 0.33380672916666754,
          "durationTicks": 94,
          "midi": 68,
          "name": "G#4",
          "ticks": 57120,
          "time": 202.84085499999998,
          "velocity": 0.5905511811023622
        },
        {
          "duration": 0.3338067291666391,
          "durationTicks": 94,
          "midi": 68,
          "name": "G#4",
          "ticks": 57216,
          "time": 203.181764,
          "velocity": 0.5905511811023622
        },
        {
          "duration": 0.33380672916666754,
          "durationTicks": 94,
          "midi": 68,
          "name": "G#4",
          "ticks": 57312,
          "time": 203.52267299999997,
          "velocity": 0.5905511811023622
        },
        {
          "duration": 0.3338067291666391,
          "durationTicks": 94,
          "midi": 68,
          "name": "G#4",
          "ticks": 57408,
          "time": 203.86358199999998,
          "velocity": 0.5905511811023622
        },
        {
          "duration": 0.3338067291666391,
          "durationTicks": 94,
          "midi": 68,
          "name": "G#4",
          "ticks": 57504,
          "time": 204.204491,
          "velocity": 0.5905511811023622
        },
        {
          "duration": 0.33380672916666754,
          "durationTicks": 94,
          "midi": 61,
          "name": "C#4",
          "ticks": 57600,
          "time": 204.54539999999997,
          "velocity": 0.5905511811023622
        },
        {
          "duration": 0.3338067291666391,
          "durationTicks": 94,
          "midi": 61,
          "name": "C#4",
          "ticks": 57696,
          "time": 204.88630899999998,
          "velocity": 0.5905511811023622
        },
        {
          "duration": 0.33380672916666754,
          "durationTicks": 94,
          "midi": 61,
          "name": "C#4",
          "ticks": 57792,
          "time": 205.22721799999997,
          "velocity": 0.5905511811023622
        },
        {
          "duration": 0.33380672916666754,
          "durationTicks": 94,
          "midi": 61,
          "name": "C#4",
          "ticks": 57888,
          "time": 205.56812699999998,
          "velocity": 0.5905511811023622
        },
        {
          "duration": 0.3338067291666391,
          "durationTicks": 94,
          "midi": 61,
          "name": "C#4",
          "ticks": 57984,
          "time": 205.909036,
          "velocity": 0.5905511811023622
        },
        {
          "duration": 0.33380672916666754,
          "durationTicks": 94,
          "midi": 61,
          "name": "C#4",
          "ticks": 58080,
          "time": 206.24994499999997,
          "velocity": 0.5905511811023622
        },
        {
          "duration": 0.3338067291666391,
          "durationTicks": 94,
          "midi": 61,
          "name": "C#4",
          "ticks": 58176,
          "time": 206.59085399999998,
          "velocity": 0.5905511811023622
        },
        {
          "duration": 0.3338067291666391,
          "durationTicks": 94,
          "midi": 61,
          "name": "C#4",
          "ticks": 58272,
          "time": 206.931763,
          "velocity": 0.5905511811023622
        },
        {
          "duration": 0.33380672916666754,
          "durationTicks": 94,
          "midi": 61,
          "name": "C#4",
          "ticks": 58368,
          "time": 207.27267199999997,
          "velocity": 0.5905511811023622
        },
        {
          "duration": 0.3338067291666391,
          "durationTicks": 94,
          "midi": 59,
          "name": "B3",
          "ticks": 58464,
          "time": 207.61358099999998,
          "velocity": 0.5905511811023622
        },
        {
          "duration": 0.33380672916666754,
          "durationTicks": 94,
          "midi": 59,
          "name": "B3",
          "ticks": 58560,
          "time": 207.95448999999996,
          "velocity": 0.5905511811023622
        },
        {
          "duration": 0.33380672916666754,
          "durationTicks": 94,
          "midi": 59,
          "name": "B3",
          "ticks": 58656,
          "time": 208.29539899999997,
          "velocity": 0.5905511811023622
        },
        {
          "duration": 0.3338067291666391,
          "durationTicks": 94,
          "midi": 59,
          "name": "B3",
          "ticks": 58752,
          "time": 208.63630799999999,
          "velocity": 0.5905511811023622
        },
        {
          "duration": 0.33380672916666754,
          "durationTicks": 94,
          "midi": 59,
          "name": "B3",
          "ticks": 58848,
          "time": 208.97721699999997,
          "velocity": 0.5905511811023622
        },
        {
          "duration": 0.3338067291666391,
          "durationTicks": 94,
          "midi": 59,
          "name": "B3",
          "ticks": 58944,
          "time": 209.31812599999998,
          "velocity": 0.5905511811023622
        },
        {
          "duration": 0.3338067291666391,
          "durationTicks": 94,
          "midi": 59,
          "name": "B3",
          "ticks": 59040,
          "time": 209.659035,
          "velocity": 0.5905511811023622
        },
        {
          "duration": 0.33380672916666754,
          "durationTicks": 94,
          "midi": 66,
          "name": "F#4",
          "ticks": 59136,
          "time": 209.99994399999997,
          "velocity": 0.5905511811023622
        },
        {
          "duration": 0.3338067291666391,
          "durationTicks": 94,
          "midi": 66,
          "name": "F#4",
          "ticks": 59232,
          "time": 210.34085299999998,
          "velocity": 0.5905511811023622
        },
        {
          "duration": 0.33380672916666754,
          "durationTicks": 94,
          "midi": 66,
          "name": "F#4",
          "ticks": 59328,
          "time": 210.68176199999996,
          "velocity": 0.5905511811023622
        },
        {
          "duration": 0.33380672916666754,
          "durationTicks": 94,
          "midi": 66,
          "name": "F#4",
          "ticks": 59424,
          "time": 211.02267099999997,
          "velocity": 0.5905511811023622
        },
        {
          "duration": 0.3338067291666391,
          "durationTicks": 94,
          "midi": 66,
          "name": "F#4",
          "ticks": 59520,
          "time": 211.36357999999998,
          "velocity": 0.5905511811023622
        },
        {
          "duration": 0.33380672916666754,
          "durationTicks": 94,
          "midi": 66,
          "name": "F#4",
          "ticks": 59616,
          "time": 211.70448899999997,
          "velocity": 0.5905511811023622
        },
        {
          "duration": 0.3338067291666391,
          "durationTicks": 94,
          "midi": 66,
          "name": "F#4",
          "ticks": 59712,
          "time": 212.04539799999998,
          "velocity": 0.5905511811023622
        },
        {
          "duration": 0.3338067291666391,
          "durationTicks": 94,
          "midi": 66,
          "name": "F#4",
          "ticks": 59808,
          "time": 212.386307,
          "velocity": 0.5905511811023622
        },
        {
          "duration": 0.33380672916666754,
          "durationTicks": 94,
          "midi": 66,
          "name": "F#4",
          "ticks": 59904,
          "time": 212.72721599999997,
          "velocity": 0.5905511811023622
        },
        {
          "duration": 0.3338067291666391,
          "durationTicks": 94,
          "midi": 64,
          "name": "E4",
          "ticks": 60000,
          "time": 213.06812499999998,
          "velocity": 0.5905511811023622
        },
        {
          "duration": 0.33380672916666754,
          "durationTicks": 94,
          "midi": 64,
          "name": "E4",
          "ticks": 60096,
          "time": 213.40903399999996,
          "velocity": 0.5905511811023622
        },
        {
          "duration": 0.33380672916666754,
          "durationTicks": 94,
          "midi": 64,
          "name": "E4",
          "ticks": 60192,
          "time": 213.74994299999997,
          "velocity": 0.5905511811023622
        },
        {
          "duration": 0.3338067291666391,
          "durationTicks": 94,
          "midi": 64,
          "name": "E4",
          "ticks": 60288,
          "time": 214.09085199999998,
          "velocity": 0.5905511811023622
        },
        {
          "duration": 0.33380672916666754,
          "durationTicks": 94,
          "midi": 64,
          "name": "E4",
          "ticks": 60384,
          "time": 214.43176099999997,
          "velocity": 0.5905511811023622
        },
        {
          "duration": 0.3338067291666391,
          "durationTicks": 94,
          "midi": 64,
          "name": "E4",
          "ticks": 60480,
          "time": 214.77266999999998,
          "velocity": 0.5905511811023622
        },
        {
          "duration": 0.3338067291666391,
          "durationTicks": 94,
          "midi": 64,
          "name": "E4",
          "ticks": 60576,
          "time": 215.113579,
          "velocity": 0.5905511811023622
        },
        {
          "duration": 0.33380672916666754,
          "durationTicks": 94,
          "midi": 66,
          "name": "F#4",
          "ticks": 60672,
          "time": 215.45448799999997,
          "velocity": 0.5905511811023622
        },
        {
          "duration": 0.3338067291666391,
          "durationTicks": 94,
          "midi": 66,
          "name": "F#4",
          "ticks": 60768,
          "time": 215.79539699999998,
          "velocity": 0.5905511811023622
        },
        {
          "duration": 0.33380672916666754,
          "durationTicks": 94,
          "midi": 66,
          "name": "F#4",
          "ticks": 60864,
          "time": 216.13630599999996,
          "velocity": 0.5905511811023622
        },
        {
          "duration": 0.33380672916666754,
          "durationTicks": 94,
          "midi": 66,
          "name": "F#4",
          "ticks": 60960,
          "time": 216.47721499999997,
          "velocity": 0.5905511811023622
        },
        {
          "duration": 0.3338067291666391,
          "durationTicks": 94,
          "midi": 66,
          "name": "F#4",
          "ticks": 61056,
          "time": 216.81812399999998,
          "velocity": 0.5905511811023622
        },
        {
          "duration": 0.33380672916666754,
          "durationTicks": 94,
          "midi": 66,
          "name": "F#4",
          "ticks": 61152,
          "time": 217.15903299999997,
          "velocity": 0.5905511811023622
        },
        {
          "duration": 0.33380672916666754,
          "durationTicks": 94,
          "midi": 66,
          "name": "F#4",
          "ticks": 61248,
          "time": 217.49994199999998,
          "velocity": 0.5905511811023622
        },
        {
          "duration": 0.3338067291666391,
          "durationTicks": 94,
          "midi": 66,
          "name": "F#4",
          "ticks": 61344,
          "time": 217.840851,
          "velocity": 0.5905511811023622
        },
        {
          "duration": 0.33380672916666754,
          "durationTicks": 94,
          "midi": 66,
          "name": "F#4",
          "ticks": 61440,
          "time": 218.18175999999997,
          "velocity": 0.5905511811023622
        },
        {
          "duration": 0.3338067291666391,
          "durationTicks": 94,
          "midi": 64,
          "name": "E4",
          "ticks": 61536,
          "time": 218.52266899999998,
          "velocity": 0.5905511811023622
        },
        {
          "duration": 0.3338067291666391,
          "durationTicks": 94,
          "midi": 64,
          "name": "E4",
          "ticks": 61632,
          "time": 218.863578,
          "velocity": 0.5905511811023622
        },
        {
          "duration": 0.33380672916666754,
          "durationTicks": 94,
          "midi": 64,
          "name": "E4",
          "ticks": 61728,
          "time": 219.20448699999997,
          "velocity": 0.5905511811023622
        },
        {
          "duration": 0.3338067291666391,
          "durationTicks": 94,
          "midi": 64,
          "name": "E4",
          "ticks": 61824,
          "time": 219.54539599999998,
          "velocity": 0.5905511811023622
        },
        {
          "duration": 0.33380672916666754,
          "durationTicks": 94,
          "midi": 64,
          "name": "E4",
          "ticks": 61920,
          "time": 219.88630499999996,
          "velocity": 0.5905511811023622
        },
        {
          "duration": 0.33380672916666754,
          "durationTicks": 94,
          "midi": 64,
          "name": "E4",
          "ticks": 62016,
          "time": 220.22721399999998,
          "velocity": 0.5905511811023622
        },
        {
          "duration": 0.3338067291666391,
          "durationTicks": 94,
          "midi": 64,
          "name": "E4",
          "ticks": 62112,
          "time": 220.56812299999999,
          "velocity": 0.5905511811023622
        },
        {
          "duration": 0.33380672916666754,
          "durationTicks": 94,
          "midi": 71,
          "name": "B4",
          "ticks": 62208,
          "time": 220.90903199999997,
          "velocity": 0.5905511811023622
        },
        {
          "duration": 0.3338067291666391,
          "durationTicks": 94,
          "midi": 70,
          "name": "A#4",
          "ticks": 62304,
          "time": 221.24994099999998,
          "velocity": 0.5905511811023622
        },
        {
          "duration": 0.3338067291666391,
          "durationTicks": 94,
          "midi": 70,
          "name": "A#4",
          "ticks": 62400,
          "time": 221.59085,
          "velocity": 0.5905511811023622
        },
        {
          "duration": 0.33380672916666754,
          "durationTicks": 94,
          "midi": 70,
          "name": "A#4",
          "ticks": 62496,
          "time": 221.93175899999997,
          "velocity": 0.5905511811023622
        },
        {
          "duration": 0.3338067291666391,
          "durationTicks": 94,
          "midi": 70,
          "name": "A#4",
          "ticks": 62592,
          "time": 222.27266799999998,
          "velocity": 0.5905511811023622
        },
        {
          "duration": 0.33380672916666754,
          "durationTicks": 94,
          "midi": 70,
          "name": "A#4",
          "ticks": 62688,
          "time": 222.61357699999996,
          "velocity": 0.5905511811023622
        },
        {
          "duration": 0.33380672916666754,
          "durationTicks": 94,
          "midi": 70,
          "name": "A#4",
          "ticks": 62784,
          "time": 222.95448599999997,
          "velocity": 0.5905511811023622
        },
        {
          "duration": 0.3338067291666391,
          "durationTicks": 94,
          "midi": 70,
          "name": "A#4",
          "ticks": 62880,
          "time": 223.29539499999998,
          "velocity": 0.5905511811023622
        },
        {
          "duration": 0.33380672916666754,
          "durationTicks": 94,
          "midi": 70,
          "name": "A#4",
          "ticks": 62976,
          "time": 223.63630399999997,
          "velocity": 0.5905511811023622
        },
        {
          "duration": 0.3338067291666391,
          "durationTicks": 94,
          "midi": 68,
          "name": "G#4",
          "ticks": 63072,
          "time": 223.97721299999998,
          "velocity": 0.5905511811023622
        },
        {
          "duration": 0.3338067291666391,
          "durationTicks": 94,
          "midi": 68,
          "name": "G#4",
          "ticks": 63168,
          "time": 224.318122,
          "velocity": 0.5905511811023622
        },
        {
          "duration": 0.33380672916666754,
          "durationTicks": 94,
          "midi": 68,
          "name": "G#4",
          "ticks": 63264,
          "time": 224.65903099999997,
          "velocity": 0.5905511811023622
        },
        {
          "duration": 0.3338067291666391,
          "durationTicks": 94,
          "midi": 68,
          "name": "G#4",
          "ticks": 63360,
          "time": 224.99993999999998,
          "velocity": 0.5905511811023622
        },
        {
          "duration": 0.33380672916666754,
          "durationTicks": 94,
          "midi": 68,
          "name": "G#4",
          "ticks": 63456,
          "time": 225.34084899999996,
          "velocity": 0.5905511811023622
        },
        {
          "duration": 0.33380672916666754,
          "durationTicks": 94,
          "midi": 68,
          "name": "G#4",
          "ticks": 63552,
          "time": 225.68175799999997,
          "velocity": 0.5905511811023622
        },
        {
          "duration": 0.3338067291666391,
          "durationTicks": 94,
          "midi": 68,
          "name": "G#4",
          "ticks": 63648,
          "time": 226.02266699999998,
          "velocity": 0.5905511811023622
        },
        {
          "duration": 0.33380672916666754,
          "durationTicks": 94,
          "midi": 61,
          "name": "C#4",
          "ticks": 63744,
          "time": 226.36357599999997,
          "velocity": 0.5905511811023622
        },
        {
          "duration": 0.3338067291666391,
          "durationTicks": 94,
          "midi": 61,
          "name": "C#4",
          "ticks": 63840,
          "time": 226.70448499999998,
          "velocity": 0.5905511811023622
        },
        {
          "duration": 0.3338067291666391,
          "durationTicks": 94,
          "midi": 61,
          "name": "C#4",
          "ticks": 63936,
          "time": 227.045394,
          "velocity": 0.5905511811023622
        },
        {
          "duration": 0.33380672916666754,
          "durationTicks": 94,
          "midi": 61,
          "name": "C#4",
          "ticks": 64032,
          "time": 227.38630299999997,
          "velocity": 0.5905511811023622
        },
        {
          "duration": 0.3338067291666391,
          "durationTicks": 94,
          "midi": 61,
          "name": "C#4",
          "ticks": 64128,
          "time": 227.72721199999998,
          "velocity": 0.5905511811023622
        },
        {
          "duration": 0.33380672916666754,
          "durationTicks": 94,
          "midi": 61,
          "name": "C#4",
          "ticks": 64224,
          "time": 228.06812099999996,
          "velocity": 0.5905511811023622
        },
        {
          "duration": 0.33380672916666754,
          "durationTicks": 94,
          "midi": 61,
          "name": "C#4",
          "ticks": 64320,
          "time": 228.40902999999997,
          "velocity": 0.5905511811023622
        },
        {
          "duration": 0.3338067291666391,
          "durationTicks": 94,
          "midi": 61,
          "name": "C#4",
          "ticks": 64416,
          "time": 228.74993899999998,
          "velocity": 0.5905511811023622
        },
        {
          "duration": 0.33380672916666754,
          "durationTicks": 94,
          "midi": 61,
          "name": "C#4",
          "ticks": 64512,
          "time": 229.09084799999997,
          "velocity": 0.5905511811023622
        },
        {
          "duration": 0.3338067291666391,
          "durationTicks": 94,
          "midi": 59,
          "name": "B3",
          "ticks": 64608,
          "time": 229.43175699999998,
          "velocity": 0.5905511811023622
        },
        {
          "duration": 0.3338067291666391,
          "durationTicks": 94,
          "midi": 59,
          "name": "B3",
          "ticks": 64704,
          "time": 229.772666,
          "velocity": 0.5905511811023622
        },
        {
          "duration": 0.33380672916666754,
          "durationTicks": 94,
          "midi": 59,
          "name": "B3",
          "ticks": 64800,
          "time": 230.11357499999997,
          "velocity": 0.5905511811023622
        },
        {
          "duration": 0.3338067291666391,
          "durationTicks": 94,
          "midi": 59,
          "name": "B3",
          "ticks": 64896,
          "time": 230.45448399999998,
          "velocity": 0.5905511811023622
        },
        {
          "duration": 0.33380672916666754,
          "durationTicks": 94,
          "midi": 59,
          "name": "B3",
          "ticks": 64992,
          "time": 230.79539299999996,
          "velocity": 0.5905511811023622
        },
        {
          "duration": 0.33380672916666754,
          "durationTicks": 94,
          "midi": 59,
          "name": "B3",
          "ticks": 65088,
          "time": 231.13630199999997,
          "velocity": 0.5905511811023622
        },
        {
          "duration": 0.3338067291666391,
          "durationTicks": 94,
          "midi": 59,
          "name": "B3",
          "ticks": 65184,
          "time": 231.47721099999998,
          "velocity": 0.5905511811023622
        },
        {
          "duration": 0.33380672916666754,
          "durationTicks": 94,
          "midi": 66,
          "name": "F#4",
          "ticks": 65280,
          "time": 231.81811999999996,
          "velocity": 0.5905511811023622
        },
        {
          "duration": 0.3338067291666391,
          "durationTicks": 94,
          "midi": 66,
          "name": "F#4",
          "ticks": 65376,
          "time": 232.15902899999998,
          "velocity": 0.5905511811023622
        },
        {
          "duration": 0.3338067291666391,
          "durationTicks": 94,
          "midi": 66,
          "name": "F#4",
          "ticks": 65472,
          "time": 232.499938,
          "velocity": 0.5905511811023622
        },
        {
          "duration": 0.33380672916666754,
          "durationTicks": 94,
          "midi": 66,
          "name": "F#4",
          "ticks": 65568,
          "time": 232.84084699999997,
          "velocity": 0.5905511811023622
        },
        {
          "duration": 0.3338067291666391,
          "durationTicks": 94,
          "midi": 66,
          "name": "F#4",
          "ticks": 65664,
          "time": 233.18175599999998,
          "velocity": 0.5905511811023622
        },
        {
          "duration": 0.33380672916666754,
          "durationTicks": 94,
          "midi": 66,
          "name": "F#4",
          "ticks": 65760,
          "time": 233.52266499999996,
          "velocity": 0.5905511811023622
        },
        {
          "duration": 0.33380672916666754,
          "durationTicks": 94,
          "midi": 66,
          "name": "F#4",
          "ticks": 65856,
          "time": 233.86357399999997,
          "velocity": 0.5905511811023622
        },
        {
          "duration": 0.3338067291666391,
          "durationTicks": 94,
          "midi": 66,
          "name": "F#4",
          "ticks": 65952,
          "time": 234.20448299999998,
          "velocity": 0.5905511811023622
        },
        {
          "duration": 0.33380672916666754,
          "durationTicks": 94,
          "midi": 66,
          "name": "F#4",
          "ticks": 66048,
          "time": 234.54539199999996,
          "velocity": 0.5905511811023622
        },
        {
          "duration": 0.3338067291666391,
          "durationTicks": 94,
          "midi": 64,
          "name": "E4",
          "ticks": 66144,
          "time": 234.88630099999997,
          "velocity": 0.5905511811023622
        },
        {
          "duration": 0.3338067291666391,
          "durationTicks": 94,
          "midi": 64,
          "name": "E4",
          "ticks": 66240,
          "time": 235.22720999999999,
          "velocity": 0.5905511811023622
        },
        {
          "duration": 0.33380672916666754,
          "durationTicks": 94,
          "midi": 64,
          "name": "E4",
          "ticks": 66336,
          "time": 235.56811899999997,
          "velocity": 0.5905511811023622
        },
        {
          "duration": 0.3338067291666391,
          "durationTicks": 94,
          "midi": 64,
          "name": "E4",
          "ticks": 66432,
          "time": 235.90902799999998,
          "velocity": 0.5905511811023622
        },
        {
          "duration": 0.33380672916666754,
          "durationTicks": 94,
          "midi": 64,
          "name": "E4",
          "ticks": 66528,
          "time": 236.24993699999996,
          "velocity": 0.5905511811023622
        },
        {
          "duration": 0.33380672916666754,
          "durationTicks": 94,
          "midi": 64,
          "name": "E4",
          "ticks": 66624,
          "time": 236.59084599999997,
          "velocity": 0.5905511811023622
        },
        {
          "duration": 0.3338067291666391,
          "durationTicks": 94,
          "midi": 64,
          "name": "E4",
          "ticks": 66720,
          "time": 236.93175499999998,
          "velocity": 0.5905511811023622
        },
        {
          "duration": 0.33380672916666754,
          "durationTicks": 94,
          "midi": 70,
          "name": "A#4",
          "ticks": 66816,
          "time": 237.27266399999996,
          "velocity": 0.5905511811023622
        },
        {
          "duration": 0.3338067291666391,
          "durationTicks": 94,
          "midi": 70,
          "name": "A#4",
          "ticks": 66912,
          "time": 237.61357299999997,
          "velocity": 0.5905511811023622
        },
        {
          "duration": 0.3338067291666391,
          "durationTicks": 94,
          "midi": 70,
          "name": "A#4",
          "ticks": 67008,
          "time": 237.95448199999998,
          "velocity": 0.5905511811023622
        },
        {
          "duration": 0.33380672916666754,
          "durationTicks": 94,
          "midi": 70,
          "name": "A#4",
          "ticks": 67104,
          "time": 238.29539099999997,
          "velocity": 0.5905511811023622
        },
        {
          "duration": 0.3338067291666391,
          "durationTicks": 94,
          "midi": 70,
          "name": "A#4",
          "ticks": 67200,
          "time": 238.63629999999998,
          "velocity": 0.5905511811023622
        },
        {
          "duration": 0.33380672916666754,
          "durationTicks": 94,
          "midi": 70,
          "name": "A#4",
          "ticks": 67296,
          "time": 238.97720899999996,
          "velocity": 0.5905511811023622
        },
        {
          "duration": 0.33380672916666754,
          "durationTicks": 94,
          "midi": 70,
          "name": "A#4",
          "ticks": 67392,
          "time": 239.31811799999997,
          "velocity": 0.5905511811023622
        },
        {
          "duration": 0.3338067291666391,
          "durationTicks": 94,
          "midi": 70,
          "name": "A#4",
          "ticks": 67488,
          "time": 239.65902699999998,
          "velocity": 0.5905511811023622
        },
        {
          "duration": 0.33380672916666754,
          "durationTicks": 94,
          "midi": 68,
          "name": "G#4",
          "ticks": 67584,
          "time": 239.99993599999996,
          "velocity": 0.5905511811023622
        },
        {
          "duration": 0.33380672916666754,
          "durationTicks": 94,
          "midi": 68,
          "name": "G#4",
          "ticks": 67680,
          "time": 240.34084499999997,
          "velocity": 0.5905511811023622
        },
        {
          "duration": 0.3338067291666391,
          "durationTicks": 94,
          "midi": 68,
          "name": "G#4",
          "ticks": 67776,
          "time": 240.68175399999998,
          "velocity": 0.5905511811023622
        },
        {
          "duration": 0.33380672916666754,
          "durationTicks": 94,
          "midi": 68,
          "name": "G#4",
          "ticks": 67872,
          "time": 241.02266299999997,
          "velocity": 0.5905511811023622
        },
        {
          "duration": 0.3338067291666391,
          "durationTicks": 94,
          "midi": 68,
          "name": "G#4",
          "ticks": 67968,
          "time": 241.36357199999998,
          "velocity": 0.5905511811023622
        },
        {
          "duration": 0.3338067291666391,
          "durationTicks": 94,
          "midi": 68,
          "name": "G#4",
          "ticks": 68064,
          "time": 241.704481,
          "velocity": 0.5905511811023622
        },
        {
          "duration": 0.33380672916666754,
          "durationTicks": 94,
          "midi": 68,
          "name": "G#4",
          "ticks": 68160,
          "time": 242.04538999999997,
          "velocity": 0.5905511811023622
        },
        {
          "duration": 0.3338067291666391,
          "durationTicks": 94,
          "midi": 68,
          "name": "G#4",
          "ticks": 68256,
          "time": 242.38629899999998,
          "velocity": 0.5905511811023622
        },
        {
          "duration": 0.33380672916666754,
          "durationTicks": 94,
          "midi": 61,
          "name": "C#4",
          "ticks": 68352,
          "time": 242.72720799999996,
          "velocity": 0.5905511811023622
        },
        {
          "duration": 0.33380672916666754,
          "durationTicks": 94,
          "midi": 61,
          "name": "C#4",
          "ticks": 68448,
          "time": 243.06811699999997,
          "velocity": 0.5905511811023622
        },
        {
          "duration": 0.3338067291666391,
          "durationTicks": 94,
          "midi": 61,
          "name": "C#4",
          "ticks": 68544,
          "time": 243.40902599999998,
          "velocity": 0.5905511811023622
        },
        {
          "duration": 0.33380672916666754,
          "durationTicks": 94,
          "midi": 61,
          "name": "C#4",
          "ticks": 68640,
          "time": 243.74993499999997,
          "velocity": 0.5905511811023622
        },
        {
          "duration": 0.3338067291666391,
          "durationTicks": 94,
          "midi": 61,
          "name": "C#4",
          "ticks": 68736,
          "time": 244.09084399999998,
          "velocity": 0.5905511811023622
        },
        {
          "duration": 0.3338067291666391,
          "durationTicks": 94,
          "midi": 61,
          "name": "C#4",
          "ticks": 68832,
          "time": 244.431753,
          "velocity": 0.5905511811023622
        },
        {
          "duration": 0.33380672916666754,
          "durationTicks": 94,
          "midi": 61,
          "name": "C#4",
          "ticks": 68928,
          "time": 244.77266199999997,
          "velocity": 0.5905511811023622
        },
        {
          "duration": 0.3338067291666391,
          "durationTicks": 94,
          "midi": 61,
          "name": "C#4",
          "ticks": 69024,
          "time": 245.11357099999998,
          "velocity": 0.5905511811023622
        },
        {
          "duration": 0.33380672916666754,
          "durationTicks": 94,
          "midi": 61,
          "name": "C#4",
          "ticks": 69120,
          "time": 245.45447999999996,
          "velocity": 0.5905511811023622
        },
        {
          "duration": 0.33380672916666754,
          "durationTicks": 94,
          "midi": 59,
          "name": "B3",
          "ticks": 69216,
          "time": 245.79538899999997,
          "velocity": 0.5905511811023622
        },
        {
          "duration": 0.3338067291666391,
          "durationTicks": 94,
          "midi": 59,
          "name": "B3",
          "ticks": 69312,
          "time": 246.13629799999998,
          "velocity": 0.5905511811023622
        },
        {
          "duration": 0.33380672916666754,
          "durationTicks": 94,
          "midi": 59,
          "name": "B3",
          "ticks": 69408,
          "time": 246.47720699999996,
          "velocity": 0.5905511811023622
        },
        {
          "duration": 0.3338067291666391,
          "durationTicks": 94,
          "midi": 59,
          "name": "B3",
          "ticks": 69504,
          "time": 246.81811599999997,
          "velocity": 0.5905511811023622
        },
        {
          "duration": 0.3338067291666391,
          "durationTicks": 94,
          "midi": 59,
          "name": "B3",
          "ticks": 69600,
          "time": 247.15902499999999,
          "velocity": 0.5905511811023622
        },
        {
          "duration": 0.33380672916666754,
          "durationTicks": 94,
          "midi": 59,
          "name": "B3",
          "ticks": 69696,
          "time": 247.49993399999997,
          "velocity": 0.5905511811023622
        },
        {
          "duration": 0.3338067291666391,
          "durationTicks": 94,
          "midi": 59,
          "name": "B3",
          "ticks": 69792,
          "time": 247.84084299999998,
          "velocity": 0.5905511811023622
        }
      ],
      "endOfTrackTicks": 69886
    },
    {
      "channel": 3,
      "controlChanges": {
        "7": [
          {
            "number": 7,
            "ticks": 0,
            "time": 0,
            "value": 1
          },
          {
            "number": 7,
            "ticks": 0,
            "time": 0,
            "value": 1
          }
        ],
        "10": [
          {
            "number": 10,
            "ticks": 0,
            "time": 0,
            "value": 0.5039370078740157
          },
          {
            "number": 10,
            "ticks": 0,
            "time": 0,
            "value": 0.5039370078740157
          }
        ]
      },
      "pitchBends": [],
      "instrument": {
        "family": "brass",
        "number": 62,
        "name": "synthbrass 1"
      },
      "name": " ",
      "notes": [
        {
          "duration": 0.33380672916666754,
          "durationTicks": 94,
          "midi": 75,
          "name": "D#5",
          "ticks": 10080,
          "time": 35.795444999999994,
          "velocity": 1
        },
        {
          "duration": 0.33380672916666754,
          "durationTicks": 94,
          "midi": 75,
          "name": "D#5",
          "ticks": 10176,
          "time": 36.136354,
          "velocity": 1
        },
        {
          "duration": 0.33380672916666754,
          "durationTicks": 94,
          "midi": 73,
          "name": "C#5",
          "ticks": 10272,
          "time": 36.477262999999994,
          "velocity": 1
        },
        {
          "duration": 1.1931815000000014,
          "durationTicks": 336,
          "midi": 75,
          "name": "D#5",
          "ticks": 10368,
          "time": 36.818172,
          "velocity": 1
        },
        {
          "duration": 0.33380672916666754,
          "durationTicks": 94,
          "midi": 75,
          "name": "D#5",
          "ticks": 10848,
          "time": 38.52271699999999,
          "velocity": 1
        },
        {
          "duration": 0.33380672916666754,
          "durationTicks": 94,
          "midi": 75,
          "name": "D#5",
          "ticks": 10944,
          "time": 38.863626,
          "velocity": 1
        },
        {
          "duration": 0.33380672916666754,
          "durationTicks": 94,
          "midi": 73,
          "name": "C#5",
          "ticks": 11040,
          "time": 39.20453499999999,
          "velocity": 1
        },
        {
          "duration": 0.5681816666666677,
          "durationTicks": 160,
          "midi": 75,
          "name": "D#5",
          "ticks": 11136,
          "time": 39.545443999999996,
          "velocity": 1
        },
        {
          "duration": 1.0156247291666674,
          "durationTicks": 286,
          "midi": 78,
          "name": "F#5",
          "ticks": 11328,
          "time": 40.227261999999996,
          "velocity": 1
        },
        {
          "duration": 1.534090500000005,
          "durationTicks": 432,
          "midi": 73,
          "name": "C#5",
          "ticks": 11616,
          "time": 41.24998899999999,
          "velocity": 1
        },
        {
          "duration": 0.33380672916666043,
          "durationTicks": 94,
          "midi": 73,
          "name": "C#5",
          "ticks": 12384,
          "time": 43.977261,
          "velocity": 1
        },
        {
          "duration": 0.33380672916666043,
          "durationTicks": 94,
          "midi": 73,
          "name": "C#5",
          "ticks": 12480,
          "time": 44.318169999999995,
          "velocity": 1
        },
        {
          "duration": 0.33380672916666043,
          "durationTicks": 94,
          "midi": 71,
          "name": "B4",
          "ticks": 12576,
          "time": 44.659079,
          "velocity": 1
        },
        {
          "duration": 0.5681816666666606,
          "durationTicks": 160,
          "midi": 73,
          "name": "C#5",
          "ticks": 12672,
          "time": 44.999987999999995,
          "velocity": 1
        },
        {
          "duration": 0.33380672916666043,
          "durationTicks": 94,
          "midi": 78,
          "name": "F#5",
          "ticks": 12864,
          "time": 45.681805999999995,
          "velocity": 1
        },
        {
          "duration": 1.5340904999999978,
          "durationTicks": 432,
          "midi": 71,
          "name": "B4",
          "ticks": 12960,
          "time": 46.022715,
          "velocity": 1
        },
        {
          "duration": 0.16335222916666226,
          "durationTicks": 46,
          "midi": 68,
          "name": "G#4",
          "ticks": 13968,
          "time": 49.602259499999995,
          "velocity": 1
        },
        {
          "duration": 0.16335222916666226,
          "durationTicks": 46,
          "midi": 71,
          "name": "B4",
          "ticks": 14016,
          "time": 49.77271399999999,
          "velocity": 1
        },
        {
          "duration": 0.16335222916666936,
          "durationTicks": 46,
          "midi": 68,
          "name": "G#4",
          "ticks": 14064,
          "time": 49.94316849999999,
          "velocity": 1
        },
        {
          "duration": 0.8451702291666621,
          "durationTicks": 238,
          "midi": 71,
          "name": "B4",
          "ticks": 14112,
          "time": 50.113623,
          "velocity": 1
        },
        {
          "duration": 0.16335222916666226,
          "durationTicks": 46,
          "midi": 71,
          "name": "B4",
          "ticks": 14352,
          "time": 50.965895499999995,
          "velocity": 1
        },
        {
          "duration": 0.5681816666666677,
          "durationTicks": 160,
          "midi": 68,
          "name": "G#4",
          "ticks": 14400,
          "time": 51.13634999999999,
          "velocity": 1
        },
        {
          "duration": 0.33380672916666043,
          "durationTicks": 94,
          "midi": 66,
          "name": "F#4",
          "ticks": 14688,
          "time": 52.159076999999996,
          "velocity": 1
        },
        {
          "duration": 0.33380672916666754,
          "durationTicks": 94,
          "midi": 75,
          "name": "D#5",
          "ticks": 14784,
          "time": 52.49998599999999,
          "velocity": 1
        },
        {
          "duration": 0.33380672916666043,
          "durationTicks": 94,
          "midi": 73,
          "name": "C#5",
          "ticks": 14880,
          "time": 52.840894999999996,
          "velocity": 1
        },
        {
          "duration": 1.1931815000000014,
          "durationTicks": 336,
          "midi": 75,
          "name": "D#5",
          "ticks": 14976,
          "time": 53.18180399999999,
          "velocity": 1
        },
        {
          "duration": 0.33380672916666043,
          "durationTicks": 94,
          "midi": 73,
          "name": "C#5",
          "ticks": 15456,
          "time": 54.886348999999996,
          "velocity": 1
        },
        {
          "duration": 0.33380672916666754,
          "durationTicks": 94,
          "midi": 75,
          "name": "D#5",
          "ticks": 15552,
          "time": 55.22725799999999,
          "velocity": 1
        },
        {
          "duration": 0.33380672916666043,
          "durationTicks": 94,
          "midi": 73,
          "name": "C#5",
          "ticks": 15648,
          "time": 55.568166999999995,
          "velocity": 1
        },
        {
          "duration": 0.5681816666666677,
          "durationTicks": 160,
          "midi": 75,
          "name": "D#5",
          "ticks": 15744,
          "time": 55.90907599999999,
          "velocity": 1
        },
        {
          "duration": 1.0156247291666674,
          "durationTicks": 286,
          "midi": 78,
          "name": "F#5",
          "ticks": 15936,
          "time": 56.59089399999999,
          "velocity": 1
        },
        {
          "duration": 0.909090666666664,
          "durationTicks": 256,
          "midi": 73,
          "name": "C#5",
          "ticks": 16224,
          "time": 57.613620999999995,
          "velocity": 1
        },
        {
          "duration": 0.33380672916666043,
          "durationTicks": 94,
          "midi": 71,
          "name": "B4",
          "ticks": 16992,
          "time": 60.340892999999994,
          "velocity": 1
        },
        {
          "duration": 0.33380672916666754,
          "durationTicks": 94,
          "midi": 73,
          "name": "C#5",
          "ticks": 17088,
          "time": 60.68180199999999,
          "velocity": 1
        },
        {
          "duration": 0.33380672916666043,
          "durationTicks": 94,
          "midi": 71,
          "name": "B4",
          "ticks": 17184,
          "time": 61.022710999999994,
          "velocity": 1
        },
        {
          "duration": 0.5681816666666677,
          "durationTicks": 160,
          "midi": 73,
          "name": "C#5",
          "ticks": 17280,
          "time": 61.36361999999999,
          "velocity": 1
        },
        {
          "duration": 0.33380672916666754,
          "durationTicks": 94,
          "midi": 78,
          "name": "F#5",
          "ticks": 17472,
          "time": 62.04543799999999,
          "velocity": 1
        },
        {
          "duration": 1.5340904999999978,
          "durationTicks": 432,
          "midi": 71,
          "name": "B4",
          "ticks": 17568,
          "time": 62.386346999999994,
          "velocity": 1
        },
        {
          "duration": 0.16335222916666226,
          "durationTicks": 46,
          "midi": 68,
          "name": "G#4",
          "ticks": 18576,
          "time": 65.9658915,
          "velocity": 1
        },
        {
          "duration": 0.16335222916666226,
          "durationTicks": 46,
          "midi": 71,
          "name": "B4",
          "ticks": 18624,
          "time": 66.13634599999999,
          "velocity": 1
        },
        {
          "duration": 0.16335222916666226,
          "durationTicks": 46,
          "midi": 68,
          "name": "G#4",
          "ticks": 18672,
          "time": 66.3068005,
          "velocity": 1
        },
        {
          "duration": 0.845170229166655,
          "durationTicks": 238,
          "midi": 71,
          "name": "B4",
          "ticks": 18720,
          "time": 66.477255,
          "velocity": 1
        },
        {
          "duration": 0.16335222916666226,
          "durationTicks": 46,
          "midi": 71,
          "name": "B4",
          "ticks": 18960,
          "time": 67.3295275,
          "velocity": 1
        },
        {
          "duration": 0.5681816666666606,
          "durationTicks": 160,
          "midi": 68,
          "name": "G#4",
          "ticks": 19008,
          "time": 67.49998199999999,
          "velocity": 1
        },
        {
          "duration": 0.33380672916666754,
          "durationTicks": 94,
          "midi": 73,
          "name": "C#5",
          "ticks": 20064,
          "time": 71.24998099999999,
          "velocity": 1
        },
        {
          "duration": 0.33380672916666754,
          "durationTicks": 94,
          "midi": 75,
          "name": "D#5",
          "ticks": 20160,
          "time": 71.59088999999999,
          "velocity": 1
        },
        {
          "duration": 0.3338067291666533,
          "durationTicks": 94,
          "midi": 73,
          "name": "C#5",
          "ticks": 20256,
          "time": 71.931799,
          "velocity": 1
        },
        {
          "duration": 0.33380672916666754,
          "durationTicks": 94,
          "midi": 75,
          "name": "D#5",
          "ticks": 20352,
          "time": 72.272708,
          "velocity": 1
        },
        {
          "duration": 1.3565337291666708,
          "durationTicks": 382,
          "midi": 78,
          "name": "F#5",
          "ticks": 20448,
          "time": 72.61361699999999,
          "velocity": 1
        },
        {
          "duration": 0.9090906666666712,
          "durationTicks": 256,
          "midi": 73,
          "name": "C#5",
          "ticks": 20832,
          "time": 73.97725299999999,
          "velocity": 1
        },
        {
          "duration": 0.33380672916666754,
          "durationTicks": 94,
          "midi": 71,
          "name": "B4",
          "ticks": 21600,
          "time": 76.70452499999999,
          "velocity": 1
        },
        {
          "duration": 0.33380672916666754,
          "durationTicks": 94,
          "midi": 73,
          "name": "C#5",
          "ticks": 21696,
          "time": 77.04543399999999,
          "velocity": 1
        },
        {
          "duration": 0.3338067291666533,
          "durationTicks": 94,
          "midi": 71,
          "name": "B4",
          "ticks": 21792,
          "time": 77.386343,
          "velocity": 1
        },
        {
          "duration": 0.33380672916666754,
          "durationTicks": 94,
          "midi": 73,
          "name": "C#5",
          "ticks": 21888,
          "time": 77.727252,
          "velocity": 1
        },
        {
          "duration": 0.33380672916666754,
          "durationTicks": 94,
          "midi": 73,
          "name": "C#5",
          "ticks": 21984,
          "time": 78.06816099999999,
          "velocity": 1
        },
        {
          "duration": 0.33380672916666754,
          "durationTicks": 94,
          "midi": 78,
          "name": "F#5",
          "ticks": 22080,
          "time": 78.40906999999999,
          "velocity": 1
        },
        {
          "duration": 1.5340904999999907,
          "durationTicks": 432,
          "midi": 71,
          "name": "B4",
          "ticks": 22176,
          "time": 78.749979,
          "velocity": 1
        },
        {
          "duration": 0.16335222916666226,
          "durationTicks": 46,
          "midi": 68,
          "name": "G#4",
          "ticks": 23184,
          "time": 82.3295235,
          "velocity": 1
        },
        {
          "duration": 0.16335222916667647,
          "durationTicks": 46,
          "midi": 71,
          "name": "B4",
          "ticks": 23232,
          "time": 82.49997799999998,
          "velocity": 1
        },
        {
          "duration": 0.16335222916666226,
          "durationTicks": 46,
          "midi": 68,
          "name": "G#4",
          "ticks": 23280,
          "time": 82.67043249999999,
          "velocity": 1
        },
        {
          "duration": 0.6747157291666639,
          "durationTicks": 190,
          "midi": 71,
          "name": "B4",
          "ticks": 23328,
          "time": 82.840887,
          "velocity": 1
        },
        {
          "duration": 0.16335222916666226,
          "durationTicks": 46,
          "midi": 71,
          "name": "B4",
          "ticks": 23520,
          "time": 83.52270499999999,
          "velocity": 1
        },
        {
          "duration": 0.7386361666666659,
          "durationTicks": 208,
          "midi": 66,
          "name": "F#4",
          "ticks": 23568,
          "time": 83.6931595,
          "velocity": 1
        },
        {
          "duration": 0.5681816666666606,
          "durationTicks": 160,
          "midi": 71,
          "name": "B4",
          "ticks": 25536,
          "time": 90.681794,
          "velocity": 1
        },
        {
          "duration": 0.9090906666666712,
          "durationTicks": 256,
          "midi": 80,
          "name": "G#5",
          "ticks": 25728,
          "time": 91.36361199999999,
          "velocity": 1
        },
        {
          "duration": 0.6747157291666639,
          "durationTicks": 190,
          "midi": 78,
          "name": "F#5",
          "ticks": 26016,
          "time": 92.38633899999999,
          "velocity": 1
        },
        {
          "duration": 0.33380672916668175,
          "durationTicks": 94,
          "midi": 71,
          "name": "B4",
          "ticks": 26208,
          "time": 93.06815699999999,
          "velocity": 1
        },
        {
          "duration": 0.33380672916666754,
          "durationTicks": 94,
          "midi": 71,
          "name": "B4",
          "ticks": 26304,
          "time": 93.409066,
          "velocity": 1
        },
        {
          "duration": 0.33380672916666754,
          "durationTicks": 94,
          "midi": 78,
          "name": "F#5",
          "ticks": 26400,
          "time": 93.74997499999999,
          "velocity": 1
        },
        {
          "duration": 0.33380672916666754,
          "durationTicks": 94,
          "midi": 78,
          "name": "F#5",
          "ticks": 26496,
          "time": 94.09088399999999,
          "velocity": 1
        },
        {
          "duration": 0.33380672916668175,
          "durationTicks": 94,
          "midi": 75,
          "name": "D#5",
          "ticks": 26592,
          "time": 94.43179299999998,
          "velocity": 1
        },
        {
          "duration": 0.5681816666666606,
          "durationTicks": 160,
          "midi": 75,
          "name": "D#5",
          "ticks": 26688,
          "time": 94.772702,
          "velocity": 1
        },
        {
          "duration": 0.33380672916666754,
          "durationTicks": 94,
          "midi": 71,
          "name": "B4",
          "ticks": 27072,
          "time": 96.136338,
          "velocity": 1
        },
        {
          "duration": 0.33380672916666754,
          "durationTicks": 94,
          "midi": 80,
          "name": "G#5",
          "ticks": 27168,
          "time": 96.47724699999999,
          "velocity": 1
        },
        {
          "duration": 0.9090906666666712,
          "durationTicks": 256,
          "midi": 80,
          "name": "G#5",
          "ticks": 27264,
          "time": 96.81815599999999,
          "velocity": 1
        },
        {
          "duration": 0.33380672916666754,
          "durationTicks": 94,
          "midi": 78,
          "name": "F#5",
          "ticks": 27552,
          "time": 97.84088299999999,
          "velocity": 1
        },
        {
          "duration": 0.33380672916668175,
          "durationTicks": 94,
          "midi": 71,
          "name": "B4",
          "ticks": 27744,
          "time": 98.52270099999998,
          "velocity": 1
        },
        {
          "duration": 0.33380672916666754,
          "durationTicks": 94,
          "midi": 71,
          "name": "B4",
          "ticks": 27840,
          "time": 98.86361,
          "velocity": 1
        },
        {
          "duration": 0.33380672916666754,
          "durationTicks": 94,
          "midi": 78,
          "name": "F#5",
          "ticks": 27936,
          "time": 99.20451899999999,
          "velocity": 1
        },
        {
          "duration": 0.33380672916668175,
          "durationTicks": 94,
          "midi": 78,
          "name": "F#5",
          "ticks": 28032,
          "time": 99.54542799999999,
          "velocity": 1
        },
        {
          "duration": 0.33380672916668175,
          "durationTicks": 94,
          "midi": 71,
          "name": "B4",
          "ticks": 28128,
          "time": 99.88633699999998,
          "velocity": 1
        },
        {
          "duration": 0.5681816666666748,
          "durationTicks": 160,
          "midi": 71,
          "name": "B4",
          "ticks": 28224,
          "time": 100.227246,
          "velocity": 1
        },
        {
          "duration": 0.33380672916666754,
          "durationTicks": 94,
          "midi": 71,
          "name": "B4",
          "ticks": 28608,
          "time": 101.590882,
          "velocity": 1
        },
        {
          "duration": 0.33380672916666754,
          "durationTicks": 94,
          "midi": 80,
          "name": "G#5",
          "ticks": 28704,
          "time": 101.93179099999999,
          "velocity": 1
        },
        {
          "duration": 0.9090906666666712,
          "durationTicks": 256,
          "midi": 80,
          "name": "G#5",
          "ticks": 28800,
          "time": 102.27269999999999,
          "velocity": 1
        },
        {
          "duration": 0.33380672916666754,
          "durationTicks": 94,
          "midi": 78,
          "name": "F#5",
          "ticks": 29088,
          "time": 103.29542699999999,
          "velocity": 1
        },
        {
          "duration": 0.33380672916668175,
          "durationTicks": 94,
          "midi": 71,
          "name": "B4",
          "ticks": 29280,
          "time": 103.97724499999998,
          "velocity": 1
        },
        {
          "duration": 0.33380672916666754,
          "durationTicks": 94,
          "midi": 71,
          "name": "B4",
          "ticks": 29376,
          "time": 104.31815399999999,
          "velocity": 1
        },
        {
          "duration": 0.33380672916666754,
          "durationTicks": 94,
          "midi": 78,
          "name": "F#5",
          "ticks": 29472,
          "time": 104.65906299999999,
          "velocity": 1
        },
        {
          "duration": 0.33380672916668175,
          "durationTicks": 94,
          "midi": 78,
          "name": "F#5",
          "ticks": 29568,
          "time": 104.99997199999999,
          "velocity": 1
        },
        {
          "duration": 0.33380672916668175,
          "durationTicks": 94,
          "midi": 71,
          "name": "B4",
          "ticks": 29664,
          "time": 105.34088099999998,
          "velocity": 1
        },
        {
          "duration": 0.5681816666666748,
          "durationTicks": 160,
          "midi": 71,
          "name": "B4",
          "ticks": 29760,
          "time": 105.68178999999999,
          "velocity": 1
        },
        {
          "duration": 0.33380672916666754,
          "durationTicks": 94,
          "midi": 71,
          "name": "B4",
          "ticks": 30816,
          "time": 109.431789,
          "velocity": 1
        },
        {
          "duration": 0.33380672916666754,
          "durationTicks": 94,
          "midi": 71,
          "name": "B4",
          "ticks": 30912,
          "time": 109.77269799999999,
          "velocity": 1
        },
        {
          "duration": 0.33380672916666754,
          "durationTicks": 94,
          "midi": 78,
          "name": "F#5",
          "ticks": 31008,
          "time": 110.11360699999999,
          "velocity": 1
        },
        {
          "duration": 0.33380672916668175,
          "durationTicks": 94,
          "midi": 78,
          "name": "F#5",
          "ticks": 31104,
          "time": 110.45451599999998,
          "velocity": 1
        },
        {
          "duration": 0.33380672916666754,
          "durationTicks": 94,
          "midi": 75,
          "name": "D#5",
          "ticks": 31200,
          "time": 110.795425,
          "velocity": 1
        },
        {
          "duration": 0.5681816666666748,
          "durationTicks": 160,
          "midi": 75,
          "name": "D#5",
          "ticks": 31296,
          "time": 111.13633399999999,
          "velocity": 1
        },
        {
          "duration": 0.33380672916669596,
          "durationTicks": 94,
          "midi": 66,
          "name": "F#4",
          "ticks": 37728,
          "time": 133.97723699999997,
          "velocity": 1
        },
        {
          "duration": 0.33380672916666754,
          "durationTicks": 94,
          "midi": 75,
          "name": "D#5",
          "ticks": 37824,
          "time": 134.31814599999998,
          "velocity": 1
        },
        {
          "duration": 0.33380672916666754,
          "durationTicks": 94,
          "midi": 73,
          "name": "C#5",
          "ticks": 37920,
          "time": 134.659055,
          "velocity": 1
        },
        {
          "duration": 1.1931815000000086,
          "durationTicks": 336,
          "midi": 75,
          "name": "D#5",
          "ticks": 38016,
          "time": 134.99996399999998,
          "velocity": 1
        },
        {
          "duration": 0.33380672916669596,
          "durationTicks": 94,
          "midi": 73,
          "name": "C#5",
          "ticks": 38496,
          "time": 136.70450899999997,
          "velocity": 1
        },
        {
          "duration": 0.33380672916666754,
          "durationTicks": 94,
          "midi": 75,
          "name": "D#5",
          "ticks": 38592,
          "time": 137.04541799999998,
          "velocity": 1
        },
        {
          "duration": 0.33380672916666754,
          "durationTicks": 94,
          "midi": 73,
          "name": "C#5",
          "ticks": 38688,
          "time": 137.386327,
          "velocity": 1
        },
        {
          "duration": 0.33380672916666754,
          "durationTicks": 94,
          "midi": 75,
          "name": "D#5",
          "ticks": 38784,
          "time": 137.72723599999998,
          "velocity": 1
        },
        {
          "duration": 1.3565337291666708,
          "durationTicks": 382,
          "midi": 78,
          "name": "F#5",
          "ticks": 38880,
          "time": 138.068145,
          "velocity": 1
        },
        {
          "duration": 1.5340905000000191,
          "durationTicks": 432,
          "midi": 73,
          "name": "C#5",
          "ticks": 39264,
          "time": 139.43178099999997,
          "velocity": 1
        },
        {
          "duration": 0.33380672916669596,
          "durationTicks": 94,
          "midi": 73,
          "name": "C#5",
          "ticks": 40032,
          "time": 142.15905299999997,
          "velocity": 1
        },
        {
          "duration": 0.33380672916666754,
          "durationTicks": 94,
          "midi": 73,
          "name": "C#5",
          "ticks": 40128,
          "time": 142.49996199999998,
          "velocity": 1
        },
        {
          "duration": 0.33380672916666754,
          "durationTicks": 94,
          "midi": 71,
          "name": "B4",
          "ticks": 40224,
          "time": 142.840871,
          "velocity": 1
        },
        {
          "duration": 0.5681816666666748,
          "durationTicks": 160,
          "midi": 73,
          "name": "C#5",
          "ticks": 40320,
          "time": 143.18177999999997,
          "velocity": 1
        },
        {
          "duration": 0.33380672916666754,
          "durationTicks": 94,
          "midi": 78,
          "name": "F#5",
          "ticks": 40512,
          "time": 143.863598,
          "velocity": 1
        },
        {
          "duration": 1.5340905000000191,
          "durationTicks": 432,
          "midi": 71,
          "name": "B4",
          "ticks": 40608,
          "time": 144.20450699999998,
          "velocity": 1
        },
        {
          "duration": 0.16335222916669068,
          "durationTicks": 46,
          "midi": 68,
          "name": "G#4",
          "ticks": 41616,
          "time": 147.78405149999998,
          "velocity": 1
        },
        {
          "duration": 0.16335222916666226,
          "durationTicks": 46,
          "midi": 71,
          "name": "B4",
          "ticks": 41664,
          "time": 147.95450599999998,
          "velocity": 1
        },
        {
          "duration": 0.16335222916666226,
          "durationTicks": 46,
          "midi": 68,
          "name": "G#4",
          "ticks": 41712,
          "time": 148.1249605,
          "velocity": 1
        },
        {
          "duration": 0.845170229166655,
          "durationTicks": 238,
          "midi": 71,
          "name": "B4",
          "ticks": 41760,
          "time": 148.295415,
          "velocity": 1
        },
        {
          "duration": 0.16335222916666226,
          "durationTicks": 46,
          "midi": 71,
          "name": "B4",
          "ticks": 42000,
          "time": 149.1476875,
          "velocity": 1
        },
        {
          "duration": 0.5681816666666748,
          "durationTicks": 160,
          "midi": 68,
          "name": "G#4",
          "ticks": 42048,
          "time": 149.318142,
          "velocity": 1
        },
        {
          "duration": 0.33380672916669596,
          "durationTicks": 94,
          "midi": 66,
          "name": "F#4",
          "ticks": 42336,
          "time": 150.34086899999997,
          "velocity": 1
        },
        {
          "duration": 0.33380672916666754,
          "durationTicks": 94,
          "midi": 75,
          "name": "D#5",
          "ticks": 42432,
          "time": 150.68177799999998,
          "velocity": 1
        },
        {
          "duration": 0.33380672916666754,
          "durationTicks": 94,
          "midi": 73,
          "name": "C#5",
          "ticks": 42528,
          "time": 151.022687,
          "velocity": 1
        },
        {
          "duration": 1.1931815000000086,
          "durationTicks": 336,
          "midi": 75,
          "name": "D#5",
          "ticks": 42624,
          "time": 151.36359599999997,
          "velocity": 1
        },
        {
          "duration": 0.33380672916666754,
          "durationTicks": 94,
          "midi": 73,
          "name": "C#5",
          "ticks": 43104,
          "time": 153.068141,
          "velocity": 1
        },
        {
          "duration": 0.33380672916666754,
          "durationTicks": 94,
          "midi": 75,
          "name": "D#5",
          "ticks": 43200,
          "time": 153.40904999999998,
          "velocity": 1
        },
        {
          "duration": 0.33380672916666754,
          "durationTicks": 94,
          "midi": 73,
          "name": "C#5",
          "ticks": 43296,
          "time": 153.749959,
          "velocity": 1
        },
        {
          "duration": 0.5681816666666748,
          "durationTicks": 160,
          "midi": 75,
          "name": "D#5",
          "ticks": 43392,
          "time": 154.09086799999997,
          "velocity": 1
        },
        {
          "duration": 1.0156247291666602,
          "durationTicks": 286,
          "midi": 78,
          "name": "F#5",
          "ticks": 43584,
          "time": 154.772686,
          "velocity": 1
        },
        {
          "duration": 0.9090906666666569,
          "durationTicks": 256,
          "midi": 73,
          "name": "C#5",
          "ticks": 43872,
          "time": 155.795413,
          "velocity": 1
        },
        {
          "duration": 0.33380672916666754,
          "durationTicks": 94,
          "midi": 71,
          "name": "B4",
          "ticks": 44640,
          "time": 158.522685,
          "velocity": 1
        },
        {
          "duration": 0.33380672916666754,
          "durationTicks": 94,
          "midi": 73,
          "name": "C#5",
          "ticks": 44736,
          "time": 158.86359399999998,
          "velocity": 1
        },
        {
          "duration": 0.33380672916666754,
          "durationTicks": 94,
          "midi": 71,
          "name": "B4",
          "ticks": 44832,
          "time": 159.204503,
          "velocity": 1
        },
        {
          "duration": 0.5681816666666748,
          "durationTicks": 160,
          "midi": 80,
          "name": "G#5",
          "ticks": 44928,
          "time": 159.54541199999997,
          "velocity": 1
        },
        {
          "duration": 0.33380672916666754,
          "durationTicks": 94,
          "midi": 73,
          "name": "C#5",
          "ticks": 45120,
          "time": 160.22723,
          "velocity": 1
        },
        {
          "duration": 1.5340905000000191,
          "durationTicks": 432,
          "midi": 71,
          "name": "B4",
          "ticks": 45216,
          "time": 160.56813899999997,
          "velocity": 1
        },
        {
          "duration": 0.16335222916669068,
          "durationTicks": 46,
          "midi": 68,
          "name": "G#4",
          "ticks": 46224,
          "time": 164.14768349999997,
          "velocity": 1
        },
        {
          "duration": 0.16335222916669068,
          "durationTicks": 46,
          "midi": 71,
          "name": "B4",
          "ticks": 46272,
          "time": 164.31813799999998,
          "velocity": 1
        },
        {
          "duration": 0.16335222916666226,
          "durationTicks": 46,
          "midi": 68,
          "name": "G#4",
          "ticks": 46320,
          "time": 164.48859249999998,
          "velocity": 1
        },
        {
          "duration": 0.845170229166655,
          "durationTicks": 238,
          "midi": 71,
          "name": "B4",
          "ticks": 46368,
          "time": 164.659047,
          "velocity": 1
        },
        {
          "duration": 0.16335222916666226,
          "durationTicks": 46,
          "midi": 71,
          "name": "B4",
          "ticks": 46608,
          "time": 165.51131949999998,
          "velocity": 1
        },
        {
          "duration": 0.5681816666666748,
          "durationTicks": 160,
          "midi": 68,
          "name": "G#4",
          "ticks": 46656,
          "time": 165.681774,
          "velocity": 1
        },
        {
          "duration": 0.5681816666666748,
          "durationTicks": 160,
          "midi": 71,
          "name": "B4",
          "ticks": 48576,
          "time": 172.49995399999997,
          "velocity": 1
        },
        {
          "duration": 0.9090906666666854,
          "durationTicks": 256,
          "midi": 80,
          "name": "G#5",
          "ticks": 48768,
          "time": 173.18177199999997,
          "velocity": 1
        },
        {
          "duration": 0.6747157291666781,
          "durationTicks": 190,
          "midi": 78,
          "name": "F#5",
          "ticks": 49056,
          "time": 174.20449899999997,
          "velocity": 1
        },
        {
          "duration": 0.3338067291666391,
          "durationTicks": 94,
          "midi": 71,
          "name": "B4",
          "ticks": 49248,
          "time": 174.886317,
          "velocity": 1
        },
        {
          "duration": 0.33380672916666754,
          "durationTicks": 94,
          "midi": 71,
          "name": "B4",
          "ticks": 49344,
          "time": 175.22722599999997,
          "velocity": 1
        },
        {
          "duration": 0.3338067291666391,
          "durationTicks": 94,
          "midi": 78,
          "name": "F#5",
          "ticks": 49440,
          "time": 175.56813499999998,
          "velocity": 1
        },
        {
          "duration": 0.3338067291666391,
          "durationTicks": 94,
          "midi": 78,
          "name": "F#5",
          "ticks": 49536,
          "time": 175.909044,
          "velocity": 1
        },
        {
          "duration": 0.33380672916666754,
          "durationTicks": 94,
          "midi": 75,
          "name": "D#5",
          "ticks": 49632,
          "time": 176.24995299999998,
          "velocity": 1
        },
        {
          "duration": 0.5681816666666464,
          "durationTicks": 160,
          "midi": 75,
          "name": "D#5",
          "ticks": 49728,
          "time": 176.590862,
          "velocity": 1
        },
        {
          "duration": 0.33380672916666754,
          "durationTicks": 94,
          "midi": 71,
          "name": "B4",
          "ticks": 50112,
          "time": 177.95449799999997,
          "velocity": 1
        },
        {
          "duration": 0.3338067291666391,
          "durationTicks": 94,
          "midi": 80,
          "name": "G#5",
          "ticks": 50208,
          "time": 178.29540699999998,
          "velocity": 1
        },
        {
          "duration": 0.9090906666666285,
          "durationTicks": 256,
          "midi": 80,
          "name": "G#5",
          "ticks": 50304,
          "time": 178.636316,
          "velocity": 1
        },
        {
          "duration": 0.33380672916666754,
          "durationTicks": 94,
          "midi": 78,
          "name": "F#5",
          "ticks": 50592,
          "time": 179.65904299999997,
          "velocity": 1
        },
        {
          "duration": 0.3338067291666391,
          "durationTicks": 94,
          "midi": 71,
          "name": "B4",
          "ticks": 50784,
          "time": 180.340861,
          "velocity": 1
        },
        {
          "duration": 0.33380672916666754,
          "durationTicks": 94,
          "midi": 71,
          "name": "B4",
          "ticks": 50880,
          "time": 180.68176999999997,
          "velocity": 1
        },
        {
          "duration": 0.3338067291666391,
          "durationTicks": 94,
          "midi": 78,
          "name": "F#5",
          "ticks": 50976,
          "time": 181.02267899999998,
          "velocity": 1
        },
        {
          "duration": 0.3338067291666391,
          "durationTicks": 94,
          "midi": 78,
          "name": "F#5",
          "ticks": 51072,
          "time": 181.363588,
          "velocity": 1
        },
        {
          "duration": 0.33380672916666754,
          "durationTicks": 94,
          "midi": 71,
          "name": "B4",
          "ticks": 51168,
          "time": 181.70449699999998,
          "velocity": 1
        },
        {
          "duration": 0.5681816666666464,
          "durationTicks": 160,
          "midi": 71,
          "name": "B4",
          "ticks": 51264,
          "time": 182.04540599999999,
          "velocity": 1
        },
        {
          "duration": 0.33380672916666754,
          "durationTicks": 94,
          "midi": 71,
          "name": "B4",
          "ticks": 51648,
          "time": 183.40904199999997,
          "velocity": 1
        },
        {
          "duration": 0.3338067291666391,
          "durationTicks": 94,
          "midi": 80,
          "name": "G#5",
          "ticks": 51744,
          "time": 183.74995099999998,
          "velocity": 1
        },
        {
          "duration": 0.9090906666666285,
          "durationTicks": 256,
          "midi": 80,
          "name": "G#5",
          "ticks": 51840,
          "time": 184.09086,
          "velocity": 1
        },
        {
          "duration": 0.33380672916666754,
          "durationTicks": 94,
          "midi": 78,
          "name": "F#5",
          "ticks": 52128,
          "time": 185.11358699999997,
          "velocity": 1
        },
        {
          "duration": 0.3338067291666391,
          "durationTicks": 94,
          "midi": 71,
          "name": "B4",
          "ticks": 52320,
          "time": 185.795405,
          "velocity": 1
        },
        {
          "duration": 0.33380672916666754,
          "durationTicks": 94,
          "midi": 71,
          "name": "B4",
          "ticks": 52416,
          "time": 186.13631399999997,
          "velocity": 1
        },
        {
          "duration": 0.3338067291666391,
          "durationTicks": 94,
          "midi": 78,
          "name": "F#5",
          "ticks": 52512,
          "time": 186.47722299999998,
          "velocity": 1
        },
        {
          "duration": 0.3338067291666391,
          "durationTicks": 94,
          "midi": 78,
          "name": "F#5",
          "ticks": 52608,
          "time": 186.818132,
          "velocity": 1
        },
        {
          "duration": 0.33380672916666754,
          "durationTicks": 94,
          "midi": 75,
          "name": "D#5",
          "ticks": 52704,
          "time": 187.15904099999997,
          "velocity": 1
        },
        {
          "duration": 0.5681816666666464,
          "durationTicks": 160,
          "midi": 75,
          "name": "D#5",
          "ticks": 52800,
          "time": 187.49994999999998,
          "velocity": 1
        },
        {
          "duration": 0.16335222916666226,
          "durationTicks": 46,
          "midi": 71,
          "name": "B4",
          "ticks": 52992,
          "time": 188.18176799999998,
          "velocity": 1
        },
        {
          "duration": 1.0795451666666622,
          "durationTicks": 304,
          "midi": 68,
          "name": "G#4",
          "ticks": 53040,
          "time": 188.35222249999998,
          "velocity": 1
        },
        {
          "duration": 0.3338067291666391,
          "durationTicks": 94,
          "midi": 71,
          "name": "B4",
          "ticks": 53856,
          "time": 191.249949,
          "velocity": 1
        },
        {
          "duration": 0.33380672916666754,
          "durationTicks": 94,
          "midi": 71,
          "name": "B4",
          "ticks": 53952,
          "time": 191.59085799999997,
          "velocity": 1
        },
        {
          "duration": 0.3338067291666391,
          "durationTicks": 94,
          "midi": 78,
          "name": "F#5",
          "ticks": 54048,
          "time": 191.93176699999998,
          "velocity": 1
        },
        {
          "duration": 0.3338067291666391,
          "durationTicks": 94,
          "midi": 78,
          "name": "F#5",
          "ticks": 54144,
          "time": 192.272676,
          "velocity": 1
        },
        {
          "duration": 0.33380672916666754,
          "durationTicks": 94,
          "midi": 75,
          "name": "D#5",
          "ticks": 54240,
          "time": 192.61358499999997,
          "velocity": 1
        },
        {
          "duration": 0.5681816666666464,
          "durationTicks": 160,
          "midi": 75,
          "name": "D#5",
          "ticks": 54336,
          "time": 192.95449399999998,
          "velocity": 1
        },
        {
          "duration": 1.1931815000000086,
          "durationTicks": 336,
          "midi": 66,
          "name": "F#4",
          "ticks": 54528,
          "time": 193.63631199999998,
          "velocity": 1
        },
        {
          "duration": 0.3338067291666391,
          "durationTicks": 94,
          "midi": 71,
          "name": "B4",
          "ticks": 60576,
          "time": 215.113579,
          "velocity": 1
        },
        {
          "duration": 0.9090906666666569,
          "durationTicks": 256,
          "midi": 78,
          "name": "F#5",
          "ticks": 60672,
          "time": 215.45448799999997,
          "velocity": 1
        },
        {
          "duration": 0.33380672916666754,
          "durationTicks": 94,
          "midi": 75,
          "name": "D#5",
          "ticks": 60960,
          "time": 216.47721499999997,
          "velocity": 1
        },
        {
          "duration": 1.1931814999999801,
          "durationTicks": 336,
          "midi": 75,
          "name": "D#5",
          "ticks": 61056,
          "time": 216.81812399999998,
          "velocity": 1
        },
        {
          "duration": 0.3338067291666391,
          "durationTicks": 94,
          "midi": 71,
          "name": "B4",
          "ticks": 61536,
          "time": 218.52266899999998,
          "velocity": 1
        },
        {
          "duration": 0.3338067291666391,
          "durationTicks": 94,
          "midi": 73,
          "name": "C#5",
          "ticks": 61632,
          "time": 218.863578,
          "velocity": 1
        },
        {
          "duration": 0.33380672916666754,
          "durationTicks": 94,
          "midi": 71,
          "name": "B4",
          "ticks": 61728,
          "time": 219.20448699999997,
          "velocity": 1
        },
        {
          "duration": 0.5681816666666464,
          "durationTicks": 160,
          "midi": 73,
          "name": "C#5",
          "ticks": 61824,
          "time": 219.54539599999998,
          "velocity": 1
        },
        {
          "duration": 0.5681816666666464,
          "durationTicks": 160,
          "midi": 71,
          "name": "B4",
          "ticks": 62016,
          "time": 220.22721399999998,
          "velocity": 1
        },
        {
          "duration": 0.9090906666666569,
          "durationTicks": 256,
          "midi": 78,
          "name": "F#5",
          "ticks": 62208,
          "time": 220.90903199999997,
          "velocity": 1
        },
        {
          "duration": 1.5340904999999907,
          "durationTicks": 432,
          "midi": 75,
          "name": "D#5",
          "ticks": 62496,
          "time": 221.93175899999997,
          "velocity": 1
        },
        {
          "duration": 0.3338067291666391,
          "durationTicks": 94,
          "midi": 71,
          "name": "B4",
          "ticks": 63072,
          "time": 223.97721299999998,
          "velocity": 1
        },
        {
          "duration": 0.3338067291666391,
          "durationTicks": 94,
          "midi": 73,
          "name": "C#5",
          "ticks": 63168,
          "time": 224.318122,
          "velocity": 1
        },
        {
          "duration": 0.33380672916666754,
          "durationTicks": 94,
          "midi": 71,
          "name": "B4",
          "ticks": 63264,
          "time": 224.65903099999997,
          "velocity": 1
        },
        {
          "duration": 0.5681816666666464,
          "durationTicks": 160,
          "midi": 73,
          "name": "C#5",
          "ticks": 63360,
          "time": 224.99993999999998,
          "velocity": 1
        },
        {
          "duration": 0.5681816666666464,
          "durationTicks": 160,
          "midi": 71,
          "name": "B4",
          "ticks": 63552,
          "time": 225.68175799999997,
          "velocity": 1
        },
        {
          "duration": 0.9090906666666569,
          "durationTicks": 256,
          "midi": 78,
          "name": "F#5",
          "ticks": 63744,
          "time": 226.36357599999997,
          "velocity": 1
        },
        {
          "duration": 1.5340904999999907,
          "durationTicks": 432,
          "midi": 75,
          "name": "D#5",
          "ticks": 64032,
          "time": 227.38630299999997,
          "velocity": 1
        },
        {
          "duration": 0.3338067291666391,
          "durationTicks": 94,
          "midi": 71,
          "name": "B4",
          "ticks": 64608,
          "time": 229.43175699999998,
          "velocity": 1
        },
        {
          "duration": 0.3338067291666391,
          "durationTicks": 94,
          "midi": 73,
          "name": "C#5",
          "ticks": 64704,
          "time": 229.772666,
          "velocity": 1
        },
        {
          "duration": 0.33380672916666754,
          "durationTicks": 94,
          "midi": 71,
          "name": "B4",
          "ticks": 64800,
          "time": 230.11357499999997,
          "velocity": 1
        },
        {
          "duration": 0.5681816666666464,
          "durationTicks": 160,
          "midi": 73,
          "name": "C#5",
          "ticks": 64896,
          "time": 230.45448399999998,
          "velocity": 1
        },
        {
          "duration": 1.8749995000000013,
          "durationTicks": 528,
          "midi": 75,
          "name": "D#5",
          "ticks": 65088,
          "time": 231.13630199999997,
          "velocity": 1
        },
        {
          "duration": 0.33380672916666754,
          "durationTicks": 94,
          "midi": 71,
          "name": "B4",
          "ticks": 67680,
          "time": 240.34084499999997,
          "velocity": 1
        },
        {
          "duration": 0.3338067291666391,
          "durationTicks": 94,
          "midi": 73,
          "name": "C#5",
          "ticks": 67776,
          "time": 240.68175399999998,
          "velocity": 1
        },
        {
          "duration": 0.33380672916666754,
          "durationTicks": 94,
          "midi": 71,
          "name": "B4",
          "ticks": 67872,
          "time": 241.02266299999997,
          "velocity": 1
        },
        {
          "duration": 0.5681816666666464,
          "durationTicks": 160,
          "midi": 73,
          "name": "C#5",
          "ticks": 67968,
          "time": 241.36357199999998,
          "velocity": 1
        },
        {
          "duration": 0.5681816666666464,
          "durationTicks": 160,
          "midi": 71,
          "name": "B4",
          "ticks": 68160,
          "time": 242.04538999999997,
          "velocity": 1
        },
        {
          "duration": 0.9090906666666569,
          "durationTicks": 256,
          "midi": 80,
          "name": "G#5",
          "ticks": 68352,
          "time": 242.72720799999996,
          "velocity": 1
        },
        {
          "duration": 1.5340905000000191,
          "durationTicks": 432,
          "midi": 75,
          "name": "D#5",
          "ticks": 68640,
          "time": 243.74993499999997,
          "velocity": 1
        },
        {
          "duration": 0.33380672916666754,
          "durationTicks": 94,
          "midi": 71,
          "name": "B4",
          "ticks": 69216,
          "time": 245.79538899999997,
          "velocity": 1
        },
        {
          "duration": 0.3338067291666391,
          "durationTicks": 94,
          "midi": 73,
          "name": "C#5",
          "ticks": 69312,
          "time": 246.13629799999998,
          "velocity": 1
        },
        {
          "duration": 0.9090906666666569,
          "durationTicks": 256,
          "midi": 71,
          "name": "B4",
          "ticks": 69408,
          "time": 246.47720699999996,
          "velocity": 1
        },
        {
          "duration": 0.33380672916666754,
          "durationTicks": 94,
          "midi": 73,
          "name": "C#5",
          "ticks": 69984,
          "time": 248.52266099999997,
          "velocity": 1
        },
        {
          "duration": 0.3338067291666391,
          "durationTicks": 94,
          "midi": 75,
          "name": "D#5",
          "ticks": 70080,
          "time": 248.86356999999998,
          "velocity": 1
        },
        {
          "duration": 0.33380672916666754,
          "durationTicks": 94,
          "midi": 73,
          "name": "C#5",
          "ticks": 70176,
          "time": 249.20447899999996,
          "velocity": 1
        },
        {
          "duration": 1.1931815000000086,
          "durationTicks": 336,
          "midi": 75,
          "name": "D#5",
          "ticks": 70272,
          "time": 249.54538799999997,
          "velocity": 1
        },
        {
          "duration": 0.33380672916666754,
          "durationTicks": 94,
          "midi": 73,
          "name": "C#5",
          "ticks": 70752,
          "time": 251.24993299999997,
          "velocity": 1
        },
        {
          "duration": 0.3338067291666391,
          "durationTicks": 94,
          "midi": 75,
          "name": "D#5",
          "ticks": 70848,
          "time": 251.59084199999998,
          "velocity": 1
        },
        {
          "duration": 0.33380672916666754,
          "durationTicks": 94,
          "midi": 73,
          "name": "C#5",
          "ticks": 70944,
          "time": 251.93175099999996,
          "velocity": 1
        },
        {
          "duration": 0.5681816666666464,
          "durationTicks": 160,
          "midi": 75,
          "name": "D#5",
          "ticks": 71040,
          "time": 252.27265999999997,
          "velocity": 1
        },
        {
          "duration": 1.0156247291666602,
          "durationTicks": 286,
          "midi": 78,
          "name": "F#5",
          "ticks": 71232,
          "time": 252.95447799999997,
          "velocity": 1
        },
        {
          "duration": 1.5340904999999907,
          "durationTicks": 432,
          "midi": 73,
          "name": "C#5",
          "ticks": 71520,
          "time": 253.97720499999997,
          "velocity": 1
        },
        {
          "duration": 0.3338067291666107,
          "durationTicks": 94,
          "midi": 73,
          "name": "C#5",
          "ticks": 72288,
          "time": 256.704477,
          "velocity": 1
        },
        {
          "duration": 0.33380672916666754,
          "durationTicks": 94,
          "midi": 73,
          "name": "C#5",
          "ticks": 72384,
          "time": 257.04538599999995,
          "velocity": 1
        },
        {
          "duration": 0.33380672916666754,
          "durationTicks": 94,
          "midi": 71,
          "name": "B4",
          "ticks": 72480,
          "time": 257.38629499999996,
          "velocity": 1
        },
        {
          "duration": 0.33380672916666754,
          "durationTicks": 94,
          "midi": 73,
          "name": "C#5",
          "ticks": 72576,
          "time": 257.727204,
          "velocity": 1
        },
        {
          "duration": 0.33380672916666754,
          "durationTicks": 94,
          "midi": 71,
          "name": "B4",
          "ticks": 72672,
          "time": 258.068113,
          "velocity": 1
        },
        {
          "duration": 1.0156247291666318,
          "durationTicks": 286,
          "midi": 78,
          "name": "F#5",
          "ticks": 72768,
          "time": 258.409022,
          "velocity": 1
        },
        {
          "duration": 1.5340904999999907,
          "durationTicks": 432,
          "midi": 71,
          "name": "B4",
          "ticks": 73056,
          "time": 259.43174899999997,
          "velocity": 1
        }
      ],
      "endOfTrackTicks": 73488
    },
    {
      "channel": 5,
      "controlChanges": {
        "7": [
          {
            "number": 7,
            "ticks": 0,
            "time": 0,
            "value": 1
          },
          {
            "number": 7,
            "ticks": 0,
            "time": 0,
            "value": 1
          }
        ],
        "10": [
          {
            "number": 10,
            "ticks": 0,
            "time": 0,
            "value": 0.5039370078740157
          },
          {
            "number": 10,
            "ticks": 0,
            "time": 0,
            "value": 0.5039370078740157
          }
        ]
      },
      "pitchBends": [],
      "instrument": {
        "family": "guitar",
        "number": 25,
        "name": "acoustic guitar (steel)"
      },
      "name": " ",
      "notes": [
        {
          "duration": 0.33380672916666665,
          "durationTicks": 94,
          "midi": 54,
          "name": "F#3",
          "ticks": 768,
          "time": 2.7272719999999997,
          "velocity": 0.5905511811023622
        },
        {
          "duration": 0.33380672916666665,
          "durationTicks": 94,
          "midi": 59,
          "name": "B3",
          "ticks": 768,
          "time": 2.7272719999999997,
          "velocity": 0.5905511811023622
        },
        {
          "duration": 0.33380672916666665,
          "durationTicks": 94,
          "midi": 63,
          "name": "D#4",
          "ticks": 768,
          "time": 2.7272719999999997,
          "velocity": 0.5905511811023622
        },
        {
          "duration": 0.33380672916666665,
          "durationTicks": 94,
          "midi": 54,
          "name": "F#3",
          "ticks": 864,
          "time": 3.0681809999999996,
          "velocity": 0.5905511811023622
        },
        {
          "duration": 0.33380672916666665,
          "durationTicks": 94,
          "midi": 59,
          "name": "B3",
          "ticks": 864,
          "time": 3.0681809999999996,
          "velocity": 0.5905511811023622
        },
        {
          "duration": 0.33380672916666665,
          "durationTicks": 94,
          "midi": 63,
          "name": "D#4",
          "ticks": 864,
          "time": 3.0681809999999996,
          "velocity": 0.5905511811023622
        },
        {
          "duration": 0.33380672916666665,
          "durationTicks": 94,
          "midi": 54,
          "name": "F#3",
          "ticks": 960,
          "time": 3.4090899999999995,
          "velocity": 0.5905511811023622
        },
        {
          "duration": 0.33380672916666665,
          "durationTicks": 94,
          "midi": 59,
          "name": "B3",
          "ticks": 960,
          "time": 3.4090899999999995,
          "velocity": 0.5905511811023622
        },
        {
          "duration": 0.33380672916666665,
          "durationTicks": 94,
          "midi": 63,
          "name": "D#4",
          "ticks": 960,
          "time": 3.4090899999999995,
          "velocity": 0.5905511811023622
        },
        {
          "duration": 0.3338067291666662,
          "durationTicks": 94,
          "midi": 54,
          "name": "F#3",
          "ticks": 1056,
          "time": 3.7499989999999994,
          "velocity": 0.5905511811023622
        },
        {
          "duration": 0.3338067291666662,
          "durationTicks": 94,
          "midi": 59,
          "name": "B3",
          "ticks": 1056,
          "time": 3.7499989999999994,
          "velocity": 0.5905511811023622
        },
        {
          "duration": 0.3338067291666662,
          "durationTicks": 94,
          "midi": 63,
          "name": "D#4",
          "ticks": 1056,
          "time": 3.7499989999999994,
          "velocity": 0.5905511811023622
        },
        {
          "duration": 0.33380672916666665,
          "durationTicks": 94,
          "midi": 54,
          "name": "F#3",
          "ticks": 1152,
          "time": 4.090908,
          "velocity": 0.5905511811023622
        },
        {
          "duration": 0.33380672916666665,
          "durationTicks": 94,
          "midi": 54,
          "name": "F#3",
          "ticks": 1248,
          "time": 4.431817,
          "velocity": 0.5905511811023622
        },
        {
          "duration": 0.33380672916666665,
          "durationTicks": 94,
          "midi": 59,
          "name": "B3",
          "ticks": 1248,
          "time": 4.431817,
          "velocity": 0.5905511811023622
        },
        {
          "duration": 0.33380672916666665,
          "durationTicks": 94,
          "midi": 63,
          "name": "D#4",
          "ticks": 1248,
          "time": 4.431817,
          "velocity": 0.5905511811023622
        },
        {
          "duration": 0.33380672916666665,
          "durationTicks": 94,
          "midi": 54,
          "name": "F#3",
          "ticks": 1344,
          "time": 4.772726,
          "velocity": 0.5905511811023622
        },
        {
          "duration": 0.33380672916666665,
          "durationTicks": 94,
          "midi": 59,
          "name": "B3",
          "ticks": 1344,
          "time": 4.772726,
          "velocity": 0.5905511811023622
        },
        {
          "duration": 0.33380672916666665,
          "durationTicks": 94,
          "midi": 63,
          "name": "D#4",
          "ticks": 1344,
          "time": 4.772726,
          "velocity": 0.5905511811023622
        },
        {
          "duration": 0.1633522291666667,
          "durationTicks": 46,
          "midi": 54,
          "name": "F#3",
          "ticks": 1440,
          "time": 5.1136349999999995,
          "velocity": 0.5905511811023622
        },
        {
          "duration": 0.1633522291666667,
          "durationTicks": 46,
          "midi": 59,
          "name": "B3",
          "ticks": 1440,
          "time": 5.1136349999999995,
          "velocity": 0.5905511811023622
        },
        {
          "duration": 0.1633522291666667,
          "durationTicks": 46,
          "midi": 63,
          "name": "D#4",
          "ticks": 1440,
          "time": 5.1136349999999995,
          "velocity": 0.5905511811023622
        },
        {
          "duration": 0.1633522291666667,
          "durationTicks": 46,
          "midi": 54,
          "name": "F#3",
          "ticks": 1488,
          "time": 5.284089499999999,
          "velocity": 0.5905511811023622
        },
        {
          "duration": 0.1633522291666667,
          "durationTicks": 46,
          "midi": 59,
          "name": "B3",
          "ticks": 1488,
          "time": 5.284089499999999,
          "velocity": 0.5905511811023622
        },
        {
          "duration": 0.1633522291666667,
          "durationTicks": 46,
          "midi": 63,
          "name": "D#4",
          "ticks": 1488,
          "time": 5.284089499999999,
          "velocity": 0.5905511811023622
        },
        {
          "duration": 0.33380672916666665,
          "durationTicks": 94,
          "midi": 54,
          "name": "F#3",
          "ticks": 1536,
          "time": 5.454543999999999,
          "velocity": 0.5905511811023622
        },
        {
          "duration": 0.33380672916666665,
          "durationTicks": 94,
          "midi": 59,
          "name": "B3",
          "ticks": 1536,
          "time": 5.454543999999999,
          "velocity": 0.5905511811023622
        },
        {
          "duration": 0.33380672916666665,
          "durationTicks": 94,
          "midi": 63,
          "name": "D#4",
          "ticks": 1536,
          "time": 5.454543999999999,
          "velocity": 0.5905511811023622
        },
        {
          "duration": 0.33380672916666665,
          "durationTicks": 94,
          "midi": 54,
          "name": "F#3",
          "ticks": 1632,
          "time": 5.795452999999999,
          "velocity": 0.5905511811023622
        },
        {
          "duration": 0.33380672916666665,
          "durationTicks": 94,
          "midi": 59,
          "name": "B3",
          "ticks": 1632,
          "time": 5.795452999999999,
          "velocity": 0.5905511811023622
        },
        {
          "duration": 0.33380672916666665,
          "durationTicks": 94,
          "midi": 63,
          "name": "D#4",
          "ticks": 1632,
          "time": 5.795452999999999,
          "velocity": 0.5905511811023622
        },
        {
          "duration": 0.33380672916666754,
          "durationTicks": 94,
          "midi": 54,
          "name": "F#3",
          "ticks": 1728,
          "time": 6.136361999999999,
          "velocity": 0.5905511811023622
        },
        {
          "duration": 0.33380672916666754,
          "durationTicks": 94,
          "midi": 59,
          "name": "B3",
          "ticks": 1728,
          "time": 6.136361999999999,
          "velocity": 0.5905511811023622
        },
        {
          "duration": 0.33380672916666754,
          "durationTicks": 94,
          "midi": 63,
          "name": "D#4",
          "ticks": 1728,
          "time": 6.136361999999999,
          "velocity": 0.5905511811023622
        },
        {
          "duration": 0.6747157291666674,
          "durationTicks": 190,
          "midi": 54,
          "name": "F#3",
          "ticks": 1824,
          "time": 6.477270999999999,
          "velocity": 0.5905511811023622
        },
        {
          "duration": 0.6747157291666674,
          "durationTicks": 190,
          "midi": 59,
          "name": "B3",
          "ticks": 1824,
          "time": 6.477270999999999,
          "velocity": 0.5905511811023622
        },
        {
          "duration": 0.6747157291666674,
          "durationTicks": 190,
          "midi": 64,
          "name": "E4",
          "ticks": 1824,
          "time": 6.477270999999999,
          "velocity": 0.5905511811023622
        },
        {
          "duration": 0.33380672916666754,
          "durationTicks": 94,
          "midi": 54,
          "name": "F#3",
          "ticks": 2016,
          "time": 7.159088999999999,
          "velocity": 0.5905511811023622
        },
        {
          "duration": 0.33380672916666754,
          "durationTicks": 94,
          "midi": 59,
          "name": "B3",
          "ticks": 2016,
          "time": 7.159088999999999,
          "velocity": 0.5905511811023622
        },
        {
          "duration": 0.33380672916666754,
          "durationTicks": 94,
          "midi": 64,
          "name": "E4",
          "ticks": 2016,
          "time": 7.159088999999999,
          "velocity": 0.5905511811023622
        },
        {
          "duration": 0.33380672916666754,
          "durationTicks": 94,
          "midi": 54,
          "name": "F#3",
          "ticks": 2112,
          "time": 7.499997999999999,
          "velocity": 0.5905511811023622
        },
        {
          "duration": 0.33380672916666754,
          "durationTicks": 94,
          "midi": 59,
          "name": "B3",
          "ticks": 2112,
          "time": 7.499997999999999,
          "velocity": 0.5905511811023622
        },
        {
          "duration": 0.33380672916666754,
          "durationTicks": 94,
          "midi": 64,
          "name": "E4",
          "ticks": 2112,
          "time": 7.499997999999999,
          "velocity": 0.5905511811023622
        },
        {
          "duration": 0.1633522291666667,
          "durationTicks": 46,
          "midi": 54,
          "name": "F#3",
          "ticks": 2208,
          "time": 7.840906999999999,
          "velocity": 0.5905511811023622
        },
        {
          "duration": 0.1633522291666667,
          "durationTicks": 46,
          "midi": 59,
          "name": "B3",
          "ticks": 2208,
          "time": 7.840906999999999,
          "velocity": 0.5905511811023622
        },
        {
          "duration": 0.1633522291666667,
          "durationTicks": 46,
          "midi": 64,
          "name": "E4",
          "ticks": 2208,
          "time": 7.840906999999999,
          "velocity": 0.5905511811023622
        },
        {
          "duration": 0.1633522291666658,
          "durationTicks": 46,
          "midi": 54,
          "name": "F#3",
          "ticks": 2256,
          "time": 8.0113615,
          "velocity": 0.5905511811023622
        },
        {
          "duration": 0.1633522291666658,
          "durationTicks": 46,
          "midi": 59,
          "name": "B3",
          "ticks": 2256,
          "time": 8.0113615,
          "velocity": 0.5905511811023622
        },
        {
          "duration": 0.1633522291666658,
          "durationTicks": 46,
          "midi": 63,
          "name": "D#4",
          "ticks": 2256,
          "time": 8.0113615,
          "velocity": 0.5905511811023622
        },
        {
          "duration": 0.33380672916666576,
          "durationTicks": 94,
          "midi": 54,
          "name": "F#3",
          "ticks": 2304,
          "time": 8.181816,
          "velocity": 0.5905511811023622
        },
        {
          "duration": 0.33380672916666576,
          "durationTicks": 94,
          "midi": 59,
          "name": "B3",
          "ticks": 2304,
          "time": 8.181816,
          "velocity": 0.5905511811023622
        },
        {
          "duration": 0.33380672916666576,
          "durationTicks": 94,
          "midi": 63,
          "name": "D#4",
          "ticks": 2304,
          "time": 8.181816,
          "velocity": 0.5905511811023622
        },
        {
          "duration": 0.33380672916666576,
          "durationTicks": 94,
          "midi": 54,
          "name": "F#3",
          "ticks": 2400,
          "time": 8.522725,
          "velocity": 0.5905511811023622
        },
        {
          "duration": 0.33380672916666576,
          "durationTicks": 94,
          "midi": 59,
          "name": "B3",
          "ticks": 2400,
          "time": 8.522725,
          "velocity": 0.5905511811023622
        },
        {
          "duration": 0.33380672916666576,
          "durationTicks": 94,
          "midi": 63,
          "name": "D#4",
          "ticks": 2400,
          "time": 8.522725,
          "velocity": 0.5905511811023622
        },
        {
          "duration": 0.33380672916666754,
          "durationTicks": 94,
          "midi": 54,
          "name": "F#3",
          "ticks": 2496,
          "time": 8.863634,
          "velocity": 0.5905511811023622
        },
        {
          "duration": 0.33380672916666754,
          "durationTicks": 94,
          "midi": 59,
          "name": "B3",
          "ticks": 2496,
          "time": 8.863634,
          "velocity": 0.5905511811023622
        },
        {
          "duration": 0.33380672916666754,
          "durationTicks": 94,
          "midi": 63,
          "name": "D#4",
          "ticks": 2496,
          "time": 8.863634,
          "velocity": 0.5905511811023622
        },
        {
          "duration": 0.33380672916666754,
          "durationTicks": 94,
          "midi": 54,
          "name": "F#3",
          "ticks": 2592,
          "time": 9.204543,
          "velocity": 0.5905511811023622
        },
        {
          "duration": 0.33380672916666754,
          "durationTicks": 94,
          "midi": 59,
          "name": "B3",
          "ticks": 2592,
          "time": 9.204543,
          "velocity": 0.5905511811023622
        },
        {
          "duration": 0.33380672916666754,
          "durationTicks": 94,
          "midi": 63,
          "name": "D#4",
          "ticks": 2592,
          "time": 9.204543,
          "velocity": 0.5905511811023622
        },
        {
          "duration": 0.33380672916666754,
          "durationTicks": 94,
          "midi": 54,
          "name": "F#3",
          "ticks": 2688,
          "time": 9.545452,
          "velocity": 0.5905511811023622
        },
        {
          "duration": 0.33380672916666754,
          "durationTicks": 94,
          "midi": 54,
          "name": "F#3",
          "ticks": 2784,
          "time": 9.886360999999999,
          "velocity": 0.5905511811023622
        },
        {
          "duration": 0.33380672916666754,
          "durationTicks": 94,
          "midi": 59,
          "name": "B3",
          "ticks": 2784,
          "time": 9.886360999999999,
          "velocity": 0.5905511811023622
        },
        {
          "duration": 0.33380672916666754,
          "durationTicks": 94,
          "midi": 63,
          "name": "D#4",
          "ticks": 2784,
          "time": 9.886360999999999,
          "velocity": 0.5905511811023622
        },
        {
          "duration": 0.33380672916666754,
          "durationTicks": 94,
          "midi": 54,
          "name": "F#3",
          "ticks": 2880,
          "time": 10.227269999999999,
          "velocity": 0.5905511811023622
        },
        {
          "duration": 0.33380672916666754,
          "durationTicks": 94,
          "midi": 59,
          "name": "B3",
          "ticks": 2880,
          "time": 10.227269999999999,
          "velocity": 0.5905511811023622
        },
        {
          "duration": 0.33380672916666754,
          "durationTicks": 94,
          "midi": 63,
          "name": "D#4",
          "ticks": 2880,
          "time": 10.227269999999999,
          "velocity": 0.5905511811023622
        },
        {
          "duration": 0.16335222916666758,
          "durationTicks": 46,
          "midi": 54,
          "name": "F#3",
          "ticks": 2976,
          "time": 10.568178999999999,
          "velocity": 0.5905511811023622
        },
        {
          "duration": 0.16335222916666758,
          "durationTicks": 46,
          "midi": 59,
          "name": "B3",
          "ticks": 2976,
          "time": 10.568178999999999,
          "velocity": 0.5905511811023622
        },
        {
          "duration": 0.16335222916666758,
          "durationTicks": 46,
          "midi": 63,
          "name": "D#4",
          "ticks": 2976,
          "time": 10.568178999999999,
          "velocity": 0.5905511811023622
        },
        {
          "duration": 0.16335222916666758,
          "durationTicks": 46,
          "midi": 54,
          "name": "F#3",
          "ticks": 3024,
          "time": 10.738633499999999,
          "velocity": 0.5905511811023622
        },
        {
          "duration": 0.16335222916666758,
          "durationTicks": 46,
          "midi": 59,
          "name": "B3",
          "ticks": 3024,
          "time": 10.738633499999999,
          "velocity": 0.5905511811023622
        },
        {
          "duration": 0.16335222916666758,
          "durationTicks": 46,
          "midi": 63,
          "name": "D#4",
          "ticks": 3024,
          "time": 10.738633499999999,
          "velocity": 0.5905511811023622
        },
        {
          "duration": 0.33380672916666576,
          "durationTicks": 94,
          "midi": 54,
          "name": "F#3",
          "ticks": 3072,
          "time": 10.909087999999999,
          "velocity": 0.5905511811023622
        },
        {
          "duration": 0.33380672916666576,
          "durationTicks": 94,
          "midi": 59,
          "name": "B3",
          "ticks": 3072,
          "time": 10.909087999999999,
          "velocity": 0.5905511811023622
        },
        {
          "duration": 0.33380672916666576,
          "durationTicks": 94,
          "midi": 63,
          "name": "D#4",
          "ticks": 3072,
          "time": 10.909087999999999,
          "velocity": 0.5905511811023622
        },
        {
          "duration": 0.33380672916666576,
          "durationTicks": 94,
          "midi": 54,
          "name": "F#3",
          "ticks": 3168,
          "time": 11.249996999999999,
          "velocity": 0.5905511811023622
        },
        {
          "duration": 0.33380672916666576,
          "durationTicks": 94,
          "midi": 59,
          "name": "B3",
          "ticks": 3168,
          "time": 11.249996999999999,
          "velocity": 0.5905511811023622
        },
        {
          "duration": 0.33380672916666576,
          "durationTicks": 94,
          "midi": 63,
          "name": "D#4",
          "ticks": 3168,
          "time": 11.249996999999999,
          "velocity": 0.5905511811023622
        },
        {
          "duration": 0.33380672916666576,
          "durationTicks": 94,
          "midi": 54,
          "name": "F#3",
          "ticks": 3264,
          "time": 11.590905999999999,
          "velocity": 0.5905511811023622
        },
        {
          "duration": 0.33380672916666576,
          "durationTicks": 94,
          "midi": 59,
          "name": "B3",
          "ticks": 3264,
          "time": 11.590905999999999,
          "velocity": 0.5905511811023622
        },
        {
          "duration": 0.33380672916666576,
          "durationTicks": 94,
          "midi": 63,
          "name": "D#4",
          "ticks": 3264,
          "time": 11.590905999999999,
          "velocity": 0.5905511811023622
        },
        {
          "duration": 0.6747157291666657,
          "durationTicks": 190,
          "midi": 54,
          "name": "F#3",
          "ticks": 3360,
          "time": 11.931814999999999,
          "velocity": 0.5905511811023622
        },
        {
          "duration": 0.6747157291666657,
          "durationTicks": 190,
          "midi": 59,
          "name": "B3",
          "ticks": 3360,
          "time": 11.931814999999999,
          "velocity": 0.5905511811023622
        },
        {
          "duration": 0.6747157291666657,
          "durationTicks": 190,
          "midi": 64,
          "name": "E4",
          "ticks": 3360,
          "time": 11.931814999999999,
          "velocity": 0.5905511811023622
        },
        {
          "duration": 0.33380672916666576,
          "durationTicks": 94,
          "midi": 54,
          "name": "F#3",
          "ticks": 3552,
          "time": 12.613632999999998,
          "velocity": 0.5905511811023622
        },
        {
          "duration": 0.33380672916666576,
          "durationTicks": 94,
          "midi": 59,
          "name": "B3",
          "ticks": 3552,
          "time": 12.613632999999998,
          "velocity": 0.5905511811023622
        },
        {
          "duration": 0.33380672916666576,
          "durationTicks": 94,
          "midi": 64,
          "name": "E4",
          "ticks": 3552,
          "time": 12.613632999999998,
          "velocity": 0.5905511811023622
        },
        {
          "duration": 0.33380672916666576,
          "durationTicks": 94,
          "midi": 54,
          "name": "F#3",
          "ticks": 3648,
          "time": 12.954541999999998,
          "velocity": 0.5905511811023622
        },
        {
          "duration": 0.33380672916666576,
          "durationTicks": 94,
          "midi": 59,
          "name": "B3",
          "ticks": 3648,
          "time": 12.954541999999998,
          "velocity": 0.5905511811023622
        },
        {
          "duration": 0.33380672916666576,
          "durationTicks": 94,
          "midi": 64,
          "name": "E4",
          "ticks": 3648,
          "time": 12.954541999999998,
          "velocity": 0.5905511811023622
        },
        {
          "duration": 0.1633522291666658,
          "durationTicks": 46,
          "midi": 54,
          "name": "F#3",
          "ticks": 3744,
          "time": 13.295450999999998,
          "velocity": 0.5905511811023622
        },
        {
          "duration": 0.1633522291666658,
          "durationTicks": 46,
          "midi": 59,
          "name": "B3",
          "ticks": 3744,
          "time": 13.295450999999998,
          "velocity": 0.5905511811023622
        },
        {
          "duration": 0.1633522291666658,
          "durationTicks": 46,
          "midi": 64,
          "name": "E4",
          "ticks": 3744,
          "time": 13.295450999999998,
          "velocity": 0.5905511811023622
        },
        {
          "duration": 0.1633522291666658,
          "durationTicks": 46,
          "midi": 54,
          "name": "F#3",
          "ticks": 3792,
          "time": 13.465905499999998,
          "velocity": 0.5905511811023622
        },
        {
          "duration": 0.1633522291666658,
          "durationTicks": 46,
          "midi": 59,
          "name": "B3",
          "ticks": 3792,
          "time": 13.465905499999998,
          "velocity": 0.5905511811023622
        },
        {
          "duration": 0.1633522291666658,
          "durationTicks": 46,
          "midi": 63,
          "name": "D#4",
          "ticks": 3792,
          "time": 13.465905499999998,
          "velocity": 0.5905511811023622
        },
        {
          "duration": 0.33380672916666576,
          "durationTicks": 94,
          "midi": 54,
          "name": "F#3",
          "ticks": 3840,
          "time": 13.636359999999998,
          "velocity": 0.5905511811023622
        },
        {
          "duration": 0.33380672916666576,
          "durationTicks": 94,
          "midi": 59,
          "name": "B3",
          "ticks": 3840,
          "time": 13.636359999999998,
          "velocity": 0.5905511811023622
        },
        {
          "duration": 0.33380672916666576,
          "durationTicks": 94,
          "midi": 63,
          "name": "D#4",
          "ticks": 3840,
          "time": 13.636359999999998,
          "velocity": 0.5905511811023622
        },
        {
          "duration": 0.33380672916666576,
          "durationTicks": 94,
          "midi": 54,
          "name": "F#3",
          "ticks": 3936,
          "time": 13.977268999999998,
          "velocity": 0.5905511811023622
        },
        {
          "duration": 0.33380672916666576,
          "durationTicks": 94,
          "midi": 59,
          "name": "B3",
          "ticks": 3936,
          "time": 13.977268999999998,
          "velocity": 0.5905511811023622
        },
        {
          "duration": 0.33380672916666576,
          "durationTicks": 94,
          "midi": 63,
          "name": "D#4",
          "ticks": 3936,
          "time": 13.977268999999998,
          "velocity": 0.5905511811023622
        },
        {
          "duration": 0.33380672916666576,
          "durationTicks": 94,
          "midi": 54,
          "name": "F#3",
          "ticks": 4032,
          "time": 14.318177999999998,
          "velocity": 0.5905511811023622
        },
        {
          "duration": 0.33380672916666576,
          "durationTicks": 94,
          "midi": 59,
          "name": "B3",
          "ticks": 4032,
          "time": 14.318177999999998,
          "velocity": 0.5905511811023622
        },
        {
          "duration": 0.33380672916666576,
          "durationTicks": 94,
          "midi": 63,
          "name": "D#4",
          "ticks": 4032,
          "time": 14.318177999999998,
          "velocity": 0.5905511811023622
        },
        {
          "duration": 0.6747157291666657,
          "durationTicks": 190,
          "midi": 54,
          "name": "F#3",
          "ticks": 4128,
          "time": 14.659086999999998,
          "velocity": 0.5905511811023622
        },
        {
          "duration": 0.6747157291666657,
          "durationTicks": 190,
          "midi": 59,
          "name": "B3",
          "ticks": 4128,
          "time": 14.659086999999998,
          "velocity": 0.5905511811023622
        },
        {
          "duration": 0.6747157291666657,
          "durationTicks": 190,
          "midi": 63,
          "name": "D#4",
          "ticks": 4128,
          "time": 14.659086999999998,
          "velocity": 0.5905511811023622
        },
        {
          "duration": 0.33380672916666576,
          "durationTicks": 94,
          "midi": 54,
          "name": "F#3",
          "ticks": 4320,
          "time": 15.340904999999998,
          "velocity": 0.5905511811023622
        },
        {
          "duration": 0.33380672916666576,
          "durationTicks": 94,
          "midi": 59,
          "name": "B3",
          "ticks": 4320,
          "time": 15.340904999999998,
          "velocity": 0.5905511811023622
        },
        {
          "duration": 0.33380672916666576,
          "durationTicks": 94,
          "midi": 63,
          "name": "D#4",
          "ticks": 4320,
          "time": 15.340904999999998,
          "velocity": 0.5905511811023622
        },
        {
          "duration": 0.33380672916666576,
          "durationTicks": 94,
          "midi": 54,
          "name": "F#3",
          "ticks": 4416,
          "time": 15.681813999999997,
          "velocity": 0.5905511811023622
        },
        {
          "duration": 0.33380672916666576,
          "durationTicks": 94,
          "midi": 59,
          "name": "B3",
          "ticks": 4416,
          "time": 15.681813999999997,
          "velocity": 0.5905511811023622
        },
        {
          "duration": 0.33380672916666576,
          "durationTicks": 94,
          "midi": 63,
          "name": "D#4",
          "ticks": 4416,
          "time": 15.681813999999997,
          "velocity": 0.5905511811023622
        },
        {
          "duration": 0.333806729166664,
          "durationTicks": 94,
          "midi": 54,
          "name": "F#3",
          "ticks": 4512,
          "time": 16.022723,
          "velocity": 0.5905511811023622
        },
        {
          "duration": 0.333806729166664,
          "durationTicks": 94,
          "midi": 59,
          "name": "B3",
          "ticks": 4512,
          "time": 16.022723,
          "velocity": 0.5905511811023622
        },
        {
          "duration": 0.333806729166664,
          "durationTicks": 94,
          "midi": 63,
          "name": "D#4",
          "ticks": 4512,
          "time": 16.022723,
          "velocity": 0.5905511811023622
        },
        {
          "duration": 0.333806729166664,
          "durationTicks": 94,
          "midi": 54,
          "name": "F#3",
          "ticks": 4608,
          "time": 16.363632,
          "velocity": 0.5905511811023622
        },
        {
          "duration": 0.333806729166664,
          "durationTicks": 94,
          "midi": 59,
          "name": "B3",
          "ticks": 4608,
          "time": 16.363632,
          "velocity": 0.5905511811023622
        },
        {
          "duration": 0.333806729166664,
          "durationTicks": 94,
          "midi": 63,
          "name": "D#4",
          "ticks": 4608,
          "time": 16.363632,
          "velocity": 0.5905511811023622
        },
        {
          "duration": 0.333806729166664,
          "durationTicks": 94,
          "midi": 54,
          "name": "F#3",
          "ticks": 4704,
          "time": 16.704541,
          "velocity": 0.5905511811023622
        },
        {
          "duration": 0.333806729166664,
          "durationTicks": 94,
          "midi": 59,
          "name": "B3",
          "ticks": 4704,
          "time": 16.704541,
          "velocity": 0.5905511811023622
        },
        {
          "duration": 0.333806729166664,
          "durationTicks": 94,
          "midi": 63,
          "name": "D#4",
          "ticks": 4704,
          "time": 16.704541,
          "velocity": 0.5905511811023622
        },
        {
          "duration": 0.333806729166664,
          "durationTicks": 94,
          "midi": 54,
          "name": "F#3",
          "ticks": 4800,
          "time": 17.04545,
          "velocity": 0.5905511811023622
        },
        {
          "duration": 0.333806729166664,
          "durationTicks": 94,
          "midi": 59,
          "name": "B3",
          "ticks": 4800,
          "time": 17.04545,
          "velocity": 0.5905511811023622
        },
        {
          "duration": 0.333806729166664,
          "durationTicks": 94,
          "midi": 63,
          "name": "D#4",
          "ticks": 4800,
          "time": 17.04545,
          "velocity": 0.5905511811023622
        },
        {
          "duration": 0.6747157291666639,
          "durationTicks": 190,
          "midi": 54,
          "name": "F#3",
          "ticks": 4896,
          "time": 17.386359,
          "velocity": 0.5905511811023622
        },
        {
          "duration": 0.6747157291666639,
          "durationTicks": 190,
          "midi": 59,
          "name": "B3",
          "ticks": 4896,
          "time": 17.386359,
          "velocity": 0.5905511811023622
        },
        {
          "duration": 0.6747157291666639,
          "durationTicks": 190,
          "midi": 63,
          "name": "D#4",
          "ticks": 4896,
          "time": 17.386359,
          "velocity": 0.5905511811023622
        },
        {
          "duration": 0.333806729166664,
          "durationTicks": 94,
          "midi": 54,
          "name": "F#3",
          "ticks": 5088,
          "time": 18.068177,
          "velocity": 0.5905511811023622
        },
        {
          "duration": 0.333806729166664,
          "durationTicks": 94,
          "midi": 59,
          "name": "B3",
          "ticks": 5088,
          "time": 18.068177,
          "velocity": 0.5905511811023622
        },
        {
          "duration": 0.333806729166664,
          "durationTicks": 94,
          "midi": 63,
          "name": "D#4",
          "ticks": 5088,
          "time": 18.068177,
          "velocity": 0.5905511811023622
        },
        {
          "duration": 0.333806729166664,
          "durationTicks": 94,
          "midi": 54,
          "name": "F#3",
          "ticks": 5184,
          "time": 18.409086,
          "velocity": 0.5905511811023622
        },
        {
          "duration": 0.333806729166664,
          "durationTicks": 94,
          "midi": 59,
          "name": "B3",
          "ticks": 5184,
          "time": 18.409086,
          "velocity": 0.5905511811023622
        },
        {
          "duration": 0.333806729166664,
          "durationTicks": 94,
          "midi": 63,
          "name": "D#4",
          "ticks": 5184,
          "time": 18.409086,
          "velocity": 0.5905511811023622
        },
        {
          "duration": 0.333806729166664,
          "durationTicks": 94,
          "midi": 54,
          "name": "F#3",
          "ticks": 5280,
          "time": 18.749995,
          "velocity": 0.5905511811023622
        },
        {
          "duration": 0.333806729166664,
          "durationTicks": 94,
          "midi": 59,
          "name": "B3",
          "ticks": 5280,
          "time": 18.749995,
          "velocity": 0.5905511811023622
        },
        {
          "duration": 0.333806729166664,
          "durationTicks": 94,
          "midi": 63,
          "name": "D#4",
          "ticks": 5280,
          "time": 18.749995,
          "velocity": 0.5905511811023622
        },
        {
          "duration": 0.333806729166664,
          "durationTicks": 94,
          "midi": 54,
          "name": "F#3",
          "ticks": 5376,
          "time": 19.090904,
          "velocity": 0.5905511811023622
        },
        {
          "duration": 0.333806729166664,
          "durationTicks": 94,
          "midi": 58,
          "name": "A#3",
          "ticks": 5376,
          "time": 19.090904,
          "velocity": 0.5905511811023622
        },
        {
          "duration": 0.333806729166664,
          "durationTicks": 94,
          "midi": 61,
          "name": "C#4",
          "ticks": 5376,
          "time": 19.090904,
          "velocity": 0.5905511811023622
        },
        {
          "duration": 0.333806729166664,
          "durationTicks": 94,
          "midi": 66,
          "name": "F#4",
          "ticks": 5376,
          "time": 19.090904,
          "velocity": 0.5905511811023622
        },
        {
          "duration": 0.333806729166664,
          "durationTicks": 94,
          "midi": 54,
          "name": "F#3",
          "ticks": 5472,
          "time": 19.431813,
          "velocity": 0.5905511811023622
        },
        {
          "duration": 0.333806729166664,
          "durationTicks": 94,
          "midi": 58,
          "name": "A#3",
          "ticks": 5472,
          "time": 19.431813,
          "velocity": 0.5905511811023622
        },
        {
          "duration": 0.333806729166664,
          "durationTicks": 94,
          "midi": 61,
          "name": "C#4",
          "ticks": 5472,
          "time": 19.431813,
          "velocity": 0.5905511811023622
        },
        {
          "duration": 0.333806729166664,
          "durationTicks": 94,
          "midi": 66,
          "name": "F#4",
          "ticks": 5472,
          "time": 19.431813,
          "velocity": 0.5905511811023622
        },
        {
          "duration": 0.333806729166664,
          "durationTicks": 94,
          "midi": 54,
          "name": "F#3",
          "ticks": 5568,
          "time": 19.772721999999998,
          "velocity": 0.5905511811023622
        },
        {
          "duration": 0.333806729166664,
          "durationTicks": 94,
          "midi": 58,
          "name": "A#3",
          "ticks": 5568,
          "time": 19.772721999999998,
          "velocity": 0.5905511811023622
        },
        {
          "duration": 0.333806729166664,
          "durationTicks": 94,
          "midi": 61,
          "name": "C#4",
          "ticks": 5568,
          "time": 19.772721999999998,
          "velocity": 0.5905511811023622
        },
        {
          "duration": 0.333806729166664,
          "durationTicks": 94,
          "midi": 66,
          "name": "F#4",
          "ticks": 5568,
          "time": 19.772721999999998,
          "velocity": 0.5905511811023622
        },
        {
          "duration": 0.6747157291666639,
          "durationTicks": 190,
          "midi": 54,
          "name": "F#3",
          "ticks": 5664,
          "time": 20.113630999999998,
          "velocity": 0.5905511811023622
        },
        {
          "duration": 0.6747157291666639,
          "durationTicks": 190,
          "midi": 58,
          "name": "A#3",
          "ticks": 5664,
          "time": 20.113630999999998,
          "velocity": 0.5905511811023622
        },
        {
          "duration": 0.6747157291666639,
          "durationTicks": 190,
          "midi": 61,
          "name": "C#4",
          "ticks": 5664,
          "time": 20.113630999999998,
          "velocity": 0.5905511811023622
        },
        {
          "duration": 0.6747157291666639,
          "durationTicks": 190,
          "midi": 66,
          "name": "F#4",
          "ticks": 5664,
          "time": 20.113630999999998,
          "velocity": 0.5905511811023622
        },
        {
          "duration": 0.333806729166664,
          "durationTicks": 94,
          "midi": 54,
          "name": "F#3",
          "ticks": 5856,
          "time": 20.795448999999998,
          "velocity": 0.5905511811023622
        },
        {
          "duration": 0.333806729166664,
          "durationTicks": 94,
          "midi": 58,
          "name": "A#3",
          "ticks": 5856,
          "time": 20.795448999999998,
          "velocity": 0.5905511811023622
        },
        {
          "duration": 0.333806729166664,
          "durationTicks": 94,
          "midi": 61,
          "name": "C#4",
          "ticks": 5856,
          "time": 20.795448999999998,
          "velocity": 0.5905511811023622
        },
        {
          "duration": 0.333806729166664,
          "durationTicks": 94,
          "midi": 66,
          "name": "F#4",
          "ticks": 5856,
          "time": 20.795448999999998,
          "velocity": 0.5905511811023622
        },
        {
          "duration": 0.333806729166664,
          "durationTicks": 94,
          "midi": 54,
          "name": "F#3",
          "ticks": 5952,
          "time": 21.136357999999998,
          "velocity": 0.5905511811023622
        },
        {
          "duration": 0.333806729166664,
          "durationTicks": 94,
          "midi": 58,
          "name": "A#3",
          "ticks": 5952,
          "time": 21.136357999999998,
          "velocity": 0.5905511811023622
        },
        {
          "duration": 0.333806729166664,
          "durationTicks": 94,
          "midi": 61,
          "name": "C#4",
          "ticks": 5952,
          "time": 21.136357999999998,
          "velocity": 0.5905511811023622
        },
        {
          "duration": 0.333806729166664,
          "durationTicks": 94,
          "midi": 66,
          "name": "F#4",
          "ticks": 5952,
          "time": 21.136357999999998,
          "velocity": 0.5905511811023622
        },
        {
          "duration": 0.33380672916666754,
          "durationTicks": 94,
          "midi": 54,
          "name": "F#3",
          "ticks": 6048,
          "time": 21.477266999999998,
          "velocity": 0.5905511811023622
        },
        {
          "duration": 0.33380672916666754,
          "durationTicks": 94,
          "midi": 58,
          "name": "A#3",
          "ticks": 6048,
          "time": 21.477266999999998,
          "velocity": 0.5905511811023622
        },
        {
          "duration": 0.33380672916666754,
          "durationTicks": 94,
          "midi": 61,
          "name": "C#4",
          "ticks": 6048,
          "time": 21.477266999999998,
          "velocity": 0.5905511811023622
        },
        {
          "duration": 0.33380672916666754,
          "durationTicks": 94,
          "midi": 66,
          "name": "F#4",
          "ticks": 6048,
          "time": 21.477266999999998,
          "velocity": 0.5905511811023622
        },
        {
          "duration": 0.33380672916666754,
          "durationTicks": 94,
          "midi": 54,
          "name": "F#3",
          "ticks": 6144,
          "time": 21.818175999999998,
          "velocity": 0.5905511811023622
        },
        {
          "duration": 0.33380672916666754,
          "durationTicks": 94,
          "midi": 58,
          "name": "A#3",
          "ticks": 6144,
          "time": 21.818175999999998,
          "velocity": 0.5905511811023622
        },
        {
          "duration": 0.33380672916666754,
          "durationTicks": 94,
          "midi": 61,
          "name": "C#4",
          "ticks": 6144,
          "time": 21.818175999999998,
          "velocity": 0.5905511811023622
        },
        {
          "duration": 0.33380672916666754,
          "durationTicks": 94,
          "midi": 66,
          "name": "F#4",
          "ticks": 6144,
          "time": 21.818175999999998,
          "velocity": 0.5905511811023622
        },
        {
          "duration": 0.33380672916666754,
          "durationTicks": 94,
          "midi": 54,
          "name": "F#3",
          "ticks": 6240,
          "time": 22.159084999999997,
          "velocity": 0.5905511811023622
        },
        {
          "duration": 0.33380672916666754,
          "durationTicks": 94,
          "midi": 58,
          "name": "A#3",
          "ticks": 6240,
          "time": 22.159084999999997,
          "velocity": 0.5905511811023622
        },
        {
          "duration": 0.33380672916666754,
          "durationTicks": 94,
          "midi": 61,
          "name": "C#4",
          "ticks": 6240,
          "time": 22.159084999999997,
          "velocity": 0.5905511811023622
        },
        {
          "duration": 0.33380672916666754,
          "durationTicks": 94,
          "midi": 66,
          "name": "F#4",
          "ticks": 6240,
          "time": 22.159084999999997,
          "velocity": 0.5905511811023622
        },
        {
          "duration": 0.33380672916666754,
          "durationTicks": 94,
          "midi": 54,
          "name": "F#3",
          "ticks": 6336,
          "time": 22.499993999999997,
          "velocity": 0.5905511811023622
        },
        {
          "duration": 0.33380672916666754,
          "durationTicks": 94,
          "midi": 58,
          "name": "A#3",
          "ticks": 6336,
          "time": 22.499993999999997,
          "velocity": 0.5905511811023622
        },
        {
          "duration": 0.33380672916666754,
          "durationTicks": 94,
          "midi": 61,
          "name": "C#4",
          "ticks": 6336,
          "time": 22.499993999999997,
          "velocity": 0.5905511811023622
        },
        {
          "duration": 0.33380672916666754,
          "durationTicks": 94,
          "midi": 66,
          "name": "F#4",
          "ticks": 6336,
          "time": 22.499993999999997,
          "velocity": 0.5905511811023622
        },
        {
          "duration": 0.6747157291666674,
          "durationTicks": 190,
          "midi": 54,
          "name": "F#3",
          "ticks": 6432,
          "time": 22.840902999999997,
          "velocity": 0.5905511811023622
        },
        {
          "duration": 0.6747157291666674,
          "durationTicks": 190,
          "midi": 58,
          "name": "A#3",
          "ticks": 6432,
          "time": 22.840902999999997,
          "velocity": 0.5905511811023622
        },
        {
          "duration": 0.6747157291666674,
          "durationTicks": 190,
          "midi": 61,
          "name": "C#4",
          "ticks": 6432,
          "time": 22.840902999999997,
          "velocity": 0.5905511811023622
        },
        {
          "duration": 0.6747157291666674,
          "durationTicks": 190,
          "midi": 66,
          "name": "F#4",
          "ticks": 6432,
          "time": 22.840902999999997,
          "velocity": 0.5905511811023622
        },
        {
          "duration": 0.33380672916666754,
          "durationTicks": 94,
          "midi": 54,
          "name": "F#3",
          "ticks": 6624,
          "time": 23.522720999999997,
          "velocity": 0.5905511811023622
        },
        {
          "duration": 0.33380672916666754,
          "durationTicks": 94,
          "midi": 58,
          "name": "A#3",
          "ticks": 6624,
          "time": 23.522720999999997,
          "velocity": 0.5905511811023622
        },
        {
          "duration": 0.33380672916666754,
          "durationTicks": 94,
          "midi": 61,
          "name": "C#4",
          "ticks": 6624,
          "time": 23.522720999999997,
          "velocity": 0.5905511811023622
        },
        {
          "duration": 0.33380672916666754,
          "durationTicks": 94,
          "midi": 66,
          "name": "F#4",
          "ticks": 6624,
          "time": 23.522720999999997,
          "velocity": 0.5905511811023622
        },
        {
          "duration": 0.33380672916666754,
          "durationTicks": 94,
          "midi": 54,
          "name": "F#3",
          "ticks": 6720,
          "time": 23.863629999999997,
          "velocity": 0.5905511811023622
        },
        {
          "duration": 0.33380672916666754,
          "durationTicks": 94,
          "midi": 58,
          "name": "A#3",
          "ticks": 6720,
          "time": 23.863629999999997,
          "velocity": 0.5905511811023622
        },
        {
          "duration": 0.33380672916666754,
          "durationTicks": 94,
          "midi": 61,
          "name": "C#4",
          "ticks": 6720,
          "time": 23.863629999999997,
          "velocity": 0.5905511811023622
        },
        {
          "duration": 0.33380672916666754,
          "durationTicks": 94,
          "midi": 66,
          "name": "F#4",
          "ticks": 6720,
          "time": 23.863629999999997,
          "velocity": 0.5905511811023622
        },
        {
          "duration": 0.33380672916666754,
          "durationTicks": 94,
          "midi": 54,
          "name": "F#3",
          "ticks": 6816,
          "time": 24.204538999999997,
          "velocity": 0.5905511811023622
        },
        {
          "duration": 0.33380672916666754,
          "durationTicks": 94,
          "midi": 58,
          "name": "A#3",
          "ticks": 6816,
          "time": 24.204538999999997,
          "velocity": 0.5905511811023622
        },
        {
          "duration": 0.33380672916666754,
          "durationTicks": 94,
          "midi": 61,
          "name": "C#4",
          "ticks": 6816,
          "time": 24.204538999999997,
          "velocity": 0.5905511811023622
        },
        {
          "duration": 0.33380672916666754,
          "durationTicks": 94,
          "midi": 66,
          "name": "F#4",
          "ticks": 6816,
          "time": 24.204538999999997,
          "velocity": 0.5905511811023622
        },
        {
          "duration": 0.33380672916666754,
          "durationTicks": 94,
          "midi": 52,
          "name": "E3",
          "ticks": 6912,
          "time": 24.545447999999997,
          "velocity": 0.5905511811023622
        },
        {
          "duration": 0.33380672916666754,
          "durationTicks": 94,
          "midi": 56,
          "name": "G#3",
          "ticks": 6912,
          "time": 24.545447999999997,
          "velocity": 0.5905511811023622
        },
        {
          "duration": 0.33380672916666754,
          "durationTicks": 94,
          "midi": 59,
          "name": "B3",
          "ticks": 6912,
          "time": 24.545447999999997,
          "velocity": 0.5905511811023622
        },
        {
          "duration": 0.33380672916666754,
          "durationTicks": 94,
          "midi": 64,
          "name": "E4",
          "ticks": 6912,
          "time": 24.545447999999997,
          "velocity": 0.5905511811023622
        },
        {
          "duration": 0.33380672916666754,
          "durationTicks": 94,
          "midi": 52,
          "name": "E3",
          "ticks": 7008,
          "time": 24.886356999999997,
          "velocity": 0.5905511811023622
        },
        {
          "duration": 0.33380672916666754,
          "durationTicks": 94,
          "midi": 56,
          "name": "G#3",
          "ticks": 7008,
          "time": 24.886356999999997,
          "velocity": 0.5905511811023622
        },
        {
          "duration": 0.33380672916666754,
          "durationTicks": 94,
          "midi": 59,
          "name": "B3",
          "ticks": 7008,
          "time": 24.886356999999997,
          "velocity": 0.5905511811023622
        },
        {
          "duration": 0.33380672916666754,
          "durationTicks": 94,
          "midi": 64,
          "name": "E4",
          "ticks": 7008,
          "time": 24.886356999999997,
          "velocity": 0.5905511811023622
        },
        {
          "duration": 0.33380672916666754,
          "durationTicks": 94,
          "midi": 52,
          "name": "E3",
          "ticks": 7104,
          "time": 25.227265999999997,
          "velocity": 0.5905511811023622
        },
        {
          "duration": 0.33380672916666754,
          "durationTicks": 94,
          "midi": 56,
          "name": "G#3",
          "ticks": 7104,
          "time": 25.227265999999997,
          "velocity": 0.5905511811023622
        },
        {
          "duration": 0.33380672916666754,
          "durationTicks": 94,
          "midi": 59,
          "name": "B3",
          "ticks": 7104,
          "time": 25.227265999999997,
          "velocity": 0.5905511811023622
        },
        {
          "duration": 0.33380672916666754,
          "durationTicks": 94,
          "midi": 64,
          "name": "E4",
          "ticks": 7104,
          "time": 25.227265999999997,
          "velocity": 0.5905511811023622
        },
        {
          "duration": 0.6747157291666674,
          "durationTicks": 190,
          "midi": 52,
          "name": "E3",
          "ticks": 7200,
          "time": 25.568174999999997,
          "velocity": 0.5905511811023622
        },
        {
          "duration": 0.6747157291666674,
          "durationTicks": 190,
          "midi": 56,
          "name": "G#3",
          "ticks": 7200,
          "time": 25.568174999999997,
          "velocity": 0.5905511811023622
        },
        {
          "duration": 0.6747157291666674,
          "durationTicks": 190,
          "midi": 59,
          "name": "B3",
          "ticks": 7200,
          "time": 25.568174999999997,
          "velocity": 0.5905511811023622
        },
        {
          "duration": 0.6747157291666674,
          "durationTicks": 190,
          "midi": 64,
          "name": "E4",
          "ticks": 7200,
          "time": 25.568174999999997,
          "velocity": 0.5905511811023622
        },
        {
          "duration": 0.33380672916666754,
          "durationTicks": 94,
          "midi": 52,
          "name": "E3",
          "ticks": 7392,
          "time": 26.249992999999996,
          "velocity": 0.5905511811023622
        },
        {
          "duration": 0.33380672916666754,
          "durationTicks": 94,
          "midi": 56,
          "name": "G#3",
          "ticks": 7392,
          "time": 26.249992999999996,
          "velocity": 0.5905511811023622
        },
        {
          "duration": 0.33380672916666754,
          "durationTicks": 94,
          "midi": 59,
          "name": "B3",
          "ticks": 7392,
          "time": 26.249992999999996,
          "velocity": 0.5905511811023622
        },
        {
          "duration": 0.33380672916666754,
          "durationTicks": 94,
          "midi": 64,
          "name": "E4",
          "ticks": 7392,
          "time": 26.249992999999996,
          "velocity": 0.5905511811023622
        },
        {
          "duration": 0.33380672916666754,
          "durationTicks": 94,
          "midi": 52,
          "name": "E3",
          "ticks": 7488,
          "time": 26.590901999999996,
          "velocity": 0.5905511811023622
        },
        {
          "duration": 0.33380672916666754,
          "durationTicks": 94,
          "midi": 56,
          "name": "G#3",
          "ticks": 7488,
          "time": 26.590901999999996,
          "velocity": 0.5905511811023622
        },
        {
          "duration": 0.33380672916666754,
          "durationTicks": 94,
          "midi": 59,
          "name": "B3",
          "ticks": 7488,
          "time": 26.590901999999996,
          "velocity": 0.5905511811023622
        },
        {
          "duration": 0.33380672916666754,
          "durationTicks": 94,
          "midi": 64,
          "name": "E4",
          "ticks": 7488,
          "time": 26.590901999999996,
          "velocity": 0.5905511811023622
        },
        {
          "duration": 0.33380672916666754,
          "durationTicks": 94,
          "midi": 52,
          "name": "E3",
          "ticks": 7584,
          "time": 26.931810999999996,
          "velocity": 0.5905511811023622
        },
        {
          "duration": 0.33380672916666754,
          "durationTicks": 94,
          "midi": 56,
          "name": "G#3",
          "ticks": 7584,
          "time": 26.931810999999996,
          "velocity": 0.5905511811023622
        },
        {
          "duration": 0.33380672916666754,
          "durationTicks": 94,
          "midi": 59,
          "name": "B3",
          "ticks": 7584,
          "time": 26.931810999999996,
          "velocity": 0.5905511811023622
        },
        {
          "duration": 0.33380672916666754,
          "durationTicks": 94,
          "midi": 64,
          "name": "E4",
          "ticks": 7584,
          "time": 26.931810999999996,
          "velocity": 0.5905511811023622
        },
        {
          "duration": 0.33380672916666754,
          "durationTicks": 94,
          "midi": 52,
          "name": "E3",
          "ticks": 7680,
          "time": 27.272719999999996,
          "velocity": 0.5905511811023622
        },
        {
          "duration": 0.33380672916666754,
          "durationTicks": 94,
          "midi": 56,
          "name": "G#3",
          "ticks": 7680,
          "time": 27.272719999999996,
          "velocity": 0.5905511811023622
        },
        {
          "duration": 0.33380672916666754,
          "durationTicks": 94,
          "midi": 59,
          "name": "B3",
          "ticks": 7680,
          "time": 27.272719999999996,
          "velocity": 0.5905511811023622
        },
        {
          "duration": 0.33380672916666754,
          "durationTicks": 94,
          "midi": 64,
          "name": "E4",
          "ticks": 7680,
          "time": 27.272719999999996,
          "velocity": 0.5905511811023622
        },
        {
          "duration": 0.33380672916666754,
          "durationTicks": 94,
          "midi": 52,
          "name": "E3",
          "ticks": 7776,
          "time": 27.613628999999996,
          "velocity": 0.5905511811023622
        },
        {
          "duration": 0.33380672916666754,
          "durationTicks": 94,
          "midi": 56,
          "name": "G#3",
          "ticks": 7776,
          "time": 27.613628999999996,
          "velocity": 0.5905511811023622
        },
        {
          "duration": 0.33380672916666754,
          "durationTicks": 94,
          "midi": 59,
          "name": "B3",
          "ticks": 7776,
          "time": 27.613628999999996,
          "velocity": 0.5905511811023622
        },
        {
          "duration": 0.33380672916666754,
          "durationTicks": 94,
          "midi": 64,
          "name": "E4",
          "ticks": 7776,
          "time": 27.613628999999996,
          "velocity": 0.5905511811023622
        },
        {
          "duration": 0.33380672916666754,
          "durationTicks": 94,
          "midi": 52,
          "name": "E3",
          "ticks": 7872,
          "time": 27.954537999999996,
          "velocity": 0.5905511811023622
        },
        {
          "duration": 0.33380672916666754,
          "durationTicks": 94,
          "midi": 56,
          "name": "G#3",
          "ticks": 7872,
          "time": 27.954537999999996,
          "velocity": 0.5905511811023622
        },
        {
          "duration": 0.33380672916666754,
          "durationTicks": 94,
          "midi": 59,
          "name": "B3",
          "ticks": 7872,
          "time": 27.954537999999996,
          "velocity": 0.5905511811023622
        },
        {
          "duration": 0.33380672916666754,
          "durationTicks": 94,
          "midi": 64,
          "name": "E4",
          "ticks": 7872,
          "time": 27.954537999999996,
          "velocity": 0.5905511811023622
        },
        {
          "duration": 0.674715729166671,
          "durationTicks": 190,
          "midi": 52,
          "name": "E3",
          "ticks": 7968,
          "time": 28.295446999999996,
          "velocity": 0.5905511811023622
        },
        {
          "duration": 0.674715729166671,
          "durationTicks": 190,
          "midi": 56,
          "name": "G#3",
          "ticks": 7968,
          "time": 28.295446999999996,
          "velocity": 0.5905511811023622
        },
        {
          "duration": 0.674715729166671,
          "durationTicks": 190,
          "midi": 59,
          "name": "B3",
          "ticks": 7968,
          "time": 28.295446999999996,
          "velocity": 0.5905511811023622
        },
        {
          "duration": 0.674715729166671,
          "durationTicks": 190,
          "midi": 64,
          "name": "E4",
          "ticks": 7968,
          "time": 28.295446999999996,
          "velocity": 0.5905511811023622
        },
        {
          "duration": 0.3338067291666711,
          "durationTicks": 94,
          "midi": 52,
          "name": "E3",
          "ticks": 8160,
          "time": 28.977264999999996,
          "velocity": 0.5905511811023622
        },
        {
          "duration": 0.3338067291666711,
          "durationTicks": 94,
          "midi": 56,
          "name": "G#3",
          "ticks": 8160,
          "time": 28.977264999999996,
          "velocity": 0.5905511811023622
        },
        {
          "duration": 0.3338067291666711,
          "durationTicks": 94,
          "midi": 59,
          "name": "B3",
          "ticks": 8160,
          "time": 28.977264999999996,
          "velocity": 0.5905511811023622
        },
        {
          "duration": 0.3338067291666711,
          "durationTicks": 94,
          "midi": 64,
          "name": "E4",
          "ticks": 8160,
          "time": 28.977264999999996,
          "velocity": 0.5905511811023622
        },
        {
          "duration": 0.3338067291666711,
          "durationTicks": 94,
          "midi": 52,
          "name": "E3",
          "ticks": 8256,
          "time": 29.318173999999996,
          "velocity": 0.5905511811023622
        },
        {
          "duration": 0.3338067291666711,
          "durationTicks": 94,
          "midi": 56,
          "name": "G#3",
          "ticks": 8256,
          "time": 29.318173999999996,
          "velocity": 0.5905511811023622
        },
        {
          "duration": 0.3338067291666711,
          "durationTicks": 94,
          "midi": 59,
          "name": "B3",
          "ticks": 8256,
          "time": 29.318173999999996,
          "velocity": 0.5905511811023622
        },
        {
          "duration": 0.3338067291666711,
          "durationTicks": 94,
          "midi": 64,
          "name": "E4",
          "ticks": 8256,
          "time": 29.318173999999996,
          "velocity": 0.5905511811023622
        },
        {
          "duration": 0.3338067291666711,
          "durationTicks": 94,
          "midi": 52,
          "name": "E3",
          "ticks": 8352,
          "time": 29.659082999999995,
          "velocity": 0.5905511811023622
        },
        {
          "duration": 0.3338067291666711,
          "durationTicks": 94,
          "midi": 56,
          "name": "G#3",
          "ticks": 8352,
          "time": 29.659082999999995,
          "velocity": 0.5905511811023622
        },
        {
          "duration": 0.3338067291666711,
          "durationTicks": 94,
          "midi": 59,
          "name": "B3",
          "ticks": 8352,
          "time": 29.659082999999995,
          "velocity": 0.5905511811023622
        },
        {
          "duration": 0.3338067291666711,
          "durationTicks": 94,
          "midi": 64,
          "name": "E4",
          "ticks": 8352,
          "time": 29.659082999999995,
          "velocity": 0.5905511811023622
        },
        {
          "duration": 0.3338067291666711,
          "durationTicks": 94,
          "midi": 54,
          "name": "F#3",
          "ticks": 8448,
          "time": 29.999991999999995,
          "velocity": 0.5905511811023622
        },
        {
          "duration": 0.3338067291666711,
          "durationTicks": 94,
          "midi": 59,
          "name": "B3",
          "ticks": 8448,
          "time": 29.999991999999995,
          "velocity": 0.5905511811023622
        },
        {
          "duration": 0.3338067291666711,
          "durationTicks": 94,
          "midi": 63,
          "name": "D#4",
          "ticks": 8448,
          "time": 29.999991999999995,
          "velocity": 0.5905511811023622
        },
        {
          "duration": 0.3338067291666711,
          "durationTicks": 94,
          "midi": 54,
          "name": "F#3",
          "ticks": 8544,
          "time": 30.340900999999995,
          "velocity": 0.5905511811023622
        },
        {
          "duration": 0.3338067291666711,
          "durationTicks": 94,
          "midi": 59,
          "name": "B3",
          "ticks": 8544,
          "time": 30.340900999999995,
          "velocity": 0.5905511811023622
        },
        {
          "duration": 0.3338067291666711,
          "durationTicks": 94,
          "midi": 63,
          "name": "D#4",
          "ticks": 8544,
          "time": 30.340900999999995,
          "velocity": 0.5905511811023622
        },
        {
          "duration": 0.3338067291666711,
          "durationTicks": 94,
          "midi": 54,
          "name": "F#3",
          "ticks": 8640,
          "time": 30.681809999999995,
          "velocity": 0.5905511811023622
        },
        {
          "duration": 0.3338067291666711,
          "durationTicks": 94,
          "midi": 59,
          "name": "B3",
          "ticks": 8640,
          "time": 30.681809999999995,
          "velocity": 0.5905511811023622
        },
        {
          "duration": 0.3338067291666711,
          "durationTicks": 94,
          "midi": 63,
          "name": "D#4",
          "ticks": 8640,
          "time": 30.681809999999995,
          "velocity": 0.5905511811023622
        },
        {
          "duration": 0.674715729166671,
          "durationTicks": 190,
          "midi": 54,
          "name": "F#3",
          "ticks": 8736,
          "time": 31.022718999999995,
          "velocity": 0.5905511811023622
        },
        {
          "duration": 0.674715729166671,
          "durationTicks": 190,
          "midi": 59,
          "name": "B3",
          "ticks": 8736,
          "time": 31.022718999999995,
          "velocity": 0.5905511811023622
        },
        {
          "duration": 0.674715729166671,
          "durationTicks": 190,
          "midi": 63,
          "name": "D#4",
          "ticks": 8736,
          "time": 31.022718999999995,
          "velocity": 0.5905511811023622
        },
        {
          "duration": 0.33380672916666754,
          "durationTicks": 94,
          "midi": 54,
          "name": "F#3",
          "ticks": 8928,
          "time": 31.704536999999995,
          "velocity": 0.5905511811023622
        },
        {
          "duration": 0.33380672916666754,
          "durationTicks": 94,
          "midi": 59,
          "name": "B3",
          "ticks": 8928,
          "time": 31.704536999999995,
          "velocity": 0.5905511811023622
        },
        {
          "duration": 0.33380672916666754,
          "durationTicks": 94,
          "midi": 63,
          "name": "D#4",
          "ticks": 8928,
          "time": 31.704536999999995,
          "velocity": 0.5905511811023622
        },
        {
          "duration": 0.33380672916666754,
          "durationTicks": 94,
          "midi": 54,
          "name": "F#3",
          "ticks": 9024,
          "time": 32.045446,
          "velocity": 0.5905511811023622
        },
        {
          "duration": 0.33380672916666754,
          "durationTicks": 94,
          "midi": 59,
          "name": "B3",
          "ticks": 9024,
          "time": 32.045446,
          "velocity": 0.5905511811023622
        },
        {
          "duration": 0.33380672916666754,
          "durationTicks": 94,
          "midi": 63,
          "name": "D#4",
          "ticks": 9024,
          "time": 32.045446,
          "velocity": 0.5905511811023622
        },
        {
          "duration": 0.33380672916666754,
          "durationTicks": 94,
          "midi": 54,
          "name": "F#3",
          "ticks": 9120,
          "time": 32.386354999999995,
          "velocity": 0.5905511811023622
        },
        {
          "duration": 0.33380672916666754,
          "durationTicks": 94,
          "midi": 59,
          "name": "B3",
          "ticks": 9120,
          "time": 32.386354999999995,
          "velocity": 0.5905511811023622
        },
        {
          "duration": 0.33380672916666754,
          "durationTicks": 94,
          "midi": 63,
          "name": "D#4",
          "ticks": 9120,
          "time": 32.386354999999995,
          "velocity": 0.5905511811023622
        },
        {
          "duration": 0.33380672916666754,
          "durationTicks": 94,
          "midi": 54,
          "name": "F#3",
          "ticks": 9216,
          "time": 32.727264,
          "velocity": 0.5905511811023622
        },
        {
          "duration": 0.33380672916666754,
          "durationTicks": 94,
          "midi": 59,
          "name": "B3",
          "ticks": 9216,
          "time": 32.727264,
          "velocity": 0.5905511811023622
        },
        {
          "duration": 0.33380672916666754,
          "durationTicks": 94,
          "midi": 63,
          "name": "D#4",
          "ticks": 9216,
          "time": 32.727264,
          "velocity": 0.5905511811023622
        },
        {
          "duration": 0.33380672916666754,
          "durationTicks": 94,
          "midi": 54,
          "name": "F#3",
          "ticks": 9312,
          "time": 33.068172999999994,
          "velocity": 0.5905511811023622
        },
        {
          "duration": 0.33380672916666754,
          "durationTicks": 94,
          "midi": 59,
          "name": "B3",
          "ticks": 9312,
          "time": 33.068172999999994,
          "velocity": 0.5905511811023622
        },
        {
          "duration": 0.33380672916666754,
          "durationTicks": 94,
          "midi": 63,
          "name": "D#4",
          "ticks": 9312,
          "time": 33.068172999999994,
          "velocity": 0.5905511811023622
        },
        {
          "duration": 0.33380672916666754,
          "durationTicks": 94,
          "midi": 54,
          "name": "F#3",
          "ticks": 9408,
          "time": 33.409082,
          "velocity": 0.5905511811023622
        },
        {
          "duration": 0.33380672916666754,
          "durationTicks": 94,
          "midi": 59,
          "name": "B3",
          "ticks": 9408,
          "time": 33.409082,
          "velocity": 0.5905511811023622
        },
        {
          "duration": 0.33380672916666754,
          "durationTicks": 94,
          "midi": 63,
          "name": "D#4",
          "ticks": 9408,
          "time": 33.409082,
          "velocity": 0.5905511811023622
        },
        {
          "duration": 0.674715729166671,
          "durationTicks": 190,
          "midi": 54,
          "name": "F#3",
          "ticks": 9504,
          "time": 33.749990999999994,
          "velocity": 0.5905511811023622
        },
        {
          "duration": 0.674715729166671,
          "durationTicks": 190,
          "midi": 59,
          "name": "B3",
          "ticks": 9504,
          "time": 33.749990999999994,
          "velocity": 0.5905511811023622
        },
        {
          "duration": 0.674715729166671,
          "durationTicks": 190,
          "midi": 63,
          "name": "D#4",
          "ticks": 9504,
          "time": 33.749990999999994,
          "velocity": 0.5905511811023622
        },
        {
          "duration": 0.33380672916666754,
          "durationTicks": 94,
          "midi": 54,
          "name": "F#3",
          "ticks": 9696,
          "time": 34.431808999999994,
          "velocity": 0.5905511811023622
        },
        {
          "duration": 0.33380672916666754,
          "durationTicks": 94,
          "midi": 59,
          "name": "B3",
          "ticks": 9696,
          "time": 34.431808999999994,
          "velocity": 0.5905511811023622
        },
        {
          "duration": 0.33380672916666754,
          "durationTicks": 94,
          "midi": 63,
          "name": "D#4",
          "ticks": 9696,
          "time": 34.431808999999994,
          "velocity": 0.5905511811023622
        },
        {
          "duration": 0.33380672916666754,
          "durationTicks": 94,
          "midi": 54,
          "name": "F#3",
          "ticks": 9792,
          "time": 34.772718,
          "velocity": 0.5905511811023622
        },
        {
          "duration": 0.33380672916666754,
          "durationTicks": 94,
          "midi": 59,
          "name": "B3",
          "ticks": 9792,
          "time": 34.772718,
          "velocity": 0.5905511811023622
        },
        {
          "duration": 0.33380672916666754,
          "durationTicks": 94,
          "midi": 63,
          "name": "D#4",
          "ticks": 9792,
          "time": 34.772718,
          "velocity": 0.5905511811023622
        },
        {
          "duration": 0.33380672916666754,
          "durationTicks": 94,
          "midi": 54,
          "name": "F#3",
          "ticks": 9888,
          "time": 35.113626999999994,
          "velocity": 0.5905511811023622
        },
        {
          "duration": 0.33380672916666754,
          "durationTicks": 94,
          "midi": 59,
          "name": "B3",
          "ticks": 9888,
          "time": 35.113626999999994,
          "velocity": 0.5905511811023622
        },
        {
          "duration": 0.33380672916666754,
          "durationTicks": 94,
          "midi": 63,
          "name": "D#4",
          "ticks": 9888,
          "time": 35.113626999999994,
          "velocity": 0.5905511811023622
        },
        {
          "duration": 0.33380672916666754,
          "durationTicks": 94,
          "midi": 54,
          "name": "F#3",
          "ticks": 9984,
          "time": 35.454536,
          "velocity": 0.5905511811023622
        },
        {
          "duration": 0.33380672916666754,
          "durationTicks": 94,
          "midi": 59,
          "name": "B3",
          "ticks": 9984,
          "time": 35.454536,
          "velocity": 0.5905511811023622
        },
        {
          "duration": 0.33380672916666754,
          "durationTicks": 94,
          "midi": 63,
          "name": "D#4",
          "ticks": 9984,
          "time": 35.454536,
          "velocity": 0.5905511811023622
        },
        {
          "duration": 0.33380672916666754,
          "durationTicks": 94,
          "midi": 54,
          "name": "F#3",
          "ticks": 10080,
          "time": 35.795444999999994,
          "velocity": 0.5905511811023622
        },
        {
          "duration": 0.33380672916666754,
          "durationTicks": 94,
          "midi": 59,
          "name": "B3",
          "ticks": 10080,
          "time": 35.795444999999994,
          "velocity": 0.5905511811023622
        },
        {
          "duration": 0.33380672916666754,
          "durationTicks": 94,
          "midi": 63,
          "name": "D#4",
          "ticks": 10080,
          "time": 35.795444999999994,
          "velocity": 0.5905511811023622
        },
        {
          "duration": 0.33380672916666754,
          "durationTicks": 94,
          "midi": 54,
          "name": "F#3",
          "ticks": 10176,
          "time": 36.136354,
          "velocity": 0.5905511811023622
        },
        {
          "duration": 0.33380672916666754,
          "durationTicks": 94,
          "midi": 59,
          "name": "B3",
          "ticks": 10176,
          "time": 36.136354,
          "velocity": 0.5905511811023622
        },
        {
          "duration": 0.33380672916666754,
          "durationTicks": 94,
          "midi": 63,
          "name": "D#4",
          "ticks": 10176,
          "time": 36.136354,
          "velocity": 0.5905511811023622
        },
        {
          "duration": 0.33380672916666754,
          "durationTicks": 94,
          "midi": 54,
          "name": "F#3",
          "ticks": 10272,
          "time": 36.477262999999994,
          "velocity": 0.5905511811023622
        },
        {
          "duration": 0.33380672916666754,
          "durationTicks": 94,
          "midi": 59,
          "name": "B3",
          "ticks": 10272,
          "time": 36.477262999999994,
          "velocity": 0.5905511811023622
        },
        {
          "duration": 0.33380672916666754,
          "durationTicks": 94,
          "midi": 63,
          "name": "D#4",
          "ticks": 10272,
          "time": 36.477262999999994,
          "velocity": 0.5905511811023622
        },
        {
          "duration": 0.33380672916666754,
          "durationTicks": 94,
          "midi": 54,
          "name": "F#3",
          "ticks": 10368,
          "time": 36.818172,
          "velocity": 0.5905511811023622
        },
        {
          "duration": 0.33380672916666754,
          "durationTicks": 94,
          "midi": 59,
          "name": "B3",
          "ticks": 10368,
          "time": 36.818172,
          "velocity": 0.5905511811023622
        },
        {
          "duration": 0.33380672916666754,
          "durationTicks": 94,
          "midi": 63,
          "name": "D#4",
          "ticks": 10368,
          "time": 36.818172,
          "velocity": 0.5905511811023622
        },
        {
          "duration": 0.33380672916666754,
          "durationTicks": 94,
          "midi": 54,
          "name": "F#3",
          "ticks": 10464,
          "time": 37.15908099999999,
          "velocity": 0.5905511811023622
        },
        {
          "duration": 0.33380672916666754,
          "durationTicks": 94,
          "midi": 59,
          "name": "B3",
          "ticks": 10464,
          "time": 37.15908099999999,
          "velocity": 0.5905511811023622
        },
        {
          "duration": 0.33380672916666754,
          "durationTicks": 94,
          "midi": 63,
          "name": "D#4",
          "ticks": 10464,
          "time": 37.15908099999999,
          "velocity": 0.5905511811023622
        },
        {
          "duration": 0.33380672916666754,
          "durationTicks": 94,
          "midi": 54,
          "name": "F#3",
          "ticks": 10560,
          "time": 37.49999,
          "velocity": 0.5905511811023622
        },
        {
          "duration": 0.33380672916666754,
          "durationTicks": 94,
          "midi": 59,
          "name": "B3",
          "ticks": 10560,
          "time": 37.49999,
          "velocity": 0.5905511811023622
        },
        {
          "duration": 0.33380672916666754,
          "durationTicks": 94,
          "midi": 63,
          "name": "D#4",
          "ticks": 10560,
          "time": 37.49999,
          "velocity": 0.5905511811023622
        },
        {
          "duration": 0.33380672916666754,
          "durationTicks": 94,
          "midi": 54,
          "name": "F#3",
          "ticks": 10656,
          "time": 37.84089899999999,
          "velocity": 0.5905511811023622
        },
        {
          "duration": 0.33380672916666754,
          "durationTicks": 94,
          "midi": 59,
          "name": "B3",
          "ticks": 10656,
          "time": 37.84089899999999,
          "velocity": 0.5905511811023622
        },
        {
          "duration": 0.33380672916666754,
          "durationTicks": 94,
          "midi": 63,
          "name": "D#4",
          "ticks": 10656,
          "time": 37.84089899999999,
          "velocity": 0.5905511811023622
        },
        {
          "duration": 0.33380672916666754,
          "durationTicks": 94,
          "midi": 54,
          "name": "F#3",
          "ticks": 10752,
          "time": 38.181808,
          "velocity": 0.5905511811023622
        },
        {
          "duration": 0.33380672916666754,
          "durationTicks": 94,
          "midi": 59,
          "name": "B3",
          "ticks": 10752,
          "time": 38.181808,
          "velocity": 0.5905511811023622
        },
        {
          "duration": 0.33380672916666754,
          "durationTicks": 94,
          "midi": 63,
          "name": "D#4",
          "ticks": 10752,
          "time": 38.181808,
          "velocity": 0.5905511811023622
        },
        {
          "duration": 0.33380672916666754,
          "durationTicks": 94,
          "midi": 54,
          "name": "F#3",
          "ticks": 10848,
          "time": 38.52271699999999,
          "velocity": 0.5905511811023622
        },
        {
          "duration": 0.33380672916666754,
          "durationTicks": 94,
          "midi": 59,
          "name": "B3",
          "ticks": 10848,
          "time": 38.52271699999999,
          "velocity": 0.5905511811023622
        },
        {
          "duration": 0.33380672916666754,
          "durationTicks": 94,
          "midi": 63,
          "name": "D#4",
          "ticks": 10848,
          "time": 38.52271699999999,
          "velocity": 0.5905511811023622
        },
        {
          "duration": 0.33380672916666754,
          "durationTicks": 94,
          "midi": 54,
          "name": "F#3",
          "ticks": 10944,
          "time": 38.863626,
          "velocity": 0.5905511811023622
        },
        {
          "duration": 0.33380672916666754,
          "durationTicks": 94,
          "midi": 59,
          "name": "B3",
          "ticks": 10944,
          "time": 38.863626,
          "velocity": 0.5905511811023622
        },
        {
          "duration": 0.33380672916666754,
          "durationTicks": 94,
          "midi": 63,
          "name": "D#4",
          "ticks": 10944,
          "time": 38.863626,
          "velocity": 0.5905511811023622
        },
        {
          "duration": 0.33380672916666754,
          "durationTicks": 94,
          "midi": 54,
          "name": "F#3",
          "ticks": 11040,
          "time": 39.20453499999999,
          "velocity": 0.5905511811023622
        },
        {
          "duration": 0.33380672916666754,
          "durationTicks": 94,
          "midi": 59,
          "name": "B3",
          "ticks": 11040,
          "time": 39.20453499999999,
          "velocity": 0.5905511811023622
        },
        {
          "duration": 0.33380672916666754,
          "durationTicks": 94,
          "midi": 63,
          "name": "D#4",
          "ticks": 11040,
          "time": 39.20453499999999,
          "velocity": 0.5905511811023622
        },
        {
          "duration": 0.33380672916666754,
          "durationTicks": 94,
          "midi": 54,
          "name": "F#3",
          "ticks": 11136,
          "time": 39.545443999999996,
          "velocity": 0.5905511811023622
        },
        {
          "duration": 0.33380672916666754,
          "durationTicks": 94,
          "midi": 59,
          "name": "B3",
          "ticks": 11136,
          "time": 39.545443999999996,
          "velocity": 0.5905511811023622
        },
        {
          "duration": 0.33380672916666754,
          "durationTicks": 94,
          "midi": 63,
          "name": "D#4",
          "ticks": 11136,
          "time": 39.545443999999996,
          "velocity": 0.5905511811023622
        },
        {
          "duration": 0.33380672916667464,
          "durationTicks": 94,
          "midi": 54,
          "name": "F#3",
          "ticks": 11232,
          "time": 39.88635299999999,
          "velocity": 0.5905511811023622
        },
        {
          "duration": 0.33380672916667464,
          "durationTicks": 94,
          "midi": 59,
          "name": "B3",
          "ticks": 11232,
          "time": 39.88635299999999,
          "velocity": 0.5905511811023622
        },
        {
          "duration": 0.33380672916667464,
          "durationTicks": 94,
          "midi": 63,
          "name": "D#4",
          "ticks": 11232,
          "time": 39.88635299999999,
          "velocity": 0.5905511811023622
        },
        {
          "duration": 0.33380672916666754,
          "durationTicks": 94,
          "midi": 54,
          "name": "F#3",
          "ticks": 11328,
          "time": 40.227261999999996,
          "velocity": 0.5905511811023622
        },
        {
          "duration": 0.33380672916666754,
          "durationTicks": 94,
          "midi": 59,
          "name": "B3",
          "ticks": 11328,
          "time": 40.227261999999996,
          "velocity": 0.5905511811023622
        },
        {
          "duration": 0.33380672916666754,
          "durationTicks": 94,
          "midi": 63,
          "name": "D#4",
          "ticks": 11328,
          "time": 40.227261999999996,
          "velocity": 0.5905511811023622
        },
        {
          "duration": 0.33380672916667464,
          "durationTicks": 94,
          "midi": 54,
          "name": "F#3",
          "ticks": 11424,
          "time": 40.56817099999999,
          "velocity": 0.5905511811023622
        },
        {
          "duration": 0.33380672916667464,
          "durationTicks": 94,
          "midi": 59,
          "name": "B3",
          "ticks": 11424,
          "time": 40.56817099999999,
          "velocity": 0.5905511811023622
        },
        {
          "duration": 0.33380672916667464,
          "durationTicks": 94,
          "midi": 63,
          "name": "D#4",
          "ticks": 11424,
          "time": 40.56817099999999,
          "velocity": 0.5905511811023622
        },
        {
          "duration": 0.33380672916666754,
          "durationTicks": 94,
          "midi": 54,
          "name": "F#3",
          "ticks": 11520,
          "time": 40.909079999999996,
          "velocity": 0.5905511811023622
        },
        {
          "duration": 0.33380672916666754,
          "durationTicks": 94,
          "midi": 58,
          "name": "A#3",
          "ticks": 11520,
          "time": 40.909079999999996,
          "velocity": 0.5905511811023622
        },
        {
          "duration": 0.33380672916666754,
          "durationTicks": 94,
          "midi": 61,
          "name": "C#4",
          "ticks": 11520,
          "time": 40.909079999999996,
          "velocity": 0.5905511811023622
        },
        {
          "duration": 0.33380672916667464,
          "durationTicks": 94,
          "midi": 54,
          "name": "F#3",
          "ticks": 11616,
          "time": 41.24998899999999,
          "velocity": 0.5905511811023622
        },
        {
          "duration": 0.33380672916667464,
          "durationTicks": 94,
          "midi": 58,
          "name": "A#3",
          "ticks": 11616,
          "time": 41.24998899999999,
          "velocity": 0.5905511811023622
        },
        {
          "duration": 0.33380672916667464,
          "durationTicks": 94,
          "midi": 61,
          "name": "C#4",
          "ticks": 11616,
          "time": 41.24998899999999,
          "velocity": 0.5905511811023622
        },
        {
          "duration": 0.33380672916667464,
          "durationTicks": 94,
          "midi": 63,
          "name": "D#4",
          "ticks": 11616,
          "time": 41.24998899999999,
          "velocity": 0.5905511811023622
        },
        {
          "duration": 0.33380672916666754,
          "durationTicks": 94,
          "midi": 54,
          "name": "F#3",
          "ticks": 11712,
          "time": 41.590897999999996,
          "velocity": 0.5905511811023622
        },
        {
          "duration": 0.33380672916666754,
          "durationTicks": 94,
          "midi": 58,
          "name": "A#3",
          "ticks": 11712,
          "time": 41.590897999999996,
          "velocity": 0.5905511811023622
        },
        {
          "duration": 0.33380672916666754,
          "durationTicks": 94,
          "midi": 61,
          "name": "C#4",
          "ticks": 11712,
          "time": 41.590897999999996,
          "velocity": 0.5905511811023622
        },
        {
          "duration": 0.33380672916666754,
          "durationTicks": 94,
          "midi": 63,
          "name": "D#4",
          "ticks": 11712,
          "time": 41.590897999999996,
          "velocity": 0.5905511811023622
        },
        {
          "duration": 0.33380672916667464,
          "durationTicks": 94,
          "midi": 54,
          "name": "F#3",
          "ticks": 11808,
          "time": 41.93180699999999,
          "velocity": 0.5905511811023622
        },
        {
          "duration": 0.33380672916667464,
          "durationTicks": 94,
          "midi": 58,
          "name": "A#3",
          "ticks": 11808,
          "time": 41.93180699999999,
          "velocity": 0.5905511811023622
        },
        {
          "duration": 0.33380672916667464,
          "durationTicks": 94,
          "midi": 61,
          "name": "C#4",
          "ticks": 11808,
          "time": 41.93180699999999,
          "velocity": 0.5905511811023622
        },
        {
          "duration": 0.33380672916667464,
          "durationTicks": 94,
          "midi": 63,
          "name": "D#4",
          "ticks": 11808,
          "time": 41.93180699999999,
          "velocity": 0.5905511811023622
        },
        {
          "duration": 0.33380672916666754,
          "durationTicks": 94,
          "midi": 54,
          "name": "F#3",
          "ticks": 11904,
          "time": 42.272715999999996,
          "velocity": 0.5905511811023622
        },
        {
          "duration": 0.33380672916666754,
          "durationTicks": 94,
          "midi": 58,
          "name": "A#3",
          "ticks": 11904,
          "time": 42.272715999999996,
          "velocity": 0.5905511811023622
        },
        {
          "duration": 0.33380672916666754,
          "durationTicks": 94,
          "midi": 61,
          "name": "C#4",
          "ticks": 11904,
          "time": 42.272715999999996,
          "velocity": 0.5905511811023622
        },
        {
          "duration": 0.33380672916667464,
          "durationTicks": 94,
          "midi": 54,
          "name": "F#3",
          "ticks": 12000,
          "time": 42.61362499999999,
          "velocity": 0.5905511811023622
        },
        {
          "duration": 0.33380672916667464,
          "durationTicks": 94,
          "midi": 58,
          "name": "A#3",
          "ticks": 12000,
          "time": 42.61362499999999,
          "velocity": 0.5905511811023622
        },
        {
          "duration": 0.33380672916667464,
          "durationTicks": 94,
          "midi": 61,
          "name": "C#4",
          "ticks": 12000,
          "time": 42.61362499999999,
          "velocity": 0.5905511811023622
        },
        {
          "duration": 0.33380672916667464,
          "durationTicks": 94,
          "midi": 63,
          "name": "D#4",
          "ticks": 12000,
          "time": 42.61362499999999,
          "velocity": 0.5905511811023622
        },
        {
          "duration": 0.33380672916666754,
          "durationTicks": 94,
          "midi": 54,
          "name": "F#3",
          "ticks": 12096,
          "time": 42.954533999999995,
          "velocity": 0.5905511811023622
        },
        {
          "duration": 0.33380672916666754,
          "durationTicks": 94,
          "midi": 58,
          "name": "A#3",
          "ticks": 12096,
          "time": 42.954533999999995,
          "velocity": 0.5905511811023622
        },
        {
          "duration": 0.33380672916666754,
          "durationTicks": 94,
          "midi": 61,
          "name": "C#4",
          "ticks": 12096,
          "time": 42.954533999999995,
          "velocity": 0.5905511811023622
        },
        {
          "duration": 0.33380672916666754,
          "durationTicks": 94,
          "midi": 63,
          "name": "D#4",
          "ticks": 12096,
          "time": 42.954533999999995,
          "velocity": 0.5905511811023622
        },
        {
          "duration": 0.33380672916667464,
          "durationTicks": 94,
          "midi": 54,
          "name": "F#3",
          "ticks": 12192,
          "time": 43.29544299999999,
          "velocity": 0.5905511811023622
        },
        {
          "duration": 0.33380672916667464,
          "durationTicks": 94,
          "midi": 58,
          "name": "A#3",
          "ticks": 12192,
          "time": 43.29544299999999,
          "velocity": 0.5905511811023622
        },
        {
          "duration": 0.33380672916667464,
          "durationTicks": 94,
          "midi": 61,
          "name": "C#4",
          "ticks": 12192,
          "time": 43.29544299999999,
          "velocity": 0.5905511811023622
        },
        {
          "duration": 0.33380672916667464,
          "durationTicks": 94,
          "midi": 63,
          "name": "D#4",
          "ticks": 12192,
          "time": 43.29544299999999,
          "velocity": 0.5905511811023622
        },
        {
          "duration": 0.33380672916666043,
          "durationTicks": 94,
          "midi": 54,
          "name": "F#3",
          "ticks": 12288,
          "time": 43.636351999999995,
          "velocity": 0.5905511811023622
        },
        {
          "duration": 0.33380672916666043,
          "durationTicks": 94,
          "midi": 58,
          "name": "A#3",
          "ticks": 12288,
          "time": 43.636351999999995,
          "velocity": 0.5905511811023622
        },
        {
          "duration": 0.33380672916666043,
          "durationTicks": 94,
          "midi": 61,
          "name": "C#4",
          "ticks": 12288,
          "time": 43.636351999999995,
          "velocity": 0.5905511811023622
        },
        {
          "duration": 0.33380672916666043,
          "durationTicks": 94,
          "midi": 54,
          "name": "F#3",
          "ticks": 12384,
          "time": 43.977261,
          "velocity": 0.5905511811023622
        },
        {
          "duration": 0.33380672916666043,
          "durationTicks": 94,
          "midi": 58,
          "name": "A#3",
          "ticks": 12384,
          "time": 43.977261,
          "velocity": 0.5905511811023622
        },
        {
          "duration": 0.33380672916666043,
          "durationTicks": 94,
          "midi": 61,
          "name": "C#4",
          "ticks": 12384,
          "time": 43.977261,
          "velocity": 0.5905511811023622
        },
        {
          "duration": 0.33380672916666043,
          "durationTicks": 94,
          "midi": 63,
          "name": "D#4",
          "ticks": 12384,
          "time": 43.977261,
          "velocity": 0.5905511811023622
        },
        {
          "duration": 0.33380672916666043,
          "durationTicks": 94,
          "midi": 54,
          "name": "F#3",
          "ticks": 12480,
          "time": 44.318169999999995,
          "velocity": 0.5905511811023622
        },
        {
          "duration": 0.33380672916666043,
          "durationTicks": 94,
          "midi": 58,
          "name": "A#3",
          "ticks": 12480,
          "time": 44.318169999999995,
          "velocity": 0.5905511811023622
        },
        {
          "duration": 0.33380672916666043,
          "durationTicks": 94,
          "midi": 61,
          "name": "C#4",
          "ticks": 12480,
          "time": 44.318169999999995,
          "velocity": 0.5905511811023622
        },
        {
          "duration": 0.33380672916666043,
          "durationTicks": 94,
          "midi": 63,
          "name": "D#4",
          "ticks": 12480,
          "time": 44.318169999999995,
          "velocity": 0.5905511811023622
        },
        {
          "duration": 0.33380672916666043,
          "durationTicks": 94,
          "midi": 54,
          "name": "F#3",
          "ticks": 12576,
          "time": 44.659079,
          "velocity": 0.5905511811023622
        },
        {
          "duration": 0.33380672916666043,
          "durationTicks": 94,
          "midi": 58,
          "name": "A#3",
          "ticks": 12576,
          "time": 44.659079,
          "velocity": 0.5905511811023622
        },
        {
          "duration": 0.33380672916666043,
          "durationTicks": 94,
          "midi": 61,
          "name": "C#4",
          "ticks": 12576,
          "time": 44.659079,
          "velocity": 0.5905511811023622
        },
        {
          "duration": 0.33380672916666043,
          "durationTicks": 94,
          "midi": 63,
          "name": "D#4",
          "ticks": 12576,
          "time": 44.659079,
          "velocity": 0.5905511811023622
        },
        {
          "duration": 0.33380672916666043,
          "durationTicks": 94,
          "midi": 54,
          "name": "F#3",
          "ticks": 12672,
          "time": 44.999987999999995,
          "velocity": 0.5905511811023622
        },
        {
          "duration": 0.33380672916666043,
          "durationTicks": 94,
          "midi": 58,
          "name": "A#3",
          "ticks": 12672,
          "time": 44.999987999999995,
          "velocity": 0.5905511811023622
        },
        {
          "duration": 0.33380672916666043,
          "durationTicks": 94,
          "midi": 61,
          "name": "C#4",
          "ticks": 12672,
          "time": 44.999987999999995,
          "velocity": 0.5905511811023622
        },
        {
          "duration": 0.33380672916666043,
          "durationTicks": 94,
          "midi": 54,
          "name": "F#3",
          "ticks": 12768,
          "time": 45.340897,
          "velocity": 0.5905511811023622
        },
        {
          "duration": 0.33380672916666043,
          "durationTicks": 94,
          "midi": 58,
          "name": "A#3",
          "ticks": 12768,
          "time": 45.340897,
          "velocity": 0.5905511811023622
        },
        {
          "duration": 0.33380672916666043,
          "durationTicks": 94,
          "midi": 61,
          "name": "C#4",
          "ticks": 12768,
          "time": 45.340897,
          "velocity": 0.5905511811023622
        },
        {
          "duration": 0.33380672916666043,
          "durationTicks": 94,
          "midi": 63,
          "name": "D#4",
          "ticks": 12768,
          "time": 45.340897,
          "velocity": 0.5905511811023622
        },
        {
          "duration": 0.33380672916666043,
          "durationTicks": 94,
          "midi": 54,
          "name": "F#3",
          "ticks": 12864,
          "time": 45.681805999999995,
          "velocity": 0.5905511811023622
        },
        {
          "duration": 0.33380672916666043,
          "durationTicks": 94,
          "midi": 58,
          "name": "A#3",
          "ticks": 12864,
          "time": 45.681805999999995,
          "velocity": 0.5905511811023622
        },
        {
          "duration": 0.33380672916666043,
          "durationTicks": 94,
          "midi": 61,
          "name": "C#4",
          "ticks": 12864,
          "time": 45.681805999999995,
          "velocity": 0.5905511811023622
        },
        {
          "duration": 0.33380672916666043,
          "durationTicks": 94,
          "midi": 63,
          "name": "D#4",
          "ticks": 12864,
          "time": 45.681805999999995,
          "velocity": 0.5905511811023622
        },
        {
          "duration": 0.33380672916666043,
          "durationTicks": 94,
          "midi": 54,
          "name": "F#3",
          "ticks": 12960,
          "time": 46.022715,
          "velocity": 0.5905511811023622
        },
        {
          "duration": 0.33380672916666043,
          "durationTicks": 94,
          "midi": 58,
          "name": "A#3",
          "ticks": 12960,
          "time": 46.022715,
          "velocity": 0.5905511811023622
        },
        {
          "duration": 0.33380672916666043,
          "durationTicks": 94,
          "midi": 61,
          "name": "C#4",
          "ticks": 12960,
          "time": 46.022715,
          "velocity": 0.5905511811023622
        },
        {
          "duration": 0.33380672916666043,
          "durationTicks": 94,
          "midi": 63,
          "name": "D#4",
          "ticks": 12960,
          "time": 46.022715,
          "velocity": 0.5905511811023622
        },
        {
          "duration": 0.33380672916666043,
          "durationTicks": 94,
          "midi": 52,
          "name": "E3",
          "ticks": 13056,
          "time": 46.363623999999994,
          "velocity": 0.5905511811023622
        },
        {
          "duration": 0.33380672916666043,
          "durationTicks": 94,
          "midi": 56,
          "name": "G#3",
          "ticks": 13056,
          "time": 46.363623999999994,
          "velocity": 0.5905511811023622
        },
        {
          "duration": 0.33380672916666043,
          "durationTicks": 94,
          "midi": 63,
          "name": "D#4",
          "ticks": 13056,
          "time": 46.363623999999994,
          "velocity": 0.5905511811023622
        },
        {
          "duration": 0.33380672916666043,
          "durationTicks": 94,
          "midi": 52,
          "name": "E3",
          "ticks": 13152,
          "time": 46.704533,
          "velocity": 0.5905511811023622
        },
        {
          "duration": 0.33380672916666043,
          "durationTicks": 94,
          "midi": 56,
          "name": "G#3",
          "ticks": 13152,
          "time": 46.704533,
          "velocity": 0.5905511811023622
        },
        {
          "duration": 0.33380672916666043,
          "durationTicks": 94,
          "midi": 63,
          "name": "D#4",
          "ticks": 13152,
          "time": 46.704533,
          "velocity": 0.5905511811023622
        },
        {
          "duration": 0.33380672916666043,
          "durationTicks": 94,
          "midi": 52,
          "name": "E3",
          "ticks": 13248,
          "time": 47.045441999999994,
          "velocity": 0.5905511811023622
        },
        {
          "duration": 0.33380672916666043,
          "durationTicks": 94,
          "midi": 56,
          "name": "G#3",
          "ticks": 13248,
          "time": 47.045441999999994,
          "velocity": 0.5905511811023622
        },
        {
          "duration": 0.33380672916666043,
          "durationTicks": 94,
          "midi": 63,
          "name": "D#4",
          "ticks": 13248,
          "time": 47.045441999999994,
          "velocity": 0.5905511811023622
        },
        {
          "duration": 0.33380672916666043,
          "durationTicks": 94,
          "midi": 52,
          "name": "E3",
          "ticks": 13344,
          "time": 47.386351,
          "velocity": 0.5905511811023622
        },
        {
          "duration": 0.33380672916666043,
          "durationTicks": 94,
          "midi": 56,
          "name": "G#3",
          "ticks": 13344,
          "time": 47.386351,
          "velocity": 0.5905511811023622
        },
        {
          "duration": 0.33380672916666043,
          "durationTicks": 94,
          "midi": 63,
          "name": "D#4",
          "ticks": 13344,
          "time": 47.386351,
          "velocity": 0.5905511811023622
        },
        {
          "duration": 0.33380672916666754,
          "durationTicks": 94,
          "midi": 52,
          "name": "E3",
          "ticks": 13440,
          "time": 47.727259999999994,
          "velocity": 0.5905511811023622
        },
        {
          "duration": 0.33380672916666754,
          "durationTicks": 94,
          "midi": 56,
          "name": "G#3",
          "ticks": 13440,
          "time": 47.727259999999994,
          "velocity": 0.5905511811023622
        },
        {
          "duration": 0.33380672916666754,
          "durationTicks": 94,
          "midi": 63,
          "name": "D#4",
          "ticks": 13440,
          "time": 47.727259999999994,
          "velocity": 0.5905511811023622
        },
        {
          "duration": 0.33380672916666043,
          "durationTicks": 94,
          "midi": 52,
          "name": "E3",
          "ticks": 13536,
          "time": 48.068169,
          "velocity": 0.5905511811023622
        },
        {
          "duration": 0.33380672916666043,
          "durationTicks": 94,
          "midi": 56,
          "name": "G#3",
          "ticks": 13536,
          "time": 48.068169,
          "velocity": 0.5905511811023622
        },
        {
          "duration": 0.33380672916666043,
          "durationTicks": 94,
          "midi": 63,
          "name": "D#4",
          "ticks": 13536,
          "time": 48.068169,
          "velocity": 0.5905511811023622
        },
        {
          "duration": 0.33380672916666754,
          "durationTicks": 94,
          "midi": 52,
          "name": "E3",
          "ticks": 13632,
          "time": 48.409077999999994,
          "velocity": 0.5905511811023622
        },
        {
          "duration": 0.33380672916666754,
          "durationTicks": 94,
          "midi": 56,
          "name": "G#3",
          "ticks": 13632,
          "time": 48.409077999999994,
          "velocity": 0.5905511811023622
        },
        {
          "duration": 0.33380672916666754,
          "durationTicks": 94,
          "midi": 63,
          "name": "D#4",
          "ticks": 13632,
          "time": 48.409077999999994,
          "velocity": 0.5905511811023622
        },
        {
          "duration": 0.33380672916666043,
          "durationTicks": 94,
          "midi": 52,
          "name": "E3",
          "ticks": 13728,
          "time": 48.749987,
          "velocity": 0.5905511811023622
        },
        {
          "duration": 0.33380672916666043,
          "durationTicks": 94,
          "midi": 56,
          "name": "G#3",
          "ticks": 13728,
          "time": 48.749987,
          "velocity": 0.5905511811023622
        },
        {
          "duration": 0.33380672916666043,
          "durationTicks": 94,
          "midi": 63,
          "name": "D#4",
          "ticks": 13728,
          "time": 48.749987,
          "velocity": 0.5905511811023622
        },
        {
          "duration": 0.33380672916666754,
          "durationTicks": 94,
          "midi": 52,
          "name": "E3",
          "ticks": 13824,
          "time": 49.090895999999994,
          "velocity": 0.5905511811023622
        },
        {
          "duration": 0.33380672916666754,
          "durationTicks": 94,
          "midi": 56,
          "name": "G#3",
          "ticks": 13824,
          "time": 49.090895999999994,
          "velocity": 0.5905511811023622
        },
        {
          "duration": 0.33380672916666754,
          "durationTicks": 94,
          "midi": 63,
          "name": "D#4",
          "ticks": 13824,
          "time": 49.090895999999994,
          "velocity": 0.5905511811023622
        },
        {
          "duration": 0.33380672916666043,
          "durationTicks": 94,
          "midi": 52,
          "name": "E3",
          "ticks": 13920,
          "time": 49.431805,
          "velocity": 0.5905511811023622
        },
        {
          "duration": 0.33380672916666043,
          "durationTicks": 94,
          "midi": 56,
          "name": "G#3",
          "ticks": 13920,
          "time": 49.431805,
          "velocity": 0.5905511811023622
        },
        {
          "duration": 0.33380672916666043,
          "durationTicks": 94,
          "midi": 63,
          "name": "D#4",
          "ticks": 13920,
          "time": 49.431805,
          "velocity": 0.5905511811023622
        },
        {
          "duration": 0.33380672916666754,
          "durationTicks": 94,
          "midi": 52,
          "name": "E3",
          "ticks": 14016,
          "time": 49.77271399999999,
          "velocity": 0.5905511811023622
        },
        {
          "duration": 0.33380672916666754,
          "durationTicks": 94,
          "midi": 56,
          "name": "G#3",
          "ticks": 14016,
          "time": 49.77271399999999,
          "velocity": 0.5905511811023622
        },
        {
          "duration": 0.33380672916666754,
          "durationTicks": 94,
          "midi": 63,
          "name": "D#4",
          "ticks": 14016,
          "time": 49.77271399999999,
          "velocity": 0.5905511811023622
        },
        {
          "duration": 0.33380672916666043,
          "durationTicks": 94,
          "midi": 52,
          "name": "E3",
          "ticks": 14112,
          "time": 50.113623,
          "velocity": 0.5905511811023622
        },
        {
          "duration": 0.33380672916666043,
          "durationTicks": 94,
          "midi": 56,
          "name": "G#3",
          "ticks": 14112,
          "time": 50.113623,
          "velocity": 0.5905511811023622
        },
        {
          "duration": 0.33380672916666043,
          "durationTicks": 94,
          "midi": 63,
          "name": "D#4",
          "ticks": 14112,
          "time": 50.113623,
          "velocity": 0.5905511811023622
        },
        {
          "duration": 0.33380672916666754,
          "durationTicks": 94,
          "midi": 52,
          "name": "E3",
          "ticks": 14208,
          "time": 50.45453199999999,
          "velocity": 0.5905511811023622
        },
        {
          "duration": 0.33380672916666754,
          "durationTicks": 94,
          "midi": 56,
          "name": "G#3",
          "ticks": 14208,
          "time": 50.45453199999999,
          "velocity": 0.5905511811023622
        },
        {
          "duration": 0.33380672916666754,
          "durationTicks": 94,
          "midi": 63,
          "name": "D#4",
          "ticks": 14208,
          "time": 50.45453199999999,
          "velocity": 0.5905511811023622
        },
        {
          "duration": 0.33380672916666043,
          "durationTicks": 94,
          "midi": 52,
          "name": "E3",
          "ticks": 14304,
          "time": 50.795441,
          "velocity": 0.5905511811023622
        },
        {
          "duration": 0.33380672916666043,
          "durationTicks": 94,
          "midi": 56,
          "name": "G#3",
          "ticks": 14304,
          "time": 50.795441,
          "velocity": 0.5905511811023622
        },
        {
          "duration": 0.33380672916666043,
          "durationTicks": 94,
          "midi": 63,
          "name": "D#4",
          "ticks": 14304,
          "time": 50.795441,
          "velocity": 0.5905511811023622
        },
        {
          "duration": 0.33380672916666754,
          "durationTicks": 94,
          "midi": 52,
          "name": "E3",
          "ticks": 14400,
          "time": 51.13634999999999,
          "velocity": 0.5905511811023622
        },
        {
          "duration": 0.33380672916666754,
          "durationTicks": 94,
          "midi": 56,
          "name": "G#3",
          "ticks": 14400,
          "time": 51.13634999999999,
          "velocity": 0.5905511811023622
        },
        {
          "duration": 0.33380672916666754,
          "durationTicks": 94,
          "midi": 63,
          "name": "D#4",
          "ticks": 14400,
          "time": 51.13634999999999,
          "velocity": 0.5905511811023622
        },
        {
          "duration": 0.33380672916666043,
          "durationTicks": 94,
          "midi": 52,
          "name": "E3",
          "ticks": 14496,
          "time": 51.477259,
          "velocity": 0.5905511811023622
        },
        {
          "duration": 0.33380672916666043,
          "durationTicks": 94,
          "midi": 56,
          "name": "G#3",
          "ticks": 14496,
          "time": 51.477259,
          "velocity": 0.5905511811023622
        },
        {
          "duration": 0.33380672916666043,
          "durationTicks": 94,
          "midi": 63,
          "name": "D#4",
          "ticks": 14496,
          "time": 51.477259,
          "velocity": 0.5905511811023622
        },
        {
          "duration": 0.33380672916666754,
          "durationTicks": 94,
          "midi": 54,
          "name": "F#3",
          "ticks": 14592,
          "time": 51.81816799999999,
          "velocity": 0.5905511811023622
        },
        {
          "duration": 0.33380672916666754,
          "durationTicks": 94,
          "midi": 59,
          "name": "B3",
          "ticks": 14592,
          "time": 51.81816799999999,
          "velocity": 0.5905511811023622
        },
        {
          "duration": 0.33380672916666754,
          "durationTicks": 94,
          "midi": 63,
          "name": "D#4",
          "ticks": 14592,
          "time": 51.81816799999999,
          "velocity": 0.5905511811023622
        },
        {
          "duration": 0.33380672916666043,
          "durationTicks": 94,
          "midi": 54,
          "name": "F#3",
          "ticks": 14688,
          "time": 52.159076999999996,
          "velocity": 0.5905511811023622
        },
        {
          "duration": 0.33380672916666043,
          "durationTicks": 94,
          "midi": 59,
          "name": "B3",
          "ticks": 14688,
          "time": 52.159076999999996,
          "velocity": 0.5905511811023622
        },
        {
          "duration": 0.33380672916666043,
          "durationTicks": 94,
          "midi": 63,
          "name": "D#4",
          "ticks": 14688,
          "time": 52.159076999999996,
          "velocity": 0.5905511811023622
        },
        {
          "duration": 0.33380672916666754,
          "durationTicks": 94,
          "midi": 54,
          "name": "F#3",
          "ticks": 14784,
          "time": 52.49998599999999,
          "velocity": 0.5905511811023622
        },
        {
          "duration": 0.33380672916666754,
          "durationTicks": 94,
          "midi": 59,
          "name": "B3",
          "ticks": 14784,
          "time": 52.49998599999999,
          "velocity": 0.5905511811023622
        },
        {
          "duration": 0.33380672916666754,
          "durationTicks": 94,
          "midi": 63,
          "name": "D#4",
          "ticks": 14784,
          "time": 52.49998599999999,
          "velocity": 0.5905511811023622
        },
        {
          "duration": 0.33380672916666043,
          "durationTicks": 94,
          "midi": 54,
          "name": "F#3",
          "ticks": 14880,
          "time": 52.840894999999996,
          "velocity": 0.5905511811023622
        },
        {
          "duration": 0.33380672916666043,
          "durationTicks": 94,
          "midi": 59,
          "name": "B3",
          "ticks": 14880,
          "time": 52.840894999999996,
          "velocity": 0.5905511811023622
        },
        {
          "duration": 0.33380672916666043,
          "durationTicks": 94,
          "midi": 63,
          "name": "D#4",
          "ticks": 14880,
          "time": 52.840894999999996,
          "velocity": 0.5905511811023622
        },
        {
          "duration": 0.33380672916666754,
          "durationTicks": 94,
          "midi": 54,
          "name": "F#3",
          "ticks": 14976,
          "time": 53.18180399999999,
          "velocity": 0.5905511811023622
        },
        {
          "duration": 0.33380672916666754,
          "durationTicks": 94,
          "midi": 59,
          "name": "B3",
          "ticks": 14976,
          "time": 53.18180399999999,
          "velocity": 0.5905511811023622
        },
        {
          "duration": 0.33380672916666754,
          "durationTicks": 94,
          "midi": 63,
          "name": "D#4",
          "ticks": 14976,
          "time": 53.18180399999999,
          "velocity": 0.5905511811023622
        },
        {
          "duration": 0.33380672916666043,
          "durationTicks": 94,
          "midi": 54,
          "name": "F#3",
          "ticks": 15072,
          "time": 53.522712999999996,
          "velocity": 0.5905511811023622
        },
        {
          "duration": 0.33380672916666043,
          "durationTicks": 94,
          "midi": 59,
          "name": "B3",
          "ticks": 15072,
          "time": 53.522712999999996,
          "velocity": 0.5905511811023622
        },
        {
          "duration": 0.33380672916666043,
          "durationTicks": 94,
          "midi": 63,
          "name": "D#4",
          "ticks": 15072,
          "time": 53.522712999999996,
          "velocity": 0.5905511811023622
        },
        {
          "duration": 0.33380672916666754,
          "durationTicks": 94,
          "midi": 54,
          "name": "F#3",
          "ticks": 15168,
          "time": 53.86362199999999,
          "velocity": 0.5905511811023622
        },
        {
          "duration": 0.33380672916666754,
          "durationTicks": 94,
          "midi": 59,
          "name": "B3",
          "ticks": 15168,
          "time": 53.86362199999999,
          "velocity": 0.5905511811023622
        },
        {
          "duration": 0.33380672916666754,
          "durationTicks": 94,
          "midi": 63,
          "name": "D#4",
          "ticks": 15168,
          "time": 53.86362199999999,
          "velocity": 0.5905511811023622
        },
        {
          "duration": 0.33380672916666043,
          "durationTicks": 94,
          "midi": 54,
          "name": "F#3",
          "ticks": 15264,
          "time": 54.204530999999996,
          "velocity": 0.5905511811023622
        },
        {
          "duration": 0.33380672916666043,
          "durationTicks": 94,
          "midi": 59,
          "name": "B3",
          "ticks": 15264,
          "time": 54.204530999999996,
          "velocity": 0.5905511811023622
        },
        {
          "duration": 0.33380672916666043,
          "durationTicks": 94,
          "midi": 63,
          "name": "D#4",
          "ticks": 15264,
          "time": 54.204530999999996,
          "velocity": 0.5905511811023622
        },
        {
          "duration": 0.33380672916666754,
          "durationTicks": 94,
          "midi": 54,
          "name": "F#3",
          "ticks": 15360,
          "time": 54.54543999999999,
          "velocity": 0.5905511811023622
        },
        {
          "duration": 0.33380672916666754,
          "durationTicks": 94,
          "midi": 59,
          "name": "B3",
          "ticks": 15360,
          "time": 54.54543999999999,
          "velocity": 0.5905511811023622
        },
        {
          "duration": 0.33380672916666754,
          "durationTicks": 94,
          "midi": 63,
          "name": "D#4",
          "ticks": 15360,
          "time": 54.54543999999999,
          "velocity": 0.5905511811023622
        },
        {
          "duration": 0.33380672916666043,
          "durationTicks": 94,
          "midi": 54,
          "name": "F#3",
          "ticks": 15456,
          "time": 54.886348999999996,
          "velocity": 0.5905511811023622
        },
        {
          "duration": 0.33380672916666043,
          "durationTicks": 94,
          "midi": 59,
          "name": "B3",
          "ticks": 15456,
          "time": 54.886348999999996,
          "velocity": 0.5905511811023622
        },
        {
          "duration": 0.33380672916666043,
          "durationTicks": 94,
          "midi": 63,
          "name": "D#4",
          "ticks": 15456,
          "time": 54.886348999999996,
          "velocity": 0.5905511811023622
        },
        {
          "duration": 0.33380672916666754,
          "durationTicks": 94,
          "midi": 54,
          "name": "F#3",
          "ticks": 15552,
          "time": 55.22725799999999,
          "velocity": 0.5905511811023622
        },
        {
          "duration": 0.33380672916666754,
          "durationTicks": 94,
          "midi": 59,
          "name": "B3",
          "ticks": 15552,
          "time": 55.22725799999999,
          "velocity": 0.5905511811023622
        },
        {
          "duration": 0.33380672916666754,
          "durationTicks": 94,
          "midi": 63,
          "name": "D#4",
          "ticks": 15552,
          "time": 55.22725799999999,
          "velocity": 0.5905511811023622
        },
        {
          "duration": 0.33380672916666043,
          "durationTicks": 94,
          "midi": 54,
          "name": "F#3",
          "ticks": 15648,
          "time": 55.568166999999995,
          "velocity": 0.5905511811023622
        },
        {
          "duration": 0.33380672916666043,
          "durationTicks": 94,
          "midi": 59,
          "name": "B3",
          "ticks": 15648,
          "time": 55.568166999999995,
          "velocity": 0.5905511811023622
        },
        {
          "duration": 0.33380672916666043,
          "durationTicks": 94,
          "midi": 63,
          "name": "D#4",
          "ticks": 15648,
          "time": 55.568166999999995,
          "velocity": 0.5905511811023622
        },
        {
          "duration": 0.33380672916666754,
          "durationTicks": 94,
          "midi": 54,
          "name": "F#3",
          "ticks": 15744,
          "time": 55.90907599999999,
          "velocity": 0.5905511811023622
        },
        {
          "duration": 0.33380672916666754,
          "durationTicks": 94,
          "midi": 59,
          "name": "B3",
          "ticks": 15744,
          "time": 55.90907599999999,
          "velocity": 0.5905511811023622
        },
        {
          "duration": 0.33380672916666754,
          "durationTicks": 94,
          "midi": 63,
          "name": "D#4",
          "ticks": 15744,
          "time": 55.90907599999999,
          "velocity": 0.5905511811023622
        },
        {
          "duration": 0.33380672916666043,
          "durationTicks": 94,
          "midi": 54,
          "name": "F#3",
          "ticks": 15840,
          "time": 56.249984999999995,
          "velocity": 0.5905511811023622
        },
        {
          "duration": 0.33380672916666043,
          "durationTicks": 94,
          "midi": 59,
          "name": "B3",
          "ticks": 15840,
          "time": 56.249984999999995,
          "velocity": 0.5905511811023622
        },
        {
          "duration": 0.33380672916666043,
          "durationTicks": 94,
          "midi": 63,
          "name": "D#4",
          "ticks": 15840,
          "time": 56.249984999999995,
          "velocity": 0.5905511811023622
        },
        {
          "duration": 0.33380672916666754,
          "durationTicks": 94,
          "midi": 54,
          "name": "F#3",
          "ticks": 15936,
          "time": 56.59089399999999,
          "velocity": 0.5905511811023622
        },
        {
          "duration": 0.33380672916666754,
          "durationTicks": 94,
          "midi": 59,
          "name": "B3",
          "ticks": 15936,
          "time": 56.59089399999999,
          "velocity": 0.5905511811023622
        },
        {
          "duration": 0.33380672916666754,
          "durationTicks": 94,
          "midi": 63,
          "name": "D#4",
          "ticks": 15936,
          "time": 56.59089399999999,
          "velocity": 0.5905511811023622
        },
        {
          "duration": 0.33380672916666043,
          "durationTicks": 94,
          "midi": 54,
          "name": "F#3",
          "ticks": 16032,
          "time": 56.931802999999995,
          "velocity": 0.5905511811023622
        },
        {
          "duration": 0.33380672916666043,
          "durationTicks": 94,
          "midi": 59,
          "name": "B3",
          "ticks": 16032,
          "time": 56.931802999999995,
          "velocity": 0.5905511811023622
        },
        {
          "duration": 0.33380672916666043,
          "durationTicks": 94,
          "midi": 63,
          "name": "D#4",
          "ticks": 16032,
          "time": 56.931802999999995,
          "velocity": 0.5905511811023622
        },
        {
          "duration": 0.33380672916666754,
          "durationTicks": 94,
          "midi": 54,
          "name": "F#3",
          "ticks": 16128,
          "time": 57.27271199999999,
          "velocity": 0.5905511811023622
        },
        {
          "duration": 0.33380672916666754,
          "durationTicks": 94,
          "midi": 58,
          "name": "A#3",
          "ticks": 16128,
          "time": 57.27271199999999,
          "velocity": 0.5905511811023622
        },
        {
          "duration": 0.33380672916666754,
          "durationTicks": 94,
          "midi": 61,
          "name": "C#4",
          "ticks": 16128,
          "time": 57.27271199999999,
          "velocity": 0.5905511811023622
        },
        {
          "duration": 0.33380672916666043,
          "durationTicks": 94,
          "midi": 54,
          "name": "F#3",
          "ticks": 16224,
          "time": 57.613620999999995,
          "velocity": 0.5905511811023622
        },
        {
          "duration": 0.33380672916666043,
          "durationTicks": 94,
          "midi": 58,
          "name": "A#3",
          "ticks": 16224,
          "time": 57.613620999999995,
          "velocity": 0.5905511811023622
        },
        {
          "duration": 0.33380672916666043,
          "durationTicks": 94,
          "midi": 61,
          "name": "C#4",
          "ticks": 16224,
          "time": 57.613620999999995,
          "velocity": 0.5905511811023622
        },
        {
          "duration": 0.33380672916666043,
          "durationTicks": 94,
          "midi": 63,
          "name": "D#4",
          "ticks": 16224,
          "time": 57.613620999999995,
          "velocity": 0.5905511811023622
        },
        {
          "duration": 0.33380672916666754,
          "durationTicks": 94,
          "midi": 54,
          "name": "F#3",
          "ticks": 16320,
          "time": 57.95452999999999,
          "velocity": 0.5905511811023622
        },
        {
          "duration": 0.33380672916666754,
          "durationTicks": 94,
          "midi": 58,
          "name": "A#3",
          "ticks": 16320,
          "time": 57.95452999999999,
          "velocity": 0.5905511811023622
        },
        {
          "duration": 0.33380672916666754,
          "durationTicks": 94,
          "midi": 61,
          "name": "C#4",
          "ticks": 16320,
          "time": 57.95452999999999,
          "velocity": 0.5905511811023622
        },
        {
          "duration": 0.33380672916666754,
          "durationTicks": 94,
          "midi": 63,
          "name": "D#4",
          "ticks": 16320,
          "time": 57.95452999999999,
          "velocity": 0.5905511811023622
        },
        {
          "duration": 0.33380672916666043,
          "durationTicks": 94,
          "midi": 54,
          "name": "F#3",
          "ticks": 16416,
          "time": 58.295438999999995,
          "velocity": 0.5905511811023622
        },
        {
          "duration": 0.33380672916666043,
          "durationTicks": 94,
          "midi": 58,
          "name": "A#3",
          "ticks": 16416,
          "time": 58.295438999999995,
          "velocity": 0.5905511811023622
        },
        {
          "duration": 0.33380672916666043,
          "durationTicks": 94,
          "midi": 61,
          "name": "C#4",
          "ticks": 16416,
          "time": 58.295438999999995,
          "velocity": 0.5905511811023622
        },
        {
          "duration": 0.33380672916666043,
          "durationTicks": 94,
          "midi": 63,
          "name": "D#4",
          "ticks": 16416,
          "time": 58.295438999999995,
          "velocity": 0.5905511811023622
        },
        {
          "duration": 0.33380672916666754,
          "durationTicks": 94,
          "midi": 54,
          "name": "F#3",
          "ticks": 16512,
          "time": 58.63634799999999,
          "velocity": 0.5905511811023622
        },
        {
          "duration": 0.33380672916666754,
          "durationTicks": 94,
          "midi": 58,
          "name": "A#3",
          "ticks": 16512,
          "time": 58.63634799999999,
          "velocity": 0.5905511811023622
        },
        {
          "duration": 0.33380672916666754,
          "durationTicks": 94,
          "midi": 61,
          "name": "C#4",
          "ticks": 16512,
          "time": 58.63634799999999,
          "velocity": 0.5905511811023622
        },
        {
          "duration": 0.33380672916666043,
          "durationTicks": 94,
          "midi": 54,
          "name": "F#3",
          "ticks": 16608,
          "time": 58.977256999999994,
          "velocity": 0.5905511811023622
        },
        {
          "duration": 0.33380672916666043,
          "durationTicks": 94,
          "midi": 58,
          "name": "A#3",
          "ticks": 16608,
          "time": 58.977256999999994,
          "velocity": 0.5905511811023622
        },
        {
          "duration": 0.33380672916666043,
          "durationTicks": 94,
          "midi": 61,
          "name": "C#4",
          "ticks": 16608,
          "time": 58.977256999999994,
          "velocity": 0.5905511811023622
        },
        {
          "duration": 0.33380672916666043,
          "durationTicks": 94,
          "midi": 63,
          "name": "D#4",
          "ticks": 16608,
          "time": 58.977256999999994,
          "velocity": 0.5905511811023622
        },
        {
          "duration": 0.33380672916666754,
          "durationTicks": 94,
          "midi": 54,
          "name": "F#3",
          "ticks": 16704,
          "time": 59.31816599999999,
          "velocity": 0.5905511811023622
        },
        {
          "duration": 0.33380672916666754,
          "durationTicks": 94,
          "midi": 58,
          "name": "A#3",
          "ticks": 16704,
          "time": 59.31816599999999,
          "velocity": 0.5905511811023622
        },
        {
          "duration": 0.33380672916666754,
          "durationTicks": 94,
          "midi": 61,
          "name": "C#4",
          "ticks": 16704,
          "time": 59.31816599999999,
          "velocity": 0.5905511811023622
        },
        {
          "duration": 0.33380672916666754,
          "durationTicks": 94,
          "midi": 63,
          "name": "D#4",
          "ticks": 16704,
          "time": 59.31816599999999,
          "velocity": 0.5905511811023622
        },
        {
          "duration": 0.33380672916666043,
          "durationTicks": 94,
          "midi": 54,
          "name": "F#3",
          "ticks": 16800,
          "time": 59.659074999999994,
          "velocity": 0.5905511811023622
        },
        {
          "duration": 0.33380672916666043,
          "durationTicks": 94,
          "midi": 58,
          "name": "A#3",
          "ticks": 16800,
          "time": 59.659074999999994,
          "velocity": 0.5905511811023622
        },
        {
          "duration": 0.33380672916666043,
          "durationTicks": 94,
          "midi": 61,
          "name": "C#4",
          "ticks": 16800,
          "time": 59.659074999999994,
          "velocity": 0.5905511811023622
        },
        {
          "duration": 0.33380672916666043,
          "durationTicks": 94,
          "midi": 63,
          "name": "D#4",
          "ticks": 16800,
          "time": 59.659074999999994,
          "velocity": 0.5905511811023622
        },
        {
          "duration": 0.33380672916666754,
          "durationTicks": 94,
          "midi": 54,
          "name": "F#3",
          "ticks": 16896,
          "time": 59.99998399999999,
          "velocity": 0.5905511811023622
        },
        {
          "duration": 0.33380672916666754,
          "durationTicks": 94,
          "midi": 58,
          "name": "A#3",
          "ticks": 16896,
          "time": 59.99998399999999,
          "velocity": 0.5905511811023622
        },
        {
          "duration": 0.33380672916666754,
          "durationTicks": 94,
          "midi": 61,
          "name": "C#4",
          "ticks": 16896,
          "time": 59.99998399999999,
          "velocity": 0.5905511811023622
        },
        {
          "duration": 0.33380672916666043,
          "durationTicks": 94,
          "midi": 54,
          "name": "F#3",
          "ticks": 16992,
          "time": 60.340892999999994,
          "velocity": 0.5905511811023622
        },
        {
          "duration": 0.33380672916666043,
          "durationTicks": 94,
          "midi": 58,
          "name": "A#3",
          "ticks": 16992,
          "time": 60.340892999999994,
          "velocity": 0.5905511811023622
        },
        {
          "duration": 0.33380672916666043,
          "durationTicks": 94,
          "midi": 61,
          "name": "C#4",
          "ticks": 16992,
          "time": 60.340892999999994,
          "velocity": 0.5905511811023622
        },
        {
          "duration": 0.33380672916666043,
          "durationTicks": 94,
          "midi": 63,
          "name": "D#4",
          "ticks": 16992,
          "time": 60.340892999999994,
          "velocity": 0.5905511811023622
        },
        {
          "duration": 0.33380672916666754,
          "durationTicks": 94,
          "midi": 54,
          "name": "F#3",
          "ticks": 17088,
          "time": 60.68180199999999,
          "velocity": 0.5905511811023622
        },
        {
          "duration": 0.33380672916666754,
          "durationTicks": 94,
          "midi": 58,
          "name": "A#3",
          "ticks": 17088,
          "time": 60.68180199999999,
          "velocity": 0.5905511811023622
        },
        {
          "duration": 0.33380672916666754,
          "durationTicks": 94,
          "midi": 61,
          "name": "C#4",
          "ticks": 17088,
          "time": 60.68180199999999,
          "velocity": 0.5905511811023622
        },
        {
          "duration": 0.33380672916666754,
          "durationTicks": 94,
          "midi": 63,
          "name": "D#4",
          "ticks": 17088,
          "time": 60.68180199999999,
          "velocity": 0.5905511811023622
        },
        {
          "duration": 0.33380672916666043,
          "durationTicks": 94,
          "midi": 54,
          "name": "F#3",
          "ticks": 17184,
          "time": 61.022710999999994,
          "velocity": 0.5905511811023622
        },
        {
          "duration": 0.33380672916666043,
          "durationTicks": 94,
          "midi": 58,
          "name": "A#3",
          "ticks": 17184,
          "time": 61.022710999999994,
          "velocity": 0.5905511811023622
        },
        {
          "duration": 0.33380672916666043,
          "durationTicks": 94,
          "midi": 61,
          "name": "C#4",
          "ticks": 17184,
          "time": 61.022710999999994,
          "velocity": 0.5905511811023622
        },
        {
          "duration": 0.33380672916666043,
          "durationTicks": 94,
          "midi": 63,
          "name": "D#4",
          "ticks": 17184,
          "time": 61.022710999999994,
          "velocity": 0.5905511811023622
        },
        {
          "duration": 0.33380672916666754,
          "durationTicks": 94,
          "midi": 54,
          "name": "F#3",
          "ticks": 17280,
          "time": 61.36361999999999,
          "velocity": 0.5905511811023622
        },
        {
          "duration": 0.33380672916666754,
          "durationTicks": 94,
          "midi": 58,
          "name": "A#3",
          "ticks": 17280,
          "time": 61.36361999999999,
          "velocity": 0.5905511811023622
        },
        {
          "duration": 0.33380672916666754,
          "durationTicks": 94,
          "midi": 61,
          "name": "C#4",
          "ticks": 17280,
          "time": 61.36361999999999,
          "velocity": 0.5905511811023622
        },
        {
          "duration": 0.33380672916666043,
          "durationTicks": 94,
          "midi": 54,
          "name": "F#3",
          "ticks": 17376,
          "time": 61.704528999999994,
          "velocity": 0.5905511811023622
        },
        {
          "duration": 0.33380672916666043,
          "durationTicks": 94,
          "midi": 58,
          "name": "A#3",
          "ticks": 17376,
          "time": 61.704528999999994,
          "velocity": 0.5905511811023622
        },
        {
          "duration": 0.33380672916666043,
          "durationTicks": 94,
          "midi": 61,
          "name": "C#4",
          "ticks": 17376,
          "time": 61.704528999999994,
          "velocity": 0.5905511811023622
        },
        {
          "duration": 0.33380672916666043,
          "durationTicks": 94,
          "midi": 63,
          "name": "D#4",
          "ticks": 17376,
          "time": 61.704528999999994,
          "velocity": 0.5905511811023622
        },
        {
          "duration": 0.33380672916666754,
          "durationTicks": 94,
          "midi": 54,
          "name": "F#3",
          "ticks": 17472,
          "time": 62.04543799999999,
          "velocity": 0.5905511811023622
        },
        {
          "duration": 0.33380672916666754,
          "durationTicks": 94,
          "midi": 58,
          "name": "A#3",
          "ticks": 17472,
          "time": 62.04543799999999,
          "velocity": 0.5905511811023622
        },
        {
          "duration": 0.33380672916666754,
          "durationTicks": 94,
          "midi": 61,
          "name": "C#4",
          "ticks": 17472,
          "time": 62.04543799999999,
          "velocity": 0.5905511811023622
        },
        {
          "duration": 0.33380672916666754,
          "durationTicks": 94,
          "midi": 63,
          "name": "D#4",
          "ticks": 17472,
          "time": 62.04543799999999,
          "velocity": 0.5905511811023622
        },
        {
          "duration": 0.33380672916666043,
          "durationTicks": 94,
          "midi": 54,
          "name": "F#3",
          "ticks": 17568,
          "time": 62.386346999999994,
          "velocity": 0.5905511811023622
        },
        {
          "duration": 0.33380672916666043,
          "durationTicks": 94,
          "midi": 58,
          "name": "A#3",
          "ticks": 17568,
          "time": 62.386346999999994,
          "velocity": 0.5905511811023622
        },
        {
          "duration": 0.33380672916666043,
          "durationTicks": 94,
          "midi": 61,
          "name": "C#4",
          "ticks": 17568,
          "time": 62.386346999999994,
          "velocity": 0.5905511811023622
        },
        {
          "duration": 0.33380672916666043,
          "durationTicks": 94,
          "midi": 63,
          "name": "D#4",
          "ticks": 17568,
          "time": 62.386346999999994,
          "velocity": 0.5905511811023622
        },
        {
          "duration": 0.33380672916666754,
          "durationTicks": 94,
          "midi": 52,
          "name": "E3",
          "ticks": 17664,
          "time": 62.72725599999999,
          "velocity": 0.5905511811023622
        },
        {
          "duration": 0.33380672916666754,
          "durationTicks": 94,
          "midi": 56,
          "name": "G#3",
          "ticks": 17664,
          "time": 62.72725599999999,
          "velocity": 0.5905511811023622
        },
        {
          "duration": 0.33380672916666754,
          "durationTicks": 94,
          "midi": 63,
          "name": "D#4",
          "ticks": 17664,
          "time": 62.72725599999999,
          "velocity": 0.5905511811023622
        },
        {
          "duration": 0.33380672916666043,
          "durationTicks": 94,
          "midi": 52,
          "name": "E3",
          "ticks": 17760,
          "time": 63.06816499999999,
          "velocity": 0.5905511811023622
        },
        {
          "duration": 0.33380672916666043,
          "durationTicks": 94,
          "midi": 56,
          "name": "G#3",
          "ticks": 17760,
          "time": 63.06816499999999,
          "velocity": 0.5905511811023622
        },
        {
          "duration": 0.33380672916666043,
          "durationTicks": 94,
          "midi": 63,
          "name": "D#4",
          "ticks": 17760,
          "time": 63.06816499999999,
          "velocity": 0.5905511811023622
        },
        {
          "duration": 0.33380672916666754,
          "durationTicks": 94,
          "midi": 52,
          "name": "E3",
          "ticks": 17856,
          "time": 63.40907399999999,
          "velocity": 0.5905511811023622
        },
        {
          "duration": 0.33380672916666754,
          "durationTicks": 94,
          "midi": 56,
          "name": "G#3",
          "ticks": 17856,
          "time": 63.40907399999999,
          "velocity": 0.5905511811023622
        },
        {
          "duration": 0.33380672916666754,
          "durationTicks": 94,
          "midi": 63,
          "name": "D#4",
          "ticks": 17856,
          "time": 63.40907399999999,
          "velocity": 0.5905511811023622
        },
        {
          "duration": 0.33380672916666043,
          "durationTicks": 94,
          "midi": 52,
          "name": "E3",
          "ticks": 17952,
          "time": 63.74998299999999,
          "velocity": 0.5905511811023622
        },
        {
          "duration": 0.33380672916666043,
          "durationTicks": 94,
          "midi": 56,
          "name": "G#3",
          "ticks": 17952,
          "time": 63.74998299999999,
          "velocity": 0.5905511811023622
        },
        {
          "duration": 0.33380672916666043,
          "durationTicks": 94,
          "midi": 63,
          "name": "D#4",
          "ticks": 17952,
          "time": 63.74998299999999,
          "velocity": 0.5905511811023622
        },
        {
          "duration": 0.3338067291666533,
          "durationTicks": 94,
          "midi": 52,
          "name": "E3",
          "ticks": 18048,
          "time": 64.090892,
          "velocity": 0.5905511811023622
        },
        {
          "duration": 0.3338067291666533,
          "durationTicks": 94,
          "midi": 56,
          "name": "G#3",
          "ticks": 18048,
          "time": 64.090892,
          "velocity": 0.5905511811023622
        },
        {
          "duration": 0.3338067291666533,
          "durationTicks": 94,
          "midi": 63,
          "name": "D#4",
          "ticks": 18048,
          "time": 64.090892,
          "velocity": 0.5905511811023622
        },
        {
          "duration": 0.33380672916666754,
          "durationTicks": 94,
          "midi": 52,
          "name": "E3",
          "ticks": 18144,
          "time": 64.431801,
          "velocity": 0.5905511811023622
        },
        {
          "duration": 0.33380672916666754,
          "durationTicks": 94,
          "midi": 56,
          "name": "G#3",
          "ticks": 18144,
          "time": 64.431801,
          "velocity": 0.5905511811023622
        },
        {
          "duration": 0.33380672916666754,
          "durationTicks": 94,
          "midi": 63,
          "name": "D#4",
          "ticks": 18144,
          "time": 64.431801,
          "velocity": 0.5905511811023622
        },
        {
          "duration": 0.33380672916666754,
          "durationTicks": 94,
          "midi": 52,
          "name": "E3",
          "ticks": 18240,
          "time": 64.77270999999999,
          "velocity": 0.5905511811023622
        },
        {
          "duration": 0.33380672916666754,
          "durationTicks": 94,
          "midi": 56,
          "name": "G#3",
          "ticks": 18240,
          "time": 64.77270999999999,
          "velocity": 0.5905511811023622
        },
        {
          "duration": 0.33380672916666754,
          "durationTicks": 94,
          "midi": 63,
          "name": "D#4",
          "ticks": 18240,
          "time": 64.77270999999999,
          "velocity": 0.5905511811023622
        },
        {
          "duration": 0.33380672916666754,
          "durationTicks": 94,
          "midi": 52,
          "name": "E3",
          "ticks": 18336,
          "time": 65.11361899999999,
          "velocity": 0.5905511811023622
        },
        {
          "duration": 0.33380672916666754,
          "durationTicks": 94,
          "midi": 56,
          "name": "G#3",
          "ticks": 18336,
          "time": 65.11361899999999,
          "velocity": 0.5905511811023622
        },
        {
          "duration": 0.33380672916666754,
          "durationTicks": 94,
          "midi": 63,
          "name": "D#4",
          "ticks": 18336,
          "time": 65.11361899999999,
          "velocity": 0.5905511811023622
        },
        {
          "duration": 0.3338067291666533,
          "durationTicks": 94,
          "midi": 52,
          "name": "E3",
          "ticks": 18432,
          "time": 65.454528,
          "velocity": 0.5905511811023622
        },
        {
          "duration": 0.3338067291666533,
          "durationTicks": 94,
          "midi": 56,
          "name": "G#3",
          "ticks": 18432,
          "time": 65.454528,
          "velocity": 0.5905511811023622
        },
        {
          "duration": 0.3338067291666533,
          "durationTicks": 94,
          "midi": 63,
          "name": "D#4",
          "ticks": 18432,
          "time": 65.454528,
          "velocity": 0.5905511811023622
        },
        {
          "duration": 0.33380672916666754,
          "durationTicks": 94,
          "midi": 52,
          "name": "E3",
          "ticks": 18528,
          "time": 65.79543699999999,
          "velocity": 0.5905511811023622
        },
        {
          "duration": 0.33380672916666754,
          "durationTicks": 94,
          "midi": 56,
          "name": "G#3",
          "ticks": 18528,
          "time": 65.79543699999999,
          "velocity": 0.5905511811023622
        },
        {
          "duration": 0.33380672916666754,
          "durationTicks": 94,
          "midi": 63,
          "name": "D#4",
          "ticks": 18528,
          "time": 65.79543699999999,
          "velocity": 0.5905511811023622
        },
        {
          "duration": 0.33380672916666754,
          "durationTicks": 94,
          "midi": 52,
          "name": "E3",
          "ticks": 18624,
          "time": 66.13634599999999,
          "velocity": 0.5905511811023622
        },
        {
          "duration": 0.33380672916666754,
          "durationTicks": 94,
          "midi": 56,
          "name": "G#3",
          "ticks": 18624,
          "time": 66.13634599999999,
          "velocity": 0.5905511811023622
        },
        {
          "duration": 0.33380672916666754,
          "durationTicks": 94,
          "midi": 63,
          "name": "D#4",
          "ticks": 18624,
          "time": 66.13634599999999,
          "velocity": 0.5905511811023622
        },
        {
          "duration": 0.3338067291666533,
          "durationTicks": 94,
          "midi": 52,
          "name": "E3",
          "ticks": 18720,
          "time": 66.477255,
          "velocity": 0.5905511811023622
        },
        {
          "duration": 0.3338067291666533,
          "durationTicks": 94,
          "midi": 56,
          "name": "G#3",
          "ticks": 18720,
          "time": 66.477255,
          "velocity": 0.5905511811023622
        },
        {
          "duration": 0.3338067291666533,
          "durationTicks": 94,
          "midi": 63,
          "name": "D#4",
          "ticks": 18720,
          "time": 66.477255,
          "velocity": 0.5905511811023622
        },
        {
          "duration": 0.3338067291666533,
          "durationTicks": 94,
          "midi": 52,
          "name": "E3",
          "ticks": 18816,
          "time": 66.818164,
          "velocity": 0.5905511811023622
        },
        {
          "duration": 0.3338067291666533,
          "durationTicks": 94,
          "midi": 56,
          "name": "G#3",
          "ticks": 18816,
          "time": 66.818164,
          "velocity": 0.5905511811023622
        },
        {
          "duration": 0.3338067291666533,
          "durationTicks": 94,
          "midi": 63,
          "name": "D#4",
          "ticks": 18816,
          "time": 66.818164,
          "velocity": 0.5905511811023622
        },
        {
          "duration": 0.33380672916666754,
          "durationTicks": 94,
          "midi": 52,
          "name": "E3",
          "ticks": 18912,
          "time": 67.15907299999999,
          "velocity": 0.5905511811023622
        },
        {
          "duration": 0.33380672916666754,
          "durationTicks": 94,
          "midi": 56,
          "name": "G#3",
          "ticks": 18912,
          "time": 67.15907299999999,
          "velocity": 0.5905511811023622
        },
        {
          "duration": 0.33380672916666754,
          "durationTicks": 94,
          "midi": 63,
          "name": "D#4",
          "ticks": 18912,
          "time": 67.15907299999999,
          "velocity": 0.5905511811023622
        },
        {
          "duration": 0.33380672916666754,
          "durationTicks": 94,
          "midi": 52,
          "name": "E3",
          "ticks": 19008,
          "time": 67.49998199999999,
          "velocity": 0.5905511811023622
        },
        {
          "duration": 0.33380672916666754,
          "durationTicks": 94,
          "midi": 56,
          "name": "G#3",
          "ticks": 19008,
          "time": 67.49998199999999,
          "velocity": 0.5905511811023622
        },
        {
          "duration": 0.33380672916666754,
          "durationTicks": 94,
          "midi": 63,
          "name": "D#4",
          "ticks": 19008,
          "time": 67.49998199999999,
          "velocity": 0.5905511811023622
        },
        {
          "duration": 0.3338067291666533,
          "durationTicks": 94,
          "midi": 52,
          "name": "E3",
          "ticks": 19104,
          "time": 67.840891,
          "velocity": 0.5905511811023622
        },
        {
          "duration": 0.3338067291666533,
          "durationTicks": 94,
          "midi": 56,
          "name": "G#3",
          "ticks": 19104,
          "time": 67.840891,
          "velocity": 0.5905511811023622
        },
        {
          "duration": 0.3338067291666533,
          "durationTicks": 94,
          "midi": 63,
          "name": "D#4",
          "ticks": 19104,
          "time": 67.840891,
          "velocity": 0.5905511811023622
        },
        {
          "duration": 0.3338067291666533,
          "durationTicks": 94,
          "midi": 54,
          "name": "F#3",
          "ticks": 19200,
          "time": 68.1818,
          "velocity": 0.5905511811023622
        },
        {
          "duration": 0.3338067291666533,
          "durationTicks": 94,
          "midi": 59,
          "name": "B3",
          "ticks": 19200,
          "time": 68.1818,
          "velocity": 0.5905511811023622
        },
        {
          "duration": 0.3338067291666533,
          "durationTicks": 94,
          "midi": 63,
          "name": "D#4",
          "ticks": 19200,
          "time": 68.1818,
          "velocity": 0.5905511811023622
        },
        {
          "duration": 0.33380672916666754,
          "durationTicks": 94,
          "midi": 54,
          "name": "F#3",
          "ticks": 19296,
          "time": 68.52270899999999,
          "velocity": 0.5905511811023622
        },
        {
          "duration": 0.33380672916666754,
          "durationTicks": 94,
          "midi": 59,
          "name": "B3",
          "ticks": 19296,
          "time": 68.52270899999999,
          "velocity": 0.5905511811023622
        },
        {
          "duration": 0.33380672916666754,
          "durationTicks": 94,
          "midi": 63,
          "name": "D#4",
          "ticks": 19296,
          "time": 68.52270899999999,
          "velocity": 0.5905511811023622
        },
        {
          "duration": 0.33380672916666754,
          "durationTicks": 94,
          "midi": 54,
          "name": "F#3",
          "ticks": 19392,
          "time": 68.86361799999999,
          "velocity": 0.5905511811023622
        },
        {
          "duration": 0.33380672916666754,
          "durationTicks": 94,
          "midi": 59,
          "name": "B3",
          "ticks": 19392,
          "time": 68.86361799999999,
          "velocity": 0.5905511811023622
        },
        {
          "duration": 0.33380672916666754,
          "durationTicks": 94,
          "midi": 63,
          "name": "D#4",
          "ticks": 19392,
          "time": 68.86361799999999,
          "velocity": 0.5905511811023622
        },
        {
          "duration": 0.3338067291666533,
          "durationTicks": 94,
          "midi": 54,
          "name": "F#3",
          "ticks": 19488,
          "time": 69.204527,
          "velocity": 0.5905511811023622
        },
        {
          "duration": 0.3338067291666533,
          "durationTicks": 94,
          "midi": 59,
          "name": "B3",
          "ticks": 19488,
          "time": 69.204527,
          "velocity": 0.5905511811023622
        },
        {
          "duration": 0.3338067291666533,
          "durationTicks": 94,
          "midi": 63,
          "name": "D#4",
          "ticks": 19488,
          "time": 69.204527,
          "velocity": 0.5905511811023622
        },
        {
          "duration": 0.33380672916666754,
          "durationTicks": 94,
          "midi": 54,
          "name": "F#3",
          "ticks": 19584,
          "time": 69.545436,
          "velocity": 0.5905511811023622
        },
        {
          "duration": 0.33380672916666754,
          "durationTicks": 94,
          "midi": 59,
          "name": "B3",
          "ticks": 19584,
          "time": 69.545436,
          "velocity": 0.5905511811023622
        },
        {
          "duration": 0.33380672916666754,
          "durationTicks": 94,
          "midi": 63,
          "name": "D#4",
          "ticks": 19584,
          "time": 69.545436,
          "velocity": 0.5905511811023622
        },
        {
          "duration": 0.33380672916666754,
          "durationTicks": 94,
          "midi": 54,
          "name": "F#3",
          "ticks": 19680,
          "time": 69.88634499999999,
          "velocity": 0.5905511811023622
        },
        {
          "duration": 0.33380672916666754,
          "durationTicks": 94,
          "midi": 59,
          "name": "B3",
          "ticks": 19680,
          "time": 69.88634499999999,
          "velocity": 0.5905511811023622
        },
        {
          "duration": 0.33380672916666754,
          "durationTicks": 94,
          "midi": 63,
          "name": "D#4",
          "ticks": 19680,
          "time": 69.88634499999999,
          "velocity": 0.5905511811023622
        },
        {
          "duration": 0.33380672916666754,
          "durationTicks": 94,
          "midi": 54,
          "name": "F#3",
          "ticks": 19776,
          "time": 70.22725399999999,
          "velocity": 0.5905511811023622
        },
        {
          "duration": 0.33380672916666754,
          "durationTicks": 94,
          "midi": 59,
          "name": "B3",
          "ticks": 19776,
          "time": 70.22725399999999,
          "velocity": 0.5905511811023622
        },
        {
          "duration": 0.33380672916666754,
          "durationTicks": 94,
          "midi": 63,
          "name": "D#4",
          "ticks": 19776,
          "time": 70.22725399999999,
          "velocity": 0.5905511811023622
        },
        {
          "duration": 0.3338067291666533,
          "durationTicks": 94,
          "midi": 54,
          "name": "F#3",
          "ticks": 19872,
          "time": 70.568163,
          "velocity": 0.5905511811023622
        },
        {
          "duration": 0.3338067291666533,
          "durationTicks": 94,
          "midi": 59,
          "name": "B3",
          "ticks": 19872,
          "time": 70.568163,
          "velocity": 0.5905511811023622
        },
        {
          "duration": 0.3338067291666533,
          "durationTicks": 94,
          "midi": 63,
          "name": "D#4",
          "ticks": 19872,
          "time": 70.568163,
          "velocity": 0.5905511811023622
        },
        {
          "duration": 0.33380672916666754,
          "durationTicks": 94,
          "midi": 54,
          "name": "F#3",
          "ticks": 19968,
          "time": 70.909072,
          "velocity": 0.5905511811023622
        },
        {
          "duration": 0.33380672916666754,
          "durationTicks": 94,
          "midi": 59,
          "name": "B3",
          "ticks": 19968,
          "time": 70.909072,
          "velocity": 0.5905511811023622
        },
        {
          "duration": 0.33380672916666754,
          "durationTicks": 94,
          "midi": 63,
          "name": "D#4",
          "ticks": 19968,
          "time": 70.909072,
          "velocity": 0.5905511811023622
        },
        {
          "duration": 0.33380672916666754,
          "durationTicks": 94,
          "midi": 54,
          "name": "F#3",
          "ticks": 20064,
          "time": 71.24998099999999,
          "velocity": 0.5905511811023622
        },
        {
          "duration": 0.33380672916666754,
          "durationTicks": 94,
          "midi": 59,
          "name": "B3",
          "ticks": 20064,
          "time": 71.24998099999999,
          "velocity": 0.5905511811023622
        },
        {
          "duration": 0.33380672916666754,
          "durationTicks": 94,
          "midi": 63,
          "name": "D#4",
          "ticks": 20064,
          "time": 71.24998099999999,
          "velocity": 0.5905511811023622
        },
        {
          "duration": 0.33380672916666754,
          "durationTicks": 94,
          "midi": 54,
          "name": "F#3",
          "ticks": 20160,
          "time": 71.59088999999999,
          "velocity": 0.5905511811023622
        },
        {
          "duration": 0.33380672916666754,
          "durationTicks": 94,
          "midi": 59,
          "name": "B3",
          "ticks": 20160,
          "time": 71.59088999999999,
          "velocity": 0.5905511811023622
        },
        {
          "duration": 0.33380672916666754,
          "durationTicks": 94,
          "midi": 63,
          "name": "D#4",
          "ticks": 20160,
          "time": 71.59088999999999,
          "velocity": 0.5905511811023622
        },
        {
          "duration": 0.3338067291666533,
          "durationTicks": 94,
          "midi": 54,
          "name": "F#3",
          "ticks": 20256,
          "time": 71.931799,
          "velocity": 0.5905511811023622
        },
        {
          "duration": 0.3338067291666533,
          "durationTicks": 94,
          "midi": 59,
          "name": "B3",
          "ticks": 20256,
          "time": 71.931799,
          "velocity": 0.5905511811023622
        },
        {
          "duration": 0.3338067291666533,
          "durationTicks": 94,
          "midi": 63,
          "name": "D#4",
          "ticks": 20256,
          "time": 71.931799,
          "velocity": 0.5905511811023622
        },
        {
          "duration": 0.33380672916666754,
          "durationTicks": 94,
          "midi": 54,
          "name": "F#3",
          "ticks": 20352,
          "time": 72.272708,
          "velocity": 0.5905511811023622
        },
        {
          "duration": 0.33380672916666754,
          "durationTicks": 94,
          "midi": 59,
          "name": "B3",
          "ticks": 20352,
          "time": 72.272708,
          "velocity": 0.5905511811023622
        },
        {
          "duration": 0.33380672916666754,
          "durationTicks": 94,
          "midi": 63,
          "name": "D#4",
          "ticks": 20352,
          "time": 72.272708,
          "velocity": 0.5905511811023622
        },
        {
          "duration": 0.33380672916666754,
          "durationTicks": 94,
          "midi": 54,
          "name": "F#3",
          "ticks": 20448,
          "time": 72.61361699999999,
          "velocity": 0.5905511811023622
        },
        {
          "duration": 0.33380672916666754,
          "durationTicks": 94,
          "midi": 59,
          "name": "B3",
          "ticks": 20448,
          "time": 72.61361699999999,
          "velocity": 0.5905511811023622
        },
        {
          "duration": 0.33380672916666754,
          "durationTicks": 94,
          "midi": 63,
          "name": "D#4",
          "ticks": 20448,
          "time": 72.61361699999999,
          "velocity": 0.5905511811023622
        },
        {
          "duration": 0.33380672916666754,
          "durationTicks": 94,
          "midi": 54,
          "name": "F#3",
          "ticks": 20544,
          "time": 72.95452599999999,
          "velocity": 0.5905511811023622
        },
        {
          "duration": 0.33380672916666754,
          "durationTicks": 94,
          "midi": 59,
          "name": "B3",
          "ticks": 20544,
          "time": 72.95452599999999,
          "velocity": 0.5905511811023622
        },
        {
          "duration": 0.33380672916666754,
          "durationTicks": 94,
          "midi": 63,
          "name": "D#4",
          "ticks": 20544,
          "time": 72.95452599999999,
          "velocity": 0.5905511811023622
        },
        {
          "duration": 0.3338067291666533,
          "durationTicks": 94,
          "midi": 54,
          "name": "F#3",
          "ticks": 20640,
          "time": 73.295435,
          "velocity": 0.5905511811023622
        },
        {
          "duration": 0.3338067291666533,
          "durationTicks": 94,
          "midi": 59,
          "name": "B3",
          "ticks": 20640,
          "time": 73.295435,
          "velocity": 0.5905511811023622
        },
        {
          "duration": 0.3338067291666533,
          "durationTicks": 94,
          "midi": 63,
          "name": "D#4",
          "ticks": 20640,
          "time": 73.295435,
          "velocity": 0.5905511811023622
        },
        {
          "duration": 0.33380672916666754,
          "durationTicks": 94,
          "midi": 54,
          "name": "F#3",
          "ticks": 20736,
          "time": 73.636344,
          "velocity": 0.5905511811023622
        },
        {
          "duration": 0.33380672916666754,
          "durationTicks": 94,
          "midi": 58,
          "name": "A#3",
          "ticks": 20736,
          "time": 73.636344,
          "velocity": 0.5905511811023622
        },
        {
          "duration": 0.33380672916666754,
          "durationTicks": 94,
          "midi": 61,
          "name": "C#4",
          "ticks": 20736,
          "time": 73.636344,
          "velocity": 0.5905511811023622
        },
        {
          "duration": 0.33380672916666754,
          "durationTicks": 94,
          "midi": 54,
          "name": "F#3",
          "ticks": 20832,
          "time": 73.97725299999999,
          "velocity": 0.5905511811023622
        },
        {
          "duration": 0.33380672916666754,
          "durationTicks": 94,
          "midi": 58,
          "name": "A#3",
          "ticks": 20832,
          "time": 73.97725299999999,
          "velocity": 0.5905511811023622
        },
        {
          "duration": 0.33380672916666754,
          "durationTicks": 94,
          "midi": 61,
          "name": "C#4",
          "ticks": 20832,
          "time": 73.97725299999999,
          "velocity": 0.5905511811023622
        },
        {
          "duration": 0.33380672916666754,
          "durationTicks": 94,
          "midi": 63,
          "name": "D#4",
          "ticks": 20832,
          "time": 73.97725299999999,
          "velocity": 0.5905511811023622
        },
        {
          "duration": 0.33380672916666754,
          "durationTicks": 94,
          "midi": 54,
          "name": "F#3",
          "ticks": 20928,
          "time": 74.31816199999999,
          "velocity": 0.5905511811023622
        },
        {
          "duration": 0.33380672916666754,
          "durationTicks": 94,
          "midi": 58,
          "name": "A#3",
          "ticks": 20928,
          "time": 74.31816199999999,
          "velocity": 0.5905511811023622
        },
        {
          "duration": 0.33380672916666754,
          "durationTicks": 94,
          "midi": 61,
          "name": "C#4",
          "ticks": 20928,
          "time": 74.31816199999999,
          "velocity": 0.5905511811023622
        },
        {
          "duration": 0.33380672916666754,
          "durationTicks": 94,
          "midi": 63,
          "name": "D#4",
          "ticks": 20928,
          "time": 74.31816199999999,
          "velocity": 0.5905511811023622
        },
        {
          "duration": 0.3338067291666533,
          "durationTicks": 94,
          "midi": 54,
          "name": "F#3",
          "ticks": 21024,
          "time": 74.659071,
          "velocity": 0.5905511811023622
        },
        {
          "duration": 0.3338067291666533,
          "durationTicks": 94,
          "midi": 58,
          "name": "A#3",
          "ticks": 21024,
          "time": 74.659071,
          "velocity": 0.5905511811023622
        },
        {
          "duration": 0.3338067291666533,
          "durationTicks": 94,
          "midi": 61,
          "name": "C#4",
          "ticks": 21024,
          "time": 74.659071,
          "velocity": 0.5905511811023622
        },
        {
          "duration": 0.3338067291666533,
          "durationTicks": 94,
          "midi": 63,
          "name": "D#4",
          "ticks": 21024,
          "time": 74.659071,
          "velocity": 0.5905511811023622
        },
        {
          "duration": 0.33380672916666754,
          "durationTicks": 94,
          "midi": 54,
          "name": "F#3",
          "ticks": 21120,
          "time": 74.99998,
          "velocity": 0.5905511811023622
        },
        {
          "duration": 0.33380672916666754,
          "durationTicks": 94,
          "midi": 58,
          "name": "A#3",
          "ticks": 21120,
          "time": 74.99998,
          "velocity": 0.5905511811023622
        },
        {
          "duration": 0.33380672916666754,
          "durationTicks": 94,
          "midi": 61,
          "name": "C#4",
          "ticks": 21120,
          "time": 74.99998,
          "velocity": 0.5905511811023622
        },
        {
          "duration": 0.33380672916666754,
          "durationTicks": 94,
          "midi": 54,
          "name": "F#3",
          "ticks": 21216,
          "time": 75.34088899999999,
          "velocity": 0.5905511811023622
        },
        {
          "duration": 0.33380672916666754,
          "durationTicks": 94,
          "midi": 58,
          "name": "A#3",
          "ticks": 21216,
          "time": 75.34088899999999,
          "velocity": 0.5905511811023622
        },
        {
          "duration": 0.33380672916666754,
          "durationTicks": 94,
          "midi": 61,
          "name": "C#4",
          "ticks": 21216,
          "time": 75.34088899999999,
          "velocity": 0.5905511811023622
        },
        {
          "duration": 0.33380672916666754,
          "durationTicks": 94,
          "midi": 63,
          "name": "D#4",
          "ticks": 21216,
          "time": 75.34088899999999,
          "velocity": 0.5905511811023622
        },
        {
          "duration": 0.33380672916666754,
          "durationTicks": 94,
          "midi": 54,
          "name": "F#3",
          "ticks": 21312,
          "time": 75.68179799999999,
          "velocity": 0.5905511811023622
        },
        {
          "duration": 0.33380672916666754,
          "durationTicks": 94,
          "midi": 58,
          "name": "A#3",
          "ticks": 21312,
          "time": 75.68179799999999,
          "velocity": 0.5905511811023622
        },
        {
          "duration": 0.33380672916666754,
          "durationTicks": 94,
          "midi": 61,
          "name": "C#4",
          "ticks": 21312,
          "time": 75.68179799999999,
          "velocity": 0.5905511811023622
        },
        {
          "duration": 0.33380672916666754,
          "durationTicks": 94,
          "midi": 63,
          "name": "D#4",
          "ticks": 21312,
          "time": 75.68179799999999,
          "velocity": 0.5905511811023622
        },
        {
          "duration": 0.3338067291666533,
          "durationTicks": 94,
          "midi": 54,
          "name": "F#3",
          "ticks": 21408,
          "time": 76.022707,
          "velocity": 0.5905511811023622
        },
        {
          "duration": 0.3338067291666533,
          "durationTicks": 94,
          "midi": 58,
          "name": "A#3",
          "ticks": 21408,
          "time": 76.022707,
          "velocity": 0.5905511811023622
        },
        {
          "duration": 0.3338067291666533,
          "durationTicks": 94,
          "midi": 61,
          "name": "C#4",
          "ticks": 21408,
          "time": 76.022707,
          "velocity": 0.5905511811023622
        },
        {
          "duration": 0.3338067291666533,
          "durationTicks": 94,
          "midi": 63,
          "name": "D#4",
          "ticks": 21408,
          "time": 76.022707,
          "velocity": 0.5905511811023622
        },
        {
          "duration": 0.33380672916666754,
          "durationTicks": 94,
          "midi": 54,
          "name": "F#3",
          "ticks": 21504,
          "time": 76.363616,
          "velocity": 0.5905511811023622
        },
        {
          "duration": 0.33380672916666754,
          "durationTicks": 94,
          "midi": 58,
          "name": "A#3",
          "ticks": 21504,
          "time": 76.363616,
          "velocity": 0.5905511811023622
        },
        {
          "duration": 0.33380672916666754,
          "durationTicks": 94,
          "midi": 61,
          "name": "C#4",
          "ticks": 21504,
          "time": 76.363616,
          "velocity": 0.5905511811023622
        },
        {
          "duration": 0.33380672916666754,
          "durationTicks": 94,
          "midi": 54,
          "name": "F#3",
          "ticks": 21600,
          "time": 76.70452499999999,
          "velocity": 0.5905511811023622
        },
        {
          "duration": 0.33380672916666754,
          "durationTicks": 94,
          "midi": 58,
          "name": "A#3",
          "ticks": 21600,
          "time": 76.70452499999999,
          "velocity": 0.5905511811023622
        },
        {
          "duration": 0.33380672916666754,
          "durationTicks": 94,
          "midi": 61,
          "name": "C#4",
          "ticks": 21600,
          "time": 76.70452499999999,
          "velocity": 0.5905511811023622
        },
        {
          "duration": 0.33380672916666754,
          "durationTicks": 94,
          "midi": 63,
          "name": "D#4",
          "ticks": 21600,
          "time": 76.70452499999999,
          "velocity": 0.5905511811023622
        },
        {
          "duration": 0.33380672916666754,
          "durationTicks": 94,
          "midi": 54,
          "name": "F#3",
          "ticks": 21696,
          "time": 77.04543399999999,
          "velocity": 0.5905511811023622
        },
        {
          "duration": 0.33380672916666754,
          "durationTicks": 94,
          "midi": 58,
          "name": "A#3",
          "ticks": 21696,
          "time": 77.04543399999999,
          "velocity": 0.5905511811023622
        },
        {
          "duration": 0.33380672916666754,
          "durationTicks": 94,
          "midi": 61,
          "name": "C#4",
          "ticks": 21696,
          "time": 77.04543399999999,
          "velocity": 0.5905511811023622
        },
        {
          "duration": 0.33380672916666754,
          "durationTicks": 94,
          "midi": 63,
          "name": "D#4",
          "ticks": 21696,
          "time": 77.04543399999999,
          "velocity": 0.5905511811023622
        },
        {
          "duration": 0.3338067291666533,
          "durationTicks": 94,
          "midi": 54,
          "name": "F#3",
          "ticks": 21792,
          "time": 77.386343,
          "velocity": 0.5905511811023622
        },
        {
          "duration": 0.3338067291666533,
          "durationTicks": 94,
          "midi": 58,
          "name": "A#3",
          "ticks": 21792,
          "time": 77.386343,
          "velocity": 0.5905511811023622
        },
        {
          "duration": 0.3338067291666533,
          "durationTicks": 94,
          "midi": 61,
          "name": "C#4",
          "ticks": 21792,
          "time": 77.386343,
          "velocity": 0.5905511811023622
        },
        {
          "duration": 0.3338067291666533,
          "durationTicks": 94,
          "midi": 63,
          "name": "D#4",
          "ticks": 21792,
          "time": 77.386343,
          "velocity": 0.5905511811023622
        },
        {
          "duration": 0.33380672916666754,
          "durationTicks": 94,
          "midi": 54,
          "name": "F#3",
          "ticks": 21888,
          "time": 77.727252,
          "velocity": 0.5905511811023622
        },
        {
          "duration": 0.33380672916666754,
          "durationTicks": 94,
          "midi": 58,
          "name": "A#3",
          "ticks": 21888,
          "time": 77.727252,
          "velocity": 0.5905511811023622
        },
        {
          "duration": 0.33380672916666754,
          "durationTicks": 94,
          "midi": 61,
          "name": "C#4",
          "ticks": 21888,
          "time": 77.727252,
          "velocity": 0.5905511811023622
        },
        {
          "duration": 0.33380672916666754,
          "durationTicks": 94,
          "midi": 54,
          "name": "F#3",
          "ticks": 21984,
          "time": 78.06816099999999,
          "velocity": 0.5905511811023622
        },
        {
          "duration": 0.33380672916666754,
          "durationTicks": 94,
          "midi": 58,
          "name": "A#3",
          "ticks": 21984,
          "time": 78.06816099999999,
          "velocity": 0.5905511811023622
        },
        {
          "duration": 0.33380672916666754,
          "durationTicks": 94,
          "midi": 61,
          "name": "C#4",
          "ticks": 21984,
          "time": 78.06816099999999,
          "velocity": 0.5905511811023622
        },
        {
          "duration": 0.33380672916666754,
          "durationTicks": 94,
          "midi": 63,
          "name": "D#4",
          "ticks": 21984,
          "time": 78.06816099999999,
          "velocity": 0.5905511811023622
        },
        {
          "duration": 0.33380672916666754,
          "durationTicks": 94,
          "midi": 54,
          "name": "F#3",
          "ticks": 22080,
          "time": 78.40906999999999,
          "velocity": 0.5905511811023622
        },
        {
          "duration": 0.33380672916666754,
          "durationTicks": 94,
          "midi": 58,
          "name": "A#3",
          "ticks": 22080,
          "time": 78.40906999999999,
          "velocity": 0.5905511811023622
        },
        {
          "duration": 0.33380672916666754,
          "durationTicks": 94,
          "midi": 61,
          "name": "C#4",
          "ticks": 22080,
          "time": 78.40906999999999,
          "velocity": 0.5905511811023622
        },
        {
          "duration": 0.33380672916666754,
          "durationTicks": 94,
          "midi": 63,
          "name": "D#4",
          "ticks": 22080,
          "time": 78.40906999999999,
          "velocity": 0.5905511811023622
        },
        {
          "duration": 0.3338067291666533,
          "durationTicks": 94,
          "midi": 54,
          "name": "F#3",
          "ticks": 22176,
          "time": 78.749979,
          "velocity": 0.5905511811023622
        },
        {
          "duration": 0.3338067291666533,
          "durationTicks": 94,
          "midi": 58,
          "name": "A#3",
          "ticks": 22176,
          "time": 78.749979,
          "velocity": 0.5905511811023622
        },
        {
          "duration": 0.3338067291666533,
          "durationTicks": 94,
          "midi": 61,
          "name": "C#4",
          "ticks": 22176,
          "time": 78.749979,
          "velocity": 0.5905511811023622
        },
        {
          "duration": 0.3338067291666533,
          "durationTicks": 94,
          "midi": 63,
          "name": "D#4",
          "ticks": 22176,
          "time": 78.749979,
          "velocity": 0.5905511811023622
        },
        {
          "duration": 0.33380672916666754,
          "durationTicks": 94,
          "midi": 52,
          "name": "E3",
          "ticks": 22272,
          "time": 79.09088799999999,
          "velocity": 0.5905511811023622
        },
        {
          "duration": 0.33380672916666754,
          "durationTicks": 94,
          "midi": 56,
          "name": "G#3",
          "ticks": 22272,
          "time": 79.09088799999999,
          "velocity": 0.5905511811023622
        },
        {
          "duration": 0.33380672916666754,
          "durationTicks": 94,
          "midi": 63,
          "name": "D#4",
          "ticks": 22272,
          "time": 79.09088799999999,
          "velocity": 0.5905511811023622
        },
        {
          "duration": 0.33380672916666754,
          "durationTicks": 94,
          "midi": 52,
          "name": "E3",
          "ticks": 22368,
          "time": 79.43179699999999,
          "velocity": 0.5905511811023622
        },
        {
          "duration": 0.33380672916666754,
          "durationTicks": 94,
          "midi": 56,
          "name": "G#3",
          "ticks": 22368,
          "time": 79.43179699999999,
          "velocity": 0.5905511811023622
        },
        {
          "duration": 0.33380672916666754,
          "durationTicks": 94,
          "midi": 63,
          "name": "D#4",
          "ticks": 22368,
          "time": 79.43179699999999,
          "velocity": 0.5905511811023622
        },
        {
          "duration": 0.33380672916666754,
          "durationTicks": 94,
          "midi": 52,
          "name": "E3",
          "ticks": 22464,
          "time": 79.77270599999999,
          "velocity": 0.5905511811023622
        },
        {
          "duration": 0.33380672916666754,
          "durationTicks": 94,
          "midi": 56,
          "name": "G#3",
          "ticks": 22464,
          "time": 79.77270599999999,
          "velocity": 0.5905511811023622
        },
        {
          "duration": 0.33380672916666754,
          "durationTicks": 94,
          "midi": 63,
          "name": "D#4",
          "ticks": 22464,
          "time": 79.77270599999999,
          "velocity": 0.5905511811023622
        },
        {
          "duration": 0.3338067291666533,
          "durationTicks": 94,
          "midi": 52,
          "name": "E3",
          "ticks": 22560,
          "time": 80.113615,
          "velocity": 0.5905511811023622
        },
        {
          "duration": 0.3338067291666533,
          "durationTicks": 94,
          "midi": 56,
          "name": "G#3",
          "ticks": 22560,
          "time": 80.113615,
          "velocity": 0.5905511811023622
        },
        {
          "duration": 0.3338067291666533,
          "durationTicks": 94,
          "midi": 63,
          "name": "D#4",
          "ticks": 22560,
          "time": 80.113615,
          "velocity": 0.5905511811023622
        },
        {
          "duration": 0.33380672916666754,
          "durationTicks": 94,
          "midi": 52,
          "name": "E3",
          "ticks": 22656,
          "time": 80.45452399999999,
          "velocity": 0.5905511811023622
        },
        {
          "duration": 0.33380672916666754,
          "durationTicks": 94,
          "midi": 56,
          "name": "G#3",
          "ticks": 22656,
          "time": 80.45452399999999,
          "velocity": 0.5905511811023622
        },
        {
          "duration": 0.33380672916666754,
          "durationTicks": 94,
          "midi": 63,
          "name": "D#4",
          "ticks": 22656,
          "time": 80.45452399999999,
          "velocity": 0.5905511811023622
        },
        {
          "duration": 0.33380672916666754,
          "durationTicks": 94,
          "midi": 52,
          "name": "E3",
          "ticks": 22752,
          "time": 80.79543299999999,
          "velocity": 0.5905511811023622
        },
        {
          "duration": 0.33380672916666754,
          "durationTicks": 94,
          "midi": 56,
          "name": "G#3",
          "ticks": 22752,
          "time": 80.79543299999999,
          "velocity": 0.5905511811023622
        },
        {
          "duration": 0.33380672916666754,
          "durationTicks": 94,
          "midi": 63,
          "name": "D#4",
          "ticks": 22752,
          "time": 80.79543299999999,
          "velocity": 0.5905511811023622
        },
        {
          "duration": 0.33380672916666754,
          "durationTicks": 94,
          "midi": 52,
          "name": "E3",
          "ticks": 22848,
          "time": 81.13634199999998,
          "velocity": 0.5905511811023622
        },
        {
          "duration": 0.33380672916666754,
          "durationTicks": 94,
          "midi": 56,
          "name": "G#3",
          "ticks": 22848,
          "time": 81.13634199999998,
          "velocity": 0.5905511811023622
        },
        {
          "duration": 0.33380672916666754,
          "durationTicks": 94,
          "midi": 63,
          "name": "D#4",
          "ticks": 22848,
          "time": 81.13634199999998,
          "velocity": 0.5905511811023622
        },
        {
          "duration": 0.3338067291666533,
          "durationTicks": 94,
          "midi": 52,
          "name": "E3",
          "ticks": 22944,
          "time": 81.477251,
          "velocity": 0.5905511811023622
        },
        {
          "duration": 0.3338067291666533,
          "durationTicks": 94,
          "midi": 56,
          "name": "G#3",
          "ticks": 22944,
          "time": 81.477251,
          "velocity": 0.5905511811023622
        },
        {
          "duration": 0.3338067291666533,
          "durationTicks": 94,
          "midi": 63,
          "name": "D#4",
          "ticks": 22944,
          "time": 81.477251,
          "velocity": 0.5905511811023622
        },
        {
          "duration": 0.33380672916666754,
          "durationTicks": 94,
          "midi": 52,
          "name": "E3",
          "ticks": 23040,
          "time": 81.81815999999999,
          "velocity": 0.5905511811023622
        },
        {
          "duration": 0.33380672916666754,
          "durationTicks": 94,
          "midi": 56,
          "name": "G#3",
          "ticks": 23040,
          "time": 81.81815999999999,
          "velocity": 0.5905511811023622
        },
        {
          "duration": 0.33380672916666754,
          "durationTicks": 94,
          "midi": 63,
          "name": "D#4",
          "ticks": 23040,
          "time": 81.81815999999999,
          "velocity": 0.5905511811023622
        },
        {
          "duration": 0.33380672916666754,
          "durationTicks": 94,
          "midi": 52,
          "name": "E3",
          "ticks": 23136,
          "time": 82.15906899999999,
          "velocity": 0.5905511811023622
        },
        {
          "duration": 0.33380672916666754,
          "durationTicks": 94,
          "midi": 56,
          "name": "G#3",
          "ticks": 23136,
          "time": 82.15906899999999,
          "velocity": 0.5905511811023622
        },
        {
          "duration": 0.33380672916666754,
          "durationTicks": 94,
          "midi": 63,
          "name": "D#4",
          "ticks": 23136,
          "time": 82.15906899999999,
          "velocity": 0.5905511811023622
        },
        {
          "duration": 0.33380672916666754,
          "durationTicks": 94,
          "midi": 52,
          "name": "E3",
          "ticks": 23232,
          "time": 82.49997799999998,
          "velocity": 0.5905511811023622
        },
        {
          "duration": 0.33380672916666754,
          "durationTicks": 94,
          "midi": 56,
          "name": "G#3",
          "ticks": 23232,
          "time": 82.49997799999998,
          "velocity": 0.5905511811023622
        },
        {
          "duration": 0.33380672916666754,
          "durationTicks": 94,
          "midi": 63,
          "name": "D#4",
          "ticks": 23232,
          "time": 82.49997799999998,
          "velocity": 0.5905511811023622
        },
        {
          "duration": 0.3338067291666533,
          "durationTicks": 94,
          "midi": 52,
          "name": "E3",
          "ticks": 23328,
          "time": 82.840887,
          "velocity": 0.5905511811023622
        },
        {
          "duration": 0.3338067291666533,
          "durationTicks": 94,
          "midi": 56,
          "name": "G#3",
          "ticks": 23328,
          "time": 82.840887,
          "velocity": 0.5905511811023622
        },
        {
          "duration": 0.3338067291666533,
          "durationTicks": 94,
          "midi": 63,
          "name": "D#4",
          "ticks": 23328,
          "time": 82.840887,
          "velocity": 0.5905511811023622
        },
        {
          "duration": 0.33380672916666754,
          "durationTicks": 94,
          "midi": 52,
          "name": "E3",
          "ticks": 23424,
          "time": 83.18179599999999,
          "velocity": 0.5905511811023622
        },
        {
          "duration": 0.33380672916666754,
          "durationTicks": 94,
          "midi": 56,
          "name": "G#3",
          "ticks": 23424,
          "time": 83.18179599999999,
          "velocity": 0.5905511811023622
        },
        {
          "duration": 0.33380672916666754,
          "durationTicks": 94,
          "midi": 63,
          "name": "D#4",
          "ticks": 23424,
          "time": 83.18179599999999,
          "velocity": 0.5905511811023622
        },
        {
          "duration": 0.33380672916666754,
          "durationTicks": 94,
          "midi": 52,
          "name": "E3",
          "ticks": 23520,
          "time": 83.52270499999999,
          "velocity": 0.5905511811023622
        },
        {
          "duration": 0.33380672916666754,
          "durationTicks": 94,
          "midi": 56,
          "name": "G#3",
          "ticks": 23520,
          "time": 83.52270499999999,
          "velocity": 0.5905511811023622
        },
        {
          "duration": 0.33380672916666754,
          "durationTicks": 94,
          "midi": 63,
          "name": "D#4",
          "ticks": 23520,
          "time": 83.52270499999999,
          "velocity": 0.5905511811023622
        },
        {
          "duration": 0.33380672916666754,
          "durationTicks": 94,
          "midi": 52,
          "name": "E3",
          "ticks": 23616,
          "time": 83.86361399999998,
          "velocity": 0.5905511811023622
        },
        {
          "duration": 0.33380672916666754,
          "durationTicks": 94,
          "midi": 56,
          "name": "G#3",
          "ticks": 23616,
          "time": 83.86361399999998,
          "velocity": 0.5905511811023622
        },
        {
          "duration": 0.33380672916666754,
          "durationTicks": 94,
          "midi": 63,
          "name": "D#4",
          "ticks": 23616,
          "time": 83.86361399999998,
          "velocity": 0.5905511811023622
        },
        {
          "duration": 0.3338067291666533,
          "durationTicks": 94,
          "midi": 52,
          "name": "E3",
          "ticks": 23712,
          "time": 84.204523,
          "velocity": 0.5905511811023622
        },
        {
          "duration": 0.3338067291666533,
          "durationTicks": 94,
          "midi": 56,
          "name": "G#3",
          "ticks": 23712,
          "time": 84.204523,
          "velocity": 0.5905511811023622
        },
        {
          "duration": 0.3338067291666533,
          "durationTicks": 94,
          "midi": 63,
          "name": "D#4",
          "ticks": 23712,
          "time": 84.204523,
          "velocity": 0.5905511811023622
        },
        {
          "duration": 0.33380672916666754,
          "durationTicks": 94,
          "midi": 54,
          "name": "F#3",
          "ticks": 23808,
          "time": 84.54543199999999,
          "velocity": 0.5905511811023622
        },
        {
          "duration": 0.33380672916666754,
          "durationTicks": 94,
          "midi": 59,
          "name": "B3",
          "ticks": 23808,
          "time": 84.54543199999999,
          "velocity": 0.5905511811023622
        },
        {
          "duration": 0.33380672916666754,
          "durationTicks": 94,
          "midi": 63,
          "name": "D#4",
          "ticks": 23808,
          "time": 84.54543199999999,
          "velocity": 0.5905511811023622
        },
        {
          "duration": 0.33380672916666754,
          "durationTicks": 94,
          "midi": 54,
          "name": "F#3",
          "ticks": 23904,
          "time": 84.88634099999999,
          "velocity": 0.5905511811023622
        },
        {
          "duration": 0.33380672916666754,
          "durationTicks": 94,
          "midi": 59,
          "name": "B3",
          "ticks": 23904,
          "time": 84.88634099999999,
          "velocity": 0.5905511811023622
        },
        {
          "duration": 0.33380672916666754,
          "durationTicks": 94,
          "midi": 63,
          "name": "D#4",
          "ticks": 23904,
          "time": 84.88634099999999,
          "velocity": 0.5905511811023622
        },
        {
          "duration": 0.33380672916666754,
          "durationTicks": 94,
          "midi": 54,
          "name": "F#3",
          "ticks": 24000,
          "time": 85.22724999999998,
          "velocity": 0.5905511811023622
        },
        {
          "duration": 0.33380672916666754,
          "durationTicks": 94,
          "midi": 59,
          "name": "B3",
          "ticks": 24000,
          "time": 85.22724999999998,
          "velocity": 0.5905511811023622
        },
        {
          "duration": 0.33380672916666754,
          "durationTicks": 94,
          "midi": 63,
          "name": "D#4",
          "ticks": 24000,
          "time": 85.22724999999998,
          "velocity": 0.5905511811023622
        },
        {
          "duration": 0.3338067291666533,
          "durationTicks": 94,
          "midi": 54,
          "name": "F#3",
          "ticks": 24096,
          "time": 85.568159,
          "velocity": 0.5905511811023622
        },
        {
          "duration": 0.3338067291666533,
          "durationTicks": 94,
          "midi": 59,
          "name": "B3",
          "ticks": 24096,
          "time": 85.568159,
          "velocity": 0.5905511811023622
        },
        {
          "duration": 0.3338067291666533,
          "durationTicks": 94,
          "midi": 63,
          "name": "D#4",
          "ticks": 24096,
          "time": 85.568159,
          "velocity": 0.5905511811023622
        },
        {
          "duration": 0.33380672916666754,
          "durationTicks": 94,
          "midi": 54,
          "name": "F#3",
          "ticks": 24192,
          "time": 85.90906799999999,
          "velocity": 0.5905511811023622
        },
        {
          "duration": 0.33380672916666754,
          "durationTicks": 94,
          "midi": 59,
          "name": "B3",
          "ticks": 24192,
          "time": 85.90906799999999,
          "velocity": 0.5905511811023622
        },
        {
          "duration": 0.33380672916666754,
          "durationTicks": 94,
          "midi": 63,
          "name": "D#4",
          "ticks": 24192,
          "time": 85.90906799999999,
          "velocity": 0.5905511811023622
        },
        {
          "duration": 0.33380672916666754,
          "durationTicks": 94,
          "midi": 54,
          "name": "F#3",
          "ticks": 24288,
          "time": 86.24997699999999,
          "velocity": 0.5905511811023622
        },
        {
          "duration": 0.33380672916666754,
          "durationTicks": 94,
          "midi": 59,
          "name": "B3",
          "ticks": 24288,
          "time": 86.24997699999999,
          "velocity": 0.5905511811023622
        },
        {
          "duration": 0.33380672916666754,
          "durationTicks": 94,
          "midi": 63,
          "name": "D#4",
          "ticks": 24288,
          "time": 86.24997699999999,
          "velocity": 0.5905511811023622
        },
        {
          "duration": 0.33380672916666754,
          "durationTicks": 94,
          "midi": 54,
          "name": "F#3",
          "ticks": 24384,
          "time": 86.59088599999998,
          "velocity": 0.5905511811023622
        },
        {
          "duration": 0.33380672916666754,
          "durationTicks": 94,
          "midi": 59,
          "name": "B3",
          "ticks": 24384,
          "time": 86.59088599999998,
          "velocity": 0.5905511811023622
        },
        {
          "duration": 0.33380672916666754,
          "durationTicks": 94,
          "midi": 63,
          "name": "D#4",
          "ticks": 24384,
          "time": 86.59088599999998,
          "velocity": 0.5905511811023622
        },
        {
          "duration": 0.3338067291666533,
          "durationTicks": 94,
          "midi": 54,
          "name": "F#3",
          "ticks": 24480,
          "time": 86.931795,
          "velocity": 0.5905511811023622
        },
        {
          "duration": 0.3338067291666533,
          "durationTicks": 94,
          "midi": 59,
          "name": "B3",
          "ticks": 24480,
          "time": 86.931795,
          "velocity": 0.5905511811023622
        },
        {
          "duration": 0.3338067291666533,
          "durationTicks": 94,
          "midi": 63,
          "name": "D#4",
          "ticks": 24480,
          "time": 86.931795,
          "velocity": 0.5905511811023622
        },
        {
          "duration": 0.33380672916666754,
          "durationTicks": 94,
          "midi": 54,
          "name": "F#3",
          "ticks": 24576,
          "time": 87.27270399999999,
          "velocity": 0.5905511811023622
        },
        {
          "duration": 0.33380672916666754,
          "durationTicks": 94,
          "midi": 59,
          "name": "B3",
          "ticks": 24576,
          "time": 87.27270399999999,
          "velocity": 0.5905511811023622
        },
        {
          "duration": 0.33380672916666754,
          "durationTicks": 94,
          "midi": 64,
          "name": "E4",
          "ticks": 24576,
          "time": 87.27270399999999,
          "velocity": 0.5905511811023622
        },
        {
          "duration": 0.33380672916668175,
          "durationTicks": 94,
          "midi": 54,
          "name": "F#3",
          "ticks": 24672,
          "time": 87.61361299999999,
          "velocity": 0.5905511811023622
        },
        {
          "duration": 0.33380672916668175,
          "durationTicks": 94,
          "midi": 59,
          "name": "B3",
          "ticks": 24672,
          "time": 87.61361299999999,
          "velocity": 0.5905511811023622
        },
        {
          "duration": 0.33380672916668175,
          "durationTicks": 94,
          "midi": 64,
          "name": "E4",
          "ticks": 24672,
          "time": 87.61361299999999,
          "velocity": 0.5905511811023622
        },
        {
          "duration": 0.33380672916666754,
          "durationTicks": 94,
          "midi": 54,
          "name": "F#3",
          "ticks": 24768,
          "time": 87.954522,
          "velocity": 0.5905511811023622
        },
        {
          "duration": 0.33380672916666754,
          "durationTicks": 94,
          "midi": 59,
          "name": "B3",
          "ticks": 24768,
          "time": 87.954522,
          "velocity": 0.5905511811023622
        },
        {
          "duration": 0.33380672916666754,
          "durationTicks": 94,
          "midi": 64,
          "name": "E4",
          "ticks": 24768,
          "time": 87.954522,
          "velocity": 0.5905511811023622
        },
        {
          "duration": 0.33380672916666754,
          "durationTicks": 94,
          "midi": 54,
          "name": "F#3",
          "ticks": 24864,
          "time": 88.295431,
          "velocity": 0.5905511811023622
        },
        {
          "duration": 0.33380672916666754,
          "durationTicks": 94,
          "midi": 59,
          "name": "B3",
          "ticks": 24864,
          "time": 88.295431,
          "velocity": 0.5905511811023622
        },
        {
          "duration": 0.33380672916666754,
          "durationTicks": 94,
          "midi": 64,
          "name": "E4",
          "ticks": 24864,
          "time": 88.295431,
          "velocity": 0.5905511811023622
        },
        {
          "duration": 0.33380672916666754,
          "durationTicks": 94,
          "midi": 54,
          "name": "F#3",
          "ticks": 24960,
          "time": 88.63633999999999,
          "velocity": 0.5905511811023622
        },
        {
          "duration": 0.33380672916666754,
          "durationTicks": 94,
          "midi": 59,
          "name": "B3",
          "ticks": 24960,
          "time": 88.63633999999999,
          "velocity": 0.5905511811023622
        },
        {
          "duration": 0.33380672916666754,
          "durationTicks": 94,
          "midi": 63,
          "name": "D#4",
          "ticks": 24960,
          "time": 88.63633999999999,
          "velocity": 0.5905511811023622
        },
        {
          "duration": 0.33380672916668175,
          "durationTicks": 94,
          "midi": 54,
          "name": "F#3",
          "ticks": 25056,
          "time": 88.97724899999999,
          "velocity": 0.5905511811023622
        },
        {
          "duration": 0.33380672916668175,
          "durationTicks": 94,
          "midi": 59,
          "name": "B3",
          "ticks": 25056,
          "time": 88.97724899999999,
          "velocity": 0.5905511811023622
        },
        {
          "duration": 0.33380672916668175,
          "durationTicks": 94,
          "midi": 63,
          "name": "D#4",
          "ticks": 25056,
          "time": 88.97724899999999,
          "velocity": 0.5905511811023622
        },
        {
          "duration": 0.33380672916666754,
          "durationTicks": 94,
          "midi": 54,
          "name": "F#3",
          "ticks": 25152,
          "time": 89.318158,
          "velocity": 0.5905511811023622
        },
        {
          "duration": 0.33380672916666754,
          "durationTicks": 94,
          "midi": 59,
          "name": "B3",
          "ticks": 25152,
          "time": 89.318158,
          "velocity": 0.5905511811023622
        },
        {
          "duration": 0.33380672916666754,
          "durationTicks": 94,
          "midi": 63,
          "name": "D#4",
          "ticks": 25152,
          "time": 89.318158,
          "velocity": 0.5905511811023622
        },
        {
          "duration": 0.33380672916666754,
          "durationTicks": 94,
          "midi": 54,
          "name": "F#3",
          "ticks": 25248,
          "time": 89.659067,
          "velocity": 0.5905511811023622
        },
        {
          "duration": 0.33380672916666754,
          "durationTicks": 94,
          "midi": 59,
          "name": "B3",
          "ticks": 25248,
          "time": 89.659067,
          "velocity": 0.5905511811023622
        },
        {
          "duration": 0.33380672916666754,
          "durationTicks": 94,
          "midi": 63,
          "name": "D#4",
          "ticks": 25248,
          "time": 89.659067,
          "velocity": 0.5905511811023622
        },
        {
          "duration": 0.33380672916666754,
          "durationTicks": 94,
          "midi": 59,
          "name": "B3",
          "ticks": 25344,
          "time": 89.99997599999999,
          "velocity": 0.5905511811023622
        },
        {
          "duration": 0.33380672916666754,
          "durationTicks": 94,
          "midi": 64,
          "name": "E4",
          "ticks": 25344,
          "time": 89.99997599999999,
          "velocity": 0.5905511811023622
        },
        {
          "duration": 0.33380672916666754,
          "durationTicks": 94,
          "midi": 68,
          "name": "G#4",
          "ticks": 25344,
          "time": 89.99997599999999,
          "velocity": 0.5905511811023622
        },
        {
          "duration": 0.33380672916668175,
          "durationTicks": 94,
          "midi": 59,
          "name": "B3",
          "ticks": 25440,
          "time": 90.34088499999999,
          "velocity": 0.5905511811023622
        },
        {
          "duration": 0.33380672916668175,
          "durationTicks": 94,
          "midi": 64,
          "name": "E4",
          "ticks": 25440,
          "time": 90.34088499999999,
          "velocity": 0.5905511811023622
        },
        {
          "duration": 0.33380672916668175,
          "durationTicks": 94,
          "midi": 68,
          "name": "G#4",
          "ticks": 25440,
          "time": 90.34088499999999,
          "velocity": 0.5905511811023622
        },
        {
          "duration": 0.33380672916666754,
          "durationTicks": 94,
          "midi": 59,
          "name": "B3",
          "ticks": 25536,
          "time": 90.681794,
          "velocity": 0.5905511811023622
        },
        {
          "duration": 0.33380672916666754,
          "durationTicks": 94,
          "midi": 64,
          "name": "E4",
          "ticks": 25536,
          "time": 90.681794,
          "velocity": 0.5905511811023622
        },
        {
          "duration": 0.33380672916666754,
          "durationTicks": 94,
          "midi": 68,
          "name": "G#4",
          "ticks": 25536,
          "time": 90.681794,
          "velocity": 0.5905511811023622
        },
        {
          "duration": 0.33380672916666754,
          "durationTicks": 94,
          "midi": 59,
          "name": "B3",
          "ticks": 25632,
          "time": 91.02270299999999,
          "velocity": 0.5905511811023622
        },
        {
          "duration": 0.33380672916666754,
          "durationTicks": 94,
          "midi": 64,
          "name": "E4",
          "ticks": 25632,
          "time": 91.02270299999999,
          "velocity": 0.5905511811023622
        },
        {
          "duration": 0.33380672916666754,
          "durationTicks": 94,
          "midi": 68,
          "name": "G#4",
          "ticks": 25632,
          "time": 91.02270299999999,
          "velocity": 0.5905511811023622
        },
        {
          "duration": 0.33380672916666754,
          "durationTicks": 94,
          "midi": 59,
          "name": "B3",
          "ticks": 25728,
          "time": 91.36361199999999,
          "velocity": 0.5905511811023622
        },
        {
          "duration": 0.33380672916666754,
          "durationTicks": 94,
          "midi": 64,
          "name": "E4",
          "ticks": 25728,
          "time": 91.36361199999999,
          "velocity": 0.5905511811023622
        },
        {
          "duration": 0.33380672916666754,
          "durationTicks": 94,
          "midi": 68,
          "name": "G#4",
          "ticks": 25728,
          "time": 91.36361199999999,
          "velocity": 0.5905511811023622
        },
        {
          "duration": 0.33380672916668175,
          "durationTicks": 94,
          "midi": 59,
          "name": "B3",
          "ticks": 25824,
          "time": 91.70452099999999,
          "velocity": 0.5905511811023622
        },
        {
          "duration": 0.33380672916668175,
          "durationTicks": 94,
          "midi": 64,
          "name": "E4",
          "ticks": 25824,
          "time": 91.70452099999999,
          "velocity": 0.5905511811023622
        },
        {
          "duration": 0.33380672916668175,
          "durationTicks": 94,
          "midi": 68,
          "name": "G#4",
          "ticks": 25824,
          "time": 91.70452099999999,
          "velocity": 0.5905511811023622
        },
        {
          "duration": 0.33380672916666754,
          "durationTicks": 94,
          "midi": 59,
          "name": "B3",
          "ticks": 25920,
          "time": 92.04543,
          "velocity": 0.5905511811023622
        },
        {
          "duration": 0.33380672916666754,
          "durationTicks": 94,
          "midi": 64,
          "name": "E4",
          "ticks": 25920,
          "time": 92.04543,
          "velocity": 0.5905511811023622
        },
        {
          "duration": 0.33380672916666754,
          "durationTicks": 94,
          "midi": 68,
          "name": "G#4",
          "ticks": 25920,
          "time": 92.04543,
          "velocity": 0.5905511811023622
        },
        {
          "duration": 0.33380672916666754,
          "durationTicks": 94,
          "midi": 59,
          "name": "B3",
          "ticks": 26016,
          "time": 92.38633899999999,
          "velocity": 0.5905511811023622
        },
        {
          "duration": 0.33380672916666754,
          "durationTicks": 94,
          "midi": 64,
          "name": "E4",
          "ticks": 26016,
          "time": 92.38633899999999,
          "velocity": 0.5905511811023622
        },
        {
          "duration": 0.33380672916666754,
          "durationTicks": 94,
          "midi": 68,
          "name": "G#4",
          "ticks": 26016,
          "time": 92.38633899999999,
          "velocity": 0.5905511811023622
        },
        {
          "duration": 0.33380672916666754,
          "durationTicks": 94,
          "midi": 56,
          "name": "G#3",
          "ticks": 26112,
          "time": 92.72724799999999,
          "velocity": 0.5905511811023622
        },
        {
          "duration": 0.33380672916666754,
          "durationTicks": 94,
          "midi": 59,
          "name": "B3",
          "ticks": 26112,
          "time": 92.72724799999999,
          "velocity": 0.5905511811023622
        },
        {
          "duration": 0.33380672916666754,
          "durationTicks": 94,
          "midi": 63,
          "name": "D#4",
          "ticks": 26112,
          "time": 92.72724799999999,
          "velocity": 0.5905511811023622
        },
        {
          "duration": 0.33380672916666754,
          "durationTicks": 94,
          "midi": 66,
          "name": "F#4",
          "ticks": 26112,
          "time": 92.72724799999999,
          "velocity": 0.5905511811023622
        },
        {
          "duration": 0.33380672916668175,
          "durationTicks": 94,
          "midi": 56,
          "name": "G#3",
          "ticks": 26208,
          "time": 93.06815699999999,
          "velocity": 0.5905511811023622
        },
        {
          "duration": 0.33380672916668175,
          "durationTicks": 94,
          "midi": 59,
          "name": "B3",
          "ticks": 26208,
          "time": 93.06815699999999,
          "velocity": 0.5905511811023622
        },
        {
          "duration": 0.33380672916668175,
          "durationTicks": 94,
          "midi": 63,
          "name": "D#4",
          "ticks": 26208,
          "time": 93.06815699999999,
          "velocity": 0.5905511811023622
        },
        {
          "duration": 0.33380672916668175,
          "durationTicks": 94,
          "midi": 66,
          "name": "F#4",
          "ticks": 26208,
          "time": 93.06815699999999,
          "velocity": 0.5905511811023622
        },
        {
          "duration": 0.33380672916666754,
          "durationTicks": 94,
          "midi": 56,
          "name": "G#3",
          "ticks": 26304,
          "time": 93.409066,
          "velocity": 0.5905511811023622
        },
        {
          "duration": 0.33380672916666754,
          "durationTicks": 94,
          "midi": 59,
          "name": "B3",
          "ticks": 26304,
          "time": 93.409066,
          "velocity": 0.5905511811023622
        },
        {
          "duration": 0.33380672916666754,
          "durationTicks": 94,
          "midi": 63,
          "name": "D#4",
          "ticks": 26304,
          "time": 93.409066,
          "velocity": 0.5905511811023622
        },
        {
          "duration": 0.33380672916666754,
          "durationTicks": 94,
          "midi": 66,
          "name": "F#4",
          "ticks": 26304,
          "time": 93.409066,
          "velocity": 0.5905511811023622
        },
        {
          "duration": 0.33380672916666754,
          "durationTicks": 94,
          "midi": 54,
          "name": "F#3",
          "ticks": 26400,
          "time": 93.74997499999999,
          "velocity": 0.5905511811023622
        },
        {
          "duration": 0.33380672916666754,
          "durationTicks": 94,
          "midi": 58,
          "name": "A#3",
          "ticks": 26400,
          "time": 93.74997499999999,
          "velocity": 0.5905511811023622
        },
        {
          "duration": 0.33380672916666754,
          "durationTicks": 94,
          "midi": 63,
          "name": "D#4",
          "ticks": 26400,
          "time": 93.74997499999999,
          "velocity": 0.5905511811023622
        },
        {
          "duration": 0.33380672916666754,
          "durationTicks": 94,
          "midi": 66,
          "name": "F#4",
          "ticks": 26400,
          "time": 93.74997499999999,
          "velocity": 0.5905511811023622
        },
        {
          "duration": 0.33380672916666754,
          "durationTicks": 94,
          "midi": 54,
          "name": "F#3",
          "ticks": 26496,
          "time": 94.09088399999999,
          "velocity": 0.5905511811023622
        },
        {
          "duration": 0.33380672916666754,
          "durationTicks": 94,
          "midi": 58,
          "name": "A#3",
          "ticks": 26496,
          "time": 94.09088399999999,
          "velocity": 0.5905511811023622
        },
        {
          "duration": 0.33380672916666754,
          "durationTicks": 94,
          "midi": 63,
          "name": "D#4",
          "ticks": 26496,
          "time": 94.09088399999999,
          "velocity": 0.5905511811023622
        },
        {
          "duration": 0.33380672916666754,
          "durationTicks": 94,
          "midi": 66,
          "name": "F#4",
          "ticks": 26496,
          "time": 94.09088399999999,
          "velocity": 0.5905511811023622
        },
        {
          "duration": 0.33380672916668175,
          "durationTicks": 94,
          "midi": 54,
          "name": "F#3",
          "ticks": 26592,
          "time": 94.43179299999998,
          "velocity": 0.5905511811023622
        },
        {
          "duration": 0.33380672916668175,
          "durationTicks": 94,
          "midi": 58,
          "name": "A#3",
          "ticks": 26592,
          "time": 94.43179299999998,
          "velocity": 0.5905511811023622
        },
        {
          "duration": 0.33380672916668175,
          "durationTicks": 94,
          "midi": 63,
          "name": "D#4",
          "ticks": 26592,
          "time": 94.43179299999998,
          "velocity": 0.5905511811023622
        },
        {
          "duration": 0.33380672916668175,
          "durationTicks": 94,
          "midi": 66,
          "name": "F#4",
          "ticks": 26592,
          "time": 94.43179299999998,
          "velocity": 0.5905511811023622
        },
        {
          "duration": 0.33380672916666754,
          "durationTicks": 94,
          "midi": 54,
          "name": "F#3",
          "ticks": 26688,
          "time": 94.772702,
          "velocity": 0.5905511811023622
        },
        {
          "duration": 0.33380672916666754,
          "durationTicks": 94,
          "midi": 58,
          "name": "A#3",
          "ticks": 26688,
          "time": 94.772702,
          "velocity": 0.5905511811023622
        },
        {
          "duration": 0.33380672916666754,
          "durationTicks": 94,
          "midi": 63,
          "name": "D#4",
          "ticks": 26688,
          "time": 94.772702,
          "velocity": 0.5905511811023622
        },
        {
          "duration": 0.33380672916666754,
          "durationTicks": 94,
          "midi": 66,
          "name": "F#4",
          "ticks": 26688,
          "time": 94.772702,
          "velocity": 0.5905511811023622
        },
        {
          "duration": 0.33380672916666754,
          "durationTicks": 94,
          "midi": 54,
          "name": "F#3",
          "ticks": 26784,
          "time": 95.11361099999999,
          "velocity": 0.5905511811023622
        },
        {
          "duration": 0.33380672916666754,
          "durationTicks": 94,
          "midi": 58,
          "name": "A#3",
          "ticks": 26784,
          "time": 95.11361099999999,
          "velocity": 0.5905511811023622
        },
        {
          "duration": 0.33380672916666754,
          "durationTicks": 94,
          "midi": 63,
          "name": "D#4",
          "ticks": 26784,
          "time": 95.11361099999999,
          "velocity": 0.5905511811023622
        },
        {
          "duration": 0.33380672916666754,
          "durationTicks": 94,
          "midi": 66,
          "name": "F#4",
          "ticks": 26784,
          "time": 95.11361099999999,
          "velocity": 0.5905511811023622
        },
        {
          "duration": 0.33380672916666754,
          "durationTicks": 94,
          "midi": 59,
          "name": "B3",
          "ticks": 26880,
          "time": 95.45451999999999,
          "velocity": 0.5905511811023622
        },
        {
          "duration": 0.33380672916666754,
          "durationTicks": 94,
          "midi": 64,
          "name": "E4",
          "ticks": 26880,
          "time": 95.45451999999999,
          "velocity": 0.5905511811023622
        },
        {
          "duration": 0.33380672916666754,
          "durationTicks": 94,
          "midi": 68,
          "name": "G#4",
          "ticks": 26880,
          "time": 95.45451999999999,
          "velocity": 0.5905511811023622
        },
        {
          "duration": 0.33380672916668175,
          "durationTicks": 94,
          "midi": 59,
          "name": "B3",
          "ticks": 26976,
          "time": 95.79542899999998,
          "velocity": 0.5905511811023622
        },
        {
          "duration": 0.33380672916668175,
          "durationTicks": 94,
          "midi": 64,
          "name": "E4",
          "ticks": 26976,
          "time": 95.79542899999998,
          "velocity": 0.5905511811023622
        },
        {
          "duration": 0.33380672916668175,
          "durationTicks": 94,
          "midi": 68,
          "name": "G#4",
          "ticks": 26976,
          "time": 95.79542899999998,
          "velocity": 0.5905511811023622
        },
        {
          "duration": 0.33380672916666754,
          "durationTicks": 94,
          "midi": 59,
          "name": "B3",
          "ticks": 27072,
          "time": 96.136338,
          "velocity": 0.5905511811023622
        },
        {
          "duration": 0.33380672916666754,
          "durationTicks": 94,
          "midi": 64,
          "name": "E4",
          "ticks": 27072,
          "time": 96.136338,
          "velocity": 0.5905511811023622
        },
        {
          "duration": 0.33380672916666754,
          "durationTicks": 94,
          "midi": 68,
          "name": "G#4",
          "ticks": 27072,
          "time": 96.136338,
          "velocity": 0.5905511811023622
        },
        {
          "duration": 0.33380672916666754,
          "durationTicks": 94,
          "midi": 59,
          "name": "B3",
          "ticks": 27168,
          "time": 96.47724699999999,
          "velocity": 0.5905511811023622
        },
        {
          "duration": 0.33380672916666754,
          "durationTicks": 94,
          "midi": 64,
          "name": "E4",
          "ticks": 27168,
          "time": 96.47724699999999,
          "velocity": 0.5905511811023622
        },
        {
          "duration": 0.33380672916666754,
          "durationTicks": 94,
          "midi": 68,
          "name": "G#4",
          "ticks": 27168,
          "time": 96.47724699999999,
          "velocity": 0.5905511811023622
        },
        {
          "duration": 0.33380672916668175,
          "durationTicks": 94,
          "midi": 59,
          "name": "B3",
          "ticks": 27264,
          "time": 96.81815599999999,
          "velocity": 0.5905511811023622
        },
        {
          "duration": 0.33380672916668175,
          "durationTicks": 94,
          "midi": 64,
          "name": "E4",
          "ticks": 27264,
          "time": 96.81815599999999,
          "velocity": 0.5905511811023622
        },
        {
          "duration": 0.33380672916668175,
          "durationTicks": 94,
          "midi": 68,
          "name": "G#4",
          "ticks": 27264,
          "time": 96.81815599999999,
          "velocity": 0.5905511811023622
        },
        {
          "duration": 0.33380672916668175,
          "durationTicks": 94,
          "midi": 59,
          "name": "B3",
          "ticks": 27360,
          "time": 97.15906499999998,
          "velocity": 0.5905511811023622
        },
        {
          "duration": 0.33380672916668175,
          "durationTicks": 94,
          "midi": 64,
          "name": "E4",
          "ticks": 27360,
          "time": 97.15906499999998,
          "velocity": 0.5905511811023622
        },
        {
          "duration": 0.33380672916668175,
          "durationTicks": 94,
          "midi": 68,
          "name": "G#4",
          "ticks": 27360,
          "time": 97.15906499999998,
          "velocity": 0.5905511811023622
        },
        {
          "duration": 0.33380672916666754,
          "durationTicks": 94,
          "midi": 59,
          "name": "B3",
          "ticks": 27456,
          "time": 97.499974,
          "velocity": 0.5905511811023622
        },
        {
          "duration": 0.33380672916666754,
          "durationTicks": 94,
          "midi": 64,
          "name": "E4",
          "ticks": 27456,
          "time": 97.499974,
          "velocity": 0.5905511811023622
        },
        {
          "duration": 0.33380672916666754,
          "durationTicks": 94,
          "midi": 68,
          "name": "G#4",
          "ticks": 27456,
          "time": 97.499974,
          "velocity": 0.5905511811023622
        },
        {
          "duration": 0.33380672916666754,
          "durationTicks": 94,
          "midi": 59,
          "name": "B3",
          "ticks": 27552,
          "time": 97.84088299999999,
          "velocity": 0.5905511811023622
        },
        {
          "duration": 0.33380672916666754,
          "durationTicks": 94,
          "midi": 64,
          "name": "E4",
          "ticks": 27552,
          "time": 97.84088299999999,
          "velocity": 0.5905511811023622
        },
        {
          "duration": 0.33380672916666754,
          "durationTicks": 94,
          "midi": 68,
          "name": "G#4",
          "ticks": 27552,
          "time": 97.84088299999999,
          "velocity": 0.5905511811023622
        },
        {
          "duration": 0.33380672916668175,
          "durationTicks": 94,
          "midi": 56,
          "name": "G#3",
          "ticks": 27648,
          "time": 98.18179199999999,
          "velocity": 0.5905511811023622
        },
        {
          "duration": 0.33380672916668175,
          "durationTicks": 94,
          "midi": 59,
          "name": "B3",
          "ticks": 27648,
          "time": 98.18179199999999,
          "velocity": 0.5905511811023622
        },
        {
          "duration": 0.33380672916668175,
          "durationTicks": 94,
          "midi": 63,
          "name": "D#4",
          "ticks": 27648,
          "time": 98.18179199999999,
          "velocity": 0.5905511811023622
        },
        {
          "duration": 0.33380672916668175,
          "durationTicks": 94,
          "midi": 66,
          "name": "F#4",
          "ticks": 27648,
          "time": 98.18179199999999,
          "velocity": 0.5905511811023622
        },
        {
          "duration": 0.33380672916668175,
          "durationTicks": 94,
          "midi": 56,
          "name": "G#3",
          "ticks": 27744,
          "time": 98.52270099999998,
          "velocity": 0.5905511811023622
        },
        {
          "duration": 0.33380672916668175,
          "durationTicks": 94,
          "midi": 59,
          "name": "B3",
          "ticks": 27744,
          "time": 98.52270099999998,
          "velocity": 0.5905511811023622
        },
        {
          "duration": 0.33380672916668175,
          "durationTicks": 94,
          "midi": 63,
          "name": "D#4",
          "ticks": 27744,
          "time": 98.52270099999998,
          "velocity": 0.5905511811023622
        },
        {
          "duration": 0.33380672916668175,
          "durationTicks": 94,
          "midi": 66,
          "name": "F#4",
          "ticks": 27744,
          "time": 98.52270099999998,
          "velocity": 0.5905511811023622
        },
        {
          "duration": 0.33380672916666754,
          "durationTicks": 94,
          "midi": 56,
          "name": "G#3",
          "ticks": 27840,
          "time": 98.86361,
          "velocity": 0.5905511811023622
        },
        {
          "duration": 0.33380672916666754,
          "durationTicks": 94,
          "midi": 59,
          "name": "B3",
          "ticks": 27840,
          "time": 98.86361,
          "velocity": 0.5905511811023622
        },
        {
          "duration": 0.33380672916666754,
          "durationTicks": 94,
          "midi": 63,
          "name": "D#4",
          "ticks": 27840,
          "time": 98.86361,
          "velocity": 0.5905511811023622
        },
        {
          "duration": 0.33380672916666754,
          "durationTicks": 94,
          "midi": 66,
          "name": "F#4",
          "ticks": 27840,
          "time": 98.86361,
          "velocity": 0.5905511811023622
        },
        {
          "duration": 0.33380672916666754,
          "durationTicks": 94,
          "midi": 54,
          "name": "F#3",
          "ticks": 27936,
          "time": 99.20451899999999,
          "velocity": 0.5905511811023622
        },
        {
          "duration": 0.33380672916666754,
          "durationTicks": 94,
          "midi": 58,
          "name": "A#3",
          "ticks": 27936,
          "time": 99.20451899999999,
          "velocity": 0.5905511811023622
        },
        {
          "duration": 0.33380672916666754,
          "durationTicks": 94,
          "midi": 63,
          "name": "D#4",
          "ticks": 27936,
          "time": 99.20451899999999,
          "velocity": 0.5905511811023622
        },
        {
          "duration": 0.33380672916666754,
          "durationTicks": 94,
          "midi": 66,
          "name": "F#4",
          "ticks": 27936,
          "time": 99.20451899999999,
          "velocity": 0.5905511811023622
        },
        {
          "duration": 0.33380672916668175,
          "durationTicks": 94,
          "midi": 54,
          "name": "F#3",
          "ticks": 28032,
          "time": 99.54542799999999,
          "velocity": 0.5905511811023622
        },
        {
          "duration": 0.33380672916668175,
          "durationTicks": 94,
          "midi": 58,
          "name": "A#3",
          "ticks": 28032,
          "time": 99.54542799999999,
          "velocity": 0.5905511811023622
        },
        {
          "duration": 0.33380672916668175,
          "durationTicks": 94,
          "midi": 63,
          "name": "D#4",
          "ticks": 28032,
          "time": 99.54542799999999,
          "velocity": 0.5905511811023622
        },
        {
          "duration": 0.33380672916668175,
          "durationTicks": 94,
          "midi": 66,
          "name": "F#4",
          "ticks": 28032,
          "time": 99.54542799999999,
          "velocity": 0.5905511811023622
        },
        {
          "duration": 0.33380672916668175,
          "durationTicks": 94,
          "midi": 54,
          "name": "F#3",
          "ticks": 28128,
          "time": 99.88633699999998,
          "velocity": 0.5905511811023622
        },
        {
          "duration": 0.33380672916668175,
          "durationTicks": 94,
          "midi": 58,
          "name": "A#3",
          "ticks": 28128,
          "time": 99.88633699999998,
          "velocity": 0.5905511811023622
        },
        {
          "duration": 0.33380672916668175,
          "durationTicks": 94,
          "midi": 63,
          "name": "D#4",
          "ticks": 28128,
          "time": 99.88633699999998,
          "velocity": 0.5905511811023622
        },
        {
          "duration": 0.33380672916668175,
          "durationTicks": 94,
          "midi": 66,
          "name": "F#4",
          "ticks": 28128,
          "time": 99.88633699999998,
          "velocity": 0.5905511811023622
        },
        {
          "duration": 0.33380672916666754,
          "durationTicks": 94,
          "midi": 54,
          "name": "F#3",
          "ticks": 28224,
          "time": 100.227246,
          "velocity": 0.5905511811023622
        },
        {
          "duration": 0.33380672916666754,
          "durationTicks": 94,
          "midi": 58,
          "name": "A#3",
          "ticks": 28224,
          "time": 100.227246,
          "velocity": 0.5905511811023622
        },
        {
          "duration": 0.33380672916666754,
          "durationTicks": 94,
          "midi": 63,
          "name": "D#4",
          "ticks": 28224,
          "time": 100.227246,
          "velocity": 0.5905511811023622
        },
        {
          "duration": 0.33380672916666754,
          "durationTicks": 94,
          "midi": 66,
          "name": "F#4",
          "ticks": 28224,
          "time": 100.227246,
          "velocity": 0.5905511811023622
        },
        {
          "duration": 0.33380672916666754,
          "durationTicks": 94,
          "midi": 54,
          "name": "F#3",
          "ticks": 28320,
          "time": 100.56815499999999,
          "velocity": 0.5905511811023622
        },
        {
          "duration": 0.33380672916666754,
          "durationTicks": 94,
          "midi": 58,
          "name": "A#3",
          "ticks": 28320,
          "time": 100.56815499999999,
          "velocity": 0.5905511811023622
        },
        {
          "duration": 0.33380672916666754,
          "durationTicks": 94,
          "midi": 63,
          "name": "D#4",
          "ticks": 28320,
          "time": 100.56815499999999,
          "velocity": 0.5905511811023622
        },
        {
          "duration": 0.33380672916666754,
          "durationTicks": 94,
          "midi": 66,
          "name": "F#4",
          "ticks": 28320,
          "time": 100.56815499999999,
          "velocity": 0.5905511811023622
        },
        {
          "duration": 0.33380672916668175,
          "durationTicks": 94,
          "midi": 59,
          "name": "B3",
          "ticks": 28416,
          "time": 100.90906399999999,
          "velocity": 0.5905511811023622
        },
        {
          "duration": 0.33380672916668175,
          "durationTicks": 94,
          "midi": 64,
          "name": "E4",
          "ticks": 28416,
          "time": 100.90906399999999,
          "velocity": 0.5905511811023622
        },
        {
          "duration": 0.33380672916668175,
          "durationTicks": 94,
          "midi": 68,
          "name": "G#4",
          "ticks": 28416,
          "time": 100.90906399999999,
          "velocity": 0.5905511811023622
        },
        {
          "duration": 0.33380672916668175,
          "durationTicks": 94,
          "midi": 59,
          "name": "B3",
          "ticks": 28512,
          "time": 101.24997299999998,
          "velocity": 0.5905511811023622
        },
        {
          "duration": 0.33380672916668175,
          "durationTicks": 94,
          "midi": 64,
          "name": "E4",
          "ticks": 28512,
          "time": 101.24997299999998,
          "velocity": 0.5905511811023622
        },
        {
          "duration": 0.33380672916668175,
          "durationTicks": 94,
          "midi": 68,
          "name": "G#4",
          "ticks": 28512,
          "time": 101.24997299999998,
          "velocity": 0.5905511811023622
        },
        {
          "duration": 0.33380672916666754,
          "durationTicks": 94,
          "midi": 59,
          "name": "B3",
          "ticks": 28608,
          "time": 101.590882,
          "velocity": 0.5905511811023622
        },
        {
          "duration": 0.33380672916666754,
          "durationTicks": 94,
          "midi": 64,
          "name": "E4",
          "ticks": 28608,
          "time": 101.590882,
          "velocity": 0.5905511811023622
        },
        {
          "duration": 0.33380672916666754,
          "durationTicks": 94,
          "midi": 68,
          "name": "G#4",
          "ticks": 28608,
          "time": 101.590882,
          "velocity": 0.5905511811023622
        },
        {
          "duration": 0.33380672916666754,
          "durationTicks": 94,
          "midi": 59,
          "name": "B3",
          "ticks": 28704,
          "time": 101.93179099999999,
          "velocity": 0.5905511811023622
        },
        {
          "duration": 0.33380672916666754,
          "durationTicks": 94,
          "midi": 64,
          "name": "E4",
          "ticks": 28704,
          "time": 101.93179099999999,
          "velocity": 0.5905511811023622
        },
        {
          "duration": 0.33380672916666754,
          "durationTicks": 94,
          "midi": 68,
          "name": "G#4",
          "ticks": 28704,
          "time": 101.93179099999999,
          "velocity": 0.5905511811023622
        },
        {
          "duration": 0.33380672916668175,
          "durationTicks": 94,
          "midi": 59,
          "name": "B3",
          "ticks": 28800,
          "time": 102.27269999999999,
          "velocity": 0.5905511811023622
        },
        {
          "duration": 0.33380672916668175,
          "durationTicks": 94,
          "midi": 64,
          "name": "E4",
          "ticks": 28800,
          "time": 102.27269999999999,
          "velocity": 0.5905511811023622
        },
        {
          "duration": 0.33380672916668175,
          "durationTicks": 94,
          "midi": 68,
          "name": "G#4",
          "ticks": 28800,
          "time": 102.27269999999999,
          "velocity": 0.5905511811023622
        },
        {
          "duration": 0.33380672916668175,
          "durationTicks": 94,
          "midi": 59,
          "name": "B3",
          "ticks": 28896,
          "time": 102.61360899999998,
          "velocity": 0.5905511811023622
        },
        {
          "duration": 0.33380672916668175,
          "durationTicks": 94,
          "midi": 64,
          "name": "E4",
          "ticks": 28896,
          "time": 102.61360899999998,
          "velocity": 0.5905511811023622
        },
        {
          "duration": 0.33380672916668175,
          "durationTicks": 94,
          "midi": 68,
          "name": "G#4",
          "ticks": 28896,
          "time": 102.61360899999998,
          "velocity": 0.5905511811023622
        },
        {
          "duration": 0.33380672916666754,
          "durationTicks": 94,
          "midi": 59,
          "name": "B3",
          "ticks": 28992,
          "time": 102.954518,
          "velocity": 0.5905511811023622
        },
        {
          "duration": 0.33380672916666754,
          "durationTicks": 94,
          "midi": 64,
          "name": "E4",
          "ticks": 28992,
          "time": 102.954518,
          "velocity": 0.5905511811023622
        },
        {
          "duration": 0.33380672916666754,
          "durationTicks": 94,
          "midi": 68,
          "name": "G#4",
          "ticks": 28992,
          "time": 102.954518,
          "velocity": 0.5905511811023622
        },
        {
          "duration": 0.33380672916666754,
          "durationTicks": 94,
          "midi": 59,
          "name": "B3",
          "ticks": 29088,
          "time": 103.29542699999999,
          "velocity": 0.5905511811023622
        },
        {
          "duration": 0.33380672916666754,
          "durationTicks": 94,
          "midi": 64,
          "name": "E4",
          "ticks": 29088,
          "time": 103.29542699999999,
          "velocity": 0.5905511811023622
        },
        {
          "duration": 0.33380672916666754,
          "durationTicks": 94,
          "midi": 68,
          "name": "G#4",
          "ticks": 29088,
          "time": 103.29542699999999,
          "velocity": 0.5905511811023622
        },
        {
          "duration": 0.33380672916668175,
          "durationTicks": 94,
          "midi": 56,
          "name": "G#3",
          "ticks": 29184,
          "time": 103.63633599999999,
          "velocity": 0.5905511811023622
        },
        {
          "duration": 0.33380672916668175,
          "durationTicks": 94,
          "midi": 59,
          "name": "B3",
          "ticks": 29184,
          "time": 103.63633599999999,
          "velocity": 0.5905511811023622
        },
        {
          "duration": 0.33380672916668175,
          "durationTicks": 94,
          "midi": 63,
          "name": "D#4",
          "ticks": 29184,
          "time": 103.63633599999999,
          "velocity": 0.5905511811023622
        },
        {
          "duration": 0.33380672916668175,
          "durationTicks": 94,
          "midi": 66,
          "name": "F#4",
          "ticks": 29184,
          "time": 103.63633599999999,
          "velocity": 0.5905511811023622
        },
        {
          "duration": 0.33380672916668175,
          "durationTicks": 94,
          "midi": 56,
          "name": "G#3",
          "ticks": 29280,
          "time": 103.97724499999998,
          "velocity": 0.5905511811023622
        },
        {
          "duration": 0.33380672916668175,
          "durationTicks": 94,
          "midi": 59,
          "name": "B3",
          "ticks": 29280,
          "time": 103.97724499999998,
          "velocity": 0.5905511811023622
        },
        {
          "duration": 0.33380672916668175,
          "durationTicks": 94,
          "midi": 63,
          "name": "D#4",
          "ticks": 29280,
          "time": 103.97724499999998,
          "velocity": 0.5905511811023622
        },
        {
          "duration": 0.33380672916668175,
          "durationTicks": 94,
          "midi": 66,
          "name": "F#4",
          "ticks": 29280,
          "time": 103.97724499999998,
          "velocity": 0.5905511811023622
        },
        {
          "duration": 0.33380672916666754,
          "durationTicks": 94,
          "midi": 56,
          "name": "G#3",
          "ticks": 29376,
          "time": 104.31815399999999,
          "velocity": 0.5905511811023622
        },
        {
          "duration": 0.33380672916666754,
          "durationTicks": 94,
          "midi": 59,
          "name": "B3",
          "ticks": 29376,
          "time": 104.31815399999999,
          "velocity": 0.5905511811023622
        },
        {
          "duration": 0.33380672916666754,
          "durationTicks": 94,
          "midi": 63,
          "name": "D#4",
          "ticks": 29376,
          "time": 104.31815399999999,
          "velocity": 0.5905511811023622
        },
        {
          "duration": 0.33380672916666754,
          "durationTicks": 94,
          "midi": 66,
          "name": "F#4",
          "ticks": 29376,
          "time": 104.31815399999999,
          "velocity": 0.5905511811023622
        },
        {
          "duration": 0.33380672916666754,
          "durationTicks": 94,
          "midi": 54,
          "name": "F#3",
          "ticks": 29472,
          "time": 104.65906299999999,
          "velocity": 0.5905511811023622
        },
        {
          "duration": 0.33380672916666754,
          "durationTicks": 94,
          "midi": 58,
          "name": "A#3",
          "ticks": 29472,
          "time": 104.65906299999999,
          "velocity": 0.5905511811023622
        },
        {
          "duration": 0.33380672916666754,
          "durationTicks": 94,
          "midi": 63,
          "name": "D#4",
          "ticks": 29472,
          "time": 104.65906299999999,
          "velocity": 0.5905511811023622
        },
        {
          "duration": 0.33380672916666754,
          "durationTicks": 94,
          "midi": 66,
          "name": "F#4",
          "ticks": 29472,
          "time": 104.65906299999999,
          "velocity": 0.5905511811023622
        },
        {
          "duration": 0.33380672916668175,
          "durationTicks": 94,
          "midi": 54,
          "name": "F#3",
          "ticks": 29568,
          "time": 104.99997199999999,
          "velocity": 0.5905511811023622
        },
        {
          "duration": 0.33380672916668175,
          "durationTicks": 94,
          "midi": 58,
          "name": "A#3",
          "ticks": 29568,
          "time": 104.99997199999999,
          "velocity": 0.5905511811023622
        },
        {
          "duration": 0.33380672916668175,
          "durationTicks": 94,
          "midi": 63,
          "name": "D#4",
          "ticks": 29568,
          "time": 104.99997199999999,
          "velocity": 0.5905511811023622
        },
        {
          "duration": 0.33380672916668175,
          "durationTicks": 94,
          "midi": 66,
          "name": "F#4",
          "ticks": 29568,
          "time": 104.99997199999999,
          "velocity": 0.5905511811023622
        },
        {
          "duration": 0.33380672916668175,
          "durationTicks": 94,
          "midi": 54,
          "name": "F#3",
          "ticks": 29664,
          "time": 105.34088099999998,
          "velocity": 0.5905511811023622
        },
        {
          "duration": 0.33380672916668175,
          "durationTicks": 94,
          "midi": 58,
          "name": "A#3",
          "ticks": 29664,
          "time": 105.34088099999998,
          "velocity": 0.5905511811023622
        },
        {
          "duration": 0.33380672916668175,
          "durationTicks": 94,
          "midi": 63,
          "name": "D#4",
          "ticks": 29664,
          "time": 105.34088099999998,
          "velocity": 0.5905511811023622
        },
        {
          "duration": 0.33380672916668175,
          "durationTicks": 94,
          "midi": 66,
          "name": "F#4",
          "ticks": 29664,
          "time": 105.34088099999998,
          "velocity": 0.5905511811023622
        },
        {
          "duration": 0.33380672916666754,
          "durationTicks": 94,
          "midi": 54,
          "name": "F#3",
          "ticks": 29760,
          "time": 105.68178999999999,
          "velocity": 0.5905511811023622
        },
        {
          "duration": 0.33380672916666754,
          "durationTicks": 94,
          "midi": 58,
          "name": "A#3",
          "ticks": 29760,
          "time": 105.68178999999999,
          "velocity": 0.5905511811023622
        },
        {
          "duration": 0.33380672916666754,
          "durationTicks": 94,
          "midi": 63,
          "name": "D#4",
          "ticks": 29760,
          "time": 105.68178999999999,
          "velocity": 0.5905511811023622
        },
        {
          "duration": 0.33380672916666754,
          "durationTicks": 94,
          "midi": 66,
          "name": "F#4",
          "ticks": 29760,
          "time": 105.68178999999999,
          "velocity": 0.5905511811023622
        },
        {
          "duration": 0.33380672916666754,
          "durationTicks": 94,
          "midi": 54,
          "name": "F#3",
          "ticks": 29856,
          "time": 106.02269899999999,
          "velocity": 0.5905511811023622
        },
        {
          "duration": 0.33380672916666754,
          "durationTicks": 94,
          "midi": 58,
          "name": "A#3",
          "ticks": 29856,
          "time": 106.02269899999999,
          "velocity": 0.5905511811023622
        },
        {
          "duration": 0.33380672916666754,
          "durationTicks": 94,
          "midi": 63,
          "name": "D#4",
          "ticks": 29856,
          "time": 106.02269899999999,
          "velocity": 0.5905511811023622
        },
        {
          "duration": 0.33380672916666754,
          "durationTicks": 94,
          "midi": 66,
          "name": "F#4",
          "ticks": 29856,
          "time": 106.02269899999999,
          "velocity": 0.5905511811023622
        },
        {
          "duration": 0.5681816666666748,
          "durationTicks": 160,
          "midi": 52,
          "name": "E3",
          "ticks": 29952,
          "time": 106.36360799999999,
          "velocity": 0.5905511811023622
        },
        {
          "duration": 0.5681816666666748,
          "durationTicks": 160,
          "midi": 52,
          "name": "E3",
          "ticks": 30144,
          "time": 107.04542599999999,
          "velocity": 0.5905511811023622
        },
        {
          "duration": 0.5681816666666748,
          "durationTicks": 160,
          "midi": 56,
          "name": "G#3",
          "ticks": 30144,
          "time": 107.04542599999999,
          "velocity": 0.5905511811023622
        },
        {
          "duration": 0.5681816666666748,
          "durationTicks": 160,
          "midi": 59,
          "name": "B3",
          "ticks": 30144,
          "time": 107.04542599999999,
          "velocity": 0.5905511811023622
        },
        {
          "duration": 0.5681816666666748,
          "durationTicks": 160,
          "midi": 63,
          "name": "D#4",
          "ticks": 30144,
          "time": 107.04542599999999,
          "velocity": 0.5905511811023622
        },
        {
          "duration": 0.33380672916668175,
          "durationTicks": 94,
          "midi": 52,
          "name": "E3",
          "ticks": 30336,
          "time": 107.72724399999998,
          "velocity": 0.5905511811023622
        },
        {
          "duration": 0.33380672916668175,
          "durationTicks": 94,
          "midi": 52,
          "name": "E3",
          "ticks": 30432,
          "time": 108.06815299999998,
          "velocity": 0.5905511811023622
        },
        {
          "duration": 0.33380672916668175,
          "durationTicks": 94,
          "midi": 56,
          "name": "G#3",
          "ticks": 30432,
          "time": 108.06815299999998,
          "velocity": 0.5905511811023622
        },
        {
          "duration": 0.33380672916668175,
          "durationTicks": 94,
          "midi": 59,
          "name": "B3",
          "ticks": 30432,
          "time": 108.06815299999998,
          "velocity": 0.5905511811023622
        },
        {
          "duration": 0.33380672916668175,
          "durationTicks": 94,
          "midi": 63,
          "name": "D#4",
          "ticks": 30432,
          "time": 108.06815299999998,
          "velocity": 0.5905511811023622
        },
        {
          "duration": 0.33380672916666754,
          "durationTicks": 94,
          "midi": 52,
          "name": "E3",
          "ticks": 30528,
          "time": 108.40906199999999,
          "velocity": 0.5905511811023622
        },
        {
          "duration": 0.33380672916666754,
          "durationTicks": 94,
          "midi": 56,
          "name": "G#3",
          "ticks": 30528,
          "time": 108.40906199999999,
          "velocity": 0.5905511811023622
        },
        {
          "duration": 0.33380672916666754,
          "durationTicks": 94,
          "midi": 59,
          "name": "B3",
          "ticks": 30528,
          "time": 108.40906199999999,
          "velocity": 0.5905511811023622
        },
        {
          "duration": 0.33380672916666754,
          "durationTicks": 94,
          "midi": 63,
          "name": "D#4",
          "ticks": 30528,
          "time": 108.40906199999999,
          "velocity": 0.5905511811023622
        },
        {
          "duration": 0.16335222916667647,
          "durationTicks": 46,
          "midi": 52,
          "name": "E3",
          "ticks": 30624,
          "time": 108.74997099999999,
          "velocity": 0.5905511811023622
        },
        {
          "duration": 0.16335222916666226,
          "durationTicks": 46,
          "midi": 56,
          "name": "G#3",
          "ticks": 30672,
          "time": 108.9204255,
          "velocity": 0.5905511811023622
        },
        {
          "duration": 0.16335222916666226,
          "durationTicks": 46,
          "midi": 59,
          "name": "B3",
          "ticks": 30672,
          "time": 108.9204255,
          "velocity": 0.5905511811023622
        },
        {
          "duration": 0.16335222916666226,
          "durationTicks": 46,
          "midi": 63,
          "name": "D#4",
          "ticks": 30672,
          "time": 108.9204255,
          "velocity": 0.5905511811023622
        },
        {
          "duration": 2.556817500000008,
          "durationTicks": 720,
          "midi": 52,
          "name": "E3",
          "ticks": 30720,
          "time": 109.09087999999998,
          "velocity": 0.5905511811023622
        },
        {
          "duration": 2.556817500000008,
          "durationTicks": 720,
          "midi": 56,
          "name": "G#3",
          "ticks": 30720,
          "time": 109.09087999999998,
          "velocity": 0.5905511811023622
        },
        {
          "duration": 2.556817500000008,
          "durationTicks": 720,
          "midi": 59,
          "name": "B3",
          "ticks": 30720,
          "time": 109.09087999999998,
          "velocity": 0.5905511811023622
        },
        {
          "duration": 2.556817500000008,
          "durationTicks": 720,
          "midi": 63,
          "name": "D#4",
          "ticks": 30720,
          "time": 109.09087999999998,
          "velocity": 0.5905511811023622
        },
        {
          "duration": 0.33380672916668175,
          "durationTicks": 94,
          "midi": 54,
          "name": "F#3",
          "ticks": 31488,
          "time": 111.81815199999998,
          "velocity": 0.5905511811023622
        },
        {
          "duration": 0.33380672916668175,
          "durationTicks": 94,
          "midi": 59,
          "name": "B3",
          "ticks": 31488,
          "time": 111.81815199999998,
          "velocity": 0.5905511811023622
        },
        {
          "duration": 0.33380672916668175,
          "durationTicks": 94,
          "midi": 63,
          "name": "D#4",
          "ticks": 31488,
          "time": 111.81815199999998,
          "velocity": 0.5905511811023622
        },
        {
          "duration": 0.33380672916666754,
          "durationTicks": 94,
          "midi": 54,
          "name": "F#3",
          "ticks": 31584,
          "time": 112.159061,
          "velocity": 0.5905511811023622
        },
        {
          "duration": 0.33380672916666754,
          "durationTicks": 94,
          "midi": 59,
          "name": "B3",
          "ticks": 31584,
          "time": 112.159061,
          "velocity": 0.5905511811023622
        },
        {
          "duration": 0.33380672916666754,
          "durationTicks": 94,
          "midi": 63,
          "name": "D#4",
          "ticks": 31584,
          "time": 112.159061,
          "velocity": 0.5905511811023622
        },
        {
          "duration": 0.33380672916666754,
          "durationTicks": 94,
          "midi": 54,
          "name": "F#3",
          "ticks": 31680,
          "time": 112.49996999999999,
          "velocity": 0.5905511811023622
        },
        {
          "duration": 0.33380672916666754,
          "durationTicks": 94,
          "midi": 59,
          "name": "B3",
          "ticks": 31680,
          "time": 112.49996999999999,
          "velocity": 0.5905511811023622
        },
        {
          "duration": 0.33380672916666754,
          "durationTicks": 94,
          "midi": 63,
          "name": "D#4",
          "ticks": 31680,
          "time": 112.49996999999999,
          "velocity": 0.5905511811023622
        },
        {
          "duration": 0.6747157291666781,
          "durationTicks": 190,
          "midi": 54,
          "name": "F#3",
          "ticks": 31776,
          "time": 112.84087899999999,
          "velocity": 0.5905511811023622
        },
        {
          "duration": 0.6747157291666781,
          "durationTicks": 190,
          "midi": 59,
          "name": "B3",
          "ticks": 31776,
          "time": 112.84087899999999,
          "velocity": 0.5905511811023622
        },
        {
          "duration": 0.6747157291666781,
          "durationTicks": 190,
          "midi": 63,
          "name": "D#4",
          "ticks": 31776,
          "time": 112.84087899999999,
          "velocity": 0.5905511811023622
        },
        {
          "duration": 0.33380672916666754,
          "durationTicks": 94,
          "midi": 54,
          "name": "F#3",
          "ticks": 31968,
          "time": 113.522697,
          "velocity": 0.5905511811023622
        },
        {
          "duration": 0.33380672916666754,
          "durationTicks": 94,
          "midi": 59,
          "name": "B3",
          "ticks": 31968,
          "time": 113.522697,
          "velocity": 0.5905511811023622
        },
        {
          "duration": 0.33380672916666754,
          "durationTicks": 94,
          "midi": 63,
          "name": "D#4",
          "ticks": 31968,
          "time": 113.522697,
          "velocity": 0.5905511811023622
        },
        {
          "duration": 0.33380672916666754,
          "durationTicks": 94,
          "midi": 54,
          "name": "F#3",
          "ticks": 32064,
          "time": 113.86360599999999,
          "velocity": 0.5905511811023622
        },
        {
          "duration": 0.33380672916666754,
          "durationTicks": 94,
          "midi": 59,
          "name": "B3",
          "ticks": 32064,
          "time": 113.86360599999999,
          "velocity": 0.5905511811023622
        },
        {
          "duration": 0.33380672916666754,
          "durationTicks": 94,
          "midi": 63,
          "name": "D#4",
          "ticks": 32064,
          "time": 113.86360599999999,
          "velocity": 0.5905511811023622
        },
        {
          "duration": 0.33380672916666754,
          "durationTicks": 94,
          "midi": 54,
          "name": "F#3",
          "ticks": 32160,
          "time": 114.20451499999999,
          "velocity": 0.5905511811023622
        },
        {
          "duration": 0.33380672916666754,
          "durationTicks": 94,
          "midi": 59,
          "name": "B3",
          "ticks": 32160,
          "time": 114.20451499999999,
          "velocity": 0.5905511811023622
        },
        {
          "duration": 0.33380672916666754,
          "durationTicks": 94,
          "midi": 63,
          "name": "D#4",
          "ticks": 32160,
          "time": 114.20451499999999,
          "velocity": 0.5905511811023622
        },
        {
          "duration": 0.33380672916668175,
          "durationTicks": 94,
          "midi": 54,
          "name": "F#3",
          "ticks": 32256,
          "time": 114.54542399999998,
          "velocity": 0.5905511811023622
        },
        {
          "duration": 0.33380672916668175,
          "durationTicks": 94,
          "midi": 59,
          "name": "B3",
          "ticks": 32256,
          "time": 114.54542399999998,
          "velocity": 0.5905511811023622
        },
        {
          "duration": 0.33380672916668175,
          "durationTicks": 94,
          "midi": 63,
          "name": "D#4",
          "ticks": 32256,
          "time": 114.54542399999998,
          "velocity": 0.5905511811023622
        },
        {
          "duration": 0.33380672916666754,
          "durationTicks": 94,
          "midi": 54,
          "name": "F#3",
          "ticks": 32352,
          "time": 114.886333,
          "velocity": 0.5905511811023622
        },
        {
          "duration": 0.33380672916666754,
          "durationTicks": 94,
          "midi": 59,
          "name": "B3",
          "ticks": 32352,
          "time": 114.886333,
          "velocity": 0.5905511811023622
        },
        {
          "duration": 0.33380672916666754,
          "durationTicks": 94,
          "midi": 63,
          "name": "D#4",
          "ticks": 32352,
          "time": 114.886333,
          "velocity": 0.5905511811023622
        },
        {
          "duration": 0.33380672916666754,
          "durationTicks": 94,
          "midi": 54,
          "name": "F#3",
          "ticks": 32448,
          "time": 115.22724199999999,
          "velocity": 0.5905511811023622
        },
        {
          "duration": 0.33380672916666754,
          "durationTicks": 94,
          "midi": 59,
          "name": "B3",
          "ticks": 32448,
          "time": 115.22724199999999,
          "velocity": 0.5905511811023622
        },
        {
          "duration": 0.33380672916666754,
          "durationTicks": 94,
          "midi": 63,
          "name": "D#4",
          "ticks": 32448,
          "time": 115.22724199999999,
          "velocity": 0.5905511811023622
        },
        {
          "duration": 0.6747157291666781,
          "durationTicks": 190,
          "midi": 54,
          "name": "F#3",
          "ticks": 32544,
          "time": 115.56815099999999,
          "velocity": 0.5905511811023622
        },
        {
          "duration": 0.6747157291666781,
          "durationTicks": 190,
          "midi": 59,
          "name": "B3",
          "ticks": 32544,
          "time": 115.56815099999999,
          "velocity": 0.5905511811023622
        },
        {
          "duration": 0.6747157291666781,
          "durationTicks": 190,
          "midi": 63,
          "name": "D#4",
          "ticks": 32544,
          "time": 115.56815099999999,
          "velocity": 0.5905511811023622
        },
        {
          "duration": 0.33380672916666754,
          "durationTicks": 94,
          "midi": 54,
          "name": "F#3",
          "ticks": 32736,
          "time": 116.249969,
          "velocity": 0.5905511811023622
        },
        {
          "duration": 0.33380672916666754,
          "durationTicks": 94,
          "midi": 59,
          "name": "B3",
          "ticks": 32736,
          "time": 116.249969,
          "velocity": 0.5905511811023622
        },
        {
          "duration": 0.33380672916666754,
          "durationTicks": 94,
          "midi": 63,
          "name": "D#4",
          "ticks": 32736,
          "time": 116.249969,
          "velocity": 0.5905511811023622
        },
        {
          "duration": 0.33380672916666754,
          "durationTicks": 94,
          "midi": 54,
          "name": "F#3",
          "ticks": 32832,
          "time": 116.59087799999999,
          "velocity": 0.5905511811023622
        },
        {
          "duration": 0.33380672916666754,
          "durationTicks": 94,
          "midi": 59,
          "name": "B3",
          "ticks": 32832,
          "time": 116.59087799999999,
          "velocity": 0.5905511811023622
        },
        {
          "duration": 0.33380672916666754,
          "durationTicks": 94,
          "midi": 63,
          "name": "D#4",
          "ticks": 32832,
          "time": 116.59087799999999,
          "velocity": 0.5905511811023622
        },
        {
          "duration": 0.33380672916666754,
          "durationTicks": 94,
          "midi": 54,
          "name": "F#3",
          "ticks": 32928,
          "time": 116.93178699999999,
          "velocity": 0.5905511811023622
        },
        {
          "duration": 0.33380672916666754,
          "durationTicks": 94,
          "midi": 59,
          "name": "B3",
          "ticks": 32928,
          "time": 116.93178699999999,
          "velocity": 0.5905511811023622
        },
        {
          "duration": 0.33380672916666754,
          "durationTicks": 94,
          "midi": 63,
          "name": "D#4",
          "ticks": 32928,
          "time": 116.93178699999999,
          "velocity": 0.5905511811023622
        },
        {
          "duration": 0.33380672916668175,
          "durationTicks": 94,
          "midi": 54,
          "name": "F#3",
          "ticks": 33024,
          "time": 117.27269599999998,
          "velocity": 0.5905511811023622
        },
        {
          "duration": 0.33380672916668175,
          "durationTicks": 94,
          "midi": 58,
          "name": "A#3",
          "ticks": 33024,
          "time": 117.27269599999998,
          "velocity": 0.5905511811023622
        },
        {
          "duration": 0.33380672916668175,
          "durationTicks": 94,
          "midi": 61,
          "name": "C#4",
          "ticks": 33024,
          "time": 117.27269599999998,
          "velocity": 0.5905511811023622
        },
        {
          "duration": 0.33380672916668175,
          "durationTicks": 94,
          "midi": 66,
          "name": "F#4",
          "ticks": 33024,
          "time": 117.27269599999998,
          "velocity": 0.5905511811023622
        },
        {
          "duration": 0.33380672916666754,
          "durationTicks": 94,
          "midi": 54,
          "name": "F#3",
          "ticks": 33120,
          "time": 117.61360499999999,
          "velocity": 0.5905511811023622
        },
        {
          "duration": 0.33380672916666754,
          "durationTicks": 94,
          "midi": 58,
          "name": "A#3",
          "ticks": 33120,
          "time": 117.61360499999999,
          "velocity": 0.5905511811023622
        },
        {
          "duration": 0.33380672916666754,
          "durationTicks": 94,
          "midi": 61,
          "name": "C#4",
          "ticks": 33120,
          "time": 117.61360499999999,
          "velocity": 0.5905511811023622
        },
        {
          "duration": 0.33380672916666754,
          "durationTicks": 94,
          "midi": 66,
          "name": "F#4",
          "ticks": 33120,
          "time": 117.61360499999999,
          "velocity": 0.5905511811023622
        },
        {
          "duration": 0.33380672916666754,
          "durationTicks": 94,
          "midi": 54,
          "name": "F#3",
          "ticks": 33216,
          "time": 117.95451399999999,
          "velocity": 0.5905511811023622
        },
        {
          "duration": 0.33380672916666754,
          "durationTicks": 94,
          "midi": 58,
          "name": "A#3",
          "ticks": 33216,
          "time": 117.95451399999999,
          "velocity": 0.5905511811023622
        },
        {
          "duration": 0.33380672916666754,
          "durationTicks": 94,
          "midi": 61,
          "name": "C#4",
          "ticks": 33216,
          "time": 117.95451399999999,
          "velocity": 0.5905511811023622
        },
        {
          "duration": 0.33380672916666754,
          "durationTicks": 94,
          "midi": 66,
          "name": "F#4",
          "ticks": 33216,
          "time": 117.95451399999999,
          "velocity": 0.5905511811023622
        },
        {
          "duration": 0.6747157291666781,
          "durationTicks": 190,
          "midi": 54,
          "name": "F#3",
          "ticks": 33312,
          "time": 118.29542299999999,
          "velocity": 0.5905511811023622
        },
        {
          "duration": 0.6747157291666781,
          "durationTicks": 190,
          "midi": 58,
          "name": "A#3",
          "ticks": 33312,
          "time": 118.29542299999999,
          "velocity": 0.5905511811023622
        },
        {
          "duration": 0.6747157291666781,
          "durationTicks": 190,
          "midi": 61,
          "name": "C#4",
          "ticks": 33312,
          "time": 118.29542299999999,
          "velocity": 0.5905511811023622
        },
        {
          "duration": 0.6747157291666781,
          "durationTicks": 190,
          "midi": 66,
          "name": "F#4",
          "ticks": 33312,
          "time": 118.29542299999999,
          "velocity": 0.5905511811023622
        },
        {
          "duration": 0.33380672916666754,
          "durationTicks": 94,
          "midi": 54,
          "name": "F#3",
          "ticks": 33504,
          "time": 118.97724099999999,
          "velocity": 0.5905511811023622
        },
        {
          "duration": 0.33380672916666754,
          "durationTicks": 94,
          "midi": 58,
          "name": "A#3",
          "ticks": 33504,
          "time": 118.97724099999999,
          "velocity": 0.5905511811023622
        },
        {
          "duration": 0.33380672916666754,
          "durationTicks": 94,
          "midi": 61,
          "name": "C#4",
          "ticks": 33504,
          "time": 118.97724099999999,
          "velocity": 0.5905511811023622
        },
        {
          "duration": 0.33380672916666754,
          "durationTicks": 94,
          "midi": 66,
          "name": "F#4",
          "ticks": 33504,
          "time": 118.97724099999999,
          "velocity": 0.5905511811023622
        },
        {
          "duration": 0.33380672916666754,
          "durationTicks": 94,
          "midi": 54,
          "name": "F#3",
          "ticks": 33600,
          "time": 119.31814999999999,
          "velocity": 0.5905511811023622
        },
        {
          "duration": 0.33380672916666754,
          "durationTicks": 94,
          "midi": 58,
          "name": "A#3",
          "ticks": 33600,
          "time": 119.31814999999999,
          "velocity": 0.5905511811023622
        },
        {
          "duration": 0.33380672916666754,
          "durationTicks": 94,
          "midi": 61,
          "name": "C#4",
          "ticks": 33600,
          "time": 119.31814999999999,
          "velocity": 0.5905511811023622
        },
        {
          "duration": 0.33380672916666754,
          "durationTicks": 94,
          "midi": 66,
          "name": "F#4",
          "ticks": 33600,
          "time": 119.31814999999999,
          "velocity": 0.5905511811023622
        },
        {
          "duration": 0.33380672916668175,
          "durationTicks": 94,
          "midi": 54,
          "name": "F#3",
          "ticks": 33696,
          "time": 119.65905899999998,
          "velocity": 0.5905511811023622
        },
        {
          "duration": 0.33380672916668175,
          "durationTicks": 94,
          "midi": 58,
          "name": "A#3",
          "ticks": 33696,
          "time": 119.65905899999998,
          "velocity": 0.5905511811023622
        },
        {
          "duration": 0.33380672916668175,
          "durationTicks": 94,
          "midi": 61,
          "name": "C#4",
          "ticks": 33696,
          "time": 119.65905899999998,
          "velocity": 0.5905511811023622
        },
        {
          "duration": 0.33380672916668175,
          "durationTicks": 94,
          "midi": 66,
          "name": "F#4",
          "ticks": 33696,
          "time": 119.65905899999998,
          "velocity": 0.5905511811023622
        },
        {
          "duration": 0.33380672916668175,
          "durationTicks": 94,
          "midi": 54,
          "name": "F#3",
          "ticks": 33792,
          "time": 119.99996799999998,
          "velocity": 0.5905511811023622
        },
        {
          "duration": 0.33380672916668175,
          "durationTicks": 94,
          "midi": 58,
          "name": "A#3",
          "ticks": 33792,
          "time": 119.99996799999998,
          "velocity": 0.5905511811023622
        },
        {
          "duration": 0.33380672916668175,
          "durationTicks": 94,
          "midi": 61,
          "name": "C#4",
          "ticks": 33792,
          "time": 119.99996799999998,
          "velocity": 0.5905511811023622
        },
        {
          "duration": 0.33380672916668175,
          "durationTicks": 94,
          "midi": 66,
          "name": "F#4",
          "ticks": 33792,
          "time": 119.99996799999998,
          "velocity": 0.5905511811023622
        },
        {
          "duration": 0.33380672916666754,
          "durationTicks": 94,
          "midi": 54,
          "name": "F#3",
          "ticks": 33888,
          "time": 120.34087699999999,
          "velocity": 0.5905511811023622
        },
        {
          "duration": 0.33380672916666754,
          "durationTicks": 94,
          "midi": 58,
          "name": "A#3",
          "ticks": 33888,
          "time": 120.34087699999999,
          "velocity": 0.5905511811023622
        },
        {
          "duration": 0.33380672916666754,
          "durationTicks": 94,
          "midi": 61,
          "name": "C#4",
          "ticks": 33888,
          "time": 120.34087699999999,
          "velocity": 0.5905511811023622
        },
        {
          "duration": 0.33380672916666754,
          "durationTicks": 94,
          "midi": 66,
          "name": "F#4",
          "ticks": 33888,
          "time": 120.34087699999999,
          "velocity": 0.5905511811023622
        },
        {
          "duration": 0.33380672916666754,
          "durationTicks": 94,
          "midi": 54,
          "name": "F#3",
          "ticks": 33984,
          "time": 120.68178599999999,
          "velocity": 0.5905511811023622
        },
        {
          "duration": 0.33380672916666754,
          "durationTicks": 94,
          "midi": 58,
          "name": "A#3",
          "ticks": 33984,
          "time": 120.68178599999999,
          "velocity": 0.5905511811023622
        },
        {
          "duration": 0.33380672916666754,
          "durationTicks": 94,
          "midi": 61,
          "name": "C#4",
          "ticks": 33984,
          "time": 120.68178599999999,
          "velocity": 0.5905511811023622
        },
        {
          "duration": 0.33380672916666754,
          "durationTicks": 94,
          "midi": 66,
          "name": "F#4",
          "ticks": 33984,
          "time": 120.68178599999999,
          "velocity": 0.5905511811023622
        },
        {
          "duration": 0.6747157291666781,
          "durationTicks": 190,
          "midi": 54,
          "name": "F#3",
          "ticks": 34080,
          "time": 121.02269499999998,
          "velocity": 0.5905511811023622
        },
        {
          "duration": 0.6747157291666781,
          "durationTicks": 190,
          "midi": 58,
          "name": "A#3",
          "ticks": 34080,
          "time": 121.02269499999998,
          "velocity": 0.5905511811023622
        },
        {
          "duration": 0.6747157291666781,
          "durationTicks": 190,
          "midi": 61,
          "name": "C#4",
          "ticks": 34080,
          "time": 121.02269499999998,
          "velocity": 0.5905511811023622
        },
        {
          "duration": 0.6747157291666781,
          "durationTicks": 190,
          "midi": 66,
          "name": "F#4",
          "ticks": 34080,
          "time": 121.02269499999998,
          "velocity": 0.5905511811023622
        },
        {
          "duration": 0.33380672916666754,
          "durationTicks": 94,
          "midi": 54,
          "name": "F#3",
          "ticks": 34272,
          "time": 121.70451299999999,
          "velocity": 0.5905511811023622
        },
        {
          "duration": 0.33380672916666754,
          "durationTicks": 94,
          "midi": 58,
          "name": "A#3",
          "ticks": 34272,
          "time": 121.70451299999999,
          "velocity": 0.5905511811023622
        },
        {
          "duration": 0.33380672916666754,
          "durationTicks": 94,
          "midi": 61,
          "name": "C#4",
          "ticks": 34272,
          "time": 121.70451299999999,
          "velocity": 0.5905511811023622
        },
        {
          "duration": 0.33380672916666754,
          "durationTicks": 94,
          "midi": 66,
          "name": "F#4",
          "ticks": 34272,
          "time": 121.70451299999999,
          "velocity": 0.5905511811023622
        },
        {
          "duration": 0.33380672916666754,
          "durationTicks": 94,
          "midi": 54,
          "name": "F#3",
          "ticks": 34368,
          "time": 122.04542199999999,
          "velocity": 0.5905511811023622
        },
        {
          "duration": 0.33380672916666754,
          "durationTicks": 94,
          "midi": 58,
          "name": "A#3",
          "ticks": 34368,
          "time": 122.04542199999999,
          "velocity": 0.5905511811023622
        },
        {
          "duration": 0.33380672916666754,
          "durationTicks": 94,
          "midi": 61,
          "name": "C#4",
          "ticks": 34368,
          "time": 122.04542199999999,
          "velocity": 0.5905511811023622
        },
        {
          "duration": 0.33380672916666754,
          "durationTicks": 94,
          "midi": 66,
          "name": "F#4",
          "ticks": 34368,
          "time": 122.04542199999999,
          "velocity": 0.5905511811023622
        },
        {
          "duration": 0.33380672916668175,
          "durationTicks": 94,
          "midi": 54,
          "name": "F#3",
          "ticks": 34464,
          "time": 122.38633099999998,
          "velocity": 0.5905511811023622
        },
        {
          "duration": 0.33380672916668175,
          "durationTicks": 94,
          "midi": 58,
          "name": "A#3",
          "ticks": 34464,
          "time": 122.38633099999998,
          "velocity": 0.5905511811023622
        },
        {
          "duration": 0.33380672916668175,
          "durationTicks": 94,
          "midi": 61,
          "name": "C#4",
          "ticks": 34464,
          "time": 122.38633099999998,
          "velocity": 0.5905511811023622
        },
        {
          "duration": 0.33380672916668175,
          "durationTicks": 94,
          "midi": 66,
          "name": "F#4",
          "ticks": 34464,
          "time": 122.38633099999998,
          "velocity": 0.5905511811023622
        },
        {
          "duration": 0.33380672916668175,
          "durationTicks": 94,
          "midi": 52,
          "name": "E3",
          "ticks": 34560,
          "time": 122.72723999999998,
          "velocity": 0.5905511811023622
        },
        {
          "duration": 0.33380672916668175,
          "durationTicks": 94,
          "midi": 56,
          "name": "G#3",
          "ticks": 34560,
          "time": 122.72723999999998,
          "velocity": 0.5905511811023622
        },
        {
          "duration": 0.33380672916668175,
          "durationTicks": 94,
          "midi": 59,
          "name": "B3",
          "ticks": 34560,
          "time": 122.72723999999998,
          "velocity": 0.5905511811023622
        },
        {
          "duration": 0.33380672916668175,
          "durationTicks": 94,
          "midi": 64,
          "name": "E4",
          "ticks": 34560,
          "time": 122.72723999999998,
          "velocity": 0.5905511811023622
        },
        {
          "duration": 0.33380672916666754,
          "durationTicks": 94,
          "midi": 52,
          "name": "E3",
          "ticks": 34656,
          "time": 123.06814899999999,
          "velocity": 0.5905511811023622
        },
        {
          "duration": 0.33380672916666754,
          "durationTicks": 94,
          "midi": 56,
          "name": "G#3",
          "ticks": 34656,
          "time": 123.06814899999999,
          "velocity": 0.5905511811023622
        },
        {
          "duration": 0.33380672916666754,
          "durationTicks": 94,
          "midi": 59,
          "name": "B3",
          "ticks": 34656,
          "time": 123.06814899999999,
          "velocity": 0.5905511811023622
        },
        {
          "duration": 0.33380672916666754,
          "durationTicks": 94,
          "midi": 64,
          "name": "E4",
          "ticks": 34656,
          "time": 123.06814899999999,
          "velocity": 0.5905511811023622
        },
        {
          "duration": 0.33380672916666754,
          "durationTicks": 94,
          "midi": 52,
          "name": "E3",
          "ticks": 34752,
          "time": 123.40905799999999,
          "velocity": 0.5905511811023622
        },
        {
          "duration": 0.33380672916666754,
          "durationTicks": 94,
          "midi": 56,
          "name": "G#3",
          "ticks": 34752,
          "time": 123.40905799999999,
          "velocity": 0.5905511811023622
        },
        {
          "duration": 0.33380672916666754,
          "durationTicks": 94,
          "midi": 59,
          "name": "B3",
          "ticks": 34752,
          "time": 123.40905799999999,
          "velocity": 0.5905511811023622
        },
        {
          "duration": 0.33380672916666754,
          "durationTicks": 94,
          "midi": 64,
          "name": "E4",
          "ticks": 34752,
          "time": 123.40905799999999,
          "velocity": 0.5905511811023622
        },
        {
          "duration": 0.6747157291666781,
          "durationTicks": 190,
          "midi": 52,
          "name": "E3",
          "ticks": 34848,
          "time": 123.74996699999998,
          "velocity": 0.5905511811023622
        },
        {
          "duration": 0.6747157291666781,
          "durationTicks": 190,
          "midi": 56,
          "name": "G#3",
          "ticks": 34848,
          "time": 123.74996699999998,
          "velocity": 0.5905511811023622
        },
        {
          "duration": 0.6747157291666781,
          "durationTicks": 190,
          "midi": 59,
          "name": "B3",
          "ticks": 34848,
          "time": 123.74996699999998,
          "velocity": 0.5905511811023622
        },
        {
          "duration": 0.6747157291666781,
          "durationTicks": 190,
          "midi": 64,
          "name": "E4",
          "ticks": 34848,
          "time": 123.74996699999998,
          "velocity": 0.5905511811023622
        },
        {
          "duration": 0.33380672916666754,
          "durationTicks": 94,
          "midi": 52,
          "name": "E3",
          "ticks": 35040,
          "time": 124.43178499999999,
          "velocity": 0.5905511811023622
        },
        {
          "duration": 0.33380672916666754,
          "durationTicks": 94,
          "midi": 56,
          "name": "G#3",
          "ticks": 35040,
          "time": 124.43178499999999,
          "velocity": 0.5905511811023622
        },
        {
          "duration": 0.33380672916666754,
          "durationTicks": 94,
          "midi": 59,
          "name": "B3",
          "ticks": 35040,
          "time": 124.43178499999999,
          "velocity": 0.5905511811023622
        },
        {
          "duration": 0.33380672916666754,
          "durationTicks": 94,
          "midi": 64,
          "name": "E4",
          "ticks": 35040,
          "time": 124.43178499999999,
          "velocity": 0.5905511811023622
        },
        {
          "duration": 0.33380672916666754,
          "durationTicks": 94,
          "midi": 52,
          "name": "E3",
          "ticks": 35136,
          "time": 124.77269399999999,
          "velocity": 0.5905511811023622
        },
        {
          "duration": 0.33380672916666754,
          "durationTicks": 94,
          "midi": 56,
          "name": "G#3",
          "ticks": 35136,
          "time": 124.77269399999999,
          "velocity": 0.5905511811023622
        },
        {
          "duration": 0.33380672916666754,
          "durationTicks": 94,
          "midi": 59,
          "name": "B3",
          "ticks": 35136,
          "time": 124.77269399999999,
          "velocity": 0.5905511811023622
        },
        {
          "duration": 0.33380672916666754,
          "durationTicks": 94,
          "midi": 64,
          "name": "E4",
          "ticks": 35136,
          "time": 124.77269399999999,
          "velocity": 0.5905511811023622
        },
        {
          "duration": 0.33380672916668175,
          "durationTicks": 94,
          "midi": 52,
          "name": "E3",
          "ticks": 35232,
          "time": 125.11360299999998,
          "velocity": 0.5905511811023622
        },
        {
          "duration": 0.33380672916668175,
          "durationTicks": 94,
          "midi": 56,
          "name": "G#3",
          "ticks": 35232,
          "time": 125.11360299999998,
          "velocity": 0.5905511811023622
        },
        {
          "duration": 0.33380672916668175,
          "durationTicks": 94,
          "midi": 59,
          "name": "B3",
          "ticks": 35232,
          "time": 125.11360299999998,
          "velocity": 0.5905511811023622
        },
        {
          "duration": 0.33380672916668175,
          "durationTicks": 94,
          "midi": 64,
          "name": "E4",
          "ticks": 35232,
          "time": 125.11360299999998,
          "velocity": 0.5905511811023622
        },
        {
          "duration": 0.33380672916668175,
          "durationTicks": 94,
          "midi": 52,
          "name": "E3",
          "ticks": 35328,
          "time": 125.45451199999998,
          "velocity": 0.5905511811023622
        },
        {
          "duration": 0.33380672916668175,
          "durationTicks": 94,
          "midi": 56,
          "name": "G#3",
          "ticks": 35328,
          "time": 125.45451199999998,
          "velocity": 0.5905511811023622
        },
        {
          "duration": 0.33380672916668175,
          "durationTicks": 94,
          "midi": 59,
          "name": "B3",
          "ticks": 35328,
          "time": 125.45451199999998,
          "velocity": 0.5905511811023622
        },
        {
          "duration": 0.33380672916668175,
          "durationTicks": 94,
          "midi": 64,
          "name": "E4",
          "ticks": 35328,
          "time": 125.45451199999998,
          "velocity": 0.5905511811023622
        },
        {
          "duration": 0.33380672916666754,
          "durationTicks": 94,
          "midi": 52,
          "name": "E3",
          "ticks": 35424,
          "time": 125.79542099999999,
          "velocity": 0.5905511811023622
        },
        {
          "duration": 0.33380672916666754,
          "durationTicks": 94,
          "midi": 56,
          "name": "G#3",
          "ticks": 35424,
          "time": 125.79542099999999,
          "velocity": 0.5905511811023622
        },
        {
          "duration": 0.33380672916666754,
          "durationTicks": 94,
          "midi": 59,
          "name": "B3",
          "ticks": 35424,
          "time": 125.79542099999999,
          "velocity": 0.5905511811023622
        },
        {
          "duration": 0.33380672916666754,
          "durationTicks": 94,
          "midi": 64,
          "name": "E4",
          "ticks": 35424,
          "time": 125.79542099999999,
          "velocity": 0.5905511811023622
        },
        {
          "duration": 0.33380672916666754,
          "durationTicks": 94,
          "midi": 52,
          "name": "E3",
          "ticks": 35520,
          "time": 126.13632999999999,
          "velocity": 0.5905511811023622
        },
        {
          "duration": 0.33380672916666754,
          "durationTicks": 94,
          "midi": 56,
          "name": "G#3",
          "ticks": 35520,
          "time": 126.13632999999999,
          "velocity": 0.5905511811023622
        },
        {
          "duration": 0.33380672916666754,
          "durationTicks": 94,
          "midi": 59,
          "name": "B3",
          "ticks": 35520,
          "time": 126.13632999999999,
          "velocity": 0.5905511811023622
        },
        {
          "duration": 0.33380672916666754,
          "durationTicks": 94,
          "midi": 64,
          "name": "E4",
          "ticks": 35520,
          "time": 126.13632999999999,
          "velocity": 0.5905511811023622
        },
        {
          "duration": 0.6747157291666781,
          "durationTicks": 190,
          "midi": 52,
          "name": "E3",
          "ticks": 35616,
          "time": 126.47723899999998,
          "velocity": 0.5905511811023622
        },
        {
          "duration": 0.6747157291666781,
          "durationTicks": 190,
          "midi": 56,
          "name": "G#3",
          "ticks": 35616,
          "time": 126.47723899999998,
          "velocity": 0.5905511811023622
        },
        {
          "duration": 0.6747157291666781,
          "durationTicks": 190,
          "midi": 59,
          "name": "B3",
          "ticks": 35616,
          "time": 126.47723899999998,
          "velocity": 0.5905511811023622
        },
        {
          "duration": 0.6747157291666781,
          "durationTicks": 190,
          "midi": 64,
          "name": "E4",
          "ticks": 35616,
          "time": 126.47723899999998,
          "velocity": 0.5905511811023622
        },
        {
          "duration": 0.33380672916666754,
          "durationTicks": 94,
          "midi": 52,
          "name": "E3",
          "ticks": 35808,
          "time": 127.15905699999999,
          "velocity": 0.5905511811023622
        },
        {
          "duration": 0.33380672916666754,
          "durationTicks": 94,
          "midi": 56,
          "name": "G#3",
          "ticks": 35808,
          "time": 127.15905699999999,
          "velocity": 0.5905511811023622
        },
        {
          "duration": 0.33380672916666754,
          "durationTicks": 94,
          "midi": 59,
          "name": "B3",
          "ticks": 35808,
          "time": 127.15905699999999,
          "velocity": 0.5905511811023622
        },
        {
          "duration": 0.33380672916666754,
          "durationTicks": 94,
          "midi": 64,
          "name": "E4",
          "ticks": 35808,
          "time": 127.15905699999999,
          "velocity": 0.5905511811023622
        },
        {
          "duration": 0.33380672916666754,
          "durationTicks": 94,
          "midi": 52,
          "name": "E3",
          "ticks": 35904,
          "time": 127.49996599999999,
          "velocity": 0.5905511811023622
        },
        {
          "duration": 0.33380672916666754,
          "durationTicks": 94,
          "midi": 56,
          "name": "G#3",
          "ticks": 35904,
          "time": 127.49996599999999,
          "velocity": 0.5905511811023622
        },
        {
          "duration": 0.33380672916666754,
          "durationTicks": 94,
          "midi": 59,
          "name": "B3",
          "ticks": 35904,
          "time": 127.49996599999999,
          "velocity": 0.5905511811023622
        },
        {
          "duration": 0.33380672916666754,
          "durationTicks": 94,
          "midi": 64,
          "name": "E4",
          "ticks": 35904,
          "time": 127.49996599999999,
          "velocity": 0.5905511811023622
        },
        {
          "duration": 0.33380672916666754,
          "durationTicks": 94,
          "midi": 52,
          "name": "E3",
          "ticks": 36000,
          "time": 127.84087499999998,
          "velocity": 0.5905511811023622
        },
        {
          "duration": 0.33380672916666754,
          "durationTicks": 94,
          "midi": 56,
          "name": "G#3",
          "ticks": 36000,
          "time": 127.84087499999998,
          "velocity": 0.5905511811023622
        },
        {
          "duration": 0.33380672916666754,
          "durationTicks": 94,
          "midi": 59,
          "name": "B3",
          "ticks": 36000,
          "time": 127.84087499999998,
          "velocity": 0.5905511811023622
        },
        {
          "duration": 0.33380672916666754,
          "durationTicks": 94,
          "midi": 64,
          "name": "E4",
          "ticks": 36000,
          "time": 127.84087499999998,
          "velocity": 0.5905511811023622
        },
        {
          "duration": 0.33380672916666754,
          "durationTicks": 94,
          "midi": 54,
          "name": "F#3",
          "ticks": 36096,
          "time": 128.181784,
          "velocity": 0.5905511811023622
        },
        {
          "duration": 0.33380672916666754,
          "durationTicks": 94,
          "midi": 59,
          "name": "B3",
          "ticks": 36096,
          "time": 128.181784,
          "velocity": 0.5905511811023622
        },
        {
          "duration": 0.33380672916666754,
          "durationTicks": 94,
          "midi": 63,
          "name": "D#4",
          "ticks": 36096,
          "time": 128.181784,
          "velocity": 0.5905511811023622
        },
        {
          "duration": 0.33380672916669596,
          "durationTicks": 94,
          "midi": 54,
          "name": "F#3",
          "ticks": 36192,
          "time": 128.52269299999998,
          "velocity": 0.5905511811023622
        },
        {
          "duration": 0.33380672916669596,
          "durationTicks": 94,
          "midi": 59,
          "name": "B3",
          "ticks": 36192,
          "time": 128.52269299999998,
          "velocity": 0.5905511811023622
        },
        {
          "duration": 0.33380672916669596,
          "durationTicks": 94,
          "midi": 63,
          "name": "D#4",
          "ticks": 36192,
          "time": 128.52269299999998,
          "velocity": 0.5905511811023622
        },
        {
          "duration": 0.33380672916666754,
          "durationTicks": 94,
          "midi": 54,
          "name": "F#3",
          "ticks": 36288,
          "time": 128.863602,
          "velocity": 0.5905511811023622
        },
        {
          "duration": 0.33380672916666754,
          "durationTicks": 94,
          "midi": 59,
          "name": "B3",
          "ticks": 36288,
          "time": 128.863602,
          "velocity": 0.5905511811023622
        },
        {
          "duration": 0.33380672916666754,
          "durationTicks": 94,
          "midi": 63,
          "name": "D#4",
          "ticks": 36288,
          "time": 128.863602,
          "velocity": 0.5905511811023622
        },
        {
          "duration": 0.6747157291666497,
          "durationTicks": 190,
          "midi": 54,
          "name": "F#3",
          "ticks": 36384,
          "time": 129.204511,
          "velocity": 0.5905511811023622
        },
        {
          "duration": 0.6747157291666497,
          "durationTicks": 190,
          "midi": 59,
          "name": "B3",
          "ticks": 36384,
          "time": 129.204511,
          "velocity": 0.5905511811023622
        },
        {
          "duration": 0.6747157291666497,
          "durationTicks": 190,
          "midi": 63,
          "name": "D#4",
          "ticks": 36384,
          "time": 129.204511,
          "velocity": 0.5905511811023622
        },
        {
          "duration": 0.33380672916666754,
          "durationTicks": 94,
          "midi": 54,
          "name": "F#3",
          "ticks": 36576,
          "time": 129.886329,
          "velocity": 0.5905511811023622
        },
        {
          "duration": 0.33380672916666754,
          "durationTicks": 94,
          "midi": 59,
          "name": "B3",
          "ticks": 36576,
          "time": 129.886329,
          "velocity": 0.5905511811023622
        },
        {
          "duration": 0.33380672916666754,
          "durationTicks": 94,
          "midi": 63,
          "name": "D#4",
          "ticks": 36576,
          "time": 129.886329,
          "velocity": 0.5905511811023622
        },
        {
          "duration": 0.33380672916669596,
          "durationTicks": 94,
          "midi": 54,
          "name": "F#3",
          "ticks": 36672,
          "time": 130.22723799999997,
          "velocity": 0.5905511811023622
        },
        {
          "duration": 0.33380672916669596,
          "durationTicks": 94,
          "midi": 59,
          "name": "B3",
          "ticks": 36672,
          "time": 130.22723799999997,
          "velocity": 0.5905511811023622
        },
        {
          "duration": 0.33380672916669596,
          "durationTicks": 94,
          "midi": 63,
          "name": "D#4",
          "ticks": 36672,
          "time": 130.22723799999997,
          "velocity": 0.5905511811023622
        },
        {
          "duration": 0.33380672916666754,
          "durationTicks": 94,
          "midi": 54,
          "name": "F#3",
          "ticks": 36768,
          "time": 130.56814699999998,
          "velocity": 0.5905511811023622
        },
        {
          "duration": 0.33380672916666754,
          "durationTicks": 94,
          "midi": 59,
          "name": "B3",
          "ticks": 36768,
          "time": 130.56814699999998,
          "velocity": 0.5905511811023622
        },
        {
          "duration": 0.33380672916666754,
          "durationTicks": 94,
          "midi": 63,
          "name": "D#4",
          "ticks": 36768,
          "time": 130.56814699999998,
          "velocity": 0.5905511811023622
        },
        {
          "duration": 0.33380672916666754,
          "durationTicks": 94,
          "midi": 54,
          "name": "F#3",
          "ticks": 36864,
          "time": 130.909056,
          "velocity": 0.5905511811023622
        },
        {
          "duration": 0.33380672916666754,
          "durationTicks": 94,
          "midi": 59,
          "name": "B3",
          "ticks": 36864,
          "time": 130.909056,
          "velocity": 0.5905511811023622
        },
        {
          "duration": 0.33380672916666754,
          "durationTicks": 94,
          "midi": 63,
          "name": "D#4",
          "ticks": 36864,
          "time": 130.909056,
          "velocity": 0.5905511811023622
        },
        {
          "duration": 0.33380672916669596,
          "durationTicks": 94,
          "midi": 54,
          "name": "F#3",
          "ticks": 36960,
          "time": 131.24996499999997,
          "velocity": 0.5905511811023622
        },
        {
          "duration": 0.33380672916669596,
          "durationTicks": 94,
          "midi": 59,
          "name": "B3",
          "ticks": 36960,
          "time": 131.24996499999997,
          "velocity": 0.5905511811023622
        },
        {
          "duration": 0.33380672916669596,
          "durationTicks": 94,
          "midi": 63,
          "name": "D#4",
          "ticks": 36960,
          "time": 131.24996499999997,
          "velocity": 0.5905511811023622
        },
        {
          "duration": 0.33380672916666754,
          "durationTicks": 94,
          "midi": 54,
          "name": "F#3",
          "ticks": 37056,
          "time": 131.59087399999999,
          "velocity": 0.5905511811023622
        },
        {
          "duration": 0.33380672916666754,
          "durationTicks": 94,
          "midi": 59,
          "name": "B3",
          "ticks": 37056,
          "time": 131.59087399999999,
          "velocity": 0.5905511811023622
        },
        {
          "duration": 0.33380672916666754,
          "durationTicks": 94,
          "midi": 63,
          "name": "D#4",
          "ticks": 37056,
          "time": 131.59087399999999,
          "velocity": 0.5905511811023622
        },
        {
          "duration": 0.6747157291666497,
          "durationTicks": 190,
          "midi": 54,
          "name": "F#3",
          "ticks": 37152,
          "time": 131.931783,
          "velocity": 0.5905511811023622
        },
        {
          "duration": 0.6747157291666497,
          "durationTicks": 190,
          "midi": 59,
          "name": "B3",
          "ticks": 37152,
          "time": 131.931783,
          "velocity": 0.5905511811023622
        },
        {
          "duration": 0.6747157291666497,
          "durationTicks": 190,
          "midi": 63,
          "name": "D#4",
          "ticks": 37152,
          "time": 131.931783,
          "velocity": 0.5905511811023622
        },
        {
          "duration": 0.33380672916666754,
          "durationTicks": 94,
          "midi": 54,
          "name": "F#3",
          "ticks": 37344,
          "time": 132.613601,
          "velocity": 0.5905511811023622
        },
        {
          "duration": 0.33380672916666754,
          "durationTicks": 94,
          "midi": 59,
          "name": "B3",
          "ticks": 37344,
          "time": 132.613601,
          "velocity": 0.5905511811023622
        },
        {
          "duration": 0.33380672916666754,
          "durationTicks": 94,
          "midi": 63,
          "name": "D#4",
          "ticks": 37344,
          "time": 132.613601,
          "velocity": 0.5905511811023622
        },
        {
          "duration": 0.33380672916666754,
          "durationTicks": 94,
          "midi": 54,
          "name": "F#3",
          "ticks": 37440,
          "time": 132.95451,
          "velocity": 0.5905511811023622
        },
        {
          "duration": 0.33380672916666754,
          "durationTicks": 94,
          "midi": 59,
          "name": "B3",
          "ticks": 37440,
          "time": 132.95451,
          "velocity": 0.5905511811023622
        },
        {
          "duration": 0.33380672916666754,
          "durationTicks": 94,
          "midi": 63,
          "name": "D#4",
          "ticks": 37440,
          "time": 132.95451,
          "velocity": 0.5905511811023622
        },
        {
          "duration": 0.33380672916666754,
          "durationTicks": 94,
          "midi": 54,
          "name": "F#3",
          "ticks": 37536,
          "time": 133.29541899999998,
          "velocity": 0.5905511811023622
        },
        {
          "duration": 0.33380672916666754,
          "durationTicks": 94,
          "midi": 59,
          "name": "B3",
          "ticks": 37536,
          "time": 133.29541899999998,
          "velocity": 0.5905511811023622
        },
        {
          "duration": 0.33380672916666754,
          "durationTicks": 94,
          "midi": 63,
          "name": "D#4",
          "ticks": 37536,
          "time": 133.29541899999998,
          "velocity": 0.5905511811023622
        },
        {
          "duration": 0.33380672916666754,
          "durationTicks": 94,
          "midi": 54,
          "name": "F#3",
          "ticks": 37632,
          "time": 133.636328,
          "velocity": 0.5905511811023622
        },
        {
          "duration": 0.33380672916666754,
          "durationTicks": 94,
          "midi": 59,
          "name": "B3",
          "ticks": 37632,
          "time": 133.636328,
          "velocity": 0.5905511811023622
        },
        {
          "duration": 0.33380672916666754,
          "durationTicks": 94,
          "midi": 63,
          "name": "D#4",
          "ticks": 37632,
          "time": 133.636328,
          "velocity": 0.5905511811023622
        },
        {
          "duration": 0.33380672916669596,
          "durationTicks": 94,
          "midi": 54,
          "name": "F#3",
          "ticks": 37728,
          "time": 133.97723699999997,
          "velocity": 0.5905511811023622
        },
        {
          "duration": 0.33380672916669596,
          "durationTicks": 94,
          "midi": 59,
          "name": "B3",
          "ticks": 37728,
          "time": 133.97723699999997,
          "velocity": 0.5905511811023622
        },
        {
          "duration": 0.33380672916669596,
          "durationTicks": 94,
          "midi": 63,
          "name": "D#4",
          "ticks": 37728,
          "time": 133.97723699999997,
          "velocity": 0.5905511811023622
        },
        {
          "duration": 0.33380672916666754,
          "durationTicks": 94,
          "midi": 54,
          "name": "F#3",
          "ticks": 37824,
          "time": 134.31814599999998,
          "velocity": 0.5905511811023622
        },
        {
          "duration": 0.33380672916666754,
          "durationTicks": 94,
          "midi": 59,
          "name": "B3",
          "ticks": 37824,
          "time": 134.31814599999998,
          "velocity": 0.5905511811023622
        },
        {
          "duration": 0.33380672916666754,
          "durationTicks": 94,
          "midi": 63,
          "name": "D#4",
          "ticks": 37824,
          "time": 134.31814599999998,
          "velocity": 0.5905511811023622
        },
        {
          "duration": 0.33380672916666754,
          "durationTicks": 94,
          "midi": 54,
          "name": "F#3",
          "ticks": 37920,
          "time": 134.659055,
          "velocity": 0.5905511811023622
        },
        {
          "duration": 0.33380672916666754,
          "durationTicks": 94,
          "midi": 59,
          "name": "B3",
          "ticks": 37920,
          "time": 134.659055,
          "velocity": 0.5905511811023622
        },
        {
          "duration": 0.33380672916666754,
          "durationTicks": 94,
          "midi": 63,
          "name": "D#4",
          "ticks": 37920,
          "time": 134.659055,
          "velocity": 0.5905511811023622
        },
        {
          "duration": 0.33380672916666754,
          "durationTicks": 94,
          "midi": 54,
          "name": "F#3",
          "ticks": 38016,
          "time": 134.99996399999998,
          "velocity": 0.5905511811023622
        },
        {
          "duration": 0.33380672916666754,
          "durationTicks": 94,
          "midi": 59,
          "name": "B3",
          "ticks": 38016,
          "time": 134.99996399999998,
          "velocity": 0.5905511811023622
        },
        {
          "duration": 0.33380672916666754,
          "durationTicks": 94,
          "midi": 63,
          "name": "D#4",
          "ticks": 38016,
          "time": 134.99996399999998,
          "velocity": 0.5905511811023622
        },
        {
          "duration": 0.33380672916666754,
          "durationTicks": 94,
          "midi": 54,
          "name": "F#3",
          "ticks": 38112,
          "time": 135.340873,
          "velocity": 0.5905511811023622
        },
        {
          "duration": 0.33380672916666754,
          "durationTicks": 94,
          "midi": 59,
          "name": "B3",
          "ticks": 38112,
          "time": 135.340873,
          "velocity": 0.5905511811023622
        },
        {
          "duration": 0.33380672916666754,
          "durationTicks": 94,
          "midi": 63,
          "name": "D#4",
          "ticks": 38112,
          "time": 135.340873,
          "velocity": 0.5905511811023622
        },
        {
          "duration": 0.33380672916666754,
          "durationTicks": 94,
          "midi": 54,
          "name": "F#3",
          "ticks": 38208,
          "time": 135.681782,
          "velocity": 0.5905511811023622
        },
        {
          "duration": 0.33380672916666754,
          "durationTicks": 94,
          "midi": 59,
          "name": "B3",
          "ticks": 38208,
          "time": 135.681782,
          "velocity": 0.5905511811023622
        },
        {
          "duration": 0.33380672916666754,
          "durationTicks": 94,
          "midi": 63,
          "name": "D#4",
          "ticks": 38208,
          "time": 135.681782,
          "velocity": 0.5905511811023622
        },
        {
          "duration": 0.33380672916666754,
          "durationTicks": 94,
          "midi": 54,
          "name": "F#3",
          "ticks": 38304,
          "time": 136.02269099999998,
          "velocity": 0.5905511811023622
        },
        {
          "duration": 0.33380672916666754,
          "durationTicks": 94,
          "midi": 59,
          "name": "B3",
          "ticks": 38304,
          "time": 136.02269099999998,
          "velocity": 0.5905511811023622
        },
        {
          "duration": 0.33380672916666754,
          "durationTicks": 94,
          "midi": 63,
          "name": "D#4",
          "ticks": 38304,
          "time": 136.02269099999998,
          "velocity": 0.5905511811023622
        },
        {
          "duration": 0.33380672916666754,
          "durationTicks": 94,
          "midi": 54,
          "name": "F#3",
          "ticks": 38400,
          "time": 136.3636,
          "velocity": 0.5905511811023622
        },
        {
          "duration": 0.33380672916666754,
          "durationTicks": 94,
          "midi": 59,
          "name": "B3",
          "ticks": 38400,
          "time": 136.3636,
          "velocity": 0.5905511811023622
        },
        {
          "duration": 0.33380672916666754,
          "durationTicks": 94,
          "midi": 63,
          "name": "D#4",
          "ticks": 38400,
          "time": 136.3636,
          "velocity": 0.5905511811023622
        },
        {
          "duration": 0.33380672916669596,
          "durationTicks": 94,
          "midi": 54,
          "name": "F#3",
          "ticks": 38496,
          "time": 136.70450899999997,
          "velocity": 0.5905511811023622
        },
        {
          "duration": 0.33380672916669596,
          "durationTicks": 94,
          "midi": 59,
          "name": "B3",
          "ticks": 38496,
          "time": 136.70450899999997,
          "velocity": 0.5905511811023622
        },
        {
          "duration": 0.33380672916669596,
          "durationTicks": 94,
          "midi": 63,
          "name": "D#4",
          "ticks": 38496,
          "time": 136.70450899999997,
          "velocity": 0.5905511811023622
        },
        {
          "duration": 0.33380672916666754,
          "durationTicks": 94,
          "midi": 54,
          "name": "F#3",
          "ticks": 38592,
          "time": 137.04541799999998,
          "velocity": 0.5905511811023622
        },
        {
          "duration": 0.33380672916666754,
          "durationTicks": 94,
          "midi": 59,
          "name": "B3",
          "ticks": 38592,
          "time": 137.04541799999998,
          "velocity": 0.5905511811023622
        },
        {
          "duration": 0.33380672916666754,
          "durationTicks": 94,
          "midi": 63,
          "name": "D#4",
          "ticks": 38592,
          "time": 137.04541799999998,
          "velocity": 0.5905511811023622
        },
        {
          "duration": 0.33380672916666754,
          "durationTicks": 94,
          "midi": 54,
          "name": "F#3",
          "ticks": 38688,
          "time": 137.386327,
          "velocity": 0.5905511811023622
        },
        {
          "duration": 0.33380672916666754,
          "durationTicks": 94,
          "midi": 59,
          "name": "B3",
          "ticks": 38688,
          "time": 137.386327,
          "velocity": 0.5905511811023622
        },
        {
          "duration": 0.33380672916666754,
          "durationTicks": 94,
          "midi": 63,
          "name": "D#4",
          "ticks": 38688,
          "time": 137.386327,
          "velocity": 0.5905511811023622
        },
        {
          "duration": 0.33380672916666754,
          "durationTicks": 94,
          "midi": 54,
          "name": "F#3",
          "ticks": 38784,
          "time": 137.72723599999998,
          "velocity": 0.5905511811023622
        },
        {
          "duration": 0.33380672916666754,
          "durationTicks": 94,
          "midi": 59,
          "name": "B3",
          "ticks": 38784,
          "time": 137.72723599999998,
          "velocity": 0.5905511811023622
        },
        {
          "duration": 0.33380672916666754,
          "durationTicks": 94,
          "midi": 63,
          "name": "D#4",
          "ticks": 38784,
          "time": 137.72723599999998,
          "velocity": 0.5905511811023622
        },
        {
          "duration": 0.33380672916666754,
          "durationTicks": 94,
          "midi": 54,
          "name": "F#3",
          "ticks": 38880,
          "time": 138.068145,
          "velocity": 0.5905511811023622
        },
        {
          "duration": 0.33380672916666754,
          "durationTicks": 94,
          "midi": 59,
          "name": "B3",
          "ticks": 38880,
          "time": 138.068145,
          "velocity": 0.5905511811023622
        },
        {
          "duration": 0.33380672916666754,
          "durationTicks": 94,
          "midi": 63,
          "name": "D#4",
          "ticks": 38880,
          "time": 138.068145,
          "velocity": 0.5905511811023622
        },
        {
          "duration": 0.33380672916666754,
          "durationTicks": 94,
          "midi": 54,
          "name": "F#3",
          "ticks": 38976,
          "time": 138.409054,
          "velocity": 0.5905511811023622
        },
        {
          "duration": 0.33380672916666754,
          "durationTicks": 94,
          "midi": 59,
          "name": "B3",
          "ticks": 38976,
          "time": 138.409054,
          "velocity": 0.5905511811023622
        },
        {
          "duration": 0.33380672916666754,
          "durationTicks": 94,
          "midi": 63,
          "name": "D#4",
          "ticks": 38976,
          "time": 138.409054,
          "velocity": 0.5905511811023622
        },
        {
          "duration": 0.33380672916666754,
          "durationTicks": 94,
          "midi": 54,
          "name": "F#3",
          "ticks": 39072,
          "time": 138.74996299999998,
          "velocity": 0.5905511811023622
        },
        {
          "duration": 0.33380672916666754,
          "durationTicks": 94,
          "midi": 59,
          "name": "B3",
          "ticks": 39072,
          "time": 138.74996299999998,
          "velocity": 0.5905511811023622
        },
        {
          "duration": 0.33380672916666754,
          "durationTicks": 94,
          "midi": 63,
          "name": "D#4",
          "ticks": 39072,
          "time": 138.74996299999998,
          "velocity": 0.5905511811023622
        },
        {
          "duration": 0.33380672916666754,
          "durationTicks": 94,
          "midi": 54,
          "name": "F#3",
          "ticks": 39168,
          "time": 139.090872,
          "velocity": 0.5905511811023622
        },
        {
          "duration": 0.33380672916666754,
          "durationTicks": 94,
          "midi": 58,
          "name": "A#3",
          "ticks": 39168,
          "time": 139.090872,
          "velocity": 0.5905511811023622
        },
        {
          "duration": 0.33380672916666754,
          "durationTicks": 94,
          "midi": 61,
          "name": "C#4",
          "ticks": 39168,
          "time": 139.090872,
          "velocity": 0.5905511811023622
        },
        {
          "duration": 0.33380672916669596,
          "durationTicks": 94,
          "midi": 54,
          "name": "F#3",
          "ticks": 39264,
          "time": 139.43178099999997,
          "velocity": 0.5905511811023622
        },
        {
          "duration": 0.33380672916669596,
          "durationTicks": 94,
          "midi": 58,
          "name": "A#3",
          "ticks": 39264,
          "time": 139.43178099999997,
          "velocity": 0.5905511811023622
        },
        {
          "duration": 0.33380672916669596,
          "durationTicks": 94,
          "midi": 61,
          "name": "C#4",
          "ticks": 39264,
          "time": 139.43178099999997,
          "velocity": 0.5905511811023622
        },
        {
          "duration": 0.33380672916669596,
          "durationTicks": 94,
          "midi": 63,
          "name": "D#4",
          "ticks": 39264,
          "time": 139.43178099999997,
          "velocity": 0.5905511811023622
        },
        {
          "duration": 0.33380672916666754,
          "durationTicks": 94,
          "midi": 54,
          "name": "F#3",
          "ticks": 39360,
          "time": 139.77268999999998,
          "velocity": 0.5905511811023622
        },
        {
          "duration": 0.33380672916666754,
          "durationTicks": 94,
          "midi": 58,
          "name": "A#3",
          "ticks": 39360,
          "time": 139.77268999999998,
          "velocity": 0.5905511811023622
        },
        {
          "duration": 0.33380672916666754,
          "durationTicks": 94,
          "midi": 61,
          "name": "C#4",
          "ticks": 39360,
          "time": 139.77268999999998,
          "velocity": 0.5905511811023622
        },
        {
          "duration": 0.33380672916666754,
          "durationTicks": 94,
          "midi": 63,
          "name": "D#4",
          "ticks": 39360,
          "time": 139.77268999999998,
          "velocity": 0.5905511811023622
        },
        {
          "duration": 0.33380672916666754,
          "durationTicks": 94,
          "midi": 54,
          "name": "F#3",
          "ticks": 39456,
          "time": 140.113599,
          "velocity": 0.5905511811023622
        },
        {
          "duration": 0.33380672916666754,
          "durationTicks": 94,
          "midi": 58,
          "name": "A#3",
          "ticks": 39456,
          "time": 140.113599,
          "velocity": 0.5905511811023622
        },
        {
          "duration": 0.33380672916666754,
          "durationTicks": 94,
          "midi": 61,
          "name": "C#4",
          "ticks": 39456,
          "time": 140.113599,
          "velocity": 0.5905511811023622
        },
        {
          "duration": 0.33380672916666754,
          "durationTicks": 94,
          "midi": 63,
          "name": "D#4",
          "ticks": 39456,
          "time": 140.113599,
          "velocity": 0.5905511811023622
        },
        {
          "duration": 0.33380672916669596,
          "durationTicks": 94,
          "midi": 54,
          "name": "F#3",
          "ticks": 39552,
          "time": 140.45450799999998,
          "velocity": 0.5905511811023622
        },
        {
          "duration": 0.33380672916669596,
          "durationTicks": 94,
          "midi": 58,
          "name": "A#3",
          "ticks": 39552,
          "time": 140.45450799999998,
          "velocity": 0.5905511811023622
        },
        {
          "duration": 0.33380672916669596,
          "durationTicks": 94,
          "midi": 61,
          "name": "C#4",
          "ticks": 39552,
          "time": 140.45450799999998,
          "velocity": 0.5905511811023622
        },
        {
          "duration": 0.33380672916666754,
          "durationTicks": 94,
          "midi": 54,
          "name": "F#3",
          "ticks": 39648,
          "time": 140.795417,
          "velocity": 0.5905511811023622
        },
        {
          "duration": 0.33380672916666754,
          "durationTicks": 94,
          "midi": 58,
          "name": "A#3",
          "ticks": 39648,
          "time": 140.795417,
          "velocity": 0.5905511811023622
        },
        {
          "duration": 0.33380672916666754,
          "durationTicks": 94,
          "midi": 61,
          "name": "C#4",
          "ticks": 39648,
          "time": 140.795417,
          "velocity": 0.5905511811023622
        },
        {
          "duration": 0.33380672916666754,
          "durationTicks": 94,
          "midi": 63,
          "name": "D#4",
          "ticks": 39648,
          "time": 140.795417,
          "velocity": 0.5905511811023622
        },
        {
          "duration": 0.33380672916666754,
          "durationTicks": 94,
          "midi": 54,
          "name": "F#3",
          "ticks": 39744,
          "time": 141.136326,
          "velocity": 0.5905511811023622
        },
        {
          "duration": 0.33380672916666754,
          "durationTicks": 94,
          "midi": 58,
          "name": "A#3",
          "ticks": 39744,
          "time": 141.136326,
          "velocity": 0.5905511811023622
        },
        {
          "duration": 0.33380672916666754,
          "durationTicks": 94,
          "midi": 61,
          "name": "C#4",
          "ticks": 39744,
          "time": 141.136326,
          "velocity": 0.5905511811023622
        },
        {
          "duration": 0.33380672916666754,
          "durationTicks": 94,
          "midi": 63,
          "name": "D#4",
          "ticks": 39744,
          "time": 141.136326,
          "velocity": 0.5905511811023622
        },
        {
          "duration": 0.33380672916666754,
          "durationTicks": 94,
          "midi": 54,
          "name": "F#3",
          "ticks": 39840,
          "time": 141.47723499999998,
          "velocity": 0.5905511811023622
        },
        {
          "duration": 0.33380672916666754,
          "durationTicks": 94,
          "midi": 58,
          "name": "A#3",
          "ticks": 39840,
          "time": 141.47723499999998,
          "velocity": 0.5905511811023622
        },
        {
          "duration": 0.33380672916666754,
          "durationTicks": 94,
          "midi": 61,
          "name": "C#4",
          "ticks": 39840,
          "time": 141.47723499999998,
          "velocity": 0.5905511811023622
        },
        {
          "duration": 0.33380672916666754,
          "durationTicks": 94,
          "midi": 63,
          "name": "D#4",
          "ticks": 39840,
          "time": 141.47723499999998,
          "velocity": 0.5905511811023622
        },
        {
          "duration": 0.33380672916666754,
          "durationTicks": 94,
          "midi": 54,
          "name": "F#3",
          "ticks": 39936,
          "time": 141.818144,
          "velocity": 0.5905511811023622
        },
        {
          "duration": 0.33380672916666754,
          "durationTicks": 94,
          "midi": 58,
          "name": "A#3",
          "ticks": 39936,
          "time": 141.818144,
          "velocity": 0.5905511811023622
        },
        {
          "duration": 0.33380672916666754,
          "durationTicks": 94,
          "midi": 61,
          "name": "C#4",
          "ticks": 39936,
          "time": 141.818144,
          "velocity": 0.5905511811023622
        },
        {
          "duration": 0.33380672916669596,
          "durationTicks": 94,
          "midi": 54,
          "name": "F#3",
          "ticks": 40032,
          "time": 142.15905299999997,
          "velocity": 0.5905511811023622
        },
        {
          "duration": 0.33380672916669596,
          "durationTicks": 94,
          "midi": 58,
          "name": "A#3",
          "ticks": 40032,
          "time": 142.15905299999997,
          "velocity": 0.5905511811023622
        },
        {
          "duration": 0.33380672916669596,
          "durationTicks": 94,
          "midi": 61,
          "name": "C#4",
          "ticks": 40032,
          "time": 142.15905299999997,
          "velocity": 0.5905511811023622
        },
        {
          "duration": 0.33380672916669596,
          "durationTicks": 94,
          "midi": 63,
          "name": "D#4",
          "ticks": 40032,
          "time": 142.15905299999997,
          "velocity": 0.5905511811023622
        },
        {
          "duration": 0.33380672916666754,
          "durationTicks": 94,
          "midi": 54,
          "name": "F#3",
          "ticks": 40128,
          "time": 142.49996199999998,
          "velocity": 0.5905511811023622
        },
        {
          "duration": 0.33380672916666754,
          "durationTicks": 94,
          "midi": 58,
          "name": "A#3",
          "ticks": 40128,
          "time": 142.49996199999998,
          "velocity": 0.5905511811023622
        },
        {
          "duration": 0.33380672916666754,
          "durationTicks": 94,
          "midi": 61,
          "name": "C#4",
          "ticks": 40128,
          "time": 142.49996199999998,
          "velocity": 0.5905511811023622
        },
        {
          "duration": 0.33380672916666754,
          "durationTicks": 94,
          "midi": 63,
          "name": "D#4",
          "ticks": 40128,
          "time": 142.49996199999998,
          "velocity": 0.5905511811023622
        },
        {
          "duration": 0.33380672916666754,
          "durationTicks": 94,
          "midi": 54,
          "name": "F#3",
          "ticks": 40224,
          "time": 142.840871,
          "velocity": 0.5905511811023622
        },
        {
          "duration": 0.33380672916666754,
          "durationTicks": 94,
          "midi": 58,
          "name": "A#3",
          "ticks": 40224,
          "time": 142.840871,
          "velocity": 0.5905511811023622
        },
        {
          "duration": 0.33380672916666754,
          "durationTicks": 94,
          "midi": 61,
          "name": "C#4",
          "ticks": 40224,
          "time": 142.840871,
          "velocity": 0.5905511811023622
        },
        {
          "duration": 0.33380672916666754,
          "durationTicks": 94,
          "midi": 63,
          "name": "D#4",
          "ticks": 40224,
          "time": 142.840871,
          "velocity": 0.5905511811023622
        },
        {
          "duration": 0.33380672916669596,
          "durationTicks": 94,
          "midi": 54,
          "name": "F#3",
          "ticks": 40320,
          "time": 143.18177999999997,
          "velocity": 0.5905511811023622
        },
        {
          "duration": 0.33380672916669596,
          "durationTicks": 94,
          "midi": 58,
          "name": "A#3",
          "ticks": 40320,
          "time": 143.18177999999997,
          "velocity": 0.5905511811023622
        },
        {
          "duration": 0.33380672916669596,
          "durationTicks": 94,
          "midi": 61,
          "name": "C#4",
          "ticks": 40320,
          "time": 143.18177999999997,
          "velocity": 0.5905511811023622
        },
        {
          "duration": 0.33380672916666754,
          "durationTicks": 94,
          "midi": 54,
          "name": "F#3",
          "ticks": 40416,
          "time": 143.52268899999999,
          "velocity": 0.5905511811023622
        },
        {
          "duration": 0.33380672916666754,
          "durationTicks": 94,
          "midi": 58,
          "name": "A#3",
          "ticks": 40416,
          "time": 143.52268899999999,
          "velocity": 0.5905511811023622
        },
        {
          "duration": 0.33380672916666754,
          "durationTicks": 94,
          "midi": 61,
          "name": "C#4",
          "ticks": 40416,
          "time": 143.52268899999999,
          "velocity": 0.5905511811023622
        },
        {
          "duration": 0.33380672916666754,
          "durationTicks": 94,
          "midi": 63,
          "name": "D#4",
          "ticks": 40416,
          "time": 143.52268899999999,
          "velocity": 0.5905511811023622
        },
        {
          "duration": 0.33380672916666754,
          "durationTicks": 94,
          "midi": 54,
          "name": "F#3",
          "ticks": 40512,
          "time": 143.863598,
          "velocity": 0.5905511811023622
        },
        {
          "duration": 0.33380672916666754,
          "durationTicks": 94,
          "midi": 58,
          "name": "A#3",
          "ticks": 40512,
          "time": 143.863598,
          "velocity": 0.5905511811023622
        },
        {
          "duration": 0.33380672916666754,
          "durationTicks": 94,
          "midi": 61,
          "name": "C#4",
          "ticks": 40512,
          "time": 143.863598,
          "velocity": 0.5905511811023622
        },
        {
          "duration": 0.33380672916666754,
          "durationTicks": 94,
          "midi": 63,
          "name": "D#4",
          "ticks": 40512,
          "time": 143.863598,
          "velocity": 0.5905511811023622
        },
        {
          "duration": 0.33380672916666754,
          "durationTicks": 94,
          "midi": 54,
          "name": "F#3",
          "ticks": 40608,
          "time": 144.20450699999998,
          "velocity": 0.5905511811023622
        },
        {
          "duration": 0.33380672916666754,
          "durationTicks": 94,
          "midi": 58,
          "name": "A#3",
          "ticks": 40608,
          "time": 144.20450699999998,
          "velocity": 0.5905511811023622
        },
        {
          "duration": 0.33380672916666754,
          "durationTicks": 94,
          "midi": 61,
          "name": "C#4",
          "ticks": 40608,
          "time": 144.20450699999998,
          "velocity": 0.5905511811023622
        },
        {
          "duration": 0.33380672916666754,
          "durationTicks": 94,
          "midi": 63,
          "name": "D#4",
          "ticks": 40608,
          "time": 144.20450699999998,
          "velocity": 0.5905511811023622
        },
        {
          "duration": 0.33380672916666754,
          "durationTicks": 94,
          "midi": 52,
          "name": "E3",
          "ticks": 40704,
          "time": 144.545416,
          "velocity": 0.5905511811023622
        },
        {
          "duration": 0.33380672916666754,
          "durationTicks": 94,
          "midi": 56,
          "name": "G#3",
          "ticks": 40704,
          "time": 144.545416,
          "velocity": 0.5905511811023622
        },
        {
          "duration": 0.33380672916666754,
          "durationTicks": 94,
          "midi": 63,
          "name": "D#4",
          "ticks": 40704,
          "time": 144.545416,
          "velocity": 0.5905511811023622
        },
        {
          "duration": 0.33380672916669596,
          "durationTicks": 94,
          "midi": 52,
          "name": "E3",
          "ticks": 40800,
          "time": 144.88632499999997,
          "velocity": 0.5905511811023622
        },
        {
          "duration": 0.33380672916669596,
          "durationTicks": 94,
          "midi": 56,
          "name": "G#3",
          "ticks": 40800,
          "time": 144.88632499999997,
          "velocity": 0.5905511811023622
        },
        {
          "duration": 0.33380672916669596,
          "durationTicks": 94,
          "midi": 63,
          "name": "D#4",
          "ticks": 40800,
          "time": 144.88632499999997,
          "velocity": 0.5905511811023622
        },
        {
          "duration": 0.33380672916666754,
          "durationTicks": 94,
          "midi": 52,
          "name": "E3",
          "ticks": 40896,
          "time": 145.22723399999998,
          "velocity": 0.5905511811023622
        },
        {
          "duration": 0.33380672916666754,
          "durationTicks": 94,
          "midi": 56,
          "name": "G#3",
          "ticks": 40896,
          "time": 145.22723399999998,
          "velocity": 0.5905511811023622
        },
        {
          "duration": 0.33380672916666754,
          "durationTicks": 94,
          "midi": 63,
          "name": "D#4",
          "ticks": 40896,
          "time": 145.22723399999998,
          "velocity": 0.5905511811023622
        },
        {
          "duration": 0.33380672916666754,
          "durationTicks": 94,
          "midi": 52,
          "name": "E3",
          "ticks": 40992,
          "time": 145.568143,
          "velocity": 0.5905511811023622
        },
        {
          "duration": 0.33380672916666754,
          "durationTicks": 94,
          "midi": 56,
          "name": "G#3",
          "ticks": 40992,
          "time": 145.568143,
          "velocity": 0.5905511811023622
        },
        {
          "duration": 0.33380672916666754,
          "durationTicks": 94,
          "midi": 63,
          "name": "D#4",
          "ticks": 40992,
          "time": 145.568143,
          "velocity": 0.5905511811023622
        },
        {
          "duration": 0.33380672916669596,
          "durationTicks": 94,
          "midi": 52,
          "name": "E3",
          "ticks": 41088,
          "time": 145.90905199999997,
          "velocity": 0.5905511811023622
        },
        {
          "duration": 0.33380672916669596,
          "durationTicks": 94,
          "midi": 56,
          "name": "G#3",
          "ticks": 41088,
          "time": 145.90905199999997,
          "velocity": 0.5905511811023622
        },
        {
          "duration": 0.33380672916669596,
          "durationTicks": 94,
          "midi": 63,
          "name": "D#4",
          "ticks": 41088,
          "time": 145.90905199999997,
          "velocity": 0.5905511811023622
        },
        {
          "duration": 0.33380672916666754,
          "durationTicks": 94,
          "midi": 52,
          "name": "E3",
          "ticks": 41184,
          "time": 146.24996099999998,
          "velocity": 0.5905511811023622
        },
        {
          "duration": 0.33380672916666754,
          "durationTicks": 94,
          "midi": 56,
          "name": "G#3",
          "ticks": 41184,
          "time": 146.24996099999998,
          "velocity": 0.5905511811023622
        },
        {
          "duration": 0.33380672916666754,
          "durationTicks": 94,
          "midi": 63,
          "name": "D#4",
          "ticks": 41184,
          "time": 146.24996099999998,
          "velocity": 0.5905511811023622
        },
        {
          "duration": 0.33380672916666754,
          "durationTicks": 94,
          "midi": 52,
          "name": "E3",
          "ticks": 41280,
          "time": 146.59087,
          "velocity": 0.5905511811023622
        },
        {
          "duration": 0.33380672916666754,
          "durationTicks": 94,
          "midi": 56,
          "name": "G#3",
          "ticks": 41280,
          "time": 146.59087,
          "velocity": 0.5905511811023622
        },
        {
          "duration": 0.33380672916666754,
          "durationTicks": 94,
          "midi": 63,
          "name": "D#4",
          "ticks": 41280,
          "time": 146.59087,
          "velocity": 0.5905511811023622
        },
        {
          "duration": 0.33380672916666754,
          "durationTicks": 94,
          "midi": 52,
          "name": "E3",
          "ticks": 41376,
          "time": 146.93177899999998,
          "velocity": 0.5905511811023622
        },
        {
          "duration": 0.33380672916666754,
          "durationTicks": 94,
          "midi": 56,
          "name": "G#3",
          "ticks": 41376,
          "time": 146.93177899999998,
          "velocity": 0.5905511811023622
        },
        {
          "duration": 0.33380672916666754,
          "durationTicks": 94,
          "midi": 63,
          "name": "D#4",
          "ticks": 41376,
          "time": 146.93177899999998,
          "velocity": 0.5905511811023622
        },
        {
          "duration": 0.33380672916666754,
          "durationTicks": 94,
          "midi": 52,
          "name": "E3",
          "ticks": 41472,
          "time": 147.272688,
          "velocity": 0.5905511811023622
        },
        {
          "duration": 0.33380672916666754,
          "durationTicks": 94,
          "midi": 56,
          "name": "G#3",
          "ticks": 41472,
          "time": 147.272688,
          "velocity": 0.5905511811023622
        },
        {
          "duration": 0.33380672916666754,
          "durationTicks": 94,
          "midi": 63,
          "name": "D#4",
          "ticks": 41472,
          "time": 147.272688,
          "velocity": 0.5905511811023622
        },
        {
          "duration": 0.33380672916669596,
          "durationTicks": 94,
          "midi": 52,
          "name": "E3",
          "ticks": 41568,
          "time": 147.61359699999997,
          "velocity": 0.5905511811023622
        },
        {
          "duration": 0.33380672916669596,
          "durationTicks": 94,
          "midi": 56,
          "name": "G#3",
          "ticks": 41568,
          "time": 147.61359699999997,
          "velocity": 0.5905511811023622
        },
        {
          "duration": 0.33380672916669596,
          "durationTicks": 94,
          "midi": 63,
          "name": "D#4",
          "ticks": 41568,
          "time": 147.61359699999997,
          "velocity": 0.5905511811023622
        },
        {
          "duration": 0.33380672916666754,
          "durationTicks": 94,
          "midi": 52,
          "name": "E3",
          "ticks": 41664,
          "time": 147.95450599999998,
          "velocity": 0.5905511811023622
        },
        {
          "duration": 0.33380672916666754,
          "durationTicks": 94,
          "midi": 56,
          "name": "G#3",
          "ticks": 41664,
          "time": 147.95450599999998,
          "velocity": 0.5905511811023622
        },
        {
          "duration": 0.33380672916666754,
          "durationTicks": 94,
          "midi": 63,
          "name": "D#4",
          "ticks": 41664,
          "time": 147.95450599999998,
          "velocity": 0.5905511811023622
        },
        {
          "duration": 0.33380672916666754,
          "durationTicks": 94,
          "midi": 52,
          "name": "E3",
          "ticks": 41760,
          "time": 148.295415,
          "velocity": 0.5905511811023622
        },
        {
          "duration": 0.33380672916666754,
          "durationTicks": 94,
          "midi": 56,
          "name": "G#3",
          "ticks": 41760,
          "time": 148.295415,
          "velocity": 0.5905511811023622
        },
        {
          "duration": 0.33380672916666754,
          "durationTicks": 94,
          "midi": 63,
          "name": "D#4",
          "ticks": 41760,
          "time": 148.295415,
          "velocity": 0.5905511811023622
        },
        {
          "duration": 0.33380672916669596,
          "durationTicks": 94,
          "midi": 52,
          "name": "E3",
          "ticks": 41856,
          "time": 148.63632399999997,
          "velocity": 0.5905511811023622
        },
        {
          "duration": 0.33380672916669596,
          "durationTicks": 94,
          "midi": 56,
          "name": "G#3",
          "ticks": 41856,
          "time": 148.63632399999997,
          "velocity": 0.5905511811023622
        },
        {
          "duration": 0.33380672916669596,
          "durationTicks": 94,
          "midi": 63,
          "name": "D#4",
          "ticks": 41856,
          "time": 148.63632399999997,
          "velocity": 0.5905511811023622
        },
        {
          "duration": 0.33380672916666754,
          "durationTicks": 94,
          "midi": 52,
          "name": "E3",
          "ticks": 41952,
          "time": 148.97723299999998,
          "velocity": 0.5905511811023622
        },
        {
          "duration": 0.33380672916666754,
          "durationTicks": 94,
          "midi": 56,
          "name": "G#3",
          "ticks": 41952,
          "time": 148.97723299999998,
          "velocity": 0.5905511811023622
        },
        {
          "duration": 0.33380672916666754,
          "durationTicks": 94,
          "midi": 63,
          "name": "D#4",
          "ticks": 41952,
          "time": 148.97723299999998,
          "velocity": 0.5905511811023622
        },
        {
          "duration": 0.33380672916666754,
          "durationTicks": 94,
          "midi": 52,
          "name": "E3",
          "ticks": 42048,
          "time": 149.318142,
          "velocity": 0.5905511811023622
        },
        {
          "duration": 0.33380672916666754,
          "durationTicks": 94,
          "midi": 56,
          "name": "G#3",
          "ticks": 42048,
          "time": 149.318142,
          "velocity": 0.5905511811023622
        },
        {
          "duration": 0.33380672916666754,
          "durationTicks": 94,
          "midi": 63,
          "name": "D#4",
          "ticks": 42048,
          "time": 149.318142,
          "velocity": 0.5905511811023622
        },
        {
          "duration": 0.33380672916666754,
          "durationTicks": 94,
          "midi": 52,
          "name": "E3",
          "ticks": 42144,
          "time": 149.65905099999998,
          "velocity": 0.5905511811023622
        },
        {
          "duration": 0.33380672916666754,
          "durationTicks": 94,
          "midi": 56,
          "name": "G#3",
          "ticks": 42144,
          "time": 149.65905099999998,
          "velocity": 0.5905511811023622
        },
        {
          "duration": 0.33380672916666754,
          "durationTicks": 94,
          "midi": 63,
          "name": "D#4",
          "ticks": 42144,
          "time": 149.65905099999998,
          "velocity": 0.5905511811023622
        },
        {
          "duration": 0.33380672916666754,
          "durationTicks": 94,
          "midi": 54,
          "name": "F#3",
          "ticks": 42240,
          "time": 149.99996,
          "velocity": 0.5905511811023622
        },
        {
          "duration": 0.33380672916666754,
          "durationTicks": 94,
          "midi": 59,
          "name": "B3",
          "ticks": 42240,
          "time": 149.99996,
          "velocity": 0.5905511811023622
        },
        {
          "duration": 0.33380672916666754,
          "durationTicks": 94,
          "midi": 63,
          "name": "D#4",
          "ticks": 42240,
          "time": 149.99996,
          "velocity": 0.5905511811023622
        },
        {
          "duration": 0.33380672916669596,
          "durationTicks": 94,
          "midi": 54,
          "name": "F#3",
          "ticks": 42336,
          "time": 150.34086899999997,
          "velocity": 0.5905511811023622
        },
        {
          "duration": 0.33380672916669596,
          "durationTicks": 94,
          "midi": 59,
          "name": "B3",
          "ticks": 42336,
          "time": 150.34086899999997,
          "velocity": 0.5905511811023622
        },
        {
          "duration": 0.33380672916669596,
          "durationTicks": 94,
          "midi": 63,
          "name": "D#4",
          "ticks": 42336,
          "time": 150.34086899999997,
          "velocity": 0.5905511811023622
        },
        {
          "duration": 0.33380672916666754,
          "durationTicks": 94,
          "midi": 54,
          "name": "F#3",
          "ticks": 42432,
          "time": 150.68177799999998,
          "velocity": 0.5905511811023622
        },
        {
          "duration": 0.33380672916666754,
          "durationTicks": 94,
          "midi": 59,
          "name": "B3",
          "ticks": 42432,
          "time": 150.68177799999998,
          "velocity": 0.5905511811023622
        },
        {
          "duration": 0.33380672916666754,
          "durationTicks": 94,
          "midi": 63,
          "name": "D#4",
          "ticks": 42432,
          "time": 150.68177799999998,
          "velocity": 0.5905511811023622
        },
        {
          "duration": 0.33380672916666754,
          "durationTicks": 94,
          "midi": 54,
          "name": "F#3",
          "ticks": 42528,
          "time": 151.022687,
          "velocity": 0.5905511811023622
        },
        {
          "duration": 0.33380672916666754,
          "durationTicks": 94,
          "midi": 59,
          "name": "B3",
          "ticks": 42528,
          "time": 151.022687,
          "velocity": 0.5905511811023622
        },
        {
          "duration": 0.33380672916666754,
          "durationTicks": 94,
          "midi": 63,
          "name": "D#4",
          "ticks": 42528,
          "time": 151.022687,
          "velocity": 0.5905511811023622
        },
        {
          "duration": 0.33380672916669596,
          "durationTicks": 94,
          "midi": 54,
          "name": "F#3",
          "ticks": 42624,
          "time": 151.36359599999997,
          "velocity": 0.5905511811023622
        },
        {
          "duration": 0.33380672916669596,
          "durationTicks": 94,
          "midi": 59,
          "name": "B3",
          "ticks": 42624,
          "time": 151.36359599999997,
          "velocity": 0.5905511811023622
        },
        {
          "duration": 0.33380672916669596,
          "durationTicks": 94,
          "midi": 63,
          "name": "D#4",
          "ticks": 42624,
          "time": 151.36359599999997,
          "velocity": 0.5905511811023622
        },
        {
          "duration": 0.33380672916666754,
          "durationTicks": 94,
          "midi": 54,
          "name": "F#3",
          "ticks": 42720,
          "time": 151.70450499999998,
          "velocity": 0.5905511811023622
        },
        {
          "duration": 0.33380672916666754,
          "durationTicks": 94,
          "midi": 59,
          "name": "B3",
          "ticks": 42720,
          "time": 151.70450499999998,
          "velocity": 0.5905511811023622
        },
        {
          "duration": 0.33380672916666754,
          "durationTicks": 94,
          "midi": 63,
          "name": "D#4",
          "ticks": 42720,
          "time": 151.70450499999998,
          "velocity": 0.5905511811023622
        },
        {
          "duration": 0.33380672916666754,
          "durationTicks": 94,
          "midi": 54,
          "name": "F#3",
          "ticks": 42816,
          "time": 152.045414,
          "velocity": 0.5905511811023622
        },
        {
          "duration": 0.33380672916666754,
          "durationTicks": 94,
          "midi": 59,
          "name": "B3",
          "ticks": 42816,
          "time": 152.045414,
          "velocity": 0.5905511811023622
        },
        {
          "duration": 0.33380672916666754,
          "durationTicks": 94,
          "midi": 63,
          "name": "D#4",
          "ticks": 42816,
          "time": 152.045414,
          "velocity": 0.5905511811023622
        },
        {
          "duration": 0.33380672916666754,
          "durationTicks": 94,
          "midi": 54,
          "name": "F#3",
          "ticks": 42912,
          "time": 152.38632299999998,
          "velocity": 0.5905511811023622
        },
        {
          "duration": 0.33380672916666754,
          "durationTicks": 94,
          "midi": 59,
          "name": "B3",
          "ticks": 42912,
          "time": 152.38632299999998,
          "velocity": 0.5905511811023622
        },
        {
          "duration": 0.33380672916666754,
          "durationTicks": 94,
          "midi": 63,
          "name": "D#4",
          "ticks": 42912,
          "time": 152.38632299999998,
          "velocity": 0.5905511811023622
        },
        {
          "duration": 0.33380672916666754,
          "durationTicks": 94,
          "midi": 54,
          "name": "F#3",
          "ticks": 43008,
          "time": 152.727232,
          "velocity": 0.5905511811023622
        },
        {
          "duration": 0.33380672916666754,
          "durationTicks": 94,
          "midi": 59,
          "name": "B3",
          "ticks": 43008,
          "time": 152.727232,
          "velocity": 0.5905511811023622
        },
        {
          "duration": 0.33380672916666754,
          "durationTicks": 94,
          "midi": 63,
          "name": "D#4",
          "ticks": 43008,
          "time": 152.727232,
          "velocity": 0.5905511811023622
        },
        {
          "duration": 0.33380672916666754,
          "durationTicks": 94,
          "midi": 54,
          "name": "F#3",
          "ticks": 43104,
          "time": 153.068141,
          "velocity": 0.5905511811023622
        },
        {
          "duration": 0.33380672916666754,
          "durationTicks": 94,
          "midi": 59,
          "name": "B3",
          "ticks": 43104,
          "time": 153.068141,
          "velocity": 0.5905511811023622
        },
        {
          "duration": 0.33380672916666754,
          "durationTicks": 94,
          "midi": 63,
          "name": "D#4",
          "ticks": 43104,
          "time": 153.068141,
          "velocity": 0.5905511811023622
        },
        {
          "duration": 0.33380672916666754,
          "durationTicks": 94,
          "midi": 54,
          "name": "F#3",
          "ticks": 43200,
          "time": 153.40904999999998,
          "velocity": 0.5905511811023622
        },
        {
          "duration": 0.33380672916666754,
          "durationTicks": 94,
          "midi": 59,
          "name": "B3",
          "ticks": 43200,
          "time": 153.40904999999998,
          "velocity": 0.5905511811023622
        },
        {
          "duration": 0.33380672916666754,
          "durationTicks": 94,
          "midi": 63,
          "name": "D#4",
          "ticks": 43200,
          "time": 153.40904999999998,
          "velocity": 0.5905511811023622
        },
        {
          "duration": 0.33380672916666754,
          "durationTicks": 94,
          "midi": 54,
          "name": "F#3",
          "ticks": 43296,
          "time": 153.749959,
          "velocity": 0.5905511811023622
        },
        {
          "duration": 0.33380672916666754,
          "durationTicks": 94,
          "midi": 59,
          "name": "B3",
          "ticks": 43296,
          "time": 153.749959,
          "velocity": 0.5905511811023622
        },
        {
          "duration": 0.33380672916666754,
          "durationTicks": 94,
          "midi": 63,
          "name": "D#4",
          "ticks": 43296,
          "time": 153.749959,
          "velocity": 0.5905511811023622
        },
        {
          "duration": 0.33380672916669596,
          "durationTicks": 94,
          "midi": 54,
          "name": "F#3",
          "ticks": 43392,
          "time": 154.09086799999997,
          "velocity": 0.5905511811023622
        },
        {
          "duration": 0.33380672916669596,
          "durationTicks": 94,
          "midi": 59,
          "name": "B3",
          "ticks": 43392,
          "time": 154.09086799999997,
          "velocity": 0.5905511811023622
        },
        {
          "duration": 0.33380672916669596,
          "durationTicks": 94,
          "midi": 63,
          "name": "D#4",
          "ticks": 43392,
          "time": 154.09086799999997,
          "velocity": 0.5905511811023622
        },
        {
          "duration": 0.33380672916666754,
          "durationTicks": 94,
          "midi": 54,
          "name": "F#3",
          "ticks": 43488,
          "time": 154.43177699999998,
          "velocity": 0.5905511811023622
        },
        {
          "duration": 0.33380672916666754,
          "durationTicks": 94,
          "midi": 59,
          "name": "B3",
          "ticks": 43488,
          "time": 154.43177699999998,
          "velocity": 0.5905511811023622
        },
        {
          "duration": 0.33380672916666754,
          "durationTicks": 94,
          "midi": 63,
          "name": "D#4",
          "ticks": 43488,
          "time": 154.43177699999998,
          "velocity": 0.5905511811023622
        },
        {
          "duration": 0.33380672916666754,
          "durationTicks": 94,
          "midi": 54,
          "name": "F#3",
          "ticks": 43584,
          "time": 154.772686,
          "velocity": 0.5905511811023622
        },
        {
          "duration": 0.33380672916666754,
          "durationTicks": 94,
          "midi": 59,
          "name": "B3",
          "ticks": 43584,
          "time": 154.772686,
          "velocity": 0.5905511811023622
        },
        {
          "duration": 0.33380672916666754,
          "durationTicks": 94,
          "midi": 63,
          "name": "D#4",
          "ticks": 43584,
          "time": 154.772686,
          "velocity": 0.5905511811023622
        },
        {
          "duration": 0.33380672916666754,
          "durationTicks": 94,
          "midi": 54,
          "name": "F#3",
          "ticks": 43680,
          "time": 155.11359499999998,
          "velocity": 0.5905511811023622
        },
        {
          "duration": 0.33380672916666754,
          "durationTicks": 94,
          "midi": 59,
          "name": "B3",
          "ticks": 43680,
          "time": 155.11359499999998,
          "velocity": 0.5905511811023622
        },
        {
          "duration": 0.33380672916666754,
          "durationTicks": 94,
          "midi": 63,
          "name": "D#4",
          "ticks": 43680,
          "time": 155.11359499999998,
          "velocity": 0.5905511811023622
        },
        {
          "duration": 0.33380672916666754,
          "durationTicks": 94,
          "midi": 54,
          "name": "F#3",
          "ticks": 43776,
          "time": 155.454504,
          "velocity": 0.5905511811023622
        },
        {
          "duration": 0.33380672916666754,
          "durationTicks": 94,
          "midi": 58,
          "name": "A#3",
          "ticks": 43776,
          "time": 155.454504,
          "velocity": 0.5905511811023622
        },
        {
          "duration": 0.33380672916666754,
          "durationTicks": 94,
          "midi": 61,
          "name": "C#4",
          "ticks": 43776,
          "time": 155.454504,
          "velocity": 0.5905511811023622
        },
        {
          "duration": 0.33380672916666754,
          "durationTicks": 94,
          "midi": 54,
          "name": "F#3",
          "ticks": 43872,
          "time": 155.795413,
          "velocity": 0.5905511811023622
        },
        {
          "duration": 0.33380672916666754,
          "durationTicks": 94,
          "midi": 58,
          "name": "A#3",
          "ticks": 43872,
          "time": 155.795413,
          "velocity": 0.5905511811023622
        },
        {
          "duration": 0.33380672916666754,
          "durationTicks": 94,
          "midi": 61,
          "name": "C#4",
          "ticks": 43872,
          "time": 155.795413,
          "velocity": 0.5905511811023622
        },
        {
          "duration": 0.33380672916666754,
          "durationTicks": 94,
          "midi": 63,
          "name": "D#4",
          "ticks": 43872,
          "time": 155.795413,
          "velocity": 0.5905511811023622
        },
        {
          "duration": 0.33380672916666754,
          "durationTicks": 94,
          "midi": 54,
          "name": "F#3",
          "ticks": 43968,
          "time": 156.13632199999998,
          "velocity": 0.5905511811023622
        },
        {
          "duration": 0.33380672916666754,
          "durationTicks": 94,
          "midi": 58,
          "name": "A#3",
          "ticks": 43968,
          "time": 156.13632199999998,
          "velocity": 0.5905511811023622
        },
        {
          "duration": 0.33380672916666754,
          "durationTicks": 94,
          "midi": 61,
          "name": "C#4",
          "ticks": 43968,
          "time": 156.13632199999998,
          "velocity": 0.5905511811023622
        },
        {
          "duration": 0.33380672916666754,
          "durationTicks": 94,
          "midi": 63,
          "name": "D#4",
          "ticks": 43968,
          "time": 156.13632199999998,
          "velocity": 0.5905511811023622
        },
        {
          "duration": 0.33380672916666754,
          "durationTicks": 94,
          "midi": 54,
          "name": "F#3",
          "ticks": 44064,
          "time": 156.477231,
          "velocity": 0.5905511811023622
        },
        {
          "duration": 0.33380672916666754,
          "durationTicks": 94,
          "midi": 58,
          "name": "A#3",
          "ticks": 44064,
          "time": 156.477231,
          "velocity": 0.5905511811023622
        },
        {
          "duration": 0.33380672916666754,
          "durationTicks": 94,
          "midi": 61,
          "name": "C#4",
          "ticks": 44064,
          "time": 156.477231,
          "velocity": 0.5905511811023622
        },
        {
          "duration": 0.33380672916666754,
          "durationTicks": 94,
          "midi": 63,
          "name": "D#4",
          "ticks": 44064,
          "time": 156.477231,
          "velocity": 0.5905511811023622
        },
        {
          "duration": 0.33380672916669596,
          "durationTicks": 94,
          "midi": 54,
          "name": "F#3",
          "ticks": 44160,
          "time": 156.81813999999997,
          "velocity": 0.5905511811023622
        },
        {
          "duration": 0.33380672916669596,
          "durationTicks": 94,
          "midi": 58,
          "name": "A#3",
          "ticks": 44160,
          "time": 156.81813999999997,
          "velocity": 0.5905511811023622
        },
        {
          "duration": 0.33380672916669596,
          "durationTicks": 94,
          "midi": 61,
          "name": "C#4",
          "ticks": 44160,
          "time": 156.81813999999997,
          "velocity": 0.5905511811023622
        },
        {
          "duration": 0.33380672916666754,
          "durationTicks": 94,
          "midi": 54,
          "name": "F#3",
          "ticks": 44256,
          "time": 157.15904899999998,
          "velocity": 0.5905511811023622
        },
        {
          "duration": 0.33380672916666754,
          "durationTicks": 94,
          "midi": 58,
          "name": "A#3",
          "ticks": 44256,
          "time": 157.15904899999998,
          "velocity": 0.5905511811023622
        },
        {
          "duration": 0.33380672916666754,
          "durationTicks": 94,
          "midi": 61,
          "name": "C#4",
          "ticks": 44256,
          "time": 157.15904899999998,
          "velocity": 0.5905511811023622
        },
        {
          "duration": 0.33380672916666754,
          "durationTicks": 94,
          "midi": 63,
          "name": "D#4",
          "ticks": 44256,
          "time": 157.15904899999998,
          "velocity": 0.5905511811023622
        },
        {
          "duration": 0.33380672916666754,
          "durationTicks": 94,
          "midi": 54,
          "name": "F#3",
          "ticks": 44352,
          "time": 157.499958,
          "velocity": 0.5905511811023622
        },
        {
          "duration": 0.33380672916666754,
          "durationTicks": 94,
          "midi": 58,
          "name": "A#3",
          "ticks": 44352,
          "time": 157.499958,
          "velocity": 0.5905511811023622
        },
        {
          "duration": 0.33380672916666754,
          "durationTicks": 94,
          "midi": 61,
          "name": "C#4",
          "ticks": 44352,
          "time": 157.499958,
          "velocity": 0.5905511811023622
        },
        {
          "duration": 0.33380672916666754,
          "durationTicks": 94,
          "midi": 63,
          "name": "D#4",
          "ticks": 44352,
          "time": 157.499958,
          "velocity": 0.5905511811023622
        },
        {
          "duration": 0.33380672916666754,
          "durationTicks": 94,
          "midi": 54,
          "name": "F#3",
          "ticks": 44448,
          "time": 157.84086699999997,
          "velocity": 0.5905511811023622
        },
        {
          "duration": 0.33380672916666754,
          "durationTicks": 94,
          "midi": 58,
          "name": "A#3",
          "ticks": 44448,
          "time": 157.84086699999997,
          "velocity": 0.5905511811023622
        },
        {
          "duration": 0.33380672916666754,
          "durationTicks": 94,
          "midi": 61,
          "name": "C#4",
          "ticks": 44448,
          "time": 157.84086699999997,
          "velocity": 0.5905511811023622
        },
        {
          "duration": 0.33380672916666754,
          "durationTicks": 94,
          "midi": 63,
          "name": "D#4",
          "ticks": 44448,
          "time": 157.84086699999997,
          "velocity": 0.5905511811023622
        },
        {
          "duration": 0.33380672916666754,
          "durationTicks": 94,
          "midi": 54,
          "name": "F#3",
          "ticks": 44544,
          "time": 158.18177599999999,
          "velocity": 0.5905511811023622
        },
        {
          "duration": 0.33380672916666754,
          "durationTicks": 94,
          "midi": 58,
          "name": "A#3",
          "ticks": 44544,
          "time": 158.18177599999999,
          "velocity": 0.5905511811023622
        },
        {
          "duration": 0.33380672916666754,
          "durationTicks": 94,
          "midi": 61,
          "name": "C#4",
          "ticks": 44544,
          "time": 158.18177599999999,
          "velocity": 0.5905511811023622
        },
        {
          "duration": 0.33380672916666754,
          "durationTicks": 94,
          "midi": 54,
          "name": "F#3",
          "ticks": 44640,
          "time": 158.522685,
          "velocity": 0.5905511811023622
        },
        {
          "duration": 0.33380672916666754,
          "durationTicks": 94,
          "midi": 58,
          "name": "A#3",
          "ticks": 44640,
          "time": 158.522685,
          "velocity": 0.5905511811023622
        },
        {
          "duration": 0.33380672916666754,
          "durationTicks": 94,
          "midi": 61,
          "name": "C#4",
          "ticks": 44640,
          "time": 158.522685,
          "velocity": 0.5905511811023622
        },
        {
          "duration": 0.33380672916666754,
          "durationTicks": 94,
          "midi": 63,
          "name": "D#4",
          "ticks": 44640,
          "time": 158.522685,
          "velocity": 0.5905511811023622
        },
        {
          "duration": 0.33380672916666754,
          "durationTicks": 94,
          "midi": 54,
          "name": "F#3",
          "ticks": 44736,
          "time": 158.86359399999998,
          "velocity": 0.5905511811023622
        },
        {
          "duration": 0.33380672916666754,
          "durationTicks": 94,
          "midi": 58,
          "name": "A#3",
          "ticks": 44736,
          "time": 158.86359399999998,
          "velocity": 0.5905511811023622
        },
        {
          "duration": 0.33380672916666754,
          "durationTicks": 94,
          "midi": 61,
          "name": "C#4",
          "ticks": 44736,
          "time": 158.86359399999998,
          "velocity": 0.5905511811023622
        },
        {
          "duration": 0.33380672916666754,
          "durationTicks": 94,
          "midi": 63,
          "name": "D#4",
          "ticks": 44736,
          "time": 158.86359399999998,
          "velocity": 0.5905511811023622
        },
        {
          "duration": 0.33380672916666754,
          "durationTicks": 94,
          "midi": 54,
          "name": "F#3",
          "ticks": 44832,
          "time": 159.204503,
          "velocity": 0.5905511811023622
        },
        {
          "duration": 0.33380672916666754,
          "durationTicks": 94,
          "midi": 58,
          "name": "A#3",
          "ticks": 44832,
          "time": 159.204503,
          "velocity": 0.5905511811023622
        },
        {
          "duration": 0.33380672916666754,
          "durationTicks": 94,
          "midi": 61,
          "name": "C#4",
          "ticks": 44832,
          "time": 159.204503,
          "velocity": 0.5905511811023622
        },
        {
          "duration": 0.33380672916666754,
          "durationTicks": 94,
          "midi": 63,
          "name": "D#4",
          "ticks": 44832,
          "time": 159.204503,
          "velocity": 0.5905511811023622
        },
        {
          "duration": 0.33380672916669596,
          "durationTicks": 94,
          "midi": 54,
          "name": "F#3",
          "ticks": 44928,
          "time": 159.54541199999997,
          "velocity": 0.5905511811023622
        },
        {
          "duration": 0.33380672916669596,
          "durationTicks": 94,
          "midi": 58,
          "name": "A#3",
          "ticks": 44928,
          "time": 159.54541199999997,
          "velocity": 0.5905511811023622
        },
        {
          "duration": 0.33380672916669596,
          "durationTicks": 94,
          "midi": 61,
          "name": "C#4",
          "ticks": 44928,
          "time": 159.54541199999997,
          "velocity": 0.5905511811023622
        },
        {
          "duration": 0.33380672916666754,
          "durationTicks": 94,
          "midi": 54,
          "name": "F#3",
          "ticks": 45024,
          "time": 159.88632099999998,
          "velocity": 0.5905511811023622
        },
        {
          "duration": 0.33380672916666754,
          "durationTicks": 94,
          "midi": 58,
          "name": "A#3",
          "ticks": 45024,
          "time": 159.88632099999998,
          "velocity": 0.5905511811023622
        },
        {
          "duration": 0.33380672916666754,
          "durationTicks": 94,
          "midi": 61,
          "name": "C#4",
          "ticks": 45024,
          "time": 159.88632099999998,
          "velocity": 0.5905511811023622
        },
        {
          "duration": 0.33380672916666754,
          "durationTicks": 94,
          "midi": 63,
          "name": "D#4",
          "ticks": 45024,
          "time": 159.88632099999998,
          "velocity": 0.5905511811023622
        },
        {
          "duration": 0.33380672916666754,
          "durationTicks": 94,
          "midi": 54,
          "name": "F#3",
          "ticks": 45120,
          "time": 160.22723,
          "velocity": 0.5905511811023622
        },
        {
          "duration": 0.33380672916666754,
          "durationTicks": 94,
          "midi": 58,
          "name": "A#3",
          "ticks": 45120,
          "time": 160.22723,
          "velocity": 0.5905511811023622
        },
        {
          "duration": 0.33380672916666754,
          "durationTicks": 94,
          "midi": 61,
          "name": "C#4",
          "ticks": 45120,
          "time": 160.22723,
          "velocity": 0.5905511811023622
        },
        {
          "duration": 0.33380672916666754,
          "durationTicks": 94,
          "midi": 63,
          "name": "D#4",
          "ticks": 45120,
          "time": 160.22723,
          "velocity": 0.5905511811023622
        },
        {
          "duration": 0.33380672916666754,
          "durationTicks": 94,
          "midi": 54,
          "name": "F#3",
          "ticks": 45216,
          "time": 160.56813899999997,
          "velocity": 0.5905511811023622
        },
        {
          "duration": 0.33380672916666754,
          "durationTicks": 94,
          "midi": 58,
          "name": "A#3",
          "ticks": 45216,
          "time": 160.56813899999997,
          "velocity": 0.5905511811023622
        },
        {
          "duration": 0.33380672916666754,
          "durationTicks": 94,
          "midi": 61,
          "name": "C#4",
          "ticks": 45216,
          "time": 160.56813899999997,
          "velocity": 0.5905511811023622
        },
        {
          "duration": 0.33380672916666754,
          "durationTicks": 94,
          "midi": 63,
          "name": "D#4",
          "ticks": 45216,
          "time": 160.56813899999997,
          "velocity": 0.5905511811023622
        },
        {
          "duration": 0.33380672916666754,
          "durationTicks": 94,
          "midi": 52,
          "name": "E3",
          "ticks": 45312,
          "time": 160.90904799999998,
          "velocity": 0.5905511811023622
        },
        {
          "duration": 0.33380672916666754,
          "durationTicks": 94,
          "midi": 56,
          "name": "G#3",
          "ticks": 45312,
          "time": 160.90904799999998,
          "velocity": 0.5905511811023622
        },
        {
          "duration": 0.33380672916666754,
          "durationTicks": 94,
          "midi": 63,
          "name": "D#4",
          "ticks": 45312,
          "time": 160.90904799999998,
          "velocity": 0.5905511811023622
        },
        {
          "duration": 0.33380672916666754,
          "durationTicks": 94,
          "midi": 52,
          "name": "E3",
          "ticks": 45408,
          "time": 161.249957,
          "velocity": 0.5905511811023622
        },
        {
          "duration": 0.33380672916666754,
          "durationTicks": 94,
          "midi": 56,
          "name": "G#3",
          "ticks": 45408,
          "time": 161.249957,
          "velocity": 0.5905511811023622
        },
        {
          "duration": 0.33380672916666754,
          "durationTicks": 94,
          "midi": 63,
          "name": "D#4",
          "ticks": 45408,
          "time": 161.249957,
          "velocity": 0.5905511811023622
        },
        {
          "duration": 0.33380672916666754,
          "durationTicks": 94,
          "midi": 52,
          "name": "E3",
          "ticks": 45504,
          "time": 161.59086599999998,
          "velocity": 0.5905511811023622
        },
        {
          "duration": 0.33380672916666754,
          "durationTicks": 94,
          "midi": 56,
          "name": "G#3",
          "ticks": 45504,
          "time": 161.59086599999998,
          "velocity": 0.5905511811023622
        },
        {
          "duration": 0.33380672916666754,
          "durationTicks": 94,
          "midi": 63,
          "name": "D#4",
          "ticks": 45504,
          "time": 161.59086599999998,
          "velocity": 0.5905511811023622
        },
        {
          "duration": 0.33380672916666754,
          "durationTicks": 94,
          "midi": 52,
          "name": "E3",
          "ticks": 45600,
          "time": 161.931775,
          "velocity": 0.5905511811023622
        },
        {
          "duration": 0.33380672916666754,
          "durationTicks": 94,
          "midi": 56,
          "name": "G#3",
          "ticks": 45600,
          "time": 161.931775,
          "velocity": 0.5905511811023622
        },
        {
          "duration": 0.33380672916666754,
          "durationTicks": 94,
          "midi": 63,
          "name": "D#4",
          "ticks": 45600,
          "time": 161.931775,
          "velocity": 0.5905511811023622
        },
        {
          "duration": 0.33380672916669596,
          "durationTicks": 94,
          "midi": 52,
          "name": "E3",
          "ticks": 45696,
          "time": 162.27268399999997,
          "velocity": 0.5905511811023622
        },
        {
          "duration": 0.33380672916669596,
          "durationTicks": 94,
          "midi": 56,
          "name": "G#3",
          "ticks": 45696,
          "time": 162.27268399999997,
          "velocity": 0.5905511811023622
        },
        {
          "duration": 0.33380672916669596,
          "durationTicks": 94,
          "midi": 63,
          "name": "D#4",
          "ticks": 45696,
          "time": 162.27268399999997,
          "velocity": 0.5905511811023622
        },
        {
          "duration": 0.33380672916666754,
          "durationTicks": 94,
          "midi": 52,
          "name": "E3",
          "ticks": 45792,
          "time": 162.61359299999998,
          "velocity": 0.5905511811023622
        },
        {
          "duration": 0.33380672916666754,
          "durationTicks": 94,
          "midi": 56,
          "name": "G#3",
          "ticks": 45792,
          "time": 162.61359299999998,
          "velocity": 0.5905511811023622
        },
        {
          "duration": 0.33380672916666754,
          "durationTicks": 94,
          "midi": 63,
          "name": "D#4",
          "ticks": 45792,
          "time": 162.61359299999998,
          "velocity": 0.5905511811023622
        },
        {
          "duration": 0.33380672916666754,
          "durationTicks": 94,
          "midi": 52,
          "name": "E3",
          "ticks": 45888,
          "time": 162.954502,
          "velocity": 0.5905511811023622
        },
        {
          "duration": 0.33380672916666754,
          "durationTicks": 94,
          "midi": 56,
          "name": "G#3",
          "ticks": 45888,
          "time": 162.954502,
          "velocity": 0.5905511811023622
        },
        {
          "duration": 0.33380672916666754,
          "durationTicks": 94,
          "midi": 63,
          "name": "D#4",
          "ticks": 45888,
          "time": 162.954502,
          "velocity": 0.5905511811023622
        },
        {
          "duration": 0.33380672916669596,
          "durationTicks": 94,
          "midi": 52,
          "name": "E3",
          "ticks": 45984,
          "time": 163.29541099999997,
          "velocity": 0.5905511811023622
        },
        {
          "duration": 0.33380672916669596,
          "durationTicks": 94,
          "midi": 56,
          "name": "G#3",
          "ticks": 45984,
          "time": 163.29541099999997,
          "velocity": 0.5905511811023622
        },
        {
          "duration": 0.33380672916669596,
          "durationTicks": 94,
          "midi": 63,
          "name": "D#4",
          "ticks": 45984,
          "time": 163.29541099999997,
          "velocity": 0.5905511811023622
        },
        {
          "duration": 0.33380672916666754,
          "durationTicks": 94,
          "midi": 52,
          "name": "E3",
          "ticks": 46080,
          "time": 163.63631999999998,
          "velocity": 0.5905511811023622
        },
        {
          "duration": 0.33380672916666754,
          "durationTicks": 94,
          "midi": 56,
          "name": "G#3",
          "ticks": 46080,
          "time": 163.63631999999998,
          "velocity": 0.5905511811023622
        },
        {
          "duration": 0.33380672916666754,
          "durationTicks": 94,
          "midi": 63,
          "name": "D#4",
          "ticks": 46080,
          "time": 163.63631999999998,
          "velocity": 0.5905511811023622
        },
        {
          "duration": 0.33380672916666754,
          "durationTicks": 94,
          "midi": 52,
          "name": "E3",
          "ticks": 46176,
          "time": 163.977229,
          "velocity": 0.5905511811023622
        },
        {
          "duration": 0.33380672916666754,
          "durationTicks": 94,
          "midi": 56,
          "name": "G#3",
          "ticks": 46176,
          "time": 163.977229,
          "velocity": 0.5905511811023622
        },
        {
          "duration": 0.33380672916666754,
          "durationTicks": 94,
          "midi": 63,
          "name": "D#4",
          "ticks": 46176,
          "time": 163.977229,
          "velocity": 0.5905511811023622
        },
        {
          "duration": 0.33380672916666754,
          "durationTicks": 94,
          "midi": 52,
          "name": "E3",
          "ticks": 46272,
          "time": 164.31813799999998,
          "velocity": 0.5905511811023622
        },
        {
          "duration": 0.33380672916666754,
          "durationTicks": 94,
          "midi": 56,
          "name": "G#3",
          "ticks": 46272,
          "time": 164.31813799999998,
          "velocity": 0.5905511811023622
        },
        {
          "duration": 0.33380672916666754,
          "durationTicks": 94,
          "midi": 63,
          "name": "D#4",
          "ticks": 46272,
          "time": 164.31813799999998,
          "velocity": 0.5905511811023622
        },
        {
          "duration": 0.33380672916666754,
          "durationTicks": 94,
          "midi": 52,
          "name": "E3",
          "ticks": 46368,
          "time": 164.659047,
          "velocity": 0.5905511811023622
        },
        {
          "duration": 0.33380672916666754,
          "durationTicks": 94,
          "midi": 56,
          "name": "G#3",
          "ticks": 46368,
          "time": 164.659047,
          "velocity": 0.5905511811023622
        },
        {
          "duration": 0.33380672916666754,
          "durationTicks": 94,
          "midi": 63,
          "name": "D#4",
          "ticks": 46368,
          "time": 164.659047,
          "velocity": 0.5905511811023622
        },
        {
          "duration": 0.33380672916669596,
          "durationTicks": 94,
          "midi": 52,
          "name": "E3",
          "ticks": 46464,
          "time": 164.99995599999997,
          "velocity": 0.5905511811023622
        },
        {
          "duration": 0.33380672916669596,
          "durationTicks": 94,
          "midi": 56,
          "name": "G#3",
          "ticks": 46464,
          "time": 164.99995599999997,
          "velocity": 0.5905511811023622
        },
        {
          "duration": 0.33380672916669596,
          "durationTicks": 94,
          "midi": 63,
          "name": "D#4",
          "ticks": 46464,
          "time": 164.99995599999997,
          "velocity": 0.5905511811023622
        },
        {
          "duration": 0.33380672916666754,
          "durationTicks": 94,
          "midi": 52,
          "name": "E3",
          "ticks": 46560,
          "time": 165.34086499999998,
          "velocity": 0.5905511811023622
        },
        {
          "duration": 0.33380672916666754,
          "durationTicks": 94,
          "midi": 56,
          "name": "G#3",
          "ticks": 46560,
          "time": 165.34086499999998,
          "velocity": 0.5905511811023622
        },
        {
          "duration": 0.33380672916666754,
          "durationTicks": 94,
          "midi": 63,
          "name": "D#4",
          "ticks": 46560,
          "time": 165.34086499999998,
          "velocity": 0.5905511811023622
        },
        {
          "duration": 0.33380672916666754,
          "durationTicks": 94,
          "midi": 52,
          "name": "E3",
          "ticks": 46656,
          "time": 165.681774,
          "velocity": 0.5905511811023622
        },
        {
          "duration": 0.33380672916666754,
          "durationTicks": 94,
          "midi": 56,
          "name": "G#3",
          "ticks": 46656,
          "time": 165.681774,
          "velocity": 0.5905511811023622
        },
        {
          "duration": 0.33380672916666754,
          "durationTicks": 94,
          "midi": 63,
          "name": "D#4",
          "ticks": 46656,
          "time": 165.681774,
          "velocity": 0.5905511811023622
        },
        {
          "duration": 0.33380672916669596,
          "durationTicks": 94,
          "midi": 52,
          "name": "E3",
          "ticks": 46752,
          "time": 166.02268299999997,
          "velocity": 0.5905511811023622
        },
        {
          "duration": 0.33380672916669596,
          "durationTicks": 94,
          "midi": 56,
          "name": "G#3",
          "ticks": 46752,
          "time": 166.02268299999997,
          "velocity": 0.5905511811023622
        },
        {
          "duration": 0.33380672916669596,
          "durationTicks": 94,
          "midi": 63,
          "name": "D#4",
          "ticks": 46752,
          "time": 166.02268299999997,
          "velocity": 0.5905511811023622
        },
        {
          "duration": 0.33380672916666754,
          "durationTicks": 94,
          "midi": 54,
          "name": "F#3",
          "ticks": 46848,
          "time": 166.36359199999998,
          "velocity": 0.5905511811023622
        },
        {
          "duration": 0.33380672916666754,
          "durationTicks": 94,
          "midi": 59,
          "name": "B3",
          "ticks": 46848,
          "time": 166.36359199999998,
          "velocity": 0.5905511811023622
        },
        {
          "duration": 0.33380672916666754,
          "durationTicks": 94,
          "midi": 63,
          "name": "D#4",
          "ticks": 46848,
          "time": 166.36359199999998,
          "velocity": 0.5905511811023622
        },
        {
          "duration": 0.33380672916666754,
          "durationTicks": 94,
          "midi": 54,
          "name": "F#3",
          "ticks": 46944,
          "time": 166.704501,
          "velocity": 0.5905511811023622
        },
        {
          "duration": 0.33380672916666754,
          "durationTicks": 94,
          "midi": 59,
          "name": "B3",
          "ticks": 46944,
          "time": 166.704501,
          "velocity": 0.5905511811023622
        },
        {
          "duration": 0.33380672916666754,
          "durationTicks": 94,
          "midi": 63,
          "name": "D#4",
          "ticks": 46944,
          "time": 166.704501,
          "velocity": 0.5905511811023622
        },
        {
          "duration": 0.33380672916666754,
          "durationTicks": 94,
          "midi": 54,
          "name": "F#3",
          "ticks": 47040,
          "time": 167.04540999999998,
          "velocity": 0.5905511811023622
        },
        {
          "duration": 0.33380672916666754,
          "durationTicks": 94,
          "midi": 59,
          "name": "B3",
          "ticks": 47040,
          "time": 167.04540999999998,
          "velocity": 0.5905511811023622
        },
        {
          "duration": 0.33380672916666754,
          "durationTicks": 94,
          "midi": 63,
          "name": "D#4",
          "ticks": 47040,
          "time": 167.04540999999998,
          "velocity": 0.5905511811023622
        },
        {
          "duration": 0.33380672916666754,
          "durationTicks": 94,
          "midi": 54,
          "name": "F#3",
          "ticks": 47136,
          "time": 167.386319,
          "velocity": 0.5905511811023622
        },
        {
          "duration": 0.33380672916666754,
          "durationTicks": 94,
          "midi": 59,
          "name": "B3",
          "ticks": 47136,
          "time": 167.386319,
          "velocity": 0.5905511811023622
        },
        {
          "duration": 0.33380672916666754,
          "durationTicks": 94,
          "midi": 63,
          "name": "D#4",
          "ticks": 47136,
          "time": 167.386319,
          "velocity": 0.5905511811023622
        },
        {
          "duration": 0.33380672916669596,
          "durationTicks": 94,
          "midi": 54,
          "name": "F#3",
          "ticks": 47232,
          "time": 167.72722799999997,
          "velocity": 0.5905511811023622
        },
        {
          "duration": 0.33380672916669596,
          "durationTicks": 94,
          "midi": 59,
          "name": "B3",
          "ticks": 47232,
          "time": 167.72722799999997,
          "velocity": 0.5905511811023622
        },
        {
          "duration": 0.33380672916669596,
          "durationTicks": 94,
          "midi": 63,
          "name": "D#4",
          "ticks": 47232,
          "time": 167.72722799999997,
          "velocity": 0.5905511811023622
        },
        {
          "duration": 0.33380672916666754,
          "durationTicks": 94,
          "midi": 54,
          "name": "F#3",
          "ticks": 47328,
          "time": 168.06813699999998,
          "velocity": 0.5905511811023622
        },
        {
          "duration": 0.33380672916666754,
          "durationTicks": 94,
          "midi": 59,
          "name": "B3",
          "ticks": 47328,
          "time": 168.06813699999998,
          "velocity": 0.5905511811023622
        },
        {
          "duration": 0.33380672916666754,
          "durationTicks": 94,
          "midi": 63,
          "name": "D#4",
          "ticks": 47328,
          "time": 168.06813699999998,
          "velocity": 0.5905511811023622
        },
        {
          "duration": 0.33380672916666754,
          "durationTicks": 94,
          "midi": 54,
          "name": "F#3",
          "ticks": 47424,
          "time": 168.409046,
          "velocity": 0.5905511811023622
        },
        {
          "duration": 0.33380672916666754,
          "durationTicks": 94,
          "midi": 59,
          "name": "B3",
          "ticks": 47424,
          "time": 168.409046,
          "velocity": 0.5905511811023622
        },
        {
          "duration": 0.33380672916666754,
          "durationTicks": 94,
          "midi": 63,
          "name": "D#4",
          "ticks": 47424,
          "time": 168.409046,
          "velocity": 0.5905511811023622
        },
        {
          "duration": 0.33380672916669596,
          "durationTicks": 94,
          "midi": 54,
          "name": "F#3",
          "ticks": 47520,
          "time": 168.74995499999997,
          "velocity": 0.5905511811023622
        },
        {
          "duration": 0.33380672916669596,
          "durationTicks": 94,
          "midi": 59,
          "name": "B3",
          "ticks": 47520,
          "time": 168.74995499999997,
          "velocity": 0.5905511811023622
        },
        {
          "duration": 0.33380672916669596,
          "durationTicks": 94,
          "midi": 63,
          "name": "D#4",
          "ticks": 47520,
          "time": 168.74995499999997,
          "velocity": 0.5905511811023622
        },
        {
          "duration": 0.33380672916666754,
          "durationTicks": 94,
          "midi": 54,
          "name": "F#3",
          "ticks": 47616,
          "time": 169.09086399999998,
          "velocity": 0.5905511811023622
        },
        {
          "duration": 0.33380672916666754,
          "durationTicks": 94,
          "midi": 59,
          "name": "B3",
          "ticks": 47616,
          "time": 169.09086399999998,
          "velocity": 0.5905511811023622
        },
        {
          "duration": 0.33380672916666754,
          "durationTicks": 94,
          "midi": 64,
          "name": "E4",
          "ticks": 47616,
          "time": 169.09086399999998,
          "velocity": 0.5905511811023622
        },
        {
          "duration": 0.33380672916666754,
          "durationTicks": 94,
          "midi": 54,
          "name": "F#3",
          "ticks": 47712,
          "time": 169.431773,
          "velocity": 0.5905511811023622
        },
        {
          "duration": 0.33380672916666754,
          "durationTicks": 94,
          "midi": 59,
          "name": "B3",
          "ticks": 47712,
          "time": 169.431773,
          "velocity": 0.5905511811023622
        },
        {
          "duration": 0.33380672916666754,
          "durationTicks": 94,
          "midi": 64,
          "name": "E4",
          "ticks": 47712,
          "time": 169.431773,
          "velocity": 0.5905511811023622
        },
        {
          "duration": 0.33380672916666754,
          "durationTicks": 94,
          "midi": 54,
          "name": "F#3",
          "ticks": 47808,
          "time": 169.77268199999997,
          "velocity": 0.5905511811023622
        },
        {
          "duration": 0.33380672916666754,
          "durationTicks": 94,
          "midi": 59,
          "name": "B3",
          "ticks": 47808,
          "time": 169.77268199999997,
          "velocity": 0.5905511811023622
        },
        {
          "duration": 0.33380672916666754,
          "durationTicks": 94,
          "midi": 64,
          "name": "E4",
          "ticks": 47808,
          "time": 169.77268199999997,
          "velocity": 0.5905511811023622
        },
        {
          "duration": 0.33380672916666754,
          "durationTicks": 94,
          "midi": 54,
          "name": "F#3",
          "ticks": 47904,
          "time": 170.11359099999999,
          "velocity": 0.5905511811023622
        },
        {
          "duration": 0.33380672916666754,
          "durationTicks": 94,
          "midi": 59,
          "name": "B3",
          "ticks": 47904,
          "time": 170.11359099999999,
          "velocity": 0.5905511811023622
        },
        {
          "duration": 0.33380672916666754,
          "durationTicks": 94,
          "midi": 64,
          "name": "E4",
          "ticks": 47904,
          "time": 170.11359099999999,
          "velocity": 0.5905511811023622
        },
        {
          "duration": 0.33380672916669596,
          "durationTicks": 94,
          "midi": 54,
          "name": "F#3",
          "ticks": 48000,
          "time": 170.45449999999997,
          "velocity": 0.5905511811023622
        },
        {
          "duration": 0.33380672916669596,
          "durationTicks": 94,
          "midi": 59,
          "name": "B3",
          "ticks": 48000,
          "time": 170.45449999999997,
          "velocity": 0.5905511811023622
        },
        {
          "duration": 0.33380672916669596,
          "durationTicks": 94,
          "midi": 63,
          "name": "D#4",
          "ticks": 48000,
          "time": 170.45449999999997,
          "velocity": 0.5905511811023622
        },
        {
          "duration": 0.33380672916666754,
          "durationTicks": 94,
          "midi": 54,
          "name": "F#3",
          "ticks": 48096,
          "time": 170.79540899999998,
          "velocity": 0.5905511811023622
        },
        {
          "duration": 0.33380672916666754,
          "durationTicks": 94,
          "midi": 59,
          "name": "B3",
          "ticks": 48096,
          "time": 170.79540899999998,
          "velocity": 0.5905511811023622
        },
        {
          "duration": 0.33380672916666754,
          "durationTicks": 94,
          "midi": 63,
          "name": "D#4",
          "ticks": 48096,
          "time": 170.79540899999998,
          "velocity": 0.5905511811023622
        },
        {
          "duration": 0.33380672916666754,
          "durationTicks": 94,
          "midi": 54,
          "name": "F#3",
          "ticks": 48192,
          "time": 171.136318,
          "velocity": 0.5905511811023622
        },
        {
          "duration": 0.33380672916666754,
          "durationTicks": 94,
          "midi": 59,
          "name": "B3",
          "ticks": 48192,
          "time": 171.136318,
          "velocity": 0.5905511811023622
        },
        {
          "duration": 0.33380672916666754,
          "durationTicks": 94,
          "midi": 63,
          "name": "D#4",
          "ticks": 48192,
          "time": 171.136318,
          "velocity": 0.5905511811023622
        },
        {
          "duration": 0.33380672916669596,
          "durationTicks": 94,
          "midi": 54,
          "name": "F#3",
          "ticks": 48288,
          "time": 171.47722699999997,
          "velocity": 0.5905511811023622
        },
        {
          "duration": 0.33380672916669596,
          "durationTicks": 94,
          "midi": 59,
          "name": "B3",
          "ticks": 48288,
          "time": 171.47722699999997,
          "velocity": 0.5905511811023622
        },
        {
          "duration": 0.33380672916669596,
          "durationTicks": 94,
          "midi": 63,
          "name": "D#4",
          "ticks": 48288,
          "time": 171.47722699999997,
          "velocity": 0.5905511811023622
        },
        {
          "duration": 0.33380672916666754,
          "durationTicks": 94,
          "midi": 59,
          "name": "B3",
          "ticks": 48384,
          "time": 171.81813599999998,
          "velocity": 0.5905511811023622
        },
        {
          "duration": 0.33380672916666754,
          "durationTicks": 94,
          "midi": 64,
          "name": "E4",
          "ticks": 48384,
          "time": 171.81813599999998,
          "velocity": 0.5905511811023622
        },
        {
          "duration": 0.33380672916666754,
          "durationTicks": 94,
          "midi": 68,
          "name": "G#4",
          "ticks": 48384,
          "time": 171.81813599999998,
          "velocity": 0.5905511811023622
        },
        {
          "duration": 0.33380672916666754,
          "durationTicks": 94,
          "midi": 59,
          "name": "B3",
          "ticks": 48480,
          "time": 172.159045,
          "velocity": 0.5905511811023622
        },
        {
          "duration": 0.33380672916666754,
          "durationTicks": 94,
          "midi": 64,
          "name": "E4",
          "ticks": 48480,
          "time": 172.159045,
          "velocity": 0.5905511811023622
        },
        {
          "duration": 0.33380672916666754,
          "durationTicks": 94,
          "midi": 68,
          "name": "G#4",
          "ticks": 48480,
          "time": 172.159045,
          "velocity": 0.5905511811023622
        },
        {
          "duration": 0.33380672916666754,
          "durationTicks": 94,
          "midi": 59,
          "name": "B3",
          "ticks": 48576,
          "time": 172.49995399999997,
          "velocity": 0.5905511811023622
        },
        {
          "duration": 0.33380672916666754,
          "durationTicks": 94,
          "midi": 64,
          "name": "E4",
          "ticks": 48576,
          "time": 172.49995399999997,
          "velocity": 0.5905511811023622
        },
        {
          "duration": 0.33380672916666754,
          "durationTicks": 94,
          "midi": 68,
          "name": "G#4",
          "ticks": 48576,
          "time": 172.49995399999997,
          "velocity": 0.5905511811023622
        },
        {
          "duration": 0.33380672916666754,
          "durationTicks": 94,
          "midi": 59,
          "name": "B3",
          "ticks": 48672,
          "time": 172.84086299999998,
          "velocity": 0.5905511811023622
        },
        {
          "duration": 0.33380672916666754,
          "durationTicks": 94,
          "midi": 64,
          "name": "E4",
          "ticks": 48672,
          "time": 172.84086299999998,
          "velocity": 0.5905511811023622
        },
        {
          "duration": 0.33380672916666754,
          "durationTicks": 94,
          "midi": 68,
          "name": "G#4",
          "ticks": 48672,
          "time": 172.84086299999998,
          "velocity": 0.5905511811023622
        },
        {
          "duration": 0.33380672916669596,
          "durationTicks": 94,
          "midi": 59,
          "name": "B3",
          "ticks": 48768,
          "time": 173.18177199999997,
          "velocity": 0.5905511811023622
        },
        {
          "duration": 0.33380672916669596,
          "durationTicks": 94,
          "midi": 64,
          "name": "E4",
          "ticks": 48768,
          "time": 173.18177199999997,
          "velocity": 0.5905511811023622
        },
        {
          "duration": 0.33380672916669596,
          "durationTicks": 94,
          "midi": 68,
          "name": "G#4",
          "ticks": 48768,
          "time": 173.18177199999997,
          "velocity": 0.5905511811023622
        },
        {
          "duration": 0.33380672916666754,
          "durationTicks": 94,
          "midi": 59,
          "name": "B3",
          "ticks": 48864,
          "time": 173.52268099999998,
          "velocity": 0.5905511811023622
        },
        {
          "duration": 0.33380672916666754,
          "durationTicks": 94,
          "midi": 64,
          "name": "E4",
          "ticks": 48864,
          "time": 173.52268099999998,
          "velocity": 0.5905511811023622
        },
        {
          "duration": 0.33380672916666754,
          "durationTicks": 94,
          "midi": 68,
          "name": "G#4",
          "ticks": 48864,
          "time": 173.52268099999998,
          "velocity": 0.5905511811023622
        },
        {
          "duration": 0.33380672916666754,
          "durationTicks": 94,
          "midi": 59,
          "name": "B3",
          "ticks": 48960,
          "time": 173.86359,
          "velocity": 0.5905511811023622
        },
        {
          "duration": 0.33380672916666754,
          "durationTicks": 94,
          "midi": 64,
          "name": "E4",
          "ticks": 48960,
          "time": 173.86359,
          "velocity": 0.5905511811023622
        },
        {
          "duration": 0.33380672916666754,
          "durationTicks": 94,
          "midi": 68,
          "name": "G#4",
          "ticks": 48960,
          "time": 173.86359,
          "velocity": 0.5905511811023622
        },
        {
          "duration": 0.33380672916669596,
          "durationTicks": 94,
          "midi": 59,
          "name": "B3",
          "ticks": 49056,
          "time": 174.20449899999997,
          "velocity": 0.5905511811023622
        },
        {
          "duration": 0.33380672916669596,
          "durationTicks": 94,
          "midi": 64,
          "name": "E4",
          "ticks": 49056,
          "time": 174.20449899999997,
          "velocity": 0.5905511811023622
        },
        {
          "duration": 0.33380672916669596,
          "durationTicks": 94,
          "midi": 68,
          "name": "G#4",
          "ticks": 49056,
          "time": 174.20449899999997,
          "velocity": 0.5905511811023622
        },
        {
          "duration": 0.33380672916666754,
          "durationTicks": 94,
          "midi": 56,
          "name": "G#3",
          "ticks": 49152,
          "time": 174.54540799999998,
          "velocity": 0.5905511811023622
        },
        {
          "duration": 0.33380672916666754,
          "durationTicks": 94,
          "midi": 59,
          "name": "B3",
          "ticks": 49152,
          "time": 174.54540799999998,
          "velocity": 0.5905511811023622
        },
        {
          "duration": 0.33380672916666754,
          "durationTicks": 94,
          "midi": 63,
          "name": "D#4",
          "ticks": 49152,
          "time": 174.54540799999998,
          "velocity": 0.5905511811023622
        },
        {
          "duration": 0.33380672916666754,
          "durationTicks": 94,
          "midi": 66,
          "name": "F#4",
          "ticks": 49152,
          "time": 174.54540799999998,
          "velocity": 0.5905511811023622
        },
        {
          "duration": 0.3338067291666391,
          "durationTicks": 94,
          "midi": 56,
          "name": "G#3",
          "ticks": 49248,
          "time": 174.886317,
          "velocity": 0.5905511811023622
        },
        {
          "duration": 0.3338067291666391,
          "durationTicks": 94,
          "midi": 59,
          "name": "B3",
          "ticks": 49248,
          "time": 174.886317,
          "velocity": 0.5905511811023622
        },
        {
          "duration": 0.3338067291666391,
          "durationTicks": 94,
          "midi": 63,
          "name": "D#4",
          "ticks": 49248,
          "time": 174.886317,
          "velocity": 0.5905511811023622
        },
        {
          "duration": 0.3338067291666391,
          "durationTicks": 94,
          "midi": 66,
          "name": "F#4",
          "ticks": 49248,
          "time": 174.886317,
          "velocity": 0.5905511811023622
        },
        {
          "duration": 0.33380672916666754,
          "durationTicks": 94,
          "midi": 56,
          "name": "G#3",
          "ticks": 49344,
          "time": 175.22722599999997,
          "velocity": 0.5905511811023622
        },
        {
          "duration": 0.33380672916666754,
          "durationTicks": 94,
          "midi": 59,
          "name": "B3",
          "ticks": 49344,
          "time": 175.22722599999997,
          "velocity": 0.5905511811023622
        },
        {
          "duration": 0.33380672916666754,
          "durationTicks": 94,
          "midi": 63,
          "name": "D#4",
          "ticks": 49344,
          "time": 175.22722599999997,
          "velocity": 0.5905511811023622
        },
        {
          "duration": 0.33380672916666754,
          "durationTicks": 94,
          "midi": 66,
          "name": "F#4",
          "ticks": 49344,
          "time": 175.22722599999997,
          "velocity": 0.5905511811023622
        },
        {
          "duration": 0.3338067291666391,
          "durationTicks": 94,
          "midi": 54,
          "name": "F#3",
          "ticks": 49440,
          "time": 175.56813499999998,
          "velocity": 0.5905511811023622
        },
        {
          "duration": 0.3338067291666391,
          "durationTicks": 94,
          "midi": 58,
          "name": "A#3",
          "ticks": 49440,
          "time": 175.56813499999998,
          "velocity": 0.5905511811023622
        },
        {
          "duration": 0.3338067291666391,
          "durationTicks": 94,
          "midi": 63,
          "name": "D#4",
          "ticks": 49440,
          "time": 175.56813499999998,
          "velocity": 0.5905511811023622
        },
        {
          "duration": 0.3338067291666391,
          "durationTicks": 94,
          "midi": 66,
          "name": "F#4",
          "ticks": 49440,
          "time": 175.56813499999998,
          "velocity": 0.5905511811023622
        },
        {
          "duration": 0.3338067291666391,
          "durationTicks": 94,
          "midi": 54,
          "name": "F#3",
          "ticks": 49536,
          "time": 175.909044,
          "velocity": 0.5905511811023622
        },
        {
          "duration": 0.3338067291666391,
          "durationTicks": 94,
          "midi": 58,
          "name": "A#3",
          "ticks": 49536,
          "time": 175.909044,
          "velocity": 0.5905511811023622
        },
        {
          "duration": 0.3338067291666391,
          "durationTicks": 94,
          "midi": 63,
          "name": "D#4",
          "ticks": 49536,
          "time": 175.909044,
          "velocity": 0.5905511811023622
        },
        {
          "duration": 0.3338067291666391,
          "durationTicks": 94,
          "midi": 66,
          "name": "F#4",
          "ticks": 49536,
          "time": 175.909044,
          "velocity": 0.5905511811023622
        },
        {
          "duration": 0.33380672916666754,
          "durationTicks": 94,
          "midi": 54,
          "name": "F#3",
          "ticks": 49632,
          "time": 176.24995299999998,
          "velocity": 0.5905511811023622
        },
        {
          "duration": 0.33380672916666754,
          "durationTicks": 94,
          "midi": 58,
          "name": "A#3",
          "ticks": 49632,
          "time": 176.24995299999998,
          "velocity": 0.5905511811023622
        },
        {
          "duration": 0.33380672916666754,
          "durationTicks": 94,
          "midi": 63,
          "name": "D#4",
          "ticks": 49632,
          "time": 176.24995299999998,
          "velocity": 0.5905511811023622
        },
        {
          "duration": 0.33380672916666754,
          "durationTicks": 94,
          "midi": 66,
          "name": "F#4",
          "ticks": 49632,
          "time": 176.24995299999998,
          "velocity": 0.5905511811023622
        },
        {
          "duration": 0.3338067291666391,
          "durationTicks": 94,
          "midi": 54,
          "name": "F#3",
          "ticks": 49728,
          "time": 176.590862,
          "velocity": 0.5905511811023622
        },
        {
          "duration": 0.3338067291666391,
          "durationTicks": 94,
          "midi": 58,
          "name": "A#3",
          "ticks": 49728,
          "time": 176.590862,
          "velocity": 0.5905511811023622
        },
        {
          "duration": 0.3338067291666391,
          "durationTicks": 94,
          "midi": 63,
          "name": "D#4",
          "ticks": 49728,
          "time": 176.590862,
          "velocity": 0.5905511811023622
        },
        {
          "duration": 0.3338067291666391,
          "durationTicks": 94,
          "midi": 66,
          "name": "F#4",
          "ticks": 49728,
          "time": 176.590862,
          "velocity": 0.5905511811023622
        },
        {
          "duration": 0.33380672916666754,
          "durationTicks": 94,
          "midi": 54,
          "name": "F#3",
          "ticks": 49824,
          "time": 176.93177099999997,
          "velocity": 0.5905511811023622
        },
        {
          "duration": 0.33380672916666754,
          "durationTicks": 94,
          "midi": 58,
          "name": "A#3",
          "ticks": 49824,
          "time": 176.93177099999997,
          "velocity": 0.5905511811023622
        },
        {
          "duration": 0.33380672916666754,
          "durationTicks": 94,
          "midi": 63,
          "name": "D#4",
          "ticks": 49824,
          "time": 176.93177099999997,
          "velocity": 0.5905511811023622
        },
        {
          "duration": 0.33380672916666754,
          "durationTicks": 94,
          "midi": 66,
          "name": "F#4",
          "ticks": 49824,
          "time": 176.93177099999997,
          "velocity": 0.5905511811023622
        },
        {
          "duration": 0.33380672916666754,
          "durationTicks": 94,
          "midi": 59,
          "name": "B3",
          "ticks": 49920,
          "time": 177.27267999999998,
          "velocity": 0.5905511811023622
        },
        {
          "duration": 0.33380672916666754,
          "durationTicks": 94,
          "midi": 64,
          "name": "E4",
          "ticks": 49920,
          "time": 177.27267999999998,
          "velocity": 0.5905511811023622
        },
        {
          "duration": 0.33380672916666754,
          "durationTicks": 94,
          "midi": 68,
          "name": "G#4",
          "ticks": 49920,
          "time": 177.27267999999998,
          "velocity": 0.5905511811023622
        },
        {
          "duration": 0.3338067291666391,
          "durationTicks": 94,
          "midi": 59,
          "name": "B3",
          "ticks": 50016,
          "time": 177.613589,
          "velocity": 0.5905511811023622
        },
        {
          "duration": 0.3338067291666391,
          "durationTicks": 94,
          "midi": 64,
          "name": "E4",
          "ticks": 50016,
          "time": 177.613589,
          "velocity": 0.5905511811023622
        },
        {
          "duration": 0.3338067291666391,
          "durationTicks": 94,
          "midi": 68,
          "name": "G#4",
          "ticks": 50016,
          "time": 177.613589,
          "velocity": 0.5905511811023622
        },
        {
          "duration": 0.33380672916666754,
          "durationTicks": 94,
          "midi": 59,
          "name": "B3",
          "ticks": 50112,
          "time": 177.95449799999997,
          "velocity": 0.5905511811023622
        },
        {
          "duration": 0.33380672916666754,
          "durationTicks": 94,
          "midi": 64,
          "name": "E4",
          "ticks": 50112,
          "time": 177.95449799999997,
          "velocity": 0.5905511811023622
        },
        {
          "duration": 0.33380672916666754,
          "durationTicks": 94,
          "midi": 68,
          "name": "G#4",
          "ticks": 50112,
          "time": 177.95449799999997,
          "velocity": 0.5905511811023622
        },
        {
          "duration": 0.3338067291666391,
          "durationTicks": 94,
          "midi": 59,
          "name": "B3",
          "ticks": 50208,
          "time": 178.29540699999998,
          "velocity": 0.5905511811023622
        },
        {
          "duration": 0.3338067291666391,
          "durationTicks": 94,
          "midi": 64,
          "name": "E4",
          "ticks": 50208,
          "time": 178.29540699999998,
          "velocity": 0.5905511811023622
        },
        {
          "duration": 0.3338067291666391,
          "durationTicks": 94,
          "midi": 68,
          "name": "G#4",
          "ticks": 50208,
          "time": 178.29540699999998,
          "velocity": 0.5905511811023622
        },
        {
          "duration": 0.3338067291666391,
          "durationTicks": 94,
          "midi": 59,
          "name": "B3",
          "ticks": 50304,
          "time": 178.636316,
          "velocity": 0.5905511811023622
        },
        {
          "duration": 0.3338067291666391,
          "durationTicks": 94,
          "midi": 64,
          "name": "E4",
          "ticks": 50304,
          "time": 178.636316,
          "velocity": 0.5905511811023622
        },
        {
          "duration": 0.3338067291666391,
          "durationTicks": 94,
          "midi": 68,
          "name": "G#4",
          "ticks": 50304,
          "time": 178.636316,
          "velocity": 0.5905511811023622
        },
        {
          "duration": 0.33380672916666754,
          "durationTicks": 94,
          "midi": 59,
          "name": "B3",
          "ticks": 50400,
          "time": 178.97722499999998,
          "velocity": 0.5905511811023622
        },
        {
          "duration": 0.33380672916666754,
          "durationTicks": 94,
          "midi": 64,
          "name": "E4",
          "ticks": 50400,
          "time": 178.97722499999998,
          "velocity": 0.5905511811023622
        },
        {
          "duration": 0.33380672916666754,
          "durationTicks": 94,
          "midi": 68,
          "name": "G#4",
          "ticks": 50400,
          "time": 178.97722499999998,
          "velocity": 0.5905511811023622
        },
        {
          "duration": 0.3338067291666391,
          "durationTicks": 94,
          "midi": 59,
          "name": "B3",
          "ticks": 50496,
          "time": 179.318134,
          "velocity": 0.5905511811023622
        },
        {
          "duration": 0.3338067291666391,
          "durationTicks": 94,
          "midi": 64,
          "name": "E4",
          "ticks": 50496,
          "time": 179.318134,
          "velocity": 0.5905511811023622
        },
        {
          "duration": 0.3338067291666391,
          "durationTicks": 94,
          "midi": 68,
          "name": "G#4",
          "ticks": 50496,
          "time": 179.318134,
          "velocity": 0.5905511811023622
        },
        {
          "duration": 0.33380672916666754,
          "durationTicks": 94,
          "midi": 59,
          "name": "B3",
          "ticks": 50592,
          "time": 179.65904299999997,
          "velocity": 0.5905511811023622
        },
        {
          "duration": 0.33380672916666754,
          "durationTicks": 94,
          "midi": 64,
          "name": "E4",
          "ticks": 50592,
          "time": 179.65904299999997,
          "velocity": 0.5905511811023622
        },
        {
          "duration": 0.33380672916666754,
          "durationTicks": 94,
          "midi": 68,
          "name": "G#4",
          "ticks": 50592,
          "time": 179.65904299999997,
          "velocity": 0.5905511811023622
        },
        {
          "duration": 0.33380672916666754,
          "durationTicks": 94,
          "midi": 56,
          "name": "G#3",
          "ticks": 50688,
          "time": 179.99995199999998,
          "velocity": 0.5905511811023622
        },
        {
          "duration": 0.33380672916666754,
          "durationTicks": 94,
          "midi": 59,
          "name": "B3",
          "ticks": 50688,
          "time": 179.99995199999998,
          "velocity": 0.5905511811023622
        },
        {
          "duration": 0.33380672916666754,
          "durationTicks": 94,
          "midi": 63,
          "name": "D#4",
          "ticks": 50688,
          "time": 179.99995199999998,
          "velocity": 0.5905511811023622
        },
        {
          "duration": 0.33380672916666754,
          "durationTicks": 94,
          "midi": 66,
          "name": "F#4",
          "ticks": 50688,
          "time": 179.99995199999998,
          "velocity": 0.5905511811023622
        },
        {
          "duration": 0.3338067291666391,
          "durationTicks": 94,
          "midi": 56,
          "name": "G#3",
          "ticks": 50784,
          "time": 180.340861,
          "velocity": 0.5905511811023622
        },
        {
          "duration": 0.3338067291666391,
          "durationTicks": 94,
          "midi": 59,
          "name": "B3",
          "ticks": 50784,
          "time": 180.340861,
          "velocity": 0.5905511811023622
        },
        {
          "duration": 0.3338067291666391,
          "durationTicks": 94,
          "midi": 63,
          "name": "D#4",
          "ticks": 50784,
          "time": 180.340861,
          "velocity": 0.5905511811023622
        },
        {
          "duration": 0.3338067291666391,
          "durationTicks": 94,
          "midi": 66,
          "name": "F#4",
          "ticks": 50784,
          "time": 180.340861,
          "velocity": 0.5905511811023622
        },
        {
          "duration": 0.33380672916666754,
          "durationTicks": 94,
          "midi": 56,
          "name": "G#3",
          "ticks": 50880,
          "time": 180.68176999999997,
          "velocity": 0.5905511811023622
        },
        {
          "duration": 0.33380672916666754,
          "durationTicks": 94,
          "midi": 59,
          "name": "B3",
          "ticks": 50880,
          "time": 180.68176999999997,
          "velocity": 0.5905511811023622
        },
        {
          "duration": 0.33380672916666754,
          "durationTicks": 94,
          "midi": 63,
          "name": "D#4",
          "ticks": 50880,
          "time": 180.68176999999997,
          "velocity": 0.5905511811023622
        },
        {
          "duration": 0.33380672916666754,
          "durationTicks": 94,
          "midi": 66,
          "name": "F#4",
          "ticks": 50880,
          "time": 180.68176999999997,
          "velocity": 0.5905511811023622
        },
        {
          "duration": 0.3338067291666391,
          "durationTicks": 94,
          "midi": 54,
          "name": "F#3",
          "ticks": 50976,
          "time": 181.02267899999998,
          "velocity": 0.5905511811023622
        },
        {
          "duration": 0.3338067291666391,
          "durationTicks": 94,
          "midi": 58,
          "name": "A#3",
          "ticks": 50976,
          "time": 181.02267899999998,
          "velocity": 0.5905511811023622
        },
        {
          "duration": 0.3338067291666391,
          "durationTicks": 94,
          "midi": 63,
          "name": "D#4",
          "ticks": 50976,
          "time": 181.02267899999998,
          "velocity": 0.5905511811023622
        },
        {
          "duration": 0.3338067291666391,
          "durationTicks": 94,
          "midi": 66,
          "name": "F#4",
          "ticks": 50976,
          "time": 181.02267899999998,
          "velocity": 0.5905511811023622
        },
        {
          "duration": 0.3338067291666391,
          "durationTicks": 94,
          "midi": 54,
          "name": "F#3",
          "ticks": 51072,
          "time": 181.363588,
          "velocity": 0.5905511811023622
        },
        {
          "duration": 0.3338067291666391,
          "durationTicks": 94,
          "midi": 58,
          "name": "A#3",
          "ticks": 51072,
          "time": 181.363588,
          "velocity": 0.5905511811023622
        },
        {
          "duration": 0.3338067291666391,
          "durationTicks": 94,
          "midi": 63,
          "name": "D#4",
          "ticks": 51072,
          "time": 181.363588,
          "velocity": 0.5905511811023622
        },
        {
          "duration": 0.3338067291666391,
          "durationTicks": 94,
          "midi": 66,
          "name": "F#4",
          "ticks": 51072,
          "time": 181.363588,
          "velocity": 0.5905511811023622
        },
        {
          "duration": 0.33380672916666754,
          "durationTicks": 94,
          "midi": 54,
          "name": "F#3",
          "ticks": 51168,
          "time": 181.70449699999998,
          "velocity": 0.5905511811023622
        },
        {
          "duration": 0.33380672916666754,
          "durationTicks": 94,
          "midi": 58,
          "name": "A#3",
          "ticks": 51168,
          "time": 181.70449699999998,
          "velocity": 0.5905511811023622
        },
        {
          "duration": 0.33380672916666754,
          "durationTicks": 94,
          "midi": 63,
          "name": "D#4",
          "ticks": 51168,
          "time": 181.70449699999998,
          "velocity": 0.5905511811023622
        },
        {
          "duration": 0.33380672916666754,
          "durationTicks": 94,
          "midi": 66,
          "name": "F#4",
          "ticks": 51168,
          "time": 181.70449699999998,
          "velocity": 0.5905511811023622
        },
        {
          "duration": 0.3338067291666391,
          "durationTicks": 94,
          "midi": 54,
          "name": "F#3",
          "ticks": 51264,
          "time": 182.04540599999999,
          "velocity": 0.5905511811023622
        },
        {
          "duration": 0.3338067291666391,
          "durationTicks": 94,
          "midi": 58,
          "name": "A#3",
          "ticks": 51264,
          "time": 182.04540599999999,
          "velocity": 0.5905511811023622
        },
        {
          "duration": 0.3338067291666391,
          "durationTicks": 94,
          "midi": 63,
          "name": "D#4",
          "ticks": 51264,
          "time": 182.04540599999999,
          "velocity": 0.5905511811023622
        },
        {
          "duration": 0.3338067291666391,
          "durationTicks": 94,
          "midi": 66,
          "name": "F#4",
          "ticks": 51264,
          "time": 182.04540599999999,
          "velocity": 0.5905511811023622
        },
        {
          "duration": 0.33380672916666754,
          "durationTicks": 94,
          "midi": 54,
          "name": "F#3",
          "ticks": 51360,
          "time": 182.38631499999997,
          "velocity": 0.5905511811023622
        },
        {
          "duration": 0.33380672916666754,
          "durationTicks": 94,
          "midi": 58,
          "name": "A#3",
          "ticks": 51360,
          "time": 182.38631499999997,
          "velocity": 0.5905511811023622
        },
        {
          "duration": 0.33380672916666754,
          "durationTicks": 94,
          "midi": 63,
          "name": "D#4",
          "ticks": 51360,
          "time": 182.38631499999997,
          "velocity": 0.5905511811023622
        },
        {
          "duration": 0.33380672916666754,
          "durationTicks": 94,
          "midi": 66,
          "name": "F#4",
          "ticks": 51360,
          "time": 182.38631499999997,
          "velocity": 0.5905511811023622
        },
        {
          "duration": 0.33380672916666754,
          "durationTicks": 94,
          "midi": 59,
          "name": "B3",
          "ticks": 51456,
          "time": 182.72722399999998,
          "velocity": 0.5905511811023622
        },
        {
          "duration": 0.33380672916666754,
          "durationTicks": 94,
          "midi": 64,
          "name": "E4",
          "ticks": 51456,
          "time": 182.72722399999998,
          "velocity": 0.5905511811023622
        },
        {
          "duration": 0.33380672916666754,
          "durationTicks": 94,
          "midi": 68,
          "name": "G#4",
          "ticks": 51456,
          "time": 182.72722399999998,
          "velocity": 0.5905511811023622
        },
        {
          "duration": 0.3338067291666391,
          "durationTicks": 94,
          "midi": 59,
          "name": "B3",
          "ticks": 51552,
          "time": 183.068133,
          "velocity": 0.5905511811023622
        },
        {
          "duration": 0.3338067291666391,
          "durationTicks": 94,
          "midi": 64,
          "name": "E4",
          "ticks": 51552,
          "time": 183.068133,
          "velocity": 0.5905511811023622
        },
        {
          "duration": 0.3338067291666391,
          "durationTicks": 94,
          "midi": 68,
          "name": "G#4",
          "ticks": 51552,
          "time": 183.068133,
          "velocity": 0.5905511811023622
        },
        {
          "duration": 0.33380672916666754,
          "durationTicks": 94,
          "midi": 59,
          "name": "B3",
          "ticks": 51648,
          "time": 183.40904199999997,
          "velocity": 0.5905511811023622
        },
        {
          "duration": 0.33380672916666754,
          "durationTicks": 94,
          "midi": 64,
          "name": "E4",
          "ticks": 51648,
          "time": 183.40904199999997,
          "velocity": 0.5905511811023622
        },
        {
          "duration": 0.33380672916666754,
          "durationTicks": 94,
          "midi": 68,
          "name": "G#4",
          "ticks": 51648,
          "time": 183.40904199999997,
          "velocity": 0.5905511811023622
        },
        {
          "duration": 0.3338067291666391,
          "durationTicks": 94,
          "midi": 59,
          "name": "B3",
          "ticks": 51744,
          "time": 183.74995099999998,
          "velocity": 0.5905511811023622
        },
        {
          "duration": 0.3338067291666391,
          "durationTicks": 94,
          "midi": 64,
          "name": "E4",
          "ticks": 51744,
          "time": 183.74995099999998,
          "velocity": 0.5905511811023622
        },
        {
          "duration": 0.3338067291666391,
          "durationTicks": 94,
          "midi": 68,
          "name": "G#4",
          "ticks": 51744,
          "time": 183.74995099999998,
          "velocity": 0.5905511811023622
        },
        {
          "duration": 0.3338067291666391,
          "durationTicks": 94,
          "midi": 59,
          "name": "B3",
          "ticks": 51840,
          "time": 184.09086,
          "velocity": 0.5905511811023622
        },
        {
          "duration": 0.3338067291666391,
          "durationTicks": 94,
          "midi": 64,
          "name": "E4",
          "ticks": 51840,
          "time": 184.09086,
          "velocity": 0.5905511811023622
        },
        {
          "duration": 0.3338067291666391,
          "durationTicks": 94,
          "midi": 68,
          "name": "G#4",
          "ticks": 51840,
          "time": 184.09086,
          "velocity": 0.5905511811023622
        },
        {
          "duration": 0.33380672916666754,
          "durationTicks": 94,
          "midi": 59,
          "name": "B3",
          "ticks": 51936,
          "time": 184.43176899999997,
          "velocity": 0.5905511811023622
        },
        {
          "duration": 0.33380672916666754,
          "durationTicks": 94,
          "midi": 64,
          "name": "E4",
          "ticks": 51936,
          "time": 184.43176899999997,
          "velocity": 0.5905511811023622
        },
        {
          "duration": 0.33380672916666754,
          "durationTicks": 94,
          "midi": 68,
          "name": "G#4",
          "ticks": 51936,
          "time": 184.43176899999997,
          "velocity": 0.5905511811023622
        },
        {
          "duration": 0.3338067291666391,
          "durationTicks": 94,
          "midi": 59,
          "name": "B3",
          "ticks": 52032,
          "time": 184.77267799999998,
          "velocity": 0.5905511811023622
        },
        {
          "duration": 0.3338067291666391,
          "durationTicks": 94,
          "midi": 64,
          "name": "E4",
          "ticks": 52032,
          "time": 184.77267799999998,
          "velocity": 0.5905511811023622
        },
        {
          "duration": 0.3338067291666391,
          "durationTicks": 94,
          "midi": 68,
          "name": "G#4",
          "ticks": 52032,
          "time": 184.77267799999998,
          "velocity": 0.5905511811023622
        },
        {
          "duration": 0.33380672916666754,
          "durationTicks": 94,
          "midi": 59,
          "name": "B3",
          "ticks": 52128,
          "time": 185.11358699999997,
          "velocity": 0.5905511811023622
        },
        {
          "duration": 0.33380672916666754,
          "durationTicks": 94,
          "midi": 64,
          "name": "E4",
          "ticks": 52128,
          "time": 185.11358699999997,
          "velocity": 0.5905511811023622
        },
        {
          "duration": 0.33380672916666754,
          "durationTicks": 94,
          "midi": 68,
          "name": "G#4",
          "ticks": 52128,
          "time": 185.11358699999997,
          "velocity": 0.5905511811023622
        },
        {
          "duration": 0.33380672916666754,
          "durationTicks": 94,
          "midi": 56,
          "name": "G#3",
          "ticks": 52224,
          "time": 185.45449599999998,
          "velocity": 0.5905511811023622
        },
        {
          "duration": 0.33380672916666754,
          "durationTicks": 94,
          "midi": 59,
          "name": "B3",
          "ticks": 52224,
          "time": 185.45449599999998,
          "velocity": 0.5905511811023622
        },
        {
          "duration": 0.33380672916666754,
          "durationTicks": 94,
          "midi": 63,
          "name": "D#4",
          "ticks": 52224,
          "time": 185.45449599999998,
          "velocity": 0.5905511811023622
        },
        {
          "duration": 0.33380672916666754,
          "durationTicks": 94,
          "midi": 66,
          "name": "F#4",
          "ticks": 52224,
          "time": 185.45449599999998,
          "velocity": 0.5905511811023622
        },
        {
          "duration": 0.3338067291666391,
          "durationTicks": 94,
          "midi": 56,
          "name": "G#3",
          "ticks": 52320,
          "time": 185.795405,
          "velocity": 0.5905511811023622
        },
        {
          "duration": 0.3338067291666391,
          "durationTicks": 94,
          "midi": 59,
          "name": "B3",
          "ticks": 52320,
          "time": 185.795405,
          "velocity": 0.5905511811023622
        },
        {
          "duration": 0.3338067291666391,
          "durationTicks": 94,
          "midi": 63,
          "name": "D#4",
          "ticks": 52320,
          "time": 185.795405,
          "velocity": 0.5905511811023622
        },
        {
          "duration": 0.3338067291666391,
          "durationTicks": 94,
          "midi": 66,
          "name": "F#4",
          "ticks": 52320,
          "time": 185.795405,
          "velocity": 0.5905511811023622
        },
        {
          "duration": 0.33380672916666754,
          "durationTicks": 94,
          "midi": 56,
          "name": "G#3",
          "ticks": 52416,
          "time": 186.13631399999997,
          "velocity": 0.5905511811023622
        },
        {
          "duration": 0.33380672916666754,
          "durationTicks": 94,
          "midi": 59,
          "name": "B3",
          "ticks": 52416,
          "time": 186.13631399999997,
          "velocity": 0.5905511811023622
        },
        {
          "duration": 0.33380672916666754,
          "durationTicks": 94,
          "midi": 63,
          "name": "D#4",
          "ticks": 52416,
          "time": 186.13631399999997,
          "velocity": 0.5905511811023622
        },
        {
          "duration": 0.33380672916666754,
          "durationTicks": 94,
          "midi": 66,
          "name": "F#4",
          "ticks": 52416,
          "time": 186.13631399999997,
          "velocity": 0.5905511811023622
        },
        {
          "duration": 0.3338067291666391,
          "durationTicks": 94,
          "midi": 54,
          "name": "F#3",
          "ticks": 52512,
          "time": 186.47722299999998,
          "velocity": 0.5905511811023622
        },
        {
          "duration": 0.3338067291666391,
          "durationTicks": 94,
          "midi": 58,
          "name": "A#3",
          "ticks": 52512,
          "time": 186.47722299999998,
          "velocity": 0.5905511811023622
        },
        {
          "duration": 0.3338067291666391,
          "durationTicks": 94,
          "midi": 63,
          "name": "D#4",
          "ticks": 52512,
          "time": 186.47722299999998,
          "velocity": 0.5905511811023622
        },
        {
          "duration": 0.3338067291666391,
          "durationTicks": 94,
          "midi": 66,
          "name": "F#4",
          "ticks": 52512,
          "time": 186.47722299999998,
          "velocity": 0.5905511811023622
        },
        {
          "duration": 0.3338067291666391,
          "durationTicks": 94,
          "midi": 54,
          "name": "F#3",
          "ticks": 52608,
          "time": 186.818132,
          "velocity": 0.5905511811023622
        },
        {
          "duration": 0.3338067291666391,
          "durationTicks": 94,
          "midi": 58,
          "name": "A#3",
          "ticks": 52608,
          "time": 186.818132,
          "velocity": 0.5905511811023622
        },
        {
          "duration": 0.3338067291666391,
          "durationTicks": 94,
          "midi": 63,
          "name": "D#4",
          "ticks": 52608,
          "time": 186.818132,
          "velocity": 0.5905511811023622
        },
        {
          "duration": 0.3338067291666391,
          "durationTicks": 94,
          "midi": 66,
          "name": "F#4",
          "ticks": 52608,
          "time": 186.818132,
          "velocity": 0.5905511811023622
        },
        {
          "duration": 0.33380672916666754,
          "durationTicks": 94,
          "midi": 54,
          "name": "F#3",
          "ticks": 52704,
          "time": 187.15904099999997,
          "velocity": 0.5905511811023622
        },
        {
          "duration": 0.33380672916666754,
          "durationTicks": 94,
          "midi": 58,
          "name": "A#3",
          "ticks": 52704,
          "time": 187.15904099999997,
          "velocity": 0.5905511811023622
        },
        {
          "duration": 0.33380672916666754,
          "durationTicks": 94,
          "midi": 63,
          "name": "D#4",
          "ticks": 52704,
          "time": 187.15904099999997,
          "velocity": 0.5905511811023622
        },
        {
          "duration": 0.33380672916666754,
          "durationTicks": 94,
          "midi": 66,
          "name": "F#4",
          "ticks": 52704,
          "time": 187.15904099999997,
          "velocity": 0.5905511811023622
        },
        {
          "duration": 0.3338067291666391,
          "durationTicks": 94,
          "midi": 54,
          "name": "F#3",
          "ticks": 52800,
          "time": 187.49994999999998,
          "velocity": 0.5905511811023622
        },
        {
          "duration": 0.3338067291666391,
          "durationTicks": 94,
          "midi": 58,
          "name": "A#3",
          "ticks": 52800,
          "time": 187.49994999999998,
          "velocity": 0.5905511811023622
        },
        {
          "duration": 0.3338067291666391,
          "durationTicks": 94,
          "midi": 63,
          "name": "D#4",
          "ticks": 52800,
          "time": 187.49994999999998,
          "velocity": 0.5905511811023622
        },
        {
          "duration": 0.3338067291666391,
          "durationTicks": 94,
          "midi": 66,
          "name": "F#4",
          "ticks": 52800,
          "time": 187.49994999999998,
          "velocity": 0.5905511811023622
        },
        {
          "duration": 0.33380672916666754,
          "durationTicks": 94,
          "midi": 54,
          "name": "F#3",
          "ticks": 52896,
          "time": 187.84085899999997,
          "velocity": 0.5905511811023622
        },
        {
          "duration": 0.33380672916666754,
          "durationTicks": 94,
          "midi": 58,
          "name": "A#3",
          "ticks": 52896,
          "time": 187.84085899999997,
          "velocity": 0.5905511811023622
        },
        {
          "duration": 0.33380672916666754,
          "durationTicks": 94,
          "midi": 63,
          "name": "D#4",
          "ticks": 52896,
          "time": 187.84085899999997,
          "velocity": 0.5905511811023622
        },
        {
          "duration": 0.33380672916666754,
          "durationTicks": 94,
          "midi": 66,
          "name": "F#4",
          "ticks": 52896,
          "time": 187.84085899999997,
          "velocity": 0.5905511811023622
        },
        {
          "duration": 0.5681816666666464,
          "durationTicks": 160,
          "midi": 52,
          "name": "E3",
          "ticks": 52992,
          "time": 188.18176799999998,
          "velocity": 0.5905511811023622
        },
        {
          "duration": 0.5681816666666748,
          "durationTicks": 160,
          "midi": 52,
          "name": "E3",
          "ticks": 53184,
          "time": 188.86358599999997,
          "velocity": 0.5905511811023622
        },
        {
          "duration": 0.5681816666666748,
          "durationTicks": 160,
          "midi": 56,
          "name": "G#3",
          "ticks": 53184,
          "time": 188.86358599999997,
          "velocity": 0.5905511811023622
        },
        {
          "duration": 0.5681816666666748,
          "durationTicks": 160,
          "midi": 59,
          "name": "B3",
          "ticks": 53184,
          "time": 188.86358599999997,
          "velocity": 0.5905511811023622
        },
        {
          "duration": 0.5681816666666748,
          "durationTicks": 160,
          "midi": 63,
          "name": "D#4",
          "ticks": 53184,
          "time": 188.86358599999997,
          "velocity": 0.5905511811023622
        },
        {
          "duration": 0.3338067291666391,
          "durationTicks": 94,
          "midi": 52,
          "name": "E3",
          "ticks": 53376,
          "time": 189.545404,
          "velocity": 0.5905511811023622
        },
        {
          "duration": 0.33380672916666754,
          "durationTicks": 94,
          "midi": 52,
          "name": "E3",
          "ticks": 53472,
          "time": 189.88631299999997,
          "velocity": 0.5905511811023622
        },
        {
          "duration": 0.33380672916666754,
          "durationTicks": 94,
          "midi": 56,
          "name": "G#3",
          "ticks": 53472,
          "time": 189.88631299999997,
          "velocity": 0.5905511811023622
        },
        {
          "duration": 0.33380672916666754,
          "durationTicks": 94,
          "midi": 59,
          "name": "B3",
          "ticks": 53472,
          "time": 189.88631299999997,
          "velocity": 0.5905511811023622
        },
        {
          "duration": 0.33380672916666754,
          "durationTicks": 94,
          "midi": 63,
          "name": "D#4",
          "ticks": 53472,
          "time": 189.88631299999997,
          "velocity": 0.5905511811023622
        },
        {
          "duration": 0.3338067291666391,
          "durationTicks": 94,
          "midi": 52,
          "name": "E3",
          "ticks": 53568,
          "time": 190.22722199999998,
          "velocity": 0.5905511811023622
        },
        {
          "duration": 0.3338067291666391,
          "durationTicks": 94,
          "midi": 56,
          "name": "G#3",
          "ticks": 53568,
          "time": 190.22722199999998,
          "velocity": 0.5905511811023622
        },
        {
          "duration": 0.3338067291666391,
          "durationTicks": 94,
          "midi": 59,
          "name": "B3",
          "ticks": 53568,
          "time": 190.22722199999998,
          "velocity": 0.5905511811023622
        },
        {
          "duration": 0.3338067291666391,
          "durationTicks": 94,
          "midi": 63,
          "name": "D#4",
          "ticks": 53568,
          "time": 190.22722199999998,
          "velocity": 0.5905511811023622
        },
        {
          "duration": 0.16335222916666226,
          "durationTicks": 46,
          "midi": 52,
          "name": "E3",
          "ticks": 53664,
          "time": 190.56813099999997,
          "velocity": 0.5905511811023622
        },
        {
          "duration": 0.16335222916666226,
          "durationTicks": 46,
          "midi": 56,
          "name": "G#3",
          "ticks": 53712,
          "time": 190.73858549999997,
          "velocity": 0.5905511811023622
        },
        {
          "duration": 0.16335222916666226,
          "durationTicks": 46,
          "midi": 59,
          "name": "B3",
          "ticks": 53712,
          "time": 190.73858549999997,
          "velocity": 0.5905511811023622
        },
        {
          "duration": 0.16335222916666226,
          "durationTicks": 46,
          "midi": 63,
          "name": "D#4",
          "ticks": 53712,
          "time": 190.73858549999997,
          "velocity": 0.5905511811023622
        },
        {
          "duration": 2.556817499999994,
          "durationTicks": 720,
          "midi": 52,
          "name": "E3",
          "ticks": 53760,
          "time": 190.90903999999998,
          "velocity": 0.5905511811023622
        },
        {
          "duration": 2.556817499999994,
          "durationTicks": 720,
          "midi": 56,
          "name": "G#3",
          "ticks": 53760,
          "time": 190.90903999999998,
          "velocity": 0.5905511811023622
        },
        {
          "duration": 2.556817499999994,
          "durationTicks": 720,
          "midi": 59,
          "name": "B3",
          "ticks": 53760,
          "time": 190.90903999999998,
          "velocity": 0.5905511811023622
        },
        {
          "duration": 2.556817499999994,
          "durationTicks": 720,
          "midi": 63,
          "name": "D#4",
          "ticks": 53760,
          "time": 190.90903999999998,
          "velocity": 0.5905511811023622
        },
        {
          "duration": 0.33380672916666754,
          "durationTicks": 94,
          "midi": 54,
          "name": "F#3",
          "ticks": 54528,
          "time": 193.63631199999998,
          "velocity": 0.5905511811023622
        },
        {
          "duration": 0.33380672916666754,
          "durationTicks": 94,
          "midi": 59,
          "name": "B3",
          "ticks": 54528,
          "time": 193.63631199999998,
          "velocity": 0.5905511811023622
        },
        {
          "duration": 0.33380672916666754,
          "durationTicks": 94,
          "midi": 63,
          "name": "D#4",
          "ticks": 54528,
          "time": 193.63631199999998,
          "velocity": 0.5905511811023622
        },
        {
          "duration": 0.3338067291666391,
          "durationTicks": 94,
          "midi": 54,
          "name": "F#3",
          "ticks": 54624,
          "time": 193.977221,
          "velocity": 0.5905511811023622
        },
        {
          "duration": 0.3338067291666391,
          "durationTicks": 94,
          "midi": 59,
          "name": "B3",
          "ticks": 54624,
          "time": 193.977221,
          "velocity": 0.5905511811023622
        },
        {
          "duration": 0.3338067291666391,
          "durationTicks": 94,
          "midi": 63,
          "name": "D#4",
          "ticks": 54624,
          "time": 193.977221,
          "velocity": 0.5905511811023622
        },
        {
          "duration": 0.33380672916666754,
          "durationTicks": 94,
          "midi": 54,
          "name": "F#3",
          "ticks": 54720,
          "time": 194.31812999999997,
          "velocity": 0.5905511811023622
        },
        {
          "duration": 0.33380672916666754,
          "durationTicks": 94,
          "midi": 59,
          "name": "B3",
          "ticks": 54720,
          "time": 194.31812999999997,
          "velocity": 0.5905511811023622
        },
        {
          "duration": 0.33380672916666754,
          "durationTicks": 94,
          "midi": 63,
          "name": "D#4",
          "ticks": 54720,
          "time": 194.31812999999997,
          "velocity": 0.5905511811023622
        },
        {
          "duration": 0.6747157291666497,
          "durationTicks": 190,
          "midi": 54,
          "name": "F#3",
          "ticks": 54816,
          "time": 194.65903899999998,
          "velocity": 0.5905511811023622
        },
        {
          "duration": 0.6747157291666497,
          "durationTicks": 190,
          "midi": 59,
          "name": "B3",
          "ticks": 54816,
          "time": 194.65903899999998,
          "velocity": 0.5905511811023622
        },
        {
          "duration": 0.6747157291666497,
          "durationTicks": 190,
          "midi": 63,
          "name": "D#4",
          "ticks": 54816,
          "time": 194.65903899999998,
          "velocity": 0.5905511811023622
        },
        {
          "duration": 0.33380672916666754,
          "durationTicks": 94,
          "midi": 54,
          "name": "F#3",
          "ticks": 55008,
          "time": 195.34085699999997,
          "velocity": 0.5905511811023622
        },
        {
          "duration": 0.33380672916666754,
          "durationTicks": 94,
          "midi": 59,
          "name": "B3",
          "ticks": 55008,
          "time": 195.34085699999997,
          "velocity": 0.5905511811023622
        },
        {
          "duration": 0.33380672916666754,
          "durationTicks": 94,
          "midi": 63,
          "name": "D#4",
          "ticks": 55008,
          "time": 195.34085699999997,
          "velocity": 0.5905511811023622
        },
        {
          "duration": 0.3338067291666391,
          "durationTicks": 94,
          "midi": 54,
          "name": "F#3",
          "ticks": 55104,
          "time": 195.68176599999998,
          "velocity": 0.5905511811023622
        },
        {
          "duration": 0.3338067291666391,
          "durationTicks": 94,
          "midi": 59,
          "name": "B3",
          "ticks": 55104,
          "time": 195.68176599999998,
          "velocity": 0.5905511811023622
        },
        {
          "duration": 0.3338067291666391,
          "durationTicks": 94,
          "midi": 63,
          "name": "D#4",
          "ticks": 55104,
          "time": 195.68176599999998,
          "velocity": 0.5905511811023622
        },
        {
          "duration": 0.33380672916666754,
          "durationTicks": 94,
          "midi": 54,
          "name": "F#3",
          "ticks": 55200,
          "time": 196.02267499999996,
          "velocity": 0.5905511811023622
        },
        {
          "duration": 0.33380672916666754,
          "durationTicks": 94,
          "midi": 59,
          "name": "B3",
          "ticks": 55200,
          "time": 196.02267499999996,
          "velocity": 0.5905511811023622
        },
        {
          "duration": 0.33380672916666754,
          "durationTicks": 94,
          "midi": 63,
          "name": "D#4",
          "ticks": 55200,
          "time": 196.02267499999996,
          "velocity": 0.5905511811023622
        },
        {
          "duration": 0.33380672916666754,
          "durationTicks": 94,
          "midi": 54,
          "name": "F#3",
          "ticks": 55296,
          "time": 196.36358399999997,
          "velocity": 0.5905511811023622
        },
        {
          "duration": 0.33380672916666754,
          "durationTicks": 94,
          "midi": 59,
          "name": "B3",
          "ticks": 55296,
          "time": 196.36358399999997,
          "velocity": 0.5905511811023622
        },
        {
          "duration": 0.33380672916666754,
          "durationTicks": 94,
          "midi": 63,
          "name": "D#4",
          "ticks": 55296,
          "time": 196.36358399999997,
          "velocity": 0.5905511811023622
        },
        {
          "duration": 0.3338067291666391,
          "durationTicks": 94,
          "midi": 54,
          "name": "F#3",
          "ticks": 55392,
          "time": 196.70449299999999,
          "velocity": 0.5905511811023622
        },
        {
          "duration": 0.3338067291666391,
          "durationTicks": 94,
          "midi": 59,
          "name": "B3",
          "ticks": 55392,
          "time": 196.70449299999999,
          "velocity": 0.5905511811023622
        },
        {
          "duration": 0.3338067291666391,
          "durationTicks": 94,
          "midi": 63,
          "name": "D#4",
          "ticks": 55392,
          "time": 196.70449299999999,
          "velocity": 0.5905511811023622
        },
        {
          "duration": 0.33380672916666754,
          "durationTicks": 94,
          "midi": 54,
          "name": "F#3",
          "ticks": 55488,
          "time": 197.04540199999997,
          "velocity": 0.5905511811023622
        },
        {
          "duration": 0.33380672916666754,
          "durationTicks": 94,
          "midi": 59,
          "name": "B3",
          "ticks": 55488,
          "time": 197.04540199999997,
          "velocity": 0.5905511811023622
        },
        {
          "duration": 0.33380672916666754,
          "durationTicks": 94,
          "midi": 63,
          "name": "D#4",
          "ticks": 55488,
          "time": 197.04540199999997,
          "velocity": 0.5905511811023622
        },
        {
          "duration": 0.6747157291666497,
          "durationTicks": 190,
          "midi": 54,
          "name": "F#3",
          "ticks": 55584,
          "time": 197.38631099999998,
          "velocity": 0.5905511811023622
        },
        {
          "duration": 0.6747157291666497,
          "durationTicks": 190,
          "midi": 59,
          "name": "B3",
          "ticks": 55584,
          "time": 197.38631099999998,
          "velocity": 0.5905511811023622
        },
        {
          "duration": 0.6747157291666497,
          "durationTicks": 190,
          "midi": 63,
          "name": "D#4",
          "ticks": 55584,
          "time": 197.38631099999998,
          "velocity": 0.5905511811023622
        },
        {
          "duration": 0.33380672916666754,
          "durationTicks": 94,
          "midi": 54,
          "name": "F#3",
          "ticks": 55776,
          "time": 198.06812899999997,
          "velocity": 0.5905511811023622
        },
        {
          "duration": 0.33380672916666754,
          "durationTicks": 94,
          "midi": 59,
          "name": "B3",
          "ticks": 55776,
          "time": 198.06812899999997,
          "velocity": 0.5905511811023622
        },
        {
          "duration": 0.33380672916666754,
          "durationTicks": 94,
          "midi": 63,
          "name": "D#4",
          "ticks": 55776,
          "time": 198.06812899999997,
          "velocity": 0.5905511811023622
        },
        {
          "duration": 0.3338067291666391,
          "durationTicks": 94,
          "midi": 54,
          "name": "F#3",
          "ticks": 55872,
          "time": 198.40903799999998,
          "velocity": 0.5905511811023622
        },
        {
          "duration": 0.3338067291666391,
          "durationTicks": 94,
          "midi": 59,
          "name": "B3",
          "ticks": 55872,
          "time": 198.40903799999998,
          "velocity": 0.5905511811023622
        },
        {
          "duration": 0.3338067291666391,
          "durationTicks": 94,
          "midi": 63,
          "name": "D#4",
          "ticks": 55872,
          "time": 198.40903799999998,
          "velocity": 0.5905511811023622
        },
        {
          "duration": 0.3338067291666391,
          "durationTicks": 94,
          "midi": 54,
          "name": "F#3",
          "ticks": 55968,
          "time": 198.749947,
          "velocity": 0.5905511811023622
        },
        {
          "duration": 0.3338067291666391,
          "durationTicks": 94,
          "midi": 59,
          "name": "B3",
          "ticks": 55968,
          "time": 198.749947,
          "velocity": 0.5905511811023622
        },
        {
          "duration": 0.3338067291666391,
          "durationTicks": 94,
          "midi": 63,
          "name": "D#4",
          "ticks": 55968,
          "time": 198.749947,
          "velocity": 0.5905511811023622
        },
        {
          "duration": 0.33380672916666754,
          "durationTicks": 94,
          "midi": 54,
          "name": "F#3",
          "ticks": 56064,
          "time": 199.09085599999997,
          "velocity": 0.5905511811023622
        },
        {
          "duration": 0.33380672916666754,
          "durationTicks": 94,
          "midi": 58,
          "name": "A#3",
          "ticks": 56064,
          "time": 199.09085599999997,
          "velocity": 0.5905511811023622
        },
        {
          "duration": 0.33380672916666754,
          "durationTicks": 94,
          "midi": 61,
          "name": "C#4",
          "ticks": 56064,
          "time": 199.09085599999997,
          "velocity": 0.5905511811023622
        },
        {
          "duration": 0.33380672916666754,
          "durationTicks": 94,
          "midi": 66,
          "name": "F#4",
          "ticks": 56064,
          "time": 199.09085599999997,
          "velocity": 0.5905511811023622
        },
        {
          "duration": 0.3338067291666391,
          "durationTicks": 94,
          "midi": 54,
          "name": "F#3",
          "ticks": 56160,
          "time": 199.43176499999998,
          "velocity": 0.5905511811023622
        },
        {
          "duration": 0.3338067291666391,
          "durationTicks": 94,
          "midi": 58,
          "name": "A#3",
          "ticks": 56160,
          "time": 199.43176499999998,
          "velocity": 0.5905511811023622
        },
        {
          "duration": 0.3338067291666391,
          "durationTicks": 94,
          "midi": 61,
          "name": "C#4",
          "ticks": 56160,
          "time": 199.43176499999998,
          "velocity": 0.5905511811023622
        },
        {
          "duration": 0.3338067291666391,
          "durationTicks": 94,
          "midi": 66,
          "name": "F#4",
          "ticks": 56160,
          "time": 199.43176499999998,
          "velocity": 0.5905511811023622
        },
        {
          "duration": 0.33380672916666754,
          "durationTicks": 94,
          "midi": 54,
          "name": "F#3",
          "ticks": 56256,
          "time": 199.77267399999997,
          "velocity": 0.5905511811023622
        },
        {
          "duration": 0.33380672916666754,
          "durationTicks": 94,
          "midi": 58,
          "name": "A#3",
          "ticks": 56256,
          "time": 199.77267399999997,
          "velocity": 0.5905511811023622
        },
        {
          "duration": 0.33380672916666754,
          "durationTicks": 94,
          "midi": 61,
          "name": "C#4",
          "ticks": 56256,
          "time": 199.77267399999997,
          "velocity": 0.5905511811023622
        },
        {
          "duration": 0.33380672916666754,
          "durationTicks": 94,
          "midi": 66,
          "name": "F#4",
          "ticks": 56256,
          "time": 199.77267399999997,
          "velocity": 0.5905511811023622
        },
        {
          "duration": 0.6747157291666497,
          "durationTicks": 190,
          "midi": 54,
          "name": "F#3",
          "ticks": 56352,
          "time": 200.11358299999998,
          "velocity": 0.5905511811023622
        },
        {
          "duration": 0.6747157291666497,
          "durationTicks": 190,
          "midi": 58,
          "name": "A#3",
          "ticks": 56352,
          "time": 200.11358299999998,
          "velocity": 0.5905511811023622
        },
        {
          "duration": 0.6747157291666497,
          "durationTicks": 190,
          "midi": 61,
          "name": "C#4",
          "ticks": 56352,
          "time": 200.11358299999998,
          "velocity": 0.5905511811023622
        },
        {
          "duration": 0.6747157291666497,
          "durationTicks": 190,
          "midi": 66,
          "name": "F#4",
          "ticks": 56352,
          "time": 200.11358299999998,
          "velocity": 0.5905511811023622
        },
        {
          "duration": 0.33380672916666754,
          "durationTicks": 94,
          "midi": 54,
          "name": "F#3",
          "ticks": 56544,
          "time": 200.79540099999997,
          "velocity": 0.5905511811023622
        },
        {
          "duration": 0.33380672916666754,
          "durationTicks": 94,
          "midi": 58,
          "name": "A#3",
          "ticks": 56544,
          "time": 200.79540099999997,
          "velocity": 0.5905511811023622
        },
        {
          "duration": 0.33380672916666754,
          "durationTicks": 94,
          "midi": 61,
          "name": "C#4",
          "ticks": 56544,
          "time": 200.79540099999997,
          "velocity": 0.5905511811023622
        },
        {
          "duration": 0.33380672916666754,
          "durationTicks": 94,
          "midi": 66,
          "name": "F#4",
          "ticks": 56544,
          "time": 200.79540099999997,
          "velocity": 0.5905511811023622
        },
        {
          "duration": 0.3338067291666391,
          "durationTicks": 94,
          "midi": 54,
          "name": "F#3",
          "ticks": 56640,
          "time": 201.13630999999998,
          "velocity": 0.5905511811023622
        },
        {
          "duration": 0.3338067291666391,
          "durationTicks": 94,
          "midi": 58,
          "name": "A#3",
          "ticks": 56640,
          "time": 201.13630999999998,
          "velocity": 0.5905511811023622
        },
        {
          "duration": 0.3338067291666391,
          "durationTicks": 94,
          "midi": 61,
          "name": "C#4",
          "ticks": 56640,
          "time": 201.13630999999998,
          "velocity": 0.5905511811023622
        },
        {
          "duration": 0.3338067291666391,
          "durationTicks": 94,
          "midi": 66,
          "name": "F#4",
          "ticks": 56640,
          "time": 201.13630999999998,
          "velocity": 0.5905511811023622
        },
        {
          "duration": 0.3338067291666391,
          "durationTicks": 94,
          "midi": 54,
          "name": "F#3",
          "ticks": 56736,
          "time": 201.477219,
          "velocity": 0.5905511811023622
        },
        {
          "duration": 0.3338067291666391,
          "durationTicks": 94,
          "midi": 58,
          "name": "A#3",
          "ticks": 56736,
          "time": 201.477219,
          "velocity": 0.5905511811023622
        },
        {
          "duration": 0.3338067291666391,
          "durationTicks": 94,
          "midi": 61,
          "name": "C#4",
          "ticks": 56736,
          "time": 201.477219,
          "velocity": 0.5905511811023622
        },
        {
          "duration": 0.3338067291666391,
          "durationTicks": 94,
          "midi": 66,
          "name": "F#4",
          "ticks": 56736,
          "time": 201.477219,
          "velocity": 0.5905511811023622
        },
        {
          "duration": 0.33380672916666754,
          "durationTicks": 94,
          "midi": 54,
          "name": "F#3",
          "ticks": 56832,
          "time": 201.81812799999997,
          "velocity": 0.5905511811023622
        },
        {
          "duration": 0.33380672916666754,
          "durationTicks": 94,
          "midi": 58,
          "name": "A#3",
          "ticks": 56832,
          "time": 201.81812799999997,
          "velocity": 0.5905511811023622
        },
        {
          "duration": 0.33380672916666754,
          "durationTicks": 94,
          "midi": 61,
          "name": "C#4",
          "ticks": 56832,
          "time": 201.81812799999997,
          "velocity": 0.5905511811023622
        },
        {
          "duration": 0.33380672916666754,
          "durationTicks": 94,
          "midi": 66,
          "name": "F#4",
          "ticks": 56832,
          "time": 201.81812799999997,
          "velocity": 0.5905511811023622
        },
        {
          "duration": 0.3338067291666391,
          "durationTicks": 94,
          "midi": 54,
          "name": "F#3",
          "ticks": 56928,
          "time": 202.15903699999998,
          "velocity": 0.5905511811023622
        },
        {
          "duration": 0.3338067291666391,
          "durationTicks": 94,
          "midi": 58,
          "name": "A#3",
          "ticks": 56928,
          "time": 202.15903699999998,
          "velocity": 0.5905511811023622
        },
        {
          "duration": 0.3338067291666391,
          "durationTicks": 94,
          "midi": 61,
          "name": "C#4",
          "ticks": 56928,
          "time": 202.15903699999998,
          "velocity": 0.5905511811023622
        },
        {
          "duration": 0.3338067291666391,
          "durationTicks": 94,
          "midi": 66,
          "name": "F#4",
          "ticks": 56928,
          "time": 202.15903699999998,
          "velocity": 0.5905511811023622
        },
        {
          "duration": 0.33380672916666754,
          "durationTicks": 94,
          "midi": 54,
          "name": "F#3",
          "ticks": 57024,
          "time": 202.49994599999997,
          "velocity": 0.5905511811023622
        },
        {
          "duration": 0.33380672916666754,
          "durationTicks": 94,
          "midi": 58,
          "name": "A#3",
          "ticks": 57024,
          "time": 202.49994599999997,
          "velocity": 0.5905511811023622
        },
        {
          "duration": 0.33380672916666754,
          "durationTicks": 94,
          "midi": 61,
          "name": "C#4",
          "ticks": 57024,
          "time": 202.49994599999997,
          "velocity": 0.5905511811023622
        },
        {
          "duration": 0.33380672916666754,
          "durationTicks": 94,
          "midi": 66,
          "name": "F#4",
          "ticks": 57024,
          "time": 202.49994599999997,
          "velocity": 0.5905511811023622
        },
        {
          "duration": 0.6747157291666497,
          "durationTicks": 190,
          "midi": 54,
          "name": "F#3",
          "ticks": 57120,
          "time": 202.84085499999998,
          "velocity": 0.5905511811023622
        },
        {
          "duration": 0.6747157291666497,
          "durationTicks": 190,
          "midi": 58,
          "name": "A#3",
          "ticks": 57120,
          "time": 202.84085499999998,
          "velocity": 0.5905511811023622
        },
        {
          "duration": 0.6747157291666497,
          "durationTicks": 190,
          "midi": 61,
          "name": "C#4",
          "ticks": 57120,
          "time": 202.84085499999998,
          "velocity": 0.5905511811023622
        },
        {
          "duration": 0.6747157291666497,
          "durationTicks": 190,
          "midi": 66,
          "name": "F#4",
          "ticks": 57120,
          "time": 202.84085499999998,
          "velocity": 0.5905511811023622
        },
        {
          "duration": 0.33380672916666754,
          "durationTicks": 94,
          "midi": 54,
          "name": "F#3",
          "ticks": 57312,
          "time": 203.52267299999997,
          "velocity": 0.5905511811023622
        },
        {
          "duration": 0.33380672916666754,
          "durationTicks": 94,
          "midi": 58,
          "name": "A#3",
          "ticks": 57312,
          "time": 203.52267299999997,
          "velocity": 0.5905511811023622
        },
        {
          "duration": 0.33380672916666754,
          "durationTicks": 94,
          "midi": 61,
          "name": "C#4",
          "ticks": 57312,
          "time": 203.52267299999997,
          "velocity": 0.5905511811023622
        },
        {
          "duration": 0.33380672916666754,
          "durationTicks": 94,
          "midi": 66,
          "name": "F#4",
          "ticks": 57312,
          "time": 203.52267299999997,
          "velocity": 0.5905511811023622
        },
        {
          "duration": 0.3338067291666391,
          "durationTicks": 94,
          "midi": 54,
          "name": "F#3",
          "ticks": 57408,
          "time": 203.86358199999998,
          "velocity": 0.5905511811023622
        },
        {
          "duration": 0.3338067291666391,
          "durationTicks": 94,
          "midi": 58,
          "name": "A#3",
          "ticks": 57408,
          "time": 203.86358199999998,
          "velocity": 0.5905511811023622
        },
        {
          "duration": 0.3338067291666391,
          "durationTicks": 94,
          "midi": 61,
          "name": "C#4",
          "ticks": 57408,
          "time": 203.86358199999998,
          "velocity": 0.5905511811023622
        },
        {
          "duration": 0.3338067291666391,
          "durationTicks": 94,
          "midi": 66,
          "name": "F#4",
          "ticks": 57408,
          "time": 203.86358199999998,
          "velocity": 0.5905511811023622
        },
        {
          "duration": 0.3338067291666391,
          "durationTicks": 94,
          "midi": 54,
          "name": "F#3",
          "ticks": 57504,
          "time": 204.204491,
          "velocity": 0.5905511811023622
        },
        {
          "duration": 0.3338067291666391,
          "durationTicks": 94,
          "midi": 58,
          "name": "A#3",
          "ticks": 57504,
          "time": 204.204491,
          "velocity": 0.5905511811023622
        },
        {
          "duration": 0.3338067291666391,
          "durationTicks": 94,
          "midi": 61,
          "name": "C#4",
          "ticks": 57504,
          "time": 204.204491,
          "velocity": 0.5905511811023622
        },
        {
          "duration": 0.3338067291666391,
          "durationTicks": 94,
          "midi": 66,
          "name": "F#4",
          "ticks": 57504,
          "time": 204.204491,
          "velocity": 0.5905511811023622
        },
        {
          "duration": 0.33380672916666754,
          "durationTicks": 94,
          "midi": 52,
          "name": "E3",
          "ticks": 57600,
          "time": 204.54539999999997,
          "velocity": 0.5905511811023622
        },
        {
          "duration": 0.33380672916666754,
          "durationTicks": 94,
          "midi": 56,
          "name": "G#3",
          "ticks": 57600,
          "time": 204.54539999999997,
          "velocity": 0.5905511811023622
        },
        {
          "duration": 0.33380672916666754,
          "durationTicks": 94,
          "midi": 59,
          "name": "B3",
          "ticks": 57600,
          "time": 204.54539999999997,
          "velocity": 0.5905511811023622
        },
        {
          "duration": 0.33380672916666754,
          "durationTicks": 94,
          "midi": 64,
          "name": "E4",
          "ticks": 57600,
          "time": 204.54539999999997,
          "velocity": 0.5905511811023622
        },
        {
          "duration": 0.3338067291666391,
          "durationTicks": 94,
          "midi": 52,
          "name": "E3",
          "ticks": 57696,
          "time": 204.88630899999998,
          "velocity": 0.5905511811023622
        },
        {
          "duration": 0.3338067291666391,
          "durationTicks": 94,
          "midi": 56,
          "name": "G#3",
          "ticks": 57696,
          "time": 204.88630899999998,
          "velocity": 0.5905511811023622
        },
        {
          "duration": 0.3338067291666391,
          "durationTicks": 94,
          "midi": 59,
          "name": "B3",
          "ticks": 57696,
          "time": 204.88630899999998,
          "velocity": 0.5905511811023622
        },
        {
          "duration": 0.3338067291666391,
          "durationTicks": 94,
          "midi": 64,
          "name": "E4",
          "ticks": 57696,
          "time": 204.88630899999998,
          "velocity": 0.5905511811023622
        },
        {
          "duration": 0.33380672916666754,
          "durationTicks": 94,
          "midi": 52,
          "name": "E3",
          "ticks": 57792,
          "time": 205.22721799999997,
          "velocity": 0.5905511811023622
        },
        {
          "duration": 0.33380672916666754,
          "durationTicks": 94,
          "midi": 56,
          "name": "G#3",
          "ticks": 57792,
          "time": 205.22721799999997,
          "velocity": 0.5905511811023622
        },
        {
          "duration": 0.33380672916666754,
          "durationTicks": 94,
          "midi": 59,
          "name": "B3",
          "ticks": 57792,
          "time": 205.22721799999997,
          "velocity": 0.5905511811023622
        },
        {
          "duration": 0.33380672916666754,
          "durationTicks": 94,
          "midi": 64,
          "name": "E4",
          "ticks": 57792,
          "time": 205.22721799999997,
          "velocity": 0.5905511811023622
        },
        {
          "duration": 0.6747157291666497,
          "durationTicks": 190,
          "midi": 52,
          "name": "E3",
          "ticks": 57888,
          "time": 205.56812699999998,
          "velocity": 0.5905511811023622
        },
        {
          "duration": 0.6747157291666497,
          "durationTicks": 190,
          "midi": 56,
          "name": "G#3",
          "ticks": 57888,
          "time": 205.56812699999998,
          "velocity": 0.5905511811023622
        },
        {
          "duration": 0.6747157291666497,
          "durationTicks": 190,
          "midi": 59,
          "name": "B3",
          "ticks": 57888,
          "time": 205.56812699999998,
          "velocity": 0.5905511811023622
        },
        {
          "duration": 0.6747157291666497,
          "durationTicks": 190,
          "midi": 64,
          "name": "E4",
          "ticks": 57888,
          "time": 205.56812699999998,
          "velocity": 0.5905511811023622
        },
        {
          "duration": 0.33380672916666754,
          "durationTicks": 94,
          "midi": 52,
          "name": "E3",
          "ticks": 58080,
          "time": 206.24994499999997,
          "velocity": 0.5905511811023622
        },
        {
          "duration": 0.33380672916666754,
          "durationTicks": 94,
          "midi": 56,
          "name": "G#3",
          "ticks": 58080,
          "time": 206.24994499999997,
          "velocity": 0.5905511811023622
        },
        {
          "duration": 0.33380672916666754,
          "durationTicks": 94,
          "midi": 59,
          "name": "B3",
          "ticks": 58080,
          "time": 206.24994499999997,
          "velocity": 0.5905511811023622
        },
        {
          "duration": 0.33380672916666754,
          "durationTicks": 94,
          "midi": 64,
          "name": "E4",
          "ticks": 58080,
          "time": 206.24994499999997,
          "velocity": 0.5905511811023622
        },
        {
          "duration": 0.3338067291666391,
          "durationTicks": 94,
          "midi": 52,
          "name": "E3",
          "ticks": 58176,
          "time": 206.59085399999998,
          "velocity": 0.5905511811023622
        },
        {
          "duration": 0.3338067291666391,
          "durationTicks": 94,
          "midi": 56,
          "name": "G#3",
          "ticks": 58176,
          "time": 206.59085399999998,
          "velocity": 0.5905511811023622
        },
        {
          "duration": 0.3338067291666391,
          "durationTicks": 94,
          "midi": 59,
          "name": "B3",
          "ticks": 58176,
          "time": 206.59085399999998,
          "velocity": 0.5905511811023622
        },
        {
          "duration": 0.3338067291666391,
          "durationTicks": 94,
          "midi": 64,
          "name": "E4",
          "ticks": 58176,
          "time": 206.59085399999998,
          "velocity": 0.5905511811023622
        },
        {
          "duration": 0.3338067291666391,
          "durationTicks": 94,
          "midi": 52,
          "name": "E3",
          "ticks": 58272,
          "time": 206.931763,
          "velocity": 0.5905511811023622
        },
        {
          "duration": 0.3338067291666391,
          "durationTicks": 94,
          "midi": 56,
          "name": "G#3",
          "ticks": 58272,
          "time": 206.931763,
          "velocity": 0.5905511811023622
        },
        {
          "duration": 0.3338067291666391,
          "durationTicks": 94,
          "midi": 59,
          "name": "B3",
          "ticks": 58272,
          "time": 206.931763,
          "velocity": 0.5905511811023622
        },
        {
          "duration": 0.3338067291666391,
          "durationTicks": 94,
          "midi": 64,
          "name": "E4",
          "ticks": 58272,
          "time": 206.931763,
          "velocity": 0.5905511811023622
        },
        {
          "duration": 0.33380672916666754,
          "durationTicks": 94,
          "midi": 52,
          "name": "E3",
          "ticks": 58368,
          "time": 207.27267199999997,
          "velocity": 0.5905511811023622
        },
        {
          "duration": 0.33380672916666754,
          "durationTicks": 94,
          "midi": 56,
          "name": "G#3",
          "ticks": 58368,
          "time": 207.27267199999997,
          "velocity": 0.5905511811023622
        },
        {
          "duration": 0.33380672916666754,
          "durationTicks": 94,
          "midi": 59,
          "name": "B3",
          "ticks": 58368,
          "time": 207.27267199999997,
          "velocity": 0.5905511811023622
        },
        {
          "duration": 0.33380672916666754,
          "durationTicks": 94,
          "midi": 64,
          "name": "E4",
          "ticks": 58368,
          "time": 207.27267199999997,
          "velocity": 0.5905511811023622
        },
        {
          "duration": 0.3338067291666391,
          "durationTicks": 94,
          "midi": 52,
          "name": "E3",
          "ticks": 58464,
          "time": 207.61358099999998,
          "velocity": 0.5905511811023622
        },
        {
          "duration": 0.3338067291666391,
          "durationTicks": 94,
          "midi": 56,
          "name": "G#3",
          "ticks": 58464,
          "time": 207.61358099999998,
          "velocity": 0.5905511811023622
        },
        {
          "duration": 0.3338067291666391,
          "durationTicks": 94,
          "midi": 59,
          "name": "B3",
          "ticks": 58464,
          "time": 207.61358099999998,
          "velocity": 0.5905511811023622
        },
        {
          "duration": 0.3338067291666391,
          "durationTicks": 94,
          "midi": 64,
          "name": "E4",
          "ticks": 58464,
          "time": 207.61358099999998,
          "velocity": 0.5905511811023622
        },
        {
          "duration": 0.33380672916666754,
          "durationTicks": 94,
          "midi": 52,
          "name": "E3",
          "ticks": 58560,
          "time": 207.95448999999996,
          "velocity": 0.5905511811023622
        },
        {
          "duration": 0.33380672916666754,
          "durationTicks": 94,
          "midi": 56,
          "name": "G#3",
          "ticks": 58560,
          "time": 207.95448999999996,
          "velocity": 0.5905511811023622
        },
        {
          "duration": 0.33380672916666754,
          "durationTicks": 94,
          "midi": 59,
          "name": "B3",
          "ticks": 58560,
          "time": 207.95448999999996,
          "velocity": 0.5905511811023622
        },
        {
          "duration": 0.33380672916666754,
          "durationTicks": 94,
          "midi": 64,
          "name": "E4",
          "ticks": 58560,
          "time": 207.95448999999996,
          "velocity": 0.5905511811023622
        },
        {
          "duration": 0.6747157291666497,
          "durationTicks": 190,
          "midi": 52,
          "name": "E3",
          "ticks": 58656,
          "time": 208.29539899999997,
          "velocity": 0.5905511811023622
        },
        {
          "duration": 0.6747157291666497,
          "durationTicks": 190,
          "midi": 56,
          "name": "G#3",
          "ticks": 58656,
          "time": 208.29539899999997,
          "velocity": 0.5905511811023622
        },
        {
          "duration": 0.6747157291666497,
          "durationTicks": 190,
          "midi": 59,
          "name": "B3",
          "ticks": 58656,
          "time": 208.29539899999997,
          "velocity": 0.5905511811023622
        },
        {
          "duration": 0.6747157291666497,
          "durationTicks": 190,
          "midi": 64,
          "name": "E4",
          "ticks": 58656,
          "time": 208.29539899999997,
          "velocity": 0.5905511811023622
        },
        {
          "duration": 0.33380672916666754,
          "durationTicks": 94,
          "midi": 52,
          "name": "E3",
          "ticks": 58848,
          "time": 208.97721699999997,
          "velocity": 0.5905511811023622
        },
        {
          "duration": 0.33380672916666754,
          "durationTicks": 94,
          "midi": 56,
          "name": "G#3",
          "ticks": 58848,
          "time": 208.97721699999997,
          "velocity": 0.5905511811023622
        },
        {
          "duration": 0.33380672916666754,
          "durationTicks": 94,
          "midi": 59,
          "name": "B3",
          "ticks": 58848,
          "time": 208.97721699999997,
          "velocity": 0.5905511811023622
        },
        {
          "duration": 0.33380672916666754,
          "durationTicks": 94,
          "midi": 64,
          "name": "E4",
          "ticks": 58848,
          "time": 208.97721699999997,
          "velocity": 0.5905511811023622
        },
        {
          "duration": 0.3338067291666391,
          "durationTicks": 94,
          "midi": 52,
          "name": "E3",
          "ticks": 58944,
          "time": 209.31812599999998,
          "velocity": 0.5905511811023622
        },
        {
          "duration": 0.3338067291666391,
          "durationTicks": 94,
          "midi": 56,
          "name": "G#3",
          "ticks": 58944,
          "time": 209.31812599999998,
          "velocity": 0.5905511811023622
        },
        {
          "duration": 0.3338067291666391,
          "durationTicks": 94,
          "midi": 59,
          "name": "B3",
          "ticks": 58944,
          "time": 209.31812599999998,
          "velocity": 0.5905511811023622
        },
        {
          "duration": 0.3338067291666391,
          "durationTicks": 94,
          "midi": 64,
          "name": "E4",
          "ticks": 58944,
          "time": 209.31812599999998,
          "velocity": 0.5905511811023622
        },
        {
          "duration": 0.3338067291666391,
          "durationTicks": 94,
          "midi": 52,
          "name": "E3",
          "ticks": 59040,
          "time": 209.659035,
          "velocity": 0.5905511811023622
        },
        {
          "duration": 0.3338067291666391,
          "durationTicks": 94,
          "midi": 56,
          "name": "G#3",
          "ticks": 59040,
          "time": 209.659035,
          "velocity": 0.5905511811023622
        },
        {
          "duration": 0.3338067291666391,
          "durationTicks": 94,
          "midi": 59,
          "name": "B3",
          "ticks": 59040,
          "time": 209.659035,
          "velocity": 0.5905511811023622
        },
        {
          "duration": 0.3338067291666391,
          "durationTicks": 94,
          "midi": 64,
          "name": "E4",
          "ticks": 59040,
          "time": 209.659035,
          "velocity": 0.5905511811023622
        },
        {
          "duration": 0.33380672916666754,
          "durationTicks": 94,
          "midi": 54,
          "name": "F#3",
          "ticks": 59136,
          "time": 209.99994399999997,
          "velocity": 0.5905511811023622
        },
        {
          "duration": 0.33380672916666754,
          "durationTicks": 94,
          "midi": 59,
          "name": "B3",
          "ticks": 59136,
          "time": 209.99994399999997,
          "velocity": 0.5905511811023622
        },
        {
          "duration": 0.33380672916666754,
          "durationTicks": 94,
          "midi": 63,
          "name": "D#4",
          "ticks": 59136,
          "time": 209.99994399999997,
          "velocity": 0.5905511811023622
        },
        {
          "duration": 0.3338067291666391,
          "durationTicks": 94,
          "midi": 54,
          "name": "F#3",
          "ticks": 59232,
          "time": 210.34085299999998,
          "velocity": 0.5905511811023622
        },
        {
          "duration": 0.3338067291666391,
          "durationTicks": 94,
          "midi": 59,
          "name": "B3",
          "ticks": 59232,
          "time": 210.34085299999998,
          "velocity": 0.5905511811023622
        },
        {
          "duration": 0.3338067291666391,
          "durationTicks": 94,
          "midi": 63,
          "name": "D#4",
          "ticks": 59232,
          "time": 210.34085299999998,
          "velocity": 0.5905511811023622
        },
        {
          "duration": 0.33380672916666754,
          "durationTicks": 94,
          "midi": 54,
          "name": "F#3",
          "ticks": 59328,
          "time": 210.68176199999996,
          "velocity": 0.5905511811023622
        },
        {
          "duration": 0.33380672916666754,
          "durationTicks": 94,
          "midi": 59,
          "name": "B3",
          "ticks": 59328,
          "time": 210.68176199999996,
          "velocity": 0.5905511811023622
        },
        {
          "duration": 0.33380672916666754,
          "durationTicks": 94,
          "midi": 63,
          "name": "D#4",
          "ticks": 59328,
          "time": 210.68176199999996,
          "velocity": 0.5905511811023622
        },
        {
          "duration": 0.6747157291666497,
          "durationTicks": 190,
          "midi": 54,
          "name": "F#3",
          "ticks": 59424,
          "time": 211.02267099999997,
          "velocity": 0.5905511811023622
        },
        {
          "duration": 0.6747157291666497,
          "durationTicks": 190,
          "midi": 59,
          "name": "B3",
          "ticks": 59424,
          "time": 211.02267099999997,
          "velocity": 0.5905511811023622
        },
        {
          "duration": 0.6747157291666497,
          "durationTicks": 190,
          "midi": 63,
          "name": "D#4",
          "ticks": 59424,
          "time": 211.02267099999997,
          "velocity": 0.5905511811023622
        },
        {
          "duration": 0.33380672916666754,
          "durationTicks": 94,
          "midi": 54,
          "name": "F#3",
          "ticks": 59616,
          "time": 211.70448899999997,
          "velocity": 0.5905511811023622
        },
        {
          "duration": 0.33380672916666754,
          "durationTicks": 94,
          "midi": 59,
          "name": "B3",
          "ticks": 59616,
          "time": 211.70448899999997,
          "velocity": 0.5905511811023622
        },
        {
          "duration": 0.33380672916666754,
          "durationTicks": 94,
          "midi": 63,
          "name": "D#4",
          "ticks": 59616,
          "time": 211.70448899999997,
          "velocity": 0.5905511811023622
        },
        {
          "duration": 0.3338067291666391,
          "durationTicks": 94,
          "midi": 54,
          "name": "F#3",
          "ticks": 59712,
          "time": 212.04539799999998,
          "velocity": 0.5905511811023622
        },
        {
          "duration": 0.3338067291666391,
          "durationTicks": 94,
          "midi": 59,
          "name": "B3",
          "ticks": 59712,
          "time": 212.04539799999998,
          "velocity": 0.5905511811023622
        },
        {
          "duration": 0.3338067291666391,
          "durationTicks": 94,
          "midi": 63,
          "name": "D#4",
          "ticks": 59712,
          "time": 212.04539799999998,
          "velocity": 0.5905511811023622
        },
        {
          "duration": 0.3338067291666391,
          "durationTicks": 94,
          "midi": 54,
          "name": "F#3",
          "ticks": 59808,
          "time": 212.386307,
          "velocity": 0.5905511811023622
        },
        {
          "duration": 0.3338067291666391,
          "durationTicks": 94,
          "midi": 59,
          "name": "B3",
          "ticks": 59808,
          "time": 212.386307,
          "velocity": 0.5905511811023622
        },
        {
          "duration": 0.3338067291666391,
          "durationTicks": 94,
          "midi": 63,
          "name": "D#4",
          "ticks": 59808,
          "time": 212.386307,
          "velocity": 0.5905511811023622
        },
        {
          "duration": 0.33380672916666754,
          "durationTicks": 94,
          "midi": 54,
          "name": "F#3",
          "ticks": 59904,
          "time": 212.72721599999997,
          "velocity": 0.5905511811023622
        },
        {
          "duration": 0.33380672916666754,
          "durationTicks": 94,
          "midi": 59,
          "name": "B3",
          "ticks": 59904,
          "time": 212.72721599999997,
          "velocity": 0.5905511811023622
        },
        {
          "duration": 0.33380672916666754,
          "durationTicks": 94,
          "midi": 63,
          "name": "D#4",
          "ticks": 59904,
          "time": 212.72721599999997,
          "velocity": 0.5905511811023622
        },
        {
          "duration": 0.3338067291666391,
          "durationTicks": 94,
          "midi": 54,
          "name": "F#3",
          "ticks": 60000,
          "time": 213.06812499999998,
          "velocity": 0.5905511811023622
        },
        {
          "duration": 0.3338067291666391,
          "durationTicks": 94,
          "midi": 59,
          "name": "B3",
          "ticks": 60000,
          "time": 213.06812499999998,
          "velocity": 0.5905511811023622
        },
        {
          "duration": 0.3338067291666391,
          "durationTicks": 94,
          "midi": 63,
          "name": "D#4",
          "ticks": 60000,
          "time": 213.06812499999998,
          "velocity": 0.5905511811023622
        },
        {
          "duration": 0.33380672916666754,
          "durationTicks": 94,
          "midi": 54,
          "name": "F#3",
          "ticks": 60096,
          "time": 213.40903399999996,
          "velocity": 0.5905511811023622
        },
        {
          "duration": 0.33380672916666754,
          "durationTicks": 94,
          "midi": 59,
          "name": "B3",
          "ticks": 60096,
          "time": 213.40903399999996,
          "velocity": 0.5905511811023622
        },
        {
          "duration": 0.33380672916666754,
          "durationTicks": 94,
          "midi": 63,
          "name": "D#4",
          "ticks": 60096,
          "time": 213.40903399999996,
          "velocity": 0.5905511811023622
        },
        {
          "duration": 0.6747157291666497,
          "durationTicks": 190,
          "midi": 54,
          "name": "F#3",
          "ticks": 60192,
          "time": 213.74994299999997,
          "velocity": 0.5905511811023622
        },
        {
          "duration": 0.6747157291666497,
          "durationTicks": 190,
          "midi": 59,
          "name": "B3",
          "ticks": 60192,
          "time": 213.74994299999997,
          "velocity": 0.5905511811023622
        },
        {
          "duration": 0.6747157291666497,
          "durationTicks": 190,
          "midi": 63,
          "name": "D#4",
          "ticks": 60192,
          "time": 213.74994299999997,
          "velocity": 0.5905511811023622
        },
        {
          "duration": 0.33380672916666754,
          "durationTicks": 94,
          "midi": 54,
          "name": "F#3",
          "ticks": 60384,
          "time": 214.43176099999997,
          "velocity": 0.5905511811023622
        },
        {
          "duration": 0.33380672916666754,
          "durationTicks": 94,
          "midi": 59,
          "name": "B3",
          "ticks": 60384,
          "time": 214.43176099999997,
          "velocity": 0.5905511811023622
        },
        {
          "duration": 0.33380672916666754,
          "durationTicks": 94,
          "midi": 63,
          "name": "D#4",
          "ticks": 60384,
          "time": 214.43176099999997,
          "velocity": 0.5905511811023622
        },
        {
          "duration": 0.3338067291666391,
          "durationTicks": 94,
          "midi": 54,
          "name": "F#3",
          "ticks": 60480,
          "time": 214.77266999999998,
          "velocity": 0.5905511811023622
        },
        {
          "duration": 0.3338067291666391,
          "durationTicks": 94,
          "midi": 59,
          "name": "B3",
          "ticks": 60480,
          "time": 214.77266999999998,
          "velocity": 0.5905511811023622
        },
        {
          "duration": 0.3338067291666391,
          "durationTicks": 94,
          "midi": 63,
          "name": "D#4",
          "ticks": 60480,
          "time": 214.77266999999998,
          "velocity": 0.5905511811023622
        },
        {
          "duration": 0.3338067291666391,
          "durationTicks": 94,
          "midi": 54,
          "name": "F#3",
          "ticks": 60576,
          "time": 215.113579,
          "velocity": 0.5905511811023622
        },
        {
          "duration": 0.3338067291666391,
          "durationTicks": 94,
          "midi": 59,
          "name": "B3",
          "ticks": 60576,
          "time": 215.113579,
          "velocity": 0.5905511811023622
        },
        {
          "duration": 0.3338067291666391,
          "durationTicks": 94,
          "midi": 63,
          "name": "D#4",
          "ticks": 60576,
          "time": 215.113579,
          "velocity": 0.5905511811023622
        },
        {
          "duration": 0.33380672916666754,
          "durationTicks": 94,
          "midi": 54,
          "name": "F#3",
          "ticks": 60672,
          "time": 215.45448799999997,
          "velocity": 0.5905511811023622
        },
        {
          "duration": 0.33380672916666754,
          "durationTicks": 94,
          "midi": 59,
          "name": "B3",
          "ticks": 60672,
          "time": 215.45448799999997,
          "velocity": 0.5905511811023622
        },
        {
          "duration": 0.33380672916666754,
          "durationTicks": 94,
          "midi": 63,
          "name": "D#4",
          "ticks": 60672,
          "time": 215.45448799999997,
          "velocity": 0.5905511811023622
        },
        {
          "duration": 0.3338067291666391,
          "durationTicks": 94,
          "midi": 54,
          "name": "F#3",
          "ticks": 60768,
          "time": 215.79539699999998,
          "velocity": 0.5905511811023622
        },
        {
          "duration": 0.3338067291666391,
          "durationTicks": 94,
          "midi": 59,
          "name": "B3",
          "ticks": 60768,
          "time": 215.79539699999998,
          "velocity": 0.5905511811023622
        },
        {
          "duration": 0.3338067291666391,
          "durationTicks": 94,
          "midi": 63,
          "name": "D#4",
          "ticks": 60768,
          "time": 215.79539699999998,
          "velocity": 0.5905511811023622
        },
        {
          "duration": 0.33380672916666754,
          "durationTicks": 94,
          "midi": 54,
          "name": "F#3",
          "ticks": 60864,
          "time": 216.13630599999996,
          "velocity": 0.5905511811023622
        },
        {
          "duration": 0.33380672916666754,
          "durationTicks": 94,
          "midi": 59,
          "name": "B3",
          "ticks": 60864,
          "time": 216.13630599999996,
          "velocity": 0.5905511811023622
        },
        {
          "duration": 0.33380672916666754,
          "durationTicks": 94,
          "midi": 63,
          "name": "D#4",
          "ticks": 60864,
          "time": 216.13630599999996,
          "velocity": 0.5905511811023622
        },
        {
          "duration": 0.6747157291666497,
          "durationTicks": 190,
          "midi": 54,
          "name": "F#3",
          "ticks": 60960,
          "time": 216.47721499999997,
          "velocity": 0.5905511811023622
        },
        {
          "duration": 0.6747157291666497,
          "durationTicks": 190,
          "midi": 59,
          "name": "B3",
          "ticks": 60960,
          "time": 216.47721499999997,
          "velocity": 0.5905511811023622
        },
        {
          "duration": 0.6747157291666497,
          "durationTicks": 190,
          "midi": 63,
          "name": "D#4",
          "ticks": 60960,
          "time": 216.47721499999997,
          "velocity": 0.5905511811023622
        },
        {
          "duration": 0.33380672916666754,
          "durationTicks": 94,
          "midi": 54,
          "name": "F#3",
          "ticks": 61152,
          "time": 217.15903299999997,
          "velocity": 0.5905511811023622
        },
        {
          "duration": 0.33380672916666754,
          "durationTicks": 94,
          "midi": 59,
          "name": "B3",
          "ticks": 61152,
          "time": 217.15903299999997,
          "velocity": 0.5905511811023622
        },
        {
          "duration": 0.33380672916666754,
          "durationTicks": 94,
          "midi": 63,
          "name": "D#4",
          "ticks": 61152,
          "time": 217.15903299999997,
          "velocity": 0.5905511811023622
        },
        {
          "duration": 0.33380672916666754,
          "durationTicks": 94,
          "midi": 54,
          "name": "F#3",
          "ticks": 61248,
          "time": 217.49994199999998,
          "velocity": 0.5905511811023622
        },
        {
          "duration": 0.33380672916666754,
          "durationTicks": 94,
          "midi": 59,
          "name": "B3",
          "ticks": 61248,
          "time": 217.49994199999998,
          "velocity": 0.5905511811023622
        },
        {
          "duration": 0.33380672916666754,
          "durationTicks": 94,
          "midi": 63,
          "name": "D#4",
          "ticks": 61248,
          "time": 217.49994199999998,
          "velocity": 0.5905511811023622
        },
        {
          "duration": 0.3338067291666391,
          "durationTicks": 94,
          "midi": 54,
          "name": "F#3",
          "ticks": 61344,
          "time": 217.840851,
          "velocity": 0.5905511811023622
        },
        {
          "duration": 0.3338067291666391,
          "durationTicks": 94,
          "midi": 59,
          "name": "B3",
          "ticks": 61344,
          "time": 217.840851,
          "velocity": 0.5905511811023622
        },
        {
          "duration": 0.3338067291666391,
          "durationTicks": 94,
          "midi": 63,
          "name": "D#4",
          "ticks": 61344,
          "time": 217.840851,
          "velocity": 0.5905511811023622
        },
        {
          "duration": 0.33380672916666754,
          "durationTicks": 94,
          "midi": 54,
          "name": "F#3",
          "ticks": 61440,
          "time": 218.18175999999997,
          "velocity": 0.5905511811023622
        },
        {
          "duration": 0.33380672916666754,
          "durationTicks": 94,
          "midi": 59,
          "name": "B3",
          "ticks": 61440,
          "time": 218.18175999999997,
          "velocity": 0.5905511811023622
        },
        {
          "duration": 0.33380672916666754,
          "durationTicks": 94,
          "midi": 63,
          "name": "D#4",
          "ticks": 61440,
          "time": 218.18175999999997,
          "velocity": 0.5905511811023622
        },
        {
          "duration": 0.3338067291666391,
          "durationTicks": 94,
          "midi": 54,
          "name": "F#3",
          "ticks": 61536,
          "time": 218.52266899999998,
          "velocity": 0.5905511811023622
        },
        {
          "duration": 0.3338067291666391,
          "durationTicks": 94,
          "midi": 59,
          "name": "B3",
          "ticks": 61536,
          "time": 218.52266899999998,
          "velocity": 0.5905511811023622
        },
        {
          "duration": 0.3338067291666391,
          "durationTicks": 94,
          "midi": 63,
          "name": "D#4",
          "ticks": 61536,
          "time": 218.52266899999998,
          "velocity": 0.5905511811023622
        },
        {
          "duration": 0.3338067291666391,
          "durationTicks": 94,
          "midi": 54,
          "name": "F#3",
          "ticks": 61632,
          "time": 218.863578,
          "velocity": 0.5905511811023622
        },
        {
          "duration": 0.3338067291666391,
          "durationTicks": 94,
          "midi": 59,
          "name": "B3",
          "ticks": 61632,
          "time": 218.863578,
          "velocity": 0.5905511811023622
        },
        {
          "duration": 0.3338067291666391,
          "durationTicks": 94,
          "midi": 63,
          "name": "D#4",
          "ticks": 61632,
          "time": 218.863578,
          "velocity": 0.5905511811023622
        },
        {
          "duration": 0.6747157291666497,
          "durationTicks": 190,
          "midi": 54,
          "name": "F#3",
          "ticks": 61728,
          "time": 219.20448699999997,
          "velocity": 0.5905511811023622
        },
        {
          "duration": 0.6747157291666497,
          "durationTicks": 190,
          "midi": 59,
          "name": "B3",
          "ticks": 61728,
          "time": 219.20448699999997,
          "velocity": 0.5905511811023622
        },
        {
          "duration": 0.6747157291666497,
          "durationTicks": 190,
          "midi": 63,
          "name": "D#4",
          "ticks": 61728,
          "time": 219.20448699999997,
          "velocity": 0.5905511811023622
        },
        {
          "duration": 0.33380672916666754,
          "durationTicks": 94,
          "midi": 54,
          "name": "F#3",
          "ticks": 61920,
          "time": 219.88630499999996,
          "velocity": 0.5905511811023622
        },
        {
          "duration": 0.33380672916666754,
          "durationTicks": 94,
          "midi": 59,
          "name": "B3",
          "ticks": 61920,
          "time": 219.88630499999996,
          "velocity": 0.5905511811023622
        },
        {
          "duration": 0.33380672916666754,
          "durationTicks": 94,
          "midi": 63,
          "name": "D#4",
          "ticks": 61920,
          "time": 219.88630499999996,
          "velocity": 0.5905511811023622
        },
        {
          "duration": 0.33380672916666754,
          "durationTicks": 94,
          "midi": 54,
          "name": "F#3",
          "ticks": 62016,
          "time": 220.22721399999998,
          "velocity": 0.5905511811023622
        },
        {
          "duration": 0.33380672916666754,
          "durationTicks": 94,
          "midi": 59,
          "name": "B3",
          "ticks": 62016,
          "time": 220.22721399999998,
          "velocity": 0.5905511811023622
        },
        {
          "duration": 0.33380672916666754,
          "durationTicks": 94,
          "midi": 63,
          "name": "D#4",
          "ticks": 62016,
          "time": 220.22721399999998,
          "velocity": 0.5905511811023622
        },
        {
          "duration": 0.3338067291666391,
          "durationTicks": 94,
          "midi": 54,
          "name": "F#3",
          "ticks": 62112,
          "time": 220.56812299999999,
          "velocity": 0.5905511811023622
        },
        {
          "duration": 0.3338067291666391,
          "durationTicks": 94,
          "midi": 59,
          "name": "B3",
          "ticks": 62112,
          "time": 220.56812299999999,
          "velocity": 0.5905511811023622
        },
        {
          "duration": 0.3338067291666391,
          "durationTicks": 94,
          "midi": 63,
          "name": "D#4",
          "ticks": 62112,
          "time": 220.56812299999999,
          "velocity": 0.5905511811023622
        },
        {
          "duration": 0.33380672916666754,
          "durationTicks": 94,
          "midi": 54,
          "name": "F#3",
          "ticks": 62208,
          "time": 220.90903199999997,
          "velocity": 0.5905511811023622
        },
        {
          "duration": 0.33380672916666754,
          "durationTicks": 94,
          "midi": 58,
          "name": "A#3",
          "ticks": 62208,
          "time": 220.90903199999997,
          "velocity": 0.5905511811023622
        },
        {
          "duration": 0.33380672916666754,
          "durationTicks": 94,
          "midi": 61,
          "name": "C#4",
          "ticks": 62208,
          "time": 220.90903199999997,
          "velocity": 0.5905511811023622
        },
        {
          "duration": 0.33380672916666754,
          "durationTicks": 94,
          "midi": 66,
          "name": "F#4",
          "ticks": 62208,
          "time": 220.90903199999997,
          "velocity": 0.5905511811023622
        },
        {
          "duration": 0.3338067291666391,
          "durationTicks": 94,
          "midi": 54,
          "name": "F#3",
          "ticks": 62304,
          "time": 221.24994099999998,
          "velocity": 0.5905511811023622
        },
        {
          "duration": 0.3338067291666391,
          "durationTicks": 94,
          "midi": 58,
          "name": "A#3",
          "ticks": 62304,
          "time": 221.24994099999998,
          "velocity": 0.5905511811023622
        },
        {
          "duration": 0.3338067291666391,
          "durationTicks": 94,
          "midi": 61,
          "name": "C#4",
          "ticks": 62304,
          "time": 221.24994099999998,
          "velocity": 0.5905511811023622
        },
        {
          "duration": 0.3338067291666391,
          "durationTicks": 94,
          "midi": 66,
          "name": "F#4",
          "ticks": 62304,
          "time": 221.24994099999998,
          "velocity": 0.5905511811023622
        },
        {
          "duration": 0.3338067291666391,
          "durationTicks": 94,
          "midi": 54,
          "name": "F#3",
          "ticks": 62400,
          "time": 221.59085,
          "velocity": 0.5905511811023622
        },
        {
          "duration": 0.3338067291666391,
          "durationTicks": 94,
          "midi": 58,
          "name": "A#3",
          "ticks": 62400,
          "time": 221.59085,
          "velocity": 0.5905511811023622
        },
        {
          "duration": 0.3338067291666391,
          "durationTicks": 94,
          "midi": 61,
          "name": "C#4",
          "ticks": 62400,
          "time": 221.59085,
          "velocity": 0.5905511811023622
        },
        {
          "duration": 0.3338067291666391,
          "durationTicks": 94,
          "midi": 66,
          "name": "F#4",
          "ticks": 62400,
          "time": 221.59085,
          "velocity": 0.5905511811023622
        },
        {
          "duration": 0.6747157291666497,
          "durationTicks": 190,
          "midi": 54,
          "name": "F#3",
          "ticks": 62496,
          "time": 221.93175899999997,
          "velocity": 0.5905511811023622
        },
        {
          "duration": 0.6747157291666497,
          "durationTicks": 190,
          "midi": 58,
          "name": "A#3",
          "ticks": 62496,
          "time": 221.93175899999997,
          "velocity": 0.5905511811023622
        },
        {
          "duration": 0.6747157291666497,
          "durationTicks": 190,
          "midi": 61,
          "name": "C#4",
          "ticks": 62496,
          "time": 221.93175899999997,
          "velocity": 0.5905511811023622
        },
        {
          "duration": 0.6747157291666497,
          "durationTicks": 190,
          "midi": 66,
          "name": "F#4",
          "ticks": 62496,
          "time": 221.93175899999997,
          "velocity": 0.5905511811023622
        },
        {
          "duration": 0.33380672916666754,
          "durationTicks": 94,
          "midi": 54,
          "name": "F#3",
          "ticks": 62688,
          "time": 222.61357699999996,
          "velocity": 0.5905511811023622
        },
        {
          "duration": 0.33380672916666754,
          "durationTicks": 94,
          "midi": 58,
          "name": "A#3",
          "ticks": 62688,
          "time": 222.61357699999996,
          "velocity": 0.5905511811023622
        },
        {
          "duration": 0.33380672916666754,
          "durationTicks": 94,
          "midi": 61,
          "name": "C#4",
          "ticks": 62688,
          "time": 222.61357699999996,
          "velocity": 0.5905511811023622
        },
        {
          "duration": 0.33380672916666754,
          "durationTicks": 94,
          "midi": 66,
          "name": "F#4",
          "ticks": 62688,
          "time": 222.61357699999996,
          "velocity": 0.5905511811023622
        },
        {
          "duration": 0.33380672916666754,
          "durationTicks": 94,
          "midi": 54,
          "name": "F#3",
          "ticks": 62784,
          "time": 222.95448599999997,
          "velocity": 0.5905511811023622
        },
        {
          "duration": 0.33380672916666754,
          "durationTicks": 94,
          "midi": 58,
          "name": "A#3",
          "ticks": 62784,
          "time": 222.95448599999997,
          "velocity": 0.5905511811023622
        },
        {
          "duration": 0.33380672916666754,
          "durationTicks": 94,
          "midi": 61,
          "name": "C#4",
          "ticks": 62784,
          "time": 222.95448599999997,
          "velocity": 0.5905511811023622
        },
        {
          "duration": 0.33380672916666754,
          "durationTicks": 94,
          "midi": 66,
          "name": "F#4",
          "ticks": 62784,
          "time": 222.95448599999997,
          "velocity": 0.5905511811023622
        },
        {
          "duration": 0.3338067291666391,
          "durationTicks": 94,
          "midi": 54,
          "name": "F#3",
          "ticks": 62880,
          "time": 223.29539499999998,
          "velocity": 0.5905511811023622
        },
        {
          "duration": 0.3338067291666391,
          "durationTicks": 94,
          "midi": 58,
          "name": "A#3",
          "ticks": 62880,
          "time": 223.29539499999998,
          "velocity": 0.5905511811023622
        },
        {
          "duration": 0.3338067291666391,
          "durationTicks": 94,
          "midi": 61,
          "name": "C#4",
          "ticks": 62880,
          "time": 223.29539499999998,
          "velocity": 0.5905511811023622
        },
        {
          "duration": 0.3338067291666391,
          "durationTicks": 94,
          "midi": 66,
          "name": "F#4",
          "ticks": 62880,
          "time": 223.29539499999998,
          "velocity": 0.5905511811023622
        },
        {
          "duration": 0.33380672916666754,
          "durationTicks": 94,
          "midi": 54,
          "name": "F#3",
          "ticks": 62976,
          "time": 223.63630399999997,
          "velocity": 0.5905511811023622
        },
        {
          "duration": 0.33380672916666754,
          "durationTicks": 94,
          "midi": 58,
          "name": "A#3",
          "ticks": 62976,
          "time": 223.63630399999997,
          "velocity": 0.5905511811023622
        },
        {
          "duration": 0.33380672916666754,
          "durationTicks": 94,
          "midi": 61,
          "name": "C#4",
          "ticks": 62976,
          "time": 223.63630399999997,
          "velocity": 0.5905511811023622
        },
        {
          "duration": 0.33380672916666754,
          "durationTicks": 94,
          "midi": 66,
          "name": "F#4",
          "ticks": 62976,
          "time": 223.63630399999997,
          "velocity": 0.5905511811023622
        },
        {
          "duration": 0.3338067291666391,
          "durationTicks": 94,
          "midi": 54,
          "name": "F#3",
          "ticks": 63072,
          "time": 223.97721299999998,
          "velocity": 0.5905511811023622
        },
        {
          "duration": 0.3338067291666391,
          "durationTicks": 94,
          "midi": 58,
          "name": "A#3",
          "ticks": 63072,
          "time": 223.97721299999998,
          "velocity": 0.5905511811023622
        },
        {
          "duration": 0.3338067291666391,
          "durationTicks": 94,
          "midi": 61,
          "name": "C#4",
          "ticks": 63072,
          "time": 223.97721299999998,
          "velocity": 0.5905511811023622
        },
        {
          "duration": 0.3338067291666391,
          "durationTicks": 94,
          "midi": 66,
          "name": "F#4",
          "ticks": 63072,
          "time": 223.97721299999998,
          "velocity": 0.5905511811023622
        },
        {
          "duration": 0.3338067291666391,
          "durationTicks": 94,
          "midi": 54,
          "name": "F#3",
          "ticks": 63168,
          "time": 224.318122,
          "velocity": 0.5905511811023622
        },
        {
          "duration": 0.3338067291666391,
          "durationTicks": 94,
          "midi": 58,
          "name": "A#3",
          "ticks": 63168,
          "time": 224.318122,
          "velocity": 0.5905511811023622
        },
        {
          "duration": 0.3338067291666391,
          "durationTicks": 94,
          "midi": 61,
          "name": "C#4",
          "ticks": 63168,
          "time": 224.318122,
          "velocity": 0.5905511811023622
        },
        {
          "duration": 0.3338067291666391,
          "durationTicks": 94,
          "midi": 66,
          "name": "F#4",
          "ticks": 63168,
          "time": 224.318122,
          "velocity": 0.5905511811023622
        },
        {
          "duration": 0.6747157291666497,
          "durationTicks": 190,
          "midi": 54,
          "name": "F#3",
          "ticks": 63264,
          "time": 224.65903099999997,
          "velocity": 0.5905511811023622
        },
        {
          "duration": 0.6747157291666497,
          "durationTicks": 190,
          "midi": 58,
          "name": "A#3",
          "ticks": 63264,
          "time": 224.65903099999997,
          "velocity": 0.5905511811023622
        },
        {
          "duration": 0.6747157291666497,
          "durationTicks": 190,
          "midi": 61,
          "name": "C#4",
          "ticks": 63264,
          "time": 224.65903099999997,
          "velocity": 0.5905511811023622
        },
        {
          "duration": 0.6747157291666497,
          "durationTicks": 190,
          "midi": 66,
          "name": "F#4",
          "ticks": 63264,
          "time": 224.65903099999997,
          "velocity": 0.5905511811023622
        },
        {
          "duration": 0.33380672916666754,
          "durationTicks": 94,
          "midi": 54,
          "name": "F#3",
          "ticks": 63456,
          "time": 225.34084899999996,
          "velocity": 0.5905511811023622
        },
        {
          "duration": 0.33380672916666754,
          "durationTicks": 94,
          "midi": 58,
          "name": "A#3",
          "ticks": 63456,
          "time": 225.34084899999996,
          "velocity": 0.5905511811023622
        },
        {
          "duration": 0.33380672916666754,
          "durationTicks": 94,
          "midi": 61,
          "name": "C#4",
          "ticks": 63456,
          "time": 225.34084899999996,
          "velocity": 0.5905511811023622
        },
        {
          "duration": 0.33380672916666754,
          "durationTicks": 94,
          "midi": 66,
          "name": "F#4",
          "ticks": 63456,
          "time": 225.34084899999996,
          "velocity": 0.5905511811023622
        },
        {
          "duration": 0.33380672916666754,
          "durationTicks": 94,
          "midi": 54,
          "name": "F#3",
          "ticks": 63552,
          "time": 225.68175799999997,
          "velocity": 0.5905511811023622
        },
        {
          "duration": 0.33380672916666754,
          "durationTicks": 94,
          "midi": 58,
          "name": "A#3",
          "ticks": 63552,
          "time": 225.68175799999997,
          "velocity": 0.5905511811023622
        },
        {
          "duration": 0.33380672916666754,
          "durationTicks": 94,
          "midi": 61,
          "name": "C#4",
          "ticks": 63552,
          "time": 225.68175799999997,
          "velocity": 0.5905511811023622
        },
        {
          "duration": 0.33380672916666754,
          "durationTicks": 94,
          "midi": 66,
          "name": "F#4",
          "ticks": 63552,
          "time": 225.68175799999997,
          "velocity": 0.5905511811023622
        },
        {
          "duration": 0.3338067291666391,
          "durationTicks": 94,
          "midi": 54,
          "name": "F#3",
          "ticks": 63648,
          "time": 226.02266699999998,
          "velocity": 0.5905511811023622
        },
        {
          "duration": 0.3338067291666391,
          "durationTicks": 94,
          "midi": 58,
          "name": "A#3",
          "ticks": 63648,
          "time": 226.02266699999998,
          "velocity": 0.5905511811023622
        },
        {
          "duration": 0.3338067291666391,
          "durationTicks": 94,
          "midi": 61,
          "name": "C#4",
          "ticks": 63648,
          "time": 226.02266699999998,
          "velocity": 0.5905511811023622
        },
        {
          "duration": 0.3338067291666391,
          "durationTicks": 94,
          "midi": 66,
          "name": "F#4",
          "ticks": 63648,
          "time": 226.02266699999998,
          "velocity": 0.5905511811023622
        },
        {
          "duration": 0.33380672916666754,
          "durationTicks": 94,
          "midi": 52,
          "name": "E3",
          "ticks": 63744,
          "time": 226.36357599999997,
          "velocity": 0.5905511811023622
        },
        {
          "duration": 0.33380672916666754,
          "durationTicks": 94,
          "midi": 56,
          "name": "G#3",
          "ticks": 63744,
          "time": 226.36357599999997,
          "velocity": 0.5905511811023622
        },
        {
          "duration": 0.33380672916666754,
          "durationTicks": 94,
          "midi": 59,
          "name": "B3",
          "ticks": 63744,
          "time": 226.36357599999997,
          "velocity": 0.5905511811023622
        },
        {
          "duration": 0.33380672916666754,
          "durationTicks": 94,
          "midi": 64,
          "name": "E4",
          "ticks": 63744,
          "time": 226.36357599999997,
          "velocity": 0.5905511811023622
        },
        {
          "duration": 0.3338067291666391,
          "durationTicks": 94,
          "midi": 52,
          "name": "E3",
          "ticks": 63840,
          "time": 226.70448499999998,
          "velocity": 0.5905511811023622
        },
        {
          "duration": 0.3338067291666391,
          "durationTicks": 94,
          "midi": 56,
          "name": "G#3",
          "ticks": 63840,
          "time": 226.70448499999998,
          "velocity": 0.5905511811023622
        },
        {
          "duration": 0.3338067291666391,
          "durationTicks": 94,
          "midi": 59,
          "name": "B3",
          "ticks": 63840,
          "time": 226.70448499999998,
          "velocity": 0.5905511811023622
        },
        {
          "duration": 0.3338067291666391,
          "durationTicks": 94,
          "midi": 64,
          "name": "E4",
          "ticks": 63840,
          "time": 226.70448499999998,
          "velocity": 0.5905511811023622
        },
        {
          "duration": 0.3338067291666391,
          "durationTicks": 94,
          "midi": 52,
          "name": "E3",
          "ticks": 63936,
          "time": 227.045394,
          "velocity": 0.5905511811023622
        },
        {
          "duration": 0.3338067291666391,
          "durationTicks": 94,
          "midi": 56,
          "name": "G#3",
          "ticks": 63936,
          "time": 227.045394,
          "velocity": 0.5905511811023622
        },
        {
          "duration": 0.3338067291666391,
          "durationTicks": 94,
          "midi": 59,
          "name": "B3",
          "ticks": 63936,
          "time": 227.045394,
          "velocity": 0.5905511811023622
        },
        {
          "duration": 0.3338067291666391,
          "durationTicks": 94,
          "midi": 64,
          "name": "E4",
          "ticks": 63936,
          "time": 227.045394,
          "velocity": 0.5905511811023622
        },
        {
          "duration": 0.6747157291666497,
          "durationTicks": 190,
          "midi": 52,
          "name": "E3",
          "ticks": 64032,
          "time": 227.38630299999997,
          "velocity": 0.5905511811023622
        },
        {
          "duration": 0.6747157291666497,
          "durationTicks": 190,
          "midi": 56,
          "name": "G#3",
          "ticks": 64032,
          "time": 227.38630299999997,
          "velocity": 0.5905511811023622
        },
        {
          "duration": 0.6747157291666497,
          "durationTicks": 190,
          "midi": 59,
          "name": "B3",
          "ticks": 64032,
          "time": 227.38630299999997,
          "velocity": 0.5905511811023622
        },
        {
          "duration": 0.6747157291666497,
          "durationTicks": 190,
          "midi": 64,
          "name": "E4",
          "ticks": 64032,
          "time": 227.38630299999997,
          "velocity": 0.5905511811023622
        },
        {
          "duration": 0.33380672916666754,
          "durationTicks": 94,
          "midi": 52,
          "name": "E3",
          "ticks": 64224,
          "time": 228.06812099999996,
          "velocity": 0.5905511811023622
        },
        {
          "duration": 0.33380672916666754,
          "durationTicks": 94,
          "midi": 56,
          "name": "G#3",
          "ticks": 64224,
          "time": 228.06812099999996,
          "velocity": 0.5905511811023622
        },
        {
          "duration": 0.33380672916666754,
          "durationTicks": 94,
          "midi": 59,
          "name": "B3",
          "ticks": 64224,
          "time": 228.06812099999996,
          "velocity": 0.5905511811023622
        },
        {
          "duration": 0.33380672916666754,
          "durationTicks": 94,
          "midi": 64,
          "name": "E4",
          "ticks": 64224,
          "time": 228.06812099999996,
          "velocity": 0.5905511811023622
        },
        {
          "duration": 0.33380672916666754,
          "durationTicks": 94,
          "midi": 52,
          "name": "E3",
          "ticks": 64320,
          "time": 228.40902999999997,
          "velocity": 0.5905511811023622
        },
        {
          "duration": 0.33380672916666754,
          "durationTicks": 94,
          "midi": 56,
          "name": "G#3",
          "ticks": 64320,
          "time": 228.40902999999997,
          "velocity": 0.5905511811023622
        },
        {
          "duration": 0.33380672916666754,
          "durationTicks": 94,
          "midi": 59,
          "name": "B3",
          "ticks": 64320,
          "time": 228.40902999999997,
          "velocity": 0.5905511811023622
        },
        {
          "duration": 0.33380672916666754,
          "durationTicks": 94,
          "midi": 64,
          "name": "E4",
          "ticks": 64320,
          "time": 228.40902999999997,
          "velocity": 0.5905511811023622
        },
        {
          "duration": 0.3338067291666391,
          "durationTicks": 94,
          "midi": 52,
          "name": "E3",
          "ticks": 64416,
          "time": 228.74993899999998,
          "velocity": 0.5905511811023622
        },
        {
          "duration": 0.3338067291666391,
          "durationTicks": 94,
          "midi": 56,
          "name": "G#3",
          "ticks": 64416,
          "time": 228.74993899999998,
          "velocity": 0.5905511811023622
        },
        {
          "duration": 0.3338067291666391,
          "durationTicks": 94,
          "midi": 59,
          "name": "B3",
          "ticks": 64416,
          "time": 228.74993899999998,
          "velocity": 0.5905511811023622
        },
        {
          "duration": 0.3338067291666391,
          "durationTicks": 94,
          "midi": 64,
          "name": "E4",
          "ticks": 64416,
          "time": 228.74993899999998,
          "velocity": 0.5905511811023622
        },
        {
          "duration": 0.33380672916666754,
          "durationTicks": 94,
          "midi": 52,
          "name": "E3",
          "ticks": 64512,
          "time": 229.09084799999997,
          "velocity": 0.5905511811023622
        },
        {
          "duration": 0.33380672916666754,
          "durationTicks": 94,
          "midi": 56,
          "name": "G#3",
          "ticks": 64512,
          "time": 229.09084799999997,
          "velocity": 0.5905511811023622
        },
        {
          "duration": 0.33380672916666754,
          "durationTicks": 94,
          "midi": 59,
          "name": "B3",
          "ticks": 64512,
          "time": 229.09084799999997,
          "velocity": 0.5905511811023622
        },
        {
          "duration": 0.33380672916666754,
          "durationTicks": 94,
          "midi": 64,
          "name": "E4",
          "ticks": 64512,
          "time": 229.09084799999997,
          "velocity": 0.5905511811023622
        },
        {
          "duration": 0.3338067291666391,
          "durationTicks": 94,
          "midi": 52,
          "name": "E3",
          "ticks": 64608,
          "time": 229.43175699999998,
          "velocity": 0.5905511811023622
        },
        {
          "duration": 0.3338067291666391,
          "durationTicks": 94,
          "midi": 56,
          "name": "G#3",
          "ticks": 64608,
          "time": 229.43175699999998,
          "velocity": 0.5905511811023622
        },
        {
          "duration": 0.3338067291666391,
          "durationTicks": 94,
          "midi": 59,
          "name": "B3",
          "ticks": 64608,
          "time": 229.43175699999998,
          "velocity": 0.5905511811023622
        },
        {
          "duration": 0.3338067291666391,
          "durationTicks": 94,
          "midi": 64,
          "name": "E4",
          "ticks": 64608,
          "time": 229.43175699999998,
          "velocity": 0.5905511811023622
        },
        {
          "duration": 0.3338067291666391,
          "durationTicks": 94,
          "midi": 52,
          "name": "E3",
          "ticks": 64704,
          "time": 229.772666,
          "velocity": 0.5905511811023622
        },
        {
          "duration": 0.3338067291666391,
          "durationTicks": 94,
          "midi": 56,
          "name": "G#3",
          "ticks": 64704,
          "time": 229.772666,
          "velocity": 0.5905511811023622
        },
        {
          "duration": 0.3338067291666391,
          "durationTicks": 94,
          "midi": 59,
          "name": "B3",
          "ticks": 64704,
          "time": 229.772666,
          "velocity": 0.5905511811023622
        },
        {
          "duration": 0.3338067291666391,
          "durationTicks": 94,
          "midi": 64,
          "name": "E4",
          "ticks": 64704,
          "time": 229.772666,
          "velocity": 0.5905511811023622
        },
        {
          "duration": 0.6747157291666497,
          "durationTicks": 190,
          "midi": 52,
          "name": "E3",
          "ticks": 64800,
          "time": 230.11357499999997,
          "velocity": 0.5905511811023622
        },
        {
          "duration": 0.6747157291666497,
          "durationTicks": 190,
          "midi": 56,
          "name": "G#3",
          "ticks": 64800,
          "time": 230.11357499999997,
          "velocity": 0.5905511811023622
        },
        {
          "duration": 0.6747157291666497,
          "durationTicks": 190,
          "midi": 59,
          "name": "B3",
          "ticks": 64800,
          "time": 230.11357499999997,
          "velocity": 0.5905511811023622
        },
        {
          "duration": 0.6747157291666497,
          "durationTicks": 190,
          "midi": 64,
          "name": "E4",
          "ticks": 64800,
          "time": 230.11357499999997,
          "velocity": 0.5905511811023622
        },
        {
          "duration": 0.33380672916666754,
          "durationTicks": 94,
          "midi": 52,
          "name": "E3",
          "ticks": 64992,
          "time": 230.79539299999996,
          "velocity": 0.5905511811023622
        },
        {
          "duration": 0.33380672916666754,
          "durationTicks": 94,
          "midi": 56,
          "name": "G#3",
          "ticks": 64992,
          "time": 230.79539299999996,
          "velocity": 0.5905511811023622
        },
        {
          "duration": 0.33380672916666754,
          "durationTicks": 94,
          "midi": 59,
          "name": "B3",
          "ticks": 64992,
          "time": 230.79539299999996,
          "velocity": 0.5905511811023622
        },
        {
          "duration": 0.33380672916666754,
          "durationTicks": 94,
          "midi": 64,
          "name": "E4",
          "ticks": 64992,
          "time": 230.79539299999996,
          "velocity": 0.5905511811023622
        },
        {
          "duration": 0.33380672916666754,
          "durationTicks": 94,
          "midi": 52,
          "name": "E3",
          "ticks": 65088,
          "time": 231.13630199999997,
          "velocity": 0.5905511811023622
        },
        {
          "duration": 0.33380672916666754,
          "durationTicks": 94,
          "midi": 56,
          "name": "G#3",
          "ticks": 65088,
          "time": 231.13630199999997,
          "velocity": 0.5905511811023622
        },
        {
          "duration": 0.33380672916666754,
          "durationTicks": 94,
          "midi": 59,
          "name": "B3",
          "ticks": 65088,
          "time": 231.13630199999997,
          "velocity": 0.5905511811023622
        },
        {
          "duration": 0.33380672916666754,
          "durationTicks": 94,
          "midi": 64,
          "name": "E4",
          "ticks": 65088,
          "time": 231.13630199999997,
          "velocity": 0.5905511811023622
        },
        {
          "duration": 0.3338067291666391,
          "durationTicks": 94,
          "midi": 52,
          "name": "E3",
          "ticks": 65184,
          "time": 231.47721099999998,
          "velocity": 0.5905511811023622
        },
        {
          "duration": 0.3338067291666391,
          "durationTicks": 94,
          "midi": 56,
          "name": "G#3",
          "ticks": 65184,
          "time": 231.47721099999998,
          "velocity": 0.5905511811023622
        },
        {
          "duration": 0.3338067291666391,
          "durationTicks": 94,
          "midi": 59,
          "name": "B3",
          "ticks": 65184,
          "time": 231.47721099999998,
          "velocity": 0.5905511811023622
        },
        {
          "duration": 0.3338067291666391,
          "durationTicks": 94,
          "midi": 64,
          "name": "E4",
          "ticks": 65184,
          "time": 231.47721099999998,
          "velocity": 0.5905511811023622
        },
        {
          "duration": 0.33380672916666754,
          "durationTicks": 94,
          "midi": 54,
          "name": "F#3",
          "ticks": 65280,
          "time": 231.81811999999996,
          "velocity": 0.5905511811023622
        },
        {
          "duration": 0.33380672916666754,
          "durationTicks": 94,
          "midi": 59,
          "name": "B3",
          "ticks": 65280,
          "time": 231.81811999999996,
          "velocity": 0.5905511811023622
        },
        {
          "duration": 0.33380672916666754,
          "durationTicks": 94,
          "midi": 63,
          "name": "D#4",
          "ticks": 65280,
          "time": 231.81811999999996,
          "velocity": 0.5905511811023622
        },
        {
          "duration": 0.3338067291666391,
          "durationTicks": 94,
          "midi": 54,
          "name": "F#3",
          "ticks": 65376,
          "time": 232.15902899999998,
          "velocity": 0.5905511811023622
        },
        {
          "duration": 0.3338067291666391,
          "durationTicks": 94,
          "midi": 59,
          "name": "B3",
          "ticks": 65376,
          "time": 232.15902899999998,
          "velocity": 0.5905511811023622
        },
        {
          "duration": 0.3338067291666391,
          "durationTicks": 94,
          "midi": 63,
          "name": "D#4",
          "ticks": 65376,
          "time": 232.15902899999998,
          "velocity": 0.5905511811023622
        },
        {
          "duration": 0.3338067291666391,
          "durationTicks": 94,
          "midi": 54,
          "name": "F#3",
          "ticks": 65472,
          "time": 232.499938,
          "velocity": 0.5905511811023622
        },
        {
          "duration": 0.3338067291666391,
          "durationTicks": 94,
          "midi": 59,
          "name": "B3",
          "ticks": 65472,
          "time": 232.499938,
          "velocity": 0.5905511811023622
        },
        {
          "duration": 0.3338067291666391,
          "durationTicks": 94,
          "midi": 63,
          "name": "D#4",
          "ticks": 65472,
          "time": 232.499938,
          "velocity": 0.5905511811023622
        },
        {
          "duration": 0.6747157291666497,
          "durationTicks": 190,
          "midi": 54,
          "name": "F#3",
          "ticks": 65568,
          "time": 232.84084699999997,
          "velocity": 0.5905511811023622
        },
        {
          "duration": 0.6747157291666497,
          "durationTicks": 190,
          "midi": 59,
          "name": "B3",
          "ticks": 65568,
          "time": 232.84084699999997,
          "velocity": 0.5905511811023622
        },
        {
          "duration": 0.6747157291666497,
          "durationTicks": 190,
          "midi": 63,
          "name": "D#4",
          "ticks": 65568,
          "time": 232.84084699999997,
          "velocity": 0.5905511811023622
        },
        {
          "duration": 0.33380672916666754,
          "durationTicks": 94,
          "midi": 54,
          "name": "F#3",
          "ticks": 65760,
          "time": 233.52266499999996,
          "velocity": 0.5905511811023622
        },
        {
          "duration": 0.33380672916666754,
          "durationTicks": 94,
          "midi": 59,
          "name": "B3",
          "ticks": 65760,
          "time": 233.52266499999996,
          "velocity": 0.5905511811023622
        },
        {
          "duration": 0.33380672916666754,
          "durationTicks": 94,
          "midi": 63,
          "name": "D#4",
          "ticks": 65760,
          "time": 233.52266499999996,
          "velocity": 0.5905511811023622
        },
        {
          "duration": 0.33380672916666754,
          "durationTicks": 94,
          "midi": 54,
          "name": "F#3",
          "ticks": 65856,
          "time": 233.86357399999997,
          "velocity": 0.5905511811023622
        },
        {
          "duration": 0.33380672916666754,
          "durationTicks": 94,
          "midi": 59,
          "name": "B3",
          "ticks": 65856,
          "time": 233.86357399999997,
          "velocity": 0.5905511811023622
        },
        {
          "duration": 0.33380672916666754,
          "durationTicks": 94,
          "midi": 63,
          "name": "D#4",
          "ticks": 65856,
          "time": 233.86357399999997,
          "velocity": 0.5905511811023622
        },
        {
          "duration": 0.3338067291666391,
          "durationTicks": 94,
          "midi": 54,
          "name": "F#3",
          "ticks": 65952,
          "time": 234.20448299999998,
          "velocity": 0.5905511811023622
        },
        {
          "duration": 0.3338067291666391,
          "durationTicks": 94,
          "midi": 59,
          "name": "B3",
          "ticks": 65952,
          "time": 234.20448299999998,
          "velocity": 0.5905511811023622
        },
        {
          "duration": 0.3338067291666391,
          "durationTicks": 94,
          "midi": 63,
          "name": "D#4",
          "ticks": 65952,
          "time": 234.20448299999998,
          "velocity": 0.5905511811023622
        },
        {
          "duration": 0.33380672916666754,
          "durationTicks": 94,
          "midi": 54,
          "name": "F#3",
          "ticks": 66048,
          "time": 234.54539199999996,
          "velocity": 0.5905511811023622
        },
        {
          "duration": 0.33380672916666754,
          "durationTicks": 94,
          "midi": 59,
          "name": "B3",
          "ticks": 66048,
          "time": 234.54539199999996,
          "velocity": 0.5905511811023622
        },
        {
          "duration": 0.33380672916666754,
          "durationTicks": 94,
          "midi": 63,
          "name": "D#4",
          "ticks": 66048,
          "time": 234.54539199999996,
          "velocity": 0.5905511811023622
        },
        {
          "duration": 0.3338067291666391,
          "durationTicks": 94,
          "midi": 54,
          "name": "F#3",
          "ticks": 66144,
          "time": 234.88630099999997,
          "velocity": 0.5905511811023622
        },
        {
          "duration": 0.3338067291666391,
          "durationTicks": 94,
          "midi": 59,
          "name": "B3",
          "ticks": 66144,
          "time": 234.88630099999997,
          "velocity": 0.5905511811023622
        },
        {
          "duration": 0.3338067291666391,
          "durationTicks": 94,
          "midi": 63,
          "name": "D#4",
          "ticks": 66144,
          "time": 234.88630099999997,
          "velocity": 0.5905511811023622
        },
        {
          "duration": 0.3338067291666391,
          "durationTicks": 94,
          "midi": 54,
          "name": "F#3",
          "ticks": 66240,
          "time": 235.22720999999999,
          "velocity": 0.5905511811023622
        },
        {
          "duration": 0.3338067291666391,
          "durationTicks": 94,
          "midi": 59,
          "name": "B3",
          "ticks": 66240,
          "time": 235.22720999999999,
          "velocity": 0.5905511811023622
        },
        {
          "duration": 0.3338067291666391,
          "durationTicks": 94,
          "midi": 63,
          "name": "D#4",
          "ticks": 66240,
          "time": 235.22720999999999,
          "velocity": 0.5905511811023622
        },
        {
          "duration": 0.6747157291666497,
          "durationTicks": 190,
          "midi": 54,
          "name": "F#3",
          "ticks": 66336,
          "time": 235.56811899999997,
          "velocity": 0.5905511811023622
        },
        {
          "duration": 0.6747157291666497,
          "durationTicks": 190,
          "midi": 59,
          "name": "B3",
          "ticks": 66336,
          "time": 235.56811899999997,
          "velocity": 0.5905511811023622
        },
        {
          "duration": 0.6747157291666497,
          "durationTicks": 190,
          "midi": 63,
          "name": "D#4",
          "ticks": 66336,
          "time": 235.56811899999997,
          "velocity": 0.5905511811023622
        },
        {
          "duration": 0.33380672916666754,
          "durationTicks": 94,
          "midi": 54,
          "name": "F#3",
          "ticks": 66528,
          "time": 236.24993699999996,
          "velocity": 0.5905511811023622
        },
        {
          "duration": 0.33380672916666754,
          "durationTicks": 94,
          "midi": 59,
          "name": "B3",
          "ticks": 66528,
          "time": 236.24993699999996,
          "velocity": 0.5905511811023622
        },
        {
          "duration": 0.33380672916666754,
          "durationTicks": 94,
          "midi": 63,
          "name": "D#4",
          "ticks": 66528,
          "time": 236.24993699999996,
          "velocity": 0.5905511811023622
        },
        {
          "duration": 0.33380672916666754,
          "durationTicks": 94,
          "midi": 54,
          "name": "F#3",
          "ticks": 66624,
          "time": 236.59084599999997,
          "velocity": 0.5905511811023622
        },
        {
          "duration": 0.33380672916666754,
          "durationTicks": 94,
          "midi": 59,
          "name": "B3",
          "ticks": 66624,
          "time": 236.59084599999997,
          "velocity": 0.5905511811023622
        },
        {
          "duration": 0.33380672916666754,
          "durationTicks": 94,
          "midi": 63,
          "name": "D#4",
          "ticks": 66624,
          "time": 236.59084599999997,
          "velocity": 0.5905511811023622
        },
        {
          "duration": 0.3338067291666391,
          "durationTicks": 94,
          "midi": 54,
          "name": "F#3",
          "ticks": 66720,
          "time": 236.93175499999998,
          "velocity": 0.5905511811023622
        },
        {
          "duration": 0.3338067291666391,
          "durationTicks": 94,
          "midi": 59,
          "name": "B3",
          "ticks": 66720,
          "time": 236.93175499999998,
          "velocity": 0.5905511811023622
        },
        {
          "duration": 0.3338067291666391,
          "durationTicks": 94,
          "midi": 63,
          "name": "D#4",
          "ticks": 66720,
          "time": 236.93175499999998,
          "velocity": 0.5905511811023622
        },
        {
          "duration": 0.33380672916666754,
          "durationTicks": 94,
          "midi": 54,
          "name": "F#3",
          "ticks": 66816,
          "time": 237.27266399999996,
          "velocity": 0.5905511811023622
        },
        {
          "duration": 0.33380672916666754,
          "durationTicks": 94,
          "midi": 58,
          "name": "A#3",
          "ticks": 66816,
          "time": 237.27266399999996,
          "velocity": 0.5905511811023622
        },
        {
          "duration": 0.33380672916666754,
          "durationTicks": 94,
          "midi": 61,
          "name": "C#4",
          "ticks": 66816,
          "time": 237.27266399999996,
          "velocity": 0.5905511811023622
        },
        {
          "duration": 0.33380672916666754,
          "durationTicks": 94,
          "midi": 66,
          "name": "F#4",
          "ticks": 66816,
          "time": 237.27266399999996,
          "velocity": 0.5905511811023622
        },
        {
          "duration": 0.3338067291666391,
          "durationTicks": 94,
          "midi": 54,
          "name": "F#3",
          "ticks": 66912,
          "time": 237.61357299999997,
          "velocity": 0.5905511811023622
        },
        {
          "duration": 0.3338067291666391,
          "durationTicks": 94,
          "midi": 58,
          "name": "A#3",
          "ticks": 66912,
          "time": 237.61357299999997,
          "velocity": 0.5905511811023622
        },
        {
          "duration": 0.3338067291666391,
          "durationTicks": 94,
          "midi": 61,
          "name": "C#4",
          "ticks": 66912,
          "time": 237.61357299999997,
          "velocity": 0.5905511811023622
        },
        {
          "duration": 0.3338067291666391,
          "durationTicks": 94,
          "midi": 66,
          "name": "F#4",
          "ticks": 66912,
          "time": 237.61357299999997,
          "velocity": 0.5905511811023622
        },
        {
          "duration": 0.3338067291666391,
          "durationTicks": 94,
          "midi": 54,
          "name": "F#3",
          "ticks": 67008,
          "time": 237.95448199999998,
          "velocity": 0.5905511811023622
        },
        {
          "duration": 0.3338067291666391,
          "durationTicks": 94,
          "midi": 58,
          "name": "A#3",
          "ticks": 67008,
          "time": 237.95448199999998,
          "velocity": 0.5905511811023622
        },
        {
          "duration": 0.3338067291666391,
          "durationTicks": 94,
          "midi": 61,
          "name": "C#4",
          "ticks": 67008,
          "time": 237.95448199999998,
          "velocity": 0.5905511811023622
        },
        {
          "duration": 0.3338067291666391,
          "durationTicks": 94,
          "midi": 66,
          "name": "F#4",
          "ticks": 67008,
          "time": 237.95448199999998,
          "velocity": 0.5905511811023622
        },
        {
          "duration": 0.6747157291666497,
          "durationTicks": 190,
          "midi": 54,
          "name": "F#3",
          "ticks": 67104,
          "time": 238.29539099999997,
          "velocity": 0.5905511811023622
        },
        {
          "duration": 0.6747157291666497,
          "durationTicks": 190,
          "midi": 58,
          "name": "A#3",
          "ticks": 67104,
          "time": 238.29539099999997,
          "velocity": 0.5905511811023622
        },
        {
          "duration": 0.6747157291666497,
          "durationTicks": 190,
          "midi": 61,
          "name": "C#4",
          "ticks": 67104,
          "time": 238.29539099999997,
          "velocity": 0.5905511811023622
        },
        {
          "duration": 0.6747157291666497,
          "durationTicks": 190,
          "midi": 66,
          "name": "F#4",
          "ticks": 67104,
          "time": 238.29539099999997,
          "velocity": 0.5905511811023622
        },
        {
          "duration": 0.33380672916666754,
          "durationTicks": 94,
          "midi": 54,
          "name": "F#3",
          "ticks": 67296,
          "time": 238.97720899999996,
          "velocity": 0.5905511811023622
        },
        {
          "duration": 0.33380672916666754,
          "durationTicks": 94,
          "midi": 58,
          "name": "A#3",
          "ticks": 67296,
          "time": 238.97720899999996,
          "velocity": 0.5905511811023622
        },
        {
          "duration": 0.33380672916666754,
          "durationTicks": 94,
          "midi": 61,
          "name": "C#4",
          "ticks": 67296,
          "time": 238.97720899999996,
          "velocity": 0.5905511811023622
        },
        {
          "duration": 0.33380672916666754,
          "durationTicks": 94,
          "midi": 66,
          "name": "F#4",
          "ticks": 67296,
          "time": 238.97720899999996,
          "velocity": 0.5905511811023622
        },
        {
          "duration": 0.33380672916666754,
          "durationTicks": 94,
          "midi": 54,
          "name": "F#3",
          "ticks": 67392,
          "time": 239.31811799999997,
          "velocity": 0.5905511811023622
        },
        {
          "duration": 0.33380672916666754,
          "durationTicks": 94,
          "midi": 58,
          "name": "A#3",
          "ticks": 67392,
          "time": 239.31811799999997,
          "velocity": 0.5905511811023622
        },
        {
          "duration": 0.33380672916666754,
          "durationTicks": 94,
          "midi": 61,
          "name": "C#4",
          "ticks": 67392,
          "time": 239.31811799999997,
          "velocity": 0.5905511811023622
        },
        {
          "duration": 0.33380672916666754,
          "durationTicks": 94,
          "midi": 66,
          "name": "F#4",
          "ticks": 67392,
          "time": 239.31811799999997,
          "velocity": 0.5905511811023622
        },
        {
          "duration": 0.3338067291666391,
          "durationTicks": 94,
          "midi": 54,
          "name": "F#3",
          "ticks": 67488,
          "time": 239.65902699999998,
          "velocity": 0.5905511811023622
        },
        {
          "duration": 0.3338067291666391,
          "durationTicks": 94,
          "midi": 58,
          "name": "A#3",
          "ticks": 67488,
          "time": 239.65902699999998,
          "velocity": 0.5905511811023622
        },
        {
          "duration": 0.3338067291666391,
          "durationTicks": 94,
          "midi": 61,
          "name": "C#4",
          "ticks": 67488,
          "time": 239.65902699999998,
          "velocity": 0.5905511811023622
        },
        {
          "duration": 0.3338067291666391,
          "durationTicks": 94,
          "midi": 66,
          "name": "F#4",
          "ticks": 67488,
          "time": 239.65902699999998,
          "velocity": 0.5905511811023622
        },
        {
          "duration": 0.33380672916666754,
          "durationTicks": 94,
          "midi": 54,
          "name": "F#3",
          "ticks": 67584,
          "time": 239.99993599999996,
          "velocity": 0.5905511811023622
        },
        {
          "duration": 0.33380672916666754,
          "durationTicks": 94,
          "midi": 58,
          "name": "A#3",
          "ticks": 67584,
          "time": 239.99993599999996,
          "velocity": 0.5905511811023622
        },
        {
          "duration": 0.33380672916666754,
          "durationTicks": 94,
          "midi": 61,
          "name": "C#4",
          "ticks": 67584,
          "time": 239.99993599999996,
          "velocity": 0.5905511811023622
        },
        {
          "duration": 0.33380672916666754,
          "durationTicks": 94,
          "midi": 66,
          "name": "F#4",
          "ticks": 67584,
          "time": 239.99993599999996,
          "velocity": 0.5905511811023622
        },
        {
          "duration": 0.33380672916666754,
          "durationTicks": 94,
          "midi": 54,
          "name": "F#3",
          "ticks": 67680,
          "time": 240.34084499999997,
          "velocity": 0.5905511811023622
        },
        {
          "duration": 0.33380672916666754,
          "durationTicks": 94,
          "midi": 58,
          "name": "A#3",
          "ticks": 67680,
          "time": 240.34084499999997,
          "velocity": 0.5905511811023622
        },
        {
          "duration": 0.33380672916666754,
          "durationTicks": 94,
          "midi": 61,
          "name": "C#4",
          "ticks": 67680,
          "time": 240.34084499999997,
          "velocity": 0.5905511811023622
        },
        {
          "duration": 0.33380672916666754,
          "durationTicks": 94,
          "midi": 66,
          "name": "F#4",
          "ticks": 67680,
          "time": 240.34084499999997,
          "velocity": 0.5905511811023622
        },
        {
          "duration": 0.3338067291666391,
          "durationTicks": 94,
          "midi": 54,
          "name": "F#3",
          "ticks": 67776,
          "time": 240.68175399999998,
          "velocity": 0.5905511811023622
        },
        {
          "duration": 0.3338067291666391,
          "durationTicks": 94,
          "midi": 58,
          "name": "A#3",
          "ticks": 67776,
          "time": 240.68175399999998,
          "velocity": 0.5905511811023622
        },
        {
          "duration": 0.3338067291666391,
          "durationTicks": 94,
          "midi": 61,
          "name": "C#4",
          "ticks": 67776,
          "time": 240.68175399999998,
          "velocity": 0.5905511811023622
        },
        {
          "duration": 0.3338067291666391,
          "durationTicks": 94,
          "midi": 66,
          "name": "F#4",
          "ticks": 67776,
          "time": 240.68175399999998,
          "velocity": 0.5905511811023622
        },
        {
          "duration": 0.6747157291666497,
          "durationTicks": 190,
          "midi": 54,
          "name": "F#3",
          "ticks": 67872,
          "time": 241.02266299999997,
          "velocity": 0.5905511811023622
        },
        {
          "duration": 0.6747157291666497,
          "durationTicks": 190,
          "midi": 58,
          "name": "A#3",
          "ticks": 67872,
          "time": 241.02266299999997,
          "velocity": 0.5905511811023622
        },
        {
          "duration": 0.6747157291666497,
          "durationTicks": 190,
          "midi": 61,
          "name": "C#4",
          "ticks": 67872,
          "time": 241.02266299999997,
          "velocity": 0.5905511811023622
        },
        {
          "duration": 0.6747157291666497,
          "durationTicks": 190,
          "midi": 66,
          "name": "F#4",
          "ticks": 67872,
          "time": 241.02266299999997,
          "velocity": 0.5905511811023622
        },
        {
          "duration": 0.3338067291666391,
          "durationTicks": 94,
          "midi": 54,
          "name": "F#3",
          "ticks": 68064,
          "time": 241.704481,
          "velocity": 0.5905511811023622
        },
        {
          "duration": 0.3338067291666391,
          "durationTicks": 94,
          "midi": 58,
          "name": "A#3",
          "ticks": 68064,
          "time": 241.704481,
          "velocity": 0.5905511811023622
        },
        {
          "duration": 0.3338067291666391,
          "durationTicks": 94,
          "midi": 61,
          "name": "C#4",
          "ticks": 68064,
          "time": 241.704481,
          "velocity": 0.5905511811023622
        },
        {
          "duration": 0.3338067291666391,
          "durationTicks": 94,
          "midi": 66,
          "name": "F#4",
          "ticks": 68064,
          "time": 241.704481,
          "velocity": 0.5905511811023622
        },
        {
          "duration": 0.33380672916666754,
          "durationTicks": 94,
          "midi": 54,
          "name": "F#3",
          "ticks": 68160,
          "time": 242.04538999999997,
          "velocity": 0.5905511811023622
        },
        {
          "duration": 0.33380672916666754,
          "durationTicks": 94,
          "midi": 58,
          "name": "A#3",
          "ticks": 68160,
          "time": 242.04538999999997,
          "velocity": 0.5905511811023622
        },
        {
          "duration": 0.33380672916666754,
          "durationTicks": 94,
          "midi": 61,
          "name": "C#4",
          "ticks": 68160,
          "time": 242.04538999999997,
          "velocity": 0.5905511811023622
        },
        {
          "duration": 0.33380672916666754,
          "durationTicks": 94,
          "midi": 66,
          "name": "F#4",
          "ticks": 68160,
          "time": 242.04538999999997,
          "velocity": 0.5905511811023622
        },
        {
          "duration": 0.3338067291666391,
          "durationTicks": 94,
          "midi": 54,
          "name": "F#3",
          "ticks": 68256,
          "time": 242.38629899999998,
          "velocity": 0.5905511811023622
        },
        {
          "duration": 0.3338067291666391,
          "durationTicks": 94,
          "midi": 58,
          "name": "A#3",
          "ticks": 68256,
          "time": 242.38629899999998,
          "velocity": 0.5905511811023622
        },
        {
          "duration": 0.3338067291666391,
          "durationTicks": 94,
          "midi": 61,
          "name": "C#4",
          "ticks": 68256,
          "time": 242.38629899999998,
          "velocity": 0.5905511811023622
        },
        {
          "duration": 0.3338067291666391,
          "durationTicks": 94,
          "midi": 66,
          "name": "F#4",
          "ticks": 68256,
          "time": 242.38629899999998,
          "velocity": 0.5905511811023622
        },
        {
          "duration": 0.33380672916666754,
          "durationTicks": 94,
          "midi": 52,
          "name": "E3",
          "ticks": 68352,
          "time": 242.72720799999996,
          "velocity": 0.5905511811023622
        },
        {
          "duration": 0.33380672916666754,
          "durationTicks": 94,
          "midi": 56,
          "name": "G#3",
          "ticks": 68352,
          "time": 242.72720799999996,
          "velocity": 0.5905511811023622
        },
        {
          "duration": 0.33380672916666754,
          "durationTicks": 94,
          "midi": 59,
          "name": "B3",
          "ticks": 68352,
          "time": 242.72720799999996,
          "velocity": 0.5905511811023622
        },
        {
          "duration": 0.33380672916666754,
          "durationTicks": 94,
          "midi": 64,
          "name": "E4",
          "ticks": 68352,
          "time": 242.72720799999996,
          "velocity": 0.5905511811023622
        },
        {
          "duration": 0.33380672916666754,
          "durationTicks": 94,
          "midi": 52,
          "name": "E3",
          "ticks": 68448,
          "time": 243.06811699999997,
          "velocity": 0.5905511811023622
        },
        {
          "duration": 0.33380672916666754,
          "durationTicks": 94,
          "midi": 56,
          "name": "G#3",
          "ticks": 68448,
          "time": 243.06811699999997,
          "velocity": 0.5905511811023622
        },
        {
          "duration": 0.33380672916666754,
          "durationTicks": 94,
          "midi": 59,
          "name": "B3",
          "ticks": 68448,
          "time": 243.06811699999997,
          "velocity": 0.5905511811023622
        },
        {
          "duration": 0.33380672916666754,
          "durationTicks": 94,
          "midi": 64,
          "name": "E4",
          "ticks": 68448,
          "time": 243.06811699999997,
          "velocity": 0.5905511811023622
        },
        {
          "duration": 0.3338067291666391,
          "durationTicks": 94,
          "midi": 52,
          "name": "E3",
          "ticks": 68544,
          "time": 243.40902599999998,
          "velocity": 0.5905511811023622
        },
        {
          "duration": 0.3338067291666391,
          "durationTicks": 94,
          "midi": 56,
          "name": "G#3",
          "ticks": 68544,
          "time": 243.40902599999998,
          "velocity": 0.5905511811023622
        },
        {
          "duration": 0.3338067291666391,
          "durationTicks": 94,
          "midi": 59,
          "name": "B3",
          "ticks": 68544,
          "time": 243.40902599999998,
          "velocity": 0.5905511811023622
        },
        {
          "duration": 0.3338067291666391,
          "durationTicks": 94,
          "midi": 64,
          "name": "E4",
          "ticks": 68544,
          "time": 243.40902599999998,
          "velocity": 0.5905511811023622
        },
        {
          "duration": 0.6747157291666497,
          "durationTicks": 190,
          "midi": 52,
          "name": "E3",
          "ticks": 68640,
          "time": 243.74993499999997,
          "velocity": 0.5905511811023622
        },
        {
          "duration": 0.6747157291666497,
          "durationTicks": 190,
          "midi": 56,
          "name": "G#3",
          "ticks": 68640,
          "time": 243.74993499999997,
          "velocity": 0.5905511811023622
        },
        {
          "duration": 0.6747157291666497,
          "durationTicks": 190,
          "midi": 59,
          "name": "B3",
          "ticks": 68640,
          "time": 243.74993499999997,
          "velocity": 0.5905511811023622
        },
        {
          "duration": 0.6747157291666497,
          "durationTicks": 190,
          "midi": 64,
          "name": "E4",
          "ticks": 68640,
          "time": 243.74993499999997,
          "velocity": 0.5905511811023622
        },
        {
          "duration": 0.3338067291666391,
          "durationTicks": 94,
          "midi": 52,
          "name": "E3",
          "ticks": 68832,
          "time": 244.431753,
          "velocity": 0.5905511811023622
        },
        {
          "duration": 0.3338067291666391,
          "durationTicks": 94,
          "midi": 56,
          "name": "G#3",
          "ticks": 68832,
          "time": 244.431753,
          "velocity": 0.5905511811023622
        },
        {
          "duration": 0.3338067291666391,
          "durationTicks": 94,
          "midi": 59,
          "name": "B3",
          "ticks": 68832,
          "time": 244.431753,
          "velocity": 0.5905511811023622
        },
        {
          "duration": 0.3338067291666391,
          "durationTicks": 94,
          "midi": 64,
          "name": "E4",
          "ticks": 68832,
          "time": 244.431753,
          "velocity": 0.5905511811023622
        },
        {
          "duration": 0.33380672916666754,
          "durationTicks": 94,
          "midi": 52,
          "name": "E3",
          "ticks": 68928,
          "time": 244.77266199999997,
          "velocity": 0.5905511811023622
        },
        {
          "duration": 0.33380672916666754,
          "durationTicks": 94,
          "midi": 56,
          "name": "G#3",
          "ticks": 68928,
          "time": 244.77266199999997,
          "velocity": 0.5905511811023622
        },
        {
          "duration": 0.33380672916666754,
          "durationTicks": 94,
          "midi": 59,
          "name": "B3",
          "ticks": 68928,
          "time": 244.77266199999997,
          "velocity": 0.5905511811023622
        },
        {
          "duration": 0.33380672916666754,
          "durationTicks": 94,
          "midi": 64,
          "name": "E4",
          "ticks": 68928,
          "time": 244.77266199999997,
          "velocity": 0.5905511811023622
        },
        {
          "duration": 0.3338067291666391,
          "durationTicks": 94,
          "midi": 52,
          "name": "E3",
          "ticks": 69024,
          "time": 245.11357099999998,
          "velocity": 0.5905511811023622
        },
        {
          "duration": 0.3338067291666391,
          "durationTicks": 94,
          "midi": 56,
          "name": "G#3",
          "ticks": 69024,
          "time": 245.11357099999998,
          "velocity": 0.5905511811023622
        },
        {
          "duration": 0.3338067291666391,
          "durationTicks": 94,
          "midi": 59,
          "name": "B3",
          "ticks": 69024,
          "time": 245.11357099999998,
          "velocity": 0.5905511811023622
        },
        {
          "duration": 0.3338067291666391,
          "durationTicks": 94,
          "midi": 64,
          "name": "E4",
          "ticks": 69024,
          "time": 245.11357099999998,
          "velocity": 0.5905511811023622
        },
        {
          "duration": 0.33380672916666754,
          "durationTicks": 94,
          "midi": 52,
          "name": "E3",
          "ticks": 69120,
          "time": 245.45447999999996,
          "velocity": 0.5905511811023622
        },
        {
          "duration": 0.33380672916666754,
          "durationTicks": 94,
          "midi": 56,
          "name": "G#3",
          "ticks": 69120,
          "time": 245.45447999999996,
          "velocity": 0.5905511811023622
        },
        {
          "duration": 0.33380672916666754,
          "durationTicks": 94,
          "midi": 59,
          "name": "B3",
          "ticks": 69120,
          "time": 245.45447999999996,
          "velocity": 0.5905511811023622
        },
        {
          "duration": 0.33380672916666754,
          "durationTicks": 94,
          "midi": 64,
          "name": "E4",
          "ticks": 69120,
          "time": 245.45447999999996,
          "velocity": 0.5905511811023622
        },
        {
          "duration": 0.33380672916666754,
          "durationTicks": 94,
          "midi": 52,
          "name": "E3",
          "ticks": 69216,
          "time": 245.79538899999997,
          "velocity": 0.5905511811023622
        },
        {
          "duration": 0.33380672916666754,
          "durationTicks": 94,
          "midi": 56,
          "name": "G#3",
          "ticks": 69216,
          "time": 245.79538899999997,
          "velocity": 0.5905511811023622
        },
        {
          "duration": 0.33380672916666754,
          "durationTicks": 94,
          "midi": 59,
          "name": "B3",
          "ticks": 69216,
          "time": 245.79538899999997,
          "velocity": 0.5905511811023622
        },
        {
          "duration": 0.33380672916666754,
          "durationTicks": 94,
          "midi": 64,
          "name": "E4",
          "ticks": 69216,
          "time": 245.79538899999997,
          "velocity": 0.5905511811023622
        },
        {
          "duration": 0.3338067291666391,
          "durationTicks": 94,
          "midi": 52,
          "name": "E3",
          "ticks": 69312,
          "time": 246.13629799999998,
          "velocity": 0.5905511811023622
        },
        {
          "duration": 0.3338067291666391,
          "durationTicks": 94,
          "midi": 56,
          "name": "G#3",
          "ticks": 69312,
          "time": 246.13629799999998,
          "velocity": 0.5905511811023622
        },
        {
          "duration": 0.3338067291666391,
          "durationTicks": 94,
          "midi": 59,
          "name": "B3",
          "ticks": 69312,
          "time": 246.13629799999998,
          "velocity": 0.5905511811023622
        },
        {
          "duration": 0.3338067291666391,
          "durationTicks": 94,
          "midi": 64,
          "name": "E4",
          "ticks": 69312,
          "time": 246.13629799999998,
          "velocity": 0.5905511811023622
        },
        {
          "duration": 0.6747157291666497,
          "durationTicks": 190,
          "midi": 52,
          "name": "E3",
          "ticks": 69408,
          "time": 246.47720699999996,
          "velocity": 0.5905511811023622
        },
        {
          "duration": 0.6747157291666497,
          "durationTicks": 190,
          "midi": 56,
          "name": "G#3",
          "ticks": 69408,
          "time": 246.47720699999996,
          "velocity": 0.5905511811023622
        },
        {
          "duration": 0.6747157291666497,
          "durationTicks": 190,
          "midi": 59,
          "name": "B3",
          "ticks": 69408,
          "time": 246.47720699999996,
          "velocity": 0.5905511811023622
        },
        {
          "duration": 0.6747157291666497,
          "durationTicks": 190,
          "midi": 64,
          "name": "E4",
          "ticks": 69408,
          "time": 246.47720699999996,
          "velocity": 0.5905511811023622
        },
        {
          "duration": 0.3338067291666391,
          "durationTicks": 94,
          "midi": 52,
          "name": "E3",
          "ticks": 69600,
          "time": 247.15902499999999,
          "velocity": 0.5905511811023622
        },
        {
          "duration": 0.3338067291666391,
          "durationTicks": 94,
          "midi": 56,
          "name": "G#3",
          "ticks": 69600,
          "time": 247.15902499999999,
          "velocity": 0.5905511811023622
        },
        {
          "duration": 0.3338067291666391,
          "durationTicks": 94,
          "midi": 59,
          "name": "B3",
          "ticks": 69600,
          "time": 247.15902499999999,
          "velocity": 0.5905511811023622
        },
        {
          "duration": 0.3338067291666391,
          "durationTicks": 94,
          "midi": 64,
          "name": "E4",
          "ticks": 69600,
          "time": 247.15902499999999,
          "velocity": 0.5905511811023622
        },
        {
          "duration": 0.33380672916666754,
          "durationTicks": 94,
          "midi": 52,
          "name": "E3",
          "ticks": 69696,
          "time": 247.49993399999997,
          "velocity": 0.5905511811023622
        },
        {
          "duration": 0.33380672916666754,
          "durationTicks": 94,
          "midi": 56,
          "name": "G#3",
          "ticks": 69696,
          "time": 247.49993399999997,
          "velocity": 0.5905511811023622
        },
        {
          "duration": 0.33380672916666754,
          "durationTicks": 94,
          "midi": 59,
          "name": "B3",
          "ticks": 69696,
          "time": 247.49993399999997,
          "velocity": 0.5905511811023622
        },
        {
          "duration": 0.33380672916666754,
          "durationTicks": 94,
          "midi": 64,
          "name": "E4",
          "ticks": 69696,
          "time": 247.49993399999997,
          "velocity": 0.5905511811023622
        },
        {
          "duration": 0.3338067291666391,
          "durationTicks": 94,
          "midi": 52,
          "name": "E3",
          "ticks": 69792,
          "time": 247.84084299999998,
          "velocity": 0.5905511811023622
        },
        {
          "duration": 0.3338067291666391,
          "durationTicks": 94,
          "midi": 56,
          "name": "G#3",
          "ticks": 69792,
          "time": 247.84084299999998,
          "velocity": 0.5905511811023622
        },
        {
          "duration": 0.3338067291666391,
          "durationTicks": 94,
          "midi": 59,
          "name": "B3",
          "ticks": 69792,
          "time": 247.84084299999998,
          "velocity": 0.5905511811023622
        },
        {
          "duration": 0.3338067291666391,
          "durationTicks": 94,
          "midi": 64,
          "name": "E4",
          "ticks": 69792,
          "time": 247.84084299999998,
          "velocity": 0.5905511811023622
        },
        {
          "duration": 0.33380672916666754,
          "durationTicks": 94,
          "midi": 54,
          "name": "F#3",
          "ticks": 69888,
          "time": 248.18175199999996,
          "velocity": 0.5905511811023622
        },
        {
          "duration": 0.33380672916666754,
          "durationTicks": 94,
          "midi": 54,
          "name": "F#3",
          "ticks": 69984,
          "time": 248.52266099999997,
          "velocity": 0.5905511811023622
        },
        {
          "duration": 0.5042612291666444,
          "durationTicks": 142,
          "midi": 54,
          "name": "F#3",
          "ticks": 70080,
          "time": 248.86356999999998,
          "velocity": 0.5905511811023622
        },
        {
          "duration": 0.5042612291666444,
          "durationTicks": 142,
          "midi": 59,
          "name": "B3",
          "ticks": 70080,
          "time": 248.86356999999998,
          "velocity": 0.5905511811023622
        },
        {
          "duration": 0.5042612291666444,
          "durationTicks": 142,
          "midi": 63,
          "name": "D#4",
          "ticks": 70080,
          "time": 248.86356999999998,
          "velocity": 0.5905511811023622
        },
        {
          "duration": 0.16335222916666226,
          "durationTicks": 46,
          "midi": 54,
          "name": "F#3",
          "ticks": 70224,
          "time": 249.37493349999997,
          "velocity": 0.5905511811023622
        },
        {
          "duration": 0.16335222916666226,
          "durationTicks": 46,
          "midi": 59,
          "name": "B3",
          "ticks": 70224,
          "time": 249.37493349999997,
          "velocity": 0.5905511811023622
        },
        {
          "duration": 0.16335222916666226,
          "durationTicks": 46,
          "midi": 63,
          "name": "D#4",
          "ticks": 70224,
          "time": 249.37493349999997,
          "velocity": 0.5905511811023622
        },
        {
          "duration": 0.3338067291666391,
          "durationTicks": 94,
          "midi": 54,
          "name": "F#3",
          "ticks": 70272,
          "time": 249.54538799999997,
          "velocity": 0.5905511811023622
        },
        {
          "duration": 0.3338067291666391,
          "durationTicks": 94,
          "midi": 54,
          "name": "F#3",
          "ticks": 70368,
          "time": 249.88629699999998,
          "velocity": 0.5905511811023622
        },
        {
          "duration": 0.33380672916666754,
          "durationTicks": 94,
          "midi": 54,
          "name": "F#3",
          "ticks": 70464,
          "time": 250.22720599999997,
          "velocity": 0.5905511811023622
        },
        {
          "duration": 0.33380672916666754,
          "durationTicks": 94,
          "midi": 59,
          "name": "B3",
          "ticks": 70464,
          "time": 250.22720599999997,
          "velocity": 0.5905511811023622
        },
        {
          "duration": 0.33380672916666754,
          "durationTicks": 94,
          "midi": 63,
          "name": "D#4",
          "ticks": 70464,
          "time": 250.22720599999997,
          "velocity": 0.5905511811023622
        },
        {
          "duration": 0.16335222916666226,
          "durationTicks": 46,
          "midi": 54,
          "name": "F#3",
          "ticks": 70560,
          "time": 250.56811499999998,
          "velocity": 0.5905511811023622
        },
        {
          "duration": 0.16335222916666226,
          "durationTicks": 46,
          "midi": 59,
          "name": "B3",
          "ticks": 70560,
          "time": 250.56811499999998,
          "velocity": 0.5905511811023622
        },
        {
          "duration": 0.16335222916666226,
          "durationTicks": 46,
          "midi": 63,
          "name": "D#4",
          "ticks": 70560,
          "time": 250.56811499999998,
          "velocity": 0.5905511811023622
        },
        {
          "duration": 0.16335222916663383,
          "durationTicks": 46,
          "midi": 54,
          "name": "F#3",
          "ticks": 70608,
          "time": 250.73856949999998,
          "velocity": 0.5905511811023622
        },
        {
          "duration": 0.16335222916663383,
          "durationTicks": 46,
          "midi": 59,
          "name": "B3",
          "ticks": 70608,
          "time": 250.73856949999998,
          "velocity": 0.5905511811023622
        },
        {
          "duration": 0.16335222916663383,
          "durationTicks": 46,
          "midi": 63,
          "name": "D#4",
          "ticks": 70608,
          "time": 250.73856949999998,
          "velocity": 0.5905511811023622
        },
        {
          "duration": 0.33380672916666754,
          "durationTicks": 94,
          "midi": 54,
          "name": "F#3",
          "ticks": 70656,
          "time": 250.90902399999996,
          "velocity": 0.5905511811023622
        },
        {
          "duration": 0.33380672916666754,
          "durationTicks": 94,
          "midi": 54,
          "name": "F#3",
          "ticks": 70752,
          "time": 251.24993299999997,
          "velocity": 0.5905511811023622
        },
        {
          "duration": 0.5042612291666444,
          "durationTicks": 142,
          "midi": 54,
          "name": "F#3",
          "ticks": 70848,
          "time": 251.59084199999998,
          "velocity": 0.5905511811023622
        },
        {
          "duration": 0.5042612291666444,
          "durationTicks": 142,
          "midi": 59,
          "name": "B3",
          "ticks": 70848,
          "time": 251.59084199999998,
          "velocity": 0.5905511811023622
        },
        {
          "duration": 0.5042612291666444,
          "durationTicks": 142,
          "midi": 63,
          "name": "D#4",
          "ticks": 70848,
          "time": 251.59084199999998,
          "velocity": 0.5905511811023622
        },
        {
          "duration": 0.16335222916666226,
          "durationTicks": 46,
          "midi": 54,
          "name": "F#3",
          "ticks": 70992,
          "time": 252.10220549999997,
          "velocity": 0.5905511811023622
        },
        {
          "duration": 0.16335222916666226,
          "durationTicks": 46,
          "midi": 59,
          "name": "B3",
          "ticks": 70992,
          "time": 252.10220549999997,
          "velocity": 0.5905511811023622
        },
        {
          "duration": 0.16335222916666226,
          "durationTicks": 46,
          "midi": 63,
          "name": "D#4",
          "ticks": 70992,
          "time": 252.10220549999997,
          "velocity": 0.5905511811023622
        },
        {
          "duration": 0.3338067291666391,
          "durationTicks": 94,
          "midi": 54,
          "name": "F#3",
          "ticks": 71040,
          "time": 252.27265999999997,
          "velocity": 0.5905511811023622
        },
        {
          "duration": 0.3338067291666391,
          "durationTicks": 94,
          "midi": 54,
          "name": "F#3",
          "ticks": 71136,
          "time": 252.61356899999998,
          "velocity": 0.5905511811023622
        },
        {
          "duration": 0.33380672916666754,
          "durationTicks": 94,
          "midi": 54,
          "name": "F#3",
          "ticks": 71232,
          "time": 252.95447799999997,
          "velocity": 0.5905511811023622
        },
        {
          "duration": 0.33380672916666754,
          "durationTicks": 94,
          "midi": 59,
          "name": "B3",
          "ticks": 71232,
          "time": 252.95447799999997,
          "velocity": 0.5905511811023622
        },
        {
          "duration": 0.33380672916666754,
          "durationTicks": 94,
          "midi": 63,
          "name": "D#4",
          "ticks": 71232,
          "time": 252.95447799999997,
          "velocity": 0.5905511811023622
        },
        {
          "duration": 0.16335222916666226,
          "durationTicks": 46,
          "midi": 54,
          "name": "F#3",
          "ticks": 71328,
          "time": 253.29538699999998,
          "velocity": 0.5905511811023622
        },
        {
          "duration": 0.16335222916666226,
          "durationTicks": 46,
          "midi": 59,
          "name": "B3",
          "ticks": 71328,
          "time": 253.29538699999998,
          "velocity": 0.5905511811023622
        },
        {
          "duration": 0.16335222916666226,
          "durationTicks": 46,
          "midi": 63,
          "name": "D#4",
          "ticks": 71328,
          "time": 253.29538699999998,
          "velocity": 0.5905511811023622
        },
        {
          "duration": 0.16335222916663383,
          "durationTicks": 46,
          "midi": 54,
          "name": "F#3",
          "ticks": 71376,
          "time": 253.46584149999998,
          "velocity": 0.5905511811023622
        },
        {
          "duration": 0.16335222916663383,
          "durationTicks": 46,
          "midi": 59,
          "name": "B3",
          "ticks": 71376,
          "time": 253.46584149999998,
          "velocity": 0.5905511811023622
        },
        {
          "duration": 0.16335222916663383,
          "durationTicks": 46,
          "midi": 63,
          "name": "D#4",
          "ticks": 71376,
          "time": 253.46584149999998,
          "velocity": 0.5905511811023622
        },
        {
          "duration": 0.5042612291666444,
          "durationTicks": 142,
          "midi": 57,
          "name": "A3",
          "ticks": 71616,
          "time": 254.31811399999998,
          "velocity": 0.5905511811023622
        },
        {
          "duration": 0.5042612291666444,
          "durationTicks": 142,
          "midi": 61,
          "name": "C#4",
          "ticks": 71616,
          "time": 254.31811399999998,
          "velocity": 0.5905511811023622
        },
        {
          "duration": 0.5042612291666444,
          "durationTicks": 142,
          "midi": 64,
          "name": "E4",
          "ticks": 71616,
          "time": 254.31811399999998,
          "velocity": 0.5905511811023622
        },
        {
          "duration": 0.7386361666666517,
          "durationTicks": 208,
          "midi": 57,
          "name": "A3",
          "ticks": 71760,
          "time": 254.82947749999997,
          "velocity": 0.5905511811023622
        },
        {
          "duration": 0.7386361666666517,
          "durationTicks": 208,
          "midi": 61,
          "name": "C#4",
          "ticks": 71760,
          "time": 254.82947749999997,
          "velocity": 0.5905511811023622
        },
        {
          "duration": 0.7386361666666517,
          "durationTicks": 208,
          "midi": 64,
          "name": "E4",
          "ticks": 71760,
          "time": 254.82947749999997,
          "velocity": 0.5905511811023622
        },
        {
          "duration": 0.33380672916666754,
          "durationTicks": 94,
          "midi": 57,
          "name": "A3",
          "ticks": 72000,
          "time": 255.68174999999997,
          "velocity": 0.5905511811023622
        },
        {
          "duration": 0.33380672916666754,
          "durationTicks": 94,
          "midi": 61,
          "name": "C#4",
          "ticks": 72000,
          "time": 255.68174999999997,
          "velocity": 0.5905511811023622
        },
        {
          "duration": 0.33380672916666754,
          "durationTicks": 94,
          "midi": 64,
          "name": "E4",
          "ticks": 72000,
          "time": 255.68174999999997,
          "velocity": 0.5905511811023622
        },
        {
          "duration": 0.16335222916666226,
          "durationTicks": 46,
          "midi": 57,
          "name": "A3",
          "ticks": 72096,
          "time": 256.022659,
          "velocity": 0.5905511811023622
        },
        {
          "duration": 0.16335222916666226,
          "durationTicks": 46,
          "midi": 61,
          "name": "C#4",
          "ticks": 72096,
          "time": 256.022659,
          "velocity": 0.5905511811023622
        },
        {
          "duration": 0.16335222916666226,
          "durationTicks": 46,
          "midi": 64,
          "name": "E4",
          "ticks": 72096,
          "time": 256.022659,
          "velocity": 0.5905511811023622
        },
        {
          "duration": 0.16335222916666226,
          "durationTicks": 46,
          "midi": 57,
          "name": "A3",
          "ticks": 72144,
          "time": 256.1931135,
          "velocity": 0.5905511811023622
        },
        {
          "duration": 0.16335222916666226,
          "durationTicks": 46,
          "midi": 61,
          "name": "C#4",
          "ticks": 72144,
          "time": 256.1931135,
          "velocity": 0.5905511811023622
        },
        {
          "duration": 0.16335222916666226,
          "durationTicks": 46,
          "midi": 64,
          "name": "E4",
          "ticks": 72144,
          "time": 256.1931135,
          "velocity": 0.5905511811023622
        },
        {
          "duration": 0.5042612291666728,
          "durationTicks": 142,
          "midi": 57,
          "name": "A3",
          "ticks": 72384,
          "time": 257.04538599999995,
          "velocity": 0.5905511811023622
        },
        {
          "duration": 0.5042612291666728,
          "durationTicks": 142,
          "midi": 61,
          "name": "C#4",
          "ticks": 72384,
          "time": 257.04538599999995,
          "velocity": 0.5905511811023622
        },
        {
          "duration": 0.5042612291666728,
          "durationTicks": 142,
          "midi": 64,
          "name": "E4",
          "ticks": 72384,
          "time": 257.04538599999995,
          "velocity": 0.5905511811023622
        },
        {
          "duration": 0.7386361666666517,
          "durationTicks": 208,
          "midi": 57,
          "name": "A3",
          "ticks": 72528,
          "time": 257.55674949999997,
          "velocity": 0.5905511811023622
        },
        {
          "duration": 0.7386361666666517,
          "durationTicks": 208,
          "midi": 61,
          "name": "C#4",
          "ticks": 72528,
          "time": 257.55674949999997,
          "velocity": 0.5905511811023622
        },
        {
          "duration": 0.7386361666666517,
          "durationTicks": 208,
          "midi": 64,
          "name": "E4",
          "ticks": 72528,
          "time": 257.55674949999997,
          "velocity": 0.5905511811023622
        },
        {
          "duration": 0.3338067291666107,
          "durationTicks": 94,
          "midi": 57,
          "name": "A3",
          "ticks": 72768,
          "time": 258.409022,
          "velocity": 0.5905511811023622
        },
        {
          "duration": 0.3338067291666107,
          "durationTicks": 94,
          "midi": 61,
          "name": "C#4",
          "ticks": 72768,
          "time": 258.409022,
          "velocity": 0.5905511811023622
        },
        {
          "duration": 0.3338067291666107,
          "durationTicks": 94,
          "midi": 64,
          "name": "E4",
          "ticks": 72768,
          "time": 258.409022,
          "velocity": 0.5905511811023622
        },
        {
          "duration": 0.16335222916666226,
          "durationTicks": 46,
          "midi": 57,
          "name": "A3",
          "ticks": 72864,
          "time": 258.74993099999995,
          "velocity": 0.5905511811023622
        },
        {
          "duration": 0.16335222916666226,
          "durationTicks": 46,
          "midi": 61,
          "name": "C#4",
          "ticks": 72864,
          "time": 258.74993099999995,
          "velocity": 0.5905511811023622
        },
        {
          "duration": 0.16335222916666226,
          "durationTicks": 46,
          "midi": 64,
          "name": "E4",
          "ticks": 72864,
          "time": 258.74993099999995,
          "velocity": 0.5905511811023622
        },
        {
          "duration": 0.16335222916666226,
          "durationTicks": 46,
          "midi": 57,
          "name": "A3",
          "ticks": 72912,
          "time": 258.92038549999995,
          "velocity": 0.5905511811023622
        },
        {
          "duration": 0.16335222916666226,
          "durationTicks": 46,
          "midi": 61,
          "name": "C#4",
          "ticks": 72912,
          "time": 258.92038549999995,
          "velocity": 0.5905511811023622
        },
        {
          "duration": 0.16335222916666226,
          "durationTicks": 46,
          "midi": 64,
          "name": "E4",
          "ticks": 72912,
          "time": 258.92038549999995,
          "velocity": 0.5905511811023622
        },
        {
          "duration": 0.07812497916665961,
          "durationTicks": 22,
          "midi": 52,
          "name": "E3",
          "ticks": 72984,
          "time": 259.17606724999996,
          "velocity": 0.5905511811023622
        },
        {
          "duration": 0.07812497916665961,
          "durationTicks": 22,
          "midi": 56,
          "name": "G#3",
          "ticks": 73008,
          "time": 259.26129449999996,
          "velocity": 0.5905511811023622
        },
        {
          "duration": 0.07812497916665961,
          "durationTicks": 22,
          "midi": 59,
          "name": "B3",
          "ticks": 73008,
          "time": 259.26129449999996,
          "velocity": 0.5905511811023622
        },
        {
          "duration": 5.028407749999985,
          "durationTicks": 1416,
          "midi": 63,
          "name": "D#4",
          "ticks": 73032,
          "time": 259.34652174999997,
          "velocity": 0.5905511811023622
        }
      ],
      "endOfTrackTicks": 74448
    },
    {
      "channel": 5,
      "controlChanges": {
        "7": [
          {
            "number": 7,
            "ticks": 0,
            "time": 0,
            "value": 1
          },
          {
            "number": 7,
            "ticks": 0,
            "time": 0,
            "value": 1
          }
        ],
        "10": [
          {
            "number": 10,
            "ticks": 0,
            "time": 0,
            "value": 0.5039370078740157
          },
          {
            "number": 10,
            "ticks": 0,
            "time": 0,
            "value": 0.5039370078740157
          }
        ]
      },
      "pitchBends": [],
      "instrument": {
        "family": "guitar",
        "number": 25,
        "name": "acoustic guitar (steel)"
      },
      "name": " ",
      "notes": [
        {
          "duration": 0.33380672916666665,
          "durationTicks": 94,
          "midi": 47,
          "name": "B2",
          "ticks": 768,
          "time": 2.7272719999999997,
          "velocity": 0.5905511811023622
        },
        {
          "duration": 0.33380672916666665,
          "durationTicks": 94,
          "midi": 47,
          "name": "B2",
          "ticks": 864,
          "time": 3.0681809999999996,
          "velocity": 0.5905511811023622
        },
        {
          "duration": 0.33380672916666665,
          "durationTicks": 94,
          "midi": 47,
          "name": "B2",
          "ticks": 960,
          "time": 3.4090899999999995,
          "velocity": 0.5905511811023622
        },
        {
          "duration": 0.3338067291666662,
          "durationTicks": 94,
          "midi": 47,
          "name": "B2",
          "ticks": 1056,
          "time": 3.7499989999999994,
          "velocity": 0.5905511811023622
        },
        {
          "duration": 0.33380672916666665,
          "durationTicks": 94,
          "midi": 47,
          "name": "B2",
          "ticks": 1152,
          "time": 4.090908,
          "velocity": 0.5905511811023622
        },
        {
          "duration": 0.33380672916666665,
          "durationTicks": 94,
          "midi": 47,
          "name": "B2",
          "ticks": 1248,
          "time": 4.431817,
          "velocity": 0.5905511811023622
        },
        {
          "duration": 0.33380672916666665,
          "durationTicks": 94,
          "midi": 47,
          "name": "B2",
          "ticks": 1344,
          "time": 4.772726,
          "velocity": 0.5905511811023622
        },
        {
          "duration": 0.1633522291666667,
          "durationTicks": 46,
          "midi": 47,
          "name": "B2",
          "ticks": 1440,
          "time": 5.1136349999999995,
          "velocity": 0.5905511811023622
        },
        {
          "duration": 0.1633522291666667,
          "durationTicks": 46,
          "midi": 47,
          "name": "B2",
          "ticks": 1488,
          "time": 5.284089499999999,
          "velocity": 0.5905511811023622
        },
        {
          "duration": 0.33380672916666665,
          "durationTicks": 94,
          "midi": 47,
          "name": "B2",
          "ticks": 1536,
          "time": 5.454543999999999,
          "velocity": 0.5905511811023622
        },
        {
          "duration": 0.33380672916666665,
          "durationTicks": 94,
          "midi": 47,
          "name": "B2",
          "ticks": 1632,
          "time": 5.795452999999999,
          "velocity": 0.5905511811023622
        },
        {
          "duration": 0.33380672916666754,
          "durationTicks": 94,
          "midi": 47,
          "name": "B2",
          "ticks": 1728,
          "time": 6.136361999999999,
          "velocity": 0.5905511811023622
        },
        {
          "duration": 0.6747157291666674,
          "durationTicks": 190,
          "midi": 47,
          "name": "B2",
          "ticks": 1824,
          "time": 6.477270999999999,
          "velocity": 0.5905511811023622
        },
        {
          "duration": 0.33380672916666754,
          "durationTicks": 94,
          "midi": 47,
          "name": "B2",
          "ticks": 2016,
          "time": 7.159088999999999,
          "velocity": 0.5905511811023622
        },
        {
          "duration": 0.33380672916666754,
          "durationTicks": 94,
          "midi": 47,
          "name": "B2",
          "ticks": 2112,
          "time": 7.499997999999999,
          "velocity": 0.5905511811023622
        },
        {
          "duration": 0.1633522291666667,
          "durationTicks": 46,
          "midi": 47,
          "name": "B2",
          "ticks": 2208,
          "time": 7.840906999999999,
          "velocity": 0.5905511811023622
        },
        {
          "duration": 0.1633522291666658,
          "durationTicks": 46,
          "midi": 47,
          "name": "B2",
          "ticks": 2256,
          "time": 8.0113615,
          "velocity": 0.5905511811023622
        },
        {
          "duration": 0.33380672916666576,
          "durationTicks": 94,
          "midi": 47,
          "name": "B2",
          "ticks": 2304,
          "time": 8.181816,
          "velocity": 0.5905511811023622
        },
        {
          "duration": 0.33380672916666576,
          "durationTicks": 94,
          "midi": 47,
          "name": "B2",
          "ticks": 2400,
          "time": 8.522725,
          "velocity": 0.5905511811023622
        },
        {
          "duration": 0.33380672916666754,
          "durationTicks": 94,
          "midi": 47,
          "name": "B2",
          "ticks": 2496,
          "time": 8.863634,
          "velocity": 0.5905511811023622
        },
        {
          "duration": 0.33380672916666754,
          "durationTicks": 94,
          "midi": 47,
          "name": "B2",
          "ticks": 2592,
          "time": 9.204543,
          "velocity": 0.5905511811023622
        },
        {
          "duration": 0.33380672916666754,
          "durationTicks": 94,
          "midi": 47,
          "name": "B2",
          "ticks": 2688,
          "time": 9.545452,
          "velocity": 0.5905511811023622
        },
        {
          "duration": 0.33380672916666754,
          "durationTicks": 94,
          "midi": 47,
          "name": "B2",
          "ticks": 2784,
          "time": 9.886360999999999,
          "velocity": 0.5905511811023622
        },
        {
          "duration": 0.33380672916666754,
          "durationTicks": 94,
          "midi": 47,
          "name": "B2",
          "ticks": 2880,
          "time": 10.227269999999999,
          "velocity": 0.5905511811023622
        },
        {
          "duration": 0.16335222916666758,
          "durationTicks": 46,
          "midi": 47,
          "name": "B2",
          "ticks": 2976,
          "time": 10.568178999999999,
          "velocity": 0.5905511811023622
        },
        {
          "duration": 0.16335222916666758,
          "durationTicks": 46,
          "midi": 47,
          "name": "B2",
          "ticks": 3024,
          "time": 10.738633499999999,
          "velocity": 0.5905511811023622
        },
        {
          "duration": 0.33380672916666576,
          "durationTicks": 94,
          "midi": 47,
          "name": "B2",
          "ticks": 3072,
          "time": 10.909087999999999,
          "velocity": 0.5905511811023622
        },
        {
          "duration": 0.33380672916666576,
          "durationTicks": 94,
          "midi": 47,
          "name": "B2",
          "ticks": 3168,
          "time": 11.249996999999999,
          "velocity": 0.5905511811023622
        },
        {
          "duration": 0.33380672916666576,
          "durationTicks": 94,
          "midi": 47,
          "name": "B2",
          "ticks": 3264,
          "time": 11.590905999999999,
          "velocity": 0.5905511811023622
        },
        {
          "duration": 0.6747157291666657,
          "durationTicks": 190,
          "midi": 47,
          "name": "B2",
          "ticks": 3360,
          "time": 11.931814999999999,
          "velocity": 0.5905511811023622
        },
        {
          "duration": 0.33380672916666576,
          "durationTicks": 94,
          "midi": 47,
          "name": "B2",
          "ticks": 3552,
          "time": 12.613632999999998,
          "velocity": 0.5905511811023622
        },
        {
          "duration": 0.33380672916666576,
          "durationTicks": 94,
          "midi": 47,
          "name": "B2",
          "ticks": 3648,
          "time": 12.954541999999998,
          "velocity": 0.5905511811023622
        },
        {
          "duration": 0.1633522291666658,
          "durationTicks": 46,
          "midi": 47,
          "name": "B2",
          "ticks": 3744,
          "time": 13.295450999999998,
          "velocity": 0.5905511811023622
        },
        {
          "duration": 0.1633522291666658,
          "durationTicks": 46,
          "midi": 47,
          "name": "B2",
          "ticks": 3792,
          "time": 13.465905499999998,
          "velocity": 0.5905511811023622
        },
        {
          "duration": 0.33380672916666576,
          "durationTicks": 94,
          "midi": 47,
          "name": "B2",
          "ticks": 3840,
          "time": 13.636359999999998,
          "velocity": 0.5905511811023622
        },
        {
          "duration": 0.33380672916666576,
          "durationTicks": 94,
          "midi": 47,
          "name": "B2",
          "ticks": 3936,
          "time": 13.977268999999998,
          "velocity": 0.5905511811023622
        },
        {
          "duration": 0.33380672916666576,
          "durationTicks": 94,
          "midi": 47,
          "name": "B2",
          "ticks": 4032,
          "time": 14.318177999999998,
          "velocity": 0.5905511811023622
        },
        {
          "duration": 0.6747157291666657,
          "durationTicks": 190,
          "midi": 47,
          "name": "B2",
          "ticks": 4128,
          "time": 14.659086999999998,
          "velocity": 0.5905511811023622
        },
        {
          "duration": 0.33380672916666576,
          "durationTicks": 94,
          "midi": 47,
          "name": "B2",
          "ticks": 4320,
          "time": 15.340904999999998,
          "velocity": 0.5905511811023622
        },
        {
          "duration": 0.33380672916666576,
          "durationTicks": 94,
          "midi": 47,
          "name": "B2",
          "ticks": 4416,
          "time": 15.681813999999997,
          "velocity": 0.5905511811023622
        },
        {
          "duration": 0.333806729166664,
          "durationTicks": 94,
          "midi": 47,
          "name": "B2",
          "ticks": 4512,
          "time": 16.022723,
          "velocity": 0.5905511811023622
        },
        {
          "duration": 0.333806729166664,
          "durationTicks": 94,
          "midi": 47,
          "name": "B2",
          "ticks": 4608,
          "time": 16.363632,
          "velocity": 0.5905511811023622
        },
        {
          "duration": 0.333806729166664,
          "durationTicks": 94,
          "midi": 47,
          "name": "B2",
          "ticks": 4704,
          "time": 16.704541,
          "velocity": 0.5905511811023622
        },
        {
          "duration": 0.333806729166664,
          "durationTicks": 94,
          "midi": 47,
          "name": "B2",
          "ticks": 4800,
          "time": 17.04545,
          "velocity": 0.5905511811023622
        },
        {
          "duration": 0.6747157291666639,
          "durationTicks": 190,
          "midi": 47,
          "name": "B2",
          "ticks": 4896,
          "time": 17.386359,
          "velocity": 0.5905511811023622
        },
        {
          "duration": 0.333806729166664,
          "durationTicks": 94,
          "midi": 47,
          "name": "B2",
          "ticks": 5088,
          "time": 18.068177,
          "velocity": 0.5905511811023622
        },
        {
          "duration": 0.333806729166664,
          "durationTicks": 94,
          "midi": 47,
          "name": "B2",
          "ticks": 5184,
          "time": 18.409086,
          "velocity": 0.5905511811023622
        },
        {
          "duration": 0.333806729166664,
          "durationTicks": 94,
          "midi": 47,
          "name": "B2",
          "ticks": 5280,
          "time": 18.749995,
          "velocity": 0.5905511811023622
        },
        {
          "duration": 0.3338067291666711,
          "durationTicks": 94,
          "midi": 47,
          "name": "B2",
          "ticks": 8448,
          "time": 29.999991999999995,
          "velocity": 0.5905511811023622
        },
        {
          "duration": 0.3338067291666711,
          "durationTicks": 94,
          "midi": 47,
          "name": "B2",
          "ticks": 8544,
          "time": 30.340900999999995,
          "velocity": 0.5905511811023622
        },
        {
          "duration": 0.3338067291666711,
          "durationTicks": 94,
          "midi": 47,
          "name": "B2",
          "ticks": 8640,
          "time": 30.681809999999995,
          "velocity": 0.5905511811023622
        },
        {
          "duration": 0.674715729166671,
          "durationTicks": 190,
          "midi": 47,
          "name": "B2",
          "ticks": 8736,
          "time": 31.022718999999995,
          "velocity": 0.5905511811023622
        },
        {
          "duration": 0.33380672916666754,
          "durationTicks": 94,
          "midi": 47,
          "name": "B2",
          "ticks": 8928,
          "time": 31.704536999999995,
          "velocity": 0.5905511811023622
        },
        {
          "duration": 0.33380672916666754,
          "durationTicks": 94,
          "midi": 47,
          "name": "B2",
          "ticks": 9024,
          "time": 32.045446,
          "velocity": 0.5905511811023622
        },
        {
          "duration": 0.33380672916666754,
          "durationTicks": 94,
          "midi": 47,
          "name": "B2",
          "ticks": 9120,
          "time": 32.386354999999995,
          "velocity": 0.5905511811023622
        },
        {
          "duration": 0.33380672916666754,
          "durationTicks": 94,
          "midi": 47,
          "name": "B2",
          "ticks": 9216,
          "time": 32.727264,
          "velocity": 0.5905511811023622
        },
        {
          "duration": 0.33380672916666754,
          "durationTicks": 94,
          "midi": 47,
          "name": "B2",
          "ticks": 9312,
          "time": 33.068172999999994,
          "velocity": 0.5905511811023622
        },
        {
          "duration": 0.33380672916666754,
          "durationTicks": 94,
          "midi": 47,
          "name": "B2",
          "ticks": 9408,
          "time": 33.409082,
          "velocity": 0.5905511811023622
        },
        {
          "duration": 0.674715729166671,
          "durationTicks": 190,
          "midi": 47,
          "name": "B2",
          "ticks": 9504,
          "time": 33.749990999999994,
          "velocity": 0.5905511811023622
        },
        {
          "duration": 0.33380672916666754,
          "durationTicks": 94,
          "midi": 47,
          "name": "B2",
          "ticks": 9696,
          "time": 34.431808999999994,
          "velocity": 0.5905511811023622
        },
        {
          "duration": 0.33380672916666754,
          "durationTicks": 94,
          "midi": 47,
          "name": "B2",
          "ticks": 9792,
          "time": 34.772718,
          "velocity": 0.5905511811023622
        },
        {
          "duration": 0.33380672916666754,
          "durationTicks": 94,
          "midi": 47,
          "name": "B2",
          "ticks": 9888,
          "time": 35.113626999999994,
          "velocity": 0.5905511811023622
        },
        {
          "duration": 0.33380672916668175,
          "durationTicks": 94,
          "midi": 47,
          "name": "B2",
          "ticks": 31488,
          "time": 111.81815199999998,
          "velocity": 0.5905511811023622
        },
        {
          "duration": 0.33380672916666754,
          "durationTicks": 94,
          "midi": 47,
          "name": "B2",
          "ticks": 31584,
          "time": 112.159061,
          "velocity": 0.5905511811023622
        },
        {
          "duration": 0.33380672916666754,
          "durationTicks": 94,
          "midi": 47,
          "name": "B2",
          "ticks": 31680,
          "time": 112.49996999999999,
          "velocity": 0.5905511811023622
        },
        {
          "duration": 0.6747157291666781,
          "durationTicks": 190,
          "midi": 47,
          "name": "B2",
          "ticks": 31776,
          "time": 112.84087899999999,
          "velocity": 0.5905511811023622
        },
        {
          "duration": 0.33380672916666754,
          "durationTicks": 94,
          "midi": 47,
          "name": "B2",
          "ticks": 31968,
          "time": 113.522697,
          "velocity": 0.5905511811023622
        },
        {
          "duration": 0.33380672916666754,
          "durationTicks": 94,
          "midi": 47,
          "name": "B2",
          "ticks": 32064,
          "time": 113.86360599999999,
          "velocity": 0.5905511811023622
        },
        {
          "duration": 0.33380672916666754,
          "durationTicks": 94,
          "midi": 47,
          "name": "B2",
          "ticks": 32160,
          "time": 114.20451499999999,
          "velocity": 0.5905511811023622
        },
        {
          "duration": 0.33380672916668175,
          "durationTicks": 94,
          "midi": 47,
          "name": "B2",
          "ticks": 32256,
          "time": 114.54542399999998,
          "velocity": 0.5905511811023622
        },
        {
          "duration": 0.33380672916666754,
          "durationTicks": 94,
          "midi": 47,
          "name": "B2",
          "ticks": 32352,
          "time": 114.886333,
          "velocity": 0.5905511811023622
        },
        {
          "duration": 0.33380672916666754,
          "durationTicks": 94,
          "midi": 47,
          "name": "B2",
          "ticks": 32448,
          "time": 115.22724199999999,
          "velocity": 0.5905511811023622
        },
        {
          "duration": 0.6747157291666781,
          "durationTicks": 190,
          "midi": 47,
          "name": "B2",
          "ticks": 32544,
          "time": 115.56815099999999,
          "velocity": 0.5905511811023622
        },
        {
          "duration": 0.33380672916666754,
          "durationTicks": 94,
          "midi": 47,
          "name": "B2",
          "ticks": 32736,
          "time": 116.249969,
          "velocity": 0.5905511811023622
        },
        {
          "duration": 0.33380672916666754,
          "durationTicks": 94,
          "midi": 47,
          "name": "B2",
          "ticks": 32832,
          "time": 116.59087799999999,
          "velocity": 0.5905511811023622
        },
        {
          "duration": 0.33380672916666754,
          "durationTicks": 94,
          "midi": 47,
          "name": "B2",
          "ticks": 32928,
          "time": 116.93178699999999,
          "velocity": 0.5905511811023622
        },
        {
          "duration": 0.33380672916666754,
          "durationTicks": 94,
          "midi": 47,
          "name": "B2",
          "ticks": 36096,
          "time": 128.181784,
          "velocity": 0.5905511811023622
        },
        {
          "duration": 0.33380672916669596,
          "durationTicks": 94,
          "midi": 47,
          "name": "B2",
          "ticks": 36192,
          "time": 128.52269299999998,
          "velocity": 0.5905511811023622
        },
        {
          "duration": 0.33380672916666754,
          "durationTicks": 94,
          "midi": 47,
          "name": "B2",
          "ticks": 36288,
          "time": 128.863602,
          "velocity": 0.5905511811023622
        },
        {
          "duration": 0.6747157291666497,
          "durationTicks": 190,
          "midi": 47,
          "name": "B2",
          "ticks": 36384,
          "time": 129.204511,
          "velocity": 0.5905511811023622
        },
        {
          "duration": 0.33380672916666754,
          "durationTicks": 94,
          "midi": 47,
          "name": "B2",
          "ticks": 36576,
          "time": 129.886329,
          "velocity": 0.5905511811023622
        },
        {
          "duration": 0.33380672916669596,
          "durationTicks": 94,
          "midi": 47,
          "name": "B2",
          "ticks": 36672,
          "time": 130.22723799999997,
          "velocity": 0.5905511811023622
        },
        {
          "duration": 0.33380672916666754,
          "durationTicks": 94,
          "midi": 47,
          "name": "B2",
          "ticks": 36768,
          "time": 130.56814699999998,
          "velocity": 0.5905511811023622
        },
        {
          "duration": 0.33380672916666754,
          "durationTicks": 94,
          "midi": 47,
          "name": "B2",
          "ticks": 36864,
          "time": 130.909056,
          "velocity": 0.5905511811023622
        },
        {
          "duration": 0.33380672916669596,
          "durationTicks": 94,
          "midi": 47,
          "name": "B2",
          "ticks": 36960,
          "time": 131.24996499999997,
          "velocity": 0.5905511811023622
        },
        {
          "duration": 0.33380672916666754,
          "durationTicks": 94,
          "midi": 47,
          "name": "B2",
          "ticks": 37056,
          "time": 131.59087399999999,
          "velocity": 0.5905511811023622
        },
        {
          "duration": 0.6747157291666497,
          "durationTicks": 190,
          "midi": 47,
          "name": "B2",
          "ticks": 37152,
          "time": 131.931783,
          "velocity": 0.5905511811023622
        },
        {
          "duration": 0.33380672916666754,
          "durationTicks": 94,
          "midi": 47,
          "name": "B2",
          "ticks": 37344,
          "time": 132.613601,
          "velocity": 0.5905511811023622
        },
        {
          "duration": 0.33380672916666754,
          "durationTicks": 94,
          "midi": 47,
          "name": "B2",
          "ticks": 37440,
          "time": 132.95451,
          "velocity": 0.5905511811023622
        },
        {
          "duration": 0.33380672916666754,
          "durationTicks": 94,
          "midi": 47,
          "name": "B2",
          "ticks": 37536,
          "time": 133.29541899999998,
          "velocity": 0.5905511811023622
        },
        {
          "duration": 0.33380672916666754,
          "durationTicks": 94,
          "midi": 47,
          "name": "B2",
          "ticks": 54528,
          "time": 193.63631199999998,
          "velocity": 0.5905511811023622
        },
        {
          "duration": 0.3338067291666391,
          "durationTicks": 94,
          "midi": 47,
          "name": "B2",
          "ticks": 54624,
          "time": 193.977221,
          "velocity": 0.5905511811023622
        },
        {
          "duration": 0.33380672916666754,
          "durationTicks": 94,
          "midi": 47,
          "name": "B2",
          "ticks": 54720,
          "time": 194.31812999999997,
          "velocity": 0.5905511811023622
        },
        {
          "duration": 0.6747157291666497,
          "durationTicks": 190,
          "midi": 47,
          "name": "B2",
          "ticks": 54816,
          "time": 194.65903899999998,
          "velocity": 0.5905511811023622
        },
        {
          "duration": 0.33380672916666754,
          "durationTicks": 94,
          "midi": 47,
          "name": "B2",
          "ticks": 55008,
          "time": 195.34085699999997,
          "velocity": 0.5905511811023622
        },
        {
          "duration": 0.3338067291666391,
          "durationTicks": 94,
          "midi": 47,
          "name": "B2",
          "ticks": 55104,
          "time": 195.68176599999998,
          "velocity": 0.5905511811023622
        },
        {
          "duration": 0.33380672916666754,
          "durationTicks": 94,
          "midi": 47,
          "name": "B2",
          "ticks": 55200,
          "time": 196.02267499999996,
          "velocity": 0.5905511811023622
        },
        {
          "duration": 0.33380672916666754,
          "durationTicks": 94,
          "midi": 47,
          "name": "B2",
          "ticks": 55296,
          "time": 196.36358399999997,
          "velocity": 0.5905511811023622
        },
        {
          "duration": 0.3338067291666391,
          "durationTicks": 94,
          "midi": 47,
          "name": "B2",
          "ticks": 55392,
          "time": 196.70449299999999,
          "velocity": 0.5905511811023622
        },
        {
          "duration": 0.33380672916666754,
          "durationTicks": 94,
          "midi": 47,
          "name": "B2",
          "ticks": 55488,
          "time": 197.04540199999997,
          "velocity": 0.5905511811023622
        },
        {
          "duration": 0.6747157291666497,
          "durationTicks": 190,
          "midi": 47,
          "name": "B2",
          "ticks": 55584,
          "time": 197.38631099999998,
          "velocity": 0.5905511811023622
        },
        {
          "duration": 0.33380672916666754,
          "durationTicks": 94,
          "midi": 47,
          "name": "B2",
          "ticks": 55776,
          "time": 198.06812899999997,
          "velocity": 0.5905511811023622
        },
        {
          "duration": 0.3338067291666391,
          "durationTicks": 94,
          "midi": 47,
          "name": "B2",
          "ticks": 55872,
          "time": 198.40903799999998,
          "velocity": 0.5905511811023622
        },
        {
          "duration": 0.3338067291666391,
          "durationTicks": 94,
          "midi": 47,
          "name": "B2",
          "ticks": 55968,
          "time": 198.749947,
          "velocity": 0.5905511811023622
        },
        {
          "duration": 0.33380672916666754,
          "durationTicks": 94,
          "midi": 47,
          "name": "B2",
          "ticks": 59136,
          "time": 209.99994399999997,
          "velocity": 0.5905511811023622
        },
        {
          "duration": 0.3338067291666391,
          "durationTicks": 94,
          "midi": 47,
          "name": "B2",
          "ticks": 59232,
          "time": 210.34085299999998,
          "velocity": 0.5905511811023622
        },
        {
          "duration": 0.33380672916666754,
          "durationTicks": 94,
          "midi": 47,
          "name": "B2",
          "ticks": 59328,
          "time": 210.68176199999996,
          "velocity": 0.5905511811023622
        },
        {
          "duration": 0.6747157291666497,
          "durationTicks": 190,
          "midi": 47,
          "name": "B2",
          "ticks": 59424,
          "time": 211.02267099999997,
          "velocity": 0.5905511811023622
        },
        {
          "duration": 0.33380672916666754,
          "durationTicks": 94,
          "midi": 47,
          "name": "B2",
          "ticks": 59616,
          "time": 211.70448899999997,
          "velocity": 0.5905511811023622
        },
        {
          "duration": 0.3338067291666391,
          "durationTicks": 94,
          "midi": 47,
          "name": "B2",
          "ticks": 59712,
          "time": 212.04539799999998,
          "velocity": 0.5905511811023622
        },
        {
          "duration": 0.3338067291666391,
          "durationTicks": 94,
          "midi": 47,
          "name": "B2",
          "ticks": 59808,
          "time": 212.386307,
          "velocity": 0.5905511811023622
        },
        {
          "duration": 0.33380672916666754,
          "durationTicks": 94,
          "midi": 47,
          "name": "B2",
          "ticks": 59904,
          "time": 212.72721599999997,
          "velocity": 0.5905511811023622
        },
        {
          "duration": 0.3338067291666391,
          "durationTicks": 94,
          "midi": 47,
          "name": "B2",
          "ticks": 60000,
          "time": 213.06812499999998,
          "velocity": 0.5905511811023622
        },
        {
          "duration": 0.33380672916666754,
          "durationTicks": 94,
          "midi": 47,
          "name": "B2",
          "ticks": 60096,
          "time": 213.40903399999996,
          "velocity": 0.5905511811023622
        },
        {
          "duration": 0.6747157291666497,
          "durationTicks": 190,
          "midi": 47,
          "name": "B2",
          "ticks": 60192,
          "time": 213.74994299999997,
          "velocity": 0.5905511811023622
        },
        {
          "duration": 0.33380672916666754,
          "durationTicks": 94,
          "midi": 47,
          "name": "B2",
          "ticks": 60384,
          "time": 214.43176099999997,
          "velocity": 0.5905511811023622
        },
        {
          "duration": 0.3338067291666391,
          "durationTicks": 94,
          "midi": 47,
          "name": "B2",
          "ticks": 60480,
          "time": 214.77266999999998,
          "velocity": 0.5905511811023622
        },
        {
          "duration": 0.3338067291666391,
          "durationTicks": 94,
          "midi": 47,
          "name": "B2",
          "ticks": 60576,
          "time": 215.113579,
          "velocity": 0.5905511811023622
        },
        {
          "duration": 0.33380672916666754,
          "durationTicks": 94,
          "midi": 47,
          "name": "B2",
          "ticks": 60672,
          "time": 215.45448799999997,
          "velocity": 0.5905511811023622
        },
        {
          "duration": 0.3338067291666391,
          "durationTicks": 94,
          "midi": 47,
          "name": "B2",
          "ticks": 60768,
          "time": 215.79539699999998,
          "velocity": 0.5905511811023622
        },
        {
          "duration": 0.33380672916666754,
          "durationTicks": 94,
          "midi": 47,
          "name": "B2",
          "ticks": 60864,
          "time": 216.13630599999996,
          "velocity": 0.5905511811023622
        },
        {
          "duration": 0.6747157291666497,
          "durationTicks": 190,
          "midi": 47,
          "name": "B2",
          "ticks": 60960,
          "time": 216.47721499999997,
          "velocity": 0.5905511811023622
        },
        {
          "duration": 0.33380672916666754,
          "durationTicks": 94,
          "midi": 47,
          "name": "B2",
          "ticks": 61152,
          "time": 217.15903299999997,
          "velocity": 0.5905511811023622
        },
        {
          "duration": 0.33380672916666754,
          "durationTicks": 94,
          "midi": 47,
          "name": "B2",
          "ticks": 61248,
          "time": 217.49994199999998,
          "velocity": 0.5905511811023622
        },
        {
          "duration": 0.3338067291666391,
          "durationTicks": 94,
          "midi": 47,
          "name": "B2",
          "ticks": 61344,
          "time": 217.840851,
          "velocity": 0.5905511811023622
        },
        {
          "duration": 0.33380672916666754,
          "durationTicks": 94,
          "midi": 47,
          "name": "B2",
          "ticks": 61440,
          "time": 218.18175999999997,
          "velocity": 0.5905511811023622
        },
        {
          "duration": 0.3338067291666391,
          "durationTicks": 94,
          "midi": 47,
          "name": "B2",
          "ticks": 61536,
          "time": 218.52266899999998,
          "velocity": 0.5905511811023622
        },
        {
          "duration": 0.3338067291666391,
          "durationTicks": 94,
          "midi": 47,
          "name": "B2",
          "ticks": 61632,
          "time": 218.863578,
          "velocity": 0.5905511811023622
        },
        {
          "duration": 0.6747157291666497,
          "durationTicks": 190,
          "midi": 47,
          "name": "B2",
          "ticks": 61728,
          "time": 219.20448699999997,
          "velocity": 0.5905511811023622
        },
        {
          "duration": 0.33380672916666754,
          "durationTicks": 94,
          "midi": 47,
          "name": "B2",
          "ticks": 61920,
          "time": 219.88630499999996,
          "velocity": 0.5905511811023622
        },
        {
          "duration": 0.33380672916666754,
          "durationTicks": 94,
          "midi": 47,
          "name": "B2",
          "ticks": 62016,
          "time": 220.22721399999998,
          "velocity": 0.5905511811023622
        },
        {
          "duration": 0.3338067291666391,
          "durationTicks": 94,
          "midi": 47,
          "name": "B2",
          "ticks": 62112,
          "time": 220.56812299999999,
          "velocity": 0.5905511811023622
        },
        {
          "duration": 0.33380672916666754,
          "durationTicks": 94,
          "midi": 47,
          "name": "B2",
          "ticks": 65280,
          "time": 231.81811999999996,
          "velocity": 0.5905511811023622
        },
        {
          "duration": 0.3338067291666391,
          "durationTicks": 94,
          "midi": 47,
          "name": "B2",
          "ticks": 65376,
          "time": 232.15902899999998,
          "velocity": 0.5905511811023622
        },
        {
          "duration": 0.3338067291666391,
          "durationTicks": 94,
          "midi": 47,
          "name": "B2",
          "ticks": 65472,
          "time": 232.499938,
          "velocity": 0.5905511811023622
        },
        {
          "duration": 0.6747157291666497,
          "durationTicks": 190,
          "midi": 47,
          "name": "B2",
          "ticks": 65568,
          "time": 232.84084699999997,
          "velocity": 0.5905511811023622
        },
        {
          "duration": 0.33380672916666754,
          "durationTicks": 94,
          "midi": 47,
          "name": "B2",
          "ticks": 65760,
          "time": 233.52266499999996,
          "velocity": 0.5905511811023622
        },
        {
          "duration": 0.33380672916666754,
          "durationTicks": 94,
          "midi": 47,
          "name": "B2",
          "ticks": 65856,
          "time": 233.86357399999997,
          "velocity": 0.5905511811023622
        },
        {
          "duration": 0.3338067291666391,
          "durationTicks": 94,
          "midi": 47,
          "name": "B2",
          "ticks": 65952,
          "time": 234.20448299999998,
          "velocity": 0.5905511811023622
        },
        {
          "duration": 0.33380672916666754,
          "durationTicks": 94,
          "midi": 47,
          "name": "B2",
          "ticks": 66048,
          "time": 234.54539199999996,
          "velocity": 0.5905511811023622
        },
        {
          "duration": 0.3338067291666391,
          "durationTicks": 94,
          "midi": 47,
          "name": "B2",
          "ticks": 66144,
          "time": 234.88630099999997,
          "velocity": 0.5905511811023622
        },
        {
          "duration": 0.3338067291666391,
          "durationTicks": 94,
          "midi": 47,
          "name": "B2",
          "ticks": 66240,
          "time": 235.22720999999999,
          "velocity": 0.5905511811023622
        },
        {
          "duration": 0.6747157291666497,
          "durationTicks": 190,
          "midi": 47,
          "name": "B2",
          "ticks": 66336,
          "time": 235.56811899999997,
          "velocity": 0.5905511811023622
        },
        {
          "duration": 0.33380672916666754,
          "durationTicks": 94,
          "midi": 47,
          "name": "B2",
          "ticks": 66528,
          "time": 236.24993699999996,
          "velocity": 0.5905511811023622
        },
        {
          "duration": 0.33380672916666754,
          "durationTicks": 94,
          "midi": 47,
          "name": "B2",
          "ticks": 66624,
          "time": 236.59084599999997,
          "velocity": 0.5905511811023622
        },
        {
          "duration": 0.3338067291666391,
          "durationTicks": 94,
          "midi": 47,
          "name": "B2",
          "ticks": 66720,
          "time": 236.93175499999998,
          "velocity": 0.5905511811023622
        },
        {
          "duration": 0.33380672916666754,
          "durationTicks": 94,
          "midi": 47,
          "name": "B2",
          "ticks": 69888,
          "time": 248.18175199999996,
          "velocity": 0.5905511811023622
        },
        {
          "duration": 0.33380672916666754,
          "durationTicks": 94,
          "midi": 47,
          "name": "B2",
          "ticks": 69984,
          "time": 248.52266099999997,
          "velocity": 0.5905511811023622
        },
        {
          "duration": 0.5042612291666444,
          "durationTicks": 142,
          "midi": 47,
          "name": "B2",
          "ticks": 70080,
          "time": 248.86356999999998,
          "velocity": 0.5905511811023622
        },
        {
          "duration": 0.16335222916666226,
          "durationTicks": 46,
          "midi": 47,
          "name": "B2",
          "ticks": 70224,
          "time": 249.37493349999997,
          "velocity": 0.5905511811023622
        },
        {
          "duration": 0.3338067291666391,
          "durationTicks": 94,
          "midi": 47,
          "name": "B2",
          "ticks": 70272,
          "time": 249.54538799999997,
          "velocity": 0.5905511811023622
        },
        {
          "duration": 0.3338067291666391,
          "durationTicks": 94,
          "midi": 47,
          "name": "B2",
          "ticks": 70368,
          "time": 249.88629699999998,
          "velocity": 0.5905511811023622
        },
        {
          "duration": 0.33380672916666754,
          "durationTicks": 94,
          "midi": 47,
          "name": "B2",
          "ticks": 70464,
          "time": 250.22720599999997,
          "velocity": 0.5905511811023622
        },
        {
          "duration": 0.16335222916666226,
          "durationTicks": 46,
          "midi": 47,
          "name": "B2",
          "ticks": 70560,
          "time": 250.56811499999998,
          "velocity": 0.5905511811023622
        },
        {
          "duration": 0.16335222916663383,
          "durationTicks": 46,
          "midi": 47,
          "name": "B2",
          "ticks": 70608,
          "time": 250.73856949999998,
          "velocity": 0.5905511811023622
        },
        {
          "duration": 0.33380672916666754,
          "durationTicks": 94,
          "midi": 47,
          "name": "B2",
          "ticks": 70656,
          "time": 250.90902399999996,
          "velocity": 0.5905511811023622
        },
        {
          "duration": 0.33380672916666754,
          "durationTicks": 94,
          "midi": 47,
          "name": "B2",
          "ticks": 70752,
          "time": 251.24993299999997,
          "velocity": 0.5905511811023622
        },
        {
          "duration": 0.5042612291666444,
          "durationTicks": 142,
          "midi": 47,
          "name": "B2",
          "ticks": 70848,
          "time": 251.59084199999998,
          "velocity": 0.5905511811023622
        },
        {
          "duration": 0.16335222916666226,
          "durationTicks": 46,
          "midi": 47,
          "name": "B2",
          "ticks": 70992,
          "time": 252.10220549999997,
          "velocity": 0.5905511811023622
        },
        {
          "duration": 0.3338067291666391,
          "durationTicks": 94,
          "midi": 47,
          "name": "B2",
          "ticks": 71040,
          "time": 252.27265999999997,
          "velocity": 0.5905511811023622
        },
        {
          "duration": 0.3338067291666391,
          "durationTicks": 94,
          "midi": 47,
          "name": "B2",
          "ticks": 71136,
          "time": 252.61356899999998,
          "velocity": 0.5905511811023622
        },
        {
          "duration": 0.33380672916666754,
          "durationTicks": 94,
          "midi": 47,
          "name": "B2",
          "ticks": 71232,
          "time": 252.95447799999997,
          "velocity": 0.5905511811023622
        },
        {
          "duration": 0.16335222916666226,
          "durationTicks": 46,
          "midi": 47,
          "name": "B2",
          "ticks": 71328,
          "time": 253.29538699999998,
          "velocity": 0.5905511811023622
        },
        {
          "duration": 0.16335222916663383,
          "durationTicks": 46,
          "midi": 47,
          "name": "B2",
          "ticks": 71376,
          "time": 253.46584149999998,
          "velocity": 0.5905511811023622
        },
        {
          "duration": 0.5681816666666748,
          "durationTicks": 160,
          "midi": 42,
          "name": "F#2",
          "ticks": 71424,
          "time": 253.63629599999996,
          "velocity": 0.5905511811023622
        },
        {
          "duration": 0.5681816666666748,
          "durationTicks": 160,
          "midi": 49,
          "name": "C#3",
          "ticks": 71424,
          "time": 253.63629599999996,
          "velocity": 0.5905511811023622
        },
        {
          "duration": 0.5042612291666444,
          "durationTicks": 142,
          "midi": 42,
          "name": "F#2",
          "ticks": 71616,
          "time": 254.31811399999998,
          "velocity": 0.5905511811023622
        },
        {
          "duration": 0.5042612291666444,
          "durationTicks": 142,
          "midi": 49,
          "name": "C#3",
          "ticks": 71616,
          "time": 254.31811399999998,
          "velocity": 0.5905511811023622
        },
        {
          "duration": 0.16335222916666226,
          "durationTicks": 46,
          "midi": 42,
          "name": "F#2",
          "ticks": 71760,
          "time": 254.82947749999997,
          "velocity": 0.5905511811023622
        },
        {
          "duration": 0.16335222916666226,
          "durationTicks": 46,
          "midi": 49,
          "name": "C#3",
          "ticks": 71760,
          "time": 254.82947749999997,
          "velocity": 0.5905511811023622
        },
        {
          "duration": 0.3338067291666391,
          "durationTicks": 94,
          "midi": 42,
          "name": "F#2",
          "ticks": 71808,
          "time": 254.99993199999997,
          "velocity": 0.5905511811023622
        },
        {
          "duration": 0.3338067291666391,
          "durationTicks": 94,
          "midi": 49,
          "name": "C#3",
          "ticks": 71808,
          "time": 254.99993199999997,
          "velocity": 0.5905511811023622
        },
        {
          "duration": 0.3338067291666391,
          "durationTicks": 94,
          "midi": 42,
          "name": "F#2",
          "ticks": 71904,
          "time": 255.34084099999998,
          "velocity": 0.5905511811023622
        },
        {
          "duration": 0.3338067291666391,
          "durationTicks": 94,
          "midi": 49,
          "name": "C#3",
          "ticks": 71904,
          "time": 255.34084099999998,
          "velocity": 0.5905511811023622
        },
        {
          "duration": 0.33380672916666754,
          "durationTicks": 94,
          "midi": 42,
          "name": "F#2",
          "ticks": 72000,
          "time": 255.68174999999997,
          "velocity": 0.5905511811023622
        },
        {
          "duration": 0.33380672916666754,
          "durationTicks": 94,
          "midi": 49,
          "name": "C#3",
          "ticks": 72000,
          "time": 255.68174999999997,
          "velocity": 0.5905511811023622
        },
        {
          "duration": 0.16335222916666226,
          "durationTicks": 46,
          "midi": 42,
          "name": "F#2",
          "ticks": 72096,
          "time": 256.022659,
          "velocity": 0.5905511811023622
        },
        {
          "duration": 0.16335222916666226,
          "durationTicks": 46,
          "midi": 49,
          "name": "C#3",
          "ticks": 72096,
          "time": 256.022659,
          "velocity": 0.5905511811023622
        },
        {
          "duration": 0.16335222916666226,
          "durationTicks": 46,
          "midi": 42,
          "name": "F#2",
          "ticks": 72144,
          "time": 256.1931135,
          "velocity": 0.5905511811023622
        },
        {
          "duration": 0.16335222916666226,
          "durationTicks": 46,
          "midi": 49,
          "name": "C#3",
          "ticks": 72144,
          "time": 256.1931135,
          "velocity": 0.5905511811023622
        },
        {
          "duration": 0.5681816666666464,
          "durationTicks": 160,
          "midi": 42,
          "name": "F#2",
          "ticks": 72192,
          "time": 256.363568,
          "velocity": 0.5905511811023622
        },
        {
          "duration": 0.5681816666666464,
          "durationTicks": 160,
          "midi": 49,
          "name": "C#3",
          "ticks": 72192,
          "time": 256.363568,
          "velocity": 0.5905511811023622
        },
        {
          "duration": 0.5042612291666728,
          "durationTicks": 142,
          "midi": 42,
          "name": "F#2",
          "ticks": 72384,
          "time": 257.04538599999995,
          "velocity": 0.5905511811023622
        },
        {
          "duration": 0.5042612291666728,
          "durationTicks": 142,
          "midi": 49,
          "name": "C#3",
          "ticks": 72384,
          "time": 257.04538599999995,
          "velocity": 0.5905511811023622
        },
        {
          "duration": 0.16335222916666226,
          "durationTicks": 46,
          "midi": 42,
          "name": "F#2",
          "ticks": 72528,
          "time": 257.55674949999997,
          "velocity": 0.5905511811023622
        },
        {
          "duration": 0.16335222916666226,
          "durationTicks": 46,
          "midi": 49,
          "name": "C#3",
          "ticks": 72528,
          "time": 257.55674949999997,
          "velocity": 0.5905511811023622
        },
        {
          "duration": 0.33380672916666754,
          "durationTicks": 94,
          "midi": 42,
          "name": "F#2",
          "ticks": 72576,
          "time": 257.727204,
          "velocity": 0.5905511811023622
        },
        {
          "duration": 0.33380672916666754,
          "durationTicks": 94,
          "midi": 49,
          "name": "C#3",
          "ticks": 72576,
          "time": 257.727204,
          "velocity": 0.5905511811023622
        },
        {
          "duration": 0.33380672916666754,
          "durationTicks": 94,
          "midi": 42,
          "name": "F#2",
          "ticks": 72672,
          "time": 258.068113,
          "velocity": 0.5905511811023622
        },
        {
          "duration": 0.33380672916666754,
          "durationTicks": 94,
          "midi": 49,
          "name": "C#3",
          "ticks": 72672,
          "time": 258.068113,
          "velocity": 0.5905511811023622
        },
        {
          "duration": 0.3338067291666107,
          "durationTicks": 94,
          "midi": 42,
          "name": "F#2",
          "ticks": 72768,
          "time": 258.409022,
          "velocity": 0.5905511811023622
        },
        {
          "duration": 0.3338067291666107,
          "durationTicks": 94,
          "midi": 49,
          "name": "C#3",
          "ticks": 72768,
          "time": 258.409022,
          "velocity": 0.5905511811023622
        },
        {
          "duration": 0.16335222916666226,
          "durationTicks": 46,
          "midi": 42,
          "name": "F#2",
          "ticks": 72864,
          "time": 258.74993099999995,
          "velocity": 0.5905511811023622
        },
        {
          "duration": 0.16335222916666226,
          "durationTicks": 46,
          "midi": 49,
          "name": "C#3",
          "ticks": 72864,
          "time": 258.74993099999995,
          "velocity": 0.5905511811023622
        },
        {
          "duration": 0.07812497916665961,
          "durationTicks": 22,
          "midi": 42,
          "name": "F#2",
          "ticks": 72912,
          "time": 258.92038549999995,
          "velocity": 0.5905511811023622
        },
        {
          "duration": 0.07812497916665961,
          "durationTicks": 22,
          "midi": 49,
          "name": "C#3",
          "ticks": 72912,
          "time": 258.92038549999995,
          "velocity": 0.5905511811023622
        },
        {
          "duration": 0.07812497916665961,
          "durationTicks": 22,
          "midi": 40,
          "name": "E2",
          "ticks": 72936,
          "time": 259.00561274999995,
          "velocity": 0.5905511811023622
        },
        {
          "duration": 5.284089499999993,
          "durationTicks": 1488,
          "midi": 47,
          "name": "B2",
          "ticks": 72960,
          "time": 259.09083999999996,
          "velocity": 0.5905511811023622
        }
      ],
      "endOfTrackTicks": 74448
    },
    {
      "channel": 6,
      "controlChanges": {
        "7": [
          {
            "number": 7,
            "ticks": 0,
            "time": 0,
            "value": 1
          },
          {
            "number": 7,
            "ticks": 0,
            "time": 0,
            "value": 1
          }
        ],
        "10": [
          {
            "number": 10,
            "ticks": 0,
            "time": 0,
            "value": 0.5039370078740157
          },
          {
            "number": 10,
            "ticks": 0,
            "time": 0,
            "value": 0.5039370078740157
          }
        ]
      },
      "pitchBends": [],
      "instrument": {
        "family": "guitar",
        "number": 27,
        "name": "electric guitar (clean)"
      },
      "name": " ",
      "notes": [
        {
          "duration": 0.9090906666666658,
          "durationTicks": 256,
          "midi": 47,
          "name": "B2",
          "ticks": 2304,
          "time": 8.181816,
          "velocity": 0.5905511811023622
        },
        {
          "duration": 0.9090906666666658,
          "durationTicks": 256,
          "midi": 54,
          "name": "F#3",
          "ticks": 2304,
          "time": 8.181816,
          "velocity": 0.5905511811023622
        },
        {
          "duration": 0.9090906666666658,
          "durationTicks": 256,
          "midi": 63,
          "name": "D#4",
          "ticks": 2304,
          "time": 8.181816,
          "velocity": 0.5905511811023622
        },
        {
          "duration": 0.6747157291666674,
          "durationTicks": 190,
          "midi": 47,
          "name": "B2",
          "ticks": 2592,
          "time": 9.204543,
          "velocity": 0.5905511811023622
        },
        {
          "duration": 0.6747157291666674,
          "durationTicks": 190,
          "midi": 54,
          "name": "F#3",
          "ticks": 2592,
          "time": 9.204543,
          "velocity": 0.5905511811023622
        },
        {
          "duration": 0.6747157291666674,
          "durationTicks": 190,
          "midi": 63,
          "name": "D#4",
          "ticks": 2592,
          "time": 9.204543,
          "velocity": 0.5905511811023622
        },
        {
          "duration": 0.33380672916666754,
          "durationTicks": 94,
          "midi": 47,
          "name": "B2",
          "ticks": 2784,
          "time": 9.886360999999999,
          "velocity": 0.5905511811023622
        },
        {
          "duration": 0.33380672916666754,
          "durationTicks": 94,
          "midi": 54,
          "name": "F#3",
          "ticks": 2784,
          "time": 9.886360999999999,
          "velocity": 0.5905511811023622
        },
        {
          "duration": 0.33380672916666754,
          "durationTicks": 94,
          "midi": 47,
          "name": "B2",
          "ticks": 2880,
          "time": 10.227269999999999,
          "velocity": 0.5905511811023622
        },
        {
          "duration": 0.33380672916666754,
          "durationTicks": 94,
          "midi": 54,
          "name": "F#3",
          "ticks": 2880,
          "time": 10.227269999999999,
          "velocity": 0.5905511811023622
        },
        {
          "duration": 0.33380672916666754,
          "durationTicks": 94,
          "midi": 63,
          "name": "D#4",
          "ticks": 2880,
          "time": 10.227269999999999,
          "velocity": 0.5905511811023622
        },
        {
          "duration": 0.16335222916666758,
          "durationTicks": 46,
          "midi": 47,
          "name": "B2",
          "ticks": 2976,
          "time": 10.568178999999999,
          "velocity": 0.5905511811023622
        },
        {
          "duration": 0.16335222916666758,
          "durationTicks": 46,
          "midi": 54,
          "name": "F#3",
          "ticks": 2976,
          "time": 10.568178999999999,
          "velocity": 0.5905511811023622
        },
        {
          "duration": 0.16335222916666758,
          "durationTicks": 46,
          "midi": 63,
          "name": "D#4",
          "ticks": 2976,
          "time": 10.568178999999999,
          "velocity": 0.5905511811023622
        },
        {
          "duration": 0.16335222916666758,
          "durationTicks": 46,
          "midi": 47,
          "name": "B2",
          "ticks": 3024,
          "time": 10.738633499999999,
          "velocity": 0.5905511811023622
        },
        {
          "duration": 0.16335222916666758,
          "durationTicks": 46,
          "midi": 54,
          "name": "F#3",
          "ticks": 3024,
          "time": 10.738633499999999,
          "velocity": 0.5905511811023622
        },
        {
          "duration": 0.16335222916666758,
          "durationTicks": 46,
          "midi": 63,
          "name": "D#4",
          "ticks": 3024,
          "time": 10.738633499999999,
          "velocity": 0.5905511811023622
        },
        {
          "duration": 2.549715229166665,
          "durationTicks": 718,
          "midi": 47,
          "name": "B2",
          "ticks": 3072,
          "time": 10.909087999999999,
          "velocity": 0.5905511811023622
        },
        {
          "duration": 2.549715229166665,
          "durationTicks": 718,
          "midi": 54,
          "name": "F#3",
          "ticks": 3072,
          "time": 10.909087999999999,
          "velocity": 0.5905511811023622
        },
        {
          "duration": 2.549715229166665,
          "durationTicks": 718,
          "midi": 63,
          "name": "D#4",
          "ticks": 3072,
          "time": 10.909087999999999,
          "velocity": 0.5905511811023622
        },
        {
          "duration": 0.1633522291666658,
          "durationTicks": 46,
          "midi": 47,
          "name": "B2",
          "ticks": 3792,
          "time": 13.465905499999998,
          "velocity": 0.5905511811023622
        },
        {
          "duration": 0.1633522291666658,
          "durationTicks": 46,
          "midi": 54,
          "name": "F#3",
          "ticks": 3792,
          "time": 13.465905499999998,
          "velocity": 0.5905511811023622
        },
        {
          "duration": 0.1633522291666658,
          "durationTicks": 46,
          "midi": 63,
          "name": "D#4",
          "ticks": 3792,
          "time": 13.465905499999998,
          "velocity": 0.5905511811023622
        },
        {
          "duration": 0.33380672916666576,
          "durationTicks": 94,
          "midi": 47,
          "name": "B2",
          "ticks": 3840,
          "time": 13.636359999999998,
          "velocity": 0.5905511811023622
        },
        {
          "duration": 0.33380672916666576,
          "durationTicks": 94,
          "midi": 54,
          "name": "F#3",
          "ticks": 3840,
          "time": 13.636359999999998,
          "velocity": 0.5905511811023622
        },
        {
          "duration": 0.33380672916666576,
          "durationTicks": 94,
          "midi": 63,
          "name": "D#4",
          "ticks": 3840,
          "time": 13.636359999999998,
          "velocity": 0.5905511811023622
        },
        {
          "duration": 0.33380672916666576,
          "durationTicks": 94,
          "midi": 47,
          "name": "B2",
          "ticks": 3936,
          "time": 13.977268999999998,
          "velocity": 0.5905511811023622
        },
        {
          "duration": 0.33380672916666576,
          "durationTicks": 94,
          "midi": 54,
          "name": "F#3",
          "ticks": 3936,
          "time": 13.977268999999998,
          "velocity": 0.5905511811023622
        },
        {
          "duration": 0.33380672916666576,
          "durationTicks": 94,
          "midi": 63,
          "name": "D#4",
          "ticks": 3936,
          "time": 13.977268999999998,
          "velocity": 0.5905511811023622
        },
        {
          "duration": 0.33380672916666576,
          "durationTicks": 94,
          "midi": 47,
          "name": "B2",
          "ticks": 4032,
          "time": 14.318177999999998,
          "velocity": 0.5905511811023622
        },
        {
          "duration": 0.33380672916666576,
          "durationTicks": 94,
          "midi": 54,
          "name": "F#3",
          "ticks": 4032,
          "time": 14.318177999999998,
          "velocity": 0.5905511811023622
        },
        {
          "duration": 0.33380672916666576,
          "durationTicks": 94,
          "midi": 63,
          "name": "D#4",
          "ticks": 4032,
          "time": 14.318177999999998,
          "velocity": 0.5905511811023622
        },
        {
          "duration": 0.33380672916666576,
          "durationTicks": 94,
          "midi": 47,
          "name": "B2",
          "ticks": 4128,
          "time": 14.659086999999998,
          "velocity": 0.5905511811023622
        },
        {
          "duration": 0.33380672916666576,
          "durationTicks": 94,
          "midi": 54,
          "name": "F#3",
          "ticks": 4128,
          "time": 14.659086999999998,
          "velocity": 0.5905511811023622
        },
        {
          "duration": 0.33380672916666576,
          "durationTicks": 94,
          "midi": 63,
          "name": "D#4",
          "ticks": 4128,
          "time": 14.659086999999998,
          "velocity": 0.5905511811023622
        },
        {
          "duration": 0.33380672916666576,
          "durationTicks": 94,
          "midi": 47,
          "name": "B2",
          "ticks": 4224,
          "time": 14.999995999999998,
          "velocity": 0.5905511811023622
        },
        {
          "duration": 0.33380672916666576,
          "durationTicks": 94,
          "midi": 54,
          "name": "F#3",
          "ticks": 4224,
          "time": 14.999995999999998,
          "velocity": 0.5905511811023622
        },
        {
          "duration": 0.33380672916666576,
          "durationTicks": 94,
          "midi": 63,
          "name": "D#4",
          "ticks": 4224,
          "time": 14.999995999999998,
          "velocity": 0.5905511811023622
        },
        {
          "duration": 0.33380672916666576,
          "durationTicks": 94,
          "midi": 47,
          "name": "B2",
          "ticks": 4320,
          "time": 15.340904999999998,
          "velocity": 0.5905511811023622
        },
        {
          "duration": 0.33380672916666576,
          "durationTicks": 94,
          "midi": 54,
          "name": "F#3",
          "ticks": 4320,
          "time": 15.340904999999998,
          "velocity": 0.5905511811023622
        },
        {
          "duration": 0.33380672916666576,
          "durationTicks": 94,
          "midi": 63,
          "name": "D#4",
          "ticks": 4320,
          "time": 15.340904999999998,
          "velocity": 0.5905511811023622
        },
        {
          "duration": 0.33380672916666576,
          "durationTicks": 94,
          "midi": 47,
          "name": "B2",
          "ticks": 4416,
          "time": 15.681813999999997,
          "velocity": 0.5905511811023622
        },
        {
          "duration": 0.33380672916666576,
          "durationTicks": 94,
          "midi": 54,
          "name": "F#3",
          "ticks": 4416,
          "time": 15.681813999999997,
          "velocity": 0.5905511811023622
        },
        {
          "duration": 0.33380672916666576,
          "durationTicks": 94,
          "midi": 63,
          "name": "D#4",
          "ticks": 4416,
          "time": 15.681813999999997,
          "velocity": 0.5905511811023622
        },
        {
          "duration": 0.333806729166664,
          "durationTicks": 94,
          "midi": 47,
          "name": "B2",
          "ticks": 4512,
          "time": 16.022723,
          "velocity": 0.5905511811023622
        },
        {
          "duration": 0.333806729166664,
          "durationTicks": 94,
          "midi": 54,
          "name": "F#3",
          "ticks": 4512,
          "time": 16.022723,
          "velocity": 0.5905511811023622
        },
        {
          "duration": 0.333806729166664,
          "durationTicks": 94,
          "midi": 63,
          "name": "D#4",
          "ticks": 4512,
          "time": 16.022723,
          "velocity": 0.5905511811023622
        },
        {
          "duration": 0.333806729166664,
          "durationTicks": 94,
          "midi": 47,
          "name": "B2",
          "ticks": 4608,
          "time": 16.363632,
          "velocity": 0.5905511811023622
        },
        {
          "duration": 0.333806729166664,
          "durationTicks": 94,
          "midi": 54,
          "name": "F#3",
          "ticks": 4608,
          "time": 16.363632,
          "velocity": 0.5905511811023622
        },
        {
          "duration": 0.333806729166664,
          "durationTicks": 94,
          "midi": 63,
          "name": "D#4",
          "ticks": 4608,
          "time": 16.363632,
          "velocity": 0.5905511811023622
        },
        {
          "duration": 0.333806729166664,
          "durationTicks": 94,
          "midi": 47,
          "name": "B2",
          "ticks": 4704,
          "time": 16.704541,
          "velocity": 0.5905511811023622
        },
        {
          "duration": 0.333806729166664,
          "durationTicks": 94,
          "midi": 54,
          "name": "F#3",
          "ticks": 4704,
          "time": 16.704541,
          "velocity": 0.5905511811023622
        },
        {
          "duration": 0.333806729166664,
          "durationTicks": 94,
          "midi": 63,
          "name": "D#4",
          "ticks": 4704,
          "time": 16.704541,
          "velocity": 0.5905511811023622
        },
        {
          "duration": 0.333806729166664,
          "durationTicks": 94,
          "midi": 47,
          "name": "B2",
          "ticks": 4800,
          "time": 17.04545,
          "velocity": 0.5905511811023622
        },
        {
          "duration": 0.333806729166664,
          "durationTicks": 94,
          "midi": 54,
          "name": "F#3",
          "ticks": 4800,
          "time": 17.04545,
          "velocity": 0.5905511811023622
        },
        {
          "duration": 0.333806729166664,
          "durationTicks": 94,
          "midi": 63,
          "name": "D#4",
          "ticks": 4800,
          "time": 17.04545,
          "velocity": 0.5905511811023622
        },
        {
          "duration": 0.333806729166664,
          "durationTicks": 94,
          "midi": 47,
          "name": "B2",
          "ticks": 4896,
          "time": 17.386359,
          "velocity": 0.5905511811023622
        },
        {
          "duration": 0.333806729166664,
          "durationTicks": 94,
          "midi": 54,
          "name": "F#3",
          "ticks": 4896,
          "time": 17.386359,
          "velocity": 0.5905511811023622
        },
        {
          "duration": 0.333806729166664,
          "durationTicks": 94,
          "midi": 63,
          "name": "D#4",
          "ticks": 4896,
          "time": 17.386359,
          "velocity": 0.5905511811023622
        },
        {
          "duration": 0.333806729166664,
          "durationTicks": 94,
          "midi": 47,
          "name": "B2",
          "ticks": 4992,
          "time": 17.727268,
          "velocity": 0.5905511811023622
        },
        {
          "duration": 0.333806729166664,
          "durationTicks": 94,
          "midi": 54,
          "name": "F#3",
          "ticks": 4992,
          "time": 17.727268,
          "velocity": 0.5905511811023622
        },
        {
          "duration": 0.333806729166664,
          "durationTicks": 94,
          "midi": 63,
          "name": "D#4",
          "ticks": 4992,
          "time": 17.727268,
          "velocity": 0.5905511811023622
        },
        {
          "duration": 0.333806729166664,
          "durationTicks": 94,
          "midi": 47,
          "name": "B2",
          "ticks": 5088,
          "time": 18.068177,
          "velocity": 0.5905511811023622
        },
        {
          "duration": 0.333806729166664,
          "durationTicks": 94,
          "midi": 54,
          "name": "F#3",
          "ticks": 5088,
          "time": 18.068177,
          "velocity": 0.5905511811023622
        },
        {
          "duration": 0.333806729166664,
          "durationTicks": 94,
          "midi": 63,
          "name": "D#4",
          "ticks": 5088,
          "time": 18.068177,
          "velocity": 0.5905511811023622
        },
        {
          "duration": 0.333806729166664,
          "durationTicks": 94,
          "midi": 47,
          "name": "B2",
          "ticks": 5184,
          "time": 18.409086,
          "velocity": 0.5905511811023622
        },
        {
          "duration": 0.333806729166664,
          "durationTicks": 94,
          "midi": 54,
          "name": "F#3",
          "ticks": 5184,
          "time": 18.409086,
          "velocity": 0.5905511811023622
        },
        {
          "duration": 0.333806729166664,
          "durationTicks": 94,
          "midi": 63,
          "name": "D#4",
          "ticks": 5184,
          "time": 18.409086,
          "velocity": 0.5905511811023622
        },
        {
          "duration": 0.333806729166664,
          "durationTicks": 94,
          "midi": 47,
          "name": "B2",
          "ticks": 5280,
          "time": 18.749995,
          "velocity": 0.5905511811023622
        },
        {
          "duration": 0.333806729166664,
          "durationTicks": 94,
          "midi": 54,
          "name": "F#3",
          "ticks": 5280,
          "time": 18.749995,
          "velocity": 0.5905511811023622
        },
        {
          "duration": 0.333806729166664,
          "durationTicks": 94,
          "midi": 63,
          "name": "D#4",
          "ticks": 5280,
          "time": 18.749995,
          "velocity": 0.5905511811023622
        },
        {
          "duration": 0.333806729166664,
          "durationTicks": 94,
          "midi": 54,
          "name": "F#3",
          "ticks": 5376,
          "time": 19.090904,
          "velocity": 0.5905511811023622
        },
        {
          "duration": 0.333806729166664,
          "durationTicks": 94,
          "midi": 59,
          "name": "B3",
          "ticks": 5376,
          "time": 19.090904,
          "velocity": 0.5905511811023622
        },
        {
          "duration": 0.333806729166664,
          "durationTicks": 94,
          "midi": 61,
          "name": "C#4",
          "ticks": 5376,
          "time": 19.090904,
          "velocity": 0.5905511811023622
        },
        {
          "duration": 0.333806729166664,
          "durationTicks": 94,
          "midi": 54,
          "name": "F#3",
          "ticks": 5472,
          "time": 19.431813,
          "velocity": 0.5905511811023622
        },
        {
          "duration": 0.333806729166664,
          "durationTicks": 94,
          "midi": 59,
          "name": "B3",
          "ticks": 5472,
          "time": 19.431813,
          "velocity": 0.5905511811023622
        },
        {
          "duration": 0.333806729166664,
          "durationTicks": 94,
          "midi": 61,
          "name": "C#4",
          "ticks": 5472,
          "time": 19.431813,
          "velocity": 0.5905511811023622
        },
        {
          "duration": 0.333806729166664,
          "durationTicks": 94,
          "midi": 54,
          "name": "F#3",
          "ticks": 5568,
          "time": 19.772721999999998,
          "velocity": 0.5905511811023622
        },
        {
          "duration": 0.333806729166664,
          "durationTicks": 94,
          "midi": 59,
          "name": "B3",
          "ticks": 5568,
          "time": 19.772721999999998,
          "velocity": 0.5905511811023622
        },
        {
          "duration": 0.333806729166664,
          "durationTicks": 94,
          "midi": 61,
          "name": "C#4",
          "ticks": 5568,
          "time": 19.772721999999998,
          "velocity": 0.5905511811023622
        },
        {
          "duration": 0.333806729166664,
          "durationTicks": 94,
          "midi": 54,
          "name": "F#3",
          "ticks": 5664,
          "time": 20.113630999999998,
          "velocity": 0.5905511811023622
        },
        {
          "duration": 0.333806729166664,
          "durationTicks": 94,
          "midi": 59,
          "name": "B3",
          "ticks": 5664,
          "time": 20.113630999999998,
          "velocity": 0.5905511811023622
        },
        {
          "duration": 0.333806729166664,
          "durationTicks": 94,
          "midi": 61,
          "name": "C#4",
          "ticks": 5664,
          "time": 20.113630999999998,
          "velocity": 0.5905511811023622
        },
        {
          "duration": 0.333806729166664,
          "durationTicks": 94,
          "midi": 54,
          "name": "F#3",
          "ticks": 5760,
          "time": 20.454539999999998,
          "velocity": 0.5905511811023622
        },
        {
          "duration": 0.333806729166664,
          "durationTicks": 94,
          "midi": 59,
          "name": "B3",
          "ticks": 5760,
          "time": 20.454539999999998,
          "velocity": 0.5905511811023622
        },
        {
          "duration": 0.333806729166664,
          "durationTicks": 94,
          "midi": 61,
          "name": "C#4",
          "ticks": 5760,
          "time": 20.454539999999998,
          "velocity": 0.5905511811023622
        },
        {
          "duration": 0.333806729166664,
          "durationTicks": 94,
          "midi": 54,
          "name": "F#3",
          "ticks": 5856,
          "time": 20.795448999999998,
          "velocity": 0.5905511811023622
        },
        {
          "duration": 0.333806729166664,
          "durationTicks": 94,
          "midi": 59,
          "name": "B3",
          "ticks": 5856,
          "time": 20.795448999999998,
          "velocity": 0.5905511811023622
        },
        {
          "duration": 0.333806729166664,
          "durationTicks": 94,
          "midi": 61,
          "name": "C#4",
          "ticks": 5856,
          "time": 20.795448999999998,
          "velocity": 0.5905511811023622
        },
        {
          "duration": 0.333806729166664,
          "durationTicks": 94,
          "midi": 54,
          "name": "F#3",
          "ticks": 5952,
          "time": 21.136357999999998,
          "velocity": 0.5905511811023622
        },
        {
          "duration": 0.333806729166664,
          "durationTicks": 94,
          "midi": 59,
          "name": "B3",
          "ticks": 5952,
          "time": 21.136357999999998,
          "velocity": 0.5905511811023622
        },
        {
          "duration": 0.333806729166664,
          "durationTicks": 94,
          "midi": 61,
          "name": "C#4",
          "ticks": 5952,
          "time": 21.136357999999998,
          "velocity": 0.5905511811023622
        },
        {
          "duration": 0.33380672916666754,
          "durationTicks": 94,
          "midi": 54,
          "name": "F#3",
          "ticks": 6048,
          "time": 21.477266999999998,
          "velocity": 0.5905511811023622
        },
        {
          "duration": 0.33380672916666754,
          "durationTicks": 94,
          "midi": 59,
          "name": "B3",
          "ticks": 6048,
          "time": 21.477266999999998,
          "velocity": 0.5905511811023622
        },
        {
          "duration": 0.33380672916666754,
          "durationTicks": 94,
          "midi": 61,
          "name": "C#4",
          "ticks": 6048,
          "time": 21.477266999999998,
          "velocity": 0.5905511811023622
        },
        {
          "duration": 0.33380672916666754,
          "durationTicks": 94,
          "midi": 54,
          "name": "F#3",
          "ticks": 6144,
          "time": 21.818175999999998,
          "velocity": 0.5905511811023622
        },
        {
          "duration": 0.33380672916666754,
          "durationTicks": 94,
          "midi": 59,
          "name": "B3",
          "ticks": 6144,
          "time": 21.818175999999998,
          "velocity": 0.5905511811023622
        },
        {
          "duration": 0.33380672916666754,
          "durationTicks": 94,
          "midi": 61,
          "name": "C#4",
          "ticks": 6144,
          "time": 21.818175999999998,
          "velocity": 0.5905511811023622
        },
        {
          "duration": 0.33380672916666754,
          "durationTicks": 94,
          "midi": 54,
          "name": "F#3",
          "ticks": 6240,
          "time": 22.159084999999997,
          "velocity": 0.5905511811023622
        },
        {
          "duration": 0.33380672916666754,
          "durationTicks": 94,
          "midi": 59,
          "name": "B3",
          "ticks": 6240,
          "time": 22.159084999999997,
          "velocity": 0.5905511811023622
        },
        {
          "duration": 0.33380672916666754,
          "durationTicks": 94,
          "midi": 61,
          "name": "C#4",
          "ticks": 6240,
          "time": 22.159084999999997,
          "velocity": 0.5905511811023622
        },
        {
          "duration": 0.33380672916666754,
          "durationTicks": 94,
          "midi": 54,
          "name": "F#3",
          "ticks": 6336,
          "time": 22.499993999999997,
          "velocity": 0.5905511811023622
        },
        {
          "duration": 0.33380672916666754,
          "durationTicks": 94,
          "midi": 59,
          "name": "B3",
          "ticks": 6336,
          "time": 22.499993999999997,
          "velocity": 0.5905511811023622
        },
        {
          "duration": 0.33380672916666754,
          "durationTicks": 94,
          "midi": 61,
          "name": "C#4",
          "ticks": 6336,
          "time": 22.499993999999997,
          "velocity": 0.5905511811023622
        },
        {
          "duration": 0.33380672916666754,
          "durationTicks": 94,
          "midi": 54,
          "name": "F#3",
          "ticks": 6432,
          "time": 22.840902999999997,
          "velocity": 0.5905511811023622
        },
        {
          "duration": 0.33380672916666754,
          "durationTicks": 94,
          "midi": 59,
          "name": "B3",
          "ticks": 6432,
          "time": 22.840902999999997,
          "velocity": 0.5905511811023622
        },
        {
          "duration": 0.33380672916666754,
          "durationTicks": 94,
          "midi": 61,
          "name": "C#4",
          "ticks": 6432,
          "time": 22.840902999999997,
          "velocity": 0.5905511811023622
        },
        {
          "duration": 0.33380672916666754,
          "durationTicks": 94,
          "midi": 54,
          "name": "F#3",
          "ticks": 6528,
          "time": 23.181811999999997,
          "velocity": 0.5905511811023622
        },
        {
          "duration": 0.33380672916666754,
          "durationTicks": 94,
          "midi": 59,
          "name": "B3",
          "ticks": 6528,
          "time": 23.181811999999997,
          "velocity": 0.5905511811023622
        },
        {
          "duration": 0.33380672916666754,
          "durationTicks": 94,
          "midi": 61,
          "name": "C#4",
          "ticks": 6528,
          "time": 23.181811999999997,
          "velocity": 0.5905511811023622
        },
        {
          "duration": 0.33380672916666754,
          "durationTicks": 94,
          "midi": 54,
          "name": "F#3",
          "ticks": 6624,
          "time": 23.522720999999997,
          "velocity": 0.5905511811023622
        },
        {
          "duration": 0.33380672916666754,
          "durationTicks": 94,
          "midi": 59,
          "name": "B3",
          "ticks": 6624,
          "time": 23.522720999999997,
          "velocity": 0.5905511811023622
        },
        {
          "duration": 0.33380672916666754,
          "durationTicks": 94,
          "midi": 61,
          "name": "C#4",
          "ticks": 6624,
          "time": 23.522720999999997,
          "velocity": 0.5905511811023622
        },
        {
          "duration": 0.33380672916666754,
          "durationTicks": 94,
          "midi": 54,
          "name": "F#3",
          "ticks": 6720,
          "time": 23.863629999999997,
          "velocity": 0.5905511811023622
        },
        {
          "duration": 0.33380672916666754,
          "durationTicks": 94,
          "midi": 59,
          "name": "B3",
          "ticks": 6720,
          "time": 23.863629999999997,
          "velocity": 0.5905511811023622
        },
        {
          "duration": 0.33380672916666754,
          "durationTicks": 94,
          "midi": 61,
          "name": "C#4",
          "ticks": 6720,
          "time": 23.863629999999997,
          "velocity": 0.5905511811023622
        },
        {
          "duration": 0.33380672916666754,
          "durationTicks": 94,
          "midi": 54,
          "name": "F#3",
          "ticks": 6816,
          "time": 24.204538999999997,
          "velocity": 0.5905511811023622
        },
        {
          "duration": 0.33380672916666754,
          "durationTicks": 94,
          "midi": 59,
          "name": "B3",
          "ticks": 6816,
          "time": 24.204538999999997,
          "velocity": 0.5905511811023622
        },
        {
          "duration": 0.33380672916666754,
          "durationTicks": 94,
          "midi": 61,
          "name": "C#4",
          "ticks": 6816,
          "time": 24.204538999999997,
          "velocity": 0.5905511811023622
        },
        {
          "duration": 0.33380672916666754,
          "durationTicks": 94,
          "midi": 54,
          "name": "F#3",
          "ticks": 6912,
          "time": 24.545447999999997,
          "velocity": 0.5905511811023622
        },
        {
          "duration": 0.33380672916666754,
          "durationTicks": 94,
          "midi": 59,
          "name": "B3",
          "ticks": 6912,
          "time": 24.545447999999997,
          "velocity": 0.5905511811023622
        },
        {
          "duration": 0.33380672916666754,
          "durationTicks": 94,
          "midi": 63,
          "name": "D#4",
          "ticks": 6912,
          "time": 24.545447999999997,
          "velocity": 0.5905511811023622
        },
        {
          "duration": 0.33380672916666754,
          "durationTicks": 94,
          "midi": 54,
          "name": "F#3",
          "ticks": 7008,
          "time": 24.886356999999997,
          "velocity": 0.5905511811023622
        },
        {
          "duration": 0.33380672916666754,
          "durationTicks": 94,
          "midi": 59,
          "name": "B3",
          "ticks": 7008,
          "time": 24.886356999999997,
          "velocity": 0.5905511811023622
        },
        {
          "duration": 0.33380672916666754,
          "durationTicks": 94,
          "midi": 63,
          "name": "D#4",
          "ticks": 7008,
          "time": 24.886356999999997,
          "velocity": 0.5905511811023622
        },
        {
          "duration": 0.33380672916666754,
          "durationTicks": 94,
          "midi": 54,
          "name": "F#3",
          "ticks": 7104,
          "time": 25.227265999999997,
          "velocity": 0.5905511811023622
        },
        {
          "duration": 0.33380672916666754,
          "durationTicks": 94,
          "midi": 59,
          "name": "B3",
          "ticks": 7104,
          "time": 25.227265999999997,
          "velocity": 0.5905511811023622
        },
        {
          "duration": 0.33380672916666754,
          "durationTicks": 94,
          "midi": 63,
          "name": "D#4",
          "ticks": 7104,
          "time": 25.227265999999997,
          "velocity": 0.5905511811023622
        },
        {
          "duration": 0.33380672916666754,
          "durationTicks": 94,
          "midi": 54,
          "name": "F#3",
          "ticks": 7200,
          "time": 25.568174999999997,
          "velocity": 0.5905511811023622
        },
        {
          "duration": 0.33380672916666754,
          "durationTicks": 94,
          "midi": 59,
          "name": "B3",
          "ticks": 7200,
          "time": 25.568174999999997,
          "velocity": 0.5905511811023622
        },
        {
          "duration": 0.33380672916666754,
          "durationTicks": 94,
          "midi": 63,
          "name": "D#4",
          "ticks": 7200,
          "time": 25.568174999999997,
          "velocity": 0.5905511811023622
        },
        {
          "duration": 0.33380672916666754,
          "durationTicks": 94,
          "midi": 54,
          "name": "F#3",
          "ticks": 7296,
          "time": 25.909083999999996,
          "velocity": 0.5905511811023622
        },
        {
          "duration": 0.33380672916666754,
          "durationTicks": 94,
          "midi": 59,
          "name": "B3",
          "ticks": 7296,
          "time": 25.909083999999996,
          "velocity": 0.5905511811023622
        },
        {
          "duration": 0.33380672916666754,
          "durationTicks": 94,
          "midi": 63,
          "name": "D#4",
          "ticks": 7296,
          "time": 25.909083999999996,
          "velocity": 0.5905511811023622
        },
        {
          "duration": 0.33380672916666754,
          "durationTicks": 94,
          "midi": 54,
          "name": "F#3",
          "ticks": 7392,
          "time": 26.249992999999996,
          "velocity": 0.5905511811023622
        },
        {
          "duration": 0.33380672916666754,
          "durationTicks": 94,
          "midi": 59,
          "name": "B3",
          "ticks": 7392,
          "time": 26.249992999999996,
          "velocity": 0.5905511811023622
        },
        {
          "duration": 0.33380672916666754,
          "durationTicks": 94,
          "midi": 63,
          "name": "D#4",
          "ticks": 7392,
          "time": 26.249992999999996,
          "velocity": 0.5905511811023622
        },
        {
          "duration": 0.33380672916666754,
          "durationTicks": 94,
          "midi": 54,
          "name": "F#3",
          "ticks": 7488,
          "time": 26.590901999999996,
          "velocity": 0.5905511811023622
        },
        {
          "duration": 0.33380672916666754,
          "durationTicks": 94,
          "midi": 59,
          "name": "B3",
          "ticks": 7488,
          "time": 26.590901999999996,
          "velocity": 0.5905511811023622
        },
        {
          "duration": 0.33380672916666754,
          "durationTicks": 94,
          "midi": 63,
          "name": "D#4",
          "ticks": 7488,
          "time": 26.590901999999996,
          "velocity": 0.5905511811023622
        },
        {
          "duration": 0.33380672916666754,
          "durationTicks": 94,
          "midi": 54,
          "name": "F#3",
          "ticks": 7584,
          "time": 26.931810999999996,
          "velocity": 0.5905511811023622
        },
        {
          "duration": 0.33380672916666754,
          "durationTicks": 94,
          "midi": 59,
          "name": "B3",
          "ticks": 7584,
          "time": 26.931810999999996,
          "velocity": 0.5905511811023622
        },
        {
          "duration": 0.33380672916666754,
          "durationTicks": 94,
          "midi": 63,
          "name": "D#4",
          "ticks": 7584,
          "time": 26.931810999999996,
          "velocity": 0.5905511811023622
        },
        {
          "duration": 0.33380672916666754,
          "durationTicks": 94,
          "midi": 54,
          "name": "F#3",
          "ticks": 7680,
          "time": 27.272719999999996,
          "velocity": 0.5905511811023622
        },
        {
          "duration": 0.33380672916666754,
          "durationTicks": 94,
          "midi": 59,
          "name": "B3",
          "ticks": 7680,
          "time": 27.272719999999996,
          "velocity": 0.5905511811023622
        },
        {
          "duration": 0.33380672916666754,
          "durationTicks": 94,
          "midi": 63,
          "name": "D#4",
          "ticks": 7680,
          "time": 27.272719999999996,
          "velocity": 0.5905511811023622
        },
        {
          "duration": 0.33380672916666754,
          "durationTicks": 94,
          "midi": 54,
          "name": "F#3",
          "ticks": 7776,
          "time": 27.613628999999996,
          "velocity": 0.5905511811023622
        },
        {
          "duration": 0.33380672916666754,
          "durationTicks": 94,
          "midi": 59,
          "name": "B3",
          "ticks": 7776,
          "time": 27.613628999999996,
          "velocity": 0.5905511811023622
        },
        {
          "duration": 0.33380672916666754,
          "durationTicks": 94,
          "midi": 63,
          "name": "D#4",
          "ticks": 7776,
          "time": 27.613628999999996,
          "velocity": 0.5905511811023622
        },
        {
          "duration": 0.33380672916666754,
          "durationTicks": 94,
          "midi": 54,
          "name": "F#3",
          "ticks": 7872,
          "time": 27.954537999999996,
          "velocity": 0.5905511811023622
        },
        {
          "duration": 0.33380672916666754,
          "durationTicks": 94,
          "midi": 59,
          "name": "B3",
          "ticks": 7872,
          "time": 27.954537999999996,
          "velocity": 0.5905511811023622
        },
        {
          "duration": 0.33380672916666754,
          "durationTicks": 94,
          "midi": 63,
          "name": "D#4",
          "ticks": 7872,
          "time": 27.954537999999996,
          "velocity": 0.5905511811023622
        },
        {
          "duration": 0.33380672916666754,
          "durationTicks": 94,
          "midi": 54,
          "name": "F#3",
          "ticks": 7968,
          "time": 28.295446999999996,
          "velocity": 0.5905511811023622
        },
        {
          "duration": 0.33380672916666754,
          "durationTicks": 94,
          "midi": 59,
          "name": "B3",
          "ticks": 7968,
          "time": 28.295446999999996,
          "velocity": 0.5905511811023622
        },
        {
          "duration": 0.33380672916666754,
          "durationTicks": 94,
          "midi": 63,
          "name": "D#4",
          "ticks": 7968,
          "time": 28.295446999999996,
          "velocity": 0.5905511811023622
        },
        {
          "duration": 0.3338067291666711,
          "durationTicks": 94,
          "midi": 54,
          "name": "F#3",
          "ticks": 8064,
          "time": 28.636355999999996,
          "velocity": 0.5905511811023622
        },
        {
          "duration": 0.3338067291666711,
          "durationTicks": 94,
          "midi": 59,
          "name": "B3",
          "ticks": 8064,
          "time": 28.636355999999996,
          "velocity": 0.5905511811023622
        },
        {
          "duration": 0.3338067291666711,
          "durationTicks": 94,
          "midi": 63,
          "name": "D#4",
          "ticks": 8064,
          "time": 28.636355999999996,
          "velocity": 0.5905511811023622
        },
        {
          "duration": 0.3338067291666711,
          "durationTicks": 94,
          "midi": 54,
          "name": "F#3",
          "ticks": 8160,
          "time": 28.977264999999996,
          "velocity": 0.5905511811023622
        },
        {
          "duration": 0.3338067291666711,
          "durationTicks": 94,
          "midi": 59,
          "name": "B3",
          "ticks": 8160,
          "time": 28.977264999999996,
          "velocity": 0.5905511811023622
        },
        {
          "duration": 0.3338067291666711,
          "durationTicks": 94,
          "midi": 63,
          "name": "D#4",
          "ticks": 8160,
          "time": 28.977264999999996,
          "velocity": 0.5905511811023622
        },
        {
          "duration": 0.3338067291666711,
          "durationTicks": 94,
          "midi": 54,
          "name": "F#3",
          "ticks": 8256,
          "time": 29.318173999999996,
          "velocity": 0.5905511811023622
        },
        {
          "duration": 0.3338067291666711,
          "durationTicks": 94,
          "midi": 59,
          "name": "B3",
          "ticks": 8256,
          "time": 29.318173999999996,
          "velocity": 0.5905511811023622
        },
        {
          "duration": 0.3338067291666711,
          "durationTicks": 94,
          "midi": 63,
          "name": "D#4",
          "ticks": 8256,
          "time": 29.318173999999996,
          "velocity": 0.5905511811023622
        },
        {
          "duration": 0.3338067291666711,
          "durationTicks": 94,
          "midi": 54,
          "name": "F#3",
          "ticks": 8352,
          "time": 29.659082999999995,
          "velocity": 0.5905511811023622
        },
        {
          "duration": 0.3338067291666711,
          "durationTicks": 94,
          "midi": 59,
          "name": "B3",
          "ticks": 8352,
          "time": 29.659082999999995,
          "velocity": 0.5905511811023622
        },
        {
          "duration": 0.3338067291666711,
          "durationTicks": 94,
          "midi": 63,
          "name": "D#4",
          "ticks": 8352,
          "time": 29.659082999999995,
          "velocity": 0.5905511811023622
        },
        {
          "duration": 0.3338067291666711,
          "durationTicks": 94,
          "midi": 47,
          "name": "B2",
          "ticks": 8448,
          "time": 29.999991999999995,
          "velocity": 0.5905511811023622
        },
        {
          "duration": 0.3338067291666711,
          "durationTicks": 94,
          "midi": 59,
          "name": "B3",
          "ticks": 8448,
          "time": 29.999991999999995,
          "velocity": 0.5905511811023622
        },
        {
          "duration": 0.3338067291666711,
          "durationTicks": 94,
          "midi": 63,
          "name": "D#4",
          "ticks": 8448,
          "time": 29.999991999999995,
          "velocity": 0.5905511811023622
        },
        {
          "duration": 0.3338067291666711,
          "durationTicks": 94,
          "midi": 47,
          "name": "B2",
          "ticks": 8544,
          "time": 30.340900999999995,
          "velocity": 0.5905511811023622
        },
        {
          "duration": 0.3338067291666711,
          "durationTicks": 94,
          "midi": 59,
          "name": "B3",
          "ticks": 8544,
          "time": 30.340900999999995,
          "velocity": 0.5905511811023622
        },
        {
          "duration": 0.3338067291666711,
          "durationTicks": 94,
          "midi": 63,
          "name": "D#4",
          "ticks": 8544,
          "time": 30.340900999999995,
          "velocity": 0.5905511811023622
        },
        {
          "duration": 0.3338067291666711,
          "durationTicks": 94,
          "midi": 47,
          "name": "B2",
          "ticks": 8640,
          "time": 30.681809999999995,
          "velocity": 0.5905511811023622
        },
        {
          "duration": 0.3338067291666711,
          "durationTicks": 94,
          "midi": 59,
          "name": "B3",
          "ticks": 8640,
          "time": 30.681809999999995,
          "velocity": 0.5905511811023622
        },
        {
          "duration": 0.3338067291666711,
          "durationTicks": 94,
          "midi": 63,
          "name": "D#4",
          "ticks": 8640,
          "time": 30.681809999999995,
          "velocity": 0.5905511811023622
        },
        {
          "duration": 0.3338067291666711,
          "durationTicks": 94,
          "midi": 47,
          "name": "B2",
          "ticks": 8736,
          "time": 31.022718999999995,
          "velocity": 0.5905511811023622
        },
        {
          "duration": 0.3338067291666711,
          "durationTicks": 94,
          "midi": 59,
          "name": "B3",
          "ticks": 8736,
          "time": 31.022718999999995,
          "velocity": 0.5905511811023622
        },
        {
          "duration": 0.3338067291666711,
          "durationTicks": 94,
          "midi": 63,
          "name": "D#4",
          "ticks": 8736,
          "time": 31.022718999999995,
          "velocity": 0.5905511811023622
        },
        {
          "duration": 0.3338067291666711,
          "durationTicks": 94,
          "midi": 47,
          "name": "B2",
          "ticks": 8832,
          "time": 31.363627999999995,
          "velocity": 0.5905511811023622
        },
        {
          "duration": 0.3338067291666711,
          "durationTicks": 94,
          "midi": 59,
          "name": "B3",
          "ticks": 8832,
          "time": 31.363627999999995,
          "velocity": 0.5905511811023622
        },
        {
          "duration": 0.3338067291666711,
          "durationTicks": 94,
          "midi": 63,
          "name": "D#4",
          "ticks": 8832,
          "time": 31.363627999999995,
          "velocity": 0.5905511811023622
        },
        {
          "duration": 0.33380672916666754,
          "durationTicks": 94,
          "midi": 47,
          "name": "B2",
          "ticks": 8928,
          "time": 31.704536999999995,
          "velocity": 0.5905511811023622
        },
        {
          "duration": 0.33380672916666754,
          "durationTicks": 94,
          "midi": 59,
          "name": "B3",
          "ticks": 8928,
          "time": 31.704536999999995,
          "velocity": 0.5905511811023622
        },
        {
          "duration": 0.33380672916666754,
          "durationTicks": 94,
          "midi": 63,
          "name": "D#4",
          "ticks": 8928,
          "time": 31.704536999999995,
          "velocity": 0.5905511811023622
        },
        {
          "duration": 0.33380672916666754,
          "durationTicks": 94,
          "midi": 47,
          "name": "B2",
          "ticks": 9024,
          "time": 32.045446,
          "velocity": 0.5905511811023622
        },
        {
          "duration": 0.33380672916666754,
          "durationTicks": 94,
          "midi": 59,
          "name": "B3",
          "ticks": 9024,
          "time": 32.045446,
          "velocity": 0.5905511811023622
        },
        {
          "duration": 0.33380672916666754,
          "durationTicks": 94,
          "midi": 63,
          "name": "D#4",
          "ticks": 9024,
          "time": 32.045446,
          "velocity": 0.5905511811023622
        },
        {
          "duration": 0.33380672916666754,
          "durationTicks": 94,
          "midi": 47,
          "name": "B2",
          "ticks": 9120,
          "time": 32.386354999999995,
          "velocity": 0.5905511811023622
        },
        {
          "duration": 0.33380672916666754,
          "durationTicks": 94,
          "midi": 59,
          "name": "B3",
          "ticks": 9120,
          "time": 32.386354999999995,
          "velocity": 0.5905511811023622
        },
        {
          "duration": 0.33380672916666754,
          "durationTicks": 94,
          "midi": 63,
          "name": "D#4",
          "ticks": 9120,
          "time": 32.386354999999995,
          "velocity": 0.5905511811023622
        },
        {
          "duration": 0.33380672916666754,
          "durationTicks": 94,
          "midi": 47,
          "name": "B2",
          "ticks": 9216,
          "time": 32.727264,
          "velocity": 0.5905511811023622
        },
        {
          "duration": 0.33380672916666754,
          "durationTicks": 94,
          "midi": 59,
          "name": "B3",
          "ticks": 9216,
          "time": 32.727264,
          "velocity": 0.5905511811023622
        },
        {
          "duration": 0.33380672916666754,
          "durationTicks": 94,
          "midi": 63,
          "name": "D#4",
          "ticks": 9216,
          "time": 32.727264,
          "velocity": 0.5905511811023622
        },
        {
          "duration": 0.33380672916666754,
          "durationTicks": 94,
          "midi": 47,
          "name": "B2",
          "ticks": 9312,
          "time": 33.068172999999994,
          "velocity": 0.5905511811023622
        },
        {
          "duration": 0.33380672916666754,
          "durationTicks": 94,
          "midi": 59,
          "name": "B3",
          "ticks": 9312,
          "time": 33.068172999999994,
          "velocity": 0.5905511811023622
        },
        {
          "duration": 0.33380672916666754,
          "durationTicks": 94,
          "midi": 63,
          "name": "D#4",
          "ticks": 9312,
          "time": 33.068172999999994,
          "velocity": 0.5905511811023622
        },
        {
          "duration": 0.33380672916666754,
          "durationTicks": 94,
          "midi": 47,
          "name": "B2",
          "ticks": 9408,
          "time": 33.409082,
          "velocity": 0.5905511811023622
        },
        {
          "duration": 0.33380672916666754,
          "durationTicks": 94,
          "midi": 59,
          "name": "B3",
          "ticks": 9408,
          "time": 33.409082,
          "velocity": 0.5905511811023622
        },
        {
          "duration": 0.33380672916666754,
          "durationTicks": 94,
          "midi": 63,
          "name": "D#4",
          "ticks": 9408,
          "time": 33.409082,
          "velocity": 0.5905511811023622
        },
        {
          "duration": 0.33380672916666754,
          "durationTicks": 94,
          "midi": 47,
          "name": "B2",
          "ticks": 9504,
          "time": 33.749990999999994,
          "velocity": 0.5905511811023622
        },
        {
          "duration": 0.33380672916666754,
          "durationTicks": 94,
          "midi": 59,
          "name": "B3",
          "ticks": 9504,
          "time": 33.749990999999994,
          "velocity": 0.5905511811023622
        },
        {
          "duration": 0.33380672916666754,
          "durationTicks": 94,
          "midi": 63,
          "name": "D#4",
          "ticks": 9504,
          "time": 33.749990999999994,
          "velocity": 0.5905511811023622
        },
        {
          "duration": 0.33380672916666754,
          "durationTicks": 94,
          "midi": 47,
          "name": "B2",
          "ticks": 9600,
          "time": 34.0909,
          "velocity": 0.5905511811023622
        },
        {
          "duration": 0.33380672916666754,
          "durationTicks": 94,
          "midi": 59,
          "name": "B3",
          "ticks": 9600,
          "time": 34.0909,
          "velocity": 0.5905511811023622
        },
        {
          "duration": 0.33380672916666754,
          "durationTicks": 94,
          "midi": 63,
          "name": "D#4",
          "ticks": 9600,
          "time": 34.0909,
          "velocity": 0.5905511811023622
        },
        {
          "duration": 0.33380672916666754,
          "durationTicks": 94,
          "midi": 47,
          "name": "B2",
          "ticks": 9696,
          "time": 34.431808999999994,
          "velocity": 0.5905511811023622
        },
        {
          "duration": 0.33380672916666754,
          "durationTicks": 94,
          "midi": 59,
          "name": "B3",
          "ticks": 9696,
          "time": 34.431808999999994,
          "velocity": 0.5905511811023622
        },
        {
          "duration": 0.33380672916666754,
          "durationTicks": 94,
          "midi": 63,
          "name": "D#4",
          "ticks": 9696,
          "time": 34.431808999999994,
          "velocity": 0.5905511811023622
        },
        {
          "duration": 0.33380672916666754,
          "durationTicks": 94,
          "midi": 47,
          "name": "B2",
          "ticks": 9792,
          "time": 34.772718,
          "velocity": 0.5905511811023622
        },
        {
          "duration": 0.33380672916666754,
          "durationTicks": 94,
          "midi": 59,
          "name": "B3",
          "ticks": 9792,
          "time": 34.772718,
          "velocity": 0.5905511811023622
        },
        {
          "duration": 0.33380672916666754,
          "durationTicks": 94,
          "midi": 63,
          "name": "D#4",
          "ticks": 9792,
          "time": 34.772718,
          "velocity": 0.5905511811023622
        },
        {
          "duration": 0.33380672916666754,
          "durationTicks": 94,
          "midi": 47,
          "name": "B2",
          "ticks": 9888,
          "time": 35.113626999999994,
          "velocity": 0.5905511811023622
        },
        {
          "duration": 0.33380672916666754,
          "durationTicks": 94,
          "midi": 59,
          "name": "B3",
          "ticks": 9888,
          "time": 35.113626999999994,
          "velocity": 0.5905511811023622
        },
        {
          "duration": 0.33380672916666754,
          "durationTicks": 94,
          "midi": 63,
          "name": "D#4",
          "ticks": 9888,
          "time": 35.113626999999994,
          "velocity": 0.5905511811023622
        },
        {
          "duration": 0.5681816666666677,
          "durationTicks": 160,
          "midi": 54,
          "name": "F#3",
          "ticks": 9984,
          "time": 35.454536,
          "velocity": 0.5905511811023622
        },
        {
          "duration": 0.5681816666666677,
          "durationTicks": 160,
          "midi": 59,
          "name": "B3",
          "ticks": 9984,
          "time": 35.454536,
          "velocity": 0.5905511811023622
        },
        {
          "duration": 0.5681816666666677,
          "durationTicks": 160,
          "midi": 63,
          "name": "D#4",
          "ticks": 9984,
          "time": 35.454536,
          "velocity": 0.5905511811023622
        },
        {
          "duration": 0.33380672916666754,
          "durationTicks": 94,
          "midi": 54,
          "name": "F#3",
          "ticks": 10176,
          "time": 36.136354,
          "velocity": 0.5905511811023622
        },
        {
          "duration": 0.33380672916666754,
          "durationTicks": 94,
          "midi": 59,
          "name": "B3",
          "ticks": 10176,
          "time": 36.136354,
          "velocity": 0.5905511811023622
        },
        {
          "duration": 0.33380672916666754,
          "durationTicks": 94,
          "midi": 63,
          "name": "D#4",
          "ticks": 10176,
          "time": 36.136354,
          "velocity": 0.5905511811023622
        },
        {
          "duration": 0.33380672916666754,
          "durationTicks": 94,
          "midi": 54,
          "name": "F#3",
          "ticks": 10272,
          "time": 36.477262999999994,
          "velocity": 0.5905511811023622
        },
        {
          "duration": 0.5681816666666677,
          "durationTicks": 160,
          "midi": 54,
          "name": "F#3",
          "ticks": 10368,
          "time": 36.818172,
          "velocity": 0.5905511811023622
        },
        {
          "duration": 0.5681816666666677,
          "durationTicks": 160,
          "midi": 59,
          "name": "B3",
          "ticks": 10368,
          "time": 36.818172,
          "velocity": 0.5905511811023622
        },
        {
          "duration": 0.5681816666666677,
          "durationTicks": 160,
          "midi": 63,
          "name": "D#4",
          "ticks": 10368,
          "time": 36.818172,
          "velocity": 0.5905511811023622
        },
        {
          "duration": 0.33380672916666754,
          "durationTicks": 94,
          "midi": 54,
          "name": "F#3",
          "ticks": 10560,
          "time": 37.49999,
          "velocity": 0.5905511811023622
        },
        {
          "duration": 0.33380672916666754,
          "durationTicks": 94,
          "midi": 59,
          "name": "B3",
          "ticks": 10560,
          "time": 37.49999,
          "velocity": 0.5905511811023622
        },
        {
          "duration": 0.33380672916666754,
          "durationTicks": 94,
          "midi": 63,
          "name": "D#4",
          "ticks": 10560,
          "time": 37.49999,
          "velocity": 0.5905511811023622
        },
        {
          "duration": 0.33380672916666754,
          "durationTicks": 94,
          "midi": 54,
          "name": "F#3",
          "ticks": 10656,
          "time": 37.84089899999999,
          "velocity": 0.5905511811023622
        },
        {
          "duration": 0.5681816666666677,
          "durationTicks": 160,
          "midi": 54,
          "name": "F#3",
          "ticks": 10752,
          "time": 38.181808,
          "velocity": 0.5905511811023622
        },
        {
          "duration": 0.5681816666666677,
          "durationTicks": 160,
          "midi": 59,
          "name": "B3",
          "ticks": 10752,
          "time": 38.181808,
          "velocity": 0.5905511811023622
        },
        {
          "duration": 0.5681816666666677,
          "durationTicks": 160,
          "midi": 63,
          "name": "D#4",
          "ticks": 10752,
          "time": 38.181808,
          "velocity": 0.5905511811023622
        },
        {
          "duration": 0.33380672916666754,
          "durationTicks": 94,
          "midi": 54,
          "name": "F#3",
          "ticks": 10944,
          "time": 38.863626,
          "velocity": 0.5905511811023622
        },
        {
          "duration": 0.33380672916666754,
          "durationTicks": 94,
          "midi": 59,
          "name": "B3",
          "ticks": 10944,
          "time": 38.863626,
          "velocity": 0.5905511811023622
        },
        {
          "duration": 0.33380672916666754,
          "durationTicks": 94,
          "midi": 63,
          "name": "D#4",
          "ticks": 10944,
          "time": 38.863626,
          "velocity": 0.5905511811023622
        },
        {
          "duration": 0.33380672916666754,
          "durationTicks": 94,
          "midi": 54,
          "name": "F#3",
          "ticks": 11040,
          "time": 39.20453499999999,
          "velocity": 0.5905511811023622
        },
        {
          "duration": 0.5681816666666677,
          "durationTicks": 160,
          "midi": 54,
          "name": "F#3",
          "ticks": 11136,
          "time": 39.545443999999996,
          "velocity": 0.5905511811023622
        },
        {
          "duration": 0.5681816666666677,
          "durationTicks": 160,
          "midi": 59,
          "name": "B3",
          "ticks": 11136,
          "time": 39.545443999999996,
          "velocity": 0.5905511811023622
        },
        {
          "duration": 0.5681816666666677,
          "durationTicks": 160,
          "midi": 63,
          "name": "D#4",
          "ticks": 11136,
          "time": 39.545443999999996,
          "velocity": 0.5905511811023622
        },
        {
          "duration": 0.33380672916666754,
          "durationTicks": 94,
          "midi": 54,
          "name": "F#3",
          "ticks": 11328,
          "time": 40.227261999999996,
          "velocity": 0.5905511811023622
        },
        {
          "duration": 0.33380672916666754,
          "durationTicks": 94,
          "midi": 59,
          "name": "B3",
          "ticks": 11328,
          "time": 40.227261999999996,
          "velocity": 0.5905511811023622
        },
        {
          "duration": 0.33380672916666754,
          "durationTicks": 94,
          "midi": 63,
          "name": "D#4",
          "ticks": 11328,
          "time": 40.227261999999996,
          "velocity": 0.5905511811023622
        },
        {
          "duration": 0.33380672916667464,
          "durationTicks": 94,
          "midi": 54,
          "name": "F#3",
          "ticks": 11424,
          "time": 40.56817099999999,
          "velocity": 0.5905511811023622
        },
        {
          "duration": 0.33380672916667464,
          "durationTicks": 94,
          "midi": 59,
          "name": "B3",
          "ticks": 11424,
          "time": 40.56817099999999,
          "velocity": 0.5905511811023622
        },
        {
          "duration": 0.33380672916667464,
          "durationTicks": 94,
          "midi": 63,
          "name": "D#4",
          "ticks": 11424,
          "time": 40.56817099999999,
          "velocity": 0.5905511811023622
        },
        {
          "duration": 0.5681816666666677,
          "durationTicks": 160,
          "midi": 54,
          "name": "F#3",
          "ticks": 11520,
          "time": 40.909079999999996,
          "velocity": 0.5905511811023622
        },
        {
          "duration": 0.5681816666666677,
          "durationTicks": 160,
          "midi": 58,
          "name": "A#3",
          "ticks": 11520,
          "time": 40.909079999999996,
          "velocity": 0.5905511811023622
        },
        {
          "duration": 0.5681816666666677,
          "durationTicks": 160,
          "midi": 61,
          "name": "C#4",
          "ticks": 11520,
          "time": 40.909079999999996,
          "velocity": 0.5905511811023622
        },
        {
          "duration": 0.33380672916666754,
          "durationTicks": 94,
          "midi": 54,
          "name": "F#3",
          "ticks": 11712,
          "time": 41.590897999999996,
          "velocity": 0.5905511811023622
        },
        {
          "duration": 0.33380672916666754,
          "durationTicks": 94,
          "midi": 58,
          "name": "A#3",
          "ticks": 11712,
          "time": 41.590897999999996,
          "velocity": 0.5905511811023622
        },
        {
          "duration": 0.33380672916666754,
          "durationTicks": 94,
          "midi": 63,
          "name": "D#4",
          "ticks": 11712,
          "time": 41.590897999999996,
          "velocity": 0.5905511811023622
        },
        {
          "duration": 0.33380672916667464,
          "durationTicks": 94,
          "midi": 54,
          "name": "F#3",
          "ticks": 11808,
          "time": 41.93180699999999,
          "velocity": 0.5905511811023622
        },
        {
          "duration": 0.33380672916667464,
          "durationTicks": 94,
          "midi": 58,
          "name": "A#3",
          "ticks": 11808,
          "time": 41.93180699999999,
          "velocity": 0.5905511811023622
        },
        {
          "duration": 0.5681816666666677,
          "durationTicks": 160,
          "midi": 54,
          "name": "F#3",
          "ticks": 11904,
          "time": 42.272715999999996,
          "velocity": 0.5905511811023622
        },
        {
          "duration": 0.5681816666666677,
          "durationTicks": 160,
          "midi": 58,
          "name": "A#3",
          "ticks": 11904,
          "time": 42.272715999999996,
          "velocity": 0.5905511811023622
        },
        {
          "duration": 0.5681816666666677,
          "durationTicks": 160,
          "midi": 61,
          "name": "C#4",
          "ticks": 11904,
          "time": 42.272715999999996,
          "velocity": 0.5905511811023622
        },
        {
          "duration": 0.33380672916666754,
          "durationTicks": 94,
          "midi": 54,
          "name": "F#3",
          "ticks": 12096,
          "time": 42.954533999999995,
          "velocity": 0.5905511811023622
        },
        {
          "duration": 0.33380672916666754,
          "durationTicks": 94,
          "midi": 58,
          "name": "A#3",
          "ticks": 12096,
          "time": 42.954533999999995,
          "velocity": 0.5905511811023622
        },
        {
          "duration": 0.33380672916666754,
          "durationTicks": 94,
          "midi": 63,
          "name": "D#4",
          "ticks": 12096,
          "time": 42.954533999999995,
          "velocity": 0.5905511811023622
        },
        {
          "duration": 0.33380672916667464,
          "durationTicks": 94,
          "midi": 54,
          "name": "F#3",
          "ticks": 12192,
          "time": 43.29544299999999,
          "velocity": 0.5905511811023622
        },
        {
          "duration": 0.33380672916667464,
          "durationTicks": 94,
          "midi": 58,
          "name": "A#3",
          "ticks": 12192,
          "time": 43.29544299999999,
          "velocity": 0.5905511811023622
        },
        {
          "duration": 0.5681816666666606,
          "durationTicks": 160,
          "midi": 54,
          "name": "F#3",
          "ticks": 12288,
          "time": 43.636351999999995,
          "velocity": 0.5905511811023622
        },
        {
          "duration": 0.5681816666666606,
          "durationTicks": 160,
          "midi": 58,
          "name": "A#3",
          "ticks": 12288,
          "time": 43.636351999999995,
          "velocity": 0.5905511811023622
        },
        {
          "duration": 0.5681816666666606,
          "durationTicks": 160,
          "midi": 61,
          "name": "C#4",
          "ticks": 12288,
          "time": 43.636351999999995,
          "velocity": 0.5905511811023622
        },
        {
          "duration": 0.33380672916666043,
          "durationTicks": 94,
          "midi": 54,
          "name": "F#3",
          "ticks": 12480,
          "time": 44.318169999999995,
          "velocity": 0.5905511811023622
        },
        {
          "duration": 0.33380672916666043,
          "durationTicks": 94,
          "midi": 58,
          "name": "A#3",
          "ticks": 12480,
          "time": 44.318169999999995,
          "velocity": 0.5905511811023622
        },
        {
          "duration": 0.33380672916666043,
          "durationTicks": 94,
          "midi": 63,
          "name": "D#4",
          "ticks": 12480,
          "time": 44.318169999999995,
          "velocity": 0.5905511811023622
        },
        {
          "duration": 0.33380672916666043,
          "durationTicks": 94,
          "midi": 54,
          "name": "F#3",
          "ticks": 12576,
          "time": 44.659079,
          "velocity": 0.5905511811023622
        },
        {
          "duration": 0.33380672916666043,
          "durationTicks": 94,
          "midi": 58,
          "name": "A#3",
          "ticks": 12576,
          "time": 44.659079,
          "velocity": 0.5905511811023622
        },
        {
          "duration": 0.5681816666666606,
          "durationTicks": 160,
          "midi": 54,
          "name": "F#3",
          "ticks": 12672,
          "time": 44.999987999999995,
          "velocity": 0.5905511811023622
        },
        {
          "duration": 0.5681816666666606,
          "durationTicks": 160,
          "midi": 58,
          "name": "A#3",
          "ticks": 12672,
          "time": 44.999987999999995,
          "velocity": 0.5905511811023622
        },
        {
          "duration": 0.5681816666666606,
          "durationTicks": 160,
          "midi": 61,
          "name": "C#4",
          "ticks": 12672,
          "time": 44.999987999999995,
          "velocity": 0.5905511811023622
        },
        {
          "duration": 0.33380672916666043,
          "durationTicks": 94,
          "midi": 54,
          "name": "F#3",
          "ticks": 12864,
          "time": 45.681805999999995,
          "velocity": 0.5905511811023622
        },
        {
          "duration": 0.33380672916666043,
          "durationTicks": 94,
          "midi": 58,
          "name": "A#3",
          "ticks": 12864,
          "time": 45.681805999999995,
          "velocity": 0.5905511811023622
        },
        {
          "duration": 0.33380672916666043,
          "durationTicks": 94,
          "midi": 63,
          "name": "D#4",
          "ticks": 12864,
          "time": 45.681805999999995,
          "velocity": 0.5905511811023622
        },
        {
          "duration": 0.33380672916666043,
          "durationTicks": 94,
          "midi": 54,
          "name": "F#3",
          "ticks": 12960,
          "time": 46.022715,
          "velocity": 0.5905511811023622
        },
        {
          "duration": 0.33380672916666043,
          "durationTicks": 94,
          "midi": 58,
          "name": "A#3",
          "ticks": 12960,
          "time": 46.022715,
          "velocity": 0.5905511811023622
        },
        {
          "duration": 0.33380672916666043,
          "durationTicks": 94,
          "midi": 52,
          "name": "E3",
          "ticks": 13056,
          "time": 46.363623999999994,
          "velocity": 0.5905511811023622
        },
        {
          "duration": 0.33380672916666043,
          "durationTicks": 94,
          "midi": 56,
          "name": "G#3",
          "ticks": 13056,
          "time": 46.363623999999994,
          "velocity": 0.5905511811023622
        },
        {
          "duration": 0.33380672916666043,
          "durationTicks": 94,
          "midi": 59,
          "name": "B3",
          "ticks": 13056,
          "time": 46.363623999999994,
          "velocity": 0.5905511811023622
        },
        {
          "duration": 0.33380672916666043,
          "durationTicks": 94,
          "midi": 52,
          "name": "E3",
          "ticks": 13152,
          "time": 46.704533,
          "velocity": 0.5905511811023622
        },
        {
          "duration": 0.33380672916666043,
          "durationTicks": 94,
          "midi": 56,
          "name": "G#3",
          "ticks": 13152,
          "time": 46.704533,
          "velocity": 0.5905511811023622
        },
        {
          "duration": 0.33380672916666043,
          "durationTicks": 94,
          "midi": 52,
          "name": "E3",
          "ticks": 13248,
          "time": 47.045441999999994,
          "velocity": 0.5905511811023622
        },
        {
          "duration": 0.33380672916666043,
          "durationTicks": 94,
          "midi": 56,
          "name": "G#3",
          "ticks": 13248,
          "time": 47.045441999999994,
          "velocity": 0.5905511811023622
        },
        {
          "duration": 0.33380672916666043,
          "durationTicks": 94,
          "midi": 63,
          "name": "D#4",
          "ticks": 13248,
          "time": 47.045441999999994,
          "velocity": 0.5905511811023622
        },
        {
          "duration": 0.33380672916666043,
          "durationTicks": 94,
          "midi": 52,
          "name": "E3",
          "ticks": 13344,
          "time": 47.386351,
          "velocity": 0.5905511811023622
        },
        {
          "duration": 0.33380672916666043,
          "durationTicks": 94,
          "midi": 56,
          "name": "G#3",
          "ticks": 13344,
          "time": 47.386351,
          "velocity": 0.5905511811023622
        },
        {
          "duration": 0.33380672916666754,
          "durationTicks": 94,
          "midi": 52,
          "name": "E3",
          "ticks": 13440,
          "time": 47.727259999999994,
          "velocity": 0.5905511811023622
        },
        {
          "duration": 0.33380672916666754,
          "durationTicks": 94,
          "midi": 56,
          "name": "G#3",
          "ticks": 13440,
          "time": 47.727259999999994,
          "velocity": 0.5905511811023622
        },
        {
          "duration": 0.33380672916666754,
          "durationTicks": 94,
          "midi": 59,
          "name": "B3",
          "ticks": 13440,
          "time": 47.727259999999994,
          "velocity": 0.5905511811023622
        },
        {
          "duration": 0.33380672916666043,
          "durationTicks": 94,
          "midi": 52,
          "name": "E3",
          "ticks": 13536,
          "time": 48.068169,
          "velocity": 0.5905511811023622
        },
        {
          "duration": 0.33380672916666043,
          "durationTicks": 94,
          "midi": 56,
          "name": "G#3",
          "ticks": 13536,
          "time": 48.068169,
          "velocity": 0.5905511811023622
        },
        {
          "duration": 0.33380672916666754,
          "durationTicks": 94,
          "midi": 52,
          "name": "E3",
          "ticks": 13632,
          "time": 48.409077999999994,
          "velocity": 0.5905511811023622
        },
        {
          "duration": 0.33380672916666754,
          "durationTicks": 94,
          "midi": 56,
          "name": "G#3",
          "ticks": 13632,
          "time": 48.409077999999994,
          "velocity": 0.5905511811023622
        },
        {
          "duration": 0.33380672916666754,
          "durationTicks": 94,
          "midi": 63,
          "name": "D#4",
          "ticks": 13632,
          "time": 48.409077999999994,
          "velocity": 0.5905511811023622
        },
        {
          "duration": 0.33380672916666043,
          "durationTicks": 94,
          "midi": 52,
          "name": "E3",
          "ticks": 13728,
          "time": 48.749987,
          "velocity": 0.5905511811023622
        },
        {
          "duration": 0.33380672916666043,
          "durationTicks": 94,
          "midi": 56,
          "name": "G#3",
          "ticks": 13728,
          "time": 48.749987,
          "velocity": 0.5905511811023622
        },
        {
          "duration": 0.33380672916666754,
          "durationTicks": 94,
          "midi": 52,
          "name": "E3",
          "ticks": 13824,
          "time": 49.090895999999994,
          "velocity": 0.5905511811023622
        },
        {
          "duration": 0.33380672916666754,
          "durationTicks": 94,
          "midi": 56,
          "name": "G#3",
          "ticks": 13824,
          "time": 49.090895999999994,
          "velocity": 0.5905511811023622
        },
        {
          "duration": 0.33380672916666754,
          "durationTicks": 94,
          "midi": 59,
          "name": "B3",
          "ticks": 13824,
          "time": 49.090895999999994,
          "velocity": 0.5905511811023622
        },
        {
          "duration": 0.33380672916666043,
          "durationTicks": 94,
          "midi": 52,
          "name": "E3",
          "ticks": 13920,
          "time": 49.431805,
          "velocity": 0.5905511811023622
        },
        {
          "duration": 0.33380672916666043,
          "durationTicks": 94,
          "midi": 56,
          "name": "G#3",
          "ticks": 13920,
          "time": 49.431805,
          "velocity": 0.5905511811023622
        },
        {
          "duration": 0.33380672916666754,
          "durationTicks": 94,
          "midi": 52,
          "name": "E3",
          "ticks": 14016,
          "time": 49.77271399999999,
          "velocity": 0.5905511811023622
        },
        {
          "duration": 0.33380672916666754,
          "durationTicks": 94,
          "midi": 56,
          "name": "G#3",
          "ticks": 14016,
          "time": 49.77271399999999,
          "velocity": 0.5905511811023622
        },
        {
          "duration": 0.33380672916666754,
          "durationTicks": 94,
          "midi": 63,
          "name": "D#4",
          "ticks": 14016,
          "time": 49.77271399999999,
          "velocity": 0.5905511811023622
        },
        {
          "duration": 0.33380672916666043,
          "durationTicks": 94,
          "midi": 52,
          "name": "E3",
          "ticks": 14112,
          "time": 50.113623,
          "velocity": 0.5905511811023622
        },
        {
          "duration": 0.33380672916666043,
          "durationTicks": 94,
          "midi": 56,
          "name": "G#3",
          "ticks": 14112,
          "time": 50.113623,
          "velocity": 0.5905511811023622
        },
        {
          "duration": 0.33380672916666754,
          "durationTicks": 94,
          "midi": 52,
          "name": "E3",
          "ticks": 14208,
          "time": 50.45453199999999,
          "velocity": 0.5905511811023622
        },
        {
          "duration": 0.33380672916666754,
          "durationTicks": 94,
          "midi": 56,
          "name": "G#3",
          "ticks": 14208,
          "time": 50.45453199999999,
          "velocity": 0.5905511811023622
        },
        {
          "duration": 0.33380672916666754,
          "durationTicks": 94,
          "midi": 59,
          "name": "B3",
          "ticks": 14208,
          "time": 50.45453199999999,
          "velocity": 0.5905511811023622
        },
        {
          "duration": 0.33380672916666043,
          "durationTicks": 94,
          "midi": 52,
          "name": "E3",
          "ticks": 14304,
          "time": 50.795441,
          "velocity": 0.5905511811023622
        },
        {
          "duration": 0.33380672916666043,
          "durationTicks": 94,
          "midi": 56,
          "name": "G#3",
          "ticks": 14304,
          "time": 50.795441,
          "velocity": 0.5905511811023622
        },
        {
          "duration": 0.33380672916666754,
          "durationTicks": 94,
          "midi": 52,
          "name": "E3",
          "ticks": 14400,
          "time": 51.13634999999999,
          "velocity": 0.5905511811023622
        },
        {
          "duration": 0.33380672916666754,
          "durationTicks": 94,
          "midi": 56,
          "name": "G#3",
          "ticks": 14400,
          "time": 51.13634999999999,
          "velocity": 0.5905511811023622
        },
        {
          "duration": 0.33380672916666754,
          "durationTicks": 94,
          "midi": 63,
          "name": "D#4",
          "ticks": 14400,
          "time": 51.13634999999999,
          "velocity": 0.5905511811023622
        },
        {
          "duration": 0.33380672916666043,
          "durationTicks": 94,
          "midi": 52,
          "name": "E3",
          "ticks": 14496,
          "time": 51.477259,
          "velocity": 0.5905511811023622
        },
        {
          "duration": 0.33380672916666043,
          "durationTicks": 94,
          "midi": 56,
          "name": "G#3",
          "ticks": 14496,
          "time": 51.477259,
          "velocity": 0.5905511811023622
        },
        {
          "duration": 0.5681816666666677,
          "durationTicks": 160,
          "midi": 54,
          "name": "F#3",
          "ticks": 14592,
          "time": 51.81816799999999,
          "velocity": 0.5905511811023622
        },
        {
          "duration": 0.5681816666666677,
          "durationTicks": 160,
          "midi": 59,
          "name": "B3",
          "ticks": 14592,
          "time": 51.81816799999999,
          "velocity": 0.5905511811023622
        },
        {
          "duration": 0.5681816666666677,
          "durationTicks": 160,
          "midi": 63,
          "name": "D#4",
          "ticks": 14592,
          "time": 51.81816799999999,
          "velocity": 0.5905511811023622
        },
        {
          "duration": 0.33380672916666754,
          "durationTicks": 94,
          "midi": 54,
          "name": "F#3",
          "ticks": 14784,
          "time": 52.49998599999999,
          "velocity": 0.5905511811023622
        },
        {
          "duration": 0.33380672916666754,
          "durationTicks": 94,
          "midi": 59,
          "name": "B3",
          "ticks": 14784,
          "time": 52.49998599999999,
          "velocity": 0.5905511811023622
        },
        {
          "duration": 0.33380672916666754,
          "durationTicks": 94,
          "midi": 63,
          "name": "D#4",
          "ticks": 14784,
          "time": 52.49998599999999,
          "velocity": 0.5905511811023622
        },
        {
          "duration": 0.33380672916666043,
          "durationTicks": 94,
          "midi": 54,
          "name": "F#3",
          "ticks": 14880,
          "time": 52.840894999999996,
          "velocity": 0.5905511811023622
        },
        {
          "duration": 0.5681816666666677,
          "durationTicks": 160,
          "midi": 54,
          "name": "F#3",
          "ticks": 14976,
          "time": 53.18180399999999,
          "velocity": 0.5905511811023622
        },
        {
          "duration": 0.5681816666666677,
          "durationTicks": 160,
          "midi": 59,
          "name": "B3",
          "ticks": 14976,
          "time": 53.18180399999999,
          "velocity": 0.5905511811023622
        },
        {
          "duration": 0.5681816666666677,
          "durationTicks": 160,
          "midi": 63,
          "name": "D#4",
          "ticks": 14976,
          "time": 53.18180399999999,
          "velocity": 0.5905511811023622
        },
        {
          "duration": 0.33380672916666754,
          "durationTicks": 94,
          "midi": 54,
          "name": "F#3",
          "ticks": 15168,
          "time": 53.86362199999999,
          "velocity": 0.5905511811023622
        },
        {
          "duration": 0.33380672916666754,
          "durationTicks": 94,
          "midi": 59,
          "name": "B3",
          "ticks": 15168,
          "time": 53.86362199999999,
          "velocity": 0.5905511811023622
        },
        {
          "duration": 0.33380672916666754,
          "durationTicks": 94,
          "midi": 63,
          "name": "D#4",
          "ticks": 15168,
          "time": 53.86362199999999,
          "velocity": 0.5905511811023622
        },
        {
          "duration": 0.33380672916666043,
          "durationTicks": 94,
          "midi": 54,
          "name": "F#3",
          "ticks": 15264,
          "time": 54.204530999999996,
          "velocity": 0.5905511811023622
        },
        {
          "duration": 0.5681816666666677,
          "durationTicks": 160,
          "midi": 54,
          "name": "F#3",
          "ticks": 15360,
          "time": 54.54543999999999,
          "velocity": 0.5905511811023622
        },
        {
          "duration": 0.5681816666666677,
          "durationTicks": 160,
          "midi": 59,
          "name": "B3",
          "ticks": 15360,
          "time": 54.54543999999999,
          "velocity": 0.5905511811023622
        },
        {
          "duration": 0.5681816666666677,
          "durationTicks": 160,
          "midi": 63,
          "name": "D#4",
          "ticks": 15360,
          "time": 54.54543999999999,
          "velocity": 0.5905511811023622
        },
        {
          "duration": 0.33380672916666754,
          "durationTicks": 94,
          "midi": 54,
          "name": "F#3",
          "ticks": 15552,
          "time": 55.22725799999999,
          "velocity": 0.5905511811023622
        },
        {
          "duration": 0.33380672916666754,
          "durationTicks": 94,
          "midi": 59,
          "name": "B3",
          "ticks": 15552,
          "time": 55.22725799999999,
          "velocity": 0.5905511811023622
        },
        {
          "duration": 0.33380672916666754,
          "durationTicks": 94,
          "midi": 63,
          "name": "D#4",
          "ticks": 15552,
          "time": 55.22725799999999,
          "velocity": 0.5905511811023622
        },
        {
          "duration": 0.33380672916666043,
          "durationTicks": 94,
          "midi": 54,
          "name": "F#3",
          "ticks": 15648,
          "time": 55.568166999999995,
          "velocity": 0.5905511811023622
        },
        {
          "duration": 0.5681816666666677,
          "durationTicks": 160,
          "midi": 54,
          "name": "F#3",
          "ticks": 15744,
          "time": 55.90907599999999,
          "velocity": 0.5905511811023622
        },
        {
          "duration": 0.5681816666666677,
          "durationTicks": 160,
          "midi": 59,
          "name": "B3",
          "ticks": 15744,
          "time": 55.90907599999999,
          "velocity": 0.5905511811023622
        },
        {
          "duration": 0.5681816666666677,
          "durationTicks": 160,
          "midi": 63,
          "name": "D#4",
          "ticks": 15744,
          "time": 55.90907599999999,
          "velocity": 0.5905511811023622
        },
        {
          "duration": 0.33380672916666754,
          "durationTicks": 94,
          "midi": 54,
          "name": "F#3",
          "ticks": 15936,
          "time": 56.59089399999999,
          "velocity": 0.5905511811023622
        },
        {
          "duration": 0.33380672916666754,
          "durationTicks": 94,
          "midi": 59,
          "name": "B3",
          "ticks": 15936,
          "time": 56.59089399999999,
          "velocity": 0.5905511811023622
        },
        {
          "duration": 0.33380672916666754,
          "durationTicks": 94,
          "midi": 63,
          "name": "D#4",
          "ticks": 15936,
          "time": 56.59089399999999,
          "velocity": 0.5905511811023622
        },
        {
          "duration": 0.33380672916666043,
          "durationTicks": 94,
          "midi": 54,
          "name": "F#3",
          "ticks": 16032,
          "time": 56.931802999999995,
          "velocity": 0.5905511811023622
        },
        {
          "duration": 0.33380672916666043,
          "durationTicks": 94,
          "midi": 59,
          "name": "B3",
          "ticks": 16032,
          "time": 56.931802999999995,
          "velocity": 0.5905511811023622
        },
        {
          "duration": 0.33380672916666043,
          "durationTicks": 94,
          "midi": 63,
          "name": "D#4",
          "ticks": 16032,
          "time": 56.931802999999995,
          "velocity": 0.5905511811023622
        },
        {
          "duration": 0.5681816666666677,
          "durationTicks": 160,
          "midi": 54,
          "name": "F#3",
          "ticks": 16128,
          "time": 57.27271199999999,
          "velocity": 0.5905511811023622
        },
        {
          "duration": 0.5681816666666677,
          "durationTicks": 160,
          "midi": 58,
          "name": "A#3",
          "ticks": 16128,
          "time": 57.27271199999999,
          "velocity": 0.5905511811023622
        },
        {
          "duration": 0.5681816666666677,
          "durationTicks": 160,
          "midi": 61,
          "name": "C#4",
          "ticks": 16128,
          "time": 57.27271199999999,
          "velocity": 0.5905511811023622
        },
        {
          "duration": 0.33380672916666754,
          "durationTicks": 94,
          "midi": 54,
          "name": "F#3",
          "ticks": 16320,
          "time": 57.95452999999999,
          "velocity": 0.5905511811023622
        },
        {
          "duration": 0.33380672916666754,
          "durationTicks": 94,
          "midi": 58,
          "name": "A#3",
          "ticks": 16320,
          "time": 57.95452999999999,
          "velocity": 0.5905511811023622
        },
        {
          "duration": 0.33380672916666754,
          "durationTicks": 94,
          "midi": 63,
          "name": "D#4",
          "ticks": 16320,
          "time": 57.95452999999999,
          "velocity": 0.5905511811023622
        },
        {
          "duration": 0.33380672916666043,
          "durationTicks": 94,
          "midi": 54,
          "name": "F#3",
          "ticks": 16416,
          "time": 58.295438999999995,
          "velocity": 0.5905511811023622
        },
        {
          "duration": 0.33380672916666043,
          "durationTicks": 94,
          "midi": 58,
          "name": "A#3",
          "ticks": 16416,
          "time": 58.295438999999995,
          "velocity": 0.5905511811023622
        },
        {
          "duration": 0.5681816666666677,
          "durationTicks": 160,
          "midi": 54,
          "name": "F#3",
          "ticks": 16512,
          "time": 58.63634799999999,
          "velocity": 0.5905511811023622
        },
        {
          "duration": 0.5681816666666677,
          "durationTicks": 160,
          "midi": 58,
          "name": "A#3",
          "ticks": 16512,
          "time": 58.63634799999999,
          "velocity": 0.5905511811023622
        },
        {
          "duration": 0.5681816666666677,
          "durationTicks": 160,
          "midi": 61,
          "name": "C#4",
          "ticks": 16512,
          "time": 58.63634799999999,
          "velocity": 0.5905511811023622
        },
        {
          "duration": 0.33380672916666754,
          "durationTicks": 94,
          "midi": 54,
          "name": "F#3",
          "ticks": 16704,
          "time": 59.31816599999999,
          "velocity": 0.5905511811023622
        },
        {
          "duration": 0.33380672916666754,
          "durationTicks": 94,
          "midi": 58,
          "name": "A#3",
          "ticks": 16704,
          "time": 59.31816599999999,
          "velocity": 0.5905511811023622
        },
        {
          "duration": 0.33380672916666754,
          "durationTicks": 94,
          "midi": 63,
          "name": "D#4",
          "ticks": 16704,
          "time": 59.31816599999999,
          "velocity": 0.5905511811023622
        },
        {
          "duration": 0.33380672916666043,
          "durationTicks": 94,
          "midi": 54,
          "name": "F#3",
          "ticks": 16800,
          "time": 59.659074999999994,
          "velocity": 0.5905511811023622
        },
        {
          "duration": 0.33380672916666043,
          "durationTicks": 94,
          "midi": 58,
          "name": "A#3",
          "ticks": 16800,
          "time": 59.659074999999994,
          "velocity": 0.5905511811023622
        },
        {
          "duration": 0.5681816666666677,
          "durationTicks": 160,
          "midi": 54,
          "name": "F#3",
          "ticks": 16896,
          "time": 59.99998399999999,
          "velocity": 0.5905511811023622
        },
        {
          "duration": 0.5681816666666677,
          "durationTicks": 160,
          "midi": 58,
          "name": "A#3",
          "ticks": 16896,
          "time": 59.99998399999999,
          "velocity": 0.5905511811023622
        },
        {
          "duration": 0.5681816666666677,
          "durationTicks": 160,
          "midi": 61,
          "name": "C#4",
          "ticks": 16896,
          "time": 59.99998399999999,
          "velocity": 0.5905511811023622
        },
        {
          "duration": 0.33380672916666754,
          "durationTicks": 94,
          "midi": 54,
          "name": "F#3",
          "ticks": 17088,
          "time": 60.68180199999999,
          "velocity": 0.5905511811023622
        },
        {
          "duration": 0.33380672916666754,
          "durationTicks": 94,
          "midi": 58,
          "name": "A#3",
          "ticks": 17088,
          "time": 60.68180199999999,
          "velocity": 0.5905511811023622
        },
        {
          "duration": 0.33380672916666754,
          "durationTicks": 94,
          "midi": 63,
          "name": "D#4",
          "ticks": 17088,
          "time": 60.68180199999999,
          "velocity": 0.5905511811023622
        },
        {
          "duration": 0.33380672916666043,
          "durationTicks": 94,
          "midi": 54,
          "name": "F#3",
          "ticks": 17184,
          "time": 61.022710999999994,
          "velocity": 0.5905511811023622
        },
        {
          "duration": 0.33380672916666043,
          "durationTicks": 94,
          "midi": 58,
          "name": "A#3",
          "ticks": 17184,
          "time": 61.022710999999994,
          "velocity": 0.5905511811023622
        },
        {
          "duration": 0.5681816666666677,
          "durationTicks": 160,
          "midi": 54,
          "name": "F#3",
          "ticks": 17280,
          "time": 61.36361999999999,
          "velocity": 0.5905511811023622
        },
        {
          "duration": 0.5681816666666677,
          "durationTicks": 160,
          "midi": 58,
          "name": "A#3",
          "ticks": 17280,
          "time": 61.36361999999999,
          "velocity": 0.5905511811023622
        },
        {
          "duration": 0.5681816666666677,
          "durationTicks": 160,
          "midi": 61,
          "name": "C#4",
          "ticks": 17280,
          "time": 61.36361999999999,
          "velocity": 0.5905511811023622
        },
        {
          "duration": 0.33380672916666754,
          "durationTicks": 94,
          "midi": 54,
          "name": "F#3",
          "ticks": 17472,
          "time": 62.04543799999999,
          "velocity": 0.5905511811023622
        },
        {
          "duration": 0.33380672916666754,
          "durationTicks": 94,
          "midi": 58,
          "name": "A#3",
          "ticks": 17472,
          "time": 62.04543799999999,
          "velocity": 0.5905511811023622
        },
        {
          "duration": 0.33380672916666754,
          "durationTicks": 94,
          "midi": 63,
          "name": "D#4",
          "ticks": 17472,
          "time": 62.04543799999999,
          "velocity": 0.5905511811023622
        },
        {
          "duration": 0.33380672916666043,
          "durationTicks": 94,
          "midi": 54,
          "name": "F#3",
          "ticks": 17568,
          "time": 62.386346999999994,
          "velocity": 0.5905511811023622
        },
        {
          "duration": 0.33380672916666043,
          "durationTicks": 94,
          "midi": 58,
          "name": "A#3",
          "ticks": 17568,
          "time": 62.386346999999994,
          "velocity": 0.5905511811023622
        },
        {
          "duration": 0.33380672916666754,
          "durationTicks": 94,
          "midi": 52,
          "name": "E3",
          "ticks": 17664,
          "time": 62.72725599999999,
          "velocity": 0.5905511811023622
        },
        {
          "duration": 0.33380672916666754,
          "durationTicks": 94,
          "midi": 56,
          "name": "G#3",
          "ticks": 17664,
          "time": 62.72725599999999,
          "velocity": 0.5905511811023622
        },
        {
          "duration": 0.33380672916666754,
          "durationTicks": 94,
          "midi": 59,
          "name": "B3",
          "ticks": 17664,
          "time": 62.72725599999999,
          "velocity": 0.5905511811023622
        },
        {
          "duration": 0.33380672916666043,
          "durationTicks": 94,
          "midi": 52,
          "name": "E3",
          "ticks": 17760,
          "time": 63.06816499999999,
          "velocity": 0.5905511811023622
        },
        {
          "duration": 0.33380672916666043,
          "durationTicks": 94,
          "midi": 56,
          "name": "G#3",
          "ticks": 17760,
          "time": 63.06816499999999,
          "velocity": 0.5905511811023622
        },
        {
          "duration": 0.33380672916666754,
          "durationTicks": 94,
          "midi": 52,
          "name": "E3",
          "ticks": 17856,
          "time": 63.40907399999999,
          "velocity": 0.5905511811023622
        },
        {
          "duration": 0.33380672916666754,
          "durationTicks": 94,
          "midi": 56,
          "name": "G#3",
          "ticks": 17856,
          "time": 63.40907399999999,
          "velocity": 0.5905511811023622
        },
        {
          "duration": 0.33380672916666754,
          "durationTicks": 94,
          "midi": 63,
          "name": "D#4",
          "ticks": 17856,
          "time": 63.40907399999999,
          "velocity": 0.5905511811023622
        },
        {
          "duration": 0.33380672916666043,
          "durationTicks": 94,
          "midi": 52,
          "name": "E3",
          "ticks": 17952,
          "time": 63.74998299999999,
          "velocity": 0.5905511811023622
        },
        {
          "duration": 0.33380672916666043,
          "durationTicks": 94,
          "midi": 56,
          "name": "G#3",
          "ticks": 17952,
          "time": 63.74998299999999,
          "velocity": 0.5905511811023622
        },
        {
          "duration": 0.3338067291666533,
          "durationTicks": 94,
          "midi": 52,
          "name": "E3",
          "ticks": 18048,
          "time": 64.090892,
          "velocity": 0.5905511811023622
        },
        {
          "duration": 0.3338067291666533,
          "durationTicks": 94,
          "midi": 56,
          "name": "G#3",
          "ticks": 18048,
          "time": 64.090892,
          "velocity": 0.5905511811023622
        },
        {
          "duration": 0.3338067291666533,
          "durationTicks": 94,
          "midi": 59,
          "name": "B3",
          "ticks": 18048,
          "time": 64.090892,
          "velocity": 0.5905511811023622
        },
        {
          "duration": 0.33380672916666754,
          "durationTicks": 94,
          "midi": 52,
          "name": "E3",
          "ticks": 18144,
          "time": 64.431801,
          "velocity": 0.5905511811023622
        },
        {
          "duration": 0.33380672916666754,
          "durationTicks": 94,
          "midi": 56,
          "name": "G#3",
          "ticks": 18144,
          "time": 64.431801,
          "velocity": 0.5905511811023622
        },
        {
          "duration": 0.33380672916666754,
          "durationTicks": 94,
          "midi": 52,
          "name": "E3",
          "ticks": 18240,
          "time": 64.77270999999999,
          "velocity": 0.5905511811023622
        },
        {
          "duration": 0.33380672916666754,
          "durationTicks": 94,
          "midi": 56,
          "name": "G#3",
          "ticks": 18240,
          "time": 64.77270999999999,
          "velocity": 0.5905511811023622
        },
        {
          "duration": 0.33380672916666754,
          "durationTicks": 94,
          "midi": 63,
          "name": "D#4",
          "ticks": 18240,
          "time": 64.77270999999999,
          "velocity": 0.5905511811023622
        },
        {
          "duration": 0.33380672916666754,
          "durationTicks": 94,
          "midi": 52,
          "name": "E3",
          "ticks": 18336,
          "time": 65.11361899999999,
          "velocity": 0.5905511811023622
        },
        {
          "duration": 0.33380672916666754,
          "durationTicks": 94,
          "midi": 56,
          "name": "G#3",
          "ticks": 18336,
          "time": 65.11361899999999,
          "velocity": 0.5905511811023622
        },
        {
          "duration": 0.3338067291666533,
          "durationTicks": 94,
          "midi": 52,
          "name": "E3",
          "ticks": 18432,
          "time": 65.454528,
          "velocity": 0.5905511811023622
        },
        {
          "duration": 0.3338067291666533,
          "durationTicks": 94,
          "midi": 56,
          "name": "G#3",
          "ticks": 18432,
          "time": 65.454528,
          "velocity": 0.5905511811023622
        },
        {
          "duration": 0.3338067291666533,
          "durationTicks": 94,
          "midi": 59,
          "name": "B3",
          "ticks": 18432,
          "time": 65.454528,
          "velocity": 0.5905511811023622
        },
        {
          "duration": 0.33380672916666754,
          "durationTicks": 94,
          "midi": 52,
          "name": "E3",
          "ticks": 18528,
          "time": 65.79543699999999,
          "velocity": 0.5905511811023622
        },
        {
          "duration": 0.33380672916666754,
          "durationTicks": 94,
          "midi": 56,
          "name": "G#3",
          "ticks": 18528,
          "time": 65.79543699999999,
          "velocity": 0.5905511811023622
        },
        {
          "duration": 0.33380672916666754,
          "durationTicks": 94,
          "midi": 52,
          "name": "E3",
          "ticks": 18624,
          "time": 66.13634599999999,
          "velocity": 0.5905511811023622
        },
        {
          "duration": 0.33380672916666754,
          "durationTicks": 94,
          "midi": 56,
          "name": "G#3",
          "ticks": 18624,
          "time": 66.13634599999999,
          "velocity": 0.5905511811023622
        },
        {
          "duration": 0.33380672916666754,
          "durationTicks": 94,
          "midi": 63,
          "name": "D#4",
          "ticks": 18624,
          "time": 66.13634599999999,
          "velocity": 0.5905511811023622
        },
        {
          "duration": 0.3338067291666533,
          "durationTicks": 94,
          "midi": 52,
          "name": "E3",
          "ticks": 18720,
          "time": 66.477255,
          "velocity": 0.5905511811023622
        },
        {
          "duration": 0.3338067291666533,
          "durationTicks": 94,
          "midi": 56,
          "name": "G#3",
          "ticks": 18720,
          "time": 66.477255,
          "velocity": 0.5905511811023622
        },
        {
          "duration": 0.3338067291666533,
          "durationTicks": 94,
          "midi": 52,
          "name": "E3",
          "ticks": 18816,
          "time": 66.818164,
          "velocity": 0.5905511811023622
        },
        {
          "duration": 0.3338067291666533,
          "durationTicks": 94,
          "midi": 56,
          "name": "G#3",
          "ticks": 18816,
          "time": 66.818164,
          "velocity": 0.5905511811023622
        },
        {
          "duration": 0.3338067291666533,
          "durationTicks": 94,
          "midi": 59,
          "name": "B3",
          "ticks": 18816,
          "time": 66.818164,
          "velocity": 0.5905511811023622
        },
        {
          "duration": 0.33380672916666754,
          "durationTicks": 94,
          "midi": 52,
          "name": "E3",
          "ticks": 18912,
          "time": 67.15907299999999,
          "velocity": 0.5905511811023622
        },
        {
          "duration": 0.33380672916666754,
          "durationTicks": 94,
          "midi": 56,
          "name": "G#3",
          "ticks": 18912,
          "time": 67.15907299999999,
          "velocity": 0.5905511811023622
        },
        {
          "duration": 0.33380672916666754,
          "durationTicks": 94,
          "midi": 52,
          "name": "E3",
          "ticks": 19008,
          "time": 67.49998199999999,
          "velocity": 0.5905511811023622
        },
        {
          "duration": 0.33380672916666754,
          "durationTicks": 94,
          "midi": 56,
          "name": "G#3",
          "ticks": 19008,
          "time": 67.49998199999999,
          "velocity": 0.5905511811023622
        },
        {
          "duration": 0.33380672916666754,
          "durationTicks": 94,
          "midi": 63,
          "name": "D#4",
          "ticks": 19008,
          "time": 67.49998199999999,
          "velocity": 0.5905511811023622
        },
        {
          "duration": 0.3338067291666533,
          "durationTicks": 94,
          "midi": 52,
          "name": "E3",
          "ticks": 19104,
          "time": 67.840891,
          "velocity": 0.5905511811023622
        },
        {
          "duration": 0.3338067291666533,
          "durationTicks": 94,
          "midi": 56,
          "name": "G#3",
          "ticks": 19104,
          "time": 67.840891,
          "velocity": 0.5905511811023622
        },
        {
          "duration": 0.5681816666666606,
          "durationTicks": 160,
          "midi": 54,
          "name": "F#3",
          "ticks": 19200,
          "time": 68.1818,
          "velocity": 0.5905511811023622
        },
        {
          "duration": 0.5681816666666606,
          "durationTicks": 160,
          "midi": 59,
          "name": "B3",
          "ticks": 19200,
          "time": 68.1818,
          "velocity": 0.5905511811023622
        },
        {
          "duration": 0.5681816666666606,
          "durationTicks": 160,
          "midi": 63,
          "name": "D#4",
          "ticks": 19200,
          "time": 68.1818,
          "velocity": 0.5905511811023622
        },
        {
          "duration": 0.33380672916666754,
          "durationTicks": 94,
          "midi": 54,
          "name": "F#3",
          "ticks": 19392,
          "time": 68.86361799999999,
          "velocity": 0.5905511811023622
        },
        {
          "duration": 0.33380672916666754,
          "durationTicks": 94,
          "midi": 59,
          "name": "B3",
          "ticks": 19392,
          "time": 68.86361799999999,
          "velocity": 0.5905511811023622
        },
        {
          "duration": 0.33380672916666754,
          "durationTicks": 94,
          "midi": 63,
          "name": "D#4",
          "ticks": 19392,
          "time": 68.86361799999999,
          "velocity": 0.5905511811023622
        },
        {
          "duration": 0.3338067291666533,
          "durationTicks": 94,
          "midi": 54,
          "name": "F#3",
          "ticks": 19488,
          "time": 69.204527,
          "velocity": 0.5905511811023622
        },
        {
          "duration": 0.5681816666666606,
          "durationTicks": 160,
          "midi": 54,
          "name": "F#3",
          "ticks": 19584,
          "time": 69.545436,
          "velocity": 0.5905511811023622
        },
        {
          "duration": 0.5681816666666606,
          "durationTicks": 160,
          "midi": 59,
          "name": "B3",
          "ticks": 19584,
          "time": 69.545436,
          "velocity": 0.5905511811023622
        },
        {
          "duration": 0.5681816666666606,
          "durationTicks": 160,
          "midi": 63,
          "name": "D#4",
          "ticks": 19584,
          "time": 69.545436,
          "velocity": 0.5905511811023622
        },
        {
          "duration": 0.33380672916666754,
          "durationTicks": 94,
          "midi": 54,
          "name": "F#3",
          "ticks": 19776,
          "time": 70.22725399999999,
          "velocity": 0.5905511811023622
        },
        {
          "duration": 0.33380672916666754,
          "durationTicks": 94,
          "midi": 59,
          "name": "B3",
          "ticks": 19776,
          "time": 70.22725399999999,
          "velocity": 0.5905511811023622
        },
        {
          "duration": 0.33380672916666754,
          "durationTicks": 94,
          "midi": 63,
          "name": "D#4",
          "ticks": 19776,
          "time": 70.22725399999999,
          "velocity": 0.5905511811023622
        },
        {
          "duration": 0.3338067291666533,
          "durationTicks": 94,
          "midi": 54,
          "name": "F#3",
          "ticks": 19872,
          "time": 70.568163,
          "velocity": 0.5905511811023622
        },
        {
          "duration": 0.5681816666666606,
          "durationTicks": 160,
          "midi": 54,
          "name": "F#3",
          "ticks": 19968,
          "time": 70.909072,
          "velocity": 0.5905511811023622
        },
        {
          "duration": 0.5681816666666606,
          "durationTicks": 160,
          "midi": 59,
          "name": "B3",
          "ticks": 19968,
          "time": 70.909072,
          "velocity": 0.5905511811023622
        },
        {
          "duration": 0.5681816666666606,
          "durationTicks": 160,
          "midi": 63,
          "name": "D#4",
          "ticks": 19968,
          "time": 70.909072,
          "velocity": 0.5905511811023622
        },
        {
          "duration": 0.33380672916666754,
          "durationTicks": 94,
          "midi": 54,
          "name": "F#3",
          "ticks": 20160,
          "time": 71.59088999999999,
          "velocity": 0.5905511811023622
        },
        {
          "duration": 0.33380672916666754,
          "durationTicks": 94,
          "midi": 59,
          "name": "B3",
          "ticks": 20160,
          "time": 71.59088999999999,
          "velocity": 0.5905511811023622
        },
        {
          "duration": 0.33380672916666754,
          "durationTicks": 94,
          "midi": 63,
          "name": "D#4",
          "ticks": 20160,
          "time": 71.59088999999999,
          "velocity": 0.5905511811023622
        },
        {
          "duration": 0.3338067291666533,
          "durationTicks": 94,
          "midi": 54,
          "name": "F#3",
          "ticks": 20256,
          "time": 71.931799,
          "velocity": 0.5905511811023622
        },
        {
          "duration": 0.5681816666666606,
          "durationTicks": 160,
          "midi": 54,
          "name": "F#3",
          "ticks": 20352,
          "time": 72.272708,
          "velocity": 0.5905511811023622
        },
        {
          "duration": 0.5681816666666606,
          "durationTicks": 160,
          "midi": 59,
          "name": "B3",
          "ticks": 20352,
          "time": 72.272708,
          "velocity": 0.5905511811023622
        },
        {
          "duration": 0.5681816666666606,
          "durationTicks": 160,
          "midi": 63,
          "name": "D#4",
          "ticks": 20352,
          "time": 72.272708,
          "velocity": 0.5905511811023622
        },
        {
          "duration": 0.33380672916666754,
          "durationTicks": 94,
          "midi": 54,
          "name": "F#3",
          "ticks": 20544,
          "time": 72.95452599999999,
          "velocity": 0.5905511811023622
        },
        {
          "duration": 0.33380672916666754,
          "durationTicks": 94,
          "midi": 59,
          "name": "B3",
          "ticks": 20544,
          "time": 72.95452599999999,
          "velocity": 0.5905511811023622
        },
        {
          "duration": 0.33380672916666754,
          "durationTicks": 94,
          "midi": 63,
          "name": "D#4",
          "ticks": 20544,
          "time": 72.95452599999999,
          "velocity": 0.5905511811023622
        },
        {
          "duration": 0.3338067291666533,
          "durationTicks": 94,
          "midi": 54,
          "name": "F#3",
          "ticks": 20640,
          "time": 73.295435,
          "velocity": 0.5905511811023622
        },
        {
          "duration": 0.3338067291666533,
          "durationTicks": 94,
          "midi": 59,
          "name": "B3",
          "ticks": 20640,
          "time": 73.295435,
          "velocity": 0.5905511811023622
        },
        {
          "duration": 0.3338067291666533,
          "durationTicks": 94,
          "midi": 63,
          "name": "D#4",
          "ticks": 20640,
          "time": 73.295435,
          "velocity": 0.5905511811023622
        },
        {
          "duration": 0.5681816666666606,
          "durationTicks": 160,
          "midi": 54,
          "name": "F#3",
          "ticks": 20736,
          "time": 73.636344,
          "velocity": 0.5905511811023622
        },
        {
          "duration": 0.5681816666666606,
          "durationTicks": 160,
          "midi": 58,
          "name": "A#3",
          "ticks": 20736,
          "time": 73.636344,
          "velocity": 0.5905511811023622
        },
        {
          "duration": 0.5681816666666606,
          "durationTicks": 160,
          "midi": 61,
          "name": "C#4",
          "ticks": 20736,
          "time": 73.636344,
          "velocity": 0.5905511811023622
        },
        {
          "duration": 0.33380672916666754,
          "durationTicks": 94,
          "midi": 54,
          "name": "F#3",
          "ticks": 20928,
          "time": 74.31816199999999,
          "velocity": 0.5905511811023622
        },
        {
          "duration": 0.33380672916666754,
          "durationTicks": 94,
          "midi": 58,
          "name": "A#3",
          "ticks": 20928,
          "time": 74.31816199999999,
          "velocity": 0.5905511811023622
        },
        {
          "duration": 0.33380672916666754,
          "durationTicks": 94,
          "midi": 63,
          "name": "D#4",
          "ticks": 20928,
          "time": 74.31816199999999,
          "velocity": 0.5905511811023622
        },
        {
          "duration": 0.3338067291666533,
          "durationTicks": 94,
          "midi": 54,
          "name": "F#3",
          "ticks": 21024,
          "time": 74.659071,
          "velocity": 0.5905511811023622
        },
        {
          "duration": 0.3338067291666533,
          "durationTicks": 94,
          "midi": 58,
          "name": "A#3",
          "ticks": 21024,
          "time": 74.659071,
          "velocity": 0.5905511811023622
        },
        {
          "duration": 0.5681816666666606,
          "durationTicks": 160,
          "midi": 54,
          "name": "F#3",
          "ticks": 21120,
          "time": 74.99998,
          "velocity": 0.5905511811023622
        },
        {
          "duration": 0.5681816666666606,
          "durationTicks": 160,
          "midi": 58,
          "name": "A#3",
          "ticks": 21120,
          "time": 74.99998,
          "velocity": 0.5905511811023622
        },
        {
          "duration": 0.5681816666666606,
          "durationTicks": 160,
          "midi": 61,
          "name": "C#4",
          "ticks": 21120,
          "time": 74.99998,
          "velocity": 0.5905511811023622
        },
        {
          "duration": 0.33380672916666754,
          "durationTicks": 94,
          "midi": 54,
          "name": "F#3",
          "ticks": 21312,
          "time": 75.68179799999999,
          "velocity": 0.5905511811023622
        },
        {
          "duration": 0.33380672916666754,
          "durationTicks": 94,
          "midi": 58,
          "name": "A#3",
          "ticks": 21312,
          "time": 75.68179799999999,
          "velocity": 0.5905511811023622
        },
        {
          "duration": 0.33380672916666754,
          "durationTicks": 94,
          "midi": 63,
          "name": "D#4",
          "ticks": 21312,
          "time": 75.68179799999999,
          "velocity": 0.5905511811023622
        },
        {
          "duration": 0.3338067291666533,
          "durationTicks": 94,
          "midi": 54,
          "name": "F#3",
          "ticks": 21408,
          "time": 76.022707,
          "velocity": 0.5905511811023622
        },
        {
          "duration": 0.3338067291666533,
          "durationTicks": 94,
          "midi": 58,
          "name": "A#3",
          "ticks": 21408,
          "time": 76.022707,
          "velocity": 0.5905511811023622
        },
        {
          "duration": 0.5681816666666606,
          "durationTicks": 160,
          "midi": 54,
          "name": "F#3",
          "ticks": 21504,
          "time": 76.363616,
          "velocity": 0.5905511811023622
        },
        {
          "duration": 0.5681816666666606,
          "durationTicks": 160,
          "midi": 58,
          "name": "A#3",
          "ticks": 21504,
          "time": 76.363616,
          "velocity": 0.5905511811023622
        },
        {
          "duration": 0.5681816666666606,
          "durationTicks": 160,
          "midi": 61,
          "name": "C#4",
          "ticks": 21504,
          "time": 76.363616,
          "velocity": 0.5905511811023622
        },
        {
          "duration": 0.33380672916666754,
          "durationTicks": 94,
          "midi": 54,
          "name": "F#3",
          "ticks": 21696,
          "time": 77.04543399999999,
          "velocity": 0.5905511811023622
        },
        {
          "duration": 0.33380672916666754,
          "durationTicks": 94,
          "midi": 58,
          "name": "A#3",
          "ticks": 21696,
          "time": 77.04543399999999,
          "velocity": 0.5905511811023622
        },
        {
          "duration": 0.33380672916666754,
          "durationTicks": 94,
          "midi": 63,
          "name": "D#4",
          "ticks": 21696,
          "time": 77.04543399999999,
          "velocity": 0.5905511811023622
        },
        {
          "duration": 0.3338067291666533,
          "durationTicks": 94,
          "midi": 54,
          "name": "F#3",
          "ticks": 21792,
          "time": 77.386343,
          "velocity": 0.5905511811023622
        },
        {
          "duration": 0.3338067291666533,
          "durationTicks": 94,
          "midi": 58,
          "name": "A#3",
          "ticks": 21792,
          "time": 77.386343,
          "velocity": 0.5905511811023622
        },
        {
          "duration": 0.5681816666666606,
          "durationTicks": 160,
          "midi": 54,
          "name": "F#3",
          "ticks": 21888,
          "time": 77.727252,
          "velocity": 0.5905511811023622
        },
        {
          "duration": 0.5681816666666606,
          "durationTicks": 160,
          "midi": 58,
          "name": "A#3",
          "ticks": 21888,
          "time": 77.727252,
          "velocity": 0.5905511811023622
        },
        {
          "duration": 0.5681816666666606,
          "durationTicks": 160,
          "midi": 61,
          "name": "C#4",
          "ticks": 21888,
          "time": 77.727252,
          "velocity": 0.5905511811023622
        },
        {
          "duration": 0.33380672916666754,
          "durationTicks": 94,
          "midi": 54,
          "name": "F#3",
          "ticks": 22080,
          "time": 78.40906999999999,
          "velocity": 0.5905511811023622
        },
        {
          "duration": 0.33380672916666754,
          "durationTicks": 94,
          "midi": 58,
          "name": "A#3",
          "ticks": 22080,
          "time": 78.40906999999999,
          "velocity": 0.5905511811023622
        },
        {
          "duration": 0.33380672916666754,
          "durationTicks": 94,
          "midi": 63,
          "name": "D#4",
          "ticks": 22080,
          "time": 78.40906999999999,
          "velocity": 0.5905511811023622
        },
        {
          "duration": 0.3338067291666533,
          "durationTicks": 94,
          "midi": 54,
          "name": "F#3",
          "ticks": 22176,
          "time": 78.749979,
          "velocity": 0.5905511811023622
        },
        {
          "duration": 0.3338067291666533,
          "durationTicks": 94,
          "midi": 58,
          "name": "A#3",
          "ticks": 22176,
          "time": 78.749979,
          "velocity": 0.5905511811023622
        },
        {
          "duration": 0.33380672916666754,
          "durationTicks": 94,
          "midi": 52,
          "name": "E3",
          "ticks": 22272,
          "time": 79.09088799999999,
          "velocity": 0.5905511811023622
        },
        {
          "duration": 0.33380672916666754,
          "durationTicks": 94,
          "midi": 56,
          "name": "G#3",
          "ticks": 22272,
          "time": 79.09088799999999,
          "velocity": 0.5905511811023622
        },
        {
          "duration": 0.33380672916666754,
          "durationTicks": 94,
          "midi": 59,
          "name": "B3",
          "ticks": 22272,
          "time": 79.09088799999999,
          "velocity": 0.5905511811023622
        },
        {
          "duration": 0.33380672916666754,
          "durationTicks": 94,
          "midi": 52,
          "name": "E3",
          "ticks": 22368,
          "time": 79.43179699999999,
          "velocity": 0.5905511811023622
        },
        {
          "duration": 0.33380672916666754,
          "durationTicks": 94,
          "midi": 56,
          "name": "G#3",
          "ticks": 22368,
          "time": 79.43179699999999,
          "velocity": 0.5905511811023622
        },
        {
          "duration": 0.33380672916666754,
          "durationTicks": 94,
          "midi": 52,
          "name": "E3",
          "ticks": 22464,
          "time": 79.77270599999999,
          "velocity": 0.5905511811023622
        },
        {
          "duration": 0.33380672916666754,
          "durationTicks": 94,
          "midi": 56,
          "name": "G#3",
          "ticks": 22464,
          "time": 79.77270599999999,
          "velocity": 0.5905511811023622
        },
        {
          "duration": 0.33380672916666754,
          "durationTicks": 94,
          "midi": 63,
          "name": "D#4",
          "ticks": 22464,
          "time": 79.77270599999999,
          "velocity": 0.5905511811023622
        },
        {
          "duration": 0.3338067291666533,
          "durationTicks": 94,
          "midi": 52,
          "name": "E3",
          "ticks": 22560,
          "time": 80.113615,
          "velocity": 0.5905511811023622
        },
        {
          "duration": 0.3338067291666533,
          "durationTicks": 94,
          "midi": 56,
          "name": "G#3",
          "ticks": 22560,
          "time": 80.113615,
          "velocity": 0.5905511811023622
        },
        {
          "duration": 0.33380672916666754,
          "durationTicks": 94,
          "midi": 52,
          "name": "E3",
          "ticks": 22656,
          "time": 80.45452399999999,
          "velocity": 0.5905511811023622
        },
        {
          "duration": 0.33380672916666754,
          "durationTicks": 94,
          "midi": 56,
          "name": "G#3",
          "ticks": 22656,
          "time": 80.45452399999999,
          "velocity": 0.5905511811023622
        },
        {
          "duration": 0.33380672916666754,
          "durationTicks": 94,
          "midi": 59,
          "name": "B3",
          "ticks": 22656,
          "time": 80.45452399999999,
          "velocity": 0.5905511811023622
        },
        {
          "duration": 0.33380672916666754,
          "durationTicks": 94,
          "midi": 52,
          "name": "E3",
          "ticks": 22752,
          "time": 80.79543299999999,
          "velocity": 0.5905511811023622
        },
        {
          "duration": 0.33380672916666754,
          "durationTicks": 94,
          "midi": 56,
          "name": "G#3",
          "ticks": 22752,
          "time": 80.79543299999999,
          "velocity": 0.5905511811023622
        },
        {
          "duration": 0.33380672916666754,
          "durationTicks": 94,
          "midi": 52,
          "name": "E3",
          "ticks": 22848,
          "time": 81.13634199999998,
          "velocity": 0.5905511811023622
        },
        {
          "duration": 0.33380672916666754,
          "durationTicks": 94,
          "midi": 56,
          "name": "G#3",
          "ticks": 22848,
          "time": 81.13634199999998,
          "velocity": 0.5905511811023622
        },
        {
          "duration": 0.33380672916666754,
          "durationTicks": 94,
          "midi": 63,
          "name": "D#4",
          "ticks": 22848,
          "time": 81.13634199999998,
          "velocity": 0.5905511811023622
        },
        {
          "duration": 0.3338067291666533,
          "durationTicks": 94,
          "midi": 52,
          "name": "E3",
          "ticks": 22944,
          "time": 81.477251,
          "velocity": 0.5905511811023622
        },
        {
          "duration": 0.3338067291666533,
          "durationTicks": 94,
          "midi": 56,
          "name": "G#3",
          "ticks": 22944,
          "time": 81.477251,
          "velocity": 0.5905511811023622
        },
        {
          "duration": 0.33380672916666754,
          "durationTicks": 94,
          "midi": 52,
          "name": "E3",
          "ticks": 23040,
          "time": 81.81815999999999,
          "velocity": 0.5905511811023622
        },
        {
          "duration": 0.33380672916666754,
          "durationTicks": 94,
          "midi": 56,
          "name": "G#3",
          "ticks": 23040,
          "time": 81.81815999999999,
          "velocity": 0.5905511811023622
        },
        {
          "duration": 0.33380672916666754,
          "durationTicks": 94,
          "midi": 59,
          "name": "B3",
          "ticks": 23040,
          "time": 81.81815999999999,
          "velocity": 0.5905511811023622
        },
        {
          "duration": 0.33380672916666754,
          "durationTicks": 94,
          "midi": 52,
          "name": "E3",
          "ticks": 23136,
          "time": 82.15906899999999,
          "velocity": 0.5905511811023622
        },
        {
          "duration": 0.33380672916666754,
          "durationTicks": 94,
          "midi": 56,
          "name": "G#3",
          "ticks": 23136,
          "time": 82.15906899999999,
          "velocity": 0.5905511811023622
        },
        {
          "duration": 0.33380672916666754,
          "durationTicks": 94,
          "midi": 52,
          "name": "E3",
          "ticks": 23232,
          "time": 82.49997799999998,
          "velocity": 0.5905511811023622
        },
        {
          "duration": 0.33380672916666754,
          "durationTicks": 94,
          "midi": 56,
          "name": "G#3",
          "ticks": 23232,
          "time": 82.49997799999998,
          "velocity": 0.5905511811023622
        },
        {
          "duration": 0.33380672916666754,
          "durationTicks": 94,
          "midi": 63,
          "name": "D#4",
          "ticks": 23232,
          "time": 82.49997799999998,
          "velocity": 0.5905511811023622
        },
        {
          "duration": 0.3338067291666533,
          "durationTicks": 94,
          "midi": 52,
          "name": "E3",
          "ticks": 23328,
          "time": 82.840887,
          "velocity": 0.5905511811023622
        },
        {
          "duration": 0.3338067291666533,
          "durationTicks": 94,
          "midi": 56,
          "name": "G#3",
          "ticks": 23328,
          "time": 82.840887,
          "velocity": 0.5905511811023622
        },
        {
          "duration": 0.33380672916666754,
          "durationTicks": 94,
          "midi": 52,
          "name": "E3",
          "ticks": 23424,
          "time": 83.18179599999999,
          "velocity": 0.5905511811023622
        },
        {
          "duration": 0.33380672916666754,
          "durationTicks": 94,
          "midi": 56,
          "name": "G#3",
          "ticks": 23424,
          "time": 83.18179599999999,
          "velocity": 0.5905511811023622
        },
        {
          "duration": 0.33380672916666754,
          "durationTicks": 94,
          "midi": 59,
          "name": "B3",
          "ticks": 23424,
          "time": 83.18179599999999,
          "velocity": 0.5905511811023622
        },
        {
          "duration": 0.33380672916666754,
          "durationTicks": 94,
          "midi": 52,
          "name": "E3",
          "ticks": 23520,
          "time": 83.52270499999999,
          "velocity": 0.5905511811023622
        },
        {
          "duration": 0.33380672916666754,
          "durationTicks": 94,
          "midi": 56,
          "name": "G#3",
          "ticks": 23520,
          "time": 83.52270499999999,
          "velocity": 0.5905511811023622
        },
        {
          "duration": 0.33380672916666754,
          "durationTicks": 94,
          "midi": 52,
          "name": "E3",
          "ticks": 23616,
          "time": 83.86361399999998,
          "velocity": 0.5905511811023622
        },
        {
          "duration": 0.33380672916666754,
          "durationTicks": 94,
          "midi": 56,
          "name": "G#3",
          "ticks": 23616,
          "time": 83.86361399999998,
          "velocity": 0.5905511811023622
        },
        {
          "duration": 0.33380672916666754,
          "durationTicks": 94,
          "midi": 63,
          "name": "D#4",
          "ticks": 23616,
          "time": 83.86361399999998,
          "velocity": 0.5905511811023622
        },
        {
          "duration": 0.3338067291666533,
          "durationTicks": 94,
          "midi": 52,
          "name": "E3",
          "ticks": 23712,
          "time": 84.204523,
          "velocity": 0.5905511811023622
        },
        {
          "duration": 0.3338067291666533,
          "durationTicks": 94,
          "midi": 56,
          "name": "G#3",
          "ticks": 23712,
          "time": 84.204523,
          "velocity": 0.5905511811023622
        },
        {
          "duration": 0.5681816666666606,
          "durationTicks": 160,
          "midi": 59,
          "name": "B3",
          "ticks": 23808,
          "time": 84.54543199999999,
          "velocity": 0.5905511811023622
        },
        {
          "duration": 0.5681816666666606,
          "durationTicks": 160,
          "midi": 63,
          "name": "D#4",
          "ticks": 23808,
          "time": 84.54543199999999,
          "velocity": 0.5905511811023622
        },
        {
          "duration": 0.33380672916666754,
          "durationTicks": 94,
          "midi": 59,
          "name": "B3",
          "ticks": 24000,
          "time": 85.22724999999998,
          "velocity": 0.5905511811023622
        },
        {
          "duration": 0.33380672916666754,
          "durationTicks": 94,
          "midi": 71,
          "name": "B4",
          "ticks": 24000,
          "time": 85.22724999999998,
          "velocity": 0.5905511811023622
        },
        {
          "duration": 0.3338067291666533,
          "durationTicks": 94,
          "midi": 59,
          "name": "B3",
          "ticks": 24096,
          "time": 85.568159,
          "velocity": 0.5905511811023622
        },
        {
          "duration": 0.3338067291666533,
          "durationTicks": 94,
          "midi": 63,
          "name": "D#4",
          "ticks": 24096,
          "time": 85.568159,
          "velocity": 0.5905511811023622
        },
        {
          "duration": 0.5681816666666606,
          "durationTicks": 160,
          "midi": 59,
          "name": "B3",
          "ticks": 24192,
          "time": 85.90906799999999,
          "velocity": 0.5905511811023622
        },
        {
          "duration": 0.5681816666666606,
          "durationTicks": 160,
          "midi": 63,
          "name": "D#4",
          "ticks": 24192,
          "time": 85.90906799999999,
          "velocity": 0.5905511811023622
        },
        {
          "duration": 0.33380672916666754,
          "durationTicks": 94,
          "midi": 59,
          "name": "B3",
          "ticks": 24384,
          "time": 86.59088599999998,
          "velocity": 0.5905511811023622
        },
        {
          "duration": 0.33380672916666754,
          "durationTicks": 94,
          "midi": 71,
          "name": "B4",
          "ticks": 24384,
          "time": 86.59088599999998,
          "velocity": 0.5905511811023622
        },
        {
          "duration": 0.3338067291666533,
          "durationTicks": 94,
          "midi": 59,
          "name": "B3",
          "ticks": 24480,
          "time": 86.931795,
          "velocity": 0.5905511811023622
        },
        {
          "duration": 0.3338067291666533,
          "durationTicks": 94,
          "midi": 63,
          "name": "D#4",
          "ticks": 24480,
          "time": 86.931795,
          "velocity": 0.5905511811023622
        },
        {
          "duration": 0.5681816666666748,
          "durationTicks": 160,
          "midi": 59,
          "name": "B3",
          "ticks": 24576,
          "time": 87.27270399999999,
          "velocity": 0.5905511811023622
        },
        {
          "duration": 0.5681816666666748,
          "durationTicks": 160,
          "midi": 64,
          "name": "E4",
          "ticks": 24576,
          "time": 87.27270399999999,
          "velocity": 0.5905511811023622
        },
        {
          "duration": 0.33380672916666754,
          "durationTicks": 94,
          "midi": 59,
          "name": "B3",
          "ticks": 24768,
          "time": 87.954522,
          "velocity": 0.5905511811023622
        },
        {
          "duration": 0.33380672916666754,
          "durationTicks": 94,
          "midi": 71,
          "name": "B4",
          "ticks": 24768,
          "time": 87.954522,
          "velocity": 0.5905511811023622
        },
        {
          "duration": 0.33380672916666754,
          "durationTicks": 94,
          "midi": 59,
          "name": "B3",
          "ticks": 24864,
          "time": 88.295431,
          "velocity": 0.5905511811023622
        },
        {
          "duration": 0.33380672916666754,
          "durationTicks": 94,
          "midi": 64,
          "name": "E4",
          "ticks": 24864,
          "time": 88.295431,
          "velocity": 0.5905511811023622
        },
        {
          "duration": 0.5681816666666748,
          "durationTicks": 160,
          "midi": 59,
          "name": "B3",
          "ticks": 24960,
          "time": 88.63633999999999,
          "velocity": 0.5905511811023622
        },
        {
          "duration": 0.5681816666666748,
          "durationTicks": 160,
          "midi": 63,
          "name": "D#4",
          "ticks": 24960,
          "time": 88.63633999999999,
          "velocity": 0.5905511811023622
        },
        {
          "duration": 0.33380672916666754,
          "durationTicks": 94,
          "midi": 59,
          "name": "B3",
          "ticks": 25152,
          "time": 89.318158,
          "velocity": 0.5905511811023622
        },
        {
          "duration": 0.33380672916666754,
          "durationTicks": 94,
          "midi": 71,
          "name": "B4",
          "ticks": 25152,
          "time": 89.318158,
          "velocity": 0.5905511811023622
        },
        {
          "duration": 0.33380672916666754,
          "durationTicks": 94,
          "midi": 59,
          "name": "B3",
          "ticks": 25248,
          "time": 89.659067,
          "velocity": 0.5905511811023622
        },
        {
          "duration": 0.33380672916666754,
          "durationTicks": 94,
          "midi": 63,
          "name": "D#4",
          "ticks": 25248,
          "time": 89.659067,
          "velocity": 0.5905511811023622
        },
        {
          "duration": 0.33380672916666754,
          "durationTicks": 94,
          "midi": 68,
          "name": "G#4",
          "ticks": 25344,
          "time": 89.99997599999999,
          "velocity": 0.5905511811023622
        },
        {
          "duration": 0.33380672916666754,
          "durationTicks": 94,
          "midi": 71,
          "name": "B4",
          "ticks": 25344,
          "time": 89.99997599999999,
          "velocity": 0.5905511811023622
        },
        {
          "duration": 0.33380672916668175,
          "durationTicks": 94,
          "midi": 68,
          "name": "G#4",
          "ticks": 25440,
          "time": 90.34088499999999,
          "velocity": 0.5905511811023622
        },
        {
          "duration": 0.33380672916668175,
          "durationTicks": 94,
          "midi": 71,
          "name": "B4",
          "ticks": 25440,
          "time": 90.34088499999999,
          "velocity": 0.5905511811023622
        },
        {
          "duration": 0.33380672916666754,
          "durationTicks": 94,
          "midi": 68,
          "name": "G#4",
          "ticks": 25536,
          "time": 90.681794,
          "velocity": 0.5905511811023622
        },
        {
          "duration": 0.33380672916666754,
          "durationTicks": 94,
          "midi": 71,
          "name": "B4",
          "ticks": 25536,
          "time": 90.681794,
          "velocity": 0.5905511811023622
        },
        {
          "duration": 0.33380672916666754,
          "durationTicks": 94,
          "midi": 68,
          "name": "G#4",
          "ticks": 25632,
          "time": 91.02270299999999,
          "velocity": 0.5905511811023622
        },
        {
          "duration": 0.33380672916666754,
          "durationTicks": 94,
          "midi": 71,
          "name": "B4",
          "ticks": 25632,
          "time": 91.02270299999999,
          "velocity": 0.5905511811023622
        },
        {
          "duration": 0.33380672916666754,
          "durationTicks": 94,
          "midi": 68,
          "name": "G#4",
          "ticks": 25728,
          "time": 91.36361199999999,
          "velocity": 0.5905511811023622
        },
        {
          "duration": 0.33380672916666754,
          "durationTicks": 94,
          "midi": 71,
          "name": "B4",
          "ticks": 25728,
          "time": 91.36361199999999,
          "velocity": 0.5905511811023622
        },
        {
          "duration": 0.33380672916668175,
          "durationTicks": 94,
          "midi": 68,
          "name": "G#4",
          "ticks": 25824,
          "time": 91.70452099999999,
          "velocity": 0.5905511811023622
        },
        {
          "duration": 0.33380672916668175,
          "durationTicks": 94,
          "midi": 71,
          "name": "B4",
          "ticks": 25824,
          "time": 91.70452099999999,
          "velocity": 0.5905511811023622
        },
        {
          "duration": 0.33380672916666754,
          "durationTicks": 94,
          "midi": 68,
          "name": "G#4",
          "ticks": 25920,
          "time": 92.04543,
          "velocity": 0.5905511811023622
        },
        {
          "duration": 0.33380672916666754,
          "durationTicks": 94,
          "midi": 71,
          "name": "B4",
          "ticks": 25920,
          "time": 92.04543,
          "velocity": 0.5905511811023622
        },
        {
          "duration": 0.33380672916666754,
          "durationTicks": 94,
          "midi": 68,
          "name": "G#4",
          "ticks": 26016,
          "time": 92.38633899999999,
          "velocity": 0.5905511811023622
        },
        {
          "duration": 0.33380672916666754,
          "durationTicks": 94,
          "midi": 71,
          "name": "B4",
          "ticks": 26016,
          "time": 92.38633899999999,
          "velocity": 0.5905511811023622
        },
        {
          "duration": 0.33380672916666754,
          "durationTicks": 94,
          "midi": 68,
          "name": "G#4",
          "ticks": 26112,
          "time": 92.72724799999999,
          "velocity": 0.5905511811023622
        },
        {
          "duration": 0.33380672916666754,
          "durationTicks": 94,
          "midi": 71,
          "name": "B4",
          "ticks": 26112,
          "time": 92.72724799999999,
          "velocity": 0.5905511811023622
        },
        {
          "duration": 0.33380672916668175,
          "durationTicks": 94,
          "midi": 68,
          "name": "G#4",
          "ticks": 26208,
          "time": 93.06815699999999,
          "velocity": 0.5905511811023622
        },
        {
          "duration": 0.33380672916668175,
          "durationTicks": 94,
          "midi": 71,
          "name": "B4",
          "ticks": 26208,
          "time": 93.06815699999999,
          "velocity": 0.5905511811023622
        },
        {
          "duration": 0.33380672916666754,
          "durationTicks": 94,
          "midi": 68,
          "name": "G#4",
          "ticks": 26304,
          "time": 93.409066,
          "velocity": 0.5905511811023622
        },
        {
          "duration": 0.33380672916666754,
          "durationTicks": 94,
          "midi": 71,
          "name": "B4",
          "ticks": 26304,
          "time": 93.409066,
          "velocity": 0.5905511811023622
        },
        {
          "duration": 0.33380672916666754,
          "durationTicks": 94,
          "midi": 68,
          "name": "G#4",
          "ticks": 26400,
          "time": 93.74997499999999,
          "velocity": 0.5905511811023622
        },
        {
          "duration": 0.33380672916666754,
          "durationTicks": 94,
          "midi": 71,
          "name": "B4",
          "ticks": 26400,
          "time": 93.74997499999999,
          "velocity": 0.5905511811023622
        },
        {
          "duration": 0.33380672916666754,
          "durationTicks": 94,
          "midi": 66,
          "name": "F#4",
          "ticks": 26496,
          "time": 94.09088399999999,
          "velocity": 0.5905511811023622
        },
        {
          "duration": 0.33380672916666754,
          "durationTicks": 94,
          "midi": 70,
          "name": "A#4",
          "ticks": 26496,
          "time": 94.09088399999999,
          "velocity": 0.5905511811023622
        },
        {
          "duration": 0.33380672916668175,
          "durationTicks": 94,
          "midi": 66,
          "name": "F#4",
          "ticks": 26592,
          "time": 94.43179299999998,
          "velocity": 0.5905511811023622
        },
        {
          "duration": 0.33380672916668175,
          "durationTicks": 94,
          "midi": 70,
          "name": "A#4",
          "ticks": 26592,
          "time": 94.43179299999998,
          "velocity": 0.5905511811023622
        },
        {
          "duration": 0.33380672916666754,
          "durationTicks": 94,
          "midi": 66,
          "name": "F#4",
          "ticks": 26688,
          "time": 94.772702,
          "velocity": 0.5905511811023622
        },
        {
          "duration": 0.33380672916666754,
          "durationTicks": 94,
          "midi": 70,
          "name": "A#4",
          "ticks": 26688,
          "time": 94.772702,
          "velocity": 0.5905511811023622
        },
        {
          "duration": 0.33380672916666754,
          "durationTicks": 94,
          "midi": 66,
          "name": "F#4",
          "ticks": 26784,
          "time": 95.11361099999999,
          "velocity": 0.5905511811023622
        },
        {
          "duration": 0.33380672916666754,
          "durationTicks": 94,
          "midi": 70,
          "name": "A#4",
          "ticks": 26784,
          "time": 95.11361099999999,
          "velocity": 0.5905511811023622
        },
        {
          "duration": 0.33380672916666754,
          "durationTicks": 94,
          "midi": 68,
          "name": "G#4",
          "ticks": 26880,
          "time": 95.45451999999999,
          "velocity": 0.5905511811023622
        },
        {
          "duration": 0.33380672916666754,
          "durationTicks": 94,
          "midi": 71,
          "name": "B4",
          "ticks": 26880,
          "time": 95.45451999999999,
          "velocity": 0.5905511811023622
        },
        {
          "duration": 0.33380672916668175,
          "durationTicks": 94,
          "midi": 68,
          "name": "G#4",
          "ticks": 26976,
          "time": 95.79542899999998,
          "velocity": 0.5905511811023622
        },
        {
          "duration": 0.33380672916668175,
          "durationTicks": 94,
          "midi": 71,
          "name": "B4",
          "ticks": 26976,
          "time": 95.79542899999998,
          "velocity": 0.5905511811023622
        },
        {
          "duration": 0.33380672916666754,
          "durationTicks": 94,
          "midi": 68,
          "name": "G#4",
          "ticks": 27072,
          "time": 96.136338,
          "velocity": 0.5905511811023622
        },
        {
          "duration": 0.33380672916666754,
          "durationTicks": 94,
          "midi": 71,
          "name": "B4",
          "ticks": 27072,
          "time": 96.136338,
          "velocity": 0.5905511811023622
        },
        {
          "duration": 0.33380672916666754,
          "durationTicks": 94,
          "midi": 68,
          "name": "G#4",
          "ticks": 27168,
          "time": 96.47724699999999,
          "velocity": 0.5905511811023622
        },
        {
          "duration": 0.33380672916666754,
          "durationTicks": 94,
          "midi": 71,
          "name": "B4",
          "ticks": 27168,
          "time": 96.47724699999999,
          "velocity": 0.5905511811023622
        },
        {
          "duration": 0.33380672916668175,
          "durationTicks": 94,
          "midi": 68,
          "name": "G#4",
          "ticks": 27264,
          "time": 96.81815599999999,
          "velocity": 0.5905511811023622
        },
        {
          "duration": 0.33380672916668175,
          "durationTicks": 94,
          "midi": 71,
          "name": "B4",
          "ticks": 27264,
          "time": 96.81815599999999,
          "velocity": 0.5905511811023622
        },
        {
          "duration": 0.33380672916668175,
          "durationTicks": 94,
          "midi": 68,
          "name": "G#4",
          "ticks": 27360,
          "time": 97.15906499999998,
          "velocity": 0.5905511811023622
        },
        {
          "duration": 0.33380672916668175,
          "durationTicks": 94,
          "midi": 71,
          "name": "B4",
          "ticks": 27360,
          "time": 97.15906499999998,
          "velocity": 0.5905511811023622
        },
        {
          "duration": 0.33380672916666754,
          "durationTicks": 94,
          "midi": 68,
          "name": "G#4",
          "ticks": 27456,
          "time": 97.499974,
          "velocity": 0.5905511811023622
        },
        {
          "duration": 0.33380672916666754,
          "durationTicks": 94,
          "midi": 71,
          "name": "B4",
          "ticks": 27456,
          "time": 97.499974,
          "velocity": 0.5905511811023622
        },
        {
          "duration": 0.33380672916666754,
          "durationTicks": 94,
          "midi": 68,
          "name": "G#4",
          "ticks": 27552,
          "time": 97.84088299999999,
          "velocity": 0.5905511811023622
        },
        {
          "duration": 0.33380672916666754,
          "durationTicks": 94,
          "midi": 71,
          "name": "B4",
          "ticks": 27552,
          "time": 97.84088299999999,
          "velocity": 0.5905511811023622
        },
        {
          "duration": 0.33380672916668175,
          "durationTicks": 94,
          "midi": 68,
          "name": "G#4",
          "ticks": 27648,
          "time": 98.18179199999999,
          "velocity": 0.5905511811023622
        },
        {
          "duration": 0.33380672916668175,
          "durationTicks": 94,
          "midi": 71,
          "name": "B4",
          "ticks": 27648,
          "time": 98.18179199999999,
          "velocity": 0.5905511811023622
        },
        {
          "duration": 0.33380672916668175,
          "durationTicks": 94,
          "midi": 68,
          "name": "G#4",
          "ticks": 27744,
          "time": 98.52270099999998,
          "velocity": 0.5905511811023622
        },
        {
          "duration": 0.33380672916668175,
          "durationTicks": 94,
          "midi": 71,
          "name": "B4",
          "ticks": 27744,
          "time": 98.52270099999998,
          "velocity": 0.5905511811023622
        },
        {
          "duration": 0.33380672916666754,
          "durationTicks": 94,
          "midi": 68,
          "name": "G#4",
          "ticks": 27840,
          "time": 98.86361,
          "velocity": 0.5905511811023622
        },
        {
          "duration": 0.33380672916666754,
          "durationTicks": 94,
          "midi": 71,
          "name": "B4",
          "ticks": 27840,
          "time": 98.86361,
          "velocity": 0.5905511811023622
        },
        {
          "duration": 0.33380672916666754,
          "durationTicks": 94,
          "midi": 68,
          "name": "G#4",
          "ticks": 27936,
          "time": 99.20451899999999,
          "velocity": 0.5905511811023622
        },
        {
          "duration": 0.33380672916666754,
          "durationTicks": 94,
          "midi": 71,
          "name": "B4",
          "ticks": 27936,
          "time": 99.20451899999999,
          "velocity": 0.5905511811023622
        },
        {
          "duration": 0.33380672916668175,
          "durationTicks": 94,
          "midi": 66,
          "name": "F#4",
          "ticks": 28032,
          "time": 99.54542799999999,
          "velocity": 0.5905511811023622
        },
        {
          "duration": 0.33380672916668175,
          "durationTicks": 94,
          "midi": 70,
          "name": "A#4",
          "ticks": 28032,
          "time": 99.54542799999999,
          "velocity": 0.5905511811023622
        },
        {
          "duration": 0.33380672916668175,
          "durationTicks": 94,
          "midi": 66,
          "name": "F#4",
          "ticks": 28128,
          "time": 99.88633699999998,
          "velocity": 0.5905511811023622
        },
        {
          "duration": 0.33380672916668175,
          "durationTicks": 94,
          "midi": 70,
          "name": "A#4",
          "ticks": 28128,
          "time": 99.88633699999998,
          "velocity": 0.5905511811023622
        },
        {
          "duration": 0.33380672916666754,
          "durationTicks": 94,
          "midi": 66,
          "name": "F#4",
          "ticks": 28224,
          "time": 100.227246,
          "velocity": 0.5905511811023622
        },
        {
          "duration": 0.33380672916666754,
          "durationTicks": 94,
          "midi": 70,
          "name": "A#4",
          "ticks": 28224,
          "time": 100.227246,
          "velocity": 0.5905511811023622
        },
        {
          "duration": 0.33380672916666754,
          "durationTicks": 94,
          "midi": 66,
          "name": "F#4",
          "ticks": 28320,
          "time": 100.56815499999999,
          "velocity": 0.5905511811023622
        },
        {
          "duration": 0.33380672916666754,
          "durationTicks": 94,
          "midi": 70,
          "name": "A#4",
          "ticks": 28320,
          "time": 100.56815499999999,
          "velocity": 0.5905511811023622
        },
        {
          "duration": 0.33380672916668175,
          "durationTicks": 94,
          "midi": 68,
          "name": "G#4",
          "ticks": 28416,
          "time": 100.90906399999999,
          "velocity": 0.5905511811023622
        },
        {
          "duration": 0.33380672916668175,
          "durationTicks": 94,
          "midi": 71,
          "name": "B4",
          "ticks": 28416,
          "time": 100.90906399999999,
          "velocity": 0.5905511811023622
        },
        {
          "duration": 0.33380672916668175,
          "durationTicks": 94,
          "midi": 68,
          "name": "G#4",
          "ticks": 28512,
          "time": 101.24997299999998,
          "velocity": 0.5905511811023622
        },
        {
          "duration": 0.33380672916668175,
          "durationTicks": 94,
          "midi": 71,
          "name": "B4",
          "ticks": 28512,
          "time": 101.24997299999998,
          "velocity": 0.5905511811023622
        },
        {
          "duration": 0.33380672916666754,
          "durationTicks": 94,
          "midi": 68,
          "name": "G#4",
          "ticks": 28608,
          "time": 101.590882,
          "velocity": 0.5905511811023622
        },
        {
          "duration": 0.33380672916666754,
          "durationTicks": 94,
          "midi": 71,
          "name": "B4",
          "ticks": 28608,
          "time": 101.590882,
          "velocity": 0.5905511811023622
        },
        {
          "duration": 0.33380672916666754,
          "durationTicks": 94,
          "midi": 68,
          "name": "G#4",
          "ticks": 28704,
          "time": 101.93179099999999,
          "velocity": 0.5905511811023622
        },
        {
          "duration": 0.33380672916666754,
          "durationTicks": 94,
          "midi": 71,
          "name": "B4",
          "ticks": 28704,
          "time": 101.93179099999999,
          "velocity": 0.5905511811023622
        },
        {
          "duration": 0.33380672916668175,
          "durationTicks": 94,
          "midi": 68,
          "name": "G#4",
          "ticks": 28800,
          "time": 102.27269999999999,
          "velocity": 0.5905511811023622
        },
        {
          "duration": 0.33380672916668175,
          "durationTicks": 94,
          "midi": 71,
          "name": "B4",
          "ticks": 28800,
          "time": 102.27269999999999,
          "velocity": 0.5905511811023622
        },
        {
          "duration": 0.33380672916668175,
          "durationTicks": 94,
          "midi": 68,
          "name": "G#4",
          "ticks": 28896,
          "time": 102.61360899999998,
          "velocity": 0.5905511811023622
        },
        {
          "duration": 0.33380672916668175,
          "durationTicks": 94,
          "midi": 71,
          "name": "B4",
          "ticks": 28896,
          "time": 102.61360899999998,
          "velocity": 0.5905511811023622
        },
        {
          "duration": 0.33380672916666754,
          "durationTicks": 94,
          "midi": 68,
          "name": "G#4",
          "ticks": 28992,
          "time": 102.954518,
          "velocity": 0.5905511811023622
        },
        {
          "duration": 0.33380672916666754,
          "durationTicks": 94,
          "midi": 71,
          "name": "B4",
          "ticks": 28992,
          "time": 102.954518,
          "velocity": 0.5905511811023622
        },
        {
          "duration": 0.33380672916666754,
          "durationTicks": 94,
          "midi": 68,
          "name": "G#4",
          "ticks": 29088,
          "time": 103.29542699999999,
          "velocity": 0.5905511811023622
        },
        {
          "duration": 0.33380672916666754,
          "durationTicks": 94,
          "midi": 71,
          "name": "B4",
          "ticks": 29088,
          "time": 103.29542699999999,
          "velocity": 0.5905511811023622
        },
        {
          "duration": 0.33380672916668175,
          "durationTicks": 94,
          "midi": 68,
          "name": "G#4",
          "ticks": 29184,
          "time": 103.63633599999999,
          "velocity": 0.5905511811023622
        },
        {
          "duration": 0.33380672916668175,
          "durationTicks": 94,
          "midi": 71,
          "name": "B4",
          "ticks": 29184,
          "time": 103.63633599999999,
          "velocity": 0.5905511811023622
        },
        {
          "duration": 0.33380672916668175,
          "durationTicks": 94,
          "midi": 68,
          "name": "G#4",
          "ticks": 29280,
          "time": 103.97724499999998,
          "velocity": 0.5905511811023622
        },
        {
          "duration": 0.33380672916668175,
          "durationTicks": 94,
          "midi": 71,
          "name": "B4",
          "ticks": 29280,
          "time": 103.97724499999998,
          "velocity": 0.5905511811023622
        },
        {
          "duration": 0.33380672916666754,
          "durationTicks": 94,
          "midi": 68,
          "name": "G#4",
          "ticks": 29376,
          "time": 104.31815399999999,
          "velocity": 0.5905511811023622
        },
        {
          "duration": 0.33380672916666754,
          "durationTicks": 94,
          "midi": 71,
          "name": "B4",
          "ticks": 29376,
          "time": 104.31815399999999,
          "velocity": 0.5905511811023622
        },
        {
          "duration": 0.33380672916666754,
          "durationTicks": 94,
          "midi": 68,
          "name": "G#4",
          "ticks": 29472,
          "time": 104.65906299999999,
          "velocity": 0.5905511811023622
        },
        {
          "duration": 0.33380672916666754,
          "durationTicks": 94,
          "midi": 71,
          "name": "B4",
          "ticks": 29472,
          "time": 104.65906299999999,
          "velocity": 0.5905511811023622
        },
        {
          "duration": 0.33380672916668175,
          "durationTicks": 94,
          "midi": 66,
          "name": "F#4",
          "ticks": 29568,
          "time": 104.99997199999999,
          "velocity": 0.5905511811023622
        },
        {
          "duration": 0.33380672916668175,
          "durationTicks": 94,
          "midi": 70,
          "name": "A#4",
          "ticks": 29568,
          "time": 104.99997199999999,
          "velocity": 0.5905511811023622
        },
        {
          "duration": 0.33380672916668175,
          "durationTicks": 94,
          "midi": 66,
          "name": "F#4",
          "ticks": 29664,
          "time": 105.34088099999998,
          "velocity": 0.5905511811023622
        },
        {
          "duration": 0.33380672916668175,
          "durationTicks": 94,
          "midi": 70,
          "name": "A#4",
          "ticks": 29664,
          "time": 105.34088099999998,
          "velocity": 0.5905511811023622
        },
        {
          "duration": 0.33380672916666754,
          "durationTicks": 94,
          "midi": 66,
          "name": "F#4",
          "ticks": 29760,
          "time": 105.68178999999999,
          "velocity": 0.5905511811023622
        },
        {
          "duration": 0.33380672916666754,
          "durationTicks": 94,
          "midi": 70,
          "name": "A#4",
          "ticks": 29760,
          "time": 105.68178999999999,
          "velocity": 0.5905511811023622
        },
        {
          "duration": 0.33380672916666754,
          "durationTicks": 94,
          "midi": 66,
          "name": "F#4",
          "ticks": 29856,
          "time": 106.02269899999999,
          "velocity": 0.5905511811023622
        },
        {
          "duration": 0.33380672916666754,
          "durationTicks": 94,
          "midi": 70,
          "name": "A#4",
          "ticks": 29856,
          "time": 106.02269899999999,
          "velocity": 0.5905511811023622
        },
        {
          "duration": 5.284089500000007,
          "durationTicks": 1488,
          "midi": 68,
          "name": "G#4",
          "ticks": 29952,
          "time": 106.36360799999999,
          "velocity": 0.5905511811023622
        },
        {
          "duration": 5.284089500000007,
          "durationTicks": 1488,
          "midi": 71,
          "name": "B4",
          "ticks": 29952,
          "time": 106.36360799999999,
          "velocity": 0.5905511811023622
        },
        {
          "duration": 0.33380672916668175,
          "durationTicks": 94,
          "midi": 47,
          "name": "B2",
          "ticks": 31488,
          "time": 111.81815199999998,
          "velocity": 0.5905511811023622
        },
        {
          "duration": 0.33380672916668175,
          "durationTicks": 94,
          "midi": 54,
          "name": "F#3",
          "ticks": 31488,
          "time": 111.81815199999998,
          "velocity": 0.5905511811023622
        },
        {
          "duration": 0.33380672916668175,
          "durationTicks": 94,
          "midi": 63,
          "name": "D#4",
          "ticks": 31488,
          "time": 111.81815199999998,
          "velocity": 0.5905511811023622
        },
        {
          "duration": 0.33380672916666754,
          "durationTicks": 94,
          "midi": 47,
          "name": "B2",
          "ticks": 31584,
          "time": 112.159061,
          "velocity": 0.5905511811023622
        },
        {
          "duration": 0.33380672916666754,
          "durationTicks": 94,
          "midi": 54,
          "name": "F#3",
          "ticks": 31584,
          "time": 112.159061,
          "velocity": 0.5905511811023622
        },
        {
          "duration": 0.33380672916666754,
          "durationTicks": 94,
          "midi": 63,
          "name": "D#4",
          "ticks": 31584,
          "time": 112.159061,
          "velocity": 0.5905511811023622
        },
        {
          "duration": 0.33380672916666754,
          "durationTicks": 94,
          "midi": 47,
          "name": "B2",
          "ticks": 31680,
          "time": 112.49996999999999,
          "velocity": 0.5905511811023622
        },
        {
          "duration": 0.33380672916666754,
          "durationTicks": 94,
          "midi": 54,
          "name": "F#3",
          "ticks": 31680,
          "time": 112.49996999999999,
          "velocity": 0.5905511811023622
        },
        {
          "duration": 0.33380672916666754,
          "durationTicks": 94,
          "midi": 63,
          "name": "D#4",
          "ticks": 31680,
          "time": 112.49996999999999,
          "velocity": 0.5905511811023622
        },
        {
          "duration": 0.33380672916666754,
          "durationTicks": 94,
          "midi": 47,
          "name": "B2",
          "ticks": 31776,
          "time": 112.84087899999999,
          "velocity": 0.5905511811023622
        },
        {
          "duration": 0.33380672916666754,
          "durationTicks": 94,
          "midi": 54,
          "name": "F#3",
          "ticks": 31776,
          "time": 112.84087899999999,
          "velocity": 0.5905511811023622
        },
        {
          "duration": 0.33380672916666754,
          "durationTicks": 94,
          "midi": 63,
          "name": "D#4",
          "ticks": 31776,
          "time": 112.84087899999999,
          "velocity": 0.5905511811023622
        },
        {
          "duration": 0.33380672916668175,
          "durationTicks": 94,
          "midi": 47,
          "name": "B2",
          "ticks": 31872,
          "time": 113.18178799999998,
          "velocity": 0.5905511811023622
        },
        {
          "duration": 0.33380672916668175,
          "durationTicks": 94,
          "midi": 54,
          "name": "F#3",
          "ticks": 31872,
          "time": 113.18178799999998,
          "velocity": 0.5905511811023622
        },
        {
          "duration": 0.33380672916668175,
          "durationTicks": 94,
          "midi": 63,
          "name": "D#4",
          "ticks": 31872,
          "time": 113.18178799999998,
          "velocity": 0.5905511811023622
        },
        {
          "duration": 0.33380672916666754,
          "durationTicks": 94,
          "midi": 47,
          "name": "B2",
          "ticks": 31968,
          "time": 113.522697,
          "velocity": 0.5905511811023622
        },
        {
          "duration": 0.33380672916666754,
          "durationTicks": 94,
          "midi": 54,
          "name": "F#3",
          "ticks": 31968,
          "time": 113.522697,
          "velocity": 0.5905511811023622
        },
        {
          "duration": 0.33380672916666754,
          "durationTicks": 94,
          "midi": 63,
          "name": "D#4",
          "ticks": 31968,
          "time": 113.522697,
          "velocity": 0.5905511811023622
        },
        {
          "duration": 0.33380672916666754,
          "durationTicks": 94,
          "midi": 47,
          "name": "B2",
          "ticks": 32064,
          "time": 113.86360599999999,
          "velocity": 0.5905511811023622
        },
        {
          "duration": 0.33380672916666754,
          "durationTicks": 94,
          "midi": 54,
          "name": "F#3",
          "ticks": 32064,
          "time": 113.86360599999999,
          "velocity": 0.5905511811023622
        },
        {
          "duration": 0.33380672916666754,
          "durationTicks": 94,
          "midi": 63,
          "name": "D#4",
          "ticks": 32064,
          "time": 113.86360599999999,
          "velocity": 0.5905511811023622
        },
        {
          "duration": 0.33380672916666754,
          "durationTicks": 94,
          "midi": 47,
          "name": "B2",
          "ticks": 32160,
          "time": 114.20451499999999,
          "velocity": 0.5905511811023622
        },
        {
          "duration": 0.33380672916666754,
          "durationTicks": 94,
          "midi": 54,
          "name": "F#3",
          "ticks": 32160,
          "time": 114.20451499999999,
          "velocity": 0.5905511811023622
        },
        {
          "duration": 0.33380672916666754,
          "durationTicks": 94,
          "midi": 63,
          "name": "D#4",
          "ticks": 32160,
          "time": 114.20451499999999,
          "velocity": 0.5905511811023622
        },
        {
          "duration": 0.33380672916668175,
          "durationTicks": 94,
          "midi": 47,
          "name": "B2",
          "ticks": 32256,
          "time": 114.54542399999998,
          "velocity": 0.5905511811023622
        },
        {
          "duration": 0.33380672916668175,
          "durationTicks": 94,
          "midi": 54,
          "name": "F#3",
          "ticks": 32256,
          "time": 114.54542399999998,
          "velocity": 0.5905511811023622
        },
        {
          "duration": 0.33380672916668175,
          "durationTicks": 94,
          "midi": 63,
          "name": "D#4",
          "ticks": 32256,
          "time": 114.54542399999998,
          "velocity": 0.5905511811023622
        },
        {
          "duration": 0.33380672916666754,
          "durationTicks": 94,
          "midi": 47,
          "name": "B2",
          "ticks": 32352,
          "time": 114.886333,
          "velocity": 0.5905511811023622
        },
        {
          "duration": 0.33380672916666754,
          "durationTicks": 94,
          "midi": 54,
          "name": "F#3",
          "ticks": 32352,
          "time": 114.886333,
          "velocity": 0.5905511811023622
        },
        {
          "duration": 0.33380672916666754,
          "durationTicks": 94,
          "midi": 63,
          "name": "D#4",
          "ticks": 32352,
          "time": 114.886333,
          "velocity": 0.5905511811023622
        },
        {
          "duration": 0.33380672916666754,
          "durationTicks": 94,
          "midi": 47,
          "name": "B2",
          "ticks": 32448,
          "time": 115.22724199999999,
          "velocity": 0.5905511811023622
        },
        {
          "duration": 0.33380672916666754,
          "durationTicks": 94,
          "midi": 54,
          "name": "F#3",
          "ticks": 32448,
          "time": 115.22724199999999,
          "velocity": 0.5905511811023622
        },
        {
          "duration": 0.33380672916666754,
          "durationTicks": 94,
          "midi": 63,
          "name": "D#4",
          "ticks": 32448,
          "time": 115.22724199999999,
          "velocity": 0.5905511811023622
        },
        {
          "duration": 0.33380672916666754,
          "durationTicks": 94,
          "midi": 47,
          "name": "B2",
          "ticks": 32544,
          "time": 115.56815099999999,
          "velocity": 0.5905511811023622
        },
        {
          "duration": 0.33380672916666754,
          "durationTicks": 94,
          "midi": 54,
          "name": "F#3",
          "ticks": 32544,
          "time": 115.56815099999999,
          "velocity": 0.5905511811023622
        },
        {
          "duration": 0.33380672916666754,
          "durationTicks": 94,
          "midi": 63,
          "name": "D#4",
          "ticks": 32544,
          "time": 115.56815099999999,
          "velocity": 0.5905511811023622
        },
        {
          "duration": 0.33380672916668175,
          "durationTicks": 94,
          "midi": 47,
          "name": "B2",
          "ticks": 32640,
          "time": 115.90905999999998,
          "velocity": 0.5905511811023622
        },
        {
          "duration": 0.33380672916668175,
          "durationTicks": 94,
          "midi": 54,
          "name": "F#3",
          "ticks": 32640,
          "time": 115.90905999999998,
          "velocity": 0.5905511811023622
        },
        {
          "duration": 0.33380672916668175,
          "durationTicks": 94,
          "midi": 63,
          "name": "D#4",
          "ticks": 32640,
          "time": 115.90905999999998,
          "velocity": 0.5905511811023622
        },
        {
          "duration": 0.33380672916666754,
          "durationTicks": 94,
          "midi": 47,
          "name": "B2",
          "ticks": 32736,
          "time": 116.249969,
          "velocity": 0.5905511811023622
        },
        {
          "duration": 0.33380672916666754,
          "durationTicks": 94,
          "midi": 54,
          "name": "F#3",
          "ticks": 32736,
          "time": 116.249969,
          "velocity": 0.5905511811023622
        },
        {
          "duration": 0.33380672916666754,
          "durationTicks": 94,
          "midi": 63,
          "name": "D#4",
          "ticks": 32736,
          "time": 116.249969,
          "velocity": 0.5905511811023622
        },
        {
          "duration": 0.33380672916666754,
          "durationTicks": 94,
          "midi": 47,
          "name": "B2",
          "ticks": 32832,
          "time": 116.59087799999999,
          "velocity": 0.5905511811023622
        },
        {
          "duration": 0.33380672916666754,
          "durationTicks": 94,
          "midi": 54,
          "name": "F#3",
          "ticks": 32832,
          "time": 116.59087799999999,
          "velocity": 0.5905511811023622
        },
        {
          "duration": 0.33380672916666754,
          "durationTicks": 94,
          "midi": 63,
          "name": "D#4",
          "ticks": 32832,
          "time": 116.59087799999999,
          "velocity": 0.5905511811023622
        },
        {
          "duration": 0.33380672916666754,
          "durationTicks": 94,
          "midi": 47,
          "name": "B2",
          "ticks": 32928,
          "time": 116.93178699999999,
          "velocity": 0.5905511811023622
        },
        {
          "duration": 0.33380672916666754,
          "durationTicks": 94,
          "midi": 54,
          "name": "F#3",
          "ticks": 32928,
          "time": 116.93178699999999,
          "velocity": 0.5905511811023622
        },
        {
          "duration": 0.33380672916666754,
          "durationTicks": 94,
          "midi": 63,
          "name": "D#4",
          "ticks": 32928,
          "time": 116.93178699999999,
          "velocity": 0.5905511811023622
        },
        {
          "duration": 0.33380672916668175,
          "durationTicks": 94,
          "midi": 54,
          "name": "F#3",
          "ticks": 33024,
          "time": 117.27269599999998,
          "velocity": 0.5905511811023622
        },
        {
          "duration": 0.33380672916668175,
          "durationTicks": 94,
          "midi": 59,
          "name": "B3",
          "ticks": 33024,
          "time": 117.27269599999998,
          "velocity": 0.5905511811023622
        },
        {
          "duration": 0.33380672916668175,
          "durationTicks": 94,
          "midi": 61,
          "name": "C#4",
          "ticks": 33024,
          "time": 117.27269599999998,
          "velocity": 0.5905511811023622
        },
        {
          "duration": 0.33380672916666754,
          "durationTicks": 94,
          "midi": 54,
          "name": "F#3",
          "ticks": 33120,
          "time": 117.61360499999999,
          "velocity": 0.5905511811023622
        },
        {
          "duration": 0.33380672916666754,
          "durationTicks": 94,
          "midi": 59,
          "name": "B3",
          "ticks": 33120,
          "time": 117.61360499999999,
          "velocity": 0.5905511811023622
        },
        {
          "duration": 0.33380672916666754,
          "durationTicks": 94,
          "midi": 61,
          "name": "C#4",
          "ticks": 33120,
          "time": 117.61360499999999,
          "velocity": 0.5905511811023622
        },
        {
          "duration": 0.33380672916666754,
          "durationTicks": 94,
          "midi": 54,
          "name": "F#3",
          "ticks": 33216,
          "time": 117.95451399999999,
          "velocity": 0.5905511811023622
        },
        {
          "duration": 0.33380672916666754,
          "durationTicks": 94,
          "midi": 59,
          "name": "B3",
          "ticks": 33216,
          "time": 117.95451399999999,
          "velocity": 0.5905511811023622
        },
        {
          "duration": 0.33380672916666754,
          "durationTicks": 94,
          "midi": 61,
          "name": "C#4",
          "ticks": 33216,
          "time": 117.95451399999999,
          "velocity": 0.5905511811023622
        },
        {
          "duration": 0.33380672916666754,
          "durationTicks": 94,
          "midi": 54,
          "name": "F#3",
          "ticks": 33312,
          "time": 118.29542299999999,
          "velocity": 0.5905511811023622
        },
        {
          "duration": 0.33380672916666754,
          "durationTicks": 94,
          "midi": 59,
          "name": "B3",
          "ticks": 33312,
          "time": 118.29542299999999,
          "velocity": 0.5905511811023622
        },
        {
          "duration": 0.33380672916666754,
          "durationTicks": 94,
          "midi": 61,
          "name": "C#4",
          "ticks": 33312,
          "time": 118.29542299999999,
          "velocity": 0.5905511811023622
        },
        {
          "duration": 0.33380672916668175,
          "durationTicks": 94,
          "midi": 54,
          "name": "F#3",
          "ticks": 33408,
          "time": 118.63633199999998,
          "velocity": 0.5905511811023622
        },
        {
          "duration": 0.33380672916668175,
          "durationTicks": 94,
          "midi": 59,
          "name": "B3",
          "ticks": 33408,
          "time": 118.63633199999998,
          "velocity": 0.5905511811023622
        },
        {
          "duration": 0.33380672916668175,
          "durationTicks": 94,
          "midi": 61,
          "name": "C#4",
          "ticks": 33408,
          "time": 118.63633199999998,
          "velocity": 0.5905511811023622
        },
        {
          "duration": 0.33380672916666754,
          "durationTicks": 94,
          "midi": 54,
          "name": "F#3",
          "ticks": 33504,
          "time": 118.97724099999999,
          "velocity": 0.5905511811023622
        },
        {
          "duration": 0.33380672916666754,
          "durationTicks": 94,
          "midi": 59,
          "name": "B3",
          "ticks": 33504,
          "time": 118.97724099999999,
          "velocity": 0.5905511811023622
        },
        {
          "duration": 0.33380672916666754,
          "durationTicks": 94,
          "midi": 61,
          "name": "C#4",
          "ticks": 33504,
          "time": 118.97724099999999,
          "velocity": 0.5905511811023622
        },
        {
          "duration": 0.33380672916666754,
          "durationTicks": 94,
          "midi": 54,
          "name": "F#3",
          "ticks": 33600,
          "time": 119.31814999999999,
          "velocity": 0.5905511811023622
        },
        {
          "duration": 0.33380672916666754,
          "durationTicks": 94,
          "midi": 59,
          "name": "B3",
          "ticks": 33600,
          "time": 119.31814999999999,
          "velocity": 0.5905511811023622
        },
        {
          "duration": 0.33380672916666754,
          "durationTicks": 94,
          "midi": 61,
          "name": "C#4",
          "ticks": 33600,
          "time": 119.31814999999999,
          "velocity": 0.5905511811023622
        },
        {
          "duration": 0.33380672916668175,
          "durationTicks": 94,
          "midi": 54,
          "name": "F#3",
          "ticks": 33696,
          "time": 119.65905899999998,
          "velocity": 0.5905511811023622
        },
        {
          "duration": 0.33380672916668175,
          "durationTicks": 94,
          "midi": 59,
          "name": "B3",
          "ticks": 33696,
          "time": 119.65905899999998,
          "velocity": 0.5905511811023622
        },
        {
          "duration": 0.33380672916668175,
          "durationTicks": 94,
          "midi": 61,
          "name": "C#4",
          "ticks": 33696,
          "time": 119.65905899999998,
          "velocity": 0.5905511811023622
        },
        {
          "duration": 0.33380672916668175,
          "durationTicks": 94,
          "midi": 54,
          "name": "F#3",
          "ticks": 33792,
          "time": 119.99996799999998,
          "velocity": 0.5905511811023622
        },
        {
          "duration": 0.33380672916668175,
          "durationTicks": 94,
          "midi": 59,
          "name": "B3",
          "ticks": 33792,
          "time": 119.99996799999998,
          "velocity": 0.5905511811023622
        },
        {
          "duration": 0.33380672916668175,
          "durationTicks": 94,
          "midi": 61,
          "name": "C#4",
          "ticks": 33792,
          "time": 119.99996799999998,
          "velocity": 0.5905511811023622
        },
        {
          "duration": 0.33380672916666754,
          "durationTicks": 94,
          "midi": 54,
          "name": "F#3",
          "ticks": 33888,
          "time": 120.34087699999999,
          "velocity": 0.5905511811023622
        },
        {
          "duration": 0.33380672916666754,
          "durationTicks": 94,
          "midi": 59,
          "name": "B3",
          "ticks": 33888,
          "time": 120.34087699999999,
          "velocity": 0.5905511811023622
        },
        {
          "duration": 0.33380672916666754,
          "durationTicks": 94,
          "midi": 61,
          "name": "C#4",
          "ticks": 33888,
          "time": 120.34087699999999,
          "velocity": 0.5905511811023622
        },
        {
          "duration": 0.33380672916666754,
          "durationTicks": 94,
          "midi": 54,
          "name": "F#3",
          "ticks": 33984,
          "time": 120.68178599999999,
          "velocity": 0.5905511811023622
        },
        {
          "duration": 0.33380672916666754,
          "durationTicks": 94,
          "midi": 59,
          "name": "B3",
          "ticks": 33984,
          "time": 120.68178599999999,
          "velocity": 0.5905511811023622
        },
        {
          "duration": 0.33380672916666754,
          "durationTicks": 94,
          "midi": 61,
          "name": "C#4",
          "ticks": 33984,
          "time": 120.68178599999999,
          "velocity": 0.5905511811023622
        },
        {
          "duration": 0.33380672916668175,
          "durationTicks": 94,
          "midi": 54,
          "name": "F#3",
          "ticks": 34080,
          "time": 121.02269499999998,
          "velocity": 0.5905511811023622
        },
        {
          "duration": 0.33380672916668175,
          "durationTicks": 94,
          "midi": 59,
          "name": "B3",
          "ticks": 34080,
          "time": 121.02269499999998,
          "velocity": 0.5905511811023622
        },
        {
          "duration": 0.33380672916668175,
          "durationTicks": 94,
          "midi": 61,
          "name": "C#4",
          "ticks": 34080,
          "time": 121.02269499999998,
          "velocity": 0.5905511811023622
        },
        {
          "duration": 0.33380672916668175,
          "durationTicks": 94,
          "midi": 54,
          "name": "F#3",
          "ticks": 34176,
          "time": 121.36360399999998,
          "velocity": 0.5905511811023622
        },
        {
          "duration": 0.33380672916668175,
          "durationTicks": 94,
          "midi": 59,
          "name": "B3",
          "ticks": 34176,
          "time": 121.36360399999998,
          "velocity": 0.5905511811023622
        },
        {
          "duration": 0.33380672916668175,
          "durationTicks": 94,
          "midi": 61,
          "name": "C#4",
          "ticks": 34176,
          "time": 121.36360399999998,
          "velocity": 0.5905511811023622
        },
        {
          "duration": 0.33380672916666754,
          "durationTicks": 94,
          "midi": 54,
          "name": "F#3",
          "ticks": 34272,
          "time": 121.70451299999999,
          "velocity": 0.5905511811023622
        },
        {
          "duration": 0.33380672916666754,
          "durationTicks": 94,
          "midi": 59,
          "name": "B3",
          "ticks": 34272,
          "time": 121.70451299999999,
          "velocity": 0.5905511811023622
        },
        {
          "duration": 0.33380672916666754,
          "durationTicks": 94,
          "midi": 61,
          "name": "C#4",
          "ticks": 34272,
          "time": 121.70451299999999,
          "velocity": 0.5905511811023622
        },
        {
          "duration": 0.33380672916666754,
          "durationTicks": 94,
          "midi": 54,
          "name": "F#3",
          "ticks": 34368,
          "time": 122.04542199999999,
          "velocity": 0.5905511811023622
        },
        {
          "duration": 0.33380672916666754,
          "durationTicks": 94,
          "midi": 59,
          "name": "B3",
          "ticks": 34368,
          "time": 122.04542199999999,
          "velocity": 0.5905511811023622
        },
        {
          "duration": 0.33380672916666754,
          "durationTicks": 94,
          "midi": 61,
          "name": "C#4",
          "ticks": 34368,
          "time": 122.04542199999999,
          "velocity": 0.5905511811023622
        },
        {
          "duration": 0.33380672916668175,
          "durationTicks": 94,
          "midi": 54,
          "name": "F#3",
          "ticks": 34464,
          "time": 122.38633099999998,
          "velocity": 0.5905511811023622
        },
        {
          "duration": 0.33380672916668175,
          "durationTicks": 94,
          "midi": 59,
          "name": "B3",
          "ticks": 34464,
          "time": 122.38633099999998,
          "velocity": 0.5905511811023622
        },
        {
          "duration": 0.33380672916668175,
          "durationTicks": 94,
          "midi": 61,
          "name": "C#4",
          "ticks": 34464,
          "time": 122.38633099999998,
          "velocity": 0.5905511811023622
        },
        {
          "duration": 0.33380672916668175,
          "durationTicks": 94,
          "midi": 54,
          "name": "F#3",
          "ticks": 34560,
          "time": 122.72723999999998,
          "velocity": 0.5905511811023622
        },
        {
          "duration": 0.33380672916668175,
          "durationTicks": 94,
          "midi": 59,
          "name": "B3",
          "ticks": 34560,
          "time": 122.72723999999998,
          "velocity": 0.5905511811023622
        },
        {
          "duration": 0.33380672916668175,
          "durationTicks": 94,
          "midi": 63,
          "name": "D#4",
          "ticks": 34560,
          "time": 122.72723999999998,
          "velocity": 0.5905511811023622
        },
        {
          "duration": 0.33380672916666754,
          "durationTicks": 94,
          "midi": 54,
          "name": "F#3",
          "ticks": 34656,
          "time": 123.06814899999999,
          "velocity": 0.5905511811023622
        },
        {
          "duration": 0.33380672916666754,
          "durationTicks": 94,
          "midi": 59,
          "name": "B3",
          "ticks": 34656,
          "time": 123.06814899999999,
          "velocity": 0.5905511811023622
        },
        {
          "duration": 0.33380672916666754,
          "durationTicks": 94,
          "midi": 63,
          "name": "D#4",
          "ticks": 34656,
          "time": 123.06814899999999,
          "velocity": 0.5905511811023622
        },
        {
          "duration": 0.33380672916666754,
          "durationTicks": 94,
          "midi": 54,
          "name": "F#3",
          "ticks": 34752,
          "time": 123.40905799999999,
          "velocity": 0.5905511811023622
        },
        {
          "duration": 0.33380672916666754,
          "durationTicks": 94,
          "midi": 59,
          "name": "B3",
          "ticks": 34752,
          "time": 123.40905799999999,
          "velocity": 0.5905511811023622
        },
        {
          "duration": 0.33380672916666754,
          "durationTicks": 94,
          "midi": 63,
          "name": "D#4",
          "ticks": 34752,
          "time": 123.40905799999999,
          "velocity": 0.5905511811023622
        },
        {
          "duration": 0.33380672916668175,
          "durationTicks": 94,
          "midi": 54,
          "name": "F#3",
          "ticks": 34848,
          "time": 123.74996699999998,
          "velocity": 0.5905511811023622
        },
        {
          "duration": 0.33380672916668175,
          "durationTicks": 94,
          "midi": 59,
          "name": "B3",
          "ticks": 34848,
          "time": 123.74996699999998,
          "velocity": 0.5905511811023622
        },
        {
          "duration": 0.33380672916668175,
          "durationTicks": 94,
          "midi": 63,
          "name": "D#4",
          "ticks": 34848,
          "time": 123.74996699999998,
          "velocity": 0.5905511811023622
        },
        {
          "duration": 0.33380672916668175,
          "durationTicks": 94,
          "midi": 54,
          "name": "F#3",
          "ticks": 34944,
          "time": 124.09087599999998,
          "velocity": 0.5905511811023622
        },
        {
          "duration": 0.33380672916668175,
          "durationTicks": 94,
          "midi": 59,
          "name": "B3",
          "ticks": 34944,
          "time": 124.09087599999998,
          "velocity": 0.5905511811023622
        },
        {
          "duration": 0.33380672916668175,
          "durationTicks": 94,
          "midi": 63,
          "name": "D#4",
          "ticks": 34944,
          "time": 124.09087599999998,
          "velocity": 0.5905511811023622
        },
        {
          "duration": 0.33380672916666754,
          "durationTicks": 94,
          "midi": 54,
          "name": "F#3",
          "ticks": 35040,
          "time": 124.43178499999999,
          "velocity": 0.5905511811023622
        },
        {
          "duration": 0.33380672916666754,
          "durationTicks": 94,
          "midi": 59,
          "name": "B3",
          "ticks": 35040,
          "time": 124.43178499999999,
          "velocity": 0.5905511811023622
        },
        {
          "duration": 0.33380672916666754,
          "durationTicks": 94,
          "midi": 63,
          "name": "D#4",
          "ticks": 35040,
          "time": 124.43178499999999,
          "velocity": 0.5905511811023622
        },
        {
          "duration": 0.33380672916666754,
          "durationTicks": 94,
          "midi": 54,
          "name": "F#3",
          "ticks": 35136,
          "time": 124.77269399999999,
          "velocity": 0.5905511811023622
        },
        {
          "duration": 0.33380672916666754,
          "durationTicks": 94,
          "midi": 59,
          "name": "B3",
          "ticks": 35136,
          "time": 124.77269399999999,
          "velocity": 0.5905511811023622
        },
        {
          "duration": 0.33380672916666754,
          "durationTicks": 94,
          "midi": 63,
          "name": "D#4",
          "ticks": 35136,
          "time": 124.77269399999999,
          "velocity": 0.5905511811023622
        },
        {
          "duration": 0.33380672916668175,
          "durationTicks": 94,
          "midi": 54,
          "name": "F#3",
          "ticks": 35232,
          "time": 125.11360299999998,
          "velocity": 0.5905511811023622
        },
        {
          "duration": 0.33380672916668175,
          "durationTicks": 94,
          "midi": 59,
          "name": "B3",
          "ticks": 35232,
          "time": 125.11360299999998,
          "velocity": 0.5905511811023622
        },
        {
          "duration": 0.33380672916668175,
          "durationTicks": 94,
          "midi": 63,
          "name": "D#4",
          "ticks": 35232,
          "time": 125.11360299999998,
          "velocity": 0.5905511811023622
        },
        {
          "duration": 0.33380672916668175,
          "durationTicks": 94,
          "midi": 54,
          "name": "F#3",
          "ticks": 35328,
          "time": 125.45451199999998,
          "velocity": 0.5905511811023622
        },
        {
          "duration": 0.33380672916668175,
          "durationTicks": 94,
          "midi": 59,
          "name": "B3",
          "ticks": 35328,
          "time": 125.45451199999998,
          "velocity": 0.5905511811023622
        },
        {
          "duration": 0.33380672916668175,
          "durationTicks": 94,
          "midi": 63,
          "name": "D#4",
          "ticks": 35328,
          "time": 125.45451199999998,
          "velocity": 0.5905511811023622
        },
        {
          "duration": 0.33380672916666754,
          "durationTicks": 94,
          "midi": 54,
          "name": "F#3",
          "ticks": 35424,
          "time": 125.79542099999999,
          "velocity": 0.5905511811023622
        },
        {
          "duration": 0.33380672916666754,
          "durationTicks": 94,
          "midi": 59,
          "name": "B3",
          "ticks": 35424,
          "time": 125.79542099999999,
          "velocity": 0.5905511811023622
        },
        {
          "duration": 0.33380672916666754,
          "durationTicks": 94,
          "midi": 63,
          "name": "D#4",
          "ticks": 35424,
          "time": 125.79542099999999,
          "velocity": 0.5905511811023622
        },
        {
          "duration": 0.33380672916666754,
          "durationTicks": 94,
          "midi": 54,
          "name": "F#3",
          "ticks": 35520,
          "time": 126.13632999999999,
          "velocity": 0.5905511811023622
        },
        {
          "duration": 0.33380672916666754,
          "durationTicks": 94,
          "midi": 59,
          "name": "B3",
          "ticks": 35520,
          "time": 126.13632999999999,
          "velocity": 0.5905511811023622
        },
        {
          "duration": 0.33380672916666754,
          "durationTicks": 94,
          "midi": 63,
          "name": "D#4",
          "ticks": 35520,
          "time": 126.13632999999999,
          "velocity": 0.5905511811023622
        },
        {
          "duration": 0.33380672916668175,
          "durationTicks": 94,
          "midi": 54,
          "name": "F#3",
          "ticks": 35616,
          "time": 126.47723899999998,
          "velocity": 0.5905511811023622
        },
        {
          "duration": 0.33380672916668175,
          "durationTicks": 94,
          "midi": 59,
          "name": "B3",
          "ticks": 35616,
          "time": 126.47723899999998,
          "velocity": 0.5905511811023622
        },
        {
          "duration": 0.33380672916668175,
          "durationTicks": 94,
          "midi": 63,
          "name": "D#4",
          "ticks": 35616,
          "time": 126.47723899999998,
          "velocity": 0.5905511811023622
        },
        {
          "duration": 0.33380672916668175,
          "durationTicks": 94,
          "midi": 54,
          "name": "F#3",
          "ticks": 35712,
          "time": 126.81814799999998,
          "velocity": 0.5905511811023622
        },
        {
          "duration": 0.33380672916668175,
          "durationTicks": 94,
          "midi": 59,
          "name": "B3",
          "ticks": 35712,
          "time": 126.81814799999998,
          "velocity": 0.5905511811023622
        },
        {
          "duration": 0.33380672916668175,
          "durationTicks": 94,
          "midi": 63,
          "name": "D#4",
          "ticks": 35712,
          "time": 126.81814799999998,
          "velocity": 0.5905511811023622
        },
        {
          "duration": 0.33380672916666754,
          "durationTicks": 94,
          "midi": 54,
          "name": "F#3",
          "ticks": 35808,
          "time": 127.15905699999999,
          "velocity": 0.5905511811023622
        },
        {
          "duration": 0.33380672916666754,
          "durationTicks": 94,
          "midi": 59,
          "name": "B3",
          "ticks": 35808,
          "time": 127.15905699999999,
          "velocity": 0.5905511811023622
        },
        {
          "duration": 0.33380672916666754,
          "durationTicks": 94,
          "midi": 63,
          "name": "D#4",
          "ticks": 35808,
          "time": 127.15905699999999,
          "velocity": 0.5905511811023622
        },
        {
          "duration": 0.33380672916666754,
          "durationTicks": 94,
          "midi": 54,
          "name": "F#3",
          "ticks": 35904,
          "time": 127.49996599999999,
          "velocity": 0.5905511811023622
        },
        {
          "duration": 0.33380672916666754,
          "durationTicks": 94,
          "midi": 59,
          "name": "B3",
          "ticks": 35904,
          "time": 127.49996599999999,
          "velocity": 0.5905511811023622
        },
        {
          "duration": 0.33380672916666754,
          "durationTicks": 94,
          "midi": 63,
          "name": "D#4",
          "ticks": 35904,
          "time": 127.49996599999999,
          "velocity": 0.5905511811023622
        },
        {
          "duration": 0.33380672916666754,
          "durationTicks": 94,
          "midi": 54,
          "name": "F#3",
          "ticks": 36000,
          "time": 127.84087499999998,
          "velocity": 0.5905511811023622
        },
        {
          "duration": 0.33380672916666754,
          "durationTicks": 94,
          "midi": 59,
          "name": "B3",
          "ticks": 36000,
          "time": 127.84087499999998,
          "velocity": 0.5905511811023622
        },
        {
          "duration": 0.33380672916666754,
          "durationTicks": 94,
          "midi": 63,
          "name": "D#4",
          "ticks": 36000,
          "time": 127.84087499999998,
          "velocity": 0.5905511811023622
        },
        {
          "duration": 0.33380672916666754,
          "durationTicks": 94,
          "midi": 47,
          "name": "B2",
          "ticks": 36096,
          "time": 128.181784,
          "velocity": 0.5905511811023622
        },
        {
          "duration": 0.33380672916666754,
          "durationTicks": 94,
          "midi": 59,
          "name": "B3",
          "ticks": 36096,
          "time": 128.181784,
          "velocity": 0.5905511811023622
        },
        {
          "duration": 0.33380672916666754,
          "durationTicks": 94,
          "midi": 63,
          "name": "D#4",
          "ticks": 36096,
          "time": 128.181784,
          "velocity": 0.5905511811023622
        },
        {
          "duration": 0.33380672916669596,
          "durationTicks": 94,
          "midi": 47,
          "name": "B2",
          "ticks": 36192,
          "time": 128.52269299999998,
          "velocity": 0.5905511811023622
        },
        {
          "duration": 0.33380672916669596,
          "durationTicks": 94,
          "midi": 59,
          "name": "B3",
          "ticks": 36192,
          "time": 128.52269299999998,
          "velocity": 0.5905511811023622
        },
        {
          "duration": 0.33380672916669596,
          "durationTicks": 94,
          "midi": 63,
          "name": "D#4",
          "ticks": 36192,
          "time": 128.52269299999998,
          "velocity": 0.5905511811023622
        },
        {
          "duration": 0.33380672916666754,
          "durationTicks": 94,
          "midi": 47,
          "name": "B2",
          "ticks": 36288,
          "time": 128.863602,
          "velocity": 0.5905511811023622
        },
        {
          "duration": 0.33380672916666754,
          "durationTicks": 94,
          "midi": 59,
          "name": "B3",
          "ticks": 36288,
          "time": 128.863602,
          "velocity": 0.5905511811023622
        },
        {
          "duration": 0.33380672916666754,
          "durationTicks": 94,
          "midi": 63,
          "name": "D#4",
          "ticks": 36288,
          "time": 128.863602,
          "velocity": 0.5905511811023622
        },
        {
          "duration": 0.33380672916666754,
          "durationTicks": 94,
          "midi": 47,
          "name": "B2",
          "ticks": 36384,
          "time": 129.204511,
          "velocity": 0.5905511811023622
        },
        {
          "duration": 0.33380672916666754,
          "durationTicks": 94,
          "midi": 59,
          "name": "B3",
          "ticks": 36384,
          "time": 129.204511,
          "velocity": 0.5905511811023622
        },
        {
          "duration": 0.33380672916666754,
          "durationTicks": 94,
          "midi": 63,
          "name": "D#4",
          "ticks": 36384,
          "time": 129.204511,
          "velocity": 0.5905511811023622
        },
        {
          "duration": 0.33380672916666754,
          "durationTicks": 94,
          "midi": 47,
          "name": "B2",
          "ticks": 36480,
          "time": 129.54541999999998,
          "velocity": 0.5905511811023622
        },
        {
          "duration": 0.33380672916666754,
          "durationTicks": 94,
          "midi": 59,
          "name": "B3",
          "ticks": 36480,
          "time": 129.54541999999998,
          "velocity": 0.5905511811023622
        },
        {
          "duration": 0.33380672916666754,
          "durationTicks": 94,
          "midi": 63,
          "name": "D#4",
          "ticks": 36480,
          "time": 129.54541999999998,
          "velocity": 0.5905511811023622
        },
        {
          "duration": 0.33380672916666754,
          "durationTicks": 94,
          "midi": 47,
          "name": "B2",
          "ticks": 36576,
          "time": 129.886329,
          "velocity": 0.5905511811023622
        },
        {
          "duration": 0.33380672916666754,
          "durationTicks": 94,
          "midi": 59,
          "name": "B3",
          "ticks": 36576,
          "time": 129.886329,
          "velocity": 0.5905511811023622
        },
        {
          "duration": 0.33380672916666754,
          "durationTicks": 94,
          "midi": 63,
          "name": "D#4",
          "ticks": 36576,
          "time": 129.886329,
          "velocity": 0.5905511811023622
        },
        {
          "duration": 0.33380672916669596,
          "durationTicks": 94,
          "midi": 47,
          "name": "B2",
          "ticks": 36672,
          "time": 130.22723799999997,
          "velocity": 0.5905511811023622
        },
        {
          "duration": 0.33380672916669596,
          "durationTicks": 94,
          "midi": 59,
          "name": "B3",
          "ticks": 36672,
          "time": 130.22723799999997,
          "velocity": 0.5905511811023622
        },
        {
          "duration": 0.33380672916669596,
          "durationTicks": 94,
          "midi": 63,
          "name": "D#4",
          "ticks": 36672,
          "time": 130.22723799999997,
          "velocity": 0.5905511811023622
        },
        {
          "duration": 0.33380672916666754,
          "durationTicks": 94,
          "midi": 47,
          "name": "B2",
          "ticks": 36768,
          "time": 130.56814699999998,
          "velocity": 0.5905511811023622
        },
        {
          "duration": 0.33380672916666754,
          "durationTicks": 94,
          "midi": 59,
          "name": "B3",
          "ticks": 36768,
          "time": 130.56814699999998,
          "velocity": 0.5905511811023622
        },
        {
          "duration": 0.33380672916666754,
          "durationTicks": 94,
          "midi": 63,
          "name": "D#4",
          "ticks": 36768,
          "time": 130.56814699999998,
          "velocity": 0.5905511811023622
        },
        {
          "duration": 0.33380672916666754,
          "durationTicks": 94,
          "midi": 47,
          "name": "B2",
          "ticks": 36864,
          "time": 130.909056,
          "velocity": 0.5905511811023622
        },
        {
          "duration": 0.33380672916666754,
          "durationTicks": 94,
          "midi": 59,
          "name": "B3",
          "ticks": 36864,
          "time": 130.909056,
          "velocity": 0.5905511811023622
        },
        {
          "duration": 0.33380672916666754,
          "durationTicks": 94,
          "midi": 63,
          "name": "D#4",
          "ticks": 36864,
          "time": 130.909056,
          "velocity": 0.5905511811023622
        },
        {
          "duration": 0.33380672916669596,
          "durationTicks": 94,
          "midi": 47,
          "name": "B2",
          "ticks": 36960,
          "time": 131.24996499999997,
          "velocity": 0.5905511811023622
        },
        {
          "duration": 0.33380672916669596,
          "durationTicks": 94,
          "midi": 59,
          "name": "B3",
          "ticks": 36960,
          "time": 131.24996499999997,
          "velocity": 0.5905511811023622
        },
        {
          "duration": 0.33380672916669596,
          "durationTicks": 94,
          "midi": 63,
          "name": "D#4",
          "ticks": 36960,
          "time": 131.24996499999997,
          "velocity": 0.5905511811023622
        },
        {
          "duration": 0.33380672916666754,
          "durationTicks": 94,
          "midi": 47,
          "name": "B2",
          "ticks": 37056,
          "time": 131.59087399999999,
          "velocity": 0.5905511811023622
        },
        {
          "duration": 0.33380672916666754,
          "durationTicks": 94,
          "midi": 59,
          "name": "B3",
          "ticks": 37056,
          "time": 131.59087399999999,
          "velocity": 0.5905511811023622
        },
        {
          "duration": 0.33380672916666754,
          "durationTicks": 94,
          "midi": 63,
          "name": "D#4",
          "ticks": 37056,
          "time": 131.59087399999999,
          "velocity": 0.5905511811023622
        },
        {
          "duration": 0.33380672916666754,
          "durationTicks": 94,
          "midi": 47,
          "name": "B2",
          "ticks": 37152,
          "time": 131.931783,
          "velocity": 0.5905511811023622
        },
        {
          "duration": 0.33380672916666754,
          "durationTicks": 94,
          "midi": 59,
          "name": "B3",
          "ticks": 37152,
          "time": 131.931783,
          "velocity": 0.5905511811023622
        },
        {
          "duration": 0.33380672916666754,
          "durationTicks": 94,
          "midi": 63,
          "name": "D#4",
          "ticks": 37152,
          "time": 131.931783,
          "velocity": 0.5905511811023622
        },
        {
          "duration": 0.33380672916666754,
          "durationTicks": 94,
          "midi": 47,
          "name": "B2",
          "ticks": 37248,
          "time": 132.27269199999998,
          "velocity": 0.5905511811023622
        },
        {
          "duration": 0.33380672916666754,
          "durationTicks": 94,
          "midi": 59,
          "name": "B3",
          "ticks": 37248,
          "time": 132.27269199999998,
          "velocity": 0.5905511811023622
        },
        {
          "duration": 0.33380672916666754,
          "durationTicks": 94,
          "midi": 63,
          "name": "D#4",
          "ticks": 37248,
          "time": 132.27269199999998,
          "velocity": 0.5905511811023622
        },
        {
          "duration": 0.33380672916666754,
          "durationTicks": 94,
          "midi": 47,
          "name": "B2",
          "ticks": 37344,
          "time": 132.613601,
          "velocity": 0.5905511811023622
        },
        {
          "duration": 0.33380672916666754,
          "durationTicks": 94,
          "midi": 59,
          "name": "B3",
          "ticks": 37344,
          "time": 132.613601,
          "velocity": 0.5905511811023622
        },
        {
          "duration": 0.33380672916666754,
          "durationTicks": 94,
          "midi": 63,
          "name": "D#4",
          "ticks": 37344,
          "time": 132.613601,
          "velocity": 0.5905511811023622
        },
        {
          "duration": 0.33380672916666754,
          "durationTicks": 94,
          "midi": 47,
          "name": "B2",
          "ticks": 37440,
          "time": 132.95451,
          "velocity": 0.5905511811023622
        },
        {
          "duration": 0.33380672916666754,
          "durationTicks": 94,
          "midi": 59,
          "name": "B3",
          "ticks": 37440,
          "time": 132.95451,
          "velocity": 0.5905511811023622
        },
        {
          "duration": 0.33380672916666754,
          "durationTicks": 94,
          "midi": 63,
          "name": "D#4",
          "ticks": 37440,
          "time": 132.95451,
          "velocity": 0.5905511811023622
        },
        {
          "duration": 0.33380672916666754,
          "durationTicks": 94,
          "midi": 47,
          "name": "B2",
          "ticks": 37536,
          "time": 133.29541899999998,
          "velocity": 0.5905511811023622
        },
        {
          "duration": 0.33380672916666754,
          "durationTicks": 94,
          "midi": 59,
          "name": "B3",
          "ticks": 37536,
          "time": 133.29541899999998,
          "velocity": 0.5905511811023622
        },
        {
          "duration": 0.33380672916666754,
          "durationTicks": 94,
          "midi": 63,
          "name": "D#4",
          "ticks": 37536,
          "time": 133.29541899999998,
          "velocity": 0.5905511811023622
        },
        {
          "duration": 0.5681816666666748,
          "durationTicks": 160,
          "midi": 54,
          "name": "F#3",
          "ticks": 37632,
          "time": 133.636328,
          "velocity": 0.5905511811023622
        },
        {
          "duration": 0.5681816666666748,
          "durationTicks": 160,
          "midi": 59,
          "name": "B3",
          "ticks": 37632,
          "time": 133.636328,
          "velocity": 0.5905511811023622
        },
        {
          "duration": 0.5681816666666748,
          "durationTicks": 160,
          "midi": 63,
          "name": "D#4",
          "ticks": 37632,
          "time": 133.636328,
          "velocity": 0.5905511811023622
        },
        {
          "duration": 0.33380672916666754,
          "durationTicks": 94,
          "midi": 54,
          "name": "F#3",
          "ticks": 37824,
          "time": 134.31814599999998,
          "velocity": 0.5905511811023622
        },
        {
          "duration": 0.33380672916666754,
          "durationTicks": 94,
          "midi": 59,
          "name": "B3",
          "ticks": 37824,
          "time": 134.31814599999998,
          "velocity": 0.5905511811023622
        },
        {
          "duration": 0.33380672916666754,
          "durationTicks": 94,
          "midi": 63,
          "name": "D#4",
          "ticks": 37824,
          "time": 134.31814599999998,
          "velocity": 0.5905511811023622
        },
        {
          "duration": 0.33380672916666754,
          "durationTicks": 94,
          "midi": 54,
          "name": "F#3",
          "ticks": 37920,
          "time": 134.659055,
          "velocity": 0.5905511811023622
        },
        {
          "duration": 0.5681816666666748,
          "durationTicks": 160,
          "midi": 54,
          "name": "F#3",
          "ticks": 38016,
          "time": 134.99996399999998,
          "velocity": 0.5905511811023622
        },
        {
          "duration": 0.5681816666666748,
          "durationTicks": 160,
          "midi": 59,
          "name": "B3",
          "ticks": 38016,
          "time": 134.99996399999998,
          "velocity": 0.5905511811023622
        },
        {
          "duration": 0.5681816666666748,
          "durationTicks": 160,
          "midi": 63,
          "name": "D#4",
          "ticks": 38016,
          "time": 134.99996399999998,
          "velocity": 0.5905511811023622
        },
        {
          "duration": 0.33380672916666754,
          "durationTicks": 94,
          "midi": 54,
          "name": "F#3",
          "ticks": 38208,
          "time": 135.681782,
          "velocity": 0.5905511811023622
        },
        {
          "duration": 0.33380672916666754,
          "durationTicks": 94,
          "midi": 59,
          "name": "B3",
          "ticks": 38208,
          "time": 135.681782,
          "velocity": 0.5905511811023622
        },
        {
          "duration": 0.33380672916666754,
          "durationTicks": 94,
          "midi": 63,
          "name": "D#4",
          "ticks": 38208,
          "time": 135.681782,
          "velocity": 0.5905511811023622
        },
        {
          "duration": 0.33380672916666754,
          "durationTicks": 94,
          "midi": 54,
          "name": "F#3",
          "ticks": 38304,
          "time": 136.02269099999998,
          "velocity": 0.5905511811023622
        },
        {
          "duration": 0.5681816666666748,
          "durationTicks": 160,
          "midi": 54,
          "name": "F#3",
          "ticks": 38400,
          "time": 136.3636,
          "velocity": 0.5905511811023622
        },
        {
          "duration": 0.5681816666666748,
          "durationTicks": 160,
          "midi": 59,
          "name": "B3",
          "ticks": 38400,
          "time": 136.3636,
          "velocity": 0.5905511811023622
        },
        {
          "duration": 0.5681816666666748,
          "durationTicks": 160,
          "midi": 63,
          "name": "D#4",
          "ticks": 38400,
          "time": 136.3636,
          "velocity": 0.5905511811023622
        },
        {
          "duration": 0.33380672916666754,
          "durationTicks": 94,
          "midi": 54,
          "name": "F#3",
          "ticks": 38592,
          "time": 137.04541799999998,
          "velocity": 0.5905511811023622
        },
        {
          "duration": 0.33380672916666754,
          "durationTicks": 94,
          "midi": 59,
          "name": "B3",
          "ticks": 38592,
          "time": 137.04541799999998,
          "velocity": 0.5905511811023622
        },
        {
          "duration": 0.33380672916666754,
          "durationTicks": 94,
          "midi": 63,
          "name": "D#4",
          "ticks": 38592,
          "time": 137.04541799999998,
          "velocity": 0.5905511811023622
        },
        {
          "duration": 0.33380672916666754,
          "durationTicks": 94,
          "midi": 54,
          "name": "F#3",
          "ticks": 38688,
          "time": 137.386327,
          "velocity": 0.5905511811023622
        },
        {
          "duration": 0.5681816666666748,
          "durationTicks": 160,
          "midi": 54,
          "name": "F#3",
          "ticks": 38784,
          "time": 137.72723599999998,
          "velocity": 0.5905511811023622
        },
        {
          "duration": 0.5681816666666748,
          "durationTicks": 160,
          "midi": 59,
          "name": "B3",
          "ticks": 38784,
          "time": 137.72723599999998,
          "velocity": 0.5905511811023622
        },
        {
          "duration": 0.5681816666666748,
          "durationTicks": 160,
          "midi": 63,
          "name": "D#4",
          "ticks": 38784,
          "time": 137.72723599999998,
          "velocity": 0.5905511811023622
        },
        {
          "duration": 0.33380672916666754,
          "durationTicks": 94,
          "midi": 54,
          "name": "F#3",
          "ticks": 38976,
          "time": 138.409054,
          "velocity": 0.5905511811023622
        },
        {
          "duration": 0.33380672916666754,
          "durationTicks": 94,
          "midi": 59,
          "name": "B3",
          "ticks": 38976,
          "time": 138.409054,
          "velocity": 0.5905511811023622
        },
        {
          "duration": 0.33380672916666754,
          "durationTicks": 94,
          "midi": 63,
          "name": "D#4",
          "ticks": 38976,
          "time": 138.409054,
          "velocity": 0.5905511811023622
        },
        {
          "duration": 0.33380672916666754,
          "durationTicks": 94,
          "midi": 54,
          "name": "F#3",
          "ticks": 39072,
          "time": 138.74996299999998,
          "velocity": 0.5905511811023622
        },
        {
          "duration": 0.33380672916666754,
          "durationTicks": 94,
          "midi": 59,
          "name": "B3",
          "ticks": 39072,
          "time": 138.74996299999998,
          "velocity": 0.5905511811023622
        },
        {
          "duration": 0.33380672916666754,
          "durationTicks": 94,
          "midi": 63,
          "name": "D#4",
          "ticks": 39072,
          "time": 138.74996299999998,
          "velocity": 0.5905511811023622
        },
        {
          "duration": 0.5681816666666748,
          "durationTicks": 160,
          "midi": 54,
          "name": "F#3",
          "ticks": 39168,
          "time": 139.090872,
          "velocity": 0.5905511811023622
        },
        {
          "duration": 0.5681816666666748,
          "durationTicks": 160,
          "midi": 58,
          "name": "A#3",
          "ticks": 39168,
          "time": 139.090872,
          "velocity": 0.5905511811023622
        },
        {
          "duration": 0.5681816666666748,
          "durationTicks": 160,
          "midi": 61,
          "name": "C#4",
          "ticks": 39168,
          "time": 139.090872,
          "velocity": 0.5905511811023622
        },
        {
          "duration": 0.33380672916666754,
          "durationTicks": 94,
          "midi": 54,
          "name": "F#3",
          "ticks": 39360,
          "time": 139.77268999999998,
          "velocity": 0.5905511811023622
        },
        {
          "duration": 0.33380672916666754,
          "durationTicks": 94,
          "midi": 58,
          "name": "A#3",
          "ticks": 39360,
          "time": 139.77268999999998,
          "velocity": 0.5905511811023622
        },
        {
          "duration": 0.33380672916666754,
          "durationTicks": 94,
          "midi": 63,
          "name": "D#4",
          "ticks": 39360,
          "time": 139.77268999999998,
          "velocity": 0.5905511811023622
        },
        {
          "duration": 0.33380672916666754,
          "durationTicks": 94,
          "midi": 54,
          "name": "F#3",
          "ticks": 39456,
          "time": 140.113599,
          "velocity": 0.5905511811023622
        },
        {
          "duration": 0.33380672916666754,
          "durationTicks": 94,
          "midi": 58,
          "name": "A#3",
          "ticks": 39456,
          "time": 140.113599,
          "velocity": 0.5905511811023622
        },
        {
          "duration": 0.5681816666666748,
          "durationTicks": 160,
          "midi": 54,
          "name": "F#3",
          "ticks": 39552,
          "time": 140.45450799999998,
          "velocity": 0.5905511811023622
        },
        {
          "duration": 0.5681816666666748,
          "durationTicks": 160,
          "midi": 58,
          "name": "A#3",
          "ticks": 39552,
          "time": 140.45450799999998,
          "velocity": 0.5905511811023622
        },
        {
          "duration": 0.5681816666666748,
          "durationTicks": 160,
          "midi": 61,
          "name": "C#4",
          "ticks": 39552,
          "time": 140.45450799999998,
          "velocity": 0.5905511811023622
        },
        {
          "duration": 0.33380672916666754,
          "durationTicks": 94,
          "midi": 54,
          "name": "F#3",
          "ticks": 39744,
          "time": 141.136326,
          "velocity": 0.5905511811023622
        },
        {
          "duration": 0.33380672916666754,
          "durationTicks": 94,
          "midi": 58,
          "name": "A#3",
          "ticks": 39744,
          "time": 141.136326,
          "velocity": 0.5905511811023622
        },
        {
          "duration": 0.33380672916666754,
          "durationTicks": 94,
          "midi": 63,
          "name": "D#4",
          "ticks": 39744,
          "time": 141.136326,
          "velocity": 0.5905511811023622
        },
        {
          "duration": 0.33380672916666754,
          "durationTicks": 94,
          "midi": 54,
          "name": "F#3",
          "ticks": 39840,
          "time": 141.47723499999998,
          "velocity": 0.5905511811023622
        },
        {
          "duration": 0.33380672916666754,
          "durationTicks": 94,
          "midi": 58,
          "name": "A#3",
          "ticks": 39840,
          "time": 141.47723499999998,
          "velocity": 0.5905511811023622
        },
        {
          "duration": 0.5681816666666748,
          "durationTicks": 160,
          "midi": 54,
          "name": "F#3",
          "ticks": 39936,
          "time": 141.818144,
          "velocity": 0.5905511811023622
        },
        {
          "duration": 0.5681816666666748,
          "durationTicks": 160,
          "midi": 58,
          "name": "A#3",
          "ticks": 39936,
          "time": 141.818144,
          "velocity": 0.5905511811023622
        },
        {
          "duration": 0.5681816666666748,
          "durationTicks": 160,
          "midi": 61,
          "name": "C#4",
          "ticks": 39936,
          "time": 141.818144,
          "velocity": 0.5905511811023622
        },
        {
          "duration": 0.33380672916666754,
          "durationTicks": 94,
          "midi": 54,
          "name": "F#3",
          "ticks": 40128,
          "time": 142.49996199999998,
          "velocity": 0.5905511811023622
        },
        {
          "duration": 0.33380672916666754,
          "durationTicks": 94,
          "midi": 58,
          "name": "A#3",
          "ticks": 40128,
          "time": 142.49996199999998,
          "velocity": 0.5905511811023622
        },
        {
          "duration": 0.33380672916666754,
          "durationTicks": 94,
          "midi": 63,
          "name": "D#4",
          "ticks": 40128,
          "time": 142.49996199999998,
          "velocity": 0.5905511811023622
        },
        {
          "duration": 0.33380672916666754,
          "durationTicks": 94,
          "midi": 54,
          "name": "F#3",
          "ticks": 40224,
          "time": 142.840871,
          "velocity": 0.5905511811023622
        },
        {
          "duration": 0.33380672916666754,
          "durationTicks": 94,
          "midi": 58,
          "name": "A#3",
          "ticks": 40224,
          "time": 142.840871,
          "velocity": 0.5905511811023622
        },
        {
          "duration": 0.5681816666666748,
          "durationTicks": 160,
          "midi": 54,
          "name": "F#3",
          "ticks": 40320,
          "time": 143.18177999999997,
          "velocity": 0.5905511811023622
        },
        {
          "duration": 0.5681816666666748,
          "durationTicks": 160,
          "midi": 58,
          "name": "A#3",
          "ticks": 40320,
          "time": 143.18177999999997,
          "velocity": 0.5905511811023622
        },
        {
          "duration": 0.5681816666666748,
          "durationTicks": 160,
          "midi": 61,
          "name": "C#4",
          "ticks": 40320,
          "time": 143.18177999999997,
          "velocity": 0.5905511811023622
        },
        {
          "duration": 0.33380672916666754,
          "durationTicks": 94,
          "midi": 54,
          "name": "F#3",
          "ticks": 40512,
          "time": 143.863598,
          "velocity": 0.5905511811023622
        },
        {
          "duration": 0.33380672916666754,
          "durationTicks": 94,
          "midi": 58,
          "name": "A#3",
          "ticks": 40512,
          "time": 143.863598,
          "velocity": 0.5905511811023622
        },
        {
          "duration": 0.33380672916666754,
          "durationTicks": 94,
          "midi": 63,
          "name": "D#4",
          "ticks": 40512,
          "time": 143.863598,
          "velocity": 0.5905511811023622
        },
        {
          "duration": 0.33380672916666754,
          "durationTicks": 94,
          "midi": 54,
          "name": "F#3",
          "ticks": 40608,
          "time": 144.20450699999998,
          "velocity": 0.5905511811023622
        },
        {
          "duration": 0.33380672916666754,
          "durationTicks": 94,
          "midi": 58,
          "name": "A#3",
          "ticks": 40608,
          "time": 144.20450699999998,
          "velocity": 0.5905511811023622
        },
        {
          "duration": 0.33380672916666754,
          "durationTicks": 94,
          "midi": 52,
          "name": "E3",
          "ticks": 40704,
          "time": 144.545416,
          "velocity": 0.5905511811023622
        },
        {
          "duration": 0.33380672916666754,
          "durationTicks": 94,
          "midi": 56,
          "name": "G#3",
          "ticks": 40704,
          "time": 144.545416,
          "velocity": 0.5905511811023622
        },
        {
          "duration": 0.33380672916666754,
          "durationTicks": 94,
          "midi": 59,
          "name": "B3",
          "ticks": 40704,
          "time": 144.545416,
          "velocity": 0.5905511811023622
        },
        {
          "duration": 0.33380672916669596,
          "durationTicks": 94,
          "midi": 52,
          "name": "E3",
          "ticks": 40800,
          "time": 144.88632499999997,
          "velocity": 0.5905511811023622
        },
        {
          "duration": 0.33380672916669596,
          "durationTicks": 94,
          "midi": 56,
          "name": "G#3",
          "ticks": 40800,
          "time": 144.88632499999997,
          "velocity": 0.5905511811023622
        },
        {
          "duration": 0.33380672916666754,
          "durationTicks": 94,
          "midi": 52,
          "name": "E3",
          "ticks": 40896,
          "time": 145.22723399999998,
          "velocity": 0.5905511811023622
        },
        {
          "duration": 0.33380672916666754,
          "durationTicks": 94,
          "midi": 56,
          "name": "G#3",
          "ticks": 40896,
          "time": 145.22723399999998,
          "velocity": 0.5905511811023622
        },
        {
          "duration": 0.33380672916666754,
          "durationTicks": 94,
          "midi": 63,
          "name": "D#4",
          "ticks": 40896,
          "time": 145.22723399999998,
          "velocity": 0.5905511811023622
        },
        {
          "duration": 0.33380672916666754,
          "durationTicks": 94,
          "midi": 52,
          "name": "E3",
          "ticks": 40992,
          "time": 145.568143,
          "velocity": 0.5905511811023622
        },
        {
          "duration": 0.33380672916666754,
          "durationTicks": 94,
          "midi": 56,
          "name": "G#3",
          "ticks": 40992,
          "time": 145.568143,
          "velocity": 0.5905511811023622
        },
        {
          "duration": 0.33380672916669596,
          "durationTicks": 94,
          "midi": 52,
          "name": "E3",
          "ticks": 41088,
          "time": 145.90905199999997,
          "velocity": 0.5905511811023622
        },
        {
          "duration": 0.33380672916669596,
          "durationTicks": 94,
          "midi": 56,
          "name": "G#3",
          "ticks": 41088,
          "time": 145.90905199999997,
          "velocity": 0.5905511811023622
        },
        {
          "duration": 0.33380672916669596,
          "durationTicks": 94,
          "midi": 59,
          "name": "B3",
          "ticks": 41088,
          "time": 145.90905199999997,
          "velocity": 0.5905511811023622
        },
        {
          "duration": 0.33380672916666754,
          "durationTicks": 94,
          "midi": 52,
          "name": "E3",
          "ticks": 41184,
          "time": 146.24996099999998,
          "velocity": 0.5905511811023622
        },
        {
          "duration": 0.33380672916666754,
          "durationTicks": 94,
          "midi": 56,
          "name": "G#3",
          "ticks": 41184,
          "time": 146.24996099999998,
          "velocity": 0.5905511811023622
        },
        {
          "duration": 0.33380672916666754,
          "durationTicks": 94,
          "midi": 52,
          "name": "E3",
          "ticks": 41280,
          "time": 146.59087,
          "velocity": 0.5905511811023622
        },
        {
          "duration": 0.33380672916666754,
          "durationTicks": 94,
          "midi": 56,
          "name": "G#3",
          "ticks": 41280,
          "time": 146.59087,
          "velocity": 0.5905511811023622
        },
        {
          "duration": 0.33380672916666754,
          "durationTicks": 94,
          "midi": 63,
          "name": "D#4",
          "ticks": 41280,
          "time": 146.59087,
          "velocity": 0.5905511811023622
        },
        {
          "duration": 0.33380672916666754,
          "durationTicks": 94,
          "midi": 52,
          "name": "E3",
          "ticks": 41376,
          "time": 146.93177899999998,
          "velocity": 0.5905511811023622
        },
        {
          "duration": 0.33380672916666754,
          "durationTicks": 94,
          "midi": 56,
          "name": "G#3",
          "ticks": 41376,
          "time": 146.93177899999998,
          "velocity": 0.5905511811023622
        },
        {
          "duration": 0.33380672916666754,
          "durationTicks": 94,
          "midi": 52,
          "name": "E3",
          "ticks": 41472,
          "time": 147.272688,
          "velocity": 0.5905511811023622
        },
        {
          "duration": 0.33380672916666754,
          "durationTicks": 94,
          "midi": 56,
          "name": "G#3",
          "ticks": 41472,
          "time": 147.272688,
          "velocity": 0.5905511811023622
        },
        {
          "duration": 0.33380672916666754,
          "durationTicks": 94,
          "midi": 59,
          "name": "B3",
          "ticks": 41472,
          "time": 147.272688,
          "velocity": 0.5905511811023622
        },
        {
          "duration": 0.33380672916669596,
          "durationTicks": 94,
          "midi": 52,
          "name": "E3",
          "ticks": 41568,
          "time": 147.61359699999997,
          "velocity": 0.5905511811023622
        },
        {
          "duration": 0.33380672916669596,
          "durationTicks": 94,
          "midi": 56,
          "name": "G#3",
          "ticks": 41568,
          "time": 147.61359699999997,
          "velocity": 0.5905511811023622
        },
        {
          "duration": 0.33380672916666754,
          "durationTicks": 94,
          "midi": 52,
          "name": "E3",
          "ticks": 41664,
          "time": 147.95450599999998,
          "velocity": 0.5905511811023622
        },
        {
          "duration": 0.33380672916666754,
          "durationTicks": 94,
          "midi": 56,
          "name": "G#3",
          "ticks": 41664,
          "time": 147.95450599999998,
          "velocity": 0.5905511811023622
        },
        {
          "duration": 0.33380672916666754,
          "durationTicks": 94,
          "midi": 63,
          "name": "D#4",
          "ticks": 41664,
          "time": 147.95450599999998,
          "velocity": 0.5905511811023622
        },
        {
          "duration": 0.33380672916666754,
          "durationTicks": 94,
          "midi": 52,
          "name": "E3",
          "ticks": 41760,
          "time": 148.295415,
          "velocity": 0.5905511811023622
        },
        {
          "duration": 0.33380672916666754,
          "durationTicks": 94,
          "midi": 56,
          "name": "G#3",
          "ticks": 41760,
          "time": 148.295415,
          "velocity": 0.5905511811023622
        },
        {
          "duration": 0.33380672916669596,
          "durationTicks": 94,
          "midi": 52,
          "name": "E3",
          "ticks": 41856,
          "time": 148.63632399999997,
          "velocity": 0.5905511811023622
        },
        {
          "duration": 0.33380672916669596,
          "durationTicks": 94,
          "midi": 56,
          "name": "G#3",
          "ticks": 41856,
          "time": 148.63632399999997,
          "velocity": 0.5905511811023622
        },
        {
          "duration": 0.33380672916669596,
          "durationTicks": 94,
          "midi": 59,
          "name": "B3",
          "ticks": 41856,
          "time": 148.63632399999997,
          "velocity": 0.5905511811023622
        },
        {
          "duration": 0.33380672916666754,
          "durationTicks": 94,
          "midi": 52,
          "name": "E3",
          "ticks": 41952,
          "time": 148.97723299999998,
          "velocity": 0.5905511811023622
        },
        {
          "duration": 0.33380672916666754,
          "durationTicks": 94,
          "midi": 56,
          "name": "G#3",
          "ticks": 41952,
          "time": 148.97723299999998,
          "velocity": 0.5905511811023622
        },
        {
          "duration": 0.33380672916666754,
          "durationTicks": 94,
          "midi": 52,
          "name": "E3",
          "ticks": 42048,
          "time": 149.318142,
          "velocity": 0.5905511811023622
        },
        {
          "duration": 0.33380672916666754,
          "durationTicks": 94,
          "midi": 56,
          "name": "G#3",
          "ticks": 42048,
          "time": 149.318142,
          "velocity": 0.5905511811023622
        },
        {
          "duration": 0.33380672916666754,
          "durationTicks": 94,
          "midi": 63,
          "name": "D#4",
          "ticks": 42048,
          "time": 149.318142,
          "velocity": 0.5905511811023622
        },
        {
          "duration": 0.33380672916666754,
          "durationTicks": 94,
          "midi": 52,
          "name": "E3",
          "ticks": 42144,
          "time": 149.65905099999998,
          "velocity": 0.5905511811023622
        },
        {
          "duration": 0.33380672916666754,
          "durationTicks": 94,
          "midi": 56,
          "name": "G#3",
          "ticks": 42144,
          "time": 149.65905099999998,
          "velocity": 0.5905511811023622
        },
        {
          "duration": 0.5681816666666748,
          "durationTicks": 160,
          "midi": 54,
          "name": "F#3",
          "ticks": 42240,
          "time": 149.99996,
          "velocity": 0.5905511811023622
        },
        {
          "duration": 0.5681816666666748,
          "durationTicks": 160,
          "midi": 59,
          "name": "B3",
          "ticks": 42240,
          "time": 149.99996,
          "velocity": 0.5905511811023622
        },
        {
          "duration": 0.5681816666666748,
          "durationTicks": 160,
          "midi": 63,
          "name": "D#4",
          "ticks": 42240,
          "time": 149.99996,
          "velocity": 0.5905511811023622
        },
        {
          "duration": 0.33380672916666754,
          "durationTicks": 94,
          "midi": 54,
          "name": "F#3",
          "ticks": 42432,
          "time": 150.68177799999998,
          "velocity": 0.5905511811023622
        },
        {
          "duration": 0.33380672916666754,
          "durationTicks": 94,
          "midi": 59,
          "name": "B3",
          "ticks": 42432,
          "time": 150.68177799999998,
          "velocity": 0.5905511811023622
        },
        {
          "duration": 0.33380672916666754,
          "durationTicks": 94,
          "midi": 63,
          "name": "D#4",
          "ticks": 42432,
          "time": 150.68177799999998,
          "velocity": 0.5905511811023622
        },
        {
          "duration": 0.33380672916666754,
          "durationTicks": 94,
          "midi": 54,
          "name": "F#3",
          "ticks": 42528,
          "time": 151.022687,
          "velocity": 0.5905511811023622
        },
        {
          "duration": 0.5681816666666748,
          "durationTicks": 160,
          "midi": 54,
          "name": "F#3",
          "ticks": 42624,
          "time": 151.36359599999997,
          "velocity": 0.5905511811023622
        },
        {
          "duration": 0.5681816666666748,
          "durationTicks": 160,
          "midi": 59,
          "name": "B3",
          "ticks": 42624,
          "time": 151.36359599999997,
          "velocity": 0.5905511811023622
        },
        {
          "duration": 0.5681816666666748,
          "durationTicks": 160,
          "midi": 63,
          "name": "D#4",
          "ticks": 42624,
          "time": 151.36359599999997,
          "velocity": 0.5905511811023622
        },
        {
          "duration": 0.33380672916666754,
          "durationTicks": 94,
          "midi": 54,
          "name": "F#3",
          "ticks": 42816,
          "time": 152.045414,
          "velocity": 0.5905511811023622
        },
        {
          "duration": 0.33380672916666754,
          "durationTicks": 94,
          "midi": 59,
          "name": "B3",
          "ticks": 42816,
          "time": 152.045414,
          "velocity": 0.5905511811023622
        },
        {
          "duration": 0.33380672916666754,
          "durationTicks": 94,
          "midi": 63,
          "name": "D#4",
          "ticks": 42816,
          "time": 152.045414,
          "velocity": 0.5905511811023622
        },
        {
          "duration": 0.33380672916666754,
          "durationTicks": 94,
          "midi": 54,
          "name": "F#3",
          "ticks": 42912,
          "time": 152.38632299999998,
          "velocity": 0.5905511811023622
        },
        {
          "duration": 0.5681816666666748,
          "durationTicks": 160,
          "midi": 54,
          "name": "F#3",
          "ticks": 43008,
          "time": 152.727232,
          "velocity": 0.5905511811023622
        },
        {
          "duration": 0.5681816666666748,
          "durationTicks": 160,
          "midi": 59,
          "name": "B3",
          "ticks": 43008,
          "time": 152.727232,
          "velocity": 0.5905511811023622
        },
        {
          "duration": 0.5681816666666748,
          "durationTicks": 160,
          "midi": 63,
          "name": "D#4",
          "ticks": 43008,
          "time": 152.727232,
          "velocity": 0.5905511811023622
        },
        {
          "duration": 0.33380672916666754,
          "durationTicks": 94,
          "midi": 54,
          "name": "F#3",
          "ticks": 43200,
          "time": 153.40904999999998,
          "velocity": 0.5905511811023622
        },
        {
          "duration": 0.33380672916666754,
          "durationTicks": 94,
          "midi": 59,
          "name": "B3",
          "ticks": 43200,
          "time": 153.40904999999998,
          "velocity": 0.5905511811023622
        },
        {
          "duration": 0.33380672916666754,
          "durationTicks": 94,
          "midi": 63,
          "name": "D#4",
          "ticks": 43200,
          "time": 153.40904999999998,
          "velocity": 0.5905511811023622
        },
        {
          "duration": 0.33380672916666754,
          "durationTicks": 94,
          "midi": 54,
          "name": "F#3",
          "ticks": 43296,
          "time": 153.749959,
          "velocity": 0.5905511811023622
        },
        {
          "duration": 0.5681816666666748,
          "durationTicks": 160,
          "midi": 54,
          "name": "F#3",
          "ticks": 43392,
          "time": 154.09086799999997,
          "velocity": 0.5905511811023622
        },
        {
          "duration": 0.5681816666666748,
          "durationTicks": 160,
          "midi": 59,
          "name": "B3",
          "ticks": 43392,
          "time": 154.09086799999997,
          "velocity": 0.5905511811023622
        },
        {
          "duration": 0.5681816666666748,
          "durationTicks": 160,
          "midi": 63,
          "name": "D#4",
          "ticks": 43392,
          "time": 154.09086799999997,
          "velocity": 0.5905511811023622
        },
        {
          "duration": 0.33380672916666754,
          "durationTicks": 94,
          "midi": 54,
          "name": "F#3",
          "ticks": 43584,
          "time": 154.772686,
          "velocity": 0.5905511811023622
        },
        {
          "duration": 0.33380672916666754,
          "durationTicks": 94,
          "midi": 59,
          "name": "B3",
          "ticks": 43584,
          "time": 154.772686,
          "velocity": 0.5905511811023622
        },
        {
          "duration": 0.33380672916666754,
          "durationTicks": 94,
          "midi": 63,
          "name": "D#4",
          "ticks": 43584,
          "time": 154.772686,
          "velocity": 0.5905511811023622
        },
        {
          "duration": 0.33380672916666754,
          "durationTicks": 94,
          "midi": 54,
          "name": "F#3",
          "ticks": 43680,
          "time": 155.11359499999998,
          "velocity": 0.5905511811023622
        },
        {
          "duration": 0.33380672916666754,
          "durationTicks": 94,
          "midi": 59,
          "name": "B3",
          "ticks": 43680,
          "time": 155.11359499999998,
          "velocity": 0.5905511811023622
        },
        {
          "duration": 0.33380672916666754,
          "durationTicks": 94,
          "midi": 63,
          "name": "D#4",
          "ticks": 43680,
          "time": 155.11359499999998,
          "velocity": 0.5905511811023622
        },
        {
          "duration": 0.5681816666666748,
          "durationTicks": 160,
          "midi": 54,
          "name": "F#3",
          "ticks": 43776,
          "time": 155.454504,
          "velocity": 0.5905511811023622
        },
        {
          "duration": 0.5681816666666748,
          "durationTicks": 160,
          "midi": 58,
          "name": "A#3",
          "ticks": 43776,
          "time": 155.454504,
          "velocity": 0.5905511811023622
        },
        {
          "duration": 0.5681816666666748,
          "durationTicks": 160,
          "midi": 61,
          "name": "C#4",
          "ticks": 43776,
          "time": 155.454504,
          "velocity": 0.5905511811023622
        },
        {
          "duration": 0.33380672916666754,
          "durationTicks": 94,
          "midi": 54,
          "name": "F#3",
          "ticks": 43968,
          "time": 156.13632199999998,
          "velocity": 0.5905511811023622
        },
        {
          "duration": 0.33380672916666754,
          "durationTicks": 94,
          "midi": 58,
          "name": "A#3",
          "ticks": 43968,
          "time": 156.13632199999998,
          "velocity": 0.5905511811023622
        },
        {
          "duration": 0.33380672916666754,
          "durationTicks": 94,
          "midi": 63,
          "name": "D#4",
          "ticks": 43968,
          "time": 156.13632199999998,
          "velocity": 0.5905511811023622
        },
        {
          "duration": 0.33380672916666754,
          "durationTicks": 94,
          "midi": 54,
          "name": "F#3",
          "ticks": 44064,
          "time": 156.477231,
          "velocity": 0.5905511811023622
        },
        {
          "duration": 0.33380672916666754,
          "durationTicks": 94,
          "midi": 58,
          "name": "A#3",
          "ticks": 44064,
          "time": 156.477231,
          "velocity": 0.5905511811023622
        },
        {
          "duration": 0.5681816666666748,
          "durationTicks": 160,
          "midi": 54,
          "name": "F#3",
          "ticks": 44160,
          "time": 156.81813999999997,
          "velocity": 0.5905511811023622
        },
        {
          "duration": 0.5681816666666748,
          "durationTicks": 160,
          "midi": 58,
          "name": "A#3",
          "ticks": 44160,
          "time": 156.81813999999997,
          "velocity": 0.5905511811023622
        },
        {
          "duration": 0.5681816666666748,
          "durationTicks": 160,
          "midi": 61,
          "name": "C#4",
          "ticks": 44160,
          "time": 156.81813999999997,
          "velocity": 0.5905511811023622
        },
        {
          "duration": 0.33380672916666754,
          "durationTicks": 94,
          "midi": 54,
          "name": "F#3",
          "ticks": 44352,
          "time": 157.499958,
          "velocity": 0.5905511811023622
        },
        {
          "duration": 0.33380672916666754,
          "durationTicks": 94,
          "midi": 58,
          "name": "A#3",
          "ticks": 44352,
          "time": 157.499958,
          "velocity": 0.5905511811023622
        },
        {
          "duration": 0.33380672916666754,
          "durationTicks": 94,
          "midi": 63,
          "name": "D#4",
          "ticks": 44352,
          "time": 157.499958,
          "velocity": 0.5905511811023622
        },
        {
          "duration": 0.33380672916666754,
          "durationTicks": 94,
          "midi": 54,
          "name": "F#3",
          "ticks": 44448,
          "time": 157.84086699999997,
          "velocity": 0.5905511811023622
        },
        {
          "duration": 0.33380672916666754,
          "durationTicks": 94,
          "midi": 58,
          "name": "A#3",
          "ticks": 44448,
          "time": 157.84086699999997,
          "velocity": 0.5905511811023622
        },
        {
          "duration": 0.5681816666666748,
          "durationTicks": 160,
          "midi": 54,
          "name": "F#3",
          "ticks": 44544,
          "time": 158.18177599999999,
          "velocity": 0.5905511811023622
        },
        {
          "duration": 0.5681816666666748,
          "durationTicks": 160,
          "midi": 58,
          "name": "A#3",
          "ticks": 44544,
          "time": 158.18177599999999,
          "velocity": 0.5905511811023622
        },
        {
          "duration": 0.5681816666666748,
          "durationTicks": 160,
          "midi": 61,
          "name": "C#4",
          "ticks": 44544,
          "time": 158.18177599999999,
          "velocity": 0.5905511811023622
        },
        {
          "duration": 0.33380672916666754,
          "durationTicks": 94,
          "midi": 54,
          "name": "F#3",
          "ticks": 44736,
          "time": 158.86359399999998,
          "velocity": 0.5905511811023622
        },
        {
          "duration": 0.33380672916666754,
          "durationTicks": 94,
          "midi": 58,
          "name": "A#3",
          "ticks": 44736,
          "time": 158.86359399999998,
          "velocity": 0.5905511811023622
        },
        {
          "duration": 0.33380672916666754,
          "durationTicks": 94,
          "midi": 63,
          "name": "D#4",
          "ticks": 44736,
          "time": 158.86359399999998,
          "velocity": 0.5905511811023622
        },
        {
          "duration": 0.33380672916666754,
          "durationTicks": 94,
          "midi": 54,
          "name": "F#3",
          "ticks": 44832,
          "time": 159.204503,
          "velocity": 0.5905511811023622
        },
        {
          "duration": 0.33380672916666754,
          "durationTicks": 94,
          "midi": 58,
          "name": "A#3",
          "ticks": 44832,
          "time": 159.204503,
          "velocity": 0.5905511811023622
        },
        {
          "duration": 0.5681816666666748,
          "durationTicks": 160,
          "midi": 54,
          "name": "F#3",
          "ticks": 44928,
          "time": 159.54541199999997,
          "velocity": 0.5905511811023622
        },
        {
          "duration": 0.5681816666666748,
          "durationTicks": 160,
          "midi": 58,
          "name": "A#3",
          "ticks": 44928,
          "time": 159.54541199999997,
          "velocity": 0.5905511811023622
        },
        {
          "duration": 0.5681816666666748,
          "durationTicks": 160,
          "midi": 61,
          "name": "C#4",
          "ticks": 44928,
          "time": 159.54541199999997,
          "velocity": 0.5905511811023622
        },
        {
          "duration": 0.33380672916666754,
          "durationTicks": 94,
          "midi": 54,
          "name": "F#3",
          "ticks": 45120,
          "time": 160.22723,
          "velocity": 0.5905511811023622
        },
        {
          "duration": 0.33380672916666754,
          "durationTicks": 94,
          "midi": 58,
          "name": "A#3",
          "ticks": 45120,
          "time": 160.22723,
          "velocity": 0.5905511811023622
        },
        {
          "duration": 0.33380672916666754,
          "durationTicks": 94,
          "midi": 63,
          "name": "D#4",
          "ticks": 45120,
          "time": 160.22723,
          "velocity": 0.5905511811023622
        },
        {
          "duration": 0.33380672916666754,
          "durationTicks": 94,
          "midi": 54,
          "name": "F#3",
          "ticks": 45216,
          "time": 160.56813899999997,
          "velocity": 0.5905511811023622
        },
        {
          "duration": 0.33380672916666754,
          "durationTicks": 94,
          "midi": 58,
          "name": "A#3",
          "ticks": 45216,
          "time": 160.56813899999997,
          "velocity": 0.5905511811023622
        },
        {
          "duration": 0.33380672916666754,
          "durationTicks": 94,
          "midi": 52,
          "name": "E3",
          "ticks": 45312,
          "time": 160.90904799999998,
          "velocity": 0.5905511811023622
        },
        {
          "duration": 0.33380672916666754,
          "durationTicks": 94,
          "midi": 56,
          "name": "G#3",
          "ticks": 45312,
          "time": 160.90904799999998,
          "velocity": 0.5905511811023622
        },
        {
          "duration": 0.33380672916666754,
          "durationTicks": 94,
          "midi": 59,
          "name": "B3",
          "ticks": 45312,
          "time": 160.90904799999998,
          "velocity": 0.5905511811023622
        },
        {
          "duration": 0.33380672916666754,
          "durationTicks": 94,
          "midi": 52,
          "name": "E3",
          "ticks": 45408,
          "time": 161.249957,
          "velocity": 0.5905511811023622
        },
        {
          "duration": 0.33380672916666754,
          "durationTicks": 94,
          "midi": 56,
          "name": "G#3",
          "ticks": 45408,
          "time": 161.249957,
          "velocity": 0.5905511811023622
        },
        {
          "duration": 0.33380672916666754,
          "durationTicks": 94,
          "midi": 52,
          "name": "E3",
          "ticks": 45504,
          "time": 161.59086599999998,
          "velocity": 0.5905511811023622
        },
        {
          "duration": 0.33380672916666754,
          "durationTicks": 94,
          "midi": 56,
          "name": "G#3",
          "ticks": 45504,
          "time": 161.59086599999998,
          "velocity": 0.5905511811023622
        },
        {
          "duration": 0.33380672916666754,
          "durationTicks": 94,
          "midi": 63,
          "name": "D#4",
          "ticks": 45504,
          "time": 161.59086599999998,
          "velocity": 0.5905511811023622
        },
        {
          "duration": 0.33380672916666754,
          "durationTicks": 94,
          "midi": 52,
          "name": "E3",
          "ticks": 45600,
          "time": 161.931775,
          "velocity": 0.5905511811023622
        },
        {
          "duration": 0.33380672916666754,
          "durationTicks": 94,
          "midi": 56,
          "name": "G#3",
          "ticks": 45600,
          "time": 161.931775,
          "velocity": 0.5905511811023622
        },
        {
          "duration": 0.33380672916669596,
          "durationTicks": 94,
          "midi": 52,
          "name": "E3",
          "ticks": 45696,
          "time": 162.27268399999997,
          "velocity": 0.5905511811023622
        },
        {
          "duration": 0.33380672916669596,
          "durationTicks": 94,
          "midi": 56,
          "name": "G#3",
          "ticks": 45696,
          "time": 162.27268399999997,
          "velocity": 0.5905511811023622
        },
        {
          "duration": 0.33380672916669596,
          "durationTicks": 94,
          "midi": 59,
          "name": "B3",
          "ticks": 45696,
          "time": 162.27268399999997,
          "velocity": 0.5905511811023622
        },
        {
          "duration": 0.33380672916666754,
          "durationTicks": 94,
          "midi": 52,
          "name": "E3",
          "ticks": 45792,
          "time": 162.61359299999998,
          "velocity": 0.5905511811023622
        },
        {
          "duration": 0.33380672916666754,
          "durationTicks": 94,
          "midi": 56,
          "name": "G#3",
          "ticks": 45792,
          "time": 162.61359299999998,
          "velocity": 0.5905511811023622
        },
        {
          "duration": 0.33380672916666754,
          "durationTicks": 94,
          "midi": 52,
          "name": "E3",
          "ticks": 45888,
          "time": 162.954502,
          "velocity": 0.5905511811023622
        },
        {
          "duration": 0.33380672916666754,
          "durationTicks": 94,
          "midi": 56,
          "name": "G#3",
          "ticks": 45888,
          "time": 162.954502,
          "velocity": 0.5905511811023622
        },
        {
          "duration": 0.33380672916666754,
          "durationTicks": 94,
          "midi": 63,
          "name": "D#4",
          "ticks": 45888,
          "time": 162.954502,
          "velocity": 0.5905511811023622
        },
        {
          "duration": 0.33380672916669596,
          "durationTicks": 94,
          "midi": 52,
          "name": "E3",
          "ticks": 45984,
          "time": 163.29541099999997,
          "velocity": 0.5905511811023622
        },
        {
          "duration": 0.33380672916669596,
          "durationTicks": 94,
          "midi": 56,
          "name": "G#3",
          "ticks": 45984,
          "time": 163.29541099999997,
          "velocity": 0.5905511811023622
        },
        {
          "duration": 0.33380672916666754,
          "durationTicks": 94,
          "midi": 52,
          "name": "E3",
          "ticks": 46080,
          "time": 163.63631999999998,
          "velocity": 0.5905511811023622
        },
        {
          "duration": 0.33380672916666754,
          "durationTicks": 94,
          "midi": 56,
          "name": "G#3",
          "ticks": 46080,
          "time": 163.63631999999998,
          "velocity": 0.5905511811023622
        },
        {
          "duration": 0.33380672916666754,
          "durationTicks": 94,
          "midi": 59,
          "name": "B3",
          "ticks": 46080,
          "time": 163.63631999999998,
          "velocity": 0.5905511811023622
        },
        {
          "duration": 0.33380672916666754,
          "durationTicks": 94,
          "midi": 52,
          "name": "E3",
          "ticks": 46176,
          "time": 163.977229,
          "velocity": 0.5905511811023622
        },
        {
          "duration": 0.33380672916666754,
          "durationTicks": 94,
          "midi": 56,
          "name": "G#3",
          "ticks": 46176,
          "time": 163.977229,
          "velocity": 0.5905511811023622
        },
        {
          "duration": 0.33380672916666754,
          "durationTicks": 94,
          "midi": 52,
          "name": "E3",
          "ticks": 46272,
          "time": 164.31813799999998,
          "velocity": 0.5905511811023622
        },
        {
          "duration": 0.33380672916666754,
          "durationTicks": 94,
          "midi": 56,
          "name": "G#3",
          "ticks": 46272,
          "time": 164.31813799999998,
          "velocity": 0.5905511811023622
        },
        {
          "duration": 0.33380672916666754,
          "durationTicks": 94,
          "midi": 63,
          "name": "D#4",
          "ticks": 46272,
          "time": 164.31813799999998,
          "velocity": 0.5905511811023622
        },
        {
          "duration": 0.33380672916666754,
          "durationTicks": 94,
          "midi": 52,
          "name": "E3",
          "ticks": 46368,
          "time": 164.659047,
          "velocity": 0.5905511811023622
        },
        {
          "duration": 0.33380672916666754,
          "durationTicks": 94,
          "midi": 56,
          "name": "G#3",
          "ticks": 46368,
          "time": 164.659047,
          "velocity": 0.5905511811023622
        },
        {
          "duration": 0.33380672916669596,
          "durationTicks": 94,
          "midi": 52,
          "name": "E3",
          "ticks": 46464,
          "time": 164.99995599999997,
          "velocity": 0.5905511811023622
        },
        {
          "duration": 0.33380672916669596,
          "durationTicks": 94,
          "midi": 56,
          "name": "G#3",
          "ticks": 46464,
          "time": 164.99995599999997,
          "velocity": 0.5905511811023622
        },
        {
          "duration": 0.33380672916669596,
          "durationTicks": 94,
          "midi": 59,
          "name": "B3",
          "ticks": 46464,
          "time": 164.99995599999997,
          "velocity": 0.5905511811023622
        },
        {
          "duration": 0.33380672916666754,
          "durationTicks": 94,
          "midi": 52,
          "name": "E3",
          "ticks": 46560,
          "time": 165.34086499999998,
          "velocity": 0.5905511811023622
        },
        {
          "duration": 0.33380672916666754,
          "durationTicks": 94,
          "midi": 56,
          "name": "G#3",
          "ticks": 46560,
          "time": 165.34086499999998,
          "velocity": 0.5905511811023622
        },
        {
          "duration": 0.33380672916666754,
          "durationTicks": 94,
          "midi": 52,
          "name": "E3",
          "ticks": 46656,
          "time": 165.681774,
          "velocity": 0.5905511811023622
        },
        {
          "duration": 0.33380672916666754,
          "durationTicks": 94,
          "midi": 56,
          "name": "G#3",
          "ticks": 46656,
          "time": 165.681774,
          "velocity": 0.5905511811023622
        },
        {
          "duration": 0.33380672916666754,
          "durationTicks": 94,
          "midi": 63,
          "name": "D#4",
          "ticks": 46656,
          "time": 165.681774,
          "velocity": 0.5905511811023622
        },
        {
          "duration": 0.33380672916669596,
          "durationTicks": 94,
          "midi": 52,
          "name": "E3",
          "ticks": 46752,
          "time": 166.02268299999997,
          "velocity": 0.5905511811023622
        },
        {
          "duration": 0.33380672916669596,
          "durationTicks": 94,
          "midi": 56,
          "name": "G#3",
          "ticks": 46752,
          "time": 166.02268299999997,
          "velocity": 0.5905511811023622
        },
        {
          "duration": 0.5681816666666748,
          "durationTicks": 160,
          "midi": 59,
          "name": "B3",
          "ticks": 46848,
          "time": 166.36359199999998,
          "velocity": 0.5905511811023622
        },
        {
          "duration": 0.5681816666666748,
          "durationTicks": 160,
          "midi": 63,
          "name": "D#4",
          "ticks": 46848,
          "time": 166.36359199999998,
          "velocity": 0.5905511811023622
        },
        {
          "duration": 0.33380672916666754,
          "durationTicks": 94,
          "midi": 59,
          "name": "B3",
          "ticks": 47040,
          "time": 167.04540999999998,
          "velocity": 0.5905511811023622
        },
        {
          "duration": 0.33380672916666754,
          "durationTicks": 94,
          "midi": 71,
          "name": "B4",
          "ticks": 47040,
          "time": 167.04540999999998,
          "velocity": 0.5905511811023622
        },
        {
          "duration": 0.33380672916666754,
          "durationTicks": 94,
          "midi": 59,
          "name": "B3",
          "ticks": 47136,
          "time": 167.386319,
          "velocity": 0.5905511811023622
        },
        {
          "duration": 0.33380672916666754,
          "durationTicks": 94,
          "midi": 63,
          "name": "D#4",
          "ticks": 47136,
          "time": 167.386319,
          "velocity": 0.5905511811023622
        },
        {
          "duration": 0.5681816666666748,
          "durationTicks": 160,
          "midi": 59,
          "name": "B3",
          "ticks": 47232,
          "time": 167.72722799999997,
          "velocity": 0.5905511811023622
        },
        {
          "duration": 0.5681816666666748,
          "durationTicks": 160,
          "midi": 63,
          "name": "D#4",
          "ticks": 47232,
          "time": 167.72722799999997,
          "velocity": 0.5905511811023622
        },
        {
          "duration": 0.33380672916666754,
          "durationTicks": 94,
          "midi": 59,
          "name": "B3",
          "ticks": 47424,
          "time": 168.409046,
          "velocity": 0.5905511811023622
        },
        {
          "duration": 0.33380672916666754,
          "durationTicks": 94,
          "midi": 71,
          "name": "B4",
          "ticks": 47424,
          "time": 168.409046,
          "velocity": 0.5905511811023622
        },
        {
          "duration": 0.33380672916669596,
          "durationTicks": 94,
          "midi": 59,
          "name": "B3",
          "ticks": 47520,
          "time": 168.74995499999997,
          "velocity": 0.5905511811023622
        },
        {
          "duration": 0.33380672916669596,
          "durationTicks": 94,
          "midi": 63,
          "name": "D#4",
          "ticks": 47520,
          "time": 168.74995499999997,
          "velocity": 0.5905511811023622
        },
        {
          "duration": 0.5681816666666748,
          "durationTicks": 160,
          "midi": 59,
          "name": "B3",
          "ticks": 47616,
          "time": 169.09086399999998,
          "velocity": 0.5905511811023622
        },
        {
          "duration": 0.5681816666666748,
          "durationTicks": 160,
          "midi": 64,
          "name": "E4",
          "ticks": 47616,
          "time": 169.09086399999998,
          "velocity": 0.5905511811023622
        },
        {
          "duration": 0.33380672916666754,
          "durationTicks": 94,
          "midi": 59,
          "name": "B3",
          "ticks": 47808,
          "time": 169.77268199999997,
          "velocity": 0.5905511811023622
        },
        {
          "duration": 0.33380672916666754,
          "durationTicks": 94,
          "midi": 71,
          "name": "B4",
          "ticks": 47808,
          "time": 169.77268199999997,
          "velocity": 0.5905511811023622
        },
        {
          "duration": 0.33380672916666754,
          "durationTicks": 94,
          "midi": 59,
          "name": "B3",
          "ticks": 47904,
          "time": 170.11359099999999,
          "velocity": 0.5905511811023622
        },
        {
          "duration": 0.33380672916666754,
          "durationTicks": 94,
          "midi": 64,
          "name": "E4",
          "ticks": 47904,
          "time": 170.11359099999999,
          "velocity": 0.5905511811023622
        },
        {
          "duration": 0.5681816666666748,
          "durationTicks": 160,
          "midi": 59,
          "name": "B3",
          "ticks": 48000,
          "time": 170.45449999999997,
          "velocity": 0.5905511811023622
        },
        {
          "duration": 0.5681816666666748,
          "durationTicks": 160,
          "midi": 63,
          "name": "D#4",
          "ticks": 48000,
          "time": 170.45449999999997,
          "velocity": 0.5905511811023622
        },
        {
          "duration": 0.33380672916666754,
          "durationTicks": 94,
          "midi": 59,
          "name": "B3",
          "ticks": 48192,
          "time": 171.136318,
          "velocity": 0.5905511811023622
        },
        {
          "duration": 0.33380672916666754,
          "durationTicks": 94,
          "midi": 71,
          "name": "B4",
          "ticks": 48192,
          "time": 171.136318,
          "velocity": 0.5905511811023622
        },
        {
          "duration": 0.33380672916669596,
          "durationTicks": 94,
          "midi": 59,
          "name": "B3",
          "ticks": 48288,
          "time": 171.47722699999997,
          "velocity": 0.5905511811023622
        },
        {
          "duration": 0.33380672916669596,
          "durationTicks": 94,
          "midi": 63,
          "name": "D#4",
          "ticks": 48288,
          "time": 171.47722699999997,
          "velocity": 0.5905511811023622
        },
        {
          "duration": 0.33380672916666754,
          "durationTicks": 94,
          "midi": 68,
          "name": "G#4",
          "ticks": 48384,
          "time": 171.81813599999998,
          "velocity": 0.5905511811023622
        },
        {
          "duration": 0.33380672916666754,
          "durationTicks": 94,
          "midi": 71,
          "name": "B4",
          "ticks": 48384,
          "time": 171.81813599999998,
          "velocity": 0.5905511811023622
        },
        {
          "duration": 0.33380672916666754,
          "durationTicks": 94,
          "midi": 68,
          "name": "G#4",
          "ticks": 48480,
          "time": 172.159045,
          "velocity": 0.5905511811023622
        },
        {
          "duration": 0.33380672916666754,
          "durationTicks": 94,
          "midi": 71,
          "name": "B4",
          "ticks": 48480,
          "time": 172.159045,
          "velocity": 0.5905511811023622
        },
        {
          "duration": 0.33380672916666754,
          "durationTicks": 94,
          "midi": 68,
          "name": "G#4",
          "ticks": 48576,
          "time": 172.49995399999997,
          "velocity": 0.5905511811023622
        },
        {
          "duration": 0.33380672916666754,
          "durationTicks": 94,
          "midi": 71,
          "name": "B4",
          "ticks": 48576,
          "time": 172.49995399999997,
          "velocity": 0.5905511811023622
        },
        {
          "duration": 0.33380672916666754,
          "durationTicks": 94,
          "midi": 68,
          "name": "G#4",
          "ticks": 48672,
          "time": 172.84086299999998,
          "velocity": 0.5905511811023622
        },
        {
          "duration": 0.33380672916666754,
          "durationTicks": 94,
          "midi": 71,
          "name": "B4",
          "ticks": 48672,
          "time": 172.84086299999998,
          "velocity": 0.5905511811023622
        },
        {
          "duration": 0.33380672916669596,
          "durationTicks": 94,
          "midi": 68,
          "name": "G#4",
          "ticks": 48768,
          "time": 173.18177199999997,
          "velocity": 0.5905511811023622
        },
        {
          "duration": 0.33380672916669596,
          "durationTicks": 94,
          "midi": 71,
          "name": "B4",
          "ticks": 48768,
          "time": 173.18177199999997,
          "velocity": 0.5905511811023622
        },
        {
          "duration": 0.33380672916666754,
          "durationTicks": 94,
          "midi": 68,
          "name": "G#4",
          "ticks": 48864,
          "time": 173.52268099999998,
          "velocity": 0.5905511811023622
        },
        {
          "duration": 0.33380672916666754,
          "durationTicks": 94,
          "midi": 71,
          "name": "B4",
          "ticks": 48864,
          "time": 173.52268099999998,
          "velocity": 0.5905511811023622
        },
        {
          "duration": 0.33380672916666754,
          "durationTicks": 94,
          "midi": 68,
          "name": "G#4",
          "ticks": 48960,
          "time": 173.86359,
          "velocity": 0.5905511811023622
        },
        {
          "duration": 0.33380672916666754,
          "durationTicks": 94,
          "midi": 71,
          "name": "B4",
          "ticks": 48960,
          "time": 173.86359,
          "velocity": 0.5905511811023622
        },
        {
          "duration": 0.33380672916669596,
          "durationTicks": 94,
          "midi": 68,
          "name": "G#4",
          "ticks": 49056,
          "time": 174.20449899999997,
          "velocity": 0.5905511811023622
        },
        {
          "duration": 0.33380672916669596,
          "durationTicks": 94,
          "midi": 71,
          "name": "B4",
          "ticks": 49056,
          "time": 174.20449899999997,
          "velocity": 0.5905511811023622
        },
        {
          "duration": 0.33380672916666754,
          "durationTicks": 94,
          "midi": 68,
          "name": "G#4",
          "ticks": 49152,
          "time": 174.54540799999998,
          "velocity": 0.5905511811023622
        },
        {
          "duration": 0.33380672916666754,
          "durationTicks": 94,
          "midi": 71,
          "name": "B4",
          "ticks": 49152,
          "time": 174.54540799999998,
          "velocity": 0.5905511811023622
        },
        {
          "duration": 0.3338067291666391,
          "durationTicks": 94,
          "midi": 68,
          "name": "G#4",
          "ticks": 49248,
          "time": 174.886317,
          "velocity": 0.5905511811023622
        },
        {
          "duration": 0.3338067291666391,
          "durationTicks": 94,
          "midi": 71,
          "name": "B4",
          "ticks": 49248,
          "time": 174.886317,
          "velocity": 0.5905511811023622
        },
        {
          "duration": 0.33380672916666754,
          "durationTicks": 94,
          "midi": 68,
          "name": "G#4",
          "ticks": 49344,
          "time": 175.22722599999997,
          "velocity": 0.5905511811023622
        },
        {
          "duration": 0.33380672916666754,
          "durationTicks": 94,
          "midi": 71,
          "name": "B4",
          "ticks": 49344,
          "time": 175.22722599999997,
          "velocity": 0.5905511811023622
        },
        {
          "duration": 0.3338067291666391,
          "durationTicks": 94,
          "midi": 68,
          "name": "G#4",
          "ticks": 49440,
          "time": 175.56813499999998,
          "velocity": 0.5905511811023622
        },
        {
          "duration": 0.3338067291666391,
          "durationTicks": 94,
          "midi": 71,
          "name": "B4",
          "ticks": 49440,
          "time": 175.56813499999998,
          "velocity": 0.5905511811023622
        },
        {
          "duration": 0.3338067291666391,
          "durationTicks": 94,
          "midi": 66,
          "name": "F#4",
          "ticks": 49536,
          "time": 175.909044,
          "velocity": 0.5905511811023622
        },
        {
          "duration": 0.3338067291666391,
          "durationTicks": 94,
          "midi": 70,
          "name": "A#4",
          "ticks": 49536,
          "time": 175.909044,
          "velocity": 0.5905511811023622
        },
        {
          "duration": 0.33380672916666754,
          "durationTicks": 94,
          "midi": 66,
          "name": "F#4",
          "ticks": 49632,
          "time": 176.24995299999998,
          "velocity": 0.5905511811023622
        },
        {
          "duration": 0.33380672916666754,
          "durationTicks": 94,
          "midi": 70,
          "name": "A#4",
          "ticks": 49632,
          "time": 176.24995299999998,
          "velocity": 0.5905511811023622
        },
        {
          "duration": 0.3338067291666391,
          "durationTicks": 94,
          "midi": 66,
          "name": "F#4",
          "ticks": 49728,
          "time": 176.590862,
          "velocity": 0.5905511811023622
        },
        {
          "duration": 0.3338067291666391,
          "durationTicks": 94,
          "midi": 70,
          "name": "A#4",
          "ticks": 49728,
          "time": 176.590862,
          "velocity": 0.5905511811023622
        },
        {
          "duration": 0.33380672916666754,
          "durationTicks": 94,
          "midi": 66,
          "name": "F#4",
          "ticks": 49824,
          "time": 176.93177099999997,
          "velocity": 0.5905511811023622
        },
        {
          "duration": 0.33380672916666754,
          "durationTicks": 94,
          "midi": 70,
          "name": "A#4",
          "ticks": 49824,
          "time": 176.93177099999997,
          "velocity": 0.5905511811023622
        },
        {
          "duration": 0.33380672916666754,
          "durationTicks": 94,
          "midi": 68,
          "name": "G#4",
          "ticks": 49920,
          "time": 177.27267999999998,
          "velocity": 0.5905511811023622
        },
        {
          "duration": 0.33380672916666754,
          "durationTicks": 94,
          "midi": 71,
          "name": "B4",
          "ticks": 49920,
          "time": 177.27267999999998,
          "velocity": 0.5905511811023622
        },
        {
          "duration": 0.3338067291666391,
          "durationTicks": 94,
          "midi": 68,
          "name": "G#4",
          "ticks": 50016,
          "time": 177.613589,
          "velocity": 0.5905511811023622
        },
        {
          "duration": 0.3338067291666391,
          "durationTicks": 94,
          "midi": 71,
          "name": "B4",
          "ticks": 50016,
          "time": 177.613589,
          "velocity": 0.5905511811023622
        },
        {
          "duration": 0.33380672916666754,
          "durationTicks": 94,
          "midi": 68,
          "name": "G#4",
          "ticks": 50112,
          "time": 177.95449799999997,
          "velocity": 0.5905511811023622
        },
        {
          "duration": 0.33380672916666754,
          "durationTicks": 94,
          "midi": 71,
          "name": "B4",
          "ticks": 50112,
          "time": 177.95449799999997,
          "velocity": 0.5905511811023622
        },
        {
          "duration": 0.3338067291666391,
          "durationTicks": 94,
          "midi": 68,
          "name": "G#4",
          "ticks": 50208,
          "time": 178.29540699999998,
          "velocity": 0.5905511811023622
        },
        {
          "duration": 0.3338067291666391,
          "durationTicks": 94,
          "midi": 71,
          "name": "B4",
          "ticks": 50208,
          "time": 178.29540699999998,
          "velocity": 0.5905511811023622
        },
        {
          "duration": 0.3338067291666391,
          "durationTicks": 94,
          "midi": 68,
          "name": "G#4",
          "ticks": 50304,
          "time": 178.636316,
          "velocity": 0.5905511811023622
        },
        {
          "duration": 0.3338067291666391,
          "durationTicks": 94,
          "midi": 71,
          "name": "B4",
          "ticks": 50304,
          "time": 178.636316,
          "velocity": 0.5905511811023622
        },
        {
          "duration": 0.33380672916666754,
          "durationTicks": 94,
          "midi": 68,
          "name": "G#4",
          "ticks": 50400,
          "time": 178.97722499999998,
          "velocity": 0.5905511811023622
        },
        {
          "duration": 0.33380672916666754,
          "durationTicks": 94,
          "midi": 71,
          "name": "B4",
          "ticks": 50400,
          "time": 178.97722499999998,
          "velocity": 0.5905511811023622
        },
        {
          "duration": 0.3338067291666391,
          "durationTicks": 94,
          "midi": 68,
          "name": "G#4",
          "ticks": 50496,
          "time": 179.318134,
          "velocity": 0.5905511811023622
        },
        {
          "duration": 0.3338067291666391,
          "durationTicks": 94,
          "midi": 71,
          "name": "B4",
          "ticks": 50496,
          "time": 179.318134,
          "velocity": 0.5905511811023622
        },
        {
          "duration": 0.33380672916666754,
          "durationTicks": 94,
          "midi": 68,
          "name": "G#4",
          "ticks": 50592,
          "time": 179.65904299999997,
          "velocity": 0.5905511811023622
        },
        {
          "duration": 0.33380672916666754,
          "durationTicks": 94,
          "midi": 71,
          "name": "B4",
          "ticks": 50592,
          "time": 179.65904299999997,
          "velocity": 0.5905511811023622
        },
        {
          "duration": 0.33380672916666754,
          "durationTicks": 94,
          "midi": 68,
          "name": "G#4",
          "ticks": 50688,
          "time": 179.99995199999998,
          "velocity": 0.5905511811023622
        },
        {
          "duration": 0.33380672916666754,
          "durationTicks": 94,
          "midi": 71,
          "name": "B4",
          "ticks": 50688,
          "time": 179.99995199999998,
          "velocity": 0.5905511811023622
        },
        {
          "duration": 0.3338067291666391,
          "durationTicks": 94,
          "midi": 68,
          "name": "G#4",
          "ticks": 50784,
          "time": 180.340861,
          "velocity": 0.5905511811023622
        },
        {
          "duration": 0.3338067291666391,
          "durationTicks": 94,
          "midi": 71,
          "name": "B4",
          "ticks": 50784,
          "time": 180.340861,
          "velocity": 0.5905511811023622
        },
        {
          "duration": 0.33380672916666754,
          "durationTicks": 94,
          "midi": 68,
          "name": "G#4",
          "ticks": 50880,
          "time": 180.68176999999997,
          "velocity": 0.5905511811023622
        },
        {
          "duration": 0.33380672916666754,
          "durationTicks": 94,
          "midi": 71,
          "name": "B4",
          "ticks": 50880,
          "time": 180.68176999999997,
          "velocity": 0.5905511811023622
        },
        {
          "duration": 0.3338067291666391,
          "durationTicks": 94,
          "midi": 68,
          "name": "G#4",
          "ticks": 50976,
          "time": 181.02267899999998,
          "velocity": 0.5905511811023622
        },
        {
          "duration": 0.3338067291666391,
          "durationTicks": 94,
          "midi": 71,
          "name": "B4",
          "ticks": 50976,
          "time": 181.02267899999998,
          "velocity": 0.5905511811023622
        },
        {
          "duration": 0.3338067291666391,
          "durationTicks": 94,
          "midi": 66,
          "name": "F#4",
          "ticks": 51072,
          "time": 181.363588,
          "velocity": 0.5905511811023622
        },
        {
          "duration": 0.3338067291666391,
          "durationTicks": 94,
          "midi": 70,
          "name": "A#4",
          "ticks": 51072,
          "time": 181.363588,
          "velocity": 0.5905511811023622
        },
        {
          "duration": 0.33380672916666754,
          "durationTicks": 94,
          "midi": 66,
          "name": "F#4",
          "ticks": 51168,
          "time": 181.70449699999998,
          "velocity": 0.5905511811023622
        },
        {
          "duration": 0.33380672916666754,
          "durationTicks": 94,
          "midi": 70,
          "name": "A#4",
          "ticks": 51168,
          "time": 181.70449699999998,
          "velocity": 0.5905511811023622
        },
        {
          "duration": 0.3338067291666391,
          "durationTicks": 94,
          "midi": 66,
          "name": "F#4",
          "ticks": 51264,
          "time": 182.04540599999999,
          "velocity": 0.5905511811023622
        },
        {
          "duration": 0.3338067291666391,
          "durationTicks": 94,
          "midi": 70,
          "name": "A#4",
          "ticks": 51264,
          "time": 182.04540599999999,
          "velocity": 0.5905511811023622
        },
        {
          "duration": 0.33380672916666754,
          "durationTicks": 94,
          "midi": 66,
          "name": "F#4",
          "ticks": 51360,
          "time": 182.38631499999997,
          "velocity": 0.5905511811023622
        },
        {
          "duration": 0.33380672916666754,
          "durationTicks": 94,
          "midi": 70,
          "name": "A#4",
          "ticks": 51360,
          "time": 182.38631499999997,
          "velocity": 0.5905511811023622
        },
        {
          "duration": 0.33380672916666754,
          "durationTicks": 94,
          "midi": 68,
          "name": "G#4",
          "ticks": 51456,
          "time": 182.72722399999998,
          "velocity": 0.5905511811023622
        },
        {
          "duration": 0.33380672916666754,
          "durationTicks": 94,
          "midi": 71,
          "name": "B4",
          "ticks": 51456,
          "time": 182.72722399999998,
          "velocity": 0.5905511811023622
        },
        {
          "duration": 0.3338067291666391,
          "durationTicks": 94,
          "midi": 68,
          "name": "G#4",
          "ticks": 51552,
          "time": 183.068133,
          "velocity": 0.5905511811023622
        },
        {
          "duration": 0.3338067291666391,
          "durationTicks": 94,
          "midi": 71,
          "name": "B4",
          "ticks": 51552,
          "time": 183.068133,
          "velocity": 0.5905511811023622
        },
        {
          "duration": 0.33380672916666754,
          "durationTicks": 94,
          "midi": 68,
          "name": "G#4",
          "ticks": 51648,
          "time": 183.40904199999997,
          "velocity": 0.5905511811023622
        },
        {
          "duration": 0.33380672916666754,
          "durationTicks": 94,
          "midi": 71,
          "name": "B4",
          "ticks": 51648,
          "time": 183.40904199999997,
          "velocity": 0.5905511811023622
        },
        {
          "duration": 0.3338067291666391,
          "durationTicks": 94,
          "midi": 68,
          "name": "G#4",
          "ticks": 51744,
          "time": 183.74995099999998,
          "velocity": 0.5905511811023622
        },
        {
          "duration": 0.3338067291666391,
          "durationTicks": 94,
          "midi": 71,
          "name": "B4",
          "ticks": 51744,
          "time": 183.74995099999998,
          "velocity": 0.5905511811023622
        },
        {
          "duration": 0.3338067291666391,
          "durationTicks": 94,
          "midi": 68,
          "name": "G#4",
          "ticks": 51840,
          "time": 184.09086,
          "velocity": 0.5905511811023622
        },
        {
          "duration": 0.3338067291666391,
          "durationTicks": 94,
          "midi": 71,
          "name": "B4",
          "ticks": 51840,
          "time": 184.09086,
          "velocity": 0.5905511811023622
        },
        {
          "duration": 0.33380672916666754,
          "durationTicks": 94,
          "midi": 68,
          "name": "G#4",
          "ticks": 51936,
          "time": 184.43176899999997,
          "velocity": 0.5905511811023622
        },
        {
          "duration": 0.33380672916666754,
          "durationTicks": 94,
          "midi": 71,
          "name": "B4",
          "ticks": 51936,
          "time": 184.43176899999997,
          "velocity": 0.5905511811023622
        },
        {
          "duration": 0.3338067291666391,
          "durationTicks": 94,
          "midi": 68,
          "name": "G#4",
          "ticks": 52032,
          "time": 184.77267799999998,
          "velocity": 0.5905511811023622
        },
        {
          "duration": 0.3338067291666391,
          "durationTicks": 94,
          "midi": 71,
          "name": "B4",
          "ticks": 52032,
          "time": 184.77267799999998,
          "velocity": 0.5905511811023622
        },
        {
          "duration": 0.33380672916666754,
          "durationTicks": 94,
          "midi": 68,
          "name": "G#4",
          "ticks": 52128,
          "time": 185.11358699999997,
          "velocity": 0.5905511811023622
        },
        {
          "duration": 0.33380672916666754,
          "durationTicks": 94,
          "midi": 71,
          "name": "B4",
          "ticks": 52128,
          "time": 185.11358699999997,
          "velocity": 0.5905511811023622
        },
        {
          "duration": 0.33380672916666754,
          "durationTicks": 94,
          "midi": 68,
          "name": "G#4",
          "ticks": 52224,
          "time": 185.45449599999998,
          "velocity": 0.5905511811023622
        },
        {
          "duration": 0.33380672916666754,
          "durationTicks": 94,
          "midi": 71,
          "name": "B4",
          "ticks": 52224,
          "time": 185.45449599999998,
          "velocity": 0.5905511811023622
        },
        {
          "duration": 0.3338067291666391,
          "durationTicks": 94,
          "midi": 68,
          "name": "G#4",
          "ticks": 52320,
          "time": 185.795405,
          "velocity": 0.5905511811023622
        },
        {
          "duration": 0.3338067291666391,
          "durationTicks": 94,
          "midi": 71,
          "name": "B4",
          "ticks": 52320,
          "time": 185.795405,
          "velocity": 0.5905511811023622
        },
        {
          "duration": 0.33380672916666754,
          "durationTicks": 94,
          "midi": 68,
          "name": "G#4",
          "ticks": 52416,
          "time": 186.13631399999997,
          "velocity": 0.5905511811023622
        },
        {
          "duration": 0.33380672916666754,
          "durationTicks": 94,
          "midi": 71,
          "name": "B4",
          "ticks": 52416,
          "time": 186.13631399999997,
          "velocity": 0.5905511811023622
        },
        {
          "duration": 0.3338067291666391,
          "durationTicks": 94,
          "midi": 68,
          "name": "G#4",
          "ticks": 52512,
          "time": 186.47722299999998,
          "velocity": 0.5905511811023622
        },
        {
          "duration": 0.3338067291666391,
          "durationTicks": 94,
          "midi": 71,
          "name": "B4",
          "ticks": 52512,
          "time": 186.47722299999998,
          "velocity": 0.5905511811023622
        },
        {
          "duration": 0.3338067291666391,
          "durationTicks": 94,
          "midi": 66,
          "name": "F#4",
          "ticks": 52608,
          "time": 186.818132,
          "velocity": 0.5905511811023622
        },
        {
          "duration": 0.3338067291666391,
          "durationTicks": 94,
          "midi": 70,
          "name": "A#4",
          "ticks": 52608,
          "time": 186.818132,
          "velocity": 0.5905511811023622
        },
        {
          "duration": 0.33380672916666754,
          "durationTicks": 94,
          "midi": 66,
          "name": "F#4",
          "ticks": 52704,
          "time": 187.15904099999997,
          "velocity": 0.5905511811023622
        },
        {
          "duration": 0.33380672916666754,
          "durationTicks": 94,
          "midi": 70,
          "name": "A#4",
          "ticks": 52704,
          "time": 187.15904099999997,
          "velocity": 0.5905511811023622
        },
        {
          "duration": 0.3338067291666391,
          "durationTicks": 94,
          "midi": 66,
          "name": "F#4",
          "ticks": 52800,
          "time": 187.49994999999998,
          "velocity": 0.5905511811023622
        },
        {
          "duration": 0.3338067291666391,
          "durationTicks": 94,
          "midi": 70,
          "name": "A#4",
          "ticks": 52800,
          "time": 187.49994999999998,
          "velocity": 0.5905511811023622
        },
        {
          "duration": 0.33380672916666754,
          "durationTicks": 94,
          "midi": 66,
          "name": "F#4",
          "ticks": 52896,
          "time": 187.84085899999997,
          "velocity": 0.5905511811023622
        },
        {
          "duration": 0.33380672916666754,
          "durationTicks": 94,
          "midi": 70,
          "name": "A#4",
          "ticks": 52896,
          "time": 187.84085899999997,
          "velocity": 0.5905511811023622
        },
        {
          "duration": 5.284089499999993,
          "durationTicks": 1488,
          "midi": 68,
          "name": "G#4",
          "ticks": 52992,
          "time": 188.18176799999998,
          "velocity": 0.5905511811023622
        },
        {
          "duration": 5.284089499999993,
          "durationTicks": 1488,
          "midi": 71,
          "name": "B4",
          "ticks": 52992,
          "time": 188.18176799999998,
          "velocity": 0.5905511811023622
        },
        {
          "duration": 0.33380672916666754,
          "durationTicks": 94,
          "midi": 47,
          "name": "B2",
          "ticks": 54528,
          "time": 193.63631199999998,
          "velocity": 0.5905511811023622
        },
        {
          "duration": 0.33380672916666754,
          "durationTicks": 94,
          "midi": 54,
          "name": "F#3",
          "ticks": 54528,
          "time": 193.63631199999998,
          "velocity": 0.5905511811023622
        },
        {
          "duration": 0.33380672916666754,
          "durationTicks": 94,
          "midi": 63,
          "name": "D#4",
          "ticks": 54528,
          "time": 193.63631199999998,
          "velocity": 0.5905511811023622
        },
        {
          "duration": 0.3338067291666391,
          "durationTicks": 94,
          "midi": 47,
          "name": "B2",
          "ticks": 54624,
          "time": 193.977221,
          "velocity": 0.5905511811023622
        },
        {
          "duration": 0.3338067291666391,
          "durationTicks": 94,
          "midi": 54,
          "name": "F#3",
          "ticks": 54624,
          "time": 193.977221,
          "velocity": 0.5905511811023622
        },
        {
          "duration": 0.3338067291666391,
          "durationTicks": 94,
          "midi": 63,
          "name": "D#4",
          "ticks": 54624,
          "time": 193.977221,
          "velocity": 0.5905511811023622
        },
        {
          "duration": 0.33380672916666754,
          "durationTicks": 94,
          "midi": 47,
          "name": "B2",
          "ticks": 54720,
          "time": 194.31812999999997,
          "velocity": 0.5905511811023622
        },
        {
          "duration": 0.33380672916666754,
          "durationTicks": 94,
          "midi": 54,
          "name": "F#3",
          "ticks": 54720,
          "time": 194.31812999999997,
          "velocity": 0.5905511811023622
        },
        {
          "duration": 0.33380672916666754,
          "durationTicks": 94,
          "midi": 63,
          "name": "D#4",
          "ticks": 54720,
          "time": 194.31812999999997,
          "velocity": 0.5905511811023622
        },
        {
          "duration": 0.33380672916666754,
          "durationTicks": 94,
          "midi": 47,
          "name": "B2",
          "ticks": 54816,
          "time": 194.65903899999998,
          "velocity": 0.5905511811023622
        },
        {
          "duration": 0.33380672916666754,
          "durationTicks": 94,
          "midi": 54,
          "name": "F#3",
          "ticks": 54816,
          "time": 194.65903899999998,
          "velocity": 0.5905511811023622
        },
        {
          "duration": 0.33380672916666754,
          "durationTicks": 94,
          "midi": 63,
          "name": "D#4",
          "ticks": 54816,
          "time": 194.65903899999998,
          "velocity": 0.5905511811023622
        },
        {
          "duration": 0.3338067291666391,
          "durationTicks": 94,
          "midi": 47,
          "name": "B2",
          "ticks": 54912,
          "time": 194.999948,
          "velocity": 0.5905511811023622
        },
        {
          "duration": 0.3338067291666391,
          "durationTicks": 94,
          "midi": 54,
          "name": "F#3",
          "ticks": 54912,
          "time": 194.999948,
          "velocity": 0.5905511811023622
        },
        {
          "duration": 0.3338067291666391,
          "durationTicks": 94,
          "midi": 63,
          "name": "D#4",
          "ticks": 54912,
          "time": 194.999948,
          "velocity": 0.5905511811023622
        },
        {
          "duration": 0.33380672916666754,
          "durationTicks": 94,
          "midi": 47,
          "name": "B2",
          "ticks": 55008,
          "time": 195.34085699999997,
          "velocity": 0.5905511811023622
        },
        {
          "duration": 0.33380672916666754,
          "durationTicks": 94,
          "midi": 54,
          "name": "F#3",
          "ticks": 55008,
          "time": 195.34085699999997,
          "velocity": 0.5905511811023622
        },
        {
          "duration": 0.33380672916666754,
          "durationTicks": 94,
          "midi": 63,
          "name": "D#4",
          "ticks": 55008,
          "time": 195.34085699999997,
          "velocity": 0.5905511811023622
        },
        {
          "duration": 0.3338067291666391,
          "durationTicks": 94,
          "midi": 47,
          "name": "B2",
          "ticks": 55104,
          "time": 195.68176599999998,
          "velocity": 0.5905511811023622
        },
        {
          "duration": 0.3338067291666391,
          "durationTicks": 94,
          "midi": 54,
          "name": "F#3",
          "ticks": 55104,
          "time": 195.68176599999998,
          "velocity": 0.5905511811023622
        },
        {
          "duration": 0.3338067291666391,
          "durationTicks": 94,
          "midi": 63,
          "name": "D#4",
          "ticks": 55104,
          "time": 195.68176599999998,
          "velocity": 0.5905511811023622
        },
        {
          "duration": 0.33380672916666754,
          "durationTicks": 94,
          "midi": 47,
          "name": "B2",
          "ticks": 55200,
          "time": 196.02267499999996,
          "velocity": 0.5905511811023622
        },
        {
          "duration": 0.33380672916666754,
          "durationTicks": 94,
          "midi": 54,
          "name": "F#3",
          "ticks": 55200,
          "time": 196.02267499999996,
          "velocity": 0.5905511811023622
        },
        {
          "duration": 0.33380672916666754,
          "durationTicks": 94,
          "midi": 63,
          "name": "D#4",
          "ticks": 55200,
          "time": 196.02267499999996,
          "velocity": 0.5905511811023622
        },
        {
          "duration": 0.33380672916666754,
          "durationTicks": 94,
          "midi": 47,
          "name": "B2",
          "ticks": 55296,
          "time": 196.36358399999997,
          "velocity": 0.5905511811023622
        },
        {
          "duration": 0.33380672916666754,
          "durationTicks": 94,
          "midi": 54,
          "name": "F#3",
          "ticks": 55296,
          "time": 196.36358399999997,
          "velocity": 0.5905511811023622
        },
        {
          "duration": 0.33380672916666754,
          "durationTicks": 94,
          "midi": 63,
          "name": "D#4",
          "ticks": 55296,
          "time": 196.36358399999997,
          "velocity": 0.5905511811023622
        },
        {
          "duration": 0.3338067291666391,
          "durationTicks": 94,
          "midi": 47,
          "name": "B2",
          "ticks": 55392,
          "time": 196.70449299999999,
          "velocity": 0.5905511811023622
        },
        {
          "duration": 0.3338067291666391,
          "durationTicks": 94,
          "midi": 54,
          "name": "F#3",
          "ticks": 55392,
          "time": 196.70449299999999,
          "velocity": 0.5905511811023622
        },
        {
          "duration": 0.3338067291666391,
          "durationTicks": 94,
          "midi": 63,
          "name": "D#4",
          "ticks": 55392,
          "time": 196.70449299999999,
          "velocity": 0.5905511811023622
        },
        {
          "duration": 0.33380672916666754,
          "durationTicks": 94,
          "midi": 47,
          "name": "B2",
          "ticks": 55488,
          "time": 197.04540199999997,
          "velocity": 0.5905511811023622
        },
        {
          "duration": 0.33380672916666754,
          "durationTicks": 94,
          "midi": 54,
          "name": "F#3",
          "ticks": 55488,
          "time": 197.04540199999997,
          "velocity": 0.5905511811023622
        },
        {
          "duration": 0.33380672916666754,
          "durationTicks": 94,
          "midi": 63,
          "name": "D#4",
          "ticks": 55488,
          "time": 197.04540199999997,
          "velocity": 0.5905511811023622
        },
        {
          "duration": 0.33380672916666754,
          "durationTicks": 94,
          "midi": 47,
          "name": "B2",
          "ticks": 55584,
          "time": 197.38631099999998,
          "velocity": 0.5905511811023622
        },
        {
          "duration": 0.33380672916666754,
          "durationTicks": 94,
          "midi": 54,
          "name": "F#3",
          "ticks": 55584,
          "time": 197.38631099999998,
          "velocity": 0.5905511811023622
        },
        {
          "duration": 0.33380672916666754,
          "durationTicks": 94,
          "midi": 63,
          "name": "D#4",
          "ticks": 55584,
          "time": 197.38631099999998,
          "velocity": 0.5905511811023622
        },
        {
          "duration": 0.3338067291666391,
          "durationTicks": 94,
          "midi": 47,
          "name": "B2",
          "ticks": 55680,
          "time": 197.72722,
          "velocity": 0.5905511811023622
        },
        {
          "duration": 0.3338067291666391,
          "durationTicks": 94,
          "midi": 54,
          "name": "F#3",
          "ticks": 55680,
          "time": 197.72722,
          "velocity": 0.5905511811023622
        },
        {
          "duration": 0.3338067291666391,
          "durationTicks": 94,
          "midi": 63,
          "name": "D#4",
          "ticks": 55680,
          "time": 197.72722,
          "velocity": 0.5905511811023622
        },
        {
          "duration": 0.33380672916666754,
          "durationTicks": 94,
          "midi": 47,
          "name": "B2",
          "ticks": 55776,
          "time": 198.06812899999997,
          "velocity": 0.5905511811023622
        },
        {
          "duration": 0.33380672916666754,
          "durationTicks": 94,
          "midi": 54,
          "name": "F#3",
          "ticks": 55776,
          "time": 198.06812899999997,
          "velocity": 0.5905511811023622
        },
        {
          "duration": 0.33380672916666754,
          "durationTicks": 94,
          "midi": 63,
          "name": "D#4",
          "ticks": 55776,
          "time": 198.06812899999997,
          "velocity": 0.5905511811023622
        },
        {
          "duration": 0.3338067291666391,
          "durationTicks": 94,
          "midi": 47,
          "name": "B2",
          "ticks": 55872,
          "time": 198.40903799999998,
          "velocity": 0.5905511811023622
        },
        {
          "duration": 0.3338067291666391,
          "durationTicks": 94,
          "midi": 54,
          "name": "F#3",
          "ticks": 55872,
          "time": 198.40903799999998,
          "velocity": 0.5905511811023622
        },
        {
          "duration": 0.3338067291666391,
          "durationTicks": 94,
          "midi": 63,
          "name": "D#4",
          "ticks": 55872,
          "time": 198.40903799999998,
          "velocity": 0.5905511811023622
        },
        {
          "duration": 0.3338067291666391,
          "durationTicks": 94,
          "midi": 47,
          "name": "B2",
          "ticks": 55968,
          "time": 198.749947,
          "velocity": 0.5905511811023622
        },
        {
          "duration": 0.3338067291666391,
          "durationTicks": 94,
          "midi": 54,
          "name": "F#3",
          "ticks": 55968,
          "time": 198.749947,
          "velocity": 0.5905511811023622
        },
        {
          "duration": 0.3338067291666391,
          "durationTicks": 94,
          "midi": 63,
          "name": "D#4",
          "ticks": 55968,
          "time": 198.749947,
          "velocity": 0.5905511811023622
        },
        {
          "duration": 0.33380672916666754,
          "durationTicks": 94,
          "midi": 54,
          "name": "F#3",
          "ticks": 56064,
          "time": 199.09085599999997,
          "velocity": 0.5905511811023622
        },
        {
          "duration": 0.33380672916666754,
          "durationTicks": 94,
          "midi": 59,
          "name": "B3",
          "ticks": 56064,
          "time": 199.09085599999997,
          "velocity": 0.5905511811023622
        },
        {
          "duration": 0.33380672916666754,
          "durationTicks": 94,
          "midi": 61,
          "name": "C#4",
          "ticks": 56064,
          "time": 199.09085599999997,
          "velocity": 0.5905511811023622
        },
        {
          "duration": 0.3338067291666391,
          "durationTicks": 94,
          "midi": 54,
          "name": "F#3",
          "ticks": 56160,
          "time": 199.43176499999998,
          "velocity": 0.5905511811023622
        },
        {
          "duration": 0.3338067291666391,
          "durationTicks": 94,
          "midi": 59,
          "name": "B3",
          "ticks": 56160,
          "time": 199.43176499999998,
          "velocity": 0.5905511811023622
        },
        {
          "duration": 0.3338067291666391,
          "durationTicks": 94,
          "midi": 61,
          "name": "C#4",
          "ticks": 56160,
          "time": 199.43176499999998,
          "velocity": 0.5905511811023622
        },
        {
          "duration": 0.33380672916666754,
          "durationTicks": 94,
          "midi": 54,
          "name": "F#3",
          "ticks": 56256,
          "time": 199.77267399999997,
          "velocity": 0.5905511811023622
        },
        {
          "duration": 0.33380672916666754,
          "durationTicks": 94,
          "midi": 59,
          "name": "B3",
          "ticks": 56256,
          "time": 199.77267399999997,
          "velocity": 0.5905511811023622
        },
        {
          "duration": 0.33380672916666754,
          "durationTicks": 94,
          "midi": 61,
          "name": "C#4",
          "ticks": 56256,
          "time": 199.77267399999997,
          "velocity": 0.5905511811023622
        },
        {
          "duration": 0.33380672916666754,
          "durationTicks": 94,
          "midi": 54,
          "name": "F#3",
          "ticks": 56352,
          "time": 200.11358299999998,
          "velocity": 0.5905511811023622
        },
        {
          "duration": 0.33380672916666754,
          "durationTicks": 94,
          "midi": 59,
          "name": "B3",
          "ticks": 56352,
          "time": 200.11358299999998,
          "velocity": 0.5905511811023622
        },
        {
          "duration": 0.33380672916666754,
          "durationTicks": 94,
          "midi": 61,
          "name": "C#4",
          "ticks": 56352,
          "time": 200.11358299999998,
          "velocity": 0.5905511811023622
        },
        {
          "duration": 0.3338067291666391,
          "durationTicks": 94,
          "midi": 54,
          "name": "F#3",
          "ticks": 56448,
          "time": 200.454492,
          "velocity": 0.5905511811023622
        },
        {
          "duration": 0.3338067291666391,
          "durationTicks": 94,
          "midi": 59,
          "name": "B3",
          "ticks": 56448,
          "time": 200.454492,
          "velocity": 0.5905511811023622
        },
        {
          "duration": 0.3338067291666391,
          "durationTicks": 94,
          "midi": 61,
          "name": "C#4",
          "ticks": 56448,
          "time": 200.454492,
          "velocity": 0.5905511811023622
        },
        {
          "duration": 0.33380672916666754,
          "durationTicks": 94,
          "midi": 54,
          "name": "F#3",
          "ticks": 56544,
          "time": 200.79540099999997,
          "velocity": 0.5905511811023622
        },
        {
          "duration": 0.33380672916666754,
          "durationTicks": 94,
          "midi": 59,
          "name": "B3",
          "ticks": 56544,
          "time": 200.79540099999997,
          "velocity": 0.5905511811023622
        },
        {
          "duration": 0.33380672916666754,
          "durationTicks": 94,
          "midi": 61,
          "name": "C#4",
          "ticks": 56544,
          "time": 200.79540099999997,
          "velocity": 0.5905511811023622
        },
        {
          "duration": 0.3338067291666391,
          "durationTicks": 94,
          "midi": 54,
          "name": "F#3",
          "ticks": 56640,
          "time": 201.13630999999998,
          "velocity": 0.5905511811023622
        },
        {
          "duration": 0.3338067291666391,
          "durationTicks": 94,
          "midi": 59,
          "name": "B3",
          "ticks": 56640,
          "time": 201.13630999999998,
          "velocity": 0.5905511811023622
        },
        {
          "duration": 0.3338067291666391,
          "durationTicks": 94,
          "midi": 61,
          "name": "C#4",
          "ticks": 56640,
          "time": 201.13630999999998,
          "velocity": 0.5905511811023622
        },
        {
          "duration": 0.3338067291666391,
          "durationTicks": 94,
          "midi": 54,
          "name": "F#3",
          "ticks": 56736,
          "time": 201.477219,
          "velocity": 0.5905511811023622
        },
        {
          "duration": 0.3338067291666391,
          "durationTicks": 94,
          "midi": 59,
          "name": "B3",
          "ticks": 56736,
          "time": 201.477219,
          "velocity": 0.5905511811023622
        },
        {
          "duration": 0.3338067291666391,
          "durationTicks": 94,
          "midi": 61,
          "name": "C#4",
          "ticks": 56736,
          "time": 201.477219,
          "velocity": 0.5905511811023622
        },
        {
          "duration": 0.33380672916666754,
          "durationTicks": 94,
          "midi": 54,
          "name": "F#3",
          "ticks": 56832,
          "time": 201.81812799999997,
          "velocity": 0.5905511811023622
        },
        {
          "duration": 0.33380672916666754,
          "durationTicks": 94,
          "midi": 59,
          "name": "B3",
          "ticks": 56832,
          "time": 201.81812799999997,
          "velocity": 0.5905511811023622
        },
        {
          "duration": 0.33380672916666754,
          "durationTicks": 94,
          "midi": 61,
          "name": "C#4",
          "ticks": 56832,
          "time": 201.81812799999997,
          "velocity": 0.5905511811023622
        },
        {
          "duration": 0.3338067291666391,
          "durationTicks": 94,
          "midi": 54,
          "name": "F#3",
          "ticks": 56928,
          "time": 202.15903699999998,
          "velocity": 0.5905511811023622
        },
        {
          "duration": 0.3338067291666391,
          "durationTicks": 94,
          "midi": 59,
          "name": "B3",
          "ticks": 56928,
          "time": 202.15903699999998,
          "velocity": 0.5905511811023622
        },
        {
          "duration": 0.3338067291666391,
          "durationTicks": 94,
          "midi": 61,
          "name": "C#4",
          "ticks": 56928,
          "time": 202.15903699999998,
          "velocity": 0.5905511811023622
        },
        {
          "duration": 0.33380672916666754,
          "durationTicks": 94,
          "midi": 54,
          "name": "F#3",
          "ticks": 57024,
          "time": 202.49994599999997,
          "velocity": 0.5905511811023622
        },
        {
          "duration": 0.33380672916666754,
          "durationTicks": 94,
          "midi": 59,
          "name": "B3",
          "ticks": 57024,
          "time": 202.49994599999997,
          "velocity": 0.5905511811023622
        },
        {
          "duration": 0.33380672916666754,
          "durationTicks": 94,
          "midi": 61,
          "name": "C#4",
          "ticks": 57024,
          "time": 202.49994599999997,
          "velocity": 0.5905511811023622
        },
        {
          "duration": 0.33380672916666754,
          "durationTicks": 94,
          "midi": 54,
          "name": "F#3",
          "ticks": 57120,
          "time": 202.84085499999998,
          "velocity": 0.5905511811023622
        },
        {
          "duration": 0.33380672916666754,
          "durationTicks": 94,
          "midi": 59,
          "name": "B3",
          "ticks": 57120,
          "time": 202.84085499999998,
          "velocity": 0.5905511811023622
        },
        {
          "duration": 0.33380672916666754,
          "durationTicks": 94,
          "midi": 61,
          "name": "C#4",
          "ticks": 57120,
          "time": 202.84085499999998,
          "velocity": 0.5905511811023622
        },
        {
          "duration": 0.3338067291666391,
          "durationTicks": 94,
          "midi": 54,
          "name": "F#3",
          "ticks": 57216,
          "time": 203.181764,
          "velocity": 0.5905511811023622
        },
        {
          "duration": 0.3338067291666391,
          "durationTicks": 94,
          "midi": 59,
          "name": "B3",
          "ticks": 57216,
          "time": 203.181764,
          "velocity": 0.5905511811023622
        },
        {
          "duration": 0.3338067291666391,
          "durationTicks": 94,
          "midi": 61,
          "name": "C#4",
          "ticks": 57216,
          "time": 203.181764,
          "velocity": 0.5905511811023622
        },
        {
          "duration": 0.33380672916666754,
          "durationTicks": 94,
          "midi": 54,
          "name": "F#3",
          "ticks": 57312,
          "time": 203.52267299999997,
          "velocity": 0.5905511811023622
        },
        {
          "duration": 0.33380672916666754,
          "durationTicks": 94,
          "midi": 59,
          "name": "B3",
          "ticks": 57312,
          "time": 203.52267299999997,
          "velocity": 0.5905511811023622
        },
        {
          "duration": 0.33380672916666754,
          "durationTicks": 94,
          "midi": 61,
          "name": "C#4",
          "ticks": 57312,
          "time": 203.52267299999997,
          "velocity": 0.5905511811023622
        },
        {
          "duration": 0.3338067291666391,
          "durationTicks": 94,
          "midi": 54,
          "name": "F#3",
          "ticks": 57408,
          "time": 203.86358199999998,
          "velocity": 0.5905511811023622
        },
        {
          "duration": 0.3338067291666391,
          "durationTicks": 94,
          "midi": 59,
          "name": "B3",
          "ticks": 57408,
          "time": 203.86358199999998,
          "velocity": 0.5905511811023622
        },
        {
          "duration": 0.3338067291666391,
          "durationTicks": 94,
          "midi": 61,
          "name": "C#4",
          "ticks": 57408,
          "time": 203.86358199999998,
          "velocity": 0.5905511811023622
        },
        {
          "duration": 0.3338067291666391,
          "durationTicks": 94,
          "midi": 54,
          "name": "F#3",
          "ticks": 57504,
          "time": 204.204491,
          "velocity": 0.5905511811023622
        },
        {
          "duration": 0.3338067291666391,
          "durationTicks": 94,
          "midi": 59,
          "name": "B3",
          "ticks": 57504,
          "time": 204.204491,
          "velocity": 0.5905511811023622
        },
        {
          "duration": 0.3338067291666391,
          "durationTicks": 94,
          "midi": 61,
          "name": "C#4",
          "ticks": 57504,
          "time": 204.204491,
          "velocity": 0.5905511811023622
        },
        {
          "duration": 0.33380672916666754,
          "durationTicks": 94,
          "midi": 54,
          "name": "F#3",
          "ticks": 57600,
          "time": 204.54539999999997,
          "velocity": 0.5905511811023622
        },
        {
          "duration": 0.33380672916666754,
          "durationTicks": 94,
          "midi": 59,
          "name": "B3",
          "ticks": 57600,
          "time": 204.54539999999997,
          "velocity": 0.5905511811023622
        },
        {
          "duration": 0.33380672916666754,
          "durationTicks": 94,
          "midi": 63,
          "name": "D#4",
          "ticks": 57600,
          "time": 204.54539999999997,
          "velocity": 0.5905511811023622
        },
        {
          "duration": 0.3338067291666391,
          "durationTicks": 94,
          "midi": 54,
          "name": "F#3",
          "ticks": 57696,
          "time": 204.88630899999998,
          "velocity": 0.5905511811023622
        },
        {
          "duration": 0.3338067291666391,
          "durationTicks": 94,
          "midi": 59,
          "name": "B3",
          "ticks": 57696,
          "time": 204.88630899999998,
          "velocity": 0.5905511811023622
        },
        {
          "duration": 0.3338067291666391,
          "durationTicks": 94,
          "midi": 63,
          "name": "D#4",
          "ticks": 57696,
          "time": 204.88630899999998,
          "velocity": 0.5905511811023622
        },
        {
          "duration": 0.33380672916666754,
          "durationTicks": 94,
          "midi": 54,
          "name": "F#3",
          "ticks": 57792,
          "time": 205.22721799999997,
          "velocity": 0.5905511811023622
        },
        {
          "duration": 0.33380672916666754,
          "durationTicks": 94,
          "midi": 59,
          "name": "B3",
          "ticks": 57792,
          "time": 205.22721799999997,
          "velocity": 0.5905511811023622
        },
        {
          "duration": 0.33380672916666754,
          "durationTicks": 94,
          "midi": 63,
          "name": "D#4",
          "ticks": 57792,
          "time": 205.22721799999997,
          "velocity": 0.5905511811023622
        },
        {
          "duration": 0.33380672916666754,
          "durationTicks": 94,
          "midi": 54,
          "name": "F#3",
          "ticks": 57888,
          "time": 205.56812699999998,
          "velocity": 0.5905511811023622
        },
        {
          "duration": 0.33380672916666754,
          "durationTicks": 94,
          "midi": 59,
          "name": "B3",
          "ticks": 57888,
          "time": 205.56812699999998,
          "velocity": 0.5905511811023622
        },
        {
          "duration": 0.33380672916666754,
          "durationTicks": 94,
          "midi": 63,
          "name": "D#4",
          "ticks": 57888,
          "time": 205.56812699999998,
          "velocity": 0.5905511811023622
        },
        {
          "duration": 0.3338067291666391,
          "durationTicks": 94,
          "midi": 54,
          "name": "F#3",
          "ticks": 57984,
          "time": 205.909036,
          "velocity": 0.5905511811023622
        },
        {
          "duration": 0.3338067291666391,
          "durationTicks": 94,
          "midi": 59,
          "name": "B3",
          "ticks": 57984,
          "time": 205.909036,
          "velocity": 0.5905511811023622
        },
        {
          "duration": 0.3338067291666391,
          "durationTicks": 94,
          "midi": 63,
          "name": "D#4",
          "ticks": 57984,
          "time": 205.909036,
          "velocity": 0.5905511811023622
        },
        {
          "duration": 0.33380672916666754,
          "durationTicks": 94,
          "midi": 54,
          "name": "F#3",
          "ticks": 58080,
          "time": 206.24994499999997,
          "velocity": 0.5905511811023622
        },
        {
          "duration": 0.33380672916666754,
          "durationTicks": 94,
          "midi": 59,
          "name": "B3",
          "ticks": 58080,
          "time": 206.24994499999997,
          "velocity": 0.5905511811023622
        },
        {
          "duration": 0.33380672916666754,
          "durationTicks": 94,
          "midi": 63,
          "name": "D#4",
          "ticks": 58080,
          "time": 206.24994499999997,
          "velocity": 0.5905511811023622
        },
        {
          "duration": 0.3338067291666391,
          "durationTicks": 94,
          "midi": 54,
          "name": "F#3",
          "ticks": 58176,
          "time": 206.59085399999998,
          "velocity": 0.5905511811023622
        },
        {
          "duration": 0.3338067291666391,
          "durationTicks": 94,
          "midi": 59,
          "name": "B3",
          "ticks": 58176,
          "time": 206.59085399999998,
          "velocity": 0.5905511811023622
        },
        {
          "duration": 0.3338067291666391,
          "durationTicks": 94,
          "midi": 63,
          "name": "D#4",
          "ticks": 58176,
          "time": 206.59085399999998,
          "velocity": 0.5905511811023622
        },
        {
          "duration": 0.3338067291666391,
          "durationTicks": 94,
          "midi": 54,
          "name": "F#3",
          "ticks": 58272,
          "time": 206.931763,
          "velocity": 0.5905511811023622
        },
        {
          "duration": 0.3338067291666391,
          "durationTicks": 94,
          "midi": 59,
          "name": "B3",
          "ticks": 58272,
          "time": 206.931763,
          "velocity": 0.5905511811023622
        },
        {
          "duration": 0.3338067291666391,
          "durationTicks": 94,
          "midi": 63,
          "name": "D#4",
          "ticks": 58272,
          "time": 206.931763,
          "velocity": 0.5905511811023622
        },
        {
          "duration": 0.33380672916666754,
          "durationTicks": 94,
          "midi": 54,
          "name": "F#3",
          "ticks": 58368,
          "time": 207.27267199999997,
          "velocity": 0.5905511811023622
        },
        {
          "duration": 0.33380672916666754,
          "durationTicks": 94,
          "midi": 59,
          "name": "B3",
          "ticks": 58368,
          "time": 207.27267199999997,
          "velocity": 0.5905511811023622
        },
        {
          "duration": 0.33380672916666754,
          "durationTicks": 94,
          "midi": 63,
          "name": "D#4",
          "ticks": 58368,
          "time": 207.27267199999997,
          "velocity": 0.5905511811023622
        },
        {
          "duration": 0.3338067291666391,
          "durationTicks": 94,
          "midi": 54,
          "name": "F#3",
          "ticks": 58464,
          "time": 207.61358099999998,
          "velocity": 0.5905511811023622
        },
        {
          "duration": 0.3338067291666391,
          "durationTicks": 94,
          "midi": 59,
          "name": "B3",
          "ticks": 58464,
          "time": 207.61358099999998,
          "velocity": 0.5905511811023622
        },
        {
          "duration": 0.3338067291666391,
          "durationTicks": 94,
          "midi": 63,
          "name": "D#4",
          "ticks": 58464,
          "time": 207.61358099999998,
          "velocity": 0.5905511811023622
        },
        {
          "duration": 0.33380672916666754,
          "durationTicks": 94,
          "midi": 54,
          "name": "F#3",
          "ticks": 58560,
          "time": 207.95448999999996,
          "velocity": 0.5905511811023622
        },
        {
          "duration": 0.33380672916666754,
          "durationTicks": 94,
          "midi": 59,
          "name": "B3",
          "ticks": 58560,
          "time": 207.95448999999996,
          "velocity": 0.5905511811023622
        },
        {
          "duration": 0.33380672916666754,
          "durationTicks": 94,
          "midi": 63,
          "name": "D#4",
          "ticks": 58560,
          "time": 207.95448999999996,
          "velocity": 0.5905511811023622
        },
        {
          "duration": 0.33380672916666754,
          "durationTicks": 94,
          "midi": 54,
          "name": "F#3",
          "ticks": 58656,
          "time": 208.29539899999997,
          "velocity": 0.5905511811023622
        },
        {
          "duration": 0.33380672916666754,
          "durationTicks": 94,
          "midi": 59,
          "name": "B3",
          "ticks": 58656,
          "time": 208.29539899999997,
          "velocity": 0.5905511811023622
        },
        {
          "duration": 0.33380672916666754,
          "durationTicks": 94,
          "midi": 63,
          "name": "D#4",
          "ticks": 58656,
          "time": 208.29539899999997,
          "velocity": 0.5905511811023622
        },
        {
          "duration": 0.3338067291666391,
          "durationTicks": 94,
          "midi": 54,
          "name": "F#3",
          "ticks": 58752,
          "time": 208.63630799999999,
          "velocity": 0.5905511811023622
        },
        {
          "duration": 0.3338067291666391,
          "durationTicks": 94,
          "midi": 59,
          "name": "B3",
          "ticks": 58752,
          "time": 208.63630799999999,
          "velocity": 0.5905511811023622
        },
        {
          "duration": 0.3338067291666391,
          "durationTicks": 94,
          "midi": 63,
          "name": "D#4",
          "ticks": 58752,
          "time": 208.63630799999999,
          "velocity": 0.5905511811023622
        },
        {
          "duration": 0.33380672916666754,
          "durationTicks": 94,
          "midi": 54,
          "name": "F#3",
          "ticks": 58848,
          "time": 208.97721699999997,
          "velocity": 0.5905511811023622
        },
        {
          "duration": 0.33380672916666754,
          "durationTicks": 94,
          "midi": 59,
          "name": "B3",
          "ticks": 58848,
          "time": 208.97721699999997,
          "velocity": 0.5905511811023622
        },
        {
          "duration": 0.33380672916666754,
          "durationTicks": 94,
          "midi": 63,
          "name": "D#4",
          "ticks": 58848,
          "time": 208.97721699999997,
          "velocity": 0.5905511811023622
        },
        {
          "duration": 0.3338067291666391,
          "durationTicks": 94,
          "midi": 54,
          "name": "F#3",
          "ticks": 58944,
          "time": 209.31812599999998,
          "velocity": 0.5905511811023622
        },
        {
          "duration": 0.3338067291666391,
          "durationTicks": 94,
          "midi": 59,
          "name": "B3",
          "ticks": 58944,
          "time": 209.31812599999998,
          "velocity": 0.5905511811023622
        },
        {
          "duration": 0.3338067291666391,
          "durationTicks": 94,
          "midi": 63,
          "name": "D#4",
          "ticks": 58944,
          "time": 209.31812599999998,
          "velocity": 0.5905511811023622
        },
        {
          "duration": 0.3338067291666391,
          "durationTicks": 94,
          "midi": 54,
          "name": "F#3",
          "ticks": 59040,
          "time": 209.659035,
          "velocity": 0.5905511811023622
        },
        {
          "duration": 0.3338067291666391,
          "durationTicks": 94,
          "midi": 59,
          "name": "B3",
          "ticks": 59040,
          "time": 209.659035,
          "velocity": 0.5905511811023622
        },
        {
          "duration": 0.3338067291666391,
          "durationTicks": 94,
          "midi": 63,
          "name": "D#4",
          "ticks": 59040,
          "time": 209.659035,
          "velocity": 0.5905511811023622
        },
        {
          "duration": 0.33380672916666754,
          "durationTicks": 94,
          "midi": 47,
          "name": "B2",
          "ticks": 59136,
          "time": 209.99994399999997,
          "velocity": 0.5905511811023622
        },
        {
          "duration": 0.33380672916666754,
          "durationTicks": 94,
          "midi": 59,
          "name": "B3",
          "ticks": 59136,
          "time": 209.99994399999997,
          "velocity": 0.5905511811023622
        },
        {
          "duration": 0.33380672916666754,
          "durationTicks": 94,
          "midi": 63,
          "name": "D#4",
          "ticks": 59136,
          "time": 209.99994399999997,
          "velocity": 0.5905511811023622
        },
        {
          "duration": 0.3338067291666391,
          "durationTicks": 94,
          "midi": 47,
          "name": "B2",
          "ticks": 59232,
          "time": 210.34085299999998,
          "velocity": 0.5905511811023622
        },
        {
          "duration": 0.3338067291666391,
          "durationTicks": 94,
          "midi": 59,
          "name": "B3",
          "ticks": 59232,
          "time": 210.34085299999998,
          "velocity": 0.5905511811023622
        },
        {
          "duration": 0.3338067291666391,
          "durationTicks": 94,
          "midi": 63,
          "name": "D#4",
          "ticks": 59232,
          "time": 210.34085299999998,
          "velocity": 0.5905511811023622
        },
        {
          "duration": 0.33380672916666754,
          "durationTicks": 94,
          "midi": 47,
          "name": "B2",
          "ticks": 59328,
          "time": 210.68176199999996,
          "velocity": 0.5905511811023622
        },
        {
          "duration": 0.33380672916666754,
          "durationTicks": 94,
          "midi": 59,
          "name": "B3",
          "ticks": 59328,
          "time": 210.68176199999996,
          "velocity": 0.5905511811023622
        },
        {
          "duration": 0.33380672916666754,
          "durationTicks": 94,
          "midi": 63,
          "name": "D#4",
          "ticks": 59328,
          "time": 210.68176199999996,
          "velocity": 0.5905511811023622
        },
        {
          "duration": 0.33380672916666754,
          "durationTicks": 94,
          "midi": 47,
          "name": "B2",
          "ticks": 59424,
          "time": 211.02267099999997,
          "velocity": 0.5905511811023622
        },
        {
          "duration": 0.33380672916666754,
          "durationTicks": 94,
          "midi": 59,
          "name": "B3",
          "ticks": 59424,
          "time": 211.02267099999997,
          "velocity": 0.5905511811023622
        },
        {
          "duration": 0.33380672916666754,
          "durationTicks": 94,
          "midi": 63,
          "name": "D#4",
          "ticks": 59424,
          "time": 211.02267099999997,
          "velocity": 0.5905511811023622
        },
        {
          "duration": 0.3338067291666391,
          "durationTicks": 94,
          "midi": 47,
          "name": "B2",
          "ticks": 59520,
          "time": 211.36357999999998,
          "velocity": 0.5905511811023622
        },
        {
          "duration": 0.3338067291666391,
          "durationTicks": 94,
          "midi": 59,
          "name": "B3",
          "ticks": 59520,
          "time": 211.36357999999998,
          "velocity": 0.5905511811023622
        },
        {
          "duration": 0.3338067291666391,
          "durationTicks": 94,
          "midi": 63,
          "name": "D#4",
          "ticks": 59520,
          "time": 211.36357999999998,
          "velocity": 0.5905511811023622
        },
        {
          "duration": 0.33380672916666754,
          "durationTicks": 94,
          "midi": 47,
          "name": "B2",
          "ticks": 59616,
          "time": 211.70448899999997,
          "velocity": 0.5905511811023622
        },
        {
          "duration": 0.33380672916666754,
          "durationTicks": 94,
          "midi": 59,
          "name": "B3",
          "ticks": 59616,
          "time": 211.70448899999997,
          "velocity": 0.5905511811023622
        },
        {
          "duration": 0.33380672916666754,
          "durationTicks": 94,
          "midi": 63,
          "name": "D#4",
          "ticks": 59616,
          "time": 211.70448899999997,
          "velocity": 0.5905511811023622
        },
        {
          "duration": 0.3338067291666391,
          "durationTicks": 94,
          "midi": 47,
          "name": "B2",
          "ticks": 59712,
          "time": 212.04539799999998,
          "velocity": 0.5905511811023622
        },
        {
          "duration": 0.3338067291666391,
          "durationTicks": 94,
          "midi": 59,
          "name": "B3",
          "ticks": 59712,
          "time": 212.04539799999998,
          "velocity": 0.5905511811023622
        },
        {
          "duration": 0.3338067291666391,
          "durationTicks": 94,
          "midi": 63,
          "name": "D#4",
          "ticks": 59712,
          "time": 212.04539799999998,
          "velocity": 0.5905511811023622
        },
        {
          "duration": 0.3338067291666391,
          "durationTicks": 94,
          "midi": 47,
          "name": "B2",
          "ticks": 59808,
          "time": 212.386307,
          "velocity": 0.5905511811023622
        },
        {
          "duration": 0.3338067291666391,
          "durationTicks": 94,
          "midi": 59,
          "name": "B3",
          "ticks": 59808,
          "time": 212.386307,
          "velocity": 0.5905511811023622
        },
        {
          "duration": 0.3338067291666391,
          "durationTicks": 94,
          "midi": 63,
          "name": "D#4",
          "ticks": 59808,
          "time": 212.386307,
          "velocity": 0.5905511811023622
        },
        {
          "duration": 0.33380672916666754,
          "durationTicks": 94,
          "midi": 47,
          "name": "B2",
          "ticks": 59904,
          "time": 212.72721599999997,
          "velocity": 0.5905511811023622
        },
        {
          "duration": 0.33380672916666754,
          "durationTicks": 94,
          "midi": 59,
          "name": "B3",
          "ticks": 59904,
          "time": 212.72721599999997,
          "velocity": 0.5905511811023622
        },
        {
          "duration": 0.33380672916666754,
          "durationTicks": 94,
          "midi": 63,
          "name": "D#4",
          "ticks": 59904,
          "time": 212.72721599999997,
          "velocity": 0.5905511811023622
        },
        {
          "duration": 0.3338067291666391,
          "durationTicks": 94,
          "midi": 47,
          "name": "B2",
          "ticks": 60000,
          "time": 213.06812499999998,
          "velocity": 0.5905511811023622
        },
        {
          "duration": 0.3338067291666391,
          "durationTicks": 94,
          "midi": 59,
          "name": "B3",
          "ticks": 60000,
          "time": 213.06812499999998,
          "velocity": 0.5905511811023622
        },
        {
          "duration": 0.3338067291666391,
          "durationTicks": 94,
          "midi": 63,
          "name": "D#4",
          "ticks": 60000,
          "time": 213.06812499999998,
          "velocity": 0.5905511811023622
        },
        {
          "duration": 0.33380672916666754,
          "durationTicks": 94,
          "midi": 47,
          "name": "B2",
          "ticks": 60096,
          "time": 213.40903399999996,
          "velocity": 0.5905511811023622
        },
        {
          "duration": 0.33380672916666754,
          "durationTicks": 94,
          "midi": 59,
          "name": "B3",
          "ticks": 60096,
          "time": 213.40903399999996,
          "velocity": 0.5905511811023622
        },
        {
          "duration": 0.33380672916666754,
          "durationTicks": 94,
          "midi": 63,
          "name": "D#4",
          "ticks": 60096,
          "time": 213.40903399999996,
          "velocity": 0.5905511811023622
        },
        {
          "duration": 0.33380672916666754,
          "durationTicks": 94,
          "midi": 47,
          "name": "B2",
          "ticks": 60192,
          "time": 213.74994299999997,
          "velocity": 0.5905511811023622
        },
        {
          "duration": 0.33380672916666754,
          "durationTicks": 94,
          "midi": 59,
          "name": "B3",
          "ticks": 60192,
          "time": 213.74994299999997,
          "velocity": 0.5905511811023622
        },
        {
          "duration": 0.33380672916666754,
          "durationTicks": 94,
          "midi": 63,
          "name": "D#4",
          "ticks": 60192,
          "time": 213.74994299999997,
          "velocity": 0.5905511811023622
        },
        {
          "duration": 0.3338067291666391,
          "durationTicks": 94,
          "midi": 47,
          "name": "B2",
          "ticks": 60288,
          "time": 214.09085199999998,
          "velocity": 0.5905511811023622
        },
        {
          "duration": 0.3338067291666391,
          "durationTicks": 94,
          "midi": 59,
          "name": "B3",
          "ticks": 60288,
          "time": 214.09085199999998,
          "velocity": 0.5905511811023622
        },
        {
          "duration": 0.3338067291666391,
          "durationTicks": 94,
          "midi": 63,
          "name": "D#4",
          "ticks": 60288,
          "time": 214.09085199999998,
          "velocity": 0.5905511811023622
        },
        {
          "duration": 0.33380672916666754,
          "durationTicks": 94,
          "midi": 47,
          "name": "B2",
          "ticks": 60384,
          "time": 214.43176099999997,
          "velocity": 0.5905511811023622
        },
        {
          "duration": 0.33380672916666754,
          "durationTicks": 94,
          "midi": 59,
          "name": "B3",
          "ticks": 60384,
          "time": 214.43176099999997,
          "velocity": 0.5905511811023622
        },
        {
          "duration": 0.33380672916666754,
          "durationTicks": 94,
          "midi": 63,
          "name": "D#4",
          "ticks": 60384,
          "time": 214.43176099999997,
          "velocity": 0.5905511811023622
        },
        {
          "duration": 0.3338067291666391,
          "durationTicks": 94,
          "midi": 47,
          "name": "B2",
          "ticks": 60480,
          "time": 214.77266999999998,
          "velocity": 0.5905511811023622
        },
        {
          "duration": 0.3338067291666391,
          "durationTicks": 94,
          "midi": 59,
          "name": "B3",
          "ticks": 60480,
          "time": 214.77266999999998,
          "velocity": 0.5905511811023622
        },
        {
          "duration": 0.3338067291666391,
          "durationTicks": 94,
          "midi": 63,
          "name": "D#4",
          "ticks": 60480,
          "time": 214.77266999999998,
          "velocity": 0.5905511811023622
        },
        {
          "duration": 0.3338067291666391,
          "durationTicks": 94,
          "midi": 47,
          "name": "B2",
          "ticks": 60576,
          "time": 215.113579,
          "velocity": 0.5905511811023622
        },
        {
          "duration": 0.3338067291666391,
          "durationTicks": 94,
          "midi": 59,
          "name": "B3",
          "ticks": 60576,
          "time": 215.113579,
          "velocity": 0.5905511811023622
        },
        {
          "duration": 0.3338067291666391,
          "durationTicks": 94,
          "midi": 63,
          "name": "D#4",
          "ticks": 60576,
          "time": 215.113579,
          "velocity": 0.5905511811023622
        },
        {
          "duration": 0.33380672916666754,
          "durationTicks": 94,
          "midi": 47,
          "name": "B2",
          "ticks": 60672,
          "time": 215.45448799999997,
          "velocity": 0.5905511811023622
        },
        {
          "duration": 0.33380672916666754,
          "durationTicks": 94,
          "midi": 54,
          "name": "F#3",
          "ticks": 60672,
          "time": 215.45448799999997,
          "velocity": 0.5905511811023622
        },
        {
          "duration": 0.33380672916666754,
          "durationTicks": 94,
          "midi": 63,
          "name": "D#4",
          "ticks": 60672,
          "time": 215.45448799999997,
          "velocity": 0.5905511811023622
        },
        {
          "duration": 0.3338067291666391,
          "durationTicks": 94,
          "midi": 47,
          "name": "B2",
          "ticks": 60768,
          "time": 215.79539699999998,
          "velocity": 0.5905511811023622
        },
        {
          "duration": 0.3338067291666391,
          "durationTicks": 94,
          "midi": 54,
          "name": "F#3",
          "ticks": 60768,
          "time": 215.79539699999998,
          "velocity": 0.5905511811023622
        },
        {
          "duration": 0.3338067291666391,
          "durationTicks": 94,
          "midi": 63,
          "name": "D#4",
          "ticks": 60768,
          "time": 215.79539699999998,
          "velocity": 0.5905511811023622
        },
        {
          "duration": 0.33380672916666754,
          "durationTicks": 94,
          "midi": 47,
          "name": "B2",
          "ticks": 60864,
          "time": 216.13630599999996,
          "velocity": 0.5905511811023622
        },
        {
          "duration": 0.33380672916666754,
          "durationTicks": 94,
          "midi": 54,
          "name": "F#3",
          "ticks": 60864,
          "time": 216.13630599999996,
          "velocity": 0.5905511811023622
        },
        {
          "duration": 0.33380672916666754,
          "durationTicks": 94,
          "midi": 63,
          "name": "D#4",
          "ticks": 60864,
          "time": 216.13630599999996,
          "velocity": 0.5905511811023622
        },
        {
          "duration": 0.33380672916666754,
          "durationTicks": 94,
          "midi": 47,
          "name": "B2",
          "ticks": 60960,
          "time": 216.47721499999997,
          "velocity": 0.5905511811023622
        },
        {
          "duration": 0.33380672916666754,
          "durationTicks": 94,
          "midi": 54,
          "name": "F#3",
          "ticks": 60960,
          "time": 216.47721499999997,
          "velocity": 0.5905511811023622
        },
        {
          "duration": 0.33380672916666754,
          "durationTicks": 94,
          "midi": 63,
          "name": "D#4",
          "ticks": 60960,
          "time": 216.47721499999997,
          "velocity": 0.5905511811023622
        },
        {
          "duration": 0.3338067291666391,
          "durationTicks": 94,
          "midi": 47,
          "name": "B2",
          "ticks": 61056,
          "time": 216.81812399999998,
          "velocity": 0.5905511811023622
        },
        {
          "duration": 0.3338067291666391,
          "durationTicks": 94,
          "midi": 54,
          "name": "F#3",
          "ticks": 61056,
          "time": 216.81812399999998,
          "velocity": 0.5905511811023622
        },
        {
          "duration": 0.3338067291666391,
          "durationTicks": 94,
          "midi": 63,
          "name": "D#4",
          "ticks": 61056,
          "time": 216.81812399999998,
          "velocity": 0.5905511811023622
        },
        {
          "duration": 0.33380672916666754,
          "durationTicks": 94,
          "midi": 47,
          "name": "B2",
          "ticks": 61152,
          "time": 217.15903299999997,
          "velocity": 0.5905511811023622
        },
        {
          "duration": 0.33380672916666754,
          "durationTicks": 94,
          "midi": 54,
          "name": "F#3",
          "ticks": 61152,
          "time": 217.15903299999997,
          "velocity": 0.5905511811023622
        },
        {
          "duration": 0.33380672916666754,
          "durationTicks": 94,
          "midi": 63,
          "name": "D#4",
          "ticks": 61152,
          "time": 217.15903299999997,
          "velocity": 0.5905511811023622
        },
        {
          "duration": 0.33380672916666754,
          "durationTicks": 94,
          "midi": 47,
          "name": "B2",
          "ticks": 61248,
          "time": 217.49994199999998,
          "velocity": 0.5905511811023622
        },
        {
          "duration": 0.33380672916666754,
          "durationTicks": 94,
          "midi": 54,
          "name": "F#3",
          "ticks": 61248,
          "time": 217.49994199999998,
          "velocity": 0.5905511811023622
        },
        {
          "duration": 0.33380672916666754,
          "durationTicks": 94,
          "midi": 63,
          "name": "D#4",
          "ticks": 61248,
          "time": 217.49994199999998,
          "velocity": 0.5905511811023622
        },
        {
          "duration": 0.3338067291666391,
          "durationTicks": 94,
          "midi": 47,
          "name": "B2",
          "ticks": 61344,
          "time": 217.840851,
          "velocity": 0.5905511811023622
        },
        {
          "duration": 0.3338067291666391,
          "durationTicks": 94,
          "midi": 54,
          "name": "F#3",
          "ticks": 61344,
          "time": 217.840851,
          "velocity": 0.5905511811023622
        },
        {
          "duration": 0.3338067291666391,
          "durationTicks": 94,
          "midi": 63,
          "name": "D#4",
          "ticks": 61344,
          "time": 217.840851,
          "velocity": 0.5905511811023622
        },
        {
          "duration": 0.33380672916666754,
          "durationTicks": 94,
          "midi": 47,
          "name": "B2",
          "ticks": 61440,
          "time": 218.18175999999997,
          "velocity": 0.5905511811023622
        },
        {
          "duration": 0.33380672916666754,
          "durationTicks": 94,
          "midi": 54,
          "name": "F#3",
          "ticks": 61440,
          "time": 218.18175999999997,
          "velocity": 0.5905511811023622
        },
        {
          "duration": 0.33380672916666754,
          "durationTicks": 94,
          "midi": 63,
          "name": "D#4",
          "ticks": 61440,
          "time": 218.18175999999997,
          "velocity": 0.5905511811023622
        },
        {
          "duration": 0.3338067291666391,
          "durationTicks": 94,
          "midi": 47,
          "name": "B2",
          "ticks": 61536,
          "time": 218.52266899999998,
          "velocity": 0.5905511811023622
        },
        {
          "duration": 0.3338067291666391,
          "durationTicks": 94,
          "midi": 54,
          "name": "F#3",
          "ticks": 61536,
          "time": 218.52266899999998,
          "velocity": 0.5905511811023622
        },
        {
          "duration": 0.3338067291666391,
          "durationTicks": 94,
          "midi": 63,
          "name": "D#4",
          "ticks": 61536,
          "time": 218.52266899999998,
          "velocity": 0.5905511811023622
        },
        {
          "duration": 0.3338067291666391,
          "durationTicks": 94,
          "midi": 47,
          "name": "B2",
          "ticks": 61632,
          "time": 218.863578,
          "velocity": 0.5905511811023622
        },
        {
          "duration": 0.3338067291666391,
          "durationTicks": 94,
          "midi": 54,
          "name": "F#3",
          "ticks": 61632,
          "time": 218.863578,
          "velocity": 0.5905511811023622
        },
        {
          "duration": 0.3338067291666391,
          "durationTicks": 94,
          "midi": 63,
          "name": "D#4",
          "ticks": 61632,
          "time": 218.863578,
          "velocity": 0.5905511811023622
        },
        {
          "duration": 0.33380672916666754,
          "durationTicks": 94,
          "midi": 47,
          "name": "B2",
          "ticks": 61728,
          "time": 219.20448699999997,
          "velocity": 0.5905511811023622
        },
        {
          "duration": 0.33380672916666754,
          "durationTicks": 94,
          "midi": 54,
          "name": "F#3",
          "ticks": 61728,
          "time": 219.20448699999997,
          "velocity": 0.5905511811023622
        },
        {
          "duration": 0.33380672916666754,
          "durationTicks": 94,
          "midi": 63,
          "name": "D#4",
          "ticks": 61728,
          "time": 219.20448699999997,
          "velocity": 0.5905511811023622
        },
        {
          "duration": 0.3338067291666391,
          "durationTicks": 94,
          "midi": 47,
          "name": "B2",
          "ticks": 61824,
          "time": 219.54539599999998,
          "velocity": 0.5905511811023622
        },
        {
          "duration": 0.3338067291666391,
          "durationTicks": 94,
          "midi": 54,
          "name": "F#3",
          "ticks": 61824,
          "time": 219.54539599999998,
          "velocity": 0.5905511811023622
        },
        {
          "duration": 0.3338067291666391,
          "durationTicks": 94,
          "midi": 63,
          "name": "D#4",
          "ticks": 61824,
          "time": 219.54539599999998,
          "velocity": 0.5905511811023622
        },
        {
          "duration": 0.33380672916666754,
          "durationTicks": 94,
          "midi": 47,
          "name": "B2",
          "ticks": 61920,
          "time": 219.88630499999996,
          "velocity": 0.5905511811023622
        },
        {
          "duration": 0.33380672916666754,
          "durationTicks": 94,
          "midi": 54,
          "name": "F#3",
          "ticks": 61920,
          "time": 219.88630499999996,
          "velocity": 0.5905511811023622
        },
        {
          "duration": 0.33380672916666754,
          "durationTicks": 94,
          "midi": 63,
          "name": "D#4",
          "ticks": 61920,
          "time": 219.88630499999996,
          "velocity": 0.5905511811023622
        },
        {
          "duration": 0.33380672916666754,
          "durationTicks": 94,
          "midi": 47,
          "name": "B2",
          "ticks": 62016,
          "time": 220.22721399999998,
          "velocity": 0.5905511811023622
        },
        {
          "duration": 0.33380672916666754,
          "durationTicks": 94,
          "midi": 54,
          "name": "F#3",
          "ticks": 62016,
          "time": 220.22721399999998,
          "velocity": 0.5905511811023622
        },
        {
          "duration": 0.33380672916666754,
          "durationTicks": 94,
          "midi": 63,
          "name": "D#4",
          "ticks": 62016,
          "time": 220.22721399999998,
          "velocity": 0.5905511811023622
        },
        {
          "duration": 0.3338067291666391,
          "durationTicks": 94,
          "midi": 47,
          "name": "B2",
          "ticks": 62112,
          "time": 220.56812299999999,
          "velocity": 0.5905511811023622
        },
        {
          "duration": 0.3338067291666391,
          "durationTicks": 94,
          "midi": 54,
          "name": "F#3",
          "ticks": 62112,
          "time": 220.56812299999999,
          "velocity": 0.5905511811023622
        },
        {
          "duration": 0.3338067291666391,
          "durationTicks": 94,
          "midi": 63,
          "name": "D#4",
          "ticks": 62112,
          "time": 220.56812299999999,
          "velocity": 0.5905511811023622
        },
        {
          "duration": 0.33380672916666754,
          "durationTicks": 94,
          "midi": 54,
          "name": "F#3",
          "ticks": 62208,
          "time": 220.90903199999997,
          "velocity": 0.5905511811023622
        },
        {
          "duration": 0.33380672916666754,
          "durationTicks": 94,
          "midi": 59,
          "name": "B3",
          "ticks": 62208,
          "time": 220.90903199999997,
          "velocity": 0.5905511811023622
        },
        {
          "duration": 0.33380672916666754,
          "durationTicks": 94,
          "midi": 61,
          "name": "C#4",
          "ticks": 62208,
          "time": 220.90903199999997,
          "velocity": 0.5905511811023622
        },
        {
          "duration": 0.3338067291666391,
          "durationTicks": 94,
          "midi": 54,
          "name": "F#3",
          "ticks": 62304,
          "time": 221.24994099999998,
          "velocity": 0.5905511811023622
        },
        {
          "duration": 0.3338067291666391,
          "durationTicks": 94,
          "midi": 59,
          "name": "B3",
          "ticks": 62304,
          "time": 221.24994099999998,
          "velocity": 0.5905511811023622
        },
        {
          "duration": 0.3338067291666391,
          "durationTicks": 94,
          "midi": 61,
          "name": "C#4",
          "ticks": 62304,
          "time": 221.24994099999998,
          "velocity": 0.5905511811023622
        },
        {
          "duration": 0.3338067291666391,
          "durationTicks": 94,
          "midi": 54,
          "name": "F#3",
          "ticks": 62400,
          "time": 221.59085,
          "velocity": 0.5905511811023622
        },
        {
          "duration": 0.3338067291666391,
          "durationTicks": 94,
          "midi": 59,
          "name": "B3",
          "ticks": 62400,
          "time": 221.59085,
          "velocity": 0.5905511811023622
        },
        {
          "duration": 0.3338067291666391,
          "durationTicks": 94,
          "midi": 61,
          "name": "C#4",
          "ticks": 62400,
          "time": 221.59085,
          "velocity": 0.5905511811023622
        },
        {
          "duration": 0.33380672916666754,
          "durationTicks": 94,
          "midi": 54,
          "name": "F#3",
          "ticks": 62496,
          "time": 221.93175899999997,
          "velocity": 0.5905511811023622
        },
        {
          "duration": 0.33380672916666754,
          "durationTicks": 94,
          "midi": 59,
          "name": "B3",
          "ticks": 62496,
          "time": 221.93175899999997,
          "velocity": 0.5905511811023622
        },
        {
          "duration": 0.33380672916666754,
          "durationTicks": 94,
          "midi": 61,
          "name": "C#4",
          "ticks": 62496,
          "time": 221.93175899999997,
          "velocity": 0.5905511811023622
        },
        {
          "duration": 0.3338067291666391,
          "durationTicks": 94,
          "midi": 54,
          "name": "F#3",
          "ticks": 62592,
          "time": 222.27266799999998,
          "velocity": 0.5905511811023622
        },
        {
          "duration": 0.3338067291666391,
          "durationTicks": 94,
          "midi": 59,
          "name": "B3",
          "ticks": 62592,
          "time": 222.27266799999998,
          "velocity": 0.5905511811023622
        },
        {
          "duration": 0.3338067291666391,
          "durationTicks": 94,
          "midi": 61,
          "name": "C#4",
          "ticks": 62592,
          "time": 222.27266799999998,
          "velocity": 0.5905511811023622
        },
        {
          "duration": 0.33380672916666754,
          "durationTicks": 94,
          "midi": 54,
          "name": "F#3",
          "ticks": 62688,
          "time": 222.61357699999996,
          "velocity": 0.5905511811023622
        },
        {
          "duration": 0.33380672916666754,
          "durationTicks": 94,
          "midi": 59,
          "name": "B3",
          "ticks": 62688,
          "time": 222.61357699999996,
          "velocity": 0.5905511811023622
        },
        {
          "duration": 0.33380672916666754,
          "durationTicks": 94,
          "midi": 61,
          "name": "C#4",
          "ticks": 62688,
          "time": 222.61357699999996,
          "velocity": 0.5905511811023622
        },
        {
          "duration": 0.33380672916666754,
          "durationTicks": 94,
          "midi": 54,
          "name": "F#3",
          "ticks": 62784,
          "time": 222.95448599999997,
          "velocity": 0.5905511811023622
        },
        {
          "duration": 0.33380672916666754,
          "durationTicks": 94,
          "midi": 59,
          "name": "B3",
          "ticks": 62784,
          "time": 222.95448599999997,
          "velocity": 0.5905511811023622
        },
        {
          "duration": 0.33380672916666754,
          "durationTicks": 94,
          "midi": 61,
          "name": "C#4",
          "ticks": 62784,
          "time": 222.95448599999997,
          "velocity": 0.5905511811023622
        },
        {
          "duration": 0.3338067291666391,
          "durationTicks": 94,
          "midi": 54,
          "name": "F#3",
          "ticks": 62880,
          "time": 223.29539499999998,
          "velocity": 0.5905511811023622
        },
        {
          "duration": 0.3338067291666391,
          "durationTicks": 94,
          "midi": 59,
          "name": "B3",
          "ticks": 62880,
          "time": 223.29539499999998,
          "velocity": 0.5905511811023622
        },
        {
          "duration": 0.3338067291666391,
          "durationTicks": 94,
          "midi": 61,
          "name": "C#4",
          "ticks": 62880,
          "time": 223.29539499999998,
          "velocity": 0.5905511811023622
        },
        {
          "duration": 0.33380672916666754,
          "durationTicks": 94,
          "midi": 54,
          "name": "F#3",
          "ticks": 62976,
          "time": 223.63630399999997,
          "velocity": 0.5905511811023622
        },
        {
          "duration": 0.33380672916666754,
          "durationTicks": 94,
          "midi": 59,
          "name": "B3",
          "ticks": 62976,
          "time": 223.63630399999997,
          "velocity": 0.5905511811023622
        },
        {
          "duration": 0.33380672916666754,
          "durationTicks": 94,
          "midi": 61,
          "name": "C#4",
          "ticks": 62976,
          "time": 223.63630399999997,
          "velocity": 0.5905511811023622
        },
        {
          "duration": 0.3338067291666391,
          "durationTicks": 94,
          "midi": 54,
          "name": "F#3",
          "ticks": 63072,
          "time": 223.97721299999998,
          "velocity": 0.5905511811023622
        },
        {
          "duration": 0.3338067291666391,
          "durationTicks": 94,
          "midi": 59,
          "name": "B3",
          "ticks": 63072,
          "time": 223.97721299999998,
          "velocity": 0.5905511811023622
        },
        {
          "duration": 0.3338067291666391,
          "durationTicks": 94,
          "midi": 61,
          "name": "C#4",
          "ticks": 63072,
          "time": 223.97721299999998,
          "velocity": 0.5905511811023622
        },
        {
          "duration": 0.3338067291666391,
          "durationTicks": 94,
          "midi": 54,
          "name": "F#3",
          "ticks": 63168,
          "time": 224.318122,
          "velocity": 0.5905511811023622
        },
        {
          "duration": 0.3338067291666391,
          "durationTicks": 94,
          "midi": 59,
          "name": "B3",
          "ticks": 63168,
          "time": 224.318122,
          "velocity": 0.5905511811023622
        },
        {
          "duration": 0.3338067291666391,
          "durationTicks": 94,
          "midi": 61,
          "name": "C#4",
          "ticks": 63168,
          "time": 224.318122,
          "velocity": 0.5905511811023622
        },
        {
          "duration": 0.33380672916666754,
          "durationTicks": 94,
          "midi": 54,
          "name": "F#3",
          "ticks": 63264,
          "time": 224.65903099999997,
          "velocity": 0.5905511811023622
        },
        {
          "duration": 0.33380672916666754,
          "durationTicks": 94,
          "midi": 59,
          "name": "B3",
          "ticks": 63264,
          "time": 224.65903099999997,
          "velocity": 0.5905511811023622
        },
        {
          "duration": 0.33380672916666754,
          "durationTicks": 94,
          "midi": 61,
          "name": "C#4",
          "ticks": 63264,
          "time": 224.65903099999997,
          "velocity": 0.5905511811023622
        },
        {
          "duration": 0.3338067291666391,
          "durationTicks": 94,
          "midi": 54,
          "name": "F#3",
          "ticks": 63360,
          "time": 224.99993999999998,
          "velocity": 0.5905511811023622
        },
        {
          "duration": 0.3338067291666391,
          "durationTicks": 94,
          "midi": 59,
          "name": "B3",
          "ticks": 63360,
          "time": 224.99993999999998,
          "velocity": 0.5905511811023622
        },
        {
          "duration": 0.3338067291666391,
          "durationTicks": 94,
          "midi": 61,
          "name": "C#4",
          "ticks": 63360,
          "time": 224.99993999999998,
          "velocity": 0.5905511811023622
        },
        {
          "duration": 0.33380672916666754,
          "durationTicks": 94,
          "midi": 54,
          "name": "F#3",
          "ticks": 63456,
          "time": 225.34084899999996,
          "velocity": 0.5905511811023622
        },
        {
          "duration": 0.33380672916666754,
          "durationTicks": 94,
          "midi": 59,
          "name": "B3",
          "ticks": 63456,
          "time": 225.34084899999996,
          "velocity": 0.5905511811023622
        },
        {
          "duration": 0.33380672916666754,
          "durationTicks": 94,
          "midi": 61,
          "name": "C#4",
          "ticks": 63456,
          "time": 225.34084899999996,
          "velocity": 0.5905511811023622
        },
        {
          "duration": 0.33380672916666754,
          "durationTicks": 94,
          "midi": 54,
          "name": "F#3",
          "ticks": 63552,
          "time": 225.68175799999997,
          "velocity": 0.5905511811023622
        },
        {
          "duration": 0.33380672916666754,
          "durationTicks": 94,
          "midi": 59,
          "name": "B3",
          "ticks": 63552,
          "time": 225.68175799999997,
          "velocity": 0.5905511811023622
        },
        {
          "duration": 0.33380672916666754,
          "durationTicks": 94,
          "midi": 61,
          "name": "C#4",
          "ticks": 63552,
          "time": 225.68175799999997,
          "velocity": 0.5905511811023622
        },
        {
          "duration": 0.3338067291666391,
          "durationTicks": 94,
          "midi": 54,
          "name": "F#3",
          "ticks": 63648,
          "time": 226.02266699999998,
          "velocity": 0.5905511811023622
        },
        {
          "duration": 0.3338067291666391,
          "durationTicks": 94,
          "midi": 59,
          "name": "B3",
          "ticks": 63648,
          "time": 226.02266699999998,
          "velocity": 0.5905511811023622
        },
        {
          "duration": 0.3338067291666391,
          "durationTicks": 94,
          "midi": 61,
          "name": "C#4",
          "ticks": 63648,
          "time": 226.02266699999998,
          "velocity": 0.5905511811023622
        },
        {
          "duration": 0.33380672916666754,
          "durationTicks": 94,
          "midi": 54,
          "name": "F#3",
          "ticks": 63744,
          "time": 226.36357599999997,
          "velocity": 0.5905511811023622
        },
        {
          "duration": 0.33380672916666754,
          "durationTicks": 94,
          "midi": 59,
          "name": "B3",
          "ticks": 63744,
          "time": 226.36357599999997,
          "velocity": 0.5905511811023622
        },
        {
          "duration": 0.33380672916666754,
          "durationTicks": 94,
          "midi": 63,
          "name": "D#4",
          "ticks": 63744,
          "time": 226.36357599999997,
          "velocity": 0.5905511811023622
        },
        {
          "duration": 0.3338067291666391,
          "durationTicks": 94,
          "midi": 54,
          "name": "F#3",
          "ticks": 63840,
          "time": 226.70448499999998,
          "velocity": 0.5905511811023622
        },
        {
          "duration": 0.3338067291666391,
          "durationTicks": 94,
          "midi": 59,
          "name": "B3",
          "ticks": 63840,
          "time": 226.70448499999998,
          "velocity": 0.5905511811023622
        },
        {
          "duration": 0.3338067291666391,
          "durationTicks": 94,
          "midi": 63,
          "name": "D#4",
          "ticks": 63840,
          "time": 226.70448499999998,
          "velocity": 0.5905511811023622
        },
        {
          "duration": 0.3338067291666391,
          "durationTicks": 94,
          "midi": 54,
          "name": "F#3",
          "ticks": 63936,
          "time": 227.045394,
          "velocity": 0.5905511811023622
        },
        {
          "duration": 0.3338067291666391,
          "durationTicks": 94,
          "midi": 59,
          "name": "B3",
          "ticks": 63936,
          "time": 227.045394,
          "velocity": 0.5905511811023622
        },
        {
          "duration": 0.3338067291666391,
          "durationTicks": 94,
          "midi": 63,
          "name": "D#4",
          "ticks": 63936,
          "time": 227.045394,
          "velocity": 0.5905511811023622
        },
        {
          "duration": 0.33380672916666754,
          "durationTicks": 94,
          "midi": 54,
          "name": "F#3",
          "ticks": 64032,
          "time": 227.38630299999997,
          "velocity": 0.5905511811023622
        },
        {
          "duration": 0.33380672916666754,
          "durationTicks": 94,
          "midi": 59,
          "name": "B3",
          "ticks": 64032,
          "time": 227.38630299999997,
          "velocity": 0.5905511811023622
        },
        {
          "duration": 0.33380672916666754,
          "durationTicks": 94,
          "midi": 63,
          "name": "D#4",
          "ticks": 64032,
          "time": 227.38630299999997,
          "velocity": 0.5905511811023622
        },
        {
          "duration": 0.3338067291666391,
          "durationTicks": 94,
          "midi": 54,
          "name": "F#3",
          "ticks": 64128,
          "time": 227.72721199999998,
          "velocity": 0.5905511811023622
        },
        {
          "duration": 0.3338067291666391,
          "durationTicks": 94,
          "midi": 59,
          "name": "B3",
          "ticks": 64128,
          "time": 227.72721199999998,
          "velocity": 0.5905511811023622
        },
        {
          "duration": 0.3338067291666391,
          "durationTicks": 94,
          "midi": 63,
          "name": "D#4",
          "ticks": 64128,
          "time": 227.72721199999998,
          "velocity": 0.5905511811023622
        },
        {
          "duration": 0.33380672916666754,
          "durationTicks": 94,
          "midi": 54,
          "name": "F#3",
          "ticks": 64224,
          "time": 228.06812099999996,
          "velocity": 0.5905511811023622
        },
        {
          "duration": 0.33380672916666754,
          "durationTicks": 94,
          "midi": 59,
          "name": "B3",
          "ticks": 64224,
          "time": 228.06812099999996,
          "velocity": 0.5905511811023622
        },
        {
          "duration": 0.33380672916666754,
          "durationTicks": 94,
          "midi": 63,
          "name": "D#4",
          "ticks": 64224,
          "time": 228.06812099999996,
          "velocity": 0.5905511811023622
        },
        {
          "duration": 0.33380672916666754,
          "durationTicks": 94,
          "midi": 54,
          "name": "F#3",
          "ticks": 64320,
          "time": 228.40902999999997,
          "velocity": 0.5905511811023622
        },
        {
          "duration": 0.33380672916666754,
          "durationTicks": 94,
          "midi": 59,
          "name": "B3",
          "ticks": 64320,
          "time": 228.40902999999997,
          "velocity": 0.5905511811023622
        },
        {
          "duration": 0.33380672916666754,
          "durationTicks": 94,
          "midi": 63,
          "name": "D#4",
          "ticks": 64320,
          "time": 228.40902999999997,
          "velocity": 0.5905511811023622
        },
        {
          "duration": 0.3338067291666391,
          "durationTicks": 94,
          "midi": 54,
          "name": "F#3",
          "ticks": 64416,
          "time": 228.74993899999998,
          "velocity": 0.5905511811023622
        },
        {
          "duration": 0.3338067291666391,
          "durationTicks": 94,
          "midi": 59,
          "name": "B3",
          "ticks": 64416,
          "time": 228.74993899999998,
          "velocity": 0.5905511811023622
        },
        {
          "duration": 0.3338067291666391,
          "durationTicks": 94,
          "midi": 63,
          "name": "D#4",
          "ticks": 64416,
          "time": 228.74993899999998,
          "velocity": 0.5905511811023622
        },
        {
          "duration": 0.33380672916666754,
          "durationTicks": 94,
          "midi": 54,
          "name": "F#3",
          "ticks": 64512,
          "time": 229.09084799999997,
          "velocity": 0.5905511811023622
        },
        {
          "duration": 0.33380672916666754,
          "durationTicks": 94,
          "midi": 59,
          "name": "B3",
          "ticks": 64512,
          "time": 229.09084799999997,
          "velocity": 0.5905511811023622
        },
        {
          "duration": 0.33380672916666754,
          "durationTicks": 94,
          "midi": 63,
          "name": "D#4",
          "ticks": 64512,
          "time": 229.09084799999997,
          "velocity": 0.5905511811023622
        },
        {
          "duration": 0.3338067291666391,
          "durationTicks": 94,
          "midi": 54,
          "name": "F#3",
          "ticks": 64608,
          "time": 229.43175699999998,
          "velocity": 0.5905511811023622
        },
        {
          "duration": 0.3338067291666391,
          "durationTicks": 94,
          "midi": 59,
          "name": "B3",
          "ticks": 64608,
          "time": 229.43175699999998,
          "velocity": 0.5905511811023622
        },
        {
          "duration": 0.3338067291666391,
          "durationTicks": 94,
          "midi": 63,
          "name": "D#4",
          "ticks": 64608,
          "time": 229.43175699999998,
          "velocity": 0.5905511811023622
        },
        {
          "duration": 0.3338067291666391,
          "durationTicks": 94,
          "midi": 54,
          "name": "F#3",
          "ticks": 64704,
          "time": 229.772666,
          "velocity": 0.5905511811023622
        },
        {
          "duration": 0.3338067291666391,
          "durationTicks": 94,
          "midi": 59,
          "name": "B3",
          "ticks": 64704,
          "time": 229.772666,
          "velocity": 0.5905511811023622
        },
        {
          "duration": 0.3338067291666391,
          "durationTicks": 94,
          "midi": 63,
          "name": "D#4",
          "ticks": 64704,
          "time": 229.772666,
          "velocity": 0.5905511811023622
        },
        {
          "duration": 0.33380672916666754,
          "durationTicks": 94,
          "midi": 54,
          "name": "F#3",
          "ticks": 64800,
          "time": 230.11357499999997,
          "velocity": 0.5905511811023622
        },
        {
          "duration": 0.33380672916666754,
          "durationTicks": 94,
          "midi": 59,
          "name": "B3",
          "ticks": 64800,
          "time": 230.11357499999997,
          "velocity": 0.5905511811023622
        },
        {
          "duration": 0.33380672916666754,
          "durationTicks": 94,
          "midi": 63,
          "name": "D#4",
          "ticks": 64800,
          "time": 230.11357499999997,
          "velocity": 0.5905511811023622
        },
        {
          "duration": 0.3338067291666391,
          "durationTicks": 94,
          "midi": 54,
          "name": "F#3",
          "ticks": 64896,
          "time": 230.45448399999998,
          "velocity": 0.5905511811023622
        },
        {
          "duration": 0.3338067291666391,
          "durationTicks": 94,
          "midi": 59,
          "name": "B3",
          "ticks": 64896,
          "time": 230.45448399999998,
          "velocity": 0.5905511811023622
        },
        {
          "duration": 0.3338067291666391,
          "durationTicks": 94,
          "midi": 63,
          "name": "D#4",
          "ticks": 64896,
          "time": 230.45448399999998,
          "velocity": 0.5905511811023622
        },
        {
          "duration": 0.33380672916666754,
          "durationTicks": 94,
          "midi": 54,
          "name": "F#3",
          "ticks": 64992,
          "time": 230.79539299999996,
          "velocity": 0.5905511811023622
        },
        {
          "duration": 0.33380672916666754,
          "durationTicks": 94,
          "midi": 59,
          "name": "B3",
          "ticks": 64992,
          "time": 230.79539299999996,
          "velocity": 0.5905511811023622
        },
        {
          "duration": 0.33380672916666754,
          "durationTicks": 94,
          "midi": 63,
          "name": "D#4",
          "ticks": 64992,
          "time": 230.79539299999996,
          "velocity": 0.5905511811023622
        },
        {
          "duration": 0.33380672916666754,
          "durationTicks": 94,
          "midi": 54,
          "name": "F#3",
          "ticks": 65088,
          "time": 231.13630199999997,
          "velocity": 0.5905511811023622
        },
        {
          "duration": 0.33380672916666754,
          "durationTicks": 94,
          "midi": 59,
          "name": "B3",
          "ticks": 65088,
          "time": 231.13630199999997,
          "velocity": 0.5905511811023622
        },
        {
          "duration": 0.33380672916666754,
          "durationTicks": 94,
          "midi": 63,
          "name": "D#4",
          "ticks": 65088,
          "time": 231.13630199999997,
          "velocity": 0.5905511811023622
        },
        {
          "duration": 0.3338067291666391,
          "durationTicks": 94,
          "midi": 54,
          "name": "F#3",
          "ticks": 65184,
          "time": 231.47721099999998,
          "velocity": 0.5905511811023622
        },
        {
          "duration": 0.3338067291666391,
          "durationTicks": 94,
          "midi": 59,
          "name": "B3",
          "ticks": 65184,
          "time": 231.47721099999998,
          "velocity": 0.5905511811023622
        },
        {
          "duration": 0.3338067291666391,
          "durationTicks": 94,
          "midi": 63,
          "name": "D#4",
          "ticks": 65184,
          "time": 231.47721099999998,
          "velocity": 0.5905511811023622
        },
        {
          "duration": 0.33380672916666754,
          "durationTicks": 94,
          "midi": 47,
          "name": "B2",
          "ticks": 65280,
          "time": 231.81811999999996,
          "velocity": 0.5905511811023622
        },
        {
          "duration": 0.33380672916666754,
          "durationTicks": 94,
          "midi": 59,
          "name": "B3",
          "ticks": 65280,
          "time": 231.81811999999996,
          "velocity": 0.5905511811023622
        },
        {
          "duration": 0.33380672916666754,
          "durationTicks": 94,
          "midi": 63,
          "name": "D#4",
          "ticks": 65280,
          "time": 231.81811999999996,
          "velocity": 0.5905511811023622
        },
        {
          "duration": 0.3338067291666391,
          "durationTicks": 94,
          "midi": 47,
          "name": "B2",
          "ticks": 65376,
          "time": 232.15902899999998,
          "velocity": 0.5905511811023622
        },
        {
          "duration": 0.3338067291666391,
          "durationTicks": 94,
          "midi": 59,
          "name": "B3",
          "ticks": 65376,
          "time": 232.15902899999998,
          "velocity": 0.5905511811023622
        },
        {
          "duration": 0.3338067291666391,
          "durationTicks": 94,
          "midi": 63,
          "name": "D#4",
          "ticks": 65376,
          "time": 232.15902899999998,
          "velocity": 0.5905511811023622
        },
        {
          "duration": 0.3338067291666391,
          "durationTicks": 94,
          "midi": 47,
          "name": "B2",
          "ticks": 65472,
          "time": 232.499938,
          "velocity": 0.5905511811023622
        },
        {
          "duration": 0.3338067291666391,
          "durationTicks": 94,
          "midi": 59,
          "name": "B3",
          "ticks": 65472,
          "time": 232.499938,
          "velocity": 0.5905511811023622
        },
        {
          "duration": 0.3338067291666391,
          "durationTicks": 94,
          "midi": 63,
          "name": "D#4",
          "ticks": 65472,
          "time": 232.499938,
          "velocity": 0.5905511811023622
        },
        {
          "duration": 0.33380672916666754,
          "durationTicks": 94,
          "midi": 47,
          "name": "B2",
          "ticks": 65568,
          "time": 232.84084699999997,
          "velocity": 0.5905511811023622
        },
        {
          "duration": 0.33380672916666754,
          "durationTicks": 94,
          "midi": 59,
          "name": "B3",
          "ticks": 65568,
          "time": 232.84084699999997,
          "velocity": 0.5905511811023622
        },
        {
          "duration": 0.33380672916666754,
          "durationTicks": 94,
          "midi": 63,
          "name": "D#4",
          "ticks": 65568,
          "time": 232.84084699999997,
          "velocity": 0.5905511811023622
        },
        {
          "duration": 0.3338067291666391,
          "durationTicks": 94,
          "midi": 47,
          "name": "B2",
          "ticks": 65664,
          "time": 233.18175599999998,
          "velocity": 0.5905511811023622
        },
        {
          "duration": 0.3338067291666391,
          "durationTicks": 94,
          "midi": 59,
          "name": "B3",
          "ticks": 65664,
          "time": 233.18175599999998,
          "velocity": 0.5905511811023622
        },
        {
          "duration": 0.3338067291666391,
          "durationTicks": 94,
          "midi": 63,
          "name": "D#4",
          "ticks": 65664,
          "time": 233.18175599999998,
          "velocity": 0.5905511811023622
        },
        {
          "duration": 0.33380672916666754,
          "durationTicks": 94,
          "midi": 47,
          "name": "B2",
          "ticks": 65760,
          "time": 233.52266499999996,
          "velocity": 0.5905511811023622
        },
        {
          "duration": 0.33380672916666754,
          "durationTicks": 94,
          "midi": 59,
          "name": "B3",
          "ticks": 65760,
          "time": 233.52266499999996,
          "velocity": 0.5905511811023622
        },
        {
          "duration": 0.33380672916666754,
          "durationTicks": 94,
          "midi": 63,
          "name": "D#4",
          "ticks": 65760,
          "time": 233.52266499999996,
          "velocity": 0.5905511811023622
        },
        {
          "duration": 0.33380672916666754,
          "durationTicks": 94,
          "midi": 47,
          "name": "B2",
          "ticks": 65856,
          "time": 233.86357399999997,
          "velocity": 0.5905511811023622
        },
        {
          "duration": 0.33380672916666754,
          "durationTicks": 94,
          "midi": 59,
          "name": "B3",
          "ticks": 65856,
          "time": 233.86357399999997,
          "velocity": 0.5905511811023622
        },
        {
          "duration": 0.33380672916666754,
          "durationTicks": 94,
          "midi": 63,
          "name": "D#4",
          "ticks": 65856,
          "time": 233.86357399999997,
          "velocity": 0.5905511811023622
        },
        {
          "duration": 0.3338067291666391,
          "durationTicks": 94,
          "midi": 47,
          "name": "B2",
          "ticks": 65952,
          "time": 234.20448299999998,
          "velocity": 0.5905511811023622
        },
        {
          "duration": 0.3338067291666391,
          "durationTicks": 94,
          "midi": 59,
          "name": "B3",
          "ticks": 65952,
          "time": 234.20448299999998,
          "velocity": 0.5905511811023622
        },
        {
          "duration": 0.3338067291666391,
          "durationTicks": 94,
          "midi": 63,
          "name": "D#4",
          "ticks": 65952,
          "time": 234.20448299999998,
          "velocity": 0.5905511811023622
        },
        {
          "duration": 0.33380672916666754,
          "durationTicks": 94,
          "midi": 47,
          "name": "B2",
          "ticks": 66048,
          "time": 234.54539199999996,
          "velocity": 0.5905511811023622
        },
        {
          "duration": 0.33380672916666754,
          "durationTicks": 94,
          "midi": 59,
          "name": "B3",
          "ticks": 66048,
          "time": 234.54539199999996,
          "velocity": 0.5905511811023622
        },
        {
          "duration": 0.33380672916666754,
          "durationTicks": 94,
          "midi": 63,
          "name": "D#4",
          "ticks": 66048,
          "time": 234.54539199999996,
          "velocity": 0.5905511811023622
        },
        {
          "duration": 0.3338067291666391,
          "durationTicks": 94,
          "midi": 47,
          "name": "B2",
          "ticks": 66144,
          "time": 234.88630099999997,
          "velocity": 0.5905511811023622
        },
        {
          "duration": 0.3338067291666391,
          "durationTicks": 94,
          "midi": 59,
          "name": "B3",
          "ticks": 66144,
          "time": 234.88630099999997,
          "velocity": 0.5905511811023622
        },
        {
          "duration": 0.3338067291666391,
          "durationTicks": 94,
          "midi": 63,
          "name": "D#4",
          "ticks": 66144,
          "time": 234.88630099999997,
          "velocity": 0.5905511811023622
        },
        {
          "duration": 0.3338067291666391,
          "durationTicks": 94,
          "midi": 47,
          "name": "B2",
          "ticks": 66240,
          "time": 235.22720999999999,
          "velocity": 0.5905511811023622
        },
        {
          "duration": 0.3338067291666391,
          "durationTicks": 94,
          "midi": 59,
          "name": "B3",
          "ticks": 66240,
          "time": 235.22720999999999,
          "velocity": 0.5905511811023622
        },
        {
          "duration": 0.3338067291666391,
          "durationTicks": 94,
          "midi": 63,
          "name": "D#4",
          "ticks": 66240,
          "time": 235.22720999999999,
          "velocity": 0.5905511811023622
        },
        {
          "duration": 0.33380672916666754,
          "durationTicks": 94,
          "midi": 47,
          "name": "B2",
          "ticks": 66336,
          "time": 235.56811899999997,
          "velocity": 0.5905511811023622
        },
        {
          "duration": 0.33380672916666754,
          "durationTicks": 94,
          "midi": 59,
          "name": "B3",
          "ticks": 66336,
          "time": 235.56811899999997,
          "velocity": 0.5905511811023622
        },
        {
          "duration": 0.33380672916666754,
          "durationTicks": 94,
          "midi": 63,
          "name": "D#4",
          "ticks": 66336,
          "time": 235.56811899999997,
          "velocity": 0.5905511811023622
        },
        {
          "duration": 0.3338067291666391,
          "durationTicks": 94,
          "midi": 47,
          "name": "B2",
          "ticks": 66432,
          "time": 235.90902799999998,
          "velocity": 0.5905511811023622
        },
        {
          "duration": 0.3338067291666391,
          "durationTicks": 94,
          "midi": 59,
          "name": "B3",
          "ticks": 66432,
          "time": 235.90902799999998,
          "velocity": 0.5905511811023622
        },
        {
          "duration": 0.3338067291666391,
          "durationTicks": 94,
          "midi": 63,
          "name": "D#4",
          "ticks": 66432,
          "time": 235.90902799999998,
          "velocity": 0.5905511811023622
        },
        {
          "duration": 0.33380672916666754,
          "durationTicks": 94,
          "midi": 47,
          "name": "B2",
          "ticks": 66528,
          "time": 236.24993699999996,
          "velocity": 0.5905511811023622
        },
        {
          "duration": 0.33380672916666754,
          "durationTicks": 94,
          "midi": 59,
          "name": "B3",
          "ticks": 66528,
          "time": 236.24993699999996,
          "velocity": 0.5905511811023622
        },
        {
          "duration": 0.33380672916666754,
          "durationTicks": 94,
          "midi": 63,
          "name": "D#4",
          "ticks": 66528,
          "time": 236.24993699999996,
          "velocity": 0.5905511811023622
        },
        {
          "duration": 0.33380672916666754,
          "durationTicks": 94,
          "midi": 47,
          "name": "B2",
          "ticks": 66624,
          "time": 236.59084599999997,
          "velocity": 0.5905511811023622
        },
        {
          "duration": 0.33380672916666754,
          "durationTicks": 94,
          "midi": 59,
          "name": "B3",
          "ticks": 66624,
          "time": 236.59084599999997,
          "velocity": 0.5905511811023622
        },
        {
          "duration": 0.33380672916666754,
          "durationTicks": 94,
          "midi": 63,
          "name": "D#4",
          "ticks": 66624,
          "time": 236.59084599999997,
          "velocity": 0.5905511811023622
        },
        {
          "duration": 0.3338067291666391,
          "durationTicks": 94,
          "midi": 47,
          "name": "B2",
          "ticks": 66720,
          "time": 236.93175499999998,
          "velocity": 0.5905511811023622
        },
        {
          "duration": 0.3338067291666391,
          "durationTicks": 94,
          "midi": 59,
          "name": "B3",
          "ticks": 66720,
          "time": 236.93175499999998,
          "velocity": 0.5905511811023622
        },
        {
          "duration": 0.3338067291666391,
          "durationTicks": 94,
          "midi": 63,
          "name": "D#4",
          "ticks": 66720,
          "time": 236.93175499999998,
          "velocity": 0.5905511811023622
        },
        {
          "duration": 0.33380672916666754,
          "durationTicks": 94,
          "midi": 54,
          "name": "F#3",
          "ticks": 66816,
          "time": 237.27266399999996,
          "velocity": 0.5905511811023622
        },
        {
          "duration": 0.33380672916666754,
          "durationTicks": 94,
          "midi": 59,
          "name": "B3",
          "ticks": 66816,
          "time": 237.27266399999996,
          "velocity": 0.5905511811023622
        },
        {
          "duration": 0.33380672916666754,
          "durationTicks": 94,
          "midi": 61,
          "name": "C#4",
          "ticks": 66816,
          "time": 237.27266399999996,
          "velocity": 0.5905511811023622
        },
        {
          "duration": 0.3338067291666391,
          "durationTicks": 94,
          "midi": 54,
          "name": "F#3",
          "ticks": 66912,
          "time": 237.61357299999997,
          "velocity": 0.5905511811023622
        },
        {
          "duration": 0.3338067291666391,
          "durationTicks": 94,
          "midi": 59,
          "name": "B3",
          "ticks": 66912,
          "time": 237.61357299999997,
          "velocity": 0.5905511811023622
        },
        {
          "duration": 0.3338067291666391,
          "durationTicks": 94,
          "midi": 61,
          "name": "C#4",
          "ticks": 66912,
          "time": 237.61357299999997,
          "velocity": 0.5905511811023622
        },
        {
          "duration": 0.3338067291666391,
          "durationTicks": 94,
          "midi": 54,
          "name": "F#3",
          "ticks": 67008,
          "time": 237.95448199999998,
          "velocity": 0.5905511811023622
        },
        {
          "duration": 0.3338067291666391,
          "durationTicks": 94,
          "midi": 59,
          "name": "B3",
          "ticks": 67008,
          "time": 237.95448199999998,
          "velocity": 0.5905511811023622
        },
        {
          "duration": 0.3338067291666391,
          "durationTicks": 94,
          "midi": 61,
          "name": "C#4",
          "ticks": 67008,
          "time": 237.95448199999998,
          "velocity": 0.5905511811023622
        },
        {
          "duration": 0.33380672916666754,
          "durationTicks": 94,
          "midi": 54,
          "name": "F#3",
          "ticks": 67104,
          "time": 238.29539099999997,
          "velocity": 0.5905511811023622
        },
        {
          "duration": 0.33380672916666754,
          "durationTicks": 94,
          "midi": 59,
          "name": "B3",
          "ticks": 67104,
          "time": 238.29539099999997,
          "velocity": 0.5905511811023622
        },
        {
          "duration": 0.33380672916666754,
          "durationTicks": 94,
          "midi": 61,
          "name": "C#4",
          "ticks": 67104,
          "time": 238.29539099999997,
          "velocity": 0.5905511811023622
        },
        {
          "duration": 0.3338067291666391,
          "durationTicks": 94,
          "midi": 54,
          "name": "F#3",
          "ticks": 67200,
          "time": 238.63629999999998,
          "velocity": 0.5905511811023622
        },
        {
          "duration": 0.3338067291666391,
          "durationTicks": 94,
          "midi": 59,
          "name": "B3",
          "ticks": 67200,
          "time": 238.63629999999998,
          "velocity": 0.5905511811023622
        },
        {
          "duration": 0.3338067291666391,
          "durationTicks": 94,
          "midi": 61,
          "name": "C#4",
          "ticks": 67200,
          "time": 238.63629999999998,
          "velocity": 0.5905511811023622
        },
        {
          "duration": 0.33380672916666754,
          "durationTicks": 94,
          "midi": 54,
          "name": "F#3",
          "ticks": 67296,
          "time": 238.97720899999996,
          "velocity": 0.5905511811023622
        },
        {
          "duration": 0.33380672916666754,
          "durationTicks": 94,
          "midi": 59,
          "name": "B3",
          "ticks": 67296,
          "time": 238.97720899999996,
          "velocity": 0.5905511811023622
        },
        {
          "duration": 0.33380672916666754,
          "durationTicks": 94,
          "midi": 61,
          "name": "C#4",
          "ticks": 67296,
          "time": 238.97720899999996,
          "velocity": 0.5905511811023622
        },
        {
          "duration": 0.33380672916666754,
          "durationTicks": 94,
          "midi": 54,
          "name": "F#3",
          "ticks": 67392,
          "time": 239.31811799999997,
          "velocity": 0.5905511811023622
        },
        {
          "duration": 0.33380672916666754,
          "durationTicks": 94,
          "midi": 59,
          "name": "B3",
          "ticks": 67392,
          "time": 239.31811799999997,
          "velocity": 0.5905511811023622
        },
        {
          "duration": 0.33380672916666754,
          "durationTicks": 94,
          "midi": 61,
          "name": "C#4",
          "ticks": 67392,
          "time": 239.31811799999997,
          "velocity": 0.5905511811023622
        },
        {
          "duration": 0.3338067291666391,
          "durationTicks": 94,
          "midi": 54,
          "name": "F#3",
          "ticks": 67488,
          "time": 239.65902699999998,
          "velocity": 0.5905511811023622
        },
        {
          "duration": 0.3338067291666391,
          "durationTicks": 94,
          "midi": 59,
          "name": "B3",
          "ticks": 67488,
          "time": 239.65902699999998,
          "velocity": 0.5905511811023622
        },
        {
          "duration": 0.3338067291666391,
          "durationTicks": 94,
          "midi": 61,
          "name": "C#4",
          "ticks": 67488,
          "time": 239.65902699999998,
          "velocity": 0.5905511811023622
        },
        {
          "duration": 0.33380672916666754,
          "durationTicks": 94,
          "midi": 54,
          "name": "F#3",
          "ticks": 67584,
          "time": 239.99993599999996,
          "velocity": 0.5905511811023622
        },
        {
          "duration": 0.33380672916666754,
          "durationTicks": 94,
          "midi": 59,
          "name": "B3",
          "ticks": 67584,
          "time": 239.99993599999996,
          "velocity": 0.5905511811023622
        },
        {
          "duration": 0.33380672916666754,
          "durationTicks": 94,
          "midi": 61,
          "name": "C#4",
          "ticks": 67584,
          "time": 239.99993599999996,
          "velocity": 0.5905511811023622
        },
        {
          "duration": 0.33380672916666754,
          "durationTicks": 94,
          "midi": 54,
          "name": "F#3",
          "ticks": 67680,
          "time": 240.34084499999997,
          "velocity": 0.5905511811023622
        },
        {
          "duration": 0.33380672916666754,
          "durationTicks": 94,
          "midi": 59,
          "name": "B3",
          "ticks": 67680,
          "time": 240.34084499999997,
          "velocity": 0.5905511811023622
        },
        {
          "duration": 0.33380672916666754,
          "durationTicks": 94,
          "midi": 61,
          "name": "C#4",
          "ticks": 67680,
          "time": 240.34084499999997,
          "velocity": 0.5905511811023622
        },
        {
          "duration": 0.3338067291666391,
          "durationTicks": 94,
          "midi": 54,
          "name": "F#3",
          "ticks": 67776,
          "time": 240.68175399999998,
          "velocity": 0.5905511811023622
        },
        {
          "duration": 0.3338067291666391,
          "durationTicks": 94,
          "midi": 59,
          "name": "B3",
          "ticks": 67776,
          "time": 240.68175399999998,
          "velocity": 0.5905511811023622
        },
        {
          "duration": 0.3338067291666391,
          "durationTicks": 94,
          "midi": 61,
          "name": "C#4",
          "ticks": 67776,
          "time": 240.68175399999998,
          "velocity": 0.5905511811023622
        },
        {
          "duration": 0.33380672916666754,
          "durationTicks": 94,
          "midi": 54,
          "name": "F#3",
          "ticks": 67872,
          "time": 241.02266299999997,
          "velocity": 0.5905511811023622
        },
        {
          "duration": 0.33380672916666754,
          "durationTicks": 94,
          "midi": 59,
          "name": "B3",
          "ticks": 67872,
          "time": 241.02266299999997,
          "velocity": 0.5905511811023622
        },
        {
          "duration": 0.33380672916666754,
          "durationTicks": 94,
          "midi": 61,
          "name": "C#4",
          "ticks": 67872,
          "time": 241.02266299999997,
          "velocity": 0.5905511811023622
        },
        {
          "duration": 0.3338067291666391,
          "durationTicks": 94,
          "midi": 54,
          "name": "F#3",
          "ticks": 67968,
          "time": 241.36357199999998,
          "velocity": 0.5905511811023622
        },
        {
          "duration": 0.3338067291666391,
          "durationTicks": 94,
          "midi": 59,
          "name": "B3",
          "ticks": 67968,
          "time": 241.36357199999998,
          "velocity": 0.5905511811023622
        },
        {
          "duration": 0.3338067291666391,
          "durationTicks": 94,
          "midi": 61,
          "name": "C#4",
          "ticks": 67968,
          "time": 241.36357199999998,
          "velocity": 0.5905511811023622
        },
        {
          "duration": 0.3338067291666391,
          "durationTicks": 94,
          "midi": 54,
          "name": "F#3",
          "ticks": 68064,
          "time": 241.704481,
          "velocity": 0.5905511811023622
        },
        {
          "duration": 0.3338067291666391,
          "durationTicks": 94,
          "midi": 59,
          "name": "B3",
          "ticks": 68064,
          "time": 241.704481,
          "velocity": 0.5905511811023622
        },
        {
          "duration": 0.3338067291666391,
          "durationTicks": 94,
          "midi": 61,
          "name": "C#4",
          "ticks": 68064,
          "time": 241.704481,
          "velocity": 0.5905511811023622
        },
        {
          "duration": 0.33380672916666754,
          "durationTicks": 94,
          "midi": 54,
          "name": "F#3",
          "ticks": 68160,
          "time": 242.04538999999997,
          "velocity": 0.5905511811023622
        },
        {
          "duration": 0.33380672916666754,
          "durationTicks": 94,
          "midi": 59,
          "name": "B3",
          "ticks": 68160,
          "time": 242.04538999999997,
          "velocity": 0.5905511811023622
        },
        {
          "duration": 0.33380672916666754,
          "durationTicks": 94,
          "midi": 61,
          "name": "C#4",
          "ticks": 68160,
          "time": 242.04538999999997,
          "velocity": 0.5905511811023622
        },
        {
          "duration": 0.3338067291666391,
          "durationTicks": 94,
          "midi": 54,
          "name": "F#3",
          "ticks": 68256,
          "time": 242.38629899999998,
          "velocity": 0.5905511811023622
        },
        {
          "duration": 0.3338067291666391,
          "durationTicks": 94,
          "midi": 59,
          "name": "B3",
          "ticks": 68256,
          "time": 242.38629899999998,
          "velocity": 0.5905511811023622
        },
        {
          "duration": 0.3338067291666391,
          "durationTicks": 94,
          "midi": 61,
          "name": "C#4",
          "ticks": 68256,
          "time": 242.38629899999998,
          "velocity": 0.5905511811023622
        },
        {
          "duration": 0.33380672916666754,
          "durationTicks": 94,
          "midi": 54,
          "name": "F#3",
          "ticks": 68352,
          "time": 242.72720799999996,
          "velocity": 0.5905511811023622
        },
        {
          "duration": 0.33380672916666754,
          "durationTicks": 94,
          "midi": 59,
          "name": "B3",
          "ticks": 68352,
          "time": 242.72720799999996,
          "velocity": 0.5905511811023622
        },
        {
          "duration": 0.33380672916666754,
          "durationTicks": 94,
          "midi": 63,
          "name": "D#4",
          "ticks": 68352,
          "time": 242.72720799999996,
          "velocity": 0.5905511811023622
        },
        {
          "duration": 0.33380672916666754,
          "durationTicks": 94,
          "midi": 54,
          "name": "F#3",
          "ticks": 68448,
          "time": 243.06811699999997,
          "velocity": 0.5905511811023622
        },
        {
          "duration": 0.33380672916666754,
          "durationTicks": 94,
          "midi": 59,
          "name": "B3",
          "ticks": 68448,
          "time": 243.06811699999997,
          "velocity": 0.5905511811023622
        },
        {
          "duration": 0.33380672916666754,
          "durationTicks": 94,
          "midi": 63,
          "name": "D#4",
          "ticks": 68448,
          "time": 243.06811699999997,
          "velocity": 0.5905511811023622
        },
        {
          "duration": 0.3338067291666391,
          "durationTicks": 94,
          "midi": 54,
          "name": "F#3",
          "ticks": 68544,
          "time": 243.40902599999998,
          "velocity": 0.5905511811023622
        },
        {
          "duration": 0.3338067291666391,
          "durationTicks": 94,
          "midi": 59,
          "name": "B3",
          "ticks": 68544,
          "time": 243.40902599999998,
          "velocity": 0.5905511811023622
        },
        {
          "duration": 0.3338067291666391,
          "durationTicks": 94,
          "midi": 63,
          "name": "D#4",
          "ticks": 68544,
          "time": 243.40902599999998,
          "velocity": 0.5905511811023622
        },
        {
          "duration": 0.33380672916666754,
          "durationTicks": 94,
          "midi": 54,
          "name": "F#3",
          "ticks": 68640,
          "time": 243.74993499999997,
          "velocity": 0.5905511811023622
        },
        {
          "duration": 0.33380672916666754,
          "durationTicks": 94,
          "midi": 59,
          "name": "B3",
          "ticks": 68640,
          "time": 243.74993499999997,
          "velocity": 0.5905511811023622
        },
        {
          "duration": 0.33380672916666754,
          "durationTicks": 94,
          "midi": 63,
          "name": "D#4",
          "ticks": 68640,
          "time": 243.74993499999997,
          "velocity": 0.5905511811023622
        },
        {
          "duration": 0.3338067291666391,
          "durationTicks": 94,
          "midi": 54,
          "name": "F#3",
          "ticks": 68736,
          "time": 244.09084399999998,
          "velocity": 0.5905511811023622
        },
        {
          "duration": 0.3338067291666391,
          "durationTicks": 94,
          "midi": 59,
          "name": "B3",
          "ticks": 68736,
          "time": 244.09084399999998,
          "velocity": 0.5905511811023622
        },
        {
          "duration": 0.3338067291666391,
          "durationTicks": 94,
          "midi": 63,
          "name": "D#4",
          "ticks": 68736,
          "time": 244.09084399999998,
          "velocity": 0.5905511811023622
        },
        {
          "duration": 0.3338067291666391,
          "durationTicks": 94,
          "midi": 54,
          "name": "F#3",
          "ticks": 68832,
          "time": 244.431753,
          "velocity": 0.5905511811023622
        },
        {
          "duration": 0.3338067291666391,
          "durationTicks": 94,
          "midi": 59,
          "name": "B3",
          "ticks": 68832,
          "time": 244.431753,
          "velocity": 0.5905511811023622
        },
        {
          "duration": 0.3338067291666391,
          "durationTicks": 94,
          "midi": 63,
          "name": "D#4",
          "ticks": 68832,
          "time": 244.431753,
          "velocity": 0.5905511811023622
        },
        {
          "duration": 0.33380672916666754,
          "durationTicks": 94,
          "midi": 54,
          "name": "F#3",
          "ticks": 68928,
          "time": 244.77266199999997,
          "velocity": 0.5905511811023622
        },
        {
          "duration": 0.33380672916666754,
          "durationTicks": 94,
          "midi": 59,
          "name": "B3",
          "ticks": 68928,
          "time": 244.77266199999997,
          "velocity": 0.5905511811023622
        },
        {
          "duration": 0.33380672916666754,
          "durationTicks": 94,
          "midi": 63,
          "name": "D#4",
          "ticks": 68928,
          "time": 244.77266199999997,
          "velocity": 0.5905511811023622
        },
        {
          "duration": 0.3338067291666391,
          "durationTicks": 94,
          "midi": 54,
          "name": "F#3",
          "ticks": 69024,
          "time": 245.11357099999998,
          "velocity": 0.5905511811023622
        },
        {
          "duration": 0.3338067291666391,
          "durationTicks": 94,
          "midi": 59,
          "name": "B3",
          "ticks": 69024,
          "time": 245.11357099999998,
          "velocity": 0.5905511811023622
        },
        {
          "duration": 0.3338067291666391,
          "durationTicks": 94,
          "midi": 63,
          "name": "D#4",
          "ticks": 69024,
          "time": 245.11357099999998,
          "velocity": 0.5905511811023622
        },
        {
          "duration": 0.33380672916666754,
          "durationTicks": 94,
          "midi": 54,
          "name": "F#3",
          "ticks": 69120,
          "time": 245.45447999999996,
          "velocity": 0.5905511811023622
        },
        {
          "duration": 0.33380672916666754,
          "durationTicks": 94,
          "midi": 59,
          "name": "B3",
          "ticks": 69120,
          "time": 245.45447999999996,
          "velocity": 0.5905511811023622
        },
        {
          "duration": 0.33380672916666754,
          "durationTicks": 94,
          "midi": 63,
          "name": "D#4",
          "ticks": 69120,
          "time": 245.45447999999996,
          "velocity": 0.5905511811023622
        },
        {
          "duration": 0.33380672916666754,
          "durationTicks": 94,
          "midi": 54,
          "name": "F#3",
          "ticks": 69216,
          "time": 245.79538899999997,
          "velocity": 0.5905511811023622
        },
        {
          "duration": 0.33380672916666754,
          "durationTicks": 94,
          "midi": 59,
          "name": "B3",
          "ticks": 69216,
          "time": 245.79538899999997,
          "velocity": 0.5905511811023622
        },
        {
          "duration": 0.33380672916666754,
          "durationTicks": 94,
          "midi": 63,
          "name": "D#4",
          "ticks": 69216,
          "time": 245.79538899999997,
          "velocity": 0.5905511811023622
        },
        {
          "duration": 0.3338067291666391,
          "durationTicks": 94,
          "midi": 54,
          "name": "F#3",
          "ticks": 69312,
          "time": 246.13629799999998,
          "velocity": 0.5905511811023622
        },
        {
          "duration": 0.3338067291666391,
          "durationTicks": 94,
          "midi": 59,
          "name": "B3",
          "ticks": 69312,
          "time": 246.13629799999998,
          "velocity": 0.5905511811023622
        },
        {
          "duration": 0.3338067291666391,
          "durationTicks": 94,
          "midi": 63,
          "name": "D#4",
          "ticks": 69312,
          "time": 246.13629799999998,
          "velocity": 0.5905511811023622
        },
        {
          "duration": 0.33380672916666754,
          "durationTicks": 94,
          "midi": 54,
          "name": "F#3",
          "ticks": 69408,
          "time": 246.47720699999996,
          "velocity": 0.5905511811023622
        },
        {
          "duration": 0.33380672916666754,
          "durationTicks": 94,
          "midi": 59,
          "name": "B3",
          "ticks": 69408,
          "time": 246.47720699999996,
          "velocity": 0.5905511811023622
        },
        {
          "duration": 0.33380672916666754,
          "durationTicks": 94,
          "midi": 63,
          "name": "D#4",
          "ticks": 69408,
          "time": 246.47720699999996,
          "velocity": 0.5905511811023622
        },
        {
          "duration": 0.3338067291666391,
          "durationTicks": 94,
          "midi": 54,
          "name": "F#3",
          "ticks": 69504,
          "time": 246.81811599999997,
          "velocity": 0.5905511811023622
        },
        {
          "duration": 0.3338067291666391,
          "durationTicks": 94,
          "midi": 59,
          "name": "B3",
          "ticks": 69504,
          "time": 246.81811599999997,
          "velocity": 0.5905511811023622
        },
        {
          "duration": 0.3338067291666391,
          "durationTicks": 94,
          "midi": 63,
          "name": "D#4",
          "ticks": 69504,
          "time": 246.81811599999997,
          "velocity": 0.5905511811023622
        },
        {
          "duration": 0.3338067291666391,
          "durationTicks": 94,
          "midi": 54,
          "name": "F#3",
          "ticks": 69600,
          "time": 247.15902499999999,
          "velocity": 0.5905511811023622
        },
        {
          "duration": 0.3338067291666391,
          "durationTicks": 94,
          "midi": 59,
          "name": "B3",
          "ticks": 69600,
          "time": 247.15902499999999,
          "velocity": 0.5905511811023622
        },
        {
          "duration": 0.3338067291666391,
          "durationTicks": 94,
          "midi": 63,
          "name": "D#4",
          "ticks": 69600,
          "time": 247.15902499999999,
          "velocity": 0.5905511811023622
        },
        {
          "duration": 0.33380672916666754,
          "durationTicks": 94,
          "midi": 54,
          "name": "F#3",
          "ticks": 69696,
          "time": 247.49993399999997,
          "velocity": 0.5905511811023622
        },
        {
          "duration": 0.33380672916666754,
          "durationTicks": 94,
          "midi": 59,
          "name": "B3",
          "ticks": 69696,
          "time": 247.49993399999997,
          "velocity": 0.5905511811023622
        },
        {
          "duration": 0.33380672916666754,
          "durationTicks": 94,
          "midi": 63,
          "name": "D#4",
          "ticks": 69696,
          "time": 247.49993399999997,
          "velocity": 0.5905511811023622
        },
        {
          "duration": 0.3338067291666391,
          "durationTicks": 94,
          "midi": 54,
          "name": "F#3",
          "ticks": 69792,
          "time": 247.84084299999998,
          "velocity": 0.5905511811023622
        },
        {
          "duration": 0.3338067291666391,
          "durationTicks": 94,
          "midi": 59,
          "name": "B3",
          "ticks": 69792,
          "time": 247.84084299999998,
          "velocity": 0.5905511811023622
        },
        {
          "duration": 0.3338067291666391,
          "durationTicks": 94,
          "midi": 63,
          "name": "D#4",
          "ticks": 69792,
          "time": 247.84084299999998,
          "velocity": 0.5905511811023622
        }
      ],
      "endOfTrackTicks": 69886
    },
    {
      "channel": 7,
      "controlChanges": {
        "7": [
          {
            "number": 7,
            "ticks": 0,
            "time": 0,
            "value": 1
          },
          {
            "number": 7,
            "ticks": 0,
            "time": 0,
            "value": 1
          }
        ],
        "10": [
          {
            "number": 10,
            "ticks": 0,
            "time": 0,
            "value": 0.5039370078740157
          },
          {
            "number": 10,
            "ticks": 0,
            "time": 0,
            "value": 0.5039370078740157
          }
        ]
      },
      "pitchBends": [],
      "instrument": {
        "family": "guitar",
        "number": 26,
        "name": "electric guitar (jazz)"
      },
      "name": " ",
      "notes": [
        {
          "duration": 0.07812497916665961,
          "durationTicks": 22,
          "midi": 54,
          "name": "F#3",
          "ticks": 14568,
          "time": 51.73294075,
          "velocity": 0.5905511811023622
        },
        {
          "duration": 0.07812497916666672,
          "durationTicks": 22,
          "midi": 59,
          "name": "B3",
          "ticks": 14592,
          "time": 51.81816799999999,
          "velocity": 0.5905511811023622
        },
        {
          "duration": 5.276987229166664,
          "durationTicks": 1486,
          "midi": 63,
          "name": "D#4",
          "ticks": 14616,
          "time": 51.903395249999996,
          "velocity": 0.5905511811023622
        },
        {
          "duration": 0.07812497916665961,
          "durationTicks": 22,
          "midi": 54,
          "name": "F#3",
          "ticks": 16104,
          "time": 57.187484749999996,
          "velocity": 0.5905511811023622
        },
        {
          "duration": 0.07812497916665961,
          "durationTicks": 22,
          "midi": 58,
          "name": "A#3",
          "ticks": 16104,
          "time": 57.187484749999996,
          "velocity": 0.5905511811023622
        },
        {
          "duration": 0.07812497916666672,
          "durationTicks": 22,
          "midi": 61,
          "name": "C#4",
          "ticks": 16128,
          "time": 57.27271199999999,
          "velocity": 0.5905511811023622
        },
        {
          "duration": 5.276987229166664,
          "durationTicks": 1486,
          "midi": 66,
          "name": "F#4",
          "ticks": 16152,
          "time": 57.357939249999994,
          "velocity": 0.5905511811023622
        },
        {
          "duration": 0.07812497916665961,
          "durationTicks": 22,
          "midi": 56,
          "name": "G#3",
          "ticks": 17640,
          "time": 62.642028749999994,
          "velocity": 0.5905511811023622
        },
        {
          "duration": 0.07812497916665961,
          "durationTicks": 22,
          "midi": 59,
          "name": "B3",
          "ticks": 17640,
          "time": 62.642028749999994,
          "velocity": 0.5905511811023622
        },
        {
          "duration": 5.36221447916666,
          "durationTicks": 1510,
          "midi": 64,
          "name": "E4",
          "ticks": 17664,
          "time": 62.72725599999999,
          "velocity": 0.5905511811023622
        },
        {
          "duration": 5.36221447916666,
          "durationTicks": 1510,
          "midi": 68,
          "name": "G#4",
          "ticks": 17664,
          "time": 62.72725599999999,
          "velocity": 0.5905511811023622
        },
        {
          "duration": 0.07812497916665961,
          "durationTicks": 22,
          "midi": 54,
          "name": "F#3",
          "ticks": 19176,
          "time": 68.09657274999999,
          "velocity": 0.5905511811023622
        },
        {
          "duration": 0.07812497916665961,
          "durationTicks": 22,
          "midi": 59,
          "name": "B3",
          "ticks": 19200,
          "time": 68.1818,
          "velocity": 0.5905511811023622
        },
        {
          "duration": 5.27698722916665,
          "durationTicks": 1486,
          "midi": 63,
          "name": "D#4",
          "ticks": 19224,
          "time": 68.26702725,
          "velocity": 0.5905511811023622
        },
        {
          "duration": 0.07812497916665961,
          "durationTicks": 22,
          "midi": 54,
          "name": "F#3",
          "ticks": 20712,
          "time": 73.55111674999999,
          "velocity": 0.5905511811023622
        },
        {
          "duration": 0.07812497916665961,
          "durationTicks": 22,
          "midi": 58,
          "name": "A#3",
          "ticks": 20712,
          "time": 73.55111674999999,
          "velocity": 0.5905511811023622
        },
        {
          "duration": 0.07812497916665961,
          "durationTicks": 22,
          "midi": 61,
          "name": "C#4",
          "ticks": 20736,
          "time": 73.636344,
          "velocity": 0.5905511811023622
        },
        {
          "duration": 5.276987229166664,
          "durationTicks": 1486,
          "midi": 66,
          "name": "F#4",
          "ticks": 20760,
          "time": 73.72157125,
          "velocity": 0.5905511811023622
        },
        {
          "duration": 0.07812497916665961,
          "durationTicks": 22,
          "midi": 56,
          "name": "G#3",
          "ticks": 22248,
          "time": 79.00566074999999,
          "velocity": 0.5905511811023622
        },
        {
          "duration": 0.07812497916665961,
          "durationTicks": 22,
          "midi": 59,
          "name": "B3",
          "ticks": 22248,
          "time": 79.00566074999999,
          "velocity": 0.5905511811023622
        },
        {
          "duration": 5.284089499999993,
          "durationTicks": 1488,
          "midi": 64,
          "name": "E4",
          "ticks": 22272,
          "time": 79.09088799999999,
          "velocity": 0.5905511811023622
        },
        {
          "duration": 5.284089499999993,
          "durationTicks": 1488,
          "midi": 68,
          "name": "G#4",
          "ticks": 22272,
          "time": 79.09088799999999,
          "velocity": 0.5905511811023622
        },
        {
          "duration": 1.1931814999999943,
          "durationTicks": 336,
          "midi": 59,
          "name": "B3",
          "ticks": 23808,
          "time": 84.54543199999999,
          "velocity": 0.5905511811023622
        },
        {
          "duration": 1.1931814999999943,
          "durationTicks": 336,
          "midi": 63,
          "name": "D#4",
          "ticks": 23808,
          "time": 84.54543199999999,
          "velocity": 0.5905511811023622
        },
        {
          "duration": 0.5681816666666606,
          "durationTicks": 160,
          "midi": 59,
          "name": "B3",
          "ticks": 24192,
          "time": 85.90906799999999,
          "velocity": 0.5905511811023622
        },
        {
          "duration": 0.5681816666666606,
          "durationTicks": 160,
          "midi": 63,
          "name": "D#4",
          "ticks": 24192,
          "time": 85.90906799999999,
          "velocity": 0.5905511811023622
        },
        {
          "duration": 0.5681816666666748,
          "durationTicks": 160,
          "midi": 59,
          "name": "B3",
          "ticks": 24384,
          "time": 86.59088599999998,
          "velocity": 0.5905511811023622
        },
        {
          "duration": 0.5681816666666748,
          "durationTicks": 160,
          "midi": 63,
          "name": "D#4",
          "ticks": 24384,
          "time": 86.59088599999998,
          "velocity": 0.5905511811023622
        },
        {
          "duration": 1.1931814999999943,
          "durationTicks": 336,
          "midi": 59,
          "name": "B3",
          "ticks": 24576,
          "time": 87.27270399999999,
          "velocity": 0.5905511811023622
        },
        {
          "duration": 1.1931814999999943,
          "durationTicks": 336,
          "midi": 64,
          "name": "E4",
          "ticks": 24576,
          "time": 87.27270399999999,
          "velocity": 0.5905511811023622
        },
        {
          "duration": 0.5681816666666748,
          "durationTicks": 160,
          "midi": 59,
          "name": "B3",
          "ticks": 24960,
          "time": 88.63633999999999,
          "velocity": 0.5905511811023622
        },
        {
          "duration": 0.5681816666666748,
          "durationTicks": 160,
          "midi": 63,
          "name": "D#4",
          "ticks": 24960,
          "time": 88.63633999999999,
          "velocity": 0.5905511811023622
        },
        {
          "duration": 0.5681816666666606,
          "durationTicks": 160,
          "midi": 59,
          "name": "B3",
          "ticks": 25152,
          "time": 89.318158,
          "velocity": 0.5905511811023622
        },
        {
          "duration": 0.5681816666666606,
          "durationTicks": 160,
          "midi": 63,
          "name": "D#4",
          "ticks": 25152,
          "time": 89.318158,
          "velocity": 0.5905511811023622
        },
        {
          "duration": 3.9204534999999936,
          "durationTicks": 1104,
          "midi": 76,
          "name": "E5",
          "ticks": 25344,
          "time": 89.99997599999999,
          "velocity": 0.5905511811023622
        },
        {
          "duration": 3.9204534999999936,
          "durationTicks": 1104,
          "midi": 80,
          "name": "G#5",
          "ticks": 25344,
          "time": 89.99997599999999,
          "velocity": 0.5905511811023622
        },
        {
          "duration": 1.1931814999999943,
          "durationTicks": 336,
          "midi": 75,
          "name": "D#5",
          "ticks": 26496,
          "time": 94.09088399999999,
          "velocity": 0.5905511811023622
        },
        {
          "duration": 1.1931814999999943,
          "durationTicks": 336,
          "midi": 78,
          "name": "F#5",
          "ticks": 26496,
          "time": 94.09088399999999,
          "velocity": 0.5905511811023622
        },
        {
          "duration": 3.920453500000008,
          "durationTicks": 1104,
          "midi": 76,
          "name": "E5",
          "ticks": 26880,
          "time": 95.45451999999999,
          "velocity": 0.5905511811023622
        },
        {
          "duration": 3.920453500000008,
          "durationTicks": 1104,
          "midi": 80,
          "name": "G#5",
          "ticks": 26880,
          "time": 95.45451999999999,
          "velocity": 0.5905511811023622
        },
        {
          "duration": 1.1931815000000086,
          "durationTicks": 336,
          "midi": 75,
          "name": "D#5",
          "ticks": 28032,
          "time": 99.54542799999999,
          "velocity": 0.5905511811023622
        },
        {
          "duration": 1.1931815000000086,
          "durationTicks": 336,
          "midi": 78,
          "name": "F#5",
          "ticks": 28032,
          "time": 99.54542799999999,
          "velocity": 0.5905511811023622
        },
        {
          "duration": 3.920453500000008,
          "durationTicks": 1104,
          "midi": 76,
          "name": "E5",
          "ticks": 28416,
          "time": 100.90906399999999,
          "velocity": 0.5905511811023622
        },
        {
          "duration": 3.920453500000008,
          "durationTicks": 1104,
          "midi": 80,
          "name": "G#5",
          "ticks": 28416,
          "time": 100.90906399999999,
          "velocity": 0.5905511811023622
        },
        {
          "duration": 1.1931815000000086,
          "durationTicks": 336,
          "midi": 75,
          "name": "D#5",
          "ticks": 29568,
          "time": 104.99997199999999,
          "velocity": 0.5905511811023622
        },
        {
          "duration": 1.1931815000000086,
          "durationTicks": 336,
          "midi": 78,
          "name": "F#5",
          "ticks": 29568,
          "time": 104.99997199999999,
          "velocity": 0.5905511811023622
        },
        {
          "duration": 4.6022715000000005,
          "durationTicks": 1296,
          "midi": 68,
          "name": "G#4",
          "ticks": 29952,
          "time": 106.36360799999999,
          "velocity": 0.5905511811023622
        },
        {
          "duration": 4.6022715000000005,
          "durationTicks": 1296,
          "midi": 71,
          "name": "B4",
          "ticks": 29952,
          "time": 106.36360799999999,
          "velocity": 0.5905511811023622
        },
        {
          "duration": 0.07812497916665961,
          "durationTicks": 22,
          "midi": 54,
          "name": "F#3",
          "ticks": 37608,
          "time": 133.55110075,
          "velocity": 0.5905511811023622
        },
        {
          "duration": 0.07812497916665961,
          "durationTicks": 22,
          "midi": 59,
          "name": "B3",
          "ticks": 37632,
          "time": 133.636328,
          "velocity": 0.5905511811023622
        },
        {
          "duration": 5.27698722916665,
          "durationTicks": 1486,
          "midi": 63,
          "name": "D#4",
          "ticks": 37656,
          "time": 133.72155525,
          "velocity": 0.5905511811023622
        },
        {
          "duration": 0.07812497916665961,
          "durationTicks": 22,
          "midi": 54,
          "name": "F#3",
          "ticks": 39144,
          "time": 139.00564475,
          "velocity": 0.5905511811023622
        },
        {
          "duration": 0.07812497916665961,
          "durationTicks": 22,
          "midi": 58,
          "name": "A#3",
          "ticks": 39144,
          "time": 139.00564475,
          "velocity": 0.5905511811023622
        },
        {
          "duration": 0.07812497916665961,
          "durationTicks": 22,
          "midi": 61,
          "name": "C#4",
          "ticks": 39168,
          "time": 139.090872,
          "velocity": 0.5905511811023622
        },
        {
          "duration": 5.27698722916665,
          "durationTicks": 1486,
          "midi": 66,
          "name": "F#4",
          "ticks": 39192,
          "time": 139.17609925,
          "velocity": 0.5905511811023622
        },
        {
          "duration": 0.07812497916665961,
          "durationTicks": 22,
          "midi": 56,
          "name": "G#3",
          "ticks": 40680,
          "time": 144.46018875,
          "velocity": 0.5905511811023622
        },
        {
          "duration": 0.07812497916665961,
          "durationTicks": 22,
          "midi": 59,
          "name": "B3",
          "ticks": 40680,
          "time": 144.46018875,
          "velocity": 0.5905511811023622
        },
        {
          "duration": 5.362214479166681,
          "durationTicks": 1510,
          "midi": 64,
          "name": "E4",
          "ticks": 40704,
          "time": 144.545416,
          "velocity": 0.5905511811023622
        },
        {
          "duration": 5.362214479166681,
          "durationTicks": 1510,
          "midi": 68,
          "name": "G#4",
          "ticks": 40704,
          "time": 144.545416,
          "velocity": 0.5905511811023622
        },
        {
          "duration": 0.07812497916665961,
          "durationTicks": 22,
          "midi": 54,
          "name": "F#3",
          "ticks": 42216,
          "time": 149.91473274999998,
          "velocity": 0.5905511811023622
        },
        {
          "duration": 0.07812497916665961,
          "durationTicks": 22,
          "midi": 59,
          "name": "B3",
          "ticks": 42240,
          "time": 149.99996,
          "velocity": 0.5905511811023622
        },
        {
          "duration": 5.276987229166679,
          "durationTicks": 1486,
          "midi": 63,
          "name": "D#4",
          "ticks": 42264,
          "time": 150.08518725,
          "velocity": 0.5905511811023622
        },
        {
          "duration": 0.07812497916665961,
          "durationTicks": 22,
          "midi": 54,
          "name": "F#3",
          "ticks": 43752,
          "time": 155.36927674999998,
          "velocity": 0.5905511811023622
        },
        {
          "duration": 0.07812497916665961,
          "durationTicks": 22,
          "midi": 58,
          "name": "A#3",
          "ticks": 43752,
          "time": 155.36927674999998,
          "velocity": 0.5905511811023622
        },
        {
          "duration": 0.07812497916665961,
          "durationTicks": 22,
          "midi": 61,
          "name": "C#4",
          "ticks": 43776,
          "time": 155.454504,
          "velocity": 0.5905511811023622
        },
        {
          "duration": 5.276987229166679,
          "durationTicks": 1486,
          "midi": 66,
          "name": "F#4",
          "ticks": 43800,
          "time": 155.53973125,
          "velocity": 0.5905511811023622
        },
        {
          "duration": 0.07812497916665961,
          "durationTicks": 22,
          "midi": 56,
          "name": "G#3",
          "ticks": 45288,
          "time": 160.82382074999998,
          "velocity": 0.5905511811023622
        },
        {
          "duration": 0.07812497916665961,
          "durationTicks": 22,
          "midi": 59,
          "name": "B3",
          "ticks": 45288,
          "time": 160.82382074999998,
          "velocity": 0.5905511811023622
        },
        {
          "duration": 5.284089499999993,
          "durationTicks": 1488,
          "midi": 64,
          "name": "E4",
          "ticks": 45312,
          "time": 160.90904799999998,
          "velocity": 0.5905511811023622
        },
        {
          "duration": 5.284089499999993,
          "durationTicks": 1488,
          "midi": 68,
          "name": "G#4",
          "ticks": 45312,
          "time": 160.90904799999998,
          "velocity": 0.5905511811023622
        },
        {
          "duration": 1.1931815000000086,
          "durationTicks": 336,
          "midi": 59,
          "name": "B3",
          "ticks": 46848,
          "time": 166.36359199999998,
          "velocity": 0.5905511811023622
        },
        {
          "duration": 1.1931815000000086,
          "durationTicks": 336,
          "midi": 63,
          "name": "D#4",
          "ticks": 46848,
          "time": 166.36359199999998,
          "velocity": 0.5905511811023622
        },
        {
          "duration": 0.5681816666666748,
          "durationTicks": 160,
          "midi": 59,
          "name": "B3",
          "ticks": 47232,
          "time": 167.72722799999997,
          "velocity": 0.5905511811023622
        },
        {
          "duration": 0.5681816666666748,
          "durationTicks": 160,
          "midi": 63,
          "name": "D#4",
          "ticks": 47232,
          "time": 167.72722799999997,
          "velocity": 0.5905511811023622
        },
        {
          "duration": 0.5681816666666748,
          "durationTicks": 160,
          "midi": 59,
          "name": "B3",
          "ticks": 47424,
          "time": 168.409046,
          "velocity": 0.5905511811023622
        },
        {
          "duration": 0.5681816666666748,
          "durationTicks": 160,
          "midi": 63,
          "name": "D#4",
          "ticks": 47424,
          "time": 168.409046,
          "velocity": 0.5905511811023622
        },
        {
          "duration": 1.1931815000000086,
          "durationTicks": 336,
          "midi": 59,
          "name": "B3",
          "ticks": 47616,
          "time": 169.09086399999998,
          "velocity": 0.5905511811023622
        },
        {
          "duration": 1.1931815000000086,
          "durationTicks": 336,
          "midi": 64,
          "name": "E4",
          "ticks": 47616,
          "time": 169.09086399999998,
          "velocity": 0.5905511811023622
        },
        {
          "duration": 0.5681816666666748,
          "durationTicks": 160,
          "midi": 59,
          "name": "B3",
          "ticks": 48000,
          "time": 170.45449999999997,
          "velocity": 0.5905511811023622
        },
        {
          "duration": 0.5681816666666748,
          "durationTicks": 160,
          "midi": 63,
          "name": "D#4",
          "ticks": 48000,
          "time": 170.45449999999997,
          "velocity": 0.5905511811023622
        },
        {
          "duration": 0.5681816666666748,
          "durationTicks": 160,
          "midi": 59,
          "name": "B3",
          "ticks": 48192,
          "time": 171.136318,
          "velocity": 0.5905511811023622
        },
        {
          "duration": 0.5681816666666748,
          "durationTicks": 160,
          "midi": 63,
          "name": "D#4",
          "ticks": 48192,
          "time": 171.136318,
          "velocity": 0.5905511811023622
        },
        {
          "duration": 3.920453500000008,
          "durationTicks": 1104,
          "midi": 76,
          "name": "E5",
          "ticks": 48384,
          "time": 171.81813599999998,
          "velocity": 0.5905511811023622
        },
        {
          "duration": 3.920453500000008,
          "durationTicks": 1104,
          "midi": 80,
          "name": "G#5",
          "ticks": 48384,
          "time": 171.81813599999998,
          "velocity": 0.5905511811023622
        },
        {
          "duration": 1.1931814999999801,
          "durationTicks": 336,
          "midi": 75,
          "name": "D#5",
          "ticks": 49536,
          "time": 175.909044,
          "velocity": 0.5905511811023622
        },
        {
          "duration": 1.1931814999999801,
          "durationTicks": 336,
          "midi": 78,
          "name": "F#5",
          "ticks": 49536,
          "time": 175.909044,
          "velocity": 0.5905511811023622
        },
        {
          "duration": 3.920453500000008,
          "durationTicks": 1104,
          "midi": 76,
          "name": "E5",
          "ticks": 49920,
          "time": 177.27267999999998,
          "velocity": 0.5905511811023622
        },
        {
          "duration": 3.920453500000008,
          "durationTicks": 1104,
          "midi": 80,
          "name": "G#5",
          "ticks": 49920,
          "time": 177.27267999999998,
          "velocity": 0.5905511811023622
        },
        {
          "duration": 1.1931814999999801,
          "durationTicks": 336,
          "midi": 75,
          "name": "D#5",
          "ticks": 51072,
          "time": 181.363588,
          "velocity": 0.5905511811023622
        },
        {
          "duration": 1.1931814999999801,
          "durationTicks": 336,
          "midi": 78,
          "name": "F#5",
          "ticks": 51072,
          "time": 181.363588,
          "velocity": 0.5905511811023622
        },
        {
          "duration": 3.920453500000008,
          "durationTicks": 1104,
          "midi": 76,
          "name": "E5",
          "ticks": 51456,
          "time": 182.72722399999998,
          "velocity": 0.5905511811023622
        },
        {
          "duration": 3.920453500000008,
          "durationTicks": 1104,
          "midi": 80,
          "name": "G#5",
          "ticks": 51456,
          "time": 182.72722399999998,
          "velocity": 0.5905511811023622
        },
        {
          "duration": 1.1931814999999801,
          "durationTicks": 336,
          "midi": 75,
          "name": "D#5",
          "ticks": 52608,
          "time": 186.818132,
          "velocity": 0.5905511811023622
        },
        {
          "duration": 1.1931814999999801,
          "durationTicks": 336,
          "midi": 78,
          "name": "F#5",
          "ticks": 52608,
          "time": 186.818132,
          "velocity": 0.5905511811023622
        },
        {
          "duration": 4.6022715000000005,
          "durationTicks": 1296,
          "midi": 68,
          "name": "G#4",
          "ticks": 52992,
          "time": 188.18176799999998,
          "velocity": 0.5905511811023622
        },
        {
          "duration": 4.6022715000000005,
          "durationTicks": 1296,
          "midi": 71,
          "name": "B4",
          "ticks": 52992,
          "time": 188.18176799999998,
          "velocity": 0.5905511811023622
        }
      ],
      "endOfTrackTicks": 54288
    },
    {
      "channel": 8,
      "controlChanges": {
        "7": [
          {
            "number": 7,
            "ticks": 0,
            "time": 0,
            "value": 1
          },
          {
            "number": 7,
            "ticks": 0,
            "time": 0,
            "value": 1
          }
        ],
        "10": [
          {
            "number": 10,
            "ticks": 0,
            "time": 0,
            "value": 0.5039370078740157
          },
          {
            "number": 10,
            "ticks": 0,
            "time": 0,
            "value": 0.5039370078740157
          }
        ]
      },
      "pitchBends": [],
      "instrument": {
        "family": "ensemble",
        "number": 48,
        "name": "string ensemble 1"
      },
      "name": " ",
      "notes": [
        {
          "duration": 5.284089499999993,
          "durationTicks": 1488,
          "midi": 63,
          "name": "D#4",
          "ticks": 19200,
          "time": 68.1818,
          "velocity": 0.5905511811023622
        },
        {
          "duration": 5.284089499999993,
          "durationTicks": 1488,
          "midi": 61,
          "name": "C#4",
          "ticks": 20736,
          "time": 73.636344,
          "velocity": 0.5905511811023622
        },
        {
          "duration": 5.284089499999993,
          "durationTicks": 1488,
          "midi": 59,
          "name": "B3",
          "ticks": 22272,
          "time": 79.09088799999999,
          "velocity": 0.5905511811023622
        },
        {
          "duration": 2.556817499999994,
          "durationTicks": 720,
          "midi": 63,
          "name": "D#4",
          "ticks": 23808,
          "time": 84.54543199999999,
          "velocity": 0.5905511811023622
        },
        {
          "duration": 1.1931814999999943,
          "durationTicks": 336,
          "midi": 64,
          "name": "E4",
          "ticks": 24576,
          "time": 87.27270399999999,
          "velocity": 0.5905511811023622
        },
        {
          "duration": 1.1931814999999943,
          "durationTicks": 336,
          "midi": 63,
          "name": "D#4",
          "ticks": 24960,
          "time": 88.63633999999999,
          "velocity": 0.5905511811023622
        },
        {
          "duration": 5.284089499999993,
          "durationTicks": 1488,
          "midi": 63,
          "name": "D#4",
          "ticks": 42240,
          "time": 149.99996,
          "velocity": 0.5905511811023622
        },
        {
          "duration": 5.284089499999993,
          "durationTicks": 1488,
          "midi": 61,
          "name": "C#4",
          "ticks": 43776,
          "time": 155.454504,
          "velocity": 0.5905511811023622
        },
        {
          "duration": 3.920453500000008,
          "durationTicks": 1104,
          "midi": 68,
          "name": "G#4",
          "ticks": 45312,
          "time": 160.90904799999998,
          "velocity": 0.5905511811023622
        },
        {
          "duration": 5.965907500000014,
          "durationTicks": 1680,
          "midi": 66,
          "name": "F#4",
          "ticks": 46464,
          "time": 164.99995599999997,
          "velocity": 0.5905511811023622
        },
        {
          "duration": 5.284089500000022,
          "durationTicks": 1488,
          "midi": 59,
          "name": "B3",
          "ticks": 69888,
          "time": 248.18175199999996,
          "velocity": 0.5905511811023622
        },
        {
          "duration": 5.284089500000022,
          "durationTicks": 1488,
          "midi": 63,
          "name": "D#4",
          "ticks": 69888,
          "time": 248.18175199999996,
          "velocity": 0.5905511811023622
        },
        {
          "duration": 5.284089499999993,
          "durationTicks": 1488,
          "midi": 61,
          "name": "C#4",
          "ticks": 71424,
          "time": 253.63629599999996,
          "velocity": 0.5905511811023622
        },
        {
          "duration": 5.284089499999993,
          "durationTicks": 1488,
          "midi": 64,
          "name": "E4",
          "ticks": 71424,
          "time": 253.63629599999996,
          "velocity": 0.5905511811023622
        },
        {
          "duration": 5.284089499999993,
          "durationTicks": 1488,
          "midi": 59,
          "name": "B3",
          "ticks": 72960,
          "time": 259.09083999999996,
          "velocity": 0.5905511811023622
        },
        {
          "duration": 5.284089499999993,
          "durationTicks": 1488,
          "midi": 63,
          "name": "D#4",
          "ticks": 72960,
          "time": 259.09083999999996,
          "velocity": 0.5905511811023622
        }
      ],
      "endOfTrackTicks": 74448
    },
    {
      "channel": 0,
      "controlChanges": {
        "7": [
          {
            "number": 7,
            "ticks": 0,
            "time": 0,
            "value": 1
          },
          {
            "number": 7,
            "ticks": 0,
            "time": 0,
            "value": 1
          }
        ],
        "10": [
          {
            "number": 10,
            "ticks": 0,
            "time": 0,
            "value": 0.5039370078740157
          },
          {
            "number": 10,
            "ticks": 0,
            "time": 0,
            "value": 0.5039370078740157
          }
        ]
      },
      "pitchBends": [],
      "instrument": {
        "family": "piano",
        "number": 0,
        "name": "acoustic grand piano"
      },
      "name": "Tempo Track",
      "notes": [],
      "endOfTrackTicks": 0
    }
  ]
}